<?xml version="1.0" encoding="UTF-8" standalone="no"?>
<!DOCTYPE svg PUBLIC "-//W3C//DTD SVG 1.1//EN"
 "http://www.w3.org/Graphics/SVG/1.1/DTD/svg11.dtd">
<!-- Generated by graphviz version 2.43.0 (0)
 -->
<!-- Title: /home/runner/work/Documentation/Documentation/master/applications/TrilinosApplication/custom_utilities/trilinos_dof_updater.h Pages: 1 -->
<svg width="2825pt" height="539pt"
 viewBox="0.00 0.00 2825.00 539.00" xmlns="http://www.w3.org/2000/svg" xmlns:xlink="http://www.w3.org/1999/xlink">
<g id="graph0" class="graph" transform="scale(1 1) rotate(0) translate(4 535)">
<title>/home/runner/work/Documentation/Documentation/master/applications/TrilinosApplication/custom_utilities/trilinos_dof_updater.h</title>
<!-- Node1 -->
<g id="node1" class="node">
<title>Node1</title>
<g id="a_node1"><a xlink:title=" ">
<polygon fill="#bfbfbf" stroke="black" points="1534,-478.5 1534,-530.5 1728,-530.5 1728,-478.5 1534,-478.5"/>
<text text-anchor="start" x="1542" y="-518.5" font-family="Helvetica,sans-Serif" font-size="10.00">/home/runner/work/Documentation</text>
<text text-anchor="start" x="1542" y="-507.5" font-family="Helvetica,sans-Serif" font-size="10.00">/Documentation/master/applications</text>
<text text-anchor="start" x="1542" y="-496.5" font-family="Helvetica,sans-Serif" font-size="10.00">/TrilinosApplication/custom_utilities</text>
<text text-anchor="middle" x="1631" y="-485.5" font-family="Helvetica,sans-Serif" font-size="10.00">/trilinos_dof_updater.h</text>
</a>
</g>
</g>
<!-- Node2 -->
<g id="node2" class="node">
<title>Node2</title>
<g id="a_node2"><a xlink:href="../../da/d5f/trilinos__space_8h.html" target="_top" xlink:title=" ">
<polygon fill="none" stroke="black" points="1534,-400.5 1534,-441.5 1728,-441.5 1728,-400.5 1534,-400.5"/>
<text text-anchor="start" x="1542" y="-429.5" font-family="Helvetica,sans-Serif" font-size="10.00">/home/runner/work/Documentation</text>
<text text-anchor="start" x="1542" y="-418.5" font-family="Helvetica,sans-Serif" font-size="10.00">/Documentation/master/applications</text>
<text text-anchor="middle" x="1631" y="-407.5" font-family="Helvetica,sans-Serif" font-size="10.00">/TrilinosApplication/trilinos_space.h</text>
</a>
</g>
</g>
<!-- Node1&#45;&gt;Node2 -->
<g id="edge1" class="edge">
<title>Node1&#45;&gt;Node2</title>
<path fill="none" stroke="midnightblue" d="M1631,-468.15C1631,-459.05 1631,-449.6 1631,-441.63"/>
<polygon fill="midnightblue" stroke="midnightblue" points="1627.5,-468.16 1631,-478.16 1634.5,-468.16 1627.5,-468.16"/>
</g>
<!-- Node3 -->
<g id="node3" class="node">
<title>Node3</title>
<g id="a_node3"><a xlink:href="../../dd/d51/add__custom__mpi__strategies__to__python_8cpp.html" target="_top" xlink:title=" ">
<polygon fill="none" stroke="black" points="0,-306 0,-358 210,-358 210,-306 0,-306"/>
<text text-anchor="start" x="8" y="-346" font-family="Helvetica,sans-Serif" font-size="10.00">/home/runner/work/Documentation</text>
<text text-anchor="start" x="8" y="-335" font-family="Helvetica,sans-Serif" font-size="10.00">/Documentation/master/applications</text>
<text text-anchor="start" x="8" y="-324" font-family="Helvetica,sans-Serif" font-size="10.00">/DamApplication/custom_python/add</text>
<text text-anchor="middle" x="105" y="-313" font-family="Helvetica,sans-Serif" font-size="10.00">_custom_mpi_strategies_to_python.cpp</text>
</a>
</g>
</g>
<!-- Node2&#45;&gt;Node3 -->
<g id="edge2" class="edge">
<title>Node2&#45;&gt;Node3</title>
<path fill="none" stroke="midnightblue" d="M1523.36,-418.71C1239.32,-414.82 474.21,-401.13 224,-364 213.65,-362.46 202.91,-360.38 192.29,-358.02"/>
<polygon fill="midnightblue" stroke="midnightblue" points="1523.62,-422.21 1533.67,-418.85 1523.72,-415.21 1523.62,-422.21"/>
</g>
<!-- Node4 -->
<g id="node4" class="node">
<title>Node4</title>
<g id="a_node4"><a xlink:href="../../d2/da3/_fluid_dynamics_application_2trilinos__extension_2custom__python_2add__trilinos__processes__to__python_8cpp.html" target="_top" xlink:title=" ">
<polygon fill="none" stroke="black" points="212,-0.5 212,-63.5 420,-63.5 420,-0.5 212,-0.5"/>
<text text-anchor="start" x="220" y="-51.5" font-family="Helvetica,sans-Serif" font-size="10.00">/home/runner/work/Documentation</text>
<text text-anchor="start" x="220" y="-40.5" font-family="Helvetica,sans-Serif" font-size="10.00">/Documentation/master/applications</text>
<text text-anchor="start" x="220" y="-29.5" font-family="Helvetica,sans-Serif" font-size="10.00">/FluidDynamicsApplication/trilinos</text>
<text text-anchor="start" x="220" y="-18.5" font-family="Helvetica,sans-Serif" font-size="10.00">_extension/custom_python/add_trilinos</text>
<text text-anchor="middle" x="316" y="-7.5" font-family="Helvetica,sans-Serif" font-size="10.00">_processes_to_python.cpp</text>
</a>
</g>
</g>
<!-- Node2&#45;&gt;Node4 -->
<g id="edge3" class="edge">
<title>Node2&#45;&gt;Node4</title>
<path fill="none" stroke="midnightblue" d="M1523.83,-418.05C1220.88,-412.2 376.79,-393.32 325,-364 219.75,-304.42 217.25,-213.51 259,-100 263.9,-86.67 272.77,-74.18 282.07,-63.69"/>
<polygon fill="midnightblue" stroke="midnightblue" points="1523.87,-421.55 1533.94,-418.25 1524.01,-414.55 1523.87,-421.55"/>
</g>
<!-- Node5 -->
<g id="node5" class="node">
<title>Node5</title>
<g id="a_node5"><a xlink:href="../../d2/d50/_fluid_dynamics_application_2trilinos__extension_2custom__python_2add__trilinos__schemes__to__python_8cpp.html" target="_top" xlink:title=" ">
<polygon fill="none" stroke="black" points="963,-300.5 963,-363.5 1171,-363.5 1171,-300.5 963,-300.5"/>
<text text-anchor="start" x="971" y="-351.5" font-family="Helvetica,sans-Serif" font-size="10.00">/home/runner/work/Documentation</text>
<text text-anchor="start" x="971" y="-340.5" font-family="Helvetica,sans-Serif" font-size="10.00">/Documentation/master/applications</text>
<text text-anchor="start" x="971" y="-329.5" font-family="Helvetica,sans-Serif" font-size="10.00">/FluidDynamicsApplication/trilinos</text>
<text text-anchor="start" x="971" y="-318.5" font-family="Helvetica,sans-Serif" font-size="10.00">_extension/custom_python/add_trilinos</text>
<text text-anchor="middle" x="1067" y="-307.5" font-family="Helvetica,sans-Serif" font-size="10.00">_schemes_to_python.cpp</text>
</a>
</g>
</g>
<!-- Node2&#45;&gt;Node5 -->
<g id="edge4" class="edge">
<title>Node2&#45;&gt;Node5</title>
<path fill="none" stroke="midnightblue" d="M1523.44,-411.04C1431.63,-402.35 1296.37,-387.06 1180,-364 1177.11,-363.43 1174.18,-362.82 1171.23,-362.18"/>
<polygon fill="midnightblue" stroke="midnightblue" points="1523.3,-414.55 1533.58,-411.99 1523.95,-407.58 1523.3,-414.55"/>
</g>
<!-- Node6 -->
<g id="node6" class="node">
<title>Node6</title>
<g id="a_node6"><a xlink:href="../../db/dee/_fluid_dynamics_application_2trilinos__extension_2custom__python_2add__trilinos__strategies__to__python_8cpp.html" target="_top" xlink:title=" ">
<polygon fill="none" stroke="black" points="1189,-300.5 1189,-363.5 1397,-363.5 1397,-300.5 1189,-300.5"/>
<text text-anchor="start" x="1197" y="-351.5" font-family="Helvetica,sans-Serif" font-size="10.00">/home/runner/work/Documentation</text>
<text text-anchor="start" x="1197" y="-340.5" font-family="Helvetica,sans-Serif" font-size="10.00">/Documentation/master/applications</text>
<text text-anchor="start" x="1197" y="-329.5" font-family="Helvetica,sans-Serif" font-size="10.00">/FluidDynamicsApplication/trilinos</text>
<text text-anchor="start" x="1197" y="-318.5" font-family="Helvetica,sans-Serif" font-size="10.00">_extension/custom_python/add_trilinos</text>
<text text-anchor="middle" x="1293" y="-307.5" font-family="Helvetica,sans-Serif" font-size="10.00">_strategies_to_python.cpp</text>
</a>
</g>
</g>
<!-- Node2&#45;&gt;Node6 -->
<g id="edge5" class="edge">
<title>Node2&#45;&gt;Node6</title>
<path fill="none" stroke="midnightblue" d="M1540.7,-398.05C1499.56,-387.91 1450.26,-375.58 1406,-364 1403.05,-363.23 1400.05,-362.44 1397.03,-361.64"/>
<polygon fill="midnightblue" stroke="midnightblue" points="1539.89,-401.45 1550.44,-400.44 1541.56,-394.65 1539.89,-401.45"/>
</g>
<!-- Node7 -->
<g id="node7" class="node">
<title>Node7</title>
<g id="a_node7"><a xlink:href="../../d4/d5f/add__trilinos__utilities__to__python_8cpp.html" target="_top" xlink:title=" ">
<polygon fill="none" stroke="black" points="515,-0.5 515,-63.5 723,-63.5 723,-0.5 515,-0.5"/>
<text text-anchor="start" x="523" y="-51.5" font-family="Helvetica,sans-Serif" font-size="10.00">/home/runner/work/Documentation</text>
<text text-anchor="start" x="523" y="-40.5" font-family="Helvetica,sans-Serif" font-size="10.00">/Documentation/master/applications</text>
<text text-anchor="start" x="523" y="-29.5" font-family="Helvetica,sans-Serif" font-size="10.00">/FluidDynamicsApplication/trilinos</text>
<text text-anchor="start" x="523" y="-18.5" font-family="Helvetica,sans-Serif" font-size="10.00">_extension/custom_python/add_trilinos</text>
<text text-anchor="middle" x="619" y="-7.5" font-family="Helvetica,sans-Serif" font-size="10.00">_utilities_to_python.cpp</text>
</a>
</g>
</g>
<!-- Node2&#45;&gt;Node7 -->
<g id="edge6" class="edge">
<title>Node2&#45;&gt;Node7</title>
<path fill="none" stroke="midnightblue" d="M1523.77,-418.89C1354.94,-415.9 1017.2,-404.82 734,-364 535.94,-335.45 419.8,-420.42 295,-264 249.54,-207.02 248.97,-156.52 295,-100 302.13,-91.25 422.75,-67.97 514.75,-51.31"/>
<polygon fill="midnightblue" stroke="midnightblue" points="1523.85,-422.39 1533.91,-419.07 1523.97,-415.4 1523.85,-422.39"/>
</g>
<!-- Node8 -->
<g id="node8" class="node">
<title>Node8</title>
<g id="a_node8"><a xlink:href="../../d8/d4d/mapper__mpi__define_8h.html" target="_top" xlink:title=" ">
<polygon fill="none" stroke="black" points="1415,-306 1415,-358 1621,-358 1621,-306 1415,-306"/>
<text text-anchor="start" x="1423" y="-346" font-family="Helvetica,sans-Serif" font-size="10.00">/home/runner/work/Documentation</text>
<text text-anchor="start" x="1423" y="-335" font-family="Helvetica,sans-Serif" font-size="10.00">/Documentation/master/applications</text>
<text text-anchor="start" x="1423" y="-324" font-family="Helvetica,sans-Serif" font-size="10.00">/MappingApplication/mpi_extension</text>
<text text-anchor="middle" x="1518" y="-313" font-family="Helvetica,sans-Serif" font-size="10.00">/custom_utilities/mapper_mpi_define.h</text>
</a>
</g>
</g>
<!-- Node2&#45;&gt;Node8 -->
<g id="edge7" class="edge">
<title>Node2&#45;&gt;Node8</title>
<path fill="none" stroke="midnightblue" d="M1597.68,-394.35C1582.82,-382.9 1565.36,-369.46 1550.58,-358.08"/>
<polygon fill="midnightblue" stroke="midnightblue" points="1595.58,-397.15 1605.64,-400.48 1599.85,-391.6 1595.58,-397.15"/>
</g>
<!-- Node12 -->
<g id="node12" class="node">
<title>Node12</title>
<g id="a_node12"><a xlink:href="../../dd/dec/_r_a_n_s_application_2trilinos__extension_2custom__python_2add__trilinos__strategies__to__python_8cpp.html" target="_top" xlink:title=" ">
<polygon fill="none" stroke="black" points="1639.5,-300.5 1639.5,-363.5 1848.5,-363.5 1848.5,-300.5 1639.5,-300.5"/>
<text text-anchor="start" x="1647.5" y="-351.5" font-family="Helvetica,sans-Serif" font-size="10.00">/home/runner/work/Documentation</text>
<text text-anchor="start" x="1647.5" y="-340.5" font-family="Helvetica,sans-Serif" font-size="10.00">/Documentation/master/applications</text>
<text text-anchor="start" x="1647.5" y="-329.5" font-family="Helvetica,sans-Serif" font-size="10.00">/RANSApplication/trilinos_extension</text>
<text text-anchor="start" x="1647.5" y="-318.5" font-family="Helvetica,sans-Serif" font-size="10.00">/custom_python/add_trilinos_strategies</text>
<text text-anchor="middle" x="1744" y="-307.5" font-family="Helvetica,sans-Serif" font-size="10.00">_to_python.cpp</text>
</a>
</g>
</g>
<!-- Node2&#45;&gt;Node12 -->
<g id="edge11" class="edge">
<title>Node2&#45;&gt;Node12</title>
<path fill="none" stroke="midnightblue" d="M1664.62,-394.11C1677.02,-384.57 1691.19,-373.66 1704.09,-363.73"/>
<polygon fill="midnightblue" stroke="midnightblue" points="1662.15,-391.6 1656.36,-400.48 1666.42,-397.15 1662.15,-391.6"/>
</g>
<!-- Node13 -->
<g id="node13" class="node">
<title>Node13</title>
<g id="a_node13"><a xlink:href="../../d1/dde/trilinos__extension_2custom__strategies_2relaxed__dof__updater_8cpp.html" target="_top" xlink:title=" ">
<polygon fill="none" stroke="black" points="1867,-306 1867,-358 2099,-358 2099,-306 1867,-306"/>
<text text-anchor="start" x="1875" y="-346" font-family="Helvetica,sans-Serif" font-size="10.00">/home/runner/work/Documentation</text>
<text text-anchor="start" x="1875" y="-335" font-family="Helvetica,sans-Serif" font-size="10.00">/Documentation/master/applications</text>
<text text-anchor="start" x="1875" y="-324" font-family="Helvetica,sans-Serif" font-size="10.00">/RANSApplication/trilinos_extension</text>
<text text-anchor="middle" x="1983" y="-313" font-family="Helvetica,sans-Serif" font-size="10.00">/custom_strategies/relaxed_dof_updater.cpp</text>
</a>
</g>
</g>
<!-- Node2&#45;&gt;Node13 -->
<g id="edge12" class="edge">
<title>Node2&#45;&gt;Node13</title>
<path fill="none" stroke="midnightblue" d="M1720,-398C1769.29,-385.82 1830.73,-370.63 1881.84,-358"/>
<polygon fill="midnightblue" stroke="midnightblue" points="1718.86,-394.68 1710,-400.48 1720.54,-401.47 1718.86,-394.68"/>
</g>
<!-- Node14 -->
<g id="node14" class="node">
<title>Node14</title>
<g id="a_node14"><a xlink:href="../../d3/d37/trilinos__linear__solver__factory_8h.html" target="_top" xlink:title=" ">
<polygon fill="none" stroke="black" points="2117,-306 2117,-358 2313,-358 2313,-306 2117,-306"/>
<text text-anchor="start" x="2125" y="-346" font-family="Helvetica,sans-Serif" font-size="10.00">/home/runner/work/Documentation</text>
<text text-anchor="start" x="2125" y="-335" font-family="Helvetica,sans-Serif" font-size="10.00">/Documentation/master/applications</text>
<text text-anchor="start" x="2125" y="-324" font-family="Helvetica,sans-Serif" font-size="10.00">/TrilinosApplication/custom_factories</text>
<text text-anchor="middle" x="2215" y="-313" font-family="Helvetica,sans-Serif" font-size="10.00">/trilinos_linear_solver_factory.h</text>
</a>
</g>
</g>
<!-- Node2&#45;&gt;Node14 -->
<g id="edge13" class="edge">
<title>Node2&#45;&gt;Node14</title>
<path fill="none" stroke="midnightblue" d="M1738.25,-412.5C1835.46,-404.5 1982.3,-389.41 2108,-364 2116.44,-362.29 2125.17,-360.25 2133.85,-358.02"/>
<polygon fill="midnightblue" stroke="midnightblue" points="1737.81,-409.02 1728.12,-413.32 1738.38,-416 1737.81,-409.02"/>
</g>
<!-- Node17 -->
<g id="node17" class="node">
<title>Node17</title>
<g id="a_node17"><a xlink:href="../../da/deb/_trilinos_application_2custom__python_2add__custom__utilities__to__python_8cpp.html" target="_top" xlink:title=" ">
<polygon fill="none" stroke="black" points="2345.5,-206 2345.5,-258 2540.5,-258 2540.5,-206 2345.5,-206"/>
<text text-anchor="start" x="2353.5" y="-246" font-family="Helvetica,sans-Serif" font-size="10.00">/home/runner/work/Documentation</text>
<text text-anchor="start" x="2353.5" y="-235" font-family="Helvetica,sans-Serif" font-size="10.00">/Documentation/master/applications</text>
<text text-anchor="start" x="2353.5" y="-224" font-family="Helvetica,sans-Serif" font-size="10.00">/TrilinosApplication/custom_python</text>
<text text-anchor="middle" x="2443" y="-213" font-family="Helvetica,sans-Serif" font-size="10.00">/add_custom_utilities_to_python.cpp</text>
</a>
</g>
</g>
<!-- Node2&#45;&gt;Node17 -->
<g id="edge16" class="edge">
<title>Node2&#45;&gt;Node17</title>
<path fill="none" stroke="midnightblue" d="M1738.16,-416.69C1919.92,-410.29 2273.74,-394.12 2322,-364 2350.06,-346.49 2338.34,-325.01 2360,-300 2373.46,-284.46 2390.85,-269.8 2406.23,-258.18"/>
<polygon fill="midnightblue" stroke="midnightblue" points="1737.91,-413.2 1728.04,-417.05 1738.15,-420.19 1737.91,-413.2"/>
</g>
<!-- Node18 -->
<g id="node18" class="node">
<title>Node18</title>
<g id="a_node18"><a xlink:href="../../d1/db5/add__trilinos__convergence__accelerators__to__python_8cpp.html" target="_top" xlink:title=" ">
<polygon fill="none" stroke="black" points="2558.5,-200.5 2558.5,-263.5 2767.5,-263.5 2767.5,-200.5 2558.5,-200.5"/>
<text text-anchor="start" x="2566.5" y="-251.5" font-family="Helvetica,sans-Serif" font-size="10.00">/home/runner/work/Documentation</text>
<text text-anchor="start" x="2566.5" y="-240.5" font-family="Helvetica,sans-Serif" font-size="10.00">/Documentation/master/applications</text>
<text text-anchor="start" x="2566.5" y="-229.5" font-family="Helvetica,sans-Serif" font-size="10.00">/TrilinosApplication/custom_python</text>
<text text-anchor="start" x="2566.5" y="-218.5" font-family="Helvetica,sans-Serif" font-size="10.00">/add_trilinos_convergence_accelerators</text>
<text text-anchor="middle" x="2663" y="-207.5" font-family="Helvetica,sans-Serif" font-size="10.00">_to_python.cpp</text>
</a>
</g>
</g>
<!-- Node2&#45;&gt;Node18 -->
<g id="edge17" class="edge">
<title>Node2&#45;&gt;Node18</title>
<path fill="none" stroke="midnightblue" d="M1738.4,-419.22C1970.24,-416.75 2502.33,-406.45 2572,-364 2600.25,-346.79 2591.25,-327.26 2610,-300 2618.41,-287.78 2628.33,-274.88 2637.31,-263.7"/>
<polygon fill="midnightblue" stroke="midnightblue" points="1738.23,-415.73 1728.26,-419.33 1738.3,-422.72 1738.23,-415.73"/>
</g>
<!-- Node19 -->
<g id="node19" class="node">
<title>Node19</title>
<g id="a_node19"><a xlink:href="../../dc/d8f/trilinos__pointer__wrapper_8h.html" target="_top" xlink:title=" ">
<polygon fill="none" stroke="black" points="2369,-306 2369,-358 2563,-358 2563,-306 2369,-306"/>
<text text-anchor="start" x="2377" y="-346" font-family="Helvetica,sans-Serif" font-size="10.00">/home/runner/work/Documentation</text>
<text text-anchor="start" x="2377" y="-335" font-family="Helvetica,sans-Serif" font-size="10.00">/Documentation/master/applications</text>
<text text-anchor="start" x="2377" y="-324" font-family="Helvetica,sans-Serif" font-size="10.00">/TrilinosApplication/custom_python</text>
<text text-anchor="middle" x="2466" y="-313" font-family="Helvetica,sans-Serif" font-size="10.00">/trilinos_pointer_wrapper.h</text>
</a>
</g>
</g>
<!-- Node2&#45;&gt;Node19 -->
<g id="edge18" class="edge">
<title>Node2&#45;&gt;Node19</title>
<path fill="none" stroke="midnightblue" d="M1738.1,-418.23C1880.13,-414.4 2138.13,-402.29 2355,-364 2364.16,-362.38 2373.66,-360.33 2383.06,-358.05"/>
<polygon fill="midnightblue" stroke="midnightblue" points="1737.98,-414.73 1728.08,-418.49 1738.16,-421.73 1737.98,-414.73"/>
</g>
<!-- Node20 -->
<g id="node20" class="node">
<title>Node20</title>
<g id="a_node20"><a xlink:href="../../dd/d3a/trilinos__block__builder__and__solver_8h.html" target="_top" xlink:title=" ">
<polygon fill="none" stroke="black" points="743,-300.5 743,-363.5 945,-363.5 945,-300.5 743,-300.5"/>
<text text-anchor="start" x="751" y="-351.5" font-family="Helvetica,sans-Serif" font-size="10.00">/home/runner/work/Documentation</text>
<text text-anchor="start" x="751" y="-340.5" font-family="Helvetica,sans-Serif" font-size="10.00">/Documentation/master/applications</text>
<text text-anchor="start" x="751" y="-329.5" font-family="Helvetica,sans-Serif" font-size="10.00">/TrilinosApplication/custom_strategies</text>
<text text-anchor="start" x="751" y="-318.5" font-family="Helvetica,sans-Serif" font-size="10.00">/builder_and_solvers/trilinos_block</text>
<text text-anchor="middle" x="844" y="-307.5" font-family="Helvetica,sans-Serif" font-size="10.00">_builder_and_solver.h</text>
</a>
</g>
</g>
<!-- Node2&#45;&gt;Node20 -->
<g id="edge21" class="edge">
<title>Node2&#45;&gt;Node20</title>
<path fill="none" stroke="midnightblue" d="M1523.54,-417.47C1389.32,-412.86 1153.08,-399.94 954,-364 951.07,-363.47 948.11,-362.9 945.12,-362.29"/>
<polygon fill="midnightblue" stroke="midnightblue" points="1523.71,-420.98 1533.82,-417.82 1523.95,-413.98 1523.71,-420.98"/>
</g>
<!-- Node28 -->
<g id="node28" class="node">
<title>Node28</title>
<g id="a_node28"><a xlink:href="../../d7/d4f/amgcl__mpi__solver__impl_8cpp.html" target="_top" xlink:title=" ">
<polygon fill="none" stroke="black" points="2619,-306 2619,-358 2817,-358 2817,-306 2619,-306"/>
<text text-anchor="start" x="2627" y="-346" font-family="Helvetica,sans-Serif" font-size="10.00">/home/runner/work/Documentation</text>
<text text-anchor="start" x="2627" y="-335" font-family="Helvetica,sans-Serif" font-size="10.00">/Documentation/master/applications</text>
<text text-anchor="start" x="2627" y="-324" font-family="Helvetica,sans-Serif" font-size="10.00">/TrilinosApplication/external_includes</text>
<text text-anchor="middle" x="2718" y="-313" font-family="Helvetica,sans-Serif" font-size="10.00">/amgcl_mpi_solver_impl.cpp</text>
</a>
</g>
</g>
<!-- Node2&#45;&gt;Node28 -->
<g id="edge32" class="edge">
<title>Node2&#45;&gt;Node28</title>
<path fill="none" stroke="midnightblue" d="M1738.16,-416.68C1955.39,-409.49 2440.88,-390.92 2605,-364 2614.64,-362.42 2624.63,-360.34 2634.51,-358.01"/>
<polygon fill="midnightblue" stroke="midnightblue" points="1737.9,-413.19 1728.02,-417.02 1738.13,-420.19 1737.9,-413.19"/>
</g>
<!-- Node9 -->
<g id="node9" class="node">
<title>Node9</title>
<g id="a_node9"><a xlink:href="../../d8/d67/interface__vector__container__mpi_8cpp.html" target="_top" xlink:title=" ">
<polygon fill="none" stroke="black" points="1224,-200.5 1224,-263.5 1418,-263.5 1418,-200.5 1224,-200.5"/>
<text text-anchor="start" x="1232" y="-251.5" font-family="Helvetica,sans-Serif" font-size="10.00">/home/runner/work/Documentation</text>
<text text-anchor="start" x="1232" y="-240.5" font-family="Helvetica,sans-Serif" font-size="10.00">/Documentation/master/applications</text>
<text text-anchor="start" x="1232" y="-229.5" font-family="Helvetica,sans-Serif" font-size="10.00">/MappingApplication/mpi_extension</text>
<text text-anchor="start" x="1232" y="-218.5" font-family="Helvetica,sans-Serif" font-size="10.00">/custom_utilities/interface_vector</text>
<text text-anchor="middle" x="1321" y="-207.5" font-family="Helvetica,sans-Serif" font-size="10.00">_container_mpi.cpp</text>
</a>
</g>
</g>
<!-- Node8&#45;&gt;Node9 -->
<g id="edge8" class="edge">
<title>Node8&#45;&gt;Node9</title>
<path fill="none" stroke="midnightblue" d="M1458.52,-301.41C1434.51,-289.47 1406.82,-275.69 1382.6,-263.64"/>
<polygon fill="midnightblue" stroke="midnightblue" points="1457.01,-304.57 1467.52,-305.89 1460.13,-298.3 1457.01,-304.57"/>
</g>
<!-- Node10 -->
<g id="node10" class="node">
<title>Node10</title>
<g id="a_node10"><a xlink:href="../../d7/d57/mapper__factory__mpi_8cpp.html" target="_top" xlink:title=" ">
<polygon fill="none" stroke="black" points="1436,-206 1436,-258 1658,-258 1658,-206 1436,-206"/>
<text text-anchor="start" x="1444" y="-246" font-family="Helvetica,sans-Serif" font-size="10.00">/home/runner/work/Documentation</text>
<text text-anchor="start" x="1444" y="-235" font-family="Helvetica,sans-Serif" font-size="10.00">/Documentation/master/applications</text>
<text text-anchor="start" x="1444" y="-224" font-family="Helvetica,sans-Serif" font-size="10.00">/MappingApplication/mpi_extension</text>
<text text-anchor="middle" x="1547" y="-213" font-family="Helvetica,sans-Serif" font-size="10.00">/custom_utilities/mapper_factory_mpi.cpp</text>
</a>
</g>
</g>
<!-- Node8&#45;&gt;Node10 -->
<g id="edge9" class="edge">
<title>Node8&#45;&gt;Node10</title>
<path fill="none" stroke="midnightblue" d="M1528.33,-296.08C1532.04,-283.55 1536.14,-269.69 1539.56,-258.15"/>
<polygon fill="midnightblue" stroke="midnightblue" points="1524.95,-295.18 1525.47,-305.76 1531.66,-297.17 1524.95,-295.18"/>
</g>
<!-- Node11 -->
<g id="node11" class="node">
<title>Node11</title>
<g id="a_node11"><a xlink:href="../../d8/d26/mapping__matrix__utilities__mpi_8cpp.html" target="_top" xlink:title=" ">
<polygon fill="none" stroke="black" points="1676,-200.5 1676,-263.5 1870,-263.5 1870,-200.5 1676,-200.5"/>
<text text-anchor="start" x="1684" y="-251.5" font-family="Helvetica,sans-Serif" font-size="10.00">/home/runner/work/Documentation</text>
<text text-anchor="start" x="1684" y="-240.5" font-family="Helvetica,sans-Serif" font-size="10.00">/Documentation/master/applications</text>
<text text-anchor="start" x="1684" y="-229.5" font-family="Helvetica,sans-Serif" font-size="10.00">/MappingApplication/mpi_extension</text>
<text text-anchor="start" x="1684" y="-218.5" font-family="Helvetica,sans-Serif" font-size="10.00">/custom_utilities/mapping_matrix</text>
<text text-anchor="middle" x="1773" y="-207.5" font-family="Helvetica,sans-Serif" font-size="10.00">_utilities_mpi.cpp</text>
</a>
</g>
</g>
<!-- Node8&#45;&gt;Node11 -->
<g id="edge10" class="edge">
<title>Node8&#45;&gt;Node11</title>
<path fill="none" stroke="midnightblue" d="M1592.95,-302.2C1624.49,-290.08 1661.22,-275.96 1693.26,-263.64"/>
<polygon fill="midnightblue" stroke="midnightblue" points="1591.42,-299.04 1583.34,-305.89 1593.93,-305.57 1591.42,-299.04"/>
</g>
<!-- Node15 -->
<g id="node15" class="node">
<title>Node15</title>
<g id="a_node15"><a xlink:href="../../df/dd9/trilinos__linear__solver__factory_8cpp.html" target="_top" xlink:title=" ">
<polygon fill="none" stroke="black" points="1888,-206 1888,-258 2084,-258 2084,-206 1888,-206"/>
<text text-anchor="start" x="1896" y="-246" font-family="Helvetica,sans-Serif" font-size="10.00">/home/runner/work/Documentation</text>
<text text-anchor="start" x="1896" y="-235" font-family="Helvetica,sans-Serif" font-size="10.00">/Documentation/master/applications</text>
<text text-anchor="start" x="1896" y="-224" font-family="Helvetica,sans-Serif" font-size="10.00">/TrilinosApplication/custom_factories</text>
<text text-anchor="middle" x="1986" y="-213" font-family="Helvetica,sans-Serif" font-size="10.00">/trilinos_linear_solver_factory.cpp</text>
</a>
</g>
</g>
<!-- Node14&#45;&gt;Node15 -->
<g id="edge14" class="edge">
<title>Node14&#45;&gt;Node15</title>
<path fill="none" stroke="midnightblue" d="M2146.87,-301.84C2114.31,-287.91 2075.74,-271.4 2044.52,-258.04"/>
<polygon fill="midnightblue" stroke="midnightblue" points="2145.75,-305.17 2156.32,-305.89 2148.51,-298.74 2145.75,-305.17"/>
</g>
<!-- Node16 -->
<g id="node16" class="node">
<title>Node16</title>
<g id="a_node16"><a xlink:href="../../d3/de3/trilinos__application_8cpp.html" target="_top" xlink:title=" ">
<polygon fill="none" stroke="black" points="2102.5,-211.5 2102.5,-252.5 2327.5,-252.5 2327.5,-211.5 2102.5,-211.5"/>
<text text-anchor="start" x="2110.5" y="-240.5" font-family="Helvetica,sans-Serif" font-size="10.00">/home/runner/work/Documentation</text>
<text text-anchor="start" x="2110.5" y="-229.5" font-family="Helvetica,sans-Serif" font-size="10.00">/Documentation/master/applications</text>
<text text-anchor="middle" x="2215" y="-218.5" font-family="Helvetica,sans-Serif" font-size="10.00">/TrilinosApplication/trilinos_application.cpp</text>
</a>
</g>
</g>
<!-- Node14&#45;&gt;Node16 -->
<g id="edge15" class="edge">
<title>Node14&#45;&gt;Node16</title>
<path fill="none" stroke="midnightblue" d="M2215,-295.59C2215,-281.1 2215,-264.88 2215,-252.59"/>
<polygon fill="midnightblue" stroke="midnightblue" points="2211.5,-295.76 2215,-305.76 2218.5,-295.76 2211.5,-295.76"/>
</g>
<!-- Node19&#45;&gt;Node17 -->
<g id="edge19" class="edge">
<title>Node19&#45;&gt;Node17</title>
<path fill="none" stroke="midnightblue" d="M2457.72,-295.7C2454.8,-283.28 2451.58,-269.57 2448.9,-258.15"/>
<polygon fill="midnightblue" stroke="midnightblue" points="2454.38,-296.83 2460.08,-305.76 2461.2,-295.23 2454.38,-296.83"/>
</g>
<!-- Node19&#45;&gt;Node18 -->
<g id="edge20" class="edge">
<title>Node19&#45;&gt;Node18</title>
<path fill="none" stroke="midnightblue" d="M2525.48,-301.41C2549.49,-289.47 2577.18,-275.69 2601.4,-263.64"/>
<polygon fill="midnightblue" stroke="midnightblue" points="2523.87,-298.3 2516.48,-305.89 2526.99,-304.57 2523.87,-298.3"/>
</g>
<!-- Node21 -->
<g id="node21" class="node">
<title>Node21</title>
<g id="a_node21"><a xlink:href="../../d8/d27/trilinos__fractional__step__settings_8h.html" target="_top" xlink:title=" ">
<polygon fill="none" stroke="black" points="807,-100.5 807,-163.5 1001,-163.5 1001,-100.5 807,-100.5"/>
<text text-anchor="start" x="815" y="-151.5" font-family="Helvetica,sans-Serif" font-size="10.00">/home/runner/work/Documentation</text>
<text text-anchor="start" x="815" y="-140.5" font-family="Helvetica,sans-Serif" font-size="10.00">/Documentation/master/applications</text>
<text text-anchor="start" x="815" y="-129.5" font-family="Helvetica,sans-Serif" font-size="10.00">/FluidDynamicsApplication/trilinos</text>
<text text-anchor="start" x="815" y="-118.5" font-family="Helvetica,sans-Serif" font-size="10.00">_extension/custom_utilities/trilinos</text>
<text text-anchor="middle" x="904" y="-107.5" font-family="Helvetica,sans-Serif" font-size="10.00">_fractional_step_settings.h</text>
</a>
</g>
</g>
<!-- Node20&#45;&gt;Node21 -->
<g id="edge22" class="edge">
<title>Node20&#45;&gt;Node21</title>
<path fill="none" stroke="midnightblue" d="M930.66,-294.6C941.99,-286.2 952.05,-276.09 959,-264 973.17,-239.34 968.58,-226.78 959,-200 954.23,-186.68 945.55,-174.11 936.47,-163.53"/>
<polygon fill="midnightblue" stroke="midnightblue" points="928.47,-291.86 922.22,-300.42 932.44,-297.63 928.47,-291.86"/>
</g>
<!-- Node22 -->
<g id="node22" class="node">
<title>Node22</title>
<g id="a_node22"><a xlink:href="../../d8/df1/trilinos__laplacian__meshmoving__strategy_8h.html" target="_top" xlink:title=" ">
<polygon fill="none" stroke="black" points="1006,-200.5 1006,-263.5 1206,-263.5 1206,-200.5 1006,-200.5"/>
<text text-anchor="start" x="1014" y="-251.5" font-family="Helvetica,sans-Serif" font-size="10.00">/home/runner/work/Documentation</text>
<text text-anchor="start" x="1014" y="-240.5" font-family="Helvetica,sans-Serif" font-size="10.00">/Documentation/master/applications</text>
<text text-anchor="start" x="1014" y="-229.5" font-family="Helvetica,sans-Serif" font-size="10.00">/MeshMovingApplication/trilinos</text>
<text text-anchor="start" x="1014" y="-218.5" font-family="Helvetica,sans-Serif" font-size="10.00">_extension/custom_strategies/trilinos</text>
<text text-anchor="middle" x="1106" y="-207.5" font-family="Helvetica,sans-Serif" font-size="10.00">_laplacian_meshmoving_strategy.h</text>
</a>
</g>
</g>
<!-- Node20&#45;&gt;Node22 -->
<g id="edge24" class="edge">
<title>Node20&#45;&gt;Node22</title>
<path fill="none" stroke="midnightblue" d="M935.51,-296.77C964.42,-285.96 996.17,-274.08 1024.35,-263.54"/>
<polygon fill="midnightblue" stroke="midnightblue" points="933.96,-293.61 925.82,-300.4 936.41,-300.17 933.96,-293.61"/>
</g>
<!-- Node23 -->
<g id="node23" class="node">
<title>Node23</title>
<g id="a_node23"><a xlink:href="../../d6/d03/trilinos__structural__meshmoving__strategy_8h.html" target="_top" xlink:title=" ">
<polygon fill="none" stroke="black" points="524,-200.5 524,-263.5 724,-263.5 724,-200.5 524,-200.5"/>
<text text-anchor="start" x="532" y="-251.5" font-family="Helvetica,sans-Serif" font-size="10.00">/home/runner/work/Documentation</text>
<text text-anchor="start" x="532" y="-240.5" font-family="Helvetica,sans-Serif" font-size="10.00">/Documentation/master/applications</text>
<text text-anchor="start" x="532" y="-229.5" font-family="Helvetica,sans-Serif" font-size="10.00">/MeshMovingApplication/trilinos</text>
<text text-anchor="start" x="532" y="-218.5" font-family="Helvetica,sans-Serif" font-size="10.00">_extension/custom_strategies/trilinos</text>
<text text-anchor="middle" x="624" y="-207.5" font-family="Helvetica,sans-Serif" font-size="10.00">_structural_meshmoving_strategy.h</text>
</a>
</g>
</g>
<!-- Node20&#45;&gt;Node23 -->
<g id="edge25" class="edge">
<title>Node20&#45;&gt;Node23</title>
<path fill="none" stroke="midnightblue" d="M765.89,-296.21C741.95,-285.54 715.81,-273.9 692.56,-263.54"/>
<polygon fill="midnightblue" stroke="midnightblue" points="764.74,-299.52 775.3,-300.4 767.59,-293.13 764.74,-299.52"/>
</g>
<!-- Node24 -->
<g id="node24" class="node">
<title>Node24</title>
<g id="a_node24"><a xlink:href="../../d9/dd8/trilinos__levelset__convection__process_8h.html" target="_top" xlink:title=" ">
<polygon fill="none" stroke="black" points="742,-206 742,-258 950,-258 950,-206 742,-206"/>
<text text-anchor="start" x="750" y="-246" font-family="Helvetica,sans-Serif" font-size="10.00">/home/runner/work/Documentation</text>
<text text-anchor="start" x="750" y="-235" font-family="Helvetica,sans-Serif" font-size="10.00">/Documentation/master/applications</text>
<text text-anchor="start" x="750" y="-224" font-family="Helvetica,sans-Serif" font-size="10.00">/TrilinosApplication/custom_processes</text>
<text text-anchor="middle" x="846" y="-213" font-family="Helvetica,sans-Serif" font-size="10.00">/trilinos_levelset_convection_process.h</text>
</a>
</g>
</g>
<!-- Node20&#45;&gt;Node24 -->
<g id="edge26" class="edge">
<title>Node20&#45;&gt;Node24</title>
<path fill="none" stroke="midnightblue" d="M844.84,-290.08C845.06,-279.21 845.29,-267.79 845.49,-258.05"/>
<polygon fill="midnightblue" stroke="midnightblue" points="841.33,-290.19 844.63,-300.26 848.33,-290.33 841.33,-290.19"/>
</g>
<!-- Node25 -->
<g id="node25" class="node">
<title>Node25</title>
<g id="a_node25"><a xlink:href="../../d3/d21/trilinos__block__builder__and__solver__periodic_8h.html" target="_top" xlink:title=" ">
<polygon fill="none" stroke="black" points="304,-200.5 304,-263.5 506,-263.5 506,-200.5 304,-200.5"/>
<text text-anchor="start" x="312" y="-251.5" font-family="Helvetica,sans-Serif" font-size="10.00">/home/runner/work/Documentation</text>
<text text-anchor="start" x="312" y="-240.5" font-family="Helvetica,sans-Serif" font-size="10.00">/Documentation/master/applications</text>
<text text-anchor="start" x="312" y="-229.5" font-family="Helvetica,sans-Serif" font-size="10.00">/TrilinosApplication/custom_strategies</text>
<text text-anchor="start" x="312" y="-218.5" font-family="Helvetica,sans-Serif" font-size="10.00">/builder_and_solvers/trilinos_block</text>
<text text-anchor="middle" x="405" y="-207.5" font-family="Helvetica,sans-Serif" font-size="10.00">_builder_and_solver_periodic.h</text>
</a>
</g>
</g>
<!-- Node20&#45;&gt;Node25 -->
<g id="edge27" class="edge">
<title>Node20&#45;&gt;Node25</title>
<path fill="none" stroke="midnightblue" d="M732.67,-310.45C668.73,-298.12 587.06,-281.47 515,-264 512.11,-263.3 509.18,-262.57 506.22,-261.83"/>
<polygon fill="midnightblue" stroke="midnightblue" points="732.3,-313.94 742.78,-312.39 733.62,-307.07 732.3,-313.94"/>
</g>
<!-- Node21&#45;&gt;Node7 -->
<g id="edge23" class="edge">
<title>Node21&#45;&gt;Node7</title>
<path fill="none" stroke="midnightblue" d="M805.28,-97.05C773.61,-86.16 738.74,-74.17 707.82,-63.54"/>
<polygon fill="midnightblue" stroke="midnightblue" points="804.4,-100.45 815,-100.4 806.68,-93.83 804.4,-100.45"/>
</g>
<!-- Node26 -->
<g id="node26" class="node">
<title>Node26</title>
<g id="a_node26"><a xlink:href="../../d3/dc0/trilinos__stokes__initialization__process_8h.html" target="_top" xlink:title=" ">
<polygon fill="none" stroke="black" points="304,-100.5 304,-163.5 504,-163.5 504,-100.5 304,-100.5"/>
<text text-anchor="start" x="312" y="-151.5" font-family="Helvetica,sans-Serif" font-size="10.00">/home/runner/work/Documentation</text>
<text text-anchor="start" x="312" y="-140.5" font-family="Helvetica,sans-Serif" font-size="10.00">/Documentation/master/applications</text>
<text text-anchor="start" x="312" y="-129.5" font-family="Helvetica,sans-Serif" font-size="10.00">/FluidDynamicsApplication/trilinos</text>
<text text-anchor="start" x="312" y="-118.5" font-family="Helvetica,sans-Serif" font-size="10.00">_extension/custom_processes/trilinos</text>
<text text-anchor="middle" x="404" y="-107.5" font-family="Helvetica,sans-Serif" font-size="10.00">_stokes_initialization_process.h</text>
</a>
</g>
</g>
<!-- Node25&#45;&gt;Node26 -->
<g id="edge28" class="edge">
<title>Node25&#45;&gt;Node26</title>
<path fill="none" stroke="midnightblue" d="M404.58,-190.1C404.49,-181.24 404.4,-172.01 404.31,-163.63"/>
<polygon fill="midnightblue" stroke="midnightblue" points="401.08,-190.3 404.69,-200.26 408.08,-190.23 401.08,-190.3"/>
</g>
<!-- Node27 -->
<g id="node27" class="node">
<title>Node27</title>
<g id="a_node27"><a xlink:href="../../d8/d92/trilinos__fractional__step__settings__periodic_8h.html" target="_top" xlink:title=" ">
<polygon fill="none" stroke="black" points="522,-100.5 522,-163.5 716,-163.5 716,-100.5 522,-100.5"/>
<text text-anchor="start" x="530" y="-151.5" font-family="Helvetica,sans-Serif" font-size="10.00">/home/runner/work/Documentation</text>
<text text-anchor="start" x="530" y="-140.5" font-family="Helvetica,sans-Serif" font-size="10.00">/Documentation/master/applications</text>
<text text-anchor="start" x="530" y="-129.5" font-family="Helvetica,sans-Serif" font-size="10.00">/FluidDynamicsApplication/trilinos</text>
<text text-anchor="start" x="530" y="-118.5" font-family="Helvetica,sans-Serif" font-size="10.00">_extension/custom_utilities/trilinos</text>
<text text-anchor="middle" x="619" y="-107.5" font-family="Helvetica,sans-Serif" font-size="10.00">_fractional_step_settings_periodic.h</text>
</a>
</g>
</g>
<!-- Node25&#45;&gt;Node27 -->
<g id="edge30" class="edge">
<title>Node25&#45;&gt;Node27</title>
<path fill="none" stroke="midnightblue" d="M480.98,-196.21C504.26,-185.54 529.69,-173.9 552.31,-163.54"/>
<polygon fill="midnightblue" stroke="midnightblue" points="479.47,-193.05 471.83,-200.4 482.38,-199.41 479.47,-193.05"/>
</g>
<!-- Node26&#45;&gt;Node4 -->
<g id="edge29" class="edge">
<title>Node26&#45;&gt;Node4</title>
<path fill="none" stroke="midnightblue" d="M369.6,-92.69C360.94,-83.05 351.77,-72.83 343.5,-63.63"/>
<polygon fill="midnightblue" stroke="midnightblue" points="367.11,-95.16 376.4,-100.26 372.32,-90.48 367.11,-95.16"/>
</g>
<!-- Node27&#45;&gt;Node7 -->
<g id="edge31" class="edge">
<title>Node27&#45;&gt;Node7</title>
<path fill="none" stroke="midnightblue" d="M619,-90.1C619,-81.24 619,-72.01 619,-63.63"/>
<polygon fill="midnightblue" stroke="midnightblue" points="615.5,-90.26 619,-100.26 622.5,-90.26 615.5,-90.26"/>
</g>
</g>
</svg>
