<?xml version="1.0" encoding="UTF-8" standalone="no"?>
<!DOCTYPE svg PUBLIC "-//W3C//DTD SVG 1.1//EN"
 "http://www.w3.org/Graphics/SVG/1.1/DTD/svg11.dtd">
<!-- Generated by graphviz version 7.1.0 (0)
 -->
<!-- Title: compute_body_fitted_drag_process.ComputeBodyFittedDragProcess Pages: 1 -->
<svg width="194pt" height="204pt"
 viewBox="0.00 0.00 194.00 204.00" xmlns="http://www.w3.org/2000/svg" xmlns:xlink="http://www.w3.org/1999/xlink">
<g id="graph0" class="graph" transform="scale(1 1) rotate(0) translate(4 200)">
<title>compute_body_fitted_drag_process.ComputeBodyFittedDragProcess</title>
<!-- Node1 -->
<g id="node1" class="node">
<title>Node1</title>
<g id="a_node1"><a xlink:title="The specific implementation for the output of body fitted drag forces over obstacles in fluid dynamic...">
<polygon fill="#999999" stroke="#666666" points="0,-0.5 0,-101.5 186,-101.5 186,-0.5 0,-0.5"/>
<text text-anchor="start" x="8" y="-89.5" font-family="Helvetica,sans-Serif" font-size="10.00">compute_body_fitted</text>
<text text-anchor="start" x="8" y="-78.5" font-family="Helvetica,sans-Serif" font-size="10.00">_drag_process.ComputeBodyFitted</text>
<text text-anchor="middle" x="93" y="-67.5" font-family="Helvetica,sans-Serif" font-size="10.00">DragProcess</text>
<polyline fill="none" stroke="#666666" points="0,-60.5 186,-60.5"/>
<text text-anchor="middle" x="93" y="-48.5" font-family="Helvetica,sans-Serif" font-size="10.00"> </text>
<polyline fill="none" stroke="#666666" points="0,-41.5 186,-41.5"/>
<text text-anchor="start" x="8" y="-29.5" font-family="Helvetica,sans-Serif" font-size="10.00"># _GetFileHeader()</text>
<text text-anchor="start" x="8" y="-18.5" font-family="Helvetica,sans-Serif" font-size="10.00"># _PrintToScreen()</text>
<text text-anchor="start" x="8" y="-7.5" font-family="Helvetica,sans-Serif" font-size="10.00"># _GetCorrespondingDragForce()</text>
</a>
</g>
</g>
<!-- Node2 -->
<g id="node2" class="node">
<title>Node2</title>
<g id="a_node2"><a xlink:title=" ">
<polygon fill="white" stroke="#666666" points="32,-138.5 32,-195.5 154,-195.5 154,-138.5 32,-138.5"/>
<text text-anchor="middle" x="93" y="-183.5" font-family="Helvetica,sans-Serif" font-size="10.00">ComputeDragProcess</text>
<polyline fill="none" stroke="#666666" points="32,-176.5 154,-176.5"/>
<text text-anchor="middle" x="93" y="-164.5" font-family="Helvetica,sans-Serif" font-size="10.00"> </text>
<polyline fill="none" stroke="#666666" points="32,-157.5 154,-157.5"/>
<text text-anchor="middle" x="93" y="-145.5" font-family="Helvetica,sans-Serif" font-size="10.00"> </text>
</a>
</g>
</g>
<!-- Node2&#45;&gt;Node1 -->
<g id="edge1" class="edge">
<title>Node2&#45;&gt;Node1</title>
<path fill="none" stroke="#63b8ff" d="M93,-127.37C93,-119.02 93,-110.08 93,-101.38"/>
<polygon fill="none" stroke="#63b8ff" points="89.5,-127.18 93,-137.18 96.5,-127.18 89.5,-127.18"/>
</g>
</g>
</svg>
