<?xml version="1.0" encoding="UTF-8" standalone="no"?>
<!DOCTYPE svg PUBLIC "-//W3C//DTD SVG 1.1//EN"
 "http://www.w3.org/Graphics/SVG/1.1/DTD/svg11.dtd">
<!-- Generated by graphviz version 7.1.0 (0)
 -->
<!-- Title: /software/kratos/doxygen/applications/GeoMechanicsApplication/custom_constitutive/linear_elastic_plane_strain_K0_law.h Pages: 1 -->
<!--zoomable 665 -->
<svg id="main" version="1.1" xmlns="http://www.w3.org/2000/svg" xmlns:xlink="http://www.w3.org/1999/xlink" xml:space="preserve" onload="init(evt)">
<style type="text/css"><![CDATA[
.edge:hover path { stroke: red; }
.edge:hover polygon { stroke: red; fill: red; }
]]></style>
<script type="text/javascript"><![CDATA[
var edges = document.getElementsByTagName('g');
if (edges && edges.length) {
  for (var i=0;i<edges.length;i++) {
    if (edges[i].id.substr(0,4)=='edge') {
      edges[i].setAttribute('class','edge');
    }
  }
}
]]></script>
        <defs>
                <circle id="rim" cx="0" cy="0" r="7"/>
                <circle id="rim2" cx="0" cy="0" r="3.5"/>
                <g id="zoomPlus">
                        <use xlink:href="#rim" fill="#404040">
                                <set attributeName="fill" to="#808080" begin="zoomplus.mouseover" end="zoomplus.mouseout"/>
                        </use>
                        <path d="M-4,0h8M0,-4v8" fill="none" stroke="white" stroke-width="1.5" pointer-events="none"/>
                </g>
                <g id="zoomMin">
                        <use xlink:href="#rim" fill="#404040">
                                <set attributeName="fill" to="#808080" begin="zoomminus.mouseover" end="zoomminus.mouseout"/>
                        </use>
                        <path d="M-4,0h8" fill="none" stroke="white" stroke-width="1.5" pointer-events="none"/>
                </g>
                <g id="dirArrow">
                        <path fill="none" stroke="white" stroke-width="1.5" d="M0,-3.0v7 M-2.5,-0.5L0,-3.0L2.5,-0.5"/>
                </g>
               <g id="resetDef">
                       <use xlink:href="#rim2" fill="#404040">
                               <set attributeName="fill" to="#808080" begin="reset.mouseover" end="reset.mouseout"/>
                       </use>
               </g>
        </defs>

<script type="text/javascript">
var viewWidth = 857;
var viewHeight = 665;
var sectionId = 'dynsection-1';
</script>
<script xlink:href="../../svgpan.js"/>
<svg id="graph" class="graph">
<g id="viewport">
<title>/software/kratos/doxygen/applications/GeoMechanicsApplication/custom_constitutive/linear_elastic_plane_strain_K0_law.h</title>
<!-- Node1 -->
<g id="node1" class="node">
<title>Node1</title>
<g id="a_node1"><a xlink:title=" ">
<polygon fill="#999999" stroke="#666666" points="453,-657 245,-657 245,-605 453,-605 453,-657"/>
<text text-anchor="start" x="253" y="-645" font-family="Helvetica,sans-Serif" font-size="10.00">/software/kratos/doxygen</text>
<text text-anchor="start" x="253" y="-634" font-family="Helvetica,sans-Serif" font-size="10.00">/applications/GeoMechanicsApplication</text>
<text text-anchor="start" x="253" y="-623" font-family="Helvetica,sans-Serif" font-size="10.00">/custom_constitutive/linear_elastic</text>
<text text-anchor="middle" x="349" y="-612" font-family="Helvetica,sans-Serif" font-size="10.00">_plane_strain_K0_law.h</text>
</a>
</g>
</g>
<!-- Node2 -->
<g id="node2" class="node">
<title>Node2</title>
<g id="a_node2"><a xlink:href="../../d3/d62/linear__elastic__plane__strain__2_d__law_8h.html" target="_top" xlink:title=" ">
<polygon fill="white" stroke="#666666" points="453,-569 245,-569 245,-517 453,-517 453,-569"/>
<text text-anchor="start" x="253" y="-557" font-family="Helvetica,sans-Serif" font-size="10.00">/software/kratos/doxygen</text>
<text text-anchor="start" x="253" y="-546" font-family="Helvetica,sans-Serif" font-size="10.00">/applications/GeoMechanicsApplication</text>
<text text-anchor="start" x="253" y="-535" font-family="Helvetica,sans-Serif" font-size="10.00">/custom_constitutive/linear_elastic</text>
<text text-anchor="middle" x="349" y="-524" font-family="Helvetica,sans-Serif" font-size="10.00">_plane_strain_2D_law.h</text>
</a>
</g>
</g>
<!-- Node1&#45;&gt;Node2 -->
<g id="edge1" class="edge">
<title>Node1&#45;&gt;Node2</title>
<path fill="none" stroke="#63b8ff" d="M349,-593.26C349,-585.24 349,-576.92 349,-569.45"/>
<polygon fill="#63b8ff" stroke="#63b8ff" points="345.5,-593.15 349,-603.15 352.5,-593.15 345.5,-593.15"/>
</g>
<!-- Node5 -->
<g id="node5" class="node">
<title>Node5</title>
<g id="a_node5"><a xlink:href="../../d5/d83/geo__mechanics__application_8h.html" target="_top" xlink:title=" ">
<polygon fill="white" stroke="#666666" points="434,-299.5 226,-299.5 226,-258.5 434,-258.5 434,-299.5"/>
<text text-anchor="start" x="234" y="-287.5" font-family="Helvetica,sans-Serif" font-size="10.00">/software/kratos/doxygen</text>
<text text-anchor="start" x="234" y="-276.5" font-family="Helvetica,sans-Serif" font-size="10.00">/applications/GeoMechanicsApplication</text>
<text text-anchor="middle" x="330" y="-265.5" font-family="Helvetica,sans-Serif" font-size="10.00">/geo_mechanics_application.h</text>
</a>
</g>
</g>
<!-- Node1&#45;&gt;Node5 -->
<g id="edge19" class="edge">
<title>Node1&#45;&gt;Node5</title>
<path fill="none" stroke="#63b8ff" d="M278.86,-599.92C170.93,-549.47 -15.3,-443.23 66,-341 86.13,-315.69 160.8,-299.97 225.61,-290.84"/>
<polygon fill="#63b8ff" stroke="#63b8ff" points="277.13,-602.98 287.67,-604 280.06,-596.62 277.13,-602.98"/>
</g>
<!-- Node16 -->
<g id="node16" class="node">
<title>Node16</title>
<g id="a_node16"><a xlink:href="../../d2/dfd/linear__elastic__plane__strain___k0__law_8cpp.html" target="_top" xlink:title=" ">
<polygon fill="white" stroke="#666666" points="679,-569 471,-569 471,-517 679,-517 679,-569"/>
<text text-anchor="start" x="479" y="-557" font-family="Helvetica,sans-Serif" font-size="10.00">/software/kratos/doxygen</text>
<text text-anchor="start" x="479" y="-546" font-family="Helvetica,sans-Serif" font-size="10.00">/applications/GeoMechanicsApplication</text>
<text text-anchor="start" x="479" y="-535" font-family="Helvetica,sans-Serif" font-size="10.00">/custom_constitutive/linear_elastic</text>
<text text-anchor="middle" x="575" y="-524" font-family="Helvetica,sans-Serif" font-size="10.00">_plane_strain_K0_law.cpp</text>
</a>
</g>
</g>
<!-- Node1&#45;&gt;Node16 -->
<g id="edge18" class="edge">
<title>Node1&#45;&gt;Node16</title>
<path fill="none" stroke="#63b8ff" d="M426.33,-600.57C452.97,-590.44 482.56,-579.18 508.28,-569.39"/>
<polygon fill="#63b8ff" stroke="#63b8ff" points="425.41,-597.18 417.3,-604.01 427.9,-603.72 425.41,-597.18"/>
</g>
<!-- Node3 -->
<g id="node3" class="node">
<title>Node3</title>
<g id="a_node3"><a xlink:href="../../dd/dee/linear__elastic__2_d__beam__law_8h.html" target="_top" xlink:title=" ">
<polygon fill="white" stroke="#666666" points="321,-481 113,-481 113,-429 321,-429 321,-481"/>
<text text-anchor="start" x="121" y="-469" font-family="Helvetica,sans-Serif" font-size="10.00">/software/kratos/doxygen</text>
<text text-anchor="start" x="121" y="-458" font-family="Helvetica,sans-Serif" font-size="10.00">/applications/GeoMechanicsApplication</text>
<text text-anchor="start" x="121" y="-447" font-family="Helvetica,sans-Serif" font-size="10.00">/custom_constitutive/linear_elastic</text>
<text text-anchor="middle" x="217" y="-436" font-family="Helvetica,sans-Serif" font-size="10.00">_2D_beam_law.h</text>
</a>
</g>
</g>
<!-- Node2&#45;&gt;Node3 -->
<g id="edge2" class="edge">
<title>Node2&#45;&gt;Node3</title>
<path fill="none" stroke="#63b8ff" d="M300.68,-510.52C286,-500.95 270.06,-490.57 256.07,-481.45"/>
<polygon fill="#63b8ff" stroke="#63b8ff" points="298.55,-513.31 308.84,-515.84 302.37,-507.44 298.55,-513.31"/>
</g>
<!-- Node2&#45;&gt;Node5 -->
<g id="edge17" class="edge">
<title>Node2&#45;&gt;Node5</title>
<path fill="none" stroke="#63b8ff" d="M346.37,-505.71C342.3,-449.64 334.63,-343.86 331.44,-299.92"/>
<polygon fill="#63b8ff" stroke="#63b8ff" points="342.85,-505.65 347.07,-515.37 349.84,-505.14 342.85,-505.65"/>
</g>
<!-- Node11 -->
<g id="node11" class="node">
<title>Node11</title>
<g id="a_node11"><a xlink:href="../../da/dcc/linear__elastic__2_d__interface__law_8h.html" target="_top" xlink:title=" ">
<polygon fill="white" stroke="#666666" points="585,-481 377,-481 377,-429 585,-429 585,-481"/>
<text text-anchor="start" x="385" y="-469" font-family="Helvetica,sans-Serif" font-size="10.00">/software/kratos/doxygen</text>
<text text-anchor="start" x="385" y="-458" font-family="Helvetica,sans-Serif" font-size="10.00">/applications/GeoMechanicsApplication</text>
<text text-anchor="start" x="385" y="-447" font-family="Helvetica,sans-Serif" font-size="10.00">/custom_constitutive/linear_elastic</text>
<text text-anchor="middle" x="481" y="-436" font-family="Helvetica,sans-Serif" font-size="10.00">_2D_interface_law.h</text>
</a>
</g>
</g>
<!-- Node2&#45;&gt;Node11 -->
<g id="edge10" class="edge">
<title>Node2&#45;&gt;Node11</title>
<path fill="none" stroke="#63b8ff" d="M397.32,-510.52C412,-500.95 427.94,-490.57 441.93,-481.45"/>
<polygon fill="#63b8ff" stroke="#63b8ff" points="395.63,-507.44 389.16,-515.84 399.45,-513.31 395.63,-507.44"/>
</g>
<!-- Node15 -->
<g id="node15" class="node">
<title>Node15</title>
<g id="a_node15"><a xlink:href="../../d7/da5/_geo_mechanics_application_2custom__constitutive_2linear__elastic__plane__strain__2_d__law_8cpp.html" target="_top" xlink:title=" ">
<polygon fill="white" stroke="#666666" points="811,-481 603,-481 603,-429 811,-429 811,-481"/>
<text text-anchor="start" x="611" y="-469" font-family="Helvetica,sans-Serif" font-size="10.00">/software/kratos/doxygen</text>
<text text-anchor="start" x="611" y="-458" font-family="Helvetica,sans-Serif" font-size="10.00">/applications/GeoMechanicsApplication</text>
<text text-anchor="start" x="611" y="-447" font-family="Helvetica,sans-Serif" font-size="10.00">/custom_constitutive/linear_elastic</text>
<text text-anchor="middle" x="707" y="-436" font-family="Helvetica,sans-Serif" font-size="10.00">_plane_strain_2D_law.cpp</text>
</a>
</g>
</g>
<!-- Node2&#45;&gt;Node15 -->
<g id="edge16" class="edge">
<title>Node2&#45;&gt;Node15</title>
<path fill="none" stroke="#63b8ff" d="M464.21,-514.32C508.72,-503.63 559.29,-491.48 602.71,-481.05"/>
<polygon fill="#63b8ff" stroke="#63b8ff" points="463.41,-510.92 454.5,-516.66 465.04,-517.72 463.41,-510.92"/>
</g>
<!-- Node4 -->
<g id="node4" class="node">
<title>Node4</title>
<g id="a_node4"><a xlink:href="../../d0/de6/linear__elastic__2_d__beam__law_8cpp.html" target="_top" xlink:title=" ">
<polygon fill="white" stroke="#666666" points="283,-393 75,-393 75,-341 283,-341 283,-393"/>
<text text-anchor="start" x="83" y="-381" font-family="Helvetica,sans-Serif" font-size="10.00">/software/kratos/doxygen</text>
<text text-anchor="start" x="83" y="-370" font-family="Helvetica,sans-Serif" font-size="10.00">/applications/GeoMechanicsApplication</text>
<text text-anchor="start" x="83" y="-359" font-family="Helvetica,sans-Serif" font-size="10.00">/custom_constitutive/linear_elastic</text>
<text text-anchor="middle" x="179" y="-348" font-family="Helvetica,sans-Serif" font-size="10.00">_2D_beam_law.cpp</text>
</a>
</g>
</g>
<!-- Node3&#45;&gt;Node4 -->
<g id="edge3" class="edge">
<title>Node3&#45;&gt;Node4</title>
<path fill="none" stroke="#63b8ff" d="M201.26,-418.37C197.56,-410.01 193.7,-401.27 190.25,-393.45"/>
<polygon fill="#63b8ff" stroke="#63b8ff" points="197.95,-419.55 205.19,-427.28 204.35,-416.72 197.95,-419.55"/>
</g>
<!-- Node3&#45;&gt;Node5 -->
<g id="edge4" class="edge">
<title>Node3&#45;&gt;Node5</title>
<path fill="none" stroke="#63b8ff" d="M265.09,-421.67C275.03,-413.26 284.68,-403.56 292,-393 312.05,-364.08 322.23,-323.74 326.8,-299.9"/>
<polygon fill="#63b8ff" stroke="#63b8ff" points="263.12,-418.77 257.52,-427.77 267.51,-424.22 263.12,-418.77"/>
</g>
<!-- Node6 -->
<g id="node6" class="node">
<title>Node6</title>
<g id="a_node6"><a xlink:href="../../da/d42/dgeoflow_8h.html" target="_top" xlink:title=" ">
<polygon fill="white" stroke="#666666" points="321,-217 113,-217 113,-176 321,-176 321,-217"/>
<text text-anchor="start" x="121" y="-205" font-family="Helvetica,sans-Serif" font-size="10.00">/software/kratos/doxygen</text>
<text text-anchor="start" x="121" y="-194" font-family="Helvetica,sans-Serif" font-size="10.00">/applications/GeoMechanicsApplication</text>
<text text-anchor="middle" x="217" y="-183" font-family="Helvetica,sans-Serif" font-size="10.00">/custom_workflows/dgeoflow.h</text>
</a>
</g>
</g>
<!-- Node5&#45;&gt;Node6 -->
<g id="edge5" class="edge">
<title>Node5&#45;&gt;Node6</title>
<path fill="none" stroke="#63b8ff" d="M292.72,-251.44C277.17,-240.36 259.41,-227.71 245,-217.45"/>
<polygon fill="#63b8ff" stroke="#63b8ff" points="290.66,-254.27 300.83,-257.22 294.72,-248.57 290.66,-254.27"/>
</g>
<!-- Node10 -->
<g id="node10" class="node">
<title>Node10</title>
<g id="a_node10"><a xlink:href="../../df/dc4/geo__mechanics__application_8cpp.html" target="_top" xlink:title=" ">
<polygon fill="white" stroke="#666666" points="547,-217 339,-217 339,-176 547,-176 547,-217"/>
<text text-anchor="start" x="347" y="-205" font-family="Helvetica,sans-Serif" font-size="10.00">/software/kratos/doxygen</text>
<text text-anchor="start" x="347" y="-194" font-family="Helvetica,sans-Serif" font-size="10.00">/applications/GeoMechanicsApplication</text>
<text text-anchor="middle" x="443" y="-183" font-family="Helvetica,sans-Serif" font-size="10.00">/geo_mechanics_application.cpp</text>
</a>
</g>
</g>
<!-- Node5&#45;&gt;Node10 -->
<g id="edge9" class="edge">
<title>Node5&#45;&gt;Node10</title>
<path fill="none" stroke="#63b8ff" d="M367.28,-251.44C382.83,-240.36 400.59,-227.71 415,-217.45"/>
<polygon fill="#63b8ff" stroke="#63b8ff" points="365.28,-248.57 359.17,-257.22 369.34,-254.27 365.28,-248.57"/>
</g>
<!-- Node7 -->
<g id="node7" class="node">
<title>Node7</title>
<g id="a_node7"><a xlink:href="../../d7/d88/dgeoflow_8cpp.html" target="_top" xlink:title=" ">
<polygon fill="white" stroke="#666666" points="208,-134.5 0,-134.5 0,-93.5 208,-93.5 208,-134.5"/>
<text text-anchor="start" x="8" y="-122.5" font-family="Helvetica,sans-Serif" font-size="10.00">/software/kratos/doxygen</text>
<text text-anchor="start" x="8" y="-111.5" font-family="Helvetica,sans-Serif" font-size="10.00">/applications/GeoMechanicsApplication</text>
<text text-anchor="middle" x="104" y="-100.5" font-family="Helvetica,sans-Serif" font-size="10.00">/custom_workflows/dgeoflow.cpp</text>
</a>
</g>
</g>
<!-- Node6&#45;&gt;Node7 -->
<g id="edge6" class="edge">
<title>Node6&#45;&gt;Node7</title>
<path fill="none" stroke="#63b8ff" d="M179.72,-168.94C164.17,-157.86 146.41,-145.21 132,-134.95"/>
<polygon fill="#63b8ff" stroke="#63b8ff" points="177.66,-171.77 187.83,-174.72 181.72,-166.07 177.66,-171.77"/>
</g>
<!-- Node8 -->
<g id="node8" class="node">
<title>Node8</title>
<g id="a_node8"><a xlink:href="../../d4/d24/kratos__external__bindings_8h.html" target="_top" xlink:title=" ">
<polygon fill="white" stroke="#666666" points="434,-140 226,-140 226,-88 434,-88 434,-140"/>
<text text-anchor="start" x="234" y="-128" font-family="Helvetica,sans-Serif" font-size="10.00">/software/kratos/doxygen</text>
<text text-anchor="start" x="234" y="-117" font-family="Helvetica,sans-Serif" font-size="10.00">/applications/GeoMechanicsApplication</text>
<text text-anchor="start" x="234" y="-106" font-family="Helvetica,sans-Serif" font-size="10.00">/external_bindings/kratos_external</text>
<text text-anchor="middle" x="330" y="-95" font-family="Helvetica,sans-Serif" font-size="10.00">_bindings.h</text>
</a>
</g>
</g>
<!-- Node6&#45;&gt;Node8 -->
<g id="edge7" class="edge">
<title>Node6&#45;&gt;Node8</title>
<path fill="none" stroke="#63b8ff" d="M254.03,-169.12C266.96,-159.91 281.45,-149.59 294.27,-140.45"/>
<polygon fill="#63b8ff" stroke="#63b8ff" points="252.28,-166.07 246.17,-174.72 256.34,-171.77 252.28,-166.07"/>
</g>
<!-- Node9 -->
<g id="node9" class="node">
<title>Node9</title>
<g id="a_node9"><a xlink:href="../../dd/d6d/_geo_mechanics_application_2external__bindings_2kratos__external__bindings_8cpp.html" target="_top" xlink:title=" ">
<polygon fill="white" stroke="#666666" points="434,-52 226,-52 226,0 434,0 434,-52"/>
<text text-anchor="start" x="234" y="-40" font-family="Helvetica,sans-Serif" font-size="10.00">/software/kratos/doxygen</text>
<text text-anchor="start" x="234" y="-29" font-family="Helvetica,sans-Serif" font-size="10.00">/applications/GeoMechanicsApplication</text>
<text text-anchor="start" x="234" y="-18" font-family="Helvetica,sans-Serif" font-size="10.00">/external_bindings/kratos_external</text>
<text text-anchor="middle" x="330" y="-7" font-family="Helvetica,sans-Serif" font-size="10.00">_bindings.cpp</text>
</a>
</g>
</g>
<!-- Node8&#45;&gt;Node9 -->
<g id="edge8" class="edge">
<title>Node8&#45;&gt;Node9</title>
<path fill="none" stroke="#63b8ff" d="M330,-76.26C330,-68.24 330,-59.92 330,-52.45"/>
<polygon fill="#63b8ff" stroke="#63b8ff" points="326.5,-76.15 330,-86.15 333.5,-76.15 326.5,-76.15"/>
</g>
<!-- Node11&#45;&gt;Node5 -->
<g id="edge15" class="edge">
<title>Node11&#45;&gt;Node5</title>
<path fill="none" stroke="#63b8ff" d="M436.72,-421.61C426.11,-412.89 415.2,-403.07 406,-393 378.9,-363.32 354.28,-323.23 340.79,-299.64"/>
<polygon fill="#63b8ff" stroke="#63b8ff" points="434.35,-424.19 444.34,-427.71 438.72,-418.73 434.35,-424.19"/>
</g>
<!-- Node12 -->
<g id="node12" class="node">
<title>Node12</title>
<g id="a_node12"><a xlink:href="../../d2/db5/linear__elastic__2_d__interface__law_8cpp.html" target="_top" xlink:title=" ">
<polygon fill="white" stroke="#666666" points="849,-393 641,-393 641,-341 849,-341 849,-393"/>
<text text-anchor="start" x="649" y="-381" font-family="Helvetica,sans-Serif" font-size="10.00">/software/kratos/doxygen</text>
<text text-anchor="start" x="649" y="-370" font-family="Helvetica,sans-Serif" font-size="10.00">/applications/GeoMechanicsApplication</text>
<text text-anchor="start" x="649" y="-359" font-family="Helvetica,sans-Serif" font-size="10.00">/custom_constitutive/linear_elastic</text>
<text text-anchor="middle" x="745" y="-348" font-family="Helvetica,sans-Serif" font-size="10.00">_2D_interface_law.cpp</text>
</a>
</g>
</g>
<!-- Node11&#45;&gt;Node12 -->
<g id="edge11" class="edge">
<title>Node11&#45;&gt;Node12</title>
<path fill="none" stroke="#63b8ff" d="M569.68,-425.11C601.23,-414.84 636.48,-403.35 667.06,-393.39"/>
<polygon fill="#63b8ff" stroke="#63b8ff" points="569,-421.65 560.58,-428.08 571.17,-428.31 569,-421.65"/>
</g>
<!-- Node13 -->
<g id="node13" class="node">
<title>Node13</title>
<g id="a_node13"><a xlink:href="../../d6/dd2/linear__elastic__3_d__interface__law_8h.html" target="_top" xlink:title=" ">
<polygon fill="white" stroke="#666666" points="623,-393 415,-393 415,-341 623,-341 623,-393"/>
<text text-anchor="start" x="423" y="-381" font-family="Helvetica,sans-Serif" font-size="10.00">/software/kratos/doxygen</text>
<text text-anchor="start" x="423" y="-370" font-family="Helvetica,sans-Serif" font-size="10.00">/applications/GeoMechanicsApplication</text>
<text text-anchor="start" x="423" y="-359" font-family="Helvetica,sans-Serif" font-size="10.00">/custom_constitutive/linear_elastic</text>
<text text-anchor="middle" x="519" y="-348" font-family="Helvetica,sans-Serif" font-size="10.00">_3D_interface_law.h</text>
</a>
</g>
</g>
<!-- Node11&#45;&gt;Node13 -->
<g id="edge12" class="edge">
<title>Node11&#45;&gt;Node13</title>
<path fill="none" stroke="#63b8ff" d="M496.74,-418.37C500.44,-410.01 504.3,-401.27 507.75,-393.45"/>
<polygon fill="#63b8ff" stroke="#63b8ff" points="493.65,-416.72 492.81,-427.28 500.05,-419.55 493.65,-416.72"/>
</g>
<!-- Node13&#45;&gt;Node5 -->
<g id="edge14" class="edge">
<title>Node13&#45;&gt;Node5</title>
<path fill="none" stroke="#63b8ff" d="M452.82,-335.89C426.64,-323.97 397.25,-310.6 373.79,-299.93"/>
<polygon fill="#63b8ff" stroke="#63b8ff" points="451.13,-338.96 461.68,-339.92 454.03,-332.59 451.13,-338.96"/>
</g>
<!-- Node14 -->
<g id="node14" class="node">
<title>Node14</title>
<g id="a_node14"><a xlink:href="../../db/def/linear__elastic__3_d__interface__law_8cpp.html" target="_top" xlink:title=" ">
<polygon fill="white" stroke="#666666" points="660,-305 452,-305 452,-253 660,-253 660,-305"/>
<text text-anchor="start" x="460" y="-293" font-family="Helvetica,sans-Serif" font-size="10.00">/software/kratos/doxygen</text>
<text text-anchor="start" x="460" y="-282" font-family="Helvetica,sans-Serif" font-size="10.00">/applications/GeoMechanicsApplication</text>
<text text-anchor="start" x="460" y="-271" font-family="Helvetica,sans-Serif" font-size="10.00">/custom_constitutive/linear_elastic</text>
<text text-anchor="middle" x="556" y="-260" font-family="Helvetica,sans-Serif" font-size="10.00">_3D_interface_law.cpp</text>
</a>
</g>
</g>
<!-- Node13&#45;&gt;Node14 -->
<g id="edge13" class="edge">
<title>Node13&#45;&gt;Node14</title>
<path fill="none" stroke="#63b8ff" d="M534.45,-330.1C538.01,-321.82 541.72,-313.18 545.05,-305.45"/>
<polygon fill="#63b8ff" stroke="#63b8ff" points="531.24,-328.7 530.5,-339.27 537.67,-331.47 531.24,-328.7"/>
</g>
</g>
</svg>
        <g id="navigator" transform="translate(0 0)" fill="#404254">
                <rect fill="#f2f5e9" fill-opacity="0.5" stroke="#606060" stroke-width=".5" x="0" y="0" width="60" height="60"/>
                <use id="zoomplus" xlink:href="#zoomPlus" x="17" y="9" onmousedown="handleZoom(evt,'in')"/>
                <use id="zoomminus" xlink:href="#zoomMin" x="42" y="9" onmousedown="handleZoom(evt,'out')"/>
                <use id="reset" xlink:href="#resetDef" x="30" y="36" onmousedown="handleReset()"/>
                <g id="arrowUp" xlink:href="#dirArrow" transform="translate(30 24)" onmousedown="handlePan(0,-1)">
                  <use xlink:href="#rim" fill="#404040">
                        <set attributeName="fill" to="#808080" begin="arrowUp.mouseover" end="arrowUp.mouseout"/>
                  </use>
                  <path fill="none" stroke="white" stroke-width="1.5" d="M0,-3.0v7 M-2.5,-0.5L0,-3.0L2.5,-0.5"/>
                </g>
                <g id="arrowRight" xlink:href="#dirArrow" transform="rotate(90) translate(36 -43)" onmousedown="handlePan(1,0)">
                  <use xlink:href="#rim" fill="#404040">
                        <set attributeName="fill" to="#808080" begin="arrowRight.mouseover" end="arrowRight.mouseout"/>
                  </use>
                  <path fill="none" stroke="white" stroke-width="1.5" d="M0,-3.0v7 M-2.5,-0.5L0,-3.0L2.5,-0.5"/>
                </g>
                <g id="arrowDown" xlink:href="#dirArrow" transform="rotate(180) translate(-30 -48)" onmousedown="handlePan(0,1)">
                  <use xlink:href="#rim" fill="#404040">
                        <set attributeName="fill" to="#808080" begin="arrowDown.mouseover" end="arrowDown.mouseout"/>
                  </use>
                  <path fill="none" stroke="white" stroke-width="1.5" d="M0,-3.0v7 M-2.5,-0.5L0,-3.0L2.5,-0.5"/>
                </g>
                <g id="arrowLeft" xlink:href="#dirArrow" transform="rotate(270) translate(-36 17)" onmousedown="handlePan(-1,0)">
                  <use xlink:href="#rim" fill="#404040">
                        <set attributeName="fill" to="#808080" begin="arrowLeft.mouseover" end="arrowLeft.mouseout"/>
                  </use>
                  <path fill="none" stroke="white" stroke-width="1.5" d="M0,-3.0v7 M-2.5,-0.5L0,-3.0L2.5,-0.5"/>
                </g>
        </g>
        <svg viewBox="0 0 15 15" width="100%" height="30px" preserveAspectRatio="xMaxYMin meet">
         <g id="arrow_out" transform="scale(0.3 0.3)">
          <a xlink:href="linear__elastic__plane__strain___k0__law_8h__dep__incl_org.svg" target="_base">
           <rect id="button" ry="5" rx="5" y="6" x="6" height="38" width="38"
                fill="#f2f5e9" fill-opacity="0.5" stroke="#606060" stroke-width="1.0"/>
           <path id="arrow"
             d="M 11.500037,31.436501 C 11.940474,20.09759 22.043105,11.32322 32.158766,21.979434 L 37.068811,17.246167 C 37.068811,17.246167 37.088388,32 37.088388,32 L 22.160133,31.978069 C 22.160133,31.978069 26.997745,27.140456 26.997745,27.140456 C 18.528582,18.264221 13.291696,25.230495 11.500037,31.436501 z"
             style="fill:#404040;"/>
          </a>
         </g>
        </svg>
</svg>
