<?xml version="1.0" encoding="UTF-8" standalone="no"?>
<!DOCTYPE svg PUBLIC "-//W3C//DTD SVG 1.1//EN"
 "http://www.w3.org/Graphics/SVG/1.1/DTD/svg11.dtd">
<!-- Generated by graphviz version 7.1.0 (0)
 -->
<!-- Title: /software/kratos/doxygen/applications/PfemSolidMechanicsApplication/custom_utilities/axisym_water_pressure_utilities.hpp Pages: 1 -->
<!--zoomable 258 -->
<svg id="main" version="1.1" xmlns="http://www.w3.org/2000/svg" xmlns:xlink="http://www.w3.org/1999/xlink" xml:space="preserve" onload="init(evt)">
<style type="text/css"><![CDATA[
.edge:hover path { stroke: red; }
.edge:hover polygon { stroke: red; fill: red; }
]]></style>
<script type="text/javascript"><![CDATA[
var edges = document.getElementsByTagName('g');
if (edges && edges.length) {
  for (var i=0;i<edges.length;i++) {
    if (edges[i].id.substr(0,4)=='edge') {
      edges[i].setAttribute('class','edge');
    }
  }
}
]]></script>
        <defs>
                <circle id="rim" cx="0" cy="0" r="7"/>
                <circle id="rim2" cx="0" cy="0" r="3.5"/>
                <g id="zoomPlus">
                        <use xlink:href="#rim" fill="#404040">
                                <set attributeName="fill" to="#808080" begin="zoomplus.mouseover" end="zoomplus.mouseout"/>
                        </use>
                        <path d="M-4,0h8M0,-4v8" fill="none" stroke="white" stroke-width="1.5" pointer-events="none"/>
                </g>
                <g id="zoomMin">
                        <use xlink:href="#rim" fill="#404040">
                                <set attributeName="fill" to="#808080" begin="zoomminus.mouseover" end="zoomminus.mouseout"/>
                        </use>
                        <path d="M-4,0h8" fill="none" stroke="white" stroke-width="1.5" pointer-events="none"/>
                </g>
                <g id="dirArrow">
                        <path fill="none" stroke="white" stroke-width="1.5" d="M0,-3.0v7 M-2.5,-0.5L0,-3.0L2.5,-0.5"/>
                </g>
               <g id="resetDef">
                       <use xlink:href="#rim2" fill="#404040">
                               <set attributeName="fill" to="#808080" begin="reset.mouseover" end="reset.mouseout"/>
                       </use>
               </g>
        </defs>

<script type="text/javascript">
var viewWidth = 910;
var viewHeight = 258;
var sectionId = 'dynsection-1';
</script>
<script xlink:href="../../svgpan.js"/>
<svg id="graph" class="graph">
<g id="viewport">
<title>/software/kratos/doxygen/applications/PfemSolidMechanicsApplication/custom_utilities/axisym_water_pressure_utilities.hpp</title>
<!-- Node1 -->
<g id="node1" class="node">
<title>Node1</title>
<g id="a_node1"><a xlink:title=" ">
<polygon fill="#999999" stroke="#666666" points="496,-250 297,-250 297,-198 496,-198 496,-250"/>
<text text-anchor="start" x="305" y="-238" font-family="Helvetica,sans-Serif" font-size="10.00">/software/kratos/doxygen</text>
<text text-anchor="start" x="305" y="-227" font-family="Helvetica,sans-Serif" font-size="10.00">/applications/PfemSolidMechanics</text>
<text text-anchor="start" x="305" y="-216" font-family="Helvetica,sans-Serif" font-size="10.00">Application/custom_utilities</text>
<text text-anchor="middle" x="396.5" y="-205" font-family="Helvetica,sans-Serif" font-size="10.00">/axisym_water_pressure_utilities.hpp</text>
</a>
</g>
</g>
<!-- Node2 -->
<g id="node2" class="node">
<title>Node2</title>
<g id="a_node2"><a xlink:href="../../d3/d01/axisym__updated__lagrangian___u__w_p___stab__element_8cpp.html" target="_top" xlink:title=" ">
<polygon fill="white" stroke="#666666" points="183,-162 0,-162 0,-99 183,-99 183,-162"/>
<text text-anchor="start" x="8" y="-150" font-family="Helvetica,sans-Serif" font-size="10.00">/software/kratos/doxygen</text>
<text text-anchor="start" x="8" y="-139" font-family="Helvetica,sans-Serif" font-size="10.00">/applications/PfemSolidMechanics</text>
<text text-anchor="start" x="8" y="-128" font-family="Helvetica,sans-Serif" font-size="10.00">Application/custom_elements</text>
<text text-anchor="start" x="8" y="-117" font-family="Helvetica,sans-Serif" font-size="10.00">/axisym_updated_lagrangian_U</text>
<text text-anchor="middle" x="91.5" y="-106" font-family="Helvetica,sans-Serif" font-size="10.00">_wP_Stab_element.cpp</text>
</a>
</g>
</g>
<!-- Node1&#45;&gt;Node2 -->
<g id="edge1" class="edge">
<title>Node1&#45;&gt;Node2</title>
<path fill="none" stroke="#63b8ff" d="M299.51,-194.29C265.36,-184.14 226.71,-172.61 191.5,-162 188.81,-161.19 186.07,-160.36 183.31,-159.53"/>
<polygon fill="#63b8ff" stroke="#63b8ff" points="298.4,-197.61 308.98,-197.1 300.39,-190.9 298.4,-197.61"/>
</g>
<!-- Node3 -->
<g id="node3" class="node">
<title>Node3</title>
<g id="a_node3"><a xlink:href="../../db/d7a/axisym__updated__lagrangian___u__w_p__element_8cpp.html" target="_top" xlink:title=" ">
<polygon fill="white" stroke="#666666" points="384,-162 201,-162 201,-99 384,-99 384,-162"/>
<text text-anchor="start" x="209" y="-150" font-family="Helvetica,sans-Serif" font-size="10.00">/software/kratos/doxygen</text>
<text text-anchor="start" x="209" y="-139" font-family="Helvetica,sans-Serif" font-size="10.00">/applications/PfemSolidMechanics</text>
<text text-anchor="start" x="209" y="-128" font-family="Helvetica,sans-Serif" font-size="10.00">Application/custom_elements</text>
<text text-anchor="start" x="209" y="-117" font-family="Helvetica,sans-Serif" font-size="10.00">/axisym_updated_lagrangian_U</text>
<text text-anchor="middle" x="292.5" y="-106" font-family="Helvetica,sans-Serif" font-size="10.00">_wP_element.cpp</text>
</a>
</g>
</g>
<!-- Node1&#45;&gt;Node3 -->
<g id="edge2" class="edge">
<title>Node1&#45;&gt;Node3</title>
<path fill="none" stroke="#63b8ff" d="M359.13,-190.12C348.85,-181.08 337.74,-171.31 327.6,-162.38"/>
<polygon fill="#63b8ff" stroke="#63b8ff" points="356.57,-192.53 366.39,-196.51 361.2,-187.28 356.57,-192.53"/>
</g>
<!-- Node4 -->
<g id="node4" class="node">
<title>Node4</title>
<g id="a_node4"><a xlink:href="../../d6/dfd/axisym__water__pressure__utilities_8cpp.html" target="_top" xlink:title=" ">
<polygon fill="white" stroke="#666666" points="600.5,-156.5 402.5,-156.5 402.5,-104.5 600.5,-104.5 600.5,-156.5"/>
<text text-anchor="start" x="410.5" y="-144.5" font-family="Helvetica,sans-Serif" font-size="10.00">/software/kratos/doxygen</text>
<text text-anchor="start" x="410.5" y="-133.5" font-family="Helvetica,sans-Serif" font-size="10.00">/applications/PfemSolidMechanics</text>
<text text-anchor="start" x="410.5" y="-122.5" font-family="Helvetica,sans-Serif" font-size="10.00">Application/custom_utilities</text>
<text text-anchor="middle" x="501.5" y="-111.5" font-family="Helvetica,sans-Serif" font-size="10.00">/axisym_water_pressure_utilities.cpp</text>
</a>
</g>
</g>
<!-- Node1&#45;&gt;Node4 -->
<g id="edge3" class="edge">
<title>Node1&#45;&gt;Node4</title>
<path fill="none" stroke="#63b8ff" d="M434.22,-190.13C446.79,-179.18 460.59,-167.15 472.41,-156.85"/>
<polygon fill="#63b8ff" stroke="#63b8ff" points="432.13,-187.31 426.89,-196.52 436.73,-192.59 432.13,-187.31"/>
</g>
<!-- Node5 -->
<g id="node5" class="node">
<title>Node5</title>
<g id="a_node5"><a xlink:href="../../d6/dcc/axisym__water__pressure__utilities___jacobian_8hpp.html" target="_top" xlink:title=" ">
<polygon fill="white" stroke="#666666" points="802,-162 619,-162 619,-99 802,-99 802,-162"/>
<text text-anchor="start" x="627" y="-150" font-family="Helvetica,sans-Serif" font-size="10.00">/software/kratos/doxygen</text>
<text text-anchor="start" x="627" y="-139" font-family="Helvetica,sans-Serif" font-size="10.00">/applications/PfemSolidMechanics</text>
<text text-anchor="start" x="627" y="-128" font-family="Helvetica,sans-Serif" font-size="10.00">Application/custom_utilities</text>
<text text-anchor="start" x="627" y="-117" font-family="Helvetica,sans-Serif" font-size="10.00">/axisym_water_pressure_utilities</text>
<text text-anchor="middle" x="710.5" y="-106" font-family="Helvetica,sans-Serif" font-size="10.00">_Jacobian.hpp</text>
</a>
</g>
</g>
<!-- Node1&#45;&gt;Node5 -->
<g id="edge4" class="edge">
<title>Node1&#45;&gt;Node5</title>
<path fill="none" stroke="#63b8ff" d="M497.34,-194.44C532.83,-184.31 572.96,-172.75 609.5,-162 612.49,-161.12 615.52,-160.22 618.59,-159.32"/>
<polygon fill="#63b8ff" stroke="#63b8ff" points="496.6,-191.01 487.94,-197.12 498.52,-197.74 496.6,-191.01"/>
</g>
<!-- Node6 -->
<g id="node6" class="node">
<title>Node6</title>
<g id="a_node6"><a xlink:href="../../dc/d01/axisym__updated__lagrangian___u___j__w_p__element_8cpp.html" target="_top" xlink:title=" ">
<polygon fill="white" stroke="#666666" points="701,-63 518,-63 518,0 701,0 701,-63"/>
<text text-anchor="start" x="526" y="-51" font-family="Helvetica,sans-Serif" font-size="10.00">/software/kratos/doxygen</text>
<text text-anchor="start" x="526" y="-40" font-family="Helvetica,sans-Serif" font-size="10.00">/applications/PfemSolidMechanics</text>
<text text-anchor="start" x="526" y="-29" font-family="Helvetica,sans-Serif" font-size="10.00">Application/custom_elements</text>
<text text-anchor="start" x="526" y="-18" font-family="Helvetica,sans-Serif" font-size="10.00">/axisym_updated_lagrangian_U</text>
<text text-anchor="middle" x="609.5" y="-7" font-family="Helvetica,sans-Serif" font-size="10.00">_J_wP_element.cpp</text>
</a>
</g>
</g>
<!-- Node5&#45;&gt;Node6 -->
<g id="edge5" class="edge">
<title>Node5&#45;&gt;Node6</title>
<path fill="none" stroke="#63b8ff" d="M670.14,-90.74C660.72,-81.69 650.8,-72.16 641.77,-63.5"/>
<polygon fill="#63b8ff" stroke="#63b8ff" points="667.54,-93.09 677.17,-97.49 672.39,-88.04 667.54,-93.09"/>
</g>
<!-- Node7 -->
<g id="node7" class="node">
<title>Node7</title>
<g id="a_node7"><a xlink:href="../../dc/d1e/axisym__water__pressure__utilities___jacobian_8cpp.html" target="_top" xlink:title=" ">
<polygon fill="white" stroke="#666666" points="902,-63 719,-63 719,0 902,0 902,-63"/>
<text text-anchor="start" x="727" y="-51" font-family="Helvetica,sans-Serif" font-size="10.00">/software/kratos/doxygen</text>
<text text-anchor="start" x="727" y="-40" font-family="Helvetica,sans-Serif" font-size="10.00">/applications/PfemSolidMechanics</text>
<text text-anchor="start" x="727" y="-29" font-family="Helvetica,sans-Serif" font-size="10.00">Application/custom_utilities</text>
<text text-anchor="start" x="727" y="-18" font-family="Helvetica,sans-Serif" font-size="10.00">/axisym_water_pressure_utilities</text>
<text text-anchor="middle" x="810.5" y="-7" font-family="Helvetica,sans-Serif" font-size="10.00">_Jacobian.cpp</text>
</a>
</g>
</g>
<!-- Node5&#45;&gt;Node7 -->
<g id="edge6" class="edge">
<title>Node5&#45;&gt;Node7</title>
<path fill="none" stroke="#63b8ff" d="M750.46,-90.74C759.79,-81.69 769.61,-72.16 778.54,-63.5"/>
<polygon fill="#63b8ff" stroke="#63b8ff" points="748.24,-88.01 743.5,-97.49 753.12,-93.04 748.24,-88.01"/>
</g>
</g>
</svg>
        <g id="navigator" transform="translate(0 0)" fill="#404254">
                <rect fill="#f2f5e9" fill-opacity="0.5" stroke="#606060" stroke-width=".5" x="0" y="0" width="60" height="60"/>
                <use id="zoomplus" xlink:href="#zoomPlus" x="17" y="9" onmousedown="handleZoom(evt,'in')"/>
                <use id="zoomminus" xlink:href="#zoomMin" x="42" y="9" onmousedown="handleZoom(evt,'out')"/>
                <use id="reset" xlink:href="#resetDef" x="30" y="36" onmousedown="handleReset()"/>
                <g id="arrowUp" xlink:href="#dirArrow" transform="translate(30 24)" onmousedown="handlePan(0,-1)">
                  <use xlink:href="#rim" fill="#404040">
                        <set attributeName="fill" to="#808080" begin="arrowUp.mouseover" end="arrowUp.mouseout"/>
                  </use>
                  <path fill="none" stroke="white" stroke-width="1.5" d="M0,-3.0v7 M-2.5,-0.5L0,-3.0L2.5,-0.5"/>
                </g>
                <g id="arrowRight" xlink:href="#dirArrow" transform="rotate(90) translate(36 -43)" onmousedown="handlePan(1,0)">
                  <use xlink:href="#rim" fill="#404040">
                        <set attributeName="fill" to="#808080" begin="arrowRight.mouseover" end="arrowRight.mouseout"/>
                  </use>
                  <path fill="none" stroke="white" stroke-width="1.5" d="M0,-3.0v7 M-2.5,-0.5L0,-3.0L2.5,-0.5"/>
                </g>
                <g id="arrowDown" xlink:href="#dirArrow" transform="rotate(180) translate(-30 -48)" onmousedown="handlePan(0,1)">
                  <use xlink:href="#rim" fill="#404040">
                        <set attributeName="fill" to="#808080" begin="arrowDown.mouseover" end="arrowDown.mouseout"/>
                  </use>
                  <path fill="none" stroke="white" stroke-width="1.5" d="M0,-3.0v7 M-2.5,-0.5L0,-3.0L2.5,-0.5"/>
                </g>
                <g id="arrowLeft" xlink:href="#dirArrow" transform="rotate(270) translate(-36 17)" onmousedown="handlePan(-1,0)">
                  <use xlink:href="#rim" fill="#404040">
                        <set attributeName="fill" to="#808080" begin="arrowLeft.mouseover" end="arrowLeft.mouseout"/>
                  </use>
                  <path fill="none" stroke="white" stroke-width="1.5" d="M0,-3.0v7 M-2.5,-0.5L0,-3.0L2.5,-0.5"/>
                </g>
        </g>
        <svg viewBox="0 0 15 15" width="100%" height="30px" preserveAspectRatio="xMaxYMin meet">
         <g id="arrow_out" transform="scale(0.3 0.3)">
          <a xlink:href="axisym__water__pressure__utilities_8hpp__dep__incl_org.svg" target="_base">
           <rect id="button" ry="5" rx="5" y="6" x="6" height="38" width="38"
                fill="#f2f5e9" fill-opacity="0.5" stroke="#606060" stroke-width="1.0"/>
           <path id="arrow"
             d="M 11.500037,31.436501 C 11.940474,20.09759 22.043105,11.32322 32.158766,21.979434 L 37.068811,17.246167 C 37.068811,17.246167 37.088388,32 37.088388,32 L 22.160133,31.978069 C 22.160133,31.978069 26.997745,27.140456 26.997745,27.140456 C 18.528582,18.264221 13.291696,25.230495 11.500037,31.436501 z"
             style="fill:#404040;"/>
          </a>
         </g>
        </svg>
</svg>
