<?xml version="1.0" encoding="UTF-8" standalone="no"?>
<!DOCTYPE svg PUBLIC "-//W3C//DTD SVG 1.1//EN"
 "http://www.w3.org/Graphics/SVG/1.1/DTD/svg11.dtd">
<!-- Generated by graphviz version 7.1.0 (0)
 -->
<!-- Title: mesh_controllers.mesh_controller_with_solver.MeshControllerWithSolver Pages: 1 -->
<svg width="170pt" height="292pt"
 viewBox="0.00 0.00 170.00 292.00" xmlns="http://www.w3.org/2000/svg" xmlns:xlink="http://www.w3.org/1999/xlink">
<g id="graph0" class="graph" transform="scale(1 1) rotate(0) translate(4 288)">
<title>mesh_controllers.mesh_controller_with_solver.MeshControllerWithSolver</title>
<!-- Node1 -->
<g id="node1" class="node">
<title>Node1</title>
<g id="a_node1"><a xlink:title=" ">
<polygon fill="#999999" stroke="#666666" points="0,-0.5 0,-189.5 162,-189.5 162,-0.5 0,-0.5"/>
<text text-anchor="start" x="8" y="-177.5" font-family="Helvetica,sans-Serif" font-size="10.00">mesh_controllers.mesh</text>
<text text-anchor="start" x="8" y="-166.5" font-family="Helvetica,sans-Serif" font-size="10.00">_controller_with_solver.Mesh</text>
<text text-anchor="middle" x="81" y="-155.5" font-family="Helvetica,sans-Serif" font-size="10.00">ControllerWithSolver</text>
<polyline fill="none" stroke="#666666" points="0,-148.5 162,-148.5"/>
<text text-anchor="start" x="8" y="-136.5" font-family="Helvetica,sans-Serif" font-size="10.00">+ MeshSolverSettings</text>
<text text-anchor="start" x="8" y="-125.5" font-family="Helvetica,sans-Serif" font-size="10.00">+ OptimizationModelPart</text>
<text text-anchor="start" x="8" y="-114.5" font-family="Helvetica,sans-Serif" font-size="10.00">+ has_automatic_boundary</text>
<text text-anchor="start" x="8" y="-103.5" font-family="Helvetica,sans-Serif" font-size="10.00">_process</text>
<text text-anchor="start" x="8" y="-92.5" font-family="Helvetica,sans-Serif" font-size="10.00">+ is_remeshing_used</text>
<text text-anchor="start" x="8" y="-81.5" font-family="Helvetica,sans-Serif" font-size="10.00">+ remeshing_process</text>
<text text-anchor="start" x="8" y="-70.5" font-family="Helvetica,sans-Serif" font-size="10.00"># _mesh_moving_analysis</text>
<polyline fill="none" stroke="#666666" points="0,-63.5 162,-63.5"/>
<text text-anchor="start" x="8" y="-51.5" font-family="Helvetica,sans-Serif" font-size="10.00">+ __init__()</text>
<text text-anchor="start" x="8" y="-40.5" font-family="Helvetica,sans-Serif" font-size="10.00">+ Initialize()</text>
<text text-anchor="start" x="8" y="-29.5" font-family="Helvetica,sans-Serif" font-size="10.00">+ UpdateMeshAccordingInput</text>
<text text-anchor="start" x="8" y="-18.5" font-family="Helvetica,sans-Serif" font-size="10.00">Variable()</text>
<text text-anchor="start" x="8" y="-7.5" font-family="Helvetica,sans-Serif" font-size="10.00">+ Finalize()</text>
</a>
</g>
</g>
<!-- Node2 -->
<g id="node2" class="node">
<title>Node2</title>
<g id="a_node2"><a xlink:title=" ">
<polygon fill="white" stroke="#666666" points="35.5,-226.5 35.5,-283.5 126.5,-283.5 126.5,-226.5 35.5,-226.5"/>
<text text-anchor="middle" x="81" y="-271.5" font-family="Helvetica,sans-Serif" font-size="10.00">MeshController</text>
<polyline fill="none" stroke="#666666" points="35.5,-264.5 126.5,-264.5"/>
<text text-anchor="middle" x="81" y="-252.5" font-family="Helvetica,sans-Serif" font-size="10.00"> </text>
<polyline fill="none" stroke="#666666" points="35.5,-245.5 126.5,-245.5"/>
<text text-anchor="middle" x="81" y="-233.5" font-family="Helvetica,sans-Serif" font-size="10.00"> </text>
</a>
</g>
</g>
<!-- Node2&#45;&gt;Node1 -->
<g id="edge1" class="edge">
<title>Node2&#45;&gt;Node1</title>
<path fill="none" stroke="#63b8ff" d="M81,-215.56C81,-207.44 81,-198.53 81,-189.36"/>
<polygon fill="none" stroke="#63b8ff" points="77.5,-215.33 81,-225.33 84.5,-215.33 77.5,-215.33"/>
</g>
</g>
</svg>
