<?xml version="1.0" encoding="UTF-8" standalone="no"?>
<!DOCTYPE svg PUBLIC "-//W3C//DTD SVG 1.1//EN"
 "http://www.w3.org/Graphics/SVG/1.1/DTD/svg11.dtd">
<!-- Generated by graphviz version 2.43.0 (0)
 -->
<!-- Title: /home/runner/work/Documentation/Documentation/master/applications/MeshingApplication/external_includes/trigen_pfem_refine_vms.h Pages: 1 -->
<svg width="3454pt" height="1022pt"
 viewBox="0.00 0.00 3453.80 1022.00" xmlns="http://www.w3.org/2000/svg" xmlns:xlink="http://www.w3.org/1999/xlink">
<g id="graph0" class="graph" transform="scale(1 1) rotate(0) translate(4 1018)">
<title>/home/runner/work/Documentation/Documentation/master/applications/MeshingApplication/external_includes/trigen_pfem_refine_vms.h</title>
<!-- Node1 -->
<g id="node1" class="node">
<title>Node1</title>
<g id="a_node1"><a xlink:title=" ">
<polygon fill="#bfbfbf" stroke="black" points="1705.3,-961.5 1705.3,-1013.5 1910.3,-1013.5 1910.3,-961.5 1705.3,-961.5"/>
<text text-anchor="start" x="1713.3" y="-1001.5" font-family="Helvetica,sans-Serif" font-size="10.00">/home/runner/work/Documentation</text>
<text text-anchor="start" x="1713.3" y="-990.5" font-family="Helvetica,sans-Serif" font-size="10.00">/Documentation/master/applications</text>
<text text-anchor="start" x="1713.3" y="-979.5" font-family="Helvetica,sans-Serif" font-size="10.00">/MeshingApplication/external_includes</text>
<text text-anchor="middle" x="1807.8" y="-968.5" font-family="Helvetica,sans-Serif" font-size="10.00">/trigen_pfem_refine_vms.h</text>
</a>
</g>
</g>
<!-- Node2 -->
<g id="node2" class="node">
<title>Node2</title>
<g id="a_node2"><a xlink:title=" ">
<polygon fill="none" stroke="#bfbfbf" points="1526.3,-844 1526.3,-863 1589.3,-863 1589.3,-844 1526.3,-844"/>
<text text-anchor="middle" x="1557.8" y="-851" font-family="Helvetica,sans-Serif" font-size="10.00">triangle.h</text>
</a>
</g>
</g>
<!-- Node1&#45;&gt;Node2 -->
<g id="edge1" class="edge">
<title>Node1&#45;&gt;Node2</title>
<path fill="none" stroke="midnightblue" d="M1760.19,-961.36C1707.35,-933.46 1624.1,-889.51 1582.78,-867.69"/>
<polygon fill="midnightblue" stroke="midnightblue" points="1584.4,-864.59 1573.92,-863.01 1581.13,-870.78 1584.4,-864.59"/>
</g>
<!-- Node3 -->
<g id="node3" class="node">
<title>Node3</title>
<g id="a_node3"><a xlink:href="../../df/d67/define_8h.html" target="_top" xlink:title=" ">
<polygon fill="none" stroke="black" points="1115.3,-123.5 1115.3,-142.5 1214.3,-142.5 1214.3,-123.5 1115.3,-123.5"/>
<text text-anchor="middle" x="1164.8" y="-130.5" font-family="Helvetica,sans-Serif" font-size="10.00">includes/define.h</text>
</a>
</g>
</g>
<!-- Node1&#45;&gt;Node3 -->
<g id="edge2" class="edge">
<title>Node1&#45;&gt;Node3</title>
<path fill="none" stroke="midnightblue" d="M1705.28,-986.82C1397.86,-986.44 504.8,-974.97 504.8,-854.5 504.8,-854.5 504.8,-854.5 504.8,-584.5 504.8,-386.96 507.43,-261.76 686.8,-179 759.74,-145.35 993.78,-136.86 1105.01,-134.72"/>
<polygon fill="midnightblue" stroke="midnightblue" points="1105.12,-138.22 1115.06,-134.54 1105,-131.22 1105.12,-138.22"/>
</g>
<!-- Node17 -->
<g id="node11" class="node">
<title>Node17</title>
<g id="a_node11"><a xlink:href="../../dd/dfe/model__part_8h.html" target="_top" xlink:title=" ">
<polygon fill="none" stroke="black" points="1702.3,-771.5 1702.3,-790.5 1827.3,-790.5 1827.3,-771.5 1702.3,-771.5"/>
<text text-anchor="middle" x="1764.8" y="-778.5" font-family="Helvetica,sans-Serif" font-size="10.00">includes/model_part.h</text>
</a>
</g>
</g>
<!-- Node1&#45;&gt;Node17 -->
<g id="edge14" class="edge">
<title>Node1&#45;&gt;Node17</title>
<path fill="none" stroke="midnightblue" d="M1796.35,-961.22C1791.82,-950.28 1786.94,-937.21 1783.8,-925 1772.54,-881.28 1767.72,-828.24 1765.85,-800.67"/>
<polygon fill="midnightblue" stroke="midnightblue" points="1769.33,-800.28 1765.22,-790.52 1762.34,-800.71 1769.33,-800.28"/>
</g>
<!-- Node121 -->
<g id="node35" class="node">
<title>Node121</title>
<g id="a_node35"><a xlink:href="../../d2/da6/global__pointer__variables_8h.html" target="_top" xlink:title=" ">
<polygon fill="none" stroke="black" points="2506.8,-570.5 2506.8,-600.5 2636.8,-600.5 2636.8,-570.5 2506.8,-570.5"/>
<text text-anchor="start" x="2514.8" y="-588.5" font-family="Helvetica,sans-Serif" font-size="10.00">includes/global_pointer</text>
<text text-anchor="middle" x="2571.8" y="-577.5" font-family="Helvetica,sans-Serif" font-size="10.00">_variables.h</text>
</a>
</g>
</g>
<!-- Node1&#45;&gt;Node121 -->
<g id="edge126" class="edge">
<title>Node1&#45;&gt;Node121</title>
<path fill="none" stroke="midnightblue" d="M1865.45,-961.46C1890.04,-950.57 1918.97,-937.46 1944.8,-925 2120.08,-840.45 2163.06,-817.37 2333.8,-724 2408.22,-683.3 2494.04,-632.83 2539.55,-605.78"/>
<polygon fill="midnightblue" stroke="midnightblue" points="2541.56,-608.65 2548.36,-600.53 2537.98,-602.64 2541.56,-608.65"/>
</g>
<!-- Node122 -->
<g id="node36" class="node">
<title>Node122</title>
<g id="a_node36"><a xlink:href="../../d5/dd0/timer_8h.html" target="_top" xlink:title=" ">
<polygon fill="none" stroke="black" points="2794.3,-185 2794.3,-204 2885.3,-204 2885.3,-185 2794.3,-185"/>
<text text-anchor="middle" x="2839.8" y="-192" font-family="Helvetica,sans-Serif" font-size="10.00">utilities/timer.h</text>
</a>
</g>
</g>
<!-- Node1&#45;&gt;Node122 -->
<g id="edge133" class="edge">
<title>Node1&#45;&gt;Node122</title>
<path fill="none" stroke="midnightblue" d="M1910.43,-986.9C2122.27,-986.51 2622.93,-979.32 3038.8,-925 3187.94,-905.52 3369.8,-1004.91 3369.8,-854.5 3369.8,-854.5 3369.8,-854.5 3369.8,-394.5 3369.8,-294.04 3031.84,-227.13 2895.67,-204.24"/>
<polygon fill="midnightblue" stroke="midnightblue" points="2895.88,-200.73 2885.45,-202.55 2894.74,-207.64 2895.88,-200.73"/>
</g>
<!-- Node123 -->
<g id="node38" class="node">
<title>Node123</title>
<g id="a_node38"><a xlink:href="../../d7/d8d/triangle__2d__3_8h.html" target="_top" xlink:title=" ">
<polygon fill="none" stroke="black" points="237.3,-838.5 237.3,-868.5 350.3,-868.5 350.3,-838.5 237.3,-838.5"/>
<text text-anchor="start" x="245.3" y="-856.5" font-family="Helvetica,sans-Serif" font-size="10.00">geometries/triangle</text>
<text text-anchor="middle" x="293.8" y="-845.5" font-family="Helvetica,sans-Serif" font-size="10.00">_2d_3.h</text>
</a>
</g>
</g>
<!-- Node1&#45;&gt;Node123 -->
<g id="edge141" class="edge">
<title>Node1&#45;&gt;Node123</title>
<path fill="none" stroke="midnightblue" d="M1705.13,-985.63C1437.39,-982.74 722.65,-970.83 490.8,-925 434.46,-913.86 372.57,-889.59 333.48,-872.66"/>
<polygon fill="midnightblue" stroke="midnightblue" points="334.61,-869.33 324.04,-868.52 331.8,-875.74 334.61,-869.33"/>
</g>
<!-- Node134 -->
<g id="node43" class="node">
<title>Node134</title>
<g id="a_node43"><a xlink:href="../../d9/dde/meshing__application__variables_8h.html" target="_top" xlink:title=" ">
<polygon fill="none" stroke="black" points="2051.8,-693.5 2051.8,-723.5 2169.8,-723.5 2169.8,-693.5 2051.8,-693.5"/>
<text text-anchor="start" x="2059.8" y="-711.5" font-family="Helvetica,sans-Serif" font-size="10.00">meshing_application</text>
<text text-anchor="middle" x="2110.8" y="-700.5" font-family="Helvetica,sans-Serif" font-size="10.00">_variables.h</text>
</a>
</g>
</g>
<!-- Node1&#45;&gt;Node134 -->
<g id="edge147" class="edge">
<title>Node1&#45;&gt;Node134</title>
<path fill="none" stroke="midnightblue" d="M1861.51,-961.43C1880.73,-951.34 1902.02,-938.82 1919.8,-925 1995.72,-866.01 2065.37,-774.03 2095.32,-731.92"/>
<polygon fill="midnightblue" stroke="midnightblue" points="2098.2,-733.91 2101.09,-723.72 2092.47,-729.88 2098.2,-733.91"/>
</g>
<!-- Node135 -->
<g id="node45" class="node">
<title>Node135</title>
<g id="a_node45"><a xlink:href="../../da/d42/entity__erase__process_8h.html" target="_top" xlink:title=" ">
<polygon fill="none" stroke="black" points="1607.3,-838.5 1607.3,-868.5 1736.3,-868.5 1736.3,-838.5 1607.3,-838.5"/>
<text text-anchor="start" x="1615.3" y="-856.5" font-family="Helvetica,sans-Serif" font-size="10.00">processes/entity_erase</text>
<text text-anchor="middle" x="1671.8" y="-845.5" font-family="Helvetica,sans-Serif" font-size="10.00">_process.h</text>
</a>
</g>
</g>
<!-- Node1&#45;&gt;Node135 -->
<g id="edge158" class="edge">
<title>Node1&#45;&gt;Node135</title>
<path fill="none" stroke="midnightblue" d="M1781.9,-961.36C1756.31,-936.52 1717.6,-898.95 1693.55,-875.61"/>
<polygon fill="midnightblue" stroke="midnightblue" points="1695.91,-873.02 1686.3,-868.57 1691.04,-878.05 1695.91,-873.02"/>
</g>
<!-- Node137 -->
<g id="node47" class="node">
<title>Node137</title>
<g id="a_node47"><a xlink:href="../../db/d8f/spatial__containers_8h.html" target="_top" xlink:title=" ">
<polygon fill="none" stroke="red" points="2657.8,-179.5 2657.8,-209.5 2775.8,-209.5 2775.8,-179.5 2657.8,-179.5"/>
<text text-anchor="start" x="2665.8" y="-197.5" font-family="Helvetica,sans-Serif" font-size="10.00">spatial_containers</text>
<text text-anchor="middle" x="2716.8" y="-186.5" font-family="Helvetica,sans-Serif" font-size="10.00">/spatial_containers.h</text>
</a>
</g>
</g>
<!-- Node1&#45;&gt;Node137 -->
<g id="edge164" class="edge">
<title>Node1&#45;&gt;Node137</title>
<path fill="none" stroke="midnightblue" d="M1910.36,-986.97C2220.73,-987.04 3128.8,-976.8 3128.8,-854.5 3128.8,-854.5 3128.8,-854.5 3128.8,-646 3128.8,-481.22 3080.34,-431.46 2965.8,-313 2931.38,-277.41 2920.82,-268.67 2876.8,-246 2848.3,-231.32 2814.73,-219.93 2785.72,-211.71"/>
<polygon fill="midnightblue" stroke="midnightblue" points="2786.64,-208.34 2776.07,-209.05 2784.78,-215.09 2786.64,-208.34"/>
</g>
<!-- Node155 -->
<g id="node50" class="node">
<title>Node155</title>
<g id="a_node50"><a xlink:href="../../d8/d94/trigen__pfem__refine_8h.html" target="_top" xlink:title=" ">
<polygon fill="none" stroke="red" points="1792.8,-905.5 1792.8,-924.5 1910.8,-924.5 1910.8,-905.5 1792.8,-905.5"/>
<text text-anchor="middle" x="1851.8" y="-912.5" font-family="Helvetica,sans-Serif" font-size="10.00">trigen_pfem_refine.h</text>
</a>
</g>
</g>
<!-- Node1&#45;&gt;Node155 -->
<g id="edge171" class="edge">
<title>Node1&#45;&gt;Node155</title>
<path fill="none" stroke="midnightblue" d="M1823.44,-961.45C1829.25,-952.13 1835.71,-941.77 1841,-933.3"/>
<polygon fill="midnightblue" stroke="midnightblue" points="1844.05,-935.03 1846.37,-924.7 1838.11,-931.33 1844.05,-935.03"/>
</g>
<!-- Node4 -->
<g id="node4" class="node">
<title>Node4</title>
<g id="a_node4"><a xlink:title=" ">
<polygon fill="none" stroke="#bfbfbf" points="1236.3,-6 1236.3,-25 1301.3,-25 1301.3,-6 1236.3,-6"/>
<text text-anchor="middle" x="1268.8" y="-13" font-family="Helvetica,sans-Serif" font-size="10.00">stdexcept</text>
</a>
</g>
</g>
<!-- Node3&#45;&gt;Node4 -->
<g id="edge3" class="edge">
<title>Node3&#45;&gt;Node4</title>
<path fill="none" stroke="midnightblue" d="M1168.71,-123.34C1174.9,-110.21 1187.91,-84.92 1203.8,-67 1216.2,-53.01 1232.9,-40.13 1246.27,-30.88"/>
<polygon fill="midnightblue" stroke="midnightblue" points="1248.54,-33.57 1254.9,-25.09 1244.64,-27.76 1248.54,-33.57"/>
</g>
<!-- Node5 -->
<g id="node5" class="node">
<title>Node5</title>
<g id="a_node5"><a xlink:title=" ">
<polygon fill="none" stroke="#bfbfbf" points="566.8,-6 566.8,-25 622.8,-25 622.8,-6 566.8,-6"/>
<text text-anchor="middle" x="594.8" y="-13" font-family="Helvetica,sans-Serif" font-size="10.00">sstream</text>
</a>
</g>
</g>
<!-- Node3&#45;&gt;Node5 -->
<g id="edge4" class="edge">
<title>Node3&#45;&gt;Node5</title>
<path fill="none" stroke="midnightblue" d="M1122.42,-123.41C1015.29,-101.7 734.89,-44.89 632.73,-24.19"/>
<polygon fill="midnightblue" stroke="midnightblue" points="633.35,-20.74 622.85,-22.18 631.96,-27.6 633.35,-20.74"/>
</g>
<!-- Node6 -->
<g id="node6" class="node">
<title>Node6</title>
<g id="a_node6"><a xlink:href="../../dc/d25/kratos__export__api_8h.html" target="_top" xlink:title=" ">
<polygon fill="none" stroke="black" points="1084.8,-0.5 1084.8,-30.5 1212.8,-30.5 1212.8,-0.5 1084.8,-0.5"/>
<text text-anchor="start" x="1092.8" y="-18.5" font-family="Helvetica,sans-Serif" font-size="10.00">includes/kratos_export</text>
<text text-anchor="middle" x="1148.8" y="-7.5" font-family="Helvetica,sans-Serif" font-size="10.00">_api.h</text>
</a>
</g>
</g>
<!-- Node3&#45;&gt;Node6 -->
<g id="edge5" class="edge">
<title>Node3&#45;&gt;Node6</title>
<path fill="none" stroke="midnightblue" d="M1163.6,-123.32C1161.19,-105.97 1155.72,-66.46 1152.15,-40.66"/>
<polygon fill="midnightblue" stroke="midnightblue" points="1155.58,-39.97 1150.75,-30.55 1148.65,-40.93 1155.58,-39.97"/>
</g>
<!-- Node7 -->
<g id="node7" class="node">
<title>Node7</title>
<g id="a_node7"><a xlink:href="../../d9/dc0/smart__pointers_8h.html" target="_top" xlink:title=" ">
<polygon fill="none" stroke="red" points="1386.3,-67.5 1386.3,-86.5 1529.3,-86.5 1529.3,-67.5 1386.3,-67.5"/>
<text text-anchor="middle" x="1457.8" y="-74.5" font-family="Helvetica,sans-Serif" font-size="10.00">includes/smart_pointers.h</text>
</a>
</g>
</g>
<!-- Node3&#45;&gt;Node7 -->
<g id="edge6" class="edge">
<title>Node3&#45;&gt;Node7</title>
<path fill="none" stroke="midnightblue" d="M1211.23,-123.44C1262.88,-113.92 1346.31,-98.55 1401.61,-88.36"/>
<polygon fill="midnightblue" stroke="midnightblue" points="1402.39,-91.77 1411.59,-86.52 1401.12,-84.89 1402.39,-91.77"/>
</g>
<!-- Node12 -->
<g id="node9" class="node">
<title>Node12</title>
<g id="a_node9"><a xlink:href="../../dd/d2d/exception_8h.html" target="_top" xlink:title=" ">
<polygon fill="none" stroke="red" points="1212.3,-67.5 1212.3,-86.5 1329.3,-86.5 1329.3,-67.5 1212.3,-67.5"/>
<text text-anchor="middle" x="1270.8" y="-74.5" font-family="Helvetica,sans-Serif" font-size="10.00">includes/exception.h</text>
</a>
</g>
</g>
<!-- Node3&#45;&gt;Node12 -->
<g id="edge8" class="edge">
<title>Node3&#45;&gt;Node12</title>
<path fill="none" stroke="midnightblue" d="M1181.83,-123.32C1198.83,-114.66 1225.18,-101.24 1244.79,-91.25"/>
<polygon fill="midnightblue" stroke="midnightblue" points="1246.49,-94.31 1253.81,-86.65 1243.31,-88.08 1246.49,-94.31"/>
</g>
<!-- Node8 -->
<g id="node8" class="node">
<title>Node8</title>
<g id="a_node8"><a xlink:title=" ">
<polygon fill="none" stroke="#bfbfbf" points="3035.8,-6 3035.8,-25 3095.8,-25 3095.8,-6 3035.8,-6"/>
<text text-anchor="middle" x="3065.8" y="-13" font-family="Helvetica,sans-Serif" font-size="10.00">iostream</text>
</a>
</g>
</g>
<!-- Node7&#45;&gt;Node8 -->
<g id="edge7" class="edge">
<title>Node7&#45;&gt;Node8</title>
<path fill="none" stroke="midnightblue" d="M1529.49,-73.35C1807.74,-63.05 2811.29,-25.92 3025.42,-17.99"/>
<polygon fill="midnightblue" stroke="midnightblue" points="3025.72,-21.49 3035.59,-17.62 3025.46,-14.49 3025.72,-21.49"/>
</g>
<!-- Node12&#45;&gt;Node4 -->
<g id="edge9" class="edge">
<title>Node12&#45;&gt;Node4</title>
<path fill="none" stroke="midnightblue" d="M1270.51,-67.48C1270.23,-59.08 1269.79,-45.98 1269.43,-35.16"/>
<polygon fill="midnightblue" stroke="midnightblue" points="1272.92,-34.89 1269.09,-25.01 1265.92,-35.12 1272.92,-34.89"/>
</g>
<!-- Node12&#45;&gt;Node5 -->
<g id="edge12" class="edge">
<title>Node12&#45;&gt;Node5</title>
<path fill="none" stroke="midnightblue" d="M1212.29,-70.85C1077.12,-58.95 746.15,-29.82 633.26,-19.89"/>
<polygon fill="midnightblue" stroke="midnightblue" points="633.3,-16.38 623.03,-18.98 632.68,-23.35 633.3,-16.38"/>
</g>
<!-- Node12&#45;&gt;Node6 -->
<g id="edge13" class="edge">
<title>Node12&#45;&gt;Node6</title>
<path fill="none" stroke="midnightblue" d="M1253.32,-67.48C1236.02,-59.04 1208.99,-45.86 1186.75,-35.01"/>
<polygon fill="midnightblue" stroke="midnightblue" points="1188.07,-31.76 1177.55,-30.52 1185.01,-38.05 1188.07,-31.76"/>
</g>
<!-- Node12&#45;&gt;Node8 -->
<g id="edge11" class="edge">
<title>Node12&#45;&gt;Node8</title>
<path fill="none" stroke="midnightblue" d="M1329.35,-70.5C1345.07,-69.18 1362.07,-67.9 1377.8,-67 2035.35,-29.54 2838.66,-18.94 3025.61,-16.9"/>
<polygon fill="midnightblue" stroke="midnightblue" points="3025.84,-20.4 3035.8,-16.79 3025.76,-13.4 3025.84,-20.4"/>
</g>
<!-- Node13 -->
<g id="node10" class="node">
<title>Node13</title>
<g id="a_node10"><a xlink:title=" ">
<polygon fill="none" stroke="#bfbfbf" points="1950.8,-6 1950.8,-25 1994.8,-25 1994.8,-6 1950.8,-6"/>
<text text-anchor="middle" x="1972.8" y="-13" font-family="Helvetica,sans-Serif" font-size="10.00">string</text>
</a>
</g>
</g>
<!-- Node12&#45;&gt;Node13 -->
<g id="edge10" class="edge">
<title>Node12&#45;&gt;Node13</title>
<path fill="none" stroke="midnightblue" d="M1329.35,-68.56C1334.23,-68.01 1339.1,-67.48 1343.8,-67 1572.09,-43.77 1847.88,-24.75 1940.62,-18.6"/>
<polygon fill="midnightblue" stroke="midnightblue" points="1941.02,-22.08 1950.76,-17.93 1940.56,-15.09 1941.02,-22.08"/>
</g>
<!-- Node17&#45;&gt;Node3 -->
<g id="edge19" class="edge">
<title>Node17&#45;&gt;Node3</title>
<path fill="none" stroke="midnightblue" d="M1702.04,-779.78C1531.16,-778.57 1060.55,-770.95 913.8,-724 814.77,-692.31 765.43,-691.82 714.8,-601 668.88,-518.63 684.68,-236.01 759.8,-179 812.66,-138.88 1005.56,-133.4 1104.85,-133.33"/>
<polygon fill="midnightblue" stroke="midnightblue" points="1105.02,-136.83 1115.03,-133.34 1105.03,-129.83 1105.02,-136.83"/>
</g>
<!-- Node17&#45;&gt;Node5 -->
<g id="edge17" class="edge">
<title>Node17&#45;&gt;Node5</title>
<path fill="none" stroke="midnightblue" d="M1701.98,-779.66C1457.2,-777.51 580.8,-761.89 580.8,-648 580.8,-648 580.8,-648 580.8,-584.5 580.8,-421.41 404.8,-425.59 404.8,-262.5 404.8,-262.5 404.8,-262.5 404.8,-132 404.8,-61.65 501.1,-32.93 556.58,-22.22"/>
<polygon fill="midnightblue" stroke="midnightblue" points="557.55,-25.6 566.76,-20.36 556.3,-18.71 557.55,-25.6"/>
</g>
<!-- Node17&#45;&gt;Node8 -->
<g id="edge16" class="edge">
<title>Node17&#45;&gt;Node8</title>
<path fill="none" stroke="midnightblue" d="M1827.33,-778.81C2036.89,-774.5 2706.38,-758.18 2796.8,-724 3132.65,-597.04 3407.8,-554.55 3407.8,-195.5 3407.8,-195.5 3407.8,-195.5 3407.8,-132 3407.8,-93.87 3384.94,-85.85 3351.8,-67 3310.43,-43.46 3174.51,-27.18 3106.01,-20.25"/>
<polygon fill="midnightblue" stroke="midnightblue" points="3106.32,-16.76 3096.02,-19.25 3105.63,-23.73 3106.32,-16.76"/>
</g>
<!-- Node17&#45;&gt;Node13 -->
<g id="edge15" class="edge">
<title>Node17&#45;&gt;Node13</title>
<path fill="none" stroke="midnightblue" d="M1827.54,-777.18C1965.45,-769.27 2282.8,-740.98 2282.8,-648 2282.8,-648 2282.8,-648 2282.8,-461.5 2282.8,-357.21 2050.67,-100.19 1988.15,-32.86"/>
<polygon fill="midnightblue" stroke="midnightblue" points="1990.47,-30.22 1981.09,-25.29 1985.35,-34.99 1990.47,-30.22"/>
</g>
<!-- Node18 -->
<g id="node12" class="node">
<title>Node18</title>
<g id="a_node12"><a xlink:title=" ">
<polygon fill="none" stroke="#bfbfbf" points="1386.3,-185 1386.3,-204 1439.3,-204 1439.3,-185 1386.3,-185"/>
<text text-anchor="middle" x="1412.8" y="-192" font-family="Helvetica,sans-Serif" font-size="10.00">cstddef</text>
</a>
</g>
</g>
<!-- Node17&#45;&gt;Node18 -->
<g id="edge18" class="edge">
<title>Node17&#45;&gt;Node18</title>
<path fill="none" stroke="midnightblue" d="M1702.07,-777.13C1517.98,-768.49 990.05,-742.27 957.8,-724 921.97,-703.7 904.8,-689.18 904.8,-648 904.8,-648 904.8,-648 904.8,-584.5 904.8,-517.28 923.35,-497.42 967.8,-447 1042.51,-362.26 1083.38,-364.75 1183.8,-313 1220.63,-294.02 1232.62,-295.29 1269.8,-277 1313.57,-255.47 1362.55,-226.41 1390.33,-209.44"/>
<polygon fill="midnightblue" stroke="midnightblue" points="1392.21,-212.39 1398.9,-204.18 1388.55,-206.43 1392.21,-212.39"/>
</g>
<!-- Node19 -->
<g id="node13" class="node">
<title>Node19</title>
<g id="a_node13"><a xlink:href="../../dd/d5f/serializer_8h.html" target="_top" xlink:title=" ">
<polygon fill="none" stroke="red" points="2374.3,-185 2374.3,-204 2487.3,-204 2487.3,-185 2374.3,-185"/>
<text text-anchor="middle" x="2430.8" y="-192" font-family="Helvetica,sans-Serif" font-size="10.00">includes/serializer.h</text>
</a>
</g>
</g>
<!-- Node17&#45;&gt;Node19 -->
<g id="edge20" class="edge">
<title>Node17&#45;&gt;Node19</title>
<path fill="none" stroke="midnightblue" d="M1827.6,-779.91C2012.86,-779.1 2554.67,-772.51 2723.8,-724 2791.48,-704.59 2862.8,-718.41 2862.8,-648 2862.8,-648 2862.8,-648 2862.8,-584.5 2862.8,-371.33 2568.72,-245.11 2465.83,-207.48"/>
<polygon fill="midnightblue" stroke="midnightblue" points="2466.8,-204.11 2456.21,-204.01 2464.43,-210.69 2466.8,-204.11"/>
</g>
<!-- Node53 -->
<g id="node17" class="node">
<title>Node53</title>
<g id="a_node17"><a xlink:href="../../d1/d8c/logger_8h.html" target="_top" xlink:title=" ">
<polygon fill="none" stroke="red" points="2114.8,-123.5 2114.8,-142.5 2234.8,-142.5 2234.8,-123.5 2114.8,-123.5"/>
<text text-anchor="middle" x="2174.8" y="-130.5" font-family="Helvetica,sans-Serif" font-size="10.00">input_output/logger.h</text>
</a>
</g>
</g>
<!-- Node17&#45;&gt;Node53 -->
<g id="edge121" class="edge">
<title>Node17&#45;&gt;Node53</title>
<path fill="none" stroke="midnightblue" d="M1827.57,-777.5C2033.1,-768.49 2672.8,-733.57 2672.8,-648 2672.8,-648 2672.8,-648 2672.8,-461.5 2672.8,-424.31 2677.72,-408.48 2653.8,-380 2578.61,-290.5 2515.24,-331.45 2411.8,-277 2340.01,-239.21 2327.72,-220.14 2257.8,-179 2238.9,-167.88 2217.1,-156.1 2200.58,-147.38"/>
<polygon fill="midnightblue" stroke="midnightblue" points="2202.01,-144.18 2191.52,-142.63 2198.75,-150.37 2202.01,-144.18"/>
</g>
<!-- Node57 -->
<g id="node18" class="node">
<title>Node57</title>
<g id="a_node18"><a xlink:href="../../de/db8/process__info_8h.html" target="_top" xlink:title=" ">
<polygon fill="none" stroke="red" points="1479.3,-514.5 1479.3,-533.5 1610.3,-533.5 1610.3,-514.5 1479.3,-514.5"/>
<text text-anchor="middle" x="1544.8" y="-521.5" font-family="Helvetica,sans-Serif" font-size="10.00">includes/process_info.h</text>
</a>
</g>
</g>
<!-- Node17&#45;&gt;Node57 -->
<g id="edge32" class="edge">
<title>Node17&#45;&gt;Node57</title>
<path fill="none" stroke="midnightblue" d="M1757.23,-771.22C1725.29,-734.21 1601.34,-590.54 1559.04,-541.51"/>
<polygon fill="midnightblue" stroke="midnightblue" points="1561.52,-539.03 1552.34,-533.74 1556.22,-543.6 1561.52,-539.03"/>
</g>
<!-- Node58 -->
<g id="node19" class="node">
<title>Node58</title>
<g id="a_node19"><a xlink:href="../../d1/d82/data__value__container_8h.html" target="_top" xlink:title=" ">
<polygon fill="none" stroke="red" points="1649.3,-447.5 1649.3,-477.5 1774.3,-477.5 1774.3,-447.5 1649.3,-447.5"/>
<text text-anchor="start" x="1657.3" y="-465.5" font-family="Helvetica,sans-Serif" font-size="10.00">containers/data_value</text>
<text text-anchor="middle" x="1711.8" y="-454.5" font-family="Helvetica,sans-Serif" font-size="10.00">_container.h</text>
</a>
</g>
</g>
<!-- Node17&#45;&gt;Node58 -->
<g id="edge60" class="edge">
<title>Node17&#45;&gt;Node58</title>
<path fill="none" stroke="midnightblue" d="M1765.95,-771.32C1771.15,-730.93 1791.33,-561.29 1769.8,-514 1764.34,-502.01 1754.48,-491.77 1744.42,-483.7"/>
<polygon fill="midnightblue" stroke="midnightblue" points="1746.49,-480.88 1736.39,-477.71 1742.31,-486.49 1746.49,-480.88"/>
</g>
<!-- Node59 -->
<g id="node20" class="node">
<title>Node59</title>
<g id="a_node20"><a xlink:href="../../da/d89/variable_8h.html" target="_top" xlink:title=" ">
<polygon fill="none" stroke="red" points="1911.3,-319 1911.3,-338 2030.3,-338 2030.3,-319 1911.3,-319"/>
<text text-anchor="middle" x="1970.8" y="-326" font-family="Helvetica,sans-Serif" font-size="10.00">containers/variable.h</text>
</a>
</g>
</g>
<!-- Node17&#45;&gt;Node59 -->
<g id="edge124" class="edge">
<title>Node17&#45;&gt;Node59</title>
<path fill="none" stroke="midnightblue" d="M1774.52,-771.2C1785.71,-760.73 1804.15,-742.35 1816.8,-724 1841.29,-688.49 1829.46,-667.65 1859.8,-637 1884.69,-611.85 1910.13,-629.71 1930.8,-601 1987.88,-521.7 1979.18,-395.21 1973.46,-348.03"/>
<polygon fill="midnightblue" stroke="midnightblue" points="1976.92,-347.51 1972.14,-338.05 1969.98,-348.42 1976.92,-347.51"/>
</g>
<!-- Node60 -->
<g id="node21" class="node">
<title>Node60</title>
<g id="a_node21"><a xlink:href="../../d3/dc3/variable__data_8h.html" target="_top" xlink:title=" ">
<polygon fill="none" stroke="red" points="1924.8,-252 1924.8,-271 2016.8,-271 2016.8,-252 1924.8,-252"/>
<text text-anchor="middle" x="1970.8" y="-259" font-family="Helvetica,sans-Serif" font-size="10.00">variable_data.h</text>
</a>
</g>
</g>
<!-- Node17&#45;&gt;Node60 -->
<g id="edge125" class="edge">
<title>Node17&#45;&gt;Node60</title>
<path fill="none" stroke="midnightblue" d="M1768.5,-771.37C1773.11,-760.45 1781.07,-741.03 1786.8,-724 1847.35,-544.12 1795.07,-469.27 1902.8,-313 1913.41,-297.61 1930.26,-285.05 1944.53,-276.3"/>
<polygon fill="midnightblue" stroke="midnightblue" points="1946.56,-279.17 1953.44,-271.12 1943.04,-273.12 1946.56,-279.17"/>
</g>
<!-- Node70 -->
<g id="node23" class="node">
<title>Node70</title>
<g id="a_node23"><a xlink:href="../../d8/d3b/mesh_8h.html" target="_top" xlink:title=" ">
<polygon fill="none" stroke="red" points="1249.8,-637.5 1249.8,-656.5 1345.8,-656.5 1345.8,-637.5 1249.8,-637.5"/>
<text text-anchor="middle" x="1297.8" y="-644.5" font-family="Helvetica,sans-Serif" font-size="10.00">includes/mesh.h</text>
</a>
</g>
</g>
<!-- Node17&#45;&gt;Node70 -->
<g id="edge61" class="edge">
<title>Node17&#45;&gt;Node70</title>
<path fill="none" stroke="midnightblue" d="M1702.15,-778.46C1629.27,-774.8 1506.48,-762.81 1408.8,-724 1371.98,-709.37 1335.22,-680.76 1314.61,-663.12"/>
<polygon fill="midnightblue" stroke="midnightblue" points="1316.88,-660.46 1307.05,-656.52 1312.28,-665.73 1316.88,-660.46"/>
</g>
<!-- Node74 -->
<g id="node24" class="node">
<title>Node74</title>
<g id="a_node24"><a xlink:href="../../d2/d58/pointer__vector__map_8h.html" target="_top" xlink:title=" ">
<polygon fill="none" stroke="red" points="1155.3,-246.5 1155.3,-276.5 1260.3,-276.5 1260.3,-246.5 1155.3,-246.5"/>
<text text-anchor="start" x="1163.3" y="-264.5" font-family="Helvetica,sans-Serif" font-size="10.00">containers/pointer</text>
<text text-anchor="middle" x="1207.8" y="-253.5" font-family="Helvetica,sans-Serif" font-size="10.00">_vector_map.h</text>
</a>
</g>
</g>
<!-- Node17&#45;&gt;Node74 -->
<g id="edge119" class="edge">
<title>Node17&#45;&gt;Node74</title>
<path fill="none" stroke="midnightblue" d="M1702.22,-777.42C1536.36,-770.26 1093.94,-749.05 1032.8,-724 984.35,-704.15 942.8,-700.35 942.8,-648 942.8,-648 942.8,-648 942.8,-584.5 942.8,-440.43 1102.91,-325.78 1174.23,-281.86"/>
<polygon fill="midnightblue" stroke="midnightblue" points="1176.13,-284.8 1182.87,-276.62 1172.5,-278.81 1176.13,-284.8"/>
</g>
<!-- Node87 -->
<g id="node25" class="node">
<title>Node87</title>
<g id="a_node25"><a xlink:href="../../da/da4/master__slave__constraint_8h.html" target="_top" xlink:title=" ">
<polygon fill="none" stroke="red" points="1344.8,-570.5 1344.8,-600.5 1470.8,-600.5 1470.8,-570.5 1344.8,-570.5"/>
<text text-anchor="start" x="1352.8" y="-588.5" font-family="Helvetica,sans-Serif" font-size="10.00">includes/master_slave</text>
<text text-anchor="middle" x="1407.8" y="-577.5" font-family="Helvetica,sans-Serif" font-size="10.00">_constraint.h</text>
</a>
</g>
</g>
<!-- Node17&#45;&gt;Node87 -->
<g id="edge123" class="edge">
<title>Node17&#45;&gt;Node87</title>
<path fill="none" stroke="midnightblue" d="M1702.14,-775.77C1623.59,-769.27 1494.84,-754.25 1458.8,-724 1424.78,-695.45 1413.44,-641.97 1409.67,-610.79"/>
<polygon fill="midnightblue" stroke="midnightblue" points="1413.15,-610.35 1408.63,-600.76 1406.18,-611.07 1413.15,-610.35"/>
</g>
<!-- Node99 -->
<g id="node28" class="node">
<title>Node99</title>
<g id="a_node28"><a xlink:href="../../d0/dac/kratos__flags_8h.html" target="_top" xlink:title=" ">
<polygon fill="none" stroke="red" points="970.8,-514.5 970.8,-533.5 1098.8,-533.5 1098.8,-514.5 970.8,-514.5"/>
<text text-anchor="middle" x="1034.8" y="-521.5" font-family="Helvetica,sans-Serif" font-size="10.00">includes/kratos_flags.h</text>
</a>
</g>
</g>
<!-- Node17&#45;&gt;Node99 -->
<g id="edge122" class="edge">
<title>Node17&#45;&gt;Node99</title>
<path fill="none" stroke="midnightblue" d="M1702.08,-777.17C1533.52,-769.27 1081.86,-746.14 1058.8,-724 1009.11,-676.3 1021.91,-583.4 1030.27,-543.71"/>
<polygon fill="midnightblue" stroke="midnightblue" points="1033.72,-544.33 1032.51,-533.81 1026.89,-542.79 1033.72,-544.33"/>
</g>
<!-- Node100 -->
<g id="node29" class="node">
<title>Node100</title>
<g id="a_node29"><a xlink:href="../../d3/dad/geometry__container_8h.html" target="_top" xlink:title=" ">
<polygon fill="none" stroke="black" points="1192.8,-313.5 1192.8,-343.5 1310.8,-343.5 1310.8,-313.5 1192.8,-313.5"/>
<text text-anchor="start" x="1200.8" y="-331.5" font-family="Helvetica,sans-Serif" font-size="10.00">containers/geometry</text>
<text text-anchor="middle" x="1251.8" y="-320.5" font-family="Helvetica,sans-Serif" font-size="10.00">_container.h</text>
</a>
</g>
</g>
<!-- Node17&#45;&gt;Node100 -->
<g id="edge92" class="edge">
<title>Node17&#45;&gt;Node100</title>
<path fill="none" stroke="midnightblue" d="M1702.09,-779.56C1619.13,-777.19 1469.46,-766.68 1349.8,-724 1296.24,-704.9 1268.55,-706.63 1240.8,-657 1184.61,-556.5 1224.15,-410.2 1243.17,-353.34"/>
<polygon fill="midnightblue" stroke="midnightblue" points="1246.51,-354.39 1246.45,-343.8 1239.89,-352.11 1246.51,-354.39"/>
</g>
<!-- Node101 -->
<g id="node30" class="node">
<title>Node101</title>
<g id="a_node30"><a xlink:href="../../da/d92/pointer__hash__map__set_8h.html" target="_top" xlink:title=" ">
<polygon fill="none" stroke="red" points="2420.3,-246.5 2420.3,-276.5 2525.3,-276.5 2525.3,-246.5 2420.3,-246.5"/>
<text text-anchor="start" x="2428.3" y="-264.5" font-family="Helvetica,sans-Serif" font-size="10.00">containers/pointer</text>
<text text-anchor="middle" x="2472.8" y="-253.5" font-family="Helvetica,sans-Serif" font-size="10.00">_hash_map_set.h</text>
</a>
</g>
</g>
<!-- Node17&#45;&gt;Node101 -->
<g id="edge120" class="edge">
<title>Node17&#45;&gt;Node101</title>
<path fill="none" stroke="midnightblue" d="M1827.32,-779.09C2022.3,-775.87 2610.76,-762.97 2686.8,-724 2725.59,-704.12 2748.8,-691.59 2748.8,-648 2748.8,-648 2748.8,-648 2748.8,-461.5 2748.8,-356.77 2616.42,-301.65 2535.02,-277.67"/>
<polygon fill="midnightblue" stroke="midnightblue" points="2535.94,-274.29 2525.36,-274.89 2534.01,-281.02 2535.94,-274.29"/>
</g>
<!-- Node102 -->
<g id="node31" class="node">
<title>Node102</title>
<g id="a_node31"><a xlink:href="../../d4/dfe/element_8h.html" target="_top" xlink:title=" ">
<polygon fill="none" stroke="red" points="2000.8,-637.5 2000.8,-656.5 2110.8,-656.5 2110.8,-637.5 2000.8,-637.5"/>
<text text-anchor="middle" x="2055.8" y="-644.5" font-family="Helvetica,sans-Serif" font-size="10.00">includes/element.h</text>
</a>
</g>
</g>
<!-- Node17&#45;&gt;Node102 -->
<g id="edge98" class="edge">
<title>Node17&#45;&gt;Node102</title>
<path fill="none" stroke="midnightblue" d="M1783.89,-771.34C1833.86,-748.68 1968.65,-687.53 2027.58,-660.8"/>
<polygon fill="midnightblue" stroke="midnightblue" points="2029.35,-663.84 2037.01,-656.52 2026.46,-657.46 2029.35,-663.84"/>
</g>
<!-- Node119 -->
<g id="node32" class="node">
<title>Node119</title>
<g id="a_node32"><a xlink:href="../../d7/d6c/condition_8h.html" target="_top" xlink:title=" ">
<polygon fill="none" stroke="red" points="1868.8,-637.5 1868.8,-656.5 1982.8,-656.5 1982.8,-637.5 1868.8,-637.5"/>
<text text-anchor="middle" x="1925.8" y="-644.5" font-family="Helvetica,sans-Serif" font-size="10.00">includes/condition.h</text>
</a>
</g>
</g>
<!-- Node17&#45;&gt;Node119 -->
<g id="edge101" class="edge">
<title>Node17&#45;&gt;Node119</title>
<path fill="none" stroke="midnightblue" d="M1781.26,-771.48C1799.99,-761.4 1831.06,-743.51 1854.8,-724 1876.93,-705.81 1898.89,-680.98 1912.4,-664.73"/>
<polygon fill="midnightblue" stroke="midnightblue" points="1915.36,-666.63 1918.98,-656.68 1909.94,-662.2 1915.36,-666.63"/>
</g>
<!-- Node120 -->
<g id="node33" class="node">
<title>Node120</title>
<g id="a_node33"><a xlink:href="../../d8/d75/communicator_8h.html" target="_top" xlink:title=" ">
<polygon fill="none" stroke="black" points="1467.3,-699 1467.3,-718 1606.3,-718 1606.3,-699 1467.3,-699"/>
<text text-anchor="middle" x="1536.8" y="-706" font-family="Helvetica,sans-Serif" font-size="10.00">includes/communicator.h</text>
</a>
</g>
</g>
<!-- Node17&#45;&gt;Node120 -->
<g id="edge104" class="edge">
<title>Node17&#45;&gt;Node120</title>
<path fill="none" stroke="midnightblue" d="M1737.3,-771.5C1696.56,-758.9 1620.06,-735.24 1574.24,-721.08"/>
<polygon fill="midnightblue" stroke="midnightblue" points="1574.99,-717.64 1564.4,-718.03 1572.92,-724.33 1574.99,-717.64"/>
</g>
<!-- Node104 -->
<g id="node34" class="node">
<title>Node104</title>
<g id="a_node34"><a xlink:href="../../dd/d98/table_8h.html" target="_top" xlink:title=" ">
<polygon fill="none" stroke="black" points="2310.8,-386 2310.8,-405 2404.8,-405 2404.8,-386 2310.8,-386"/>
<text text-anchor="middle" x="2357.8" y="-393" font-family="Helvetica,sans-Serif" font-size="10.00">includes/table.h</text>
</a>
</g>
</g>
<!-- Node17&#45;&gt;Node104 -->
<g id="edge113" class="edge">
<title>Node17&#45;&gt;Node104</title>
<path fill="none" stroke="midnightblue" d="M1827.45,-779.31C1950.17,-777.02 2217.15,-767.07 2296.8,-724 2335.14,-703.27 2358.8,-691.59 2358.8,-648 2358.8,-648 2358.8,-648 2358.8,-523 2358.8,-484.7 2358.34,-439.88 2358.04,-415.2"/>
<polygon fill="midnightblue" stroke="midnightblue" points="2361.54,-415.05 2357.91,-405.09 2354.54,-415.13 2361.54,-415.05"/>
</g>
<!-- Node19&#45;&gt;Node3 -->
<g id="edge27" class="edge">
<title>Node19&#45;&gt;Node3</title>
<path fill="none" stroke="midnightblue" d="M2394.87,-184.97C2383.69,-182.64 2371.29,-180.38 2359.8,-179 2136.44,-152.17 1434.86,-138.52 1224.8,-134.96"/>
<polygon fill="midnightblue" stroke="midnightblue" points="1224.65,-131.46 1214.59,-134.79 1224.53,-138.45 1224.65,-131.46"/>
</g>
<!-- Node19&#45;&gt;Node5 -->
<g id="edge25" class="edge">
<title>Node19&#45;&gt;Node5</title>
<path fill="none" stroke="midnightblue" d="M2374.13,-186.08C2354.7,-183.65 2332.82,-181.06 2312.8,-179 1820.81,-128.39 1695.96,-135.89 1203.8,-87 987.63,-65.53 729.05,-33.48 633.09,-21.37"/>
<polygon fill="midnightblue" stroke="midnightblue" points="633.35,-17.88 622.99,-20.09 632.48,-24.82 633.35,-17.88"/>
</g>
<!-- Node19&#45;&gt;Node8 -->
<g id="edge22" class="edge">
<title>Node19&#45;&gt;Node8</title>
<path fill="none" stroke="midnightblue" d="M2393.44,-184.92C2352.52,-173.82 2295.81,-152.37 2320.8,-123 2367.05,-68.64 2877.1,-29.49 3025.51,-19.19"/>
<polygon fill="midnightblue" stroke="midnightblue" points="3025.83,-22.67 3035.56,-18.49 3025.35,-15.69 3025.83,-22.67"/>
</g>
<!-- Node19&#45;&gt;Node13 -->
<g id="edge21" class="edge">
<title>Node19&#45;&gt;Node13</title>
<path fill="none" stroke="midnightblue" d="M2403.67,-184.96C2374.47,-175.55 2326.84,-159.53 2286.8,-143 2250.6,-128.05 2164.16,-81.54 2127.8,-67 2086.13,-50.34 2036.61,-34.94 2004.95,-25.63"/>
<polygon fill="midnightblue" stroke="midnightblue" points="2005.52,-22.15 1994.94,-22.72 2003.56,-28.88 2005.52,-22.15"/>
</g>
<!-- Node21 -->
<g id="node14" class="node">
<title>Node21</title>
<g id="a_node14"><a xlink:title=" ">
<polygon fill="none" stroke="#bfbfbf" points="2513.8,-123.5 2513.8,-142.5 2551.8,-142.5 2551.8,-123.5 2513.8,-123.5"/>
<text text-anchor="middle" x="2532.8" y="-130.5" font-family="Helvetica,sans-Serif" font-size="10.00">map</text>
</a>
</g>
</g>
<!-- Node19&#45;&gt;Node21 -->
<g id="edge23" class="edge">
<title>Node19&#45;&gt;Node21</title>
<path fill="none" stroke="midnightblue" d="M2445.41,-184.98C2462.15,-175.21 2489.8,-159.08 2509.52,-147.58"/>
<polygon fill="midnightblue" stroke="midnightblue" points="2511.34,-150.57 2518.21,-142.51 2507.81,-144.52 2511.34,-150.57"/>
</g>
<!-- Node22 -->
<g id="node15" class="node">
<title>Node22</title>
<g id="a_node15"><a xlink:title=" ">
<polygon fill="none" stroke="#bfbfbf" points="2329.3,-123.5 2329.3,-142.5 2422.3,-142.5 2422.3,-123.5 2329.3,-123.5"/>
<text text-anchor="middle" x="2375.8" y="-130.5" font-family="Helvetica,sans-Serif" font-size="10.00">unordered_map</text>
</a>
</g>
</g>
<!-- Node19&#45;&gt;Node22 -->
<g id="edge24" class="edge">
<title>Node19&#45;&gt;Node22</title>
<path fill="none" stroke="midnightblue" d="M2422.92,-184.98C2414.51,-175.87 2400.98,-161.24 2390.57,-149.98"/>
<polygon fill="midnightblue" stroke="midnightblue" points="2393.02,-147.48 2383.67,-142.51 2387.88,-152.23 2393.02,-147.48"/>
</g>
<!-- Node25 -->
<g id="node16" class="node">
<title>Node25</title>
<g id="a_node16"><a xlink:title=" ">
<polygon fill="none" stroke="#bfbfbf" points="2440.3,-123.5 2440.3,-142.5 2495.3,-142.5 2495.3,-123.5 2440.3,-123.5"/>
<text text-anchor="middle" x="2467.8" y="-130.5" font-family="Helvetica,sans-Serif" font-size="10.00">fstream</text>
</a>
</g>
</g>
<!-- Node19&#45;&gt;Node25 -->
<g id="edge26" class="edge">
<title>Node19&#45;&gt;Node25</title>
<path fill="none" stroke="midnightblue" d="M2436.1,-184.98C2441.54,-176.23 2450.16,-162.37 2457.04,-151.31"/>
<polygon fill="midnightblue" stroke="midnightblue" points="2460.2,-152.85 2462.51,-142.51 2454.26,-149.15 2460.2,-152.85"/>
</g>
<!-- Node19&#45;&gt;Node53 -->
<g id="edge28" class="edge">
<title>Node19&#45;&gt;Node53</title>
<path fill="none" stroke="midnightblue" d="M2394.12,-184.98C2348.59,-174.39 2270.9,-156.34 2221.25,-144.8"/>
<polygon fill="midnightblue" stroke="midnightblue" points="2221.94,-141.36 2211.41,-142.51 2220.36,-148.18 2221.94,-141.36"/>
</g>
<!-- Node53&#45;&gt;Node8 -->
<g id="edge30" class="edge">
<title>Node53&#45;&gt;Node8</title>
<path fill="none" stroke="midnightblue" d="M2185.75,-123.28C2204.92,-108.59 2246.36,-79.3 2286.8,-67 2426.91,-24.38 2885.65,-17.73 3025.18,-16.69"/>
<polygon fill="midnightblue" stroke="midnightblue" points="3025.44,-20.19 3035.42,-16.62 3025.4,-13.19 3025.44,-20.19"/>
</g>
<!-- Node53&#45;&gt;Node12 -->
<g id="edge31" class="edge">
<title>Node53&#45;&gt;Node12</title>
<path fill="none" stroke="midnightblue" d="M2114.78,-129.18C1981.91,-122.8 1652.91,-106.33 1377.8,-87 1365.4,-86.13 1352.2,-85.1 1339.46,-84.06"/>
<polygon fill="midnightblue" stroke="midnightblue" points="1339.62,-80.56 1329.37,-83.22 1339.04,-87.53 1339.62,-80.56"/>
</g>
<!-- Node53&#45;&gt;Node13 -->
<g id="edge29" class="edge">
<title>Node53&#45;&gt;Node13</title>
<path fill="none" stroke="midnightblue" d="M2166.9,-123.36C2154.13,-109.8 2127.65,-83.4 2100.8,-67 2070.25,-48.34 2031.6,-34.22 2004.81,-25.72"/>
<polygon fill="midnightblue" stroke="midnightblue" points="2005.75,-22.35 1995.16,-22.74 2003.68,-29.04 2005.75,-22.35"/>
</g>
<!-- Node57&#45;&gt;Node3 -->
<g id="edge37" class="edge">
<title>Node57&#45;&gt;Node3</title>
<path fill="none" stroke="midnightblue" d="M1479.01,-516.59C1359.98,-500.84 1114.02,-448.03 1036.8,-277 1018.88,-237.3 1011.62,-214.54 1036.8,-179 1052.43,-156.94 1079.77,-145.62 1105.18,-139.83"/>
<polygon fill="midnightblue" stroke="midnightblue" points="1106.06,-143.23 1115.16,-137.81 1104.67,-136.37 1106.06,-143.23"/>
</g>
<!-- Node57&#45;&gt;Node5 -->
<g id="edge35" class="edge">
<title>Node57&#45;&gt;Node5</title>
<path fill="none" stroke="midnightblue" d="M1479.15,-521.26C1330.78,-514.85 961.75,-484.79 694.8,-344 625.64,-307.52 600.75,-285.6 580.8,-210 564.59,-148.55 572.23,-129.98 580.8,-67 582.28,-56.13 585.47,-44.29 588.44,-34.81"/>
<polygon fill="midnightblue" stroke="midnightblue" points="591.77,-35.88 591.58,-25.29 585.12,-33.69 591.77,-35.88"/>
</g>
<!-- Node57&#45;&gt;Node8 -->
<g id="edge34" class="edge">
<title>Node57&#45;&gt;Node8</title>
<path fill="none" stroke="midnightblue" d="M1610.5,-517.75C1626.32,-516.5 1643.16,-515.19 1658.8,-514 1876.98,-497.39 1932.14,-500.43 2149.8,-478 2201.12,-472.71 3023.74,-369.13 3068.8,-344 3166.6,-289.46 3205.33,-233.9 3189.8,-123 3186.21,-97.37 3190.59,-86.7 3173.8,-67 3156.37,-46.55 3128.85,-33.86 3105.96,-26.31"/>
<polygon fill="midnightblue" stroke="midnightblue" points="3106.73,-22.89 3096.14,-23.29 3104.67,-29.58 3106.73,-22.89"/>
</g>
<!-- Node57&#45;&gt;Node13 -->
<g id="edge33" class="edge">
<title>Node57&#45;&gt;Node13</title>
<path fill="none" stroke="midnightblue" d="M1555.01,-514.3C1589.13,-484.7 1700.33,-383.74 1758.8,-277 1776.94,-243.88 1782.8,-233.26 1782.8,-195.5 1782.8,-195.5 1782.8,-195.5 1782.8,-132 1782.8,-59.08 1886.26,-30.88 1940.49,-21.12"/>
<polygon fill="midnightblue" stroke="midnightblue" points="1941.36,-24.52 1950.63,-19.4 1940.19,-17.62 1941.36,-24.52"/>
</g>
<!-- Node57&#45;&gt;Node18 -->
<g id="edge36" class="edge">
<title>Node57&#45;&gt;Node18</title>
<path fill="none" stroke="midnightblue" d="M1531.98,-514.38C1508.41,-497.68 1458.78,-458.36 1438.8,-411 1410.13,-343.03 1410.1,-253.01 1411.68,-214.4"/>
<polygon fill="midnightblue" stroke="midnightblue" points="1415.19,-214.31 1412.19,-204.15 1408.19,-213.96 1415.19,-214.31"/>
</g>
<!-- Node57&#45;&gt;Node58 -->
<g id="edge38" class="edge">
<title>Node57&#45;&gt;Node58</title>
<path fill="none" stroke="midnightblue" d="M1568.73,-514.48C1593.14,-505.78 1631.73,-492.03 1662.69,-481"/>
<polygon fill="midnightblue" stroke="midnightblue" points="1664.2,-484.18 1672.44,-477.52 1661.85,-477.58 1664.2,-484.18"/>
</g>
<!-- Node58&#45;&gt;Node3 -->
<g id="edge42" class="edge">
<title>Node58&#45;&gt;Node3</title>
<path fill="none" stroke="midnightblue" d="M1649.14,-448.74C1513.58,-420.97 1203.59,-356.54 1183.8,-344 1151.96,-323.82 1144.01,-312.66 1131.8,-277 1127.52,-264.49 1125.08,-202.57 1132.8,-179 1136.22,-168.56 1142.99,-158.46 1149.42,-150.47"/>
<polygon fill="midnightblue" stroke="midnightblue" points="1152.22,-152.59 1156.1,-142.73 1146.92,-148.02 1152.22,-152.59"/>
</g>
<!-- Node58&#45;&gt;Node8 -->
<g id="edge40" class="edge">
<title>Node58&#45;&gt;Node8</title>
<path fill="none" stroke="midnightblue" d="M1774.41,-458.14C1941.06,-449.03 2384.75,-423.73 2413.8,-411 2432.23,-402.92 2429.17,-389.7 2446.8,-380 2503.09,-349.03 2525.85,-364.32 2586.8,-344 2621.02,-332.59 2626.9,-322.09 2661.8,-313 2793.46,-278.69 2840.54,-330.12 2965.8,-277 2985.87,-268.49 2986.01,-258.59 3003.8,-246 3028.87,-228.25 3044.22,-234.46 3062.8,-210 3101.74,-158.74 3097.86,-130.23 3085.8,-67 3083.64,-55.71 3079.01,-43.72 3074.74,-34.26"/>
<polygon fill="midnightblue" stroke="midnightblue" points="3077.85,-32.65 3070.39,-25.13 3071.53,-35.67 3077.85,-32.65"/>
</g>
<!-- Node58&#45;&gt;Node12 -->
<g id="edge59" class="edge">
<title>Node58&#45;&gt;Node12</title>
<path fill="none" stroke="midnightblue" d="M1706.45,-447.24C1688.65,-401.64 1627.05,-257.75 1530.8,-179 1470.16,-129.39 1382.33,-102.14 1325.89,-88.81"/>
<polygon fill="midnightblue" stroke="midnightblue" points="1326.6,-85.38 1316.07,-86.56 1325.04,-92.21 1326.6,-85.38"/>
</g>
<!-- Node58&#45;&gt;Node13 -->
<g id="edge39" class="edge">
<title>Node58&#45;&gt;Node13</title>
<path fill="none" stroke="midnightblue" d="M1716.57,-447.45C1722.27,-431.04 1732.36,-403.19 1742.8,-380 1764.03,-332.87 1778.89,-325.49 1796.8,-277 1829.97,-187.19 1782.4,-139.61 1844.8,-67 1869.07,-38.76 1911.23,-26.19 1940.5,-20.67"/>
<polygon fill="midnightblue" stroke="midnightblue" points="1941.38,-24.07 1950.65,-18.94 1940.2,-17.17 1941.38,-24.07"/>
</g>
<!-- Node58&#45;&gt;Node18 -->
<g id="edge41" class="edge">
<title>Node58&#45;&gt;Node18</title>
<path fill="none" stroke="midnightblue" d="M1695.72,-447.2C1644.14,-401.31 1483.07,-258.02 1429.97,-210.78"/>
<polygon fill="midnightblue" stroke="midnightblue" points="1432.21,-208.08 1422.41,-204.05 1427.55,-213.31 1432.21,-208.08"/>
</g>
<!-- Node58&#45;&gt;Node59 -->
<g id="edge43" class="edge">
<title>Node58&#45;&gt;Node59</title>
<path fill="none" stroke="midnightblue" d="M1739.52,-447.37C1789.92,-421.68 1895.9,-367.67 1944.92,-342.69"/>
<polygon fill="midnightblue" stroke="midnightblue" points="1946.61,-345.76 1953.93,-338.1 1943.43,-339.52 1946.61,-345.76"/>
</g>
<!-- Node62 -->
<g id="node22" class="node">
<title>Node62</title>
<g id="a_node22"><a xlink:href="../../dc/d8e/kratos__components_8h.html" target="_top" xlink:title=" ">
<polygon fill="none" stroke="red" points="2051.3,-386 2051.3,-405 2216.3,-405 2216.3,-386 2051.3,-386"/>
<text text-anchor="middle" x="2133.8" y="-393" font-family="Helvetica,sans-Serif" font-size="10.00">includes/kratos_components.h</text>
</a>
</g>
</g>
<!-- Node58&#45;&gt;Node62 -->
<g id="edge53" class="edge">
<title>Node58&#45;&gt;Node62</title>
<path fill="none" stroke="midnightblue" d="M1774.52,-451.84C1853.46,-439.68 1988.38,-418.9 2068.51,-406.56"/>
<polygon fill="midnightblue" stroke="midnightblue" points="2069.13,-410 2078.48,-405.02 2068.06,-403.08 2069.13,-410"/>
</g>
<!-- Node59&#45;&gt;Node3 -->
<g id="edge46" class="edge">
<title>Node59&#45;&gt;Node3</title>
<path fill="none" stroke="midnightblue" d="M1950.53,-318.83C1879.29,-288.43 1642.73,-187.96 1606.8,-179 1472.85,-145.59 1310.16,-136.9 1224.38,-134.7"/>
<polygon fill="midnightblue" stroke="midnightblue" points="1224.39,-131.2 1214.31,-134.46 1224.23,-138.19 1224.39,-131.2"/>
</g>
<!-- Node59&#45;&gt;Node8 -->
<g id="edge45" class="edge">
<title>Node59&#45;&gt;Node8</title>
<path fill="none" stroke="midnightblue" d="M2030.6,-322.68C2155.09,-312.55 2438.47,-289.02 2534.8,-277 2721.5,-253.71 2804.54,-325.84 2952.8,-210 3007.25,-167.46 2974.69,-123.96 3013.8,-67 3022.99,-53.61 3036.14,-40.88 3046.91,-31.55"/>
<polygon fill="midnightblue" stroke="midnightblue" points="3049.16,-34.23 3054.58,-25.13 3044.67,-28.87 3049.16,-34.23"/>
</g>
<!-- Node59&#45;&gt;Node13 -->
<g id="edge44" class="edge">
<title>Node59&#45;&gt;Node13</title>
<path fill="none" stroke="midnightblue" d="M1985.7,-318.88C1999.02,-310.22 2017.66,-295.51 2025.8,-277 2050.72,-220.28 1960.75,-149.57 1958.8,-143 1947.74,-105.73 1958.5,-59.93 1966.31,-34.93"/>
<polygon fill="midnightblue" stroke="midnightblue" points="1969.68,-35.89 1969.5,-25.3 1963.03,-33.69 1969.68,-35.89"/>
</g>
<!-- Node59&#45;&gt;Node60 -->
<g id="edge47" class="edge">
<title>Node59&#45;&gt;Node60</title>
<path fill="none" stroke="midnightblue" d="M1970.8,-318.73C1970.8,-309.18 1970.8,-293.62 1970.8,-281.28"/>
<polygon fill="midnightblue" stroke="midnightblue" points="1974.3,-281.13 1970.8,-271.13 1967.3,-281.13 1974.3,-281.13"/>
</g>
<!-- Node60&#45;&gt;Node3 -->
<g id="edge51" class="edge">
<title>Node60&#45;&gt;Node3</title>
<path fill="none" stroke="midnightblue" d="M1950.17,-251.94C1907.96,-234.83 1808.3,-196.55 1720.8,-179 1542.71,-143.28 1327.13,-135.75 1224.58,-134.27"/>
<polygon fill="midnightblue" stroke="midnightblue" points="1224.47,-130.77 1214.43,-134.14 1224.38,-137.77 1224.47,-130.77"/>
</g>
<!-- Node60&#45;&gt;Node8 -->
<g id="edge49" class="edge">
<title>Node60&#45;&gt;Node8</title>
<path fill="none" stroke="midnightblue" d="M2016.94,-258.77C2205.62,-251.59 2909.45,-223.94 2927.8,-210 2981.18,-169.44 2933.04,-118.63 2975.8,-67 2990.1,-49.73 3011.94,-37.27 3030.52,-29.05"/>
<polygon fill="midnightblue" stroke="midnightblue" points="3032.01,-32.22 3039.88,-25.14 3029.31,-25.77 3032.01,-32.22"/>
</g>
<!-- Node60&#45;&gt;Node13 -->
<g id="edge48" class="edge">
<title>Node60&#45;&gt;Node13</title>
<path fill="none" stroke="midnightblue" d="M1964.61,-251.72C1945.74,-223.82 1892.02,-135.07 1920.8,-67 1926.89,-52.59 1939.33,-40.27 1950.51,-31.4"/>
<polygon fill="midnightblue" stroke="midnightblue" points="1952.76,-34.09 1958.69,-25.32 1948.58,-28.48 1952.76,-34.09"/>
</g>
<!-- Node60&#45;&gt;Node18 -->
<g id="edge50" class="edge">
<title>Node60&#45;&gt;Node18</title>
<path fill="none" stroke="midnightblue" d="M1924.66,-255.13C1816.33,-242.51 1547.47,-211.19 1449.37,-199.76"/>
<polygon fill="midnightblue" stroke="midnightblue" points="1449.68,-196.27 1439.34,-198.59 1448.87,-203.23 1449.68,-196.27"/>
</g>
<!-- Node60&#45;&gt;Node19 -->
<g id="edge52" class="edge">
<title>Node60&#45;&gt;Node19</title>
<path fill="none" stroke="midnightblue" d="M2017.01,-253.97C2098.9,-242.4 2269.71,-218.26 2364.26,-204.9"/>
<polygon fill="midnightblue" stroke="midnightblue" points="2364.87,-208.35 2374.29,-203.49 2363.89,-201.42 2364.87,-208.35"/>
</g>
<!-- Node62&#45;&gt;Node3 -->
<g id="edge57" class="edge">
<title>Node62&#45;&gt;Node3</title>
<path fill="none" stroke="midnightblue" d="M2125,-385.99C2105.47,-367.26 2058.77,-323.33 2039.8,-313 1989.39,-285.57 1970.41,-294.64 1915.8,-277 1876.74,-264.38 1867.61,-259.38 1828.8,-246 1780.97,-229.51 1767.54,-229.36 1720.8,-210 1692.34,-198.21 1688.43,-187.43 1658.8,-179 1578.78,-156.23 1338.14,-142.2 1224.92,-136.68"/>
<polygon fill="midnightblue" stroke="midnightblue" points="1224.86,-133.18 1214.7,-136.19 1224.52,-140.17 1224.86,-133.18"/>
</g>
<!-- Node62&#45;&gt;Node8 -->
<g id="edge55" class="edge">
<title>Node62&#45;&gt;Node8</title>
<path fill="none" stroke="midnightblue" d="M2170.14,-385.95C2236.96,-370.36 2383.96,-336.76 2508.8,-313 2614.05,-292.97 2898.32,-279.57 2979.8,-210 3034.76,-163.07 3056.03,-74.11 3062.93,-35.34"/>
<polygon fill="midnightblue" stroke="midnightblue" points="3066.4,-35.86 3064.58,-25.42 3059.49,-34.71 3066.4,-35.86"/>
</g>
<!-- Node62&#45;&gt;Node13 -->
<g id="edge54" class="edge">
<title>Node62&#45;&gt;Node13</title>
<path fill="none" stroke="midnightblue" d="M2129.15,-385.86C2113.44,-356.7 2060.86,-259.23 2016.8,-179 2007.99,-162.96 2003.03,-160.21 1996.8,-143 1983.47,-106.17 1977.14,-60.48 1974.48,-35.33"/>
<polygon fill="midnightblue" stroke="midnightblue" points="1977.93,-34.65 1973.47,-25.03 1970.96,-35.33 1977.93,-34.65"/>
</g>
<!-- Node62&#45;&gt;Node21 -->
<g id="edge56" class="edge">
<title>Node62&#45;&gt;Node21</title>
<path fill="none" stroke="midnightblue" d="M2133.57,-385.93C2133.64,-368.98 2136.44,-331.24 2158.8,-313 2223.84,-259.94 2478.35,-339.12 2534.8,-277 2565.88,-242.8 2550.71,-182.73 2540.11,-152.49"/>
<polygon fill="midnightblue" stroke="midnightblue" points="2543.27,-150.96 2536.51,-142.81 2536.71,-153.4 2543.27,-150.96"/>
</g>
<!-- Node62&#45;&gt;Node59 -->
<g id="edge58" class="edge">
<title>Node62&#45;&gt;Node59</title>
<path fill="none" stroke="midnightblue" d="M2112.15,-385.87C2083.82,-374.57 2033.98,-354.7 2001.69,-341.82"/>
<polygon fill="midnightblue" stroke="midnightblue" points="2002.86,-338.52 1992.27,-338.06 2000.27,-345.02 2002.86,-338.52"/>
</g>
<!-- Node70&#45;&gt;Node3 -->
<g id="edge66" class="edge">
<title>Node70&#45;&gt;Node3</title>
<path fill="none" stroke="midnightblue" d="M1249.52,-641.57C1142.87,-628.76 890.2,-580.89 808.8,-411 763.65,-316.77 768.08,-247.7 846.8,-179 884.27,-146.3 1023.9,-137.32 1105.15,-134.88"/>
<polygon fill="midnightblue" stroke="midnightblue" points="1105.34,-138.38 1115.24,-134.61 1105.14,-131.38 1105.34,-138.38"/>
</g>
<!-- Node70&#45;&gt;Node5 -->
<g id="edge64" class="edge">
<title>Node70&#45;&gt;Node5</title>
<path fill="none" stroke="midnightblue" d="M1249.66,-644.84C1118.14,-641.32 759.57,-629.21 714.8,-601 670.79,-573.27 480.8,-247.52 480.8,-195.5 480.8,-195.5 480.8,-195.5 480.8,-132 480.8,-83.2 532.99,-47.56 566.75,-29.61"/>
<polygon fill="midnightblue" stroke="midnightblue" points="568.41,-32.69 575.72,-25.02 565.22,-26.46 568.41,-32.69"/>
</g>
<!-- Node70&#45;&gt;Node8 -->
<g id="edge63" class="edge">
<title>Node70&#45;&gt;Node8</title>
<path fill="none" stroke="midnightblue" d="M1345.96,-644.92C1579.02,-639.62 2581.34,-616.04 2645.8,-601 2716.11,-584.59 2728.37,-564.54 2793.8,-534 2921.79,-474.25 3331.8,-336.75 3331.8,-195.5 3331.8,-195.5 3331.8,-195.5 3331.8,-132 3331.8,-34.95 3180.97,-18.57 3106.47,-16.4"/>
<polygon fill="midnightblue" stroke="midnightblue" points="3106.13,-12.89 3096.05,-16.17 3105.98,-19.89 3106.13,-12.89"/>
</g>
<!-- Node70&#45;&gt;Node13 -->
<g id="edge62" class="edge">
<title>Node70&#45;&gt;Node13</title>
<path fill="none" stroke="midnightblue" d="M1297.81,-637.19C1298.13,-622.62 1300.04,-592.85 1309.8,-570 1420.17,-311.6 1453.14,-213.68 1692.8,-67 1734.11,-41.72 1876.41,-25.54 1940.75,-19.35"/>
<polygon fill="midnightblue" stroke="midnightblue" points="1941.12,-22.83 1950.74,-18.41 1940.46,-15.86 1941.12,-22.83"/>
</g>
<!-- Node70&#45;&gt;Node18 -->
<g id="edge65" class="edge">
<title>Node70&#45;&gt;Node18</title>
<path fill="none" stroke="midnightblue" d="M1288.78,-637.34C1280.73,-628.93 1269.5,-615.36 1264.8,-601 1243.5,-535.95 1248.18,-513.4 1264.8,-447 1277.4,-396.66 1299.67,-391.83 1319.8,-344 1337.52,-301.9 1325.13,-283.79 1350.8,-246 1360.82,-231.26 1376.38,-218.6 1389.4,-209.65"/>
<polygon fill="midnightblue" stroke="midnightblue" points="1391.48,-212.47 1397.92,-204.06 1387.64,-206.62 1391.48,-212.47"/>
</g>
<!-- Node70&#45;&gt;Node58 -->
<g id="edge73" class="edge">
<title>Node70&#45;&gt;Node58</title>
<path fill="none" stroke="midnightblue" d="M1299.99,-637.26C1304.29,-621.72 1315.29,-589.11 1335.8,-570 1419.3,-492.18 1555.43,-470.65 1638.96,-465.03"/>
<polygon fill="midnightblue" stroke="midnightblue" points="1639.36,-468.51 1649.13,-464.41 1638.94,-461.53 1639.36,-468.51"/>
</g>
<!-- Node70&#45;&gt;Node74 -->
<g id="edge67" class="edge">
<title>Node70&#45;&gt;Node74</title>
<path fill="none" stroke="midnightblue" d="M1275.42,-637.49C1259.38,-630.23 1238.61,-618.2 1226.8,-601 1161.25,-505.53 1188.11,-459.73 1183.8,-344 1183.29,-330.23 1180.77,-326.44 1183.8,-313 1185.89,-303.74 1189.88,-294.19 1194.02,-285.92"/>
<polygon fill="midnightblue" stroke="midnightblue" points="1197.21,-287.37 1198.84,-276.9 1191.04,-284.07 1197.21,-287.37"/>
</g>
<!-- Node70&#45;&gt;Node87 -->
<g id="edge74" class="edge">
<title>Node70&#45;&gt;Node87</title>
<path fill="none" stroke="midnightblue" d="M1313.56,-637.48C1329.01,-629.12 1353.09,-616.09 1373.04,-605.3"/>
<polygon fill="midnightblue" stroke="midnightblue" points="1374.74,-608.36 1381.87,-600.52 1371.41,-602.2 1374.74,-608.36"/>
</g>
<!-- Node74&#45;&gt;Node3 -->
<g id="edge72" class="edge">
<title>Node74&#45;&gt;Node3</title>
<path fill="none" stroke="midnightblue" d="M1203.03,-246.48C1195.23,-223.51 1179.72,-177.89 1171.04,-152.37"/>
<polygon fill="midnightblue" stroke="midnightblue" points="1174.32,-151.13 1167.79,-142.79 1167.69,-153.38 1174.32,-151.13"/>
</g>
<!-- Node74&#45;&gt;Node5 -->
<g id="edge70" class="edge">
<title>Node74&#45;&gt;Node5</title>
<path fill="none" stroke="midnightblue" d="M1172.19,-246.33C1062.27,-202.57 729.47,-70.1 625.9,-28.88"/>
<polygon fill="midnightblue" stroke="midnightblue" points="626.92,-25.52 616.34,-25.07 624.33,-32.02 626.92,-25.52"/>
</g>
<!-- Node74&#45;&gt;Node8 -->
<g id="edge69" class="edge">
<title>Node74&#45;&gt;Node8</title>
<path fill="none" stroke="midnightblue" d="M1260.48,-259.3C1544.12,-252.79 2877.36,-221.6 2894.8,-210 2952.92,-171.33 2910.88,-116.81 2959.8,-67 2977.88,-48.59 3004.01,-36.03 3025.8,-28.05"/>
<polygon fill="midnightblue" stroke="midnightblue" points="3027.16,-31.28 3035.46,-24.7 3024.86,-24.67 3027.16,-31.28"/>
</g>
<!-- Node74&#45;&gt;Node13 -->
<g id="edge68" class="edge">
<title>Node74&#45;&gt;Node13</title>
<path fill="none" stroke="midnightblue" d="M1215.16,-246.26C1235.3,-208.99 1295.36,-108.6 1377.8,-67 1477.56,-16.66 1831.22,-15.29 1940.43,-16.11"/>
<polygon fill="midnightblue" stroke="midnightblue" points="1940.48,-19.61 1950.51,-16.2 1940.54,-12.62 1940.48,-19.61"/>
</g>
<!-- Node74&#45;&gt;Node18 -->
<g id="edge71" class="edge">
<title>Node74&#45;&gt;Node18</title>
<path fill="none" stroke="midnightblue" d="M1255.33,-246.43C1288.16,-236.57 1332.77,-222.91 1371.8,-210 1374.25,-209.19 1376.77,-208.34 1379.3,-207.47"/>
<polygon fill="midnightblue" stroke="midnightblue" points="1380.71,-210.69 1389.01,-204.1 1378.41,-204.08 1380.71,-210.69"/>
</g>
<!-- Node87&#45;&gt;Node3 -->
<g id="edge75" class="edge">
<title>Node87&#45;&gt;Node3</title>
<path fill="none" stroke="midnightblue" d="M1365.78,-570.42C1274.57,-536.98 1063.16,-442.9 1019.8,-277 1008.78,-234.85 991.89,-214.02 1017.8,-179 1037.85,-151.89 1073.91,-140.58 1105.29,-136.08"/>
<polygon fill="midnightblue" stroke="midnightblue" points="1105.8,-139.54 1115.29,-134.84 1104.94,-132.59 1105.8,-139.54"/>
</g>
<!-- Node87&#45;&gt;Node57 -->
<g id="edge91" class="edge">
<title>Node87&#45;&gt;Node57</title>
<path fill="none" stroke="midnightblue" d="M1440.27,-570.4C1463.15,-560.46 1493.53,-547.26 1515.64,-537.66"/>
<polygon fill="midnightblue" stroke="midnightblue" points="1517.09,-540.85 1524.86,-533.66 1514.3,-534.43 1517.09,-540.85"/>
</g>
<!-- Node87&#45;&gt;Node59 -->
<g id="edge90" class="edge">
<title>Node87&#45;&gt;Node59</title>
<path fill="none" stroke="midnightblue" d="M1471.08,-580.58C1560.54,-574.21 1718.79,-559.68 1769.8,-534 1859.95,-488.62 1933.38,-386.85 1960.03,-346.48"/>
<polygon fill="midnightblue" stroke="midnightblue" points="1963.01,-348.3 1965.52,-338.01 1957.14,-344.49 1963.01,-348.3"/>
</g>
<!-- Node93 -->
<g id="node26" class="node">
<title>Node93</title>
<g id="a_node26"><a xlink:href="../../d1/d77/node_8h.html" target="_top" xlink:title=" ">
<polygon fill="none" stroke="red" points="1667.3,-514.5 1667.3,-533.5 1760.3,-533.5 1760.3,-514.5 1667.3,-514.5"/>
<text text-anchor="middle" x="1713.8" y="-521.5" font-family="Helvetica,sans-Serif" font-size="10.00">includes/node.h</text>
</a>
</g>
</g>
<!-- Node87&#45;&gt;Node93 -->
<g id="edge76" class="edge">
<title>Node87&#45;&gt;Node93</title>
<path fill="none" stroke="midnightblue" d="M1470.83,-572.24C1526.55,-561.41 1606.96,-545.77 1659.78,-535.5"/>
<polygon fill="midnightblue" stroke="midnightblue" points="1660.49,-538.93 1669.64,-533.59 1659.16,-532.06 1660.49,-538.93"/>
</g>
<!-- Node87&#45;&gt;Node99 -->
<g id="edge87" class="edge">
<title>Node87&#45;&gt;Node99</title>
<path fill="none" stroke="midnightblue" d="M1344.53,-574.41C1275.92,-563.46 1167.06,-546.1 1098.35,-535.14"/>
<polygon fill="midnightblue" stroke="midnightblue" points="1098.52,-531.62 1088.1,-533.5 1097.42,-538.53 1098.52,-531.62"/>
</g>
<!-- Node93&#45;&gt;Node3 -->
<g id="edge81" class="edge">
<title>Node93&#45;&gt;Node3</title>
<path fill="none" stroke="midnightblue" d="M1680.01,-514.46C1563.3,-484.68 1182.12,-385.02 1143.8,-344 1093.37,-290.02 1097.12,-247.89 1123.8,-179 1128.25,-167.5 1137.17,-157.13 1145.55,-149.25"/>
<polygon fill="midnightblue" stroke="midnightblue" points="1148.04,-151.73 1153.26,-142.51 1143.43,-146.46 1148.04,-151.73"/>
</g>
<!-- Node93&#45;&gt;Node5 -->
<g id="edge79" class="edge">
<title>Node93&#45;&gt;Node5</title>
<path fill="none" stroke="midnightblue" d="M1667.04,-518.21C1519.74,-501.08 1057.44,-431.58 759.8,-210 689.58,-157.73 629.15,-70.35 605.47,-33.6"/>
<polygon fill="midnightblue" stroke="midnightblue" points="608.34,-31.59 600.02,-25.03 602.43,-35.34 608.34,-31.59"/>
</g>
<!-- Node93&#45;&gt;Node8 -->
<g id="edge78" class="edge">
<title>Node93&#45;&gt;Node8</title>
<path fill="none" stroke="midnightblue" d="M1760.5,-523.29C1960.66,-524.25 2740.51,-524.91 2838.8,-478 2891.1,-453.04 2874.44,-408.67 2924.8,-380 3000.63,-336.84 3042.3,-387.74 3117.8,-344 3185.46,-304.8 3204.81,-283.39 3231.8,-210 3253.74,-150.35 3269.64,-118.06 3231.8,-67 3203.07,-28.23 3145.3,-18.21 3106.08,-16.13"/>
<polygon fill="midnightblue" stroke="midnightblue" points="3106.17,-12.64 3096.04,-15.75 3105.91,-19.63 3106.17,-12.64"/>
</g>
<!-- Node93&#45;&gt;Node13 -->
<g id="edge77" class="edge">
<title>Node93&#45;&gt;Node13</title>
<path fill="none" stroke="midnightblue" d="M1734.73,-514.37C1750.37,-506.92 1771.15,-494.7 1783.8,-478 1899.19,-325.72 1802.51,-225.09 1909.8,-67 1919.84,-52.2 1935.52,-39.62 1948.72,-30.71"/>
<polygon fill="midnightblue" stroke="midnightblue" points="1950.85,-33.5 1957.37,-25.15 1947.06,-27.61 1950.85,-33.5"/>
</g>
<!-- Node93&#45;&gt;Node18 -->
<g id="edge80" class="edge">
<title>Node93&#45;&gt;Node18</title>
<path fill="none" stroke="midnightblue" d="M1696.56,-514.36C1681.1,-506.16 1658.22,-492.91 1640.8,-478 1541.54,-393.08 1453.56,-260.5 1423.65,-213.09"/>
<polygon fill="midnightblue" stroke="midnightblue" points="1426.44,-210.94 1418.17,-204.31 1420.5,-214.65 1426.44,-210.94"/>
</g>
<!-- Node93&#45;&gt;Node58 -->
<g id="edge86" class="edge">
<title>Node93&#45;&gt;Node58</title>
<path fill="none" stroke="midnightblue" d="M1713.51,-514.48C1713.28,-507.47 1712.93,-497.19 1712.61,-487.7"/>
<polygon fill="midnightblue" stroke="midnightblue" points="1716.1,-487.4 1712.27,-477.52 1709.11,-487.63 1716.1,-487.4"/>
</g>
<!-- Node96 -->
<g id="node27" class="node">
<title>Node96</title>
<g id="a_node27"><a xlink:href="../../de/d44/global__pointers__vector_8h.html" target="_top" xlink:title=" ">
<polygon fill="none" stroke="red" points="2498.8,-380.5 2498.8,-410.5 2644.8,-410.5 2644.8,-380.5 2498.8,-380.5"/>
<text text-anchor="start" x="2506.8" y="-398.5" font-family="Helvetica,sans-Serif" font-size="10.00">containers/global_pointers</text>
<text text-anchor="middle" x="2571.8" y="-387.5" font-family="Helvetica,sans-Serif" font-size="10.00">_vector.h</text>
</a>
</g>
</g>
<!-- Node93&#45;&gt;Node96 -->
<g id="edge82" class="edge">
<title>Node93&#45;&gt;Node96</title>
<path fill="none" stroke="midnightblue" d="M1760.61,-522.18C1841.19,-519.88 2010.83,-511.15 2149.8,-478 2187.29,-469.06 2193.48,-456.65 2230.8,-447 2341.18,-418.44 2372.11,-428.37 2484.8,-411 2486.08,-410.8 2487.36,-410.6 2488.66,-410.4"/>
<polygon fill="midnightblue" stroke="midnightblue" points="2489.39,-413.83 2498.72,-408.81 2488.3,-406.92 2489.39,-413.83"/>
</g>
<!-- Node96&#45;&gt;Node3 -->
<g id="edge84" class="edge">
<title>Node96&#45;&gt;Node3</title>
<path fill="none" stroke="midnightblue" d="M2533.68,-380.4C2487.73,-363.58 2408.03,-334.98 2338.8,-313 2132.18,-247.41 2083.42,-215.89 1869.8,-179 1633.47,-138.18 1346.82,-133.47 1224.63,-133.51"/>
<polygon fill="midnightblue" stroke="midnightblue" points="1224.37,-130.02 1214.37,-133.53 1224.38,-137.02 1224.37,-130.02"/>
</g>
<!-- Node96&#45;&gt;Node8 -->
<g id="edge83" class="edge">
<title>Node96&#45;&gt;Node8</title>
<path fill="none" stroke="midnightblue" d="M2644.97,-389.62C2768.31,-380.96 3007.57,-362.1 3041.8,-344 3046.12,-341.72 3154.11,-214.59 3155.8,-210 3177.74,-150.35 3187.91,-121.84 3155.8,-67 3144.93,-48.44 3124.46,-36.18 3105.78,-28.39"/>
<polygon fill="midnightblue" stroke="midnightblue" points="3106.83,-25.04 3096.24,-24.72 3104.31,-31.58 3106.83,-25.04"/>
</g>
<!-- Node96&#45;&gt;Node19 -->
<g id="edge85" class="edge">
<title>Node96&#45;&gt;Node19</title>
<path fill="none" stroke="midnightblue" d="M2536.66,-380.39C2497.96,-362.71 2437.8,-328.35 2411.8,-277 2401.38,-256.41 2411.2,-230 2420.16,-212.91"/>
<polygon fill="midnightblue" stroke="midnightblue" points="2423.3,-214.47 2425.18,-204.05 2417.21,-211.03 2423.3,-214.47"/>
</g>
<!-- Node99&#45;&gt;Node3 -->
<g id="edge88" class="edge">
<title>Node99&#45;&gt;Node3</title>
<path fill="none" stroke="midnightblue" d="M1028.43,-514.37C998.21,-472.32 874.33,-286.63 960.8,-179 978.62,-156.82 1051.22,-144.93 1104.76,-139.04"/>
<polygon fill="midnightblue" stroke="midnightblue" points="1105.27,-142.5 1114.85,-137.97 1104.54,-135.54 1105.27,-142.5"/>
</g>
<!-- Node99&#45;&gt;Node62 -->
<g id="edge89" class="edge">
<title>Node99&#45;&gt;Node62</title>
<path fill="none" stroke="midnightblue" d="M1099.29,-522.78C1229.42,-521.53 1532.42,-514.55 1783.8,-478 1898.37,-461.34 2030.75,-426.01 2094.92,-407.83"/>
<polygon fill="midnightblue" stroke="midnightblue" points="2095.96,-411.17 2104.62,-405.06 2094.04,-404.44 2095.96,-411.17"/>
</g>
<!-- Node100&#45;&gt;Node3 -->
<g id="edge93" class="edge">
<title>Node100&#45;&gt;Node3</title>
<path fill="none" stroke="midnightblue" d="M1194.89,-313.4C1176.31,-305.8 1157.67,-294.3 1146.8,-277 1122.13,-237.76 1142.59,-180.43 1155.78,-151.74"/>
<polygon fill="midnightblue" stroke="midnightblue" points="1159.02,-153.08 1160.22,-142.55 1152.72,-150.03 1159.02,-153.08"/>
</g>
<!-- Node100&#45;&gt;Node101 -->
<g id="edge94" class="edge">
<title>Node100&#45;&gt;Node101</title>
<path fill="none" stroke="midnightblue" d="M1311.1,-324.34C1516.81,-313.39 2198.58,-277.1 2409.83,-265.85"/>
<polygon fill="midnightblue" stroke="midnightblue" points="2410.32,-269.33 2420.12,-265.3 2409.95,-262.34 2410.32,-269.33"/>
</g>
<!-- Node101&#45;&gt;Node3 -->
<g id="edge96" class="edge">
<title>Node101&#45;&gt;Node3</title>
<path fill="none" stroke="midnightblue" d="M2442.79,-246.4C2400.12,-227.12 2318.95,-193.31 2245.8,-179 2145.65,-159.41 1436.55,-140.65 1224.53,-135.43"/>
<polygon fill="midnightblue" stroke="midnightblue" points="1224.6,-131.93 1214.52,-135.18 1224.43,-138.93 1224.6,-131.93"/>
</g>
<!-- Node101&#45;&gt;Node19 -->
<g id="edge97" class="edge">
<title>Node101&#45;&gt;Node19</title>
<path fill="none" stroke="midnightblue" d="M2463.69,-246.4C2457.33,-236.56 2448.81,-223.38 2442.04,-212.89"/>
<polygon fill="midnightblue" stroke="midnightblue" points="2444.78,-210.69 2436.42,-204.19 2438.91,-214.49 2444.78,-210.69"/>
</g>
<!-- Node101&#45;&gt;Node22 -->
<g id="edge95" class="edge">
<title>Node101&#45;&gt;Node22</title>
<path fill="none" stroke="midnightblue" d="M2483.74,-246.36C2495.65,-229.12 2511.19,-199.71 2496.8,-179 2487.78,-166.02 2451.96,-153.68 2421.62,-145.22"/>
<polygon fill="midnightblue" stroke="midnightblue" points="2422.15,-141.74 2411.59,-142.5 2420.32,-148.49 2422.15,-141.74"/>
</g>
<!-- Node102&#45;&gt;Node57 -->
<g id="edge99" class="edge">
<title>Node102&#45;&gt;Node57</title>
<path fill="none" stroke="midnightblue" d="M2017.26,-637.46C1978.59,-628.77 1917.39,-614.67 1864.8,-601 1816.05,-588.33 1804.68,-582.15 1755.8,-570 1702.8,-556.83 1641.72,-544.06 1598.96,-535.51"/>
<polygon fill="midnightblue" stroke="midnightblue" points="1599.54,-532.06 1589.05,-533.54 1598.17,-538.92 1599.54,-532.06"/>
</g>
<!-- Node102&#45;&gt;Node96 -->
<g id="edge100" class="edge">
<title>Node102&#45;&gt;Node96</title>
<path fill="none" stroke="midnightblue" d="M2074.45,-637.48C2094.01,-628.51 2125.64,-613.92 2152.8,-601 2294.1,-533.75 2460.93,-451.45 2534.16,-415.18"/>
<polygon fill="midnightblue" stroke="midnightblue" points="2536.04,-418.16 2543.44,-410.58 2532.93,-411.88 2536.04,-418.16"/>
</g>
<!-- Node119&#45;&gt;Node57 -->
<g id="edge102" class="edge">
<title>Node119&#45;&gt;Node57</title>
<path fill="none" stroke="midnightblue" d="M1900.58,-637.46C1858.18,-623.16 1769.91,-593.62 1694.8,-570 1657.28,-558.2 1614.27,-545.37 1583.96,-536.44"/>
<polygon fill="midnightblue" stroke="midnightblue" points="1584.77,-533.03 1574.19,-533.57 1582.79,-539.75 1584.77,-533.03"/>
</g>
<!-- Node119&#45;&gt;Node96 -->
<g id="edge103" class="edge">
<title>Node119&#45;&gt;Node96</title>
<path fill="none" stroke="midnightblue" d="M1944.74,-637.36C2008.75,-608.32 2223.22,-512.44 2405.8,-447 2440.22,-434.66 2479.31,-422.67 2510.91,-413.48"/>
<polygon fill="midnightblue" stroke="midnightblue" points="2512.26,-416.73 2520.89,-410.59 2510.31,-410.01 2512.26,-416.73"/>
</g>
<!-- Node120&#45;&gt;Node3 -->
<g id="edge109" class="edge">
<title>Node120&#45;&gt;Node3</title>
<path fill="none" stroke="midnightblue" d="M1467.21,-700.53C1406.51,-693.3 1316.56,-679.78 1240.8,-657 1026.63,-592.6 903.85,-560.24 846.8,-344 831.56,-286.25 870.77,-191.48 884.8,-179 916.49,-150.82 1032.33,-140.19 1104.71,-136.25"/>
<polygon fill="midnightblue" stroke="midnightblue" points="1105.26,-139.72 1115.06,-135.71 1104.89,-132.73 1105.26,-139.72"/>
</g>
<!-- Node120&#45;&gt;Node5 -->
<g id="edge107" class="edge">
<title>Node120&#45;&gt;Node5</title>
<path fill="none" stroke="midnightblue" d="M1467.23,-705.95C1287.95,-700.85 814.95,-680.05 682.8,-601 643.23,-577.33 442.8,-308.61 442.8,-262.5 442.8,-262.5 442.8,-262.5 442.8,-132 442.8,-74.84 511.78,-42.28 556.8,-27.11"/>
<polygon fill="midnightblue" stroke="midnightblue" points="558.12,-30.36 566.57,-23.97 555.97,-23.7 558.12,-30.36"/>
</g>
<!-- Node120&#45;&gt;Node8 -->
<g id="edge106" class="edge">
<title>Node120&#45;&gt;Node8</title>
<path fill="none" stroke="midnightblue" d="M1606.37,-701.7C1715.7,-692.53 1934.4,-673.98 2119.8,-657 2377.7,-633.38 2449.38,-667.01 2699.8,-601 2899.48,-548.36 2940.11,-505.34 3123.8,-411 3216.69,-363.29 3248.28,-355.81 3316.8,-277 3345.15,-244.39 3369.8,-238.71 3369.8,-195.5 3369.8,-195.5 3369.8,-195.5 3369.8,-132 3369.8,-96.86 3354.21,-86.22 3324.8,-67 3289.29,-43.79 3169.62,-27.73 3106.13,-20.63"/>
<polygon fill="midnightblue" stroke="midnightblue" points="3106.4,-17.13 3096.08,-19.52 3105.64,-24.09 3106.4,-17.13"/>
</g>
<!-- Node120&#45;&gt;Node13 -->
<g id="edge105" class="edge">
<title>Node120&#45;&gt;Node13</title>
<path fill="none" stroke="midnightblue" d="M1535.34,-698.76C1533.04,-685.38 1528.27,-659.04 1522.8,-637 1515.32,-606.84 1517.93,-597.15 1502.8,-570 1492.38,-551.3 1478.41,-554.01 1470.8,-534 1467.64,-525.69 1468.06,-522.46 1470.8,-514 1546.49,-280.6 1593.69,-207.57 1794.8,-67 1839.32,-35.88 1902.69,-23.84 1940.58,-19.25"/>
<polygon fill="midnightblue" stroke="midnightblue" points="1941.01,-22.72 1950.56,-18.14 1940.23,-15.77 1941.01,-22.72"/>
</g>
<!-- Node120&#45;&gt;Node18 -->
<g id="edge108" class="edge">
<title>Node120&#45;&gt;Node18</title>
<path fill="none" stroke="midnightblue" d="M1534.14,-698.83C1525.71,-671.81 1499.01,-589.7 1479.8,-570 1452.3,-541.79 1420.27,-567.03 1398.8,-534 1331.18,-429.96 1384.52,-267.51 1405.37,-213.58"/>
<polygon fill="midnightblue" stroke="midnightblue" points="1408.73,-214.62 1409.17,-204.03 1402.22,-212.03 1408.73,-214.62"/>
</g>
<!-- Node120&#45;&gt;Node70 -->
<g id="edge112" class="edge">
<title>Node120&#45;&gt;Node70</title>
<path fill="none" stroke="midnightblue" d="M1502.56,-698.98C1460.23,-688.44 1388.12,-670.49 1341.75,-658.94"/>
<polygon fill="midnightblue" stroke="midnightblue" points="1342.53,-655.53 1331.98,-656.51 1340.84,-662.32 1342.53,-655.53"/>
</g>
<!-- Node120&#45;&gt;Node102 -->
<g id="edge111" class="edge">
<title>Node120&#45;&gt;Node102</title>
<path fill="none" stroke="midnightblue" d="M1606.64,-700.39C1693.92,-691.36 1848.13,-674.93 1990.43,-657.14"/>
<polygon fill="midnightblue" stroke="midnightblue" points="1991.17,-660.58 2000.66,-655.86 1990.3,-653.63 1991.17,-660.58"/>
</g>
<!-- Node120&#45;&gt;Node119 -->
<g id="edge110" class="edge">
<title>Node120&#45;&gt;Node119</title>
<path fill="none" stroke="midnightblue" d="M1592.53,-698.98C1663.16,-688.17 1784.72,-669.58 1859.88,-658.08"/>
<polygon fill="midnightblue" stroke="midnightblue" points="1860.81,-661.48 1870.17,-656.51 1859.75,-654.56 1860.81,-661.48"/>
</g>
<!-- Node104&#45;&gt;Node3 -->
<g id="edge117" class="edge">
<title>Node104&#45;&gt;Node3</title>
<path fill="none" stroke="midnightblue" d="M2340.88,-385.88C2292.63,-361.53 2149.83,-291.08 2025.8,-246 1923.32,-208.76 1897.18,-197.9 1789.8,-179 1584.6,-142.88 1336.62,-135.62 1224.72,-134.25"/>
<polygon fill="midnightblue" stroke="midnightblue" points="1224.68,-130.75 1214.65,-134.14 1224.61,-137.75 1224.68,-130.75"/>
</g>
<!-- Node104&#45;&gt;Node8 -->
<g id="edge115" class="edge">
<title>Node104&#45;&gt;Node8</title>
<path fill="none" stroke="midnightblue" d="M2381.82,-385.94C2429.33,-369.34 2538.89,-332.68 2633.8,-313 2762.7,-286.27 2804.03,-321.85 2927.8,-277 2951.68,-268.35 2953.97,-258.98 2975.8,-246 3004.52,-228.92 3023,-237.63 3041.8,-210 3078.74,-155.7 3073.48,-72.57 3068.76,-35.5"/>
<polygon fill="midnightblue" stroke="midnightblue" points="3072.16,-34.58 3067.3,-25.17 3065.23,-35.56 3072.16,-34.58"/>
</g>
<!-- Node104&#45;&gt;Node13 -->
<g id="edge114" class="edge">
<title>Node104&#45;&gt;Node13</title>
<path fill="none" stroke="midnightblue" d="M2351.86,-385.75C2330.35,-354.56 2253.38,-246.99 2169.8,-179 2144.48,-158.4 2128.91,-166.05 2105.8,-143 2078.32,-115.59 2090.29,-94.39 2062.8,-67 2046.16,-50.42 2022.95,-37.57 2004.27,-28.99"/>
<polygon fill="midnightblue" stroke="midnightblue" points="2005.53,-25.72 1994.97,-24.89 2002.71,-32.12 2005.53,-25.72"/>
</g>
<!-- Node104&#45;&gt;Node53 -->
<g id="edge116" class="edge">
<title>Node104&#45;&gt;Node53</title>
<path fill="none" stroke="midnightblue" d="M2357.23,-385.91C2355.91,-370.48 2351.68,-337.42 2338.8,-313 2301.28,-241.86 2228.57,-177.32 2193.98,-149.06"/>
<polygon fill="midnightblue" stroke="midnightblue" points="2196.04,-146.23 2186.05,-142.68 2191.65,-151.68 2196.04,-146.23"/>
</g>
<!-- Node104&#45;&gt;Node59 -->
<g id="edge118" class="edge">
<title>Node104&#45;&gt;Node59</title>
<path fill="none" stroke="midnightblue" d="M2310.73,-386.59C2240.66,-374.82 2108.87,-352.69 2031.59,-339.71"/>
<polygon fill="midnightblue" stroke="midnightblue" points="2031.96,-336.22 2021.52,-338.02 2030.8,-343.13 2031.96,-336.22"/>
</g>
<!-- Node121&#45;&gt;Node3 -->
<g id="edge129" class="edge">
<title>Node121&#45;&gt;Node3</title>
<path fill="none" stroke="midnightblue" d="M2506.4,-578.89C2400.84,-568.3 2187.58,-540.58 2017.8,-478 1848.04,-415.42 1816.58,-373.92 1663.8,-277 1620.17,-249.32 1609.95,-241.24 1568.8,-210 1551.44,-196.82 1550.85,-187.55 1530.8,-179 1477.06,-156.07 1313.9,-142.96 1224.66,-137.33"/>
<polygon fill="midnightblue" stroke="midnightblue" points="1224.62,-133.82 1214.42,-136.69 1224.19,-140.8 1224.62,-133.82"/>
</g>
<!-- Node121&#45;&gt;Node8 -->
<g id="edge128" class="edge">
<title>Node121&#45;&gt;Node8</title>
<path fill="none" stroke="midnightblue" d="M2636.8,-570.61C2699.99,-555.03 2796.84,-525.53 2869.8,-478 2920.11,-445.22 2910.06,-408.71 2962.8,-380 3039.06,-338.49 3078.01,-384.51 3154.8,-344 3192.05,-324.35 3198.13,-311.83 3221.8,-277 3274.8,-199.02 3318.9,-133.23 3251.8,-67 3212.94,-28.65 3148.05,-18.67 3106.1,-16.48"/>
<polygon fill="midnightblue" stroke="midnightblue" points="3106.09,-12.97 3095.96,-16.07 3105.82,-19.97 3106.09,-12.97"/>
</g>
<!-- Node121&#45;&gt;Node13 -->
<g id="edge127" class="edge">
<title>Node121&#45;&gt;Node13</title>
<path fill="none" stroke="midnightblue" d="M2581.13,-570.44C2599.44,-541.88 2639.57,-474.39 2653.8,-411 2666.51,-354.34 2608.55,-163.34 2560.8,-123 2475.18,-50.68 2115.26,-24.57 2005.03,-18.19"/>
<polygon fill="midnightblue" stroke="midnightblue" points="2005.04,-14.68 1994.86,-17.61 2004.65,-21.67 2005.04,-14.68"/>
</g>
<!-- Node121&#45;&gt;Node62 -->
<g id="edge130" class="edge">
<title>Node121&#45;&gt;Node62</title>
<path fill="none" stroke="midnightblue" d="M2538.88,-570.37C2456.46,-534.99 2242.21,-443.03 2163.43,-409.22"/>
<polygon fill="midnightblue" stroke="midnightblue" points="2164.65,-405.93 2154.08,-405.21 2161.89,-412.37 2164.65,-405.93"/>
</g>
<!-- Node121&#45;&gt;Node93 -->
<g id="edge132" class="edge">
<title>Node121&#45;&gt;Node93</title>
<path fill="none" stroke="midnightblue" d="M2506.61,-579.98C2344.23,-568.72 1923.82,-539.56 1770.68,-528.94"/>
<polygon fill="midnightblue" stroke="midnightblue" points="1770.77,-525.44 1760.55,-528.24 1770.28,-532.43 1770.77,-525.44"/>
</g>
<!-- Node121&#45;&gt;Node96 -->
<g id="edge131" class="edge">
<title>Node121&#45;&gt;Node96</title>
<path fill="none" stroke="midnightblue" d="M2571.8,-570.37C2571.8,-538.44 2571.8,-460.44 2571.8,-420.67"/>
<polygon fill="midnightblue" stroke="midnightblue" points="2575.3,-420.54 2571.8,-410.54 2568.3,-420.54 2575.3,-420.54"/>
</g>
<!-- Node122&#45;&gt;Node3 -->
<g id="edge140" class="edge">
<title>Node122&#45;&gt;Node3</title>
<path fill="none" stroke="midnightblue" d="M2812.36,-184.94C2803.63,-182.58 2793.89,-180.31 2784.8,-179 2628.42,-156.52 1499.35,-138.85 1224.84,-134.85"/>
<polygon fill="midnightblue" stroke="midnightblue" points="1224.72,-131.35 1214.67,-134.7 1224.62,-138.35 1224.72,-131.35"/>
</g>
<!-- Node122&#45;&gt;Node8 -->
<g id="edge135" class="edge">
<title>Node122&#45;&gt;Node8</title>
<path fill="none" stroke="midnightblue" d="M2842.91,-184.7C2852.21,-158.82 2880.38,-83.75 2899.8,-67 2935.2,-36.47 2988.68,-24.4 3025.31,-19.62"/>
<polygon fill="midnightblue" stroke="midnightblue" points="3026.11,-23.05 3035.63,-18.41 3025.29,-16.1 3026.11,-23.05"/>
</g>
<!-- Node122&#45;&gt;Node13 -->
<g id="edge134" class="edge">
<title>Node122&#45;&gt;Node13</title>
<path fill="none" stroke="midnightblue" d="M2830.43,-184.88C2819.93,-175.08 2802.58,-158.42 2788.8,-143 2760.12,-110.91 2766.88,-87.05 2728.8,-67 2664.13,-32.95 2142.03,-19.96 2005.42,-17.13"/>
<polygon fill="midnightblue" stroke="midnightblue" points="2005.25,-13.62 1995.18,-16.92 2005.11,-20.62 2005.25,-13.62"/>
</g>
<!-- Node122&#45;&gt;Node21 -->
<g id="edge137" class="edge">
<title>Node122&#45;&gt;Node21</title>
<path fill="none" stroke="midnightblue" d="M2809.07,-184.93C2801.19,-182.86 2792.71,-180.75 2784.8,-179 2704.68,-161.32 2609.06,-145.73 2561.96,-138.42"/>
<polygon fill="midnightblue" stroke="midnightblue" points="2562.29,-134.93 2551.87,-136.86 2561.22,-141.85 2562.29,-134.93"/>
</g>
<!-- Node122&#45;&gt;Node22 -->
<g id="edge138" class="edge">
<title>Node122&#45;&gt;Node22</title>
<path fill="none" stroke="midnightblue" d="M2810.88,-184.97C2802.52,-182.75 2793.35,-180.55 2784.8,-179 2632.82,-151.39 2589.91,-163.02 2432.56,-143.01"/>
<polygon fill="midnightblue" stroke="midnightblue" points="2432.89,-139.53 2422.52,-141.72 2431.99,-146.47 2432.89,-139.53"/>
</g>
<!-- Node122&#45;&gt;Node25 -->
<g id="edge136" class="edge">
<title>Node122&#45;&gt;Node25</title>
<path fill="none" stroke="midnightblue" d="M2810.28,-184.96C2802.08,-182.8 2793.13,-180.63 2784.8,-179 2664.78,-155.57 2629.93,-165.33 2505.52,-142.93"/>
<polygon fill="midnightblue" stroke="midnightblue" points="2506.08,-139.48 2495.61,-141.11 2504.81,-146.36 2506.08,-139.48"/>
</g>
<!-- Node55 -->
<g id="node37" class="node">
<title>Node55</title>
<g id="a_node37"><a xlink:title=" ">
<polygon fill="none" stroke="#bfbfbf" points="2797.8,-123.5 2797.8,-142.5 2847.8,-142.5 2847.8,-123.5 2797.8,-123.5"/>
<text text-anchor="middle" x="2822.8" y="-130.5" font-family="Helvetica,sans-Serif" font-size="10.00">chrono</text>
</a>
</g>
</g>
<!-- Node122&#45;&gt;Node55 -->
<g id="edge139" class="edge">
<title>Node122&#45;&gt;Node55</title>
<path fill="none" stroke="midnightblue" d="M2837.36,-184.98C2834.94,-176.49 2831.14,-163.2 2828.03,-152.32"/>
<polygon fill="midnightblue" stroke="midnightblue" points="2831.34,-151.16 2825.23,-142.51 2824.61,-153.09 2831.34,-151.16"/>
</g>
<!-- Node124 -->
<g id="node39" class="node">
<title>Node124</title>
<g id="a_node39"><a xlink:href="../../de/dda/line__2d__2_8h.html" target="_top" xlink:title=" ">
<polygon fill="none" stroke="red" points="170.3,-771.5 170.3,-790.5 301.3,-790.5 301.3,-771.5 170.3,-771.5"/>
<text text-anchor="middle" x="235.8" y="-778.5" font-family="Helvetica,sans-Serif" font-size="10.00">geometries/line_2d_2.h</text>
</a>
</g>
</g>
<!-- Node123&#45;&gt;Node124 -->
<g id="edge142" class="edge">
<title>Node123&#45;&gt;Node124</title>
<path fill="none" stroke="midnightblue" d="M282.06,-838.23C272.69,-826.84 259.53,-810.84 249.64,-798.82"/>
<polygon fill="midnightblue" stroke="midnightblue" points="252.17,-796.39 243.12,-790.89 246.77,-800.84 252.17,-796.39"/>
</g>
<!-- Node131 -->
<g id="node40" class="node">
<title>Node131</title>
<g id="a_node40"><a xlink:href="../../d0/d72/triangle__gauss__legendre__integration__points_8h.html" target="_top" xlink:title=" ">
<polygon fill="none" stroke="red" points="319.3,-760.5 319.3,-801.5 476.3,-801.5 476.3,-760.5 319.3,-760.5"/>
<text text-anchor="start" x="327.3" y="-789.5" font-family="Helvetica,sans-Serif" font-size="10.00">integration/triangle</text>
<text text-anchor="start" x="327.3" y="-778.5" font-family="Helvetica,sans-Serif" font-size="10.00">_gauss_legendre_integration</text>
<text text-anchor="middle" x="397.8" y="-767.5" font-family="Helvetica,sans-Serif" font-size="10.00">_points.h</text>
</a>
</g>
</g>
<!-- Node123&#45;&gt;Node131 -->
<g id="edge143" class="edge">
<title>Node123&#45;&gt;Node131</title>
<path fill="none" stroke="midnightblue" d="M314.85,-838.23C327.97,-829.34 345.22,-817.64 360.59,-807.22"/>
<polygon fill="midnightblue" stroke="midnightblue" points="362.59,-810.1 368.9,-801.59 358.66,-804.3 362.59,-810.1"/>
</g>
<!-- Node132 -->
<g id="node41" class="node">
<title>Node132</title>
<g id="a_node41"><a xlink:href="../../db/d99/triangle__collocation__integration__points_8h.html" target="_top" xlink:title=" ">
<polygon fill="none" stroke="red" points="17.8,-760.5 17.8,-801.5 151.8,-801.5 151.8,-760.5 17.8,-760.5"/>
<text text-anchor="start" x="25.8" y="-789.5" font-family="Helvetica,sans-Serif" font-size="10.00">integration/triangle</text>
<text text-anchor="start" x="25.8" y="-778.5" font-family="Helvetica,sans-Serif" font-size="10.00">_collocation_integration</text>
<text text-anchor="middle" x="84.8" y="-767.5" font-family="Helvetica,sans-Serif" font-size="10.00">_points.h</text>
</a>
</g>
</g>
<!-- Node123&#45;&gt;Node132 -->
<g id="edge144" class="edge">
<title>Node123&#45;&gt;Node132</title>
<path fill="none" stroke="midnightblue" d="M252.26,-838.49C223.76,-828.87 185.31,-815.9 152.44,-804.82"/>
<polygon fill="midnightblue" stroke="midnightblue" points="153.47,-801.47 142.88,-801.59 151.24,-808.1 153.47,-801.47"/>
</g>
<!-- Node133 -->
<g id="node42" class="node">
<title>Node133</title>
<g id="a_node42"><a xlink:href="../../dc/d76/intersection__utilities_8h.html" target="_top" xlink:title=" ">
<polygon fill="none" stroke="red" points="140.8,-693.5 140.8,-723.5 254.8,-723.5 254.8,-693.5 140.8,-693.5"/>
<text text-anchor="start" x="148.8" y="-711.5" font-family="Helvetica,sans-Serif" font-size="10.00">utilities/intersection</text>
<text text-anchor="middle" x="197.8" y="-700.5" font-family="Helvetica,sans-Serif" font-size="10.00">_utilities.h</text>
</a>
</g>
</g>
<!-- Node123&#45;&gt;Node133 -->
<g id="edge145" class="edge">
<title>Node123&#45;&gt;Node133</title>
<path fill="none" stroke="midnightblue" d="M237.29,-850.78C162.68,-847.17 37.37,-836.08 8.8,-802 -3.19,-787.7 -2.57,-774.81 8.8,-760 23.81,-740.45 82.58,-726.83 130.65,-718.7"/>
<polygon fill="midnightblue" stroke="midnightblue" points="131.42,-722.13 140.72,-717.05 130.29,-715.22 131.42,-722.13"/>
</g>
<!-- Node133&#45;&gt;Node3 -->
<g id="edge146" class="edge">
<title>Node133&#45;&gt;Node3</title>
<path fill="none" stroke="midnightblue" d="M254.91,-699.11C316.18,-686.51 404.8,-656.22 404.8,-586.5 404.8,-586.5 404.8,-586.5 404.8,-461.5 404.8,-303.99 473.87,-240.68 618.8,-179 705.01,-142.31 981.89,-135.44 1104.91,-134.22"/>
<polygon fill="midnightblue" stroke="midnightblue" points="1105.3,-137.72 1115.27,-134.13 1105.24,-130.72 1105.3,-137.72"/>
</g>
<!-- Node134&#45;&gt;Node3 -->
<g id="edge148" class="edge">
<title>Node134&#45;&gt;Node3</title>
<path fill="none" stroke="midnightblue" d="M2118.1,-693.42C2125,-677.89 2132.58,-653 2119.8,-637 2035.61,-531.62 1955.47,-599.27 1823.8,-570 1750.53,-553.71 1719.64,-577.96 1658.8,-534 1510.21,-426.64 1600.42,-282.04 1448.8,-179 1413.23,-154.83 1296.92,-142.81 1224.65,-137.54"/>
<polygon fill="midnightblue" stroke="midnightblue" points="1224.54,-134.02 1214.32,-136.81 1224.05,-141 1224.54,-134.02"/>
</g>
<!-- Node134&#45;&gt;Node102 -->
<g id="edge156" class="edge">
<title>Node134&#45;&gt;Node102</title>
<path fill="none" stroke="midnightblue" d="M2097.77,-693.4C2089.61,-684.58 2079.08,-673.18 2070.61,-664.02"/>
<polygon fill="midnightblue" stroke="midnightblue" points="2073.16,-661.63 2063.8,-656.66 2068.02,-666.38 2073.16,-661.63"/>
</g>
<!-- Node134&#45;&gt;Node119 -->
<g id="edge157" class="edge">
<title>Node134&#45;&gt;Node119</title>
<path fill="none" stroke="midnightblue" d="M2066.96,-693.4C2034.99,-683.12 1992.18,-669.35 1962.12,-659.68"/>
<polygon fill="midnightblue" stroke="midnightblue" points="1963.04,-656.3 1952.45,-656.57 1960.9,-662.96 1963.04,-656.3"/>
</g>
<!-- Node107 -->
<g id="node44" class="node">
<title>Node107</title>
<g id="a_node44"><a xlink:href="../../de/dca/variables_8h.html" target="_top" xlink:title=" ">
<polygon fill="none" stroke="red" points="2026.8,-453 2026.8,-472 2140.8,-472 2140.8,-453 2026.8,-453"/>
<text text-anchor="middle" x="2083.8" y="-460" font-family="Helvetica,sans-Serif" font-size="10.00">includes/variables.h</text>
</a>
</g>
</g>
<!-- Node134&#45;&gt;Node107 -->
<g id="edge149" class="edge">
<title>Node134&#45;&gt;Node107</title>
<path fill="none" stroke="midnightblue" d="M2127.21,-693.4C2136.68,-684.14 2147.68,-671.16 2152.8,-657 2155.82,-648.64 2154.47,-645.73 2152.8,-637 2141.35,-577.22 2109.57,-511.79 2093.45,-481.16"/>
<polygon fill="midnightblue" stroke="midnightblue" points="2096.44,-479.33 2088.63,-472.17 2090.27,-482.64 2096.44,-479.33"/>
</g>
<!-- Node107&#45;&gt;Node3 -->
<g id="edge152" class="edge">
<title>Node107&#45;&gt;Node3</title>
<path fill="none" stroke="midnightblue" d="M2064.39,-452.97C1998.04,-423.45 1775.03,-321.36 1606.8,-210 1588.63,-197.97 1588.9,-187.44 1568.8,-179 1508.14,-153.52 1321.53,-141.29 1224.61,-136.52"/>
<polygon fill="midnightblue" stroke="midnightblue" points="1224.54,-133.01 1214.39,-136.03 1224.21,-140 1224.54,-133.01"/>
</g>
<!-- Node107&#45;&gt;Node8 -->
<g id="edge151" class="edge">
<title>Node107&#45;&gt;Node8</title>
<path fill="none" stroke="midnightblue" d="M2117.12,-452.99C2126.37,-450.83 2136.44,-448.65 2145.8,-447 2278.49,-423.62 2321.28,-459.95 2446.8,-411 2468.75,-402.44 2468.2,-389.42 2489.8,-380 2516.5,-368.36 2976.59,-287.38 3003.8,-277 3058.71,-256.05 3088.61,-261.01 3117.8,-210 3149.36,-154.84 3142.55,-125.54 3117.8,-67 3111.71,-52.59 3099.27,-40.27 3088.09,-31.4"/>
<polygon fill="midnightblue" stroke="midnightblue" points="3090.02,-28.48 3079.9,-25.32 3085.84,-34.09 3090.02,-28.48"/>
</g>
<!-- Node107&#45;&gt;Node13 -->
<g id="edge150" class="edge">
<title>Node107&#45;&gt;Node13</title>
<path fill="none" stroke="midnightblue" d="M2122.58,-452.99C2160.29,-443.84 2213.62,-428.26 2225.8,-411 2233.74,-399.74 2230.38,-392.99 2225.8,-380 2180.79,-252.42 2107.46,-257.11 2034.8,-143 2011.47,-106.36 1990.66,-59.66 1980.11,-34.51"/>
<polygon fill="midnightblue" stroke="midnightblue" points="1983.3,-33.04 1976.24,-25.14 1976.83,-35.71 1983.3,-33.04"/>
</g>
<!-- Node107&#45;&gt;Node59 -->
<g id="edge153" class="edge">
<title>Node107&#45;&gt;Node59</title>
<path fill="none" stroke="midnightblue" d="M2076.39,-452.84C2057.79,-431.11 2008.91,-374.02 1984.74,-345.79"/>
<polygon fill="midnightblue" stroke="midnightblue" points="1987.26,-343.34 1978.09,-338.02 1981.94,-347.89 1987.26,-343.34"/>
</g>
<!-- Node107&#45;&gt;Node62 -->
<g id="edge154" class="edge">
<title>Node107&#45;&gt;Node62</title>
<path fill="none" stroke="midnightblue" d="M2090.54,-452.73C2098.34,-442.6 2111.35,-425.69 2121.06,-413.06"/>
<polygon fill="midnightblue" stroke="midnightblue" points="2123.84,-415.19 2127.16,-405.13 2118.29,-410.92 2123.84,-415.19"/>
</g>
<!-- Node107&#45;&gt;Node96 -->
<g id="edge155" class="edge">
<title>Node107&#45;&gt;Node96</title>
<path fill="none" stroke="midnightblue" d="M2122.37,-452.94C2132.86,-450.8 2144.23,-448.65 2154.8,-447 2300.57,-424.21 2338.64,-431.14 2484.8,-411 2486.08,-410.82 2487.37,-410.64 2488.67,-410.46"/>
<polygon fill="midnightblue" stroke="midnightblue" points="2489.36,-413.9 2498.74,-408.98 2488.34,-406.97 2489.36,-413.9"/>
</g>
<!-- Node135&#45;&gt;Node3 -->
<g id="edge159" class="edge">
<title>Node135&#45;&gt;Node3</title>
<path fill="none" stroke="midnightblue" d="M1607,-839.13C1604.23,-838.71 1601.49,-838.34 1598.8,-838 1294.08,-799.99 1212.96,-844.3 908.8,-802 742.62,-778.89 542.8,-877.28 542.8,-709.5 542.8,-709.5 542.8,-709.5 542.8,-584.5 542.8,-386.04 568.38,-294.46 729.8,-179 788.52,-137 1000.04,-132.57 1104.94,-133.07"/>
<polygon fill="midnightblue" stroke="midnightblue" points="1105.04,-136.57 1115.06,-133.13 1105.08,-129.57 1105.04,-136.57"/>
</g>
<!-- Node135&#45;&gt;Node17 -->
<g id="edge163" class="edge">
<title>Node135&#45;&gt;Node17</title>
<path fill="none" stroke="midnightblue" d="M1690.62,-838.23C1706.47,-826.22 1729.07,-809.08 1745.16,-796.89"/>
<polygon fill="midnightblue" stroke="midnightblue" points="1747.48,-799.52 1753.33,-790.69 1743.25,-793.94 1747.48,-799.52"/>
</g>
<!-- Node136 -->
<g id="node46" class="node">
<title>Node136</title>
<g id="a_node46"><a xlink:href="../../da/d42/process_8h.html" target="_top" xlink:title=" ">
<polygon fill="none" stroke="red" points="723.3,-576 723.3,-595 838.3,-595 838.3,-576 723.3,-576"/>
<text text-anchor="middle" x="780.8" y="-583" font-family="Helvetica,sans-Serif" font-size="10.00">processes/process.h</text>
</a>
</g>
</g>
<!-- Node135&#45;&gt;Node136 -->
<g id="edge160" class="edge">
<title>Node135&#45;&gt;Node136</title>
<path fill="none" stroke="midnightblue" d="M1606.97,-839.31C1604.22,-838.84 1601.48,-838.41 1598.8,-838 1267.19,-787.72 1121.91,-924.19 852.8,-724 812.73,-694.19 792.94,-635.48 785.07,-605.34"/>
<polygon fill="midnightblue" stroke="midnightblue" points="788.39,-604.19 782.62,-595.3 781.59,-605.85 788.39,-604.19"/>
</g>
<!-- Node136&#45;&gt;Node3 -->
<g id="edge161" class="edge">
<title>Node136&#45;&gt;Node3</title>
<path fill="none" stroke="midnightblue" d="M776.63,-575.93C767.55,-556.45 746.8,-507.14 746.8,-463.5 746.8,-463.5 746.8,-463.5 746.8,-260.5 746.8,-214.99 769.37,-201.74 808.8,-179 857.92,-150.67 1017.2,-139.88 1105.13,-136"/>
<polygon fill="midnightblue" stroke="midnightblue" points="1105.38,-139.5 1115.23,-135.58 1105.09,-132.5 1105.38,-139.5"/>
</g>
<!-- Node136&#45;&gt;Node99 -->
<g id="edge162" class="edge">
<title>Node136&#45;&gt;Node99</title>
<path fill="none" stroke="midnightblue" d="M817.19,-575.98C862.36,-565.39 939.45,-547.34 988.71,-535.8"/>
<polygon fill="midnightblue" stroke="midnightblue" points="989.54,-539.2 998.48,-533.51 987.94,-532.38 989.54,-539.2"/>
</g>
<!-- Node137&#45;&gt;Node3 -->
<g id="edge165" class="edge">
<title>Node137&#45;&gt;Node3</title>
<path fill="none" stroke="midnightblue" d="M2657.54,-189.08C2613.27,-185.9 2551.28,-181.71 2496.8,-179 2005.76,-154.53 1412.22,-139.68 1224.62,-135.34"/>
<polygon fill="midnightblue" stroke="midnightblue" points="1224.49,-131.83 1214.41,-135.1 1224.33,-138.83 1224.49,-131.83"/>
</g>
<!-- Node138 -->
<g id="node48" class="node">
<title>Node138</title>
<g id="a_node48"><a xlink:href="../../d4/d6e/spatial__containers_2tree_8h.html" target="_top" xlink:title=" ">
<polygon fill="none" stroke="red" points="2674.3,-67.5 2674.3,-86.5 2719.3,-86.5 2719.3,-67.5 2674.3,-67.5"/>
<text text-anchor="middle" x="2696.8" y="-74.5" font-family="Helvetica,sans-Serif" font-size="10.00">tree.h</text>
</a>
</g>
</g>
<!-- Node137&#45;&gt;Node138 -->
<g id="edge166" class="edge">
<title>Node137&#45;&gt;Node138</title>
<path fill="none" stroke="midnightblue" d="M2717.17,-179.3C2717.27,-164.96 2716.68,-142.23 2712.8,-123 2710.97,-113.96 2707.71,-104.28 2704.61,-96.22"/>
<polygon fill="midnightblue" stroke="midnightblue" points="2707.77,-94.69 2700.75,-86.75 2701.29,-97.33 2707.77,-94.69"/>
</g>
<!-- Node145 -->
<g id="node49" class="node">
<title>Node145</title>
<g id="a_node49"><a xlink:href="../../d5/dd3/spatial__containers_2bucket_8h.html" target="_top" xlink:title=" ">
<polygon fill="none" stroke="black" points="2645.8,-123.5 2645.8,-142.5 2703.8,-142.5 2703.8,-123.5 2645.8,-123.5"/>
<text text-anchor="middle" x="2674.8" y="-130.5" font-family="Helvetica,sans-Serif" font-size="10.00">bucket.h</text>
</a>
</g>
</g>
<!-- Node137&#45;&gt;Node145 -->
<g id="edge169" class="edge">
<title>Node137&#45;&gt;Node145</title>
<path fill="none" stroke="midnightblue" d="M2706.85,-179.4C2700.81,-170.84 2693.06,-159.87 2686.7,-150.86"/>
<polygon fill="midnightblue" stroke="midnightblue" points="2689.54,-148.81 2680.91,-142.66 2683.82,-152.85 2689.54,-148.81"/>
</g>
<!-- Node138&#45;&gt;Node8 -->
<g id="edge168" class="edge">
<title>Node138&#45;&gt;Node8</title>
<path fill="none" stroke="midnightblue" d="M2719.33,-72.37C2780.13,-62.56 2948.19,-35.46 3025.69,-22.97"/>
<polygon fill="midnightblue" stroke="midnightblue" points="3026.25,-26.42 3035.57,-21.38 3025.14,-19.51 3026.25,-26.42"/>
</g>
<!-- Node138&#45;&gt;Node13 -->
<g id="edge167" class="edge">
<title>Node138&#45;&gt;Node13</title>
<path fill="none" stroke="midnightblue" d="M2674.28,-72.54C2661.79,-70.7 2645.96,-68.52 2631.8,-67 2391.77,-41.21 2101.17,-23.7 2005.24,-18.28"/>
<polygon fill="midnightblue" stroke="midnightblue" points="2005.21,-14.77 1995.03,-17.71 2004.82,-21.76 2005.21,-14.77"/>
</g>
<!-- Node145&#45;&gt;Node138 -->
<g id="edge170" class="edge">
<title>Node145&#45;&gt;Node138</title>
<path fill="none" stroke="midnightblue" d="M2678.43,-123.08C2681.41,-115.77 2685.73,-105.18 2689.42,-96.1"/>
<polygon fill="midnightblue" stroke="midnightblue" points="2692.7,-97.33 2693.23,-86.75 2686.22,-94.69 2692.7,-97.33"/>
</g>
<!-- Node155&#45;&gt;Node2 -->
<g id="edge174" class="edge">
<title>Node155&#45;&gt;Node2</title>
<path fill="none" stroke="midnightblue" d="M1792.67,-906.28C1741.01,-898.88 1664.26,-886.27 1598.8,-869 1595.83,-868.22 1592.77,-867.32 1589.72,-866.35"/>
<polygon fill="midnightblue" stroke="midnightblue" points="1590.74,-863.01 1580.15,-863.15 1588.52,-869.64 1590.74,-863.01"/>
</g>
<!-- Node155&#45;&gt;Node3 -->
<g id="edge175" class="edge">
<title>Node155&#45;&gt;Node3</title>
<path fill="none" stroke="midnightblue" d="M1843.08,-905.4C1826.03,-889.16 1786.4,-854.17 1745.8,-838 1399.07,-699.87 1226.7,-927.46 913.8,-724 880.5,-702.35 866.8,-687.72 866.8,-648 866.8,-648 866.8,-648 866.8,-584.5 866.8,-538.76 905.76,-211.64 937.8,-179 960.65,-155.73 1045.82,-143.87 1105.07,-138.32"/>
<polygon fill="midnightblue" stroke="midnightblue" points="1105.43,-141.8 1115.08,-137.41 1104.8,-134.83 1105.43,-141.8"/>
</g>
<!-- Node155&#45;&gt;Node8 -->
<g id="edge173" class="edge">
<title>Node155&#45;&gt;Node8</title>
<path fill="none" stroke="midnightblue" d="M1911.13,-913.87C2127.24,-913.08 2864.85,-907.56 2962.8,-869 3305.54,-734.06 3445.8,-563.85 3445.8,-195.5 3445.8,-195.5 3445.8,-195.5 3445.8,-132 3445.8,-91.46 3417.84,-85.57 3381.8,-67 3334.38,-42.56 3180.26,-26.37 3106.22,-19.8"/>
<polygon fill="midnightblue" stroke="midnightblue" points="3106.17,-16.29 3095.9,-18.91 3105.56,-23.26 3106.17,-16.29"/>
</g>
<!-- Node155&#45;&gt;Node13 -->
<g id="edge172" class="edge">
<title>Node155&#45;&gt;Node13</title>
<path fill="none" stroke="midnightblue" d="M1911.01,-906.03C2137.85,-875.12 2938.8,-762.25 2938.8,-709.5 2938.8,-709.5 2938.8,-709.5 2938.8,-584.5 2938.8,-509.71 2886.01,-507.32 2841.8,-447 2819.68,-416.82 2814.13,-409.26 2790.8,-380 2729.41,-303.04 2710.12,-287.01 2648.8,-210 2618.57,-172.03 2620.61,-153.43 2582.8,-123 2536.63,-85.85 2518.94,-82.7 2461.8,-67 2294.78,-21.1 2085.24,-16.24 2005.57,-16.19"/>
<polygon fill="midnightblue" stroke="midnightblue" points="2005.2,-12.69 1995.21,-16.22 2005.22,-19.69 2005.2,-12.69"/>
</g>
<!-- Node155&#45;&gt;Node17 -->
<g id="edge176" class="edge">
<title>Node155&#45;&gt;Node17</title>
<path fill="none" stroke="midnightblue" d="M1848.75,-905.1C1843.5,-890.4 1831.83,-860.45 1816.8,-838 1806.82,-823.1 1792.88,-808.32 1781.94,-797.69"/>
<polygon fill="midnightblue" stroke="midnightblue" points="1784.28,-795.08 1774.61,-790.74 1779.46,-800.16 1784.28,-795.08"/>
</g>
<!-- Node155&#45;&gt;Node122 -->
<g id="edge177" class="edge">
<title>Node155&#45;&gt;Node122</title>
<path fill="none" stroke="midnightblue" d="M1911.12,-907.47C1921.02,-906.53 1931.19,-905.66 1940.8,-905 2049.39,-897.52 2818.2,-908.06 2919.8,-869 3026.82,-827.86 3042.18,-768.98 3066.8,-657 3106.1,-478.26 3167.23,-379.26 3041.8,-246 3022.02,-224.98 2948.3,-210.53 2895.64,-202.64"/>
<polygon fill="midnightblue" stroke="midnightblue" points="2896.14,-199.17 2885.74,-201.19 2895.13,-206.1 2896.14,-199.17"/>
</g>
<!-- Node155&#45;&gt;Node123 -->
<g id="edge178" class="edge">
<title>Node155&#45;&gt;Node123</title>
<path fill="none" stroke="midnightblue" d="M1792.63,-911.74C1548.39,-902.41 619.42,-866.94 360.91,-857.06"/>
<polygon fill="midnightblue" stroke="midnightblue" points="360.68,-853.55 350.55,-856.67 360.41,-860.55 360.68,-853.55"/>
</g>
<!-- Node155&#45;&gt;Node134 -->
<g id="edge179" class="edge">
<title>Node155&#45;&gt;Node134</title>
<path fill="none" stroke="midnightblue" d="M1862.6,-905.47C1900.66,-875.42 2029.28,-773.87 2084.86,-729.98"/>
<polygon fill="midnightblue" stroke="midnightblue" points="2087.14,-732.64 2092.82,-723.7 2082.8,-727.15 2087.14,-732.64"/>
</g>
<!-- Node155&#45;&gt;Node135 -->
<g id="edge180" class="edge">
<title>Node155&#45;&gt;Node135</title>
<path fill="none" stroke="midnightblue" d="M1826.01,-905.48C1799.47,-896.7 1757.38,-882.79 1723.87,-871.71"/>
<polygon fill="midnightblue" stroke="midnightblue" points="1724.82,-868.34 1714.22,-868.52 1722.62,-874.98 1724.82,-868.34"/>
</g>
<!-- Node155&#45;&gt;Node137 -->
<g id="edge181" class="edge">
<title>Node155&#45;&gt;Node137</title>
<path fill="none" stroke="midnightblue" d="M1911.12,-907.48C1921.02,-906.54 1931.19,-905.67 1940.8,-905 2044.62,-897.76 2780.17,-907.65 2876.8,-869 2984.32,-825.99 3014.8,-763.8 3014.8,-648 3014.8,-648 3014.8,-648 3014.8,-461.5 3014.8,-329.95 2851.18,-247.31 2766.42,-213.32"/>
<polygon fill="midnightblue" stroke="midnightblue" points="2767.58,-210.01 2756.99,-209.6 2765.01,-216.52 2767.58,-210.01"/>
</g>
</g>
</svg>
