<?xml version="1.0" encoding="UTF-8" standalone="no"?>
<!DOCTYPE svg PUBLIC "-//W3C//DTD SVG 1.1//EN"
 "http://www.w3.org/Graphics/SVG/1.1/DTD/svg11.dtd">
<!-- Generated by graphviz version 7.1.0 (0)
 -->
<!-- Title: /software/kratos/doxygen/applications/ConstitutiveLawsApplication/custom_constitutive/auxiliary_files/cl_integrators/generic_cl_integrator_kinematic_plasticity.h Pages: 1 -->
<svg width="807pt" height="269pt"
 viewBox="0.00 0.00 807.00 269.00" xmlns="http://www.w3.org/2000/svg" xmlns:xlink="http://www.w3.org/1999/xlink">
<g id="graph0" class="graph" transform="scale(1 1) rotate(0) translate(4 265)">
<title>/software/kratos/doxygen/applications/ConstitutiveLawsApplication/custom_constitutive/auxiliary_files/cl_integrators/generic_cl_integrator_kinematic_plasticity.h</title>
<!-- Node1 -->
<g id="node1" class="node">
<title>Node1</title>
<g id="a_node1"><a xlink:title=" ">
<polygon fill="#999999" stroke="#666666" points="485,-261 309,-261 309,-187 485,-187 485,-261"/>
<text text-anchor="start" x="317" y="-249" font-family="Helvetica,sans-Serif" font-size="10.00">/software/kratos/doxygen</text>
<text text-anchor="start" x="317" y="-238" font-family="Helvetica,sans-Serif" font-size="10.00">/applications/ConstitutiveLaws</text>
<text text-anchor="start" x="317" y="-227" font-family="Helvetica,sans-Serif" font-size="10.00">Application/custom_constitutive</text>
<text text-anchor="start" x="317" y="-216" font-family="Helvetica,sans-Serif" font-size="10.00">/auxiliary_files/cl_integrators</text>
<text text-anchor="start" x="317" y="-205" font-family="Helvetica,sans-Serif" font-size="10.00">/generic_cl_integrator_kinematic</text>
<text text-anchor="middle" x="397" y="-194" font-family="Helvetica,sans-Serif" font-size="10.00">_plasticity.h</text>
</a>
</g>
</g>
<!-- Node2 -->
<g id="node2" class="node">
<title>Node2</title>
<g id="a_node2"><a xlink:href="../../dc/d99/constitutive__laws__application_8h.html" target="_top" xlink:title=" ">
<polygon fill="white" stroke="#666666" points="166,-145.5 0,-145.5 0,-93.5 166,-93.5 166,-145.5"/>
<text text-anchor="start" x="8" y="-133.5" font-family="Helvetica,sans-Serif" font-size="10.00">/software/kratos/doxygen</text>
<text text-anchor="start" x="8" y="-122.5" font-family="Helvetica,sans-Serif" font-size="10.00">/applications/ConstitutiveLaws</text>
<text text-anchor="start" x="8" y="-111.5" font-family="Helvetica,sans-Serif" font-size="10.00">Application/constitutive_laws</text>
<text text-anchor="middle" x="83" y="-100.5" font-family="Helvetica,sans-Serif" font-size="10.00">_application.h</text>
</a>
</g>
</g>
<!-- Node1&#45;&gt;Node2 -->
<g id="edge1" class="edge">
<title>Node1&#45;&gt;Node2</title>
<path fill="none" stroke="#63b8ff" d="M297.95,-190.77C259.82,-178.36 215.88,-164.04 176,-151 170.99,-149.36 165.84,-147.68 160.64,-145.97"/>
<polygon fill="#63b8ff" stroke="#63b8ff" points="296.51,-193.99 307.1,-193.75 298.67,-187.33 296.51,-193.99"/>
</g>
<!-- Node4 -->
<g id="node4" class="node">
<title>Node4</title>
<g id="a_node4"><a xlink:href="../../da/d98/generic__finite__strain__kinematic__plasticity_8cpp.html" target="_top" xlink:title=" ">
<polygon fill="white" stroke="#666666" points="387.5,-151 184.5,-151 184.5,-88 387.5,-88 387.5,-151"/>
<text text-anchor="start" x="192.5" y="-139" font-family="Helvetica,sans-Serif" font-size="10.00">/software/kratos/doxygen</text>
<text text-anchor="start" x="192.5" y="-128" font-family="Helvetica,sans-Serif" font-size="10.00">/applications/ConstitutiveLaws</text>
<text text-anchor="start" x="192.5" y="-117" font-family="Helvetica,sans-Serif" font-size="10.00">Application/custom_constitutive</text>
<text text-anchor="start" x="192.5" y="-106" font-family="Helvetica,sans-Serif" font-size="10.00">/finite_strains/plasticity/generic</text>
<text text-anchor="middle" x="286" y="-95" font-family="Helvetica,sans-Serif" font-size="10.00">_finite_strain_kinematic_plasticity.cpp</text>
</a>
</g>
</g>
<!-- Node1&#45;&gt;Node4 -->
<g id="edge3" class="edge">
<title>Node1&#45;&gt;Node4</title>
<path fill="none" stroke="#63b8ff" d="M349.23,-178.89C339.2,-169.63 328.82,-160.04 319.44,-151.38"/>
<polygon fill="#63b8ff" stroke="#63b8ff" points="346.72,-181.33 356.44,-185.55 351.47,-176.19 346.72,-181.33"/>
</g>
<!-- Node5 -->
<g id="node5" class="node">
<title>Node5</title>
<g id="a_node5"><a xlink:href="../../df/dcc/generic__small__strain__kinematic__plasticity_8cpp.html" target="_top" xlink:title=" ">
<polygon fill="white" stroke="#666666" points="610.5,-151 405.5,-151 405.5,-88 610.5,-88 610.5,-151"/>
<text text-anchor="start" x="413.5" y="-139" font-family="Helvetica,sans-Serif" font-size="10.00">/software/kratos/doxygen</text>
<text text-anchor="start" x="413.5" y="-128" font-family="Helvetica,sans-Serif" font-size="10.00">/applications/ConstitutiveLaws</text>
<text text-anchor="start" x="413.5" y="-117" font-family="Helvetica,sans-Serif" font-size="10.00">Application/custom_constitutive</text>
<text text-anchor="start" x="413.5" y="-106" font-family="Helvetica,sans-Serif" font-size="10.00">/small_strains/plasticity/generic</text>
<text text-anchor="middle" x="508" y="-95" font-family="Helvetica,sans-Serif" font-size="10.00">_small_strain_kinematic_plasticity.cpp</text>
</a>
</g>
</g>
<!-- Node1&#45;&gt;Node5 -->
<g id="edge4" class="edge">
<title>Node1&#45;&gt;Node5</title>
<path fill="none" stroke="#63b8ff" d="M444.77,-178.89C454.8,-169.63 465.18,-160.04 474.56,-151.38"/>
<polygon fill="#63b8ff" stroke="#63b8ff" points="442.53,-176.19 437.56,-185.55 447.28,-181.33 442.53,-176.19"/>
</g>
<!-- Node6 -->
<g id="node6" class="node">
<title>Node6</title>
<g id="a_node6"><a xlink:href="../../d8/d97/_constitutive_laws_application_2custom__python_2add__custom__constitutive__laws__to__python_8cpp.html" target="_top" xlink:title=" ">
<polygon fill="white" stroke="#666666" points="799,-151 629,-151 629,-88 799,-88 799,-151"/>
<text text-anchor="start" x="637" y="-139" font-family="Helvetica,sans-Serif" font-size="10.00">/software/kratos/doxygen</text>
<text text-anchor="start" x="637" y="-128" font-family="Helvetica,sans-Serif" font-size="10.00">/applications/ConstitutiveLaws</text>
<text text-anchor="start" x="637" y="-117" font-family="Helvetica,sans-Serif" font-size="10.00">Application/custom_python/add</text>
<text text-anchor="start" x="637" y="-106" font-family="Helvetica,sans-Serif" font-size="10.00">_custom_constitutive_laws_to</text>
<text text-anchor="middle" x="714" y="-95" font-family="Helvetica,sans-Serif" font-size="10.00">_python.cpp</text>
</a>
</g>
</g>
<!-- Node1&#45;&gt;Node6 -->
<g id="edge5" class="edge">
<title>Node1&#45;&gt;Node6</title>
<path fill="none" stroke="#63b8ff" d="M496.19,-191.01C534.83,-178.54 579.49,-164.11 620,-151 622.86,-150.08 625.76,-149.13 628.7,-148.18"/>
<polygon fill="#63b8ff" stroke="#63b8ff" points="495.34,-187.61 486.89,-194.01 497.49,-194.27 495.34,-187.61"/>
</g>
<!-- Node3 -->
<g id="node3" class="node">
<title>Node3</title>
<g id="a_node3"><a xlink:href="../../d3/d03/constitutive__laws__application_8cpp.html" target="_top" xlink:title=" ">
<polygon fill="white" stroke="#666666" points="166,-52 0,-52 0,0 166,0 166,-52"/>
<text text-anchor="start" x="8" y="-40" font-family="Helvetica,sans-Serif" font-size="10.00">/software/kratos/doxygen</text>
<text text-anchor="start" x="8" y="-29" font-family="Helvetica,sans-Serif" font-size="10.00">/applications/ConstitutiveLaws</text>
<text text-anchor="start" x="8" y="-18" font-family="Helvetica,sans-Serif" font-size="10.00">Application/constitutive_laws</text>
<text text-anchor="middle" x="83" y="-7" font-family="Helvetica,sans-Serif" font-size="10.00">_application.cpp</text>
</a>
</g>
</g>
<!-- Node2&#45;&gt;Node3 -->
<g id="edge2" class="edge">
<title>Node2&#45;&gt;Node3</title>
<path fill="none" stroke="#63b8ff" d="M83,-81.8C83,-71.92 83,-61.46 83,-52.35"/>
<polygon fill="#63b8ff" stroke="#63b8ff" points="79.5,-81.5 83,-91.5 86.5,-81.5 79.5,-81.5"/>
</g>
</g>
</svg>
