<?xml version="1.0" encoding="UTF-8" standalone="no"?>
<!DOCTYPE svg PUBLIC "-//W3C//DTD SVG 1.1//EN"
 "http://www.w3.org/Graphics/SVG/1.1/DTD/svg11.dtd">
<!-- Generated by graphviz version 7.1.0 (0)
 -->
<!-- Title: /software/kratos/doxygen/applications/RANSApplication/custom_elements/convection_diffusion_reaction_cross_wind_stabilized_element.h Pages: 1 -->
<svg width="358pt" height="247pt"
 viewBox="0.00 0.00 358.00 247.00" xmlns="http://www.w3.org/2000/svg" xmlns:xlink="http://www.w3.org/1999/xlink">
<g id="graph0" class="graph" transform="scale(1 1) rotate(0) translate(4 243)">
<title>/software/kratos/doxygen/applications/RANSApplication/custom_elements/convection_diffusion_reaction_cross_wind_stabilized_element.h</title>
<!-- Node1 -->
<g id="node1" class="node">
<title>Node1</title>
<g id="a_node1"><a xlink:title=" ">
<polygon fill="#999999" stroke="#666666" points="260,-239 92,-239 92,-176 260,-176 260,-239"/>
<text text-anchor="start" x="100" y="-227" font-family="Helvetica,sans-Serif" font-size="10.00">/software/kratos/doxygen</text>
<text text-anchor="start" x="100" y="-216" font-family="Helvetica,sans-Serif" font-size="10.00">/applications/RANSApplication</text>
<text text-anchor="start" x="100" y="-205" font-family="Helvetica,sans-Serif" font-size="10.00">/custom_elements/convection</text>
<text text-anchor="start" x="100" y="-194" font-family="Helvetica,sans-Serif" font-size="10.00">_diffusion_reaction_cross_wind</text>
<text text-anchor="middle" x="176" y="-183" font-family="Helvetica,sans-Serif" font-size="10.00">_stabilized_element.h</text>
</a>
</g>
</g>
<!-- Node2 -->
<g id="node2" class="node">
<title>Node2</title>
<g id="a_node2"><a xlink:href="../../da/db6/convection__diffusion__reaction__cross__wind__stabilized__element_8cpp.html" target="_top" xlink:title=" ">
<polygon fill="white" stroke="#666666" points="168,-140 0,-140 0,-77 168,-77 168,-140"/>
<text text-anchor="start" x="8" y="-128" font-family="Helvetica,sans-Serif" font-size="10.00">/software/kratos/doxygen</text>
<text text-anchor="start" x="8" y="-117" font-family="Helvetica,sans-Serif" font-size="10.00">/applications/RANSApplication</text>
<text text-anchor="start" x="8" y="-106" font-family="Helvetica,sans-Serif" font-size="10.00">/custom_elements/convection</text>
<text text-anchor="start" x="8" y="-95" font-family="Helvetica,sans-Serif" font-size="10.00">_diffusion_reaction_cross_wind</text>
<text text-anchor="middle" x="84" y="-84" font-family="Helvetica,sans-Serif" font-size="10.00">_stabilized_element.cpp</text>
</a>
</g>
</g>
<!-- Node1&#45;&gt;Node2 -->
<g id="edge1" class="edge">
<title>Node1&#45;&gt;Node2</title>
<path fill="none" stroke="#63b8ff" d="M138.72,-167.19C130.29,-158.3 121.45,-148.99 113.4,-140.5"/>
<polygon fill="#63b8ff" stroke="#63b8ff" points="136.18,-169.6 145.6,-174.44 141.25,-164.78 136.18,-169.6"/>
</g>
<!-- Node3 -->
<g id="node3" class="node">
<title>Node3</title>
<g id="a_node3"><a xlink:href="../../d8/d1c/rans__application_8h.html" target="_top" xlink:title=" ">
<polygon fill="white" stroke="#666666" points="350,-129 186,-129 186,-88 350,-88 350,-129"/>
<text text-anchor="start" x="194" y="-117" font-family="Helvetica,sans-Serif" font-size="10.00">/software/kratos/doxygen</text>
<text text-anchor="start" x="194" y="-106" font-family="Helvetica,sans-Serif" font-size="10.00">/applications/RANSApplication</text>
<text text-anchor="middle" x="268" y="-95" font-family="Helvetica,sans-Serif" font-size="10.00">/rans_application.h</text>
</a>
</g>
</g>
<!-- Node1&#45;&gt;Node3 -->
<g id="edge2" class="edge">
<title>Node1&#45;&gt;Node3</title>
<path fill="none" stroke="#63b8ff" d="M213.27,-167.2C225.56,-154.24 238.71,-140.38 249.04,-129.49"/>
<polygon fill="#63b8ff" stroke="#63b8ff" points="210.75,-164.78 206.4,-174.44 215.82,-169.6 210.75,-164.78"/>
</g>
<!-- Node4 -->
<g id="node4" class="node">
<title>Node4</title>
<g id="a_node4"><a xlink:href="../../d3/d7b/rans__application_8cpp.html" target="_top" xlink:title=" ">
<polygon fill="white" stroke="#666666" points="350,-41 186,-41 186,0 350,0 350,-41"/>
<text text-anchor="start" x="194" y="-29" font-family="Helvetica,sans-Serif" font-size="10.00">/software/kratos/doxygen</text>
<text text-anchor="start" x="194" y="-18" font-family="Helvetica,sans-Serif" font-size="10.00">/applications/RANSApplication</text>
<text text-anchor="middle" x="268" y="-7" font-family="Helvetica,sans-Serif" font-size="10.00">/rans_application.cpp</text>
</a>
</g>
</g>
<!-- Node3&#45;&gt;Node4 -->
<g id="edge3" class="edge">
<title>Node3&#45;&gt;Node4</title>
<path fill="none" stroke="#63b8ff" d="M268,-76.06C268,-64.45 268,-51.63 268,-41.34"/>
<polygon fill="#63b8ff" stroke="#63b8ff" points="264.5,-76.04 268,-86.04 271.5,-76.04 264.5,-76.04"/>
</g>
</g>
</svg>
