<?xml version="1.0" encoding="UTF-8" standalone="no"?>
<!DOCTYPE svg PUBLIC "-//W3C//DTD SVG 1.1//EN"
 "http://www.w3.org/Graphics/SVG/1.1/DTD/svg11.dtd">
<!-- Generated by graphviz version 2.43.0 (0)
 -->
<!-- Title: /home/runner/work/Documentation/Documentation/master/applications/GeoMechanicsApplication/custom_strategies/strategies/geo_mechanics_newton_raphson_strategy.hpp Pages: 1 -->
<svg width="584pt" height="450pt"
 viewBox="0.00 0.00 583.95 450.00" xmlns="http://www.w3.org/2000/svg" xmlns:xlink="http://www.w3.org/1999/xlink">
<g id="graph0" class="graph" transform="scale(1 1) rotate(0) translate(4 446)">
<title>/home/runner/work/Documentation/Documentation/master/applications/GeoMechanicsApplication/custom_strategies/strategies/geo_mechanics_newton_raphson_strategy.hpp</title>
<!-- Node1 -->
<g id="node1" class="node">
<title>Node1</title>
<g id="a_node1"><a xlink:title=" ">
<polygon fill="#bfbfbf" stroke="black" points="19.95,-378.5 19.95,-441.5 220.95,-441.5 220.95,-378.5 19.95,-378.5"/>
<text text-anchor="start" x="27.95" y="-429.5" font-family="Helvetica,sans-Serif" font-size="10.00">/home/runner/work/Documentation</text>
<text text-anchor="start" x="27.95" y="-418.5" font-family="Helvetica,sans-Serif" font-size="10.00">/Documentation/master/applications</text>
<text text-anchor="start" x="27.95" y="-407.5" font-family="Helvetica,sans-Serif" font-size="10.00">/GeoMechanicsApplication/custom</text>
<text text-anchor="start" x="27.95" y="-396.5" font-family="Helvetica,sans-Serif" font-size="10.00">_strategies/strategies/geo_mechanics</text>
<text text-anchor="middle" x="120.45" y="-385.5" font-family="Helvetica,sans-Serif" font-size="10.00">_newton_raphson_strategy.hpp</text>
</a>
</g>
</g>
<!-- Node2 -->
<g id="node2" class="node">
<title>Node2</title>
<g id="a_node2"><a xlink:href="../../d2/db7/_geo_mechanics_application_2custom__python_2add__custom__strategies__to__python_8cpp.html" target="_top" xlink:title=" ">
<polygon fill="none" stroke="black" points="23.45,-178.5 23.45,-241.5 217.45,-241.5 217.45,-178.5 23.45,-178.5"/>
<text text-anchor="start" x="31.45" y="-229.5" font-family="Helvetica,sans-Serif" font-size="10.00">/home/runner/work/Documentation</text>
<text text-anchor="start" x="31.45" y="-218.5" font-family="Helvetica,sans-Serif" font-size="10.00">/Documentation/master/applications</text>
<text text-anchor="start" x="31.45" y="-207.5" font-family="Helvetica,sans-Serif" font-size="10.00">/GeoMechanicsApplication/custom</text>
<text text-anchor="start" x="31.45" y="-196.5" font-family="Helvetica,sans-Serif" font-size="10.00">_python/add_custom_strategies_to</text>
<text text-anchor="middle" x="120.45" y="-185.5" font-family="Helvetica,sans-Serif" font-size="10.00">_python.cpp</text>
</a>
</g>
</g>
<!-- Node1&#45;&gt;Node2 -->
<g id="edge1" class="edge">
<title>Node1&#45;&gt;Node2</title>
<path fill="none" stroke="midnightblue" d="M38.14,-372.53C27.05,-364.1 17.19,-354 10.45,-342 -3.48,-317.2 -3.48,-302.8 10.45,-278 18.83,-263.09 32.02,-251.1 46.4,-241.63"/>
<polygon fill="midnightblue" stroke="midnightblue" points="36.22,-375.46 46.4,-378.37 40.26,-369.74 36.22,-375.46"/>
</g>
<!-- Node3 -->
<g id="node3" class="node">
<title>Node3</title>
<g id="a_node3"><a xlink:href="../../d2/d49/geo__mechanics__newton__raphson__erosion__process__strategy_8hpp.html" target="_top" xlink:title=" ">
<polygon fill="none" stroke="black" points="238.95,-278.5 238.95,-341.5 489.95,-341.5 489.95,-278.5 238.95,-278.5"/>
<text text-anchor="start" x="246.95" y="-329.5" font-family="Helvetica,sans-Serif" font-size="10.00">/home/runner/work/Documentation</text>
<text text-anchor="start" x="246.95" y="-318.5" font-family="Helvetica,sans-Serif" font-size="10.00">/Documentation/master/applications</text>
<text text-anchor="start" x="246.95" y="-307.5" font-family="Helvetica,sans-Serif" font-size="10.00">/GeoMechanicsApplication/custom</text>
<text text-anchor="start" x="246.95" y="-296.5" font-family="Helvetica,sans-Serif" font-size="10.00">_strategies/strategies/geo_mechanics</text>
<text text-anchor="middle" x="364.45" y="-285.5" font-family="Helvetica,sans-Serif" font-size="10.00">_newton_raphson_erosion_process_strategy.hpp</text>
</a>
</g>
</g>
<!-- Node1&#45;&gt;Node3 -->
<g id="edge2" class="edge">
<title>Node1&#45;&gt;Node3</title>
<path fill="none" stroke="midnightblue" d="M206.02,-374.63C232.86,-363.85 262.28,-352.04 288.41,-341.54"/>
<polygon fill="midnightblue" stroke="midnightblue" points="204.62,-371.42 196.65,-378.4 207.23,-377.92 204.62,-371.42"/>
</g>
<!-- Node8 -->
<g id="node8" class="node">
<title>Node8</title>
<g id="a_node8"><a xlink:href="../../de/d01/geo__mechanics__ramm__arc__length__strategy_8hpp.html" target="_top" xlink:title=" ">
<polygon fill="none" stroke="black" points="19.95,-278.5 19.95,-341.5 220.95,-341.5 220.95,-278.5 19.95,-278.5"/>
<text text-anchor="start" x="27.95" y="-329.5" font-family="Helvetica,sans-Serif" font-size="10.00">/home/runner/work/Documentation</text>
<text text-anchor="start" x="27.95" y="-318.5" font-family="Helvetica,sans-Serif" font-size="10.00">/Documentation/master/applications</text>
<text text-anchor="start" x="27.95" y="-307.5" font-family="Helvetica,sans-Serif" font-size="10.00">/GeoMechanicsApplication/custom</text>
<text text-anchor="start" x="27.95" y="-296.5" font-family="Helvetica,sans-Serif" font-size="10.00">_strategies/strategies/geo_mechanics</text>
<text text-anchor="middle" x="120.45" y="-285.5" font-family="Helvetica,sans-Serif" font-size="10.00">_ramm_arc_length_strategy.hpp</text>
</a>
</g>
</g>
<!-- Node1&#45;&gt;Node8 -->
<g id="edge8" class="edge">
<title>Node1&#45;&gt;Node8</title>
<path fill="none" stroke="midnightblue" d="M120.45,-368.1C120.45,-359.24 120.45,-350.01 120.45,-341.63"/>
<polygon fill="midnightblue" stroke="midnightblue" points="116.95,-368.26 120.45,-378.26 123.95,-368.26 116.95,-368.26"/>
</g>
<!-- Node3&#45;&gt;Node2 -->
<g id="edge3" class="edge">
<title>Node3&#45;&gt;Node2</title>
<path fill="none" stroke="midnightblue" d="M278.88,-274.63C252.04,-263.85 222.62,-252.04 196.49,-241.54"/>
<polygon fill="midnightblue" stroke="midnightblue" points="277.67,-277.92 288.25,-278.4 280.27,-271.42 277.67,-277.92"/>
</g>
<!-- Node4 -->
<g id="node4" class="node">
<title>Node4</title>
<g id="a_node4"><a xlink:href="../../da/d42/dgeoflow_8h.html" target="_top" xlink:title=" ">
<polygon fill="none" stroke="black" points="267.45,-184 267.45,-236 461.45,-236 461.45,-184 267.45,-184"/>
<text text-anchor="start" x="275.45" y="-224" font-family="Helvetica,sans-Serif" font-size="10.00">/home/runner/work/Documentation</text>
<text text-anchor="start" x="275.45" y="-213" font-family="Helvetica,sans-Serif" font-size="10.00">/Documentation/master/applications</text>
<text text-anchor="start" x="275.45" y="-202" font-family="Helvetica,sans-Serif" font-size="10.00">/GeoMechanicsApplication/custom</text>
<text text-anchor="middle" x="364.45" y="-191" font-family="Helvetica,sans-Serif" font-size="10.00">_workflows/dgeoflow.h</text>
</a>
</g>
</g>
<!-- Node3&#45;&gt;Node4 -->
<g id="edge4" class="edge">
<title>Node3&#45;&gt;Node4</title>
<path fill="none" stroke="midnightblue" d="M364.45,-268.08C364.45,-257.21 364.45,-245.79 364.45,-236.05"/>
<polygon fill="midnightblue" stroke="midnightblue" points="360.95,-268.26 364.45,-278.26 367.95,-268.26 360.95,-268.26"/>
</g>
<!-- Node5 -->
<g id="node5" class="node">
<title>Node5</title>
<g id="a_node5"><a xlink:href="../../d7/d88/dgeoflow_8cpp.html" target="_top" xlink:title=" ">
<polygon fill="none" stroke="black" points="160.45,-89.5 160.45,-141.5 354.45,-141.5 354.45,-89.5 160.45,-89.5"/>
<text text-anchor="start" x="168.45" y="-129.5" font-family="Helvetica,sans-Serif" font-size="10.00">/home/runner/work/Documentation</text>
<text text-anchor="start" x="168.45" y="-118.5" font-family="Helvetica,sans-Serif" font-size="10.00">/Documentation/master/applications</text>
<text text-anchor="start" x="168.45" y="-107.5" font-family="Helvetica,sans-Serif" font-size="10.00">/GeoMechanicsApplication/custom</text>
<text text-anchor="middle" x="257.45" y="-96.5" font-family="Helvetica,sans-Serif" font-size="10.00">_workflows/dgeoflow.cpp</text>
</a>
</g>
</g>
<!-- Node4&#45;&gt;Node5 -->
<g id="edge5" class="edge">
<title>Node4&#45;&gt;Node5</title>
<path fill="none" stroke="midnightblue" d="M327.76,-177.28C314.25,-165.61 299.16,-152.56 286.43,-141.55"/>
<polygon fill="midnightblue" stroke="midnightblue" points="325.64,-180.08 335.49,-183.97 330.22,-174.78 325.64,-180.08"/>
</g>
<!-- Node6 -->
<g id="node6" class="node">
<title>Node6</title>
<g id="a_node6"><a xlink:href="../../d4/d24/kratos__external__bindings_8h.html" target="_top" xlink:title=" ">
<polygon fill="none" stroke="black" points="372.45,-89.5 372.45,-141.5 570.45,-141.5 570.45,-89.5 372.45,-89.5"/>
<text text-anchor="start" x="380.45" y="-129.5" font-family="Helvetica,sans-Serif" font-size="10.00">/home/runner/work/Documentation</text>
<text text-anchor="start" x="380.45" y="-118.5" font-family="Helvetica,sans-Serif" font-size="10.00">/Documentation/master/applications</text>
<text text-anchor="start" x="380.45" y="-107.5" font-family="Helvetica,sans-Serif" font-size="10.00">/GeoMechanicsApplication/external</text>
<text text-anchor="middle" x="471.45" y="-96.5" font-family="Helvetica,sans-Serif" font-size="10.00">_bindings/kratos_external_bindings.h</text>
</a>
</g>
</g>
<!-- Node4&#45;&gt;Node6 -->
<g id="edge6" class="edge">
<title>Node4&#45;&gt;Node6</title>
<path fill="none" stroke="midnightblue" d="M401.14,-177.28C414.65,-165.61 429.74,-152.56 442.47,-141.55"/>
<polygon fill="midnightblue" stroke="midnightblue" points="398.68,-174.78 393.4,-183.97 403.26,-180.08 398.68,-174.78"/>
</g>
<!-- Node7 -->
<g id="node7" class="node">
<title>Node7</title>
<g id="a_node7"><a xlink:href="../../dd/d6d/_geo_mechanics_application_2external__bindings_2kratos__external__bindings_8cpp.html" target="_top" xlink:title=" ">
<polygon fill="none" stroke="black" points="366.95,-0.5 366.95,-52.5 575.95,-52.5 575.95,-0.5 366.95,-0.5"/>
<text text-anchor="start" x="374.95" y="-40.5" font-family="Helvetica,sans-Serif" font-size="10.00">/home/runner/work/Documentation</text>
<text text-anchor="start" x="374.95" y="-29.5" font-family="Helvetica,sans-Serif" font-size="10.00">/Documentation/master/applications</text>
<text text-anchor="start" x="374.95" y="-18.5" font-family="Helvetica,sans-Serif" font-size="10.00">/GeoMechanicsApplication/external</text>
<text text-anchor="middle" x="471.45" y="-7.5" font-family="Helvetica,sans-Serif" font-size="10.00">_bindings/kratos_external_bindings.cpp</text>
</a>
</g>
</g>
<!-- Node6&#45;&gt;Node7 -->
<g id="edge7" class="edge">
<title>Node6&#45;&gt;Node7</title>
<path fill="none" stroke="midnightblue" d="M471.45,-79.19C471.45,-70.28 471.45,-60.9 471.45,-52.61"/>
<polygon fill="midnightblue" stroke="midnightblue" points="467.95,-79.34 471.45,-89.34 474.95,-79.34 467.95,-79.34"/>
</g>
<!-- Node8&#45;&gt;Node2 -->
<g id="edge9" class="edge">
<title>Node8&#45;&gt;Node2</title>
<path fill="none" stroke="midnightblue" d="M120.45,-268.1C120.45,-259.24 120.45,-250.01 120.45,-241.63"/>
<polygon fill="midnightblue" stroke="midnightblue" points="116.95,-268.26 120.45,-278.26 123.95,-268.26 116.95,-268.26"/>
</g>
</g>
</svg>
