<?xml version="1.0" encoding="UTF-8" standalone="no"?>
<!DOCTYPE svg PUBLIC "-//W3C//DTD SVG 1.1//EN"
 "http://www.w3.org/Graphics/SVG/1.1/DTD/svg11.dtd">
<!-- Generated by graphviz version 7.1.0 (0)
 -->
<!-- Title: /software/kratos/doxygen/applications/ConstitutiveLawsApplication/custom_constitutive/auxiliary_files/plastic_potentials/drucker_prager_plastic_potential.h Pages: 1 -->
<!--zoomable 269 -->
<svg id="main" version="1.1" xmlns="http://www.w3.org/2000/svg" xmlns:xlink="http://www.w3.org/1999/xlink" xml:space="preserve" onload="init(evt)">
<style type="text/css"><![CDATA[
.edge:hover path { stroke: red; }
.edge:hover polygon { stroke: red; fill: red; }
]]></style>
<script type="text/javascript"><![CDATA[
var edges = document.getElementsByTagName('g');
if (edges && edges.length) {
  for (var i=0;i<edges.length;i++) {
    if (edges[i].id.substr(0,4)=='edge') {
      edges[i].setAttribute('class','edge');
    }
  }
}
]]></script>
        <defs>
                <circle id="rim" cx="0" cy="0" r="7"/>
                <circle id="rim2" cx="0" cy="0" r="3.5"/>
                <g id="zoomPlus">
                        <use xlink:href="#rim" fill="#404040">
                                <set attributeName="fill" to="#808080" begin="zoomplus.mouseover" end="zoomplus.mouseout"/>
                        </use>
                        <path d="M-4,0h8M0,-4v8" fill="none" stroke="white" stroke-width="1.5" pointer-events="none"/>
                </g>
                <g id="zoomMin">
                        <use xlink:href="#rim" fill="#404040">
                                <set attributeName="fill" to="#808080" begin="zoomminus.mouseover" end="zoomminus.mouseout"/>
                        </use>
                        <path d="M-4,0h8" fill="none" stroke="white" stroke-width="1.5" pointer-events="none"/>
                </g>
                <g id="dirArrow">
                        <path fill="none" stroke="white" stroke-width="1.5" d="M0,-3.0v7 M-2.5,-0.5L0,-3.0L2.5,-0.5"/>
                </g>
               <g id="resetDef">
                       <use xlink:href="#rim2" fill="#404040">
                               <set attributeName="fill" to="#808080" begin="reset.mouseover" end="reset.mouseout"/>
                       </use>
               </g>
        </defs>

<script type="text/javascript">
var viewWidth = 3012;
var viewHeight = 269;
var sectionId = 'dynsection-1';
</script>
<script xlink:href="../../svgpan.js"/>
<svg id="graph" class="graph">
<g id="viewport">
<title>/software/kratos/doxygen/applications/ConstitutiveLawsApplication/custom_constitutive/auxiliary_files/plastic_potentials/drucker_prager_plastic_potential.h</title>
<!-- Node1 -->
<g id="node1" class="node">
<title>Node1</title>
<g id="a_node1"><a xlink:title=" ">
<polygon fill="#999999" stroke="#666666" points="1585,-261 1397,-261 1397,-198 1585,-198 1585,-261"/>
<text text-anchor="start" x="1405" y="-249" font-family="Helvetica,sans-Serif" font-size="10.00">/software/kratos/doxygen</text>
<text text-anchor="start" x="1405" y="-238" font-family="Helvetica,sans-Serif" font-size="10.00">/applications/ConstitutiveLaws</text>
<text text-anchor="start" x="1405" y="-227" font-family="Helvetica,sans-Serif" font-size="10.00">Application/custom_constitutive</text>
<text text-anchor="start" x="1405" y="-216" font-family="Helvetica,sans-Serif" font-size="10.00">/auxiliary_files/plastic_potentials</text>
<text text-anchor="middle" x="1491" y="-205" font-family="Helvetica,sans-Serif" font-size="10.00">/drucker_prager_plastic_potential.h</text>
</a>
</g>
</g>
<!-- Node2 -->
<g id="node2" class="node">
<title>Node2</title>
<g id="a_node2"><a xlink:href="../../dc/d99/constitutive__laws__application_8h.html" target="_top" xlink:title=" ">
<polygon fill="white" stroke="#666666" points="166,-151 0,-151 0,-99 166,-99 166,-151"/>
<text text-anchor="start" x="8" y="-139" font-family="Helvetica,sans-Serif" font-size="10.00">/software/kratos/doxygen</text>
<text text-anchor="start" x="8" y="-128" font-family="Helvetica,sans-Serif" font-size="10.00">/applications/ConstitutiveLaws</text>
<text text-anchor="start" x="8" y="-117" font-family="Helvetica,sans-Serif" font-size="10.00">Application/constitutive_laws</text>
<text text-anchor="middle" x="83" y="-106" font-family="Helvetica,sans-Serif" font-size="10.00">_application.h</text>
</a>
</g>
</g>
<!-- Node1&#45;&gt;Node2 -->
<g id="edge1" class="edge">
<title>Node1&#45;&gt;Node2</title>
<path fill="none" stroke="#63b8ff" d="M1385.56,-227.54C1115.7,-224.38 405.13,-211.47 175,-162 163.26,-159.48 151.06,-155.64 139.54,-151.4"/>
<polygon fill="#63b8ff" stroke="#63b8ff" points="1385.36,-231.04 1395.4,-227.65 1385.44,-224.04 1385.36,-231.04"/>
</g>
<!-- Node4 -->
<g id="node4" class="node">
<title>Node4</title>
<g id="a_node4"><a xlink:href="../../d2/d76/generic__finite__strain__isotropic__plasticity_8cpp.html" target="_top" xlink:title=" ">
<polygon fill="white" stroke="#666666" points="380,-156.5 184,-156.5 184,-93.5 380,-93.5 380,-156.5"/>
<text text-anchor="start" x="192" y="-144.5" font-family="Helvetica,sans-Serif" font-size="10.00">/software/kratos/doxygen</text>
<text text-anchor="start" x="192" y="-133.5" font-family="Helvetica,sans-Serif" font-size="10.00">/applications/ConstitutiveLaws</text>
<text text-anchor="start" x="192" y="-122.5" font-family="Helvetica,sans-Serif" font-size="10.00">Application/custom_constitutive</text>
<text text-anchor="start" x="192" y="-111.5" font-family="Helvetica,sans-Serif" font-size="10.00">/finite_strains/plasticity/generic</text>
<text text-anchor="middle" x="282" y="-100.5" font-family="Helvetica,sans-Serif" font-size="10.00">_finite_strain_isotropic_plasticity.cpp</text>
</a>
</g>
</g>
<!-- Node1&#45;&gt;Node4 -->
<g id="edge3" class="edge">
<title>Node1&#45;&gt;Node4</title>
<path fill="none" stroke="#63b8ff" d="M1385.53,-225.64C1148.29,-218.64 578.68,-198.49 390,-162 382.92,-160.63 375.66,-158.92 368.42,-156.99"/>
<polygon fill="#63b8ff" stroke="#63b8ff" points="1385.3,-229.14 1395.4,-225.93 1385.5,-222.14 1385.3,-229.14"/>
</g>
<!-- Node5 -->
<g id="node5" class="node">
<title>Node5</title>
<g id="a_node5"><a xlink:href="../../da/d98/generic__finite__strain__kinematic__plasticity_8cpp.html" target="_top" xlink:title=" ">
<polygon fill="white" stroke="#666666" points="601.5,-156.5 398.5,-156.5 398.5,-93.5 601.5,-93.5 601.5,-156.5"/>
<text text-anchor="start" x="406.5" y="-144.5" font-family="Helvetica,sans-Serif" font-size="10.00">/software/kratos/doxygen</text>
<text text-anchor="start" x="406.5" y="-133.5" font-family="Helvetica,sans-Serif" font-size="10.00">/applications/ConstitutiveLaws</text>
<text text-anchor="start" x="406.5" y="-122.5" font-family="Helvetica,sans-Serif" font-size="10.00">Application/custom_constitutive</text>
<text text-anchor="start" x="406.5" y="-111.5" font-family="Helvetica,sans-Serif" font-size="10.00">/finite_strains/plasticity/generic</text>
<text text-anchor="middle" x="500" y="-100.5" font-family="Helvetica,sans-Serif" font-size="10.00">_finite_strain_kinematic_plasticity.cpp</text>
</a>
</g>
</g>
<!-- Node1&#45;&gt;Node5 -->
<g id="edge4" class="edge">
<title>Node1&#45;&gt;Node5</title>
<path fill="none" stroke="#63b8ff" d="M1385.37,-228.59C1219.06,-226.94 886.71,-216.32 611,-162 603.84,-160.59 596.51,-158.87 589.18,-156.94"/>
<polygon fill="#63b8ff" stroke="#63b8ff" points="1385.02,-232.09 1395.05,-228.68 1385.08,-225.09 1385.02,-232.09"/>
</g>
<!-- Node6 -->
<g id="node6" class="node">
<title>Node6</title>
<g id="a_node6"><a xlink:href="../../d5/df0/generic__small__strain__d__plus__d__minus__damage_8cpp.html" target="_top" xlink:title=" ">
<polygon fill="white" stroke="#666666" points="850,-156.5 620,-156.5 620,-93.5 850,-93.5 850,-156.5"/>
<text text-anchor="start" x="628" y="-144.5" font-family="Helvetica,sans-Serif" font-size="10.00">/software/kratos/doxygen</text>
<text text-anchor="start" x="628" y="-133.5" font-family="Helvetica,sans-Serif" font-size="10.00">/applications/ConstitutiveLaws</text>
<text text-anchor="start" x="628" y="-122.5" font-family="Helvetica,sans-Serif" font-size="10.00">Application/custom_constitutive</text>
<text text-anchor="start" x="628" y="-111.5" font-family="Helvetica,sans-Serif" font-size="10.00">/small_strains/damage/generic</text>
<text text-anchor="middle" x="735" y="-100.5" font-family="Helvetica,sans-Serif" font-size="10.00">_small_strain_d_plus_d_minus_damage.cpp</text>
</a>
</g>
</g>
<!-- Node1&#45;&gt;Node6 -->
<g id="edge5" class="edge">
<title>Node1&#45;&gt;Node6</title>
<path fill="none" stroke="#63b8ff" d="M1385.36,-223.13C1259.16,-215.41 1042.12,-197.92 859,-162 851.52,-160.53 843.84,-158.82 836.15,-156.95"/>
<polygon fill="#63b8ff" stroke="#63b8ff" points="1384.83,-226.61 1395.02,-223.72 1385.25,-219.62 1384.83,-226.61"/>
</g>
<!-- Node7 -->
<g id="node7" class="node">
<title>Node7</title>
<g id="a_node7"><a xlink:href="../../d3/dca/generic__small__strain__isotropic__damage_8cpp.html" target="_top" xlink:title=" ">
<polygon fill="white" stroke="#666666" points="1062,-156.5 868,-156.5 868,-93.5 1062,-93.5 1062,-156.5"/>
<text text-anchor="start" x="876" y="-144.5" font-family="Helvetica,sans-Serif" font-size="10.00">/software/kratos/doxygen</text>
<text text-anchor="start" x="876" y="-133.5" font-family="Helvetica,sans-Serif" font-size="10.00">/applications/ConstitutiveLaws</text>
<text text-anchor="start" x="876" y="-122.5" font-family="Helvetica,sans-Serif" font-size="10.00">Application/custom_constitutive</text>
<text text-anchor="start" x="876" y="-111.5" font-family="Helvetica,sans-Serif" font-size="10.00">/small_strains/damage/generic</text>
<text text-anchor="middle" x="965" y="-100.5" font-family="Helvetica,sans-Serif" font-size="10.00">_small_strain_isotropic_damage.cpp</text>
</a>
</g>
</g>
<!-- Node1&#45;&gt;Node7 -->
<g id="edge6" class="edge">
<title>Node1&#45;&gt;Node7</title>
<path fill="none" stroke="#63b8ff" d="M1385.38,-216.84C1299.84,-206.19 1176.63,-188.1 1071,-162 1064.87,-160.48 1058.58,-158.77 1052.29,-156.94"/>
<polygon fill="#63b8ff" stroke="#63b8ff" points="1384.81,-220.3 1395.17,-218.04 1385.67,-213.35 1384.81,-220.3"/>
</g>
<!-- Node8 -->
<g id="node8" class="node">
<title>Node8</title>
<g id="a_node8"><a xlink:href="../../d7/d37/generic__small__strain__isotropic__damage__plane__stress_8cpp.html" target="_top" xlink:title=" ">
<polygon fill="white" stroke="#666666" points="1254,-162 1080,-162 1080,-88 1254,-88 1254,-162"/>
<text text-anchor="start" x="1088" y="-150" font-family="Helvetica,sans-Serif" font-size="10.00">/software/kratos/doxygen</text>
<text text-anchor="start" x="1088" y="-139" font-family="Helvetica,sans-Serif" font-size="10.00">/applications/ConstitutiveLaws</text>
<text text-anchor="start" x="1088" y="-128" font-family="Helvetica,sans-Serif" font-size="10.00">Application/custom_constitutive</text>
<text text-anchor="start" x="1088" y="-117" font-family="Helvetica,sans-Serif" font-size="10.00">/small_strains/damage/generic</text>
<text text-anchor="start" x="1088" y="-106" font-family="Helvetica,sans-Serif" font-size="10.00">_small_strain_isotropic_damage</text>
<text text-anchor="middle" x="1167" y="-95" font-family="Helvetica,sans-Serif" font-size="10.00">_plane_stress.cpp</text>
</a>
</g>
</g>
<!-- Node1&#45;&gt;Node8 -->
<g id="edge7" class="edge">
<title>Node1&#45;&gt;Node8</title>
<path fill="none" stroke="#63b8ff" d="M1385.97,-199.65C1347.14,-188.51 1302.87,-175.27 1263,-162 1260.13,-161.04 1257.22,-160.06 1254.28,-159.05"/>
<polygon fill="#63b8ff" stroke="#63b8ff" points="1384.74,-202.94 1395.32,-202.32 1386.66,-196.21 1384.74,-202.94"/>
</g>
<!-- Node9 -->
<g id="node9" class="node">
<title>Node9</title>
<g id="a_node9"><a xlink:href="../../d5/d94/generic__small__strain__orthotropic__damage_8cpp.html" target="_top" xlink:title=" ">
<polygon fill="white" stroke="#666666" points="1478,-156.5 1272,-156.5 1272,-93.5 1478,-93.5 1478,-156.5"/>
<text text-anchor="start" x="1280" y="-144.5" font-family="Helvetica,sans-Serif" font-size="10.00">/software/kratos/doxygen</text>
<text text-anchor="start" x="1280" y="-133.5" font-family="Helvetica,sans-Serif" font-size="10.00">/applications/ConstitutiveLaws</text>
<text text-anchor="start" x="1280" y="-122.5" font-family="Helvetica,sans-Serif" font-size="10.00">Application/custom_constitutive</text>
<text text-anchor="start" x="1280" y="-111.5" font-family="Helvetica,sans-Serif" font-size="10.00">/small_strains/damage/generic</text>
<text text-anchor="middle" x="1375" y="-100.5" font-family="Helvetica,sans-Serif" font-size="10.00">_small_strain_orthotropic_damage.cpp</text>
</a>
</g>
</g>
<!-- Node1&#45;&gt;Node9 -->
<g id="edge8" class="edge">
<title>Node1&#45;&gt;Node9</title>
<path fill="none" stroke="#63b8ff" d="M1447.72,-190.26C1435.2,-179.2 1421.71,-167.27 1409.78,-156.73"/>
<polygon fill="#63b8ff" stroke="#63b8ff" points="1445.25,-192.75 1455.06,-196.74 1449.89,-187.5 1445.25,-192.75"/>
</g>
<!-- Node10 -->
<g id="node10" class="node">
<title>Node10</title>
<g id="a_node10"><a xlink:href="../../d3/d19/generic__small__strain__high__cycle__fatigue__law_8cpp.html" target="_top" xlink:title=" ">
<polygon fill="white" stroke="#666666" points="1717.5,-156.5 1496.5,-156.5 1496.5,-93.5 1717.5,-93.5 1717.5,-156.5"/>
<text text-anchor="start" x="1504.5" y="-144.5" font-family="Helvetica,sans-Serif" font-size="10.00">/software/kratos/doxygen</text>
<text text-anchor="start" x="1504.5" y="-133.5" font-family="Helvetica,sans-Serif" font-size="10.00">/applications/ConstitutiveLaws</text>
<text text-anchor="start" x="1504.5" y="-122.5" font-family="Helvetica,sans-Serif" font-size="10.00">Application/custom_constitutive</text>
<text text-anchor="start" x="1504.5" y="-111.5" font-family="Helvetica,sans-Serif" font-size="10.00">/small_strains/fatigue/generic</text>
<text text-anchor="middle" x="1607" y="-100.5" font-family="Helvetica,sans-Serif" font-size="10.00">_small_strain_high_cycle_fatigue_law.cpp</text>
</a>
</g>
</g>
<!-- Node1&#45;&gt;Node10 -->
<g id="edge9" class="edge">
<title>Node1&#45;&gt;Node10</title>
<path fill="none" stroke="#63b8ff" d="M1534.28,-190.26C1546.8,-179.2 1560.29,-167.27 1572.22,-156.73"/>
<polygon fill="#63b8ff" stroke="#63b8ff" points="1532.11,-187.5 1526.94,-196.74 1536.75,-192.75 1532.11,-187.5"/>
</g>
<!-- Node11 -->
<g id="node11" class="node">
<title>Node11</title>
<g id="a_node11"><a xlink:href="../../dd/d67/associative__plastic__damage__model_8cpp.html" target="_top" xlink:title=" ">
<polygon fill="white" stroke="#666666" points="1950,-156.5 1736,-156.5 1736,-93.5 1950,-93.5 1950,-156.5"/>
<text text-anchor="start" x="1744" y="-144.5" font-family="Helvetica,sans-Serif" font-size="10.00">/software/kratos/doxygen</text>
<text text-anchor="start" x="1744" y="-133.5" font-family="Helvetica,sans-Serif" font-size="10.00">/applications/ConstitutiveLaws</text>
<text text-anchor="start" x="1744" y="-122.5" font-family="Helvetica,sans-Serif" font-size="10.00">Application/custom_constitutive</text>
<text text-anchor="start" x="1744" y="-111.5" font-family="Helvetica,sans-Serif" font-size="10.00">/small_strains/plastic_damage</text>
<text text-anchor="middle" x="1843" y="-100.5" font-family="Helvetica,sans-Serif" font-size="10.00">/associative_plastic_damage_model.cpp</text>
</a>
</g>
</g>
<!-- Node1&#45;&gt;Node11 -->
<g id="edge10" class="edge">
<title>Node1&#45;&gt;Node11</title>
<path fill="none" stroke="#63b8ff" d="M1596.4,-199.44C1637.26,-188.01 1684.38,-174.62 1727,-162 1732.56,-160.35 1738.26,-158.65 1744.02,-156.91"/>
<polygon fill="#63b8ff" stroke="#63b8ff" points="1595.48,-196.06 1586.79,-202.12 1597.36,-202.8 1595.48,-196.06"/>
</g>
<!-- Node12 -->
<g id="node12" class="node">
<title>Node12</title>
<g id="a_node12"><a xlink:href="../../d9/d14/generic__small__strain__plastic__damage__model_8cpp.html" target="_top" xlink:title=" ">
<polygon fill="white" stroke="#666666" points="2171.5,-162 1968.5,-162 1968.5,-88 2171.5,-88 2171.5,-162"/>
<text text-anchor="start" x="1976.5" y="-150" font-family="Helvetica,sans-Serif" font-size="10.00">/software/kratos/doxygen</text>
<text text-anchor="start" x="1976.5" y="-139" font-family="Helvetica,sans-Serif" font-size="10.00">/applications/ConstitutiveLaws</text>
<text text-anchor="start" x="1976.5" y="-128" font-family="Helvetica,sans-Serif" font-size="10.00">Application/custom_constitutive</text>
<text text-anchor="start" x="1976.5" y="-117" font-family="Helvetica,sans-Serif" font-size="10.00">/small_strains/plastic_damage</text>
<text text-anchor="start" x="1976.5" y="-106" font-family="Helvetica,sans-Serif" font-size="10.00">/generic_small_strain_plastic_damage</text>
<text text-anchor="middle" x="2070" y="-95" font-family="Helvetica,sans-Serif" font-size="10.00">_model.cpp</text>
</a>
</g>
</g>
<!-- Node1&#45;&gt;Node12 -->
<g id="edge11" class="edge">
<title>Node1&#45;&gt;Node12</title>
<path fill="none" stroke="#63b8ff" d="M1596.51,-218.76C1691.99,-208.71 1836.07,-190.44 1959,-162 1962.06,-161.29 1965.16,-160.54 1968.27,-159.75"/>
<polygon fill="#63b8ff" stroke="#63b8ff" points="1596.2,-215.27 1586.61,-219.79 1596.92,-222.24 1596.2,-215.27"/>
</g>
<!-- Node13 -->
<g id="node13" class="node">
<title>Node13</title>
<g id="a_node13"><a xlink:href="../../d1/d17/generic__small__strain__isotropic__plasticity_8cpp.html" target="_top" xlink:title=" ">
<polygon fill="white" stroke="#666666" points="2388,-156.5 2190,-156.5 2190,-93.5 2388,-93.5 2388,-156.5"/>
<text text-anchor="start" x="2198" y="-144.5" font-family="Helvetica,sans-Serif" font-size="10.00">/software/kratos/doxygen</text>
<text text-anchor="start" x="2198" y="-133.5" font-family="Helvetica,sans-Serif" font-size="10.00">/applications/ConstitutiveLaws</text>
<text text-anchor="start" x="2198" y="-122.5" font-family="Helvetica,sans-Serif" font-size="10.00">Application/custom_constitutive</text>
<text text-anchor="start" x="2198" y="-111.5" font-family="Helvetica,sans-Serif" font-size="10.00">/small_strains/plasticity/generic</text>
<text text-anchor="middle" x="2289" y="-100.5" font-family="Helvetica,sans-Serif" font-size="10.00">_small_strain_isotropic_plasticity.cpp</text>
</a>
</g>
</g>
<!-- Node1&#45;&gt;Node13 -->
<g id="edge12" class="edge">
<title>Node1&#45;&gt;Node13</title>
<path fill="none" stroke="#63b8ff" d="M1596.73,-225.7C1733.11,-220.41 1977.03,-205.24 2181,-162 2187.77,-160.57 2194.7,-158.85 2201.63,-156.96"/>
<polygon fill="#63b8ff" stroke="#63b8ff" points="1596.86,-222.19 1587,-226.07 1597.13,-229.19 1596.86,-222.19"/>
</g>
<!-- Node14 -->
<g id="node14" class="node">
<title>Node14</title>
<g id="a_node14"><a xlink:href="../../df/dcc/generic__small__strain__kinematic__plasticity_8cpp.html" target="_top" xlink:title=" ">
<polygon fill="white" stroke="#666666" points="2611.5,-156.5 2406.5,-156.5 2406.5,-93.5 2611.5,-93.5 2611.5,-156.5"/>
<text text-anchor="start" x="2414.5" y="-144.5" font-family="Helvetica,sans-Serif" font-size="10.00">/software/kratos/doxygen</text>
<text text-anchor="start" x="2414.5" y="-133.5" font-family="Helvetica,sans-Serif" font-size="10.00">/applications/ConstitutiveLaws</text>
<text text-anchor="start" x="2414.5" y="-122.5" font-family="Helvetica,sans-Serif" font-size="10.00">Application/custom_constitutive</text>
<text text-anchor="start" x="2414.5" y="-111.5" font-family="Helvetica,sans-Serif" font-size="10.00">/small_strains/plasticity/generic</text>
<text text-anchor="middle" x="2509" y="-100.5" font-family="Helvetica,sans-Serif" font-size="10.00">_small_strain_kinematic_plasticity.cpp</text>
</a>
</g>
</g>
<!-- Node1&#45;&gt;Node14 -->
<g id="edge13" class="edge">
<title>Node1&#45;&gt;Node14</title>
<path fill="none" stroke="#63b8ff" d="M1596.67,-228.84C1766.82,-227.58 2111.35,-217.57 2397,-162 2404.22,-160.6 2411.62,-158.87 2419.01,-156.95"/>
<polygon fill="#63b8ff" stroke="#63b8ff" points="1596.71,-225.34 1586.74,-228.9 1596.76,-232.34 1596.71,-225.34"/>
</g>
<!-- Node15 -->
<g id="node15" class="node">
<title>Node15</title>
<g id="a_node15"><a xlink:href="../../d8/d97/_constitutive_laws_application_2custom__python_2add__custom__constitutive__laws__to__python_8cpp.html" target="_top" xlink:title=" ">
<polygon fill="white" stroke="#666666" points="2800,-156.5 2630,-156.5 2630,-93.5 2800,-93.5 2800,-156.5"/>
<text text-anchor="start" x="2638" y="-144.5" font-family="Helvetica,sans-Serif" font-size="10.00">/software/kratos/doxygen</text>
<text text-anchor="start" x="2638" y="-133.5" font-family="Helvetica,sans-Serif" font-size="10.00">/applications/ConstitutiveLaws</text>
<text text-anchor="start" x="2638" y="-122.5" font-family="Helvetica,sans-Serif" font-size="10.00">Application/custom_python/add</text>
<text text-anchor="start" x="2638" y="-111.5" font-family="Helvetica,sans-Serif" font-size="10.00">_custom_constitutive_laws_to</text>
<text text-anchor="middle" x="2715" y="-100.5" font-family="Helvetica,sans-Serif" font-size="10.00">_python.cpp</text>
</a>
</g>
</g>
<!-- Node1&#45;&gt;Node15 -->
<g id="edge14" class="edge">
<title>Node1&#45;&gt;Node15</title>
<path fill="none" stroke="#63b8ff" d="M1596.34,-226.42C1838.21,-220.97 2427.4,-203.72 2621,-162 2627.32,-160.64 2633.78,-158.92 2640.2,-156.97"/>
<polygon fill="#63b8ff" stroke="#63b8ff" points="1596.52,-222.91 1586.6,-226.63 1596.67,-229.91 1596.52,-222.91"/>
</g>
<!-- Node16 -->
<g id="node16" class="node">
<title>Node16</title>
<g id="a_node16"><a xlink:href="../../d6/d85/automatic__differentiation__tangent__utilities_8cpp.html" target="_top" xlink:title=" ">
<polygon fill="white" stroke="#666666" points="3004,-156.5 2818,-156.5 2818,-93.5 3004,-93.5 3004,-156.5"/>
<text text-anchor="start" x="2826" y="-144.5" font-family="Helvetica,sans-Serif" font-size="10.00">/software/kratos/doxygen</text>
<text text-anchor="start" x="2826" y="-133.5" font-family="Helvetica,sans-Serif" font-size="10.00">/applications/ConstitutiveLaws</text>
<text text-anchor="start" x="2826" y="-122.5" font-family="Helvetica,sans-Serif" font-size="10.00">Application/custom_utilities</text>
<text text-anchor="start" x="2826" y="-111.5" font-family="Helvetica,sans-Serif" font-size="10.00">/automatic_differentiation_tangent</text>
<text text-anchor="middle" x="2911" y="-100.5" font-family="Helvetica,sans-Serif" font-size="10.00">_utilities.cpp</text>
</a>
</g>
</g>
<!-- Node1&#45;&gt;Node16 -->
<g id="edge15" class="edge">
<title>Node1&#45;&gt;Node16</title>
<path fill="none" stroke="#63b8ff" d="M1596.51,-227.1C1866.55,-222.88 2577.71,-207.65 2809,-162 2815.91,-160.64 2822.98,-158.9 2830.02,-156.93"/>
<polygon fill="#63b8ff" stroke="#63b8ff" points="1596.61,-223.59 1586.66,-227.25 1596.71,-230.59 1596.61,-223.59"/>
</g>
<!-- Node3 -->
<g id="node3" class="node">
<title>Node3</title>
<g id="a_node3"><a xlink:href="../../d3/d03/constitutive__laws__application_8cpp.html" target="_top" xlink:title=" ">
<polygon fill="white" stroke="#666666" points="166,-52 0,-52 0,0 166,0 166,-52"/>
<text text-anchor="start" x="8" y="-40" font-family="Helvetica,sans-Serif" font-size="10.00">/software/kratos/doxygen</text>
<text text-anchor="start" x="8" y="-29" font-family="Helvetica,sans-Serif" font-size="10.00">/applications/ConstitutiveLaws</text>
<text text-anchor="start" x="8" y="-18" font-family="Helvetica,sans-Serif" font-size="10.00">Application/constitutive_laws</text>
<text text-anchor="middle" x="83" y="-7" font-family="Helvetica,sans-Serif" font-size="10.00">_application.cpp</text>
</a>
</g>
</g>
<!-- Node2&#45;&gt;Node3 -->
<g id="edge2" class="edge">
<title>Node2&#45;&gt;Node3</title>
<path fill="none" stroke="#63b8ff" d="M83,-87.28C83,-75.62 83,-62.99 83,-52.32"/>
<polygon fill="#63b8ff" stroke="#63b8ff" points="79.5,-87 83,-97 86.5,-87 79.5,-87"/>
</g>
</g>
</svg>
        <g id="navigator" transform="translate(0 0)" fill="#404254">
                <rect fill="#f2f5e9" fill-opacity="0.5" stroke="#606060" stroke-width=".5" x="0" y="0" width="60" height="60"/>
                <use id="zoomplus" xlink:href="#zoomPlus" x="17" y="9" onmousedown="handleZoom(evt,'in')"/>
                <use id="zoomminus" xlink:href="#zoomMin" x="42" y="9" onmousedown="handleZoom(evt,'out')"/>
                <use id="reset" xlink:href="#resetDef" x="30" y="36" onmousedown="handleReset()"/>
                <g id="arrowUp" xlink:href="#dirArrow" transform="translate(30 24)" onmousedown="handlePan(0,-1)">
                  <use xlink:href="#rim" fill="#404040">
                        <set attributeName="fill" to="#808080" begin="arrowUp.mouseover" end="arrowUp.mouseout"/>
                  </use>
                  <path fill="none" stroke="white" stroke-width="1.5" d="M0,-3.0v7 M-2.5,-0.5L0,-3.0L2.5,-0.5"/>
                </g>
                <g id="arrowRight" xlink:href="#dirArrow" transform="rotate(90) translate(36 -43)" onmousedown="handlePan(1,0)">
                  <use xlink:href="#rim" fill="#404040">
                        <set attributeName="fill" to="#808080" begin="arrowRight.mouseover" end="arrowRight.mouseout"/>
                  </use>
                  <path fill="none" stroke="white" stroke-width="1.5" d="M0,-3.0v7 M-2.5,-0.5L0,-3.0L2.5,-0.5"/>
                </g>
                <g id="arrowDown" xlink:href="#dirArrow" transform="rotate(180) translate(-30 -48)" onmousedown="handlePan(0,1)">
                  <use xlink:href="#rim" fill="#404040">
                        <set attributeName="fill" to="#808080" begin="arrowDown.mouseover" end="arrowDown.mouseout"/>
                  </use>
                  <path fill="none" stroke="white" stroke-width="1.5" d="M0,-3.0v7 M-2.5,-0.5L0,-3.0L2.5,-0.5"/>
                </g>
                <g id="arrowLeft" xlink:href="#dirArrow" transform="rotate(270) translate(-36 17)" onmousedown="handlePan(-1,0)">
                  <use xlink:href="#rim" fill="#404040">
                        <set attributeName="fill" to="#808080" begin="arrowLeft.mouseover" end="arrowLeft.mouseout"/>
                  </use>
                  <path fill="none" stroke="white" stroke-width="1.5" d="M0,-3.0v7 M-2.5,-0.5L0,-3.0L2.5,-0.5"/>
                </g>
        </g>
        <svg viewBox="0 0 15 15" width="100%" height="30px" preserveAspectRatio="xMaxYMin meet">
         <g id="arrow_out" transform="scale(0.3 0.3)">
          <a xlink:href="drucker__prager__plastic__potential_8h__dep__incl_org.svg" target="_base">
           <rect id="button" ry="5" rx="5" y="6" x="6" height="38" width="38"
                fill="#f2f5e9" fill-opacity="0.5" stroke="#606060" stroke-width="1.0"/>
           <path id="arrow"
             d="M 11.500037,31.436501 C 11.940474,20.09759 22.043105,11.32322 32.158766,21.979434 L 37.068811,17.246167 C 37.068811,17.246167 37.088388,32 37.088388,32 L 22.160133,31.978069 C 22.160133,31.978069 26.997745,27.140456 26.997745,27.140456 C 18.528582,18.264221 13.291696,25.230495 11.500037,31.436501 z"
             style="fill:#404040;"/>
          </a>
         </g>
        </svg>
</svg>
