<?xml version="1.0" encoding="UTF-8" standalone="no"?>
<!DOCTYPE svg PUBLIC "-//W3C//DTD SVG 1.1//EN"
 "http://www.w3.org/Graphics/SVG/1.1/DTD/svg11.dtd">
<!-- Generated by graphviz version 7.1.0 (0)
 -->
<!-- Title: /software/kratos/doxygen/applications/IgaApplication/custom_modelers/refinement_modeler.h Pages: 1 -->
<svg width="342pt" height="225pt"
 viewBox="0.00 0.00 341.50 225.00" xmlns="http://www.w3.org/2000/svg" xmlns:xlink="http://www.w3.org/1999/xlink">
<g id="graph0" class="graph" transform="scale(1 1) rotate(0) translate(4 221)">
<title>/software/kratos/doxygen/applications/IgaApplication/custom_modelers/refinement_modeler.h</title>
<!-- Node1 -->
<g id="node1" class="node">
<title>Node1</title>
<g id="a_node1"><a xlink:title=" ">
<polygon fill="#999999" stroke="#666666" points="251,-217 88,-217 88,-165 251,-165 251,-217"/>
<text text-anchor="start" x="96" y="-205" font-family="Helvetica,sans-Serif" font-size="10.00">/software/kratos/doxygen</text>
<text text-anchor="start" x="96" y="-194" font-family="Helvetica,sans-Serif" font-size="10.00">/applications/IgaApplication</text>
<text text-anchor="start" x="96" y="-183" font-family="Helvetica,sans-Serif" font-size="10.00">/custom_modelers/refinement</text>
<text text-anchor="middle" x="169.5" y="-172" font-family="Helvetica,sans-Serif" font-size="10.00">_modeler.h</text>
</a>
</g>
</g>
<!-- Node2 -->
<g id="node2" class="node">
<title>Node2</title>
<g id="a_node2"><a xlink:href="../../d8/de2/refinement__modeler_8cpp.html" target="_top" xlink:title=" ">
<polygon fill="white" stroke="#666666" points="163,-129 0,-129 0,-77 163,-77 163,-129"/>
<text text-anchor="start" x="8" y="-117" font-family="Helvetica,sans-Serif" font-size="10.00">/software/kratos/doxygen</text>
<text text-anchor="start" x="8" y="-106" font-family="Helvetica,sans-Serif" font-size="10.00">/applications/IgaApplication</text>
<text text-anchor="start" x="8" y="-95" font-family="Helvetica,sans-Serif" font-size="10.00">/custom_modelers/refinement</text>
<text text-anchor="middle" x="81.5" y="-84" font-family="Helvetica,sans-Serif" font-size="10.00">_modeler.cpp</text>
</a>
</g>
</g>
<!-- Node1&#45;&gt;Node2 -->
<g id="edge1" class="edge">
<title>Node1&#45;&gt;Node2</title>
<path fill="none" stroke="#63b8ff" d="M135.6,-156.87C126.29,-147.77 116.34,-138.05 107.55,-129.45"/>
<polygon fill="#63b8ff" stroke="#63b8ff" points="132.89,-159.12 142.49,-163.6 137.78,-154.11 132.89,-159.12"/>
</g>
<!-- Node3 -->
<g id="node3" class="node">
<title>Node3</title>
<g id="a_node3"><a xlink:href="../../d9/de5/iga__application_8h.html" target="_top" xlink:title=" ">
<polygon fill="white" stroke="#666666" points="333.5,-123.5 181.5,-123.5 181.5,-82.5 333.5,-82.5 333.5,-123.5"/>
<text text-anchor="start" x="189.5" y="-111.5" font-family="Helvetica,sans-Serif" font-size="10.00">/software/kratos/doxygen</text>
<text text-anchor="start" x="189.5" y="-100.5" font-family="Helvetica,sans-Serif" font-size="10.00">/applications/IgaApplication</text>
<text text-anchor="middle" x="257.5" y="-89.5" font-family="Helvetica,sans-Serif" font-size="10.00">/iga_application.h</text>
</a>
</g>
</g>
<!-- Node1&#45;&gt;Node3 -->
<g id="edge2" class="edge">
<title>Node1&#45;&gt;Node3</title>
<path fill="none" stroke="#63b8ff" d="M203.47,-156.8C214.8,-145.73 227.08,-133.73 237.06,-123.98"/>
<polygon fill="#63b8ff" stroke="#63b8ff" points="201.22,-154.11 196.51,-163.6 206.11,-159.12 201.22,-154.11"/>
</g>
<!-- Node4 -->
<g id="node4" class="node">
<title>Node4</title>
<g id="a_node4"><a xlink:href="../../d8/d05/iga__application_8cpp.html" target="_top" xlink:title=" ">
<polygon fill="white" stroke="#666666" points="333.5,-41 181.5,-41 181.5,0 333.5,0 333.5,-41"/>
<text text-anchor="start" x="189.5" y="-29" font-family="Helvetica,sans-Serif" font-size="10.00">/software/kratos/doxygen</text>
<text text-anchor="start" x="189.5" y="-18" font-family="Helvetica,sans-Serif" font-size="10.00">/applications/IgaApplication</text>
<text text-anchor="middle" x="257.5" y="-7" font-family="Helvetica,sans-Serif" font-size="10.00">/iga_application.cpp</text>
</a>
</g>
</g>
<!-- Node3&#45;&gt;Node4 -->
<g id="edge3" class="edge">
<title>Node3&#45;&gt;Node4</title>
<path fill="none" stroke="#63b8ff" d="M257.5,-70.66C257.5,-60.83 257.5,-50.26 257.5,-41.45"/>
<polygon fill="#63b8ff" stroke="#63b8ff" points="254,-70.59 257.5,-80.59 261,-70.59 254,-70.59"/>
</g>
</g>
</svg>
