<?xml version="1.0" encoding="UTF-8" standalone="no"?>
<!DOCTYPE svg PUBLIC "-//W3C//DTD SVG 1.1//EN"
 "http://www.w3.org/Graphics/SVG/1.1/DTD/svg11.dtd">
<!-- Generated by graphviz version 7.1.0 (0)
 -->
<!-- Title: /software/kratos/doxygen/applications/DamApplication/custom_conditions/added_mass_condition.hpp Pages: 1 -->
<svg width="362pt" height="225pt"
 viewBox="0.00 0.00 362.00 225.00" xmlns="http://www.w3.org/2000/svg" xmlns:xlink="http://www.w3.org/1999/xlink">
<g id="graph0" class="graph" transform="scale(1 1) rotate(0) translate(4 221)">
<title>/software/kratos/doxygen/applications/DamApplication/custom_conditions/added_mass_condition.hpp</title>
<!-- Node1 -->
<g id="node1" class="node">
<title>Node1</title>
<g id="a_node1"><a xlink:title=" ">
<polygon fill="#999999" stroke="#666666" points="269,-217 93,-217 93,-165 269,-165 269,-217"/>
<text text-anchor="start" x="101" y="-205" font-family="Helvetica,sans-Serif" font-size="10.00">/software/kratos/doxygen</text>
<text text-anchor="start" x="101" y="-194" font-family="Helvetica,sans-Serif" font-size="10.00">/applications/DamApplication</text>
<text text-anchor="start" x="101" y="-183" font-family="Helvetica,sans-Serif" font-size="10.00">/custom_conditions/added_mass</text>
<text text-anchor="middle" x="181" y="-172" font-family="Helvetica,sans-Serif" font-size="10.00">_condition.hpp</text>
</a>
</g>
</g>
<!-- Node2 -->
<g id="node2" class="node">
<title>Node2</title>
<g id="a_node2"><a xlink:href="../../d5/d35/added__mass__condition_8cpp.html" target="_top" xlink:title=" ">
<polygon fill="white" stroke="#666666" points="176,-129 0,-129 0,-77 176,-77 176,-129"/>
<text text-anchor="start" x="8" y="-117" font-family="Helvetica,sans-Serif" font-size="10.00">/software/kratos/doxygen</text>
<text text-anchor="start" x="8" y="-106" font-family="Helvetica,sans-Serif" font-size="10.00">/applications/DamApplication</text>
<text text-anchor="start" x="8" y="-95" font-family="Helvetica,sans-Serif" font-size="10.00">/custom_conditions/added_mass</text>
<text text-anchor="middle" x="88" y="-84" font-family="Helvetica,sans-Serif" font-size="10.00">_condition.cpp</text>
</a>
</g>
</g>
<!-- Node1&#45;&gt;Node2 -->
<g id="edge1" class="edge">
<title>Node1&#45;&gt;Node2</title>
<path fill="none" stroke="#63b8ff" d="M145.17,-156.87C135.33,-147.77 124.82,-138.05 115.53,-129.45"/>
<polygon fill="#63b8ff" stroke="#63b8ff" points="142.77,-159.42 152.49,-163.63 147.52,-154.28 142.77,-159.42"/>
</g>
<!-- Node3 -->
<g id="node3" class="node">
<title>Node3</title>
<g id="a_node3"><a xlink:href="../../d8/dec/dam__application_8h.html" target="_top" xlink:title=" ">
<polygon fill="white" stroke="#666666" points="354,-123.5 194,-123.5 194,-82.5 354,-82.5 354,-123.5"/>
<text text-anchor="start" x="202" y="-111.5" font-family="Helvetica,sans-Serif" font-size="10.00">/software/kratos/doxygen</text>
<text text-anchor="start" x="202" y="-100.5" font-family="Helvetica,sans-Serif" font-size="10.00">/applications/DamApplication</text>
<text text-anchor="middle" x="274" y="-89.5" font-family="Helvetica,sans-Serif" font-size="10.00">/dam_application.h</text>
</a>
</g>
</g>
<!-- Node1&#45;&gt;Node3 -->
<g id="edge2" class="edge">
<title>Node1&#45;&gt;Node3</title>
<path fill="none" stroke="#63b8ff" d="M216.55,-157.13C228.62,-145.96 241.74,-133.83 252.39,-123.98"/>
<polygon fill="#63b8ff" stroke="#63b8ff" points="214.48,-154.28 209.51,-163.63 219.23,-159.42 214.48,-154.28"/>
</g>
<!-- Node4 -->
<g id="node4" class="node">
<title>Node4</title>
<g id="a_node4"><a xlink:href="../../d3/d06/dam__application_8cpp.html" target="_top" xlink:title=" ">
<polygon fill="white" stroke="#666666" points="354,-41 194,-41 194,0 354,0 354,-41"/>
<text text-anchor="start" x="202" y="-29" font-family="Helvetica,sans-Serif" font-size="10.00">/software/kratos/doxygen</text>
<text text-anchor="start" x="202" y="-18" font-family="Helvetica,sans-Serif" font-size="10.00">/applications/DamApplication</text>
<text text-anchor="middle" x="274" y="-7" font-family="Helvetica,sans-Serif" font-size="10.00">/dam_application.cpp</text>
</a>
</g>
</g>
<!-- Node3&#45;&gt;Node4 -->
<g id="edge3" class="edge">
<title>Node3&#45;&gt;Node4</title>
<path fill="none" stroke="#63b8ff" d="M274,-70.66C274,-60.83 274,-50.26 274,-41.45"/>
<polygon fill="#63b8ff" stroke="#63b8ff" points="270.5,-70.59 274,-80.59 277.5,-70.59 270.5,-70.59"/>
</g>
</g>
</svg>
