<?xml version="1.0" encoding="UTF-8" standalone="no"?>
<!DOCTYPE svg PUBLIC "-//W3C//DTD SVG 1.1//EN"
 "http://www.w3.org/Graphics/SVG/1.1/DTD/svg11.dtd">
<!-- Generated by graphviz version 2.43.0 (0)
 -->
<!-- Title: /home/runner/work/Documentation/Documentation/master/kratos/geometries/triangle_2d_10.h Pages: 1 -->
<svg width="666pt" height="417pt"
 viewBox="0.00 0.00 665.50 417.00" xmlns="http://www.w3.org/2000/svg" xmlns:xlink="http://www.w3.org/1999/xlink">
<g id="graph0" class="graph" transform="scale(1 1) rotate(0) translate(4 413)">
<title>/home/runner/work/Documentation/Documentation/master/kratos/geometries/triangle_2d_10.h</title>
<!-- Node1 -->
<g id="node1" class="node">
<title>Node1</title>
<g id="a_node1"><a xlink:title=" ">
<polygon fill="#bfbfbf" stroke="black" points="230.5,-367.5 230.5,-408.5 417.5,-408.5 417.5,-367.5 230.5,-367.5"/>
<text text-anchor="start" x="238.5" y="-396.5" font-family="Helvetica,sans-Serif" font-size="10.00">/home/runner/work/Documentation</text>
<text text-anchor="start" x="238.5" y="-385.5" font-family="Helvetica,sans-Serif" font-size="10.00">/Documentation/master/kratos</text>
<text text-anchor="middle" x="324" y="-374.5" font-family="Helvetica,sans-Serif" font-size="10.00">/geometries/triangle_2d_10.h</text>
</a>
</g>
</g>
<!-- Node2 -->
<g id="node2" class="node">
<title>Node2</title>
<g id="a_node2"><a xlink:href="../../d2/dd9/_geo_mechanics_application_2custom__elements_2small__strain___u___pw__diff__order__element_8cpp.html" target="_top" xlink:title=" ">
<polygon fill="none" stroke="black" points="0,-267.5 0,-330.5 194,-330.5 194,-267.5 0,-267.5"/>
<text text-anchor="start" x="8" y="-318.5" font-family="Helvetica,sans-Serif" font-size="10.00">/home/runner/work/Documentation</text>
<text text-anchor="start" x="8" y="-307.5" font-family="Helvetica,sans-Serif" font-size="10.00">/Documentation/master/applications</text>
<text text-anchor="start" x="8" y="-296.5" font-family="Helvetica,sans-Serif" font-size="10.00">/GeoMechanicsApplication/custom</text>
<text text-anchor="start" x="8" y="-285.5" font-family="Helvetica,sans-Serif" font-size="10.00">_elements/small_strain_U_Pw_diff</text>
<text text-anchor="middle" x="97" y="-274.5" font-family="Helvetica,sans-Serif" font-size="10.00">_order_element.cpp</text>
</a>
</g>
</g>
<!-- Node1&#45;&gt;Node2 -->
<g id="edge1" class="edge">
<title>Node1&#45;&gt;Node2</title>
<path fill="none" stroke="midnightblue" d="M263.49,-363.81C236.88,-353.61 205.24,-341.49 176.74,-330.56"/>
<polygon fill="midnightblue" stroke="midnightblue" points="262.47,-367.16 273.06,-367.48 264.97,-360.63 262.47,-367.16"/>
</g>
<!-- Node3 -->
<g id="node3" class="node">
<title>Node3</title>
<g id="a_node3"><a xlink:href="../../d5/d83/geo__mechanics__application_8h.html" target="_top" xlink:title=" ">
<polygon fill="none" stroke="black" points="212,-273 212,-325 436,-325 436,-273 212,-273"/>
<text text-anchor="start" x="220" y="-313" font-family="Helvetica,sans-Serif" font-size="10.00">/home/runner/work/Documentation</text>
<text text-anchor="start" x="220" y="-302" font-family="Helvetica,sans-Serif" font-size="10.00">/Documentation/master/applications</text>
<text text-anchor="start" x="220" y="-291" font-family="Helvetica,sans-Serif" font-size="10.00">/GeoMechanicsApplication/geo_mechanics</text>
<text text-anchor="middle" x="324" y="-280" font-family="Helvetica,sans-Serif" font-size="10.00">_application.h</text>
</a>
</g>
</g>
<!-- Node1&#45;&gt;Node3 -->
<g id="edge2" class="edge">
<title>Node1&#45;&gt;Node3</title>
<path fill="none" stroke="midnightblue" d="M324,-357.01C324,-346.67 324,-335.21 324,-325.29"/>
<polygon fill="midnightblue" stroke="midnightblue" points="320.5,-357.26 324,-367.26 327.5,-357.26 320.5,-357.26"/>
</g>
<!-- Node9 -->
<g id="node9" class="node">
<title>Node9</title>
<g id="a_node9"><a xlink:href="../../db/d93/structural__mechanics__application_8cpp.html" target="_top" xlink:title=" ">
<polygon fill="none" stroke="black" points="454.5,-273 454.5,-325 657.5,-325 657.5,-273 454.5,-273"/>
<text text-anchor="start" x="462.5" y="-313" font-family="Helvetica,sans-Serif" font-size="10.00">/home/runner/work/Documentation</text>
<text text-anchor="start" x="462.5" y="-302" font-family="Helvetica,sans-Serif" font-size="10.00">/Documentation/master/applications</text>
<text text-anchor="start" x="462.5" y="-291" font-family="Helvetica,sans-Serif" font-size="10.00">/StructuralMechanicsApplication</text>
<text text-anchor="middle" x="556" y="-280" font-family="Helvetica,sans-Serif" font-size="10.00">/structural_mechanics_application.cpp</text>
</a>
</g>
</g>
<!-- Node1&#45;&gt;Node9 -->
<g id="edge8" class="edge">
<title>Node1&#45;&gt;Node9</title>
<path fill="none" stroke="midnightblue" d="M385.72,-363.86C417.59,-351.9 456.52,-337.31 489.11,-325.08"/>
<polygon fill="midnightblue" stroke="midnightblue" points="384.2,-360.69 376.07,-367.48 386.66,-367.24 384.2,-360.69"/>
</g>
<!-- Node4 -->
<g id="node4" class="node">
<title>Node4</title>
<g id="a_node4"><a xlink:href="../../da/d42/dgeoflow_8h.html" target="_top" xlink:title=" ">
<polygon fill="none" stroke="black" points="113,-178.5 113,-230.5 307,-230.5 307,-178.5 113,-178.5"/>
<text text-anchor="start" x="121" y="-218.5" font-family="Helvetica,sans-Serif" font-size="10.00">/home/runner/work/Documentation</text>
<text text-anchor="start" x="121" y="-207.5" font-family="Helvetica,sans-Serif" font-size="10.00">/Documentation/master/applications</text>
<text text-anchor="start" x="121" y="-196.5" font-family="Helvetica,sans-Serif" font-size="10.00">/GeoMechanicsApplication/custom</text>
<text text-anchor="middle" x="210" y="-185.5" font-family="Helvetica,sans-Serif" font-size="10.00">_workflows/dgeoflow.h</text>
</a>
</g>
</g>
<!-- Node3&#45;&gt;Node4 -->
<g id="edge3" class="edge">
<title>Node3&#45;&gt;Node4</title>
<path fill="none" stroke="midnightblue" d="M285.31,-266.61C270.82,-254.85 254.56,-241.66 240.87,-230.55"/>
<polygon fill="midnightblue" stroke="midnightblue" points="283.18,-269.39 293.15,-272.97 287.59,-263.95 283.18,-269.39"/>
</g>
<!-- Node8 -->
<g id="node8" class="node">
<title>Node8</title>
<g id="a_node8"><a xlink:href="../../df/dc4/geo__mechanics__application_8cpp.html" target="_top" xlink:title=" ">
<polygon fill="none" stroke="black" points="325,-178.5 325,-230.5 549,-230.5 549,-178.5 325,-178.5"/>
<text text-anchor="start" x="333" y="-218.5" font-family="Helvetica,sans-Serif" font-size="10.00">/home/runner/work/Documentation</text>
<text text-anchor="start" x="333" y="-207.5" font-family="Helvetica,sans-Serif" font-size="10.00">/Documentation/master/applications</text>
<text text-anchor="start" x="333" y="-196.5" font-family="Helvetica,sans-Serif" font-size="10.00">/GeoMechanicsApplication/geo_mechanics</text>
<text text-anchor="middle" x="437" y="-185.5" font-family="Helvetica,sans-Serif" font-size="10.00">_application.cpp</text>
</a>
</g>
</g>
<!-- Node3&#45;&gt;Node8 -->
<g id="edge7" class="edge">
<title>Node3&#45;&gt;Node8</title>
<path fill="none" stroke="midnightblue" d="M362.35,-266.61C376.71,-254.85 392.83,-241.66 406.4,-230.55"/>
<polygon fill="midnightblue" stroke="midnightblue" points="360.1,-263.93 354.58,-272.97 364.53,-269.34 360.1,-263.93"/>
</g>
<!-- Node5 -->
<g id="node5" class="node">
<title>Node5</title>
<g id="a_node5"><a xlink:href="../../d7/d88/dgeoflow_8cpp.html" target="_top" xlink:title=" ">
<polygon fill="none" stroke="black" points="6,-89.5 6,-141.5 200,-141.5 200,-89.5 6,-89.5"/>
<text text-anchor="start" x="14" y="-129.5" font-family="Helvetica,sans-Serif" font-size="10.00">/home/runner/work/Documentation</text>
<text text-anchor="start" x="14" y="-118.5" font-family="Helvetica,sans-Serif" font-size="10.00">/Documentation/master/applications</text>
<text text-anchor="start" x="14" y="-107.5" font-family="Helvetica,sans-Serif" font-size="10.00">/GeoMechanicsApplication/custom</text>
<text text-anchor="middle" x="103" y="-96.5" font-family="Helvetica,sans-Serif" font-size="10.00">_workflows/dgeoflow.cpp</text>
</a>
</g>
</g>
<!-- Node4&#45;&gt;Node5 -->
<g id="edge4" class="edge">
<title>Node4&#45;&gt;Node5</title>
<path fill="none" stroke="midnightblue" d="M171.18,-171.93C158.91,-161.96 145.52,-151.07 133.88,-141.61"/>
<polygon fill="midnightblue" stroke="midnightblue" points="169.08,-174.74 179.05,-178.34 173.5,-169.31 169.08,-174.74"/>
</g>
<!-- Node6 -->
<g id="node6" class="node">
<title>Node6</title>
<g id="a_node6"><a xlink:href="../../d4/d24/kratos__external__bindings_8h.html" target="_top" xlink:title=" ">
<polygon fill="none" stroke="black" points="218,-89.5 218,-141.5 416,-141.5 416,-89.5 218,-89.5"/>
<text text-anchor="start" x="226" y="-129.5" font-family="Helvetica,sans-Serif" font-size="10.00">/home/runner/work/Documentation</text>
<text text-anchor="start" x="226" y="-118.5" font-family="Helvetica,sans-Serif" font-size="10.00">/Documentation/master/applications</text>
<text text-anchor="start" x="226" y="-107.5" font-family="Helvetica,sans-Serif" font-size="10.00">/GeoMechanicsApplication/external</text>
<text text-anchor="middle" x="317" y="-96.5" font-family="Helvetica,sans-Serif" font-size="10.00">_bindings/kratos_external_bindings.h</text>
</a>
</g>
</g>
<!-- Node4&#45;&gt;Node6 -->
<g id="edge5" class="edge">
<title>Node4&#45;&gt;Node6</title>
<path fill="none" stroke="midnightblue" d="M248.82,-171.93C261.09,-161.96 274.48,-151.07 286.12,-141.61"/>
<polygon fill="midnightblue" stroke="midnightblue" points="246.5,-169.31 240.95,-178.34 250.92,-174.74 246.5,-169.31"/>
</g>
<!-- Node7 -->
<g id="node7" class="node">
<title>Node7</title>
<g id="a_node7"><a xlink:href="../../dd/d6d/_geo_mechanics_application_2external__bindings_2kratos__external__bindings_8cpp.html" target="_top" xlink:title=" ">
<polygon fill="none" stroke="black" points="212.5,-0.5 212.5,-52.5 421.5,-52.5 421.5,-0.5 212.5,-0.5"/>
<text text-anchor="start" x="220.5" y="-40.5" font-family="Helvetica,sans-Serif" font-size="10.00">/home/runner/work/Documentation</text>
<text text-anchor="start" x="220.5" y="-29.5" font-family="Helvetica,sans-Serif" font-size="10.00">/Documentation/master/applications</text>
<text text-anchor="start" x="220.5" y="-18.5" font-family="Helvetica,sans-Serif" font-size="10.00">/GeoMechanicsApplication/external</text>
<text text-anchor="middle" x="317" y="-7.5" font-family="Helvetica,sans-Serif" font-size="10.00">_bindings/kratos_external_bindings.cpp</text>
</a>
</g>
</g>
<!-- Node6&#45;&gt;Node7 -->
<g id="edge6" class="edge">
<title>Node6&#45;&gt;Node7</title>
<path fill="none" stroke="midnightblue" d="M317,-79.19C317,-70.28 317,-60.9 317,-52.61"/>
<polygon fill="midnightblue" stroke="midnightblue" points="313.5,-79.34 317,-89.34 320.5,-79.34 313.5,-79.34"/>
</g>
</g>
</svg>
