<?xml version="1.0" encoding="UTF-8" standalone="no"?>
<!DOCTYPE svg PUBLIC "-//W3C//DTD SVG 1.1//EN"
 "http://www.w3.org/Graphics/SVG/1.1/DTD/svg11.dtd">
<!-- Generated by graphviz version 2.43.0 (0)
 -->
<!-- Title: /home/runner/work/Documentation/Documentation/master/applications/MeshingApplication/custom_utilities/local_refine_geometry_mesh.hpp Pages: 1 -->
<!--zoomable 350 -->
<svg id="main" version="1.1" xmlns="http://www.w3.org/2000/svg" xmlns:xlink="http://www.w3.org/1999/xlink" xml:space="preserve" onload="init(evt)">
<style type="text/css"><![CDATA[
.edge:hover path { stroke: red; }
.edge:hover polygon { stroke: red; fill: red; }
]]></style>
<script type="text/javascript"><![CDATA[
var edges = document.getElementsByTagName('g');
if (edges && edges.length) {
  for (var i=0;i<edges.length;i++) {
    if (edges[i].id.substr(0,4)=='edge') {
      edges[i].setAttribute('class','edge');
    }
  }
}
]]></script>
        <defs>
                <circle id="rim" cx="0" cy="0" r="7"/>
                <circle id="rim2" cx="0" cy="0" r="3.5"/>
                <g id="zoomPlus">
                        <use xlink:href="#rim" fill="#404040">
                                <set attributeName="fill" to="#808080" begin="zoomplus.mouseover" end="zoomplus.mouseout"/>
                        </use>
                        <path d="M-4,0h8M0,-4v8" fill="none" stroke="white" stroke-width="1.5" pointer-events="none"/>
                </g>
                <g id="zoomMin">
                        <use xlink:href="#rim" fill="#404040">
                                <set attributeName="fill" to="#808080" begin="zoomminus.mouseover" end="zoomminus.mouseout"/>
                        </use>
                        <path d="M-4,0h8" fill="none" stroke="white" stroke-width="1.5" pointer-events="none"/>
                </g>
                <g id="dirArrow">
                        <path fill="none" stroke="white" stroke-width="1.5" d="M0,-3.0v7 M-2.5,-0.5L0,-3.0L2.5,-0.5"/>
                </g>
               <g id="resetDef">
                       <use xlink:href="#rim2" fill="#404040">
                               <set attributeName="fill" to="#808080" begin="reset.mouseover" end="reset.mouseout"/>
                       </use>
               </g>
        </defs>

<script type="text/javascript">
var viewWidth = 1031;
var viewHeight = 350;
var sectionId = 'dynsection-1';
</script>
<script xlink:href="../../svgpan.js"/>
<svg id="graph" class="graph">
<g id="viewport">
<title>/home/runner/work/Documentation/Documentation/master/applications/MeshingApplication/custom_utilities/local_refine_geometry_mesh.hpp</title>
<!-- Node1 -->
<g id="node1" class="node">
<title>Node1</title>
<g id="a_node1"><a xlink:title=" ">
<polygon fill="#bfbfbf" stroke="black" points="322,-289.5 322,-341.5 519,-341.5 519,-289.5 322,-289.5"/>
<text text-anchor="start" x="330" y="-329.5" font-family="Helvetica,sans-Serif" font-size="10.00">/home/runner/work/Documentation</text>
<text text-anchor="start" x="330" y="-318.5" font-family="Helvetica,sans-Serif" font-size="10.00">/Documentation/master/applications</text>
<text text-anchor="start" x="330" y="-307.5" font-family="Helvetica,sans-Serif" font-size="10.00">/MeshingApplication/custom_utilities</text>
<text text-anchor="middle" x="420.5" y="-296.5" font-family="Helvetica,sans-Serif" font-size="10.00">/local_refine_geometry_mesh.hpp</text>
</a>
</g>
</g>
<!-- Node2 -->
<g id="node2" class="node">
<title>Node2</title>
<g id="a_node2"><a xlink:href="../../da/dab/local__refine__geometry__mesh_8cpp.html" target="_top" xlink:title=" ">
<polygon fill="none" stroke="black" points="0,-200.5 0,-252.5 197,-252.5 197,-200.5 0,-200.5"/>
<text text-anchor="start" x="8" y="-240.5" font-family="Helvetica,sans-Serif" font-size="10.00">/home/runner/work/Documentation</text>
<text text-anchor="start" x="8" y="-229.5" font-family="Helvetica,sans-Serif" font-size="10.00">/Documentation/master/applications</text>
<text text-anchor="start" x="8" y="-218.5" font-family="Helvetica,sans-Serif" font-size="10.00">/MeshingApplication/custom_utilities</text>
<text text-anchor="middle" x="98.5" y="-207.5" font-family="Helvetica,sans-Serif" font-size="10.00">/local_refine_geometry_mesh.cpp</text>
</a>
</g>
</g>
<!-- Node1&#45;&gt;Node2 -->
<g id="edge1" class="edge">
<title>Node1&#45;&gt;Node2</title>
<path fill="none" stroke="midnightblue" d="M318.12,-286.84C277.37,-275.83 230.83,-263.25 191.11,-252.52"/>
<polygon fill="midnightblue" stroke="midnightblue" points="317.23,-290.22 327.8,-289.45 319.06,-283.47 317.23,-290.22"/>
</g>
<!-- Node3 -->
<g id="node3" class="node">
<title>Node3</title>
<g id="a_node3"><a xlink:href="../../de/dad/local__refine__prism__mesh_8hpp.html" target="_top" xlink:title=" ">
<polygon fill="none" stroke="black" points="430,-200.5 430,-252.5 627,-252.5 627,-200.5 430,-200.5"/>
<text text-anchor="start" x="438" y="-240.5" font-family="Helvetica,sans-Serif" font-size="10.00">/home/runner/work/Documentation</text>
<text text-anchor="start" x="438" y="-229.5" font-family="Helvetica,sans-Serif" font-size="10.00">/Documentation/master/applications</text>
<text text-anchor="start" x="438" y="-218.5" font-family="Helvetica,sans-Serif" font-size="10.00">/MeshingApplication/custom_utilities</text>
<text text-anchor="middle" x="528.5" y="-207.5" font-family="Helvetica,sans-Serif" font-size="10.00">/local_refine_prism_mesh.hpp</text>
</a>
</g>
</g>
<!-- Node1&#45;&gt;Node3 -->
<g id="edge2" class="edge">
<title>Node1&#45;&gt;Node3</title>
<path fill="none" stroke="midnightblue" d="M459.69,-282.93C472.07,-272.96 485.59,-262.07 497.33,-252.61"/>
<polygon fill="midnightblue" stroke="midnightblue" points="457.33,-280.34 451.74,-289.34 461.72,-285.79 457.33,-280.34"/>
</g>
<!-- Node5 -->
<g id="node5" class="node">
<title>Node5</title>
<g id="a_node5"><a xlink:href="../../d8/d23/local__refine__tetrahedra__mesh_8hpp.html" target="_top" xlink:title=" ">
<polygon fill="none" stroke="black" points="215,-200.5 215,-252.5 412,-252.5 412,-200.5 215,-200.5"/>
<text text-anchor="start" x="223" y="-240.5" font-family="Helvetica,sans-Serif" font-size="10.00">/home/runner/work/Documentation</text>
<text text-anchor="start" x="223" y="-229.5" font-family="Helvetica,sans-Serif" font-size="10.00">/Documentation/master/applications</text>
<text text-anchor="start" x="223" y="-218.5" font-family="Helvetica,sans-Serif" font-size="10.00">/MeshingApplication/custom_utilities</text>
<text text-anchor="middle" x="313.5" y="-207.5" font-family="Helvetica,sans-Serif" font-size="10.00">/local_refine_tetrahedra_mesh.hpp</text>
</a>
</g>
</g>
<!-- Node1&#45;&gt;Node5 -->
<g id="edge4" class="edge">
<title>Node1&#45;&gt;Node5</title>
<path fill="none" stroke="midnightblue" d="M381.68,-282.93C369.41,-272.96 356.02,-262.07 344.38,-252.61"/>
<polygon fill="midnightblue" stroke="midnightblue" points="379.58,-285.74 389.55,-289.34 384,-280.31 379.58,-285.74"/>
</g>
<!-- Node9 -->
<g id="node9" class="node">
<title>Node9</title>
<g id="a_node9"><a xlink:href="../../d4/d6a/local__refine__triangle__mesh__generic_8hpp.html" target="_top" xlink:title=" ">
<polygon fill="none" stroke="black" points="645,-200.5 645,-252.5 858,-252.5 858,-200.5 645,-200.5"/>
<text text-anchor="start" x="653" y="-240.5" font-family="Helvetica,sans-Serif" font-size="10.00">/home/runner/work/Documentation</text>
<text text-anchor="start" x="653" y="-229.5" font-family="Helvetica,sans-Serif" font-size="10.00">/Documentation/master/applications</text>
<text text-anchor="start" x="653" y="-218.5" font-family="Helvetica,sans-Serif" font-size="10.00">/MeshingApplication/custom_utilities</text>
<text text-anchor="middle" x="751.5" y="-207.5" font-family="Helvetica,sans-Serif" font-size="10.00">/local_refine_triangle_mesh_generic.hpp</text>
</a>
</g>
</g>
<!-- Node1&#45;&gt;Node9 -->
<g id="edge11" class="edge">
<title>Node1&#45;&gt;Node9</title>
<path fill="none" stroke="midnightblue" d="M525.48,-286.91C567.43,-275.88 615.39,-263.28 656.3,-252.52"/>
<polygon fill="midnightblue" stroke="midnightblue" points="524.58,-283.53 515.79,-289.45 526.36,-290.3 524.58,-283.53"/>
</g>
<!-- Node4 -->
<g id="node4" class="node">
<title>Node4</title>
<g id="a_node4"><a xlink:href="../../d4/d31/_meshing_application_2custom__python_2add__custom__utilities__to__python_8cpp.html" target="_top" xlink:title=" ">
<polygon fill="none" stroke="black" points="389,-6 389,-58 584,-58 584,-6 389,-6"/>
<text text-anchor="start" x="397" y="-46" font-family="Helvetica,sans-Serif" font-size="10.00">/home/runner/work/Documentation</text>
<text text-anchor="start" x="397" y="-35" font-family="Helvetica,sans-Serif" font-size="10.00">/Documentation/master/applications</text>
<text text-anchor="start" x="397" y="-24" font-family="Helvetica,sans-Serif" font-size="10.00">/MeshingApplication/custom_python</text>
<text text-anchor="middle" x="486.5" y="-13" font-family="Helvetica,sans-Serif" font-size="10.00">/add_custom_utilities_to_python.cpp</text>
</a>
</g>
</g>
<!-- Node3&#45;&gt;Node4 -->
<g id="edge3" class="edge">
<title>Node3&#45;&gt;Node4</title>
<path fill="none" stroke="midnightblue" d="M536.18,-190.3C540.28,-164.66 542.79,-129.42 533.5,-100 528.67,-84.69 518.94,-69.84 509.59,-58.03"/>
<polygon fill="midnightblue" stroke="midnightblue" points="532.71,-189.85 534.42,-200.31 539.6,-191.07 532.71,-189.85"/>
</g>
<!-- Node5&#45;&gt;Node4 -->
<g id="edge5" class="edge">
<title>Node5&#45;&gt;Node4</title>
<path fill="none" stroke="midnightblue" d="M301.94,-190.58C295.27,-163.48 291.37,-126.24 309.5,-100 327.89,-73.37 358.34,-57.31 388.83,-47.64"/>
<polygon fill="midnightblue" stroke="midnightblue" points="298.61,-191.67 304.59,-200.42 305.37,-189.85 298.61,-191.67"/>
</g>
<!-- Node6 -->
<g id="node6" class="node">
<title>Node6</title>
<g id="a_node6"><a xlink:href="../../d8/d09/linear__to__quadratic__tetrahedra__mesh__converter__utility_8h.html" target="_top" xlink:title=" ">
<polygon fill="none" stroke="black" points="60.5,-100.5 60.5,-163.5 262.5,-163.5 262.5,-100.5 60.5,-100.5"/>
<text text-anchor="start" x="68.5" y="-151.5" font-family="Helvetica,sans-Serif" font-size="10.00">/home/runner/work/Documentation</text>
<text text-anchor="start" x="68.5" y="-140.5" font-family="Helvetica,sans-Serif" font-size="10.00">/Documentation/master/applications</text>
<text text-anchor="start" x="68.5" y="-129.5" font-family="Helvetica,sans-Serif" font-size="10.00">/MeshingApplication/custom_utilities</text>
<text text-anchor="start" x="68.5" y="-118.5" font-family="Helvetica,sans-Serif" font-size="10.00">/linear_to_quadratic_tetrahedra_mesh</text>
<text text-anchor="middle" x="161.5" y="-107.5" font-family="Helvetica,sans-Serif" font-size="10.00">_converter_utility.h</text>
</a>
</g>
</g>
<!-- Node5&#45;&gt;Node6 -->
<g id="edge6" class="edge">
<title>Node5&#45;&gt;Node6</title>
<path fill="none" stroke="midnightblue" d="M263.39,-195.01C246.85,-184.94 228.45,-173.74 211.89,-163.66"/>
<polygon fill="midnightblue" stroke="midnightblue" points="262,-198.26 272.37,-200.47 265.64,-192.28 262,-198.26"/>
</g>
<!-- Node8 -->
<g id="node8" class="node">
<title>Node8</title>
<g id="a_node8"><a xlink:href="../../d1/d1c/local__refine__tetrahedra__mesh__parallel__to__boundaries_8hpp.html" target="_top" xlink:title=" ">
<polygon fill="none" stroke="black" points="318.5,-100.5 318.5,-163.5 524.5,-163.5 524.5,-100.5 318.5,-100.5"/>
<text text-anchor="start" x="326.5" y="-151.5" font-family="Helvetica,sans-Serif" font-size="10.00">/home/runner/work/Documentation</text>
<text text-anchor="start" x="326.5" y="-140.5" font-family="Helvetica,sans-Serif" font-size="10.00">/Documentation/master/applications</text>
<text text-anchor="start" x="326.5" y="-129.5" font-family="Helvetica,sans-Serif" font-size="10.00">/MeshingApplication/custom_utilities</text>
<text text-anchor="start" x="326.5" y="-118.5" font-family="Helvetica,sans-Serif" font-size="10.00">/local_refine_tetrahedra_mesh_parallel</text>
<text text-anchor="middle" x="421.5" y="-107.5" font-family="Helvetica,sans-Serif" font-size="10.00">_to_boundaries.hpp</text>
</a>
</g>
</g>
<!-- Node5&#45;&gt;Node8 -->
<g id="edge9" class="edge">
<title>Node5&#45;&gt;Node8</title>
<path fill="none" stroke="midnightblue" d="M350.41,-193.88C361.82,-184.11 374.37,-173.37 385.7,-163.66"/>
<polygon fill="midnightblue" stroke="midnightblue" points="348.04,-191.3 342.73,-200.47 352.6,-196.62 348.04,-191.3"/>
</g>
<!-- Node6&#45;&gt;Node4 -->
<g id="edge7" class="edge">
<title>Node6&#45;&gt;Node4</title>
<path fill="none" stroke="midnightblue" d="M272.21,-97.62C315.2,-84.65 363.59,-70.06 403.5,-58.03"/>
<polygon fill="midnightblue" stroke="midnightblue" points="271.11,-94.29 262.55,-100.53 273.14,-100.99 271.11,-94.29"/>
</g>
<!-- Node7 -->
<g id="node7" class="node">
<title>Node7</title>
<g id="a_node7"><a xlink:href="../../da/dd2/linear__to__quadratic__tetrahedra__mesh__converter__utility_8cpp.html" target="_top" xlink:title=" ">
<polygon fill="none" stroke="black" points="60.5,-0.5 60.5,-63.5 262.5,-63.5 262.5,-0.5 60.5,-0.5"/>
<text text-anchor="start" x="68.5" y="-51.5" font-family="Helvetica,sans-Serif" font-size="10.00">/home/runner/work/Documentation</text>
<text text-anchor="start" x="68.5" y="-40.5" font-family="Helvetica,sans-Serif" font-size="10.00">/Documentation/master/applications</text>
<text text-anchor="start" x="68.5" y="-29.5" font-family="Helvetica,sans-Serif" font-size="10.00">/MeshingApplication/custom_utilities</text>
<text text-anchor="start" x="68.5" y="-18.5" font-family="Helvetica,sans-Serif" font-size="10.00">/linear_to_quadratic_tetrahedra_mesh</text>
<text text-anchor="middle" x="161.5" y="-7.5" font-family="Helvetica,sans-Serif" font-size="10.00">_converter_utility.cpp</text>
</a>
</g>
</g>
<!-- Node6&#45;&gt;Node7 -->
<g id="edge8" class="edge">
<title>Node6&#45;&gt;Node7</title>
<path fill="none" stroke="midnightblue" d="M161.5,-90.1C161.5,-81.24 161.5,-72.01 161.5,-63.63"/>
<polygon fill="midnightblue" stroke="midnightblue" points="158,-90.26 161.5,-100.26 165,-90.26 158,-90.26"/>
</g>
<!-- Node8&#45;&gt;Node4 -->
<g id="edge10" class="edge">
<title>Node8&#45;&gt;Node4</title>
<path fill="none" stroke="midnightblue" d="M447.53,-91.76C455.07,-80.39 463.09,-68.3 469.88,-58.05"/>
<polygon fill="midnightblue" stroke="midnightblue" points="444.5,-89.99 441.89,-100.26 450.33,-93.86 444.5,-89.99"/>
</g>
<!-- Node10 -->
<g id="node10" class="node">
<title>Node10</title>
<g id="a_node10"><a xlink:href="../../d8/de7/local__refine__triangle__mesh_8hpp.html" target="_top" xlink:title=" ">
<polygon fill="none" stroke="black" points="581,-106 581,-158 778,-158 778,-106 581,-106"/>
<text text-anchor="start" x="589" y="-146" font-family="Helvetica,sans-Serif" font-size="10.00">/home/runner/work/Documentation</text>
<text text-anchor="start" x="589" y="-135" font-family="Helvetica,sans-Serif" font-size="10.00">/Documentation/master/applications</text>
<text text-anchor="start" x="589" y="-124" font-family="Helvetica,sans-Serif" font-size="10.00">/MeshingApplication/custom_utilities</text>
<text text-anchor="middle" x="679.5" y="-113" font-family="Helvetica,sans-Serif" font-size="10.00">/local_refine_triangle_mesh.hpp</text>
</a>
</g>
</g>
<!-- Node9&#45;&gt;Node10 -->
<g id="edge12" class="edge">
<title>Node9&#45;&gt;Node10</title>
<path fill="none" stroke="midnightblue" d="M725.65,-192.29C716.92,-181.08 707.32,-168.74 699.15,-158.25"/>
<polygon fill="midnightblue" stroke="midnightblue" points="722.92,-194.48 731.83,-200.22 728.45,-190.18 722.92,-194.48"/>
</g>
<!-- Node11 -->
<g id="node11" class="node">
<title>Node11</title>
<g id="a_node11"><a xlink:href="../../d9/d2e/local__refine__triangle__mesh__conditions_8hpp.html" target="_top" xlink:title=" ">
<polygon fill="none" stroke="black" points="796,-106 796,-158 1023,-158 1023,-106 796,-106"/>
<text text-anchor="start" x="804" y="-146" font-family="Helvetica,sans-Serif" font-size="10.00">/home/runner/work/Documentation</text>
<text text-anchor="start" x="804" y="-135" font-family="Helvetica,sans-Serif" font-size="10.00">/Documentation/master/applications</text>
<text text-anchor="start" x="804" y="-124" font-family="Helvetica,sans-Serif" font-size="10.00">/MeshingApplication/custom_utilities</text>
<text text-anchor="middle" x="909.5" y="-113" font-family="Helvetica,sans-Serif" font-size="10.00">/local_refine_triangle_mesh_conditions.hpp</text>
</a>
</g>
</g>
<!-- Node9&#45;&gt;Node11 -->
<g id="edge14" class="edge">
<title>Node9&#45;&gt;Node11</title>
<path fill="none" stroke="midnightblue" d="M802.9,-195.41C823.53,-183.33 847.03,-169.57 866.71,-158.05"/>
<polygon fill="midnightblue" stroke="midnightblue" points="801.12,-192.4 794.26,-200.47 804.66,-198.44 801.12,-192.4"/>
</g>
<!-- Node10&#45;&gt;Node4 -->
<g id="edge13" class="edge">
<title>Node10&#45;&gt;Node4</title>
<path fill="none" stroke="midnightblue" d="M621.02,-101.31C593.81,-87.49 561.79,-71.23 535.82,-58.04"/>
<polygon fill="midnightblue" stroke="midnightblue" points="619.55,-104.48 630.05,-105.89 622.72,-98.24 619.55,-104.48"/>
</g>
<!-- Node11&#45;&gt;Node4 -->
<g id="edge15" class="edge">
<title>Node11&#45;&gt;Node4</title>
<path fill="none" stroke="midnightblue" d="M801.95,-103.48C797.07,-102.29 792.23,-101.13 787.5,-100 719.8,-83.87 643.24,-66.84 584.27,-53.99"/>
<polygon fill="midnightblue" stroke="midnightblue" points="801.46,-106.97 812.01,-105.95 803.13,-100.17 801.46,-106.97"/>
</g>
</g>
</svg>
        <g id="navigator" transform="translate(0 0)" fill="#404254">
                <rect fill="#f2f5e9" fill-opacity="0.5" stroke="#606060" stroke-width=".5" x="0" y="0" width="60" height="60"/>
                <use id="zoomplus" xlink:href="#zoomPlus" x="17" y="9" onmousedown="handleZoom(evt,'in')"/>
                <use id="zoomminus" xlink:href="#zoomMin" x="42" y="9" onmousedown="handleZoom(evt,'out')"/>
                <use id="reset" xlink:href="#resetDef" x="30" y="36" onmousedown="handleReset()"/>
                <g id="arrowUp" xlink:href="#dirArrow" transform="translate(30 24)" onmousedown="handlePan(0,-1)">
                  <use xlink:href="#rim" fill="#404040">
                        <set attributeName="fill" to="#808080" begin="arrowUp.mouseover" end="arrowUp.mouseout"/>
                  </use>
                  <path fill="none" stroke="white" stroke-width="1.5" d="M0,-3.0v7 M-2.5,-0.5L0,-3.0L2.5,-0.5"/>
                </g>
                <g id="arrowRight" xlink:href="#dirArrow" transform="rotate(90) translate(36 -43)" onmousedown="handlePan(1,0)">
                  <use xlink:href="#rim" fill="#404040">
                        <set attributeName="fill" to="#808080" begin="arrowRight.mouseover" end="arrowRight.mouseout"/>
                  </use>
                  <path fill="none" stroke="white" stroke-width="1.5" d="M0,-3.0v7 M-2.5,-0.5L0,-3.0L2.5,-0.5"/>
                </g>
                <g id="arrowDown" xlink:href="#dirArrow" transform="rotate(180) translate(-30 -48)" onmousedown="handlePan(0,1)">
                  <use xlink:href="#rim" fill="#404040">
                        <set attributeName="fill" to="#808080" begin="arrowDown.mouseover" end="arrowDown.mouseout"/>
                  </use>
                  <path fill="none" stroke="white" stroke-width="1.5" d="M0,-3.0v7 M-2.5,-0.5L0,-3.0L2.5,-0.5"/>
                </g>
                <g id="arrowLeft" xlink:href="#dirArrow" transform="rotate(270) translate(-36 17)" onmousedown="handlePan(-1,0)">
                  <use xlink:href="#rim" fill="#404040">
                        <set attributeName="fill" to="#808080" begin="arrowLeft.mouseover" end="arrowLeft.mouseout"/>
                  </use>
                  <path fill="none" stroke="white" stroke-width="1.5" d="M0,-3.0v7 M-2.5,-0.5L0,-3.0L2.5,-0.5"/>
                </g>
        </g>
        <svg viewBox="0 0 15 15" width="100%" height="30px" preserveAspectRatio="xMaxYMin meet">
         <g id="arrow_out" transform="scale(0.3 0.3)">
          <a xlink:href="local__refine__geometry__mesh_8hpp__dep__incl_org.svg" target="_base">
           <rect id="button" ry="5" rx="5" y="6" x="6" height="38" width="38"
                fill="#f2f5e9" fill-opacity="0.5" stroke="#606060" stroke-width="1.0"/>
           <path id="arrow"
             d="M 11.500037,31.436501 C 11.940474,20.09759 22.043105,11.32322 32.158766,21.979434 L 37.068811,17.246167 C 37.068811,17.246167 37.088388,32 37.088388,32 L 22.160133,31.978069 C 22.160133,31.978069 26.997745,27.140456 26.997745,27.140456 C 18.528582,18.264221 13.291696,25.230495 11.500037,31.436501 z"
             style="fill:#404040;"/>
          </a>
         </g>
        </svg>
</svg>
