<?xml version="1.0" encoding="UTF-8" standalone="no"?>
<!DOCTYPE svg PUBLIC "-//W3C//DTD SVG 1.1//EN"
 "http://www.w3.org/Graphics/SVG/1.1/DTD/svg11.dtd">
<!-- Generated by graphviz version 2.43.0 (0)
 -->
<!-- Title: /home/runner/work/Documentation/Documentation/master/applications/DEMApplication/custom_utilities/analytic_tools/analytic_particle_watcher.h Pages: 1 -->
<svg width="3242pt" height="1034pt"
 viewBox="0.00 0.00 3242.00 1034.00" xmlns="http://www.w3.org/2000/svg" xmlns:xlink="http://www.w3.org/1999/xlink">
<g id="graph0" class="graph" transform="scale(1 1) rotate(0) translate(4 1030)">
<title>/home/runner/work/Documentation/Documentation/master/applications/DEMApplication/custom_utilities/analytic_tools/analytic_particle_watcher.h</title>
<!-- Node1 -->
<g id="node1" class="node">
<title>Node1</title>
<g id="a_node1"><a xlink:title=" ">
<polygon fill="#bfbfbf" stroke="black" points="1986,-973.5 1986,-1025.5 2210,-1025.5 2210,-973.5 1986,-973.5"/>
<text text-anchor="start" x="1994" y="-1013.5" font-family="Helvetica,sans-Serif" font-size="10.00">/home/runner/work/Documentation</text>
<text text-anchor="start" x="1994" y="-1002.5" font-family="Helvetica,sans-Serif" font-size="10.00">/Documentation/master/applications</text>
<text text-anchor="start" x="1994" y="-991.5" font-family="Helvetica,sans-Serif" font-size="10.00">/DEMApplication/custom_utilities</text>
<text text-anchor="middle" x="2098" y="-980.5" font-family="Helvetica,sans-Serif" font-size="10.00">/analytic_tools/analytic_particle_watcher.h</text>
</a>
</g>
</g>
<!-- Node2 -->
<g id="node2" class="node">
<title>Node2</title>
<g id="a_node2"><a xlink:title=" ">
<polygon fill="none" stroke="#bfbfbf" points="1134.5,-917.5 1134.5,-936.5 1253.5,-936.5 1253.5,-917.5 1134.5,-917.5"/>
<text text-anchor="middle" x="1194" y="-924.5" font-family="Helvetica,sans-Serif" font-size="10.00">pybind11/pybind11.h</text>
</a>
</g>
</g>
<!-- Node1&#45;&gt;Node2 -->
<g id="edge1" class="edge">
<title>Node1&#45;&gt;Node2</title>
<path fill="none" stroke="midnightblue" d="M1985.73,-992.24C1827.28,-982.95 1528.82,-963.81 1264.01,-937.05"/>
<polygon fill="midnightblue" stroke="midnightblue" points="1264.12,-933.54 1253.82,-936.01 1263.41,-940.5 1264.12,-933.54"/>
</g>
<!-- Node3 -->
<g id="node3" class="node">
<title>Node3</title>
<g id="a_node3"><a xlink:title=" ">
<polygon fill="none" stroke="#bfbfbf" points="1272,-917.5 1272,-936.5 1316,-936.5 1316,-917.5 1272,-917.5"/>
<text text-anchor="middle" x="1294" y="-924.5" font-family="Helvetica,sans-Serif" font-size="10.00">limits</text>
</a>
</g>
</g>
<!-- Node1&#45;&gt;Node3 -->
<g id="edge2" class="edge">
<title>Node1&#45;&gt;Node3</title>
<path fill="none" stroke="midnightblue" d="M1985.71,-996.7C1836.52,-992.7 1564.96,-979.88 1326.13,-936.84"/>
<polygon fill="midnightblue" stroke="midnightblue" points="1326.69,-933.39 1316.22,-935.04 1325.43,-940.27 1326.69,-933.39"/>
</g>
<!-- Node4 -->
<g id="node4" class="node">
<title>Node4</title>
<g id="a_node4"><a xlink:title=" ">
<polygon fill="none" stroke="#bfbfbf" points="1477,-6 1477,-25 1537,-25 1537,-6 1477,-6"/>
<text text-anchor="middle" x="1507" y="-13" font-family="Helvetica,sans-Serif" font-size="10.00">iostream</text>
</a>
</g>
</g>
<!-- Node1&#45;&gt;Node4 -->
<g id="edge3" class="edge">
<title>Node1&#45;&gt;Node4</title>
<path fill="none" stroke="midnightblue" d="M2210.03,-997.62C2496.63,-993.88 3234,-974.32 3234,-872 3234,-872 3234,-872 3234,-143 3234,-102.07 3217.91,-86.64 3182,-67 3108.04,-26.55 1794.78,-17.95 1547.11,-16.68"/>
<polygon fill="midnightblue" stroke="midnightblue" points="1547.12,-13.18 1537.1,-16.63 1547.08,-20.18 1547.12,-13.18"/>
</g>
<!-- Node5 -->
<g id="node5" class="node">
<title>Node5</title>
<g id="a_node5"><a xlink:title=" ">
<polygon fill="none" stroke="#bfbfbf" points="2070,-917.5 2070,-936.5 2126,-936.5 2126,-917.5 2070,-917.5"/>
<text text-anchor="middle" x="2098" y="-924.5" font-family="Helvetica,sans-Serif" font-size="10.00">iomanip</text>
</a>
</g>
</g>
<!-- Node1&#45;&gt;Node5 -->
<g id="edge4" class="edge">
<title>Node1&#45;&gt;Node5</title>
<path fill="none" stroke="midnightblue" d="M2098,-973.45C2098,-964.73 2098,-955.1 2098,-946.96"/>
<polygon fill="midnightblue" stroke="midnightblue" points="2101.5,-946.7 2098,-936.7 2094.5,-946.7 2101.5,-946.7"/>
</g>
<!-- Node6 -->
<g id="node6" class="node">
<title>Node6</title>
<g id="a_node6"><a xlink:href="../../df/d67/define_8h.html" target="_top" xlink:title=" ">
<polygon fill="none" stroke="black" points="1680.5,-190.5 1680.5,-209.5 1779.5,-209.5 1779.5,-190.5 1680.5,-190.5"/>
<text text-anchor="middle" x="1730" y="-197.5" font-family="Helvetica,sans-Serif" font-size="10.00">includes/define.h</text>
</a>
</g>
</g>
<!-- Node1&#45;&gt;Node6 -->
<g id="edge5" class="edge">
<title>Node1&#45;&gt;Node6</title>
<path fill="none" stroke="midnightblue" d="M2210.03,-989.82C2409.38,-972.87 2805,-931.7 2805,-872 2805,-872 2805,-872 2805,-691 2805,-539.77 2801.88,-475.99 2695,-369 2585.26,-259.15 2519.7,-279.14 2368,-246 2258.84,-222.15 1927,-207.99 1790.07,-203.02"/>
<polygon fill="midnightblue" stroke="midnightblue" points="1789.89,-199.51 1779.77,-202.65 1789.64,-206.51 1789.89,-199.51"/>
</g>
<!-- Node19 -->
<g id="node19" class="node">
<title>Node19</title>
<g id="a_node19"><a xlink:href="../../dd/dfe/model__part_8h.html" target="_top" xlink:title=" ">
<polygon fill="none" stroke="black" points="1334.5,-917.5 1334.5,-936.5 1459.5,-936.5 1459.5,-917.5 1334.5,-917.5"/>
<text text-anchor="middle" x="1397" y="-924.5" font-family="Helvetica,sans-Serif" font-size="10.00">includes/model_part.h</text>
</a>
</g>
</g>
<!-- Node1&#45;&gt;Node19 -->
<g id="edge28" class="edge">
<title>Node1&#45;&gt;Node19</title>
<path fill="none" stroke="midnightblue" d="M1985.76,-987.21C1840.73,-972.63 1592.36,-947.65 1469.79,-935.32"/>
<polygon fill="midnightblue" stroke="midnightblue" points="1470.06,-931.83 1459.76,-934.31 1469.35,-938.79 1470.06,-931.83"/>
</g>
<!-- Node122 -->
<g id="node49" class="node">
<title>Node122</title>
<g id="a_node49"><a xlink:href="../../d8/dd4/analytic__spheric__particle_8h.html" target="_top" xlink:title=" ">
<polygon fill="none" stroke="black" points="2932,-738.5 2932,-768.5 3078,-768.5 3078,-738.5 2932,-738.5"/>
<text text-anchor="start" x="2940" y="-756.5" font-family="Helvetica,sans-Serif" font-size="10.00">custom_elements/analytic</text>
<text text-anchor="middle" x="3005" y="-745.5" font-family="Helvetica,sans-Serif" font-size="10.00">_spheric_particle.h</text>
</a>
</g>
</g>
<!-- Node1&#45;&gt;Node122 -->
<g id="edge166" class="edge">
<title>Node1&#45;&gt;Node122</title>
<path fill="none" stroke="midnightblue" d="M2210.31,-998.11C2385.23,-995.97 2713.61,-985.4 2819,-937 2897.35,-901.02 2962.13,-817.46 2990.12,-777.11"/>
<polygon fill="midnightblue" stroke="midnightblue" points="2993.09,-778.97 2995.83,-768.74 2987.31,-775.03 2993.09,-778.97"/>
</g>
<!-- Node7 -->
<g id="node7" class="node">
<title>Node7</title>
<g id="a_node7"><a xlink:title=" ">
<polygon fill="none" stroke="#bfbfbf" points="1242.5,-73 1242.5,-92 1307.5,-92 1307.5,-73 1242.5,-73"/>
<text text-anchor="middle" x="1275" y="-80" font-family="Helvetica,sans-Serif" font-size="10.00">stdexcept</text>
</a>
</g>
</g>
<!-- Node6&#45;&gt;Node7 -->
<g id="edge6" class="edge">
<title>Node6&#45;&gt;Node7</title>
<path fill="none" stroke="midnightblue" d="M1680.25,-195.36C1621.09,-190.13 1519.81,-178.31 1436,-154 1386.02,-139.5 1331.18,-113.03 1300.14,-96.98"/>
<polygon fill="midnightblue" stroke="midnightblue" points="1301.41,-93.69 1290.93,-92.16 1298.17,-99.9 1301.41,-93.69"/>
</g>
<!-- Node8 -->
<g id="node8" class="node">
<title>Node8</title>
<g id="a_node8"><a xlink:title=" ">
<polygon fill="none" stroke="#bfbfbf" points="1848,-73 1848,-92 1904,-92 1904,-73 1848,-73"/>
<text text-anchor="middle" x="1876" y="-80" font-family="Helvetica,sans-Serif" font-size="10.00">sstream</text>
</a>
</g>
</g>
<!-- Node6&#45;&gt;Node8 -->
<g id="edge7" class="edge">
<title>Node6&#45;&gt;Node8</title>
<path fill="none" stroke="midnightblue" d="M1751.86,-190.36C1770.12,-182.51 1796.25,-169.77 1816,-154 1835.34,-138.55 1853.13,-116.17 1864.23,-100.79"/>
<polygon fill="midnightblue" stroke="midnightblue" points="1867.35,-102.44 1870.23,-92.25 1861.62,-98.42 1867.35,-102.44"/>
</g>
<!-- Node9 -->
<g id="node9" class="node">
<title>Node9</title>
<g id="a_node9"><a xlink:href="../../dc/d25/kratos__export__api_8h.html" target="_top" xlink:title=" ">
<polygon fill="none" stroke="black" points="1256,-0.5 1256,-30.5 1384,-30.5 1384,-0.5 1256,-0.5"/>
<text text-anchor="start" x="1264" y="-18.5" font-family="Helvetica,sans-Serif" font-size="10.00">includes/kratos_export</text>
<text text-anchor="middle" x="1320" y="-7.5" font-family="Helvetica,sans-Serif" font-size="10.00">_api.h</text>
</a>
</g>
</g>
<!-- Node6&#45;&gt;Node9 -->
<g id="edge8" class="edge">
<title>Node6&#45;&gt;Node9</title>
<path fill="none" stroke="midnightblue" d="M1680.39,-191.25C1642.37,-184.29 1589.11,-172.32 1545,-154 1468.39,-122.19 1387.5,-66.52 1346.78,-36.71"/>
<polygon fill="midnightblue" stroke="midnightblue" points="1348.6,-33.7 1338.48,-30.58 1344.45,-39.34 1348.6,-33.7"/>
</g>
<!-- Node10 -->
<g id="node10" class="node">
<title>Node10</title>
<g id="a_node10"><a xlink:href="../../d9/dc0/smart__pointers_8h.html" target="_top" xlink:title=" ">
<polygon fill="none" stroke="black" points="1554.5,-134.5 1554.5,-153.5 1697.5,-153.5 1697.5,-134.5 1554.5,-134.5"/>
<text text-anchor="middle" x="1626" y="-141.5" font-family="Helvetica,sans-Serif" font-size="10.00">includes/smart_pointers.h</text>
</a>
</g>
</g>
<!-- Node6&#45;&gt;Node10 -->
<g id="edge9" class="edge">
<title>Node6&#45;&gt;Node10</title>
<path fill="none" stroke="midnightblue" d="M1713.29,-190.32C1696.69,-181.7 1671,-168.36 1651.78,-158.39"/>
<polygon fill="midnightblue" stroke="midnightblue" points="1653.16,-155.16 1642.67,-153.65 1649.93,-161.37 1653.16,-155.16"/>
</g>
<!-- Node14 -->
<g id="node14" class="node">
<title>Node14</title>
<g id="a_node14"><a xlink:href="../../dd/d2d/exception_8h.html" target="_top" xlink:title=" ">
<polygon fill="none" stroke="black" points="674.5,-134.5 674.5,-153.5 791.5,-153.5 791.5,-134.5 674.5,-134.5"/>
<text text-anchor="middle" x="733" y="-141.5" font-family="Helvetica,sans-Serif" font-size="10.00">includes/exception.h</text>
</a>
</g>
</g>
<!-- Node6&#45;&gt;Node14 -->
<g id="edge14" class="edge">
<title>Node6&#45;&gt;Node14</title>
<path fill="none" stroke="midnightblue" d="M1680.22,-196.3C1515.93,-187.41 990.75,-158.96 801.66,-148.72"/>
<polygon fill="midnightblue" stroke="midnightblue" points="801.74,-145.22 791.57,-148.17 801.37,-152.21 801.74,-145.22"/>
</g>
<!-- Node10&#45;&gt;Node4 -->
<g id="edge10" class="edge">
<title>Node10&#45;&gt;Node4</title>
<path fill="none" stroke="midnightblue" d="M1675.07,-134.46C1725.16,-123.61 1791.76,-101.98 1763,-67 1736.16,-34.35 1612.42,-22.46 1547.31,-18.42"/>
<polygon fill="midnightblue" stroke="midnightblue" points="1547.2,-14.91 1537.01,-17.82 1546.79,-21.9 1547.2,-14.91"/>
</g>
<!-- Node11 -->
<g id="node11" class="node">
<title>Node11</title>
<g id="a_node11"><a xlink:title=" ">
<polygon fill="none" stroke="#bfbfbf" points="2509.5,-73 2509.5,-92 2554.5,-92 2554.5,-73 2509.5,-73"/>
<text text-anchor="middle" x="2532" y="-80" font-family="Helvetica,sans-Serif" font-size="10.00">utility</text>
</a>
</g>
</g>
<!-- Node10&#45;&gt;Node11 -->
<g id="edge11" class="edge">
<title>Node10&#45;&gt;Node11</title>
<path fill="none" stroke="midnightblue" d="M1697.85,-138.28C1882.46,-126.16 2368.1,-94.26 2499.06,-85.66"/>
<polygon fill="midnightblue" stroke="midnightblue" points="2499.5,-89.14 2509.25,-84.99 2499.05,-82.16 2499.5,-89.14"/>
</g>
<!-- Node12 -->
<g id="node12" class="node">
<title>Node12</title>
<g id="a_node12"><a xlink:title=" ">
<polygon fill="none" stroke="#bfbfbf" points="1554,-73 1554,-92 1612,-92 1612,-73 1554,-73"/>
<text text-anchor="middle" x="1583" y="-80" font-family="Helvetica,sans-Serif" font-size="10.00">memory</text>
</a>
</g>
</g>
<!-- Node10&#45;&gt;Node12 -->
<g id="edge12" class="edge">
<title>Node10&#45;&gt;Node12</title>
<path fill="none" stroke="midnightblue" d="M1619.84,-134.48C1613.39,-125.55 1603.1,-111.31 1595.03,-100.14"/>
<polygon fill="midnightblue" stroke="midnightblue" points="1597.84,-98.06 1589.15,-92.01 1592.17,-102.16 1597.84,-98.06"/>
</g>
<!-- Node13 -->
<g id="node13" class="node">
<title>Node13</title>
<g id="a_node13"><a xlink:title=" ">
<polygon fill="none" stroke="#bfbfbf" points="1630,-67.5 1630,-97.5 1754,-97.5 1754,-67.5 1630,-67.5"/>
<text text-anchor="start" x="1638" y="-85.5" font-family="Helvetica,sans-Serif" font-size="10.00">intrusive_ptr/intrusive</text>
<text text-anchor="middle" x="1692" y="-74.5" font-family="Helvetica,sans-Serif" font-size="10.00">_ptr.hpp</text>
</a>
</g>
</g>
<!-- Node10&#45;&gt;Node13 -->
<g id="edge13" class="edge">
<title>Node10&#45;&gt;Node13</title>
<path fill="none" stroke="midnightblue" d="M1635.46,-134.48C1644.14,-126.64 1657.38,-114.71 1668.86,-104.37"/>
<polygon fill="midnightblue" stroke="midnightblue" points="1671.36,-106.82 1676.45,-97.52 1666.67,-101.62 1671.36,-106.82"/>
</g>
<!-- Node14&#45;&gt;Node4 -->
<g id="edge17" class="edge">
<title>Node14&#45;&gt;Node4</title>
<path fill="none" stroke="midnightblue" d="M774.17,-134.47C809.62,-126.62 861.88,-113.8 906,-98 936.89,-86.94 941.29,-75.42 973,-67 1154.08,-18.94 1206.7,-50.82 1393,-31 1417.38,-28.41 1444.62,-24.96 1466.36,-22.08"/>
<polygon fill="midnightblue" stroke="midnightblue" points="1467.11,-25.51 1476.56,-20.72 1466.18,-18.57 1467.11,-25.51"/>
</g>
<!-- Node14&#45;&gt;Node7 -->
<g id="edge15" class="edge">
<title>Node14&#45;&gt;Node7</title>
<path fill="none" stroke="midnightblue" d="M791.52,-136.58C901.39,-124.51 1136.12,-98.75 1232.43,-88.17"/>
<polygon fill="midnightblue" stroke="midnightblue" points="1232.83,-91.65 1242.39,-87.08 1232.07,-84.69 1232.83,-91.65"/>
</g>
<!-- Node14&#45;&gt;Node8 -->
<g id="edge18" class="edge">
<title>Node14&#45;&gt;Node8</title>
<path fill="none" stroke="midnightblue" d="M791.76,-142.16C949.32,-139.53 1394.29,-129.65 1763,-98 1787.89,-95.86 1815.74,-92.3 1837.56,-89.25"/>
<polygon fill="midnightblue" stroke="midnightblue" points="1838.34,-92.67 1847.74,-87.8 1837.35,-85.74 1838.34,-92.67"/>
</g>
<!-- Node14&#45;&gt;Node9 -->
<g id="edge20" class="edge">
<title>Node14&#45;&gt;Node9</title>
<path fill="none" stroke="midnightblue" d="M751.96,-134.43C787.88,-118.56 868.64,-84.61 940,-67 968.96,-59.85 1143.72,-37.95 1245.87,-25.46"/>
<polygon fill="midnightblue" stroke="midnightblue" points="1246.33,-28.93 1255.83,-24.25 1245.48,-21.98 1246.33,-28.93"/>
</g>
<!-- Node15 -->
<g id="node15" class="node">
<title>Node15</title>
<g id="a_node15"><a xlink:title=" ">
<polygon fill="none" stroke="#bfbfbf" points="358,-6 358,-25 402,-25 402,-6 358,-6"/>
<text text-anchor="middle" x="380" y="-13" font-family="Helvetica,sans-Serif" font-size="10.00">string</text>
</a>
</g>
</g>
<!-- Node14&#45;&gt;Node15 -->
<g id="edge16" class="edge">
<title>Node14&#45;&gt;Node15</title>
<path fill="none" stroke="midnightblue" d="M705.17,-134.45C677.01,-125.69 632.28,-111.48 594,-98 528.35,-74.89 452.41,-45.27 410.96,-28.86"/>
<polygon fill="midnightblue" stroke="midnightblue" points="412.02,-25.51 401.43,-25.08 409.44,-32.02 412.02,-25.51"/>
</g>
<!-- Node16 -->
<g id="node16" class="node">
<title>Node16</title>
<g id="a_node16"><a xlink:title=" ">
<polygon fill="none" stroke="#bfbfbf" points="1134.5,-6 1134.5,-25 1181.5,-25 1181.5,-6 1134.5,-6"/>
<text text-anchor="middle" x="1158" y="-13" font-family="Helvetica,sans-Serif" font-size="10.00">vector</text>
</a>
</g>
</g>
<!-- Node14&#45;&gt;Node16 -->
<g id="edge19" class="edge">
<title>Node14&#45;&gt;Node16</title>
<path fill="none" stroke="midnightblue" d="M683.23,-134.45C662.17,-128.1 639.63,-117.09 627,-98 619.4,-86.51 617.73,-77.19 627,-67 660.5,-30.17 1012.47,-19.58 1124.18,-17.14"/>
<polygon fill="midnightblue" stroke="midnightblue" points="1124.29,-20.63 1134.22,-16.92 1124.15,-13.64 1124.29,-20.63"/>
</g>
<!-- Node17 -->
<g id="node17" class="node">
<title>Node17</title>
<g id="a_node17"><a xlink:href="../../da/da6/code__location_8h.html" target="_top" xlink:title=" ">
<polygon fill="none" stroke="black" points="636.5,-73 636.5,-92 773.5,-92 773.5,-73 636.5,-73"/>
<text text-anchor="middle" x="705" y="-80" font-family="Helvetica,sans-Serif" font-size="10.00">includes/code_location.h</text>
</a>
</g>
</g>
<!-- Node14&#45;&gt;Node17 -->
<g id="edge21" class="edge">
<title>Node14&#45;&gt;Node17</title>
<path fill="none" stroke="midnightblue" d="M728.99,-134.48C724.91,-125.82 718.48,-112.15 713.3,-101.15"/>
<polygon fill="midnightblue" stroke="midnightblue" points="716.43,-99.57 709,-92.01 710.1,-102.55 716.43,-99.57"/>
</g>
<!-- Node18 -->
<g id="node18" class="node">
<title>Node18</title>
<g id="a_node18"><a xlink:href="../../d9/d06/stl__vector__io_8h.html" target="_top" xlink:title=" ">
<polygon fill="none" stroke="black" points="982,-73 982,-92 1110,-92 1110,-73 982,-73"/>
<text text-anchor="middle" x="1046" y="-80" font-family="Helvetica,sans-Serif" font-size="10.00">utilities/stl_vector_io.h</text>
</a>
</g>
</g>
<!-- Node14&#45;&gt;Node18 -->
<g id="edge25" class="edge">
<title>Node14&#45;&gt;Node18</title>
<path fill="none" stroke="midnightblue" d="M777.85,-134.48C834.09,-123.78 930.49,-105.46 991.09,-93.94"/>
<polygon fill="midnightblue" stroke="midnightblue" points="992.07,-97.32 1001.24,-92.01 990.76,-90.44 992.07,-97.32"/>
</g>
<!-- Node17&#45;&gt;Node4 -->
<g id="edge23" class="edge">
<title>Node17&#45;&gt;Node4</title>
<path fill="none" stroke="midnightblue" d="M748.37,-72.97C761.1,-70.72 775.07,-68.51 788,-67 1055.55,-35.77 1124.8,-56.01 1393,-31 1417.41,-28.72 1444.66,-25.29 1466.39,-22.34"/>
<polygon fill="midnightblue" stroke="midnightblue" points="1467.15,-25.77 1476.58,-20.93 1466.19,-18.83 1467.15,-25.77"/>
</g>
<!-- Node17&#45;&gt;Node9 -->
<g id="edge24" class="edge">
<title>Node17&#45;&gt;Node9</title>
<path fill="none" stroke="midnightblue" d="M749.69,-72.99C762.07,-70.82 775.53,-68.64 788,-67 965.84,-43.54 1011.52,-48.94 1190,-31 1208.11,-29.18 1227.63,-27.08 1245.89,-25.05"/>
<polygon fill="midnightblue" stroke="midnightblue" points="1246.34,-28.52 1255.89,-23.93 1245.56,-21.56 1246.34,-28.52"/>
</g>
<!-- Node17&#45;&gt;Node15 -->
<g id="edge22" class="edge">
<title>Node17&#45;&gt;Node15</title>
<path fill="none" stroke="midnightblue" d="M662.18,-72.94C596.16,-59.73 471.01,-34.7 412.14,-22.93"/>
<polygon fill="midnightblue" stroke="midnightblue" points="412.77,-19.48 402.28,-20.96 411.4,-26.35 412.77,-19.48"/>
</g>
<!-- Node18&#45;&gt;Node4 -->
<g id="edge26" class="edge">
<title>Node18&#45;&gt;Node4</title>
<path fill="none" stroke="midnightblue" d="M1089.66,-72.96C1100.83,-70.9 1112.85,-68.77 1124,-67 1157.37,-61.7 1375.46,-33.46 1466.83,-21.67"/>
<polygon fill="midnightblue" stroke="midnightblue" points="1467.34,-25.14 1476.81,-20.39 1466.45,-18.19 1467.34,-25.14"/>
</g>
<!-- Node18&#45;&gt;Node16 -->
<g id="edge27" class="edge">
<title>Node18&#45;&gt;Node16</title>
<path fill="none" stroke="midnightblue" d="M1061.1,-72.73C1079.91,-61.82 1112.25,-43.05 1134.36,-30.22"/>
<polygon fill="midnightblue" stroke="midnightblue" points="1136.24,-33.17 1143.13,-25.13 1132.73,-27.12 1136.24,-33.17"/>
</g>
<!-- Node19&#45;&gt;Node4 -->
<g id="edge30" class="edge">
<title>Node19&#45;&gt;Node4</title>
<path fill="none" stroke="midnightblue" d="M1459.71,-925.52C1777.6,-922.65 3196,-904.91 3196,-816 3196,-816 3196,-816 3196,-143 3196,-103.52 3184.09,-86.91 3150,-67 3078.71,-25.36 1793.51,-17.74 1547.51,-16.66"/>
<polygon fill="midnightblue" stroke="midnightblue" points="1547.25,-13.15 1537.24,-16.61 1547.22,-20.15 1547.25,-13.15"/>
</g>
<!-- Node19&#45;&gt;Node6 -->
<g id="edge33" class="edge">
<title>Node19&#45;&gt;Node6</title>
<path fill="none" stroke="midnightblue" d="M1459.66,-926.19C1688.95,-926.07 2469,-918.14 2469,-816 2469,-816 2469,-816 2469,-568 2469,-503.56 2475.62,-481.7 2445,-425 2410.18,-360.52 2386.3,-351.58 2324,-313 2285.61,-289.23 2271.16,-293.16 2229,-277 2193.39,-263.35 2186.05,-255 2149,-246 2023.55,-215.52 1871.98,-205.68 1789.89,-202.51"/>
<polygon fill="midnightblue" stroke="midnightblue" points="1789.87,-199 1779.75,-202.13 1789.61,-206 1789.87,-199"/>
</g>
<!-- Node19&#45;&gt;Node8 -->
<g id="edge31" class="edge">
<title>Node19&#45;&gt;Node8</title>
<path fill="none" stroke="midnightblue" d="M1459.7,-925.51C1667.05,-923.56 2329.33,-914.81 2540,-881 2643.62,-864.37 2767,-920.94 2767,-816 2767,-816 2767,-816 2767,-691 2767,-491.93 2877.46,-362.45 2716,-246 2667.94,-211.34 2650.99,-209.41 2595,-190 2345.77,-103.6 2024.15,-87.29 1914.55,-84.21"/>
<polygon fill="midnightblue" stroke="midnightblue" points="1914.4,-80.71 1904.31,-83.95 1914.22,-87.71 1914.4,-80.71"/>
</g>
<!-- Node19&#45;&gt;Node15 -->
<g id="edge29" class="edge">
<title>Node19&#45;&gt;Node15</title>
<path fill="none" stroke="midnightblue" d="M1334.21,-917.79C1331.1,-917.5 1328.01,-917.23 1325,-917 1187.46,-906.43 213.88,-927.5 84,-881 39.56,-865.09 0,-863.21 0,-816 0,-816 0,-816 0,-143 0,-105.43 6.69,-89.19 37,-67 86.07,-31.08 271.37,-20.4 347.27,-17.5"/>
<polygon fill="midnightblue" stroke="midnightblue" points="347.78,-20.98 357.65,-17.12 347.53,-13.99 347.78,-20.98"/>
</g>
<!-- Node20 -->
<g id="node20" class="node">
<title>Node20</title>
<g id="a_node20"><a xlink:title=" ">
<polygon fill="none" stroke="#bfbfbf" points="1227.5,-369.5 1227.5,-388.5 1280.5,-388.5 1280.5,-369.5 1227.5,-369.5"/>
<text text-anchor="middle" x="1254" y="-376.5" font-family="Helvetica,sans-Serif" font-size="10.00">cstddef</text>
</a>
</g>
</g>
<!-- Node19&#45;&gt;Node20 -->
<g id="edge32" class="edge">
<title>Node19&#45;&gt;Node20</title>
<path fill="none" stroke="midnightblue" d="M1388.83,-917.38C1373.07,-899.81 1340,-857.94 1340,-816 1340,-816 1340,-816 1340,-506.5 1340,-459.5 1298.89,-417.02 1273.52,-395.28"/>
<polygon fill="midnightblue" stroke="midnightblue" points="1275.53,-392.4 1265.6,-388.72 1271.07,-397.8 1275.53,-392.4"/>
</g>
<!-- Node21 -->
<g id="node21" class="node">
<title>Node21</title>
<g id="a_node21"><a xlink:href="../../dd/d5f/serializer_8h.html" target="_top" xlink:title=" ">
<polygon fill="none" stroke="black" points="1615.5,-369.5 1615.5,-388.5 1728.5,-388.5 1728.5,-369.5 1615.5,-369.5"/>
<text text-anchor="middle" x="1672" y="-376.5" font-family="Helvetica,sans-Serif" font-size="10.00">includes/serializer.h</text>
</a>
</g>
</g>
<!-- Node19&#45;&gt;Node21 -->
<g id="edge34" class="edge">
<title>Node19&#45;&gt;Node21</title>
<path fill="none" stroke="midnightblue" d="M1394.44,-917.25C1389.25,-898.74 1378,-854.18 1378,-816 1378,-816 1378,-816 1378,-752.5 1378,-578.21 1578.77,-437.6 1648.49,-394.03"/>
<polygon fill="midnightblue" stroke="midnightblue" points="1650.74,-396.75 1657.42,-388.53 1647.07,-390.79 1650.74,-396.75"/>
</g>
<!-- Node55 -->
<g id="node32" class="node">
<title>Node55</title>
<g id="a_node32"><a xlink:href="../../d1/d8c/logger_8h.html" target="_top" xlink:title=" ">
<polygon fill="none" stroke="red" points="560,-190.5 560,-209.5 680,-209.5 680,-190.5 560,-190.5"/>
<text text-anchor="middle" x="620" y="-197.5" font-family="Helvetica,sans-Serif" font-size="10.00">input_output/logger.h</text>
</a>
</g>
</g>
<!-- Node19&#45;&gt;Node55 -->
<g id="edge158" class="edge">
<title>Node19&#45;&gt;Node55</title>
<path fill="none" stroke="midnightblue" d="M1334.2,-917.83C1331.09,-917.52 1328.01,-917.24 1325,-917 902.98,-882.71 793.02,-934.47 373,-881 238.96,-863.94 76,-951.12 76,-816 76,-816 76,-816 76,-629.5 76,-375.2 447.39,-248.6 576.44,-212.28"/>
<polygon fill="midnightblue" stroke="midnightblue" points="577.68,-215.57 586.38,-209.53 575.81,-208.82 577.68,-215.57"/>
</g>
<!-- Node59 -->
<g id="node33" class="node">
<title>Node59</title>
<g id="a_node33"><a xlink:href="../../de/db8/process__info_8h.html" target="_top" xlink:title=" ">
<polygon fill="none" stroke="black" points="332.5,-682.5 332.5,-701.5 463.5,-701.5 463.5,-682.5 332.5,-682.5"/>
<text text-anchor="middle" x="398" y="-689.5" font-family="Helvetica,sans-Serif" font-size="10.00">includes/process_info.h</text>
</a>
</g>
</g>
<!-- Node19&#45;&gt;Node59 -->
<g id="edge68" class="edge">
<title>Node19&#45;&gt;Node59</title>
<path fill="none" stroke="midnightblue" d="M1334.2,-917.84C1331.09,-917.53 1328.01,-917.25 1325,-917 1129.73,-900.83 632.87,-933.15 444,-881 393.77,-867.13 367.63,-869.79 341,-825 317.52,-785.5 357.28,-734.56 381.47,-709.05"/>
<polygon fill="midnightblue" stroke="midnightblue" points="384.17,-711.3 388.68,-701.71 379.18,-706.39 384.17,-711.3"/>
</g>
<!-- Node60 -->
<g id="node34" class="node">
<title>Node60</title>
<g id="a_node34"><a xlink:href="../../d1/d82/data__value__container_8h.html" target="_top" xlink:title=" ">
<polygon fill="none" stroke="black" points="429.5,-615.5 429.5,-645.5 554.5,-645.5 554.5,-615.5 429.5,-615.5"/>
<text text-anchor="start" x="437.5" y="-633.5" font-family="Helvetica,sans-Serif" font-size="10.00">containers/data_value</text>
<text text-anchor="middle" x="492" y="-622.5" font-family="Helvetica,sans-Serif" font-size="10.00">_container.h</text>
</a>
</g>
</g>
<!-- Node19&#45;&gt;Node60 -->
<g id="edge100" class="edge">
<title>Node19&#45;&gt;Node60</title>
<path fill="none" stroke="midnightblue" d="M1334.2,-917.87C1331.09,-917.55 1328.01,-917.26 1325,-917 1162.53,-902.88 747.18,-931.17 592,-881 541.56,-864.69 492,-869.01 492,-816 492,-816 492,-816 492,-752.5 492,-718.98 492,-680.24 492,-655.81"/>
<polygon fill="midnightblue" stroke="midnightblue" points="495.5,-655.66 492,-645.66 488.5,-655.66 495.5,-655.66"/>
</g>
<!-- Node61 -->
<g id="node35" class="node">
<title>Node61</title>
<g id="a_node35"><a xlink:href="../../da/d89/variable_8h.html" target="_top" xlink:title=" ">
<polygon fill="none" stroke="black" points="698.5,-498 698.5,-517 817.5,-517 817.5,-498 698.5,-498"/>
<text text-anchor="middle" x="758" y="-505" font-family="Helvetica,sans-Serif" font-size="10.00">containers/variable.h</text>
</a>
</g>
</g>
<!-- Node19&#45;&gt;Node61 -->
<g id="edge164" class="edge">
<title>Node19&#45;&gt;Node61</title>
<path fill="none" stroke="midnightblue" d="M1347.42,-917.46C1223.1,-895.7 908,-838.35 908,-816 908,-816 908,-816 908,-691 908,-655.58 907.6,-641.41 884,-615 857.75,-585.62 832.86,-604.69 803,-579 786.02,-564.4 773.17,-541.8 765.63,-526.15"/>
<polygon fill="midnightblue" stroke="midnightblue" points="768.8,-524.65 761.46,-517.01 762.43,-527.56 768.8,-524.65"/>
</g>
<!-- Node62 -->
<g id="node36" class="node">
<title>Node62</title>
<g id="a_node36"><a xlink:href="../../d3/dc3/variable__data_8h.html" target="_top" xlink:title=" ">
<polygon fill="none" stroke="red" points="1446,-431 1446,-450 1538,-450 1538,-431 1446,-431"/>
<text text-anchor="middle" x="1492" y="-438" font-family="Helvetica,sans-Serif" font-size="10.00">variable_data.h</text>
</a>
</g>
</g>
<!-- Node19&#45;&gt;Node62 -->
<g id="edge165" class="edge">
<title>Node19&#45;&gt;Node62</title>
<path fill="none" stroke="midnightblue" d="M1418.03,-917.41C1449.22,-903.38 1506.54,-872.27 1530,-825 1593.42,-697.21 1524.83,-516.24 1500.14,-459.34"/>
<polygon fill="midnightblue" stroke="midnightblue" points="1503.34,-457.92 1496.08,-450.2 1496.94,-460.76 1503.34,-457.92"/>
</g>
<!-- Node72 -->
<g id="node38" class="node">
<title>Node72</title>
<g id="a_node38"><a xlink:href="../../d8/d3b/mesh_8h.html" target="_top" xlink:title=" ">
<polygon fill="none" stroke="red" points="1425,-805.5 1425,-824.5 1521,-824.5 1521,-805.5 1425,-805.5"/>
<text text-anchor="middle" x="1473" y="-812.5" font-family="Helvetica,sans-Serif" font-size="10.00">includes/mesh.h</text>
</a>
</g>
</g>
<!-- Node19&#45;&gt;Node72 -->
<g id="edge101" class="edge">
<title>Node19&#45;&gt;Node72</title>
<path fill="none" stroke="midnightblue" d="M1402.96,-917.37C1415.51,-899.22 1444.81,-856.8 1461.26,-832.99"/>
<polygon fill="midnightblue" stroke="midnightblue" points="1464.26,-834.81 1467.06,-824.59 1458.5,-830.83 1464.26,-834.81"/>
</g>
<!-- Node76 -->
<g id="node40" class="node">
<title>Node76</title>
<g id="a_node40"><a xlink:href="../../d2/d58/pointer__vector__map_8h.html" target="_top" xlink:title=" ">
<polygon fill="none" stroke="red" points="2530.5,-425.5 2530.5,-455.5 2635.5,-455.5 2635.5,-425.5 2530.5,-425.5"/>
<text text-anchor="start" x="2538.5" y="-443.5" font-family="Helvetica,sans-Serif" font-size="10.00">containers/pointer</text>
<text text-anchor="middle" x="2583" y="-432.5" font-family="Helvetica,sans-Serif" font-size="10.00">_vector_map.h</text>
</a>
</g>
</g>
<!-- Node19&#45;&gt;Node76 -->
<g id="edge156" class="edge">
<title>Node19&#45;&gt;Node76</title>
<path fill="none" stroke="midnightblue" d="M1459.61,-924.76C1653.48,-920.66 2235.77,-906.37 2317,-881 2501.13,-823.49 2564,-549.43 2579.08,-465.79"/>
<polygon fill="midnightblue" stroke="midnightblue" points="2582.56,-466.17 2580.82,-455.72 2575.67,-464.97 2582.56,-466.17"/>
</g>
<!-- Node89 -->
<g id="node41" class="node">
<title>Node89</title>
<g id="a_node41"><a xlink:href="../../da/da4/master__slave__constraint_8h.html" target="_top" xlink:title=" ">
<polygon fill="none" stroke="red" points="1131,-738.5 1131,-768.5 1257,-768.5 1257,-738.5 1131,-738.5"/>
<text text-anchor="start" x="1139" y="-756.5" font-family="Helvetica,sans-Serif" font-size="10.00">includes/master_slave</text>
<text text-anchor="middle" x="1194" y="-745.5" font-family="Helvetica,sans-Serif" font-size="10.00">_constraint.h</text>
</a>
</g>
</g>
<!-- Node19&#45;&gt;Node89 -->
<g id="edge163" class="edge">
<title>Node19&#45;&gt;Node89</title>
<path fill="none" stroke="midnightblue" d="M1381.45,-917.35C1366.65,-908.85 1344.04,-895.13 1326,-881 1283.43,-847.65 1239.06,-802.66 1214.14,-776.3"/>
<polygon fill="midnightblue" stroke="midnightblue" points="1216.44,-773.64 1207.05,-768.75 1211.34,-778.43 1216.44,-773.64"/>
</g>
<!-- Node101 -->
<g id="node42" class="node">
<title>Node101</title>
<g id="a_node42"><a xlink:href="../../d3/dad/geometry__container_8h.html" target="_top" xlink:title=" ">
<polygon fill="none" stroke="black" points="2225,-492.5 2225,-522.5 2343,-522.5 2343,-492.5 2225,-492.5"/>
<text text-anchor="start" x="2233" y="-510.5" font-family="Helvetica,sans-Serif" font-size="10.00">containers/geometry</text>
<text text-anchor="middle" x="2284" y="-499.5" font-family="Helvetica,sans-Serif" font-size="10.00">_container.h</text>
</a>
</g>
</g>
<!-- Node19&#45;&gt;Node101 -->
<g id="edge130" class="edge">
<title>Node19&#45;&gt;Node101</title>
<path fill="none" stroke="midnightblue" d="M1459.64,-926.44C1639.95,-927.15 2151.12,-925.22 2211,-881 2235.77,-862.7 2235,-846.8 2235,-816 2235,-816 2235,-816 2235,-629.5 2235,-593.09 2254.3,-554.72 2268.68,-531.19"/>
<polygon fill="midnightblue" stroke="midnightblue" points="2271.69,-532.97 2274.08,-522.65 2265.78,-529.22 2271.69,-532.97"/>
</g>
<!-- Node102 -->
<g id="node43" class="node">
<title>Node102</title>
<g id="a_node43"><a xlink:href="../../da/d92/pointer__hash__map__set_8h.html" target="_top" xlink:title=" ">
<polygon fill="none" stroke="red" points="2331.5,-425.5 2331.5,-455.5 2436.5,-455.5 2436.5,-425.5 2331.5,-425.5"/>
<text text-anchor="start" x="2339.5" y="-443.5" font-family="Helvetica,sans-Serif" font-size="10.00">containers/pointer</text>
<text text-anchor="middle" x="2384" y="-432.5" font-family="Helvetica,sans-Serif" font-size="10.00">_hash_map_set.h</text>
</a>
</g>
</g>
<!-- Node19&#45;&gt;Node102 -->
<g id="edge157" class="edge">
<title>Node19&#45;&gt;Node102</title>
<path fill="none" stroke="midnightblue" d="M1459.66,-925.35C1628.02,-923.18 2087.46,-914.3 2235,-881 2309.07,-864.28 2393,-891.93 2393,-816 2393,-816 2393,-816 2393,-568 2393,-532.33 2389.39,-491.14 2386.75,-465.7"/>
<polygon fill="midnightblue" stroke="midnightblue" points="2390.2,-465.08 2385.65,-455.52 2383.24,-465.83 2390.2,-465.08"/>
</g>
<!-- Node103 -->
<g id="node44" class="node">
<title>Node103</title>
<g id="a_node44"><a xlink:href="../../d4/dfe/element_8h.html" target="_top" xlink:title=" ">
<polygon fill="none" stroke="red" points="520,-805.5 520,-824.5 630,-824.5 630,-805.5 520,-805.5"/>
<text text-anchor="middle" x="575" y="-812.5" font-family="Helvetica,sans-Serif" font-size="10.00">includes/element.h</text>
</a>
</g>
</g>
<!-- Node19&#45;&gt;Node103 -->
<g id="edge137" class="edge">
<title>Node19&#45;&gt;Node103</title>
<path fill="none" stroke="midnightblue" d="M1334.2,-917.87C1331.09,-917.56 1328.01,-917.26 1325,-917 1246.53,-910.11 685.2,-920.41 617,-881 599.23,-870.73 587.71,-849.58 581.31,-834.18"/>
<polygon fill="midnightblue" stroke="midnightblue" points="584.51,-832.75 577.69,-824.65 577.97,-835.24 584.51,-832.75"/>
</g>
<!-- Node119 -->
<g id="node45" class="node">
<title>Node119</title>
<g id="a_node45"><a xlink:href="../../d7/d6c/condition_8h.html" target="_top" xlink:title=" ">
<polygon fill="none" stroke="red" points="350,-805.5 350,-824.5 464,-824.5 464,-805.5 350,-805.5"/>
<text text-anchor="middle" x="407" y="-812.5" font-family="Helvetica,sans-Serif" font-size="10.00">includes/condition.h</text>
</a>
</g>
</g>
<!-- Node19&#45;&gt;Node119 -->
<g id="edge139" class="edge">
<title>Node19&#45;&gt;Node119</title>
<path fill="none" stroke="midnightblue" d="M1334.2,-917.84C1331.09,-917.54 1328.01,-917.25 1325,-917 1231.13,-909.15 565.05,-916.98 478,-881 453.73,-870.97 432.5,-848.76 419.72,-833.1"/>
<polygon fill="midnightblue" stroke="midnightblue" points="422.14,-830.5 413.22,-824.78 416.62,-834.82 422.14,-830.5"/>
</g>
<!-- Node120 -->
<g id="node46" class="node">
<title>Node120</title>
<g id="a_node46"><a xlink:href="../../d8/d75/communicator_8h.html" target="_top" xlink:title=" ">
<polygon fill="none" stroke="black" points="626.5,-861.5 626.5,-880.5 765.5,-880.5 765.5,-861.5 626.5,-861.5"/>
<text text-anchor="middle" x="696" y="-868.5" font-family="Helvetica,sans-Serif" font-size="10.00">includes/communicator.h</text>
</a>
</g>
</g>
<!-- Node19&#45;&gt;Node120 -->
<g id="edge141" class="edge">
<title>Node19&#45;&gt;Node120</title>
<path fill="none" stroke="midnightblue" d="M1334.2,-917.93C1331.09,-917.6 1328.01,-917.29 1325,-917 1083.35,-893.94 1021.85,-901.93 780,-881 778.68,-880.89 777.36,-880.77 776.02,-880.65"/>
<polygon fill="midnightblue" stroke="midnightblue" points="775.93,-877.13 765.65,-879.68 775.28,-884.1 775.93,-877.13"/>
</g>
<!-- Node105 -->
<g id="node47" class="node">
<title>Node105</title>
<g id="a_node47"><a xlink:href="../../dd/d98/table_8h.html" target="_top" xlink:title=" ">
<polygon fill="none" stroke="black" points="471,-559.5 471,-578.5 565,-578.5 565,-559.5 471,-559.5"/>
<text text-anchor="middle" x="518" y="-566.5" font-family="Helvetica,sans-Serif" font-size="10.00">includes/table.h</text>
</a>
</g>
</g>
<!-- Node19&#45;&gt;Node105 -->
<g id="edge150" class="edge">
<title>Node19&#45;&gt;Node105</title>
<path fill="none" stroke="midnightblue" d="M1334.19,-917.99C1331.08,-917.65 1328.01,-917.31 1325,-917 1133.81,-897.07 1075.86,-943.26 894,-881 843.85,-863.83 794,-869.01 794,-816 794,-816 794,-816 794,-691 794,-596.3 656.02,-575.02 575.18,-570.69"/>
<polygon fill="midnightblue" stroke="midnightblue" points="575.28,-567.19 565.13,-570.22 574.96,-574.18 575.28,-567.19"/>
</g>
<!-- Node121 -->
<g id="node48" class="node">
<title>Node121</title>
<g id="a_node48"><a xlink:href="../../d0/dac/kratos__flags_8h.html" target="_top" xlink:title=" ">
<polygon fill="none" stroke="black" points="2573,-621 2573,-640 2701,-640 2701,-621 2573,-621"/>
<text text-anchor="middle" x="2637" y="-628" font-family="Helvetica,sans-Serif" font-size="10.00">includes/kratos_flags.h</text>
</a>
</g>
</g>
<!-- Node19&#45;&gt;Node121 -->
<g id="edge159" class="edge">
<title>Node19&#45;&gt;Node121</title>
<path fill="none" stroke="midnightblue" d="M1459.58,-925.13C1675.99,-921.89 2384.84,-909.21 2483,-881 2539.06,-864.89 2597,-874.32 2597,-816 2597,-816 2597,-816 2597,-752.5 2597,-714.15 2615.34,-672.25 2627.18,-649.2"/>
<polygon fill="midnightblue" stroke="midnightblue" points="2630.32,-650.75 2631.93,-640.28 2624.15,-647.46 2630.32,-650.75"/>
</g>
<!-- Node21&#45;&gt;Node4 -->
<g id="edge37" class="edge">
<title>Node21&#45;&gt;Node4</title>
<path fill="none" stroke="midnightblue" d="M1728.59,-373.77C1787.77,-368.3 1882.89,-356.53 1962,-333 2178.12,-268.73 2548.84,-230.91 2394,-67 2364.56,-35.84 1717.15,-20.71 1547.43,-17.27"/>
<polygon fill="midnightblue" stroke="midnightblue" points="1547.48,-13.77 1537.41,-17.07 1547.34,-20.77 1547.48,-13.77"/>
</g>
<!-- Node21&#45;&gt;Node6 -->
<g id="edge44" class="edge">
<title>Node21&#45;&gt;Node6</title>
<path fill="none" stroke="midnightblue" d="M1687.92,-369.47C1700.47,-361.77 1717.14,-349.18 1725,-333 1742.98,-296 1738.22,-246.04 1733.76,-219.45"/>
<polygon fill="midnightblue" stroke="midnightblue" points="1737.19,-218.79 1731.93,-209.59 1730.31,-220.06 1737.19,-218.79"/>
</g>
<!-- Node21&#45;&gt;Node8 -->
<g id="edge42" class="edge">
<title>Node21&#45;&gt;Node8</title>
<path fill="none" stroke="midnightblue" d="M1728.52,-376.84C1799.48,-374.05 1915.2,-364.64 1942,-333 2001.61,-262.63 1922.71,-144.14 1889.48,-100.39"/>
<polygon fill="midnightblue" stroke="midnightblue" points="1892.22,-98.21 1883.33,-92.45 1886.69,-102.5 1892.22,-98.21"/>
</g>
<!-- Node21&#45;&gt;Node15 -->
<g id="edge35" class="edge">
<title>Node21&#45;&gt;Node15</title>
<path fill="none" stroke="midnightblue" d="M1615.39,-370.74C1562.56,-363.36 1481.77,-350.52 1413,-333 1386.17,-326.17 1381.05,-318.91 1354,-313 1202.52,-279.91 1155.86,-320.37 1007,-277 977.42,-268.38 974.12,-256.06 945,-246 869.54,-219.92 846.58,-228.88 769,-210 724.57,-199.19 614.25,-168.84 571,-154 508.39,-132.52 484.06,-140.13 433,-98 412.01,-80.68 396.43,-52.84 387.78,-34.61"/>
<polygon fill="midnightblue" stroke="midnightblue" points="390.91,-33.03 383.59,-25.37 384.53,-35.92 390.91,-33.03"/>
</g>
<!-- Node22 -->
<g id="node22" class="node">
<title>Node22</title>
<g id="a_node22"><a xlink:title=" ">
<polygon fill="none" stroke="#bfbfbf" points="1422,-313.5 1422,-332.5 1472,-332.5 1472,-313.5 1422,-313.5"/>
<text text-anchor="middle" x="1447" y="-320.5" font-family="Helvetica,sans-Serif" font-size="10.00">cstring</text>
</a>
</g>
</g>
<!-- Node21&#45;&gt;Node22 -->
<g id="edge36" class="edge">
<title>Node21&#45;&gt;Node22</title>
<path fill="none" stroke="midnightblue" d="M1634.24,-369.42C1597.69,-361.05 1540.48,-347.76 1482.01,-333.2"/>
<polygon fill="midnightblue" stroke="midnightblue" points="1482.78,-329.79 1472.23,-330.76 1481.08,-336.58 1482.78,-329.79"/>
</g>
<!-- Node23 -->
<g id="node23" class="node">
<title>Node23</title>
<g id="a_node23"><a xlink:title=" ">
<polygon fill="none" stroke="#bfbfbf" points="1252,-313.5 1252,-332.5 1290,-332.5 1290,-313.5 1252,-313.5"/>
<text text-anchor="middle" x="1271" y="-320.5" font-family="Helvetica,sans-Serif" font-size="10.00">map</text>
</a>
</g>
</g>
<!-- Node21&#45;&gt;Node23 -->
<g id="edge38" class="edge">
<title>Node21&#45;&gt;Node23</title>
<path fill="none" stroke="midnightblue" d="M1615.4,-370.38C1528.89,-358.73 1366.85,-336.91 1300.49,-327.97"/>
<polygon fill="midnightblue" stroke="midnightblue" points="1300.7,-324.47 1290.32,-326.6 1299.77,-331.41 1300.7,-324.47"/>
</g>
<!-- Node24 -->
<g id="node24" class="node">
<title>Node24</title>
<g id="a_node24"><a xlink:title=" ">
<polygon fill="none" stroke="#bfbfbf" points="2048.5,-313.5 2048.5,-332.5 2141.5,-332.5 2141.5,-313.5 2048.5,-313.5"/>
<text text-anchor="middle" x="2095" y="-320.5" font-family="Helvetica,sans-Serif" font-size="10.00">unordered_map</text>
</a>
</g>
</g>
<!-- Node21&#45;&gt;Node24 -->
<g id="edge39" class="edge">
<title>Node21&#45;&gt;Node24</title>
<path fill="none" stroke="midnightblue" d="M1728.8,-371.35C1800.12,-362.9 1926.22,-347.65 2034,-333 2035.46,-332.8 2036.94,-332.6 2038.43,-332.39"/>
<polygon fill="midnightblue" stroke="midnightblue" points="2038.98,-335.85 2048.39,-330.99 2038,-328.92 2038.98,-335.85"/>
</g>
<!-- Node25 -->
<g id="node25" class="node">
<title>Node25</title>
<g id="a_node25"><a xlink:title=" ">
<polygon fill="none" stroke="#bfbfbf" points="1490,-313.5 1490,-332.5 1522,-332.5 1522,-313.5 1490,-313.5"/>
<text text-anchor="middle" x="1506" y="-320.5" font-family="Helvetica,sans-Serif" font-size="10.00">set</text>
</a>
</g>
</g>
<!-- Node21&#45;&gt;Node25 -->
<g id="edge40" class="edge">
<title>Node21&#45;&gt;Node25</title>
<path fill="none" stroke="midnightblue" d="M1644.08,-369.42C1617.45,-361.17 1576.02,-348.13 1531.62,-333.13"/>
<polygon fill="midnightblue" stroke="midnightblue" points="1532.7,-329.8 1522.11,-329.9 1530.45,-336.43 1532.7,-329.8"/>
</g>
<!-- Node26 -->
<g id="node26" class="node">
<title>Node26</title>
<g id="a_node26"><a xlink:title=" ">
<polygon fill="none" stroke="#bfbfbf" points="1540,-313.5 1540,-332.5 1626,-332.5 1626,-313.5 1540,-313.5"/>
<text text-anchor="middle" x="1583" y="-320.5" font-family="Helvetica,sans-Serif" font-size="10.00">unordered_set</text>
</a>
</g>
</g>
<!-- Node21&#45;&gt;Node26 -->
<g id="edge41" class="edge">
<title>Node21&#45;&gt;Node26</title>
<path fill="none" stroke="midnightblue" d="M1657.7,-369.32C1643.82,-360.9 1622.51,-347.97 1606.2,-338.07"/>
<polygon fill="midnightblue" stroke="midnightblue" points="1607.63,-334.85 1597.26,-332.65 1604,-340.83 1607.63,-334.85"/>
</g>
<!-- Node27 -->
<g id="node27" class="node">
<title>Node27</title>
<g id="a_node27"><a xlink:title=" ">
<polygon fill="none" stroke="#bfbfbf" points="1644.5,-313.5 1644.5,-332.5 1699.5,-332.5 1699.5,-313.5 1644.5,-313.5"/>
<text text-anchor="middle" x="1672" y="-320.5" font-family="Helvetica,sans-Serif" font-size="10.00">fstream</text>
</a>
</g>
</g>
<!-- Node21&#45;&gt;Node27 -->
<g id="edge43" class="edge">
<title>Node21&#45;&gt;Node27</title>
<path fill="none" stroke="midnightblue" d="M1672,-369.08C1672,-362.01 1672,-351.86 1672,-342.99"/>
<polygon fill="midnightblue" stroke="midnightblue" points="1675.5,-342.75 1672,-332.75 1668.5,-342.75 1675.5,-342.75"/>
</g>
<!-- Node28 -->
<g id="node28" class="node">
<title>Node28</title>
<g id="a_node28"><a xlink:href="../../d9/da0/flags_8h.html" target="_top" xlink:title=" ">
<polygon fill="none" stroke="black" points="1054.5,-313.5 1054.5,-332.5 1157.5,-332.5 1157.5,-313.5 1054.5,-313.5"/>
<text text-anchor="middle" x="1106" y="-320.5" font-family="Helvetica,sans-Serif" font-size="10.00">containers/flags.h</text>
</a>
</g>
</g>
<!-- Node21&#45;&gt;Node28 -->
<g id="edge45" class="edge">
<title>Node21&#45;&gt;Node28</title>
<path fill="none" stroke="midnightblue" d="M1615.36,-371.31C1608.17,-370.51 1600.91,-369.72 1594,-369 1440.85,-353.11 1260.37,-337.2 1167.72,-329.24"/>
<polygon fill="midnightblue" stroke="midnightblue" points="1167.94,-325.74 1157.68,-328.37 1167.35,-332.72 1167.94,-325.74"/>
</g>
<!-- Node29 -->
<g id="node29" class="node">
<title>Node29</title>
<g id="a_node29"><a xlink:href="../../d9/d3e/ublas__interface_8h.html" target="_top" xlink:title=" ">
<polygon fill="none" stroke="red" points="1777,-252 1777,-271 1921,-271 1921,-252 1777,-252"/>
<text text-anchor="middle" x="1849" y="-259" font-family="Helvetica,sans-Serif" font-size="10.00">includes/ublas_interface.h</text>
</a>
</g>
</g>
<!-- Node21&#45;&gt;Node29 -->
<g id="edge49" class="edge">
<title>Node21&#45;&gt;Node29</title>
<path fill="none" stroke="midnightblue" d="M1728.76,-376.1C1795.54,-372.52 1900.47,-362.28 1925,-333 1943.59,-310.81 1908.83,-288.68 1880.41,-275.29"/>
<polygon fill="midnightblue" stroke="midnightblue" points="1881.66,-272.01 1871.11,-271.1 1878.79,-278.39 1881.66,-272.01"/>
</g>
<!-- Node45 -->
<g id="node30" class="node">
<title>Node45</title>
<g id="a_node30"><a xlink:href="../../d9/d36/array__1d_8h.html" target="_top" xlink:title=" ">
<polygon fill="none" stroke="red" points="1794,-313.5 1794,-332.5 1916,-332.5 1916,-313.5 1794,-313.5"/>
<text text-anchor="middle" x="1855" y="-320.5" font-family="Helvetica,sans-Serif" font-size="10.00">containers/array_1d.h</text>
</a>
</g>
</g>
<!-- Node21&#45;&gt;Node45 -->
<g id="edge53" class="edge">
<title>Node21&#45;&gt;Node45</title>
<path fill="none" stroke="midnightblue" d="M1701,-369.44C1732.18,-360.24 1781.93,-345.56 1816.41,-335.39"/>
<polygon fill="midnightblue" stroke="midnightblue" points="1817.54,-338.7 1826.14,-332.52 1815.56,-331.99 1817.54,-338.7"/>
</g>
<!-- Node51 -->
<g id="node31" class="node">
<title>Node51</title>
<g id="a_node31"><a xlink:href="../../d5/d10/weak__pointer__vector_8h.html" target="_top" xlink:title=" ">
<polygon fill="none" stroke="red" points="1016.5,-246.5 1016.5,-276.5 1153.5,-276.5 1153.5,-246.5 1016.5,-246.5"/>
<text text-anchor="start" x="1024.5" y="-264.5" font-family="Helvetica,sans-Serif" font-size="10.00">containers/weak_pointer</text>
<text text-anchor="middle" x="1085" y="-253.5" font-family="Helvetica,sans-Serif" font-size="10.00">_vector.h</text>
</a>
</g>
</g>
<!-- Node21&#45;&gt;Node51 -->
<g id="edge58" class="edge">
<title>Node21&#45;&gt;Node51</title>
<path fill="none" stroke="midnightblue" d="M1683.02,-369.39C1698.73,-356.11 1724,-330.35 1708,-313 1689.79,-293.26 1327.14,-273.85 1163.69,-266.06"/>
<polygon fill="midnightblue" stroke="midnightblue" points="1163.85,-262.57 1153.69,-265.59 1163.52,-269.56 1163.85,-262.57"/>
</g>
<!-- Node21&#45;&gt;Node55 -->
<g id="edge64" class="edge">
<title>Node21&#45;&gt;Node55</title>
<path fill="none" stroke="midnightblue" d="M1615.49,-370.81C1556.47,-362.95 1461.35,-349.28 1380,-333 1343.64,-325.72 1335.51,-319.5 1299,-313 1155.92,-287.53 1115.56,-309.87 974,-277 934.42,-267.81 927.3,-256.29 888,-246 821.97,-228.71 744.98,-216.59 690.5,-209.32"/>
<polygon fill="midnightblue" stroke="midnightblue" points="690.63,-205.8 680.26,-207.97 689.72,-212.74 690.63,-205.8"/>
</g>
<!-- Node28&#45;&gt;Node4 -->
<g id="edge47" class="edge">
<title>Node28&#45;&gt;Node4</title>
<path fill="none" stroke="midnightblue" d="M1054.34,-319.79C978.44,-314.75 850.66,-298.44 898,-246 950.54,-187.8 1175.98,-238.56 1249,-210 1354.68,-168.66 1454.73,-71.5 1491.83,-32.81"/>
<polygon fill="midnightblue" stroke="midnightblue" points="1494.81,-34.75 1499.15,-25.09 1489.73,-29.94 1494.81,-34.75"/>
</g>
<!-- Node28&#45;&gt;Node6 -->
<g id="edge48" class="edge">
<title>Node28&#45;&gt;Node6</title>
<path fill="none" stroke="midnightblue" d="M1157.83,-317.41C1257.42,-308.39 1468.48,-288.28 1500,-277 1523.91,-268.45 1524.69,-256.07 1548,-246 1587.19,-229.06 1634,-217.67 1670.33,-210.58"/>
<polygon fill="midnightblue" stroke="midnightblue" points="1671.11,-214 1680.29,-208.7 1669.81,-207.12 1671.11,-214"/>
</g>
<!-- Node28&#45;&gt;Node15 -->
<g id="edge46" class="edge">
<title>Node28&#45;&gt;Node15</title>
<path fill="none" stroke="midnightblue" d="M1054.34,-314.94C887.34,-291.56 370.36,-214.75 328,-154 305.88,-122.28 312.94,-102.61 328,-67 334.09,-52.59 346.53,-40.27 357.71,-31.4"/>
<polygon fill="midnightblue" stroke="midnightblue" points="359.96,-34.09 365.89,-25.32 355.78,-28.48 359.96,-34.09"/>
</g>
<!-- Node29&#45;&gt;Node4 -->
<g id="edge51" class="edge">
<title>Node29&#45;&gt;Node4</title>
<path fill="none" stroke="midnightblue" d="M1897.29,-251.93C1921.37,-244.95 1948.42,-232.41 1963,-210 1997.66,-156.73 2005.4,-114.35 1963,-67 1935.46,-36.24 1653.39,-22.18 1547.17,-17.95"/>
<polygon fill="midnightblue" stroke="midnightblue" points="1547.29,-14.45 1537.16,-17.56 1547.01,-21.44 1547.29,-14.45"/>
</g>
<!-- Node29&#45;&gt;Node6 -->
<g id="edge52" class="edge">
<title>Node29&#45;&gt;Node6</title>
<path fill="none" stroke="midnightblue" d="M1831.95,-251.98C1812.16,-242.08 1779.28,-225.64 1756.23,-214.12"/>
<polygon fill="midnightblue" stroke="midnightblue" points="1757.53,-210.85 1747.02,-209.51 1754.4,-217.11 1757.53,-210.85"/>
</g>
<!-- Node29&#45;&gt;Node15 -->
<g id="edge50" class="edge">
<title>Node29&#45;&gt;Node15</title>
<path fill="none" stroke="midnightblue" d="M1857.09,-251.83C1884.05,-221.92 1966.15,-121.93 1913,-67 1899.47,-53.02 631.97,-22.45 412.27,-17.26"/>
<polygon fill="midnightblue" stroke="midnightblue" points="412.13,-13.75 402.05,-17.02 411.97,-20.75 412.13,-13.75"/>
</g>
<!-- Node45&#45;&gt;Node4 -->
<g id="edge55" class="edge">
<title>Node45&#45;&gt;Node4</title>
<path fill="none" stroke="midnightblue" d="M1916.13,-318.02C1988.98,-309.57 2101,-283.22 2101,-201 2101,-201 2101,-201 2101,-143 2101,-29.56 1681.36,-17.45 1547.5,-16.47"/>
<polygon fill="midnightblue" stroke="midnightblue" points="1547.29,-12.97 1537.27,-16.41 1547.25,-19.97 1547.29,-12.97"/>
</g>
<!-- Node45&#45;&gt;Node6 -->
<g id="edge56" class="edge">
<title>Node45&#45;&gt;Node6</title>
<path fill="none" stroke="midnightblue" d="M1828.7,-313.4C1809.87,-306.16 1784.96,-294.19 1768,-277 1751.85,-260.63 1741.28,-236.02 1735.48,-219.28"/>
<polygon fill="midnightblue" stroke="midnightblue" points="1738.75,-218.01 1732.35,-209.57 1732.09,-220.16 1738.75,-218.01"/>
</g>
<!-- Node45&#45;&gt;Node15 -->
<g id="edge54" class="edge">
<title>Node45&#45;&gt;Node15</title>
<path fill="none" stroke="midnightblue" d="M1793.96,-315.4C1582.58,-292.24 882.91,-212.88 665,-154 642.29,-147.86 638.06,-142.17 616,-134 568.55,-116.43 551.83,-123.29 508,-98 490,-87.62 490.02,-78.92 473,-67 452.15,-52.39 426.62,-38.8 407.58,-29.4"/>
<polygon fill="midnightblue" stroke="midnightblue" points="409.07,-26.24 398.55,-25.02 406.02,-32.53 409.07,-26.24"/>
</g>
<!-- Node45&#45;&gt;Node29 -->
<g id="edge57" class="edge">
<title>Node45&#45;&gt;Node29</title>
<path fill="none" stroke="midnightblue" d="M1854.14,-313.48C1853.29,-305.08 1851.97,-291.98 1850.88,-281.16"/>
<polygon fill="midnightblue" stroke="midnightblue" points="1854.34,-280.61 1849.86,-271.01 1847.38,-281.31 1854.34,-280.61"/>
</g>
<!-- Node51&#45;&gt;Node4 -->
<g id="edge60" class="edge">
<title>Node51&#45;&gt;Node4</title>
<path fill="none" stroke="midnightblue" d="M1153.79,-248.13C1158.59,-247.37 1163.36,-246.65 1168,-246 1241.92,-235.57 1451.41,-264.89 1502,-210 1546.77,-161.42 1525.73,-73.34 1513.55,-35.08"/>
<polygon fill="midnightblue" stroke="midnightblue" points="1516.77,-33.66 1510.27,-25.29 1510.13,-35.88 1516.77,-33.66"/>
</g>
<!-- Node51&#45;&gt;Node6 -->
<g id="edge63" class="edge">
<title>Node51&#45;&gt;Node6</title>
<path fill="none" stroke="midnightblue" d="M1153.74,-251.85C1170.81,-249.82 1189.06,-247.74 1206,-246 1393.25,-226.8 1440.47,-226.27 1628,-210 1641.75,-208.81 1656.55,-207.51 1670.49,-206.28"/>
<polygon fill="midnightblue" stroke="midnightblue" points="1670.8,-209.77 1680.46,-205.4 1670.19,-202.79 1670.8,-209.77"/>
</g>
<!-- Node51&#45;&gt;Node8 -->
<g id="edge61" class="edge">
<title>Node51&#45;&gt;Node8</title>
<path fill="none" stroke="midnightblue" d="M1153.78,-248.07C1158.59,-247.33 1163.36,-246.63 1168,-246 1423.16,-211.42 1500.46,-248.46 1740,-154 1781.2,-137.75 1826.36,-112.81 1852.88,-97.36"/>
<polygon fill="midnightblue" stroke="midnightblue" points="1854.92,-100.22 1861.77,-92.13 1851.38,-94.18 1854.92,-100.22"/>
</g>
<!-- Node51&#45;&gt;Node15 -->
<g id="edge59" class="edge">
<title>Node51&#45;&gt;Node15</title>
<path fill="none" stroke="midnightblue" d="M1016.4,-246.66C878.43,-218.1 572.64,-150.84 480,-98 447.46,-79.44 414.76,-50.34 395.99,-32.4"/>
<polygon fill="midnightblue" stroke="midnightblue" points="398.23,-29.7 388.62,-25.24 393.35,-34.72 398.23,-29.7"/>
</g>
<!-- Node51&#45;&gt;Node16 -->
<g id="edge62" class="edge">
<title>Node51&#45;&gt;Node16</title>
<path fill="none" stroke="midnightblue" d="M1124.15,-246.38C1178.73,-224.31 1275.56,-175.9 1316,-98 1322.35,-85.77 1324.13,-78.13 1316,-67 1301.21,-46.74 1233.36,-30.66 1191.53,-22.46"/>
<polygon fill="midnightblue" stroke="midnightblue" points="1191.98,-18.99 1181.5,-20.55 1190.67,-25.86 1191.98,-18.99"/>
</g>
<!-- Node55&#45;&gt;Node4 -->
<g id="edge66" class="edge">
<title>Node55&#45;&gt;Node4</title>
<path fill="none" stroke="midnightblue" d="M680.07,-195.05C776.35,-186.95 969.58,-163.33 1119,-98 1140.59,-88.56 1140.16,-75.85 1162,-67 1176.03,-61.31 1378.94,-33.66 1466.86,-21.86"/>
<polygon fill="midnightblue" stroke="midnightblue" points="1467.55,-25.3 1476.99,-20.5 1466.62,-18.36 1467.55,-25.3"/>
</g>
<!-- Node55&#45;&gt;Node14 -->
<g id="edge67" class="edge">
<title>Node55&#45;&gt;Node14</title>
<path fill="none" stroke="midnightblue" d="M637.91,-190.44C656.25,-181.68 685.01,-167.94 706.09,-157.86"/>
<polygon fill="midnightblue" stroke="midnightblue" points="707.67,-160.99 715.18,-153.52 704.65,-154.67 707.67,-160.99"/>
</g>
<!-- Node55&#45;&gt;Node15 -->
<g id="edge65" class="edge">
<title>Node55&#45;&gt;Node15</title>
<path fill="none" stroke="midnightblue" d="M559.84,-194.61C523.06,-189.44 476.59,-178.23 442,-154 402.06,-126.02 387.42,-66 382.41,-35.35"/>
<polygon fill="midnightblue" stroke="midnightblue" points="385.83,-34.56 380.92,-25.17 378.9,-35.57 385.83,-34.56"/>
</g>
<!-- Node59&#45;&gt;Node4 -->
<g id="edge70" class="edge">
<title>Node59&#45;&gt;Node4</title>
<path fill="none" stroke="midnightblue" d="M356,-682.43C305.47,-669.63 222.85,-640.14 186,-579 156.86,-530.64 196.62,-344.69 214,-313 216.71,-308.06 285.32,-249.13 290,-246 396.62,-174.68 431.89,-166.42 556,-134 654.41,-108.3 687.77,-136.28 782,-98 804.16,-89 803.44,-74.95 826,-67 945.09,-25.06 1267.32,-42.97 1393,-31 1417.41,-28.68 1444.65,-25.24 1466.39,-22.3"/>
<polygon fill="midnightblue" stroke="midnightblue" points="1467.14,-25.73 1476.57,-20.9 1466.19,-18.79 1467.14,-25.73"/>
</g>
<!-- Node59&#45;&gt;Node6 -->
<g id="edge73" class="edge">
<title>Node59&#45;&gt;Node6</title>
<path fill="none" stroke="midnightblue" d="M399.48,-682.19C402.15,-667.62 408.6,-637.86 420,-615 433.89,-587.16 439.24,-580.21 462,-559 609.44,-421.56 652.81,-379.74 843,-313 991.81,-260.78 1050.32,-337.39 1196,-277 1216.13,-268.65 1213.79,-254.16 1234,-246 1323.33,-209.94 1570.26,-220.71 1666,-210 1667.46,-209.84 1668.95,-209.67 1670.44,-209.49"/>
<polygon fill="midnightblue" stroke="midnightblue" points="1670.93,-212.96 1680.42,-208.25 1670.07,-206.01 1670.93,-212.96"/>
</g>
<!-- Node59&#45;&gt;Node8 -->
<g id="edge71" class="edge">
<title>Node59&#45;&gt;Node8</title>
<path fill="none" stroke="midnightblue" d="M397.55,-682.31C397.08,-667.92 397.28,-638.4 405,-615 439.58,-510.21 511.78,-385.25 632,-313 838.79,-188.71 1477.85,-232.48 1706,-154 1722.58,-148.3 1724.17,-141.53 1740,-134 1772.62,-118.5 1811.36,-104.52 1839.14,-95.22"/>
<polygon fill="midnightblue" stroke="midnightblue" points="1840.45,-98.47 1848.85,-92.01 1838.25,-91.83 1840.45,-98.47"/>
</g>
<!-- Node59&#45;&gt;Node15 -->
<g id="edge69" class="edge">
<title>Node59&#45;&gt;Node15</title>
<path fill="none" stroke="midnightblue" d="M332.24,-685.28C266.14,-678.54 169.65,-665.7 138,-646 73.85,-606.07 38,-584.06 38,-508.5 38,-508.5 38,-508.5 38,-143 38,-107.58 35.17,-90.12 62,-67 104.4,-30.47 275,-20.19 347.33,-17.45"/>
<polygon fill="midnightblue" stroke="midnightblue" points="347.79,-20.93 357.66,-17.08 347.54,-13.94 347.79,-20.93"/>
</g>
<!-- Node59&#45;&gt;Node20 -->
<g id="edge72" class="edge">
<title>Node59&#45;&gt;Node20</title>
<path fill="none" stroke="midnightblue" d="M463.51,-688.13C622.15,-680.08 1021.81,-652.82 1130,-579 1197,-533.28 1234.83,-438.17 1248.3,-398.25"/>
<polygon fill="midnightblue" stroke="midnightblue" points="1251.69,-399.14 1251.46,-388.55 1245.04,-396.97 1251.69,-399.14"/>
</g>
<!-- Node59&#45;&gt;Node28 -->
<g id="edge99" class="edge">
<title>Node59&#45;&gt;Node28</title>
<path fill="none" stroke="midnightblue" d="M436.59,-682.46C470.41,-674.5 520.63,-661.55 563,-646 684.13,-601.53 714.51,-587.97 826,-523 929.88,-462.46 1043.8,-373.85 1087.52,-338.93"/>
<polygon fill="midnightblue" stroke="midnightblue" points="1089.92,-341.49 1095.53,-332.51 1085.54,-336.03 1089.92,-341.49"/>
</g>
<!-- Node59&#45;&gt;Node60 -->
<g id="edge74" class="edge">
<title>Node59&#45;&gt;Node60</title>
<path fill="none" stroke="midnightblue" d="M411.47,-682.48C424.44,-674.27 444.51,-661.56 461.38,-650.88"/>
<polygon fill="midnightblue" stroke="midnightblue" points="463.27,-653.83 469.85,-645.52 459.52,-647.91 463.27,-653.83"/>
</g>
<!-- Node60&#45;&gt;Node4 -->
<g id="edge76" class="edge">
<title>Node60&#45;&gt;Node4</title>
<path fill="none" stroke="midnightblue" d="M478.64,-615.32C470.66,-605.84 461.27,-592.64 457,-579 454.35,-570.52 456.93,-567.89 457,-559 458.32,-392.08 392.02,-288.21 527,-190 580.52,-151.06 601.51,-152.73 665,-134 747.02,-109.81 774.62,-129.78 854,-98 877.58,-88.56 877.92,-75.07 902,-67 1005.74,-32.24 1284.14,-41.91 1393,-31 1417.4,-28.56 1444.64,-25.12 1466.38,-22.2"/>
<polygon fill="midnightblue" stroke="midnightblue" points="1467.13,-25.63 1476.57,-20.82 1466.19,-18.7 1467.13,-25.63"/>
</g>
<!-- Node60&#45;&gt;Node6 -->
<g id="edge79" class="edge">
<title>Node60&#45;&gt;Node6</title>
<path fill="none" stroke="midnightblue" d="M517.49,-615.33C534.06,-605.75 555.87,-592.44 574,-579 609.86,-552.42 834.1,-330.87 875,-313 1021.95,-248.81 1085.82,-338.28 1234,-277 1254.14,-268.67 1251.82,-254.24 1272,-246 1434.79,-179.52 1491.33,-230.25 1666,-210 1667.46,-209.83 1668.94,-209.65 1670.44,-209.47"/>
<polygon fill="midnightblue" stroke="midnightblue" points="1670.93,-212.94 1680.42,-208.22 1670.06,-205.99 1670.93,-212.94"/>
</g>
<!-- Node60&#45;&gt;Node14 -->
<g id="edge98" class="edge">
<title>Node60&#45;&gt;Node14</title>
<path fill="none" stroke="midnightblue" d="M480.83,-615.43C473.91,-605.79 465.67,-592.37 462,-579 459.65,-570.43 461.21,-567.85 462,-559 476.92,-390.96 424.1,-301.17 551,-190 581.88,-162.95 626.52,-151.63 663.86,-147.11"/>
<polygon fill="midnightblue" stroke="midnightblue" points="664.61,-150.55 674.18,-146 663.86,-143.58 664.61,-150.55"/>
</g>
<!-- Node60&#45;&gt;Node15 -->
<g id="edge75" class="edge">
<title>Node60&#45;&gt;Node15</title>
<path fill="none" stroke="midnightblue" d="M441.39,-615.49C412.68,-606.68 376.51,-594.14 346,-579 208.74,-510.91 114,-477.22 114,-324 114,-324 114,-324 114,-143 114,-40.61 276.71,-21 347.62,-17.32"/>
<polygon fill="midnightblue" stroke="midnightblue" points="347.94,-20.81 357.78,-16.87 347.63,-13.81 347.94,-20.81"/>
</g>
<!-- Node60&#45;&gt;Node16 -->
<g id="edge78" class="edge">
<title>Node60&#45;&gt;Node16</title>
<path fill="none" stroke="midnightblue" d="M458.38,-615.36C408.65,-593.75 319.29,-551.95 300,-523 230.72,-419.02 195.65,-357.52 252,-246 299.17,-152.65 486.83,-99.92 617,-67 804.24,-19.64 1038.03,-15.73 1124.14,-16.07"/>
<polygon fill="midnightblue" stroke="midnightblue" points="1124.34,-19.57 1134.36,-16.13 1124.38,-12.57 1124.34,-19.57"/>
</g>
<!-- Node60&#45;&gt;Node20 -->
<g id="edge77" class="edge">
<title>Node60&#45;&gt;Node20</title>
<path fill="none" stroke="midnightblue" d="M536.63,-615.48C600.75,-595.3 722.58,-556.76 826,-523 972.53,-475.16 1146.63,-416.39 1219.38,-391.75"/>
<polygon fill="midnightblue" stroke="midnightblue" points="1220.61,-395.03 1228.95,-388.5 1218.36,-388.4 1220.61,-395.03"/>
</g>
<!-- Node60&#45;&gt;Node61 -->
<g id="edge80" class="edge">
<title>Node60&#45;&gt;Node61</title>
<path fill="none" stroke="midnightblue" d="M524.86,-615.49C548.15,-605.49 580.09,-591.63 608,-579 651.1,-559.49 700.71,-535.96 730.69,-521.62"/>
<polygon fill="midnightblue" stroke="midnightblue" points="732.56,-524.61 740.07,-517.13 729.54,-518.3 732.56,-524.61"/>
</g>
<!-- Node64 -->
<g id="node37" class="node">
<title>Node64</title>
<g id="a_node37"><a xlink:href="../../dc/d8e/kratos__components_8h.html" target="_top" xlink:title=" ">
<polygon fill="none" stroke="red" points="956.5,-559.5 956.5,-578.5 1121.5,-578.5 1121.5,-559.5 956.5,-559.5"/>
<text text-anchor="middle" x="1039" y="-566.5" font-family="Helvetica,sans-Serif" font-size="10.00">includes/kratos_components.h</text>
</a>
</g>
</g>
<!-- Node60&#45;&gt;Node64 -->
<g id="edge91" class="edge">
<title>Node60&#45;&gt;Node64</title>
<path fill="none" stroke="midnightblue" d="M554.75,-622.67C652.03,-612.09 839.59,-591.69 950.57,-579.62"/>
<polygon fill="midnightblue" stroke="midnightblue" points="951.17,-583.07 960.73,-578.51 950.41,-576.12 951.17,-583.07"/>
</g>
<!-- Node61&#45;&gt;Node4 -->
<g id="edge82" class="edge">
<title>Node61&#45;&gt;Node4</title>
<path fill="none" stroke="midnightblue" d="M755.21,-497.9C743.48,-459.94 702.45,-306.57 784,-246 932.53,-135.68 1044.67,-268.5 1190,-154 1223.88,-127.31 1198.59,-93 1233,-67 1251.46,-53.05 1395.39,-31.74 1466.92,-21.87"/>
<polygon fill="midnightblue" stroke="midnightblue" points="1467.5,-25.32 1476.93,-20.5 1466.55,-18.39 1467.5,-25.32"/>
</g>
<!-- Node61&#45;&gt;Node6 -->
<g id="edge83" class="edge">
<title>Node61&#45;&gt;Node6</title>
<path fill="none" stroke="midnightblue" d="M786.4,-497.84C808.63,-489.89 839.17,-476.24 860,-456 911.62,-405.84 876.16,-352.99 936,-313 1005.42,-266.61 1231.14,-304.43 1310,-277 1333.99,-268.66 1334.1,-254.59 1358,-246 1487.7,-199.4 1529.31,-227.6 1666,-210 1667.46,-209.81 1668.94,-209.62 1670.43,-209.42"/>
<polygon fill="midnightblue" stroke="midnightblue" points="1670.95,-212.89 1680.4,-208.09 1670.03,-205.95 1670.95,-212.89"/>
</g>
<!-- Node61&#45;&gt;Node15 -->
<g id="edge81" class="edge">
<title>Node61&#45;&gt;Node15</title>
<path fill="none" stroke="midnightblue" d="M716.71,-497.95C601.95,-471.5 283.08,-378.83 214,-154 202.64,-117.04 190.98,-98.07 214,-67 244.74,-25.52 308.72,-16.95 347.66,-15.81"/>
<polygon fill="midnightblue" stroke="midnightblue" points="347.98,-19.31 357.93,-15.66 347.88,-12.31 347.98,-19.31"/>
</g>
<!-- Node61&#45;&gt;Node18 -->
<g id="edge90" class="edge">
<title>Node61&#45;&gt;Node18</title>
<path fill="none" stroke="midnightblue" d="M744.83,-497.98C695.33,-464.88 526.53,-341.96 594,-246 597.19,-241.46 907.64,-132.1 1012.12,-95.39"/>
<polygon fill="midnightblue" stroke="midnightblue" points="1013.3,-98.69 1021.58,-92.07 1010.98,-92.08 1013.3,-98.69"/>
</g>
<!-- Node61&#45;&gt;Node62 -->
<g id="edge84" class="edge">
<title>Node61&#45;&gt;Node62</title>
<path fill="none" stroke="midnightblue" d="M817.76,-501.21C956.68,-488.91 1299.88,-458.51 1435.53,-446.5"/>
<polygon fill="midnightblue" stroke="midnightblue" points="1436.05,-449.97 1445.7,-445.6 1435.43,-443 1436.05,-449.97"/>
</g>
<!-- Node62&#45;&gt;Node4 -->
<g id="edge86" class="edge">
<title>Node62&#45;&gt;Node4</title>
<path fill="none" stroke="midnightblue" d="M1478.3,-430.95C1454.93,-416.63 1405.58,-387.58 1361,-369 1310.39,-347.9 1294.2,-352.61 1243,-333 1223.32,-325.46 1220.07,-319.43 1200,-313 1116.9,-286.39 1062.76,-344.12 1007,-277 998.2,-266.4 997.9,-256.35 1007,-246 1048.12,-199.21 1226.08,-230.23 1285,-210 1370.93,-180.5 1394.24,-164.63 1456,-98 1474.12,-78.45 1489.47,-51.59 1498.47,-34.13"/>
<polygon fill="midnightblue" stroke="midnightblue" points="1501.65,-35.58 1503,-25.07 1495.39,-32.45 1501.65,-35.58"/>
</g>
<!-- Node62&#45;&gt;Node6 -->
<g id="edge88" class="edge">
<title>Node62&#45;&gt;Node6</title>
<path fill="none" stroke="midnightblue" d="M1479.18,-430.88C1449.59,-409.93 1381.39,-355 1413,-313 1447.77,-266.81 1483.28,-295.66 1538,-277 1596.71,-256.98 1663.77,-229.3 1701.07,-213.46"/>
<polygon fill="midnightblue" stroke="midnightblue" points="1702.51,-216.66 1710.33,-209.52 1699.76,-210.22 1702.51,-216.66"/>
</g>
<!-- Node62&#45;&gt;Node15 -->
<g id="edge85" class="edge">
<title>Node62&#45;&gt;Node15</title>
<path fill="none" stroke="midnightblue" d="M1467.02,-430.85C1440.39,-421.41 1397.18,-405.43 1361,-389 1343.62,-381.11 1340.69,-376.16 1323,-369 1270.2,-347.63 1252.28,-355.61 1200,-333 1183.91,-326.04 1182.48,-318.99 1166,-313 1100.89,-289.32 617.54,-229.3 551,-210 489.4,-192.14 466,-196.54 418,-154 396.55,-134.99 394.37,-125.42 386,-98 379.67,-77.27 378.76,-52.26 379.05,-35.46"/>
<polygon fill="midnightblue" stroke="midnightblue" points="382.56,-35.41 379.4,-25.3 375.56,-35.17 382.56,-35.41"/>
</g>
<!-- Node62&#45;&gt;Node20 -->
<g id="edge87" class="edge">
<title>Node62&#45;&gt;Node20</title>
<path fill="none" stroke="midnightblue" d="M1457.9,-430.98C1413.45,-419.86 1336.02,-400.5 1290.44,-389.11"/>
<polygon fill="midnightblue" stroke="midnightblue" points="1291.22,-385.7 1280.67,-386.67 1289.53,-392.49 1291.22,-385.7"/>
</g>
<!-- Node62&#45;&gt;Node21 -->
<g id="edge89" class="edge">
<title>Node62&#45;&gt;Node21</title>
<path fill="none" stroke="midnightblue" d="M1517.79,-430.98C1548.93,-420.68 1601.48,-403.31 1636.45,-391.75"/>
<polygon fill="midnightblue" stroke="midnightblue" points="1637.86,-394.97 1646.26,-388.51 1635.66,-388.32 1637.86,-394.97"/>
</g>
<!-- Node64&#45;&gt;Node4 -->
<g id="edge93" class="edge">
<title>Node64&#45;&gt;Node4</title>
<path fill="none" stroke="midnightblue" d="M1028.4,-559.36C981.68,-520.22 800.04,-356.75 884,-246 886.86,-242.23 1207.56,-155.64 1212,-154 1315.07,-115.81 1431.84,-56.26 1481.97,-29.87"/>
<polygon fill="midnightblue" stroke="midnightblue" points="1483.88,-32.82 1491.09,-25.05 1480.61,-26.63 1483.88,-32.82"/>
</g>
<!-- Node64&#45;&gt;Node6 -->
<g id="edge95" class="edge">
<title>Node64&#45;&gt;Node6</title>
<path fill="none" stroke="midnightblue" d="M1035.92,-559.38C1020.87,-517.03 956.61,-332.15 974,-313 1030.14,-251.2 1269.14,-304.43 1348,-277 1371.99,-268.66 1372.17,-254.78 1396,-246 1509.6,-204.15 1546.06,-226.43 1666,-210 1667.46,-209.8 1668.94,-209.6 1670.43,-209.39"/>
<polygon fill="midnightblue" stroke="midnightblue" points="1670.97,-212.85 1680.39,-208.01 1670.01,-205.92 1670.97,-212.85"/>
</g>
<!-- Node64&#45;&gt;Node15 -->
<g id="edge92" class="edge">
<title>Node64&#45;&gt;Node15</title>
<path fill="none" stroke="midnightblue" d="M1021.46,-559.37C914.57,-506.64 354.24,-227.6 314,-154 295.45,-120.07 295.75,-101.61 313,-67 321.05,-50.85 337,-38.51 351.31,-30.07"/>
<polygon fill="midnightblue" stroke="midnightblue" points="353.31,-32.97 360.38,-25.08 349.93,-26.83 353.31,-32.97"/>
</g>
<!-- Node64&#45;&gt;Node23 -->
<g id="edge94" class="edge">
<title>Node64&#45;&gt;Node23</title>
<path fill="none" stroke="midnightblue" d="M1046.11,-559.28C1069.52,-530.8 1146.69,-438.3 1218,-369 1228.82,-358.48 1241.71,-347.51 1252.07,-339.03"/>
<polygon fill="midnightblue" stroke="midnightblue" points="1254.5,-341.57 1260.07,-332.56 1250.1,-336.12 1254.5,-341.57"/>
</g>
<!-- Node64&#45;&gt;Node28 -->
<g id="edge96" class="edge">
<title>Node64&#45;&gt;Node28</title>
<path fill="none" stroke="midnightblue" d="M1041.38,-559.32C1051.05,-524.11 1087.45,-391.56 1100.93,-342.45"/>
<polygon fill="midnightblue" stroke="midnightblue" points="1104.37,-343.15 1103.64,-332.58 1097.62,-341.3 1104.37,-343.15"/>
</g>
<!-- Node64&#45;&gt;Node61 -->
<g id="edge97" class="edge">
<title>Node64&#45;&gt;Node61</title>
<path fill="none" stroke="midnightblue" d="M998.74,-559.48C948.56,-548.85 862.77,-530.68 808.31,-519.15"/>
<polygon fill="midnightblue" stroke="midnightblue" points="808.69,-515.66 798.19,-517.01 807.24,-522.5 808.69,-515.66"/>
</g>
<!-- Node72&#45;&gt;Node4 -->
<g id="edge103" class="edge">
<title>Node72&#45;&gt;Node4</title>
<path fill="none" stroke="midnightblue" d="M1521.35,-814.27C1641.38,-814.24 1962.33,-810 2226,-769 2445.31,-734.89 2507.95,-737.86 2710,-646 2855.56,-579.82 3006,-601.4 3006,-441.5 3006,-441.5 3006,-441.5 3006,-378 3006,-297.54 3044,-281.46 3044,-201 3044,-201 3044,-201 3044,-143 3044,-64.27 2960.47,-85.72 2884,-67 2751.4,-34.54 1760.42,-19.82 1547.3,-17.01"/>
<polygon fill="midnightblue" stroke="midnightblue" points="1547.22,-13.51 1537.18,-16.87 1547.13,-20.5 1547.22,-13.51"/>
</g>
<!-- Node72&#45;&gt;Node6 -->
<g id="edge106" class="edge">
<title>Node72&#45;&gt;Node6</title>
<path fill="none" stroke="midnightblue" d="M1505.58,-805.41C1636.98,-770.31 2121,-636.49 2121,-570 2121,-570 2121,-570 2121,-506.5 2121,-463.02 2177.69,-346.53 2150,-313 2096.11,-247.74 2038.38,-315.49 1963,-277 1945.08,-267.85 1947.78,-255.43 1930,-246 1886.29,-222.81 1831.06,-211.54 1789.72,-206.08"/>
<polygon fill="midnightblue" stroke="midnightblue" points="1790.15,-202.6 1779.8,-204.84 1789.29,-209.55 1790.15,-202.6"/>
</g>
<!-- Node72&#45;&gt;Node8 -->
<g id="edge104" class="edge">
<title>Node72&#45;&gt;Node8</title>
<path fill="none" stroke="midnightblue" d="M1521.43,-814.09C1659.32,-813.84 2051.88,-809.5 2173,-769 2252.59,-742.39 2651.15,-574.17 2751,-389 2779.92,-335.36 2789.61,-326.08 2682,-246 2556.73,-152.78 2056.93,-100.21 1914.22,-86.9"/>
<polygon fill="midnightblue" stroke="midnightblue" points="1914.47,-83.4 1904.19,-85.97 1913.83,-90.37 1914.47,-83.4"/>
</g>
<!-- Node72&#45;&gt;Node15 -->
<g id="edge102" class="edge">
<title>Node72&#45;&gt;Node15</title>
<path fill="none" stroke="midnightblue" d="M1449.36,-805.42C1373.75,-777.57 1131.91,-685.31 947,-579 889.58,-545.99 882.5,-526.57 826,-492 796.16,-473.74 786.87,-472.46 756,-456 610.83,-378.59 568.52,-368.79 432,-277 392.66,-250.55 383.01,-243.02 349,-210 300.59,-163 265.09,-125.91 298,-67 308.71,-47.82 330.03,-35.03 348.24,-27.12"/>
<polygon fill="midnightblue" stroke="midnightblue" points="349.71,-30.3 357.68,-23.31 347.1,-23.8 349.71,-30.3"/>
</g>
<!-- Node72&#45;&gt;Node20 -->
<g id="edge105" class="edge">
<title>Node72&#45;&gt;Node20</title>
<path fill="none" stroke="midnightblue" d="M1472.86,-805.39C1471.68,-759.99 1460.47,-545.8 1354,-425 1337.48,-406.26 1311.62,-394.91 1290.34,-388.29"/>
<polygon fill="midnightblue" stroke="midnightblue" points="1291.21,-384.9 1280.63,-385.5 1289.27,-391.63 1291.21,-384.9"/>
</g>
<!-- Node72&#45;&gt;Node28 -->
<g id="edge123" class="edge">
<title>Node72&#45;&gt;Node28</title>
<path fill="none" stroke="midnightblue" d="M1474.24,-805.4C1475.48,-796.36 1477.3,-781.71 1478,-769 1478.76,-755.24 1478.78,-751.76 1478,-738 1469.74,-592.46 1483.5,-527.65 1380,-425 1375.79,-420.82 1294.48,-371.29 1289,-369 1250.1,-352.72 1203.99,-341.43 1167.78,-334.22"/>
<polygon fill="midnightblue" stroke="midnightblue" points="1168.33,-330.77 1157.85,-332.3 1167,-337.64 1168.33,-330.77"/>
</g>
<!-- Node72&#45;&gt;Node60 -->
<g id="edge124" class="edge">
<title>Node72&#45;&gt;Node60</title>
<path fill="none" stroke="midnightblue" d="M1424.83,-809.17C1357,-802.07 1229.61,-787.6 1122,-769 915.07,-733.22 673.12,-676.05 558.59,-648.05"/>
<polygon fill="midnightblue" stroke="midnightblue" points="559.12,-644.57 548.57,-645.59 557.45,-651.37 559.12,-644.57"/>
</g>
<!-- Node73 -->
<g id="node39" class="node">
<title>Node73</title>
<g id="a_node39"><a xlink:href="../../d4/d35/pointer__vector__set_8h.html" target="_top" xlink:title=" ">
<polygon fill="none" stroke="red" points="2150.5,-425.5 2150.5,-455.5 2255.5,-455.5 2255.5,-425.5 2150.5,-425.5"/>
<text text-anchor="start" x="2158.5" y="-443.5" font-family="Helvetica,sans-Serif" font-size="10.00">containers/pointer</text>
<text text-anchor="middle" x="2203" y="-432.5" font-family="Helvetica,sans-Serif" font-size="10.00">_vector_set.h</text>
</a>
</g>
</g>
<!-- Node72&#45;&gt;Node73 -->
<g id="edge107" class="edge">
<title>Node72&#45;&gt;Node73</title>
<path fill="none" stroke="midnightblue" d="M1521.18,-813.33C1659.37,-811.04 2050.19,-801.69 2097,-769 2151.96,-730.62 2159,-698.54 2159,-631.5 2159,-631.5 2159,-631.5 2159,-568 2159,-530.23 2176.72,-489.46 2189.66,-464.7"/>
<polygon fill="midnightblue" stroke="midnightblue" points="2192.84,-466.2 2194.52,-455.74 2186.68,-462.87 2192.84,-466.2"/>
</g>
<!-- Node72&#45;&gt;Node76 -->
<g id="edge116" class="edge">
<title>Node72&#45;&gt;Node76</title>
<path fill="none" stroke="midnightblue" d="M1521.29,-814.1C1653.19,-813.85 2017.21,-809.39 2129,-769 2226.67,-733.71 2477.67,-529.1 2557.92,-462.47"/>
<polygon fill="midnightblue" stroke="midnightblue" points="2560.55,-464.83 2566,-455.75 2556.08,-459.45 2560.55,-464.83"/>
</g>
<!-- Node72&#45;&gt;Node89 -->
<g id="edge125" class="edge">
<title>Node72&#45;&gt;Node89</title>
<path fill="none" stroke="midnightblue" d="M1433.03,-805.48C1389.85,-796.27 1320.14,-781.4 1267.12,-770.09"/>
<polygon fill="midnightblue" stroke="midnightblue" points="1267.59,-766.62 1257.08,-767.95 1266.13,-773.46 1267.59,-766.62"/>
</g>
<!-- Node73&#45;&gt;Node4 -->
<g id="edge110" class="edge">
<title>Node73&#45;&gt;Node4</title>
<path fill="none" stroke="midnightblue" d="M2255.56,-434.03C2296.87,-427.9 2354.65,-415.14 2399,-389 2537.36,-307.46 2673.82,-183.24 2563,-67 2527.32,-29.58 1736.08,-18.91 1547.22,-16.89"/>
<polygon fill="midnightblue" stroke="midnightblue" points="1547.2,-13.39 1537.16,-16.78 1547.12,-20.39 1547.2,-13.39"/>
</g>
<!-- Node73&#45;&gt;Node6 -->
<g id="edge114" class="edge">
<title>Node73&#45;&gt;Node6</title>
<path fill="none" stroke="midnightblue" d="M2205.42,-425.29C2208.94,-399.47 2212.28,-344.62 2184,-313 2142.61,-266.71 2108.26,-295.55 2049,-277 2010.22,-264.87 2002.18,-256.77 1963,-246 1904.9,-230.02 1837.13,-217.61 1789.7,-209.91"/>
<polygon fill="midnightblue" stroke="midnightblue" points="1790.03,-206.42 1779.6,-208.29 1788.92,-213.33 1790.03,-206.42"/>
</g>
<!-- Node73&#45;&gt;Node8 -->
<g id="edge111" class="edge">
<title>Node73&#45;&gt;Node8</title>
<path fill="none" stroke="midnightblue" d="M2209.91,-425.31C2214.35,-415.4 2219.69,-401.72 2222,-389 2228.19,-354.95 2225.34,-341 2205,-313 2123.83,-201.26 1970.98,-124.91 1906.22,-96.18"/>
<polygon fill="midnightblue" stroke="midnightblue" points="1907.53,-92.94 1896.96,-92.14 1904.72,-99.35 1907.53,-92.94"/>
</g>
<!-- Node73&#45;&gt;Node11 -->
<g id="edge113" class="edge">
<title>Node73&#45;&gt;Node11</title>
<path fill="none" stroke="midnightblue" d="M2255.73,-433.4C2291.83,-427.09 2339.25,-414.38 2374,-389 2475.51,-314.85 2516.92,-156.05 2528.42,-101.98"/>
<polygon fill="midnightblue" stroke="midnightblue" points="2531.87,-102.59 2530.44,-92.09 2525.01,-101.19 2531.87,-102.59"/>
</g>
<!-- Node73&#45;&gt;Node15 -->
<g id="edge109" class="edge">
<title>Node73&#45;&gt;Node15</title>
<path fill="none" stroke="midnightblue" d="M2216.36,-425.32C2224.34,-415.84 2233.73,-402.64 2238,-389 2244.81,-367.22 2227.64,-316.52 2226,-313 2190.27,-236.23 2015.01,-94.73 1935,-67 1860.49,-41.18 627.63,-20.44 412.04,-17"/>
<polygon fill="midnightblue" stroke="midnightblue" points="412.06,-13.5 402,-16.84 411.94,-20.5 412.06,-13.5"/>
</g>
<!-- Node73&#45;&gt;Node16 -->
<g id="edge108" class="edge">
<title>Node73&#45;&gt;Node16</title>
<path fill="none" stroke="midnightblue" d="M2255.77,-433.26C2284.25,-426.97 2317.32,-414.35 2336,-389 2388.48,-317.8 2390.18,-258.32 2334,-190 2233.8,-68.13 2155.6,-98.46 2001,-67 1672.25,-0.1 1580.66,-66.03 1247,-31 1228.74,-29.08 1208.52,-25.88 1191.98,-22.97"/>
<polygon fill="midnightblue" stroke="midnightblue" points="1192.16,-19.44 1181.7,-21.12 1190.92,-26.33 1192.16,-19.44"/>
</g>
<!-- Node73&#45;&gt;Node20 -->
<g id="edge112" class="edge">
<title>Node73&#45;&gt;Node20</title>
<path fill="none" stroke="midnightblue" d="M2150.29,-436.19C1978.55,-425.43 1437.8,-391.52 1291.05,-382.32"/>
<polygon fill="midnightblue" stroke="midnightblue" points="1290.99,-378.81 1280.79,-381.68 1290.55,-385.8 1290.99,-378.81"/>
</g>
<!-- Node73&#45;&gt;Node21 -->
<g id="edge115" class="edge">
<title>Node73&#45;&gt;Node21</title>
<path fill="none" stroke="midnightblue" d="M2150.14,-433.58C2052.81,-422.67 1845.45,-399.44 1738.64,-387.47"/>
<polygon fill="midnightblue" stroke="midnightblue" points="1738.96,-383.98 1728.63,-386.35 1738.18,-390.94 1738.96,-383.98"/>
</g>
<!-- Node76&#45;&gt;Node4 -->
<g id="edge119" class="edge">
<title>Node76&#45;&gt;Node4</title>
<path fill="none" stroke="midnightblue" d="M2635.51,-436.79C2680.37,-432.27 2744.92,-420.34 2792,-389 2878.28,-331.56 2930,-304.65 2930,-201 2930,-201 2930,-201 2930,-143 2930,-87.18 2882.55,-85.83 2830,-67 2706.84,-22.88 1756.38,-17.29 1547.51,-16.6"/>
<polygon fill="midnightblue" stroke="midnightblue" points="1547.3,-13.1 1537.29,-16.57 1547.28,-20.1 1547.3,-13.1"/>
</g>
<!-- Node76&#45;&gt;Node6 -->
<g id="edge122" class="edge">
<title>Node76&#45;&gt;Node6</title>
<path fill="none" stroke="midnightblue" d="M2573.24,-425.37C2562.58,-410.46 2544.54,-386.73 2526,-369 2495.67,-340.01 2487.51,-331.8 2450,-313 2404.12,-290 2279.37,-255.8 2229,-246 2072.43,-215.54 1884.13,-205.63 1789.89,-202.46"/>
<polygon fill="midnightblue" stroke="midnightblue" points="1789.8,-198.95 1779.69,-202.13 1789.58,-205.95 1789.8,-198.95"/>
</g>
<!-- Node76&#45;&gt;Node8 -->
<g id="edge120" class="edge">
<title>Node76&#45;&gt;Node8</title>
<path fill="none" stroke="midnightblue" d="M2578.22,-425.41C2572.77,-410.54 2562.93,-386.83 2550,-369 2503.12,-304.34 2488.21,-285.85 2419,-246 2245.94,-146.37 2006.05,-102.58 1914.02,-88.71"/>
<polygon fill="midnightblue" stroke="midnightblue" points="1914.46,-85.24 1904.05,-87.24 1913.43,-92.16 1914.46,-85.24"/>
</g>
<!-- Node76&#45;&gt;Node15 -->
<g id="edge118" class="edge">
<title>Node76&#45;&gt;Node15</title>
<path fill="none" stroke="midnightblue" d="M2588,-425.35C2606.58,-369.95 2665.43,-166.04 2563,-67 2557.94,-62.11 684.04,-22.84 412.62,-17.18"/>
<polygon fill="midnightblue" stroke="midnightblue" points="412.33,-13.67 402.26,-16.96 412.19,-20.67 412.33,-13.67"/>
</g>
<!-- Node76&#45;&gt;Node16 -->
<g id="edge117" class="edge">
<title>Node76&#45;&gt;Node16</title>
<path fill="none" stroke="midnightblue" d="M2634.72,-425.43C2681.89,-410.06 2750.41,-381.02 2792,-333 2813.67,-307.98 2816,-295.6 2816,-262.5 2816,-262.5 2816,-262.5 2816,-143 2816,-72.98 2745.59,-85.29 2678,-67 2524.47,-25.45 1405.36,-45.82 1247,-31 1228.72,-29.29 1208.5,-26.1 1191.96,-23.15"/>
<polygon fill="midnightblue" stroke="midnightblue" points="1192.15,-19.63 1181.68,-21.26 1190.89,-26.51 1192.15,-19.63"/>
</g>
<!-- Node76&#45;&gt;Node20 -->
<g id="edge121" class="edge">
<title>Node76&#45;&gt;Node20</title>
<path fill="none" stroke="midnightblue" d="M2530.32,-433.13C2504.62,-430.23 2473.23,-427.01 2445,-425 2212.26,-408.39 1465.25,-386.12 1290.71,-381.06"/>
<polygon fill="midnightblue" stroke="midnightblue" points="1290.61,-377.55 1280.51,-380.76 1290.41,-384.55 1290.61,-377.55"/>
</g>
<!-- Node89&#45;&gt;Node6 -->
<g id="edge126" class="edge">
<title>Node89&#45;&gt;Node6</title>
<path fill="none" stroke="midnightblue" d="M1192.84,-738.35C1191.1,-715.78 1188,-670.2 1188,-631.5 1188,-631.5 1188,-631.5 1188,-506.5 1188,-468.74 1185.31,-456.17 1164,-425 1123.02,-365.04 996.13,-366.73 1045,-313 1101.92,-250.41 1341.84,-297.19 1424,-277 1459.43,-268.29 1465.05,-256.44 1500,-246 1556.84,-229.02 1623.54,-216.79 1670.43,-209.4"/>
<polygon fill="midnightblue" stroke="midnightblue" points="1671.08,-212.84 1680.42,-207.85 1670.01,-205.92 1671.08,-212.84"/>
</g>
<!-- Node89&#45;&gt;Node28 -->
<g id="edge127" class="edge">
<title>Node89&#45;&gt;Node28</title>
<path fill="none" stroke="midnightblue" d="M1208.85,-738.39C1229.39,-717.26 1264,-675.18 1264,-631.5 1264,-631.5 1264,-631.5 1264,-568 1264,-466.73 1166.91,-374.29 1124.95,-339.07"/>
<polygon fill="midnightblue" stroke="midnightblue" points="1127.06,-336.27 1117.11,-332.62 1122.61,-341.68 1127.06,-336.27"/>
</g>
<!-- Node89&#45;&gt;Node59 -->
<g id="edge129" class="edge">
<title>Node89&#45;&gt;Node59</title>
<path fill="none" stroke="midnightblue" d="M1130.87,-747.78C985.96,-736.95 629.93,-710.34 473.64,-698.65"/>
<polygon fill="midnightblue" stroke="midnightblue" points="473.87,-695.16 463.64,-697.91 473.35,-702.14 473.87,-695.16"/>
</g>
<!-- Node89&#45;&gt;Node61 -->
<g id="edge128" class="edge">
<title>Node89&#45;&gt;Node61</title>
<path fill="none" stroke="midnightblue" d="M1168.11,-738.45C1120.18,-712.67 1014.1,-656.6 922,-615 882.74,-597.27 868.25,-602.28 832,-579 808.57,-563.95 786.06,-540.86 772.14,-525.24"/>
<polygon fill="midnightblue" stroke="midnightblue" points="774.55,-522.68 765.34,-517.43 769.27,-527.27 774.55,-522.68"/>
</g>
<!-- Node101&#45;&gt;Node6 -->
<g id="edge131" class="edge">
<title>Node101&#45;&gt;Node6</title>
<path fill="none" stroke="midnightblue" d="M2282.76,-492.36C2278.78,-456.19 2262.98,-359.89 2205,-313 2159.05,-275.84 2131.74,-299.26 2077,-277 2050.29,-266.14 2047.32,-255.24 2020,-246 1943.01,-219.97 1849.36,-208.91 1789.71,-204.26"/>
<polygon fill="midnightblue" stroke="midnightblue" points="1789.95,-200.77 1779.71,-203.52 1789.43,-207.75 1789.95,-200.77"/>
</g>
<!-- Node101&#45;&gt;Node102 -->
<g id="edge132" class="edge">
<title>Node101&#45;&gt;Node102</title>
<path fill="none" stroke="midnightblue" d="M2305.7,-492.4C2319.72,-483.28 2338.17,-471.29 2353.64,-461.24"/>
<polygon fill="midnightblue" stroke="midnightblue" points="2355.87,-463.96 2362.34,-455.58 2352.05,-458.09 2355.87,-463.96"/>
</g>
<!-- Node102&#45;&gt;Node6 -->
<g id="edge135" class="edge">
<title>Node102&#45;&gt;Node6</title>
<path fill="none" stroke="midnightblue" d="M2378.26,-425.4C2366.91,-399.26 2339.08,-343.21 2298,-313 2277.33,-297.8 2102.09,-251.39 2077,-246 1977.43,-224.61 1859.46,-211.93 1789.89,-205.74"/>
<polygon fill="midnightblue" stroke="midnightblue" points="1789.84,-202.22 1779.57,-204.83 1789.23,-209.19 1789.84,-202.22"/>
</g>
<!-- Node102&#45;&gt;Node11 -->
<g id="edge133" class="edge">
<title>Node102&#45;&gt;Node11</title>
<path fill="none" stroke="midnightblue" d="M2405.88,-425.47C2442.3,-400.66 2514.22,-345.18 2543,-277 2568.27,-217.14 2549.16,-137.49 2538.24,-101.96"/>
<polygon fill="midnightblue" stroke="midnightblue" points="2541.45,-100.5 2535.05,-92.06 2534.79,-102.65 2541.45,-100.5"/>
</g>
<!-- Node102&#45;&gt;Node21 -->
<g id="edge136" class="edge">
<title>Node102&#45;&gt;Node21</title>
<path fill="none" stroke="midnightblue" d="M2331.48,-432.64C2310.52,-430.04 2286.14,-427.18 2264,-425 2073.95,-406.3 1848.91,-391.1 1739.07,-384.13"/>
<polygon fill="midnightblue" stroke="midnightblue" points="1739.01,-380.61 1728.81,-383.48 1738.57,-387.6 1739.01,-380.61"/>
</g>
<!-- Node102&#45;&gt;Node24 -->
<g id="edge134" class="edge">
<title>Node102&#45;&gt;Node24</title>
<path fill="none" stroke="midnightblue" d="M2348.85,-425.45C2291.78,-402.64 2179.91,-357.93 2125.78,-336.3"/>
<polygon fill="midnightblue" stroke="midnightblue" points="2126.96,-333 2116.37,-332.54 2124.36,-339.5 2126.96,-333"/>
</g>
<!-- Node103&#45;&gt;Node59 -->
<g id="edge138" class="edge">
<title>Node103&#45;&gt;Node59</title>
<path fill="none" stroke="midnightblue" d="M562.55,-805.49C532.67,-785.06 456.57,-733.04 419.27,-707.54"/>
<polygon fill="midnightblue" stroke="midnightblue" points="420.9,-704.42 410.67,-701.66 416.95,-710.19 420.9,-704.42"/>
</g>
<!-- Node119&#45;&gt;Node59 -->
<g id="edge140" class="edge">
<title>Node119&#45;&gt;Node59</title>
<path fill="none" stroke="midnightblue" d="M406.35,-805.3C404.91,-785.85 401.38,-738.49 399.41,-711.9"/>
<polygon fill="midnightblue" stroke="midnightblue" points="402.87,-711.34 398.64,-701.62 395.89,-711.86 402.87,-711.34"/>
</g>
<!-- Node120&#45;&gt;Node4 -->
<g id="edge143" class="edge">
<title>Node120&#45;&gt;Node4</title>
<path fill="none" stroke="midnightblue" d="M692.52,-861.1C687.22,-848.11 676.31,-823.49 663,-805 638.58,-771.07 629.77,-763.95 597,-738 559.48,-708.28 547.6,-703.84 505,-682 468.49,-663.28 454.87,-667.62 420,-646 381.16,-621.91 361.07,-620.53 342,-579 264.18,-409.58 357.24,-311.09 499,-190 535.11,-159.16 545.46,-150.47 590,-134 686.22,-98.43 724.91,-141.12 818,-98 837.16,-89.13 834.46,-75 854,-67 965.09,-21.49 1273.52,-42.58 1393,-31 1417.4,-28.64 1444.65,-25.2 1466.38,-22.27"/>
<polygon fill="midnightblue" stroke="midnightblue" points="1467.14,-25.7 1476.57,-20.87 1466.19,-18.76 1467.14,-25.7"/>
</g>
<!-- Node120&#45;&gt;Node6 -->
<g id="edge146" class="edge">
<title>Node120&#45;&gt;Node6</title>
<path fill="none" stroke="midnightblue" d="M765.89,-862.58C802.81,-856.42 847.83,-845.24 884,-825 1018.93,-749.49 1070.83,-721.85 1130,-579 1178.27,-462.46 946.42,-406.59 1031,-313 1084.17,-254.17 1312.74,-307.34 1386,-277 1406.14,-268.66 1404.06,-254.79 1424,-246 1426.81,-244.76 1581.98,-222.3 1670.24,-209.59"/>
<polygon fill="midnightblue" stroke="midnightblue" points="1670.99,-213.01 1680.39,-208.13 1669.99,-206.09 1670.99,-213.01"/>
</g>
<!-- Node120&#45;&gt;Node8 -->
<g id="edge144" class="edge">
<title>Node120&#45;&gt;Node8</title>
<path fill="none" stroke="midnightblue" d="M738.12,-861.46C789.62,-848.27 870,-817.59 870,-754.5 870,-754.5 870,-754.5 870,-691 870,-581.24 732.88,-623.6 689,-523 652.52,-439.36 684.12,-380.82 787,-313 926.79,-220.85 1008.95,-344.89 1162,-277 1180.69,-268.71 1177.27,-254.21 1196,-246 1364.75,-172.03 1428.62,-247.55 1609,-210 1613.79,-209 1771.64,-156.21 1776,-154 1806.73,-138.44 1838.65,-114.3 1857.93,-98.7"/>
<polygon fill="midnightblue" stroke="midnightblue" points="1860.34,-101.25 1865.85,-92.19 1855.9,-95.84 1860.34,-101.25"/>
</g>
<!-- Node120&#45;&gt;Node15 -->
<g id="edge142" class="edge">
<title>Node120&#45;&gt;Node15</title>
<path fill="none" stroke="midnightblue" d="M689.51,-861.48C679.44,-848.53 659.12,-823.48 639,-805 571.1,-742.65 554.74,-722.64 472,-682 419.72,-656.32 400.96,-665.28 346,-646 273.25,-620.48 247.55,-625.43 186,-579 123.52,-531.87 76,-519.76 76,-441.5 76,-441.5 76,-441.5 76,-143 76,-26.44 268.87,-15.31 347.36,-15.6"/>
<polygon fill="midnightblue" stroke="midnightblue" points="347.61,-19.11 357.65,-15.71 347.68,-12.11 347.61,-19.11"/>
</g>
<!-- Node120&#45;&gt;Node20 -->
<g id="edge145" class="edge">
<title>Node120&#45;&gt;Node20</title>
<path fill="none" stroke="midnightblue" d="M765.69,-866.87C901.42,-859.33 1194.21,-835.6 1266,-769 1312.31,-726.04 1302,-694.67 1302,-631.5 1302,-631.5 1302,-631.5 1302,-506.5 1302,-465.21 1279.37,-420.98 1265.19,-397.32"/>
<polygon fill="midnightblue" stroke="midnightblue" points="1268.13,-395.42 1259.89,-388.77 1262.18,-399.11 1268.13,-395.42"/>
</g>
<!-- Node120&#45;&gt;Node72 -->
<g id="edge149" class="edge">
<title>Node120&#45;&gt;Node72</title>
<path fill="none" stroke="midnightblue" d="M765.64,-865.16C916.99,-854.64 1273.63,-829.86 1414.39,-820.07"/>
<polygon fill="midnightblue" stroke="midnightblue" points="1414.81,-823.55 1424.54,-819.37 1414.33,-816.57 1414.81,-823.55"/>
</g>
<!-- Node120&#45;&gt;Node103 -->
<g id="edge148" class="edge">
<title>Node120&#45;&gt;Node103</title>
<path fill="none" stroke="midnightblue" d="M676.83,-861.44C657.09,-852.64 626.11,-838.81 603.51,-828.72"/>
<polygon fill="midnightblue" stroke="midnightblue" points="604.64,-825.4 594.08,-824.52 601.79,-831.79 604.64,-825.4"/>
</g>
<!-- Node120&#45;&gt;Node119 -->
<g id="edge147" class="edge">
<title>Node120&#45;&gt;Node119</title>
<path fill="none" stroke="midnightblue" d="M650.21,-861.44C599.26,-851.92 516.97,-836.55 462.43,-826.36"/>
<polygon fill="midnightblue" stroke="midnightblue" points="463.05,-822.91 452.58,-824.52 461.77,-829.79 463.05,-822.91"/>
</g>
<!-- Node105&#45;&gt;Node4 -->
<g id="edge152" class="edge">
<title>Node105&#45;&gt;Node4</title>
<path fill="none" stroke="midnightblue" d="M519.52,-559.22C526.15,-523.59 555.58,-388.14 632,-313 711.05,-235.27 745.93,-230.83 849,-190 911.94,-165.07 932.12,-173.33 997,-154 1068.4,-132.72 1087.18,-128.85 1155,-98 1180.54,-86.38 1183.55,-76.38 1210,-67 1256.65,-50.45 1396.68,-30.77 1466.5,-21.63"/>
<polygon fill="midnightblue" stroke="midnightblue" points="1467.21,-25.07 1476.68,-20.31 1466.31,-18.13 1467.21,-25.07"/>
</g>
<!-- Node105&#45;&gt;Node6 -->
<g id="edge154" class="edge">
<title>Node105&#45;&gt;Node6</title>
<path fill="none" stroke="midnightblue" d="M534.78,-559.46C581.76,-535.25 718.03,-463.14 822,-389 864.35,-358.8 863.15,-333.4 911,-313 1059.32,-249.75 1122.98,-338.58 1272,-277 1292.14,-268.68 1289.86,-254.34 1310,-246 1456.93,-185.17 1508.12,-229.08 1666,-210 1667.46,-209.82 1668.94,-209.64 1670.44,-209.45"/>
<polygon fill="midnightblue" stroke="midnightblue" points="1670.94,-212.92 1680.41,-208.17 1670.05,-205.98 1670.94,-212.92"/>
</g>
<!-- Node105&#45;&gt;Node15 -->
<g id="edge151" class="edge">
<title>Node105&#45;&gt;Node15</title>
<path fill="none" stroke="midnightblue" d="M505.82,-559.47C442.32,-514.55 152,-303.58 152,-201 152,-201 152,-201 152,-143 152,-103.75 165.81,-90.84 197,-67 241.85,-32.71 308.61,-21.7 347.88,-18.17"/>
<polygon fill="midnightblue" stroke="midnightblue" points="348.26,-21.65 357.95,-17.37 347.71,-14.67 348.26,-21.65"/>
</g>
<!-- Node105&#45;&gt;Node55 -->
<g id="edge153" class="edge">
<title>Node105&#45;&gt;Node55</title>
<path fill="none" stroke="midnightblue" d="M514.4,-559.22C510.94,-550.28 505.97,-535.94 504,-523 494.99,-463.74 485.58,-418.93 518,-313 528.02,-280.26 532.99,-271.35 556,-246 567.24,-233.62 582.47,-222.74 595.25,-214.78"/>
<polygon fill="midnightblue" stroke="midnightblue" points="597.26,-217.66 604.04,-209.52 593.66,-211.65 597.26,-217.66"/>
</g>
<!-- Node105&#45;&gt;Node61 -->
<g id="edge155" class="edge">
<title>Node105&#45;&gt;Node61</title>
<path fill="none" stroke="midnightblue" d="M552.39,-559.48C594.89,-548.94 667.3,-530.99 713.87,-519.44"/>
<polygon fill="midnightblue" stroke="midnightblue" points="714.81,-522.81 723.68,-517.01 713.13,-516.02 714.81,-522.81"/>
</g>
<!-- Node121&#45;&gt;Node6 -->
<g id="edge160" class="edge">
<title>Node121&#45;&gt;Node6</title>
<path fill="none" stroke="midnightblue" d="M2645.5,-620.95C2663.12,-602.28 2702,-555.72 2702,-508.5 2702,-508.5 2702,-508.5 2702,-439.5 2702,-326.71 2584.09,-360.95 2482,-313 2404.74,-276.71 2385.35,-264.41 2302,-246 2118.44,-205.45 1894.67,-200.23 1789.73,-200.29"/>
<polygon fill="midnightblue" stroke="midnightblue" points="1789.64,-196.79 1779.65,-200.31 1789.65,-203.79 1789.64,-196.79"/>
</g>
<!-- Node121&#45;&gt;Node28 -->
<g id="edge161" class="edge">
<title>Node121&#45;&gt;Node28</title>
<path fill="none" stroke="midnightblue" d="M2602.87,-620.95C2531.18,-602.98 2359.68,-559.89 2216,-523 2163.06,-509.41 2150.44,-503.47 2097,-492 1748.21,-417.15 1324.53,-354.71 1167.98,-332.59"/>
<polygon fill="midnightblue" stroke="midnightblue" points="1168.01,-329.06 1157.62,-331.13 1167.03,-336 1168.01,-329.06"/>
</g>
<!-- Node121&#45;&gt;Node64 -->
<g id="edge162" class="edge">
<title>Node121&#45;&gt;Node64</title>
<path fill="none" stroke="midnightblue" d="M2572.87,-627.11C2324.46,-617.86 1424.78,-584.36 1131.87,-573.46"/>
<polygon fill="midnightblue" stroke="midnightblue" points="1131.83,-569.95 1121.71,-573.08 1131.57,-576.95 1131.83,-569.95"/>
</g>
<!-- Node122&#45;&gt;Node4 -->
<g id="edge168" class="edge">
<title>Node122&#45;&gt;Node4</title>
<path fill="none" stroke="midnightblue" d="M3050.08,-738.37C3095.21,-721.08 3158,-687.04 3158,-631.5 3158,-631.5 3158,-631.5 3158,-143 3158,-105.43 3152.54,-87.42 3121,-67 3052.95,-22.95 1790.17,-17.27 1547.24,-16.59"/>
<polygon fill="midnightblue" stroke="midnightblue" points="1547.1,-13.09 1537.09,-16.56 1547.08,-20.09 1547.1,-13.09"/>
</g>
<!-- Node122&#45;&gt;Node15 -->
<g id="edge167" class="edge">
<title>Node122&#45;&gt;Node15</title>
<path fill="none" stroke="midnightblue" d="M2997.54,-738.36C2992.72,-728.47 2986.84,-714.79 2984,-702 2947.6,-537.84 2968,-492.15 2968,-324 2968,-324 2968,-324 2968,-199 2968,-176.76 2611.89,-70.97 2590,-67 2561.98,-61.92 684.48,-22.81 412.66,-17.18"/>
<polygon fill="midnightblue" stroke="midnightblue" points="412.36,-13.67 402.29,-16.96 412.22,-20.67 412.36,-13.67"/>
</g>
<!-- Node123 -->
<g id="node50" class="node">
<title>Node123</title>
<g id="a_node50"><a xlink:href="../../d2/dfc/spheric__particle_8h.html" target="_top" xlink:title=" ">
<polygon fill="none" stroke="red" points="2993.5,-682.5 2993.5,-701.5 3096.5,-701.5 3096.5,-682.5 2993.5,-682.5"/>
<text text-anchor="middle" x="3045" y="-689.5" font-family="Helvetica,sans-Serif" font-size="10.00">spheric_particle.h</text>
</a>
</g>
</g>
<!-- Node122&#45;&gt;Node123 -->
<g id="edge169" class="edge">
<title>Node122&#45;&gt;Node123</title>
<path fill="none" stroke="midnightblue" d="M3014.48,-738.4C3020.17,-729.93 3027.45,-719.1 3033.48,-710.14"/>
<polygon fill="midnightblue" stroke="midnightblue" points="3036.51,-711.91 3039.18,-701.66 3030.7,-708 3036.51,-711.91"/>
</g>
<!-- Node123&#45;&gt;Node4 -->
<g id="edge171" class="edge">
<title>Node123&#45;&gt;Node4</title>
<path fill="none" stroke="midnightblue" d="M3058.57,-682.2C3070.07,-674.09 3086.21,-661.04 3096,-646 3115.32,-616.31 3120,-605.42 3120,-570 3120,-570 3120,-570 3120,-143 3120,-107.58 3124.23,-88.39 3096,-67 3032.42,-18.83 1787.77,-16.48 1547.09,-16.47"/>
<polygon fill="midnightblue" stroke="midnightblue" points="1547.03,-12.97 1537.03,-16.48 1547.03,-19.97 1547.03,-12.97"/>
</g>
<!-- Node123&#45;&gt;Node6 -->
<g id="edge172" class="edge">
<title>Node123&#45;&gt;Node6</title>
<path fill="none" stroke="midnightblue" d="M3040.6,-682.36C3013.14,-629.46 2859.17,-348.21 2640,-246 2563.37,-210.26 1979.94,-202.83 1789.74,-201.35"/>
<polygon fill="midnightblue" stroke="midnightblue" points="1789.67,-197.85 1779.65,-201.28 1789.62,-204.85 1789.67,-197.85"/>
</g>
<!-- Node123&#45;&gt;Node9 -->
<g id="edge173" class="edge">
<title>Node123&#45;&gt;Node9</title>
<path fill="none" stroke="midnightblue" d="M3049.54,-682.47C3059.42,-663.07 3082,-613.93 3082,-570 3082,-570 3082,-570 3082,-143 3082,7.51 2901.29,-86.09 2752,-67 2185.72,5.42 2037.76,-66.85 1468,-31 1443.88,-29.48 1417.6,-27.13 1393.98,-24.77"/>
<polygon fill="midnightblue" stroke="midnightblue" points="1394.33,-21.29 1384.03,-23.75 1393.62,-28.25 1394.33,-21.29"/>
</g>
<!-- Node123&#45;&gt;Node15 -->
<g id="edge170" class="edge">
<title>Node123&#45;&gt;Node15</title>
<path fill="none" stroke="midnightblue" d="M3044.88,-682.49C3044.62,-662.74 3044,-612.23 3044,-570 3044,-570 3044,-570 3044,-378 3044,-266.11 3061.2,-213.04 2982,-134 2895.7,-47.88 2836.82,-83.31 2716,-67 2686.09,-62.96 691.58,-22.76 412.33,-17.15"/>
<polygon fill="midnightblue" stroke="midnightblue" points="412.14,-13.64 402.07,-16.94 412,-20.64 412.14,-13.64"/>
</g>
<!-- Node123&#45;&gt;Node121 -->
<g id="edge174" class="edge">
<title>Node123&#45;&gt;Node121</title>
<path fill="none" stroke="midnightblue" d="M2993.33,-683.46C2920.33,-672.82 2786.87,-653.36 2705.62,-641.51"/>
<polygon fill="midnightblue" stroke="midnightblue" points="2705.89,-638.01 2695.49,-640.03 2704.88,-644.94 2705.89,-638.01"/>
</g>
</g>
</svg>
