<?xml version="1.0" encoding="UTF-8" standalone="no"?>
<!DOCTYPE svg PUBLIC "-//W3C//DTD SVG 1.1//EN"
 "http://www.w3.org/Graphics/SVG/1.1/DTD/svg11.dtd">
<!-- Generated by graphviz version 7.1.0 (0)
 -->
<!-- Title: /software/kratos/doxygen/applications/HDF5Application/custom_io/hdf5_data_value_container_io.h Pages: 1 -->
<svg width="772pt" height="148pt"
 viewBox="0.00 0.00 771.50 148.00" xmlns="http://www.w3.org/2000/svg" xmlns:xlink="http://www.w3.org/1999/xlink">
<g id="graph0" class="graph" transform="scale(1 1) rotate(0) translate(4 144)">
<title>/software/kratos/doxygen/applications/HDF5Application/custom_io/hdf5_data_value_container_io.h</title>
<!-- Node1 -->
<g id="node1" class="node">
<title>Node1</title>
<g id="a_node1"><a xlink:title="Methods for storing and retrieving a data value container in an HDF5 file.">
<polygon fill="#999999" stroke="#666666" points="461,-140 297,-140 297,-88 461,-88 461,-140"/>
<text text-anchor="start" x="305" y="-128" font-family="Helvetica,sans-Serif" font-size="10.00">/software/kratos/doxygen</text>
<text text-anchor="start" x="305" y="-117" font-family="Helvetica,sans-Serif" font-size="10.00">/applications/HDF5Application</text>
<text text-anchor="start" x="305" y="-106" font-family="Helvetica,sans-Serif" font-size="10.00">/custom_io/hdf5_data_value</text>
<text text-anchor="middle" x="379" y="-95" font-family="Helvetica,sans-Serif" font-size="10.00">_container_io.h</text>
</a>
</g>
</g>
<!-- Node2 -->
<g id="node2" class="node">
<title>Node2</title>
<g id="a_node2"><a xlink:href="../../db/dca/hdf5__data__value__container__io_8cpp.html" target="_top" xlink:title=" ">
<polygon fill="white" stroke="#666666" points="164,-52 0,-52 0,0 164,0 164,-52"/>
<text text-anchor="start" x="8" y="-40" font-family="Helvetica,sans-Serif" font-size="10.00">/software/kratos/doxygen</text>
<text text-anchor="start" x="8" y="-29" font-family="Helvetica,sans-Serif" font-size="10.00">/applications/HDF5Application</text>
<text text-anchor="start" x="8" y="-18" font-family="Helvetica,sans-Serif" font-size="10.00">/custom_io/hdf5_data_value</text>
<text text-anchor="middle" x="82" y="-7" font-family="Helvetica,sans-Serif" font-size="10.00">_container_io.cpp</text>
</a>
</g>
</g>
<!-- Node1&#45;&gt;Node2 -->
<g id="edge1" class="edge">
<title>Node1&#45;&gt;Node2</title>
<path fill="none" stroke="#63b8ff" d="M285.86,-86.03C246.98,-74.77 202.18,-61.8 164.5,-50.89"/>
<polygon fill="#63b8ff" stroke="#63b8ff" points="284.63,-89.32 295.21,-88.74 286.58,-82.59 284.63,-89.32"/>
</g>
<!-- Node3 -->
<g id="node3" class="node">
<title>Node3</title>
<g id="a_node3"><a xlink:href="../../db/d3d/hdf5__model__part__io_8cpp.html" target="_top" xlink:title=" ">
<polygon fill="white" stroke="#666666" points="372,-46.5 182,-46.5 182,-5.5 372,-5.5 372,-46.5"/>
<text text-anchor="start" x="190" y="-34.5" font-family="Helvetica,sans-Serif" font-size="10.00">/software/kratos/doxygen</text>
<text text-anchor="start" x="190" y="-23.5" font-family="Helvetica,sans-Serif" font-size="10.00">/applications/HDF5Application</text>
<text text-anchor="middle" x="277" y="-12.5" font-family="Helvetica,sans-Serif" font-size="10.00">/custom_io/hdf5_model_part_io.cpp</text>
</a>
</g>
</g>
<!-- Node1&#45;&gt;Node3 -->
<g id="edge2" class="edge">
<title>Node1&#45;&gt;Node3</title>
<path fill="none" stroke="#63b8ff" d="M340.39,-80.45C327.04,-69.19 312.49,-56.92 300.7,-46.98"/>
<polygon fill="#63b8ff" stroke="#63b8ff" points="337.89,-82.92 347.79,-86.69 342.4,-77.56 337.89,-82.92"/>
</g>
<!-- Node4 -->
<g id="node4" class="node">
<title>Node4</title>
<g id="a_node4"><a xlink:href="../../d8/dd7/hdf5__properties__io_8cpp.html" target="_top" xlink:title=" ">
<polygon fill="white" stroke="#666666" points="574,-46.5 390,-46.5 390,-5.5 574,-5.5 574,-46.5"/>
<text text-anchor="start" x="398" y="-34.5" font-family="Helvetica,sans-Serif" font-size="10.00">/software/kratos/doxygen</text>
<text text-anchor="start" x="398" y="-23.5" font-family="Helvetica,sans-Serif" font-size="10.00">/applications/HDF5Application</text>
<text text-anchor="middle" x="482" y="-12.5" font-family="Helvetica,sans-Serif" font-size="10.00">/custom_io/hdf5_properties_io.cpp</text>
</a>
</g>
</g>
<!-- Node1&#45;&gt;Node4 -->
<g id="edge3" class="edge">
<title>Node1&#45;&gt;Node4</title>
<path fill="none" stroke="#63b8ff" d="M417.99,-80.45C431.47,-69.19 446.16,-56.92 458.07,-46.98"/>
<polygon fill="#63b8ff" stroke="#63b8ff" points="415.94,-77.6 410.51,-86.69 420.43,-82.97 415.94,-77.6"/>
</g>
<!-- Node5 -->
<g id="node5" class="node">
<title>Node5</title>
<g id="a_node5"><a xlink:href="../../df/d70/_h_d_f5_application_2custom__python_2add__custom__io__to__python_8cpp.html" target="_top" xlink:title=" ">
<polygon fill="white" stroke="#666666" points="763.5,-52 592.5,-52 592.5,0 763.5,0 763.5,-52"/>
<text text-anchor="start" x="600.5" y="-40" font-family="Helvetica,sans-Serif" font-size="10.00">/software/kratos/doxygen</text>
<text text-anchor="start" x="600.5" y="-29" font-family="Helvetica,sans-Serif" font-size="10.00">/applications/HDF5Application</text>
<text text-anchor="start" x="600.5" y="-18" font-family="Helvetica,sans-Serif" font-size="10.00">/custom_python/add_custom_io</text>
<text text-anchor="middle" x="678" y="-7" font-family="Helvetica,sans-Serif" font-size="10.00">_to_python.cpp</text>
</a>
</g>
</g>
<!-- Node1&#45;&gt;Node5 -->
<g id="edge4" class="edge">
<title>Node1&#45;&gt;Node5</title>
<path fill="none" stroke="#63b8ff" d="M472.14,-86.21C510.47,-75.19 554.59,-62.5 592.13,-51.7"/>
<polygon fill="#63b8ff" stroke="#63b8ff" points="471.59,-82.73 462.95,-88.85 473.53,-89.45 471.59,-82.73"/>
</g>
</g>
</svg>
