<?xml version="1.0" encoding="UTF-8" standalone="no"?>
<!DOCTYPE svg PUBLIC "-//W3C//DTD SVG 1.1//EN"
 "http://www.w3.org/Graphics/SVG/1.1/DTD/svg11.dtd">
<!-- Generated by graphviz version 7.1.0 (0)
 -->
<!-- Title: /software/kratos/doxygen/applications/SolidMechanicsApplication/custom_constitutive/hyperelastic_plastic_plane_strain_2D_law.hpp Pages: 1 -->
<!--zoomable 346 -->
<svg id="main" version="1.1" xmlns="http://www.w3.org/2000/svg" xmlns:xlink="http://www.w3.org/1999/xlink" xml:space="preserve" onload="init(evt)">
<style type="text/css"><![CDATA[
.edge:hover path { stroke: red; }
.edge:hover polygon { stroke: red; fill: red; }
]]></style>
<script type="text/javascript"><![CDATA[
var edges = document.getElementsByTagName('g');
if (edges && edges.length) {
  for (var i=0;i<edges.length;i++) {
    if (edges[i].id.substr(0,4)=='edge') {
      edges[i].setAttribute('class','edge');
    }
  }
}
]]></script>
        <defs>
                <circle id="rim" cx="0" cy="0" r="7"/>
                <circle id="rim2" cx="0" cy="0" r="3.5"/>
                <g id="zoomPlus">
                        <use xlink:href="#rim" fill="#404040">
                                <set attributeName="fill" to="#808080" begin="zoomplus.mouseover" end="zoomplus.mouseout"/>
                        </use>
                        <path d="M-4,0h8M0,-4v8" fill="none" stroke="white" stroke-width="1.5" pointer-events="none"/>
                </g>
                <g id="zoomMin">
                        <use xlink:href="#rim" fill="#404040">
                                <set attributeName="fill" to="#808080" begin="zoomminus.mouseover" end="zoomminus.mouseout"/>
                        </use>
                        <path d="M-4,0h8" fill="none" stroke="white" stroke-width="1.5" pointer-events="none"/>
                </g>
                <g id="dirArrow">
                        <path fill="none" stroke="white" stroke-width="1.5" d="M0,-3.0v7 M-2.5,-0.5L0,-3.0L2.5,-0.5"/>
                </g>
               <g id="resetDef">
                       <use xlink:href="#rim2" fill="#404040">
                               <set attributeName="fill" to="#808080" begin="reset.mouseover" end="reset.mouseout"/>
                       </use>
               </g>
        </defs>

<script type="text/javascript">
var viewWidth = 1404;
var viewHeight = 346;
var sectionId = 'dynsection-1';
</script>
<script xlink:href="../../svgpan.js"/>
<svg id="graph" class="graph">
<g id="viewport">
<title>/software/kratos/doxygen/applications/SolidMechanicsApplication/custom_constitutive/hyperelastic_plastic_plane_strain_2D_law.hpp</title>
<!-- Node1 -->
<g id="node1" class="node">
<title>Node1</title>
<g id="a_node1"><a xlink:title=" ">
<polygon fill="#999999" stroke="#666666" points="908,-338 696,-338 696,-286 908,-286 908,-338"/>
<text text-anchor="start" x="704" y="-326" font-family="Helvetica,sans-Serif" font-size="10.00">/software/kratos/doxygen</text>
<text text-anchor="start" x="704" y="-315" font-family="Helvetica,sans-Serif" font-size="10.00">/applications/SolidMechanicsApplication</text>
<text text-anchor="start" x="704" y="-304" font-family="Helvetica,sans-Serif" font-size="10.00">/custom_constitutive/hyperelastic</text>
<text text-anchor="middle" x="802" y="-293" font-family="Helvetica,sans-Serif" font-size="10.00">_plastic_plane_strain_2D_law.hpp</text>
</a>
</g>
</g>
<!-- Node2 -->
<g id="node2" class="node">
<title>Node2</title>
<g id="a_node2"><a xlink:href="../../df/dde/hyperelastic__plastic___j2__plane__strain__2_d__law_8hpp.html" target="_top" xlink:title=" ">
<polygon fill="white" stroke="#666666" points="448,-244.5 236,-244.5 236,-192.5 448,-192.5 448,-244.5"/>
<text text-anchor="start" x="244" y="-232.5" font-family="Helvetica,sans-Serif" font-size="10.00">/software/kratos/doxygen</text>
<text text-anchor="start" x="244" y="-221.5" font-family="Helvetica,sans-Serif" font-size="10.00">/applications/SolidMechanicsApplication</text>
<text text-anchor="start" x="244" y="-210.5" font-family="Helvetica,sans-Serif" font-size="10.00">/custom_constitutive/hyperelastic</text>
<text text-anchor="middle" x="342" y="-199.5" font-family="Helvetica,sans-Serif" font-size="10.00">_plastic_J2_plane_strain_2D_law.hpp</text>
</a>
</g>
</g>
<!-- Node1&#45;&gt;Node2 -->
<g id="edge1" class="edge">
<title>Node1&#45;&gt;Node2</title>
<path fill="none" stroke="#63b8ff" d="M684.84,-292.8C617.84,-281.77 532.39,-266.63 457,-250 449.94,-248.44 442.66,-246.74 435.36,-244.96"/>
<polygon fill="#63b8ff" stroke="#63b8ff" points="683.92,-296.2 694.35,-294.36 685.05,-289.29 683.92,-296.2"/>
</g>
<!-- Node10 -->
<g id="node10" class="node">
<title>Node10</title>
<g id="a_node10"><a xlink:href="../../db/d21/hyperelastic__plastic__plane__strain__2_d__law_8cpp.html" target="_top" xlink:title=" ">
<polygon fill="white" stroke="#666666" points="1396,-244.5 1184,-244.5 1184,-192.5 1396,-192.5 1396,-244.5"/>
<text text-anchor="start" x="1192" y="-232.5" font-family="Helvetica,sans-Serif" font-size="10.00">/software/kratos/doxygen</text>
<text text-anchor="start" x="1192" y="-221.5" font-family="Helvetica,sans-Serif" font-size="10.00">/applications/SolidMechanicsApplication</text>
<text text-anchor="start" x="1192" y="-210.5" font-family="Helvetica,sans-Serif" font-size="10.00">/custom_constitutive/hyperelastic</text>
<text text-anchor="middle" x="1290" y="-199.5" font-family="Helvetica,sans-Serif" font-size="10.00">_plastic_plane_strain_2D_law.cpp</text>
</a>
</g>
</g>
<!-- Node1&#45;&gt;Node10 -->
<g id="edge9" class="edge">
<title>Node1&#45;&gt;Node10</title>
<path fill="none" stroke="#63b8ff" d="M919.39,-294.79C993.12,-283.87 1090.01,-268.17 1175,-250 1182.17,-248.47 1189.56,-246.77 1196.98,-244.99"/>
<polygon fill="#63b8ff" stroke="#63b8ff" points="919.11,-291.29 909.72,-296.21 920.12,-298.22 919.11,-291.29"/>
</g>
<!-- Node11 -->
<g id="node11" class="node">
<title>Node11</title>
<g id="a_node11"><a xlink:href="../../d1/d59/hyperelastic__plastic__thermal___j2__plane__strain__2_d__law_8hpp.html" target="_top" xlink:title=" ">
<polygon fill="white" stroke="#666666" points="1165.5,-244.5 926.5,-244.5 926.5,-192.5 1165.5,-192.5 1165.5,-244.5"/>
<text text-anchor="start" x="934.5" y="-232.5" font-family="Helvetica,sans-Serif" font-size="10.00">/software/kratos/doxygen</text>
<text text-anchor="start" x="934.5" y="-221.5" font-family="Helvetica,sans-Serif" font-size="10.00">/applications/SolidMechanicsApplication</text>
<text text-anchor="start" x="934.5" y="-210.5" font-family="Helvetica,sans-Serif" font-size="10.00">/custom_constitutive/hyperelastic</text>
<text text-anchor="middle" x="1046" y="-199.5" font-family="Helvetica,sans-Serif" font-size="10.00">_plastic_thermal_J2_plane_strain_2D_law.hpp</text>
</a>
</g>
</g>
<!-- Node1&#45;&gt;Node11 -->
<g id="edge10" class="edge">
<title>Node1&#45;&gt;Node11</title>
<path fill="none" stroke="#63b8ff" d="M880.48,-281.57C912.02,-269.74 948.04,-256.24 978.4,-244.85"/>
<polygon fill="#63b8ff" stroke="#63b8ff" points="879.52,-278.19 871.38,-284.98 881.98,-284.75 879.52,-278.19"/>
</g>
<!-- Node13 -->
<g id="node13" class="node">
<title>Node13</title>
<g id="a_node13"><a xlink:href="../../d3/de7/hyperelastic__plastic__thermal__baker__johnson__cook__plane__strain__2_d__law_8hpp.html" target="_top" xlink:title=" ">
<polygon fill="white" stroke="#666666" points="678,-250 466,-250 466,-187 678,-187 678,-250"/>
<text text-anchor="start" x="474" y="-238" font-family="Helvetica,sans-Serif" font-size="10.00">/software/kratos/doxygen</text>
<text text-anchor="start" x="474" y="-227" font-family="Helvetica,sans-Serif" font-size="10.00">/applications/SolidMechanicsApplication</text>
<text text-anchor="start" x="474" y="-216" font-family="Helvetica,sans-Serif" font-size="10.00">/custom_constitutive/hyperelastic</text>
<text text-anchor="start" x="474" y="-205" font-family="Helvetica,sans-Serif" font-size="10.00">_plastic_thermal_baker_johnson_cook</text>
<text text-anchor="middle" x="572" y="-194" font-family="Helvetica,sans-Serif" font-size="10.00">_plane_strain_2D_law.hpp</text>
</a>
</g>
</g>
<!-- Node1&#45;&gt;Node13 -->
<g id="edge14" class="edge">
<title>Node1&#45;&gt;Node13</title>
<path fill="none" stroke="#63b8ff" d="M727.45,-281.34C702.55,-271.44 674.75,-260.38 649.62,-250.38"/>
<polygon fill="#63b8ff" stroke="#63b8ff" points="725.94,-284.51 736.53,-284.95 728.53,-278 725.94,-284.51"/>
</g>
<!-- Node15 -->
<g id="node15" class="node">
<title>Node15</title>
<g id="a_node15"><a xlink:href="../../d1/dc7/hyperelastic__plastic__thermal__johnson__cook__plane__strain__2_d__law_8hpp.html" target="_top" xlink:title=" ">
<polygon fill="white" stroke="#666666" points="908,-250 696,-250 696,-187 908,-187 908,-250"/>
<text text-anchor="start" x="704" y="-238" font-family="Helvetica,sans-Serif" font-size="10.00">/software/kratos/doxygen</text>
<text text-anchor="start" x="704" y="-227" font-family="Helvetica,sans-Serif" font-size="10.00">/applications/SolidMechanicsApplication</text>
<text text-anchor="start" x="704" y="-216" font-family="Helvetica,sans-Serif" font-size="10.00">/custom_constitutive/hyperelastic</text>
<text text-anchor="start" x="704" y="-205" font-family="Helvetica,sans-Serif" font-size="10.00">_plastic_thermal_johnson_cook_plane</text>
<text text-anchor="middle" x="802" y="-194" font-family="Helvetica,sans-Serif" font-size="10.00">_strain_2D_law.hpp</text>
</a>
</g>
</g>
<!-- Node1&#45;&gt;Node15 -->
<g id="edge18" class="edge">
<title>Node1&#45;&gt;Node15</title>
<path fill="none" stroke="#63b8ff" d="M802,-274.01C802,-266.17 802,-257.97 802,-250.38"/>
<polygon fill="#63b8ff" stroke="#63b8ff" points="798.5,-274 802,-284 805.5,-274 798.5,-274"/>
</g>
<!-- Node3 -->
<g id="node3" class="node">
<title>Node3</title>
<g id="a_node3"><a xlink:href="../../da/da2/hyperelastic__plastic___j2__plane__strain__2_d__law_8cpp.html" target="_top" xlink:title=" ">
<polygon fill="white" stroke="#666666" points="212,-145.5 0,-145.5 0,-93.5 212,-93.5 212,-145.5"/>
<text text-anchor="start" x="8" y="-133.5" font-family="Helvetica,sans-Serif" font-size="10.00">/software/kratos/doxygen</text>
<text text-anchor="start" x="8" y="-122.5" font-family="Helvetica,sans-Serif" font-size="10.00">/applications/SolidMechanicsApplication</text>
<text text-anchor="start" x="8" y="-111.5" font-family="Helvetica,sans-Serif" font-size="10.00">/custom_constitutive/hyperelastic</text>
<text text-anchor="middle" x="106" y="-100.5" font-family="Helvetica,sans-Serif" font-size="10.00">_plastic_J2_plane_strain_2D_law.cpp</text>
</a>
</g>
</g>
<!-- Node2&#45;&gt;Node3 -->
<g id="edge2" class="edge">
<title>Node2&#45;&gt;Node3</title>
<path fill="none" stroke="#63b8ff" d="M269.65,-187.76C237.14,-174.4 199.18,-158.8 168,-145.98"/>
<polygon fill="#63b8ff" stroke="#63b8ff" points="268.01,-190.87 278.59,-191.44 270.68,-184.4 268.01,-190.87"/>
</g>
<!-- Node4 -->
<g id="node4" class="node">
<title>Node4</title>
<g id="a_node4"><a xlink:href="../../db/d9e/_solid_mechanics_application_2custom__python_2add__custom__constitutive__laws__to__python_8cpp.html" target="_top" xlink:title=" ">
<polygon fill="white" stroke="#666666" points="680,-145.5 460,-145.5 460,-93.5 680,-93.5 680,-145.5"/>
<text text-anchor="start" x="468" y="-133.5" font-family="Helvetica,sans-Serif" font-size="10.00">/software/kratos/doxygen</text>
<text text-anchor="start" x="468" y="-122.5" font-family="Helvetica,sans-Serif" font-size="10.00">/applications/SolidMechanicsApplication</text>
<text text-anchor="start" x="468" y="-111.5" font-family="Helvetica,sans-Serif" font-size="10.00">/custom_python/add_custom_constitutive</text>
<text text-anchor="middle" x="570" y="-100.5" font-family="Helvetica,sans-Serif" font-size="10.00">_laws_to_python.cpp</text>
</a>
</g>
</g>
<!-- Node2&#45;&gt;Node4 -->
<g id="edge3" class="edge">
<title>Node2&#45;&gt;Node4</title>
<path fill="none" stroke="#63b8ff" d="M412.31,-187.59C443.62,-174.27 480.11,-158.74 510.1,-145.98"/>
<polygon fill="#63b8ff" stroke="#63b8ff" points="411.13,-184.29 403.3,-191.42 413.87,-190.73 411.13,-184.29"/>
</g>
<!-- Node5 -->
<g id="node5" class="node">
<title>Node5</title>
<g id="a_node5"><a xlink:href="../../d4/d0a/solid__mechanics__application_8h.html" target="_top" xlink:title=" ">
<polygon fill="white" stroke="#666666" points="910,-140 698,-140 698,-99 910,-99 910,-140"/>
<text text-anchor="start" x="706" y="-128" font-family="Helvetica,sans-Serif" font-size="10.00">/software/kratos/doxygen</text>
<text text-anchor="start" x="706" y="-117" font-family="Helvetica,sans-Serif" font-size="10.00">/applications/SolidMechanicsApplication</text>
<text text-anchor="middle" x="804" y="-106" font-family="Helvetica,sans-Serif" font-size="10.00">/solid_mechanics_application.h</text>
</a>
</g>
</g>
<!-- Node2&#45;&gt;Node5 -->
<g id="edge4" class="edge">
<title>Node2&#45;&gt;Node5</title>
<path fill="none" stroke="#63b8ff" d="M445.59,-189.49C449.43,-188.62 453.25,-187.79 457,-187 559.13,-165.6 586.87,-172.4 689,-151 703.45,-147.97 718.81,-144.25 733.43,-140.47"/>
<polygon fill="#63b8ff" stroke="#63b8ff" points="445.12,-186 436.17,-191.68 446.7,-192.82 445.12,-186"/>
</g>
<!-- Node6 -->
<g id="node6" class="node">
<title>Node6</title>
<g id="a_node6"><a xlink:href="../../dc/d5a/_solid_mechanics_application_2custom__elements_2shell__elements_2shell__thick__element__3_d4_n_8cpp.html" target="_top" xlink:title=" ">
<polygon fill="white" stroke="#666666" points="564,-52 352,-52 352,0 564,0 564,-52"/>
<text text-anchor="start" x="360" y="-40" font-family="Helvetica,sans-Serif" font-size="10.00">/software/kratos/doxygen</text>
<text text-anchor="start" x="360" y="-29" font-family="Helvetica,sans-Serif" font-size="10.00">/applications/SolidMechanicsApplication</text>
<text text-anchor="start" x="360" y="-18" font-family="Helvetica,sans-Serif" font-size="10.00">/custom_elements/shell_elements</text>
<text text-anchor="middle" x="458" y="-7" font-family="Helvetica,sans-Serif" font-size="10.00">/shell_thick_element_3D4N.cpp</text>
</a>
</g>
</g>
<!-- Node5&#45;&gt;Node6 -->
<g id="edge5" class="edge">
<title>Node5&#45;&gt;Node6</title>
<path fill="none" stroke="#63b8ff" d="M717.89,-95.65C708.14,-93.07 698.36,-90.48 689,-88 644.79,-76.3 595.82,-63.36 554.38,-52.43"/>
<polygon fill="#63b8ff" stroke="#63b8ff" points="716.82,-98.99 727.38,-98.17 718.61,-92.22 716.82,-98.99"/>
</g>
<!-- Node7 -->
<g id="node7" class="node">
<title>Node7</title>
<g id="a_node7"><a xlink:href="../../da/d5c/_solid_mechanics_application_2custom__elements_2shell__elements_2shell__thin__element__3_d3_n_8cpp.html" target="_top" xlink:title=" ">
<polygon fill="white" stroke="#666666" points="794,-52 582,-52 582,0 794,0 794,-52"/>
<text text-anchor="start" x="590" y="-40" font-family="Helvetica,sans-Serif" font-size="10.00">/software/kratos/doxygen</text>
<text text-anchor="start" x="590" y="-29" font-family="Helvetica,sans-Serif" font-size="10.00">/applications/SolidMechanicsApplication</text>
<text text-anchor="start" x="590" y="-18" font-family="Helvetica,sans-Serif" font-size="10.00">/custom_elements/shell_elements</text>
<text text-anchor="middle" x="688" y="-7" font-family="Helvetica,sans-Serif" font-size="10.00">/shell_thin_element_3D3N.cpp</text>
</a>
</g>
</g>
<!-- Node5&#45;&gt;Node7 -->
<g id="edge6" class="edge">
<title>Node5&#45;&gt;Node7</title>
<path fill="none" stroke="#63b8ff" d="M769.95,-91.64C754.23,-79.24 735.67,-64.6 720.19,-52.39"/>
<polygon fill="#63b8ff" stroke="#63b8ff" points="767.62,-94.26 777.64,-97.71 771.96,-88.77 767.62,-94.26"/>
</g>
<!-- Node8 -->
<g id="node8" class="node">
<title>Node8</title>
<g id="a_node8"><a xlink:href="../../da/d03/_solid_mechanics_application_2custom__utilities_2shell__cross__section_8cpp.html" target="_top" xlink:title=" ">
<polygon fill="white" stroke="#666666" points="1027.5,-46.5 812.5,-46.5 812.5,-5.5 1027.5,-5.5 1027.5,-46.5"/>
<text text-anchor="start" x="820.5" y="-34.5" font-family="Helvetica,sans-Serif" font-size="10.00">/software/kratos/doxygen</text>
<text text-anchor="start" x="820.5" y="-23.5" font-family="Helvetica,sans-Serif" font-size="10.00">/applications/SolidMechanicsApplication</text>
<text text-anchor="middle" x="920" y="-12.5" font-family="Helvetica,sans-Serif" font-size="10.00">/custom_utilities/shell_cross_section.cpp</text>
</a>
</g>
</g>
<!-- Node5&#45;&gt;Node8 -->
<g id="edge7" class="edge">
<title>Node5&#45;&gt;Node8</title>
<path fill="none" stroke="#63b8ff" d="M837.77,-91.86C856.02,-77.47 878.17,-60 894.88,-46.82"/>
<polygon fill="#63b8ff" stroke="#63b8ff" points="836.04,-88.77 830.36,-97.71 840.38,-94.26 836.04,-88.77"/>
</g>
<!-- Node9 -->
<g id="node9" class="node">
<title>Node9</title>
<g id="a_node9"><a xlink:href="../../d2/d54/solid__mechanics__application_8cpp.html" target="_top" xlink:title=" ">
<polygon fill="white" stroke="#666666" points="1258,-46.5 1046,-46.5 1046,-5.5 1258,-5.5 1258,-46.5"/>
<text text-anchor="start" x="1054" y="-34.5" font-family="Helvetica,sans-Serif" font-size="10.00">/software/kratos/doxygen</text>
<text text-anchor="start" x="1054" y="-23.5" font-family="Helvetica,sans-Serif" font-size="10.00">/applications/SolidMechanicsApplication</text>
<text text-anchor="middle" x="1152" y="-12.5" font-family="Helvetica,sans-Serif" font-size="10.00">/solid_mechanics_application.cpp</text>
</a>
</g>
</g>
<!-- Node5&#45;&gt;Node9 -->
<g id="edge8" class="edge">
<title>Node5&#45;&gt;Node9</title>
<path fill="none" stroke="#63b8ff" d="M890.11,-95.63C899.85,-93.05 909.64,-90.47 919,-88 971.16,-74.26 1029.92,-58.87 1075.38,-46.99"/>
<polygon fill="#63b8ff" stroke="#63b8ff" points="889.39,-92.2 880.61,-98.14 891.18,-98.97 889.39,-92.2"/>
</g>
<!-- Node11&#45;&gt;Node4 -->
<g id="edge12" class="edge">
<title>Node11&#45;&gt;Node4</title>
<path fill="none" stroke="#63b8ff" d="M930.16,-189.67C925.72,-188.75 921.32,-187.85 917,-187 816.34,-167.18 789.47,-171.76 689,-151 681.59,-149.47 673.94,-147.77 666.27,-145.99"/>
<polygon fill="#63b8ff" stroke="#63b8ff" points="929.25,-193.06 939.76,-191.72 930.71,-186.21 929.25,-193.06"/>
</g>
<!-- Node11&#45;&gt;Node5 -->
<g id="edge13" class="edge">
<title>Node11&#45;&gt;Node5</title>
<path fill="none" stroke="#63b8ff" d="M971.83,-187.77C933.53,-172.42 887.83,-154.1 853.8,-140.46"/>
<polygon fill="#63b8ff" stroke="#63b8ff" points="970.43,-190.98 981.01,-191.45 973.03,-184.48 970.43,-190.98"/>
</g>
<!-- Node12 -->
<g id="node12" class="node">
<title>Node12</title>
<g id="a_node12"><a xlink:href="../../df/d57/hyperelastic__plastic__thermal___j2__plane__strain__2_d__law_8cpp.html" target="_top" xlink:title=" ">
<polygon fill="white" stroke="#666666" points="1396,-145.5 1158,-145.5 1158,-93.5 1396,-93.5 1396,-145.5"/>
<text text-anchor="start" x="1166" y="-133.5" font-family="Helvetica,sans-Serif" font-size="10.00">/software/kratos/doxygen</text>
<text text-anchor="start" x="1166" y="-122.5" font-family="Helvetica,sans-Serif" font-size="10.00">/applications/SolidMechanicsApplication</text>
<text text-anchor="start" x="1166" y="-111.5" font-family="Helvetica,sans-Serif" font-size="10.00">/custom_constitutive/hyperelastic</text>
<text text-anchor="middle" x="1277" y="-100.5" font-family="Helvetica,sans-Serif" font-size="10.00">_plastic_thermal_J2_plane_strain_2D_law.cpp</text>
</a>
</g>
</g>
<!-- Node11&#45;&gt;Node12 -->
<g id="edge11" class="edge">
<title>Node11&#45;&gt;Node12</title>
<path fill="none" stroke="#63b8ff" d="M1117.23,-187.59C1148.96,-174.27 1185.93,-158.74 1216.31,-145.98"/>
<polygon fill="#63b8ff" stroke="#63b8ff" points="1115.95,-184.33 1108.09,-191.43 1118.66,-190.78 1115.95,-184.33"/>
</g>
<!-- Node13&#45;&gt;Node4 -->
<g id="edge16" class="edge">
<title>Node13&#45;&gt;Node4</title>
<path fill="none" stroke="#63b8ff" d="M571.13,-175.14C570.92,-165.2 570.71,-154.91 570.53,-145.98"/>
<polygon fill="#63b8ff" stroke="#63b8ff" points="567.62,-175.1 571.33,-185.03 574.62,-174.96 567.62,-175.1"/>
</g>
<!-- Node13&#45;&gt;Node5 -->
<g id="edge17" class="edge">
<title>Node13&#45;&gt;Node5</title>
<path fill="none" stroke="#63b8ff" d="M656.34,-182.24C689.96,-168.18 727.42,-152.52 756.19,-140.49"/>
<polygon fill="#63b8ff" stroke="#63b8ff" points="655.32,-178.87 647.44,-185.96 658.02,-185.33 655.32,-178.87"/>
</g>
<!-- Node14 -->
<g id="node14" class="node">
<title>Node14</title>
<g id="a_node14"><a xlink:href="../../d4/d31/hyperelastic__plastic__thermal__baker__johnson__cook__plane__strain__2_d__law_8cpp.html" target="_top" xlink:title=" ">
<polygon fill="white" stroke="#666666" points="442,-151 230,-151 230,-88 442,-88 442,-151"/>
<text text-anchor="start" x="238" y="-139" font-family="Helvetica,sans-Serif" font-size="10.00">/software/kratos/doxygen</text>
<text text-anchor="start" x="238" y="-128" font-family="Helvetica,sans-Serif" font-size="10.00">/applications/SolidMechanicsApplication</text>
<text text-anchor="start" x="238" y="-117" font-family="Helvetica,sans-Serif" font-size="10.00">/custom_constitutive/hyperelastic</text>
<text text-anchor="start" x="238" y="-106" font-family="Helvetica,sans-Serif" font-size="10.00">_plastic_thermal_baker_johnson_cook</text>
<text text-anchor="middle" x="336" y="-95" font-family="Helvetica,sans-Serif" font-size="10.00">_plane_strain_2D_law.cpp</text>
</a>
</g>
</g>
<!-- Node13&#45;&gt;Node14 -->
<g id="edge15" class="edge">
<title>Node13&#45;&gt;Node14</title>
<path fill="none" stroke="#63b8ff" d="M486.31,-182.28C461.8,-172.2 435.26,-161.3 411.41,-151.5"/>
<polygon fill="#63b8ff" stroke="#63b8ff" points="484.7,-185.4 495.28,-185.97 487.36,-178.93 484.7,-185.4"/>
</g>
<!-- Node15&#45;&gt;Node4 -->
<g id="edge20" class="edge">
<title>Node15&#45;&gt;Node4</title>
<path fill="none" stroke="#63b8ff" d="M717.53,-182.18C688.86,-170.2 657.4,-157.04 630.93,-145.98"/>
<polygon fill="#63b8ff" stroke="#63b8ff" points="715.98,-185.33 726.56,-185.96 718.68,-178.87 715.98,-185.33"/>
</g>
<!-- Node15&#45;&gt;Node5 -->
<g id="edge21" class="edge">
<title>Node15&#45;&gt;Node5</title>
<path fill="none" stroke="#63b8ff" d="M802.87,-175.22C803.12,-163.15 803.38,-150.55 803.59,-140.49"/>
<polygon fill="#63b8ff" stroke="#63b8ff" points="799.38,-174.96 802.67,-185.03 806.38,-175.1 799.38,-174.96"/>
</g>
<!-- Node16 -->
<g id="node16" class="node">
<title>Node16</title>
<g id="a_node16"><a xlink:href="../../d3/dff/hyperelastic__plastic__thermal__johnson__cook__plane__strain__2_d__law_8cpp.html" target="_top" xlink:title=" ">
<polygon fill="white" stroke="#666666" points="1140,-151 928,-151 928,-88 1140,-88 1140,-151"/>
<text text-anchor="start" x="936" y="-139" font-family="Helvetica,sans-Serif" font-size="10.00">/software/kratos/doxygen</text>
<text text-anchor="start" x="936" y="-128" font-family="Helvetica,sans-Serif" font-size="10.00">/applications/SolidMechanicsApplication</text>
<text text-anchor="start" x="936" y="-117" font-family="Helvetica,sans-Serif" font-size="10.00">/custom_constitutive/hyperelastic</text>
<text text-anchor="start" x="936" y="-106" font-family="Helvetica,sans-Serif" font-size="10.00">_plastic_thermal_johnson_cook_plane</text>
<text text-anchor="middle" x="1034" y="-95" font-family="Helvetica,sans-Serif" font-size="10.00">_strain_2D_law.cpp</text>
</a>
</g>
</g>
<!-- Node15&#45;&gt;Node16 -->
<g id="edge19" class="edge">
<title>Node15&#45;&gt;Node16</title>
<path fill="none" stroke="#63b8ff" d="M886.56,-182.14C910.57,-172.11 936.52,-161.26 959.86,-151.5"/>
<polygon fill="#63b8ff" stroke="#63b8ff" points="885.32,-178.87 877.44,-185.96 888.02,-185.33 885.32,-178.87"/>
</g>
</g>
</svg>
        <g id="navigator" transform="translate(0 0)" fill="#404254">
                <rect fill="#f2f5e9" fill-opacity="0.5" stroke="#606060" stroke-width=".5" x="0" y="0" width="60" height="60"/>
                <use id="zoomplus" xlink:href="#zoomPlus" x="17" y="9" onmousedown="handleZoom(evt,'in')"/>
                <use id="zoomminus" xlink:href="#zoomMin" x="42" y="9" onmousedown="handleZoom(evt,'out')"/>
                <use id="reset" xlink:href="#resetDef" x="30" y="36" onmousedown="handleReset()"/>
                <g id="arrowUp" xlink:href="#dirArrow" transform="translate(30 24)" onmousedown="handlePan(0,-1)">
                  <use xlink:href="#rim" fill="#404040">
                        <set attributeName="fill" to="#808080" begin="arrowUp.mouseover" end="arrowUp.mouseout"/>
                  </use>
                  <path fill="none" stroke="white" stroke-width="1.5" d="M0,-3.0v7 M-2.5,-0.5L0,-3.0L2.5,-0.5"/>
                </g>
                <g id="arrowRight" xlink:href="#dirArrow" transform="rotate(90) translate(36 -43)" onmousedown="handlePan(1,0)">
                  <use xlink:href="#rim" fill="#404040">
                        <set attributeName="fill" to="#808080" begin="arrowRight.mouseover" end="arrowRight.mouseout"/>
                  </use>
                  <path fill="none" stroke="white" stroke-width="1.5" d="M0,-3.0v7 M-2.5,-0.5L0,-3.0L2.5,-0.5"/>
                </g>
                <g id="arrowDown" xlink:href="#dirArrow" transform="rotate(180) translate(-30 -48)" onmousedown="handlePan(0,1)">
                  <use xlink:href="#rim" fill="#404040">
                        <set attributeName="fill" to="#808080" begin="arrowDown.mouseover" end="arrowDown.mouseout"/>
                  </use>
                  <path fill="none" stroke="white" stroke-width="1.5" d="M0,-3.0v7 M-2.5,-0.5L0,-3.0L2.5,-0.5"/>
                </g>
                <g id="arrowLeft" xlink:href="#dirArrow" transform="rotate(270) translate(-36 17)" onmousedown="handlePan(-1,0)">
                  <use xlink:href="#rim" fill="#404040">
                        <set attributeName="fill" to="#808080" begin="arrowLeft.mouseover" end="arrowLeft.mouseout"/>
                  </use>
                  <path fill="none" stroke="white" stroke-width="1.5" d="M0,-3.0v7 M-2.5,-0.5L0,-3.0L2.5,-0.5"/>
                </g>
        </g>
        <svg viewBox="0 0 15 15" width="100%" height="30px" preserveAspectRatio="xMaxYMin meet">
         <g id="arrow_out" transform="scale(0.3 0.3)">
          <a xlink:href="hyperelastic__plastic__plane__strain__2_d__law_8hpp__dep__incl_org.svg" target="_base">
           <rect id="button" ry="5" rx="5" y="6" x="6" height="38" width="38"
                fill="#f2f5e9" fill-opacity="0.5" stroke="#606060" stroke-width="1.0"/>
           <path id="arrow"
             d="M 11.500037,31.436501 C 11.940474,20.09759 22.043105,11.32322 32.158766,21.979434 L 37.068811,17.246167 C 37.068811,17.246167 37.088388,32 37.088388,32 L 22.160133,31.978069 C 22.160133,31.978069 26.997745,27.140456 26.997745,27.140456 C 18.528582,18.264221 13.291696,25.230495 11.500037,31.436501 z"
             style="fill:#404040;"/>
          </a>
         </g>
        </svg>
</svg>
