<?xml version="1.0" encoding="UTF-8" standalone="no"?>
<!DOCTYPE svg PUBLIC "-//W3C//DTD SVG 1.1//EN"
 "http://www.w3.org/Graphics/SVG/1.1/DTD/svg11.dtd">
<!-- Generated by graphviz version 2.43.0 (0)
 -->
<!-- Title: /home/runner/work/Documentation/Documentation/master/kratos/constraints/slip_constraint.h Pages: 1 -->
<svg width="3245pt" height="1056pt"
 viewBox="0.00 0.00 3244.86 1056.00" xmlns="http://www.w3.org/2000/svg" xmlns:xlink="http://www.w3.org/1999/xlink">
<g id="graph0" class="graph" transform="scale(1 1) rotate(0) translate(4 1052)">
<title>/home/runner/work/Documentation/Documentation/master/kratos/constraints/slip_constraint.h</title>
<!-- Node1 -->
<g id="node1" class="node">
<title>Node1</title>
<g id="a_node1"><a xlink:title=" ">
<polygon fill="#bfbfbf" stroke="black" points="2094.5,-1006.5 2094.5,-1047.5 2281.5,-1047.5 2281.5,-1006.5 2094.5,-1006.5"/>
<text text-anchor="start" x="2102.5" y="-1035.5" font-family="Helvetica,sans-Serif" font-size="10.00">/home/runner/work/Documentation</text>
<text text-anchor="start" x="2102.5" y="-1024.5" font-family="Helvetica,sans-Serif" font-size="10.00">/Documentation/master/kratos</text>
<text text-anchor="middle" x="2188" y="-1013.5" font-family="Helvetica,sans-Serif" font-size="10.00">/constraints/slip_constraint.h</text>
</a>
</g>
</g>
<!-- Node2 -->
<g id="node2" class="node">
<title>Node2</title>
<g id="a_node2"><a xlink:href="../../df/d67/define_8h.html" target="_top" xlink:title=" ">
<polygon fill="none" stroke="black" points="1310.5,-196 1310.5,-215 1409.5,-215 1409.5,-196 1310.5,-196"/>
<text text-anchor="middle" x="1360" y="-203" font-family="Helvetica,sans-Serif" font-size="10.00">includes/define.h</text>
</a>
</g>
</g>
<!-- Node1&#45;&gt;Node2 -->
<g id="edge1" class="edge">
<title>Node1&#45;&gt;Node2</title>
<path fill="none" stroke="midnightblue" d="M2212.17,-1006.4C2239.43,-981.94 2280,-937.33 2280,-888.5 2280,-888.5 2280,-888.5 2280,-713 2280,-509.02 2091.67,-531.45 1906,-447 1843.59,-418.61 1821.34,-431.75 1756,-411 1679.39,-386.67 1649.83,-395.37 1588,-344 1552.81,-314.77 1569.54,-284.52 1533,-257 1522.53,-249.11 1451.63,-229.91 1403.91,-217.59"/>
<polygon fill="midnightblue" stroke="midnightblue" points="1404.66,-214.17 1394.11,-215.07 1402.92,-220.95 1404.66,-214.17"/>
</g>
<!-- Node16 -->
<g id="node16" class="node">
<title>Node16</title>
<g id="a_node16"><a xlink:href="../../d0/dfe/linear__master__slave__constraint_8h.html" target="_top" xlink:title=" ">
<polygon fill="none" stroke="black" points="2055.5,-939.5 2055.5,-969.5 2206.5,-969.5 2206.5,-939.5 2055.5,-939.5"/>
<text text-anchor="start" x="2063.5" y="-957.5" font-family="Helvetica,sans-Serif" font-size="10.00">constraints/linear</text>
<text text-anchor="middle" x="2131" y="-946.5" font-family="Helvetica,sans-Serif" font-size="10.00">_master_slave_constraint.h</text>
</a>
</g>
</g>
<!-- Node1&#45;&gt;Node16 -->
<g id="edge24" class="edge">
<title>Node1&#45;&gt;Node16</title>
<path fill="none" stroke="midnightblue" d="M2172.12,-1006.36C2164.96,-997.5 2156.46,-987 2149.06,-977.84"/>
<polygon fill="midnightblue" stroke="midnightblue" points="2151.64,-975.47 2142.64,-969.89 2146.2,-979.87 2151.64,-975.47"/>
</g>
<!-- Node3 -->
<g id="node3" class="node">
<title>Node3</title>
<g id="a_node3"><a xlink:title=" ">
<polygon fill="none" stroke="#bfbfbf" points="1300.5,-73 1300.5,-92 1365.5,-92 1365.5,-73 1300.5,-73"/>
<text text-anchor="middle" x="1333" y="-80" font-family="Helvetica,sans-Serif" font-size="10.00">stdexcept</text>
</a>
</g>
</g>
<!-- Node2&#45;&gt;Node3 -->
<g id="edge2" class="edge">
<title>Node2&#45;&gt;Node3</title>
<path fill="none" stroke="midnightblue" d="M1355.42,-195.84C1350.46,-186 1342.74,-169.31 1339,-154 1334.82,-136.86 1333.44,-116.77 1333.03,-102.42"/>
<polygon fill="midnightblue" stroke="midnightblue" points="1336.53,-102.27 1332.88,-92.32 1329.53,-102.37 1336.53,-102.27"/>
</g>
<!-- Node4 -->
<g id="node4" class="node">
<title>Node4</title>
<g id="a_node4"><a xlink:title=" ">
<polygon fill="none" stroke="#bfbfbf" points="2375,-73 2375,-92 2431,-92 2431,-73 2375,-73"/>
<text text-anchor="middle" x="2403" y="-80" font-family="Helvetica,sans-Serif" font-size="10.00">sstream</text>
</a>
</g>
</g>
<!-- Node2&#45;&gt;Node4 -->
<g id="edge3" class="edge">
<title>Node2&#45;&gt;Node4</title>
<path fill="none" stroke="midnightblue" d="M1391.06,-195.98C1400.02,-193.76 1409.85,-191.56 1419,-190 1833.65,-119.18 1950.02,-187.7 2361,-98 2364.5,-97.24 2368.11,-96.27 2371.67,-95.21"/>
<polygon fill="midnightblue" stroke="midnightblue" points="2373.05,-98.44 2381.48,-92.02 2370.89,-91.78 2373.05,-98.44"/>
</g>
<!-- Node5 -->
<g id="node5" class="node">
<title>Node5</title>
<g id="a_node5"><a xlink:href="../../dc/d25/kratos__export__api_8h.html" target="_top" xlink:title=" ">
<polygon fill="none" stroke="black" points="807,-0.5 807,-30.5 935,-30.5 935,-0.5 807,-0.5"/>
<text text-anchor="start" x="815" y="-18.5" font-family="Helvetica,sans-Serif" font-size="10.00">includes/kratos_export</text>
<text text-anchor="middle" x="871" y="-7.5" font-family="Helvetica,sans-Serif" font-size="10.00">_api.h</text>
</a>
</g>
</g>
<!-- Node2&#45;&gt;Node5 -->
<g id="edge4" class="edge">
<title>Node2&#45;&gt;Node5</title>
<path fill="none" stroke="midnightblue" d="M1310.4,-196.94C1175.3,-176.1 809.67,-118.09 793,-98 774.32,-75.49 803.98,-51.51 831.94,-35.43"/>
<polygon fill="midnightblue" stroke="midnightblue" points="833.82,-38.39 840.89,-30.5 830.44,-32.26 833.82,-38.39"/>
</g>
<!-- Node6 -->
<g id="node6" class="node">
<title>Node6</title>
<g id="a_node6"><a xlink:href="../../d9/dc0/smart__pointers_8h.html" target="_top" xlink:title=" ">
<polygon fill="none" stroke="black" points="2546.5,-134.5 2546.5,-153.5 2689.5,-153.5 2689.5,-134.5 2546.5,-134.5"/>
<text text-anchor="middle" x="2618" y="-141.5" font-family="Helvetica,sans-Serif" font-size="10.00">includes/smart_pointers.h</text>
</a>
</g>
</g>
<!-- Node2&#45;&gt;Node6 -->
<g id="edge5" class="edge">
<title>Node2&#45;&gt;Node6</title>
<path fill="none" stroke="midnightblue" d="M1389.79,-195.93C1399.07,-193.6 1409.39,-191.35 1419,-190 1635.48,-159.66 2302.9,-148.82 2536.35,-145.9"/>
<polygon fill="midnightblue" stroke="midnightblue" points="2536.52,-149.4 2546.48,-145.78 2536.43,-142.4 2536.52,-149.4"/>
</g>
<!-- Node11 -->
<g id="node11" class="node">
<title>Node11</title>
<g id="a_node11"><a xlink:href="../../dd/d2d/exception_8h.html" target="_top" xlink:title=" ">
<polygon fill="none" stroke="black" points="1348.5,-134.5 1348.5,-153.5 1465.5,-153.5 1465.5,-134.5 1348.5,-134.5"/>
<text text-anchor="middle" x="1407" y="-141.5" font-family="Helvetica,sans-Serif" font-size="10.00">includes/exception.h</text>
</a>
</g>
</g>
<!-- Node2&#45;&gt;Node11 -->
<g id="edge10" class="edge">
<title>Node2&#45;&gt;Node11</title>
<path fill="none" stroke="midnightblue" d="M1366.73,-195.98C1373.78,-187.05 1385.03,-172.81 1393.85,-161.64"/>
<polygon fill="midnightblue" stroke="midnightblue" points="1396.83,-163.53 1400.28,-153.51 1391.33,-159.19 1396.83,-163.53"/>
</g>
<!-- Node7 -->
<g id="node7" class="node">
<title>Node7</title>
<g id="a_node7"><a xlink:title=" ">
<polygon fill="none" stroke="#bfbfbf" points="1322,-6 1322,-25 1382,-25 1382,-6 1322,-6"/>
<text text-anchor="middle" x="1352" y="-13" font-family="Helvetica,sans-Serif" font-size="10.00">iostream</text>
</a>
</g>
</g>
<!-- Node6&#45;&gt;Node7 -->
<g id="edge6" class="edge">
<title>Node6&#45;&gt;Node7</title>
<path fill="none" stroke="midnightblue" d="M2578.39,-134.47C2549.45,-127.26 2509.86,-115.31 2478,-98 2458.85,-87.6 2460.36,-74.79 2440,-67 2340.76,-29.04 1577.11,-18.81 1392.21,-16.88"/>
<polygon fill="midnightblue" stroke="midnightblue" points="1392.15,-13.38 1382.11,-16.77 1392.07,-20.38 1392.15,-13.38"/>
</g>
<!-- Node8 -->
<g id="node8" class="node">
<title>Node8</title>
<g id="a_node8"><a xlink:title=" ">
<polygon fill="none" stroke="#bfbfbf" points="2819.5,-73 2819.5,-92 2864.5,-92 2864.5,-73 2819.5,-73"/>
<text text-anchor="middle" x="2842" y="-80" font-family="Helvetica,sans-Serif" font-size="10.00">utility</text>
</a>
</g>
</g>
<!-- Node6&#45;&gt;Node8 -->
<g id="edge7" class="edge">
<title>Node6&#45;&gt;Node8</title>
<path fill="none" stroke="midnightblue" d="M2650.09,-134.48C2692.56,-123.19 2767.01,-103.42 2809.62,-92.1"/>
<polygon fill="midnightblue" stroke="midnightblue" points="2810.71,-95.43 2819.48,-89.48 2808.91,-88.67 2810.71,-95.43"/>
</g>
<!-- Node9 -->
<g id="node9" class="node">
<title>Node9</title>
<g id="a_node9"><a xlink:title=" ">
<polygon fill="none" stroke="#bfbfbf" points="2487,-73 2487,-92 2545,-92 2545,-73 2487,-73"/>
<text text-anchor="middle" x="2516" y="-80" font-family="Helvetica,sans-Serif" font-size="10.00">memory</text>
</a>
</g>
</g>
<!-- Node6&#45;&gt;Node9 -->
<g id="edge8" class="edge">
<title>Node6&#45;&gt;Node9</title>
<path fill="none" stroke="midnightblue" d="M2603.39,-134.48C2586.65,-124.71 2559,-108.58 2539.28,-97.08"/>
<polygon fill="midnightblue" stroke="midnightblue" points="2540.99,-94.02 2530.59,-92.01 2537.46,-100.07 2540.99,-94.02"/>
</g>
<!-- Node10 -->
<g id="node10" class="node">
<title>Node10</title>
<g id="a_node10"><a xlink:title=" ">
<polygon fill="none" stroke="#bfbfbf" points="2601,-67.5 2601,-97.5 2725,-97.5 2725,-67.5 2601,-67.5"/>
<text text-anchor="start" x="2609" y="-85.5" font-family="Helvetica,sans-Serif" font-size="10.00">intrusive_ptr/intrusive</text>
<text text-anchor="middle" x="2663" y="-74.5" font-family="Helvetica,sans-Serif" font-size="10.00">_ptr.hpp</text>
</a>
</g>
</g>
<!-- Node6&#45;&gt;Node10 -->
<g id="edge9" class="edge">
<title>Node6&#45;&gt;Node10</title>
<path fill="none" stroke="midnightblue" d="M2624.45,-134.48C2630.14,-126.94 2638.7,-115.63 2646.31,-105.57"/>
<polygon fill="midnightblue" stroke="midnightblue" points="2649.15,-107.61 2652.39,-97.52 2643.57,-103.39 2649.15,-107.61"/>
</g>
<!-- Node11&#45;&gt;Node3 -->
<g id="edge11" class="edge">
<title>Node11&#45;&gt;Node3</title>
<path fill="none" stroke="midnightblue" d="M1396.4,-134.48C1384.75,-125.11 1365.81,-109.88 1351.67,-98.51"/>
<polygon fill="midnightblue" stroke="midnightblue" points="1353.57,-95.55 1343.58,-92.01 1349.18,-101 1353.57,-95.55"/>
</g>
<!-- Node11&#45;&gt;Node4 -->
<g id="edge14" class="edge">
<title>Node11&#45;&gt;Node4</title>
<path fill="none" stroke="midnightblue" d="M1465.61,-142.42C1645.51,-140.29 2188.09,-131.21 2361,-98 2364.7,-97.29 2368.52,-96.32 2372.28,-95.22"/>
<polygon fill="midnightblue" stroke="midnightblue" points="2373.52,-98.5 2381.96,-92.08 2371.36,-91.84 2373.52,-98.5"/>
</g>
<!-- Node11&#45;&gt;Node5 -->
<g id="edge16" class="edge">
<title>Node11&#45;&gt;Node5</title>
<path fill="none" stroke="midnightblue" d="M1406.03,-134.18C1403.72,-117.89 1396.31,-83.28 1374,-67 1340.15,-42.29 1076.75,-26.34 945.22,-19.83"/>
<polygon fill="midnightblue" stroke="midnightblue" points="945.38,-16.34 935.22,-19.34 945.03,-23.33 945.38,-16.34"/>
</g>
<!-- Node11&#45;&gt;Node7 -->
<g id="edge13" class="edge">
<title>Node11&#45;&gt;Node7</title>
<path fill="none" stroke="midnightblue" d="M1409.42,-134.09C1412.93,-119.38 1417.97,-89.43 1408,-67 1401.32,-51.98 1387.73,-39.55 1375.61,-30.78"/>
<polygon fill="midnightblue" stroke="midnightblue" points="1377.4,-27.77 1367.16,-25.05 1373.47,-33.56 1377.4,-27.77"/>
</g>
<!-- Node12 -->
<g id="node12" class="node">
<title>Node12</title>
<g id="a_node12"><a xlink:title=" ">
<polygon fill="none" stroke="#bfbfbf" points="448,-6 448,-25 492,-25 492,-6 448,-6"/>
<text text-anchor="middle" x="470" y="-13" font-family="Helvetica,sans-Serif" font-size="10.00">string</text>
</a>
</g>
</g>
<!-- Node11&#45;&gt;Node12 -->
<g id="edge12" class="edge">
<title>Node11&#45;&gt;Node12</title>
<path fill="none" stroke="midnightblue" d="M1348.31,-138.75C1195.07,-127.65 794.62,-98.59 793,-98 770.86,-89.95 771.69,-76.21 750,-67 665.35,-31.06 555.74,-20.68 502.24,-17.7"/>
<polygon fill="midnightblue" stroke="midnightblue" points="502.17,-14.19 492.01,-17.18 501.82,-21.18 502.17,-14.19"/>
</g>
<!-- Node13 -->
<g id="node13" class="node">
<title>Node13</title>
<g id="a_node13"><a xlink:title=" ">
<polygon fill="none" stroke="#bfbfbf" points="3186.5,-6 3186.5,-25 3233.5,-25 3233.5,-6 3186.5,-6"/>
<text text-anchor="middle" x="3210" y="-13" font-family="Helvetica,sans-Serif" font-size="10.00">vector</text>
</a>
</g>
</g>
<!-- Node11&#45;&gt;Node13 -->
<g id="edge15" class="edge">
<title>Node11&#45;&gt;Node13</title>
<path fill="none" stroke="midnightblue" d="M1465.62,-137.96C1615.45,-125.16 2024.65,-90.74 2366,-67 2680.93,-45.1 3062.37,-24.36 3176.31,-18.28"/>
<polygon fill="midnightblue" stroke="midnightblue" points="3176.7,-21.77 3186.49,-17.74 3176.32,-14.78 3176.7,-21.77"/>
</g>
<!-- Node14 -->
<g id="node14" class="node">
<title>Node14</title>
<g id="a_node14"><a xlink:href="../../da/da6/code__location_8h.html" target="_top" xlink:title=" ">
<polygon fill="none" stroke="black" points="802.5,-73 802.5,-92 939.5,-92 939.5,-73 802.5,-73"/>
<text text-anchor="middle" x="871" y="-80" font-family="Helvetica,sans-Serif" font-size="10.00">includes/code_location.h</text>
</a>
</g>
</g>
<!-- Node11&#45;&gt;Node14 -->
<g id="edge17" class="edge">
<title>Node11&#45;&gt;Node14</title>
<path fill="none" stroke="midnightblue" d="M1348.36,-136.49C1251.65,-125.76 1058.63,-104.33 950,-92.27"/>
<polygon fill="midnightblue" stroke="midnightblue" points="950.08,-88.76 939.75,-91.13 949.3,-95.71 950.08,-88.76"/>
</g>
<!-- Node15 -->
<g id="node15" class="node">
<title>Node15</title>
<g id="a_node15"><a xlink:href="../../d9/d06/stl__vector__io_8h.html" target="_top" xlink:title=" ">
<polygon fill="none" stroke="black" points="2997,-73 2997,-92 3125,-92 3125,-73 2997,-73"/>
<text text-anchor="middle" x="3061" y="-80" font-family="Helvetica,sans-Serif" font-size="10.00">utilities/stl_vector_io.h</text>
</a>
</g>
</g>
<!-- Node11&#45;&gt;Node15 -->
<g id="edge21" class="edge">
<title>Node11&#45;&gt;Node15</title>
<path fill="none" stroke="midnightblue" d="M1465.74,-142.18C1664.05,-139.22 2326.96,-127.58 2874,-98 2910.98,-96 2952.01,-92.92 2986.2,-90.1"/>
<polygon fill="midnightblue" stroke="midnightblue" points="2986.9,-93.56 2996.57,-89.24 2986.32,-86.58 2986.9,-93.56"/>
</g>
<!-- Node14&#45;&gt;Node5 -->
<g id="edge20" class="edge">
<title>Node14&#45;&gt;Node5</title>
<path fill="none" stroke="midnightblue" d="M871,-72.73C871,-64.54 871,-51.92 871,-40.71"/>
<polygon fill="midnightblue" stroke="midnightblue" points="874.5,-40.59 871,-30.59 867.5,-40.59 874.5,-40.59"/>
</g>
<!-- Node14&#45;&gt;Node7 -->
<g id="edge19" class="edge">
<title>Node14&#45;&gt;Node7</title>
<path fill="none" stroke="midnightblue" d="M917.47,-72.99C929.36,-70.92 942.14,-68.79 954,-67 1084.63,-47.31 1240.17,-29.08 1312,-20.95"/>
<polygon fill="midnightblue" stroke="midnightblue" points="1312.43,-24.42 1321.98,-19.82 1311.65,-17.47 1312.43,-24.42"/>
</g>
<!-- Node14&#45;&gt;Node12 -->
<g id="edge18" class="edge">
<title>Node14&#45;&gt;Node12</title>
<path fill="none" stroke="midnightblue" d="M822.74,-72.94C811.36,-70.96 799.25,-68.88 788,-67 683.66,-49.6 559.83,-30.33 502.33,-21.46"/>
<polygon fill="midnightblue" stroke="midnightblue" points="502.8,-18 492.38,-19.93 501.73,-24.91 502.8,-18"/>
</g>
<!-- Node15&#45;&gt;Node7 -->
<g id="edge22" class="edge">
<title>Node15&#45;&gt;Node7</title>
<path fill="none" stroke="midnightblue" d="M3021.49,-72.94C3009.22,-70.61 2995.6,-68.36 2983,-67 2660.67,-32.26 1611,-19.27 1392.19,-16.91"/>
<polygon fill="midnightblue" stroke="midnightblue" points="1392.15,-13.41 1382.12,-16.8 1392.08,-20.41 1392.15,-13.41"/>
</g>
<!-- Node15&#45;&gt;Node13 -->
<g id="edge23" class="edge">
<title>Node15&#45;&gt;Node13</title>
<path fill="none" stroke="midnightblue" d="M3080.79,-72.87C3106.39,-61.7 3151.21,-42.15 3180.75,-29.26"/>
<polygon fill="midnightblue" stroke="midnightblue" points="3182.37,-32.37 3190.13,-25.17 3179.57,-25.96 3182.37,-32.37"/>
</g>
<!-- Node16&#45;&gt;Node2 -->
<g id="edge25" class="edge">
<title>Node16&#45;&gt;Node2</title>
<path fill="none" stroke="midnightblue" d="M2123.1,-939.1C2089.85,-879.6 1955.35,-649.72 1790,-514 1738.53,-471.76 1715.72,-476.45 1656,-447 1623.2,-430.82 1612.12,-431.75 1582,-411 1499.67,-354.27 1492.16,-324.06 1418,-257 1404.77,-245.04 1389.56,-231.81 1378.03,-221.89"/>
<polygon fill="midnightblue" stroke="midnightblue" points="1380.24,-219.18 1370.37,-215.32 1375.68,-224.49 1380.24,-219.18"/>
</g>
<!-- Node17 -->
<g id="node17" class="node">
<title>Node17</title>
<g id="a_node17"><a xlink:href="../../da/da4/master__slave__constraint_8h.html" target="_top" xlink:title=" ">
<polygon fill="none" stroke="black" points="1168,-872.5 1168,-902.5 1294,-902.5 1294,-872.5 1168,-872.5"/>
<text text-anchor="start" x="1176" y="-890.5" font-family="Helvetica,sans-Serif" font-size="10.00">includes/master_slave</text>
<text text-anchor="middle" x="1231" y="-879.5" font-family="Helvetica,sans-Serif" font-size="10.00">_constraint.h</text>
</a>
</g>
</g>
<!-- Node16&#45;&gt;Node17 -->
<g id="edge26" class="edge">
<title>Node16&#45;&gt;Node17</title>
<path fill="none" stroke="midnightblue" d="M2055.43,-948.04C1885,-935.73 1472.52,-905.94 1304.29,-893.79"/>
<polygon fill="midnightblue" stroke="midnightblue" points="1304.51,-890.3 1294.29,-893.07 1304.01,-897.28 1304.51,-890.3"/>
</g>
<!-- Node17&#45;&gt;Node2 -->
<g id="edge27" class="edge">
<title>Node17&#45;&gt;Node2</title>
<path fill="none" stroke="midnightblue" d="M1294.1,-882.02C1384.83,-873.35 1555.16,-848.61 1682,-780 1716.14,-761.54 1730.66,-758.2 1749,-724 1793.34,-641.34 1824.14,-590.6 1770,-514 1690.81,-401.97 1583.42,-499.99 1479,-411 1419.66,-360.43 1435.93,-323.36 1395,-257 1387.96,-245.58 1379.38,-233.19 1372.48,-223.54"/>
<polygon fill="midnightblue" stroke="midnightblue" points="1375.19,-221.3 1366.49,-215.25 1369.51,-225.4 1375.19,-221.3"/>
</g>
<!-- Node18 -->
<g id="node18" class="node">
<title>Node18</title>
<g id="a_node18"><a xlink:href="../../d1/d4e/dof_8h.html" target="_top" xlink:title=" ">
<polygon fill="none" stroke="black" points="1011,-760.5 1011,-779.5 1095,-779.5 1095,-760.5 1011,-760.5"/>
<text text-anchor="middle" x="1053" y="-767.5" font-family="Helvetica,sans-Serif" font-size="10.00">includes/dof.h</text>
</a>
</g>
</g>
<!-- Node17&#45;&gt;Node18 -->
<g id="edge28" class="edge">
<title>Node17&#45;&gt;Node18</title>
<path fill="none" stroke="midnightblue" d="M1209.17,-872.34C1175.06,-850.2 1109.47,-807.64 1075.16,-785.38"/>
<polygon fill="midnightblue" stroke="midnightblue" points="1076.65,-782.18 1066.36,-779.67 1072.84,-788.05 1076.65,-782.18"/>
</g>
<!-- Node21 -->
<g id="node21" class="node">
<title>Node21</title>
<g id="a_node21"><a xlink:href="../../da/d89/variable_8h.html" target="_top" xlink:title=" ">
<polygon fill="none" stroke="black" points="1054.5,-514.5 1054.5,-533.5 1173.5,-533.5 1173.5,-514.5 1054.5,-514.5"/>
<text text-anchor="middle" x="1114" y="-521.5" font-family="Helvetica,sans-Serif" font-size="10.00">containers/variable.h</text>
</a>
</g>
</g>
<!-- Node17&#45;&gt;Node21 -->
<g id="edge146" class="edge">
<title>Node17&#45;&gt;Node21</title>
<path fill="none" stroke="midnightblue" d="M1233.87,-872.08C1239.61,-838.96 1249,-756.26 1212,-704 1190.4,-673.5 1158.34,-697.97 1136,-668 1108.44,-631.02 1109.1,-573.52 1111.67,-543.96"/>
<polygon fill="midnightblue" stroke="midnightblue" points="1115.18,-544.09 1112.74,-533.78 1108.21,-543.36 1115.18,-544.09"/>
</g>
<!-- Node31 -->
<g id="node25" class="node">
<title>Node31</title>
<g id="a_node25"><a xlink:href="../../d9/da0/flags_8h.html" target="_top" xlink:title=" ">
<polygon fill="none" stroke="black" points="366.5,-324.5 366.5,-343.5 469.5,-343.5 469.5,-324.5 366.5,-324.5"/>
<text text-anchor="middle" x="418" y="-331.5" font-family="Helvetica,sans-Serif" font-size="10.00">containers/flags.h</text>
</a>
</g>
</g>
<!-- Node17&#45;&gt;Node31 -->
<g id="edge145" class="edge">
<title>Node17&#45;&gt;Node31</title>
<path fill="none" stroke="midnightblue" d="M1167.84,-883.92C916.37,-873.24 0,-830.26 0,-771 0,-771 0,-771 0,-651.5 0,-466.35 263.88,-375.62 372.31,-346.15"/>
<polygon fill="midnightblue" stroke="midnightblue" points="373.24,-349.52 382,-343.56 371.44,-342.76 373.24,-349.52"/>
</g>
<!-- Node75 -->
<g id="node41" class="node">
<title>Node75</title>
<g id="a_node41"><a xlink:href="../../d1/d77/node_8h.html" target="_top" xlink:title=" ">
<polygon fill="none" stroke="black" points="1396.5,-816.5 1396.5,-835.5 1489.5,-835.5 1489.5,-816.5 1396.5,-816.5"/>
<text text-anchor="middle" x="1443" y="-823.5" font-family="Helvetica,sans-Serif" font-size="10.00">includes/node.h</text>
</a>
</g>
</g>
<!-- Node17&#45;&gt;Node75 -->
<g id="edge104" class="edge">
<title>Node17&#45;&gt;Node75</title>
<path fill="none" stroke="midnightblue" d="M1280.97,-872.47C1318.19,-862.03 1368.33,-847.96 1402.93,-838.25"/>
<polygon fill="midnightblue" stroke="midnightblue" points="1404.01,-841.58 1412.69,-835.51 1402.12,-834.84 1404.01,-841.58"/>
</g>
<!-- Node85 -->
<g id="node48" class="node">
<title>Node85</title>
<g id="a_node48"><a xlink:href="../../d0/dac/kratos__flags_8h.html" target="_top" xlink:title=" ">
<polygon fill="none" stroke="black" points="289,-643 289,-662 417,-662 417,-643 289,-643"/>
<text text-anchor="middle" x="353" y="-650" font-family="Helvetica,sans-Serif" font-size="10.00">includes/kratos_flags.h</text>
</a>
</g>
</g>
<!-- Node17&#45;&gt;Node85 -->
<g id="edge141" class="edge">
<title>Node17&#45;&gt;Node85</title>
<path fill="none" stroke="midnightblue" d="M1167.94,-877.55C1110.08,-868.8 1022.21,-854.17 947,-836 730.41,-783.68 476.66,-696.99 386.7,-665.45"/>
<polygon fill="midnightblue" stroke="midnightblue" points="387.63,-662.06 377.04,-662.05 385.31,-668.67 387.63,-662.06"/>
</g>
<!-- Node86 -->
<g id="node49" class="node">
<title>Node86</title>
<g id="a_node49"><a xlink:href="../../de/db8/process__info_8h.html" target="_top" xlink:title=" ">
<polygon fill="none" stroke="black" points="706.5,-704.5 706.5,-723.5 837.5,-723.5 837.5,-704.5 706.5,-704.5"/>
<text text-anchor="middle" x="772" y="-711.5" font-family="Helvetica,sans-Serif" font-size="10.00">includes/process_info.h</text>
</a>
</g>
</g>
<!-- Node17&#45;&gt;Node86 -->
<g id="edge147" class="edge">
<title>Node17&#45;&gt;Node86</title>
<path fill="none" stroke="midnightblue" d="M1167.78,-875.5C1091.88,-860.71 962.03,-830.28 860,-780 833.3,-766.84 806.32,-745.44 789.4,-730.82"/>
<polygon fill="midnightblue" stroke="midnightblue" points="791.34,-727.86 781.53,-723.87 786.71,-733.11 791.34,-727.86"/>
</g>
<!-- Node84 -->
<g id="node50" class="node">
<title>Node84</title>
<g id="a_node50"><a xlink:href="../../d9/d4c/includes_2indexed__object_8h.html" target="_top" xlink:title=" ">
<polygon fill="none" stroke="black" points="2067.5,-453 2067.5,-472 2210.5,-472 2210.5,-453 2067.5,-453"/>
<text text-anchor="middle" x="2139" y="-460" font-family="Helvetica,sans-Serif" font-size="10.00">includes/indexed_object.h</text>
</a>
</g>
</g>
<!-- Node17&#45;&gt;Node84 -->
<g id="edge155" class="edge">
<title>Node17&#45;&gt;Node84</title>
<path fill="none" stroke="midnightblue" d="M1294.07,-884.83C1465.25,-879.95 1930.01,-864.23 1993,-836 2057.82,-806.95 2075.58,-787.7 2107,-724 2147.71,-641.47 2144.1,-527.04 2140.77,-482.4"/>
<polygon fill="midnightblue" stroke="midnightblue" points="2144.23,-481.85 2139.91,-472.17 2137.26,-482.43 2144.23,-481.85"/>
</g>
<!-- Node18&#45;&gt;Node2 -->
<g id="edge33" class="edge">
<title>Node18&#45;&gt;Node2</title>
<path fill="none" stroke="midnightblue" d="M1048.59,-760.37C1026.44,-715.69 931.76,-507.91 1018,-380 1041.85,-344.62 1070.57,-366.22 1107,-344 1157.58,-313.15 1156.47,-286.23 1208,-257 1240.16,-238.76 1279.92,-225.84 1310.71,-217.64"/>
<polygon fill="midnightblue" stroke="midnightblue" points="1311.97,-220.93 1320.78,-215.04 1310.22,-214.15 1311.97,-220.93"/>
</g>
<!-- Node18&#45;&gt;Node4 -->
<g id="edge31" class="edge">
<title>Node18&#45;&gt;Node4</title>
<path fill="none" stroke="midnightblue" d="M1092.14,-760.44C1131.78,-751.68 1194.79,-737.47 1249,-724 1531.18,-653.9 1608.65,-650.6 1875,-534 1957.87,-497.72 1973.86,-477.56 2059,-447 2173.34,-405.95 2205.62,-407.27 2324,-380 2400.53,-362.37 2429.18,-383.61 2497,-344 2535.32,-321.62 2559.36,-299.32 2546,-257 2528.55,-201.73 2504.9,-196.98 2466,-154 2449.24,-135.48 2430.15,-114.08 2417.42,-99.75"/>
<polygon fill="midnightblue" stroke="midnightblue" points="2419.98,-97.37 2410.72,-92.21 2414.75,-102.02 2419.98,-97.37"/>
</g>
<!-- Node18&#45;&gt;Node7 -->
<g id="edge30" class="edge">
<title>Node18&#45;&gt;Node7</title>
<path fill="none" stroke="midnightblue" d="M1010.83,-766.61C854.18,-757.35 311.98,-721.62 258,-668 237.9,-648.04 228,-688.11 228,-335 228,-335 228,-335 228,-271.5 228,-88.13 438.21,-174.74 617,-134 761.28,-101.12 813.11,-158.85 948,-98 966.64,-89.59 963.48,-75.66 982,-67 1039.94,-39.9 1228.36,-24.58 1311.71,-18.97"/>
<polygon fill="midnightblue" stroke="midnightblue" points="1312.06,-22.46 1321.81,-18.31 1311.6,-15.47 1312.06,-22.46"/>
</g>
<!-- Node18&#45;&gt;Node12 -->
<g id="edge29" class="edge">
<title>Node18&#45;&gt;Node12</title>
<path fill="none" stroke="midnightblue" d="M1010.93,-767.96C882.28,-764.49 495.41,-751.96 373,-724 308.07,-709.17 293.87,-697.17 234,-668 148.86,-626.52 76,-619.71 76,-525 76,-525 76,-525 76,-143 76,-104.41 86.24,-88.93 118,-67 169.56,-31.41 360.6,-20.51 437.56,-17.52"/>
<polygon fill="midnightblue" stroke="midnightblue" points="437.78,-21.02 447.64,-17.15 437.52,-14.02 437.78,-21.02"/>
</g>
<!-- Node19 -->
<g id="node19" class="node">
<title>Node19</title>
<g id="a_node19"><a xlink:title=" ">
<polygon fill="none" stroke="#bfbfbf" points="1027.5,-386 1027.5,-405 1080.5,-405 1080.5,-386 1027.5,-386"/>
<text text-anchor="middle" x="1054" y="-393" font-family="Helvetica,sans-Serif" font-size="10.00">cstddef</text>
</a>
</g>
</g>
<!-- Node18&#45;&gt;Node19 -->
<g id="edge32" class="edge">
<title>Node18&#45;&gt;Node19</title>
<path fill="none" stroke="midnightblue" d="M1052.28,-760.19C1049.71,-727.56 1041.31,-610.49 1045,-514 1046.34,-479.02 1049.91,-438.31 1052.13,-415.16"/>
<polygon fill="midnightblue" stroke="midnightblue" points="1055.63,-415.33 1053.12,-405.04 1048.66,-414.65 1055.63,-415.33"/>
</g>
<!-- Node20 -->
<g id="node20" class="node">
<title>Node20</title>
<g id="a_node20"><a xlink:href="../../d1/d82/data__value__container_8h.html" target="_top" xlink:title=" ">
<polygon fill="none" stroke="black" points="773.5,-637.5 773.5,-667.5 898.5,-667.5 898.5,-637.5 773.5,-637.5"/>
<text text-anchor="start" x="781.5" y="-655.5" font-family="Helvetica,sans-Serif" font-size="10.00">containers/data_value</text>
<text text-anchor="middle" x="836" y="-644.5" font-family="Helvetica,sans-Serif" font-size="10.00">_container.h</text>
</a>
</g>
</g>
<!-- Node18&#45;&gt;Node20 -->
<g id="edge34" class="edge">
<title>Node18&#45;&gt;Node20</title>
<path fill="none" stroke="midnightblue" d="M1031.11,-760.34C1010.18,-751.83 977.92,-738.11 951,-724 921.15,-708.36 888.52,-688.03 865.67,-673.22"/>
<polygon fill="midnightblue" stroke="midnightblue" points="867.41,-670.17 857.12,-667.64 863.58,-676.03 867.41,-670.17"/>
</g>
<!-- Node48 -->
<g id="node28" class="node">
<title>Node48</title>
<g id="a_node28"><a xlink:href="../../d9/d36/array__1d_8h.html" target="_top" xlink:title=" ">
<polygon fill="none" stroke="black" points="1855,-324.5 1855,-343.5 1977,-343.5 1977,-324.5 1855,-324.5"/>
<text text-anchor="middle" x="1916" y="-331.5" font-family="Helvetica,sans-Serif" font-size="10.00">containers/array_1d.h</text>
</a>
</g>
</g>
<!-- Node18&#45;&gt;Node48 -->
<g id="edge103" class="edge">
<title>Node18&#45;&gt;Node48</title>
<path fill="none" stroke="midnightblue" d="M1090.23,-760.44C1122.84,-752.48 1171.25,-739.53 1212,-724 1294.66,-692.5 1306.44,-662.95 1391,-637 1498.32,-604.07 1545.37,-659.79 1641,-601 1681.23,-576.27 1672.72,-551.05 1702,-514 1751.39,-451.51 1757.28,-427.79 1821,-380 1839.4,-366.2 1862.71,-355.08 1881.63,-347.35"/>
<polygon fill="midnightblue" stroke="midnightblue" points="1883.06,-350.55 1891.08,-343.62 1880.49,-344.04 1883.06,-350.55"/>
</g>
<!-- Node70 -->
<g id="node35" class="node">
<title>Node70</title>
<g id="a_node35"><a xlink:href="../../db/d22/nodal__data_8h.html" target="_top" xlink:title=" ">
<polygon fill="none" stroke="black" points="1069,-704.5 1069,-723.5 1203,-723.5 1203,-704.5 1069,-704.5"/>
<text text-anchor="middle" x="1136" y="-711.5" font-family="Helvetica,sans-Serif" font-size="10.00">containers/nodal_data.h</text>
</a>
</g>
</g>
<!-- Node18&#45;&gt;Node70 -->
<g id="edge83" class="edge">
<title>Node18&#45;&gt;Node70</title>
<path fill="none" stroke="midnightblue" d="M1066.34,-760.32C1079.16,-751.98 1098.78,-739.21 1113.94,-729.35"/>
<polygon fill="midnightblue" stroke="midnightblue" points="1116.22,-732.04 1122.7,-723.65 1112.41,-726.17 1116.22,-732.04"/>
</g>
<!-- Node20&#45;&gt;Node2 -->
<g id="edge39" class="edge">
<title>Node20&#45;&gt;Node2</title>
<path fill="none" stroke="midnightblue" d="M837.35,-637.4C842.42,-592.37 864.56,-450.88 947,-380 994.74,-338.96 1033.51,-381.61 1084,-344 1120.31,-316.95 1100.23,-283.42 1137,-257 1162.81,-238.45 1243.59,-223.35 1300.46,-214.64"/>
<polygon fill="midnightblue" stroke="midnightblue" points="1301.07,-218.09 1310.43,-213.14 1300.02,-211.16 1301.07,-218.09"/>
</g>
<!-- Node20&#45;&gt;Node7 -->
<g id="edge36" class="edge">
<title>Node20&#45;&gt;Node7</title>
<path fill="none" stroke="midnightblue" d="M824,-637.18C780.53,-583.5 638.08,-390.48 719,-257 736.93,-227.42 758.11,-238.4 788,-221 809.95,-208.22 814.14,-202.92 836,-190 881.2,-163.29 890.49,-151.44 940,-134 1022.71,-104.86 1052.51,-130.4 1134,-98 1157.6,-88.62 1158.93,-77.61 1182,-67 1224.64,-47.39 1276.79,-33.22 1311.99,-24.98"/>
<polygon fill="midnightblue" stroke="midnightblue" points="1312.93,-28.35 1321.89,-22.71 1311.37,-21.53 1312.93,-28.35"/>
</g>
<!-- Node20&#45;&gt;Node11 -->
<g id="edge82" class="edge">
<title>Node20&#45;&gt;Node11</title>
<path fill="none" stroke="midnightblue" d="M833.8,-637.35C827.91,-594.52 815.78,-463.99 871,-380 976.62,-219.33 1218.97,-167.79 1338.2,-151.83"/>
<polygon fill="midnightblue" stroke="midnightblue" points="1338.83,-155.28 1348.3,-150.52 1337.93,-148.34 1338.83,-155.28"/>
</g>
<!-- Node20&#45;&gt;Node12 -->
<g id="edge35" class="edge">
<title>Node20&#45;&gt;Node12</title>
<path fill="none" stroke="midnightblue" d="M773.48,-648.36C663.39,-642.23 439.62,-626.97 366,-601 259.38,-563.4 152,-576.55 152,-463.5 152,-463.5 152,-463.5 152,-143 152,-107.58 149.31,-90.29 176,-67 214.61,-33.3 369.24,-21.53 437.42,-17.92"/>
<polygon fill="midnightblue" stroke="midnightblue" points="437.78,-21.4 447.59,-17.4 437.43,-14.41 437.78,-21.4"/>
</g>
<!-- Node20&#45;&gt;Node13 -->
<g id="edge38" class="edge">
<title>Node20&#45;&gt;Node13</title>
<path fill="none" stroke="midnightblue" d="M898.66,-647.9C1252.24,-627.46 2985.67,-525.1 3088,-478 3252.49,-402.28 3219.71,-278.44 3235,-98 3236.16,-84.27 3238.14,-80.42 3235,-67 3232.29,-55.41 3226.5,-43.42 3221.18,-34.04"/>
<polygon fill="midnightblue" stroke="midnightblue" points="3224.1,-32.1 3215.95,-25.33 3218.1,-35.7 3224.1,-32.1"/>
</g>
<!-- Node20&#45;&gt;Node19 -->
<g id="edge37" class="edge">
<title>Node20&#45;&gt;Node19</title>
<path fill="none" stroke="midnightblue" d="M844.46,-637.39C869.19,-596.42 941.64,-478.39 974,-447 989.57,-431.9 1010.37,-418.94 1026.86,-409.93"/>
<polygon fill="midnightblue" stroke="midnightblue" points="1028.79,-412.86 1035.99,-405.09 1025.52,-406.68 1028.79,-412.86"/>
</g>
<!-- Node20&#45;&gt;Node21 -->
<g id="edge40" class="edge">
<title>Node20&#45;&gt;Node21</title>
<path fill="none" stroke="midnightblue" d="M866.81,-637.48C921.13,-612.76 1033.14,-561.8 1085.65,-537.9"/>
<polygon fill="midnightblue" stroke="midnightblue" points="1087.38,-540.96 1095.03,-533.63 1084.48,-534.59 1087.38,-540.96"/>
</g>
<!-- Node62 -->
<g id="node34" class="node">
<title>Node62</title>
<g id="a_node34"><a xlink:href="../../dc/d8e/kratos__components_8h.html" target="_top" xlink:title=" ">
<polygon fill="none" stroke="red" points="446.5,-576 446.5,-595 611.5,-595 611.5,-576 446.5,-576"/>
<text text-anchor="middle" x="529" y="-583" font-family="Helvetica,sans-Serif" font-size="10.00">includes/kratos_components.h</text>
</a>
</g>
</g>
<!-- Node20&#45;&gt;Node62 -->
<g id="edge76" class="edge">
<title>Node20&#45;&gt;Node62</title>
<path fill="none" stroke="midnightblue" d="M773.13,-638.19C715.78,-626.05 632.13,-608.34 579.15,-597.12"/>
<polygon fill="midnightblue" stroke="midnightblue" points="579.82,-593.68 569.31,-595.03 578.37,-600.53 579.82,-593.68"/>
</g>
<!-- Node21&#45;&gt;Node2 -->
<g id="edge43" class="edge">
<title>Node21&#45;&gt;Node2</title>
<path fill="none" stroke="midnightblue" d="M1173.66,-517.14C1224.03,-510.82 1290.53,-498.75 1307,-478 1315.57,-467.21 1312.18,-459.77 1307,-447 1298.61,-426.32 1283.43,-430.17 1272,-411 1236.63,-351.66 1213.81,-315.21 1251,-257 1263.37,-237.64 1285.26,-225.59 1306.21,-218.15"/>
<polygon fill="midnightblue" stroke="midnightblue" points="1307.3,-221.47 1315.72,-215.04 1305.13,-214.82 1307.3,-221.47"/>
</g>
<!-- Node21&#45;&gt;Node7 -->
<g id="edge42" class="edge">
<title>Node21&#45;&gt;Node7</title>
<path fill="none" stroke="midnightblue" d="M1100.34,-514.21C1069.42,-493.11 998.2,-437.06 1018,-380 1076.1,-212.59 1131.11,-183.09 1265,-67 1282.59,-51.75 1305.45,-38.69 1323.33,-29.67"/>
<polygon fill="midnightblue" stroke="midnightblue" points="1325.24,-32.63 1332.68,-25.09 1322.16,-26.34 1325.24,-32.63"/>
</g>
<!-- Node21&#45;&gt;Node12 -->
<g id="edge41" class="edge">
<title>Node21&#45;&gt;Node12</title>
<path fill="none" stroke="midnightblue" d="M1075.21,-514.48C1008.25,-498.99 867.53,-462.93 757,-411 665.96,-368.22 646.56,-349.56 567,-288 532.17,-261.05 514.04,-260.21 494,-221 462.3,-158.98 464.95,-72.9 468.03,-35.32"/>
<polygon fill="midnightblue" stroke="midnightblue" points="471.52,-35.57 468.96,-25.29 464.55,-34.92 471.52,-35.57"/>
</g>
<!-- Node21&#45;&gt;Node15 -->
<g id="edge75" class="edge">
<title>Node21&#45;&gt;Node15</title>
<path fill="none" stroke="midnightblue" d="M1173.59,-521.87C1496.08,-515.69 3018.34,-486.13 3027,-478 3135.24,-376.32 3085.01,-165.32 3066.69,-101.91"/>
<polygon fill="midnightblue" stroke="midnightblue" points="3069.99,-100.72 3063.77,-92.14 3063.28,-102.73 3069.99,-100.72"/>
</g>
<!-- Node22 -->
<g id="node22" class="node">
<title>Node22</title>
<g id="a_node22"><a xlink:href="../../d3/dc3/variable__data_8h.html" target="_top" xlink:title=" ">
<polygon fill="none" stroke="red" points="1206,-453 1206,-472 1298,-472 1298,-453 1206,-453"/>
<text text-anchor="middle" x="1252" y="-460" font-family="Helvetica,sans-Serif" font-size="10.00">variable_data.h</text>
</a>
</g>
</g>
<!-- Node21&#45;&gt;Node22 -->
<g id="edge44" class="edge">
<title>Node21&#45;&gt;Node22</title>
<path fill="none" stroke="midnightblue" d="M1133.77,-514.48C1157.14,-504.4 1196.21,-487.55 1223,-476"/>
<polygon fill="midnightblue" stroke="midnightblue" points="1224.47,-479.18 1232.26,-472.01 1221.7,-472.75 1224.47,-479.18"/>
</g>
<!-- Node22&#45;&gt;Node2 -->
<g id="edge48" class="edge">
<title>Node22&#45;&gt;Node2</title>
<path fill="none" stroke="midnightblue" d="M1243.01,-452.81C1234.02,-443.45 1220.72,-427.65 1215,-411 1210.13,-396.82 1211.63,-258.92 1213,-257 1232.81,-229.25 1268.86,-216.59 1300.3,-210.89"/>
<polygon fill="midnightblue" stroke="midnightblue" points="1301.01,-214.32 1310.33,-209.27 1299.9,-207.41 1301.01,-214.32"/>
</g>
<!-- Node22&#45;&gt;Node7 -->
<g id="edge46" class="edge">
<title>Node22&#45;&gt;Node7</title>
<path fill="none" stroke="midnightblue" d="M1241.13,-452.8C1230.67,-443.66 1215.49,-428.24 1209,-411 1205.66,-402.13 1206.14,-265.89 1208,-257 1226.84,-166.8 1235.56,-140.61 1291,-67 1301.75,-52.72 1317.32,-39.92 1330.03,-30.78"/>
<polygon fill="midnightblue" stroke="midnightblue" points="1332.06,-33.64 1338.28,-25.07 1328.07,-27.88 1332.06,-33.64"/>
</g>
<!-- Node22&#45;&gt;Node12 -->
<g id="edge45" class="edge">
<title>Node22&#45;&gt;Node12</title>
<path fill="none" stroke="midnightblue" d="M1237.16,-452.85C1209.04,-436.74 1145.7,-401.8 1089,-380 863.82,-293.44 736.98,-395.12 570,-221 520.38,-169.26 559.54,-128.08 522,-67 513.6,-53.33 500.67,-40.75 489.8,-31.57"/>
<polygon fill="midnightblue" stroke="midnightblue" points="491.98,-28.82 482.01,-25.24 487.57,-34.26 491.98,-28.82"/>
</g>
<!-- Node22&#45;&gt;Node19 -->
<g id="edge47" class="edge">
<title>Node22&#45;&gt;Node19</title>
<path fill="none" stroke="midnightblue" d="M1224.69,-452.98C1193.31,-443.12 1140.3,-426.29 1095,-411 1092.56,-410.18 1090.04,-409.31 1087.51,-408.44"/>
<polygon fill="midnightblue" stroke="midnightblue" points="1088.4,-405.04 1077.81,-405.05 1086.09,-411.65 1088.4,-405.04"/>
</g>
<!-- Node24 -->
<g id="node23" class="node">
<title>Node24</title>
<g id="a_node23"><a xlink:href="../../dd/d5f/serializer_8h.html" target="_top" xlink:title=" ">
<polygon fill="none" stroke="red" points="1840.5,-386 1840.5,-405 1953.5,-405 1953.5,-386 1840.5,-386"/>
<text text-anchor="middle" x="1897" y="-393" font-family="Helvetica,sans-Serif" font-size="10.00">includes/serializer.h</text>
</a>
</g>
</g>
<!-- Node22&#45;&gt;Node24 -->
<g id="edge49" class="edge">
<title>Node22&#45;&gt;Node24</title>
<path fill="none" stroke="midnightblue" d="M1298.13,-456.85C1410.42,-445.54 1698.38,-416.52 1829.8,-403.27"/>
<polygon fill="midnightblue" stroke="midnightblue" points="1830.52,-406.72 1840.12,-402.23 1829.82,-399.75 1830.52,-406.72"/>
</g>
<!-- Node24&#45;&gt;Node2 -->
<g id="edge54" class="edge">
<title>Node24&#45;&gt;Node2</title>
<path fill="none" stroke="midnightblue" d="M1874.69,-385.99C1850.02,-376.41 1809.23,-360.08 1775,-344 1726.78,-321.34 1714.98,-314.92 1669,-288 1647.09,-275.17 1644.63,-266.3 1621,-257 1536.14,-223.61 1508.21,-239.89 1419,-221 1413.84,-219.91 1408.45,-218.69 1403.11,-217.44"/>
<polygon fill="midnightblue" stroke="midnightblue" points="1403.53,-213.94 1392.99,-215.01 1401.9,-220.74 1403.53,-213.94"/>
</g>
<!-- Node24&#45;&gt;Node4 -->
<g id="edge53" class="edge">
<title>Node24&#45;&gt;Node4</title>
<path fill="none" stroke="midnightblue" d="M1953.63,-386.73C2102.71,-366 2495.86,-309.54 2514,-288 2522.88,-277.46 2519.85,-269.47 2514,-257 2483.56,-192.14 2420.44,-218.86 2390,-154 2382.17,-137.32 2387.75,-116.35 2393.84,-101.63"/>
<polygon fill="midnightblue" stroke="midnightblue" points="2397.19,-102.72 2398.18,-92.17 2390.83,-99.8 2397.19,-102.72"/>
</g>
<!-- Node24&#45;&gt;Node7 -->
<g id="edge52" class="edge">
<title>Node24&#45;&gt;Node7</title>
<path fill="none" stroke="midnightblue" d="M1953.73,-388.71C2052.09,-378.5 2250.34,-357.15 2319,-344 2414.29,-325.75 2439.41,-322.73 2530,-288 2648.44,-242.59 2717.59,-263.28 2782,-154 2797.41,-127.85 2780.04,-82.6 2759,-67 2702.68,-25.24 1616.63,-17.77 1392.32,-16.67"/>
<polygon fill="midnightblue" stroke="midnightblue" points="1392.02,-13.17 1382,-16.62 1391.99,-20.17 1392.02,-13.17"/>
</g>
<!-- Node24&#45;&gt;Node12 -->
<g id="edge50" class="edge">
<title>Node24&#45;&gt;Node12</title>
<path fill="none" stroke="midnightblue" d="M1869.3,-385.9C1824.61,-372.13 1733.74,-344.61 1656,-324 1340.69,-240.4 1257.36,-237.42 942,-154 855.4,-131.09 593.47,-53.3 501.97,-26.04"/>
<polygon fill="midnightblue" stroke="midnightblue" points="502.75,-22.62 492.17,-23.12 500.75,-29.33 502.75,-22.62"/>
</g>
<!-- Node25 -->
<g id="node24" class="node">
<title>Node25</title>
<g id="a_node24"><a xlink:title=" ">
<polygon fill="none" stroke="#bfbfbf" points="1597,-324.5 1597,-343.5 1647,-343.5 1647,-324.5 1597,-324.5"/>
<text text-anchor="middle" x="1622" y="-331.5" font-family="Helvetica,sans-Serif" font-size="10.00">cstring</text>
</a>
</g>
</g>
<!-- Node24&#45;&gt;Node25 -->
<g id="edge51" class="edge">
<title>Node24&#45;&gt;Node25</title>
<path fill="none" stroke="midnightblue" d="M1857.6,-385.98C1803.97,-374.37 1708.79,-353.78 1657.35,-342.65"/>
<polygon fill="midnightblue" stroke="midnightblue" points="1657.88,-339.18 1647.37,-340.49 1656.4,-346.02 1657.88,-339.18"/>
</g>
<!-- Node24&#45;&gt;Node31 -->
<g id="edge55" class="edge">
<title>Node24&#45;&gt;Node31</title>
<path fill="none" stroke="midnightblue" d="M1840.38,-392.22C1607.15,-382.84 721.73,-347.22 479.55,-337.48"/>
<polygon fill="midnightblue" stroke="midnightblue" points="479.65,-333.98 469.51,-337.07 479.37,-340.97 479.65,-333.98"/>
</g>
<!-- Node32 -->
<g id="node26" class="node">
<title>Node32</title>
<g id="a_node26"><a xlink:href="../../d9/d3e/ublas__interface_8h.html" target="_top" xlink:title=" ">
<polygon fill="none" stroke="red" points="2361,-263 2361,-282 2505,-282 2505,-263 2361,-263"/>
<text text-anchor="middle" x="2433" y="-270" font-family="Helvetica,sans-Serif" font-size="10.00">includes/ublas_interface.h</text>
</a>
</g>
</g>
<!-- Node24&#45;&gt;Node32 -->
<g id="edge59" class="edge">
<title>Node24&#45;&gt;Node32</title>
<path fill="none" stroke="midnightblue" d="M1934.69,-385.99C2029.82,-364.52 2279.54,-308.14 2384.95,-284.35"/>
<polygon fill="midnightblue" stroke="midnightblue" points="2386.01,-287.7 2394.99,-282.08 2384.47,-280.87 2386.01,-287.7"/>
</g>
<!-- Node24&#45;&gt;Node48 -->
<g id="edge64" class="edge">
<title>Node24&#45;&gt;Node48</title>
<path fill="none" stroke="midnightblue" d="M1899.72,-385.98C1902.43,-377.49 1906.67,-364.2 1910.15,-353.32"/>
<polygon fill="midnightblue" stroke="midnightblue" points="1913.57,-354.1 1913.28,-343.51 1906.91,-351.97 1913.57,-354.1"/>
</g>
<!-- Node31&#45;&gt;Node2 -->
<g id="edge58" class="edge">
<title>Node31&#45;&gt;Node2</title>
<path fill="none" stroke="midnightblue" d="M469.65,-326.06C631.43,-304.34 1127.83,-237.68 1300.25,-214.52"/>
<polygon fill="midnightblue" stroke="midnightblue" points="1300.96,-217.96 1310.41,-213.16 1300.03,-211.02 1300.96,-217.96"/>
</g>
<!-- Node31&#45;&gt;Node7 -->
<g id="edge57" class="edge">
<title>Node31&#45;&gt;Node7</title>
<path fill="none" stroke="midnightblue" d="M420,-324.45C423.95,-309.21 434.05,-277.07 453,-257 532.84,-172.42 573.05,-168.9 684,-134 811.26,-93.97 856.54,-143.35 982,-98 1005.88,-89.37 1006.27,-76.05 1030,-67 1126.46,-30.2 1248.97,-20.2 1311.42,-17.5"/>
<polygon fill="midnightblue" stroke="midnightblue" points="1311.78,-20.99 1321.63,-17.1 1311.5,-13.99 1311.78,-20.99"/>
</g>
<!-- Node31&#45;&gt;Node12 -->
<g id="edge56" class="edge">
<title>Node31&#45;&gt;Node12</title>
<path fill="none" stroke="midnightblue" d="M416.81,-324.08C415.1,-309.85 412.42,-281.16 415,-257 424.01,-172.52 452.08,-74.57 464.26,-34.74"/>
<polygon fill="midnightblue" stroke="midnightblue" points="467.63,-35.7 467.25,-25.11 460.94,-33.62 467.63,-35.7"/>
</g>
<!-- Node32&#45;&gt;Node2 -->
<g id="edge63" class="edge">
<title>Node32&#45;&gt;Node2</title>
<path fill="none" stroke="midnightblue" d="M2371.03,-262.98C2352.7,-260.73 2332.57,-258.5 2314,-257 1917.2,-224.9 1813.17,-276.79 1419,-221 1412.69,-220.11 1406.08,-218.83 1399.66,-217.4"/>
<polygon fill="midnightblue" stroke="midnightblue" points="1400.33,-213.96 1389.79,-215.05 1398.71,-220.77 1400.33,-213.96"/>
</g>
<!-- Node32&#45;&gt;Node7 -->
<g id="edge61" class="edge">
<title>Node32&#45;&gt;Node7</title>
<path fill="none" stroke="midnightblue" d="M2443.57,-262.76C2464.13,-246.19 2511.5,-210.04 2557,-190 2619.09,-162.65 2738.59,-189.09 2699,-134 2669.72,-93.25 2635.93,-122.25 2592,-98 2572.92,-87.47 2574.37,-74.74 2554,-67 2443.52,-25.02 1588.82,-17.8 1392.23,-16.69"/>
<polygon fill="midnightblue" stroke="midnightblue" points="1392.07,-13.19 1382.05,-16.63 1392.03,-20.19 1392.07,-13.19"/>
</g>
<!-- Node32&#45;&gt;Node12 -->
<g id="edge60" class="edge">
<title>Node32&#45;&gt;Node12</title>
<path fill="none" stroke="midnightblue" d="M2376.14,-263C2361.45,-260.91 2345.65,-258.78 2331,-257 2155.73,-235.74 921.33,-140.61 750,-98 714.6,-89.2 708.68,-78.3 674,-67 614.16,-47.5 542.35,-31.35 501.86,-22.89"/>
<polygon fill="midnightblue" stroke="midnightblue" points="502.53,-19.46 492.03,-20.86 501.11,-26.31 502.53,-19.46"/>
</g>
<!-- Node37 -->
<g id="node27" class="node">
<title>Node37</title>
<g id="a_node27"><a xlink:title=" ">
<polygon fill="none" stroke="#bfbfbf" points="1428,-190.5 1428,-220.5 1558,-220.5 1558,-190.5 1428,-190.5"/>
<text text-anchor="start" x="1436" y="-208.5" font-family="Helvetica,sans-Serif" font-size="10.00">boost/numeric/ublas</text>
<text text-anchor="middle" x="1493" y="-197.5" font-family="Helvetica,sans-Serif" font-size="10.00">/vector_expression.hpp</text>
</a>
</g>
</g>
<!-- Node32&#45;&gt;Node37 -->
<g id="edge62" class="edge">
<title>Node32&#45;&gt;Node37</title>
<path fill="none" stroke="midnightblue" d="M2388.51,-262.95C2375.2,-260.67 2360.55,-258.45 2347,-257 2004.15,-220.27 1914.58,-260.21 1572,-221 1570.89,-220.87 1569.78,-220.74 1568.65,-220.6"/>
<polygon fill="midnightblue" stroke="midnightblue" points="1568.8,-217.09 1558.42,-219.21 1567.86,-224.03 1568.8,-217.09"/>
</g>
<!-- Node48&#45;&gt;Node2 -->
<g id="edge70" class="edge">
<title>Node48&#45;&gt;Node2</title>
<path fill="none" stroke="midnightblue" d="M1879.63,-324.44C1851.08,-316.95 1810.8,-304.66 1778,-288 1756.99,-277.33 1756.97,-265.5 1735,-257 1603.16,-206.01 1558.14,-245.92 1419,-221 1413.42,-220 1407.58,-218.78 1401.84,-217.48"/>
<polygon fill="midnightblue" stroke="midnightblue" points="1402.22,-213.97 1391.69,-215.07 1400.61,-220.79 1402.22,-213.97"/>
</g>
<!-- Node48&#45;&gt;Node7 -->
<g id="edge66" class="edge">
<title>Node48&#45;&gt;Node7</title>
<path fill="none" stroke="midnightblue" d="M1977.32,-332.68C2202.71,-329.66 2960.73,-302.17 2734,-67 2686.25,-17.47 1615.79,-16.15 1392.56,-16.42"/>
<polygon fill="midnightblue" stroke="midnightblue" points="1392.28,-12.92 1382.29,-16.43 1392.29,-19.92 1392.28,-12.92"/>
</g>
<!-- Node48&#45;&gt;Node12 -->
<g id="edge65" class="edge">
<title>Node48&#45;&gt;Node12</title>
<path fill="none" stroke="midnightblue" d="M1854.85,-327.42C1684.98,-311.04 1193.79,-257.54 798,-154 728.35,-135.78 710.41,-130.17 646,-98 623.28,-86.65 620.59,-78.61 598,-67 566.35,-50.74 528.19,-36.3 501.81,-27.07"/>
<polygon fill="midnightblue" stroke="midnightblue" points="502.92,-23.75 492.32,-23.8 500.63,-30.37 502.92,-23.75"/>
</g>
<!-- Node48&#45;&gt;Node32 -->
<g id="edge71" class="edge">
<title>Node48&#45;&gt;Node32</title>
<path fill="none" stroke="midnightblue" d="M1977.17,-327.84C2060.85,-320.49 2215.62,-305.92 2347,-288 2356.35,-286.72 2366.25,-285.21 2375.87,-283.65"/>
<polygon fill="midnightblue" stroke="midnightblue" points="2376.47,-287.1 2385.77,-282.01 2375.33,-280.19 2376.47,-287.1"/>
</g>
<!-- Node48&#45;&gt;Node37 -->
<g id="edge72" class="edge">
<title>Node48&#45;&gt;Node37</title>
<path fill="none" stroke="midnightblue" d="M1977.33,-330.48C2083.42,-325.49 2292,-312.63 2314,-288 2323.18,-277.72 2323.5,-266.98 2314,-257 2285.53,-227.12 1613,-225.74 1572,-221 1570.89,-220.87 1569.78,-220.74 1568.65,-220.6"/>
<polygon fill="midnightblue" stroke="midnightblue" points="1568.81,-217.09 1558.42,-219.2 1567.86,-224.02 1568.81,-217.09"/>
</g>
<!-- Node49 -->
<g id="node29" class="node">
<title>Node49</title>
<g id="a_node29"><a xlink:title=" ">
<polygon fill="none" stroke="#bfbfbf" points="1787,-263 1787,-282 1829,-282 1829,-263 1787,-263"/>
<text text-anchor="middle" x="1808" y="-270" font-family="Helvetica,sans-Serif" font-size="10.00">array</text>
</a>
</g>
</g>
<!-- Node48&#45;&gt;Node49 -->
<g id="edge67" class="edge">
<title>Node48&#45;&gt;Node49</title>
<path fill="none" stroke="midnightblue" d="M1900.53,-324.48C1882.72,-314.67 1853.26,-298.43 1832.37,-286.92"/>
<polygon fill="midnightblue" stroke="midnightblue" points="1833.89,-283.77 1823.45,-282.01 1830.51,-289.9 1833.89,-283.77"/>
</g>
<!-- Node50 -->
<g id="node30" class="node">
<title>Node50</title>
<g id="a_node30"><a xlink:title=" ">
<polygon fill="none" stroke="#bfbfbf" points="1847,-263 1847,-282 1911,-282 1911,-263 1847,-263"/>
<text text-anchor="middle" x="1879" y="-270" font-family="Helvetica,sans-Serif" font-size="10.00">algorithm</text>
</a>
</g>
</g>
<!-- Node48&#45;&gt;Node50 -->
<g id="edge68" class="edge">
<title>Node48&#45;&gt;Node50</title>
<path fill="none" stroke="midnightblue" d="M1910.7,-324.48C1905.26,-315.73 1896.64,-301.87 1889.76,-290.81"/>
<polygon fill="midnightblue" stroke="midnightblue" points="1892.54,-288.65 1884.29,-282.01 1886.6,-292.35 1892.54,-288.65"/>
</g>
<!-- Node51 -->
<g id="node31" class="node">
<title>Node51</title>
<g id="a_node31"><a xlink:title=" ">
<polygon fill="none" stroke="#bfbfbf" points="1929.5,-263 1929.5,-282 2012.5,-282 2012.5,-263 1929.5,-263"/>
<text text-anchor="middle" x="1971" y="-270" font-family="Helvetica,sans-Serif" font-size="10.00">initializer_list</text>
</a>
</g>
</g>
<!-- Node48&#45;&gt;Node51 -->
<g id="edge69" class="edge">
<title>Node48&#45;&gt;Node51</title>
<path fill="none" stroke="midnightblue" d="M1923.88,-324.48C1932.29,-315.37 1945.82,-300.74 1956.23,-289.48"/>
<polygon fill="midnightblue" stroke="midnightblue" points="1958.92,-291.73 1963.13,-282.01 1953.78,-286.98 1958.92,-291.73"/>
</g>
<!-- Node52 -->
<g id="node32" class="node">
<title>Node52</title>
<g id="a_node32"><a xlink:title=" ">
<polygon fill="none" stroke="#bfbfbf" points="2031,-257.5 2031,-287.5 2147,-287.5 2147,-257.5 2031,-257.5"/>
<text text-anchor="start" x="2039" y="-275.5" font-family="Helvetica,sans-Serif" font-size="10.00">boost/numeric/ublas</text>
<text text-anchor="middle" x="2089" y="-264.5" font-family="Helvetica,sans-Serif" font-size="10.00">/storage.hpp</text>
</a>
</g>
</g>
<!-- Node48&#45;&gt;Node52 -->
<g id="edge73" class="edge">
<title>Node48&#45;&gt;Node52</title>
<path fill="none" stroke="midnightblue" d="M1940.79,-324.48C1966.19,-315.74 2006.4,-301.91 2038.54,-290.86"/>
<polygon fill="midnightblue" stroke="midnightblue" points="2039.91,-294.09 2048.23,-287.52 2037.63,-287.47 2039.91,-294.09"/>
</g>
<!-- Node53 -->
<g id="node33" class="node">
<title>Node53</title>
<g id="a_node33"><a xlink:title=" ">
<polygon fill="none" stroke="#bfbfbf" points="2165.5,-257.5 2165.5,-287.5 2304.5,-287.5 2304.5,-257.5 2165.5,-257.5"/>
<text text-anchor="start" x="2173.5" y="-275.5" font-family="Helvetica,sans-Serif" font-size="10.00">boost/numeric/ublas</text>
<text text-anchor="middle" x="2235" y="-264.5" font-family="Helvetica,sans-Serif" font-size="10.00">/detail/vector_assign.hpp</text>
</a>
</g>
</g>
<!-- Node48&#45;&gt;Node53 -->
<g id="edge74" class="edge">
<title>Node48&#45;&gt;Node53</title>
<path fill="none" stroke="midnightblue" d="M1961.7,-324.48C2012.13,-315.07 2094.22,-299.76 2155.29,-288.37"/>
<polygon fill="midnightblue" stroke="midnightblue" points="2156.1,-291.78 2165.29,-286.5 2154.81,-284.9 2156.1,-291.78"/>
</g>
<!-- Node62&#45;&gt;Node2 -->
<g id="edge79" class="edge">
<title>Node62&#45;&gt;Node2</title>
<path fill="none" stroke="midnightblue" d="M542.63,-575.68C576.71,-553.66 668.48,-494.63 746,-447 863.68,-374.7 895.64,-360.81 1013,-288 1034.58,-274.61 1037.33,-266.19 1061,-257 1140.21,-226.24 1238.4,-214.19 1300.15,-209.49"/>
<polygon fill="midnightblue" stroke="midnightblue" points="1300.77,-212.96 1310.49,-208.75 1300.26,-205.97 1300.77,-212.96"/>
</g>
<!-- Node62&#45;&gt;Node7 -->
<g id="edge78" class="edge">
<title>Node62&#45;&gt;Node7</title>
<path fill="none" stroke="midnightblue" d="M527.92,-575.95C522.29,-530.15 497.76,-313.95 529,-257 553.46,-212.41 674.12,-151.14 722,-134 847.6,-89.03 894.54,-143.35 1020,-98 1043.88,-89.37 1044.37,-76.29 1068,-67 1150.75,-34.46 1255.33,-22.76 1311.65,-18.65"/>
<polygon fill="midnightblue" stroke="midnightblue" points="1312.19,-22.12 1321.92,-17.95 1311.71,-15.14 1312.19,-22.12"/>
</g>
<!-- Node62&#45;&gt;Node12 -->
<g id="edge77" class="edge">
<title>Node62&#45;&gt;Node12</title>
<path fill="none" stroke="midnightblue" d="M521,-575.83C479.91,-530.6 292.76,-315.32 246,-98 243.1,-84.53 237.4,-77.76 246,-67 269.62,-37.46 381.31,-23.96 437.52,-18.96"/>
<polygon fill="midnightblue" stroke="midnightblue" points="437.99,-22.43 447.66,-18.1 437.4,-15.46 437.99,-22.43"/>
</g>
<!-- Node62&#45;&gt;Node21 -->
<g id="edge81" class="edge">
<title>Node62&#45;&gt;Node21</title>
<path fill="none" stroke="midnightblue" d="M611.58,-576.1C727.36,-564.32 935.92,-543.11 1044.31,-532.09"/>
<polygon fill="midnightblue" stroke="midnightblue" points="1044.89,-535.55 1054.49,-531.05 1044.18,-528.58 1044.89,-535.55"/>
</g>
<!-- Node62&#45;&gt;Node31 -->
<g id="edge80" class="edge">
<title>Node62&#45;&gt;Node31</title>
<path fill="none" stroke="midnightblue" d="M525.18,-575.91C509.27,-540.15 448.07,-402.6 426,-352.98"/>
<polygon fill="midnightblue" stroke="midnightblue" points="429.07,-351.27 421.8,-343.55 422.67,-354.11 429.07,-351.27"/>
</g>
<!-- Node70&#45;&gt;Node7 -->
<g id="edge84" class="edge">
<title>Node70&#45;&gt;Node7</title>
<path fill="none" stroke="midnightblue" d="M1122.92,-704.26C1071.7,-668.86 888.85,-530.74 915,-380 924.92,-322.8 923.96,-303.29 959,-257 1002.95,-198.94 1162.09,-101.9 1226,-67 1255.03,-51.15 1290.11,-37.49 1315.87,-28.4"/>
<polygon fill="midnightblue" stroke="midnightblue" points="1317.3,-31.61 1325.6,-25.02 1315.01,-24.99 1317.3,-31.61"/>
</g>
<!-- Node71 -->
<g id="node36" class="node">
<title>Node71</title>
<g id="a_node36"><a xlink:href="../../d4/d52/variables__list__data__value__container_8h.html" target="_top" xlink:title=" ">
<polygon fill="none" stroke="black" points="1145.5,-637.5 1145.5,-667.5 1300.5,-667.5 1300.5,-637.5 1145.5,-637.5"/>
<text text-anchor="start" x="1153.5" y="-655.5" font-family="Helvetica,sans-Serif" font-size="10.00">containers/variables</text>
<text text-anchor="middle" x="1223" y="-644.5" font-family="Helvetica,sans-Serif" font-size="10.00">_list_data_value_container.h</text>
</a>
</g>
</g>
<!-- Node70&#45;&gt;Node71 -->
<g id="edge85" class="edge">
<title>Node70&#45;&gt;Node71</title>
<path fill="none" stroke="midnightblue" d="M1148.46,-704.48C1160.36,-696.34 1178.71,-683.79 1194.23,-673.18"/>
<polygon fill="midnightblue" stroke="midnightblue" points="1196.22,-676.06 1202.5,-667.52 1192.27,-670.28 1196.22,-676.06"/>
</g>
<!-- Node71&#45;&gt;Node2 -->
<g id="edge90" class="edge">
<title>Node71&#45;&gt;Node2</title>
<path fill="none" stroke="midnightblue" d="M1234.8,-637.39C1257.46,-609.26 1306.38,-543.28 1324,-478 1340.04,-418.57 1299.04,-404.73 1289,-344 1282.7,-305.85 1271.27,-291.36 1289,-257 1297.56,-240.41 1314.36,-228.08 1329.47,-219.76"/>
<polygon fill="midnightblue" stroke="midnightblue" points="1331.27,-222.77 1338.57,-215.09 1328.08,-216.54 1331.27,-222.77"/>
</g>
<!-- Node71&#45;&gt;Node7 -->
<g id="edge87" class="edge">
<title>Node71&#45;&gt;Node7</title>
<path fill="none" stroke="midnightblue" d="M1300.63,-650.7C1610.65,-646.55 2759.05,-621.59 3088,-478 3137.76,-456.28 3179,-450.79 3179,-396.5 3179,-396.5 3179,-396.5 3179,-271.5 3179,-178.44 3205.7,-126.33 3134,-67 3099.31,-38.29 1654.39,-20.04 1392.49,-16.96"/>
<polygon fill="midnightblue" stroke="midnightblue" points="1392.33,-13.46 1382.29,-16.84 1392.24,-20.46 1392.33,-13.46"/>
</g>
<!-- Node71&#45;&gt;Node12 -->
<g id="edge86" class="edge">
<title>Node71&#45;&gt;Node12</title>
<path fill="none" stroke="midnightblue" d="M1145.37,-647.53C944.54,-637.14 422.32,-609.4 406,-601 270.59,-531.32 190,-487.29 190,-335 190,-335 190,-335 190,-143 190,-35.47 363.62,-18.85 437.43,-16.64"/>
<polygon fill="midnightblue" stroke="midnightblue" points="437.64,-20.14 447.56,-16.41 437.48,-13.14 437.64,-20.14"/>
</g>
<!-- Node71&#45;&gt;Node19 -->
<g id="edge88" class="edge">
<title>Node71&#45;&gt;Node19</title>
<path fill="none" stroke="midnightblue" d="M1221.09,-637.33C1217.12,-611.34 1206.21,-554.96 1182,-514 1155.27,-468.78 1105.67,-430.7 1076.69,-410.98"/>
<polygon fill="midnightblue" stroke="midnightblue" points="1078.32,-407.87 1068.06,-405.24 1074.44,-413.69 1078.32,-407.87"/>
</g>
<!-- Node71&#45;&gt;Node21 -->
<g id="edge91" class="edge">
<title>Node71&#45;&gt;Node21</title>
<path fill="none" stroke="midnightblue" d="M1210.92,-637.48C1190.69,-614 1150.05,-566.84 1128.38,-541.69"/>
<polygon fill="midnightblue" stroke="midnightblue" points="1130.75,-539.08 1121.57,-533.79 1125.45,-543.65 1130.75,-539.08"/>
</g>
<!-- Node71&#45;&gt;Node25 -->
<g id="edge89" class="edge">
<title>Node71&#45;&gt;Node25</title>
<path fill="none" stroke="midnightblue" d="M1291.19,-637.4C1319.52,-629.54 1351.82,-617.85 1378,-601 1487.45,-530.58 1579.91,-399.34 1610.91,-352.32"/>
<polygon fill="midnightblue" stroke="midnightblue" points="1613.9,-354.14 1616.42,-343.85 1608.03,-350.32 1613.9,-354.14"/>
</g>
<!-- Node72 -->
<g id="node37" class="node">
<title>Node72</title>
<g id="a_node37"><a xlink:href="../../de/d77/variables__list_8h.html" target="_top" xlink:title=" ">
<polygon fill="none" stroke="black" points="1516,-570.5 1516,-600.5 1632,-600.5 1632,-570.5 1516,-570.5"/>
<text text-anchor="start" x="1524" y="-588.5" font-family="Helvetica,sans-Serif" font-size="10.00">containers/variables</text>
<text text-anchor="middle" x="1574" y="-577.5" font-family="Helvetica,sans-Serif" font-size="10.00">_list.h</text>
</a>
</g>
</g>
<!-- Node71&#45;&gt;Node72 -->
<g id="edge92" class="edge">
<title>Node71&#45;&gt;Node72</title>
<path fill="none" stroke="midnightblue" d="M1298.73,-637.48C1360.26,-626.08 1446.3,-610.15 1505.74,-599.14"/>
<polygon fill="midnightblue" stroke="midnightblue" points="1506.58,-602.55 1515.77,-597.28 1505.3,-595.66 1506.58,-602.55"/>
</g>
<!-- Node69 -->
<g id="node40" class="node">
<title>Node69</title>
<g id="a_node40"><a xlink:href="../../d5/dfb/global__variables_8h.html" target="_top" xlink:title=" ">
<polygon fill="none" stroke="black" points="255.5,-73 255.5,-92 404.5,-92 404.5,-73 255.5,-73"/>
<text text-anchor="middle" x="330" y="-80" font-family="Helvetica,sans-Serif" font-size="10.00">includes/global_variables.h</text>
</a>
</g>
</g>
<!-- Node71&#45;&gt;Node69 -->
<g id="edge100" class="edge">
<title>Node71&#45;&gt;Node69</title>
<path fill="none" stroke="midnightblue" d="M1145.43,-647.44C950.06,-637.09 452.15,-609.91 437,-601 406.72,-583.18 266,-370.14 266,-335 266,-335 266,-335 266,-204.5 266,-162.96 295.84,-121.74 314.77,-99.76"/>
<polygon fill="midnightblue" stroke="midnightblue" points="317.58,-101.86 321.63,-92.07 312.36,-97.2 317.58,-101.86"/>
</g>
<!-- Node72&#45;&gt;Node2 -->
<g id="edge98" class="edge">
<title>Node72&#45;&gt;Node2</title>
<path fill="none" stroke="midnightblue" d="M1560.76,-570.17C1534.96,-541.67 1477.3,-475.06 1441,-411 1404.32,-346.27 1376.55,-261.61 1365.38,-224.85"/>
<polygon fill="midnightblue" stroke="midnightblue" points="1368.67,-223.64 1362.45,-215.06 1361.96,-225.64 1368.67,-223.64"/>
</g>
<!-- Node72&#45;&gt;Node7 -->
<g id="edge94" class="edge">
<title>Node72&#45;&gt;Node7</title>
<path fill="none" stroke="midnightblue" d="M1575.39,-570.31C1577.8,-553.94 1584.35,-527.56 1602,-514 1709.87,-431.09 1783.29,-536.76 1906,-478 1962.13,-451.12 1950.72,-408.58 2006,-380 2109.17,-326.65 2587.34,-347.07 2514,-257 2477.1,-211.68 1592.46,-57.71 1392.1,-23.34"/>
<polygon fill="midnightblue" stroke="midnightblue" points="1392.45,-19.85 1382.01,-21.61 1391.27,-26.75 1392.45,-19.85"/>
</g>
<!-- Node72&#45;&gt;Node12 -->
<g id="edge93" class="edge">
<title>Node72&#45;&gt;Node12</title>
<path fill="none" stroke="midnightblue" d="M1515.8,-571.74C1330.76,-530.42 759.14,-396.6 606,-288 573.39,-264.88 566.66,-255.22 546,-221 507.86,-157.82 483.75,-72.35 474.41,-35.12"/>
<polygon fill="midnightblue" stroke="midnightblue" points="477.76,-34.08 471.99,-25.19 470.96,-35.74 477.76,-34.08"/>
</g>
<!-- Node72&#45;&gt;Node13 -->
<g id="edge95" class="edge">
<title>Node72&#45;&gt;Node13</title>
<path fill="none" stroke="midnightblue" d="M1592.7,-570.4C1616.58,-553.33 1659.89,-525.43 1702,-514 1846.92,-474.66 2923.77,-554.48 3053,-478 3190.21,-396.8 3168.06,-308.61 3207,-154 3216.57,-116.02 3225.19,-105.94 3221,-67 3219.85,-56.36 3217.39,-44.66 3215.08,-35.21"/>
<polygon fill="midnightblue" stroke="midnightblue" points="3218.42,-34.15 3212.53,-25.34 3211.64,-35.9 3218.42,-34.15"/>
</g>
<!-- Node72&#45;&gt;Node21 -->
<g id="edge99" class="edge">
<title>Node72&#45;&gt;Node21</title>
<path fill="none" stroke="midnightblue" d="M1515.74,-576.96C1431.12,-566.02 1274.45,-545.75 1183.79,-534.03"/>
<polygon fill="midnightblue" stroke="midnightblue" points="1183.97,-530.52 1173.6,-532.71 1183.07,-537.46 1183.97,-530.52"/>
</g>
<!-- Node73 -->
<g id="node38" class="node">
<title>Node73</title>
<g id="a_node38"><a xlink:title=" ">
<polygon fill="none" stroke="#bfbfbf" points="1711,-514.5 1711,-533.5 1761,-533.5 1761,-514.5 1711,-514.5"/>
<text text-anchor="middle" x="1736" y="-521.5" font-family="Helvetica,sans-Serif" font-size="10.00">atomic</text>
</a>
</g>
</g>
<!-- Node72&#45;&gt;Node73 -->
<g id="edge96" class="edge">
<title>Node72&#45;&gt;Node73</title>
<path fill="none" stroke="midnightblue" d="M1612.39,-570.4C1639.94,-560.28 1676.67,-546.79 1702.92,-537.15"/>
<polygon fill="midnightblue" stroke="midnightblue" points="1704.25,-540.39 1712.43,-533.66 1701.83,-533.82 1704.25,-540.39"/>
</g>
<!-- Node74 -->
<g id="node39" class="node">
<title>Node74</title>
<g id="a_node39"><a xlink:title=" ">
<polygon fill="none" stroke="#bfbfbf" points="2839,-380.5 2839,-410.5 2961,-410.5 2961,-380.5 2839,-380.5"/>
<text text-anchor="start" x="2847" y="-398.5" font-family="Helvetica,sans-Serif" font-size="10.00">boost/iterator/indirect</text>
<text text-anchor="middle" x="2900" y="-387.5" font-family="Helvetica,sans-Serif" font-size="10.00">_iterator.hpp</text>
</a>
</g>
</g>
<!-- Node72&#45;&gt;Node74 -->
<g id="edge97" class="edge">
<title>Node72&#45;&gt;Node74</title>
<path fill="none" stroke="midnightblue" d="M1580.74,-570.36C1589.62,-553.52 1606.98,-526.15 1631,-514 1709.31,-474.39 2332.72,-487.18 2420,-478 2566.4,-462.61 2735.75,-430.44 2829.08,-411.44"/>
<polygon fill="midnightblue" stroke="midnightblue" points="2829.87,-414.85 2838.97,-409.42 2828.47,-408 2829.87,-414.85"/>
</g>
<!-- Node69&#45;&gt;Node7 -->
<g id="edge102" class="edge">
<title>Node69&#45;&gt;Node7</title>
<path fill="none" stroke="midnightblue" d="M404.74,-76.75C606.5,-63.91 1157.43,-28.88 1311.49,-19.08"/>
<polygon fill="midnightblue" stroke="midnightblue" points="1312.13,-22.54 1321.89,-18.42 1311.69,-15.56 1312.13,-22.54"/>
</g>
<!-- Node69&#45;&gt;Node12 -->
<g id="edge101" class="edge">
<title>Node69&#45;&gt;Node12</title>
<path fill="none" stroke="midnightblue" d="M348.59,-72.87C372.54,-61.75 414.39,-42.32 442.15,-29.43"/>
<polygon fill="midnightblue" stroke="midnightblue" points="443.74,-32.55 451.33,-25.17 440.79,-26.2 443.74,-32.55"/>
</g>
<!-- Node75&#45;&gt;Node2 -->
<g id="edge110" class="edge">
<title>Node75&#45;&gt;Node2</title>
<path fill="none" stroke="midnightblue" d="M1441.25,-816.19C1431.22,-765.34 1380.87,-504.03 1362,-288 1360.14,-266.67 1359.78,-242.09 1359.79,-225.55"/>
<polygon fill="midnightblue" stroke="midnightblue" points="1363.3,-225.11 1359.86,-215.09 1356.3,-225.06 1363.3,-225.11"/>
</g>
<!-- Node75&#45;&gt;Node4 -->
<g id="edge107" class="edge">
<title>Node75&#45;&gt;Node4</title>
<path fill="none" stroke="midnightblue" d="M1489.74,-823.71C1584.04,-820.51 1793.58,-810.12 1858,-780 1979.87,-723.02 1973.18,-656.76 2076,-570 2108.07,-542.94 2116.47,-536.32 2152,-514 2180.96,-495.81 2190.95,-496.04 2220,-478 2240.01,-465.57 2242.32,-458.29 2263,-447 2372.83,-387.06 2428.26,-423.35 2525,-344 2577.95,-300.57 2571.04,-244.82 2530,-190 2514,-168.63 2454.47,-122.29 2422.92,-98.4"/>
<polygon fill="midnightblue" stroke="midnightblue" points="2424.92,-95.52 2414.83,-92.3 2420.71,-101.11 2424.92,-95.52"/>
</g>
<!-- Node75&#45;&gt;Node7 -->
<g id="edge106" class="edge">
<title>Node75&#45;&gt;Node7</title>
<path fill="none" stroke="midnightblue" d="M1396.3,-823.24C1230.2,-816.35 678,-787.96 678,-715 678,-715 678,-715 678,-651.5 678,-475.87 612.01,-408.42 701,-257 725.73,-214.93 747.1,-216.63 788,-190 831.67,-161.57 841.81,-151.18 891,-134 978.34,-103.51 1011.88,-136.48 1096,-98 1115.82,-88.93 1114.43,-76.6 1134,-67 1191.92,-38.59 1266.43,-25.79 1311.63,-20.3"/>
<polygon fill="midnightblue" stroke="midnightblue" points="1312.11,-23.77 1321.64,-19.15 1311.31,-16.82 1312.11,-23.77"/>
</g>
<!-- Node75&#45;&gt;Node10 -->
<g id="edge132" class="edge">
<title>Node75&#45;&gt;Node10</title>
<path fill="none" stroke="midnightblue" d="M1489.62,-823.49C1588.88,-819.76 1817.94,-808.29 1890,-780 1928.39,-764.93 1931.69,-749.64 1964,-724 1982.85,-709.04 2275.54,-457.89 2297,-447 2355.83,-417.16 2377.44,-428.68 2441,-411 2486.24,-398.41 2496.41,-391.25 2542,-380 2625.87,-359.29 2677.86,-410.5 2733,-344 2746.58,-327.62 2833.78,-378.2 2716,-134 2710.44,-122.46 2701.04,-112.18 2691.69,-103.96"/>
<polygon fill="midnightblue" stroke="midnightblue" points="2693.87,-101.22 2683.93,-97.55 2689.41,-106.62 2693.87,-101.22"/>
</g>
<!-- Node75&#45;&gt;Node12 -->
<g id="edge105" class="edge">
<title>Node75&#45;&gt;Node12</title>
<path fill="none" stroke="midnightblue" d="M1396.48,-824.31C1218.27,-821.46 578.97,-809.39 378,-780 277.74,-765.34 238.89,-783.68 157,-724 47.76,-644.38 0,-598.68 0,-463.5 0,-463.5 0,-463.5 0,-143 0,-93.31 37.01,-88.09 82,-67 145.13,-37.4 356.51,-22.8 437.78,-18.18"/>
<polygon fill="midnightblue" stroke="midnightblue" points="438.13,-21.66 447.92,-17.61 437.74,-14.67 438.13,-21.66"/>
</g>
<!-- Node75&#45;&gt;Node18 -->
<g id="edge118" class="edge">
<title>Node75&#45;&gt;Node18</title>
<path fill="none" stroke="midnightblue" d="M1396.34,-818.54C1323.26,-808.42 1182.22,-788.89 1105.61,-778.29"/>
<polygon fill="midnightblue" stroke="midnightblue" points="1105.63,-774.75 1095.25,-776.85 1104.67,-781.69 1105.63,-774.75"/>
</g>
<!-- Node75&#45;&gt;Node19 -->
<g id="edge108" class="edge">
<title>Node75&#45;&gt;Node19</title>
<path fill="none" stroke="midnightblue" d="M1438.47,-816.37C1414.67,-771.79 1299.61,-564.96 1153,-447 1132.98,-430.89 1106.99,-417.87 1086.66,-409.09"/>
<polygon fill="midnightblue" stroke="midnightblue" points="1087.77,-405.76 1077.19,-405.12 1085.06,-412.22 1087.77,-405.76"/>
</g>
<!-- Node75&#45;&gt;Node20 -->
<g id="edge139" class="edge">
<title>Node75&#45;&gt;Node20</title>
<path fill="none" stroke="midnightblue" d="M1396.45,-822.91C1298.48,-818.08 1074.1,-804.63 1002,-780 940.62,-759.04 883.92,-705.54 855.36,-675.26"/>
<polygon fill="midnightblue" stroke="midnightblue" points="857.76,-672.69 848.39,-667.73 852.62,-677.45 857.76,-672.69"/>
</g>
<!-- Node75&#45;&gt;Node31 -->
<g id="edge131" class="edge">
<title>Node75&#45;&gt;Node31</title>
<path fill="none" stroke="midnightblue" d="M1396.22,-823.07C1172.11,-813.57 217.47,-770.5 176,-724 63.01,-597.3 215.74,-493.48 342,-380 356.36,-367.1 374.97,-356 390.18,-348.06"/>
<polygon fill="midnightblue" stroke="midnightblue" points="391.8,-351.16 399.15,-343.53 388.64,-344.92 391.8,-351.16"/>
</g>
<!-- Node75&#45;&gt;Node70 -->
<g id="edge140" class="edge">
<title>Node75&#45;&gt;Node70</title>
<path fill="none" stroke="midnightblue" d="M1419.17,-816.46C1364.98,-797.05 1232.43,-749.55 1169.81,-727.12"/>
<polygon fill="midnightblue" stroke="midnightblue" points="1170.63,-723.69 1160.03,-723.61 1168.26,-730.28 1170.63,-723.69"/>
</g>
<!-- Node75&#45;&gt;Node71 -->
<g id="edge130" class="edge">
<title>Node75&#45;&gt;Node71</title>
<path fill="none" stroke="midnightblue" d="M1432.09,-816.5C1398.72,-790.48 1297.36,-711.47 1249.09,-673.84"/>
<polygon fill="midnightblue" stroke="midnightblue" points="1251.04,-670.92 1241,-667.53 1246.73,-676.44 1251.04,-670.92"/>
</g>
<!-- Node75&#45;&gt;Node73 -->
<g id="edge109" class="edge">
<title>Node75&#45;&gt;Node73</title>
<path fill="none" stroke="midnightblue" d="M1489.75,-817.42C1572.47,-802.68 1736,-766.96 1736,-715 1736,-715 1736,-715 1736,-651.5 1736,-613.2 1736,-568.38 1736,-543.7"/>
<polygon fill="midnightblue" stroke="midnightblue" points="1739.5,-543.59 1736,-533.59 1732.5,-543.59 1739.5,-543.59"/>
</g>
<!-- Node76 -->
<g id="node42" class="node">
<title>Node76</title>
<g id="a_node42"><a xlink:href="../../da/d55/lock__object_8h.html" target="_top" xlink:title=" ">
<polygon fill="none" stroke="black" points="1509.5,-760.5 1509.5,-779.5 1634.5,-779.5 1634.5,-760.5 1509.5,-760.5"/>
<text text-anchor="middle" x="1572" y="-767.5" font-family="Helvetica,sans-Serif" font-size="10.00">includes/lock_object.h</text>
</a>
</g>
</g>
<!-- Node75&#45;&gt;Node76 -->
<g id="edge111" class="edge">
<title>Node75&#45;&gt;Node76</title>
<path fill="none" stroke="midnightblue" d="M1463.44,-816.44C1484.67,-807.56 1518.1,-793.56 1542.25,-783.45"/>
<polygon fill="midnightblue" stroke="midnightblue" points="1543.78,-786.61 1551.66,-779.52 1541.08,-780.15 1543.78,-786.61"/>
</g>
<!-- Node78 -->
<g id="node44" class="node">
<title>Node78</title>
<g id="a_node44"><a xlink:href="../../d2/d91/point_8h.html" target="_top" xlink:title=" ">
<polygon fill="none" stroke="black" points="1787.5,-453 1787.5,-472 1896.5,-472 1896.5,-453 1787.5,-453"/>
<text text-anchor="middle" x="1842" y="-460" font-family="Helvetica,sans-Serif" font-size="10.00">geometries/point.h</text>
</a>
</g>
</g>
<!-- Node75&#45;&gt;Node78 -->
<g id="edge114" class="edge">
<title>Node75&#45;&gt;Node78</title>
<path fill="none" stroke="midnightblue" d="M1489.64,-823.7C1606.58,-819.17 1903,-799.37 1903,-715 1903,-715 1903,-715 1903,-651.5 1903,-586.17 1869.26,-514.03 1851.97,-481.34"/>
<polygon fill="midnightblue" stroke="midnightblue" points="1854.84,-479.29 1846.99,-472.17 1848.68,-482.63 1854.84,-479.29"/>
</g>
<!-- Node79 -->
<g id="node45" class="node">
<title>Node79</title>
<g id="a_node45"><a xlink:href="../../d4/d35/pointer__vector__set_8h.html" target="_top" xlink:title=" ">
<polygon fill="none" stroke="black" points="2305.5,-447.5 2305.5,-477.5 2410.5,-477.5 2410.5,-447.5 2305.5,-447.5"/>
<text text-anchor="start" x="2313.5" y="-465.5" font-family="Helvetica,sans-Serif" font-size="10.00">containers/pointer</text>
<text text-anchor="middle" x="2358" y="-454.5" font-family="Helvetica,sans-Serif" font-size="10.00">_vector_set.h</text>
</a>
</g>
</g>
<!-- Node75&#45;&gt;Node79 -->
<g id="edge119" class="edge">
<title>Node75&#45;&gt;Node79</title>
<path fill="none" stroke="midnightblue" d="M1489.87,-823.43C1620.64,-818.78 1983.05,-803.86 2031,-780 2101.61,-744.86 2204.4,-563.26 2266,-514 2281.49,-501.61 2300.44,-490.63 2317.1,-482.1"/>
<polygon fill="midnightblue" stroke="midnightblue" points="2318.7,-485.21 2326.09,-477.62 2315.58,-478.95 2318.7,-485.21"/>
</g>
<!-- Node81 -->
<g id="node47" class="node">
<title>Node81</title>
<g id="a_node47"><a xlink:href="../../de/d44/global__pointers__vector_8h.html" target="_top" xlink:title=" ">
<polygon fill="none" stroke="red" points="2872,-447.5 2872,-477.5 3018,-477.5 3018,-447.5 2872,-447.5"/>
<text text-anchor="start" x="2880" y="-465.5" font-family="Helvetica,sans-Serif" font-size="10.00">containers/global_pointers</text>
<text text-anchor="middle" x="2945" y="-454.5" font-family="Helvetica,sans-Serif" font-size="10.00">_vector.h</text>
</a>
</g>
</g>
<!-- Node75&#45;&gt;Node81 -->
<g id="edge133" class="edge">
<title>Node75&#45;&gt;Node81</title>
<path fill="none" stroke="midnightblue" d="M1489.89,-825.84C1593.55,-826.77 1849.55,-823.97 2058,-780 2397.18,-708.46 2782.91,-538.34 2905.47,-481.99"/>
<polygon fill="midnightblue" stroke="midnightblue" points="2907.23,-485.03 2914.84,-477.66 2904.3,-478.68 2907.23,-485.03"/>
</g>
<!-- Node76&#45;&gt;Node2 -->
<g id="edge113" class="edge">
<title>Node76&#45;&gt;Node2</title>
<path fill="none" stroke="midnightblue" d="M1572.35,-760.36C1572.62,-747.68 1572.15,-723.45 1566,-704 1550.1,-653.7 1531.02,-647.97 1507,-601 1438.04,-466.11 1411.33,-434.3 1372,-288 1366.33,-266.9 1363.15,-241.97 1361.51,-225.28"/>
<polygon fill="midnightblue" stroke="midnightblue" points="1364.99,-224.85 1360.61,-215.2 1358.02,-225.47 1364.99,-224.85"/>
</g>
<!-- Node77 -->
<g id="node43" class="node">
<title>Node77</title>
<g id="a_node43"><a xlink:title=" ">
<polygon fill="none" stroke="#bfbfbf" points="1509,-704.5 1509,-723.5 1557,-723.5 1557,-704.5 1509,-704.5"/>
<text text-anchor="middle" x="1533" y="-711.5" font-family="Helvetica,sans-Serif" font-size="10.00">mutex</text>
</a>
</g>
</g>
<!-- Node76&#45;&gt;Node77 -->
<g id="edge112" class="edge">
<title>Node76&#45;&gt;Node77</title>
<path fill="none" stroke="midnightblue" d="M1565.56,-760.08C1560.05,-752.46 1551.97,-741.26 1545.24,-731.94"/>
<polygon fill="midnightblue" stroke="midnightblue" points="1548.01,-729.81 1539.32,-723.75 1542.34,-733.91 1548.01,-729.81"/>
</g>
<!-- Node78&#45;&gt;Node2 -->
<g id="edge115" class="edge">
<title>Node78&#45;&gt;Node2</title>
<path fill="none" stroke="midnightblue" d="M1801.7,-452.96C1744.79,-440.72 1646.09,-418.83 1631,-411 1591.03,-390.26 1583.18,-379.12 1555,-344 1527.36,-309.56 1540.81,-285.41 1507,-257 1491.02,-243.58 1440.69,-227.94 1403.35,-217.66"/>
<polygon fill="midnightblue" stroke="midnightblue" points="1404.25,-214.28 1393.68,-215.04 1402.42,-221.04 1404.25,-214.28"/>
</g>
<!-- Node78&#45;&gt;Node24 -->
<g id="edge117" class="edge">
<title>Node78&#45;&gt;Node24</title>
<path fill="none" stroke="midnightblue" d="M1849.42,-452.73C1857.99,-442.6 1872.3,-425.69 1882.99,-413.06"/>
<polygon fill="midnightblue" stroke="midnightblue" points="1885.91,-415.02 1889.7,-405.13 1880.57,-410.5 1885.91,-415.02"/>
</g>
<!-- Node78&#45;&gt;Node48 -->
<g id="edge116" class="edge">
<title>Node78&#45;&gt;Node48</title>
<path fill="none" stroke="midnightblue" d="M1837.69,-452.92C1830.46,-437.23 1818.01,-403.36 1832,-380 1841.15,-364.72 1857.46,-354.33 1873.29,-347.43"/>
<polygon fill="midnightblue" stroke="midnightblue" points="1875.01,-350.51 1883.01,-343.56 1872.43,-344 1875.01,-350.51"/>
</g>
<!-- Node79&#45;&gt;Node2 -->
<g id="edge127" class="edge">
<title>Node79&#45;&gt;Node2</title>
<path fill="none" stroke="midnightblue" d="M2305.47,-450.58C2173.41,-423.07 1836.36,-352.51 1813,-344 1787.97,-334.89 1729.99,-301.46 1707,-288 1685.09,-275.17 1682.76,-265.97 1659,-257 1558.1,-218.89 1524.82,-241.89 1419,-221 1413.57,-219.93 1407.88,-218.68 1402.27,-217.39"/>
<polygon fill="midnightblue" stroke="midnightblue" points="1402.88,-213.93 1392.34,-215.02 1401.25,-220.74 1402.88,-213.93"/>
</g>
<!-- Node79&#45;&gt;Node4 -->
<g id="edge123" class="edge">
<title>Node79&#45;&gt;Node4</title>
<path fill="none" stroke="midnightblue" d="M2394.7,-447.39C2451.78,-425.5 2557.16,-385.3 2575,-380 2645.7,-358.98 2675.99,-385.44 2737,-344 2761.88,-327.1 2766.17,-316.75 2775,-288 2788.72,-243.34 2775.1,-217.03 2737,-190 2663.69,-138 2623.03,-183.14 2538,-154 2515.8,-146.39 2459.5,-115.45 2427.05,-97.18"/>
<polygon fill="midnightblue" stroke="midnightblue" points="2428.62,-94.05 2418.19,-92.18 2425.17,-100.14 2428.62,-94.05"/>
</g>
<!-- Node79&#45;&gt;Node7 -->
<g id="edge122" class="edge">
<title>Node79&#45;&gt;Node7</title>
<path fill="none" stroke="midnightblue" d="M2410.72,-447.99C2412.5,-447.64 2414.26,-447.31 2416,-447 2564.75,-420.62 2616.69,-474 2754,-411 2772.29,-402.61 2770.56,-391.6 2787,-380 2815.58,-359.83 2829.12,-365.14 2857,-344 2884.06,-323.48 2895.65,-319.23 2909,-288 2947.65,-197.59 2971.27,-133.66 2899,-67 2842.01,-14.43 1630.07,-15.6 1392.28,-16.34"/>
<polygon fill="midnightblue" stroke="midnightblue" points="1392,-12.84 1382.01,-16.38 1392.02,-19.84 1392,-12.84"/>
</g>
<!-- Node79&#45;&gt;Node8 -->
<g id="edge125" class="edge">
<title>Node79&#45;&gt;Node8</title>
<path fill="none" stroke="midnightblue" d="M2410.73,-447.92C2461.76,-434.68 2533.24,-415.85 2546,-411 2574.8,-400.06 2579.02,-390.47 2608,-380 2731.6,-335.35 2817.23,-398.08 2889,-288 2928.45,-227.49 2878.59,-138.03 2854.11,-100.77"/>
<polygon fill="midnightblue" stroke="midnightblue" points="2856.73,-98.41 2848.23,-92.09 2850.94,-102.33 2856.73,-98.41"/>
</g>
<!-- Node79&#45;&gt;Node12 -->
<g id="edge121" class="edge">
<title>Node79&#45;&gt;Node12</title>
<path fill="none" stroke="midnightblue" d="M2305.26,-455.81C2279.55,-453.07 2248.17,-449.79 2220,-447 2047.66,-429.95 2003.15,-437.44 1832,-411 1439.14,-350.3 1343.45,-318.2 958,-221 794.05,-179.66 747.1,-177.74 598,-98 558.48,-76.86 514.97,-47.83 490.21,-30.73"/>
<polygon fill="midnightblue" stroke="midnightblue" points="492.19,-27.84 481.98,-25 488.19,-33.59 492.19,-27.84"/>
</g>
<!-- Node79&#45;&gt;Node13 -->
<g id="edge120" class="edge">
<title>Node79&#45;&gt;Node13</title>
<path fill="none" stroke="midnightblue" d="M2410.72,-447.97C2412.5,-447.62 2414.26,-447.3 2416,-447 2579.25,-418.83 2632,-469.46 2787,-411 2809.04,-402.69 2808.81,-390.3 2830,-380 2881.99,-354.72 2907.12,-376.4 2955,-344 3081.72,-258.27 3173.65,-89.47 3201.33,-34.36"/>
<polygon fill="midnightblue" stroke="midnightblue" points="3204.58,-35.69 3205.87,-25.18 3198.3,-32.59 3204.58,-35.69"/>
</g>
<!-- Node79&#45;&gt;Node19 -->
<g id="edge124" class="edge">
<title>Node79&#45;&gt;Node19</title>
<path fill="none" stroke="midnightblue" d="M2305.32,-455.2C2279.62,-452.32 2248.23,-449.09 2220,-447 1775.96,-414.09 1235.08,-400.47 1090.81,-397.27"/>
<polygon fill="midnightblue" stroke="midnightblue" points="1090.8,-393.77 1080.73,-397.05 1090.65,-400.77 1090.8,-393.77"/>
</g>
<!-- Node79&#45;&gt;Node24 -->
<g id="edge128" class="edge">
<title>Node79&#45;&gt;Node24</title>
<path fill="none" stroke="midnightblue" d="M2305.12,-454.04C2220.77,-442.15 2055.92,-418.91 1963.64,-405.9"/>
<polygon fill="midnightblue" stroke="midnightblue" points="1963.96,-402.41 1953.57,-404.48 1962.98,-409.34 1963.96,-402.41"/>
</g>
<!-- Node79&#45;&gt;Node74 -->
<g id="edge126" class="edge">
<title>Node79&#45;&gt;Node74</title>
<path fill="none" stroke="midnightblue" d="M2410.55,-449.49C2415.42,-448.57 2420.29,-447.72 2425,-447 2601.45,-420.07 2648.26,-435.97 2825,-411 2826.26,-410.82 2827.52,-410.64 2828.8,-410.45"/>
<polygon fill="midnightblue" stroke="midnightblue" points="2829.36,-413.9 2838.69,-408.88 2828.26,-406.99 2829.36,-413.9"/>
</g>
<!-- Node80 -->
<g id="node46" class="node">
<title>Node80</title>
<g id="a_node46"><a xlink:href="../../d6/dc0/set__identity__function_8h.html" target="_top" xlink:title=" ">
<polygon fill="none" stroke="red" points="2617,-380.5 2617,-410.5 2745,-410.5 2745,-380.5 2617,-380.5"/>
<text text-anchor="start" x="2625" y="-398.5" font-family="Helvetica,sans-Serif" font-size="10.00">containers/set_identity</text>
<text text-anchor="middle" x="2681" y="-387.5" font-family="Helvetica,sans-Serif" font-size="10.00">_function.h</text>
</a>
</g>
</g>
<!-- Node79&#45;&gt;Node80 -->
<g id="edge129" class="edge">
<title>Node79&#45;&gt;Node80</title>
<path fill="none" stroke="midnightblue" d="M2410.65,-450.01C2415.5,-448.98 2420.34,-447.96 2425,-447 2486.14,-434.36 2555.64,-420.69 2606.78,-410.77"/>
<polygon fill="midnightblue" stroke="midnightblue" points="2607.61,-414.17 2616.76,-408.83 2606.27,-407.3 2607.61,-414.17"/>
</g>
<!-- Node81&#45;&gt;Node2 -->
<g id="edge137" class="edge">
<title>Node81&#45;&gt;Node2</title>
<path fill="none" stroke="midnightblue" d="M2956.57,-447.47C2969.93,-429.5 2987.92,-398.5 2970,-380 2926.54,-335.12 1906.54,-359.43 1846,-344 1845.16,-343.79 1735.72,-288.47 1735,-288 1716.72,-276.13 1717.02,-265.62 1697,-257 1582.57,-207.73 1541.46,-243.9 1419,-221 1413.49,-219.97 1407.73,-218.74 1402.05,-217.45"/>
<polygon fill="midnightblue" stroke="midnightblue" points="1402.55,-213.96 1392.01,-215.06 1400.93,-220.78 1402.55,-213.96"/>
</g>
<!-- Node81&#45;&gt;Node7 -->
<g id="edge135" class="edge">
<title>Node81&#45;&gt;Node7</title>
<path fill="none" stroke="midnightblue" d="M2961.34,-447.37C2970.78,-438.1 2981.78,-425.12 2987,-411 3008.2,-353.68 2989,-334.62 2989,-273.5 2989,-273.5 2989,-273.5 2989,-204.5 2989,-137.28 2982.28,-103.76 2926,-67 2859.92,-23.83 1632.03,-17.45 1392.36,-16.62"/>
<polygon fill="midnightblue" stroke="midnightblue" points="1392.03,-13.12 1382.02,-16.58 1392.01,-20.11 1392.03,-13.12"/>
</g>
<!-- Node81&#45;&gt;Node13 -->
<g id="edge134" class="edge">
<title>Node81&#45;&gt;Node13</title>
<path fill="none" stroke="midnightblue" d="M2982.57,-447.36C3001.61,-438.88 3024.2,-426.67 3041,-411 3155.83,-303.86 3166.52,-250.26 3205,-98 3210.3,-77.01 3211.06,-52.05 3210.8,-35.33"/>
<polygon fill="midnightblue" stroke="midnightblue" points="3214.3,-35.12 3210.51,-25.23 3207.3,-35.32 3214.3,-35.12"/>
</g>
<!-- Node81&#45;&gt;Node24 -->
<g id="edge138" class="edge">
<title>Node81&#45;&gt;Node24</title>
<path fill="none" stroke="midnightblue" d="M2871.72,-456.96C2677.4,-444.9 2151.05,-412.26 1964.04,-400.66"/>
<polygon fill="midnightblue" stroke="midnightblue" points="1964,-397.15 1953.81,-400.02 1963.57,-404.14 1964,-397.15"/>
</g>
<!-- Node81&#45;&gt;Node74 -->
<g id="edge136" class="edge">
<title>Node81&#45;&gt;Node74</title>
<path fill="none" stroke="midnightblue" d="M2935.24,-447.4C2929.46,-439.05 2922.01,-428.29 2915.45,-418.81"/>
<polygon fill="midnightblue" stroke="midnightblue" points="2918.32,-416.81 2909.75,-410.58 2912.56,-420.79 2918.32,-416.81"/>
</g>
<!-- Node85&#45;&gt;Node2 -->
<g id="edge142" class="edge">
<title>Node85&#45;&gt;Node2</title>
<path fill="none" stroke="midnightblue" d="M360.45,-642.85C374.36,-627.04 405.73,-592.99 437,-570 671.73,-397.4 736.54,-348.97 1013,-257 1110.45,-224.58 1230.16,-212.96 1300.46,-208.8"/>
<polygon fill="midnightblue" stroke="midnightblue" points="1300.68,-212.3 1310.47,-208.24 1300.29,-205.31 1300.68,-212.3"/>
</g>
<!-- Node85&#45;&gt;Node31 -->
<g id="edge143" class="edge">
<title>Node85&#45;&gt;Node31</title>
<path fill="none" stroke="midnightblue" d="M347.05,-642.67C340.89,-632.95 331.66,-616.62 328,-601 324.86,-587.58 325.31,-583.51 328,-570 342.96,-494.96 367.79,-482.88 394,-411 401.09,-391.54 408.1,-368.86 412.69,-353.37"/>
<polygon fill="midnightblue" stroke="midnightblue" points="416.12,-354.1 415.58,-343.52 409.41,-352.13 416.12,-354.1"/>
</g>
<!-- Node85&#45;&gt;Node62 -->
<g id="edge144" class="edge">
<title>Node85&#45;&gt;Node62</title>
<path fill="none" stroke="midnightblue" d="M376.37,-642.87C407.09,-631.52 461.24,-611.52 496.1,-598.65"/>
<polygon fill="midnightblue" stroke="midnightblue" points="497.64,-601.81 505.81,-595.06 495.22,-595.24 497.64,-601.81"/>
</g>
<!-- Node86&#45;&gt;Node2 -->
<g id="edge152" class="edge">
<title>Node86&#45;&gt;Node2</title>
<path fill="none" stroke="midnightblue" d="M769.08,-704.4C764.68,-690.14 757.52,-660.81 764,-637 798.77,-509.17 822.7,-475.04 915,-380 932.91,-361.56 1087.13,-266.54 1111,-257 1173.01,-232.21 1248.77,-219.08 1300.32,-212.49"/>
<polygon fill="midnightblue" stroke="midnightblue" points="1300.81,-215.96 1310.3,-211.25 1299.95,-209.01 1300.81,-215.96"/>
</g>
<!-- Node86&#45;&gt;Node4 -->
<g id="edge150" class="edge">
<title>Node86&#45;&gt;Node4</title>
<path fill="none" stroke="midnightblue" d="M837.78,-713.32C939.91,-712.53 1142.24,-705.73 1309,-668 1347,-659.4 1353.27,-646.72 1391,-637 1499.71,-608.98 1532.73,-630.64 1641,-601 1779.2,-563.16 1818.46,-555.46 1939,-478 1992.7,-443.49 1986.26,-407.22 2044,-380 2242.85,-286.25 2395.97,-462.25 2530,-288 2538.4,-277.08 2535.13,-269.79 2530,-257 2514.68,-218.78 2495.18,-219.06 2466,-190 2449.52,-173.58 2440.68,-173.5 2428,-154 2417.62,-138.04 2410.93,-117.23 2407.11,-102.37"/>
<polygon fill="midnightblue" stroke="midnightblue" points="2410.44,-101.26 2404.73,-92.34 2403.63,-102.88 2410.44,-101.26"/>
</g>
<!-- Node86&#45;&gt;Node7 -->
<g id="edge149" class="edge">
<title>Node86&#45;&gt;Node7</title>
<path fill="none" stroke="midnightblue" d="M763.55,-704.45C739.74,-679.93 671.29,-606.49 632,-534 589.47,-455.53 581.64,-432.04 567,-344 560.08,-302.38 577.56,-289.05 605,-257 662.19,-190.19 678.85,-167.88 760,-134 883.11,-82.6 932.54,-143.35 1058,-98 1081.88,-89.37 1082.49,-76.61 1106,-67 1175.14,-38.74 1261.91,-25.69 1311.75,-20.15"/>
<polygon fill="midnightblue" stroke="midnightblue" points="1312.23,-23.61 1321.8,-19.07 1311.49,-16.65 1312.23,-23.61"/>
</g>
<!-- Node86&#45;&gt;Node12 -->
<g id="edge148" class="edge">
<title>Node86&#45;&gt;Node12</title>
<path fill="none" stroke="midnightblue" d="M706.31,-712.76C586.12,-711.42 336,-704.21 258,-668 176.19,-630.02 114,-615.2 114,-525 114,-525 114,-525 114,-143 114,-105.43 120.81,-89.36 151,-67 196.11,-33.6 365.79,-21.55 437.59,-17.89"/>
<polygon fill="midnightblue" stroke="midnightblue" points="438.03,-21.37 447.85,-17.39 437.69,-14.38 438.03,-21.37"/>
</g>
<!-- Node86&#45;&gt;Node19 -->
<g id="edge151" class="edge">
<title>Node86&#45;&gt;Node19</title>
<path fill="none" stroke="midnightblue" d="M829.37,-704.47C855.55,-698.11 885.45,-687.08 907,-668 988.43,-595.93 953.44,-538.63 1012,-447 1019.79,-434.81 1030.17,-422.3 1038.66,-412.79"/>
<polygon fill="midnightblue" stroke="midnightblue" points="1041.37,-415.02 1045.53,-405.27 1036.2,-410.29 1041.37,-415.02"/>
</g>
<!-- Node86&#45;&gt;Node20 -->
<g id="edge153" class="edge">
<title>Node86&#45;&gt;Node20</title>
<path fill="none" stroke="midnightblue" d="M781.17,-704.48C789.59,-696.64 802.42,-684.71 813.56,-674.37"/>
<polygon fill="midnightblue" stroke="midnightblue" points="815.98,-676.9 820.92,-667.52 811.21,-671.77 815.98,-676.9"/>
</g>
<!-- Node86&#45;&gt;Node31 -->
<g id="edge154" class="edge">
<title>Node86&#45;&gt;Node31</title>
<path fill="none" stroke="midnightblue" d="M706.31,-711.81C578.9,-708.83 308.19,-698.88 280,-668 189.51,-568.86 347.53,-402.09 401.15,-350.61"/>
<polygon fill="midnightblue" stroke="midnightblue" points="403.68,-353.03 408.54,-343.62 398.87,-347.95 403.68,-353.03"/>
</g>
<!-- Node84&#45;&gt;Node2 -->
<g id="edge157" class="edge">
<title>Node84&#45;&gt;Node2</title>
<path fill="none" stroke="midnightblue" d="M2067.35,-457.11C2003.92,-451.51 1909.63,-438.94 1832,-411 1729.86,-374.25 1710.22,-349.83 1621,-288 1603.09,-275.58 1602.62,-266.48 1583,-257 1515.81,-224.53 1491.68,-237.91 1419,-221 1414.05,-219.85 1408.88,-218.62 1403.74,-217.38"/>
<polygon fill="midnightblue" stroke="midnightblue" points="1404.52,-213.97 1393.97,-215 1402.86,-220.77 1404.52,-213.97"/>
</g>
<!-- Node84&#45;&gt;Node7 -->
<g id="edge156" class="edge">
<title>Node84&#45;&gt;Node7</title>
<path fill="none" stroke="midnightblue" d="M2174.15,-453C2238.43,-437.56 2379.37,-404.3 2499,-380 2587.51,-362.02 2616.04,-379.72 2699,-344 2832.75,-286.41 2975.25,-171.66 2874,-67 2821.02,-12.23 1628.72,-15.15 1392.47,-16.27"/>
<polygon fill="midnightblue" stroke="midnightblue" points="1392.24,-12.78 1382.26,-16.33 1392.28,-19.78 1392.24,-12.78"/>
</g>
<!-- Node84&#45;&gt;Node24 -->
<g id="edge158" class="edge">
<title>Node84&#45;&gt;Node24</title>
<path fill="none" stroke="midnightblue" d="M2107.11,-452.94C2063.86,-441.32 1986.51,-420.54 1938.69,-407.7"/>
<polygon fill="midnightblue" stroke="midnightblue" points="1939.52,-404.3 1928.96,-405.08 1937.71,-411.06 1939.52,-404.3"/>
</g>
</g>
</svg>
