<?xml version="1.0" encoding="UTF-8" standalone="no"?>
<!DOCTYPE svg PUBLIC "-//W3C//DTD SVG 1.1//EN"
 "http://www.w3.org/Graphics/SVG/1.1/DTD/svg11.dtd">
<!-- Generated by graphviz version 7.1.0 (0)
 -->
<!-- Title: solver_wrappers.external.external_solver_wrapper.ExternalSolverWrapper Pages: 1 -->
<svg width="220pt" height="215pt"
 viewBox="0.00 0.00 220.00 215.00" xmlns="http://www.w3.org/2000/svg" xmlns:xlink="http://www.w3.org/1999/xlink">
<g id="graph0" class="graph" transform="scale(1 1) rotate(0) translate(4 211)">
<title>solver_wrappers.external.external_solver_wrapper.ExternalSolverWrapper</title>
<!-- Node1 -->
<g id="node1" class="node">
<title>Node1</title>
<g id="a_node1"><a xlink:title="This class is a generic wrapper for connecting external solvers The import of meshes is done once in ...">
<polygon fill="#999999" stroke="#666666" points="0,-0.5 0,-112.5 212,-112.5 212,-0.5 0,-0.5"/>
<text text-anchor="start" x="8" y="-100.5" font-family="Helvetica,sans-Serif" font-size="10.00">solver_wrappers.external.external</text>
<text text-anchor="middle" x="106" y="-89.5" font-family="Helvetica,sans-Serif" font-size="10.00">_solver_wrapper.ExternalSolverWrapper</text>
<polyline fill="none" stroke="#666666" points="0,-82.5 212,-82.5"/>
<text text-anchor="middle" x="106" y="-70.5" font-family="Helvetica,sans-Serif" font-size="10.00"> </text>
<polyline fill="none" stroke="#666666" points="0,-63.5 212,-63.5"/>
<text text-anchor="start" x="8" y="-51.5" font-family="Helvetica,sans-Serif" font-size="10.00">+ __init__()</text>
<text text-anchor="start" x="8" y="-40.5" font-family="Helvetica,sans-Serif" font-size="10.00">+ Initialize()</text>
<text text-anchor="start" x="8" y="-29.5" font-family="Helvetica,sans-Serif" font-size="10.00">+ AdvanceInTime()</text>
<text text-anchor="start" x="8" y="-18.5" font-family="Helvetica,sans-Serif" font-size="10.00">+ SolveSolutionStep()</text>
<text text-anchor="start" x="8" y="-7.5" font-family="Helvetica,sans-Serif" font-size="10.00"># _GetIOType()</text>
</a>
</g>
</g>
<!-- Node2 -->
<g id="node2" class="node">
<title>Node2</title>
<g id="a_node2"><a xlink:title=" ">
<polygon fill="white" stroke="#666666" points="29,-149.5 29,-206.5 183,-206.5 183,-149.5 29,-149.5"/>
<text text-anchor="middle" x="106" y="-194.5" font-family="Helvetica,sans-Serif" font-size="10.00">CoSimulationSolverWrapper</text>
<polyline fill="none" stroke="#666666" points="29,-187.5 183,-187.5"/>
<text text-anchor="middle" x="106" y="-175.5" font-family="Helvetica,sans-Serif" font-size="10.00"> </text>
<polyline fill="none" stroke="#666666" points="29,-168.5 183,-168.5"/>
<text text-anchor="middle" x="106" y="-156.5" font-family="Helvetica,sans-Serif" font-size="10.00"> </text>
</a>
</g>
</g>
<!-- Node2&#45;&gt;Node1 -->
<g id="edge1" class="edge">
<title>Node2&#45;&gt;Node1</title>
<path fill="none" stroke="#63b8ff" d="M106,-138.28C106,-129.92 106,-120.94 106,-112.11"/>
<polygon fill="none" stroke="#63b8ff" points="102.5,-138.07 106,-148.07 109.5,-138.07 102.5,-138.07"/>
</g>
</g>
</svg>
