<?xml version="1.0" encoding="UTF-8" standalone="no"?>
<!DOCTYPE svg PUBLIC "-//W3C//DTD SVG 1.1//EN"
 "http://www.w3.org/Graphics/SVG/1.1/DTD/svg11.dtd">
<!-- Generated by graphviz version 2.43.0 (0)
 -->
<!-- Title: /home/runner/work/Documentation/Documentation/master/kratos/processes/tetrahedra_mesh_edge_swapping_process.cpp Pages: 1 -->
<svg width="3428pt" height="1101pt"
 viewBox="0.00 0.00 3428.00 1101.00" xmlns="http://www.w3.org/2000/svg" xmlns:xlink="http://www.w3.org/1999/xlink">
<g id="graph0" class="graph" transform="scale(1 1) rotate(0) translate(4 1097)">
<title>/home/runner/work/Documentation/Documentation/master/kratos/processes/tetrahedra_mesh_edge_swapping_process.cpp</title>
<!-- Node1 -->
<g id="node1" class="node">
<title>Node1</title>
<g id="a_node1"><a xlink:title=" ">
<polygon fill="#bfbfbf" stroke="black" points="556.5,-1040.5 556.5,-1092.5 743.5,-1092.5 743.5,-1040.5 556.5,-1040.5"/>
<text text-anchor="start" x="564.5" y="-1080.5" font-family="Helvetica,sans-Serif" font-size="10.00">/home/runner/work/Documentation</text>
<text text-anchor="start" x="564.5" y="-1069.5" font-family="Helvetica,sans-Serif" font-size="10.00">/Documentation/master/kratos</text>
<text text-anchor="start" x="564.5" y="-1058.5" font-family="Helvetica,sans-Serif" font-size="10.00">/processes/tetrahedra_mesh_edge</text>
<text text-anchor="middle" x="650" y="-1047.5" font-family="Helvetica,sans-Serif" font-size="10.00">_swapping_process.cpp</text>
</a>
</g>
</g>
<!-- Node2 -->
<g id="node2" class="node">
<title>Node2</title>
<g id="a_node2"><a xlink:href="../../df/d67/define_8h.html" target="_top" xlink:title=" ">
<polygon fill="none" stroke="black" points="1450.5,-190.5 1450.5,-209.5 1549.5,-209.5 1549.5,-190.5 1450.5,-190.5"/>
<text text-anchor="middle" x="1500" y="-197.5" font-family="Helvetica,sans-Serif" font-size="10.00">includes/define.h</text>
</a>
</g>
</g>
<!-- Node1&#45;&gt;Node2 -->
<g id="edge1" class="edge">
<title>Node1&#45;&gt;Node2</title>
<path fill="none" stroke="midnightblue" d="M556.18,-1064.94C376.17,-1061.32 0,-1040.32 0,-928 0,-928 0,-928 0,-870 0,-789.54 38,-773.46 38,-693 38,-693 38,-693 38,-629.5 38,-310.98 370.2,-382.7 681,-313 830.57,-279.46 884.16,-339.77 1024,-277 1042.66,-268.63 1039.33,-254.35 1058,-246 1092.1,-230.76 1327.65,-212.82 1440.27,-204.99"/>
<polygon fill="midnightblue" stroke="midnightblue" points="1440.72,-208.47 1450.45,-204.29 1440.23,-201.48 1440.72,-208.47"/>
</g>
<!-- Node16 -->
<g id="node16" class="node">
<title>Node16</title>
<g id="a_node16"><a xlink:href="../../db/d42/tetrahedra__mesh__edge__swapping__process_8h.html" target="_top" xlink:title=" ">
<polygon fill="none" stroke="black" points="1779,-973.5 1779,-1003.5 1961,-1003.5 1961,-973.5 1779,-973.5"/>
<text text-anchor="start" x="1787" y="-991.5" font-family="Helvetica,sans-Serif" font-size="10.00">processes/tetrahedra</text>
<text text-anchor="middle" x="1870" y="-980.5" font-family="Helvetica,sans-Serif" font-size="10.00">_mesh_edge_swapping_process.h</text>
</a>
</g>
</g>
<!-- Node1&#45;&gt;Node16 -->
<g id="edge24" class="edge">
<title>Node1&#45;&gt;Node16</title>
<path fill="none" stroke="midnightblue" d="M743.71,-1059.66C968.43,-1045.66 1536.56,-1010.27 1768.76,-995.81"/>
<polygon fill="midnightblue" stroke="midnightblue" points="1769.13,-999.29 1778.89,-995.18 1768.69,-992.3 1769.13,-999.29"/>
</g>
<!-- Node3 -->
<g id="node3" class="node">
<title>Node3</title>
<g id="a_node3"><a xlink:title=" ">
<polygon fill="none" stroke="#bfbfbf" points="1490.5,-73 1490.5,-92 1555.5,-92 1555.5,-73 1490.5,-73"/>
<text text-anchor="middle" x="1523" y="-80" font-family="Helvetica,sans-Serif" font-size="10.00">stdexcept</text>
</a>
</g>
</g>
<!-- Node2&#45;&gt;Node3 -->
<g id="edge2" class="edge">
<title>Node2&#45;&gt;Node3</title>
<path fill="none" stroke="midnightblue" d="M1501.73,-190.32C1505.44,-171.67 1514.25,-127.44 1519.29,-102.13"/>
<polygon fill="midnightblue" stroke="midnightblue" points="1522.73,-102.77 1521.25,-92.28 1515.87,-101.41 1522.73,-102.77"/>
</g>
<!-- Node4 -->
<g id="node4" class="node">
<title>Node4</title>
<g id="a_node4"><a xlink:title=" ">
<polygon fill="none" stroke="#bfbfbf" points="680,-73 680,-92 736,-92 736,-73 680,-73"/>
<text text-anchor="middle" x="708" y="-80" font-family="Helvetica,sans-Serif" font-size="10.00">sstream</text>
</a>
</g>
</g>
<!-- Node2&#45;&gt;Node4 -->
<g id="edge3" class="edge">
<title>Node2&#45;&gt;Node4</title>
<path fill="none" stroke="midnightblue" d="M1450.46,-191.77C1304.23,-170.45 876.56,-108.08 746.18,-89.07"/>
<polygon fill="midnightblue" stroke="midnightblue" points="746.65,-85.6 736.25,-87.62 745.64,-92.53 746.65,-85.6"/>
</g>
<!-- Node5 -->
<g id="node5" class="node">
<title>Node5</title>
<g id="a_node5"><a xlink:href="../../dc/d25/kratos__export__api_8h.html" target="_top" xlink:title=" ">
<polygon fill="none" stroke="black" points="1991,-0.5 1991,-30.5 2119,-30.5 2119,-0.5 1991,-0.5"/>
<text text-anchor="start" x="1999" y="-18.5" font-family="Helvetica,sans-Serif" font-size="10.00">includes/kratos_export</text>
<text text-anchor="middle" x="2055" y="-7.5" font-family="Helvetica,sans-Serif" font-size="10.00">_api.h</text>
</a>
</g>
</g>
<!-- Node2&#45;&gt;Node5 -->
<g id="edge4" class="edge">
<title>Node2&#45;&gt;Node5</title>
<path fill="none" stroke="midnightblue" d="M1549.62,-199.11C1685.52,-198.24 2058.56,-187.58 2132,-98 2150.43,-75.52 2121.15,-51.53 2093.56,-35.45"/>
<polygon fill="midnightblue" stroke="midnightblue" points="2095.16,-32.33 2084.72,-30.51 2091.75,-38.44 2095.16,-32.33"/>
</g>
<!-- Node6 -->
<g id="node6" class="node">
<title>Node6</title>
<g id="a_node6"><a xlink:href="../../d9/dc0/smart__pointers_8h.html" target="_top" xlink:title=" ">
<polygon fill="none" stroke="black" points="2338.5,-134.5 2338.5,-153.5 2481.5,-153.5 2481.5,-134.5 2338.5,-134.5"/>
<text text-anchor="middle" x="2410" y="-141.5" font-family="Helvetica,sans-Serif" font-size="10.00">includes/smart_pointers.h</text>
</a>
</g>
</g>
<!-- Node2&#45;&gt;Node6 -->
<g id="edge5" class="edge">
<title>Node2&#45;&gt;Node6</title>
<path fill="none" stroke="midnightblue" d="M1549.57,-196.06C1698.54,-187.22 2143.31,-160.83 2328.09,-149.86"/>
<polygon fill="midnightblue" stroke="midnightblue" points="2328.51,-153.34 2338.29,-149.26 2328.1,-146.35 2328.51,-153.34"/>
</g>
<!-- Node11 -->
<g id="node11" class="node">
<title>Node11</title>
<g id="a_node11"><a xlink:href="../../dd/d2d/exception_8h.html" target="_top" xlink:title=" ">
<polygon fill="none" stroke="black" points="1726.5,-134.5 1726.5,-153.5 1843.5,-153.5 1843.5,-134.5 1726.5,-134.5"/>
<text text-anchor="middle" x="1785" y="-141.5" font-family="Helvetica,sans-Serif" font-size="10.00">includes/exception.h</text>
</a>
</g>
</g>
<!-- Node2&#45;&gt;Node11 -->
<g id="edge10" class="edge">
<title>Node2&#45;&gt;Node11</title>
<path fill="none" stroke="midnightblue" d="M1545.16,-190.44C1595.29,-180.94 1676.22,-165.61 1730.01,-155.42"/>
<polygon fill="midnightblue" stroke="midnightblue" points="1730.88,-158.82 1740.05,-153.52 1729.58,-151.94 1730.88,-158.82"/>
</g>
<!-- Node7 -->
<g id="node7" class="node">
<title>Node7</title>
<g id="a_node7"><a xlink:title=" ">
<polygon fill="none" stroke="#bfbfbf" points="2784,-6 2784,-25 2844,-25 2844,-6 2784,-6"/>
<text text-anchor="middle" x="2814" y="-13" font-family="Helvetica,sans-Serif" font-size="10.00">iostream</text>
</a>
</g>
</g>
<!-- Node6&#45;&gt;Node7 -->
<g id="edge6" class="edge">
<title>Node6&#45;&gt;Node7</title>
<path fill="none" stroke="midnightblue" d="M2413.58,-134.16C2420.68,-117.84 2438.24,-83.19 2465,-67 2516.26,-35.99 2693.12,-22.88 2773.58,-18.42"/>
<polygon fill="midnightblue" stroke="midnightblue" points="2774.02,-21.91 2783.81,-17.88 2773.64,-14.92 2774.02,-21.91"/>
</g>
<!-- Node8 -->
<g id="node8" class="node">
<title>Node8</title>
<g id="a_node8"><a xlink:title=" ">
<polygon fill="none" stroke="#bfbfbf" points="2474.5,-73 2474.5,-92 2519.5,-92 2519.5,-73 2474.5,-73"/>
<text text-anchor="middle" x="2497" y="-80" font-family="Helvetica,sans-Serif" font-size="10.00">utility</text>
</a>
</g>
</g>
<!-- Node6&#45;&gt;Node8 -->
<g id="edge7" class="edge">
<title>Node6&#45;&gt;Node8</title>
<path fill="none" stroke="midnightblue" d="M2422.46,-134.48C2436.42,-124.93 2459.26,-109.31 2475.99,-97.87"/>
<polygon fill="midnightblue" stroke="midnightblue" points="2478.28,-100.54 2484.56,-92.01 2474.33,-94.77 2478.28,-100.54"/>
</g>
<!-- Node9 -->
<g id="node9" class="node">
<title>Node9</title>
<g id="a_node9"><a xlink:title=" ">
<polygon fill="none" stroke="#bfbfbf" points="2360,-73 2360,-92 2418,-92 2418,-73 2360,-73"/>
<text text-anchor="middle" x="2389" y="-80" font-family="Helvetica,sans-Serif" font-size="10.00">memory</text>
</a>
</g>
</g>
<!-- Node6&#45;&gt;Node9 -->
<g id="edge8" class="edge">
<title>Node6&#45;&gt;Node9</title>
<path fill="none" stroke="midnightblue" d="M2406.99,-134.48C2403.97,-125.9 2399.21,-112.43 2395.35,-101.48"/>
<polygon fill="midnightblue" stroke="midnightblue" points="2398.63,-100.27 2392,-92.01 2392.03,-102.6 2398.63,-100.27"/>
</g>
<!-- Node10 -->
<g id="node10" class="node">
<title>Node10</title>
<g id="a_node10"><a xlink:title=" ">
<polygon fill="none" stroke="#bfbfbf" points="2218,-67.5 2218,-97.5 2342,-97.5 2342,-67.5 2218,-67.5"/>
<text text-anchor="start" x="2226" y="-85.5" font-family="Helvetica,sans-Serif" font-size="10.00">intrusive_ptr/intrusive</text>
<text text-anchor="middle" x="2280" y="-74.5" font-family="Helvetica,sans-Serif" font-size="10.00">_ptr.hpp</text>
</a>
</g>
</g>
<!-- Node6&#45;&gt;Node10 -->
<g id="edge9" class="edge">
<title>Node6&#45;&gt;Node10</title>
<path fill="none" stroke="midnightblue" d="M2391.37,-134.48C2372.78,-125.96 2343.62,-112.62 2319.8,-101.72"/>
<polygon fill="midnightblue" stroke="midnightblue" points="2321.19,-98.5 2310.64,-97.52 2318.27,-104.87 2321.19,-98.5"/>
</g>
<!-- Node11&#45;&gt;Node3 -->
<g id="edge11" class="edge">
<title>Node11&#45;&gt;Node3</title>
<path fill="none" stroke="midnightblue" d="M1747.46,-134.48C1699.28,-123.53 1615.89,-104.6 1565.45,-93.14"/>
<polygon fill="midnightblue" stroke="midnightblue" points="1566.04,-89.69 1555.51,-90.88 1564.49,-96.51 1566.04,-89.69"/>
</g>
<!-- Node11&#45;&gt;Node4 -->
<g id="edge14" class="edge">
<title>Node11&#45;&gt;Node4</title>
<path fill="none" stroke="midnightblue" d="M1726.33,-139.76C1531.31,-128.98 907.94,-94.55 746.48,-85.63"/>
<polygon fill="midnightblue" stroke="midnightblue" points="746.28,-82.11 736.1,-85.05 745.89,-89.1 746.28,-82.11"/>
</g>
<!-- Node11&#45;&gt;Node5 -->
<g id="edge16" class="edge">
<title>Node11&#45;&gt;Node5</title>
<path fill="none" stroke="midnightblue" d="M1782.97,-134.4C1779.84,-118.79 1775.86,-85.67 1793,-67 1817.8,-39.98 1912.19,-27.06 1980.57,-21.14"/>
<polygon fill="midnightblue" stroke="midnightblue" points="1981.21,-24.6 1990.88,-20.28 1980.63,-17.62 1981.21,-24.6"/>
</g>
<!-- Node11&#45;&gt;Node7 -->
<g id="edge13" class="edge">
<title>Node11&#45;&gt;Node7</title>
<path fill="none" stroke="midnightblue" d="M1843.58,-139.94C1913.27,-135.27 2032.68,-123.98 2132,-98 2167.69,-88.66 2173.11,-75.52 2209,-67 2417.28,-17.57 2675.88,-14.79 2773.86,-15.75"/>
<polygon fill="midnightblue" stroke="midnightblue" points="2773.88,-19.25 2783.92,-15.86 2773.96,-12.25 2773.88,-19.25"/>
</g>
<!-- Node12 -->
<g id="node12" class="node">
<title>Node12</title>
<g id="a_node12"><a xlink:title=" ">
<polygon fill="none" stroke="#bfbfbf" points="524,-6 524,-25 568,-25 568,-6 524,-6"/>
<text text-anchor="middle" x="546" y="-13" font-family="Helvetica,sans-Serif" font-size="10.00">string</text>
</a>
</g>
</g>
<!-- Node11&#45;&gt;Node12 -->
<g id="edge12" class="edge">
<title>Node11&#45;&gt;Node12</title>
<path fill="none" stroke="midnightblue" d="M1779.92,-134.36C1769.59,-117.72 1744.34,-81.62 1712,-67 1606.26,-19.22 756.16,-16.51 578.48,-16.47"/>
<polygon fill="midnightblue" stroke="midnightblue" points="578.45,-12.97 568.45,-16.47 578.45,-19.97 578.45,-12.97"/>
</g>
<!-- Node13 -->
<g id="node13" class="node">
<title>Node13</title>
<g id="a_node13"><a xlink:title=" ">
<polygon fill="none" stroke="#bfbfbf" points="332.5,-6 332.5,-25 379.5,-25 379.5,-6 332.5,-6"/>
<text text-anchor="middle" x="356" y="-13" font-family="Helvetica,sans-Serif" font-size="10.00">vector</text>
</a>
</g>
</g>
<!-- Node11&#45;&gt;Node13 -->
<g id="edge15" class="edge">
<title>Node11&#45;&gt;Node13</title>
<path fill="none" stroke="midnightblue" d="M1766.3,-134.43C1728.86,-117.76 1641.6,-81.34 1564,-67 1334.64,-24.61 747.79,-45.6 515,-31 471.75,-28.29 422.03,-23.48 389.87,-20.15"/>
<polygon fill="midnightblue" stroke="midnightblue" points="389.98,-16.64 379.67,-19.08 389.25,-23.6 389.98,-16.64"/>
</g>
<!-- Node14 -->
<g id="node14" class="node">
<title>Node14</title>
<g id="a_node14"><a xlink:href="../../da/da6/code__location_8h.html" target="_top" xlink:title=" ">
<polygon fill="none" stroke="black" points="1986.5,-73 1986.5,-92 2123.5,-92 2123.5,-73 1986.5,-73"/>
<text text-anchor="middle" x="2055" y="-80" font-family="Helvetica,sans-Serif" font-size="10.00">includes/code_location.h</text>
</a>
</g>
</g>
<!-- Node11&#45;&gt;Node14 -->
<g id="edge17" class="edge">
<title>Node11&#45;&gt;Node14</title>
<path fill="none" stroke="midnightblue" d="M1823.68,-134.48C1871.8,-123.87 1953.99,-105.76 2006.33,-94.22"/>
<polygon fill="midnightblue" stroke="midnightblue" points="2007.37,-97.58 2016.39,-92.01 2005.87,-90.74 2007.37,-97.58"/>
</g>
<!-- Node15 -->
<g id="node15" class="node">
<title>Node15</title>
<g id="a_node15"><a xlink:href="../../d9/d06/stl__vector__io_8h.html" target="_top" xlink:title=" ">
<polygon fill="none" stroke="black" points="1802,-73 1802,-92 1930,-92 1930,-73 1802,-73"/>
<text text-anchor="middle" x="1866" y="-80" font-family="Helvetica,sans-Serif" font-size="10.00">utilities/stl_vector_io.h</text>
</a>
</g>
</g>
<!-- Node11&#45;&gt;Node15 -->
<g id="edge21" class="edge">
<title>Node11&#45;&gt;Node15</title>
<path fill="none" stroke="midnightblue" d="M1796.61,-134.48C1809.48,-125.02 1830.47,-109.6 1846.01,-98.19"/>
<polygon fill="midnightblue" stroke="midnightblue" points="1848.43,-100.75 1854.42,-92.01 1844.28,-95.11 1848.43,-100.75"/>
</g>
<!-- Node14&#45;&gt;Node5 -->
<g id="edge20" class="edge">
<title>Node14&#45;&gt;Node5</title>
<path fill="none" stroke="midnightblue" d="M2055,-72.73C2055,-64.54 2055,-51.92 2055,-40.71"/>
<polygon fill="midnightblue" stroke="midnightblue" points="2058.5,-40.59 2055,-30.59 2051.5,-40.59 2058.5,-40.59"/>
</g>
<!-- Node14&#45;&gt;Node7 -->
<g id="edge19" class="edge">
<title>Node14&#45;&gt;Node7</title>
<path fill="none" stroke="midnightblue" d="M2099.25,-72.94C2111.74,-70.75 2125.37,-68.57 2138,-67 2378.22,-37.12 2668.82,-22.65 2773.76,-18.12"/>
<polygon fill="midnightblue" stroke="midnightblue" points="2774.07,-21.61 2783.91,-17.69 2773.77,-14.62 2774.07,-21.61"/>
</g>
<!-- Node14&#45;&gt;Node12 -->
<g id="edge18" class="edge">
<title>Node14&#45;&gt;Node12</title>
<path fill="none" stroke="midnightblue" d="M2012.93,-73C1999.87,-70.67 1985.38,-68.4 1972,-67 1688.61,-37.37 763.05,-20.21 578.27,-17.04"/>
<polygon fill="midnightblue" stroke="midnightblue" points="578.18,-13.54 568.12,-16.87 578.06,-20.54 578.18,-13.54"/>
</g>
<!-- Node15&#45;&gt;Node7 -->
<g id="edge22" class="edge">
<title>Node15&#45;&gt;Node7</title>
<path fill="none" stroke="midnightblue" d="M1925.25,-72.98C1941.96,-70.79 1960.17,-68.61 1977,-67 2282.61,-37.85 2652.7,-22.46 2773.65,-17.94"/>
<polygon fill="midnightblue" stroke="midnightblue" points="2774.05,-21.42 2783.91,-17.56 2773.79,-14.43 2774.05,-21.42"/>
</g>
<!-- Node15&#45;&gt;Node13 -->
<g id="edge23" class="edge">
<title>Node15&#45;&gt;Node13</title>
<path fill="none" stroke="midnightblue" d="M1801.61,-75.92C1764.35,-72.87 1716.56,-69.27 1674,-67 1159.37,-39.59 1029.4,-62.42 515,-31 471.75,-28.36 422.03,-23.54 389.87,-20.18"/>
<polygon fill="midnightblue" stroke="midnightblue" points="389.98,-16.67 379.67,-19.11 389.25,-23.64 389.98,-16.67"/>
</g>
<!-- Node16&#45;&gt;Node2 -->
<g id="edge28" class="edge">
<title>Node16&#45;&gt;Node2</title>
<path fill="none" stroke="midnightblue" d="M1778.76,-985.53C1445.58,-977.76 314,-945.92 314,-872 314,-872 314,-872 314,-691 314,-552.81 368.35,-512.88 475,-425 586.44,-333.17 639.74,-347.38 780,-313 901.01,-283.34 943.57,-326.27 1058,-277 1078.02,-268.38 1075.9,-254.44 1096,-246 1126.97,-232.99 1335.37,-214.44 1440.13,-205.79"/>
<polygon fill="midnightblue" stroke="midnightblue" points="1440.56,-209.26 1450.24,-204.96 1439.98,-202.29 1440.56,-209.26"/>
</g>
<!-- Node16&#45;&gt;Node7 -->
<g id="edge26" class="edge">
<title>Node16&#45;&gt;Node7</title>
<path fill="none" stroke="midnightblue" d="M1961.17,-985.51C2293.42,-977.66 3420,-945.62 3420,-872 3420,-872 3420,-872 3420,-143 3420,-97.68 3392.47,-87.42 3352,-67 3264.86,-23.04 2963.96,-17.18 2854.35,-16.52"/>
<polygon fill="midnightblue" stroke="midnightblue" points="2854.07,-13.02 2844.05,-16.48 2854.03,-20.02 2854.07,-13.02"/>
</g>
<!-- Node16&#45;&gt;Node12 -->
<g id="edge25" class="edge">
<title>Node16&#45;&gt;Node12</title>
<path fill="none" stroke="midnightblue" d="M1778.98,-987.57C1436.48,-987.09 237.68,-978.39 100,-881 22.74,-826.34 0,-787.64 0,-693 0,-693 0,-693 0,-199 0,-122.06 44.17,-103.31 112,-67 129.73,-57.51 415.86,-29.09 513.59,-19.62"/>
<polygon fill="midnightblue" stroke="midnightblue" points="514.14,-23.08 523.76,-18.63 513.47,-16.11 514.14,-23.08"/>
</g>
<!-- Node17 -->
<g id="node17" class="node">
<title>Node17</title>
<g id="a_node17"><a xlink:title=" ">
<polygon fill="none" stroke="#bfbfbf" points="2956.5,-313.5 2956.5,-332.5 3049.5,-332.5 3049.5,-313.5 2956.5,-313.5"/>
<text text-anchor="middle" x="3003" y="-320.5" font-family="Helvetica,sans-Serif" font-size="10.00">unordered_map</text>
</a>
</g>
</g>
<!-- Node16&#45;&gt;Node17 -->
<g id="edge27" class="edge">
<title>Node16&#45;&gt;Node17</title>
<path fill="none" stroke="midnightblue" d="M1961.19,-984.75C2271.59,-974.82 3268,-937.79 3268,-872 3268,-872 3268,-872 3268,-568 3268,-443.46 3107.65,-365.03 3036.42,-336.34"/>
<polygon fill="midnightblue" stroke="midnightblue" points="3037.57,-333.03 3026.98,-332.62 3035,-339.54 3037.57,-333.03"/>
</g>
<!-- Node18 -->
<g id="node18" class="node">
<title>Node18</title>
<g id="a_node18"><a xlink:href="../../dd/dfe/model__part_8h.html" target="_top" xlink:title=" ">
<polygon fill="none" stroke="black" points="1307.5,-917.5 1307.5,-936.5 1432.5,-936.5 1432.5,-917.5 1307.5,-917.5"/>
<text text-anchor="middle" x="1370" y="-924.5" font-family="Helvetica,sans-Serif" font-size="10.00">includes/model_part.h</text>
</a>
</g>
</g>
<!-- Node16&#45;&gt;Node18 -->
<g id="edge29" class="edge">
<title>Node16&#45;&gt;Node18</title>
<path fill="none" stroke="midnightblue" d="M1778.87,-976.66C1682.32,-965.17 1531.78,-947.25 1442.82,-936.67"/>
<polygon fill="midnightblue" stroke="midnightblue" points="1443.16,-933.18 1432.82,-935.47 1442.33,-940.13 1443.16,-933.18"/>
</g>
<!-- Node121 -->
<g id="node49" class="node">
<title>Node121</title>
<g id="a_node49"><a xlink:href="../../da/d42/process_8h.html" target="_top" xlink:title=" ">
<polygon fill="none" stroke="black" points="2205.5,-682.5 2205.5,-701.5 2320.5,-701.5 2320.5,-682.5 2205.5,-682.5"/>
<text text-anchor="middle" x="2263" y="-689.5" font-family="Helvetica,sans-Serif" font-size="10.00">processes/process.h</text>
</a>
</g>
</g>
<!-- Node16&#45;&gt;Node121 -->
<g id="edge175" class="edge">
<title>Node16&#45;&gt;Node121</title>
<path fill="none" stroke="midnightblue" d="M1961.01,-983.65C2098.16,-975.32 2342,-949.61 2342,-872 2342,-872 2342,-872 2342,-814 2342,-770.01 2304.94,-729.52 2281.59,-708.37"/>
<polygon fill="midnightblue" stroke="midnightblue" points="2283.82,-705.67 2273.98,-701.72 2279.21,-710.94 2283.82,-705.67"/>
</g>
<!-- Node122 -->
<g id="node50" class="node">
<title>Node122</title>
<g id="a_node50"><a xlink:href="../../d1/d43/tetrahedra__edge__shell_8h.html" target="_top" xlink:title=" ">
<polygon fill="none" stroke="black" points="2747.5,-738.5 2747.5,-768.5 2858.5,-768.5 2858.5,-738.5 2747.5,-738.5"/>
<text text-anchor="start" x="2755.5" y="-756.5" font-family="Helvetica,sans-Serif" font-size="10.00">modeler/tetrahedra</text>
<text text-anchor="middle" x="2803" y="-745.5" font-family="Helvetica,sans-Serif" font-size="10.00">_edge_shell.h</text>
</a>
</g>
</g>
<!-- Node16&#45;&gt;Node122 -->
<g id="edge179" class="edge">
<title>Node16&#45;&gt;Node122</title>
<path fill="none" stroke="midnightblue" d="M1961.21,-980.95C2135.92,-967.39 2510.91,-933.1 2629,-881 2689.23,-854.43 2749,-804.49 2780.4,-775.95"/>
<polygon fill="midnightblue" stroke="midnightblue" points="2783.13,-778.19 2788.11,-768.84 2778.39,-773.04 2783.13,-778.19"/>
</g>
<!-- Node18&#45;&gt;Node2 -->
<g id="edge34" class="edge">
<title>Node18&#45;&gt;Node2</title>
<path fill="none" stroke="midnightblue" d="M1307.29,-923.94C1171.19,-919.05 857.6,-905.26 816,-881 677.25,-800.11 586.34,-705.57 652,-559 719.32,-408.74 780.48,-384.07 929,-313 1012.44,-273.07 1049.88,-315.48 1134,-277 1153.82,-267.93 1152.01,-254.69 1172,-246 1218.88,-225.61 1358.99,-211.83 1440.12,-205.32"/>
<polygon fill="midnightblue" stroke="midnightblue" points="1440.5,-208.8 1450.2,-204.52 1439.95,-201.82 1440.5,-208.8"/>
</g>
<!-- Node18&#45;&gt;Node4 -->
<g id="edge32" class="edge">
<title>Node18&#45;&gt;Node4</title>
<path fill="none" stroke="midnightblue" d="M1307.32,-925.28C1120.39,-922.81 568.78,-912.92 392,-881 299.19,-864.24 190,-910.31 190,-816 190,-816 190,-816 190,-506.5 190,-258.58 550.37,-129.95 669.95,-94.09"/>
<polygon fill="midnightblue" stroke="midnightblue" points="671.18,-97.38 679.78,-91.2 669.2,-90.67 671.18,-97.38"/>
</g>
<!-- Node18&#45;&gt;Node7 -->
<g id="edge31" class="edge">
<title>Node18&#45;&gt;Node7</title>
<path fill="none" stroke="midnightblue" d="M1432.71,-925.58C1727.42,-923.45 2963.72,-912.63 3039,-881 3307.03,-768.37 3382,-614.73 3382,-324 3382,-324 3382,-324 3382,-143 3382,-97.38 3353.73,-87.55 3313,-67 3232.86,-26.57 2958.16,-18.51 2854.25,-16.9"/>
<polygon fill="midnightblue" stroke="midnightblue" points="2854.21,-13.4 2844.16,-16.76 2854.11,-20.4 2854.21,-13.4"/>
</g>
<!-- Node18&#45;&gt;Node12 -->
<g id="edge30" class="edge">
<title>Node18&#45;&gt;Node12</title>
<path fill="none" stroke="midnightblue" d="M1307.23,-925.15C1080.38,-921.86 310.8,-908.75 204,-881 142.25,-864.95 76,-879.8 76,-816 76,-816 76,-816 76,-629.5 76,-544.25 38,-526.75 38,-441.5 38,-441.5 38,-441.5 38,-260.5 38,-157.39 74.08,-113.72 166,-67 196.83,-51.33 428.05,-27.82 513.98,-19.53"/>
<polygon fill="midnightblue" stroke="midnightblue" points="514.32,-23.01 523.94,-18.57 513.66,-16.04 514.32,-23.01"/>
</g>
<!-- Node19 -->
<g id="node19" class="node">
<title>Node19</title>
<g id="a_node19"><a xlink:title=" ">
<polygon fill="none" stroke="#bfbfbf" points="912.5,-369.5 912.5,-388.5 965.5,-388.5 965.5,-369.5 912.5,-369.5"/>
<text text-anchor="middle" x="939" y="-376.5" font-family="Helvetica,sans-Serif" font-size="10.00">cstddef</text>
</a>
</g>
</g>
<!-- Node18&#45;&gt;Node19 -->
<g id="edge33" class="edge">
<title>Node18&#45;&gt;Node19</title>
<path fill="none" stroke="midnightblue" d="M1307.27,-924.78C1174.53,-921.61 874.54,-911.17 840,-881 709.77,-767.25 774.69,-649.52 846,-492 859.94,-461.2 860.28,-450.9 882,-425 891.84,-413.26 905.19,-402.53 916.49,-394.49"/>
<polygon fill="midnightblue" stroke="midnightblue" points="918.73,-397.19 925.01,-388.65 914.78,-391.42 918.73,-397.19"/>
</g>
<!-- Node20 -->
<g id="node20" class="node">
<title>Node20</title>
<g id="a_node20"><a xlink:href="../../dd/d5f/serializer_8h.html" target="_top" xlink:title=" ">
<polygon fill="none" stroke="black" points="2128.5,-369.5 2128.5,-388.5 2241.5,-388.5 2241.5,-369.5 2128.5,-369.5"/>
<text text-anchor="middle" x="2185" y="-376.5" font-family="Helvetica,sans-Serif" font-size="10.00">includes/serializer.h</text>
</a>
</g>
</g>
<!-- Node18&#45;&gt;Node20 -->
<g id="edge35" class="edge">
<title>Node18&#45;&gt;Node20</title>
<path fill="none" stroke="midnightblue" d="M1432.8,-925.03C1653.46,-919.94 2380,-888.36 2380,-693 2380,-693 2380,-693 2380,-506.5 2380,-439.36 2297.64,-406.06 2239.97,-390.97"/>
<polygon fill="midnightblue" stroke="midnightblue" points="2240.78,-387.57 2230.23,-388.53 2239.08,-394.36 2240.78,-387.57"/>
</g>
<!-- Node53 -->
<g id="node30" class="node">
<title>Node53</title>
<g id="a_node30"><a xlink:href="../../d1/d8c/logger_8h.html" target="_top" xlink:title=" ">
<polygon fill="none" stroke="red" points="2514,-313.5 2514,-332.5 2634,-332.5 2634,-313.5 2514,-313.5"/>
<text text-anchor="middle" x="2574" y="-320.5" font-family="Helvetica,sans-Serif" font-size="10.00">input_output/logger.h</text>
</a>
</g>
</g>
<!-- Node18&#45;&gt;Node53 -->
<g id="edge170" class="edge">
<title>Node18&#45;&gt;Node53</title>
<path fill="none" stroke="midnightblue" d="M1432.98,-925.11C1732.9,-920.48 3002,-896.13 3002,-816 3002,-816 3002,-816 3002,-691 3002,-486.18 2716.05,-371 2611.61,-335.76"/>
<polygon fill="midnightblue" stroke="midnightblue" points="2612.68,-332.42 2602.08,-332.59 2610.47,-339.07 2612.68,-332.42"/>
</g>
<!-- Node57 -->
<g id="node31" class="node">
<title>Node57</title>
<g id="a_node31"><a xlink:href="../../de/db8/process__info_8h.html" target="_top" xlink:title=" ">
<polygon fill="none" stroke="black" points="1112.5,-682.5 1112.5,-701.5 1243.5,-701.5 1243.5,-682.5 1112.5,-682.5"/>
<text text-anchor="middle" x="1178" y="-689.5" font-family="Helvetica,sans-Serif" font-size="10.00">includes/process_info.h</text>
</a>
</g>
</g>
<!-- Node18&#45;&gt;Node57 -->
<g id="edge69" class="edge">
<title>Node18&#45;&gt;Node57</title>
<path fill="none" stroke="midnightblue" d="M1307.46,-921.03C1246.04,-912.43 1155.43,-888.98 1112,-825 1085.28,-785.64 1132.04,-733.94 1159.74,-708.5"/>
<polygon fill="midnightblue" stroke="midnightblue" points="1162.16,-711.04 1167.3,-701.77 1157.51,-705.81 1162.16,-711.04"/>
</g>
<!-- Node58 -->
<g id="node32" class="node">
<title>Node58</title>
<g id="a_node32"><a xlink:href="../../d1/d82/data__value__container_8h.html" target="_top" xlink:title=" ">
<polygon fill="none" stroke="black" points="1041.5,-615.5 1041.5,-645.5 1166.5,-645.5 1166.5,-615.5 1041.5,-615.5"/>
<text text-anchor="start" x="1049.5" y="-633.5" font-family="Helvetica,sans-Serif" font-size="10.00">containers/data_value</text>
<text text-anchor="middle" x="1104" y="-622.5" font-family="Helvetica,sans-Serif" font-size="10.00">_container.h</text>
</a>
</g>
</g>
<!-- Node18&#45;&gt;Node58 -->
<g id="edge101" class="edge">
<title>Node18&#45;&gt;Node58</title>
<path fill="none" stroke="midnightblue" d="M1307.22,-920.69C1260.85,-915.07 1197.03,-903.7 1145,-881 1099.78,-861.27 1055,-865.34 1055,-816 1055,-816 1055,-816 1055,-752.5 1055,-716.09 1074.3,-677.72 1088.68,-654.19"/>
<polygon fill="midnightblue" stroke="midnightblue" points="1091.69,-655.97 1094.08,-645.65 1085.78,-652.22 1091.69,-655.97"/>
</g>
<!-- Node59 -->
<g id="node33" class="node">
<title>Node59</title>
<g id="a_node33"><a xlink:href="../../da/d89/variable_8h.html" target="_top" xlink:title=" ">
<polygon fill="none" stroke="black" points="1374.5,-498 1374.5,-517 1493.5,-517 1493.5,-498 1374.5,-498"/>
<text text-anchor="middle" x="1434" y="-505" font-family="Helvetica,sans-Serif" font-size="10.00">containers/variable.h</text>
</a>
</g>
</g>
<!-- Node18&#45;&gt;Node59 -->
<g id="edge173" class="edge">
<title>Node18&#45;&gt;Node59</title>
<path fill="none" stroke="midnightblue" d="M1378.45,-917.44C1394.77,-899.96 1429,-858.26 1429,-816 1429,-816 1429,-816 1429,-752.5 1429,-675.37 1431.56,-656.12 1433,-579 1433.32,-561.6 1433.6,-541.78 1433.77,-527.59"/>
<polygon fill="midnightblue" stroke="midnightblue" points="1437.28,-527.23 1433.9,-517.18 1430.28,-527.14 1437.28,-527.23"/>
</g>
<!-- Node60 -->
<g id="node34" class="node">
<title>Node60</title>
<g id="a_node34"><a xlink:href="../../d3/dc3/variable__data_8h.html" target="_top" xlink:title=" ">
<polygon fill="none" stroke="red" points="1406,-431 1406,-450 1498,-450 1498,-431 1406,-431"/>
<text text-anchor="middle" x="1452" y="-438" font-family="Helvetica,sans-Serif" font-size="10.00">variable_data.h</text>
</a>
</g>
</g>
<!-- Node18&#45;&gt;Node60 -->
<g id="edge174" class="edge">
<title>Node18&#45;&gt;Node60</title>
<path fill="none" stroke="midnightblue" d="M1432.69,-923.63C1504.1,-917.17 1611,-894.42 1611,-816 1611,-816 1611,-816 1611,-691 1611,-633.67 1574.4,-629.36 1547,-579 1526.2,-540.76 1527.61,-527.2 1502,-492 1492.61,-479.09 1479.94,-466.33 1469.7,-456.86"/>
<polygon fill="midnightblue" stroke="midnightblue" points="1471.89,-454.13 1462.12,-450.04 1467.21,-459.33 1471.89,-454.13"/>
</g>
<!-- Node70 -->
<g id="node36" class="node">
<title>Node70</title>
<g id="a_node36"><a xlink:href="../../d8/d3b/mesh_8h.html" target="_top" xlink:title=" ">
<polygon fill="none" stroke="red" points="901,-805.5 901,-824.5 997,-824.5 997,-805.5 901,-805.5"/>
<text text-anchor="middle" x="949" y="-812.5" font-family="Helvetica,sans-Serif" font-size="10.00">includes/mesh.h</text>
</a>
</g>
</g>
<!-- Node18&#45;&gt;Node70 -->
<g id="edge102" class="edge">
<title>Node18&#45;&gt;Node70</title>
<path fill="none" stroke="midnightblue" d="M1307.46,-926.18C1239.58,-924.42 1129.09,-915.73 1041,-881 1011.92,-869.54 983.29,-847.05 965.88,-831.77"/>
<polygon fill="midnightblue" stroke="midnightblue" points="968.06,-829.02 958.28,-824.93 963.37,-834.22 968.06,-829.02"/>
</g>
<!-- Node74 -->
<g id="node37" class="node">
<title>Node74</title>
<g id="a_node37"><a xlink:href="../../d2/d58/pointer__vector__map_8h.html" target="_top" xlink:title=" ">
<polygon fill="none" stroke="red" points="484.5,-425.5 484.5,-455.5 589.5,-455.5 589.5,-425.5 484.5,-425.5"/>
<text text-anchor="start" x="492.5" y="-443.5" font-family="Helvetica,sans-Serif" font-size="10.00">containers/pointer</text>
<text text-anchor="middle" x="537" y="-432.5" font-family="Helvetica,sans-Serif" font-size="10.00">_vector_map.h</text>
</a>
</g>
</g>
<!-- Node18&#45;&gt;Node74 -->
<g id="edge168" class="edge">
<title>Node18&#45;&gt;Node74</title>
<path fill="none" stroke="midnightblue" d="M1307.42,-924.94C1100.6,-921.21 450.05,-907.4 414,-881 389.15,-862.81 390,-846.8 390,-816 390,-816 390,-816 390,-691 390,-594.65 472.38,-502.73 513.8,-462.61"/>
<polygon fill="midnightblue" stroke="midnightblue" points="516.43,-464.93 521.27,-455.51 511.61,-459.86 516.43,-464.93"/>
</g>
<!-- Node87 -->
<g id="node39" class="node">
<title>Node87</title>
<g id="a_node39"><a xlink:href="../../da/da4/master__slave__constraint_8h.html" target="_top" xlink:title=" ">
<polygon fill="none" stroke="red" points="1457,-738.5 1457,-768.5 1583,-768.5 1583,-738.5 1457,-738.5"/>
<text text-anchor="start" x="1465" y="-756.5" font-family="Helvetica,sans-Serif" font-size="10.00">includes/master_slave</text>
<text text-anchor="middle" x="1520" y="-745.5" font-family="Helvetica,sans-Serif" font-size="10.00">_constraint.h</text>
</a>
</g>
</g>
<!-- Node18&#45;&gt;Node87 -->
<g id="edge172" class="edge">
<title>Node18&#45;&gt;Node87</title>
<path fill="none" stroke="midnightblue" d="M1389.08,-917.39C1404.9,-909.56 1427.25,-896.84 1443,-881 1473.52,-850.31 1497.19,-805.29 1509.83,-778.05"/>
<polygon fill="midnightblue" stroke="midnightblue" points="1513.05,-779.43 1513.98,-768.88 1506.67,-776.55 1513.05,-779.43"/>
</g>
<!-- Node99 -->
<g id="node41" class="node">
<title>Node99</title>
<g id="a_node41"><a xlink:href="../../d0/dac/kratos__flags_8h.html" target="_top" xlink:title=" ">
<polygon fill="none" stroke="black" points="1930,-621 1930,-640 2058,-640 2058,-621 1930,-621"/>
<text text-anchor="middle" x="1994" y="-628" font-family="Helvetica,sans-Serif" font-size="10.00">includes/kratos_flags.h</text>
</a>
</g>
</g>
<!-- Node18&#45;&gt;Node99 -->
<g id="edge171" class="edge">
<title>Node18&#45;&gt;Node99</title>
<path fill="none" stroke="midnightblue" d="M1432.54,-922.58C1602.64,-912.46 2061,-879.32 2061,-816 2061,-816 2061,-816 2061,-752.5 2061,-720.05 2057.89,-710.3 2042,-682 2034.43,-668.52 2022.45,-655.91 2012.36,-646.66"/>
<polygon fill="midnightblue" stroke="midnightblue" points="2014.61,-643.98 2004.78,-640.02 2009.99,-649.24 2014.61,-643.98"/>
</g>
<!-- Node100 -->
<g id="node42" class="node">
<title>Node100</title>
<g id="a_node42"><a xlink:href="../../d3/dad/geometry__container_8h.html" target="_top" xlink:title=" ">
<polygon fill="none" stroke="black" points="2580,-492.5 2580,-522.5 2698,-522.5 2698,-492.5 2580,-492.5"/>
<text text-anchor="start" x="2588" y="-510.5" font-family="Helvetica,sans-Serif" font-size="10.00">containers/geometry</text>
<text text-anchor="middle" x="2639" y="-499.5" font-family="Helvetica,sans-Serif" font-size="10.00">_container.h</text>
</a>
</g>
</g>
<!-- Node18&#45;&gt;Node100 -->
<g id="edge138" class="edge">
<title>Node18&#45;&gt;Node100</title>
<path fill="none" stroke="midnightblue" d="M1432.72,-926.65C1585.09,-927.45 1986.61,-924.81 2318,-881 2451.96,-863.29 2615,-951.12 2615,-816 2615,-816 2615,-816 2615,-629.5 2615,-595.36 2624.31,-556.82 2631.33,-532.6"/>
<polygon fill="midnightblue" stroke="midnightblue" points="2634.73,-533.43 2634.26,-522.85 2628.03,-531.42 2634.73,-533.43"/>
</g>
<!-- Node101 -->
<g id="node43" class="node">
<title>Node101</title>
<g id="a_node43"><a xlink:href="../../da/d92/pointer__hash__map__set_8h.html" target="_top" xlink:title=" ">
<polygon fill="none" stroke="red" points="2868.5,-425.5 2868.5,-455.5 2973.5,-455.5 2973.5,-425.5 2868.5,-425.5"/>
<text text-anchor="start" x="2876.5" y="-443.5" font-family="Helvetica,sans-Serif" font-size="10.00">containers/pointer</text>
<text text-anchor="middle" x="2921" y="-432.5" font-family="Helvetica,sans-Serif" font-size="10.00">_hash_map_set.h</text>
</a>
</g>
</g>
<!-- Node18&#45;&gt;Node101 -->
<g id="edge169" class="edge">
<title>Node18&#45;&gt;Node101</title>
<path fill="none" stroke="midnightblue" d="M1432.64,-925.24C1729.66,-921.53 2983.24,-904.5 3016,-881 3041.02,-863.05 3040,-846.8 3040,-816 3040,-816 3040,-816 3040,-629.5 3040,-562.46 3017.75,-545.98 2978,-492 2969.83,-480.91 2958.88,-470.49 2948.75,-462.02"/>
<polygon fill="midnightblue" stroke="midnightblue" points="2950.86,-459.23 2940.88,-455.68 2946.47,-464.68 2950.86,-459.23"/>
</g>
<!-- Node102 -->
<g id="node44" class="node">
<title>Node102</title>
<g id="a_node44"><a xlink:href="../../d4/dfe/element_8h.html" target="_top" xlink:title=" ">
<polygon fill="none" stroke="red" points="1253,-805.5 1253,-824.5 1363,-824.5 1363,-805.5 1253,-805.5"/>
<text text-anchor="middle" x="1308" y="-812.5" font-family="Helvetica,sans-Serif" font-size="10.00">includes/element.h</text>
</a>
</g>
</g>
<!-- Node18&#45;&gt;Node102 -->
<g id="edge145" class="edge">
<title>Node18&#45;&gt;Node102</title>
<path fill="none" stroke="midnightblue" d="M1365.13,-917.37C1354.95,-899.3 1331.21,-857.18 1317.76,-833.31"/>
<polygon fill="midnightblue" stroke="midnightblue" points="1320.8,-831.58 1312.84,-824.59 1314.7,-835.02 1320.8,-831.58"/>
</g>
<!-- Node119 -->
<g id="node46" class="node">
<title>Node119</title>
<g id="a_node46"><a xlink:href="../../d7/d6c/condition_8h.html" target="_top" xlink:title=" ">
<polygon fill="none" stroke="red" points="1121,-805.5 1121,-824.5 1235,-824.5 1235,-805.5 1121,-805.5"/>
<text text-anchor="middle" x="1178" y="-812.5" font-family="Helvetica,sans-Serif" font-size="10.00">includes/condition.h</text>
</a>
</g>
</g>
<!-- Node18&#45;&gt;Node119 -->
<g id="edge150" class="edge">
<title>Node18&#45;&gt;Node119</title>
<path fill="none" stroke="midnightblue" d="M1354.93,-917.37C1321.71,-898.33 1241.91,-852.62 1201.83,-829.65"/>
<polygon fill="midnightblue" stroke="midnightblue" points="1203.41,-826.53 1193,-824.59 1199.93,-832.6 1203.41,-826.53"/>
</g>
<!-- Node120 -->
<g id="node47" class="node">
<title>Node120</title>
<g id="a_node47"><a xlink:href="../../d8/d75/communicator_8h.html" target="_top" xlink:title=" ">
<polygon fill="none" stroke="black" points="849.5,-861.5 849.5,-880.5 988.5,-880.5 988.5,-861.5 849.5,-861.5"/>
<text text-anchor="middle" x="919" y="-868.5" font-family="Helvetica,sans-Serif" font-size="10.00">includes/communicator.h</text>
</a>
</g>
</g>
<!-- Node18&#45;&gt;Node120 -->
<g id="edge153" class="edge">
<title>Node18&#45;&gt;Node120</title>
<path fill="none" stroke="midnightblue" d="M1307.29,-918.49C1226.65,-908.84 1086.55,-892.06 998.51,-881.52"/>
<polygon fill="midnightblue" stroke="midnightblue" points="998.92,-878.04 988.57,-880.33 998.09,-884.99 998.92,-878.04"/>
</g>
<!-- Node104 -->
<g id="node48" class="node">
<title>Node104</title>
<g id="a_node48"><a xlink:href="../../dd/d98/table_8h.html" target="_top" xlink:title=" ">
<polygon fill="none" stroke="black" points="1330,-559.5 1330,-578.5 1424,-578.5 1424,-559.5 1330,-559.5"/>
<text text-anchor="middle" x="1377" y="-566.5" font-family="Helvetica,sans-Serif" font-size="10.00">includes/table.h</text>
</a>
</g>
</g>
<!-- Node18&#45;&gt;Node104 -->
<g id="edge162" class="edge">
<title>Node18&#45;&gt;Node104</title>
<path fill="none" stroke="midnightblue" d="M1370.17,-917.35C1370.52,-899.9 1371.33,-859.19 1372,-825 1373.74,-736.78 1375.8,-631.4 1376.63,-589.02"/>
<polygon fill="midnightblue" stroke="midnightblue" points="1380.13,-588.87 1376.83,-578.81 1373.13,-588.74 1380.13,-588.87"/>
</g>
<!-- Node20&#45;&gt;Node2 -->
<g id="edge45" class="edge">
<title>Node20&#45;&gt;Node2</title>
<path fill="none" stroke="midnightblue" d="M2128.42,-369.85C2063.08,-360.16 1959.76,-343.95 1922,-333 1899.8,-326.57 1895.55,-321.36 1874,-313 1829.96,-295.91 1815.11,-300.26 1774,-277 1755.03,-266.27 1755.75,-255.21 1736,-246 1720.19,-238.63 1624.25,-221.67 1559.67,-210.81"/>
<polygon fill="midnightblue" stroke="midnightblue" points="1560.03,-207.32 1549.59,-209.12 1558.87,-214.22 1560.03,-207.32"/>
</g>
<!-- Node20&#45;&gt;Node4 -->
<g id="edge43" class="edge">
<title>Node20&#45;&gt;Node4</title>
<path fill="none" stroke="midnightblue" d="M2128.49,-374.25C2052.72,-368.59 1914.29,-355.99 1798,-333 1765.84,-326.64 1759.37,-318.17 1727,-313 1632.78,-297.96 954.53,-319.31 869,-277 868.84,-276.92 760.64,-146.8 721.73,-100.01"/>
<polygon fill="midnightblue" stroke="midnightblue" points="724.2,-97.51 715.12,-92.06 718.82,-101.99 724.2,-97.51"/>
</g>
<!-- Node20&#45;&gt;Node7 -->
<g id="edge38" class="edge">
<title>Node20&#45;&gt;Node7</title>
<path fill="none" stroke="midnightblue" d="M2241.73,-373.2C2292.16,-367.61 2367.25,-356.04 2429,-333 2569.14,-280.71 2608.56,-260.1 2714,-154 2752.17,-115.59 2786.99,-61.61 2803.66,-34.11"/>
<polygon fill="midnightblue" stroke="midnightblue" points="2806.83,-35.63 2808.95,-25.25 2800.82,-32.04 2806.83,-35.63"/>
</g>
<!-- Node20&#45;&gt;Node12 -->
<g id="edge36" class="edge">
<title>Node20&#45;&gt;Node12</title>
<path fill="none" stroke="midnightblue" d="M2133.03,-369.49C2090.53,-361.88 2029.16,-349.4 1977,-333 1881.41,-302.95 1863.87,-278.26 1769,-246 1407.2,-122.97 1305.14,-128.68 928,-67 798.86,-45.88 644.04,-27.55 578.18,-20.08"/>
<polygon fill="midnightblue" stroke="midnightblue" points="578.36,-16.58 568.03,-18.93 577.58,-23.53 578.36,-16.58"/>
</g>
<!-- Node20&#45;&gt;Node17 -->
<g id="edge40" class="edge">
<title>Node20&#45;&gt;Node17</title>
<path fill="none" stroke="midnightblue" d="M2241.55,-374.27C2391.11,-364.39 2795.88,-337.67 2945.98,-327.76"/>
<polygon fill="midnightblue" stroke="midnightblue" points="2946.59,-331.23 2956.34,-327.08 2946.13,-324.25 2946.59,-331.23"/>
</g>
<!-- Node21 -->
<g id="node21" class="node">
<title>Node21</title>
<g id="a_node21"><a xlink:title=" ">
<polygon fill="none" stroke="#bfbfbf" points="2320,-313.5 2320,-332.5 2370,-332.5 2370,-313.5 2320,-313.5"/>
<text text-anchor="middle" x="2345" y="-320.5" font-family="Helvetica,sans-Serif" font-size="10.00">cstring</text>
</a>
</g>
</g>
<!-- Node20&#45;&gt;Node21 -->
<g id="edge37" class="edge">
<title>Node20&#45;&gt;Node21</title>
<path fill="none" stroke="midnightblue" d="M2210.35,-369.44C2237.27,-360.36 2280,-345.94 2310.09,-335.78"/>
<polygon fill="midnightblue" stroke="midnightblue" points="2311.41,-339.03 2319.77,-332.52 2309.17,-332.4 2311.41,-339.03"/>
</g>
<!-- Node22 -->
<g id="node22" class="node">
<title>Node22</title>
<g id="a_node22"><a xlink:title=" ">
<polygon fill="none" stroke="#bfbfbf" points="1680,-313.5 1680,-332.5 1718,-332.5 1718,-313.5 1680,-313.5"/>
<text text-anchor="middle" x="1699" y="-320.5" font-family="Helvetica,sans-Serif" font-size="10.00">map</text>
</a>
</g>
</g>
<!-- Node20&#45;&gt;Node22 -->
<g id="edge39" class="edge">
<title>Node20&#45;&gt;Node22</title>
<path fill="none" stroke="midnightblue" d="M2128.24,-372.17C2048.28,-363.89 1897.94,-348.04 1770,-333 1756.31,-331.39 1741.15,-329.49 1728.37,-327.84"/>
<polygon fill="midnightblue" stroke="midnightblue" points="1728.64,-324.35 1718.27,-326.54 1727.74,-331.29 1728.64,-324.35"/>
</g>
<!-- Node23 -->
<g id="node23" class="node">
<title>Node23</title>
<g id="a_node23"><a xlink:title=" ">
<polygon fill="none" stroke="#bfbfbf" points="2388,-313.5 2388,-332.5 2420,-332.5 2420,-313.5 2388,-313.5"/>
<text text-anchor="middle" x="2404" y="-320.5" font-family="Helvetica,sans-Serif" font-size="10.00">set</text>
</a>
</g>
</g>
<!-- Node20&#45;&gt;Node23 -->
<g id="edge41" class="edge">
<title>Node20&#45;&gt;Node23</title>
<path fill="none" stroke="midnightblue" d="M2228.53,-369.43C2265.93,-361.73 2321.45,-349.49 2378.11,-333"/>
<polygon fill="midnightblue" stroke="midnightblue" points="2379.35,-336.28 2387.95,-330.09 2377.37,-329.57 2379.35,-336.28"/>
</g>
<!-- Node24 -->
<g id="node24" class="node">
<title>Node24</title>
<g id="a_node24"><a xlink:title=" ">
<polygon fill="none" stroke="#bfbfbf" points="2142,-313.5 2142,-332.5 2228,-332.5 2228,-313.5 2142,-313.5"/>
<text text-anchor="middle" x="2185" y="-320.5" font-family="Helvetica,sans-Serif" font-size="10.00">unordered_set</text>
</a>
</g>
</g>
<!-- Node20&#45;&gt;Node24 -->
<g id="edge42" class="edge">
<title>Node20&#45;&gt;Node24</title>
<path fill="none" stroke="midnightblue" d="M2185,-369.08C2185,-362.01 2185,-351.86 2185,-342.99"/>
<polygon fill="midnightblue" stroke="midnightblue" points="2188.5,-342.75 2185,-332.75 2181.5,-342.75 2188.5,-342.75"/>
</g>
<!-- Node25 -->
<g id="node25" class="node">
<title>Node25</title>
<g id="a_node25"><a xlink:title=" ">
<polygon fill="none" stroke="#bfbfbf" points="2246.5,-313.5 2246.5,-332.5 2301.5,-332.5 2301.5,-313.5 2246.5,-313.5"/>
<text text-anchor="middle" x="2274" y="-320.5" font-family="Helvetica,sans-Serif" font-size="10.00">fstream</text>
</a>
</g>
</g>
<!-- Node20&#45;&gt;Node25 -->
<g id="edge44" class="edge">
<title>Node20&#45;&gt;Node25</title>
<path fill="none" stroke="midnightblue" d="M2199.3,-369.32C2213.18,-360.9 2234.49,-347.97 2250.8,-338.07"/>
<polygon fill="midnightblue" stroke="midnightblue" points="2253,-340.83 2259.74,-332.65 2249.37,-334.85 2253,-340.83"/>
</g>
<!-- Node26 -->
<g id="node26" class="node">
<title>Node26</title>
<g id="a_node26"><a xlink:href="../../d9/da0/flags_8h.html" target="_top" xlink:title=" ">
<polygon fill="none" stroke="black" points="1444.5,-313.5 1444.5,-332.5 1547.5,-332.5 1547.5,-313.5 1444.5,-313.5"/>
<text text-anchor="middle" x="1496" y="-320.5" font-family="Helvetica,sans-Serif" font-size="10.00">containers/flags.h</text>
</a>
</g>
</g>
<!-- Node20&#45;&gt;Node26 -->
<g id="edge46" class="edge">
<title>Node20&#45;&gt;Node26</title>
<path fill="none" stroke="midnightblue" d="M2128.32,-373.56C2000.48,-363.54 1690.5,-339.24 1557.88,-328.85"/>
<polygon fill="midnightblue" stroke="midnightblue" points="1558.12,-325.36 1547.88,-328.07 1557.57,-332.34 1558.12,-325.36"/>
</g>
<!-- Node27 -->
<g id="node27" class="node">
<title>Node27</title>
<g id="a_node27"><a xlink:href="../../d9/d3e/ublas__interface_8h.html" target="_top" xlink:title=" ">
<polygon fill="none" stroke="red" points="1902,-252 1902,-271 2046,-271 2046,-252 1902,-252"/>
<text text-anchor="middle" x="1974" y="-259" font-family="Helvetica,sans-Serif" font-size="10.00">includes/ublas_interface.h</text>
</a>
</g>
</g>
<!-- Node20&#45;&gt;Node27 -->
<g id="edge50" class="edge">
<title>Node20&#45;&gt;Node27</title>
<path fill="none" stroke="midnightblue" d="M2128.31,-371.2C2078.86,-364.14 2012.13,-351.51 1993,-333 1979.22,-319.67 1975.09,-297.47 1974.02,-281.55"/>
<polygon fill="midnightblue" stroke="midnightblue" points="1977.51,-281.15 1973.68,-271.27 1970.51,-281.38 1977.51,-281.15"/>
</g>
<!-- Node43 -->
<g id="node28" class="node">
<title>Node43</title>
<g id="a_node28"><a xlink:href="../../d9/d36/array__1d_8h.html" target="_top" xlink:title=" ">
<polygon fill="none" stroke="red" points="2002,-313.5 2002,-332.5 2124,-332.5 2124,-313.5 2002,-313.5"/>
<text text-anchor="middle" x="2063" y="-320.5" font-family="Helvetica,sans-Serif" font-size="10.00">containers/array_1d.h</text>
</a>
</g>
</g>
<!-- Node20&#45;&gt;Node43 -->
<g id="edge54" class="edge">
<title>Node20&#45;&gt;Node43</title>
<path fill="none" stroke="midnightblue" d="M2165.67,-369.44C2145.68,-360.6 2114.26,-346.69 2091.44,-336.59"/>
<polygon fill="midnightblue" stroke="midnightblue" points="2092.8,-333.36 2082.24,-332.52 2089.97,-339.76 2092.8,-333.36"/>
</g>
<!-- Node49 -->
<g id="node29" class="node">
<title>Node49</title>
<g id="a_node29"><a xlink:href="../../d5/d10/weak__pointer__vector_8h.html" target="_top" xlink:title=" ">
<polygon fill="none" stroke="red" points="878.5,-246.5 878.5,-276.5 1015.5,-276.5 1015.5,-246.5 878.5,-246.5"/>
<text text-anchor="start" x="886.5" y="-264.5" font-family="Helvetica,sans-Serif" font-size="10.00">containers/weak_pointer</text>
<text text-anchor="middle" x="947" y="-253.5" font-family="Helvetica,sans-Serif" font-size="10.00">_vector.h</text>
</a>
</g>
</g>
<!-- Node20&#45;&gt;Node49 -->
<g id="edge59" class="edge">
<title>Node20&#45;&gt;Node49</title>
<path fill="none" stroke="midnightblue" d="M2128.46,-370.92C2067.8,-363.01 1968.73,-349.16 1884,-333 1845.45,-325.65 1836.84,-318.63 1798,-313 1515.75,-272.11 1176.24,-264.16 1025.6,-262.73"/>
<polygon fill="midnightblue" stroke="midnightblue" points="1025.54,-259.23 1015.51,-262.65 1025.48,-266.23 1025.54,-259.23"/>
</g>
<!-- Node20&#45;&gt;Node53 -->
<g id="edge65" class="edge">
<title>Node20&#45;&gt;Node53</title>
<path fill="none" stroke="midnightblue" d="M2241.56,-370.15C2310.9,-360.52 2428.4,-344.21 2503.54,-333.78"/>
<polygon fill="midnightblue" stroke="midnightblue" points="2504.43,-337.19 2513.85,-332.35 2503.46,-330.26 2504.43,-337.19"/>
</g>
<!-- Node26&#45;&gt;Node2 -->
<g id="edge49" class="edge">
<title>Node26&#45;&gt;Node2</title>
<path fill="none" stroke="midnightblue" d="M1500.62,-313.34C1505.06,-304.49 1511.45,-290.22 1514,-277 1516.61,-263.47 1516.07,-259.62 1514,-246 1512.63,-237 1509.81,-227.33 1507.05,-219.26"/>
<polygon fill="midnightblue" stroke="midnightblue" points="1510.31,-217.98 1503.6,-209.78 1503.73,-220.37 1510.31,-217.98"/>
</g>
<!-- Node26&#45;&gt;Node7 -->
<g id="edge48" class="edge">
<title>Node26&#45;&gt;Node7</title>
<path fill="none" stroke="midnightblue" d="M1537.33,-313.48C1609.38,-298.76 1762.75,-268.04 1893,-246 2031.42,-222.57 2391.54,-214.95 2518,-154 2568.99,-129.43 2561.27,-94.03 2611,-67 2663.03,-38.72 2731.13,-25.98 2773.73,-20.45"/>
<polygon fill="midnightblue" stroke="midnightblue" points="2774.22,-23.92 2783.72,-19.23 2773.37,-16.97 2774.22,-23.92"/>
</g>
<!-- Node26&#45;&gt;Node12 -->
<g id="edge47" class="edge">
<title>Node26&#45;&gt;Node12</title>
<path fill="none" stroke="midnightblue" d="M1444.48,-321.43C1302.81,-319.43 914.78,-310.88 869,-277 788.59,-217.49 864.24,-131.77 788,-67 756.67,-40.38 636.71,-25.32 578.31,-19.43"/>
<polygon fill="midnightblue" stroke="midnightblue" points="578.45,-15.93 568.16,-18.43 577.77,-22.89 578.45,-15.93"/>
</g>
<!-- Node27&#45;&gt;Node2 -->
<g id="edge53" class="edge">
<title>Node27&#45;&gt;Node2</title>
<path fill="none" stroke="midnightblue" d="M1906.09,-251.98C1813.26,-240.32 1648.21,-219.6 1559.81,-208.51"/>
<polygon fill="midnightblue" stroke="midnightblue" points="1560.04,-205.01 1549.68,-207.24 1559.17,-211.95 1560.04,-205.01"/>
</g>
<!-- Node27&#45;&gt;Node7 -->
<g id="edge52" class="edge">
<title>Node27&#45;&gt;Node7</title>
<path fill="none" stroke="midnightblue" d="M2046.36,-261.11C2162.01,-259.18 2392.68,-243.27 2562,-154 2610.09,-128.64 2601.46,-95.1 2648,-67 2687.43,-43.19 2738.98,-29.81 2774.1,-22.89"/>
<polygon fill="midnightblue" stroke="midnightblue" points="2774.82,-26.32 2784,-21.03 2773.52,-19.44 2774.82,-26.32"/>
</g>
<!-- Node27&#45;&gt;Node12 -->
<g id="edge51" class="edge">
<title>Node27&#45;&gt;Node12</title>
<path fill="none" stroke="midnightblue" d="M1938.05,-251.99C1861.59,-233.46 1685.69,-188.34 1635,-154 1593.68,-126.01 1608.54,-89.51 1564,-67 1474.36,-21.7 743.06,-17.03 578.71,-16.55"/>
<polygon fill="midnightblue" stroke="midnightblue" points="578.3,-13.05 568.29,-16.53 578.28,-20.05 578.3,-13.05"/>
</g>
<!-- Node43&#45;&gt;Node2 -->
<g id="edge57" class="edge">
<title>Node43&#45;&gt;Node2</title>
<path fill="none" stroke="midnightblue" d="M2030.7,-313.46C1956.64,-293.9 1780.41,-247.37 1774,-246 1700.76,-230.39 1615.53,-217.16 1559.81,-209.16"/>
<polygon fill="midnightblue" stroke="midnightblue" points="1560.16,-205.68 1549.76,-207.73 1559.17,-212.61 1560.16,-205.68"/>
</g>
<!-- Node43&#45;&gt;Node7 -->
<g id="edge56" class="edge">
<title>Node43&#45;&gt;Node7</title>
<path fill="none" stroke="midnightblue" d="M2124.17,-313.64C2227.52,-297.2 2440.07,-253.27 2590,-154 2638.01,-122.21 2637.09,-97.39 2686,-67 2713.62,-49.84 2748.05,-36.65 2774.25,-28.06"/>
<polygon fill="midnightblue" stroke="midnightblue" points="2775.39,-31.37 2783.85,-25 2773.26,-24.7 2775.39,-31.37"/>
</g>
<!-- Node43&#45;&gt;Node12 -->
<g id="edge55" class="edge">
<title>Node43&#45;&gt;Node12</title>
<path fill="none" stroke="midnightblue" d="M2064.94,-313.28C2067.83,-297.76 2071.33,-265.2 2055,-246 1954.11,-127.42 1850.26,-234.5 1717,-154 1671.78,-126.68 1683.94,-89.2 1636,-67 1537.97,-21.6 749.22,-17.01 578.51,-16.55"/>
<polygon fill="midnightblue" stroke="midnightblue" points="578.4,-13.05 568.39,-16.53 578.38,-20.05 578.4,-13.05"/>
</g>
<!-- Node43&#45;&gt;Node27 -->
<g id="edge58" class="edge">
<title>Node43&#45;&gt;Node27</title>
<path fill="none" stroke="midnightblue" d="M2050.25,-313.48C2035.97,-303.93 2012.6,-288.31 1995.49,-276.87"/>
<polygon fill="midnightblue" stroke="midnightblue" points="1996.99,-273.66 1986.73,-271.01 1993.1,-279.48 1996.99,-273.66"/>
</g>
<!-- Node49&#45;&gt;Node2 -->
<g id="edge64" class="edge">
<title>Node49&#45;&gt;Node2</title>
<path fill="none" stroke="midnightblue" d="M1015.77,-248.02C1020.58,-247.29 1025.36,-246.61 1030,-246 1209.61,-222.39 1256.02,-230.62 1436,-210 1437.46,-209.83 1438.94,-209.66 1440.44,-209.48"/>
<polygon fill="midnightblue" stroke="midnightblue" points="1440.93,-212.94 1450.42,-208.23 1440.06,-206 1440.93,-212.94"/>
</g>
<!-- Node49&#45;&gt;Node4 -->
<g id="edge62" class="edge">
<title>Node49&#45;&gt;Node4</title>
<path fill="none" stroke="midnightblue" d="M936.48,-246.17C917.12,-220.64 873.46,-166.89 826,-134 801.37,-116.93 770.06,-103.86 745.88,-95.3"/>
<polygon fill="midnightblue" stroke="midnightblue" points="746.92,-91.96 736.33,-92.02 744.65,-98.58 746.92,-91.96"/>
</g>
<!-- Node49&#45;&gt;Node7 -->
<g id="edge61" class="edge">
<title>Node49&#45;&gt;Node7</title>
<path fill="none" stroke="midnightblue" d="M1015.85,-248.15C1111.05,-231.64 1288.43,-202.98 1441,-190 1557.2,-180.11 2383.73,-202.05 2490,-154 2538.42,-132.11 2525.64,-92.96 2572,-67 2636.33,-30.99 2723.29,-20.57 2773.55,-17.61"/>
<polygon fill="midnightblue" stroke="midnightblue" points="2773.89,-21.09 2783.69,-17.08 2773.52,-14.1 2773.89,-21.09"/>
</g>
<!-- Node49&#45;&gt;Node12 -->
<g id="edge60" class="edge">
<title>Node49&#45;&gt;Node12</title>
<path fill="none" stroke="midnightblue" d="M948.54,-246.47C951.62,-210.58 954.26,-114.88 902,-67 855.07,-24.01 657.04,-17.47 578.39,-16.58"/>
<polygon fill="midnightblue" stroke="midnightblue" points="578.15,-13.08 568.11,-16.49 578.08,-20.08 578.15,-13.08"/>
</g>
<!-- Node49&#45;&gt;Node13 -->
<g id="edge63" class="edge">
<title>Node49&#45;&gt;Node13</title>
<path fill="none" stroke="midnightblue" d="M912.67,-246.33C806.8,-202.62 486.48,-70.37 386.29,-29.01"/>
<polygon fill="midnightblue" stroke="midnightblue" points="387.34,-25.65 376.77,-25.07 384.67,-32.12 387.34,-25.65"/>
</g>
<!-- Node53&#45;&gt;Node7 -->
<g id="edge67" class="edge">
<title>Node53&#45;&gt;Node7</title>
<path fill="none" stroke="midnightblue" d="M2634.16,-314.68C2661.46,-308.59 2692.39,-297.44 2714,-277 2732.72,-259.29 2789.42,-91 2808.02,-34.73"/>
<polygon fill="midnightblue" stroke="midnightblue" points="2811.41,-35.64 2811.21,-25.04 2804.76,-33.45 2811.41,-35.64"/>
</g>
<!-- Node53&#45;&gt;Node11 -->
<g id="edge68" class="edge">
<title>Node53&#45;&gt;Node11</title>
<path fill="none" stroke="midnightblue" d="M2549.58,-313.34C2482.69,-289.94 2290.59,-224.89 2126,-190 2032.79,-170.24 1923.3,-157.63 1854.04,-150.94"/>
<polygon fill="midnightblue" stroke="midnightblue" points="1853.98,-147.41 1843.69,-149.95 1853.32,-154.38 1853.98,-147.41"/>
</g>
<!-- Node53&#45;&gt;Node12 -->
<g id="edge66" class="edge">
<title>Node53&#45;&gt;Node12</title>
<path fill="none" stroke="midnightblue" d="M2519.97,-313.48C2339.59,-284.81 1765.29,-191.5 1690,-154 1638.46,-128.33 1647.21,-89.01 1594,-67 1498.26,-27.4 745.01,-18.3 578.5,-16.77"/>
<polygon fill="midnightblue" stroke="midnightblue" points="578.43,-13.27 568.4,-16.68 578.37,-20.26 578.43,-13.27"/>
</g>
<!-- Node57&#45;&gt;Node2 -->
<g id="edge74" class="edge">
<title>Node57&#45;&gt;Node2</title>
<path fill="none" stroke="midnightblue" d="M1177.53,-682.26C1175.62,-638.76 1171.83,-442.56 1250,-313 1256.17,-302.78 1323.35,-251.4 1334,-246 1367.31,-229.12 1407.69,-217.99 1440.29,-211.03"/>
<polygon fill="midnightblue" stroke="midnightblue" points="1441.05,-214.44 1450.14,-209 1439.63,-207.59 1441.05,-214.44"/>
</g>
<!-- Node57&#45;&gt;Node4 -->
<g id="edge72" class="edge">
<title>Node57&#45;&gt;Node4</title>
<path fill="none" stroke="midnightblue" d="M1112.42,-689.46C972.22,-684.39 656,-662.68 656,-570 656,-570 656,-570 656,-378 656,-272 689.07,-147.76 702.47,-101.79"/>
<polygon fill="midnightblue" stroke="midnightblue" points="705.86,-102.66 705.35,-92.07 699.15,-100.67 705.86,-102.66"/>
</g>
<!-- Node57&#45;&gt;Node7 -->
<g id="edge71" class="edge">
<title>Node57&#45;&gt;Node7</title>
<path fill="none" stroke="midnightblue" d="M1239.35,-682.45C1447.86,-652.66 2147.53,-546.54 2709,-389 2788.44,-366.71 2816.71,-377.79 2886,-333 2952.08,-290.28 3004,-279.69 3004,-201 3004,-201 3004,-201 3004,-143 3004,-71.56 2909.78,-38 2854.03,-24.4"/>
<polygon fill="midnightblue" stroke="midnightblue" points="2854.64,-20.95 2844.11,-22.09 2853.05,-27.77 2854.64,-20.95"/>
</g>
<!-- Node57&#45;&gt;Node12 -->
<g id="edge70" class="edge">
<title>Node57&#45;&gt;Node12</title>
<path fill="none" stroke="midnightblue" d="M1112.46,-688.62C997.67,-683.84 765.11,-671.31 688,-646 532.66,-595.01 490.8,-569.37 373,-456 248.21,-335.91 227.39,-189.32 350,-67 372.89,-44.17 464.13,-28.07 513.64,-20.82"/>
<polygon fill="midnightblue" stroke="midnightblue" points="514.42,-24.24 523.82,-19.37 513.43,-17.31 514.42,-24.24"/>
</g>
<!-- Node57&#45;&gt;Node19 -->
<g id="edge73" class="edge">
<title>Node57&#45;&gt;Node19</title>
<path fill="none" stroke="midnightblue" d="M1112.38,-684.97C1084.16,-679.14 1052.92,-667.83 1032,-646 961.73,-572.69 1018.98,-516.04 974,-425 968.86,-414.59 961.08,-404.28 954.17,-396.16"/>
<polygon fill="midnightblue" stroke="midnightblue" points="956.68,-393.71 947.42,-388.57 951.45,-398.37 956.68,-393.71"/>
</g>
<!-- Node57&#45;&gt;Node26 -->
<g id="edge100" class="edge">
<title>Node57&#45;&gt;Node26</title>
<path fill="none" stroke="midnightblue" d="M1184.91,-682.04C1211.42,-647.83 1309.43,-522.44 1397,-425 1424.98,-393.86 1459.61,-359.4 1479.61,-339.85"/>
<polygon fill="midnightblue" stroke="midnightblue" points="1482.27,-342.15 1486.99,-332.67 1477.39,-337.13 1482.27,-342.15"/>
</g>
<!-- Node57&#45;&gt;Node58 -->
<g id="edge75" class="edge">
<title>Node57&#45;&gt;Node58</title>
<path fill="none" stroke="midnightblue" d="M1167.4,-682.48C1157.56,-674.57 1142.54,-662.48 1129.58,-652.07"/>
<polygon fill="midnightblue" stroke="midnightblue" points="1131.43,-649.06 1121.44,-645.52 1127.04,-654.52 1131.43,-649.06"/>
</g>
<!-- Node58&#45;&gt;Node2 -->
<g id="edge80" class="edge">
<title>Node58&#45;&gt;Node2</title>
<path fill="none" stroke="midnightblue" d="M1105.94,-615.27C1112.94,-568.22 1140.33,-414.85 1212,-313 1225.74,-293.47 1274.45,-256.28 1296,-246 1341.66,-224.21 1398.13,-212.81 1440.08,-206.94"/>
<polygon fill="midnightblue" stroke="midnightblue" points="1440.69,-210.39 1450.14,-205.6 1439.77,-203.45 1440.69,-210.39"/>
</g>
<!-- Node58&#45;&gt;Node7 -->
<g id="edge77" class="edge">
<title>Node58&#45;&gt;Node7</title>
<path fill="none" stroke="midnightblue" d="M1166.92,-628.11C1437.85,-621.72 2505.96,-592.55 2834,-523 2917.51,-505.3 2942.71,-502.95 3014,-456 3053.91,-429.72 3192,-279.71 3192,-262.5 3192,-262.5 3192,-262.5 3192,-143 3192,-88.58 3145.61,-89.36 3096,-67 3015.49,-30.71 2911,-20.47 2854.53,-17.6"/>
<polygon fill="midnightblue" stroke="midnightblue" points="2854.38,-14.09 2844.23,-17.13 2854.06,-21.08 2854.38,-14.09"/>
</g>
<!-- Node58&#45;&gt;Node11 -->
<g id="edge99" class="edge">
<title>Node58&#45;&gt;Node11</title>
<path fill="none" stroke="midnightblue" d="M1101.73,-615.29C1095.66,-580.44 1076.58,-488.92 1035,-425 981.1,-342.15 909.81,-367.02 869,-277 863.31,-264.45 859.97,-256.41 869,-246 924.4,-182.16 1512.53,-154.9 1716.11,-147.32"/>
<polygon fill="midnightblue" stroke="midnightblue" points="1716.51,-150.81 1726.38,-146.94 1716.26,-143.81 1716.51,-150.81"/>
</g>
<!-- Node58&#45;&gt;Node12 -->
<g id="edge76" class="edge">
<title>Node58&#45;&gt;Node12</title>
<path fill="none" stroke="midnightblue" d="M1083.49,-615.31C1019.46,-570.45 819.3,-425.79 681,-277 656.06,-250.17 653.58,-240.31 633,-210 600.03,-161.44 584.54,-152.61 563,-98 554.9,-77.46 550.41,-52.42 548.11,-35.56"/>
<polygon fill="midnightblue" stroke="midnightblue" points="551.55,-34.84 546.85,-25.35 544.6,-35.7 551.55,-34.84"/>
</g>
<!-- Node58&#45;&gt;Node13 -->
<g id="edge79" class="edge">
<title>Node58&#45;&gt;Node13</title>
<path fill="none" stroke="midnightblue" d="M1041.37,-623.65C911.19,-609.59 604.26,-566.5 373,-456 292.39,-417.48 260.89,-409.05 214,-333 151.35,-231.4 166.09,-150.89 251,-67 271.06,-47.19 300.4,-33.98 322.97,-26.06"/>
<polygon fill="midnightblue" stroke="midnightblue" points="324.11,-29.36 332.49,-22.88 321.9,-22.72 324.11,-29.36"/>
</g>
<!-- Node58&#45;&gt;Node19 -->
<g id="edge78" class="edge">
<title>Node58&#45;&gt;Node19</title>
<path fill="none" stroke="midnightblue" d="M1088.72,-615.29C1079.3,-605.8 1067.6,-592.6 1060,-579 1025.04,-516.41 1055.97,-481.62 1012,-425 1001.21,-411.11 984.84,-400.46 970.33,-393.01"/>
<polygon fill="midnightblue" stroke="midnightblue" points="971.67,-389.77 961.14,-388.58 968.63,-396.08 971.67,-389.77"/>
</g>
<!-- Node58&#45;&gt;Node59 -->
<g id="edge81" class="edge">
<title>Node58&#45;&gt;Node59</title>
<path fill="none" stroke="midnightblue" d="M1142.5,-615.38C1207.89,-591.41 1339.52,-543.14 1400.98,-520.61"/>
<polygon fill="midnightblue" stroke="midnightblue" points="1402.38,-523.82 1410.57,-517.09 1399.97,-517.25 1402.38,-523.82"/>
</g>
<!-- Node62 -->
<g id="node35" class="node">
<title>Node62</title>
<g id="a_node35"><a xlink:href="../../dc/d8e/kratos__components_8h.html" target="_top" xlink:title=" ">
<polygon fill="none" stroke="red" points="1556.5,-559.5 1556.5,-578.5 1721.5,-578.5 1721.5,-559.5 1556.5,-559.5"/>
<text text-anchor="middle" x="1639" y="-566.5" font-family="Helvetica,sans-Serif" font-size="10.00">includes/kratos_components.h</text>
</a>
</g>
</g>
<!-- Node58&#45;&gt;Node62 -->
<g id="edge92" class="edge">
<title>Node58&#45;&gt;Node62</title>
<path fill="none" stroke="midnightblue" d="M1166.68,-622.53C1262.11,-611.92 1444.12,-591.67 1552.21,-579.65"/>
<polygon fill="midnightblue" stroke="midnightblue" points="1552.88,-583.1 1562.43,-578.52 1552.11,-576.14 1552.88,-583.1"/>
</g>
<!-- Node59&#45;&gt;Node2 -->
<g id="edge84" class="edge">
<title>Node59&#45;&gt;Node2</title>
<path fill="none" stroke="midnightblue" d="M1424.99,-497.82C1415.99,-488.46 1402.68,-472.67 1397,-456 1376.5,-395.83 1375.79,-373.91 1394,-313 1404.21,-278.87 1413.41,-271.77 1438,-246 1449.45,-234 1464.46,-223.01 1476.85,-214.9"/>
<polygon fill="midnightblue" stroke="midnightblue" points="1478.74,-217.84 1485.31,-209.52 1474.99,-211.93 1478.74,-217.84"/>
</g>
<!-- Node59&#45;&gt;Node7 -->
<g id="edge83" class="edge">
<title>Node59&#45;&gt;Node7</title>
<path fill="none" stroke="midnightblue" d="M1493.54,-503.56C1645.27,-495.89 2043.73,-474.56 2175,-456 2431.18,-419.78 2505.25,-432.71 2744,-333 2796.89,-310.91 2852,-319.82 2852,-262.5 2852,-262.5 2852,-262.5 2852,-143 2852,-102.85 2834.22,-58.45 2822.99,-34.39"/>
<polygon fill="midnightblue" stroke="midnightblue" points="2826.01,-32.6 2818.51,-25.13 2819.71,-35.65 2826.01,-32.6"/>
</g>
<!-- Node59&#45;&gt;Node12 -->
<g id="edge82" class="edge">
<title>Node59&#45;&gt;Node12</title>
<path fill="none" stroke="midnightblue" d="M1375.68,-497.98C1358.43,-495.72 1339.48,-493.5 1322,-492 1228.15,-483.95 559.97,-496.66 475,-456 316.1,-379.96 284.75,-201.09 399,-67 427.66,-33.36 479.82,-22.09 513.67,-18.34"/>
<polygon fill="midnightblue" stroke="midnightblue" points="514.34,-21.79 523.97,-17.37 513.68,-14.83 514.34,-21.79"/>
</g>
<!-- Node59&#45;&gt;Node15 -->
<g id="edge91" class="edge">
<title>Node59&#45;&gt;Node15</title>
<path fill="none" stroke="midnightblue" d="M1493.76,-502.53C1727.15,-486.42 2568.01,-422.49 2643,-333 2648.71,-326.19 2648.32,-320.12 2643,-313 2597.63,-252.29 2077.96,-131.14 1914.74,-94.35"/>
<polygon fill="midnightblue" stroke="midnightblue" points="1915.04,-90.83 1904.51,-92.05 1913.5,-97.66 1915.04,-90.83"/>
</g>
<!-- Node59&#45;&gt;Node60 -->
<g id="edge85" class="edge">
<title>Node59&#45;&gt;Node60</title>
<path fill="none" stroke="midnightblue" d="M1436.43,-497.73C1439.1,-488.09 1443.47,-472.3 1446.9,-459.91"/>
<polygon fill="midnightblue" stroke="midnightblue" points="1450.32,-460.7 1449.61,-450.13 1443.57,-458.83 1450.32,-460.7"/>
</g>
<!-- Node60&#45;&gt;Node2 -->
<g id="edge89" class="edge">
<title>Node60&#45;&gt;Node2</title>
<path fill="none" stroke="midnightblue" d="M1443.83,-430.87C1425.43,-410.35 1383.75,-357.07 1402,-313 1410.66,-292.09 1422.83,-293.79 1438,-277 1455.75,-257.36 1474.81,-233.54 1487.04,-217.86"/>
<polygon fill="midnightblue" stroke="midnightblue" points="1490.03,-219.72 1493.39,-209.67 1484.5,-215.43 1490.03,-219.72"/>
</g>
<!-- Node60&#45;&gt;Node7 -->
<g id="edge87" class="edge">
<title>Node60&#45;&gt;Node7</title>
<path fill="none" stroke="midnightblue" d="M1498.1,-438.47C1736.01,-432.55 2814,-398.27 2814,-262.5 2814,-262.5 2814,-262.5 2814,-143 2814,-104.7 2814,-59.88 2814,-35.2"/>
<polygon fill="midnightblue" stroke="midnightblue" points="2817.5,-35.09 2814,-25.09 2810.5,-35.09 2817.5,-35.09"/>
</g>
<!-- Node60&#45;&gt;Node12 -->
<g id="edge86" class="edge">
<title>Node60&#45;&gt;Node12</title>
<path fill="none" stroke="midnightblue" d="M1405.81,-433.74C1263.74,-415.35 836.03,-354.65 722,-277 628.68,-213.45 571.26,-82.52 552.65,-34.59"/>
<polygon fill="midnightblue" stroke="midnightblue" points="555.91,-33.32 549.1,-25.2 549.36,-35.8 555.91,-33.32"/>
</g>
<!-- Node60&#45;&gt;Node19 -->
<g id="edge88" class="edge">
<title>Node60&#45;&gt;Node19</title>
<path fill="none" stroke="midnightblue" d="M1405.88,-436.25C1321.15,-429.91 1135.16,-414.25 980,-389 978.71,-388.79 977.39,-388.56 976.06,-388.33"/>
<polygon fill="midnightblue" stroke="midnightblue" points="976.31,-384.81 965.83,-386.33 974.97,-391.68 976.31,-384.81"/>
</g>
<!-- Node60&#45;&gt;Node20 -->
<g id="edge90" class="edge">
<title>Node60&#45;&gt;Node20</title>
<path fill="none" stroke="midnightblue" d="M1498.13,-435.76C1623.57,-425.57 1971.3,-397.35 2118.17,-385.43"/>
<polygon fill="midnightblue" stroke="midnightblue" points="2118.7,-388.89 2128.39,-384.6 2118.14,-381.92 2118.7,-388.89"/>
</g>
<!-- Node62&#45;&gt;Node2 -->
<g id="edge96" class="edge">
<title>Node62&#45;&gt;Node2</title>
<path fill="none" stroke="midnightblue" d="M1631.43,-559.08C1619.33,-544.85 1594.9,-516.16 1574,-492 1543.3,-456.5 1451.5,-376.94 1435,-333 1431.88,-324.68 1431.91,-321.33 1435,-313 1442.35,-293.21 1454.68,-294.82 1466,-277 1477.71,-258.56 1487.44,-235.41 1493.45,-219.53"/>
<polygon fill="midnightblue" stroke="midnightblue" points="1496.85,-220.44 1497,-209.85 1490.27,-218.04 1496.85,-220.44"/>
</g>
<!-- Node62&#45;&gt;Node7 -->
<g id="edge94" class="edge">
<title>Node62&#45;&gt;Node7</title>
<path fill="none" stroke="midnightblue" d="M1721.53,-560.03C1726.42,-559.65 1731.27,-559.31 1736,-559 2013.47,-541 2739.09,-589.51 2983,-456 3008.17,-442.22 3154,-291.19 3154,-262.5 3154,-262.5 3154,-262.5 3154,-143 3154,-79.69 2944.32,-37.8 2854.28,-22.73"/>
<polygon fill="midnightblue" stroke="midnightblue" points="2854.61,-19.24 2844.17,-21.07 2853.47,-26.15 2854.61,-19.24"/>
</g>
<!-- Node62&#45;&gt;Node12 -->
<g id="edge93" class="edge">
<title>Node62&#45;&gt;Node12</title>
<path fill="none" stroke="midnightblue" d="M1625.45,-559.32C1601.35,-544.15 1549.15,-512.48 1502,-492 1359.74,-430.2 953.21,-380.84 838,-277 762.18,-208.66 822.99,-132.85 745,-67 697.17,-26.62 621.31,-17.87 578.39,-16.37"/>
<polygon fill="midnightblue" stroke="midnightblue" points="578.31,-12.86 568.23,-16.12 578.14,-19.86 578.31,-12.86"/>
</g>
<!-- Node62&#45;&gt;Node22 -->
<g id="edge95" class="edge">
<title>Node62&#45;&gt;Node22</title>
<path fill="none" stroke="midnightblue" d="M1648.04,-559.41C1672.61,-535.37 1740.34,-464.21 1764,-389 1766.67,-380.52 1768.13,-376.87 1764,-369 1756.24,-354.18 1741.13,-343.27 1727.44,-335.91"/>
<polygon fill="midnightblue" stroke="midnightblue" points="1728.8,-332.68 1718.29,-331.38 1725.69,-338.95 1728.8,-332.68"/>
</g>
<!-- Node62&#45;&gt;Node26 -->
<g id="edge97" class="edge">
<title>Node62&#45;&gt;Node26</title>
<path fill="none" stroke="midnightblue" d="M1636.41,-559.4C1632.02,-545.14 1622.55,-515.81 1612,-492 1598.3,-461.1 1594.57,-453.25 1576,-425 1555.24,-393.41 1527.03,-359.51 1510.25,-340.12"/>
<polygon fill="midnightblue" stroke="midnightblue" points="1512.82,-337.75 1503.61,-332.52 1507.55,-342.36 1512.82,-337.75"/>
</g>
<!-- Node62&#45;&gt;Node59 -->
<g id="edge98" class="edge">
<title>Node62&#45;&gt;Node59</title>
<path fill="none" stroke="midnightblue" d="M1609.63,-559.48C1573.7,-549.05 1512.77,-531.36 1472.96,-519.81"/>
<polygon fill="midnightblue" stroke="midnightblue" points="1473.9,-516.44 1463.32,-517.01 1471.95,-523.16 1473.9,-516.44"/>
</g>
<!-- Node70&#45;&gt;Node2 -->
<g id="edge107" class="edge">
<title>Node70&#45;&gt;Node2</title>
<path fill="none" stroke="midnightblue" d="M944.2,-805.28C917.94,-756.24 796.58,-511.99 903,-369 924.26,-340.43 1178.54,-293.69 1210,-277 1229.25,-266.79 1228.19,-255.1 1248,-246 1309.72,-217.66 1387.54,-207.12 1440.26,-203.23"/>
<polygon fill="midnightblue" stroke="midnightblue" points="1440.72,-206.7 1450.46,-202.53 1440.24,-199.72 1440.72,-206.7"/>
</g>
<!-- Node70&#45;&gt;Node4 -->
<g id="edge105" class="edge">
<title>Node70&#45;&gt;Node4</title>
<path fill="none" stroke="midnightblue" d="M907.23,-805.44C875.53,-798.08 831.34,-785.97 795,-769 783.86,-763.8 619.83,-654.55 611,-646 536.4,-573.75 506.74,-554.88 475,-456 426.45,-304.77 517.87,-246.49 630,-134 645.04,-118.91 665.33,-105.95 681.44,-96.94"/>
<polygon fill="midnightblue" stroke="midnightblue" points="683.24,-99.94 690.37,-92.1 679.91,-93.78 683.24,-99.94"/>
</g>
<!-- Node70&#45;&gt;Node7 -->
<g id="edge104" class="edge">
<title>Node70&#45;&gt;Node7</title>
<path fill="none" stroke="midnightblue" d="M997.12,-810.9C1029.57,-808.92 1073.34,-806.46 1112,-805 1209.51,-801.31 2775.3,-799.45 2868,-769 2917.09,-752.88 2922.78,-734.43 2963,-702 3051.31,-630.81 3306,-437.43 3306,-324 3306,-324 3306,-324 3306,-143 3306,-96.16 3274.91,-87.91 3233,-67 3167.03,-34.09 2945.85,-21.71 2854.25,-17.93"/>
<polygon fill="midnightblue" stroke="midnightblue" points="2854.39,-14.43 2844.26,-17.53 2854.11,-21.42 2854.39,-14.43"/>
</g>
<!-- Node70&#45;&gt;Node12 -->
<g id="edge103" class="edge">
<title>Node70&#45;&gt;Node12</title>
<path fill="none" stroke="midnightblue" d="M900.84,-806.95C859.07,-799.99 797.41,-787.66 746,-769 671.65,-742.02 114,-520.59 114,-441.5 114,-441.5 114,-441.5 114,-260.5 114,-76.83 413.71,-29.85 513.86,-19.28"/>
<polygon fill="midnightblue" stroke="midnightblue" points="514.38,-22.74 523.98,-18.26 513.68,-15.78 514.38,-22.74"/>
</g>
<!-- Node70&#45;&gt;Node19 -->
<g id="edge106" class="edge">
<title>Node70&#45;&gt;Node19</title>
<path fill="none" stroke="midnightblue" d="M948.8,-805.33C947.59,-752.6 941.18,-474.68 939.44,-399.03"/>
<polygon fill="midnightblue" stroke="midnightblue" points="942.93,-398.61 939.2,-388.69 935.93,-398.77 942.93,-398.61"/>
</g>
<!-- Node70&#45;&gt;Node26 -->
<g id="edge118" class="edge">
<title>Node70&#45;&gt;Node26</title>
<path fill="none" stroke="midnightblue" d="M997.05,-807.04C1152.88,-783.4 1639.45,-700.8 1730,-579 1804.6,-478.65 1603.29,-372.95 1525.35,-336.9"/>
<polygon fill="midnightblue" stroke="midnightblue" points="1526.6,-333.63 1516.05,-332.67 1523.7,-340 1526.6,-333.63"/>
</g>
<!-- Node70&#45;&gt;Node58 -->
<g id="edge119" class="edge">
<title>Node70&#45;&gt;Node58</title>
<path fill="none" stroke="midnightblue" d="M953.84,-805.35C966.42,-783.31 1001.89,-723.83 1041,-682 1051.22,-671.07 1063.88,-660.47 1075.16,-651.83"/>
<polygon fill="midnightblue" stroke="midnightblue" points="1077.54,-654.42 1083.45,-645.63 1073.35,-648.81 1077.54,-654.42"/>
</g>
<!-- Node70&#45;&gt;Node74 -->
<g id="edge108" class="edge">
<title>Node70&#45;&gt;Node74</title>
<path fill="none" stroke="midnightblue" d="M916.22,-805.47C891.73,-798.16 858.14,-786.09 832,-769 786.5,-739.24 792,-710.98 746,-682 704.62,-655.93 678.94,-678.06 642,-646 584.76,-596.32 554.66,-507.81 542.94,-465.42"/>
<polygon fill="midnightblue" stroke="midnightblue" points="546.3,-464.45 540.35,-455.69 539.54,-466.25 546.3,-464.45"/>
</g>
<!-- Node77 -->
<g id="node38" class="node">
<title>Node77</title>
<g id="a_node38"><a xlink:href="../../d4/d67/geometry_8h.html" target="_top" xlink:title=" ">
<polygon fill="none" stroke="red" points="1903,-682.5 1903,-701.5 2033,-701.5 2033,-682.5 1903,-682.5"/>
<text text-anchor="middle" x="1968" y="-689.5" font-family="Helvetica,sans-Serif" font-size="10.00">geometries/geometry.h</text>
</a>
</g>
</g>
<!-- Node70&#45;&gt;Node77 -->
<g id="edge115" class="edge">
<title>Node70&#45;&gt;Node77</title>
<path fill="none" stroke="midnightblue" d="M997.19,-810.99C1136.51,-802.24 1533.64,-776.91 1592,-769 1713.09,-752.6 1853.74,-720.67 1923.72,-703.89"/>
<polygon fill="midnightblue" stroke="midnightblue" points="1924.62,-707.28 1933.52,-701.53 1922.98,-700.47 1924.62,-707.28"/>
</g>
<!-- Node70&#45;&gt;Node87 -->
<g id="edge120" class="edge">
<title>Node70&#45;&gt;Node87</title>
<path fill="none" stroke="midnightblue" d="M997.19,-808.98C1097.25,-798.55 1328.07,-774.5 1446.69,-762.14"/>
<polygon fill="midnightblue" stroke="midnightblue" points="1447.19,-765.61 1456.77,-761.09 1446.46,-758.64 1447.19,-765.61"/>
</g>
<!-- Node74&#45;&gt;Node2 -->
<g id="edge114" class="edge">
<title>Node74&#45;&gt;Node2</title>
<path fill="none" stroke="midnightblue" d="M564.73,-425.42C617.87,-399.07 738.33,-342.31 846,-313 954.32,-283.51 990.87,-316.36 1096,-277 1119.78,-268.1 1120.13,-254.66 1144,-246 1266.92,-201.4 1306.36,-227.11 1436,-210 1437.46,-209.81 1438.94,-209.61 1440.43,-209.41"/>
<polygon fill="midnightblue" stroke="midnightblue" points="1440.96,-212.87 1450.4,-208.06 1440.02,-205.94 1440.96,-212.87"/>
</g>
<!-- Node74&#45;&gt;Node4 -->
<g id="edge112" class="edge">
<title>Node74&#45;&gt;Node4</title>
<path fill="none" stroke="midnightblue" d="M538.64,-425.36C543.72,-385.82 561.7,-271.69 608,-190 629.29,-152.43 666.49,-117.73 689.02,-98.7"/>
<polygon fill="midnightblue" stroke="midnightblue" points="691.4,-101.27 696.88,-92.2 686.94,-95.88 691.4,-101.27"/>
</g>
<!-- Node74&#45;&gt;Node7 -->
<g id="edge111" class="edge">
<title>Node74&#45;&gt;Node7</title>
<path fill="none" stroke="midnightblue" d="M589.76,-438.8C860.02,-435.12 2083.12,-417.02 2250,-389 2270.55,-385.55 2410.67,-342.91 2429,-333 2470.97,-310.31 2726.34,-91.83 2796.3,-31.73"/>
<polygon fill="midnightblue" stroke="midnightblue" points="2798.58,-34.39 2803.88,-25.21 2794.02,-29.08 2798.58,-34.39"/>
</g>
<!-- Node74&#45;&gt;Node12 -->
<g id="edge110" class="edge">
<title>Node74&#45;&gt;Node12</title>
<path fill="none" stroke="midnightblue" d="M524.41,-425.4C479.58,-373.45 334.74,-189.36 418,-67 439.28,-35.73 483.2,-23.82 513.62,-19.29"/>
<polygon fill="midnightblue" stroke="midnightblue" points="514.28,-22.73 523.75,-17.97 513.38,-15.79 514.28,-22.73"/>
</g>
<!-- Node74&#45;&gt;Node13 -->
<g id="edge109" class="edge">
<title>Node74&#45;&gt;Node13</title>
<path fill="none" stroke="midnightblue" d="M513.07,-425.44C454.72,-389.43 306.95,-287.26 266,-154 254.64,-117.04 246.46,-100.37 266,-67 278.21,-46.14 302.55,-33.24 322.84,-25.7"/>
<polygon fill="midnightblue" stroke="midnightblue" points="324.08,-28.98 332.41,-22.43 321.81,-22.36 324.08,-28.98"/>
</g>
<!-- Node74&#45;&gt;Node19 -->
<g id="edge113" class="edge">
<title>Node74&#45;&gt;Node19</title>
<path fill="none" stroke="midnightblue" d="M589.55,-431.72C672.32,-419.47 830.95,-395.99 902.45,-385.41"/>
<polygon fill="midnightblue" stroke="midnightblue" points="902.97,-388.87 912.35,-383.94 901.95,-381.95 902.97,-388.87"/>
</g>
<!-- Node77&#45;&gt;Node53 -->
<g id="edge117" class="edge">
<title>Node77&#45;&gt;Node53</title>
<path fill="none" stroke="midnightblue" d="M2033.21,-688.6C2121.64,-684.35 2274.06,-673.23 2322,-646 2453.34,-571.39 2540.44,-398.35 2566.11,-342.05"/>
<polygon fill="midnightblue" stroke="midnightblue" points="2569.41,-343.24 2570.3,-332.68 2563.02,-340.38 2569.41,-343.24"/>
</g>
<!-- Node77&#45;&gt;Node58 -->
<g id="edge116" class="edge">
<title>Node77&#45;&gt;Node58</title>
<path fill="none" stroke="midnightblue" d="M1902.71,-686.5C1744.64,-675.62 1342.26,-647.91 1176.77,-636.51"/>
<polygon fill="midnightblue" stroke="midnightblue" points="1176.91,-633.01 1166.7,-635.82 1176.43,-640 1176.91,-633.01"/>
</g>
<!-- Node87&#45;&gt;Node2 -->
<g id="edge121" class="edge">
<title>Node87&#45;&gt;Node2</title>
<path fill="none" stroke="midnightblue" d="M1492.16,-738.49C1446.31,-713.64 1356.49,-657.02 1321,-579 1258.74,-442.11 1277.04,-354.66 1381,-246 1396.89,-229.39 1419.52,-218.85 1440.79,-212.19"/>
<polygon fill="midnightblue" stroke="midnightblue" points="1441.81,-215.54 1450.44,-209.39 1439.86,-208.81 1441.81,-215.54"/>
</g>
<!-- Node87&#45;&gt;Node26 -->
<g id="edge135" class="edge">
<title>Node87&#45;&gt;Node26</title>
<path fill="none" stroke="midnightblue" d="M1541.79,-738.26C1563.89,-723.88 1599.15,-701.12 1630,-682 1667.87,-658.53 1780.03,-617.76 1802,-579 1806.38,-571.27 1803.68,-567.73 1802,-559 1784.8,-469.69 1796.04,-427.02 1726,-369 1713.08,-358.3 1621.35,-342.71 1557.71,-332.97"/>
<polygon fill="midnightblue" stroke="midnightblue" points="1558.17,-329.5 1547.76,-331.46 1557.12,-336.42 1558.17,-329.5"/>
</g>
<!-- Node87&#45;&gt;Node57 -->
<g id="edge137" class="edge">
<title>Node87&#45;&gt;Node57</title>
<path fill="none" stroke="midnightblue" d="M1456.87,-741.52C1393.98,-730.58 1298.18,-713.91 1236.84,-703.24"/>
<polygon fill="midnightblue" stroke="midnightblue" points="1237.38,-699.78 1226.93,-701.51 1236.18,-706.67 1237.38,-699.78"/>
</g>
<!-- Node87&#45;&gt;Node59 -->
<g id="edge136" class="edge">
<title>Node87&#45;&gt;Node59</title>
<path fill="none" stroke="midnightblue" d="M1517.54,-738.41C1511.53,-705.81 1494.49,-623.05 1466,-559 1460.81,-547.34 1453.22,-535.22 1446.74,-525.78"/>
<polygon fill="midnightblue" stroke="midnightblue" points="1449.39,-523.48 1440.75,-517.35 1443.69,-527.53 1449.39,-523.48"/>
</g>
<!-- Node93 -->
<g id="node40" class="node">
<title>Node93</title>
<g id="a_node40"><a xlink:href="../../d1/d77/node_8h.html" target="_top" xlink:title=" ">
<polygon fill="none" stroke="red" points="1639.5,-682.5 1639.5,-701.5 1732.5,-701.5 1732.5,-682.5 1639.5,-682.5"/>
<text text-anchor="middle" x="1686" y="-689.5" font-family="Helvetica,sans-Serif" font-size="10.00">includes/node.h</text>
</a>
</g>
</g>
<!-- Node87&#45;&gt;Node93 -->
<g id="edge122" class="edge">
<title>Node87&#45;&gt;Node93</title>
<path fill="none" stroke="midnightblue" d="M1559.34,-738.4C1587.56,-728.28 1625.21,-714.79 1652.1,-705.15"/>
<polygon fill="midnightblue" stroke="midnightblue" points="1653.61,-708.33 1661.85,-701.66 1651.25,-701.74 1653.61,-708.33"/>
</g>
<!-- Node87&#45;&gt;Node99 -->
<g id="edge131" class="edge">
<title>Node87&#45;&gt;Node99</title>
<path fill="none" stroke="midnightblue" d="M1583.33,-741.56C1628.03,-732.98 1688.98,-719.56 1741,-702 1761.35,-695.13 1764.69,-689 1785,-682 1835.64,-664.55 1895.18,-650.79 1937.73,-642.08"/>
<polygon fill="midnightblue" stroke="midnightblue" points="1938.51,-645.49 1947.62,-640.08 1937.12,-638.63 1938.51,-645.49"/>
</g>
<!-- Node93&#45;&gt;Node2 -->
<g id="edge127" class="edge">
<title>Node93&#45;&gt;Node2</title>
<path fill="none" stroke="midnightblue" d="M1716.51,-682.45C1788.53,-660.4 1960.48,-595.99 1925,-492 1902.69,-426.63 1889.25,-404.51 1830,-369 1747.27,-319.42 1700.26,-379.94 1616,-333 1590.05,-318.55 1536.48,-249.73 1512.31,-217.6"/>
<polygon fill="midnightblue" stroke="midnightblue" points="1515.11,-215.5 1506.32,-209.58 1509.5,-219.69 1515.11,-215.5"/>
</g>
<!-- Node93&#45;&gt;Node4 -->
<g id="edge125" class="edge">
<title>Node93&#45;&gt;Node4</title>
<path fill="none" stroke="midnightblue" d="M1639.02,-689.74C1498.28,-685.69 1086.47,-671.75 1032,-646 803.59,-538 726.75,-187.75 711.18,-102.39"/>
<polygon fill="midnightblue" stroke="midnightblue" points="714.6,-101.59 709.42,-92.35 707.7,-102.8 714.6,-101.59"/>
</g>
<!-- Node93&#45;&gt;Node7 -->
<g id="edge124" class="edge">
<title>Node93&#45;&gt;Node7</title>
<path fill="none" stroke="midnightblue" d="M1732.73,-686.65C1838.03,-676.74 2086.01,-652.85 2103,-646 2123.86,-637.59 2122.19,-623.55 2143,-615 2458.55,-485.39 2577.47,-618.34 2905,-523 3082.74,-471.26 3230,-447.62 3230,-262.5 3230,-262.5 3230,-262.5 3230,-143 3230,-92.98 3192.13,-88.57 3147,-67 3095.86,-42.55 2931.18,-26.17 2854.27,-19.66"/>
<polygon fill="midnightblue" stroke="midnightblue" points="2854.28,-16.15 2844.02,-18.81 2853.7,-23.12 2854.28,-16.15"/>
</g>
<!-- Node93&#45;&gt;Node10 -->
<g id="edge129" class="edge">
<title>Node93&#45;&gt;Node10</title>
<path fill="none" stroke="midnightblue" d="M1732.51,-686.83C1827.29,-678.13 2036.43,-657.9 2067,-646 2088.96,-637.46 2089.9,-627.3 2110,-615 2344.3,-471.6 2516.77,-567.4 2660,-333 2696.51,-273.25 2635.68,-287.35 2556,-246 2459.38,-195.86 2414.04,-221.96 2329,-154 2312.9,-141.13 2299.89,-121.59 2291.34,-106.34"/>
<polygon fill="midnightblue" stroke="midnightblue" points="2294.41,-104.66 2286.6,-97.5 2288.24,-107.97 2294.41,-104.66"/>
</g>
<!-- Node93&#45;&gt;Node12 -->
<g id="edge123" class="edge">
<title>Node93&#45;&gt;Node12</title>
<path fill="none" stroke="midnightblue" d="M1639.25,-690.01C1490.72,-686.59 1035.8,-673.92 976,-646 720.65,-526.77 710.37,-401.72 576,-154 562.92,-129.88 556.57,-124.64 550,-98 544.82,-76.99 544.4,-52.04 544.9,-35.33"/>
<polygon fill="midnightblue" stroke="midnightblue" points="548.4,-35.37 545.35,-25.22 541.41,-35.06 548.4,-35.37"/>
</g>
<!-- Node93&#45;&gt;Node19 -->
<g id="edge126" class="edge">
<title>Node93&#45;&gt;Node19</title>
<path fill="none" stroke="midnightblue" d="M1649.95,-682.45C1583.5,-666.13 1437.81,-627.82 1321,-579 1187.8,-523.34 1163.96,-489.88 1035,-425 1012.49,-413.68 986.61,-401.6 967.4,-392.81"/>
<polygon fill="midnightblue" stroke="midnightblue" points="968.83,-389.61 958.28,-388.65 965.93,-395.98 968.83,-389.61"/>
</g>
<!-- Node93&#45;&gt;Node26 -->
<g id="edge128" class="edge">
<title>Node93&#45;&gt;Node26</title>
<path fill="none" stroke="midnightblue" d="M1708.85,-682.39C1744.55,-667.54 1812.32,-633.35 1840,-579 1876.21,-507.89 2029.87,-583.26 1764,-369 1755.98,-362.54 1634.16,-343.95 1557.55,-332.78"/>
<polygon fill="midnightblue" stroke="midnightblue" points="1557.92,-329.3 1547.52,-331.33 1556.91,-336.23 1557.92,-329.3"/>
</g>
<!-- Node93&#45;&gt;Node58 -->
<g id="edge130" class="edge">
<title>Node93&#45;&gt;Node58</title>
<path fill="none" stroke="midnightblue" d="M1639.36,-686.23C1538.32,-675.9 1298.57,-651.39 1177.16,-638.98"/>
<polygon fill="midnightblue" stroke="midnightblue" points="1177.15,-635.46 1166.85,-637.93 1176.44,-642.42 1177.15,-635.46"/>
</g>
<!-- Node99&#45;&gt;Node2 -->
<g id="edge132" class="edge">
<title>Node99&#45;&gt;Node2</title>
<path fill="none" stroke="midnightblue" d="M1994.45,-620.91C1995.6,-591.18 1995.99,-490.9 1954,-425 1875.4,-301.64 1758.08,-416.53 1638,-333 1601.75,-307.78 1621.85,-276.59 1590,-246 1574.9,-231.5 1554.22,-220.72 1536.49,-213.35"/>
<polygon fill="midnightblue" stroke="midnightblue" points="1537.59,-210.02 1527,-209.6 1535.02,-216.53 1537.59,-210.02"/>
</g>
<!-- Node99&#45;&gt;Node26 -->
<g id="edge133" class="edge">
<title>Node99&#45;&gt;Node26</title>
<path fill="none" stroke="midnightblue" d="M1990.61,-620.85C1975.38,-583.3 1909.41,-433.5 1802,-369 1796.79,-365.87 1645.85,-344.65 1557.95,-332.5"/>
<polygon fill="midnightblue" stroke="midnightblue" points="1558.2,-329 1547.81,-331.1 1557.24,-335.94 1558.2,-329"/>
</g>
<!-- Node99&#45;&gt;Node62 -->
<g id="edge134" class="edge">
<title>Node99&#45;&gt;Node62</title>
<path fill="none" stroke="midnightblue" d="M1943.14,-620.98C1878.95,-610.22 1768.65,-591.73 1700,-580.22"/>
<polygon fill="midnightblue" stroke="midnightblue" points="1700.21,-576.71 1689.77,-578.51 1699.05,-583.61 1700.21,-576.71"/>
</g>
<!-- Node100&#45;&gt;Node2 -->
<g id="edge139" class="edge">
<title>Node100&#45;&gt;Node2</title>
<path fill="none" stroke="midnightblue" d="M2579.88,-493.37C2406.33,-454.79 1908.28,-343.8 1874,-333 1810.87,-313.12 1796.93,-302.85 1736,-277 1704.68,-263.71 1698.07,-257.37 1666,-246 1626.98,-232.16 1581.53,-220.11 1548.06,-211.97"/>
<polygon fill="midnightblue" stroke="midnightblue" points="1548.62,-208.51 1538.08,-209.58 1546.99,-215.32 1548.62,-208.51"/>
</g>
<!-- Node100&#45;&gt;Node101 -->
<g id="edge140" class="edge">
<title>Node100&#45;&gt;Node101</title>
<path fill="none" stroke="midnightblue" d="M2698.12,-492.87C2745.01,-482.07 2810.39,-466.99 2858.22,-455.97"/>
<polygon fill="midnightblue" stroke="midnightblue" points="2859.18,-459.34 2868.14,-453.68 2857.61,-452.52 2859.18,-459.34"/>
</g>
<!-- Node101&#45;&gt;Node2 -->
<g id="edge143" class="edge">
<title>Node101&#45;&gt;Node2</title>
<path fill="none" stroke="midnightblue" d="M2901.23,-425.46C2865.29,-400.4 2786.27,-347.36 2714,-313 2633.13,-274.55 2611.9,-263.04 2524,-246 2337.45,-209.84 1749.47,-202.69 1559.69,-201.32"/>
<polygon fill="midnightblue" stroke="midnightblue" points="1559.65,-197.82 1549.62,-201.25 1559.6,-204.82 1559.65,-197.82"/>
</g>
<!-- Node101&#45;&gt;Node8 -->
<g id="edge141" class="edge">
<title>Node101&#45;&gt;Node8</title>
<path fill="none" stroke="midnightblue" d="M2959.32,-425.34C3010.6,-404.13 3091.53,-361.43 3059,-313 2934.25,-127.3 2629.99,-91.77 2529.68,-85.05"/>
<polygon fill="midnightblue" stroke="midnightblue" points="2529.74,-81.54 2519.54,-84.42 2529.31,-88.53 2529.74,-81.54"/>
</g>
<!-- Node101&#45;&gt;Node17 -->
<g id="edge142" class="edge">
<title>Node101&#45;&gt;Node17</title>
<path fill="none" stroke="midnightblue" d="M2931.05,-425.34C2946.17,-404.05 2974.68,-363.89 2990.91,-341.03"/>
<polygon fill="midnightblue" stroke="midnightblue" points="2993.91,-342.85 2996.85,-332.67 2988.2,-338.8 2993.91,-342.85"/>
</g>
<!-- Node101&#45;&gt;Node20 -->
<g id="edge144" class="edge">
<title>Node101&#45;&gt;Node20</title>
<path fill="none" stroke="midnightblue" d="M2868.36,-435.24C2737.27,-424.65 2396.37,-397.09 2251.6,-385.38"/>
<polygon fill="midnightblue" stroke="midnightblue" points="2251.77,-381.89 2241.52,-384.57 2251.2,-388.86 2251.77,-381.89"/>
</g>
<!-- Node102&#45;&gt;Node57 -->
<g id="edge146" class="edge">
<title>Node102&#45;&gt;Node57</title>
<path fill="none" stroke="midnightblue" d="M1298.65,-805.3C1276.82,-784.98 1222.25,-734.19 1194.61,-708.46"/>
<polygon fill="midnightblue" stroke="midnightblue" points="1196.97,-705.87 1187.26,-701.62 1192.2,-711 1196.97,-705.87"/>
</g>
<!-- Node115 -->
<g id="node45" class="node">
<title>Node115</title>
<g id="a_node45"><a xlink:href="../../db/d71/kratos__parameters_8h.html" target="_top" xlink:title=" ">
<polygon fill="none" stroke="red" points="2152.5,-621 2152.5,-640 2313.5,-640 2313.5,-621 2152.5,-621"/>
<text text-anchor="middle" x="2233" y="-628" font-family="Helvetica,sans-Serif" font-size="10.00">includes/kratos_parameters.h</text>
</a>
</g>
</g>
<!-- Node102&#45;&gt;Node115 -->
<g id="edge147" class="edge">
<title>Node102&#45;&gt;Node115</title>
<path fill="none" stroke="midnightblue" d="M1363.26,-814.01C1477.4,-813.23 1735.02,-807.15 1813,-769 1860.46,-745.78 1847.23,-706.57 1894,-682 1991.04,-631.01 2029.6,-662.27 2138,-646 2147.49,-644.58 2157.51,-643.06 2167.35,-641.56"/>
<polygon fill="midnightblue" stroke="midnightblue" points="2168.14,-644.98 2177.5,-640.02 2167.09,-638.06 2168.14,-644.98"/>
</g>
<!-- Node115&#45;&gt;Node20 -->
<g id="edge148" class="edge">
<title>Node115&#45;&gt;Node20</title>
<path fill="none" stroke="midnightblue" d="M2231.35,-620.91C2224.5,-585.3 2198.23,-448.75 2188.58,-398.61"/>
<polygon fill="midnightblue" stroke="midnightblue" points="2191.97,-397.71 2186.65,-388.55 2185.1,-399.03 2191.97,-397.71"/>
</g>
<!-- Node115&#45;&gt;Node27 -->
<g id="edge149" class="edge">
<title>Node115&#45;&gt;Node27</title>
<path fill="none" stroke="midnightblue" d="M2221.36,-620.95C2178.86,-588.93 2031.63,-470.82 1977,-333 1970.45,-316.47 1970.36,-296.01 1971.52,-281.4"/>
<polygon fill="midnightblue" stroke="midnightblue" points="1975.03,-281.43 1972.61,-271.12 1968.07,-280.69 1975.03,-281.43"/>
</g>
<!-- Node119&#45;&gt;Node57 -->
<g id="edge151" class="edge">
<title>Node119&#45;&gt;Node57</title>
<path fill="none" stroke="midnightblue" d="M1178,-805.3C1178,-785.85 1178,-738.49 1178,-711.9"/>
<polygon fill="midnightblue" stroke="midnightblue" points="1181.5,-711.62 1178,-701.62 1174.5,-711.62 1181.5,-711.62"/>
</g>
<!-- Node119&#45;&gt;Node115 -->
<g id="edge152" class="edge">
<title>Node119&#45;&gt;Node115</title>
<path fill="none" stroke="midnightblue" d="M1235.22,-806.08C1238.19,-805.71 1241.13,-805.34 1244,-805 1398.39,-786.49 1439.77,-800.69 1592,-769 1717.09,-742.96 1741.3,-709.82 1866,-682 1985.02,-655.45 2017.28,-663.2 2138,-646 2147.85,-644.6 2158.26,-643.06 2168.45,-641.53"/>
<polygon fill="midnightblue" stroke="midnightblue" points="2169.16,-644.96 2178.52,-640.01 2168.11,-638.04 2169.16,-644.96"/>
</g>
<!-- Node120&#45;&gt;Node2 -->
<g id="edge158" class="edge">
<title>Node120&#45;&gt;Node2</title>
<path fill="none" stroke="midnightblue" d="M902.22,-861.49C887.53,-853.48 866.21,-840.42 851,-825 809.55,-783 807.07,-760.7 801,-702 785.28,-549.95 781.18,-479.31 887,-369 979.14,-272.95 1051.68,-333.93 1172,-277 1191.7,-267.68 1190.09,-254.87 1210,-246 1250.09,-228.14 1367.55,-213.94 1440.1,-206.56"/>
<polygon fill="midnightblue" stroke="midnightblue" points="1440.86,-210 1450.46,-205.52 1440.16,-203.04 1440.86,-210"/>
</g>
<!-- Node120&#45;&gt;Node4 -->
<g id="edge156" class="edge">
<title>Node120&#45;&gt;Node4</title>
<path fill="none" stroke="midnightblue" d="M900.17,-861.46C881.86,-852.93 853.45,-839.09 830,-825 632,-706.04 507.56,-682.85 464,-456 446.24,-363.53 439.72,-324.31 492,-246 531.61,-186.66 548.76,-175.21 607,-134 628.97,-118.46 656.41,-105.06 677.15,-95.98"/>
<polygon fill="midnightblue" stroke="midnightblue" points="678.63,-99.16 686.45,-92 675.88,-92.72 678.63,-99.16"/>
</g>
<!-- Node120&#45;&gt;Node7 -->
<g id="edge155" class="edge">
<title>Node120&#45;&gt;Node7</title>
<path fill="none" stroke="midnightblue" d="M988.68,-868.97C1319.87,-863.73 2726.33,-837.59 2909,-769 3167.92,-671.78 3344,-600.58 3344,-324 3344,-324 3344,-324 3344,-143 3344,-97.08 3314.99,-87.71 3274,-67 3200.92,-30.07 2952.61,-19.93 2854.43,-17.34"/>
<polygon fill="midnightblue" stroke="midnightblue" points="2854.4,-13.83 2844.31,-17.08 2854.22,-20.83 2854.4,-13.83"/>
</g>
<!-- Node120&#45;&gt;Node12 -->
<g id="edge154" class="edge">
<title>Node120&#45;&gt;Node12</title>
<path fill="none" stroke="midnightblue" d="M887.24,-861.44C733.73,-819.15 76,-627.12 76,-441.5 76,-441.5 76,-441.5 76,-260.5 76,-150.86 130.13,-114.38 229,-67 279.07,-43 443.26,-25.77 513.58,-19.31"/>
<polygon fill="midnightblue" stroke="midnightblue" points="513.99,-22.78 523.63,-18.4 513.36,-15.81 513.99,-22.78"/>
</g>
<!-- Node120&#45;&gt;Node19 -->
<g id="edge157" class="edge">
<title>Node120&#45;&gt;Node19</title>
<path fill="none" stroke="midnightblue" d="M908.31,-861.28C889.42,-845.22 850.42,-808.93 832,-769 803.12,-706.38 796.2,-681.89 813,-615 835.35,-526.01 898.62,-433.95 926.05,-396.92"/>
<polygon fill="midnightblue" stroke="midnightblue" points="929,-398.82 932.21,-388.72 923.4,-394.62 929,-398.82"/>
</g>
<!-- Node120&#45;&gt;Node70 -->
<g id="edge161" class="edge">
<title>Node120&#45;&gt;Node70</title>
<path fill="none" stroke="midnightblue" d="M923.95,-861.08C928.1,-853.61 934.15,-842.72 939.27,-833.52"/>
<polygon fill="midnightblue" stroke="midnightblue" points="942.34,-835.19 944.14,-824.75 936.22,-831.79 942.34,-835.19"/>
</g>
<!-- Node120&#45;&gt;Node102 -->
<g id="edge160" class="edge">
<title>Node120&#45;&gt;Node102</title>
<path fill="none" stroke="midnightblue" d="M980.71,-861.5C1043.91,-852.78 1145.32,-838.76 1242.81,-825.16"/>
<polygon fill="midnightblue" stroke="midnightblue" points="1243.42,-828.61 1252.84,-823.76 1242.46,-821.68 1243.42,-828.61"/>
</g>
<!-- Node120&#45;&gt;Node119 -->
<g id="edge159" class="edge">
<title>Node120&#45;&gt;Node119</title>
<path fill="none" stroke="midnightblue" d="M960.04,-861.44C1005.32,-852 1078.23,-836.8 1127.11,-826.61"/>
<polygon fill="midnightblue" stroke="midnightblue" points="1128.08,-829.98 1137.15,-824.52 1126.65,-823.13 1128.08,-829.98"/>
</g>
<!-- Node104&#45;&gt;Node2 -->
<g id="edge166" class="edge">
<title>Node104&#45;&gt;Node2</title>
<path fill="none" stroke="midnightblue" d="M1373.91,-559.17C1370.95,-550.2 1366.68,-535.83 1365,-523 1363.21,-509.34 1364.33,-505.76 1365,-492 1370.39,-381.22 1333.97,-329.48 1407,-246 1420.35,-230.74 1440.05,-220.18 1457.89,-213.15"/>
<polygon fill="midnightblue" stroke="midnightblue" points="1459.37,-216.33 1467.55,-209.59 1456.96,-209.76 1459.37,-216.33"/>
</g>
<!-- Node104&#45;&gt;Node7 -->
<g id="edge164" class="edge">
<title>Node104&#45;&gt;Node7</title>
<path fill="none" stroke="midnightblue" d="M1424.24,-565.85C1592.27,-557.25 2175.53,-519.23 2636,-389 2757.35,-354.68 2890,-388.61 2890,-262.5 2890,-262.5 2890,-262.5 2890,-143 2890,-97.62 2853.62,-54.48 2831.2,-32.2"/>
<polygon fill="midnightblue" stroke="midnightblue" points="2833.57,-29.63 2823.94,-25.23 2828.72,-34.68 2833.57,-29.63"/>
</g>
<!-- Node104&#45;&gt;Node12 -->
<g id="edge163" class="edge">
<title>Node104&#45;&gt;Node12</title>
<path fill="none" stroke="midnightblue" d="M1329.99,-567.18C1160.14,-563.53 579.87,-544.67 421,-456 292.51,-384.28 295.61,-272.96 344,-134 354.67,-103.36 348.67,-88.47 373,-67 412.77,-31.89 475.75,-21.14 513.75,-17.88"/>
<polygon fill="midnightblue" stroke="midnightblue" points="514.05,-21.36 523.77,-17.14 513.54,-14.38 514.05,-21.36"/>
</g>
<!-- Node104&#45;&gt;Node53 -->
<g id="edge165" class="edge">
<title>Node104&#45;&gt;Node53</title>
<path fill="none" stroke="midnightblue" d="M1421.05,-559.49C1494.28,-545.35 1645.74,-516.2 1774,-492 2020.1,-445.57 2083.65,-443.92 2328,-389 2401.63,-372.45 2486.55,-349.04 2534.89,-335.3"/>
<polygon fill="midnightblue" stroke="midnightblue" points="2535.98,-338.63 2544.64,-332.52 2534.06,-331.9 2535.98,-338.63"/>
</g>
<!-- Node104&#45;&gt;Node59 -->
<g id="edge167" class="edge">
<title>Node104&#45;&gt;Node59</title>
<path fill="none" stroke="midnightblue" d="M1385.17,-559.48C1393.89,-550.37 1407.9,-535.74 1418.69,-524.48"/>
<polygon fill="midnightblue" stroke="midnightblue" points="1421.46,-526.65 1425.85,-517.01 1416.4,-521.81 1421.46,-526.65"/>
</g>
<!-- Node121&#45;&gt;Node2 -->
<g id="edge176" class="edge">
<title>Node121&#45;&gt;Node2</title>
<path fill="none" stroke="midnightblue" d="M2281.98,-682.4C2295.89,-674.95 2313.71,-662.74 2322,-646 2328.11,-633.65 2328.75,-627.01 2322,-615 2219.02,-431.73 2115.78,-440.26 1918,-369 1813.63,-331.39 1764.53,-392.66 1671,-333 1632.03,-308.14 1649.85,-275.19 1614,-246 1594.68,-230.27 1569.19,-219.52 1547.22,-212.48"/>
<polygon fill="midnightblue" stroke="midnightblue" points="1547.99,-209.05 1537.4,-209.5 1545.95,-215.75 1547.99,-209.05"/>
</g>
<!-- Node121&#45;&gt;Node99 -->
<g id="edge177" class="edge">
<title>Node121&#45;&gt;Node99</title>
<path fill="none" stroke="midnightblue" d="M2224.46,-682.48C2176.52,-671.87 2094.64,-653.76 2042.49,-642.22"/>
<polygon fill="midnightblue" stroke="midnightblue" points="2042.99,-638.75 2032.47,-640.01 2041.48,-645.59 2042.99,-638.75"/>
</g>
<!-- Node121&#45;&gt;Node115 -->
<g id="edge178" class="edge">
<title>Node121&#45;&gt;Node115</title>
<path fill="none" stroke="midnightblue" d="M2258.7,-682.48C2254.34,-673.82 2247.44,-660.15 2241.9,-649.15"/>
<polygon fill="midnightblue" stroke="midnightblue" points="2244.92,-647.36 2237.29,-640.01 2238.67,-650.51 2244.92,-647.36"/>
</g>
<!-- Node122&#45;&gt;Node2 -->
<g id="edge182" class="edge">
<title>Node122&#45;&gt;Node2</title>
<path fill="none" stroke="midnightblue" d="M2786.29,-738.34C2763.65,-717.47 2726,-676.07 2726,-631.5 2726,-631.5 2726,-631.5 2726,-439.5 2726,-372.26 2700.26,-348.25 2643,-313 2550.18,-255.86 1782.08,-214.62 1559.95,-203.81"/>
<polygon fill="midnightblue" stroke="midnightblue" points="1559.95,-200.3 1549.79,-203.32 1559.61,-207.3 1559.95,-200.3"/>
</g>
<!-- Node122&#45;&gt;Node7 -->
<g id="edge181" class="edge">
<title>Node122&#45;&gt;Node7</title>
<path fill="none" stroke="midnightblue" d="M2858.7,-738.87C2884.85,-730.8 2915.56,-718.81 2940,-702 2962.91,-686.24 3268,-351.8 3268,-324 3268,-324 3268,-324 3268,-143 3268,-94.92 3234.17,-88.17 3191,-67 3132.31,-38.21 2938.9,-23.75 2854.26,-18.67"/>
<polygon fill="midnightblue" stroke="midnightblue" points="2854.44,-15.17 2844.25,-18.08 2854.03,-22.16 2854.44,-15.17"/>
</g>
<!-- Node122&#45;&gt;Node12 -->
<g id="edge180" class="edge">
<title>Node122&#45;&gt;Node12</title>
<path fill="none" stroke="midnightblue" d="M2823.26,-738.37C2902.71,-681.29 3182.68,-463.67 3059,-313 2981.23,-218.26 2087.89,-150.23 1977,-98 1957.28,-88.71 1959.4,-74.68 1939,-67 1808,-17.65 775.89,-16.25 578.55,-16.44"/>
<polygon fill="midnightblue" stroke="midnightblue" points="578.26,-12.94 568.26,-16.45 578.27,-19.94 578.26,-12.94"/>
</g>
<!-- Node122&#45;&gt;Node77 -->
<g id="edge184" class="edge">
<title>Node122&#45;&gt;Node77</title>
<path fill="none" stroke="midnightblue" d="M2747.24,-748.53C2601.48,-738.14 2208.97,-710.17 2043.35,-698.37"/>
<polygon fill="midnightblue" stroke="midnightblue" points="2043.48,-694.87 2033.25,-697.65 2042.98,-701.85 2043.48,-694.87"/>
</g>
<!-- Node122&#45;&gt;Node93 -->
<g id="edge183" class="edge">
<title>Node122&#45;&gt;Node93</title>
<path fill="none" stroke="midnightblue" d="M2747.23,-749.53C2556.99,-739.4 1934.84,-706.26 1742.9,-696.03"/>
<polygon fill="midnightblue" stroke="midnightblue" points="1742.92,-692.53 1732.75,-695.49 1742.55,-699.52 1742.92,-692.53"/>
</g>
</g>
</svg>
