<?xml version="1.0" encoding="UTF-8" standalone="no"?>
<!DOCTYPE svg PUBLIC "-//W3C//DTD SVG 1.1//EN"
 "http://www.w3.org/Graphics/SVG/1.1/DTD/svg11.dtd">
<!-- Generated by graphviz version 7.1.0 (0)
 -->
<!-- Title: /software/kratos/doxygen/applications/DamApplication/custom_constitutive/thermal_local_damage_3D_law.hpp Pages: 1 -->
<!--zoomable 511 -->
<svg id="main" version="1.1" xmlns="http://www.w3.org/2000/svg" xmlns:xlink="http://www.w3.org/1999/xlink" xml:space="preserve" onload="init(evt)">
<style type="text/css"><![CDATA[
.edge:hover path { stroke: red; }
.edge:hover polygon { stroke: red; fill: red; }
]]></style>
<script type="text/javascript"><![CDATA[
var edges = document.getElementsByTagName('g');
if (edges && edges.length) {
  for (var i=0;i<edges.length;i++) {
    if (edges[i].id.substr(0,4)=='edge') {
      edges[i].setAttribute('class','edge');
    }
  }
}
]]></script>
        <defs>
                <circle id="rim" cx="0" cy="0" r="7"/>
                <circle id="rim2" cx="0" cy="0" r="3.5"/>
                <g id="zoomPlus">
                        <use xlink:href="#rim" fill="#404040">
                                <set attributeName="fill" to="#808080" begin="zoomplus.mouseover" end="zoomplus.mouseout"/>
                        </use>
                        <path d="M-4,0h8M0,-4v8" fill="none" stroke="white" stroke-width="1.5" pointer-events="none"/>
                </g>
                <g id="zoomMin">
                        <use xlink:href="#rim" fill="#404040">
                                <set attributeName="fill" to="#808080" begin="zoomminus.mouseover" end="zoomminus.mouseout"/>
                        </use>
                        <path d="M-4,0h8" fill="none" stroke="white" stroke-width="1.5" pointer-events="none"/>
                </g>
                <g id="dirArrow">
                        <path fill="none" stroke="white" stroke-width="1.5" d="M0,-3.0v7 M-2.5,-0.5L0,-3.0L2.5,-0.5"/>
                </g>
               <g id="resetDef">
                       <use xlink:href="#rim2" fill="#404040">
                               <set attributeName="fill" to="#808080" begin="reset.mouseover" end="reset.mouseout"/>
                       </use>
               </g>
        </defs>

<script type="text/javascript">
var viewWidth = 1078;
var viewHeight = 511;
var sectionId = 'dynsection-1';
</script>
<script xlink:href="../../svgpan.js"/>
<svg id="graph" class="graph">
<g id="viewport">
<title>/software/kratos/doxygen/applications/DamApplication/custom_constitutive/thermal_local_damage_3D_law.hpp</title>
<!-- Node1 -->
<g id="node1" class="node">
<title>Node1</title>
<g id="a_node1"><a xlink:title=" ">
<polygon fill="#999999" stroke="#666666" points="515,-503 355,-503 355,-451 515,-451 515,-503"/>
<text text-anchor="start" x="363" y="-491" font-family="Helvetica,sans-Serif" font-size="10.00">/software/kratos/doxygen</text>
<text text-anchor="start" x="363" y="-480" font-family="Helvetica,sans-Serif" font-size="10.00">/applications/DamApplication</text>
<text text-anchor="start" x="363" y="-469" font-family="Helvetica,sans-Serif" font-size="10.00">/custom_constitutive/thermal</text>
<text text-anchor="middle" x="435" y="-458" font-family="Helvetica,sans-Serif" font-size="10.00">_local_damage_3D_law.hpp</text>
</a>
</g>
</g>
<!-- Node2 -->
<g id="node2" class="node">
<title>Node2</title>
<g id="a_node2"><a xlink:href="../../dd/d4f/thermal__local__damage__3_d__law_8cpp.html" target="_top" xlink:title=" ">
<polygon fill="white" stroke="#666666" points="308,-415 148,-415 148,-363 308,-363 308,-415"/>
<text text-anchor="start" x="156" y="-403" font-family="Helvetica,sans-Serif" font-size="10.00">/software/kratos/doxygen</text>
<text text-anchor="start" x="156" y="-392" font-family="Helvetica,sans-Serif" font-size="10.00">/applications/DamApplication</text>
<text text-anchor="start" x="156" y="-381" font-family="Helvetica,sans-Serif" font-size="10.00">/custom_constitutive/thermal</text>
<text text-anchor="middle" x="228" y="-370" font-family="Helvetica,sans-Serif" font-size="10.00">_local_damage_3D_law.cpp</text>
</a>
</g>
</g>
<!-- Node1&#45;&gt;Node2 -->
<g id="edge1" class="edge">
<title>Node1&#45;&gt;Node2</title>
<path fill="none" stroke="#63b8ff" d="M363.2,-446.17C339.05,-436.14 312.36,-425.05 289.11,-415.39"/>
<polygon fill="#63b8ff" stroke="#63b8ff" points="361.76,-449.36 372.34,-449.97 364.44,-442.9 361.76,-449.36"/>
</g>
<!-- Node3 -->
<g id="node3" class="node">
<title>Node3</title>
<g id="a_node3"><a xlink:href="../../d3/dc3/thermal__local__damage__plane__strain__2_d__law_8hpp.html" target="_top" xlink:title=" ">
<polygon fill="white" stroke="#666666" points="543.5,-415 326.5,-415 326.5,-363 543.5,-363 543.5,-415"/>
<text text-anchor="start" x="334.5" y="-403" font-family="Helvetica,sans-Serif" font-size="10.00">/software/kratos/doxygen</text>
<text text-anchor="start" x="334.5" y="-392" font-family="Helvetica,sans-Serif" font-size="10.00">/applications/DamApplication</text>
<text text-anchor="start" x="334.5" y="-381" font-family="Helvetica,sans-Serif" font-size="10.00">/custom_constitutive/thermal</text>
<text text-anchor="middle" x="435" y="-370" font-family="Helvetica,sans-Serif" font-size="10.00">_local_damage_plane_strain_2D_law.hpp</text>
</a>
</g>
</g>
<!-- Node1&#45;&gt;Node3 -->
<g id="edge2" class="edge">
<title>Node1&#45;&gt;Node3</title>
<path fill="none" stroke="#63b8ff" d="M435,-439.26C435,-431.24 435,-422.92 435,-415.45"/>
<polygon fill="#63b8ff" stroke="#63b8ff" points="431.5,-439.15 435,-449.15 438.5,-439.15 431.5,-439.15"/>
</g>
<!-- Node14 -->
<g id="node14" class="node">
<title>Node14</title>
<g id="a_node14"><a xlink:href="../../d4/d35/thermal__simo__ju__local__damage__3_d__law_8hpp.html" target="_top" xlink:title=" ">
<polygon fill="white" stroke="#666666" points="866.5,-233.5 671.5,-233.5 671.5,-181.5 866.5,-181.5 866.5,-233.5"/>
<text text-anchor="start" x="679.5" y="-221.5" font-family="Helvetica,sans-Serif" font-size="10.00">/software/kratos/doxygen</text>
<text text-anchor="start" x="679.5" y="-210.5" font-family="Helvetica,sans-Serif" font-size="10.00">/applications/DamApplication</text>
<text text-anchor="start" x="679.5" y="-199.5" font-family="Helvetica,sans-Serif" font-size="10.00">/custom_constitutive/thermal</text>
<text text-anchor="middle" x="769" y="-188.5" font-family="Helvetica,sans-Serif" font-size="10.00">_simo_ju_local_damage_3D_law.hpp</text>
</a>
</g>
</g>
<!-- Node1&#45;&gt;Node14 -->
<g id="edge15" class="edge">
<title>Node1&#45;&gt;Node14</title>
<path fill="none" stroke="#63b8ff" d="M502.12,-445.51C519.29,-436.59 537.31,-426.2 553,-415 631.54,-358.93 709.97,-275.33 747,-233.8"/>
<polygon fill="#63b8ff" stroke="#63b8ff" points="500.82,-442.24 493.49,-449.89 503.99,-448.48 500.82,-442.24"/>
</g>
<!-- Node4 -->
<g id="node4" class="node">
<title>Node4</title>
<g id="a_node4"><a xlink:href="../../d7/dd6/thermal__local__damage__plane__strain__2_d__law_8cpp.html" target="_top" xlink:title=" ">
<polygon fill="white" stroke="#666666" points="223,-327 7,-327 7,-275 223,-275 223,-327"/>
<text text-anchor="start" x="15" y="-315" font-family="Helvetica,sans-Serif" font-size="10.00">/software/kratos/doxygen</text>
<text text-anchor="start" x="15" y="-304" font-family="Helvetica,sans-Serif" font-size="10.00">/applications/DamApplication</text>
<text text-anchor="start" x="15" y="-293" font-family="Helvetica,sans-Serif" font-size="10.00">/custom_constitutive/thermal</text>
<text text-anchor="middle" x="115" y="-282" font-family="Helvetica,sans-Serif" font-size="10.00">_local_damage_plane_strain_2D_law.cpp</text>
</a>
</g>
</g>
<!-- Node3&#45;&gt;Node4 -->
<g id="edge3" class="edge">
<title>Node3&#45;&gt;Node4</title>
<path fill="none" stroke="#63b8ff" d="M329.52,-359.65C290.87,-349.27 247.4,-337.58 209.75,-327.46"/>
<polygon fill="#63b8ff" stroke="#63b8ff" points="328.26,-362.94 338.83,-362.15 330.08,-356.18 328.26,-362.94"/>
</g>
<!-- Node5 -->
<g id="node5" class="node">
<title>Node5</title>
<g id="a_node5"><a xlink:href="../../d0/d48/thermal__local__damage__plane__stress__2_d__law_8hpp.html" target="_top" xlink:title=" ">
<polygon fill="white" stroke="#666666" points="459,-327 241,-327 241,-275 459,-275 459,-327"/>
<text text-anchor="start" x="249" y="-315" font-family="Helvetica,sans-Serif" font-size="10.00">/software/kratos/doxygen</text>
<text text-anchor="start" x="249" y="-304" font-family="Helvetica,sans-Serif" font-size="10.00">/applications/DamApplication</text>
<text text-anchor="start" x="249" y="-293" font-family="Helvetica,sans-Serif" font-size="10.00">/custom_constitutive/thermal</text>
<text text-anchor="middle" x="350" y="-282" font-family="Helvetica,sans-Serif" font-size="10.00">_local_damage_plane_stress_2D_law.hpp</text>
</a>
</g>
</g>
<!-- Node3&#45;&gt;Node5 -->
<g id="edge4" class="edge">
<title>Node3&#45;&gt;Node5</title>
<path fill="none" stroke="#63b8ff" d="M401.98,-354.59C393.07,-345.57 383.57,-335.96 375.16,-327.45"/>
<polygon fill="#63b8ff" stroke="#63b8ff" points="399.37,-356.93 408.89,-361.59 404.35,-352.01 399.37,-356.93"/>
</g>
<!-- Node12 -->
<g id="node12" class="node">
<title>Node12</title>
<g id="a_node12"><a xlink:href="../../df/df7/thermal__simo__ju__local__damage__plane__strain__2_d__law_8hpp.html" target="_top" xlink:title=" ">
<polygon fill="white" stroke="#666666" points="653.5,-239 454.5,-239 454.5,-176 653.5,-176 653.5,-239"/>
<text text-anchor="start" x="462.5" y="-227" font-family="Helvetica,sans-Serif" font-size="10.00">/software/kratos/doxygen</text>
<text text-anchor="start" x="462.5" y="-216" font-family="Helvetica,sans-Serif" font-size="10.00">/applications/DamApplication</text>
<text text-anchor="start" x="462.5" y="-205" font-family="Helvetica,sans-Serif" font-size="10.00">/custom_constitutive/thermal</text>
<text text-anchor="start" x="462.5" y="-194" font-family="Helvetica,sans-Serif" font-size="10.00">_simo_ju_local_damage_plane_strain</text>
<text text-anchor="middle" x="554" y="-183" font-family="Helvetica,sans-Serif" font-size="10.00">_2D_law.hpp</text>
</a>
</g>
</g>
<!-- Node3&#45;&gt;Node12 -->
<g id="edge11" class="edge">
<title>Node3&#45;&gt;Node12</title>
<path fill="none" stroke="#63b8ff" d="M457.94,-353.4C479.82,-320.4 512.47,-271.15 533.5,-239.43"/>
<polygon fill="#63b8ff" stroke="#63b8ff" points="455.24,-351.13 452.63,-361.4 461.08,-355 455.24,-351.13"/>
</g>
<!-- Node6 -->
<g id="node6" class="node">
<title>Node6</title>
<g id="a_node6"><a xlink:href="../../db/d01/thermal__local__damage__plane__stress__2_d__law_8cpp.html" target="_top" xlink:title=" ">
<polygon fill="white" stroke="#666666" points="436,-233.5 218,-233.5 218,-181.5 436,-181.5 436,-233.5"/>
<text text-anchor="start" x="226" y="-221.5" font-family="Helvetica,sans-Serif" font-size="10.00">/software/kratos/doxygen</text>
<text text-anchor="start" x="226" y="-210.5" font-family="Helvetica,sans-Serif" font-size="10.00">/applications/DamApplication</text>
<text text-anchor="start" x="226" y="-199.5" font-family="Helvetica,sans-Serif" font-size="10.00">/custom_constitutive/thermal</text>
<text text-anchor="middle" x="327" y="-188.5" font-family="Helvetica,sans-Serif" font-size="10.00">_local_damage_plane_stress_2D_law.cpp</text>
</a>
</g>
</g>
<!-- Node5&#45;&gt;Node6 -->
<g id="edge5" class="edge">
<title>Node5&#45;&gt;Node6</title>
<path fill="none" stroke="#63b8ff" d="M340.86,-263.62C338.35,-253.65 335.69,-243.06 333.37,-233.85"/>
<polygon fill="#63b8ff" stroke="#63b8ff" points="337.39,-264.2 343.22,-273.04 344.18,-262.49 337.39,-264.2"/>
</g>
<!-- Node7 -->
<g id="node7" class="node">
<title>Node7</title>
<g id="a_node7"><a xlink:href="../../da/d77/thermal__simo__ju__local__damage__plane__stress__2_d__law_8hpp.html" target="_top" xlink:title=" ">
<polygon fill="white" stroke="#666666" points="200,-239 0,-239 0,-176 200,-176 200,-239"/>
<text text-anchor="start" x="8" y="-227" font-family="Helvetica,sans-Serif" font-size="10.00">/software/kratos/doxygen</text>
<text text-anchor="start" x="8" y="-216" font-family="Helvetica,sans-Serif" font-size="10.00">/applications/DamApplication</text>
<text text-anchor="start" x="8" y="-205" font-family="Helvetica,sans-Serif" font-size="10.00">/custom_constitutive/thermal</text>
<text text-anchor="start" x="8" y="-194" font-family="Helvetica,sans-Serif" font-size="10.00">_simo_ju_local_damage_plane_stress</text>
<text text-anchor="middle" x="100" y="-183" font-family="Helvetica,sans-Serif" font-size="10.00">_2D_law.hpp</text>
</a>
</g>
</g>
<!-- Node5&#45;&gt;Node7 -->
<g id="edge6" class="edge">
<title>Node5&#45;&gt;Node7</title>
<path fill="none" stroke="#63b8ff" d="M269.7,-270.61C242.45,-260.63 211.93,-249.47 184.37,-239.38"/>
<polygon fill="#63b8ff" stroke="#63b8ff" points="268.35,-273.84 278.94,-273.99 270.75,-267.27 268.35,-273.84"/>
</g>
<!-- Node8 -->
<g id="node8" class="node">
<title>Node8</title>
<g id="a_node8"><a xlink:href="../../d1/dfa/thermal__simo__ju__local__damage__plane__stress__2_d__law_8cpp.html" target="_top" xlink:title=" ">
<polygon fill="white" stroke="#666666" points="200,-140 0,-140 0,-77 200,-77 200,-140"/>
<text text-anchor="start" x="8" y="-128" font-family="Helvetica,sans-Serif" font-size="10.00">/software/kratos/doxygen</text>
<text text-anchor="start" x="8" y="-117" font-family="Helvetica,sans-Serif" font-size="10.00">/applications/DamApplication</text>
<text text-anchor="start" x="8" y="-106" font-family="Helvetica,sans-Serif" font-size="10.00">/custom_constitutive/thermal</text>
<text text-anchor="start" x="8" y="-95" font-family="Helvetica,sans-Serif" font-size="10.00">_simo_ju_local_damage_plane_stress</text>
<text text-anchor="middle" x="100" y="-84" font-family="Helvetica,sans-Serif" font-size="10.00">_2D_law.cpp</text>
</a>
</g>
</g>
<!-- Node7&#45;&gt;Node8 -->
<g id="edge7" class="edge">
<title>Node7&#45;&gt;Node8</title>
<path fill="none" stroke="#63b8ff" d="M100,-164.15C100,-156.2 100,-148.02 100,-140.5"/>
<polygon fill="#63b8ff" stroke="#63b8ff" points="96.5,-164.03 100,-174.03 103.5,-164.03 96.5,-164.03"/>
</g>
<!-- Node9 -->
<g id="node9" class="node">
<title>Node9</title>
<g id="a_node9"><a xlink:href="../../df/d67/_dam_application_2custom__python_2add__custom__constitutive__laws__to__python_8cpp.html" target="_top" xlink:title=" ">
<polygon fill="white" stroke="#666666" points="640,-134.5 420,-134.5 420,-82.5 640,-82.5 640,-134.5"/>
<text text-anchor="start" x="428" y="-122.5" font-family="Helvetica,sans-Serif" font-size="10.00">/software/kratos/doxygen</text>
<text text-anchor="start" x="428" y="-111.5" font-family="Helvetica,sans-Serif" font-size="10.00">/applications/DamApplication</text>
<text text-anchor="start" x="428" y="-100.5" font-family="Helvetica,sans-Serif" font-size="10.00">/custom_python/add_custom_constitutive</text>
<text text-anchor="middle" x="530" y="-89.5" font-family="Helvetica,sans-Serif" font-size="10.00">_laws_to_python.cpp</text>
</a>
</g>
</g>
<!-- Node7&#45;&gt;Node9 -->
<g id="edge8" class="edge">
<title>Node7&#45;&gt;Node9</title>
<path fill="none" stroke="#63b8ff" d="M211.39,-175.54C299.87,-155.94 325.36,-158.58 411,-140 418.19,-138.44 425.6,-136.75 433.05,-134.98"/>
<polygon fill="#63b8ff" stroke="#63b8ff" points="210.74,-172.1 201.76,-177.71 212.28,-178.93 210.74,-172.1"/>
</g>
<!-- Node10 -->
<g id="node10" class="node">
<title>Node10</title>
<g id="a_node10"><a xlink:href="../../d8/dec/dam__application_8h.html" target="_top" xlink:title=" ">
<polygon fill="white" stroke="#666666" points="402,-129 242,-129 242,-88 402,-88 402,-129"/>
<text text-anchor="start" x="250" y="-117" font-family="Helvetica,sans-Serif" font-size="10.00">/software/kratos/doxygen</text>
<text text-anchor="start" x="250" y="-106" font-family="Helvetica,sans-Serif" font-size="10.00">/applications/DamApplication</text>
<text text-anchor="middle" x="322" y="-95" font-family="Helvetica,sans-Serif" font-size="10.00">/dam_application.h</text>
</a>
</g>
</g>
<!-- Node7&#45;&gt;Node10 -->
<g id="edge9" class="edge">
<title>Node7&#45;&gt;Node10</title>
<path fill="none" stroke="#63b8ff" d="M181.12,-171.06C213.18,-157.05 248.84,-141.47 276.25,-129.49"/>
<polygon fill="#63b8ff" stroke="#63b8ff" points="180,-167.72 172.24,-174.94 182.8,-174.14 180,-167.72"/>
</g>
<!-- Node11 -->
<g id="node11" class="node">
<title>Node11</title>
<g id="a_node11"><a xlink:href="../../d3/d06/dam__application_8cpp.html" target="_top" xlink:title=" ">
<polygon fill="white" stroke="#666666" points="402,-41 242,-41 242,0 402,0 402,-41"/>
<text text-anchor="start" x="250" y="-29" font-family="Helvetica,sans-Serif" font-size="10.00">/software/kratos/doxygen</text>
<text text-anchor="start" x="250" y="-18" font-family="Helvetica,sans-Serif" font-size="10.00">/applications/DamApplication</text>
<text text-anchor="middle" x="322" y="-7" font-family="Helvetica,sans-Serif" font-size="10.00">/dam_application.cpp</text>
</a>
</g>
</g>
<!-- Node10&#45;&gt;Node11 -->
<g id="edge10" class="edge">
<title>Node10&#45;&gt;Node11</title>
<path fill="none" stroke="#63b8ff" d="M322,-76.06C322,-64.45 322,-51.63 322,-41.34"/>
<polygon fill="#63b8ff" stroke="#63b8ff" points="318.5,-76.04 322,-86.04 325.5,-76.04 318.5,-76.04"/>
</g>
<!-- Node12&#45;&gt;Node9 -->
<g id="edge13" class="edge">
<title>Node12&#45;&gt;Node9</title>
<path fill="none" stroke="#63b8ff" d="M543.6,-164.46C541.11,-154.42 538.54,-144.01 536.3,-134.98"/>
<polygon fill="#63b8ff" stroke="#63b8ff" points="540.18,-165.21 545.98,-174.07 546.97,-163.52 540.18,-165.21"/>
</g>
<!-- Node12&#45;&gt;Node10 -->
<g id="edge14" class="edge">
<title>Node12&#45;&gt;Node10</title>
<path fill="none" stroke="#63b8ff" d="M469.66,-171.24C436.04,-157.18 398.58,-141.52 369.81,-129.49"/>
<polygon fill="#63b8ff" stroke="#63b8ff" points="467.98,-174.33 478.56,-174.96 470.68,-167.87 467.98,-174.33"/>
</g>
<!-- Node13 -->
<g id="node13" class="node">
<title>Node13</title>
<g id="a_node13"><a xlink:href="../../d9/d6a/thermal__simo__ju__local__damage__plane__strain__2_d__law_8cpp.html" target="_top" xlink:title=" ">
<polygon fill="white" stroke="#666666" points="857.5,-140 658.5,-140 658.5,-77 857.5,-77 857.5,-140"/>
<text text-anchor="start" x="666.5" y="-128" font-family="Helvetica,sans-Serif" font-size="10.00">/software/kratos/doxygen</text>
<text text-anchor="start" x="666.5" y="-117" font-family="Helvetica,sans-Serif" font-size="10.00">/applications/DamApplication</text>
<text text-anchor="start" x="666.5" y="-106" font-family="Helvetica,sans-Serif" font-size="10.00">/custom_constitutive/thermal</text>
<text text-anchor="start" x="666.5" y="-95" font-family="Helvetica,sans-Serif" font-size="10.00">_simo_ju_local_damage_plane_strain</text>
<text text-anchor="middle" x="758" y="-84" font-family="Helvetica,sans-Serif" font-size="10.00">_2D_law.cpp</text>
</a>
</g>
</g>
<!-- Node12&#45;&gt;Node13 -->
<g id="edge12" class="edge">
<title>Node12&#45;&gt;Node13</title>
<path fill="none" stroke="#63b8ff" d="M629.49,-170.6C650.28,-160.72 672.66,-150.08 692.81,-140.5"/>
<polygon fill="#63b8ff" stroke="#63b8ff" points="628,-167.44 620.47,-174.89 631.01,-173.76 628,-167.44"/>
</g>
<!-- Node14&#45;&gt;Node9 -->
<g id="edge17" class="edge">
<title>Node14&#45;&gt;Node9</title>
<path fill="none" stroke="#63b8ff" d="M695.73,-176.76C662.81,-163.4 624.36,-147.8 592.79,-134.98"/>
<polygon fill="#63b8ff" stroke="#63b8ff" points="694.22,-179.93 704.8,-180.45 696.85,-173.44 694.22,-179.93"/>
</g>
<!-- Node14&#45;&gt;Node10 -->
<g id="edge18" class="edge">
<title>Node14&#45;&gt;Node10</title>
<path fill="none" stroke="#63b8ff" d="M673.33,-178.33C669.85,-177.51 666.4,-176.73 663,-176 552.37,-152.3 521,-166.46 411,-140 399.09,-137.14 386.52,-133.33 374.7,-129.38"/>
<polygon fill="#63b8ff" stroke="#63b8ff" points="672.49,-181.72 683.03,-180.7 674.15,-174.92 672.49,-181.72"/>
</g>
<!-- Node15 -->
<g id="node15" class="node">
<title>Node15</title>
<g id="a_node15"><a xlink:href="../../dc/dfa/thermal__simo__ju__local__damage__3_d__law_8cpp.html" target="_top" xlink:title=" ">
<polygon fill="white" stroke="#666666" points="1070,-134.5 876,-134.5 876,-82.5 1070,-82.5 1070,-134.5"/>
<text text-anchor="start" x="884" y="-122.5" font-family="Helvetica,sans-Serif" font-size="10.00">/software/kratos/doxygen</text>
<text text-anchor="start" x="884" y="-111.5" font-family="Helvetica,sans-Serif" font-size="10.00">/applications/DamApplication</text>
<text text-anchor="start" x="884" y="-100.5" font-family="Helvetica,sans-Serif" font-size="10.00">/custom_constitutive/thermal</text>
<text text-anchor="middle" x="973" y="-89.5" font-family="Helvetica,sans-Serif" font-size="10.00">_simo_ju_local_damage_3D_law.cpp</text>
</a>
</g>
</g>
<!-- Node14&#45;&gt;Node15 -->
<g id="edge16" class="edge">
<title>Node14&#45;&gt;Node15</title>
<path fill="none" stroke="#63b8ff" d="M832.64,-176.24C860.49,-163 892.81,-147.63 919.41,-134.98"/>
<polygon fill="#63b8ff" stroke="#63b8ff" points="831.49,-172.91 823.97,-180.36 834.5,-179.23 831.49,-172.91"/>
</g>
</g>
</svg>
        <g id="navigator" transform="translate(0 0)" fill="#404254">
                <rect fill="#f2f5e9" fill-opacity="0.5" stroke="#606060" stroke-width=".5" x="0" y="0" width="60" height="60"/>
                <use id="zoomplus" xlink:href="#zoomPlus" x="17" y="9" onmousedown="handleZoom(evt,'in')"/>
                <use id="zoomminus" xlink:href="#zoomMin" x="42" y="9" onmousedown="handleZoom(evt,'out')"/>
                <use id="reset" xlink:href="#resetDef" x="30" y="36" onmousedown="handleReset()"/>
                <g id="arrowUp" xlink:href="#dirArrow" transform="translate(30 24)" onmousedown="handlePan(0,-1)">
                  <use xlink:href="#rim" fill="#404040">
                        <set attributeName="fill" to="#808080" begin="arrowUp.mouseover" end="arrowUp.mouseout"/>
                  </use>
                  <path fill="none" stroke="white" stroke-width="1.5" d="M0,-3.0v7 M-2.5,-0.5L0,-3.0L2.5,-0.5"/>
                </g>
                <g id="arrowRight" xlink:href="#dirArrow" transform="rotate(90) translate(36 -43)" onmousedown="handlePan(1,0)">
                  <use xlink:href="#rim" fill="#404040">
                        <set attributeName="fill" to="#808080" begin="arrowRight.mouseover" end="arrowRight.mouseout"/>
                  </use>
                  <path fill="none" stroke="white" stroke-width="1.5" d="M0,-3.0v7 M-2.5,-0.5L0,-3.0L2.5,-0.5"/>
                </g>
                <g id="arrowDown" xlink:href="#dirArrow" transform="rotate(180) translate(-30 -48)" onmousedown="handlePan(0,1)">
                  <use xlink:href="#rim" fill="#404040">
                        <set attributeName="fill" to="#808080" begin="arrowDown.mouseover" end="arrowDown.mouseout"/>
                  </use>
                  <path fill="none" stroke="white" stroke-width="1.5" d="M0,-3.0v7 M-2.5,-0.5L0,-3.0L2.5,-0.5"/>
                </g>
                <g id="arrowLeft" xlink:href="#dirArrow" transform="rotate(270) translate(-36 17)" onmousedown="handlePan(-1,0)">
                  <use xlink:href="#rim" fill="#404040">
                        <set attributeName="fill" to="#808080" begin="arrowLeft.mouseover" end="arrowLeft.mouseout"/>
                  </use>
                  <path fill="none" stroke="white" stroke-width="1.5" d="M0,-3.0v7 M-2.5,-0.5L0,-3.0L2.5,-0.5"/>
                </g>
        </g>
        <svg viewBox="0 0 15 15" width="100%" height="30px" preserveAspectRatio="xMaxYMin meet">
         <g id="arrow_out" transform="scale(0.3 0.3)">
          <a xlink:href="thermal__local__damage__3_d__law_8hpp__dep__incl_org.svg" target="_base">
           <rect id="button" ry="5" rx="5" y="6" x="6" height="38" width="38"
                fill="#f2f5e9" fill-opacity="0.5" stroke="#606060" stroke-width="1.0"/>
           <path id="arrow"
             d="M 11.500037,31.436501 C 11.940474,20.09759 22.043105,11.32322 32.158766,21.979434 L 37.068811,17.246167 C 37.068811,17.246167 37.088388,32 37.088388,32 L 22.160133,31.978069 C 22.160133,31.978069 26.997745,27.140456 26.997745,27.140456 C 18.528582,18.264221 13.291696,25.230495 11.500037,31.436501 z"
             style="fill:#404040;"/>
          </a>
         </g>
        </svg>
</svg>
