<?xml version="1.0" encoding="UTF-8" standalone="no"?>
<!DOCTYPE svg PUBLIC "-//W3C//DTD SVG 1.1//EN"
 "http://www.w3.org/Graphics/SVG/1.1/DTD/svg11.dtd">
<!-- Generated by graphviz version 7.1.0 (0)
 -->
<!-- Title: /software/kratos/doxygen/applications/FluidDynamicsApplication/custom_elements/d_vms_dem_coupled.h Pages: 1 -->
<svg width="3362pt" height="995pt"
 viewBox="0.00 0.00 3362.00 995.00" xmlns="http://www.w3.org/2000/svg" xmlns:xlink="http://www.w3.org/1999/xlink">
<g id="graph0" class="graph" transform="scale(1 1) rotate(0) translate(4 991)">
<title>/software/kratos/doxygen/applications/FluidDynamicsApplication/custom_elements/d_vms_dem_coupled.h</title>
<!-- Node1 -->
<g id="node1" class="node">
<title>Node1</title>
<g id="a_node1"><a xlink:title=" ">
<polygon fill="#999999" stroke="#666666" points="1654.5,-987 1433.5,-987 1433.5,-946 1654.5,-946 1654.5,-987"/>
<text text-anchor="start" x="1441.5" y="-975" font-family="Helvetica,sans-Serif" font-size="10.00">/software/kratos/doxygen</text>
<text text-anchor="start" x="1441.5" y="-964" font-family="Helvetica,sans-Serif" font-size="10.00">/applications/FluidDynamicsApplication</text>
<text text-anchor="middle" x="1544" y="-953" font-family="Helvetica,sans-Serif" font-size="10.00">/custom_elements/d_vms_dem_coupled.h</text>
</a>
</g>
</g>
<!-- Node2 -->
<g id="node2" class="node">
<title>Node2</title>
<g id="a_node2"><a xlink:href="../../df/d67/define_8h.html" target="_top" xlink:title=" ">
<polygon fill="white" stroke="#666666" points="1617.5,-140 1518.5,-140 1518.5,-121 1617.5,-121 1617.5,-140"/>
<text text-anchor="middle" x="1568" y="-128" font-family="Helvetica,sans-Serif" font-size="10.00">includes/define.h</text>
</a>
</g>
</g>
<!-- Node1&#45;&gt;Node2 -->
<g id="edge1" class="edge">
<title>Node1&#45;&gt;Node2</title>
<path fill="none" stroke="#63b8ff" d="M1433.28,-960.79C1097.57,-945.79 114,-896.18 114,-830 114,-830 114,-830 114,-311 114,-174.76 284.32,-274.65 402,-206 419.41,-195.85 417.29,-183.5 436,-176 485.96,-155.98 1278.46,-137.65 1506.85,-132.77"/>
<polygon fill="#63b8ff" stroke="#63b8ff" points="1506.81,-136.27 1516.73,-132.56 1506.66,-129.27 1506.81,-136.27"/>
</g>
<!-- Node16 -->
<g id="node10" class="node">
<title>Node16</title>
<g id="a_node10"><a xlink:href="../../d4/dfe/element_8h.html" target="_top" xlink:title=" ">
<polygon fill="white" stroke="#666666" points="1293,-580 1183,-580 1183,-561 1293,-561 1293,-580"/>
<text text-anchor="middle" x="1238" y="-568" font-family="Helvetica,sans-Serif" font-size="10.00">includes/element.h</text>
</a>
</g>
</g>
<!-- Node1&#45;&gt;Node16 -->
<g id="edge13" class="edge">
<title>Node1&#45;&gt;Node16</title>
<path fill="none" stroke="#63b8ff" d="M1433.06,-964.47C1250.08,-959.74 905,-936.67 905,-830 905,-830 905,-830 905,-762 905,-640.43 1074.28,-595.38 1171.45,-579.53"/>
<polygon fill="#63b8ff" stroke="#63b8ff" points="1171.8,-583.01 1181.14,-578.01 1170.72,-576.1 1171.8,-583.01"/>
</g>
<!-- Node88 -->
<g id="node21" class="node">
<title>Node88</title>
<g id="a_node21"><a xlink:href="../../d4/d67/geometry_8h.html" target="_top" xlink:title=" ">
<polygon fill="white" stroke="#666666" points="1941,-453.5 1811,-453.5 1811,-434.5 1941,-434.5 1941,-453.5"/>
<text text-anchor="middle" x="1876" y="-441.5" font-family="Helvetica,sans-Serif" font-size="10.00">geometries/geometry.h</text>
</a>
</g>
</g>
<!-- Node1&#45;&gt;Node88 -->
<g id="edge131" class="edge">
<title>Node1&#45;&gt;Node88</title>
<path fill="none" stroke="#63b8ff" d="M1654.91,-961.92C2030.76,-949.24 3235.99,-904.04 3292,-844 3301.1,-834.25 3300.15,-824.55 3292,-814 3205.28,-701.78 2192.44,-504.57 1935.15,-456.03"/>
<polygon fill="#63b8ff" stroke="#63b8ff" points="1936.14,-452.65 1925.66,-454.24 1934.84,-459.53 1936.14,-452.65"/>
</g>
<!-- Node47 -->
<g id="node26" class="node">
<title>Node47</title>
<g id="a_node26"><a xlink:href="../../dd/d5f/serializer_8h.html" target="_top" xlink:title=" ">
<polygon fill="white" stroke="#666666" points="1002.5,-321.5 889.5,-321.5 889.5,-302.5 1002.5,-302.5 1002.5,-321.5"/>
<text text-anchor="middle" x="946" y="-309.5" font-family="Helvetica,sans-Serif" font-size="10.00">includes/serializer.h</text>
</a>
</g>
</g>
<!-- Node1&#45;&gt;Node47 -->
<g id="edge130" class="edge">
<title>Node1&#45;&gt;Node47</title>
<path fill="none" stroke="#63b8ff" d="M1433.31,-959.56C1199.58,-945.53 677,-905.7 677,-830 677,-830 677,-830 677,-569.5 677,-440.91 839.99,-357.09 912.23,-326.26"/>
<polygon fill="#63b8ff" stroke="#63b8ff" points="913.32,-329.6 921.2,-322.52 910.63,-323.14 913.32,-329.6"/>
</g>
<!-- Node110 -->
<g id="node40" class="node">
<title>Node110</title>
<g id="a_node40"><a xlink:href="../../d0/d8e/cfd__variables_8h.html" target="_top" xlink:title=" ">
<polygon fill="white" stroke="#666666" points="1864,-706.5 1730,-706.5 1730,-687.5 1864,-687.5 1864,-706.5"/>
<text text-anchor="middle" x="1797" y="-694.5" font-family="Helvetica,sans-Serif" font-size="10.00">includes/cfd_variables.h</text>
</a>
</g>
</g>
<!-- Node1&#45;&gt;Node110 -->
<g id="edge132" class="edge">
<title>Node1&#45;&gt;Node110</title>
<path fill="none" stroke="#63b8ff" d="M1562.6,-945.83C1610.21,-895.49 1735.86,-762.65 1780.76,-715.17"/>
<polygon fill="#63b8ff" stroke="#63b8ff" points="1783.25,-717.63 1787.58,-707.96 1778.16,-712.82 1783.25,-717.63"/>
</g>
<!-- Node111 -->
<g id="node41" class="node">
<title>Node111</title>
<g id="a_node41"><a xlink:href="../../d3/df9/qs__vms__dem__coupled_8h.html" target="_top" xlink:title=" ">
<polygon fill="white" stroke="#666666" points="1877,-910 1755,-910 1755,-880 1877,-880 1877,-910"/>
<text text-anchor="start" x="1763" y="-898" font-family="Helvetica,sans-Serif" font-size="10.00">custom_elements/qs</text>
<text text-anchor="middle" x="1816" y="-887" font-family="Helvetica,sans-Serif" font-size="10.00">_vms_dem_coupled.h</text>
</a>
</g>
</g>
<!-- Node1&#45;&gt;Node111 -->
<g id="edge137" class="edge">
<title>Node1&#45;&gt;Node111</title>
<path fill="none" stroke="#63b8ff" d="M1621.94,-945.58C1661.95,-935.36 1710.21,-923.03 1748.59,-913.22"/>
<polygon fill="#63b8ff" stroke="#63b8ff" points="1749.36,-916.64 1758.19,-910.77 1747.63,-909.86 1749.36,-916.64"/>
</g>
<!-- Node116 -->
<g id="node44" class="node">
<title>Node116</title>
<g id="a_node44"><a xlink:href="../../d3/d33/fluid__dynamics__application__variables_8h.html" target="_top" xlink:title=" ">
<polygon fill="white" stroke="#666666" points="1711.5,-712 1562.5,-712 1562.5,-682 1711.5,-682 1711.5,-712"/>
<text text-anchor="start" x="1570.5" y="-700" font-family="Helvetica,sans-Serif" font-size="10.00">fluid_dynamics_application</text>
<text text-anchor="middle" x="1637" y="-689" font-family="Helvetica,sans-Serif" font-size="10.00">_variables.h</text>
</a>
</g>
</g>
<!-- Node1&#45;&gt;Node116 -->
<g id="edge200" class="edge">
<title>Node1&#45;&gt;Node116</title>
<path fill="none" stroke="#63b8ff" d="M1550.84,-945.83C1567.45,-898.04 1609.92,-775.9 1628.3,-723.02"/>
<polygon fill="#63b8ff" stroke="#63b8ff" points="1631.56,-724.3 1631.54,-713.71 1624.95,-722 1631.56,-724.3"/>
</g>
<!-- Node195 -->
<g id="node50" class="node">
<title>Node195</title>
<g id="a_node50"><a xlink:href="../../d1/d27/d__vms_8h.html" target="_top" xlink:title=" ">
<polygon fill="white" stroke="#666666" points="1283,-904.5 1135,-904.5 1135,-885.5 1283,-885.5 1283,-904.5"/>
<text text-anchor="middle" x="1209" y="-892.5" font-family="Helvetica,sans-Serif" font-size="10.00">custom_elements/d_vms.h</text>
</a>
</g>
</g>
<!-- Node1&#45;&gt;Node195 -->
<g id="edge192" class="edge">
<title>Node1&#45;&gt;Node195</title>
<path fill="none" stroke="#63b8ff" d="M1448,-945.58C1388.09,-933.15 1313.16,-917.61 1263.33,-907.27"/>
<polygon fill="#63b8ff" stroke="#63b8ff" points="1264.14,-903.87 1253.64,-905.26 1262.72,-910.72 1264.14,-903.87"/>
</g>
<!-- Node3 -->
<g id="node3" class="node">
<title>Node3</title>
<g id="a_node3"><a xlink:title=" ">
<polygon fill="#e0e0e0" stroke="#999999" points="777.5,-24.5 712.5,-24.5 712.5,-5.5 777.5,-5.5 777.5,-24.5"/>
<text text-anchor="middle" x="745" y="-12.5" font-family="Helvetica,sans-Serif" font-size="10.00">stdexcept</text>
</a>
</g>
</g>
<!-- Node2&#45;&gt;Node3 -->
<g id="edge2" class="edge">
<title>Node2&#45;&gt;Node3</title>
<path fill="none" stroke="#63b8ff" d="M1518.22,-129.04C1357.68,-127.22 860.32,-118.88 797,-85 776.58,-74.08 761.88,-51.23 753.43,-34.82"/>
<polygon fill="#63b8ff" stroke="#63b8ff" points="756.71,-33.58 749.23,-26.08 750.4,-36.61 756.71,-33.58"/>
</g>
<!-- Node4 -->
<g id="node4" class="node">
<title>Node4</title>
<g id="a_node4"><a xlink:title=" ">
<polygon fill="#e0e0e0" stroke="#999999" points="218,-24.5 162,-24.5 162,-5.5 218,-5.5 218,-24.5"/>
<text text-anchor="middle" x="190" y="-12.5" font-family="Helvetica,sans-Serif" font-size="10.00">sstream</text>
</a>
</g>
</g>
<!-- Node2&#45;&gt;Node4 -->
<g id="edge3" class="edge">
<title>Node2&#45;&gt;Node4</title>
<path fill="none" stroke="#63b8ff" d="M1518.09,-127.79C1392.57,-123.25 1053.64,-109.54 772,-85 567.38,-67.17 323.58,-34.55 229.62,-21.56"/>
<polygon fill="#63b8ff" stroke="#63b8ff" points="230.28,-18.12 219.9,-20.21 229.32,-25.05 230.28,-18.12"/>
</g>
<!-- Node5 -->
<g id="node5" class="node">
<title>Node5</title>
<g id="a_node5"><a xlink:href="../../dc/d25/kratos__export__api_8h.html" target="_top" xlink:title=" ">
<polygon fill="white" stroke="#666666" points="991,-30 863,-30 863,0 991,0 991,-30"/>
<text text-anchor="start" x="871" y="-18" font-family="Helvetica,sans-Serif" font-size="10.00">includes/kratos_export</text>
<text text-anchor="middle" x="927" y="-7" font-family="Helvetica,sans-Serif" font-size="10.00">_api.h</text>
</a>
</g>
</g>
<!-- Node2&#45;&gt;Node5 -->
<g id="edge4" class="edge">
<title>Node2&#45;&gt;Node5</title>
<path fill="none" stroke="#63b8ff" d="M1518.24,-120.69C1406.48,-100.9 1135.03,-52.83 1002.42,-29.35"/>
<polygon fill="#63b8ff" stroke="#63b8ff" points="1003.13,-25.93 992.68,-27.63 1001.91,-32.82 1003.13,-25.93"/>
</g>
<!-- Node6 -->
<g id="node6" class="node">
<title>Node6</title>
<g id="a_node6"><a xlink:href="../../d9/dc0/smart__pointers_8h.html" target="_top" xlink:title=" ">
<polygon fill="#fff0f0" stroke="red" points="1541.5,-85 1398.5,-85 1398.5,-66 1541.5,-66 1541.5,-85"/>
<text text-anchor="middle" x="1470" y="-73" font-family="Helvetica,sans-Serif" font-size="10.00">includes/smart_pointers.h</text>
</a>
</g>
</g>
<!-- Node2&#45;&gt;Node6 -->
<g id="edge5" class="edge">
<title>Node2&#45;&gt;Node6</title>
<path fill="none" stroke="#63b8ff" d="M1551.38,-120.51C1536.22,-112.31 1513.58,-100.07 1496.03,-90.58"/>
<polygon fill="#63b8ff" stroke="#63b8ff" points="1498.17,-87.76 1487.71,-86.08 1494.84,-93.91 1498.17,-87.76"/>
</g>
<!-- Node11 -->
<g id="node8" class="node">
<title>Node11</title>
<g id="a_node8"><a xlink:href="../../dd/d2d/exception_8h.html" target="_top" xlink:title=" ">
<polygon fill="#fff0f0" stroke="red" points="923.5,-85 806.5,-85 806.5,-66 923.5,-66 923.5,-85"/>
<text text-anchor="middle" x="865" y="-73" font-family="Helvetica,sans-Serif" font-size="10.00">includes/exception.h</text>
</a>
</g>
</g>
<!-- Node2&#45;&gt;Node11 -->
<g id="edge7" class="edge">
<title>Node2&#45;&gt;Node11</title>
<path fill="none" stroke="#63b8ff" d="M1518.1,-125.77C1416.22,-118.16 1176.92,-100.24 976,-85 962.75,-83.99 948.61,-82.92 935.02,-81.88"/>
<polygon fill="#63b8ff" stroke="#63b8ff" points="935.5,-78.4 925.27,-81.13 934.97,-85.38 935.5,-78.4"/>
</g>
<!-- Node7 -->
<g id="node7" class="node">
<title>Node7</title>
<g id="a_node7"><a xlink:title=" ">
<polygon fill="#e0e0e0" stroke="#999999" points="1766,-24.5 1706,-24.5 1706,-5.5 1766,-5.5 1766,-24.5"/>
<text text-anchor="middle" x="1736" y="-12.5" font-family="Helvetica,sans-Serif" font-size="10.00">iostream</text>
</a>
</g>
</g>
<!-- Node6&#45;&gt;Node7 -->
<g id="edge6" class="edge">
<title>Node6&#45;&gt;Node7</title>
<path fill="none" stroke="#63b8ff" d="M1510.69,-65.55C1560.51,-54.59 1644.44,-36.14 1694.59,-25.11"/>
<polygon fill="#63b8ff" stroke="#63b8ff" points="1695.16,-28.56 1704.18,-23 1693.66,-21.73 1695.16,-28.56"/>
</g>
<!-- Node11&#45;&gt;Node3 -->
<g id="edge8" class="edge">
<title>Node11&#45;&gt;Node3</title>
<path fill="none" stroke="#63b8ff" d="M846.77,-65.62C827.3,-56.12 796.18,-40.95 773.47,-29.88"/>
<polygon fill="#63b8ff" stroke="#63b8ff" points="775.28,-26.87 764.76,-25.63 772.21,-33.16 775.28,-26.87"/>
</g>
<!-- Node11&#45;&gt;Node4 -->
<g id="edge11" class="edge">
<title>Node11&#45;&gt;Node4</title>
<path fill="none" stroke="#63b8ff" d="M806.28,-69.41C671.52,-57.73 342.96,-29.26 229.39,-19.41"/>
<polygon fill="#63b8ff" stroke="#63b8ff" points="229.93,-15.95 219.66,-18.57 229.32,-22.92 229.93,-15.95"/>
</g>
<!-- Node11&#45;&gt;Node5 -->
<g id="edge12" class="edge">
<title>Node11&#45;&gt;Node5</title>
<path fill="none" stroke="#63b8ff" d="M874.42,-65.62C882.14,-58.32 893.42,-47.68 903.56,-38.12"/>
<polygon fill="#63b8ff" stroke="#63b8ff" points="905.72,-40.89 910.6,-31.48 900.92,-35.8 905.72,-40.89"/>
</g>
<!-- Node11&#45;&gt;Node7 -->
<g id="edge10" class="edge">
<title>Node11&#45;&gt;Node7</title>
<path fill="none" stroke="#63b8ff" d="M923.94,-67.36C928.69,-66.87 933.42,-66.41 938,-66 1226.73,-40.16 1575.41,-23.21 1694.11,-17.84"/>
<polygon fill="#63b8ff" stroke="#63b8ff" points="1694.17,-21.34 1704,-17.39 1693.86,-14.34 1694.17,-21.34"/>
</g>
<!-- Node12 -->
<g id="node9" class="node">
<title>Node12</title>
<g id="a_node9"><a xlink:title=" ">
<polygon fill="#e0e0e0" stroke="#999999" points="2562,-24.5 2518,-24.5 2518,-5.5 2562,-5.5 2562,-24.5"/>
<text text-anchor="middle" x="2540" y="-12.5" font-family="Helvetica,sans-Serif" font-size="10.00">string</text>
</a>
</g>
</g>
<!-- Node11&#45;&gt;Node12 -->
<g id="edge9" class="edge">
<title>Node11&#45;&gt;Node12</title>
<path fill="none" stroke="#63b8ff" d="M923.93,-67.2C928.68,-66.75 933.42,-66.34 938,-66 1258.56,-42.38 2305.26,-20.67 2506.4,-16.66"/>
<polygon fill="#63b8ff" stroke="#63b8ff" points="2506.21,-20.16 2516.14,-16.47 2506.07,-13.17 2506.21,-20.16"/>
</g>
<!-- Node17 -->
<g id="node11" class="node">
<title>Node17</title>
<g id="a_node11"><a xlink:href="../../d8/dbb/properties_8h.html" target="_top" xlink:title=" ">
<polygon fill="#fff0f0" stroke="red" points="662.5,-453.5 543.5,-453.5 543.5,-434.5 662.5,-434.5 662.5,-453.5"/>
<text text-anchor="middle" x="603" y="-441.5" font-family="Helvetica,sans-Serif" font-size="10.00">includes/properties.h</text>
</a>
</g>
</g>
<!-- Node16&#45;&gt;Node17 -->
<g id="edge14" class="edge">
<title>Node16&#45;&gt;Node17</title>
<path fill="none" stroke="#63b8ff" d="M1192.33,-560.55C1078.85,-538.3 784.28,-480.54 659.83,-456.14"/>
<polygon fill="#63b8ff" stroke="#63b8ff" points="660.65,-452.74 650.16,-454.25 659.3,-459.61 660.65,-452.74"/>
</g>
<!-- Node85 -->
<g id="node19" class="node">
<title>Node85</title>
<g id="a_node19"><a xlink:href="../../de/db8/process__info_8h.html" target="_top" xlink:title=" ">
<polygon fill="#fff0f0" stroke="red" points="501.5,-387.5 370.5,-387.5 370.5,-368.5 501.5,-368.5 501.5,-387.5"/>
<text text-anchor="middle" x="436" y="-375.5" font-family="Helvetica,sans-Serif" font-size="10.00">includes/process_info.h</text>
</a>
</g>
</g>
<!-- Node16&#45;&gt;Node85 -->
<g id="edge46" class="edge">
<title>Node16&#45;&gt;Node85</title>
<path fill="none" stroke="#63b8ff" d="M1182.67,-566.37C1108.52,-561.41 973.15,-549.66 860,-525 817.57,-515.75 809.38,-504.51 767,-495 646.3,-467.9 596.52,-523.57 491,-459 467.9,-444.87 452.13,-416.97 443.59,-398.14"/>
<polygon fill="#63b8ff" stroke="#63b8ff" points="446.92,-397.03 439.8,-389.19 440.48,-399.77 446.92,-397.03"/>
</g>
<!-- Node87 -->
<g id="node20" class="node">
<title>Node87</title>
<g id="a_node20"><a xlink:href="../../d5/d6d/geometrical__object_8h.html" target="_top" xlink:title=" ">
<polygon fill="#fff0f0" stroke="red" points="1727.5,-525 1608.5,-525 1608.5,-495 1727.5,-495 1727.5,-525"/>
<text text-anchor="start" x="1616.5" y="-513" font-family="Helvetica,sans-Serif" font-size="10.00">includes/geometrical</text>
<text text-anchor="middle" x="1668" y="-502" font-family="Helvetica,sans-Serif" font-size="10.00">_object.h</text>
</a>
</g>
</g>
<!-- Node16&#45;&gt;Node87 -->
<g id="edge47" class="edge">
<title>Node16&#45;&gt;Node87</title>
<path fill="none" stroke="#63b8ff" d="M1293.33,-561.97C1370.75,-551.44 1511.45,-532.3 1596.66,-520.71"/>
<polygon fill="#63b8ff" stroke="#63b8ff" points="1597.11,-524.18 1606.54,-519.36 1596.16,-517.24 1597.11,-524.18"/>
</g>
<!-- Node97 -->
<g id="node36" class="node">
<title>Node97</title>
<g id="a_node36"><a xlink:href="../../d6/ddf/constitutive__law_8h.html" target="_top" xlink:title=" ">
<polygon fill="#fff0f0" stroke="red" points="1297,-525 1179,-525 1179,-495 1297,-495 1297,-525"/>
<text text-anchor="start" x="1187" y="-513" font-family="Helvetica,sans-Serif" font-size="10.00">includes/constitutive</text>
<text text-anchor="middle" x="1238" y="-502" font-family="Helvetica,sans-Serif" font-size="10.00">_law.h</text>
</a>
</g>
</g>
<!-- Node16&#45;&gt;Node97 -->
<g id="edge103" class="edge">
<title>Node16&#45;&gt;Node97</title>
<path fill="none" stroke="#63b8ff" d="M1238,-560.87C1238,-554.4 1238,-545.2 1238,-536.45"/>
<polygon fill="#63b8ff" stroke="#63b8ff" points="1241.5,-536.63 1238,-526.63 1234.5,-536.63 1241.5,-536.63"/>
</g>
<!-- Node81 -->
<g id="node38" class="node">
<title>Node81</title>
<g id="a_node38"><a xlink:href="../../de/d44/global__pointers__vector_8h.html" target="_top" xlink:title=" ">
<polygon fill="#fff0f0" stroke="red" points="1476,-393 1330,-393 1330,-363 1476,-363 1476,-393"/>
<text text-anchor="start" x="1338" y="-381" font-family="Helvetica,sans-Serif" font-size="10.00">containers/global_pointers</text>
<text text-anchor="middle" x="1403" y="-370" font-family="Helvetica,sans-Serif" font-size="10.00">_vector.h</text>
</a>
</g>
</g>
<!-- Node16&#45;&gt;Node81 -->
<g id="edge129" class="edge">
<title>Node16&#45;&gt;Node81</title>
<path fill="none" stroke="#63b8ff" d="M1255.6,-560.6C1270.22,-552.63 1290.98,-539.91 1306,-525 1343.47,-487.79 1374.72,-433.94 1390.95,-403.1"/>
<polygon fill="#63b8ff" stroke="#63b8ff" points="1393.88,-405.06 1395.36,-394.57 1387.66,-401.85 1393.88,-405.06"/>
</g>
<!-- Node106 -->
<g id="node39" class="node">
<title>Node106</title>
<g id="a_node39"><a xlink:href="../../db/d71/kratos__parameters_8h.html" target="_top" xlink:title=" ">
<polygon fill="#fff0f0" stroke="red" points="1132.5,-453.5 971.5,-453.5 971.5,-434.5 1132.5,-434.5 1132.5,-453.5"/>
<text text-anchor="middle" x="1052" y="-441.5" font-family="Helvetica,sans-Serif" font-size="10.00">includes/kratos_parameters.h</text>
</a>
</g>
</g>
<!-- Node16&#45;&gt;Node106 -->
<g id="edge128" class="edge">
<title>Node16&#45;&gt;Node106</title>
<path fill="none" stroke="#63b8ff" d="M1224.15,-560.53C1210.38,-551.59 1188.67,-537.44 1170,-525 1136.63,-502.77 1098.23,-476.63 1074.54,-460.44"/>
<polygon fill="#63b8ff" stroke="#63b8ff" points="1076.53,-457.56 1066.3,-454.8 1072.58,-463.34 1076.53,-457.56"/>
</g>
<!-- Node17&#45;&gt;Node2 -->
<g id="edge18" class="edge">
<title>Node17&#45;&gt;Node2</title>
<path fill="none" stroke="#63b8ff" d="M602.3,-434.48C600.72,-419.18 595.86,-386.5 582,-363 545.52,-301.17 426.86,-295.25 475,-242 483.76,-232.31 1277.9,-158.29 1506.86,-137.13"/>
<polygon fill="#63b8ff" stroke="#63b8ff" points="1507.14,-140.62 1516.78,-136.22 1506.5,-133.65 1507.14,-140.62"/>
</g>
<!-- Node17&#45;&gt;Node7 -->
<g id="edge16" class="edge">
<title>Node17&#45;&gt;Node7</title>
<path fill="none" stroke="#63b8ff" d="M598.11,-434.17C589.05,-418.39 568.35,-384.96 544,-363 522.55,-343.65 457.42,-310.72 432,-297 351.36,-253.49 295.43,-283.79 247,-206 239.95,-194.68 238.76,-186.48 247,-176 375.06,-13.13 494.94,-95.57 700,-66 897.11,-37.58 1527.02,-20.94 1694.68,-16.95"/>
<polygon fill="#63b8ff" stroke="#63b8ff" points="1694.51,-20.45 1704.43,-16.72 1694.35,-13.45 1694.51,-20.45"/>
</g>
<!-- Node17&#45;&gt;Node12 -->
<g id="edge15" class="edge">
<title>Node17&#45;&gt;Node12</title>
<path fill="none" stroke="#63b8ff" d="M592.5,-434.21C580.66,-424.27 560.86,-407.58 544,-393 528.76,-379.82 527,-373.82 510,-363 414.3,-302.06 359.14,-338.19 276,-261 246.75,-233.84 220.7,-206.02 247,-176 348.34,-60.33 781.63,-112.1 933,-85 970.68,-78.25 979.03,-70.87 1017,-66 1169.11,-46.48 2295.2,-21.3 2506.04,-16.73"/>
<polygon fill="#63b8ff" stroke="#63b8ff" points="2506.1,-20.23 2516.02,-16.51 2505.95,-13.23 2506.1,-20.23"/>
</g>
<!-- Node19 -->
<g id="node12" class="node">
<title>Node19</title>
<g id="a_node12"><a xlink:title=" ">
<polygon fill="#e0e0e0" stroke="#999999" points="577.5,-261 484.5,-261 484.5,-242 577.5,-242 577.5,-261"/>
<text text-anchor="middle" x="531" y="-249" font-family="Helvetica,sans-Serif" font-size="10.00">unordered_map</text>
</a>
</g>
</g>
<!-- Node17&#45;&gt;Node19 -->
<g id="edge17" class="edge">
<title>Node17&#45;&gt;Node19</title>
<path fill="none" stroke="#63b8ff" d="M607.62,-434.06C614.68,-419.21 626.67,-388.55 620,-363 611.5,-330.46 604.33,-323 583,-297 574.21,-286.28 562.62,-276.08 552.62,-268.16"/>
<polygon fill="#63b8ff" stroke="#63b8ff" points="554.94,-265.53 544.86,-262.24 550.69,-271.09 554.94,-265.53"/>
</g>
<!-- Node63 -->
<g id="node13" class="node">
<title>Node63</title>
<g id="a_node13"><a xlink:href="../../d1/d82/data__value__container_8h.html" target="_top" xlink:title=" ">
<polygon fill="#fff0f0" stroke="red" points="1341.5,-327 1216.5,-327 1216.5,-297 1341.5,-297 1341.5,-327"/>
<text text-anchor="start" x="1224.5" y="-315" font-family="Helvetica,sans-Serif" font-size="10.00">containers/data_value</text>
<text text-anchor="middle" x="1279" y="-304" font-family="Helvetica,sans-Serif" font-size="10.00">_container.h</text>
</a>
</g>
</g>
<!-- Node17&#45;&gt;Node63 -->
<g id="edge19" class="edge">
<title>Node17&#45;&gt;Node63</title>
<path fill="none" stroke="#63b8ff" d="M649.73,-434.01C765.32,-411.78 1065.37,-354.08 1205.23,-327.19"/>
<polygon fill="#63b8ff" stroke="#63b8ff" points="1205.59,-330.68 1214.75,-325.36 1204.27,-323.81 1205.59,-330.68"/>
</g>
<!-- Node17&#45;&gt;Node85 -->
<g id="edge39" class="edge">
<title>Node17&#45;&gt;Node85</title>
<path fill="none" stroke="#63b8ff" d="M579.78,-434.1C551.19,-423.15 502.43,-404.46 469.72,-391.92"/>
<polygon fill="#63b8ff" stroke="#63b8ff" points="471.3,-388.78 460.71,-388.47 468.79,-395.31 471.3,-388.78"/>
</g>
<!-- Node63&#45;&gt;Node2 -->
<g id="edge22" class="edge">
<title>Node63&#45;&gt;Node2</title>
<path fill="none" stroke="#63b8ff" d="M1309.48,-296.5C1348.48,-277.52 1417.6,-242.34 1473,-206 1500.76,-187.79 1530.53,-163.6 1549.21,-147.79"/>
<polygon fill="#63b8ff" stroke="#63b8ff" points="1551.41,-150.51 1556.74,-141.35 1546.86,-145.19 1551.41,-150.51"/>
</g>
<!-- Node63&#45;&gt;Node7 -->
<g id="edge21" class="edge">
<title>Node63&#45;&gt;Node7</title>
<path fill="none" stroke="#63b8ff" d="M1266.27,-296.51C1231.44,-255.11 1141.26,-134.91 1204,-66 1236.86,-29.9 1575.35,-19.36 1694.66,-16.76"/>
<polygon fill="#63b8ff" stroke="#63b8ff" points="1694.39,-20.26 1704.31,-16.55 1694.24,-13.26 1694.39,-20.26"/>
</g>
<!-- Node63&#45;&gt;Node11 -->
<g id="edge38" class="edge">
<title>Node63&#45;&gt;Node11</title>
<path fill="none" stroke="#63b8ff" d="M1252.64,-296.52C1216.04,-276.38 1147.83,-238.7 1090,-206 1017.1,-164.77 931.48,-115.16 890.02,-91.06"/>
<polygon fill="#63b8ff" stroke="#63b8ff" points="891.94,-88.14 881.54,-86.13 888.43,-94.19 891.94,-88.14"/>
</g>
<!-- Node63&#45;&gt;Node12 -->
<g id="edge20" class="edge">
<title>Node63&#45;&gt;Node12</title>
<path fill="none" stroke="#63b8ff" d="M1283.29,-296.9C1292.09,-270.09 1314.57,-211.26 1352,-176 1394.11,-136.32 1415.8,-141.25 1470,-121 1553.15,-89.93 1574.48,-80.84 1662,-66 1829.11,-37.67 2366.79,-20.87 2506.55,-16.91"/>
<polygon fill="#63b8ff" stroke="#63b8ff" points="2506.32,-20.42 2516.22,-16.64 2506.13,-13.42 2506.32,-20.42"/>
</g>
<!-- Node64 -->
<g id="node14" class="node">
<title>Node64</title>
<g id="a_node14"><a xlink:href="../../da/d89/variable_8h.html" target="_top" xlink:title=" ">
<polygon fill="#fff0f0" stroke="red" points="2755.5,-200.5 2636.5,-200.5 2636.5,-181.5 2755.5,-181.5 2755.5,-200.5"/>
<text text-anchor="middle" x="2696" y="-188.5" font-family="Helvetica,sans-Serif" font-size="10.00">containers/variable.h</text>
</a>
</g>
</g>
<!-- Node63&#45;&gt;Node64 -->
<g id="edge23" class="edge">
<title>Node63&#45;&gt;Node64</title>
<path fill="none" stroke="#63b8ff" d="M1341.75,-309.2C1601.84,-301.65 2582.97,-272.49 2613,-261 2641.06,-250.26 2666.52,-225.91 2681.64,-209.21"/>
<polygon fill="#63b8ff" stroke="#63b8ff" points="2684,-211.84 2687.93,-202 2678.72,-207.24 2684,-211.84"/>
</g>
<!-- Node67 -->
<g id="node15" class="node">
<title>Node67</title>
<g id="a_node15"><a xlink:href="../../dc/d8e/kratos__components_8h.html" target="_top" xlink:title=" ">
<polygon fill="#fff0f0" stroke="red" points="2463.5,-261 2298.5,-261 2298.5,-242 2463.5,-242 2463.5,-261"/>
<text text-anchor="middle" x="2381" y="-249" font-family="Helvetica,sans-Serif" font-size="10.00">includes/kratos_components.h</text>
</a>
</g>
</g>
<!-- Node63&#45;&gt;Node67 -->
<g id="edge27" class="edge">
<title>Node63&#45;&gt;Node67</title>
<path fill="none" stroke="#63b8ff" d="M1341.81,-307.67C1526.29,-297.87 2067.32,-269.15 2286.83,-257.5"/>
<polygon fill="#63b8ff" stroke="#63b8ff" points="2286.99,-261 2296.79,-256.97 2286.62,-254.01 2286.99,-261"/>
</g>
<!-- Node64&#45;&gt;Node2 -->
<g id="edge26" class="edge">
<title>Node64&#45;&gt;Node2</title>
<path fill="none" stroke="#63b8ff" d="M2636.22,-181.62C2619.36,-179.51 2600.99,-177.43 2584,-176 2536.33,-171.98 1840.97,-142.86 1628.93,-134.03"/>
<polygon fill="#63b8ff" stroke="#63b8ff" points="1629.37,-130.55 1619.24,-133.63 1629.08,-137.54 1629.37,-130.55"/>
</g>
<!-- Node64&#45;&gt;Node7 -->
<g id="edge25" class="edge">
<title>Node64&#45;&gt;Node7</title>
<path fill="none" stroke="#63b8ff" d="M2666.28,-181.03C2637.36,-171.93 2592.43,-156.83 2555,-140 2492.95,-112.09 2486.22,-85.37 2421,-66 2299.35,-29.87 1906.43,-19.25 1777.45,-16.7"/>
<polygon fill="#63b8ff" stroke="#63b8ff" points="1777.73,-13.21 1767.67,-16.52 1777.6,-20.21 1777.73,-13.21"/>
</g>
<!-- Node64&#45;&gt;Node12 -->
<g id="edge24" class="edge">
<title>Node64&#45;&gt;Node12</title>
<path fill="none" stroke="#63b8ff" d="M2703.55,-181.22C2721.3,-159.49 2762.14,-102.31 2734,-66 2714.52,-40.87 2623.9,-26.13 2573.7,-19.76"/>
<polygon fill="#63b8ff" stroke="#63b8ff" points="2574.32,-16.31 2563.97,-18.57 2573.47,-23.26 2574.32,-16.31"/>
</g>
<!-- Node67&#45;&gt;Node2 -->
<g id="edge32" class="edge">
<title>Node67&#45;&gt;Node2</title>
<path fill="none" stroke="#63b8ff" d="M2366.39,-241.61C2338.64,-225.25 2275.9,-190.69 2218,-176 2161.9,-161.76 1780.04,-141.85 1629.16,-134.43"/>
<polygon fill="#63b8ff" stroke="#63b8ff" points="1629.51,-130.95 1619.36,-133.95 1629.17,-137.94 1629.51,-130.95"/>
</g>
<!-- Node67&#45;&gt;Node7 -->
<g id="edge29" class="edge">
<title>Node67&#45;&gt;Node7</title>
<path fill="none" stroke="#63b8ff" d="M2381.8,-241.76C2384.03,-211.72 2386.87,-111.98 2332,-66 2289.65,-30.51 1905.69,-19.47 1777.47,-16.76"/>
<polygon fill="#63b8ff" stroke="#63b8ff" points="1777.81,-13.26 1767.74,-16.56 1777.67,-20.26 1777.81,-13.26"/>
</g>
<!-- Node67&#45;&gt;Node12 -->
<g id="edge28" class="edge">
<title>Node67&#45;&gt;Node12</title>
<path fill="none" stroke="#63b8ff" d="M2387.04,-241.59C2410.45,-207.06 2495.54,-81.58 2527.63,-34.24"/>
<polygon fill="#63b8ff" stroke="#63b8ff" points="2530.39,-36.41 2533.11,-26.17 2524.6,-32.48 2530.39,-36.41"/>
</g>
<!-- Node67&#45;&gt;Node64 -->
<g id="edge37" class="edge">
<title>Node67&#45;&gt;Node64</title>
<path fill="none" stroke="#63b8ff" d="M2429.18,-241.55C2484.8,-231.22 2576.3,-214.23 2636.36,-203.08"/>
<polygon fill="#63b8ff" stroke="#63b8ff" points="2636.88,-206.54 2646.07,-201.27 2635.6,-199.66 2636.88,-206.54"/>
</g>
<!-- Node49 -->
<g id="node16" class="node">
<title>Node49</title>
<g id="a_node16"><a xlink:title=" ">
<polygon fill="#e0e0e0" stroke="#999999" points="1672,-200.5 1634,-200.5 1634,-181.5 1672,-181.5 1672,-200.5"/>
<text text-anchor="middle" x="1653" y="-188.5" font-family="Helvetica,sans-Serif" font-size="10.00">map</text>
</a>
</g>
</g>
<!-- Node67&#45;&gt;Node49 -->
<g id="edge30" class="edge">
<title>Node67&#45;&gt;Node49</title>
<path fill="none" stroke="#63b8ff" d="M2298.2,-243.85C2137.24,-230.91 1788.72,-202.91 1683.62,-194.46"/>
<polygon fill="#63b8ff" stroke="#63b8ff" points="1684.06,-190.98 1673.81,-193.67 1683.5,-197.96 1684.06,-190.98"/>
</g>
<!-- Node68 -->
<g id="node17" class="node">
<title>Node68</title>
<g id="a_node17"><a xlink:title=" ">
<polygon fill="#e0e0e0" stroke="#999999" points="2175.5,-200.5 2118.5,-200.5 2118.5,-181.5 2175.5,-181.5 2175.5,-200.5"/>
<text text-anchor="middle" x="2147" y="-188.5" font-family="Helvetica,sans-Serif" font-size="10.00">typeinfo</text>
</a>
</g>
</g>
<!-- Node67&#45;&gt;Node68 -->
<g id="edge31" class="edge">
<title>Node67&#45;&gt;Node68</title>
<path fill="none" stroke="#63b8ff" d="M2345.21,-241.55C2302.45,-230.86 2231.16,-213.04 2186.73,-201.93"/>
<polygon fill="#63b8ff" stroke="#63b8ff" points="2187.8,-198.59 2177.25,-199.56 2186.1,-205.38 2187.8,-198.59"/>
</g>
<!-- Node53 -->
<g id="node18" class="node">
<title>Node53</title>
<g id="a_node18"><a xlink:href="../../d9/da0/flags_8h.html" target="_top" xlink:title=" ">
<polygon fill="white" stroke="#666666" points="1463.5,-200.5 1360.5,-200.5 1360.5,-181.5 1463.5,-181.5 1463.5,-200.5"/>
<text text-anchor="middle" x="1412" y="-188.5" font-family="Helvetica,sans-Serif" font-size="10.00">containers/flags.h</text>
</a>
</g>
</g>
<!-- Node67&#45;&gt;Node53 -->
<g id="edge33" class="edge">
<title>Node67&#45;&gt;Node53</title>
<path fill="none" stroke="#63b8ff" d="M2298.21,-245.81C2159.12,-237.9 1869.73,-221.25 1625,-206 1574.52,-202.86 1517.32,-199.08 1474.92,-196.25"/>
<polygon fill="#63b8ff" stroke="#63b8ff" points="1475.36,-192.77 1465.15,-195.59 1474.9,-199.76 1475.36,-192.77"/>
</g>
<!-- Node53&#45;&gt;Node2 -->
<g id="edge36" class="edge">
<title>Node53&#45;&gt;Node2</title>
<path fill="none" stroke="#63b8ff" d="M1435.69,-181.12C1461.69,-171.37 1503.67,-155.62 1533.36,-144.49"/>
<polygon fill="#63b8ff" stroke="#63b8ff" points="1534.53,-147.79 1542.67,-141 1532.07,-141.23 1534.53,-147.79"/>
</g>
<!-- Node53&#45;&gt;Node7 -->
<g id="edge35" class="edge">
<title>Node53&#45;&gt;Node7</title>
<path fill="none" stroke="#63b8ff" d="M1406.24,-181.23C1392.42,-159.02 1360.66,-99.88 1390,-66 1428.95,-21.02 1611.2,-15.61 1694.39,-15.54"/>
<polygon fill="#63b8ff" stroke="#63b8ff" points="1694.16,-19.04 1704.17,-15.56 1694.18,-12.04 1694.16,-19.04"/>
</g>
<!-- Node53&#45;&gt;Node12 -->
<g id="edge34" class="edge">
<title>Node53&#45;&gt;Node12</title>
<path fill="none" stroke="#63b8ff" d="M1421.05,-181.12C1437.3,-165.81 1473.16,-134.76 1510,-121 1699.34,-50.27 2350.9,-22.78 2506.45,-17.14"/>
<polygon fill="#63b8ff" stroke="#63b8ff" points="2506.2,-20.65 2516.07,-16.8 2505.95,-13.66 2506.2,-20.65"/>
</g>
<!-- Node85&#45;&gt;Node2 -->
<g id="edge43" class="edge">
<title>Node85&#45;&gt;Node2</title>
<path fill="none" stroke="#63b8ff" d="M429.24,-368.11C412.08,-344.39 370.45,-278.88 404,-242 441.53,-200.74 1272.62,-148.88 1506.98,-135.03"/>
<polygon fill="#63b8ff" stroke="#63b8ff" points="1507.04,-138.53 1516.82,-134.45 1506.63,-131.55 1507.04,-138.53"/>
</g>
<!-- Node85&#45;&gt;Node4 -->
<g id="edge42" class="edge">
<title>Node85&#45;&gt;Node4</title>
<path fill="none" stroke="#63b8ff" d="M370.25,-377.75C248.45,-375.32 0,-350.9 0,-192 0,-192 0,-192 0,-129.5 0,-60.09 94.61,-32.12 150.31,-21.67"/>
<polygon fill="#63b8ff" stroke="#63b8ff" points="150.82,-25.13 160.06,-19.96 149.61,-18.24 150.82,-25.13"/>
</g>
<!-- Node85&#45;&gt;Node7 -->
<g id="edge41" class="edge">
<title>Node85&#45;&gt;Node7</title>
<path fill="none" stroke="#63b8ff" d="M370.35,-369.91C282.74,-356.23 134.59,-316.91 100,-206 72.66,-118.32 165.11,-95.77 252,-66 322,-42.02 1460.46,-20.83 1694.24,-16.72"/>
<polygon fill="#63b8ff" stroke="#63b8ff" points="1694.15,-20.22 1704.09,-16.55 1694.03,-13.22 1694.15,-20.22"/>
</g>
<!-- Node85&#45;&gt;Node12 -->
<g id="edge40" class="edge">
<title>Node85&#45;&gt;Node12</title>
<path fill="none" stroke="#63b8ff" d="M415.59,-368.12C354.11,-340.23 178.98,-251.72 247,-176 285.2,-133.48 1212.99,-70.18 1270,-66 1760.71,-30 2360.1,-18.78 2506.56,-16.48"/>
<polygon fill="#63b8ff" stroke="#63b8ff" points="2506.36,-19.99 2516.31,-16.33 2506.26,-12.99 2506.36,-19.99"/>
</g>
<!-- Node85&#45;&gt;Node63 -->
<g id="edge44" class="edge">
<title>Node85&#45;&gt;Node63</title>
<path fill="none" stroke="#63b8ff" d="M501.8,-372C656.47,-360.26 1042.37,-330.96 1204.94,-318.62"/>
<polygon fill="#63b8ff" stroke="#63b8ff" points="1205.04,-322.13 1214.74,-317.88 1204.51,-315.15 1205.04,-322.13"/>
</g>
<!-- Node85&#45;&gt;Node53 -->
<g id="edge45" class="edge">
<title>Node85&#45;&gt;Node53</title>
<path fill="none" stroke="#63b8ff" d="M435.42,-368.23C434.35,-343.63 435.08,-273.72 475,-242 483.58,-235.19 1139.75,-204.5 1348.79,-194.89"/>
<polygon fill="#63b8ff" stroke="#63b8ff" points="1348.81,-198.39 1358.64,-194.44 1348.49,-191.4 1348.81,-198.39"/>
</g>
<!-- Node87&#45;&gt;Node2 -->
<g id="edge48" class="edge">
<title>Node87&#45;&gt;Node2</title>
<path fill="none" stroke="#63b8ff" d="M1662.84,-494.6C1655.38,-472.91 1641.91,-430.41 1637,-393 1624.19,-295.43 1736.39,-257.34 1681,-176 1668.98,-158.35 1648.8,-147.71 1628.78,-141.28"/>
<polygon fill="#63b8ff" stroke="#63b8ff" points="1629.76,-137.92 1619.19,-138.54 1627.84,-144.65 1629.76,-137.92"/>
</g>
<!-- Node87&#45;&gt;Node53 -->
<g id="edge49" class="edge">
<title>Node87&#45;&gt;Node53</title>
<path fill="none" stroke="#63b8ff" d="M1656.33,-494.56C1614.53,-442.79 1472.3,-266.67 1426.4,-209.83"/>
<polygon fill="#63b8ff" stroke="#63b8ff" points="1429.18,-207.7 1420.17,-202.12 1423.73,-212.1 1429.18,-207.7"/>
</g>
<!-- Node87&#45;&gt;Node88 -->
<g id="edge50" class="edge">
<title>Node87&#45;&gt;Node88</title>
<path fill="none" stroke="#63b8ff" d="M1714.94,-494.56C1751.48,-483.31 1801.64,-467.88 1836.23,-457.24"/>
<polygon fill="#63b8ff" stroke="#63b8ff" points="1836.9,-460.69 1845.42,-454.41 1834.84,-454 1836.9,-460.69"/>
</g>
<!-- Node88&#45;&gt;Node63 -->
<g id="edge93" class="edge">
<title>Node88&#45;&gt;Node63</title>
<path fill="none" stroke="#63b8ff" d="M1810.62,-440.6C1672.62,-435.04 1360.93,-419.65 1321,-393 1302.18,-380.44 1291.24,-356.64 1285.27,-338.25"/>
<polygon fill="#63b8ff" stroke="#63b8ff" points="1288.68,-337.45 1282.52,-328.83 1281.96,-339.41 1288.68,-337.45"/>
</g>
<!-- Node88&#45;&gt;Node68 -->
<g id="edge51" class="edge">
<title>Node88&#45;&gt;Node68</title>
<path fill="none" stroke="#63b8ff" d="M1941.4,-439.47C2010.21,-434.27 2111.95,-421.81 2137,-393 2181.88,-341.37 2163.96,-251.13 2153.05,-211.55"/>
<polygon fill="#63b8ff" stroke="#63b8ff" points="2156.43,-210.66 2150.26,-202.04 2149.71,-212.62 2156.43,-210.66"/>
</g>
<!-- Node89 -->
<g id="node22" class="node">
<title>Node89</title>
<g id="a_node22"><a xlink:href="../../d1/dbc/geometry__data_8h.html" target="_top" xlink:title=" ">
<polygon fill="#fff0f0" stroke="red" points="2056,-327 1934,-327 1934,-297 2056,-297 2056,-327"/>
<text text-anchor="start" x="1942" y="-315" font-family="Helvetica,sans-Serif" font-size="10.00">geometries/geometry</text>
<text text-anchor="middle" x="1995" y="-304" font-family="Helvetica,sans-Serif" font-size="10.00">_data.h</text>
</a>
</g>
</g>
<!-- Node88&#45;&gt;Node89 -->
<g id="edge52" class="edge">
<title>Node88&#45;&gt;Node89</title>
<path fill="none" stroke="#63b8ff" d="M1902.61,-434.08C1922.55,-426.15 1949.19,-412.73 1966,-393 1979.31,-377.38 1986.72,-355.15 1990.71,-338.09"/>
<polygon fill="#63b8ff" stroke="#63b8ff" points="1994.04,-339.23 1992.64,-328.72 1987.19,-337.81 1994.04,-339.23"/>
</g>
<!-- Node24 -->
<g id="node24" class="node">
<title>Node24</title>
<g id="a_node24"><a xlink:href="../../d2/d91/point_8h.html" target="_top" xlink:title=" ">
<polygon fill="white" stroke="#666666" points="2127.5,-387.5 2018.5,-387.5 2018.5,-368.5 2127.5,-368.5 2127.5,-387.5"/>
<text text-anchor="middle" x="2073" y="-375.5" font-family="Helvetica,sans-Serif" font-size="10.00">geometries/point.h</text>
</a>
</g>
</g>
<!-- Node88&#45;&gt;Node24 -->
<g id="edge57" class="edge">
<title>Node88&#45;&gt;Node24</title>
<path fill="none" stroke="#63b8ff" d="M1903.39,-434.1C1937.55,-423 1996.14,-403.97 2034.73,-391.43"/>
<polygon fill="#63b8ff" stroke="#63b8ff" points="2035.66,-394.81 2044.08,-388.39 2033.49,-388.16 2035.66,-394.81"/>
</g>
<!-- Node58 -->
<g id="node32" class="node">
<title>Node58</title>
<g id="a_node32"><a xlink:href="../../d1/d8c/logger_8h.html" target="_top" xlink:title=" ">
<polygon fill="#fff0f0" stroke="red" points="1912,-140 1792,-140 1792,-121 1912,-121 1912,-140"/>
<text text-anchor="middle" x="1852" y="-128" font-family="Helvetica,sans-Serif" font-size="10.00">input_output/logger.h</text>
</a>
</g>
</g>
<!-- Node88&#45;&gt;Node58 -->
<g id="edge97" class="edge">
<title>Node88&#45;&gt;Node58</title>
<path fill="none" stroke="#63b8ff" d="M1877.11,-434.29C1879.51,-415 1885.1,-367.21 1887,-327 1887.63,-313.68 1888.39,-310.26 1887,-297 1881.42,-243.6 1865.96,-182.07 1857.58,-151.25"/>
<polygon fill="#63b8ff" stroke="#63b8ff" points="1861.01,-150.53 1854.96,-141.82 1854.26,-152.4 1861.01,-150.53"/>
</g>
<!-- Node93 -->
<g id="node33" class="node">
<title>Node93</title>
<g id="a_node33"><a xlink:href="../../d4/df9/pointer__vector_8h.html" target="_top" xlink:title=" ">
<polygon fill="#fff0f0" stroke="red" points="2365.5,-393 2260.5,-393 2260.5,-363 2365.5,-363 2365.5,-393"/>
<text text-anchor="start" x="2268.5" y="-381" font-family="Helvetica,sans-Serif" font-size="10.00">containers/pointer</text>
<text text-anchor="middle" x="2313" y="-370" font-family="Helvetica,sans-Serif" font-size="10.00">_vector.h</text>
</a>
</g>
</g>
<!-- Node88&#45;&gt;Node93 -->
<g id="edge87" class="edge">
<title>Node88&#45;&gt;Node93</title>
<path fill="none" stroke="#63b8ff" d="M1937.22,-434.03C2019.53,-421.98 2165.18,-400.65 2248.92,-388.38"/>
<polygon fill="#63b8ff" stroke="#63b8ff" points="2249.18,-391.88 2258.57,-386.97 2248.17,-384.96 2249.18,-391.88"/>
</g>
<!-- Node94 -->
<g id="node34" class="node">
<title>Node94</title>
<g id="a_node34"><a xlink:href="../../d8/d88/math__utils_8h.html" target="_top" xlink:title=" ">
<polygon fill="#fff0f0" stroke="red" points="1877.5,-321.5 1760.5,-321.5 1760.5,-302.5 1877.5,-302.5 1877.5,-321.5"/>
<text text-anchor="middle" x="1819" y="-309.5" font-family="Helvetica,sans-Serif" font-size="10.00">utilities/math_utils.h</text>
</a>
</g>
</g>
<!-- Node88&#45;&gt;Node94 -->
<g id="edge94" class="edge">
<title>Node88&#45;&gt;Node94</title>
<path fill="none" stroke="#63b8ff" d="M1874.26,-434.29C1871.08,-419.26 1863.55,-387.69 1852,-363 1846.75,-351.77 1839.24,-340.17 1832.71,-330.96"/>
<polygon fill="#63b8ff" stroke="#63b8ff" points="1835.57,-328.94 1826.82,-322.96 1829.93,-333.09 1835.57,-328.94"/>
</g>
<!-- Node96 -->
<g id="node35" class="node">
<title>Node96</title>
<g id="a_node35"><a xlink:href="../../d0/d33/integration__info_8h.html" target="_top" xlink:title=" ">
<polygon fill="white" stroke="#666666" points="1772,-393 1646,-393 1646,-363 1772,-363 1772,-393"/>
<text text-anchor="start" x="1654" y="-381" font-family="Helvetica,sans-Serif" font-size="10.00">integration/integration</text>
<text text-anchor="middle" x="1709" y="-370" font-family="Helvetica,sans-Serif" font-size="10.00">_info.h</text>
</a>
</g>
</g>
<!-- Node88&#45;&gt;Node96 -->
<g id="edge98" class="edge">
<title>Node88&#45;&gt;Node96</title>
<path fill="none" stroke="#63b8ff" d="M1852.78,-434.1C1828.25,-424.7 1788.85,-409.6 1757.5,-397.59"/>
<polygon fill="#63b8ff" stroke="#63b8ff" points="1758.78,-394.33 1748.19,-394.02 1756.28,-400.87 1758.78,-394.33"/>
</g>
<!-- Node29 -->
<g id="node23" class="node">
<title>Node29</title>
<g id="a_node23"><a xlink:href="../../d9/d3e/ublas__interface_8h.html" target="_top" xlink:title=" ">
<polygon fill="#fff0f0" stroke="red" points="2100,-200.5 1956,-200.5 1956,-181.5 2100,-181.5 2100,-200.5"/>
<text text-anchor="middle" x="2028" y="-188.5" font-family="Helvetica,sans-Serif" font-size="10.00">includes/ublas_interface.h</text>
</a>
</g>
</g>
<!-- Node89&#45;&gt;Node29 -->
<g id="edge53" class="edge">
<title>Node89&#45;&gt;Node29</title>
<path fill="none" stroke="#63b8ff" d="M1998.92,-296.88C2004.79,-275.7 2015.9,-235.63 2022.56,-211.62"/>
<polygon fill="#63b8ff" stroke="#63b8ff" points="2025.88,-212.74 2025.18,-202.17 2019.13,-210.87 2025.88,-212.74"/>
</g>
<!-- Node29&#45;&gt;Node2 -->
<g id="edge56" class="edge">
<title>Node29&#45;&gt;Node2</title>
<path fill="none" stroke="#63b8ff" d="M1957.38,-181.02C1867.57,-169.6 1713.97,-150.06 1629.01,-139.26"/>
<polygon fill="#63b8ff" stroke="#63b8ff" points="1629.61,-135.81 1619.24,-138.02 1628.72,-142.75 1629.61,-135.81"/>
</g>
<!-- Node29&#45;&gt;Node7 -->
<g id="edge55" class="edge">
<title>Node29&#45;&gt;Node7</title>
<path fill="none" stroke="#63b8ff" d="M2014.64,-181.04C1994.54,-167.64 1955.22,-141.72 1921,-121 1865.22,-87.22 1798.38,-50.09 1762.27,-30.3"/>
<polygon fill="#63b8ff" stroke="#63b8ff" points="1764.29,-27.42 1753.84,-25.69 1760.94,-33.56 1764.29,-27.42"/>
</g>
<!-- Node29&#45;&gt;Node12 -->
<g id="edge54" class="edge">
<title>Node29&#45;&gt;Node12</title>
<path fill="none" stroke="#63b8ff" d="M2054.45,-181.01C2140.44,-151.79 2412,-59.5 2506.89,-27.25"/>
<polygon fill="#63b8ff" stroke="#63b8ff" points="2507.78,-30.65 2516.12,-24.11 2505.53,-24.02 2507.78,-30.65"/>
</g>
<!-- Node24&#45;&gt;Node2 -->
<g id="edge58" class="edge">
<title>Node24&#45;&gt;Node2</title>
<path fill="none" stroke="#63b8ff" d="M2074.88,-368.21C2077.77,-352.21 2081.39,-318.03 2065,-297 2052.84,-281.39 1748.86,-181.99 1730,-176 1691.45,-163.77 1647.14,-151.73 1614.61,-143.27"/>
<polygon fill="#63b8ff" stroke="#63b8ff" points="1615.65,-139.92 1605.1,-140.81 1613.9,-146.7 1615.65,-139.92"/>
</g>
<!-- Node25 -->
<g id="node25" class="node">
<title>Node25</title>
<g id="a_node25"><a xlink:href="../../d9/d36/array__1d_8h.html" target="_top" xlink:title=" ">
<polygon fill="#fff0f0" stroke="red" points="2604,-261 2482,-261 2482,-242 2604,-242 2604,-261"/>
<text text-anchor="middle" x="2543" y="-249" font-family="Helvetica,sans-Serif" font-size="10.00">containers/array_1d.h</text>
</a>
</g>
</g>
<!-- Node24&#45;&gt;Node25 -->
<g id="edge59" class="edge">
<title>Node24&#45;&gt;Node25</title>
<path fill="none" stroke="#63b8ff" d="M2106.8,-368.05C2189.95,-346.02 2404.45,-289.2 2498.12,-264.39"/>
<polygon fill="#63b8ff" stroke="#63b8ff" points="2498.96,-267.79 2507.73,-261.84 2497.16,-261.02 2498.96,-267.79"/>
</g>
<!-- Node24&#45;&gt;Node47 -->
<g id="edge64" class="edge">
<title>Node24&#45;&gt;Node47</title>
<path fill="none" stroke="#63b8ff" d="M2018.31,-371.12C1991.18,-368.35 1957.89,-365.19 1928,-363 1608.46,-339.6 1527.97,-343.55 1208,-327 1142.2,-323.6 1067.12,-319.57 1014.25,-316.71"/>
<polygon fill="#63b8ff" stroke="#63b8ff" points="1014.67,-313.23 1004.49,-316.18 1014.29,-320.22 1014.67,-313.23"/>
</g>
<!-- Node25&#45;&gt;Node2 -->
<g id="edge62" class="edge">
<title>Node25&#45;&gt;Node2</title>
<path fill="none" stroke="#63b8ff" d="M2517.14,-241.51C2469.25,-225.28 2363.24,-191.39 2271,-176 2148.34,-155.54 1776.92,-139.5 1629.37,-133.78"/>
<polygon fill="#63b8ff" stroke="#63b8ff" points="1629.53,-130.28 1619.4,-133.39 1629.26,-137.27 1629.53,-130.28"/>
</g>
<!-- Node25&#45;&gt;Node7 -->
<g id="edge61" class="edge">
<title>Node25&#45;&gt;Node7</title>
<path fill="none" stroke="#63b8ff" d="M2537.48,-241.83C2517.4,-211.12 2444.57,-107.21 2354,-66 2250.89,-19.08 1899.53,-15.51 1777.87,-15.73"/>
<polygon fill="#63b8ff" stroke="#63b8ff" points="1778,-12.23 1768.01,-15.76 1778.02,-19.23 1778,-12.23"/>
</g>
<!-- Node25&#45;&gt;Node12 -->
<g id="edge60" class="edge">
<title>Node25&#45;&gt;Node12</title>
<path fill="none" stroke="#63b8ff" d="M2551.35,-241.78C2581.35,-209.97 2680.72,-100.3 2658,-66 2639.4,-37.92 2601.54,-25.57 2573.7,-20.16"/>
<polygon fill="#63b8ff" stroke="#63b8ff" points="2574.4,-16.73 2563.96,-18.49 2573.23,-23.63 2574.4,-16.73"/>
</g>
<!-- Node25&#45;&gt;Node29 -->
<g id="edge63" class="edge">
<title>Node25&#45;&gt;Node29</title>
<path fill="none" stroke="#63b8ff" d="M2481.55,-242.96C2478.66,-242.63 2475.8,-242.31 2473,-242 2311.85,-224.23 2270.67,-227.66 2110,-206 2102.87,-205.04 2095.41,-203.92 2088.02,-202.75"/>
<polygon fill="#63b8ff" stroke="#63b8ff" points="2088.84,-199.33 2078.4,-201.17 2087.71,-206.24 2088.84,-199.33"/>
</g>
<!-- Node47&#45;&gt;Node2 -->
<g id="edge74" class="edge">
<title>Node47&#45;&gt;Node2</title>
<path fill="none" stroke="#63b8ff" d="M926.06,-302.08C899.79,-289.15 859.1,-264.3 879,-242 925.91,-189.43 1127.49,-229.24 1194,-206 1217.75,-197.7 1218.34,-184.56 1242,-176 1330.48,-143.99 1440.07,-134.75 1506.96,-132.23"/>
<polygon fill="#63b8ff" stroke="#63b8ff" points="1506.74,-135.74 1516.62,-131.91 1506.51,-128.74 1506.74,-135.74"/>
</g>
<!-- Node47&#45;&gt;Node4 -->
<g id="edge72" class="edge">
<title>Node47&#45;&gt;Node4</title>
<path fill="none" stroke="#63b8ff" d="M889.18,-305.46C835.91,-298.99 754.69,-285.87 688,-261 672.14,-255.09 671.14,-247.09 655,-242 568.19,-214.65 317.56,-263.49 247,-206 194.95,-163.59 189.12,-75.58 189.3,-36.02"/>
<polygon fill="#63b8ff" stroke="#63b8ff" points="192.8,-36.18 189.5,-26.11 185.8,-36.04 192.8,-36.18"/>
</g>
<!-- Node47&#45;&gt;Node7 -->
<g id="edge67" class="edge">
<title>Node47&#45;&gt;Node7</title>
<path fill="none" stroke="#63b8ff" d="M1002.76,-303.88C1055.57,-296.09 1129.05,-281.85 1149,-261 1210.1,-197.14 1122.27,-125.08 1188,-66 1225.43,-32.35 1572.57,-20.22 1694.17,-16.98"/>
<polygon fill="#63b8ff" stroke="#63b8ff" points="1694.13,-20.48 1704.03,-16.73 1693.94,-13.49 1694.13,-20.48"/>
</g>
<!-- Node47&#45;&gt;Node12 -->
<g id="edge65" class="edge">
<title>Node47&#45;&gt;Node12</title>
<path fill="none" stroke="#63b8ff" d="M922.04,-302.05C893.53,-290.02 851.93,-267.2 870,-242 878.89,-229.61 1375.01,-68.8 1390,-66 1612.3,-24.42 2340.45,-17.28 2506.21,-16.18"/>
<polygon fill="#63b8ff" stroke="#63b8ff" points="2506.09,-19.68 2516.07,-16.12 2506.05,-12.68 2506.09,-19.68"/>
</g>
<!-- Node47&#45;&gt;Node19 -->
<g id="edge69" class="edge">
<title>Node47&#45;&gt;Node19</title>
<path fill="none" stroke="#63b8ff" d="M889.08,-303.29C820.54,-293.96 701.62,-277.62 588.97,-261.27"/>
<polygon fill="#63b8ff" stroke="#63b8ff" points="589.64,-257.83 579.24,-259.86 588.63,-264.76 589.64,-257.83"/>
</g>
<!-- Node47&#45;&gt;Node49 -->
<g id="edge68" class="edge">
<title>Node47&#45;&gt;Node49</title>
<path fill="none" stroke="#63b8ff" d="M937.78,-302.22C925.34,-287.88 904.8,-259.29 921,-242 963.02,-197.15 1411.69,-210.38 1473,-206 1525.53,-202.24 1586.64,-197.39 1622.44,-194.49"/>
<polygon fill="#63b8ff" stroke="#63b8ff" points="1622.37,-198.01 1632.05,-193.71 1621.8,-191.03 1622.37,-198.01"/>
</g>
<!-- Node47&#45;&gt;Node53 -->
<g id="edge75" class="edge">
<title>Node47&#45;&gt;Node53</title>
<path fill="none" stroke="#63b8ff" d="M929.08,-302.1C905.83,-288.77 868.95,-262.96 888,-242 895.69,-233.54 1211.58,-207.75 1349.11,-196.9"/>
<polygon fill="#63b8ff" stroke="#63b8ff" points="1349.07,-200.41 1358.76,-196.14 1348.52,-193.43 1349.07,-200.41"/>
</g>
<!-- Node47&#45;&gt;Node29 -->
<g id="edge76" class="edge">
<title>Node47&#45;&gt;Node29</title>
<path fill="none" stroke="#63b8ff" d="M1002.6,-307.66C1111.26,-300.97 1356.53,-284.52 1562,-261 1706.2,-244.49 1874.42,-217.71 1964.06,-202.83"/>
<polygon fill="#63b8ff" stroke="#63b8ff" points="1964.6,-206.29 1973.89,-201.2 1963.45,-199.39 1964.6,-206.29"/>
</g>
<!-- Node47&#45;&gt;Node25 -->
<g id="edge77" class="edge">
<title>Node47&#45;&gt;Node25</title>
<path fill="none" stroke="#63b8ff" d="M1002.97,-307.55C1056.03,-304.43 1137.34,-299.89 1208,-297 1766.27,-274.14 1910.22,-302.57 2470.37,-261.12"/>
<polygon fill="#63b8ff" stroke="#63b8ff" points="2470.35,-264.63 2480.06,-260.4 2469.83,-257.65 2470.35,-264.63"/>
</g>
<!-- Node48 -->
<g id="node27" class="node">
<title>Node48</title>
<g id="a_node27"><a xlink:title=" ">
<polygon fill="#e0e0e0" stroke="#999999" points="646,-261 596,-261 596,-242 646,-242 646,-261"/>
<text text-anchor="middle" x="621" y="-249" font-family="Helvetica,sans-Serif" font-size="10.00">cstring</text>
</a>
</g>
</g>
<!-- Node47&#45;&gt;Node48 -->
<g id="edge66" class="edge">
<title>Node47&#45;&gt;Node48</title>
<path fill="none" stroke="#63b8ff" d="M890.51,-302C832.8,-292.48 739.88,-276.68 660,-261 659.02,-260.81 658.02,-260.61 657.02,-260.41"/>
<polygon fill="#63b8ff" stroke="#63b8ff" points="658.13,-257.06 647.63,-258.45 656.7,-263.92 658.13,-257.06"/>
</g>
<!-- Node50 -->
<g id="node28" class="node">
<title>Node50</title>
<g id="a_node28"><a xlink:title=" ">
<polygon fill="#e0e0e0" stroke="#999999" points="962,-261 930,-261 930,-242 962,-242 962,-261"/>
<text text-anchor="middle" x="946" y="-249" font-family="Helvetica,sans-Serif" font-size="10.00">set</text>
</a>
</g>
</g>
<!-- Node47&#45;&gt;Node50 -->
<g id="edge70" class="edge">
<title>Node47&#45;&gt;Node50</title>
<path fill="none" stroke="#63b8ff" d="M946,-302.37C946,-294.5 946,-282.6 946,-272.39"/>
<polygon fill="#63b8ff" stroke="#63b8ff" points="949.5,-272.68 946,-262.68 942.5,-272.68 949.5,-272.68"/>
</g>
<!-- Node51 -->
<g id="node29" class="node">
<title>Node51</title>
<g id="a_node29"><a xlink:title=" ">
<polygon fill="#e0e0e0" stroke="#999999" points="1066,-261 980,-261 980,-242 1066,-242 1066,-261"/>
<text text-anchor="middle" x="1023" y="-249" font-family="Helvetica,sans-Serif" font-size="10.00">unordered_set</text>
</a>
</g>
</g>
<!-- Node47&#45;&gt;Node51 -->
<g id="edge71" class="edge">
<title>Node47&#45;&gt;Node51</title>
<path fill="none" stroke="#63b8ff" d="M957.69,-302.12C969.45,-293.18 987.84,-279.22 1002.11,-268.37"/>
<polygon fill="#63b8ff" stroke="#63b8ff" points="1004.14,-271.22 1009.99,-262.38 999.91,-265.65 1004.14,-271.22"/>
</g>
<!-- Node52 -->
<g id="node30" class="node">
<title>Node52</title>
<g id="a_node30"><a xlink:title=" ">
<polygon fill="#e0e0e0" stroke="#999999" points="1139.5,-261 1084.5,-261 1084.5,-242 1139.5,-242 1139.5,-261"/>
<text text-anchor="middle" x="1112" y="-249" font-family="Helvetica,sans-Serif" font-size="10.00">fstream</text>
</a>
</g>
</g>
<!-- Node47&#45;&gt;Node52 -->
<g id="edge73" class="edge">
<title>Node47&#45;&gt;Node52</title>
<path fill="none" stroke="#63b8ff" d="M971.21,-302.12C999.12,-292.28 1044.34,-276.34 1075.98,-265.19"/>
<polygon fill="#63b8ff" stroke="#63b8ff" points="1076.86,-268.6 1085.12,-261.97 1074.53,-261.99 1076.86,-268.6"/>
</g>
<!-- Node54 -->
<g id="node31" class="node">
<title>Node54</title>
<g id="a_node31"><a xlink:href="../../d5/d10/weak__pointer__vector_8h.html" target="_top" xlink:title=" ">
<polygon fill="#fff0f0" stroke="red" points="393.5,-206 256.5,-206 256.5,-176 393.5,-176 393.5,-206"/>
<text text-anchor="start" x="264.5" y="-194" font-family="Helvetica,sans-Serif" font-size="10.00">containers/weak_pointer</text>
<text text-anchor="middle" x="325" y="-183" font-family="Helvetica,sans-Serif" font-size="10.00">_vector.h</text>
</a>
</g>
</g>
<!-- Node47&#45;&gt;Node54 -->
<g id="edge78" class="edge">
<title>Node47&#45;&gt;Node54</title>
<path fill="none" stroke="#63b8ff" d="M900.02,-302.03C857.12,-293.2 791.58,-278.52 736,-261 714.12,-254.1 710.19,-247.83 688,-242 592.46,-216.9 479.27,-203.85 404.99,-197.47"/>
<polygon fill="#63b8ff" stroke="#63b8ff" points="405.63,-194.02 395.37,-196.67 405.05,-200.99 405.63,-194.02"/>
</g>
<!-- Node47&#45;&gt;Node58 -->
<g id="edge83" class="edge">
<title>Node47&#45;&gt;Node58</title>
<path fill="none" stroke="#63b8ff" d="M1002.86,-308.08C1127.75,-300.56 1434.53,-275.91 1681,-206 1734.18,-190.92 1792.47,-162.82 1825.41,-145.78"/>
<polygon fill="#63b8ff" stroke="#63b8ff" points="1826.99,-148.9 1834.23,-141.16 1823.74,-142.7 1826.99,-148.9"/>
</g>
<!-- Node54&#45;&gt;Node2 -->
<g id="edge82" class="edge">
<title>Node54&#45;&gt;Node2</title>
<path fill="none" stroke="#63b8ff" d="M393.75,-177.7C398.56,-177.06 403.35,-176.48 408,-176 624.18,-153.71 1299.43,-137.39 1506.81,-132.81"/>
<polygon fill="#63b8ff" stroke="#63b8ff" points="1506.63,-136.31 1516.55,-132.59 1506.47,-129.31 1506.63,-136.31"/>
</g>
<!-- Node54&#45;&gt;Node4 -->
<g id="edge81" class="edge">
<title>Node54&#45;&gt;Node4</title>
<path fill="none" stroke="#63b8ff" d="M313.95,-175.76C289.42,-144.14 230.47,-68.16 203.67,-33.62"/>
<polygon fill="#63b8ff" stroke="#63b8ff" points="206.56,-31.64 197.67,-25.88 201.03,-35.93 206.56,-31.64"/>
</g>
<!-- Node54&#45;&gt;Node7 -->
<g id="edge80" class="edge">
<title>Node54&#45;&gt;Node7</title>
<path fill="none" stroke="#63b8ff" d="M367.97,-175.55C450.18,-148.61 635.86,-91.19 797,-66 973.83,-38.36 1536.59,-21.39 1694.46,-17.09"/>
<polygon fill="#63b8ff" stroke="#63b8ff" points="1694.13,-20.6 1704.03,-16.83 1693.94,-13.6 1694.13,-20.6"/>
</g>
<!-- Node54&#45;&gt;Node12 -->
<g id="edge79" class="edge">
<title>Node54&#45;&gt;Node12</title>
<path fill="none" stroke="#63b8ff" d="M393.77,-177.89C398.58,-177.2 403.36,-176.56 408,-176 624.79,-149.81 680.96,-163.99 898,-140 1064.12,-121.64 1105.63,-115.27 1270,-85 1308.5,-77.91 1317.19,-71.07 1356,-66 1587.48,-35.78 2338.99,-19.85 2506.64,-16.62"/>
<polygon fill="#63b8ff" stroke="#63b8ff" points="2506.45,-20.12 2516.38,-16.43 2506.32,-13.12 2506.45,-20.12"/>
</g>
<!-- Node58&#45;&gt;Node7 -->
<g id="edge85" class="edge">
<title>Node58&#45;&gt;Node7</title>
<path fill="none" stroke="#63b8ff" d="M1842.9,-120.59C1823.58,-101.7 1778.23,-57.32 1753.25,-32.88"/>
<polygon fill="#63b8ff" stroke="#63b8ff" points="1755.74,-30.42 1746.14,-25.92 1750.84,-35.42 1755.74,-30.42"/>
</g>
<!-- Node58&#45;&gt;Node11 -->
<g id="edge86" class="edge">
<title>Node58&#45;&gt;Node11</title>
<path fill="none" stroke="#63b8ff" d="M1791.74,-126.26C1618.62,-116.97 1120.38,-90.21 935.31,-80.28"/>
<polygon fill="#63b8ff" stroke="#63b8ff" points="935.53,-76.78 925.36,-79.74 935.15,-83.77 935.53,-76.78"/>
</g>
<!-- Node58&#45;&gt;Node12 -->
<g id="edge84" class="edge">
<title>Node58&#45;&gt;Node12</title>
<path fill="none" stroke="#63b8ff" d="M1906.27,-120.55C2042.51,-98.07 2395.91,-39.77 2506.44,-21.54"/>
<polygon fill="#63b8ff" stroke="#63b8ff" points="2506.75,-25.03 2516.04,-19.95 2505.61,-18.13 2506.75,-25.03"/>
</g>
<!-- Node93&#45;&gt;Node2 -->
<g id="edge91" class="edge">
<title>Node93&#45;&gt;Node2</title>
<path fill="none" stroke="#63b8ff" d="M2298.76,-362.75C2278.57,-341.92 2241.49,-301.24 2218,-261 2197.57,-226 2217.6,-200.08 2185,-176 2162.87,-159.66 1780.86,-140.97 1629.27,-134.16"/>
<polygon fill="#63b8ff" stroke="#63b8ff" points="1629.56,-130.67 1619.41,-133.72 1629.24,-137.66 1629.56,-130.67"/>
</g>
<!-- Node93&#45;&gt;Node4 -->
<g id="edge90" class="edge">
<title>Node93&#45;&gt;Node4</title>
<path fill="none" stroke="#63b8ff" d="M2310,-362.53C2301.41,-325.06 2273.08,-224.39 2208,-176 2103.78,-98.5 2049.86,-137.19 1921,-121 1834.3,-110.11 480.81,-32.59 229.86,-18.27"/>
<polygon fill="#63b8ff" stroke="#63b8ff" points="230.13,-14.78 219.94,-17.71 229.73,-21.77 230.13,-14.78"/>
</g>
<!-- Node93&#45;&gt;Node7 -->
<g id="edge89" class="edge">
<title>Node93&#45;&gt;Node7</title>
<path fill="none" stroke="#63b8ff" d="M2319.88,-362.59C2326.72,-346.14 2334.99,-318.71 2326,-297 2317.34,-276.09 2298.66,-281.91 2290,-261 2286.77,-253.2 2289.53,-250.43 2290,-242 2292.98,-188.28 2328.35,-162.42 2294,-121 2227.99,-41.41 1895.42,-21.75 1777.52,-17.25"/>
<polygon fill="#63b8ff" stroke="#63b8ff" points="1777.78,-13.76 1767.66,-16.89 1777.53,-20.75 1777.78,-13.76"/>
</g>
<!-- Node93&#45;&gt;Node12 -->
<g id="edge88" class="edge">
<title>Node93&#45;&gt;Node12</title>
<path fill="none" stroke="#63b8ff" d="M2365.81,-374.46C2478.58,-368.58 2735.15,-352.52 2765,-327 2853.28,-251.53 2840.59,-141.1 2752,-66 2725.25,-43.32 2625.98,-27.26 2573.31,-20.13"/>
<polygon fill="#63b8ff" stroke="#63b8ff" points="2574.09,-16.7 2563.72,-18.86 2573.17,-23.64 2574.09,-16.7"/>
</g>
<!-- Node93&#45;&gt;Node47 -->
<g id="edge92" class="edge">
<title>Node93&#45;&gt;Node47</title>
<path fill="none" stroke="#63b8ff" d="M2260.28,-372.24C2225.34,-369.23 2178.46,-365.45 2137,-363 1724.52,-338.61 1620.76,-346.02 1208,-327 1142.19,-323.97 1067.11,-319.89 1014.24,-316.92"/>
<polygon fill="#63b8ff" stroke="#63b8ff" points="1014.67,-313.44 1004.49,-316.37 1014.27,-320.43 1014.67,-313.44"/>
</g>
<!-- Node94&#45;&gt;Node29 -->
<g id="edge96" class="edge">
<title>Node94&#45;&gt;Node29</title>
<path fill="none" stroke="#63b8ff" d="M1834.71,-302.06C1870.58,-281.63 1958.78,-231.42 2002.53,-206.5"/>
<polygon fill="#63b8ff" stroke="#63b8ff" points="2004.12,-209.62 2011.08,-201.63 2000.66,-203.54 2004.12,-209.62"/>
</g>
<!-- Node94&#45;&gt;Node58 -->
<g id="edge95" class="edge">
<title>Node94&#45;&gt;Node58</title>
<path fill="none" stroke="#63b8ff" d="M1820.59,-302.34C1825.6,-275.1 1841.13,-190.65 1848.3,-151.63"/>
<polygon fill="#63b8ff" stroke="#63b8ff" points="1851.71,-152.45 1850.07,-141.98 1844.82,-151.18 1851.71,-152.45"/>
</g>
<!-- Node96&#45;&gt;Node2 -->
<g id="edge99" class="edge">
<title>Node96&#45;&gt;Node2</title>
<path fill="none" stroke="#63b8ff" d="M1710.37,-362.55C1714.36,-318.95 1725.01,-190.87 1714,-176 1694.48,-149.64 1659.69,-138.37 1628.97,-133.75"/>
<polygon fill="#63b8ff" stroke="#63b8ff" points="1629.74,-130.32 1619.38,-132.53 1628.86,-137.27 1629.74,-130.32"/>
</g>
<!-- Node96&#45;&gt;Node63 -->
<g id="edge101" class="edge">
<title>Node96&#45;&gt;Node63</title>
<path fill="none" stroke="#63b8ff" d="M1645.55,-367.56C1567.57,-355.95 1435.47,-336.29 1352.96,-324.01"/>
<polygon fill="#63b8ff" stroke="#63b8ff" points="1353.56,-320.56 1343.16,-322.55 1352.53,-327.48 1353.56,-320.56"/>
</g>
<!-- Node96&#45;&gt;Node53 -->
<g id="edge102" class="edge">
<title>Node96&#45;&gt;Node53</title>
<path fill="none" stroke="#63b8ff" d="M1686.19,-362.79C1631.2,-328.54 1491.77,-241.69 1435.79,-206.82"/>
<polygon fill="#63b8ff" stroke="#63b8ff" points="1437.97,-204.06 1427.64,-201.74 1434.27,-210 1437.97,-204.06"/>
</g>
<!-- Node96&#45;&gt;Node89 -->
<g id="edge100" class="edge">
<title>Node96&#45;&gt;Node89</title>
<path fill="none" stroke="#63b8ff" d="M1772.47,-362.8C1816.87,-352.86 1876.25,-339.57 1922.51,-329.22"/>
<polygon fill="#63b8ff" stroke="#63b8ff" points="1923.2,-332.65 1932.19,-327.06 1921.67,-325.82 1923.2,-332.65"/>
</g>
<!-- Node97&#45;&gt;Node2 -->
<g id="edge104" class="edge">
<title>Node97&#45;&gt;Node2</title>
<path fill="none" stroke="#63b8ff" d="M1230.7,-494.56C1213.85,-459.09 1176.05,-365.57 1208,-297 1260.6,-184.1 1418.88,-148.11 1507.04,-136.72"/>
<polygon fill="#63b8ff" stroke="#63b8ff" points="1507.21,-140.22 1516.71,-135.54 1506.36,-133.28 1507.21,-140.22"/>
</g>
<!-- Node97&#45;&gt;Node17 -->
<g id="edge118" class="edge">
<title>Node97&#45;&gt;Node17</title>
<path fill="none" stroke="#63b8ff" d="M1178.55,-503.01C1061.2,-491.18 800.25,-464.88 674.06,-452.16"/>
<polygon fill="#63b8ff" stroke="#63b8ff" points="674.45,-448.68 664.15,-451.16 673.75,-455.65 674.45,-448.68"/>
</g>
<!-- Node97&#45;&gt;Node63 -->
<g id="edge126" class="edge">
<title>Node97&#45;&gt;Node63</title>
<path fill="none" stroke="#63b8ff" d="M1237.12,-494.51C1235.94,-467.81 1235.47,-409.35 1250,-363 1252.87,-353.84 1257.64,-344.55 1262.5,-336.5"/>
<polygon fill="#63b8ff" stroke="#63b8ff" points="1265.27,-338.65 1267.73,-328.35 1259.38,-334.87 1265.27,-338.65"/>
</g>
<!-- Node97&#45;&gt;Node53 -->
<g id="edge127" class="edge">
<title>Node97&#45;&gt;Node53</title>
<path fill="none" stroke="#63b8ff" d="M1244.99,-494.82C1258.37,-468.13 1289.12,-409.02 1321,-363 1332.86,-345.88 1339.94,-344.65 1351,-327 1375.15,-288.44 1395.05,-238.71 1405.05,-211.65"/>
<polygon fill="#63b8ff" stroke="#63b8ff" points="1408.3,-212.96 1408.4,-202.37 1401.71,-210.58 1408.3,-212.96"/>
</g>
<!-- Node97&#45;&gt;Node85 -->
<g id="edge121" class="edge">
<title>Node97&#45;&gt;Node85</title>
<path fill="none" stroke="#63b8ff" d="M1178.71,-506.84C1019.93,-500.78 593.15,-482.47 534,-459 516.07,-451.88 476.6,-416.86 453.59,-395.58"/>
<polygon fill="#63b8ff" stroke="#63b8ff" points="456.2,-393.23 446.5,-388.97 451.42,-398.35 456.2,-393.23"/>
</g>
<!-- Node97&#45;&gt;Node88 -->
<g id="edge119" class="edge">
<title>Node97&#45;&gt;Node88</title>
<path fill="none" stroke="#63b8ff" d="M1297.45,-503.04C1413.66,-491.38 1670.79,-465.58 1799.5,-452.67"/>
<polygon fill="#63b8ff" stroke="#63b8ff" points="1799.69,-456.17 1809.29,-451.69 1798.99,-449.21 1799.69,-456.17"/>
</g>
<!-- Node97&#45;&gt;Node29 -->
<g id="edge122" class="edge">
<title>Node97&#45;&gt;Node29</title>
<path fill="none" stroke="#63b8ff" d="M1297.48,-498.36C1435.24,-473.44 1765.66,-411.96 1781,-393 1789.39,-382.63 1785.43,-375.57 1781,-363 1774.17,-343.62 1758.83,-346.38 1752,-327 1747.57,-314.43 1744.43,-307.98 1752,-297 1794.9,-234.79 1879.89,-209.41 1944.29,-199.07"/>
<polygon fill="#63b8ff" stroke="#63b8ff" points="1944.79,-202.53 1954.16,-197.59 1943.75,-195.61 1944.79,-202.53"/>
</g>
<!-- Node97&#45;&gt;Node47 -->
<g id="edge105" class="edge">
<title>Node97&#45;&gt;Node47</title>
<path fill="none" stroke="#63b8ff" d="M1222.32,-494.59C1203.82,-477.9 1171.78,-450.02 1142,-429 1084.27,-388.26 1011.63,-347.87 973.03,-327.2"/>
<polygon fill="#63b8ff" stroke="#63b8ff" points="974.89,-324.22 964.42,-322.62 971.6,-330.4 974.89,-324.22"/>
</g>
<!-- Node97&#45;&gt;Node94 -->
<g id="edge120" class="edge">
<title>Node97&#45;&gt;Node94</title>
<path fill="none" stroke="#63b8ff" d="M1297.01,-505.94C1429.96,-497.71 1746.61,-470.26 1814,-393 1828.13,-376.8 1827.03,-351.03 1823.93,-333.13"/>
<polygon fill="#63b8ff" stroke="#63b8ff" points="1827.38,-332.52 1821.89,-323.46 1820.53,-333.97 1827.38,-332.52"/>
</g>
<!-- Node98 -->
<g id="node37" class="node">
<title>Node98</title>
<g id="a_node37"><a xlink:href="../../de/dca/variables_8h.html" target="_top" xlink:title=" ">
<polygon fill="#fff0f0" stroke="red" points="2523,-453.5 2409,-453.5 2409,-434.5 2523,-434.5 2523,-453.5"/>
<text text-anchor="middle" x="2466" y="-441.5" font-family="Helvetica,sans-Serif" font-size="10.00">includes/variables.h</text>
</a>
</g>
</g>
<!-- Node97&#45;&gt;Node98 -->
<g id="edge106" class="edge">
<title>Node97&#45;&gt;Node98</title>
<path fill="none" stroke="#63b8ff" d="M1297.23,-505.91C1501.97,-495.24 2179.19,-459.95 2397.52,-448.57"/>
<polygon fill="#63b8ff" stroke="#63b8ff" points="2397.47,-452.08 2407.28,-448.06 2397.11,-445.09 2397.47,-452.08"/>
</g>
<!-- Node97&#45;&gt;Node106 -->
<g id="edge123" class="edge">
<title>Node97&#45;&gt;Node106</title>
<path fill="none" stroke="#63b8ff" d="M1196.26,-494.64C1164.02,-483.54 1119.82,-468.34 1088.87,-457.69"/>
<polygon fill="#63b8ff" stroke="#63b8ff" points="1090.14,-454.42 1079.55,-454.48 1087.86,-461.04 1090.14,-454.42"/>
</g>
<!-- Node98&#45;&gt;Node2 -->
<g id="edge109" class="edge">
<title>Node98&#45;&gt;Node2</title>
<path fill="none" stroke="#63b8ff" d="M2420.57,-434C2349.38,-419.89 2219.35,-394.02 2217,-393 2150.19,-363.83 2146.93,-333.8 2084,-297 1960.95,-225.06 1924.07,-215.08 1787,-176 1734.31,-160.98 1673.12,-148.99 1628.83,-141.26"/>
<polygon fill="#63b8ff" stroke="#63b8ff" points="1629.61,-137.84 1619.16,-139.59 1628.42,-144.74 1629.61,-137.84"/>
</g>
<!-- Node98&#45;&gt;Node7 -->
<g id="edge108" class="edge">
<title>Node98&#45;&gt;Node7</title>
<path fill="none" stroke="#63b8ff" d="M2523.44,-442.25C2578.26,-439.23 2661.51,-428.48 2724,-393 2809.35,-344.54 2827.3,-251.84 2765,-176 2759.23,-168.98 2465.89,-67.86 2457,-66 2325.71,-38.55 1910.84,-22.08 1777.62,-17.39"/>
<polygon fill="#63b8ff" stroke="#63b8ff" points="1777.97,-13.9 1767.85,-17.05 1777.73,-20.9 1777.97,-13.9"/>
</g>
<!-- Node98&#45;&gt;Node12 -->
<g id="edge107" class="edge">
<title>Node98&#45;&gt;Node12</title>
<path fill="none" stroke="#63b8ff" d="M2523.4,-437.81C2677.38,-422.31 3088,-369.95 3088,-252.5 3088,-252.5 3088,-252.5 3088,-129.5 3088,-23.83 2692.33,-15.79 2573.41,-15.76"/>
<polygon fill="#63b8ff" stroke="#63b8ff" points="2573.67,-12.26 2563.67,-15.78 2573.68,-19.26 2573.67,-12.26"/>
</g>
<!-- Node98&#45;&gt;Node64 -->
<g id="edge110" class="edge">
<title>Node98&#45;&gt;Node64</title>
<path fill="none" stroke="#63b8ff" d="M2523.36,-439.32C2593.84,-431.37 2710.74,-406.25 2765,-327 2792.37,-287.02 2744.7,-234.74 2715.76,-208.51"/>
<polygon fill="#63b8ff" stroke="#63b8ff" points="2718.11,-205.92 2708.28,-201.96 2713.49,-211.18 2718.11,-205.92"/>
</g>
<!-- Node98&#45;&gt;Node67 -->
<g id="edge111" class="edge">
<title>Node98&#45;&gt;Node67</title>
<path fill="none" stroke="#63b8ff" d="M2467.1,-434.3C2469.69,-410.36 2473.96,-342.27 2446,-297 2438.08,-284.18 2424.94,-274.16 2412.54,-266.89"/>
<polygon fill="#63b8ff" stroke="#63b8ff" points="2414.23,-263.82 2403.76,-262.16 2410.9,-269.99 2414.23,-263.82"/>
</g>
<!-- Node98&#45;&gt;Node29 -->
<g id="edge112" class="edge">
<title>Node98&#45;&gt;Node29</title>
<path fill="none" stroke="#63b8ff" d="M2420.54,-434.01C2362.04,-422.2 2266.23,-401.9 2252,-393 2205.39,-363.84 2216.69,-331.64 2174,-297 2146.84,-274.95 2132.75,-280.93 2104,-261 2081.47,-245.39 2058.58,-223.63 2043.89,-208.74"/>
<polygon fill="#63b8ff" stroke="#63b8ff" points="2046.79,-206.7 2037.31,-201.96 2041.76,-211.57 2046.79,-206.7"/>
</g>
<!-- Node98&#45;&gt;Node25 -->
<g id="edge113" class="edge">
<title>Node98&#45;&gt;Node25</title>
<path fill="none" stroke="#63b8ff" d="M2469.61,-434.07C2481.38,-404.94 2518.84,-312.26 2535.22,-271.76"/>
<polygon fill="#63b8ff" stroke="#63b8ff" points="2538.42,-273.18 2538.92,-262.6 2531.93,-270.56 2538.42,-273.18"/>
</g>
<!-- Node98&#45;&gt;Node81 -->
<g id="edge114" class="edge">
<title>Node98&#45;&gt;Node81</title>
<path fill="none" stroke="#63b8ff" d="M2408.85,-439.56C2232.48,-428.94 1696.09,-396.65 1487.37,-384.08"/>
<polygon fill="#63b8ff" stroke="#63b8ff" points="1487.89,-380.6 1477.69,-383.5 1487.46,-387.59 1487.89,-380.6"/>
</g>
<!-- Node81&#45;&gt;Node2 -->
<g id="edge116" class="edge">
<title>Node81&#45;&gt;Node2</title>
<path fill="none" stroke="#63b8ff" d="M1412.58,-362.74C1440.92,-320.59 1524.25,-196.59 1555.75,-149.72"/>
<polygon fill="#63b8ff" stroke="#63b8ff" points="1558.6,-151.76 1561.28,-141.5 1552.79,-147.85 1558.6,-151.76"/>
</g>
<!-- Node81&#45;&gt;Node7 -->
<g id="edge115" class="edge">
<title>Node81&#45;&gt;Node7</title>
<path fill="none" stroke="#63b8ff" d="M1395.12,-362.77C1368.74,-313.03 1289.91,-145.72 1376,-66 1421.5,-23.87 1609.33,-16.96 1694.13,-16.02"/>
<polygon fill="#63b8ff" stroke="#63b8ff" points="1694.14,-19.52 1704.11,-15.94 1694.08,-12.52 1694.14,-19.52"/>
</g>
<!-- Node81&#45;&gt;Node47 -->
<g id="edge117" class="edge">
<title>Node81&#45;&gt;Node47</title>
<path fill="none" stroke="#63b8ff" d="M1329.58,-366.72C1242.61,-354.54 1098.92,-334.41 1014.27,-322.56"/>
<polygon fill="#63b8ff" stroke="#63b8ff" points="1014.87,-319.11 1004.48,-321.19 1013.9,-326.04 1014.87,-319.11"/>
</g>
<!-- Node106&#45;&gt;Node29 -->
<g id="edge125" class="edge">
<title>Node106&#45;&gt;Node29</title>
<path fill="none" stroke="#63b8ff" d="M1024.91,-434.03C984.73,-419.09 910.78,-384.88 880,-327 860.31,-289.97 883.95,-261.65 921,-242 926.65,-239 1687.32,-206.46 1944.3,-195.55"/>
<polygon fill="#63b8ff" stroke="#63b8ff" points="1944.43,-199.04 1954.27,-195.12 1944.14,-192.05 1944.43,-199.04"/>
</g>
<!-- Node106&#45;&gt;Node47 -->
<g id="edge124" class="edge">
<title>Node106&#45;&gt;Node47</title>
<path fill="none" stroke="#63b8ff" d="M1044.71,-434.06C1027.39,-412.82 983.48,-358.97 960.51,-330.8"/>
<polygon fill="#63b8ff" stroke="#63b8ff" points="963.33,-328.71 954.29,-323.17 957.9,-333.13 963.33,-328.71"/>
</g>
<!-- Node110&#45;&gt;Node2 -->
<g id="edge133" class="edge">
<title>Node110&#45;&gt;Node2</title>
<path fill="none" stroke="#63b8ff" d="M1864.43,-695.5C2127.53,-693.27 3073.18,-682.73 3125,-646 3171.11,-613.32 3164,-446.6 3164,-445 3164,-445 3164,-445 3164,-377 3164,-207.16 3001.55,-225.21 2839,-176 2726.64,-141.98 1900.32,-144.32 1783,-140 1731.19,-138.09 1672.37,-135.76 1629.37,-134.01"/>
<polygon fill="#63b8ff" stroke="#63b8ff" points="1629.6,-130.52 1619.47,-133.61 1629.32,-137.52 1629.6,-130.52"/>
</g>
<!-- Node110&#45;&gt;Node64 -->
<g id="edge134" class="edge">
<title>Node110&#45;&gt;Node64</title>
<path fill="none" stroke="#63b8ff" d="M1864.1,-695.98C2124.75,-695.56 3057.77,-690.92 3101,-646 3262.94,-477.73 2843.06,-261.47 2725.56,-205.63"/>
<polygon fill="#63b8ff" stroke="#63b8ff" points="2727.38,-202.62 2716.84,-201.52 2724.39,-208.95 2727.38,-202.62"/>
</g>
<!-- Node110&#45;&gt;Node67 -->
<g id="edge135" class="edge">
<title>Node110&#45;&gt;Node67</title>
<path fill="none" stroke="#63b8ff" d="M1864.11,-696.91C1956.02,-696.35 2125.23,-688.79 2262,-646 2401.31,-602.41 2469.25,-590.79 2532,-459 2559.84,-400.52 2509.01,-340.82 2466,-297 2452.6,-283.35 2434.12,-272.99 2417.81,-265.72"/>
<polygon fill="#63b8ff" stroke="#63b8ff" points="2419.45,-262.61 2408.87,-261.97 2416.74,-269.06 2419.45,-262.61"/>
</g>
<!-- Node110&#45;&gt;Node25 -->
<g id="edge136" class="edge">
<title>Node110&#45;&gt;Node25</title>
<path fill="none" stroke="#63b8ff" d="M1864.23,-696.99C1965.41,-696.83 2162.02,-690.12 2322,-646 2387.93,-627.82 2404.94,-619.17 2461,-580 2515.51,-541.91 2534.12,-523.81 2549,-459 2564.37,-392.08 2553.4,-309.78 2546.89,-272.51"/>
<polygon fill="#63b8ff" stroke="#63b8ff" points="2550.35,-272 2545.09,-262.8 2543.47,-273.27 2550.35,-272"/>
</g>
<!-- Node111&#45;&gt;Node7 -->
<g id="edge139" class="edge">
<title>Node111&#45;&gt;Node7</title>
<path fill="none" stroke="#63b8ff" d="M1877.29,-891.04C1975.51,-885.66 2173.99,-872.11 2340,-844 2792.68,-767.36 3396.83,-874.55 3286,-429 3246.15,-268.78 3167.51,-236.77 3014,-176 2938.98,-146.3 2918.27,-144.23 2841,-121 2755.17,-95.2 2735.4,-80.77 2647,-66 2476.27,-37.48 1933.06,-21.21 1777.81,-17.07"/>
<polygon fill="#63b8ff" stroke="#63b8ff" points="1778.08,-13.57 1767.99,-16.81 1777.9,-20.57 1778.08,-13.57"/>
</g>
<!-- Node111&#45;&gt;Node12 -->
<g id="edge138" class="edge">
<title>Node111&#45;&gt;Node12</title>
<path fill="none" stroke="#63b8ff" d="M1877.35,-891.07C2097.47,-880.15 2846.7,-839.24 3078,-778 3212.15,-742.48 3354,-770.77 3354,-632 3354,-632 3354,-632 3354,-129.5 3354,-88.15 3323.94,-82.45 3286,-66 3220.1,-37.43 2710.57,-20.89 2573.73,-16.93"/>
<polygon fill="#63b8ff" stroke="#63b8ff" points="2573.99,-13.44 2563.9,-16.65 2573.79,-20.43 2573.99,-13.44"/>
</g>
<!-- Node111&#45;&gt;Node16 -->
<g id="edge143" class="edge">
<title>Node111&#45;&gt;Node16</title>
<path fill="none" stroke="#63b8ff" d="M1827.66,-879.5C1856.16,-842.26 1923.41,-741.94 1873,-682 1863.81,-671.08 1465.64,-607.33 1304.58,-581.94"/>
<polygon fill="#63b8ff" stroke="#63b8ff" points="1305.32,-578.51 1294.9,-580.41 1304.23,-585.42 1305.32,-578.51"/>
</g>
<!-- Node111&#45;&gt;Node88 -->
<g id="edge145" class="edge">
<title>Node111&#45;&gt;Node88</title>
<path fill="none" stroke="#63b8ff" d="M1842.15,-879.5C1875.81,-858.7 1930,-816.98 1930,-764 1930,-764 1930,-764 1930,-569.5 1930,-528.84 1905.46,-486.42 1889.47,-463.1"/>
<polygon fill="#63b8ff" stroke="#63b8ff" points="1892.37,-461.14 1883.72,-455.03 1886.67,-465.2 1892.37,-461.14"/>
</g>
<!-- Node111&#45;&gt;Node47 -->
<g id="edge144" class="edge">
<title>Node111&#45;&gt;Node47</title>
<path fill="none" stroke="#63b8ff" d="M1877.45,-888.7C2044.6,-873.45 2495,-826.56 2495,-764 2495,-764 2495,-764 2495,-630 2495,-460.6 1946.72,-398.12 1781,-363 1762.31,-359.04 1210.15,-327.81 1014.17,-316.81"/>
<polygon fill="#63b8ff" stroke="#63b8ff" points="1014.58,-313.33 1004.4,-316.26 1014.19,-320.32 1014.58,-313.33"/>
</g>
<!-- Node111&#45;&gt;Node110 -->
<g id="edge146" class="edge">
<title>Node111&#45;&gt;Node110</title>
<path fill="none" stroke="#63b8ff" d="M1814.6,-879.59C1811.25,-845.04 1802.76,-757.45 1798.93,-717.91"/>
<polygon fill="#63b8ff" stroke="#63b8ff" points="1802.44,-717.81 1797.99,-708.19 1795.47,-718.49 1802.44,-717.81"/>
</g>
<!-- Node112 -->
<g id="node42" class="node">
<title>Node112</title>
<g id="a_node42"><a xlink:href="../../d5/d16/checks_8h.html" target="_top" xlink:title=" ">
<polygon fill="#fff0f0" stroke="red" points="823.5,-580 720.5,-580 720.5,-561 823.5,-561 823.5,-580"/>
<text text-anchor="middle" x="772" y="-568" font-family="Helvetica,sans-Serif" font-size="10.00">includes/checks.h</text>
</a>
</g>
</g>
<!-- Node111&#45;&gt;Node112 -->
<g id="edge140" class="edge">
<title>Node111&#45;&gt;Node112</title>
<path fill="none" stroke="#63b8ff" d="M1754.58,-891.59C1629.07,-886.15 1347.25,-871.26 1255,-844 1134.5,-808.39 1114.4,-773.8 1005,-712 927.27,-668.09 837.33,-612.44 795.56,-586.32"/>
<polygon fill="#63b8ff" stroke="#63b8ff" points="797.63,-583.48 787.3,-581.14 793.92,-589.42 797.63,-583.48"/>
</g>
<!-- Node114 -->
<g id="node43" class="node">
<title>Node114</title>
<g id="a_node43"><a xlink:href="../../d8/d7a/fluid__element_8h.html" target="_top" xlink:title=" ">
<polygon fill="#fff0f0" stroke="red" points="1387,-778 1259,-778 1259,-748 1387,-748 1387,-778"/>
<text text-anchor="start" x="1267" y="-766" font-family="Helvetica,sans-Serif" font-size="10.00">custom_elements/fluid</text>
<text text-anchor="middle" x="1323" y="-755" font-family="Helvetica,sans-Serif" font-size="10.00">_element.h</text>
</a>
</g>
</g>
<!-- Node111&#45;&gt;Node114 -->
<g id="edge147" class="edge">
<title>Node111&#45;&gt;Node114</title>
<path fill="none" stroke="#63b8ff" d="M1761.36,-879.59C1670.11,-855.53 1487.07,-807.26 1388.86,-781.37"/>
<polygon fill="#63b8ff" stroke="#63b8ff" points="1389.91,-778.02 1379.35,-778.86 1388.13,-784.79 1389.91,-778.02"/>
</g>
<!-- Node111&#45;&gt;Node116 -->
<g id="edge191" class="edge">
<title>Node111&#45;&gt;Node116</title>
<path fill="none" stroke="#63b8ff" d="M1802.84,-879.59C1772.06,-845.89 1695.2,-761.72 1657.92,-720.91"/>
<polygon fill="#63b8ff" stroke="#63b8ff" points="1660.53,-718.57 1651.2,-713.55 1655.36,-723.3 1660.53,-718.57"/>
</g>
<!-- Node194 -->
<g id="node49" class="node">
<title>Node194</title>
<g id="a_node49"><a xlink:href="../../d8/dbc/qs__vms_8h.html" target="_top" xlink:title=" ">
<polygon fill="white" stroke="#666666" points="1382,-844 1264,-844 1264,-814 1382,-814 1382,-844"/>
<text text-anchor="start" x="1272" y="-832" font-family="Helvetica,sans-Serif" font-size="10.00">custom_elements/qs</text>
<text text-anchor="middle" x="1323" y="-821" font-family="Helvetica,sans-Serif" font-size="10.00">_vms.h</text>
</a>
</g>
</g>
<!-- Node111&#45;&gt;Node194 -->
<g id="edge183" class="edge">
<title>Node111&#45;&gt;Node194</title>
<path fill="none" stroke="#63b8ff" d="M1754.56,-886.02C1662.69,-874.1 1490.01,-851.68 1393.26,-839.12"/>
<polygon fill="#63b8ff" stroke="#63b8ff" points="1394,-835.69 1383.64,-837.87 1393.1,-842.63 1394,-835.69"/>
</g>
<!-- Node112&#45;&gt;Node11 -->
<g id="edge142" class="edge">
<title>Node112&#45;&gt;Node11</title>
<path fill="none" stroke="#63b8ff" d="M720.17,-569.1C563.37,-565.29 108.39,-533.93 168,-297 191.66,-202.95 207.45,-158.23 297,-121 385.1,-84.37 663.01,-77.68 794.6,-76.6"/>
<polygon fill="#63b8ff" stroke="#63b8ff" points="794.61,-80.1 804.59,-76.53 794.56,-73.1 794.61,-80.1"/>
</g>
<!-- Node112&#45;&gt;Node48 -->
<g id="edge141" class="edge">
<title>Node112&#45;&gt;Node48</title>
<path fill="none" stroke="#63b8ff" d="M767.8,-560.69C747.44,-517.95 658.76,-331.76 630.02,-271.44"/>
<polygon fill="#63b8ff" stroke="#63b8ff" points="633.36,-270.31 625.9,-262.78 627.04,-273.32 633.36,-270.31"/>
</g>
<!-- Node114&#45;&gt;Node2 -->
<g id="edge149" class="edge">
<title>Node114&#45;&gt;Node2</title>
<path fill="none" stroke="#63b8ff" d="M1289.08,-747.55C1251.12,-731.42 1187.75,-704.61 1133,-682 1060.76,-652.17 1042.52,-645.13 970,-616 908.73,-591.39 894.62,-581.94 832,-561 668.6,-506.35 614.48,-531.11 458,-459 410.64,-437.17 385.39,-439.09 361,-393 339.29,-351.98 341.75,-292.82 390,-242 428.93,-201 458.35,-223.83 512,-206 548.43,-193.89 555.38,-183.63 593,-176 768.89,-140.32 1321.28,-133.22 1506.65,-131.83"/>
<polygon fill="#63b8ff" stroke="#63b8ff" points="1506.58,-135.33 1516.55,-131.76 1506.53,-128.33 1506.58,-135.33"/>
</g>
<!-- Node114&#45;&gt;Node16 -->
<g id="edge150" class="edge">
<title>Node114&#45;&gt;Node16</title>
<path fill="none" stroke="#63b8ff" d="M1316.61,-747.68C1301.53,-713.88 1263.7,-629.09 1246.61,-590.8"/>
<polygon fill="#63b8ff" stroke="#63b8ff" points="1249.82,-589.41 1242.55,-581.7 1243.43,-592.26 1249.82,-589.41"/>
</g>
<!-- Node114&#45;&gt;Node88 -->
<g id="edge153" class="edge">
<title>Node114&#45;&gt;Node88</title>
<path fill="none" stroke="#63b8ff" d="M1367.29,-747.58C1467.4,-714.47 1707.61,-631.83 1775,-580 1817.4,-547.39 1850.73,-492.54 1866.34,-463.83"/>
<polygon fill="#63b8ff" stroke="#63b8ff" points="1869.31,-465.7 1870.89,-455.22 1863.12,-462.43 1869.31,-465.7"/>
</g>
<!-- Node114&#45;&gt;Node47 -->
<g id="edge151" class="edge">
<title>Node114&#45;&gt;Node47</title>
<path fill="none" stroke="#63b8ff" d="M1302.44,-747.81C1232.35,-698.99 1004.8,-536.7 963,-459 941.2,-418.48 941.68,-362.61 943.86,-333.11"/>
<polygon fill="#63b8ff" stroke="#63b8ff" points="947.33,-333.67 944.74,-323.39 940.36,-333.04 947.33,-333.67"/>
</g>
<!-- Node114&#45;&gt;Node97 -->
<g id="edge152" class="edge">
<title>Node114&#45;&gt;Node97</title>
<path fill="none" stroke="#63b8ff" d="M1325.11,-747.73C1329.49,-713.19 1336.51,-623.3 1302,-561 1295.55,-549.36 1285.16,-539.51 1274.61,-531.71"/>
<polygon fill="#63b8ff" stroke="#63b8ff" points="1276.87,-529.01 1266.65,-526.24 1272.91,-534.79 1276.87,-529.01"/>
</g>
<!-- Node114&#45;&gt;Node110 -->
<g id="edge154" class="edge">
<title>Node114&#45;&gt;Node110</title>
<path fill="none" stroke="#63b8ff" d="M1387.26,-755.07C1466.08,-746.31 1603.66,-730.16 1721,-712 1727.05,-711.06 1733.36,-710.02 1739.64,-708.93"/>
<polygon fill="#63b8ff" stroke="#63b8ff" points="1740.13,-712.4 1749.36,-707.2 1738.9,-705.5 1740.13,-712.4"/>
</g>
<!-- Node114&#45;&gt;Node112 -->
<g id="edge148" class="edge">
<title>Node114&#45;&gt;Node112</title>
<path fill="none" stroke="#63b8ff" d="M1270.64,-747.55C1237.77,-738.15 1194.62,-725.22 1157,-712 1049.39,-674.18 1026.58,-653.89 919,-616 884.55,-603.86 844.87,-591.97 815.43,-583.54"/>
<polygon fill="#63b8ff" stroke="#63b8ff" points="816.71,-580.27 806.13,-580.9 814.79,-587 816.71,-580.27"/>
</g>
<!-- Node114&#45;&gt;Node116 -->
<g id="edge155" class="edge">
<title>Node114&#45;&gt;Node116</title>
<path fill="none" stroke="#63b8ff" d="M1387.3,-748.89C1435.69,-739.03 1502.39,-725.44 1554.68,-714.78"/>
<polygon fill="#63b8ff" stroke="#63b8ff" points="1555.36,-718.21 1564.46,-712.78 1553.96,-711.35 1555.36,-718.21"/>
</g>
<!-- Node116&#45;&gt;Node2 -->
<g id="edge156" class="edge">
<title>Node116&#45;&gt;Node2</title>
<path fill="none" stroke="#63b8ff" d="M1623.79,-681.94C1597.69,-652.62 1542,-581.77 1542,-511 1542,-511 1542,-511 1542,-377 1542,-292.9 1557.28,-193.48 1564.41,-151.64"/>
<polygon fill="#63b8ff" stroke="#63b8ff" points="1567.84,-152.33 1566.11,-141.87 1560.95,-151.12 1567.84,-152.33"/>
</g>
<!-- Node116&#45;&gt;Node98 -->
<g id="edge165" class="edge">
<title>Node116&#45;&gt;Node98</title>
<path fill="none" stroke="#63b8ff" d="M1711.65,-683.53C1714.81,-683.01 1717.94,-682.5 1721,-682 2003.53,-635.8 2109.32,-723.56 2357,-580 2405.3,-552.01 2440.79,-493.79 2456.71,-463.79"/>
<polygon fill="#63b8ff" stroke="#63b8ff" points="2459.7,-465.63 2461.14,-455.13 2453.47,-462.44 2459.7,-465.63"/>
</g>
<!-- Node117 -->
<g id="node45" class="node">
<title>Node117</title>
<g id="a_node45"><a xlink:href="../../d3/dec/kratos__application_8h.html" target="_top" xlink:title=" ">
<polygon fill="#fff0f0" stroke="red" points="1883.5,-640.5 1724.5,-640.5 1724.5,-621.5 1883.5,-621.5 1883.5,-640.5"/>
<text text-anchor="middle" x="1804" y="-628.5" font-family="Helvetica,sans-Serif" font-size="10.00">includes/kratos_application.h</text>
</a>
</g>
</g>
<!-- Node116&#45;&gt;Node117 -->
<g id="edge157" class="edge">
<title>Node116&#45;&gt;Node117</title>
<path fill="none" stroke="#63b8ff" d="M1674.48,-681.64C1703.17,-670.64 1742.41,-655.6 1770.16,-644.97"/>
<polygon fill="#63b8ff" stroke="#63b8ff" points="1771.05,-648.37 1779.14,-641.53 1768.55,-641.84 1771.05,-648.37"/>
</g>
<!-- Node190 -->
<g id="node46" class="node">
<title>Node190</title>
<g id="a_node46"><a xlink:href="../../d8/d13/dem__variables_8h.html" target="_top" xlink:title=" ">
<polygon fill="white" stroke="#666666" points="2755.5,-321.5 2614.5,-321.5 2614.5,-302.5 2755.5,-302.5 2755.5,-321.5"/>
<text text-anchor="middle" x="2685" y="-309.5" font-family="Helvetica,sans-Serif" font-size="10.00">includes/dem_variables.h</text>
</a>
</g>
</g>
<!-- Node116&#45;&gt;Node190 -->
<g id="edge166" class="edge">
<title>Node116&#45;&gt;Node190</title>
<path fill="none" stroke="#63b8ff" d="M1711.6,-683.17C1714.77,-682.75 1717.92,-682.36 1721,-682 1960.36,-654.16 2030.6,-713.27 2262,-646 2462.19,-587.81 2532.07,-559.9 2657,-393 2670.42,-375.08 2677.78,-350.2 2681.54,-332.97"/>
<polygon fill="#63b8ff" stroke="#63b8ff" points="2684.96,-333.72 2683.43,-323.23 2678.09,-332.38 2684.96,-333.72"/>
</g>
<!-- Node191 -->
<g id="node47" class="node">
<title>Node191</title>
<g id="a_node47"><a xlink:href="../../d3/dd8/statistics__record_8h.html" target="_top" xlink:title=" ">
<polygon fill="#fff0f0" stroke="red" points="2913,-459 2771,-459 2771,-429 2913,-429 2913,-459"/>
<text text-anchor="start" x="2779" y="-447" font-family="Helvetica,sans-Serif" font-size="10.00">custom_utilities/statistics</text>
<text text-anchor="middle" x="2842" y="-436" font-family="Helvetica,sans-Serif" font-size="10.00">_record.h</text>
</a>
</g>
</g>
<!-- Node116&#45;&gt;Node191 -->
<g id="edge172" class="edge">
<title>Node116&#45;&gt;Node191</title>
<path fill="none" stroke="#63b8ff" d="M1711.6,-683.17C1714.77,-682.75 1717.92,-682.36 1721,-682 1960.36,-654.16 2025.83,-693.88 2262,-646 2470.18,-603.8 2705.78,-505.46 2799.91,-463.99"/>
<polygon fill="#63b8ff" stroke="#63b8ff" points="2801.04,-467.32 2808.77,-460.07 2798.2,-460.92 2801.04,-467.32"/>
</g>
<!-- Node193 -->
<g id="node48" class="node">
<title>Node193</title>
<g id="a_node48"><a xlink:href="../../d3/dc3/statistics__data_8h.html" target="_top" xlink:title=" ">
<polygon fill="#fff0f0" stroke="red" points="3092,-646 2950,-646 2950,-616 3092,-616 3092,-646"/>
<text text-anchor="start" x="2958" y="-634" font-family="Helvetica,sans-Serif" font-size="10.00">custom_utilities/statistics</text>
<text text-anchor="middle" x="3021" y="-623" font-family="Helvetica,sans-Serif" font-size="10.00">_data.h</text>
</a>
</g>
</g>
<!-- Node116&#45;&gt;Node193 -->
<g id="edge178" class="edge">
<title>Node116&#45;&gt;Node193</title>
<path fill="none" stroke="#63b8ff" d="M1711.59,-683.06C1714.76,-682.67 1717.91,-682.32 1721,-682 1841.45,-669.7 2672.13,-642.93 2938.79,-634.55"/>
<polygon fill="#63b8ff" stroke="#63b8ff" points="2938.53,-638.06 2948.41,-634.25 2938.31,-631.07 2938.53,-638.06"/>
</g>
<!-- Node117&#45;&gt;Node2 -->
<g id="edge160" class="edge">
<title>Node117&#45;&gt;Node2</title>
<path fill="none" stroke="#63b8ff" d="M1727.54,-621.04C1662.65,-608.67 1580,-579.48 1580,-511 1580,-511 1580,-511 1580,-377 1580,-311.7 1656.19,-304.72 1638,-242 1627.4,-205.47 1600.71,-169.45 1583.52,-148.9"/>
<polygon fill="#63b8ff" stroke="#63b8ff" points="1586.33,-146.8 1577.16,-141.51 1581.03,-151.37 1586.33,-146.8"/>
</g>
<!-- Node117&#45;&gt;Node7 -->
<g id="edge159" class="edge">
<title>Node117&#45;&gt;Node7</title>
<path fill="none" stroke="#63b8ff" d="M1883.98,-623.72C2128.57,-603.72 2854.04,-538.14 2922,-459 3008.9,-357.79 2918.02,-268.6 2822,-176 2780.64,-136.11 2758.21,-142.7 2705,-121 2636.15,-92.92 2619.9,-80.65 2547,-66 2397.35,-35.93 1921.13,-20.97 1777.44,-17.06"/>
<polygon fill="#63b8ff" stroke="#63b8ff" points="1777.73,-13.57 1767.64,-16.8 1777.54,-20.56 1777.73,-13.57"/>
</g>
<!-- Node117&#45;&gt;Node12 -->
<g id="edge158" class="edge">
<title>Node117&#45;&gt;Node12</title>
<path fill="none" stroke="#63b8ff" d="M1883.92,-630.92C2054.86,-630.87 2467.17,-619.93 2796,-525 2865.98,-504.8 2882.56,-494.77 2946,-459 3085.09,-380.57 3240,-412.18 3240,-252.5 3240,-252.5 3240,-252.5 3240,-129.5 3240,-64.8 3171.37,-83.23 3109,-66 3007.07,-37.84 2680.04,-21.9 2573.73,-17.36"/>
<polygon fill="#63b8ff" stroke="#63b8ff" points="2574.1,-13.87 2563.96,-16.95 2573.81,-20.87 2574.1,-13.87"/>
</g>
<!-- Node117&#45;&gt;Node16 -->
<g id="edge162" class="edge">
<title>Node117&#45;&gt;Node16</title>
<path fill="none" stroke="#63b8ff" d="M1724.11,-621.74C1611.76,-610.13 1409.16,-589.19 1304.54,-578.38"/>
<polygon fill="#63b8ff" stroke="#63b8ff" points="1305.01,-574.91 1294.7,-577.36 1304.29,-581.87 1305.01,-574.91"/>
</g>
<!-- Node117&#45;&gt;Node67 -->
<g id="edge161" class="edge">
<title>Node117&#45;&gt;Node67</title>
<path fill="none" stroke="#63b8ff" d="M1883.85,-623.14C2012.03,-607.39 2260.86,-556.3 2375,-393 2400.33,-356.76 2392.82,-301.47 2386.26,-272.22"/>
<polygon fill="#63b8ff" stroke="#63b8ff" points="2389.75,-271.76 2383.97,-262.89 2382.96,-273.44 2389.75,-271.76"/>
</g>
<!-- Node117&#45;&gt;Node87 -->
<g id="edge163" class="edge">
<title>Node117&#45;&gt;Node87</title>
<path fill="none" stroke="#63b8ff" d="M1793.78,-621.06C1772.53,-602.46 1723.04,-559.16 1692.86,-532.76"/>
<polygon fill="#63b8ff" stroke="#63b8ff" points="1695.51,-530.42 1685.68,-526.47 1690.9,-535.69 1695.51,-530.42"/>
</g>
<!-- Node117&#45;&gt;Node24 -->
<g id="edge164" class="edge">
<title>Node117&#45;&gt;Node24</title>
<path fill="none" stroke="#63b8ff" d="M1813.57,-621.07C1853.04,-584.24 2003.47,-443.88 2055.31,-395.5"/>
<polygon fill="#63b8ff" stroke="#63b8ff" points="2057.51,-398.24 2062.43,-388.86 2052.73,-393.12 2057.51,-398.24"/>
</g>
<!-- Node190&#45;&gt;Node2 -->
<g id="edge167" class="edge">
<title>Node190&#45;&gt;Node2</title>
<path fill="none" stroke="#63b8ff" d="M2681.83,-302.23C2676,-287.37 2662.07,-257.35 2640,-242 2530.76,-166.04 2479.76,-194.52 2348,-176 2277.67,-166.12 1800.35,-142.62 1629.05,-134.4"/>
<polygon fill="#63b8ff" stroke="#63b8ff" points="1629.4,-130.91 1619.24,-133.93 1629.06,-137.9 1629.4,-130.91"/>
</g>
<!-- Node190&#45;&gt;Node64 -->
<g id="edge168" class="edge">
<title>Node190&#45;&gt;Node64</title>
<path fill="none" stroke="#63b8ff" d="M2694.42,-302.1C2703.49,-292.84 2716.59,-277.41 2722,-261 2727.75,-243.56 2718.89,-224 2709.99,-210.17"/>
<polygon fill="#63b8ff" stroke="#63b8ff" points="2712.92,-208.24 2704.29,-202.08 2707.19,-212.27 2712.92,-208.24"/>
</g>
<!-- Node190&#45;&gt;Node67 -->
<g id="edge169" class="edge">
<title>Node190&#45;&gt;Node67</title>
<path fill="none" stroke="#63b8ff" d="M2638.5,-302.05C2584.94,-291.74 2496.88,-274.8 2438.92,-263.65"/>
<polygon fill="#63b8ff" stroke="#63b8ff" points="2439.71,-260.23 2429.23,-261.78 2438.39,-267.11 2439.71,-260.23"/>
</g>
<!-- Node190&#45;&gt;Node29 -->
<g id="edge170" class="edge">
<title>Node190&#45;&gt;Node29</title>
<path fill="none" stroke="#63b8ff" d="M2679.11,-302.27C2668.16,-286.89 2643.07,-255.35 2613,-242 2510.57,-196.53 2221.25,-219.45 2110,-206 2102.49,-205.09 2094.61,-203.97 2086.84,-202.76"/>
<polygon fill="#63b8ff" stroke="#63b8ff" points="2087.51,-199.32 2077.08,-201.17 2086.39,-206.23 2087.51,-199.32"/>
</g>
<!-- Node190&#45;&gt;Node25 -->
<g id="edge171" class="edge">
<title>Node190&#45;&gt;Node25</title>
<path fill="none" stroke="#63b8ff" d="M2663.43,-302.12C2639.98,-292.45 2602.23,-276.9 2575.24,-265.78"/>
<polygon fill="#63b8ff" stroke="#63b8ff" points="2576.75,-262.62 2566.17,-262.05 2574.08,-269.09 2576.75,-262.62"/>
</g>
<!-- Node191&#45;&gt;Node2 -->
<g id="edge176" class="edge">
<title>Node191&#45;&gt;Node2</title>
<path fill="none" stroke="#63b8ff" d="M2843.56,-428.74C2847.83,-381.36 2854.05,-229.19 2765,-176 2718.13,-148.01 1837.55,-142.08 1783,-140 1731.2,-138.03 1672.38,-135.69 1629.37,-133.97"/>
<polygon fill="#63b8ff" stroke="#63b8ff" points="1629.6,-130.48 1619.47,-133.58 1629.32,-137.47 1629.6,-130.48"/>
</g>
<!-- Node191&#45;&gt;Node7 -->
<g id="edge174" class="edge">
<title>Node191&#45;&gt;Node7</title>
<path fill="none" stroke="#63b8ff" d="M2848.19,-428.88C2852.16,-419.04 2856.94,-405.48 2859,-393 2870.05,-326.15 2866.26,-303.58 2838,-242 2823.4,-210.18 2822.06,-198.22 2795,-176 2744.29,-134.36 2719.47,-143.95 2658,-121 2587.95,-94.84 2572.3,-80.8 2499,-66 2359.13,-37.76 1916.09,-21.69 1777.71,-17.26"/>
<polygon fill="#63b8ff" stroke="#63b8ff" points="1778.02,-13.77 1767.92,-16.95 1777.8,-20.77 1778.02,-13.77"/>
</g>
<!-- Node191&#45;&gt;Node12 -->
<g id="edge173" class="edge">
<title>Node191&#45;&gt;Node12</title>
<path fill="none" stroke="#63b8ff" d="M2894.81,-428.52C2986.16,-399.89 3164,-326.85 3164,-192 3164,-192 3164,-192 3164,-129.5 3164,-74.58 3110.16,-83.17 3058,-66 2967.38,-36.17 2673.74,-21.53 2573.72,-17.32"/>
<polygon fill="#63b8ff" stroke="#63b8ff" points="2573.9,-13.82 2563.76,-16.91 2573.61,-20.82 2573.9,-13.82"/>
</g>
<!-- Node191&#45;&gt;Node29 -->
<g id="edge177" class="edge">
<title>Node191&#45;&gt;Node29</title>
<path fill="none" stroke="#63b8ff" d="M2795.02,-428.51C2648.8,-383.43 2203.55,-246.13 2067.75,-204.26"/>
<polygon fill="#63b8ff" stroke="#63b8ff" points="2069.07,-201 2058.49,-201.4 2067.01,-207.69 2069.07,-201"/>
</g>
<!-- Node191&#45;&gt;Node93 -->
<g id="edge175" class="edge">
<title>Node191&#45;&gt;Node93</title>
<path fill="none" stroke="#63b8ff" d="M2770.88,-437.49C2679.91,-429.93 2517.66,-414.78 2380,-393 2379,-392.84 2377.99,-392.68 2376.97,-392.51"/>
<polygon fill="#63b8ff" stroke="#63b8ff" points="2377.89,-389.12 2367.43,-390.83 2376.67,-396.01 2377.89,-389.12"/>
</g>
<!-- Node193&#45;&gt;Node2 -->
<g id="edge181" class="edge">
<title>Node193&#45;&gt;Node2</title>
<path fill="none" stroke="#63b8ff" d="M3022.42,-615.74C3025.92,-574.22 3031.73,-450.8 2988,-363 2934.75,-256.09 2904.89,-222.8 2795,-176 2691.48,-131.92 1895.44,-144.22 1783,-140 1731.2,-138.05 1672.38,-135.72 1629.37,-133.99"/>
<polygon fill="#63b8ff" stroke="#63b8ff" points="1629.6,-130.5 1619.47,-133.59 1629.32,-137.49 1629.6,-130.5"/>
</g>
<!-- Node193&#45;&gt;Node7 -->
<g id="edge180" class="edge">
<title>Node193&#45;&gt;Node7</title>
<path fill="none" stroke="#63b8ff" d="M3052.53,-615.66C3104.39,-589.65 3202,-529.47 3202,-445 3202,-445 3202,-445 3202,-311 3202,-262 3158.98,-265.55 3116,-242 3009.01,-183.38 2715.75,-89.31 2596,-66 2436.27,-34.91 1926.7,-20.55 1777.45,-16.94"/>
<polygon fill="#63b8ff" stroke="#63b8ff" points="1777.72,-13.44 1767.64,-16.71 1777.56,-20.44 1777.72,-13.44"/>
</g>
<!-- Node193&#45;&gt;Node12 -->
<g id="edge179" class="edge">
<title>Node193&#45;&gt;Node12</title>
<path fill="none" stroke="#63b8ff" d="M3070.09,-615.58C3114.38,-600.12 3178.21,-571.33 3216,-525 3313.68,-405.26 3316,-346.53 3316,-192 3316,-192 3316,-192 3316,-129.5 3316,-90.06 3289.79,-82.57 3254,-66 3191.81,-37.2 2706.56,-20.91 2573.59,-16.95"/>
<polygon fill="#63b8ff" stroke="#63b8ff" points="2573.8,-13.46 2563.71,-16.66 2573.6,-20.45 2573.8,-13.46"/>
</g>
<!-- Node193&#45;&gt;Node16 -->
<g id="edge182" class="edge">
<title>Node193&#45;&gt;Node16</title>
<path fill="none" stroke="#63b8ff" d="M2949.73,-627.66C2661.35,-618.2 1583.14,-582.82 1304.21,-573.67"/>
<polygon fill="#63b8ff" stroke="#63b8ff" points="1304.7,-570.19 1294.59,-573.36 1304.47,-577.18 1304.7,-570.19"/>
</g>
<!-- Node194&#45;&gt;Node2 -->
<g id="edge184" class="edge">
<title>Node194&#45;&gt;Node2</title>
<path fill="none" stroke="#63b8ff" d="M1263.81,-819.04C1046.33,-784.5 304,-651.47 304,-445 304,-445 304,-445 304,-311 304,-222.19 396.16,-248.75 474,-206 492.86,-195.64 491.83,-183.48 512,-176 605.08,-141.47 1295.42,-133.52 1506.72,-131.89"/>
<polygon fill="#63b8ff" stroke="#63b8ff" points="1506.7,-135.39 1516.67,-131.81 1506.64,-128.39 1506.7,-135.39"/>
</g>
<!-- Node194&#45;&gt;Node16 -->
<g id="edge185" class="edge">
<title>Node194&#45;&gt;Node16</title>
<path fill="none" stroke="#63b8ff" d="M1289.62,-813.63C1274.85,-805.44 1258.84,-793.65 1250,-778 1215.73,-717.32 1226.52,-629.97 1233.75,-591.26"/>
<polygon fill="#63b8ff" stroke="#63b8ff" points="1237.15,-592.08 1235.69,-581.59 1230.29,-590.7 1237.15,-592.08"/>
</g>
<!-- Node194&#45;&gt;Node88 -->
<g id="edge187" class="edge">
<title>Node194&#45;&gt;Node88</title>
<path fill="none" stroke="#63b8ff" d="M1345.13,-813.57C1410.72,-770.69 1609.51,-639.85 1770,-525 1800.27,-503.34 1834.51,-477.19 1855.68,-460.82"/>
<polygon fill="#63b8ff" stroke="#63b8ff" points="1857.74,-463.66 1863.49,-454.76 1853.45,-458.12 1857.74,-463.66"/>
</g>
<!-- Node194&#45;&gt;Node47 -->
<g id="edge186" class="edge">
<title>Node194&#45;&gt;Node47</title>
<path fill="none" stroke="#63b8ff" d="M1293.71,-813.7C1275.65,-804.41 1252.32,-791.54 1233,-778 1104.55,-688.01 1080.83,-650.67 987,-525 966.48,-497.52 958.44,-491.33 947,-459 937.12,-431.09 940,-422.54 938,-393 937.1,-379.7 936.94,-376.29 938,-363 938.8,-353 940.47,-341.98 942.08,-332.83"/>
<polygon fill="#63b8ff" stroke="#63b8ff" points="945.47,-333.76 943.88,-323.29 938.59,-332.47 945.47,-333.76"/>
</g>
<!-- Node194&#45;&gt;Node110 -->
<g id="edge188" class="edge">
<title>Node194&#45;&gt;Node110</title>
<path fill="none" stroke="#63b8ff" d="M1382.4,-814.66C1424.13,-805.06 1481.16,-791.47 1531,-778 1612.37,-756 1706.62,-726.75 1758.24,-710.41"/>
<polygon fill="#63b8ff" stroke="#63b8ff" points="1759.28,-713.75 1767.75,-707.38 1757.16,-707.08 1759.28,-713.75"/>
</g>
<!-- Node194&#45;&gt;Node114 -->
<g id="edge189" class="edge">
<title>Node194&#45;&gt;Node114</title>
<path fill="none" stroke="#63b8ff" d="M1323,-813.8C1323,-806.67 1323,-797.82 1323,-789.56"/>
<polygon fill="#63b8ff" stroke="#63b8ff" points="1326.5,-789.68 1323,-779.68 1319.5,-789.68 1326.5,-789.68"/>
</g>
<!-- Node194&#45;&gt;Node116 -->
<g id="edge190" class="edge">
<title>Node194&#45;&gt;Node116</title>
<path fill="none" stroke="#63b8ff" d="M1382.24,-814.81C1415.58,-806.35 1457.5,-793.95 1493,-778 1515.95,-767.69 1519.16,-760.49 1541,-748 1559.55,-737.4 1580.55,-726.35 1598.18,-717.34"/>
<polygon fill="#63b8ff" stroke="#63b8ff" points="1599.44,-720.63 1606.77,-712.98 1596.27,-714.39 1599.44,-720.63"/>
</g>
<!-- Node195&#45;&gt;Node2 -->
<g id="edge193" class="edge">
<title>Node195&#45;&gt;Node2</title>
<path fill="none" stroke="#63b8ff" d="M1164.1,-885.03C1121.47,-876.1 1055.78,-861.25 1000,-844 715.83,-756.11 623.16,-758.21 385,-580 354.15,-556.92 338.95,-557.33 318,-525 262.49,-439.31 265.47,-396.1 290,-297 296.64,-270.18 297.72,-259.63 319,-242 360.89,-207.28 387.83,-231.29 436,-206 455.05,-196 453.82,-183.47 474,-176 522.63,-158 1283.28,-138.35 1506.73,-132.95"/>
<polygon fill="#63b8ff" stroke="#63b8ff" points="1506.78,-136.45 1516.69,-132.71 1506.61,-129.45 1506.78,-136.45"/>
</g>
<!-- Node195&#45;&gt;Node16 -->
<g id="edge194" class="edge">
<title>Node195&#45;&gt;Node16</title>
<path fill="none" stroke="#63b8ff" d="M1208.58,-885.25C1207.08,-850.69 1203.16,-720.45 1223,-616 1224.6,-607.59 1227.41,-598.59 1230.17,-590.9"/>
<polygon fill="#63b8ff" stroke="#63b8ff" points="1233.43,-592.18 1233.74,-581.59 1226.89,-589.67 1233.43,-592.18"/>
</g>
<!-- Node195&#45;&gt;Node88 -->
<g id="edge196" class="edge">
<title>Node195&#45;&gt;Node88</title>
<path fill="none" stroke="#63b8ff" d="M1203.81,-885.02C1179.79,-842.16 1084.31,-656.6 1174,-561 1216.89,-515.28 1679.29,-549.46 1737,-525 1755.25,-517.27 1753.52,-506.02 1770,-495 1792.47,-479.98 1820.16,-467.08 1841.61,-458.15"/>
<polygon fill="#63b8ff" stroke="#63b8ff" points="1842.84,-461.43 1850.79,-454.42 1840.21,-454.94 1842.84,-461.43"/>
</g>
<!-- Node195&#45;&gt;Node47 -->
<g id="edge195" class="edge">
<title>Node195&#45;&gt;Node47</title>
<path fill="none" stroke="#63b8ff" d="M1173.05,-885.03C1085.24,-860.73 867,-784.96 867,-632 867,-632 867,-632 867,-443 867,-396.63 904.16,-352.72 927.51,-329.7"/>
<polygon fill="#63b8ff" stroke="#63b8ff" points="929.74,-332.41 934.57,-322.99 924.91,-327.34 929.74,-332.41"/>
</g>
<!-- Node195&#45;&gt;Node110 -->
<g id="edge197" class="edge">
<title>Node195&#45;&gt;Node110</title>
<path fill="none" stroke="#63b8ff" d="M1263.61,-885.05C1311.07,-876.61 1381.38,-862.49 1441,-844 1566.23,-805.16 1708.71,-740.05 1768.37,-711.79"/>
<polygon fill="#63b8ff" stroke="#63b8ff" points="1769.63,-715.06 1777.15,-707.6 1766.62,-708.74 1769.63,-715.06"/>
</g>
<!-- Node195&#45;&gt;Node116 -->
<g id="edge199" class="edge">
<title>Node195&#45;&gt;Node116</title>
<path fill="none" stroke="#63b8ff" d="M1249.39,-885.02C1286.69,-876.23 1343.36,-861.62 1391,-844 1455.52,-820.13 1472.12,-813.57 1531,-778 1559.92,-760.53 1590.47,-736.84 1611.3,-719.78"/>
<polygon fill="#63b8ff" stroke="#63b8ff" points="1613.51,-722.5 1618.98,-713.42 1609.05,-717.1 1613.51,-722.5"/>
</g>
<!-- Node195&#45;&gt;Node194 -->
<g id="edge198" class="edge">
<title>Node195&#45;&gt;Node194</title>
<path fill="none" stroke="#63b8ff" d="M1224.85,-885.1C1240.94,-876.07 1266.39,-861.78 1287.35,-850.02"/>
<polygon fill="#63b8ff" stroke="#63b8ff" points="1288.89,-853.17 1295.89,-845.22 1285.46,-847.06 1288.89,-853.17"/>
</g>
</g>
</svg>
