<?xml version="1.0" encoding="UTF-8" standalone="no"?>
<!DOCTYPE svg PUBLIC "-//W3C//DTD SVG 1.1//EN"
 "http://www.w3.org/Graphics/SVG/1.1/DTD/svg11.dtd">
<!-- Generated by graphviz version 7.1.0 (0)
 -->
<!-- Title: /software/kratos/doxygen/applications/CSharpWrapperApplication/custom_sources/model_part_wrapper.cpp Pages: 1 -->
<svg width="3385pt" height="1083pt"
 viewBox="0.00 0.00 3385.00 1083.00" xmlns="http://www.w3.org/2000/svg" xmlns:xlink="http://www.w3.org/1999/xlink">
<g id="graph0" class="graph" transform="scale(1 1) rotate(0) translate(4 1079)">
<title>/software/kratos/doxygen/applications/CSharpWrapperApplication/custom_sources/model_part_wrapper.cpp</title>
<!-- Node1 -->
<g id="node1" class="node">
<title>Node1</title>
<g id="a_node1"><a xlink:title=" ">
<polygon fill="#999999" stroke="#666666" points="347.5,-1075 126.5,-1075 126.5,-1034 347.5,-1034 347.5,-1075"/>
<text text-anchor="start" x="134.5" y="-1063" font-family="Helvetica,sans-Serif" font-size="10.00">/software/kratos/doxygen</text>
<text text-anchor="start" x="134.5" y="-1052" font-family="Helvetica,sans-Serif" font-size="10.00">/applications/CSharpWrapperApplication</text>
<text text-anchor="middle" x="237" y="-1041" font-family="Helvetica,sans-Serif" font-size="10.00">/custom_sources/model_part_wrapper.cpp</text>
</a>
</g>
</g>
<!-- Node2 -->
<g id="node2" class="node">
<title>Node2</title>
<g id="a_node2"><a xlink:title=" ">
<polygon fill="#e0e0e0" stroke="#999999" points="163.5,-992.5 114.5,-992.5 114.5,-973.5 163.5,-973.5 163.5,-992.5"/>
<text text-anchor="middle" x="139" y="-980.5" font-family="Helvetica,sans-Serif" font-size="10.00">cstdlib</text>
</a>
</g>
</g>
<!-- Node1&#45;&gt;Node2 -->
<g id="edge1" class="edge">
<title>Node1&#45;&gt;Node2</title>
<path fill="none" stroke="#63b8ff" d="M208.92,-1033.58C193.57,-1022.7 174.85,-1009.42 160.64,-999.35"/>
<polygon fill="#63b8ff" stroke="#63b8ff" points="163.04,-996.76 152.86,-993.83 158.99,-1002.47 163.04,-996.76"/>
</g>
<!-- Node3 -->
<g id="node3" class="node">
<title>Node3</title>
<g id="a_node3"><a xlink:href="../../db/d0c/structural__mechanics__application__variables_8h.html" target="_top" xlink:title=" ">
<polygon fill="white" stroke="#666666" points="391.5,-635 256.5,-635 256.5,-605 391.5,-605 391.5,-635"/>
<text text-anchor="start" x="264.5" y="-623" font-family="Helvetica,sans-Serif" font-size="10.00">structural_mechanics</text>
<text text-anchor="middle" x="324" y="-612" font-family="Helvetica,sans-Serif" font-size="10.00">_application_variables.h</text>
</a>
</g>
</g>
<!-- Node1&#45;&gt;Node3 -->
<g id="edge2" class="edge">
<title>Node1&#45;&gt;Node3</title>
<path fill="none" stroke="#63b8ff" d="M225.88,-1033.53C212.55,-1007.69 192,-960.88 192,-918 192,-918 192,-918 192,-745.5 192,-696.2 241.34,-660.64 279.69,-640.45"/>
<polygon fill="#63b8ff" stroke="#63b8ff" points="280.97,-643.73 288.31,-636.1 277.81,-637.48 280.97,-643.73"/>
</g>
<!-- Node69 -->
<g id="node23" class="node">
<title>Node69</title>
<g id="a_node23"><a xlink:href="../../da/dc1/tetrahedral__mesh__orientation__check_8h.html" target="_top" xlink:title=" ">
<polygon fill="white" stroke="#666666" points="408,-932 258,-932 258,-902 408,-902 408,-932"/>
<text text-anchor="start" x="266" y="-920" font-family="Helvetica,sans-Serif" font-size="10.00">processes/tetrahedral</text>
<text text-anchor="middle" x="333" y="-909" font-family="Helvetica,sans-Serif" font-size="10.00">_mesh_orientation_check.h</text>
</a>
</g>
</g>
<!-- Node1&#45;&gt;Node69 -->
<g id="edge54" class="edge">
<title>Node1&#45;&gt;Node69</title>
<path fill="none" stroke="#63b8ff" d="M251.17,-1033.51C268.55,-1008.96 298,-967.4 316.42,-941.4"/>
<polygon fill="#63b8ff" stroke="#63b8ff" points="319.1,-943.68 322.02,-933.5 313.38,-939.63 319.1,-943.68"/>
</g>
<!-- Node125 -->
<g id="node46" class="node">
<title>Node125</title>
<g id="a_node46"><a xlink:href="../../d5/d12/model__part__wrapper_8h.html" target="_top" xlink:title=" ">
<polygon fill="white" stroke="#666666" points="2200,-998 2068,-998 2068,-968 2200,-968 2200,-998"/>
<text text-anchor="start" x="2076" y="-986" font-family="Helvetica,sans-Serif" font-size="10.00">custom_includes/model</text>
<text text-anchor="middle" x="2134" y="-975" font-family="Helvetica,sans-Serif" font-size="10.00">_part_wrapper.h</text>
</a>
</g>
</g>
<!-- Node1&#45;&gt;Node125 -->
<g id="edge170" class="edge">
<title>Node1&#45;&gt;Node125</title>
<path fill="none" stroke="#63b8ff" d="M347.89,-1049.44C695.7,-1036.69 1759.64,-997.72 2056.41,-986.84"/>
<polygon fill="#63b8ff" stroke="#63b8ff" points="2056.52,-990.34 2066.38,-986.48 2056.26,-983.35 2056.52,-990.34"/>
</g>
<!-- Node4 -->
<g id="node4" class="node">
<title>Node4</title>
<g id="a_node4"><a xlink:href="../../df/d67/define_8h.html" target="_top" xlink:title=" ">
<polygon fill="white" stroke="#666666" points="1588.5,-140 1489.5,-140 1489.5,-121 1588.5,-121 1588.5,-140"/>
<text text-anchor="middle" x="1539" y="-128" font-family="Helvetica,sans-Serif" font-size="10.00">includes/define.h</text>
</a>
</g>
</g>
<!-- Node3&#45;&gt;Node4 -->
<g id="edge3" class="edge">
<title>Node3&#45;&gt;Node4</title>
<path fill="none" stroke="#63b8ff" d="M302.5,-604.82C275.43,-585.52 230.24,-548.16 212,-503 205.84,-487.74 209.6,-291.93 214,-286 309.11,-157.75 398.86,-204.3 556,-176 734.18,-143.91 1291.15,-134.45 1477.54,-132.15"/>
<polygon fill="#63b8ff" stroke="#63b8ff" points="1477.54,-135.65 1487.5,-132.03 1477.46,-128.65 1477.54,-135.65"/>
</g>
<!-- Node18 -->
<g id="node13" class="node">
<title>Node18</title>
<g id="a_node13"><a xlink:href="../../de/d89/mat__variables_8h.html" target="_top" xlink:title=" ">
<polygon fill="white" stroke="#666666" points="879.5,-563.5 740.5,-563.5 740.5,-544.5 879.5,-544.5 879.5,-563.5"/>
<text text-anchor="middle" x="810" y="-551.5" font-family="Helvetica,sans-Serif" font-size="10.00">includes/mat_variables.h</text>
</a>
</g>
</g>
<!-- Node3&#45;&gt;Node18 -->
<g id="edge16" class="edge">
<title>Node3&#45;&gt;Node18</title>
<path fill="none" stroke="#63b8ff" d="M391.83,-610.07C480.75,-598.36 636.46,-577.85 730.72,-565.44"/>
<polygon fill="#63b8ff" stroke="#63b8ff" points="730.94,-568.94 740.4,-564.17 730.03,-562 730.94,-568.94"/>
</g>
<!-- Node5 -->
<g id="node5" class="node">
<title>Node5</title>
<g id="a_node5"><a xlink:title=" ">
<polygon fill="#e0e0e0" stroke="#999999" points="1589.5,-24.5 1524.5,-24.5 1524.5,-5.5 1589.5,-5.5 1589.5,-24.5"/>
<text text-anchor="middle" x="1557" y="-12.5" font-family="Helvetica,sans-Serif" font-size="10.00">stdexcept</text>
</a>
</g>
</g>
<!-- Node4&#45;&gt;Node5 -->
<g id="edge4" class="edge">
<title>Node4&#45;&gt;Node5</title>
<path fill="none" stroke="#63b8ff" d="M1524.08,-120.52C1506.67,-108.8 1481.52,-87.29 1492,-66 1499.47,-50.83 1513.99,-38.98 1527.42,-30.63"/>
<polygon fill="#63b8ff" stroke="#63b8ff" points="1529.1,-33.7 1536.03,-25.68 1525.61,-27.63 1529.1,-33.7"/>
</g>
<!-- Node6 -->
<g id="node6" class="node">
<title>Node6</title>
<g id="a_node6"><a xlink:title=" ">
<polygon fill="#e0e0e0" stroke="#999999" points="2954,-24.5 2898,-24.5 2898,-5.5 2954,-5.5 2954,-24.5"/>
<text text-anchor="middle" x="2926" y="-12.5" font-family="Helvetica,sans-Serif" font-size="10.00">sstream</text>
</a>
</g>
</g>
<!-- Node4&#45;&gt;Node6 -->
<g id="edge5" class="edge">
<title>Node4&#45;&gt;Node6</title>
<path fill="none" stroke="#63b8ff" d="M1588.77,-125.43C1808.43,-107.45 2688.95,-35.4 2886.52,-19.23"/>
<polygon fill="#63b8ff" stroke="#63b8ff" points="2886.57,-22.74 2896.25,-18.43 2886,-15.76 2886.57,-22.74"/>
</g>
<!-- Node7 -->
<g id="node7" class="node">
<title>Node7</title>
<g id="a_node7"><a xlink:href="../../dc/d25/kratos__export__api_8h.html" target="_top" xlink:title=" ">
<polygon fill="white" stroke="#666666" points="1501,-30 1373,-30 1373,0 1501,0 1501,-30"/>
<text text-anchor="start" x="1381" y="-18" font-family="Helvetica,sans-Serif" font-size="10.00">includes/kratos_export</text>
<text text-anchor="middle" x="1437" y="-7" font-family="Helvetica,sans-Serif" font-size="10.00">_api.h</text>
</a>
</g>
</g>
<!-- Node4&#45;&gt;Node7 -->
<g id="edge6" class="edge">
<title>Node4&#45;&gt;Node7</title>
<path fill="none" stroke="#63b8ff" d="M1526.87,-120.74C1515.61,-112.29 1498.71,-98.78 1486,-85 1473.1,-71.01 1460.7,-53.51 1451.61,-39.63"/>
<polygon fill="#63b8ff" stroke="#63b8ff" points="1454.77,-38.07 1446.43,-31.54 1448.88,-41.85 1454.77,-38.07"/>
</g>
<!-- Node8 -->
<g id="node8" class="node">
<title>Node8</title>
<g id="a_node8"><a xlink:href="../../d9/dc0/smart__pointers_8h.html" target="_top" xlink:title=" ">
<polygon fill="#fff0f0" stroke="red" points="1779.5,-85 1636.5,-85 1636.5,-66 1779.5,-66 1779.5,-85"/>
<text text-anchor="middle" x="1708" y="-73" font-family="Helvetica,sans-Serif" font-size="10.00">includes/smart_pointers.h</text>
</a>
</g>
</g>
<!-- Node4&#45;&gt;Node8 -->
<g id="edge7" class="edge">
<title>Node4&#45;&gt;Node8</title>
<path fill="none" stroke="#63b8ff" d="M1567.67,-120.51C1595.43,-111.8 1637.75,-98.53 1668.65,-88.84"/>
<polygon fill="#63b8ff" stroke="#63b8ff" points="1669.53,-92.23 1678.03,-85.9 1667.44,-85.55 1669.53,-92.23"/>
</g>
<!-- Node13 -->
<g id="node10" class="node">
<title>Node13</title>
<g id="a_node10"><a xlink:href="../../dd/d2d/exception_8h.html" target="_top" xlink:title=" ">
<polygon fill="#fff0f0" stroke="red" points="1618.5,-85 1501.5,-85 1501.5,-66 1618.5,-66 1618.5,-85"/>
<text text-anchor="middle" x="1560" y="-73" font-family="Helvetica,sans-Serif" font-size="10.00">includes/exception.h</text>
</a>
</g>
</g>
<!-- Node4&#45;&gt;Node13 -->
<g id="edge9" class="edge">
<title>Node4&#45;&gt;Node13</title>
<path fill="none" stroke="#63b8ff" d="M1542.47,-120.75C1545.13,-114.04 1548.9,-104.52 1552.26,-96.02"/>
<polygon fill="#63b8ff" stroke="#63b8ff" points="1555.47,-97.44 1555.9,-86.85 1548.96,-94.86 1555.47,-97.44"/>
</g>
<!-- Node9 -->
<g id="node9" class="node">
<title>Node9</title>
<g id="a_node9"><a xlink:title=" ">
<polygon fill="#e0e0e0" stroke="#999999" points="2371,-24.5 2311,-24.5 2311,-5.5 2371,-5.5 2371,-24.5"/>
<text text-anchor="middle" x="2341" y="-12.5" font-family="Helvetica,sans-Serif" font-size="10.00">iostream</text>
</a>
</g>
</g>
<!-- Node8&#45;&gt;Node9 -->
<g id="edge8" class="edge">
<title>Node8&#45;&gt;Node9</title>
<path fill="none" stroke="#63b8ff" d="M1779.79,-67.36C1784.6,-66.9 1789.37,-66.44 1794,-66 1982.71,-48.05 2208.17,-27.83 2299.53,-19.69"/>
<polygon fill="#63b8ff" stroke="#63b8ff" points="2299.59,-23.19 2309.24,-18.82 2298.97,-16.22 2299.59,-23.19"/>
</g>
<!-- Node13&#45;&gt;Node5 -->
<g id="edge10" class="edge">
<title>Node13&#45;&gt;Node5</title>
<path fill="none" stroke="#63b8ff" d="M1559.56,-65.87C1559.15,-58 1558.54,-46.1 1558.02,-35.89"/>
<polygon fill="#63b8ff" stroke="#63b8ff" points="1561.53,-35.99 1557.52,-26.18 1554.54,-36.35 1561.53,-35.99"/>
</g>
<!-- Node13&#45;&gt;Node6 -->
<g id="edge13" class="edge">
<title>Node13&#45;&gt;Node6</title>
<path fill="none" stroke="#63b8ff" d="M1618.8,-66.74C1621.57,-66.47 1624.31,-66.22 1627,-66 1880.78,-45.06 2696.5,-22.19 2886.28,-17.06"/>
<polygon fill="#63b8ff" stroke="#63b8ff" points="2886.2,-20.56 2896.1,-16.79 2886.01,-13.56 2886.2,-20.56"/>
</g>
<!-- Node13&#45;&gt;Node7 -->
<g id="edge15" class="edge">
<title>Node13&#45;&gt;Node7</title>
<path fill="none" stroke="#63b8ff" d="M1541.32,-65.62C1524.45,-57.59 1499.06,-45.52 1477.55,-35.29"/>
<polygon fill="#63b8ff" stroke="#63b8ff" points="1479.26,-32.22 1468.73,-31.09 1476.25,-38.55 1479.26,-32.22"/>
</g>
<!-- Node13&#45;&gt;Node9 -->
<g id="edge12" class="edge">
<title>Node13&#45;&gt;Node9</title>
<path fill="none" stroke="#63b8ff" d="M1618.8,-66.85C1621.57,-66.55 1624.32,-66.26 1627,-66 1882.04,-40.91 2189.54,-23.8 2299.46,-18.09"/>
<polygon fill="#63b8ff" stroke="#63b8ff" points="2299.36,-21.6 2309.16,-17.59 2299,-14.61 2299.36,-21.6"/>
</g>
<!-- Node14 -->
<g id="node11" class="node">
<title>Node14</title>
<g id="a_node11"><a xlink:title=" ">
<polygon fill="#e0e0e0" stroke="#999999" points="478,-24.5 434,-24.5 434,-5.5 478,-5.5 478,-24.5"/>
<text text-anchor="middle" x="456" y="-12.5" font-family="Helvetica,sans-Serif" font-size="10.00">string</text>
</a>
</g>
</g>
<!-- Node13&#45;&gt;Node14 -->
<g id="edge11" class="edge">
<title>Node13&#45;&gt;Node14</title>
<path fill="none" stroke="#63b8ff" d="M1501.03,-71.38C1300.06,-60.73 645.71,-26.05 489.64,-17.78"/>
<polygon fill="#63b8ff" stroke="#63b8ff" points="490.16,-14.31 479.99,-17.27 489.79,-21.3 490.16,-14.31"/>
</g>
<!-- Node15 -->
<g id="node12" class="node">
<title>Node15</title>
<g id="a_node12"><a xlink:title=" ">
<polygon fill="#e0e0e0" stroke="#999999" points="3196.5,-24.5 3149.5,-24.5 3149.5,-5.5 3196.5,-5.5 3196.5,-24.5"/>
<text text-anchor="middle" x="3173" y="-12.5" font-family="Helvetica,sans-Serif" font-size="10.00">vector</text>
</a>
</g>
</g>
<!-- Node13&#45;&gt;Node15 -->
<g id="edge14" class="edge">
<title>Node13&#45;&gt;Node15</title>
<path fill="none" stroke="#63b8ff" d="M1618.79,-66.71C1621.56,-66.44 1624.31,-66.21 1627,-66 2219.25,-20.56 2369.66,-57.76 2963,-30 3024.46,-27.12 3095.92,-21.98 3137.64,-18.79"/>
<polygon fill="#63b8ff" stroke="#63b8ff" points="3137.87,-22.28 3147.57,-18.02 3137.33,-15.3 3137.87,-22.28"/>
</g>
<!-- Node18&#45;&gt;Node4 -->
<g id="edge18" class="edge">
<title>Node18&#45;&gt;Node4</title>
<path fill="none" stroke="#63b8ff" d="M756.23,-544.04C670.18,-529.69 511.12,-503.15 511,-503 429.74,-407.02 493.32,-312.61 589,-231 670.61,-161.39 717.87,-191.61 824,-176 1064.19,-140.67 1353.81,-133.35 1477.82,-131.86"/>
<polygon fill="#63b8ff" stroke="#63b8ff" points="1477.82,-135.36 1487.78,-131.75 1477.74,-128.36 1477.82,-135.36"/>
</g>
<!-- Node18&#45;&gt;Node14 -->
<g id="edge17" class="edge">
<title>Node18&#45;&gt;Node14</title>
<path fill="none" stroke="#63b8ff" d="M757.15,-544.06C746.82,-542.35 736.08,-540.6 726,-539 619.91,-522.17 587.15,-541.84 487,-503 317.53,-437.28 228,-368.26 228,-186.5 228,-186.5 228,-186.5 228,-129.5 228,-99.33 229.42,-86 252,-66 299.88,-23.59 377.93,-15.82 422.32,-15.14"/>
<polygon fill="#63b8ff" stroke="#63b8ff" points="422.13,-18.64 432.12,-15.11 422.11,-11.64 422.13,-18.64"/>
</g>
<!-- Node19 -->
<g id="node14" class="node">
<title>Node19</title>
<g id="a_node14"><a xlink:href="../../da/d89/variable_8h.html" target="_top" xlink:title=" ">
<polygon fill="#fff0f0" stroke="red" points="1397.5,-431.5 1278.5,-431.5 1278.5,-412.5 1397.5,-412.5 1397.5,-431.5"/>
<text text-anchor="middle" x="1338" y="-419.5" font-family="Helvetica,sans-Serif" font-size="10.00">containers/variable.h</text>
</a>
</g>
</g>
<!-- Node18&#45;&gt;Node19 -->
<g id="edge19" class="edge">
<title>Node18&#45;&gt;Node19</title>
<path fill="none" stroke="#63b8ff" d="M815.66,-544.1C827.13,-526.94 854.92,-489.52 889,-473 953.93,-441.53 1157.45,-429.47 1266.82,-425.17"/>
<polygon fill="#63b8ff" stroke="#63b8ff" points="1266.69,-428.68 1276.55,-424.8 1266.43,-421.69 1266.69,-428.68"/>
</g>
<!-- Node31 -->
<g id="node18" class="node">
<title>Node31</title>
<g id="a_node18"><a xlink:href="../../d9/d3e/ublas__interface_8h.html" target="_top" xlink:title=" ">
<polygon fill="#fff0f0" stroke="red" points="1020,-195 876,-195 876,-176 1020,-176 1020,-195"/>
<text text-anchor="middle" x="948" y="-183" font-family="Helvetica,sans-Serif" font-size="10.00">includes/ublas_interface.h</text>
</a>
</g>
</g>
<!-- Node18&#45;&gt;Node31 -->
<g id="edge52" class="edge">
<title>Node18&#45;&gt;Node31</title>
<path fill="none" stroke="#63b8ff" d="M805.94,-544.02C801.74,-534.18 795.45,-517.84 793,-503 789.24,-480.26 797.38,-408.69 798,-407 817.29,-354.42 840.42,-351.26 872,-305 895.79,-270.15 922.06,-228.4 936.64,-204.92"/>
<polygon fill="#63b8ff" stroke="#63b8ff" points="939.55,-206.87 941.84,-196.52 933.6,-203.18 939.55,-206.87"/>
</g>
<!-- Node47 -->
<g id="node19" class="node">
<title>Node47</title>
<g id="a_node19"><a xlink:href="../../d9/d36/array__1d_8h.html" target="_top" xlink:title=" ">
<polygon fill="#fff0f0" stroke="red" points="1337,-250 1215,-250 1215,-231 1337,-231 1337,-250"/>
<text text-anchor="middle" x="1276" y="-238" font-family="Helvetica,sans-Serif" font-size="10.00">containers/array_1d.h</text>
</a>
</g>
</g>
<!-- Node18&#45;&gt;Node47 -->
<g id="edge53" class="edge">
<title>Node18&#45;&gt;Node47</title>
<path fill="none" stroke="#63b8ff" d="M807.18,-544.02C800.04,-519.37 783.91,-449.62 815,-407 905.56,-282.84 1098.01,-251.5 1203.36,-243.81"/>
<polygon fill="#63b8ff" stroke="#63b8ff" points="1203.57,-247.3 1213.32,-243.14 1203.1,-240.32 1203.57,-247.3"/>
</g>
<!-- Node61 -->
<g id="node21" class="node">
<title>Node61</title>
<g id="a_node21"><a xlink:href="../../dc/d8e/kratos__components_8h.html" target="_top" xlink:title=" ">
<polygon fill="#fff0f0" stroke="red" points="1063.5,-497.5 898.5,-497.5 898.5,-478.5 1063.5,-478.5 1063.5,-497.5"/>
<text text-anchor="middle" x="981" y="-485.5" font-family="Helvetica,sans-Serif" font-size="10.00">includes/kratos_components.h</text>
</a>
</g>
</g>
<!-- Node18&#45;&gt;Node61 -->
<g id="edge46" class="edge">
<title>Node18&#45;&gt;Node61</title>
<path fill="none" stroke="#63b8ff" d="M833.78,-544.1C863.05,-533.15 912.98,-514.46 946.47,-501.92"/>
<polygon fill="#63b8ff" stroke="#63b8ff" points="947.59,-505.24 955.73,-498.46 945.14,-498.68 947.59,-505.24"/>
</g>
<!-- Node19&#45;&gt;Node4 -->
<g id="edge22" class="edge">
<title>Node19&#45;&gt;Node4</title>
<path fill="none" stroke="#63b8ff" d="M1278.26,-413.74C1251.51,-407.17 1222.36,-394.69 1206,-371 1170.64,-319.8 1170.9,-282.37 1206,-231 1236.79,-185.94 1390.31,-154.88 1477.76,-140.54"/>
<polygon fill="#63b8ff" stroke="#63b8ff" points="1478.31,-143.99 1487.63,-138.95 1477.2,-137.08 1478.31,-143.99"/>
</g>
<!-- Node19&#45;&gt;Node9 -->
<g id="edge21" class="edge">
<title>Node19&#45;&gt;Node9</title>
<path fill="none" stroke="#63b8ff" d="M1397.88,-418.47C1500.4,-413.41 1704.8,-399.97 1770,-371 1883.54,-320.56 1980,-310.74 1980,-186.5 1980,-186.5 1980,-186.5 1980,-129.5 1980,-63.2 2204.39,-30.89 2299.35,-20.19"/>
<polygon fill="#63b8ff" stroke="#63b8ff" points="2299.47,-23.7 2309.03,-19.13 2298.71,-16.74 2299.47,-23.7"/>
</g>
<!-- Node19&#45;&gt;Node14 -->
<g id="edge20" class="edge">
<title>Node19&#45;&gt;Node14</title>
<path fill="none" stroke="#63b8ff" d="M1284.21,-412.03C1141.13,-388.04 758.27,-323.02 703,-305 649.51,-287.57 630.09,-288.42 589,-250 520.81,-186.26 478.06,-79.52 462.57,-35.69"/>
<polygon fill="#63b8ff" stroke="#63b8ff" points="465.9,-34.62 459.34,-26.3 459.28,-36.9 465.9,-34.62"/>
</g>
<!-- Node20 -->
<g id="node15" class="node">
<title>Node20</title>
<g id="a_node15"><a xlink:href="../../d3/dc3/variable__data_8h.html" target="_top" xlink:title=" ">
<polygon fill="#fff0f0" stroke="red" points="1562,-365.5 1470,-365.5 1470,-346.5 1562,-346.5 1562,-365.5"/>
<text text-anchor="middle" x="1516" y="-353.5" font-family="Helvetica,sans-Serif" font-size="10.00">variable_data.h</text>
</a>
</g>
</g>
<!-- Node19&#45;&gt;Node20 -->
<g id="edge23" class="edge">
<title>Node19&#45;&gt;Node20</title>
<path fill="none" stroke="#63b8ff" d="M1362.75,-412.1C1393.35,-401.1 1445.65,-382.3 1480.52,-369.76"/>
<polygon fill="#63b8ff" stroke="#63b8ff" points="1481.52,-373.12 1489.75,-366.44 1479.16,-366.53 1481.52,-373.12"/>
</g>
<!-- Node20&#45;&gt;Node4 -->
<g id="edge27" class="edge">
<title>Node20&#45;&gt;Node4</title>
<path fill="none" stroke="#63b8ff" d="M1516.9,-346.24C1520.26,-313.63 1532.08,-198.77 1536.91,-151.78"/>
<polygon fill="#63b8ff" stroke="#63b8ff" points="1540.38,-152.26 1537.92,-141.95 1533.42,-151.54 1540.38,-152.26"/>
</g>
<!-- Node20&#45;&gt;Node9 -->
<g id="edge25" class="edge">
<title>Node20&#45;&gt;Node9</title>
<path fill="none" stroke="#63b8ff" d="M1525.87,-346.21C1571.77,-305.93 1770.32,-137.81 1966,-66 2081.41,-23.65 2228.52,-16.5 2299.28,-15.71"/>
<polygon fill="#63b8ff" stroke="#63b8ff" points="2299.29,-19.22 2309.26,-15.65 2299.24,-12.22 2299.29,-19.22"/>
</g>
<!-- Node20&#45;&gt;Node14 -->
<g id="edge24" class="edge">
<title>Node20&#45;&gt;Node14</title>
<path fill="none" stroke="#63b8ff" d="M1469.6,-346.37C1362.03,-325.76 1087.95,-269.75 867,-195 847.47,-188.39 578.71,-70.1 486.67,-29.53"/>
<polygon fill="#63b8ff" stroke="#63b8ff" points="488.29,-26.42 477.73,-25.59 485.47,-32.82 488.29,-26.42"/>
</g>
<!-- Node21 -->
<g id="node16" class="node">
<title>Node21</title>
<g id="a_node16"><a xlink:title=" ">
<polygon fill="#e0e0e0" stroke="#999999" points="2783.5,-305 2730.5,-305 2730.5,-286 2783.5,-286 2783.5,-305"/>
<text text-anchor="middle" x="2757" y="-293" font-family="Helvetica,sans-Serif" font-size="10.00">cstddef</text>
</a>
</g>
</g>
<!-- Node20&#45;&gt;Node21 -->
<g id="edge26" class="edge">
<title>Node20&#45;&gt;Node21</title>
<path fill="none" stroke="#63b8ff" d="M1562.31,-349.29C1587.35,-346.4 1618.83,-343.07 1647,-341 2066.59,-310.2 2577.07,-299.58 2718.88,-297.11"/>
<polygon fill="#63b8ff" stroke="#63b8ff" points="2718.88,-300.61 2728.82,-296.94 2718.76,-293.61 2718.88,-300.61"/>
</g>
<!-- Node23 -->
<g id="node17" class="node">
<title>Node23</title>
<g id="a_node17"><a xlink:href="../../dd/d5f/serializer_8h.html" target="_top" xlink:title=" ">
<polygon fill="#fff0f0" stroke="red" points="1485.5,-305 1372.5,-305 1372.5,-286 1485.5,-286 1485.5,-305"/>
<text text-anchor="middle" x="1429" y="-293" font-family="Helvetica,sans-Serif" font-size="10.00">includes/serializer.h</text>
</a>
</g>
</g>
<!-- Node20&#45;&gt;Node23 -->
<g id="edge28" class="edge">
<title>Node20&#45;&gt;Node23</title>
<path fill="none" stroke="#63b8ff" d="M1502.79,-346.12C1489.25,-337.01 1467.93,-322.68 1451.68,-311.75"/>
<polygon fill="#63b8ff" stroke="#63b8ff" points="1453.85,-308.99 1443.59,-306.31 1449.94,-314.8 1453.85,-308.99"/>
</g>
<!-- Node23&#45;&gt;Node4 -->
<g id="edge32" class="edge">
<title>Node23&#45;&gt;Node4</title>
<path fill="none" stroke="#63b8ff" d="M1434.03,-285.64C1445.52,-265.61 1474.85,-215.5 1503,-176 1509.48,-166.91 1517.2,-157.23 1523.83,-149.23"/>
<polygon fill="#63b8ff" stroke="#63b8ff" points="1526.48,-151.51 1530.24,-141.61 1521.13,-147.01 1526.48,-151.51"/>
</g>
<!-- Node23&#45;&gt;Node6 -->
<g id="edge31" class="edge">
<title>Node23&#45;&gt;Node6</title>
<path fill="none" stroke="#63b8ff" d="M1477.11,-285.55C1705.52,-243.06 2677.97,-62.14 2886.52,-23.34"/>
<polygon fill="#63b8ff" stroke="#63b8ff" points="2887.11,-26.79 2896.3,-21.52 2885.83,-19.91 2887.11,-26.79"/>
</g>
<!-- Node23&#45;&gt;Node9 -->
<g id="edge30" class="edge">
<title>Node23&#45;&gt;Node9</title>
<path fill="none" stroke="#63b8ff" d="M1443.85,-285.59C1511.48,-245.08 1788.97,-79.64 1832,-66 1918.9,-38.46 2193.87,-22.93 2299.29,-17.86"/>
<polygon fill="#63b8ff" stroke="#63b8ff" points="2299.37,-21.36 2309.2,-17.4 2299.04,-14.37 2299.37,-21.36"/>
</g>
<!-- Node23&#45;&gt;Node14 -->
<g id="edge29" class="edge">
<title>Node23&#45;&gt;Node14</title>
<path fill="none" stroke="#63b8ff" d="M1424.08,-285.81C1415.97,-272.23 1398.52,-245.98 1377,-231 1192.21,-102.34 1117.63,-115.62 898,-66 748.15,-32.15 564.3,-20.71 489.77,-17.3"/>
<polygon fill="#63b8ff" stroke="#63b8ff" points="490.02,-13.81 479.87,-16.87 489.71,-20.8 490.02,-13.81"/>
</g>
<!-- Node23&#45;&gt;Node31 -->
<g id="edge33" class="edge">
<title>Node23&#45;&gt;Node31</title>
<path fill="none" stroke="#63b8ff" d="M1420.8,-285.68C1406.94,-271.4 1377.31,-243.59 1346,-231 1290.72,-208.78 1131.06,-196.36 1031.56,-190.59"/>
<polygon fill="#63b8ff" stroke="#63b8ff" points="1032.03,-187.11 1021.85,-190.03 1031.64,-194.1 1032.03,-187.11"/>
</g>
<!-- Node23&#45;&gt;Node47 -->
<g id="edge37" class="edge">
<title>Node23&#45;&gt;Node47</title>
<path fill="none" stroke="#63b8ff" d="M1403.05,-285.51C1378.13,-276.88 1340.27,-263.76 1312.36,-254.1"/>
<polygon fill="#63b8ff" stroke="#63b8ff" points="1313.85,-250.91 1303.26,-250.94 1311.56,-257.52 1313.85,-250.91"/>
</g>
<!-- Node57 -->
<g id="node20" class="node">
<title>Node57</title>
<g id="a_node20"><a xlink:href="../../d1/d8c/logger_8h.html" target="_top" xlink:title=" ">
<polygon fill="#fff0f0" stroke="red" points="718,-250 598,-250 598,-231 718,-231 718,-250"/>
<text text-anchor="middle" x="658" y="-238" font-family="Helvetica,sans-Serif" font-size="10.00">input_output/logger.h</text>
</a>
</g>
</g>
<!-- Node23&#45;&gt;Node57 -->
<g id="edge42" class="edge">
<title>Node23&#45;&gt;Node57</title>
<path fill="none" stroke="#63b8ff" d="M1372.31,-290.6C1234.39,-281.12 881.58,-256.87 729.51,-246.42"/>
<polygon fill="#63b8ff" stroke="#63b8ff" points="730.21,-242.96 719.99,-245.76 729.73,-249.94 730.21,-242.96"/>
</g>
<!-- Node31&#45;&gt;Node4 -->
<g id="edge36" class="edge">
<title>Node31&#45;&gt;Node4</title>
<path fill="none" stroke="#63b8ff" d="M1020.26,-177.3C1024.91,-176.86 1029.52,-176.42 1034,-176 1194.04,-161.04 1382.75,-144.78 1477.78,-136.68"/>
<polygon fill="#63b8ff" stroke="#63b8ff" points="1477.99,-140.18 1487.66,-135.84 1477.4,-133.2 1477.99,-140.18"/>
</g>
<!-- Node31&#45;&gt;Node9 -->
<g id="edge35" class="edge">
<title>Node31&#45;&gt;Node9</title>
<path fill="none" stroke="#63b8ff" d="M973.02,-175.63C1038.92,-152.7 1223.14,-91.53 1382,-66 1562.86,-36.94 2139.86,-20.93 2299.64,-16.98"/>
<polygon fill="#63b8ff" stroke="#63b8ff" points="2299.41,-20.48 2309.33,-16.74 2299.24,-13.48 2299.41,-20.48"/>
</g>
<!-- Node31&#45;&gt;Node14 -->
<g id="edge34" class="edge">
<title>Node31&#45;&gt;Node14</title>
<path fill="none" stroke="#63b8ff" d="M941.98,-175.75C925.88,-153.13 879.26,-92.62 824,-66 765.16,-37.66 568.96,-22.86 489.68,-17.92"/>
<polygon fill="#63b8ff" stroke="#63b8ff" points="490.13,-14.44 479.93,-17.33 489.7,-21.43 490.13,-14.44"/>
</g>
<!-- Node47&#45;&gt;Node4 -->
<g id="edge40" class="edge">
<title>Node47&#45;&gt;Node4</title>
<path fill="none" stroke="#63b8ff" d="M1289.41,-230.65C1310.08,-217.32 1351.28,-191.96 1389,-176 1421.5,-162.25 1459.64,-151 1489.33,-143.25"/>
<polygon fill="#63b8ff" stroke="#63b8ff" points="1489.98,-146.69 1498.8,-140.83 1488.24,-139.91 1489.98,-146.69"/>
</g>
<!-- Node47&#45;&gt;Node9 -->
<g id="edge39" class="edge">
<title>Node47&#45;&gt;Node9</title>
<path fill="none" stroke="#63b8ff" d="M1283.03,-230.75C1307.77,-200.77 1394.54,-102.01 1492,-66 1568.09,-37.89 2139.14,-21.2 2299.33,-17.03"/>
<polygon fill="#63b8ff" stroke="#63b8ff" points="2299.15,-20.54 2309.06,-16.78 2298.97,-13.54 2299.15,-20.54"/>
</g>
<!-- Node47&#45;&gt;Node14 -->
<g id="edge38" class="edge">
<title>Node47&#45;&gt;Node14</title>
<path fill="none" stroke="#63b8ff" d="M1258.89,-230.51C1202.68,-201.41 1017.93,-109.17 854,-66 722.18,-31.28 559.25,-20.42 489.86,-17.24"/>
<polygon fill="#63b8ff" stroke="#63b8ff" points="490.05,-13.74 479.91,-16.81 489.75,-20.73 490.05,-13.74"/>
</g>
<!-- Node47&#45;&gt;Node31 -->
<g id="edge41" class="edge">
<title>Node47&#45;&gt;Node31</title>
<path fill="none" stroke="#63b8ff" d="M1220.36,-230.51C1163.61,-221.34 1075.53,-207.11 1014.99,-197.32"/>
<polygon fill="#63b8ff" stroke="#63b8ff" points="1015.56,-193.87 1005.13,-195.73 1014.45,-200.78 1015.56,-193.87"/>
</g>
<!-- Node57&#45;&gt;Node9 -->
<g id="edge44" class="edge">
<title>Node57&#45;&gt;Node9</title>
<path fill="none" stroke="#63b8ff" d="M684.14,-230.55C723.46,-217.33 800.34,-192.35 867,-176 1123.51,-113.07 1188.82,-97.92 1451,-66 1776.13,-26.42 2171.97,-18.11 2299.38,-16.42"/>
<polygon fill="#63b8ff" stroke="#63b8ff" points="2299.05,-19.92 2309.01,-16.3 2298.96,-12.92 2299.05,-19.92"/>
</g>
<!-- Node57&#45;&gt;Node13 -->
<g id="edge45" class="edge">
<title>Node57&#45;&gt;Node13</title>
<path fill="none" stroke="#63b8ff" d="M666.7,-230.72C681.38,-216.51 712.65,-188.77 745,-176 880.28,-122.6 1317.74,-91.11 1489.68,-80.53"/>
<polygon fill="#63b8ff" stroke="#63b8ff" points="1489.82,-84.03 1499.59,-79.93 1489.39,-77.04 1489.82,-84.03"/>
</g>
<!-- Node57&#45;&gt;Node14 -->
<g id="edge43" class="edge">
<title>Node57&#45;&gt;Node14</title>
<path fill="none" stroke="#63b8ff" d="M654.3,-230.88C642.26,-203.64 601.75,-118.18 546,-66 529.39,-50.45 507.04,-38 488.77,-29.42"/>
<polygon fill="#63b8ff" stroke="#63b8ff" points="490.22,-26.23 479.67,-25.31 487.35,-32.61 490.22,-26.23"/>
</g>
<!-- Node61&#45;&gt;Node4 -->
<g id="edge50" class="edge">
<title>Node61&#45;&gt;Node4</title>
<path fill="none" stroke="#63b8ff" d="M984.66,-478.1C1002.61,-435.71 1085.82,-253.21 1218,-176 1260.89,-150.95 1397.32,-139.28 1477.85,-134.46"/>
<polygon fill="#63b8ff" stroke="#63b8ff" points="1478.02,-137.95 1487.8,-133.88 1477.61,-130.97 1478.02,-137.95"/>
</g>
<!-- Node61&#45;&gt;Node9 -->
<g id="edge48" class="edge">
<title>Node61&#45;&gt;Node9</title>
<path fill="none" stroke="#63b8ff" d="M1063.84,-479.49C1090.97,-477.2 1121.25,-474.8 1149,-473 1300.33,-463.16 2408.02,-483.23 2510,-371 2548.71,-328.4 2512,-299.06 2512,-241.5 2512,-241.5 2512,-241.5 2512,-129.5 2512,-99.33 2509.69,-86.97 2488,-66 2459.4,-38.34 2414.91,-25.96 2382.37,-20.43"/>
<polygon fill="#63b8ff" stroke="#63b8ff" points="2383.31,-17.03 2372.89,-18.97 2382.25,-23.95 2383.31,-17.03"/>
</g>
<!-- Node61&#45;&gt;Node14 -->
<g id="edge47" class="edge">
<title>Node61&#45;&gt;Node14</title>
<path fill="none" stroke="#63b8ff" d="M973.75,-478.21C959.51,-461.56 926.15,-425.48 890,-407 708.17,-314.06 595.97,-439.14 442,-305 419.25,-285.18 418,-271.67 418,-241.5 418,-241.5 418,-241.5 418,-129.5 418,-94.64 434.32,-56.73 445.57,-34.73"/>
<polygon fill="#63b8ff" stroke="#63b8ff" points="448.54,-36.59 450.16,-26.12 442.37,-33.3 448.54,-36.59"/>
</g>
<!-- Node61&#45;&gt;Node19 -->
<g id="edge51" class="edge">
<title>Node61&#45;&gt;Node19</title>
<path fill="none" stroke="#63b8ff" d="M1031.02,-478.03C1095.46,-466.48 1207.42,-446.41 1276.85,-433.96"/>
<polygon fill="#63b8ff" stroke="#63b8ff" points="1277.32,-437.43 1286.55,-432.22 1276.09,-430.54 1277.32,-437.43"/>
</g>
<!-- Node62 -->
<g id="node22" class="node">
<title>Node62</title>
<g id="a_node22"><a xlink:title=" ">
<polygon fill="#e0e0e0" stroke="#999999" points="881.5,-431.5 824.5,-431.5 824.5,-412.5 881.5,-412.5 881.5,-431.5"/>
<text text-anchor="middle" x="853" y="-419.5" font-family="Helvetica,sans-Serif" font-size="10.00">typeinfo</text>
</a>
</g>
</g>
<!-- Node61&#45;&gt;Node62 -->
<g id="edge49" class="edge">
<title>Node61&#45;&gt;Node62</title>
<path fill="none" stroke="#63b8ff" d="M963.2,-478.1C941.8,-467.4 905.65,-449.33 880.62,-436.81"/>
<polygon fill="#63b8ff" stroke="#63b8ff" points="882.51,-433.84 872,-432.5 879.38,-440.1 882.51,-433.84"/>
</g>
<!-- Node69&#45;&gt;Node4 -->
<g id="edge55" class="edge">
<title>Node69&#45;&gt;Node4</title>
<path fill="none" stroke="#63b8ff" d="M311.97,-901.51C250.59,-857.31 76,-717.33 76,-555 76,-555 76,-555 76,-355 76,-116.04 348.47,-221.82 583,-176 755.42,-142.31 1295.3,-133.92 1477.92,-132.01"/>
<polygon fill="#63b8ff" stroke="#63b8ff" points="1477.7,-135.52 1487.66,-131.91 1477.62,-128.52 1477.7,-135.52"/>
</g>
<!-- Node70 -->
<g id="node24" class="node">
<title>Node70</title>
<g id="a_node24"><a xlink:href="../../dd/dfe/model__part_8h.html" target="_top" xlink:title=" ">
<polygon fill="white" stroke="#666666" points="2156.5,-866 2031.5,-866 2031.5,-847 2156.5,-847 2156.5,-866"/>
<text text-anchor="middle" x="2094" y="-854" font-family="Helvetica,sans-Serif" font-size="10.00">includes/model_part.h</text>
</a>
</g>
</g>
<!-- Node69&#45;&gt;Node70 -->
<g id="edge56" class="edge">
<title>Node69&#45;&gt;Node70</title>
<path fill="none" stroke="#63b8ff" d="M408.39,-913.5C697.42,-903.89 1732.99,-869.49 2019.86,-859.96"/>
<polygon fill="#63b8ff" stroke="#63b8ff" points="2019.97,-863.46 2029.84,-859.63 2019.73,-856.47 2019.97,-863.46"/>
</g>
<!-- Node80 -->
<g id="node29" class="node">
<title>Node80</title>
<g id="a_node29"><a xlink:href="../../d4/d67/geometry_8h.html" target="_top" xlink:title=" ">
<polygon fill="white" stroke="#666666" points="1079,-695.5 949,-695.5 949,-676.5 1079,-676.5 1079,-695.5"/>
<text text-anchor="middle" x="1014" y="-683.5" font-family="Helvetica,sans-Serif" font-size="10.00">geometries/geometry.h</text>
</a>
</g>
</g>
<!-- Node69&#45;&gt;Node80 -->
<g id="edge169" class="edge">
<title>Node69&#45;&gt;Node80</title>
<path fill="none" stroke="#63b8ff" d="M376.12,-901.5C500.62,-859.64 859.25,-739.04 976.45,-699.63"/>
<polygon fill="#63b8ff" stroke="#63b8ff" points="977.54,-702.95 985.9,-696.45 975.31,-696.32 977.54,-702.95"/>
</g>
<!-- Node124 -->
<g id="node45" class="node">
<title>Node124</title>
<g id="a_node45"><a xlink:href="../../da/d42/process_8h.html" target="_top" xlink:title=" ">
<polygon fill="white" stroke="#666666" points="750.5,-695.5 635.5,-695.5 635.5,-676.5 750.5,-676.5 750.5,-695.5"/>
<text text-anchor="middle" x="693" y="-683.5" font-family="Helvetica,sans-Serif" font-size="10.00">processes/process.h</text>
</a>
</g>
</g>
<!-- Node69&#45;&gt;Node124 -->
<g id="edge165" class="edge">
<title>Node69&#45;&gt;Node124</title>
<path fill="none" stroke="#63b8ff" d="M355.79,-901.5C420.35,-860.44 603.97,-743.63 669.45,-701.98"/>
<polygon fill="#63b8ff" stroke="#63b8ff" points="671.07,-705.1 677.63,-696.78 667.31,-699.19 671.07,-705.1"/>
</g>
<!-- Node70&#45;&gt;Node4 -->
<g id="edge61" class="edge">
<title>Node70&#45;&gt;Node4</title>
<path fill="none" stroke="#63b8ff" d="M2131.18,-846.58C2176.18,-833.31 2246,-803.67 2246,-747.5 2246,-747.5 2246,-747.5 2246,-553 2246,-432.94 1968.23,-225.83 1859,-176 1814.13,-155.53 1679.91,-142.19 1600.26,-135.84"/>
<polygon fill="#63b8ff" stroke="#63b8ff" points="1600.68,-132.36 1590.43,-135.07 1600.13,-139.34 1600.68,-132.36"/>
</g>
<!-- Node70&#45;&gt;Node6 -->
<g id="edge59" class="edge">
<title>Node70&#45;&gt;Node6</title>
<path fill="none" stroke="#63b8ff" d="M2156.81,-854.67C2366.56,-851.63 3034.73,-839.76 3127,-811 3177.62,-795.22 3228,-800.52 3228,-747.5 3228,-747.5 3228,-747.5 3228,-421 3228,-339.63 3192,-322.87 3192,-241.5 3192,-241.5 3192,-241.5 3192,-129.5 3192,-32.28 3039.81,-17.19 2965.66,-15.62"/>
<polygon fill="#63b8ff" stroke="#63b8ff" points="2966.03,-12.12 2955.98,-15.49 2965.93,-19.12 2966.03,-12.12"/>
</g>
<!-- Node70&#45;&gt;Node9 -->
<g id="edge58" class="edge">
<title>Node70&#45;&gt;Node9</title>
<path fill="none" stroke="#63b8ff" d="M2156.77,-856.03C2343.26,-857.09 2891.76,-856.14 3064,-811 3124.66,-795.1 3190,-810.21 3190,-747.5 3190,-747.5 3190,-747.5 3190,-421 3190,-183.31 3015.44,-141.33 2790,-66 2714.93,-40.91 2479.14,-24.31 2382.72,-18.4"/>
<polygon fill="#63b8ff" stroke="#63b8ff" points="2383.11,-14.92 2372.91,-17.81 2382.68,-21.9 2383.11,-14.92"/>
</g>
<!-- Node70&#45;&gt;Node14 -->
<g id="edge57" class="edge">
<title>Node70&#45;&gt;Node14</title>
<path fill="none" stroke="#63b8ff" d="M2031.1,-855.16C1753.9,-853.45 648.38,-844.58 497,-811 240.05,-754.01 0,-752.2 0,-489 0,-489 0,-489 0,-129.5 0,-87.5 31.87,-83.62 70,-66 132.5,-37.13 340.04,-22.54 422.15,-17.79"/>
<polygon fill="#63b8ff" stroke="#63b8ff" points="422.24,-21.29 432.03,-17.23 421.85,-14.3 422.24,-21.29"/>
</g>
<!-- Node70&#45;&gt;Node19 -->
<g id="edge163" class="edge">
<title>Node70&#45;&gt;Node19</title>
<path fill="none" stroke="#63b8ff" d="M2031.26,-854.72C1824.25,-851.33 1176,-833.81 1176,-747.5 1176,-747.5 1176,-747.5 1176,-685 1176,-641.34 1206.24,-639.49 1233,-605 1269.35,-558.15 1292.31,-555.95 1319,-503 1328.63,-483.9 1333.49,-459.76 1335.87,-443.02"/>
<polygon fill="#63b8ff" stroke="#63b8ff" points="1339.31,-443.72 1337.06,-433.36 1332.37,-442.86 1339.31,-443.72"/>
</g>
<!-- Node70&#45;&gt;Node20 -->
<g id="edge164" class="edge">
<title>Node70&#45;&gt;Node20</title>
<path fill="none" stroke="#63b8ff" d="M2031.43,-853.11C1909.95,-846.77 1654,-824.29 1654,-747.5 1654,-747.5 1654,-747.5 1654,-553 1654,-473.2 1576.58,-402.98 1537.71,-372.76"/>
<polygon fill="#63b8ff" stroke="#63b8ff" points="1540.03,-370.12 1529.94,-366.87 1535.8,-375.7 1540.03,-370.12"/>
</g>
<!-- Node70&#45;&gt;Node21 -->
<g id="edge60" class="edge">
<title>Node70&#45;&gt;Node21</title>
<path fill="none" stroke="#63b8ff" d="M2156.67,-853.41C2342.24,-846.41 2876,-819.97 2876,-747.5 2876,-747.5 2876,-747.5 2876,-553 2876,-452.76 2851.61,-426.33 2799,-341 2792.7,-330.77 2783.76,-320.9 2775.76,-313.06"/>
<polygon fill="#63b8ff" stroke="#63b8ff" points="2778.4,-310.74 2768.71,-306.47 2773.62,-315.85 2778.4,-310.74"/>
</g>
<!-- Node70&#45;&gt;Node23 -->
<g id="edge62" class="edge">
<title>Node70&#45;&gt;Node23</title>
<path fill="none" stroke="#63b8ff" d="M2031.21,-851.75C1866.74,-841.09 1436,-807.44 1436,-747.5 1436,-747.5 1436,-747.5 1436,-685 1436,-561.42 1449.23,-530.37 1442,-407 1440.14,-375.24 1435.29,-338.62 1432.07,-316.53"/>
<polygon fill="#63b8ff" stroke="#63b8ff" points="1435.56,-316.22 1430.62,-306.85 1428.64,-317.25 1435.56,-316.22"/>
</g>
<!-- Node70&#45;&gt;Node57 -->
<g id="edge160" class="edge">
<title>Node70&#45;&gt;Node57</title>
<path fill="none" stroke="#63b8ff" d="M2031.26,-855.93C1783.73,-857.29 874.64,-858.83 591,-811 510.61,-797.44 488.95,-792.41 416,-756 325.88,-711.02 206.77,-697.34 247,-605 326.39,-422.75 549.46,-296.08 629.21,-255.48"/>
<polygon fill="#63b8ff" stroke="#63b8ff" points="630.76,-258.62 638.12,-251.01 627.62,-252.37 630.76,-258.62"/>
</g>
<!-- Node71 -->
<g id="node25" class="node">
<title>Node71</title>
<g id="a_node25"><a xlink:href="../../de/db8/process__info_8h.html" target="_top" xlink:title=" ">
<polygon fill="#fff0f0" stroke="red" points="2581.5,-629.5 2450.5,-629.5 2450.5,-610.5 2581.5,-610.5 2581.5,-629.5"/>
<text text-anchor="middle" x="2516" y="-617.5" font-family="Helvetica,sans-Serif" font-size="10.00">includes/process_info.h</text>
</a>
</g>
</g>
<!-- Node70&#45;&gt;Node71 -->
<g id="edge63" class="edge">
<title>Node70&#45;&gt;Node71</title>
<path fill="none" stroke="#63b8ff" d="M2156.96,-854.37C2252.62,-851.66 2429.12,-842.42 2483,-811 2535.22,-780.55 2544.31,-758.49 2563,-701 2567.12,-688.32 2567.91,-683.4 2563,-671 2557.69,-657.6 2546.91,-645.7 2537,-636.87"/>
<polygon fill="#63b8ff" stroke="#63b8ff" points="2539.43,-634.34 2529.51,-630.65 2534.96,-639.73 2539.43,-634.34"/>
</g>
<!-- Node72 -->
<g id="node26" class="node">
<title>Node72</title>
<g id="a_node26"><a xlink:href="../../d1/d82/data__value__container_8h.html" target="_top" xlink:title=" ">
<polygon fill="white" stroke="#666666" points="2179.5,-569 2054.5,-569 2054.5,-539 2179.5,-539 2179.5,-569"/>
<text text-anchor="start" x="2062.5" y="-557" font-family="Helvetica,sans-Serif" font-size="10.00">containers/data_value</text>
<text text-anchor="middle" x="2117" y="-546" font-family="Helvetica,sans-Serif" font-size="10.00">_container.h</text>
</a>
</g>
</g>
<!-- Node70&#45;&gt;Node72 -->
<g id="edge78" class="edge">
<title>Node70&#45;&gt;Node72</title>
<path fill="none" stroke="#63b8ff" d="M2094.69,-846.51C2097.75,-806.5 2110.2,-643.87 2115.05,-580.48"/>
<polygon fill="#63b8ff" stroke="#63b8ff" points="2118.53,-580.93 2115.8,-570.69 2111.55,-580.4 2118.53,-580.93"/>
</g>
<!-- Node73 -->
<g id="node27" class="node">
<title>Node73</title>
<g id="a_node27"><a xlink:href="../../d8/d3b/mesh_8h.html" target="_top" xlink:title=" ">
<polygon fill="#fff0f0" stroke="red" points="2218,-756 2122,-756 2122,-737 2218,-737 2218,-756"/>
<text text-anchor="middle" x="2170" y="-744" font-family="Helvetica,sans-Serif" font-size="10.00">includes/mesh.h</text>
</a>
</g>
</g>
<!-- Node70&#45;&gt;Node73 -->
<g id="edge79" class="edge">
<title>Node70&#45;&gt;Node73</title>
<path fill="none" stroke="#63b8ff" d="M2100.22,-846.66C2112.63,-829.02 2140.71,-789.12 2157.21,-765.67"/>
<polygon fill="#63b8ff" stroke="#63b8ff" points="2159.93,-767.89 2162.82,-757.7 2154.21,-763.86 2159.93,-767.89"/>
</g>
<!-- Node77 -->
<g id="node28" class="node">
<title>Node77</title>
<g id="a_node28"><a xlink:href="../../d2/d58/pointer__vector__map_8h.html" target="_top" xlink:title=" ">
<polygon fill="#fff0f0" stroke="red" points="2971.5,-371 2866.5,-371 2866.5,-341 2971.5,-341 2971.5,-371"/>
<text text-anchor="start" x="2874.5" y="-359" font-family="Helvetica,sans-Serif" font-size="10.00">containers/pointer</text>
<text text-anchor="middle" x="2919" y="-348" font-family="Helvetica,sans-Serif" font-size="10.00">_vector_map.h</text>
</a>
</g>
</g>
<!-- Node70&#45;&gt;Node77 -->
<g id="edge158" class="edge">
<title>Node70&#45;&gt;Node77</title>
<path fill="none" stroke="#63b8ff" d="M2156.62,-855.72C2383.9,-855.7 3152,-848.18 3152,-747.5 3152,-747.5 3152,-747.5 3152,-553 3152,-460.3 3042.66,-402.63 2973.78,-375.5"/>
<polygon fill="#63b8ff" stroke="#63b8ff" points="2975.1,-372.25 2964.51,-371.94 2972.6,-378.79 2975.1,-372.25"/>
</g>
<!-- Node90 -->
<g id="node35" class="node">
<title>Node90</title>
<g id="a_node35"><a xlink:href="../../da/da4/master__slave__constraint_8h.html" target="_top" xlink:title=" ">
<polygon fill="#fff0f0" stroke="red" points="2066,-701 1940,-701 1940,-671 2066,-671 2066,-701"/>
<text text-anchor="start" x="1948" y="-689" font-family="Helvetica,sans-Serif" font-size="10.00">includes/master_slave</text>
<text text-anchor="middle" x="2003" y="-678" font-family="Helvetica,sans-Serif" font-size="10.00">_constraint.h</text>
</a>
</g>
</g>
<!-- Node70&#45;&gt;Node90 -->
<g id="edge162" class="edge">
<title>Node70&#45;&gt;Node90</title>
<path fill="none" stroke="#63b8ff" d="M2089.36,-846.91C2075.95,-822.09 2036.79,-749.56 2016.12,-711.29"/>
<polygon fill="#63b8ff" stroke="#63b8ff" points="2019.37,-709.94 2011.54,-702.81 2013.21,-713.27 2019.37,-709.94"/>
</g>
<!-- Node102 -->
<g id="node36" class="node">
<title>Node102</title>
<g id="a_node36"><a xlink:href="../../d0/dac/kratos__flags_8h.html" target="_top" xlink:title=" ">
<polygon fill="#fff0f0" stroke="red" points="1370,-629.5 1242,-629.5 1242,-610.5 1370,-610.5 1370,-629.5"/>
<text text-anchor="middle" x="1306" y="-617.5" font-family="Helvetica,sans-Serif" font-size="10.00">includes/kratos_flags.h</text>
</a>
</g>
</g>
<!-- Node70&#45;&gt;Node102 -->
<g id="edge161" class="edge">
<title>Node70&#45;&gt;Node102</title>
<path fill="none" stroke="#63b8ff" d="M2031.01,-854.61C1873.83,-851.91 1473.29,-842.05 1422,-811 1357.12,-771.72 1323.55,-681.02 1311.41,-640.81"/>
<polygon fill="#63b8ff" stroke="#63b8ff" points="1314.8,-639.96 1308.68,-631.32 1308.08,-641.89 1314.8,-639.96"/>
</g>
<!-- Node103 -->
<g id="node37" class="node">
<title>Node103</title>
<g id="a_node37"><a xlink:href="../../d3/dad/geometry__container_8h.html" target="_top" xlink:title=" ">
<polygon fill="white" stroke="#666666" points="1838,-437 1720,-437 1720,-407 1838,-407 1838,-437"/>
<text text-anchor="start" x="1728" y="-425" font-family="Helvetica,sans-Serif" font-size="10.00">containers/geometry</text>
<text text-anchor="middle" x="1779" y="-414" font-family="Helvetica,sans-Serif" font-size="10.00">_container.h</text>
</a>
</g>
</g>
<!-- Node70&#45;&gt;Node103 -->
<g id="edge124" class="edge">
<title>Node70&#45;&gt;Node103</title>
<path fill="none" stroke="#63b8ff" d="M2038.41,-846.58C1984.88,-834.46 1912,-807.02 1912,-747.5 1912,-747.5 1912,-747.5 1912,-685 1912,-587.34 1837.61,-489.22 1800.1,-445.94"/>
<polygon fill="#63b8ff" stroke="#63b8ff" points="1802.73,-443.63 1793.49,-438.46 1797.49,-448.27 1802.73,-443.63"/>
</g>
<!-- Node104 -->
<g id="node38" class="node">
<title>Node104</title>
<g id="a_node38"><a xlink:href="../../da/d92/pointer__hash__map__set_8h.html" target="_top" xlink:title=" ">
<polygon fill="#fff0f0" stroke="red" points="1761.5,-371 1656.5,-371 1656.5,-341 1761.5,-341 1761.5,-371"/>
<text text-anchor="start" x="1664.5" y="-359" font-family="Helvetica,sans-Serif" font-size="10.00">containers/pointer</text>
<text text-anchor="middle" x="1709" y="-348" font-family="Helvetica,sans-Serif" font-size="10.00">_hash_map_set.h</text>
</a>
</g>
</g>
<!-- Node70&#45;&gt;Node104 -->
<g id="edge159" class="edge">
<title>Node70&#45;&gt;Node104</title>
<path fill="none" stroke="#63b8ff" d="M2031.25,-850.99C1966.23,-842.5 1874,-818.02 1874,-747.5 1874,-747.5 1874,-747.5 1874,-685 1874,-553.1 1750.39,-562.88 1711,-437 1705.48,-419.35 1705.16,-398.44 1706.12,-382.42"/>
<polygon fill="#63b8ff" stroke="#63b8ff" points="1709.58,-383.02 1706.92,-372.76 1702.61,-382.44 1709.58,-383.02"/>
</g>
<!-- Node105 -->
<g id="node39" class="node">
<title>Node105</title>
<g id="a_node39"><a xlink:href="../../d4/dfe/element_8h.html" target="_top" xlink:title=" ">
<polygon fill="#fff0f0" stroke="red" points="2554,-695.5 2444,-695.5 2444,-676.5 2554,-676.5 2554,-695.5"/>
<text text-anchor="middle" x="2499" y="-683.5" font-family="Helvetica,sans-Serif" font-size="10.00">includes/element.h</text>
</a>
</g>
</g>
<!-- Node70&#45;&gt;Node105 -->
<g id="edge129" class="edge">
<title>Node70&#45;&gt;Node105</title>
<path fill="none" stroke="#63b8ff" d="M2156.84,-855.83C2249.12,-855.02 2415.21,-848.24 2460,-811 2490.86,-785.34 2497.67,-735.49 2498.94,-707.45"/>
<polygon fill="#63b8ff" stroke="#63b8ff" points="2502.44,-707.53 2499.17,-697.46 2495.44,-707.37 2502.44,-707.53"/>
</g>
<!-- Node122 -->
<g id="node42" class="node">
<title>Node122</title>
<g id="a_node42"><a xlink:href="../../d7/d6c/condition_8h.html" target="_top" xlink:title=" ">
<polygon fill="#fff0f0" stroke="red" points="2426,-695.5 2312,-695.5 2312,-676.5 2426,-676.5 2426,-695.5"/>
<text text-anchor="middle" x="2369" y="-683.5" font-family="Helvetica,sans-Serif" font-size="10.00">includes/condition.h</text>
</a>
</g>
</g>
<!-- Node70&#45;&gt;Node122 -->
<g id="edge139" class="edge">
<title>Node70&#45;&gt;Node122</title>
<path fill="none" stroke="#63b8ff" d="M2156.62,-847.63C2189.29,-841.39 2228.82,-830.36 2260,-811 2304.28,-783.5 2340.65,-732.49 2358.01,-705.26"/>
<polygon fill="#63b8ff" stroke="#63b8ff" points="2360.8,-707.41 2363.09,-697.06 2354.85,-703.72 2360.8,-707.41"/>
</g>
<!-- Node123 -->
<g id="node43" class="node">
<title>Node123</title>
<g id="a_node43"><a xlink:href="../../d8/d75/communicator_8h.html" target="_top" xlink:title=" ">
<polygon fill="white" stroke="#666666" points="2451.5,-811 2312.5,-811 2312.5,-792 2451.5,-792 2451.5,-811"/>
<text text-anchor="middle" x="2382" y="-799" font-family="Helvetica,sans-Serif" font-size="10.00">includes/communicator.h</text>
</a>
</g>
</g>
<!-- Node70&#45;&gt;Node123 -->
<g id="edge143" class="edge">
<title>Node70&#45;&gt;Node123</title>
<path fill="none" stroke="#63b8ff" d="M2142.86,-846.51C2192.34,-837.4 2268.97,-823.3 2322.09,-813.52"/>
<polygon fill="#63b8ff" stroke="#63b8ff" points="2322.7,-816.97 2331.9,-811.72 2321.43,-810.09 2322.7,-816.97"/>
</g>
<!-- Node107 -->
<g id="node44" class="node">
<title>Node107</title>
<g id="a_node44"><a xlink:href="../../dd/d98/table_8h.html" target="_top" xlink:title=" ">
<polygon fill="white" stroke="#666666" points="614,-497.5 520,-497.5 520,-478.5 614,-478.5 614,-497.5"/>
<text text-anchor="middle" x="567" y="-485.5" font-family="Helvetica,sans-Serif" font-size="10.00">includes/table.h</text>
</a>
</g>
</g>
<!-- Node70&#45;&gt;Node107 -->
<g id="edge152" class="edge">
<title>Node70&#45;&gt;Node107</title>
<path fill="none" stroke="#63b8ff" d="M2031.18,-854.8C1726.81,-850.99 420,-829.84 420,-747.5 420,-747.5 420,-747.5 420,-619 420,-559.8 487.73,-521.07 531.25,-502.3"/>
<polygon fill="#63b8ff" stroke="#63b8ff" points="532.43,-505.59 540.33,-498.53 529.75,-499.13 532.43,-505.59"/>
</g>
<!-- Node71&#45;&gt;Node4 -->
<g id="edge68" class="edge">
<title>Node71&#45;&gt;Node4</title>
<path fill="none" stroke="#63b8ff" d="M2511.36,-610.43C2491.53,-574.34 2410.55,-432.39 2315,-341 2266.76,-294.86 2127.08,-197.82 2064,-176 2053.15,-172.25 1736.02,-146.98 1600,-136.28"/>
<polygon fill="#63b8ff" stroke="#63b8ff" points="1600.33,-132.79 1590.08,-135.5 1599.78,-139.77 1600.33,-132.79"/>
</g>
<!-- Node71&#45;&gt;Node6 -->
<g id="edge66" class="edge">
<title>Node71&#45;&gt;Node6</title>
<path fill="none" stroke="#63b8ff" d="M2566.85,-610.06C2668.11,-589.17 2892.77,-526.59 2981,-371 3045.76,-256.8 2966.83,-90.39 2936.73,-34.84"/>
<polygon fill="#63b8ff" stroke="#63b8ff" points="2939.91,-33.36 2932,-26.31 2933.79,-36.75 2939.91,-33.36"/>
</g>
<!-- Node71&#45;&gt;Node9 -->
<g id="edge65" class="edge">
<title>Node71&#45;&gt;Node9</title>
<path fill="none" stroke="#63b8ff" d="M2528.68,-610.21C2554.34,-591.27 2610,-543.87 2610,-489 2610,-489 2610,-489 2610,-421 2610,-259.36 2653.76,-171.16 2531,-66 2489.3,-30.28 2424.91,-19.71 2382.86,-16.79"/>
<polygon fill="#63b8ff" stroke="#63b8ff" points="2383.05,-13.29 2372.87,-16.22 2382.66,-20.28 2383.05,-13.29"/>
</g>
<!-- Node71&#45;&gt;Node14 -->
<g id="edge64" class="edge">
<title>Node71&#45;&gt;Node14</title>
<path fill="none" stroke="#63b8ff" d="M2450.17,-617.72C2132.55,-611.48 772.17,-583.94 731,-569 710.77,-561.66 712.83,-547.35 693,-539 577.76,-490.51 531.58,-545.51 414,-503 286.66,-456.96 190,-431.9 190,-296.5 190,-296.5 190,-296.5 190,-129.5 190,-29.59 350.72,-16.42 422.3,-15.51"/>
<polygon fill="#63b8ff" stroke="#63b8ff" points="422.28,-19.02 432.26,-15.47 422.25,-12.02 422.28,-19.02"/>
</g>
<!-- Node71&#45;&gt;Node21 -->
<g id="edge67" class="edge">
<title>Node71&#45;&gt;Node21</title>
<path fill="none" stroke="#63b8ff" d="M2549.2,-610.14C2572.54,-602.49 2603.19,-589.39 2624,-569 2700.79,-493.76 2739.71,-365.15 2752.3,-316.2"/>
<polygon fill="#63b8ff" stroke="#63b8ff" points="2755.63,-317.33 2754.64,-306.78 2748.83,-315.65 2755.63,-317.33"/>
</g>
<!-- Node71&#45;&gt;Node72 -->
<g id="edge69" class="edge">
<title>Node71&#45;&gt;Node72</title>
<path fill="none" stroke="#63b8ff" d="M2460.1,-610.03C2389.78,-598.75 2268.82,-579.35 2190.92,-566.86"/>
<polygon fill="#63b8ff" stroke="#63b8ff" points="2191.67,-563.43 2181.24,-565.3 2190.56,-570.34 2191.67,-563.43"/>
</g>
<!-- Node72&#45;&gt;Node4 -->
<g id="edge74" class="edge">
<title>Node72&#45;&gt;Node4</title>
<path fill="none" stroke="#63b8ff" d="M2107.54,-538.81C2064.91,-475.36 1889.08,-218.89 1804,-176 1739.54,-143.5 1656.18,-134.03 1600.32,-131.63"/>
<polygon fill="#63b8ff" stroke="#63b8ff" points="1600.47,-128.13 1590.35,-131.27 1600.22,-135.12 1600.47,-128.13"/>
</g>
<!-- Node72&#45;&gt;Node9 -->
<g id="edge71" class="edge">
<title>Node72&#45;&gt;Node9</title>
<path fill="none" stroke="#63b8ff" d="M2152.74,-538.57C2251.45,-498.54 2521.34,-387.98 2533,-371 2571.49,-314.97 2557.95,-114.17 2510,-66 2476.25,-32.1 2420.7,-20.96 2382.56,-17.42"/>
<polygon fill="#63b8ff" stroke="#63b8ff" points="2383.07,-13.95 2372.83,-16.67 2382.53,-20.93 2383.07,-13.95"/>
</g>
<!-- Node72&#45;&gt;Node13 -->
<g id="edge77" class="edge">
<title>Node72&#45;&gt;Node13</title>
<path fill="none" stroke="#63b8ff" d="M2118.7,-538.5C2124.39,-482.65 2136.86,-279.41 2032,-176 2003.52,-147.92 1754.71,-106.34 1630.26,-87.05"/>
<polygon fill="#63b8ff" stroke="#63b8ff" points="1630.89,-83.6 1620.47,-85.54 1629.82,-90.52 1630.89,-83.6"/>
</g>
<!-- Node72&#45;&gt;Node14 -->
<g id="edge70" class="edge">
<title>Node72&#45;&gt;Node14</title>
<path fill="none" stroke="#63b8ff" d="M2054.05,-551.83C1761.25,-546.26 545.31,-522.06 511,-503 455.2,-472.01 387.9,-312.51 375,-250 368.34,-217.72 368.51,-208.93 370,-176 372.26,-126.11 364.46,-106.99 393,-66 402.85,-51.84 417.86,-39.71 430.76,-30.94"/>
<polygon fill="#63b8ff" stroke="#63b8ff" points="432.32,-34.1 438.82,-25.73 428.52,-28.22 432.32,-34.1"/>
</g>
<!-- Node72&#45;&gt;Node15 -->
<g id="edge73" class="edge">
<title>Node72&#45;&gt;Node15</title>
<path fill="none" stroke="#63b8ff" d="M2179.63,-549.16C2414.55,-533.06 3230,-461.34 3230,-241.5 3230,-241.5 3230,-241.5 3230,-129.5 3230,-92.38 3205.35,-55 3188.47,-33.75"/>
<polygon fill="#63b8ff" stroke="#63b8ff" points="3191.21,-31.57 3182.13,-26.1 3185.82,-36.04 3191.21,-31.57"/>
</g>
<!-- Node72&#45;&gt;Node19 -->
<g id="edge75" class="edge">
<title>Node72&#45;&gt;Node19</title>
<path fill="none" stroke="#63b8ff" d="M2054.24,-542.53C1908.86,-518.26 1550.19,-458.41 1402.82,-433.82"/>
<polygon fill="#63b8ff" stroke="#63b8ff" points="1403.67,-430.41 1393.23,-432.22 1402.52,-437.31 1403.67,-430.41"/>
</g>
<!-- Node72&#45;&gt;Node21 -->
<g id="edge72" class="edge">
<title>Node72&#45;&gt;Node21</title>
<path fill="none" stroke="#63b8ff" d="M2179.8,-539.2C2258.7,-520.79 2397.4,-484.89 2510,-437 2597.03,-399.99 2692.22,-339.63 2734.55,-311.64"/>
<polygon fill="#63b8ff" stroke="#63b8ff" points="2736.26,-314.7 2742.65,-306.24 2732.38,-308.87 2736.26,-314.7"/>
</g>
<!-- Node72&#45;&gt;Node61 -->
<g id="edge76" class="edge">
<title>Node72&#45;&gt;Node61</title>
<path fill="none" stroke="#63b8ff" d="M2054.11,-550.44C1899.81,-544.01 1490.25,-526.03 1149,-503 1125.05,-501.38 1099.21,-499.37 1075.14,-497.37"/>
<polygon fill="#63b8ff" stroke="#63b8ff" points="1075.61,-493.9 1065.36,-496.55 1075.03,-500.87 1075.61,-493.9"/>
</g>
<!-- Node73&#45;&gt;Node4 -->
<g id="edge84" class="edge">
<title>Node73&#45;&gt;Node4</title>
<path fill="none" stroke="#63b8ff" d="M2163.92,-736.75C2127.89,-685.24 1937.54,-417.38 1747,-231 1720.67,-205.24 1717.13,-194.01 1685,-176 1657.88,-160.8 1624.95,-150.19 1597.23,-143.15"/>
<polygon fill="#63b8ff" stroke="#63b8ff" points="1598.11,-139.76 1587.57,-140.8 1596.46,-146.56 1598.11,-139.76"/>
</g>
<!-- Node73&#45;&gt;Node6 -->
<g id="edge82" class="edge">
<title>Node73&#45;&gt;Node6</title>
<path fill="none" stroke="#63b8ff" d="M2218.34,-745.93C2345.13,-746.44 2684.5,-743.66 2787,-701 2951.9,-632.37 3016.02,-599.57 3090,-437 3126.05,-357.77 3078,-328.55 3078,-241.5 3078,-241.5 3078,-241.5 3078,-129.5 3078,-73.18 3010.17,-41.46 2965.14,-26.6"/>
<polygon fill="#63b8ff" stroke="#63b8ff" points="2966.27,-23.29 2955.68,-23.64 2964.17,-29.97 2966.27,-23.29"/>
</g>
<!-- Node73&#45;&gt;Node9 -->
<g id="edge81" class="edge">
<title>Node73&#45;&gt;Node9</title>
<path fill="none" stroke="#63b8ff" d="M2218.35,-745.06C2310.32,-743.41 2506.3,-735.79 2563,-701 2622.89,-664.25 2629.82,-636.3 2650,-569 2707.54,-377.14 2704.14,-292.7 2601,-121 2584.74,-93.93 2582.81,-82.69 2556,-66 2502.28,-32.56 2428.41,-21.46 2382.73,-17.79"/>
<polygon fill="#63b8ff" stroke="#63b8ff" points="2383.21,-14.31 2372.99,-17.09 2382.71,-21.29 2383.21,-14.31"/>
</g>
<!-- Node73&#45;&gt;Node14 -->
<g id="edge80" class="edge">
<title>Node73&#45;&gt;Node14</title>
<path fill="none" stroke="#63b8ff" d="M2121.51,-745.17C1893.47,-743.46 926.18,-734.34 626,-701 556.7,-693.3 540.66,-683.18 472,-671 372.28,-653.32 336.1,-683.13 247,-635 208.39,-614.14 114,-532.89 114,-489 114,-489 114,-489 114,-129.5 114,-64.97 336.09,-30.74 422.33,-19.88"/>
<polygon fill="#63b8ff" stroke="#63b8ff" points="422.56,-23.37 432.06,-18.68 421.71,-16.43 422.56,-23.37"/>
</g>
<!-- Node73&#45;&gt;Node21 -->
<g id="edge83" class="edge">
<title>Node73&#45;&gt;Node21</title>
<path fill="none" stroke="#63b8ff" d="M2218.35,-744.08C2338.57,-740.18 2643.99,-727.7 2681,-701 2762.8,-641.98 2762,-589.87 2762,-489 2762,-489 2762,-489 2762,-421 2762,-384.14 2759.79,-341.2 2758.3,-316.6"/>
<polygon fill="#63b8ff" stroke="#63b8ff" points="2761.81,-316.52 2757.69,-306.76 2754.82,-316.96 2761.81,-316.52"/>
</g>
<!-- Node73&#45;&gt;Node72 -->
<g id="edge116" class="edge">
<title>Node73&#45;&gt;Node72</title>
<path fill="none" stroke="#63b8ff" d="M2169.58,-736.67C2168.27,-714.1 2163.27,-652.7 2146,-605 2142.77,-596.08 2137.97,-586.92 2133.2,-578.93"/>
<polygon fill="#63b8ff" stroke="#63b8ff" points="2136.17,-577.08 2127.89,-570.48 2130.25,-580.81 2136.17,-577.08"/>
</g>
<!-- Node73&#45;&gt;Node77 -->
<g id="edge85" class="edge">
<title>Node73&#45;&gt;Node77</title>
<path fill="none" stroke="#63b8ff" d="M2218.12,-744.6C2350.47,-741.76 2713.07,-731.26 2757,-701 2868.85,-623.96 2905.55,-448.56 2915.65,-382.66"/>
<polygon fill="#63b8ff" stroke="#63b8ff" points="2919.11,-383.24 2917.07,-372.84 2912.18,-382.24 2919.11,-383.24"/>
</g>
<!-- Node73&#45;&gt;Node80 -->
<g id="edge92" class="edge">
<title>Node73&#45;&gt;Node80</title>
<path fill="none" stroke="#63b8ff" d="M2121.8,-743.06C1942.23,-733.97 1311.16,-702.04 1090.7,-690.88"/>
<polygon fill="#63b8ff" stroke="#63b8ff" points="1090.94,-687.39 1080.78,-690.38 1090.59,-694.38 1090.94,-687.39"/>
</g>
<!-- Node73&#45;&gt;Node90 -->
<g id="edge117" class="edge">
<title>Node73&#45;&gt;Node90</title>
<path fill="none" stroke="#63b8ff" d="M2144.64,-736.62C2120.91,-728.3 2084.74,-715.63 2054.9,-705.18"/>
<polygon fill="#63b8ff" stroke="#63b8ff" points="2056.24,-701.94 2045.65,-701.94 2053.93,-708.55 2056.24,-701.94"/>
</g>
<!-- Node77&#45;&gt;Node4 -->
<g id="edge91" class="edge">
<title>Node77&#45;&gt;Node4</title>
<path fill="none" stroke="#63b8ff" d="M2895.39,-340.61C2865.05,-322.38 2813.82,-292.54 2793,-286 2650.98,-241.39 2606.71,-275.23 2460,-250 2319.55,-225.85 2288.85,-197.71 2148,-176 1948.9,-145.32 1709.83,-135.67 1599.83,-132.73"/>
<polygon fill="#63b8ff" stroke="#63b8ff" points="1600.24,-129.24 1590.15,-132.48 1600.06,-136.24 1600.24,-129.24"/>
</g>
<!-- Node77&#45;&gt;Node6 -->
<g id="edge89" class="edge">
<title>Node77&#45;&gt;Node6</title>
<path fill="none" stroke="#63b8ff" d="M2920.45,-340.68C2922.5,-319.18 2926,-277.23 2926,-241.5 2926,-241.5 2926,-241.5 2926,-129.5 2926,-96.89 2926,-59 2926,-36.29"/>
<polygon fill="#63b8ff" stroke="#63b8ff" points="2929.5,-36.34 2926,-26.34 2922.5,-36.34 2929.5,-36.34"/>
</g>
<!-- Node77&#45;&gt;Node9 -->
<g id="edge88" class="edge">
<title>Node77&#45;&gt;Node9</title>
<path fill="none" stroke="#63b8ff" d="M2914.62,-340.74C2899,-292.5 2840.99,-134.61 2732,-66 2674.55,-29.84 2471.34,-19.7 2382.78,-16.96"/>
<polygon fill="#63b8ff" stroke="#63b8ff" points="2382.92,-13.47 2372.83,-16.67 2382.72,-20.46 2382.92,-13.47"/>
</g>
<!-- Node77&#45;&gt;Node14 -->
<g id="edge87" class="edge">
<title>Node77&#45;&gt;Node14</title>
<path fill="none" stroke="#63b8ff" d="M2904.28,-340.57C2887.03,-324.56 2856.86,-299.22 2826,-286 2562.32,-173.03 2473.66,-218.74 2190,-176 1735.19,-107.48 1619.43,-103.23 1161,-66 902.74,-45.03 590.86,-24.63 489.53,-18.13"/>
<polygon fill="#63b8ff" stroke="#63b8ff" points="489.95,-14.65 479.75,-17.51 489.5,-21.64 489.95,-14.65"/>
</g>
<!-- Node77&#45;&gt;Node15 -->
<g id="edge86" class="edge">
<title>Node77&#45;&gt;Node15</title>
<path fill="none" stroke="#63b8ff" d="M2929.59,-340.87C2970.06,-286.85 3114.92,-93.51 3159.71,-33.74"/>
<polygon fill="#63b8ff" stroke="#63b8ff" points="3162.34,-36.07 3165.53,-25.97 3156.73,-31.87 3162.34,-36.07"/>
</g>
<!-- Node77&#45;&gt;Node21 -->
<g id="edge90" class="edge">
<title>Node77&#45;&gt;Node21</title>
<path fill="none" stroke="#63b8ff" d="M2878.96,-340.54C2852.35,-330.93 2817.74,-318.43 2792.19,-309.21"/>
<polygon fill="#63b8ff" stroke="#63b8ff" points="2793.51,-305.96 2782.92,-305.86 2791.14,-312.55 2793.51,-305.96"/>
</g>
<!-- Node80&#45;&gt;Node57 -->
<g id="edge111" class="edge">
<title>Node80&#45;&gt;Node57</title>
<path fill="none" stroke="#63b8ff" d="M948.75,-682.45C848.51,-677.64 661.99,-664.88 603,-635 567.1,-616.81 563.4,-602.43 541,-569 516.12,-531.87 500.47,-516.44 511,-473 533.06,-382.01 550.27,-359.71 608,-286 616.28,-275.43 627.26,-265.34 636.83,-257.45"/>
<polygon fill="#63b8ff" stroke="#63b8ff" points="638.93,-260.25 644.58,-251.29 634.57,-254.77 638.93,-260.25"/>
</g>
<!-- Node80&#45;&gt;Node62 -->
<g id="edge93" class="edge">
<title>Node80&#45;&gt;Node62</title>
<path fill="none" stroke="#63b8ff" d="M1007.16,-676.28C987.3,-650.68 928.46,-573.16 889,-503 877.71,-482.92 867.19,-458.63 860.47,-442.13"/>
<polygon fill="#63b8ff" stroke="#63b8ff" points="863.81,-441.05 856.86,-433.06 857.31,-443.64 863.81,-441.05"/>
</g>
<!-- Node80&#45;&gt;Node72 -->
<g id="edge107" class="edge">
<title>Node80&#45;&gt;Node72</title>
<path fill="none" stroke="#63b8ff" d="M1079.28,-685.3C1216.71,-684.98 1545.58,-679.19 1817,-635 1904.65,-620.73 2003.73,-591.69 2063.23,-572.81"/>
<polygon fill="#63b8ff" stroke="#63b8ff" points="2063.97,-576.25 2072.43,-569.87 2061.83,-569.58 2063.97,-576.25"/>
</g>
<!-- Node81 -->
<g id="node30" class="node">
<title>Node81</title>
<g id="a_node30"><a xlink:href="../../d1/dbc/geometry__data_8h.html" target="_top" xlink:title=" ">
<polygon fill="#fff0f0" stroke="red" points="684,-569 562,-569 562,-539 684,-539 684,-569"/>
<text text-anchor="start" x="570" y="-557" font-family="Helvetica,sans-Serif" font-size="10.00">geometries/geometry</text>
<text text-anchor="middle" x="623" y="-546" font-family="Helvetica,sans-Serif" font-size="10.00">_data.h</text>
</a>
</g>
</g>
<!-- Node80&#45;&gt;Node81 -->
<g id="edge94" class="edge">
<title>Node80&#45;&gt;Node81</title>
<path fill="none" stroke="#63b8ff" d="M987.12,-676.06C923.41,-654.88 762.16,-601.27 677.23,-573.03"/>
<polygon fill="#63b8ff" stroke="#63b8ff" points="678.55,-569.78 667.95,-569.95 676.34,-576.42 678.55,-569.78"/>
</g>
<!-- Node83 -->
<g id="node31" class="node">
<title>Node83</title>
<g id="a_node31"><a xlink:href="../../d2/d91/point_8h.html" target="_top" xlink:title=" ">
<polygon fill="white" stroke="#666666" points="1337.5,-365.5 1228.5,-365.5 1228.5,-346.5 1337.5,-346.5 1337.5,-365.5"/>
<text text-anchor="middle" x="1283" y="-353.5" font-family="Helvetica,sans-Serif" font-size="10.00">geometries/point.h</text>
</a>
</g>
</g>
<!-- Node80&#45;&gt;Node83 -->
<g id="edge96" class="edge">
<title>Node80&#45;&gt;Node83</title>
<path fill="none" stroke="#63b8ff" d="M1042.05,-676.11C1106.6,-654.6 1268.38,-594.7 1376,-503 1403.81,-479.3 1413.53,-471.69 1425,-437 1429.19,-424.34 1432.7,-417.88 1425,-407 1407.6,-382.43 1377.1,-369.84 1348.82,-363.44"/>
<polygon fill="#63b8ff" stroke="#63b8ff" points="1349.69,-360.04 1339.19,-361.5 1348.3,-366.9 1349.69,-360.04"/>
</g>
<!-- Node86 -->
<g id="node32" class="node">
<title>Node86</title>
<g id="a_node32"><a xlink:href="../../d4/df9/pointer__vector_8h.html" target="_top" xlink:title=" ">
<polygon fill="#fff0f0" stroke="red" points="2467.5,-371 2362.5,-371 2362.5,-341 2467.5,-341 2467.5,-371"/>
<text text-anchor="start" x="2370.5" y="-359" font-family="Helvetica,sans-Serif" font-size="10.00">containers/pointer</text>
<text text-anchor="middle" x="2415" y="-348" font-family="Helvetica,sans-Serif" font-size="10.00">_vector.h</text>
</a>
</g>
</g>
<!-- Node80&#45;&gt;Node86 -->
<g id="edge100" class="edge">
<title>Node80&#45;&gt;Node86</title>
<path fill="none" stroke="#63b8ff" d="M1079.35,-684.97C1296.82,-683.87 1993.36,-672.19 2188,-569 2280.1,-520.17 2362.55,-424.2 2397.4,-380.12"/>
<polygon fill="#63b8ff" stroke="#63b8ff" points="2399.96,-382.53 2403.36,-372.49 2394.45,-378.22 2399.96,-382.53"/>
</g>
<!-- Node87 -->
<g id="node33" class="node">
<title>Node87</title>
<g id="a_node33"><a xlink:href="../../d8/d88/math__utils_8h.html" target="_top" xlink:title=" ">
<polygon fill="#fff0f0" stroke="red" points="829.5,-305 712.5,-305 712.5,-286 829.5,-286 829.5,-305"/>
<text text-anchor="middle" x="771" y="-293" font-family="Helvetica,sans-Serif" font-size="10.00">utilities/math_utils.h</text>
</a>
</g>
</g>
<!-- Node80&#45;&gt;Node87 -->
<g id="edge108" class="edge">
<title>Node80&#45;&gt;Node87</title>
<path fill="none" stroke="#63b8ff" d="M948.63,-678.5C833.04,-665.49 600.25,-631.95 553,-569 512.53,-515.09 622.01,-504.2 623,-503 670.42,-445.1 619.76,-397.37 669,-341 682.06,-326.05 701.07,-315.93 719.15,-309.17"/>
<polygon fill="#63b8ff" stroke="#63b8ff" points="720.17,-312.52 728.5,-305.97 717.9,-305.9 720.17,-312.52"/>
</g>
<!-- Node89 -->
<g id="node34" class="node">
<title>Node89</title>
<g id="a_node34"><a xlink:href="../../d0/d33/integration__info_8h.html" target="_top" xlink:title=" ">
<polygon fill="#fff0f0" stroke="red" points="1808,-635 1682,-635 1682,-605 1808,-605 1808,-635"/>
<text text-anchor="start" x="1690" y="-623" font-family="Helvetica,sans-Serif" font-size="10.00">integration/integration</text>
<text text-anchor="middle" x="1745" y="-612" font-family="Helvetica,sans-Serif" font-size="10.00">_info.h</text>
</a>
</g>
</g>
<!-- Node80&#45;&gt;Node89 -->
<g id="edge112" class="edge">
<title>Node80&#45;&gt;Node89</title>
<path fill="none" stroke="#63b8ff" d="M1079.25,-680.71C1192.35,-673.05 1432.06,-655.87 1634,-635 1645.83,-633.78 1658.36,-632.34 1670.57,-630.86"/>
<polygon fill="#63b8ff" stroke="#63b8ff" points="1670.66,-634.37 1680.16,-629.67 1669.81,-627.42 1670.66,-634.37"/>
</g>
<!-- Node81&#45;&gt;Node31 -->
<g id="edge95" class="edge">
<title>Node81&#45;&gt;Node31</title>
<path fill="none" stroke="#63b8ff" d="M635.13,-538.66C673.78,-493.04 797.83,-347.48 905,-231 913.55,-221.71 923.31,-211.57 931.37,-203.32"/>
<polygon fill="#63b8ff" stroke="#63b8ff" points="933.73,-205.91 938.24,-196.32 928.74,-201 933.73,-205.91"/>
</g>
<!-- Node83&#45;&gt;Node4 -->
<g id="edge97" class="edge">
<title>Node83&#45;&gt;Node4</title>
<path fill="none" stroke="#63b8ff" d="M1293.15,-346.02C1322.85,-319.74 1412.22,-240.8 1487,-176 1497.89,-166.57 1510.13,-156.08 1520,-147.67"/>
<polygon fill="#63b8ff" stroke="#63b8ff" points="1522.11,-150.46 1527.46,-141.31 1517.57,-145.13 1522.11,-150.46"/>
</g>
<!-- Node83&#45;&gt;Node23 -->
<g id="edge99" class="edge">
<title>Node83&#45;&gt;Node23</title>
<path fill="none" stroke="#63b8ff" d="M1305.17,-346.12C1329.4,-336.41 1368.45,-320.76 1396.22,-309.64"/>
<polygon fill="#63b8ff" stroke="#63b8ff" points="1397.23,-313 1405.21,-306.03 1394.63,-306.5 1397.23,-313"/>
</g>
<!-- Node83&#45;&gt;Node47 -->
<g id="edge98" class="edge">
<title>Node83&#45;&gt;Node47</title>
<path fill="none" stroke="#63b8ff" d="M1282.45,-346.09C1281.34,-328.03 1278.79,-286.67 1277.25,-261.71"/>
<polygon fill="#63b8ff" stroke="#63b8ff" points="1280.75,-261.64 1276.64,-251.88 1273.76,-262.07 1280.75,-261.64"/>
</g>
<!-- Node86&#45;&gt;Node4 -->
<g id="edge105" class="edge">
<title>Node86&#45;&gt;Node4</title>
<path fill="none" stroke="#63b8ff" d="M2394.38,-340.57C2359.62,-316.51 2286.81,-267.28 2222,-231 2172.91,-203.52 2162.31,-190.67 2108,-176 2013.61,-150.51 1726.63,-137.87 1600.07,-133.42"/>
<polygon fill="#63b8ff" stroke="#63b8ff" points="1600.32,-129.93 1590.21,-133.08 1600.08,-136.93 1600.32,-129.93"/>
</g>
<!-- Node86&#45;&gt;Node6 -->
<g id="edge103" class="edge">
<title>Node86&#45;&gt;Node6</title>
<path fill="none" stroke="#63b8ff" d="M2431.72,-340.81C2485.15,-295.96 2657.65,-154.99 2818,-66 2842.88,-52.19 2872.25,-38.77 2894.08,-29.31"/>
<polygon fill="#63b8ff" stroke="#63b8ff" points="2895.23,-32.63 2903.05,-25.47 2892.47,-26.19 2895.23,-32.63"/>
</g>
<!-- Node86&#45;&gt;Node9 -->
<g id="edge102" class="edge">
<title>Node86&#45;&gt;Node9</title>
<path fill="none" stroke="#63b8ff" d="M2415.16,-340.62C2415.17,-297.48 2411.88,-165.99 2374,-66 2369.66,-54.55 2362.34,-43.06 2355.69,-33.99"/>
<polygon fill="#63b8ff" stroke="#63b8ff" points="2358.48,-31.87 2349.59,-26.1 2352.94,-36.15 2358.48,-31.87"/>
</g>
<!-- Node86&#45;&gt;Node14 -->
<g id="edge101" class="edge">
<title>Node86&#45;&gt;Node14</title>
<path fill="none" stroke="#63b8ff" d="M2401.75,-340.55C2387.9,-325.88 2365.12,-302.96 2343,-286 2264.02,-225.47 2243.26,-204.74 2148,-176 2065.39,-151.08 720.81,-38.09 489.69,-18.8"/>
<polygon fill="#63b8ff" stroke="#63b8ff" points="490.13,-15.33 479.87,-17.99 489.55,-22.31 490.13,-15.33"/>
</g>
<!-- Node86&#45;&gt;Node15 -->
<g id="edge104" class="edge">
<title>Node86&#45;&gt;Node15</title>
<path fill="none" stroke="#63b8ff" d="M2441.63,-340.66C2538.81,-288.46 2874.58,-109.41 2988,-66 3038.97,-46.49 3100.57,-31.46 3138.26,-23.17"/>
<polygon fill="#63b8ff" stroke="#63b8ff" points="3138.63,-26.67 3147.67,-21.14 3137.16,-19.83 3138.63,-26.67"/>
</g>
<!-- Node86&#45;&gt;Node23 -->
<g id="edge106" class="edge">
<title>Node86&#45;&gt;Node23</title>
<path fill="none" stroke="#63b8ff" d="M2362.17,-346.71C2346.97,-344.57 2330.36,-342.46 2315,-341 2010.72,-312.12 1645.76,-301.27 1497.05,-297.86"/>
<polygon fill="#63b8ff" stroke="#63b8ff" points="1497.47,-294.36 1487.39,-297.64 1497.31,-301.36 1497.47,-294.36"/>
</g>
<!-- Node87&#45;&gt;Node31 -->
<g id="edge110" class="edge">
<title>Node87&#45;&gt;Node31</title>
<path fill="none" stroke="#63b8ff" d="M779.57,-285.76C792.85,-272.58 819.64,-247.41 846,-231 866.62,-218.16 891.58,-207.2 911.66,-199.37"/>
<polygon fill="#63b8ff" stroke="#63b8ff" points="912.72,-202.71 920.83,-195.89 910.24,-196.16 912.72,-202.71"/>
</g>
<!-- Node87&#45;&gt;Node57 -->
<g id="edge109" class="edge">
<title>Node87&#45;&gt;Node57</title>
<path fill="none" stroke="#63b8ff" d="M751.83,-285.51C734.11,-277.2 707.52,-264.73 687.17,-255.18"/>
<polygon fill="#63b8ff" stroke="#63b8ff" points="688.8,-252.08 678.26,-251 685.82,-258.42 688.8,-252.08"/>
</g>
<!-- Node89&#45;&gt;Node4 -->
<g id="edge113" class="edge">
<title>Node89&#45;&gt;Node4</title>
<path fill="none" stroke="#63b8ff" d="M1739.12,-604.52C1723.68,-566.41 1680.84,-460.16 1647,-371 1614.27,-284.77 1621.94,-255.98 1576,-176 1570.39,-166.23 1562.59,-156.48 1555.61,-148.61"/>
<polygon fill="#63b8ff" stroke="#63b8ff" points="1558.34,-146.42 1548.98,-141.45 1553.21,-151.17 1558.34,-146.42"/>
</g>
<!-- Node89&#45;&gt;Node72 -->
<g id="edge115" class="edge">
<title>Node89&#45;&gt;Node72</title>
<path fill="none" stroke="#63b8ff" d="M1808.44,-607.4C1813.03,-606.58 1817.58,-605.78 1822,-605 1897.22,-591.79 1983.34,-577.26 2043.03,-567.28"/>
<polygon fill="#63b8ff" stroke="#63b8ff" points="2043.46,-570.76 2052.74,-565.66 2042.3,-563.86 2043.46,-570.76"/>
</g>
<!-- Node89&#45;&gt;Node81 -->
<g id="edge114" class="edge">
<title>Node89&#45;&gt;Node81</title>
<path fill="none" stroke="#63b8ff" d="M1681.7,-610.05C1666.13,-608.12 1649.49,-606.27 1634,-605 1219.09,-570.92 1111.72,-615.32 698,-569 697.16,-568.91 696.32,-568.81 695.47,-568.71"/>
<polygon fill="#63b8ff" stroke="#63b8ff" points="696.16,-565.27 685.79,-567.4 695.23,-572.21 696.16,-565.27"/>
</g>
<!-- Node90&#45;&gt;Node4 -->
<g id="edge118" class="edge">
<title>Node90&#45;&gt;Node4</title>
<path fill="none" stroke="#63b8ff" d="M1997.67,-670.52C1971.98,-602.8 1854.04,-314.79 1658,-176 1637.19,-161.27 1610.91,-150.77 1588.35,-143.68"/>
<polygon fill="#63b8ff" stroke="#63b8ff" points="1589.64,-140.41 1579.06,-140.91 1587.64,-147.12 1589.64,-140.41"/>
</g>
<!-- Node90&#45;&gt;Node19 -->
<g id="edge122" class="edge">
<title>Node90&#45;&gt;Node19</title>
<path fill="none" stroke="#63b8ff" d="M1939.51,-682.53C1803.85,-676.79 1494.79,-661 1455,-635 1445.84,-629.01 1374.16,-492.48 1347.74,-441.75"/>
<polygon fill="#63b8ff" stroke="#63b8ff" points="1350.98,-440.41 1343.26,-433.15 1344.77,-443.64 1350.98,-440.41"/>
</g>
<!-- Node90&#45;&gt;Node71 -->
<g id="edge123" class="edge">
<title>Node90&#45;&gt;Node71</title>
<path fill="none" stroke="#63b8ff" d="M2066.42,-677.09C2160.63,-665.33 2337.34,-643.29 2438.9,-630.62"/>
<polygon fill="#63b8ff" stroke="#63b8ff" points="2439.31,-634.1 2448.8,-629.38 2438.44,-627.15 2439.31,-634.1"/>
</g>
<!-- Node90&#45;&gt;Node102 -->
<g id="edge119" class="edge">
<title>Node90&#45;&gt;Node102</title>
<path fill="none" stroke="#63b8ff" d="M1939.52,-681.91C1827.17,-675.98 1586.08,-661.23 1384,-635 1377.19,-634.12 1370.07,-633.04 1363.01,-631.89"/>
<polygon fill="#63b8ff" stroke="#63b8ff" points="1363.6,-628.44 1353.16,-630.22 1362.43,-635.34 1363.6,-628.44"/>
</g>
<!-- Node102&#45;&gt;Node4 -->
<g id="edge120" class="edge">
<title>Node102&#45;&gt;Node4</title>
<path fill="none" stroke="#63b8ff" d="M1322.78,-610.01C1372.38,-582.36 1518.09,-492.97 1571,-371 1604.19,-294.48 1566.52,-192.34 1548.04,-150.54"/>
<polygon fill="#63b8ff" stroke="#63b8ff" points="1551.29,-149.23 1543.94,-141.6 1544.92,-152.14 1551.29,-149.23"/>
</g>
<!-- Node102&#45;&gt;Node61 -->
<g id="edge121" class="edge">
<title>Node102&#45;&gt;Node61</title>
<path fill="none" stroke="#63b8ff" d="M1257.83,-610.05C1218.91,-601.94 1163.21,-588.27 1117,-569 1074.37,-551.22 1028.9,-522.15 1002.82,-504.38"/>
<polygon fill="#63b8ff" stroke="#63b8ff" points="1004.97,-501.62 994.76,-498.82 1001,-507.38 1004.97,-501.62"/>
</g>
<!-- Node103&#45;&gt;Node4 -->
<g id="edge125" class="edge">
<title>Node103&#45;&gt;Node4</title>
<path fill="none" stroke="#63b8ff" d="M1779.78,-406.51C1780.13,-390 1779.07,-362.51 1770,-341 1765.4,-330.09 1644.36,-183.26 1635,-176 1617.65,-162.54 1595.57,-151.95 1576.96,-144.48"/>
<polygon fill="#63b8ff" stroke="#63b8ff" points="1578.47,-141.31 1567.88,-140.99 1575.96,-147.85 1578.47,-141.31"/>
</g>
<!-- Node103&#45;&gt;Node104 -->
<g id="edge126" class="edge">
<title>Node103&#45;&gt;Node104</title>
<path fill="none" stroke="#63b8ff" d="M1763.46,-406.8C1754.49,-398.59 1743.02,-388.1 1732.92,-378.87"/>
<polygon fill="#63b8ff" stroke="#63b8ff" points="1735.35,-376.35 1725.61,-372.19 1730.63,-381.52 1735.35,-376.35"/>
</g>
<!-- Node104&#45;&gt;Node4 -->
<g id="edge127" class="edge">
<title>Node104&#45;&gt;Node4</title>
<path fill="none" stroke="#63b8ff" d="M1702.65,-340.73C1685.73,-303.12 1639.13,-202.35 1614,-176 1601.81,-163.21 1585.15,-152.84 1570.63,-145.33"/>
<polygon fill="#63b8ff" stroke="#63b8ff" points="1572.41,-142.31 1561.89,-141.05 1569.33,-148.59 1572.41,-142.31"/>
</g>
<!-- Node104&#45;&gt;Node23 -->
<g id="edge128" class="edge">
<title>Node104&#45;&gt;Node23</title>
<path fill="none" stroke="#63b8ff" d="M1656,-343.93C1606.44,-333.57 1532.76,-318.18 1482.9,-307.76"/>
<polygon fill="#63b8ff" stroke="#63b8ff" points="1483.69,-304.35 1473.19,-305.73 1482.26,-311.2 1483.69,-304.35"/>
</g>
<!-- Node105&#45;&gt;Node71 -->
<g id="edge130" class="edge">
<title>Node105&#45;&gt;Node71</title>
<path fill="none" stroke="#63b8ff" d="M2501.36,-676.1C2503.77,-667.03 2507.59,-652.64 2510.73,-640.85"/>
<polygon fill="#63b8ff" stroke="#63b8ff" points="2514.08,-641.85 2513.27,-631.29 2507.32,-640.05 2514.08,-641.85"/>
</g>
<!-- Node118 -->
<g id="node40" class="node">
<title>Node118</title>
<g id="a_node40"><a xlink:href="../../db/d71/kratos__parameters_8h.html" target="_top" xlink:title=" ">
<polygon fill="#fff0f0" stroke="red" points="1625.5,-629.5 1464.5,-629.5 1464.5,-610.5 1625.5,-610.5 1625.5,-629.5"/>
<text text-anchor="middle" x="1545" y="-617.5" font-family="Helvetica,sans-Serif" font-size="10.00">includes/kratos_parameters.h</text>
</a>
</g>
</g>
<!-- Node105&#45;&gt;Node118 -->
<g id="edge131" class="edge">
<title>Node105&#45;&gt;Node118</title>
<path fill="none" stroke="#63b8ff" d="M2462.97,-676.01C2453.89,-674.05 2444.13,-672.21 2435,-671 2098.87,-626.62 2011.01,-661.44 1673,-635 1659.46,-633.94 1645.14,-632.6 1631.16,-631.16"/>
<polygon fill="#63b8ff" stroke="#63b8ff" points="1631.87,-627.72 1621.56,-630.15 1631.14,-634.68 1631.87,-627.72"/>
</g>
<!-- Node99 -->
<g id="node41" class="node">
<title>Node99</title>
<g id="a_node41"><a xlink:href="../../de/d44/global__pointers__vector_8h.html" target="_top" xlink:title=" ">
<polygon fill="#fff0f0" stroke="red" points="2306,-371 2160,-371 2160,-341 2306,-341 2306,-371"/>
<text text-anchor="start" x="2168" y="-359" font-family="Helvetica,sans-Serif" font-size="10.00">containers/global_pointers</text>
<text text-anchor="middle" x="2233" y="-348" font-family="Helvetica,sans-Serif" font-size="10.00">_vector.h</text>
</a>
</g>
</g>
<!-- Node105&#45;&gt;Node99 -->
<g id="edge134" class="edge">
<title>Node105&#45;&gt;Node99</title>
<path fill="none" stroke="#63b8ff" d="M2476.05,-676.05C2436.57,-658.98 2360,-617.78 2360,-555 2360,-555 2360,-555 2360,-487 2360,-436.46 2310.28,-398.27 2273.05,-376.76"/>
<polygon fill="#63b8ff" stroke="#63b8ff" points="2275.18,-373.94 2264.74,-372.13 2271.78,-380.06 2275.18,-373.94"/>
</g>
<!-- Node118&#45;&gt;Node23 -->
<g id="edge132" class="edge">
<title>Node118&#45;&gt;Node23</title>
<path fill="none" stroke="#63b8ff" d="M1552.28,-610.18C1570.46,-587.03 1614.76,-522.91 1592,-473 1573.44,-432.3 1551.69,-433.98 1516,-407 1492.7,-389.38 1479.79,-393.37 1461,-371 1447.44,-354.85 1438.79,-332.09 1433.95,-315.98"/>
<polygon fill="#63b8ff" stroke="#63b8ff" points="1437.41,-315.36 1431.37,-306.65 1430.66,-317.22 1437.41,-315.36"/>
</g>
<!-- Node118&#45;&gt;Node31 -->
<g id="edge133" class="edge">
<title>Node118&#45;&gt;Node31</title>
<path fill="none" stroke="#63b8ff" d="M1464.19,-611.17C1359.12,-600.72 1181.44,-582 1117,-569 1013.59,-548.14 981.32,-554.04 889,-503 841.85,-476.93 797.08,-457.8 815,-407 821.83,-387.62 831.43,-387.25 844,-371 866.35,-342.1 873.53,-335.92 893,-305 907.72,-281.62 910.31,-275.04 922,-250 928.8,-235.44 935.65,-218.59 940.61,-205.91"/>
<polygon fill="#63b8ff" stroke="#63b8ff" points="943.85,-207.24 944.18,-196.65 937.32,-204.73 943.85,-207.24"/>
</g>
<!-- Node99&#45;&gt;Node4 -->
<g id="edge137" class="edge">
<title>Node99&#45;&gt;Node4</title>
<path fill="none" stroke="#63b8ff" d="M2222.32,-340.53C2195.17,-305.06 2119.47,-213.89 2032,-176 1993.28,-159.23 1723.76,-142 1600.4,-134.88"/>
<polygon fill="#63b8ff" stroke="#63b8ff" points="1600.62,-131.39 1590.44,-134.31 1600.22,-138.38 1600.62,-131.39"/>
</g>
<!-- Node99&#45;&gt;Node9 -->
<g id="edge136" class="edge">
<title>Node99&#45;&gt;Node9</title>
<path fill="none" stroke="#63b8ff" d="M2240.44,-340.58C2260.4,-301.03 2315.07,-186.98 2336,-85 2339.37,-68.61 2340.55,-49.62 2340.93,-35.71"/>
<polygon fill="#63b8ff" stroke="#63b8ff" points="2344.42,-36.16 2341.07,-26.11 2337.42,-36.06 2344.42,-36.16"/>
</g>
<!-- Node99&#45;&gt;Node15 -->
<g id="edge135" class="edge">
<title>Node99&#45;&gt;Node15</title>
<path fill="none" stroke="#63b8ff" d="M2273.09,-340.54C2429,-284.32 2993.47,-80.75 3138.72,-28.36"/>
<polygon fill="#63b8ff" stroke="#63b8ff" points="3139.57,-31.78 3147.79,-25.09 3137.19,-25.19 3139.57,-31.78"/>
</g>
<!-- Node99&#45;&gt;Node23 -->
<g id="edge138" class="edge">
<title>Node99&#45;&gt;Node23</title>
<path fill="none" stroke="#63b8ff" d="M2159.52,-349.65C2004.71,-338.39 1646.98,-312.36 1497.05,-301.45"/>
<polygon fill="#63b8ff" stroke="#63b8ff" points="1497.5,-297.98 1487.27,-300.74 1496.99,-304.96 1497.5,-297.98"/>
</g>
<!-- Node122&#45;&gt;Node71 -->
<g id="edge140" class="edge">
<title>Node122&#45;&gt;Node71</title>
<path fill="none" stroke="#63b8ff" d="M2389.44,-676.1C2414.34,-665.26 2456.65,-646.84 2485.43,-634.31"/>
<polygon fill="#63b8ff" stroke="#63b8ff" points="2486.57,-637.63 2494.35,-630.43 2483.78,-631.21 2486.57,-637.63"/>
</g>
<!-- Node122&#45;&gt;Node118 -->
<g id="edge141" class="edge">
<title>Node122&#45;&gt;Node118</title>
<path fill="none" stroke="#63b8ff" d="M2311.65,-681.61C2192.55,-674.39 1909.78,-656.45 1673,-635 1660.43,-633.86 1647.18,-632.54 1634.16,-631.18"/>
<polygon fill="#63b8ff" stroke="#63b8ff" points="1634.61,-627.71 1624.3,-630.14 1633.88,-634.67 1634.61,-627.71"/>
</g>
<!-- Node122&#45;&gt;Node99 -->
<g id="edge142" class="edge">
<title>Node122&#45;&gt;Node99</title>
<path fill="none" stroke="#63b8ff" d="M2363.42,-676.26C2350.97,-655.87 2322,-603.24 2322,-555 2322,-555 2322,-555 2322,-487 2322,-442.52 2286.09,-402.09 2259.89,-378.52"/>
<polygon fill="#63b8ff" stroke="#63b8ff" points="2262.43,-376.09 2252.58,-372.18 2257.84,-381.38 2262.43,-376.09"/>
</g>
<!-- Node123&#45;&gt;Node4 -->
<g id="edge148" class="edge">
<title>Node123&#45;&gt;Node4</title>
<path fill="none" stroke="#63b8ff" d="M2374.65,-791.57C2360.48,-774.31 2328.57,-735.04 2303,-701 2249.97,-630.4 2244.42,-606.92 2188,-539 2151.9,-495.54 1882.75,-200.82 1832,-176 1792.29,-156.58 1673.91,-143.19 1600.34,-136.47"/>
<polygon fill="#63b8ff" stroke="#63b8ff" points="1600.72,-132.99 1590.45,-135.59 1600.09,-139.97 1600.72,-132.99"/>
</g>
<!-- Node123&#45;&gt;Node6 -->
<g id="edge146" class="edge">
<title>Node123&#45;&gt;Node6</title>
<path fill="none" stroke="#63b8ff" d="M2451.86,-796.95C2634.82,-786.73 3114,-753.59 3114,-687 3114,-687 3114,-687 3114,-553 3114,-413.42 3154,-381.08 3154,-241.5 3154,-241.5 3154,-241.5 3154,-129.5 3154,-46.28 3030.78,-24.08 2965.51,-18.16"/>
<polygon fill="#63b8ff" stroke="#63b8ff" points="2966.17,-14.7 2955.92,-17.38 2965.61,-21.68 2966.17,-14.7"/>
</g>
<!-- Node123&#45;&gt;Node9 -->
<g id="edge145" class="edge">
<title>Node123&#45;&gt;Node9</title>
<path fill="none" stroke="#63b8ff" d="M2451.89,-795.67C2620.92,-783.07 3038,-745.98 3038,-687 3038,-687 3038,-687 3038,-553 3038,-303.33 2984.44,-171.17 2758,-66 2691.88,-35.29 2474.59,-22.05 2382.66,-17.72"/>
<polygon fill="#63b8ff" stroke="#63b8ff" points="2382.98,-14.23 2372.83,-17.27 2382.66,-21.23 2382.98,-14.23"/>
</g>
<!-- Node123&#45;&gt;Node14 -->
<g id="edge144" class="edge">
<title>Node123&#45;&gt;Node14</title>
<path fill="none" stroke="#63b8ff" d="M2312.22,-798.64C2013.1,-790.38 837.84,-755.08 472,-701 350.65,-683.06 312.73,-691.8 204,-635 116.91,-589.5 38,-587.25 38,-489 38,-489 38,-489 38,-129.5 38,-50.1 322.48,-24.46 422.06,-17.92"/>
<polygon fill="#63b8ff" stroke="#63b8ff" points="422.26,-21.41 432.02,-17.29 421.82,-14.43 422.26,-21.41"/>
</g>
<!-- Node123&#45;&gt;Node21 -->
<g id="edge147" class="edge">
<title>Node123&#45;&gt;Node21</title>
<path fill="none" stroke="#63b8ff" d="M2451.96,-791.69C2570.96,-772.38 2800,-714.48 2800,-555 2800,-555 2800,-555 2800,-421 2800,-381.72 2780.64,-339.09 2767.9,-315.3"/>
<polygon fill="#63b8ff" stroke="#63b8ff" points="2771.1,-313.86 2763.18,-306.82 2764.98,-317.26 2771.1,-313.86"/>
</g>
<!-- Node123&#45;&gt;Node73 -->
<g id="edge151" class="edge">
<title>Node123&#45;&gt;Node73</title>
<path fill="none" stroke="#63b8ff" d="M2346.04,-791.51C2310.45,-782.61 2255.79,-768.95 2216.83,-759.21"/>
<polygon fill="#63b8ff" stroke="#63b8ff" points="2217.8,-755.84 2207.25,-756.81 2216.11,-762.63 2217.8,-755.84"/>
</g>
<!-- Node123&#45;&gt;Node105 -->
<g id="edge150" class="edge">
<title>Node123&#45;&gt;Node105</title>
<path fill="none" stroke="#63b8ff" d="M2391.18,-791.59C2410.75,-772.61 2456.8,-727.93 2481.93,-703.56"/>
<polygon fill="#63b8ff" stroke="#63b8ff" points="2484.03,-706.39 2488.78,-696.92 2479.16,-701.37 2484.03,-706.39"/>
</g>
<!-- Node123&#45;&gt;Node122 -->
<g id="edge149" class="edge">
<title>Node123&#45;&gt;Node122</title>
<path fill="none" stroke="#63b8ff" d="M2380.98,-791.59C2378.91,-773.53 2374.17,-732.17 2371.31,-707.21"/>
<polygon fill="#63b8ff" stroke="#63b8ff" points="2374.8,-706.91 2370.19,-697.37 2367.85,-707.7 2374.8,-706.91"/>
</g>
<!-- Node107&#45;&gt;Node4 -->
<g id="edge156" class="edge">
<title>Node107&#45;&gt;Node4</title>
<path fill="none" stroke="#63b8ff" d="M570.8,-478.27C581.21,-454.8 611.88,-388.91 648,-341 684.68,-292.34 809.32,-195.66 867,-176 979.06,-137.81 1334.36,-132.19 1477.93,-131.51"/>
<polygon fill="#63b8ff" stroke="#63b8ff" points="1477.62,-135.02 1487.61,-131.48 1477.6,-128.02 1477.62,-135.02"/>
</g>
<!-- Node107&#45;&gt;Node9 -->
<g id="edge154" class="edge">
<title>Node107&#45;&gt;Node9</title>
<path fill="none" stroke="#63b8ff" d="M614.46,-484.85C677.27,-482.02 791.44,-476.95 889,-473 1314.73,-455.75 1422,-467.25 1847,-437 1882.05,-434.51 2452.49,-397.11 2476,-371 2489.43,-356.08 2491.78,-230.25 2392,-66 2384.03,-52.89 2371.85,-40.77 2361.39,-31.74"/>
<polygon fill="#63b8ff" stroke="#63b8ff" points="2363.91,-29.28 2353.96,-25.63 2359.46,-34.69 2363.91,-29.28"/>
</g>
<!-- Node107&#45;&gt;Node14 -->
<g id="edge153" class="edge">
<title>Node107&#45;&gt;Node14</title>
<path fill="none" stroke="#63b8ff" d="M560.95,-478.3C550.38,-463.28 527.61,-431.72 506,-407 463.8,-358.73 428.53,-364.23 404,-305 363.35,-206.86 362.39,-163.73 404,-66 409.92,-52.1 421.81,-40.19 432.73,-31.49"/>
<polygon fill="#63b8ff" stroke="#63b8ff" points="434.73,-34.36 440.68,-25.6 430.56,-28.74 434.73,-34.36"/>
</g>
<!-- Node107&#45;&gt;Node19 -->
<g id="edge157" class="edge">
<title>Node107&#45;&gt;Node19</title>
<path fill="none" stroke="#63b8ff" d="M614.36,-483.07C745.09,-472.22 1111.56,-441.8 1266.93,-428.9"/>
<polygon fill="#63b8ff" stroke="#63b8ff" points="1267.01,-432.4 1276.69,-428.09 1266.43,-425.43 1267.01,-432.4"/>
</g>
<!-- Node107&#45;&gt;Node57 -->
<g id="edge155" class="edge">
<title>Node107&#45;&gt;Node57</title>
<path fill="none" stroke="#63b8ff" d="M567.25,-478.1C568.18,-454.77 572.47,-390.24 592,-341 604.43,-309.66 627.71,-277.98 643.03,-259.04"/>
<polygon fill="#63b8ff" stroke="#63b8ff" points="645.57,-261.47 649.25,-251.53 640.18,-257 645.57,-261.47"/>
</g>
<!-- Node124&#45;&gt;Node4 -->
<g id="edge166" class="edge">
<title>Node124&#45;&gt;Node4</title>
<path fill="none" stroke="#63b8ff" d="M652.2,-676.01C538.28,-648.82 230.2,-559.75 310,-407 393.24,-247.68 471.87,-234.03 642,-176 720.51,-149.22 1288.27,-136.21 1477.68,-132.59"/>
<polygon fill="#63b8ff" stroke="#63b8ff" points="1477.63,-136.09 1487.56,-132.4 1477.5,-129.09 1477.63,-136.09"/>
</g>
<!-- Node124&#45;&gt;Node102 -->
<g id="edge167" class="edge">
<title>Node124&#45;&gt;Node102</title>
<path fill="none" stroke="#63b8ff" d="M750.95,-678.95C862.37,-667.32 1106.43,-641.84 1230.44,-628.89"/>
<polygon fill="#63b8ff" stroke="#63b8ff" points="1230.61,-632.39 1240.19,-627.87 1229.88,-625.43 1230.61,-632.39"/>
</g>
<!-- Node124&#45;&gt;Node118 -->
<g id="edge168" class="edge">
<title>Node124&#45;&gt;Node118</title>
<path fill="none" stroke="#63b8ff" d="M750.84,-681.01C868.92,-672.81 1146.27,-653.3 1379,-635 1403.02,-633.11 1428.99,-630.97 1453.09,-628.94"/>
<polygon fill="#63b8ff" stroke="#63b8ff" points="1453.2,-632.44 1462.87,-628.11 1452.61,-625.47 1453.2,-632.44"/>
</g>
<!-- Node125&#45;&gt;Node15 -->
<g id="edge171" class="edge">
<title>Node125&#45;&gt;Node15</title>
<path fill="none" stroke="#63b8ff" d="M2200.39,-982.38C2457.97,-983 3377,-976.85 3377,-857.5 3377,-857.5 3377,-857.5 3377,-129.5 3377,-53.1 3266.38,-27.67 3208.06,-19.58"/>
<polygon fill="#63b8ff" stroke="#63b8ff" points="3208.66,-16.12 3198.3,-18.33 3207.78,-23.07 3208.66,-16.12"/>
</g>
<!-- Node125&#45;&gt;Node70 -->
<g id="edge172" class="edge">
<title>Node125&#45;&gt;Node70</title>
<path fill="none" stroke="#63b8ff" d="M2127.36,-967.78C2122.91,-957.89 2117.13,-944.32 2113,-932 2106.9,-913.81 2101.66,-892.56 2098.24,-877.42"/>
<polygon fill="#63b8ff" stroke="#63b8ff" points="2101.69,-876.84 2096.13,-867.82 2094.85,-878.33 2101.69,-876.84"/>
</g>
<!-- Node126 -->
<g id="node47" class="node">
<title>Node126</title>
<g id="a_node47"><a xlink:href="../../df/d19/id__translator_8h.html" target="_top" xlink:title=" ">
<polygon fill="white" stroke="#666666" points="3349,-866 3263,-866 3263,-847 3349,-847 3349,-866"/>
<text text-anchor="middle" x="3306" y="-854" font-family="Helvetica,sans-Serif" font-size="10.00">id_translator.h</text>
</a>
</g>
</g>
<!-- Node125&#45;&gt;Node126 -->
<g id="edge173" class="edge">
<title>Node125&#45;&gt;Node126</title>
<path fill="none" stroke="#63b8ff" d="M2200.41,-976.13C2373.39,-960.61 2851.98,-916.23 3249,-866 3249.84,-865.89 3250.68,-865.79 3251.53,-865.68"/>
<polygon fill="#63b8ff" stroke="#63b8ff" points="3251.83,-869.17 3261.27,-864.36 3250.89,-862.23 3251.83,-869.17"/>
</g>
<!-- Node127 -->
<g id="node48" class="node">
<title>Node127</title>
<g id="a_node48"><a xlink:href="../../d1/d03/mesh__converter_8h.html" target="_top" xlink:title=" ">
<polygon fill="white" stroke="#666666" points="2226,-926.5 2122,-926.5 2122,-907.5 2226,-907.5 2226,-926.5"/>
<text text-anchor="middle" x="2174" y="-914.5" font-family="Helvetica,sans-Serif" font-size="10.00">mesh_converter.h</text>
</a>
</g>
</g>
<!-- Node125&#45;&gt;Node127 -->
<g id="edge175" class="edge">
<title>Node125&#45;&gt;Node127</title>
<path fill="none" stroke="#63b8ff" d="M2142.88,-967.8C2148.62,-958.6 2156.17,-946.53 2162.39,-936.58"/>
<polygon fill="#63b8ff" stroke="#63b8ff" points="2165.34,-938.46 2167.67,-928.13 2159.4,-934.75 2165.34,-938.46"/>
</g>
<!-- Node110 -->
<g id="node49" class="node">
<title>Node110</title>
<g id="a_node49"><a xlink:href="../../de/dca/variables_8h.html" target="_top" xlink:title=" ">
<polygon fill="#fff0f0" stroke="red" points="1240,-563.5 1126,-563.5 1126,-544.5 1240,-544.5 1240,-563.5"/>
<text text-anchor="middle" x="1183" y="-551.5" font-family="Helvetica,sans-Serif" font-size="10.00">includes/variables.h</text>
</a>
</g>
</g>
<!-- Node125&#45;&gt;Node110 -->
<g id="edge178" class="edge">
<title>Node125&#45;&gt;Node110</title>
<path fill="none" stroke="#63b8ff" d="M2067.61,-981.5C1736.86,-978.84 281.39,-965.26 249,-932 208.79,-890.7 161.83,-855.07 626,-671 794.33,-604.25 1007.2,-573.62 1114.51,-561.6"/>
<polygon fill="#63b8ff" stroke="#63b8ff" points="1114.75,-565.1 1124.31,-560.53 1113.98,-558.14 1114.75,-565.1"/>
</g>
<!-- Node126&#45;&gt;Node15 -->
<g id="edge174" class="edge">
<title>Node126&#45;&gt;Node15</title>
<path fill="none" stroke="#63b8ff" d="M3306,-846.54C3306,-828.03 3306,-784.25 3306,-747.5 3306,-747.5 3306,-747.5 3306,-129.5 3306,-99.33 3302.59,-88.05 3282,-66 3262.22,-44.81 3231.72,-31.88 3208.01,-24.49"/>
<polygon fill="#63b8ff" stroke="#63b8ff" points="3209.02,-21.14 3198.44,-21.72 3207.07,-27.87 3209.02,-21.14"/>
</g>
<!-- Node127&#45;&gt;Node15 -->
<g id="edge176" class="edge">
<title>Node127&#45;&gt;Node15</title>
<path fill="none" stroke="#63b8ff" d="M2226.39,-914.56C2406.99,-908.98 3002.05,-885.23 3176,-811 3239.12,-784.07 3268,-755.62 3268,-687 3268,-687 3268,-687 3268,-129.5 3268,-85.79 3226.05,-50.05 3197.91,-30.99"/>
<polygon fill="#63b8ff" stroke="#63b8ff" points="3199.83,-28.07 3189.53,-25.57 3196.02,-33.94 3199.83,-28.07"/>
</g>
<!-- Node127&#45;&gt;Node70 -->
<g id="edge177" class="edge">
<title>Node127&#45;&gt;Node70</title>
<path fill="none" stroke="#63b8ff" d="M2161.85,-907.12C2149.52,-898.1 2130.17,-883.95 2115.28,-873.06"/>
<polygon fill="#63b8ff" stroke="#63b8ff" points="2117.62,-870.44 2107.49,-867.36 2113.49,-876.09 2117.62,-870.44"/>
</g>
<!-- Node110&#45;&gt;Node4 -->
<g id="edge181" class="edge">
<title>Node110&#45;&gt;Node4</title>
<path fill="none" stroke="#63b8ff" d="M1174.92,-544.21C1166.8,-534.79 1154.7,-519.02 1149,-503 1108.33,-388.74 1077.71,-341.81 1127,-231 1141.84,-197.65 1154.82,-191.21 1188,-176 1238.25,-152.96 1391.33,-140.32 1477.82,-134.85"/>
<polygon fill="#63b8ff" stroke="#63b8ff" points="1478.03,-138.34 1487.79,-134.23 1477.6,-131.35 1478.03,-138.34"/>
</g>
<!-- Node110&#45;&gt;Node9 -->
<g id="edge180" class="edge">
<title>Node110&#45;&gt;Node9</title>
<path fill="none" stroke="#63b8ff" d="M1240.41,-546.82C1386.6,-530.58 1769.69,-484.62 1888,-437 2110.17,-347.57 2143.05,-269.29 2296,-85 2309.25,-69.04 2321.93,-49.02 2330.43,-34.66"/>
<polygon fill="#63b8ff" stroke="#63b8ff" points="2333.32,-36.66 2335.3,-26.25 2327.26,-33.15 2333.32,-36.66"/>
</g>
<!-- Node110&#45;&gt;Node14 -->
<g id="edge179" class="edge">
<title>Node110&#45;&gt;Node14</title>
<path fill="none" stroke="#63b8ff" d="M1125.77,-549.94C963.08,-541.11 507.71,-515.43 478,-503 467.76,-498.72 334.15,-380.24 328,-371 280.11,-298.96 266,-273.01 266,-186.5 266,-186.5 266,-186.5 266,-129.5 266,-99.33 267.95,-86.59 290,-66 326.53,-31.9 385.5,-21 422.44,-17.55"/>
<polygon fill="#63b8ff" stroke="#63b8ff" points="422.4,-21.06 432.09,-16.79 421.85,-14.09 422.4,-21.06"/>
</g>
<!-- Node110&#45;&gt;Node19 -->
<g id="edge182" class="edge">
<title>Node110&#45;&gt;Node19</title>
<path fill="none" stroke="#63b8ff" d="M1215.96,-544.07C1239.61,-536.32 1271.05,-523.14 1293,-503 1311.31,-486.2 1324.01,-460.18 1331.14,-442.41"/>
<polygon fill="#63b8ff" stroke="#63b8ff" points="1334.33,-443.88 1334.57,-433.29 1327.78,-441.42 1334.33,-443.88"/>
</g>
<!-- Node110&#45;&gt;Node31 -->
<g id="edge184" class="edge">
<title>Node110&#45;&gt;Node31</title>
<path fill="none" stroke="#63b8ff" d="M1169.21,-544.11C1133.99,-520.58 1040.32,-452.87 996,-371 966.11,-315.78 954.16,-241.09 949.98,-206.1"/>
<polygon fill="#63b8ff" stroke="#63b8ff" points="953.51,-206.18 948.93,-196.62 946.55,-206.95 953.51,-206.18"/>
</g>
<!-- Node110&#45;&gt;Node47 -->
<g id="edge185" class="edge">
<title>Node110&#45;&gt;Node47</title>
<path fill="none" stroke="#63b8ff" d="M1234.86,-544.01C1290.09,-531.22 1373.88,-501.69 1406,-437 1457.71,-332.87 1284.8,-450.67 1219,-371 1190.19,-336.12 1232.34,-284.4 1258.26,-258.12"/>
<polygon fill="#63b8ff" stroke="#63b8ff" points="1260.52,-260.8 1265.22,-251.31 1255.62,-255.8 1260.52,-260.8"/>
</g>
<!-- Node110&#45;&gt;Node61 -->
<g id="edge183" class="edge">
<title>Node110&#45;&gt;Node61</title>
<path fill="none" stroke="#63b8ff" d="M1154.91,-544.1C1119.81,-532.98 1059.55,-513.89 1019.99,-501.35"/>
<polygon fill="#63b8ff" stroke="#63b8ff" points="1021.21,-498.07 1010.62,-498.38 1019.09,-504.74 1021.21,-498.07"/>
</g>
<!-- Node110&#45;&gt;Node99 -->
<g id="edge186" class="edge">
<title>Node110&#45;&gt;Node99</title>
<path fill="none" stroke="#63b8ff" d="M1240.38,-551.92C1383.53,-547.85 1766.7,-528.55 2070,-437 2117.38,-422.7 2167.96,-395.85 2199.99,-377.22"/>
<polygon fill="#63b8ff" stroke="#63b8ff" points="2201.57,-380.35 2208.4,-372.26 2198.01,-374.32 2201.57,-380.35"/>
</g>
<!-- Node111 -->
<g id="node50" class="node">
<title>Node111</title>
<g id="a_node50"><a xlink:href="../../d9/da6/periodic__variables__container_8h.html" target="_top" xlink:title=" ">
<polygon fill="#fff0f0" stroke="red" points="1284,-503 1158,-503 1158,-473 1284,-473 1284,-503"/>
<text text-anchor="start" x="1166" y="-491" font-family="Helvetica,sans-Serif" font-size="10.00">containers/periodic</text>
<text text-anchor="middle" x="1221" y="-480" font-family="Helvetica,sans-Serif" font-size="10.00">_variables_container.h</text>
</a>
</g>
</g>
<!-- Node110&#45;&gt;Node111 -->
<g id="edge187" class="edge">
<title>Node110&#45;&gt;Node111</title>
<path fill="none" stroke="#63b8ff" d="M1188.28,-544.1C1193.04,-536.08 1200.26,-523.93 1206.71,-513.07"/>
<polygon fill="#63b8ff" stroke="#63b8ff" points="1209.68,-514.92 1211.78,-504.53 1203.66,-511.35 1209.68,-514.92"/>
</g>
<!-- Node111&#45;&gt;Node4 -->
<g id="edge190" class="edge">
<title>Node111&#45;&gt;Node4</title>
<path fill="none" stroke="#63b8ff" d="M1213.37,-472.54C1192.68,-431.1 1140.32,-309.87 1191,-231 1211.64,-198.88 1222.22,-191.77 1257,-176 1328.2,-143.72 1418.72,-134.32 1477.72,-131.87"/>
<polygon fill="#63b8ff" stroke="#63b8ff" points="1477.7,-135.37 1487.57,-131.52 1477.46,-128.38 1477.7,-135.37"/>
</g>
<!-- Node111&#45;&gt;Node9 -->
<g id="edge189" class="edge">
<title>Node111&#45;&gt;Node9</title>
<path fill="none" stroke="#63b8ff" d="M1284.36,-484.16C1433.1,-477.16 1795.94,-458.15 1847,-437 1963.06,-388.92 2251.68,-105.24 2324.24,-32.82"/>
<polygon fill="#63b8ff" stroke="#63b8ff" points="2326.67,-35.34 2331.27,-25.79 2321.72,-30.39 2326.67,-35.34"/>
</g>
<!-- Node111&#45;&gt;Node14 -->
<g id="edge188" class="edge">
<title>Node111&#45;&gt;Node14</title>
<path fill="none" stroke="#63b8ff" d="M1166.6,-472.52C991.83,-425.64 456,-278.86 456,-241.5 456,-241.5 456,-241.5 456,-129.5 456,-96.89 456,-59 456,-36.29"/>
<polygon fill="#63b8ff" stroke="#63b8ff" points="459.5,-36.34 456,-26.34 452.5,-36.34 459.5,-36.34"/>
</g>
<!-- Node111&#45;&gt;Node19 -->
<g id="edge192" class="edge">
<title>Node111&#45;&gt;Node19</title>
<path fill="none" stroke="#63b8ff" d="M1247.26,-472.64C1266.47,-462.13 1292.43,-447.92 1311.67,-437.4"/>
<polygon fill="#63b8ff" stroke="#63b8ff" points="1313.15,-440.58 1320.24,-432.71 1309.79,-434.44 1313.15,-440.58"/>
</g>
<!-- Node111&#45;&gt;Node23 -->
<g id="edge191" class="edge">
<title>Node111&#45;&gt;Node23</title>
<path fill="none" stroke="#63b8ff" d="M1226.56,-472.53C1233.93,-455.01 1248.43,-425.55 1269,-407 1297.05,-381.7 1314.49,-391.84 1346,-371 1371.62,-354.05 1397.36,-329.51 1413.23,-313.28"/>
<polygon fill="#63b8ff" stroke="#63b8ff" points="1415.52,-315.95 1419.92,-306.32 1410.47,-311.1 1415.52,-315.95"/>
</g>
</g>
</svg>
