<?xml version="1.0" encoding="UTF-8" standalone="no"?>
<!DOCTYPE svg PUBLIC "-//W3C//DTD SVG 1.1//EN"
 "http://www.w3.org/Graphics/SVG/1.1/DTD/svg11.dtd">
<!-- Generated by graphviz version 7.1.0 (0)
 -->
<!-- Title: /software/kratos/doxygen/applications/PoromechanicsApplication/custom_constitutive/nonlocal_damage_plane_stress_2D_law.hpp Pages: 1 -->
<!--zoomable 313 -->
<svg id="main" version="1.1" xmlns="http://www.w3.org/2000/svg" xmlns:xlink="http://www.w3.org/1999/xlink" xml:space="preserve" onload="init(evt)">
<style type="text/css"><![CDATA[
.edge:hover path { stroke: red; }
.edge:hover polygon { stroke: red; fill: red; }
]]></style>
<script type="text/javascript"><![CDATA[
var edges = document.getElementsByTagName('g');
if (edges && edges.length) {
  for (var i=0;i<edges.length;i++) {
    if (edges[i].id.substr(0,4)=='edge') {
      edges[i].setAttribute('class','edge');
    }
  }
}
]]></script>
        <defs>
                <circle id="rim" cx="0" cy="0" r="7"/>
                <circle id="rim2" cx="0" cy="0" r="3.5"/>
                <g id="zoomPlus">
                        <use xlink:href="#rim" fill="#404040">
                                <set attributeName="fill" to="#808080" begin="zoomplus.mouseover" end="zoomplus.mouseout"/>
                        </use>
                        <path d="M-4,0h8M0,-4v8" fill="none" stroke="white" stroke-width="1.5" pointer-events="none"/>
                </g>
                <g id="zoomMin">
                        <use xlink:href="#rim" fill="#404040">
                                <set attributeName="fill" to="#808080" begin="zoomminus.mouseover" end="zoomminus.mouseout"/>
                        </use>
                        <path d="M-4,0h8" fill="none" stroke="white" stroke-width="1.5" pointer-events="none"/>
                </g>
                <g id="dirArrow">
                        <path fill="none" stroke="white" stroke-width="1.5" d="M0,-3.0v7 M-2.5,-0.5L0,-3.0L2.5,-0.5"/>
                </g>
               <g id="resetDef">
                       <use xlink:href="#rim2" fill="#404040">
                               <set attributeName="fill" to="#808080" begin="reset.mouseover" end="reset.mouseout"/>
                       </use>
               </g>
        </defs>

<script type="text/javascript">
var viewWidth = 945;
var viewHeight = 313;
var sectionId = 'dynsection-1';
</script>
<script xlink:href="../../svgpan.js"/>
<svg id="graph" class="graph">
<g id="viewport">
<title>/software/kratos/doxygen/applications/PoromechanicsApplication/custom_constitutive/nonlocal_damage_plane_stress_2D_law.hpp</title>
<!-- Node1 -->
<g id="node1" class="node">
<title>Node1</title>
<g id="a_node1"><a xlink:title=" ">
<polygon fill="#999999" stroke="#666666" points="707.5,-305 496.5,-305 496.5,-253 707.5,-253 707.5,-305"/>
<text text-anchor="start" x="504.5" y="-293" font-family="Helvetica,sans-Serif" font-size="10.00">/software/kratos/doxygen</text>
<text text-anchor="start" x="504.5" y="-282" font-family="Helvetica,sans-Serif" font-size="10.00">/applications/PoromechanicsApplication</text>
<text text-anchor="start" x="504.5" y="-271" font-family="Helvetica,sans-Serif" font-size="10.00">/custom_constitutive/nonlocal_damage</text>
<text text-anchor="middle" x="602" y="-260" font-family="Helvetica,sans-Serif" font-size="10.00">_plane_stress_2D_law.hpp</text>
</a>
</g>
</g>
<!-- Node2 -->
<g id="node2" class="node">
<title>Node2</title>
<g id="a_node2"><a xlink:href="../../d8/d36/modified__mises__nonlocal__damage__plane__stress__2_d__law_8hpp.html" target="_top" xlink:title=" ">
<polygon fill="white" stroke="#666666" points="478,-217 242,-217 242,-165 478,-165 478,-217"/>
<text text-anchor="start" x="250" y="-205" font-family="Helvetica,sans-Serif" font-size="10.00">/software/kratos/doxygen</text>
<text text-anchor="start" x="250" y="-194" font-family="Helvetica,sans-Serif" font-size="10.00">/applications/PoromechanicsApplication</text>
<text text-anchor="start" x="250" y="-183" font-family="Helvetica,sans-Serif" font-size="10.00">/custom_constitutive/modified_mises</text>
<text text-anchor="middle" x="360" y="-172" font-family="Helvetica,sans-Serif" font-size="10.00">_nonlocal_damage_plane_stress_2D_law.hpp</text>
</a>
</g>
</g>
<!-- Node1&#45;&gt;Node2 -->
<g id="edge1" class="edge">
<title>Node1&#45;&gt;Node2</title>
<path fill="none" stroke="#63b8ff" d="M519.58,-248.71C490.95,-238.54 459.11,-227.22 431.44,-217.39"/>
<polygon fill="#63b8ff" stroke="#63b8ff" points="518.35,-251.99 528.95,-252.04 520.7,-245.39 518.35,-251.99"/>
</g>
<!-- Node7 -->
<g id="node7" class="node">
<title>Node7</title>
<g id="a_node7"><a xlink:href="../../dc/d8b/nonlocal__damage__plane__stress__2_d__law_8cpp.html" target="_top" xlink:title=" ">
<polygon fill="white" stroke="#666666" points="936.5,-217 725.5,-217 725.5,-165 936.5,-165 936.5,-217"/>
<text text-anchor="start" x="733.5" y="-205" font-family="Helvetica,sans-Serif" font-size="10.00">/software/kratos/doxygen</text>
<text text-anchor="start" x="733.5" y="-194" font-family="Helvetica,sans-Serif" font-size="10.00">/applications/PoromechanicsApplication</text>
<text text-anchor="start" x="733.5" y="-183" font-family="Helvetica,sans-Serif" font-size="10.00">/custom_constitutive/nonlocal_damage</text>
<text text-anchor="middle" x="831" y="-172" font-family="Helvetica,sans-Serif" font-size="10.00">_plane_stress_2D_law.cpp</text>
</a>
</g>
</g>
<!-- Node1&#45;&gt;Node7 -->
<g id="edge6" class="edge">
<title>Node1&#45;&gt;Node7</title>
<path fill="none" stroke="#63b8ff" d="M680.35,-248.57C707.35,-238.44 737.33,-227.18 763.4,-217.39"/>
<polygon fill="#63b8ff" stroke="#63b8ff" points="679.33,-245.22 671.19,-252.01 681.79,-251.77 679.33,-245.22"/>
</g>
<!-- Node8 -->
<g id="node8" class="node">
<title>Node8</title>
<g id="a_node8"><a xlink:href="../../d4/d32/simo__ju__nonlocal__damage__plane__stress__2_d__law_8hpp.html" target="_top" xlink:title=" ">
<polygon fill="white" stroke="#666666" points="707.5,-217 496.5,-217 496.5,-165 707.5,-165 707.5,-217"/>
<text text-anchor="start" x="504.5" y="-205" font-family="Helvetica,sans-Serif" font-size="10.00">/software/kratos/doxygen</text>
<text text-anchor="start" x="504.5" y="-194" font-family="Helvetica,sans-Serif" font-size="10.00">/applications/PoromechanicsApplication</text>
<text text-anchor="start" x="504.5" y="-183" font-family="Helvetica,sans-Serif" font-size="10.00">/custom_constitutive/simo_ju_nonlocal</text>
<text text-anchor="middle" x="602" y="-172" font-family="Helvetica,sans-Serif" font-size="10.00">_damage_plane_stress_2D_law.hpp</text>
</a>
</g>
</g>
<!-- Node1&#45;&gt;Node8 -->
<g id="edge7" class="edge">
<title>Node1&#45;&gt;Node8</title>
<path fill="none" stroke="#63b8ff" d="M602,-241.26C602,-233.24 602,-224.92 602,-217.45"/>
<polygon fill="#63b8ff" stroke="#63b8ff" points="598.5,-241.15 602,-251.15 605.5,-241.15 598.5,-241.15"/>
</g>
<!-- Node3 -->
<g id="node3" class="node">
<title>Node3</title>
<g id="a_node3"><a xlink:href="../../df/dae/modified__mises__nonlocal__damage__plane__stress__2_d__law_8cpp.html" target="_top" xlink:title=" ">
<polygon fill="white" stroke="#666666" points="236,-129 0,-129 0,-77 236,-77 236,-129"/>
<text text-anchor="start" x="8" y="-117" font-family="Helvetica,sans-Serif" font-size="10.00">/software/kratos/doxygen</text>
<text text-anchor="start" x="8" y="-106" font-family="Helvetica,sans-Serif" font-size="10.00">/applications/PoromechanicsApplication</text>
<text text-anchor="start" x="8" y="-95" font-family="Helvetica,sans-Serif" font-size="10.00">/custom_constitutive/modified_mises</text>
<text text-anchor="middle" x="118" y="-84" font-family="Helvetica,sans-Serif" font-size="10.00">_nonlocal_damage_plane_stress_2D_law.cpp</text>
</a>
</g>
</g>
<!-- Node2&#45;&gt;Node3 -->
<g id="edge2" class="edge">
<title>Node2&#45;&gt;Node3</title>
<path fill="none" stroke="#63b8ff" d="M277.58,-160.71C248.95,-150.54 217.11,-139.22 189.44,-129.39"/>
<polygon fill="#63b8ff" stroke="#63b8ff" points="276.35,-163.99 286.95,-164.04 278.7,-157.39 276.35,-163.99"/>
</g>
<!-- Node4 -->
<g id="node4" class="node">
<title>Node4</title>
<g id="a_node4"><a xlink:href="../../d1/da9/_poromechanics_application_2custom__python_2add__custom__constitutive__laws__to__python_8cpp.html" target="_top" xlink:title=" ">
<polygon fill="white" stroke="#666666" points="474,-129 254,-129 254,-77 474,-77 474,-129"/>
<text text-anchor="start" x="262" y="-117" font-family="Helvetica,sans-Serif" font-size="10.00">/software/kratos/doxygen</text>
<text text-anchor="start" x="262" y="-106" font-family="Helvetica,sans-Serif" font-size="10.00">/applications/PoromechanicsApplication</text>
<text text-anchor="start" x="262" y="-95" font-family="Helvetica,sans-Serif" font-size="10.00">/custom_python/add_custom_constitutive</text>
<text text-anchor="middle" x="364" y="-84" font-family="Helvetica,sans-Serif" font-size="10.00">_laws_to_python.cpp</text>
</a>
</g>
</g>
<!-- Node2&#45;&gt;Node4 -->
<g id="edge3" class="edge">
<title>Node2&#45;&gt;Node4</title>
<path fill="none" stroke="#63b8ff" d="M361.71,-153.26C362.08,-145.24 362.47,-136.92 362.82,-129.45"/>
<polygon fill="#63b8ff" stroke="#63b8ff" points="358.22,-153 361.25,-163.15 365.21,-153.32 358.22,-153"/>
</g>
<!-- Node5 -->
<g id="node5" class="node">
<title>Node5</title>
<g id="a_node5"><a xlink:href="../../d4/d5f/poromechanics__application_8h.html" target="_top" xlink:title=" ">
<polygon fill="white" stroke="#666666" points="703.5,-123.5 492.5,-123.5 492.5,-82.5 703.5,-82.5 703.5,-123.5"/>
<text text-anchor="start" x="500.5" y="-111.5" font-family="Helvetica,sans-Serif" font-size="10.00">/software/kratos/doxygen</text>
<text text-anchor="start" x="500.5" y="-100.5" font-family="Helvetica,sans-Serif" font-size="10.00">/applications/PoromechanicsApplication</text>
<text text-anchor="middle" x="598" y="-89.5" font-family="Helvetica,sans-Serif" font-size="10.00">/poromechanics_application.h</text>
</a>
</g>
</g>
<!-- Node2&#45;&gt;Node5 -->
<g id="edge4" class="edge">
<title>Node2&#45;&gt;Node5</title>
<path fill="none" stroke="#63b8ff" d="M441.15,-160.68C474.67,-148.57 512.66,-134.84 542.85,-123.93"/>
<polygon fill="#63b8ff" stroke="#63b8ff" points="440.08,-157.34 431.87,-164.03 442.46,-163.93 440.08,-157.34"/>
</g>
<!-- Node6 -->
<g id="node6" class="node">
<title>Node6</title>
<g id="a_node6"><a xlink:href="../../d4/de2/poromechanics__application_8cpp.html" target="_top" xlink:title=" ">
<polygon fill="white" stroke="#666666" points="703.5,-41 492.5,-41 492.5,0 703.5,0 703.5,-41"/>
<text text-anchor="start" x="500.5" y="-29" font-family="Helvetica,sans-Serif" font-size="10.00">/software/kratos/doxygen</text>
<text text-anchor="start" x="500.5" y="-18" font-family="Helvetica,sans-Serif" font-size="10.00">/applications/PoromechanicsApplication</text>
<text text-anchor="middle" x="598" y="-7" font-family="Helvetica,sans-Serif" font-size="10.00">/poromechanics_application.cpp</text>
</a>
</g>
</g>
<!-- Node5&#45;&gt;Node6 -->
<g id="edge5" class="edge">
<title>Node5&#45;&gt;Node6</title>
<path fill="none" stroke="#63b8ff" d="M598,-70.66C598,-60.83 598,-50.26 598,-41.45"/>
<polygon fill="#63b8ff" stroke="#63b8ff" points="594.5,-70.59 598,-80.59 601.5,-70.59 594.5,-70.59"/>
</g>
<!-- Node8&#45;&gt;Node4 -->
<g id="edge9" class="edge">
<title>Node8&#45;&gt;Node4</title>
<path fill="none" stroke="#63b8ff" d="M520.94,-160.71C492.79,-150.54 461.47,-139.22 434.26,-129.39"/>
<polygon fill="#63b8ff" stroke="#63b8ff" points="519.54,-163.93 530.13,-164.03 521.92,-157.34 519.54,-163.93"/>
</g>
<!-- Node8&#45;&gt;Node5 -->
<g id="edge10" class="edge">
<title>Node8&#45;&gt;Node5</title>
<path fill="none" stroke="#63b8ff" d="M600.29,-153.23C599.82,-143.19 599.33,-132.69 598.93,-123.98"/>
<polygon fill="#63b8ff" stroke="#63b8ff" points="596.79,-153.32 600.75,-163.15 603.78,-153 596.79,-153.32"/>
</g>
<!-- Node9 -->
<g id="node9" class="node">
<title>Node9</title>
<g id="a_node9"><a xlink:href="../../da/dc5/simo__ju__nonlocal__damage__plane__stress__2_d__law_8cpp.html" target="_top" xlink:title=" ">
<polygon fill="white" stroke="#666666" points="932.5,-129 721.5,-129 721.5,-77 932.5,-77 932.5,-129"/>
<text text-anchor="start" x="729.5" y="-117" font-family="Helvetica,sans-Serif" font-size="10.00">/software/kratos/doxygen</text>
<text text-anchor="start" x="729.5" y="-106" font-family="Helvetica,sans-Serif" font-size="10.00">/applications/PoromechanicsApplication</text>
<text text-anchor="start" x="729.5" y="-95" font-family="Helvetica,sans-Serif" font-size="10.00">/custom_constitutive/simo_ju_nonlocal</text>
<text text-anchor="middle" x="827" y="-84" font-family="Helvetica,sans-Serif" font-size="10.00">_damage_plane_stress_2D_law.cpp</text>
</a>
</g>
</g>
<!-- Node8&#45;&gt;Node9 -->
<g id="edge8" class="edge">
<title>Node8&#45;&gt;Node9</title>
<path fill="none" stroke="#63b8ff" d="M679.34,-160.44C705.77,-150.34 735.08,-139.13 760.58,-129.39"/>
<polygon fill="#63b8ff" stroke="#63b8ff" points="678.1,-157.17 670.01,-164.01 680.6,-163.7 678.1,-157.17"/>
</g>
</g>
</svg>
        <g id="navigator" transform="translate(0 0)" fill="#404254">
                <rect fill="#f2f5e9" fill-opacity="0.5" stroke="#606060" stroke-width=".5" x="0" y="0" width="60" height="60"/>
                <use id="zoomplus" xlink:href="#zoomPlus" x="17" y="9" onmousedown="handleZoom(evt,'in')"/>
                <use id="zoomminus" xlink:href="#zoomMin" x="42" y="9" onmousedown="handleZoom(evt,'out')"/>
                <use id="reset" xlink:href="#resetDef" x="30" y="36" onmousedown="handleReset()"/>
                <g id="arrowUp" xlink:href="#dirArrow" transform="translate(30 24)" onmousedown="handlePan(0,-1)">
                  <use xlink:href="#rim" fill="#404040">
                        <set attributeName="fill" to="#808080" begin="arrowUp.mouseover" end="arrowUp.mouseout"/>
                  </use>
                  <path fill="none" stroke="white" stroke-width="1.5" d="M0,-3.0v7 M-2.5,-0.5L0,-3.0L2.5,-0.5"/>
                </g>
                <g id="arrowRight" xlink:href="#dirArrow" transform="rotate(90) translate(36 -43)" onmousedown="handlePan(1,0)">
                  <use xlink:href="#rim" fill="#404040">
                        <set attributeName="fill" to="#808080" begin="arrowRight.mouseover" end="arrowRight.mouseout"/>
                  </use>
                  <path fill="none" stroke="white" stroke-width="1.5" d="M0,-3.0v7 M-2.5,-0.5L0,-3.0L2.5,-0.5"/>
                </g>
                <g id="arrowDown" xlink:href="#dirArrow" transform="rotate(180) translate(-30 -48)" onmousedown="handlePan(0,1)">
                  <use xlink:href="#rim" fill="#404040">
                        <set attributeName="fill" to="#808080" begin="arrowDown.mouseover" end="arrowDown.mouseout"/>
                  </use>
                  <path fill="none" stroke="white" stroke-width="1.5" d="M0,-3.0v7 M-2.5,-0.5L0,-3.0L2.5,-0.5"/>
                </g>
                <g id="arrowLeft" xlink:href="#dirArrow" transform="rotate(270) translate(-36 17)" onmousedown="handlePan(-1,0)">
                  <use xlink:href="#rim" fill="#404040">
                        <set attributeName="fill" to="#808080" begin="arrowLeft.mouseover" end="arrowLeft.mouseout"/>
                  </use>
                  <path fill="none" stroke="white" stroke-width="1.5" d="M0,-3.0v7 M-2.5,-0.5L0,-3.0L2.5,-0.5"/>
                </g>
        </g>
        <svg viewBox="0 0 15 15" width="100%" height="30px" preserveAspectRatio="xMaxYMin meet">
         <g id="arrow_out" transform="scale(0.3 0.3)">
          <a xlink:href="nonlocal__damage__plane__stress__2_d__law_8hpp__dep__incl_org.svg" target="_base">
           <rect id="button" ry="5" rx="5" y="6" x="6" height="38" width="38"
                fill="#f2f5e9" fill-opacity="0.5" stroke="#606060" stroke-width="1.0"/>
           <path id="arrow"
             d="M 11.500037,31.436501 C 11.940474,20.09759 22.043105,11.32322 32.158766,21.979434 L 37.068811,17.246167 C 37.068811,17.246167 37.088388,32 37.088388,32 L 22.160133,31.978069 C 22.160133,31.978069 26.997745,27.140456 26.997745,27.140456 C 18.528582,18.264221 13.291696,25.230495 11.500037,31.436501 z"
             style="fill:#404040;"/>
          </a>
         </g>
        </svg>
</svg>
