<?xml version="1.0" encoding="UTF-8" standalone="no"?>
<!DOCTYPE svg PUBLIC "-//W3C//DTD SVG 1.1//EN"
 "http://www.w3.org/Graphics/SVG/1.1/DTD/svg11.dtd">
<!-- Generated by graphviz version 7.1.0 (0)
 -->
<!-- Title: /software/kratos/doxygen/kratos/processes/measure_mesh_quality_process.h Pages: 1 -->
<!--zoomable 1006 -->
<svg id="main" version="1.1" xmlns="http://www.w3.org/2000/svg" xmlns:xlink="http://www.w3.org/1999/xlink" xml:space="preserve" onload="init(evt)">
<style type="text/css"><![CDATA[
.edge:hover path { stroke: red; }
.edge:hover polygon { stroke: red; fill: red; }
]]></style>
<script type="text/javascript"><![CDATA[
var edges = document.getElementsByTagName('g');
if (edges && edges.length) {
  for (var i=0;i<edges.length;i++) {
    if (edges[i].id.substr(0,4)=='edge') {
      edges[i].setAttribute('class','edge');
    }
  }
}
]]></script>
        <defs>
                <circle id="rim" cx="0" cy="0" r="7"/>
                <circle id="rim2" cx="0" cy="0" r="3.5"/>
                <g id="zoomPlus">
                        <use xlink:href="#rim" fill="#404040">
                                <set attributeName="fill" to="#808080" begin="zoomplus.mouseover" end="zoomplus.mouseout"/>
                        </use>
                        <path d="M-4,0h8M0,-4v8" fill="none" stroke="white" stroke-width="1.5" pointer-events="none"/>
                </g>
                <g id="zoomMin">
                        <use xlink:href="#rim" fill="#404040">
                                <set attributeName="fill" to="#808080" begin="zoomminus.mouseover" end="zoomminus.mouseout"/>
                        </use>
                        <path d="M-4,0h8" fill="none" stroke="white" stroke-width="1.5" pointer-events="none"/>
                </g>
                <g id="dirArrow">
                        <path fill="none" stroke="white" stroke-width="1.5" d="M0,-3.0v7 M-2.5,-0.5L0,-3.0L2.5,-0.5"/>
                </g>
               <g id="resetDef">
                       <use xlink:href="#rim2" fill="#404040">
                               <set attributeName="fill" to="#808080" begin="reset.mouseover" end="reset.mouseout"/>
                       </use>
               </g>
        </defs>

<script type="text/javascript">
var viewWidth = 3216;
var viewHeight = 1006;
var sectionId = 'dynsection-0';
</script>
<script xlink:href="../../svgpan.js"/>
<svg id="graph" class="graph">
<g id="viewport">
<title>/software/kratos/doxygen/kratos/processes/measure_mesh_quality_process.h</title>
<!-- Node1 -->
<g id="node1" class="node">
<title>Node1</title>
<g id="a_node1"><a xlink:title=" ">
<polygon fill="#999999" stroke="#666666" points="1759,-998 1611,-998 1611,-957 1759,-957 1759,-998"/>
<text text-anchor="start" x="1619" y="-986" font-family="Helvetica,sans-Serif" font-size="10.00">/software/kratos/doxygen</text>
<text text-anchor="start" x="1619" y="-975" font-family="Helvetica,sans-Serif" font-size="10.00">/kratos/processes/measure</text>
<text text-anchor="middle" x="1685" y="-964" font-family="Helvetica,sans-Serif" font-size="10.00">_mesh_quality_process.h</text>
</a>
</g>
</g>
<!-- Node2 -->
<g id="node2" class="node">
<title>Node2</title>
<g id="a_node2"><a xlink:title=" ">
<polygon fill="#e0e0e0" stroke="#999999" points="2413,-24.5 2369,-24.5 2369,-5.5 2413,-5.5 2413,-24.5"/>
<text text-anchor="middle" x="2391" y="-12.5" font-family="Helvetica,sans-Serif" font-size="10.00">string</text>
</a>
</g>
</g>
<!-- Node1&#45;&gt;Node2 -->
<g id="edge1" class="edge">
<title>Node1&#45;&gt;Node2</title>
<path fill="none" stroke="#63b8ff" d="M1759.49,-974.63C2065.26,-966.46 3208,-931.01 3208,-857.5 3208,-857.5 3208,-857.5 3208,-195.5 3208,-110.41 3145.86,-97.95 3067,-66 2948.5,-17.99 2544.15,-15.46 2424.57,-15.79"/>
<polygon fill="#63b8ff" stroke="#63b8ff" points="2424.78,-12.29 2414.79,-15.83 2424.81,-19.29 2424.78,-12.29"/>
</g>
<!-- Node3 -->
<g id="node3" class="node">
<title>Node3</title>
<g id="a_node3"><a xlink:title=" ">
<polygon fill="#e0e0e0" stroke="#999999" points="1286,-24.5 1226,-24.5 1226,-5.5 1286,-5.5 1286,-24.5"/>
<text text-anchor="middle" x="1256" y="-12.5" font-family="Helvetica,sans-Serif" font-size="10.00">iostream</text>
</a>
</g>
</g>
<!-- Node1&#45;&gt;Node3 -->
<g id="edge2" class="edge">
<title>Node1&#45;&gt;Node3</title>
<path fill="none" stroke="#63b8ff" d="M1759.12,-974.11C2047.93,-964.3 3082,-924.51 3082,-857.5 3082,-857.5 3082,-857.5 3082,-432 3082,-267.18 3008.75,-210.82 2864,-132 2767.97,-79.71 2735.09,-82.52 2627,-66 2378.21,-27.97 1746.43,-41.36 1495,-30 1425.72,-26.87 1345.21,-21.87 1297.55,-18.77"/>
<polygon fill="#63b8ff" stroke="#63b8ff" points="1297.89,-15.29 1287.68,-18.13 1297.43,-22.27 1297.89,-15.29"/>
</g>
<!-- Node4 -->
<g id="node4" class="node">
<title>Node4</title>
<g id="a_node4"><a xlink:href="../../df/d67/define_8h.html" target="_top" xlink:title=" ">
<polygon fill="white" stroke="#666666" points="944.5,-206 845.5,-206 845.5,-187 944.5,-187 944.5,-206"/>
<text text-anchor="middle" x="895" y="-194" font-family="Helvetica,sans-Serif" font-size="10.00">includes/define.h</text>
</a>
</g>
</g>
<!-- Node1&#45;&gt;Node4 -->
<g id="edge3" class="edge">
<title>Node1&#45;&gt;Node4</title>
<path fill="none" stroke="#63b8ff" d="M1610.76,-975.08C1289.85,-968.45 38,-937.48 38,-857.5 38,-857.5 38,-857.5 38,-432 38,-312.89 118.6,-291.36 227,-242 281.4,-217.23 679.77,-203.53 834.13,-199.11"/>
<polygon fill="#63b8ff" stroke="#63b8ff" points="833.84,-202.62 843.74,-198.84 833.64,-195.62 833.84,-202.62"/>
</g>
<!-- Node16 -->
<g id="node16" class="node">
<title>Node16</title>
<g id="a_node16"><a xlink:href="../../da/d42/process_8h.html" target="_top" xlink:title=" ">
<polygon fill="white" stroke="#666666" points="305.5,-690 190.5,-690 190.5,-671 305.5,-671 305.5,-690"/>
<text text-anchor="middle" x="248" y="-678" font-family="Helvetica,sans-Serif" font-size="10.00">processes/process.h</text>
</a>
</g>
</g>
<!-- Node1&#45;&gt;Node16 -->
<g id="edge26" class="edge">
<title>Node1&#45;&gt;Node16</title>
<path fill="none" stroke="#63b8ff" d="M1610.61,-974.52C1308.57,-966 190,-929.57 190,-857.5 190,-857.5 190,-857.5 190,-800.5 190,-761.24 215.83,-721.38 233.01,-699.21"/>
<polygon fill="#63b8ff" stroke="#63b8ff" points="235.67,-701.49 239.23,-691.51 230.22,-697.1 235.67,-701.49"/>
</g>
<!-- Node71 -->
<g id="node37" class="node">
<title>Node71</title>
<g id="a_node37"><a xlink:href="../../dd/dfe/model__part_8h.html" target="_top" xlink:title=" ">
<polygon fill="white" stroke="#666666" points="1747.5,-921 1622.5,-921 1622.5,-902 1747.5,-902 1747.5,-921"/>
<text text-anchor="middle" x="1685" y="-909" font-family="Helvetica,sans-Serif" font-size="10.00">includes/model_part.h</text>
</a>
</g>
</g>
<!-- Node1&#45;&gt;Node71 -->
<g id="edge86" class="edge">
<title>Node1&#45;&gt;Node71</title>
<path fill="none" stroke="#63b8ff" d="M1685,-956.6C1685,-948.98 1685,-940.3 1685,-932.66"/>
<polygon fill="#63b8ff" stroke="#63b8ff" points="1688.5,-932.68 1685,-922.68 1681.5,-932.68 1688.5,-932.68"/>
</g>
<!-- Node5 -->
<g id="node5" class="node">
<title>Node5</title>
<g id="a_node5"><a xlink:title=" ">
<polygon fill="#e0e0e0" stroke="#999999" points="1501.5,-90.5 1436.5,-90.5 1436.5,-71.5 1501.5,-71.5 1501.5,-90.5"/>
<text text-anchor="middle" x="1469" y="-78.5" font-family="Helvetica,sans-Serif" font-size="10.00">stdexcept</text>
</a>
</g>
</g>
<!-- Node4&#45;&gt;Node5 -->
<g id="edge4" class="edge">
<title>Node4&#45;&gt;Node5</title>
<path fill="none" stroke="#63b8ff" d="M944.68,-187.76C997.29,-179.39 1082.69,-165.32 1156,-151 1252.46,-132.16 1364.8,-106.47 1425.2,-92.35"/>
<polygon fill="#63b8ff" stroke="#63b8ff" points="1425.8,-95.81 1434.74,-90.12 1424.2,-88.99 1425.8,-95.81"/>
</g>
<!-- Node6 -->
<g id="node6" class="node">
<title>Node6</title>
<g id="a_node6"><a xlink:title=" ">
<polygon fill="#e0e0e0" stroke="#999999" points="2618,-90.5 2562,-90.5 2562,-71.5 2618,-71.5 2618,-90.5"/>
<text text-anchor="middle" x="2590" y="-78.5" font-family="Helvetica,sans-Serif" font-size="10.00">sstream</text>
</a>
</g>
</g>
<!-- Node4&#45;&gt;Node6 -->
<g id="edge5" class="edge">
<title>Node4&#45;&gt;Node6</title>
<path fill="none" stroke="#63b8ff" d="M944.87,-194.03C1087.31,-189.66 1508.22,-175.47 1857,-151 2122.42,-132.38 2440.85,-98.42 2550.59,-86.38"/>
<polygon fill="#63b8ff" stroke="#63b8ff" points="2550.68,-89.89 2560.23,-85.32 2549.91,-82.93 2550.68,-89.89"/>
</g>
<!-- Node7 -->
<g id="node7" class="node">
<title>Node7</title>
<g id="a_node7"><a xlink:href="../../dc/d25/kratos__export__api_8h.html" target="_top" xlink:title=" ">
<polygon fill="white" stroke="#666666" points="1632,-30 1504,-30 1504,0 1632,0 1632,-30"/>
<text text-anchor="start" x="1512" y="-18" font-family="Helvetica,sans-Serif" font-size="10.00">includes/kratos_export</text>
<text text-anchor="middle" x="1568" y="-7" font-family="Helvetica,sans-Serif" font-size="10.00">_api.h</text>
</a>
</g>
</g>
<!-- Node4&#45;&gt;Node7 -->
<g id="edge6" class="edge">
<title>Node4&#45;&gt;Node7</title>
<path fill="none" stroke="#63b8ff" d="M893.28,-186.58C889.27,-162.85 882.13,-97.82 917,-66 927.52,-56.4 1322.87,-31.05 1492.24,-20.6"/>
<polygon fill="#63b8ff" stroke="#63b8ff" points="1492.27,-24.11 1502.04,-20 1491.84,-17.12 1492.27,-24.11"/>
</g>
<!-- Node8 -->
<g id="node8" class="node">
<title>Node8</title>
<g id="a_node8"><a xlink:href="../../d9/dc0/smart__pointers_8h.html" target="_top" xlink:title=" ">
<polygon fill="white" stroke="#666666" points="1113.5,-151 970.5,-151 970.5,-132 1113.5,-132 1113.5,-151"/>
<text text-anchor="middle" x="1042" y="-139" font-family="Helvetica,sans-Serif" font-size="10.00">includes/smart_pointers.h</text>
</a>
</g>
</g>
<!-- Node4&#45;&gt;Node8 -->
<g id="edge7" class="edge">
<title>Node4&#45;&gt;Node8</title>
<path fill="none" stroke="#63b8ff" d="M919.94,-186.51C943.84,-177.89 980.14,-164.8 1006.95,-155.14"/>
<polygon fill="#63b8ff" stroke="#63b8ff" points="1007.79,-158.56 1016.01,-151.87 1005.41,-151.97 1007.79,-158.56"/>
</g>
<!-- Node12 -->
<g id="node12" class="node">
<title>Node12</title>
<g id="a_node12"><a xlink:href="../../dd/d2d/exception_8h.html" target="_top" xlink:title=" ">
<polygon fill="white" stroke="#666666" points="1847.5,-151 1730.5,-151 1730.5,-132 1847.5,-132 1847.5,-151"/>
<text text-anchor="middle" x="1789" y="-139" font-family="Helvetica,sans-Serif" font-size="10.00">includes/exception.h</text>
</a>
</g>
</g>
<!-- Node4&#45;&gt;Node12 -->
<g id="edge12" class="edge">
<title>Node4&#45;&gt;Node12</title>
<path fill="none" stroke="#63b8ff" d="M944.98,-192.54C1095.49,-183.61 1544.75,-156.98 1718.92,-146.65"/>
<polygon fill="#63b8ff" stroke="#63b8ff" points="1718.95,-150.16 1728.72,-146.07 1718.53,-143.17 1718.95,-150.16"/>
</g>
<!-- Node8&#45;&gt;Node3 -->
<g id="edge8" class="edge">
<title>Node8&#45;&gt;Node3</title>
<path fill="none" stroke="#63b8ff" d="M998.01,-131.53C951.76,-120.17 889.26,-98.13 917,-66 954.98,-22.01 1132.47,-16.04 1214.38,-15.68"/>
<polygon fill="#63b8ff" stroke="#63b8ff" points="1214.23,-19.18 1224.23,-15.67 1214.22,-12.18 1214.23,-19.18"/>
</g>
<!-- Node9 -->
<g id="node9" class="node">
<title>Node9</title>
<g id="a_node9"><a xlink:title=" ">
<polygon fill="#e0e0e0" stroke="#999999" points="1189.5,-90.5 1144.5,-90.5 1144.5,-71.5 1189.5,-71.5 1189.5,-90.5"/>
<text text-anchor="middle" x="1167" y="-78.5" font-family="Helvetica,sans-Serif" font-size="10.00">utility</text>
</a>
</g>
</g>
<!-- Node8&#45;&gt;Node9 -->
<g id="edge9" class="edge">
<title>Node8&#45;&gt;Node9</title>
<path fill="none" stroke="#63b8ff" d="M1060.98,-131.62C1081.36,-122.08 1113.98,-106.81 1137.66,-95.73"/>
<polygon fill="#63b8ff" stroke="#63b8ff" points="1138.89,-99.02 1146.47,-91.61 1135.92,-92.68 1138.89,-99.02"/>
</g>
<!-- Node10 -->
<g id="node10" class="node">
<title>Node10</title>
<g id="a_node10"><a xlink:title=" ">
<polygon fill="#e0e0e0" stroke="#999999" points="984,-90.5 926,-90.5 926,-71.5 984,-71.5 984,-90.5"/>
<text text-anchor="middle" x="955" y="-78.5" font-family="Helvetica,sans-Serif" font-size="10.00">memory</text>
</a>
</g>
</g>
<!-- Node8&#45;&gt;Node10 -->
<g id="edge10" class="edge">
<title>Node8&#45;&gt;Node10</title>
<path fill="none" stroke="#63b8ff" d="M1028.79,-131.62C1015.25,-122.51 993.93,-108.18 977.68,-97.25"/>
<polygon fill="#63b8ff" stroke="#63b8ff" points="979.85,-94.49 969.59,-91.81 975.94,-100.3 979.85,-94.49"/>
</g>
<!-- Node11 -->
<g id="node11" class="node">
<title>Node11</title>
<g id="a_node11"><a xlink:title=" ">
<polygon fill="#e0e0e0" stroke="#999999" points="1126,-96 1002,-96 1002,-66 1126,-66 1126,-96"/>
<text text-anchor="start" x="1010" y="-84" font-family="Helvetica,sans-Serif" font-size="10.00">intrusive_ptr/intrusive</text>
<text text-anchor="middle" x="1064" y="-73" font-family="Helvetica,sans-Serif" font-size="10.00">_ptr.hpp</text>
</a>
</g>
</g>
<!-- Node8&#45;&gt;Node11 -->
<g id="edge11" class="edge">
<title>Node8&#45;&gt;Node11</title>
<path fill="none" stroke="#63b8ff" d="M1045.25,-131.87C1047.73,-125.25 1051.3,-115.78 1054.65,-106.86"/>
<polygon fill="#63b8ff" stroke="#63b8ff" points="1057.92,-108.12 1058.16,-97.53 1051.36,-105.66 1057.92,-108.12"/>
</g>
<!-- Node12&#45;&gt;Node2 -->
<g id="edge14" class="edge">
<title>Node12&#45;&gt;Node2</title>
<path fill="none" stroke="#63b8ff" d="M1789.68,-131.6C1791.43,-115.52 1797.6,-81.85 1819,-66 1862.32,-33.91 2240.93,-20.35 2357.19,-16.92"/>
<polygon fill="#63b8ff" stroke="#63b8ff" points="2357.12,-20.42 2367.01,-16.63 2356.91,-13.42 2357.12,-20.42"/>
</g>
<!-- Node12&#45;&gt;Node3 -->
<g id="edge15" class="edge">
<title>Node12&#45;&gt;Node3</title>
<path fill="none" stroke="#63b8ff" d="M1730.07,-133.31C1684.83,-126.68 1621.29,-114.94 1568,-96 1541.03,-86.41 1538,-75.52 1511,-66 1438.18,-40.32 1348.74,-26.63 1297.46,-20.37"/>
<polygon fill="#63b8ff" stroke="#63b8ff" points="1298.04,-16.92 1287.7,-19.22 1297.22,-23.87 1298.04,-16.92"/>
</g>
<!-- Node12&#45;&gt;Node5 -->
<g id="edge13" class="edge">
<title>Node12&#45;&gt;Node5</title>
<path fill="none" stroke="#63b8ff" d="M1730.27,-133.14C1674.69,-125.65 1589.13,-112.78 1516,-96 1513.24,-95.37 1510.41,-94.66 1507.56,-93.91"/>
<polygon fill="#63b8ff" stroke="#63b8ff" points="1508.71,-90.6 1498.14,-91.29 1506.83,-97.35 1508.71,-90.6"/>
</g>
<!-- Node12&#45;&gt;Node6 -->
<g id="edge16" class="edge">
<title>Node12&#45;&gt;Node6</title>
<path fill="none" stroke="#63b8ff" d="M1847.9,-136.2C2002.93,-124.88 2419.35,-94.46 2550.13,-84.91"/>
<polygon fill="#63b8ff" stroke="#63b8ff" points="2550.3,-88.41 2560.02,-84.19 2549.79,-81.43 2550.3,-88.41"/>
</g>
<!-- Node12&#45;&gt;Node7 -->
<g id="edge18" class="edge">
<title>Node12&#45;&gt;Node7</title>
<path fill="none" stroke="#63b8ff" d="M1730.1,-134.33C1678.25,-127.71 1607.98,-115.44 1588,-96 1573.65,-82.03 1569.01,-59.44 1567.75,-41.82"/>
<polygon fill="#63b8ff" stroke="#63b8ff" points="1571.25,-41.71 1567.4,-31.84 1564.26,-41.96 1571.25,-41.71"/>
</g>
<!-- Node13 -->
<g id="node13" class="node">
<title>Node13</title>
<g id="a_node13"><a xlink:title=" ">
<polygon fill="#e0e0e0" stroke="#999999" points="3041.5,-24.5 2994.5,-24.5 2994.5,-5.5 3041.5,-5.5 3041.5,-24.5"/>
<text text-anchor="middle" x="3018" y="-12.5" font-family="Helvetica,sans-Serif" font-size="10.00">vector</text>
</a>
</g>
</g>
<!-- Node12&#45;&gt;Node13 -->
<g id="edge17" class="edge">
<title>Node12&#45;&gt;Node13</title>
<path fill="none" stroke="#63b8ff" d="M1847.86,-134.54C2064.34,-112.61 2812.59,-36.81 2983.19,-19.53"/>
<polygon fill="#63b8ff" stroke="#63b8ff" points="2983.36,-23.03 2992.95,-18.54 2982.65,-16.06 2983.36,-23.03"/>
</g>
<!-- Node14 -->
<g id="node14" class="node">
<title>Node14</title>
<g id="a_node14"><a xlink:href="../../da/da6/code__location_8h.html" target="_top" xlink:title=" ">
<polygon fill="white" stroke="#666666" points="1733.5,-90.5 1596.5,-90.5 1596.5,-71.5 1733.5,-71.5 1733.5,-90.5"/>
<text text-anchor="middle" x="1665" y="-78.5" font-family="Helvetica,sans-Serif" font-size="10.00">includes/code_location.h</text>
</a>
</g>
</g>
<!-- Node12&#45;&gt;Node14 -->
<g id="edge19" class="edge">
<title>Node12&#45;&gt;Node14</title>
<path fill="none" stroke="#63b8ff" d="M1770.17,-131.62C1750.05,-122.12 1717.89,-106.95 1694.42,-95.88"/>
<polygon fill="#63b8ff" stroke="#63b8ff" points="1695.92,-92.72 1685.38,-91.61 1692.93,-99.05 1695.92,-92.72"/>
</g>
<!-- Node15 -->
<g id="node15" class="node">
<title>Node15</title>
<g id="a_node15"><a xlink:href="../../d9/d06/stl__vector__io_8h.html" target="_top" xlink:title=" ">
<polygon fill="white" stroke="#666666" points="1956,-90.5 1828,-90.5 1828,-71.5 1956,-71.5 1956,-90.5"/>
<text text-anchor="middle" x="1892" y="-78.5" font-family="Helvetica,sans-Serif" font-size="10.00">utilities/stl_vector_io.h</text>
</a>
</g>
</g>
<!-- Node12&#45;&gt;Node15 -->
<g id="edge23" class="edge">
<title>Node12&#45;&gt;Node15</title>
<path fill="none" stroke="#63b8ff" d="M1804.64,-131.62C1820.98,-122.34 1846.87,-107.63 1866.23,-96.64"/>
<polygon fill="#63b8ff" stroke="#63b8ff" points="1867.93,-99.7 1874.89,-91.72 1864.47,-93.61 1867.93,-99.7"/>
</g>
<!-- Node14&#45;&gt;Node2 -->
<g id="edge20" class="edge">
<title>Node14&#45;&gt;Node2</title>
<path fill="none" stroke="#63b8ff" d="M1713.61,-71.05C1724.87,-69.19 1736.83,-67.37 1748,-66 1980.33,-37.43 2262.01,-22.18 2357.51,-17.55"/>
<polygon fill="#63b8ff" stroke="#63b8ff" points="2357.38,-21.06 2367.21,-17.08 2357.05,-14.06 2357.38,-21.06"/>
</g>
<!-- Node14&#45;&gt;Node3 -->
<g id="edge21" class="edge">
<title>Node14&#45;&gt;Node3</title>
<path fill="none" stroke="#63b8ff" d="M1607.7,-71.03C1524.12,-57.96 1370.76,-33.96 1297.32,-22.47"/>
<polygon fill="#63b8ff" stroke="#63b8ff" points="1298.16,-19.06 1287.74,-20.97 1297.08,-25.97 1298.16,-19.06"/>
</g>
<!-- Node14&#45;&gt;Node7 -->
<g id="edge22" class="edge">
<title>Node14&#45;&gt;Node7</title>
<path fill="none" stroke="#63b8ff" d="M1651.51,-71.1C1638.07,-62.23 1616.95,-48.3 1599.31,-36.66"/>
<polygon fill="#63b8ff" stroke="#63b8ff" points="1601.48,-33.9 1591.21,-31.31 1597.63,-39.74 1601.48,-33.9"/>
</g>
<!-- Node15&#45;&gt;Node3 -->
<g id="edge24" class="edge">
<title>Node15&#45;&gt;Node3</title>
<path fill="none" stroke="#63b8ff" d="M1827.52,-73.51C1697.24,-60.4 1405.87,-31.08 1297.58,-20.18"/>
<polygon fill="#63b8ff" stroke="#63b8ff" points="1297.99,-16.71 1287.69,-19.19 1297.29,-23.67 1297.99,-16.71"/>
</g>
<!-- Node15&#45;&gt;Node13 -->
<g id="edge25" class="edge">
<title>Node15&#45;&gt;Node13</title>
<path fill="none" stroke="#63b8ff" d="M1956.34,-71.41C1973.13,-69.4 1991.22,-67.43 2008,-66 2389.26,-33.6 2853.39,-20.13 2982.96,-16.84"/>
<polygon fill="#63b8ff" stroke="#63b8ff" points="2982.68,-20.35 2992.59,-16.6 2982.5,-13.35 2982.68,-20.35"/>
</g>
<!-- Node16&#45;&gt;Node4 -->
<g id="edge27" class="edge">
<title>Node16&#45;&gt;Node4</title>
<path fill="none" stroke="#63b8ff" d="M236.64,-670.67C227.22,-662.56 214.5,-649.61 209,-635 204.31,-622.52 207.83,-618.28 209,-605 223.93,-435.6 176.99,-316.23 330,-242 417.46,-199.57 706.47,-196.13 833.83,-196.77"/>
<polygon fill="#63b8ff" stroke="#63b8ff" points="833.73,-200.27 843.76,-196.83 833.78,-193.27 833.73,-200.27"/>
</g>
<!-- Node17 -->
<g id="node17" class="node">
<title>Node17</title>
<g id="a_node17"><a xlink:href="../../d0/dac/kratos__flags_8h.html" target="_top" xlink:title=" ">
<polygon fill="white" stroke="#666666" points="346,-629.5 218,-629.5 218,-610.5 346,-610.5 346,-629.5"/>
<text text-anchor="middle" x="282" y="-617.5" font-family="Helvetica,sans-Serif" font-size="10.00">includes/kratos_flags.h</text>
</a>
</g>
</g>
<!-- Node16&#45;&gt;Node17 -->
<g id="edge28" class="edge">
<title>Node16&#45;&gt;Node17</title>
<path fill="none" stroke="#63b8ff" d="M253.02,-670.87C257.79,-662.66 265.12,-650.04 271.22,-639.55"/>
<polygon fill="#63b8ff" stroke="#63b8ff" points="274.2,-641.38 276.2,-630.98 268.15,-637.86 274.2,-641.38"/>
</g>
<!-- Node68 -->
<g id="node34" class="node">
<title>Node68</title>
<g id="a_node34"><a xlink:href="../../db/d71/kratos__parameters_8h.html" target="_top" xlink:title=" ">
<polygon fill="white" stroke="#666666" points="2707.5,-629.5 2546.5,-629.5 2546.5,-610.5 2707.5,-610.5 2707.5,-629.5"/>
<text text-anchor="middle" x="2627" y="-617.5" font-family="Helvetica,sans-Serif" font-size="10.00">includes/kratos_parameters.h</text>
</a>
</g>
</g>
<!-- Node16&#45;&gt;Node68 -->
<g id="edge81" class="edge">
<title>Node16&#45;&gt;Node68</title>
<path fill="none" stroke="#63b8ff" d="M305.92,-678.08C622.52,-670.29 2143.69,-632.88 2535.04,-623.26"/>
<polygon fill="#63b8ff" stroke="#63b8ff" points="2534.86,-626.77 2544.77,-623.02 2534.69,-619.77 2534.86,-626.77"/>
</g>
<!-- Node17&#45;&gt;Node4 -->
<g id="edge29" class="edge">
<title>Node17&#45;&gt;Node4</title>
<path fill="none" stroke="#63b8ff" d="M279.97,-610.1C275.67,-590.38 266,-541.48 266,-500 266,-500 266,-500 266,-371.5 266,-287.39 326.62,-274.97 404,-242 479.94,-209.65 720.16,-200.79 834.01,-198.38"/>
<polygon fill="#63b8ff" stroke="#63b8ff" points="833.84,-201.89 843.77,-198.19 833.7,-194.89 833.84,-201.89"/>
</g>
<!-- Node18 -->
<g id="node18" class="node">
<title>Node18</title>
<g id="a_node18"><a xlink:href="../../d9/da0/flags_8h.html" target="_top" xlink:title=" ">
<polygon fill="white" stroke="#666666" points="587.5,-327 484.5,-327 484.5,-308 587.5,-308 587.5,-327"/>
<text text-anchor="middle" x="536" y="-315" font-family="Helvetica,sans-Serif" font-size="10.00">containers/flags.h</text>
</a>
</g>
</g>
<!-- Node17&#45;&gt;Node18 -->
<g id="edge30" class="edge">
<title>Node17&#45;&gt;Node18</title>
<path fill="none" stroke="#63b8ff" d="M286.13,-610.32C296.86,-588.18 327.17,-528.21 361,-484 406.84,-424.1 423.92,-413.45 480,-363 491.17,-352.95 504.29,-342.47 515.02,-334.2"/>
<polygon fill="#63b8ff" stroke="#63b8ff" points="517.03,-337.06 522.87,-328.22 512.79,-331.49 517.03,-337.06"/>
</g>
<!-- Node19 -->
<g id="node19" class="node">
<title>Node19</title>
<g id="a_node19"><a xlink:href="../../dc/d8e/kratos__components_8h.html" target="_top" xlink:title=" ">
<polygon fill="#fff0f0" stroke="red" points="1163.5,-569 998.5,-569 998.5,-550 1163.5,-550 1163.5,-569"/>
<text text-anchor="middle" x="1081" y="-557" font-family="Helvetica,sans-Serif" font-size="10.00">includes/kratos_components.h</text>
</a>
</g>
</g>
<!-- Node17&#45;&gt;Node19 -->
<g id="edge34" class="edge">
<title>Node17&#45;&gt;Node19</title>
<path fill="none" stroke="#63b8ff" d="M346.37,-614.29C487.14,-603.98 822.88,-579.4 987.19,-567.37"/>
<polygon fill="#63b8ff" stroke="#63b8ff" points="987.01,-570.89 996.73,-566.67 986.5,-563.91 987.01,-570.89"/>
</g>
<!-- Node18&#45;&gt;Node2 -->
<g id="edge31" class="edge">
<title>Node18&#45;&gt;Node2</title>
<path fill="none" stroke="#63b8ff" d="M587.71,-313.52C758.07,-302.35 1315.26,-255.15 1743,-96 1767.65,-86.83 1768.94,-73.96 1794,-66 1900.29,-32.23 2247.47,-19.95 2357.34,-16.85"/>
<polygon fill="#63b8ff" stroke="#63b8ff" points="2357.26,-20.36 2367.16,-16.59 2357.07,-13.36 2357.26,-20.36"/>
</g>
<!-- Node18&#45;&gt;Node3 -->
<g id="edge32" class="edge">
<title>Node18&#45;&gt;Node3</title>
<path fill="none" stroke="#63b8ff" d="M523.27,-307.65C512.46,-299.52 497.28,-286.57 488,-272 469.3,-242.66 464,-232.29 464,-197.5 464,-197.5 464,-197.5 464,-140.5 464,-63.78 1051.48,-26.86 1214.49,-18.09"/>
<polygon fill="#63b8ff" stroke="#63b8ff" points="1214.61,-21.59 1224.41,-17.57 1214.24,-14.6 1214.61,-21.59"/>
</g>
<!-- Node18&#45;&gt;Node4 -->
<g id="edge33" class="edge">
<title>Node18&#45;&gt;Node4</title>
<path fill="none" stroke="#63b8ff" d="M547.15,-307.53C569.63,-289.62 619.93,-250.42 640,-242 702.93,-215.6 780.93,-204.86 833.98,-200.49"/>
<polygon fill="#63b8ff" stroke="#63b8ff" points="834.02,-204 843.73,-199.75 833.49,-197.02 834.02,-204"/>
</g>
<!-- Node19&#45;&gt;Node2 -->
<g id="edge35" class="edge">
<title>Node19&#45;&gt;Node2</title>
<path fill="none" stroke="#63b8ff" d="M1163.92,-549.92C1234,-542.17 1336.92,-529.59 1426,-514 1520.51,-497.46 2179.68,-362.04 2269,-327 2314.06,-309.32 2332.76,-309.8 2363,-272 2419.42,-201.47 2404.23,-82.85 2395.32,-35.95"/>
<polygon fill="#63b8ff" stroke="#63b8ff" points="2398.76,-35.31 2393.34,-26.2 2391.9,-36.7 2398.76,-35.31"/>
</g>
<!-- Node19&#45;&gt;Node3 -->
<g id="edge36" class="edge">
<title>Node19&#45;&gt;Node3</title>
<path fill="none" stroke="#63b8ff" d="M998.03,-556.98C814.55,-553.13 385.84,-541.3 326,-514 181.32,-447.98 76,-417.03 76,-258 76,-258 76,-258 76,-140.5 76,-99.61 93.99,-85.39 130,-66 226.87,-13.83 1022.68,-14.74 1214.51,-15.73"/>
<polygon fill="#63b8ff" stroke="#63b8ff" points="1214.22,-19.22 1224.24,-15.78 1214.26,-12.22 1214.22,-19.22"/>
</g>
<!-- Node19&#45;&gt;Node4 -->
<g id="edge38" class="edge">
<title>Node19&#45;&gt;Node4</title>
<path fill="none" stroke="#63b8ff" d="M998.38,-554.59C896.29,-546.6 720.17,-522.23 590,-448 525.82,-411.4 503.26,-395.68 476,-327 472.88,-319.15 471.75,-315.3 476,-308 479.73,-301.59 584.99,-244.41 592,-242 672.81,-214.18 771.6,-203.75 833.93,-199.84"/>
<polygon fill="#63b8ff" stroke="#63b8ff" points="833.84,-203.35 843.62,-199.27 833.43,-196.37 833.84,-203.35"/>
</g>
<!-- Node19&#45;&gt;Node18 -->
<g id="edge39" class="edge">
<title>Node19&#45;&gt;Node18</title>
<path fill="none" stroke="#63b8ff" d="M1056.57,-549.58C1010.58,-532.42 908.53,-492.53 828,-448 807.29,-436.55 805.29,-428.34 784,-418 736.21,-394.79 719.46,-401.42 670,-382 632.09,-367.11 589.86,-346.37 563.13,-332.7"/>
<polygon fill="#63b8ff" stroke="#63b8ff" points="564.85,-329.65 554.36,-328.18 561.64,-335.88 564.85,-329.65"/>
</g>
<!-- Node20 -->
<g id="node20" class="node">
<title>Node20</title>
<g id="a_node20"><a xlink:title=" ">
<polygon fill="#e0e0e0" stroke="#999999" points="1288,-327 1250,-327 1250,-308 1288,-308 1288,-327"/>
<text text-anchor="middle" x="1269" y="-315" font-family="Helvetica,sans-Serif" font-size="10.00">map</text>
</a>
</g>
</g>
<!-- Node19&#45;&gt;Node20 -->
<g id="edge37" class="edge">
<title>Node19&#45;&gt;Node20</title>
<path fill="none" stroke="#63b8ff" d="M1087.91,-549.67C1115.44,-514.54 1217.52,-384.22 1255.05,-336.31"/>
<polygon fill="#63b8ff" stroke="#63b8ff" points="1257.68,-338.63 1261.09,-328.6 1252.17,-334.31 1257.68,-338.63"/>
</g>
<!-- Node62 -->
<g id="node21" class="node">
<title>Node62</title>
<g id="a_node21"><a xlink:href="../../da/d89/variable_8h.html" target="_top" xlink:title=" ">
<polygon fill="white" stroke="#666666" points="1416.5,-508.5 1297.5,-508.5 1297.5,-489.5 1416.5,-489.5 1416.5,-508.5"/>
<text text-anchor="middle" x="1357" y="-496.5" font-family="Helvetica,sans-Serif" font-size="10.00">containers/variable.h</text>
</a>
</g>
</g>
<!-- Node19&#45;&gt;Node62 -->
<g id="edge40" class="edge">
<title>Node19&#45;&gt;Node62</title>
<path fill="none" stroke="#63b8ff" d="M1123.22,-549.55C1171.61,-539.29 1251.02,-522.46 1303.66,-511.31"/>
<polygon fill="#63b8ff" stroke="#63b8ff" points="1304.25,-514.76 1313.31,-509.26 1302.8,-507.91 1304.25,-514.76"/>
</g>
<!-- Node62&#45;&gt;Node2 -->
<g id="edge41" class="edge">
<title>Node62&#45;&gt;Node2</title>
<path fill="none" stroke="#63b8ff" d="M1416.95,-496.04C1482.35,-492.22 1589.19,-480.98 1675,-448 1697.78,-439.24 1698.57,-427.62 1721,-418 1850.49,-362.47 2239.79,-373.02 2338,-272 2402.2,-205.96 2397.92,-83.77 2393.39,-35.94"/>
<polygon fill="#63b8ff" stroke="#63b8ff" points="2396.87,-35.6 2392.32,-26.03 2389.91,-36.35 2396.87,-35.6"/>
</g>
<!-- Node62&#45;&gt;Node3 -->
<g id="edge42" class="edge">
<title>Node62&#45;&gt;Node3</title>
<path fill="none" stroke="#63b8ff" d="M1297.06,-496.84C1140.77,-493.38 723.71,-481.23 590,-448 520.5,-430.73 504.93,-417.96 443,-382 322.65,-312.12 190,-336.67 190,-197.5 190,-197.5 190,-197.5 190,-140.5 190,-35.45 1017.26,-18.87 1214.26,-16.41"/>
<polygon fill="#63b8ff" stroke="#63b8ff" points="1214.06,-19.91 1224.02,-16.29 1213.98,-12.91 1214.06,-19.91"/>
</g>
<!-- Node62&#45;&gt;Node4 -->
<g id="edge43" class="edge">
<title>Node62&#45;&gt;Node4</title>
<path fill="none" stroke="#63b8ff" d="M1297.18,-492.11C1245.63,-485.61 1169.97,-472.64 1108,-448 1084.62,-438.71 1082.19,-429.86 1060,-418 1025.61,-399.63 1007.69,-409.45 980,-382 955.04,-357.26 917.42,-259.19 901.98,-216.99"/>
<polygon fill="#63b8ff" stroke="#63b8ff" points="905.3,-215.88 898.61,-207.67 898.72,-218.26 905.3,-215.88"/>
</g>
<!-- Node62&#45;&gt;Node15 -->
<g id="edge80" class="edge">
<title>Node62&#45;&gt;Node15</title>
<path fill="none" stroke="#63b8ff" d="M1416.8,-494.94C1475.56,-490.22 1566.8,-478.26 1640,-448 1661.53,-439.1 1663.01,-429.98 1683,-418 1759.56,-372.13 1805.65,-396.21 1862,-327 1916.29,-260.32 1903.9,-147.64 1896.01,-102.05"/>
<polygon fill="#63b8ff" stroke="#63b8ff" points="1899.47,-101.51 1894.2,-92.32 1892.59,-102.8 1899.47,-101.51"/>
</g>
<!-- Node63 -->
<g id="node22" class="node">
<title>Node63</title>
<g id="a_node22"><a xlink:href="../../d3/dc3/variable__data_8h.html" target="_top" xlink:title=" ">
<polygon fill="#fff0f0" stroke="red" points="1631,-442.5 1539,-442.5 1539,-423.5 1631,-423.5 1631,-442.5"/>
<text text-anchor="middle" x="1585" y="-430.5" font-family="Helvetica,sans-Serif" font-size="10.00">variable_data.h</text>
</a>
</g>
</g>
<!-- Node62&#45;&gt;Node63 -->
<g id="edge44" class="edge">
<title>Node62&#45;&gt;Node63</title>
<path fill="none" stroke="#63b8ff" d="M1388.7,-489.1C1428.66,-477.88 1497.51,-458.56 1542.13,-446.03"/>
<polygon fill="#63b8ff" stroke="#63b8ff" points="1543.06,-449.41 1551.74,-443.34 1541.17,-442.67 1543.06,-449.41"/>
</g>
<!-- Node63&#45;&gt;Node2 -->
<g id="edge45" class="edge">
<title>Node63&#45;&gt;Node2</title>
<path fill="none" stroke="#63b8ff" d="M1614.07,-423C1665.36,-406.68 1774.78,-369.9 1862,-327 2060.57,-229.34 2091.6,-171.72 2286,-66 2310.47,-52.69 2339.06,-39.21 2360.22,-29.6"/>
<polygon fill="#63b8ff" stroke="#63b8ff" points="2361.49,-32.87 2369.17,-25.57 2358.61,-26.49 2361.49,-32.87"/>
</g>
<!-- Node63&#45;&gt;Node3 -->
<g id="edge46" class="edge">
<title>Node63&#45;&gt;Node3</title>
<path fill="none" stroke="#63b8ff" d="M1538.79,-424.29C1492.11,-415.95 1418.21,-401.22 1356,-382 1293.7,-362.75 1278.3,-356.19 1220,-327 1084.84,-259.34 1035.69,-258.07 929,-151 908.88,-130.81 903.61,-123.47 896,-96 892.44,-83.15 887.24,-76.06 896,-66 936.86,-19.07 1128.43,-14.77 1214.24,-15.28"/>
<polygon fill="#63b8ff" stroke="#63b8ff" points="1214.08,-18.77 1224.11,-15.36 1214.14,-11.77 1214.08,-18.77"/>
</g>
<!-- Node63&#45;&gt;Node4 -->
<g id="edge48" class="edge">
<title>Node63&#45;&gt;Node4</title>
<path fill="none" stroke="#63b8ff" d="M1538.78,-431.07C1438.04,-428.39 1202.08,-418.3 1132,-382 1058.19,-343.77 1076.1,-289.65 1008,-242 987.63,-227.74 962.04,-217.18 940.37,-209.93"/>
<polygon fill="#63b8ff" stroke="#63b8ff" points="941.47,-206.61 930.88,-206.9 939.34,-213.28 941.47,-206.61"/>
</g>
<!-- Node64 -->
<g id="node23" class="node">
<title>Node64</title>
<g id="a_node23"><a xlink:title=" ">
<polygon fill="#e0e0e0" stroke="#999999" points="2465.5,-382 2412.5,-382 2412.5,-363 2465.5,-363 2465.5,-382"/>
<text text-anchor="middle" x="2439" y="-370" font-family="Helvetica,sans-Serif" font-size="10.00">cstddef</text>
</a>
</g>
</g>
<!-- Node63&#45;&gt;Node64 -->
<g id="edge47" class="edge">
<title>Node63&#45;&gt;Node64</title>
<path fill="none" stroke="#63b8ff" d="M1631.22,-428.83C1782.72,-418.46 2262.56,-385.59 2401.17,-376.09"/>
<polygon fill="#63b8ff" stroke="#63b8ff" points="2401.15,-379.6 2410.89,-375.43 2400.68,-372.62 2401.15,-379.6"/>
</g>
<!-- Node49 -->
<g id="node24" class="node">
<title>Node49</title>
<g id="a_node24"><a xlink:href="../../dd/d5f/serializer_8h.html" target="_top" xlink:title=" ">
<polygon fill="white" stroke="#666666" points="1641.5,-382 1528.5,-382 1528.5,-363 1641.5,-363 1641.5,-382"/>
<text text-anchor="middle" x="1585" y="-370" font-family="Helvetica,sans-Serif" font-size="10.00">includes/serializer.h</text>
</a>
</g>
</g>
<!-- Node63&#45;&gt;Node49 -->
<g id="edge49" class="edge">
<title>Node63&#45;&gt;Node49</title>
<path fill="none" stroke="#63b8ff" d="M1585,-423.37C1585,-415.5 1585,-403.6 1585,-393.39"/>
<polygon fill="#63b8ff" stroke="#63b8ff" points="1588.5,-393.68 1585,-383.68 1581.5,-393.68 1588.5,-393.68"/>
</g>
<!-- Node49&#45;&gt;Node2 -->
<g id="edge50" class="edge">
<title>Node49&#45;&gt;Node2</title>
<path fill="none" stroke="#63b8ff" d="M1641.95,-364.66C1811.93,-344.12 2304.7,-283.7 2317,-272 2350.83,-239.84 2340.26,-109.17 2358,-66 2362.65,-54.68 2370,-43.2 2376.59,-34.1"/>
<polygon fill="#63b8ff" stroke="#63b8ff" points="2379.34,-36.26 2382.6,-26.18 2373.76,-32.03 2379.34,-36.26"/>
</g>
<!-- Node49&#45;&gt;Node3 -->
<g id="edge52" class="edge">
<title>Node49&#45;&gt;Node3</title>
<path fill="none" stroke="#63b8ff" d="M1528.29,-363.19C1485.05,-356.01 1424.4,-344.06 1373,-327 1353.94,-320.67 1350.36,-316.15 1332,-308 1321.79,-303.47 971.28,-157.2 962,-151 932.99,-131.62 919.5,-128.17 906,-96 900.84,-83.7 897.26,-76.07 906,-66 945.47,-20.49 1130.21,-15.37 1214.22,-15.46"/>
<polygon fill="#63b8ff" stroke="#63b8ff" points="1214.09,-18.96 1224.11,-15.5 1214.12,-11.96 1214.09,-18.96"/>
</g>
<!-- Node49&#45;&gt;Node4 -->
<g id="edge59" class="edge">
<title>Node49&#45;&gt;Node4</title>
<path fill="none" stroke="#63b8ff" d="M1528.15,-365.05C1477.9,-358.44 1403.02,-346.35 1340,-327 1320.03,-320.87 1316.38,-315.8 1297,-308 1253.56,-290.53 1241.78,-288.6 1198,-272 1164.04,-259.13 1156.85,-252.2 1122,-242 1066.75,-225.83 1002.2,-213.81 956.08,-206.37"/>
<polygon fill="#63b8ff" stroke="#63b8ff" points="956.69,-202.92 946.27,-204.82 955.6,-209.84 956.69,-202.92"/>
</g>
<!-- Node49&#45;&gt;Node6 -->
<g id="edge57" class="edge">
<title>Node49&#45;&gt;Node6</title>
<path fill="none" stroke="#63b8ff" d="M1641.98,-368.48C1797.03,-359.58 2223.42,-330.33 2350,-272 2446.52,-227.53 2538.69,-136.6 2574.41,-98.93"/>
<polygon fill="#63b8ff" stroke="#63b8ff" points="2576.57,-101.74 2580.85,-92.05 2571.46,-96.96 2576.57,-101.74"/>
</g>
<!-- Node49&#45;&gt;Node18 -->
<g id="edge60" class="edge">
<title>Node49&#45;&gt;Node18</title>
<path fill="none" stroke="#63b8ff" d="M1528.23,-368.63C1347.84,-359.52 788.52,-331.26 599.3,-321.7"/>
<polygon fill="#63b8ff" stroke="#63b8ff" points="599.59,-318.21 589.43,-321.2 599.24,-325.2 599.59,-318.21"/>
</g>
<!-- Node49&#45;&gt;Node20 -->
<g id="edge53" class="edge">
<title>Node49&#45;&gt;Node20</title>
<path fill="none" stroke="#63b8ff" d="M1528.06,-364.19C1470.71,-356.43 1379.8,-343.1 1302,-327 1301.17,-326.83 1300.34,-326.65 1299.5,-326.47"/>
<polygon fill="#63b8ff" stroke="#63b8ff" points="1300.48,-323.1 1289.94,-324.2 1298.86,-329.91 1300.48,-323.1"/>
</g>
<!-- Node47 -->
<g id="node25" class="node">
<title>Node47</title>
<g id="a_node25"><a xlink:title=" ">
<polygon fill="#e0e0e0" stroke="#999999" points="1610,-327 1560,-327 1560,-308 1610,-308 1610,-327"/>
<text text-anchor="middle" x="1585" y="-315" font-family="Helvetica,sans-Serif" font-size="10.00">cstring</text>
</a>
</g>
</g>
<!-- Node49&#45;&gt;Node47 -->
<g id="edge51" class="edge">
<title>Node49&#45;&gt;Node47</title>
<path fill="none" stroke="#63b8ff" d="M1585,-362.75C1585,-356.27 1585,-347.16 1585,-338.9"/>
<polygon fill="#63b8ff" stroke="#63b8ff" points="1588.5,-338.96 1585,-328.96 1581.5,-338.96 1588.5,-338.96"/>
</g>
<!-- Node50 -->
<g id="node26" class="node">
<title>Node50</title>
<g id="a_node26"><a xlink:title=" ">
<polygon fill="#e0e0e0" stroke="#999999" points="889.5,-327 796.5,-327 796.5,-308 889.5,-308 889.5,-327"/>
<text text-anchor="middle" x="843" y="-315" font-family="Helvetica,sans-Serif" font-size="10.00">unordered_map</text>
</a>
</g>
</g>
<!-- Node49&#45;&gt;Node50 -->
<g id="edge54" class="edge">
<title>Node49&#45;&gt;Node50</title>
<path fill="none" stroke="#63b8ff" d="M1528.01,-367.43C1390.2,-357.59 1040.08,-332.58 901.12,-322.65"/>
<polygon fill="#63b8ff" stroke="#63b8ff" points="901.65,-319.18 891.42,-321.96 901.15,-326.16 901.65,-319.18"/>
</g>
<!-- Node51 -->
<g id="node27" class="node">
<title>Node51</title>
<g id="a_node27"><a xlink:title=" ">
<polygon fill="#e0e0e0" stroke="#999999" points="1660,-327 1628,-327 1628,-308 1660,-308 1660,-327"/>
<text text-anchor="middle" x="1644" y="-315" font-family="Helvetica,sans-Serif" font-size="10.00">set</text>
</a>
</g>
</g>
<!-- Node49&#45;&gt;Node51 -->
<g id="edge55" class="edge">
<title>Node49&#45;&gt;Node51</title>
<path fill="none" stroke="#63b8ff" d="M1595.01,-362.51C1603.37,-355 1615.5,-344.1 1625.6,-335.03"/>
<polygon fill="#63b8ff" stroke="#63b8ff" points="1627.91,-337.66 1633.01,-328.37 1623.24,-332.45 1627.91,-337.66"/>
</g>
<!-- Node52 -->
<g id="node28" class="node">
<title>Node52</title>
<g id="a_node28"><a xlink:title=" ">
<polygon fill="#e0e0e0" stroke="#999999" points="1764,-327 1678,-327 1678,-308 1764,-308 1764,-327"/>
<text text-anchor="middle" x="1721" y="-315" font-family="Helvetica,sans-Serif" font-size="10.00">unordered_set</text>
</a>
</g>
</g>
<!-- Node49&#45;&gt;Node52 -->
<g id="edge56" class="edge">
<title>Node49&#45;&gt;Node52</title>
<path fill="none" stroke="#63b8ff" d="M1608.07,-362.51C1629.89,-354.01 1662.88,-341.15 1687.58,-331.53"/>
<polygon fill="#63b8ff" stroke="#63b8ff" points="1688.81,-334.8 1696.86,-327.91 1686.27,-328.28 1688.81,-334.8"/>
</g>
<!-- Node53 -->
<g id="node29" class="node">
<title>Node53</title>
<g id="a_node29"><a xlink:title=" ">
<polygon fill="#e0e0e0" stroke="#999999" points="1837.5,-327 1782.5,-327 1782.5,-308 1837.5,-308 1837.5,-327"/>
<text text-anchor="middle" x="1810" y="-315" font-family="Helvetica,sans-Serif" font-size="10.00">fstream</text>
</a>
</g>
</g>
<!-- Node49&#45;&gt;Node53 -->
<g id="edge58" class="edge">
<title>Node49&#45;&gt;Node53</title>
<path fill="none" stroke="#63b8ff" d="M1623.17,-362.51C1664.43,-352.79 1729.82,-337.39 1771.29,-327.62"/>
<polygon fill="#63b8ff" stroke="#63b8ff" points="1771.91,-331.07 1780.84,-325.37 1770.3,-324.26 1771.91,-331.07"/>
</g>
<!-- Node28 -->
<g id="node30" class="node">
<title>Node28</title>
<g id="a_node30"><a xlink:href="../../d9/d3e/ublas__interface_8h.html" target="_top" xlink:title=" ">
<polygon fill="#fff0f0" stroke="red" points="1512,-266.5 1368,-266.5 1368,-247.5 1512,-247.5 1512,-266.5"/>
<text text-anchor="middle" x="1440" y="-254.5" font-family="Helvetica,sans-Serif" font-size="10.00">includes/ublas_interface.h</text>
</a>
</g>
</g>
<!-- Node49&#45;&gt;Node28 -->
<g id="edge61" class="edge">
<title>Node49&#45;&gt;Node28</title>
<path fill="none" stroke="#63b8ff" d="M1575.99,-362.91C1562.65,-350.34 1536.67,-326.43 1513,-308 1496.95,-295.5 1477.97,-282.55 1463.38,-272.96"/>
<polygon fill="#63b8ff" stroke="#63b8ff" points="1465.64,-270.26 1455.35,-267.74 1461.82,-276.12 1465.64,-270.26"/>
</g>
<!-- Node24 -->
<g id="node31" class="node">
<title>Node24</title>
<g id="a_node31"><a xlink:href="../../d9/d36/array__1d_8h.html" target="_top" xlink:title=" ">
<polygon fill="#fff0f0" stroke="red" points="1504,-327 1382,-327 1382,-308 1504,-308 1504,-327"/>
<text text-anchor="middle" x="1443" y="-315" font-family="Helvetica,sans-Serif" font-size="10.00">containers/array_1d.h</text>
</a>
</g>
</g>
<!-- Node49&#45;&gt;Node24 -->
<g id="edge65" class="edge">
<title>Node49&#45;&gt;Node24</title>
<path fill="none" stroke="#63b8ff" d="M1560.91,-362.51C1537.93,-353.93 1503.06,-340.92 1477.2,-331.27"/>
<polygon fill="#63b8ff" stroke="#63b8ff" points="1478.74,-328.1 1468.15,-327.89 1476.3,-334.66 1478.74,-328.1"/>
</g>
<!-- Node54 -->
<g id="node32" class="node">
<title>Node54</title>
<g id="a_node32"><a xlink:href="../../d5/d10/weak__pointer__vector_8h.html" target="_top" xlink:title=" ">
<polygon fill="#fff0f0" stroke="red" points="2307.5,-272 2170.5,-272 2170.5,-242 2307.5,-242 2307.5,-272"/>
<text text-anchor="start" x="2178.5" y="-260" font-family="Helvetica,sans-Serif" font-size="10.00">containers/weak_pointer</text>
<text text-anchor="middle" x="2239" y="-249" font-family="Helvetica,sans-Serif" font-size="10.00">_vector.h</text>
</a>
</g>
</g>
<!-- Node49&#45;&gt;Node54 -->
<g id="edge70" class="edge">
<title>Node49&#45;&gt;Node54</title>
<path fill="none" stroke="#63b8ff" d="M1641.94,-363.6C1701.43,-355.19 1797.43,-341.16 1880,-327 1976.39,-310.47 2086.81,-288.84 2159.45,-274.24"/>
<polygon fill="#63b8ff" stroke="#63b8ff" points="2159.73,-277.75 2168.84,-272.35 2158.35,-270.89 2159.73,-277.75"/>
</g>
<!-- Node58 -->
<g id="node33" class="node">
<title>Node58</title>
<g id="a_node33"><a xlink:href="../../d1/d8c/logger_8h.html" target="_top" xlink:title=" ">
<polygon fill="#fff0f0" stroke="red" points="1886,-206 1766,-206 1766,-187 1886,-187 1886,-206"/>
<text text-anchor="middle" x="1826" y="-194" font-family="Helvetica,sans-Serif" font-size="10.00">input_output/logger.h</text>
</a>
</g>
</g>
<!-- Node49&#45;&gt;Node58 -->
<g id="edge76" class="edge">
<title>Node49&#45;&gt;Node58</title>
<path fill="none" stroke="#63b8ff" d="M1641.94,-370.1C1710.97,-367.07 1821.29,-357.45 1847,-327 1862.94,-308.13 1824.62,-274.11 1824,-272 1818.78,-254.15 1820.06,-232.85 1822.18,-217.61"/>
<polygon fill="#63b8ff" stroke="#63b8ff" points="1825.6,-218.37 1823.78,-207.93 1818.69,-217.23 1825.6,-218.37"/>
</g>
<!-- Node28&#45;&gt;Node2 -->
<g id="edge62" class="edge">
<title>Node28&#45;&gt;Node2</title>
<path fill="none" stroke="#63b8ff" d="M1480.27,-247.04C1555.02,-230.15 1720.12,-191.61 1857,-151 1968.7,-117.86 1992.15,-95.01 2105,-66 2195.09,-42.84 2303.92,-27.09 2357.65,-20.1"/>
<polygon fill="#63b8ff" stroke="#63b8ff" points="2357.89,-23.6 2367.36,-18.86 2357,-16.65 2357.89,-23.6"/>
</g>
<!-- Node28&#45;&gt;Node3 -->
<g id="edge63" class="edge">
<title>Node28&#45;&gt;Node3</title>
<path fill="none" stroke="#63b8ff" d="M1394.39,-247.05C1368.86,-239.89 1338.2,-227.38 1318,-206 1271.96,-157.29 1260.1,-73.91 1257.05,-35.92"/>
<polygon fill="#63b8ff" stroke="#63b8ff" points="1260.57,-36.14 1256.42,-26.4 1253.59,-36.61 1260.57,-36.14"/>
</g>
<!-- Node28&#45;&gt;Node4 -->
<g id="edge64" class="edge">
<title>Node28&#45;&gt;Node4</title>
<path fill="none" stroke="#63b8ff" d="M1367.63,-248.23C1259.45,-236.62 1057.5,-214.94 956.22,-204.07"/>
<polygon fill="#63b8ff" stroke="#63b8ff" points="956.79,-200.61 946.47,-203.03 956.04,-207.57 956.79,-200.61"/>
</g>
<!-- Node24&#45;&gt;Node2 -->
<g id="edge66" class="edge">
<title>Node24&#45;&gt;Node2</title>
<path fill="none" stroke="#63b8ff" d="M1489.16,-307.52C1571.64,-290.96 1749.31,-253 1895,-206 2019.1,-165.97 2046.75,-146.45 2167,-96 2197.84,-83.06 2204.72,-77.81 2236,-66 2277.46,-50.34 2326.26,-35.11 2357.87,-25.66"/>
<polygon fill="#63b8ff" stroke="#63b8ff" points="2358.65,-29.08 2367.24,-22.88 2356.66,-22.37 2358.65,-29.08"/>
</g>
<!-- Node24&#45;&gt;Node3 -->
<g id="edge67" class="edge">
<title>Node24&#45;&gt;Node3</title>
<path fill="none" stroke="#63b8ff" d="M1421.42,-307.58C1403.69,-299.68 1378.42,-287.08 1359,-272 1327.68,-247.69 1321.29,-238.78 1299,-206 1269.49,-162.59 1263.41,-147.97 1256,-96 1253.12,-75.82 1253.55,-52.48 1254.43,-36.24"/>
<polygon fill="#63b8ff" stroke="#63b8ff" points="1257.91,-36.66 1255.08,-26.45 1250.92,-36.19 1257.91,-36.66"/>
</g>
<!-- Node24&#45;&gt;Node4 -->
<g id="edge68" class="edge">
<title>Node24&#45;&gt;Node4</title>
<path fill="none" stroke="#63b8ff" d="M1417.94,-307.52C1373.96,-292.06 1279.77,-260.33 1198,-242 1115.14,-223.43 1017.74,-210.71 956.19,-203.77"/>
<polygon fill="#63b8ff" stroke="#63b8ff" points="956.58,-200.29 946.25,-202.67 955.81,-207.25 956.58,-200.29"/>
</g>
<!-- Node24&#45;&gt;Node28 -->
<g id="edge69" class="edge">
<title>Node24&#45;&gt;Node28</title>
<path fill="none" stroke="#63b8ff" d="M1442.56,-307.87C1442.15,-300 1441.54,-288.1 1441.02,-277.89"/>
<polygon fill="#63b8ff" stroke="#63b8ff" points="1444.53,-277.99 1440.52,-268.18 1437.54,-278.35 1444.53,-277.99"/>
</g>
<!-- Node54&#45;&gt;Node2 -->
<g id="edge71" class="edge">
<title>Node54&#45;&gt;Node2</title>
<path fill="none" stroke="#63b8ff" d="M2241.07,-241.64C2246.68,-207.44 2265,-119.96 2312,-66 2325.29,-50.74 2344.38,-38.48 2360.46,-29.92"/>
<polygon fill="#63b8ff" stroke="#63b8ff" points="2361.81,-33.16 2369.15,-25.52 2358.65,-26.92 2361.81,-33.16"/>
</g>
<!-- Node54&#45;&gt;Node3 -->
<g id="edge72" class="edge">
<title>Node54&#45;&gt;Node3</title>
<path fill="none" stroke="#63b8ff" d="M2237.22,-241.63C2231.83,-204.96 2212.04,-107.88 2150,-66 2089.59,-25.22 1567.77,-34.13 1495,-30 1425.76,-26.07 1345.24,-21.31 1297.57,-18.48"/>
<polygon fill="#63b8ff" stroke="#63b8ff" points="1297.88,-14.99 1287.69,-17.89 1297.47,-21.98 1297.88,-14.99"/>
</g>
<!-- Node54&#45;&gt;Node4 -->
<g id="edge75" class="edge">
<title>Node54&#45;&gt;Node4</title>
<path fill="none" stroke="#63b8ff" d="M2170.2,-250.57C2132.38,-247.72 2084.62,-244.34 2042,-242 1627.2,-219.22 1127.39,-204.03 956.06,-199.18"/>
<polygon fill="#63b8ff" stroke="#63b8ff" points="956.38,-195.68 946.29,-198.9 956.19,-202.68 956.38,-195.68"/>
</g>
<!-- Node54&#45;&gt;Node6 -->
<g id="edge73" class="edge">
<title>Node54&#45;&gt;Node6</title>
<path fill="none" stroke="#63b8ff" d="M2264.14,-241.68C2306.45,-217.78 2394.86,-168.78 2472,-132 2500.09,-118.61 2532.7,-104.93 2556.52,-95.27"/>
<polygon fill="#63b8ff" stroke="#63b8ff" points="2557.74,-98.55 2565.71,-91.56 2555.13,-92.05 2557.74,-98.55"/>
</g>
<!-- Node54&#45;&gt;Node13 -->
<g id="edge74" class="edge">
<title>Node54&#45;&gt;Node13</title>
<path fill="none" stroke="#63b8ff" d="M2285.98,-241.53C2429.2,-197.4 2858.22,-65.23 2983.37,-26.67"/>
<polygon fill="#63b8ff" stroke="#63b8ff" points="2984.21,-30.07 2992.74,-23.78 2982.15,-23.38 2984.21,-30.07"/>
</g>
<!-- Node58&#45;&gt;Node2 -->
<g id="edge77" class="edge">
<title>Node58&#45;&gt;Node2</title>
<path fill="none" stroke="#63b8ff" d="M1849.28,-186.65C1907.54,-164.67 2064.49,-106.46 2198,-66 2253.39,-49.22 2318.75,-33.03 2357.44,-23.82"/>
<polygon fill="#63b8ff" stroke="#63b8ff" points="2358.15,-27.24 2367.07,-21.54 2356.54,-20.43 2358.15,-27.24"/>
</g>
<!-- Node58&#45;&gt;Node3 -->
<g id="edge78" class="edge">
<title>Node58&#45;&gt;Node3</title>
<path fill="none" stroke="#63b8ff" d="M1765.83,-187.24C1685.95,-174.78 1541.72,-147.02 1428,-96 1406.4,-86.31 1404.93,-77.04 1384,-66 1355.32,-50.87 1321.03,-37.72 1295.15,-28.7"/>
<polygon fill="#63b8ff" stroke="#63b8ff" points="1296.29,-25.39 1285.7,-25.47 1294.03,-32.02 1296.29,-25.39"/>
</g>
<!-- Node58&#45;&gt;Node12 -->
<g id="edge79" class="edge">
<title>Node58&#45;&gt;Node12</title>
<path fill="none" stroke="#63b8ff" d="M1819.89,-186.75C1814.99,-179.73 1807.95,-169.64 1801.83,-160.87"/>
<polygon fill="#63b8ff" stroke="#63b8ff" points="1804.7,-158.88 1796.11,-152.68 1798.96,-162.89 1804.7,-158.88"/>
</g>
<!-- Node68&#45;&gt;Node49 -->
<g id="edge84" class="edge">
<title>Node68&#45;&gt;Node49</title>
<path fill="none" stroke="#63b8ff" d="M2604.08,-610C2542.92,-586.3 2370.41,-521.38 2222,-484 2114.57,-456.94 1794.05,-405.91 1652.96,-383.96"/>
<polygon fill="#63b8ff" stroke="#63b8ff" points="1653.81,-380.55 1643.39,-382.48 1652.74,-387.47 1653.81,-380.55"/>
</g>
<!-- Node68&#45;&gt;Node28 -->
<g id="edge85" class="edge">
<title>Node68&#45;&gt;Node28</title>
<path fill="none" stroke="#63b8ff" d="M2582.45,-610.01C2346.4,-562.32 1252.06,-340.63 1241,-327 1205.05,-282.68 1286.88,-266.76 1356.26,-261.08"/>
<polygon fill="#63b8ff" stroke="#63b8ff" points="1356.49,-264.57 1366.2,-260.33 1355.96,-257.59 1356.49,-264.57"/>
</g>
<!-- Node69 -->
<g id="node35" class="node">
<title>Node69</title>
<g id="a_node35"><a xlink:title=" ">
<polygon fill="#e0e0e0" stroke="#999999" points="2750,-569 2682,-569 2682,-550 2750,-550 2750,-569"/>
<text text-anchor="middle" x="2716" y="-557" font-family="Helvetica,sans-Serif" font-size="10.00">filesystem</text>
</a>
</g>
</g>
<!-- Node68&#45;&gt;Node69 -->
<g id="edge82" class="edge">
<title>Node68&#45;&gt;Node69</title>
<path fill="none" stroke="#63b8ff" d="M2640.52,-610.12C2654.37,-601.01 2676.18,-586.68 2692.8,-575.75"/>
<polygon fill="#63b8ff" stroke="#63b8ff" points="2694.66,-578.72 2701.09,-570.3 2690.81,-572.87 2694.66,-578.72"/>
</g>
<!-- Node70 -->
<g id="node36" class="node">
<title>Node70</title>
<g id="a_node36"><a xlink:title=" ">
<polygon fill="#e0e0e0" stroke="#999999" points="2664,-569 2560,-569 2560,-550 2664,-550 2664,-569"/>
<text text-anchor="middle" x="2612" y="-557" font-family="Helvetica,sans-Serif" font-size="10.00">json/json_fwd.hpp</text>
</a>
</g>
</g>
<!-- Node68&#45;&gt;Node70 -->
<g id="edge83" class="edge">
<title>Node68&#45;&gt;Node70</title>
<path fill="none" stroke="#63b8ff" d="M2624.79,-610.37C2622.75,-602.42 2619.65,-590.33 2617.01,-580.05"/>
<polygon fill="#63b8ff" stroke="#63b8ff" points="2620.47,-579.45 2614.6,-570.63 2613.69,-581.19 2620.47,-579.45"/>
</g>
<!-- Node71&#45;&gt;Node2 -->
<g id="edge87" class="edge">
<title>Node71&#45;&gt;Node2</title>
<path fill="none" stroke="#63b8ff" d="M1747.65,-910.16C1984.49,-908.61 2817.55,-900.74 2931,-866 3227.65,-775.16 3132,-507.75 3132,-197.5 3132,-197.5 3132,-197.5 3132,-140.5 3132,-71.19 3061.41,-85.84 2995,-66 2886.77,-33.66 2535.24,-20.4 2424.64,-16.96"/>
<polygon fill="#63b8ff" stroke="#63b8ff" points="2424.85,-13.46 2414.75,-16.66 2424.64,-20.46 2424.85,-13.46"/>
</g>
<!-- Node71&#45;&gt;Node3 -->
<g id="edge88" class="edge">
<title>Node71&#45;&gt;Node3</title>
<path fill="none" stroke="#63b8ff" d="M1622.05,-910.11C1384.84,-908.38 545.07,-899.94 280,-866 153.43,-849.8 0,-930.1 0,-802.5 0,-802.5 0,-802.5 0,-140.5 0,-101.59 12.41,-85.65 46,-66 97.45,-35.89 1007.82,-19.88 1214.5,-16.63"/>
<polygon fill="#63b8ff" stroke="#63b8ff" points="1214.27,-20.13 1224.21,-16.47 1214.16,-13.13 1214.27,-20.13"/>
</g>
<!-- Node71&#45;&gt;Node4 -->
<g id="edge91" class="edge">
<title>Node71&#45;&gt;Node4</title>
<path fill="none" stroke="#63b8ff" d="M1622.36,-909.95C1376.35,-907.56 483.9,-896.85 361,-866 228.1,-832.64 114,-818.52 114,-681.5 114,-681.5 114,-681.5 114,-558.5 114,-400.27 139.86,-320.91 277,-242 324.43,-214.71 686.93,-202.69 833.65,-198.9"/>
<polygon fill="#63b8ff" stroke="#63b8ff" points="833.66,-202.4 843.57,-198.65 833.48,-195.41 833.66,-202.4"/>
</g>
<!-- Node71&#45;&gt;Node6 -->
<g id="edge89" class="edge">
<title>Node71&#45;&gt;Node6</title>
<path fill="none" stroke="#63b8ff" d="M1747.66,-910.99C1958.04,-912.17 2637.8,-912.22 2851,-866 2923.76,-850.23 3006,-876.95 3006,-802.5 3006,-802.5 3006,-802.5 3006,-679.5 3006,-515.54 2930,-482.46 2930,-318.5 2930,-318.5 2930,-318.5 2930,-256 2930,-122.42 2719.45,-91.32 2629.73,-84.14"/>
<polygon fill="#63b8ff" stroke="#63b8ff" points="2630.14,-80.66 2619.91,-83.42 2629.63,-87.64 2630.14,-80.66"/>
</g>
<!-- Node71&#45;&gt;Node17 -->
<g id="edge176" class="edge">
<title>Node71&#45;&gt;Node17</title>
<path fill="none" stroke="#63b8ff" d="M1622.29,-910.08C1370.09,-908.17 440.87,-898.91 388,-866 360.82,-849.08 354,-834.51 354,-802.5 354,-802.5 354,-802.5 354,-740 354,-698.4 321.4,-658.9 300.07,-637.51"/>
<polygon fill="#63b8ff" stroke="#63b8ff" points="302.73,-635.22 293.1,-630.8 297.87,-640.26 302.73,-635.22"/>
</g>
<!-- Node71&#45;&gt;Node62 -->
<g id="edge178" class="edge">
<title>Node71&#45;&gt;Node62</title>
<path fill="none" stroke="#63b8ff" d="M1629.24,-901.5C1544.74,-886.27 1394,-852.14 1394,-802.5 1394,-802.5 1394,-802.5 1394,-619 1394,-582.35 1377.8,-542.11 1366.84,-519.06"/>
<polygon fill="#63b8ff" stroke="#63b8ff" points="1370.08,-517.72 1362.51,-510.32 1363.81,-520.83 1370.08,-517.72"/>
</g>
<!-- Node71&#45;&gt;Node63 -->
<g id="edge179" class="edge">
<title>Node71&#45;&gt;Node63</title>
<path fill="none" stroke="#63b8ff" d="M1647.82,-901.58C1602.82,-888.31 1533,-858.67 1533,-802.5 1533,-802.5 1533,-802.5 1533,-619 1533,-556.33 1561,-486.02 1575.91,-453.03"/>
<polygon fill="#63b8ff" stroke="#63b8ff" points="1578.89,-454.9 1579.93,-444.36 1572.54,-451.96 1578.89,-454.9"/>
</g>
<!-- Node71&#45;&gt;Node64 -->
<g id="edge90" class="edge">
<title>Node71&#45;&gt;Node64</title>
<path fill="none" stroke="#63b8ff" d="M1747.98,-904.73C1870.45,-890.31 2142.69,-842.12 2303,-690 2393.16,-604.44 2426.57,-449.19 2435.94,-393.81"/>
<polygon fill="#63b8ff" stroke="#63b8ff" points="2439.39,-394.42 2437.51,-383.99 2432.48,-393.31 2439.39,-394.42"/>
</g>
<!-- Node71&#45;&gt;Node49 -->
<g id="edge92" class="edge">
<title>Node71&#45;&gt;Node49</title>
<path fill="none" stroke="#63b8ff" d="M1672.79,-901.62C1651.31,-884.86 1609,-846.29 1609,-802.5 1609,-802.5 1609,-802.5 1609,-679.5 1609,-562.46 1690.41,-523.62 1640,-418 1634.17,-405.78 1623.16,-395.83 1612.51,-388.46"/>
<polygon fill="#63b8ff" stroke="#63b8ff" points="1614.6,-385.64 1604.27,-383.24 1610.85,-391.55 1614.6,-385.64"/>
</g>
<!-- Node71&#45;&gt;Node58 -->
<g id="edge175" class="edge">
<title>Node71&#45;&gt;Node58</title>
<path fill="none" stroke="#63b8ff" d="M1747.82,-911.14C1985.47,-912.76 2816,-910.68 2816,-802.5 2816,-802.5 2816,-802.5 2816,-619 2816,-579.22 2788.61,-576.57 2759,-550 2744.94,-537.38 2492.35,-370.48 2475,-363 2313.55,-293.37 2260.2,-316.11 2090,-272 2010.71,-251.45 1918.8,-224.89 1867.01,-209.66"/>
<polygon fill="#63b8ff" stroke="#63b8ff" points="1868.01,-206.31 1857.43,-206.84 1866.03,-213.02 1868.01,-206.31"/>
</g>
<!-- Node72 -->
<g id="node38" class="node">
<title>Node72</title>
<g id="a_node38"><a xlink:href="../../de/db8/process__info_8h.html" target="_top" xlink:title=" ">
<polygon fill="white" stroke="#666666" points="2293.5,-690 2162.5,-690 2162.5,-671 2293.5,-671 2293.5,-690"/>
<text text-anchor="middle" x="2228" y="-678" font-family="Helvetica,sans-Serif" font-size="10.00">includes/process_info.h</text>
</a>
</g>
</g>
<!-- Node71&#45;&gt;Node72 -->
<g id="edge93" class="edge">
<title>Node71&#45;&gt;Node72</title>
<path fill="none" stroke="#63b8ff" d="M1706.11,-901.63C1762.34,-878 1920.48,-811.52 2052,-756 2102.48,-734.69 2161.06,-709.88 2196.3,-694.94"/>
<polygon fill="#63b8ff" stroke="#63b8ff" points="2197.64,-698.17 2205.48,-691.05 2194.91,-691.73 2197.64,-698.17"/>
</g>
<!-- Node73 -->
<g id="node39" class="node">
<title>Node73</title>
<g id="a_node39"><a xlink:href="../../d1/d82/data__value__container_8h.html" target="_top" xlink:title=" ">
<polygon fill="white" stroke="#666666" points="1948.5,-635 1823.5,-635 1823.5,-605 1948.5,-605 1948.5,-635"/>
<text text-anchor="start" x="1831.5" y="-623" font-family="Helvetica,sans-Serif" font-size="10.00">containers/data_value</text>
<text text-anchor="middle" x="1886" y="-612" font-family="Helvetica,sans-Serif" font-size="10.00">_container.h</text>
</a>
</g>
</g>
<!-- Node71&#45;&gt;Node73 -->
<g id="edge109" class="edge">
<title>Node71&#45;&gt;Node73</title>
<path fill="none" stroke="#63b8ff" d="M1685,-901.54C1685,-883.03 1685,-839.25 1685,-802.5 1685,-802.5 1685,-802.5 1685,-740 1685,-678.76 1754.95,-648.36 1812.32,-633.73"/>
<polygon fill="#63b8ff" stroke="#63b8ff" points="1812.86,-637.2 1821.76,-631.44 1811.22,-630.39 1812.86,-637.2"/>
</g>
<!-- Node74 -->
<g id="node40" class="node">
<title>Node74</title>
<g id="a_node40"><a xlink:href="../../d8/d3b/mesh_8h.html" target="_top" xlink:title=" ">
<polygon fill="#fff0f0" stroke="red" points="1809,-811 1713,-811 1713,-792 1809,-792 1809,-811"/>
<text text-anchor="middle" x="1761" y="-799" font-family="Helvetica,sans-Serif" font-size="10.00">includes/mesh.h</text>
</a>
</g>
</g>
<!-- Node71&#45;&gt;Node74 -->
<g id="edge110" class="edge">
<title>Node71&#45;&gt;Node74</title>
<path fill="none" stroke="#63b8ff" d="M1691.22,-901.66C1703.63,-884.02 1731.71,-844.12 1748.21,-820.67"/>
<polygon fill="#63b8ff" stroke="#63b8ff" points="1750.93,-822.89 1753.82,-812.7 1745.21,-818.86 1750.93,-822.89"/>
</g>
<!-- Node78 -->
<g id="node42" class="node">
<title>Node78</title>
<g id="a_node42"><a xlink:href="../../d2/d58/pointer__vector__map_8h.html" target="_top" xlink:title=" ">
<polygon fill="#fff0f0" stroke="red" points="2781.5,-448 2676.5,-448 2676.5,-418 2781.5,-418 2781.5,-448"/>
<text text-anchor="start" x="2684.5" y="-436" font-family="Helvetica,sans-Serif" font-size="10.00">containers/pointer</text>
<text text-anchor="middle" x="2729" y="-425" font-family="Helvetica,sans-Serif" font-size="10.00">_vector_map.h</text>
</a>
</g>
</g>
<!-- Node71&#45;&gt;Node78 -->
<g id="edge173" class="edge">
<title>Node71&#45;&gt;Node78</title>
<path fill="none" stroke="#63b8ff" d="M1747.88,-910.44C1982.07,-909.91 2792.27,-905.23 2830,-866 2927.36,-764.78 2879.24,-681.53 2830,-550 2815.41,-511.02 2781.15,-476.51 2756.58,-455.47"/>
<polygon fill="#63b8ff" stroke="#63b8ff" points="2759.1,-453.02 2749.18,-449.31 2754.63,-458.4 2759.1,-453.02"/>
</g>
<!-- Node91 -->
<g id="node44" class="node">
<title>Node91</title>
<g id="a_node44"><a xlink:href="../../da/da4/master__slave__constraint_8h.html" target="_top" xlink:title=" ">
<polygon fill="#fff0f0" stroke="red" points="794,-756 668,-756 668,-726 794,-726 794,-756"/>
<text text-anchor="start" x="676" y="-744" font-family="Helvetica,sans-Serif" font-size="10.00">includes/master_slave</text>
<text text-anchor="middle" x="731" y="-733" font-family="Helvetica,sans-Serif" font-size="10.00">_constraint.h</text>
</a>
</g>
</g>
<!-- Node71&#45;&gt;Node91 -->
<g id="edge177" class="edge">
<title>Node71&#45;&gt;Node91</title>
<path fill="none" stroke="#63b8ff" d="M1622.15,-909.95C1438.57,-907.96 911.68,-899.38 842,-866 797.01,-844.45 762.22,-795.57 744.33,-766.02"/>
<polygon fill="#63b8ff" stroke="#63b8ff" points="747.56,-764.62 739.49,-757.76 741.53,-768.16 747.56,-764.62"/>
</g>
<!-- Node103 -->
<g id="node45" class="node">
<title>Node103</title>
<g id="a_node45"><a xlink:href="../../d3/dad/geometry__container_8h.html" target="_top" xlink:title=" ">
<polygon fill="white" stroke="#666666" points="488,-514 370,-514 370,-484 488,-484 488,-514"/>
<text text-anchor="start" x="378" y="-502" font-family="Helvetica,sans-Serif" font-size="10.00">containers/geometry</text>
<text text-anchor="middle" x="429" y="-491" font-family="Helvetica,sans-Serif" font-size="10.00">_container.h</text>
</a>
</g>
</g>
<!-- Node71&#45;&gt;Node103 -->
<g id="edge145" class="edge">
<title>Node71&#45;&gt;Node103</title>
<path fill="none" stroke="#63b8ff" d="M1622.25,-908.54C1364.66,-900.11 402,-864.46 402,-802.5 402,-802.5 402,-802.5 402,-740 402,-661.41 416.47,-569.24 424.23,-525.51"/>
<polygon fill="#63b8ff" stroke="#63b8ff" points="427.65,-526.23 425.99,-515.76 420.77,-524.98 427.65,-526.23"/>
</g>
<!-- Node104 -->
<g id="node46" class="node">
<title>Node104</title>
<g id="a_node46"><a xlink:href="../../da/d92/pointer__hash__map__set_8h.html" target="_top" xlink:title=" ">
<polygon fill="#fff0f0" stroke="red" points="941.5,-448 836.5,-448 836.5,-418 941.5,-418 941.5,-448"/>
<text text-anchor="start" x="844.5" y="-436" font-family="Helvetica,sans-Serif" font-size="10.00">containers/pointer</text>
<text text-anchor="middle" x="889" y="-425" font-family="Helvetica,sans-Serif" font-size="10.00">_hash_map_set.h</text>
</a>
</g>
</g>
<!-- Node71&#45;&gt;Node104 -->
<g id="edge174" class="edge">
<title>Node71&#45;&gt;Node104</title>
<path fill="none" stroke="#63b8ff" d="M1622.01,-908.9C1428.55,-903.17 856,-879.7 856,-802.5 856,-802.5 856,-802.5 856,-558.5 856,-522.98 868.7,-483.61 878.35,-458.84"/>
<polygon fill="#63b8ff" stroke="#63b8ff" points="881.56,-460.23 882.07,-449.64 875.07,-457.6 881.56,-460.23"/>
</g>
<!-- Node105 -->
<g id="node47" class="node">
<title>Node105</title>
<g id="a_node47"><a xlink:href="../../d4/dfe/element_8h.html" target="_top" xlink:title=" ">
<polygon fill="#fff0f0" stroke="red" points="2656,-811 2546,-811 2546,-792 2656,-792 2656,-811"/>
<text text-anchor="middle" x="2601" y="-799" font-family="Helvetica,sans-Serif" font-size="10.00">includes/element.h</text>
</a>
</g>
</g>
<!-- Node71&#45;&gt;Node105 -->
<g id="edge152" class="edge">
<title>Node71&#45;&gt;Node105</title>
<path fill="none" stroke="#63b8ff" d="M1747.8,-909.71C1949.07,-906.88 2566.79,-895.79 2597,-866 2608.19,-854.96 2608.18,-836.57 2605.96,-822.42"/>
<polygon fill="#63b8ff" stroke="#63b8ff" points="2609.43,-821.92 2603.97,-812.84 2602.57,-823.34 2609.43,-821.92"/>
</g>
<!-- Node119 -->
<g id="node48" class="node">
<title>Node119</title>
<g id="a_node48"><a xlink:href="../../d7/d6c/condition_8h.html" target="_top" xlink:title=" ">
<polygon fill="#fff0f0" stroke="red" points="2788,-811 2674,-811 2674,-792 2788,-792 2788,-811"/>
<text text-anchor="middle" x="2731" y="-799" font-family="Helvetica,sans-Serif" font-size="10.00">includes/condition.h</text>
</a>
</g>
</g>
<!-- Node71&#45;&gt;Node119 -->
<g id="edge155" class="edge">
<title>Node71&#45;&gt;Node119</title>
<path fill="none" stroke="#63b8ff" d="M1747.82,-911.15C1929.24,-912.47 2451.43,-912.03 2615,-866 2650.84,-855.91 2687.82,-833.13 2710.12,-817.78"/>
<polygon fill="#63b8ff" stroke="#63b8ff" points="2711.88,-820.81 2718.03,-812.19 2707.84,-815.09 2711.88,-820.81"/>
</g>
<!-- Node120 -->
<g id="node49" class="node">
<title>Node120</title>
<g id="a_node49"><a xlink:href="../../d8/d75/communicator_8h.html" target="_top" xlink:title=" ">
<polygon fill="white" stroke="#666666" points="2587.5,-866 2448.5,-866 2448.5,-847 2587.5,-847 2587.5,-866"/>
<text text-anchor="middle" x="2518" y="-854" font-family="Helvetica,sans-Serif" font-size="10.00">includes/communicator.h</text>
</a>
</g>
</g>
<!-- Node71&#45;&gt;Node120 -->
<g id="edge158" class="edge">
<title>Node71&#45;&gt;Node120</title>
<path fill="none" stroke="#63b8ff" d="M1747.7,-907.66C1876.43,-901.62 2179.83,-886.4 2434,-866 2435.02,-865.92 2436.05,-865.83 2437.09,-865.75"/>
<polygon fill="#63b8ff" stroke="#63b8ff" points="2437.18,-869.25 2446.84,-864.9 2436.58,-862.28 2437.18,-869.25"/>
</g>
<!-- Node107 -->
<g id="node50" class="node">
<title>Node107</title>
<g id="a_node50"><a xlink:href="../../dd/d98/table_8h.html" target="_top" xlink:title=" ">
<polygon fill="white" stroke="#666666" points="1366,-569 1272,-569 1272,-550 1366,-550 1366,-569"/>
<text text-anchor="middle" x="1319" y="-557" font-family="Helvetica,sans-Serif" font-size="10.00">includes/table.h</text>
</a>
</g>
</g>
<!-- Node71&#45;&gt;Node107 -->
<g id="edge167" class="edge">
<title>Node71&#45;&gt;Node107</title>
<path fill="none" stroke="#63b8ff" d="M1622.23,-905.49C1545.89,-898.67 1422.01,-885.12 1380,-866 1340.55,-848.05 1306,-845.84 1306,-802.5 1306,-802.5 1306,-802.5 1306,-679.5 1306,-644.6 1311.59,-604.29 1315.44,-580.68"/>
<polygon fill="#63b8ff" stroke="#63b8ff" points="1318.88,-581.36 1317.1,-570.91 1311.98,-580.19 1318.88,-581.36"/>
</g>
<!-- Node72&#45;&gt;Node2 -->
<g id="edge94" class="edge">
<title>Node72&#45;&gt;Node2</title>
<path fill="none" stroke="#63b8ff" d="M2293.94,-676.72C2419.08,-670.98 2681.7,-656.52 2717,-635 2928.63,-506 2980.54,-398.48 2994,-151 2994.46,-142.57 2997.5,-139.68 2994,-132 2975.44,-91.3 2959.12,-83.62 2918,-66 2828.5,-27.65 2526.13,-18.53 2424.58,-16.53"/>
<polygon fill="#63b8ff" stroke="#63b8ff" points="2424.8,-13.03 2414.73,-16.34 2424.67,-20.03 2424.8,-13.03"/>
</g>
<!-- Node72&#45;&gt;Node3 -->
<g id="edge95" class="edge">
<title>Node72&#45;&gt;Node3</title>
<path fill="none" stroke="#63b8ff" d="M2221.69,-670.64C2189.3,-625.8 2036.74,-421.42 1867,-308 1800.99,-263.89 1775.07,-270.59 1701,-242 1593.41,-200.47 1563.89,-196.69 1458,-151 1407.08,-129.03 1392.03,-126.93 1346,-96 1317.92,-77.14 1289.39,-50.16 1272.19,-32.86"/>
<polygon fill="#63b8ff" stroke="#63b8ff" points="1274.84,-30.57 1265.35,-25.88 1269.84,-35.47 1274.84,-30.57"/>
</g>
<!-- Node72&#45;&gt;Node4 -->
<g id="edge98" class="edge">
<title>Node72&#45;&gt;Node4</title>
<path fill="none" stroke="#63b8ff" d="M2197.75,-670.6C2100.74,-642.14 1788.52,-551.32 1528,-484 1338.25,-434.97 1268.11,-481.05 1099,-382 1025.99,-339.24 1035.74,-295.26 970,-242 955.61,-230.34 937.85,-219.67 923.23,-211.7"/>
<polygon fill="#63b8ff" stroke="#63b8ff" points="925.04,-208.69 914.56,-207.1 921.76,-214.88 925.04,-208.69"/>
</g>
<!-- Node72&#45;&gt;Node6 -->
<g id="edge96" class="edge">
<title>Node72&#45;&gt;Node6</title>
<path fill="none" stroke="#63b8ff" d="M2236.41,-670.79C2269.51,-636.25 2392.95,-504.8 2475,-382 2505.71,-336.05 2509.01,-321.79 2533,-272 2558.49,-219.11 2572.31,-208.09 2586,-151 2589.9,-134.74 2590.74,-115.74 2590.69,-101.8"/>
<polygon fill="#63b8ff" stroke="#63b8ff" points="2594.2,-102.08 2590.5,-92.15 2587.2,-102.22 2594.2,-102.08"/>
</g>
<!-- Node72&#45;&gt;Node18 -->
<g id="edge108" class="edge">
<title>Node72&#45;&gt;Node18</title>
<path fill="none" stroke="#63b8ff" d="M2162.27,-677.38C1939.09,-669.6 1211.9,-639.33 990,-569 978.36,-565.31 787.82,-450.83 784,-448 768.07,-436.21 768.35,-427.59 751,-418 698.91,-389.2 675.49,-408.11 622,-382 596.49,-369.55 570.75,-349.3 554.18,-335.02"/>
<polygon fill="#63b8ff" stroke="#63b8ff" points="556.5,-332.4 546.68,-328.41 551.87,-337.65 556.5,-332.4"/>
</g>
<!-- Node72&#45;&gt;Node64 -->
<g id="edge97" class="edge">
<title>Node72&#45;&gt;Node64</title>
<path fill="none" stroke="#63b8ff" d="M2230.57,-670.7C2241.37,-634.97 2286.33,-498.77 2366,-418 2378.33,-405.5 2394.85,-395.05 2409.06,-387.43"/>
<polygon fill="#63b8ff" stroke="#63b8ff" points="2410.25,-390.75 2417.55,-383.07 2407.06,-384.52 2410.25,-390.75"/>
</g>
<!-- Node72&#45;&gt;Node73 -->
<g id="edge99" class="edge">
<title>Node72&#45;&gt;Node73</title>
<path fill="none" stroke="#63b8ff" d="M2175.69,-670.55C2118.02,-660.69 2024.82,-644.75 1959.76,-633.62"/>
<polygon fill="#63b8ff" stroke="#63b8ff" points="1960.7,-630.23 1950.26,-631.99 1959.52,-637.13 1960.7,-630.23"/>
</g>
<!-- Node73&#45;&gt;Node2 -->
<g id="edge100" class="edge">
<title>Node73&#45;&gt;Node2</title>
<path fill="none" stroke="#63b8ff" d="M1905.64,-604.61C1925.24,-590.38 1956.34,-568.16 1984,-550 2031.02,-519.12 2041.71,-509.2 2092,-484 2130.52,-464.7 2145.48,-470.85 2182,-448 2198.8,-437.49 2197.86,-427.96 2215,-418 2271.38,-385.23 2441.48,-365.66 2494,-327 2598.84,-249.81 2708.97,-167.15 2627,-66 2601.9,-35.03 2483.61,-22.47 2424.62,-18.07"/>
<polygon fill="#63b8ff" stroke="#63b8ff" points="2425.05,-14.59 2414.83,-17.38 2424.56,-21.57 2425.05,-14.59"/>
</g>
<!-- Node73&#45;&gt;Node3 -->
<g id="edge101" class="edge">
<title>Node73&#45;&gt;Node3</title>
<path fill="none" stroke="#63b8ff" d="M1889.08,-604.82C1898.65,-556.66 1922.91,-397.38 1847,-308 1834.06,-292.77 1520.95,-212.36 1502,-206 1436.26,-183.93 1411.34,-192.78 1356,-151 1313.46,-118.88 1280.7,-63.83 1265.43,-34.95"/>
<polygon fill="#63b8ff" stroke="#63b8ff" points="1268.67,-33.59 1260.98,-26.29 1262.44,-36.79 1268.67,-33.59"/>
</g>
<!-- Node73&#45;&gt;Node4 -->
<g id="edge104" class="edge">
<title>Node73&#45;&gt;Node4</title>
<path fill="none" stroke="#63b8ff" d="M1823.08,-617.01C1686.56,-612.2 1367.11,-598.11 1263,-569 1147.58,-536.72 1123.11,-512.35 1022,-448 1003.85,-436.45 1002.33,-429.27 984,-418 902.2,-367.68 839.67,-407.96 788,-327 759.2,-281.88 826.69,-234.9 867.2,-211.91"/>
<polygon fill="#63b8ff" stroke="#63b8ff" points="868.69,-215.09 875.76,-207.2 865.32,-208.96 868.69,-215.09"/>
</g>
<!-- Node73&#45;&gt;Node12 -->
<g id="edge107" class="edge">
<title>Node73&#45;&gt;Node12</title>
<path fill="none" stroke="#63b8ff" d="M1897.91,-604.64C1925.63,-571.36 1996.82,-486.54 2059,-418 2100.88,-371.84 2179.15,-360.78 2146,-308 2129.53,-281.78 1923.23,-199.72 1895,-187 1870.63,-176.02 1842.75,-164.35 1821.7,-155.71"/>
<polygon fill="#63b8ff" stroke="#63b8ff" points="1823.05,-152.49 1812.47,-151.95 1820.4,-158.97 1823.05,-152.49"/>
</g>
<!-- Node73&#45;&gt;Node13 -->
<g id="edge103" class="edge">
<title>Node73&#45;&gt;Node13</title>
<path fill="none" stroke="#63b8ff" d="M1948.73,-615.64C2099.3,-605.79 2490.88,-569.54 2791,-448 2981.67,-370.79 3084.76,-347.38 3146,-151 3157.25,-114.94 3167.31,-97.2 3146,-66 3125.33,-35.74 3083.38,-23.79 3053.13,-19.07"/>
<polygon fill="#63b8ff" stroke="#63b8ff" points="3053.66,-15.61 3043.28,-17.75 3052.73,-22.55 3053.66,-15.61"/>
</g>
<!-- Node73&#45;&gt;Node19 -->
<g id="edge106" class="edge">
<title>Node73&#45;&gt;Node19</title>
<path fill="none" stroke="#63b8ff" d="M1823.47,-614.94C1700.02,-606.85 1416.31,-587.85 1178,-569 1176.99,-568.92 1175.97,-568.84 1174.94,-568.76"/>
<polygon fill="#63b8ff" stroke="#63b8ff" points="1175.57,-565.3 1165.31,-567.97 1175,-572.27 1175.57,-565.3"/>
</g>
<!-- Node73&#45;&gt;Node62 -->
<g id="edge105" class="edge">
<title>Node73&#45;&gt;Node62</title>
<path fill="none" stroke="#63b8ff" d="M1823.24,-604.88C1717.28,-581.05 1504.96,-533.28 1407.73,-511.41"/>
<polygon fill="#63b8ff" stroke="#63b8ff" points="1408.74,-508.05 1398.22,-509.27 1407.2,-514.88 1408.74,-508.05"/>
</g>
<!-- Node73&#45;&gt;Node64 -->
<g id="edge102" class="edge">
<title>Node73&#45;&gt;Node64</title>
<path fill="none" stroke="#63b8ff" d="M1915.99,-604.57C1974.42,-576.21 2107.25,-510.49 2215,-448 2236.76,-435.38 2239.86,-427.87 2263,-418 2287.62,-407.5 2357.02,-391.35 2400.96,-381.66"/>
<polygon fill="#63b8ff" stroke="#63b8ff" points="2401.58,-385.11 2410.61,-379.55 2400.09,-378.27 2401.58,-385.11"/>
</g>
<!-- Node74&#45;&gt;Node2 -->
<g id="edge111" class="edge">
<title>Node74&#45;&gt;Node2</title>
<path fill="none" stroke="#63b8ff" d="M1809.24,-800.73C2025.11,-800.47 2892,-785.44 2892,-560.5 2892,-560.5 2892,-560.5 2892,-256 2892,-166.75 2897.06,-121.29 2827,-66 2764.82,-16.93 2516.05,-14.59 2424.79,-15.44"/>
<polygon fill="#63b8ff" stroke="#63b8ff" points="2424.95,-11.93 2414.99,-15.55 2425.03,-18.93 2424.95,-11.93"/>
</g>
<!-- Node74&#45;&gt;Node3 -->
<g id="edge112" class="edge">
<title>Node74&#45;&gt;Node3</title>
<path fill="none" stroke="#63b8ff" d="M1712.69,-799.99C1461.51,-796.97 311.23,-778.36 182,-690 102.18,-635.42 76,-596.7 76,-500 76,-500 76,-500 76,-432 76,-352.84 38,-337.16 38,-258 38,-258 38,-258 38,-140.5 38,-101.11 51.83,-85.59 86,-66 135.88,-37.4 1011.41,-20.3 1214.27,-16.71"/>
<polygon fill="#63b8ff" stroke="#63b8ff" points="1214.13,-20.21 1224.07,-16.54 1214.01,-13.21 1214.13,-20.21"/>
</g>
<!-- Node74&#45;&gt;Node4 -->
<g id="edge115" class="edge">
<title>Node74&#45;&gt;Node4</title>
<path fill="none" stroke="#63b8ff" d="M1737.91,-791.56C1699.87,-776.96 1621.51,-747.51 1554,-726 1546.25,-723.53 995.7,-574.8 990,-569 941.45,-519.53 999.77,-467.25 951,-418 907.61,-374.18 867.82,-416.93 817,-382 792.09,-364.88 786.35,-355.74 777,-327 769.12,-302.77 778.69,-254.84 789,-242 801.22,-226.79 819.56,-216.7 837.57,-210.05"/>
<polygon fill="#63b8ff" stroke="#63b8ff" points="838.58,-213.4 846.95,-206.91 836.36,-206.77 838.58,-213.4"/>
</g>
<!-- Node74&#45;&gt;Node6 -->
<g id="edge113" class="edge">
<title>Node74&#45;&gt;Node6</title>
<path fill="none" stroke="#63b8ff" d="M1809.14,-795.03C1925.77,-781.11 2219.96,-741.73 2303,-690 2514.32,-558.37 2497.04,-438.9 2585,-206 2596.89,-174.52 2604.64,-165.45 2601,-132 2599.9,-121.92 2597.6,-110.89 2595.38,-101.76"/>
<polygon fill="#63b8ff" stroke="#63b8ff" points="2598.81,-101.02 2592.91,-92.22 2592.03,-102.78 2598.81,-101.02"/>
</g>
<!-- Node74&#45;&gt;Node18 -->
<g id="edge136" class="edge">
<title>Node74&#45;&gt;Node18</title>
<path fill="none" stroke="#63b8ff" d="M1712.74,-797.23C1552.34,-784.51 1026.58,-727.88 661,-514 623.81,-492.24 614.63,-483.35 590,-448 565.48,-412.8 549.14,-364.75 541.33,-338.18"/>
<polygon fill="#63b8ff" stroke="#63b8ff" points="544.76,-337.44 538.67,-328.77 538.02,-339.34 544.76,-337.44"/>
</g>
<!-- Node74&#45;&gt;Node64 -->
<g id="edge114" class="edge">
<title>Node74&#45;&gt;Node64</title>
<path fill="none" stroke="#63b8ff" d="M1809.25,-798.48C1855.82,-794.8 1927.14,-784.54 1982,-756 2175.26,-655.44 2155.51,-538.5 2337,-418 2356.96,-404.75 2381.53,-393.89 2401.54,-386.22"/>
<polygon fill="#63b8ff" stroke="#63b8ff" points="2402.56,-389.57 2410.72,-382.81 2400.13,-383.01 2402.56,-389.57"/>
</g>
<!-- Node74&#45;&gt;Node73 -->
<g id="edge137" class="edge">
<title>Node74&#45;&gt;Node73</title>
<path fill="none" stroke="#63b8ff" d="M1767.03,-791.84C1785.42,-765.44 1841.24,-685.27 1869.39,-644.85"/>
<polygon fill="#63b8ff" stroke="#63b8ff" points="1872.21,-646.93 1875.05,-636.72 1866.46,-642.93 1872.21,-646.93"/>
</g>
<!-- Node75 -->
<g id="node41" class="node">
<title>Node75</title>
<g id="a_node41"><a xlink:href="../../d4/d35/pointer__vector__set_8h.html" target="_top" xlink:title=" ">
<polygon fill="#fff0f0" stroke="red" points="2172.5,-448 2067.5,-448 2067.5,-418 2172.5,-418 2172.5,-448"/>
<text text-anchor="start" x="2075.5" y="-436" font-family="Helvetica,sans-Serif" font-size="10.00">containers/pointer</text>
<text text-anchor="middle" x="2120" y="-425" font-family="Helvetica,sans-Serif" font-size="10.00">_vector_set.h</text>
</a>
</g>
</g>
<!-- Node74&#45;&gt;Node75 -->
<g id="edge116" class="edge">
<title>Node74&#45;&gt;Node75</title>
<path fill="none" stroke="#63b8ff" d="M1809.37,-797.57C1879.2,-790.42 2000,-765.86 2000,-681.5 2000,-681.5 2000,-681.5 2000,-619 2000,-550.71 2058.26,-487.76 2093.6,-455.87"/>
<polygon fill="#63b8ff" stroke="#63b8ff" points="2095.7,-458.68 2100.9,-449.45 2091.08,-453.43 2095.7,-458.68"/>
</g>
<!-- Node74&#45;&gt;Node78 -->
<g id="edge125" class="edge">
<title>Node74&#45;&gt;Node78</title>
<path fill="none" stroke="#63b8ff" d="M1809.22,-799.46C1921.13,-796.57 2195.53,-786.49 2282,-756 2347.54,-732.89 2545.43,-554.07 2551,-550 2599.84,-514.26 2659.19,-476.68 2695.52,-454.3"/>
<polygon fill="#63b8ff" stroke="#63b8ff" points="2697.14,-457.41 2703.84,-449.2 2693.48,-451.45 2697.14,-457.41"/>
</g>
<!-- Node80 -->
<g id="node43" class="node">
<title>Node80</title>
<g id="a_node43"><a xlink:href="../../d9/d4c/includes_2indexed__object_8h.html" target="_top" xlink:title=" ">
<polygon fill="white" stroke="#666666" points="741.5,-442.5 598.5,-442.5 598.5,-423.5 741.5,-423.5 741.5,-442.5"/>
<text text-anchor="middle" x="670" y="-430.5" font-family="Helvetica,sans-Serif" font-size="10.00">includes/indexed_object.h</text>
</a>
</g>
</g>
<!-- Node74&#45;&gt;Node80 -->
<g id="edge132" class="edge">
<title>Node74&#45;&gt;Node80</title>
<path fill="none" stroke="#63b8ff" d="M1727.66,-791.53C1576.12,-750.71 957.88,-583.95 918,-569 830.01,-536.01 734.74,-476.73 692.43,-449.03"/>
<polygon fill="#63b8ff" stroke="#63b8ff" points="694.61,-446.28 684.34,-443.69 690.76,-452.12 694.61,-446.28"/>
</g>
<!-- Node74&#45;&gt;Node91 -->
<g id="edge138" class="edge">
<title>Node74&#45;&gt;Node91</title>
<path fill="none" stroke="#63b8ff" d="M1712.7,-797.76C1547.67,-788.38 1005.34,-757.58 805.66,-746.24"/>
<polygon fill="#63b8ff" stroke="#63b8ff" points="806.12,-742.76 795.94,-745.69 805.72,-749.75 806.12,-742.76"/>
</g>
<!-- Node75&#45;&gt;Node2 -->
<g id="edge118" class="edge">
<title>Node75&#45;&gt;Node2</title>
<path fill="none" stroke="#63b8ff" d="M2171.32,-417.51C2203.82,-408.05 2246.63,-395.07 2284,-382 2305.66,-374.43 2310.2,-370.15 2332,-363 2391.82,-343.38 2416.03,-361.03 2469,-327 2495.57,-309.93 2500.75,-300.67 2514,-272 2553.6,-186.28 2524.4,-136.87 2462,-66 2449.49,-51.8 2432.18,-39.5 2417.78,-30.65"/>
<polygon fill="#63b8ff" stroke="#63b8ff" points="2419.62,-27.68 2409.23,-25.62 2416.07,-33.71 2419.62,-27.68"/>
</g>
<!-- Node75&#45;&gt;Node3 -->
<g id="edge119" class="edge">
<title>Node75&#45;&gt;Node3</title>
<path fill="none" stroke="#63b8ff" d="M2129.79,-417.6C2145.53,-392.49 2172.17,-340.3 2146,-308 2097.37,-248 2051.12,-289.93 1976,-272 1772.47,-223.42 1719.57,-216.99 1521,-151 1458.74,-130.31 1440.78,-128.89 1384,-96 1365.38,-85.21 1363.91,-77.93 1346,-66 1326.07,-52.72 1302.36,-39.65 1284.27,-30.2"/>
<polygon fill="#63b8ff" stroke="#63b8ff" points="1285.93,-27.12 1275.43,-25.65 1282.72,-33.34 1285.93,-27.12"/>
</g>
<!-- Node75&#45;&gt;Node4 -->
<g id="edge123" class="edge">
<title>Node75&#45;&gt;Node4</title>
<path fill="none" stroke="#63b8ff" d="M2067.13,-430.6C1889.9,-425.67 1323.63,-408.04 1246,-382 1140,-346.44 1137.82,-290.32 1037,-242 1007.62,-227.92 972.72,-216.91 944.87,-209.36"/>
<polygon fill="#63b8ff" stroke="#63b8ff" points="945.82,-206 935.26,-206.83 944.04,-212.76 945.82,-206"/>
</g>
<!-- Node75&#45;&gt;Node6 -->
<g id="edge120" class="edge">
<title>Node75&#45;&gt;Node6</title>
<path fill="none" stroke="#63b8ff" d="M2156.25,-417.61C2206.99,-397.48 2293.13,-363.3 2294,-363 2393.87,-328.03 2443.56,-350.96 2514,-272 2559.48,-221.01 2579.52,-139.4 2586.68,-101.95"/>
<polygon fill="#63b8ff" stroke="#63b8ff" points="2590.11,-102.62 2588.42,-92.16 2583.22,-101.39 2590.11,-102.62"/>
</g>
<!-- Node75&#45;&gt;Node9 -->
<g id="edge122" class="edge">
<title>Node75&#45;&gt;Node9</title>
<path fill="none" stroke="#63b8ff" d="M2067.14,-429.21C1886.67,-419.21 1302.54,-382.75 1241,-327 1174.48,-266.74 1166.86,-149.03 1166.61,-102.06"/>
<polygon fill="#63b8ff" stroke="#63b8ff" points="1170.11,-102.33 1166.68,-92.3 1163.11,-102.28 1170.11,-102.33"/>
</g>
<!-- Node75&#45;&gt;Node13 -->
<g id="edge117" class="edge">
<title>Node75&#45;&gt;Node13</title>
<path fill="none" stroke="#63b8ff" d="M2172.99,-419.91C2213.89,-410.33 2271.77,-396.23 2322,-382 2399.22,-360.12 2420.21,-358.57 2494,-327 2597.31,-282.8 2619.06,-262.84 2716,-206 2822.01,-143.84 2945.08,-63.92 2995.11,-31.09"/>
<polygon fill="#63b8ff" stroke="#63b8ff" points="2996.94,-34.08 3003.38,-25.66 2993.1,-28.23 2996.94,-34.08"/>
</g>
<!-- Node75&#45;&gt;Node64 -->
<g id="edge121" class="edge">
<title>Node75&#45;&gt;Node64</title>
<path fill="none" stroke="#63b8ff" d="M2172.68,-422.34C2237.08,-410.53 2344.48,-390.83 2401.22,-380.43"/>
<polygon fill="#63b8ff" stroke="#63b8ff" points="2401.5,-383.94 2410.7,-378.69 2400.24,-377.05 2401.5,-383.94"/>
</g>
<!-- Node75&#45;&gt;Node49 -->
<g id="edge124" class="edge">
<title>Node75&#45;&gt;Node49</title>
<path fill="none" stroke="#63b8ff" d="M2067.24,-426.23C1969.69,-415.56 1761.27,-392.77 1653.18,-380.96"/>
<polygon fill="#63b8ff" stroke="#63b8ff" points="1653.6,-377.48 1643.28,-379.87 1652.84,-384.44 1653.6,-377.48"/>
</g>
<!-- Node78&#45;&gt;Node2 -->
<g id="edge127" class="edge">
<title>Node78&#45;&gt;Node2</title>
<path fill="none" stroke="#63b8ff" d="M2739.41,-417.57C2776.9,-363.7 2898,-172.07 2804,-66 2778.93,-37.71 2518.73,-22.26 2424.68,-17.56"/>
<polygon fill="#63b8ff" stroke="#63b8ff" points="2424.98,-14.07 2414.82,-17.08 2424.63,-21.06 2424.98,-14.07"/>
</g>
<!-- Node78&#45;&gt;Node3 -->
<g id="edge128" class="edge">
<title>Node78&#45;&gt;Node3</title>
<path fill="none" stroke="#63b8ff" d="M2697.21,-417.51C2663.09,-402.38 2607.04,-378.7 2557,-363 2514.03,-349.52 2200.1,-296.02 2162,-272 2063,-209.6 2101.65,-120.34 1998,-66 1990.17,-61.9 1452.51,-28.21 1297.44,-18.57"/>
<polygon fill="#63b8ff" stroke="#63b8ff" points="1297.82,-15.09 1287.62,-17.96 1297.39,-22.07 1297.82,-15.09"/>
</g>
<!-- Node78&#45;&gt;Node4 -->
<g id="edge131" class="edge">
<title>Node78&#45;&gt;Node4</title>
<path fill="none" stroke="#63b8ff" d="M2690.45,-417.63C2646.79,-401.9 2573.22,-377.06 2508,-363 1912.52,-234.64 1171.24,-205.03 956.12,-198.94"/>
<polygon fill="#63b8ff" stroke="#63b8ff" points="956.39,-195.45 946.3,-198.67 956.2,-202.44 956.39,-195.45"/>
</g>
<!-- Node78&#45;&gt;Node6 -->
<g id="edge129" class="edge">
<title>Node78&#45;&gt;Node6</title>
<path fill="none" stroke="#63b8ff" d="M2731.92,-417.78C2739.24,-378.55 2755.09,-266.51 2716,-187 2695.21,-144.71 2648.64,-113.22 2618.32,-96.24"/>
<polygon fill="#63b8ff" stroke="#63b8ff" points="2620.13,-93.24 2609.67,-91.56 2616.8,-99.4 2620.13,-93.24"/>
</g>
<!-- Node78&#45;&gt;Node13 -->
<g id="edge126" class="edge">
<title>Node78&#45;&gt;Node13</title>
<path fill="none" stroke="#63b8ff" d="M2764.62,-417.61C2784.67,-408.73 2809.68,-396.31 2830,-382 2887.56,-341.46 2897.98,-325.29 2944,-272 3006.87,-199.19 3040.59,-187.6 3070,-96 3074.08,-83.3 3075.22,-78.27 3070,-66 3064.08,-52.1 3052.19,-40.19 3041.27,-31.49"/>
<polygon fill="#63b8ff" stroke="#63b8ff" points="3043.44,-28.74 3033.32,-25.6 3039.27,-34.36 3043.44,-28.74"/>
</g>
<!-- Node78&#45;&gt;Node64 -->
<g id="edge130" class="edge">
<title>Node78&#45;&gt;Node64</title>
<path fill="none" stroke="#63b8ff" d="M2676.15,-421.34C2618.55,-409.72 2527.84,-391.42 2476.92,-381.15"/>
<polygon fill="#63b8ff" stroke="#63b8ff" points="2477.76,-377.75 2467.26,-379.2 2476.37,-384.61 2477.76,-377.75"/>
</g>
<!-- Node80&#45;&gt;Node3 -->
<g id="edge133" class="edge">
<title>Node80&#45;&gt;Node3</title>
<path fill="none" stroke="#63b8ff" d="M608.5,-423.04C523.37,-406.77 380,-363.69 380,-258 380,-258 380,-258 380,-140.5 380,-61.25 465.22,-85.64 542,-66 670.69,-33.08 1082.42,-20.27 1214.68,-16.94"/>
<polygon fill="#63b8ff" stroke="#63b8ff" points="1214.45,-20.45 1224.36,-16.71 1214.28,-13.45 1214.45,-20.45"/>
</g>
<!-- Node80&#45;&gt;Node4 -->
<g id="edge134" class="edge">
<title>Node80&#45;&gt;Node4</title>
<path fill="none" stroke="#63b8ff" d="M668.2,-423.41C662.52,-393.79 648.19,-294.88 697,-242 715.33,-222.14 782.79,-210.11 833.91,-203.65"/>
<polygon fill="#63b8ff" stroke="#63b8ff" points="834.2,-207.14 843.7,-202.46 833.35,-200.19 834.2,-207.14"/>
</g>
<!-- Node80&#45;&gt;Node49 -->
<g id="edge135" class="edge">
<title>Node80&#45;&gt;Node49</title>
<path fill="none" stroke="#63b8ff" d="M741.93,-425.17C768.91,-422.73 799.85,-420.07 828,-418 1082.2,-399.27 1384.88,-383.42 1517.32,-376.8"/>
<polygon fill="#63b8ff" stroke="#63b8ff" points="1517.13,-380.32 1526.95,-376.32 1516.79,-373.33 1517.13,-380.32"/>
</g>
<!-- Node91&#45;&gt;Node4 -->
<g id="edge139" class="edge">
<title>Node91&#45;&gt;Node4</title>
<path fill="none" stroke="#63b8ff" d="M667.81,-732.87C627.45,-726.24 575.16,-713.63 534,-690 430.32,-630.46 339.38,-601.59 361,-484 382.37,-367.8 370.21,-303.65 471,-242 530.35,-205.69 731.21,-198.71 833.71,-197.57"/>
<polygon fill="#63b8ff" stroke="#63b8ff" points="833.64,-201.07 843.6,-197.47 833.57,-194.07 833.64,-201.07"/>
</g>
<!-- Node91&#45;&gt;Node17 -->
<g id="edge140" class="edge">
<title>Node91&#45;&gt;Node17</title>
<path fill="none" stroke="#63b8ff" d="M667.7,-731.38C613.13,-723.19 532.56,-709.25 464,-690 409.31,-674.64 347.96,-649.7 312.29,-634.38"/>
<polygon fill="#63b8ff" stroke="#63b8ff" points="314.03,-631.33 303.46,-630.56 311.25,-637.75 314.03,-631.33"/>
</g>
<!-- Node91&#45;&gt;Node18 -->
<g id="edge141" class="edge">
<title>Node91&#45;&gt;Node18</title>
<path fill="none" stroke="#63b8ff" d="M667.66,-732.05C604.24,-720.13 516,-690.97 516,-621 516,-621 516,-621 516,-558.5 516,-471.61 500.97,-448.21 518,-363 519.71,-354.43 523.05,-345.4 526.38,-337.74"/>
<polygon fill="#63b8ff" stroke="#63b8ff" points="529.52,-339.3 530.6,-328.76 523.18,-336.33 529.52,-339.3"/>
</g>
<!-- Node91&#45;&gt;Node62 -->
<g id="edge142" class="edge">
<title>Node91&#45;&gt;Node62</title>
<path fill="none" stroke="#63b8ff" d="M768.75,-725.53C881.59,-682.26 1215.2,-554.36 1323,-513.04"/>
<polygon fill="#63b8ff" stroke="#63b8ff" points="1324.07,-516.37 1332.16,-509.52 1321.57,-509.84 1324.07,-516.37"/>
</g>
<!-- Node91&#45;&gt;Node72 -->
<g id="edge143" class="edge">
<title>Node91&#45;&gt;Node72</title>
<path fill="none" stroke="#63b8ff" d="M794.37,-737.52C1034.55,-728.14 1888.47,-694.77 2150.79,-684.52"/>
<polygon fill="#63b8ff" stroke="#63b8ff" points="2150.72,-688.02 2160.58,-684.13 2150.45,-681.03 2150.72,-688.02"/>
</g>
<!-- Node91&#45;&gt;Node80 -->
<g id="edge144" class="edge">
<title>Node91&#45;&gt;Node80</title>
<path fill="none" stroke="#63b8ff" d="M724.12,-725.72C714.18,-703.75 697,-660.11 697,-621 697,-621 697,-621 697,-558.5 697,-520.66 684.94,-477.79 676.94,-453.51"/>
<polygon fill="#63b8ff" stroke="#63b8ff" points="680.35,-452.67 673.8,-444.35 673.73,-454.94 680.35,-452.67"/>
</g>
<!-- Node103&#45;&gt;Node4 -->
<g id="edge146" class="edge">
<title>Node103&#45;&gt;Node4</title>
<path fill="none" stroke="#63b8ff" d="M425.67,-483.7C418.66,-449.99 405.87,-364.17 442,-308 475.35,-256.15 505.38,-261.09 564,-242 655.08,-212.35 766.44,-202.43 833.98,-199.13"/>
<polygon fill="#63b8ff" stroke="#63b8ff" points="833.91,-202.64 843.74,-198.69 833.59,-195.65 833.91,-202.64"/>
</g>
<!-- Node103&#45;&gt;Node104 -->
<g id="edge147" class="edge">
<title>Node103&#45;&gt;Node104</title>
<path fill="none" stroke="#63b8ff" d="M488.2,-489.76C574.79,-477.72 735.38,-455.37 824.75,-442.94"/>
<polygon fill="#63b8ff" stroke="#63b8ff" points="825.16,-446.42 834.58,-441.57 824.2,-439.48 825.16,-446.42"/>
</g>
<!-- Node104&#45;&gt;Node4 -->
<g id="edge150" class="edge">
<title>Node104&#45;&gt;Node4</title>
<path fill="none" stroke="#63b8ff" d="M837.18,-417.62C795.08,-402.74 739.02,-374.8 716,-327 699.6,-292.97 692.73,-271.76 716,-242 730.55,-223.39 787.75,-211.46 833.63,-204.68"/>
<polygon fill="#63b8ff" stroke="#63b8ff" points="834.11,-208.15 843.52,-203.28 833.13,-201.22 834.11,-208.15"/>
</g>
<!-- Node104&#45;&gt;Node9 -->
<g id="edge148" class="edge">
<title>Node104&#45;&gt;Node9</title>
<path fill="none" stroke="#63b8ff" d="M836.22,-418.18C799.88,-407.94 755.46,-393.78 740,-382 685.29,-340.3 633.88,-297.88 674,-242 724.35,-171.88 1096.98,-167.47 1123,-151 1141.16,-139.51 1153.22,-117.5 1160.05,-101.42"/>
<polygon fill="#63b8ff" stroke="#63b8ff" points="1163.2,-102.99 1163.56,-92.41 1156.67,-100.45 1163.2,-102.99"/>
</g>
<!-- Node104&#45;&gt;Node49 -->
<g id="edge151" class="edge">
<title>Node104&#45;&gt;Node49</title>
<path fill="none" stroke="#63b8ff" d="M941.88,-427.55C1066.54,-417.08 1378.67,-390.84 1517.08,-379.21"/>
<polygon fill="#63b8ff" stroke="#63b8ff" points="1517.15,-382.72 1526.83,-378.39 1516.57,-375.74 1517.15,-382.72"/>
</g>
<!-- Node104&#45;&gt;Node50 -->
<g id="edge149" class="edge">
<title>Node104&#45;&gt;Node50</title>
<path fill="none" stroke="#63b8ff" d="M883.17,-417.63C874.98,-397.4 860.02,-360.49 850.85,-337.86"/>
<polygon fill="#63b8ff" stroke="#63b8ff" points="854.11,-336.59 847.11,-328.63 847.62,-339.21 854.11,-336.59"/>
</g>
<!-- Node105&#45;&gt;Node68 -->
<g id="edge154" class="edge">
<title>Node105&#45;&gt;Node68</title>
<path fill="none" stroke="#63b8ff" d="M2602.25,-791.84C2606.2,-764.6 2618.43,-680.15 2624.08,-641.13"/>
<polygon fill="#63b8ff" stroke="#63b8ff" points="2627.51,-641.89 2625.48,-631.49 2620.58,-640.89 2627.51,-641.89"/>
</g>
<!-- Node105&#45;&gt;Node72 -->
<g id="edge153" class="edge">
<title>Node105&#45;&gt;Node72</title>
<path fill="none" stroke="#63b8ff" d="M2572.96,-791.56C2507.13,-770.55 2342.55,-718.04 2267.01,-693.95"/>
<polygon fill="#63b8ff" stroke="#63b8ff" points="2268.14,-690.63 2257.55,-690.93 2266.01,-697.3 2268.14,-690.63"/>
</g>
<!-- Node119&#45;&gt;Node68 -->
<g id="edge157" class="edge">
<title>Node119&#45;&gt;Node68</title>
<path fill="none" stroke="#63b8ff" d="M2725.98,-791.84C2710.03,-764.31 2660.21,-678.31 2637.94,-639.88"/>
<polygon fill="#63b8ff" stroke="#63b8ff" points="2641.01,-638.2 2632.97,-631.3 2634.95,-641.71 2641.01,-638.2"/>
</g>
<!-- Node119&#45;&gt;Node72 -->
<g id="edge156" class="edge">
<title>Node119&#45;&gt;Node72</title>
<path fill="none" stroke="#63b8ff" d="M2695.61,-791.53C2639.12,-777.27 2525.05,-748.72 2428,-726 2378.09,-714.31 2320.99,-701.68 2280.61,-692.87"/>
<polygon fill="#63b8ff" stroke="#63b8ff" points="2281.42,-689.47 2270.91,-690.76 2279.93,-696.31 2281.42,-689.47"/>
</g>
<!-- Node120&#45;&gt;Node2 -->
<g id="edge159" class="edge">
<title>Node120&#45;&gt;Node2</title>
<path fill="none" stroke="#63b8ff" d="M2587.82,-852.3C2714.22,-844.58 2968,-819.45 2968,-742 2968,-742 2968,-742 2968,-679.5 2968,-574.96 3120,-604.54 3120,-500 3120,-500 3120,-500 3120,-432 3120,-254.11 3113.67,-152.1 2958,-66 2865.58,-14.88 2532.17,-14.27 2424.66,-15.46"/>
<polygon fill="#63b8ff" stroke="#63b8ff" points="2424.74,-11.96 2414.78,-15.58 2424.82,-18.96 2424.74,-11.96"/>
</g>
<!-- Node120&#45;&gt;Node3 -->
<g id="edge160" class="edge">
<title>Node120&#45;&gt;Node3</title>
<path fill="none" stroke="#63b8ff" d="M2518,-846.67C2518,-827.58 2518,-781.02 2518,-742 2518,-742 2518,-742 2518,-679.5 2518,-599.48 2532,-580.02 2532,-500 2532,-500 2532,-500 2532,-432 2532,-283.27 2342.67,-418.45 2122,-272 2074.04,-240.17 2015.65,-93.34 1965,-66 1950.22,-58.02 1447.16,-27.41 1297.56,-18.47"/>
<polygon fill="#63b8ff" stroke="#63b8ff" points="1297.9,-14.98 1287.71,-17.88 1297.48,-21.97 1297.9,-14.98"/>
</g>
<!-- Node120&#45;&gt;Node4 -->
<g id="edge163" class="edge">
<title>Node120&#45;&gt;Node4</title>
<path fill="none" stroke="#63b8ff" d="M2486.92,-846.55C2388.05,-817.92 2072.12,-725.11 1815,-635 1639.98,-573.66 1605.51,-530.59 1426,-484 1313.08,-454.69 1275.06,-489.4 1166,-448 1116.56,-429.23 1107.3,-416.24 1067,-382 1002.3,-327.04 936.95,-249.51 909.05,-215.12"/>
<polygon fill="#63b8ff" stroke="#63b8ff" points="911.86,-213.03 902.86,-207.43 906.4,-217.42 911.86,-213.03"/>
</g>
<!-- Node120&#45;&gt;Node6 -->
<g id="edge161" class="edge">
<title>Node120&#45;&gt;Node6</title>
<path fill="none" stroke="#63b8ff" d="M2587.88,-850.97C2659.07,-845.21 2763.62,-833.22 2797,-811 2873.6,-760.02 2880.82,-723.49 2906,-635 2927.75,-558.58 2943.06,-567.34 2733,-187 2718.51,-160.77 2716.9,-151.33 2694,-132 2674.71,-115.71 2649.2,-103.34 2628.28,-94.98"/>
<polygon fill="#63b8ff" stroke="#63b8ff" points="2629.82,-91.82 2619.23,-91.52 2627.32,-98.36 2629.82,-91.82"/>
</g>
<!-- Node120&#45;&gt;Node64 -->
<g id="edge162" class="edge">
<title>Node120&#45;&gt;Node64</title>
<path fill="none" stroke="#63b8ff" d="M2514.8,-846.75C2511.65,-837.85 2506.91,-823.63 2504,-811 2467.43,-652.06 2446.8,-455.71 2440.83,-393.42"/>
<polygon fill="#63b8ff" stroke="#63b8ff" points="2444.34,-393.37 2439.92,-383.74 2437.37,-394.02 2444.34,-393.37"/>
</g>
<!-- Node120&#45;&gt;Node74 -->
<g id="edge166" class="edge">
<title>Node120&#45;&gt;Node74</title>
<path fill="none" stroke="#63b8ff" d="M2448.32,-852.71C2322.98,-847.31 2051.27,-833.93 1823,-811 1822.17,-810.92 1821.33,-810.83 1820.49,-810.74"/>
<polygon fill="#63b8ff" stroke="#63b8ff" points="1821.2,-807.3 1810.86,-809.65 1820.4,-814.25 1821.2,-807.3"/>
</g>
<!-- Node120&#45;&gt;Node105 -->
<g id="edge165" class="edge">
<title>Node120&#45;&gt;Node105</title>
<path fill="none" stroke="#63b8ff" d="M2532.08,-846.51C2544.56,-838.54 2563.02,-826.75 2577.69,-817.38"/>
<polygon fill="#63b8ff" stroke="#63b8ff" points="2579.31,-820.5 2585.85,-812.17 2575.54,-814.6 2579.31,-820.5"/>
</g>
<!-- Node120&#45;&gt;Node119 -->
<g id="edge164" class="edge">
<title>Node120&#45;&gt;Node119</title>
<path fill="none" stroke="#63b8ff" d="M2554.13,-846.51C2589.89,-837.61 2644.8,-823.95 2683.95,-814.21"/>
<polygon fill="#63b8ff" stroke="#63b8ff" points="2684.72,-817.62 2693.58,-811.81 2683.03,-810.83 2684.72,-817.62"/>
</g>
<!-- Node107&#45;&gt;Node2 -->
<g id="edge168" class="edge">
<title>Node107&#45;&gt;Node2</title>
<path fill="none" stroke="#63b8ff" d="M1366.26,-553.91C1429.64,-547.33 1545.48,-533.77 1643,-514 1721.16,-498.15 2260.67,-353.2 2336,-327 2394.48,-306.66 2429.94,-323.71 2464,-272 2515.89,-193.23 2438.64,-77.34 2405.18,-33.59"/>
<polygon fill="#63b8ff" stroke="#63b8ff" points="2408.1,-31.63 2399.18,-25.92 2402.59,-35.95 2408.1,-31.63"/>
</g>
<!-- Node107&#45;&gt;Node3 -->
<g id="edge169" class="edge">
<title>Node107&#45;&gt;Node3</title>
<path fill="none" stroke="#63b8ff" d="M1271.67,-555.58C1243.1,-553.86 1205.96,-551.69 1173,-550 1082.81,-545.38 441.83,-554.29 361,-514 321.04,-494.08 114,-206.91 114,-197.5 114,-197.5 114,-197.5 114,-140.5 114,-68.05 189.03,-84.79 259,-66 443.7,-16.4 1050.96,-15.16 1214.9,-15.76"/>
<polygon fill="#63b8ff" stroke="#63b8ff" points="1214.4,-19.26 1224.41,-15.8 1214.43,-12.26 1214.4,-19.26"/>
</g>
<!-- Node107&#45;&gt;Node4 -->
<g id="edge171" class="edge">
<title>Node107&#45;&gt;Node4</title>
<path fill="none" stroke="#63b8ff" d="M1303.14,-549.69C1276.15,-534.9 1219.29,-504.67 1169,-484 1121.81,-464.6 1104.93,-472.17 1060,-448 1041.05,-437.8 1039.71,-430.23 1022,-418 996.41,-400.33 983.13,-404.82 962,-382 924.86,-341.9 923.76,-324.03 907,-272 901.23,-254.08 898.15,-232.79 896.57,-217.57"/>
<polygon fill="#63b8ff" stroke="#63b8ff" points="900.08,-217.57 895.7,-207.93 893.11,-218.2 900.08,-217.57"/>
</g>
<!-- Node107&#45;&gt;Node62 -->
<g id="edge172" class="edge">
<title>Node107&#45;&gt;Node62</title>
<path fill="none" stroke="#63b8ff" d="M1324.61,-549.87C1330,-541.57 1338.31,-528.78 1345.16,-518.22"/>
<polygon fill="#63b8ff" stroke="#63b8ff" points="1348.03,-520.23 1350.55,-509.94 1342.16,-516.42 1348.03,-520.23"/>
</g>
<!-- Node107&#45;&gt;Node58 -->
<g id="edge170" class="edge">
<title>Node107&#45;&gt;Node58</title>
<path fill="none" stroke="#63b8ff" d="M1366.35,-555.77C1477.95,-546.43 1756.04,-505.43 1862,-327 1883.46,-290.87 1856.91,-241.48 1839.28,-215.37"/>
<polygon fill="#63b8ff" stroke="#63b8ff" points="1842.36,-213.68 1833.73,-207.53 1836.65,-217.72 1842.36,-213.68"/>
</g>
</g>
</svg>
        <g id="navigator" transform="translate(0 0)" fill="#404254">
                <rect fill="#f2f5e9" fill-opacity="0.5" stroke="#606060" stroke-width=".5" x="0" y="0" width="60" height="60"/>
                <use id="zoomplus" xlink:href="#zoomPlus" x="17" y="9" onmousedown="handleZoom(evt,'in')"/>
                <use id="zoomminus" xlink:href="#zoomMin" x="42" y="9" onmousedown="handleZoom(evt,'out')"/>
                <use id="reset" xlink:href="#resetDef" x="30" y="36" onmousedown="handleReset()"/>
                <g id="arrowUp" xlink:href="#dirArrow" transform="translate(30 24)" onmousedown="handlePan(0,-1)">
                  <use xlink:href="#rim" fill="#404040">
                        <set attributeName="fill" to="#808080" begin="arrowUp.mouseover" end="arrowUp.mouseout"/>
                  </use>
                  <path fill="none" stroke="white" stroke-width="1.5" d="M0,-3.0v7 M-2.5,-0.5L0,-3.0L2.5,-0.5"/>
                </g>
                <g id="arrowRight" xlink:href="#dirArrow" transform="rotate(90) translate(36 -43)" onmousedown="handlePan(1,0)">
                  <use xlink:href="#rim" fill="#404040">
                        <set attributeName="fill" to="#808080" begin="arrowRight.mouseover" end="arrowRight.mouseout"/>
                  </use>
                  <path fill="none" stroke="white" stroke-width="1.5" d="M0,-3.0v7 M-2.5,-0.5L0,-3.0L2.5,-0.5"/>
                </g>
                <g id="arrowDown" xlink:href="#dirArrow" transform="rotate(180) translate(-30 -48)" onmousedown="handlePan(0,1)">
                  <use xlink:href="#rim" fill="#404040">
                        <set attributeName="fill" to="#808080" begin="arrowDown.mouseover" end="arrowDown.mouseout"/>
                  </use>
                  <path fill="none" stroke="white" stroke-width="1.5" d="M0,-3.0v7 M-2.5,-0.5L0,-3.0L2.5,-0.5"/>
                </g>
                <g id="arrowLeft" xlink:href="#dirArrow" transform="rotate(270) translate(-36 17)" onmousedown="handlePan(-1,0)">
                  <use xlink:href="#rim" fill="#404040">
                        <set attributeName="fill" to="#808080" begin="arrowLeft.mouseover" end="arrowLeft.mouseout"/>
                  </use>
                  <path fill="none" stroke="white" stroke-width="1.5" d="M0,-3.0v7 M-2.5,-0.5L0,-3.0L2.5,-0.5"/>
                </g>
        </g>
        <svg viewBox="0 0 15 15" width="100%" height="30px" preserveAspectRatio="xMaxYMin meet">
         <g id="arrow_out" transform="scale(0.3 0.3)">
          <a xlink:href="measure__mesh__quality__process_8h__incl_org.svg" target="_base">
           <rect id="button" ry="5" rx="5" y="6" x="6" height="38" width="38"
                fill="#f2f5e9" fill-opacity="0.5" stroke="#606060" stroke-width="1.0"/>
           <path id="arrow"
             d="M 11.500037,31.436501 C 11.940474,20.09759 22.043105,11.32322 32.158766,21.979434 L 37.068811,17.246167 C 37.068811,17.246167 37.088388,32 37.088388,32 L 22.160133,31.978069 C 22.160133,31.978069 26.997745,27.140456 26.997745,27.140456 C 18.528582,18.264221 13.291696,25.230495 11.500037,31.436501 z"
             style="fill:#404040;"/>
          </a>
         </g>
        </svg>
</svg>
