<?xml version="1.0" encoding="UTF-8" standalone="no"?>
<!DOCTYPE svg PUBLIC "-//W3C//DTD SVG 1.1//EN"
 "http://www.w3.org/Graphics/SVG/1.1/DTD/svg11.dtd">
<!-- Generated by graphviz version 7.1.0 (0)
 -->
<!-- Title: /software/kratos/doxygen/kratos/solving_strategies/schemes/residual_based_bossak_displacement_scheme.hpp Pages: 1 -->
<svg width="881pt" height="247pt"
 viewBox="0.00 0.00 880.50 247.00" xmlns="http://www.w3.org/2000/svg" xmlns:xlink="http://www.w3.org/1999/xlink">
<g id="graph0" class="graph" transform="scale(1 1) rotate(0) translate(4 243)">
<title>/software/kratos/doxygen/kratos/solving_strategies/schemes/residual_based_bossak_displacement_scheme.hpp</title>
<!-- Node1 -->
<g id="node1" class="node">
<title>Node1</title>
<g id="a_node1"><a xlink:title=" ">
<polygon fill="#999999" stroke="#666666" points="544,-239 365,-239 365,-187 544,-187 544,-239"/>
<text text-anchor="start" x="373" y="-227" font-family="Helvetica,sans-Serif" font-size="10.00">/software/kratos/doxygen</text>
<text text-anchor="start" x="373" y="-216" font-family="Helvetica,sans-Serif" font-size="10.00">/kratos/solving_strategies</text>
<text text-anchor="start" x="373" y="-205" font-family="Helvetica,sans-Serif" font-size="10.00">/schemes/residual_based_bossak</text>
<text text-anchor="middle" x="454.5" y="-194" font-family="Helvetica,sans-Serif" font-size="10.00">_displacement_scheme.hpp</text>
</a>
</g>
</g>
<!-- Node2 -->
<g id="node2" class="node">
<title>Node2</title>
<g id="a_node2"><a xlink:href="../../dc/ddb/bossak__displacement__smoothing__scheme_8hpp.html" target="_top" xlink:title=" ">
<polygon fill="white" stroke="#666666" points="197.5,-151 15.5,-151 15.5,-88 197.5,-88 197.5,-151"/>
<text text-anchor="start" x="23.5" y="-139" font-family="Helvetica,sans-Serif" font-size="10.00">/software/kratos/doxygen</text>
<text text-anchor="start" x="23.5" y="-128" font-family="Helvetica,sans-Serif" font-size="10.00">/applications/DamApplication</text>
<text text-anchor="start" x="23.5" y="-117" font-family="Helvetica,sans-Serif" font-size="10.00">/custom_strategies/schemes</text>
<text text-anchor="start" x="23.5" y="-106" font-family="Helvetica,sans-Serif" font-size="10.00">/bossak_displacement_smoothing</text>
<text text-anchor="middle" x="106.5" y="-95" font-family="Helvetica,sans-Serif" font-size="10.00">_scheme.hpp</text>
</a>
</g>
</g>
<!-- Node1&#45;&gt;Node2 -->
<g id="edge1" class="edge">
<title>Node1&#45;&gt;Node2</title>
<path fill="none" stroke="#63b8ff" d="M353.82,-188.37C308.9,-177.51 255.41,-164.14 207.5,-151 204.32,-150.13 201.09,-149.23 197.83,-148.31"/>
<polygon fill="#63b8ff" stroke="#63b8ff" points="352.74,-191.71 363.28,-190.65 354.38,-184.9 352.74,-191.71"/>
</g>
<!-- Node4 -->
<g id="node4" class="node">
<title>Node4</title>
<g id="a_node4"><a xlink:href="../../d4/db4/mpm__residual__based__bossak__scheme_8hpp.html" target="_top" xlink:title=" ">
<polygon fill="white" stroke="#666666" points="426.5,-151 216.5,-151 216.5,-88 426.5,-88 426.5,-151"/>
<text text-anchor="start" x="224.5" y="-139" font-family="Helvetica,sans-Serif" font-size="10.00">/software/kratos/doxygen</text>
<text text-anchor="start" x="224.5" y="-128" font-family="Helvetica,sans-Serif" font-size="10.00">/applications/ParticleMechanics</text>
<text text-anchor="start" x="224.5" y="-117" font-family="Helvetica,sans-Serif" font-size="10.00">Application/custom_strategies</text>
<text text-anchor="start" x="224.5" y="-106" font-family="Helvetica,sans-Serif" font-size="10.00">/schemes/mpm_residual_based_bossak</text>
<text text-anchor="middle" x="321.5" y="-95" font-family="Helvetica,sans-Serif" font-size="10.00">_scheme.hpp</text>
</a>
</g>
</g>
<!-- Node1&#45;&gt;Node4 -->
<g id="edge3" class="edge">
<title>Node1&#45;&gt;Node4</title>
<path fill="none" stroke="#63b8ff" d="M408.28,-180.2C394.7,-170.86 379.88,-160.66 366.39,-151.38"/>
<polygon fill="#63b8ff" stroke="#63b8ff" points="405.98,-182.87 416.21,-185.65 409.95,-177.1 405.98,-182.87"/>
</g>
<!-- Node6 -->
<g id="node6" class="node">
<title>Node6</title>
<g id="a_node6"><a xlink:href="../../d8/dd7/add__strategies__to__python_8cpp.html" target="_top" xlink:title=" ">
<polygon fill="white" stroke="#666666" points="659.5,-46.5 497.5,-46.5 497.5,-5.5 659.5,-5.5 659.5,-46.5"/>
<text text-anchor="start" x="505.5" y="-34.5" font-family="Helvetica,sans-Serif" font-size="10.00">/software/kratos/doxygen</text>
<text text-anchor="start" x="505.5" y="-23.5" font-family="Helvetica,sans-Serif" font-size="10.00">/kratos/python/add_strategies</text>
<text text-anchor="middle" x="578.5" y="-12.5" font-family="Helvetica,sans-Serif" font-size="10.00">_to_python.cpp</text>
</a>
</g>
</g>
<!-- Node1&#45;&gt;Node6 -->
<g id="edge5" class="edge">
<title>Node1&#45;&gt;Node6</title>
<path fill="none" stroke="#63b8ff" d="M452.09,-175.46C452.13,-149.02 456.06,-113.59 473.5,-88 485.79,-69.97 505.3,-56.55 524.19,-46.96"/>
<polygon fill="#63b8ff" stroke="#63b8ff" points="448.58,-175.46 452.27,-185.39 455.58,-175.32 448.58,-175.46"/>
</g>
<!-- Node7 -->
<g id="node7" class="node">
<title>Node7</title>
<g id="a_node7"><a xlink:href="../../d8/df7/residual__based__newmark__displacement__scheme_8hpp.html" target="_top" xlink:title=" ">
<polygon fill="white" stroke="#666666" points="674,-145.5 483,-145.5 483,-93.5 674,-93.5 674,-145.5"/>
<text text-anchor="start" x="491" y="-133.5" font-family="Helvetica,sans-Serif" font-size="10.00">/software/kratos/doxygen</text>
<text text-anchor="start" x="491" y="-122.5" font-family="Helvetica,sans-Serif" font-size="10.00">/kratos/solving_strategies</text>
<text text-anchor="start" x="491" y="-111.5" font-family="Helvetica,sans-Serif" font-size="10.00">/schemes/residual_based_newmark</text>
<text text-anchor="middle" x="578.5" y="-100.5" font-family="Helvetica,sans-Serif" font-size="10.00">_displacement_scheme.hpp</text>
</a>
</g>
</g>
<!-- Node1&#45;&gt;Node7 -->
<g id="edge6" class="edge">
<title>Node1&#45;&gt;Node7</title>
<path fill="none" stroke="#63b8ff" d="M498.19,-179.76C513.26,-168.64 529.92,-156.35 544.14,-145.85"/>
<polygon fill="#63b8ff" stroke="#63b8ff" points="496.23,-176.86 490.26,-185.61 500.38,-182.49 496.23,-176.86"/>
</g>
<!-- Node8 -->
<g id="node8" class="node">
<title>Node8</title>
<g id="a_node8"><a xlink:href="../../de/dd6/residual__based__pseudo__static__displacement__scheme_8h.html" target="_top" xlink:title=" ">
<polygon fill="white" stroke="#666666" points="872.5,-145.5 692.5,-145.5 692.5,-93.5 872.5,-93.5 872.5,-145.5"/>
<text text-anchor="start" x="700.5" y="-133.5" font-family="Helvetica,sans-Serif" font-size="10.00">/software/kratos/doxygen</text>
<text text-anchor="start" x="700.5" y="-122.5" font-family="Helvetica,sans-Serif" font-size="10.00">/kratos/solving_strategies</text>
<text text-anchor="start" x="700.5" y="-111.5" font-family="Helvetica,sans-Serif" font-size="10.00">/schemes/residual_based_pseudo</text>
<text text-anchor="middle" x="782.5" y="-100.5" font-family="Helvetica,sans-Serif" font-size="10.00">_static_displacement_scheme.h</text>
</a>
</g>
</g>
<!-- Node1&#45;&gt;Node8 -->
<g id="edge8" class="edge">
<title>Node1&#45;&gt;Node8</title>
<path fill="none" stroke="#63b8ff" d="M555.54,-185.98C595.49,-175.46 641.75,-162.99 683.5,-151 689.12,-149.39 694.91,-147.69 700.73,-145.96"/>
<polygon fill="#63b8ff" stroke="#63b8ff" points="554.69,-182.59 545.91,-188.51 556.47,-189.36 554.69,-182.59"/>
</g>
<!-- Node3 -->
<g id="node3" class="node">
<title>Node3</title>
<g id="a_node3"><a xlink:href="../../dd/da2/_dam_application_2custom__python_2add__custom__strategies__to__python_8cpp.html" target="_top" xlink:title=" ">
<polygon fill="white" stroke="#666666" points="211,-52 0,-52 0,0 211,0 211,-52"/>
<text text-anchor="start" x="8" y="-40" font-family="Helvetica,sans-Serif" font-size="10.00">/software/kratos/doxygen</text>
<text text-anchor="start" x="8" y="-29" font-family="Helvetica,sans-Serif" font-size="10.00">/applications/DamApplication</text>
<text text-anchor="start" x="8" y="-18" font-family="Helvetica,sans-Serif" font-size="10.00">/custom_python/add_custom_strategies</text>
<text text-anchor="middle" x="105.5" y="-7" font-family="Helvetica,sans-Serif" font-size="10.00">_to_python.cpp</text>
</a>
</g>
</g>
<!-- Node2&#45;&gt;Node3 -->
<g id="edge2" class="edge">
<title>Node2&#45;&gt;Node3</title>
<path fill="none" stroke="#63b8ff" d="M106.04,-76.25C105.95,-68.13 105.86,-59.86 105.78,-52.47"/>
<polygon fill="#63b8ff" stroke="#63b8ff" points="102.54,-76.05 106.14,-86.01 109.54,-75.97 102.54,-76.05"/>
</g>
<!-- Node5 -->
<g id="node5" class="node">
<title>Node5</title>
<g id="a_node5"><a xlink:href="../../d0/d4d/_particle_mechanics_application_2custom__python_2add__custom__strategies__to__python_8cpp.html" target="_top" xlink:title=" ">
<polygon fill="white" stroke="#666666" points="415.5,-52 229.5,-52 229.5,0 415.5,0 415.5,-52"/>
<text text-anchor="start" x="237.5" y="-40" font-family="Helvetica,sans-Serif" font-size="10.00">/software/kratos/doxygen</text>
<text text-anchor="start" x="237.5" y="-29" font-family="Helvetica,sans-Serif" font-size="10.00">/applications/ParticleMechanics</text>
<text text-anchor="start" x="237.5" y="-18" font-family="Helvetica,sans-Serif" font-size="10.00">Application/custom_python/add</text>
<text text-anchor="middle" x="322.5" y="-7" font-family="Helvetica,sans-Serif" font-size="10.00">_custom_strategies_to_python.cpp</text>
</a>
</g>
</g>
<!-- Node4&#45;&gt;Node5 -->
<g id="edge4" class="edge">
<title>Node4&#45;&gt;Node5</title>
<path fill="none" stroke="#63b8ff" d="M321.96,-76.25C322.05,-68.13 322.14,-59.86 322.22,-52.47"/>
<polygon fill="#63b8ff" stroke="#63b8ff" points="318.46,-75.97 321.86,-86.01 325.46,-76.05 318.46,-75.97"/>
</g>
<!-- Node7&#45;&gt;Node6 -->
<g id="edge7" class="edge">
<title>Node7&#45;&gt;Node6</title>
<path fill="none" stroke="#63b8ff" d="M578.5,-81.54C578.5,-69.68 578.5,-56.99 578.5,-46.84"/>
<polygon fill="#63b8ff" stroke="#63b8ff" points="575,-81.5 578.5,-91.5 582,-81.5 575,-81.5"/>
</g>
<!-- Node8&#45;&gt;Node6 -->
<g id="edge9" class="edge">
<title>Node8&#45;&gt;Node6</title>
<path fill="none" stroke="#63b8ff" d="M715.18,-88.31C684.92,-74.73 650.02,-59.08 623.07,-46.99"/>
<polygon fill="#63b8ff" stroke="#63b8ff" points="713.74,-91.49 724.29,-92.39 716.6,-85.11 713.74,-91.49"/>
</g>
</g>
</svg>
