<?xml version="1.0" encoding="UTF-8" standalone="no"?>
<!DOCTYPE svg PUBLIC "-//W3C//DTD SVG 1.1//EN"
 "http://www.w3.org/Graphics/SVG/1.1/DTD/svg11.dtd">
<!-- Generated by graphviz version 2.43.0 (0)
 -->
<!-- Title: /home/runner/work/Documentation/Documentation/master/applications/StructuralMechanicsApplication/custom_processes/compute_center_of_gravity_process.cpp Pages: 1 -->
<svg width="3138pt" height="1056pt"
 viewBox="0.00 0.00 3138.00 1056.00" xmlns="http://www.w3.org/2000/svg" xmlns:xlink="http://www.w3.org/1999/xlink">
<g id="graph0" class="graph" transform="scale(1 1) rotate(0) translate(4 1052)">
<title>/home/runner/work/Documentation/Documentation/master/applications/StructuralMechanicsApplication/custom_processes/compute_center_of_gravity_process.cpp</title>
<!-- Node1 -->
<g id="node1" class="node">
<title>Node1</title>
<g id="a_node1"><a xlink:title=" ">
<polygon fill="#bfbfbf" stroke="black" points="460,-984.5 460,-1047.5 654,-1047.5 654,-984.5 460,-984.5"/>
<text text-anchor="start" x="468" y="-1035.5" font-family="Helvetica,sans-Serif" font-size="10.00">/home/runner/work/Documentation</text>
<text text-anchor="start" x="468" y="-1024.5" font-family="Helvetica,sans-Serif" font-size="10.00">/Documentation/master/applications</text>
<text text-anchor="start" x="468" y="-1013.5" font-family="Helvetica,sans-Serif" font-size="10.00">/StructuralMechanicsApplication</text>
<text text-anchor="start" x="468" y="-1002.5" font-family="Helvetica,sans-Serif" font-size="10.00">/custom_processes/compute_center</text>
<text text-anchor="middle" x="557" y="-991.5" font-family="Helvetica,sans-Serif" font-size="10.00">_of_gravity_process.cpp</text>
</a>
</g>
</g>
<!-- Node2 -->
<g id="node2" class="node">
<title>Node2</title>
<g id="a_node2"><a xlink:href="../../d7/d58/compute__center__of__gravity__process_8h.html" target="_top" xlink:title=" ">
<polygon fill="none" stroke="black" points="677.5,-917.5 677.5,-947.5 836.5,-947.5 836.5,-917.5 677.5,-917.5"/>
<text text-anchor="start" x="685.5" y="-935.5" font-family="Helvetica,sans-Serif" font-size="10.00">custom_processes/compute</text>
<text text-anchor="middle" x="757" y="-924.5" font-family="Helvetica,sans-Serif" font-size="10.00">_center_of_gravity_process.h</text>
</a>
</g>
</g>
<!-- Node1&#45;&gt;Node2 -->
<g id="edge1" class="edge">
<title>Node1&#45;&gt;Node2</title>
<path fill="none" stroke="midnightblue" d="M632.04,-984.42C659.32,-973.3 689.24,-961.11 712.97,-951.44"/>
<polygon fill="midnightblue" stroke="midnightblue" points="714.46,-954.62 722.4,-947.6 711.82,-948.13 714.46,-954.62"/>
</g>
<!-- Node132 -->
<g id="node48" class="node">
<title>Node132</title>
<g id="a_node48"><a xlink:href="../../d9/d65/total__structural__mass__process_8h.html" target="_top" xlink:title=" ">
<polygon fill="none" stroke="black" points="481,-917.5 481,-947.5 633,-947.5 633,-917.5 481,-917.5"/>
<text text-anchor="start" x="489" y="-935.5" font-family="Helvetica,sans-Serif" font-size="10.00">custom_processes/total</text>
<text text-anchor="middle" x="557" y="-924.5" font-family="Helvetica,sans-Serif" font-size="10.00">_structural_mass_process.h</text>
</a>
</g>
</g>
<!-- Node1&#45;&gt;Node132 -->
<g id="edge166" class="edge">
<title>Node1&#45;&gt;Node132</title>
<path fill="none" stroke="midnightblue" d="M557,-984.19C557,-975.41 557,-965.98 557,-957.66"/>
<polygon fill="midnightblue" stroke="midnightblue" points="560.5,-957.52 557,-947.52 553.5,-957.52 560.5,-957.52"/>
</g>
<!-- Node133 -->
<g id="node49" class="node">
<title>Node133</title>
<g id="a_node49"><a xlink:href="../../db/d0c/structural__mechanics__application__variables_8h.html" target="_top" xlink:title=" ">
<polygon fill="none" stroke="black" points="84.5,-615.5 84.5,-645.5 219.5,-645.5 219.5,-615.5 84.5,-615.5"/>
<text text-anchor="start" x="92.5" y="-633.5" font-family="Helvetica,sans-Serif" font-size="10.00">structural_mechanics</text>
<text text-anchor="middle" x="152" y="-622.5" font-family="Helvetica,sans-Serif" font-size="10.00">_application_variables.h</text>
</a>
</g>
</g>
<!-- Node1&#45;&gt;Node133 -->
<g id="edge169" class="edge">
<title>Node1&#45;&gt;Node133</title>
<path fill="none" stroke="midnightblue" d="M459.99,-1008.11C309.77,-994.73 38,-958.57 38,-872 38,-872 38,-872 38,-758 38,-710.24 83.41,-672.38 116.9,-650.94"/>
<polygon fill="midnightblue" stroke="midnightblue" points="118.89,-653.83 125.56,-645.6 115.21,-647.87 118.89,-653.83"/>
</g>
<!-- Node3 -->
<g id="node3" class="node">
<title>Node3</title>
<g id="a_node3"><a xlink:href="../../da/d42/process_8h.html" target="_top" xlink:title=" ">
<polygon fill="none" stroke="black" points="1025.5,-749.5 1025.5,-768.5 1140.5,-768.5 1140.5,-749.5 1025.5,-749.5"/>
<text text-anchor="middle" x="1083" y="-756.5" font-family="Helvetica,sans-Serif" font-size="10.00">processes/process.h</text>
</a>
</g>
</g>
<!-- Node2&#45;&gt;Node3 -->
<g id="edge2" class="edge">
<title>Node2&#45;&gt;Node3</title>
<path fill="none" stroke="midnightblue" d="M783.68,-917.47C845.33,-885.03 997.03,-805.23 1057.51,-773.41"/>
<polygon fill="midnightblue" stroke="midnightblue" points="1059.51,-776.31 1066.73,-768.56 1056.25,-770.12 1059.51,-776.31"/>
</g>
<!-- Node85 -->
<g id="node33" class="node">
<title>Node85</title>
<g id="a_node33"><a xlink:href="../../dd/dfe/model__part_8h.html" target="_top" xlink:title=" ">
<polygon fill="none" stroke="black" points="1504.5,-861.5 1504.5,-880.5 1629.5,-880.5 1629.5,-861.5 1504.5,-861.5"/>
<text text-anchor="middle" x="1567" y="-868.5" font-family="Helvetica,sans-Serif" font-size="10.00">includes/model_part.h</text>
</a>
</g>
</g>
<!-- Node2&#45;&gt;Node85 -->
<g id="edge72" class="edge">
<title>Node2&#45;&gt;Node85</title>
<path fill="none" stroke="midnightblue" d="M836.51,-925.66C993.83,-914.1 1342.68,-888.48 1494.3,-877.34"/>
<polygon fill="midnightblue" stroke="midnightblue" points="1494.71,-880.82 1504.43,-876.6 1494.2,-873.84 1494.71,-880.82"/>
</g>
<!-- Node4 -->
<g id="node4" class="node">
<title>Node4</title>
<g id="a_node4"><a xlink:href="../../df/d67/define_8h.html" target="_top" xlink:title=" ">
<polygon fill="none" stroke="black" points="1310.5,-123.5 1310.5,-142.5 1409.5,-142.5 1409.5,-123.5 1310.5,-123.5"/>
<text text-anchor="middle" x="1360" y="-130.5" font-family="Helvetica,sans-Serif" font-size="10.00">includes/define.h</text>
</a>
</g>
</g>
<!-- Node3&#45;&gt;Node4 -->
<g id="edge3" class="edge">
<title>Node3&#45;&gt;Node4</title>
<path fill="none" stroke="midnightblue" d="M1088.89,-749.23C1101.7,-729.26 1131,-678.48 1131,-631.5 1131,-631.5 1131,-631.5 1131,-562.5 1131,-373.8 734.37,-396.65 848,-246 883.07,-199.5 920.96,-234.06 974,-210 997.13,-199.51 998.17,-187.78 1022,-179 1071.73,-160.68 1217.21,-145.98 1300.2,-138.79"/>
<polygon fill="midnightblue" stroke="midnightblue" points="1300.58,-142.27 1310.24,-137.93 1299.98,-135.3 1300.58,-142.27"/>
</g>
<!-- Node18 -->
<g id="node13" class="node">
<title>Node18</title>
<g id="a_node13"><a xlink:href="../../d0/dac/kratos__flags_8h.html" target="_top" xlink:title=" ">
<polygon fill="none" stroke="black" points="975,-554 975,-573 1103,-573 1103,-554 975,-554"/>
<text text-anchor="middle" x="1039" y="-561" font-family="Helvetica,sans-Serif" font-size="10.00">includes/kratos_flags.h</text>
</a>
</g>
</g>
<!-- Node3&#45;&gt;Node18 -->
<g id="edge16" class="edge">
<title>Node3&#45;&gt;Node18</title>
<path fill="none" stroke="midnightblue" d="M1081.05,-749.44C1074.41,-720.22 1052.54,-624.06 1043.24,-583.17"/>
<polygon fill="midnightblue" stroke="midnightblue" points="1046.66,-582.38 1041.03,-573.41 1039.83,-583.93 1046.66,-582.38"/>
</g>
<!-- Node82 -->
<g id="node30" class="node">
<title>Node82</title>
<g id="a_node30"><a xlink:href="../../db/d71/kratos__parameters_8h.html" target="_top" xlink:title=" ">
<polygon fill="none" stroke="black" points="1292.5,-688 1292.5,-707 1453.5,-707 1453.5,-688 1292.5,-688"/>
<text text-anchor="middle" x="1373" y="-695" font-family="Helvetica,sans-Serif" font-size="10.00">includes/kratos_parameters.h</text>
</a>
</g>
</g>
<!-- Node3&#45;&gt;Node82 -->
<g id="edge67" class="edge">
<title>Node3&#45;&gt;Node82</title>
<path fill="none" stroke="midnightblue" d="M1124.55,-749.48C1176.45,-738.83 1265.24,-720.61 1321.43,-709.08"/>
<polygon fill="midnightblue" stroke="midnightblue" points="1322.43,-712.45 1331.53,-707.01 1321.03,-705.59 1322.43,-712.45"/>
</g>
<!-- Node5 -->
<g id="node5" class="node">
<title>Node5</title>
<g id="a_node5"><a xlink:title=" ">
<polygon fill="none" stroke="#bfbfbf" points="1628.5,-6 1628.5,-25 1693.5,-25 1693.5,-6 1628.5,-6"/>
<text text-anchor="middle" x="1661" y="-13" font-family="Helvetica,sans-Serif" font-size="10.00">stdexcept</text>
</a>
</g>
</g>
<!-- Node4&#45;&gt;Node5 -->
<g id="edge4" class="edge">
<title>Node4&#45;&gt;Node5</title>
<path fill="none" stroke="midnightblue" d="M1382.62,-123.32C1435.59,-102.99 1567.8,-52.26 1628.99,-28.78"/>
<polygon fill="midnightblue" stroke="midnightblue" points="1630.44,-31.97 1638.52,-25.12 1627.93,-25.44 1630.44,-31.97"/>
</g>
<!-- Node6 -->
<g id="node6" class="node">
<title>Node6</title>
<g id="a_node6"><a xlink:title=" ">
<polygon fill="none" stroke="#bfbfbf" points="2679,-6 2679,-25 2735,-25 2735,-6 2679,-6"/>
<text text-anchor="middle" x="2707" y="-13" font-family="Helvetica,sans-Serif" font-size="10.00">sstream</text>
</a>
</g>
</g>
<!-- Node4&#45;&gt;Node6 -->
<g id="edge5" class="edge">
<title>Node4&#45;&gt;Node6</title>
<path fill="none" stroke="midnightblue" d="M1409.65,-130.57C1536.92,-126.63 1885.12,-114.05 2174,-87 2360.2,-69.56 2581.42,-36.24 2668.79,-22.57"/>
<polygon fill="midnightblue" stroke="midnightblue" points="2669.44,-26.02 2678.77,-21.01 2668.35,-19.1 2669.44,-26.02"/>
</g>
<!-- Node7 -->
<g id="node7" class="node">
<title>Node7</title>
<g id="a_node7"><a xlink:href="../../dc/d25/kratos__export__api_8h.html" target="_top" xlink:title=" ">
<polygon fill="none" stroke="black" points="1923,-0.5 1923,-30.5 2051,-30.5 2051,-0.5 1923,-0.5"/>
<text text-anchor="start" x="1931" y="-18.5" font-family="Helvetica,sans-Serif" font-size="10.00">includes/kratos_export</text>
<text text-anchor="middle" x="1987" y="-7.5" font-family="Helvetica,sans-Serif" font-size="10.00">_api.h</text>
</a>
</g>
</g>
<!-- Node4&#45;&gt;Node7 -->
<g id="edge6" class="edge">
<title>Node4&#45;&gt;Node7</title>
<path fill="none" stroke="midnightblue" d="M1406.36,-123.46C1514.04,-103.62 1781.85,-54.29 1912.69,-30.19"/>
<polygon fill="midnightblue" stroke="midnightblue" points="1913.43,-33.61 1922.63,-28.36 1912.16,-26.73 1913.43,-33.61"/>
</g>
<!-- Node8 -->
<g id="node8" class="node">
<title>Node8</title>
<g id="a_node8"><a xlink:href="../../d9/dc0/smart__pointers_8h.html" target="_top" xlink:title=" ">
<polygon fill="none" stroke="red" points="722.5,-67.5 722.5,-86.5 865.5,-86.5 865.5,-67.5 722.5,-67.5"/>
<text text-anchor="middle" x="794" y="-74.5" font-family="Helvetica,sans-Serif" font-size="10.00">includes/smart_pointers.h</text>
</a>
</g>
</g>
<!-- Node4&#45;&gt;Node8 -->
<g id="edge7" class="edge">
<title>Node4&#45;&gt;Node8</title>
<path fill="none" stroke="midnightblue" d="M1310.27,-127.26C1212.63,-117.94 995.03,-97.18 875.88,-85.81"/>
<polygon fill="midnightblue" stroke="midnightblue" points="876,-82.31 865.71,-84.84 875.34,-89.28 876,-82.31"/>
</g>
<!-- Node13 -->
<g id="node10" class="node">
<title>Node13</title>
<g id="a_node10"><a xlink:href="../../dd/d2d/exception_8h.html" target="_top" xlink:title=" ">
<polygon fill="none" stroke="red" points="2048.5,-67.5 2048.5,-86.5 2165.5,-86.5 2165.5,-67.5 2048.5,-67.5"/>
<text text-anchor="middle" x="2107" y="-74.5" font-family="Helvetica,sans-Serif" font-size="10.00">includes/exception.h</text>
</a>
</g>
</g>
<!-- Node4&#45;&gt;Node13 -->
<g id="edge9" class="edge">
<title>Node4&#45;&gt;Node13</title>
<path fill="none" stroke="midnightblue" d="M1409.59,-128.42C1539.27,-119.04 1888.67,-93.78 2037.9,-82.99"/>
<polygon fill="midnightblue" stroke="midnightblue" points="2038.58,-86.46 2048.3,-82.24 2038.07,-79.47 2038.58,-86.46"/>
</g>
<!-- Node9 -->
<g id="node9" class="node">
<title>Node9</title>
<g id="a_node9"><a xlink:title=" ">
<polygon fill="none" stroke="#bfbfbf" points="1439,-6 1439,-25 1499,-25 1499,-6 1439,-6"/>
<text text-anchor="middle" x="1469" y="-13" font-family="Helvetica,sans-Serif" font-size="10.00">iostream</text>
</a>
</g>
</g>
<!-- Node8&#45;&gt;Node9 -->
<g id="edge8" class="edge">
<title>Node8&#45;&gt;Node9</title>
<path fill="none" stroke="midnightblue" d="M865.79,-68.39C870.6,-67.91 875.37,-67.44 880,-67 1086.31,-47.36 1333.62,-27.28 1428.88,-19.68"/>
<polygon fill="midnightblue" stroke="midnightblue" points="1429.26,-23.16 1438.95,-18.88 1428.7,-16.18 1429.26,-23.16"/>
</g>
<!-- Node13&#45;&gt;Node5 -->
<g id="edge10" class="edge">
<title>Node13&#45;&gt;Node5</title>
<path fill="none" stroke="midnightblue" d="M2048.23,-68.16C1957.23,-56.02 1784.35,-32.96 1704.02,-22.24"/>
<polygon fill="midnightblue" stroke="midnightblue" points="1704.15,-18.73 1693.77,-20.87 1703.22,-25.66 1704.15,-18.73"/>
</g>
<!-- Node13&#45;&gt;Node6 -->
<g id="edge13" class="edge">
<title>Node13&#45;&gt;Node6</title>
<path fill="none" stroke="midnightblue" d="M2165.62,-70.19C2287.8,-58.07 2566.77,-30.41 2668.76,-20.29"/>
<polygon fill="midnightblue" stroke="midnightblue" points="2669.3,-23.76 2678.9,-19.29 2668.61,-16.79 2669.3,-23.76"/>
</g>
<!-- Node13&#45;&gt;Node7 -->
<g id="edge15" class="edge">
<title>Node13&#45;&gt;Node7</title>
<path fill="none" stroke="midnightblue" d="M2089.81,-67.48C2072.8,-59.04 2046.2,-45.86 2024.33,-35.01"/>
<polygon fill="midnightblue" stroke="midnightblue" points="2025.8,-31.83 2015.28,-30.52 2022.69,-38.1 2025.8,-31.83"/>
</g>
<!-- Node13&#45;&gt;Node9 -->
<g id="edge12" class="edge">
<title>Node13&#45;&gt;Node9</title>
<path fill="none" stroke="midnightblue" d="M2048.45,-68.59C2043.56,-68.03 2038.7,-67.49 2034,-67 1849.87,-47.67 1803.36,-47.91 1619,-31 1581.83,-27.59 1539.5,-23.48 1509.3,-20.5"/>
<polygon fill="midnightblue" stroke="midnightblue" points="1509.45,-17 1499.16,-19.5 1508.77,-23.97 1509.45,-17"/>
</g>
<!-- Node14 -->
<g id="node11" class="node">
<title>Node14</title>
<g id="a_node11"><a xlink:title=" ">
<polygon fill="none" stroke="#bfbfbf" points="2248,-6 2248,-25 2292,-25 2292,-6 2248,-6"/>
<text text-anchor="middle" x="2270" y="-13" font-family="Helvetica,sans-Serif" font-size="10.00">string</text>
</a>
</g>
</g>
<!-- Node13&#45;&gt;Node14 -->
<g id="edge11" class="edge">
<title>Node13&#45;&gt;Node14</title>
<path fill="none" stroke="midnightblue" d="M2130.35,-67.48C2158.71,-57.12 2206.67,-39.62 2238.33,-28.06"/>
<polygon fill="midnightblue" stroke="midnightblue" points="2239.8,-31.25 2247.99,-24.53 2237.4,-24.67 2239.8,-31.25"/>
</g>
<!-- Node15 -->
<g id="node12" class="node">
<title>Node15</title>
<g id="a_node12"><a xlink:title=" ">
<polygon fill="none" stroke="#bfbfbf" points="2930.5,-6 2930.5,-25 2977.5,-25 2977.5,-6 2930.5,-6"/>
<text text-anchor="middle" x="2954" y="-13" font-family="Helvetica,sans-Serif" font-size="10.00">vector</text>
</a>
</g>
</g>
<!-- Node13&#45;&gt;Node15 -->
<g id="edge14" class="edge">
<title>Node13&#45;&gt;Node15</title>
<path fill="none" stroke="midnightblue" d="M2165.55,-71.89C2329.81,-60.35 2791.37,-27.92 2920.22,-18.87"/>
<polygon fill="midnightblue" stroke="midnightblue" points="2920.55,-22.36 2930.28,-18.17 2920.06,-15.38 2920.55,-22.36"/>
</g>
<!-- Node18&#45;&gt;Node4 -->
<g id="edge17" class="edge">
<title>Node18&#45;&gt;Node4</title>
<path fill="none" stroke="midnightblue" d="M1040.88,-553.56C1043.36,-539.44 1046.18,-511.59 1035,-492 1008.48,-445.54 979.84,-454.18 935,-425 932.76,-423.54 773.29,-324.35 772,-322 767.71,-314.21 769.39,-310.5 772,-302 780.83,-273.25 785.63,-263.63 810,-246 857.18,-211.86 882.96,-234.06 936,-210 959.13,-199.51 960.11,-187.62 984,-179 1040.72,-158.54 1209.2,-144.29 1300.16,-137.86"/>
<polygon fill="midnightblue" stroke="midnightblue" points="1300.59,-141.34 1310.32,-137.16 1300.1,-134.36 1300.59,-141.34"/>
</g>
<!-- Node19 -->
<g id="node14" class="node">
<title>Node19</title>
<g id="a_node14"><a xlink:href="../../d9/da0/flags_8h.html" target="_top" xlink:title=" ">
<polygon fill="none" stroke="black" points="1658.5,-246.5 1658.5,-265.5 1761.5,-265.5 1761.5,-246.5 1658.5,-246.5"/>
<text text-anchor="middle" x="1710" y="-253.5" font-family="Helvetica,sans-Serif" font-size="10.00">containers/flags.h</text>
</a>
</g>
</g>
<!-- Node18&#45;&gt;Node19 -->
<g id="edge18" class="edge">
<title>Node18&#45;&gt;Node19</title>
<path fill="none" stroke="midnightblue" d="M1054.91,-553.85C1118.95,-519.23 1364.49,-388.41 1576,-302 1607.53,-289.12 1644.25,-276.98 1671.27,-268.56"/>
<polygon fill="midnightblue" stroke="midnightblue" points="1672.6,-271.82 1681.12,-265.53 1670.53,-265.13 1672.6,-271.82"/>
</g>
<!-- Node20 -->
<g id="node15" class="node">
<title>Node20</title>
<g id="a_node15"><a xlink:href="../../dc/d8e/kratos__components_8h.html" target="_top" xlink:title=" ">
<polygon fill="none" stroke="red" points="861.5,-492.5 861.5,-511.5 1026.5,-511.5 1026.5,-492.5 861.5,-492.5"/>
<text text-anchor="middle" x="944" y="-499.5" font-family="Helvetica,sans-Serif" font-size="10.00">includes/kratos_components.h</text>
</a>
</g>
</g>
<!-- Node18&#45;&gt;Node20 -->
<g id="edge22" class="edge">
<title>Node18&#45;&gt;Node20</title>
<path fill="none" stroke="midnightblue" d="M1025.39,-553.98C1009.94,-544.3 984.51,-528.37 966.18,-516.89"/>
<polygon fill="midnightblue" stroke="midnightblue" points="967.92,-513.85 957.59,-511.51 964.2,-519.78 967.92,-513.85"/>
</g>
<!-- Node19&#45;&gt;Node4 -->
<g id="edge21" class="edge">
<title>Node19&#45;&gt;Node4</title>
<path fill="none" stroke="midnightblue" d="M1658.22,-253.47C1604.86,-250.19 1520.34,-240.18 1454,-210 1422.19,-195.53 1392,-167.73 1374.77,-150.07"/>
<polygon fill="midnightblue" stroke="midnightblue" points="1377.24,-147.58 1367.81,-142.75 1372.17,-152.4 1377.24,-147.58"/>
</g>
<!-- Node19&#45;&gt;Node9 -->
<g id="edge20" class="edge">
<title>Node19&#45;&gt;Node9</title>
<path fill="none" stroke="midnightblue" d="M1686.65,-246.41C1637.26,-226.85 1522.74,-173.84 1474,-87 1465.19,-71.31 1464.83,-50.47 1466.14,-35.52"/>
<polygon fill="midnightblue" stroke="midnightblue" points="1469.63,-35.77 1467.34,-25.42 1462.68,-34.94 1469.63,-35.77"/>
</g>
<!-- Node19&#45;&gt;Node14 -->
<g id="edge19" class="edge">
<title>Node19&#45;&gt;Node14</title>
<path fill="none" stroke="midnightblue" d="M1761.78,-253.13C1859.29,-249.02 2066.24,-237.28 2132,-210 2212.27,-176.7 2246.57,-165.43 2284,-87 2292.03,-70.16 2285.91,-48.95 2279.42,-34.21"/>
<polygon fill="midnightblue" stroke="midnightblue" points="2282.56,-32.65 2275.05,-25.18 2276.26,-35.7 2282.56,-32.65"/>
</g>
<!-- Node20&#45;&gt;Node4 -->
<g id="edge26" class="edge">
<title>Node20&#45;&gt;Node4</title>
<path fill="none" stroke="midnightblue" d="M942.06,-492.04C938.34,-476.72 928.97,-445.21 911,-425 850.53,-356.98 779.37,-400.9 734,-322 717.16,-292.72 712.83,-272.32 734,-246 780.77,-187.85 829.12,-238.7 898,-210 921.44,-200.23 922.07,-187.49 946,-179 1009.75,-156.39 1201.51,-142.79 1300.07,-137.11"/>
<polygon fill="midnightblue" stroke="midnightblue" points="1300.39,-140.6 1310.18,-136.54 1299.99,-133.61 1300.39,-140.6"/>
</g>
<!-- Node20&#45;&gt;Node9 -->
<g id="edge24" class="edge">
<title>Node20&#45;&gt;Node9</title>
<path fill="none" stroke="midnightblue" d="M932.31,-492.42C905.49,-472.76 841.64,-426.04 839,-425 716.05,-376.75 668.72,-432.48 544,-389 388.5,-334.79 228,-360.18 228,-195.5 228,-195.5 228,-195.5 228,-132 228,-56.07 311.87,-83.46 386,-67 590.51,-21.6 1258.14,-16.97 1428.93,-16.54"/>
<polygon fill="midnightblue" stroke="midnightblue" points="1429,-20.04 1438.99,-16.51 1428.98,-13.04 1429,-20.04"/>
</g>
<!-- Node20&#45;&gt;Node14 -->
<g id="edge23" class="edge">
<title>Node20&#45;&gt;Node14</title>
<path fill="none" stroke="midnightblue" d="M937.39,-492.31C923.38,-474.13 890.67,-433.1 875,-425 815.74,-394.38 621.25,-438.91 577,-389 549.13,-357.56 546.31,-313.09 607,-246 663.43,-183.62 702.2,-198.58 784,-179 896.39,-152.11 1185.92,-133.53 1301,-123 1514.93,-103.43 1569.46,-110.4 1783,-87 1954.95,-68.16 2159.55,-35.02 2237.59,-21.99"/>
<polygon fill="midnightblue" stroke="midnightblue" points="2238.46,-25.39 2247.74,-20.28 2237.3,-18.48 2238.46,-25.39"/>
</g>
<!-- Node20&#45;&gt;Node19 -->
<g id="edge27" class="edge">
<title>Node20&#45;&gt;Node19</title>
<path fill="none" stroke="midnightblue" d="M966.33,-492.43C1042.94,-463.24 1302.41,-365.92 1522,-302 1568.14,-288.57 1621.49,-276.08 1659.54,-267.69"/>
<polygon fill="midnightblue" stroke="midnightblue" points="1660.34,-271.1 1669.36,-265.54 1658.85,-264.26 1660.34,-271.1"/>
</g>
<!-- Node21 -->
<g id="node16" class="node">
<title>Node21</title>
<g id="a_node16"><a xlink:title=" ">
<polygon fill="none" stroke="#bfbfbf" points="1078,-246.5 1078,-265.5 1116,-265.5 1116,-246.5 1078,-246.5"/>
<text text-anchor="middle" x="1097" y="-253.5" font-family="Helvetica,sans-Serif" font-size="10.00">map</text>
</a>
</g>
</g>
<!-- Node20&#45;&gt;Node21 -->
<g id="edge25" class="edge">
<title>Node20&#45;&gt;Node21</title>
<path fill="none" stroke="midnightblue" d="M949.45,-492.32C971.71,-456.81 1056.04,-322.32 1086.2,-274.23"/>
<polygon fill="midnightblue" stroke="midnightblue" points="1089.27,-275.91 1091.62,-265.58 1083.34,-272.19 1089.27,-275.91"/>
</g>
<!-- Node63 -->
<g id="node17" class="node">
<title>Node63</title>
<g id="a_node17"><a xlink:href="../../da/d89/variable_8h.html" target="_top" xlink:title=" ">
<polygon fill="none" stroke="red" points="711.5,-431 711.5,-450 830.5,-450 830.5,-431 711.5,-431"/>
<text text-anchor="middle" x="771" y="-438" font-family="Helvetica,sans-Serif" font-size="10.00">containers/variable.h</text>
</a>
</g>
</g>
<!-- Node20&#45;&gt;Node63 -->
<g id="edge28" class="edge">
<title>Node20&#45;&gt;Node63</title>
<path fill="none" stroke="midnightblue" d="M919.21,-492.48C889.41,-482.22 839.21,-464.96 805.6,-453.4"/>
<polygon fill="midnightblue" stroke="midnightblue" points="806.34,-449.95 795.74,-450.01 804.06,-456.57 806.34,-449.95"/>
</g>
<!-- Node63&#45;&gt;Node4 -->
<g id="edge31" class="edge">
<title>Node63&#45;&gt;Node4</title>
<path fill="none" stroke="midnightblue" d="M768.31,-430.84C763.22,-415.29 751.14,-382.04 734,-358 720.5,-339.06 705.19,-343.37 696,-322 682.65,-290.97 674.83,-272.32 696,-246 742.77,-187.85 791.12,-238.7 860,-210 883.44,-200.23 884.03,-187.38 908,-179 978.87,-154.22 1194.37,-141.41 1300.15,-136.47"/>
<polygon fill="midnightblue" stroke="midnightblue" points="1300.51,-139.96 1310.34,-136 1300.19,-132.96 1300.51,-139.96"/>
</g>
<!-- Node63&#45;&gt;Node9 -->
<g id="edge30" class="edge">
<title>Node63&#45;&gt;Node9</title>
<path fill="none" stroke="midnightblue" d="M711.25,-435.71C549.29,-423.8 114,-380.34 114,-257 114,-257 114,-257 114,-132 114,-78.99 163.49,-83.08 214,-67 331.88,-29.46 1227.01,-18.79 1428.71,-16.85"/>
<polygon fill="midnightblue" stroke="midnightblue" points="1428.9,-20.35 1438.86,-16.76 1428.83,-13.35 1428.9,-20.35"/>
</g>
<!-- Node63&#45;&gt;Node14 -->
<g id="edge29" class="edge">
<title>Node63&#45;&gt;Node14</title>
<path fill="none" stroke="midnightblue" d="M711.35,-436.17C614.9,-427.07 428.69,-393.05 361,-266 334.18,-215.65 409.12,-191.93 437,-179 592.27,-106.99 647.65,-139.51 818,-123 986.29,-106.69 1414.86,-131.43 1578,-87 1596.41,-81.98 1597.66,-72.29 1616,-67 1631.12,-62.64 2107.68,-28.16 2237.58,-18.82"/>
<polygon fill="midnightblue" stroke="midnightblue" points="2237.97,-22.31 2247.7,-18.1 2237.47,-15.32 2237.97,-22.31"/>
</g>
<!-- Node78 -->
<g id="node18" class="node">
<title>Node78</title>
<g id="a_node18"><a xlink:href="../../d3/dc3/variable__data_8h.html" target="_top" xlink:title=" ">
<polygon fill="none" stroke="red" points="1077,-364 1077,-383 1169,-383 1169,-364 1077,-364"/>
<text text-anchor="middle" x="1123" y="-371" font-family="Helvetica,sans-Serif" font-size="10.00">variable_data.h</text>
</a>
</g>
</g>
<!-- Node63&#45;&gt;Node78 -->
<g id="edge32" class="edge">
<title>Node63&#45;&gt;Node78</title>
<path fill="none" stroke="midnightblue" d="M817.38,-430.94C881.7,-419.06 997.86,-397.61 1066.96,-384.85"/>
<polygon fill="midnightblue" stroke="midnightblue" points="1067.6,-388.29 1076.8,-383.03 1066.33,-381.41 1067.6,-388.29"/>
</g>
<!-- Node78&#45;&gt;Node4 -->
<g id="edge36" class="edge">
<title>Node78&#45;&gt;Node4</title>
<path fill="none" stroke="midnightblue" d="M1088.16,-363.94C1031.44,-349.97 925.28,-323.65 924,-322 903.26,-295.34 903.3,-272.69 924,-246 930.11,-238.12 1203.69,-171.6 1314.3,-144.96"/>
<polygon fill="midnightblue" stroke="midnightblue" points="1315.27,-148.33 1324.17,-142.59 1313.63,-141.52 1315.27,-148.33"/>
</g>
<!-- Node78&#45;&gt;Node9 -->
<g id="edge34" class="edge">
<title>Node78&#45;&gt;Node9</title>
<path fill="none" stroke="midnightblue" d="M1086.65,-363.94C1044.07,-353.9 971.41,-336.77 909,-322 856.55,-309.59 470.43,-252.29 437,-210 428.46,-199.19 430.03,-190.89 437,-179 488.52,-91.11 539.25,-95.7 637,-67 788.04,-22.66 1283.24,-17.21 1428.56,-16.57"/>
<polygon fill="midnightblue" stroke="midnightblue" points="1428.82,-20.07 1438.81,-16.54 1428.79,-13.07 1428.82,-20.07"/>
</g>
<!-- Node78&#45;&gt;Node14 -->
<g id="edge33" class="edge">
<title>Node78&#45;&gt;Node14</title>
<path fill="none" stroke="midnightblue" d="M1093.11,-363.99C1033.6,-345.64 909.91,-299.64 957,-246 979.49,-220.38 2142.36,-99.7 2174,-87 2190.68,-80.31 2228.96,-50.21 2251.82,-31.57"/>
<polygon fill="midnightblue" stroke="midnightblue" points="2254.24,-34.11 2259.75,-25.06 2249.8,-28.7 2254.24,-34.11"/>
</g>
<!-- Node79 -->
<g id="node19" class="node">
<title>Node79</title>
<g id="a_node19"><a xlink:title=" ">
<polygon fill="none" stroke="#bfbfbf" points="2592.5,-302.5 2592.5,-321.5 2645.5,-321.5 2645.5,-302.5 2592.5,-302.5"/>
<text text-anchor="middle" x="2619" y="-309.5" font-family="Helvetica,sans-Serif" font-size="10.00">cstddef</text>
</a>
</g>
</g>
<!-- Node78&#45;&gt;Node79 -->
<g id="edge35" class="edge">
<title>Node78&#45;&gt;Node79</title>
<path fill="none" stroke="midnightblue" d="M1169,-370.67C1394.34,-361.71 2379.09,-322.54 2582.25,-314.46"/>
<polygon fill="midnightblue" stroke="midnightblue" points="2582.55,-317.95 2592.4,-314.06 2582.27,-310.96 2582.55,-317.95"/>
</g>
<!-- Node50 -->
<g id="node20" class="node">
<title>Node50</title>
<g id="a_node20"><a xlink:href="../../dd/d5f/serializer_8h.html" target="_top" xlink:title=" ">
<polygon fill="none" stroke="black" points="1143.5,-302.5 1143.5,-321.5 1256.5,-321.5 1256.5,-302.5 1143.5,-302.5"/>
<text text-anchor="middle" x="1200" y="-309.5" font-family="Helvetica,sans-Serif" font-size="10.00">includes/serializer.h</text>
</a>
</g>
</g>
<!-- Node78&#45;&gt;Node50 -->
<g id="edge37" class="edge">
<title>Node78&#45;&gt;Node50</title>
<path fill="none" stroke="midnightblue" d="M1134.03,-363.98C1146.27,-354.52 1166.23,-339.1 1180.99,-327.69"/>
<polygon fill="midnightblue" stroke="midnightblue" points="1183.22,-330.39 1188.99,-321.51 1178.94,-324.85 1183.22,-330.39"/>
</g>
<!-- Node50&#45;&gt;Node4 -->
<g id="edge47" class="edge">
<title>Node50&#45;&gt;Node4</title>
<path fill="none" stroke="midnightblue" d="M1243.23,-302.45C1279.79,-294.32 1328.22,-281.1 1341,-266 1368.21,-233.85 1366.34,-180.73 1362.98,-152.68"/>
<polygon fill="midnightblue" stroke="midnightblue" points="1366.43,-152.06 1361.58,-142.64 1359.5,-153.02 1366.43,-152.06"/>
</g>
<!-- Node50&#45;&gt;Node6 -->
<g id="edge42" class="edge">
<title>Node50&#45;&gt;Node6</title>
<path fill="none" stroke="midnightblue" d="M1256.51,-309.24C1334.42,-305.77 1478.71,-295.59 1598,-266 1621.63,-260.14 1625.26,-251.42 1649,-246 1857.57,-198.42 1919.29,-252.28 2129,-210 2346.31,-166.19 2595.01,-64.51 2678.21,-29"/>
<polygon fill="midnightblue" stroke="midnightblue" points="2679.71,-32.17 2687.52,-25.01 2676.95,-25.74 2679.71,-32.17"/>
</g>
<!-- Node50&#45;&gt;Node9 -->
<g id="edge44" class="edge">
<title>Node50&#45;&gt;Node9</title>
<path fill="none" stroke="midnightblue" d="M1191.99,-302.34C1179.03,-288.77 1152.17,-262.33 1125,-246 953.88,-143.15 576.61,-212.8 713,-67 762.14,-14.46 1279.3,-14.84 1428.76,-16.06"/>
<polygon fill="midnightblue" stroke="midnightblue" points="1428.84,-19.56 1438.87,-16.15 1428.91,-12.56 1428.84,-19.56"/>
</g>
<!-- Node50&#45;&gt;Node14 -->
<g id="edge40" class="edge">
<title>Node50&#45;&gt;Node14</title>
<path fill="none" stroke="midnightblue" d="M1256.61,-306.85C1326.6,-301.01 1449.08,-288.48 1552,-266 1581.11,-259.64 1586.73,-251.59 1616,-246 1721.5,-225.85 1999.36,-252.51 2098,-210 2116.78,-201.91 2116.85,-192.74 2132,-179 2177.22,-137.99 2196.83,-135.43 2234,-87 2246.39,-70.86 2256.49,-49.8 2262.8,-34.92"/>
<polygon fill="midnightblue" stroke="midnightblue" points="2266.18,-35.91 2266.71,-25.33 2259.7,-33.27 2266.18,-35.91"/>
</g>
<!-- Node50&#45;&gt;Node19 -->
<g id="edge52" class="edge">
<title>Node50&#45;&gt;Node19</title>
<path fill="none" stroke="midnightblue" d="M1256.56,-303.68C1261.44,-303.09 1266.31,-302.52 1271,-302 1436.52,-283.53 1478.57,-285.26 1644,-266 1645.29,-265.85 1646.6,-265.7 1647.91,-265.54"/>
<polygon fill="midnightblue" stroke="midnightblue" points="1648.65,-268.97 1658.14,-264.27 1647.79,-262.03 1648.65,-268.97"/>
</g>
<!-- Node50&#45;&gt;Node21 -->
<g id="edge38" class="edge">
<title>Node50&#45;&gt;Node21</title>
<path fill="none" stroke="midnightblue" d="M1183.45,-302.32C1167.01,-293.7 1141.57,-280.36 1122.53,-270.39"/>
<polygon fill="midnightblue" stroke="midnightblue" points="1123.99,-267.2 1113.51,-265.65 1120.74,-273.4 1123.99,-267.2"/>
</g>
<!-- Node51 -->
<g id="node21" class="node">
<title>Node51</title>
<g id="a_node21"><a xlink:title=" ">
<polygon fill="none" stroke="#bfbfbf" points="1388,-246.5 1388,-265.5 1420,-265.5 1420,-246.5 1388,-246.5"/>
<text text-anchor="middle" x="1404" y="-253.5" font-family="Helvetica,sans-Serif" font-size="10.00">set</text>
</a>
</g>
</g>
<!-- Node50&#45;&gt;Node51 -->
<g id="edge39" class="edge">
<title>Node50&#45;&gt;Node51</title>
<path fill="none" stroke="midnightblue" d="M1234.77,-302.43C1269.97,-293.65 1325.92,-279.43 1374,-266 1375.27,-265.65 1376.56,-265.28 1377.87,-264.9"/>
<polygon fill="midnightblue" stroke="midnightblue" points="1379.23,-268.15 1387.84,-261.97 1377.26,-261.44 1379.23,-268.15"/>
</g>
<!-- Node48 -->
<g id="node22" class="node">
<title>Node48</title>
<g id="a_node22"><a xlink:title=" ">
<polygon fill="none" stroke="#bfbfbf" points="1438,-246.5 1438,-265.5 1488,-265.5 1488,-246.5 1438,-246.5"/>
<text text-anchor="middle" x="1463" y="-253.5" font-family="Helvetica,sans-Serif" font-size="10.00">cstring</text>
</a>
</g>
</g>
<!-- Node50&#45;&gt;Node48 -->
<g id="edge41" class="edge">
<title>Node50&#45;&gt;Node48</title>
<path fill="none" stroke="midnightblue" d="M1248.44,-302.42C1292.75,-294.37 1360.31,-281.55 1427.83,-266.16"/>
<polygon fill="midnightblue" stroke="midnightblue" points="1428.83,-269.52 1437.79,-263.87 1427.26,-262.7 1428.83,-269.52"/>
</g>
<!-- Node52 -->
<g id="node23" class="node">
<title>Node52</title>
<g id="a_node23"><a xlink:title=" ">
<polygon fill="none" stroke="#bfbfbf" points="1172.5,-246.5 1172.5,-265.5 1227.5,-265.5 1227.5,-246.5 1172.5,-246.5"/>
<text text-anchor="middle" x="1200" y="-253.5" font-family="Helvetica,sans-Serif" font-size="10.00">fstream</text>
</a>
</g>
</g>
<!-- Node50&#45;&gt;Node52 -->
<g id="edge43" class="edge">
<title>Node50&#45;&gt;Node52</title>
<path fill="none" stroke="midnightblue" d="M1200,-302.08C1200,-295.01 1200,-284.86 1200,-275.99"/>
<polygon fill="midnightblue" stroke="midnightblue" points="1203.5,-275.75 1200,-265.75 1196.5,-275.75 1203.5,-275.75"/>
</g>
<!-- Node53 -->
<g id="node24" class="node">
<title>Node53</title>
<g id="a_node24"><a xlink:title=" ">
<polygon fill="none" stroke="#bfbfbf" points="966.5,-246.5 966.5,-265.5 1059.5,-265.5 1059.5,-246.5 966.5,-246.5"/>
<text text-anchor="middle" x="1013" y="-253.5" font-family="Helvetica,sans-Serif" font-size="10.00">unordered_map</text>
</a>
</g>
</g>
<!-- Node50&#45;&gt;Node53 -->
<g id="edge45" class="edge">
<title>Node50&#45;&gt;Node53</title>
<path fill="none" stroke="midnightblue" d="M1170.37,-302.44C1138.5,-293.24 1087.67,-278.56 1052.44,-268.39"/>
<polygon fill="midnightblue" stroke="midnightblue" points="1053.07,-264.93 1042.49,-265.52 1051.13,-271.65 1053.07,-264.93"/>
</g>
<!-- Node54 -->
<g id="node25" class="node">
<title>Node54</title>
<g id="a_node25"><a xlink:title=" ">
<polygon fill="none" stroke="#bfbfbf" points="1246,-246.5 1246,-265.5 1332,-265.5 1332,-246.5 1246,-246.5"/>
<text text-anchor="middle" x="1289" y="-253.5" font-family="Helvetica,sans-Serif" font-size="10.00">unordered_set</text>
</a>
</g>
</g>
<!-- Node50&#45;&gt;Node54 -->
<g id="edge46" class="edge">
<title>Node50&#45;&gt;Node54</title>
<path fill="none" stroke="midnightblue" d="M1214.3,-302.32C1228.18,-293.9 1249.49,-280.97 1265.8,-271.07"/>
<polygon fill="midnightblue" stroke="midnightblue" points="1268,-273.83 1274.74,-265.65 1264.37,-267.85 1268,-273.83"/>
</g>
<!-- Node55 -->
<g id="node26" class="node">
<title>Node55</title>
<g id="a_node26"><a xlink:href="../../d1/d8c/logger_8h.html" target="_top" xlink:title=" ">
<polygon fill="none" stroke="red" points="2084,-246.5 2084,-265.5 2204,-265.5 2204,-246.5 2084,-246.5"/>
<text text-anchor="middle" x="2144" y="-253.5" font-family="Helvetica,sans-Serif" font-size="10.00">input_output/logger.h</text>
</a>
</g>
</g>
<!-- Node50&#45;&gt;Node55 -->
<g id="edge48" class="edge">
<title>Node50&#45;&gt;Node55</title>
<path fill="none" stroke="midnightblue" d="M1256.54,-303.45C1261.43,-302.91 1266.3,-302.42 1271,-302 1568.64,-275.5 1924.87,-263.14 2073.49,-258.85"/>
<polygon fill="midnightblue" stroke="midnightblue" points="2073.93,-262.34 2083.83,-258.56 2073.73,-255.34 2073.93,-262.34"/>
</g>
<!-- Node25 -->
<g id="node27" class="node">
<title>Node25</title>
<g id="a_node27"><a xlink:href="../../d9/d36/array__1d_8h.html" target="_top" xlink:title=" ">
<polygon fill="none" stroke="red" points="370,-246.5 370,-265.5 492,-265.5 492,-246.5 370,-246.5"/>
<text text-anchor="middle" x="431" y="-253.5" font-family="Helvetica,sans-Serif" font-size="10.00">containers/array_1d.h</text>
</a>
</g>
</g>
<!-- Node50&#45;&gt;Node25 -->
<g id="edge53" class="edge">
<title>Node50&#45;&gt;Node25</title>
<path fill="none" stroke="midnightblue" d="M1143.45,-307.03C1005.88,-297.37 653.89,-272.65 502.26,-262"/>
<polygon fill="midnightblue" stroke="midnightblue" points="502.35,-258.5 492.13,-261.29 501.86,-265.48 502.35,-258.5"/>
</g>
<!-- Node59 -->
<g id="node29" class="node">
<title>Node59</title>
<g id="a_node29"><a xlink:href="../../d5/d10/weak__pointer__vector_8h.html" target="_top" xlink:title=" ">
<polygon fill="none" stroke="red" points="1952.5,-179.5 1952.5,-209.5 2089.5,-209.5 2089.5,-179.5 1952.5,-179.5"/>
<text text-anchor="start" x="1960.5" y="-197.5" font-family="Helvetica,sans-Serif" font-size="10.00">containers/weak_pointer</text>
<text text-anchor="middle" x="2021" y="-186.5" font-family="Helvetica,sans-Serif" font-size="10.00">_vector.h</text>
</a>
</g>
</g>
<!-- Node50&#45;&gt;Node59 -->
<g id="edge61" class="edge">
<title>Node50&#45;&gt;Node59</title>
<path fill="none" stroke="midnightblue" d="M1256.63,-303.05C1329.54,-292.71 1452.18,-274.91 1497,-266 1533.37,-258.77 1541.5,-252.56 1578,-246 1704.55,-223.26 1853.37,-208.77 1942.29,-201.4"/>
<polygon fill="midnightblue" stroke="midnightblue" points="1942.62,-204.88 1952.3,-200.58 1942.05,-197.91 1942.62,-204.88"/>
</g>
<!-- Node55&#45;&gt;Node9 -->
<g id="edge50" class="edge">
<title>Node55&#45;&gt;Node9</title>
<path fill="none" stroke="midnightblue" d="M2095.48,-246.5C2054.39,-238.74 1994.18,-226.05 1943,-210 1768.44,-155.25 1568.18,-63.46 1496.38,-29.58"/>
<polygon fill="midnightblue" stroke="midnightblue" points="1497.65,-26.31 1487.11,-25.19 1494.65,-32.64 1497.65,-26.31"/>
</g>
<!-- Node55&#45;&gt;Node13 -->
<g id="edge51" class="edge">
<title>Node55&#45;&gt;Node13</title>
<path fill="none" stroke="midnightblue" d="M2142.22,-246.46C2136.56,-219.43 2118.97,-135.24 2110.99,-97.11"/>
<polygon fill="midnightblue" stroke="midnightblue" points="2114.33,-95.94 2108.85,-86.87 2107.47,-97.37 2114.33,-95.94"/>
</g>
<!-- Node55&#45;&gt;Node14 -->
<g id="edge49" class="edge">
<title>Node55&#45;&gt;Node14</title>
<path fill="none" stroke="midnightblue" d="M2173.35,-246.46C2215.13,-232.53 2290.23,-200.53 2322,-143 2338.33,-113.43 2335.15,-98.11 2322,-67 2315.91,-52.59 2303.47,-40.27 2292.29,-31.4"/>
<polygon fill="midnightblue" stroke="midnightblue" points="2294.22,-28.48 2284.11,-25.32 2290.04,-34.09 2294.22,-28.48"/>
</g>
<!-- Node25&#45;&gt;Node4 -->
<g id="edge56" class="edge">
<title>Node25&#45;&gt;Node4</title>
<path fill="none" stroke="midnightblue" d="M476.92,-246.43C517.93,-238.37 579.47,-225.28 632,-210 671.01,-198.65 678.25,-187.39 718,-179 828.14,-155.76 1162.64,-141.22 1300.07,-136.09"/>
<polygon fill="midnightblue" stroke="midnightblue" points="1300.54,-139.57 1310.41,-135.71 1300.28,-132.58 1300.54,-139.57"/>
</g>
<!-- Node25&#45;&gt;Node9 -->
<g id="edge55" class="edge">
<title>Node25&#45;&gt;Node9</title>
<path fill="none" stroke="midnightblue" d="M423.85,-246.36C417.23,-237.76 407.84,-223.87 404,-210 387.03,-148.75 360.14,-112.99 404,-67 440.01,-29.24 1238.84,-18.82 1428.75,-16.87"/>
<polygon fill="midnightblue" stroke="midnightblue" points="1428.9,-20.37 1438.86,-16.77 1428.83,-13.37 1428.9,-20.37"/>
</g>
<!-- Node25&#45;&gt;Node14 -->
<g id="edge54" class="edge">
<title>Node25&#45;&gt;Node14</title>
<path fill="none" stroke="midnightblue" d="M490.46,-246.44C523.89,-239.87 565.49,-228.65 599,-210 616.58,-200.21 613.73,-187.42 632,-179 657.78,-167.11 1111.72,-125.51 1140,-123 1376.5,-101.99 1436.59,-108.93 1673,-87 1889.2,-66.95 2148.28,-32.93 2237.76,-20.88"/>
<polygon fill="midnightblue" stroke="midnightblue" points="2238.37,-24.33 2247.82,-19.53 2237.44,-17.4 2238.37,-24.33"/>
</g>
<!-- Node29 -->
<g id="node28" class="node">
<title>Node29</title>
<g id="a_node28"><a xlink:href="../../d9/d3e/ublas__interface_8h.html" target="_top" xlink:title=" ">
<polygon fill="none" stroke="red" points="446,-185 446,-204 590,-204 590,-185 446,-185"/>
<text text-anchor="middle" x="518" y="-192" font-family="Helvetica,sans-Serif" font-size="10.00">includes/ublas_interface.h</text>
</a>
</g>
</g>
<!-- Node25&#45;&gt;Node29 -->
<g id="edge57" class="edge">
<title>Node25&#45;&gt;Node29</title>
<path fill="none" stroke="midnightblue" d="M443.46,-246.48C457.42,-236.93 480.26,-221.31 496.99,-209.87"/>
<polygon fill="midnightblue" stroke="midnightblue" points="499.28,-212.54 505.56,-204.01 495.33,-206.77 499.28,-212.54"/>
</g>
<!-- Node29&#45;&gt;Node4 -->
<g id="edge60" class="edge">
<title>Node29&#45;&gt;Node4</title>
<path fill="none" stroke="midnightblue" d="M585.18,-184.98C603.58,-182.82 623.54,-180.66 642,-179 885.56,-157.14 1176.55,-142.4 1299.96,-136.67"/>
<polygon fill="midnightblue" stroke="midnightblue" points="1300.48,-140.15 1310.31,-136.19 1300.16,-133.16 1300.48,-140.15"/>
</g>
<!-- Node29&#45;&gt;Node9 -->
<g id="edge59" class="edge">
<title>Node29&#45;&gt;Node9</title>
<path fill="none" stroke="midnightblue" d="M525.33,-184.95C546.43,-161.05 610.29,-93.51 680,-67 818.95,-14.15 1287.62,-14.58 1428.57,-15.97"/>
<polygon fill="midnightblue" stroke="midnightblue" points="1428.87,-19.47 1438.91,-16.07 1428.95,-12.47 1428.87,-19.47"/>
</g>
<!-- Node29&#45;&gt;Node14 -->
<g id="edge58" class="edge">
<title>Node29&#45;&gt;Node14</title>
<path fill="none" stroke="midnightblue" d="M563.11,-184.98C644.75,-169.91 822.6,-138.67 974,-123 1258.26,-93.58 1333.11,-127.52 1616,-87 1654.85,-81.44 1663.25,-73.2 1702,-67 1806.57,-50.28 2133.02,-26.24 2237.49,-18.79"/>
<polygon fill="midnightblue" stroke="midnightblue" points="2238.01,-22.26 2247.73,-18.06 2237.51,-15.28 2238.01,-22.26"/>
</g>
<!-- Node59&#45;&gt;Node4 -->
<g id="edge66" class="edge">
<title>Node59&#45;&gt;Node4</title>
<path fill="none" stroke="midnightblue" d="M1952.26,-184.83C1935.2,-182.79 1916.94,-180.72 1900,-179 1725.76,-161.31 1519.38,-145.55 1419.74,-138.27"/>
<polygon fill="midnightblue" stroke="midnightblue" points="1419.79,-134.76 1409.57,-137.53 1419.28,-141.75 1419.79,-134.76"/>
</g>
<!-- Node59&#45;&gt;Node6 -->
<g id="edge64" class="edge">
<title>Node59&#45;&gt;Node6</title>
<path fill="none" stroke="midnightblue" d="M2075.4,-179.46C2209.68,-144.82 2554.27,-55.91 2669.11,-26.28"/>
<polygon fill="midnightblue" stroke="midnightblue" points="2670.06,-29.64 2678.87,-23.76 2668.32,-22.87 2670.06,-29.64"/>
</g>
<!-- Node59&#45;&gt;Node9 -->
<g id="edge63" class="edge">
<title>Node59&#45;&gt;Node9</title>
<path fill="none" stroke="midnightblue" d="M1995.04,-179.29C1940.29,-149.51 1814.22,-82.08 1768,-67 1678.48,-37.78 1568.09,-24.74 1509.69,-19.53"/>
<polygon fill="midnightblue" stroke="midnightblue" points="1509.68,-16.02 1499.41,-18.65 1509.08,-22.99 1509.68,-16.02"/>
</g>
<!-- Node59&#45;&gt;Node14 -->
<g id="edge62" class="edge">
<title>Node59&#45;&gt;Node14</title>
<path fill="none" stroke="midnightblue" d="M2034.46,-179.26C2049.94,-163.58 2076.74,-138.56 2104,-123 2146.48,-98.75 2167.39,-114.27 2208,-87 2229.27,-72.72 2247.79,-49.4 2258.92,-33.53"/>
<polygon fill="midnightblue" stroke="midnightblue" points="2261.87,-35.41 2264.59,-25.16 2256.08,-31.48 2261.87,-35.41"/>
</g>
<!-- Node59&#45;&gt;Node15 -->
<g id="edge65" class="edge">
<title>Node59&#45;&gt;Node15</title>
<path fill="none" stroke="midnightblue" d="M2089.61,-180.48C2275.61,-145.2 2784.63,-48.63 2920.36,-22.88"/>
<polygon fill="midnightblue" stroke="midnightblue" points="2921.03,-26.32 2930.2,-21.02 2919.72,-19.44 2921.03,-26.32"/>
</g>
<!-- Node82&#45;&gt;Node50 -->
<g id="edge70" class="edge">
<title>Node82&#45;&gt;Node50</title>
<path fill="none" stroke="midnightblue" d="M1296.94,-687.93C1270.32,-680.95 1242.89,-668.41 1226,-646 1148.84,-543.65 1229.63,-484.81 1211,-358 1209.7,-349.14 1207.45,-339.47 1205.32,-331.37"/>
<polygon fill="midnightblue" stroke="midnightblue" points="1208.64,-330.24 1202.59,-321.53 1201.89,-332.1 1208.64,-330.24"/>
</g>
<!-- Node82&#45;&gt;Node29 -->
<g id="edge71" class="edge">
<title>Node82&#45;&gt;Node29</title>
<path fill="none" stroke="midnightblue" d="M1387.65,-687.89C1401.49,-679.04 1421.89,-664.03 1434,-646 1487.09,-566.93 1498,-536.74 1498,-441.5 1498,-441.5 1498,-441.5 1498,-372.5 1498,-316.28 1535.88,-286.61 1497,-246 1466.19,-213.82 830.72,-200.5 600.42,-196.71"/>
<polygon fill="midnightblue" stroke="midnightblue" points="600.15,-193.21 590.1,-196.54 600.04,-200.21 600.15,-193.21"/>
</g>
<!-- Node83 -->
<g id="node31" class="node">
<title>Node83</title>
<g id="a_node31"><a xlink:title=" ">
<polygon fill="none" stroke="#bfbfbf" points="1235,-621 1235,-640 1303,-640 1303,-621 1235,-621"/>
<text text-anchor="middle" x="1269" y="-628" font-family="Helvetica,sans-Serif" font-size="10.00">filesystem</text>
</a>
</g>
</g>
<!-- Node82&#45;&gt;Node83 -->
<g id="edge68" class="edge">
<title>Node82&#45;&gt;Node83</title>
<path fill="none" stroke="midnightblue" d="M1358.97,-687.73C1341.67,-676.92 1312.01,-658.38 1291.51,-645.57"/>
<polygon fill="midnightblue" stroke="midnightblue" points="1293.14,-642.46 1282.8,-640.13 1289.43,-648.4 1293.14,-642.46"/>
</g>
<!-- Node84 -->
<g id="node32" class="node">
<title>Node84</title>
<g id="a_node32"><a xlink:title=" ">
<polygon fill="none" stroke="#bfbfbf" points="1321,-621 1321,-640 1425,-640 1425,-621 1321,-621"/>
<text text-anchor="middle" x="1373" y="-628" font-family="Helvetica,sans-Serif" font-size="10.00">json/json_fwd.hpp</text>
</a>
</g>
</g>
<!-- Node82&#45;&gt;Node84 -->
<g id="edge69" class="edge">
<title>Node82&#45;&gt;Node84</title>
<path fill="none" stroke="midnightblue" d="M1373,-687.73C1373,-678.18 1373,-662.62 1373,-650.28"/>
<polygon fill="midnightblue" stroke="midnightblue" points="1376.5,-650.13 1373,-640.13 1369.5,-650.13 1376.5,-650.13"/>
</g>
<!-- Node85&#45;&gt;Node4 -->
<g id="edge77" class="edge">
<title>Node85&#45;&gt;Node4</title>
<path fill="none" stroke="midnightblue" d="M1504.37,-865.68C1392.29,-856.21 1169,-828.73 1169,-760 1169,-760 1169,-760 1169,-562.5 1169,-380.46 803.63,-394.45 909,-246 937.07,-206.46 969.68,-233.68 1012,-210 1031.02,-199.35 1030.05,-187.77 1050,-179 1093.71,-159.78 1223.34,-145.75 1300.43,-138.84"/>
<polygon fill="midnightblue" stroke="midnightblue" points="1300.83,-142.32 1310.48,-137.95 1300.21,-135.34 1300.83,-142.32"/>
</g>
<!-- Node85&#45;&gt;Node6 -->
<g id="edge75" class="edge">
<title>Node85&#45;&gt;Node6</title>
<path fill="none" stroke="midnightblue" d="M1629.57,-869.27C1880.64,-866.16 2807.61,-852.88 2936,-825 3009.4,-809.06 3092,-835.11 3092,-760 3092,-760 3092,-760 3092,-193.5 3092,-41.96 2842.72,-19.69 2745.33,-16.78"/>
<polygon fill="midnightblue" stroke="midnightblue" points="2745.39,-13.28 2735.31,-16.53 2745.22,-20.27 2745.39,-13.28"/>
</g>
<!-- Node85&#45;&gt;Node9 -->
<g id="edge74" class="edge">
<title>Node85&#45;&gt;Node9</title>
<path fill="none" stroke="midnightblue" d="M1504.49,-869.47C1315.37,-867.51 751.21,-858.9 571,-825 307.67,-775.46 0,-899.45 0,-631.5 0,-631.5 0,-631.5 0,-132 0,-91.46 26.89,-83.33 64,-67 191.7,-10.81 1212.03,-14.71 1428.66,-16.18"/>
<polygon fill="midnightblue" stroke="midnightblue" points="1428.91,-19.68 1438.94,-16.25 1428.96,-12.68 1428.91,-19.68"/>
</g>
<!-- Node85&#45;&gt;Node14 -->
<g id="edge73" class="edge">
<title>Node85&#45;&gt;Node14</title>
<path fill="none" stroke="midnightblue" d="M1629.89,-870.09C1876.85,-870.14 2772.48,-867.36 2892,-825 2937.16,-809 2978,-807.91 2978,-760 2978,-760 2978,-760 2978,-501 2978,-286.72 2961.98,-158.04 2768,-67 2684.78,-27.94 2398.98,-18.95 2302.28,-17.01"/>
<polygon fill="midnightblue" stroke="midnightblue" points="2302.28,-13.51 2292.22,-16.82 2302.15,-20.5 2302.28,-13.51"/>
</g>
<!-- Node85&#45;&gt;Node18 -->
<g id="edge162" class="edge">
<title>Node85&#45;&gt;Node18</title>
<path fill="none" stroke="midnightblue" d="M1504.37,-870.96C1356.3,-871.55 997,-862.42 997,-760 997,-760 997,-760 997,-696.5 997,-653.8 1017.2,-606.84 1029.58,-582.07"/>
<polygon fill="midnightblue" stroke="midnightblue" points="1032.7,-583.65 1034.18,-573.16 1026.48,-580.44 1032.7,-583.65"/>
</g>
<!-- Node85&#45;&gt;Node63 -->
<g id="edge164" class="edge">
<title>Node85&#45;&gt;Node63</title>
<path fill="none" stroke="midnightblue" d="M1504.33,-868.48C1366.26,-864.65 1039.7,-852.87 933,-825 867.4,-807.86 795,-827.8 795,-760 795,-760 795,-760 795,-562.5 795,-525.52 784.08,-483.38 776.97,-459.87"/>
<polygon fill="midnightblue" stroke="midnightblue" points="780.27,-458.68 773.94,-450.19 773.59,-460.78 780.27,-458.68"/>
</g>
<!-- Node85&#45;&gt;Node78 -->
<g id="edge165" class="edge">
<title>Node85&#45;&gt;Node78</title>
<path fill="none" stroke="midnightblue" d="M1561.72,-861.23C1551.27,-843.04 1529,-799.6 1529,-760 1529,-760 1529,-760 1529,-696.5 1529,-512.36 1269.45,-416.83 1165.4,-385.93"/>
<polygon fill="midnightblue" stroke="midnightblue" points="1166.12,-382.49 1155.54,-383.06 1164.16,-389.22 1166.12,-382.49"/>
</g>
<!-- Node85&#45;&gt;Node79 -->
<g id="edge76" class="edge">
<title>Node85&#45;&gt;Node79</title>
<path fill="none" stroke="midnightblue" d="M1629.78,-869.09C1789.72,-866.34 2209.46,-856.28 2345,-825 2407.89,-810.49 2422.37,-799.97 2479,-769 2581.06,-713.19 2632.74,-692.32 2659,-579 2681.19,-483.27 2691.37,-448.04 2652,-358 2647.5,-347.7 2640.3,-337.49 2633.77,-329.41"/>
<polygon fill="midnightblue" stroke="midnightblue" points="2636.25,-326.93 2627.11,-321.57 2630.92,-331.46 2636.25,-326.93"/>
</g>
<!-- Node85&#45;&gt;Node50 -->
<g id="edge78" class="edge">
<title>Node85&#45;&gt;Node50</title>
<path fill="none" stroke="midnightblue" d="M1504.2,-869.56C1380.37,-867.92 1109.35,-860.27 1024,-825 982.61,-807.89 947,-804.79 947,-760 947,-760 947,-760 947,-629.5 947,-592.31 943.21,-577.39 966,-548 987.19,-520.66 1006.37,-531.41 1035,-512 1104.4,-464.97 1132.68,-459.53 1178,-389 1189.23,-371.52 1194.87,-348.16 1197.61,-331.97"/>
<polygon fill="midnightblue" stroke="midnightblue" points="1201.13,-332.04 1199.12,-321.64 1194.21,-331.03 1201.13,-332.04"/>
</g>
<!-- Node85&#45;&gt;Node55 -->
<g id="edge161" class="edge">
<title>Node85&#45;&gt;Node55</title>
<path fill="none" stroke="midnightblue" d="M1629.8,-867.2C1750.21,-861.43 2009.3,-846.85 2096,-825 2166.45,-807.24 2246,-832.66 2246,-760 2246,-760 2246,-760 2246,-696.5 2246,-674.62 2168.26,-355.99 2148.52,-275.41"/>
<polygon fill="midnightblue" stroke="midnightblue" points="2151.91,-274.55 2146.13,-265.67 2145.11,-276.22 2151.91,-274.55"/>
</g>
<!-- Node86 -->
<g id="node34" class="node">
<title>Node86</title>
<g id="a_node34"><a xlink:href="../../de/db8/process__info_8h.html" target="_top" xlink:title=" ">
<polygon fill="none" stroke="black" points="1743.5,-621 1743.5,-640 1874.5,-640 1874.5,-621 1743.5,-621"/>
<text text-anchor="middle" x="1809" y="-628" font-family="Helvetica,sans-Serif" font-size="10.00">includes/process_info.h</text>
</a>
</g>
</g>
<!-- Node85&#45;&gt;Node86 -->
<g id="edge79" class="edge">
<title>Node85&#45;&gt;Node86</title>
<path fill="none" stroke="midnightblue" d="M1629.8,-867.1C1696.01,-860.29 1797.33,-838.37 1846,-769 1872.4,-731.36 1840.92,-675.84 1821.72,-648.29"/>
<polygon fill="midnightblue" stroke="midnightblue" points="1824.48,-646.13 1815.78,-640.08 1818.8,-650.23 1824.48,-646.13"/>
</g>
<!-- Node87 -->
<g id="node35" class="node">
<title>Node87</title>
<g id="a_node35"><a xlink:href="../../d1/d82/data__value__container_8h.html" target="_top" xlink:title=" ">
<polygon fill="none" stroke="black" points="2506.5,-548.5 2506.5,-578.5 2631.5,-578.5 2631.5,-548.5 2506.5,-548.5"/>
<text text-anchor="start" x="2514.5" y="-566.5" font-family="Helvetica,sans-Serif" font-size="10.00">containers/data_value</text>
<text text-anchor="middle" x="2569" y="-555.5" font-family="Helvetica,sans-Serif" font-size="10.00">_container.h</text>
</a>
</g>
</g>
<!-- Node85&#45;&gt;Node87 -->
<g id="edge95" class="edge">
<title>Node85&#45;&gt;Node87</title>
<path fill="none" stroke="midnightblue" d="M1629.68,-869.07C1782.3,-866.34 2169.8,-856.44 2295,-825 2406.05,-797.11 2437.14,-783.96 2527,-713 2557.68,-688.77 2570.5,-682.69 2584,-646 2590.91,-627.21 2585.88,-604.78 2579.85,-588.2"/>
<polygon fill="midnightblue" stroke="midnightblue" points="2583.02,-586.71 2576.06,-578.73 2576.52,-589.31 2583.02,-586.71"/>
</g>
<!-- Node88 -->
<g id="node36" class="node">
<title>Node88</title>
<g id="a_node36"><a xlink:href="../../d8/d3b/mesh_8h.html" target="_top" xlink:title=" ">
<polygon fill="none" stroke="black" points="2312,-749.5 2312,-768.5 2408,-768.5 2408,-749.5 2312,-749.5"/>
<text text-anchor="middle" x="2360" y="-756.5" font-family="Helvetica,sans-Serif" font-size="10.00">includes/mesh.h</text>
</a>
</g>
</g>
<!-- Node85&#45;&gt;Node88 -->
<g id="edge96" class="edge">
<title>Node85&#45;&gt;Node88</title>
<path fill="none" stroke="midnightblue" d="M1629.7,-869.97C1777.51,-869.24 2144.08,-863.49 2260,-825 2292.04,-814.36 2323.83,-790.91 2342.69,-775.28"/>
<polygon fill="midnightblue" stroke="midnightblue" points="2345.05,-777.87 2350.4,-768.73 2340.52,-772.54 2345.05,-777.87"/>
</g>
<!-- Node92 -->
<g id="node38" class="node">
<title>Node92</title>
<g id="a_node38"><a xlink:href="../../d2/d58/pointer__vector__map_8h.html" target="_top" xlink:title=" ">
<polygon fill="none" stroke="red" points="2854.5,-358.5 2854.5,-388.5 2959.5,-388.5 2959.5,-358.5 2854.5,-358.5"/>
<text text-anchor="start" x="2862.5" y="-376.5" font-family="Helvetica,sans-Serif" font-size="10.00">containers/pointer</text>
<text text-anchor="middle" x="2907" y="-365.5" font-family="Helvetica,sans-Serif" font-size="10.00">_vector_map.h</text>
</a>
</g>
</g>
<!-- Node85&#45;&gt;Node92 -->
<g id="edge159" class="edge">
<title>Node85&#45;&gt;Node92</title>
<path fill="none" stroke="midnightblue" d="M1629.65,-869.45C1881.6,-867.03 2810,-856.02 2864,-825 2893.62,-807.99 2905,-794.16 2905,-760 2905,-760 2905,-760 2905,-501 2905,-465.41 2905.8,-424.2 2906.39,-398.74"/>
<polygon fill="midnightblue" stroke="midnightblue" points="2909.89,-398.62 2906.63,-388.54 2902.9,-398.45 2909.89,-398.62"/>
</g>
<!-- Node104 -->
<g id="node41" class="node">
<title>Node104</title>
<g id="a_node41"><a xlink:href="../../da/da4/master__slave__constraint_8h.html" target="_top" xlink:title=" ">
<polygon fill="none" stroke="red" points="1565,-682.5 1565,-712.5 1691,-712.5 1691,-682.5 1565,-682.5"/>
<text text-anchor="start" x="1573" y="-700.5" font-family="Helvetica,sans-Serif" font-size="10.00">includes/master_slave</text>
<text text-anchor="middle" x="1628" y="-689.5" font-family="Helvetica,sans-Serif" font-size="10.00">_constraint.h</text>
</a>
</g>
</g>
<!-- Node85&#45;&gt;Node104 -->
<g id="edge163" class="edge">
<title>Node85&#45;&gt;Node104</title>
<path fill="none" stroke="midnightblue" d="M1566.82,-861.34C1566.7,-840.85 1568.3,-788.14 1586,-749 1590.7,-738.61 1598.14,-728.63 1605.46,-720.32"/>
<polygon fill="midnightblue" stroke="midnightblue" points="1608.1,-722.62 1612.35,-712.91 1602.98,-717.85 1608.1,-722.62"/>
</g>
<!-- Node114 -->
<g id="node42" class="node">
<title>Node114</title>
<g id="a_node42"><a xlink:href="../../d3/dad/geometry__container_8h.html" target="_top" xlink:title=" ">
<polygon fill="none" stroke="black" points="461,-425.5 461,-455.5 579,-455.5 579,-425.5 461,-425.5"/>
<text text-anchor="start" x="469" y="-443.5" font-family="Helvetica,sans-Serif" font-size="10.00">containers/geometry</text>
<text text-anchor="middle" x="520" y="-432.5" font-family="Helvetica,sans-Serif" font-size="10.00">_container.h</text>
</a>
</g>
</g>
<!-- Node85&#45;&gt;Node114 -->
<g id="edge132" class="edge">
<title>Node85&#45;&gt;Node114</title>
<path fill="none" stroke="midnightblue" d="M1504.34,-869C1294.84,-865.41 629.8,-851.92 593,-825 568.15,-806.82 569,-790.8 569,-760 569,-760 569,-760 569,-562.5 569,-526.09 549.7,-487.72 535.32,-464.19"/>
<polygon fill="midnightblue" stroke="midnightblue" points="538.22,-462.22 529.92,-455.65 532.31,-465.97 538.22,-462.22"/>
</g>
<!-- Node115 -->
<g id="node43" class="node">
<title>Node115</title>
<g id="a_node43"><a xlink:href="../../da/d92/pointer__hash__map__set_8h.html" target="_top" xlink:title=" ">
<polygon fill="none" stroke="red" points="586.5,-358.5 586.5,-388.5 691.5,-388.5 691.5,-358.5 586.5,-358.5"/>
<text text-anchor="start" x="594.5" y="-376.5" font-family="Helvetica,sans-Serif" font-size="10.00">containers/pointer</text>
<text text-anchor="middle" x="639" y="-365.5" font-family="Helvetica,sans-Serif" font-size="10.00">_hash_map_set.h</text>
</a>
</g>
</g>
<!-- Node85&#45;&gt;Node115 -->
<g id="edge160" class="edge">
<title>Node85&#45;&gt;Node115</title>
<path fill="none" stroke="midnightblue" d="M1504.43,-870.26C1335.19,-870.39 871.29,-866.82 725,-825 667.43,-808.54 607,-819.87 607,-760 607,-760 607,-760 607,-501 607,-464.17 619.91,-423.09 629.33,-398.02"/>
<polygon fill="midnightblue" stroke="midnightblue" points="632.62,-399.21 632.98,-388.62 626.1,-396.68 632.62,-399.21"/>
</g>
<!-- Node116 -->
<g id="node44" class="node">
<title>Node116</title>
<g id="a_node44"><a xlink:href="../../d4/dfe/element_8h.html" target="_top" xlink:title=" ">
<polygon fill="none" stroke="red" points="1595,-749.5 1595,-768.5 1705,-768.5 1705,-749.5 1595,-749.5"/>
<text text-anchor="middle" x="1650" y="-756.5" font-family="Helvetica,sans-Serif" font-size="10.00">includes/element.h</text>
</a>
</g>
</g>
<!-- Node85&#45;&gt;Node116 -->
<g id="edge138" class="edge">
<title>Node85&#45;&gt;Node116</title>
<path fill="none" stroke="midnightblue" d="M1573.51,-861.37C1587.27,-843.14 1619.5,-800.43 1637.42,-776.68"/>
<polygon fill="midnightblue" stroke="midnightblue" points="1640.29,-778.68 1643.52,-768.59 1634.7,-774.47 1640.29,-778.68"/>
</g>
<!-- Node130 -->
<g id="node45" class="node">
<title>Node130</title>
<g id="a_node45"><a xlink:href="../../d7/d6c/condition_8h.html" target="_top" xlink:title=" ">
<polygon fill="none" stroke="red" points="1723,-749.5 1723,-768.5 1837,-768.5 1837,-749.5 1723,-749.5"/>
<text text-anchor="middle" x="1780" y="-756.5" font-family="Helvetica,sans-Serif" font-size="10.00">includes/condition.h</text>
</a>
</g>
</g>
<!-- Node85&#45;&gt;Node130 -->
<g id="edge141" class="edge">
<title>Node85&#45;&gt;Node130</title>
<path fill="none" stroke="midnightblue" d="M1583.71,-861.37C1620.81,-842.21 1710.22,-796.04 1754.41,-773.22"/>
<polygon fill="midnightblue" stroke="midnightblue" points="1756.08,-776.29 1763.36,-768.59 1752.87,-770.07 1756.08,-776.29"/>
</g>
<!-- Node131 -->
<g id="node46" class="node">
<title>Node131</title>
<g id="a_node46"><a xlink:href="../../d8/d75/communicator_8h.html" target="_top" xlink:title=" ">
<polygon fill="none" stroke="black" points="1948.5,-805.5 1948.5,-824.5 2087.5,-824.5 2087.5,-805.5 1948.5,-805.5"/>
<text text-anchor="middle" x="2018" y="-812.5" font-family="Helvetica,sans-Serif" font-size="10.00">includes/communicator.h</text>
</a>
</g>
</g>
<!-- Node85&#45;&gt;Node131 -->
<g id="edge144" class="edge">
<title>Node85&#45;&gt;Node131</title>
<path fill="none" stroke="midnightblue" d="M1629.71,-862.49C1710.35,-852.84 1850.45,-836.06 1938.49,-825.52"/>
<polygon fill="midnightblue" stroke="midnightblue" points="1938.91,-828.99 1948.43,-824.33 1938.08,-822.04 1938.91,-828.99"/>
</g>
<!-- Node118 -->
<g id="node47" class="node">
<title>Node118</title>
<g id="a_node47"><a xlink:href="../../dd/d98/table_8h.html" target="_top" xlink:title=" ">
<polygon fill="none" stroke="black" points="635,-492.5 635,-511.5 729,-511.5 729,-492.5 635,-492.5"/>
<text text-anchor="middle" x="682" y="-499.5" font-family="Helvetica,sans-Serif" font-size="10.00">includes/table.h</text>
</a>
</g>
</g>
<!-- Node85&#45;&gt;Node118 -->
<g id="edge153" class="edge">
<title>Node85&#45;&gt;Node118</title>
<path fill="none" stroke="midnightblue" d="M1504.3,-868.6C1329.94,-864.41 847.71,-850.62 781,-825 737.91,-808.45 700,-806.16 700,-760 700,-760 700,-760 700,-629.5 700,-590.82 691.65,-546.14 686.32,-521.58"/>
<polygon fill="midnightblue" stroke="midnightblue" points="689.67,-520.52 684.06,-511.53 682.84,-522.05 689.67,-520.52"/>
</g>
<!-- Node86&#45;&gt;Node4 -->
<g id="edge84" class="edge">
<title>Node86&#45;&gt;Node4</title>
<path fill="none" stroke="midnightblue" d="M1804.81,-620.6C1790.47,-589.56 1743.39,-482.91 1728,-389 1725.77,-375.4 1723.34,-370.96 1728,-358 1748.36,-301.39 1843.2,-291.63 1804,-246 1769.43,-205.76 1619.39,-223.17 1568,-210 1563.56,-208.86 1450.48,-167.31 1392.96,-146.14"/>
<polygon fill="midnightblue" stroke="midnightblue" points="1393.83,-142.73 1383.23,-142.56 1391.41,-149.3 1393.83,-142.73"/>
</g>
<!-- Node86&#45;&gt;Node6 -->
<g id="edge82" class="edge">
<title>Node86&#45;&gt;Node6</title>
<path fill="none" stroke="midnightblue" d="M1828.9,-620.9C1850.48,-611.37 1885.76,-595.2 1915,-579 2003.97,-529.7 2024.06,-513.45 2108,-456 2341.2,-296.39 2613.98,-88.07 2687.78,-31.32"/>
<polygon fill="midnightblue" stroke="midnightblue" points="2689.99,-34.03 2695.78,-25.16 2685.72,-28.49 2689.99,-34.03"/>
</g>
<!-- Node86&#45;&gt;Node9 -->
<g id="edge81" class="edge">
<title>Node86&#45;&gt;Node9</title>
<path fill="none" stroke="midnightblue" d="M1815.7,-620.97C1850.21,-575.95 2002.38,-363.73 1900,-246 1867.9,-209.09 1841.59,-227.73 1796,-210 1667.81,-160.13 1615.78,-177.28 1512,-87 1495.48,-72.63 1483.36,-50.31 1476.28,-34.64"/>
<polygon fill="midnightblue" stroke="midnightblue" points="1479.33,-32.86 1472.19,-25.04 1472.89,-35.61 1479.33,-32.86"/>
</g>
<!-- Node86&#45;&gt;Node14 -->
<g id="edge80" class="edge">
<title>Node86&#45;&gt;Node14</title>
<path fill="none" stroke="midnightblue" d="M1821.4,-620.75C1896.97,-567.07 2294.06,-280.05 2341,-143 2345.71,-129.26 2351.69,-89.35 2340,-67 2331.37,-50.5 2314.64,-38.13 2299.69,-29.76"/>
<polygon fill="midnightblue" stroke="midnightblue" points="2301.19,-26.59 2290.71,-25.06 2297.95,-32.79 2301.19,-26.59"/>
</g>
<!-- Node86&#45;&gt;Node19 -->
<g id="edge94" class="edge">
<title>Node86&#45;&gt;Node19</title>
<path fill="none" stroke="midnightblue" d="M1789.77,-620.94C1772.06,-612.33 1745.9,-597.66 1728,-579 1681.59,-530.62 1666,-508.54 1666,-441.5 1666,-441.5 1666,-441.5 1666,-372.5 1666,-335.66 1685.79,-296.28 1698.83,-274.34"/>
<polygon fill="midnightblue" stroke="midnightblue" points="1701.98,-275.91 1704.25,-265.56 1696.02,-272.23 1701.98,-275.91"/>
</g>
<!-- Node86&#45;&gt;Node79 -->
<g id="edge83" class="edge">
<title>Node86&#45;&gt;Node79</title>
<path fill="none" stroke="midnightblue" d="M1874.56,-621.63C1928.08,-614.07 2005.19,-600.56 2070,-579 2284,-507.81 2521.83,-371.01 2595.79,-327"/>
<polygon fill="midnightblue" stroke="midnightblue" points="2597.96,-329.79 2604.74,-321.65 2594.36,-323.78 2597.96,-329.79"/>
</g>
<!-- Node86&#45;&gt;Node87 -->
<g id="edge85" class="edge">
<title>Node86&#45;&gt;Node87</title>
<path fill="none" stroke="midnightblue" d="M1874.78,-623.87C2016.26,-611.77 2348.55,-583.35 2496.14,-570.73"/>
<polygon fill="midnightblue" stroke="midnightblue" points="2496.78,-574.19 2506.45,-569.85 2496.19,-567.21 2496.78,-574.19"/>
</g>
<!-- Node87&#45;&gt;Node4 -->
<g id="edge90" class="edge">
<title>Node87&#45;&gt;Node4</title>
<path fill="none" stroke="midnightblue" d="M2593.88,-548.44C2624.93,-528.84 2674,-490.17 2674,-441.5 2674,-441.5 2674,-441.5 2674,-372.5 2674,-339.93 2678.6,-323.34 2654,-302 2619.02,-271.65 2287.06,-250.8 2241,-246 2131.74,-234.61 1850.07,-250.6 1748,-210 1727.75,-201.94 1730.02,-187.61 1710,-179 1659.16,-157.14 1505.78,-143.72 1419.89,-137.72"/>
<polygon fill="midnightblue" stroke="midnightblue" points="1419.98,-134.22 1409.77,-137.02 1419.5,-141.2 1419.98,-134.22"/>
</g>
<!-- Node87&#45;&gt;Node9 -->
<g id="edge87" class="edge">
<title>Node87&#45;&gt;Node9</title>
<path fill="none" stroke="midnightblue" d="M2560.53,-548.4C2539.68,-514.18 2483.38,-424.64 2426,-358 2346.2,-265.32 2322.46,-240.93 2217,-179 2165.2,-148.59 2150.23,-144.11 2094,-123 2012.78,-92.51 1991.98,-84.48 1907,-67 1868.53,-59.09 1610.23,-31.4 1509.3,-20.74"/>
<polygon fill="midnightblue" stroke="midnightblue" points="1509.5,-17.24 1499.19,-19.67 1508.77,-24.2 1509.5,-17.24"/>
</g>
<!-- Node87&#45;&gt;Node13 -->
<g id="edge93" class="edge">
<title>Node87&#45;&gt;Node13</title>
<path fill="none" stroke="midnightblue" d="M2608.05,-548.46C2626.63,-540.2 2647.99,-528.15 2663,-512 2726.66,-443.5 2734.99,-374.56 2676,-302 2548.93,-145.72 2297.7,-98.05 2176.12,-83.84"/>
<polygon fill="midnightblue" stroke="midnightblue" points="2176.16,-80.33 2165.83,-82.69 2175.37,-87.28 2176.16,-80.33"/>
</g>
<!-- Node87&#45;&gt;Node14 -->
<g id="edge86" class="edge">
<title>Node87&#45;&gt;Node14</title>
<path fill="none" stroke="midnightblue" d="M2631.76,-554.78C2696.47,-542.9 2788,-513.39 2788,-441.5 2788,-441.5 2788,-441.5 2788,-372.5 2788,-279.2 2581.18,-112.99 2500,-67 2436.15,-30.82 2348.75,-20.55 2302.22,-17.64"/>
<polygon fill="midnightblue" stroke="midnightblue" points="2302.3,-14.14 2292.13,-17.09 2301.92,-21.13 2302.3,-14.14"/>
</g>
<!-- Node87&#45;&gt;Node15 -->
<g id="edge89" class="edge">
<title>Node87&#45;&gt;Node15</title>
<path fill="none" stroke="midnightblue" d="M2631.72,-562.66C2778.11,-559.41 3130,-529.12 3130,-313 3130,-313 3130,-313 3130,-132 3130,-64.64 3038.78,-34.41 2987.68,-22.75"/>
<polygon fill="midnightblue" stroke="midnightblue" points="2988.25,-19.3 2977.74,-20.6 2986.77,-26.14 2988.25,-19.3"/>
</g>
<!-- Node87&#45;&gt;Node20 -->
<g id="edge92" class="edge">
<title>Node87&#45;&gt;Node20</title>
<path fill="none" stroke="midnightblue" d="M2506.29,-560.2C2256.84,-551.07 1334.05,-517.28 1036.87,-506.4"/>
<polygon fill="midnightblue" stroke="midnightblue" points="1036.68,-502.89 1026.56,-506.02 1036.43,-509.89 1036.68,-502.89"/>
</g>
<!-- Node87&#45;&gt;Node63 -->
<g id="edge91" class="edge">
<title>Node87&#45;&gt;Node63</title>
<path fill="none" stroke="midnightblue" d="M2506.32,-558.28C2231.1,-539.76 1130.54,-465.7 841.06,-446.21"/>
<polygon fill="midnightblue" stroke="midnightblue" points="840.91,-442.7 830.7,-445.52 840.44,-449.68 840.91,-442.7"/>
</g>
<!-- Node87&#45;&gt;Node79 -->
<g id="edge88" class="edge">
<title>Node87&#45;&gt;Node79</title>
<path fill="none" stroke="midnightblue" d="M2571.83,-548.37C2580.32,-506 2605.58,-379.96 2615.21,-331.9"/>
<polygon fill="midnightblue" stroke="midnightblue" points="2618.68,-332.42 2617.21,-321.93 2611.81,-331.05 2618.68,-332.42"/>
</g>
<!-- Node88&#45;&gt;Node4 -->
<g id="edge101" class="edge">
<title>Node88&#45;&gt;Node4</title>
<path fill="none" stroke="midnightblue" d="M2349.26,-749.45C2338.47,-740.68 2321.54,-726.48 2308,-713 2112.66,-518.57 2141.25,-379.26 1900,-246 1810.2,-196.4 1765.65,-251.87 1672,-210 1652.1,-201.1 1653.87,-187.96 1634,-179 1564.91,-147.85 1477.34,-137.99 1420.05,-135.02"/>
<polygon fill="midnightblue" stroke="midnightblue" points="1419.86,-131.5 1409.71,-134.54 1419.54,-138.5 1419.86,-131.5"/>
</g>
<!-- Node88&#45;&gt;Node6 -->
<g id="edge99" class="edge">
<title>Node88&#45;&gt;Node6</title>
<path fill="none" stroke="midnightblue" d="M2408.25,-758.15C2565.63,-755.87 3054,-725.88 3054,-441.5 3054,-441.5 3054,-441.5 3054,-193.5 3054,-56.08 2835.37,-25.3 2745.19,-18.44"/>
<polygon fill="midnightblue" stroke="midnightblue" points="2745.32,-14.95 2735.1,-17.74 2744.83,-21.93 2745.32,-14.95"/>
</g>
<!-- Node88&#45;&gt;Node9 -->
<g id="edge98" class="edge">
<title>Node88&#45;&gt;Node9</title>
<path fill="none" stroke="midnightblue" d="M2357.27,-749.13C2346.12,-712.86 2303.1,-572.29 2270,-456 2243.52,-362.99 2271.85,-322.75 2213,-246 2195,-222.53 2124.79,-191.53 2098,-179 1989.24,-128.13 1954.08,-134.93 1844,-87 1826.14,-79.22 1823.54,-72.97 1805,-67 1750.64,-49.49 1586.27,-29.58 1509.42,-20.91"/>
<polygon fill="midnightblue" stroke="midnightblue" points="1509.5,-17.4 1499.18,-19.77 1508.73,-24.36 1509.5,-17.4"/>
</g>
<!-- Node88&#45;&gt;Node14 -->
<g id="edge97" class="edge">
<title>Node88&#45;&gt;Node14</title>
<path fill="none" stroke="midnightblue" d="M2408.29,-754.71C2451.3,-750.13 2514.86,-739.16 2564,-713 2731.68,-623.75 2834.42,-545.17 2802,-358 2771.79,-183.56 2692.97,-136.15 2530,-67 2452.51,-34.12 2352.89,-22.44 2302.42,-18.45"/>
<polygon fill="midnightblue" stroke="midnightblue" points="2302.36,-14.94 2292.13,-17.7 2301.84,-21.92 2302.36,-14.94"/>
</g>
<!-- Node88&#45;&gt;Node19 -->
<g id="edge124" class="edge">
<title>Node88&#45;&gt;Node19</title>
<path fill="none" stroke="midnightblue" d="M2311.88,-753.29C2276.77,-747.96 2229.34,-736.7 2194,-713 2111.47,-657.64 1999.23,-420.55 1922,-358 1868.25,-314.46 1792.62,-284.27 1747.73,-268.86"/>
<polygon fill="midnightblue" stroke="midnightblue" points="1748.69,-265.49 1738.09,-265.62 1746.46,-272.12 1748.69,-265.49"/>
</g>
<!-- Node88&#45;&gt;Node79 -->
<g id="edge100" class="edge">
<title>Node88&#45;&gt;Node79</title>
<path fill="none" stroke="midnightblue" d="M2408.05,-752.81C2443.2,-747.24 2490.85,-735.89 2527,-713 2592.82,-671.32 2613.43,-652.23 2640,-579 2672.05,-490.68 2640.14,-375.35 2625.49,-331.24"/>
<polygon fill="midnightblue" stroke="midnightblue" points="2628.75,-329.94 2622.19,-321.62 2622.13,-332.21 2628.75,-329.94"/>
</g>
<!-- Node88&#45;&gt;Node87 -->
<g id="edge125" class="edge">
<title>Node88&#45;&gt;Node87</title>
<path fill="none" stroke="midnightblue" d="M2397.67,-749.41C2445.82,-736.22 2527.41,-705.96 2565,-646 2575.65,-629 2575.75,-605.87 2573.7,-588.59"/>
<polygon fill="midnightblue" stroke="midnightblue" points="2577.16,-588.07 2572.23,-578.7 2570.24,-589.11 2577.16,-588.07"/>
</g>
<!-- Node89 -->
<g id="node37" class="node">
<title>Node89</title>
<g id="a_node37"><a xlink:href="../../d4/d35/pointer__vector__set_8h.html" target="_top" xlink:title=" ">
<polygon fill="none" stroke="red" points="2312.5,-358.5 2312.5,-388.5 2417.5,-388.5 2417.5,-358.5 2312.5,-358.5"/>
<text text-anchor="start" x="2320.5" y="-376.5" font-family="Helvetica,sans-Serif" font-size="10.00">containers/pointer</text>
<text text-anchor="middle" x="2365" y="-365.5" font-family="Helvetica,sans-Serif" font-size="10.00">_vector_set.h</text>
</a>
</g>
</g>
<!-- Node88&#45;&gt;Node89 -->
<g id="edge102" class="edge">
<title>Node88&#45;&gt;Node89</title>
<path fill="none" stroke="midnightblue" d="M2364.51,-749.37C2374.57,-729.29 2398,-677.59 2398,-631.5 2398,-631.5 2398,-631.5 2398,-501 2398,-464.1 2384.69,-423.04 2374.97,-397.99"/>
<polygon fill="midnightblue" stroke="midnightblue" points="2378.18,-396.58 2371.21,-388.6 2371.68,-399.19 2378.18,-396.58"/>
</g>
<!-- Node88&#45;&gt;Node92 -->
<g id="edge110" class="edge">
<title>Node88&#45;&gt;Node92</title>
<path fill="none" stroke="midnightblue" d="M2408.08,-755.17C2491.3,-749.72 2658.44,-736.22 2712,-713 2733.43,-703.71 2779.08,-664.76 2793,-646 2824.12,-604.08 2878.14,-456.24 2898.72,-398.17"/>
<polygon fill="midnightblue" stroke="midnightblue" points="2902.03,-399.32 2902.05,-388.72 2895.42,-396.99 2902.03,-399.32"/>
</g>
<!-- Node94 -->
<g id="node39" class="node">
<title>Node94</title>
<g id="a_node39"><a xlink:href="../../d9/d4c/includes_2indexed__object_8h.html" target="_top" xlink:title=" ">
<polygon fill="none" stroke="black" points="1770.5,-364 1770.5,-383 1913.5,-383 1913.5,-364 1770.5,-364"/>
<text text-anchor="middle" x="1842" y="-371" font-family="Helvetica,sans-Serif" font-size="10.00">includes/indexed_object.h</text>
</a>
</g>
</g>
<!-- Node88&#45;&gt;Node94 -->
<g id="edge117" class="edge">
<title>Node88&#45;&gt;Node94</title>
<path fill="none" stroke="midnightblue" d="M2311.64,-753.67C2201.61,-742.48 1942,-707.98 1942,-631.5 1942,-631.5 1942,-631.5 1942,-501 1942,-451.27 1893.86,-409.65 1864.38,-388.83"/>
<polygon fill="midnightblue" stroke="midnightblue" points="1866.14,-385.79 1855.9,-383.05 1862.19,-391.57 1866.14,-385.79"/>
</g>
<!-- Node95 -->
<g id="node40" class="node">
<title>Node95</title>
<g id="a_node40"><a xlink:href="../../d4/d67/geometry_8h.html" target="_top" xlink:title=" ">
<polygon fill="none" stroke="red" points="2426,-621 2426,-640 2556,-640 2556,-621 2426,-621"/>
<text text-anchor="middle" x="2491" y="-628" font-family="Helvetica,sans-Serif" font-size="10.00">geometries/geometry.h</text>
</a>
</g>
</g>
<!-- Node88&#45;&gt;Node95 -->
<g id="edge121" class="edge">
<title>Node88&#45;&gt;Node95</title>
<path fill="none" stroke="midnightblue" d="M2370.6,-749.3C2381.28,-740.42 2398.12,-726.12 2412,-713 2435.14,-691.13 2460.54,-664.41 2476.13,-647.66"/>
<polygon fill="midnightblue" stroke="midnightblue" points="2478.71,-650.02 2482.94,-640.31 2473.57,-645.27 2478.71,-650.02"/>
</g>
<!-- Node88&#45;&gt;Node104 -->
<g id="edge126" class="edge">
<title>Node88&#45;&gt;Node104</title>
<path fill="none" stroke="midnightblue" d="M2311.97,-754.1C2186.9,-743.93 1850.52,-716.59 1701.17,-704.45"/>
<polygon fill="midnightblue" stroke="midnightblue" points="1701.42,-700.96 1691.17,-703.63 1700.86,-707.93 1701.42,-700.96"/>
</g>
<!-- Node89&#45;&gt;Node4 -->
<g id="edge108" class="edge">
<title>Node89&#45;&gt;Node4</title>
<path fill="none" stroke="midnightblue" d="M2338.66,-358.43C2322.22,-349.09 2301.02,-336 2284,-322 2248.3,-292.63 2254.7,-265.95 2213,-246 2113.9,-198.6 1824.16,-244.88 1720,-210 1695.92,-201.94 1695.78,-187.91 1672,-179 1588.25,-147.64 1484.3,-137.98 1420.06,-135.09"/>
<polygon fill="midnightblue" stroke="midnightblue" points="1419.84,-131.58 1409.71,-134.67 1419.56,-138.58 1419.84,-131.58"/>
</g>
<!-- Node89&#45;&gt;Node6 -->
<g id="edge106" class="edge">
<title>Node89&#45;&gt;Node6</title>
<path fill="none" stroke="midnightblue" d="M2400.94,-358.35C2421.9,-349.35 2448.4,-336.64 2470,-322 2587.22,-242.58 2672.18,-86.62 2698.45,-34.18"/>
<polygon fill="midnightblue" stroke="midnightblue" points="2701.63,-35.64 2702.92,-25.13 2695.35,-32.55 2701.63,-35.64"/>
</g>
<!-- Node89&#45;&gt;Node9 -->
<g id="edge105" class="edge">
<title>Node89&#45;&gt;Node9</title>
<path fill="none" stroke="midnightblue" d="M2358.74,-358.46C2347.03,-333.4 2319.7,-280.36 2284,-246 2241.66,-205.25 2221.74,-206.86 2170,-179 2120.3,-152.24 2108.88,-142.75 2056,-123 1964.71,-88.9 1939.59,-85.98 1844,-67 1723.26,-43.02 1578.37,-27.09 1509.36,-20.27"/>
<polygon fill="midnightblue" stroke="midnightblue" points="1509.64,-16.78 1499.35,-19.29 1508.96,-23.75 1509.64,-16.78"/>
</g>
<!-- Node89&#45;&gt;Node14 -->
<g id="edge104" class="edge">
<title>Node89&#45;&gt;Node14</title>
<path fill="none" stroke="midnightblue" d="M2386.68,-358.39C2425.87,-332.64 2505.12,-279.47 2512,-266 2540.89,-209.39 2530.67,-183.75 2512,-123 2503.17,-94.25 2498.68,-84.2 2474,-67 2421.43,-30.37 2344.98,-20.23 2302.16,-17.47"/>
<polygon fill="midnightblue" stroke="midnightblue" points="2302.21,-13.97 2292.03,-16.92 2301.83,-20.96 2302.21,-13.97"/>
</g>
<!-- Node89&#45;&gt;Node15 -->
<g id="edge103" class="edge">
<title>Node89&#45;&gt;Node15</title>
<path fill="none" stroke="midnightblue" d="M2408.86,-358.49C2435.07,-349.45 2468.67,-336.65 2497,-322 2677.98,-228.39 2874.95,-78.44 2935.36,-31.22"/>
<polygon fill="midnightblue" stroke="midnightblue" points="2937.56,-33.95 2943.26,-25.02 2933.24,-28.44 2937.56,-33.95"/>
</g>
<!-- Node89&#45;&gt;Node79 -->
<g id="edge107" class="edge">
<title>Node89&#45;&gt;Node79</title>
<path fill="none" stroke="midnightblue" d="M2417.63,-360.17C2466.86,-348.64 2539.13,-331.71 2582.37,-321.58"/>
<polygon fill="midnightblue" stroke="midnightblue" points="2583.25,-324.97 2592.19,-319.28 2581.65,-318.15 2583.25,-324.97"/>
</g>
<!-- Node89&#45;&gt;Node50 -->
<g id="edge109" class="edge">
<title>Node89&#45;&gt;Node50</title>
<path fill="none" stroke="midnightblue" d="M2312.3,-369.81C2122.93,-360.14 1477.09,-327.15 1266.78,-316.41"/>
<polygon fill="midnightblue" stroke="midnightblue" points="1266.67,-312.9 1256.51,-315.89 1266.32,-319.89 1266.67,-312.9"/>
</g>
<!-- Node92&#45;&gt;Node4 -->
<g id="edge116" class="edge">
<title>Node92&#45;&gt;Node4</title>
<path fill="none" stroke="midnightblue" d="M2865.63,-358.43C2821.76,-343.68 2750.31,-320.17 2688,-302 2593.62,-274.48 2571.03,-261.84 2474,-246 2240.55,-207.89 2178.04,-236.6 1943,-210 1855.8,-200.13 1834.94,-190.95 1748,-179 1632.19,-163.09 1496.4,-148.2 1420.06,-140.17"/>
<polygon fill="midnightblue" stroke="midnightblue" points="1420.01,-136.65 1409.7,-139.09 1419.28,-143.61 1420.01,-136.65"/>
</g>
<!-- Node92&#45;&gt;Node6 -->
<g id="edge114" class="edge">
<title>Node92&#45;&gt;Node6</title>
<path fill="none" stroke="midnightblue" d="M2910.73,-358.48C2914.04,-344.26 2918.08,-321.63 2916,-302 2908.48,-230.99 2864.16,-77.77 2854,-67 2825.68,-36.97 2778.73,-24.8 2745.52,-19.87"/>
<polygon fill="midnightblue" stroke="midnightblue" points="2745.63,-16.35 2735.26,-18.5 2744.71,-23.29 2745.63,-16.35"/>
</g>
<!-- Node92&#45;&gt;Node9 -->
<g id="edge113" class="edge">
<title>Node92&#45;&gt;Node9</title>
<path fill="none" stroke="midnightblue" d="M2873.65,-358.49C2838.92,-344 2782.85,-320.89 2734,-302 2585.68,-244.65 2549.88,-226.13 2398,-179 2319.34,-154.59 2116.56,-114.71 2039,-87 2019.15,-79.91 2016.34,-72.53 1996,-67 1833.57,-22.87 1786.55,-47.1 1619,-31 1581.84,-27.43 1539.51,-23.34 1509.31,-20.41"/>
<polygon fill="midnightblue" stroke="midnightblue" points="1509.46,-16.91 1499.17,-19.43 1508.78,-23.87 1509.46,-16.91"/>
</g>
<!-- Node92&#45;&gt;Node14 -->
<g id="edge112" class="edge">
<title>Node92&#45;&gt;Node14</title>
<path fill="none" stroke="midnightblue" d="M2904.44,-358.46C2894.39,-307.97 2852.52,-135 2740,-67 2666.03,-22.29 2395.61,-16.97 2302.08,-16.48"/>
<polygon fill="midnightblue" stroke="midnightblue" points="2302.09,-12.98 2292.08,-16.45 2302.07,-19.98 2302.09,-12.98"/>
</g>
<!-- Node92&#45;&gt;Node15 -->
<g id="edge111" class="edge">
<title>Node92&#45;&gt;Node15</title>
<path fill="none" stroke="midnightblue" d="M2925.4,-358.2C2935.72,-349.06 2947.74,-336.26 2954,-322 2999.64,-218.08 2983.3,-179.47 2968,-67 2966.52,-56.13 2963.33,-44.29 2960.36,-34.81"/>
<polygon fill="midnightblue" stroke="midnightblue" points="2963.68,-33.69 2957.22,-25.29 2957.03,-35.88 2963.68,-33.69"/>
</g>
<!-- Node92&#45;&gt;Node79 -->
<g id="edge115" class="edge">
<title>Node92&#45;&gt;Node79</title>
<path fill="none" stroke="midnightblue" d="M2854.18,-361.59C2796.57,-349.68 2705.88,-330.95 2655.62,-320.56"/>
<polygon fill="midnightblue" stroke="midnightblue" points="2656.03,-317.08 2645.53,-318.48 2654.61,-323.93 2656.03,-317.08"/>
</g>
<!-- Node94&#45;&gt;Node4 -->
<g id="edge119" class="edge">
<title>Node94&#45;&gt;Node4</title>
<path fill="none" stroke="midnightblue" d="M1851.33,-363.89C1860.65,-354.6 1874.37,-338.86 1880,-322 1890.71,-289.96 1902.01,-271.62 1880,-246 1845.43,-205.76 1693.61,-228.81 1644,-210 1620.25,-201 1619.58,-188.44 1596,-179 1538.7,-156.05 1468.79,-144.6 1420,-139.02"/>
<polygon fill="midnightblue" stroke="midnightblue" points="1420.24,-135.52 1409.92,-137.91 1419.48,-142.48 1420.24,-135.52"/>
</g>
<!-- Node94&#45;&gt;Node9 -->
<g id="edge118" class="edge">
<title>Node94&#45;&gt;Node9</title>
<path fill="none" stroke="midnightblue" d="M1857.01,-363.88C1870.46,-355.21 1889.37,-340.51 1898,-322 1912.28,-291.38 1917.34,-275 1900,-246 1812.95,-100.43 1598.7,-42.22 1509.25,-23.73"/>
<polygon fill="midnightblue" stroke="midnightblue" points="1509.72,-20.26 1499.23,-21.72 1508.35,-27.12 1509.72,-20.26"/>
</g>
<!-- Node94&#45;&gt;Node50 -->
<g id="edge120" class="edge">
<title>Node94&#45;&gt;Node50</title>
<path fill="none" stroke="midnightblue" d="M1770.22,-365.85C1645.12,-354.25 1388.86,-330.5 1267.1,-319.22"/>
<polygon fill="midnightblue" stroke="midnightblue" points="1267.09,-315.7 1256.81,-318.26 1266.44,-322.67 1267.09,-315.7"/>
</g>
<!-- Node95&#45;&gt;Node55 -->
<g id="edge123" class="edge">
<title>Node95&#45;&gt;Node55</title>
<path fill="none" stroke="midnightblue" d="M2482.76,-620.66C2437.48,-572.05 2218.7,-337.19 2159.05,-273.15"/>
<polygon fill="midnightblue" stroke="midnightblue" points="2161.38,-270.53 2152.01,-265.59 2156.26,-275.3 2161.38,-270.53"/>
</g>
<!-- Node95&#45;&gt;Node87 -->
<g id="edge122" class="edge">
<title>Node95&#45;&gt;Node87</title>
<path fill="none" stroke="midnightblue" d="M2501.52,-620.73C2512.36,-611.7 2529.67,-597.27 2544.04,-585.3"/>
<polygon fill="midnightblue" stroke="midnightblue" points="2546.65,-587.68 2552.09,-578.59 2542.17,-582.3 2546.65,-587.68"/>
</g>
<!-- Node104&#45;&gt;Node4 -->
<g id="edge127" class="edge">
<title>Node104&#45;&gt;Node4</title>
<path fill="none" stroke="midnightblue" d="M1628,-682.24C1628,-658.03 1628,-607.35 1628,-564.5 1628,-564.5 1628,-564.5 1628,-439.5 1628,-386.16 1805.3,-285.99 1770,-246 1727.32,-197.65 1541.13,-235.76 1482,-210 1462.33,-201.43 1462.8,-190.97 1445,-179 1426.93,-166.85 1405.22,-155.4 1388.26,-147.09"/>
<polygon fill="midnightblue" stroke="midnightblue" points="1389.41,-143.76 1378.88,-142.58 1386.38,-150.07 1389.41,-143.76"/>
</g>
<!-- Node104&#45;&gt;Node19 -->
<g id="edge128" class="edge">
<title>Node104&#45;&gt;Node19</title>
<path fill="none" stroke="midnightblue" d="M1621.03,-682.24C1610.06,-658.44 1590,-608.86 1590,-564.5 1590,-564.5 1590,-564.5 1590,-372.5 1590,-322.81 1644.07,-287.79 1679.62,-270.13"/>
<polygon fill="midnightblue" stroke="midnightblue" points="1681.58,-273.07 1689.1,-265.61 1678.56,-266.76 1681.58,-273.07"/>
</g>
<!-- Node104&#45;&gt;Node63 -->
<g id="edge129" class="edge">
<title>Node104&#45;&gt;Node63</title>
<path fill="none" stroke="midnightblue" d="M1601.93,-682.35C1565.53,-663.34 1496.85,-630.2 1434,-615 1231.23,-565.97 1165.05,-641.46 966,-579 889.45,-554.98 817.11,-488.59 786.43,-457.7"/>
<polygon fill="midnightblue" stroke="midnightblue" points="788.72,-455.04 779.23,-450.33 783.71,-459.93 788.72,-455.04"/>
</g>
<!-- Node104&#45;&gt;Node86 -->
<g id="edge130" class="edge">
<title>Node104&#45;&gt;Node86</title>
<path fill="none" stroke="midnightblue" d="M1667.27,-682.4C1699.59,-670.79 1744.91,-654.51 1775.53,-643.52"/>
<polygon fill="midnightblue" stroke="midnightblue" points="1777.08,-646.68 1785.31,-640.01 1774.72,-640.09 1777.08,-646.68"/>
</g>
<!-- Node104&#45;&gt;Node94 -->
<g id="edge131" class="edge">
<title>Node104&#45;&gt;Node94</title>
<path fill="none" stroke="midnightblue" d="M1637.47,-682.25C1672.26,-629.9 1792.94,-448.32 1830.65,-391.58"/>
<polygon fill="midnightblue" stroke="midnightblue" points="1833.71,-393.3 1836.33,-383.03 1827.88,-389.43 1833.71,-393.3"/>
</g>
<!-- Node114&#45;&gt;Node4 -->
<g id="edge133" class="edge">
<title>Node114&#45;&gt;Node4</title>
<path fill="none" stroke="midnightblue" d="M519.5,-425.23C519.2,-399.07 521.47,-342.43 544,-302 562.24,-269.28 575.02,-265.52 607,-246 624.59,-235.26 759.9,-183.57 780,-179 877.71,-156.79 1172.39,-141.98 1300.01,-136.44"/>
<polygon fill="midnightblue" stroke="midnightblue" points="1300.52,-139.92 1310.36,-135.99 1300.22,-132.92 1300.52,-139.92"/>
</g>
<!-- Node114&#45;&gt;Node115 -->
<g id="edge134" class="edge">
<title>Node114&#45;&gt;Node115</title>
<path fill="none" stroke="midnightblue" d="M545.82,-425.4C562.97,-416.03 585.7,-403.62 604.41,-393.39"/>
<polygon fill="midnightblue" stroke="midnightblue" points="606.13,-396.44 613.23,-388.58 602.78,-390.3 606.13,-396.44"/>
</g>
<!-- Node115&#45;&gt;Node4 -->
<g id="edge136" class="edge">
<title>Node115&#45;&gt;Node4</title>
<path fill="none" stroke="midnightblue" d="M630.59,-358.17C616.83,-332.64 593.55,-278.88 620,-246 666.77,-187.85 715.12,-238.7 784,-210 807.44,-200.23 807.97,-187.21 832,-179 875.39,-164.18 1171.38,-145.15 1300.25,-137.46"/>
<polygon fill="midnightblue" stroke="midnightblue" points="1300.57,-140.94 1310.35,-136.86 1300.16,-133.96 1300.57,-140.94"/>
</g>
<!-- Node115&#45;&gt;Node50 -->
<g id="edge137" class="edge">
<title>Node115&#45;&gt;Node50</title>
<path fill="none" stroke="midnightblue" d="M691.53,-366.93C793.88,-356.07 1019.88,-332.1 1132.9,-320.12"/>
<polygon fill="midnightblue" stroke="midnightblue" points="1133.57,-323.56 1143.15,-319.03 1132.83,-316.6 1133.57,-323.56"/>
</g>
<!-- Node115&#45;&gt;Node53 -->
<g id="edge135" class="edge">
<title>Node115&#45;&gt;Node53</title>
<path fill="none" stroke="midnightblue" d="M684.49,-358.45C759.26,-335.36 906.74,-289.82 975.74,-268.51"/>
<polygon fill="midnightblue" stroke="midnightblue" points="976.82,-271.84 985.34,-265.54 974.75,-265.15 976.82,-271.84"/>
</g>
<!-- Node116&#45;&gt;Node82 -->
<g id="edge140" class="edge">
<title>Node116&#45;&gt;Node82</title>
<path fill="none" stroke="midnightblue" d="M1610.31,-749.48C1560.84,-738.85 1476.28,-720.68 1422.59,-709.15"/>
<polygon fill="midnightblue" stroke="midnightblue" points="1423.13,-705.69 1412.61,-707.01 1421.66,-712.53 1423.13,-705.69"/>
</g>
<!-- Node116&#45;&gt;Node86 -->
<g id="edge139" class="edge">
<title>Node116&#45;&gt;Node86</title>
<path fill="none" stroke="midnightblue" d="M1660.93,-749.31C1687.59,-728.09 1756.25,-673.46 1789.88,-646.72"/>
<polygon fill="midnightblue" stroke="midnightblue" points="1792.35,-649.22 1797.99,-640.26 1787.99,-643.74 1792.35,-649.22"/>
</g>
<!-- Node130&#45;&gt;Node82 -->
<g id="edge143" class="edge">
<title>Node130&#45;&gt;Node82</title>
<path fill="none" stroke="midnightblue" d="M1722.98,-749.66C1649.18,-738.87 1520.69,-720.09 1441.62,-708.53"/>
<polygon fill="midnightblue" stroke="midnightblue" points="1441.68,-705 1431.28,-707.02 1440.67,-711.93 1441.68,-705"/>
</g>
<!-- Node130&#45;&gt;Node86 -->
<g id="edge142" class="edge">
<title>Node130&#45;&gt;Node86</title>
<path fill="none" stroke="midnightblue" d="M1781.99,-749.31C1786.65,-728.99 1798.33,-678.05 1804.7,-650.28"/>
<polygon fill="midnightblue" stroke="midnightblue" points="1808.17,-650.78 1806.99,-640.26 1801.35,-649.22 1808.17,-650.78"/>
</g>
<!-- Node131&#45;&gt;Node4 -->
<g id="edge149" class="edge">
<title>Node131&#45;&gt;Node4</title>
<path fill="none" stroke="midnightblue" d="M2011.89,-805.38C1975.48,-753.78 1787.75,-484.93 1761,-389 1757.3,-375.73 1756.97,-371.18 1761,-358 1777.62,-303.59 1859.95,-289.27 1823,-246 1789.83,-207.16 1644.3,-226.62 1596,-210 1569.1,-200.74 1566.47,-189.43 1540,-179 1500.55,-163.46 1454.08,-152 1418.24,-144.54"/>
<polygon fill="midnightblue" stroke="midnightblue" points="1418.93,-141.11 1408.43,-142.54 1417.53,-147.97 1418.93,-141.11"/>
</g>
<!-- Node131&#45;&gt;Node6 -->
<g id="edge147" class="edge">
<title>Node131&#45;&gt;Node6</title>
<path fill="none" stroke="midnightblue" d="M2029.23,-805.2C2093.79,-754.17 2421.41,-488.77 2614,-210 2650.53,-157.13 2665.5,-146.41 2690,-87 2696.97,-70.1 2701.5,-49.69 2704.12,-35.19"/>
<polygon fill="midnightblue" stroke="midnightblue" points="2707.62,-35.45 2705.82,-25.01 2700.72,-34.3 2707.62,-35.45"/>
</g>
<!-- Node131&#45;&gt;Node9 -->
<g id="edge146" class="edge">
<title>Node131&#45;&gt;Node9</title>
<path fill="none" stroke="midnightblue" d="M2018,-805.31C2018,-786.06 2018,-738.4 2018,-698.5 2018,-698.5 2018,-698.5 2018,-629.5 2018,-483.93 2081.95,-430.21 2013,-302 1992.1,-263.13 1969.52,-267.53 1931,-246 1921.55,-240.72 1584.49,-92.23 1575,-87 1543.8,-69.82 1509.88,-46.33 1489.02,-31.28"/>
<polygon fill="midnightblue" stroke="midnightblue" points="1490.82,-28.26 1480.67,-25.21 1486.7,-33.92 1490.82,-28.26"/>
</g>
<!-- Node131&#45;&gt;Node14 -->
<g id="edge145" class="edge">
<title>Node131&#45;&gt;Node14</title>
<path fill="none" stroke="midnightblue" d="M2020.69,-805.31C2027.81,-783.17 2048.8,-723.48 2080,-682 2152.5,-585.6 2284,-623.62 2284,-503 2284,-503 2284,-503 2284,-439.5 2284,-270.8 2442.48,-212.44 2357,-67 2345.04,-46.65 2321.46,-33.71 2301.86,-26.03"/>
<polygon fill="midnightblue" stroke="midnightblue" points="2302.93,-22.7 2292.34,-22.58 2300.55,-29.28 2302.93,-22.7"/>
</g>
<!-- Node131&#45;&gt;Node79 -->
<g id="edge148" class="edge">
<title>Node131&#45;&gt;Node79</title>
<path fill="none" stroke="midnightblue" d="M2036.58,-805.45C2055.01,-796.8 2083.88,-782.78 2108,-769 2195.34,-719.1 2220.36,-709.97 2298,-646 2429.25,-537.86 2563.03,-380.74 2605.33,-329.69"/>
<polygon fill="midnightblue" stroke="midnightblue" points="2608.27,-331.62 2611.94,-321.68 2602.87,-327.17 2608.27,-331.62"/>
</g>
<!-- Node131&#45;&gt;Node88 -->
<g id="edge152" class="edge">
<title>Node131&#45;&gt;Node88</title>
<path fill="none" stroke="midnightblue" d="M2072.19,-805.44C2134.85,-795.55 2237.61,-779.33 2301.89,-769.18"/>
<polygon fill="midnightblue" stroke="midnightblue" points="2302.53,-772.62 2311.86,-767.6 2301.44,-765.7 2302.53,-772.62"/>
</g>
<!-- Node131&#45;&gt;Node116 -->
<g id="edge151" class="edge">
<title>Node131&#45;&gt;Node116</title>
<path fill="none" stroke="midnightblue" d="M1959.69,-805.44C1893.05,-795.66 1784.27,-779.7 1714.96,-769.53"/>
<polygon fill="midnightblue" stroke="midnightblue" points="1715.43,-766.06 1705.03,-768.08 1714.42,-772.99 1715.43,-766.06"/>
</g>
<!-- Node131&#45;&gt;Node130 -->
<g id="edge150" class="edge">
<title>Node131&#45;&gt;Node130</title>
<path fill="none" stroke="midnightblue" d="M1980.29,-805.44C1938.86,-796.04 1872.24,-780.93 1827.33,-770.74"/>
<polygon fill="midnightblue" stroke="midnightblue" points="1828.06,-767.32 1817.54,-768.52 1826.51,-774.14 1828.06,-767.32"/>
</g>
<!-- Node118&#45;&gt;Node4 -->
<g id="edge157" class="edge">
<title>Node118&#45;&gt;Node4</title>
<path fill="none" stroke="midnightblue" d="M680.49,-492.4C678.3,-478.15 675.1,-448.82 681,-425 685.35,-407.44 695.65,-406.56 700,-389 703.31,-375.63 702.7,-371.51 700,-358 696.6,-341 689,-338.86 685,-322 679.24,-297.72 681.89,-290.94 681,-266 680.68,-257.12 675.55,-253.02 681,-246 720.68,-194.92 764.25,-239.13 822,-210 841.46,-200.18 839.82,-187.23 860,-179 899.89,-162.74 1176.34,-144.76 1300.21,-137.41"/>
<polygon fill="midnightblue" stroke="midnightblue" points="1300.51,-140.9 1310.28,-136.82 1300.1,-133.91 1300.51,-140.9"/>
</g>
<!-- Node118&#45;&gt;Node9 -->
<g id="edge155" class="edge">
<title>Node118&#45;&gt;Node9</title>
<path fill="none" stroke="midnightblue" d="M634.91,-499.86C572,-497.09 457.79,-487.71 366,-456 253.45,-417.12 234.92,-385.2 134,-322 90.33,-294.65 38,-308.53 38,-257 38,-257 38,-257 38,-132 38,-78.62 88.08,-83.02 139,-67 264.52,-27.5 1219.69,-18.31 1428.68,-16.77"/>
<polygon fill="midnightblue" stroke="midnightblue" points="1428.92,-20.26 1438.9,-16.69 1428.87,-13.26 1428.92,-20.26"/>
</g>
<!-- Node118&#45;&gt;Node14 -->
<g id="edge154" class="edge">
<title>Node118&#45;&gt;Node14</title>
<path fill="none" stroke="midnightblue" d="M634.81,-496.58C576.17,-490.29 480.36,-477.1 452,-456 349.3,-379.57 283.98,-271 373,-179 499.45,-48.31 398.58,-138.41 2060,-31 2123.07,-26.92 2196.77,-21.74 2237.95,-18.8"/>
<polygon fill="midnightblue" stroke="midnightblue" points="2238.21,-22.29 2247.93,-18.09 2237.71,-15.31 2238.21,-22.29"/>
</g>
<!-- Node118&#45;&gt;Node63 -->
<g id="edge158" class="edge">
<title>Node118&#45;&gt;Node63</title>
<path fill="none" stroke="midnightblue" d="M694.75,-492.48C709.03,-482.93 732.4,-467.31 749.51,-455.87"/>
<polygon fill="midnightblue" stroke="midnightblue" points="751.9,-458.48 758.27,-450.01 748.01,-452.66 751.9,-458.48"/>
</g>
<!-- Node118&#45;&gt;Node55 -->
<g id="edge156" class="edge">
<title>Node118&#45;&gt;Node55</title>
<path fill="none" stroke="midnightblue" d="M681.35,-492.27C680.69,-476.13 681.87,-441.76 702,-425 742.76,-391.06 1125.26,-394.59 1178,-389 1519.01,-352.84 1925.28,-291.24 2079.94,-267.12"/>
<polygon fill="midnightblue" stroke="midnightblue" points="2080.86,-270.51 2090.2,-265.51 2079.78,-263.6 2080.86,-270.51"/>
</g>
<!-- Node132&#45;&gt;Node3 -->
<g id="edge167" class="edge">
<title>Node132&#45;&gt;Node3</title>
<path fill="none" stroke="midnightblue" d="M600.04,-917.47C701.37,-884.43 953.42,-802.25 1047.15,-771.69"/>
<polygon fill="midnightblue" stroke="midnightblue" points="1048.32,-774.99 1056.75,-768.56 1046.15,-768.33 1048.32,-774.99"/>
</g>
<!-- Node132&#45;&gt;Node85 -->
<g id="edge168" class="edge">
<title>Node132&#45;&gt;Node85</title>
<path fill="none" stroke="midnightblue" d="M633.04,-920.75C644.73,-919.33 656.68,-918.02 668,-917 974.38,-889.37 1341.14,-877.62 1494.27,-873.67"/>
<polygon fill="midnightblue" stroke="midnightblue" points="1494.58,-877.16 1504.48,-873.41 1494.4,-870.17 1494.58,-877.16"/>
</g>
<!-- Node133&#45;&gt;Node4 -->
<g id="edge170" class="edge">
<title>Node133&#45;&gt;Node4</title>
<path fill="none" stroke="midnightblue" d="M152,-615.46C152,-592.12 152,-543.85 152,-503 152,-503 152,-503 152,-311 152,-205.61 248.87,-211.89 349,-179 439.13,-149.39 1096.88,-137.71 1300.25,-134.78"/>
<polygon fill="midnightblue" stroke="midnightblue" points="1300.49,-138.28 1310.44,-134.64 1300.39,-131.28 1300.49,-138.28"/>
</g>
<!-- Node134 -->
<g id="node50" class="node">
<title>Node134</title>
<g id="a_node50"><a xlink:href="../../de/d89/mat__variables_8h.html" target="_top" xlink:title=" ">
<polygon fill="none" stroke="black" points="196.5,-554 196.5,-573 335.5,-573 335.5,-554 196.5,-554"/>
<text text-anchor="middle" x="266" y="-561" font-family="Helvetica,sans-Serif" font-size="10.00">includes/mat_variables.h</text>
</a>
</g>
</g>
<!-- Node133&#45;&gt;Node134 -->
<g id="edge171" class="edge">
<title>Node133&#45;&gt;Node134</title>
<path fill="none" stroke="midnightblue" d="M176.74,-615.4C196.21,-604.29 223.17,-588.92 242.35,-577.98"/>
<polygon fill="midnightblue" stroke="midnightblue" points="244.13,-581 251.08,-573.01 240.66,-574.92 244.13,-581"/>
</g>
<!-- Node134&#45;&gt;Node4 -->
<g id="edge173" class="edge">
<title>Node134&#45;&gt;Node4</title>
<path fill="none" stroke="midnightblue" d="M261.34,-553.98C251.19,-534.62 228,-485.54 228,-441.5 228,-441.5 228,-441.5 228,-372.5 228,-245.91 317.3,-220.2 437,-179 518.18,-151.06 1108.95,-138.38 1300.34,-134.98"/>
<polygon fill="midnightblue" stroke="midnightblue" points="1300.55,-138.47 1310.49,-134.8 1300.43,-131.48 1300.55,-138.47"/>
</g>
<!-- Node134&#45;&gt;Node14 -->
<g id="edge172" class="edge">
<title>Node134&#45;&gt;Node14</title>
<path fill="none" stroke="midnightblue" d="M256.26,-553.72C222.35,-522.06 112.7,-409.94 134,-302 162.02,-160.02 266.44,-161.29 406,-123 607.18,-67.8 668.74,-124.23 874,-87 905.42,-81.3 911.46,-72 943,-67 1188.29,-28.13 1811.97,-43.56 2060,-31 2123.12,-27.8 2196.8,-22.31 2237.96,-19.08"/>
<polygon fill="midnightblue" stroke="midnightblue" points="2238.25,-22.57 2247.94,-18.29 2237.7,-15.59 2238.25,-22.57"/>
</g>
<!-- Node134&#45;&gt;Node20 -->
<g id="edge175" class="edge">
<title>Node134&#45;&gt;Node20</title>
<path fill="none" stroke="midnightblue" d="M335.69,-556.38C458.57,-545.6 713.77,-523.2 851.33,-511.13"/>
<polygon fill="midnightblue" stroke="midnightblue" points="851.78,-514.61 861.44,-510.25 851.17,-507.63 851.78,-514.61"/>
</g>
<!-- Node134&#45;&gt;Node63 -->
<g id="edge174" class="edge">
<title>Node134&#45;&gt;Node63</title>
<path fill="none" stroke="midnightblue" d="M335.79,-563.23C451.14,-563.11 675.11,-556.88 738,-512 754.98,-499.88 763.48,-476.74 767.56,-460.28"/>
<polygon fill="midnightblue" stroke="midnightblue" points="771.05,-460.68 769.72,-450.17 764.2,-459.21 771.05,-460.68"/>
</g>
<!-- Node134&#45;&gt;Node25 -->
<g id="edge177" class="edge">
<title>Node134&#45;&gt;Node25</title>
<path fill="none" stroke="midnightblue" d="M270.76,-553.69C293.44,-511.69 390.71,-331.6 421.57,-274.46"/>
<polygon fill="midnightblue" stroke="midnightblue" points="424.71,-276.02 426.38,-265.56 418.55,-272.69 424.71,-276.02"/>
</g>
<!-- Node134&#45;&gt;Node29 -->
<g id="edge176" class="edge">
<title>Node134&#45;&gt;Node29</title>
<path fill="none" stroke="midnightblue" d="M265.87,-553.76C265.73,-512.81 270.62,-338.17 361,-246 380.91,-225.7 408.99,-213.55 435.92,-206.28"/>
<polygon fill="midnightblue" stroke="midnightblue" points="436.92,-209.64 445.77,-203.82 435.22,-202.85 436.92,-209.64"/>
</g>
</g>
</svg>
