<?xml version="1.0" encoding="UTF-8" standalone="no"?>
<!DOCTYPE svg PUBLIC "-//W3C//DTD SVG 1.1//EN"
 "http://www.w3.org/Graphics/SVG/1.1/DTD/svg11.dtd">
<!-- Generated by graphviz version 7.1.0 (0)
 -->
<!-- Title: /software/kratos/doxygen/applications/ConstitutiveModelsApplication/custom_laws/constitutive_3D_law.hpp Pages: 1 -->
<svg width="2099pt" height="423pt"
 viewBox="0.00 0.00 2099.00 423.00" xmlns="http://www.w3.org/2000/svg" xmlns:xlink="http://www.w3.org/1999/xlink">
<g id="graph0" class="graph" transform="scale(1 1) rotate(0) translate(4 419)">
<title>/software/kratos/doxygen/applications/ConstitutiveModelsApplication/custom_laws/constitutive_3D_law.hpp</title>
<!-- Node1 -->
<g id="node1" class="node">
<title>Node1</title>
<g id="a_node1"><a xlink:title=" ">
<polygon fill="#999999" stroke="#666666" points="1030,-415 831,-415 831,-363 1030,-363 1030,-415"/>
<text text-anchor="start" x="839" y="-403" font-family="Helvetica,sans-Serif" font-size="10.00">/software/kratos/doxygen</text>
<text text-anchor="start" x="839" y="-392" font-family="Helvetica,sans-Serif" font-size="10.00">/applications/ConstitutiveModels</text>
<text text-anchor="start" x="839" y="-381" font-family="Helvetica,sans-Serif" font-size="10.00">Application/custom_laws/constitutive</text>
<text text-anchor="middle" x="930.5" y="-370" font-family="Helvetica,sans-Serif" font-size="10.00">_3D_law.hpp</text>
</a>
</g>
</g>
<!-- Node2 -->
<g id="node2" class="node">
<title>Node2</title>
<g id="a_node2"><a xlink:href="../../d1/dee/constitutive__3_d__law_8cpp.html" target="_top" xlink:title=" ">
<polygon fill="white" stroke="#666666" points="587,-327 388,-327 388,-275 587,-275 587,-327"/>
<text text-anchor="start" x="396" y="-315" font-family="Helvetica,sans-Serif" font-size="10.00">/software/kratos/doxygen</text>
<text text-anchor="start" x="396" y="-304" font-family="Helvetica,sans-Serif" font-size="10.00">/applications/ConstitutiveModels</text>
<text text-anchor="start" x="396" y="-293" font-family="Helvetica,sans-Serif" font-size="10.00">Application/custom_laws/constitutive</text>
<text text-anchor="middle" x="487.5" y="-282" font-family="Helvetica,sans-Serif" font-size="10.00">_3D_law.cpp</text>
</a>
</g>
</g>
<!-- Node1&#45;&gt;Node2 -->
<g id="edge1" class="edge">
<title>Node1&#45;&gt;Node2</title>
<path fill="none" stroke="#63b8ff" d="M819.42,-369C754.33,-357.54 670.59,-342.25 596.5,-327 593.46,-326.37 590.37,-325.73 587.25,-325.07"/>
<polygon fill="#63b8ff" stroke="#63b8ff" points="818.58,-372.4 829.04,-370.69 819.79,-365.51 818.58,-372.4"/>
</g>
<!-- Node3 -->
<g id="node3" class="node">
<title>Node3</title>
<g id="a_node3"><a xlink:href="../../d0/db0/large__strain__3_d__law_8hpp.html" target="_top" xlink:title=" ">
<polygon fill="white" stroke="#666666" points="1358.5,-327 1158.5,-327 1158.5,-275 1358.5,-275 1358.5,-327"/>
<text text-anchor="start" x="1166.5" y="-315" font-family="Helvetica,sans-Serif" font-size="10.00">/software/kratos/doxygen</text>
<text text-anchor="start" x="1166.5" y="-304" font-family="Helvetica,sans-Serif" font-size="10.00">/applications/ConstitutiveModels</text>
<text text-anchor="start" x="1166.5" y="-293" font-family="Helvetica,sans-Serif" font-size="10.00">Application/custom_laws/large</text>
<text text-anchor="middle" x="1258.5" y="-282" font-family="Helvetica,sans-Serif" font-size="10.00">_strain_laws/large_strain_3D_law.hpp</text>
</a>
</g>
</g>
<!-- Node1&#45;&gt;Node3 -->
<g id="edge2" class="edge">
<title>Node1&#45;&gt;Node3</title>
<path fill="none" stroke="#63b8ff" d="M1038.61,-359.65C1078.23,-349.27 1122.79,-337.58 1161.39,-327.46"/>
<polygon fill="#63b8ff" stroke="#63b8ff" points="1037.83,-356.24 1029.04,-362.16 1039.6,-363.01 1037.83,-356.24"/>
</g>
<!-- Node10 -->
<g id="node10" class="node">
<title>Node10</title>
<g id="a_node10"><a xlink:href="../../db/da4/small__strain__3_d__law_8hpp.html" target="_top" xlink:title=" ">
<polygon fill="white" stroke="#666666" points="807.5,-327 605.5,-327 605.5,-275 807.5,-275 807.5,-327"/>
<text text-anchor="start" x="613.5" y="-315" font-family="Helvetica,sans-Serif" font-size="10.00">/software/kratos/doxygen</text>
<text text-anchor="start" x="613.5" y="-304" font-family="Helvetica,sans-Serif" font-size="10.00">/applications/ConstitutiveModels</text>
<text text-anchor="start" x="613.5" y="-293" font-family="Helvetica,sans-Serif" font-size="10.00">Application/custom_laws/small</text>
<text text-anchor="middle" x="706.5" y="-282" font-family="Helvetica,sans-Serif" font-size="10.00">_strain_laws/small_strain_3D_law.hpp</text>
</a>
</g>
</g>
<!-- Node1&#45;&gt;Node10 -->
<g id="edge11" class="edge">
<title>Node1&#45;&gt;Node10</title>
<path fill="none" stroke="#63b8ff" d="M853.51,-358.44C827.19,-348.34 798.01,-337.13 772.63,-327.39"/>
<polygon fill="#63b8ff" stroke="#63b8ff" points="852.2,-361.69 862.79,-362 854.71,-355.15 852.2,-361.69"/>
</g>
<!-- Node16 -->
<g id="node16" class="node">
<title>Node16</title>
<g id="a_node16"><a xlink:href="../../df/d37/strain__rate__3_d__law_8hpp.html" target="_top" xlink:title=" ">
<polygon fill="white" stroke="#666666" points="1885.5,-327 1699.5,-327 1699.5,-275 1885.5,-275 1885.5,-327"/>
<text text-anchor="start" x="1707.5" y="-315" font-family="Helvetica,sans-Serif" font-size="10.00">/software/kratos/doxygen</text>
<text text-anchor="start" x="1707.5" y="-304" font-family="Helvetica,sans-Serif" font-size="10.00">/applications/ConstitutiveModels</text>
<text text-anchor="start" x="1707.5" y="-293" font-family="Helvetica,sans-Serif" font-size="10.00">Application/custom_laws/strain</text>
<text text-anchor="middle" x="1792.5" y="-282" font-family="Helvetica,sans-Serif" font-size="10.00">_rate_laws/strain_rate_3D_law.hpp</text>
</a>
</g>
</g>
<!-- Node1&#45;&gt;Node16 -->
<g id="edge25" class="edge">
<title>Node1&#45;&gt;Node16</title>
<path fill="none" stroke="#63b8ff" d="M1041.55,-376.92C1213.04,-359.81 1539.21,-327.27 1699.24,-311.3"/>
<polygon fill="#63b8ff" stroke="#63b8ff" points="1041.33,-373.42 1031.73,-377.9 1042.03,-380.39 1041.33,-373.42"/>
</g>
<!-- Node4 -->
<g id="node4" class="node">
<title>Node4</title>
<g id="a_node4"><a xlink:href="../../dc/dfe/large__strain__3_d__law_8cpp.html" target="_top" xlink:title=" ">
<polygon fill="white" stroke="#666666" points="1255,-233.5 1056,-233.5 1056,-181.5 1255,-181.5 1255,-233.5"/>
<text text-anchor="start" x="1064" y="-221.5" font-family="Helvetica,sans-Serif" font-size="10.00">/software/kratos/doxygen</text>
<text text-anchor="start" x="1064" y="-210.5" font-family="Helvetica,sans-Serif" font-size="10.00">/applications/ConstitutiveModels</text>
<text text-anchor="start" x="1064" y="-199.5" font-family="Helvetica,sans-Serif" font-size="10.00">Application/custom_laws/large</text>
<text text-anchor="middle" x="1155.5" y="-188.5" font-family="Helvetica,sans-Serif" font-size="10.00">_strain_laws/large_strain_3D_law.cpp</text>
</a>
</g>
</g>
<!-- Node3&#45;&gt;Node4 -->
<g id="edge3" class="edge">
<title>Node3&#45;&gt;Node4</title>
<path fill="none" stroke="#63b8ff" d="M1221.5,-267.13C1209.17,-256.18 1195.63,-244.15 1184.04,-233.85"/>
<polygon fill="#63b8ff" stroke="#63b8ff" points="1218.88,-269.48 1228.68,-273.51 1223.53,-264.25 1218.88,-269.48"/>
</g>
<!-- Node5 -->
<g id="node5" class="node">
<title>Node5</title>
<g id="a_node5"><a xlink:href="../../d6/d46/large__strain__axisymmetric__2_d__law_8hpp.html" target="_top" xlink:title=" ">
<polygon fill="white" stroke="#666666" points="1679,-239 1468,-239 1468,-176 1679,-176 1679,-239"/>
<text text-anchor="start" x="1476" y="-227" font-family="Helvetica,sans-Serif" font-size="10.00">/software/kratos/doxygen</text>
<text text-anchor="start" x="1476" y="-216" font-family="Helvetica,sans-Serif" font-size="10.00">/applications/ConstitutiveModels</text>
<text text-anchor="start" x="1476" y="-205" font-family="Helvetica,sans-Serif" font-size="10.00">Application/custom_laws/large</text>
<text text-anchor="start" x="1476" y="-194" font-family="Helvetica,sans-Serif" font-size="10.00">_strain_laws/large_strain_axisymmetric</text>
<text text-anchor="middle" x="1573.5" y="-183" font-family="Helvetica,sans-Serif" font-size="10.00">_2D_law.hpp</text>
</a>
</g>
</g>
<!-- Node3&#45;&gt;Node5 -->
<g id="edge4" class="edge">
<title>Node3&#45;&gt;Node5</title>
<path fill="none" stroke="#63b8ff" d="M1357.01,-271.39C1392.2,-261.16 1431.99,-249.61 1467.76,-239.21"/>
<polygon fill="#63b8ff" stroke="#63b8ff" points="1356.33,-267.94 1347.7,-274.09 1358.28,-274.66 1356.33,-267.94"/>
</g>
<!-- Node9 -->
<g id="node9" class="node">
<title>Node9</title>
<g id="a_node9"><a xlink:href="../../d1/d94/large__strain__plane__strain__2_d__law_8hpp.html" target="_top" xlink:title=" ">
<polygon fill="white" stroke="#666666" points="1449.5,-239 1273.5,-239 1273.5,-176 1449.5,-176 1449.5,-239"/>
<text text-anchor="start" x="1281.5" y="-227" font-family="Helvetica,sans-Serif" font-size="10.00">/software/kratos/doxygen</text>
<text text-anchor="start" x="1281.5" y="-216" font-family="Helvetica,sans-Serif" font-size="10.00">/applications/ConstitutiveModels</text>
<text text-anchor="start" x="1281.5" y="-205" font-family="Helvetica,sans-Serif" font-size="10.00">Application/custom_laws/large</text>
<text text-anchor="start" x="1281.5" y="-194" font-family="Helvetica,sans-Serif" font-size="10.00">_strain_laws/large_strain_plane</text>
<text text-anchor="middle" x="1361.5" y="-183" font-family="Helvetica,sans-Serif" font-size="10.00">_strain_2D_law.hpp</text>
</a>
</g>
</g>
<!-- Node3&#45;&gt;Node9 -->
<g id="edge8" class="edge">
<title>Node3&#45;&gt;Node9</title>
<path fill="none" stroke="#63b8ff" d="M1295.51,-267.12C1305.69,-258.08 1316.69,-248.31 1326.74,-239.38"/>
<polygon fill="#63b8ff" stroke="#63b8ff" points="1293.47,-264.25 1288.32,-273.51 1298.12,-269.48 1293.47,-264.25"/>
</g>
<!-- Node6 -->
<g id="node6" class="node">
<title>Node6</title>
<g id="a_node6"><a xlink:href="../../d4/d36/constitutive__models__application_8h.html" target="_top" xlink:title=" ">
<polygon fill="white" stroke="#666666" points="910.5,-140 734.5,-140 734.5,-88 910.5,-88 910.5,-140"/>
<text text-anchor="start" x="742.5" y="-128" font-family="Helvetica,sans-Serif" font-size="10.00">/software/kratos/doxygen</text>
<text text-anchor="start" x="742.5" y="-117" font-family="Helvetica,sans-Serif" font-size="10.00">/applications/ConstitutiveModels</text>
<text text-anchor="start" x="742.5" y="-106" font-family="Helvetica,sans-Serif" font-size="10.00">Application/constitutive_models</text>
<text text-anchor="middle" x="822.5" y="-95" font-family="Helvetica,sans-Serif" font-size="10.00">_application.h</text>
</a>
</g>
</g>
<!-- Node5&#45;&gt;Node6 -->
<g id="edge5" class="edge">
<title>Node5&#45;&gt;Node6</title>
<path fill="none" stroke="#63b8ff" d="M1456.71,-175.85C1219.58,-138.27 1152.95,-177.55 919.5,-140 916.67,-139.54 913.8,-139.04 910.9,-138.51"/>
<polygon fill="#63b8ff" stroke="#63b8ff" points="1455.84,-179.26 1466.27,-177.4 1456.96,-172.35 1455.84,-179.26"/>
</g>
<!-- Node8 -->
<g id="node8" class="node">
<title>Node8</title>
<g id="a_node8"><a xlink:href="../../df/dfa/_constitutive_models_application_2custom__python_2add__custom__constitutive__laws__to__python_8cpp.html" target="_top" xlink:title=" ">
<polygon fill="white" stroke="#666666" points="1152,-140 929,-140 929,-88 1152,-88 1152,-140"/>
<text text-anchor="start" x="937" y="-128" font-family="Helvetica,sans-Serif" font-size="10.00">/software/kratos/doxygen</text>
<text text-anchor="start" x="937" y="-117" font-family="Helvetica,sans-Serif" font-size="10.00">/applications/ConstitutiveModels</text>
<text text-anchor="start" x="937" y="-106" font-family="Helvetica,sans-Serif" font-size="10.00">Application/custom_python/add</text>
<text text-anchor="middle" x="1040.5" y="-95" font-family="Helvetica,sans-Serif" font-size="10.00">_custom_constitutive_laws_to_python.cpp</text>
</a>
</g>
</g>
<!-- Node5&#45;&gt;Node8 -->
<g id="edge7" class="edge">
<title>Node5&#45;&gt;Node8</title>
<path fill="none" stroke="#63b8ff" d="M1456.52,-175.68C1347.74,-153.82 1234.15,-137.98 1152.43,-127.8"/>
<polygon fill="#63b8ff" stroke="#63b8ff" points="1455.73,-179.09 1466.22,-177.65 1457.12,-172.23 1455.73,-179.09"/>
</g>
<!-- Node7 -->
<g id="node7" class="node">
<title>Node7</title>
<g id="a_node7"><a xlink:href="../../d0/dce/constitutive__models__application_8cpp.html" target="_top" xlink:title=" ">
<polygon fill="white" stroke="#666666" points="910.5,-52 734.5,-52 734.5,0 910.5,0 910.5,-52"/>
<text text-anchor="start" x="742.5" y="-40" font-family="Helvetica,sans-Serif" font-size="10.00">/software/kratos/doxygen</text>
<text text-anchor="start" x="742.5" y="-29" font-family="Helvetica,sans-Serif" font-size="10.00">/applications/ConstitutiveModels</text>
<text text-anchor="start" x="742.5" y="-18" font-family="Helvetica,sans-Serif" font-size="10.00">Application/constitutive_models</text>
<text text-anchor="middle" x="822.5" y="-7" font-family="Helvetica,sans-Serif" font-size="10.00">_application.cpp</text>
</a>
</g>
</g>
<!-- Node6&#45;&gt;Node7 -->
<g id="edge6" class="edge">
<title>Node6&#45;&gt;Node7</title>
<path fill="none" stroke="#63b8ff" d="M822.5,-76.26C822.5,-68.24 822.5,-59.92 822.5,-52.45"/>
<polygon fill="#63b8ff" stroke="#63b8ff" points="819,-76.15 822.5,-86.15 826,-76.15 819,-76.15"/>
</g>
<!-- Node9&#45;&gt;Node6 -->
<g id="edge9" class="edge">
<title>Node9&#45;&gt;Node6</title>
<path fill="none" stroke="#63b8ff" d="M1261.97,-175.87C1110.9,-146.02 1067.24,-166.62 919.5,-140 916.68,-139.49 913.81,-138.94 910.93,-138.37"/>
<polygon fill="#63b8ff" stroke="#63b8ff" points="1261.05,-179.26 1271.55,-177.81 1262.44,-172.4 1261.05,-179.26"/>
</g>
<!-- Node9&#45;&gt;Node8 -->
<g id="edge10" class="edge">
<title>Node9&#45;&gt;Node8</title>
<path fill="none" stroke="#63b8ff" d="M1262.12,-175.63C1215.36,-162.04 1173.07,-150.37 1136.48,-140.47"/>
<polygon fill="#63b8ff" stroke="#63b8ff" points="1261.1,-178.98 1271.68,-178.42 1263.06,-172.26 1261.1,-178.98"/>
</g>
<!-- Node11 -->
<g id="node11" class="node">
<title>Node11</title>
<g id="a_node11"><a xlink:href="../../de/dfe/small__strain__3_d__law_8cpp.html" target="_top" xlink:title=" ">
<polygon fill="white" stroke="#666666" points="807,-233.5 606,-233.5 606,-181.5 807,-181.5 807,-233.5"/>
<text text-anchor="start" x="614" y="-221.5" font-family="Helvetica,sans-Serif" font-size="10.00">/software/kratos/doxygen</text>
<text text-anchor="start" x="614" y="-210.5" font-family="Helvetica,sans-Serif" font-size="10.00">/applications/ConstitutiveModels</text>
<text text-anchor="start" x="614" y="-199.5" font-family="Helvetica,sans-Serif" font-size="10.00">Application/custom_laws/small</text>
<text text-anchor="middle" x="706.5" y="-188.5" font-family="Helvetica,sans-Serif" font-size="10.00">_strain_laws/small_strain_3D_law.cpp</text>
</a>
</g>
</g>
<!-- Node10&#45;&gt;Node11 -->
<g id="edge12" class="edge">
<title>Node10&#45;&gt;Node11</title>
<path fill="none" stroke="#63b8ff" d="M706.5,-263.3C706.5,-253.42 706.5,-242.96 706.5,-233.85"/>
<polygon fill="#63b8ff" stroke="#63b8ff" points="703,-263 706.5,-273 710,-263 703,-263"/>
</g>
<!-- Node12 -->
<g id="node12" class="node">
<title>Node12</title>
<g id="a_node12"><a xlink:href="../../dc/d84/small__strain__axisymmetric__2_d__law_8hpp.html" target="_top" xlink:title=" ">
<polygon fill="white" stroke="#666666" points="1038,-239 825,-239 825,-176 1038,-176 1038,-239"/>
<text text-anchor="start" x="833" y="-227" font-family="Helvetica,sans-Serif" font-size="10.00">/software/kratos/doxygen</text>
<text text-anchor="start" x="833" y="-216" font-family="Helvetica,sans-Serif" font-size="10.00">/applications/ConstitutiveModels</text>
<text text-anchor="start" x="833" y="-205" font-family="Helvetica,sans-Serif" font-size="10.00">Application/custom_laws/small</text>
<text text-anchor="start" x="833" y="-194" font-family="Helvetica,sans-Serif" font-size="10.00">_strain_laws/small_strain_axisymmetric</text>
<text text-anchor="middle" x="931.5" y="-183" font-family="Helvetica,sans-Serif" font-size="10.00">_2D_law.hpp</text>
</a>
</g>
</g>
<!-- Node10&#45;&gt;Node12 -->
<g id="edge13" class="edge">
<title>Node10&#45;&gt;Node12</title>
<path fill="none" stroke="#63b8ff" d="M779.75,-270.21C804.03,-260.34 831.09,-249.33 855.57,-239.38"/>
<polygon fill="#63b8ff" stroke="#63b8ff" points="778.52,-266.93 770.58,-273.94 781.16,-273.42 778.52,-266.93"/>
</g>
<!-- Node13 -->
<g id="node13" class="node">
<title>Node13</title>
<g id="a_node13"><a xlink:href="../../da/d3b/small__strain__orthotropic__3_d__law_8hpp.html" target="_top" xlink:title=" ">
<polygon fill="white" stroke="#666666" points="199,-239 0,-239 0,-176 199,-176 199,-239"/>
<text text-anchor="start" x="8" y="-227" font-family="Helvetica,sans-Serif" font-size="10.00">/software/kratos/doxygen</text>
<text text-anchor="start" x="8" y="-216" font-family="Helvetica,sans-Serif" font-size="10.00">/applications/ConstitutiveModels</text>
<text text-anchor="start" x="8" y="-205" font-family="Helvetica,sans-Serif" font-size="10.00">Application/custom_laws/small</text>
<text text-anchor="start" x="8" y="-194" font-family="Helvetica,sans-Serif" font-size="10.00">_strain_laws/small_strain_orthotropic</text>
<text text-anchor="middle" x="99.5" y="-183" font-family="Helvetica,sans-Serif" font-size="10.00">_3D_law.hpp</text>
</a>
</g>
</g>
<!-- Node10&#45;&gt;Node13 -->
<g id="edge16" class="edge">
<title>Node10&#45;&gt;Node13</title>
<path fill="none" stroke="#63b8ff" d="M594.09,-274.9C422.88,-248.88 374.8,-269.74 208.5,-239 205.5,-238.45 202.47,-237.85 199.42,-237.21"/>
<polygon fill="#63b8ff" stroke="#63b8ff" points="593.36,-278.33 603.78,-276.4 594.44,-271.41 593.36,-278.33"/>
</g>
<!-- Node14 -->
<g id="node14" class="node">
<title>Node14</title>
<g id="a_node14"><a xlink:href="../../de/df0/small__strain__plane__strain__2_d__law_8hpp.html" target="_top" xlink:title=" ">
<polygon fill="white" stroke="#666666" points="393.5,-239 217.5,-239 217.5,-176 393.5,-176 393.5,-239"/>
<text text-anchor="start" x="225.5" y="-227" font-family="Helvetica,sans-Serif" font-size="10.00">/software/kratos/doxygen</text>
<text text-anchor="start" x="225.5" y="-216" font-family="Helvetica,sans-Serif" font-size="10.00">/applications/ConstitutiveModels</text>
<text text-anchor="start" x="225.5" y="-205" font-family="Helvetica,sans-Serif" font-size="10.00">Application/custom_laws/small</text>
<text text-anchor="start" x="225.5" y="-194" font-family="Helvetica,sans-Serif" font-size="10.00">_strain_laws/small_strain_plane</text>
<text text-anchor="middle" x="305.5" y="-183" font-family="Helvetica,sans-Serif" font-size="10.00">_strain_2D_law.hpp</text>
</a>
</g>
</g>
<!-- Node10&#45;&gt;Node14 -->
<g id="edge19" class="edge">
<title>Node10&#45;&gt;Node14</title>
<path fill="none" stroke="#63b8ff" d="M594.11,-274.77C508.1,-257.59 483.77,-259.28 402.5,-239 399.67,-238.29 396.81,-237.55 393.92,-236.78"/>
<polygon fill="#63b8ff" stroke="#63b8ff" points="593.23,-278.16 603.72,-276.72 594.62,-271.3 593.23,-278.16"/>
</g>
<!-- Node15 -->
<g id="node15" class="node">
<title>Node15</title>
<g id="a_node15"><a xlink:href="../../d3/d98/small__strain__plane__stress__2_d__law_8hpp.html" target="_top" xlink:title=" ">
<polygon fill="white" stroke="#666666" points="587.5,-239 411.5,-239 411.5,-176 587.5,-176 587.5,-239"/>
<text text-anchor="start" x="419.5" y="-227" font-family="Helvetica,sans-Serif" font-size="10.00">/software/kratos/doxygen</text>
<text text-anchor="start" x="419.5" y="-216" font-family="Helvetica,sans-Serif" font-size="10.00">/applications/ConstitutiveModels</text>
<text text-anchor="start" x="419.5" y="-205" font-family="Helvetica,sans-Serif" font-size="10.00">Application/custom_laws/small</text>
<text text-anchor="start" x="419.5" y="-194" font-family="Helvetica,sans-Serif" font-size="10.00">_strain_laws/small_strain_plane</text>
<text text-anchor="middle" x="499.5" y="-183" font-family="Helvetica,sans-Serif" font-size="10.00">_stress_2D_law.hpp</text>
</a>
</g>
</g>
<!-- Node10&#45;&gt;Node15 -->
<g id="edge22" class="edge">
<title>Node10&#45;&gt;Node15</title>
<path fill="none" stroke="#63b8ff" d="M638.51,-269.95C616.33,-260.14 591.67,-249.24 569.36,-239.38"/>
<polygon fill="#63b8ff" stroke="#63b8ff" points="636.89,-273.06 647.45,-273.9 639.72,-266.66 636.89,-273.06"/>
</g>
<!-- Node12&#45;&gt;Node6 -->
<g id="edge14" class="edge">
<title>Node12&#45;&gt;Node6</title>
<path fill="none" stroke="#63b8ff" d="M885.82,-168.15C874.69,-158.81 863.06,-149.05 852.84,-140.47"/>
<polygon fill="#63b8ff" stroke="#63b8ff" points="883.53,-170.8 893.44,-174.55 888.03,-165.44 883.53,-170.8"/>
</g>
<!-- Node12&#45;&gt;Node8 -->
<g id="edge15" class="edge">
<title>Node12&#45;&gt;Node8</title>
<path fill="none" stroke="#63b8ff" d="M977.18,-168.15C988.31,-158.81 999.94,-149.05 1010.16,-140.47"/>
<polygon fill="#63b8ff" stroke="#63b8ff" points="974.97,-165.44 969.56,-174.55 979.47,-170.8 974.97,-165.44"/>
</g>
<!-- Node13&#45;&gt;Node6 -->
<g id="edge17" class="edge">
<title>Node13&#45;&gt;Node6</title>
<path fill="none" stroke="#63b8ff" d="M210.55,-175.74C402.02,-140.57 616.48,-125.28 734.12,-118.95"/>
<polygon fill="#63b8ff" stroke="#63b8ff" points="210.1,-172.26 200.91,-177.54 211.38,-179.15 210.1,-172.26"/>
</g>
<!-- Node13&#45;&gt;Node8 -->
<g id="edge18" class="edge">
<title>Node13&#45;&gt;Node8</title>
<path fill="none" stroke="#63b8ff" d="M210.59,-175.82C522.8,-126.33 609.33,-179.66 919.5,-140 922.48,-139.62 925.49,-139.21 928.53,-138.76"/>
<polygon fill="#63b8ff" stroke="#63b8ff" points="210.2,-172.33 200.88,-177.38 211.31,-179.25 210.2,-172.33"/>
</g>
<!-- Node14&#45;&gt;Node6 -->
<g id="edge20" class="edge">
<title>Node14&#45;&gt;Node6</title>
<path fill="none" stroke="#63b8ff" d="M404.97,-175.56C523.64,-149.14 651.13,-132.75 734.06,-123.67"/>
<polygon fill="#63b8ff" stroke="#63b8ff" points="404.35,-172.12 395.36,-177.73 405.89,-178.94 404.35,-172.12"/>
</g>
<!-- Node14&#45;&gt;Node8 -->
<g id="edge21" class="edge">
<title>Node14&#45;&gt;Node8</title>
<path fill="none" stroke="#63b8ff" d="M405.05,-175.69C630.87,-134.37 694.99,-170.87 919.5,-140 922.48,-139.59 925.49,-139.15 928.52,-138.69"/>
<polygon fill="#63b8ff" stroke="#63b8ff" points="404.51,-172.23 395.32,-177.51 405.79,-179.12 404.51,-172.23"/>
</g>
<!-- Node15&#45;&gt;Node6 -->
<g id="edge23" class="edge">
<title>Node15&#45;&gt;Node6</title>
<path fill="none" stroke="#63b8ff" d="M598.77,-175.37C648.64,-160.92 695.26,-148.26 734.26,-137.92"/>
<polygon fill="#63b8ff" stroke="#63b8ff" points="597.82,-172.01 589.19,-178.16 599.77,-178.73 597.82,-172.01"/>
</g>
<!-- Node15&#45;&gt;Node8 -->
<g id="edge24" class="edge">
<title>Node15&#45;&gt;Node8</title>
<path fill="none" stroke="#63b8ff" d="M599.07,-175.62C739.88,-147.01 780.46,-162.06 919.5,-140 922.57,-139.51 925.68,-139 928.82,-138.47"/>
<polygon fill="#63b8ff" stroke="#63b8ff" points="598.42,-172.18 589.34,-177.63 599.84,-179.03 598.42,-172.18"/>
</g>
<!-- Node17 -->
<g id="node17" class="node">
<title>Node17</title>
<g id="a_node17"><a xlink:href="../../d8/d96/strain__rate__3_d__law_8cpp.html" target="_top" xlink:title=" ">
<polygon fill="white" stroke="#666666" points="2091,-233.5 1906,-233.5 1906,-181.5 2091,-181.5 2091,-233.5"/>
<text text-anchor="start" x="1914" y="-221.5" font-family="Helvetica,sans-Serif" font-size="10.00">/software/kratos/doxygen</text>
<text text-anchor="start" x="1914" y="-210.5" font-family="Helvetica,sans-Serif" font-size="10.00">/applications/ConstitutiveModels</text>
<text text-anchor="start" x="1914" y="-199.5" font-family="Helvetica,sans-Serif" font-size="10.00">Application/custom_laws/strain</text>
<text text-anchor="middle" x="1998.5" y="-188.5" font-family="Helvetica,sans-Serif" font-size="10.00">_rate_laws/strain_rate_3D_law.cpp</text>
</a>
</g>
</g>
<!-- Node16&#45;&gt;Node17 -->
<g id="edge26" class="edge">
<title>Node16&#45;&gt;Node17</title>
<path fill="none" stroke="#63b8ff" d="M1860.15,-269.95C1886.45,-258.27 1916.24,-245.04 1941.43,-233.85"/>
<polygon fill="#63b8ff" stroke="#63b8ff" points="1858.98,-266.64 1851.27,-273.9 1861.83,-273.04 1858.98,-266.64"/>
</g>
<!-- Node18 -->
<g id="node18" class="node">
<title>Node18</title>
<g id="a_node18"><a xlink:href="../../d1/dad/strain__rate__plane__strain__2_d__law_8hpp.html" target="_top" xlink:title=" ">
<polygon fill="white" stroke="#666666" points="1887.5,-239 1697.5,-239 1697.5,-176 1887.5,-176 1887.5,-239"/>
<text text-anchor="start" x="1705.5" y="-227" font-family="Helvetica,sans-Serif" font-size="10.00">/software/kratos/doxygen</text>
<text text-anchor="start" x="1705.5" y="-216" font-family="Helvetica,sans-Serif" font-size="10.00">/applications/ConstitutiveModels</text>
<text text-anchor="start" x="1705.5" y="-205" font-family="Helvetica,sans-Serif" font-size="10.00">Application/custom_laws/strain</text>
<text text-anchor="start" x="1705.5" y="-194" font-family="Helvetica,sans-Serif" font-size="10.00">_rate_laws/strain_rate_plane_strain</text>
<text text-anchor="middle" x="1792.5" y="-183" font-family="Helvetica,sans-Serif" font-size="10.00">_2D_law.hpp</text>
</a>
</g>
</g>
<!-- Node16&#45;&gt;Node18 -->
<g id="edge27" class="edge">
<title>Node16&#45;&gt;Node18</title>
<path fill="none" stroke="#63b8ff" d="M1792.5,-263.01C1792.5,-255.17 1792.5,-246.97 1792.5,-239.38"/>
<polygon fill="#63b8ff" stroke="#63b8ff" points="1789,-263 1792.5,-273 1796,-263 1789,-263"/>
</g>
<!-- Node18&#45;&gt;Node6 -->
<g id="edge28" class="edge">
<title>Node18&#45;&gt;Node6</title>
<path fill="none" stroke="#63b8ff" d="M1686.06,-175.95C1348.39,-121.46 1253.76,-190.36 919.5,-140 916.66,-139.57 913.79,-139.1 910.89,-138.58"/>
<polygon fill="#63b8ff" stroke="#63b8ff" points="1685.22,-179.36 1695.66,-177.52 1686.36,-172.45 1685.22,-179.36"/>
</g>
<!-- Node18&#45;&gt;Node8 -->
<g id="edge29" class="edge">
<title>Node18&#45;&gt;Node8</title>
<path fill="none" stroke="#63b8ff" d="M1685.94,-175.86C1493.53,-140.04 1279.69,-125.3 1152.45,-119.14"/>
<polygon fill="#63b8ff" stroke="#63b8ff" points="1685.15,-179.27 1695.63,-177.68 1686.45,-172.39 1685.15,-179.27"/>
</g>
</g>
</svg>
