<?xml version="1.0" encoding="UTF-8" standalone="no"?>
<!DOCTYPE svg PUBLIC "-//W3C//DTD SVG 1.1//EN"
 "http://www.w3.org/Graphics/SVG/1.1/DTD/svg11.dtd">
<!-- Generated by graphviz version 7.1.0 (0)
 -->
<!-- Title: /software/kratos/doxygen/applications/CSharpWrapperApplication/external_bindings/model_part_wrapper_external_bindings.cpp Pages: 1 -->
<svg width="3669pt" height="1083pt"
 viewBox="0.00 0.00 3669.00 1083.00" xmlns="http://www.w3.org/2000/svg" xmlns:xlink="http://www.w3.org/1999/xlink">
<g id="graph0" class="graph" transform="scale(1 1) rotate(0) translate(4 1079)">
<title>/software/kratos/doxygen/applications/CSharpWrapperApplication/external_bindings/model_part_wrapper_external_bindings.cpp</title>
<!-- Node1 -->
<g id="node1" class="node">
<title>Node1</title>
<g id="a_node1"><a xlink:title=" ">
<polygon fill="#999999" stroke="#666666" points="3306,-1075 3094,-1075 3094,-1023 3306,-1023 3306,-1075"/>
<text text-anchor="start" x="3102" y="-1063" font-family="Helvetica,sans-Serif" font-size="10.00">/software/kratos/doxygen</text>
<text text-anchor="start" x="3102" y="-1052" font-family="Helvetica,sans-Serif" font-size="10.00">/applications/CSharpWrapperApplication</text>
<text text-anchor="start" x="3102" y="-1041" font-family="Helvetica,sans-Serif" font-size="10.00">/external_bindings/model_part_wrapper</text>
<text text-anchor="middle" x="3200" y="-1030" font-family="Helvetica,sans-Serif" font-size="10.00">_external_bindings.cpp</text>
</a>
</g>
</g>
<!-- Node2 -->
<g id="node2" class="node">
<title>Node2</title>
<g id="a_node2"><a xlink:href="../../d5/d12/model__part__wrapper_8h.html" target="_top" xlink:title=" ">
<polygon fill="white" stroke="#666666" points="3266,-987 3134,-987 3134,-957 3266,-957 3266,-987"/>
<text text-anchor="start" x="3142" y="-975" font-family="Helvetica,sans-Serif" font-size="10.00">custom_includes/model</text>
<text text-anchor="middle" x="3200" y="-964" font-family="Helvetica,sans-Serif" font-size="10.00">_part_wrapper.h</text>
</a>
</g>
</g>
<!-- Node1&#45;&gt;Node2 -->
<g id="edge1" class="edge">
<title>Node1&#45;&gt;Node2</title>
<path fill="none" stroke="#63b8ff" d="M3200,-1022.61C3200,-1014.91 3200,-1006.45 3200,-998.73"/>
<polygon fill="#63b8ff" stroke="#63b8ff" points="3203.5,-998.94 3200,-988.94 3196.5,-998.94 3203.5,-998.94"/>
</g>
<!-- Node3 -->
<g id="node3" class="node">
<title>Node3</title>
<g id="a_node3"><a xlink:title=" ">
<polygon fill="#e0e0e0" stroke="#999999" points="3375.5,-24.5 3328.5,-24.5 3328.5,-5.5 3375.5,-5.5 3375.5,-24.5"/>
<text text-anchor="middle" x="3352" y="-12.5" font-family="Helvetica,sans-Serif" font-size="10.00">vector</text>
</a>
</g>
</g>
<!-- Node2&#45;&gt;Node3 -->
<g id="edge2" class="edge">
<title>Node2&#45;&gt;Node3</title>
<path fill="none" stroke="#63b8ff" d="M3266.49,-963.01C3367.25,-949.03 3547,-915.89 3547,-857.5 3547,-857.5 3547,-857.5 3547,-129.5 3547,-56.36 3443.26,-29.53 3387.12,-20.37"/>
<polygon fill="#63b8ff" stroke="#63b8ff" points="3387.82,-16.94 3377.41,-18.9 3386.77,-23.86 3387.82,-16.94"/>
</g>
<!-- Node4 -->
<g id="node4" class="node">
<title>Node4</title>
<g id="a_node4"><a xlink:href="../../dd/dfe/model__part_8h.html" target="_top" xlink:title=" ">
<polygon fill="white" stroke="#666666" points="2381.5,-866 2256.5,-866 2256.5,-847 2381.5,-847 2381.5,-866"/>
<text text-anchor="middle" x="2319" y="-854" font-family="Helvetica,sans-Serif" font-size="10.00">includes/model_part.h</text>
</a>
</g>
</g>
<!-- Node2&#45;&gt;Node4 -->
<g id="edge3" class="edge">
<title>Node2&#45;&gt;Node4</title>
<path fill="none" stroke="#63b8ff" d="M3133.78,-962.47C2972.81,-941.73 2561.84,-888.79 2393.07,-867.04"/>
<polygon fill="#63b8ff" stroke="#63b8ff" points="2393.69,-863.59 2383.32,-865.79 2392.79,-870.54 2393.69,-863.59"/>
</g>
<!-- Node121 -->
<g id="node45" class="node">
<title>Node121</title>
<g id="a_node45"><a xlink:href="../../df/d19/id__translator_8h.html" target="_top" xlink:title=" ">
<polygon fill="white" stroke="#666666" points="3661,-866 3575,-866 3575,-847 3661,-847 3661,-866"/>
<text text-anchor="middle" x="3618" y="-854" font-family="Helvetica,sans-Serif" font-size="10.00">id_translator.h</text>
</a>
</g>
</g>
<!-- Node2&#45;&gt;Node121 -->
<g id="edge165" class="edge">
<title>Node2&#45;&gt;Node121</title>
<path fill="none" stroke="#63b8ff" d="M3266.27,-967.26C3356.17,-961.28 3511.27,-947.43 3561,-921 3580.58,-910.6 3596.75,-890.65 3606.8,-875.88"/>
<polygon fill="#63b8ff" stroke="#63b8ff" points="3609.71,-877.82 3612.18,-867.52 3603.83,-874.03 3609.71,-877.82"/>
</g>
<!-- Node122 -->
<g id="node46" class="node">
<title>Node122</title>
<g id="a_node46"><a xlink:href="../../d1/d03/mesh__converter_8h.html" target="_top" xlink:title=" ">
<polygon fill="white" stroke="#666666" points="3252,-921 3148,-921 3148,-902 3252,-902 3252,-921"/>
<text text-anchor="middle" x="3200" y="-909" font-family="Helvetica,sans-Serif" font-size="10.00">mesh_converter.h</text>
</a>
</g>
</g>
<!-- Node2&#45;&gt;Node122 -->
<g id="edge167" class="edge">
<title>Node2&#45;&gt;Node122</title>
<path fill="none" stroke="#63b8ff" d="M3200,-956.54C3200,-949.34 3200,-940.53 3200,-932.68"/>
<polygon fill="#63b8ff" stroke="#63b8ff" points="3203.5,-932.69 3200,-922.69 3196.5,-932.69 3203.5,-932.69"/>
</g>
<!-- Node107 -->
<g id="node47" class="node">
<title>Node107</title>
<g id="a_node47"><a xlink:href="../../de/dca/variables_8h.html" target="_top" xlink:title=" ">
<polygon fill="white" stroke="#666666" points="766,-574.5 652,-574.5 652,-555.5 766,-555.5 766,-574.5"/>
<text text-anchor="middle" x="709" y="-562.5" font-family="Helvetica,sans-Serif" font-size="10.00">includes/variables.h</text>
</a>
</g>
</g>
<!-- Node2&#45;&gt;Node107 -->
<g id="edge170" class="edge">
<title>Node2&#45;&gt;Node107</title>
<path fill="none" stroke="#63b8ff" d="M3133.64,-970.18C2820.91,-965.67 1493.05,-939.2 1102,-811 942,-758.55 780.77,-627.95 727.4,-582.17"/>
<polygon fill="#63b8ff" stroke="#63b8ff" points="729.97,-579.77 720.12,-575.87 725.39,-585.06 729.97,-579.77"/>
</g>
<!-- Node5 -->
<g id="node5" class="node">
<title>Node5</title>
<g id="a_node5"><a xlink:title=" ">
<polygon fill="#e0e0e0" stroke="#999999" points="421,-24.5 377,-24.5 377,-5.5 421,-5.5 421,-24.5"/>
<text text-anchor="middle" x="399" y="-12.5" font-family="Helvetica,sans-Serif" font-size="10.00">string</text>
</a>
</g>
</g>
<!-- Node4&#45;&gt;Node5 -->
<g id="edge4" class="edge">
<title>Node4&#45;&gt;Node5</title>
<path fill="none" stroke="#63b8ff" d="M2256.14,-855.71C1925.73,-856.59 397.32,-858.07 192,-811 134.81,-797.89 107.99,-802.33 72,-756 55.57,-734.85 0,-764.1 0,-307.5 0,-307.5 0,-307.5 0,-129.5 0,-95.66 13.38,-84.05 42,-66 95.62,-32.17 287.97,-20.57 365.88,-17.2"/>
<polygon fill="#63b8ff" stroke="#63b8ff" points="365.58,-20.72 375.43,-16.81 365.29,-13.73 365.58,-20.72"/>
</g>
<!-- Node6 -->
<g id="node6" class="node">
<title>Node6</title>
<g id="a_node6"><a xlink:title=" ">
<polygon fill="#e0e0e0" stroke="#999999" points="1497,-24.5 1437,-24.5 1437,-5.5 1497,-5.5 1497,-24.5"/>
<text text-anchor="middle" x="1467" y="-12.5" font-family="Helvetica,sans-Serif" font-size="10.00">iostream</text>
</a>
</g>
</g>
<!-- Node4&#45;&gt;Node6 -->
<g id="edge5" class="edge">
<title>Node4&#45;&gt;Node6</title>
<path fill="none" stroke="#63b8ff" d="M2256.08,-855.84C1892.44,-857.44 76,-859.77 76,-747.5 76,-747.5 76,-747.5 76,-366 76,-153.81 318.78,-259.16 514,-176 630.56,-126.34 653.76,-95.41 777,-66 901.33,-36.33 1295.93,-21.43 1425.4,-17.25"/>
<polygon fill="#63b8ff" stroke="#63b8ff" points="1425.34,-20.76 1435.23,-16.94 1425.12,-13.76 1425.34,-20.76"/>
</g>
<!-- Node7 -->
<g id="node7" class="node">
<title>Node7</title>
<g id="a_node7"><a xlink:title=" ">
<polygon fill="#e0e0e0" stroke="#999999" points="2905,-24.5 2849,-24.5 2849,-5.5 2905,-5.5 2905,-24.5"/>
<text text-anchor="middle" x="2877" y="-12.5" font-family="Helvetica,sans-Serif" font-size="10.00">sstream</text>
</a>
</g>
</g>
<!-- Node4&#45;&gt;Node7 -->
<g id="edge6" class="edge">
<title>Node4&#45;&gt;Node7</title>
<path fill="none" stroke="#63b8ff" d="M2381.88,-856.03C2526.05,-856.43 2891.26,-852.82 3193,-811 3318.54,-793.6 3471,-874.24 3471,-747.5 3471,-747.5 3471,-747.5 3471,-250.5 3471,-111.33 3349.42,-111.78 3218,-66 3113.21,-29.5 2981.29,-19.64 2916.54,-16.98"/>
<polygon fill="#63b8ff" stroke="#63b8ff" points="2916.89,-13.49 2906.76,-16.62 2916.63,-20.49 2916.89,-13.49"/>
</g>
<!-- Node8 -->
<g id="node8" class="node">
<title>Node8</title>
<g id="a_node8"><a xlink:title=" ">
<polygon fill="#e0e0e0" stroke="#999999" points="2846.5,-316 2793.5,-316 2793.5,-297 2846.5,-297 2846.5,-316"/>
<text text-anchor="middle" x="2820" y="-304" font-family="Helvetica,sans-Serif" font-size="10.00">cstddef</text>
</a>
</g>
</g>
<!-- Node4&#45;&gt;Node8 -->
<g id="edge7" class="edge">
<title>Node4&#45;&gt;Node8</title>
<path fill="none" stroke="#63b8ff" d="M2381.81,-852.68C2557.47,-843.94 3041,-813.88 3041,-747.5 3041,-747.5 3041,-747.5 3041,-624.5 3041,-527.16 3025.71,-496.39 2968,-418 2935.75,-374.19 2881.25,-339.92 2848.15,-321.79"/>
<polygon fill="#63b8ff" stroke="#63b8ff" points="2850.02,-318.81 2839.55,-317.19 2846.72,-324.99 2850.02,-318.81"/>
</g>
<!-- Node9 -->
<g id="node9" class="node">
<title>Node9</title>
<g id="a_node9"><a xlink:href="../../df/d67/define_8h.html" target="_top" xlink:title=" ">
<polygon fill="white" stroke="#666666" points="2432.5,-140 2333.5,-140 2333.5,-121 2432.5,-121 2432.5,-140"/>
<text text-anchor="middle" x="2383" y="-128" font-family="Helvetica,sans-Serif" font-size="10.00">includes/define.h</text>
</a>
</g>
</g>
<!-- Node4&#45;&gt;Node9 -->
<g id="edge8" class="edge">
<title>Node4&#45;&gt;Node9</title>
<path fill="none" stroke="#63b8ff" d="M2381.65,-855.14C2596.61,-853.09 3291,-839.34 3291,-747.5 3291,-747.5 3291,-747.5 3291,-498 3291,-357.74 2881.13,-183.21 2859,-176 2783.44,-151.39 2554.63,-138.7 2444.08,-133.87"/>
<polygon fill="#63b8ff" stroke="#63b8ff" points="2444.45,-130.38 2434.31,-133.45 2444.15,-137.37 2444.45,-130.38"/>
</g>
<!-- Node19 -->
<g id="node14" class="node">
<title>Node19</title>
<g id="a_node14"><a xlink:href="../../dd/d5f/serializer_8h.html" target="_top" xlink:title=" ">
<polygon fill="white" stroke="#666666" points="1308.5,-316 1195.5,-316 1195.5,-297 1308.5,-297 1308.5,-316"/>
<text text-anchor="middle" x="1252" y="-304" font-family="Helvetica,sans-Serif" font-size="10.00">includes/serializer.h</text>
</a>
</g>
</g>
<!-- Node4&#45;&gt;Node19 -->
<g id="edge21" class="edge">
<title>Node4&#45;&gt;Node19</title>
<path fill="none" stroke="#63b8ff" d="M2256.19,-854.48C2050.46,-850.89 1404.82,-837.6 1315,-811 1261.61,-795.19 1207,-803.18 1207,-747.5 1207,-747.5 1207,-747.5 1207,-624.5 1207,-510.98 1235.64,-376.84 1247.22,-327.23"/>
<polygon fill="#63b8ff" stroke="#63b8ff" points="1250.57,-328.27 1249.48,-317.73 1243.76,-326.65 1250.57,-328.27"/>
</g>
<!-- Node53 -->
<g id="node25" class="node">
<title>Node53</title>
<g id="a_node25"><a xlink:href="../../d1/d8c/logger_8h.html" target="_top" xlink:title=" ">
<polygon fill="#fff0f0" stroke="red" points="1476,-261 1356,-261 1356,-242 1476,-242 1476,-261"/>
<text text-anchor="middle" x="1416" y="-249" font-family="Helvetica,sans-Serif" font-size="10.00">input_output/logger.h</text>
</a>
</g>
</g>
<!-- Node4&#45;&gt;Node53 -->
<g id="edge160" class="edge">
<title>Node4&#45;&gt;Node53</title>
<path fill="none" stroke="#63b8ff" d="M2256.09,-855.21C2097.39,-853.94 1684.03,-847.15 1552,-811 1492.66,-794.75 1429,-809.02 1429,-747.5 1429,-747.5 1429,-747.5 1429,-624.5 1429,-490.19 1420.43,-328.77 1417.21,-272.78"/>
<polygon fill="#63b8ff" stroke="#63b8ff" points="1420.71,-272.71 1416.63,-262.93 1413.72,-273.12 1420.71,-272.71"/>
</g>
<!-- Node57 -->
<g id="node26" class="node">
<title>Node57</title>
<g id="a_node26"><a xlink:href="../../de/db8/process__info_8h.html" target="_top" xlink:title=" ">
<polygon fill="white" stroke="#666666" points="2592.5,-635 2461.5,-635 2461.5,-616 2592.5,-616 2592.5,-635"/>
<text text-anchor="middle" x="2527" y="-623" font-family="Helvetica,sans-Serif" font-size="10.00">includes/process_info.h</text>
</a>
</g>
</g>
<!-- Node4&#45;&gt;Node57 -->
<g id="edge55" class="edge">
<title>Node4&#45;&gt;Node57</title>
<path fill="none" stroke="#63b8ff" d="M2381.91,-849.53C2440.62,-840.25 2525.12,-816.54 2566,-756 2589.77,-720.8 2560.48,-670.69 2541.24,-644.31"/>
<polygon fill="#63b8ff" stroke="#63b8ff" points="2544.25,-642.49 2535.41,-636.65 2538.68,-646.73 2544.25,-642.49"/>
</g>
<!-- Node58 -->
<g id="node27" class="node">
<title>Node58</title>
<g id="a_node27"><a xlink:href="../../d1/d82/data__value__container_8h.html" target="_top" xlink:title=" ">
<polygon fill="white" stroke="#666666" points="2326.5,-580 2201.5,-580 2201.5,-550 2326.5,-550 2326.5,-580"/>
<text text-anchor="start" x="2209.5" y="-568" font-family="Helvetica,sans-Serif" font-size="10.00">containers/data_value</text>
<text text-anchor="middle" x="2264" y="-557" font-family="Helvetica,sans-Serif" font-size="10.00">_container.h</text>
</a>
</g>
</g>
<!-- Node4&#45;&gt;Node58 -->
<g id="edge86" class="edge">
<title>Node4&#45;&gt;Node58</title>
<path fill="none" stroke="#63b8ff" d="M2283.55,-846.51C2239.77,-833.02 2171,-803.01 2171,-747.5 2171,-747.5 2171,-747.5 2171,-685 2171,-653.19 2171.45,-641.84 2190,-616 2198.63,-603.97 2211.12,-593.96 2223.38,-586.14"/>
<polygon fill="#63b8ff" stroke="#63b8ff" points="2225.01,-589.25 2231.8,-581.11 2221.42,-583.24 2225.01,-589.25"/>
</g>
<!-- Node59 -->
<g id="node28" class="node">
<title>Node59</title>
<g id="a_node28"><a xlink:href="../../da/d89/variable_8h.html" target="_top" xlink:title=" ">
<polygon fill="#fff0f0" stroke="red" points="1173.5,-442.5 1054.5,-442.5 1054.5,-423.5 1173.5,-423.5 1173.5,-442.5"/>
<text text-anchor="middle" x="1114" y="-430.5" font-family="Helvetica,sans-Serif" font-size="10.00">containers/variable.h</text>
</a>
</g>
</g>
<!-- Node4&#45;&gt;Node59 -->
<g id="edge163" class="edge">
<title>Node4&#45;&gt;Node59</title>
<path fill="none" stroke="#63b8ff" d="M2256.07,-854.68C2034.09,-851.56 1295.39,-839.16 1193,-811 1135.95,-795.31 1076,-806.66 1076,-747.5 1076,-747.5 1076,-747.5 1076,-564 1076,-523.2 1093.46,-477.98 1104.71,-453.08"/>
<polygon fill="#63b8ff" stroke="#63b8ff" points="1107.77,-454.79 1108.85,-444.25 1101.44,-451.82 1107.77,-454.79"/>
</g>
<!-- Node60 -->
<g id="node29" class="node">
<title>Node60</title>
<g id="a_node29"><a xlink:href="../../d3/dc3/variable__data_8h.html" target="_top" xlink:title=" ">
<polygon fill="#fff0f0" stroke="red" points="1148,-376.5 1056,-376.5 1056,-357.5 1148,-357.5 1148,-376.5"/>
<text text-anchor="middle" x="1102" y="-364.5" font-family="Helvetica,sans-Serif" font-size="10.00">variable_data.h</text>
</a>
</g>
</g>
<!-- Node4&#45;&gt;Node60 -->
<g id="edge164" class="edge">
<title>Node4&#45;&gt;Node60</title>
<path fill="none" stroke="#63b8ff" d="M2256.15,-854C1903.84,-845.36 190,-800.63 190,-747.5 190,-747.5 190,-747.5 190,-624.5 190,-446.3 843.38,-386 1044.07,-371.68"/>
<polygon fill="#63b8ff" stroke="#63b8ff" points="1044.28,-375.18 1054.01,-370.99 1043.79,-368.19 1044.28,-375.18"/>
</g>
<!-- Node70 -->
<g id="node31" class="node">
<title>Node70</title>
<g id="a_node31"><a xlink:href="../../d8/d3b/mesh_8h.html" target="_top" xlink:title=" ">
<polygon fill="white" stroke="#666666" points="2367,-756 2271,-756 2271,-737 2367,-737 2367,-756"/>
<text text-anchor="middle" x="2319" y="-744" font-family="Helvetica,sans-Serif" font-size="10.00">includes/mesh.h</text>
</a>
</g>
</g>
<!-- Node4&#45;&gt;Node70 -->
<g id="edge87" class="edge">
<title>Node4&#45;&gt;Node70</title>
<path fill="none" stroke="#63b8ff" d="M2319,-846.66C2319,-829.57 2319,-791.61 2319,-767.92"/>
<polygon fill="#63b8ff" stroke="#63b8ff" points="2322.5,-767.97 2319,-757.97 2315.5,-767.97 2322.5,-767.97"/>
</g>
<!-- Node74 -->
<g id="node33" class="node">
<title>Node74</title>
<g id="a_node33"><a xlink:href="../../d2/d58/pointer__vector__map_8h.html" target="_top" xlink:title=" ">
<polygon fill="#fff0f0" stroke="red" points="3146.5,-382 3041.5,-382 3041.5,-352 3146.5,-352 3146.5,-382"/>
<text text-anchor="start" x="3049.5" y="-370" font-family="Helvetica,sans-Serif" font-size="10.00">containers/pointer</text>
<text text-anchor="middle" x="3094" y="-359" font-family="Helvetica,sans-Serif" font-size="10.00">_vector_map.h</text>
</a>
</g>
</g>
<!-- Node4&#45;&gt;Node74 -->
<g id="edge158" class="edge">
<title>Node4&#45;&gt;Node74</title>
<path fill="none" stroke="#63b8ff" d="M2381.83,-853.78C2548.39,-848.94 2992.75,-834 3055,-811 3098.9,-794.78 3139,-794.3 3139,-747.5 3139,-747.5 3139,-747.5 3139,-498 3139,-459.34 3121.01,-417.59 3107.78,-392.12"/>
<polygon fill="#63b8ff" stroke="#63b8ff" points="3111.01,-390.73 3103.18,-383.59 3104.84,-394.05 3111.01,-390.73"/>
</g>
<!-- Node87 -->
<g id="node36" class="node">
<title>Node87</title>
<g id="a_node36"><a xlink:href="../../da/da4/master__slave__constraint_8h.html" target="_top" xlink:title=" ">
<polygon fill="#fff0f0" stroke="red" points="1746,-701 1620,-701 1620,-671 1746,-671 1746,-701"/>
<text text-anchor="start" x="1628" y="-689" font-family="Helvetica,sans-Serif" font-size="10.00">includes/master_slave</text>
<text text-anchor="middle" x="1683" y="-678" font-family="Helvetica,sans-Serif" font-size="10.00">_constraint.h</text>
</a>
</g>
</g>
<!-- Node4&#45;&gt;Node87 -->
<g id="edge162" class="edge">
<title>Node4&#45;&gt;Node87</title>
<path fill="none" stroke="#63b8ff" d="M2256.22,-850.82C2192.24,-845.07 2090.53,-833.22 2005,-811 1900.53,-783.86 1783.61,-733.5 1723.51,-706.04"/>
<polygon fill="#63b8ff" stroke="#63b8ff" points="1725.24,-702.99 1714.69,-701.99 1722.32,-709.35 1725.24,-702.99"/>
</g>
<!-- Node99 -->
<g id="node37" class="node">
<title>Node99</title>
<g id="a_node37"><a xlink:href="../../d0/dac/kratos__flags_8h.html" target="_top" xlink:title=" ">
<polygon fill="white" stroke="#666666" points="1401,-574.5 1273,-574.5 1273,-555.5 1401,-555.5 1401,-574.5"/>
<text text-anchor="middle" x="1337" y="-562.5" font-family="Helvetica,sans-Serif" font-size="10.00">includes/kratos_flags.h</text>
</a>
</g>
</g>
<!-- Node4&#45;&gt;Node99 -->
<g id="edge161" class="edge">
<title>Node4&#45;&gt;Node99</title>
<path fill="none" stroke="#63b8ff" d="M2256.22,-855.82C2026.5,-856.16 1245,-849.81 1245,-747.5 1245,-747.5 1245,-747.5 1245,-685 1245,-640.11 1286.48,-601.85 1313.73,-581.56"/>
<polygon fill="#63b8ff" stroke="#63b8ff" points="1315.7,-584.46 1321.8,-575.8 1311.62,-578.76 1315.7,-584.46"/>
</g>
<!-- Node100 -->
<g id="node38" class="node">
<title>Node100</title>
<g id="a_node38"><a xlink:href="../../d3/dad/geometry__container_8h.html" target="_top" xlink:title=" ">
<polygon fill="white" stroke="#666666" points="2959,-448 2841,-448 2841,-418 2959,-418 2959,-448"/>
<text text-anchor="start" x="2849" y="-436" font-family="Helvetica,sans-Serif" font-size="10.00">containers/geometry</text>
<text text-anchor="middle" x="2900" y="-425" font-family="Helvetica,sans-Serif" font-size="10.00">_container.h</text>
</a>
</g>
</g>
<!-- Node4&#45;&gt;Node100 -->
<g id="edge127" class="edge">
<title>Node4&#45;&gt;Node100</title>
<path fill="none" stroke="#63b8ff" d="M2381.85,-855.19C2519.87,-852.96 2842.01,-838.82 2903,-756 2969.84,-665.24 2929.54,-517.73 2909.4,-459.14"/>
<polygon fill="#63b8ff" stroke="#63b8ff" points="2912.72,-458.02 2906.07,-449.77 2906.12,-460.36 2912.72,-458.02"/>
</g>
<!-- Node101 -->
<g id="node39" class="node">
<title>Node101</title>
<g id="a_node39"><a xlink:href="../../da/d92/pointer__hash__map__set_8h.html" target="_top" xlink:title=" ">
<polygon fill="#fff0f0" stroke="red" points="2126.5,-382 2021.5,-382 2021.5,-352 2126.5,-352 2126.5,-382"/>
<text text-anchor="start" x="2029.5" y="-370" font-family="Helvetica,sans-Serif" font-size="10.00">containers/pointer</text>
<text text-anchor="middle" x="2074" y="-359" font-family="Helvetica,sans-Serif" font-size="10.00">_hash_map_set.h</text>
</a>
</g>
</g>
<!-- Node4&#45;&gt;Node101 -->
<g id="edge159" class="edge">
<title>Node4&#45;&gt;Node101</title>
<path fill="none" stroke="#63b8ff" d="M2259.73,-846.52C2172.3,-831.57 2019,-798.15 2019,-747.5 2019,-747.5 2019,-747.5 2019,-685 2019,-574.91 2051.6,-446.44 2066.6,-393.14"/>
<polygon fill="#63b8ff" stroke="#63b8ff" points="2069.88,-394.41 2069.27,-383.84 2063.15,-392.49 2069.88,-394.41"/>
</g>
<!-- Node102 -->
<g id="node40" class="node">
<title>Node102</title>
<g id="a_node40"><a xlink:href="../../d4/dfe/element_8h.html" target="_top" xlink:title=" ">
<polygon fill="#fff0f0" stroke="red" points="2735,-756 2625,-756 2625,-737 2735,-737 2735,-756"/>
<text text-anchor="middle" x="2680" y="-744" font-family="Helvetica,sans-Serif" font-size="10.00">includes/element.h</text>
</a>
</g>
</g>
<!-- Node4&#45;&gt;Node102 -->
<g id="edge133" class="edge">
<title>Node4&#45;&gt;Node102</title>
<path fill="none" stroke="#63b8ff" d="M2381.58,-852.85C2486.27,-847.76 2687.62,-834.96 2709,-811 2721.05,-797.5 2709.18,-778.15 2697.19,-764.36"/>
<polygon fill="#63b8ff" stroke="#63b8ff" points="2699.98,-762.22 2690.59,-757.33 2694.88,-767.01 2699.98,-762.22"/>
</g>
<!-- Node119 -->
<g id="node42" class="node">
<title>Node119</title>
<g id="a_node42"><a xlink:href="../../d7/d6c/condition_8h.html" target="_top" xlink:title=" ">
<polygon fill="#fff0f0" stroke="red" points="2557,-756 2443,-756 2443,-737 2557,-737 2557,-756"/>
<text text-anchor="middle" x="2500" y="-744" font-family="Helvetica,sans-Serif" font-size="10.00">includes/condition.h</text>
</a>
</g>
</g>
<!-- Node4&#45;&gt;Node119 -->
<g id="edge140" class="edge">
<title>Node4&#45;&gt;Node119</title>
<path fill="none" stroke="#63b8ff" d="M2333.81,-846.66C2364.84,-828.15 2436.93,-785.13 2475.16,-762.32"/>
<polygon fill="#63b8ff" stroke="#63b8ff" points="2476.89,-765.37 2483.68,-757.24 2473.3,-759.35 2476.89,-765.37"/>
</g>
<!-- Node120 -->
<g id="node43" class="node">
<title>Node120</title>
<g id="a_node43"><a xlink:href="../../d8/d75/communicator_8h.html" target="_top" xlink:title=" ">
<polygon fill="white" stroke="#666666" points="2700.5,-811 2561.5,-811 2561.5,-792 2700.5,-792 2700.5,-811"/>
<text text-anchor="middle" x="2631" y="-799" font-family="Helvetica,sans-Serif" font-size="10.00">includes/communicator.h</text>
</a>
</g>
</g>
<!-- Node4&#45;&gt;Node120 -->
<g id="edge143" class="edge">
<title>Node4&#45;&gt;Node120</title>
<path fill="none" stroke="#63b8ff" d="M2371.93,-846.51C2425.8,-837.36 2509.34,-823.17 2566.92,-813.39"/>
<polygon fill="#63b8ff" stroke="#63b8ff" points="2567.31,-816.87 2576.58,-811.74 2566.14,-809.97 2567.31,-816.87"/>
</g>
<!-- Node104 -->
<g id="node44" class="node">
<title>Node104</title>
<g id="a_node44"><a xlink:href="../../dd/d98/table_8h.html" target="_top" xlink:title=" ">
<polygon fill="white" stroke="#666666" points="1535,-508.5 1441,-508.5 1441,-489.5 1535,-489.5 1535,-508.5"/>
<text text-anchor="middle" x="1488" y="-496.5" font-family="Helvetica,sans-Serif" font-size="10.00">includes/table.h</text>
</a>
</g>
</g>
<!-- Node4&#45;&gt;Node104 -->
<g id="edge152" class="edge">
<title>Node4&#45;&gt;Node104</title>
<path fill="none" stroke="#63b8ff" d="M2256,-854.13C2058.9,-849.02 1467,-827.04 1467,-747.5 1467,-747.5 1467,-747.5 1467,-624.5 1467,-587.17 1476.29,-544.4 1482.52,-519.96"/>
<polygon fill="#63b8ff" stroke="#63b8ff" points="1485.86,-521 1485.04,-510.44 1479.1,-519.21 1485.86,-521"/>
</g>
<!-- Node9&#45;&gt;Node7 -->
<g id="edge10" class="edge">
<title>Node9&#45;&gt;Node7</title>
<path fill="none" stroke="#63b8ff" d="M2421.76,-120.59C2513.81,-99.45 2744.76,-46.38 2837.52,-25.07"/>
<polygon fill="#63b8ff" stroke="#63b8ff" points="2838.21,-28.5 2847.17,-22.85 2836.64,-21.68 2838.21,-28.5"/>
</g>
<!-- Node10 -->
<g id="node10" class="node">
<title>Node10</title>
<g id="a_node10"><a xlink:title=" ">
<polygon fill="#e0e0e0" stroke="#999999" points="2121.5,-24.5 2056.5,-24.5 2056.5,-5.5 2121.5,-5.5 2121.5,-24.5"/>
<text text-anchor="middle" x="2089" y="-12.5" font-family="Helvetica,sans-Serif" font-size="10.00">stdexcept</text>
</a>
</g>
</g>
<!-- Node9&#45;&gt;Node10 -->
<g id="edge9" class="edge">
<title>Node9&#45;&gt;Node10</title>
<path fill="none" stroke="#63b8ff" d="M2333.09,-129.88C2254.37,-129.29 2106.92,-123 2074,-85 2061.99,-71.13 2069.15,-49.89 2077.17,-34.64"/>
<polygon fill="#63b8ff" stroke="#63b8ff" points="2080.14,-36.5 2082.14,-26.1 2074.09,-32.98 2080.14,-36.5"/>
</g>
<!-- Node11 -->
<g id="node11" class="node">
<title>Node11</title>
<g id="a_node11"><a xlink:href="../../dc/d25/kratos__export__api_8h.html" target="_top" xlink:title=" ">
<polygon fill="white" stroke="#666666" points="2302,-30 2174,-30 2174,0 2302,0 2302,-30"/>
<text text-anchor="start" x="2182" y="-18" font-family="Helvetica,sans-Serif" font-size="10.00">includes/kratos_export</text>
<text text-anchor="middle" x="2238" y="-7" font-family="Helvetica,sans-Serif" font-size="10.00">_api.h</text>
</a>
</g>
</g>
<!-- Node9&#45;&gt;Node11 -->
<g id="edge11" class="edge">
<title>Node9&#45;&gt;Node11</title>
<path fill="none" stroke="#63b8ff" d="M2371.62,-120.59C2348.9,-102.8 2297.33,-62.44 2265.31,-37.38"/>
<polygon fill="#63b8ff" stroke="#63b8ff" points="2267.67,-34.78 2257.64,-31.37 2263.36,-40.29 2267.67,-34.78"/>
</g>
<!-- Node12 -->
<g id="node12" class="node">
<title>Node12</title>
<g id="a_node12"><a xlink:href="../../d9/dc0/smart__pointers_8h.html" target="_top" xlink:title=" ">
<polygon fill="#fff0f0" stroke="red" points="2022.5,-85 1879.5,-85 1879.5,-66 2022.5,-66 2022.5,-85"/>
<text text-anchor="middle" x="1951" y="-73" font-family="Helvetica,sans-Serif" font-size="10.00">includes/smart_pointers.h</text>
</a>
</g>
</g>
<!-- Node9&#45;&gt;Node12 -->
<g id="edge12" class="edge">
<title>Node9&#45;&gt;Node12</title>
<path fill="none" stroke="#63b8ff" d="M2333.02,-123.37C2259.83,-114.39 2122.59,-97.55 2034.07,-86.69"/>
<polygon fill="#63b8ff" stroke="#63b8ff" points="2034.58,-83.23 2024.22,-85.48 2033.72,-90.18 2034.58,-83.23"/>
</g>
<!-- Node16 -->
<g id="node13" class="node">
<title>Node16</title>
<g id="a_node13"><a xlink:href="../../dd/d2d/exception_8h.html" target="_top" xlink:title=" ">
<polygon fill="#fff0f0" stroke="red" points="2200.5,-85 2083.5,-85 2083.5,-66 2200.5,-66 2200.5,-85"/>
<text text-anchor="middle" x="2142" y="-73" font-family="Helvetica,sans-Serif" font-size="10.00">includes/exception.h</text>
</a>
</g>
</g>
<!-- Node9&#45;&gt;Node16 -->
<g id="edge14" class="edge">
<title>Node9&#45;&gt;Node16</title>
<path fill="none" stroke="#63b8ff" d="M2342.12,-120.51C2301.23,-111.52 2238.19,-97.65 2193.82,-87.9"/>
<polygon fill="#63b8ff" stroke="#63b8ff" points="2194.68,-84.5 2184.16,-85.77 2193.17,-91.34 2194.68,-84.5"/>
</g>
<!-- Node12&#45;&gt;Node6 -->
<g id="edge13" class="edge">
<title>Node12&#45;&gt;Node6</title>
<path fill="none" stroke="#63b8ff" d="M1879.06,-65.81C1776.41,-53.4 1591.2,-31.01 1508.65,-21.03"/>
<polygon fill="#63b8ff" stroke="#63b8ff" points="1509.09,-17.56 1498.75,-19.84 1508.25,-24.51 1509.09,-17.56"/>
</g>
<!-- Node16&#45;&gt;Node3 -->
<g id="edge19" class="edge">
<title>Node16&#45;&gt;Node3</title>
<path fill="none" stroke="#63b8ff" d="M2200.77,-71.66C2414.65,-61.32 3147.88,-25.87 3317,-17.69"/>
<polygon fill="#63b8ff" stroke="#63b8ff" points="3317.08,-21.19 3326.89,-17.21 3316.74,-14.2 3317.08,-21.19"/>
</g>
<!-- Node16&#45;&gt;Node5 -->
<g id="edge16" class="edge">
<title>Node16&#45;&gt;Node5</title>
<path fill="none" stroke="#63b8ff" d="M2083.27,-69.5C2066.41,-68.2 2047.98,-66.91 2031,-66 1388.63,-31.58 602.66,-18.89 432.49,-16.46"/>
<polygon fill="#63b8ff" stroke="#63b8ff" points="432.66,-12.96 422.61,-16.32 432.56,-19.96 432.66,-12.96"/>
</g>
<!-- Node16&#45;&gt;Node6 -->
<g id="edge17" class="edge">
<title>Node16&#45;&gt;Node6</title>
<path fill="none" stroke="#63b8ff" d="M2083.28,-69.41C1949.32,-57.8 1623.82,-29.59 1508.42,-19.59"/>
<polygon fill="#63b8ff" stroke="#63b8ff" points="1509.06,-16.13 1498.79,-18.76 1508.46,-23.11 1509.06,-16.13"/>
</g>
<!-- Node16&#45;&gt;Node7 -->
<g id="edge18" class="edge">
<title>Node16&#45;&gt;Node7</title>
<path fill="none" stroke="#63b8ff" d="M2200.94,-67.43C2205.7,-66.92 2210.43,-66.44 2215,-66 2450.62,-43.39 2734.24,-24.88 2837.21,-18.44"/>
<polygon fill="#63b8ff" stroke="#63b8ff" points="2837.3,-21.94 2847.06,-17.83 2836.87,-14.96 2837.3,-21.94"/>
</g>
<!-- Node16&#45;&gt;Node10 -->
<g id="edge15" class="edge">
<title>Node16&#45;&gt;Node10</title>
<path fill="none" stroke="#63b8ff" d="M2134.18,-65.87C2126.35,-57.23 2114.1,-43.7 2104.33,-32.92"/>
<polygon fill="#63b8ff" stroke="#63b8ff" points="2107.18,-30.85 2097.87,-25.79 2101.99,-35.55 2107.18,-30.85"/>
</g>
<!-- Node16&#45;&gt;Node11 -->
<g id="edge20" class="edge">
<title>Node16&#45;&gt;Node11</title>
<path fill="none" stroke="#63b8ff" d="M2156.58,-65.62C2169.26,-57.89 2188.13,-46.39 2204.51,-36.41"/>
<polygon fill="#63b8ff" stroke="#63b8ff" points="2206.29,-39.42 2213.01,-31.23 2202.65,-33.44 2206.29,-39.42"/>
</g>
<!-- Node19&#45;&gt;Node5 -->
<g id="edge22" class="edge">
<title>Node19&#45;&gt;Node5</title>
<path fill="none" stroke="#63b8ff" d="M1195.05,-302.67C1051.92,-295.35 686.96,-275.38 665,-261 629.24,-237.58 641.73,-212.81 620,-176 605.15,-150.84 600.3,-145.24 584,-121 567.42,-96.35 569.71,-83.91 546,-66 512.09,-40.38 464.2,-27.36 432.41,-21.13"/>
<polygon fill="#63b8ff" stroke="#63b8ff" points="433.44,-17.76 422.97,-19.4 432.18,-24.64 433.44,-17.76"/>
</g>
<!-- Node19&#45;&gt;Node6 -->
<g id="edge24" class="edge">
<title>Node19&#45;&gt;Node6</title>
<path fill="none" stroke="#63b8ff" d="M1268.63,-296.52C1281.48,-288.75 1298.76,-276.35 1309,-261 1326.65,-234.54 1328,-223.81 1328,-192 1328,-192 1328,-192 1328,-129.5 1328,-77.74 1386.55,-45.35 1427.65,-29"/>
<polygon fill="#63b8ff" stroke="#63b8ff" points="1428.68,-32.35 1436.78,-25.53 1426.19,-25.81 1428.68,-32.35"/>
</g>
<!-- Node19&#45;&gt;Node7 -->
<g id="edge29" class="edge">
<title>Node19&#45;&gt;Node7</title>
<path fill="none" stroke="#63b8ff" d="M1308.77,-304.89C1413.03,-302.94 1641.69,-294.8 1831,-261 2055.23,-220.96 2102.94,-175.89 2324,-121 2437.79,-92.75 2466.84,-88.02 2582,-66 2673.22,-48.56 2780.91,-31.09 2837.57,-22.14"/>
<polygon fill="#63b8ff" stroke="#63b8ff" points="2838.03,-25.61 2847.37,-20.6 2836.95,-18.7 2838.03,-25.61"/>
</g>
<!-- Node19&#45;&gt;Node9 -->
<g id="edge31" class="edge">
<title>Node19&#45;&gt;Node9</title>
<path fill="none" stroke="#63b8ff" d="M1308.71,-297.72C1375.47,-288.28 1482.18,-272.24 1521,-261 1541.85,-254.96 1544.92,-247.18 1566,-242 1753.95,-195.78 1812.83,-255.31 2000,-206 2030.77,-197.89 2034.47,-184.97 2065,-176 2071.12,-174.2 2231.28,-152.2 2321.91,-139.82"/>
<polygon fill="#63b8ff" stroke="#63b8ff" points="2322.21,-143.31 2331.64,-138.49 2321.26,-136.38 2322.21,-143.31"/>
</g>
<!-- Node20 -->
<g id="node15" class="node">
<title>Node20</title>
<g id="a_node15"><a xlink:title=" ">
<polygon fill="#e0e0e0" stroke="#999999" points="1300,-261 1250,-261 1250,-242 1300,-242 1300,-261"/>
<text text-anchor="middle" x="1275" y="-249" font-family="Helvetica,sans-Serif" font-size="10.00">cstring</text>
</a>
</g>
</g>
<!-- Node19&#45;&gt;Node20 -->
<g id="edge23" class="edge">
<title>Node19&#45;&gt;Node20</title>
<path fill="none" stroke="#63b8ff" d="M1255.8,-296.75C1258.74,-289.96 1262.94,-280.3 1266.65,-271.73"/>
<polygon fill="#63b8ff" stroke="#63b8ff" points="1269.75,-273.4 1270.52,-262.83 1263.33,-270.61 1269.75,-273.4"/>
</g>
<!-- Node21 -->
<g id="node16" class="node">
<title>Node21</title>
<g id="a_node16"><a xlink:title=" ">
<polygon fill="#e0e0e0" stroke="#999999" points="928,-261 890,-261 890,-242 928,-242 928,-261"/>
<text text-anchor="middle" x="909" y="-249" font-family="Helvetica,sans-Serif" font-size="10.00">map</text>
</a>
</g>
</g>
<!-- Node19&#45;&gt;Node21 -->
<g id="edge25" class="edge">
<title>Node19&#45;&gt;Node21</title>
<path fill="none" stroke="#63b8ff" d="M1195.36,-296.75C1121.99,-285.41 996.73,-266.06 939.34,-257.19"/>
<polygon fill="#63b8ff" stroke="#63b8ff" points="940.08,-253.76 929.66,-255.69 939.01,-260.68 940.08,-253.76"/>
</g>
<!-- Node22 -->
<g id="node17" class="node">
<title>Node22</title>
<g id="a_node17"><a xlink:title=" ">
<polygon fill="#e0e0e0" stroke="#999999" points="1822.5,-261 1729.5,-261 1729.5,-242 1822.5,-242 1822.5,-261"/>
<text text-anchor="middle" x="1776" y="-249" font-family="Helvetica,sans-Serif" font-size="10.00">unordered_map</text>
</a>
</g>
</g>
<!-- Node19&#45;&gt;Node22 -->
<g id="edge26" class="edge">
<title>Node19&#45;&gt;Node22</title>
<path fill="none" stroke="#63b8ff" d="M1308.66,-301.14C1394.72,-294.29 1563.8,-279.95 1718.19,-261.15"/>
<polygon fill="#63b8ff" stroke="#63b8ff" points="1718.27,-264.67 1727.77,-259.98 1717.42,-257.72 1718.27,-264.67"/>
</g>
<!-- Node23 -->
<g id="node18" class="node">
<title>Node23</title>
<g id="a_node18"><a xlink:title=" ">
<polygon fill="#e0e0e0" stroke="#999999" points="1054,-261 1022,-261 1022,-242 1054,-242 1054,-261"/>
<text text-anchor="middle" x="1038" y="-249" font-family="Helvetica,sans-Serif" font-size="10.00">set</text>
</a>
</g>
</g>
<!-- Node19&#45;&gt;Node23 -->
<g id="edge27" class="edge">
<title>Node19&#45;&gt;Node23</title>
<path fill="none" stroke="#63b8ff" d="M1208.53,-296.51C1172.43,-288.77 1119.54,-276.8 1065.21,-261.43"/>
<polygon fill="#63b8ff" stroke="#63b8ff" points="1066.37,-258.11 1055.79,-258.72 1064.44,-264.84 1066.37,-258.11"/>
</g>
<!-- Node24 -->
<g id="node19" class="node">
<title>Node24</title>
<g id="a_node19"><a xlink:title=" ">
<polygon fill="#e0e0e0" stroke="#999999" points="1158,-261 1072,-261 1072,-242 1158,-242 1158,-261"/>
<text text-anchor="middle" x="1115" y="-249" font-family="Helvetica,sans-Serif" font-size="10.00">unordered_set</text>
</a>
</g>
</g>
<!-- Node19&#45;&gt;Node24 -->
<g id="edge28" class="edge">
<title>Node19&#45;&gt;Node24</title>
<path fill="none" stroke="#63b8ff" d="M1228.76,-296.51C1206.68,-287.97 1173.25,-275.03 1148.33,-265.4"/>
<polygon fill="#63b8ff" stroke="#63b8ff" points="1149.9,-262.25 1139.31,-261.9 1147.37,-268.78 1149.9,-262.25"/>
</g>
<!-- Node25 -->
<g id="node20" class="node">
<title>Node25</title>
<g id="a_node20"><a xlink:title=" ">
<polygon fill="#e0e0e0" stroke="#999999" points="1231.5,-261 1176.5,-261 1176.5,-242 1231.5,-242 1231.5,-261"/>
<text text-anchor="middle" x="1204" y="-249" font-family="Helvetica,sans-Serif" font-size="10.00">fstream</text>
</a>
</g>
</g>
<!-- Node19&#45;&gt;Node25 -->
<g id="edge30" class="edge">
<title>Node19&#45;&gt;Node25</title>
<path fill="none" stroke="#63b8ff" d="M1244.07,-296.75C1237.44,-289.43 1227.78,-278.76 1219.61,-269.74"/>
<polygon fill="#63b8ff" stroke="#63b8ff" points="1222.42,-267.63 1213.11,-262.56 1217.23,-272.33 1222.42,-267.63"/>
</g>
<!-- Node26 -->
<g id="node21" class="node">
<title>Node26</title>
<g id="a_node21"><a xlink:href="../../d9/da0/flags_8h.html" target="_top" xlink:title=" ">
<polygon fill="white" stroke="#666666" points="1711.5,-261 1608.5,-261 1608.5,-242 1711.5,-242 1711.5,-261"/>
<text text-anchor="middle" x="1660" y="-249" font-family="Helvetica,sans-Serif" font-size="10.00">containers/flags.h</text>
</a>
</g>
</g>
<!-- Node19&#45;&gt;Node26 -->
<g id="edge32" class="edge">
<title>Node19&#45;&gt;Node26</title>
<path fill="none" stroke="#63b8ff" d="M1308.73,-298.13C1384.49,-288.29 1518.26,-270.91 1597.05,-260.68"/>
<polygon fill="#63b8ff" stroke="#63b8ff" points="1597.3,-264.17 1606.76,-259.42 1596.39,-257.23 1597.3,-264.17"/>
</g>
<!-- Node27 -->
<g id="node22" class="node">
<title>Node27</title>
<g id="a_node22"><a xlink:href="../../d9/d3e/ublas__interface_8h.html" target="_top" xlink:title=" ">
<polygon fill="#fff0f0" stroke="red" points="932,-200.5 788,-200.5 788,-181.5 932,-181.5 932,-200.5"/>
<text text-anchor="middle" x="860" y="-188.5" font-family="Helvetica,sans-Serif" font-size="10.00">includes/ublas_interface.h</text>
</a>
</g>
</g>
<!-- Node19&#45;&gt;Node27 -->
<g id="edge36" class="edge">
<title>Node19&#45;&gt;Node27</title>
<path fill="none" stroke="#63b8ff" d="M1195.05,-298.81C1146.04,-292.13 1073.81,-280.07 1013,-261 966.69,-246.48 915.88,-221.65 886.03,-206.07"/>
<polygon fill="#63b8ff" stroke="#63b8ff" points="887.84,-203.07 877.36,-201.49 884.57,-209.26 887.84,-203.07"/>
</g>
<!-- Node43 -->
<g id="node23" class="node">
<title>Node43</title>
<g id="a_node23"><a xlink:href="../../d9/d36/array__1d_8h.html" target="_top" xlink:title=" ">
<polygon fill="#fff0f0" stroke="red" points="796,-261 674,-261 674,-242 796,-242 796,-261"/>
<text text-anchor="middle" x="735" y="-249" font-family="Helvetica,sans-Serif" font-size="10.00">containers/array_1d.h</text>
</a>
</g>
</g>
<!-- Node19&#45;&gt;Node43 -->
<g id="edge40" class="edge">
<title>Node19&#45;&gt;Node43</title>
<path fill="none" stroke="#63b8ff" d="M1195.19,-299.68C1100.76,-290 911.61,-270.6 807.62,-259.94"/>
<polygon fill="#63b8ff" stroke="#63b8ff" points="808.11,-256.48 797.8,-258.94 807.39,-263.44 808.11,-256.48"/>
</g>
<!-- Node49 -->
<g id="node24" class="node">
<title>Node49</title>
<g id="a_node24"><a xlink:href="../../d5/d10/weak__pointer__vector_8h.html" target="_top" xlink:title=" ">
<polygon fill="#fff0f0" stroke="red" points="1936.5,-206 1799.5,-206 1799.5,-176 1936.5,-176 1936.5,-206"/>
<text text-anchor="start" x="1807.5" y="-194" font-family="Helvetica,sans-Serif" font-size="10.00">containers/weak_pointer</text>
<text text-anchor="middle" x="1868" y="-183" font-family="Helvetica,sans-Serif" font-size="10.00">_vector.h</text>
</a>
</g>
</g>
<!-- Node19&#45;&gt;Node49 -->
<g id="edge45" class="edge">
<title>Node19&#45;&gt;Node49</title>
<path fill="none" stroke="#63b8ff" d="M1308.91,-298.32C1356.64,-291.43 1426.23,-279.34 1485,-261 1504.95,-254.78 1507.93,-247.79 1528,-242 1614.88,-216.92 1718.06,-204.01 1787.79,-197.65"/>
<polygon fill="#63b8ff" stroke="#63b8ff" points="1787.95,-201.15 1797.61,-196.78 1787.34,-194.18 1787.95,-201.15"/>
</g>
<!-- Node19&#45;&gt;Node53 -->
<g id="edge51" class="edge">
<title>Node19&#45;&gt;Node53</title>
<path fill="none" stroke="#63b8ff" d="M1279.82,-296.51C1306.64,-287.84 1347.46,-274.65 1377.42,-264.97"/>
<polygon fill="#63b8ff" stroke="#63b8ff" points="1378.44,-268.32 1386.88,-261.91 1376.29,-261.66 1378.44,-268.32"/>
</g>
<!-- Node26&#45;&gt;Node5 -->
<g id="edge33" class="edge">
<title>Node26&#45;&gt;Node5</title>
<path fill="none" stroke="#63b8ff" d="M1619,-241.52C1468.25,-208.58 944.65,-94.74 776,-66 649.78,-44.49 498.45,-26.88 432.48,-19.6"/>
<polygon fill="#63b8ff" stroke="#63b8ff" points="433.01,-16.14 422.69,-18.53 432.25,-23.09 433.01,-16.14"/>
</g>
<!-- Node26&#45;&gt;Node6 -->
<g id="edge34" class="edge">
<title>Node26&#45;&gt;Node6</title>
<path fill="none" stroke="#63b8ff" d="M1608.13,-247.26C1572.12,-242.69 1524.74,-231.81 1491,-206 1439.79,-166.83 1444.23,-129.87 1453,-66 1454.42,-55.69 1457.4,-44.52 1460.25,-35.35"/>
<polygon fill="#63b8ff" stroke="#63b8ff" points="1463.48,-36.73 1463.3,-26.13 1456.84,-34.53 1463.48,-36.73"/>
</g>
<!-- Node26&#45;&gt;Node9 -->
<g id="edge35" class="edge">
<title>Node26&#45;&gt;Node9</title>
<path fill="none" stroke="#63b8ff" d="M1711.69,-243.03C1714.5,-242.67 1717.28,-242.32 1720,-242 1885.38,-222.31 1935.3,-259.56 2093,-206 2116.82,-197.91 2117.55,-185.1 2141,-176 2173.22,-163.49 2261.4,-149.02 2321.92,-140.06"/>
<polygon fill="#63b8ff" stroke="#63b8ff" points="2322.37,-143.53 2331.76,-138.62 2321.36,-136.6 2322.37,-143.53"/>
</g>
<!-- Node27&#45;&gt;Node5 -->
<g id="edge37" class="edge">
<title>Node27&#45;&gt;Node5</title>
<path fill="none" stroke="#63b8ff" d="M851.86,-181.32C829.67,-158.25 765.25,-95.19 698,-66 607.63,-26.78 489.56,-18.18 432.61,-16.39"/>
<polygon fill="#63b8ff" stroke="#63b8ff" points="433.02,-12.9 422.93,-16.15 432.84,-19.9 433.02,-12.9"/>
</g>
<!-- Node27&#45;&gt;Node6 -->
<g id="edge38" class="edge">
<title>Node27&#45;&gt;Node6</title>
<path fill="none" stroke="#63b8ff" d="M876.46,-181.03C919.33,-158.09 1038.5,-96.88 1145,-66 1243.26,-37.51 1363.38,-24.32 1425.44,-19.03"/>
<polygon fill="#63b8ff" stroke="#63b8ff" points="1425.51,-22.54 1435.19,-18.23 1424.94,-15.56 1425.51,-22.54"/>
</g>
<!-- Node27&#45;&gt;Node9 -->
<g id="edge39" class="edge">
<title>Node27&#45;&gt;Node9</title>
<path fill="none" stroke="#63b8ff" d="M932.43,-187.22C1193,-177.21 2080.01,-143.14 2321.73,-133.85"/>
<polygon fill="#63b8ff" stroke="#63b8ff" points="2321.71,-137.36 2331.57,-133.48 2321.45,-130.36 2321.71,-137.36"/>
</g>
<!-- Node43&#45;&gt;Node5 -->
<g id="edge41" class="edge">
<title>Node43&#45;&gt;Node5</title>
<path fill="none" stroke="#63b8ff" d="M731.37,-241.51C722.06,-219.21 695.53,-160.33 660,-121 598.84,-53.3 487.98,-28.49 432.5,-20.03"/>
<polygon fill="#63b8ff" stroke="#63b8ff" points="433.12,-16.58 422.73,-18.63 432.13,-23.51 433.12,-16.58"/>
</g>
<!-- Node43&#45;&gt;Node6 -->
<g id="edge42" class="edge">
<title>Node43&#45;&gt;Node6</title>
<path fill="none" stroke="#63b8ff" d="M737.88,-241.83C743.43,-226.42 757.02,-194.21 779,-176 889.98,-84.08 943.96,-99.97 1084,-66 1206.23,-36.35 1354.94,-23.31 1425.72,-18.45"/>
<polygon fill="#63b8ff" stroke="#63b8ff" points="1425.54,-21.97 1435.29,-17.82 1425.08,-14.99 1425.54,-21.97"/>
</g>
<!-- Node43&#45;&gt;Node9 -->
<g id="edge43" class="edge">
<title>Node43&#45;&gt;Node9</title>
<path fill="none" stroke="#63b8ff" d="M796.43,-246.59C822.5,-245.02 853.23,-243.28 881,-242 1117.33,-231.12 1712.78,-251.21 1945,-206 1983.09,-198.58 1989.28,-185.1 2027,-176 2154.11,-145.34 2189.3,-156.61 2319,-140 2320,-139.87 2321,-139.74 2322.02,-139.61"/>
<polygon fill="#63b8ff" stroke="#63b8ff" points="2322.08,-143.13 2331.54,-138.38 2321.18,-136.19 2322.08,-143.13"/>
</g>
<!-- Node43&#45;&gt;Node27 -->
<g id="edge44" class="edge">
<title>Node43&#45;&gt;Node27</title>
<path fill="none" stroke="#63b8ff" d="M753.98,-241.62C774.36,-232.08 806.98,-216.81 830.66,-205.73"/>
<polygon fill="#63b8ff" stroke="#63b8ff" points="831.89,-209.02 839.47,-201.61 828.92,-202.68 831.89,-209.02"/>
</g>
<!-- Node49&#45;&gt;Node3 -->
<g id="edge49" class="edge">
<title>Node49&#45;&gt;Node3</title>
<path fill="none" stroke="#63b8ff" d="M1936.76,-176.72C1938.19,-176.47 1939.6,-176.23 1941,-176 2110.6,-147.57 2153.31,-141.96 2324,-121 2712.51,-73.28 3185.52,-30.63 3316.77,-19.07"/>
<polygon fill="#63b8ff" stroke="#63b8ff" points="3316.89,-22.58 3326.54,-18.21 3316.28,-15.6 3316.89,-22.58"/>
</g>
<!-- Node49&#45;&gt;Node5 -->
<g id="edge46" class="edge">
<title>Node49&#45;&gt;Node5</title>
<path fill="none" stroke="#63b8ff" d="M1799.25,-177.64C1660,-153.02 1334.46,-97.5 1059,-66 819.78,-38.65 529.99,-22.57 432.69,-17.64"/>
<polygon fill="#63b8ff" stroke="#63b8ff" points="432.95,-14.15 422.79,-17.14 432.6,-21.14 432.95,-14.15"/>
</g>
<!-- Node49&#45;&gt;Node6 -->
<g id="edge47" class="edge">
<title>Node49&#45;&gt;Node6</title>
<path fill="none" stroke="#63b8ff" d="M1862.89,-175.65C1852.65,-149.14 1826.92,-92.78 1785,-66 1739.9,-37.19 1584.32,-23.5 1508.79,-18.44"/>
<polygon fill="#63b8ff" stroke="#63b8ff" points="1509.1,-14.95 1498.9,-17.79 1508.65,-21.93 1509.1,-14.95"/>
</g>
<!-- Node49&#45;&gt;Node7 -->
<g id="edge48" class="edge">
<title>Node49&#45;&gt;Node7</title>
<path fill="none" stroke="#63b8ff" d="M1911.61,-175.57C1992.78,-149.31 2172.97,-93.89 2329,-66 2517.33,-32.34 2746.35,-20.74 2837.16,-17.29"/>
<polygon fill="#63b8ff" stroke="#63b8ff" points="2837.16,-20.79 2847.02,-16.93 2836.9,-13.8 2837.16,-20.79"/>
</g>
<!-- Node49&#45;&gt;Node9 -->
<g id="edge50" class="edge">
<title>Node49&#45;&gt;Node9</title>
<path fill="none" stroke="#63b8ff" d="M1936.79,-178.02C1941.59,-177.3 1946.36,-176.62 1951,-176 2113.9,-154.32 2155.74,-158.82 2319,-140 2320,-139.88 2321.01,-139.77 2322.02,-139.65"/>
<polygon fill="#63b8ff" stroke="#63b8ff" points="2322.05,-143.17 2331.56,-138.49 2321.21,-136.22 2322.05,-143.17"/>
</g>
<!-- Node53&#45;&gt;Node5 -->
<g id="edge52" class="edge">
<title>Node53&#45;&gt;Node5</title>
<path fill="none" stroke="#63b8ff" d="M1355.74,-245.1C1294.86,-238.81 1198.41,-226.57 1117,-206 939.66,-161.2 907.29,-110.99 730,-66 623.28,-38.92 493.24,-24.54 432.84,-18.89"/>
<polygon fill="#63b8ff" stroke="#63b8ff" points="433.16,-15.4 422.89,-17.98 432.53,-22.38 433.16,-15.4"/>
</g>
<!-- Node53&#45;&gt;Node6 -->
<g id="edge53" class="edge">
<title>Node53&#45;&gt;Node6</title>
<path fill="none" stroke="#63b8ff" d="M1413.56,-241.56C1406.54,-214.01 1388.4,-128.48 1415,-66 1420.92,-52.1 1432.81,-40.19 1443.73,-31.49"/>
<polygon fill="#63b8ff" stroke="#63b8ff" points="1445.73,-34.36 1451.68,-25.6 1441.56,-28.74 1445.73,-34.36"/>
</g>
<!-- Node53&#45;&gt;Node16 -->
<g id="edge54" class="edge">
<title>Node53&#45;&gt;Node16</title>
<path fill="none" stroke="#63b8ff" d="M1453.5,-241.51C1575.09,-212.37 1958.3,-120.53 2093.88,-88.03"/>
<polygon fill="#63b8ff" stroke="#63b8ff" points="2094.34,-91.52 2103.25,-85.79 2092.71,-84.71 2094.34,-91.52"/>
</g>
<!-- Node57&#45;&gt;Node5 -->
<g id="edge56" class="edge">
<title>Node57&#45;&gt;Node5</title>
<path fill="none" stroke="#63b8ff" d="M2461.41,-621.17C2425.06,-619.42 2379.03,-617.36 2338,-616 1961.45,-603.54 1016.3,-630.85 643,-580 525.3,-563.97 483.44,-578.99 384,-514 310.17,-465.75 152,-280.19 152,-192 152,-192 152,-192 152,-129.5 152,-36.68 297.81,-19.49 365.37,-16.51"/>
<polygon fill="#63b8ff" stroke="#63b8ff" points="365.26,-20.01 375.13,-16.16 365.02,-13.02 365.26,-20.01"/>
</g>
<!-- Node57&#45;&gt;Node6 -->
<g id="edge57" class="edge">
<title>Node57&#45;&gt;Node6</title>
<path fill="none" stroke="#63b8ff" d="M2526.68,-615.53C2525.08,-573.77 2516.84,-398.52 2490,-352 2450.1,-282.85 2422.7,-270.16 2348,-242 2226.75,-196.3 1874.67,-276.58 1766,-206 1707.15,-167.78 1748.7,-108.69 1693,-66 1664.5,-44.16 1565.68,-28.45 1508.59,-20.95"/>
<polygon fill="#63b8ff" stroke="#63b8ff" points="1509.29,-17.51 1498.92,-19.71 1508.39,-24.45 1509.29,-17.51"/>
</g>
<!-- Node57&#45;&gt;Node7 -->
<g id="edge58" class="edge">
<title>Node57&#45;&gt;Node7</title>
<path fill="none" stroke="#63b8ff" d="M2569.56,-615.57C2702.95,-586.59 3108.01,-490.74 3176,-382 3224.6,-304.28 3233.64,-254.31 3186,-176 3126.49,-78.18 2985.72,-37.5 2916.64,-22.97"/>
<polygon fill="#63b8ff" stroke="#63b8ff" points="2917.37,-19.55 2906.88,-21.01 2915.99,-26.41 2917.37,-19.55"/>
</g>
<!-- Node57&#45;&gt;Node8 -->
<g id="edge59" class="edge">
<title>Node57&#45;&gt;Node8</title>
<path fill="none" stroke="#63b8ff" d="M2535.01,-615.65C2561.32,-586.67 2647.69,-492.27 2723,-418 2739.8,-401.44 2746.03,-399.36 2762,-382 2778.93,-363.59 2796.28,-340.66 2807.54,-325.14"/>
<polygon fill="#63b8ff" stroke="#63b8ff" points="2810.13,-327.53 2813.11,-317.36 2804.44,-323.45 2810.13,-327.53"/>
</g>
<!-- Node57&#45;&gt;Node9 -->
<g id="edge60" class="edge">
<title>Node57&#45;&gt;Node9</title>
<path fill="none" stroke="#63b8ff" d="M2528.62,-615.55C2539.37,-555.42 2599.33,-211.82 2571,-176 2555.3,-156.15 2492.79,-144.24 2444.1,-137.81"/>
<polygon fill="#63b8ff" stroke="#63b8ff" points="2444.55,-134.34 2434.19,-136.55 2443.68,-141.28 2444.55,-134.34"/>
</g>
<!-- Node57&#45;&gt;Node26 -->
<g id="edge85" class="edge">
<title>Node57&#45;&gt;Node26</title>
<path fill="none" stroke="#63b8ff" d="M2506.29,-615.51C2427.07,-581.14 2135.63,-454.82 1895,-352 1822.32,-320.95 1736.83,-284.86 1691.67,-265.83"/>
<polygon fill="#63b8ff" stroke="#63b8ff" points="1693.05,-262.62 1682.48,-261.96 1690.34,-269.07 1693.05,-262.62"/>
</g>
<!-- Node57&#45;&gt;Node58 -->
<g id="edge61" class="edge">
<title>Node57&#45;&gt;Node58</title>
<path fill="none" stroke="#63b8ff" d="M2486.77,-615.55C2447.25,-606.76 2386.04,-593.15 2337.78,-582.41"/>
<polygon fill="#63b8ff" stroke="#63b8ff" points="2338.75,-579.04 2328.23,-580.29 2337.23,-585.87 2338.75,-579.04"/>
</g>
<!-- Node58&#45;&gt;Node3 -->
<g id="edge65" class="edge">
<title>Node58&#45;&gt;Node3</title>
<path fill="none" stroke="#63b8ff" d="M2326.91,-557.81C2408.54,-549.46 2555.29,-533.39 2680,-514 2750.2,-503.09 2767.05,-496.38 2837,-484 2934.99,-466.66 2964.04,-480.79 3058,-448 3218.44,-392.02 3278.04,-358 3354,-206 3382.07,-149.83 3385.4,-127.56 3373,-66 3370.86,-55.36 3366.38,-44.16 3362.11,-35.06"/>
<polygon fill="#63b8ff" stroke="#63b8ff" points="3365.29,-33.59 3357.68,-26.22 3359.03,-36.73 3365.29,-33.59"/>
</g>
<!-- Node58&#45;&gt;Node5 -->
<g id="edge62" class="edge">
<title>Node58&#45;&gt;Node5</title>
<path fill="none" stroke="#63b8ff" d="M2201.26,-562.74C1903.47,-556.71 643.76,-530.31 562,-514 481.3,-497.9 459.59,-490.29 389,-448 327.19,-410.97 190,-264.06 190,-192 190,-192 190,-192 190,-129.5 190,-50.7 306.16,-26.31 365.28,-19"/>
<polygon fill="#63b8ff" stroke="#63b8ff" points="365.58,-22.49 375.13,-17.89 364.8,-15.53 365.58,-22.49"/>
</g>
<!-- Node58&#45;&gt;Node6 -->
<g id="edge63" class="edge">
<title>Node58&#45;&gt;Node6</title>
<path fill="none" stroke="#63b8ff" d="M2260.85,-549.69C2252.11,-512.9 2224.5,-413.56 2169,-352 2103.67,-279.53 2071.75,-272.3 1979,-242 1836.24,-195.36 1769.98,-286.2 1643,-206 1581.26,-167 1609.75,-116.49 1557,-66 1540.78,-50.47 1518.8,-38.14 1500.63,-29.61"/>
<polygon fill="#63b8ff" stroke="#63b8ff" points="1502.1,-26.44 1491.54,-25.54 1499.23,-32.82 1502.1,-26.44"/>
</g>
<!-- Node58&#45;&gt;Node8 -->
<g id="edge64" class="edge">
<title>Node58&#45;&gt;Node8</title>
<path fill="none" stroke="#63b8ff" d="M2305.2,-549.61C2403.85,-514.85 2651.05,-425.99 2727,-382 2755.66,-365.4 2784.84,-340.43 2802.69,-324.04"/>
<polygon fill="#63b8ff" stroke="#63b8ff" points="2804.9,-326.77 2809.82,-317.38 2800.12,-321.65 2804.9,-326.77"/>
</g>
<!-- Node58&#45;&gt;Node9 -->
<g id="edge66" class="edge">
<title>Node58&#45;&gt;Node9</title>
<path fill="none" stroke="#63b8ff" d="M2264.41,-549.58C2266.19,-512.53 2275.66,-412.62 2326,-352 2348.6,-324.78 2366.8,-334.43 2397,-316 2432.59,-294.28 2454.04,-298.13 2473,-261 2490.18,-227.36 2492.93,-208.09 2473,-176 2463.8,-161.18 2448.03,-151.15 2432.25,-144.42"/>
<polygon fill="#63b8ff" stroke="#63b8ff" points="2433.94,-141.33 2423.35,-141.01 2431.43,-147.86 2433.94,-141.33"/>
</g>
<!-- Node58&#45;&gt;Node16 -->
<g id="edge84" class="edge">
<title>Node58&#45;&gt;Node16</title>
<path fill="none" stroke="#63b8ff" d="M2326.83,-553.92C2498.93,-526.27 2965.39,-451.08 2968,-448 2976.63,-437.83 2970.96,-431 2968,-418 2938.05,-286.25 2907.62,-230.53 2784,-176 2589.55,-90.24 2333.55,-76.82 2211.94,-75.71"/>
<polygon fill="#63b8ff" stroke="#63b8ff" points="2212.14,-72.21 2202.11,-75.65 2212.09,-79.21 2212.14,-72.21"/>
</g>
<!-- Node58&#45;&gt;Node59 -->
<g id="edge67" class="edge">
<title>Node58&#45;&gt;Node59</title>
<path fill="none" stroke="#63b8ff" d="M2201.22,-564.21C2061.91,-563.79 1716.77,-557.98 1432,-514 1329.73,-498.2 1212.35,-464.5 1152.9,-446.29"/>
<polygon fill="#63b8ff" stroke="#63b8ff" points="1154.17,-443.02 1143.59,-443.42 1152.11,-449.71 1154.17,-443.02"/>
</g>
<!-- Node62 -->
<g id="node30" class="node">
<title>Node62</title>
<g id="a_node30"><a xlink:href="../../dc/d8e/kratos__components_8h.html" target="_top" xlink:title=" ">
<polygon fill="#fff0f0" stroke="red" points="1009.5,-508.5 844.5,-508.5 844.5,-489.5 1009.5,-489.5 1009.5,-508.5"/>
<text text-anchor="middle" x="927" y="-496.5" font-family="Helvetica,sans-Serif" font-size="10.00">includes/kratos_components.h</text>
</a>
</g>
</g>
<!-- Node58&#45;&gt;Node62 -->
<g id="edge77" class="edge">
<title>Node58&#45;&gt;Node62</title>
<path fill="none" stroke="#63b8ff" d="M2201.31,-561C1986.25,-550.7 1277.63,-516.78 1020.92,-504.5"/>
<polygon fill="#63b8ff" stroke="#63b8ff" points="1021.44,-501.02 1011.28,-504.03 1021.1,-508.01 1021.44,-501.02"/>
</g>
<!-- Node59&#45;&gt;Node5 -->
<g id="edge68" class="edge">
<title>Node59&#45;&gt;Node5</title>
<path fill="none" stroke="#63b8ff" d="M1054.08,-425.35C900.45,-407.14 497.99,-351.67 404,-261 340.45,-199.7 340.61,-150.57 366,-66 369.56,-54.15 376.94,-42.51 383.82,-33.45"/>
<polygon fill="#63b8ff" stroke="#63b8ff" points="386.34,-35.89 389.93,-25.92 380.91,-31.48 386.34,-35.89"/>
</g>
<!-- Node59&#45;&gt;Node6 -->
<g id="edge69" class="edge">
<title>Node59&#45;&gt;Node6</title>
<path fill="none" stroke="#63b8ff" d="M1082.57,-423.06C1007.17,-399.92 826.21,-333.45 881,-242 886.33,-233.11 1200.23,-69.47 1210,-66 1283.31,-39.93 1373.48,-26.37 1425.19,-20.24"/>
<polygon fill="#63b8ff" stroke="#63b8ff" points="1425.51,-23.73 1435.04,-19.12 1424.71,-16.78 1425.51,-23.73"/>
</g>
<!-- Node59&#45;&gt;Node9 -->
<g id="edge70" class="edge">
<title>Node59&#45;&gt;Node9</title>
<path fill="none" stroke="#63b8ff" d="M1173.83,-423.3C1356.34,-396.76 1894.14,-318.44 1903,-316 2026.33,-281.99 2055.25,-264.55 2169,-206 2191.37,-194.49 2193.93,-186.03 2217,-176 2251.14,-161.15 2291.44,-150.2 2323.78,-142.88"/>
<polygon fill="#63b8ff" stroke="#63b8ff" points="2324.38,-146.34 2333.39,-140.77 2322.87,-139.5 2324.38,-146.34"/>
</g>
<!-- Node59&#45;&gt;Node60 -->
<g id="edge71" class="edge">
<title>Node59&#45;&gt;Node60</title>
<path fill="none" stroke="#63b8ff" d="M1112.33,-423.1C1110.63,-414.03 1107.93,-399.64 1105.72,-387.85"/>
<polygon fill="#63b8ff" stroke="#63b8ff" points="1109.22,-387.49 1103.93,-378.31 1102.34,-388.78 1109.22,-387.49"/>
</g>
<!-- Node60&#45;&gt;Node5 -->
<g id="edge72" class="edge">
<title>Node60&#45;&gt;Node5</title>
<path fill="none" stroke="#63b8ff" d="M1055.89,-360.07C941.15,-344.84 645.62,-302.65 556,-261 461.82,-217.23 417.65,-85.76 403.91,-35.68"/>
<polygon fill="#63b8ff" stroke="#63b8ff" points="407.37,-35.05 401.44,-26.26 400.59,-36.82 407.37,-35.05"/>
</g>
<!-- Node60&#45;&gt;Node6 -->
<g id="edge73" class="edge">
<title>Node60&#45;&gt;Node6</title>
<path fill="none" stroke="#63b8ff" d="M1086.7,-357.02C1054.71,-337.07 985.9,-287.24 1013,-242 1103.8,-90.44 1331.21,-37.62 1425.27,-21.87"/>
<polygon fill="#63b8ff" stroke="#63b8ff" points="1425.77,-25.33 1435.09,-20.29 1424.66,-18.42 1425.77,-25.33"/>
</g>
<!-- Node60&#45;&gt;Node8 -->
<g id="edge74" class="edge">
<title>Node60&#45;&gt;Node8</title>
<path fill="none" stroke="#63b8ff" d="M1148.4,-364.42C1395.75,-356 2556.48,-316.47 2781.99,-308.79"/>
<polygon fill="#63b8ff" stroke="#63b8ff" points="2781.8,-312.3 2791.67,-308.46 2781.56,-305.31 2781.8,-312.3"/>
</g>
<!-- Node60&#45;&gt;Node9 -->
<g id="edge75" class="edge">
<title>Node60&#45;&gt;Node9</title>
<path fill="none" stroke="#63b8ff" d="M1133.76,-357.01C1140.12,-355.28 1146.76,-353.54 1153,-352 1225.45,-334.12 1244.18,-332.3 1317,-316 1320.35,-315.25 1554.75,-262.11 1558,-261 1577.01,-254.51 1579.58,-247.11 1599,-242 1792.19,-191.21 1857.96,-270.55 2047,-206 2070.1,-198.11 2070.2,-184.71 2093,-176 2133.7,-160.44 2249.54,-145.8 2321.89,-137.8"/>
<polygon fill="#63b8ff" stroke="#63b8ff" points="2322.05,-141.31 2331.61,-136.74 2321.29,-134.35 2322.05,-141.31"/>
</g>
<!-- Node60&#45;&gt;Node19 -->
<g id="edge76" class="edge">
<title>Node60&#45;&gt;Node19</title>
<path fill="none" stroke="#63b8ff" d="M1124.78,-357.12C1149.67,-347.41 1189.79,-331.76 1218.32,-320.64"/>
<polygon fill="#63b8ff" stroke="#63b8ff" points="1219.55,-323.91 1227.59,-317.02 1217.01,-317.39 1219.55,-323.91"/>
</g>
<!-- Node62&#45;&gt;Node5 -->
<g id="edge78" class="edge">
<title>Node62&#45;&gt;Node5</title>
<path fill="none" stroke="#63b8ff" d="M869.1,-489.02C824.25,-481.05 761.04,-467.62 708,-448 601.54,-408.62 266,-305.51 266,-192 266,-192 266,-192 266,-129.5 266,-77.03 326.63,-43.67 366.02,-27.54"/>
<polygon fill="#63b8ff" stroke="#63b8ff" points="367.29,-30.8 375.33,-23.9 364.74,-24.28 367.29,-30.8"/>
</g>
<!-- Node62&#45;&gt;Node6 -->
<g id="edge79" class="edge">
<title>Node62&#45;&gt;Node6</title>
<path fill="none" stroke="#63b8ff" d="M844.23,-492.05C808.87,-485.69 769.31,-473.02 741,-448 667.87,-383.38 621.6,-329.4 665,-242 704.97,-161.51 747.33,-162.58 827,-121 894.04,-86.02 914.15,-82.25 988,-66 1147.13,-30.98 1341.56,-20.3 1425.33,-17.2"/>
<polygon fill="#63b8ff" stroke="#63b8ff" points="1425.26,-20.71 1435.13,-16.86 1425.01,-13.71 1425.26,-20.71"/>
</g>
<!-- Node62&#45;&gt;Node9 -->
<g id="edge81" class="edge">
<title>Node62&#45;&gt;Node9</title>
<path fill="none" stroke="#63b8ff" d="M942.36,-489.08C958.71,-479.44 985.17,-463.37 1007,-448 1024.59,-435.61 1025.13,-426.25 1045,-418 1133.67,-381.21 1808.9,-335.01 1903,-316 1989.59,-298.51 2011.53,-292.67 2094,-261 2146.14,-240.98 2158.14,-233.06 2207,-206 2229.01,-193.81 2232.31,-186.87 2255,-176 2282.45,-162.86 2314.84,-151.63 2340.17,-143.75"/>
<polygon fill="#63b8ff" stroke="#63b8ff" points="2340.92,-147.18 2349.47,-140.91 2338.88,-140.48 2340.92,-147.18"/>
</g>
<!-- Node62&#45;&gt;Node21 -->
<g id="edge80" class="edge">
<title>Node62&#45;&gt;Node21</title>
<path fill="none" stroke="#63b8ff" d="M926.36,-489.26C923.79,-454.22 914.19,-323.3 910.48,-272.67"/>
<polygon fill="#63b8ff" stroke="#63b8ff" points="913.98,-272.62 909.76,-262.9 907,-273.13 913.98,-272.62"/>
</g>
<!-- Node62&#45;&gt;Node26 -->
<g id="edge82" class="edge">
<title>Node62&#45;&gt;Node26</title>
<path fill="none" stroke="#63b8ff" d="M933.67,-489.25C946.79,-472.69 977.66,-436.72 1012,-418 1070.3,-386.21 1092.7,-398.57 1157,-382 1298.66,-345.48 1333.2,-333 1475,-297 1520.85,-285.36 1573.28,-272.82 1610.59,-264.03"/>
<polygon fill="#63b8ff" stroke="#63b8ff" points="1611.26,-267.47 1620.19,-261.77 1609.66,-260.65 1611.26,-267.47"/>
</g>
<!-- Node62&#45;&gt;Node59 -->
<g id="edge83" class="edge">
<title>Node62&#45;&gt;Node59</title>
<path fill="none" stroke="#63b8ff" d="M953,-489.1C985.29,-478.05 1040.57,-459.13 1077.2,-446.6"/>
<polygon fill="#63b8ff" stroke="#63b8ff" points="1078.16,-449.97 1086.49,-443.42 1075.89,-443.34 1078.16,-449.97"/>
</g>
<!-- Node70&#45;&gt;Node5 -->
<g id="edge88" class="edge">
<title>Node70&#45;&gt;Node5</title>
<path fill="none" stroke="#63b8ff" d="M2270.88,-743.16C2156.41,-737.44 1858.92,-721.69 1611,-701 953.37,-646.12 657.52,-920.93 138,-514 57.72,-451.12 38,-409.47 38,-307.5 38,-307.5 38,-307.5 38,-129.5 38,-99.33 38.51,-84.93 62,-66 108.34,-28.65 290.06,-19.13 365.69,-16.76"/>
<polygon fill="#63b8ff" stroke="#63b8ff" points="365.47,-20.27 375.37,-16.48 365.27,-13.27 365.47,-20.27"/>
</g>
<!-- Node70&#45;&gt;Node6 -->
<g id="edge89" class="edge">
<title>Node70&#45;&gt;Node6</title>
<path fill="none" stroke="#63b8ff" d="M2302.88,-736.65C2274.99,-720.44 2218.04,-683.17 2190,-635 2125.53,-524.27 2215.05,-452.04 2135,-352 2058.9,-256.9 2001.33,-274.68 1884,-242 1765.25,-208.93 1715.29,-268.42 1609,-206 1542.16,-166.75 1551.56,-127.97 1505,-66 1496.93,-55.26 1487.83,-43.28 1480.55,-33.74"/>
<polygon fill="#63b8ff" stroke="#63b8ff" points="1483.52,-31.86 1474.67,-26.03 1477.96,-36.11 1483.52,-31.86"/>
</g>
<!-- Node70&#45;&gt;Node7 -->
<g id="edge90" class="edge">
<title>Node70&#45;&gt;Node7</title>
<path fill="none" stroke="#63b8ff" d="M2367.47,-739.01C2416.89,-731.83 2495.53,-718.88 2562,-701 2939.64,-599.42 3319,-643.56 3319,-252.5 3319,-252.5 3319,-252.5 3319,-190 3319,-103.87 3024.71,-42.45 2916.4,-22.76"/>
<polygon fill="#63b8ff" stroke="#63b8ff" points="2917.27,-19.36 2906.81,-21.04 2916.04,-26.25 2917.27,-19.36"/>
</g>
<!-- Node70&#45;&gt;Node8 -->
<g id="edge91" class="edge">
<title>Node70&#45;&gt;Node8</title>
<path fill="none" stroke="#63b8ff" d="M2348.37,-736.64C2373.15,-728.69 2409.23,-715.99 2439,-701 2460.8,-690.02 2462.44,-680.31 2485,-671 2557.59,-641.03 2594.93,-681.79 2658,-635 2680.36,-618.41 2675.6,-604.93 2688,-580 2723.16,-509.28 2720.25,-485.65 2761,-418 2771.46,-400.64 2778.79,-399.51 2789,-382 2799.35,-364.24 2808.02,-342.35 2813.54,-326.91"/>
<polygon fill="#63b8ff" stroke="#63b8ff" points="2816.82,-328.14 2816.76,-317.55 2810.2,-325.86 2816.82,-328.14"/>
</g>
<!-- Node70&#45;&gt;Node9 -->
<g id="edge92" class="edge">
<title>Node70&#45;&gt;Node9</title>
<path fill="none" stroke="#63b8ff" d="M2324.47,-736.63C2334.86,-720.61 2359.13,-687.02 2389,-671 2473.22,-625.82 2539.34,-708.02 2601,-635 2609.23,-625.26 2597.23,-185.74 2589,-176 2570.53,-154.15 2497.76,-142.39 2443.92,-136.55"/>
<polygon fill="#63b8ff" stroke="#63b8ff" points="2444.56,-133.09 2434.25,-135.54 2443.83,-140.06 2444.56,-133.09"/>
</g>
<!-- Node70&#45;&gt;Node26 -->
<g id="edge115" class="edge">
<title>Node70&#45;&gt;Node26</title>
<path fill="none" stroke="#63b8ff" d="M2270.63,-745.17C2137.25,-742.98 1774,-727.71 1774,-626.5 1774,-626.5 1774,-626.5 1774,-564 1774,-476.34 1727.27,-464.63 1698,-382 1684.42,-343.66 1671.78,-297.77 1665.06,-272.2"/>
<polygon fill="#63b8ff" stroke="#63b8ff" points="1668.53,-271.66 1662.63,-262.87 1661.76,-273.42 1668.53,-271.66"/>
</g>
<!-- Node70&#45;&gt;Node58 -->
<g id="edge116" class="edge">
<title>Node70&#45;&gt;Node58</title>
<path fill="none" stroke="#63b8ff" d="M2321.6,-736.87C2329.05,-711.42 2349.25,-637.17 2338,-616 2331.47,-603.7 2320.4,-593.87 2308.8,-586.3"/>
<polygon fill="#63b8ff" stroke="#63b8ff" points="2310.69,-583.35 2300.3,-581.24 2307.1,-589.37 2310.69,-583.35"/>
</g>
<!-- Node71 -->
<g id="node32" class="node">
<title>Node71</title>
<g id="a_node32"><a xlink:href="../../d4/d35/pointer__vector__set_8h.html" target="_top" xlink:title=" ">
<polygon fill="#fff0f0" stroke="red" points="2718.5,-382 2613.5,-382 2613.5,-352 2718.5,-352 2718.5,-382"/>
<text text-anchor="start" x="2621.5" y="-370" font-family="Helvetica,sans-Serif" font-size="10.00">containers/pointer</text>
<text text-anchor="middle" x="2666" y="-359" font-family="Helvetica,sans-Serif" font-size="10.00">_vector_set.h</text>
</a>
</g>
</g>
<!-- Node70&#45;&gt;Node71 -->
<g id="edge93" class="edge">
<title>Node70&#45;&gt;Node71</title>
<path fill="none" stroke="#63b8ff" d="M2332.09,-736.7C2355.9,-721.1 2408.35,-688.58 2457,-671 2533.32,-643.42 2579.16,-692.91 2636,-635 2700.42,-569.37 2683.41,-446.48 2672.19,-393.44"/>
<polygon fill="#63b8ff" stroke="#63b8ff" points="2675.64,-392.85 2670.04,-383.86 2668.81,-394.38 2675.64,-392.85"/>
</g>
<!-- Node70&#45;&gt;Node74 -->
<g id="edge101" class="edge">
<title>Node70&#45;&gt;Node74</title>
<path fill="none" stroke="#63b8ff" d="M2353.39,-736.51C2387,-727.66 2439.6,-713.68 2485,-701 2586.19,-672.73 2616.44,-678.67 2712,-635 2851.15,-571.41 2878.5,-539.65 3001,-448 3025.62,-429.58 3052.05,-406.49 3070.42,-389.86"/>
<polygon fill="#63b8ff" stroke="#63b8ff" points="3072.6,-392.61 3077.63,-383.28 3067.88,-387.44 3072.6,-392.61"/>
</g>
<!-- Node76 -->
<g id="node34" class="node">
<title>Node76</title>
<g id="a_node34"><a xlink:href="../../d9/d4c/includes_2indexed__object_8h.html" target="_top" xlink:title=" ">
<polygon fill="white" stroke="#666666" points="1850.5,-376.5 1707.5,-376.5 1707.5,-357.5 1850.5,-357.5 1850.5,-376.5"/>
<text text-anchor="middle" x="1779" y="-364.5" font-family="Helvetica,sans-Serif" font-size="10.00">includes/indexed_object.h</text>
</a>
</g>
</g>
<!-- Node70&#45;&gt;Node76 -->
<g id="edge108" class="edge">
<title>Node70&#45;&gt;Node76</title>
<path fill="none" stroke="#63b8ff" d="M2270.81,-742.41C2158.35,-733.88 1888,-705.19 1888,-626.5 1888,-626.5 1888,-626.5 1888,-498 1888,-446.18 1836.51,-404.18 1804.3,-382.98"/>
<polygon fill="#63b8ff" stroke="#63b8ff" points="1806.22,-380.05 1795.9,-377.65 1802.47,-385.96 1806.22,-380.05"/>
</g>
<!-- Node77 -->
<g id="node35" class="node">
<title>Node77</title>
<g id="a_node35"><a xlink:href="../../d4/d67/geometry_8h.html" target="_top" xlink:title=" ">
<polygon fill="#fff0f0" stroke="red" points="2329,-635 2199,-635 2199,-616 2329,-616 2329,-635"/>
<text text-anchor="middle" x="2264" y="-623" font-family="Helvetica,sans-Serif" font-size="10.00">geometries/geometry.h</text>
</a>
</g>
</g>
<!-- Node70&#45;&gt;Node77 -->
<g id="edge112" class="edge">
<title>Node70&#45;&gt;Node77</title>
<path fill="none" stroke="#63b8ff" d="M2314.87,-736.56C2305.98,-717.34 2284.91,-671.74 2272.86,-645.67"/>
<polygon fill="#63b8ff" stroke="#63b8ff" points="2276.04,-644.21 2268.67,-636.6 2269.69,-647.14 2276.04,-644.21"/>
</g>
<!-- Node70&#45;&gt;Node87 -->
<g id="edge117" class="edge">
<title>Node70&#45;&gt;Node87</title>
<path fill="none" stroke="#63b8ff" d="M2270.6,-743.29C2173.47,-738.48 1948.01,-725.51 1760,-701 1759.17,-700.89 1758.33,-700.78 1757.49,-700.67"/>
<polygon fill="#63b8ff" stroke="#63b8ff" points="1758.27,-697.24 1747.87,-699.26 1757.26,-704.17 1758.27,-697.24"/>
</g>
<!-- Node71&#45;&gt;Node3 -->
<g id="edge94" class="edge">
<title>Node71&#45;&gt;Node3</title>
<path fill="none" stroke="#63b8ff" d="M2685.87,-351.66C2708.54,-335.97 2747.24,-311.16 2784,-297 2968.32,-226 3054.12,-314.76 3219,-206 3284.79,-162.6 3327.73,-74.48 3344.3,-35.41"/>
<polygon fill="#63b8ff" stroke="#63b8ff" points="3347.45,-36.94 3348.02,-26.36 3340.98,-34.28 3347.45,-36.94"/>
</g>
<!-- Node71&#45;&gt;Node5 -->
<g id="edge95" class="edge">
<title>Node71&#45;&gt;Node5</title>
<path fill="none" stroke="#63b8ff" d="M2613.3,-361.05C2578.35,-357.95 2531.48,-354.16 2490,-352 1836.46,-318.04 1670.49,-366.16 1018,-316 923.27,-308.72 676.75,-307.7 594,-261 544.39,-233 445.3,-86.63 411.01,-34.47"/>
<polygon fill="#63b8ff" stroke="#63b8ff" points="413.95,-32.57 405.55,-26.12 408.09,-36.4 413.95,-32.57"/>
</g>
<!-- Node71&#45;&gt;Node6 -->
<g id="edge96" class="edge">
<title>Node71&#45;&gt;Node6</title>
<path fill="none" stroke="#63b8ff" d="M2646.58,-351.7C2608.37,-324.49 2519.78,-265.85 2435,-242 2365.9,-222.56 1846.52,-250.25 1790,-206 1738.75,-165.87 1795.73,-109.15 1747,-66 1712.31,-35.29 1578.04,-22.73 1508.81,-18.22"/>
<polygon fill="#63b8ff" stroke="#63b8ff" points="1509.19,-14.74 1498.99,-17.61 1508.75,-21.72 1509.19,-14.74"/>
</g>
<!-- Node71&#45;&gt;Node7 -->
<g id="edge97" class="edge">
<title>Node71&#45;&gt;Node7</title>
<path fill="none" stroke="#63b8ff" d="M2675.36,-351.63C2681.81,-341.68 2690.52,-328.1 2698,-316 2763.24,-210.45 2838.53,-81.99 2866.14,-34.66"/>
<polygon fill="#63b8ff" stroke="#63b8ff" points="2869.06,-36.61 2871.07,-26.2 2863.01,-33.08 2869.06,-36.61"/>
</g>
<!-- Node71&#45;&gt;Node8 -->
<g id="edge98" class="edge">
<title>Node71&#45;&gt;Node8</title>
<path fill="none" stroke="#63b8ff" d="M2704.07,-351.54C2729.25,-341.97 2761.97,-329.55 2786.22,-320.33"/>
<polygon fill="#63b8ff" stroke="#63b8ff" points="2787.19,-323.71 2795.3,-316.88 2784.71,-317.16 2787.19,-323.71"/>
</g>
<!-- Node71&#45;&gt;Node9 -->
<g id="edge99" class="edge">
<title>Node71&#45;&gt;Node9</title>
<path fill="none" stroke="#63b8ff" d="M2671.22,-351.7C2682.94,-316.86 2706.99,-226.72 2663,-176 2635.22,-143.97 2518.02,-134.9 2444.33,-132.39"/>
<polygon fill="#63b8ff" stroke="#63b8ff" points="2444.52,-128.89 2434.41,-132.09 2444.3,-135.89 2444.52,-128.89"/>
</g>
<!-- Node71&#45;&gt;Node19 -->
<g id="edge100" class="edge">
<title>Node71&#45;&gt;Node19</title>
<path fill="none" stroke="#63b8ff" d="M2613.29,-361.21C2578.34,-358.18 2531.46,-354.39 2490,-352 2044.15,-326.27 1507.05,-313 1320.08,-308.91"/>
<polygon fill="#63b8ff" stroke="#63b8ff" points="1320.39,-305.41 1310.32,-308.7 1320.24,-312.41 1320.39,-305.41"/>
</g>
<!-- Node74&#45;&gt;Node3 -->
<g id="edge102" class="edge">
<title>Node74&#45;&gt;Node3</title>
<path fill="none" stroke="#63b8ff" d="M3134.78,-351.53C3190.14,-329.53 3287.41,-282.01 3333,-206 3365.64,-151.58 3360.09,-72.31 3355.21,-35.78"/>
<polygon fill="#63b8ff" stroke="#63b8ff" points="3358.73,-35.63 3353.8,-26.25 3351.8,-36.65 3358.73,-35.63"/>
</g>
<!-- Node74&#45;&gt;Node5 -->
<g id="edge103" class="edge">
<title>Node74&#45;&gt;Node5</title>
<path fill="none" stroke="#63b8ff" d="M3041.13,-363.74C2969.82,-360.74 2838.85,-355.44 2727,-352 2042.25,-330.94 1869.76,-358.49 1186,-316 1125.36,-312.23 696.68,-287.47 642,-261 533.37,-208.41 539.31,-150.36 453,-66 441.27,-54.53 427.72,-41.99 417.13,-32.34"/>
<polygon fill="#63b8ff" stroke="#63b8ff" points="419.59,-29.84 409.83,-25.71 414.88,-35.02 419.59,-29.84"/>
</g>
<!-- Node74&#45;&gt;Node6 -->
<g id="edge104" class="edge">
<title>Node74&#45;&gt;Node6</title>
<path fill="none" stroke="#63b8ff" d="M3084.33,-351.61C3051.56,-303.3 2943.8,-148.47 2891,-121 2765.41,-55.67 1730.22,-23.33 1508.64,-17.12"/>
<polygon fill="#63b8ff" stroke="#63b8ff" points="1508.86,-13.62 1498.76,-16.84 1508.66,-20.62 1508.86,-13.62"/>
</g>
<!-- Node74&#45;&gt;Node7 -->
<g id="edge105" class="edge">
<title>Node74&#45;&gt;Node7</title>
<path fill="none" stroke="#63b8ff" d="M3094.82,-351.55C3095.5,-326.81 3093.64,-275.77 3070,-242 3052.16,-216.52 3032.75,-227.2 3010,-206 3002.42,-198.93 2920.95,-80.26 2889.39,-34.13"/>
<polygon fill="#63b8ff" stroke="#63b8ff" points="2892.37,-32.29 2883.84,-26.01 2886.59,-36.24 2892.37,-32.29"/>
</g>
<!-- Node74&#45;&gt;Node8 -->
<g id="edge106" class="edge">
<title>Node74&#45;&gt;Node8</title>
<path fill="none" stroke="#63b8ff" d="M3041.17,-354.72C2987.44,-343.25 2905.51,-325.76 2857.9,-315.59"/>
<polygon fill="#63b8ff" stroke="#63b8ff" points="2858.86,-312.22 2848.35,-313.55 2857.39,-319.06 2858.86,-312.22"/>
</g>
<!-- Node74&#45;&gt;Node9 -->
<g id="edge107" class="edge">
<title>Node74&#45;&gt;Node9</title>
<path fill="none" stroke="#63b8ff" d="M3069.65,-351.51C3053.44,-341.73 3031.75,-328.4 3013,-316 2923.1,-256.55 2915.9,-213.87 2815,-176 2748.64,-151.1 2546.76,-138.77 2444.2,-133.98"/>
<polygon fill="#63b8ff" stroke="#63b8ff" points="2444.46,-130.49 2434.31,-133.53 2444.14,-137.48 2444.46,-130.49"/>
</g>
<!-- Node76&#45;&gt;Node6 -->
<g id="edge109" class="edge">
<title>Node76&#45;&gt;Node6</title>
<path fill="none" stroke="#63b8ff" d="M1793.55,-357.06C1826.26,-335.91 1900.11,-281.6 1865,-242 1820.75,-192.09 1622.64,-242.8 1567,-206 1535.67,-185.28 1491.7,-79.44 1474.4,-35.34"/>
<polygon fill="#63b8ff" stroke="#63b8ff" points="1477.77,-34.34 1470.89,-26.28 1471.24,-36.87 1477.77,-34.34"/>
</g>
<!-- Node76&#45;&gt;Node9 -->
<g id="edge110" class="edge">
<title>Node76&#45;&gt;Node9</title>
<path fill="none" stroke="#63b8ff" d="M1850.76,-357.77C1929.25,-348.21 2049.67,-331.72 2093,-316 2153.33,-294.12 2161.26,-273.82 2217,-242 2246.02,-225.44 2254.87,-224.03 2283,-206 2312.01,-187.42 2343.59,-163.15 2363.34,-147.45"/>
<polygon fill="#63b8ff" stroke="#63b8ff" points="2365.47,-150.22 2371.08,-141.24 2361.09,-144.76 2365.47,-150.22"/>
</g>
<!-- Node76&#45;&gt;Node19 -->
<g id="edge111" class="edge">
<title>Node76&#45;&gt;Node19</title>
<path fill="none" stroke="#63b8ff" d="M1707.1,-358.02C1605.13,-346.7 1419.81,-326.13 1320,-315.05"/>
<polygon fill="#63b8ff" stroke="#63b8ff" points="1320.69,-311.6 1310.36,-313.98 1319.91,-318.56 1320.69,-311.6"/>
</g>
<!-- Node77&#45;&gt;Node53 -->
<g id="edge114" class="edge">
<title>Node77&#45;&gt;Node53</title>
<path fill="none" stroke="#63b8ff" d="M2249.26,-615.66C2234.61,-606.82 2211.58,-592.75 2192,-580 2190.83,-579.24 1860.28,-352.56 1859,-352 1734.72,-297.89 1577.51,-271.58 1487.7,-260.13"/>
<polygon fill="#63b8ff" stroke="#63b8ff" points="1488.14,-256.66 1477.78,-258.9 1487.27,-263.61 1488.14,-256.66"/>
</g>
<!-- Node77&#45;&gt;Node58 -->
<g id="edge113" class="edge">
<title>Node77&#45;&gt;Node58</title>
<path fill="none" stroke="#63b8ff" d="M2264,-615.87C2264,-609.4 2264,-600.2 2264,-591.45"/>
<polygon fill="#63b8ff" stroke="#63b8ff" points="2267.5,-591.63 2264,-581.63 2260.5,-591.63 2267.5,-591.63"/>
</g>
<!-- Node87&#45;&gt;Node9 -->
<g id="edge118" class="edge">
<title>Node87&#45;&gt;Node9</title>
<path fill="none" stroke="#63b8ff" d="M1720.23,-670.6C1743.1,-661.32 1772.75,-648.49 1798,-635 2067.52,-490.95 2156.72,-474.89 2375,-261 2404.69,-231.91 2426.45,-215.66 2414,-176 2410.95,-166.27 2404.93,-156.81 2399,-149.13"/>
<polygon fill="#63b8ff" stroke="#63b8ff" points="2401.84,-147.07 2392.74,-141.64 2396.47,-151.56 2401.84,-147.07"/>
</g>
<!-- Node87&#45;&gt;Node26 -->
<g id="edge123" class="edge">
<title>Node87&#45;&gt;Node26</title>
<path fill="none" stroke="#63b8ff" d="M1678.33,-670.51C1666.76,-633.79 1637.01,-533.88 1627,-448 1622.06,-405.62 1623.54,-394.53 1627,-352 1629.01,-327.31 1628.01,-320.45 1636,-297 1639.04,-288.08 1643.75,-278.81 1648.2,-271.06"/>
<polygon fill="#63b8ff" stroke="#63b8ff" points="1651.14,-272.96 1653.32,-262.59 1645.15,-269.34 1651.14,-272.96"/>
</g>
<!-- Node87&#45;&gt;Node57 -->
<g id="edge125" class="edge">
<title>Node87&#45;&gt;Node57</title>
<path fill="none" stroke="#63b8ff" d="M1746.44,-680.6C1898.77,-670.04 2284.82,-643.29 2450.05,-631.83"/>
<polygon fill="#63b8ff" stroke="#63b8ff" points="2449.84,-635.36 2459.57,-631.17 2449.36,-628.37 2449.84,-635.36"/>
</g>
<!-- Node87&#45;&gt;Node59 -->
<g id="edge124" class="edge">
<title>Node87&#45;&gt;Node59</title>
<path fill="none" stroke="#63b8ff" d="M1619.59,-679.48C1534.09,-669.81 1379.27,-644.28 1264,-580 1204.12,-546.61 1151.03,-483.13 1127.24,-452.05"/>
<polygon fill="#63b8ff" stroke="#63b8ff" points="1130.04,-449.96 1121.24,-444.06 1124.44,-454.16 1130.04,-449.96"/>
</g>
<!-- Node87&#45;&gt;Node76 -->
<g id="edge126" class="edge">
<title>Node87&#45;&gt;Node76</title>
<path fill="none" stroke="#63b8ff" d="M1718.25,-670.63C1756.44,-652.44 1812,-617.19 1812,-566 1812,-566 1812,-566 1812,-498 1812,-457.78 1796.98,-412.65 1787.2,-387.55"/>
<polygon fill="#63b8ff" stroke="#63b8ff" points="1790.48,-386.3 1783.48,-378.35 1783.99,-388.93 1790.48,-386.3"/>
</g>
<!-- Node87&#45;&gt;Node99 -->
<g id="edge119" class="edge">
<title>Node87&#45;&gt;Node99</title>
<path fill="none" stroke="#63b8ff" d="M1652.03,-670.54C1619.4,-655.65 1566.29,-632.37 1519,-616 1474.66,-600.65 1422.98,-586.83 1386.05,-577.63"/>
<polygon fill="#63b8ff" stroke="#63b8ff" points="1387.1,-574.29 1376.55,-575.29 1385.42,-581.08 1387.1,-574.29"/>
</g>
<!-- Node99&#45;&gt;Node9 -->
<g id="edge120" class="edge">
<title>Node99&#45;&gt;Node9</title>
<path fill="none" stroke="#63b8ff" d="M1401.43,-557.02C1460.42,-549.64 1549.74,-535.98 1625,-514 1647.37,-507.47 1989.85,-359.24 2012,-352 2077.17,-330.69 2098.42,-341.66 2162,-316 2251.41,-279.91 2284.44,-277.62 2349,-206 2363.26,-190.18 2372.47,-167.36 2377.66,-151.15"/>
<polygon fill="#63b8ff" stroke="#63b8ff" points="2380.97,-152.31 2380.44,-141.73 2374.26,-150.33 2380.97,-152.31"/>
</g>
<!-- Node99&#45;&gt;Node26 -->
<g id="edge121" class="edge">
<title>Node99&#45;&gt;Node26</title>
<path fill="none" stroke="#63b8ff" d="M1340.13,-555.22C1353.93,-517.74 1413.19,-369.78 1513,-297 1537.52,-279.12 1569.3,-268.34 1597.03,-261.88"/>
<polygon fill="#63b8ff" stroke="#63b8ff" points="1597.72,-265.32 1606.75,-259.78 1596.24,-258.48 1597.72,-265.32"/>
</g>
<!-- Node99&#45;&gt;Node62 -->
<g id="edge122" class="edge">
<title>Node99&#45;&gt;Node62</title>
<path fill="none" stroke="#63b8ff" d="M1279.56,-555.03C1205.09,-543.41 1075.37,-523.16 995.75,-510.73"/>
<polygon fill="#63b8ff" stroke="#63b8ff" points="996.3,-507.27 985.88,-509.19 995.22,-514.19 996.3,-507.27"/>
</g>
<!-- Node100&#45;&gt;Node9 -->
<g id="edge128" class="edge">
<title>Node100&#45;&gt;Node9</title>
<path fill="none" stroke="#63b8ff" d="M2904.74,-417.75C2907.78,-407.85 2911.43,-394.28 2913,-382 2917.98,-343.06 2912.81,-328.21 2889,-297 2837.05,-228.9 2817.84,-209.48 2739,-176 2687.29,-154.04 2531.67,-140.93 2444.27,-135.1"/>
<polygon fill="#63b8ff" stroke="#63b8ff" points="2444.65,-131.62 2434.44,-134.46 2444.19,-138.61 2444.65,-131.62"/>
</g>
<!-- Node100&#45;&gt;Node101 -->
<g id="edge129" class="edge">
<title>Node100&#45;&gt;Node101</title>
<path fill="none" stroke="#63b8ff" d="M2840.6,-427.4C2689.93,-415.72 2293.84,-385.03 2138.15,-372.97"/>
<polygon fill="#63b8ff" stroke="#63b8ff" points="2138.67,-369.5 2128.43,-372.22 2138.13,-376.48 2138.67,-369.5"/>
</g>
<!-- Node101&#45;&gt;Node9 -->
<g id="edge131" class="edge">
<title>Node101&#45;&gt;Node9</title>
<path fill="none" stroke="#63b8ff" d="M2126.99,-357.99C2203.15,-343.26 2340.58,-303.86 2397,-206 2406.84,-188.94 2400.39,-166.36 2393.33,-150.55"/>
<polygon fill="#63b8ff" stroke="#63b8ff" points="2396.56,-149.17 2388.98,-141.76 2390.28,-152.28 2396.56,-149.17"/>
</g>
<!-- Node101&#45;&gt;Node19 -->
<g id="edge132" class="edge">
<title>Node101&#45;&gt;Node19</title>
<path fill="none" stroke="#63b8ff" d="M2021.02,-362.23C1877.21,-351.99 1479.68,-323.7 1319.85,-312.33"/>
<polygon fill="#63b8ff" stroke="#63b8ff" points="1320.49,-308.87 1310.26,-311.65 1319.99,-315.85 1320.49,-308.87"/>
</g>
<!-- Node101&#45;&gt;Node22 -->
<g id="edge130" class="edge">
<title>Node101&#45;&gt;Node22</title>
<path fill="none" stroke="#63b8ff" d="M2035.96,-351.51C1977.38,-329.2 1866.04,-286.79 1810.01,-265.45"/>
<polygon fill="#63b8ff" stroke="#63b8ff" points="1811.25,-262.18 1800.66,-261.89 1808.76,-268.72 1811.25,-262.18"/>
</g>
<!-- Node102&#45;&gt;Node57 -->
<g id="edge134" class="edge">
<title>Node102&#45;&gt;Node57</title>
<path fill="none" stroke="#63b8ff" d="M2671.5,-736.65C2657.25,-722.07 2627.32,-692.47 2599,-671 2584.54,-660.04 2567.27,-649.29 2553.27,-641.11"/>
<polygon fill="#63b8ff" stroke="#63b8ff" points="2555.03,-638.08 2544.61,-636.14 2551.55,-644.16 2555.03,-638.08"/>
</g>
<!-- Node96 -->
<g id="node41" class="node">
<title>Node96</title>
<g id="a_node41"><a xlink:href="../../de/d44/global__pointers__vector_8h.html" target="_top" xlink:title=" ">
<polygon fill="#fff0f0" stroke="red" points="2481,-382 2335,-382 2335,-352 2481,-352 2481,-382"/>
<text text-anchor="start" x="2343" y="-370" font-family="Helvetica,sans-Serif" font-size="10.00">containers/global_pointers</text>
<text text-anchor="middle" x="2408" y="-359" font-family="Helvetica,sans-Serif" font-size="10.00">_vector.h</text>
</a>
</g>
</g>
<!-- Node102&#45;&gt;Node96 -->
<g id="edge135" class="edge">
<title>Node102&#45;&gt;Node96</title>
<path fill="none" stroke="#63b8ff" d="M2675.15,-736.8C2663.26,-715.64 2631.39,-659.99 2601,-616 2541.63,-530.06 2463.12,-433.96 2427.3,-390.96"/>
<polygon fill="#63b8ff" stroke="#63b8ff" points="2430.2,-388.97 2421.1,-383.54 2424.82,-393.46 2430.2,-388.97"/>
</g>
<!-- Node96&#45;&gt;Node3 -->
<g id="edge136" class="edge">
<title>Node96&#45;&gt;Node3</title>
<path fill="none" stroke="#63b8ff" d="M2477.3,-351.52C2544.45,-337.51 2649.18,-315.7 2740,-297 2839.07,-276.6 3098.57,-256.87 3186,-206 3205.53,-194.63 3301.47,-78.1 3337.92,-33.36"/>
<polygon fill="#63b8ff" stroke="#63b8ff" points="3340.56,-35.66 3344.15,-25.69 3335.13,-31.24 3340.56,-35.66"/>
</g>
<!-- Node96&#45;&gt;Node6 -->
<g id="edge137" class="edge">
<title>Node96&#45;&gt;Node6</title>
<path fill="none" stroke="#63b8ff" d="M2402.84,-351.66C2392.26,-324.66 2365.31,-266.75 2321,-242 2204,-176.65 1825.68,-287.12 1719,-206 1666.64,-166.19 1719.56,-110.37 1671,-66 1647.48,-44.5 1560.98,-29.05 1508.47,-21.41"/>
<polygon fill="#63b8ff" stroke="#63b8ff" points="1509.07,-17.96 1498.68,-20.03 1508.09,-24.89 1509.07,-17.96"/>
</g>
<!-- Node96&#45;&gt;Node9 -->
<g id="edge138" class="edge">
<title>Node96&#45;&gt;Node9</title>
<path fill="none" stroke="#63b8ff" d="M2432.5,-351.53C2469.44,-329.12 2536.43,-286.03 2549,-261 2565.95,-227.24 2572,-205.97 2549,-176 2536.02,-159.09 2485.81,-147.19 2443.98,-139.98"/>
<polygon fill="#63b8ff" stroke="#63b8ff" points="2444.65,-136.54 2434.21,-138.36 2443.5,-143.45 2444.65,-136.54"/>
</g>
<!-- Node96&#45;&gt;Node19 -->
<g id="edge139" class="edge">
<title>Node96&#45;&gt;Node19</title>
<path fill="none" stroke="#63b8ff" d="M2334.71,-362.22C2279.75,-359.4 2202.66,-355.44 2135,-352 1830.97,-336.54 1468.03,-318.33 1319.95,-310.9"/>
<polygon fill="#63b8ff" stroke="#63b8ff" points="1320.49,-307.43 1310.33,-310.42 1320.14,-314.42 1320.49,-307.43"/>
</g>
<!-- Node119&#45;&gt;Node57 -->
<g id="edge141" class="edge">
<title>Node119&#45;&gt;Node57</title>
<path fill="none" stroke="#63b8ff" d="M2505.95,-736.76C2511.48,-728.1 2519.4,-714.26 2523,-701 2527.88,-683.03 2528.54,-661.75 2528.18,-646.55"/>
<polygon fill="#63b8ff" stroke="#63b8ff" points="2531.7,-646.76 2527.78,-636.92 2524.7,-647.06 2531.7,-646.76"/>
</g>
<!-- Node119&#45;&gt;Node96 -->
<g id="edge142" class="edge">
<title>Node119&#45;&gt;Node96</title>
<path fill="none" stroke="#63b8ff" d="M2495.24,-736.62C2485.57,-718.21 2463.59,-674.32 2452,-635 2426.53,-548.57 2414.53,-441.77 2410.11,-393.64"/>
<polygon fill="#63b8ff" stroke="#63b8ff" points="2413.62,-393.62 2409.26,-383.97 2406.65,-394.24 2413.62,-393.62"/>
</g>
<!-- Node120&#45;&gt;Node5 -->
<g id="edge144" class="edge">
<title>Node120&#45;&gt;Node5</title>
<path fill="none" stroke="#63b8ff" d="M2561.01,-800.51C2286.9,-799.05 1261.5,-779.77 449,-580 216.71,-522.89 76,-431.21 76,-192 76,-192 76,-192 76,-129.5 76,-95.66 89.72,-84.58 118,-66 158.35,-39.49 300.1,-24.37 365.49,-18.66"/>
<polygon fill="#63b8ff" stroke="#63b8ff" points="365.59,-22.16 375.26,-17.83 365,-15.19 365.59,-22.16"/>
</g>
<!-- Node120&#45;&gt;Node6 -->
<g id="edge145" class="edge">
<title>Node120&#45;&gt;Node6</title>
<path fill="none" stroke="#63b8ff" d="M2561.19,-799.45C2520.29,-795.51 2469.79,-784.5 2434,-756 2354.54,-692.72 2386.5,-637.55 2335,-550 2280.36,-457.1 2265.9,-433.17 2195,-352 2171.42,-325 2165.59,-317.24 2136,-297 2089.57,-265.24 2076.07,-257.51 2022,-242 1881.03,-201.55 1822.97,-275.82 1694,-206 1623.19,-167.66 1643.03,-114.83 1579,-66 1557.46,-49.58 1529.68,-37.13 1507.18,-28.76"/>
<polygon fill="#63b8ff" stroke="#63b8ff" points="1508.62,-25.56 1498.03,-25.49 1506.27,-32.16 1508.62,-25.56"/>
</g>
<!-- Node120&#45;&gt;Node7 -->
<g id="edge146" class="edge">
<title>Node120&#45;&gt;Node7</title>
<path fill="none" stroke="#63b8ff" d="M2700.9,-795.3C2751.07,-789.79 2819.5,-778.59 2876,-756 3115.57,-660.21 3233.04,-624.92 3320,-382 3359.41,-271.92 3381.61,-189.7 3287,-121 3171.35,-37.03 2994.74,-20.04 2916.58,-16.73"/>
<polygon fill="#63b8ff" stroke="#63b8ff" points="2916.97,-13.24 2906.85,-16.37 2916.72,-20.24 2916.97,-13.24"/>
</g>
<!-- Node120&#45;&gt;Node8 -->
<g id="edge147" class="edge">
<title>Node120&#45;&gt;Node8</title>
<path fill="none" stroke="#63b8ff" d="M2683.97,-791.55C2705.7,-785.2 2729.18,-774.38 2744,-756 2839.52,-637.51 2762.6,-565.78 2799,-418 2803.03,-401.62 2807.3,-398.46 2811,-382 2815.11,-363.73 2817.44,-342.49 2818.69,-327.37"/>
<polygon fill="#63b8ff" stroke="#63b8ff" points="2822.15,-328.05 2819.4,-317.82 2815.17,-327.54 2822.15,-328.05"/>
</g>
<!-- Node120&#45;&gt;Node9 -->
<g id="edge148" class="edge">
<title>Node120&#45;&gt;Node9</title>
<path fill="none" stroke="#63b8ff" d="M2700.82,-798.68C2777.23,-792.54 2889,-769.45 2889,-687 2889,-687 2889,-687 2889,-564 2889,-506.56 2845,-503.95 2832,-448 2816.63,-381.88 2886.03,-357.38 2855,-297 2844.44,-276.46 2707.42,-184.64 2686,-176 2606.51,-143.92 2506.98,-134.6 2444.16,-132.09"/>
<polygon fill="#63b8ff" stroke="#63b8ff" points="2444.5,-128.6 2434.39,-131.75 2444.26,-135.6 2444.5,-128.6"/>
</g>
<!-- Node120&#45;&gt;Node70 -->
<g id="edge151" class="edge">
<title>Node120&#45;&gt;Node70</title>
<path fill="none" stroke="#63b8ff" d="M2578.07,-791.51C2522.74,-782.11 2436.08,-767.39 2378.43,-757.6"/>
<polygon fill="#63b8ff" stroke="#63b8ff" points="2379.24,-754.18 2368.8,-755.96 2378.07,-761.08 2379.24,-754.18"/>
</g>
<!-- Node120&#45;&gt;Node102 -->
<g id="edge150" class="edge">
<title>Node120&#45;&gt;Node102</title>
<path fill="none" stroke="#63b8ff" d="M2639.09,-791.75C2645.86,-784.43 2655.72,-773.76 2664.06,-764.74"/>
<polygon fill="#63b8ff" stroke="#63b8ff" points="2666.49,-767.27 2670.71,-757.55 2661.35,-762.52 2666.49,-767.27"/>
</g>
<!-- Node120&#45;&gt;Node119 -->
<g id="edge149" class="edge">
<title>Node120&#45;&gt;Node119</title>
<path fill="none" stroke="#63b8ff" d="M2608.78,-791.51C2587.86,-783.04 2556.27,-770.27 2532.52,-760.66"/>
<polygon fill="#63b8ff" stroke="#63b8ff" points="2533.88,-757.43 2523.3,-756.93 2531.25,-763.92 2533.88,-757.43"/>
</g>
<!-- Node104&#45;&gt;Node5 -->
<g id="edge153" class="edge">
<title>Node104&#45;&gt;Node5</title>
<path fill="none" stroke="#63b8ff" d="M1456.43,-489.12C1401.08,-473.69 1282.84,-441.35 1182,-418 888.25,-349.99 780.39,-416.4 522,-261 442.55,-213.21 434.67,-174.38 410,-85 405.5,-68.71 402.64,-49.71 400.97,-35.78"/>
<polygon fill="#63b8ff" stroke="#63b8ff" points="404.48,-35.69 399.92,-26.13 397.52,-36.45 404.48,-35.69"/>
</g>
<!-- Node104&#45;&gt;Node6 -->
<g id="edge154" class="edge">
<title>Node104&#45;&gt;Node6</title>
<path fill="none" stroke="#63b8ff" d="M1496.36,-489.27C1519.67,-465.24 1588.03,-396.95 1654,-352 1730.54,-299.85 1892.37,-311.37 1831,-242 1787.53,-192.87 1590.88,-244.82 1538,-206 1482.54,-165.29 1470.38,-76.04 1467.73,-36.06"/>
<polygon fill="#63b8ff" stroke="#63b8ff" points="1471.23,-36.06 1467.23,-26.25 1464.24,-36.41 1471.23,-36.06"/>
</g>
<!-- Node104&#45;&gt;Node9 -->
<g id="edge156" class="edge">
<title>Node104&#45;&gt;Node9</title>
<path fill="none" stroke="#63b8ff" d="M1516.41,-489.05C1564.16,-474.06 1663.56,-443.05 1748,-418 1850.37,-387.63 1875.75,-379.21 1979,-352 2044.88,-334.64 2064.79,-341.42 2128,-316 2188.61,-291.63 2198.31,-274.46 2255,-242 2283.32,-225.78 2293.76,-226.69 2319,-206 2339.53,-189.17 2358.76,-165.26 2370.68,-149.1"/>
<polygon fill="#63b8ff" stroke="#63b8ff" points="2373.22,-151.56 2376.22,-141.4 2367.53,-147.48 2373.22,-151.56"/>
</g>
<!-- Node104&#45;&gt;Node53 -->
<g id="edge155" class="edge">
<title>Node104&#45;&gt;Node53</title>
<path fill="none" stroke="#63b8ff" d="M1485.44,-489.26C1475.14,-454.14 1436.6,-322.75 1421.82,-272.35"/>
<polygon fill="#63b8ff" stroke="#63b8ff" points="1425.21,-271.45 1419.03,-262.84 1418.49,-273.42 1425.21,-271.45"/>
</g>
<!-- Node104&#45;&gt;Node59 -->
<g id="edge157" class="edge">
<title>Node104&#45;&gt;Node59</title>
<path fill="none" stroke="#63b8ff" d="M1440.66,-490.44C1381.49,-480.91 1277.16,-463.86 1188,-448 1182.73,-447.06 1177.24,-446.07 1171.76,-445.05"/>
<polygon fill="#63b8ff" stroke="#63b8ff" points="1172.51,-441.63 1162.04,-443.24 1171.23,-448.52 1172.51,-441.63"/>
</g>
<!-- Node121&#45;&gt;Node3 -->
<g id="edge166" class="edge">
<title>Node121&#45;&gt;Node3</title>
<path fill="none" stroke="#63b8ff" d="M3615.64,-846.61C3610.97,-828.25 3601,-784.7 3601,-747.5 3601,-747.5 3601,-747.5 3601,-129.5 3601,-36.54 3455.52,-19.38 3386.96,-16.45"/>
<polygon fill="#63b8ff" stroke="#63b8ff" points="3387.5,-12.97 3377.39,-16.13 3387.26,-19.96 3387.5,-12.97"/>
</g>
<!-- Node122&#45;&gt;Node3 -->
<g id="edge168" class="edge">
<title>Node122&#45;&gt;Node3</title>
<path fill="none" stroke="#63b8ff" d="M3252.42,-903.21C3340.58,-889.48 3509,-856.2 3509,-802.5 3509,-802.5 3509,-802.5 3509,-129.5 3509,-69.66 3433.16,-38.17 3386.9,-24.53"/>
<polygon fill="#63b8ff" stroke="#63b8ff" points="3387.88,-21.17 3377.3,-21.85 3385.99,-27.91 3387.88,-21.17"/>
</g>
<!-- Node122&#45;&gt;Node4 -->
<g id="edge169" class="edge">
<title>Node122&#45;&gt;Node4</title>
<path fill="none" stroke="#63b8ff" d="M3147.53,-907.34C2997.63,-898.33 2567.13,-872.43 2393.21,-861.96"/>
<polygon fill="#63b8ff" stroke="#63b8ff" points="2393.59,-858.48 2383.4,-861.37 2393.17,-865.47 2393.59,-858.48"/>
</g>
<!-- Node107&#45;&gt;Node5 -->
<g id="edge171" class="edge">
<title>Node107&#45;&gt;Node5</title>
<path fill="none" stroke="#63b8ff" d="M651.81,-560.54C560.07,-554.32 384.58,-539.46 328,-514 249.65,-478.75 114,-277.92 114,-192 114,-192 114,-192 114,-129.5 114,-99.33 114.91,-85.42 138,-66 172.08,-37.33 303.19,-23.47 365.61,-18.38"/>
<polygon fill="#63b8ff" stroke="#63b8ff" points="365.57,-21.9 375.26,-17.63 365.02,-14.92 365.57,-21.9"/>
</g>
<!-- Node107&#45;&gt;Node6 -->
<g id="edge172" class="edge">
<title>Node107&#45;&gt;Node6</title>
<path fill="none" stroke="#63b8ff" d="M651.66,-555.85C548.44,-539.57 342,-498.89 342,-434 342,-434 342,-434 342,-366 342,-226.44 465.77,-235.53 592,-176 702.53,-123.87 725.47,-95.74 844,-66 954.77,-38.21 1304.57,-22.32 1425.44,-17.54"/>
<polygon fill="#63b8ff" stroke="#63b8ff" points="1425.36,-21.05 1435.22,-17.16 1425.09,-14.05 1425.36,-21.05"/>
</g>
<!-- Node107&#45;&gt;Node9 -->
<g id="edge173" class="edge">
<title>Node107&#45;&gt;Node9</title>
<path fill="none" stroke="#63b8ff" d="M766.45,-562.99C943.64,-559.54 1473.96,-546.57 1544,-514 1634.08,-472.11 1609.59,-397.31 1698,-352 1802.6,-298.39 1845.39,-342.09 1960,-316 2037.84,-298.28 2056.87,-290.64 2131,-261 2183.23,-240.12 2197.3,-235.83 2245,-206 2263.24,-194.59 2264.58,-187.13 2283,-176 2303.49,-163.62 2328.03,-152.65 2347.67,-144.7"/>
<polygon fill="#63b8ff" stroke="#63b8ff" points="2348.89,-147.98 2356.9,-141.05 2346.32,-141.47 2348.89,-147.98"/>
</g>
<!-- Node107&#45;&gt;Node27 -->
<g id="edge176" class="edge">
<title>Node107&#45;&gt;Node27</title>
<path fill="none" stroke="#63b8ff" d="M651.68,-560.23C619.7,-554.84 582.33,-542.38 562,-514 554.24,-503.16 557.35,-496.5 562,-484 613.11,-346.62 699.7,-362.97 805,-261 821.29,-245.22 837.14,-224.61 847.6,-210.04"/>
<polygon fill="#63b8ff" stroke="#63b8ff" points="850.44,-212.08 853.33,-201.89 844.72,-208.06 850.44,-212.08"/>
</g>
<!-- Node107&#45;&gt;Node43 -->
<g id="edge177" class="edge">
<title>Node107&#45;&gt;Node43</title>
<path fill="none" stroke="#63b8ff" d="M651.81,-556.76C601.69,-549.1 534.34,-535.16 518,-514 474,-457.01 511.53,-423.71 518,-352 520.23,-327.26 510.71,-314.85 528,-297 546.52,-277.87 610.37,-266.14 662.32,-259.56"/>
<polygon fill="#63b8ff" stroke="#63b8ff" points="662.53,-263.06 672.03,-258.38 661.68,-256.12 662.53,-263.06"/>
</g>
<!-- Node107&#45;&gt;Node59 -->
<g id="edge174" class="edge">
<title>Node107&#45;&gt;Node59</title>
<path fill="none" stroke="#63b8ff" d="M766.28,-563.68C830.36,-561.33 935.91,-551.41 1018,-514 1035.26,-506.13 1073.75,-471.67 1096.4,-450.63"/>
<polygon fill="#63b8ff" stroke="#63b8ff" points="1098.75,-453.22 1103.66,-443.84 1093.97,-448.11 1098.75,-453.22"/>
</g>
<!-- Node107&#45;&gt;Node62 -->
<g id="edge175" class="edge">
<title>Node107&#45;&gt;Node62</title>
<path fill="none" stroke="#63b8ff" d="M739.31,-555.1C777.44,-543.91 843.06,-524.64 885.74,-512.11"/>
<polygon fill="#63b8ff" stroke="#63b8ff" points="886.53,-515.53 895.14,-509.35 884.56,-508.81 886.53,-515.53"/>
</g>
<!-- Node107&#45;&gt;Node96 -->
<g id="edge178" class="edge">
<title>Node107&#45;&gt;Node96</title>
<path fill="none" stroke="#63b8ff" d="M766.3,-563.45C910.85,-561.51 1301.82,-552.78 1625,-514 1888.51,-482.38 2197.01,-416.11 2334.93,-384.92"/>
<polygon fill="#63b8ff" stroke="#63b8ff" points="2335.3,-388.42 2344.28,-382.8 2333.75,-381.59 2335.3,-388.42"/>
</g>
<!-- Node108 -->
<g id="node48" class="node">
<title>Node108</title>
<g id="a_node48"><a xlink:href="../../d9/da6/periodic__variables__container_8h.html" target="_top" xlink:title=" ">
<polygon fill="#fff0f0" stroke="red" points="697,-514 571,-514 571,-484 697,-484 697,-514"/>
<text text-anchor="start" x="579" y="-502" font-family="Helvetica,sans-Serif" font-size="10.00">containers/periodic</text>
<text text-anchor="middle" x="634" y="-491" font-family="Helvetica,sans-Serif" font-size="10.00">_variables_container.h</text>
</a>
</g>
</g>
<!-- Node107&#45;&gt;Node108 -->
<g id="edge179" class="edge">
<title>Node107&#45;&gt;Node108</title>
<path fill="none" stroke="#63b8ff" d="M698.57,-555.1C688.47,-546.48 672.75,-533.07 659.35,-521.63"/>
<polygon fill="#63b8ff" stroke="#63b8ff" points="662,-519.29 652.12,-515.46 657.45,-524.61 662,-519.29"/>
</g>
<!-- Node109 -->
<g id="node49" class="node">
<title>Node109</title>
<g id="a_node49"><a xlink:href="../../d0/d9c/table__stream__utility_8h.html" target="_top" xlink:title=" ">
<polygon fill="#fff0f0" stroke="red" points="871.5,-448 750.5,-448 750.5,-418 871.5,-418 871.5,-448"/>
<text text-anchor="start" x="758.5" y="-436" font-family="Helvetica,sans-Serif" font-size="10.00">utilities/table_stream</text>
<text text-anchor="middle" x="811" y="-425" font-family="Helvetica,sans-Serif" font-size="10.00">_utility.h</text>
</a>
</g>
</g>
<!-- Node107&#45;&gt;Node109 -->
<g id="edge185" class="edge">
<title>Node107&#45;&gt;Node109</title>
<path fill="none" stroke="#63b8ff" d="M716.01,-555.06C731.69,-535.08 769.99,-486.26 792.89,-457.09"/>
<polygon fill="#63b8ff" stroke="#63b8ff" points="795.38,-459.58 798.8,-449.55 789.87,-455.26 795.38,-459.58"/>
</g>
<!-- Node112 -->
<g id="node50" class="node">
<title>Node112</title>
<g id="a_node50"><a xlink:href="../../d8/da9/adjoint__extensions_8h.html" target="_top" xlink:title=" ">
<polygon fill="#fff0f0" stroke="red" points="3177,-200.5 3019,-200.5 3019,-181.5 3177,-181.5 3177,-200.5"/>
<text text-anchor="middle" x="3098" y="-188.5" font-family="Helvetica,sans-Serif" font-size="10.00">utilities/adjoint_extensions.h</text>
</a>
</g>
</g>
<!-- Node107&#45;&gt;Node112 -->
<g id="edge187" class="edge">
<title>Node107&#45;&gt;Node112</title>
<path fill="none" stroke="#63b8ff" d="M766.29,-561.33C922.47,-554.02 1368.86,-532.97 1740,-514 2285.85,-486.1 2431.95,-554.71 2968,-448 3054.44,-430.79 3104.1,-453.95 3155,-382 3193.91,-327.01 3140.08,-245.12 3112.52,-209.55"/>
<polygon fill="#63b8ff" stroke="#63b8ff" points="3115.45,-207.62 3106.48,-201.99 3109.98,-211.99 3115.45,-207.62"/>
</g>
<!-- Node108&#45;&gt;Node5 -->
<g id="edge180" class="edge">
<title>Node108&#45;&gt;Node5</title>
<path fill="none" stroke="#63b8ff" d="M570.78,-490.04C531.73,-483.13 481.7,-470.52 442,-448 338.95,-389.53 315.34,-361.13 252,-261 234.64,-233.56 228,-224.47 228,-192 228,-192 228,-192 228,-129.5 228,-99.33 230.31,-86.97 252,-66 282.89,-36.13 332.32,-24.07 365.21,-19.22"/>
<polygon fill="#63b8ff" stroke="#63b8ff" points="365.55,-22.71 375.02,-17.94 364.65,-15.77 365.55,-22.71"/>
</g>
<!-- Node108&#45;&gt;Node6 -->
<g id="edge181" class="edge">
<title>Node108&#45;&gt;Node6</title>
<path fill="none" stroke="#63b8ff" d="M580.11,-483.53C527.72,-465.8 456,-430.18 456,-368 456,-368 456,-368 456,-305.5 456,-188.96 582.16,-232.65 684,-176 780.23,-122.48 799.52,-94.07 906,-66 1004.28,-40.09 1312.9,-23.29 1425.43,-17.89"/>
<polygon fill="#63b8ff" stroke="#63b8ff" points="1425.28,-21.4 1435.1,-17.43 1424.95,-14.41 1425.28,-21.4"/>
</g>
<!-- Node108&#45;&gt;Node9 -->
<g id="edge182" class="edge">
<title>Node108&#45;&gt;Node9</title>
<path fill="none" stroke="#63b8ff" d="M647.64,-483.7C666.59,-464.9 702.85,-432.54 741,-418 914.41,-351.9 973.03,-406.42 1157,-382 1375.04,-353.06 1930.6,-296.65 2131,-206 2150.61,-197.13 2149.5,-185.1 2169,-176 2217.61,-153.31 2277.79,-142.11 2321.94,-136.63"/>
<polygon fill="#63b8ff" stroke="#63b8ff" points="2322.34,-140.11 2331.87,-135.47 2321.53,-133.15 2322.34,-140.11"/>
</g>
<!-- Node108&#45;&gt;Node19 -->
<g id="edge183" class="edge">
<title>Node108&#45;&gt;Node19</title>
<path fill="none" stroke="#63b8ff" d="M628.62,-483.8C623,-466.27 616.91,-436.53 632,-418 700.71,-333.67 1037.2,-313.68 1183.67,-308.95"/>
<polygon fill="#63b8ff" stroke="#63b8ff" points="1183.74,-312.45 1193.63,-308.65 1183.52,-305.46 1183.74,-312.45"/>
</g>
<!-- Node108&#45;&gt;Node59 -->
<g id="edge184" class="edge">
<title>Node108&#45;&gt;Node59</title>
<path fill="none" stroke="#63b8ff" d="M697.25,-489.57C786.57,-477.66 949.18,-455.98 1042.69,-443.51"/>
<polygon fill="#63b8ff" stroke="#63b8ff" points="1043.07,-446.99 1052.52,-442.2 1042.14,-440.05 1043.07,-446.99"/>
</g>
<!-- Node109&#45;&gt;Node19 -->
<g id="edge186" class="edge">
<title>Node109&#45;&gt;Node19</title>
<path fill="none" stroke="#63b8ff" d="M849.01,-417.63C895.31,-400.47 976.12,-371.64 1047,-352 1095.28,-338.62 1150.87,-326.77 1191.97,-318.67"/>
<polygon fill="#63b8ff" stroke="#63b8ff" points="1192.53,-322.13 1201.67,-316.78 1191.19,-315.26 1192.53,-322.13"/>
</g>
<!-- Node112&#45;&gt;Node3 -->
<g id="edge188" class="edge">
<title>Node112&#45;&gt;Node3</title>
<path fill="none" stroke="#63b8ff" d="M3102.92,-181.04C3115.8,-158.37 3152.84,-98.27 3200,-66 3235.73,-41.55 3284.3,-28.34 3316.82,-21.74"/>
<polygon fill="#63b8ff" stroke="#63b8ff" points="3317.37,-25.2 3326.54,-19.89 3316.06,-18.32 3317.37,-25.2"/>
</g>
<!-- Node112&#45;&gt;Node9 -->
<g id="edge189" class="edge">
<title>Node112&#45;&gt;Node9</title>
<path fill="none" stroke="#63b8ff" d="M3018.9,-183.43C2990.55,-181.07 2958.34,-178.41 2929,-176 2752.85,-161.53 2544.72,-144.62 2443.86,-136.43"/>
<polygon fill="#63b8ff" stroke="#63b8ff" points="2444.45,-132.97 2434.2,-135.65 2443.88,-139.95 2444.45,-132.97"/>
</g>
</g>
</svg>
