<?xml version="1.0" encoding="UTF-8" standalone="no"?>
<!DOCTYPE svg PUBLIC "-//W3C//DTD SVG 1.1//EN"
 "http://www.w3.org/Graphics/SVG/1.1/DTD/svg11.dtd">
<!-- Generated by graphviz version 2.43.0 (0)
 -->
<!-- Title: /home/runner/work/Documentation/Documentation/master/applications/ThermalDEMApplication/custom_utilities/tesselation_utilities_3d.h Pages: 1 -->
<svg width="3399pt" height="1123pt"
 viewBox="0.00 0.00 3399.00 1123.00" xmlns="http://www.w3.org/2000/svg" xmlns:xlink="http://www.w3.org/1999/xlink">
<g id="graph0" class="graph" transform="scale(1 1) rotate(0) translate(4 1119)">
<title>/home/runner/work/Documentation/Documentation/master/applications/ThermalDEMApplication/custom_utilities/tesselation_utilities_3d.h</title>
<!-- Node1 -->
<g id="node1" class="node">
<title>Node1</title>
<g id="a_node1"><a xlink:title=" ">
<polygon fill="#bfbfbf" stroke="black" points="983,-1062.5 983,-1114.5 1201,-1114.5 1201,-1062.5 983,-1062.5"/>
<text text-anchor="start" x="991" y="-1102.5" font-family="Helvetica,sans-Serif" font-size="10.00">/home/runner/work/Documentation</text>
<text text-anchor="start" x="991" y="-1091.5" font-family="Helvetica,sans-Serif" font-size="10.00">/Documentation/master/applications</text>
<text text-anchor="start" x="991" y="-1080.5" font-family="Helvetica,sans-Serif" font-size="10.00">/ThermalDEMApplication/custom_utilities</text>
<text text-anchor="middle" x="1092" y="-1069.5" font-family="Helvetica,sans-Serif" font-size="10.00">/tesselation_utilities_3d.h</text>
</a>
</g>
</g>
<!-- Node2 -->
<g id="node2" class="node">
<title>Node2</title>
<g id="a_node2"><a xlink:href="../../dd/dfe/model__part_8h.html" target="_top" xlink:title=" ">
<polygon fill="none" stroke="black" points="1593.5,-872.5 1593.5,-891.5 1718.5,-891.5 1718.5,-872.5 1593.5,-872.5"/>
<text text-anchor="middle" x="1656" y="-879.5" font-family="Helvetica,sans-Serif" font-size="10.00">includes/model_part.h</text>
</a>
</g>
</g>
<!-- Node1&#45;&gt;Node2 -->
<g id="edge1" class="edge">
<title>Node1&#45;&gt;Node2</title>
<path fill="none" stroke="midnightblue" d="M1046.21,-1062.41C1018.35,-1043.94 991.55,-1018.11 1011,-995 1083.46,-908.87 1429.92,-888.97 1583,-884.38"/>
<polygon fill="midnightblue" stroke="midnightblue" points="1583.35,-887.87 1593.24,-884.09 1583.15,-880.87 1583.35,-887.87"/>
</g>
<!-- Node120 -->
<g id="node43" class="node">
<title>Node120</title>
<g id="a_node43"><a xlink:title=" ">
<polygon fill="none" stroke="#bfbfbf" points="1182.5,-1001 1182.5,-1020 1239.5,-1020 1239.5,-1001 1182.5,-1001"/>
<text text-anchor="middle" x="1211" y="-1008" font-family="Helvetica,sans-Serif" font-size="10.00">tetgen.h</text>
</a>
</g>
</g>
<!-- Node1&#45;&gt;Node120 -->
<g id="edge156" class="edge">
<title>Node1&#45;&gt;Node120</title>
<path fill="none" stroke="midnightblue" d="M1131.29,-1062.4C1150.42,-1050.19 1172.71,-1035.95 1188.85,-1025.65"/>
<polygon fill="midnightblue" stroke="midnightblue" points="1191.02,-1028.41 1197.57,-1020.08 1187.26,-1022.51 1191.02,-1028.41"/>
</g>
<!-- Node121 -->
<g id="node44" class="node">
<title>Node121</title>
<g id="a_node44"><a xlink:href="../../d2/d06/thermal__spheric__particle_8h.html" target="_top" xlink:title=" ">
<polygon fill="none" stroke="black" points="1019.5,-995.5 1019.5,-1025.5 1164.5,-1025.5 1164.5,-995.5 1019.5,-995.5"/>
<text text-anchor="start" x="1027.5" y="-1013.5" font-family="Helvetica,sans-Serif" font-size="10.00">custom_elements/thermal</text>
<text text-anchor="middle" x="1092" y="-1002.5" font-family="Helvetica,sans-Serif" font-size="10.00">_spheric_particle.h</text>
</a>
</g>
</g>
<!-- Node1&#45;&gt;Node121 -->
<g id="edge157" class="edge">
<title>Node1&#45;&gt;Node121</title>
<path fill="none" stroke="midnightblue" d="M1092,-1062.19C1092,-1053.79 1092,-1044.44 1092,-1036.09"/>
<polygon fill="midnightblue" stroke="midnightblue" points="1095.5,-1035.85 1092,-1025.85 1088.5,-1035.85 1095.5,-1035.85"/>
</g>
<!-- Node3 -->
<g id="node3" class="node">
<title>Node3</title>
<g id="a_node3"><a xlink:title=" ">
<polygon fill="none" stroke="#bfbfbf" points="442,-6 442,-25 486,-25 486,-6 442,-6"/>
<text text-anchor="middle" x="464" y="-13" font-family="Helvetica,sans-Serif" font-size="10.00">string</text>
</a>
</g>
</g>
<!-- Node2&#45;&gt;Node3 -->
<g id="edge2" class="edge">
<title>Node2&#45;&gt;Node3</title>
<path fill="none" stroke="midnightblue" d="M1593.24,-879.95C1377.88,-876.15 676.81,-861.88 579,-836 297.87,-761.63 57,-732.3 57,-441.5 57,-441.5 57,-441.5 57,-132 57,-95 76.87,-85.34 109,-67 163.86,-35.68 354.86,-22.28 431.66,-18.07"/>
<polygon fill="midnightblue" stroke="midnightblue" points="431.91,-21.56 441.71,-17.54 431.54,-14.57 431.91,-21.56"/>
</g>
<!-- Node4 -->
<g id="node4" class="node">
<title>Node4</title>
<g id="a_node4"><a xlink:title=" ">
<polygon fill="none" stroke="#bfbfbf" points="2411,-6 2411,-25 2471,-25 2471,-6 2411,-6"/>
<text text-anchor="middle" x="2441" y="-13" font-family="Helvetica,sans-Serif" font-size="10.00">iostream</text>
</a>
</g>
</g>
<!-- Node2&#45;&gt;Node4 -->
<g id="edge3" class="edge">
<title>Node2&#45;&gt;Node4</title>
<path fill="none" stroke="midnightblue" d="M1718.67,-881.06C1957.57,-881 2803.38,-877.78 2916,-836 2966.7,-817.19 3011,-814.07 3011,-760 3011,-760 3011,-760 3011,-311 3011,-173.83 2940.92,-135.37 2822,-67 2764.6,-34 2567.2,-21.81 2481.38,-18"/>
<polygon fill="midnightblue" stroke="midnightblue" points="2481.38,-14.5 2471.24,-17.57 2481.08,-21.5 2481.38,-14.5"/>
</g>
<!-- Node5 -->
<g id="node5" class="node">
<title>Node5</title>
<g id="a_node5"><a xlink:title=" ">
<polygon fill="none" stroke="#bfbfbf" points="3002,-6 3002,-25 3058,-25 3058,-6 3002,-6"/>
<text text-anchor="middle" x="3030" y="-13" font-family="Helvetica,sans-Serif" font-size="10.00">sstream</text>
</a>
</g>
</g>
<!-- Node2&#45;&gt;Node5 -->
<g id="edge4" class="edge">
<title>Node2&#45;&gt;Node5</title>
<path fill="none" stroke="midnightblue" d="M1718.74,-881.31C1964.02,-882.18 2850.37,-882.08 2967,-836 3095.46,-785.25 3201,-769.62 3201,-631.5 3201,-631.5 3201,-631.5 3201,-439.5 3201,-271.52 3246.79,-194.14 3137,-67 3119.11,-46.28 3090.84,-33.45 3067.86,-25.9"/>
<polygon fill="midnightblue" stroke="midnightblue" points="3068.64,-22.48 3058.05,-22.89 3066.58,-29.17 3068.64,-22.48"/>
</g>
<!-- Node6 -->
<g id="node6" class="node">
<title>Node6</title>
<g id="a_node6"><a xlink:title=" ">
<polygon fill="none" stroke="#bfbfbf" points="2485.5,-302.5 2485.5,-321.5 2538.5,-321.5 2538.5,-302.5 2485.5,-302.5"/>
<text text-anchor="middle" x="2512" y="-309.5" font-family="Helvetica,sans-Serif" font-size="10.00">cstddef</text>
</a>
</g>
</g>
<!-- Node2&#45;&gt;Node6 -->
<g id="edge5" class="edge">
<title>Node2&#45;&gt;Node6</title>
<path fill="none" stroke="midnightblue" d="M1718.51,-881.07C1958.97,-880.54 2811,-870.83 2811,-760 2811,-760 2811,-760 2811,-629.5 2811,-475.03 2712.23,-457.42 2594,-358 2578.31,-344.81 2558.16,-333.68 2541.76,-325.8"/>
<polygon fill="midnightblue" stroke="midnightblue" points="2543.14,-322.58 2532.6,-321.54 2540.19,-328.93 2543.14,-322.58"/>
</g>
<!-- Node7 -->
<g id="node7" class="node">
<title>Node7</title>
<g id="a_node7"><a xlink:href="../../df/d67/define_8h.html" target="_top" xlink:title=" ">
<polygon fill="none" stroke="black" points="1096.5,-123.5 1096.5,-142.5 1195.5,-142.5 1195.5,-123.5 1096.5,-123.5"/>
<text text-anchor="middle" x="1146" y="-130.5" font-family="Helvetica,sans-Serif" font-size="10.00">includes/define.h</text>
</a>
</g>
</g>
<!-- Node2&#45;&gt;Node7 -->
<g id="edge6" class="edge">
<title>Node2&#45;&gt;Node7</title>
<path fill="none" stroke="midnightblue" d="M1593.18,-879.76C1393.53,-875.59 781.61,-860.9 696,-836 630.63,-816.99 563,-828.08 563,-760 563,-760 563,-760 563,-629.5 563,-458.8 515.57,-402.38 584,-246 600.63,-207.99 611.56,-196.87 649,-179 724.89,-142.77 971.51,-135.61 1086.26,-134.27"/>
<polygon fill="midnightblue" stroke="midnightblue" points="1086.32,-137.77 1096.28,-134.16 1086.25,-130.77 1086.32,-137.77"/>
</g>
<!-- Node18 -->
<g id="node13" class="node">
<title>Node18</title>
<g id="a_node13"><a xlink:href="../../dd/d5f/serializer_8h.html" target="_top" xlink:title=" ">
<polygon fill="none" stroke="black" points="1769.5,-302.5 1769.5,-321.5 1882.5,-321.5 1882.5,-302.5 1769.5,-302.5"/>
<text text-anchor="middle" x="1826" y="-309.5" font-family="Helvetica,sans-Serif" font-size="10.00">includes/serializer.h</text>
</a>
</g>
</g>
<!-- Node2&#45;&gt;Node18 -->
<g id="edge19" class="edge">
<title>Node2&#45;&gt;Node18</title>
<path fill="none" stroke="midnightblue" d="M1718.7,-881.74C1923.5,-882.58 2565.74,-872.3 2673,-713 2870.11,-420.25 2124.3,-336.38 1892.63,-317.63"/>
<polygon fill="midnightblue" stroke="midnightblue" points="1892.89,-314.14 1882.64,-316.84 1892.34,-321.12 1892.89,-314.14"/>
</g>
<!-- Node52 -->
<g id="node24" class="node">
<title>Node52</title>
<g id="a_node24"><a xlink:href="../../d1/d8c/logger_8h.html" target="_top" xlink:title=" ">
<polygon fill="none" stroke="red" points="2141,-246.5 2141,-265.5 2261,-265.5 2261,-246.5 2141,-246.5"/>
<text text-anchor="middle" x="2201" y="-253.5" font-family="Helvetica,sans-Serif" font-size="10.00">input_output/logger.h</text>
</a>
</g>
</g>
<!-- Node2&#45;&gt;Node52 -->
<g id="edge148" class="edge">
<title>Node2&#45;&gt;Node52</title>
<path fill="none" stroke="midnightblue" d="M1718.84,-879.81C1929.47,-875.62 2602.65,-860.43 2697,-836 2770.12,-817.06 2849,-835.53 2849,-760 2849,-760 2849,-760 2849,-696.5 2849,-475.96 2753.23,-382.74 2548,-302 2433.52,-256.96 2393.37,-281.3 2271.3,-266.64"/>
<polygon fill="midnightblue" stroke="midnightblue" points="2271.56,-263.14 2261.2,-265.36 2270.68,-270.09 2271.56,-263.14"/>
</g>
<!-- Node56 -->
<g id="node25" class="node">
<title>Node56</title>
<g id="a_node25"><a xlink:href="../../de/db8/process__info_8h.html" target="_top" xlink:title=" ">
<polygon fill="none" stroke="black" points="1577.5,-621 1577.5,-640 1708.5,-640 1708.5,-621 1577.5,-621"/>
<text text-anchor="middle" x="1643" y="-628" font-family="Helvetica,sans-Serif" font-size="10.00">includes/process_info.h</text>
</a>
</g>
</g>
<!-- Node2&#45;&gt;Node56 -->
<g id="edge53" class="edge">
<title>Node2&#45;&gt;Node56</title>
<path fill="none" stroke="midnightblue" d="M1647.07,-872.49C1629.52,-855.06 1591.03,-813.23 1577,-769 1562.34,-722.77 1602.45,-672.3 1626.46,-647.33"/>
<polygon fill="midnightblue" stroke="midnightblue" points="1629.02,-649.71 1633.59,-640.15 1624.06,-644.77 1629.02,-649.71"/>
</g>
<!-- Node57 -->
<g id="node26" class="node">
<title>Node57</title>
<g id="a_node26"><a xlink:href="../../d1/d82/data__value__container_8h.html" target="_top" xlink:title=" ">
<polygon fill="none" stroke="black" points="1788.5,-548.5 1788.5,-578.5 1913.5,-578.5 1913.5,-548.5 1788.5,-548.5"/>
<text text-anchor="start" x="1796.5" y="-566.5" font-family="Helvetica,sans-Serif" font-size="10.00">containers/data_value</text>
<text text-anchor="middle" x="1851" y="-555.5" font-family="Helvetica,sans-Serif" font-size="10.00">_container.h</text>
</a>
</g>
</g>
<!-- Node2&#45;&gt;Node57 -->
<g id="edge84" class="edge">
<title>Node2&#45;&gt;Node57</title>
<path fill="none" stroke="midnightblue" d="M1718.87,-873.74C1768.8,-866.72 1833.24,-854.4 1852,-836 1876.86,-811.62 1871,-794.82 1871,-760 1871,-760 1871,-760 1871,-696.5 1871,-658.41 1862.76,-614.82 1856.85,-588.49"/>
<polygon fill="midnightblue" stroke="midnightblue" points="1860.24,-587.61 1854.58,-578.65 1853.42,-589.18 1860.24,-587.61"/>
</g>
<!-- Node58 -->
<g id="node27" class="node">
<title>Node58</title>
<g id="a_node27"><a xlink:href="../../da/d89/variable_8h.html" target="_top" xlink:title=" ">
<polygon fill="none" stroke="red" points="1414.5,-431 1414.5,-450 1533.5,-450 1533.5,-431 1414.5,-431"/>
<text text-anchor="middle" x="1474" y="-438" font-family="Helvetica,sans-Serif" font-size="10.00">containers/variable.h</text>
</a>
</g>
</g>
<!-- Node2&#45;&gt;Node58 -->
<g id="edge154" class="edge">
<title>Node2&#45;&gt;Node58</title>
<path fill="none" stroke="midnightblue" d="M1593.48,-872.6C1492.32,-857.23 1304,-820.5 1304,-760 1304,-760 1304,-760 1304,-629.5 1304,-544.72 1400.28,-481.07 1447.93,-454.76"/>
<polygon fill="midnightblue" stroke="midnightblue" points="1449.62,-457.83 1456.76,-450 1446.3,-451.66 1449.62,-457.83"/>
</g>
<!-- Node59 -->
<g id="node28" class="node">
<title>Node59</title>
<g id="a_node28"><a xlink:href="../../d3/dc3/variable__data_8h.html" target="_top" xlink:title=" ">
<polygon fill="none" stroke="red" points="1969,-364 1969,-383 2061,-383 2061,-364 1969,-364"/>
<text text-anchor="middle" x="2015" y="-371" font-family="Helvetica,sans-Serif" font-size="10.00">variable_data.h</text>
</a>
</g>
</g>
<!-- Node2&#45;&gt;Node59 -->
<g id="edge155" class="edge">
<title>Node2&#45;&gt;Node59</title>
<path fill="none" stroke="midnightblue" d="M1718.58,-878.69C1915.1,-870.61 2507,-839.65 2507,-760 2507,-760 2507,-760 2507,-696.5 2507,-490.26 2200.58,-409 2071.38,-383.9"/>
<polygon fill="midnightblue" stroke="midnightblue" points="2071.76,-380.41 2061.29,-381.98 2070.46,-387.29 2071.76,-380.41"/>
</g>
<!-- Node69 -->
<g id="node30" class="node">
<title>Node69</title>
<g id="a_node30"><a xlink:href="../../d8/d3b/mesh_8h.html" target="_top" xlink:title=" ">
<polygon fill="none" stroke="black" points="1997,-749.5 1997,-768.5 2093,-768.5 2093,-749.5 1997,-749.5"/>
<text text-anchor="middle" x="2045" y="-756.5" font-family="Helvetica,sans-Serif" font-size="10.00">includes/mesh.h</text>
</a>
</g>
</g>
<!-- Node2&#45;&gt;Node69 -->
<g id="edge85" class="edge">
<title>Node2&#45;&gt;Node69</title>
<path fill="none" stroke="midnightblue" d="M1718.79,-872.98C1765.43,-865.99 1830.17,-854.09 1885,-836 1935.33,-819.39 1990.41,-790.7 2021.03,-773.72"/>
<polygon fill="midnightblue" stroke="midnightblue" points="2023.07,-776.59 2030.08,-768.65 2019.65,-770.49 2023.07,-776.59"/>
</g>
<!-- Node73 -->
<g id="node32" class="node">
<title>Node73</title>
<g id="a_node32"><a xlink:href="../../d2/d58/pointer__vector__map_8h.html" target="_top" xlink:title=" ">
<polygon fill="none" stroke="red" points="2725.5,-358.5 2725.5,-388.5 2830.5,-388.5 2830.5,-358.5 2725.5,-358.5"/>
<text text-anchor="start" x="2733.5" y="-376.5" font-family="Helvetica,sans-Serif" font-size="10.00">containers/pointer</text>
<text text-anchor="middle" x="2778" y="-365.5" font-family="Helvetica,sans-Serif" font-size="10.00">_vector_map.h</text>
</a>
</g>
</g>
<!-- Node2&#45;&gt;Node73 -->
<g id="edge146" class="edge">
<title>Node2&#45;&gt;Node73</title>
<path fill="none" stroke="midnightblue" d="M1718.77,-880.87C1951.2,-880.09 2755.09,-874.61 2863,-836 2915.56,-817.2 2963,-815.82 2963,-760 2963,-760 2963,-760 2963,-696.5 2963,-567.68 2850.3,-443.79 2800.83,-395.61"/>
<polygon fill="midnightblue" stroke="midnightblue" points="2803.09,-392.94 2793.45,-388.54 2798.25,-397.99 2803.09,-392.94"/>
</g>
<!-- Node86 -->
<g id="node35" class="node">
<title>Node86</title>
<g id="a_node35"><a xlink:href="../../da/da4/master__slave__constraint_8h.html" target="_top" xlink:title=" ">
<polygon fill="none" stroke="red" points="1370,-682.5 1370,-712.5 1496,-712.5 1496,-682.5 1370,-682.5"/>
<text text-anchor="start" x="1378" y="-700.5" font-family="Helvetica,sans-Serif" font-size="10.00">includes/master_slave</text>
<text text-anchor="middle" x="1433" y="-689.5" font-family="Helvetica,sans-Serif" font-size="10.00">_constraint.h</text>
</a>
</g>
</g>
<!-- Node2&#45;&gt;Node86 -->
<g id="edge153" class="edge">
<title>Node2&#45;&gt;Node86</title>
<path fill="none" stroke="midnightblue" d="M1593.48,-873.53C1564.32,-867.41 1530.7,-856.26 1506,-836 1469.55,-806.1 1448.88,-753.11 1439.41,-722.37"/>
<polygon fill="midnightblue" stroke="midnightblue" points="1442.69,-721.12 1436.52,-712.51 1435.97,-723.09 1442.69,-721.12"/>
</g>
<!-- Node99 -->
<g id="node36" class="node">
<title>Node99</title>
<g id="a_node36"><a xlink:href="../../d3/dad/geometry__container_8h.html" target="_top" xlink:title=" ">
<polygon fill="none" stroke="black" points="697,-425.5 697,-455.5 815,-455.5 815,-425.5 697,-425.5"/>
<text text-anchor="start" x="705" y="-443.5" font-family="Helvetica,sans-Serif" font-size="10.00">containers/geometry</text>
<text text-anchor="middle" x="756" y="-432.5" font-family="Helvetica,sans-Serif" font-size="10.00">_container.h</text>
</a>
</g>
</g>
<!-- Node2&#45;&gt;Node99 -->
<g id="edge121" class="edge">
<title>Node2&#45;&gt;Node99</title>
<path fill="none" stroke="midnightblue" d="M1593.22,-879.72C1397.9,-875.5 812.1,-860.81 780,-836 751.98,-814.33 756,-795.42 756,-760 756,-760 756,-760 756,-562.5 756,-528.98 756,-490.24 756,-465.81"/>
<polygon fill="midnightblue" stroke="midnightblue" points="759.5,-465.66 756,-455.66 752.5,-465.66 759.5,-465.66"/>
</g>
<!-- Node100 -->
<g id="node37" class="node">
<title>Node100</title>
<g id="a_node37"><a xlink:href="../../da/d92/pointer__hash__map__set_8h.html" target="_top" xlink:title=" ">
<polygon fill="none" stroke="red" points="887.5,-358.5 887.5,-388.5 992.5,-388.5 992.5,-358.5 887.5,-358.5"/>
<text text-anchor="start" x="895.5" y="-376.5" font-family="Helvetica,sans-Serif" font-size="10.00">containers/pointer</text>
<text text-anchor="middle" x="940" y="-365.5" font-family="Helvetica,sans-Serif" font-size="10.00">_hash_map_set.h</text>
</a>
</g>
</g>
<!-- Node2&#45;&gt;Node100 -->
<g id="edge147" class="edge">
<title>Node2&#45;&gt;Node100</title>
<path fill="none" stroke="midnightblue" d="M1593.41,-876.49C1428.17,-863.22 986.59,-818.4 894,-713 813.19,-621.01 892.64,-457.24 926.42,-397.29"/>
<polygon fill="midnightblue" stroke="midnightblue" points="929.47,-399 931.42,-388.59 923.4,-395.52 929.47,-399"/>
</g>
<!-- Node101 -->
<g id="node38" class="node">
<title>Node101</title>
<g id="a_node38"><a xlink:href="../../d4/dfe/element_8h.html" target="_top" xlink:title=" ">
<polygon fill="none" stroke="red" points="1718,-749.5 1718,-768.5 1828,-768.5 1828,-749.5 1718,-749.5"/>
<text text-anchor="middle" x="1773" y="-756.5" font-family="Helvetica,sans-Serif" font-size="10.00">includes/element.h</text>
</a>
</g>
</g>
<!-- Node2&#45;&gt;Node101 -->
<g id="edge127" class="edge">
<title>Node2&#45;&gt;Node101</title>
<path fill="none" stroke="midnightblue" d="M1658.72,-872.04C1663.75,-856.72 1675.78,-825.19 1695,-805 1708.03,-791.31 1726.15,-780.51 1741.65,-772.93"/>
<polygon fill="midnightblue" stroke="midnightblue" points="1743.3,-776.02 1750.89,-768.63 1740.35,-769.68 1743.3,-776.02"/>
</g>
<!-- Node118 -->
<g id="node39" class="node">
<title>Node118</title>
<g id="a_node39"><a xlink:href="../../d7/d6c/condition_8h.html" target="_top" xlink:title=" ">
<polygon fill="none" stroke="red" points="1586,-749.5 1586,-768.5 1700,-768.5 1700,-749.5 1586,-749.5"/>
<text text-anchor="middle" x="1643" y="-756.5" font-family="Helvetica,sans-Serif" font-size="10.00">includes/condition.h</text>
</a>
</g>
</g>
<!-- Node2&#45;&gt;Node118 -->
<g id="edge129" class="edge">
<title>Node2&#45;&gt;Node118</title>
<path fill="none" stroke="midnightblue" d="M1655.07,-872.3C1652.98,-852.85 1647.89,-805.49 1645.03,-778.9"/>
<polygon fill="midnightblue" stroke="midnightblue" points="1648.47,-778.19 1643.93,-768.62 1641.51,-778.94 1648.47,-778.19"/>
</g>
<!-- Node119 -->
<g id="node40" class="node">
<title>Node119</title>
<g id="a_node40"><a xlink:href="../../d8/d75/communicator_8h.html" target="_top" xlink:title=" ">
<polygon fill="none" stroke="black" points="1703.5,-811 1703.5,-830 1842.5,-830 1842.5,-811 1703.5,-811"/>
<text text-anchor="middle" x="1773" y="-818" font-family="Helvetica,sans-Serif" font-size="10.00">includes/communicator.h</text>
</a>
</g>
</g>
<!-- Node2&#45;&gt;Node119 -->
<g id="edge131" class="edge">
<title>Node2&#45;&gt;Node119</title>
<path fill="none" stroke="midnightblue" d="M1672.76,-872.48C1692.22,-862.58 1724.55,-846.14 1747.21,-834.62"/>
<polygon fill="midnightblue" stroke="midnightblue" points="1748.94,-837.66 1756.27,-830.01 1745.77,-831.42 1748.94,-837.66"/>
</g>
<!-- Node103 -->
<g id="node41" class="node">
<title>Node103</title>
<g id="a_node41"><a xlink:href="../../dd/d98/table_8h.html" target="_top" xlink:title=" ">
<polygon fill="none" stroke="black" points="1220,-492.5 1220,-511.5 1314,-511.5 1314,-492.5 1220,-492.5"/>
<text text-anchor="middle" x="1267" y="-499.5" font-family="Helvetica,sans-Serif" font-size="10.00">includes/table.h</text>
</a>
</g>
</g>
<!-- Node2&#45;&gt;Node103 -->
<g id="edge140" class="edge">
<title>Node2&#45;&gt;Node103</title>
<path fill="none" stroke="midnightblue" d="M1593.16,-881.23C1500.89,-880.28 1334.8,-873.25 1290,-836 1262.76,-813.35 1266,-795.42 1266,-760 1266,-760 1266,-760 1266,-629.5 1266,-591.2 1266.46,-546.38 1266.76,-521.7"/>
<polygon fill="midnightblue" stroke="midnightblue" points="1270.26,-521.63 1266.89,-511.59 1263.26,-521.55 1270.26,-521.63"/>
</g>
<!-- Node98 -->
<g id="node42" class="node">
<title>Node98</title>
<g id="a_node42"><a xlink:href="../../d0/dac/kratos__flags_8h.html" target="_top" xlink:title=" ">
<polygon fill="none" stroke="black" points="591,-554 591,-573 719,-573 719,-554 591,-554"/>
<text text-anchor="middle" x="655" y="-561" font-family="Helvetica,sans-Serif" font-size="10.00">includes/kratos_flags.h</text>
</a>
</g>
</g>
<!-- Node2&#45;&gt;Node98 -->
<g id="edge149" class="edge">
<title>Node2&#45;&gt;Node98</title>
<path fill="none" stroke="midnightblue" d="M1593.27,-881C1399.1,-880.58 816.5,-875.98 742,-836 705.03,-816.16 686,-801.96 686,-760 686,-760 686,-760 686,-696.5 686,-654.89 671.22,-607.82 662.07,-582.66"/>
<polygon fill="midnightblue" stroke="midnightblue" points="665.35,-581.42 658.56,-573.29 658.8,-583.89 665.35,-581.42"/>
</g>
<!-- Node7&#45;&gt;Node5 -->
<g id="edge8" class="edge">
<title>Node7&#45;&gt;Node5</title>
<path fill="none" stroke="midnightblue" d="M1195.56,-129.88C1331.11,-123.99 1719.41,-106.61 2042,-87 2412.17,-64.5 2859.82,-29.88 2991.71,-19.52"/>
<polygon fill="midnightblue" stroke="midnightblue" points="2992.03,-23.01 3001.72,-18.74 2991.48,-16.03 2992.03,-23.01"/>
</g>
<!-- Node8 -->
<g id="node8" class="node">
<title>Node8</title>
<g id="a_node8"><a xlink:title=" ">
<polygon fill="none" stroke="#bfbfbf" points="1584.5,-6 1584.5,-25 1649.5,-25 1649.5,-6 1584.5,-6"/>
<text text-anchor="middle" x="1617" y="-13" font-family="Helvetica,sans-Serif" font-size="10.00">stdexcept</text>
</a>
</g>
</g>
<!-- Node7&#45;&gt;Node8 -->
<g id="edge7" class="edge">
<title>Node7&#45;&gt;Node8</title>
<path fill="none" stroke="midnightblue" d="M1181.02,-123.41C1265.88,-102.6 1482.33,-49.52 1574.46,-26.93"/>
<polygon fill="midnightblue" stroke="midnightblue" points="1575.4,-30.31 1584.28,-24.52 1573.73,-23.51 1575.4,-30.31"/>
</g>
<!-- Node9 -->
<g id="node9" class="node">
<title>Node9</title>
<g id="a_node9"><a xlink:href="../../dc/d25/kratos__export__api_8h.html" target="_top" xlink:title=" ">
<polygon fill="none" stroke="black" points="1082,-0.5 1082,-30.5 1210,-30.5 1210,-0.5 1082,-0.5"/>
<text text-anchor="start" x="1090" y="-18.5" font-family="Helvetica,sans-Serif" font-size="10.00">includes/kratos_export</text>
<text text-anchor="middle" x="1146" y="-7.5" font-family="Helvetica,sans-Serif" font-size="10.00">_api.h</text>
</a>
</g>
</g>
<!-- Node7&#45;&gt;Node9 -->
<g id="edge9" class="edge">
<title>Node7&#45;&gt;Node9</title>
<path fill="none" stroke="midnightblue" d="M1146,-123.32C1146,-105.97 1146,-66.46 1146,-40.66"/>
<polygon fill="midnightblue" stroke="midnightblue" points="1149.5,-40.55 1146,-30.55 1142.5,-40.55 1149.5,-40.55"/>
</g>
<!-- Node10 -->
<g id="node10" class="node">
<title>Node10</title>
<g id="a_node10"><a xlink:href="../../d9/dc0/smart__pointers_8h.html" target="_top" xlink:title=" ">
<polygon fill="none" stroke="red" points="1601.5,-67.5 1601.5,-86.5 1744.5,-86.5 1744.5,-67.5 1601.5,-67.5"/>
<text text-anchor="middle" x="1673" y="-74.5" font-family="Helvetica,sans-Serif" font-size="10.00">includes/smart_pointers.h</text>
</a>
</g>
</g>
<!-- Node7&#45;&gt;Node10 -->
<g id="edge10" class="edge">
<title>Node7&#45;&gt;Node10</title>
<path fill="none" stroke="midnightblue" d="M1195.58,-126.92C1286.4,-117.61 1480.26,-97.75 1590.99,-86.4"/>
<polygon fill="midnightblue" stroke="midnightblue" points="1591.52,-89.87 1601.11,-85.37 1590.8,-82.9 1591.52,-89.87"/>
</g>
<!-- Node14 -->
<g id="node11" class="node">
<title>Node14</title>
<g id="a_node11"><a xlink:href="../../dd/d2d/exception_8h.html" target="_top" xlink:title=" ">
<polygon fill="none" stroke="red" points="1915.5,-67.5 1915.5,-86.5 2032.5,-86.5 2032.5,-67.5 1915.5,-67.5"/>
<text text-anchor="middle" x="1974" y="-74.5" font-family="Helvetica,sans-Serif" font-size="10.00">includes/exception.h</text>
</a>
</g>
</g>
<!-- Node7&#45;&gt;Node14 -->
<g id="edge12" class="edge">
<title>Node7&#45;&gt;Node14</title>
<path fill="none" stroke="midnightblue" d="M1195.62,-128.76C1336.96,-119.55 1741.93,-93.14 1904.86,-82.51"/>
<polygon fill="midnightblue" stroke="midnightblue" points="1905.49,-85.98 1915.24,-81.83 1905.03,-78.99 1905.49,-85.98"/>
</g>
<!-- Node10&#45;&gt;Node4 -->
<g id="edge11" class="edge">
<title>Node10&#45;&gt;Node4</title>
<path fill="none" stroke="midnightblue" d="M1744.56,-70.46C1902.5,-58.22 2276.69,-29.23 2400.47,-19.64"/>
<polygon fill="midnightblue" stroke="midnightblue" points="2400.94,-23.11 2410.64,-18.85 2400.4,-16.14 2400.94,-23.11"/>
</g>
<!-- Node14&#45;&gt;Node3 -->
<g id="edge14" class="edge">
<title>Node14&#45;&gt;Node3</title>
<path fill="none" stroke="midnightblue" d="M1915.28,-70.74C1898.41,-69.37 1879.98,-67.99 1863,-67 1316.86,-35.02 649.52,-20.23 496.36,-17.13"/>
<polygon fill="midnightblue" stroke="midnightblue" points="496.3,-13.63 486.23,-16.93 496.16,-20.63 496.3,-13.63"/>
</g>
<!-- Node14&#45;&gt;Node4 -->
<g id="edge15" class="edge">
<title>Node14&#45;&gt;Node4</title>
<path fill="none" stroke="midnightblue" d="M2032.67,-68.52C2128.99,-56.25 2318.18,-32.15 2400.8,-21.62"/>
<polygon fill="midnightblue" stroke="midnightblue" points="2401.32,-25.08 2410.8,-20.35 2400.44,-18.14 2401.32,-25.08"/>
</g>
<!-- Node14&#45;&gt;Node5 -->
<g id="edge16" class="edge">
<title>Node14&#45;&gt;Node5</title>
<path fill="none" stroke="midnightblue" d="M2032.66,-72.69C2224.78,-61.87 2831.9,-27.66 2991.34,-18.68"/>
<polygon fill="midnightblue" stroke="midnightblue" points="2991.82,-22.16 3001.61,-18.1 2991.43,-15.17 2991.82,-22.16"/>
</g>
<!-- Node14&#45;&gt;Node8 -->
<g id="edge13" class="edge">
<title>Node14&#45;&gt;Node8</title>
<path fill="none" stroke="midnightblue" d="M1922.85,-67.48C1852.21,-55.7 1726.04,-34.67 1660,-23.67"/>
<polygon fill="midnightblue" stroke="midnightblue" points="1660.37,-20.18 1649.93,-21.99 1659.22,-27.08 1660.37,-20.18"/>
</g>
<!-- Node14&#45;&gt;Node9 -->
<g id="edge18" class="edge">
<title>Node14&#45;&gt;Node9</title>
<path fill="none" stroke="midnightblue" d="M1915.25,-71.12C1898.38,-69.75 1879.97,-68.29 1863,-67 1628.57,-49.24 1350.87,-30.27 1220.55,-21.49"/>
<polygon fill="midnightblue" stroke="midnightblue" points="1220.5,-17.98 1210.29,-20.8 1220.03,-24.96 1220.5,-17.98"/>
</g>
<!-- Node15 -->
<g id="node12" class="node">
<title>Node15</title>
<g id="a_node12"><a xlink:title=" ">
<polygon fill="none" stroke="#bfbfbf" points="3272.5,-6 3272.5,-25 3319.5,-25 3319.5,-6 3272.5,-6"/>
<text text-anchor="middle" x="3296" y="-13" font-family="Helvetica,sans-Serif" font-size="10.00">vector</text>
</a>
</g>
</g>
<!-- Node14&#45;&gt;Node15 -->
<g id="edge17" class="edge">
<title>Node14&#45;&gt;Node15</title>
<path fill="none" stroke="midnightblue" d="M2032.67,-74.04C2196.37,-68.48 2672.03,-51.63 3067,-31 3136.42,-27.37 3217.61,-21.95 3262.26,-18.87"/>
<polygon fill="midnightblue" stroke="midnightblue" points="3262.54,-22.36 3272.27,-18.18 3262.06,-15.38 3262.54,-22.36"/>
</g>
<!-- Node18&#45;&gt;Node3 -->
<g id="edge20" class="edge">
<title>Node18&#45;&gt;Node3</title>
<path fill="none" stroke="midnightblue" d="M1769.27,-307.22C1697.98,-301.57 1580.53,-289.06 1544,-266 1453.2,-208.69 1500.68,-119.48 1407,-67 1366.45,-44.28 657.67,-22.18 496.45,-17.44"/>
<polygon fill="midnightblue" stroke="midnightblue" points="496.31,-13.93 486.22,-17.14 496.11,-20.93 496.31,-13.93"/>
</g>
<!-- Node18&#45;&gt;Node4 -->
<g id="edge22" class="edge">
<title>Node18&#45;&gt;Node4</title>
<path fill="none" stroke="midnightblue" d="M1880.99,-302.49C1944.31,-292.35 2041.53,-275.56 2056,-266 2094.98,-240.24 2083.66,-213.65 2115,-179 2167.06,-121.43 2180.03,-102.62 2249,-67 2298.02,-41.69 2360.8,-28.28 2400.97,-21.8"/>
<polygon fill="midnightblue" stroke="midnightblue" points="2401.58,-25.24 2410.92,-20.25 2400.51,-18.33 2401.58,-25.24"/>
</g>
<!-- Node18&#45;&gt;Node5 -->
<g id="edge27" class="edge">
<title>Node18&#45;&gt;Node5</title>
<path fill="none" stroke="midnightblue" d="M1882.67,-309.17C1967.67,-305.55 2132.82,-295.11 2270,-266 2418.96,-234.39 2870.47,-73.83 2996.82,-28.46"/>
<polygon fill="midnightblue" stroke="midnightblue" points="2998.13,-31.71 3006.36,-25.03 2995.77,-25.12 2998.13,-31.71"/>
</g>
<!-- Node18&#45;&gt;Node7 -->
<g id="edge29" class="edge">
<title>Node18&#45;&gt;Node7</title>
<path fill="none" stroke="midnightblue" d="M1769.44,-309.79C1705.08,-306.86 1597.66,-297.22 1511,-266 1441.37,-240.91 1437.89,-206.07 1369,-179 1315.86,-158.12 1251.62,-146.47 1205.77,-140.29"/>
<polygon fill="midnightblue" stroke="midnightblue" points="1206.06,-136.8 1195.69,-138.98 1205.16,-143.74 1206.06,-136.8"/>
</g>
<!-- Node19 -->
<g id="node14" class="node">
<title>Node19</title>
<g id="a_node14"><a xlink:title=" ">
<polygon fill="none" stroke="#bfbfbf" points="1769,-246.5 1769,-265.5 1819,-265.5 1819,-246.5 1769,-246.5"/>
<text text-anchor="middle" x="1794" y="-253.5" font-family="Helvetica,sans-Serif" font-size="10.00">cstring</text>
</a>
</g>
</g>
<!-- Node18&#45;&gt;Node19 -->
<g id="edge21" class="edge">
<title>Node18&#45;&gt;Node19</title>
<path fill="none" stroke="midnightblue" d="M1820.72,-302.08C1816.29,-294.61 1809.84,-283.72 1804.38,-274.52"/>
<polygon fill="midnightblue" stroke="midnightblue" points="1807.29,-272.57 1799.19,-265.75 1801.27,-276.14 1807.29,-272.57"/>
</g>
<!-- Node20 -->
<g id="node15" class="node">
<title>Node20</title>
<g id="a_node15"><a xlink:title=" ">
<polygon fill="none" stroke="#bfbfbf" points="1421,-246.5 1421,-265.5 1459,-265.5 1459,-246.5 1421,-246.5"/>
<text text-anchor="middle" x="1440" y="-253.5" font-family="Helvetica,sans-Serif" font-size="10.00">map</text>
</a>
</g>
</g>
<!-- Node18&#45;&gt;Node20 -->
<g id="edge23" class="edge">
<title>Node18&#45;&gt;Node20</title>
<path fill="none" stroke="midnightblue" d="M1769.36,-306.23C1699.31,-299.78 1576.61,-286.63 1473,-266 1471.72,-265.75 1470.42,-265.47 1469.11,-265.18"/>
<polygon fill="midnightblue" stroke="midnightblue" points="1469.64,-261.7 1459.09,-262.69 1467.95,-268.49 1469.64,-261.7"/>
</g>
<!-- Node21 -->
<g id="node16" class="node">
<title>Node21</title>
<g id="a_node16"><a xlink:title=" ">
<polygon fill="none" stroke="#bfbfbf" points="967.5,-246.5 967.5,-265.5 1060.5,-265.5 1060.5,-246.5 967.5,-246.5"/>
<text text-anchor="middle" x="1014" y="-253.5" font-family="Helvetica,sans-Serif" font-size="10.00">unordered_map</text>
</a>
</g>
</g>
<!-- Node18&#45;&gt;Node21 -->
<g id="edge24" class="edge">
<title>Node18&#45;&gt;Node21</title>
<path fill="none" stroke="midnightblue" d="M1769.22,-307.22C1620.38,-297.33 1220.11,-270.71 1071,-260.79"/>
<polygon fill="midnightblue" stroke="midnightblue" points="1070.92,-257.28 1060.71,-260.11 1070.46,-264.26 1070.92,-257.28"/>
</g>
<!-- Node22 -->
<g id="node17" class="node">
<title>Node22</title>
<g id="a_node17"><a xlink:title=" ">
<polygon fill="none" stroke="#bfbfbf" points="1837,-246.5 1837,-265.5 1869,-265.5 1869,-246.5 1837,-246.5"/>
<text text-anchor="middle" x="1853" y="-253.5" font-family="Helvetica,sans-Serif" font-size="10.00">set</text>
</a>
</g>
</g>
<!-- Node18&#45;&gt;Node22 -->
<g id="edge25" class="edge">
<title>Node18&#45;&gt;Node22</title>
<path fill="none" stroke="midnightblue" d="M1830.46,-302.08C1834.15,-294.69 1839.52,-283.95 1844.09,-274.81"/>
<polygon fill="midnightblue" stroke="midnightblue" points="1847.28,-276.26 1848.62,-265.75 1841.02,-273.13 1847.28,-276.26"/>
</g>
<!-- Node23 -->
<g id="node18" class="node">
<title>Node23</title>
<g id="a_node18"><a xlink:title=" ">
<polygon fill="none" stroke="#bfbfbf" points="1887,-246.5 1887,-265.5 1973,-265.5 1973,-246.5 1887,-246.5"/>
<text text-anchor="middle" x="1930" y="-253.5" font-family="Helvetica,sans-Serif" font-size="10.00">unordered_set</text>
</a>
</g>
</g>
<!-- Node18&#45;&gt;Node23 -->
<g id="edge26" class="edge">
<title>Node18&#45;&gt;Node23</title>
<path fill="none" stroke="midnightblue" d="M1842.71,-302.32C1859.31,-293.7 1885,-280.36 1904.22,-270.39"/>
<polygon fill="midnightblue" stroke="midnightblue" points="1906.07,-273.37 1913.33,-265.65 1902.84,-267.16 1906.07,-273.37"/>
</g>
<!-- Node24 -->
<g id="node19" class="node">
<title>Node24</title>
<g id="a_node19"><a xlink:title=" ">
<polygon fill="none" stroke="#bfbfbf" points="1991.5,-246.5 1991.5,-265.5 2046.5,-265.5 2046.5,-246.5 1991.5,-246.5"/>
<text text-anchor="middle" x="2019" y="-253.5" font-family="Helvetica,sans-Serif" font-size="10.00">fstream</text>
</a>
</g>
</g>
<!-- Node18&#45;&gt;Node24 -->
<g id="edge28" class="edge">
<title>Node18&#45;&gt;Node24</title>
<path fill="none" stroke="midnightblue" d="M1856.58,-302.44C1890.49,-292.96 1945.2,-277.65 1981.62,-267.46"/>
<polygon fill="midnightblue" stroke="midnightblue" points="1982.69,-270.79 1991.38,-264.73 1980.8,-264.05 1982.69,-270.79"/>
</g>
<!-- Node25 -->
<g id="node20" class="node">
<title>Node25</title>
<g id="a_node20"><a xlink:href="../../d9/da0/flags_8h.html" target="_top" xlink:title=" ">
<polygon fill="none" stroke="black" points="617.5,-246.5 617.5,-265.5 720.5,-265.5 720.5,-246.5 617.5,-246.5"/>
<text text-anchor="middle" x="669" y="-253.5" font-family="Helvetica,sans-Serif" font-size="10.00">containers/flags.h</text>
</a>
</g>
</g>
<!-- Node18&#45;&gt;Node25 -->
<g id="edge30" class="edge">
<title>Node18&#45;&gt;Node25</title>
<path fill="none" stroke="midnightblue" d="M1769.41,-308.36C1574.76,-299.27 933.63,-269.35 730.98,-259.89"/>
<polygon fill="midnightblue" stroke="midnightblue" points="730.96,-256.39 720.81,-259.42 730.63,-263.38 730.96,-256.39"/>
</g>
<!-- Node26 -->
<g id="node21" class="node">
<title>Node26</title>
<g id="a_node21"><a xlink:href="../../d9/d3e/ublas__interface_8h.html" target="_top" xlink:title=" ">
<polygon fill="none" stroke="red" points="1611,-185 1611,-204 1755,-204 1755,-185 1611,-185"/>
<text text-anchor="middle" x="1683" y="-192" font-family="Helvetica,sans-Serif" font-size="10.00">includes/ublas_interface.h</text>
</a>
</g>
</g>
<!-- Node18&#45;&gt;Node26 -->
<g id="edge34" class="edge">
<title>Node18&#45;&gt;Node26</title>
<path fill="none" stroke="midnightblue" d="M1812.2,-302.41C1798.56,-293.73 1777.29,-279.69 1760,-266 1737.94,-248.53 1714.32,-226.32 1699.14,-211.55"/>
<polygon fill="midnightblue" stroke="midnightblue" points="1701.23,-208.69 1691.64,-204.18 1696.32,-213.68 1701.23,-208.69"/>
</g>
<!-- Node42 -->
<g id="node22" class="node">
<title>Node42</title>
<g id="a_node22"><a xlink:href="../../d9/d36/array__1d_8h.html" target="_top" xlink:title=" ">
<polygon fill="none" stroke="red" points="1553,-246.5 1553,-265.5 1675,-265.5 1675,-246.5 1553,-246.5"/>
<text text-anchor="middle" x="1614" y="-253.5" font-family="Helvetica,sans-Serif" font-size="10.00">containers/array_1d.h</text>
</a>
</g>
</g>
<!-- Node18&#45;&gt;Node42 -->
<g id="edge38" class="edge">
<title>Node18&#45;&gt;Node42</title>
<path fill="none" stroke="midnightblue" d="M1792.41,-302.44C1755.81,-293.12 1697.16,-278.18 1657.17,-268"/>
<polygon fill="midnightblue" stroke="midnightblue" points="1657.99,-264.59 1647.43,-265.52 1656.26,-271.38 1657.99,-264.59"/>
</g>
<!-- Node48 -->
<g id="node23" class="node">
<title>Node48</title>
<g id="a_node23"><a xlink:href="../../d5/d10/weak__pointer__vector_8h.html" target="_top" xlink:title=" ">
<polygon fill="none" stroke="red" points="2123.5,-179.5 2123.5,-209.5 2260.5,-209.5 2260.5,-179.5 2123.5,-179.5"/>
<text text-anchor="start" x="2131.5" y="-197.5" font-family="Helvetica,sans-Serif" font-size="10.00">containers/weak_pointer</text>
<text text-anchor="middle" x="2192" y="-186.5" font-family="Helvetica,sans-Serif" font-size="10.00">_vector.h</text>
</a>
</g>
</g>
<!-- Node18&#45;&gt;Node48 -->
<g id="edge43" class="edge">
<title>Node18&#45;&gt;Node48</title>
<path fill="none" stroke="midnightblue" d="M1882.69,-302.62C1954.21,-291.84 2070.22,-273.61 2089,-266 2118.7,-253.97 2148.46,-232.31 2168.29,-216.17"/>
<polygon fill="midnightblue" stroke="midnightblue" points="2170.71,-218.71 2176.16,-209.63 2166.23,-213.33 2170.71,-218.71"/>
</g>
<!-- Node18&#45;&gt;Node52 -->
<g id="edge49" class="edge">
<title>Node18&#45;&gt;Node52</title>
<path fill="none" stroke="midnightblue" d="M1882.55,-302.86C1949.15,-293.27 2059.77,-277.34 2131.53,-267"/>
<polygon fill="midnightblue" stroke="midnightblue" points="2132.42,-270.41 2141.82,-265.52 2131.43,-263.48 2132.42,-270.41"/>
</g>
<!-- Node25&#45;&gt;Node3 -->
<g id="edge31" class="edge">
<title>Node25&#45;&gt;Node3</title>
<path fill="none" stroke="midnightblue" d="M617.25,-250.48C564.39,-244.68 487.52,-232.55 469,-210 427.07,-158.95 446.59,-72.19 457.91,-34.68"/>
<polygon fill="midnightblue" stroke="midnightblue" points="461.26,-35.68 460.95,-25.09 454.59,-33.56 461.26,-35.68"/>
</g>
<!-- Node25&#45;&gt;Node4 -->
<g id="edge32" class="edge">
<title>Node25&#45;&gt;Node4</title>
<path fill="none" stroke="midnightblue" d="M720.78,-246.74C924.26,-214.33 1669.39,-96.25 1907,-67 2090.84,-44.37 2311.39,-26.42 2400.61,-19.54"/>
<polygon fill="midnightblue" stroke="midnightblue" points="2401.12,-23.01 2410.83,-18.75 2400.59,-16.03 2401.12,-23.01"/>
</g>
<!-- Node25&#45;&gt;Node7 -->
<g id="edge33" class="edge">
<title>Node25&#45;&gt;Node7</title>
<path fill="none" stroke="midnightblue" d="M679.42,-246.31C701.45,-228.14 752.4,-187.12 773,-179 828.58,-157.09 995.61,-143.49 1086.13,-137.53"/>
<polygon fill="midnightblue" stroke="midnightblue" points="1086.49,-141.02 1096.25,-136.88 1086.04,-134.03 1086.49,-141.02"/>
</g>
<!-- Node26&#45;&gt;Node3 -->
<g id="edge35" class="edge">
<title>Node26&#45;&gt;Node3</title>
<path fill="none" stroke="midnightblue" d="M1677.33,-184.92C1660.91,-160.91 1610.55,-93.13 1549,-67 1499.32,-45.91 670.63,-22.15 496.1,-17.37"/>
<polygon fill="midnightblue" stroke="midnightblue" points="496.11,-13.86 486.01,-17.09 495.92,-20.86 496.11,-13.86"/>
</g>
<!-- Node26&#45;&gt;Node4 -->
<g id="edge36" class="edge">
<title>Node26&#45;&gt;Node4</title>
<path fill="none" stroke="midnightblue" d="M1698.54,-184.96C1726.18,-170.14 1786.04,-139.65 1840,-123 1927.14,-96.12 1955.04,-114.46 2042,-87 2062.1,-80.65 2064.79,-72.99 2085,-67 2196.35,-34 2333.88,-22.29 2400.72,-18.36"/>
<polygon fill="midnightblue" stroke="midnightblue" points="2401.04,-21.85 2410.83,-17.79 2400.65,-14.86 2401.04,-21.85"/>
</g>
<!-- Node26&#45;&gt;Node7 -->
<g id="edge37" class="edge">
<title>Node26&#45;&gt;Node7</title>
<path fill="none" stroke="midnightblue" d="M1610.86,-185.51C1503.94,-173.66 1305.39,-151.66 1205.97,-140.65"/>
<polygon fill="midnightblue" stroke="midnightblue" points="1206.12,-137.14 1195.8,-139.52 1205.35,-144.1 1206.12,-137.14"/>
</g>
<!-- Node42&#45;&gt;Node3 -->
<g id="edge39" class="edge">
<title>Node42&#45;&gt;Node3</title>
<path fill="none" stroke="midnightblue" d="M1610.52,-246.18C1596.83,-211.95 1545.71,-88.71 1511,-67 1466.96,-39.46 668.42,-20.87 496.46,-17.18"/>
<polygon fill="midnightblue" stroke="midnightblue" points="496.34,-13.67 486.27,-16.96 496.19,-20.67 496.34,-13.67"/>
</g>
<!-- Node42&#45;&gt;Node4 -->
<g id="edge40" class="edge">
<title>Node42&#45;&gt;Node4</title>
<path fill="none" stroke="midnightblue" d="M1645.27,-246.44C1675.78,-237.89 1723.4,-224.04 1764,-210 1905.26,-161.15 1938.89,-144.14 2077,-87 2097.6,-78.48 2101.6,-73.24 2123,-67 2220.4,-38.59 2339.54,-25.08 2400.63,-19.62"/>
<polygon fill="midnightblue" stroke="midnightblue" points="2400.97,-23.11 2410.63,-18.76 2400.37,-16.13 2400.97,-23.11"/>
</g>
<!-- Node42&#45;&gt;Node7 -->
<g id="edge41" class="edge">
<title>Node42&#45;&gt;Node7</title>
<path fill="none" stroke="midnightblue" d="M1585.89,-246.47C1560.89,-238.44 1523.65,-225.37 1493,-210 1470.3,-198.62 1468.76,-187.98 1445,-179 1365.86,-149.08 1267.85,-139 1206.1,-135.63"/>
<polygon fill="midnightblue" stroke="midnightblue" points="1205.93,-132.12 1195.76,-135.12 1205.57,-139.11 1205.93,-132.12"/>
</g>
<!-- Node42&#45;&gt;Node26 -->
<g id="edge42" class="edge">
<title>Node42&#45;&gt;Node26</title>
<path fill="none" stroke="midnightblue" d="M1623.89,-246.48C1634.65,-237.2 1652.07,-222.17 1665.22,-210.83"/>
<polygon fill="midnightblue" stroke="midnightblue" points="1667.84,-213.19 1673.13,-204.01 1663.27,-207.89 1667.84,-213.19"/>
</g>
<!-- Node48&#45;&gt;Node3 -->
<g id="edge44" class="edge">
<title>Node48&#45;&gt;Node3</title>
<path fill="none" stroke="midnightblue" d="M2155.62,-179.42C2076.58,-149.09 1891,-79.32 1825,-67 1757.64,-54.43 695.88,-23.2 496.23,-17.43"/>
<polygon fill="midnightblue" stroke="midnightblue" points="496.19,-13.92 486.1,-17.13 495.99,-20.92 496.19,-13.92"/>
</g>
<!-- Node48&#45;&gt;Node4 -->
<g id="edge45" class="edge">
<title>Node48&#45;&gt;Node4</title>
<path fill="none" stroke="midnightblue" d="M2197.36,-179.34C2208.01,-153.11 2234.4,-96.91 2275,-67 2312.3,-39.52 2364.71,-26.83 2400.6,-21.08"/>
<polygon fill="midnightblue" stroke="midnightblue" points="2401.34,-24.51 2410.72,-19.57 2400.31,-17.58 2401.34,-24.51"/>
</g>
<!-- Node48&#45;&gt;Node5 -->
<g id="edge46" class="edge">
<title>Node48&#45;&gt;Node5</title>
<path fill="none" stroke="midnightblue" d="M2242.32,-179.43C2296.92,-164.42 2386.77,-140.45 2465,-123 2662.23,-79 2900.86,-37.99 2992.06,-22.75"/>
<polygon fill="midnightblue" stroke="midnightblue" points="2992.65,-26.2 3001.94,-21.11 2991.5,-19.3 2992.65,-26.2"/>
</g>
<!-- Node48&#45;&gt;Node7 -->
<g id="edge48" class="edge">
<title>Node48&#45;&gt;Node7</title>
<path fill="none" stroke="midnightblue" d="M2123.37,-189.6C1930.76,-178.64 1387.43,-147.73 1205.9,-137.41"/>
<polygon fill="midnightblue" stroke="midnightblue" points="1205.93,-133.9 1195.75,-136.83 1205.53,-140.89 1205.93,-133.9"/>
</g>
<!-- Node48&#45;&gt;Node15 -->
<g id="edge47" class="edge">
<title>Node48&#45;&gt;Node15</title>
<path fill="none" stroke="midnightblue" d="M2260.64,-182.49C2472.03,-148.6 3108.17,-46.61 3262.16,-21.93"/>
<polygon fill="midnightblue" stroke="midnightblue" points="3263.08,-25.32 3272.4,-20.28 3261.97,-18.41 3263.08,-25.32"/>
</g>
<!-- Node52&#45;&gt;Node3 -->
<g id="edge50" class="edge">
<title>Node52&#45;&gt;Node3</title>
<path fill="none" stroke="midnightblue" d="M2167.08,-246.48C2134.86,-238.11 2085.2,-224.53 2043,-210 1968.16,-184.23 1948.65,-178.69 1878,-143 1849.15,-128.43 1784.93,-76.38 1754,-67 1692,-48.2 689.36,-22.16 496.1,-17.3"/>
<polygon fill="midnightblue" stroke="midnightblue" points="496.1,-13.8 486.01,-17.04 495.92,-20.79 496.1,-13.8"/>
</g>
<!-- Node52&#45;&gt;Node4 -->
<g id="edge51" class="edge">
<title>Node52&#45;&gt;Node4</title>
<path fill="none" stroke="midnightblue" d="M2221.34,-246.47C2236.81,-239 2257.49,-226.72 2270,-210 2309.77,-156.87 2268.08,-115.85 2313,-67 2335.9,-42.1 2372.63,-29.29 2400.89,-22.82"/>
<polygon fill="midnightblue" stroke="midnightblue" points="2401.81,-26.21 2410.87,-20.71 2400.36,-19.36 2401.81,-26.21"/>
</g>
<!-- Node52&#45;&gt;Node14 -->
<g id="edge52" class="edge">
<title>Node52&#45;&gt;Node14</title>
<path fill="none" stroke="midnightblue" d="M2181,-246.41C2162.98,-238.25 2136.16,-225.02 2115,-210 2064.17,-173.92 2012.82,-120.64 1988.5,-94.16"/>
<polygon fill="midnightblue" stroke="midnightblue" points="1990.91,-91.61 1981.59,-86.56 1985.73,-96.32 1990.91,-91.61"/>
</g>
<!-- Node56&#45;&gt;Node3 -->
<g id="edge54" class="edge">
<title>Node56&#45;&gt;Node3</title>
<path fill="none" stroke="midnightblue" d="M1577.18,-630.07C1375.9,-631.23 770.88,-630.24 582,-579 520.03,-562.19 508.36,-546.18 454,-512 261.78,-391.11 58.49,-242.15 203,-67 231.67,-32.25 368.37,-21.13 431.68,-17.81"/>
<polygon fill="midnightblue" stroke="midnightblue" points="432.08,-21.3 441.9,-17.31 431.74,-14.31 432.08,-21.3"/>
</g>
<!-- Node56&#45;&gt;Node4 -->
<g id="edge55" class="edge">
<title>Node56&#45;&gt;Node4</title>
<path fill="none" stroke="midnightblue" d="M1655.82,-620.88C1679.6,-605.11 1732.47,-571.13 1780,-548 1885.2,-496.8 2160.16,-395.46 2271,-358 2325.37,-339.63 2341.78,-343.47 2395,-322 2412.7,-314.86 2415.22,-308.93 2433,-302 2491.26,-279.29 2523.89,-309.3 2569,-266 2616.44,-220.46 2626.31,-185.86 2607,-123 2598.17,-94.25 2592.48,-85.8 2569,-67 2543.21,-46.35 2507.91,-33.27 2480.92,-25.61"/>
<polygon fill="midnightblue" stroke="midnightblue" points="2481.59,-22.16 2471.02,-22.93 2479.76,-28.92 2481.59,-22.16"/>
</g>
<!-- Node56&#45;&gt;Node5 -->
<g id="edge56" class="edge">
<title>Node56&#45;&gt;Node5</title>
<path fill="none" stroke="midnightblue" d="M1708.51,-625.71C1800.7,-619.66 1973.72,-605.69 2119,-579 2444.93,-519.12 2561.09,-567.95 2840,-389 2975.7,-301.93 3007.89,-244.8 3041,-87 3044.69,-69.42 3040.67,-49.13 3036.49,-34.84"/>
<polygon fill="midnightblue" stroke="midnightblue" points="3039.79,-33.68 3033.39,-25.24 3033.13,-35.83 3039.79,-33.68"/>
</g>
<!-- Node56&#45;&gt;Node6 -->
<g id="edge57" class="edge">
<title>Node56&#45;&gt;Node6</title>
<path fill="none" stroke="midnightblue" d="M1708.54,-622.83C1850.51,-607.52 2181.54,-566.91 2279,-512 2359.07,-466.89 2343.35,-412.98 2417,-358 2435.43,-344.24 2458.74,-333.12 2477.66,-325.38"/>
<polygon fill="midnightblue" stroke="midnightblue" points="2479.09,-328.58 2487.1,-321.64 2476.51,-322.07 2479.09,-328.58"/>
</g>
<!-- Node56&#45;&gt;Node7 -->
<g id="edge58" class="edge">
<title>Node56&#45;&gt;Node7</title>
<path fill="none" stroke="midnightblue" d="M1577.29,-627.45C1475.19,-623.34 1272.65,-611.51 1104,-579 886.4,-537.05 744.98,-585.75 643,-389 612.21,-329.6 564.69,-305.12 596,-246 609.33,-220.84 626.17,-227.02 649,-210 666.48,-196.98 666.85,-187.31 687,-179 757.73,-149.84 978.6,-139.14 1086.07,-135.59"/>
<polygon fill="midnightblue" stroke="midnightblue" points="1086.23,-139.09 1096.11,-135.27 1086,-132.09 1086.23,-139.09"/>
</g>
<!-- Node56&#45;&gt;Node25 -->
<g id="edge83" class="edge">
<title>Node56&#45;&gt;Node25</title>
<path fill="none" stroke="midnightblue" d="M1577.46,-627.64C1440.87,-621.05 1119.77,-591.17 895,-456 876.32,-444.77 875.4,-436.69 857,-425 825.79,-405.17 810.2,-412.92 782,-389 745.98,-358.45 752.65,-337.05 721,-302 711.12,-291.06 698.68,-280.21 688.44,-271.9"/>
<polygon fill="midnightblue" stroke="midnightblue" points="690.48,-269.05 680.47,-265.58 686.13,-274.54 690.48,-269.05"/>
</g>
<!-- Node56&#45;&gt;Node57 -->
<g id="edge59" class="edge">
<title>Node56&#45;&gt;Node57</title>
<path fill="none" stroke="midnightblue" d="M1670.62,-620.87C1702.58,-610.88 1755.97,-594.2 1796.39,-581.56"/>
<polygon fill="midnightblue" stroke="midnightblue" points="1797.61,-584.85 1806.11,-578.53 1795.52,-578.17 1797.61,-584.85"/>
</g>
<!-- Node57&#45;&gt;Node3 -->
<g id="edge60" class="edge">
<title>Node57&#45;&gt;Node3</title>
<path fill="none" stroke="midnightblue" d="M1788.17,-562.33C1561.03,-560.94 783.98,-549.33 557,-456 431.94,-404.58 414.95,-340.07 378,-210 360.63,-148.86 343.95,-119.35 380,-67 392.54,-48.79 413.99,-36.06 432.08,-27.93"/>
<polygon fill="midnightblue" stroke="midnightblue" points="433.84,-30.99 441.7,-23.88 431.12,-24.53 433.84,-30.99"/>
</g>
<!-- Node57&#45;&gt;Node4 -->
<g id="edge61" class="edge">
<title>Node57&#45;&gt;Node4</title>
<path fill="none" stroke="midnightblue" d="M1913.63,-554.5C1989.91,-542.55 2120.51,-514.81 2217,-456 2268.27,-424.75 2258.75,-389.29 2310,-358 2358.61,-328.32 2379.61,-341.84 2433,-322 2453.14,-314.52 2456.81,-309.33 2477,-302 2533.35,-281.53 2563.42,-307.17 2607,-266 2671.29,-205.27 2678.21,-119.46 2607,-67 2569.7,-39.52 2517.29,-26.83 2481.4,-21.08"/>
<polygon fill="midnightblue" stroke="midnightblue" points="2481.69,-17.58 2471.28,-19.57 2480.66,-24.51 2481.69,-17.58"/>
</g>
<!-- Node57&#45;&gt;Node6 -->
<g id="edge62" class="edge">
<title>Node57&#45;&gt;Node6</title>
<path fill="none" stroke="midnightblue" d="M1913.85,-557.78C2020.32,-549.33 2227.35,-530.73 2255,-512 2319.9,-468.03 2278.88,-405.82 2341,-358 2351.71,-349.76 2428.58,-331.56 2475.54,-321.01"/>
<polygon fill="midnightblue" stroke="midnightblue" points="2476.36,-324.41 2485.35,-318.82 2474.83,-317.58 2476.36,-324.41"/>
</g>
<!-- Node57&#45;&gt;Node7 -->
<g id="edge64" class="edge">
<title>Node57&#45;&gt;Node7</title>
<path fill="none" stroke="midnightblue" d="M1820.61,-548.35C1765.59,-522.87 1645.65,-467.91 1543,-425 1426.8,-376.43 1391.61,-378.4 1279,-322 1211.41,-288.15 1175.56,-281.49 1151,-210 1144.57,-191.28 1143.95,-168.47 1144.54,-152.75"/>
<polygon fill="midnightblue" stroke="midnightblue" points="1148.04,-152.91 1145.12,-142.72 1141.05,-152.5 1148.04,-152.91"/>
</g>
<!-- Node57&#45;&gt;Node14 -->
<g id="edge82" class="edge">
<title>Node57&#45;&gt;Node14</title>
<path fill="none" stroke="midnightblue" d="M1839.89,-548.3C1805.57,-502.58 1706.62,-355.77 1760,-246 1798.63,-166.55 1895.04,-113.52 1944.18,-90.71"/>
<polygon fill="midnightblue" stroke="midnightblue" points="1945.69,-93.87 1953.35,-86.55 1942.8,-87.5 1945.69,-93.87"/>
</g>
<!-- Node57&#45;&gt;Node15 -->
<g id="edge63" class="edge">
<title>Node57&#45;&gt;Node15</title>
<path fill="none" stroke="midnightblue" d="M1913.53,-563.37C2111.28,-563.15 2733.97,-539.55 3139,-266 3229.67,-204.76 3269.52,-189.42 3308,-87 3314.47,-69.79 3309.44,-48.91 3304.05,-34.35"/>
<polygon fill="midnightblue" stroke="midnightblue" points="3307.25,-32.94 3300.22,-25.02 3300.78,-35.6 3307.25,-32.94"/>
</g>
<!-- Node57&#45;&gt;Node58 -->
<g id="edge65" class="edge">
<title>Node57&#45;&gt;Node58</title>
<path fill="none" stroke="midnightblue" d="M1807.02,-548.38C1731.85,-524.26 1580.08,-475.55 1510.43,-453.19"/>
<polygon fill="midnightblue" stroke="midnightblue" points="1511.36,-449.82 1500.77,-450.09 1509.22,-456.48 1511.36,-449.82"/>
</g>
<!-- Node61 -->
<g id="node29" class="node">
<title>Node61</title>
<g id="a_node29"><a xlink:href="../../dc/d8e/kratos__components_8h.html" target="_top" xlink:title=" ">
<polygon fill="none" stroke="red" points="1036.5,-492.5 1036.5,-511.5 1201.5,-511.5 1201.5,-492.5 1036.5,-492.5"/>
<text text-anchor="middle" x="1119" y="-499.5" font-family="Helvetica,sans-Serif" font-size="10.00">includes/kratos_components.h</text>
</a>
</g>
</g>
<!-- Node57&#45;&gt;Node61 -->
<g id="edge75" class="edge">
<title>Node57&#45;&gt;Node61</title>
<path fill="none" stroke="midnightblue" d="M1788.29,-557.94C1675.36,-549.65 1430.07,-531.26 1211.79,-512.05"/>
<polygon fill="midnightblue" stroke="midnightblue" points="1212.01,-508.56 1201.75,-511.17 1211.4,-515.53 1212.01,-508.56"/>
</g>
<!-- Node58&#45;&gt;Node3 -->
<g id="edge66" class="edge">
<title>Node58&#45;&gt;Node3</title>
<path fill="none" stroke="midnightblue" d="M1414.11,-439.44C1282.71,-438.5 973.34,-431.67 879,-389 795.37,-351.17 798.19,-307.44 730,-246 648.71,-172.74 624.38,-159.03 542,-87 520.7,-68.38 496.6,-46.46 480.9,-32.07"/>
<polygon fill="midnightblue" stroke="midnightblue" points="483.25,-29.47 473.52,-25.29 478.51,-34.63 483.25,-29.47"/>
</g>
<!-- Node58&#45;&gt;Node4 -->
<g id="edge67" class="edge">
<title>Node58&#45;&gt;Node4</title>
<path fill="none" stroke="midnightblue" d="M1500.68,-430.98C1551.12,-415.07 1664.12,-380.45 1761,-358 1788.99,-351.51 2246.72,-282.84 2270,-266 2351.54,-207.02 2313.47,-144.21 2378,-67 2389.76,-52.93 2405.95,-40.05 2418.97,-30.82"/>
<polygon fill="midnightblue" stroke="midnightblue" points="2421.13,-33.59 2427.39,-25.05 2417.17,-27.82 2421.13,-33.59"/>
</g>
<!-- Node58&#45;&gt;Node7 -->
<g id="edge68" class="edge">
<title>Node58&#45;&gt;Node7</title>
<path fill="none" stroke="midnightblue" d="M1414.42,-433.36C1342.51,-422.86 1222.36,-394.93 1151,-322 1105.01,-275 1092.54,-241.5 1113,-179 1116.49,-168.34 1123.57,-158.12 1130.29,-150.12"/>
<polygon fill="midnightblue" stroke="midnightblue" points="1132.9,-152.44 1136.98,-142.66 1127.7,-147.76 1132.9,-152.44"/>
</g>
<!-- Node58&#45;&gt;Node59 -->
<g id="edge69" class="edge">
<title>Node58&#45;&gt;Node59</title>
<path fill="none" stroke="midnightblue" d="M1533.59,-435.79C1624.83,-429.55 1804.41,-414.98 1955,-389 1960.89,-387.98 1967.05,-386.72 1973.1,-385.37"/>
<polygon fill="midnightblue" stroke="midnightblue" points="1974.15,-388.72 1983.09,-383.04 1972.56,-381.91 1974.15,-388.72"/>
</g>
<!-- Node59&#45;&gt;Node3 -->
<g id="edge70" class="edge">
<title>Node59&#45;&gt;Node3</title>
<path fill="none" stroke="midnightblue" d="M1968.75,-364.41C1953.87,-362.05 1937.27,-359.65 1922,-358 1494.55,-311.74 1368.72,-396.32 959,-266 764.55,-204.15 552.65,-73.6 485.59,-30.58"/>
<polygon fill="midnightblue" stroke="midnightblue" points="487.4,-27.59 477.1,-25.11 483.61,-33.47 487.4,-27.59"/>
</g>
<!-- Node59&#45;&gt;Node4 -->
<g id="edge71" class="edge">
<title>Node59&#45;&gt;Node4</title>
<path fill="none" stroke="midnightblue" d="M2049.55,-363.99C2057.87,-361.98 2066.75,-359.88 2075,-358 2149.45,-341.03 2170.12,-344.78 2243,-322 2265.06,-315.11 2268.96,-308.95 2291,-302 2362.17,-279.56 2408.23,-324.15 2455,-266 2510.63,-196.83 2468.4,-78.86 2449.2,-34.27"/>
<polygon fill="midnightblue" stroke="midnightblue" points="2452.34,-32.74 2445.08,-25.03 2445.95,-35.59 2452.34,-32.74"/>
</g>
<!-- Node59&#45;&gt;Node6 -->
<g id="edge72" class="edge">
<title>Node59&#45;&gt;Node6</title>
<path fill="none" stroke="midnightblue" d="M2061.31,-366.96C2159.38,-355.22 2386.28,-328.05 2475.26,-317.4"/>
<polygon fill="midnightblue" stroke="midnightblue" points="2475.89,-320.85 2485.41,-316.18 2475.06,-313.9 2475.89,-320.85"/>
</g>
<!-- Node59&#45;&gt;Node7 -->
<g id="edge73" class="edge">
<title>Node59&#45;&gt;Node7</title>
<path fill="none" stroke="midnightblue" d="M1968.75,-364.46C1953.86,-362.1 1937.27,-359.69 1922,-358 1801.81,-344.67 1492.57,-363.54 1379,-322 1285.31,-287.74 1283.11,-242.29 1206,-179 1193.17,-168.47 1178.23,-157.26 1166.48,-148.67"/>
<polygon fill="midnightblue" stroke="midnightblue" points="1168.34,-145.7 1158.19,-142.66 1164.23,-151.37 1168.34,-145.7"/>
</g>
<!-- Node59&#45;&gt;Node18 -->
<g id="edge74" class="edge">
<title>Node59&#45;&gt;Node18</title>
<path fill="none" stroke="midnightblue" d="M1987.92,-363.98C1955.08,-353.64 1899.57,-336.16 1862.85,-324.6"/>
<polygon fill="midnightblue" stroke="midnightblue" points="1863.62,-321.17 1853.03,-321.51 1861.52,-327.85 1863.62,-321.17"/>
</g>
<!-- Node61&#45;&gt;Node3 -->
<g id="edge76" class="edge">
<title>Node61&#45;&gt;Node3</title>
<path fill="none" stroke="midnightblue" d="M1036.44,-496.88C903.61,-489.75 653.57,-474.15 617,-456 484.55,-390.25 446.38,-347.9 393,-210 370.06,-150.73 363.86,-123.48 393,-67 401.56,-50.41 418.36,-38.08 433.47,-29.76"/>
<polygon fill="midnightblue" stroke="midnightblue" points="435.27,-32.77 442.57,-25.09 432.08,-26.54 435.27,-32.77"/>
</g>
<!-- Node61&#45;&gt;Node4 -->
<g id="edge77" class="edge">
<title>Node61&#45;&gt;Node4</title>
<path fill="none" stroke="midnightblue" d="M1144.76,-492.41C1194.57,-476.2 1307.86,-441.27 1406,-425 1519.4,-406.2 1815.13,-431.31 1922,-389 1942.27,-380.98 1940.16,-367.03 1960,-358 2046.19,-318.78 2077.56,-342.54 2170,-322 2202.84,-314.7 2210.38,-310.23 2243,-302 2311.99,-284.6 2349.08,-316.71 2399,-266 2461.78,-202.23 2451.24,-81.94 2444.31,-35.48"/>
<polygon fill="midnightblue" stroke="midnightblue" points="2447.73,-34.65 2442.68,-25.34 2440.81,-35.77 2447.73,-34.65"/>
</g>
<!-- Node61&#45;&gt;Node7 -->
<g id="edge79" class="edge">
<title>Node61&#45;&gt;Node7</title>
<path fill="none" stroke="midnightblue" d="M1100.65,-492.5C1044.71,-466.56 880.02,-390.14 879,-389 814.97,-317.69 767.19,-251.39 830,-179 862.48,-141.57 1003.81,-134.48 1086.05,-133.6"/>
<polygon fill="midnightblue" stroke="midnightblue" points="1086.29,-137.1 1096.26,-133.52 1086.24,-130.1 1086.29,-137.1"/>
</g>
<!-- Node61&#45;&gt;Node20 -->
<g id="edge78" class="edge">
<title>Node61&#45;&gt;Node20</title>
<path fill="none" stroke="midnightblue" d="M1130.42,-492.32C1177.91,-456.22 1360.01,-317.8 1420.41,-271.89"/>
<polygon fill="midnightblue" stroke="midnightblue" points="1422.87,-274.42 1428.71,-265.58 1418.63,-268.85 1422.87,-274.42"/>
</g>
<!-- Node61&#45;&gt;Node25 -->
<g id="edge80" class="edge">
<title>Node61&#45;&gt;Node25</title>
<path fill="none" stroke="midnightblue" d="M1093.77,-492.49C1021.56,-468.05 818.51,-398.81 807,-389 773.38,-360.36 790.85,-332.59 759,-302 743.9,-287.5 723.22,-276.72 705.49,-269.35"/>
<polygon fill="midnightblue" stroke="midnightblue" points="706.59,-266.02 696,-265.6 704.02,-272.53 706.59,-266.02"/>
</g>
<!-- Node61&#45;&gt;Node58 -->
<g id="edge81" class="edge">
<title>Node61&#45;&gt;Node58</title>
<path fill="none" stroke="midnightblue" d="M1169.86,-492.48C1234.05,-481.72 1344.35,-463.23 1413,-451.72"/>
<polygon fill="midnightblue" stroke="midnightblue" points="1413.95,-455.11 1423.23,-450.01 1412.79,-448.21 1413.95,-455.11"/>
</g>
<!-- Node69&#45;&gt;Node3 -->
<g id="edge86" class="edge">
<title>Node69&#45;&gt;Node3</title>
<path fill="none" stroke="midnightblue" d="M1996.96,-755.87C1869.8,-750.13 1513.86,-733.37 1218,-713 1052.49,-701.6 1011.41,-694.85 846,-682 734.94,-673.37 451.82,-680.81 346,-646 293.06,-628.59 266.89,-627.81 240,-579 226.81,-555.06 168.76,-715.3 244,-358 272.86,-220.94 269.88,-169.81 365,-67 383.21,-47.32 410.83,-34.12 432.27,-26.17"/>
<polygon fill="midnightblue" stroke="midnightblue" points="433.66,-29.39 441.93,-22.78 431.34,-22.79 433.66,-29.39"/>
</g>
<!-- Node69&#45;&gt;Node4 -->
<g id="edge87" class="edge">
<title>Node69&#45;&gt;Node4</title>
<path fill="none" stroke="midnightblue" d="M2093.18,-758.3C2237.92,-757.91 2659,-746.87 2659,-631.5 2659,-631.5 2659,-631.5 2659,-562.5 2659,-451.07 2794.76,-490.84 2840,-389 2859.59,-344.89 2976.6,-566.97 2835,-123 2825.86,-94.34 2822.52,-82.92 2797,-67 2744.98,-34.55 2563.19,-22.17 2481.41,-18.16"/>
<polygon fill="midnightblue" stroke="midnightblue" points="2481.17,-14.64 2471.02,-17.67 2480.84,-21.64 2481.17,-14.64"/>
</g>
<!-- Node69&#45;&gt;Node5 -->
<g id="edge88" class="edge">
<title>Node69&#45;&gt;Node5</title>
<path fill="none" stroke="midnightblue" d="M2093.39,-757.45C2210.78,-755.59 2507.75,-747.49 2600,-713 2753.44,-655.63 3125,-359.32 3125,-195.5 3125,-195.5 3125,-195.5 3125,-132 3125,-87.02 3081.49,-50.02 3053.36,-30.8"/>
<polygon fill="midnightblue" stroke="midnightblue" points="3055.12,-27.77 3044.84,-25.2 3051.28,-33.62 3055.12,-27.77"/>
</g>
<!-- Node69&#45;&gt;Node6 -->
<g id="edge89" class="edge">
<title>Node69&#45;&gt;Node6</title>
<path fill="none" stroke="midnightblue" d="M2093.11,-752.51C2196.58,-739.37 2431,-701.84 2431,-631.5 2431,-631.5 2431,-631.5 2431,-439.5 2431,-402.2 2430.31,-389.03 2451,-358 2459.61,-345.09 2473.23,-334.52 2485.42,-326.88"/>
<polygon fill="midnightblue" stroke="midnightblue" points="2487.52,-329.71 2494.36,-321.62 2483.97,-323.68 2487.52,-329.71"/>
</g>
<!-- Node69&#45;&gt;Node7 -->
<g id="edge90" class="edge">
<title>Node69&#45;&gt;Node7</title>
<path fill="none" stroke="midnightblue" d="M2029.77,-749.5C2014.11,-740.66 1989.09,-726.29 1968,-713 1774.95,-591.37 1744.99,-531.13 1543,-425 1431.51,-366.42 1382.45,-393.84 1279,-322 1224.19,-283.94 1214.97,-266.21 1179,-210 1167.28,-191.69 1157.9,-168.51 1152.18,-152.6"/>
<polygon fill="midnightblue" stroke="midnightblue" points="1155.4,-151.19 1148.82,-142.88 1148.78,-153.48 1155.4,-151.19"/>
</g>
<!-- Node69&#45;&gt;Node25 -->
<g id="edge113" class="edge">
<title>Node69&#45;&gt;Node25</title>
<path fill="none" stroke="midnightblue" d="M1996.8,-755.62C1851.3,-748.34 1422.72,-726.02 1361,-713 1191.1,-677.16 1142.86,-668.4 994,-579 923.85,-536.87 917.27,-511.35 857,-456 842.18,-442.39 840.54,-436.46 824,-425 794.27,-404.39 777.8,-413.3 751,-389 714.48,-355.88 688.31,-302.78 676.33,-275.11"/>
<polygon fill="midnightblue" stroke="midnightblue" points="679.41,-273.4 672.32,-265.53 672.95,-276.11 679.41,-273.4"/>
</g>
<!-- Node69&#45;&gt;Node57 -->
<g id="edge114" class="edge">
<title>Node69&#45;&gt;Node57</title>
<path fill="none" stroke="midnightblue" d="M2036.41,-749.44C2007.77,-720.86 1914.88,-628.22 1872.47,-585.92"/>
<polygon fill="midnightblue" stroke="midnightblue" points="1874.72,-583.21 1865.17,-578.63 1869.77,-588.17 1874.72,-583.21"/>
</g>
<!-- Node70 -->
<g id="node31" class="node">
<title>Node70</title>
<g id="a_node31"><a xlink:href="../../d4/d35/pointer__vector__set_8h.html" target="_top" xlink:title=" ">
<polygon fill="none" stroke="red" points="2459.5,-358.5 2459.5,-388.5 2564.5,-388.5 2564.5,-358.5 2459.5,-358.5"/>
<text text-anchor="start" x="2467.5" y="-376.5" font-family="Helvetica,sans-Serif" font-size="10.00">containers/pointer</text>
<text text-anchor="middle" x="2512" y="-365.5" font-family="Helvetica,sans-Serif" font-size="10.00">_vector_set.h</text>
</a>
</g>
</g>
<!-- Node69&#45;&gt;Node70 -->
<g id="edge91" class="edge">
<title>Node69&#45;&gt;Node70</title>
<path fill="none" stroke="midnightblue" d="M2093.37,-755.72C2194.18,-750.53 2419.54,-736.42 2445,-713 2535.67,-629.59 2523.9,-461.74 2515.77,-398.95"/>
<polygon fill="midnightblue" stroke="midnightblue" points="2519.2,-398.24 2514.36,-388.82 2512.27,-399.2 2519.2,-398.24"/>
</g>
<!-- Node69&#45;&gt;Node73 -->
<g id="edge99" class="edge">
<title>Node69&#45;&gt;Node73</title>
<path fill="none" stroke="midnightblue" d="M2093.35,-757.56C2190.83,-755.91 2407.12,-748.28 2471,-713 2580.44,-652.57 2559.14,-582.86 2645,-492 2679.52,-455.47 2724.05,-417.78 2751.82,-395.25"/>
<polygon fill="midnightblue" stroke="midnightblue" points="2754.28,-397.76 2759.87,-388.76 2749.88,-392.31 2754.28,-397.76"/>
</g>
<!-- Node75 -->
<g id="node33" class="node">
<title>Node75</title>
<g id="a_node33"><a xlink:href="../../d9/d4c/includes_2indexed__object_8h.html" target="_top" xlink:title=" ">
<polygon fill="none" stroke="black" points="1769.5,-364 1769.5,-383 1912.5,-383 1912.5,-364 1769.5,-364"/>
<text text-anchor="middle" x="1841" y="-371" font-family="Helvetica,sans-Serif" font-size="10.00">includes/indexed_object.h</text>
</a>
</g>
</g>
<!-- Node69&#45;&gt;Node75 -->
<g id="edge106" class="edge">
<title>Node69&#45;&gt;Node75</title>
<path fill="none" stroke="midnightblue" d="M2051.13,-749.27C2064.48,-729.37 2095,-678.73 2095,-631.5 2095,-631.5 2095,-631.5 2095,-501 2095,-454.01 1953.94,-406.8 1882.06,-385.8"/>
<polygon fill="midnightblue" stroke="midnightblue" points="1882.98,-382.42 1872.4,-383.01 1881.04,-389.15 1882.98,-382.42"/>
</g>
<!-- Node76 -->
<g id="node34" class="node">
<title>Node76</title>
<g id="a_node34"><a xlink:href="../../d4/d67/geometry_8h.html" target="_top" xlink:title=" ">
<polygon fill="none" stroke="red" points="2123,-621 2123,-640 2253,-640 2253,-621 2123,-621"/>
<text text-anchor="middle" x="2188" y="-628" font-family="Helvetica,sans-Serif" font-size="10.00">geometries/geometry.h</text>
</a>
</g>
</g>
<!-- Node69&#45;&gt;Node76 -->
<g id="edge110" class="edge">
<title>Node69&#45;&gt;Node76</title>
<path fill="none" stroke="midnightblue" d="M2058.78,-749.39C2072.13,-740.81 2092.68,-726.94 2109,-713 2133.24,-692.29 2158.4,-665.21 2173.63,-648.07"/>
<polygon fill="midnightblue" stroke="midnightblue" points="2176.66,-649.93 2180.63,-640.11 2171.4,-645.31 2176.66,-649.93"/>
</g>
<!-- Node69&#45;&gt;Node86 -->
<g id="edge115" class="edge">
<title>Node69&#45;&gt;Node86</title>
<path fill="none" stroke="midnightblue" d="M1996.98,-753.33C1890.25,-742.96 1632.81,-717.93 1506.04,-705.6"/>
<polygon fill="midnightblue" stroke="midnightblue" points="1506.32,-702.11 1496.03,-704.63 1505.64,-709.08 1506.32,-702.11"/>
</g>
<!-- Node70&#45;&gt;Node3 -->
<g id="edge93" class="edge">
<title>Node70&#45;&gt;Node3</title>
<path fill="none" stroke="midnightblue" d="M2459.5,-370.63C2336.89,-365.91 2022.31,-351.69 1761,-322 1604.91,-304.27 1528.71,-371.15 1412,-266 1387.89,-244.28 1393,-227.95 1393,-195.5 1393,-195.5 1393,-195.5 1393,-132 1393,-39.65 660.77,-20.24 496.46,-17.05"/>
<polygon fill="midnightblue" stroke="midnightblue" points="496.11,-13.54 486.05,-16.85 495.98,-20.54 496.11,-13.54"/>
</g>
<!-- Node70&#45;&gt;Node4 -->
<g id="edge94" class="edge">
<title>Node70&#45;&gt;Node4</title>
<path fill="none" stroke="midnightblue" d="M2535.14,-358.33C2563.79,-339.9 2612.74,-305.35 2645,-266 2686.69,-215.14 2702.31,-185.86 2683,-123 2674.17,-94.25 2669.68,-84.2 2645,-67 2595.53,-32.53 2524.93,-21.52 2481.08,-18.04"/>
<polygon fill="midnightblue" stroke="midnightblue" points="2481.3,-14.55 2471.08,-17.34 2480.81,-21.53 2481.3,-14.55"/>
</g>
<!-- Node70&#45;&gt;Node5 -->
<g id="edge95" class="edge">
<title>Node70&#45;&gt;Node5</title>
<path fill="none" stroke="midnightblue" d="M2542.58,-358.47C2562.5,-348.95 2588.82,-335.65 2611,-322 2738.57,-243.5 2761.91,-211.16 2883,-123 2928.29,-90.03 2981.56,-51.5 3009.89,-31.02"/>
<polygon fill="midnightblue" stroke="midnightblue" points="3012.12,-33.73 3018.17,-25.04 3008.02,-28.06 3012.12,-33.73"/>
</g>
<!-- Node70&#45;&gt;Node6 -->
<g id="edge96" class="edge">
<title>Node70&#45;&gt;Node6</title>
<path fill="none" stroke="midnightblue" d="M2512,-358.4C2512,-350.47 2512,-340.46 2512,-331.86"/>
<polygon fill="midnightblue" stroke="midnightblue" points="2515.5,-331.66 2512,-321.66 2508.5,-331.66 2515.5,-331.66"/>
</g>
<!-- Node70&#45;&gt;Node7 -->
<g id="edge97" class="edge">
<title>Node70&#45;&gt;Node7</title>
<path fill="none" stroke="midnightblue" d="M2459.47,-370.4C2249.27,-361.96 1478.91,-330.5 1455,-322 1415.46,-307.95 1406.66,-297.54 1379,-266 1349.88,-232.8 1366.09,-205.82 1331,-179 1295.2,-151.64 1245.07,-140.66 1206.02,-136.37"/>
<polygon fill="midnightblue" stroke="midnightblue" points="1206.13,-132.86 1195.84,-135.37 1205.45,-139.83 1206.13,-132.86"/>
</g>
<!-- Node70&#45;&gt;Node15 -->
<g id="edge92" class="edge">
<title>Node70&#45;&gt;Node15</title>
<path fill="none" stroke="midnightblue" d="M2549.21,-358.5C2574.88,-348.67 2609.71,-335.01 2640,-322 2887.83,-215.52 3181.38,-72.76 3269.64,-29.47"/>
<polygon fill="midnightblue" stroke="midnightblue" points="3271.25,-32.58 3278.69,-25.03 3268.17,-26.3 3271.25,-32.58"/>
</g>
<!-- Node70&#45;&gt;Node18 -->
<g id="edge98" class="edge">
<title>Node70&#45;&gt;Node18</title>
<path fill="none" stroke="midnightblue" d="M2459.47,-364.62C2442.72,-362.27 2424.11,-359.84 2407,-358 2221.12,-337.99 2000.86,-323.42 1892.71,-316.86"/>
<polygon fill="midnightblue" stroke="midnightblue" points="1892.79,-313.36 1882.6,-316.25 1892.37,-320.35 1892.79,-313.36"/>
</g>
<!-- Node73&#45;&gt;Node3 -->
<g id="edge101" class="edge">
<title>Node73&#45;&gt;Node3</title>
<path fill="none" stroke="midnightblue" d="M2757.03,-358.45C2732.24,-342.47 2689.28,-316.71 2649,-302 2531.43,-259.06 2496.37,-267.1 2373,-246 2258.88,-226.48 2226.59,-240.87 2115,-210 1980.07,-172.67 1951.82,-146.32 1825,-87 1807.36,-78.75 1804.84,-71.93 1786,-67 1721.7,-50.17 692.64,-22.48 496.24,-17.34"/>
<polygon fill="midnightblue" stroke="midnightblue" points="496.1,-13.83 486.01,-17.07 495.92,-20.83 496.1,-13.83"/>
</g>
<!-- Node73&#45;&gt;Node4 -->
<g id="edge102" class="edge">
<title>Node73&#45;&gt;Node4</title>
<path fill="none" stroke="midnightblue" d="M2786.11,-358.49C2793.31,-344.29 2801.97,-321.66 2797,-302 2767.89,-186.9 2764.78,-138.49 2670,-67 2614.43,-25.09 2530.96,-16.63 2481.63,-15.64"/>
<polygon fill="midnightblue" stroke="midnightblue" points="2481.38,-12.14 2471.35,-15.53 2481.31,-19.14 2481.38,-12.14"/>
</g>
<!-- Node73&#45;&gt;Node5 -->
<g id="edge103" class="edge">
<title>Node73&#45;&gt;Node5</title>
<path fill="none" stroke="midnightblue" d="M2796.92,-358.46C2845.73,-320.94 2975.5,-212.61 3025,-87 3031.53,-70.43 3032.26,-49.97 3031.67,-35.38"/>
<polygon fill="midnightblue" stroke="midnightblue" points="3035.15,-34.86 3031,-25.11 3028.16,-35.32 3035.15,-34.86"/>
</g>
<!-- Node73&#45;&gt;Node6 -->
<g id="edge104" class="edge">
<title>Node73&#45;&gt;Node6</title>
<path fill="none" stroke="midnightblue" d="M2725.45,-360.74C2673.08,-349.03 2594.07,-331.36 2548.3,-321.12"/>
<polygon fill="midnightblue" stroke="midnightblue" points="2549.04,-317.7 2538.52,-318.93 2547.51,-324.53 2549.04,-317.7"/>
</g>
<!-- Node73&#45;&gt;Node7 -->
<g id="edge105" class="edge">
<title>Node73&#45;&gt;Node7</title>
<path fill="none" stroke="midnightblue" d="M2749.66,-358.48C2716.31,-342.54 2658.88,-316.8 2607,-302 2460.99,-260.35 2420.93,-262.56 2270,-246 1974.45,-213.58 1895.79,-255.71 1602,-210 1548,-201.6 1536.63,-189.53 1483,-179 1386.72,-160.11 1273.4,-146.78 1205.75,-139.75"/>
<polygon fill="midnightblue" stroke="midnightblue" points="1206.01,-136.26 1195.7,-138.72 1205.29,-143.22 1206.01,-136.26"/>
</g>
<!-- Node73&#45;&gt;Node15 -->
<g id="edge100" class="edge">
<title>Node73&#45;&gt;Node15</title>
<path fill="none" stroke="midnightblue" d="M2812.37,-358.48C2917.76,-314.77 3232.84,-178.36 3291,-87 3300.77,-71.66 3300.9,-50.45 3299.28,-35.31"/>
<polygon fill="midnightblue" stroke="midnightblue" points="3302.7,-34.52 3297.83,-25.11 3295.77,-35.51 3302.7,-34.52"/>
</g>
<!-- Node75&#45;&gt;Node4 -->
<g id="edge107" class="edge">
<title>Node75&#45;&gt;Node4</title>
<path fill="none" stroke="midnightblue" d="M1886.01,-363.97C2014.65,-339.53 2374.91,-270.73 2379,-266 2436.91,-199 2352.48,-147.67 2389,-67 2395.53,-52.57 2408.22,-40.11 2419.42,-31.19"/>
<polygon fill="midnightblue" stroke="midnightblue" points="2421.68,-33.87 2427.58,-25.07 2417.48,-28.27 2421.68,-33.87"/>
</g>
<!-- Node75&#45;&gt;Node7 -->
<g id="edge108" class="edge">
<title>Node75&#45;&gt;Node7</title>
<path fill="none" stroke="midnightblue" d="M1769.27,-367.22C1627.51,-356.59 1323.33,-332.69 1303,-322 1283.55,-311.77 1193.11,-195.43 1159.03,-151.06"/>
<polygon fill="midnightblue" stroke="midnightblue" points="1161.7,-148.78 1152.84,-142.97 1156.14,-153.03 1161.7,-148.78"/>
</g>
<!-- Node75&#45;&gt;Node18 -->
<g id="edge109" class="edge">
<title>Node75&#45;&gt;Node18</title>
<path fill="none" stroke="midnightblue" d="M1838.85,-363.98C1836.71,-355.49 1833.36,-342.2 1830.62,-331.32"/>
<polygon fill="midnightblue" stroke="midnightblue" points="1833.98,-330.35 1828.15,-321.51 1827.2,-332.06 1833.98,-330.35"/>
</g>
<!-- Node76&#45;&gt;Node52 -->
<g id="edge112" class="edge">
<title>Node76&#45;&gt;Node52</title>
<path fill="none" stroke="midnightblue" d="M2195.15,-620.78C2209.86,-602.19 2243.15,-556.72 2255,-512 2278.35,-423.91 2231.54,-316.6 2210.51,-274.83"/>
<polygon fill="midnightblue" stroke="midnightblue" points="2213.59,-273.16 2205.89,-265.88 2207.37,-276.38 2213.59,-273.16"/>
</g>
<!-- Node76&#45;&gt;Node57 -->
<g id="edge111" class="edge">
<title>Node76&#45;&gt;Node57</title>
<path fill="none" stroke="midnightblue" d="M2143.6,-620.94C2087.58,-610.13 1990.51,-591.41 1923.63,-578.51"/>
<polygon fill="midnightblue" stroke="midnightblue" points="1924.06,-575.03 1913.58,-576.57 1922.73,-581.9 1924.06,-575.03"/>
</g>
<!-- Node86&#45;&gt;Node7 -->
<g id="edge116" class="edge">
<title>Node86&#45;&gt;Node7</title>
<path fill="none" stroke="midnightblue" d="M1427.78,-682.41C1414.35,-647.43 1375.92,-554.95 1323,-492 1249.23,-404.24 1193.23,-416.96 1129,-322 1092.72,-268.35 1076.22,-238.83 1101,-179 1105.92,-167.12 1115.67,-156.74 1124.83,-148.96"/>
<polygon fill="midnightblue" stroke="midnightblue" points="1127.25,-151.51 1132.94,-142.56 1122.92,-146.01 1127.25,-151.51"/>
</g>
<!-- Node86&#45;&gt;Node25 -->
<g id="edge117" class="edge">
<title>Node86&#45;&gt;Node25</title>
<path fill="none" stroke="midnightblue" d="M1369.77,-685.22C1206.22,-654.68 775.84,-565.33 688,-456 645.26,-402.81 656.96,-313.96 664.69,-275.58"/>
<polygon fill="midnightblue" stroke="midnightblue" points="668.12,-276.29 666.81,-265.78 661.28,-274.81 668.12,-276.29"/>
</g>
<!-- Node86&#45;&gt;Node56 -->
<g id="edge119" class="edge">
<title>Node86&#45;&gt;Node56</title>
<path fill="none" stroke="midnightblue" d="M1478.31,-682.48C1516.28,-670.72 1569.84,-654.14 1605.46,-643.12"/>
<polygon fill="midnightblue" stroke="midnightblue" points="1606.93,-646.33 1615.45,-640.03 1604.86,-639.64 1606.93,-646.33"/>
</g>
<!-- Node86&#45;&gt;Node58 -->
<g id="edge118" class="edge">
<title>Node86&#45;&gt;Node58</title>
<path fill="none" stroke="midnightblue" d="M1435.26,-682.43C1442.19,-639.32 1463.14,-509.05 1470.99,-460.24"/>
<polygon fill="midnightblue" stroke="midnightblue" points="1474.48,-460.59 1472.61,-450.16 1467.56,-459.47 1474.48,-460.59"/>
</g>
<!-- Node86&#45;&gt;Node75 -->
<g id="edge120" class="edge">
<title>Node86&#45;&gt;Node75</title>
<path fill="none" stroke="midnightblue" d="M1450.79,-682.46C1517.58,-629.75 1753.01,-443.94 1821.92,-389.56"/>
<polygon fill="midnightblue" stroke="midnightblue" points="1824.48,-392 1830.16,-383.05 1820.14,-386.5 1824.48,-392"/>
</g>
<!-- Node99&#45;&gt;Node7 -->
<g id="edge122" class="edge">
<title>Node99&#45;&gt;Node7</title>
<path fill="none" stroke="midnightblue" d="M730.25,-425.28C677.11,-394.03 563.87,-316.54 609,-246 629.58,-213.84 654.62,-230.23 687,-210 705.49,-198.45 704.89,-187.4 725,-179 788.72,-152.41 985.61,-140.61 1085.93,-136.22"/>
<polygon fill="midnightblue" stroke="midnightblue" points="1086.36,-139.7 1096.2,-135.78 1086.06,-132.71 1086.36,-139.7"/>
</g>
<!-- Node99&#45;&gt;Node100 -->
<g id="edge123" class="edge">
<title>Node99&#45;&gt;Node100</title>
<path fill="none" stroke="midnightblue" d="M795.93,-425.4C823.65,-415.6 860.79,-402.48 890.42,-392.02"/>
<polygon fill="midnightblue" stroke="midnightblue" points="891.89,-395.21 900.15,-388.58 889.56,-388.61 891.89,-395.21"/>
</g>
<!-- Node100&#45;&gt;Node7 -->
<g id="edge125" class="edge">
<title>Node100&#45;&gt;Node7</title>
<path fill="none" stroke="midnightblue" d="M925.82,-358.49C902.28,-334.83 856.91,-287.45 849,-266 835.61,-229.72 823.79,-208.32 849,-179 878.98,-144.14 1008.57,-135.95 1086.32,-134.23"/>
<polygon fill="midnightblue" stroke="midnightblue" points="1086.54,-137.73 1096.47,-134.04 1086.4,-130.73 1086.54,-137.73"/>
</g>
<!-- Node100&#45;&gt;Node18 -->
<g id="edge126" class="edge">
<title>Node100&#45;&gt;Node18</title>
<path fill="none" stroke="midnightblue" d="M992.77,-368.96C1145.83,-358.68 1589.79,-328.86 1759.22,-317.48"/>
<polygon fill="midnightblue" stroke="midnightblue" points="1759.51,-320.97 1769.25,-316.81 1759.04,-313.99 1759.51,-320.97"/>
</g>
<!-- Node100&#45;&gt;Node21 -->
<g id="edge124" class="edge">
<title>Node100&#45;&gt;Node21</title>
<path fill="none" stroke="midnightblue" d="M949.07,-358.34C962.65,-337.15 988.22,-297.24 1002.89,-274.34"/>
<polygon fill="midnightblue" stroke="midnightblue" points="1006,-275.98 1008.45,-265.67 1000.1,-272.2 1006,-275.98"/>
</g>
<!-- Node101&#45;&gt;Node56 -->
<g id="edge128" class="edge">
<title>Node101&#45;&gt;Node56</title>
<path fill="none" stroke="midnightblue" d="M1762.87,-749.21C1752.65,-740.27 1736.5,-725.92 1723,-713 1699.86,-690.85 1674.07,-664.19 1658.18,-647.55"/>
<polygon fill="midnightblue" stroke="midnightblue" points="1660.66,-645.07 1651.24,-640.24 1655.59,-649.9 1660.66,-645.07"/>
</g>
<!-- Node118&#45;&gt;Node56 -->
<g id="edge130" class="edge">
<title>Node118&#45;&gt;Node56</title>
<path fill="none" stroke="midnightblue" d="M1643,-749.31C1643,-728.99 1643,-678.05 1643,-650.28"/>
<polygon fill="midnightblue" stroke="midnightblue" points="1646.5,-650.26 1643,-640.26 1639.5,-650.26 1646.5,-650.26"/>
</g>
<!-- Node119&#45;&gt;Node3 -->
<g id="edge132" class="edge">
<title>Node119&#45;&gt;Node3</title>
<path fill="none" stroke="midnightblue" d="M1703.28,-817.84C1441.93,-810.67 522.2,-776.48 265,-646 116.81,-570.82 95,-479.17 95,-313 95,-313 95,-313 95,-132 95,-96.61 110.92,-85.65 141,-67 189.29,-37.06 359.62,-23.06 431.56,-18.38"/>
<polygon fill="midnightblue" stroke="midnightblue" points="432.07,-21.86 441.83,-17.74 431.63,-14.87 432.07,-21.86"/>
</g>
<!-- Node119&#45;&gt;Node4 -->
<g id="edge133" class="edge">
<title>Node119&#45;&gt;Node4</title>
<path fill="none" stroke="midnightblue" d="M1842.92,-818.17C1959.04,-815 2198.63,-804.36 2398,-769 2489.73,-752.73 2518.69,-758.48 2600,-713 2638.15,-691.66 2643.25,-678.93 2672,-646 2761.76,-543.21 2808.25,-521.72 2840,-389 2857.65,-315.22 2807.55,-237.87 2782,-179 2756.91,-121.18 2750.59,-96.71 2695,-67 2626,-30.12 2533.45,-20.05 2481.24,-17.37"/>
<polygon fill="midnightblue" stroke="midnightblue" points="2481.19,-13.87 2471.04,-16.92 2480.88,-20.86 2481.19,-13.87"/>
</g>
<!-- Node119&#45;&gt;Node5 -->
<g id="edge134" class="edge">
<title>Node119&#45;&gt;Node5</title>
<path fill="none" stroke="midnightblue" d="M1842.84,-818.28C2119.69,-811.62 3125,-769.08 3125,-503 3125,-503 3125,-503 3125,-439.5 3125,-298.7 3165.2,-261.35 3139,-123 3134.02,-96.73 3134.42,-87.29 3117,-67 3102.6,-50.23 3081.17,-37.7 3063.19,-29.32"/>
<polygon fill="midnightblue" stroke="midnightblue" points="3064.18,-25.93 3053.62,-25.08 3061.35,-32.33 3064.18,-25.93"/>
</g>
<!-- Node119&#45;&gt;Node6 -->
<g id="edge135" class="edge">
<title>Node119&#45;&gt;Node6</title>
<path fill="none" stroke="midnightblue" d="M1842.76,-818.13C2039.24,-812.41 2583,-782.9 2583,-631.5 2583,-631.5 2583,-631.5 2583,-501 2583,-437.32 2604.69,-413.8 2574,-358 2566.52,-344.4 2552.98,-333.85 2540.46,-326.4"/>
<polygon fill="midnightblue" stroke="midnightblue" points="2542.06,-323.29 2531.62,-321.51 2538.68,-329.41 2542.06,-323.29"/>
</g>
<!-- Node119&#45;&gt;Node7 -->
<g id="edge136" class="edge">
<title>Node119&#45;&gt;Node7</title>
<path fill="none" stroke="midnightblue" d="M1739.7,-810.94C1700.7,-800.9 1634.16,-783.77 1577,-769 1316.16,-701.58 1179.56,-734.74 1028,-512 988.95,-454.61 1029.93,-421.54 1002,-358 993.84,-339.44 984.3,-339.46 974,-322 960.24,-298.68 955.44,-292.53 950,-266 942.13,-227.64 936.82,-207.19 964,-179 980.89,-161.48 1040.14,-149.08 1086.51,-141.79"/>
<polygon fill="midnightblue" stroke="midnightblue" points="1087.13,-145.23 1096.48,-140.26 1086.07,-138.31 1087.13,-145.23"/>
</g>
<!-- Node119&#45;&gt;Node69 -->
<g id="edge139" class="edge">
<title>Node119&#45;&gt;Node69</title>
<path fill="none" stroke="midnightblue" d="M1811.97,-810.98C1860.55,-800.35 1943.58,-782.18 1996.3,-770.65"/>
<polygon fill="midnightblue" stroke="midnightblue" points="1997.08,-774.07 2006.1,-768.51 1995.58,-767.23 1997.08,-774.07"/>
</g>
<!-- Node119&#45;&gt;Node101 -->
<g id="edge138" class="edge">
<title>Node119&#45;&gt;Node101</title>
<path fill="none" stroke="midnightblue" d="M1773,-810.98C1773,-802.58 1773,-789.48 1773,-778.66"/>
<polygon fill="midnightblue" stroke="midnightblue" points="1776.5,-778.51 1773,-768.51 1769.5,-778.51 1776.5,-778.51"/>
</g>
<!-- Node119&#45;&gt;Node118 -->
<g id="edge137" class="edge">
<title>Node119&#45;&gt;Node118</title>
<path fill="none" stroke="midnightblue" d="M1754.37,-810.98C1732.56,-800.99 1696.2,-784.35 1670.98,-772.81"/>
<polygon fill="midnightblue" stroke="midnightblue" points="1672.14,-769.49 1661.59,-768.51 1669.23,-775.85 1672.14,-769.49"/>
</g>
<!-- Node103&#45;&gt;Node3 -->
<g id="edge141" class="edge">
<title>Node103&#45;&gt;Node3</title>
<path fill="none" stroke="midnightblue" d="M1219.99,-493.13C1216.95,-492.72 1213.93,-492.34 1211,-492 1095.26,-478.74 793.68,-505.02 688,-456 549.71,-391.86 515.61,-347.11 449,-210 421.2,-152.78 428.88,-129.03 443,-67 445.57,-55.71 450.45,-43.72 454.87,-34.26"/>
<polygon fill="midnightblue" stroke="midnightblue" points="458.08,-35.66 459.34,-25.14 451.79,-32.58 458.08,-35.66"/>
</g>
<!-- Node103&#45;&gt;Node4 -->
<g id="edge142" class="edge">
<title>Node103&#45;&gt;Node4</title>
<path fill="none" stroke="midnightblue" d="M1314.34,-498.16C1439.5,-489.84 1788.86,-461.4 2070,-389 2107.33,-379.39 2114.38,-370.05 2151,-358 2207.95,-339.26 2223.31,-338.31 2281,-322 2302.59,-315.89 2457.24,-279.71 2475,-266 2503.87,-243.72 2517,-231.97 2517,-195.5 2517,-195.5 2517,-195.5 2517,-132 2517,-90.31 2482.02,-52.03 2459.52,-31.72"/>
<polygon fill="midnightblue" stroke="midnightblue" points="2461.73,-29 2451.89,-25.08 2457.14,-34.28 2461.73,-29"/>
</g>
<!-- Node103&#45;&gt;Node7 -->
<g id="edge144" class="edge">
<title>Node103&#45;&gt;Node7</title>
<path fill="none" stroke="midnightblue" d="M1250.16,-492.48C1216.73,-475.19 1140.28,-433.83 1083,-389 1021.87,-341.16 988.85,-337.66 959,-266 931.8,-200.71 1032.81,-162.4 1096.9,-145.12"/>
<polygon fill="midnightblue" stroke="midnightblue" points="1098.05,-148.43 1106.84,-142.52 1096.28,-141.66 1098.05,-148.43"/>
</g>
<!-- Node103&#45;&gt;Node52 -->
<g id="edge143" class="edge">
<title>Node103&#45;&gt;Node52</title>
<path fill="none" stroke="midnightblue" d="M1277.67,-492.24C1309.96,-466.31 1410.38,-389.76 1508,-358 1671.01,-304.97 1722.52,-347.68 1892,-322 1987.04,-307.6 2096.86,-282.43 2156.62,-268"/>
<polygon fill="midnightblue" stroke="midnightblue" points="2157.59,-271.37 2166.48,-265.61 2155.94,-264.56 2157.59,-271.37"/>
</g>
<!-- Node103&#45;&gt;Node58 -->
<g id="edge145" class="edge">
<title>Node103&#45;&gt;Node58</title>
<path fill="none" stroke="midnightblue" d="M1296.66,-492.48C1332.93,-482.05 1394.46,-464.36 1434.66,-452.81"/>
<polygon fill="midnightblue" stroke="midnightblue" points="1435.75,-456.14 1444.4,-450.01 1433.82,-449.41 1435.75,-456.14"/>
</g>
<!-- Node98&#45;&gt;Node7 -->
<g id="edge150" class="edge">
<title>Node98&#45;&gt;Node7</title>
<path fill="none" stroke="midnightblue" d="M621.54,-553.94C552.99,-535.42 403,-489.43 403,-441.5 403,-441.5 403,-441.5 403,-372.5 403,-339.4 407.8,-328.96 427,-302 456.62,-260.42 572.14,-193.79 621,-179 706.61,-153.09 967.77,-140.51 1086.33,-136.01"/>
<polygon fill="midnightblue" stroke="midnightblue" points="1086.46,-139.51 1096.32,-135.64 1086.2,-132.51 1086.46,-139.51"/>
</g>
<!-- Node98&#45;&gt;Node25 -->
<g id="edge151" class="edge">
<title>Node98&#45;&gt;Node25</title>
<path fill="none" stroke="midnightblue" d="M654.07,-553.88C650.7,-520.95 640.12,-399.92 655,-302 656.37,-293 659.19,-283.33 661.95,-275.26"/>
<polygon fill="midnightblue" stroke="midnightblue" points="665.27,-276.37 665.4,-265.78 658.69,-273.98 665.27,-276.37"/>
</g>
<!-- Node98&#45;&gt;Node61 -->
<g id="edge152" class="edge">
<title>Node98&#45;&gt;Node61</title>
<path fill="none" stroke="midnightblue" d="M719.03,-554.29C803.53,-543.45 952.11,-524.4 1042.45,-512.82"/>
<polygon fill="midnightblue" stroke="midnightblue" points="1043.16,-516.25 1052.63,-511.51 1042.27,-509.31 1043.16,-516.25"/>
</g>
<!-- Node121&#45;&gt;Node3 -->
<g id="edge158" class="edge">
<title>Node121&#45;&gt;Node3</title>
<path fill="none" stroke="midnightblue" d="M1019.08,-1008.73C774.71,-1005.2 0,-985.88 0,-883 0,-883 0,-883 0,-132 0,-87.89 34.75,-85.05 75,-67 138.78,-38.4 350.41,-23.19 431.76,-18.29"/>
<polygon fill="midnightblue" stroke="midnightblue" points="432.12,-21.78 441.9,-17.69 431.71,-14.79 432.12,-21.78"/>
</g>
<!-- Node121&#45;&gt;Node4 -->
<g id="edge159" class="edge">
<title>Node121&#45;&gt;Node4</title>
<path fill="none" stroke="midnightblue" d="M1164.8,-996.02C1167.9,-995.64 1170.98,-995.29 1174,-995 1228.48,-989.72 3101.17,-993.08 3144,-959 3171.25,-937.32 3163,-917.82 3163,-883 3163,-883 3163,-883 3163,-372.5 3163,-179.06 3035.08,-132.3 2853,-67 2722.94,-20.36 2556.6,-15.25 2481.27,-15.63"/>
<polygon fill="midnightblue" stroke="midnightblue" points="2481.23,-12.13 2471.26,-15.72 2481.29,-19.13 2481.23,-12.13"/>
</g>
<!-- Node121&#45;&gt;Node7 -->
<g id="edge161" class="edge">
<title>Node121&#45;&gt;Node7</title>
<path fill="none" stroke="midnightblue" d="M1164.81,-996.19C1167.91,-995.76 1170.99,-995.36 1174,-995 1423.39,-965.09 1487.86,-981.77 1738,-959 1990.28,-936.03 2751.44,-996.92 2862,-769 2921.2,-646.95 2742.27,-607.98 2278,-425 2187.64,-389.39 2165.5,-375.68 2070,-358 1925.57,-331.26 1546.88,-375.28 1410,-322 1363.36,-303.85 1277.98,-206.25 1236,-179 1216.84,-166.56 1193.77,-155.09 1175.78,-146.84"/>
<polygon fill="midnightblue" stroke="midnightblue" points="1176.92,-143.51 1166.37,-142.6 1174.05,-149.9 1176.92,-143.51"/>
</g>
<!-- Node122 -->
<g id="node45" class="node">
<title>Node122</title>
<g id="a_node45"><a xlink:title=" ">
<polygon fill="none" stroke="#bfbfbf" points="3091,-934 3091,-953 3135,-953 3135,-934 3091,-934"/>
<text text-anchor="middle" x="3113" y="-941" font-family="Helvetica,sans-Serif" font-size="10.00">limits</text>
</a>
</g>
</g>
<!-- Node121&#45;&gt;Node122 -->
<g id="edge160" class="edge">
<title>Node121&#45;&gt;Node122</title>
<path fill="none" stroke="midnightblue" d="M1164.8,-996.02C1167.9,-995.64 1170.98,-995.29 1174,-995 1384.49,-974.53 2869.77,-1001.2 3077,-959 3079.91,-958.41 3082.88,-957.59 3085.81,-956.64"/>
<polygon fill="midnightblue" stroke="midnightblue" points="3087.3,-959.82 3095.45,-953.05 3084.86,-953.26 3087.3,-959.82"/>
</g>
<!-- Node123 -->
<g id="node46" class="node">
<title>Node123</title>
<g id="a_node46"><a xlink:href="../../d1/db8/openmp__utils_8h.html" target="_top" xlink:title=" ">
<polygon fill="none" stroke="red" points="3229.5,-688 3229.5,-707 3360.5,-707 3360.5,-688 3229.5,-688"/>
<text text-anchor="middle" x="3295" y="-695" font-family="Helvetica,sans-Serif" font-size="10.00">utilities/openmp_utils.h</text>
</a>
</g>
</g>
<!-- Node121&#45;&gt;Node123 -->
<g id="edge162" class="edge">
<title>Node121&#45;&gt;Node123</title>
<path fill="none" stroke="midnightblue" d="M1164.8,-996.02C1167.9,-995.63 1170.98,-995.29 1174,-995 1284.78,-984.28 3072.82,-998.17 3177,-959 3226.01,-940.58 3267,-935.35 3267,-883 3267,-883 3267,-883 3267,-819.5 3267,-782.27 3279.74,-740.22 3288.03,-716.79"/>
<polygon fill="midnightblue" stroke="midnightblue" points="3291.41,-717.74 3291.57,-707.15 3284.84,-715.33 3291.41,-717.74"/>
</g>
<!-- Node130 -->
<g id="node47" class="node">
<title>Node130</title>
<g id="a_node47"><a xlink:title=" ">
<polygon fill="none" stroke="#bfbfbf" points="355.5,-548.5 355.5,-578.5 496.5,-578.5 496.5,-548.5 355.5,-548.5"/>
<text text-anchor="start" x="363.5" y="-566.5" font-family="Helvetica,sans-Serif" font-size="10.00">custom_utilities/Auxiliary</text>
<text text-anchor="middle" x="426" y="-555.5" font-family="Helvetica,sans-Serif" font-size="10.00">Functions.h</text>
</a>
</g>
</g>
<!-- Node121&#45;&gt;Node130 -->
<g id="edge165" class="edge">
<title>Node121&#45;&gt;Node130</title>
<path fill="none" stroke="midnightblue" d="M1019.32,-1008.38C866.33,-1004.05 525,-983.16 525,-883 525,-883 525,-883 525,-696.5 525,-659.31 527.56,-645.31 506,-615 496.63,-601.83 482.63,-591.32 468.96,-583.37"/>
<polygon fill="midnightblue" stroke="midnightblue" points="470.53,-580.24 460.07,-578.52 467.17,-586.38 470.53,-580.24"/>
</g>
<!-- Node131 -->
<g id="node48" class="node">
<title>Node131</title>
<g id="a_node48"><a xlink:href="../../d5/d44/_geometry_functions_8h.html" target="_top" xlink:title=" ">
<polygon fill="none" stroke="red" points="1583,-928.5 1583,-958.5 1729,-958.5 1729,-928.5 1583,-928.5"/>
<text text-anchor="start" x="1591" y="-946.5" font-family="Helvetica,sans-Serif" font-size="10.00">custom_utilities/Geometry</text>
<text text-anchor="middle" x="1656" y="-935.5" font-family="Helvetica,sans-Serif" font-size="10.00">Functions.h</text>
</a>
</g>
</g>
<!-- Node121&#45;&gt;Node131 -->
<g id="edge166" class="edge">
<title>Node121&#45;&gt;Node131</title>
<path fill="none" stroke="midnightblue" d="M1164.84,-996.35C1167.93,-995.87 1170.99,-995.42 1174,-995 1313.42,-975.4 1476.5,-959.84 1572.76,-951.42"/>
<polygon fill="midnightblue" stroke="midnightblue" points="1573.06,-954.91 1582.72,-950.56 1572.45,-947.94 1573.06,-954.91"/>
</g>
<!-- Node138 -->
<g id="node49" class="node">
<title>Node138</title>
<g id="a_node49"><a xlink:href="../../d2/dfc/spheric__particle_8h.html" target="_top" xlink:title=" ">
<polygon fill="none" stroke="red" points="355,-615.5 355,-645.5 497,-645.5 497,-615.5 355,-615.5"/>
<text text-anchor="start" x="363" y="-633.5" font-family="Helvetica,sans-Serif" font-size="10.00">custom_elements/spheric</text>
<text text-anchor="middle" x="426" y="-622.5" font-family="Helvetica,sans-Serif" font-size="10.00">_particle.h</text>
</a>
</g>
</g>
<!-- Node121&#45;&gt;Node138 -->
<g id="edge169" class="edge">
<title>Node121&#45;&gt;Node138</title>
<path fill="none" stroke="midnightblue" d="M1019.28,-1007.64C872.17,-1003.25 549.86,-990.15 511,-959 483.36,-936.84 487,-918.42 487,-883 487,-883 487,-883 487,-758 487,-718.26 462.27,-677.85 444.31,-653.73"/>
<polygon fill="midnightblue" stroke="midnightblue" points="446.93,-651.39 438.05,-645.61 441.38,-655.67 446.93,-651.39"/>
</g>
<!-- Node147 -->
<g id="node50" class="node">
<title>Node147</title>
<g id="a_node50"><a xlink:href="../../d7/dbe/thermal__dem__application__variables_8h.html" target="_top" xlink:title=" ">
<polygon fill="none" stroke="red" points="28.5,-805.5 28.5,-835.5 169.5,-835.5 169.5,-805.5 28.5,-805.5"/>
<text text-anchor="start" x="36.5" y="-823.5" font-family="Helvetica,sans-Serif" font-size="10.00">thermal_dem_application</text>
<text text-anchor="middle" x="99" y="-812.5" font-family="Helvetica,sans-Serif" font-size="10.00">_variables.h</text>
</a>
</g>
</g>
<!-- Node121&#45;&gt;Node147 -->
<g id="edge176" class="edge">
<title>Node121&#45;&gt;Node147</title>
<path fill="none" stroke="midnightblue" d="M1019.1,-1009.9C902.4,-1009.12 667.01,-1001.74 473,-959 346.47,-931.12 204.9,-870.44 138.02,-839.87"/>
<polygon fill="midnightblue" stroke="midnightblue" points="139.25,-836.59 128.7,-835.59 136.33,-842.95 139.25,-836.59"/>
</g>
<!-- Node123&#45;&gt;Node4 -->
<g id="edge164" class="edge">
<title>Node123&#45;&gt;Node4</title>
<path fill="none" stroke="midnightblue" d="M3288.36,-687.77C3273.52,-667.37 3239,-614.54 3239,-564.5 3239,-564.5 3239,-564.5 3239,-311 3239,-129.31 3086.25,-114.96 2911,-67 2756.11,-24.61 2563.41,-17.52 2481.2,-16.53"/>
<polygon fill="midnightblue" stroke="midnightblue" points="2481.07,-13.03 2471.03,-16.43 2481,-20.03 2481.07,-13.03"/>
</g>
<!-- Node123&#45;&gt;Node15 -->
<g id="edge163" class="edge">
<title>Node123&#45;&gt;Node15</title>
<path fill="none" stroke="midnightblue" d="M3307.55,-687.88C3333.57,-668.89 3391,-620.61 3391,-564.5 3391,-564.5 3391,-564.5 3391,-132 3391,-87.02 3347.49,-50.02 3319.36,-30.8"/>
<polygon fill="midnightblue" stroke="midnightblue" points="3321.12,-27.77 3310.84,-25.2 3317.28,-33.62 3321.12,-27.77"/>
</g>
<!-- Node131&#45;&gt;Node2 -->
<g id="edge168" class="edge">
<title>Node131&#45;&gt;Node2</title>
<path fill="none" stroke="midnightblue" d="M1656,-928.4C1656,-920.47 1656,-910.46 1656,-901.86"/>
<polygon fill="midnightblue" stroke="midnightblue" points="1659.5,-901.66 1656,-891.66 1652.5,-901.66 1659.5,-901.66"/>
</g>
<!-- Node131&#45;&gt;Node123 -->
<g id="edge167" class="edge">
<title>Node131&#45;&gt;Node123</title>
<path fill="none" stroke="midnightblue" d="M1729.4,-941.34C1981.52,-936.69 2810.52,-915.56 3063,-836 3149.82,-808.64 3238.57,-743.54 3276.25,-713.79"/>
<polygon fill="midnightblue" stroke="midnightblue" points="3278.68,-716.34 3284.3,-707.36 3274.31,-710.87 3278.68,-716.34"/>
</g>
<!-- Node138&#45;&gt;Node3 -->
<g id="edge170" class="edge">
<title>Node138&#45;&gt;Node3</title>
<path fill="none" stroke="midnightblue" d="M354.91,-617.09C327.68,-609.6 297.73,-597.71 275,-579 228.11,-540.39 133,-418.24 133,-313 133,-313 133,-313 133,-132 133,-99.8 139.18,-86.24 165,-67 206.88,-35.8 363.41,-22.63 431.75,-18.28"/>
<polygon fill="midnightblue" stroke="midnightblue" points="432.16,-21.76 441.93,-17.66 431.73,-14.78 432.16,-21.76"/>
</g>
<!-- Node138&#45;&gt;Node4 -->
<g id="edge171" class="edge">
<title>Node138&#45;&gt;Node4</title>
<path fill="none" stroke="midnightblue" d="M497.02,-623.18C703.29,-604.28 1319.89,-544.04 1826,-456 1892.87,-444.37 2060.65,-413.37 2124,-389 2150.19,-378.93 2152.85,-368.18 2179,-358 2244.5,-332.49 2265.38,-341.19 2333,-322 2337.71,-320.66 2496.26,-269.16 2500,-266 2567.7,-208.83 2564.9,-138.08 2512,-67 2500.41,-51.42 2482.59,-38.77 2467.7,-30.03"/>
<polygon fill="midnightblue" stroke="midnightblue" points="2469.33,-26.93 2458.9,-25.1 2465.91,-33.04 2469.33,-26.93"/>
</g>
<!-- Node138&#45;&gt;Node7 -->
<g id="edge172" class="edge">
<title>Node138&#45;&gt;Node7</title>
<path fill="none" stroke="midnightblue" d="M392.04,-615.41C375.85,-607.06 357.55,-594.97 346,-579 325.59,-550.79 327,-537.82 327,-503 327,-503 327,-503 327,-439.5 327,-287.09 407.68,-233.52 550,-179 646.7,-141.96 954.91,-135.32 1086.03,-134.2"/>
<polygon fill="midnightblue" stroke="midnightblue" points="1086.32,-137.69 1096.29,-134.12 1086.26,-130.69 1086.32,-137.69"/>
</g>
<!-- Node138&#45;&gt;Node9 -->
<g id="edge174" class="edge">
<title>Node138&#45;&gt;Node9</title>
<path fill="none" stroke="midnightblue" d="M376.64,-615.44C358.17,-607.68 338.82,-596.05 327,-579 241.18,-455.21 284.17,-353.18 390,-246 578.77,-54.82 921.26,-21.84 1071.72,-16.89"/>
<polygon fill="midnightblue" stroke="midnightblue" points="1071.89,-20.39 1081.78,-16.6 1071.68,-13.39 1071.89,-20.39"/>
</g>
<!-- Node138&#45;&gt;Node98 -->
<g id="edge175" class="edge">
<title>Node138&#45;&gt;Node98</title>
<path fill="none" stroke="midnightblue" d="M475.41,-615.48C517.17,-603.62 576.23,-586.86 615.06,-575.84"/>
<polygon fill="midnightblue" stroke="midnightblue" points="616.29,-579.13 624.95,-573.03 614.38,-572.39 616.29,-579.13"/>
</g>
<!-- Node138&#45;&gt;Node130 -->
<g id="edge173" class="edge">
<title>Node138&#45;&gt;Node130</title>
<path fill="none" stroke="midnightblue" d="M426,-615.4C426,-607.64 426,-597.81 426,-588.86"/>
<polygon fill="midnightblue" stroke="midnightblue" points="429.5,-588.58 426,-578.58 422.5,-588.58 429.5,-588.58"/>
</g>
<!-- Node147&#45;&gt;Node7 -->
<g id="edge177" class="edge">
<title>Node147&#45;&gt;Node7</title>
<path fill="none" stroke="midnightblue" d="M99,-805.34C99,-782.75 99,-737.15 99,-698.5 99,-698.5 99,-698.5 99,-562.5 99,-323.8 248.26,-253.61 475,-179 587.53,-141.97 943.26,-135.37 1085.94,-134.23"/>
<polygon fill="midnightblue" stroke="midnightblue" points="1086.27,-137.72 1096.24,-134.15 1086.22,-130.72 1086.27,-137.72"/>
</g>
</g>
</svg>
