<?xml version="1.0" encoding="UTF-8" standalone="no"?>
<!DOCTYPE svg PUBLIC "-//W3C//DTD SVG 1.1//EN"
 "http://www.w3.org/Graphics/SVG/1.1/DTD/svg11.dtd">
<!-- Generated by graphviz version 7.1.0 (0)
 -->
<!-- Title: /software/kratos/doxygen/kratos/utilities/binbased_fast_point_locator_conditions.h Pages: 1 -->
<svg width="629pt" height="214pt"
 viewBox="0.00 0.00 629.00 214.00" xmlns="http://www.w3.org/2000/svg" xmlns:xlink="http://www.w3.org/1999/xlink">
<g id="graph0" class="graph" transform="scale(1 1) rotate(0) translate(4 210)">
<title>/software/kratos/doxygen/kratos/utilities/binbased_fast_point_locator_conditions.h</title>
<!-- Node1 -->
<g id="node1" class="node">
<title>Node1</title>
<g id="a_node1"><a xlink:title=" ">
<polygon fill="#999999" stroke="#666666" points="353,-206 179,-206 179,-165 353,-165 353,-206"/>
<text text-anchor="start" x="187" y="-194" font-family="Helvetica,sans-Serif" font-size="10.00">/software/kratos/doxygen</text>
<text text-anchor="start" x="187" y="-183" font-family="Helvetica,sans-Serif" font-size="10.00">/kratos/utilities/binbased</text>
<text text-anchor="middle" x="266" y="-172" font-family="Helvetica,sans-Serif" font-size="10.00">_fast_point_locator_conditions.h</text>
</a>
</g>
</g>
<!-- Node2 -->
<g id="node2" class="node">
<title>Node2</title>
<g id="a_node2"><a xlink:href="../../d5/d57/apply__periodic__boundary__condition__process_8cpp.html" target="_top" xlink:title=" ">
<polygon fill="white" stroke="#666666" points="162,-129 0,-129 0,-77 162,-77 162,-129"/>
<text text-anchor="start" x="8" y="-117" font-family="Helvetica,sans-Serif" font-size="10.00">/software/kratos/doxygen</text>
<text text-anchor="start" x="8" y="-106" font-family="Helvetica,sans-Serif" font-size="10.00">/kratos/processes/apply</text>
<text text-anchor="start" x="8" y="-95" font-family="Helvetica,sans-Serif" font-size="10.00">_periodic_boundary_condition</text>
<text text-anchor="middle" x="81" y="-84" font-family="Helvetica,sans-Serif" font-size="10.00">_process.cpp</text>
</a>
</g>
</g>
<!-- Node1&#45;&gt;Node2 -->
<g id="edge1" class="edge">
<title>Node1&#45;&gt;Node2</title>
<path fill="none" stroke="#63b8ff" d="M209.96,-160.11C187.67,-150.42 162.02,-139.25 139.5,-129.45"/>
<polygon fill="#63b8ff" stroke="#63b8ff" points="208.32,-163.22 218.88,-164 211.11,-156.8 208.32,-163.22"/>
</g>
<!-- Node3 -->
<g id="node3" class="node">
<title>Node3</title>
<g id="a_node3"><a xlink:href="../../d9/df1/add__geometrical__utilities__to__python_8cpp.html" target="_top" xlink:title=" ">
<polygon fill="white" stroke="#666666" points="352,-123.5 180,-123.5 180,-82.5 352,-82.5 352,-123.5"/>
<text text-anchor="start" x="188" y="-111.5" font-family="Helvetica,sans-Serif" font-size="10.00">/software/kratos/doxygen</text>
<text text-anchor="start" x="188" y="-100.5" font-family="Helvetica,sans-Serif" font-size="10.00">/kratos/python/add_geometrical</text>
<text text-anchor="middle" x="266" y="-89.5" font-family="Helvetica,sans-Serif" font-size="10.00">_utilities_to_python.cpp</text>
</a>
</g>
</g>
<!-- Node1&#45;&gt;Node3 -->
<g id="edge2" class="edge">
<title>Node1&#45;&gt;Node3</title>
<path fill="none" stroke="#63b8ff" d="M266,-153.16C266,-143.33 266,-132.76 266,-123.95"/>
<polygon fill="#63b8ff" stroke="#63b8ff" points="262.5,-153.09 266,-163.09 269.5,-153.09 262.5,-153.09"/>
</g>
<!-- Node4 -->
<g id="node4" class="node">
<title>Node4</title>
<g id="a_node4"><a xlink:href="../../d0/da5/rve__periodicity__utility_8h.html" target="_top" xlink:title=" ">
<polygon fill="white" stroke="#666666" points="536,-123.5 370,-123.5 370,-82.5 536,-82.5 536,-123.5"/>
<text text-anchor="start" x="378" y="-111.5" font-family="Helvetica,sans-Serif" font-size="10.00">/software/kratos/doxygen</text>
<text text-anchor="start" x="378" y="-100.5" font-family="Helvetica,sans-Serif" font-size="10.00">/kratos/utilities/rve_periodicity</text>
<text text-anchor="middle" x="453" y="-89.5" font-family="Helvetica,sans-Serif" font-size="10.00">_utility.h</text>
</a>
</g>
</g>
<!-- Node1&#45;&gt;Node4 -->
<g id="edge3" class="edge">
<title>Node1&#45;&gt;Node4</title>
<path fill="none" stroke="#63b8ff" d="M322.65,-160.11C349.53,-148.54 381.24,-134.89 406.66,-123.95"/>
<polygon fill="#63b8ff" stroke="#63b8ff" points="321.42,-156.83 313.61,-164 324.18,-163.26 321.42,-156.83"/>
</g>
<!-- Node5 -->
<g id="node5" class="node">
<title>Node5</title>
<g id="a_node5"><a xlink:href="../../d6/d00/add__other__utilities__to__python_8cpp.html" target="_top" xlink:title=" ">
<polygon fill="white" stroke="#666666" points="437,-41 297,-41 297,0 437,0 437,-41"/>
<text text-anchor="start" x="305" y="-29" font-family="Helvetica,sans-Serif" font-size="10.00">/software/kratos/doxygen</text>
<text text-anchor="start" x="305" y="-18" font-family="Helvetica,sans-Serif" font-size="10.00">/kratos/python/add_other</text>
<text text-anchor="middle" x="367" y="-7" font-family="Helvetica,sans-Serif" font-size="10.00">_utilities_to_python.cpp</text>
</a>
</g>
</g>
<!-- Node4&#45;&gt;Node5 -->
<g id="edge4" class="edge">
<title>Node4&#45;&gt;Node5</title>
<path fill="none" stroke="#63b8ff" d="M423.62,-74.5C412.03,-63.65 398.97,-51.42 388.31,-41.45"/>
<polygon fill="#63b8ff" stroke="#63b8ff" points="420.94,-76.79 430.64,-81.07 425.73,-71.68 420.94,-76.79"/>
</g>
<!-- Node6 -->
<g id="node6" class="node">
<title>Node6</title>
<g id="a_node6"><a xlink:href="../../dd/da3/rve__periodicity__utility_8cpp.html" target="_top" xlink:title=" ">
<polygon fill="white" stroke="#666666" points="621,-41 455,-41 455,0 621,0 621,-41"/>
<text text-anchor="start" x="463" y="-29" font-family="Helvetica,sans-Serif" font-size="10.00">/software/kratos/doxygen</text>
<text text-anchor="start" x="463" y="-18" font-family="Helvetica,sans-Serif" font-size="10.00">/kratos/utilities/rve_periodicity</text>
<text text-anchor="middle" x="538" y="-7" font-family="Helvetica,sans-Serif" font-size="10.00">_utility.cpp</text>
</a>
</g>
</g>
<!-- Node4&#45;&gt;Node6 -->
<g id="edge5" class="edge">
<title>Node4&#45;&gt;Node6</title>
<path fill="none" stroke="#63b8ff" d="M482.04,-74.5C493.5,-63.65 506.4,-51.42 516.94,-41.45"/>
<polygon fill="#63b8ff" stroke="#63b8ff" points="479.96,-71.64 475.11,-81.06 484.78,-76.73 479.96,-71.64"/>
</g>
</g>
</svg>
