<?xml version="1.0" encoding="UTF-8" standalone="no"?>
<!DOCTYPE svg PUBLIC "-//W3C//DTD SVG 1.1//EN"
 "http://www.w3.org/Graphics/SVG/1.1/DTD/svg11.dtd">
<!-- Generated by graphviz version 7.1.0 (0)
 -->
<!-- Title: /software/kratos/doxygen/kratos/processes/calculate_signed_distance_to_3d_skin_process.h Pages: 1 -->
<!--zoomable 984 -->
<svg id="main" version="1.1" xmlns="http://www.w3.org/2000/svg" xmlns:xlink="http://www.w3.org/1999/xlink" xml:space="preserve" onload="init(evt)">
<style type="text/css"><![CDATA[
.edge:hover path { stroke: red; }
.edge:hover polygon { stroke: red; fill: red; }
]]></style>
<script type="text/javascript"><![CDATA[
var edges = document.getElementsByTagName('g');
if (edges && edges.length) {
  for (var i=0;i<edges.length;i++) {
    if (edges[i].id.substr(0,4)=='edge') {
      edges[i].setAttribute('class','edge');
    }
  }
}
]]></script>
        <defs>
                <circle id="rim" cx="0" cy="0" r="7"/>
                <circle id="rim2" cx="0" cy="0" r="3.5"/>
                <g id="zoomPlus">
                        <use xlink:href="#rim" fill="#404040">
                                <set attributeName="fill" to="#808080" begin="zoomplus.mouseover" end="zoomplus.mouseout"/>
                        </use>
                        <path d="M-4,0h8M0,-4v8" fill="none" stroke="white" stroke-width="1.5" pointer-events="none"/>
                </g>
                <g id="zoomMin">
                        <use xlink:href="#rim" fill="#404040">
                                <set attributeName="fill" to="#808080" begin="zoomminus.mouseover" end="zoomminus.mouseout"/>
                        </use>
                        <path d="M-4,0h8" fill="none" stroke="white" stroke-width="1.5" pointer-events="none"/>
                </g>
                <g id="dirArrow">
                        <path fill="none" stroke="white" stroke-width="1.5" d="M0,-3.0v7 M-2.5,-0.5L0,-3.0L2.5,-0.5"/>
                </g>
               <g id="resetDef">
                       <use xlink:href="#rim2" fill="#404040">
                               <set attributeName="fill" to="#808080" begin="reset.mouseover" end="reset.mouseout"/>
                       </use>
               </g>
        </defs>

<script type="text/javascript">
var viewWidth = 3226;
var viewHeight = 984;
var sectionId = 'dynsection-0';
</script>
<script xlink:href="../../svgpan.js"/>
<svg id="graph" class="graph">
<g id="viewport">
<title>/software/kratos/doxygen/kratos/processes/calculate_signed_distance_to_3d_skin_process.h</title>
<!-- Node1 -->
<g id="node1" class="node">
<title>Node1</title>
<g id="a_node1"><a xlink:title=" ">
<polygon fill="#999999" stroke="#666666" points="2575.03,-976 2417.03,-976 2417.03,-924 2575.03,-924 2575.03,-976"/>
<text text-anchor="start" x="2425.03" y="-964" font-family="Helvetica,sans-Serif" font-size="10.00">/software/kratos/doxygen</text>
<text text-anchor="start" x="2425.03" y="-953" font-family="Helvetica,sans-Serif" font-size="10.00">/kratos/processes/calculate</text>
<text text-anchor="start" x="2425.03" y="-942" font-family="Helvetica,sans-Serif" font-size="10.00">_signed_distance_to_3d_skin</text>
<text text-anchor="middle" x="2496.03" y="-931" font-family="Helvetica,sans-Serif" font-size="10.00">_process.h</text>
</a>
</g>
</g>
<!-- Node2 -->
<g id="node2" class="node">
<title>Node2</title>
<g id="a_node2"><a xlink:title=" ">
<polygon fill="#e0e0e0" stroke="#999999" points="2632.03,-24.5 2588.03,-24.5 2588.03,-5.5 2632.03,-5.5 2632.03,-24.5"/>
<text text-anchor="middle" x="2610.03" y="-12.5" font-family="Helvetica,sans-Serif" font-size="10.00">string</text>
</a>
</g>
</g>
<!-- Node1&#45;&gt;Node2 -->
<g id="edge1" class="edge">
<title>Node1&#45;&gt;Node2</title>
<path fill="none" stroke="#63b8ff" d="M2575.43,-948.32C2651.11,-944.81 2766.48,-931.8 2856.03,-888 2895.02,-868.93 2904.36,-858.39 2928.03,-822 3096.76,-562.56 3100.04,-467.42 3150.03,-162 3153.71,-139.5 3148,-68.04 3146.03,-66 3111.02,-29.84 2755.45,-19.13 2643.55,-16.65"/>
<polygon fill="#63b8ff" stroke="#63b8ff" points="2643.9,-13.15 2633.83,-16.44 2643.75,-20.15 2643.9,-13.15"/>
</g>
<!-- Node3 -->
<g id="node3" class="node">
<title>Node3</title>
<g id="a_node3"><a xlink:title=" ">
<polygon fill="#e0e0e0" stroke="#999999" points="1643.03,-24.5 1583.03,-24.5 1583.03,-5.5 1643.03,-5.5 1643.03,-24.5"/>
<text text-anchor="middle" x="1613.03" y="-12.5" font-family="Helvetica,sans-Serif" font-size="10.00">iostream</text>
</a>
</g>
</g>
<!-- Node1&#45;&gt;Node3 -->
<g id="edge2" class="edge">
<title>Node1&#45;&gt;Node3</title>
<path fill="none" stroke="#63b8ff" d="M2523.55,-923.8C2549.04,-897.59 2583.03,-854.02 2583.03,-808 2583.03,-808 2583.03,-808 2583.03,-745.5 2583.03,-631.7 2561.32,-604.41 2530.03,-495 2522.87,-469.99 2520.3,-463.89 2510.03,-440 2464.6,-334.38 2340.74,-133.85 2338.03,-132 2247.43,-70.29 2200.27,-122.97 2094.03,-96 2056.41,-86.45 2049.74,-75.14 2012.03,-66 1884.12,-35.01 1728.24,-22.55 1654.93,-18.13"/>
<polygon fill="#63b8ff" stroke="#63b8ff" points="1655.17,-14.64 1644.99,-17.56 1654.77,-21.63 1655.17,-14.64"/>
</g>
<!-- Node4 -->
<g id="node4" class="node">
<title>Node4</title>
<g id="a_node4"><a xlink:title=" ">
<polygon fill="#e0e0e0" stroke="#999999" points="3024.03,-882.5 2980.03,-882.5 2980.03,-863.5 3024.03,-863.5 3024.03,-882.5"/>
<text text-anchor="middle" x="3002.03" y="-870.5" font-family="Helvetica,sans-Serif" font-size="10.00">ctime</text>
</a>
</g>
</g>
<!-- Node1&#45;&gt;Node4 -->
<g id="edge3" class="edge">
<title>Node1&#45;&gt;Node4</title>
<path fill="none" stroke="#63b8ff" d="M2575.29,-944.57C2669.62,-937.97 2831.29,-922.4 2966.03,-888 2967.65,-887.59 2969.3,-887.12 2970.96,-886.61"/>
<polygon fill="#63b8ff" stroke="#63b8ff" points="2972.01,-889.95 2980.32,-883.37 2969.72,-883.34 2972.01,-889.95"/>
</g>
<!-- Node5 -->
<g id="node5" class="node">
<title>Node5</title>
<g id="a_node5"><a xlink:href="../../df/d67/define_8h.html" target="_top" xlink:title=" ">
<polygon fill="white" stroke="#666666" points="803.53,-156.5 704.53,-156.5 704.53,-137.5 803.53,-137.5 803.53,-156.5"/>
<text text-anchor="middle" x="754.03" y="-144.5" font-family="Helvetica,sans-Serif" font-size="10.00">includes/define.h</text>
</a>
</g>
</g>
<!-- Node1&#45;&gt;Node5 -->
<g id="edge4" class="edge">
<title>Node1&#45;&gt;Node5</title>
<path fill="none" stroke="#63b8ff" d="M2416.67,-949.25C2036.7,-950.11 412.8,-950.13 196.03,-888 128.61,-868.68 60.03,-878.13 60.03,-808 60.03,-808 60.03,-808 60.03,-509 60.03,-350.61 96.03,-275.74 234.03,-198 311.15,-154.55 573,-148.29 693.02,-147.77"/>
<polygon fill="#63b8ff" stroke="#63b8ff" points="692.68,-151.27 702.67,-147.74 692.66,-144.27 692.68,-151.27"/>
</g>
<!-- Node17 -->
<g id="node11" class="node">
<title>Node17</title>
<g id="a_node11"><a xlink:href="../../da/d42/process_8h.html" target="_top" xlink:title=" ">
<polygon fill="white" stroke="#666666" points="279.53,-701 164.53,-701 164.53,-682 279.53,-682 279.53,-701"/>
<text text-anchor="middle" x="222.03" y="-689" font-family="Helvetica,sans-Serif" font-size="10.00">processes/process.h</text>
</a>
</g>
</g>
<!-- Node1&#45;&gt;Node17 -->
<g id="edge16" class="edge">
<title>Node1&#45;&gt;Node17</title>
<path fill="none" stroke="#63b8ff" d="M2416.79,-948.38C2018.99,-945.08 257.19,-928.23 218.03,-888 171.67,-840.39 198.54,-751.28 213.76,-711.98"/>
<polygon fill="#63b8ff" stroke="#63b8ff" points="216.94,-713.46 217.45,-702.88 210.45,-710.84 216.94,-713.46"/>
</g>
<!-- Node18 -->
<g id="node12" class="node">
<title>Node18</title>
<g id="a_node12"><a xlink:href="../../d0/dac/kratos__flags_8h.html" target="_top" xlink:title=" ">
<polygon fill="#fff0f0" stroke="red" points="368.03,-580 240.03,-580 240.03,-561 368.03,-561 368.03,-580"/>
<text text-anchor="middle" x="304.03" y="-568" font-family="Helvetica,sans-Serif" font-size="10.00">includes/kratos_flags.h</text>
</a>
</g>
</g>
<!-- Node1&#45;&gt;Node18 -->
<g id="edge171" class="edge">
<title>Node1&#45;&gt;Node18</title>
<path fill="none" stroke="#63b8ff" d="M2416.68,-949.05C2225.66,-948.26 1725.46,-940.87 1312.03,-888 902.9,-835.68 774.64,-879.97 403.03,-701 368.62,-684.43 360.03,-676.48 337.03,-646 324.39,-629.26 315.33,-606.93 309.93,-591.1"/>
<polygon fill="#63b8ff" stroke="#63b8ff" points="313.37,-590.35 306.98,-581.9 306.7,-592.49 313.37,-590.35"/>
</g>
<!-- Node72 -->
<g id="node22" class="node">
<title>Node72</title>
<g id="a_node22"><a xlink:href="../../dd/dfe/model__part_8h.html" target="_top" xlink:title=" ">
<polygon fill="white" stroke="#666666" points="1475.53,-816.5 1350.53,-816.5 1350.53,-797.5 1475.53,-797.5 1475.53,-816.5"/>
<text text-anchor="middle" x="1413.03" y="-804.5" font-family="Helvetica,sans-Serif" font-size="10.00">includes/model_part.h</text>
</a>
</g>
</g>
<!-- Node1&#45;&gt;Node72 -->
<g id="edge49" class="edge">
<title>Node1&#45;&gt;Node72</title>
<path fill="none" stroke="#63b8ff" d="M2416.55,-945.38C2285.16,-938.67 2014.68,-921.81 1788.03,-888 1668.28,-870.14 1529.4,-837.28 1459.02,-819.74"/>
<polygon fill="#63b8ff" stroke="#63b8ff" points="1459.94,-816.37 1449.38,-817.33 1458.23,-823.16 1459.94,-816.37"/>
</g>
<!-- Node89 -->
<g id="node28" class="node">
<title>Node89</title>
<g id="a_node28"><a xlink:href="../../d8/d88/math__utils_8h.html" target="_top" xlink:title=" ">
<polygon fill="#fff0f0" stroke="red" points="2505.53,-519.5 2388.53,-519.5 2388.53,-500.5 2505.53,-500.5 2505.53,-519.5"/>
<text text-anchor="middle" x="2447.03" y="-507.5" font-family="Helvetica,sans-Serif" font-size="10.00">utilities/math_utils.h</text>
</a>
</g>
</g>
<!-- Node1&#45;&gt;Node89 -->
<g id="edge163" class="edge">
<title>Node1&#45;&gt;Node89</title>
<path fill="none" stroke="#63b8ff" d="M2507.22,-923.57C2518.43,-895.75 2534.03,-849.58 2534.03,-808 2534.03,-808 2534.03,-808 2534.03,-630 2534.03,-585.98 2494.74,-547.38 2468.97,-526.8"/>
<polygon fill="#63b8ff" stroke="#63b8ff" points="2471.13,-524.05 2461.06,-520.74 2466.87,-529.6 2471.13,-524.05"/>
</g>
<!-- Node122 -->
<g id="node38" class="node">
<title>Node122</title>
<g id="a_node38"><a xlink:href="../../d1/d1a/deprecated__variables_8h.html" target="_top" xlink:title=" ">
<polygon fill="white" stroke="#666666" points="1688.53,-525 1573.53,-525 1573.53,-495 1688.53,-495 1688.53,-525"/>
<text text-anchor="start" x="1581.53" y="-513" font-family="Helvetica,sans-Serif" font-size="10.00">includes/deprecated</text>
<text text-anchor="middle" x="1631.03" y="-502" font-family="Helvetica,sans-Serif" font-size="10.00">_variables.h</text>
</a>
</g>
</g>
<!-- Node1&#45;&gt;Node122 -->
<g id="edge135" class="edge">
<title>Node1&#45;&gt;Node122</title>
<path fill="none" stroke="#63b8ff" d="M2416.71,-943.66C2272.72,-931.78 1983.03,-896.84 1983.03,-808 1983.03,-808 1983.03,-808 1983.03,-745.5 1983.03,-610.85 1802.41,-548.78 1699.94,-524.4"/>
<polygon fill="#63b8ff" stroke="#63b8ff" points="1700.76,-521 1690.23,-522.16 1699.19,-527.82 1700.76,-521"/>
</g>
<!-- Node123 -->
<g id="node39" class="node">
<title>Node123</title>
<g id="a_node39"><a xlink:href="../../df/dbd/octree__binary_8h.html" target="_top" xlink:title=" ">
<polygon fill="white" stroke="#666666" points="2456.03,-646 2350.03,-646 2350.03,-616 2456.03,-616 2456.03,-646"/>
<text text-anchor="start" x="2358.03" y="-634" font-family="Helvetica,sans-Serif" font-size="10.00">spatial_containers</text>
<text text-anchor="middle" x="2403.03" y="-623" font-family="Helvetica,sans-Serif" font-size="10.00">/octree_binary.h</text>
</a>
</g>
</g>
<!-- Node1&#45;&gt;Node123 -->
<g id="edge140" class="edge">
<title>Node1&#45;&gt;Node123</title>
<path fill="none" stroke="#63b8ff" d="M2496.03,-923.53C2496.03,-895.29 2496.03,-848.39 2496.03,-808 2496.03,-808 2496.03,-808 2496.03,-745.5 2496.03,-706.3 2462.43,-673.22 2435.63,-653.07"/>
<polygon fill="#63b8ff" stroke="#63b8ff" points="2437.88,-650.38 2427.72,-647.37 2433.79,-656.06 2437.88,-650.38"/>
</g>
<!-- Node125 -->
<g id="node41" class="node">
<title>Node125</title>
<g id="a_node41"><a xlink:href="../../d5/d3a/spatial__containers__configure_8h.html" target="_top" xlink:title=" ">
<polygon fill="white" stroke="#666666" points="2980.03,-162 2834.03,-162 2834.03,-132 2980.03,-132 2980.03,-162"/>
<text text-anchor="start" x="2842.03" y="-150" font-family="Helvetica,sans-Serif" font-size="10.00">utilities/spatial_containers</text>
<text text-anchor="middle" x="2907.03" y="-139" font-family="Helvetica,sans-Serif" font-size="10.00">_configure.h</text>
</a>
</g>
</g>
<!-- Node1&#45;&gt;Node125 -->
<g id="edge150" class="edge">
<title>Node1&#45;&gt;Node125</title>
<path fill="none" stroke="#63b8ff" d="M2575.14,-938.75C2696.32,-920.82 2914.03,-878.75 2914.03,-808 2914.03,-808 2914.03,-808 2914.03,-261.5 2914.03,-231.21 2911.51,-196.46 2909.5,-173.47"/>
<polygon fill="#63b8ff" stroke="#63b8ff" points="2913.01,-173.46 2908.61,-163.82 2906.04,-174.1 2913.01,-173.46"/>
</g>
<!-- Node127 -->
<g id="node43" class="node">
<title>Node127</title>
<g id="a_node43"><a xlink:href="../../d5/dd0/timer_8h.html" target="_top" xlink:title=" ">
<polygon fill="#fff0f0" stroke="red" points="2505.53,-217 2414.53,-217 2414.53,-198 2505.53,-198 2505.53,-217"/>
<text text-anchor="middle" x="2460.03" y="-205" font-family="Helvetica,sans-Serif" font-size="10.00">utilities/timer.h</text>
</a>
</g>
</g>
<!-- Node1&#45;&gt;Node127 -->
<g id="edge158" class="edge">
<title>Node1&#45;&gt;Node127</title>
<path fill="none" stroke="#63b8ff" d="M2575.28,-936.06C2644.85,-919.65 2735.03,-883.76 2735.03,-808 2735.03,-808 2735.03,-808 2735.03,-509 2735.03,-370.93 2665.13,-341.35 2559.03,-253 2542.2,-238.99 2520.25,-228.53 2501.3,-221.28"/>
<polygon fill="#63b8ff" stroke="#63b8ff" points="2502.56,-218.02 2491.97,-217.9 2500.18,-224.6 2502.56,-218.02"/>
</g>
<!-- Node128 -->
<g id="node44" class="node">
<title>Node128</title>
<g id="a_node44"><a xlink:title=" ">
<polygon fill="#e0e0e0" stroke="#999999" points="1932.03,-822 1828.03,-822 1828.03,-792 1932.03,-792 1932.03,-822"/>
<text text-anchor="start" x="1836.03" y="-810" font-family="Helvetica,sans-Serif" font-size="10.00">utilities/geometry</text>
<text text-anchor="middle" x="1880.03" y="-799" font-family="Helvetica,sans-Serif" font-size="10.00">_utilities.h</text>
</a>
</g>
</g>
<!-- Node1&#45;&gt;Node128 -->
<g id="edge164" class="edge">
<title>Node1&#45;&gt;Node128</title>
<path fill="none" stroke="#63b8ff" d="M2416.62,-945.7C2289.6,-939.44 2047.05,-923.19 1969.03,-888 1953.81,-881.14 1922.64,-851.38 1901.53,-830.16"/>
<polygon fill="#63b8ff" stroke="#63b8ff" points="1904.29,-827.98 1894.78,-823.32 1899.31,-832.9 1904.29,-827.98"/>
</g>
<!-- Node129 -->
<g id="node45" class="node">
<title>Node129</title>
<g id="a_node45"><a xlink:href="../../d9/def/triangle__3d__3_8h.html" target="_top" xlink:title=" ">
<polygon fill="#fff0f0" stroke="red" points="3156.53,-822 3043.53,-822 3043.53,-792 3156.53,-792 3156.53,-822"/>
<text text-anchor="start" x="3051.53" y="-810" font-family="Helvetica,sans-Serif" font-size="10.00">geometries/triangle</text>
<text text-anchor="middle" x="3100.03" y="-799" font-family="Helvetica,sans-Serif" font-size="10.00">_3d_3.h</text>
</a>
</g>
</g>
<!-- Node1&#45;&gt;Node129 -->
<g id="edge165" class="edge">
<title>Node1&#45;&gt;Node129</title>
<path fill="none" stroke="#63b8ff" d="M2575.45,-947.14C2705.17,-942.93 2955.81,-929.52 3033.03,-888 3056.48,-875.39 3075.08,-850.89 3086.68,-832.31"/>
<polygon fill="#63b8ff" stroke="#63b8ff" points="3089.67,-834.14 3091.76,-823.75 3083.65,-830.56 3089.67,-834.14"/>
</g>
<!-- Node141 -->
<g id="node46" class="node">
<title>Node141</title>
<g id="a_node46"><a xlink:href="../../da/db5/quadrilateral__3d__4_8h.html" target="_top" xlink:title=" ">
<polygon fill="#fff0f0" stroke="red" points="3217.53,-888 3080.53,-888 3080.53,-858 3217.53,-858 3217.53,-888"/>
<text text-anchor="start" x="3088.53" y="-876" font-family="Helvetica,sans-Serif" font-size="10.00">geometries/quadrilateral</text>
<text text-anchor="middle" x="3149.03" y="-865" font-family="Helvetica,sans-Serif" font-size="10.00">_3d_4.h</text>
</a>
</g>
</g>
<!-- Node1&#45;&gt;Node141 -->
<g id="edge166" class="edge">
<title>Node1&#45;&gt;Node141</title>
<path fill="none" stroke="#63b8ff" d="M2575.51,-942.02C2685.84,-931.99 2891.52,-912.03 3066.03,-888 3067.04,-887.86 3068.06,-887.72 3069.08,-887.57"/>
<polygon fill="#63b8ff" stroke="#63b8ff" points="3069.35,-891.07 3078.73,-886.15 3068.33,-884.15 3069.35,-891.07"/>
</g>
<!-- Node145 -->
<g id="node47" class="node">
<title>Node145</title>
<g id="a_node47"><a xlink:href="../../d5/db3/body__normal__calculation__utils_8h.html" target="_top" xlink:title=" ">
<polygon fill="white" stroke="#666666" points="1917.03,-888 1797.03,-888 1797.03,-858 1917.03,-858 1917.03,-888"/>
<text text-anchor="start" x="1805.03" y="-876" font-family="Helvetica,sans-Serif" font-size="10.00">utilities/body_normal</text>
<text text-anchor="middle" x="1857.03" y="-865" font-family="Helvetica,sans-Serif" font-size="10.00">_calculation_utils.h</text>
</a>
</g>
</g>
<!-- Node1&#45;&gt;Node145 -->
<g id="edge168" class="edge">
<title>Node1&#45;&gt;Node145</title>
<path fill="none" stroke="#63b8ff" d="M2416.7,-942.44C2307.16,-932.92 2103.52,-913.59 1931.03,-888 1930.18,-887.87 1929.32,-887.75 1928.46,-887.61"/>
<polygon fill="#63b8ff" stroke="#63b8ff" points="1929.06,-884.16 1918.63,-886.03 1927.94,-891.08 1929.06,-884.16"/>
</g>
<!-- Node146 -->
<g id="node48" class="node">
<title>Node146</title>
<g id="a_node48"><a xlink:href="../../d9/db1/binbased__fast__point__locator_8h.html" target="_top" xlink:title=" ">
<polygon fill="#fff0f0" stroke="red" points="838.03,-646 720.03,-646 720.03,-616 838.03,-616 838.03,-646"/>
<text text-anchor="start" x="728.03" y="-634" font-family="Helvetica,sans-Serif" font-size="10.00">utilities/binbased</text>
<text text-anchor="middle" x="779.03" y="-623" font-family="Helvetica,sans-Serif" font-size="10.00">_fast_point_locator.h</text>
</a>
</g>
</g>
<!-- Node1&#45;&gt;Node146 -->
<g id="edge172" class="edge">
<title>Node1&#45;&gt;Node146</title>
<path fill="none" stroke="#63b8ff" d="M2416.84,-948.9C2244.72,-947.67 1823.98,-939.17 1476.03,-888 1349.96,-869.46 1317.94,-862.2 1197.03,-822 1050.67,-773.34 886.77,-689.7 815.45,-651.75"/>
<polygon fill="#63b8ff" stroke="#63b8ff" points="817.41,-648.83 806.95,-647.21 814.12,-655.01 817.41,-648.83"/>
</g>
<!-- Node163 -->
<g id="node49" class="node">
<title>Node163</title>
<g id="a_node49"><a xlink:href="../../d9/dda/binbased__nodes__in__element__locator_8h.html" target="_top" xlink:title=" ">
<polygon fill="#fff0f0" stroke="red" points="1052.03,-646 894.03,-646 894.03,-616 1052.03,-616 1052.03,-646"/>
<text text-anchor="start" x="902.03" y="-634" font-family="Helvetica,sans-Serif" font-size="10.00">utilities/binbased</text>
<text text-anchor="middle" x="973.03" y="-623" font-family="Helvetica,sans-Serif" font-size="10.00">_nodes_in_element_locator.h</text>
</a>
</g>
</g>
<!-- Node1&#45;&gt;Node163 -->
<g id="edge176" class="edge">
<title>Node1&#45;&gt;Node163</title>
<path fill="none" stroke="#63b8ff" d="M2416.68,-947.53C2263.58,-943.77 1917.08,-930.87 1629.03,-888 1499.14,-868.67 1468.48,-853.62 1341.03,-822 1230.74,-794.64 1198.47,-800.75 1094.03,-756 1050.94,-737.54 1035.01,-736.17 1004.03,-701 992.97,-688.45 985.24,-671.31 980.27,-657.26"/>
<polygon fill="#63b8ff" stroke="#63b8ff" points="983.61,-656.21 977.19,-647.78 976.95,-658.37 983.61,-656.21"/>
</g>
<!-- Node164 -->
<g id="node50" class="node">
<title>Node164</title>
<g id="a_node50"><a xlink:href="../../d5/d83/calculate__distance__to__skin__process_8h.html" target="_top" xlink:title=" ">
<polygon fill="#fff0f0" stroke="red" points="2467.53,-96 2312.53,-96 2312.53,-66 2467.53,-66 2467.53,-96"/>
<text text-anchor="start" x="2320.53" y="-84" font-family="Helvetica,sans-Serif" font-size="10.00">processes/calculate</text>
<text text-anchor="middle" x="2390.03" y="-73" font-family="Helvetica,sans-Serif" font-size="10.00">_distance_to_skin_process.h</text>
</a>
</g>
</g>
<!-- Node1&#45;&gt;Node164 -->
<g id="edge181" class="edge">
<title>Node1&#45;&gt;Node164</title>
<path fill="none" stroke="#63b8ff" d="M2560.45,-923.53C2606.01,-900.81 2659.03,-862.63 2659.03,-808 2659.03,-808 2659.03,-808 2659.03,-322 2659.03,-206.48 2519.2,-132.78 2441.17,-100.65"/>
<polygon fill="#63b8ff" stroke="#63b8ff" points="2442.58,-97.44 2431.99,-96.95 2439.96,-103.94 2442.58,-97.44"/>
</g>
<!-- Node6 -->
<g id="node6" class="node">
<title>Node6</title>
<g id="a_node6"><a xlink:title=" ">
<polygon fill="#e0e0e0" stroke="#999999" points="751.53,-24.5 686.53,-24.5 686.53,-5.5 751.53,-5.5 751.53,-24.5"/>
<text text-anchor="middle" x="719.03" y="-12.5" font-family="Helvetica,sans-Serif" font-size="10.00">stdexcept</text>
</a>
</g>
</g>
<!-- Node5&#45;&gt;Node6 -->
<g id="edge5" class="edge">
<title>Node5&#45;&gt;Node6</title>
<path fill="none" stroke="#63b8ff" d="M751.62,-137.06C746.05,-116.38 732.16,-64.77 724.43,-36.06"/>
<polygon fill="#63b8ff" stroke="#63b8ff" points="727.82,-35.21 721.84,-26.46 721.06,-37.03 727.82,-35.21"/>
</g>
<!-- Node7 -->
<g id="node7" class="node">
<title>Node7</title>
<g id="a_node7"><a xlink:title=" ">
<polygon fill="#e0e0e0" stroke="#999999" points="218.03,-24.5 162.03,-24.5 162.03,-5.5 218.03,-5.5 218.03,-24.5"/>
<text text-anchor="middle" x="190.03" y="-12.5" font-family="Helvetica,sans-Serif" font-size="10.00">sstream</text>
</a>
</g>
</g>
<!-- Node5&#45;&gt;Node7 -->
<g id="edge6" class="edge">
<title>Node5&#45;&gt;Node7</title>
<path fill="none" stroke="#63b8ff" d="M717.17,-137.04C655.24,-122.04 526.35,-91.01 417.03,-66 351.34,-50.97 274.78,-34.28 229.46,-24.48"/>
<polygon fill="#63b8ff" stroke="#63b8ff" points="230.36,-21.1 219.85,-22.41 228.89,-27.94 230.36,-21.1"/>
</g>
<!-- Node8 -->
<g id="node8" class="node">
<title>Node8</title>
<g id="a_node8"><a xlink:href="../../dc/d25/kratos__export__api_8h.html" target="_top" xlink:title=" ">
<polygon fill="white" stroke="#666666" points="910.03,-30 782.03,-30 782.03,0 910.03,0 910.03,-30"/>
<text text-anchor="start" x="790.03" y="-18" font-family="Helvetica,sans-Serif" font-size="10.00">includes/kratos_export</text>
<text text-anchor="middle" x="846.03" y="-7" font-family="Helvetica,sans-Serif" font-size="10.00">_api.h</text>
</a>
</g>
</g>
<!-- Node5&#45;&gt;Node8 -->
<g id="edge7" class="edge">
<title>Node5&#45;&gt;Node8</title>
<path fill="none" stroke="#63b8ff" d="M756.56,-137.44C761.38,-122.1 772.92,-89.34 790.03,-66 797.61,-55.64 807.66,-45.85 817.14,-37.73"/>
<polygon fill="#63b8ff" stroke="#63b8ff" points="819.28,-40.49 824.79,-31.44 814.84,-35.08 819.28,-40.49"/>
</g>
<!-- Node9 -->
<g id="node9" class="node">
<title>Node9</title>
<g id="a_node9"><a xlink:href="../../d9/dc0/smart__pointers_8h.html" target="_top" xlink:title=" ">
<polygon fill="#fff0f0" stroke="red" points="1077.53,-90.5 934.53,-90.5 934.53,-71.5 1077.53,-71.5 1077.53,-90.5"/>
<text text-anchor="middle" x="1006.03" y="-78.5" font-family="Helvetica,sans-Serif" font-size="10.00">includes/smart_pointers.h</text>
</a>
</g>
</g>
<!-- Node5&#45;&gt;Node9 -->
<g id="edge8" class="edge">
<title>Node5&#45;&gt;Node9</title>
<path fill="none" stroke="#63b8ff" d="M789.33,-137.03C833.94,-125.7 910.82,-106.18 960,-93.69"/>
<polygon fill="#63b8ff" stroke="#63b8ff" points="960.66,-97.13 969.49,-91.28 958.94,-90.35 960.66,-97.13"/>
</g>
<!-- Node13 -->
<g id="node10" class="node">
<title>Node13</title>
<g id="a_node10"><a xlink:href="../../dd/d2d/exception_8h.html" target="_top" xlink:title=" ">
<polygon fill="#fff0f0" stroke="red" points="916.53,-90.5 799.53,-90.5 799.53,-71.5 916.53,-71.5 916.53,-90.5"/>
<text text-anchor="middle" x="858.03" y="-78.5" font-family="Helvetica,sans-Serif" font-size="10.00">includes/exception.h</text>
</a>
</g>
</g>
<!-- Node5&#45;&gt;Node13 -->
<g id="edge10" class="edge">
<title>Node5&#45;&gt;Node13</title>
<path fill="none" stroke="#63b8ff" d="M768.49,-137.1C785.41,-126.69 813.68,-109.29 833.93,-96.83"/>
<polygon fill="#63b8ff" stroke="#63b8ff" points="835.72,-99.84 842.4,-91.62 832.05,-93.88 835.72,-99.84"/>
</g>
<!-- Node9&#45;&gt;Node3 -->
<g id="edge9" class="edge">
<title>Node9&#45;&gt;Node3</title>
<path fill="none" stroke="#63b8ff" d="M1057.79,-71.01C1069.05,-69.21 1080.92,-67.43 1092.03,-66 1269.72,-43.03 1482.78,-25.78 1571.3,-19.07"/>
<polygon fill="#63b8ff" stroke="#63b8ff" points="1571.48,-22.56 1581.19,-18.32 1570.96,-15.58 1571.48,-22.56"/>
</g>
<!-- Node13&#45;&gt;Node2 -->
<g id="edge12" class="edge">
<title>Node13&#45;&gt;Node2</title>
<path fill="none" stroke="#63b8ff" d="M895.04,-71.05C904.74,-69.04 915.23,-67.16 925.03,-66 1261.63,-26.15 2368.63,-17.48 2576.29,-16.19"/>
<polygon fill="#63b8ff" stroke="#63b8ff" points="2576.12,-19.69 2586.1,-16.13 2576.08,-12.69 2576.12,-19.69"/>
</g>
<!-- Node13&#45;&gt;Node3 -->
<g id="edge13" class="edge">
<title>Node13&#45;&gt;Node3</title>
<path fill="none" stroke="#63b8ff" d="M896.49,-71.05C905.79,-69.14 915.73,-67.3 925.03,-66 1168.52,-31.87 1463.95,-20.32 1571.41,-17.09"/>
<polygon fill="#63b8ff" stroke="#63b8ff" points="1571.29,-20.6 1581.18,-16.81 1571.08,-13.6 1571.29,-20.6"/>
</g>
<!-- Node13&#45;&gt;Node6 -->
<g id="edge11" class="edge">
<title>Node13&#45;&gt;Node6</title>
<path fill="none" stroke="#63b8ff" d="M838.7,-71.1C815.25,-60.31 775.5,-42 748.29,-29.48"/>
<polygon fill="#63b8ff" stroke="#63b8ff" points="750.11,-26.46 739.56,-25.46 747.18,-32.82 750.11,-26.46"/>
</g>
<!-- Node13&#45;&gt;Node7 -->
<g id="edge14" class="edge">
<title>Node13&#45;&gt;Node7</title>
<path fill="none" stroke="#63b8ff" d="M799.31,-72.19C782.45,-70.06 764.02,-67.83 747.03,-66 553.48,-45.11 321.44,-26.27 229.93,-19.09"/>
<polygon fill="#63b8ff" stroke="#63b8ff" points="230.22,-15.6 219.97,-18.31 229.67,-22.58 230.22,-15.6"/>
</g>
<!-- Node13&#45;&gt;Node8 -->
<g id="edge15" class="edge">
<title>Node13&#45;&gt;Node8</title>
<path fill="none" stroke="#63b8ff" d="M856.36,-71.1C854.92,-63.41 852.76,-51.92 850.79,-41.42"/>
<polygon fill="#63b8ff" stroke="#63b8ff" points="854.26,-40.9 848.97,-31.72 847.38,-42.19 854.26,-40.9"/>
</g>
<!-- Node17&#45;&gt;Node5 -->
<g id="edge17" class="edge">
<title>Node17&#45;&gt;Node5</title>
<path fill="none" stroke="#63b8ff" d="M218.82,-681.83C198.32,-624.83 91.9,-302.93 262.03,-198 332.67,-154.42 577.28,-148.15 692.76,-147.69"/>
<polygon fill="#63b8ff" stroke="#63b8ff" points="692.68,-151.19 702.67,-147.66 692.66,-144.19 692.68,-151.19"/>
</g>
<!-- Node17&#45;&gt;Node18 -->
<g id="edge18" class="edge">
<title>Node17&#45;&gt;Node18</title>
<path fill="none" stroke="#63b8ff" d="M228.19,-681.56C241.61,-662.08 273.71,-615.5 291.54,-589.62"/>
<polygon fill="#63b8ff" stroke="#63b8ff" points="294.36,-591.69 297.15,-581.47 288.6,-587.72 294.36,-591.69"/>
</g>
<!-- Node69 -->
<g id="node21" class="node">
<title>Node69</title>
<g id="a_node21"><a xlink:href="../../db/d71/kratos__parameters_8h.html" target="_top" xlink:title=" ">
<polygon fill="#fff0f0" stroke="red" points="1535.53,-640.5 1374.53,-640.5 1374.53,-621.5 1535.53,-621.5 1535.53,-640.5"/>
<text text-anchor="middle" x="1455.03" y="-628.5" font-family="Helvetica,sans-Serif" font-size="10.00">includes/kratos_parameters.h</text>
</a>
</g>
</g>
<!-- Node17&#45;&gt;Node69 -->
<g id="edge47" class="edge">
<title>Node17&#45;&gt;Node69</title>
<path fill="none" stroke="#63b8ff" d="M279.84,-687.76C476.68,-678.42 1121.9,-647.81 1363.03,-636.36"/>
<polygon fill="#63b8ff" stroke="#63b8ff" points="1362.86,-639.88 1372.69,-635.91 1362.53,-632.88 1362.86,-639.88"/>
</g>
<!-- Node18&#45;&gt;Node5 -->
<g id="edge19" class="edge">
<title>Node18&#45;&gt;Node5</title>
<path fill="none" stroke="#63b8ff" d="M300.2,-560.91C287.1,-530.95 244.07,-428.05 230.03,-338 219.59,-271.11 233.75,-235.63 290.03,-198 354.51,-154.88 582.1,-148.29 692.74,-147.71"/>
<polygon fill="#63b8ff" stroke="#63b8ff" points="692.53,-151.21 702.52,-147.68 692.51,-144.21 692.53,-151.21"/>
</g>
<!-- Node20 -->
<g id="node13" class="node">
<title>Node20</title>
<g id="a_node13"><a xlink:href="../../dc/d8e/kratos__components_8h.html" target="_top" xlink:title=" ">
<polygon fill="#fff0f0" stroke="red" points="1536.53,-459 1371.53,-459 1371.53,-440 1536.53,-440 1536.53,-459"/>
<text text-anchor="middle" x="1454.03" y="-447" font-family="Helvetica,sans-Serif" font-size="10.00">includes/kratos_components.h</text>
</a>
</g>
</g>
<!-- Node18&#45;&gt;Node20 -->
<g id="edge20" class="edge">
<title>Node18&#45;&gt;Node20</title>
<path fill="none" stroke="#63b8ff" d="M368.32,-562.85C560.78,-542.93 1133,-483.72 1359.86,-460.24"/>
<polygon fill="#63b8ff" stroke="#63b8ff" points="1359.96,-463.75 1369.54,-459.24 1359.24,-456.79 1359.96,-463.75"/>
</g>
<!-- Node20&#45;&gt;Node2 -->
<g id="edge21" class="edge">
<title>Node20&#45;&gt;Node2</title>
<path fill="none" stroke="#63b8ff" d="M1536.8,-444.26C1592.24,-439.21 1665.96,-428.17 1727.03,-404 1865.48,-349.2 1883.89,-303.6 2005.03,-217 2095.34,-152.43 2101.16,-107.78 2204.03,-66 2271.51,-38.59 2491.53,-23 2576.3,-17.89"/>
<polygon fill="#63b8ff" stroke="#63b8ff" points="2576.27,-21.4 2586.05,-17.32 2575.86,-14.41 2576.27,-21.4"/>
</g>
<!-- Node20&#45;&gt;Node3 -->
<g id="edge22" class="edge">
<title>Node20&#45;&gt;Node3</title>
<path fill="none" stroke="#63b8ff" d="M1454.24,-439.62C1454.68,-420.86 1455.68,-375.8 1456.03,-338 1456.15,-324.67 1458.01,-321.19 1456.03,-308 1439.93,-200.93 1362.21,-151.97 1428.03,-66 1445.35,-43.38 1522.29,-28.65 1571.33,-21.37"/>
<polygon fill="#63b8ff" stroke="#63b8ff" points="1571.64,-24.86 1581.05,-19.98 1570.65,-17.93 1571.64,-24.86"/>
</g>
<!-- Node20&#45;&gt;Node5 -->
<g id="edge23" class="edge">
<title>Node20&#45;&gt;Node5</title>
<path fill="none" stroke="#63b8ff" d="M1446.91,-439.53C1426.99,-414.95 1367.86,-345.87 1304.03,-308 1217.55,-256.7 924.49,-186.6 805.18,-159.42"/>
<polygon fill="#63b8ff" stroke="#63b8ff" points="806.2,-156.06 795.67,-157.26 804.65,-162.89 806.2,-156.06"/>
</g>
<!-- Node63 -->
<g id="node14" class="node">
<title>Node63</title>
<g id="a_node14"><a xlink:href="../../da/d89/variable_8h.html" target="_top" xlink:title=" ">
<polygon fill="#fff0f0" stroke="red" points="1718.53,-398.5 1599.53,-398.5 1599.53,-379.5 1718.53,-379.5 1718.53,-398.5"/>
<text text-anchor="middle" x="1659.03" y="-386.5" font-family="Helvetica,sans-Serif" font-size="10.00">containers/variable.h</text>
</a>
</g>
</g>
<!-- Node20&#45;&gt;Node63 -->
<g id="edge24" class="edge">
<title>Node20&#45;&gt;Node63</title>
<path fill="none" stroke="#63b8ff" d="M1485.16,-439.62C1520.23,-429.61 1577.42,-413.29 1616.57,-402.12"/>
<polygon fill="#63b8ff" stroke="#63b8ff" points="1617.49,-405.49 1626.14,-399.38 1615.57,-398.76 1617.49,-405.49"/>
</g>
<!-- Node63&#45;&gt;Node2 -->
<g id="edge25" class="edge">
<title>Node63&#45;&gt;Node2</title>
<path fill="none" stroke="#63b8ff" d="M1719.02,-382.1C1893.87,-364.03 2399.33,-305.24 2537.03,-217 2592.79,-181.26 2603.71,-159.04 2624.03,-96 2630.57,-75.7 2624.49,-51.45 2618.42,-35.02"/>
<polygon fill="#63b8ff" stroke="#63b8ff" points="2621.76,-33.94 2614.75,-26 2615.28,-36.58 2621.76,-33.94"/>
</g>
<!-- Node63&#45;&gt;Node3 -->
<g id="edge26" class="edge">
<title>Node63&#45;&gt;Node3</title>
<path fill="none" stroke="#63b8ff" d="M1649.14,-379.26C1623.67,-355.98 1556.22,-289.34 1533.03,-217 1512.36,-152.54 1514.86,-121.91 1553.03,-66 1562.43,-52.21 1576.67,-40.13 1588.91,-31.29"/>
<polygon fill="#63b8ff" stroke="#63b8ff" points="1590.66,-34.33 1596.92,-25.79 1586.7,-28.56 1590.66,-34.33"/>
</g>
<!-- Node63&#45;&gt;Node5 -->
<g id="edge27" class="edge">
<title>Node63&#45;&gt;Node5</title>
<path fill="none" stroke="#63b8ff" d="M1636.01,-379.06C1587.98,-360.27 1473.77,-314.86 1380.03,-272 1362.85,-264.15 1360.01,-258.76 1342.03,-253 1244.33,-221.69 1211.72,-248.31 1114.03,-217 1096.04,-211.24 1094.01,-203.74 1076.03,-198 987.94,-169.9 881.08,-157.3 815.33,-151.86"/>
<polygon fill="#63b8ff" stroke="#63b8ff" points="815.69,-148.38 805.45,-151.08 815.14,-155.36 815.69,-148.38"/>
</g>
<!-- Node64 -->
<g id="node15" class="node">
<title>Node64</title>
<g id="a_node15"><a xlink:href="../../d3/dc3/variable__data_8h.html" target="_top" xlink:title=" ">
<polygon fill="#fff0f0" stroke="red" points="1714.03,-332.5 1622.03,-332.5 1622.03,-313.5 1714.03,-313.5 1714.03,-332.5"/>
<text text-anchor="middle" x="1668.03" y="-320.5" font-family="Helvetica,sans-Serif" font-size="10.00">variable_data.h</text>
</a>
</g>
</g>
<!-- Node63&#45;&gt;Node64 -->
<g id="edge28" class="edge">
<title>Node63&#45;&gt;Node64</title>
<path fill="none" stroke="#63b8ff" d="M1660.28,-379.1C1661.54,-370.12 1663.53,-355.95 1665.18,-344.22"/>
<polygon fill="#63b8ff" stroke="#63b8ff" points="1668.65,-344.71 1666.57,-334.32 1661.72,-343.74 1668.65,-344.71"/>
</g>
<!-- Node64&#45;&gt;Node2 -->
<g id="edge29" class="edge">
<title>Node64&#45;&gt;Node2</title>
<path fill="none" stroke="#63b8ff" d="M1714.35,-317.99C1830.95,-307.13 2133.06,-274.08 2214.03,-217 2277.69,-172.11 2238.72,-109.97 2303.03,-66 2347.16,-35.81 2506.74,-22.41 2576.73,-17.89"/>
<polygon fill="#63b8ff" stroke="#63b8ff" points="2576.67,-21.4 2586.43,-17.28 2576.23,-14.41 2576.67,-21.4"/>
</g>
<!-- Node64&#45;&gt;Node3 -->
<g id="edge30" class="edge">
<title>Node64&#45;&gt;Node3</title>
<path fill="none" stroke="#63b8ff" d="M1654.76,-313.13C1624.92,-292.86 1554.16,-242.92 1542.03,-217 1511.32,-151.44 1568.99,-68.72 1597.91,-33.33"/>
<polygon fill="#63b8ff" stroke="#63b8ff" points="1600.47,-35.73 1604.23,-25.82 1595.12,-31.22 1600.47,-35.73"/>
</g>
<!-- Node64&#45;&gt;Node5 -->
<g id="edge32" class="edge">
<title>Node64&#45;&gt;Node5</title>
<path fill="none" stroke="#63b8ff" d="M1632.19,-313.03C1577.8,-299.51 1471.1,-273.32 1380.03,-253 1262.2,-226.71 1232.99,-218.54 1114.03,-198 1009.41,-179.94 886.81,-164.02 815.05,-155.23"/>
<polygon fill="#63b8ff" stroke="#63b8ff" points="815.83,-151.8 805.48,-154.06 814.98,-158.75 815.83,-151.8"/>
</g>
<!-- Node65 -->
<g id="node16" class="node">
<title>Node65</title>
<g id="a_node16"><a xlink:title=" ">
<polygon fill="#e0e0e0" stroke="#999999" points="1021.53,-272 968.53,-272 968.53,-253 1021.53,-253 1021.53,-272"/>
<text text-anchor="middle" x="995.03" y="-260" font-family="Helvetica,sans-Serif" font-size="10.00">cstddef</text>
</a>
</g>
</g>
<!-- Node64&#45;&gt;Node65 -->
<g id="edge31" class="edge">
<title>Node64&#45;&gt;Node65</title>
<path fill="none" stroke="#63b8ff" d="M1621.77,-317.98C1496,-307.05 1149.47,-276.92 1033.45,-266.84"/>
<polygon fill="#63b8ff" stroke="#63b8ff" points="1033.79,-263.36 1023.52,-265.98 1033.18,-270.33 1033.79,-263.36"/>
</g>
<!-- Node50 -->
<g id="node17" class="node">
<title>Node50</title>
<g id="a_node17"><a xlink:href="../../dd/d5f/serializer_8h.html" target="_top" xlink:title=" ">
<polygon fill="#fff0f0" stroke="red" points="1849.53,-272 1736.53,-272 1736.53,-253 1849.53,-253 1849.53,-272"/>
<text text-anchor="middle" x="1793.03" y="-260" font-family="Helvetica,sans-Serif" font-size="10.00">includes/serializer.h</text>
</a>
</g>
</g>
<!-- Node64&#45;&gt;Node50 -->
<g id="edge33" class="edge">
<title>Node64&#45;&gt;Node50</title>
<path fill="none" stroke="#63b8ff" d="M1687.01,-313.12C1707.38,-303.58 1740.01,-288.31 1763.69,-277.23"/>
<polygon fill="#63b8ff" stroke="#63b8ff" points="1764.92,-280.52 1772.49,-273.11 1761.95,-274.18 1764.92,-280.52"/>
</g>
<!-- Node50&#45;&gt;Node2 -->
<g id="edge34" class="edge">
<title>Node50&#45;&gt;Node2</title>
<path fill="none" stroke="#63b8ff" d="M1849.78,-261.27C2010.31,-260.16 2459.51,-253.78 2514.03,-217 2546.55,-195.06 2587.81,-81.67 2603.54,-35.54"/>
<polygon fill="#63b8ff" stroke="#63b8ff" points="2606.76,-36.93 2606.64,-26.34 2600.13,-34.7 2606.76,-36.93"/>
</g>
<!-- Node50&#45;&gt;Node3 -->
<g id="edge35" class="edge">
<title>Node50&#45;&gt;Node3</title>
<path fill="none" stroke="#63b8ff" d="M1753.05,-252.55C1731.61,-245.93 1706.14,-234.87 1689.03,-217 1638.83,-164.61 1621.04,-75.81 1615.39,-36.16"/>
<polygon fill="#63b8ff" stroke="#63b8ff" points="1618.88,-35.89 1614.12,-26.43 1611.94,-36.79 1618.88,-35.89"/>
</g>
<!-- Node50&#45;&gt;Node5 -->
<g id="edge38" class="edge">
<title>Node50&#45;&gt;Node5</title>
<path fill="none" stroke="#63b8ff" d="M1736.14,-254.22C1639.57,-241.95 1437.34,-216.68 1266.03,-198 1103.28,-180.25 911.1,-162.29 815.07,-153.51"/>
<polygon fill="#63b8ff" stroke="#63b8ff" points="815.63,-150.05 805.36,-152.63 815,-157.02 815.63,-150.05"/>
</g>
<!-- Node50&#45;&gt;Node7 -->
<g id="edge36" class="edge">
<title>Node50&#45;&gt;Node7</title>
<path fill="none" stroke="#63b8ff" d="M1736.44,-252.83C1481.91,-213.85 446.02,-55.21 229.73,-22.08"/>
<polygon fill="#63b8ff" stroke="#63b8ff" points="230.26,-18.62 219.84,-20.57 229.2,-25.54 230.26,-18.62"/>
</g>
<!-- Node54 -->
<g id="node18" class="node">
<title>Node54</title>
<g id="a_node18"><a xlink:title=" ">
<polygon fill="#e0e0e0" stroke="#999999" points="2329.53,-156.5 2274.53,-156.5 2274.53,-137.5 2329.53,-137.5 2329.53,-156.5"/>
<text text-anchor="middle" x="2302.03" y="-144.5" font-family="Helvetica,sans-Serif" font-size="10.00">fstream</text>
</a>
</g>
</g>
<!-- Node50&#45;&gt;Node54 -->
<g id="edge37" class="edge">
<title>Node50&#45;&gt;Node54</title>
<path fill="none" stroke="#63b8ff" d="M1849.64,-259.38C1948.76,-255.04 2149.32,-243.23 2214.03,-217 2242.87,-205.31 2270.1,-181.2 2286.42,-164.81"/>
<polygon fill="#63b8ff" stroke="#63b8ff" points="2288.84,-167.35 2293.26,-157.72 2283.8,-162.49 2288.84,-167.35"/>
</g>
<!-- Node25 -->
<g id="node19" class="node">
<title>Node25</title>
<g id="a_node19"><a xlink:href="../../d9/d36/array__1d_8h.html" target="_top" xlink:title=" ">
<polygon fill="#fff0f0" stroke="red" points="1996.03,-217 1874.03,-217 1874.03,-198 1996.03,-198 1996.03,-217"/>
<text text-anchor="middle" x="1935.03" y="-205" font-family="Helvetica,sans-Serif" font-size="10.00">containers/array_1d.h</text>
</a>
</g>
</g>
<!-- Node50&#45;&gt;Node25 -->
<g id="edge39" class="edge">
<title>Node50&#45;&gt;Node25</title>
<path fill="none" stroke="#63b8ff" d="M1817.11,-252.51C1840.1,-243.93 1874.96,-230.92 1900.82,-221.27"/>
<polygon fill="#63b8ff" stroke="#63b8ff" points="1901.73,-224.66 1909.87,-217.89 1899.28,-218.1 1901.73,-224.66"/>
</g>
<!-- Node59 -->
<g id="node20" class="node">
<title>Node59</title>
<g id="a_node20"><a xlink:href="../../d1/d8c/logger_8h.html" target="_top" xlink:title=" ">
<polygon fill="#fff0f0" stroke="red" points="1818.03,-217 1698.03,-217 1698.03,-198 1818.03,-198 1818.03,-217"/>
<text text-anchor="middle" x="1758.03" y="-205" font-family="Helvetica,sans-Serif" font-size="10.00">input_output/logger.h</text>
</a>
</g>
</g>
<!-- Node50&#45;&gt;Node59 -->
<g id="edge43" class="edge">
<title>Node50&#45;&gt;Node59</title>
<path fill="none" stroke="#63b8ff" d="M1787.25,-252.75C1782.61,-245.73 1775.95,-235.64 1770.16,-226.87"/>
<polygon fill="#63b8ff" stroke="#63b8ff" points="1773.2,-225.12 1764.76,-218.71 1767.35,-228.98 1773.2,-225.12"/>
</g>
<!-- Node25&#45;&gt;Node2 -->
<g id="edge40" class="edge">
<title>Node25&#45;&gt;Node2</title>
<path fill="none" stroke="#63b8ff" d="M1996.08,-206.3C2041.23,-203.32 2102.23,-193.11 2146.03,-162 2186.67,-133.13 2162.19,-93.11 2204.03,-66 2265.3,-26.3 2490.04,-18.12 2576.15,-16.43"/>
<polygon fill="#63b8ff" stroke="#63b8ff" points="2576.13,-19.94 2586.06,-16.26 2576,-12.94 2576.13,-19.94"/>
</g>
<!-- Node25&#45;&gt;Node3 -->
<g id="edge41" class="edge">
<title>Node25&#45;&gt;Node3</title>
<path fill="none" stroke="#63b8ff" d="M1931.87,-197.52C1922.53,-172.33 1892.47,-100.55 1842.03,-66 1785.27,-27.12 1703.6,-17.79 1654.68,-15.93"/>
<polygon fill="#63b8ff" stroke="#63b8ff" points="1654.89,-12.44 1644.79,-15.66 1654.69,-19.43 1654.89,-12.44"/>
</g>
<!-- Node25&#45;&gt;Node5 -->
<g id="edge42" class="edge">
<title>Node25&#45;&gt;Node5</title>
<path fill="none" stroke="#63b8ff" d="M1873.65,-201.33C1858.42,-200.14 1842.14,-198.95 1827.03,-198 1442.15,-173.89 978.94,-156.11 815.07,-150.16"/>
<polygon fill="#63b8ff" stroke="#63b8ff" points="815.43,-146.67 805.31,-149.81 815.17,-153.67 815.43,-146.67"/>
</g>
<!-- Node59&#45;&gt;Node2 -->
<g id="edge44" class="edge">
<title>Node59&#45;&gt;Node2</title>
<path fill="none" stroke="#63b8ff" d="M1779.38,-197.56C1840.28,-172.45 2020.51,-100.88 2177.03,-66 2323.61,-33.34 2503.13,-21.27 2576.44,-17.49"/>
<polygon fill="#63b8ff" stroke="#63b8ff" points="2576.35,-21 2586.16,-17.01 2576,-14.01 2576.35,-21"/>
</g>
<!-- Node59&#45;&gt;Node3 -->
<g id="edge45" class="edge">
<title>Node59&#45;&gt;Node3</title>
<path fill="none" stroke="#63b8ff" d="M1751.23,-197.57C1728.77,-168.06 1656.69,-73.36 1626.51,-33.72"/>
<polygon fill="#63b8ff" stroke="#63b8ff" points="1629.4,-31.74 1620.56,-25.9 1623.83,-35.98 1629.4,-31.74"/>
</g>
<!-- Node59&#45;&gt;Node13 -->
<g id="edge46" class="edge">
<title>Node59&#45;&gt;Node13</title>
<path fill="none" stroke="#63b8ff" d="M1725.01,-197.62C1664.59,-181.72 1531.94,-148.55 1418.03,-132 1200.61,-100.41 1142.59,-126.54 925.03,-96 919.36,-95.2 913.46,-94.21 907.6,-93.13"/>
<polygon fill="#63b8ff" stroke="#63b8ff" points="908.46,-89.73 897.97,-91.24 907.12,-96.6 908.46,-89.73"/>
</g>
<!-- Node69&#45;&gt;Node50 -->
<g id="edge48" class="edge">
<title>Node69&#45;&gt;Node50</title>
<path fill="none" stroke="#63b8ff" d="M1504.76,-621.02C1563.86,-610.09 1658.8,-591.66 1693.03,-580 1746.28,-561.86 1777.11,-572.64 1807.03,-525 1856.07,-446.89 1818.59,-328.35 1800.92,-282.52"/>
<polygon fill="#63b8ff" stroke="#63b8ff" points="1804.26,-281.45 1797.3,-273.46 1797.76,-284.05 1804.26,-281.45"/>
</g>
<!-- Node72&#45;&gt;Node2 -->
<g id="edge50" class="edge">
<title>Node72&#45;&gt;Node2</title>
<path fill="none" stroke="#63b8ff" d="M1475.96,-804.02C1640.07,-798.56 2078.24,-781.92 2221.03,-756 2385.22,-726.2 2420.65,-695.46 2580.03,-646 2718.12,-603.14 2770.91,-617.52 2882.03,-525 2970.8,-451.09 3203.67,-151.53 3126.03,-66 3093.59,-30.27 2753.37,-19.31 2643.81,-16.7"/>
<polygon fill="#63b8ff" stroke="#63b8ff" points="2644.08,-13.21 2634.01,-16.47 2643.92,-20.2 2644.08,-13.21"/>
</g>
<!-- Node72&#45;&gt;Node3 -->
<g id="edge51" class="edge">
<title>Node72&#45;&gt;Node3</title>
<path fill="none" stroke="#63b8ff" d="M1475.86,-804.77C1681.62,-799.91 2322.03,-777.93 2322.03,-692.5 2322.03,-692.5 2322.03,-692.5 2322.03,-569.5 2322.03,-504.7 2288.58,-495.44 2255.03,-440 2202.48,-353.19 2194.79,-325.73 2124.03,-253 2111.87,-240.51 1887.98,-73.02 1872.03,-66 1799.74,-34.19 1707.31,-22.55 1654.68,-18.34"/>
<polygon fill="#63b8ff" stroke="#63b8ff" points="1655.18,-14.86 1644.95,-17.61 1654.67,-21.84 1655.18,-14.86"/>
</g>
<!-- Node72&#45;&gt;Node5 -->
<g id="edge54" class="edge">
<title>Node72&#45;&gt;Node5</title>
<path fill="none" stroke="#63b8ff" d="M1350.08,-804.73C1153.99,-800.5 555.84,-785.48 364.03,-756 358.09,-755.09 158.69,-705.75 155.03,-701 78.08,-601.18 309.62,-263.94 417.03,-198 462.04,-170.36 608.27,-156.95 692.58,-151.37"/>
<polygon fill="#63b8ff" stroke="#63b8ff" points="692.78,-154.86 702.54,-150.73 692.33,-147.88 692.78,-154.86"/>
</g>
<!-- Node72&#45;&gt;Node7 -->
<g id="edge52" class="edge">
<title>Node72&#45;&gt;Node7</title>
<path fill="none" stroke="#63b8ff" d="M1350.23,-805.89C1144.18,-805.12 490.08,-799.25 284.03,-756 155.27,-728.98 98.83,-700.49 46.03,-580 -0.38,-474.12 0.03,-439.6 0.03,-324 0.03,-324 0.03,-324 0.03,-146 0.03,-106.44 9.25,-92.04 39.03,-66 70.45,-38.52 117.42,-26.06 150.61,-20.46"/>
<polygon fill="#63b8ff" stroke="#63b8ff" points="150.88,-23.96 160.24,-18.98 149.82,-17.04 150.88,-23.96"/>
</g>
<!-- Node72&#45;&gt;Node18 -->
<g id="edge131" class="edge">
<title>Node72&#45;&gt;Node18</title>
<path fill="none" stroke="#63b8ff" d="M1350.25,-804.65C1160.13,-800.28 598.89,-785.02 522.03,-756 429.43,-721.04 348.69,-628.42 317.61,-589.32"/>
<polygon fill="#63b8ff" stroke="#63b8ff" points="320.5,-587.32 311.58,-581.59 314.98,-591.63 320.5,-587.32"/>
</g>
<!-- Node72&#45;&gt;Node63 -->
<g id="edge133" class="edge">
<title>Node72&#45;&gt;Node63</title>
<path fill="none" stroke="#63b8ff" d="M1475.77,-800.3C1583.71,-788.75 1793.03,-757.91 1793.03,-692.5 1793.03,-692.5 1793.03,-692.5 1793.03,-630 1793.03,-537.67 1761.22,-516.16 1709.03,-440 1700.52,-427.6 1688.71,-415.61 1678.7,-406.49"/>
<polygon fill="#63b8ff" stroke="#63b8ff" points="1681.12,-403.96 1671.3,-399.98 1676.5,-409.22 1681.12,-403.96"/>
</g>
<!-- Node72&#45;&gt;Node64 -->
<g id="edge134" class="edge">
<title>Node72&#45;&gt;Node64</title>
<path fill="none" stroke="#63b8ff" d="M1475.84,-804.64C1608.89,-800.05 1907.03,-780 1907.03,-692.5 1907.03,-692.5 1907.03,-692.5 1907.03,-569.5 1907.03,-451.42 1763.31,-368.84 1698.77,-337.71"/>
<polygon fill="#63b8ff" stroke="#63b8ff" points="1700.31,-334.57 1689.77,-333.48 1697.33,-340.91 1700.31,-334.57"/>
</g>
<!-- Node72&#45;&gt;Node65 -->
<g id="edge53" class="edge">
<title>Node72&#45;&gt;Node65</title>
<path fill="none" stroke="#63b8ff" d="M1350.19,-800.56C1270.6,-793.13 1129.43,-778.15 1010.03,-756 810.56,-719 692,-805.8 567.03,-646 499.13,-559.19 868.02,-336.87 969.65,-277.99"/>
<polygon fill="#63b8ff" stroke="#63b8ff" points="971.17,-281.15 978.09,-273.12 967.68,-275.09 971.17,-281.15"/>
</g>
<!-- Node72&#45;&gt;Node50 -->
<g id="edge55" class="edge">
<title>Node72&#45;&gt;Node50</title>
<path fill="none" stroke="#63b8ff" d="M1475.88,-805.68C1616.65,-803.27 1945.03,-787.47 1945.03,-692.5 1945.03,-692.5 1945.03,-692.5 1945.03,-569.5 1945.03,-447.92 1847.59,-324.87 1808.74,-280.64"/>
<polygon fill="#63b8ff" stroke="#63b8ff" points="1811.48,-278.46 1802.21,-273.34 1806.27,-283.12 1811.48,-278.46"/>
</g>
<!-- Node72&#45;&gt;Node59 -->
<g id="edge130" class="edge">
<title>Node72&#45;&gt;Node59</title>
<path fill="none" stroke="#63b8ff" d="M1475.71,-804.06C1669.67,-797.21 2247.03,-770.31 2247.03,-692.5 2247.03,-692.5 2247.03,-692.5 2247.03,-509 2247.03,-354.25 2146.82,-327.2 2011.03,-253 1980.47,-236.31 1893.09,-223.42 1829.55,-215.91"/>
<polygon fill="#63b8ff" stroke="#63b8ff" points="1830.22,-212.47 1819.89,-214.79 1829.42,-219.42 1830.22,-212.47"/>
</g>
<!-- Node73 -->
<g id="node23" class="node">
<title>Node73</title>
<g id="a_node23"><a xlink:href="../../de/db8/process__info_8h.html" target="_top" xlink:title=" ">
<polygon fill="#fff0f0" stroke="red" points="1312.53,-580 1181.53,-580 1181.53,-561 1312.53,-561 1312.53,-580"/>
<text text-anchor="middle" x="1247.03" y="-568" font-family="Helvetica,sans-Serif" font-size="10.00">includes/process_info.h</text>
</a>
</g>
</g>
<!-- Node72&#45;&gt;Node73 -->
<g id="edge56" class="edge">
<title>Node72&#45;&gt;Node73</title>
<path fill="none" stroke="#63b8ff" d="M1353.63,-797.04C1307.98,-788.8 1250.38,-774.97 1236.03,-756 1198.64,-706.59 1223.91,-626.74 1238.59,-590.49"/>
<polygon fill="#63b8ff" stroke="#63b8ff" points="1241.62,-592.31 1242.3,-581.74 1235.17,-589.58 1241.62,-592.31"/>
</g>
<!-- Node74 -->
<g id="node24" class="node">
<title>Node74</title>
<g id="a_node24"><a xlink:href="../../d1/d82/data__value__container_8h.html" target="_top" xlink:title=" ">
<polygon fill="#fff0f0" stroke="red" points="1423.53,-525 1298.53,-525 1298.53,-495 1423.53,-495 1423.53,-525"/>
<text text-anchor="start" x="1306.53" y="-513" font-family="Helvetica,sans-Serif" font-size="10.00">containers/data_value</text>
<text text-anchor="middle" x="1361.03" y="-502" font-family="Helvetica,sans-Serif" font-size="10.00">_container.h</text>
</a>
</g>
</g>
<!-- Node72&#45;&gt;Node74 -->
<g id="edge70" class="edge">
<title>Node72&#45;&gt;Node74</title>
<path fill="none" stroke="#63b8ff" d="M1451.3,-797.01C1504.48,-782.08 1593.14,-747.16 1583.03,-682 1578.3,-651.58 1581.83,-639.57 1562.03,-616 1525.88,-572.97 1467.56,-545.29 1423.02,-529.21"/>
<polygon fill="#63b8ff" stroke="#63b8ff" points="1424.33,-525.96 1413.74,-525.96 1422.02,-532.57 1424.33,-525.96"/>
</g>
<!-- Node75 -->
<g id="node25" class="node">
<title>Node75</title>
<g id="a_node25"><a xlink:href="../../d8/d3b/mesh_8h.html" target="_top" xlink:title=" ">
<polygon fill="#fff0f0" stroke="red" points="1109.03,-701 1013.03,-701 1013.03,-682 1109.03,-682 1109.03,-701"/>
<text text-anchor="middle" x="1061.03" y="-689" font-family="Helvetica,sans-Serif" font-size="10.00">includes/mesh.h</text>
</a>
</g>
</g>
<!-- Node72&#45;&gt;Node75 -->
<g id="edge71" class="edge">
<title>Node72&#45;&gt;Node75</title>
<path fill="none" stroke="#63b8ff" d="M1350.06,-806.17C1288.79,-803.87 1194.7,-793.68 1123.03,-756 1102.42,-745.16 1084.53,-724.99 1073.34,-710.28"/>
<polygon fill="#63b8ff" stroke="#63b8ff" points="1076.31,-708.41 1067.6,-702.38 1070.64,-712.53 1076.31,-708.41"/>
</g>
<!-- Node79 -->
<g id="node26" class="node">
<title>Node79</title>
<g id="a_node26"><a xlink:href="../../d2/d58/pointer__vector__map_8h.html" target="_top" xlink:title=" ">
<polygon fill="#fff0f0" stroke="red" points="833.53,-338 728.53,-338 728.53,-308 833.53,-308 833.53,-338"/>
<text text-anchor="start" x="736.53" y="-326" font-family="Helvetica,sans-Serif" font-size="10.00">containers/pointer</text>
<text text-anchor="middle" x="781.03" y="-315" font-family="Helvetica,sans-Serif" font-size="10.00">_vector_map.h</text>
</a>
</g>
</g>
<!-- Node72&#45;&gt;Node79 -->
<g id="edge128" class="edge">
<title>Node72&#45;&gt;Node79</title>
<path fill="none" stroke="#63b8ff" d="M1350.26,-804.33C1171.06,-798.1 663.71,-769.63 567.03,-646 558.81,-635.5 562.53,-628.55 567.03,-616 608.09,-501.23 674.69,-506.26 741.03,-404 752.49,-386.32 763.04,-364.91 770.42,-348.69"/>
<polygon fill="#63b8ff" stroke="#63b8ff" points="773.52,-350.34 774.39,-339.78 767.12,-347.49 773.52,-350.34"/>
</g>
<!-- Node92 -->
<g id="node30" class="node">
<title>Node92</title>
<g id="a_node30"><a xlink:href="../../da/da4/master__slave__constraint_8h.html" target="_top" xlink:title=" ">
<polygon fill="#fff0f0" stroke="red" points="702.03,-646 576.03,-646 576.03,-616 702.03,-616 702.03,-646"/>
<text text-anchor="start" x="584.03" y="-634" font-family="Helvetica,sans-Serif" font-size="10.00">includes/master_slave</text>
<text text-anchor="middle" x="639.03" y="-623" font-family="Helvetica,sans-Serif" font-size="10.00">_constraint.h</text>
</a>
</g>
</g>
<!-- Node72&#45;&gt;Node92 -->
<g id="edge132" class="edge">
<title>Node72&#45;&gt;Node92</title>
<path fill="none" stroke="#63b8ff" d="M1350.3,-798.25C1285.7,-789.79 1182.28,-774.88 1094.03,-756 949.25,-725.03 781.99,-675.94 696.24,-649.79"/>
<polygon fill="#63b8ff" stroke="#63b8ff" points="697.47,-646.5 686.89,-646.92 695.43,-653.2 697.47,-646.5"/>
</g>
<!-- Node104 -->
<g id="node32" class="node">
<title>Node104</title>
<g id="a_node32"><a xlink:href="../../d3/dad/geometry__container_8h.html" target="_top" xlink:title=" ">
<polygon fill="white" stroke="#666666" points="732.03,-404 614.03,-404 614.03,-374 732.03,-374 732.03,-404"/>
<text text-anchor="start" x="622.03" y="-392" font-family="Helvetica,sans-Serif" font-size="10.00">containers/geometry</text>
<text text-anchor="middle" x="673.03" y="-381" font-family="Helvetica,sans-Serif" font-size="10.00">_container.h</text>
</a>
</g>
</g>
<!-- Node72&#45;&gt;Node104 -->
<g id="edge102" class="edge">
<title>Node72&#45;&gt;Node104</title>
<path fill="none" stroke="#63b8ff" d="M1350.2,-805.48C1143.64,-803.41 493.86,-793.93 408.03,-756 306.56,-711.16 273.62,-682.43 231.03,-580 168.01,-428.47 462.07,-397.62 602.23,-391.46"/>
<polygon fill="#63b8ff" stroke="#63b8ff" points="602.31,-394.96 612.16,-391.06 602.03,-387.97 602.31,-394.96"/>
</g>
<!-- Node105 -->
<g id="node33" class="node">
<title>Node105</title>
<g id="a_node33"><a xlink:href="../../da/d92/pointer__hash__map__set_8h.html" target="_top" xlink:title=" ">
<polygon fill="#fff0f0" stroke="red" points="1185.53,-338 1080.53,-338 1080.53,-308 1185.53,-308 1185.53,-338"/>
<text text-anchor="start" x="1088.53" y="-326" font-family="Helvetica,sans-Serif" font-size="10.00">containers/pointer</text>
<text text-anchor="middle" x="1133.03" y="-315" font-family="Helvetica,sans-Serif" font-size="10.00">_hash_map_set.h</text>
</a>
</g>
</g>
<!-- Node72&#45;&gt;Node105 -->
<g id="edge129" class="edge">
<title>Node72&#45;&gt;Node105</title>
<path fill="none" stroke="#63b8ff" d="M1350.27,-803.37C1309.52,-798.61 1257.58,-786.41 1222.03,-756 1131.73,-678.77 1115.03,-629.82 1115.03,-511 1115.03,-511 1115.03,-511 1115.03,-448.5 1115.03,-413.97 1121.89,-374.59 1127.14,-349.54"/>
<polygon fill="#63b8ff" stroke="#63b8ff" points="1130.52,-350.46 1129.23,-339.95 1123.68,-348.97 1130.52,-350.46"/>
</g>
<!-- Node106 -->
<g id="node34" class="node">
<title>Node106</title>
<g id="a_node34"><a xlink:href="../../d4/dfe/element_8h.html" target="_top" xlink:title=" ">
<polygon fill="#fff0f0" stroke="red" points="1574.03,-701 1464.03,-701 1464.03,-682 1574.03,-682 1574.03,-701"/>
<text text-anchor="middle" x="1519.03" y="-689" font-family="Helvetica,sans-Serif" font-size="10.00">includes/element.h</text>
</a>
</g>
</g>
<!-- Node72&#45;&gt;Node106 -->
<g id="edge107" class="edge">
<title>Node72&#45;&gt;Node106</title>
<path fill="none" stroke="#63b8ff" d="M1421.34,-797.09C1438.91,-778.28 1480.07,-734.21 1502.96,-709.71"/>
<polygon fill="#63b8ff" stroke="#63b8ff" points="1505.45,-712.17 1509.71,-702.47 1500.33,-707.39 1505.45,-712.17"/>
</g>
<!-- Node120 -->
<g id="node35" class="node">
<title>Node120</title>
<g id="a_node35"><a xlink:href="../../d7/d6c/condition_8h.html" target="_top" xlink:title=" ">
<polygon fill="#fff0f0" stroke="red" points="1446.03,-701 1332.03,-701 1332.03,-682 1446.03,-682 1446.03,-701"/>
<text text-anchor="middle" x="1389.03" y="-689" font-family="Helvetica,sans-Serif" font-size="10.00">includes/condition.h</text>
</a>
</g>
</g>
<!-- Node72&#45;&gt;Node120 -->
<g id="edge110" class="edge">
<title>Node72&#45;&gt;Node120</title>
<path fill="none" stroke="#63b8ff" d="M1411.14,-797.09C1407.3,-778.94 1398.5,-737.29 1393.23,-712.37"/>
<polygon fill="#63b8ff" stroke="#63b8ff" points="1396.71,-711.91 1391.21,-702.85 1389.86,-713.35 1396.71,-711.91"/>
</g>
<!-- Node121 -->
<g id="node36" class="node">
<title>Node121</title>
<g id="a_node36"><a xlink:href="../../d8/d75/communicator_8h.html" target="_top" xlink:title=" ">
<polygon fill="white" stroke="#666666" points="1384.53,-756 1245.53,-756 1245.53,-737 1384.53,-737 1384.53,-756"/>
<text text-anchor="middle" x="1315.03" y="-744" font-family="Helvetica,sans-Serif" font-size="10.00">includes/communicator.h</text>
</a>
</g>
</g>
<!-- Node72&#45;&gt;Node121 -->
<g id="edge113" class="edge">
<title>Node72&#45;&gt;Node121</title>
<path fill="none" stroke="#63b8ff" d="M1398.14,-797.12C1382.67,-787.88 1358.2,-773.27 1339.8,-762.29"/>
<polygon fill="#63b8ff" stroke="#63b8ff" points="1341.73,-759.36 1331.35,-757.24 1338.14,-765.38 1341.73,-759.36"/>
</g>
<!-- Node108 -->
<g id="node37" class="node">
<title>Node108</title>
<g id="a_node37"><a xlink:href="../../dd/d98/table_8h.html" target="_top" xlink:title=" ">
<polygon fill="white" stroke="#666666" points="2067.03,-459 1973.03,-459 1973.03,-440 2067.03,-440 2067.03,-459"/>
<text text-anchor="middle" x="2020.03" y="-447" font-family="Helvetica,sans-Serif" font-size="10.00">includes/table.h</text>
</a>
</g>
</g>
<!-- Node72&#45;&gt;Node108 -->
<g id="edge122" class="edge">
<title>Node72&#45;&gt;Node108</title>
<path fill="none" stroke="#63b8ff" d="M1475.67,-805.57C1578.05,-803.69 1787.04,-794.91 1959.03,-756 2038.5,-738.02 2131.03,-773.99 2131.03,-692.5 2131.03,-692.5 2131.03,-692.5 2131.03,-569.5 2131.03,-521.06 2081.24,-484.13 2048.35,-465.02"/>
<polygon fill="#63b8ff" stroke="#63b8ff" points="2050.12,-461.99 2039.68,-460.18 2046.71,-468.11 2050.12,-461.99"/>
</g>
<!-- Node73&#45;&gt;Node2 -->
<g id="edge57" class="edge">
<title>Node73&#45;&gt;Node2</title>
<path fill="none" stroke="#63b8ff" d="M1312.69,-565.43C1411.79,-558.95 1605.38,-544.93 1769.03,-525 1954.85,-502.37 2003.71,-505.59 2185.03,-459 2338.75,-419.5 2395.35,-434.95 2521.03,-338 2618.54,-262.77 2643.18,-218.49 2656.03,-96 2657.42,-82.74 2660.87,-78.42 2656.03,-66 2650.84,-52.71 2640.28,-40.81 2630.59,-31.96"/>
<polygon fill="#63b8ff" stroke="#63b8ff" points="2633.14,-29.54 2623.26,-25.72 2628.61,-34.87 2633.14,-29.54"/>
</g>
<!-- Node73&#45;&gt;Node3 -->
<g id="edge58" class="edge">
<title>Node73&#45;&gt;Node3</title>
<path fill="none" stroke="#63b8ff" d="M1248.36,-560.6C1257.72,-499.24 1315.55,-139.05 1393.03,-66 1418.43,-42.04 1515.19,-27.2 1571.56,-20.4"/>
<polygon fill="#63b8ff" stroke="#63b8ff" points="1571.91,-23.88 1581.44,-19.25 1571.1,-16.93 1571.91,-23.88"/>
</g>
<!-- Node73&#45;&gt;Node5 -->
<g id="edge61" class="edge">
<title>Node73&#45;&gt;Node5</title>
<path fill="none" stroke="#63b8ff" d="M1223.75,-560.56C1134.57,-526.28 819.51,-405.18 817.03,-404 790.42,-391.34 717.18,-363.27 702.03,-338 669.92,-284.44 686.19,-253.9 714.03,-198 719.98,-186.04 729.17,-174.28 737.23,-165.18"/>
<polygon fill="#63b8ff" stroke="#63b8ff" points="739.79,-167.57 744.02,-157.86 734.66,-162.81 739.79,-167.57"/>
</g>
<!-- Node73&#45;&gt;Node7 -->
<g id="edge59" class="edge">
<title>Node73&#45;&gt;Node7</title>
<path fill="none" stroke="#63b8ff" d="M1181.45,-565.77C1054.41,-556.03 769.3,-521.7 565.03,-404 389.69,-302.97 243.26,-96.2 201.79,-34.06"/>
<polygon fill="#63b8ff" stroke="#63b8ff" points="204.92,-32.45 196.49,-26.03 199.08,-36.31 204.92,-32.45"/>
</g>
<!-- Node73&#45;&gt;Node65 -->
<g id="edge60" class="edge">
<title>Node73&#45;&gt;Node65</title>
<path fill="none" stroke="#63b8ff" d="M1228.57,-560.57C1213.51,-552.67 1192.3,-540.07 1177.03,-525 1119.88,-468.66 1124.15,-439.67 1078.03,-374 1054.57,-340.61 1025.65,-302.82 1008.88,-281.21"/>
<polygon fill="#63b8ff" stroke="#63b8ff" points="1011.73,-279.17 1002.82,-273.43 1006.2,-283.47 1011.73,-279.17"/>
</g>
<!-- Node73&#45;&gt;Node74 -->
<g id="edge62" class="edge">
<title>Node73&#45;&gt;Node74</title>
<path fill="none" stroke="#63b8ff" d="M1264.34,-560.62C1279.83,-552.67 1303.08,-540.74 1322.89,-530.57"/>
<polygon fill="#63b8ff" stroke="#63b8ff" points="1324.24,-533.81 1331.54,-526.13 1321.05,-527.58 1324.24,-533.81"/>
</g>
<!-- Node74&#45;&gt;Node2 -->
<g id="edge63" class="edge">
<title>Node74&#45;&gt;Node2</title>
<path fill="none" stroke="#63b8ff" d="M1423.97,-504.66C1598.21,-492.65 2074.15,-459.78 2076.03,-459 2137.78,-433.53 2477.38,-105.81 2531.03,-66 2548.35,-53.15 2568.97,-40.16 2584.81,-30.65"/>
<polygon fill="#63b8ff" stroke="#63b8ff" points="2586.32,-33.82 2593.13,-25.71 2582.75,-27.8 2586.32,-33.82"/>
</g>
<!-- Node74&#45;&gt;Node3 -->
<g id="edge64" class="edge">
<title>Node74&#45;&gt;Node3</title>
<path fill="none" stroke="#63b8ff" d="M1360.57,-494.69C1360.28,-480.71 1360.24,-458.84 1362.03,-440 1366.37,-394.17 1374.02,-383.64 1380.03,-338 1392.02,-246.88 1387.81,-223.34 1398.03,-132 1401.31,-102.58 1387.19,-87.98 1407.03,-66 1428.73,-41.94 1518.03,-27.33 1571.68,-20.54"/>
<polygon fill="#63b8ff" stroke="#63b8ff" points="1571.86,-24.05 1581.37,-19.36 1571.01,-17.1 1571.86,-24.05"/>
</g>
<!-- Node74&#45;&gt;Node5 -->
<g id="edge66" class="edge">
<title>Node74&#45;&gt;Node5</title>
<path fill="none" stroke="#63b8ff" d="M1298.62,-494.54C1140.82,-457.69 737.1,-361.52 719.03,-338 679.03,-285.96 720.63,-202.46 742.45,-166.01"/>
<polygon fill="#63b8ff" stroke="#63b8ff" points="745.15,-168.29 747.44,-157.95 739.2,-164.61 745.15,-168.29"/>
</g>
<!-- Node74&#45;&gt;Node13 -->
<g id="edge69" class="edge">
<title>Node74&#45;&gt;Node13</title>
<path fill="none" stroke="#63b8ff" d="M1298.23,-500.3C1116.94,-475.19 605.47,-404.31 605.03,-404 525.52,-348.71 480.08,-278.42 534.03,-198 589.62,-115.12 710.6,-91.01 787.98,-84.26"/>
<polygon fill="#63b8ff" stroke="#63b8ff" points="787.86,-87.78 797.55,-83.51 787.31,-80.81 787.86,-87.78"/>
</g>
<!-- Node74&#45;&gt;Node20 -->
<g id="edge68" class="edge">
<title>Node74&#45;&gt;Node20</title>
<path fill="none" stroke="#63b8ff" d="M1384.01,-494.54C1398.12,-485.66 1416.15,-474.32 1430.38,-465.37"/>
<polygon fill="#63b8ff" stroke="#63b8ff" points="1432.08,-468.44 1438.68,-460.15 1428.35,-462.51 1432.08,-468.44"/>
</g>
<!-- Node74&#45;&gt;Node63 -->
<g id="edge67" class="edge">
<title>Node74&#45;&gt;Node63</title>
<path fill="none" stroke="#63b8ff" d="M1423.81,-496.52C1460.08,-488.19 1506.08,-475.69 1545.03,-459 1579.32,-444.3 1615.66,-420.73 1637.85,-405.31"/>
<polygon fill="#63b8ff" stroke="#63b8ff" points="1639.6,-408.35 1645.75,-399.73 1635.56,-402.64 1639.6,-408.35"/>
</g>
<!-- Node74&#45;&gt;Node65 -->
<g id="edge65" class="edge">
<title>Node74&#45;&gt;Node65</title>
<path fill="none" stroke="#63b8ff" d="M1336.24,-494.6C1321.98,-485.54 1304.31,-472.95 1291.03,-459 1236.03,-401.23 1259.41,-353.69 1194.03,-308 1145.62,-274.17 1075.8,-265.54 1033.03,-263.62"/>
<polygon fill="#63b8ff" stroke="#63b8ff" points="1033.34,-260.13 1023.23,-263.3 1033.11,-267.13 1033.34,-260.13"/>
</g>
<!-- Node75&#45;&gt;Node2 -->
<g id="edge72" class="edge">
<title>Node75&#45;&gt;Node2</title>
<path fill="none" stroke="#63b8ff" d="M1109.31,-688.92C1161.88,-687.2 1248.43,-684.39 1323.03,-682 1386.47,-679.97 2409.45,-676.66 2465.03,-646 2609.65,-566.2 2616.27,-493.12 2673.03,-338 2714.66,-224.19 2751.36,-171.67 2692.03,-66 2681.5,-47.25 2660.77,-34.7 2642.78,-26.87"/>
<polygon fill="#63b8ff" stroke="#63b8ff" points="2644.33,-23.71 2633.74,-23.25 2641.72,-30.21 2644.33,-23.71"/>
</g>
<!-- Node75&#45;&gt;Node3 -->
<g id="edge73" class="edge">
<title>Node75&#45;&gt;Node3</title>
<path fill="none" stroke="#63b8ff" d="M1105.13,-681.58C1138.69,-674.06 1185.66,-661.98 1225.03,-646 1288.81,-620.1 1544.04,-460.74 1545.03,-459 1616.8,-332.02 1501.81,-277.07 1517.03,-132 1520.15,-102.18 1513.7,-90.47 1531.03,-66 1542.6,-49.66 1561.35,-37.65 1578.01,-29.5"/>
<polygon fill="#63b8ff" stroke="#63b8ff" points="1579.01,-32.89 1586.65,-25.55 1576.1,-26.52 1579.01,-32.89"/>
</g>
<!-- Node75&#45;&gt;Node5 -->
<g id="edge76" class="edge">
<title>Node75&#45;&gt;Node5</title>
<path fill="none" stroke="#63b8ff" d="M1012.64,-689.38C894.73,-686.19 599.78,-675.33 567.03,-646 415.92,-510.7 350.11,-353.77 480.03,-198 493.56,-181.77 616.33,-164.4 692.87,-155.01"/>
<polygon fill="#63b8ff" stroke="#63b8ff" points="693.26,-158.48 702.77,-153.81 692.42,-151.53 693.26,-158.48"/>
</g>
<!-- Node75&#45;&gt;Node7 -->
<g id="edge74" class="edge">
<title>Node75&#45;&gt;Node7</title>
<path fill="none" stroke="#63b8ff" d="M1012.7,-689.42C899.84,-686.41 621.87,-676.09 534.03,-646 502.95,-635.35 38.03,-356.85 38.03,-324 38.03,-324 38.03,-324 38.03,-146 38.03,-108.88 36.86,-93.29 62.03,-66 85.12,-40.95 122.29,-28.29 150.64,-21.99"/>
<polygon fill="#63b8ff" stroke="#63b8ff" points="151.2,-25.45 160.31,-20.03 149.81,-18.59 151.2,-25.45"/>
</g>
<!-- Node75&#45;&gt;Node65 -->
<g id="edge75" class="edge">
<title>Node75&#45;&gt;Node65</title>
<path fill="none" stroke="#63b8ff" d="M1062.83,-681.92C1065.43,-667.73 1069.08,-638.67 1061.03,-616 1043.57,-566.88 1004.48,-574.12 987.03,-525 956.65,-439.51 978.55,-328.22 989.64,-283.44"/>
<polygon fill="#63b8ff" stroke="#63b8ff" points="992.99,-284.46 992.11,-273.9 986.21,-282.7 992.99,-284.46"/>
</g>
<!-- Node75&#45;&gt;Node74 -->
<g id="edge89" class="edge">
<title>Node75&#45;&gt;Node74</title>
<path fill="none" stroke="#63b8ff" d="M1084.3,-681.58C1144.51,-658.38 1302.05,-596.77 1321.03,-580 1334.67,-567.95 1344.85,-550.07 1351.52,-535.54"/>
<polygon fill="#63b8ff" stroke="#63b8ff" points="1354.63,-537.18 1355.35,-526.61 1348.19,-534.43 1354.63,-537.18"/>
</g>
<!-- Node75&#45;&gt;Node79 -->
<g id="edge77" class="edge">
<title>Node75&#45;&gt;Node79</title>
<path fill="none" stroke="#63b8ff" d="M1012.81,-683.92C976.33,-677.64 925.73,-666.07 885.03,-646 865.72,-636.49 865.65,-626.77 847.03,-616 809.73,-594.43 781.18,-615.67 757.03,-580 752.29,-573.01 755.61,-569.32 757.03,-561 769.42,-488.11 799.63,-476.89 812.03,-404 814.26,-390.86 815.68,-386.82 812.03,-374 809.39,-364.75 804.49,-355.53 799.36,-347.58"/>
<polygon fill="#63b8ff" stroke="#63b8ff" points="802.33,-345.72 793.75,-339.52 796.59,-349.72 802.33,-345.72"/>
</g>
<!-- Node82 -->
<g id="node27" class="node">
<title>Node82</title>
<g id="a_node27"><a xlink:href="../../d4/d67/geometry_8h.html" target="_top" xlink:title=" ">
<polygon fill="#fff0f0" stroke="red" points="2103.03,-580 1973.03,-580 1973.03,-561 2103.03,-561 2103.03,-580"/>
<text text-anchor="middle" x="2038.03" y="-568" font-family="Helvetica,sans-Serif" font-size="10.00">geometries/geometry.h</text>
</a>
</g>
</g>
<!-- Node75&#45;&gt;Node82 -->
<g id="edge83" class="edge">
<title>Node75&#45;&gt;Node82</title>
<path fill="none" stroke="#63b8ff" d="M1109.46,-686.97C1196.57,-680.41 1385.4,-665.25 1544.03,-646 1698.8,-627.22 1879.77,-598.08 1973.85,-582.39"/>
<polygon fill="#63b8ff" stroke="#63b8ff" points="1974.38,-585.85 1983.67,-580.75 1973.23,-578.95 1974.38,-585.85"/>
</g>
<!-- Node75&#45;&gt;Node92 -->
<g id="edge90" class="edge">
<title>Node75&#45;&gt;Node92</title>
<path fill="none" stroke="#63b8ff" d="M1012.76,-685.38C947.3,-678.21 826.48,-664.18 713.46,-646.32"/>
<polygon fill="#63b8ff" stroke="#63b8ff" points="714.12,-642.88 703.69,-644.77 713.02,-649.8 714.12,-642.88"/>
</g>
<!-- Node79&#45;&gt;Node2 -->
<g id="edge78" class="edge">
<title>Node79&#45;&gt;Node2</title>
<path fill="none" stroke="#63b8ff" d="M833.79,-311.97C964.86,-287.03 1315.76,-219.99 1608.03,-162 1818,-120.33 1868.27,-97.43 2080.03,-66 2266.5,-38.32 2492.28,-23.01 2576.35,-17.93"/>
<polygon fill="#63b8ff" stroke="#63b8ff" points="2576.42,-21.43 2586.2,-17.34 2576.01,-14.44 2576.42,-21.43"/>
</g>
<!-- Node79&#45;&gt;Node3 -->
<g id="edge79" class="edge">
<title>Node79&#45;&gt;Node3</title>
<path fill="none" stroke="#63b8ff" d="M796.17,-307.7C844.72,-262.83 1002.63,-124.37 1162.03,-66 1236.77,-38.63 1474.52,-23.32 1571.37,-18.08"/>
<polygon fill="#63b8ff" stroke="#63b8ff" points="1571.42,-21.58 1581.22,-17.56 1571.04,-14.59 1571.42,-21.58"/>
</g>
<!-- Node79&#45;&gt;Node5 -->
<g id="edge82" class="edge">
<title>Node79&#45;&gt;Node5</title>
<path fill="none" stroke="#63b8ff" d="M778.82,-307.76C774.01,-276.82 762.62,-203.4 757.11,-167.9"/>
<polygon fill="#63b8ff" stroke="#63b8ff" points="760.6,-167.53 755.6,-158.18 753.68,-168.6 760.6,-167.53"/>
</g>
<!-- Node79&#45;&gt;Node7 -->
<g id="edge80" class="edge">
<title>Node79&#45;&gt;Node7</title>
<path fill="none" stroke="#63b8ff" d="M753.31,-307.65C653.89,-256.17 315.82,-81.13 217.22,-30.08"/>
<polygon fill="#63b8ff" stroke="#63b8ff" points="219,-27.06 208.51,-25.57 215.78,-33.28 219,-27.06"/>
</g>
<!-- Node79&#45;&gt;Node65 -->
<g id="edge81" class="edge">
<title>Node79&#45;&gt;Node65</title>
<path fill="none" stroke="#63b8ff" d="M833.92,-307.54C872.18,-297.08 922.95,-283.2 957.19,-273.84"/>
<polygon fill="#63b8ff" stroke="#63b8ff" points="957.94,-277.27 966.67,-271.25 956.1,-270.51 957.94,-277.27"/>
</g>
<!-- Node82&#45;&gt;Node59 -->
<g id="edge88" class="edge">
<title>Node82&#45;&gt;Node59</title>
<path fill="none" stroke="#63b8ff" d="M2030.81,-560.55C2016.45,-542.36 1983.93,-499.38 1964.03,-459 1932.71,-395.46 1950.39,-368.18 1913.03,-308 1894.79,-278.63 1886.52,-272.58 1858.03,-253 1838.82,-239.8 1815.07,-229.04 1795.54,-221.41"/>
<polygon fill="#63b8ff" stroke="#63b8ff" points="1796.89,-218.18 1786.3,-217.92 1794.42,-224.72 1796.89,-218.18"/>
</g>
<!-- Node82&#45;&gt;Node74 -->
<g id="edge84" class="edge">
<title>Node82&#45;&gt;Node74</title>
<path fill="none" stroke="#63b8ff" d="M1972.8,-563.86C1846.25,-552.93 1568.16,-528.9 1434.97,-517.39"/>
<polygon fill="#63b8ff" stroke="#63b8ff" points="1435.47,-513.92 1425.21,-516.55 1434.87,-520.89 1435.47,-513.92"/>
</g>
<!-- Node82&#45;&gt;Node89 -->
<g id="edge85" class="edge">
<title>Node82&#45;&gt;Node89</title>
<path fill="none" stroke="#63b8ff" d="M2100.59,-560.55C2175.13,-549.89 2299.33,-532.13 2377.01,-521.01"/>
<polygon fill="#63b8ff" stroke="#63b8ff" points="2377.22,-524.52 2386.62,-519.64 2376.23,-517.59 2377.22,-524.52"/>
</g>
<!-- Node89&#45;&gt;Node59 -->
<g id="edge87" class="edge">
<title>Node89&#45;&gt;Node59</title>
<path fill="none" stroke="#63b8ff" d="M2444.11,-500.19C2435.91,-476.68 2410.52,-411.65 2369.03,-374 2272.84,-286.72 2227.93,-288.59 2103.03,-253 2053.21,-238.8 1915.24,-223.65 1829.63,-215.2"/>
<polygon fill="#63b8ff" stroke="#63b8ff" points="1830.22,-211.74 1819.93,-214.25 1829.54,-218.71 1830.22,-211.74"/>
</g>
<!-- Node90 -->
<g id="node29" class="node">
<title>Node90</title>
<g id="a_node29"><a xlink:title=" ">
<polygon fill="#e0e0e0" stroke="#999999" points="3081.53,-24.5 3034.53,-24.5 3034.53,-5.5 3081.53,-5.5 3081.53,-24.5"/>
<text text-anchor="middle" x="3058.03" y="-12.5" font-family="Helvetica,sans-Serif" font-size="10.00">cmath</text>
</a>
</g>
</g>
<!-- Node89&#45;&gt;Node90 -->
<g id="edge86" class="edge">
<title>Node89&#45;&gt;Node90</title>
<path fill="none" stroke="#63b8ff" d="M2464.47,-500.05C2511.48,-475.73 2644.29,-405.72 2749.03,-338 2860.1,-266.18 2887.08,-246.28 2989.03,-162 3022.23,-134.55 3042.81,-135.5 3060.03,-96 3068.34,-76.92 3066.24,-52.77 3063.06,-36.03"/>
<polygon fill="#63b8ff" stroke="#63b8ff" points="3066.5,-35.35 3060.91,-26.34 3059.67,-36.87 3066.5,-35.35"/>
</g>
<!-- Node92&#45;&gt;Node5 -->
<g id="edge91" class="edge">
<title>Node92&#45;&gt;Node5</title>
<path fill="none" stroke="#63b8ff" d="M631.58,-615.8C609.84,-572.99 548.03,-440.95 548.03,-324 548.03,-324 548.03,-324 548.03,-261.5 548.03,-194.61 632.37,-166.85 693.12,-155.53"/>
<polygon fill="#63b8ff" stroke="#63b8ff" points="693.42,-159.03 702.67,-153.87 692.21,-152.14 693.42,-159.03"/>
</g>
<!-- Node92&#45;&gt;Node18 -->
<g id="edge99" class="edge">
<title>Node92&#45;&gt;Node18</title>
<path fill="none" stroke="#63b8ff" d="M575.62,-618.93C515.66,-608.46 426.2,-592.84 366.53,-582.42"/>
<polygon fill="#63b8ff" stroke="#63b8ff" points="367.33,-579 356.87,-580.73 366.12,-585.9 367.33,-579"/>
</g>
<!-- Node92&#45;&gt;Node63 -->
<g id="edge100" class="edge">
<title>Node92&#45;&gt;Node63</title>
<path fill="none" stroke="#63b8ff" d="M702.16,-617.23C705.15,-616.78 708.12,-616.37 711.03,-616 980.47,-582.01 1057.9,-647.25 1321.03,-580 1442.95,-548.84 1471.11,-526.97 1577.03,-459 1601.11,-443.54 1625.86,-421.75 1641.77,-406.82"/>
<polygon fill="#63b8ff" stroke="#63b8ff" points="1644.14,-409.4 1648.96,-399.96 1639.31,-404.33 1644.14,-409.4"/>
</g>
<!-- Node92&#45;&gt;Node73 -->
<g id="edge101" class="edge">
<title>Node92&#45;&gt;Node73</title>
<path fill="none" stroke="#63b8ff" d="M702.18,-617.32C705.16,-616.84 708.12,-616.4 711.03,-616 873.51,-593.53 1065.38,-580.94 1169.8,-575.26"/>
<polygon fill="#63b8ff" stroke="#63b8ff" points="1169.86,-578.76 1179.66,-574.73 1169.49,-571.77 1169.86,-578.76"/>
</g>
<!-- Node98 -->
<g id="node31" class="node">
<title>Node98</title>
<g id="a_node31"><a xlink:href="../../d1/d77/node_8h.html" target="_top" xlink:title=" ">
<polygon fill="#fff0f0" stroke="red" points="859.53,-580 766.53,-580 766.53,-561 859.53,-561 859.53,-580"/>
<text text-anchor="middle" x="813.03" y="-568" font-family="Helvetica,sans-Serif" font-size="10.00">includes/node.h</text>
</a>
</g>
</g>
<!-- Node92&#45;&gt;Node98 -->
<g id="edge92" class="edge">
<title>Node92&#45;&gt;Node98</title>
<path fill="none" stroke="#63b8ff" d="M682.04,-615.54C710.78,-605.87 748.22,-593.29 775.71,-584.04"/>
<polygon fill="#63b8ff" stroke="#63b8ff" points="776.66,-587.42 785.02,-580.91 774.43,-580.78 776.66,-587.42"/>
</g>
<!-- Node98&#45;&gt;Node2 -->
<g id="edge93" class="edge">
<title>Node98&#45;&gt;Node2</title>
<path fill="none" stroke="#63b8ff" d="M859.98,-568.08C1031.07,-562.78 1615.3,-543.49 1697.03,-525 1730.84,-517.35 1735.41,-503.48 1769.03,-495 1925.37,-455.56 1976.86,-509.4 2130.03,-459 2229.98,-426.11 2460.58,-289.3 2537.03,-217 2589.73,-167.16 2604.51,-76.31 2608.55,-36.09"/>
<polygon fill="#63b8ff" stroke="#63b8ff" points="2612.03,-36.49 2609.4,-26.23 2605.05,-35.89 2612.03,-36.49"/>
</g>
<!-- Node98&#45;&gt;Node3 -->
<g id="edge94" class="edge">
<title>Node98&#45;&gt;Node3</title>
<path fill="none" stroke="#63b8ff" d="M844.31,-560.55C918.77,-537.49 1106.85,-468.48 1194.03,-338 1226.38,-289.58 1214.03,-266.74 1214.03,-208.5 1214.03,-208.5 1214.03,-208.5 1214.03,-146 1214.03,-71.45 1469,-33.02 1571.3,-20.6"/>
<polygon fill="#63b8ff" stroke="#63b8ff" points="1571.69,-24.07 1581.2,-19.42 1570.86,-17.12 1571.69,-24.07"/>
</g>
<!-- Node98&#45;&gt;Node5 -->
<g id="edge97" class="edge">
<title>Node98&#45;&gt;Node5</title>
<path fill="none" stroke="#63b8ff" d="M807.4,-560.91C797.48,-546.18 775.66,-515.71 752.03,-495 694.23,-444.36 649.97,-466.32 605.03,-404 583.65,-374.36 586.03,-360.54 586.03,-324 586.03,-324 586.03,-324 586.03,-261.5 586.03,-205.05 651.95,-174.78 701.21,-160.05"/>
<polygon fill="#63b8ff" stroke="#63b8ff" points="701.95,-163.48 710.61,-157.38 700.03,-156.75 701.95,-163.48"/>
</g>
<!-- Node98&#45;&gt;Node7 -->
<g id="edge95" class="edge">
<title>Node98&#45;&gt;Node7</title>
<path fill="none" stroke="#63b8ff" d="M783.77,-560.59C655.85,-520.76 152.03,-354.62 152.03,-208.5 152.03,-208.5 152.03,-208.5 152.03,-146 152.03,-105.2 169.48,-59.98 180.73,-35.08"/>
<polygon fill="#63b8ff" stroke="#63b8ff" points="183.8,-36.79 184.87,-26.25 177.46,-33.82 183.8,-36.79"/>
</g>
<!-- Node98&#45;&gt;Node65 -->
<g id="edge96" class="edge">
<title>Node98&#45;&gt;Node65</title>
<path fill="none" stroke="#63b8ff" d="M817.55,-560.7C834.91,-527.08 899.51,-403.84 962.03,-308 967.86,-299.05 974.85,-289.49 980.89,-281.53"/>
<polygon fill="#63b8ff" stroke="#63b8ff" points="983.61,-283.73 986.95,-273.67 978.07,-279.45 983.61,-283.73"/>
</g>
<!-- Node98&#45;&gt;Node74 -->
<g id="edge98" class="edge">
<title>Node98&#45;&gt;Node74</title>
<path fill="none" stroke="#63b8ff" d="M859.75,-564.51C954.96,-554.35 1172.13,-531.17 1286.85,-518.92"/>
<polygon fill="#63b8ff" stroke="#63b8ff" points="1287.22,-522.4 1296.8,-517.86 1286.48,-515.44 1287.22,-522.4"/>
</g>
<!-- Node104&#45;&gt;Node5 -->
<g id="edge103" class="edge">
<title>Node104&#45;&gt;Node5</title>
<path fill="none" stroke="#63b8ff" d="M663.69,-373.81C657.92,-364.15 651.06,-350.85 648.03,-338 633.73,-277.44 614.71,-250.55 648.03,-198 659.56,-179.8 679.69,-168.1 699.33,-160.64"/>
<polygon fill="#63b8ff" stroke="#63b8ff" points="700.39,-163.98 708.7,-157.41 698.11,-157.36 700.39,-163.98"/>
</g>
<!-- Node104&#45;&gt;Node105 -->
<g id="edge104" class="edge">
<title>Node104&#45;&gt;Node105</title>
<path fill="none" stroke="#63b8ff" d="M732.22,-379.76C818.81,-367.72 979.41,-345.37 1068.78,-332.94"/>
<polygon fill="#63b8ff" stroke="#63b8ff" points="1069.19,-336.42 1078.61,-331.57 1068.22,-329.48 1069.19,-336.42"/>
</g>
<!-- Node105&#45;&gt;Node5 -->
<g id="edge105" class="edge">
<title>Node105&#45;&gt;Node5</title>
<path fill="none" stroke="#63b8ff" d="M1114.48,-307.64C1094.46,-292.62 1061.23,-269.03 1030.03,-253 989.49,-232.18 976.63,-233.16 934.03,-217 882.98,-197.64 823.9,-174.94 787.75,-161.01"/>
<polygon fill="#63b8ff" stroke="#63b8ff" points="789.31,-157.86 778.72,-157.53 786.79,-164.39 789.31,-157.86"/>
</g>
<!-- Node105&#45;&gt;Node50 -->
<g id="edge106" class="edge">
<title>Node105&#45;&gt;Node50</title>
<path fill="none" stroke="#63b8ff" d="M1185.92,-317.31C1304.81,-306.77 1593.05,-281.22 1725.01,-269.53"/>
<polygon fill="#63b8ff" stroke="#63b8ff" points="1724.99,-273.04 1734.64,-268.68 1724.37,-266.07 1724.99,-273.04"/>
</g>
<!-- Node106&#45;&gt;Node69 -->
<g id="edge109" class="edge">
<title>Node106&#45;&gt;Node69</title>
<path fill="none" stroke="#63b8ff" d="M1509.3,-681.62C1499.72,-672.85 1484.84,-659.25 1473.08,-648.5"/>
<polygon fill="#63b8ff" stroke="#63b8ff" points="1475.7,-646.15 1465.95,-641.99 1470.97,-651.32 1475.7,-646.15"/>
</g>
<!-- Node106&#45;&gt;Node73 -->
<g id="edge108" class="edge">
<title>Node106&#45;&gt;Node73</title>
<path fill="none" stroke="#63b8ff" d="M1526.92,-681.64C1539.43,-666.5 1560.76,-635.43 1544.03,-616 1529.81,-599.49 1407.56,-585.57 1324.4,-577.9"/>
<polygon fill="#63b8ff" stroke="#63b8ff" points="1324.72,-574.41 1314.45,-576.99 1324.09,-581.38 1324.72,-574.41"/>
</g>
<!-- Node120&#45;&gt;Node69 -->
<g id="edge112" class="edge">
<title>Node120&#45;&gt;Node69</title>
<path fill="none" stroke="#63b8ff" d="M1399.05,-681.62C1408.93,-672.85 1424.28,-659.25 1436.41,-648.5"/>
<polygon fill="#63b8ff" stroke="#63b8ff" points="1438.61,-651.22 1443.77,-641.97 1433.97,-645.99 1438.61,-651.22"/>
</g>
<!-- Node120&#45;&gt;Node73 -->
<g id="edge111" class="edge">
<title>Node120&#45;&gt;Node73</title>
<path fill="none" stroke="#63b8ff" d="M1378.35,-681.56C1354.49,-661.56 1296.54,-613 1266.23,-587.59"/>
<polygon fill="#63b8ff" stroke="#63b8ff" points="1268.51,-584.94 1258.6,-581.2 1264.01,-590.3 1268.51,-584.94"/>
</g>
<!-- Node121&#45;&gt;Node2 -->
<g id="edge114" class="edge">
<title>Node121&#45;&gt;Node2</title>
<path fill="none" stroke="#63b8ff" d="M1384.67,-742.66C1605.61,-733.19 2288.83,-700.17 2503.03,-646 2725.08,-589.84 2830.05,-593.96 2958.03,-404 3044.28,-275.97 3140.65,-181.32 3038.03,-66 3011.88,-36.62 2739.97,-21.77 2643.63,-17.41"/>
<polygon fill="#63b8ff" stroke="#63b8ff" points="2643.93,-13.91 2633.78,-16.97 2643.62,-20.91 2643.93,-13.91"/>
</g>
<!-- Node121&#45;&gt;Node3 -->
<g id="edge115" class="edge">
<title>Node121&#45;&gt;Node3</title>
<path fill="none" stroke="#63b8ff" d="M1314.93,-736.59C1315.07,-724.04 1316.32,-700.61 1323.03,-682 1334.82,-649.29 1337.05,-636.65 1365.03,-616 1488.13,-525.15 1590.17,-634.5 1697.03,-525 1764.86,-455.48 1751.63,-400.83 1723.03,-308 1700.78,-235.81 1666.05,-231.31 1636.03,-162 1623.89,-133.99 1622.04,-126.11 1617.03,-96 1613.67,-75.87 1612.85,-52.53 1612.76,-36.27"/>
<polygon fill="#63b8ff" stroke="#63b8ff" points="1616.26,-36.48 1612.8,-26.46 1609.26,-36.45 1616.26,-36.48"/>
</g>
<!-- Node121&#45;&gt;Node5 -->
<g id="edge118" class="edge">
<title>Node121&#45;&gt;Node5</title>
<path fill="none" stroke="#63b8ff" d="M1245.2,-743.36C1077.09,-737.14 654.82,-714.93 534.03,-646 360.75,-547.13 406.57,-323.03 562.03,-198 599.07,-168.2 651.98,-156 692.88,-151.09"/>
<polygon fill="#63b8ff" stroke="#63b8ff" points="693,-154.59 702.57,-150.04 692.26,-147.63 693,-154.59"/>
</g>
<!-- Node121&#45;&gt;Node7 -->
<g id="edge116" class="edge">
<title>Node121&#45;&gt;Node7</title>
<path fill="none" stroke="#63b8ff" d="M1245.19,-744.85C1001.36,-742.33 200.2,-731.73 155.03,-701 103.03,-665.64 98.03,-634.38 98.03,-571.5 98.03,-571.5 98.03,-571.5 98.03,-509 98.03,-399.45 76.03,-373.05 76.03,-263.5 76.03,-263.5 76.03,-263.5 76.03,-146 76.03,-93.22 129.79,-51.62 163.48,-30.74"/>
<polygon fill="#63b8ff" stroke="#63b8ff" points="165.11,-33.84 171.9,-25.71 161.52,-27.83 165.11,-33.84"/>
</g>
<!-- Node121&#45;&gt;Node65 -->
<g id="edge117" class="edge">
<title>Node121&#45;&gt;Node65</title>
<path fill="none" stroke="#63b8ff" d="M1306.37,-736.64C1283.12,-712.62 1218,-643.76 1172.03,-580 1098.83,-478.48 1085.47,-449.19 1028.03,-338 1018.5,-319.57 1009.06,-297.81 1002.74,-282.59"/>
<polygon fill="#63b8ff" stroke="#63b8ff" points="1006.16,-281.7 999.13,-273.78 999.68,-284.36 1006.16,-281.7"/>
</g>
<!-- Node121&#45;&gt;Node75 -->
<g id="edge121" class="edge">
<title>Node121&#45;&gt;Node75</title>
<path fill="none" stroke="#63b8ff" d="M1271.94,-736.51C1228.66,-727.48 1161.84,-713.54 1115.04,-703.77"/>
<polygon fill="#63b8ff" stroke="#63b8ff" points="1115.89,-700.37 1105.38,-701.76 1114.46,-707.22 1115.89,-700.37"/>
</g>
<!-- Node121&#45;&gt;Node106 -->
<g id="edge120" class="edge">
<title>Node121&#45;&gt;Node106</title>
<path fill="none" stroke="#63b8ff" d="M1349.63,-736.51C1383.73,-727.65 1436.02,-714.07 1473.48,-704.33"/>
<polygon fill="#63b8ff" stroke="#63b8ff" points="1474.33,-707.73 1483.13,-701.83 1472.57,-700.95 1474.33,-707.73"/>
</g>
<!-- Node121&#45;&gt;Node120 -->
<g id="edge119" class="edge">
<title>Node121&#45;&gt;Node120</title>
<path fill="none" stroke="#63b8ff" d="M1327.58,-736.51C1338.49,-728.7 1354.53,-717.21 1367.49,-707.93"/>
<polygon fill="#63b8ff" stroke="#63b8ff" points="1369.34,-710.91 1375.43,-702.24 1365.26,-705.22 1369.34,-710.91"/>
</g>
<!-- Node108&#45;&gt;Node2 -->
<g id="edge123" class="edge">
<title>Node108&#45;&gt;Node2</title>
<path fill="none" stroke="#63b8ff" d="M2052.63,-439.56C2140.77,-414.42 2388.96,-336.97 2565.03,-217 2617.31,-181.37 2630.32,-158.52 2640.03,-96 2642.07,-82.82 2643.58,-78.85 2640.03,-66 2636.84,-54.52 2630.25,-43.02 2624.05,-33.96"/>
<polygon fill="#63b8ff" stroke="#63b8ff" points="2627.04,-32.11 2618.31,-26.1 2621.38,-36.24 2627.04,-32.11"/>
</g>
<!-- Node108&#45;&gt;Node3 -->
<g id="edge124" class="edge">
<title>Node108&#45;&gt;Node3</title>
<path fill="none" stroke="#63b8ff" d="M2024.55,-439.58C2028.73,-430.79 2034.65,-416.85 2037.03,-404 2049.38,-337.03 2063.74,-296.11 2011.03,-253 1959.29,-210.69 1924.93,-246.62 1865.03,-217 1768.96,-169.5 1761.03,-132.55 1677.03,-66 1662.41,-54.42 1645.81,-41.46 1633.18,-31.63"/>
<polygon fill="#63b8ff" stroke="#63b8ff" points="1635.63,-29.11 1625.59,-25.73 1631.34,-34.63 1635.63,-29.11"/>
</g>
<!-- Node108&#45;&gt;Node5 -->
<g id="edge126" class="edge">
<title>Node108&#45;&gt;Node5</title>
<path fill="none" stroke="#63b8ff" d="M2004.81,-439.64C1961.94,-415.05 1835.95,-345.32 1723.03,-308 1526.39,-243.01 1468.75,-259.32 1266.03,-217 1227.28,-208.91 1218.06,-204.54 1179.03,-198 1050.26,-176.42 898.01,-160.91 815.19,-153.3"/>
<polygon fill="#63b8ff" stroke="#63b8ff" points="815.76,-149.84 805.48,-152.42 815.13,-156.81 815.76,-149.84"/>
</g>
<!-- Node108&#45;&gt;Node63 -->
<g id="edge127" class="edge">
<title>Node108&#45;&gt;Node63</title>
<path fill="none" stroke="#63b8ff" d="M1972.83,-440.85C1909.7,-430.62 1797.41,-412.42 1725.67,-400.8"/>
<polygon fill="#63b8ff" stroke="#63b8ff" points="1726.44,-397.38 1716.01,-399.23 1725.32,-404.29 1726.44,-397.38"/>
</g>
<!-- Node108&#45;&gt;Node59 -->
<g id="edge125" class="edge">
<title>Node108&#45;&gt;Node59</title>
<path fill="none" stroke="#63b8ff" d="M2021.77,-439.58C2027.22,-408.85 2040.64,-306.35 1989.03,-253 1977.86,-241.46 1893.19,-227.3 1829.57,-218.1"/>
<polygon fill="#63b8ff" stroke="#63b8ff" points="1830.25,-214.66 1819.86,-216.71 1829.26,-221.59 1830.25,-214.66"/>
</g>
<!-- Node122&#45;&gt;Node5 -->
<g id="edge136" class="edge">
<title>Node122&#45;&gt;Node5</title>
<path fill="none" stroke="#63b8ff" d="M1614.31,-494.71C1597.27,-480.36 1569.9,-457.87 1545.03,-440 1405.6,-339.83 1369.36,-308.87 1207.03,-253 1149.93,-233.35 1133.93,-234.12 1076.03,-217 1049.2,-209.07 1043.14,-204.86 1016.03,-198 947.85,-180.76 868.36,-166.38 814.98,-157.53"/>
<polygon fill="#63b8ff" stroke="#63b8ff" points="815.59,-154.09 805.15,-155.92 814.46,-161 815.59,-154.09"/>
</g>
<!-- Node122&#45;&gt;Node20 -->
<g id="edge138" class="edge">
<title>Node122&#45;&gt;Node20</title>
<path fill="none" stroke="#63b8ff" d="M1587.27,-494.54C1558.03,-484.87 1519.94,-472.29 1491.98,-463.04"/>
<polygon fill="#63b8ff" stroke="#63b8ff" points="1493.08,-459.72 1482.49,-459.91 1490.88,-466.37 1493.08,-459.72"/>
</g>
<!-- Node122&#45;&gt;Node63 -->
<g id="edge137" class="edge">
<title>Node122&#45;&gt;Node63</title>
<path fill="none" stroke="#63b8ff" d="M1658.54,-494.54C1671.56,-486.09 1685.81,-474.09 1693.03,-459 1701.53,-441.21 1688.91,-420.99 1676.71,-407.06"/>
<polygon fill="#63b8ff" stroke="#63b8ff" points="1679.44,-404.85 1670.02,-400 1674.36,-409.66 1679.44,-404.85"/>
</g>
<!-- Node122&#45;&gt;Node25 -->
<g id="edge139" class="edge">
<title>Node122&#45;&gt;Node25</title>
<path fill="none" stroke="#63b8ff" d="M1688.93,-501.31C1705.72,-499.17 1724.09,-496.91 1741.03,-495 1781.85,-490.41 2081.42,-489.43 2109.03,-459 2117.86,-449.26 2187.93,-359.73 2103.03,-253 2090.78,-237.6 2047.4,-226.34 2007.79,-219"/>
<polygon fill="#63b8ff" stroke="#63b8ff" points="2008.43,-215.56 1997.97,-217.25 2007.2,-222.45 2008.43,-215.56"/>
</g>
<!-- Node123&#45;&gt;Node2 -->
<g id="edge141" class="edge">
<title>Node123&#45;&gt;Node2</title>
<path fill="none" stroke="#63b8ff" d="M2456.25,-618.76C2558.29,-594.9 2784.08,-530.71 2928.03,-404 3047.38,-298.94 3068.1,-249.37 3110.03,-96 3113.54,-83.14 3118.97,-75.89 3110.03,-66 3078.74,-31.43 2751.08,-19.73 2643.81,-16.81"/>
<polygon fill="#63b8ff" stroke="#63b8ff" points="2644.02,-13.32 2633.94,-16.55 2643.84,-20.31 2644.02,-13.32"/>
</g>
<!-- Node123&#45;&gt;Node3 -->
<g id="edge142" class="edge">
<title>Node123&#45;&gt;Node3</title>
<path fill="none" stroke="#63b8ff" d="M2430.52,-615.51C2469.15,-593 2532.79,-546.78 2514.03,-495 2450.11,-318.6 2372.73,-298.08 2214.03,-198 2105.08,-129.3 2078.73,-105.15 1956.03,-66 1850.78,-32.42 1720.1,-21.29 1654.58,-17.68"/>
<polygon fill="#63b8ff" stroke="#63b8ff" points="1654.8,-14.19 1644.64,-17.17 1654.44,-21.18 1654.8,-14.19"/>
</g>
<!-- Node123&#45;&gt;Node5 -->
<g id="edge143" class="edge">
<title>Node123&#45;&gt;Node5</title>
<path fill="none" stroke="#63b8ff" d="M2349.59,-624.32C2266.89,-615.43 2102.92,-597.46 1964.03,-580 1785.98,-557.62 1738.9,-565.25 1564.03,-525 1518,-514.41 1401.7,-484.61 1362.03,-459 1285.63,-409.7 1299.9,-358.09 1224.03,-308 1121.85,-240.55 1077.26,-263.55 964.03,-217 945.82,-209.52 942.41,-205.02 924.03,-198 883.31,-182.45 835.6,-168.8 801.1,-159.71"/>
<polygon fill="#63b8ff" stroke="#63b8ff" points="802.41,-156.43 791.85,-157.3 800.65,-163.21 802.41,-156.43"/>
</g>
<!-- Node123&#45;&gt;Node82 -->
<g id="edge144" class="edge">
<title>Node123&#45;&gt;Node82</title>
<path fill="none" stroke="#63b8ff" d="M2349.56,-621.43C2284.72,-611.04 2175.37,-593.51 2104.98,-582.23"/>
<polygon fill="#63b8ff" stroke="#63b8ff" points="2105.95,-578.84 2095.53,-580.72 2104.85,-585.75 2105.95,-578.84"/>
</g>
<!-- Node123&#45;&gt;Node98 -->
<g id="edge145" class="edge">
<title>Node123&#45;&gt;Node98</title>
<path fill="none" stroke="#63b8ff" d="M2349.67,-628.04C2108.58,-619.17 1121.84,-582.86 871.16,-573.64"/>
<polygon fill="#63b8ff" stroke="#63b8ff" points="871.42,-570.15 861.29,-573.28 871.16,-577.14 871.42,-570.15"/>
</g>
<!-- Node124 -->
<g id="node40" class="node">
<title>Node124</title>
<g id="a_node40"><a xlink:href="../../d5/d90/octree__binary__cell_8h.html" target="_top" xlink:title=" ">
<polygon fill="white" stroke="#666666" points="2205.53,-217 2090.53,-217 2090.53,-198 2205.53,-198 2205.53,-217"/>
<text text-anchor="middle" x="2148.03" y="-205" font-family="Helvetica,sans-Serif" font-size="10.00">octree_binary_cell.h</text>
</a>
</g>
</g>
<!-- Node123&#45;&gt;Node124 -->
<g id="edge146" class="edge">
<title>Node123&#45;&gt;Node124</title>
<path fill="none" stroke="#63b8ff" d="M2398.86,-615.54C2393.27,-595.43 2383.51,-557.79 2379.03,-525 2365.65,-427.13 2401.72,-376.99 2331.03,-308 2288.32,-266.33 2224.65,-237.04 2184.78,-221.48"/>
<polygon fill="#63b8ff" stroke="#63b8ff" points="2186.2,-218.28 2175.61,-218 2183.72,-224.83 2186.2,-218.28"/>
</g>
<!-- Node124&#45;&gt;Node2 -->
<g id="edge147" class="edge">
<title>Node124&#45;&gt;Node2</title>
<path fill="none" stroke="#63b8ff" d="M2156.08,-197.73C2163.81,-189.06 2175.53,-175.2 2184.03,-162 2209.84,-121.89 2193.18,-93.69 2232.03,-66 2287.07,-26.76 2494.87,-18.31 2576.66,-16.49"/>
<polygon fill="#63b8ff" stroke="#63b8ff" points="2576.56,-20 2586.49,-16.3 2576.42,-13 2576.56,-20"/>
</g>
<!-- Node124&#45;&gt;Node3 -->
<g id="edge148" class="edge">
<title>Node124&#45;&gt;Node3</title>
<path fill="none" stroke="#63b8ff" d="M2133.36,-197.68C2102.38,-179.04 2028.03,-134.19 1966.03,-96 1944.61,-82.81 1941.57,-74.88 1918.03,-66 1828.12,-32.1 1714.77,-21.16 1654.75,-17.65"/>
<polygon fill="#63b8ff" stroke="#63b8ff" points="1655.17,-14.17 1644.99,-17.12 1654.79,-21.16 1655.17,-14.17"/>
</g>
<!-- Node124&#45;&gt;Node5 -->
<g id="edge149" class="edge">
<title>Node124&#45;&gt;Node5</title>
<path fill="none" stroke="#63b8ff" d="M2090.29,-202.81C2064.25,-201.21 2033.09,-199.4 2005.03,-198 1548.04,-175.29 996.74,-156.12 815.22,-150.02"/>
<polygon fill="#63b8ff" stroke="#63b8ff" points="815.42,-146.53 805.31,-149.69 815.19,-153.53 815.42,-146.53"/>
</g>
<!-- Node125&#45;&gt;Node2 -->
<g id="edge151" class="edge">
<title>Node125&#45;&gt;Node2</title>
<path fill="none" stroke="#63b8ff" d="M2901.23,-131.63C2893.09,-113.35 2876.46,-82.22 2852.03,-66 2787.47,-23.14 2693.55,-15.87 2643.83,-15.3"/>
<polygon fill="#63b8ff" stroke="#63b8ff" points="2644,-11.8 2633.99,-15.29 2643.98,-18.8 2644,-11.8"/>
</g>
<!-- Node125&#45;&gt;Node3 -->
<g id="edge152" class="edge">
<title>Node125&#45;&gt;Node3</title>
<path fill="none" stroke="#63b8ff" d="M2843.16,-131.54C2759.35,-113.17 2607.48,-81.94 2476.03,-66 2161.75,-27.88 1779.44,-18.63 1654.6,-16.56"/>
<polygon fill="#63b8ff" stroke="#63b8ff" points="1654.91,-13.06 1644.85,-16.4 1654.8,-20.06 1654.91,-13.06"/>
</g>
<!-- Node125&#45;&gt;Node90 -->
<g id="edge153" class="edge">
<title>Node125&#45;&gt;Node90</title>
<path fill="none" stroke="#63b8ff" d="M2980.45,-131.6C3001.61,-124.17 3023,-112.94 3038.03,-96 3052.63,-79.54 3056.9,-54.01 3057.99,-36.23"/>
<polygon fill="#63b8ff" stroke="#63b8ff" points="3061.48,-36.51 3058.28,-26.41 3054.49,-36.3 3061.48,-36.51"/>
</g>
<!-- Node126 -->
<g id="node42" class="node">
<title>Node126</title>
<g id="a_node42"><a xlink:href="../../d2/d1a/contact__pair_8h.html" target="_top" xlink:title=" ">
<polygon fill="white" stroke="#666666" points="3029.53,-90.5 2904.53,-90.5 2904.53,-71.5 3029.53,-71.5 3029.53,-90.5"/>
<text text-anchor="middle" x="2967.03" y="-78.5" font-family="Helvetica,sans-Serif" font-size="10.00">utilities/contact_pair.h</text>
</a>
</g>
</g>
<!-- Node125&#45;&gt;Node126 -->
<g id="edge154" class="edge">
<title>Node125&#45;&gt;Node126</title>
<path fill="none" stroke="#63b8ff" d="M2920.34,-131.8C2929.42,-122.11 2941.49,-109.24 2951.08,-99.01"/>
<polygon fill="#63b8ff" stroke="#63b8ff" points="2953.41,-101.64 2957.7,-91.95 2948.31,-96.85 2953.41,-101.64"/>
</g>
<!-- Node126&#45;&gt;Node2 -->
<g id="edge155" class="edge">
<title>Node126&#45;&gt;Node2</title>
<path fill="none" stroke="#63b8ff" d="M2917.74,-71.01C2908.53,-69.34 2898.98,-67.61 2890.03,-66 2800.98,-49.95 2695.96,-31.26 2643.45,-21.93"/>
<polygon fill="#63b8ff" stroke="#63b8ff" points="2644.12,-18.5 2633.66,-20.19 2642.89,-25.39 2644.12,-18.5"/>
</g>
<!-- Node126&#45;&gt;Node3 -->
<g id="edge156" class="edge">
<title>Node126&#45;&gt;Node3</title>
<path fill="none" stroke="#63b8ff" d="M2904.15,-71.41C2887.25,-69.36 2868.97,-67.37 2852.03,-66 2383.05,-28.05 1811.77,-18.46 1654.69,-16.46"/>
<polygon fill="#63b8ff" stroke="#63b8ff" points="1654.82,-12.96 1644.78,-16.34 1654.74,-19.96 1654.82,-12.96"/>
</g>
<!-- Node126&#45;&gt;Node90 -->
<g id="edge157" class="edge">
<title>Node126&#45;&gt;Node90</title>
<path fill="none" stroke="#63b8ff" d="M2979.68,-71.1C2994.35,-60.78 3018.77,-43.61 3036.45,-31.17"/>
<polygon fill="#63b8ff" stroke="#63b8ff" points="3038.08,-34.31 3044.24,-25.69 3034.05,-28.58 3038.08,-34.31"/>
</g>
<!-- Node127&#45;&gt;Node2 -->
<g id="edge159" class="edge">
<title>Node127&#45;&gt;Node2</title>
<path fill="none" stroke="#63b8ff" d="M2465.43,-197.51C2479.4,-174.56 2518.42,-112.35 2558.03,-66 2568.34,-53.92 2581.2,-41.54 2591.55,-32.12"/>
<polygon fill="#63b8ff" stroke="#63b8ff" points="2593.62,-34.96 2598.75,-25.69 2588.96,-29.74 2593.62,-34.96"/>
</g>
<!-- Node127&#45;&gt;Node3 -->
<g id="edge160" class="edge">
<title>Node127&#45;&gt;Node3</title>
<path fill="none" stroke="#63b8ff" d="M2452.29,-197.56C2438.08,-181.72 2406.12,-148.85 2372.03,-132 2243.41,-68.47 1794.57,-29.77 1654.86,-19.06"/>
<polygon fill="#63b8ff" stroke="#63b8ff" points="1655.2,-15.57 1644.96,-18.3 1654.67,-22.55 1655.2,-15.57"/>
</g>
<!-- Node127&#45;&gt;Node5 -->
<g id="edge162" class="edge">
<title>Node127&#45;&gt;Node5</title>
<path fill="none" stroke="#63b8ff" d="M2414.23,-204.91C2364.83,-203.2 2283.85,-200.4 2214.03,-198 1671.63,-179.34 1015.88,-156.94 815.26,-150.09"/>
<polygon fill="#63b8ff" stroke="#63b8ff" points="815.44,-146.59 805.33,-149.75 815.2,-153.59 815.44,-146.59"/>
</g>
<!-- Node127&#45;&gt;Node54 -->
<g id="edge161" class="edge">
<title>Node127&#45;&gt;Node54</title>
<path fill="none" stroke="#63b8ff" d="M2436.03,-197.62C2409.58,-187.82 2366.8,-171.98 2336.71,-160.84"/>
<polygon fill="#63b8ff" stroke="#63b8ff" points="2338.26,-157.68 2327.67,-157.49 2335.83,-164.25 2338.26,-157.68"/>
</g>
<!-- Node141&#45;&gt;Node129 -->
<g id="edge167" class="edge">
<title>Node141&#45;&gt;Node129</title>
<path fill="none" stroke="#63b8ff" d="M3138.15,-857.8C3132.19,-850.01 3124.65,-840.16 3117.85,-831.28"/>
<polygon fill="#63b8ff" stroke="#63b8ff" points="3120.65,-829.18 3111.79,-823.37 3115.09,-833.43 3120.65,-829.18"/>
</g>
<!-- Node145&#45;&gt;Node72 -->
<g id="edge169" class="edge">
<title>Node145&#45;&gt;Node72</title>
<path fill="none" stroke="#63b8ff" d="M1796.68,-863.3C1716.13,-851.69 1573.55,-831.14 1486.73,-818.62"/>
<polygon fill="#63b8ff" stroke="#63b8ff" points="1487.28,-815.17 1476.88,-817.2 1486.28,-822.1 1487.28,-815.17"/>
</g>
<!-- Node145&#45;&gt;Node128 -->
<g id="edge170" class="edge">
<title>Node145&#45;&gt;Node128</title>
<path fill="none" stroke="#63b8ff" d="M1862.13,-857.8C1864.75,-850.5 1868.02,-841.41 1871.05,-832.99"/>
<polygon fill="#63b8ff" stroke="#63b8ff" points="1874.33,-834.18 1874.42,-823.59 1867.75,-831.82 1874.33,-834.18"/>
</g>
<!-- Node146&#45;&gt;Node5 -->
<g id="edge173" class="edge">
<title>Node146&#45;&gt;Node5</title>
<path fill="none" stroke="#63b8ff" d="M738.86,-615.57C639.47,-578.93 386.93,-479.83 344.03,-404 298.81,-324.07 266.99,-266.61 328.03,-198 351.84,-171.23 580.57,-156.45 692.69,-150.77"/>
<polygon fill="#63b8ff" stroke="#63b8ff" points="692.81,-154.26 702.63,-150.27 692.46,-147.27 692.81,-154.26"/>
</g>
<!-- Node146&#45;&gt;Node98 -->
<g id="edge174" class="edge">
<title>Node146&#45;&gt;Node98</title>
<path fill="none" stroke="#63b8ff" d="M787.43,-615.54C791.91,-607.82 797.48,-598.24 802.28,-589.99"/>
<polygon fill="#63b8ff" stroke="#63b8ff" points="805.22,-591.89 807.22,-581.48 799.17,-588.37 805.22,-591.89"/>
</g>
<!-- Node146&#45;&gt;Node125 -->
<g id="edge175" class="edge">
<title>Node146&#45;&gt;Node125</title>
<path fill="none" stroke="#63b8ff" d="M838.38,-621.56C853.57,-619.56 869.88,-617.56 885.03,-616 1098.71,-593.93 1153.08,-599.39 1367.03,-580 1883.73,-533.18 2039.96,-598.28 2521.03,-404 2671.07,-343.4 2823.74,-219.89 2882.19,-169.82"/>
<polygon fill="#63b8ff" stroke="#63b8ff" points="2884.32,-172.6 2889.6,-163.42 2879.74,-167.3 2884.32,-172.6"/>
</g>
<!-- Node163&#45;&gt;Node2 -->
<g id="edge177" class="edge">
<title>Node163&#45;&gt;Node2</title>
<path fill="none" stroke="#63b8ff" d="M1052.47,-623.52C1322.09,-600.67 2199.68,-518.96 2456.03,-404 2564.42,-355.39 2600.96,-326.51 2647.03,-217 2673.4,-154.3 2701.37,-127.37 2672.03,-66 2664.89,-51.09 2650.91,-39.2 2638.02,-30.77"/>
<polygon fill="#63b8ff" stroke="#63b8ff" points="2640.17,-27.98 2629.8,-25.78 2636.54,-33.96 2640.17,-27.98"/>
</g>
<!-- Node163&#45;&gt;Node3 -->
<g id="edge178" class="edge">
<title>Node163&#45;&gt;Node3</title>
<path fill="none" stroke="#63b8ff" d="M967.6,-615.79C948.58,-563.43 889.64,-377.79 959.03,-253 1035.56,-115.35 1111.99,-119.75 1260.03,-66 1367.6,-26.94 1503.93,-18.22 1571.35,-16.39"/>
<polygon fill="#63b8ff" stroke="#63b8ff" points="1571.3,-19.89 1581.22,-16.16 1571.14,-12.89 1571.3,-19.89"/>
</g>
<!-- Node163&#45;&gt;Node5 -->
<g id="edge179" class="edge">
<title>Node163&#45;&gt;Node5</title>
<path fill="none" stroke="#63b8ff" d="M893.77,-619.45C757.96,-596.49 485.44,-527.81 382.03,-338 353.55,-285.74 409.48,-221 442.03,-198 462.16,-183.77 607.82,-164.88 692.82,-154.88"/>
<polygon fill="#63b8ff" stroke="#63b8ff" points="693.11,-158.37 702.63,-153.74 692.29,-151.42 693.11,-158.37"/>
</g>
<!-- Node163&#45;&gt;Node98 -->
<g id="edge180" class="edge">
<title>Node163&#45;&gt;Node98</title>
<path fill="none" stroke="#63b8ff" d="M933.47,-615.54C907.2,-605.93 873.01,-593.43 847.78,-584.21"/>
<polygon fill="#63b8ff" stroke="#63b8ff" points="849.24,-581.01 838.64,-580.87 846.83,-587.59 849.24,-581.01"/>
</g>
<!-- Node164&#45;&gt;Node2 -->
<g id="edge182" class="edge">
<title>Node164&#45;&gt;Node2</title>
<path fill="none" stroke="#63b8ff" d="M2439.67,-65.56C2481.53,-53.38 2540.26,-36.29 2576.69,-25.7"/>
<polygon fill="#63b8ff" stroke="#63b8ff" points="2577.61,-29.08 2586.23,-22.92 2575.65,-22.35 2577.61,-29.08"/>
</g>
<!-- Node164&#45;&gt;Node3 -->
<g id="edge183" class="edge">
<title>Node164&#45;&gt;Node3</title>
<path fill="none" stroke="#63b8ff" d="M2312.28,-67.73C2307.46,-67.11 2302.68,-66.52 2298.03,-66 2055.04,-38.69 1761.8,-23.05 1654.73,-17.91"/>
<polygon fill="#63b8ff" stroke="#63b8ff" points="1655.15,-14.42 1645,-17.44 1654.82,-21.42 1655.15,-14.42"/>
</g>
</g>
</svg>
        <g id="navigator" transform="translate(0 0)" fill="#404254">
                <rect fill="#f2f5e9" fill-opacity="0.5" stroke="#606060" stroke-width=".5" x="0" y="0" width="60" height="60"/>
                <use id="zoomplus" xlink:href="#zoomPlus" x="17" y="9" onmousedown="handleZoom(evt,'in')"/>
                <use id="zoomminus" xlink:href="#zoomMin" x="42" y="9" onmousedown="handleZoom(evt,'out')"/>
                <use id="reset" xlink:href="#resetDef" x="30" y="36" onmousedown="handleReset()"/>
                <g id="arrowUp" xlink:href="#dirArrow" transform="translate(30 24)" onmousedown="handlePan(0,-1)">
                  <use xlink:href="#rim" fill="#404040">
                        <set attributeName="fill" to="#808080" begin="arrowUp.mouseover" end="arrowUp.mouseout"/>
                  </use>
                  <path fill="none" stroke="white" stroke-width="1.5" d="M0,-3.0v7 M-2.5,-0.5L0,-3.0L2.5,-0.5"/>
                </g>
                <g id="arrowRight" xlink:href="#dirArrow" transform="rotate(90) translate(36 -43)" onmousedown="handlePan(1,0)">
                  <use xlink:href="#rim" fill="#404040">
                        <set attributeName="fill" to="#808080" begin="arrowRight.mouseover" end="arrowRight.mouseout"/>
                  </use>
                  <path fill="none" stroke="white" stroke-width="1.5" d="M0,-3.0v7 M-2.5,-0.5L0,-3.0L2.5,-0.5"/>
                </g>
                <g id="arrowDown" xlink:href="#dirArrow" transform="rotate(180) translate(-30 -48)" onmousedown="handlePan(0,1)">
                  <use xlink:href="#rim" fill="#404040">
                        <set attributeName="fill" to="#808080" begin="arrowDown.mouseover" end="arrowDown.mouseout"/>
                  </use>
                  <path fill="none" stroke="white" stroke-width="1.5" d="M0,-3.0v7 M-2.5,-0.5L0,-3.0L2.5,-0.5"/>
                </g>
                <g id="arrowLeft" xlink:href="#dirArrow" transform="rotate(270) translate(-36 17)" onmousedown="handlePan(-1,0)">
                  <use xlink:href="#rim" fill="#404040">
                        <set attributeName="fill" to="#808080" begin="arrowLeft.mouseover" end="arrowLeft.mouseout"/>
                  </use>
                  <path fill="none" stroke="white" stroke-width="1.5" d="M0,-3.0v7 M-2.5,-0.5L0,-3.0L2.5,-0.5"/>
                </g>
        </g>
        <svg viewBox="0 0 15 15" width="100%" height="30px" preserveAspectRatio="xMaxYMin meet">
         <g id="arrow_out" transform="scale(0.3 0.3)">
          <a xlink:href="calculate__signed__distance__to__3d__skin__process_8h__incl_org.svg" target="_base">
           <rect id="button" ry="5" rx="5" y="6" x="6" height="38" width="38"
                fill="#f2f5e9" fill-opacity="0.5" stroke="#606060" stroke-width="1.0"/>
           <path id="arrow"
             d="M 11.500037,31.436501 C 11.940474,20.09759 22.043105,11.32322 32.158766,21.979434 L 37.068811,17.246167 C 37.068811,17.246167 37.088388,32 37.088388,32 L 22.160133,31.978069 C 22.160133,31.978069 26.997745,27.140456 26.997745,27.140456 C 18.528582,18.264221 13.291696,25.230495 11.500037,31.436501 z"
             style="fill:#404040;"/>
          </a>
         </g>
        </svg>
</svg>
