<?xml version="1.0" encoding="UTF-8" standalone="no"?>
<!DOCTYPE svg PUBLIC "-//W3C//DTD SVG 1.1//EN"
 "http://www.w3.org/Graphics/SVG/1.1/DTD/svg11.dtd">
<!-- Generated by graphviz version 2.43.0 (0)
 -->
<!-- Title: /home/runner/work/Documentation/Documentation/master/kratos/linear_solvers/deflated_cg_solver.h Pages: 1 -->
<svg width="3256pt" height="1179pt"
 viewBox="0.00 0.00 3256.00 1179.00" xmlns="http://www.w3.org/2000/svg" xmlns:xlink="http://www.w3.org/1999/xlink">
<g id="graph0" class="graph" transform="scale(1 1) rotate(0) translate(4 1175)">
<title>/home/runner/work/Documentation/Documentation/master/kratos/linear_solvers/deflated_cg_solver.h</title>
<!-- Node1 -->
<g id="node1" class="node">
<title>Node1</title>
<g id="a_node1"><a xlink:title=" ">
<polygon fill="#bfbfbf" stroke="black" points="862.5,-1118.5 862.5,-1170.5 1049.5,-1170.5 1049.5,-1118.5 862.5,-1118.5"/>
<text text-anchor="start" x="870.5" y="-1158.5" font-family="Helvetica,sans-Serif" font-size="10.00">/home/runner/work/Documentation</text>
<text text-anchor="start" x="870.5" y="-1147.5" font-family="Helvetica,sans-Serif" font-size="10.00">/Documentation/master/kratos</text>
<text text-anchor="start" x="870.5" y="-1136.5" font-family="Helvetica,sans-Serif" font-size="10.00">/linear_solvers/deflated_cg</text>
<text text-anchor="middle" x="956" y="-1125.5" font-family="Helvetica,sans-Serif" font-size="10.00">_solver.h</text>
</a>
</g>
</g>
<!-- Node2 -->
<g id="node2" class="node">
<title>Node2</title>
<g id="a_node2"><a xlink:title=" ">
<polygon fill="none" stroke="#bfbfbf" points="396,-6 396,-25 440,-25 440,-6 396,-6"/>
<text text-anchor="middle" x="418" y="-13" font-family="Helvetica,sans-Serif" font-size="10.00">string</text>
</a>
</g>
</g>
<!-- Node1&#45;&gt;Node2 -->
<g id="edge1" class="edge">
<title>Node1&#45;&gt;Node2</title>
<path fill="none" stroke="midnightblue" d="M862.16,-1139.22C621.29,-1127 0,-1087.08 0,-1000.5 0,-1000.5 0,-1000.5 0,-143 0,-103.28 13.7,-88.64 47,-67 102.64,-30.85 305.47,-20.24 385.35,-17.43"/>
<polygon fill="midnightblue" stroke="midnightblue" points="385.9,-20.91 395.78,-17.08 385.67,-13.91 385.9,-20.91"/>
</g>
<!-- Node3 -->
<g id="node3" class="node">
<title>Node3</title>
<g id="a_node3"><a xlink:title=" ">
<polygon fill="none" stroke="#bfbfbf" points="2274,-6 2274,-25 2334,-25 2334,-6 2274,-6"/>
<text text-anchor="middle" x="2304" y="-13" font-family="Helvetica,sans-Serif" font-size="10.00">iostream</text>
</a>
</g>
</g>
<!-- Node1&#45;&gt;Node3 -->
<g id="edge2" class="edge">
<title>Node1&#45;&gt;Node3</title>
<path fill="none" stroke="midnightblue" d="M1049.63,-1142.54C1475.6,-1137.57 3210,-1110.57 3210,-1000.5 3210,-1000.5 3210,-1000.5 3210,-255 3210,-132.68 3126.71,-100.25 3009,-67 2882.65,-31.31 2474.95,-20 2344.53,-17.25"/>
<polygon fill="midnightblue" stroke="midnightblue" points="2344.27,-13.74 2334.2,-17.04 2344.12,-20.74 2344.27,-13.74"/>
</g>
<!-- Node4 -->
<g id="node4" class="node">
<title>Node4</title>
<g id="a_node4"><a xlink:title=" ">
<polygon fill="none" stroke="#bfbfbf" points="3059.5,-6 3059.5,-25 3106.5,-25 3106.5,-6 3059.5,-6"/>
<text text-anchor="middle" x="3083" y="-13" font-family="Helvetica,sans-Serif" font-size="10.00">vector</text>
</a>
</g>
</g>
<!-- Node1&#45;&gt;Node4 -->
<g id="edge3" class="edge">
<title>Node1&#45;&gt;Node4</title>
<path fill="none" stroke="midnightblue" d="M1049.79,-1143.31C1393.22,-1142.21 2581.61,-1134.59 2957,-1082 3090.01,-1063.37 3248,-1134.81 3248,-1000.5 3248,-1000.5 3248,-1000.5 3248,-143 3248,-77.29 3164.56,-41.06 3116.35,-25.62"/>
<polygon fill="midnightblue" stroke="midnightblue" points="3117.23,-22.23 3106.64,-22.64 3115.17,-28.92 3117.23,-22.23"/>
</g>
<!-- Node5 -->
<g id="node5" class="node">
<title>Node5</title>
<g id="a_node5"><a xlink:title=" ">
<polygon fill="none" stroke="#bfbfbf" points="1636,-246.5 1636,-265.5 1668,-265.5 1668,-246.5 1636,-246.5"/>
<text text-anchor="middle" x="1652" y="-253.5" font-family="Helvetica,sans-Serif" font-size="10.00">set</text>
</a>
</g>
</g>
<!-- Node1&#45;&gt;Node5 -->
<g id="edge4" class="edge">
<title>Node1&#45;&gt;Node5</title>
<path fill="none" stroke="midnightblue" d="M881.38,-1118.41C819.78,-1092.77 745.55,-1047.66 766,-984 777.2,-949.12 786.35,-941.03 814,-917 833.78,-899.81 1232,-724.7 1232,-698.5 1232,-698.5 1232,-698.5 1232,-573.5 1232,-375.24 1534.2,-285.6 1625.92,-262.96"/>
<polygon fill="midnightblue" stroke="midnightblue" points="1626.89,-266.32 1635.79,-260.58 1625.25,-259.52 1626.89,-266.32"/>
</g>
<!-- Node6 -->
<g id="node6" class="node">
<title>Node6</title>
<g id="a_node6"><a xlink:href="../../df/d67/define_8h.html" target="_top" xlink:title=" ">
<polygon fill="none" stroke="black" points="1292.5,-190.5 1292.5,-209.5 1391.5,-209.5 1391.5,-190.5 1292.5,-190.5"/>
<text text-anchor="middle" x="1342" y="-197.5" font-family="Helvetica,sans-Serif" font-size="10.00">includes/define.h</text>
</a>
</g>
</g>
<!-- Node1&#45;&gt;Node6 -->
<g id="edge5" class="edge">
<title>Node1&#45;&gt;Node6</title>
<path fill="none" stroke="midnightblue" d="M970.01,-1118.37C975.63,-1107.45 981.76,-1094.36 986,-1082 1044.94,-910.17 1023.18,-857.52 1070,-682 1093.2,-595.05 1101.72,-573.45 1140,-492 1168.32,-431.74 1176.42,-417.15 1207,-358 1232.84,-308.02 1227.22,-286.76 1266,-246 1278.87,-232.48 1296.68,-221.64 1311.83,-213.99"/>
<polygon fill="midnightblue" stroke="midnightblue" points="1313.36,-217.14 1320.85,-209.65 1310.32,-210.83 1313.36,-217.14"/>
</g>
<!-- Node17 -->
<g id="node17" class="node">
<title>Node17</title>
<g id="a_node17"><a xlink:href="../../da/df8/iterative__solver_8h.html" target="_top" xlink:title=" ">
<polygon fill="none" stroke="black" points="451.5,-984.5 451.5,-1014.5 580.5,-1014.5 580.5,-984.5 451.5,-984.5"/>
<text text-anchor="start" x="459.5" y="-1002.5" font-family="Helvetica,sans-Serif" font-size="10.00">linear_solvers/iterative</text>
<text text-anchor="middle" x="516" y="-991.5" font-family="Helvetica,sans-Serif" font-size="10.00">_solver.h</text>
</a>
</g>
</g>
<!-- Node1&#45;&gt;Node17 -->
<g id="edge28" class="edge">
<title>Node1&#45;&gt;Node17</title>
<path fill="none" stroke="midnightblue" d="M862.4,-1119.7C822.31,-1108.99 775.11,-1095.68 733,-1082 672.33,-1062.29 603.6,-1035.74 560.05,-1018.38"/>
<polygon fill="midnightblue" stroke="midnightblue" points="561.2,-1015.07 550.61,-1014.6 558.6,-1021.57 561.2,-1015.07"/>
</g>
<!-- Node124 -->
<g id="node46" class="node">
<title>Node124</title>
<g id="a_node46"><a xlink:href="../../df/de4/skyline__lu__factorization__solver_8h.html" target="_top" xlink:title=" ">
<polygon fill="none" stroke="black" points="836.5,-1051.5 836.5,-1081.5 977.5,-1081.5 977.5,-1051.5 836.5,-1051.5"/>
<text text-anchor="start" x="844.5" y="-1069.5" font-family="Helvetica,sans-Serif" font-size="10.00">linear_solvers/skyline</text>
<text text-anchor="middle" x="907" y="-1058.5" font-family="Helvetica,sans-Serif" font-size="10.00">_lu_factorization_solver.h</text>
</a>
</g>
</g>
<!-- Node1&#45;&gt;Node124 -->
<g id="edge169" class="edge">
<title>Node1&#45;&gt;Node124</title>
<path fill="none" stroke="midnightblue" d="M939.68,-1118.19C933.9,-1109.22 927.42,-1099.18 921.78,-1090.42"/>
<polygon fill="midnightblue" stroke="midnightblue" points="924.61,-1088.35 916.25,-1081.85 918.73,-1092.15 924.61,-1088.35"/>
</g>
<!-- Node126 -->
<g id="node48" class="node">
<title>Node126</title>
<g id="a_node48"><a xlink:href="../../d7/de3/deflation__utils_8h.html" target="_top" xlink:title=" ">
<polygon fill="none" stroke="black" points="1083.5,-917.5 1083.5,-947.5 1182.5,-947.5 1182.5,-917.5 1083.5,-917.5"/>
<text text-anchor="start" x="1091.5" y="-935.5" font-family="Helvetica,sans-Serif" font-size="10.00">utilities/deflation</text>
<text text-anchor="middle" x="1133" y="-924.5" font-family="Helvetica,sans-Serif" font-size="10.00">_utils.h</text>
</a>
</g>
</g>
<!-- Node1&#45;&gt;Node126 -->
<g id="edge176" class="edge">
<title>Node1&#45;&gt;Node126</title>
<path fill="none" stroke="midnightblue" d="M984.02,-1118.36C995.56,-1107.55 1008.83,-1094.54 1020,-1082 1057.7,-1039.7 1096.63,-985.88 1117.52,-956.03"/>
<polygon fill="midnightblue" stroke="midnightblue" points="1120.56,-957.78 1123.4,-947.57 1114.81,-953.78 1120.56,-957.78"/>
</g>
<!-- Node7 -->
<g id="node7" class="node">
<title>Node7</title>
<g id="a_node7"><a xlink:title=" ">
<polygon fill="none" stroke="#bfbfbf" points="1950.5,-73 1950.5,-92 2015.5,-92 2015.5,-73 1950.5,-73"/>
<text text-anchor="middle" x="1983" y="-80" font-family="Helvetica,sans-Serif" font-size="10.00">stdexcept</text>
</a>
</g>
</g>
<!-- Node6&#45;&gt;Node7 -->
<g id="edge6" class="edge">
<title>Node6&#45;&gt;Node7</title>
<path fill="none" stroke="midnightblue" d="M1389.39,-190.46C1509.61,-168.8 1824.99,-111.97 1940.13,-91.22"/>
<polygon fill="midnightblue" stroke="midnightblue" points="1941.1,-94.61 1950.32,-89.39 1939.86,-87.72 1941.1,-94.61"/>
</g>
<!-- Node8 -->
<g id="node8" class="node">
<title>Node8</title>
<g id="a_node8"><a xlink:title=" ">
<polygon fill="none" stroke="#bfbfbf" points="2523,-73 2523,-92 2579,-92 2579,-73 2523,-73"/>
<text text-anchor="middle" x="2551" y="-80" font-family="Helvetica,sans-Serif" font-size="10.00">sstream</text>
</a>
</g>
</g>
<!-- Node6&#45;&gt;Node8 -->
<g id="edge7" class="edge">
<title>Node6&#45;&gt;Node8</title>
<path fill="none" stroke="midnightblue" d="M1391.82,-197.85C1514.78,-194.64 1842.41,-183.74 2114,-154 2262.29,-137.76 2436.96,-105.61 2512.74,-91.02"/>
<polygon fill="midnightblue" stroke="midnightblue" points="2513.61,-94.42 2522.76,-89.08 2512.28,-87.54 2513.61,-94.42"/>
</g>
<!-- Node9 -->
<g id="node9" class="node">
<title>Node9</title>
<g id="a_node9"><a xlink:href="../../dc/d25/kratos__export__api_8h.html" target="_top" xlink:title=" ">
<polygon fill="none" stroke="black" points="1085,-0.5 1085,-30.5 1213,-30.5 1213,-0.5 1085,-0.5"/>
<text text-anchor="start" x="1093" y="-18.5" font-family="Helvetica,sans-Serif" font-size="10.00">includes/kratos_export</text>
<text text-anchor="middle" x="1149" y="-7.5" font-family="Helvetica,sans-Serif" font-size="10.00">_api.h</text>
</a>
</g>
</g>
<!-- Node6&#45;&gt;Node9 -->
<g id="edge8" class="edge">
<title>Node6&#45;&gt;Node9</title>
<path fill="none" stroke="midnightblue" d="M1292.32,-196.51C1194.79,-191.13 985.77,-177.03 963,-154 935.75,-126.44 933.33,-97.69 957,-67 971.64,-48.01 1027.06,-34.75 1074.62,-26.6"/>
<polygon fill="midnightblue" stroke="midnightblue" points="1075.34,-30.03 1084.63,-24.93 1074.19,-23.12 1075.34,-30.03"/>
</g>
<!-- Node10 -->
<g id="node10" class="node">
<title>Node10</title>
<g id="a_node10"><a xlink:href="../../d9/dc0/smart__pointers_8h.html" target="_top" xlink:title=" ">
<polygon fill="none" stroke="black" points="972.5,-134.5 972.5,-153.5 1115.5,-153.5 1115.5,-134.5 972.5,-134.5"/>
<text text-anchor="middle" x="1044" y="-141.5" font-family="Helvetica,sans-Serif" font-size="10.00">includes/smart_pointers.h</text>
</a>
</g>
</g>
<!-- Node6&#45;&gt;Node10 -->
<g id="edge9" class="edge">
<title>Node6&#45;&gt;Node10</title>
<path fill="none" stroke="midnightblue" d="M1294.78,-190.44C1242.25,-180.92 1157.39,-165.55 1101.15,-155.36"/>
<polygon fill="midnightblue" stroke="midnightblue" points="1101.46,-151.86 1091,-153.52 1100.21,-158.74 1101.46,-151.86"/>
</g>
<!-- Node14 -->
<g id="node14" class="node">
<title>Node14</title>
<g id="a_node14"><a xlink:href="../../dd/d2d/exception_8h.html" target="_top" xlink:title=" ">
<polygon fill="none" stroke="black" points="1987.5,-134.5 1987.5,-153.5 2104.5,-153.5 2104.5,-134.5 1987.5,-134.5"/>
<text text-anchor="middle" x="2046" y="-141.5" font-family="Helvetica,sans-Serif" font-size="10.00">includes/exception.h</text>
</a>
</g>
</g>
<!-- Node6&#45;&gt;Node14 -->
<g id="edge14" class="edge">
<title>Node6&#45;&gt;Node14</title>
<path fill="none" stroke="midnightblue" d="M1391.57,-196.34C1498.11,-190.42 1756.84,-175.02 1973,-154 1974.47,-153.86 1975.96,-153.71 1977.45,-153.56"/>
<polygon fill="midnightblue" stroke="midnightblue" points="1977.89,-157.03 1987.46,-152.49 1977.14,-150.07 1977.89,-157.03"/>
</g>
<!-- Node10&#45;&gt;Node3 -->
<g id="edge10" class="edge">
<title>Node10&#45;&gt;Node3</title>
<path fill="none" stroke="midnightblue" d="M1111.64,-134.49C1175.17,-125.87 1265.21,-111.86 1298,-98 1319.7,-88.83 1318.78,-74.82 1341,-67 1428.92,-36.04 2092.71,-20.73 2263.85,-17.27"/>
<polygon fill="midnightblue" stroke="midnightblue" points="2264.01,-20.77 2273.94,-17.07 2263.87,-13.77 2264.01,-20.77"/>
</g>
<!-- Node11 -->
<g id="node11" class="node">
<title>Node11</title>
<g id="a_node11"><a xlink:title=" ">
<polygon fill="none" stroke="#bfbfbf" points="826.5,-73 826.5,-92 871.5,-92 871.5,-73 826.5,-73"/>
<text text-anchor="middle" x="849" y="-80" font-family="Helvetica,sans-Serif" font-size="10.00">utility</text>
</a>
</g>
</g>
<!-- Node10&#45;&gt;Node11 -->
<g id="edge11" class="edge">
<title>Node10&#45;&gt;Node11</title>
<path fill="none" stroke="midnightblue" d="M1016.06,-134.48C980.54,-123.64 919.32,-104.96 881.67,-93.47"/>
<polygon fill="midnightblue" stroke="midnightblue" points="882.31,-90 871.72,-90.43 880.27,-96.7 882.31,-90"/>
</g>
<!-- Node12 -->
<g id="node12" class="node">
<title>Node12</title>
<g id="a_node12"><a xlink:title=" ">
<polygon fill="none" stroke="#bfbfbf" points="966,-73 966,-92 1024,-92 1024,-73 966,-73"/>
<text text-anchor="middle" x="995" y="-80" font-family="Helvetica,sans-Serif" font-size="10.00">memory</text>
</a>
</g>
</g>
<!-- Node10&#45;&gt;Node12 -->
<g id="edge12" class="edge">
<title>Node10&#45;&gt;Node12</title>
<path fill="none" stroke="midnightblue" d="M1036.98,-134.48C1029.56,-125.46 1017.67,-111.02 1008.43,-99.81"/>
<polygon fill="midnightblue" stroke="midnightblue" points="1011.07,-97.5 1002.01,-92.01 1005.66,-101.95 1011.07,-97.5"/>
</g>
<!-- Node13 -->
<g id="node13" class="node">
<title>Node13</title>
<g id="a_node13"><a xlink:title=" ">
<polygon fill="none" stroke="#bfbfbf" points="1350,-67.5 1350,-97.5 1474,-97.5 1474,-67.5 1350,-67.5"/>
<text text-anchor="start" x="1358" y="-85.5" font-family="Helvetica,sans-Serif" font-size="10.00">intrusive_ptr/intrusive</text>
<text text-anchor="middle" x="1412" y="-74.5" font-family="Helvetica,sans-Serif" font-size="10.00">_ptr.hpp</text>
</a>
</g>
</g>
<!-- Node10&#45;&gt;Node13 -->
<g id="edge13" class="edge">
<title>Node10&#45;&gt;Node13</title>
<path fill="none" stroke="midnightblue" d="M1103.38,-134.48C1162.45,-125.86 1255.63,-111.86 1336,-98 1337.27,-97.78 1338.54,-97.56 1339.83,-97.33"/>
<polygon fill="midnightblue" stroke="midnightblue" points="1340.59,-100.75 1349.82,-95.55 1339.36,-93.86 1340.59,-100.75"/>
</g>
<!-- Node14&#45;&gt;Node2 -->
<g id="edge16" class="edge">
<title>Node14&#45;&gt;Node2</title>
<path fill="none" stroke="midnightblue" d="M1987.26,-142.43C1789.62,-140.22 1156.32,-130.62 1071,-98 1050.64,-90.22 1053.22,-75.15 1033,-67 925.66,-23.74 561.45,-17.53 450.41,-16.65"/>
<polygon fill="midnightblue" stroke="midnightblue" points="450.2,-13.14 440.17,-16.57 450.15,-20.14 450.2,-13.14"/>
</g>
<!-- Node14&#45;&gt;Node3 -->
<g id="edge17" class="edge">
<title>Node14&#45;&gt;Node3</title>
<path fill="none" stroke="midnightblue" d="M2051.74,-134.49C2062.84,-118.72 2088.8,-84.94 2119,-67 2164.46,-40 2224.71,-27.06 2263.91,-21.13"/>
<polygon fill="midnightblue" stroke="midnightblue" points="2264.48,-24.59 2273.89,-19.71 2263.49,-17.66 2264.48,-24.59"/>
</g>
<!-- Node14&#45;&gt;Node4 -->
<g id="edge19" class="edge">
<title>Node14&#45;&gt;Node4</title>
<path fill="none" stroke="midnightblue" d="M2091.68,-134.45C2175.23,-119.07 2358.41,-86.51 2514,-67 2716.39,-41.62 2960.84,-24.43 3049.14,-18.65"/>
<polygon fill="midnightblue" stroke="midnightblue" points="3049.6,-22.12 3059.36,-17.98 3049.15,-15.14 3049.6,-22.12"/>
</g>
<!-- Node14&#45;&gt;Node7 -->
<g id="edge15" class="edge">
<title>Node14&#45;&gt;Node7</title>
<path fill="none" stroke="midnightblue" d="M2036.97,-134.48C2027.24,-125.28 2011.54,-110.46 1999.58,-99.16"/>
<polygon fill="midnightblue" stroke="midnightblue" points="2001.68,-96.33 1992.01,-92.01 1996.88,-101.42 2001.68,-96.33"/>
</g>
<!-- Node14&#45;&gt;Node8 -->
<g id="edge18" class="edge">
<title>Node14&#45;&gt;Node8</title>
<path fill="none" stroke="midnightblue" d="M2104.92,-136.06C2209.68,-123.72 2425.54,-98.28 2512.97,-87.98"/>
<polygon fill="midnightblue" stroke="midnightblue" points="2513.46,-91.45 2522.98,-86.8 2512.64,-84.5 2513.46,-91.45"/>
</g>
<!-- Node14&#45;&gt;Node9 -->
<g id="edge20" class="edge">
<title>Node14&#45;&gt;Node9</title>
<path fill="none" stroke="midnightblue" d="M2046.55,-134.22C2047.04,-118.01 2045.45,-83.51 2025,-67 1963.37,-17.23 1423.55,-15 1223.32,-15.91"/>
<polygon fill="midnightblue" stroke="midnightblue" points="1223.17,-12.41 1213.19,-15.96 1223.2,-19.41 1223.17,-12.41"/>
</g>
<!-- Node15 -->
<g id="node15" class="node">
<title>Node15</title>
<g id="a_node15"><a xlink:href="../../da/da6/code__location_8h.html" target="_top" xlink:title=" ">
<polygon fill="none" stroke="black" points="1080.5,-73 1080.5,-92 1217.5,-92 1217.5,-73 1080.5,-73"/>
<text text-anchor="middle" x="1149" y="-80" font-family="Helvetica,sans-Serif" font-size="10.00">includes/code_location.h</text>
</a>
</g>
</g>
<!-- Node14&#45;&gt;Node15 -->
<g id="edge21" class="edge">
<title>Node14&#45;&gt;Node15</title>
<path fill="none" stroke="midnightblue" d="M1987.49,-139.5C1866.67,-132.21 1580.8,-114.71 1341,-98 1303.82,-95.41 1262.61,-92.33 1227.93,-89.67"/>
<polygon fill="midnightblue" stroke="midnightblue" points="1228.09,-86.17 1217.86,-88.89 1227.56,-93.15 1228.09,-86.17"/>
</g>
<!-- Node16 -->
<g id="node16" class="node">
<title>Node16</title>
<g id="a_node16"><a xlink:href="../../d9/d06/stl__vector__io_8h.html" target="_top" xlink:title=" ">
<polygon fill="none" stroke="black" points="2661,-73 2661,-92 2789,-92 2789,-73 2661,-73"/>
<text text-anchor="middle" x="2725" y="-80" font-family="Helvetica,sans-Serif" font-size="10.00">utilities/stl_vector_io.h</text>
</a>
</g>
</g>
<!-- Node14&#45;&gt;Node16 -->
<g id="edge25" class="edge">
<title>Node14&#45;&gt;Node16</title>
<path fill="none" stroke="midnightblue" d="M2104.59,-138.57C2204.04,-130.96 2412.21,-114.6 2588,-98 2608.37,-96.08 2630.42,-93.82 2650.76,-91.67"/>
<polygon fill="midnightblue" stroke="midnightblue" points="2651.34,-95.13 2660.91,-90.59 2650.59,-88.16 2651.34,-95.13"/>
</g>
<!-- Node15&#45;&gt;Node2 -->
<g id="edge22" class="edge">
<title>Node15&#45;&gt;Node2</title>
<path fill="none" stroke="midnightblue" d="M1104.75,-72.97C1092.26,-70.78 1078.63,-68.59 1066,-67 830.72,-37.35 545.05,-22.35 450.27,-17.93"/>
<polygon fill="midnightblue" stroke="midnightblue" points="450.33,-14.43 440.18,-17.46 450.01,-21.42 450.33,-14.43"/>
</g>
<!-- Node15&#45;&gt;Node3 -->
<g id="edge23" class="edge">
<title>Node15&#45;&gt;Node3</title>
<path fill="none" stroke="midnightblue" d="M1191.93,-72.94C1204.77,-70.67 1218.91,-68.45 1232,-67 1632.23,-22.79 2120.72,-17.23 2263.2,-16.58"/>
<polygon fill="midnightblue" stroke="midnightblue" points="2263.64,-20.07 2273.62,-16.53 2263.61,-13.07 2263.64,-20.07"/>
</g>
<!-- Node15&#45;&gt;Node9 -->
<g id="edge24" class="edge">
<title>Node15&#45;&gt;Node9</title>
<path fill="none" stroke="midnightblue" d="M1149,-72.73C1149,-64.54 1149,-51.92 1149,-40.71"/>
<polygon fill="midnightblue" stroke="midnightblue" points="1152.5,-40.59 1149,-30.59 1145.5,-40.59 1152.5,-40.59"/>
</g>
<!-- Node16&#45;&gt;Node3 -->
<g id="edge26" class="edge">
<title>Node16&#45;&gt;Node3</title>
<path fill="none" stroke="midnightblue" d="M2680.5,-72.93C2669.56,-70.9 2657.87,-68.81 2647,-67 2537.89,-48.83 2408.68,-30.73 2344.45,-21.95"/>
<polygon fill="midnightblue" stroke="midnightblue" points="2344.72,-18.46 2334.34,-20.58 2343.78,-25.39 2344.72,-18.46"/>
</g>
<!-- Node16&#45;&gt;Node4 -->
<g id="edge27" class="edge">
<title>Node16&#45;&gt;Node4</title>
<path fill="none" stroke="midnightblue" d="M2772.17,-72.94C2845.55,-59.61 2985.26,-34.25 3049.35,-22.61"/>
<polygon fill="midnightblue" stroke="midnightblue" points="3050.11,-26.03 3059.32,-20.8 3048.86,-19.14 3050.11,-26.03"/>
</g>
<!-- Node17&#45;&gt;Node2 -->
<g id="edge29" class="edge">
<title>Node17&#45;&gt;Node2</title>
<path fill="none" stroke="midnightblue" d="M451.04,-994.88C320.34,-985.81 38,-956.45 38,-872 38,-872 38,-872 38,-143 38,-103.28 51.86,-88.89 85,-67 134.18,-34.52 312.39,-21.88 385.93,-17.97"/>
<polygon fill="midnightblue" stroke="midnightblue" points="386.18,-21.46 395.99,-17.46 385.82,-14.47 386.18,-21.46"/>
</g>
<!-- Node17&#45;&gt;Node3 -->
<g id="edge30" class="edge">
<title>Node17&#45;&gt;Node3</title>
<path fill="none" stroke="midnightblue" d="M451.43,-998.62C362.98,-995 215,-973.75 215,-872 215,-872 215,-872 215,-573.5 215,-349.79 335.6,-278.63 541,-190 627.33,-152.75 652.35,-150.02 745,-134 850.84,-115.7 1128.68,-141.24 1227,-98 1245.42,-89.9 1241.48,-74.86 1260,-67 1353.56,-27.3 2082.94,-18.41 2263.62,-16.81"/>
<polygon fill="midnightblue" stroke="midnightblue" points="2263.78,-20.31 2273.75,-16.72 2263.72,-13.31 2263.78,-20.31"/>
</g>
<!-- Node17&#45;&gt;Node6 -->
<g id="edge31" class="edge">
<title>Node17&#45;&gt;Node6</title>
<path fill="none" stroke="midnightblue" d="M473.65,-984.48C455.56,-976.47 435.72,-964.64 423,-948 401.91,-920.43 405,-906.71 405,-872 405,-872 405,-872 405,-696.5 405,-606.38 481,-598.62 481,-508.5 481,-508.5 481,-508.5 481,-372.5 481,-210.75 680.94,-331.12 829,-266 845.05,-258.94 846.32,-251.39 863,-246 939.41,-221.29 1171.3,-208.31 1281.98,-203.38"/>
<polygon fill="midnightblue" stroke="midnightblue" points="1282.46,-206.87 1292.3,-202.93 1282.15,-199.87 1282.46,-206.87"/>
</g>
<!-- Node18 -->
<g id="node18" class="node">
<title>Node18</title>
<g id="a_node18"><a xlink:href="../../db/d71/kratos__parameters_8h.html" target="_top" xlink:title=" ">
<polygon fill="none" stroke="black" points="2511.5,-688 2511.5,-707 2672.5,-707 2672.5,-688 2511.5,-688"/>
<text text-anchor="middle" x="2592" y="-695" font-family="Helvetica,sans-Serif" font-size="10.00">includes/kratos_parameters.h</text>
</a>
</g>
</g>
<!-- Node17&#45;&gt;Node18 -->
<g id="edge32" class="edge">
<title>Node17&#45;&gt;Node18</title>
<path fill="none" stroke="midnightblue" d="M580.74,-994.63C631.21,-991.64 703.05,-987.44 766,-984 886.98,-977.38 2944,-993.16 2944,-872 2944,-872 2944,-872 2944,-814 2944,-757.12 2775.99,-723.71 2672.12,-708.48"/>
<polygon fill="midnightblue" stroke="midnightblue" points="2672.36,-704.98 2661.96,-707.02 2671.36,-711.91 2672.36,-704.98"/>
</g>
<!-- Node58 -->
<g id="node24" class="node">
<title>Node58</title>
<g id="a_node24"><a xlink:href="../../d2/d9f/linear__solver_8h.html" target="_top" xlink:title=" ">
<polygon fill="none" stroke="black" points="617,-917.5 617,-947.5 733,-947.5 733,-917.5 617,-917.5"/>
<text text-anchor="start" x="625" y="-935.5" font-family="Helvetica,sans-Serif" font-size="10.00">linear_solvers/linear</text>
<text text-anchor="middle" x="675" y="-924.5" font-family="Helvetica,sans-Serif" font-size="10.00">_solver.h</text>
</a>
</g>
</g>
<!-- Node17&#45;&gt;Node58 -->
<g id="edge50" class="edge">
<title>Node17&#45;&gt;Node58</title>
<path fill="none" stroke="midnightblue" d="M550.5,-984.4C574.15,-974.73 605.72,-961.82 631.15,-951.43"/>
<polygon fill="midnightblue" stroke="midnightblue" points="632.63,-954.6 640.57,-947.58 629.99,-948.12 632.63,-954.6"/>
</g>
<!-- Node123 -->
<g id="node45" class="node">
<title>Node123</title>
<g id="a_node45"><a xlink:href="../../d0/dd3/preconditioner_8h.html" target="_top" xlink:title=" ">
<polygon fill="none" stroke="black" points="432.5,-923 432.5,-942 599.5,-942 599.5,-923 432.5,-923"/>
<text text-anchor="middle" x="516" y="-930" font-family="Helvetica,sans-Serif" font-size="10.00">linear_solvers/preconditioner.h</text>
</a>
</g>
</g>
<!-- Node17&#45;&gt;Node123 -->
<g id="edge164" class="edge">
<title>Node17&#45;&gt;Node123</title>
<path fill="none" stroke="midnightblue" d="M516,-984.4C516,-975.06 516,-962.71 516,-952.52"/>
<polygon fill="midnightblue" stroke="midnightblue" points="519.5,-952.19 516,-942.19 512.5,-952.19 519.5,-952.19"/>
</g>
<!-- Node19 -->
<g id="node19" class="node">
<title>Node19</title>
<g id="a_node19"><a xlink:title=" ">
<polygon fill="none" stroke="#bfbfbf" points="2662,-626.5 2662,-645.5 2730,-645.5 2730,-626.5 2662,-626.5"/>
<text text-anchor="middle" x="2696" y="-633.5" font-family="Helvetica,sans-Serif" font-size="10.00">filesystem</text>
</a>
</g>
</g>
<!-- Node18&#45;&gt;Node19 -->
<g id="edge33" class="edge">
<title>Node18&#45;&gt;Node19</title>
<path fill="none" stroke="midnightblue" d="M2606.9,-687.98C2623.97,-678.21 2652.16,-662.08 2672.26,-650.58"/>
<polygon fill="midnightblue" stroke="midnightblue" points="2674.19,-653.51 2681.13,-645.51 2670.71,-647.44 2674.19,-653.51"/>
</g>
<!-- Node20 -->
<g id="node20" class="node">
<title>Node20</title>
<g id="a_node20"><a xlink:title=" ">
<polygon fill="none" stroke="#bfbfbf" points="2540,-626.5 2540,-645.5 2644,-645.5 2644,-626.5 2540,-626.5"/>
<text text-anchor="middle" x="2592" y="-633.5" font-family="Helvetica,sans-Serif" font-size="10.00">json/json_fwd.hpp</text>
</a>
</g>
</g>
<!-- Node18&#45;&gt;Node20 -->
<g id="edge34" class="edge">
<title>Node18&#45;&gt;Node20</title>
<path fill="none" stroke="midnightblue" d="M2592,-687.98C2592,-679.58 2592,-666.48 2592,-655.66"/>
<polygon fill="midnightblue" stroke="midnightblue" points="2595.5,-655.51 2592,-645.51 2588.5,-655.51 2595.5,-655.51"/>
</g>
<!-- Node21 -->
<g id="node21" class="node">
<title>Node21</title>
<g id="a_node21"><a xlink:href="../../dd/d5f/serializer_8h.html" target="_top" xlink:title=" ">
<polygon fill="none" stroke="red" points="1824.5,-302.5 1824.5,-321.5 1937.5,-321.5 1937.5,-302.5 1824.5,-302.5"/>
<text text-anchor="middle" x="1881" y="-309.5" font-family="Helvetica,sans-Serif" font-size="10.00">includes/serializer.h</text>
</a>
</g>
</g>
<!-- Node18&#45;&gt;Node21 -->
<g id="edge35" class="edge">
<title>Node18&#45;&gt;Node21</title>
<path fill="none" stroke="midnightblue" d="M2574.39,-687.92C2502.48,-652.75 2224.34,-515.48 2003,-389 1967.07,-368.47 1926.5,-342.65 1902.38,-327.01"/>
<polygon fill="midnightblue" stroke="midnightblue" points="1904.27,-324.06 1893.98,-321.54 1900.45,-329.93 1904.27,-324.06"/>
</g>
<!-- Node28 -->
<g id="node22" class="node">
<title>Node28</title>
<g id="a_node22"><a xlink:href="../../d9/d3e/ublas__interface_8h.html" target="_top" xlink:title=" ">
<polygon fill="none" stroke="red" points="1914,-246.5 1914,-265.5 2058,-265.5 2058,-246.5 1914,-246.5"/>
<text text-anchor="middle" x="1986" y="-253.5" font-family="Helvetica,sans-Serif" font-size="10.00">includes/ublas_interface.h</text>
</a>
</g>
</g>
<!-- Node18&#45;&gt;Node28 -->
<g id="edge49" class="edge">
<title>Node18&#45;&gt;Node28</title>
<path fill="none" stroke="midnightblue" d="M2574.96,-687.96C2560.26,-679.54 2540.01,-665.16 2531,-646 2527.22,-637.96 2529.63,-634.78 2531,-626 2538.42,-578.51 2556.58,-570.49 2564,-523 2566.13,-509.39 2566.27,-505.59 2564,-492 2553.35,-428.16 2556.81,-399.32 2507,-358 2472.79,-329.62 2358.47,-311.26 2315,-302 2231.74,-284.26 2135.06,-272.02 2068.15,-264.83"/>
<polygon fill="midnightblue" stroke="midnightblue" points="2068.4,-261.33 2058.09,-263.76 2067.66,-268.3 2068.4,-261.33"/>
</g>
<!-- Node21&#45;&gt;Node2 -->
<g id="edge36" class="edge">
<title>Node21&#45;&gt;Node2</title>
<path fill="none" stroke="midnightblue" d="M1824.18,-310.59C1599.61,-308.71 784.05,-299.62 741,-266 717.28,-247.48 722,-231.1 722,-201 722,-201 722,-201 722,-143 722,-107.58 724.59,-90.4 698,-67 661.56,-34.93 516.01,-22.34 450.38,-18.22"/>
<polygon fill="midnightblue" stroke="midnightblue" points="450.39,-14.71 440.2,-17.61 449.97,-21.7 450.39,-14.71"/>
</g>
<!-- Node21&#45;&gt;Node3 -->
<g id="edge37" class="edge">
<title>Node21&#45;&gt;Node3</title>
<path fill="none" stroke="midnightblue" d="M1934.53,-302.49C2021.8,-287.5 2188.96,-253.79 2228,-210 2272.16,-160.46 2243.01,-127.17 2271,-67 2276.49,-55.2 2284.43,-42.95 2291.14,-33.48"/>
<polygon fill="midnightblue" stroke="midnightblue" points="2294.01,-35.48 2297.08,-25.34 2288.36,-31.35 2294.01,-35.48"/>
</g>
<!-- Node21&#45;&gt;Node5 -->
<g id="edge38" class="edge">
<title>Node21&#45;&gt;Node5</title>
<path fill="none" stroke="midnightblue" d="M1844.71,-302.44C1798.19,-291.47 1718.67,-272.72 1677.85,-263.1"/>
<polygon fill="midnightblue" stroke="midnightblue" points="1678.65,-259.69 1668.11,-260.8 1677.04,-266.5 1678.65,-259.69"/>
</g>
<!-- Node21&#45;&gt;Node6 -->
<g id="edge40" class="edge">
<title>Node21&#45;&gt;Node6</title>
<path fill="none" stroke="midnightblue" d="M1867.29,-302.27C1843.87,-287.84 1794.19,-259.27 1748,-246 1601.1,-203.8 1557.7,-228.64 1406,-210 1404.54,-209.82 1403.06,-209.64 1401.57,-209.45"/>
<polygon fill="midnightblue" stroke="midnightblue" points="1401.96,-205.97 1391.59,-208.15 1401.06,-212.91 1401.96,-205.97"/>
</g>
<!-- Node21&#45;&gt;Node8 -->
<g id="edge39" class="edge">
<title>Node21&#45;&gt;Node8</title>
<path fill="none" stroke="midnightblue" d="M1937.76,-309.53C2005.17,-306.39 2120.27,-296.58 2214,-266 2342.92,-223.94 2480.17,-133.18 2530.77,-97.92"/>
<polygon fill="midnightblue" stroke="midnightblue" points="2533.02,-100.62 2539.19,-92 2528.99,-94.89 2533.02,-100.62"/>
</g>
<!-- Node21&#45;&gt;Node28 -->
<g id="edge41" class="edge">
<title>Node21&#45;&gt;Node28</title>
<path fill="none" stroke="midnightblue" d="M1897.87,-302.32C1914.71,-293.66 1940.81,-280.24 1960.24,-270.25"/>
<polygon fill="midnightblue" stroke="midnightblue" points="1961.88,-273.34 1969.17,-265.65 1958.68,-267.12 1961.88,-273.34"/>
</g>
<!-- Node54 -->
<g id="node23" class="node">
<title>Node54</title>
<g id="a_node23"><a xlink:href="../../d1/d8c/logger_8h.html" target="_top" xlink:title=" ">
<polygon fill="none" stroke="red" points="2099,-190.5 2099,-209.5 2219,-209.5 2219,-190.5 2099,-190.5"/>
<text text-anchor="middle" x="2159" y="-197.5" font-family="Helvetica,sans-Serif" font-size="10.00">input_output/logger.h</text>
</a>
</g>
</g>
<!-- Node21&#45;&gt;Node54 -->
<g id="edge45" class="edge">
<title>Node21&#45;&gt;Node54</title>
<path fill="none" stroke="midnightblue" d="M1937.76,-302.99C1975.57,-296.3 2025.71,-284.75 2067,-266 2095.46,-253.08 2124.25,-230.95 2141.86,-216.15"/>
<polygon fill="midnightblue" stroke="midnightblue" points="2144.24,-218.72 2149.55,-209.55 2139.69,-213.4 2144.24,-218.72"/>
</g>
<!-- Node28&#45;&gt;Node2 -->
<g id="edge42" class="edge">
<title>Node28&#45;&gt;Node2</title>
<path fill="none" stroke="midnightblue" d="M1916.29,-246.48C1806.72,-233.27 1587.44,-207.52 1401,-190 1193.3,-170.48 1134.43,-208.29 933,-154 877.72,-139.1 867.74,-124.51 817,-98 792.13,-85.01 788.55,-76.08 762,-67 652.08,-29.41 513.03,-19.8 450.76,-17.34"/>
<polygon fill="midnightblue" stroke="midnightblue" points="450.51,-13.83 440.39,-16.97 450.26,-20.83 450.51,-13.83"/>
</g>
<!-- Node28&#45;&gt;Node3 -->
<g id="edge43" class="edge">
<title>Node28&#45;&gt;Node3</title>
<path fill="none" stroke="midnightblue" d="M1997.59,-246.44C2020.42,-229.45 2072.55,-190.02 2114,-154 2156.23,-117.3 2159.37,-99.39 2205,-67 2226.5,-51.74 2253.25,-38.38 2273.52,-29.24"/>
<polygon fill="midnightblue" stroke="midnightblue" points="2275.17,-32.35 2282.91,-25.11 2272.34,-25.94 2275.17,-32.35"/>
</g>
<!-- Node28&#45;&gt;Node6 -->
<g id="edge44" class="edge">
<title>Node28&#45;&gt;Node6</title>
<path fill="none" stroke="midnightblue" d="M1913.75,-247.27C1909.1,-246.83 1904.49,-246.4 1900,-246 1680.72,-226.54 1624.9,-233.34 1406,-210 1404.54,-209.84 1403.05,-209.68 1401.56,-209.51"/>
<polygon fill="midnightblue" stroke="midnightblue" points="1401.92,-206.03 1391.57,-208.31 1401.08,-212.98 1401.92,-206.03"/>
</g>
<!-- Node54&#45;&gt;Node2 -->
<g id="edge46" class="edge">
<title>Node54&#45;&gt;Node2</title>
<path fill="none" stroke="midnightblue" d="M2098.99,-197.99C1863.81,-193.89 1015.19,-177.51 963,-154 914.28,-132.05 927.91,-90.67 880,-67 804.07,-29.48 541.97,-19.54 450.11,-17.17"/>
<polygon fill="midnightblue" stroke="midnightblue" points="450.11,-13.67 440.03,-16.93 449.94,-20.67 450.11,-13.67"/>
</g>
<!-- Node54&#45;&gt;Node3 -->
<g id="edge47" class="edge">
<title>Node54&#45;&gt;Node3</title>
<path fill="none" stroke="midnightblue" d="M2162.23,-190.47C2170.96,-168.2 2196.84,-107.27 2233,-67 2246.31,-52.18 2264.71,-39.25 2279.44,-30.18"/>
<polygon fill="midnightblue" stroke="midnightblue" points="2281.26,-33.17 2288.07,-25.05 2277.68,-27.15 2281.26,-33.17"/>
</g>
<!-- Node54&#45;&gt;Node14 -->
<g id="edge48" class="edge">
<title>Node54&#45;&gt;Node14</title>
<path fill="none" stroke="midnightblue" d="M2141.09,-190.44C2122.75,-181.68 2093.99,-167.94 2072.91,-157.86"/>
<polygon fill="midnightblue" stroke="midnightblue" points="2074.35,-154.67 2063.82,-153.52 2071.33,-160.99 2074.35,-154.67"/>
</g>
<!-- Node58&#45;&gt;Node6 -->
<g id="edge51" class="edge">
<title>Node58&#45;&gt;Node6</title>
<path fill="none" stroke="midnightblue" d="M672.37,-917.33C668.57,-895.61 662,-852.73 662,-816 662,-816 662,-816 662,-635 662,-461.67 730.94,-411.88 865,-302 896.63,-276.08 900.07,-261.27 938,-246 999.04,-221.43 1185.48,-208.78 1282.27,-203.72"/>
<polygon fill="midnightblue" stroke="midnightblue" points="1282.67,-207.2 1292.48,-203.2 1282.32,-200.21 1282.67,-207.2"/>
</g>
<!-- Node59 -->
<g id="node25" class="node">
<title>Node59</title>
<g id="a_node25"><a xlink:href="../../d5/d67/reorderer_8h.html" target="_top" xlink:title=" ">
<polygon fill="none" stroke="black" points="750,-246.5 750,-265.5 820,-265.5 820,-246.5 750,-246.5"/>
<text text-anchor="middle" x="785" y="-253.5" font-family="Helvetica,sans-Serif" font-size="10.00">reorderer.h</text>
</a>
</g>
</g>
<!-- Node58&#45;&gt;Node59 -->
<g id="edge52" class="edge">
<title>Node58&#45;&gt;Node59</title>
<path fill="none" stroke="midnightblue" d="M661.46,-917.18C593.04,-843.16 295.3,-499.7 467,-302 501.77,-261.96 660.43,-256.58 739.68,-256.46"/>
<polygon fill="midnightblue" stroke="midnightblue" points="739.85,-259.96 749.85,-256.47 739.86,-252.96 739.85,-259.96"/>
</g>
<!-- Node60 -->
<g id="node26" class="node">
<title>Node60</title>
<g id="a_node26"><a xlink:href="../../dd/dfe/model__part_8h.html" target="_top" xlink:title=" ">
<polygon fill="none" stroke="black" points="1814.5,-861.5 1814.5,-880.5 1939.5,-880.5 1939.5,-861.5 1814.5,-861.5"/>
<text text-anchor="middle" x="1877" y="-868.5" font-family="Helvetica,sans-Serif" font-size="10.00">includes/model_part.h</text>
</a>
</g>
</g>
<!-- Node58&#45;&gt;Node60 -->
<g id="edge57" class="edge">
<title>Node58&#45;&gt;Node60</title>
<path fill="none" stroke="midnightblue" d="M733.38,-928.61C932.5,-918.75 1584.73,-886.47 1804.2,-875.6"/>
<polygon fill="midnightblue" stroke="midnightblue" points="1804.5,-879.09 1814.32,-875.1 1804.15,-872.1 1804.5,-879.09"/>
</g>
<!-- Node59&#45;&gt;Node2 -->
<g id="edge53" class="edge">
<title>Node59&#45;&gt;Node2</title>
<path fill="none" stroke="midnightblue" d="M785.74,-246.25C787.75,-216.14 789.97,-115.95 736,-67 694.55,-29.4 523.41,-19.73 450.81,-17.29"/>
<polygon fill="midnightblue" stroke="midnightblue" points="450.54,-13.78 440.44,-16.97 450.32,-20.78 450.54,-13.78"/>
</g>
<!-- Node59&#45;&gt;Node3 -->
<g id="edge54" class="edge">
<title>Node59&#45;&gt;Node3</title>
<path fill="none" stroke="midnightblue" d="M820.31,-247.49C951.13,-219.89 1420.81,-122.79 1812,-67 1979.11,-43.17 2179.71,-26.16 2263.81,-19.55"/>
<polygon fill="midnightblue" stroke="midnightblue" points="2264.25,-23.02 2273.95,-18.76 2263.71,-16.04 2264.25,-23.02"/>
</g>
<!-- Node59&#45;&gt;Node4 -->
<g id="edge55" class="edge">
<title>Node59&#45;&gt;Node4</title>
<path fill="none" stroke="midnightblue" d="M820.35,-253.29C1055.47,-241.77 2396.23,-173.58 2798,-98 2890.89,-80.53 2997.19,-46.18 3049.84,-28.16"/>
<polygon fill="midnightblue" stroke="midnightblue" points="3051.02,-31.45 3059.34,-24.89 3048.74,-24.84 3051.02,-31.45"/>
</g>
<!-- Node59&#45;&gt;Node6 -->
<g id="edge56" class="edge">
<title>Node59&#45;&gt;Node6</title>
<path fill="none" stroke="midnightblue" d="M820.26,-248.08C824.87,-247.31 829.54,-246.59 834,-246 1030.28,-220.08 1081.22,-231.79 1278,-210 1279.46,-209.84 1280.95,-209.67 1282.44,-209.49"/>
<polygon fill="midnightblue" stroke="midnightblue" points="1282.92,-212.96 1292.42,-208.27 1282.07,-206.01 1282.92,-212.96"/>
</g>
<!-- Node60&#45;&gt;Node2 -->
<g id="edge58" class="edge">
<title>Node60&#45;&gt;Node2</title>
<path fill="none" stroke="midnightblue" d="M1814.27,-868.9C1647.95,-865.61 1198.47,-854.2 1053,-825 586.95,-731.46 114,-788.34 114,-313 114,-313 114,-313 114,-143 114,-26.44 306.87,-15.31 385.36,-15.6"/>
<polygon fill="midnightblue" stroke="midnightblue" points="385.61,-19.11 395.65,-15.71 385.68,-12.11 385.61,-19.11"/>
</g>
<!-- Node60&#45;&gt;Node3 -->
<g id="edge59" class="edge">
<title>Node60&#45;&gt;Node3</title>
<path fill="none" stroke="midnightblue" d="M1939.85,-870.37C2146.86,-871.16 2805.89,-869.97 3013,-825 3087.6,-808.8 3172,-836.34 3172,-760 3172,-760 3172,-760 3172,-255 3172,-127.06 3072.75,-114.61 2954,-67 2842.47,-22.29 2468.86,-17 2344.59,-16.5"/>
<polygon fill="midnightblue" stroke="midnightblue" points="2344.38,-13 2334.37,-16.47 2344.36,-20 2344.38,-13"/>
</g>
<!-- Node60&#45;&gt;Node6 -->
<g id="edge62" class="edge">
<title>Node60&#45;&gt;Node6</title>
<path fill="none" stroke="midnightblue" d="M1814.38,-868.87C1677.3,-865.84 1354.54,-855.61 1250,-825 1249.22,-824.77 1147.7,-769.41 1147,-769 968.97,-664.61 871.05,-651.18 804,-456 778.46,-381.65 833.16,-355.24 891,-302 907.92,-286.43 956.38,-253.83 978,-246 1080.5,-208.88 1208.69,-201.28 1282.38,-200.32"/>
<polygon fill="midnightblue" stroke="midnightblue" points="1282.44,-203.82 1292.4,-200.23 1282.37,-196.82 1282.44,-203.82"/>
</g>
<!-- Node60&#45;&gt;Node8 -->
<g id="edge60" class="edge">
<title>Node60&#45;&gt;Node8</title>
<path fill="none" stroke="midnightblue" d="M1939.5,-869.87C2134.9,-869.08 2732.47,-863.47 2922,-825 3002.9,-808.58 3096,-842.55 3096,-760 3096,-760 3096,-760 3096,-506.5 3096,-281.45 2962.36,-216.56 2753,-134 2697.82,-112.24 2630.38,-97.63 2589.08,-89.94"/>
<polygon fill="midnightblue" stroke="midnightblue" points="2589.62,-86.48 2579.16,-88.13 2588.37,-93.37 2589.62,-86.48"/>
</g>
<!-- Node60&#45;&gt;Node21 -->
<g id="edge63" class="edge">
<title>Node60&#45;&gt;Node21</title>
<path fill="none" stroke="midnightblue" d="M1870.74,-861.37C1858.38,-843.44 1832,-800.44 1832,-760 1832,-760 1832,-760 1832,-506.5 1832,-440.21 1859.36,-364.94 1873.19,-331.13"/>
<polygon fill="midnightblue" stroke="midnightblue" points="1876.52,-332.25 1877.16,-321.67 1870.06,-329.54 1876.52,-332.25"/>
</g>
<!-- Node60&#45;&gt;Node54 -->
<g id="edge159" class="edge">
<title>Node60&#45;&gt;Node54</title>
<path fill="none" stroke="midnightblue" d="M1939.74,-869.16C2144.46,-866.14 2784.91,-854.43 2873,-825 2967.47,-793.44 3058,-798.11 3058,-698.5 3058,-698.5 3058,-698.5 3058,-573.5 3058,-390.1 2411.36,-249.85 2214.92,-211.48"/>
<polygon fill="midnightblue" stroke="midnightblue" points="2215.3,-207.99 2204.82,-209.52 2213.97,-214.86 2215.3,-207.99"/>
</g>
<!-- Node61 -->
<g id="node27" class="node">
<title>Node61</title>
<g id="a_node27"><a xlink:title=" ">
<polygon fill="none" stroke="#bfbfbf" points="2176.5,-302.5 2176.5,-321.5 2229.5,-321.5 2229.5,-302.5 2176.5,-302.5"/>
<text text-anchor="middle" x="2203" y="-309.5" font-family="Helvetica,sans-Serif" font-size="10.00">cstddef</text>
</a>
</g>
</g>
<!-- Node60&#45;&gt;Node61 -->
<g id="edge61" class="edge">
<title>Node60&#45;&gt;Node61</title>
<path fill="none" stroke="midnightblue" d="M1939.62,-868.33C2144.46,-862.2 2784.84,-837.65 2844,-769 2915.05,-686.55 2801.69,-628.59 2718,-559 2671.33,-520.19 2653.15,-519.42 2599,-492 2464.87,-424.09 2299.61,-353.45 2232.96,-325.47"/>
<polygon fill="midnightblue" stroke="midnightblue" points="2234.07,-322.14 2223.49,-321.51 2231.36,-328.6 2234.07,-322.14"/>
</g>
<!-- Node62 -->
<g id="node28" class="node">
<title>Node62</title>
<g id="a_node28"><a xlink:href="../../de/db8/process__info_8h.html" target="_top" xlink:title=" ">
<polygon fill="none" stroke="red" points="2162.5,-626.5 2162.5,-645.5 2293.5,-645.5 2293.5,-626.5 2162.5,-626.5"/>
<text text-anchor="middle" x="2228" y="-633.5" font-family="Helvetica,sans-Serif" font-size="10.00">includes/process_info.h</text>
</a>
</g>
</g>
<!-- Node60&#45;&gt;Node62 -->
<g id="edge64" class="edge">
<title>Node60&#45;&gt;Node62</title>
<path fill="none" stroke="midnightblue" d="M1919.87,-861.45C1974.65,-848.81 2070.24,-820.85 2136,-769 2176.26,-737.25 2206.08,-683.17 2219.74,-655.1"/>
<polygon fill="midnightblue" stroke="midnightblue" points="2223.06,-656.26 2224.17,-645.72 2216.73,-653.27 2223.06,-656.26"/>
</g>
<!-- Node63 -->
<g id="node29" class="node">
<title>Node63</title>
<g id="a_node29"><a xlink:href="../../d1/d82/data__value__container_8h.html" target="_top" xlink:title=" ">
<polygon fill="none" stroke="black" points="1936.5,-559.5 1936.5,-589.5 2061.5,-589.5 2061.5,-559.5 1936.5,-559.5"/>
<text text-anchor="start" x="1944.5" y="-577.5" font-family="Helvetica,sans-Serif" font-size="10.00">containers/data_value</text>
<text text-anchor="middle" x="1999" y="-566.5" font-family="Helvetica,sans-Serif" font-size="10.00">_container.h</text>
</a>
</g>
</g>
<!-- Node60&#45;&gt;Node63 -->
<g id="edge93" class="edge">
<title>Node60&#45;&gt;Node63</title>
<path fill="none" stroke="midnightblue" d="M1886.78,-861.32C1910.73,-839.37 1972.01,-778.65 1995,-713 2008.24,-675.19 2005.85,-627.9 2002.62,-599.78"/>
<polygon fill="midnightblue" stroke="midnightblue" points="2006.07,-599.14 2001.33,-589.67 1999.13,-600.03 2006.07,-599.14"/>
</g>
<!-- Node64 -->
<g id="node30" class="node">
<title>Node64</title>
<g id="a_node30"><a xlink:href="../../da/d89/variable_8h.html" target="_top" xlink:title=" ">
<polygon fill="none" stroke="black" points="1684.5,-431 1684.5,-450 1803.5,-450 1803.5,-431 1684.5,-431"/>
<text text-anchor="middle" x="1744" y="-438" font-family="Helvetica,sans-Serif" font-size="10.00">containers/variable.h</text>
</a>
</g>
</g>
<!-- Node60&#45;&gt;Node64 -->
<g id="edge162" class="edge">
<title>Node60&#45;&gt;Node64</title>
<path fill="none" stroke="midnightblue" d="M1859.72,-861.38C1846.2,-853.71 1828.05,-841.2 1818,-825 1742.13,-702.6 1741.21,-519.36 1743.1,-460.46"/>
<polygon fill="midnightblue" stroke="midnightblue" points="1746.62,-460.24 1743.51,-450.11 1739.62,-459.97 1746.62,-460.24"/>
</g>
<!-- Node65 -->
<g id="node31" class="node">
<title>Node65</title>
<g id="a_node31"><a xlink:href="../../d3/dc3/variable__data_8h.html" target="_top" xlink:title=" ">
<polygon fill="none" stroke="red" points="1674,-364 1674,-383 1766,-383 1766,-364 1674,-364"/>
<text text-anchor="middle" x="1720" y="-371" font-family="Helvetica,sans-Serif" font-size="10.00">variable_data.h</text>
</a>
</g>
</g>
<!-- Node60&#45;&gt;Node65 -->
<g id="edge163" class="edge">
<title>Node60&#45;&gt;Node65</title>
<path fill="none" stroke="midnightblue" d="M1814.27,-867.83C1713.1,-863.58 1518.87,-852.09 1456,-825 1376.53,-790.76 1308,-785.03 1308,-698.5 1308,-698.5 1308,-698.5 1308,-573.5 1308,-417.32 1551.02,-383.66 1663.77,-376.44"/>
<polygon fill="midnightblue" stroke="midnightblue" points="1664.16,-379.93 1673.94,-375.84 1663.75,-372.94 1664.16,-379.93"/>
</g>
<!-- Node75 -->
<g id="node33" class="node">
<title>Node75</title>
<g id="a_node33"><a xlink:href="../../d8/d3b/mesh_8h.html" target="_top" xlink:title=" ">
<polygon fill="none" stroke="red" points="2031,-749.5 2031,-768.5 2127,-768.5 2127,-749.5 2031,-749.5"/>
<text text-anchor="middle" x="2079" y="-756.5" font-family="Helvetica,sans-Serif" font-size="10.00">includes/mesh.h</text>
</a>
</g>
</g>
<!-- Node60&#45;&gt;Node75 -->
<g id="edge94" class="edge">
<title>Node60&#45;&gt;Node75</title>
<path fill="none" stroke="midnightblue" d="M1893.35,-861.47C1910.5,-852.49 1938.22,-837.9 1962,-825 1994.31,-807.47 2031.37,-786.78 2054.97,-773.54"/>
<polygon fill="midnightblue" stroke="midnightblue" points="2056.91,-776.46 2063.91,-768.51 2053.48,-770.36 2056.91,-776.46"/>
</g>
<!-- Node79 -->
<g id="node34" class="node">
<title>Node79</title>
<g id="a_node34"><a xlink:href="../../d2/d58/pointer__vector__map_8h.html" target="_top" xlink:title=" ">
<polygon fill="none" stroke="red" points="2392.5,-358.5 2392.5,-388.5 2497.5,-388.5 2497.5,-358.5 2392.5,-358.5"/>
<text text-anchor="start" x="2400.5" y="-376.5" font-family="Helvetica,sans-Serif" font-size="10.00">containers/pointer</text>
<text text-anchor="middle" x="2445" y="-365.5" font-family="Helvetica,sans-Serif" font-size="10.00">_vector_map.h</text>
</a>
</g>
</g>
<!-- Node60&#45;&gt;Node79 -->
<g id="edge157" class="edge">
<title>Node60&#45;&gt;Node79</title>
<path fill="none" stroke="midnightblue" d="M1939.81,-870.23C2141.63,-870.55 2764.98,-868.02 2844,-825 2927.72,-779.42 2960.15,-714.2 2924,-626 2855.72,-459.38 2621.07,-401.27 2507.53,-382.59"/>
<polygon fill="midnightblue" stroke="midnightblue" points="2508.01,-379.13 2497.59,-381.01 2506.91,-386.04 2508.01,-379.13"/>
</g>
<!-- Node92 -->
<g id="node35" class="node">
<title>Node92</title>
<g id="a_node35"><a xlink:href="../../da/da4/master__slave__constraint_8h.html" target="_top" xlink:title=" ">
<polygon fill="none" stroke="red" points="1860,-682.5 1860,-712.5 1986,-712.5 1986,-682.5 1860,-682.5"/>
<text text-anchor="start" x="1868" y="-700.5" font-family="Helvetica,sans-Serif" font-size="10.00">includes/master_slave</text>
<text text-anchor="middle" x="1923" y="-689.5" font-family="Helvetica,sans-Serif" font-size="10.00">_constraint.h</text>
</a>
</g>
</g>
<!-- Node60&#45;&gt;Node92 -->
<g id="edge161" class="edge">
<title>Node60&#45;&gt;Node92</title>
<path fill="none" stroke="midnightblue" d="M1879.34,-861.26C1886.16,-835.87 1906.12,-761.44 1916.52,-722.65"/>
<polygon fill="midnightblue" stroke="midnightblue" points="1919.97,-723.29 1919.19,-712.72 1913.21,-721.47 1919.97,-723.29"/>
</g>
<!-- Node104 -->
<g id="node38" class="node">
<title>Node104</title>
<g id="a_node38"><a xlink:href="../../d0/dac/kratos__flags_8h.html" target="_top" xlink:title=" ">
<polygon fill="none" stroke="red" points="1450,-565 1450,-584 1578,-584 1578,-565 1450,-565"/>
<text text-anchor="middle" x="1514" y="-572" font-family="Helvetica,sans-Serif" font-size="10.00">includes/kratos_flags.h</text>
</a>
</g>
</g>
<!-- Node60&#45;&gt;Node104 -->
<g id="edge160" class="edge">
<title>Node60&#45;&gt;Node104</title>
<path fill="none" stroke="midnightblue" d="M1825.35,-861.43C1790.95,-854.49 1745.39,-842.88 1708,-825 1631.97,-788.64 1603.58,-781.86 1555,-713 1528.88,-675.97 1519.18,-622.12 1515.75,-594.07"/>
<polygon fill="midnightblue" stroke="midnightblue" points="1519.22,-593.62 1514.66,-584.05 1512.26,-594.37 1519.22,-593.62"/>
</g>
<!-- Node105 -->
<g id="node39" class="node">
<title>Node105</title>
<g id="a_node39"><a xlink:href="../../d3/dad/geometry__container_8h.html" target="_top" xlink:title=" ">
<polygon fill="none" stroke="black" points="813,-425.5 813,-455.5 931,-455.5 931,-425.5 813,-425.5"/>
<text text-anchor="start" x="821" y="-443.5" font-family="Helvetica,sans-Serif" font-size="10.00">containers/geometry</text>
<text text-anchor="middle" x="872" y="-432.5" font-family="Helvetica,sans-Serif" font-size="10.00">_container.h</text>
</a>
</g>
</g>
<!-- Node60&#45;&gt;Node105 -->
<g id="edge128" class="edge">
<title>Node60&#45;&gt;Node105</title>
<path fill="none" stroke="midnightblue" d="M1814.48,-870.29C1712.3,-869.56 1503.73,-862.98 1332,-825 1261.7,-809.45 1242.31,-805.06 1180,-769 1105.88,-726.11 964.18,-590.09 914,-523 900.45,-504.89 889,-481.77 881.5,-464.78"/>
<polygon fill="midnightblue" stroke="midnightblue" points="884.71,-463.39 877.55,-455.58 878.27,-466.15 884.71,-463.39"/>
</g>
<!-- Node106 -->
<g id="node40" class="node">
<title>Node106</title>
<g id="a_node40"><a xlink:href="../../da/d92/pointer__hash__map__set_8h.html" target="_top" xlink:title=" ">
<polygon fill="none" stroke="red" points="866.5,-358.5 866.5,-388.5 971.5,-388.5 971.5,-358.5 866.5,-358.5"/>
<text text-anchor="start" x="874.5" y="-376.5" font-family="Helvetica,sans-Serif" font-size="10.00">containers/pointer</text>
<text text-anchor="middle" x="919" y="-365.5" font-family="Helvetica,sans-Serif" font-size="10.00">_hash_map_set.h</text>
</a>
</g>
</g>
<!-- Node60&#45;&gt;Node106 -->
<g id="edge158" class="edge">
<title>Node60&#45;&gt;Node106</title>
<path fill="none" stroke="midnightblue" d="M1814.26,-867.78C1703.15,-863.22 1476.49,-851 1402,-825 1167.41,-743.12 983.9,-477.08 933.07,-397.31"/>
<polygon fill="midnightblue" stroke="midnightblue" points="935.83,-395.12 927.54,-388.53 929.91,-398.86 935.83,-395.12"/>
</g>
<!-- Node107 -->
<g id="node41" class="node">
<title>Node107</title>
<g id="a_node41"><a xlink:href="../../d4/dfe/element_8h.html" target="_top" xlink:title=" ">
<polygon fill="none" stroke="red" points="2301,-749.5 2301,-768.5 2411,-768.5 2411,-749.5 2301,-749.5"/>
<text text-anchor="middle" x="2356" y="-756.5" font-family="Helvetica,sans-Serif" font-size="10.00">includes/element.h</text>
</a>
</g>
</g>
<!-- Node60&#45;&gt;Node107 -->
<g id="edge134" class="edge">
<title>Node60&#45;&gt;Node107</title>
<path fill="none" stroke="midnightblue" d="M1939.58,-870.01C2014.2,-868.29 2141.79,-859.86 2245,-825 2263.26,-818.83 2307.38,-791.42 2334.17,-774.22"/>
<polygon fill="midnightblue" stroke="midnightblue" points="2336.35,-776.98 2342.85,-768.62 2332.55,-771.1 2336.35,-776.98"/>
</g>
<!-- Node121 -->
<g id="node42" class="node">
<title>Node121</title>
<g id="a_node42"><a xlink:href="../../d7/d6c/condition_8h.html" target="_top" xlink:title=" ">
<polygon fill="none" stroke="red" points="2429,-749.5 2429,-768.5 2543,-768.5 2543,-749.5 2429,-749.5"/>
<text text-anchor="middle" x="2486" y="-756.5" font-family="Helvetica,sans-Serif" font-size="10.00">includes/condition.h</text>
</a>
</g>
</g>
<!-- Node60&#45;&gt;Node121 -->
<g id="edge138" class="edge">
<title>Node60&#45;&gt;Node121</title>
<path fill="none" stroke="midnightblue" d="M1939.66,-868.23C2078.6,-863.84 2403.63,-850.92 2446,-825 2463.27,-814.44 2474.17,-793.34 2480.15,-778.04"/>
<polygon fill="midnightblue" stroke="midnightblue" points="2483.47,-779.17 2483.53,-768.57 2476.87,-776.81 2483.47,-779.17"/>
</g>
<!-- Node122 -->
<g id="node43" class="node">
<title>Node122</title>
<g id="a_node43"><a xlink:href="../../d8/d75/communicator_8h.html" target="_top" xlink:title=" ">
<polygon fill="none" stroke="black" points="2297.5,-805.5 2297.5,-824.5 2436.5,-824.5 2436.5,-805.5 2297.5,-805.5"/>
<text text-anchor="middle" x="2367" y="-812.5" font-family="Helvetica,sans-Serif" font-size="10.00">includes/communicator.h</text>
</a>
</g>
</g>
<!-- Node60&#45;&gt;Node122 -->
<g id="edge142" class="edge">
<title>Node60&#45;&gt;Node122</title>
<path fill="none" stroke="midnightblue" d="M1939.56,-863.11C2028.14,-853.34 2190.14,-835.49 2287.25,-824.79"/>
<polygon fill="midnightblue" stroke="midnightblue" points="2287.76,-828.25 2297.31,-823.68 2286.99,-821.3 2287.76,-828.25"/>
</g>
<!-- Node109 -->
<g id="node44" class="node">
<title>Node109</title>
<g id="a_node44"><a xlink:href="../../dd/d98/table_8h.html" target="_top" xlink:title=" ">
<polygon fill="none" stroke="black" points="1412,-498 1412,-517 1506,-517 1506,-498 1412,-498"/>
<text text-anchor="middle" x="1459" y="-505" font-family="Helvetica,sans-Serif" font-size="10.00">includes/table.h</text>
</a>
</g>
</g>
<!-- Node60&#45;&gt;Node109 -->
<g id="edge151" class="edge">
<title>Node60&#45;&gt;Node109</title>
<path fill="none" stroke="midnightblue" d="M1814.21,-867.85C1689.39,-861.87 1422,-839.74 1422,-760 1422,-760 1422,-760 1422,-635 1422,-594.94 1439.31,-550.5 1450.25,-526.42"/>
<polygon fill="midnightblue" stroke="midnightblue" points="1453.52,-527.68 1454.61,-517.14 1447.19,-524.7 1453.52,-527.68"/>
</g>
<!-- Node62&#45;&gt;Node2 -->
<g id="edge65" class="edge">
<title>Node62&#45;&gt;Node2</title>
<path fill="none" stroke="midnightblue" d="M2162.49,-627.21C2046.48,-613.42 1797.34,-583.84 1587,-559 1197.69,-513.03 1077.77,-594.42 711,-456 617.75,-420.81 342,-300.68 342,-201 342,-201 342,-201 342,-143 342,-97.62 378.38,-54.48 400.8,-32.2"/>
<polygon fill="midnightblue" stroke="midnightblue" points="403.28,-34.68 408.06,-25.23 398.43,-29.63 403.28,-34.68"/>
</g>
<!-- Node62&#45;&gt;Node3 -->
<g id="edge66" class="edge">
<title>Node62&#45;&gt;Node3</title>
<path fill="none" stroke="midnightblue" d="M2279.99,-626.45C2401.9,-605.99 2698.44,-553.63 2732,-523 2859.28,-406.84 2832.85,-325.36 2851,-154 2855.28,-113.61 2855.68,-91.13 2823,-67 2784.73,-38.74 2459.43,-22.84 2344.24,-18.06"/>
<polygon fill="midnightblue" stroke="midnightblue" points="2344.21,-14.55 2334.08,-17.64 2343.92,-21.55 2344.21,-14.55"/>
</g>
<!-- Node62&#45;&gt;Node6 -->
<g id="edge69" class="edge">
<title>Node62&#45;&gt;Node6</title>
<path fill="none" stroke="midnightblue" d="M2217,-626.38C2146.65,-571.33 1760.62,-270.35 1699,-246 1576.36,-197.53 1532.96,-227.38 1401.77,-210.59"/>
<polygon fill="midnightblue" stroke="midnightblue" points="1402.13,-207.11 1391.75,-209.24 1401.19,-214.04 1402.13,-207.11"/>
</g>
<!-- Node62&#45;&gt;Node8 -->
<g id="edge67" class="edge">
<title>Node62&#45;&gt;Node8</title>
<path fill="none" stroke="midnightblue" d="M2272.98,-626.47C2355.74,-608.64 2533.53,-560.15 2641,-456 2667.87,-429.96 2680.04,-424.46 2692,-389 2696.4,-375.94 2694.24,-371.59 2692,-358 2674.32,-250.87 2596.26,-141.32 2564.51,-100.33"/>
<polygon fill="midnightblue" stroke="midnightblue" points="2567.07,-97.93 2558.14,-92.23 2561.57,-102.26 2567.07,-97.93"/>
</g>
<!-- Node62&#45;&gt;Node61 -->
<g id="edge68" class="edge">
<title>Node62&#45;&gt;Node61</title>
<path fill="none" stroke="midnightblue" d="M2244.33,-626.39C2282.66,-605 2372.76,-547.18 2340,-492 2322.94,-463.27 2297.82,-479.43 2274,-456 2237.38,-419.98 2216.57,-361.17 2207.87,-331.44"/>
<polygon fill="midnightblue" stroke="midnightblue" points="2211.18,-330.28 2205.12,-321.58 2204.44,-332.16 2211.18,-330.28"/>
</g>
<!-- Node62&#45;&gt;Node63 -->
<g id="edge70" class="edge">
<title>Node62&#45;&gt;Node63</title>
<path fill="none" stroke="midnightblue" d="M2195.19,-626.48C2160.77,-617.53 2105.8,-603.25 2062.79,-592.07"/>
<polygon fill="midnightblue" stroke="midnightblue" points="2063.53,-588.65 2052.97,-589.52 2061.77,-595.43 2063.53,-588.65"/>
</g>
<!-- Node63&#45;&gt;Node2 -->
<g id="edge71" class="edge">
<title>Node63&#45;&gt;Node2</title>
<path fill="none" stroke="midnightblue" d="M1936.34,-568.44C1827.72,-559.61 1597.43,-540.65 1403,-523 879.94,-475.52 266,-726.21 266,-201 266,-201 266,-201 266,-143 266,-107.58 265.84,-92.91 290,-67 315.25,-39.92 356.83,-27.12 385.72,-21.24"/>
<polygon fill="midnightblue" stroke="midnightblue" points="386.55,-24.64 395.74,-19.37 385.27,-17.76 386.55,-24.64"/>
</g>
<!-- Node63&#45;&gt;Node3 -->
<g id="edge72" class="edge">
<title>Node63&#45;&gt;Node3</title>
<path fill="none" stroke="midnightblue" d="M2021.03,-559.46C2072.61,-525.39 2201.86,-432.93 2268,-322 2320.67,-233.67 2316.04,-200.36 2326,-98 2327.33,-84.29 2328.81,-80.49 2326,-67 2323.62,-55.59 2318.52,-43.59 2313.83,-34.16"/>
<polygon fill="midnightblue" stroke="midnightblue" points="2316.8,-32.29 2309.04,-25.07 2310.61,-35.55 2316.8,-32.29"/>
</g>
<!-- Node63&#45;&gt;Node4 -->
<g id="edge74" class="edge">
<title>Node63&#45;&gt;Node4</title>
<path fill="none" stroke="midnightblue" d="M2061.73,-562.47C2207.01,-534.42 2572.78,-449.25 2817,-266 2920.98,-187.98 3029.27,-74.62 3068.07,-32.79"/>
<polygon fill="midnightblue" stroke="midnightblue" points="3070.68,-35.14 3074.89,-25.41 3065.53,-30.39 3070.68,-35.14"/>
</g>
<!-- Node63&#45;&gt;Node6 -->
<g id="edge75" class="edge">
<title>Node63&#45;&gt;Node6</title>
<path fill="none" stroke="midnightblue" d="M1992.51,-559.18C1977.93,-528.81 1939.46,-458.05 1884,-425 1799.26,-374.51 1744.27,-447.7 1665,-389 1606.3,-345.53 1645.13,-285.98 1584,-246 1576.35,-241 1470.84,-222.58 1401.69,-210.92"/>
<polygon fill="midnightblue" stroke="midnightblue" points="1402.21,-207.46 1391.77,-209.25 1401.05,-214.36 1402.21,-207.46"/>
</g>
<!-- Node63&#45;&gt;Node14 -->
<g id="edge92" class="edge">
<title>Node63&#45;&gt;Node14</title>
<path fill="none" stroke="midnightblue" d="M2006.51,-559.36C2020.79,-532.71 2053.08,-473.36 2083,-425 2090.58,-412.75 2223.79,-223.78 2228,-210 2230.6,-201.5 2233.48,-197 2228,-190 2213.87,-171.95 2160.2,-160.14 2114.77,-153.17"/>
<polygon fill="midnightblue" stroke="midnightblue" points="2115.03,-149.67 2104.62,-151.67 2114,-156.59 2115.03,-149.67"/>
</g>
<!-- Node63&#45;&gt;Node61 -->
<g id="edge73" class="edge">
<title>Node63&#45;&gt;Node61</title>
<path fill="none" stroke="midnightblue" d="M2009.51,-559.23C2042.67,-514.21 2143.9,-377.03 2160,-358 2168.46,-348 2178.55,-337.37 2186.83,-328.96"/>
<polygon fill="midnightblue" stroke="midnightblue" points="2189.52,-331.22 2194.11,-321.67 2184.57,-326.28 2189.52,-331.22"/>
</g>
<!-- Node63&#45;&gt;Node64 -->
<g id="edge76" class="edge">
<title>Node63&#45;&gt;Node64</title>
<path fill="none" stroke="midnightblue" d="M1971.71,-559.37C1922.19,-533.74 1818.18,-479.9 1769.78,-454.85"/>
<polygon fill="midnightblue" stroke="midnightblue" points="1771.1,-451.59 1760.61,-450.1 1767.88,-457.8 1771.1,-451.59"/>
</g>
<!-- Node67 -->
<g id="node32" class="node">
<title>Node67</title>
<g id="a_node32"><a xlink:href="../../dc/d8e/kratos__components_8h.html" target="_top" xlink:title=" ">
<polygon fill="none" stroke="red" points="1524.5,-498 1524.5,-517 1689.5,-517 1689.5,-498 1524.5,-498"/>
<text text-anchor="middle" x="1607" y="-505" font-family="Helvetica,sans-Serif" font-size="10.00">includes/kratos_components.h</text>
</a>
</g>
</g>
<!-- Node63&#45;&gt;Node67 -->
<g id="edge87" class="edge">
<title>Node63&#45;&gt;Node67</title>
<path fill="none" stroke="midnightblue" d="M1936.45,-563.13C1862.85,-550.92 1741.45,-530.79 1668.37,-518.68"/>
<polygon fill="midnightblue" stroke="midnightblue" points="1668.82,-515.2 1658.38,-517.02 1667.68,-522.11 1668.82,-515.2"/>
</g>
<!-- Node64&#45;&gt;Node2 -->
<g id="edge77" class="edge">
<title>Node64&#45;&gt;Node2</title>
<path fill="none" stroke="midnightblue" d="M1684.4,-439.46C1511.67,-438.8 1013.15,-433.04 857,-389 783.62,-368.3 570,-277.24 570,-201 570,-201 570,-201 570,-143 570,-80.92 494.16,-43.43 449.62,-26.76"/>
<polygon fill="midnightblue" stroke="midnightblue" points="450.7,-23.42 440.1,-23.33 448.33,-30.01 450.7,-23.42"/>
</g>
<!-- Node64&#45;&gt;Node3 -->
<g id="edge78" class="edge">
<title>Node64&#45;&gt;Node3</title>
<path fill="none" stroke="midnightblue" d="M1803.51,-439.45C1973.56,-438.79 2452.89,-433 2507,-389 2621.49,-295.9 2682.77,-180.11 2588,-67 2557.41,-30.49 2415.46,-20.35 2344.54,-17.56"/>
<polygon fill="midnightblue" stroke="midnightblue" points="2344.33,-14.05 2334.21,-17.18 2344.07,-21.04 2344.33,-14.05"/>
</g>
<!-- Node64&#45;&gt;Node6 -->
<g id="edge79" class="edge">
<title>Node64&#45;&gt;Node6</title>
<path fill="none" stroke="midnightblue" d="M1690.28,-430.94C1659.5,-423.86 1621.63,-411.21 1594,-389 1536.19,-342.54 1567.17,-290.71 1508,-246 1490.67,-232.9 1439.41,-220.16 1398.39,-211.59"/>
<polygon fill="midnightblue" stroke="midnightblue" points="1398.98,-208.14 1388.48,-209.56 1397.58,-215 1398.98,-208.14"/>
</g>
<!-- Node64&#45;&gt;Node16 -->
<g id="edge86" class="edge">
<title>Node64&#45;&gt;Node16</title>
<path fill="none" stroke="midnightblue" d="M1803.79,-439.34C1984.11,-438.37 2514.18,-431.86 2578,-389 2681.1,-319.76 2714.11,-157.13 2722.53,-102.09"/>
<polygon fill="midnightblue" stroke="midnightblue" points="2726.01,-102.44 2723.97,-92.05 2719.08,-101.45 2726.01,-102.44"/>
</g>
<!-- Node64&#45;&gt;Node65 -->
<g id="edge80" class="edge">
<title>Node64&#45;&gt;Node65</title>
<path fill="none" stroke="midnightblue" d="M1740.76,-430.73C1737.16,-420.99 1731.25,-404.98 1726.66,-392.53"/>
<polygon fill="midnightblue" stroke="midnightblue" points="1729.93,-391.3 1723.19,-383.13 1723.37,-393.72 1729.93,-391.3"/>
</g>
<!-- Node65&#45;&gt;Node2 -->
<g id="edge81" class="edge">
<title>Node65&#45;&gt;Node2</title>
<path fill="none" stroke="midnightblue" d="M1673.94,-372.12C1495.41,-370.01 850.13,-356.16 670,-266 634.3,-248.13 608,-240.92 608,-201 608,-201 608,-201 608,-143 608,-107.58 609.18,-91.91 584,-67 547.95,-31.32 487.51,-20.73 450.36,-17.66"/>
<polygon fill="midnightblue" stroke="midnightblue" points="450.3,-14.15 440.08,-16.95 449.82,-21.13 450.3,-14.15"/>
</g>
<!-- Node65&#45;&gt;Node3 -->
<g id="edge82" class="edge">
<title>Node65&#45;&gt;Node3</title>
<path fill="none" stroke="midnightblue" d="M1766.18,-364.81C1882.92,-344.41 2185.12,-285.26 2249,-210 2293.03,-158.12 2301.9,-73.12 2303.62,-35.47"/>
<polygon fill="midnightblue" stroke="midnightblue" points="2307.12,-35.51 2303.96,-25.39 2300.13,-35.27 2307.12,-35.51"/>
</g>
<!-- Node65&#45;&gt;Node6 -->
<g id="edge84" class="edge">
<title>Node65&#45;&gt;Node6</title>
<path fill="none" stroke="midnightblue" d="M1719.96,-363.72C1719.32,-340.37 1714.11,-276.47 1677,-246 1630.05,-207.44 1466.19,-218.23 1406,-210 1404.54,-209.8 1403.06,-209.6 1401.57,-209.39"/>
<polygon fill="midnightblue" stroke="midnightblue" points="1401.99,-205.92 1391.61,-208.01 1401.04,-212.85 1401.99,-205.92"/>
</g>
<!-- Node65&#45;&gt;Node21 -->
<g id="edge85" class="edge">
<title>Node65&#45;&gt;Node21</title>
<path fill="none" stroke="midnightblue" d="M1743.07,-363.98C1770.68,-353.77 1817.12,-336.61 1848.4,-325.05"/>
<polygon fill="midnightblue" stroke="midnightblue" points="1849.81,-328.26 1857.98,-321.51 1847.38,-321.69 1849.81,-328.26"/>
</g>
<!-- Node65&#45;&gt;Node61 -->
<g id="edge83" class="edge">
<title>Node65&#45;&gt;Node61</title>
<path fill="none" stroke="midnightblue" d="M1766.31,-366.79C1861.85,-355.03 2079.11,-328.26 2166.04,-317.55"/>
<polygon fill="midnightblue" stroke="midnightblue" points="2166.72,-321 2176.22,-316.3 2165.87,-314.05 2166.72,-321"/>
</g>
<!-- Node67&#45;&gt;Node2 -->
<g id="edge88" class="edge">
<title>Node67&#45;&gt;Node2</title>
<path fill="none" stroke="midnightblue" d="M1558.9,-497.94C1544.79,-495.69 1529.31,-493.49 1515,-492 1357.64,-475.66 950.49,-515.73 804,-456 774.48,-443.96 610.12,-289.88 589,-266 552.48,-224.69 460.81,-83.26 429.04,-33.77"/>
<polygon fill="midnightblue" stroke="midnightblue" points="431.86,-31.69 423.52,-25.16 425.97,-35.46 431.86,-31.69"/>
</g>
<!-- Node67&#45;&gt;Node3 -->
<g id="edge89" class="edge">
<title>Node67&#45;&gt;Node3</title>
<path fill="none" stroke="midnightblue" d="M1611.61,-497.99C1621.2,-481.16 1645.01,-443.62 1676,-425 1740.72,-386.13 1769.37,-409.59 1842,-389 2000.23,-344.15 2052.85,-355.24 2191,-266 2248.83,-228.65 2266.32,-215.12 2298,-154 2317.91,-115.59 2312.66,-62.74 2307.88,-35.08"/>
<polygon fill="midnightblue" stroke="midnightblue" points="2311.3,-34.36 2306,-25.19 2304.43,-35.66 2311.3,-34.36"/>
</g>
<!-- Node67&#45;&gt;Node6 -->
<g id="edge90" class="edge">
<title>Node67&#45;&gt;Node6</title>
<path fill="none" stroke="midnightblue" d="M1594.67,-497.74C1570.09,-479.76 1514.43,-436.39 1480,-389 1438.86,-332.37 1460.28,-298.52 1414,-246 1402.17,-232.57 1385.37,-221.76 1370.97,-214.1"/>
<polygon fill="midnightblue" stroke="midnightblue" points="1372.43,-210.92 1361.93,-209.53 1369.27,-217.17 1372.43,-210.92"/>
</g>
<!-- Node67&#45;&gt;Node64 -->
<g id="edge91" class="edge">
<title>Node67&#45;&gt;Node64</title>
<path fill="none" stroke="midnightblue" d="M1625.19,-497.87C1648.53,-486.8 1689.23,-467.49 1716.39,-454.6"/>
<polygon fill="midnightblue" stroke="midnightblue" points="1718.2,-457.62 1725.73,-450.17 1715.2,-451.29 1718.2,-457.62"/>
</g>
<!-- Node75&#45;&gt;Node2 -->
<g id="edge95" class="edge">
<title>Node75&#45;&gt;Node2</title>
<path fill="none" stroke="midnightblue" d="M2030.88,-757.28C1736.4,-751.6 190,-703.21 190,-313 190,-313 190,-313 190,-143 190,-103.75 203.81,-90.84 235,-67 279.85,-32.71 346.61,-21.7 385.88,-18.17"/>
<polygon fill="midnightblue" stroke="midnightblue" points="386.26,-21.65 395.95,-17.37 385.71,-14.67 386.26,-21.65"/>
</g>
<!-- Node75&#45;&gt;Node3 -->
<g id="edge96" class="edge">
<title>Node75&#45;&gt;Node3</title>
<path fill="none" stroke="midnightblue" d="M2081,-749.41C2092.38,-698.79 2145.54,-435.3 2067,-246 2029.81,-156.38 1878.3,-140.2 1942,-67 1983.34,-19.5 2178.16,-15.3 2263.64,-15.81"/>
<polygon fill="midnightblue" stroke="midnightblue" points="2263.71,-19.31 2273.74,-15.89 2263.77,-12.31 2263.71,-19.31"/>
</g>
<!-- Node75&#45;&gt;Node6 -->
<g id="edge99" class="edge">
<title>Node75&#45;&gt;Node6</title>
<path fill="none" stroke="midnightblue" d="M2030.98,-752.28C2020.76,-751.13 2010.03,-749.98 2000,-749 1901.26,-739.38 1647.4,-749.12 1555,-713 1544.68,-708.97 1405.37,-598.27 1398,-590 1354.48,-541.14 1350.29,-520.07 1337,-456 1318.04,-364.56 1316.22,-338.36 1330,-246 1331.33,-237.09 1333.77,-227.42 1336.11,-219.33"/>
<polygon fill="midnightblue" stroke="midnightblue" points="1339.54,-220.09 1339.12,-209.51 1332.84,-218.04 1339.54,-220.09"/>
</g>
<!-- Node75&#45;&gt;Node8 -->
<g id="edge97" class="edge">
<title>Node75&#45;&gt;Node8</title>
<path fill="none" stroke="midnightblue" d="M2127.13,-752.59C2177.49,-746.15 2258.46,-733.6 2326,-713 2351.22,-705.31 2737.39,-534.75 2761,-523 2827.18,-490.05 2906,-515.43 2906,-441.5 2906,-441.5 2906,-441.5 2906,-372.5 2906,-287.35 2657.26,-142.26 2576.2,-97.23"/>
<polygon fill="midnightblue" stroke="midnightblue" points="2577.62,-94.02 2567.18,-92.25 2574.24,-100.15 2577.62,-94.02"/>
</g>
<!-- Node75&#45;&gt;Node61 -->
<g id="edge98" class="edge">
<title>Node75&#45;&gt;Node61</title>
<path fill="none" stroke="midnightblue" d="M2085.54,-749.27C2092.08,-740.37 2102.25,-726.05 2110,-713 2132.12,-675.74 2124.04,-657.31 2154,-626 2176.56,-602.42 2201.52,-618.17 2218,-590 2230.96,-567.83 2211.92,-390.33 2205.2,-331.71"/>
<polygon fill="midnightblue" stroke="midnightblue" points="2208.66,-331.19 2204.03,-321.66 2201.71,-331.99 2208.66,-331.19"/>
</g>
<!-- Node75&#45;&gt;Node63 -->
<g id="edge107" class="edge">
<title>Node75&#45;&gt;Node63</title>
<path fill="none" stroke="midnightblue" d="M2076.94,-749.33C2071.61,-727.74 2056.25,-670.1 2034,-626 2029.15,-616.39 2022.68,-606.5 2016.63,-598.06"/>
<polygon fill="midnightblue" stroke="midnightblue" points="2019.32,-595.8 2010.55,-589.85 2013.69,-599.97 2019.32,-595.8"/>
</g>
<!-- Node75&#45;&gt;Node79 -->
<g id="edge100" class="edge">
<title>Node75&#45;&gt;Node79</title>
<path fill="none" stroke="midnightblue" d="M2127.15,-750.61C2226.57,-732.46 2453.09,-675.51 2547,-523 2576.12,-475.71 2515.77,-422.58 2476.06,-394.46"/>
<polygon fill="midnightblue" stroke="midnightblue" points="2477.67,-391.32 2467.45,-388.52 2473.69,-397.08 2477.67,-391.32"/>
</g>
<!-- Node75&#45;&gt;Node92 -->
<g id="edge108" class="edge">
<title>Node75&#45;&gt;Node92</title>
<path fill="none" stroke="midnightblue" d="M2056.65,-749.48C2033.94,-740.81 1998.1,-727.15 1969.25,-716.14"/>
<polygon fill="midnightblue" stroke="midnightblue" points="1970.36,-712.82 1959.77,-712.52 1967.86,-719.36 1970.36,-712.82"/>
</g>
<!-- Node79&#45;&gt;Node2 -->
<g id="edge102" class="edge">
<title>Node79&#45;&gt;Node2</title>
<path fill="none" stroke="midnightblue" d="M2392.11,-370.65C2110.12,-360.58 793.68,-311.32 721,-266 692.79,-248.41 684,-234.24 684,-201 684,-201 684,-201 684,-143 684,-40.61 521.29,-21 450.38,-17.32"/>
<polygon fill="midnightblue" stroke="midnightblue" points="450.37,-13.81 440.22,-16.87 450.06,-20.81 450.37,-13.81"/>
</g>
<!-- Node79&#45;&gt;Node3 -->
<g id="edge103" class="edge">
<title>Node79&#45;&gt;Node3</title>
<path fill="none" stroke="midnightblue" d="M2448.53,-358.48C2459.61,-310.86 2488.63,-153.53 2413,-67 2395.11,-46.53 2367.17,-33.81 2344.06,-26.26"/>
<polygon fill="midnightblue" stroke="midnightblue" points="2345.08,-22.91 2334.49,-23.33 2343.03,-29.6 2345.08,-22.91"/>
</g>
<!-- Node79&#45;&gt;Node4 -->
<g id="edge101" class="edge">
<title>Node79&#45;&gt;Node4</title>
<path fill="none" stroke="midnightblue" d="M2471.19,-358.5C2545.71,-318.57 2765.16,-200.44 2945,-98 2985.66,-74.84 3032.45,-46.94 3059.77,-30.52"/>
<polygon fill="midnightblue" stroke="midnightblue" points="3061.82,-33.37 3068.58,-25.22 3058.21,-27.37 3061.82,-33.37"/>
</g>
<!-- Node79&#45;&gt;Node6 -->
<g id="edge106" class="edge">
<title>Node79&#45;&gt;Node6</title>
<path fill="none" stroke="midnightblue" d="M2417.67,-358.46C2384.25,-341.98 2325.52,-315.23 2272,-302 2112.9,-262.66 2063.11,-309.17 1905,-266 1884.67,-260.45 1882.38,-251.36 1862,-246 1665.38,-194.31 1608.09,-232.17 1406,-210 1404.54,-209.84 1403.05,-209.67 1401.56,-209.5"/>
<polygon fill="midnightblue" stroke="midnightblue" points="1401.93,-206.02 1391.58,-208.28 1401.08,-212.97 1401.93,-206.02"/>
</g>
<!-- Node79&#45;&gt;Node8 -->
<g id="edge104" class="edge">
<title>Node79&#45;&gt;Node8</title>
<path fill="none" stroke="midnightblue" d="M2462.14,-358.24C2472.27,-348.92 2484.53,-335.93 2492,-322 2532.6,-246.28 2515.52,-217.19 2537,-134 2539.78,-123.25 2543.09,-111.27 2545.79,-101.68"/>
<polygon fill="midnightblue" stroke="midnightblue" points="2549.16,-102.63 2548.53,-92.05 2542.43,-100.71 2549.16,-102.63"/>
</g>
<!-- Node79&#45;&gt;Node61 -->
<g id="edge105" class="edge">
<title>Node79&#45;&gt;Node61</title>
<path fill="none" stroke="midnightblue" d="M2392.49,-359.59C2346.23,-348.21 2280.05,-331.94 2239.39,-321.95"/>
<polygon fill="midnightblue" stroke="midnightblue" points="2240.18,-318.54 2229.63,-319.55 2238.5,-325.33 2240.18,-318.54"/>
</g>
<!-- Node92&#45;&gt;Node6 -->
<g id="edge109" class="edge">
<title>Node92&#45;&gt;Node6</title>
<path fill="none" stroke="midnightblue" d="M1859.61,-694.7C1762.98,-689.39 1575.84,-668.82 1441,-590 1310.19,-513.54 1330.16,-286.36 1339.16,-219.63"/>
<polygon fill="midnightblue" stroke="midnightblue" points="1342.62,-220.11 1340.57,-209.72 1335.69,-219.12 1342.62,-220.11"/>
</g>
<!-- Node92&#45;&gt;Node62 -->
<g id="edge127" class="edge">
<title>Node92&#45;&gt;Node62</title>
<path fill="none" stroke="midnightblue" d="M1986.2,-684.17C2041.65,-673.35 2121.43,-657.79 2173.97,-647.54"/>
<polygon fill="midnightblue" stroke="midnightblue" points="2174.95,-650.92 2184.1,-645.56 2173.61,-644.04 2174.95,-650.92"/>
</g>
<!-- Node92&#45;&gt;Node64 -->
<g id="edge126" class="edge">
<title>Node92&#45;&gt;Node64</title>
<path fill="none" stroke="midnightblue" d="M1897.41,-682.38C1882.78,-673.39 1864.86,-660.68 1852,-646 1848.54,-642.05 1778.66,-508.09 1753.19,-459.16"/>
<polygon fill="midnightblue" stroke="midnightblue" points="1756.19,-457.34 1748.47,-450.09 1749.98,-460.58 1756.19,-457.34"/>
</g>
<!-- Node93 -->
<g id="node36" class="node">
<title>Node93</title>
<g id="a_node36"><a xlink:href="../../d1/d77/node_8h.html" target="_top" xlink:title=" ">
<polygon fill="none" stroke="red" points="1860.5,-626.5 1860.5,-645.5 1953.5,-645.5 1953.5,-626.5 1860.5,-626.5"/>
<text text-anchor="middle" x="1907" y="-633.5" font-family="Helvetica,sans-Serif" font-size="10.00">includes/node.h</text>
</a>
</g>
</g>
<!-- Node92&#45;&gt;Node93 -->
<g id="edge110" class="edge">
<title>Node92&#45;&gt;Node93</title>
<path fill="none" stroke="midnightblue" d="M1919.21,-682.4C1917.05,-674.38 1914.32,-664.23 1911.99,-655.57"/>
<polygon fill="midnightblue" stroke="midnightblue" points="1915.3,-654.41 1909.33,-645.66 1908.55,-656.22 1915.3,-654.41"/>
</g>
<!-- Node93&#45;&gt;Node2 -->
<g id="edge111" class="edge">
<title>Node93&#45;&gt;Node2</title>
<path fill="none" stroke="midnightblue" d="M1860.41,-635.35C1723.23,-635.83 1309.03,-633.31 969,-590 824.21,-571.56 447.47,-536.93 326,-456 261.88,-413.28 228,-390.05 228,-313 228,-313 228,-313 228,-143 228,-105.03 238.2,-91.74 267,-67 301.06,-37.74 352.68,-25.28 385.87,-20.08"/>
<polygon fill="midnightblue" stroke="midnightblue" points="386.55,-23.52 395.96,-18.64 385.56,-16.59 386.55,-23.52"/>
</g>
<!-- Node93&#45;&gt;Node3 -->
<g id="edge112" class="edge">
<title>Node93&#45;&gt;Node3</title>
<path fill="none" stroke="midnightblue" d="M1953.56,-633.85C2061.9,-629.69 2337.58,-610.62 2547,-523 2728.49,-447.07 2788.5,-393.28 2860,-210 2883.17,-150.62 2897.16,-108.76 2849,-67 2811.06,-34.1 2464.23,-21.1 2344.46,-17.57"/>
<polygon fill="midnightblue" stroke="midnightblue" points="2344.34,-14.07 2334.25,-17.28 2344.14,-21.06 2344.34,-14.07"/>
</g>
<!-- Node93&#45;&gt;Node6 -->
<g id="edge115" class="edge">
<title>Node93&#45;&gt;Node6</title>
<path fill="none" stroke="midnightblue" d="M1905.9,-626.09C1901.36,-593.42 1881.03,-479.36 1813,-425 1749.61,-374.34 1702.11,-433.12 1634,-389 1568.48,-346.56 1596.79,-289.56 1532,-246 1520.59,-238.33 1447.38,-222.32 1395.25,-211.61"/>
<polygon fill="midnightblue" stroke="midnightblue" points="1395.63,-208.12 1385.13,-209.54 1394.23,-214.97 1395.63,-208.12"/>
</g>
<!-- Node93&#45;&gt;Node8 -->
<g id="edge113" class="edge">
<title>Node93&#45;&gt;Node8</title>
<path fill="none" stroke="midnightblue" d="M1946.38,-626.5C1987.77,-617.16 2049.75,-601.91 2071,-590 2088.55,-580.16 2086.73,-569.34 2104,-559 2205.6,-498.18 2539.91,-485.16 2609,-389 2642.73,-342.05 2579.43,-159.84 2557.84,-101.54"/>
<polygon fill="midnightblue" stroke="midnightblue" points="2561.11,-100.3 2554.33,-92.16 2554.56,-102.75 2561.11,-100.3"/>
</g>
<!-- Node93&#45;&gt;Node13 -->
<g id="edge116" class="edge">
<title>Node93&#45;&gt;Node13</title>
<path fill="none" stroke="midnightblue" d="M1860.39,-635.09C1643.09,-634.33 735.21,-617.39 619,-389 577.98,-308.38 694.65,-270.67 741,-246 895.53,-163.73 953.87,-195.26 1124,-154 1199.78,-135.62 1286.72,-114.31 1345.08,-99.97"/>
<polygon fill="midnightblue" stroke="midnightblue" points="1346.04,-103.34 1354.91,-97.55 1344.37,-96.54 1346.04,-103.34"/>
</g>
<!-- Node93&#45;&gt;Node61 -->
<g id="edge114" class="edge">
<title>Node93&#45;&gt;Node61</title>
<path fill="none" stroke="midnightblue" d="M1907.89,-626.46C1909.73,-611.77 1914.94,-581.17 1928,-559 1993.34,-448.1 2125.53,-359.74 2179.37,-326.86"/>
<polygon fill="midnightblue" stroke="midnightblue" points="2181.43,-329.7 2188.19,-321.54 2177.82,-323.7 2181.43,-329.7"/>
</g>
<!-- Node93&#45;&gt;Node63 -->
<g id="edge122" class="edge">
<title>Node93&#45;&gt;Node63</title>
<path fill="none" stroke="midnightblue" d="M1920.18,-626.48C1932.76,-618.34 1952.16,-605.79 1968.57,-595.18"/>
<polygon fill="midnightblue" stroke="midnightblue" points="1970.82,-597.89 1977.32,-589.52 1967.02,-592.01 1970.82,-597.89"/>
</g>
<!-- Node101 -->
<g id="node37" class="node">
<title>Node101</title>
<g id="a_node37"><a xlink:href="../../de/d44/global__pointers__vector_8h.html" target="_top" xlink:title=" ">
<polygon fill="none" stroke="red" points="2392,-492.5 2392,-522.5 2538,-522.5 2538,-492.5 2392,-492.5"/>
<text text-anchor="start" x="2400" y="-510.5" font-family="Helvetica,sans-Serif" font-size="10.00">containers/global_pointers</text>
<text text-anchor="middle" x="2465" y="-499.5" font-family="Helvetica,sans-Serif" font-size="10.00">_vector.h</text>
</a>
</g>
</g>
<!-- Node93&#45;&gt;Node101 -->
<g id="edge117" class="edge">
<title>Node93&#45;&gt;Node101</title>
<path fill="none" stroke="midnightblue" d="M1952.98,-626.42C2002.3,-616.88 2077.17,-601.31 2104,-590 2127.4,-580.13 2128.29,-568.11 2152,-559 2192.82,-543.32 2303.51,-527.66 2381.64,-518.02"/>
<polygon fill="midnightblue" stroke="midnightblue" points="2382.46,-521.45 2391.96,-516.76 2381.61,-514.5 2382.46,-521.45"/>
</g>
<!-- Node93&#45;&gt;Node104 -->
<g id="edge123" class="edge">
<title>Node93&#45;&gt;Node104</title>
<path fill="none" stroke="midnightblue" d="M1860.37,-627.94C1790.86,-617.42 1659.75,-597.57 1580.29,-585.54"/>
<polygon fill="midnightblue" stroke="midnightblue" points="1580.8,-582.07 1570.38,-584.04 1579.75,-588.99 1580.8,-582.07"/>
</g>
<!-- Node101&#45;&gt;Node3 -->
<g id="edge119" class="edge">
<title>Node101&#45;&gt;Node3</title>
<path fill="none" stroke="midnightblue" d="M2515.14,-492.44C2566.24,-475.7 2644.53,-442.99 2692,-389 2791.49,-275.85 2898.97,-178.82 2798,-67 2767.78,-33.53 2456.91,-21.04 2344.38,-17.59"/>
<polygon fill="midnightblue" stroke="midnightblue" points="2344.23,-14.08 2334.13,-17.28 2344.02,-21.08 2344.23,-14.08"/>
</g>
<!-- Node101&#45;&gt;Node4 -->
<g id="edge118" class="edge">
<title>Node101&#45;&gt;Node4</title>
<path fill="none" stroke="midnightblue" d="M2538.04,-493.28C2645.5,-471.26 2849.32,-419.56 2996,-322 3101.65,-251.73 3137.63,-219.86 3173,-98 3176.84,-84.77 3179.96,-78.89 3173,-67 3160.79,-46.14 3136.45,-33.24 3116.16,-25.7"/>
<polygon fill="midnightblue" stroke="midnightblue" points="3117.19,-22.36 3106.59,-22.43 3114.92,-28.98 3117.19,-22.36"/>
</g>
<!-- Node101&#45;&gt;Node6 -->
<g id="edge120" class="edge">
<title>Node101&#45;&gt;Node6</title>
<path fill="none" stroke="midnightblue" d="M2451.81,-492.46C2411.63,-450.02 2290.32,-324.63 2239,-302 2084.99,-234.08 2027.71,-295.51 1862,-266 1827.61,-259.88 1820.4,-252.07 1786,-246 1618.27,-216.38 1571.01,-231.43 1401.74,-210.56"/>
<polygon fill="midnightblue" stroke="midnightblue" points="1402.1,-207.07 1391.74,-209.3 1401.23,-214.02 1402.1,-207.07"/>
</g>
<!-- Node101&#45;&gt;Node21 -->
<g id="edge121" class="edge">
<title>Node101&#45;&gt;Node21</title>
<path fill="none" stroke="midnightblue" d="M2406.52,-492.5C2368.51,-483.04 2318.02,-469.8 2274,-456 2202.99,-433.74 1993.73,-355.45 1913.14,-325.12"/>
<polygon fill="midnightblue" stroke="midnightblue" points="1914.12,-321.75 1903.53,-321.5 1911.65,-328.3 1914.12,-321.75"/>
</g>
<!-- Node104&#45;&gt;Node6 -->
<g id="edge124" class="edge">
<title>Node104&#45;&gt;Node6</title>
<path fill="none" stroke="midnightblue" d="M1472.44,-564.94C1448.43,-557.81 1419.76,-545.1 1403,-523 1362.65,-469.78 1380,-441.29 1380,-374.5 1380,-374.5 1380,-374.5 1380,-311 1380,-276.81 1363.4,-239.76 1352.14,-218.57"/>
<polygon fill="midnightblue" stroke="midnightblue" points="1355.18,-216.83 1347.28,-209.77 1349.05,-220.22 1355.18,-216.83"/>
</g>
<!-- Node104&#45;&gt;Node67 -->
<g id="edge125" class="edge">
<title>Node104&#45;&gt;Node67</title>
<path fill="none" stroke="midnightblue" d="M1526.54,-564.73C1541.88,-554.01 1568.06,-535.72 1586.38,-522.91"/>
<polygon fill="midnightblue" stroke="midnightblue" points="1588.46,-525.72 1594.66,-517.13 1584.45,-519.99 1588.46,-525.72"/>
</g>
<!-- Node105&#45;&gt;Node6 -->
<g id="edge129" class="edge">
<title>Node105&#45;&gt;Node6</title>
<path fill="none" stroke="midnightblue" d="M864.17,-425.4C855.9,-408.45 845.52,-379.6 857,-358 877.89,-318.71 981.46,-261.96 1023,-246 1023.38,-245.85 1189.91,-222.4 1282.18,-209.42"/>
<polygon fill="midnightblue" stroke="midnightblue" points="1282.82,-212.86 1292.23,-208 1281.84,-205.93 1282.82,-212.86"/>
</g>
<!-- Node105&#45;&gt;Node106 -->
<g id="edge130" class="edge">
<title>Node105&#45;&gt;Node106</title>
<path fill="none" stroke="midnightblue" d="M882.2,-425.4C888.23,-417.05 896.02,-406.29 902.87,-396.81"/>
<polygon fill="midnightblue" stroke="midnightblue" points="905.8,-398.73 908.82,-388.58 900.13,-394.63 905.8,-398.73"/>
</g>
<!-- Node106&#45;&gt;Node6 -->
<g id="edge132" class="edge">
<title>Node106&#45;&gt;Node6</title>
<path fill="none" stroke="midnightblue" d="M929.67,-358.21C951.16,-330.69 1002.7,-270.87 1062,-246 1072.08,-241.77 1202.83,-221.77 1282.04,-209.9"/>
<polygon fill="midnightblue" stroke="midnightblue" points="1283.01,-213.29 1292.39,-208.35 1281.98,-206.37 1283.01,-213.29"/>
</g>
<!-- Node106&#45;&gt;Node11 -->
<g id="edge131" class="edge">
<title>Node106&#45;&gt;Node11</title>
<path fill="none" stroke="midnightblue" d="M870.19,-358.38C827.59,-343.17 768.44,-314.4 741,-266 705.3,-203.04 788.11,-129.16 828.47,-98.26"/>
<polygon fill="midnightblue" stroke="midnightblue" points="830.7,-100.96 836.61,-92.17 826.51,-95.36 830.7,-100.96"/>
</g>
<!-- Node106&#45;&gt;Node21 -->
<g id="edge133" class="edge">
<title>Node106&#45;&gt;Node21</title>
<path fill="none" stroke="midnightblue" d="M971.75,-369.24C1135.2,-359.13 1633.12,-328.33 1814.24,-317.13"/>
<polygon fill="midnightblue" stroke="midnightblue" points="1814.65,-320.61 1824.42,-316.5 1814.22,-313.62 1814.65,-320.61"/>
</g>
<!-- Node107&#45;&gt;Node18 -->
<g id="edge136" class="edge">
<title>Node107&#45;&gt;Node18</title>
<path fill="none" stroke="midnightblue" d="M2389.81,-749.48C2431.52,-738.96 2502.51,-721.06 2548.31,-709.51"/>
<polygon fill="midnightblue" stroke="midnightblue" points="2549.41,-712.85 2558.25,-707.01 2547.7,-706.06 2549.41,-712.85"/>
</g>
<!-- Node107&#45;&gt;Node62 -->
<g id="edge135" class="edge">
<title>Node107&#45;&gt;Node62</title>
<path fill="none" stroke="midnightblue" d="M2346.79,-749.3C2325.39,-729.07 2272.03,-678.62 2244.7,-652.79"/>
<polygon fill="midnightblue" stroke="midnightblue" points="2246.79,-649.95 2237.12,-645.62 2241.98,-655.04 2246.79,-649.95"/>
</g>
<!-- Node107&#45;&gt;Node101 -->
<g id="edge137" class="edge">
<title>Node107&#45;&gt;Node101</title>
<path fill="none" stroke="midnightblue" d="M2359.75,-749.41C2374.84,-714.88 2431.39,-585.44 2454.78,-531.9"/>
<polygon fill="midnightblue" stroke="midnightblue" points="2458.07,-533.11 2458.87,-522.54 2451.65,-530.3 2458.07,-533.11"/>
</g>
<!-- Node121&#45;&gt;Node18 -->
<g id="edge140" class="edge">
<title>Node121&#45;&gt;Node18</title>
<path fill="none" stroke="midnightblue" d="M2501.19,-749.48C2518.66,-739.67 2547.58,-723.43 2568.08,-711.92"/>
<polygon fill="midnightblue" stroke="midnightblue" points="2569.83,-714.96 2576.84,-707.01 2566.41,-708.85 2569.83,-714.96"/>
</g>
<!-- Node121&#45;&gt;Node62 -->
<g id="edge139" class="edge">
<title>Node121&#45;&gt;Node62</title>
<path fill="none" stroke="midnightblue" d="M2467.86,-749.49C2423.37,-728.63 2308.64,-674.82 2255.62,-649.95"/>
<polygon fill="midnightblue" stroke="midnightblue" points="2257.01,-646.74 2246.47,-645.66 2254.03,-653.08 2257.01,-646.74"/>
</g>
<!-- Node121&#45;&gt;Node101 -->
<g id="edge141" class="edge">
<title>Node121&#45;&gt;Node101</title>
<path fill="none" stroke="midnightblue" d="M2543.25,-750.83C2633.27,-737.11 2792.44,-701.53 2739,-626 2711.23,-586.76 2681.45,-608.32 2637,-590 2589.39,-570.38 2536,-544.44 2501.52,-527.15"/>
<polygon fill="midnightblue" stroke="midnightblue" points="2502.82,-523.89 2492.31,-522.52 2499.67,-530.14 2502.82,-523.89"/>
</g>
<!-- Node122&#45;&gt;Node2 -->
<g id="edge143" class="edge">
<title>Node122&#45;&gt;Node2</title>
<path fill="none" stroke="midnightblue" d="M2297.36,-813.51C1921.51,-809.04 152,-764.06 152,-313 152,-313 152,-313 152,-143 152,-40.61 314.71,-21 385.62,-17.32"/>
<polygon fill="midnightblue" stroke="midnightblue" points="385.94,-20.81 395.78,-16.87 385.63,-13.81 385.94,-20.81"/>
</g>
<!-- Node122&#45;&gt;Node3 -->
<g id="edge144" class="edge">
<title>Node122&#45;&gt;Node3</title>
<path fill="none" stroke="midnightblue" d="M2436.87,-809.21C2524.91,-802.46 2670.77,-788.75 2721,-769 2981.53,-666.58 3163.5,-510.56 3072,-246 3037.02,-144.88 3009.01,-109.92 2911,-67 2808.86,-22.27 2463.09,-16.97 2344.39,-16.48"/>
<polygon fill="midnightblue" stroke="midnightblue" points="2344.29,-12.98 2334.28,-16.45 2344.27,-19.98 2344.29,-12.98"/>
</g>
<!-- Node122&#45;&gt;Node6 -->
<g id="edge147" class="edge">
<title>Node122&#45;&gt;Node6</title>
<path fill="none" stroke="midnightblue" d="M2297.33,-811.16C2118.8,-803.04 1649.09,-776.13 1508,-713 1358.82,-646.25 1304.61,-608.17 1245,-456 1209.84,-366.24 1291.89,-258.03 1327.01,-217.44"/>
<polygon fill="midnightblue" stroke="midnightblue" points="1329.73,-219.64 1333.73,-209.83 1324.49,-215.01 1329.73,-219.64"/>
</g>
<!-- Node122&#45;&gt;Node8 -->
<g id="edge145" class="edge">
<title>Node122&#45;&gt;Node8</title>
<path fill="none" stroke="midnightblue" d="M2436.65,-812.83C2502.75,-809.73 2603.91,-799.77 2686,-769 2728.71,-752.99 2739.95,-745.45 2772,-713 2822.19,-662.18 2944,-512.92 2944,-441.5 2944,-441.5 2944,-441.5 2944,-372.5 2944,-197.46 2687.83,-116.68 2589.13,-92.05"/>
<polygon fill="midnightblue" stroke="midnightblue" points="2589.81,-88.62 2579.26,-89.65 2588.15,-95.42 2589.81,-88.62"/>
</g>
<!-- Node122&#45;&gt;Node61 -->
<g id="edge146" class="edge">
<title>Node122&#45;&gt;Node61</title>
<path fill="none" stroke="midnightblue" d="M2436.63,-808.79C2566.65,-795.96 2827.14,-753.95 2757,-626 2703.15,-527.75 2409.73,-443.79 2312,-389 2278.72,-370.34 2242.95,-344.08 2221.8,-327.82"/>
<polygon fill="midnightblue" stroke="midnightblue" points="2223.72,-324.88 2213.68,-321.51 2219.43,-330.41 2223.72,-324.88"/>
</g>
<!-- Node122&#45;&gt;Node75 -->
<g id="edge150" class="edge">
<title>Node122&#45;&gt;Node75</title>
<path fill="none" stroke="midnightblue" d="M2321.37,-805.44C2270.7,-795.94 2188.93,-780.61 2134.57,-770.42"/>
<polygon fill="midnightblue" stroke="midnightblue" points="2134.89,-766.92 2124.42,-768.52 2133.6,-773.8 2134.89,-766.92"/>
</g>
<!-- Node122&#45;&gt;Node107 -->
<g id="edge149" class="edge">
<title>Node122&#45;&gt;Node107</title>
<path fill="none" stroke="midnightblue" d="M2365.18,-805.08C2363.73,-797.93 2361.63,-787.64 2359.81,-778.69"/>
<polygon fill="midnightblue" stroke="midnightblue" points="2363.21,-777.85 2357.78,-768.75 2356.35,-779.25 2363.21,-777.85"/>
</g>
<!-- Node122&#45;&gt;Node121 -->
<g id="edge148" class="edge">
<title>Node122&#45;&gt;Node121</title>
<path fill="none" stroke="midnightblue" d="M2385.86,-805.44C2405.27,-796.64 2435.73,-782.81 2457.96,-772.72"/>
<polygon fill="midnightblue" stroke="midnightblue" points="2459.57,-775.84 2467.23,-768.52 2456.68,-769.46 2459.57,-775.84"/>
</g>
<!-- Node109&#45;&gt;Node2 -->
<g id="edge152" class="edge">
<title>Node109&#45;&gt;Node2</title>
<path fill="none" stroke="midnightblue" d="M1411.77,-498.75C1395.41,-496.29 1376.93,-493.75 1360,-492 1229.57,-478.49 894.07,-501.28 771,-456 705.01,-431.72 566.51,-316.89 518,-266 497.25,-244.23 493.17,-237.04 480,-210 450.32,-149.04 430.26,-70.55 422.1,-35.21"/>
<polygon fill="midnightblue" stroke="midnightblue" points="425.49,-34.31 419.88,-25.33 418.66,-35.85 425.49,-34.31"/>
</g>
<!-- Node109&#45;&gt;Node3 -->
<g id="edge153" class="edge">
<title>Node109&#45;&gt;Node3</title>
<path fill="none" stroke="midnightblue" d="M1466.43,-497.83C1515.36,-441.02 1792.77,-122.35 1907,-67 1969.41,-36.76 2175.91,-22.97 2263.81,-18.37"/>
<polygon fill="midnightblue" stroke="midnightblue" points="2264.12,-21.86 2273.93,-17.85 2263.76,-14.87 2264.12,-21.86"/>
</g>
<!-- Node109&#45;&gt;Node6 -->
<g id="edge155" class="edge">
<title>Node109&#45;&gt;Node6</title>
<path fill="none" stroke="midnightblue" d="M1454.3,-497.83C1443.53,-477.14 1418,-422.97 1418,-374.5 1418,-374.5 1418,-374.5 1418,-311 1418,-280.2 1411.53,-271.32 1394,-246 1385.82,-234.19 1373.85,-223.54 1363.45,-215.57"/>
<polygon fill="midnightblue" stroke="midnightblue" points="1365.34,-212.62 1355.2,-209.54 1361.21,-218.27 1365.34,-212.62"/>
</g>
<!-- Node109&#45;&gt;Node54 -->
<g id="edge154" class="edge">
<title>Node109&#45;&gt;Node54</title>
<path fill="none" stroke="midnightblue" d="M1475.8,-497.96C1507.6,-482.03 1579.08,-447.37 1642,-425 1699.7,-404.48 1716.76,-407.92 1775,-389 1921.1,-341.54 1970.4,-351.53 2098,-266 2117.59,-252.87 2135.47,-232.34 2146.74,-217.88"/>
<polygon fill="midnightblue" stroke="midnightblue" points="2149.62,-219.86 2152.85,-209.77 2144.03,-215.64 2149.62,-219.86"/>
</g>
<!-- Node109&#45;&gt;Node64 -->
<g id="edge156" class="edge">
<title>Node109&#45;&gt;Node64</title>
<path fill="none" stroke="midnightblue" d="M1491.81,-497.97C1499.72,-495.96 1508.15,-493.87 1516,-492 1577,-477.49 1647.51,-462.08 1693.77,-452.16"/>
<polygon fill="midnightblue" stroke="midnightblue" points="1694.51,-455.58 1703.55,-450.06 1693.04,-448.73 1694.51,-455.58"/>
</g>
<!-- Node123&#45;&gt;Node2 -->
<g id="edge165" class="edge">
<title>Node123&#45;&gt;Node2</title>
<path fill="none" stroke="midnightblue" d="M496.71,-922.88C478.15,-914.02 449.92,-899 429,-881 203.69,-687.15 76,-610.22 76,-313 76,-313 76,-313 76,-143 76,-103.28 90.07,-89.2 123,-67 165.63,-38.25 318.66,-23.77 385.91,-18.68"/>
<polygon fill="midnightblue" stroke="midnightblue" points="386.22,-22.17 395.94,-17.94 385.71,-15.19 386.22,-22.17"/>
</g>
<!-- Node123&#45;&gt;Node3 -->
<g id="edge166" class="edge">
<title>Node123&#45;&gt;Node3</title>
<path fill="none" stroke="midnightblue" d="M504.8,-922.64C470.15,-894.16 367,-800.77 367,-698.5 367,-698.5 367,-698.5 367,-439.5 367,-126.46 926.17,-142.18 963,-134 1092.8,-105.17 1137.66,-150.08 1260,-98 1280.05,-89.46 1277.66,-74.83 1298,-67 1389.17,-31.93 2087.54,-19.61 2263.73,-17.04"/>
<polygon fill="midnightblue" stroke="midnightblue" points="2263.92,-20.54 2273.87,-16.9 2263.82,-13.54 2263.92,-20.54"/>
</g>
<!-- Node123&#45;&gt;Node6 -->
<g id="edge167" class="edge">
<title>Node123&#45;&gt;Node6</title>
<path fill="none" stroke="midnightblue" d="M517.17,-922.7C525.36,-864.62 579.06,-533.56 760,-358 788.59,-330.26 863.12,-261.08 900,-246 967.8,-218.28 1178.28,-206.92 1282.41,-202.91"/>
<polygon fill="midnightblue" stroke="midnightblue" points="1282.59,-206.4 1292.45,-202.53 1282.33,-199.41 1282.59,-206.4"/>
</g>
<!-- Node123&#45;&gt;Node60 -->
<g id="edge168" class="edge">
<title>Node123&#45;&gt;Node60</title>
<path fill="none" stroke="midnightblue" d="M563.14,-922.95C577.49,-920.65 593.35,-918.41 608,-917 1061.53,-873.38 1609.88,-870.86 1804.34,-871.51"/>
<polygon fill="midnightblue" stroke="midnightblue" points="1804.42,-875.01 1814.43,-871.55 1804.45,-868.01 1804.42,-875.01"/>
</g>
<!-- Node124&#45;&gt;Node6 -->
<g id="edge170" class="edge">
<title>Node124&#45;&gt;Node6</title>
<path fill="none" stroke="midnightblue" d="M905.79,-1051.24C899.58,-969.29 878.34,-553.09 1062,-302 1112.82,-232.52 1216.07,-210.69 1281.99,-203.93"/>
<polygon fill="midnightblue" stroke="midnightblue" points="1282.61,-207.39 1292.24,-202.97 1281.95,-200.42 1282.61,-207.39"/>
</g>
<!-- Node124&#45;&gt;Node18 -->
<g id="edge175" class="edge">
<title>Node124&#45;&gt;Node18</title>
<path fill="none" stroke="midnightblue" d="M977.65,-1065.65C1321.62,-1065.85 2811.5,-1060.16 2982,-948 3013.55,-927.25 3020,-909.76 3020,-872 3020,-872 3020,-872 3020,-814 3020,-780.08 3008.48,-767.43 2980,-749 2932.37,-718.18 2781.75,-706.08 2682.79,-701.39"/>
<polygon fill="midnightblue" stroke="midnightblue" points="2682.93,-697.9 2672.78,-700.94 2682.61,-704.89 2682.93,-697.9"/>
</g>
<!-- Node125 -->
<g id="node47" class="node">
<title>Node125</title>
<g id="a_node47"><a xlink:href="../../d9/da7/direct__solver_8h.html" target="_top" xlink:title=" ">
<polygon fill="none" stroke="black" points="775,-984.5 775,-1014.5 891,-1014.5 891,-984.5 775,-984.5"/>
<text text-anchor="start" x="783" y="-1002.5" font-family="Helvetica,sans-Serif" font-size="10.00">linear_solvers/direct</text>
<text text-anchor="middle" x="833" y="-991.5" font-family="Helvetica,sans-Serif" font-size="10.00">_solver.h</text>
</a>
</g>
</g>
<!-- Node124&#45;&gt;Node125 -->
<g id="edge171" class="edge">
<title>Node124&#45;&gt;Node125</title>
<path fill="none" stroke="midnightblue" d="M890.94,-1051.4C880.96,-1042.62 867.93,-1031.18 856.76,-1021.37"/>
<polygon fill="midnightblue" stroke="midnightblue" points="858.85,-1018.55 849.03,-1014.58 854.23,-1023.81 858.85,-1018.55"/>
</g>
<!-- Node125&#45;&gt;Node6 -->
<g id="edge172" class="edge">
<title>Node125&#45;&gt;Node6</title>
<path fill="none" stroke="midnightblue" d="M829.43,-984.19C823.92,-960.85 814,-913.09 814,-872 814,-872 814,-872 814,-758 814,-744.05 1015.19,-312.81 1024,-302 1086.99,-224.69 1209.07,-205.68 1282.28,-201.53"/>
<polygon fill="midnightblue" stroke="midnightblue" points="1282.46,-205.02 1292.27,-201.03 1282.11,-198.03 1282.46,-205.02"/>
</g>
<!-- Node125&#45;&gt;Node18 -->
<g id="edge173" class="edge">
<title>Node125&#45;&gt;Node18</title>
<path fill="none" stroke="midnightblue" d="M891.05,-990.33C910.96,-987.85 933.42,-985.41 954,-984 1009.54,-980.18 2913.39,-981.31 2958,-948 2986.38,-926.81 2982,-907.42 2982,-872 2982,-872 2982,-872 2982,-814 2982,-783.2 2982,-768.29 2958,-749 2916.82,-715.9 2777.06,-704.48 2682.66,-700.56"/>
<polygon fill="midnightblue" stroke="midnightblue" points="2682.66,-697.05 2672.53,-700.16 2682.38,-704.05 2682.66,-697.05"/>
</g>
<!-- Node125&#45;&gt;Node58 -->
<g id="edge174" class="edge">
<title>Node125&#45;&gt;Node58</title>
<path fill="none" stroke="midnightblue" d="M798.72,-984.4C775.22,-974.73 743.85,-961.82 718.57,-951.43"/>
<polygon fill="midnightblue" stroke="midnightblue" points="719.8,-948.14 709.22,-947.58 717.13,-954.62 719.8,-948.14"/>
</g>
<!-- Node126&#45;&gt;Node6 -->
<g id="edge177" class="edge">
<title>Node126&#45;&gt;Node6</title>
<path fill="none" stroke="midnightblue" d="M1114.14,-917.18C1087.78,-895.3 1044.11,-851.19 1053,-805 1098.49,-568.59 1150.83,-519.52 1254,-302 1266.19,-276.3 1266.59,-267.68 1285,-246 1294.92,-234.32 1308.26,-223.59 1319.55,-215.54"/>
<polygon fill="midnightblue" stroke="midnightblue" points="1321.79,-218.24 1328.05,-209.69 1317.83,-212.47 1321.79,-218.24"/>
</g>
<!-- Node126&#45;&gt;Node60 -->
<g id="edge178" class="edge">
<title>Node126&#45;&gt;Node60</title>
<path fill="none" stroke="midnightblue" d="M1182.68,-927.53C1310.94,-917.27 1653.66,-889.86 1804.28,-877.82"/>
<polygon fill="midnightblue" stroke="midnightblue" points="1804.66,-881.3 1814.35,-877.01 1804.1,-874.32 1804.66,-881.3"/>
</g>
<!-- Node127 -->
<g id="node49" class="node">
<title>Node127</title>
<g id="a_node49"><a xlink:href="../../d2/da6/global__pointer__variables_8h.html" target="_top" xlink:title=" ">
<polygon fill="none" stroke="black" points="1564,-682.5 1564,-712.5 1694,-712.5 1694,-682.5 1564,-682.5"/>
<text text-anchor="start" x="1572" y="-700.5" font-family="Helvetica,sans-Serif" font-size="10.00">includes/global_pointer</text>
<text text-anchor="middle" x="1629" y="-689.5" font-family="Helvetica,sans-Serif" font-size="10.00">_variables.h</text>
</a>
</g>
</g>
<!-- Node126&#45;&gt;Node127 -->
<g id="edge179" class="edge">
<title>Node126&#45;&gt;Node127</title>
<path fill="none" stroke="midnightblue" d="M1162.91,-917.45C1248.45,-877.27 1494.08,-761.88 1589.98,-716.83"/>
<polygon fill="midnightblue" stroke="midnightblue" points="1591.49,-719.99 1599.05,-712.57 1588.51,-713.65 1591.49,-719.99"/>
</g>
<!-- Node128 -->
<g id="node50" class="node">
<title>Node128</title>
<g id="a_node50"><a xlink:href="../../da/d3c/atomic__utilities_8h.html" target="_top" xlink:title=" ">
<polygon fill="none" stroke="red" points="1062.5,-805.5 1062.5,-824.5 1203.5,-824.5 1203.5,-805.5 1062.5,-805.5"/>
<text text-anchor="middle" x="1133" y="-812.5" font-family="Helvetica,sans-Serif" font-size="10.00">utilities/atomic_utilities.h</text>
</a>
</g>
</g>
<!-- Node126&#45;&gt;Node128 -->
<g id="edge186" class="edge">
<title>Node126&#45;&gt;Node128</title>
<path fill="none" stroke="midnightblue" d="M1133,-917.34C1133,-896.62 1133,-858.02 1133,-834.9"/>
<polygon fill="midnightblue" stroke="midnightblue" points="1136.5,-834.67 1133,-824.67 1129.5,-834.67 1136.5,-834.67"/>
</g>
<!-- Node127&#45;&gt;Node2 -->
<g id="edge180" class="edge">
<title>Node127&#45;&gt;Node2</title>
<path fill="none" stroke="midnightblue" d="M1563.77,-687.1C1420.47,-666.25 1081.97,-615.97 969,-590 868.14,-566.82 841.57,-562.69 746,-523 630.3,-474.95 602.69,-457.81 498,-389 397.67,-323.06 304,-321.07 304,-201 304,-201 304,-201 304,-143 304,-90.57 358.7,-50.08 392.32,-30.14"/>
<polygon fill="midnightblue" stroke="midnightblue" points="394.24,-33.08 401.18,-25.07 390.76,-27 394.24,-33.08"/>
</g>
<!-- Node127&#45;&gt;Node3 -->
<g id="edge181" class="edge">
<title>Node127&#45;&gt;Node3</title>
<path fill="none" stroke="midnightblue" d="M1694.09,-692.12C1851.41,-681.45 2243.79,-654.41 2303,-646 2422.61,-629 2452.62,-622.41 2569,-590 2656.07,-565.75 2676.68,-555.55 2761,-523 2884.79,-475.21 3020,-507.19 3020,-374.5 3020,-374.5 3020,-374.5 3020,-311 3020,-184.85 2981.78,-134.16 2875,-67 2830.29,-38.88 2467,-22.67 2344.31,-17.95"/>
<polygon fill="midnightblue" stroke="midnightblue" points="2344.33,-14.45 2334.21,-17.57 2344.07,-21.45 2344.33,-14.45"/>
</g>
<!-- Node127&#45;&gt;Node6 -->
<g id="edge182" class="edge">
<title>Node127&#45;&gt;Node6</title>
<path fill="none" stroke="midnightblue" d="M1641.33,-682.35C1669.34,-648.4 1732.82,-560.05 1699,-492 1665.25,-424.1 1618.77,-440.37 1563,-389 1500.27,-331.21 1503.13,-297.33 1435,-246 1416.91,-232.37 1394.03,-221.23 1375.49,-213.45"/>
<polygon fill="midnightblue" stroke="midnightblue" points="1376.55,-210.1 1365.97,-209.58 1373.92,-216.59 1376.55,-210.1"/>
</g>
<!-- Node127&#45;&gt;Node67 -->
<g id="edge183" class="edge">
<title>Node127&#45;&gt;Node67</title>
<path fill="none" stroke="midnightblue" d="M1627.35,-682.37C1623.43,-648.94 1613.61,-564.97 1609.2,-527.3"/>
<polygon fill="midnightblue" stroke="midnightblue" points="1612.66,-526.73 1608.02,-517.21 1605.7,-527.55 1612.66,-526.73"/>
</g>
<!-- Node127&#45;&gt;Node93 -->
<g id="edge185" class="edge">
<title>Node127&#45;&gt;Node93</title>
<path fill="none" stroke="midnightblue" d="M1694.18,-682.55C1744.01,-671.88 1811.68,-657.4 1857.22,-647.65"/>
<polygon fill="midnightblue" stroke="midnightblue" points="1858.11,-651.04 1867.15,-645.53 1856.64,-644.2 1858.11,-651.04"/>
</g>
<!-- Node127&#45;&gt;Node101 -->
<g id="edge184" class="edge">
<title>Node127&#45;&gt;Node101</title>
<path fill="none" stroke="midnightblue" d="M1694.06,-688.96C1761.67,-680.59 1870.34,-665.62 1963,-646 2128.26,-611 2319.85,-553.8 2411.19,-525.48"/>
<polygon fill="midnightblue" stroke="midnightblue" points="2412.26,-528.81 2420.77,-522.5 2410.18,-522.13 2412.26,-528.81"/>
</g>
<!-- Node128&#45;&gt;Node6 -->
<g id="edge187" class="edge">
<title>Node128&#45;&gt;Node6</title>
<path fill="none" stroke="midnightblue" d="M1135.65,-805.24C1151.7,-752.36 1238.03,-470.67 1323,-246 1326.42,-236.97 1330.56,-227.06 1334.1,-218.85"/>
<polygon fill="midnightblue" stroke="midnightblue" points="1337.36,-220.11 1338.16,-209.55 1330.95,-217.31 1337.36,-220.11"/>
</g>
</g>
</svg>
