<?xml version="1.0" encoding="UTF-8" standalone="no"?>
<!DOCTYPE svg PUBLIC "-//W3C//DTD SVG 1.1//EN"
 "http://www.w3.org/Graphics/SVG/1.1/DTD/svg11.dtd">
<!-- Generated by graphviz version 2.43.0 (0)
 -->
<!-- Title: /home/runner/work/Documentation/Documentation/master/applications/FluidDynamicsApplication/custom_elements/d_vms.h Pages: 1 -->
<svg width="3172pt" height="955pt"
 viewBox="0.00 0.00 3172.03 955.00" xmlns="http://www.w3.org/2000/svg" xmlns:xlink="http://www.w3.org/1999/xlink">
<g id="graph0" class="graph" transform="scale(1 1) rotate(0) translate(4 951)">
<title>/home/runner/work/Documentation/Documentation/master/applications/FluidDynamicsApplication/custom_elements/d_vms.h</title>
<!-- Node1 -->
<g id="node1" class="node">
<title>Node1</title>
<g id="a_node1"><a xlink:title=" ">
<polygon fill="#bfbfbf" stroke="black" points="1902.03,-894.5 1902.03,-946.5 2096.03,-946.5 2096.03,-894.5 1902.03,-894.5"/>
<text text-anchor="start" x="1910.03" y="-934.5" font-family="Helvetica,sans-Serif" font-size="10.00">/home/runner/work/Documentation</text>
<text text-anchor="start" x="1910.03" y="-923.5" font-family="Helvetica,sans-Serif" font-size="10.00">/Documentation/master/applications</text>
<text text-anchor="start" x="1910.03" y="-912.5" font-family="Helvetica,sans-Serif" font-size="10.00">/FluidDynamicsApplication/custom</text>
<text text-anchor="middle" x="1999.03" y="-901.5" font-family="Helvetica,sans-Serif" font-size="10.00">_elements/d_vms.h</text>
</a>
</g>
</g>
<!-- Node2 -->
<g id="node2" class="node">
<title>Node2</title>
<g id="a_node2"><a xlink:href="../../df/d67/define_8h.html" target="_top" xlink:title=" ">
<polygon fill="none" stroke="black" points="1520.53,-123.5 1520.53,-142.5 1619.53,-142.5 1619.53,-123.5 1520.53,-123.5"/>
<text text-anchor="middle" x="1570.03" y="-130.5" font-family="Helvetica,sans-Serif" font-size="10.00">includes/define.h</text>
</a>
</g>
</g>
<!-- Node1&#45;&gt;Node2 -->
<g id="edge1" class="edge">
<title>Node1&#45;&gt;Node2</title>
<path fill="none" stroke="midnightblue" d="M2096.1,-917.31C2369.47,-909.87 3126.03,-879.92 3126.03,-776.5 3126.03,-776.5 3126.03,-776.5 3126.03,-383.5 3126.03,-249.63 2986.72,-282.9 2858.03,-246 2675.81,-193.75 2610.81,-275.81 2433.03,-210 2410.94,-201.82 2412.27,-186.79 2390.03,-179 2236.75,-125.3 1822,-155.08 1660.03,-143 1650.39,-142.28 1640.17,-141.39 1630.22,-140.44"/>
<polygon fill="midnightblue" stroke="midnightblue" points="1630.27,-136.93 1619.98,-139.45 1629.6,-143.9 1630.27,-136.93"/>
</g>
<!-- Node16 -->
<g id="node13" class="node">
<title>Node16</title>
<g id="a_node13"><a xlink:href="../../d4/dfe/element_8h.html" target="_top" xlink:title=" ">
<polygon fill="none" stroke="black" points="1944.03,-570.5 1944.03,-589.5 2054.03,-589.5 2054.03,-570.5 1944.03,-570.5"/>
<text text-anchor="middle" x="1999.03" y="-577.5" font-family="Helvetica,sans-Serif" font-size="10.00">includes/element.h</text>
</a>
</g>
</g>
<!-- Node1&#45;&gt;Node16 -->
<g id="edge16" class="edge">
<title>Node1&#45;&gt;Node16</title>
<path fill="none" stroke="midnightblue" d="M2033.75,-894.35C2045.7,-884.21 2058.28,-871.67 2067.03,-858 2083.87,-831.72 2083.31,-821.85 2088.03,-791 2099.5,-716.09 2087.18,-688.98 2045.03,-626 2037.61,-614.91 2027.1,-604.37 2018,-596.29"/>
<polygon fill="midnightblue" stroke="midnightblue" points="2020.05,-593.43 2010.17,-589.6 2015.51,-598.76 2020.05,-593.43"/>
</g>
<!-- Node88 -->
<g id="node24" class="node">
<title>Node88</title>
<g id="a_node24"><a xlink:href="../../d4/d67/geometry_8h.html" target="_top" xlink:title=" ">
<polygon fill="none" stroke="black" points="2211.03,-442 2211.03,-461 2341.03,-461 2341.03,-442 2211.03,-442"/>
<text text-anchor="middle" x="2276.03" y="-449" font-family="Helvetica,sans-Serif" font-size="10.00">geometries/geometry.h</text>
</a>
</g>
</g>
<!-- Node1&#45;&gt;Node88 -->
<g id="edge134" class="edge">
<title>Node1&#45;&gt;Node88</title>
<path fill="none" stroke="midnightblue" d="M2096.06,-904.94C2215.59,-884.21 2403.03,-841.37 2403.03,-776.5 2403.03,-776.5 2403.03,-776.5 2403.03,-579 2403.03,-524.15 2342.84,-484.87 2305.33,-465.71"/>
<polygon fill="midnightblue" stroke="midnightblue" points="2306.4,-462.34 2295.88,-461.06 2303.31,-468.62 2306.4,-462.34"/>
</g>
<!-- Node47 -->
<g id="node29" class="node">
<title>Node47</title>
<g id="a_node29"><a xlink:href="../../dd/d5f/serializer_8h.html" target="_top" xlink:title=" ">
<polygon fill="none" stroke="black" points="1615.53,-308 1615.53,-327 1728.53,-327 1728.53,-308 1615.53,-308"/>
<text text-anchor="middle" x="1672.03" y="-315" font-family="Helvetica,sans-Serif" font-size="10.00">includes/serializer.h</text>
</a>
</g>
</g>
<!-- Node1&#45;&gt;Node47 -->
<g id="edge133" class="edge">
<title>Node1&#45;&gt;Node47</title>
<path fill="none" stroke="midnightblue" d="M1901.58,-908.46C1797.87,-890.52 1641.99,-843.94 1592.03,-724 1561.81,-651.42 1574.22,-482.82 1582.03,-436 1587.22,-404.95 1586.54,-394.48 1605.03,-369 1616.05,-353.82 1632.94,-341.13 1647.01,-332.27"/>
<polygon fill="midnightblue" stroke="midnightblue" points="1648.98,-335.16 1655.75,-327.01 1645.38,-329.17 1648.98,-335.16"/>
</g>
<!-- Node110 -->
<g id="node43" class="node">
<title>Node110</title>
<g id="a_node43"><a xlink:href="../../d0/d8e/cfd__variables_8h.html" target="_top" xlink:title=" ">
<polygon fill="none" stroke="black" points="256.03,-308 256.03,-327 390.03,-327 390.03,-308 256.03,-308"/>
<text text-anchor="middle" x="323.03" y="-315" font-family="Helvetica,sans-Serif" font-size="10.00">includes/cfd_variables.h</text>
</a>
</g>
</g>
<!-- Node1&#45;&gt;Node110 -->
<g id="edge135" class="edge">
<title>Node1&#45;&gt;Node110</title>
<path fill="none" stroke="midnightblue" d="M1902.02,-917.42C1511.59,-908.43 76.03,-869.06 76.03,-776.5 76.03,-776.5 76.03,-776.5 76.03,-450.5 76.03,-372.37 173.36,-340.32 245.82,-327.28"/>
<polygon fill="midnightblue" stroke="midnightblue" points="246.6,-330.69 255.87,-325.56 245.42,-323.79 246.6,-330.69"/>
</g>
<!-- Node111 -->
<g id="node44" class="node">
<title>Node111</title>
<g id="a_node44"><a xlink:href="../../d8/dbc/qs__vms_8h.html" target="_top" xlink:title=" ">
<polygon fill="none" stroke="black" points="1940.03,-827.5 1940.03,-857.5 2058.03,-857.5 2058.03,-827.5 1940.03,-827.5"/>
<text text-anchor="start" x="1948.03" y="-845.5" font-family="Helvetica,sans-Serif" font-size="10.00">custom_elements/qs</text>
<text text-anchor="middle" x="1999.03" y="-834.5" font-family="Helvetica,sans-Serif" font-size="10.00">_vms.h</text>
</a>
</g>
</g>
<!-- Node1&#45;&gt;Node111 -->
<g id="edge140" class="edge">
<title>Node1&#45;&gt;Node111</title>
<path fill="none" stroke="midnightblue" d="M1999.03,-894.19C1999.03,-885.79 1999.03,-876.44 1999.03,-868.09"/>
<polygon fill="midnightblue" stroke="midnightblue" points="2002.53,-867.85 1999.03,-857.85 1995.53,-867.85 2002.53,-867.85"/>
</g>
<!-- Node116 -->
<g id="node46" class="node">
<title>Node116</title>
<g id="a_node46"><a xlink:href="../../d3/d33/fluid__dynamics__application__variables_8h.html" target="_top" xlink:title=" ">
<polygon fill="none" stroke="black" points="869.53,-693.5 869.53,-723.5 1018.53,-723.5 1018.53,-693.5 869.53,-693.5"/>
<text text-anchor="start" x="877.53" y="-711.5" font-family="Helvetica,sans-Serif" font-size="10.00">fluid_dynamics_application</text>
<text text-anchor="middle" x="944.03" y="-700.5" font-family="Helvetica,sans-Serif" font-size="10.00">_variables.h</text>
</a>
</g>
</g>
<!-- Node1&#45;&gt;Node116 -->
<g id="edge182" class="edge">
<title>Node1&#45;&gt;Node116</title>
<path fill="none" stroke="midnightblue" d="M1901.9,-912.96C1794.87,-904.67 1618.01,-887.74 1468.03,-858 1291.29,-822.96 1087.34,-757.8 994.61,-726.78"/>
<polygon fill="midnightblue" stroke="midnightblue" points="995.52,-723.39 984.92,-723.53 993.29,-730.03 995.52,-723.39"/>
</g>
<!-- Node3 -->
<g id="node3" class="node">
<title>Node3</title>
<g id="a_node3"><a xlink:title=" ">
<polygon fill="none" stroke="#bfbfbf" points="1788.53,-6 1788.53,-25 1853.53,-25 1853.53,-6 1788.53,-6"/>
<text text-anchor="middle" x="1821.03" y="-13" font-family="Helvetica,sans-Serif" font-size="10.00">stdexcept</text>
</a>
</g>
</g>
<!-- Node2&#45;&gt;Node3 -->
<g id="edge2" class="edge">
<title>Node2&#45;&gt;Node3</title>
<path fill="none" stroke="midnightblue" d="M1588.9,-123.32C1632.71,-103.16 1741.5,-53.1 1793.07,-29.37"/>
<polygon fill="midnightblue" stroke="midnightblue" points="1794.67,-32.48 1802.29,-25.12 1791.74,-26.13 1794.67,-32.48"/>
</g>
<!-- Node4 -->
<g id="node4" class="node">
<title>Node4</title>
<g id="a_node4"><a xlink:title=" ">
<polygon fill="none" stroke="#bfbfbf" points="2889.03,-6 2889.03,-25 2945.03,-25 2945.03,-6 2889.03,-6"/>
<text text-anchor="middle" x="2917.03" y="-13" font-family="Helvetica,sans-Serif" font-size="10.00">sstream</text>
</a>
</g>
</g>
<!-- Node2&#45;&gt;Node4 -->
<g id="edge3" class="edge">
<title>Node2&#45;&gt;Node4</title>
<path fill="none" stroke="midnightblue" d="M1619.55,-127.84C1713.58,-119.94 1924.48,-102.19 2102.03,-87 2401.18,-61.41 2762.03,-30.01 2878.68,-19.84"/>
<polygon fill="midnightblue" stroke="midnightblue" points="2879.23,-23.31 2888.88,-18.95 2878.62,-16.34 2879.23,-23.31"/>
</g>
<!-- Node5 -->
<g id="node5" class="node">
<title>Node5</title>
<g id="a_node5"><a xlink:href="../../dc/d25/kratos__export__api_8h.html" target="_top" xlink:title=" ">
<polygon fill="none" stroke="black" points="1915.03,-0.5 1915.03,-30.5 2043.03,-30.5 2043.03,-0.5 1915.03,-0.5"/>
<text text-anchor="start" x="1923.03" y="-18.5" font-family="Helvetica,sans-Serif" font-size="10.00">includes/kratos_export</text>
<text text-anchor="middle" x="1979.03" y="-7.5" font-family="Helvetica,sans-Serif" font-size="10.00">_api.h</text>
</a>
</g>
</g>
<!-- Node2&#45;&gt;Node5 -->
<g id="edge4" class="edge">
<title>Node2&#45;&gt;Node5</title>
<path fill="none" stroke="midnightblue" d="M1600.44,-123.41C1667.89,-104.37 1831.06,-58.29 1919.56,-33.29"/>
<polygon fill="midnightblue" stroke="midnightblue" points="1920.52,-36.66 1929.19,-30.58 1918.62,-29.92 1920.52,-36.66"/>
</g>
<!-- Node6 -->
<g id="node6" class="node">
<title>Node6</title>
<g id="a_node6"><a xlink:href="../../d9/dc0/smart__pointers_8h.html" target="_top" xlink:title=" ">
<polygon fill="none" stroke="black" points="808.53,-67.5 808.53,-86.5 951.53,-86.5 951.53,-67.5 808.53,-67.5"/>
<text text-anchor="middle" x="880.03" y="-74.5" font-family="Helvetica,sans-Serif" font-size="10.00">includes/smart_pointers.h</text>
</a>
</g>
</g>
<!-- Node2&#45;&gt;Node6 -->
<g id="edge5" class="edge">
<title>Node2&#45;&gt;Node6</title>
<path fill="none" stroke="midnightblue" d="M1520.41,-128.12C1402.87,-118.92 1106.54,-95.73 961.94,-84.41"/>
<polygon fill="midnightblue" stroke="midnightblue" points="962.04,-80.91 951.8,-83.62 961.49,-87.89 962.04,-80.91"/>
</g>
<!-- Node11 -->
<g id="node11" class="node">
<title>Node11</title>
<g id="a_node11"><a xlink:href="../../dd/d2d/exception_8h.html" target="_top" xlink:title=" ">
<polygon fill="none" stroke="red" points="1942.53,-67.5 1942.53,-86.5 2059.53,-86.5 2059.53,-67.5 1942.53,-67.5"/>
<text text-anchor="middle" x="2001.03" y="-74.5" font-family="Helvetica,sans-Serif" font-size="10.00">includes/exception.h</text>
</a>
</g>
</g>
<!-- Node2&#45;&gt;Node11 -->
<g id="edge10" class="edge">
<title>Node2&#45;&gt;Node11</title>
<path fill="none" stroke="midnightblue" d="M1619.9,-125.75C1696.95,-116.1 1845.14,-97.53 1932.31,-86.61"/>
<polygon fill="midnightblue" stroke="midnightblue" points="1932.88,-90.07 1942.36,-85.35 1932.01,-83.12 1932.88,-90.07"/>
</g>
<!-- Node7 -->
<g id="node7" class="node">
<title>Node7</title>
<g id="a_node7"><a xlink:title=" ">
<polygon fill="none" stroke="#bfbfbf" points="1406.03,-6 1406.03,-25 1466.03,-25 1466.03,-6 1406.03,-6"/>
<text text-anchor="middle" x="1436.03" y="-13" font-family="Helvetica,sans-Serif" font-size="10.00">iostream</text>
</a>
</g>
</g>
<!-- Node6&#45;&gt;Node7 -->
<g id="edge6" class="edge">
<title>Node6&#45;&gt;Node7</title>
<path fill="none" stroke="midnightblue" d="M951.58,-68.34C1069.77,-55.7 1302.01,-30.84 1395.56,-20.83"/>
<polygon fill="midnightblue" stroke="midnightblue" points="1396.18,-24.29 1405.75,-19.74 1395.43,-17.33 1396.18,-24.29"/>
</g>
<!-- Node8 -->
<g id="node8" class="node">
<title>Node8</title>
<g id="a_node8"><a xlink:title=" ">
<polygon fill="none" stroke="#bfbfbf" points="787.53,-6 787.53,-25 832.53,-25 832.53,-6 787.53,-6"/>
<text text-anchor="middle" x="810.03" y="-13" font-family="Helvetica,sans-Serif" font-size="10.00">utility</text>
</a>
</g>
</g>
<!-- Node6&#45;&gt;Node8 -->
<g id="edge7" class="edge">
<title>Node6&#45;&gt;Node8</title>
<path fill="none" stroke="midnightblue" d="M870.01,-67.48C858.99,-58.11 841.07,-42.88 827.69,-31.51"/>
<polygon fill="midnightblue" stroke="midnightblue" points="829.93,-28.82 820.05,-25.01 825.4,-34.15 829.93,-28.82"/>
</g>
<!-- Node9 -->
<g id="node9" class="node">
<title>Node9</title>
<g id="a_node9"><a xlink:title=" ">
<polygon fill="none" stroke="#bfbfbf" points="851.03,-6 851.03,-25 909.03,-25 909.03,-6 851.03,-6"/>
<text text-anchor="middle" x="880.03" y="-13" font-family="Helvetica,sans-Serif" font-size="10.00">memory</text>
</a>
</g>
</g>
<!-- Node6&#45;&gt;Node9 -->
<g id="edge8" class="edge">
<title>Node6&#45;&gt;Node9</title>
<path fill="none" stroke="midnightblue" d="M880.03,-67.48C880.03,-59.08 880.03,-45.98 880.03,-35.16"/>
<polygon fill="midnightblue" stroke="midnightblue" points="883.53,-35.01 880.03,-25.01 876.53,-35.01 883.53,-35.01"/>
</g>
<!-- Node10 -->
<g id="node10" class="node">
<title>Node10</title>
<g id="a_node10"><a xlink:title=" ">
<polygon fill="none" stroke="#bfbfbf" points="927.03,-0.5 927.03,-30.5 1051.03,-30.5 1051.03,-0.5 927.03,-0.5"/>
<text text-anchor="start" x="935.03" y="-18.5" font-family="Helvetica,sans-Serif" font-size="10.00">intrusive_ptr/intrusive</text>
<text text-anchor="middle" x="989.03" y="-7.5" font-family="Helvetica,sans-Serif" font-size="10.00">_ptr.hpp</text>
</a>
</g>
</g>
<!-- Node6&#45;&gt;Node10 -->
<g id="edge9" class="edge">
<title>Node6&#45;&gt;Node10</title>
<path fill="none" stroke="midnightblue" d="M895.65,-67.48C910.9,-59.15 934.61,-46.21 954.33,-35.45"/>
<polygon fill="midnightblue" stroke="midnightblue" points="956.25,-38.39 963.35,-30.52 952.89,-32.24 956.25,-38.39"/>
</g>
<!-- Node11&#45;&gt;Node3 -->
<g id="edge11" class="edge">
<title>Node11&#45;&gt;Node3</title>
<path fill="none" stroke="midnightblue" d="M1975.25,-67.48C1944.1,-57.18 1891.55,-39.81 1856.58,-28.25"/>
<polygon fill="midnightblue" stroke="midnightblue" points="1857.37,-24.82 1846.78,-25.01 1855.17,-31.47 1857.37,-24.82"/>
</g>
<!-- Node11&#45;&gt;Node4 -->
<g id="edge14" class="edge">
<title>Node11&#45;&gt;Node4</title>
<path fill="none" stroke="midnightblue" d="M2059.57,-68.45C2064.46,-67.92 2069.33,-67.43 2074.03,-67 2384.07,-38.63 2759.77,-22.58 2878.89,-17.93"/>
<polygon fill="midnightblue" stroke="midnightblue" points="2879.11,-21.42 2888.97,-17.54 2878.84,-14.43 2879.11,-21.42"/>
</g>
<!-- Node11&#45;&gt;Node5 -->
<g id="edge15" class="edge">
<title>Node11&#45;&gt;Node5</title>
<path fill="none" stroke="midnightblue" d="M1997.88,-67.48C1995.24,-60.32 1991.33,-49.75 1987.75,-40.08"/>
<polygon fill="midnightblue" stroke="midnightblue" points="1990.97,-38.69 1984.22,-30.52 1984.41,-41.12 1990.97,-38.69"/>
</g>
<!-- Node11&#45;&gt;Node7 -->
<g id="edge13" class="edge">
<title>Node11&#45;&gt;Node7</title>
<path fill="none" stroke="midnightblue" d="M1942.48,-68.67C1937.59,-68.1 1932.73,-67.53 1928.03,-67 1760.5,-48.08 1560.53,-28.47 1476.43,-20.37"/>
<polygon fill="midnightblue" stroke="midnightblue" points="1476.58,-16.86 1466.29,-19.39 1475.91,-23.83 1476.58,-16.86"/>
</g>
<!-- Node12 -->
<g id="node12" class="node">
<title>Node12</title>
<g id="a_node12"><a xlink:title=" ">
<polygon fill="none" stroke="#bfbfbf" points="644.03,-6 644.03,-25 688.03,-25 688.03,-6 644.03,-6"/>
<text text-anchor="middle" x="666.03" y="-13" font-family="Helvetica,sans-Serif" font-size="10.00">string</text>
</a>
</g>
</g>
<!-- Node11&#45;&gt;Node12 -->
<g id="edge12" class="edge">
<title>Node11&#45;&gt;Node12</title>
<path fill="none" stroke="midnightblue" d="M1942.37,-75.75C1765.93,-74.6 1224.81,-68.06 778.03,-31 751.05,-28.76 720.58,-24.72 698.24,-21.47"/>
<polygon fill="midnightblue" stroke="midnightblue" points="698.69,-18 688.28,-19.99 697.66,-24.92 698.69,-18"/>
</g>
<!-- Node17 -->
<g id="node14" class="node">
<title>Node17</title>
<g id="a_node14"><a xlink:href="../../d8/dbb/properties_8h.html" target="_top" xlink:title=" ">
<polygon fill="none" stroke="red" points="2618.53,-442 2618.53,-461 2737.53,-461 2737.53,-442 2618.53,-442"/>
<text text-anchor="middle" x="2678.03" y="-449" font-family="Helvetica,sans-Serif" font-size="10.00">includes/properties.h</text>
</a>
</g>
</g>
<!-- Node16&#45;&gt;Node17 -->
<g id="edge17" class="edge">
<title>Node16&#45;&gt;Node17</title>
<path fill="none" stroke="midnightblue" d="M2043.84,-570.48C2076.09,-563.34 2120.07,-551.46 2156.03,-534 2177.23,-523.71 2176.96,-511.23 2199.03,-503 2368.37,-439.91 2425.12,-492.41 2604.03,-467 2612.05,-465.86 2620.51,-464.43 2628.74,-462.91"/>
<polygon fill="midnightblue" stroke="midnightblue" points="2629.44,-466.33 2638.61,-461.02 2628.13,-459.46 2629.44,-466.33"/>
</g>
<!-- Node85 -->
<g id="node22" class="node">
<title>Node85</title>
<g id="a_node22"><a xlink:href="../../de/db8/process__info_8h.html" target="_top" xlink:title=" ">
<polygon fill="none" stroke="red" points="2776.53,-375 2776.53,-394 2907.53,-394 2907.53,-375 2776.53,-375"/>
<text text-anchor="middle" x="2842.03" y="-382" font-family="Helvetica,sans-Serif" font-size="10.00">includes/process_info.h</text>
</a>
</g>
</g>
<!-- Node16&#45;&gt;Node85 -->
<g id="edge49" class="edge">
<title>Node16&#45;&gt;Node85</title>
<path fill="none" stroke="midnightblue" d="M2054.31,-572.28C2227.61,-551.07 2750.6,-485.8 2782.03,-467 2806.96,-452.09 2824.71,-422.46 2834.16,-403.33"/>
<polygon fill="midnightblue" stroke="midnightblue" points="2837.37,-404.72 2838.45,-394.18 2831.04,-401.75 2837.37,-404.72"/>
</g>
<!-- Node87 -->
<g id="node23" class="node">
<title>Node87</title>
<g id="a_node23"><a xlink:href="../../d5/d6d/geometrical__object_8h.html" target="_top" xlink:title=" ">
<polygon fill="none" stroke="red" points="1368.53,-503.5 1368.53,-533.5 1487.53,-533.5 1487.53,-503.5 1368.53,-503.5"/>
<text text-anchor="start" x="1376.53" y="-521.5" font-family="Helvetica,sans-Serif" font-size="10.00">includes/geometrical</text>
<text text-anchor="middle" x="1428.03" y="-510.5" font-family="Helvetica,sans-Serif" font-size="10.00">_object.h</text>
</a>
</g>
</g>
<!-- Node16&#45;&gt;Node87 -->
<g id="edge50" class="edge">
<title>Node16&#45;&gt;Node87</title>
<path fill="none" stroke="midnightblue" d="M1944.03,-573.27C1839.57,-562.38 1612.69,-538.74 1497.76,-526.77"/>
<polygon fill="midnightblue" stroke="midnightblue" points="1497.97,-523.27 1487.66,-525.71 1497.25,-530.23 1497.97,-523.27"/>
</g>
<!-- Node97 -->
<g id="node39" class="node">
<title>Node97</title>
<g id="a_node39"><a xlink:href="../../d6/ddf/constitutive__law_8h.html" target="_top" xlink:title=" ">
<polygon fill="none" stroke="red" points="2029.03,-503.5 2029.03,-533.5 2147.03,-533.5 2147.03,-503.5 2029.03,-503.5"/>
<text text-anchor="start" x="2037.03" y="-521.5" font-family="Helvetica,sans-Serif" font-size="10.00">includes/constitutive</text>
<text text-anchor="middle" x="2088.03" y="-510.5" font-family="Helvetica,sans-Serif" font-size="10.00">_law.h</text>
</a>
</g>
</g>
<!-- Node16&#45;&gt;Node97 -->
<g id="edge106" class="edge">
<title>Node16&#45;&gt;Node97</title>
<path fill="none" stroke="midnightblue" d="M2011.79,-570.48C2023.95,-562.34 2042.73,-549.79 2058.6,-539.18"/>
<polygon fill="midnightblue" stroke="midnightblue" points="2060.69,-541.99 2067.06,-533.52 2056.8,-536.17 2060.69,-541.99"/>
</g>
<!-- Node81 -->
<g id="node41" class="node">
<title>Node81</title>
<g id="a_node41"><a xlink:href="../../de/d44/global__pointers__vector_8h.html" target="_top" xlink:title=" ">
<polygon fill="none" stroke="red" points="1738.03,-369.5 1738.03,-399.5 1884.03,-399.5 1884.03,-369.5 1738.03,-369.5"/>
<text text-anchor="start" x="1746.03" y="-387.5" font-family="Helvetica,sans-Serif" font-size="10.00">containers/global_pointers</text>
<text text-anchor="middle" x="1811.03" y="-376.5" font-family="Helvetica,sans-Serif" font-size="10.00">_vector.h</text>
</a>
</g>
</g>
<!-- Node16&#45;&gt;Node81 -->
<g id="edge132" class="edge">
<title>Node16&#45;&gt;Node81</title>
<path fill="none" stroke="midnightblue" d="M1972.5,-570.42C1932.57,-555.99 1857.87,-522.86 1822.03,-467 1811.22,-450.14 1808.95,-427.29 1809.12,-410.07"/>
<polygon fill="midnightblue" stroke="midnightblue" points="1812.63,-409.82 1809.51,-399.69 1805.63,-409.55 1812.63,-409.82"/>
</g>
<!-- Node106 -->
<g id="node42" class="node">
<title>Node106</title>
<g id="a_node42"><a xlink:href="../../db/d71/kratos__parameters_8h.html" target="_top" xlink:title=" ">
<polygon fill="none" stroke="red" points="1831.53,-442 1831.53,-461 1992.53,-461 1992.53,-442 1831.53,-442"/>
<text text-anchor="middle" x="1912.03" y="-449" font-family="Helvetica,sans-Serif" font-size="10.00">includes/kratos_parameters.h</text>
</a>
</g>
</g>
<!-- Node16&#45;&gt;Node106 -->
<g id="edge131" class="edge">
<title>Node16&#45;&gt;Node106</title>
<path fill="none" stroke="midnightblue" d="M1993.05,-570.31C1978.84,-549.63 1942.8,-497.23 1923.94,-469.82"/>
<polygon fill="midnightblue" stroke="midnightblue" points="1926.61,-467.51 1918.06,-461.26 1920.84,-471.48 1926.61,-467.51"/>
</g>
<!-- Node17&#45;&gt;Node2 -->
<g id="edge21" class="edge">
<title>Node17&#45;&gt;Node2</title>
<path fill="none" stroke="midnightblue" d="M2684.05,-441.71C2699.79,-417.49 2739.04,-348.56 2710.03,-302 2680.19,-254.09 2650.22,-261.83 2596.03,-246 2458.66,-205.85 2407.96,-265.49 2276.03,-210 2255.94,-201.55 2258.33,-186.95 2238.03,-179 2118.2,-132.07 1788.31,-153.4 1660.03,-143 1650.39,-142.22 1640.18,-141.29 1630.23,-140.33"/>
<polygon fill="midnightblue" stroke="midnightblue" points="1630.28,-136.82 1619.99,-139.33 1629.6,-143.79 1630.28,-136.82"/>
</g>
<!-- Node17&#45;&gt;Node7 -->
<g id="edge19" class="edge">
<title>Node17&#45;&gt;Node7</title>
<path fill="none" stroke="midnightblue" d="M2737.64,-444.47C2851.13,-431.62 3091.22,-397.29 3139.03,-333 3181.24,-276.26 3143.74,-233.79 3099.03,-179 3067.32,-140.13 3048.71,-138.6 3001.03,-123 2791.44,-54.44 2727.85,-84.64 2508.03,-67 2403.9,-58.64 1659.41,-26.17 1476.53,-18.25"/>
<polygon fill="midnightblue" stroke="midnightblue" points="1476.42,-14.74 1466.28,-17.81 1476.12,-21.73 1476.42,-14.74"/>
</g>
<!-- Node17&#45;&gt;Node12 -->
<g id="edge18" class="edge">
<title>Node17&#45;&gt;Node12</title>
<path fill="none" stroke="midnightblue" d="M2690.46,-441.7C2702.02,-432.7 2718.55,-417.59 2726.03,-400 2741.43,-363.82 2726.35,-180.48 2725.03,-179 2641.77,-85.31 1979.58,-114.52 1516.03,-87 1187.67,-67.5 1105.26,-64.57 778.03,-31 751.09,-28.24 720.62,-24.23 698.27,-21.13"/>
<polygon fill="midnightblue" stroke="midnightblue" points="698.7,-17.66 688.31,-19.74 697.72,-24.59 698.7,-17.66"/>
</g>
<!-- Node19 -->
<g id="node15" class="node">
<title>Node19</title>
<g id="a_node15"><a xlink:title=" ">
<polygon fill="none" stroke="#bfbfbf" points="2320.53,-246.5 2320.53,-265.5 2413.53,-265.5 2413.53,-246.5 2320.53,-246.5"/>
<text text-anchor="middle" x="2367.03" y="-253.5" font-family="Helvetica,sans-Serif" font-size="10.00">unordered_map</text>
</a>
</g>
</g>
<!-- Node17&#45;&gt;Node19 -->
<g id="edge20" class="edge">
<title>Node17&#45;&gt;Node19</title>
<path fill="none" stroke="midnightblue" d="M2680.4,-441.91C2688.02,-413.47 2710.32,-322.99 2692.03,-302 2674.71,-282.12 2512.42,-267.45 2423.93,-260.86"/>
<polygon fill="midnightblue" stroke="midnightblue" points="2424.01,-257.36 2413.78,-260.12 2423.5,-264.34 2424.01,-257.36"/>
</g>
<!-- Node63 -->
<g id="node16" class="node">
<title>Node63</title>
<g id="a_node16"><a xlink:href="../../d1/d82/data__value__container_8h.html" target="_top" xlink:title=" ">
<polygon fill="none" stroke="red" points="2558.53,-302.5 2558.53,-332.5 2683.53,-332.5 2683.53,-302.5 2558.53,-302.5"/>
<text text-anchor="start" x="2566.53" y="-320.5" font-family="Helvetica,sans-Serif" font-size="10.00">containers/data_value</text>
<text text-anchor="middle" x="2621.03" y="-309.5" font-family="Helvetica,sans-Serif" font-size="10.00">_container.h</text>
</a>
</g>
</g>
<!-- Node17&#45;&gt;Node63 -->
<g id="edge22" class="edge">
<title>Node17&#45;&gt;Node63</title>
<path fill="none" stroke="midnightblue" d="M2674.29,-441.84C2665.66,-421.85 2644.09,-371.9 2631.21,-342.06"/>
<polygon fill="midnightblue" stroke="midnightblue" points="2634.38,-340.58 2627.2,-332.78 2627.95,-343.35 2634.38,-340.58"/>
</g>
<!-- Node17&#45;&gt;Node85 -->
<g id="edge42" class="edge">
<title>Node17&#45;&gt;Node85</title>
<path fill="none" stroke="midnightblue" d="M2699.81,-441.87C2728.32,-430.57 2778.46,-410.7 2810.95,-397.82"/>
<polygon fill="midnightblue" stroke="midnightblue" points="2812.42,-401 2820.43,-394.06 2809.84,-394.49 2812.42,-401"/>
</g>
<!-- Node63&#45;&gt;Node2 -->
<g id="edge25" class="edge">
<title>Node63&#45;&gt;Node2</title>
<path fill="none" stroke="midnightblue" d="M2615.15,-302.36C2607.43,-285.78 2592.22,-258.94 2570.03,-246 2445.64,-173.46 2383.68,-258.35 2248.03,-210 2224.11,-201.47 2224.14,-187.01 2200.03,-179 2088.43,-141.92 1789.28,-152.17 1672.03,-143 1658.27,-141.92 1643.47,-140.67 1629.53,-139.45"/>
<polygon fill="midnightblue" stroke="midnightblue" points="1629.83,-135.96 1619.56,-138.57 1629.22,-142.94 1629.83,-135.96"/>
</g>
<!-- Node63&#45;&gt;Node7 -->
<g id="edge24" class="edge">
<title>Node63&#45;&gt;Node7</title>
<path fill="none" stroke="midnightblue" d="M2683.7,-308.72C2734.65,-300.95 2800.68,-287.11 2817.03,-266 2829.24,-250.25 2843.3,-218.08 2811.03,-179 2723.46,-72.94 1693.41,-26.64 1476.12,-18.01"/>
<polygon fill="midnightblue" stroke="midnightblue" points="1476.24,-14.52 1466.11,-17.62 1475.96,-21.51 1476.24,-14.52"/>
</g>
<!-- Node63&#45;&gt;Node11 -->
<g id="edge41" class="edge">
<title>Node63&#45;&gt;Node11</title>
<path fill="none" stroke="midnightblue" d="M2683.67,-306.77C2728.77,-298.33 2784.03,-284.56 2798.03,-266 2812.53,-246.79 2817.81,-209.24 2786.03,-179 2734.45,-129.89 2251.53,-94.08 2069.77,-82.24"/>
<polygon fill="midnightblue" stroke="midnightblue" points="2070,-78.75 2059.79,-81.59 2069.54,-85.73 2070,-78.75"/>
</g>
<!-- Node63&#45;&gt;Node12 -->
<g id="edge23" class="edge">
<title>Node63&#45;&gt;Node12</title>
<path fill="none" stroke="midnightblue" d="M2650.33,-302.36C2665.02,-293.81 2681.81,-281.54 2692.03,-266 2713.49,-233.39 2730.21,-207.96 2704.03,-179 2662.7,-133.26 2213.53,-127.27 2152.03,-123 1726.98,-93.48 1618.26,-126.74 1194.03,-87 1134.52,-81.42 1120.24,-75.22 1061.03,-67 935.45,-49.57 903.79,-47.14 778.03,-31 751.17,-27.55 720.69,-23.6 698.32,-20.7"/>
<polygon fill="midnightblue" stroke="midnightblue" points="698.71,-17.22 688.35,-19.4 697.81,-24.16 698.71,-17.22"/>
</g>
<!-- Node64 -->
<g id="node17" class="node">
<title>Node64</title>
<g id="a_node17"><a xlink:href="../../da/d89/variable_8h.html" target="_top" xlink:title=" ">
<polygon fill="none" stroke="red" points="404.53,-185 404.53,-204 523.53,-204 523.53,-185 404.53,-185"/>
<text text-anchor="middle" x="464.03" y="-192" font-family="Helvetica,sans-Serif" font-size="10.00">containers/variable.h</text>
</a>
</g>
</g>
<!-- Node63&#45;&gt;Node64 -->
<g id="edge26" class="edge">
<title>Node63&#45;&gt;Node64</title>
<path fill="none" stroke="midnightblue" d="M2558.31,-309.92C2423.04,-295.97 2093.76,-263.29 1817.03,-246 1326.16,-215.34 733.85,-201.06 533.84,-196.87"/>
<polygon fill="midnightblue" stroke="midnightblue" points="533.84,-193.37 523.77,-196.66 533.69,-200.37 533.84,-193.37"/>
</g>
<!-- Node67 -->
<g id="node18" class="node">
<title>Node67</title>
<g id="a_node18"><a xlink:href="../../dc/d8e/kratos__components_8h.html" target="_top" xlink:title=" ">
<polygon fill="none" stroke="red" points="446.53,-246.5 446.53,-265.5 611.53,-265.5 611.53,-246.5 446.53,-246.5"/>
<text text-anchor="middle" x="529.03" y="-253.5" font-family="Helvetica,sans-Serif" font-size="10.00">includes/kratos_components.h</text>
</a>
</g>
</g>
<!-- Node63&#45;&gt;Node67 -->
<g id="edge30" class="edge">
<title>Node63&#45;&gt;Node67</title>
<path fill="none" stroke="midnightblue" d="M2558.24,-310.7C2522.22,-307.6 2476.12,-304.02 2435.03,-302 1646.49,-263.3 1447.74,-301.27 659.03,-266 647.12,-265.47 634.59,-264.77 622.22,-264"/>
<polygon fill="midnightblue" stroke="midnightblue" points="622.08,-260.49 611.87,-263.34 621.63,-267.47 622.08,-260.49"/>
</g>
<!-- Node64&#45;&gt;Node2 -->
<g id="edge29" class="edge">
<title>Node64&#45;&gt;Node2</title>
<path fill="none" stroke="midnightblue" d="M523.83,-187.04C551.29,-184.25 584.29,-181.14 614.03,-179 952.49,-154.69 1359.34,-140.53 1510.07,-135.79"/>
<polygon fill="midnightblue" stroke="midnightblue" points="1510.59,-139.28 1520.48,-135.47 1510.37,-132.28 1510.59,-139.28"/>
</g>
<!-- Node64&#45;&gt;Node7 -->
<g id="edge28" class="edge">
<title>Node64&#45;&gt;Node7</title>
<path fill="none" stroke="midnightblue" d="M469.92,-184.81C481.09,-169.17 507.01,-136.65 538.03,-123 646.5,-75.29 952.84,-104.48 1070.03,-87 1108.85,-81.21 1117.6,-74.93 1156.03,-67 1241.02,-49.47 1341.22,-32.21 1395.74,-23.12"/>
<polygon fill="midnightblue" stroke="midnightblue" points="1396.4,-26.55 1405.69,-21.46 1395.25,-19.65 1396.4,-26.55"/>
</g>
<!-- Node64&#45;&gt;Node12 -->
<g id="edge27" class="edge">
<title>Node64&#45;&gt;Node12</title>
<path fill="none" stroke="midnightblue" d="M466.93,-184.94C471.98,-170.87 483.49,-142.49 500.03,-123 537.98,-78.31 599.41,-45.77 635.95,-29.11"/>
<polygon fill="midnightblue" stroke="midnightblue" points="637.4,-32.29 645.11,-25.02 634.55,-25.9 637.4,-32.29"/>
</g>
<!-- Node67&#45;&gt;Node2 -->
<g id="edge35" class="edge">
<title>Node67&#45;&gt;Node2</title>
<path fill="none" stroke="midnightblue" d="M550.48,-246.38C598.1,-227.29 709.9,-182.85 728.03,-179 877.68,-147.24 1344.19,-137.35 1510.44,-134.78"/>
<polygon fill="midnightblue" stroke="midnightblue" points="1510.54,-138.28 1520.49,-134.63 1510.43,-131.28 1510.54,-138.28"/>
</g>
<!-- Node67&#45;&gt;Node7 -->
<g id="edge32" class="edge">
<title>Node67&#45;&gt;Node7</title>
<path fill="none" stroke="midnightblue" d="M539.45,-246.22C569.28,-221.64 658.56,-152.02 746.03,-123 907.47,-69.44 960.89,-123.43 1127.03,-87 1153.26,-81.25 1158.14,-74.1 1184.03,-67 1257.75,-46.79 1345.66,-31.01 1395.75,-22.79"/>
<polygon fill="midnightblue" stroke="midnightblue" points="1396.54,-26.2 1405.85,-21.15 1395.42,-19.3 1396.54,-26.2"/>
</g>
<!-- Node67&#45;&gt;Node12 -->
<g id="edge31" class="edge">
<title>Node67&#45;&gt;Node12</title>
<path fill="none" stroke="midnightblue" d="M452.85,-246.45C430.61,-240.01 408.65,-228.93 395.03,-210 386.99,-198.81 389.04,-191.41 395.03,-179 441.25,-83.26 572.79,-39.35 633.99,-23.66"/>
<polygon fill="midnightblue" stroke="midnightblue" points="635.01,-27.02 643.88,-21.22 633.33,-20.22 635.01,-27.02"/>
</g>
<!-- Node67&#45;&gt;Node64 -->
<g id="edge40" class="edge">
<title>Node67&#45;&gt;Node64</title>
<path fill="none" stroke="midnightblue" d="M519.72,-246.48C509.59,-237.2 493.17,-222.17 480.78,-210.83"/>
<polygon fill="midnightblue" stroke="midnightblue" points="483.07,-208.18 473.33,-204.01 478.34,-213.34 483.07,-208.18"/>
</g>
<!-- Node49 -->
<g id="node19" class="node">
<title>Node49</title>
<g id="a_node19"><a xlink:title=" ">
<polygon fill="none" stroke="#bfbfbf" points="1036.03,-185 1036.03,-204 1074.03,-204 1074.03,-185 1036.03,-185"/>
<text text-anchor="middle" x="1055.03" y="-192" font-family="Helvetica,sans-Serif" font-size="10.00">map</text>
</a>
</g>
</g>
<!-- Node67&#45;&gt;Node49 -->
<g id="edge33" class="edge">
<title>Node67&#45;&gt;Node49</title>
<path fill="none" stroke="midnightblue" d="M604.4,-246.48C722.42,-233.13 945.62,-207.88 1025.6,-198.83"/>
<polygon fill="midnightblue" stroke="midnightblue" points="1026.37,-202.27 1035.91,-197.66 1025.58,-195.31 1026.37,-202.27"/>
</g>
<!-- Node68 -->
<g id="node20" class="node">
<title>Node68</title>
<g id="a_node20"><a xlink:title=" ">
<polygon fill="none" stroke="#bfbfbf" points="1206.53,-185 1206.53,-204 1263.53,-204 1263.53,-185 1206.53,-185"/>
<text text-anchor="middle" x="1235.03" y="-192" font-family="Helvetica,sans-Serif" font-size="10.00">typeinfo</text>
</a>
</g>
</g>
<!-- Node67&#45;&gt;Node68 -->
<g id="edge34" class="edge">
<title>Node67&#45;&gt;Node68</title>
<path fill="none" stroke="midnightblue" d="M611.66,-248.65C719.95,-240.25 915.78,-224.77 1083.03,-210 1121.54,-206.6 1165.49,-202.37 1196.19,-199.36"/>
<polygon fill="midnightblue" stroke="midnightblue" points="1196.86,-202.81 1206.47,-198.35 1196.18,-195.84 1196.86,-202.81"/>
</g>
<!-- Node53 -->
<g id="node21" class="node">
<title>Node53</title>
<g id="a_node21"><a xlink:href="../../d9/da0/flags_8h.html" target="_top" xlink:title=" ">
<polygon fill="none" stroke="black" points="2054.53,-185 2054.53,-204 2157.53,-204 2157.53,-185 2054.53,-185"/>
<text text-anchor="middle" x="2106.03" y="-192" font-family="Helvetica,sans-Serif" font-size="10.00">containers/flags.h</text>
</a>
</g>
</g>
<!-- Node67&#45;&gt;Node53 -->
<g id="edge36" class="edge">
<title>Node67&#45;&gt;Node53</title>
<path fill="none" stroke="midnightblue" d="M611.88,-248.84C627.54,-247.79 643.78,-246.79 659.03,-246 1195.38,-218.08 1844.39,-201.59 2044.4,-196.9"/>
<polygon fill="midnightblue" stroke="midnightblue" points="2044.5,-200.39 2054.42,-196.66 2044.34,-193.4 2044.5,-200.39"/>
</g>
<!-- Node53&#45;&gt;Node2 -->
<g id="edge39" class="edge">
<title>Node53&#45;&gt;Node2</title>
<path fill="none" stroke="midnightblue" d="M2071.25,-184.99C2061.23,-182.77 2050.24,-180.57 2040.03,-179 1860.98,-151.51 1814.01,-163.62 1634.03,-143 1632.57,-142.83 1631.09,-142.66 1629.6,-142.48"/>
<polygon fill="midnightblue" stroke="midnightblue" points="1629.97,-139 1619.62,-141.23 1629.1,-145.94 1629.97,-139"/>
</g>
<!-- Node53&#45;&gt;Node7 -->
<g id="edge38" class="edge">
<title>Node53&#45;&gt;Node7</title>
<path fill="none" stroke="midnightblue" d="M2070.19,-184.99C2060.44,-182.85 2049.86,-180.68 2040.03,-179 1911.15,-156.95 1874.6,-175.85 1748.03,-143 1637.75,-114.38 1514.51,-56 1462,-29.77"/>
<polygon fill="midnightblue" stroke="midnightblue" points="1463.25,-26.49 1452.75,-25.12 1460.11,-32.74 1463.25,-26.49"/>
</g>
<!-- Node53&#45;&gt;Node12 -->
<g id="edge37" class="edge">
<title>Node53&#45;&gt;Node12</title>
<path fill="none" stroke="midnightblue" d="M2070.9,-184.97C2060.97,-182.78 2050.12,-180.59 2040.03,-179 1877.72,-153.32 1830.76,-185.58 1672.03,-143 1651.29,-137.43 1648.93,-127.98 1628.03,-123 1441.55,-78.51 947.54,-148.75 766.03,-87 748.48,-81.03 708.37,-50.42 684.63,-31.55"/>
<polygon fill="midnightblue" stroke="midnightblue" points="686.69,-28.72 676.69,-25.2 682.31,-34.18 686.69,-28.72"/>
</g>
<!-- Node85&#45;&gt;Node2 -->
<g id="edge46" class="edge">
<title>Node85&#45;&gt;Node2</title>
<path fill="none" stroke="midnightblue" d="M2839.84,-374.77C2833.01,-349.63 2809.56,-276.89 2760.03,-246 2677.55,-194.55 2416.07,-241.31 2324.03,-210 2299.99,-201.82 2300.17,-186.89 2276.03,-179 2145.7,-136.4 1796.73,-153.82 1660.03,-143 1650.39,-142.24 1640.18,-141.32 1630.23,-140.37"/>
<polygon fill="midnightblue" stroke="midnightblue" points="1630.28,-136.86 1619.99,-139.37 1629.6,-143.82 1630.28,-136.86"/>
</g>
<!-- Node85&#45;&gt;Node4 -->
<g id="edge45" class="edge">
<title>Node85&#45;&gt;Node4</title>
<path fill="none" stroke="midnightblue" d="M2907.58,-382.96C2962.96,-379.78 3042.55,-368.59 3102.03,-333 3139.44,-310.62 3164.03,-300.59 3164.03,-257 3164.03,-257 3164.03,-257 3164.03,-132 3164.03,-41.05 3024.9,-21.56 2955.48,-17.5"/>
<polygon fill="midnightblue" stroke="midnightblue" points="2955.53,-13.99 2945.37,-16.99 2955.18,-20.99 2955.53,-13.99"/>
</g>
<!-- Node85&#45;&gt;Node7 -->
<g id="edge44" class="edge">
<title>Node85&#45;&gt;Node7</title>
<path fill="none" stroke="midnightblue" d="M2907.6,-382.34C2955.17,-378.44 3018.83,-366.6 3064.03,-333 3119.06,-292.1 3121.06,-227.93 3073.03,-179 3030.96,-136.13 3008.08,-138.45 2950.03,-123 2803.87,-84.09 1702,-29.31 1476.34,-18.42"/>
<polygon fill="midnightblue" stroke="midnightblue" points="1476.42,-14.92 1466.26,-17.94 1476.08,-21.91 1476.42,-14.92"/>
</g>
<!-- Node85&#45;&gt;Node12 -->
<g id="edge43" class="edge">
<title>Node85&#45;&gt;Node12</title>
<path fill="none" stroke="midnightblue" d="M2853.2,-374.95C2890.56,-345.35 3005.75,-245.46 2950.03,-179 2858.4,-69.7 2775.77,-139.01 2634.03,-123 2582.74,-117.21 829.45,-35.6 778.03,-31 751.06,-28.59 720.59,-24.56 698.25,-21.36"/>
<polygon fill="midnightblue" stroke="midnightblue" points="698.69,-17.89 688.29,-19.91 697.68,-24.81 698.69,-17.89"/>
</g>
<!-- Node85&#45;&gt;Node63 -->
<g id="edge47" class="edge">
<title>Node85&#45;&gt;Node63</title>
<path fill="none" stroke="midnightblue" d="M2812.69,-374.87C2778.59,-364.84 2721.52,-348.06 2678.51,-335.4"/>
<polygon fill="midnightblue" stroke="midnightblue" points="2679.31,-331.99 2668.73,-332.53 2677.34,-338.71 2679.31,-331.99"/>
</g>
<!-- Node85&#45;&gt;Node53 -->
<g id="edge48" class="edge">
<title>Node85&#45;&gt;Node53</title>
<path fill="none" stroke="midnightblue" d="M2831.07,-374.94C2809.28,-358.34 2758.43,-321.69 2710.03,-302 2611.87,-262.07 2301.16,-219.84 2167.81,-203.04"/>
<polygon fill="midnightblue" stroke="midnightblue" points="2168.11,-199.55 2157.75,-201.77 2167.24,-206.49 2168.11,-199.55"/>
</g>
<!-- Node87&#45;&gt;Node2 -->
<g id="edge51" class="edge">
<title>Node87&#45;&gt;Node2</title>
<path fill="none" stroke="midnightblue" d="M1402.29,-503.33C1368.12,-482.41 1312.03,-439.8 1312.03,-385.5 1312.03,-385.5 1312.03,-385.5 1312.03,-316.5 1312.03,-218.14 1428.28,-270.24 1506.03,-210 1527.69,-193.22 1547.11,-168.01 1558.73,-151.28"/>
<polygon fill="midnightblue" stroke="midnightblue" points="1561.94,-152.79 1564.63,-142.55 1556.14,-148.88 1561.94,-152.79"/>
</g>
<!-- Node87&#45;&gt;Node53 -->
<g id="edge52" class="edge">
<title>Node87&#45;&gt;Node53</title>
<path fill="none" stroke="midnightblue" d="M1431.82,-503.41C1446.52,-448.91 1499.51,-254.52 1510.03,-246 1550.91,-212.88 1900.5,-200.55 2044.47,-196.85"/>
<polygon fill="midnightblue" stroke="midnightblue" points="2044.56,-200.35 2054.47,-196.6 2044.39,-193.35 2044.56,-200.35"/>
</g>
<!-- Node87&#45;&gt;Node88 -->
<g id="edge53" class="edge">
<title>Node87&#45;&gt;Node88</title>
<path fill="none" stroke="midnightblue" d="M1487.66,-512.93C1638.42,-501.37 2034.58,-471.01 2200.86,-458.26"/>
<polygon fill="midnightblue" stroke="midnightblue" points="2201.29,-461.74 2211,-457.49 2200.76,-454.76 2201.29,-461.74"/>
</g>
<!-- Node88&#45;&gt;Node63 -->
<g id="edge96" class="edge">
<title>Node88&#45;&gt;Node63</title>
<path fill="none" stroke="midnightblue" d="M2341.3,-447.69C2395.51,-443.09 2473.29,-431.09 2534.03,-400 2562.28,-385.54 2587.9,-359.17 2603.9,-340.34"/>
<polygon fill="midnightblue" stroke="midnightblue" points="2606.68,-342.48 2610.36,-332.54 2601.29,-338.02 2606.68,-342.48"/>
</g>
<!-- Node88&#45;&gt;Node68 -->
<g id="edge54" class="edge">
<title>Node88&#45;&gt;Node68</title>
<path fill="none" stroke="midnightblue" d="M2278,-441.94C2283.28,-416.52 2294.88,-340.78 2256.03,-302 2122.45,-168.64 2022.89,-264.49 1835.03,-246 1585.95,-221.48 1517.6,-263.21 1273.03,-210 1269.96,-209.33 1266.8,-208.46 1263.69,-207.47"/>
<polygon fill="midnightblue" stroke="midnightblue" points="1264.62,-204.08 1254.02,-204.03 1262.27,-210.68 1264.62,-204.08"/>
</g>
<!-- Node89 -->
<g id="node25" class="node">
<title>Node89</title>
<g id="a_node25"><a xlink:href="../../d1/dbc/geometry__data_8h.html" target="_top" xlink:title=" ">
<polygon fill="none" stroke="red" points="2304.03,-302.5 2304.03,-332.5 2426.03,-332.5 2426.03,-302.5 2304.03,-302.5"/>
<text text-anchor="start" x="2312.03" y="-320.5" font-family="Helvetica,sans-Serif" font-size="10.00">geometries/geometry</text>
<text text-anchor="middle" x="2365.03" y="-309.5" font-family="Helvetica,sans-Serif" font-size="10.00">_data.h</text>
</a>
</g>
</g>
<!-- Node88&#45;&gt;Node89 -->
<g id="edge55" class="edge">
<title>Node88&#45;&gt;Node89</title>
<path fill="none" stroke="midnightblue" d="M2281.87,-441.84C2295.47,-421.67 2329.62,-371.03 2349.67,-341.29"/>
<polygon fill="midnightblue" stroke="midnightblue" points="2352.72,-343.03 2355.4,-332.78 2346.91,-339.12 2352.72,-343.03"/>
</g>
<!-- Node24 -->
<g id="node27" class="node">
<title>Node24</title>
<g id="a_node27"><a xlink:href="../../d2/d91/point_8h.html" target="_top" xlink:title=" ">
<polygon fill="none" stroke="black" points="1340.53,-375 1340.53,-394 1449.53,-394 1449.53,-375 1340.53,-375"/>
<text text-anchor="middle" x="1395.03" y="-382" font-family="Helvetica,sans-Serif" font-size="10.00">geometries/point.h</text>
</a>
</g>
</g>
<!-- Node88&#45;&gt;Node24 -->
<g id="edge60" class="edge">
<title>Node88&#45;&gt;Node24</title>
<path fill="none" stroke="midnightblue" d="M2210.89,-445.69C2047.78,-433.66 1623.21,-402.33 1460.13,-390.3"/>
<polygon fill="midnightblue" stroke="midnightblue" points="1460.01,-386.78 1449.78,-389.54 1459.49,-393.77 1460.01,-386.78"/>
</g>
<!-- Node58 -->
<g id="node35" class="node">
<title>Node58</title>
<g id="a_node35"><a xlink:href="../../d1/d8c/logger_8h.html" target="_top" xlink:title=" ">
<polygon fill="none" stroke="red" points="2023.03,-123.5 2023.03,-142.5 2143.03,-142.5 2143.03,-123.5 2023.03,-123.5"/>
<text text-anchor="middle" x="2083.03" y="-130.5" font-family="Helvetica,sans-Serif" font-size="10.00">input_output/logger.h</text>
</a>
</g>
</g>
<!-- Node88&#45;&gt;Node58 -->
<g id="edge100" class="edge">
<title>Node88&#45;&gt;Node58</title>
<path fill="none" stroke="midnightblue" d="M2341.26,-442.22C2398.58,-433.82 2476.56,-419.31 2501.03,-400 2539.11,-369.96 2512.01,-333.33 2549.03,-302 2591.87,-265.76 2631.94,-307.19 2670.03,-266 2696.54,-237.34 2708.58,-207.62 2682.03,-179 2673.13,-169.4 2309.52,-147.17 2153.24,-138.03"/>
<polygon fill="midnightblue" stroke="midnightblue" points="2153.44,-134.54 2143.25,-137.45 2153.03,-141.52 2153.44,-134.54"/>
</g>
<!-- Node93 -->
<g id="node36" class="node">
<title>Node93</title>
<g id="a_node36"><a xlink:href="../../d4/df9/pointer__vector_8h.html" target="_top" xlink:title=" ">
<polygon fill="none" stroke="red" points="1031.53,-369.5 1031.53,-399.5 1136.53,-399.5 1136.53,-369.5 1031.53,-369.5"/>
<text text-anchor="start" x="1039.53" y="-387.5" font-family="Helvetica,sans-Serif" font-size="10.00">containers/pointer</text>
<text text-anchor="middle" x="1084.03" y="-376.5" font-family="Helvetica,sans-Serif" font-size="10.00">_vector.h</text>
</a>
</g>
</g>
<!-- Node88&#45;&gt;Node93 -->
<g id="edge90" class="edge">
<title>Node88&#45;&gt;Node93</title>
<path fill="none" stroke="midnightblue" d="M2210.83,-447.06C2026.34,-437.32 1502.87,-409.63 1331.03,-400 1268.24,-396.48 1196.48,-392.24 1146.55,-389.26"/>
<polygon fill="midnightblue" stroke="midnightblue" points="1146.74,-385.77 1136.55,-388.66 1146.32,-392.75 1146.74,-385.77"/>
</g>
<!-- Node94 -->
<g id="node37" class="node">
<title>Node94</title>
<g id="a_node37"><a xlink:href="../../d8/d88/math__utils_8h.html" target="_top" xlink:title=" ">
<polygon fill="none" stroke="red" points="2130.53,-308 2130.53,-327 2247.53,-327 2247.53,-308 2130.53,-308"/>
<text text-anchor="middle" x="2189.03" y="-315" font-family="Helvetica,sans-Serif" font-size="10.00">utilities/math_utils.h</text>
</a>
</g>
</g>
<!-- Node88&#45;&gt;Node94 -->
<g id="edge97" class="edge">
<title>Node88&#45;&gt;Node94</title>
<path fill="none" stroke="midnightblue" d="M2270.33,-441.84C2256.13,-420.3 2219.02,-364 2200.25,-335.52"/>
<polygon fill="midnightblue" stroke="midnightblue" points="2203.08,-333.44 2194.65,-327.02 2197.23,-337.3 2203.08,-333.44"/>
</g>
<!-- Node96 -->
<g id="node38" class="node">
<title>Node96</title>
<g id="a_node38"><a xlink:href="../../d0/d33/integration__info_8h.html" target="_top" xlink:title=" ">
<polygon fill="none" stroke="black" points="2366.03,-369.5 2366.03,-399.5 2492.03,-399.5 2492.03,-369.5 2366.03,-369.5"/>
<text text-anchor="start" x="2374.03" y="-387.5" font-family="Helvetica,sans-Serif" font-size="10.00">integration/integration</text>
<text text-anchor="middle" x="2429.03" y="-376.5" font-family="Helvetica,sans-Serif" font-size="10.00">_info.h</text>
</a>
</g>
</g>
<!-- Node88&#45;&gt;Node96 -->
<g id="edge101" class="edge">
<title>Node88&#45;&gt;Node96</title>
<path fill="none" stroke="midnightblue" d="M2296.35,-441.87C2319.31,-432.12 2357.31,-415.97 2386.78,-403.45"/>
<polygon fill="midnightblue" stroke="midnightblue" points="2388.18,-406.66 2396.01,-399.53 2385.44,-400.22 2388.18,-406.66"/>
</g>
<!-- Node29 -->
<g id="node26" class="node">
<title>Node29</title>
<g id="a_node26"><a xlink:href="../../d9/d3e/ublas__interface_8h.html" target="_top" xlink:title=" ">
<polygon fill="none" stroke="red" points="1282.03,-185 1282.03,-204 1426.03,-204 1426.03,-185 1282.03,-185"/>
<text text-anchor="middle" x="1354.03" y="-192" font-family="Helvetica,sans-Serif" font-size="10.00">includes/ublas_interface.h</text>
</a>
</g>
</g>
<!-- Node89&#45;&gt;Node29 -->
<g id="edge56" class="edge">
<title>Node89&#45;&gt;Node29</title>
<path fill="none" stroke="midnightblue" d="M2389.56,-302.43C2412.13,-287.78 2439.63,-264.45 2422.03,-246 2388.17,-210.5 1681.53,-199.19 1436.69,-196.33"/>
<polygon fill="midnightblue" stroke="midnightblue" points="1436.47,-192.83 1426.43,-196.21 1436.39,-199.83 1436.47,-192.83"/>
</g>
<!-- Node29&#45;&gt;Node2 -->
<g id="edge59" class="edge">
<title>Node29&#45;&gt;Node2</title>
<path fill="none" stroke="midnightblue" d="M1384.98,-184.98C1422.92,-174.53 1487.31,-156.79 1529.26,-145.23"/>
<polygon fill="midnightblue" stroke="midnightblue" points="1530.43,-148.54 1539.14,-142.51 1528.57,-141.79 1530.43,-148.54"/>
</g>
<!-- Node29&#45;&gt;Node7 -->
<g id="edge58" class="edge">
<title>Node29&#45;&gt;Node7</title>
<path fill="none" stroke="midnightblue" d="M1359.37,-184.92C1370.27,-167.14 1395.46,-124.79 1412.03,-87 1419.57,-69.83 1426.27,-49.49 1430.66,-35.08"/>
<polygon fill="midnightblue" stroke="midnightblue" points="1434.05,-35.95 1433.55,-25.36 1427.34,-33.95 1434.05,-35.95"/>
</g>
<!-- Node29&#45;&gt;Node12 -->
<g id="edge57" class="edge">
<title>Node29&#45;&gt;Node12</title>
<path fill="none" stroke="midnightblue" d="M1305.92,-184.93C1294.79,-182.97 1283,-180.9 1272.03,-179 1211.63,-168.55 781.58,-116.85 728.03,-87 705.42,-74.4 687,-50.29 676.28,-33.81"/>
<polygon fill="midnightblue" stroke="midnightblue" points="679.13,-31.78 670.88,-25.14 673.19,-35.47 679.13,-31.78"/>
</g>
<!-- Node24&#45;&gt;Node2 -->
<g id="edge61" class="edge">
<title>Node24&#45;&gt;Node2</title>
<path fill="none" stroke="midnightblue" d="M1396.09,-374.77C1399.44,-350.85 1411.94,-283.53 1450.03,-246 1481.9,-214.6 1512.98,-242.2 1544.03,-210 1558.98,-194.51 1565.36,-170.06 1568.06,-153.1"/>
<polygon fill="midnightblue" stroke="midnightblue" points="1571.59,-153.12 1569.41,-142.75 1564.65,-152.21 1571.59,-153.12"/>
</g>
<!-- Node25 -->
<g id="node28" class="node">
<title>Node25</title>
<g id="a_node28"><a xlink:href="../../d9/d36/array__1d_8h.html" target="_top" xlink:title=" ">
<polygon fill="none" stroke="red" points="668.03,-246.5 668.03,-265.5 790.03,-265.5 790.03,-246.5 668.03,-246.5"/>
<text text-anchor="middle" x="729.03" y="-253.5" font-family="Helvetica,sans-Serif" font-size="10.00">containers/array_1d.h</text>
</a>
</g>
</g>
<!-- Node24&#45;&gt;Node25 -->
<g id="edge62" class="edge">
<title>Node24&#45;&gt;Node25</title>
<path fill="none" stroke="midnightblue" d="M1350.04,-374.95C1231.83,-352.5 912.73,-291.89 783.99,-267.44"/>
<polygon fill="midnightblue" stroke="midnightblue" points="784.44,-263.96 773.96,-265.53 783.13,-270.84 784.44,-263.96"/>
</g>
<!-- Node24&#45;&gt;Node47 -->
<g id="edge67" class="edge">
<title>Node24&#45;&gt;Node47</title>
<path fill="none" stroke="midnightblue" d="M1431.53,-374.94C1481.46,-363.22 1571.07,-342.19 1625.68,-329.38"/>
<polygon fill="midnightblue" stroke="midnightblue" points="1626.52,-332.78 1635.46,-327.08 1624.92,-325.96 1626.52,-332.78"/>
</g>
<!-- Node25&#45;&gt;Node2 -->
<g id="edge65" class="edge">
<title>Node25&#45;&gt;Node2</title>
<path fill="none" stroke="midnightblue" d="M741.65,-246.42C766.71,-229.89 825.1,-193.95 880.03,-179 997.96,-146.91 1364.8,-137.4 1509.99,-134.85"/>
<polygon fill="midnightblue" stroke="midnightblue" points="1510.12,-138.35 1520.06,-134.68 1510,-131.35 1510.12,-138.35"/>
</g>
<!-- Node25&#45;&gt;Node7 -->
<g id="edge64" class="edge">
<title>Node25&#45;&gt;Node7</title>
<path fill="none" stroke="midnightblue" d="M728.44,-246.49C727.31,-222.63 727.73,-154.73 766.03,-123 837.84,-63.53 1092.3,-103.63 1184.03,-87 1263.33,-72.62 1353.72,-44.32 1401.77,-28.3"/>
<polygon fill="midnightblue" stroke="midnightblue" points="1402.99,-31.58 1411.36,-25.07 1400.76,-24.94 1402.99,-31.58"/>
</g>
<!-- Node25&#45;&gt;Node12 -->
<g id="edge63" class="edge">
<title>Node25&#45;&gt;Node12</title>
<path fill="none" stroke="midnightblue" d="M704.96,-246.42C687.9,-239.18 665.7,-227.22 652.03,-210 616.47,-165.18 622.57,-143.58 614.03,-87 612.71,-78.21 610.57,-75.19 614.03,-67 620.13,-52.59 632.56,-40.27 643.75,-31.4"/>
<polygon fill="midnightblue" stroke="midnightblue" points="645.99,-34.09 651.93,-25.32 641.82,-28.48 645.99,-34.09"/>
</g>
<!-- Node25&#45;&gt;Node29 -->
<g id="edge66" class="edge">
<title>Node25&#45;&gt;Node29</title>
<path fill="none" stroke="midnightblue" d="M790.3,-251.77C891.08,-246.05 1098.02,-232.55 1272.03,-210 1281.19,-208.81 1290.89,-207.32 1300.28,-205.74"/>
<polygon fill="midnightblue" stroke="midnightblue" points="1301.06,-209.15 1310.32,-204 1299.87,-202.26 1301.06,-209.15"/>
</g>
<!-- Node47&#45;&gt;Node2 -->
<g id="edge77" class="edge">
<title>Node47&#45;&gt;Node2</title>
<path fill="none" stroke="midnightblue" d="M1728.79,-312.3C1786.38,-305.64 1863.32,-288.66 1835.03,-246 1809.18,-207 1679.2,-165.09 1611.37,-145.42"/>
<polygon fill="midnightblue" stroke="midnightblue" points="1612.02,-141.96 1601.44,-142.57 1610.09,-148.69 1612.02,-141.96"/>
</g>
<!-- Node47&#45;&gt;Node4 -->
<g id="edge75" class="edge">
<title>Node47&#45;&gt;Node4</title>
<path fill="none" stroke="midnightblue" d="M1728.69,-313.04C1826.87,-306.63 2034.8,-291.21 2209.03,-266 2254.76,-259.38 2265.41,-253.25 2311.03,-246 2441.48,-225.28 2481.47,-253.92 2606.03,-210 2728.58,-166.79 2853.63,-69.28 2899.12,-31.68"/>
<polygon fill="midnightblue" stroke="midnightblue" points="2901.46,-34.29 2906.9,-25.19 2896.98,-28.91 2901.46,-34.29"/>
</g>
<!-- Node47&#45;&gt;Node7 -->
<g id="edge70" class="edge">
<title>Node47&#45;&gt;Node7</title>
<path fill="none" stroke="midnightblue" d="M1615.22,-312.11C1580.52,-306.53 1537.65,-294 1510.03,-266 1445.4,-200.46 1436.77,-81.22 1435.95,-35.26"/>
<polygon fill="midnightblue" stroke="midnightblue" points="1439.45,-35.2 1435.87,-25.23 1432.45,-35.25 1439.45,-35.2"/>
</g>
<!-- Node47&#45;&gt;Node12 -->
<g id="edge68" class="edge">
<title>Node47&#45;&gt;Node12</title>
<path fill="none" stroke="midnightblue" d="M1615.39,-309.94C1552.13,-302.02 1446.95,-287.09 1358.03,-266 1233.3,-236.41 1207.36,-210.26 1083.03,-179 999.26,-157.93 975.65,-164.71 892.03,-143 864.83,-135.94 858.94,-131.15 832.03,-123 773.83,-105.38 746.78,-125.89 700.03,-87 684.08,-73.73 675.06,-51.19 670.38,-35.18"/>
<polygon fill="midnightblue" stroke="midnightblue" points="673.72,-34.11 667.8,-25.32 666.95,-35.88 673.72,-34.11"/>
</g>
<!-- Node47&#45;&gt;Node19 -->
<g id="edge72" class="edge">
<title>Node47&#45;&gt;Node19</title>
<path fill="none" stroke="midnightblue" d="M1728.56,-313.27C1839.5,-306.66 2093.46,-290.12 2306.03,-266 2307.5,-265.83 2308.98,-265.66 2310.47,-265.48"/>
<polygon fill="midnightblue" stroke="midnightblue" points="2310.98,-268.94 2320.45,-264.2 2310.09,-262 2310.98,-268.94"/>
</g>
<!-- Node47&#45;&gt;Node49 -->
<g id="edge71" class="edge">
<title>Node47&#45;&gt;Node49</title>
<path fill="none" stroke="midnightblue" d="M1728.92,-308.3C1781.82,-298.45 1848.16,-278.98 1817.03,-246 1769.68,-195.81 1265.82,-215.51 1197.03,-210 1158.05,-206.88 1113.16,-202.09 1084.46,-198.88"/>
<polygon fill="midnightblue" stroke="midnightblue" points="1084.63,-195.38 1074.3,-197.74 1083.85,-202.34 1084.63,-195.38"/>
</g>
<!-- Node47&#45;&gt;Node53 -->
<g id="edge78" class="edge">
<title>Node47&#45;&gt;Node53</title>
<path fill="none" stroke="midnightblue" d="M1615.37,-309.32C1560.17,-300.12 1488.91,-281.02 1521.03,-246 1555.87,-208.03 1900.6,-198.54 2043.98,-196.22"/>
<polygon fill="midnightblue" stroke="midnightblue" points="2044.41,-199.72 2054.36,-196.06 2044.3,-192.72 2044.41,-199.72"/>
</g>
<!-- Node47&#45;&gt;Node29 -->
<g id="edge79" class="edge">
<title>Node47&#45;&gt;Node29</title>
<path fill="none" stroke="midnightblue" d="M1615.26,-313.96C1538.92,-309.38 1408.75,-297.14 1374.03,-266 1359.71,-253.15 1355.33,-230.87 1354.14,-214.79"/>
<polygon fill="midnightblue" stroke="midnightblue" points="1357.63,-214.26 1353.75,-204.4 1350.63,-214.53 1357.63,-214.26"/>
</g>
<!-- Node47&#45;&gt;Node25 -->
<g id="edge80" class="edge">
<title>Node47&#45;&gt;Node25</title>
<path fill="none" stroke="midnightblue" d="M1615.52,-312.93C1452.39,-302.64 980.93,-272.89 800.47,-261.51"/>
<polygon fill="midnightblue" stroke="midnightblue" points="800.49,-258 790.29,-260.87 800.05,-264.99 800.49,-258"/>
</g>
<!-- Node48 -->
<g id="node30" class="node">
<title>Node48</title>
<g id="a_node30"><a xlink:title=" ">
<polygon fill="none" stroke="#bfbfbf" points="1708.03,-246.5 1708.03,-265.5 1758.03,-265.5 1758.03,-246.5 1708.03,-246.5"/>
<text text-anchor="middle" x="1733.03" y="-253.5" font-family="Helvetica,sans-Serif" font-size="10.00">cstring</text>
</a>
</g>
</g>
<!-- Node47&#45;&gt;Node48 -->
<g id="edge69" class="edge">
<title>Node47&#45;&gt;Node48</title>
<path fill="none" stroke="midnightblue" d="M1680.77,-307.98C1690.2,-298.78 1705.4,-283.96 1716.98,-272.66"/>
<polygon fill="midnightblue" stroke="midnightblue" points="1719.6,-275 1724.31,-265.51 1714.71,-269.99 1719.6,-275"/>
</g>
<!-- Node50 -->
<g id="node31" class="node">
<title>Node50</title>
<g id="a_node31"><a xlink:title=" ">
<polygon fill="none" stroke="#bfbfbf" points="1776.03,-246.5 1776.03,-265.5 1808.03,-265.5 1808.03,-246.5 1776.03,-246.5"/>
<text text-anchor="middle" x="1792.03" y="-253.5" font-family="Helvetica,sans-Serif" font-size="10.00">set</text>
</a>
</g>
</g>
<!-- Node47&#45;&gt;Node50 -->
<g id="edge73" class="edge">
<title>Node47&#45;&gt;Node50</title>
<path fill="none" stroke="midnightblue" d="M1689.23,-307.98C1709.53,-297.91 1743.47,-281.08 1766.76,-269.53"/>
<polygon fill="midnightblue" stroke="midnightblue" points="1768.62,-272.52 1776.02,-264.94 1765.51,-266.25 1768.62,-272.52"/>
</g>
<!-- Node51 -->
<g id="node32" class="node">
<title>Node51</title>
<g id="a_node32"><a xlink:title=" ">
<polygon fill="none" stroke="#bfbfbf" points="1530.03,-246.5 1530.03,-265.5 1616.03,-265.5 1616.03,-246.5 1530.03,-246.5"/>
<text text-anchor="middle" x="1573.03" y="-253.5" font-family="Helvetica,sans-Serif" font-size="10.00">unordered_set</text>
</a>
</g>
</g>
<!-- Node47&#45;&gt;Node51 -->
<g id="edge74" class="edge">
<title>Node47&#45;&gt;Node51</title>
<path fill="none" stroke="midnightblue" d="M1657.85,-307.98C1641.68,-298.25 1615.01,-282.23 1595.89,-270.74"/>
<polygon fill="midnightblue" stroke="midnightblue" points="1597.57,-267.66 1587.19,-265.51 1593.96,-273.66 1597.57,-267.66"/>
</g>
<!-- Node52 -->
<g id="node33" class="node">
<title>Node52</title>
<g id="a_node33"><a xlink:title=" ">
<polygon fill="none" stroke="#bfbfbf" points="1634.53,-246.5 1634.53,-265.5 1689.53,-265.5 1689.53,-246.5 1634.53,-246.5"/>
<text text-anchor="middle" x="1662.03" y="-253.5" font-family="Helvetica,sans-Serif" font-size="10.00">fstream</text>
</a>
</g>
</g>
<!-- Node47&#45;&gt;Node52 -->
<g id="edge76" class="edge">
<title>Node47&#45;&gt;Node52</title>
<path fill="none" stroke="midnightblue" d="M1670.6,-307.98C1669.19,-299.58 1666.99,-286.48 1665.17,-275.66"/>
<polygon fill="midnightblue" stroke="midnightblue" points="1668.57,-274.79 1663.46,-265.51 1661.67,-275.95 1668.57,-274.79"/>
</g>
<!-- Node54 -->
<g id="node34" class="node">
<title>Node54</title>
<g id="a_node34"><a xlink:href="../../d5/d10/weak__pointer__vector_8h.html" target="_top" xlink:title=" ">
<polygon fill="none" stroke="red" points="2442.53,-179.5 2442.53,-209.5 2579.53,-209.5 2579.53,-179.5 2442.53,-179.5"/>
<text text-anchor="start" x="2450.53" y="-197.5" font-family="Helvetica,sans-Serif" font-size="10.00">containers/weak_pointer</text>
<text text-anchor="middle" x="2511.03" y="-186.5" font-family="Helvetica,sans-Serif" font-size="10.00">_vector.h</text>
</a>
</g>
</g>
<!-- Node47&#45;&gt;Node54 -->
<g id="edge81" class="edge">
<title>Node47&#45;&gt;Node54</title>
<path fill="none" stroke="midnightblue" d="M1728.71,-308.33C1874.82,-287.25 2264.51,-231.05 2432.34,-206.85"/>
<polygon fill="midnightblue" stroke="midnightblue" points="2432.95,-210.3 2442.35,-205.41 2431.95,-203.37 2432.95,-210.3"/>
</g>
<!-- Node47&#45;&gt;Node58 -->
<g id="edge86" class="edge">
<title>Node47&#45;&gt;Node58</title>
<path fill="none" stroke="midnightblue" d="M1728.85,-309.89C1836.16,-297.4 2076.03,-269.48 2278.03,-246 2346.92,-237.99 2541.91,-261.79 2588.03,-210 2597.2,-199.71 2597.33,-189.17 2588.03,-179 2580.78,-171.07 2290.5,-149.04 2153.39,-139.04"/>
<polygon fill="midnightblue" stroke="midnightblue" points="2153.62,-135.55 2143.39,-138.32 2153.11,-142.53 2153.62,-135.55"/>
</g>
<!-- Node54&#45;&gt;Node2 -->
<g id="edge85" class="edge">
<title>Node54&#45;&gt;Node2</title>
<path fill="none" stroke="midnightblue" d="M2442.29,-180.81C2437.47,-180.13 2432.69,-179.52 2428.03,-179 2093.7,-141.98 2007.64,-165.79 1672.03,-143 1658.26,-142.06 1643.46,-140.87 1629.52,-139.66"/>
<polygon fill="midnightblue" stroke="midnightblue" points="1629.82,-136.17 1619.55,-138.77 1629.2,-143.14 1629.82,-136.17"/>
</g>
<!-- Node54&#45;&gt;Node4 -->
<g id="edge84" class="edge">
<title>Node54&#45;&gt;Node4</title>
<path fill="none" stroke="midnightblue" d="M2543.23,-179.46C2620.24,-145.89 2814.11,-61.37 2887.9,-29.2"/>
<polygon fill="midnightblue" stroke="midnightblue" points="2889.33,-32.4 2897.09,-25.19 2886.53,-25.98 2889.33,-32.4"/>
</g>
<!-- Node54&#45;&gt;Node7 -->
<g id="edge83" class="edge">
<title>Node54&#45;&gt;Node7</title>
<path fill="none" stroke="midnightblue" d="M2442.27,-180.92C2437.46,-180.21 2432.68,-179.56 2428.03,-179 2195.41,-150.8 2133.11,-181.88 1902.03,-143 1737.47,-115.31 1547.07,-54.2 1470.51,-28.38"/>
<polygon fill="midnightblue" stroke="midnightblue" points="1471.5,-25.02 1460.9,-25.12 1469.25,-31.65 1471.5,-25.02"/>
</g>
<!-- Node54&#45;&gt;Node12 -->
<g id="edge82" class="edge">
<title>Node54&#45;&gt;Node12</title>
<path fill="none" stroke="midnightblue" d="M2442.28,-180.86C2437.47,-180.17 2432.68,-179.54 2428.03,-179 2152.97,-147.12 2081.59,-170.33 1806.03,-143 1742.61,-136.71 1727.51,-128.78 1664.03,-123 1472.44,-105.56 983.91,-140.24 799.03,-87 781.82,-82.04 779.78,-75.55 764.03,-67 739.9,-53.89 712.02,-39.61 692.19,-29.59"/>
<polygon fill="midnightblue" stroke="midnightblue" points="693.65,-26.41 683.15,-25.04 690.5,-32.66 693.65,-26.41"/>
</g>
<!-- Node58&#45;&gt;Node7 -->
<g id="edge88" class="edge">
<title>Node58&#45;&gt;Node7</title>
<path fill="none" stroke="midnightblue" d="M2054.7,-123.44C2002.16,-107.66 1891.35,-74.87 1852.03,-67 1715.71,-39.71 1551.1,-25.02 1476.4,-19.33"/>
<polygon fill="midnightblue" stroke="midnightblue" points="1476.28,-15.81 1466.05,-18.55 1475.76,-22.79 1476.28,-15.81"/>
</g>
<!-- Node58&#45;&gt;Node11 -->
<g id="edge89" class="edge">
<title>Node58&#45;&gt;Node11</title>
<path fill="none" stroke="midnightblue" d="M2069.86,-123.32C2057.19,-114.98 2037.8,-102.21 2022.83,-92.35"/>
<polygon fill="midnightblue" stroke="midnightblue" points="2024.45,-89.23 2014.18,-86.65 2020.6,-95.08 2024.45,-89.23"/>
</g>
<!-- Node58&#45;&gt;Node12 -->
<g id="edge87" class="edge">
<title>Node58&#45;&gt;Node12</title>
<path fill="none" stroke="midnightblue" d="M2022.99,-130.05C1840.63,-124 1294.91,-104.87 1118.03,-87 1035.55,-78.67 787.01,-37.04 698.1,-21.96"/>
<polygon fill="midnightblue" stroke="midnightblue" points="698.51,-18.48 688.07,-20.26 697.34,-25.39 698.51,-18.48"/>
</g>
<!-- Node93&#45;&gt;Node2 -->
<g id="edge94" class="edge">
<title>Node93&#45;&gt;Node2</title>
<path fill="none" stroke="midnightblue" d="M1089.86,-369.28C1107.52,-326.89 1161.41,-202.9 1197.03,-179 1254.44,-140.48 1437.47,-151.81 1506.03,-143 1507.5,-142.81 1508.97,-142.62 1510.47,-142.42"/>
<polygon fill="midnightblue" stroke="midnightblue" points="1510.99,-145.89 1520.44,-141.09 1510.06,-138.95 1510.99,-145.89"/>
</g>
<!-- Node93&#45;&gt;Node4 -->
<g id="edge93" class="edge">
<title>Node93&#45;&gt;Node4</title>
<path fill="none" stroke="midnightblue" d="M1079.15,-369.48C1065.81,-331.14 1029.65,-226.32 1027.03,-210 1024.86,-196.4 1017.87,-189.29 1027.03,-179 1171.09,-17.32 1295.36,-142.43 1511.03,-123 1634.57,-111.87 1949.47,-123.43 2068.03,-87 2084.79,-81.85 2085.27,-72.13 2102.03,-67 2249.85,-21.79 2737.22,-16.96 2878.39,-16.52"/>
<polygon fill="midnightblue" stroke="midnightblue" points="2878.72,-20.02 2888.71,-16.49 2878.7,-13.02 2878.72,-20.02"/>
</g>
<!-- Node93&#45;&gt;Node7 -->
<g id="edge92" class="edge">
<title>Node93&#45;&gt;Node7</title>
<path fill="none" stroke="midnightblue" d="M1074.12,-369.46C1045.91,-328.67 968.79,-211.09 994.03,-179 1101.48,-42.43 1225.31,-176.86 1374.03,-87 1395.96,-73.75 1414.33,-50.2 1425.25,-33.99"/>
<polygon fill="midnightblue" stroke="midnightblue" points="1428.3,-35.72 1430.79,-25.43 1422.42,-31.92 1428.3,-35.72"/>
</g>
<!-- Node93&#45;&gt;Node12 -->
<g id="edge91" class="edge">
<title>Node93&#45;&gt;Node12</title>
<path fill="none" stroke="midnightblue" d="M1050.58,-369.41C971.87,-334.4 774.52,-235.44 680.03,-87 670.1,-71.4 666.98,-50.23 666.11,-35.17"/>
<polygon fill="midnightblue" stroke="midnightblue" points="669.6,-34.93 665.81,-25.04 662.61,-35.14 669.6,-34.93"/>
</g>
<!-- Node93&#45;&gt;Node47 -->
<g id="edge95" class="edge">
<title>Node93&#45;&gt;Node47</title>
<path fill="none" stroke="midnightblue" d="M1136.73,-377.67C1243.97,-365.82 1487.36,-338.91 1605.38,-325.87"/>
<polygon fill="midnightblue" stroke="midnightblue" points="1605.82,-329.34 1615.38,-324.76 1605.05,-322.38 1605.82,-329.34"/>
</g>
<!-- Node94&#45;&gt;Node29 -->
<g id="edge99" class="edge">
<title>Node94&#45;&gt;Node29</title>
<path fill="none" stroke="midnightblue" d="M2171.5,-307.96C2138.98,-292.56 2066.72,-260.41 2002.03,-246 1802.5,-201.56 1560.87,-194.73 1436.64,-194.53"/>
<polygon fill="midnightblue" stroke="midnightblue" points="1436.45,-191.03 1426.45,-194.53 1436.45,-198.03 1436.45,-191.03"/>
</g>
<!-- Node94&#45;&gt;Node58 -->
<g id="edge98" class="edge">
<title>Node94&#45;&gt;Node58</title>
<path fill="none" stroke="midnightblue" d="M2247.58,-308.13C2263,-306.03 2279.64,-303.84 2295.03,-302 2372.89,-292.69 2586.78,-317.35 2646.03,-266 2675.63,-240.35 2686.63,-207.75 2660.03,-179 2651.52,-169.8 2305.3,-147.58 2153.33,-138.24"/>
<polygon fill="midnightblue" stroke="midnightblue" points="2153.37,-134.74 2143.17,-137.62 2152.94,-141.72 2153.37,-134.74"/>
</g>
<!-- Node96&#45;&gt;Node2 -->
<g id="edge102" class="edge">
<title>Node96&#45;&gt;Node2</title>
<path fill="none" stroke="midnightblue" d="M2443.15,-369.46C2451.58,-360.03 2461.51,-346.84 2466.03,-333 2478.1,-296.13 2486.28,-273.62 2459.03,-246 2377.42,-163.26 2305.25,-259.36 2200.03,-210 2181.52,-201.31 2184.83,-187.06 2166.03,-179 2062.43,-134.57 1772.35,-152.61 1660.03,-143 1650.4,-142.18 1640.19,-141.23 1630.24,-140.26"/>
<polygon fill="midnightblue" stroke="midnightblue" points="1630.29,-136.75 1620,-139.25 1629.61,-143.72 1630.29,-136.75"/>
</g>
<!-- Node96&#45;&gt;Node63 -->
<g id="edge104" class="edge">
<title>Node96&#45;&gt;Node63</title>
<path fill="none" stroke="midnightblue" d="M2470.7,-369.4C2499.76,-359.56 2538.72,-346.37 2569.7,-335.88"/>
<polygon fill="midnightblue" stroke="midnightblue" points="2571.11,-339.1 2579.45,-332.58 2568.86,-332.47 2571.11,-339.1"/>
</g>
<!-- Node96&#45;&gt;Node53 -->
<g id="edge105" class="edge">
<title>Node96&#45;&gt;Node53</title>
<path fill="none" stroke="midnightblue" d="M2435.89,-369.36C2448.09,-341.9 2469.6,-280.96 2439.03,-246 2399.63,-200.93 2230.99,-220.43 2172.03,-210 2165.67,-208.87 2158.98,-207.56 2152.41,-206.19"/>
<polygon fill="midnightblue" stroke="midnightblue" points="2152.75,-202.68 2142.24,-204.02 2151.29,-209.53 2152.75,-202.68"/>
</g>
<!-- Node96&#45;&gt;Node89 -->
<g id="edge103" class="edge">
<title>Node96&#45;&gt;Node89</title>
<path fill="none" stroke="midnightblue" d="M2415.15,-369.4C2406.68,-360.79 2395.68,-349.63 2386.15,-339.94"/>
<polygon fill="midnightblue" stroke="midnightblue" points="2388.4,-337.25 2378.89,-332.58 2383.42,-342.16 2388.4,-337.25"/>
</g>
<!-- Node97&#45;&gt;Node2 -->
<g id="edge107" class="edge">
<title>Node97&#45;&gt;Node2</title>
<path fill="none" stroke="midnightblue" d="M2082.42,-503.21C2075.65,-486.58 2063.49,-458.51 2050.03,-436 1969.86,-301.85 1950.05,-248.42 1810.03,-179 1801.93,-174.98 1697.88,-156.31 1629.47,-144.31"/>
<polygon fill="midnightblue" stroke="midnightblue" points="1629.69,-140.8 1619.24,-142.52 1628.48,-147.69 1629.69,-140.8"/>
</g>
<!-- Node97&#45;&gt;Node17 -->
<g id="edge121" class="edge">
<title>Node97&#45;&gt;Node17</title>
<path fill="none" stroke="midnightblue" d="M2147.3,-505.14C2151.94,-504.35 2156.56,-503.62 2161.03,-503 2356.68,-475.71 2408.36,-494.03 2604.03,-467 2612.15,-465.88 2620.72,-464.44 2629.03,-462.91"/>
<polygon fill="midnightblue" stroke="midnightblue" points="2629.83,-466.32 2639,-461 2628.52,-459.44 2629.83,-466.32"/>
</g>
<!-- Node97&#45;&gt;Node63 -->
<g id="edge129" class="edge">
<title>Node97&#45;&gt;Node63</title>
<path fill="none" stroke="midnightblue" d="M2147.29,-503.98C2148.89,-503.65 2150.47,-503.32 2152.03,-503 2339.08,-464.83 2417.05,-515.51 2569.03,-400 2588.74,-385.02 2603,-360.25 2611.55,-341.94"/>
<polygon fill="midnightblue" stroke="midnightblue" points="2614.75,-343.35 2615.6,-332.79 2608.35,-340.52 2614.75,-343.35"/>
</g>
<!-- Node97&#45;&gt;Node53 -->
<g id="edge130" class="edge">
<title>Node97&#45;&gt;Node53</title>
<path fill="none" stroke="midnightblue" d="M2086.09,-503.28C2081.8,-466.21 2075.3,-365.15 2121.03,-302 2141.79,-273.34 2173.52,-296.15 2192.03,-266 2207.76,-240.39 2172.57,-219.86 2142.57,-207.7"/>
<polygon fill="midnightblue" stroke="midnightblue" points="2143.67,-204.37 2133.08,-204.05 2141.15,-210.91 2143.67,-204.37"/>
</g>
<!-- Node97&#45;&gt;Node85 -->
<g id="edge124" class="edge">
<title>Node97&#45;&gt;Node85</title>
<path fill="none" stroke="midnightblue" d="M2147.29,-509.04C2164,-506.85 2182.21,-504.65 2199.03,-503 2320.27,-491.1 2633.12,-512.73 2746.03,-467 2764.17,-459.65 2803.89,-422.73 2826.13,-401.19"/>
<polygon fill="midnightblue" stroke="midnightblue" points="2828.75,-403.52 2833.47,-394.03 2823.86,-398.51 2828.75,-403.52"/>
</g>
<!-- Node97&#45;&gt;Node88 -->
<g id="edge122" class="edge">
<title>Node97&#45;&gt;Node88</title>
<path fill="none" stroke="midnightblue" d="M2128.83,-503.4C2162.54,-491.74 2209.88,-475.37 2241.69,-464.38"/>
<polygon fill="midnightblue" stroke="midnightblue" points="2243.12,-467.58 2251.43,-461.01 2240.84,-460.97 2243.12,-467.58"/>
</g>
<!-- Node97&#45;&gt;Node29 -->
<g id="edge125" class="edge">
<title>Node97&#45;&gt;Node29</title>
<path fill="none" stroke="midnightblue" d="M2077.44,-503.44C2036.99,-449.94 1892.98,-261.23 1863.03,-246 1790.57,-209.15 1561.37,-199.18 1436.72,-196.49"/>
<polygon fill="midnightblue" stroke="midnightblue" points="1436.53,-192.98 1426.46,-196.28 1436.39,-199.98 1436.53,-192.98"/>
</g>
<!-- Node97&#45;&gt;Node47 -->
<g id="edge108" class="edge">
<title>Node97&#45;&gt;Node47</title>
<path fill="none" stroke="midnightblue" d="M2028.82,-513.66C1973.44,-508.38 1889.4,-495.96 1822.03,-467 1775.23,-446.88 1764.8,-436.27 1729.03,-400 1709.68,-380.37 1692.29,-353.52 1681.95,-336.1"/>
<polygon fill="midnightblue" stroke="midnightblue" points="1684.75,-333.95 1676.71,-327.05 1678.7,-337.46 1684.75,-333.95"/>
</g>
<!-- Node97&#45;&gt;Node94 -->
<g id="edge123" class="edge">
<title>Node97&#45;&gt;Node94</title>
<path fill="none" stroke="midnightblue" d="M2096.07,-503.45C2101.77,-493.38 2109.53,-479.44 2116.03,-467 2140.34,-420.49 2167.13,-364.75 2180.48,-336.63"/>
<polygon fill="midnightblue" stroke="midnightblue" points="2183.79,-337.82 2184.91,-327.28 2177.46,-334.82 2183.79,-337.82"/>
</g>
<!-- Node98 -->
<g id="node40" class="node">
<title>Node98</title>
<g id="a_node40"><a xlink:href="../../de/dca/variables_8h.html" target="_top" xlink:title=" ">
<polygon fill="none" stroke="red" points="737.03,-442 737.03,-461 851.03,-461 851.03,-442 737.03,-442"/>
<text text-anchor="middle" x="794.03" y="-449" font-family="Helvetica,sans-Serif" font-size="10.00">includes/variables.h</text>
</a>
</g>
</g>
<!-- Node97&#45;&gt;Node98 -->
<g id="edge109" class="edge">
<title>Node97&#45;&gt;Node98</title>
<path fill="none" stroke="midnightblue" d="M2028.65,-514.52C1815.04,-503.79 1086.58,-467.2 861.11,-455.87"/>
<polygon fill="midnightblue" stroke="midnightblue" points="861.23,-452.37 851.07,-455.37 860.88,-459.36 861.23,-452.37"/>
</g>
<!-- Node97&#45;&gt;Node106 -->
<g id="edge126" class="edge">
<title>Node97&#45;&gt;Node106</title>
<path fill="none" stroke="midnightblue" d="M2049.85,-503.4C2018.42,-491.79 1974.35,-475.51 1944.58,-464.52"/>
<polygon fill="midnightblue" stroke="midnightblue" points="1945.66,-461.19 1935.07,-461.01 1943.24,-467.75 1945.66,-461.19"/>
</g>
<!-- Node98&#45;&gt;Node2 -->
<g id="edge112" class="edge">
<title>Node98&#45;&gt;Node2</title>
<path fill="none" stroke="midnightblue" d="M800.89,-441.75C836.02,-396.99 995.57,-195.07 1027.03,-179 1110.02,-136.62 1386.86,-132.82 1510.04,-133.32"/>
<polygon fill="midnightblue" stroke="midnightblue" points="1510.39,-136.82 1520.41,-133.37 1510.43,-129.82 1510.39,-136.82"/>
</g>
<!-- Node98&#45;&gt;Node7 -->
<g id="edge111" class="edge">
<title>Node98&#45;&gt;Node7</title>
<path fill="none" stroke="midnightblue" d="M794.25,-441.98C795.39,-396.58 800.89,-184.96 804.03,-179 823.64,-141.91 840.87,-138.06 880.03,-123 1030.53,-65.11 1083.79,-122.68 1241.03,-87 1302.43,-73.07 1370.94,-45.27 1408.19,-29.06"/>
<polygon fill="midnightblue" stroke="midnightblue" points="1409.66,-32.23 1417.4,-25 1406.84,-25.83 1409.66,-32.23"/>
</g>
<!-- Node98&#45;&gt;Node12 -->
<g id="edge110" class="edge">
<title>Node98&#45;&gt;Node12</title>
<path fill="none" stroke="midnightblue" d="M736.78,-445.6C579.43,-430.58 152.03,-378.58 152.03,-257 152.03,-257 152.03,-257 152.03,-132 152.03,-32.76 521.35,-18.77 633.88,-16.82"/>
<polygon fill="midnightblue" stroke="midnightblue" points="634,-20.31 643.95,-16.66 633.9,-13.32 634,-20.31"/>
</g>
<!-- Node98&#45;&gt;Node64 -->
<g id="edge113" class="edge">
<title>Node98&#45;&gt;Node64</title>
<path fill="none" stroke="midnightblue" d="M780.31,-441.95C764.87,-432.21 739.2,-415.61 718.03,-400 700.49,-387.06 699.97,-377.8 680.03,-369 580.15,-324.91 527.77,-393.73 437.03,-333 401.67,-309.33 378.05,-284.09 397.03,-246 405.08,-229.85 421.03,-217.51 435.35,-209.07"/>
<polygon fill="midnightblue" stroke="midnightblue" points="437.34,-211.97 444.42,-204.08 433.97,-205.83 437.34,-211.97"/>
</g>
<!-- Node98&#45;&gt;Node67 -->
<g id="edge114" class="edge">
<title>Node98&#45;&gt;Node67</title>
<path fill="none" stroke="midnightblue" d="M786.92,-441.96C773.95,-426.61 745.29,-393.66 718.03,-369 681.59,-336.02 672.32,-327.06 630.03,-302 608.18,-289.05 581.93,-277.46 561.67,-269.29"/>
<polygon fill="midnightblue" stroke="midnightblue" points="562.83,-265.99 552.25,-265.56 560.26,-272.5 562.83,-265.99"/>
</g>
<!-- Node98&#45;&gt;Node29 -->
<g id="edge115" class="edge">
<title>Node98&#45;&gt;Node29</title>
<path fill="none" stroke="midnightblue" d="M851.39,-443.41C947.66,-431.35 1132.55,-407.42 1145.03,-400 1218.47,-356.36 1195.32,-301.76 1260.03,-246 1278.64,-229.97 1303.19,-216.99 1322.54,-208.21"/>
<polygon fill="midnightblue" stroke="midnightblue" points="1324.09,-211.35 1331.84,-204.13 1321.28,-204.94 1324.09,-211.35"/>
</g>
<!-- Node98&#45;&gt;Node25 -->
<g id="edge116" class="edge">
<title>Node98&#45;&gt;Node25</title>
<path fill="none" stroke="midnightblue" d="M791.16,-441.94C781.32,-412.66 748.9,-316.15 735.22,-275.41"/>
<polygon fill="midnightblue" stroke="midnightblue" points="738.53,-274.27 732.03,-265.91 731.89,-276.5 738.53,-274.27"/>
</g>
<!-- Node98&#45;&gt;Node81 -->
<g id="edge117" class="edge">
<title>Node98&#45;&gt;Node81</title>
<path fill="none" stroke="midnightblue" d="M851.26,-446.84C1021.76,-435.95 1526.93,-403.66 1727.55,-390.84"/>
<polygon fill="midnightblue" stroke="midnightblue" points="1727.98,-394.32 1737.73,-390.18 1727.53,-387.33 1727.98,-394.32"/>
</g>
<!-- Node81&#45;&gt;Node2 -->
<g id="edge119" class="edge">
<title>Node81&#45;&gt;Node2</title>
<path fill="none" stroke="midnightblue" d="M1822.17,-369.27C1840.76,-343.65 1874.09,-288.49 1853.03,-246 1831.21,-201.95 1809.54,-199.88 1765.03,-179 1740.96,-167.7 1675.93,-153.82 1627.54,-144.49"/>
<polygon fill="midnightblue" stroke="midnightblue" points="1627.97,-141.01 1617.49,-142.57 1626.66,-147.88 1627.97,-141.01"/>
</g>
<!-- Node81&#45;&gt;Node7 -->
<g id="edge118" class="edge">
<title>Node81&#45;&gt;Node7</title>
<path fill="none" stroke="midnightblue" d="M1856.28,-369.5C1916.26,-351.43 2025.64,-320.15 2121.03,-302 2253.39,-276.81 2290.62,-295.69 2422.03,-266 2503.28,-247.64 2645.06,-239.71 2588.03,-179 2544.29,-132.42 2077.32,-151.86 2014.03,-143 1907.61,-128.11 1589.09,-53.07 1476.22,-26.14"/>
<polygon fill="midnightblue" stroke="midnightblue" points="1476.81,-22.68 1466.27,-23.76 1475.18,-29.49 1476.81,-22.68"/>
</g>
<!-- Node81&#45;&gt;Node47 -->
<g id="edge120" class="edge">
<title>Node81&#45;&gt;Node47</title>
<path fill="none" stroke="midnightblue" d="M1780.87,-369.4C1756.59,-358.04 1722.76,-342.22 1699.29,-331.24"/>
<polygon fill="midnightblue" stroke="midnightblue" points="1700.77,-328.07 1690.23,-327.01 1697.8,-334.41 1700.77,-328.07"/>
</g>
<!-- Node106&#45;&gt;Node29 -->
<g id="edge128" class="edge">
<title>Node106&#45;&gt;Node29</title>
<path fill="none" stroke="midnightblue" d="M1914.16,-441.71C1917.44,-426.51 1922.6,-394.52 1915.03,-369 1896.49,-306.48 1890.65,-280.05 1835.03,-246 1770.15,-206.27 1556.1,-197.49 1436.58,-195.74"/>
<polygon fill="midnightblue" stroke="midnightblue" points="1436.42,-192.24 1426.38,-195.61 1436.33,-199.24 1436.42,-192.24"/>
</g>
<!-- Node106&#45;&gt;Node47 -->
<g id="edge127" class="edge">
<title>Node106&#45;&gt;Node47</title>
<path fill="none" stroke="midnightblue" d="M1912.75,-441.97C1913.62,-425.44 1913.01,-388.89 1893.03,-369 1871.49,-347.55 1795.48,-333.6 1738.58,-325.91"/>
<polygon fill="midnightblue" stroke="midnightblue" points="1738.92,-322.42 1728.55,-324.59 1738.01,-329.36 1738.92,-322.42"/>
</g>
<!-- Node110&#45;&gt;Node2 -->
<g id="edge136" class="edge">
<title>Node110&#45;&gt;Node2</title>
<path fill="none" stroke="midnightblue" d="M319.43,-307.78C314.3,-293.97 306.52,-266.54 316.03,-246 335.38,-204.22 352.13,-195.68 395.03,-179 499.22,-138.49 1285.21,-134.36 1510.1,-134.01"/>
<polygon fill="midnightblue" stroke="midnightblue" points="1510.38,-137.51 1520.38,-134 1510.37,-130.51 1510.38,-137.51"/>
</g>
<!-- Node110&#45;&gt;Node64 -->
<g id="edge137" class="edge">
<title>Node110&#45;&gt;Node64</title>
<path fill="none" stroke="midnightblue" d="M320.88,-307.67C317.91,-293.2 314.35,-264.26 328.03,-246 343.9,-224.82 369.65,-212.52 394.49,-205.38"/>
<polygon fill="midnightblue" stroke="midnightblue" points="395.53,-208.73 404.32,-202.8 393.75,-201.96 395.53,-208.73"/>
</g>
<!-- Node110&#45;&gt;Node67 -->
<g id="edge138" class="edge">
<title>Node110&#45;&gt;Node67</title>
<path fill="none" stroke="midnightblue" d="M352.55,-307.98C388.65,-297.55 449.88,-279.86 489.89,-268.31"/>
<polygon fill="midnightblue" stroke="midnightblue" points="490.94,-271.65 499.57,-265.51 489,-264.92 490.94,-271.65"/>
</g>
<!-- Node110&#45;&gt;Node25 -->
<g id="edge139" class="edge">
<title>Node110&#45;&gt;Node25</title>
<path fill="none" stroke="midnightblue" d="M381.2,-307.98C455.07,-297.15 582.31,-278.5 660.72,-267.01"/>
<polygon fill="midnightblue" stroke="midnightblue" points="661.59,-270.42 670.97,-265.51 660.57,-263.5 661.59,-270.42"/>
</g>
<!-- Node111&#45;&gt;Node2 -->
<g id="edge141" class="edge">
<title>Node111&#45;&gt;Node2</title>
<path fill="none" stroke="midnightblue" d="M2058.31,-828.06C2059.9,-827.71 2061.48,-827.35 2063.03,-827 2134.57,-810.9 2155.03,-815.79 2224.03,-791 2569.14,-667 3011.87,-727.13 2933.03,-369 2917.14,-296.79 2890.61,-271.01 2821.03,-246 2644.31,-182.47 2577.73,-270.74 2400.03,-210 2376,-201.79 2376.2,-186.81 2352.03,-179 2205.52,-131.63 1813.58,-154.66 1660.03,-143 1650.39,-142.27 1640.17,-141.37 1630.22,-140.42"/>
<polygon fill="midnightblue" stroke="midnightblue" points="1630.27,-136.91 1619.98,-139.42 1629.6,-143.88 1630.27,-136.91"/>
</g>
<!-- Node111&#45;&gt;Node16 -->
<g id="edge142" class="edge">
<title>Node111&#45;&gt;Node16</title>
<path fill="none" stroke="midnightblue" d="M2032.44,-827.34C2047.42,-819.09 2063.59,-807.11 2072.03,-791 2078.43,-778.8 2074.69,-773.52 2072.03,-760 2059.8,-697.59 2025.68,-629.5 2008.78,-598.33"/>
<polygon fill="midnightblue" stroke="midnightblue" points="2011.84,-596.63 2003.95,-589.56 2005.71,-600.01 2011.84,-596.63"/>
</g>
<!-- Node111&#45;&gt;Node88 -->
<g id="edge144" class="edge">
<title>Node111&#45;&gt;Node88</title>
<path fill="none" stroke="midnightblue" d="M2057.37,-827.5C2142.06,-805.44 2289.03,-759.91 2289.03,-709.5 2289.03,-709.5 2289.03,-709.5 2289.03,-579 2289.03,-540.5 2283,-495.75 2279.16,-471.14"/>
<polygon fill="midnightblue" stroke="midnightblue" points="2282.58,-470.37 2277.53,-461.06 2275.67,-471.49 2282.58,-470.37"/>
</g>
<!-- Node111&#45;&gt;Node47 -->
<g id="edge143" class="edge">
<title>Node111&#45;&gt;Node47</title>
<path fill="none" stroke="midnightblue" d="M1940,-834.65C1828.07,-820 1596.03,-781.01 1596.03,-709.5 1596.03,-709.5 1596.03,-709.5 1596.03,-450.5 1596.03,-403.19 1633.15,-357.54 1655.51,-334.33"/>
<polygon fill="midnightblue" stroke="midnightblue" points="1658.14,-336.65 1662.72,-327.09 1653.18,-331.71 1658.14,-336.65"/>
</g>
<!-- Node111&#45;&gt;Node110 -->
<g id="edge145" class="edge">
<title>Node111&#45;&gt;Node110</title>
<path fill="none" stroke="midnightblue" d="M1939.75,-838.77C1699.94,-827.01 802.45,-775.75 548.03,-657 504.13,-636.51 490.31,-629.35 462.03,-590 419.71,-531.1 441.64,-500.28 408.03,-436 387.64,-397 355.47,-356.48 337.11,-334.69"/>
<polygon fill="midnightblue" stroke="midnightblue" points="339.75,-332.39 330.59,-327.06 334.42,-336.94 339.75,-332.39"/>
</g>
<!-- Node112 -->
<g id="node45" class="node">
<title>Node112</title>
<g id="a_node45"><a xlink:href="../../d8/d7a/fluid__element_8h.html" target="_top" xlink:title=" ">
<polygon fill="none" stroke="red" points="1935.03,-760.5 1935.03,-790.5 2063.03,-790.5 2063.03,-760.5 1935.03,-760.5"/>
<text text-anchor="start" x="1943.03" y="-778.5" font-family="Helvetica,sans-Serif" font-size="10.00">custom_elements/fluid</text>
<text text-anchor="middle" x="1999.03" y="-767.5" font-family="Helvetica,sans-Serif" font-size="10.00">_element.h</text>
</a>
</g>
</g>
<!-- Node111&#45;&gt;Node112 -->
<g id="edge146" class="edge">
<title>Node111&#45;&gt;Node112</title>
<path fill="none" stroke="midnightblue" d="M1999.03,-827.4C1999.03,-819.64 1999.03,-809.81 1999.03,-800.86"/>
<polygon fill="midnightblue" stroke="midnightblue" points="2002.53,-800.58 1999.03,-790.58 1995.53,-800.58 2002.53,-800.58"/>
</g>
<!-- Node111&#45;&gt;Node116 -->
<g id="edge181" class="edge">
<title>Node111&#45;&gt;Node116</title>
<path fill="none" stroke="midnightblue" d="M1939.65,-837.61C1840.65,-830.58 1646.41,-814.28 1582.03,-791 1558.15,-782.36 1558.06,-768.22 1534.03,-760 1442.93,-728.85 1169.28,-716.25 1028.99,-711.73"/>
<polygon fill="midnightblue" stroke="midnightblue" points="1028.82,-708.22 1018.71,-711.4 1028.6,-715.22 1028.82,-708.22"/>
</g>
<!-- Node112&#45;&gt;Node2 -->
<g id="edge147" class="edge">
<title>Node112&#45;&gt;Node2</title>
<path fill="none" stroke="midnightblue" d="M2046.89,-760.41C2174.91,-721.88 2534.42,-608.16 2813.03,-467 2869.4,-438.44 2941.02,-427.04 2916.03,-369 2884.58,-295.94 2858.62,-278.52 2786.03,-246 2613.44,-168.67 2541.01,-271.12 2362.03,-210 2338,-201.79 2338.19,-186.85 2314.03,-179 2175.61,-134.01 1805.15,-154.24 1660.03,-143 1650.39,-142.25 1640.18,-141.34 1630.22,-140.39"/>
<polygon fill="midnightblue" stroke="midnightblue" points="1630.28,-136.88 1619.98,-139.4 1629.6,-143.85 1630.28,-136.88"/>
</g>
<!-- Node112&#45;&gt;Node16 -->
<g id="edge148" class="edge">
<title>Node112&#45;&gt;Node16</title>
<path fill="none" stroke="midnightblue" d="M1999.03,-760.27C1999.03,-725.94 1999.03,-638.57 1999.03,-599.9"/>
<polygon fill="midnightblue" stroke="midnightblue" points="2002.53,-599.58 1999.03,-589.58 1995.53,-599.58 2002.53,-599.58"/>
</g>
<!-- Node112&#45;&gt;Node88 -->
<g id="edge151" class="edge">
<title>Node112&#45;&gt;Node88</title>
<path fill="none" stroke="midnightblue" d="M2011.29,-760.25C2056.52,-707.68 2213.82,-524.82 2261.94,-468.88"/>
<polygon fill="midnightblue" stroke="midnightblue" points="2264.82,-470.9 2268.69,-461.03 2259.52,-466.33 2264.82,-470.9"/>
</g>
<!-- Node112&#45;&gt;Node47 -->
<g id="edge149" class="edge">
<title>Node112&#45;&gt;Node47</title>
<path fill="none" stroke="midnightblue" d="M1934.82,-762.17C1839.59,-742.02 1672.03,-698.59 1672.03,-642.5 1672.03,-642.5 1672.03,-642.5 1672.03,-450.5 1672.03,-410.16 1672.03,-362.88 1672.03,-337.28"/>
<polygon fill="midnightblue" stroke="midnightblue" points="1675.53,-337.15 1672.03,-327.15 1668.53,-337.15 1675.53,-337.15"/>
</g>
<!-- Node112&#45;&gt;Node97 -->
<g id="edge150" class="edge">
<title>Node112&#45;&gt;Node97</title>
<path fill="none" stroke="midnightblue" d="M2003.95,-760.43C2018.5,-718.72 2061.53,-595.43 2079.75,-543.25"/>
<polygon fill="midnightblue" stroke="midnightblue" points="2083.15,-544.12 2083.14,-533.53 2076.54,-541.82 2083.15,-544.12"/>
</g>
<!-- Node112&#45;&gt;Node110 -->
<g id="edge152" class="edge">
<title>Node112&#45;&gt;Node110</title>
<path fill="none" stroke="midnightblue" d="M1934.97,-764.53C1877.43,-755.23 1790.75,-740.36 1716.03,-724 1272.81,-626.96 1162.35,-598.27 728.03,-467 640.72,-440.61 619.71,-431.33 534.03,-400 499.8,-387.48 404.28,-350.27 354.34,-330.75"/>
<polygon fill="midnightblue" stroke="midnightblue" points="355.58,-327.48 345,-327.1 353.04,-334 355.58,-327.48"/>
</g>
<!-- Node112&#45;&gt;Node116 -->
<g id="edge153" class="edge">
<title>Node112&#45;&gt;Node116</title>
<path fill="none" stroke="midnightblue" d="M1935.02,-770.56C1753.27,-759.36 1233.97,-727.36 1028.86,-714.73"/>
<polygon fill="midnightblue" stroke="midnightblue" points="1028.94,-711.22 1018.74,-714.1 1028.51,-718.21 1028.94,-711.22"/>
</g>
<!-- Node116&#45;&gt;Node2 -->
<g id="edge154" class="edge">
<title>Node116&#45;&gt;Node2</title>
<path fill="none" stroke="midnightblue" d="M1018.92,-694.31C1116.28,-674.99 1274.03,-635.3 1274.03,-581 1274.03,-581 1274.03,-581 1274.03,-316.5 1274.03,-276.21 1298.06,-269.15 1331.03,-246 1371.07,-217.9 1390.43,-230.08 1435.03,-210 1476.32,-191.42 1521.68,-164.41 1547.91,-148.1"/>
<polygon fill="midnightblue" stroke="midnightblue" points="1550.05,-150.88 1556.66,-142.6 1546.33,-144.95 1550.05,-150.88"/>
</g>
<!-- Node116&#45;&gt;Node98 -->
<g id="edge163" class="edge">
<title>Node116&#45;&gt;Node98</title>
<path fill="none" stroke="midnightblue" d="M911.44,-693.4C895.21,-684.93 876.46,-672.72 864.03,-657 818.49,-599.37 801.67,-510.3 796.27,-471.57"/>
<polygon fill="midnightblue" stroke="midnightblue" points="799.69,-470.73 794.95,-461.26 792.75,-471.62 799.69,-470.73"/>
</g>
<!-- Node117 -->
<g id="node47" class="node">
<title>Node117</title>
<g id="a_node47"><a xlink:href="../../d3/dec/kratos__application_8h.html" target="_top" xlink:title=" ">
<polygon fill="none" stroke="red" points="579.53,-632 579.53,-651 738.53,-651 738.53,-632 579.53,-632"/>
<text text-anchor="middle" x="659.03" y="-639" font-family="Helvetica,sans-Serif" font-size="10.00">includes/kratos_application.h</text>
</a>
</g>
</g>
<!-- Node116&#45;&gt;Node117 -->
<g id="edge155" class="edge">
<title>Node116&#45;&gt;Node117</title>
<path fill="none" stroke="midnightblue" d="M882.54,-693.48C829.69,-681.42 754.56,-664.29 706.3,-653.28"/>
<polygon fill="midnightblue" stroke="midnightblue" points="706.96,-649.84 696.43,-651.03 705.4,-656.66 706.96,-649.84"/>
</g>
<!-- Node190 -->
<g id="node48" class="node">
<title>Node190</title>
<g id="a_node48"><a xlink:href="../../d8/d13/dem__variables_8h.html" target="_top" xlink:title=" ">
<polygon fill="none" stroke="black" points="446.53,-308 446.53,-327 587.53,-327 587.53,-308 446.53,-308"/>
<text text-anchor="middle" x="517.03" y="-315" font-family="Helvetica,sans-Serif" font-size="10.00">includes/dem_variables.h</text>
</a>
</g>
</g>
<!-- Node116&#45;&gt;Node190 -->
<g id="edge164" class="edge">
<title>Node116&#45;&gt;Node190</title>
<path fill="none" stroke="midnightblue" d="M869.4,-707.12C773.05,-705.04 612.7,-695.66 570.03,-657 544.31,-633.69 552.03,-615.71 552.03,-581 552.03,-581 552.03,-581 552.03,-450.5 552.03,-408.6 535.35,-361.63 525.02,-336.57"/>
<polygon fill="midnightblue" stroke="midnightblue" points="528.19,-335.08 521.05,-327.25 521.75,-337.82 528.19,-335.08"/>
</g>
<!-- Node191 -->
<g id="node49" class="node">
<title>Node191</title>
<g id="a_node49"><a xlink:href="../../d3/dd8/statistics__record_8h.html" target="_top" xlink:title=" ">
<polygon fill="none" stroke="red" points="257.03,-436.5 257.03,-466.5 399.03,-466.5 399.03,-436.5 257.03,-436.5"/>
<text text-anchor="start" x="265.03" y="-454.5" font-family="Helvetica,sans-Serif" font-size="10.00">custom_utilities/statistics</text>
<text text-anchor="middle" x="328.03" y="-443.5" font-family="Helvetica,sans-Serif" font-size="10.00">_record.h</text>
</a>
</g>
</g>
<!-- Node116&#45;&gt;Node191 -->
<g id="edge170" class="edge">
<title>Node116&#45;&gt;Node191</title>
<path fill="none" stroke="midnightblue" d="M869.13,-703.47C768.47,-697.15 595.51,-682.89 538.03,-657 447.52,-616.24 373.02,-518.87 342.68,-474.82"/>
<polygon fill="midnightblue" stroke="midnightblue" points="345.56,-472.82 337.05,-466.51 339.76,-476.75 345.56,-472.82"/>
</g>
<!-- Node193 -->
<g id="node50" class="node">
<title>Node193</title>
<g id="a_node50"><a xlink:href="../../d3/dc3/statistics__data_8h.html" target="_top" xlink:title=" ">
<polygon fill="none" stroke="red" points="873.03,-626.5 873.03,-656.5 1015.03,-656.5 1015.03,-626.5 873.03,-626.5"/>
<text text-anchor="start" x="881.03" y="-644.5" font-family="Helvetica,sans-Serif" font-size="10.00">custom_utilities/statistics</text>
<text text-anchor="middle" x="944.03" y="-633.5" font-family="Helvetica,sans-Serif" font-size="10.00">_data.h</text>
</a>
</g>
</g>
<!-- Node116&#45;&gt;Node193 -->
<g id="edge176" class="edge">
<title>Node116&#45;&gt;Node193</title>
<path fill="none" stroke="midnightblue" d="M944.03,-693.4C944.03,-685.64 944.03,-675.81 944.03,-666.86"/>
<polygon fill="midnightblue" stroke="midnightblue" points="947.53,-666.58 944.03,-656.58 940.53,-666.58 947.53,-666.58"/>
</g>
<!-- Node117&#45;&gt;Node2 -->
<g id="edge158" class="edge">
<title>Node117&#45;&gt;Node2</title>
<path fill="none" stroke="midnightblue" d="M655.23,-631.89C646.96,-612.33 628.03,-562.87 628.03,-519.5 628.03,-519.5 628.03,-519.5 628.03,-450.5 628.03,-358.57 603.83,-319.5 659.03,-246 680.35,-217.62 769.61,-187.64 804.03,-179 937.45,-145.54 1354.06,-136.78 1510.17,-134.64"/>
<polygon fill="midnightblue" stroke="midnightblue" points="1510.56,-138.14 1520.51,-134.51 1510.46,-131.14 1510.56,-138.14"/>
</g>
<!-- Node117&#45;&gt;Node7 -->
<g id="edge157" class="edge">
<title>Node117&#45;&gt;Node7</title>
<path fill="none" stroke="midnightblue" d="M648.79,-631.89C608.17,-597.79 458.24,-472.33 408.03,-436 339.22,-386.2 288.73,-407.01 247.03,-333 213.44,-273.36 201,-232.24 244.03,-179 262.68,-155.93 475.67,-127.17 505.03,-123 730.01,-91.09 792.78,-134.28 1015.03,-87 1040.48,-81.59 1044.79,-73.26 1070.03,-67 1186.16,-38.22 1327.36,-24.57 1395.45,-19.28"/>
<polygon fill="midnightblue" stroke="midnightblue" points="1396.03,-22.75 1405.74,-18.5 1395.5,-15.77 1396.03,-22.75"/>
</g>
<!-- Node117&#45;&gt;Node12 -->
<g id="edge156" class="edge">
<title>Node117&#45;&gt;Node12</title>
<path fill="none" stroke="midnightblue" d="M579.22,-637.64C403.77,-626.65 0.03,-573.65 0.03,-318.5 0.03,-318.5 0.03,-318.5 0.03,-132 0.03,-101.2 -0.52,-85.58 24.03,-67 72.93,-30 509.48,-19.33 633.38,-17.03"/>
<polygon fill="midnightblue" stroke="midnightblue" points="633.79,-20.53 643.73,-16.85 633.67,-13.53 633.79,-20.53"/>
</g>
<!-- Node117&#45;&gt;Node16 -->
<g id="edge160" class="edge">
<title>Node117&#45;&gt;Node16</title>
<path fill="none" stroke="midnightblue" d="M738.83,-634.28C776.74,-631.47 822.71,-628.28 864.03,-626 1270.66,-603.56 1759.84,-588.04 1933.77,-582.88"/>
<polygon fill="midnightblue" stroke="midnightblue" points="1933.9,-586.38 1943.79,-582.58 1933.69,-579.38 1933.9,-586.38"/>
</g>
<!-- Node117&#45;&gt;Node67 -->
<g id="edge159" class="edge">
<title>Node117&#45;&gt;Node67</title>
<path fill="none" stroke="midnightblue" d="M649.17,-631.72C639.09,-622.29 623.62,-606.43 614.03,-590 597.36,-561.41 590.03,-552.6 590.03,-519.5 590.03,-519.5 590.03,-519.5 590.03,-450.5 590.03,-384.45 627.1,-360.29 596.03,-302 588.48,-287.83 574.27,-277.33 560.88,-270.06"/>
<polygon fill="midnightblue" stroke="midnightblue" points="562.33,-266.87 551.82,-265.53 559.2,-273.13 562.33,-266.87"/>
</g>
<!-- Node117&#45;&gt;Node87 -->
<g id="edge161" class="edge">
<title>Node117&#45;&gt;Node87</title>
<path fill="none" stroke="midnightblue" d="M713.11,-631.99C849.38,-610.55 1206.77,-554.32 1358.4,-530.46"/>
<polygon fill="midnightblue" stroke="midnightblue" points="1359.19,-533.88 1368.52,-528.86 1358.1,-526.96 1359.19,-533.88"/>
</g>
<!-- Node117&#45;&gt;Node24 -->
<g id="edge162" class="edge">
<title>Node117&#45;&gt;Node24</title>
<path fill="none" stroke="midnightblue" d="M683.94,-631.87C793.6,-593.88 1233.46,-441.48 1360.51,-397.46"/>
<polygon fill="midnightblue" stroke="midnightblue" points="1361.83,-400.71 1370.13,-394.13 1359.54,-394.09 1361.83,-400.71"/>
</g>
<!-- Node190&#45;&gt;Node2 -->
<g id="edge165" class="edge">
<title>Node190&#45;&gt;Node2</title>
<path fill="none" stroke="midnightblue" d="M493.12,-307.97C463.12,-295.92 417.81,-272.42 437.03,-246 444.15,-236.23 632.14,-181.17 644.03,-179 811.21,-148.44 1332.66,-137.68 1510.17,-134.85"/>
<polygon fill="midnightblue" stroke="midnightblue" points="1510.42,-138.34 1520.36,-134.69 1510.31,-131.34 1510.42,-138.34"/>
</g>
<!-- Node190&#45;&gt;Node64 -->
<g id="edge166" class="edge">
<title>Node190&#45;&gt;Node64</title>
<path fill="none" stroke="midnightblue" d="M469.74,-307.98C445.71,-301 418.59,-288.45 404.03,-266 390.2,-244.67 416.38,-222.78 438.4,-209.16"/>
<polygon fill="midnightblue" stroke="midnightblue" points="440.29,-212.11 447.15,-204.03 436.75,-206.07 440.29,-212.11"/>
</g>
<!-- Node190&#45;&gt;Node67 -->
<g id="edge167" class="edge">
<title>Node190&#45;&gt;Node67</title>
<path fill="none" stroke="midnightblue" d="M518.75,-307.98C520.46,-299.49 523.14,-286.2 525.34,-275.32"/>
<polygon fill="midnightblue" stroke="midnightblue" points="528.77,-276 527.32,-265.51 521.91,-274.62 528.77,-276"/>
</g>
<!-- Node190&#45;&gt;Node29 -->
<g id="edge168" class="edge">
<title>Node190&#45;&gt;Node29</title>
<path fill="none" stroke="midnightblue" d="M583.05,-307.98C714.43,-290.84 1017.92,-250.38 1272.03,-210 1280.24,-208.7 1288.9,-207.25 1297.39,-205.78"/>
<polygon fill="midnightblue" stroke="midnightblue" points="1298,-209.23 1307.25,-204.06 1296.8,-202.33 1298,-209.23"/>
</g>
<!-- Node190&#45;&gt;Node25 -->
<g id="edge169" class="edge">
<title>Node190&#45;&gt;Node25</title>
<path fill="none" stroke="midnightblue" d="M547.41,-307.98C584.64,-297.53 647.84,-279.79 689.01,-268.23"/>
<polygon fill="midnightblue" stroke="midnightblue" points="690.03,-271.58 698.72,-265.51 688.14,-264.84 690.03,-271.58"/>
</g>
<!-- Node191&#45;&gt;Node2 -->
<g id="edge174" class="edge">
<title>Node191&#45;&gt;Node2</title>
<path fill="none" stroke="midnightblue" d="M306.83,-436.19C277.47,-414.49 228.03,-370.25 228.03,-318.5 228.03,-318.5 228.03,-318.5 228.03,-255 228.03,-196.31 280.41,-197.73 336.03,-179 447.71,-141.39 1277.83,-135.19 1509.91,-134.19"/>
<polygon fill="midnightblue" stroke="midnightblue" points="1510.2,-137.69 1520.18,-134.15 1510.17,-130.69 1510.2,-137.69"/>
</g>
<!-- Node191&#45;&gt;Node7 -->
<g id="edge172" class="edge">
<title>Node191&#45;&gt;Node7</title>
<path fill="none" stroke="midnightblue" d="M291.88,-436.37C253.04,-418.86 193.96,-384.84 172.03,-333 157.21,-297.93 122.95,-243.24 176.03,-179 248.02,-91.9 312.22,-139.28 424.03,-123 660.3,-88.6 724.07,-123.42 960.03,-87 997.11,-81.28 1005.15,-73.84 1042.03,-67 1170.06,-43.26 1323.56,-27.07 1395.31,-20.2"/>
<polygon fill="midnightblue" stroke="midnightblue" points="1396.08,-23.65 1405.7,-19.22 1395.42,-16.68 1396.08,-23.65"/>
</g>
<!-- Node191&#45;&gt;Node12 -->
<g id="edge171" class="edge">
<title>Node191&#45;&gt;Node12</title>
<path fill="none" stroke="midnightblue" d="M257.02,-437.58C211.21,-428.14 156.81,-414.49 138.03,-400 83.2,-357.67 76.03,-326.27 76.03,-257 76.03,-257 76.03,-257 76.03,-132 76.03,-17.39 510.27,-14.42 633.68,-15.89"/>
<polygon fill="midnightblue" stroke="midnightblue" points="633.94,-19.39 643.98,-16.03 634.03,-12.4 633.94,-19.39"/>
</g>
<!-- Node191&#45;&gt;Node29 -->
<g id="edge175" class="edge">
<title>Node191&#45;&gt;Node29</title>
<path fill="none" stroke="midnightblue" d="M384.66,-436.43C568.38,-390.76 1145.53,-247.32 1309.93,-206.46"/>
<polygon fill="midnightblue" stroke="midnightblue" points="1310.85,-209.84 1319.71,-204.03 1309.16,-203.05 1310.85,-209.84"/>
</g>
<!-- Node191&#45;&gt;Node93 -->
<g id="edge173" class="edge">
<title>Node191&#45;&gt;Node93</title>
<path fill="none" stroke="midnightblue" d="M399.16,-444.38C546.18,-431.74 881.48,-402.92 1021.15,-390.91"/>
<polygon fill="midnightblue" stroke="midnightblue" points="1021.6,-394.38 1031.26,-390.04 1021,-387.41 1021.6,-394.38"/>
</g>
<!-- Node193&#45;&gt;Node2 -->
<g id="edge179" class="edge">
<title>Node193&#45;&gt;Node2</title>
<path fill="none" stroke="midnightblue" d="M949.17,-626.19C956.75,-603.76 970.03,-558.82 970.03,-519.5 970.03,-519.5 970.03,-519.5 970.03,-383.5 970.03,-257.3 1053.82,-234.76 1167.03,-179 1225.91,-150 1412.81,-139.37 1510.01,-135.74"/>
<polygon fill="midnightblue" stroke="midnightblue" points="1510.4,-139.23 1520.26,-135.37 1510.15,-132.23 1510.4,-139.23"/>
</g>
<!-- Node193&#45;&gt;Node7 -->
<g id="edge178" class="edge">
<title>Node193&#45;&gt;Node7</title>
<path fill="none" stroke="midnightblue" d="M940.27,-626.28C922.22,-554.58 852.5,-231.97 1028.03,-123 1127.9,-61.01 1177.51,-120.97 1290.03,-87 1335.83,-73.17 1385.17,-46.63 1413.16,-30.35"/>
<polygon fill="midnightblue" stroke="midnightblue" points="1415.3,-33.16 1422.13,-25.06 1411.74,-27.13 1415.3,-33.16"/>
</g>
<!-- Node193&#45;&gt;Node12 -->
<g id="edge177" class="edge">
<title>Node193&#45;&gt;Node12</title>
<path fill="none" stroke="midnightblue" d="M872.94,-630.91C659.36,-600.15 38.03,-495.45 38.03,-318.5 38.03,-318.5 38.03,-318.5 38.03,-132 38.03,-90.83 66.68,-84.3 104.03,-67 199.23,-22.92 528.49,-17.25 633.55,-16.57"/>
<polygon fill="midnightblue" stroke="midnightblue" points="633.86,-20.07 643.84,-16.52 633.82,-13.07 633.86,-20.07"/>
</g>
<!-- Node193&#45;&gt;Node16 -->
<g id="edge180" class="edge">
<title>Node193&#45;&gt;Node16</title>
<path fill="none" stroke="midnightblue" d="M1015.31,-636.48C1209.63,-625.52 1746.66,-595.23 1933.74,-584.68"/>
<polygon fill="midnightblue" stroke="midnightblue" points="1934.19,-588.16 1943.98,-584.11 1933.79,-581.17 1934.19,-588.16"/>
</g>
</g>
</svg>
