<?xml version="1.0" encoding="UTF-8" standalone="no"?>
<!DOCTYPE svg PUBLIC "-//W3C//DTD SVG 1.1//EN"
 "http://www.w3.org/Graphics/SVG/1.1/DTD/svg11.dtd">
<!-- Generated by graphviz version 7.1.0 (0)
 -->
<!-- Title: line_graph_output_process.OutputControl Pages: 1 -->
<svg width="326pt" height="237pt"
 viewBox="0.00 0.00 326.00 237.00" xmlns="http://www.w3.org/2000/svg" xmlns:xlink="http://www.w3.org/1999/xlink">
<g id="graph0" class="graph" transform="scale(1 1) rotate(0) translate(4 233)">
<title>line_graph_output_process.OutputControl</title>
<!-- Node1 -->
<g id="node1" class="node">
<title>Node1</title>
<g id="a_node1"><a xlink:title=" ">
<polygon fill="#999999" stroke="#666666" points="84,-149.5 84,-228.5 234,-228.5 234,-149.5 84,-149.5"/>
<text text-anchor="start" x="92" y="-216.5" font-family="Helvetica,sans-Serif" font-size="10.00">line_graph_output_process.</text>
<text text-anchor="middle" x="159" y="-205.5" font-family="Helvetica,sans-Serif" font-size="10.00">OutputControl</text>
<polyline fill="none" stroke="#666666" points="84,-198.5 234,-198.5"/>
<text text-anchor="middle" x="159" y="-186.5" font-family="Helvetica,sans-Serif" font-size="10.00"> </text>
<polyline fill="none" stroke="#666666" points="84,-179.5 234,-179.5"/>
<text text-anchor="start" x="92" y="-167.5" font-family="Helvetica,sans-Serif" font-size="10.00">+ IsOutputStep()</text>
<text text-anchor="start" x="92" y="-156.5" font-family="Helvetica,sans-Serif" font-size="10.00">+ GetDefaultParameters()</text>
</a>
</g>
</g>
<!-- Node2 -->
<g id="node2" class="node">
<title>Node2</title>
<g id="a_node2"><a xlink:href="../../d2/dfa/classline__graph__output__process_1_1_step_output_control.html" target="_top" xlink:title=" ">
<polygon fill="white" stroke="#666666" points="0,-0.5 0,-112.5 150,-112.5 150,-0.5 0,-0.5"/>
<text text-anchor="start" x="8" y="-100.5" font-family="Helvetica,sans-Serif" font-size="10.00">line_graph_output_process.</text>
<text text-anchor="middle" x="75" y="-89.5" font-family="Helvetica,sans-Serif" font-size="10.00">StepOutputControl</text>
<polyline fill="none" stroke="#666666" points="0,-82.5 150,-82.5"/>
<text text-anchor="start" x="8" y="-70.5" font-family="Helvetica,sans-Serif" font-size="10.00">+ step_frequency</text>
<text text-anchor="start" x="8" y="-59.5" font-family="Helvetica,sans-Serif" font-size="10.00">+ model_part</text>
<text text-anchor="start" x="8" y="-48.5" font-family="Helvetica,sans-Serif" font-size="10.00">+ next_output</text>
<polyline fill="none" stroke="#666666" points="0,-41.5 150,-41.5"/>
<text text-anchor="start" x="8" y="-29.5" font-family="Helvetica,sans-Serif" font-size="10.00">+ __init__()</text>
<text text-anchor="start" x="8" y="-18.5" font-family="Helvetica,sans-Serif" font-size="10.00">+ IsOutputStep()</text>
<text text-anchor="start" x="8" y="-7.5" font-family="Helvetica,sans-Serif" font-size="10.00">+ GetDefaultParameters()</text>
</a>
</g>
</g>
<!-- Node1&#45;&gt;Node2 -->
<g id="edge1" class="edge">
<title>Node1&#45;&gt;Node2</title>
<path fill="none" stroke="#63b8ff" d="M128.07,-139.95C122.24,-130.89 116.1,-121.35 110.15,-112.11"/>
<polygon fill="none" stroke="#63b8ff" points="125.08,-141.76 133.43,-148.28 130.96,-137.98 125.08,-141.76"/>
</g>
<!-- Node3 -->
<g id="node3" class="node">
<title>Node3</title>
<g id="a_node3"><a xlink:href="../../da/d33/classline__graph__output__process_1_1_time_output_control.html" target="_top" xlink:title=" ">
<polygon fill="white" stroke="#666666" points="168,-0.5 168,-112.5 318,-112.5 318,-0.5 168,-0.5"/>
<text text-anchor="start" x="176" y="-100.5" font-family="Helvetica,sans-Serif" font-size="10.00">line_graph_output_process.</text>
<text text-anchor="middle" x="243" y="-89.5" font-family="Helvetica,sans-Serif" font-size="10.00">TimeOutputControl</text>
<polyline fill="none" stroke="#666666" points="168,-82.5 318,-82.5"/>
<text text-anchor="start" x="176" y="-70.5" font-family="Helvetica,sans-Serif" font-size="10.00">+ time_frequency</text>
<text text-anchor="start" x="176" y="-59.5" font-family="Helvetica,sans-Serif" font-size="10.00">+ model_part</text>
<text text-anchor="start" x="176" y="-48.5" font-family="Helvetica,sans-Serif" font-size="10.00">+ next_output</text>
<polyline fill="none" stroke="#666666" points="168,-41.5 318,-41.5"/>
<text text-anchor="start" x="176" y="-29.5" font-family="Helvetica,sans-Serif" font-size="10.00">+ __init__()</text>
<text text-anchor="start" x="176" y="-18.5" font-family="Helvetica,sans-Serif" font-size="10.00">+ IsOutputStep()</text>
<text text-anchor="start" x="176" y="-7.5" font-family="Helvetica,sans-Serif" font-size="10.00">+ GetDefaultParameters()</text>
</a>
</g>
</g>
<!-- Node1&#45;&gt;Node3 -->
<g id="edge2" class="edge">
<title>Node1&#45;&gt;Node3</title>
<path fill="none" stroke="#63b8ff" d="M189.93,-139.95C195.76,-130.89 201.9,-121.35 207.85,-112.11"/>
<polygon fill="none" stroke="#63b8ff" points="187.04,-137.98 184.57,-148.28 192.92,-141.76 187.04,-137.98"/>
</g>
</g>
</svg>
