<?xml version="1.0" encoding="UTF-8" standalone="no"?>
<!DOCTYPE svg PUBLIC "-//W3C//DTD SVG 1.1//EN"
 "http://www.w3.org/Graphics/SVG/1.1/DTD/svg11.dtd">
<!-- Generated by graphviz version 2.43.0 (0)
 -->
<!-- Title: /home/runner/work/Documentation/Documentation/master/applications/StructuralMechanicsApplication/custom_processes/shell_to_solid_shell_process.cpp Pages: 1 -->
<svg width="3291pt" height="1134pt"
 viewBox="0.00 0.00 3291.00 1134.00" xmlns="http://www.w3.org/2000/svg" xmlns:xlink="http://www.w3.org/1999/xlink">
<g id="graph0" class="graph" transform="scale(1 1) rotate(0) translate(4 1130)">
<title>/home/runner/work/Documentation/Documentation/master/applications/StructuralMechanicsApplication/custom_processes/shell_to_solid_shell_process.cpp</title>
<!-- Node1 -->
<g id="node1" class="node">
<title>Node1</title>
<g id="a_node1"><a xlink:title=" ">
<polygon fill="#bfbfbf" stroke="black" points="2483,-1062.5 2483,-1125.5 2677,-1125.5 2677,-1062.5 2483,-1062.5"/>
<text text-anchor="start" x="2491" y="-1113.5" font-family="Helvetica,sans-Serif" font-size="10.00">/home/runner/work/Documentation</text>
<text text-anchor="start" x="2491" y="-1102.5" font-family="Helvetica,sans-Serif" font-size="10.00">/Documentation/master/applications</text>
<text text-anchor="start" x="2491" y="-1091.5" font-family="Helvetica,sans-Serif" font-size="10.00">/StructuralMechanicsApplication</text>
<text text-anchor="start" x="2491" y="-1080.5" font-family="Helvetica,sans-Serif" font-size="10.00">/custom_processes/shell_to_solid</text>
<text text-anchor="middle" x="2580" y="-1069.5" font-family="Helvetica,sans-Serif" font-size="10.00">_shell_process.cpp</text>
</a>
</g>
</g>
<!-- Node2 -->
<g id="node2" class="node">
<title>Node2</title>
<g id="a_node2"><a xlink:href="../../dc/d51/model_8h.html" target="_top" xlink:title=" ">
<polygon fill="none" stroke="black" points="1802,-939.5 1802,-958.5 1912,-958.5 1912,-939.5 1802,-939.5"/>
<text text-anchor="middle" x="1857" y="-946.5" font-family="Helvetica,sans-Serif" font-size="10.00">containers/model.h</text>
</a>
</g>
</g>
<!-- Node1&#45;&gt;Node2 -->
<g id="edge1" class="edge">
<title>Node1&#45;&gt;Node2</title>
<path fill="none" stroke="midnightblue" d="M2482.87,-1073.79C2328.32,-1043.22 2031.55,-984.52 1910.44,-960.57"/>
<polygon fill="midnightblue" stroke="midnightblue" points="1910.8,-957.07 1900.31,-958.57 1909.44,-963.94 1910.8,-957.07"/>
</g>
<!-- Node131 -->
<g id="node39" class="node">
<title>Node131</title>
<g id="a_node39"><a xlink:href="../../da/d9e/model__part__io_8h.html" target="_top" xlink:title=" ">
<polygon fill="none" stroke="black" points="2643.5,-1006.5 2643.5,-1025.5 2782.5,-1025.5 2782.5,-1006.5 2643.5,-1006.5"/>
<text text-anchor="middle" x="2713" y="-1013.5" font-family="Helvetica,sans-Serif" font-size="10.00">includes/model_part_io.h</text>
</a>
</g>
</g>
<!-- Node1&#45;&gt;Node131 -->
<g id="edge137" class="edge">
<title>Node1&#45;&gt;Node131</title>
<path fill="none" stroke="midnightblue" d="M2633.71,-1062.31C2652.94,-1051.32 2673.64,-1039.49 2689.07,-1030.67"/>
<polygon fill="midnightblue" stroke="midnightblue" points="2690.99,-1033.61 2697.94,-1025.61 2687.52,-1027.53 2690.99,-1033.61"/>
</g>
<!-- Node133 -->
<g id="node41" class="node">
<title>Node133</title>
<g id="a_node41"><a xlink:href="../../db/d0c/structural__mechanics__application__variables_8h.html" target="_top" xlink:title=" ">
<polygon fill="none" stroke="black" points="2475.5,-604.5 2475.5,-634.5 2610.5,-634.5 2610.5,-604.5 2475.5,-604.5"/>
<text text-anchor="start" x="2483.5" y="-622.5" font-family="Helvetica,sans-Serif" font-size="10.00">structural_mechanics</text>
<text text-anchor="middle" x="2543" y="-611.5" font-family="Helvetica,sans-Serif" font-size="10.00">_application_variables.h</text>
</a>
</g>
</g>
<!-- Node1&#45;&gt;Node133 -->
<g id="edge149" class="edge">
<title>Node1&#45;&gt;Node133</title>
<path fill="none" stroke="midnightblue" d="M2544.36,-1062.48C2517.4,-1035.84 2485,-994.56 2485,-950 2485,-950 2485,-950 2485,-747 2485,-707.62 2508.51,-667.11 2525.59,-642.87"/>
<polygon fill="midnightblue" stroke="midnightblue" points="2528.48,-644.85 2531.54,-634.71 2522.82,-640.73 2528.48,-644.85"/>
</g>
<!-- Node135 -->
<g id="node43" class="node">
<title>Node135</title>
<g id="a_node43"><a xlink:href="../../da/d67/shell__to__solid__shell__process_8h.html" target="_top" xlink:title=" ">
<polygon fill="none" stroke="black" points="2931,-934 2931,-964 3071,-964 3071,-934 2931,-934"/>
<text text-anchor="start" x="2939" y="-952" font-family="Helvetica,sans-Serif" font-size="10.00">custom_processes/shell</text>
<text text-anchor="middle" x="3001" y="-941" font-family="Helvetica,sans-Serif" font-size="10.00">_to_solid_shell_process.h</text>
</a>
</g>
</g>
<!-- Node1&#45;&gt;Node135 -->
<g id="edge158" class="edge">
<title>Node1&#45;&gt;Node135</title>
<path fill="none" stroke="midnightblue" d="M2677.05,-1087.5C2746.92,-1080.33 2841.72,-1063.85 2917,-1026 2942.97,-1012.94 2966.96,-989.63 2982.59,-972.25"/>
<polygon fill="midnightblue" stroke="midnightblue" points="2985.62,-974.1 2989.56,-964.27 2980.35,-969.5 2985.62,-974.1"/>
</g>
<!-- Node157 -->
<g id="node48" class="node">
<title>Node157</title>
<g id="a_node48"><a xlink:href="../../dc/d76/solid__shell__thickness__compute__process_8h.html" target="_top" xlink:title=" ">
<polygon fill="none" stroke="black" points="2204.5,-928.5 2204.5,-969.5 2349.5,-969.5 2349.5,-928.5 2204.5,-928.5"/>
<text text-anchor="start" x="2212.5" y="-957.5" font-family="Helvetica,sans-Serif" font-size="10.00">custom_processes/solid</text>
<text text-anchor="start" x="2212.5" y="-946.5" font-family="Helvetica,sans-Serif" font-size="10.00">_shell_thickness_compute</text>
<text text-anchor="middle" x="2277" y="-935.5" font-family="Helvetica,sans-Serif" font-size="10.00">_process.h</text>
</a>
</g>
</g>
<!-- Node1&#45;&gt;Node157 -->
<g id="edge169" class="edge">
<title>Node1&#45;&gt;Node157</title>
<path fill="none" stroke="midnightblue" d="M2515.37,-1062.5C2459.41,-1036.09 2379.57,-998.41 2328.01,-974.08"/>
<polygon fill="midnightblue" stroke="midnightblue" points="2329.26,-970.8 2318.73,-969.69 2326.28,-977.13 2329.26,-970.8"/>
</g>
<!-- Node158 -->
<g id="node49" class="node">
<title>Node158</title>
<g id="a_node49"><a xlink:href="../../da/d3c/atomic__utilities_8h.html" target="_top" xlink:title=" ">
<polygon fill="none" stroke="black" points="2586.5,-291.5 2586.5,-310.5 2727.5,-310.5 2727.5,-291.5 2586.5,-291.5"/>
<text text-anchor="middle" x="2657" y="-298.5" font-family="Helvetica,sans-Serif" font-size="10.00">utilities/atomic_utilities.h</text>
</a>
</g>
</g>
<!-- Node1&#45;&gt;Node158 -->
<g id="edge172" class="edge">
<title>Node1&#45;&gt;Node158</title>
<path fill="none" stroke="midnightblue" d="M2677.17,-1083.62C2717.67,-1074.83 2761.93,-1058.01 2791,-1026 2808.11,-1007.16 2799.71,-995.24 2803,-970 2813.12,-892.37 2821.76,-871.4 2810,-794 2780.92,-602.55 2691.62,-383.08 2664.74,-319.87"/>
<polygon fill="midnightblue" stroke="midnightblue" points="2667.88,-318.32 2660.72,-310.51 2661.44,-321.08 2667.88,-318.32"/>
</g>
<!-- Node3 -->
<g id="node3" class="node">
<title>Node3</title>
<g id="a_node3"><a xlink:title=" ">
<polygon fill="none" stroke="#bfbfbf" points="1538,-6 1538,-25 1582,-25 1582,-6 1538,-6"/>
<text text-anchor="middle" x="1560" y="-13" font-family="Helvetica,sans-Serif" font-size="10.00">string</text>
</a>
</g>
</g>
<!-- Node2&#45;&gt;Node3 -->
<g id="edge2" class="edge">
<title>Node2&#45;&gt;Node3</title>
<path fill="none" stroke="midnightblue" d="M1801.58,-947.28C1506.31,-943.34 130.32,-923.31 100,-892 37.36,-827.33 118.39,-658.79 176,-537 302.18,-270.27 428.21,-249.04 695,-123 763.5,-90.64 781.8,-82.29 856,-67 987.21,-39.97 1407.85,-22.27 1527.8,-17.68"/>
<polygon fill="midnightblue" stroke="midnightblue" points="1527.96,-21.18 1537.82,-17.31 1527.69,-14.19 1527.96,-21.18"/>
</g>
<!-- Node4 -->
<g id="node4" class="node">
<title>Node4</title>
<g id="a_node4"><a xlink:title=" ">
<polygon fill="none" stroke="#bfbfbf" points="654,-6 654,-25 714,-25 714,-6 654,-6"/>
<text text-anchor="middle" x="684" y="-13" font-family="Helvetica,sans-Serif" font-size="10.00">iostream</text>
</a>
</g>
</g>
<!-- Node2&#45;&gt;Node4 -->
<g id="edge3" class="edge">
<title>Node2&#45;&gt;Node4</title>
<path fill="none" stroke="midnightblue" d="M1801.69,-947.42C1509.9,-944.24 159.59,-927.63 79,-892 32.86,-871.6 0,-860.95 0,-810.5 0,-810.5 0,-810.5 0,-188 0,-89.01 93.6,-99.81 187,-67 271.07,-37.47 540.37,-22.81 643.39,-18.17"/>
<polygon fill="midnightblue" stroke="midnightblue" points="643.85,-21.66 653.69,-17.72 643.54,-14.66 643.85,-21.66"/>
</g>
<!-- Node5 -->
<g id="node5" class="node">
<title>Node5</title>
<g id="a_node5"><a xlink:title=" ">
<polygon fill="none" stroke="#bfbfbf" points="1896.5,-235.5 1896.5,-254.5 1989.5,-254.5 1989.5,-235.5 1896.5,-235.5"/>
<text text-anchor="middle" x="1943" y="-242.5" font-family="Helvetica,sans-Serif" font-size="10.00">unordered_map</text>
</a>
</g>
</g>
<!-- Node2&#45;&gt;Node5 -->
<g id="edge4" class="edge">
<title>Node2&#45;&gt;Node5</title>
<path fill="none" stroke="midnightblue" d="M1912.12,-946.57C1994.55,-943.15 2143.8,-931.51 2177,-892 2205.02,-858.65 2193.38,-834.36 2177,-794 2168.61,-773.32 2157.52,-774.03 2142,-758 2117.95,-733.16 2108.04,-730.17 2088,-702 2068.64,-674.79 2068,-665.31 2054,-635 2040.47,-605.7 2036.4,-598.55 2026,-568 2003.18,-500.95 2013.52,-478.83 1985,-414 1977.36,-396.62 1968.61,-395.8 1962,-378 1947.67,-339.43 1944.08,-290.8 1943.22,-264.67"/>
<polygon fill="midnightblue" stroke="midnightblue" points="1946.72,-264.56 1943,-254.65 1939.72,-264.72 1946.72,-264.56"/>
</g>
<!-- Node6 -->
<g id="node6" class="node">
<title>Node6</title>
<g id="a_node6"><a xlink:href="../../df/d67/define_8h.html" target="_top" xlink:title=" ">
<polygon fill="none" stroke="black" points="1664.5,-123.5 1664.5,-142.5 1763.5,-142.5 1763.5,-123.5 1664.5,-123.5"/>
<text text-anchor="middle" x="1714" y="-130.5" font-family="Helvetica,sans-Serif" font-size="10.00">includes/define.h</text>
</a>
</g>
</g>
<!-- Node2&#45;&gt;Node6 -->
<g id="edge5" class="edge">
<title>Node2&#45;&gt;Node6</title>
<path fill="none" stroke="midnightblue" d="M1856.31,-939.43C1852.08,-886.49 1830,-598.67 1830,-363.5 1830,-363.5 1830,-363.5 1830,-244 1830,-196.81 1778.84,-163.79 1744.47,-146.92"/>
<polygon fill="midnightblue" stroke="midnightblue" points="1745.81,-143.69 1735.28,-142.6 1742.83,-150.02 1745.81,-143.69"/>
</g>
<!-- Node18 -->
<g id="node12" class="node">
<title>Node18</title>
<g id="a_node12"><a xlink:href="../../dd/dfe/model__part_8h.html" target="_top" xlink:title=" ">
<polygon fill="none" stroke="black" points="1514.5,-867 1514.5,-886 1639.5,-886 1639.5,-867 1514.5,-867"/>
<text text-anchor="middle" x="1577" y="-874" font-family="Helvetica,sans-Serif" font-size="10.00">includes/model_part.h</text>
</a>
</g>
</g>
<!-- Node2&#45;&gt;Node18 -->
<g id="edge17" class="edge">
<title>Node2&#45;&gt;Node18</title>
<path fill="none" stroke="midnightblue" d="M1823.23,-939.5C1772.56,-926.74 1676.87,-902.65 1620.87,-888.55"/>
<polygon fill="midnightblue" stroke="midnightblue" points="1621.45,-885.08 1610.89,-886.03 1619.74,-891.87 1621.45,-885.08"/>
</g>
<!-- Node7 -->
<g id="node7" class="node">
<title>Node7</title>
<g id="a_node7"><a xlink:title=" ">
<polygon fill="none" stroke="#bfbfbf" points="1631.5,-6 1631.5,-25 1696.5,-25 1696.5,-6 1631.5,-6"/>
<text text-anchor="middle" x="1664" y="-13" font-family="Helvetica,sans-Serif" font-size="10.00">stdexcept</text>
</a>
</g>
</g>
<!-- Node6&#45;&gt;Node7 -->
<g id="edge6" class="edge">
<title>Node6&#45;&gt;Node7</title>
<path fill="none" stroke="midnightblue" d="M1710.24,-123.32C1702.13,-104.59 1682.85,-60.05 1671.92,-34.79"/>
<polygon fill="midnightblue" stroke="midnightblue" points="1674.99,-33.07 1667.8,-25.28 1668.56,-35.85 1674.99,-33.07"/>
</g>
<!-- Node8 -->
<g id="node8" class="node">
<title>Node8</title>
<g id="a_node8"><a xlink:title=" ">
<polygon fill="none" stroke="#bfbfbf" points="238,-6 238,-25 294,-25 294,-6 238,-6"/>
<text text-anchor="middle" x="266" y="-13" font-family="Helvetica,sans-Serif" font-size="10.00">sstream</text>
</a>
</g>
</g>
<!-- Node6&#45;&gt;Node8 -->
<g id="edge7" class="edge">
<title>Node6&#45;&gt;Node8</title>
<path fill="none" stroke="midnightblue" d="M1664.45,-129.06C1553.48,-122.39 1276.52,-105.26 1045,-87 760.42,-64.55 417.92,-31.43 304.53,-20.3"/>
<polygon fill="midnightblue" stroke="midnightblue" points="304.57,-16.79 294.28,-19.3 303.89,-23.76 304.57,-16.79"/>
</g>
<!-- Node9 -->
<g id="node9" class="node">
<title>Node9</title>
<g id="a_node9"><a xlink:href="../../dc/d25/kratos__export__api_8h.html" target="_top" xlink:title=" ">
<polygon fill="none" stroke="black" points="2509,-0.5 2509,-30.5 2637,-30.5 2637,-0.5 2509,-0.5"/>
<text text-anchor="start" x="2517" y="-18.5" font-family="Helvetica,sans-Serif" font-size="10.00">includes/kratos_export</text>
<text text-anchor="middle" x="2573" y="-7.5" font-family="Helvetica,sans-Serif" font-size="10.00">_api.h</text>
</a>
</g>
</g>
<!-- Node6&#45;&gt;Node9 -->
<g id="edge8" class="edge">
<title>Node6&#45;&gt;Node9</title>
<path fill="none" stroke="midnightblue" d="M1763.58,-125.33C1907.82,-105.94 2327.83,-49.47 2499.05,-26.44"/>
<polygon fill="midnightblue" stroke="midnightblue" points="2499.53,-29.91 2508.98,-25.11 2498.6,-22.97 2499.53,-29.91"/>
</g>
<!-- Node10 -->
<g id="node10" class="node">
<title>Node10</title>
<g id="a_node10"><a xlink:href="../../d9/dc0/smart__pointers_8h.html" target="_top" xlink:title=" ">
<polygon fill="none" stroke="red" points="1054.5,-67.5 1054.5,-86.5 1197.5,-86.5 1197.5,-67.5 1054.5,-67.5"/>
<text text-anchor="middle" x="1126" y="-74.5" font-family="Helvetica,sans-Serif" font-size="10.00">includes/smart_pointers.h</text>
</a>
</g>
</g>
<!-- Node6&#45;&gt;Node10 -->
<g id="edge9" class="edge">
<title>Node6&#45;&gt;Node10</title>
<path fill="none" stroke="midnightblue" d="M1664.46,-127.8C1574.36,-120.12 1377.69,-103.1 1212,-87 1210.7,-86.87 1209.38,-86.75 1208.06,-86.62"/>
<polygon fill="midnightblue" stroke="midnightblue" points="1208.09,-83.1 1197.79,-85.59 1207.39,-90.07 1208.09,-83.1"/>
</g>
<!-- Node14 -->
<g id="node11" class="node">
<title>Node14</title>
<g id="a_node11"><a xlink:href="../../dd/d2d/exception_8h.html" target="_top" xlink:title=" ">
<polygon fill="none" stroke="red" points="1559.5,-67.5 1559.5,-86.5 1676.5,-86.5 1676.5,-67.5 1559.5,-67.5"/>
<text text-anchor="middle" x="1618" y="-74.5" font-family="Helvetica,sans-Serif" font-size="10.00">includes/exception.h</text>
</a>
</g>
</g>
<!-- Node6&#45;&gt;Node14 -->
<g id="edge11" class="edge">
<title>Node6&#45;&gt;Node14</title>
<path fill="none" stroke="midnightblue" d="M1698.58,-123.32C1683.46,-114.82 1660.18,-101.73 1642.53,-91.8"/>
<polygon fill="midnightblue" stroke="midnightblue" points="1643.82,-88.51 1633.39,-86.65 1640.39,-94.61 1643.82,-88.51"/>
</g>
<!-- Node10&#45;&gt;Node4 -->
<g id="edge10" class="edge">
<title>Node10&#45;&gt;Node4</title>
<path fill="none" stroke="midnightblue" d="M1062.67,-67.48C970.34,-55.05 801.39,-32.3 724.29,-21.92"/>
<polygon fill="midnightblue" stroke="midnightblue" points="724.41,-18.41 714.04,-20.54 723.48,-25.35 724.41,-18.41"/>
</g>
<!-- Node14&#45;&gt;Node3 -->
<g id="edge13" class="edge">
<title>Node14&#45;&gt;Node3</title>
<path fill="none" stroke="midnightblue" d="M1609.69,-67.48C1600.82,-58.37 1586.55,-43.74 1575.58,-32.48"/>
<polygon fill="midnightblue" stroke="midnightblue" points="1577.78,-29.73 1568.29,-25.01 1572.77,-34.61 1577.78,-29.73"/>
</g>
<!-- Node14&#45;&gt;Node4 -->
<g id="edge14" class="edge">
<title>Node14&#45;&gt;Node4</title>
<path fill="none" stroke="midnightblue" d="M1559.22,-72.26C1384.71,-61.14 872.54,-28.51 724.51,-19.08"/>
<polygon fill="midnightblue" stroke="midnightblue" points="724.29,-15.56 714.09,-18.42 723.84,-22.55 724.29,-15.56"/>
</g>
<!-- Node14&#45;&gt;Node7 -->
<g id="edge12" class="edge">
<title>Node14&#45;&gt;Node7</title>
<path fill="none" stroke="midnightblue" d="M1624.59,-67.48C1631.49,-58.55 1642.5,-44.31 1651.13,-33.14"/>
<polygon fill="midnightblue" stroke="midnightblue" points="1654.07,-35.06 1657.42,-25.01 1648.54,-30.78 1654.07,-35.06"/>
</g>
<!-- Node14&#45;&gt;Node8 -->
<g id="edge15" class="edge">
<title>Node14&#45;&gt;Node8</title>
<path fill="none" stroke="midnightblue" d="M1559.47,-73.42C1329.78,-63.32 493.34,-26.51 304.19,-18.18"/>
<polygon fill="midnightblue" stroke="midnightblue" points="304.31,-14.68 294.17,-17.74 304.01,-21.68 304.31,-14.68"/>
</g>
<!-- Node14&#45;&gt;Node9 -->
<g id="edge16" class="edge">
<title>Node14&#45;&gt;Node9</title>
<path fill="none" stroke="midnightblue" d="M1676.66,-72.35C1842.55,-62.01 2314.89,-32.58 2498.61,-21.13"/>
<polygon fill="midnightblue" stroke="midnightblue" points="2498.96,-24.62 2508.72,-20.5 2498.52,-17.63 2498.96,-24.62"/>
</g>
<!-- Node18&#45;&gt;Node3 -->
<g id="edge18" class="edge">
<title>Node18&#45;&gt;Node3</title>
<path fill="none" stroke="midnightblue" d="M1639.89,-874.01C1752.93,-870.53 1997.65,-859.37 2201,-825 2317.81,-805.26 2346.54,-795.24 2459,-758 2521.84,-737.19 2540.49,-736.46 2597,-702 2636.02,-678.21 2644.39,-668.93 2675,-635 2695.16,-612.65 2984,-220.1 2984,-190 2984,-190 2984,-190 2984,-132 2984,-125.51 3021.11,-108.2 2804,-67 2545.82,-18 1882.57,-65.09 1622,-31 1612.18,-29.72 1601.64,-27.55 1592.09,-25.29"/>
<polygon fill="midnightblue" stroke="midnightblue" points="1592.74,-21.84 1582.19,-22.82 1591.04,-28.63 1592.74,-21.84"/>
</g>
<!-- Node18&#45;&gt;Node4 -->
<g id="edge19" class="edge">
<title>Node18&#45;&gt;Node4</title>
<path fill="none" stroke="midnightblue" d="M1514.47,-874.55C1262.97,-870.53 336.16,-853.82 281,-825 146.99,-754.98 76,-704.7 76,-553.5 76,-553.5 76,-553.5 76,-428.5 76,-256.52 77.78,-171.98 214,-67 247.73,-41 535.8,-23.96 643.55,-18.45"/>
<polygon fill="midnightblue" stroke="midnightblue" points="643.89,-21.93 653.7,-17.93 643.53,-14.94 643.89,-21.93"/>
</g>
<!-- Node18&#45;&gt;Node6 -->
<g id="edge22" class="edge">
<title>Node18&#45;&gt;Node6</title>
<path fill="none" stroke="midnightblue" d="M1639.51,-869.91C1714.67,-862.55 1844.42,-847.8 1954,-825 2003.31,-814.74 2013.88,-805.12 2063,-794 2156.21,-772.9 2187.03,-795.36 2275,-758 2313.62,-741.6 2332.08,-739.45 2351,-702 2416.15,-573.08 2097.87,-235.66 1965,-179 1956.22,-175.26 1845.29,-156.12 1773.87,-144.04"/>
<polygon fill="midnightblue" stroke="midnightblue" points="1774.08,-140.53 1763.63,-142.31 1772.91,-147.43 1774.08,-140.53"/>
</g>
<!-- Node18&#45;&gt;Node8 -->
<g id="edge20" class="edge">
<title>Node18&#45;&gt;Node8</title>
<path fill="none" stroke="midnightblue" d="M1514.37,-875.54C1264.2,-875.39 344.23,-871.64 223,-825 86.72,-772.57 38,-699.52 38,-553.5 38,-553.5 38,-553.5 38,-188 38,-130.78 39.93,-105.79 82,-67 122.1,-30.02 186.74,-19.72 227.76,-17.08"/>
<polygon fill="midnightblue" stroke="midnightblue" points="228.1,-20.56 237.91,-16.55 227.74,-13.57 228.1,-20.56"/>
</g>
<!-- Node19 -->
<g id="node13" class="node">
<title>Node19</title>
<g id="a_node13"><a xlink:title=" ">
<polygon fill="none" stroke="#bfbfbf" points="1153.5,-291.5 1153.5,-310.5 1206.5,-310.5 1206.5,-291.5 1153.5,-291.5"/>
<text text-anchor="middle" x="1180" y="-298.5" font-family="Helvetica,sans-Serif" font-size="10.00">cstddef</text>
</a>
</g>
</g>
<!-- Node18&#45;&gt;Node19 -->
<g id="edge21" class="edge">
<title>Node18&#45;&gt;Node19</title>
<path fill="none" stroke="midnightblue" d="M1514.26,-869.42C1443.15,-858.67 1337,-829.19 1337,-749 1337,-749 1337,-749 1337,-618.5 1337,-491.15 1233.73,-362.19 1194.7,-317.99"/>
<polygon fill="midnightblue" stroke="midnightblue" points="1197.29,-315.63 1188,-310.53 1192.08,-320.31 1197.29,-315.63"/>
</g>
<!-- Node20 -->
<g id="node14" class="node">
<title>Node20</title>
<g id="a_node14"><a xlink:href="../../dd/d5f/serializer_8h.html" target="_top" xlink:title=" ">
<polygon fill="none" stroke="red" points="2160.5,-291.5 2160.5,-310.5 2273.5,-310.5 2273.5,-291.5 2160.5,-291.5"/>
<text text-anchor="middle" x="2217" y="-298.5" font-family="Helvetica,sans-Serif" font-size="10.00">includes/serializer.h</text>
</a>
</g>
</g>
<!-- Node18&#45;&gt;Node20 -->
<g id="edge23" class="edge">
<title>Node18&#45;&gt;Node20</title>
<path fill="none" stroke="midnightblue" d="M1639.86,-872.61C1753.05,-866.81 1986.48,-851.94 2063,-825 2086.95,-816.57 2087.16,-802.76 2111,-794 2168.65,-772.82 2344.5,-804.17 2385,-758 2430.14,-706.55 2392.26,-672.06 2385,-604 2375.84,-518.1 2387.69,-488.52 2344,-414 2318.37,-370.29 2269.69,-334.67 2240.61,-316.06"/>
<polygon fill="midnightblue" stroke="midnightblue" points="2242.25,-312.96 2231.91,-310.63 2238.54,-318.89 2242.25,-312.96"/>
</g>
<!-- Node26 -->
<g id="node17" class="node">
<title>Node26</title>
<g id="a_node17"><a xlink:href="../../d1/d8c/logger_8h.html" target="_top" xlink:title=" ">
<polygon fill="none" stroke="red" points="2638,-179.5 2638,-198.5 2758,-198.5 2758,-179.5 2638,-179.5"/>
<text text-anchor="middle" x="2698" y="-186.5" font-family="Helvetica,sans-Serif" font-size="10.00">input_output/logger.h</text>
</a>
</g>
</g>
<!-- Node18&#45;&gt;Node26 -->
<g id="edge129" class="edge">
<title>Node18&#45;&gt;Node26</title>
<path fill="none" stroke="midnightblue" d="M1639.82,-871.89C1738.47,-865.68 1935.56,-851.05 2101,-825 2238.1,-803.42 2272.75,-796.83 2406,-758 2475.52,-737.74 2499.06,-742.63 2559,-702 2629.01,-654.55 2678,-638.08 2678,-553.5 2678,-553.5 2678,-553.5 2678,-490 2678,-388.07 2740.99,-379.24 2792,-291 2801.27,-274.96 2808.17,-272.88 2813,-255 2815.32,-246.42 2818.01,-242.34 2813,-235 2801.88,-218.71 2783.91,-208.32 2765.45,-201.69"/>
<polygon fill="midnightblue" stroke="midnightblue" points="2766.37,-198.31 2755.78,-198.55 2764.21,-204.97 2766.37,-198.31"/>
</g>
<!-- Node57 -->
<g id="node21" class="node">
<title>Node57</title>
<g id="a_node21"><a xlink:href="../../de/db8/process__info_8h.html" target="_top" xlink:title=" ">
<polygon fill="none" stroke="black" points="1051.5,-610 1051.5,-629 1182.5,-629 1182.5,-610 1051.5,-610"/>
<text text-anchor="middle" x="1117" y="-617" font-family="Helvetica,sans-Serif" font-size="10.00">includes/process_info.h</text>
</a>
</g>
</g>
<!-- Node18&#45;&gt;Node57 -->
<g id="edge47" class="edge">
<title>Node18&#45;&gt;Node57</title>
<path fill="none" stroke="midnightblue" d="M1514.38,-873.1C1460.79,-868.77 1383.03,-856.94 1323,-825 1233.21,-777.22 1156.96,-677.68 1128.71,-637.68"/>
<polygon fill="midnightblue" stroke="midnightblue" points="1131.44,-635.48 1122.86,-629.27 1125.7,-639.48 1131.44,-635.48"/>
</g>
<!-- Node58 -->
<g id="node22" class="node">
<title>Node58</title>
<g id="a_node22"><a xlink:href="../../d1/d82/data__value__container_8h.html" target="_top" xlink:title=" ">
<polygon fill="none" stroke="red" points="960.5,-537.5 960.5,-567.5 1085.5,-567.5 1085.5,-537.5 960.5,-537.5"/>
<text text-anchor="start" x="968.5" y="-555.5" font-family="Helvetica,sans-Serif" font-size="10.00">containers/data_value</text>
<text text-anchor="middle" x="1023" y="-544.5" font-family="Helvetica,sans-Serif" font-size="10.00">_container.h</text>
</a>
</g>
</g>
<!-- Node18&#45;&gt;Node58 -->
<g id="edge76" class="edge">
<title>Node18&#45;&gt;Node58</title>
<path fill="none" stroke="midnightblue" d="M1514.36,-874.58C1450.69,-871.52 1350.52,-860.75 1272,-825 1151.33,-770.06 1111.83,-747.71 1042,-635 1031.27,-617.68 1026.59,-594.87 1024.56,-577.79"/>
<polygon fill="midnightblue" stroke="midnightblue" points="1028.01,-577.12 1023.57,-567.5 1021.04,-577.79 1028.01,-577.12"/>
</g>
<!-- Node59 -->
<g id="node23" class="node">
<title>Node59</title>
<g id="a_node23"><a xlink:href="../../da/d89/variable_8h.html" target="_top" xlink:title=" ">
<polygon fill="none" stroke="red" points="598.5,-420 598.5,-439 717.5,-439 717.5,-420 598.5,-420"/>
<text text-anchor="middle" x="658" y="-427" font-family="Helvetica,sans-Serif" font-size="10.00">containers/variable.h</text>
</a>
</g>
</g>
<!-- Node18&#45;&gt;Node59 -->
<g id="edge135" class="edge">
<title>Node18&#45;&gt;Node59</title>
<path fill="none" stroke="midnightblue" d="M1514.12,-875.32C1279.36,-874.32 462.12,-867.79 354,-825 305.95,-805.98 266,-800.68 266,-749 266,-749 266,-749 266,-551.5 266,-484.85 475.52,-450.98 588.2,-437.58"/>
<polygon fill="midnightblue" stroke="midnightblue" points="588.94,-441.02 598.46,-436.39 588.13,-434.07 588.94,-441.02"/>
</g>
<!-- Node74 -->
<g id="node24" class="node">
<title>Node74</title>
<g id="a_node24"><a xlink:href="../../d3/dc3/variable__data_8h.html" target="_top" xlink:title=" ">
<polygon fill="none" stroke="red" points="912,-353 912,-372 1004,-372 1004,-353 912,-353"/>
<text text-anchor="middle" x="958" y="-360" font-family="Helvetica,sans-Serif" font-size="10.00">variable_data.h</text>
</a>
</g>
</g>
<!-- Node18&#45;&gt;Node74 -->
<g id="edge136" class="edge">
<title>Node18&#45;&gt;Node74</title>
<path fill="none" stroke="midnightblue" d="M1514.38,-875.92C1373.14,-876.01 1034.09,-871.25 931,-825 827.44,-778.54 770.95,-712.89 803,-604 817.6,-554.41 910.91,-426.49 945.3,-380.38"/>
<polygon fill="midnightblue" stroke="midnightblue" points="948.16,-382.4 951.35,-372.3 942.55,-378.21 948.16,-382.4"/>
</g>
<!-- Node83 -->
<g id="node26" class="node">
<title>Node83</title>
<g id="a_node26"><a xlink:href="../../d8/d3b/mesh_8h.html" target="_top" xlink:title=" ">
<polygon fill="none" stroke="red" points="916,-738.5 916,-757.5 1012,-757.5 1012,-738.5 916,-738.5"/>
<text text-anchor="middle" x="964" y="-745.5" font-family="Helvetica,sans-Serif" font-size="10.00">includes/mesh.h</text>
</a>
</g>
</g>
<!-- Node18&#45;&gt;Node83 -->
<g id="edge77" class="edge">
<title>Node18&#45;&gt;Node83</title>
<path fill="none" stroke="midnightblue" d="M1514.08,-875.76C1387.94,-875.33 1109.11,-869.22 1026,-825 1001.65,-812.04 983.29,-785.05 973.09,-766.97"/>
<polygon fill="midnightblue" stroke="midnightblue" points="976.08,-765.16 968.28,-758 969.92,-768.46 976.08,-765.16"/>
</g>
<!-- Node87 -->
<g id="node27" class="node">
<title>Node87</title>
<g id="a_node27"><a xlink:href="../../d2/d58/pointer__vector__map_8h.html" target="_top" xlink:title=" ">
<polygon fill="none" stroke="red" points="712.5,-347.5 712.5,-377.5 817.5,-377.5 817.5,-347.5 712.5,-347.5"/>
<text text-anchor="start" x="720.5" y="-365.5" font-family="Helvetica,sans-Serif" font-size="10.00">containers/pointer</text>
<text text-anchor="middle" x="765" y="-354.5" font-family="Helvetica,sans-Serif" font-size="10.00">_vector_map.h</text>
</a>
</g>
</g>
<!-- Node18&#45;&gt;Node87 -->
<g id="edge127" class="edge">
<title>Node18&#45;&gt;Node87</title>
<path fill="none" stroke="midnightblue" d="M1514.38,-873.75C1352.31,-868.85 927.72,-853.41 871,-825 812.69,-795.8 803.13,-766.07 791,-702 788.12,-686.81 789.86,-621.84 793,-604 797.18,-580.26 823.17,-524.8 827,-501 828.41,-492.22 829.14,-489.63 827,-481 818.19,-445.42 796.43,-408.74 781.19,-386.03"/>
<polygon fill="midnightblue" stroke="midnightblue" points="784.06,-384.03 775.51,-377.76 778.29,-387.99 784.06,-384.03"/>
</g>
<!-- Node99 -->
<g id="node28" class="node">
<title>Node99</title>
<g id="a_node28"><a xlink:href="../../da/da4/master__slave__constraint_8h.html" target="_top" xlink:title=" ">
<polygon fill="none" stroke="red" points="831,-671.5 831,-701.5 957,-701.5 957,-671.5 831,-671.5"/>
<text text-anchor="start" x="839" y="-689.5" font-family="Helvetica,sans-Serif" font-size="10.00">includes/master_slave</text>
<text text-anchor="middle" x="894" y="-678.5" font-family="Helvetica,sans-Serif" font-size="10.00">_constraint.h</text>
</a>
</g>
</g>
<!-- Node18&#45;&gt;Node99 -->
<g id="edge134" class="edge">
<title>Node18&#45;&gt;Node99</title>
<path fill="none" stroke="midnightblue" d="M1514.11,-874.76C1382.58,-872.46 1082.88,-863.08 989,-825 945.39,-807.31 930.96,-798.51 907,-758 898.77,-744.08 895.55,-726.14 894.37,-711.84"/>
<polygon fill="midnightblue" stroke="midnightblue" points="897.85,-711.53 893.81,-701.74 890.86,-711.92 897.85,-711.53"/>
</g>
<!-- Node110 -->
<g id="node29" class="node">
<title>Node110</title>
<g id="a_node29"><a xlink:href="../../d3/dad/geometry__container_8h.html" target="_top" xlink:title=" ">
<polygon fill="none" stroke="black" points="1858,-414.5 1858,-444.5 1976,-444.5 1976,-414.5 1858,-414.5"/>
<text text-anchor="start" x="1866" y="-432.5" font-family="Helvetica,sans-Serif" font-size="10.00">containers/geometry</text>
<text text-anchor="middle" x="1917" y="-421.5" font-family="Helvetica,sans-Serif" font-size="10.00">_container.h</text>
</a>
</g>
</g>
<!-- Node18&#45;&gt;Node110 -->
<g id="edge96" class="edge">
<title>Node18&#45;&gt;Node110</title>
<path fill="none" stroke="midnightblue" d="M1628.78,-866.92C1660.77,-859.72 1701.42,-846.94 1732,-825 1861.23,-732.29 1902.98,-525.76 1913.77,-454.91"/>
<polygon fill="midnightblue" stroke="midnightblue" points="1917.27,-455.14 1915.24,-444.74 1910.34,-454.14 1917.27,-455.14"/>
</g>
<!-- Node111 -->
<g id="node30" class="node">
<title>Node111</title>
<g id="a_node30"><a xlink:href="../../da/d92/pointer__hash__map__set_8h.html" target="_top" xlink:title=" ">
<polygon fill="none" stroke="red" points="1971.5,-347.5 1971.5,-377.5 2076.5,-377.5 2076.5,-347.5 1971.5,-347.5"/>
<text text-anchor="start" x="1979.5" y="-365.5" font-family="Helvetica,sans-Serif" font-size="10.00">containers/pointer</text>
<text text-anchor="middle" x="2024" y="-354.5" font-family="Helvetica,sans-Serif" font-size="10.00">_hash_map_set.h</text>
</a>
</g>
</g>
<!-- Node18&#45;&gt;Node111 -->
<g id="edge128" class="edge">
<title>Node18&#45;&gt;Node111</title>
<path fill="none" stroke="midnightblue" d="M1639.64,-870.37C1759.83,-858.78 2011,-825.42 2011,-749 2011,-749 2011,-749 2011,-685.5 2011,-576.76 2045.96,-553.28 2056,-445 2057.27,-431.28 2059.84,-427.23 2056,-414 2053.15,-404.19 2047.77,-394.46 2042.21,-386.2"/>
<polygon fill="midnightblue" stroke="midnightblue" points="2044.91,-383.95 2036.24,-377.88 2039.23,-388.04 2044.91,-383.95"/>
</g>
<!-- Node112 -->
<g id="node31" class="node">
<title>Node112</title>
<g id="a_node31"><a xlink:href="../../d4/dfe/element_8h.html" target="_top" xlink:title=" ">
<polygon fill="none" stroke="red" points="1645,-738.5 1645,-757.5 1755,-757.5 1755,-738.5 1645,-738.5"/>
<text text-anchor="middle" x="1700" y="-745.5" font-family="Helvetica,sans-Serif" font-size="10.00">includes/element.h</text>
</a>
</g>
</g>
<!-- Node18&#45;&gt;Node112 -->
<g id="edge102" class="edge">
<title>Node18&#45;&gt;Node112</title>
<path fill="none" stroke="midnightblue" d="M1585.45,-866.81C1605.82,-845.86 1657.85,-792.35 1684.2,-765.25"/>
<polygon fill="midnightblue" stroke="midnightblue" points="1687.02,-767.37 1691.49,-757.76 1682.01,-762.49 1687.02,-767.37"/>
</g>
<!-- Node129 -->
<g id="node35" class="node">
<title>Node129</title>
<g id="a_node35"><a xlink:href="../../d7/d6c/condition_8h.html" target="_top" xlink:title=" ">
<polygon fill="none" stroke="red" points="1513,-738.5 1513,-757.5 1627,-757.5 1627,-738.5 1513,-738.5"/>
<text text-anchor="middle" x="1570" y="-745.5" font-family="Helvetica,sans-Serif" font-size="10.00">includes/condition.h</text>
</a>
</g>
</g>
<!-- Node18&#45;&gt;Node129 -->
<g id="edge109" class="edge">
<title>Node18&#45;&gt;Node129</title>
<path fill="none" stroke="midnightblue" d="M1576.52,-866.81C1575.39,-846.49 1572.58,-795.55 1571.04,-767.78"/>
<polygon fill="midnightblue" stroke="midnightblue" points="1574.53,-767.55 1570.48,-757.76 1567.54,-767.93 1574.53,-767.55"/>
</g>
<!-- Node130 -->
<g id="node36" class="node">
<title>Node130</title>
<g id="a_node36"><a xlink:href="../../d8/d75/communicator_8h.html" target="_top" xlink:title=" ">
<polygon fill="none" stroke="black" points="1409.5,-800 1409.5,-819 1548.5,-819 1548.5,-800 1409.5,-800"/>
<text text-anchor="middle" x="1479" y="-807" font-family="Helvetica,sans-Serif" font-size="10.00">includes/communicator.h</text>
</a>
</g>
</g>
<!-- Node18&#45;&gt;Node130 -->
<g id="edge112" class="edge">
<title>Node18&#45;&gt;Node130</title>
<path fill="none" stroke="midnightblue" d="M1563.78,-866.73C1547.55,-855.96 1519.78,-837.55 1500.47,-824.74"/>
<polygon fill="midnightblue" stroke="midnightblue" points="1502.28,-821.74 1492.01,-819.13 1498.41,-827.57 1502.28,-821.74"/>
</g>
<!-- Node114 -->
<g id="node37" class="node">
<title>Node114</title>
<g id="a_node37"><a xlink:href="../../dd/d98/table_8h.html" target="_top" xlink:title=" ">
<polygon fill="none" stroke="black" points="724,-481.5 724,-500.5 818,-500.5 818,-481.5 724,-481.5"/>
<text text-anchor="middle" x="771" y="-488.5" font-family="Helvetica,sans-Serif" font-size="10.00">includes/table.h</text>
</a>
</g>
</g>
<!-- Node18&#45;&gt;Node114 -->
<g id="edge121" class="edge">
<title>Node18&#45;&gt;Node114</title>
<path fill="none" stroke="midnightblue" d="M1514.49,-875.78C1285.88,-876.41 503.42,-874.85 404,-825 365.03,-805.46 342,-792.59 342,-749 342,-749 342,-749 342,-685.5 342,-524.3 596.81,-496.64 713.67,-492.43"/>
<polygon fill="midnightblue" stroke="midnightblue" points="713.98,-495.92 723.86,-492.11 713.76,-488.92 713.98,-495.92"/>
</g>
<!-- Node109 -->
<g id="node38" class="node">
<title>Node109</title>
<g id="a_node38"><a xlink:href="../../d0/dac/kratos__flags_8h.html" target="_top" xlink:title=" ">
<polygon fill="none" stroke="black" points="1636,-543 1636,-562 1764,-562 1764,-543 1636,-543"/>
<text text-anchor="middle" x="1700" y="-550" font-family="Helvetica,sans-Serif" font-size="10.00">includes/kratos_flags.h</text>
</a>
</g>
</g>
<!-- Node18&#45;&gt;Node109 -->
<g id="edge130" class="edge">
<title>Node18&#45;&gt;Node109</title>
<path fill="none" stroke="midnightblue" d="M1606.74,-866.91C1650.41,-852.51 1730.34,-818.91 1764,-758 1799.67,-693.47 1741.74,-606.28 1713.77,-570.2"/>
<polygon fill="midnightblue" stroke="midnightblue" points="1716.34,-567.81 1707.38,-562.17 1710.87,-572.17 1716.34,-567.81"/>
</g>
<!-- Node20&#45;&gt;Node3 -->
<g id="edge24" class="edge">
<title>Node20&#45;&gt;Node3</title>
<path fill="none" stroke="midnightblue" d="M2273.68,-297.6C2425.48,-290.02 2825.83,-262.01 2767,-179 2680.11,-56.41 2595.54,-95.47 2448,-67 2087.2,2.62 1986.03,-81.06 1622,-31 1612.19,-29.65 1601.65,-27.47 1592.1,-25.2"/>
<polygon fill="midnightblue" stroke="midnightblue" points="1592.74,-21.76 1582.2,-22.75 1591.06,-28.55 1592.74,-21.76"/>
</g>
<!-- Node20&#45;&gt;Node4 -->
<g id="edge27" class="edge">
<title>Node20&#45;&gt;Node4</title>
<path fill="none" stroke="midnightblue" d="M2215.3,-291.35C2210.16,-267.82 2192.29,-202.85 2148,-179 2013.43,-106.53 1951.16,-190.83 1806,-143 1789.35,-137.51 1788.75,-128.18 1772,-123 1545.57,-53.05 1466.43,-156.95 1240,-87 1223.25,-81.82 1222.67,-72.42 1206,-67 1116.42,-37.9 830.69,-22.85 724.36,-18.15"/>
<polygon fill="midnightblue" stroke="midnightblue" points="724.2,-14.64 714.06,-17.7 723.9,-21.63 724.2,-14.64"/>
</g>
<!-- Node20&#45;&gt;Node5 -->
<g id="edge28" class="edge">
<title>Node20&#45;&gt;Node5</title>
<path fill="none" stroke="midnightblue" d="M2173.58,-291.44C2125.48,-281.96 2047.91,-266.67 1996.19,-256.48"/>
<polygon fill="midnightblue" stroke="midnightblue" points="1996.7,-253.02 1986.21,-254.52 1995.35,-259.88 1996.7,-253.02"/>
</g>
<!-- Node20&#45;&gt;Node6 -->
<g id="edge30" class="edge">
<title>Node20&#45;&gt;Node6</title>
<path fill="none" stroke="midnightblue" d="M2213.07,-291.33C2202.14,-268.34 2168.91,-205.72 2120,-179 2052.93,-142.36 1853.85,-152.32 1778,-143 1776.54,-142.82 1775.06,-142.64 1773.57,-142.45"/>
<polygon fill="midnightblue" stroke="midnightblue" points="1773.96,-138.97 1763.59,-141.15 1773.06,-145.91 1773.96,-138.97"/>
</g>
<!-- Node20&#45;&gt;Node8 -->
<g id="edge25" class="edge">
<title>Node20&#45;&gt;Node8</title>
<path fill="none" stroke="midnightblue" d="M2193.03,-291.46C2153.1,-277.57 2070.21,-250.09 1998,-235 1475.44,-125.79 1335.57,-154.44 806,-87 617.64,-63.01 392.47,-33.27 304.18,-21.57"/>
<polygon fill="midnightblue" stroke="midnightblue" points="304.47,-18.08 294.1,-20.23 303.55,-25.02 304.47,-18.08"/>
</g>
<!-- Node24 -->
<g id="node15" class="node">
<title>Node24</title>
<g id="a_node15"><a xlink:title=" ">
<polygon fill="none" stroke="#bfbfbf" points="2236.5,-235.5 2236.5,-254.5 2291.5,-254.5 2291.5,-235.5 2236.5,-235.5"/>
<text text-anchor="middle" x="2264" y="-242.5" font-family="Helvetica,sans-Serif" font-size="10.00">fstream</text>
</a>
</g>
</g>
<!-- Node20&#45;&gt;Node24 -->
<g id="edge26" class="edge">
<title>Node20&#45;&gt;Node24</title>
<path fill="none" stroke="midnightblue" d="M2224.76,-291.08C2231.54,-283.3 2241.54,-271.8 2249.76,-262.37"/>
<polygon fill="midnightblue" stroke="midnightblue" points="2252.46,-264.59 2256.38,-254.75 2247.18,-260 2252.46,-264.59"/>
</g>
<!-- Node25 -->
<g id="node16" class="node">
<title>Node25</title>
<g id="a_node16"><a xlink:title=" ">
<polygon fill="none" stroke="#bfbfbf" points="3050,-235.5 3050,-254.5 3136,-254.5 3136,-235.5 3050,-235.5"/>
<text text-anchor="middle" x="3093" y="-242.5" font-family="Helvetica,sans-Serif" font-size="10.00">unordered_set</text>
</a>
</g>
</g>
<!-- Node20&#45;&gt;Node25 -->
<g id="edge29" class="edge">
<title>Node20&#45;&gt;Node25</title>
<path fill="none" stroke="midnightblue" d="M2273.8,-296.5C2433.45,-286.66 2884.58,-258.85 3039.77,-249.28"/>
<polygon fill="midnightblue" stroke="midnightblue" points="3040.23,-252.76 3050,-248.65 3039.8,-245.77 3040.23,-252.76"/>
</g>
<!-- Node20&#45;&gt;Node26 -->
<g id="edge31" class="edge">
<title>Node20&#45;&gt;Node26</title>
<path fill="none" stroke="midnightblue" d="M2273.71,-292.67C2368.21,-280.41 2548.3,-256.92 2555,-255 2598.85,-242.42 2646.45,-218.52 2674.18,-203.48"/>
<polygon fill="midnightblue" stroke="midnightblue" points="2676.04,-206.44 2683.12,-198.55 2672.67,-200.31 2676.04,-206.44"/>
</g>
<!-- Node30 -->
<g id="node18" class="node">
<title>Node30</title>
<g id="a_node18"><a xlink:href="../../d9/da0/flags_8h.html" target="_top" xlink:title=" ">
<polygon fill="none" stroke="black" points="1318.5,-235.5 1318.5,-254.5 1421.5,-254.5 1421.5,-235.5 1318.5,-235.5"/>
<text text-anchor="middle" x="1370" y="-242.5" font-family="Helvetica,sans-Serif" font-size="10.00">containers/flags.h</text>
</a>
</g>
</g>
<!-- Node20&#45;&gt;Node30 -->
<g id="edge35" class="edge">
<title>Node20&#45;&gt;Node30</title>
<path fill="none" stroke="midnightblue" d="M2160.44,-296.39C2008.03,-286.68 1589.62,-260 1431.56,-249.92"/>
<polygon fill="midnightblue" stroke="midnightblue" points="1431.73,-246.43 1421.53,-249.29 1431.29,-253.41 1431.73,-246.43"/>
</g>
<!-- Node31 -->
<g id="node19" class="node">
<title>Node31</title>
<g id="a_node19"><a xlink:href="../../d9/d36/array__1d_8h.html" target="_top" xlink:title=" ">
<polygon fill="none" stroke="red" points="2424,-235.5 2424,-254.5 2546,-254.5 2546,-235.5 2424,-235.5"/>
<text text-anchor="middle" x="2485" y="-242.5" font-family="Helvetica,sans-Serif" font-size="10.00">containers/array_1d.h</text>
</a>
</g>
</g>
<!-- Node20&#45;&gt;Node31 -->
<g id="edge39" class="edge">
<title>Node20&#45;&gt;Node31</title>
<path fill="none" stroke="midnightblue" d="M2259.47,-291.44C2306.41,-281.98 2382.08,-266.74 2432.65,-256.55"/>
<polygon fill="midnightblue" stroke="midnightblue" points="2433.62,-259.92 2442.73,-254.52 2432.24,-253.06 2433.62,-259.92"/>
</g>
<!-- Node26&#45;&gt;Node3 -->
<g id="edge32" class="edge">
<title>Node26&#45;&gt;Node3</title>
<path fill="none" stroke="midnightblue" d="M2682.46,-179.46C2639.27,-156.21 2513.45,-91.89 2400,-67 2061.89,7.18 1964.86,-78.61 1622,-31 1612.19,-29.64 1601.65,-27.45 1592.1,-25.19"/>
<polygon fill="midnightblue" stroke="midnightblue" points="1592.75,-21.74 1582.2,-22.73 1591.06,-28.54 1592.75,-21.74"/>
</g>
<!-- Node26&#45;&gt;Node4 -->
<g id="edge33" class="edge">
<title>Node26&#45;&gt;Node4</title>
<path fill="none" stroke="midnightblue" d="M2637.9,-182.67C2512.35,-171.55 2213.09,-145.06 1962,-123 1778.9,-106.91 1732.99,-104.33 1550,-87 1462.83,-78.74 1441.22,-74.74 1354,-67 1115.29,-45.83 828.21,-26.11 724.14,-19.15"/>
<polygon fill="midnightblue" stroke="midnightblue" points="724.28,-15.66 714.07,-18.48 723.82,-22.64 724.28,-15.66"/>
</g>
<!-- Node26&#45;&gt;Node14 -->
<g id="edge34" class="edge">
<title>Node26&#45;&gt;Node14</title>
<path fill="none" stroke="midnightblue" d="M2664.48,-179.44C2596.81,-162.18 2449.31,-124.71 2438,-123 2161.9,-81.3 1828.32,-77.07 1686.81,-77.38"/>
<polygon fill="midnightblue" stroke="midnightblue" points="1686.54,-73.88 1676.55,-77.41 1686.56,-80.88 1686.54,-73.88"/>
</g>
<!-- Node30&#45;&gt;Node3 -->
<g id="edge36" class="edge">
<title>Node30&#45;&gt;Node3</title>
<path fill="none" stroke="midnightblue" d="M1373.39,-235.44C1381.85,-214.72 1405.45,-160.76 1436,-123 1466.79,-84.94 1512.39,-49.82 1538.86,-30.95"/>
<polygon fill="midnightblue" stroke="midnightblue" points="1540.88,-33.81 1547.05,-25.2 1536.86,-28.08 1540.88,-33.81"/>
</g>
<!-- Node30&#45;&gt;Node4 -->
<g id="edge37" class="edge">
<title>Node30&#45;&gt;Node4</title>
<path fill="none" stroke="midnightblue" d="M1344.36,-235.5C1239.2,-200.62 840.77,-68.49 719.34,-28.22"/>
<polygon fill="midnightblue" stroke="midnightblue" points="720.36,-24.87 709.77,-25.05 718.16,-31.52 720.36,-24.87"/>
</g>
<!-- Node30&#45;&gt;Node6 -->
<g id="edge38" class="edge">
<title>Node30&#45;&gt;Node6</title>
<path fill="none" stroke="midnightblue" d="M1391.98,-235.43C1425.7,-222.42 1492.36,-197.28 1550,-179 1590.3,-166.22 1636.82,-153.66 1670,-145.07"/>
<polygon fill="midnightblue" stroke="midnightblue" points="1671.04,-148.42 1679.85,-142.53 1669.29,-141.64 1671.04,-148.42"/>
</g>
<!-- Node31&#45;&gt;Node3 -->
<g id="edge40" class="edge">
<title>Node31&#45;&gt;Node3</title>
<path fill="none" stroke="midnightblue" d="M2486.05,-235.43C2487.24,-221.49 2487.31,-193.96 2472,-179 2266.38,21.87 2118.27,-115.84 1835,-67 1740.39,-50.69 1716.12,-49.94 1622,-31 1612.21,-29.03 1601.61,-26.65 1591.99,-24.38"/>
<polygon fill="midnightblue" stroke="midnightblue" points="1592.56,-20.92 1582.02,-22 1590.94,-27.73 1592.56,-20.92"/>
</g>
<!-- Node31&#45;&gt;Node4 -->
<g id="edge41" class="edge">
<title>Node31&#45;&gt;Node4</title>
<path fill="none" stroke="midnightblue" d="M2480.99,-235.43C2473.72,-220.96 2456.86,-192 2433,-179 2221.68,-63.87 1589.72,-135.43 1354,-87 1327.7,-81.6 1323.26,-72.59 1297,-67 1084.63,-21.77 822.88,-16.53 724.18,-16.29"/>
<polygon fill="midnightblue" stroke="midnightblue" points="724.06,-12.79 714.05,-16.28 724.05,-19.79 724.06,-12.79"/>
</g>
<!-- Node31&#45;&gt;Node6 -->
<g id="edge42" class="edge">
<title>Node31&#45;&gt;Node6</title>
<path fill="none" stroke="midnightblue" d="M2477.23,-235.28C2463.52,-220.58 2433.42,-191.28 2401,-179 2371.91,-167.99 1935.82,-145.13 1773.92,-136.97"/>
<polygon fill="midnightblue" stroke="midnightblue" points="1773.82,-133.46 1763.66,-136.46 1773.47,-140.45 1773.82,-133.46"/>
</g>
<!-- Node35 -->
<g id="node20" class="node">
<title>Node35</title>
<g id="a_node20"><a xlink:href="../../d9/d3e/ublas__interface_8h.html" target="_top" xlink:title=" ">
<polygon fill="none" stroke="red" points="2248,-179.5 2248,-198.5 2392,-198.5 2392,-179.5 2248,-179.5"/>
<text text-anchor="middle" x="2320" y="-186.5" font-family="Helvetica,sans-Serif" font-size="10.00">includes/ublas_interface.h</text>
</a>
</g>
</g>
<!-- Node31&#45;&gt;Node35 -->
<g id="edge43" class="edge">
<title>Node31&#45;&gt;Node35</title>
<path fill="none" stroke="midnightblue" d="M2458.86,-235.44C2430.98,-226.32 2386.65,-211.81 2355.6,-201.65"/>
<polygon fill="midnightblue" stroke="midnightblue" points="2356.62,-198.3 2346.02,-198.52 2354.44,-204.95 2356.62,-198.3"/>
</g>
<!-- Node35&#45;&gt;Node3 -->
<g id="edge44" class="edge">
<title>Node35&#45;&gt;Node3</title>
<path fill="none" stroke="midnightblue" d="M2281.38,-179.43C2175.76,-155.98 1873.21,-88.63 1622,-31 1612.27,-28.77 1601.68,-26.31 1592.06,-24.05"/>
<polygon fill="midnightblue" stroke="midnightblue" points="1592.62,-20.59 1582.08,-21.71 1591.02,-27.4 1592.62,-20.59"/>
</g>
<!-- Node35&#45;&gt;Node4 -->
<g id="edge45" class="edge">
<title>Node35&#45;&gt;Node4</title>
<path fill="none" stroke="midnightblue" d="M2247.69,-180.42C2170.05,-172.08 2043.13,-157.88 1934,-143 1876.95,-135.22 1863.2,-129.6 1806,-123 1593.48,-98.47 1537.48,-119.32 1326,-87 1287.21,-81.07 1278.74,-73.23 1240,-67 1048.31,-36.16 816.17,-22.66 724.26,-18.25"/>
<polygon fill="midnightblue" stroke="midnightblue" points="724.17,-14.74 714.02,-17.77 723.84,-21.73 724.17,-14.74"/>
</g>
<!-- Node35&#45;&gt;Node6 -->
<g id="edge46" class="edge">
<title>Node35&#45;&gt;Node6</title>
<path fill="none" stroke="midnightblue" d="M2247.75,-180.34C2243.1,-179.88 2238.48,-179.43 2234,-179 2048.38,-161.3 2001.76,-159.19 1816,-143 1802.25,-141.8 1787.45,-140.5 1773.51,-139.27"/>
<polygon fill="midnightblue" stroke="midnightblue" points="1773.81,-135.79 1763.54,-138.39 1773.2,-142.76 1773.81,-135.79"/>
</g>
<!-- Node57&#45;&gt;Node3 -->
<g id="edge48" class="edge">
<title>Node57&#45;&gt;Node3</title>
<path fill="none" stroke="midnightblue" d="M1051.44,-615.35C952.02,-607.97 760.08,-583.3 622,-501 537.96,-450.91 527.27,-384.52 556,-291 573.67,-233.5 584.62,-216.06 632,-179 688.71,-134.64 865.69,-82.49 936,-67 1158.32,-18.01 1434.57,-15.38 1527.67,-16.04"/>
<polygon fill="midnightblue" stroke="midnightblue" points="1527.82,-19.54 1537.85,-16.13 1527.88,-12.54 1527.82,-19.54"/>
</g>
<!-- Node57&#45;&gt;Node4 -->
<g id="edge49" class="edge">
<title>Node57&#45;&gt;Node4</title>
<path fill="none" stroke="midnightblue" d="M1051.35,-616.16C963.43,-611.88 803.06,-600.03 670,-568 587.82,-548.22 554.7,-557.7 492,-501 417.51,-433.64 300.79,-143.38 366,-67 401.23,-25.74 565.88,-18.01 643.42,-16.69"/>
<polygon fill="midnightblue" stroke="midnightblue" points="643.81,-20.19 653.76,-16.55 643.71,-13.19 643.81,-20.19"/>
</g>
<!-- Node57&#45;&gt;Node6 -->
<g id="edge52" class="edge">
<title>Node57&#45;&gt;Node6</title>
<path fill="none" stroke="midnightblue" d="M1160.72,-609.98C1273.06,-587.78 1565.56,-528.05 1601,-501 1629.47,-479.28 1640,-466.31 1640,-430.5 1640,-430.5 1640,-430.5 1640,-244 1640,-213.2 1646.72,-204.49 1664,-179 1671.81,-167.49 1683.17,-156.95 1693.1,-148.96"/>
<polygon fill="midnightblue" stroke="midnightblue" points="1695.52,-151.52 1701.32,-142.65 1691.26,-145.96 1695.52,-151.52"/>
</g>
<!-- Node57&#45;&gt;Node8 -->
<g id="edge50" class="edge">
<title>Node57&#45;&gt;Node8</title>
<path fill="none" stroke="midnightblue" d="M1051.29,-618.23C919.86,-616.81 629.56,-608.96 540,-568 473.45,-537.56 190,-311.59 190,-190 190,-190 190,-190 190,-132 190,-101.2 197.2,-92.81 214,-67 222.86,-53.38 236.01,-40.66 246.87,-31.39"/>
<polygon fill="midnightblue" stroke="midnightblue" points="249.11,-34.07 254.61,-25.01 244.67,-28.66 249.11,-34.07"/>
</g>
<!-- Node57&#45;&gt;Node19 -->
<g id="edge51" class="edge">
<title>Node57&#45;&gt;Node19</title>
<path fill="none" stroke="midnightblue" d="M1118.09,-609.77C1120.87,-587.96 1128.65,-529.37 1138,-481 1149.44,-421.85 1166.84,-352.62 1175.2,-320.32"/>
<polygon fill="midnightblue" stroke="midnightblue" points="1178.62,-321.08 1177.75,-310.52 1171.84,-319.31 1178.62,-321.08"/>
</g>
<!-- Node57&#45;&gt;Node30 -->
<g id="edge75" class="edge">
<title>Node57&#45;&gt;Node30</title>
<path fill="none" stroke="midnightblue" d="M1120.61,-609.92C1132.89,-580.78 1172.45,-487.05 1176,-481 1229.86,-389.13 1250.47,-369.9 1322,-291 1331.49,-280.53 1343.03,-269.66 1352.41,-261.24"/>
<polygon fill="midnightblue" stroke="midnightblue" points="1354.82,-263.77 1359.99,-254.53 1350.18,-258.53 1354.82,-263.77"/>
</g>
<!-- Node57&#45;&gt;Node58 -->
<g id="edge53" class="edge">
<title>Node57&#45;&gt;Node58</title>
<path fill="none" stroke="midnightblue" d="M1104.32,-609.73C1090.89,-600.44 1069.22,-585.46 1051.63,-573.3"/>
<polygon fill="midnightblue" stroke="midnightblue" points="1053.59,-570.4 1043.37,-567.59 1049.61,-576.16 1053.59,-570.4"/>
</g>
<!-- Node58&#45;&gt;Node3 -->
<g id="edge54" class="edge">
<title>Node58&#45;&gt;Node3</title>
<path fill="none" stroke="midnightblue" d="M960.22,-551.98C886.57,-550.48 762.07,-541.38 664,-501 595.55,-472.82 570,-437.53 570,-363.5 570,-363.5 570,-363.5 570,-300 570,-237.38 639.43,-263.86 695,-235 766.98,-197.62 941.18,-89.86 1019,-67 1115.39,-38.69 1425.87,-22.53 1527.48,-17.9"/>
<polygon fill="midnightblue" stroke="midnightblue" points="1527.9,-21.38 1537.73,-17.44 1527.59,-14.39 1527.9,-21.38"/>
</g>
<!-- Node58&#45;&gt;Node4 -->
<g id="edge55" class="edge">
<title>Node58&#45;&gt;Node4</title>
<path fill="none" stroke="midnightblue" d="M960.41,-549.3C859.53,-544.86 666.2,-532.43 606,-501 481.19,-435.83 418,-386.8 418,-246 418,-246 418,-246 418,-132 418,-34.95 568.83,-18.57 643.33,-16.4"/>
<polygon fill="midnightblue" stroke="midnightblue" points="643.82,-19.89 653.75,-16.17 643.67,-12.89 643.82,-19.89"/>
</g>
<!-- Node58&#45;&gt;Node6 -->
<g id="edge57" class="edge">
<title>Node58&#45;&gt;Node6</title>
<path fill="none" stroke="midnightblue" d="M1085.56,-550.16C1223.27,-546.6 1543.25,-534.74 1578,-501 1641.91,-438.94 1602,-391.09 1602,-302 1602,-302 1602,-302 1602,-244 1602,-213.2 1605.56,-202.03 1626,-179 1639.14,-164.2 1658.31,-153.6 1675.4,-146.42"/>
<polygon fill="midnightblue" stroke="midnightblue" points="1677.14,-149.5 1685.16,-142.58 1674.58,-142.98 1677.14,-149.5"/>
</g>
<!-- Node58&#45;&gt;Node14 -->
<g id="edge74" class="edge">
<title>Node58&#45;&gt;Node14</title>
<path fill="none" stroke="midnightblue" d="M1085.96,-550.04C1217.89,-546.33 1513.73,-534.35 1544,-501 1606.74,-431.88 1530.96,-383.91 1540,-291 1544.97,-239.93 1549.1,-226.7 1568,-179 1579.96,-148.81 1597.43,-115.32 1608.23,-95.49"/>
<polygon fill="midnightblue" stroke="midnightblue" points="1611.32,-97.14 1613.08,-86.69 1605.19,-93.76 1611.32,-97.14"/>
</g>
<!-- Node58&#45;&gt;Node19 -->
<g id="edge56" class="edge">
<title>Node58&#45;&gt;Node19</title>
<path fill="none" stroke="midnightblue" d="M1028.59,-537.43C1042.7,-502.88 1082.21,-411.99 1132,-347 1140.38,-336.06 1151.52,-325.44 1160.96,-317.26"/>
<polygon fill="midnightblue" stroke="midnightblue" points="1163.3,-319.87 1168.71,-310.76 1158.8,-314.51 1163.3,-319.87"/>
</g>
<!-- Node58&#45;&gt;Node59 -->
<g id="edge58" class="edge">
<title>Node58&#45;&gt;Node59</title>
<path fill="none" stroke="midnightblue" d="M960.18,-549.85C873.47,-546.32 723.14,-535.29 682,-501 666.67,-488.22 661.1,-465.22 659.1,-448.97"/>
<polygon fill="midnightblue" stroke="midnightblue" points="662.58,-448.65 658.2,-439.01 655.61,-449.28 662.58,-448.65"/>
</g>
<!-- Node76 -->
<g id="node25" class="node">
<title>Node76</title>
<g id="a_node25"><a xlink:href="../../dc/d8e/kratos__components_8h.html" target="_top" xlink:title=" ">
<polygon fill="none" stroke="red" points="1370.5,-481.5 1370.5,-500.5 1535.5,-500.5 1535.5,-481.5 1370.5,-481.5"/>
<text text-anchor="middle" x="1453" y="-488.5" font-family="Helvetica,sans-Serif" font-size="10.00">includes/kratos_components.h</text>
</a>
</g>
</g>
<!-- Node58&#45;&gt;Node76 -->
<g id="edge68" class="edge">
<title>Node58&#45;&gt;Node76</title>
<path fill="none" stroke="midnightblue" d="M1085.53,-542.85C1164.12,-531.97 1298.73,-513.35 1381.38,-501.91"/>
<polygon fill="midnightblue" stroke="midnightblue" points="1382.02,-505.36 1391.44,-500.52 1381.06,-498.42 1382.02,-505.36"/>
</g>
<!-- Node59&#45;&gt;Node3 -->
<g id="edge59" class="edge">
<title>Node59&#45;&gt;Node3</title>
<path fill="none" stroke="midnightblue" d="M656.24,-419.93C652.03,-396.96 643.54,-332.96 670,-291 722.28,-208.08 770.05,-217.96 860,-179 912.27,-156.36 935.53,-174.48 983,-143 1019.33,-118.91 1006.58,-87.6 1045,-67 1129.13,-21.9 1428.46,-16.88 1527.74,-16.47"/>
<polygon fill="midnightblue" stroke="midnightblue" points="1527.79,-19.97 1537.78,-16.44 1527.77,-12.97 1527.79,-19.97"/>
</g>
<!-- Node59&#45;&gt;Node4 -->
<g id="edge60" class="edge">
<title>Node59&#45;&gt;Node4</title>
<path fill="none" stroke="midnightblue" d="M633.63,-419.85C579.91,-399.03 456,-340.76 456,-246 456,-246 456,-246 456,-132 456,-48.81 578.27,-25.52 643.73,-19.02"/>
<polygon fill="midnightblue" stroke="midnightblue" points="644.08,-22.5 653.72,-18.11 643.45,-15.53 644.08,-22.5"/>
</g>
<!-- Node59&#45;&gt;Node6 -->
<g id="edge61" class="edge">
<title>Node59&#45;&gt;Node6</title>
<path fill="none" stroke="midnightblue" d="M703.8,-419.98C738.73,-412.27 787.26,-398.87 826,-378 947.38,-312.6 936.1,-230.5 1064,-179 1170.08,-136.29 1514.06,-132.97 1653.98,-133.47"/>
<polygon fill="midnightblue" stroke="midnightblue" points="1654.08,-136.97 1664.09,-133.51 1654.11,-129.97 1654.08,-136.97"/>
</g>
<!-- Node59&#45;&gt;Node74 -->
<g id="edge62" class="edge">
<title>Node59&#45;&gt;Node74</title>
<path fill="none" stroke="midnightblue" d="M700.57,-419.94C748.61,-410.19 829.06,-393.58 898,-378 903.03,-376.86 908.29,-375.64 913.52,-374.41"/>
<polygon fill="midnightblue" stroke="midnightblue" points="914.54,-377.76 923.46,-372.03 912.92,-370.95 914.54,-377.76"/>
</g>
<!-- Node74&#45;&gt;Node3 -->
<g id="edge63" class="edge">
<title>Node74&#45;&gt;Node3</title>
<path fill="none" stroke="midnightblue" d="M960.49,-352.67C969.29,-323.18 1001.72,-227.24 1064,-179 1183.7,-86.29 1249.03,-136.83 1392,-87 1442.35,-69.45 1499.23,-44.45 1532.21,-29.41"/>
<polygon fill="midnightblue" stroke="midnightblue" points="1534.02,-32.44 1541.65,-25.09 1531.1,-26.07 1534.02,-32.44"/>
</g>
<!-- Node74&#45;&gt;Node4 -->
<g id="edge64" class="edge">
<title>Node74&#45;&gt;Node4</title>
<path fill="none" stroke="midnightblue" d="M954.57,-352.96C939,-315.09 871.49,-160.01 774,-67 757,-50.78 733.8,-37.93 715.21,-29.25"/>
<polygon fill="midnightblue" stroke="midnightblue" points="716.53,-26 705.97,-25.09 713.66,-32.38 716.53,-26"/>
</g>
<!-- Node74&#45;&gt;Node6 -->
<g id="edge66" class="edge">
<title>Node74&#45;&gt;Node6</title>
<path fill="none" stroke="midnightblue" d="M973.26,-352.97C988.05,-344.07 1010.35,-328.93 1025,-311 1066.13,-260.66 1034.3,-215.63 1088,-179 1134.04,-147.6 1506.31,-137.65 1653.97,-134.92"/>
<polygon fill="midnightblue" stroke="midnightblue" points="1654.27,-138.41 1664.21,-134.73 1654.15,-131.41 1654.27,-138.41"/>
</g>
<!-- Node74&#45;&gt;Node19 -->
<g id="edge65" class="edge">
<title>Node74&#45;&gt;Node19</title>
<path fill="none" stroke="midnightblue" d="M989.81,-352.98C1030.54,-342.06 1100.97,-323.18 1143.74,-311.72"/>
<polygon fill="midnightblue" stroke="midnightblue" points="1144.71,-315.08 1153.46,-309.11 1142.9,-308.32 1144.71,-315.08"/>
</g>
<!-- Node74&#45;&gt;Node20 -->
<g id="edge67" class="edge">
<title>Node74&#45;&gt;Node20</title>
<path fill="none" stroke="midnightblue" d="M1004.3,-359.31C1195.56,-350.27 1924.56,-315.82 2150.1,-305.16"/>
<polygon fill="midnightblue" stroke="midnightblue" points="2150.31,-308.66 2160.14,-304.69 2149.98,-301.66 2150.31,-308.66"/>
</g>
<!-- Node76&#45;&gt;Node3 -->
<g id="edge69" class="edge">
<title>Node76&#45;&gt;Node3</title>
<path fill="none" stroke="midnightblue" d="M1452.66,-481.41C1451.87,-460.98 1450,-407.88 1450,-363.5 1450,-363.5 1450,-363.5 1450,-188 1450,-157.2 1458.79,-149.78 1474,-123 1494.01,-87.76 1525.52,-52.22 1544.33,-32.41"/>
<polygon fill="midnightblue" stroke="midnightblue" points="1546.9,-34.79 1551.32,-25.16 1541.86,-29.93 1546.9,-34.79"/>
</g>
<!-- Node76&#45;&gt;Node4 -->
<g id="edge70" class="edge">
<title>Node76&#45;&gt;Node4</title>
<path fill="none" stroke="midnightblue" d="M1371.44,-481.47C1237.32,-466.13 977.6,-430.53 903,-378 886.42,-366.32 735.09,-105.1 694.16,-34.15"/>
<polygon fill="midnightblue" stroke="midnightblue" points="696.98,-32.03 688.95,-25.11 690.92,-35.52 696.98,-32.03"/>
</g>
<!-- Node76&#45;&gt;Node6 -->
<g id="edge71" class="edge">
<title>Node76&#45;&gt;Node6</title>
<path fill="none" stroke="midnightblue" d="M1457.68,-481.21C1471.29,-455.46 1511.7,-377.82 1540,-311 1564.34,-253.52 1543.73,-223.01 1588,-179 1605.87,-161.23 1631.23,-150.44 1654.51,-143.9"/>
<polygon fill="midnightblue" stroke="midnightblue" points="1655.54,-147.25 1664.34,-141.36 1653.78,-140.48 1655.54,-147.25"/>
</g>
<!-- Node76&#45;&gt;Node30 -->
<g id="edge72" class="edge">
<title>Node76&#45;&gt;Node30</title>
<path fill="none" stroke="midnightblue" d="M1449.59,-481.43C1446.04,-472.41 1440.41,-457.79 1436,-445 1412.66,-377.22 1412,-358.56 1388,-291 1384.79,-281.97 1380.87,-272.07 1377.52,-263.85"/>
<polygon fill="midnightblue" stroke="midnightblue" points="1380.72,-262.44 1373.65,-254.55 1374.25,-265.13 1380.72,-262.44"/>
</g>
<!-- Node76&#45;&gt;Node59 -->
<g id="edge73" class="edge">
<title>Node76&#45;&gt;Node59</title>
<path fill="none" stroke="midnightblue" d="M1370.17,-483.8C1213.07,-472.04 874.47,-446.7 727.94,-435.73"/>
<polygon fill="midnightblue" stroke="midnightblue" points="727.96,-432.23 717.73,-434.97 727.44,-439.21 727.96,-432.23"/>
</g>
<!-- Node83&#45;&gt;Node3 -->
<g id="edge78" class="edge">
<title>Node83&#45;&gt;Node3</title>
<path fill="none" stroke="midnightblue" d="M915.69,-743.84C822.73,-734.81 620.99,-700.17 540,-568 511.06,-520.78 348.11,-773.71 556,-291 569.43,-259.81 580.58,-255.04 608,-235 643.39,-209.13 922.66,-78.37 965,-67 1072.69,-38.09 1419.51,-22.11 1527.56,-17.74"/>
<polygon fill="midnightblue" stroke="midnightblue" points="1527.97,-21.23 1537.82,-17.33 1527.69,-14.23 1527.97,-21.23"/>
</g>
<!-- Node83&#45;&gt;Node4 -->
<g id="edge79" class="edge">
<title>Node83&#45;&gt;Node4</title>
<path fill="none" stroke="midnightblue" d="M915.65,-745.31C821.97,-741.44 619.39,-730.02 556,-702 374.81,-621.91 266,-561.61 266,-363.5 266,-363.5 266,-363.5 266,-132 266,-54.12 539.02,-26.68 643.76,-19.02"/>
<polygon fill="midnightblue" stroke="midnightblue" points="644.21,-22.5 653.94,-18.3 643.72,-15.52 644.21,-22.5"/>
</g>
<!-- Node83&#45;&gt;Node6 -->
<g id="edge82" class="edge">
<title>Node83&#45;&gt;Node6</title>
<path fill="none" stroke="midnightblue" d="M1012.34,-739.27C1057.45,-731.57 1126.39,-718.51 1185,-702 1406.43,-639.62 1504.57,-668.75 1662,-501 1706.93,-453.13 1716,-429.15 1716,-363.5 1716,-363.5 1716,-363.5 1716,-244 1716,-211.94 1715.14,-174.64 1714.55,-152.75"/>
<polygon fill="midnightblue" stroke="midnightblue" points="1718.04,-152.45 1714.26,-142.56 1711.04,-152.65 1718.04,-152.45"/>
</g>
<!-- Node83&#45;&gt;Node8 -->
<g id="edge80" class="edge">
<title>Node83&#45;&gt;Node8</title>
<path fill="none" stroke="midnightblue" d="M915.62,-744.69C810.66,-739.33 565.05,-724.71 485,-702 355.74,-665.33 328.23,-638.75 214,-568 166.54,-538.61 114,-547.82 114,-492 114,-492 114,-492 114,-428.5 114,-345.65 76,-328.85 76,-246 76,-246 76,-246 76,-188 76,-133.17 63.21,-107.65 100,-67 132.52,-31.07 189.72,-20.36 227.74,-17.35"/>
<polygon fill="midnightblue" stroke="midnightblue" points="228.17,-20.83 237.92,-16.7 227.72,-13.85 228.17,-20.83"/>
</g>
<!-- Node83&#45;&gt;Node19 -->
<g id="edge81" class="edge">
<title>Node83&#45;&gt;Node19</title>
<path fill="none" stroke="midnightblue" d="M1012.21,-738.62C1066.44,-726.34 1152.02,-697.7 1191,-635 1223.85,-582.16 1193.73,-383 1183.27,-320.73"/>
<polygon fill="midnightblue" stroke="midnightblue" points="1186.7,-320.03 1181.56,-310.76 1179.8,-321.21 1186.7,-320.03"/>
</g>
<!-- Node83&#45;&gt;Node30 -->
<g id="edge89" class="edge">
<title>Node83&#45;&gt;Node30</title>
<path fill="none" stroke="midnightblue" d="M1012.22,-743.55C1052.12,-738.88 1109.01,-727.88 1152,-702 1185.99,-681.54 1190.09,-668.72 1211,-635 1292.64,-503.33 1348.24,-322.45 1364.83,-264.59"/>
<polygon fill="midnightblue" stroke="midnightblue" points="1368.27,-265.29 1367.62,-254.71 1361.53,-263.38 1368.27,-265.29"/>
</g>
<!-- Node83&#45;&gt;Node58 -->
<g id="edge90" class="edge">
<title>Node83&#45;&gt;Node58</title>
<path fill="none" stroke="midnightblue" d="M966.61,-738.44C975.16,-710.39 1002.52,-620.65 1015.73,-577.34"/>
<polygon fill="midnightblue" stroke="midnightblue" points="1019.12,-578.22 1018.69,-567.63 1012.43,-576.17 1019.12,-578.22"/>
</g>
<!-- Node83&#45;&gt;Node87 -->
<g id="edge83" class="edge">
<title>Node83&#45;&gt;Node87</title>
<path fill="none" stroke="midnightblue" d="M915.78,-745.61C883.56,-741.86 843.31,-731.11 822,-702 745.16,-597.05 944.02,-523.61 874,-414 863.29,-397.24 845.43,-385.96 827.24,-378.4"/>
<polygon fill="midnightblue" stroke="midnightblue" points="828.32,-375.06 817.73,-374.77 825.83,-381.6 828.32,-375.06"/>
</g>
<!-- Node83&#45;&gt;Node99 -->
<g id="edge91" class="edge">
<title>Node83&#45;&gt;Node99</title>
<path fill="none" stroke="midnightblue" d="M953.97,-738.48C944.67,-730.57 930.45,-718.48 918.2,-708.07"/>
<polygon fill="midnightblue" stroke="midnightblue" points="920.38,-705.33 910.5,-701.52 915.85,-710.67 920.38,-705.33"/>
</g>
<!-- Node87&#45;&gt;Node3 -->
<g id="edge84" class="edge">
<title>Node87&#45;&gt;Node3</title>
<path fill="none" stroke="midnightblue" d="M781.36,-347.43C804.97,-327.09 849.94,-288.29 888,-255 926.39,-221.42 929.95,-204.72 974,-179 1016.24,-154.34 1032.74,-161.54 1078,-143 1097.13,-135.16 1100.33,-129.37 1120,-123 1204.26,-95.73 1229.79,-107.32 1316,-87 1356.81,-77.38 1471.63,-43.15 1527.98,-26.18"/>
<polygon fill="midnightblue" stroke="midnightblue" points="1529.23,-29.46 1537.8,-23.22 1527.21,-22.76 1529.23,-29.46"/>
</g>
<!-- Node87&#45;&gt;Node4 -->
<g id="edge85" class="edge">
<title>Node87&#45;&gt;Node4</title>
<path fill="none" stroke="midnightblue" d="M761.62,-347.12C748.74,-292.25 702.7,-96.15 688.32,-34.91"/>
<polygon fill="midnightblue" stroke="midnightblue" points="691.71,-34.04 686.02,-25.11 684.9,-35.64 691.71,-34.04"/>
</g>
<!-- Node87&#45;&gt;Node6 -->
<g id="edge88" class="edge">
<title>Node87&#45;&gt;Node6</title>
<path fill="none" stroke="midnightblue" d="M802.58,-347.44C824.11,-338.55 851.11,-325.93 873,-311 943.39,-263 933.93,-213.1 1012,-179 1070.08,-153.63 1495.48,-139.82 1654.36,-135.5"/>
<polygon fill="midnightblue" stroke="midnightblue" points="1654.54,-139 1664.44,-135.23 1654.35,-132 1654.54,-139"/>
</g>
<!-- Node87&#45;&gt;Node8 -->
<g id="edge86" class="edge">
<title>Node87&#45;&gt;Node8</title>
<path fill="none" stroke="midnightblue" d="M744.51,-347.33C663.81,-291.54 368.37,-87.28 286.92,-30.96"/>
<polygon fill="midnightblue" stroke="midnightblue" points="288.69,-27.93 278.48,-25.13 284.71,-33.69 288.69,-27.93"/>
</g>
<!-- Node87&#45;&gt;Node19 -->
<g id="edge87" class="edge">
<title>Node87&#45;&gt;Node19</title>
<path fill="none" stroke="midnightblue" d="M817.56,-353.96C902.79,-341.74 1069.05,-317.91 1143,-307.3"/>
<polygon fill="midnightblue" stroke="midnightblue" points="1143.82,-310.72 1153.22,-305.84 1142.83,-303.79 1143.82,-310.72"/>
</g>
<!-- Node99&#45;&gt;Node6 -->
<g id="edge92" class="edge">
<title>Node99&#45;&gt;Node6</title>
<path fill="none" stroke="midnightblue" d="M957.16,-678.75C1143.51,-657.08 1678,-581.77 1678,-430.5 1678,-430.5 1678,-430.5 1678,-244 1678,-209.98 1693.74,-172.85 1704.41,-151.6"/>
<polygon fill="midnightblue" stroke="midnightblue" points="1707.62,-153.01 1709.14,-142.53 1701.41,-149.77 1707.62,-153.01"/>
</g>
<!-- Node99&#45;&gt;Node30 -->
<g id="edge93" class="edge">
<title>Node99&#45;&gt;Node30</title>
<path fill="none" stroke="midnightblue" d="M897.94,-671.46C915.26,-612.7 990.64,-385.25 1144,-291 1193.7,-260.46 1260.09,-250.11 1308.05,-246.86"/>
<polygon fill="midnightblue" stroke="midnightblue" points="1308.52,-250.34 1318.29,-246.25 1308.1,-243.35 1308.52,-250.34"/>
</g>
<!-- Node99&#45;&gt;Node57 -->
<g id="edge95" class="edge">
<title>Node99&#45;&gt;Node57</title>
<path fill="none" stroke="midnightblue" d="M942.11,-671.48C982.78,-659.62 1040.29,-642.86 1078.1,-631.84"/>
<polygon fill="midnightblue" stroke="midnightblue" points="1079.12,-635.19 1087.74,-629.03 1077.16,-628.47 1079.12,-635.19"/>
</g>
<!-- Node99&#45;&gt;Node59 -->
<g id="edge94" class="edge">
<title>Node99&#45;&gt;Node59</title>
<path fill="none" stroke="midnightblue" d="M863.52,-671.34C812.09,-645.62 709.28,-585.92 664,-501 655.53,-485.11 654.79,-464.29 655.71,-449.41"/>
<polygon fill="midnightblue" stroke="midnightblue" points="659.2,-449.64 656.63,-439.36 652.23,-449 659.2,-449.64"/>
</g>
<!-- Node110&#45;&gt;Node6 -->
<g id="edge97" class="edge">
<title>Node110&#45;&gt;Node6</title>
<path fill="none" stroke="midnightblue" d="M1907.55,-414.39C1893.31,-391.73 1868,-345.34 1868,-302 1868,-302 1868,-302 1868,-244 1868,-213.2 1866,-200.55 1844,-179 1825.03,-160.42 1798.02,-149.49 1773.53,-143.07"/>
<polygon fill="midnightblue" stroke="midnightblue" points="1774.12,-139.61 1763.58,-140.66 1772.47,-146.41 1774.12,-139.61"/>
</g>
<!-- Node110&#45;&gt;Node111 -->
<g id="edge98" class="edge">
<title>Node110&#45;&gt;Node111</title>
<path fill="none" stroke="midnightblue" d="M1940.22,-414.4C1955.36,-405.2 1975.33,-393.07 1991.97,-382.95"/>
<polygon fill="midnightblue" stroke="midnightblue" points="1994.1,-385.76 2000.83,-377.58 1990.46,-379.78 1994.1,-385.76"/>
</g>
<!-- Node111&#45;&gt;Node5 -->
<g id="edge99" class="edge">
<title>Node111&#45;&gt;Node5</title>
<path fill="none" stroke="midnightblue" d="M2014.07,-347.34C1999.14,-326.05 1970.97,-285.89 1954.95,-263.03"/>
<polygon fill="midnightblue" stroke="midnightblue" points="1957.69,-260.85 1949.08,-254.67 1951.96,-264.87 1957.69,-260.85"/>
</g>
<!-- Node111&#45;&gt;Node6 -->
<g id="edge100" class="edge">
<title>Node111&#45;&gt;Node6</title>
<path fill="none" stroke="midnightblue" d="M2024.93,-347.31C2025.82,-322.01 2024.18,-268.6 1998,-235 1968.63,-197.3 1836.59,-161.98 1763.34,-144.84"/>
<polygon fill="midnightblue" stroke="midnightblue" points="1763.94,-141.38 1753.41,-142.54 1762.37,-148.2 1763.94,-141.38"/>
</g>
<!-- Node111&#45;&gt;Node20 -->
<g id="edge101" class="edge">
<title>Node111&#45;&gt;Node20</title>
<path fill="none" stroke="midnightblue" d="M2069.74,-347.4C2103.23,-337.07 2148.13,-323.23 2179.52,-313.56"/>
<polygon fill="midnightblue" stroke="midnightblue" points="2180.67,-316.86 2189.2,-310.57 2178.61,-310.17 2180.67,-316.86"/>
</g>
<!-- Node112&#45;&gt;Node57 -->
<g id="edge103" class="edge">
<title>Node112&#45;&gt;Node57</title>
<path fill="none" stroke="midnightblue" d="M1663.38,-738.41C1601.84,-724.04 1473.73,-694.4 1365,-671 1298.09,-656.6 1220.79,-641.03 1170.51,-631.04"/>
<polygon fill="midnightblue" stroke="midnightblue" points="1171.01,-627.57 1160.52,-629.06 1169.64,-634.44 1171.01,-627.57"/>
</g>
<!-- Node125 -->
<g id="node32" class="node">
<title>Node125</title>
<g id="a_node32"><a xlink:href="../../db/d71/kratos__parameters_8h.html" target="_top" xlink:title=" ">
<polygon fill="none" stroke="black" points="2181.5,-677 2181.5,-696 2342.5,-696 2342.5,-677 2181.5,-677"/>
<text text-anchor="middle" x="2262" y="-684" font-family="Helvetica,sans-Serif" font-size="10.00">includes/kratos_parameters.h</text>
</a>
</g>
</g>
<!-- Node112&#45;&gt;Node125 -->
<g id="edge104" class="edge">
<title>Node112&#45;&gt;Node125</title>
<path fill="none" stroke="midnightblue" d="M1755.17,-741.16C1852.04,-730.9 2053.6,-709.56 2171.25,-697.11"/>
<polygon fill="midnightblue" stroke="midnightblue" points="2171.75,-700.58 2181.32,-696.04 2171.01,-693.61 2171.75,-700.58"/>
</g>
<!-- Node125&#45;&gt;Node20 -->
<g id="edge107" class="edge">
<title>Node125&#45;&gt;Node20</title>
<path fill="none" stroke="midnightblue" d="M2265.22,-676.71C2268.68,-666.76 2273.96,-649.96 2276,-635 2277.86,-621.35 2277.33,-617.71 2276,-604 2265.47,-495.21 2234.09,-367.41 2221.91,-320.48"/>
<polygon fill="midnightblue" stroke="midnightblue" points="2225.29,-319.59 2219.37,-310.8 2218.52,-321.36 2225.29,-319.59"/>
</g>
<!-- Node125&#45;&gt;Node35 -->
<g id="edge108" class="edge">
<title>Node125&#45;&gt;Node35</title>
<path fill="none" stroke="midnightblue" d="M2268.69,-676.77C2275.65,-667.13 2286.21,-650.87 2291,-635 2338.92,-476.24 2326.95,-271.62 2321.77,-209.02"/>
<polygon fill="midnightblue" stroke="midnightblue" points="2325.23,-208.4 2320.87,-198.74 2318.25,-209.01 2325.23,-208.4"/>
</g>
<!-- Node126 -->
<g id="node33" class="node">
<title>Node126</title>
<g id="a_node33"><a xlink:title=" ">
<polygon fill="none" stroke="#bfbfbf" points="2077,-610 2077,-629 2145,-629 2145,-610 2077,-610"/>
<text text-anchor="middle" x="2111" y="-617" font-family="Helvetica,sans-Serif" font-size="10.00">filesystem</text>
</a>
</g>
</g>
<!-- Node125&#45;&gt;Node126 -->
<g id="edge105" class="edge">
<title>Node125&#45;&gt;Node126</title>
<path fill="none" stroke="midnightblue" d="M2241.95,-676.87C2216,-665.7 2170.58,-646.15 2140.64,-633.26"/>
<polygon fill="midnightblue" stroke="midnightblue" points="2141.7,-629.91 2131.13,-629.17 2138.94,-636.34 2141.7,-629.91"/>
</g>
<!-- Node127 -->
<g id="node34" class="node">
<title>Node127</title>
<g id="a_node34"><a xlink:title=" ">
<polygon fill="none" stroke="#bfbfbf" points="2163,-610 2163,-629 2267,-629 2267,-610 2163,-610"/>
<text text-anchor="middle" x="2215" y="-617" font-family="Helvetica,sans-Serif" font-size="10.00">json/json_fwd.hpp</text>
</a>
</g>
</g>
<!-- Node125&#45;&gt;Node127 -->
<g id="edge106" class="edge">
<title>Node125&#45;&gt;Node127</title>
<path fill="none" stroke="midnightblue" d="M2255.66,-676.73C2248.4,-666.7 2236.34,-650.01 2227.24,-637.42"/>
<polygon fill="midnightblue" stroke="midnightblue" points="2229.93,-635.18 2221.24,-629.13 2224.26,-639.28 2229.93,-635.18"/>
</g>
<!-- Node129&#45;&gt;Node57 -->
<g id="edge110" class="edge">
<title>Node129&#45;&gt;Node57</title>
<path fill="none" stroke="midnightblue" d="M1539.22,-738.4C1459.55,-716.16 1246.58,-656.69 1157.28,-631.75"/>
<polygon fill="midnightblue" stroke="midnightblue" points="1158.1,-628.34 1147.52,-629.02 1156.21,-635.08 1158.1,-628.34"/>
</g>
<!-- Node129&#45;&gt;Node125 -->
<g id="edge111" class="edge">
<title>Node129&#45;&gt;Node125</title>
<path fill="none" stroke="midnightblue" d="M1627.21,-739C1630.18,-738.65 1633.13,-738.31 1636,-738 1826.05,-717.39 2049.39,-701.33 2171.29,-693.25"/>
<polygon fill="midnightblue" stroke="midnightblue" points="2171.58,-696.73 2181.33,-692.58 2171.12,-689.75 2171.58,-696.73"/>
</g>
<!-- Node130&#45;&gt;Node3 -->
<g id="edge113" class="edge">
<title>Node130&#45;&gt;Node3</title>
<path fill="none" stroke="midnightblue" d="M1548.6,-806.58C1715.93,-801.56 2137.09,-786.44 2275,-758 2354.51,-741.6 2553.89,-683.5 2619,-635 2643.6,-616.67 2946,-220.68 2946,-190 2946,-190 2946,-190 2946,-132 2946,-122.83 3026.43,-114.8 2740,-67 2249.63,14.83 2114.89,-95.92 1622,-31 1612.18,-29.71 1601.64,-27.54 1592.09,-25.28"/>
<polygon fill="midnightblue" stroke="midnightblue" points="1592.74,-21.83 1582.19,-22.81 1591.05,-28.62 1592.74,-21.83"/>
</g>
<!-- Node130&#45;&gt;Node4 -->
<g id="edge114" class="edge">
<title>Node130&#45;&gt;Node4</title>
<path fill="none" stroke="midnightblue" d="M1409.28,-808.68C1209.62,-808.03 640.13,-797.63 485,-702 388.88,-642.74 342,-604.92 342,-492 342,-492 342,-492 342,-300 342,-189.46 342.58,-135.92 429,-67 461.67,-40.94 580.52,-26.16 643.76,-19.97"/>
<polygon fill="midnightblue" stroke="midnightblue" points="644.16,-23.45 653.78,-19.02 643.5,-16.48 644.16,-23.45"/>
</g>
<!-- Node130&#45;&gt;Node6 -->
<g id="edge117" class="edge">
<title>Node130&#45;&gt;Node6</title>
<path fill="none" stroke="midnightblue" d="M1480.2,-799.8C1482.56,-785.54 1488.92,-756.87 1504,-738 1592.27,-627.5 1695.77,-686.48 1773,-568 1788.51,-544.21 1792,-406.65 1792,-363.5 1792,-363.5 1792,-363.5 1792,-244 1792,-203.97 1757.2,-168.34 1734.09,-149.09"/>
<polygon fill="midnightblue" stroke="midnightblue" points="1736.18,-146.28 1726.19,-142.76 1731.8,-151.74 1736.18,-146.28"/>
</g>
<!-- Node130&#45;&gt;Node8 -->
<g id="edge115" class="edge">
<title>Node130&#45;&gt;Node8</title>
<path fill="none" stroke="midnightblue" d="M1409.21,-807.58C1225.39,-804.68 731.18,-793.69 572,-758 507.41,-743.52 489.44,-738.17 434,-702 318.47,-626.63 152,-401.3 152,-363.5 152,-363.5 152,-363.5 152,-300 152,-196.26 79.64,-152.77 138,-67 157.96,-37.67 197.83,-25.38 227.8,-20.22"/>
<polygon fill="midnightblue" stroke="midnightblue" points="228.57,-23.64 237.93,-18.68 227.52,-16.72 228.57,-23.64"/>
</g>
<!-- Node130&#45;&gt;Node19 -->
<g id="edge116" class="edge">
<title>Node130&#45;&gt;Node19</title>
<path fill="none" stroke="midnightblue" d="M1475.51,-799.68C1451.42,-738.91 1309.75,-383.78 1274,-347 1258.21,-330.76 1235.39,-319.64 1216.19,-312.52"/>
<polygon fill="midnightblue" stroke="midnightblue" points="1217.12,-309.14 1206.53,-309.15 1214.82,-315.75 1217.12,-309.14"/>
</g>
<!-- Node130&#45;&gt;Node83 -->
<g id="edge120" class="edge">
<title>Node130&#45;&gt;Node83</title>
<path fill="none" stroke="midnightblue" d="M1409.28,-800.44C1306.8,-788.61 1117.39,-766.72 1022.04,-755.71"/>
<polygon fill="midnightblue" stroke="midnightblue" points="1022.34,-752.22 1012,-754.55 1021.53,-759.17 1022.34,-752.22"/>
</g>
<!-- Node130&#45;&gt;Node112 -->
<g id="edge119" class="edge">
<title>Node130&#45;&gt;Node112</title>
<path fill="none" stroke="midnightblue" d="M1510.66,-799.98C1549.56,-789.5 1615.64,-771.71 1658.55,-760.16"/>
<polygon fill="midnightblue" stroke="midnightblue" points="1659.65,-763.49 1668.39,-757.51 1657.83,-756.73 1659.65,-763.49"/>
</g>
<!-- Node130&#45;&gt;Node129 -->
<g id="edge118" class="edge">
<title>Node130&#45;&gt;Node129</title>
<path fill="none" stroke="midnightblue" d="M1492.04,-799.98C1506.77,-790.34 1530.97,-774.52 1548.51,-763.05"/>
<polygon fill="midnightblue" stroke="midnightblue" points="1550.53,-765.91 1556.99,-757.51 1546.7,-760.05 1550.53,-765.91"/>
</g>
<!-- Node114&#45;&gt;Node3 -->
<g id="edge122" class="edge">
<title>Node114&#45;&gt;Node3</title>
<path fill="none" stroke="midnightblue" d="M770.71,-481.26C769.82,-466.27 766.25,-435.23 752,-414 736.94,-391.56 715.2,-402.11 703,-378 696.78,-365.71 696.65,-359.23 703,-347 762.85,-231.78 828.16,-241.44 942,-179 1094.14,-95.56 1146.58,-104.46 1316,-67 1391.79,-50.24 1481.2,-32.17 1527.91,-22.85"/>
<polygon fill="midnightblue" stroke="midnightblue" points="1528.63,-26.28 1537.75,-20.9 1527.26,-19.41 1528.63,-26.28"/>
</g>
<!-- Node114&#45;&gt;Node4 -->
<g id="edge123" class="edge">
<title>Node114&#45;&gt;Node4</title>
<path fill="none" stroke="midnightblue" d="M767.4,-481.16C760.9,-466.01 746.01,-434.76 726,-414 705.47,-392.7 684.18,-403.97 670,-378 606.23,-261.2 657.61,-90.11 677.21,-34.61"/>
<polygon fill="midnightblue" stroke="midnightblue" points="680.54,-35.69 680.67,-25.1 673.96,-33.3 680.54,-35.69"/>
</g>
<!-- Node114&#45;&gt;Node6 -->
<g id="edge125" class="edge">
<title>Node114&#45;&gt;Node6</title>
<path fill="none" stroke="midnightblue" d="M795.57,-481.37C840.72,-464.94 939.02,-426.44 1013,-378 1061.73,-346.09 1060.05,-319.23 1111,-291 1265.38,-205.46 1320.69,-221.46 1492,-179 1547.18,-165.32 1610.84,-152.74 1655.8,-144.38"/>
<polygon fill="midnightblue" stroke="midnightblue" points="1656.47,-147.82 1665.66,-142.56 1655.19,-140.93 1656.47,-147.82"/>
</g>
<!-- Node114&#45;&gt;Node26 -->
<g id="edge124" class="edge">
<title>Node114&#45;&gt;Node26</title>
<path fill="none" stroke="midnightblue" d="M818.06,-488.99C1027.37,-484.41 1868.64,-464.89 1985,-445 2265.32,-397.09 2338.03,-374.69 2596,-255 2626.39,-240.9 2658.52,-219.12 2678.42,-204.72"/>
<polygon fill="midnightblue" stroke="midnightblue" points="2680.66,-207.41 2686.65,-198.67 2676.52,-201.77 2680.66,-207.41"/>
</g>
<!-- Node114&#45;&gt;Node59 -->
<g id="edge126" class="edge">
<title>Node114&#45;&gt;Node59</title>
<path fill="none" stroke="midnightblue" d="M754.81,-481.48C736.1,-471.62 705.08,-455.29 683.2,-443.77"/>
<polygon fill="midnightblue" stroke="midnightblue" points="684.64,-440.57 674.16,-439.01 681.38,-446.77 684.64,-440.57"/>
</g>
<!-- Node109&#45;&gt;Node6 -->
<g id="edge131" class="edge">
<title>Node109&#45;&gt;Node6</title>
<path fill="none" stroke="midnightblue" d="M1719.9,-542.99C1736.16,-534.84 1758.02,-520.84 1768,-501 1771.99,-493.06 1768.53,-489.87 1768,-481 1764.88,-428.5 1754,-416.09 1754,-363.5 1754,-363.5 1754,-363.5 1754,-244 1754,-209.62 1736.53,-172.63 1724.68,-151.5"/>
<polygon fill="midnightblue" stroke="midnightblue" points="1727.62,-149.61 1719.56,-142.73 1721.58,-153.13 1727.62,-149.61"/>
</g>
<!-- Node109&#45;&gt;Node30 -->
<g id="edge132" class="edge">
<title>Node109&#45;&gt;Node30</title>
<path fill="none" stroke="midnightblue" d="M1635.7,-542.99C1538.64,-530 1365.47,-506.18 1361,-501 1345.71,-483.26 1361.82,-320.84 1367.89,-264.86"/>
<polygon fill="midnightblue" stroke="midnightblue" points="1371.4,-264.94 1369.02,-254.62 1364.44,-264.18 1371.4,-264.94"/>
</g>
<!-- Node109&#45;&gt;Node76 -->
<g id="edge133" class="edge">
<title>Node109&#45;&gt;Node76</title>
<path fill="none" stroke="midnightblue" d="M1664.61,-542.98C1620.77,-532.42 1546.03,-514.41 1498.12,-502.87"/>
<polygon fill="midnightblue" stroke="midnightblue" points="1498.87,-499.45 1488.32,-500.51 1497.23,-506.25 1498.87,-499.45"/>
</g>
<!-- Node131&#45;&gt;Node3 -->
<g id="edge140" class="edge">
<title>Node131&#45;&gt;Node3</title>
<path fill="none" stroke="midnightblue" d="M2782.61,-1012.77C2934.66,-1005.99 3283,-979.36 3283,-877.5 3283,-877.5 3283,-877.5 3283,-132 3283,20.97 3097.07,-83.58 2945,-67 2360.25,-3.25 2205.37,-106.36 1622,-31 1612.18,-29.73 1601.64,-27.57 1592.08,-25.31"/>
<polygon fill="midnightblue" stroke="midnightblue" points="1592.73,-21.86 1582.18,-22.84 1591.04,-28.65 1592.73,-21.86"/>
</g>
<!-- Node131&#45;&gt;Node6 -->
<g id="edge142" class="edge">
<title>Node131&#45;&gt;Node6</title>
<path fill="none" stroke="midnightblue" d="M2723.73,-1006.2C2733.07,-997.89 2746.15,-984.57 2753,-970 2767.93,-938.26 2760.9,-926.83 2765,-892 2799.22,-601.23 2999.09,-461.03 2813,-235 2760.04,-170.67 2710.36,-216.99 2629,-199 2592.79,-190.99 2584.68,-184.47 2548,-179 2472.16,-167.69 1952.2,-144.35 1773.87,-136.58"/>
<polygon fill="midnightblue" stroke="midnightblue" points="1773.77,-133.07 1763.63,-136.13 1773.47,-140.06 1773.77,-133.07"/>
</g>
<!-- Node131&#45;&gt;Node24 -->
<g id="edge139" class="edge">
<title>Node131&#45;&gt;Node24</title>
<path fill="none" stroke="midnightblue" d="M2717.21,-1006.22C2727.11,-984.78 2751,-927.78 2751,-877.5 2751,-877.5 2751,-877.5 2751,-808.5 2751,-660.21 2562.73,-747.4 2466,-635 2421.04,-582.76 2406,-560.92 2406,-492 2406,-492 2406,-492 2406,-361.5 2406,-307.4 2343.2,-274.18 2301.13,-257.99"/>
<polygon fill="midnightblue" stroke="midnightblue" points="2302.31,-254.69 2291.72,-254.51 2299.89,-261.26 2302.31,-254.69"/>
</g>
<!-- Node131&#45;&gt;Node25 -->
<g id="edge141" class="edge">
<title>Node131&#45;&gt;Node25</title>
<path fill="none" stroke="midnightblue" d="M2742.33,-1006.44C2761.79,-999.43 2786.67,-987.74 2803,-970 2803.83,-969.1 3040.88,-376.33 3085.73,-264.19"/>
<polygon fill="midnightblue" stroke="midnightblue" points="3089.09,-265.21 3089.55,-254.62 3082.59,-262.61 3089.09,-265.21"/>
</g>
<!-- Node131&#45;&gt;Node30 -->
<g id="edge148" class="edge">
<title>Node131&#45;&gt;Node30</title>
<path fill="none" stroke="midnightblue" d="M2677.13,-1006.44C2645.72,-998.47 2599.12,-985.52 2560,-970 2366.38,-893.18 2321.99,-862.85 2142,-758 1832.63,-577.78 1477.52,-323.81 1390.17,-260.65"/>
<polygon fill="midnightblue" stroke="midnightblue" points="1392.07,-257.7 1381.92,-254.67 1387.97,-263.37 1392.07,-257.7"/>
</g>
<!-- Node131&#45;&gt;Node126 -->
<g id="edge138" class="edge">
<title>Node131&#45;&gt;Node126</title>
<path fill="none" stroke="midnightblue" d="M2709.2,-1006.26C2701.42,-989.24 2682.18,-951.27 2656,-928 2514.58,-802.28 2449.33,-811.59 2275,-738 2230.32,-719.14 2211.12,-730.66 2172,-702 2148.78,-684.99 2130.42,-656.64 2120.13,-638.27"/>
<polygon fill="midnightblue" stroke="midnightblue" points="2123.08,-636.37 2115.27,-629.22 2116.92,-639.68 2123.08,-636.37"/>
</g>
<!-- Node132 -->
<g id="node40" class="node">
<title>Node132</title>
<g id="a_node40"><a xlink:href="../../dc/dac/io_8h.html" target="_top" xlink:title=" ">
<polygon fill="none" stroke="black" points="2569,-939.5 2569,-958.5 2647,-958.5 2647,-939.5 2569,-939.5"/>
<text text-anchor="middle" x="2608" y="-946.5" font-family="Helvetica,sans-Serif" font-size="10.00">includes/io.h</text>
</a>
</g>
</g>
<!-- Node131&#45;&gt;Node132 -->
<g id="edge143" class="edge">
<title>Node131&#45;&gt;Node132</title>
<path fill="none" stroke="midnightblue" d="M2698.84,-1006.23C2681.29,-995.37 2651.16,-976.72 2630.44,-963.89"/>
<polygon fill="midnightblue" stroke="midnightblue" points="2632.28,-960.91 2621.94,-958.63 2628.6,-966.87 2632.28,-960.91"/>
</g>
<!-- Node132&#45;&gt;Node3 -->
<g id="edge144" class="edge">
<title>Node132&#45;&gt;Node3</title>
<path fill="none" stroke="midnightblue" d="M2612.14,-939.29C2619.66,-923.55 2636.16,-889.36 2651,-861 2670.75,-823.26 3022,-232.6 3022,-190 3022,-190 3022,-190 3022,-132 3022,-54.83 2936.53,-82.81 2861,-67 2591.4,-10.56 1895.15,-66.54 1622,-31 1612.18,-29.72 1601.64,-27.56 1592.08,-25.3"/>
<polygon fill="midnightblue" stroke="midnightblue" points="1592.74,-21.85 1582.19,-22.83 1591.04,-28.64 1592.74,-21.85"/>
</g>
<!-- Node132&#45;&gt;Node4 -->
<g id="edge145" class="edge">
<title>Node132&#45;&gt;Node4</title>
<path fill="none" stroke="midnightblue" d="M2568.63,-944.39C2519.4,-939.98 2432.53,-932.55 2358,-928 2239.47,-920.76 304.75,-911.13 223,-825 198.71,-799.41 228,-225.28 228,-190 228,-190 228,-190 228,-132 228,-86.87 264.68,-85.14 306,-67 366.01,-40.65 559.3,-24.85 643.81,-19.04"/>
<polygon fill="midnightblue" stroke="midnightblue" points="644.06,-22.54 653.8,-18.37 643.59,-15.55 644.06,-22.54"/>
</g>
<!-- Node132&#45;&gt;Node18 -->
<g id="edge147" class="edge">
<title>Node132&#45;&gt;Node18</title>
<path fill="none" stroke="midnightblue" d="M2568.61,-944.66C2519.37,-940.53 2432.48,-933.39 2358,-928 2097.38,-909.15 1787.58,-890.12 1649.57,-881.82"/>
<polygon fill="midnightblue" stroke="midnightblue" points="1649.73,-878.32 1639.54,-881.22 1649.31,-885.31 1649.73,-878.32"/>
</g>
<!-- Node132&#45;&gt;Node25 -->
<g id="edge146" class="edge">
<title>Node132&#45;&gt;Node25</title>
<path fill="none" stroke="midnightblue" d="M2615.02,-939.5C2623.8,-928.71 2639.13,-909.42 2651,-892 2801,-671.94 2826.66,-609.11 2959,-378 2981.05,-339.49 2976.21,-321.97 3008,-291 3022.5,-276.88 3042.32,-266.04 3059.18,-258.54"/>
<polygon fill="midnightblue" stroke="midnightblue" points="3060.85,-261.63 3068.7,-254.51 3058.12,-255.19 3060.85,-261.63"/>
</g>
<!-- Node133&#45;&gt;Node6 -->
<g id="edge150" class="edge">
<title>Node133&#45;&gt;Node6</title>
<path fill="none" stroke="midnightblue" d="M2509.04,-604.41C2492.85,-596.06 2474.55,-583.97 2463,-568 2442.59,-539.79 2444,-526.82 2444,-492 2444,-492 2444,-492 2444,-361.5 2444,-328.4 2442.1,-315.64 2420,-291 2380.7,-247.19 2354.33,-257.64 2300,-235 2233.54,-207.31 2218.13,-195.28 2148,-179 2145.74,-178.48 1892.44,-152.37 1773.91,-140.16"/>
<polygon fill="midnightblue" stroke="midnightblue" points="1774.2,-136.68 1763.9,-139.13 1773.48,-143.64 1774.2,-136.68"/>
</g>
<!-- Node134 -->
<g id="node42" class="node">
<title>Node134</title>
<g id="a_node42"><a xlink:href="../../de/d89/mat__variables_8h.html" target="_top" xlink:title=" ">
<polygon fill="none" stroke="black" points="2472.5,-543 2472.5,-562 2611.5,-562 2611.5,-543 2472.5,-543"/>
<text text-anchor="middle" x="2542" y="-550" font-family="Helvetica,sans-Serif" font-size="10.00">includes/mat_variables.h</text>
</a>
</g>
</g>
<!-- Node133&#45;&gt;Node134 -->
<g id="edge151" class="edge">
<title>Node133&#45;&gt;Node134</title>
<path fill="none" stroke="midnightblue" d="M2542.78,-604.4C2542.64,-595.06 2542.45,-582.71 2542.29,-572.52"/>
<polygon fill="midnightblue" stroke="midnightblue" points="2545.79,-572.14 2542.13,-562.19 2538.79,-572.25 2545.79,-572.14"/>
</g>
<!-- Node134&#45;&gt;Node3 -->
<g id="edge152" class="edge">
<title>Node134&#45;&gt;Node3</title>
<path fill="none" stroke="midnightblue" d="M2551.05,-542.91C2607.41,-489.32 2908,-202.95 2908,-190 2908,-190 2908,-190 2908,-132 2908,29.28 2711.31,-84.61 2551,-67 2140.27,-21.88 2031.48,-86.3 1622,-31 1612.19,-29.67 1601.65,-27.5 1592.09,-25.23"/>
<polygon fill="midnightblue" stroke="midnightblue" points="1592.74,-21.79 1582.19,-22.78 1591.05,-28.58 1592.74,-21.79"/>
</g>
<!-- Node134&#45;&gt;Node6 -->
<g id="edge153" class="edge">
<title>Node134&#45;&gt;Node6</title>
<path fill="none" stroke="midnightblue" d="M2543.96,-542.75C2548.23,-522.89 2558,-472.88 2558,-430.5 2558,-430.5 2558,-430.5 2558,-361.5 2558,-305.26 2585.92,-281.98 2555,-235 2538.6,-210.08 2461.93,-186.28 2433,-179 2369.95,-163.14 1934.97,-143.36 1773.85,-136.49"/>
<polygon fill="midnightblue" stroke="midnightblue" points="1773.78,-132.98 1763.64,-136.05 1773.49,-139.97 1773.78,-132.98"/>
</g>
<!-- Node134&#45;&gt;Node31 -->
<g id="edge157" class="edge">
<title>Node134&#45;&gt;Node31</title>
<path fill="none" stroke="midnightblue" d="M2539.3,-542.79C2533.43,-523.03 2520,-473.2 2520,-430.5 2520,-430.5 2520,-430.5 2520,-361.5 2520,-325.69 2504.4,-286.21 2494.03,-263.92"/>
<polygon fill="midnightblue" stroke="midnightblue" points="2497.08,-262.19 2489.58,-254.71 2490.77,-265.24 2497.08,-262.19"/>
</g>
<!-- Node134&#45;&gt;Node35 -->
<g id="edge156" class="edge">
<title>Node134&#45;&gt;Node35</title>
<path fill="none" stroke="midnightblue" d="M2534.16,-542.83C2517.89,-523.92 2482,-476.93 2482,-430.5 2482,-430.5 2482,-430.5 2482,-361.5 2482,-328.4 2477.6,-317.68 2458,-291 2449.66,-279.64 2377.75,-229.55 2341.18,-204.45"/>
<polygon fill="midnightblue" stroke="midnightblue" points="2342.93,-201.41 2332.7,-198.64 2338.97,-207.18 2342.93,-201.41"/>
</g>
<!-- Node134&#45;&gt;Node59 -->
<g id="edge154" class="edge">
<title>Node134&#45;&gt;Node59</title>
<path fill="none" stroke="midnightblue" d="M2472.34,-549.97C2140.48,-542.62 735.07,-510.92 715,-501 692.36,-489.8 675.7,-464.93 666.42,-447.94"/>
<polygon fill="midnightblue" stroke="midnightblue" points="669.52,-446.29 661.83,-439 663.29,-449.5 669.52,-446.29"/>
</g>
<!-- Node134&#45;&gt;Node76 -->
<g id="edge155" class="edge">
<title>Node134&#45;&gt;Node76</title>
<path fill="none" stroke="midnightblue" d="M2472.22,-547.69C2282.97,-537.35 1759.84,-508.76 1545.95,-497.08"/>
<polygon fill="midnightblue" stroke="midnightblue" points="1545.87,-493.57 1535.7,-496.52 1545.49,-500.56 1545.87,-493.57"/>
</g>
<!-- Node135&#45;&gt;Node18 -->
<g id="edge164" class="edge">
<title>Node135&#45;&gt;Node18</title>
<path fill="none" stroke="midnightblue" d="M2930.97,-943.71C2861.28,-939.5 2751.26,-932.99 2656,-928 2277.29,-908.16 1823.61,-888.15 1649.71,-880.62"/>
<polygon fill="midnightblue" stroke="midnightblue" points="1649.79,-877.12 1639.65,-880.19 1649.49,-884.12 1649.79,-877.12"/>
</g>
<!-- Node135&#45;&gt;Node25 -->
<g id="edge159" class="edge">
<title>Node135&#45;&gt;Node25</title>
<path fill="none" stroke="midnightblue" d="M2986.95,-933.74C2977.59,-923.18 2966.1,-907.93 2961,-892 2956.8,-878.88 2959.47,-874.69 2961,-861 2969.05,-788.99 2981.54,-772.79 2997,-702 3034.06,-532.35 3076.46,-326.62 3089.19,-264.58"/>
<polygon fill="midnightblue" stroke="midnightblue" points="3092.64,-265.2 3091.22,-254.7 3085.78,-263.8 3092.64,-265.2"/>
</g>
<!-- Node135&#45;&gt;Node125 -->
<g id="edge165" class="edge">
<title>Node135&#45;&gt;Node125</title>
<path fill="none" stroke="midnightblue" d="M2962.9,-933.95C2888.5,-906.58 2718.59,-844.38 2575,-794 2474.6,-758.77 2355.49,-718.72 2297.4,-699.3"/>
<polygon fill="midnightblue" stroke="midnightblue" points="2298.21,-695.88 2287.62,-696.03 2295.99,-702.52 2298.21,-695.88"/>
</g>
<!-- Node136 -->
<g id="node44" class="node">
<title>Node136</title>
<g id="a_node44"><a xlink:href="../../da/d42/process_8h.html" target="_top" xlink:title=" ">
<polygon fill="none" stroke="black" points="2151.5,-738.5 2151.5,-757.5 2266.5,-757.5 2266.5,-738.5 2151.5,-738.5"/>
<text text-anchor="middle" x="2209" y="-745.5" font-family="Helvetica,sans-Serif" font-size="10.00">processes/process.h</text>
</a>
</g>
</g>
<!-- Node135&#45;&gt;Node136 -->
<g id="edge160" class="edge">
<title>Node135&#45;&gt;Node136</title>
<path fill="none" stroke="midnightblue" d="M2944.99,-933.93C2795.27,-896.31 2387.99,-793.97 2253.07,-760.07"/>
<polygon fill="midnightblue" stroke="midnightblue" points="2253.64,-756.61 2243.09,-757.57 2251.94,-763.4 2253.64,-756.61"/>
</g>
<!-- Node137 -->
<g id="node45" class="node">
<title>Node137</title>
<g id="a_node45"><a xlink:href="../../da/dad/prism__3d__6_8h.html" target="_top" xlink:title=" ">
<polygon fill="none" stroke="red" points="3115,-867 3115,-886 3255,-886 3255,-867 3115,-867"/>
<text text-anchor="middle" x="3185" y="-874" font-family="Helvetica,sans-Serif" font-size="10.00">geometries/prism_3d_6.h</text>
</a>
</g>
</g>
<!-- Node135&#45;&gt;Node137 -->
<g id="edge166" class="edge">
<title>Node135&#45;&gt;Node137</title>
<path fill="none" stroke="midnightblue" d="M3037.79,-933.9C3071.63,-920.94 3121.27,-901.92 3153.37,-889.62"/>
<polygon fill="midnightblue" stroke="midnightblue" points="3154.64,-892.88 3162.73,-886.03 3152.14,-886.34 3154.64,-892.88"/>
</g>
<!-- Node154 -->
<g id="node47" class="node">
<title>Node154</title>
<g id="a_node47"><a xlink:href="../../d3/dca/hexahedra__3d__8_8h.html" target="_top" xlink:title=" ">
<polygon fill="none" stroke="red" points="2969.5,-861.5 2969.5,-891.5 3096.5,-891.5 3096.5,-861.5 2969.5,-861.5"/>
<text text-anchor="start" x="2977.5" y="-879.5" font-family="Helvetica,sans-Serif" font-size="10.00">geometries/hexahedra</text>
<text text-anchor="middle" x="3033" y="-868.5" font-family="Helvetica,sans-Serif" font-size="10.00">_3d_8.h</text>
</a>
</g>
</g>
<!-- Node135&#45;&gt;Node154 -->
<g id="edge168" class="edge">
<title>Node135&#45;&gt;Node154</title>
<path fill="none" stroke="midnightblue" d="M3007.48,-933.73C3011.73,-924.37 3017.39,-911.9 3022.3,-901.08"/>
<polygon fill="midnightblue" stroke="midnightblue" points="3025.59,-902.3 3026.53,-891.75 3019.21,-899.4 3025.59,-902.3"/>
</g>
<!-- Node136&#45;&gt;Node6 -->
<g id="edge161" class="edge">
<title>Node136&#45;&gt;Node6</title>
<path fill="none" stroke="midnightblue" d="M2188.3,-738.43C2155.03,-723.32 2091.03,-688.39 2068,-635 2017.22,-517.26 2119.15,-470.59 2085,-347 2069.55,-291.09 2058.66,-276.37 2018,-235 1984.98,-201.4 1971.72,-196.56 1928,-179 1900.53,-167.97 1827.11,-153.68 1773.92,-144.19"/>
<polygon fill="midnightblue" stroke="midnightblue" points="1774.37,-140.72 1763.91,-142.42 1773.15,-147.61 1774.37,-140.72"/>
</g>
<!-- Node136&#45;&gt;Node125 -->
<g id="edge163" class="edge">
<title>Node136&#45;&gt;Node125</title>
<path fill="none" stroke="midnightblue" d="M2216.59,-738.48C2224.7,-729.37 2237.73,-714.74 2247.76,-703.48"/>
<polygon fill="midnightblue" stroke="midnightblue" points="2250.38,-705.8 2254.42,-696.01 2245.16,-701.15 2250.38,-705.8"/>
</g>
<!-- Node136&#45;&gt;Node109 -->
<g id="edge162" class="edge">
<title>Node136&#45;&gt;Node109</title>
<path fill="none" stroke="midnightblue" d="M2168.36,-738.48C2132.73,-730.54 2079.79,-717.6 2035,-702 1916.27,-660.64 1781.2,-594.64 1725.78,-566.69"/>
<polygon fill="midnightblue" stroke="midnightblue" points="1727.19,-563.48 1716.69,-562.08 1724.02,-569.72 1727.19,-563.48"/>
</g>
<!-- Node138 -->
<g id="node46" class="node">
<title>Node138</title>
<g id="a_node46"><a xlink:href="../../d9/def/triangle__3d__3_8h.html" target="_top" xlink:title=" ">
<polygon fill="none" stroke="red" points="3128.5,-794.5 3128.5,-824.5 3241.5,-824.5 3241.5,-794.5 3128.5,-794.5"/>
<text text-anchor="start" x="3136.5" y="-812.5" font-family="Helvetica,sans-Serif" font-size="10.00">geometries/triangle</text>
<text text-anchor="middle" x="3185" y="-801.5" font-family="Helvetica,sans-Serif" font-size="10.00">_3d_3.h</text>
</a>
</g>
</g>
<!-- Node137&#45;&gt;Node138 -->
<g id="edge167" class="edge">
<title>Node137&#45;&gt;Node138</title>
<path fill="none" stroke="midnightblue" d="M3185,-866.73C3185,-858.54 3185,-845.92 3185,-834.71"/>
<polygon fill="midnightblue" stroke="midnightblue" points="3188.5,-834.59 3185,-824.59 3181.5,-834.59 3188.5,-834.59"/>
</g>
<!-- Node157&#45;&gt;Node18 -->
<g id="edge171" class="edge">
<title>Node157&#45;&gt;Node18</title>
<path fill="none" stroke="midnightblue" d="M2204.4,-940.69C2070.1,-927.16 1784.34,-898.38 1649.85,-884.84"/>
<polygon fill="midnightblue" stroke="midnightblue" points="1649.96,-881.33 1639.66,-883.81 1649.25,-888.29 1649.96,-881.33"/>
</g>
<!-- Node157&#45;&gt;Node136 -->
<g id="edge170" class="edge">
<title>Node157&#45;&gt;Node136</title>
<path fill="none" stroke="midnightblue" d="M2270.23,-928.19C2257.02,-889.54 2227.99,-804.58 2215.23,-767.23"/>
<polygon fill="midnightblue" stroke="midnightblue" points="2218.5,-765.98 2211.95,-757.65 2211.88,-768.24 2218.5,-765.98"/>
</g>
<!-- Node158&#45;&gt;Node6 -->
<g id="edge174" class="edge">
<title>Node158&#45;&gt;Node6</title>
<path fill="none" stroke="midnightblue" d="M2654.87,-291.34C2651.14,-277.75 2642.23,-251.31 2626,-235 2615.9,-224.86 2523.86,-182.58 2510,-179 2370.92,-143.03 1934.08,-135.8 1773.76,-134.36"/>
<polygon fill="midnightblue" stroke="midnightblue" points="1773.63,-130.86 1763.6,-134.27 1773.57,-137.86 1773.63,-130.86"/>
</g>
<!-- Node158&#45;&gt;Node31 -->
<g id="edge175" class="edge">
<title>Node158&#45;&gt;Node31</title>
<path fill="none" stroke="midnightblue" d="M2629.75,-291.44C2600.56,-282.28 2554.08,-267.69 2521.69,-257.52"/>
<polygon fill="midnightblue" stroke="midnightblue" points="2522.72,-254.17 2512.13,-254.52 2520.62,-260.85 2522.72,-254.17"/>
</g>
<!-- Node101 -->
<g id="node50" class="node">
<title>Node101</title>
<g id="a_node50"><a xlink:title=" ">
<polygon fill="none" stroke="#bfbfbf" points="2754,-235.5 2754,-254.5 2804,-254.5 2804,-235.5 2754,-235.5"/>
<text text-anchor="middle" x="2779" y="-242.5" font-family="Helvetica,sans-Serif" font-size="10.00">atomic</text>
</a>
</g>
</g>
<!-- Node158&#45;&gt;Node101 -->
<g id="edge173" class="edge">
<title>Node158&#45;&gt;Node101</title>
<path fill="none" stroke="midnightblue" d="M2676.33,-291.44C2696.32,-282.6 2727.74,-268.69 2750.56,-258.59"/>
<polygon fill="midnightblue" stroke="midnightblue" points="2752.03,-261.76 2759.76,-254.52 2749.2,-255.36 2752.03,-261.76"/>
</g>
</g>
</svg>
