<?xml version="1.0" encoding="UTF-8" standalone="no"?>
<!DOCTYPE svg PUBLIC "-//W3C//DTD SVG 1.1//EN"
 "http://www.w3.org/Graphics/SVG/1.1/DTD/svg11.dtd">
<!-- Generated by graphviz version 2.43.0 (0)
 -->
<!-- Title: /home/runner/work/Documentation/Documentation/master/applications/IgaApplication/custom_modelers/iga_modeler.h Pages: 1 -->
<svg width="3617pt" height="866pt"
 viewBox="0.00 0.00 3617.21 866.00" xmlns="http://www.w3.org/2000/svg" xmlns:xlink="http://www.w3.org/1999/xlink">
<g id="graph0" class="graph" transform="scale(1 1) rotate(0) translate(4 862)">
<title>/home/runner/work/Documentation/Documentation/master/applications/IgaApplication/custom_modelers/iga_modeler.h</title>
<!-- Node1 -->
<g id="node1" class="node">
<title>Node1</title>
<g id="a_node1"><a xlink:title=" ">
<polygon fill="#bfbfbf" stroke="black" points="1632.21,-805.5 1632.21,-857.5 1826.21,-857.5 1826.21,-805.5 1632.21,-805.5"/>
<text text-anchor="start" x="1640.21" y="-845.5" font-family="Helvetica,sans-Serif" font-size="10.00">/home/runner/work/Documentation</text>
<text text-anchor="start" x="1640.21" y="-834.5" font-family="Helvetica,sans-Serif" font-size="10.00">/Documentation/master/applications</text>
<text text-anchor="start" x="1640.21" y="-823.5" font-family="Helvetica,sans-Serif" font-size="10.00">/IgaApplication/custom_modelers</text>
<text text-anchor="middle" x="1729.21" y="-812.5" font-family="Helvetica,sans-Serif" font-size="10.00">/iga_modeler.h</text>
</a>
</g>
</g>
<!-- Node2 -->
<g id="node2" class="node">
<title>Node2</title>
<g id="a_node2"><a xlink:href="../../d5/da9/modeler_8h.html" target="_top" xlink:title=" ">
<polygon fill="none" stroke="black" points="1214.71,-749.5 1214.71,-768.5 1323.71,-768.5 1323.71,-749.5 1214.71,-749.5"/>
<text text-anchor="middle" x="1269.21" y="-756.5" font-family="Helvetica,sans-Serif" font-size="10.00">modeler/modeler.h</text>
</a>
</g>
</g>
<!-- Node1&#45;&gt;Node2 -->
<g id="edge1" class="edge">
<title>Node1&#45;&gt;Node2</title>
<path fill="none" stroke="midnightblue" d="M1631.93,-815.59C1542.23,-801.84 1411.58,-781.82 1334,-769.93"/>
<polygon fill="midnightblue" stroke="midnightblue" points="1334.3,-766.44 1323.89,-768.38 1333.24,-773.35 1334.3,-766.44"/>
</g>
<!-- Node3 -->
<g id="node3" class="node">
<title>Node3</title>
<g id="a_node3"><a xlink:href="../../df/d67/define_8h.html" target="_top" xlink:title=" ">
<polygon fill="none" stroke="black" points="2045.71,-190.5 2045.71,-209.5 2144.71,-209.5 2144.71,-190.5 2045.71,-190.5"/>
<text text-anchor="middle" x="2095.21" y="-197.5" font-family="Helvetica,sans-Serif" font-size="10.00">includes/define.h</text>
</a>
</g>
</g>
<!-- Node1&#45;&gt;Node3 -->
<g id="edge163" class="edge">
<title>Node1&#45;&gt;Node3</title>
<path fill="none" stroke="midnightblue" d="M1826.32,-829.1C2211.3,-822.92 3609.21,-794.27 3609.21,-704 3609.21,-704 3609.21,-704 3609.21,-640.5 3609.21,-427.1 3374.16,-512.61 3200.21,-389 3182.44,-376.37 3180.05,-370.52 3162.21,-358 3157.25,-354.52 2981,-247.76 2975.21,-246 2897.28,-222.29 2339.96,-206.89 2154.82,-202.38"/>
<polygon fill="midnightblue" stroke="midnightblue" points="2154.81,-198.88 2144.73,-202.13 2154.64,-205.87 2154.81,-198.88"/>
</g>
<!-- Node104 -->
<g id="node35" class="node">
<title>Node104</title>
<g id="a_node35"><a xlink:href="../../d8/dbb/properties_8h.html" target="_top" xlink:title=" ">
<polygon fill="none" stroke="black" points="1572.71,-693.5 1572.71,-712.5 1691.71,-712.5 1691.71,-693.5 1572.71,-693.5"/>
<text text-anchor="middle" x="1632.21" y="-700.5" font-family="Helvetica,sans-Serif" font-size="10.00">includes/properties.h</text>
</a>
</g>
</g>
<!-- Node1&#45;&gt;Node104 -->
<g id="edge103" class="edge">
<title>Node1&#45;&gt;Node104</title>
<path fill="none" stroke="midnightblue" d="M1709.81,-805.2C1690.56,-780.1 1661.59,-742.32 1645.03,-720.73"/>
<polygon fill="midnightblue" stroke="midnightblue" points="1647.62,-718.36 1638.76,-712.55 1642.07,-722.62 1647.62,-718.36"/>
</g>
<!-- Node87 -->
<g id="node46" class="node">
<title>Node87</title>
<g id="a_node46"><a xlink:href="../../d0/d33/integration__info_8h.html" target="_top" xlink:title=" ">
<polygon fill="none" stroke="black" points="1842.21,-626.5 1842.21,-656.5 1968.21,-656.5 1968.21,-626.5 1842.21,-626.5"/>
<text text-anchor="start" x="1850.21" y="-644.5" font-family="Helvetica,sans-Serif" font-size="10.00">integration/integration</text>
<text text-anchor="middle" x="1905.21" y="-633.5" font-family="Helvetica,sans-Serif" font-size="10.00">_info.h</text>
</a>
</g>
</g>
<!-- Node1&#45;&gt;Node87 -->
<g id="edge164" class="edge">
<title>Node1&#45;&gt;Node87</title>
<path fill="none" stroke="midnightblue" d="M1752.94,-805.15C1787.84,-767.87 1852.37,-698.94 1885.08,-664"/>
<polygon fill="midnightblue" stroke="midnightblue" points="1887.64,-666.38 1891.92,-656.69 1882.53,-661.6 1887.64,-666.38"/>
</g>
<!-- Node2&#45;&gt;Node3 -->
<g id="edge2" class="edge">
<title>Node2&#45;&gt;Node3</title>
<path fill="none" stroke="midnightblue" d="M1323.87,-755.43C1433.18,-749.85 1670.79,-735.29 1700.21,-713 1835.52,-610.48 1732.15,-488.1 1841.21,-358 1903.13,-284.13 2009.08,-234.75 2062.45,-213.25"/>
<polygon fill="midnightblue" stroke="midnightblue" points="2063.77,-216.49 2071.78,-209.56 2061.19,-209.98 2063.77,-216.49"/>
</g>
<!-- Node17 -->
<g id="node17" class="node">
<title>Node17</title>
<g id="a_node17"><a xlink:href="../../dc/d51/model_8h.html" target="_top" xlink:title=" ">
<polygon fill="none" stroke="black" points="1174.21,-693.5 1174.21,-712.5 1284.21,-712.5 1284.21,-693.5 1174.21,-693.5"/>
<text text-anchor="middle" x="1229.21" y="-700.5" font-family="Helvetica,sans-Serif" font-size="10.00">containers/model.h</text>
</a>
</g>
</g>
<!-- Node2&#45;&gt;Node17 -->
<g id="edge25" class="edge">
<title>Node2&#45;&gt;Node17</title>
<path fill="none" stroke="midnightblue" d="M1262.6,-749.08C1256.95,-741.46 1248.66,-730.26 1241.76,-720.94"/>
<polygon fill="midnightblue" stroke="midnightblue" points="1244.45,-718.7 1235.69,-712.75 1238.83,-722.87 1244.45,-718.7"/>
</g>
<!-- Node63 -->
<g id="node29" class="node">
<title>Node63</title>
<g id="a_node29"><a xlink:href="../../dc/d8e/kratos__components_8h.html" target="_top" xlink:title=" ">
<polygon fill="none" stroke="black" points="900.71,-431 900.71,-450 1065.71,-450 1065.71,-431 900.71,-431"/>
<text text-anchor="middle" x="983.21" y="-438" font-family="Helvetica,sans-Serif" font-size="10.00">includes/kratos_components.h</text>
</a>
</g>
</g>
<!-- Node2&#45;&gt;Node63 -->
<g id="edge102" class="edge">
<title>Node2&#45;&gt;Node63</title>
<path fill="none" stroke="midnightblue" d="M1239.58,-749.47C1167.72,-726.87 985.9,-657.76 929.21,-523 923.86,-510.3 923.72,-504.64 929.21,-492 935.66,-477.12 948.9,-464.63 960.65,-455.79"/>
<polygon fill="midnightblue" stroke="midnightblue" points="962.67,-458.65 968.82,-450.02 958.64,-452.93 962.67,-458.65"/>
</g>
<!-- Node4 -->
<g id="node4" class="node">
<title>Node4</title>
<g id="a_node4"><a xlink:title=" ">
<polygon fill="none" stroke="#bfbfbf" points="1344.71,-73 1344.71,-92 1409.71,-92 1409.71,-73 1344.71,-73"/>
<text text-anchor="middle" x="1377.21" y="-80" font-family="Helvetica,sans-Serif" font-size="10.00">stdexcept</text>
</a>
</g>
</g>
<!-- Node3&#45;&gt;Node4 -->
<g id="edge3" class="edge">
<title>Node3&#45;&gt;Node4</title>
<path fill="none" stroke="midnightblue" d="M2045.7,-197.76C1886.43,-193.51 1396.24,-178.51 1373.21,-154 1360.38,-140.35 1364.29,-117.89 1369.52,-101.99"/>
<polygon fill="midnightblue" stroke="midnightblue" points="1372.95,-102.82 1373.17,-92.22 1366.39,-100.37 1372.95,-102.82"/>
</g>
<!-- Node5 -->
<g id="node5" class="node">
<title>Node5</title>
<g id="a_node5"><a xlink:title=" ">
<polygon fill="none" stroke="#bfbfbf" points="2212.21,-73 2212.21,-92 2268.21,-92 2268.21,-73 2212.21,-73"/>
<text text-anchor="middle" x="2240.21" y="-80" font-family="Helvetica,sans-Serif" font-size="10.00">sstream</text>
</a>
</g>
</g>
<!-- Node3&#45;&gt;Node5 -->
<g id="edge4" class="edge">
<title>Node3&#45;&gt;Node5</title>
<path fill="none" stroke="midnightblue" d="M2106.11,-190.32C2130.67,-170.75 2190.6,-123.02 2221.34,-98.53"/>
<polygon fill="midnightblue" stroke="midnightblue" points="2223.54,-101.25 2229.18,-92.28 2219.18,-95.77 2223.54,-101.25"/>
</g>
<!-- Node6 -->
<g id="node6" class="node">
<title>Node6</title>
<g id="a_node6"><a xlink:href="../../dc/d25/kratos__export__api_8h.html" target="_top" xlink:title=" ">
<polygon fill="none" stroke="black" points="1606.21,-0.5 1606.21,-30.5 1734.21,-30.5 1734.21,-0.5 1606.21,-0.5"/>
<text text-anchor="start" x="1614.21" y="-18.5" font-family="Helvetica,sans-Serif" font-size="10.00">includes/kratos_export</text>
<text text-anchor="middle" x="1670.21" y="-7.5" font-family="Helvetica,sans-Serif" font-size="10.00">_api.h</text>
</a>
</g>
</g>
<!-- Node3&#45;&gt;Node6 -->
<g id="edge5" class="edge">
<title>Node3&#45;&gt;Node6</title>
<path fill="none" stroke="midnightblue" d="M2145.17,-198.97C2280.59,-198.37 2646.98,-193.1 2683.21,-154 2709.48,-125.63 2709.86,-95.01 2683.21,-67 2650.93,-33.08 1972.79,-20.66 1744.48,-17.43"/>
<polygon fill="midnightblue" stroke="midnightblue" points="1744.32,-13.93 1734.27,-17.29 1744.22,-20.93 1744.32,-13.93"/>
</g>
<!-- Node7 -->
<g id="node7" class="node">
<title>Node7</title>
<g id="a_node7"><a xlink:href="../../d9/dc0/smart__pointers_8h.html" target="_top" xlink:title=" ">
<polygon fill="none" stroke="black" points="2531.71,-134.5 2531.71,-153.5 2674.71,-153.5 2674.71,-134.5 2531.71,-134.5"/>
<text text-anchor="middle" x="2603.21" y="-141.5" font-family="Helvetica,sans-Serif" font-size="10.00">includes/smart_pointers.h</text>
</a>
</g>
</g>
<!-- Node3&#45;&gt;Node7 -->
<g id="edge6" class="edge">
<title>Node3&#45;&gt;Node7</title>
<path fill="none" stroke="midnightblue" d="M2144.84,-193.72C2232.39,-184.42 2415.05,-165 2521.45,-153.69"/>
<polygon fill="midnightblue" stroke="midnightblue" points="2521.93,-157.16 2531.5,-152.62 2521.19,-150.2 2521.93,-157.16"/>
</g>
<!-- Node12 -->
<g id="node12" class="node">
<title>Node12</title>
<g id="a_node12"><a xlink:href="../../dd/d2d/exception_8h.html" target="_top" xlink:title=" ">
<polygon fill="none" stroke="black" points="1382.71,-134.5 1382.71,-153.5 1499.71,-153.5 1499.71,-134.5 1382.71,-134.5"/>
<text text-anchor="middle" x="1441.21" y="-141.5" font-family="Helvetica,sans-Serif" font-size="10.00">includes/exception.h</text>
</a>
</g>
</g>
<!-- Node3&#45;&gt;Node12 -->
<g id="edge11" class="edge">
<title>Node3&#45;&gt;Node12</title>
<path fill="none" stroke="midnightblue" d="M2045.51,-194.9C1929.89,-185.35 1642.61,-161.63 1510.13,-150.69"/>
<polygon fill="midnightblue" stroke="midnightblue" points="1510.35,-147.2 1500.1,-149.86 1509.78,-154.17 1510.35,-147.2"/>
</g>
<!-- Node8 -->
<g id="node8" class="node">
<title>Node8</title>
<g id="a_node8"><a xlink:title=" ">
<polygon fill="none" stroke="#bfbfbf" points="1366.21,-6 1366.21,-25 1426.21,-25 1426.21,-6 1366.21,-6"/>
<text text-anchor="middle" x="1396.21" y="-13" font-family="Helvetica,sans-Serif" font-size="10.00">iostream</text>
</a>
</g>
</g>
<!-- Node7&#45;&gt;Node8 -->
<g id="edge7" class="edge">
<title>Node7&#45;&gt;Node8</title>
<path fill="none" stroke="midnightblue" d="M2574.31,-134.45C2517.82,-118.14 2388.54,-82.8 2277.21,-67 1977.56,-24.48 1899.26,-49.89 1597.21,-31 1541.47,-27.51 1477.11,-22.74 1436.53,-19.64"/>
<polygon fill="midnightblue" stroke="midnightblue" points="1436.74,-16.14 1426.5,-18.87 1436.2,-23.12 1436.74,-16.14"/>
</g>
<!-- Node9 -->
<g id="node9" class="node">
<title>Node9</title>
<g id="a_node9"><a xlink:title=" ">
<polygon fill="none" stroke="#bfbfbf" points="2629.71,-73 2629.71,-92 2674.71,-92 2674.71,-73 2629.71,-73"/>
<text text-anchor="middle" x="2652.21" y="-80" font-family="Helvetica,sans-Serif" font-size="10.00">utility</text>
</a>
</g>
</g>
<!-- Node7&#45;&gt;Node9 -->
<g id="edge8" class="edge">
<title>Node7&#45;&gt;Node9</title>
<path fill="none" stroke="midnightblue" d="M2610.23,-134.48C2617.65,-125.46 2629.54,-111.02 2638.77,-99.81"/>
<polygon fill="midnightblue" stroke="midnightblue" points="2641.54,-101.95 2645.2,-92.01 2636.14,-97.5 2641.54,-101.95"/>
</g>
<!-- Node10 -->
<g id="node10" class="node">
<title>Node10</title>
<g id="a_node10"><a xlink:title=" ">
<polygon fill="none" stroke="#bfbfbf" points="2553.21,-73 2553.21,-92 2611.21,-92 2611.21,-73 2553.21,-73"/>
<text text-anchor="middle" x="2582.21" y="-80" font-family="Helvetica,sans-Serif" font-size="10.00">memory</text>
</a>
</g>
</g>
<!-- Node7&#45;&gt;Node10 -->
<g id="edge9" class="edge">
<title>Node7&#45;&gt;Node10</title>
<path fill="none" stroke="midnightblue" d="M2600.2,-134.48C2597.17,-125.9 2592.42,-112.43 2588.55,-101.48"/>
<polygon fill="midnightblue" stroke="midnightblue" points="2591.84,-100.27 2585.21,-92.01 2585.24,-102.6 2591.84,-100.27"/>
</g>
<!-- Node11 -->
<g id="node11" class="node">
<title>Node11</title>
<g id="a_node11"><a xlink:title=" ">
<polygon fill="none" stroke="#bfbfbf" points="2926.21,-67.5 2926.21,-97.5 3050.21,-97.5 3050.21,-67.5 2926.21,-67.5"/>
<text text-anchor="start" x="2934.21" y="-85.5" font-family="Helvetica,sans-Serif" font-size="10.00">intrusive_ptr/intrusive</text>
<text text-anchor="middle" x="2988.21" y="-74.5" font-family="Helvetica,sans-Serif" font-size="10.00">_ptr.hpp</text>
</a>
</g>
</g>
<!-- Node7&#45;&gt;Node11 -->
<g id="edge10" class="edge">
<title>Node7&#45;&gt;Node11</title>
<path fill="none" stroke="midnightblue" d="M2658.37,-134.48C2726.08,-124.01 2841.11,-106.23 2915.86,-94.68"/>
<polygon fill="midnightblue" stroke="midnightblue" points="2916.78,-98.08 2926.13,-93.09 2915.72,-91.16 2916.78,-98.08"/>
</g>
<!-- Node12&#45;&gt;Node4 -->
<g id="edge12" class="edge">
<title>Node12&#45;&gt;Node4</title>
<path fill="none" stroke="midnightblue" d="M1432.04,-134.48C1422.06,-125.2 1405.89,-110.17 1393.7,-98.83"/>
<polygon fill="midnightblue" stroke="midnightblue" points="1396.07,-96.25 1386.36,-92.01 1391.3,-101.38 1396.07,-96.25"/>
</g>
<!-- Node12&#45;&gt;Node5 -->
<g id="edge15" class="edge">
<title>Node12&#45;&gt;Node5</title>
<path fill="none" stroke="midnightblue" d="M1499.75,-135.5C1504.64,-134.96 1509.5,-134.45 1514.21,-134 1776.8,-108.7 2094,-91.08 2202.04,-85.44"/>
<polygon fill="midnightblue" stroke="midnightblue" points="2202.33,-88.93 2212.13,-84.91 2201.96,-81.94 2202.33,-88.93"/>
</g>
<!-- Node12&#45;&gt;Node6 -->
<g id="edge17" class="edge">
<title>Node12&#45;&gt;Node6</title>
<path fill="none" stroke="midnightblue" d="M1494.87,-134.47C1553.03,-124.75 1639.06,-108.83 1650.21,-98 1665.33,-83.3 1669.75,-59.16 1670.73,-40.96"/>
<polygon fill="midnightblue" stroke="midnightblue" points="1674.23,-40.87 1670.96,-30.79 1667.23,-40.71 1674.23,-40.87"/>
</g>
<!-- Node12&#45;&gt;Node8 -->
<g id="edge14" class="edge">
<title>Node12&#45;&gt;Node8</title>
<path fill="none" stroke="midnightblue" d="M1445.48,-134.14C1451.91,-119.51 1462.28,-89.66 1452.21,-67 1445.53,-51.98 1431.93,-39.55 1419.81,-30.78"/>
<polygon fill="midnightblue" stroke="midnightblue" points="1421.61,-27.77 1411.37,-25.05 1417.68,-33.56 1421.61,-27.77"/>
</g>
<!-- Node13 -->
<g id="node13" class="node">
<title>Node13</title>
<g id="a_node13"><a xlink:title=" ">
<polygon fill="none" stroke="#bfbfbf" points="434.21,-6 434.21,-25 478.21,-25 478.21,-6 434.21,-6"/>
<text text-anchor="middle" x="456.21" y="-13" font-family="Helvetica,sans-Serif" font-size="10.00">string</text>
</a>
</g>
</g>
<!-- Node12&#45;&gt;Node13 -->
<g id="edge13" class="edge">
<title>Node12&#45;&gt;Node13</title>
<path fill="none" stroke="midnightblue" d="M1441.52,-134.19C1441.56,-117.91 1439.04,-83.33 1418.21,-67 1380.85,-37.72 653.14,-20.66 488.93,-17.17"/>
<polygon fill="midnightblue" stroke="midnightblue" points="488.59,-13.66 478.52,-16.95 488.45,-20.66 488.59,-13.66"/>
</g>
<!-- Node14 -->
<g id="node14" class="node">
<title>Node14</title>
<g id="a_node14"><a xlink:title=" ">
<polygon fill="none" stroke="#bfbfbf" points="3287.71,-6 3287.71,-25 3334.71,-25 3334.71,-6 3287.71,-6"/>
<text text-anchor="middle" x="3311.21" y="-13" font-family="Helvetica,sans-Serif" font-size="10.00">vector</text>
</a>
</g>
</g>
<!-- Node12&#45;&gt;Node14 -->
<g id="edge16" class="edge">
<title>Node12&#45;&gt;Node14</title>
<path fill="none" stroke="midnightblue" d="M1496.29,-134.46C1554.28,-125.09 1641.48,-109.81 1673.21,-98 1699.14,-88.35 1700.58,-74.55 1727.21,-67 1881.02,-23.35 3061.49,-17.33 3277.37,-16.6"/>
<polygon fill="midnightblue" stroke="midnightblue" points="3277.48,-20.1 3287.46,-16.56 3277.45,-13.1 3277.48,-20.1"/>
</g>
<!-- Node15 -->
<g id="node15" class="node">
<title>Node15</title>
<g id="a_node15"><a xlink:href="../../da/da6/code__location_8h.html" target="_top" xlink:title=" ">
<polygon fill="none" stroke="black" points="1504.71,-73 1504.71,-92 1641.71,-92 1641.71,-73 1504.71,-73"/>
<text text-anchor="middle" x="1573.21" y="-80" font-family="Helvetica,sans-Serif" font-size="10.00">includes/code_location.h</text>
</a>
</g>
</g>
<!-- Node12&#45;&gt;Node15 -->
<g id="edge18" class="edge">
<title>Node12&#45;&gt;Node15</title>
<path fill="none" stroke="midnightblue" d="M1460.12,-134.48C1482.37,-124.45 1519.52,-107.7 1545.13,-96.15"/>
<polygon fill="midnightblue" stroke="midnightblue" points="1546.65,-99.31 1554.33,-92.01 1543.77,-92.93 1546.65,-99.31"/>
</g>
<!-- Node16 -->
<g id="node16" class="node">
<title>Node16</title>
<g id="a_node16"><a xlink:href="../../d9/d06/stl__vector__io_8h.html" target="_top" xlink:title=" ">
<polygon fill="none" stroke="black" points="1736.21,-73 1736.21,-92 1864.21,-92 1864.21,-73 1736.21,-73"/>
<text text-anchor="middle" x="1800.21" y="-80" font-family="Helvetica,sans-Serif" font-size="10.00">utilities/stl_vector_io.h</text>
</a>
</g>
</g>
<!-- Node12&#45;&gt;Node16 -->
<g id="edge22" class="edge">
<title>Node12&#45;&gt;Node16</title>
<path fill="none" stroke="midnightblue" d="M1496.99,-134.49C1553.74,-125.73 1644.19,-111.5 1722.21,-98 1729.66,-96.71 1737.51,-95.31 1745.24,-93.9"/>
<polygon fill="midnightblue" stroke="midnightblue" points="1746.08,-97.3 1755.28,-92.05 1744.81,-90.42 1746.08,-97.3"/>
</g>
<!-- Node15&#45;&gt;Node6 -->
<g id="edge21" class="edge">
<title>Node15&#45;&gt;Node6</title>
<path fill="none" stroke="midnightblue" d="M1586.29,-72.73C1600.15,-63.44 1622.51,-48.46 1640.66,-36.3"/>
<polygon fill="midnightblue" stroke="midnightblue" points="1642.82,-39.06 1649.18,-30.59 1638.93,-33.25 1642.82,-39.06"/>
</g>
<!-- Node15&#45;&gt;Node8 -->
<g id="edge20" class="edge">
<title>Node15&#45;&gt;Node8</title>
<path fill="none" stroke="midnightblue" d="M1549.7,-72.87C1518.8,-61.52 1464.35,-41.52 1429.3,-28.65"/>
<polygon fill="midnightblue" stroke="midnightblue" points="1430.12,-25.23 1419.53,-25.06 1427.71,-31.8 1430.12,-25.23"/>
</g>
<!-- Node15&#45;&gt;Node13 -->
<g id="edge19" class="edge">
<title>Node15&#45;&gt;Node13</title>
<path fill="none" stroke="midnightblue" d="M1508.92,-72.97C1490.62,-70.76 1470.65,-68.57 1452.21,-67 1073.78,-34.77 612.6,-20.7 488.32,-17.33"/>
<polygon fill="midnightblue" stroke="midnightblue" points="488.42,-13.83 478.33,-17.06 488.23,-20.83 488.42,-13.83"/>
</g>
<!-- Node16&#45;&gt;Node8 -->
<g id="edge23" class="edge">
<title>Node16&#45;&gt;Node8</title>
<path fill="none" stroke="midnightblue" d="M1746.98,-72.94C1665.08,-59.76 1509.99,-34.81 1436.62,-23"/>
<polygon fill="midnightblue" stroke="midnightblue" points="1436.83,-19.49 1426.4,-21.36 1435.72,-26.4 1436.83,-19.49"/>
</g>
<!-- Node16&#45;&gt;Node14 -->
<g id="edge24" class="edge">
<title>Node16&#45;&gt;Node14</title>
<path fill="none" stroke="midnightblue" d="M1864.65,-78.73C2123.79,-67.58 3085.15,-26.22 3277.56,-17.95"/>
<polygon fill="midnightblue" stroke="midnightblue" points="3277.8,-21.44 3287.64,-17.51 3277.5,-14.45 3277.8,-21.44"/>
</g>
<!-- Node17&#45;&gt;Node3 -->
<g id="edge29" class="edge">
<title>Node17&#45;&gt;Node3</title>
<path fill="none" stroke="midnightblue" d="M1252.62,-693.39C1306.95,-672.34 1442.99,-613.29 1522.21,-523 1611.04,-421.74 1536.07,-324.95 1645.21,-246 1676.16,-223.61 1920.14,-209.25 2035.35,-203.66"/>
<polygon fill="midnightblue" stroke="midnightblue" points="2035.6,-207.15 2045.42,-203.18 2035.27,-200.16 2035.6,-207.15"/>
</g>
<!-- Node17&#45;&gt;Node8 -->
<g id="edge27" class="edge">
<title>Node17&#45;&gt;Node8</title>
<path fill="none" stroke="midnightblue" d="M1174.13,-701.65C948.75,-699.99 106.53,-691.5 62.21,-657 32.41,-633.8 38.21,-613.26 38.21,-575.5 38.21,-575.5 38.21,-575.5 38.21,-439.5 38.21,-122.6 341.47,-153.96 646.21,-67 781.37,-28.43 1220.12,-19.01 1355.83,-17"/>
<polygon fill="midnightblue" stroke="midnightblue" points="1356.23,-20.49 1366.17,-16.85 1356.12,-13.49 1356.23,-20.49"/>
</g>
<!-- Node17&#45;&gt;Node13 -->
<g id="edge26" class="edge">
<title>Node17&#45;&gt;Node13</title>
<path fill="none" stroke="midnightblue" d="M1174.18,-701.54C946,-699.42 83.8,-689.3 36.21,-657 3.44,-634.76 0.21,-615.1 0.21,-575.5 0.21,-575.5 0.21,-575.5 0.21,-143 0.21,-107.58 -3.1,-89.56 24.21,-67 85.03,-16.73 334.49,-14.88 424.03,-15.9"/>
<polygon fill="midnightblue" stroke="midnightblue" points="424.08,-19.4 434.13,-16.03 424.18,-12.4 424.08,-19.4"/>
</g>
<!-- Node18 -->
<g id="node18" class="node">
<title>Node18</title>
<g id="a_node18"><a xlink:title=" ">
<polygon fill="none" stroke="#bfbfbf" points="1710.71,-246.5 1710.71,-265.5 1803.71,-265.5 1803.71,-246.5 1710.71,-246.5"/>
<text text-anchor="middle" x="1757.21" y="-253.5" font-family="Helvetica,sans-Serif" font-size="10.00">unordered_map</text>
</a>
</g>
</g>
<!-- Node17&#45;&gt;Node18 -->
<g id="edge28" class="edge">
<title>Node17&#45;&gt;Node18</title>
<path fill="none" stroke="midnightblue" d="M1234.83,-693.2C1257.56,-657.78 1343.14,-525.91 1379.21,-492 1492.7,-385.3 1661.84,-300.92 1728.62,-269.88"/>
<polygon fill="midnightblue" stroke="midnightblue" points="1730.09,-273.05 1737.71,-265.69 1727.16,-266.69 1730.09,-273.05"/>
</g>
<!-- Node19 -->
<g id="node19" class="node">
<title>Node19</title>
<g id="a_node19"><a xlink:href="../../dd/dfe/model__part_8h.html" target="_top" xlink:title=" ">
<polygon fill="none" stroke="red" points="1075.71,-632 1075.71,-651 1200.71,-651 1200.71,-632 1075.71,-632"/>
<text text-anchor="middle" x="1138.21" y="-639" font-family="Helvetica,sans-Serif" font-size="10.00">includes/model_part.h</text>
</a>
</g>
</g>
<!-- Node17&#45;&gt;Node19 -->
<g id="edge30" class="edge">
<title>Node17&#45;&gt;Node19</title>
<path fill="none" stroke="midnightblue" d="M1216.17,-693.48C1201.44,-683.84 1177.23,-668.02 1159.7,-656.55"/>
<polygon fill="midnightblue" stroke="midnightblue" points="1161.51,-653.55 1151.22,-651.01 1157.67,-659.41 1161.51,-653.55"/>
</g>
<!-- Node19&#45;&gt;Node3 -->
<g id="edge35" class="edge">
<title>Node19&#45;&gt;Node3</title>
<path fill="none" stroke="midnightblue" d="M1168.91,-631.95C1194.78,-623.81 1231.99,-609.85 1260.21,-590 1308.33,-556.15 1309.62,-535.53 1349.21,-492 1448.69,-382.6 1440.65,-311.52 1573.21,-246 1653.03,-206.54 1916.1,-201.12 2035.42,-200.75"/>
<polygon fill="midnightblue" stroke="midnightblue" points="2035.48,-204.25 2045.48,-200.73 2035.47,-197.25 2035.48,-204.25"/>
</g>
<!-- Node19&#45;&gt;Node5 -->
<g id="edge33" class="edge">
<title>Node19&#45;&gt;Node5</title>
<path fill="none" stroke="midnightblue" d="M1155.17,-631.96C1171.36,-623.15 1195.67,-608.18 1212.21,-590 1329.76,-460.82 1260.96,-348.74 1402.21,-246 1533.6,-150.43 2054.66,-99.36 2201.5,-86.67"/>
<polygon fill="midnightblue" stroke="midnightblue" points="2202.15,-90.13 2211.81,-85.79 2201.55,-83.16 2202.15,-90.13"/>
</g>
<!-- Node19&#45;&gt;Node8 -->
<g id="edge32" class="edge">
<title>Node19&#45;&gt;Node8</title>
<path fill="none" stroke="midnightblue" d="M1075.64,-638.4C864.32,-630.48 190.21,-598.18 190.21,-508.5 190.21,-508.5 190.21,-508.5 190.21,-439.5 190.21,-293.9 590.98,-112.75 729.21,-67 846.51,-28.18 1229.67,-19 1355.65,-17.01"/>
<polygon fill="midnightblue" stroke="midnightblue" points="1356.05,-20.51 1366,-16.86 1355.95,-13.51 1356.05,-20.51"/>
</g>
<!-- Node19&#45;&gt;Node13 -->
<g id="edge31" class="edge">
<title>Node19&#45;&gt;Node13</title>
<path fill="none" stroke="midnightblue" d="M1075.55,-639.9C904.91,-637.77 434.71,-628.48 285.21,-590 203.67,-569.01 114.21,-592.69 114.21,-508.5 114.21,-508.5 114.21,-508.5 114.21,-143 114.21,-107.58 111.37,-90.12 138.21,-67 180.6,-30.47 351.2,-20.19 423.53,-17.45"/>
<polygon fill="midnightblue" stroke="midnightblue" points="424,-20.93 433.87,-17.08 423.75,-13.94 424,-20.93"/>
</g>
<!-- Node20 -->
<g id="node20" class="node">
<title>Node20</title>
<g id="a_node20"><a xlink:title=" ">
<polygon fill="none" stroke="#bfbfbf" points="1706.71,-302.5 1706.71,-321.5 1759.71,-321.5 1759.71,-302.5 1706.71,-302.5"/>
<text text-anchor="middle" x="1733.21" y="-309.5" font-family="Helvetica,sans-Serif" font-size="10.00">cstddef</text>
</a>
</g>
</g>
<!-- Node19&#45;&gt;Node20 -->
<g id="edge34" class="edge">
<title>Node19&#45;&gt;Node20</title>
<path fill="none" stroke="midnightblue" d="M1200.81,-632.11C1280.7,-619.11 1420.68,-588.43 1522.21,-523 1567.31,-493.94 1678.04,-373.89 1718.28,-329.55"/>
<polygon fill="midnightblue" stroke="midnightblue" points="1721.03,-331.73 1725.14,-321.97 1715.84,-327.03 1721.03,-331.73"/>
</g>
<!-- Node21 -->
<g id="node21" class="node">
<title>Node21</title>
<g id="a_node21"><a xlink:href="../../dd/d5f/serializer_8h.html" target="_top" xlink:title=" ">
<polygon fill="none" stroke="red" points="2328.71,-302.5 2328.71,-321.5 2441.71,-321.5 2441.71,-302.5 2328.71,-302.5"/>
<text text-anchor="middle" x="2385.21" y="-309.5" font-family="Helvetica,sans-Serif" font-size="10.00">includes/serializer.h</text>
</a>
</g>
</g>
<!-- Node19&#45;&gt;Node21 -->
<g id="edge36" class="edge">
<title>Node19&#45;&gt;Node21</title>
<path fill="none" stroke="midnightblue" d="M1193.38,-631.99C1252.05,-622.69 1347.48,-606.86 1429.21,-590 1737.59,-526.38 1808.17,-480.04 2118.21,-425 2186.06,-412.95 2380.4,-440.48 2426.21,-389 2442.54,-370.64 2421.15,-344.64 2403.65,-328.31"/>
<polygon fill="midnightblue" stroke="midnightblue" points="2405.83,-325.56 2396.03,-321.54 2401.19,-330.8 2405.83,-325.56"/>
</g>
<!-- Node54 -->
<g id="node25" class="node">
<title>Node54</title>
<g id="a_node25"><a xlink:href="../../d1/d8c/logger_8h.html" target="_top" xlink:title=" ">
<polygon fill="none" stroke="red" points="761.21,-190.5 761.21,-209.5 881.21,-209.5 881.21,-190.5 761.21,-190.5"/>
<text text-anchor="middle" x="821.21" y="-197.5" font-family="Helvetica,sans-Serif" font-size="10.00">input_output/logger.h</text>
</a>
</g>
</g>
<!-- Node19&#45;&gt;Node54 -->
<g id="edge96" class="edge">
<title>Node19&#45;&gt;Node54</title>
<path fill="none" stroke="midnightblue" d="M1075.52,-640.28C921.83,-639.09 535.94,-631.91 497.21,-590 410.19,-495.86 437.92,-405.76 513.21,-302 567.26,-227.5 677.96,-206.97 750.87,-201.86"/>
<polygon fill="midnightblue" stroke="midnightblue" points="751.13,-205.35 760.9,-201.23 750.7,-198.36 751.13,-205.35"/>
</g>
<!-- Node58 -->
<g id="node26" class="node">
<title>Node58</title>
<g id="a_node26"><a xlink:href="../../de/db8/process__info_8h.html" target="_top" xlink:title=" ">
<polygon fill="none" stroke="black" points="1072.71,-565 1072.71,-584 1203.71,-584 1203.71,-565 1072.71,-565"/>
<text text-anchor="middle" x="1138.21" y="-572" font-family="Helvetica,sans-Serif" font-size="10.00">includes/process_info.h</text>
</a>
</g>
</g>
<!-- Node19&#45;&gt;Node58 -->
<g id="edge55" class="edge">
<title>Node19&#45;&gt;Node58</title>
<path fill="none" stroke="midnightblue" d="M1138.21,-631.73C1138.21,-622.18 1138.21,-606.62 1138.21,-594.28"/>
<polygon fill="midnightblue" stroke="midnightblue" points="1141.71,-594.13 1138.21,-584.13 1134.71,-594.13 1141.71,-594.13"/>
</g>
<!-- Node59 -->
<g id="node27" class="node">
<title>Node59</title>
<g id="a_node27"><a xlink:href="../../d1/d82/data__value__container_8h.html" target="_top" xlink:title=" ">
<polygon fill="none" stroke="black" points="1388.71,-492.5 1388.71,-522.5 1513.71,-522.5 1513.71,-492.5 1388.71,-492.5"/>
<text text-anchor="start" x="1396.71" y="-510.5" font-family="Helvetica,sans-Serif" font-size="10.00">containers/data_value</text>
<text text-anchor="middle" x="1451.21" y="-499.5" font-family="Helvetica,sans-Serif" font-size="10.00">_container.h</text>
</a>
</g>
</g>
<!-- Node19&#45;&gt;Node59 -->
<g id="edge89" class="edge">
<title>Node19&#45;&gt;Node59</title>
<path fill="none" stroke="midnightblue" d="M1171.32,-631.97C1204.13,-623.07 1255.5,-607.93 1298.21,-590 1341.46,-571.84 1388.76,-545.58 1419.15,-527.81"/>
<polygon fill="midnightblue" stroke="midnightblue" points="1421.17,-530.68 1428.01,-522.59 1417.62,-524.65 1421.17,-530.68"/>
</g>
<!-- Node60 -->
<g id="node28" class="node">
<title>Node60</title>
<g id="a_node28"><a xlink:href="../../da/d89/variable_8h.html" target="_top" xlink:title=" ">
<polygon fill="none" stroke="red" points="1092.71,-246.5 1092.71,-265.5 1211.71,-265.5 1211.71,-246.5 1092.71,-246.5"/>
<text text-anchor="middle" x="1152.21" y="-253.5" font-family="Helvetica,sans-Serif" font-size="10.00">containers/variable.h</text>
</a>
</g>
</g>
<!-- Node19&#45;&gt;Node60 -->
<g id="edge101" class="edge">
<title>Node19&#45;&gt;Node60</title>
<path fill="none" stroke="midnightblue" d="M1109.93,-631.92C1036.22,-607.87 846.9,-534.3 891.21,-425 906.79,-386.55 920.91,-379.8 956.21,-358 1001.41,-330.08 1023.28,-346.92 1070.21,-322 1095.35,-308.65 1120.43,-287.29 1136.11,-272.73"/>
<polygon fill="midnightblue" stroke="midnightblue" points="1138.56,-275.23 1143.4,-265.81 1133.74,-270.16 1138.56,-275.23"/>
</g>
<!-- Node105 -->
<g id="node33" class="node">
<title>Node105</title>
<g id="a_node33"><a xlink:href="../../dd/d98/table_8h.html" target="_top" xlink:title=" ">
<polygon fill="none" stroke="black" points="522.21,-302.5 522.21,-321.5 616.21,-321.5 616.21,-302.5 522.21,-302.5"/>
<text text-anchor="middle" x="569.21" y="-309.5" font-family="Helvetica,sans-Serif" font-size="10.00">includes/table.h</text>
</a>
</g>
</g>
<!-- Node19&#45;&gt;Node105 -->
<g id="edge90" class="edge">
<title>Node19&#45;&gt;Node105</title>
<path fill="none" stroke="midnightblue" d="M1075.46,-638.06C943.84,-632.43 647.96,-616.91 611.21,-590 529.13,-529.89 553.13,-383.11 564.67,-331.39"/>
<polygon fill="midnightblue" stroke="midnightblue" points="568.08,-332.15 566.96,-321.62 561.27,-330.56 568.08,-332.15"/>
</g>
<!-- Node100 -->
<g id="node34" class="node">
<title>Node100</title>
<g id="a_node34"><a xlink:href="../../d0/dac/kratos__flags_8h.html" target="_top" xlink:title=" ">
<polygon fill="none" stroke="black" points="938.21,-498 938.21,-517 1066.21,-517 1066.21,-498 938.21,-498"/>
<text text-anchor="middle" x="1002.21" y="-505" font-family="Helvetica,sans-Serif" font-size="10.00">includes/kratos_flags.h</text>
</a>
</g>
</g>
<!-- Node19&#45;&gt;Node100 -->
<g id="edge97" class="edge">
<title>Node19&#45;&gt;Node100</title>
<path fill="none" stroke="midnightblue" d="M1122.45,-631.99C1106.46,-622.9 1081.52,-607.42 1063.21,-590 1042.57,-570.37 1023.74,-543.16 1012.62,-525.69"/>
<polygon fill="midnightblue" stroke="midnightblue" points="1015.53,-523.74 1007.28,-517.09 1009.59,-527.43 1015.53,-523.74"/>
</g>
<!-- Node21&#45;&gt;Node3 -->
<g id="edge42" class="edge">
<title>Node21&#45;&gt;Node3</title>
<path fill="none" stroke="midnightblue" d="M2379.54,-302.21C2369.84,-287.95 2348.64,-259.96 2323.21,-246 2308.57,-237.97 2217.53,-221.51 2155.02,-210.88"/>
<polygon fill="midnightblue" stroke="midnightblue" points="2155.3,-207.38 2144.86,-209.16 2154.13,-214.28 2155.3,-207.38"/>
</g>
<!-- Node21&#45;&gt;Node5 -->
<g id="edge41" class="edge">
<title>Node21&#45;&gt;Node5</title>
<path fill="none" stroke="midnightblue" d="M2380.94,-302.43C2374.61,-289.85 2362.16,-265.73 2350.21,-246 2317.09,-191.31 2273.4,-129.46 2252.45,-100.35"/>
<polygon fill="midnightblue" stroke="midnightblue" points="2255.18,-98.16 2246.49,-92.1 2249.51,-102.26 2255.18,-98.16"/>
</g>
<!-- Node21&#45;&gt;Node8 -->
<g id="edge38" class="edge">
<title>Node21&#45;&gt;Node8</title>
<path fill="none" stroke="midnightblue" d="M2441.83,-308.28C2541.43,-302.91 2739.45,-289.39 2760.21,-266 2783.69,-239.53 2889.79,-208.03 2707.21,-67 2658.38,-29.28 1658.82,-34.22 1597.21,-31 1541.44,-28.09 1477.08,-23.17 1436.52,-19.88"/>
<polygon fill="midnightblue" stroke="midnightblue" points="1436.74,-16.39 1426.49,-19.06 1436.17,-23.36 1436.74,-16.39"/>
</g>
<!-- Node21&#45;&gt;Node13 -->
<g id="edge37" class="edge">
<title>Node21&#45;&gt;Node13</title>
<path fill="none" stroke="midnightblue" d="M2328.36,-302.7C2242.11,-290.15 2073,-265.71 1929.21,-246 1466.22,-182.54 1348.04,-181.31 888.21,-98 818.65,-85.4 801.64,-80.25 732.21,-67 644.02,-50.17 539.76,-31.4 488.28,-22.2"/>
<polygon fill="midnightblue" stroke="midnightblue" points="488.87,-18.76 478.41,-20.44 487.64,-25.65 488.87,-18.76"/>
</g>
<!-- Node21&#45;&gt;Node18 -->
<g id="edge40" class="edge">
<title>Node21&#45;&gt;Node18</title>
<path fill="none" stroke="midnightblue" d="M2328.65,-306.14C2209.41,-295.88 1933.44,-272.15 1814,-261.88"/>
<polygon fill="midnightblue" stroke="midnightblue" points="1814.23,-258.39 1803.97,-261.02 1813.63,-265.36 1814.23,-258.39"/>
</g>
<!-- Node23 -->
<g id="node22" class="node">
<title>Node23</title>
<g id="a_node22"><a xlink:title=" ">
<polygon fill="none" stroke="#bfbfbf" points="1654.21,-246.5 1654.21,-265.5 1692.21,-265.5 1692.21,-246.5 1654.21,-246.5"/>
<text text-anchor="middle" x="1673.21" y="-253.5" font-family="Helvetica,sans-Serif" font-size="10.00">map</text>
</a>
</g>
</g>
<!-- Node21&#45;&gt;Node23 -->
<g id="edge39" class="edge">
<title>Node21&#45;&gt;Node23</title>
<path fill="none" stroke="midnightblue" d="M2328.59,-309.06C2190.57,-304.06 1838.7,-289.56 1702.16,-265.64"/>
<polygon fill="midnightblue" stroke="midnightblue" points="1702.79,-262.2 1692.33,-263.83 1701.53,-269.08 1702.79,-262.2"/>
</g>
<!-- Node27 -->
<g id="node23" class="node">
<title>Node27</title>
<g id="a_node23"><a xlink:href="../../d9/da0/flags_8h.html" target="_top" xlink:title=" ">
<polygon fill="none" stroke="black" points="712.71,-246.5 712.71,-265.5 815.71,-265.5 815.71,-246.5 712.71,-246.5"/>
<text text-anchor="middle" x="764.21" y="-253.5" font-family="Helvetica,sans-Serif" font-size="10.00">containers/flags.h</text>
</a>
</g>
</g>
<!-- Node21&#45;&gt;Node27 -->
<g id="edge43" class="edge">
<title>Node21&#45;&gt;Node27</title>
<path fill="none" stroke="midnightblue" d="M2328.46,-309.11C2079.61,-300.82 1085.61,-267.71 826.32,-259.07"/>
<polygon fill="midnightblue" stroke="midnightblue" points="826.08,-255.56 815.97,-258.72 825.85,-262.56 826.08,-255.56"/>
</g>
<!-- Node28 -->
<g id="node24" class="node">
<title>Node28</title>
<g id="a_node24"><a xlink:href="../../d9/d3e/ublas__interface_8h.html" target="_top" xlink:title=" ">
<polygon fill="none" stroke="red" points="2607.21,-246.5 2607.21,-265.5 2751.21,-265.5 2751.21,-246.5 2607.21,-246.5"/>
<text text-anchor="middle" x="2679.21" y="-253.5" font-family="Helvetica,sans-Serif" font-size="10.00">includes/ublas_interface.h</text>
</a>
</g>
</g>
<!-- Node21&#45;&gt;Node28 -->
<g id="edge47" class="edge">
<title>Node21&#45;&gt;Node28</title>
<path fill="none" stroke="midnightblue" d="M2431.79,-302.44C2483.62,-292.92 2567.34,-277.55 2622.82,-267.36"/>
<polygon fill="midnightblue" stroke="midnightblue" points="2623.64,-270.77 2632.84,-265.52 2622.37,-263.88 2623.64,-270.77"/>
</g>
<!-- Node21&#45;&gt;Node54 -->
<g id="edge51" class="edge">
<title>Node21&#45;&gt;Node54</title>
<path fill="none" stroke="midnightblue" d="M2328.4,-303.26C2225.62,-289.54 2001.84,-261 1812.21,-246 1457.4,-217.93 1367.74,-226.38 1012.21,-210 972.37,-208.16 927.85,-206.07 891.83,-204.36"/>
<polygon fill="midnightblue" stroke="midnightblue" points="891.58,-200.85 881.42,-203.87 891.24,-207.84 891.58,-200.85"/>
</g>
<!-- Node27&#45;&gt;Node3 -->
<g id="edge46" class="edge">
<title>Node27&#45;&gt;Node3</title>
<path fill="none" stroke="midnightblue" d="M815.97,-252.9C1025.65,-244.39 1811.22,-212.52 2035.24,-203.43"/>
<polygon fill="midnightblue" stroke="midnightblue" points="2035.62,-206.92 2045.47,-203.02 2035.34,-199.93 2035.62,-206.92"/>
</g>
<!-- Node27&#45;&gt;Node8 -->
<g id="edge45" class="edge">
<title>Node27&#45;&gt;Node8</title>
<path fill="none" stroke="midnightblue" d="M810.94,-246.49C836.54,-239.94 867.57,-228.73 890.21,-210 946.99,-163 912.53,-107.36 974.21,-67 1036.56,-26.2 1263.19,-18.35 1356.08,-16.85"/>
<polygon fill="midnightblue" stroke="midnightblue" points="1356.25,-20.35 1366.2,-16.7 1356.15,-13.35 1356.25,-20.35"/>
</g>
<!-- Node27&#45;&gt;Node13 -->
<g id="edge44" class="edge">
<title>Node27&#45;&gt;Node13</title>
<path fill="none" stroke="midnightblue" d="M721.18,-246.43C694.02,-239.6 659.12,-228.12 632.21,-210 562.42,-163.02 565.99,-128.14 508.21,-67 496.88,-55.02 483.53,-42.08 473.2,-32.3"/>
<polygon fill="midnightblue" stroke="midnightblue" points="475.33,-29.5 465.65,-25.21 470.54,-34.6 475.33,-29.5"/>
</g>
<!-- Node28&#45;&gt;Node3 -->
<g id="edge50" class="edge">
<title>Node28&#45;&gt;Node3</title>
<path fill="none" stroke="midnightblue" d="M2606.96,-247.33C2602.3,-246.87 2597.69,-246.42 2593.21,-246 2400.5,-227.93 2351.56,-231.49 2159.21,-210 2157.74,-209.84 2156.26,-209.67 2154.77,-209.49"/>
<polygon fill="midnightblue" stroke="midnightblue" points="2155.14,-206.01 2144.79,-208.26 2154.28,-212.96 2155.14,-206.01"/>
</g>
<!-- Node28&#45;&gt;Node8 -->
<g id="edge49" class="edge">
<title>Node28&#45;&gt;Node8</title>
<path fill="none" stroke="midnightblue" d="M2683.06,-246.38C2695.68,-216.68 2732.24,-117.68 2683.21,-67 2641.23,-23.61 1657.49,-34.17 1597.21,-31 1541.44,-28.07 1477.08,-23.15 1436.52,-19.87"/>
<polygon fill="midnightblue" stroke="midnightblue" points="1436.74,-16.38 1426.49,-19.05 1436.17,-23.35 1436.74,-16.38"/>
</g>
<!-- Node28&#45;&gt;Node13 -->
<g id="edge48" class="edge">
<title>Node28&#45;&gt;Node13</title>
<path fill="none" stroke="midnightblue" d="M2622.15,-246.49C2525.76,-232.44 2324.43,-204.51 2153.21,-190 1807.41,-160.7 1718.08,-192.72 1373.21,-154 1155.58,-129.57 1104.84,-99.06 888.21,-67 739.36,-44.97 560.48,-26.64 488.52,-19.6"/>
<polygon fill="midnightblue" stroke="midnightblue" points="488.59,-16.09 478.3,-18.6 487.91,-23.05 488.59,-16.09"/>
</g>
<!-- Node54&#45;&gt;Node8 -->
<g id="edge53" class="edge">
<title>Node54&#45;&gt;Node8</title>
<path fill="none" stroke="midnightblue" d="M823.32,-190.32C829.76,-166 851.58,-97.01 898.21,-67 973.62,-18.46 1251.18,-15.36 1355.88,-15.99"/>
<polygon fill="midnightblue" stroke="midnightblue" points="1356.01,-19.49 1366.04,-16.06 1356.06,-12.49 1356.01,-19.49"/>
</g>
<!-- Node54&#45;&gt;Node12 -->
<g id="edge54" class="edge">
<title>Node54&#45;&gt;Node12</title>
<path fill="none" stroke="midnightblue" d="M881.22,-193.77C996.94,-183.69 1250.29,-161.63 1372.53,-150.98"/>
<polygon fill="midnightblue" stroke="midnightblue" points="1372.86,-154.47 1382.52,-150.11 1372.26,-147.49 1372.86,-154.47"/>
</g>
<!-- Node54&#45;&gt;Node13 -->
<g id="edge52" class="edge">
<title>Node54&#45;&gt;Node13</title>
<path fill="none" stroke="midnightblue" d="M815.84,-190.19C800.69,-166.14 754.97,-98.99 698.21,-67 630.42,-28.8 537.28,-19.38 488.69,-17.13"/>
<polygon fill="midnightblue" stroke="midnightblue" points="488.59,-13.63 478.46,-16.74 488.32,-20.62 488.59,-13.63"/>
</g>
<!-- Node58&#45;&gt;Node3 -->
<g id="edge60" class="edge">
<title>Node58&#45;&gt;Node3</title>
<path fill="none" stroke="midnightblue" d="M1144.24,-564.76C1175.24,-520.69 1322.05,-321.87 1498.21,-246 1593.59,-204.92 1903.85,-200.55 2035.39,-200.62"/>
<polygon fill="midnightblue" stroke="midnightblue" points="2035.67,-204.12 2045.67,-200.63 2035.68,-197.12 2035.67,-204.12"/>
</g>
<!-- Node58&#45;&gt;Node5 -->
<g id="edge58" class="edge">
<title>Node58&#45;&gt;Node5</title>
<path fill="none" stroke="midnightblue" d="M1140.96,-564.76C1148.54,-541.23 1171.14,-475 1200.21,-425 1270.31,-304.42 1285.38,-256.1 1408.21,-190 1445.47,-169.95 1548.64,-141.91 1590.21,-134 1708.8,-111.44 2081.06,-91.41 2201.91,-85.36"/>
<polygon fill="midnightblue" stroke="midnightblue" points="2202.33,-88.85 2212.15,-84.85 2201.99,-81.85 2202.33,-88.85"/>
</g>
<!-- Node58&#45;&gt;Node8 -->
<g id="edge57" class="edge">
<title>Node58&#45;&gt;Node8</title>
<path fill="none" stroke="midnightblue" d="M1072.66,-566.33C993.65,-557.11 865.92,-540.25 821.21,-523 664.01,-462.37 440.06,-453.78 513.21,-302 585.98,-150.99 652.49,-129.05 808.21,-67 908.12,-27.19 1239.62,-18.71 1355.66,-16.95"/>
<polygon fill="midnightblue" stroke="midnightblue" points="1355.94,-20.45 1365.89,-16.8 1355.84,-13.45 1355.94,-20.45"/>
</g>
<!-- Node58&#45;&gt;Node13 -->
<g id="edge56" class="edge">
<title>Node58&#45;&gt;Node13</title>
<path fill="none" stroke="midnightblue" d="M1072.49,-569.7C989.73,-563.97 843.54,-550.7 721.21,-523 588.11,-492.86 562.01,-460.37 430.21,-425 352.25,-404.08 317.56,-436.37 252.21,-389 199.73,-350.96 190.21,-321.82 190.21,-257 190.21,-257 190.21,-257 190.21,-143 190.21,-107.58 187.94,-90.76 214.21,-67 244.7,-39.42 365.08,-24.84 423.73,-19.25"/>
<polygon fill="midnightblue" stroke="midnightblue" points="424.3,-22.71 433.93,-18.3 423.65,-15.74 424.3,-22.71"/>
</g>
<!-- Node58&#45;&gt;Node20 -->
<g id="edge59" class="edge">
<title>Node58&#45;&gt;Node20</title>
<path fill="none" stroke="midnightblue" d="M1155.43,-564.92C1216.33,-534.72 1427.54,-431.19 1607.21,-358 1637.21,-345.78 1671.93,-333.51 1697.31,-324.88"/>
<polygon fill="midnightblue" stroke="midnightblue" points="1698.54,-328.16 1706.89,-321.65 1696.3,-321.53 1698.54,-328.16"/>
</g>
<!-- Node58&#45;&gt;Node27 -->
<g id="edge88" class="edge">
<title>Node58&#45;&gt;Node27</title>
<path fill="none" stroke="midnightblue" d="M1072.69,-568.53C1018.51,-562.64 940.47,-549.95 877.21,-523 829.67,-502.75 822.76,-488.02 782.21,-456 746.87,-428.09 724.74,-430.04 706.21,-389 690.29,-353.76 689.2,-336.72 706.21,-302 712.73,-288.68 725.3,-278.18 737.08,-270.68"/>
<polygon fill="midnightblue" stroke="midnightblue" points="738.98,-273.62 745.82,-265.53 735.42,-267.59 738.98,-273.62"/>
</g>
<!-- Node58&#45;&gt;Node59 -->
<g id="edge61" class="edge">
<title>Node58&#45;&gt;Node59</title>
<path fill="none" stroke="midnightblue" d="M1179.45,-564.94C1230,-554.44 1316.57,-536.46 1378.41,-523.62"/>
<polygon fill="midnightblue" stroke="midnightblue" points="1379.42,-526.98 1388.5,-521.52 1378,-520.13 1379.42,-526.98"/>
</g>
<!-- Node59&#45;&gt;Node3 -->
<g id="edge66" class="edge">
<title>Node59&#45;&gt;Node3</title>
<path fill="none" stroke="midnightblue" d="M1454.2,-492.1C1460.38,-464.5 1476.37,-402.9 1504.21,-358 1540.65,-299.23 1549.89,-275.97 1612.21,-246 1685.53,-210.74 1923.32,-203.07 2035.54,-201.43"/>
<polygon fill="midnightblue" stroke="midnightblue" points="2035.72,-204.93 2045.67,-201.29 2035.62,-197.93 2035.72,-204.93"/>
</g>
<!-- Node59&#45;&gt;Node8 -->
<g id="edge63" class="edge">
<title>Node59&#45;&gt;Node8</title>
<path fill="none" stroke="midnightblue" d="M1436.59,-492.18C1407.6,-462.94 1342.66,-393.12 1308.21,-322 1284.05,-272.14 1278.21,-256.41 1278.21,-201 1278.21,-201 1278.21,-201 1278.21,-143 1278.21,-89.88 1334.53,-49.78 1369.35,-30.06"/>
<polygon fill="midnightblue" stroke="midnightblue" points="1371.44,-32.91 1378.54,-25.05 1368.09,-26.77 1371.44,-32.91"/>
</g>
<!-- Node59&#45;&gt;Node12 -->
<g id="edge87" class="edge">
<title>Node59&#45;&gt;Node12</title>
<path fill="none" stroke="midnightblue" d="M1450.81,-492.33C1449.26,-436.04 1443.51,-228.24 1441.73,-164.03"/>
<polygon fill="midnightblue" stroke="midnightblue" points="1445.22,-163.68 1441.45,-153.78 1438.23,-163.87 1445.22,-163.68"/>
</g>
<!-- Node59&#45;&gt;Node13 -->
<g id="edge62" class="edge">
<title>Node59&#45;&gt;Node13</title>
<path fill="none" stroke="midnightblue" d="M1388.35,-503.29C1284.43,-497.43 1070.5,-483.05 891.21,-456 855.82,-450.66 610.43,-399.46 576.21,-389 500.12,-365.75 477.82,-363.93 410.21,-322 332.74,-273.95 312.02,-223.71 328.21,-134 333.85,-102.72 331.87,-90.56 353.21,-67 372.11,-46.14 401.54,-32.92 424.11,-25.26"/>
<polygon fill="midnightblue" stroke="midnightblue" points="425.47,-28.5 433.93,-22.13 423.34,-21.83 425.47,-28.5"/>
</g>
<!-- Node59&#45;&gt;Node14 -->
<g id="edge65" class="edge">
<title>Node59&#45;&gt;Node14</title>
<path fill="none" stroke="midnightblue" d="M1514.01,-496.87C1632.03,-479.22 1895.15,-441.92 2118.21,-425 2184.99,-419.93 3274.76,-435.24 3323.21,-389 3426.89,-290.03 3379.16,-205.22 3341.21,-67 3337.88,-54.9 3330.83,-42.77 3324.4,-33.43"/>
<polygon fill="midnightblue" stroke="midnightblue" points="3327.05,-31.14 3318.33,-25.13 3321.4,-35.27 3327.05,-31.14"/>
</g>
<!-- Node59&#45;&gt;Node20 -->
<g id="edge64" class="edge">
<title>Node59&#45;&gt;Node20</title>
<path fill="none" stroke="midnightblue" d="M1469.43,-492.36C1504.72,-465.21 1585.16,-404.33 1656.21,-358 1673.39,-346.79 1693.41,-335.13 1708.73,-326.49"/>
<polygon fill="midnightblue" stroke="midnightblue" points="1710.58,-329.47 1717.6,-321.53 1707.16,-323.36 1710.58,-329.47"/>
</g>
<!-- Node59&#45;&gt;Node60 -->
<g id="edge67" class="edge">
<title>Node59&#45;&gt;Node60</title>
<path fill="none" stroke="midnightblue" d="M1388.29,-506.21C1340.74,-502.9 1276.34,-491.4 1232.21,-456 1174.71,-409.89 1158.3,-316.13 1153.81,-275.96"/>
<polygon fill="midnightblue" stroke="midnightblue" points="1157.29,-275.54 1152.82,-265.93 1150.32,-276.22 1157.29,-275.54"/>
</g>
<!-- Node59&#45;&gt;Node63 -->
<g id="edge72" class="edge">
<title>Node59&#45;&gt;Node63</title>
<path fill="none" stroke="midnightblue" d="M1388.58,-497.8C1301.91,-485.76 1145.82,-464.08 1054.69,-451.43"/>
<polygon fill="midnightblue" stroke="midnightblue" points="1055.11,-447.95 1044.72,-450.04 1054.15,-454.89 1055.11,-447.95"/>
</g>
<!-- Node60&#45;&gt;Node3 -->
<g id="edge70" class="edge">
<title>Node60&#45;&gt;Node3</title>
<path fill="none" stroke="midnightblue" d="M1211.91,-251.58C1381.72,-241.86 1866.09,-214.12 2035.68,-204.41"/>
<polygon fill="midnightblue" stroke="midnightblue" points="2035.89,-207.9 2045.67,-203.84 2035.49,-200.91 2035.89,-207.9"/>
</g>
<!-- Node60&#45;&gt;Node8 -->
<g id="edge69" class="edge">
<title>Node60&#45;&gt;Node8</title>
<path fill="none" stroke="midnightblue" d="M1155.1,-246.12C1165.19,-216.45 1201.7,-119.59 1264.21,-67 1290.63,-44.77 1327.89,-31.72 1356.08,-24.48"/>
<polygon fill="midnightblue" stroke="midnightblue" points="1357.13,-27.82 1366.03,-22.06 1355.48,-21.02 1357.13,-27.82"/>
</g>
<!-- Node60&#45;&gt;Node13 -->
<g id="edge68" class="edge">
<title>Node60&#45;&gt;Node13</title>
<path fill="none" stroke="midnightblue" d="M1092.4,-254.46C995.06,-252.57 807.65,-244.42 752.21,-210 688,-170.14 721.67,-110.96 660.21,-67 608.09,-29.72 531.48,-19.83 488.5,-17.28"/>
<polygon fill="midnightblue" stroke="midnightblue" points="488.49,-13.78 478.33,-16.78 488.15,-20.77 488.49,-13.78"/>
</g>
<!-- Node60&#45;&gt;Node16 -->
<g id="edge71" class="edge">
<title>Node60&#45;&gt;Node16</title>
<path fill="none" stroke="midnightblue" d="M1184.34,-246.5C1291.54,-218.12 1636.92,-126.71 1757.89,-94.7"/>
<polygon fill="midnightblue" stroke="midnightblue" points="1759.11,-98 1767.88,-92.06 1757.32,-91.23 1759.11,-98"/>
</g>
<!-- Node63&#45;&gt;Node3 -->
<g id="edge77" class="edge">
<title>Node63&#45;&gt;Node3</title>
<path fill="none" stroke="midnightblue" d="M997.48,-430.83C1050.49,-399.15 1241.99,-289.23 1416.21,-246 1532.68,-217.1 1891.94,-205.73 2035.26,-202.27"/>
<polygon fill="midnightblue" stroke="midnightblue" points="2035.7,-205.76 2045.61,-202.02 2035.53,-198.76 2035.7,-205.76"/>
</g>
<!-- Node63&#45;&gt;Node8 -->
<g id="edge74" class="edge">
<title>Node63&#45;&gt;Node8</title>
<path fill="none" stroke="midnightblue" d="M962.75,-430.89C921.25,-411.99 832.79,-363.59 853.21,-302 858.33,-286.55 1014.19,-75.28 1028.21,-67 1083.05,-34.6 1272.39,-22.13 1355.99,-18.13"/>
<polygon fill="midnightblue" stroke="midnightblue" points="1356.29,-21.62 1366.12,-17.66 1355.97,-14.63 1356.29,-21.62"/>
</g>
<!-- Node63&#45;&gt;Node13 -->
<g id="edge73" class="edge">
<title>Node63&#45;&gt;Node13</title>
<path fill="none" stroke="midnightblue" d="M936.56,-430.99C814.22,-408.41 490.57,-347.04 448.21,-322 386.66,-285.62 342.21,-272.49 342.21,-201 342.21,-201 342.21,-201 342.21,-143 342.21,-90.57 396.91,-50.08 430.53,-30.14"/>
<polygon fill="midnightblue" stroke="midnightblue" points="432.44,-33.08 439.39,-25.07 428.97,-27 432.44,-33.08"/>
</g>
<!-- Node63&#45;&gt;Node23 -->
<g id="edge75" class="edge">
<title>Node63&#45;&gt;Node23</title>
<path fill="none" stroke="midnightblue" d="M1015.56,-430.94C1132.61,-399.98 1533,-294.08 1644.29,-264.65"/>
<polygon fill="midnightblue" stroke="midnightblue" points="1645.37,-267.98 1654.14,-262.04 1643.58,-261.22 1645.37,-267.98"/>
</g>
<!-- Node63&#45;&gt;Node27 -->
<g id="edge83" class="edge">
<title>Node63&#45;&gt;Node27</title>
<path fill="none" stroke="midnightblue" d="M947.56,-430.95C920.91,-423.24 884.67,-409.88 858.21,-389 817.49,-356.87 786.67,-302.56 772.6,-274.68"/>
<polygon fill="midnightblue" stroke="midnightblue" points="775.74,-273.13 768.19,-265.69 769.46,-276.21 775.74,-273.13"/>
</g>
<!-- Node63&#45;&gt;Node60 -->
<g id="edge84" class="edge">
<title>Node63&#45;&gt;Node60</title>
<path fill="none" stroke="midnightblue" d="M977.52,-430.87C967.71,-414.78 950.22,-379.86 967.21,-358 1006.88,-306.92 1055.3,-359.2 1108.21,-322 1125.05,-310.15 1137.34,-289.64 1144.59,-274.82"/>
<polygon fill="midnightblue" stroke="midnightblue" points="1147.8,-276.2 1148.79,-265.65 1141.44,-273.29 1147.8,-276.2"/>
</g>
<!-- Node64 -->
<g id="node30" class="node">
<title>Node64</title>
<g id="a_node30"><a xlink:title=" ">
<polygon fill="none" stroke="#bfbfbf" points="976.71,-364 976.71,-383 1033.71,-383 1033.71,-364 976.71,-364"/>
<text text-anchor="middle" x="1005.21" y="-371" font-family="Helvetica,sans-Serif" font-size="10.00">typeinfo</text>
</a>
</g>
</g>
<!-- Node63&#45;&gt;Node64 -->
<g id="edge76" class="edge">
<title>Node63&#45;&gt;Node64</title>
<path fill="none" stroke="midnightblue" d="M986.17,-430.73C989.44,-421.09 994.78,-405.3 998.98,-392.91"/>
<polygon fill="midnightblue" stroke="midnightblue" points="1002.4,-393.72 1002.29,-383.13 995.77,-391.48 1002.4,-393.72"/>
</g>
<!-- Node65 -->
<g id="node31" class="node">
<title>Node65</title>
<g id="a_node31"><a xlink:href="../../d9/dd1/data__communicator_8h.html" target="_top" xlink:title=" ">
<polygon fill="none" stroke="red" points="862.21,-302.5 862.21,-321.5 1028.21,-321.5 1028.21,-302.5 862.21,-302.5"/>
<text text-anchor="middle" x="945.21" y="-309.5" font-family="Helvetica,sans-Serif" font-size="10.00">includes/data_communicator.h</text>
</a>
</g>
</g>
<!-- Node63&#45;&gt;Node65 -->
<g id="edge78" class="edge">
<title>Node63&#45;&gt;Node65</title>
<path fill="none" stroke="midnightblue" d="M970.35,-430.83C958.42,-421.93 941.46,-406.89 934.21,-389 926.64,-370.33 931.84,-347.22 937.37,-331.41"/>
<polygon fill="midnightblue" stroke="midnightblue" points="940.75,-332.37 941.1,-321.78 934.22,-329.85 940.75,-332.37"/>
</g>
<!-- Node69 -->
<g id="node32" class="node">
<title>Node69</title>
<g id="a_node32"><a xlink:href="../../da/d07/quaternion_8h.html" target="_top" xlink:title=" ">
<polygon fill="none" stroke="red" points="2299.21,-364 2299.21,-383 2417.21,-383 2417.21,-364 2299.21,-364"/>
<text text-anchor="middle" x="2358.21" y="-371" font-family="Helvetica,sans-Serif" font-size="10.00">utilities/quaternion.h</text>
</a>
</g>
</g>
<!-- Node63&#45;&gt;Node69 -->
<g id="edge85" class="edge">
<title>Node63&#45;&gt;Node69</title>
<path fill="none" stroke="midnightblue" d="M1065.99,-437.04C1259.95,-431.05 1758.87,-414.31 2175.21,-389 2212.68,-386.72 2254.42,-383.47 2288.57,-380.62"/>
<polygon fill="midnightblue" stroke="midnightblue" points="2289.23,-384.08 2298.91,-379.75 2288.65,-377.1 2289.23,-384.08"/>
</g>
<!-- Node65&#45;&gt;Node3 -->
<g id="edge82" class="edge">
<title>Node65&#45;&gt;Node3</title>
<path fill="none" stroke="midnightblue" d="M958.63,-302.44C982.55,-287.72 1034.62,-258.01 1083.21,-246 1265.31,-200.99 1846.64,-199.75 2035.4,-200.58"/>
<polygon fill="midnightblue" stroke="midnightblue" points="2035.4,-204.08 2045.41,-200.63 2035.43,-197.08 2035.4,-204.08"/>
</g>
<!-- Node65&#45;&gt;Node8 -->
<g id="edge80" class="edge">
<title>Node65&#45;&gt;Node8</title>
<path fill="none" stroke="midnightblue" d="M948.34,-302.39C963.53,-260.88 1029.54,-82.87 1050.21,-67 1097.39,-30.78 1275.06,-20.42 1355.81,-17.55"/>
<polygon fill="midnightblue" stroke="midnightblue" points="1356.21,-21.04 1366.08,-17.21 1355.97,-14.05 1356.21,-21.04"/>
</g>
<!-- Node65&#45;&gt;Node13 -->
<g id="edge79" class="edge">
<title>Node65&#45;&gt;Node13</title>
<path fill="none" stroke="midnightblue" d="M930.65,-302.29C908.26,-289.1 863.82,-263.73 824.21,-246 781.47,-226.87 766.36,-232.32 725.21,-210 632.3,-159.61 622.02,-127.28 535.21,-67 516.65,-54.12 495,-40.36 479.06,-30.47"/>
<polygon fill="midnightblue" stroke="midnightblue" points="480.75,-27.4 470.4,-25.12 477.07,-33.35 480.75,-27.4"/>
</g>
<!-- Node65&#45;&gt;Node27 -->
<g id="edge81" class="edge">
<title>Node65&#45;&gt;Node27</title>
<path fill="none" stroke="midnightblue" d="M916.53,-302.44C885.68,-293.24 836.48,-278.56 802.38,-268.39"/>
<polygon fill="midnightblue" stroke="midnightblue" points="803.34,-265.02 792.75,-265.52 801.33,-271.73 803.34,-265.02"/>
</g>
<!-- Node69&#45;&gt;Node21 -->
<g id="edge86" class="edge">
<title>Node69&#45;&gt;Node21</title>
<path fill="none" stroke="midnightblue" d="M2362.07,-363.98C2366,-355.32 2372.21,-341.65 2377.2,-330.65"/>
<polygon fill="midnightblue" stroke="midnightblue" points="2380.4,-332.06 2381.35,-321.51 2374.03,-329.17 2380.4,-332.06"/>
</g>
<!-- Node105&#45;&gt;Node3 -->
<g id="edge94" class="edge">
<title>Node105&#45;&gt;Node3</title>
<path fill="none" stroke="midnightblue" d="M588.94,-302.47C608.88,-293.73 640.48,-279.53 667.21,-266 683.54,-257.73 685.56,-250.88 703.21,-246 832.59,-210.23 1784.89,-202.66 2035.12,-201.28"/>
<polygon fill="midnightblue" stroke="midnightblue" points="2035.48,-204.78 2045.46,-201.22 2035.44,-197.78 2035.48,-204.78"/>
</g>
<!-- Node105&#45;&gt;Node8 -->
<g id="edge92" class="edge">
<title>Node105&#45;&gt;Node8</title>
<path fill="none" stroke="midnightblue" d="M576.99,-302.2C588.55,-289.34 611.13,-264.87 632.21,-246 680.59,-202.69 802.82,-90.9 863.21,-67 952.91,-31.5 1247.6,-20.37 1355.86,-17.43"/>
<polygon fill="midnightblue" stroke="midnightblue" points="1356.13,-20.92 1366.03,-17.16 1355.95,-13.92 1356.13,-20.92"/>
</g>
<!-- Node105&#45;&gt;Node13 -->
<g id="edge91" class="edge">
<title>Node105&#45;&gt;Node13</title>
<path fill="none" stroke="midnightblue" d="M557.82,-302.4C536.83,-285.48 494.21,-245.61 494.21,-201 494.21,-201 494.21,-201 494.21,-143 494.21,-102.85 476.43,-58.45 465.19,-34.39"/>
<polygon fill="midnightblue" stroke="midnightblue" points="468.22,-32.6 460.71,-25.13 461.92,-35.65 468.22,-32.6"/>
</g>
<!-- Node105&#45;&gt;Node54 -->
<g id="edge93" class="edge">
<title>Node105&#45;&gt;Node54</title>
<path fill="none" stroke="midnightblue" d="M580.12,-302.49C598.02,-288.88 635.15,-262.11 670.21,-246 702.81,-231.02 741.65,-219.57 771.77,-211.98"/>
<polygon fill="midnightblue" stroke="midnightblue" points="772.76,-215.34 781.63,-209.55 771.08,-208.54 772.76,-215.34"/>
</g>
<!-- Node105&#45;&gt;Node60 -->
<g id="edge95" class="edge">
<title>Node105&#45;&gt;Node60</title>
<path fill="none" stroke="midnightblue" d="M616.42,-306.63C718.89,-297.14 962.07,-274.61 1082.36,-263.47"/>
<polygon fill="midnightblue" stroke="midnightblue" points="1082.92,-266.93 1092.56,-262.53 1082.28,-259.96 1082.92,-266.93"/>
</g>
<!-- Node100&#45;&gt;Node3 -->
<g id="edge98" class="edge">
<title>Node100&#45;&gt;Node3</title>
<path fill="none" stroke="midnightblue" d="M1015.34,-497.84C1079,-456.03 1356.33,-275.9 1454.21,-246 1561.7,-213.17 1897.1,-204.14 2035.04,-201.79"/>
<polygon fill="midnightblue" stroke="midnightblue" points="2035.47,-205.28 2045.41,-201.61 2035.35,-198.28 2035.47,-205.28"/>
</g>
<!-- Node100&#45;&gt;Node27 -->
<g id="edge99" class="edge">
<title>Node100&#45;&gt;Node27</title>
<path fill="none" stroke="midnightblue" d="M977.08,-497.97C953.68,-489.37 918.42,-474.72 891.21,-456 828.64,-412.97 815.77,-391.51 785.21,-322 778.49,-306.73 772.82,-288.63 769.07,-275.4"/>
<polygon fill="midnightblue" stroke="midnightblue" points="772.41,-274.34 766.39,-265.62 765.65,-276.19 772.41,-274.34"/>
</g>
<!-- Node100&#45;&gt;Node63 -->
<g id="edge100" class="edge">
<title>Node100&#45;&gt;Node63</title>
<path fill="none" stroke="midnightblue" d="M999.64,-497.73C996.82,-488.09 992.21,-472.3 988.59,-459.91"/>
<polygon fill="midnightblue" stroke="midnightblue" points="991.89,-458.74 985.73,-450.13 985.17,-460.71 991.89,-458.74"/>
</g>
<!-- Node104&#45;&gt;Node3 -->
<g id="edge108" class="edge">
<title>Node104&#45;&gt;Node3</title>
<path fill="none" stroke="midnightblue" d="M1692.05,-700.58C1906.71,-694.86 2636.72,-669.85 2854.21,-590 2904.77,-571.43 2929.73,-570.46 2955.21,-523 3018.73,-404.62 2961.42,-289.17 2834.21,-246 2708.98,-203.5 2307.61,-200.25 2154.93,-200.61"/>
<polygon fill="midnightblue" stroke="midnightblue" points="2154.79,-197.11 2144.8,-200.64 2154.81,-204.11 2154.79,-197.11"/>
</g>
<!-- Node104&#45;&gt;Node8 -->
<g id="edge105" class="edge">
<title>Node104&#45;&gt;Node8</title>
<path fill="none" stroke="midnightblue" d="M1572.55,-700.61C1446.99,-697.13 1159.34,-686.16 1066.21,-657 1009.76,-639.33 997.36,-627 951.21,-590 919.55,-564.62 906.22,-559.83 889.21,-523 870.88,-483.33 872.61,-467.85 881.21,-425 887.55,-393.36 885.04,-379.39 909.21,-358 953.46,-318.83 996.58,-364.91 1037.21,-322 1075.09,-281.99 1064.21,-256.1 1064.21,-201 1064.21,-201 1064.21,-201 1064.21,-143 1064.21,-81.15 1267.98,-38.57 1356.24,-23.03"/>
<polygon fill="midnightblue" stroke="midnightblue" points="1356.9,-26.46 1366.16,-21.31 1355.71,-19.57 1356.9,-26.46"/>
</g>
<!-- Node104&#45;&gt;Node13 -->
<g id="edge104" class="edge">
<title>Node104&#45;&gt;Node13</title>
<path fill="none" stroke="midnightblue" d="M1572.54,-700.18C1352.47,-693.39 593.37,-669.32 485.21,-657 301.05,-636.03 76.21,-760.85 76.21,-575.5 76.21,-575.5 76.21,-575.5 76.21,-439.5 76.21,-356.65 38.21,-339.85 38.21,-257 38.21,-257 38.21,-257 38.21,-143 38.21,-95.54 70.88,-88.45 113.21,-67 167.32,-39.57 348.89,-24.03 423.64,-18.66"/>
<polygon fill="midnightblue" stroke="midnightblue" points="424.13,-22.13 433.86,-17.94 423.64,-15.15 424.13,-22.13"/>
</g>
<!-- Node104&#45;&gt;Node18 -->
<g id="edge107" class="edge">
<title>Node104&#45;&gt;Node18</title>
<path fill="none" stroke="midnightblue" d="M1631.36,-693.32C1627.42,-648.39 1614.34,-438.94 1697.21,-302 1705.1,-288.95 1718.34,-278.42 1730.37,-270.84"/>
<polygon fill="midnightblue" stroke="midnightblue" points="1732.39,-273.71 1739.23,-265.62 1728.83,-267.68 1732.39,-273.71"/>
</g>
<!-- Node104&#45;&gt;Node20 -->
<g id="edge106" class="edge">
<title>Node104&#45;&gt;Node20</title>
<path fill="none" stroke="midnightblue" d="M1642.14,-693.27C1662.74,-674.16 1708.21,-626.23 1708.21,-575.5 1708.21,-575.5 1708.21,-575.5 1708.21,-439.5 1708.21,-400.48 1719.8,-355.95 1727.19,-331.5"/>
<polygon fill="midnightblue" stroke="midnightblue" points="1730.59,-332.37 1730.24,-321.78 1723.91,-330.27 1730.59,-332.37"/>
</g>
<!-- Node104&#45;&gt;Node58 -->
<g id="edge161" class="edge">
<title>Node104&#45;&gt;Node58</title>
<path fill="none" stroke="midnightblue" d="M1590.24,-693.47C1548.88,-684.89 1483.97,-670.97 1428.21,-657 1337.23,-634.2 1231.4,-603.35 1176.17,-586.92"/>
<polygon fill="midnightblue" stroke="midnightblue" points="1177.05,-583.52 1166.47,-584.02 1175.05,-590.23 1177.05,-583.52"/>
</g>
<!-- Node104&#45;&gt;Node59 -->
<g id="edge160" class="edge">
<title>Node104&#45;&gt;Node59</title>
<path fill="none" stroke="midnightblue" d="M1624.2,-693.44C1597.52,-664.92 1511.17,-572.6 1471.49,-530.18"/>
<polygon fill="midnightblue" stroke="midnightblue" points="1473.81,-527.54 1464.42,-522.63 1468.7,-532.32 1473.81,-527.54"/>
</g>
<!-- Node104&#45;&gt;Node105 -->
<g id="edge162" class="edge">
<title>Node104&#45;&gt;Node105</title>
<path fill="none" stroke="midnightblue" d="M1572.68,-700.27C1356.27,-693.87 621.33,-671.2 573.21,-657 516.84,-640.37 488.39,-641.01 459.21,-590 437.57,-552.2 447.36,-533.91 459.21,-492 477.99,-425.55 529.15,-359.49 554.53,-329.58"/>
<polygon fill="midnightblue" stroke="midnightblue" points="557.35,-331.68 561.23,-321.82 552.05,-327.1 557.35,-331.68"/>
</g>
<!-- Node89 -->
<g id="node36" class="node">
<title>Node89</title>
<g id="a_node36"><a xlink:href="../../d1/d77/node_8h.html" target="_top" xlink:title=" ">
<polygon fill="none" stroke="black" points="2187.71,-632 2187.71,-651 2280.71,-651 2280.71,-632 2187.71,-632"/>
<text text-anchor="middle" x="2234.21" y="-639" font-family="Helvetica,sans-Serif" font-size="10.00">includes/node.h</text>
</a>
</g>
</g>
<!-- Node104&#45;&gt;Node89 -->
<g id="edge109" class="edge">
<title>Node104&#45;&gt;Node89</title>
<path fill="none" stroke="midnightblue" d="M1691.85,-696.1C1808.07,-684.62 2063.41,-659.38 2177.36,-648.12"/>
<polygon fill="midnightblue" stroke="midnightblue" points="2178,-651.57 2187.61,-647.11 2177.31,-644.61 2178,-651.57"/>
</g>
<!-- Node77 -->
<g id="node45" class="node">
<title>Node77</title>
<g id="a_node45"><a xlink:href="../../d9/d4c/includes_2indexed__object_8h.html" target="_top" xlink:title=" ">
<polygon fill="none" stroke="black" points="2023.71,-364 2023.71,-383 2166.71,-383 2166.71,-364 2023.71,-364"/>
<text text-anchor="middle" x="2095.21" y="-371" font-family="Helvetica,sans-Serif" font-size="10.00">includes/indexed_object.h</text>
</a>
</g>
</g>
<!-- Node104&#45;&gt;Node77 -->
<g id="edge156" class="edge">
<title>Node104&#45;&gt;Node77</title>
<path fill="none" stroke="midnightblue" d="M1652.08,-693.35C1670.7,-684.95 1699.06,-671.38 1722.21,-657 1867.31,-566.85 2025.72,-434.18 2077.66,-389.68"/>
<polygon fill="midnightblue" stroke="midnightblue" points="2080.02,-392.26 2085.32,-383.09 2075.46,-386.96 2080.02,-392.26"/>
</g>
<!-- Node89&#45;&gt;Node3 -->
<g id="edge115" class="edge">
<title>Node89&#45;&gt;Node3</title>
<path fill="none" stroke="midnightblue" d="M2226.13,-631.81C2203.56,-606.87 2140.11,-531.98 2118.21,-456 2114.39,-442.76 2111.56,-437.07 2118.21,-425 2132.67,-398.76 2160.74,-415.24 2175.21,-389 2181.86,-376.93 2178.42,-371.4 2175.21,-358 2162.05,-303.19 2126.38,-245.94 2107.43,-218.16"/>
<polygon fill="midnightblue" stroke="midnightblue" points="2110.07,-215.83 2101.49,-209.62 2104.32,-219.82 2110.07,-215.83"/>
</g>
<!-- Node89&#45;&gt;Node5 -->
<g id="edge112" class="edge">
<title>Node89&#45;&gt;Node5</title>
<path fill="none" stroke="midnightblue" d="M2280.87,-637.56C2451.64,-626.79 3032.63,-590.14 3033.21,-590 3256.73,-537.35 3382.28,-580.38 3509.21,-389 3532.53,-353.84 3506.2,-325.58 3471.21,-302 3117.21,-63.45 2937.62,-252.28 2522.21,-154 2498.92,-148.49 2495.21,-140.61 2472.21,-134 2385.82,-109.18 2359.17,-124.26 2273.21,-98 2271.28,-97.41 2269.31,-96.74 2267.34,-96.02"/>
<polygon fill="midnightblue" stroke="midnightblue" points="2268.31,-92.63 2257.73,-92.11 2265.67,-99.12 2268.31,-92.63"/>
</g>
<!-- Node89&#45;&gt;Node8 -->
<g id="edge111" class="edge">
<title>Node89&#45;&gt;Node8</title>
<path fill="none" stroke="midnightblue" d="M2280.73,-639.94C2453.88,-637.58 3060.7,-626.82 3250.21,-590 3419.7,-557.07 3609.21,-614.17 3609.21,-441.5 3609.21,-441.5 3609.21,-441.5 3609.21,-199 3609.21,-39.8 3432.26,-98.54 3276.21,-67 3093.31,-30.04 1783.6,-39.72 1597.21,-31 1541.43,-28.39 1477.07,-23.4 1436.51,-20.01"/>
<polygon fill="midnightblue" stroke="midnightblue" points="1436.74,-16.52 1426.48,-19.16 1436.16,-23.49 1436.74,-16.52"/>
</g>
<!-- Node89&#45;&gt;Node11 -->
<g id="edge147" class="edge">
<title>Node89&#45;&gt;Node11</title>
<path fill="none" stroke="midnightblue" d="M2281.11,-641.05C2415.49,-641.95 2813.09,-639.86 3138.21,-590 3301.21,-565 3373.82,-578.51 3484.21,-456 3508.05,-429.53 3518,-423.13 3528.21,-389 3539.92,-349.81 3526.02,-331.98 3498.21,-302 3378.61,-173.09 3170.25,-116.92 3060.53,-95.3"/>
<polygon fill="midnightblue" stroke="midnightblue" points="3061.03,-91.84 3050.55,-93.38 3059.7,-98.71 3061.03,-91.84"/>
</g>
<!-- Node89&#45;&gt;Node13 -->
<g id="edge110" class="edge">
<title>Node89&#45;&gt;Node13</title>
<path fill="none" stroke="midnightblue" d="M2187.33,-637.52C2135.82,-634.33 2050.65,-629.27 1977.21,-626 1733.1,-615.12 1120.15,-624.25 878.21,-590 758.35,-573.03 730.35,-557.14 614.21,-523 397.81,-459.39 152.21,-538.55 152.21,-313 152.21,-313 152.21,-313 152.21,-143 152.21,-105.43 159.35,-89.81 189.21,-67 225.71,-39.12 361.17,-24.43 423.92,-19"/>
<polygon fill="midnightblue" stroke="midnightblue" points="424.38,-22.48 434.05,-18.15 423.79,-15.5 424.38,-22.48"/>
</g>
<!-- Node89&#45;&gt;Node20 -->
<g id="edge113" class="edge">
<title>Node89&#45;&gt;Node20</title>
<path fill="none" stroke="midnightblue" d="M2187.63,-636.84C2141,-631.62 2068.31,-619.19 2012.21,-590 1884.78,-523.71 1778.32,-379.23 1744.46,-329.9"/>
<polygon fill="midnightblue" stroke="midnightblue" points="1747.34,-327.91 1738.84,-321.59 1741.55,-331.84 1747.34,-327.91"/>
</g>
<!-- Node89&#45;&gt;Node27 -->
<g id="edge146" class="edge">
<title>Node89&#45;&gt;Node27</title>
<path fill="none" stroke="midnightblue" d="M2187.32,-637.62C2135.81,-634.5 2050.64,-629.52 1977.21,-626 1571.13,-606.55 1464.89,-652.65 1063.21,-590 877.91,-561.1 762.32,-562.93 692.21,-389 687.4,-377.07 688.67,-311.73 694.21,-302 702.34,-287.72 717.06,-277.24 730.92,-270.01"/>
<polygon fill="midnightblue" stroke="midnightblue" points="732.78,-273 740.28,-265.52 729.75,-266.69 732.78,-273"/>
</g>
<!-- Node89&#45;&gt;Node59 -->
<g id="edge153" class="edge">
<title>Node89&#45;&gt;Node59</title>
<path fill="none" stroke="midnightblue" d="M2187.63,-635.25C2116.29,-626.98 1975.75,-609.82 1857.21,-590 1740.08,-570.42 1605.06,-542.18 1524.01,-524.6"/>
<polygon fill="midnightblue" stroke="midnightblue" points="1524.43,-521.11 1513.92,-522.41 1522.95,-527.95 1524.43,-521.11"/>
</g>
<!-- Node89&#45;&gt;Node100 -->
<g id="edge155" class="edge">
<title>Node89&#45;&gt;Node100</title>
<path fill="none" stroke="midnightblue" d="M2187.61,-636.63C2093.03,-628.68 1871.72,-609.6 1686.21,-590 1569.22,-577.64 1228.1,-536.15 1076.41,-517.6"/>
<polygon fill="midnightblue" stroke="midnightblue" points="1076.61,-514.09 1066.26,-516.35 1075.76,-521.04 1076.61,-514.09"/>
</g>
<!-- Node90 -->
<g id="node37" class="node">
<title>Node90</title>
<g id="a_node37"><a xlink:title=" ">
<polygon fill="none" stroke="#bfbfbf" points="2377.21,-565 2377.21,-584 2427.21,-584 2427.21,-565 2377.21,-565"/>
<text text-anchor="middle" x="2402.21" y="-572" font-family="Helvetica,sans-Serif" font-size="10.00">atomic</text>
</a>
</g>
</g>
<!-- Node89&#45;&gt;Node90 -->
<g id="edge114" class="edge">
<title>Node89&#45;&gt;Node90</title>
<path fill="none" stroke="midnightblue" d="M2256.52,-631.87C2285.72,-620.57 2337.08,-600.7 2370.37,-587.82"/>
<polygon fill="midnightblue" stroke="midnightblue" points="2372.01,-590.94 2380.07,-584.06 2369.48,-584.41 2372.01,-590.94"/>
</g>
<!-- Node91 -->
<g id="node38" class="node">
<title>Node91</title>
<g id="a_node38"><a xlink:href="../../da/d55/lock__object_8h.html" target="_top" xlink:title=" ">
<polygon fill="none" stroke="red" points="2127.71,-431 2127.71,-450 2252.71,-450 2252.71,-431 2127.71,-431"/>
<text text-anchor="middle" x="2190.21" y="-438" font-family="Helvetica,sans-Serif" font-size="10.00">includes/lock_object.h</text>
</a>
</g>
</g>
<!-- Node89&#45;&gt;Node91 -->
<g id="edge116" class="edge">
<title>Node89&#45;&gt;Node91</title>
<path fill="none" stroke="midnightblue" d="M2231.64,-631.97C2228.68,-621.97 2223.76,-604.86 2220.21,-590 2209.12,-543.69 2198.71,-488.6 2193.56,-460.32"/>
<polygon fill="midnightblue" stroke="midnightblue" points="2196.97,-459.47 2191.75,-450.25 2190.08,-460.71 2196.97,-459.47"/>
</g>
<!-- Node81 -->
<g id="node39" class="node">
<title>Node81</title>
<g id="a_node39"><a xlink:href="../../d2/d91/point_8h.html" target="_top" xlink:title=" ">
<polygon fill="none" stroke="red" points="2511.71,-364 2511.71,-383 2620.71,-383 2620.71,-364 2511.71,-364"/>
<text text-anchor="middle" x="2566.21" y="-371" font-family="Helvetica,sans-Serif" font-size="10.00">geometries/point.h</text>
</a>
</g>
</g>
<!-- Node89&#45;&gt;Node81 -->
<g id="edge118" class="edge">
<title>Node89&#45;&gt;Node81</title>
<path fill="none" stroke="midnightblue" d="M2251.37,-631.97C2269.58,-622.63 2298.88,-606.73 2322.21,-590 2414.86,-523.55 2513.01,-428 2550.46,-390.48"/>
<polygon fill="midnightblue" stroke="midnightblue" points="2553.32,-392.57 2557.88,-383 2548.35,-387.63 2553.32,-392.57"/>
</g>
<!-- Node93 -->
<g id="node40" class="node">
<title>Node93</title>
<g id="a_node40"><a xlink:href="../../d1/d4e/dof_8h.html" target="_top" xlink:title=" ">
<polygon fill="none" stroke="red" points="2229.21,-565 2229.21,-584 2313.21,-584 2313.21,-565 2229.21,-565"/>
<text text-anchor="middle" x="2271.21" y="-572" font-family="Helvetica,sans-Serif" font-size="10.00">includes/dof.h</text>
</a>
</g>
</g>
<!-- Node89&#45;&gt;Node93 -->
<g id="edge121" class="edge">
<title>Node89&#45;&gt;Node93</title>
<path fill="none" stroke="midnightblue" d="M2239.2,-631.73C2244.8,-621.89 2254.04,-605.66 2261.15,-593.16"/>
<polygon fill="midnightblue" stroke="midnightblue" points="2264.39,-594.55 2266.3,-584.13 2258.31,-591.09 2264.39,-594.55"/>
</g>
<!-- Node94 -->
<g id="node41" class="node">
<title>Node94</title>
<g id="a_node41"><a xlink:href="../../db/d22/nodal__data_8h.html" target="_top" xlink:title=" ">
<polygon fill="none" stroke="black" points="2309.21,-431 2309.21,-450 2443.21,-450 2443.21,-431 2309.21,-431"/>
<text text-anchor="middle" x="2376.21" y="-438" font-family="Helvetica,sans-Serif" font-size="10.00">containers/nodal_data.h</text>
</a>
</g>
</g>
<!-- Node89&#45;&gt;Node94 -->
<g id="edge154" class="edge">
<title>Node89&#45;&gt;Node94</title>
<path fill="none" stroke="midnightblue" d="M2280.88,-635.43C2334.42,-628.54 2417.3,-614.22 2436.21,-590 2468.9,-548.13 2419.38,-486.05 2392.15,-457.25"/>
<polygon fill="midnightblue" stroke="midnightblue" points="2394.63,-454.77 2385.15,-450.05 2389.61,-459.65 2394.63,-454.77"/>
</g>
<!-- Node95 -->
<g id="node42" class="node">
<title>Node95</title>
<g id="a_node42"><a xlink:href="../../d4/d52/variables__list__data__value__container_8h.html" target="_top" xlink:title=" ">
<polygon fill="none" stroke="red" points="1850.71,-358.5 1850.71,-388.5 2005.71,-388.5 2005.71,-358.5 1850.71,-358.5"/>
<text text-anchor="start" x="1858.71" y="-376.5" font-family="Helvetica,sans-Serif" font-size="10.00">containers/variables</text>
<text text-anchor="middle" x="1928.21" y="-365.5" font-family="Helvetica,sans-Serif" font-size="10.00">_list_data_value_container.h</text>
</a>
</g>
</g>
<!-- Node89&#45;&gt;Node95 -->
<g id="edge145" class="edge">
<title>Node89&#45;&gt;Node95</title>
<path fill="none" stroke="midnightblue" d="M2187.41,-637.97C2146.58,-633.59 2087.69,-621.75 2047.21,-590 1982.45,-539.22 1947.78,-442.9 1934.58,-398.29"/>
<polygon fill="midnightblue" stroke="midnightblue" points="1937.92,-397.26 1931.81,-388.6 1931.19,-399.18 1937.92,-397.26"/>
</g>
<!-- Node72 -->
<g id="node43" class="node">
<title>Node72</title>
<g id="a_node43"><a xlink:href="../../d4/d35/pointer__vector__set_8h.html" target="_top" xlink:title=" ">
<polygon fill="none" stroke="red" points="3209.71,-358.5 3209.71,-388.5 3314.71,-388.5 3314.71,-358.5 3209.71,-358.5"/>
<text text-anchor="start" x="3217.71" y="-376.5" font-family="Helvetica,sans-Serif" font-size="10.00">containers/pointer</text>
<text text-anchor="middle" x="3262.21" y="-365.5" font-family="Helvetica,sans-Serif" font-size="10.00">_vector_set.h</text>
</a>
</g>
</g>
<!-- Node89&#45;&gt;Node72 -->
<g id="edge136" class="edge">
<title>Node89&#45;&gt;Node72</title>
<path fill="none" stroke="midnightblue" d="M2280.85,-640.95C2424.45,-641.78 2858.08,-639.97 2988.21,-590 3099.86,-547.12 3202.42,-442.01 3243.38,-396.31"/>
<polygon fill="midnightblue" stroke="midnightblue" points="3246.07,-398.55 3250.09,-388.75 3240.83,-393.91 3246.07,-398.55"/>
</g>
<!-- Node97 -->
<g id="node44" class="node">
<title>Node97</title>
<g id="a_node44"><a xlink:href="../../de/d44/global__pointers__vector_8h.html" target="_top" xlink:title=" ">
<polygon fill="none" stroke="red" points="3007.21,-358.5 3007.21,-388.5 3153.21,-388.5 3153.21,-358.5 3007.21,-358.5"/>
<text text-anchor="start" x="3015.21" y="-376.5" font-family="Helvetica,sans-Serif" font-size="10.00">containers/global_pointers</text>
<text text-anchor="middle" x="3080.21" y="-365.5" font-family="Helvetica,sans-Serif" font-size="10.00">_vector.h</text>
</a>
</g>
</g>
<!-- Node89&#45;&gt;Node97 -->
<g id="edge148" class="edge">
<title>Node89&#45;&gt;Node97</title>
<path fill="none" stroke="midnightblue" d="M2280.93,-639.75C2431.6,-636.97 2898.17,-625.56 2955.21,-590 3026.54,-545.52 3061.61,-444.36 3074.36,-398.23"/>
<polygon fill="midnightblue" stroke="midnightblue" points="3077.76,-399.06 3076.94,-388.5 3071,-397.27 3077.76,-399.06"/>
</g>
<!-- Node91&#45;&gt;Node3 -->
<g id="edge117" class="edge">
<title>Node91&#45;&gt;Node3</title>
<path fill="none" stroke="midnightblue" d="M2194.57,-430.84C2199.26,-420.99 2206.42,-404.3 2209.21,-389 2220.98,-324.3 2212.64,-297.07 2171.21,-246 2159.87,-232.03 2142.97,-221.42 2127.98,-214.01"/>
<polygon fill="midnightblue" stroke="midnightblue" points="2129.03,-210.64 2118.48,-209.61 2126.08,-216.99 2129.03,-210.64"/>
</g>
<!-- Node81&#45;&gt;Node3 -->
<g id="edge119" class="edge">
<title>Node81&#45;&gt;Node3</title>
<path fill="none" stroke="midnightblue" d="M2552.37,-363.87C2530.73,-350.42 2487.45,-323.74 2450.21,-302 2406.21,-276.32 2398.19,-263.11 2350.21,-246 2332.1,-239.54 2224.3,-221.62 2154.78,-210.44"/>
<polygon fill="midnightblue" stroke="midnightblue" points="2155.25,-206.97 2144.82,-208.84 2154.14,-213.88 2155.25,-206.97"/>
</g>
<!-- Node81&#45;&gt;Node21 -->
<g id="edge120" class="edge">
<title>Node81&#45;&gt;Node21</title>
<path fill="none" stroke="midnightblue" d="M2540.27,-363.98C2508.96,-353.68 2456.12,-336.31 2420.95,-324.75"/>
<polygon fill="midnightblue" stroke="midnightblue" points="2421.68,-321.31 2411.09,-321.51 2419.5,-327.96 2421.68,-321.31"/>
</g>
<!-- Node93&#45;&gt;Node3 -->
<g id="edge126" class="edge">
<title>Node93&#45;&gt;Node3</title>
<path fill="none" stroke="midnightblue" d="M2271.3,-564.71C2271.4,-541.61 2270.72,-477.37 2261.21,-425 2251,-368.83 2246.38,-354.6 2224.21,-302 2213.16,-275.79 2214.06,-265.35 2193.21,-246 2176.88,-230.86 2154.58,-220.08 2135.38,-212.87"/>
<polygon fill="midnightblue" stroke="midnightblue" points="2136.54,-209.57 2125.95,-209.52 2134.2,-216.16 2136.54,-209.57"/>
</g>
<!-- Node93&#45;&gt;Node5 -->
<g id="edge124" class="edge">
<title>Node93&#45;&gt;Node5</title>
<path fill="none" stroke="midnightblue" d="M2313.6,-566.38C2330.55,-563.74 2350.26,-560.92 2368.21,-559 2582.54,-536.04 3197.17,-563.87 3323.21,-389 3409.02,-269.95 3482.42,-391.91 3092.21,-246 3002.94,-212.62 2979.02,-206.82 2885.21,-190 2711.26,-158.81 2662.36,-189.34 2489.21,-154 2460.84,-148.21 2455.1,-141.75 2427.21,-134 2359.48,-115.19 2339.89,-120.23 2273.21,-98 2271.34,-97.38 2269.43,-96.69 2267.52,-95.96"/>
<polygon fill="midnightblue" stroke="midnightblue" points="2268.71,-92.66 2258.13,-92.09 2266.04,-99.13 2268.71,-92.66"/>
</g>
<!-- Node93&#45;&gt;Node8 -->
<g id="edge123" class="edge">
<title>Node93&#45;&gt;Node8</title>
<path fill="none" stroke="midnightblue" d="M2313.59,-566.26C2330.53,-563.6 2350.25,-560.81 2368.21,-559 2673.31,-528.3 2755.29,-576.64 3057.21,-523 3156.59,-505.34 3186,-505.08 3274.21,-456 3313.85,-433.94 3332.4,-430.28 3351.21,-389 3378.95,-328.07 3490.8,-408.18 3325.21,-134 3297.93,-88.84 3277.44,-83.14 3227.21,-67 3054.74,-11.58 1778.16,-39.52 1597.21,-31 1541.43,-28.37 1477.07,-23.39 1436.51,-20"/>
<polygon fill="midnightblue" stroke="midnightblue" points="1436.74,-16.51 1426.49,-19.16 1436.16,-23.48 1436.74,-16.51"/>
</g>
<!-- Node93&#45;&gt;Node13 -->
<g id="edge122" class="edge">
<title>Node93&#45;&gt;Node13</title>
<path fill="none" stroke="midnightblue" d="M2228.99,-573.33C2030.43,-572.29 1188.34,-565.43 929.21,-523 721.59,-489 669.88,-468.77 475.21,-389 360.03,-341.8 228.21,-381.47 228.21,-257 228.21,-257 228.21,-257 228.21,-143 228.21,-54.63 360.78,-27.48 423.74,-19.56"/>
<polygon fill="midnightblue" stroke="midnightblue" points="424.4,-23.01 433.93,-18.37 423.59,-16.06 424.4,-23.01"/>
</g>
<!-- Node93&#45;&gt;Node20 -->
<g id="edge125" class="edge">
<title>Node93&#45;&gt;Node20</title>
<path fill="none" stroke="midnightblue" d="M2246.6,-564.99C2179.48,-541.35 1988.38,-471.18 1841.21,-389 1808.1,-370.51 1772.7,-344.2 1751.78,-327.88"/>
<polygon fill="midnightblue" stroke="midnightblue" points="1753.77,-324.99 1743.75,-321.55 1749.44,-330.49 1753.77,-324.99"/>
</g>
<!-- Node93&#45;&gt;Node59 -->
<g id="edge127" class="edge">
<title>Node93&#45;&gt;Node59</title>
<path fill="none" stroke="midnightblue" d="M2229.13,-570.16C2097.26,-559.71 1690.91,-527.5 1523.96,-514.27"/>
<polygon fill="midnightblue" stroke="midnightblue" points="1524.04,-510.76 1513.8,-513.46 1523.49,-517.74 1524.04,-510.76"/>
</g>
<!-- Node93&#45;&gt;Node94 -->
<g id="edge128" class="edge">
<title>Node93&#45;&gt;Node94</title>
<path fill="none" stroke="midnightblue" d="M2278.1,-564.84C2295.3,-543.21 2340.4,-486.51 2362.96,-458.15"/>
<polygon fill="midnightblue" stroke="midnightblue" points="2365.94,-460.03 2369.43,-450.02 2360.46,-455.67 2365.94,-460.03"/>
</g>
<!-- Node94&#45;&gt;Node8 -->
<g id="edge129" class="edge">
<title>Node94&#45;&gt;Node8</title>
<path fill="none" stroke="midnightblue" d="M2443.46,-435.78C2497.02,-432.83 2573.92,-428.62 2641.21,-425 2679.09,-422.96 3297.09,-416.53 3323.21,-389 3332.69,-379 3323.73,-371.77 3323.21,-358 3320.54,-288.07 3311.21,-270.98 3311.21,-201 3311.21,-201 3311.21,-201 3311.21,-143 3311.21,-56.16 3216.11,-85.23 3131.21,-67 2964.51,-31.21 1767.5,-39.14 1597.21,-31 1541.43,-28.34 1477.07,-23.36 1436.51,-19.99"/>
<polygon fill="midnightblue" stroke="midnightblue" points="1436.74,-16.49 1426.49,-19.14 1436.16,-23.47 1436.74,-16.49"/>
</g>
<!-- Node94&#45;&gt;Node95 -->
<g id="edge130" class="edge">
<title>Node94&#45;&gt;Node95</title>
<path fill="none" stroke="midnightblue" d="M2311.06,-430.98C2240.72,-421.65 2125.11,-405.95 2016.19,-389.28"/>
<polygon fill="midnightblue" stroke="midnightblue" points="2016.42,-385.78 2006.01,-387.72 2015.36,-392.7 2016.42,-385.78"/>
</g>
<!-- Node95&#45;&gt;Node3 -->
<g id="edge134" class="edge">
<title>Node95&#45;&gt;Node3</title>
<path fill="none" stroke="midnightblue" d="M1941.87,-358.47C1972.61,-326.9 2047.03,-250.47 2079.56,-217.07"/>
<polygon fill="midnightblue" stroke="midnightblue" points="2082.4,-219.17 2086.87,-209.56 2077.39,-214.28 2082.4,-219.17"/>
</g>
<!-- Node95&#45;&gt;Node8 -->
<g id="edge132" class="edge">
<title>Node95&#45;&gt;Node8</title>
<path fill="none" stroke="midnightblue" d="M2005.98,-359.08C2008.75,-358.7 2011.5,-358.34 2014.21,-358 2202.85,-334.35 2855.21,-391.12 2855.21,-201 2855.21,-201 2855.21,-201 2855.21,-143 2855.21,33.75 3192,-113.63 1597.21,-31 1541.44,-28.11 1477.08,-23.19 1436.52,-19.89"/>
<polygon fill="midnightblue" stroke="midnightblue" points="1436.74,-16.4 1426.49,-19.07 1436.17,-23.37 1436.74,-16.4"/>
</g>
<!-- Node95&#45;&gt;Node13 -->
<g id="edge131" class="edge">
<title>Node95&#45;&gt;Node13</title>
<path fill="none" stroke="midnightblue" d="M1850.48,-371.73C1558.48,-368.6 540.51,-355.32 480.21,-322 427.31,-292.78 418.21,-261.43 418.21,-201 418.21,-201 418.21,-201 418.21,-143 418.21,-102.85 435.98,-58.45 447.22,-34.39"/>
<polygon fill="midnightblue" stroke="midnightblue" points="450.5,-35.65 451.7,-25.13 444.19,-32.6 450.5,-35.65"/>
</g>
<!-- Node95&#45;&gt;Node20 -->
<g id="edge133" class="edge">
<title>Node95&#45;&gt;Node20</title>
<path fill="none" stroke="midnightblue" d="M1881.99,-358.4C1847.64,-347.92 1801.42,-333.81 1769.66,-324.12"/>
<polygon fill="midnightblue" stroke="midnightblue" points="1770.48,-320.71 1759.89,-321.14 1768.43,-327.41 1770.48,-320.71"/>
</g>
<!-- Node95&#45;&gt;Node60 -->
<g id="edge135" class="edge">
<title>Node95&#45;&gt;Node60</title>
<path fill="none" stroke="midnightblue" d="M1903.66,-358.49C1873.04,-341.78 1818.58,-314.54 1768.21,-302 1666.44,-276.67 1360.56,-263.77 1221.89,-259.1"/>
<polygon fill="midnightblue" stroke="midnightblue" points="1221.91,-255.6 1211.8,-258.77 1221.68,-262.6 1221.91,-255.6"/>
</g>
<!-- Node72&#45;&gt;Node3 -->
<g id="edge143" class="edge">
<title>Node72&#45;&gt;Node3</title>
<path fill="none" stroke="midnightblue" d="M3222.88,-358.46C3198.32,-349.18 3166.32,-336.15 3139.21,-322 3083.9,-293.14 3080.61,-265.05 3021.21,-246 2939.19,-219.69 2346.88,-205.92 2155.02,-202.11"/>
<polygon fill="midnightblue" stroke="midnightblue" points="2154.9,-198.61 2144.84,-201.91 2154.77,-205.61 2154.9,-198.61"/>
</g>
<!-- Node72&#45;&gt;Node5 -->
<g id="edge140" class="edge">
<title>Node72&#45;&gt;Node5</title>
<path fill="none" stroke="midnightblue" d="M3237.93,-358.29C3220.88,-348.26 3197.57,-334.44 3177.21,-322 3123.02,-288.89 3115.73,-268.13 3056.21,-246 2801.27,-151.24 2716.16,-215.44 2451.21,-154 2370.42,-135.27 2350.84,-127.17 2273.21,-98 2271.6,-97.39 2269.95,-96.75 2268.3,-96.09"/>
<polygon fill="midnightblue" stroke="midnightblue" points="2269.48,-92.79 2258.91,-92.14 2266.77,-99.24 2269.48,-92.79"/>
</g>
<!-- Node72&#45;&gt;Node8 -->
<g id="edge139" class="edge">
<title>Node72&#45;&gt;Node8</title>
<path fill="none" stroke="midnightblue" d="M3259.77,-358.42C3250.14,-307.78 3209.7,-134.34 3097.21,-67 3025.69,-24.18 1680.47,-35 1597.21,-31 1541.43,-28.32 1477.07,-23.35 1436.52,-19.98"/>
<polygon fill="midnightblue" stroke="midnightblue" points="1436.74,-16.49 1426.49,-19.14 1436.16,-23.46 1436.74,-16.49"/>
</g>
<!-- Node72&#45;&gt;Node9 -->
<g id="edge142" class="edge">
<title>Node72&#45;&gt;Node9</title>
<path fill="none" stroke="midnightblue" d="M3246.94,-358.21C3219.07,-332.74 3157.28,-279.09 3097.21,-246 2952.38,-166.21 2760.58,-111.52 2684.9,-91.72"/>
<polygon fill="midnightblue" stroke="midnightblue" points="2685.57,-88.28 2675.01,-89.16 2683.81,-95.05 2685.57,-88.28"/>
</g>
<!-- Node72&#45;&gt;Node13 -->
<g id="edge138" class="edge">
<title>Node72&#45;&gt;Node13</title>
<path fill="none" stroke="midnightblue" d="M3209.67,-363.57C3194.41,-361.33 3177.68,-359.22 3162.21,-358 3088.84,-352.21 575.08,-361.84 513.21,-322 463.23,-289.82 456.21,-260.45 456.21,-201 456.21,-201 456.21,-201 456.21,-143 456.21,-104.7 456.21,-59.88 456.21,-35.2"/>
<polygon fill="midnightblue" stroke="midnightblue" points="459.71,-35.09 456.21,-25.09 452.71,-35.09 459.71,-35.09"/>
</g>
<!-- Node72&#45;&gt;Node14 -->
<g id="edge137" class="edge">
<title>Node72&#45;&gt;Node14</title>
<path fill="none" stroke="midnightblue" d="M3267.97,-358.25C3281.52,-323.86 3315,-233.29 3325.21,-154 3330.15,-115.65 3330.42,-105.31 3325.21,-67 3323.73,-56.13 3320.53,-44.29 3317.57,-34.81"/>
<polygon fill="midnightblue" stroke="midnightblue" points="3320.89,-33.69 3314.43,-25.29 3314.24,-35.88 3320.89,-33.69"/>
</g>
<!-- Node72&#45;&gt;Node20 -->
<g id="edge141" class="edge">
<title>Node72&#45;&gt;Node20</title>
<path fill="none" stroke="midnightblue" d="M3209.66,-363.75C3194.4,-361.51 3177.67,-359.36 3162.21,-358 2879.96,-333.17 1964.64,-316.84 1769.87,-313.59"/>
<polygon fill="midnightblue" stroke="midnightblue" points="1769.91,-310.09 1759.85,-313.43 1769.8,-317.09 1769.91,-310.09"/>
</g>
<!-- Node72&#45;&gt;Node21 -->
<g id="edge144" class="edge">
<title>Node72&#45;&gt;Node21</title>
<path fill="none" stroke="midnightblue" d="M3209.63,-364.01C3194.37,-361.78 3177.65,-359.56 3162.21,-358 2900.16,-331.46 2586.7,-319.25 2452.04,-314.93"/>
<polygon fill="midnightblue" stroke="midnightblue" points="2451.99,-311.43 2441.88,-314.61 2451.77,-318.42 2451.99,-311.43"/>
</g>
<!-- Node97&#45;&gt;Node3 -->
<g id="edge151" class="edge">
<title>Node97&#45;&gt;Node3</title>
<path fill="none" stroke="midnightblue" d="M3064.73,-358.42C3053.68,-348.33 3038.47,-334.39 3025.21,-322 2989.37,-288.53 2990.26,-265.38 2945.21,-246 2873.18,-215.01 2336.27,-204.47 2154.87,-201.78"/>
<polygon fill="midnightblue" stroke="midnightblue" points="2154.77,-198.28 2144.72,-201.63 2154.67,-205.28 2154.77,-198.28"/>
</g>
<!-- Node97&#45;&gt;Node8 -->
<g id="edge150" class="edge">
<title>Node97&#45;&gt;Node8</title>
<path fill="none" stroke="midnightblue" d="M3086.08,-358.1C3097.42,-328.96 3121.21,-260.7 3121.21,-201 3121.21,-201 3121.21,-201 3121.21,-143 3121.21,-99.41 3098.35,-86.18 3059.21,-67 2986.25,-31.25 1678.36,-34.92 1597.21,-31 1541.43,-28.3 1477.07,-23.33 1436.52,-19.97"/>
<polygon fill="midnightblue" stroke="midnightblue" points="1436.74,-16.48 1426.49,-19.13 1436.16,-23.45 1436.74,-16.48"/>
</g>
<!-- Node97&#45;&gt;Node14 -->
<g id="edge149" class="edge">
<title>Node97&#45;&gt;Node14</title>
<path fill="none" stroke="midnightblue" d="M3089.55,-358.1C3126.24,-301.55 3260.43,-94.75 3300.1,-33.62"/>
<polygon fill="midnightblue" stroke="midnightblue" points="3303.11,-35.4 3305.62,-25.11 3297.24,-31.59 3303.11,-35.4"/>
</g>
<!-- Node97&#45;&gt;Node21 -->
<g id="edge152" class="edge">
<title>Node97&#45;&gt;Node21</title>
<path fill="none" stroke="midnightblue" d="M3007.14,-366.24C2871.58,-354.64 2583.05,-329.94 2452.2,-318.74"/>
<polygon fill="midnightblue" stroke="midnightblue" points="2452.19,-315.22 2441.93,-317.86 2451.59,-322.2 2452.19,-315.22"/>
</g>
<!-- Node77&#45;&gt;Node3 -->
<g id="edge158" class="edge">
<title>Node77&#45;&gt;Node3</title>
<path fill="none" stroke="midnightblue" d="M2095.21,-363.76C2095.21,-337.15 2095.21,-256.71 2095.21,-219.84"/>
<polygon fill="midnightblue" stroke="midnightblue" points="2098.71,-219.52 2095.21,-209.52 2091.71,-219.52 2098.71,-219.52"/>
</g>
<!-- Node77&#45;&gt;Node8 -->
<g id="edge157" class="edge">
<title>Node77&#45;&gt;Node8</title>
<path fill="none" stroke="midnightblue" d="M2079.42,-363.95C2037.26,-341.45 1918.01,-279.99 1812.21,-246 1617.43,-183.44 1521.72,-280.82 1361.21,-154 1329.54,-128.98 1318.03,-103.52 1335.21,-67 1342.53,-51.43 1357.27,-39.02 1370.42,-30.4"/>
<polygon fill="midnightblue" stroke="midnightblue" points="1372.47,-33.25 1379.16,-25.04 1368.81,-27.28 1372.47,-33.25"/>
</g>
<!-- Node77&#45;&gt;Node21 -->
<g id="edge159" class="edge">
<title>Node77&#45;&gt;Node21</title>
<path fill="none" stroke="midnightblue" d="M2136.76,-363.98C2188.66,-353.33 2277.45,-335.11 2333.64,-323.58"/>
<polygon fill="midnightblue" stroke="midnightblue" points="2334.64,-326.95 2343.73,-321.51 2333.23,-320.09 2334.64,-326.95"/>
</g>
<!-- Node87&#45;&gt;Node3 -->
<g id="edge165" class="edge">
<title>Node87&#45;&gt;Node3</title>
<path fill="none" stroke="midnightblue" d="M1968.25,-637.06C2162.81,-626.43 2741.91,-594.47 2761.21,-590 2846.76,-570.17 2941.21,-596.32 2941.21,-508.5 2941.21,-508.5 2941.21,-508.5 2941.21,-439.5 2941.21,-332.56 2897.93,-284.6 2798.21,-246 2681.61,-200.86 2302.8,-199.12 2155.02,-200.25"/>
<polygon fill="midnightblue" stroke="midnightblue" points="2154.76,-196.75 2144.79,-200.34 2154.82,-203.75 2154.76,-196.75"/>
</g>
<!-- Node87&#45;&gt;Node27 -->
<g id="edge181" class="edge">
<title>Node87&#45;&gt;Node27</title>
<path fill="none" stroke="midnightblue" d="M1841.94,-633.12C1627.34,-608.07 939.79,-527.54 929.21,-523 852.67,-490.15 837.59,-462.39 798.21,-389 783.25,-361.13 781.98,-352.66 774.21,-322 770.3,-306.59 767.68,-288.72 766.11,-275.62"/>
<polygon fill="midnightblue" stroke="midnightblue" points="769.57,-275.07 764.99,-265.52 762.62,-275.84 769.57,-275.07"/>
</g>
<!-- Node87&#45;&gt;Node59 -->
<g id="edge180" class="edge">
<title>Node87&#45;&gt;Node59</title>
<path fill="none" stroke="midnightblue" d="M1842.02,-630.89C1791.23,-622.4 1718.35,-608.49 1656.21,-590 1597.24,-572.45 1531.57,-544.84 1490.82,-526.7"/>
<polygon fill="midnightblue" stroke="midnightblue" points="1492.07,-523.43 1481.51,-522.53 1489.21,-529.82 1492.07,-523.43"/>
</g>
<!-- Node79 -->
<g id="node47" class="node">
<title>Node79</title>
<g id="a_node47"><a xlink:href="../../d1/dbc/geometry__data_8h.html" target="_top" xlink:title=" ">
<polygon fill="none" stroke="black" points="2630.21,-559.5 2630.21,-589.5 2752.21,-589.5 2752.21,-559.5 2630.21,-559.5"/>
<text text-anchor="start" x="2638.21" y="-577.5" font-family="Helvetica,sans-Serif" font-size="10.00">geometries/geometry</text>
<text text-anchor="middle" x="2691.21" y="-566.5" font-family="Helvetica,sans-Serif" font-size="10.00">_data.h</text>
</a>
</g>
</g>
<!-- Node87&#45;&gt;Node79 -->
<g id="edge166" class="edge">
<title>Node87&#45;&gt;Node79</title>
<path fill="none" stroke="midnightblue" d="M1968.53,-635.26C2113.34,-623.29 2467.88,-593.97 2620,-581.39"/>
<polygon fill="midnightblue" stroke="midnightblue" points="2620.48,-584.86 2630.16,-580.55 2619.9,-577.88 2620.48,-584.86"/>
</g>
<!-- Node79&#45;&gt;Node28 -->
<g id="edge167" class="edge">
<title>Node79&#45;&gt;Node28</title>
<path fill="none" stroke="midnightblue" d="M2699.93,-559.36C2710.52,-542.63 2729.3,-514.23 2748.21,-492 2763.07,-474.52 2775.97,-477 2785.21,-456 2802.75,-416.12 2804.55,-397.96 2787.21,-358 2770.2,-318.82 2729.68,-287.9 2703.39,-271.06"/>
<polygon fill="midnightblue" stroke="midnightblue" points="2705.09,-268 2694.75,-265.7 2701.4,-273.95 2705.09,-268"/>
</g>
<!-- Node80 -->
<g id="node48" class="node">
<title>Node80</title>
<g id="a_node48"><a xlink:href="../../da/d87/integration__point_8h.html" target="_top" xlink:title=" ">
<polygon fill="none" stroke="black" points="2650.21,-425.5 2650.21,-455.5 2776.21,-455.5 2776.21,-425.5 2650.21,-425.5"/>
<text text-anchor="start" x="2658.21" y="-443.5" font-family="Helvetica,sans-Serif" font-size="10.00">integration/integration</text>
<text text-anchor="middle" x="2713.21" y="-432.5" font-family="Helvetica,sans-Serif" font-size="10.00">_point.h</text>
</a>
</g>
</g>
<!-- Node79&#45;&gt;Node80 -->
<g id="edge168" class="edge">
<title>Node79&#45;&gt;Node80</title>
<path fill="none" stroke="midnightblue" d="M2693.56,-559.37C2697.3,-536.94 2704.64,-492.92 2709.21,-465.49"/>
<polygon fill="midnightblue" stroke="midnightblue" points="2712.68,-465.96 2710.87,-455.52 2705.77,-464.81 2712.68,-465.96"/>
</g>
<!-- Node82 -->
<g id="node49" class="node">
<title>Node82</title>
<g id="a_node49"><a xlink:href="../../da/ded/geometry__dimension_8h.html" target="_top" xlink:title=" ">
<polygon fill="none" stroke="black" points="2639.21,-358.5 2639.21,-388.5 2761.21,-388.5 2761.21,-358.5 2639.21,-358.5"/>
<text text-anchor="start" x="2647.21" y="-376.5" font-family="Helvetica,sans-Serif" font-size="10.00">geometries/geometry</text>
<text text-anchor="middle" x="2700.21" y="-365.5" font-family="Helvetica,sans-Serif" font-size="10.00">_dimension.h</text>
</a>
</g>
</g>
<!-- Node79&#45;&gt;Node82 -->
<g id="edge171" class="edge">
<title>Node79&#45;&gt;Node82</title>
<path fill="none" stroke="midnightblue" d="M2679.3,-559.19C2658.41,-532.25 2619.37,-472.44 2641.21,-425 2646.77,-412.92 2656.8,-402.65 2667.04,-394.59"/>
<polygon fill="midnightblue" stroke="midnightblue" points="2669.21,-397.34 2675.21,-388.61 2665.07,-391.7 2669.21,-397.34"/>
</g>
<!-- Node83 -->
<g id="node50" class="node">
<title>Node83</title>
<g id="a_node50"><a xlink:href="../../dd/d43/geometry__shape__function__container_8h.html" target="_top" xlink:title=" ">
<polygon fill="none" stroke="red" points="2757.71,-492.5 2757.71,-522.5 2912.71,-522.5 2912.71,-492.5 2757.71,-492.5"/>
<text text-anchor="start" x="2765.71" y="-510.5" font-family="Helvetica,sans-Serif" font-size="10.00">geometries/geometry</text>
<text text-anchor="middle" x="2835.21" y="-499.5" font-family="Helvetica,sans-Serif" font-size="10.00">_shape_function_container.h</text>
</a>
</g>
</g>
<!-- Node79&#45;&gt;Node83 -->
<g id="edge174" class="edge">
<title>Node79&#45;&gt;Node83</title>
<path fill="none" stroke="midnightblue" d="M2722.45,-559.4C2743.68,-549.81 2771.96,-537.05 2794.88,-526.7"/>
<polygon fill="midnightblue" stroke="midnightblue" points="2796.35,-529.88 2804.02,-522.58 2793.47,-523.5 2796.35,-529.88"/>
</g>
<!-- Node80&#45;&gt;Node3 -->
<g id="edge169" class="edge">
<title>Node80&#45;&gt;Node3</title>
<path fill="none" stroke="midnightblue" d="M2735.21,-425.27C2757.69,-408.94 2787.09,-381.38 2770.21,-358 2688.42,-244.74 2297.63,-228.86 2159.21,-210 2157.75,-209.8 2156.27,-209.6 2154.78,-209.39"/>
<polygon fill="midnightblue" stroke="midnightblue" points="2155.2,-205.92 2144.81,-208.02 2154.24,-212.85 2155.2,-205.92"/>
</g>
<!-- Node80&#45;&gt;Node81 -->
<g id="edge170" class="edge">
<title>Node80&#45;&gt;Node81</title>
<path fill="none" stroke="midnightblue" d="M2681.31,-425.4C2655.52,-413.99 2619.53,-398.08 2594.7,-387.1"/>
<polygon fill="midnightblue" stroke="midnightblue" points="2596.01,-383.85 2585.45,-383.01 2593.18,-390.25 2596.01,-383.85"/>
</g>
<!-- Node82&#45;&gt;Node3 -->
<g id="edge172" class="edge">
<title>Node82&#45;&gt;Node3</title>
<path fill="none" stroke="midnightblue" d="M2671.55,-358.34C2617.24,-332.11 2495.01,-275.9 2386.21,-246 2364.42,-240.01 2233.91,-220.83 2155.26,-209.53"/>
<polygon fill="midnightblue" stroke="midnightblue" points="2155.39,-206.02 2144.99,-208.06 2154.39,-212.95 2155.39,-206.02"/>
</g>
<!-- Node82&#45;&gt;Node21 -->
<g id="edge173" class="edge">
<title>Node82&#45;&gt;Node21</title>
<path fill="none" stroke="midnightblue" d="M2639.03,-359.93C2635.71,-359.27 2632.42,-358.62 2629.21,-358 2565.52,-345.62 2492.3,-332.23 2442.82,-323.31"/>
<polygon fill="midnightblue" stroke="midnightblue" points="2443.41,-319.86 2432.95,-321.53 2442.17,-326.74 2443.41,-319.86"/>
</g>
<!-- Node83&#45;&gt;Node3 -->
<g id="edge176" class="edge">
<title>Node83&#45;&gt;Node3</title>
<path fill="none" stroke="midnightblue" d="M2846.55,-492.43C2853.61,-482.79 2862.1,-469.38 2866.21,-456 2878.99,-414.34 2877.31,-400.81 2869.21,-358 2856.28,-289.75 2826.15,-267.83 2760.21,-246 2648.89,-209.14 2297.01,-202.44 2155.25,-201.25"/>
<polygon fill="midnightblue" stroke="midnightblue" points="2155.04,-197.74 2145.01,-201.17 2154.98,-204.74 2155.04,-197.74"/>
</g>
<!-- Node83&#45;&gt;Node14 -->
<g id="edge175" class="edge">
<title>Node83&#45;&gt;Node14</title>
<path fill="none" stroke="midnightblue" d="M2912.77,-504.77C3025.83,-499.16 3239.38,-476.69 3395.21,-389 3494.95,-332.87 3571.21,-315.46 3571.21,-201 3571.21,-201 3571.21,-201 3571.21,-143 3571.21,-43.45 3415.17,-22.22 3344.86,-17.71"/>
<polygon fill="midnightblue" stroke="midnightblue" points="3344.92,-14.21 3334.74,-17.14 3344.53,-21.2 3344.92,-14.21"/>
</g>
<!-- Node83&#45;&gt;Node21 -->
<g id="edge178" class="edge">
<title>Node83&#45;&gt;Node21</title>
<path fill="none" stroke="midnightblue" d="M2768.23,-492.46C2730.39,-483.68 2682.53,-471.18 2641.21,-456 2576.83,-432.36 2561.14,-424.08 2502.21,-389 2481.96,-376.95 2478.84,-371.02 2459.21,-358 2442.76,-347.09 2423.72,-335.54 2409.08,-326.87"/>
<polygon fill="midnightblue" stroke="midnightblue" points="2410.56,-323.68 2400.16,-321.63 2407.01,-329.72 2410.56,-323.68"/>
</g>
<!-- Node83&#45;&gt;Node28 -->
<g id="edge177" class="edge">
<title>Node83&#45;&gt;Node28</title>
<path fill="none" stroke="midnightblue" d="M2839.99,-492.4C2851.58,-455.34 2876.57,-354.44 2825.21,-302 2808.15,-284.59 2784.54,-273.88 2761.26,-267.31"/>
<polygon fill="midnightblue" stroke="midnightblue" points="2761.89,-263.85 2751.33,-264.73 2760.13,-270.63 2761.89,-263.85"/>
</g>
<!-- Node83&#45;&gt;Node80 -->
<g id="edge179" class="edge">
<title>Node83&#45;&gt;Node80</title>
<path fill="none" stroke="midnightblue" d="M2808.73,-492.4C2791.15,-483.03 2767.85,-470.62 2748.67,-460.39"/>
<polygon fill="midnightblue" stroke="midnightblue" points="2750.1,-457.19 2739.63,-455.58 2746.81,-463.37 2750.1,-457.19"/>
</g>
</g>
</svg>
