<?xml version="1.0" encoding="UTF-8" standalone="no"?>
<!DOCTYPE svg PUBLIC "-//W3C//DTD SVG 1.1//EN"
 "http://www.w3.org/Graphics/SVG/1.1/DTD/svg11.dtd">
<!-- Generated by graphviz version 7.1.0 (0)
 -->
<!-- Title: /software/kratos/doxygen/applications/StructuralMechanicsApplication/custom_elements/truss_element_3D2N.hpp Pages: 1 -->
<svg width="2932pt" height="973pt"
 viewBox="0.00 0.00 2932.00 973.00" xmlns="http://www.w3.org/2000/svg" xmlns:xlink="http://www.w3.org/1999/xlink">
<g id="graph0" class="graph" transform="scale(1 1) rotate(0) translate(4 969)">
<title>/software/kratos/doxygen/applications/StructuralMechanicsApplication/custom_elements/truss_element_3D2N.hpp</title>
<!-- Node1 -->
<g id="node1" class="node">
<title>Node1</title>
<g id="a_node1"><a xlink:title=" ">
<polygon fill="#999999" stroke="#666666" points="827,-965 639,-965 639,-913 827,-913 827,-965"/>
<text text-anchor="start" x="647" y="-953" font-family="Helvetica,sans-Serif" font-size="10.00">/software/kratos/doxygen</text>
<text text-anchor="start" x="647" y="-942" font-family="Helvetica,sans-Serif" font-size="10.00">/applications/StructuralMechanics</text>
<text text-anchor="start" x="647" y="-931" font-family="Helvetica,sans-Serif" font-size="10.00">Application/custom_elements/truss</text>
<text text-anchor="middle" x="733" y="-920" font-family="Helvetica,sans-Serif" font-size="10.00">_element_3D2N.hpp</text>
</a>
</g>
</g>
<!-- Node2 -->
<g id="node2" class="node">
<title>Node2</title>
<g id="a_node2"><a xlink:href="../../d4/dfe/element_8h.html" target="_top" xlink:title=" ">
<polygon fill="white" stroke="#666666" points="1411,-877 1301,-877 1301,-858 1411,-858 1411,-877"/>
<text text-anchor="middle" x="1356" y="-865" font-family="Helvetica,sans-Serif" font-size="10.00">includes/element.h</text>
</a>
</g>
</g>
<!-- Node1&#45;&gt;Node2 -->
<g id="edge1" class="edge">
<title>Node1&#45;&gt;Node2</title>
<path fill="none" stroke="#63b8ff" d="M827.28,-927.48C954.59,-913.28 1178.28,-888.33 1289.43,-875.93"/>
<polygon fill="#63b8ff" stroke="#63b8ff" points="1289.74,-879.41 1299.29,-874.83 1288.97,-872.46 1289.74,-879.41"/>
</g>
<!-- Node8 -->
<g id="node8" class="node">
<title>Node8</title>
<g id="a_node8"><a xlink:href="../../df/d67/define_8h.html" target="_top" xlink:title=" ">
<polygon fill="white" stroke="#666666" points="1445.5,-206 1346.5,-206 1346.5,-187 1445.5,-187 1445.5,-206"/>
<text text-anchor="middle" x="1396" y="-194" font-family="Helvetica,sans-Serif" font-size="10.00">includes/define.h</text>
</a>
</g>
</g>
<!-- Node1&#45;&gt;Node8 -->
<g id="edge172" class="edge">
<title>Node1&#45;&gt;Node8</title>
<path fill="none" stroke="#63b8ff" d="M638.67,-930.98C440.7,-914.97 0,-872.14 0,-808 0,-808 0,-808 0,-487 0,-350.95 111.77,-342.44 240,-297 335,-263.33 360.29,-256.69 460,-242 629.69,-217 1154.91,-202.99 1334.81,-198.83"/>
<polygon fill="#63b8ff" stroke="#63b8ff" points="1334.72,-202.33 1344.64,-198.61 1334.56,-195.34 1334.72,-202.33"/>
</g>
<!-- Node98 -->
<g id="node43" class="node">
<title>Node98</title>
<g id="a_node43"><a xlink:href="../../de/dca/variables_8h.html" target="_top" xlink:title=" ">
<polygon fill="white" stroke="#666666" points="959,-629.5 845,-629.5 845,-610.5 959,-610.5 959,-629.5"/>
<text text-anchor="middle" x="902" y="-617.5" font-family="Helvetica,sans-Serif" font-size="10.00">includes/variables.h</text>
</a>
</g>
</g>
<!-- Node1&#45;&gt;Node98 -->
<g id="edge173" class="edge">
<title>Node1&#45;&gt;Node98</title>
<path fill="none" stroke="#63b8ff" d="M733,-912.59C733,-886.39 733,-844.34 733,-808 733,-808 733,-808 733,-740 733,-681.12 802.43,-648.83 852.29,-633.23"/>
<polygon fill="#63b8ff" stroke="#63b8ff" points="853.19,-636.62 861.78,-630.41 851.19,-629.91 853.19,-636.62"/>
</g>
<!-- Node3 -->
<g id="node3" class="node">
<title>Node3</title>
<g id="a_node3"><a xlink:href="../../d8/dbb/properties_8h.html" target="_top" xlink:title=" ">
<polygon fill="white" stroke="#666666" points="2363.5,-750.5 2244.5,-750.5 2244.5,-731.5 2363.5,-731.5 2363.5,-750.5"/>
<text text-anchor="middle" x="2304" y="-738.5" font-family="Helvetica,sans-Serif" font-size="10.00">includes/properties.h</text>
</a>
</g>
</g>
<!-- Node2&#45;&gt;Node3 -->
<g id="edge2" class="edge">
<title>Node2&#45;&gt;Node3</title>
<path fill="none" stroke="#63b8ff" d="M1411.27,-865.68C1520.3,-863.36 1770.52,-854.64 1978,-822 2082.6,-805.55 2202.93,-772.15 2263.98,-754.15"/>
<polygon fill="#63b8ff" stroke="#63b8ff" points="2264.63,-757.61 2273.22,-751.41 2262.64,-750.9 2264.63,-757.61"/>
</g>
<!-- Node81 -->
<g id="node23" class="node">
<title>Node81</title>
<g id="a_node23"><a xlink:href="../../de/d44/global__pointers__vector_8h.html" target="_top" xlink:title=" ">
<polygon fill="white" stroke="#666666" points="1822,-503 1676,-503 1676,-473 1822,-473 1822,-503"/>
<text text-anchor="start" x="1684" y="-491" font-family="Helvetica,sans-Serif" font-size="10.00">containers/global_pointers</text>
<text text-anchor="middle" x="1749" y="-480" font-family="Helvetica,sans-Serif" font-size="10.00">_vector.h</text>
</a>
</g>
</g>
<!-- Node2&#45;&gt;Node81 -->
<g id="edge171" class="edge">
<title>Node2&#45;&gt;Node81</title>
<path fill="none" stroke="#63b8ff" d="M1411.3,-866.83C1561.18,-866.25 1964,-854.26 1964,-742 1964,-742 1964,-742 1964,-619 1964,-555.15 1893.7,-521.81 1833.49,-504.97"/>
<polygon fill="#63b8ff" stroke="#63b8ff" points="1834.42,-501.59 1823.85,-502.4 1832.62,-508.36 1834.42,-501.59"/>
</g>
<!-- Node85 -->
<g id="node37" class="node">
<title>Node85</title>
<g id="a_node37"><a xlink:href="../../de/db8/process__info_8h.html" target="_top" xlink:title=" ">
<polygon fill="white" stroke="#666666" points="2665.5,-690 2534.5,-690 2534.5,-671 2665.5,-671 2665.5,-690"/>
<text text-anchor="middle" x="2600" y="-678" font-family="Helvetica,sans-Serif" font-size="10.00">includes/process_info.h</text>
</a>
</g>
</g>
<!-- Node2&#45;&gt;Node85 -->
<g id="edge118" class="edge">
<title>Node2&#45;&gt;Node85</title>
<path fill="none" stroke="#63b8ff" d="M1411.27,-865.11C1530.75,-861.66 1821.85,-850.77 2064,-822 2232.48,-801.98 2278.15,-806.91 2440,-756 2489.68,-740.37 2543.92,-712.66 2574.76,-695.79"/>
<polygon fill="#63b8ff" stroke="#63b8ff" points="2576.28,-698.96 2583.33,-691.05 2572.89,-692.83 2576.28,-698.96"/>
</g>
<!-- Node87 -->
<g id="node39" class="node">
<title>Node87</title>
<g id="a_node39"><a xlink:href="../../d5/d6d/geometrical__object_8h.html" target="_top" xlink:title=" ">
<polygon fill="white" stroke="#666666" points="524.5,-756 405.5,-756 405.5,-726 524.5,-726 524.5,-756"/>
<text text-anchor="start" x="413.5" y="-744" font-family="Helvetica,sans-Serif" font-size="10.00">includes/geometrical</text>
<text text-anchor="middle" x="465" y="-733" font-family="Helvetica,sans-Serif" font-size="10.00">_object.h</text>
</a>
</g>
</g>
<!-- Node2&#45;&gt;Node87 -->
<g id="edge119" class="edge">
<title>Node2&#45;&gt;Node87</title>
<path fill="none" stroke="#63b8ff" d="M1300.58,-863.05C1211.74,-857.13 1032.08,-843.55 881,-822 759.01,-804.6 618.51,-775.71 535.98,-757.82"/>
<polygon fill="#63b8ff" stroke="#63b8ff" points="536.97,-754.45 526.45,-755.75 535.48,-761.29 536.97,-754.45"/>
</g>
<!-- Node97 -->
<g id="node42" class="node">
<title>Node97</title>
<g id="a_node42"><a xlink:href="../../d6/ddf/constitutive__law_8h.html" target="_top" xlink:title=" ">
<polygon fill="white" stroke="#666666" points="1008,-822 890,-822 890,-792 1008,-792 1008,-822"/>
<text text-anchor="start" x="898" y="-810" font-family="Helvetica,sans-Serif" font-size="10.00">includes/constitutive</text>
<text text-anchor="middle" x="949" y="-799" font-family="Helvetica,sans-Serif" font-size="10.00">_law.h</text>
</a>
</g>
</g>
<!-- Node2&#45;&gt;Node97 -->
<g id="edge129" class="edge">
<title>Node2&#45;&gt;Node97</title>
<path fill="none" stroke="#63b8ff" d="M1300.69,-858.55C1227.72,-848.06 1099.24,-829.6 1019.42,-818.12"/>
<polygon fill="#63b8ff" stroke="#63b8ff" points="1020.38,-814.72 1009.99,-816.77 1019.39,-821.65 1020.38,-814.72"/>
</g>
<!-- Node106 -->
<g id="node47" class="node">
<title>Node106</title>
<g id="a_node47"><a xlink:href="../../db/d71/kratos__parameters_8h.html" target="_top" xlink:title=" ">
<polygon fill="white" stroke="#666666" points="1436.5,-750.5 1275.5,-750.5 1275.5,-731.5 1436.5,-731.5 1436.5,-750.5"/>
<text text-anchor="middle" x="1356" y="-738.5" font-family="Helvetica,sans-Serif" font-size="10.00">includes/kratos_parameters.h</text>
</a>
</g>
</g>
<!-- Node2&#45;&gt;Node106 -->
<g id="edge170" class="edge">
<title>Node2&#45;&gt;Node106</title>
<path fill="none" stroke="#63b8ff" d="M1356,-857.55C1356,-837.72 1356,-789.68 1356,-762.19"/>
<polygon fill="#63b8ff" stroke="#63b8ff" points="1359.5,-762.39 1356,-752.39 1352.5,-762.39 1359.5,-762.39"/>
</g>
<!-- Node4 -->
<g id="node4" class="node">
<title>Node4</title>
<g id="a_node4"><a xlink:title=" ">
<polygon fill="#e0e0e0" stroke="#999999" points="402,-24.5 358,-24.5 358,-5.5 402,-5.5 402,-24.5"/>
<text text-anchor="middle" x="380" y="-12.5" font-family="Helvetica,sans-Serif" font-size="10.00">string</text>
</a>
</g>
</g>
<!-- Node3&#45;&gt;Node4 -->
<g id="edge3" class="edge">
<title>Node3&#45;&gt;Node4</title>
<path fill="none" stroke="#63b8ff" d="M2244.06,-739C1925.26,-733.59 439.61,-707.52 344,-690 119.11,-648.79 0,-536.14 0,-307.5 0,-307.5 0,-307.5 0,-140.5 0,-93.2 33.81,-87.39 76,-66 165.74,-20.5 287.75,-14.87 346.14,-15.09"/>
<polygon fill="#63b8ff" stroke="#63b8ff" points="346.05,-18.58 356.09,-15.19 346.13,-11.58 346.05,-18.58"/>
</g>
<!-- Node5 -->
<g id="node5" class="node">
<title>Node5</title>
<g id="a_node5"><a xlink:title=" ">
<polygon fill="#e0e0e0" stroke="#999999" points="2089,-24.5 2029,-24.5 2029,-5.5 2089,-5.5 2089,-24.5"/>
<text text-anchor="middle" x="2059" y="-12.5" font-family="Helvetica,sans-Serif" font-size="10.00">iostream</text>
</a>
</g>
</g>
<!-- Node3&#45;&gt;Node5 -->
<g id="edge4" class="edge">
<title>Node3&#45;&gt;Node5</title>
<path fill="none" stroke="#63b8ff" d="M2363.73,-734.8C2519.12,-720.47 2924,-677.69 2924,-621 2924,-621 2924,-621 2924,-140.5 2924,-99.61 2905.84,-85.7 2870,-66 2802.3,-28.79 2256.71,-18.65 2100.59,-16.5"/>
<polygon fill="#63b8ff" stroke="#63b8ff" points="2100.76,-13 2090.71,-16.37 2100.66,-20 2100.76,-13"/>
</g>
<!-- Node6 -->
<g id="node6" class="node">
<title>Node6</title>
<g id="a_node6"><a xlink:title=" ">
<polygon fill="#e0e0e0" stroke="#999999" points="2163.5,-371 2110.5,-371 2110.5,-352 2163.5,-352 2163.5,-371"/>
<text text-anchor="middle" x="2137" y="-359" font-family="Helvetica,sans-Serif" font-size="10.00">cstddef</text>
</a>
</g>
</g>
<!-- Node3&#45;&gt;Node6 -->
<g id="edge5" class="edge">
<title>Node3&#45;&gt;Node6</title>
<path fill="none" stroke="#63b8ff" d="M2309.01,-731.13C2314.19,-721.4 2321.95,-705.14 2325,-690 2330.25,-663.93 2316.44,-610.81 2314,-605 2273.98,-509.76 2189.83,-416.63 2153.87,-379.44"/>
<polygon fill="#63b8ff" stroke="#63b8ff" points="2156.38,-377 2146.88,-372.3 2151.38,-381.89 2156.38,-377"/>
</g>
<!-- Node7 -->
<g id="node7" class="node">
<title>Node7</title>
<g id="a_node7"><a xlink:title=" ">
<polygon fill="#e0e0e0" stroke="#999999" points="1979.5,-316 1886.5,-316 1886.5,-297 1979.5,-297 1979.5,-316"/>
<text text-anchor="middle" x="1933" y="-304" font-family="Helvetica,sans-Serif" font-size="10.00">unordered_map</text>
</a>
</g>
</g>
<!-- Node3&#45;&gt;Node7 -->
<g id="edge6" class="edge">
<title>Node3&#45;&gt;Node7</title>
<path fill="none" stroke="#63b8ff" d="M2312.92,-731C2321.51,-721.66 2333.9,-706.17 2339,-690 2341.54,-681.95 2339.51,-679.43 2339,-671 2331.78,-551.46 2359.49,-500.78 2285,-407 2250.51,-363.58 2225.64,-369.44 2173,-352 2112.67,-332.01 2040.66,-320.17 1991.35,-313.79"/>
<polygon fill="#63b8ff" stroke="#63b8ff" points="1991.81,-310.32 1981.45,-312.55 1990.94,-317.27 1991.81,-310.32"/>
</g>
<!-- Node3&#45;&gt;Node8 -->
<g id="edge7" class="edge">
<title>Node3&#45;&gt;Node8</title>
<path fill="none" stroke="#63b8ff" d="M2296.96,-731.14C2279.3,-709.07 2231.32,-650.16 2187,-605 2170.25,-587.93 2156.73,-590.85 2147,-569 2107.48,-480.27 2231.02,-429.9 2173,-352 2166.63,-343.44 1999.36,-299.57 1989,-297 1908.96,-277.17 1887.84,-277.25 1807,-261 1765.64,-252.68 1755.58,-249.15 1714,-242 1624.99,-226.69 1521.27,-212.94 1457.11,-204.9"/>
<polygon fill="#63b8ff" stroke="#63b8ff" points="1457.85,-201.47 1447.5,-203.7 1456.99,-208.41 1457.85,-201.47"/>
</g>
<!-- Node20 -->
<g id="node20" class="node">
<title>Node20</title>
<g id="a_node20"><a xlink:href="../../d1/d77/node_8h.html" target="_top" xlink:title=" ">
<polygon fill="#fff0f0" stroke="red" points="1795.5,-690 1702.5,-690 1702.5,-671 1795.5,-671 1795.5,-690"/>
<text text-anchor="middle" x="1749" y="-678" font-family="Helvetica,sans-Serif" font-size="10.00">includes/node.h</text>
</a>
</g>
</g>
<!-- Node3&#45;&gt;Node20 -->
<g id="edge30" class="edge">
<title>Node3&#45;&gt;Node20</title>
<path fill="none" stroke="#63b8ff" d="M2244.08,-733.68C2136.82,-722.38 1913.35,-698.82 1807.29,-687.64"/>
<polygon fill="#63b8ff" stroke="#63b8ff" points="1807.68,-684.17 1797.37,-686.6 1806.95,-691.13 1807.68,-684.17"/>
</g>
<!-- Node63 -->
<g id="node30" class="node">
<title>Node63</title>
<g id="a_node30"><a xlink:href="../../d1/d82/data__value__container_8h.html" target="_top" xlink:title=" ">
<polygon fill="white" stroke="#666666" points="2177.5,-635 2052.5,-635 2052.5,-605 2177.5,-605 2177.5,-635"/>
<text text-anchor="start" x="2060.5" y="-623" font-family="Helvetica,sans-Serif" font-size="10.00">containers/data_value</text>
<text text-anchor="middle" x="2115" y="-612" font-family="Helvetica,sans-Serif" font-size="10.00">_container.h</text>
</a>
</g>
</g>
<!-- Node3&#45;&gt;Node63 -->
<g id="edge104" class="edge">
<title>Node3&#45;&gt;Node63</title>
<path fill="none" stroke="#63b8ff" d="M2289.79,-731.06C2259.82,-712.18 2189.42,-667.86 2147.68,-641.58"/>
<polygon fill="#63b8ff" stroke="#63b8ff" points="2149.59,-638.64 2139.26,-636.28 2145.86,-644.57 2149.59,-638.64"/>
</g>
<!-- Node84 -->
<g id="node36" class="node">
<title>Node84</title>
<g id="a_node36"><a xlink:href="../../d9/d4c/includes_2indexed__object_8h.html" target="_top" xlink:title=" ">
<polygon fill="white" stroke="#666666" points="2629.5,-431.5 2486.5,-431.5 2486.5,-412.5 2629.5,-412.5 2629.5,-431.5"/>
<text text-anchor="middle" x="2558" y="-419.5" font-family="Helvetica,sans-Serif" font-size="10.00">includes/indexed_object.h</text>
</a>
</g>
</g>
<!-- Node3&#45;&gt;Node84 -->
<g id="edge100" class="edge">
<title>Node3&#45;&gt;Node84</title>
<path fill="none" stroke="#63b8ff" d="M2343.16,-731.09C2392.44,-719.55 2471.92,-699.78 2482,-690 2552.5,-621.62 2558.92,-492.91 2558.6,-443.25"/>
<polygon fill="#63b8ff" stroke="#63b8ff" points="2562.11,-443.38 2558.43,-433.45 2555.11,-443.51 2562.11,-443.38"/>
</g>
<!-- Node3&#45;&gt;Node85 -->
<g id="edge105" class="edge">
<title>Node3&#45;&gt;Node85</title>
<path fill="none" stroke="#63b8ff" d="M2349.28,-731.05C2401.4,-720.75 2487.06,-703.82 2543.5,-692.67"/>
<polygon fill="#63b8ff" stroke="#63b8ff" points="2544.11,-696.11 2553.24,-690.74 2542.75,-689.25 2544.11,-696.11"/>
</g>
<!-- Node86 -->
<g id="node38" class="node">
<title>Node86</title>
<g id="a_node38"><a xlink:href="../../dd/d98/table_8h.html" target="_top" xlink:title=" ">
<polygon fill="#fff0f0" stroke="red" points="2250,-563.5 2156,-563.5 2156,-544.5 2250,-544.5 2250,-563.5"/>
<text text-anchor="middle" x="2203" y="-551.5" font-family="Helvetica,sans-Serif" font-size="10.00">includes/table.h</text>
</a>
</g>
</g>
<!-- Node3&#45;&gt;Node86 -->
<g id="edge113" class="edge">
<title>Node3&#45;&gt;Node86</title>
<path fill="none" stroke="#63b8ff" d="M2306,-731.22C2310.7,-708.33 2320.17,-645.73 2294,-605 2282.89,-587.71 2263.63,-575.91 2245.69,-568.13"/>
<polygon fill="#63b8ff" stroke="#63b8ff" points="2247.05,-564.9 2236.46,-564.46 2244.46,-571.41 2247.05,-564.9"/>
</g>
<!-- Node9 -->
<g id="node9" class="node">
<title>Node9</title>
<g id="a_node9"><a xlink:title=" ">
<polygon fill="#e0e0e0" stroke="#999999" points="1135.5,-90.5 1070.5,-90.5 1070.5,-71.5 1135.5,-71.5 1135.5,-90.5"/>
<text text-anchor="middle" x="1103" y="-78.5" font-family="Helvetica,sans-Serif" font-size="10.00">stdexcept</text>
</a>
</g>
</g>
<!-- Node8&#45;&gt;Node9 -->
<g id="edge8" class="edge">
<title>Node8&#45;&gt;Node9</title>
<path fill="none" stroke="#63b8ff" d="M1373.01,-186.59C1321.45,-166.62 1196.4,-118.18 1136.32,-94.91"/>
<polygon fill="#63b8ff" stroke="#63b8ff" points="1137.88,-91.76 1127.3,-91.41 1135.36,-98.29 1137.88,-91.76"/>
</g>
<!-- Node10 -->
<g id="node10" class="node">
<title>Node10</title>
<g id="a_node10"><a xlink:title=" ">
<polygon fill="#e0e0e0" stroke="#999999" points="1892,-90.5 1836,-90.5 1836,-71.5 1892,-71.5 1892,-90.5"/>
<text text-anchor="middle" x="1864" y="-78.5" font-family="Helvetica,sans-Serif" font-size="10.00">sstream</text>
</a>
</g>
</g>
<!-- Node8&#45;&gt;Node10 -->
<g id="edge9" class="edge">
<title>Node8&#45;&gt;Node10</title>
<path fill="none" stroke="#63b8ff" d="M1445.79,-188.46C1496.15,-180.9 1576.03,-167.69 1644,-151 1710.02,-134.79 1785.26,-109.72 1828.44,-94.68"/>
<polygon fill="#63b8ff" stroke="#63b8ff" points="1829.51,-98.02 1837.79,-91.41 1827.19,-91.41 1829.51,-98.02"/>
</g>
<!-- Node11 -->
<g id="node11" class="node">
<title>Node11</title>
<g id="a_node11"><a xlink:href="../../dc/d25/kratos__export__api_8h.html" target="_top" xlink:title=" ">
<polygon fill="white" stroke="#666666" points="1266,-30 1138,-30 1138,0 1266,0 1266,-30"/>
<text text-anchor="start" x="1146" y="-18" font-family="Helvetica,sans-Serif" font-size="10.00">includes/kratos_export</text>
<text text-anchor="middle" x="1202" y="-7" font-family="Helvetica,sans-Serif" font-size="10.00">_api.h</text>
</a>
</g>
</g>
<!-- Node8&#45;&gt;Node11 -->
<g id="edge10" class="edge">
<title>Node8&#45;&gt;Node11</title>
<path fill="none" stroke="#63b8ff" d="M1346.36,-193.56C1231.82,-188.74 951.95,-174.84 861,-151 804.25,-136.12 772.68,-145.38 741,-96 733.8,-84.78 732.09,-75.92 741,-66 766.22,-37.89 1002.14,-24.13 1126.34,-18.78"/>
<polygon fill="#63b8ff" stroke="#63b8ff" points="1126.28,-22.28 1136.12,-18.37 1125.98,-15.29 1126.28,-22.28"/>
</g>
<!-- Node12 -->
<g id="node12" class="node">
<title>Node12</title>
<g id="a_node12"><a xlink:href="../../d9/dc0/smart__pointers_8h.html" target="_top" xlink:title=" ">
<polygon fill="white" stroke="#666666" points="1013.5,-151 870.5,-151 870.5,-132 1013.5,-132 1013.5,-151"/>
<text text-anchor="middle" x="942" y="-139" font-family="Helvetica,sans-Serif" font-size="10.00">includes/smart_pointers.h</text>
</a>
</g>
</g>
<!-- Node8&#45;&gt;Node12 -->
<g id="edge11" class="edge">
<title>Node8&#45;&gt;Node12</title>
<path fill="none" stroke="#63b8ff" d="M1346.12,-189.68C1268.75,-180.65 1119,-163.16 1025.12,-152.2"/>
<polygon fill="#63b8ff" stroke="#63b8ff" points="1025.8,-148.76 1015.46,-151.08 1024.98,-155.71 1025.8,-148.76"/>
</g>
<!-- Node16 -->
<g id="node16" class="node">
<title>Node16</title>
<g id="a_node16"><a xlink:href="../../dd/d2d/exception_8h.html" target="_top" xlink:title=" ">
<polygon fill="white" stroke="#666666" points="1454.5,-151 1337.5,-151 1337.5,-132 1454.5,-132 1454.5,-151"/>
<text text-anchor="middle" x="1396" y="-139" font-family="Helvetica,sans-Serif" font-size="10.00">includes/exception.h</text>
</a>
</g>
</g>
<!-- Node8&#45;&gt;Node16 -->
<g id="edge16" class="edge">
<title>Node8&#45;&gt;Node16</title>
<path fill="none" stroke="#63b8ff" d="M1396,-186.75C1396,-180.27 1396,-171.16 1396,-162.9"/>
<polygon fill="#63b8ff" stroke="#63b8ff" points="1399.5,-162.96 1396,-152.96 1392.5,-162.96 1399.5,-162.96"/>
</g>
<!-- Node12&#45;&gt;Node5 -->
<g id="edge12" class="edge">
<title>Node12&#45;&gt;Node5</title>
<path fill="none" stroke="#63b8ff" d="M1013.75,-139.43C1100.71,-136.7 1251.12,-127.36 1376,-96 1410.02,-87.46 1414.89,-74.2 1449,-66 1557.38,-39.95 1897.8,-23.02 2017.15,-17.75"/>
<polygon fill="#63b8ff" stroke="#63b8ff" points="2017.3,-21.25 2027.13,-17.32 2016.99,-14.26 2017.3,-21.25"/>
</g>
<!-- Node13 -->
<g id="node13" class="node">
<title>Node13</title>
<g id="a_node13"><a xlink:title=" ">
<polygon fill="#e0e0e0" stroke="#999999" points="1013.5,-90.5 968.5,-90.5 968.5,-71.5 1013.5,-71.5 1013.5,-90.5"/>
<text text-anchor="middle" x="991" y="-78.5" font-family="Helvetica,sans-Serif" font-size="10.00">utility</text>
</a>
</g>
</g>
<!-- Node12&#45;&gt;Node13 -->
<g id="edge13" class="edge">
<title>Node12&#45;&gt;Node13</title>
<path fill="none" stroke="#63b8ff" d="M949.23,-131.87C956.4,-123.31 967.57,-109.97 976.56,-99.24"/>
<polygon fill="#63b8ff" stroke="#63b8ff" points="979.03,-101.74 982.77,-91.83 973.66,-97.25 979.03,-101.74"/>
</g>
<!-- Node14 -->
<g id="node14" class="node">
<title>Node14</title>
<g id="a_node14"><a xlink:title=" ">
<polygon fill="#e0e0e0" stroke="#999999" points="950,-90.5 892,-90.5 892,-71.5 950,-71.5 950,-90.5"/>
<text text-anchor="middle" x="921" y="-78.5" font-family="Helvetica,sans-Serif" font-size="10.00">memory</text>
</a>
</g>
</g>
<!-- Node12&#45;&gt;Node14 -->
<g id="edge14" class="edge">
<title>Node12&#45;&gt;Node14</title>
<path fill="none" stroke="#63b8ff" d="M938.9,-131.87C936.02,-123.83 931.62,-111.57 927.9,-101.22"/>
<polygon fill="#63b8ff" stroke="#63b8ff" points="931.3,-100.32 924.62,-92.09 924.71,-102.69 931.3,-100.32"/>
</g>
<!-- Node15 -->
<g id="node15" class="node">
<title>Node15</title>
<g id="a_node15"><a xlink:title=" ">
<polygon fill="#e0e0e0" stroke="#999999" points="874,-96 750,-96 750,-66 874,-66 874,-96"/>
<text text-anchor="start" x="758" y="-84" font-family="Helvetica,sans-Serif" font-size="10.00">intrusive_ptr/intrusive</text>
<text text-anchor="middle" x="812" y="-73" font-family="Helvetica,sans-Serif" font-size="10.00">_ptr.hpp</text>
</a>
</g>
</g>
<!-- Node12&#45;&gt;Node15 -->
<g id="edge15" class="edge">
<title>Node12&#45;&gt;Node15</title>
<path fill="none" stroke="#63b8ff" d="M922.26,-131.62C904.35,-123.56 877.35,-111.41 854.55,-101.15"/>
<polygon fill="#63b8ff" stroke="#63b8ff" points="856.02,-97.97 845.47,-97.06 853.15,-104.36 856.02,-97.97"/>
</g>
<!-- Node16&#45;&gt;Node4 -->
<g id="edge18" class="edge">
<title>Node16&#45;&gt;Node4</title>
<path fill="none" stroke="#63b8ff" d="M1340.16,-131.55C1300.8,-124.32 1247.26,-112.59 1202,-96 1174.75,-86.01 1171.96,-73.78 1144,-66 1003.51,-26.91 542.58,-18.1 413.73,-16.38"/>
<polygon fill="#63b8ff" stroke="#63b8ff" points="413.88,-12.88 403.83,-16.25 413.79,-19.88 413.88,-12.88"/>
</g>
<!-- Node16&#45;&gt;Node5 -->
<g id="edge19" class="edge">
<title>Node16&#45;&gt;Node5</title>
<path fill="none" stroke="#63b8ff" d="M1406.59,-131.63C1429.28,-112.72 1481.3,-69.83 1491,-66 1586.92,-28.09 1903.01,-18.77 2017.3,-16.61"/>
<polygon fill="#63b8ff" stroke="#63b8ff" points="2017.21,-20.11 2027.14,-16.44 2017.08,-13.11 2017.21,-20.11"/>
</g>
<!-- Node16&#45;&gt;Node9 -->
<g id="edge17" class="edge">
<title>Node16&#45;&gt;Node9</title>
<path fill="none" stroke="#63b8ff" d="M1337.47,-131.78C1287.39,-123.88 1213.54,-111.16 1150,-96 1147.41,-95.38 1144.76,-94.71 1142.09,-94"/>
<polygon fill="#63b8ff" stroke="#63b8ff" points="1143.23,-90.68 1132.65,-91.36 1141.34,-97.42 1143.23,-90.68"/>
</g>
<!-- Node16&#45;&gt;Node10 -->
<g id="edge20" class="edge">
<title>Node16&#45;&gt;Node10</title>
<path fill="none" stroke="#63b8ff" d="M1454.8,-133.15C1551.55,-121.06 1741.82,-97.27 1824.3,-86.96"/>
<polygon fill="#63b8ff" stroke="#63b8ff" points="1824.67,-90.44 1834.16,-85.73 1823.8,-83.5 1824.67,-90.44"/>
</g>
<!-- Node16&#45;&gt;Node11 -->
<g id="edge22" class="edge">
<title>Node16&#45;&gt;Node11</title>
<path fill="none" stroke="#63b8ff" d="M1337.08,-132.17C1292.84,-124.74 1237.22,-112.48 1221,-96 1206.99,-81.77 1202.62,-59.2 1201.54,-41.66"/>
<polygon fill="#63b8ff" stroke="#63b8ff" points="1205.04,-41.64 1201.27,-31.74 1198.04,-41.83 1205.04,-41.64"/>
</g>
<!-- Node17 -->
<g id="node17" class="node">
<title>Node17</title>
<g id="a_node17"><a xlink:title=" ">
<polygon fill="#e0e0e0" stroke="#999999" points="1587.5,-24.5 1540.5,-24.5 1540.5,-5.5 1587.5,-5.5 1587.5,-24.5"/>
<text text-anchor="middle" x="1564" y="-12.5" font-family="Helvetica,sans-Serif" font-size="10.00">vector</text>
</a>
</g>
</g>
<!-- Node16&#45;&gt;Node17 -->
<g id="edge21" class="edge">
<title>Node16&#45;&gt;Node17</title>
<path fill="none" stroke="#63b8ff" d="M1401.5,-131.62C1411.27,-116.47 1432.98,-85.36 1458,-66 1479.51,-49.35 1507.47,-36.45 1529.26,-27.93"/>
<polygon fill="#63b8ff" stroke="#63b8ff" points="1530.49,-31.21 1538.62,-24.41 1528.03,-24.66 1530.49,-31.21"/>
</g>
<!-- Node18 -->
<g id="node18" class="node">
<title>Node18</title>
<g id="a_node18"><a xlink:href="../../da/da6/code__location_8h.html" target="_top" xlink:title=" ">
<polygon fill="white" stroke="#666666" points="1367.5,-90.5 1230.5,-90.5 1230.5,-71.5 1367.5,-71.5 1367.5,-90.5"/>
<text text-anchor="middle" x="1299" y="-78.5" font-family="Helvetica,sans-Serif" font-size="10.00">includes/code_location.h</text>
</a>
</g>
</g>
<!-- Node16&#45;&gt;Node18 -->
<g id="edge23" class="edge">
<title>Node16&#45;&gt;Node18</title>
<path fill="none" stroke="#63b8ff" d="M1381.27,-131.62C1365.96,-122.38 1341.73,-107.77 1323.53,-96.79"/>
<polygon fill="#63b8ff" stroke="#63b8ff" points="1325.54,-93.92 1315.17,-91.75 1321.92,-99.91 1325.54,-93.92"/>
</g>
<!-- Node19 -->
<g id="node19" class="node">
<title>Node19</title>
<g id="a_node19"><a xlink:href="../../d9/d06/stl__vector__io_8h.html" target="_top" xlink:title=" ">
<polygon fill="white" stroke="#666666" points="1628,-90.5 1500,-90.5 1500,-71.5 1628,-71.5 1628,-90.5"/>
<text text-anchor="middle" x="1564" y="-78.5" font-family="Helvetica,sans-Serif" font-size="10.00">utilities/stl_vector_io.h</text>
</a>
</g>
</g>
<!-- Node16&#45;&gt;Node19 -->
<g id="edge27" class="edge">
<title>Node16&#45;&gt;Node19</title>
<path fill="none" stroke="#63b8ff" d="M1421.52,-131.62C1449.76,-121.78 1495.52,-105.84 1527.54,-94.69"/>
<polygon fill="#63b8ff" stroke="#63b8ff" points="1528.52,-98.06 1536.81,-91.47 1526.22,-91.45 1528.52,-98.06"/>
</g>
<!-- Node18&#45;&gt;Node4 -->
<g id="edge24" class="edge">
<title>Node18&#45;&gt;Node4</title>
<path fill="none" stroke="#63b8ff" d="M1230.28,-71.41C1213.21,-69.46 1194.96,-67.51 1178,-66 882.14,-39.63 523.35,-22.41 413.53,-17.47"/>
<polygon fill="#63b8ff" stroke="#63b8ff" points="413.9,-13.98 403.76,-17.03 413.59,-20.97 413.9,-13.98"/>
</g>
<!-- Node18&#45;&gt;Node5 -->
<g id="edge25" class="edge">
<title>Node18&#45;&gt;Node5</title>
<path fill="none" stroke="#63b8ff" d="M1367.74,-71.6C1384.8,-69.64 1403.06,-67.64 1420,-66 1645.06,-44.18 1915.44,-25.5 2017.39,-18.72"/>
<polygon fill="#63b8ff" stroke="#63b8ff" points="2017.44,-22.22 2027.19,-18.07 2016.98,-15.24 2017.44,-22.22"/>
</g>
<!-- Node18&#45;&gt;Node11 -->
<g id="edge26" class="edge">
<title>Node18&#45;&gt;Node11</title>
<path fill="none" stroke="#63b8ff" d="M1285.51,-71.1C1272.07,-62.23 1250.95,-48.3 1233.31,-36.66"/>
<polygon fill="#63b8ff" stroke="#63b8ff" points="1235.48,-33.9 1225.21,-31.31 1231.63,-39.74 1235.48,-33.9"/>
</g>
<!-- Node19&#45;&gt;Node5 -->
<g id="edge28" class="edge">
<title>Node19&#45;&gt;Node5</title>
<path fill="none" stroke="#63b8ff" d="M1611.36,-71.04C1621.46,-69.26 1632.07,-67.49 1642,-66 1778.9,-45.52 1942.08,-27.92 2017.28,-20.19"/>
<polygon fill="#63b8ff" stroke="#63b8ff" points="2017.47,-23.69 2027.07,-19.19 2016.76,-16.72 2017.47,-23.69"/>
</g>
<!-- Node19&#45;&gt;Node17 -->
<g id="edge29" class="edge">
<title>Node19&#45;&gt;Node17</title>
<path fill="none" stroke="#63b8ff" d="M1564,-71.1C1564,-62.12 1564,-47.95 1564,-36.22"/>
<polygon fill="#63b8ff" stroke="#63b8ff" points="1567.5,-36.34 1564,-26.34 1560.5,-36.34 1567.5,-36.34"/>
</g>
<!-- Node20&#45;&gt;Node4 -->
<g id="edge31" class="edge">
<title>Node20&#45;&gt;Node4</title>
<path fill="none" stroke="#63b8ff" d="M1702.14,-676.93C1668.9,-675.15 1623.22,-672.78 1583,-671 1156.9,-652.09 1046.22,-695.46 624,-635 570.01,-627.27 558.18,-617.11 505,-605 426.72,-587.18 405.42,-590.22 328,-569 241.78,-545.37 198.25,-569.04 138,-503 99.35,-460.63 76,-309.85 76,-252.5 76,-252.5 76,-252.5 76,-140.5 76,-105.71 73.8,-88.88 100,-66 136.33,-34.27 280.24,-21.85 346.41,-17.75"/>
<polygon fill="#63b8ff" stroke="#63b8ff" points="346.53,-21.25 356.3,-17.16 346.11,-14.26 346.53,-21.25"/>
</g>
<!-- Node20&#45;&gt;Node5 -->
<g id="edge32" class="edge">
<title>Node20&#45;&gt;Node5</title>
<path fill="none" stroke="#63b8ff" d="M1795.97,-679.58C1890.66,-678.88 2110.84,-672.89 2291,-635 2466.78,-598.03 2506.92,-571.43 2673,-503 2765.22,-465 2848,-462.24 2848,-362.5 2848,-362.5 2848,-362.5 2848,-140.5 2848,-103.33 2841.03,-86.46 2810,-66 2750.65,-26.88 2249.57,-18.14 2100.6,-16.4"/>
<polygon fill="#63b8ff" stroke="#63b8ff" points="2100.84,-12.9 2090.8,-16.29 2100.76,-19.9 2100.84,-12.9"/>
</g>
<!-- Node20&#45;&gt;Node6 -->
<g id="edge34" class="edge">
<title>Node20&#45;&gt;Node6</title>
<path fill="none" stroke="#63b8ff" d="M1795.61,-677.39C1836.54,-673.6 1896.21,-663.22 1940,-635 2041.3,-569.71 2107.33,-432.51 2129.1,-381.84"/>
<polygon fill="#63b8ff" stroke="#63b8ff" points="2132.25,-383.37 2132.89,-372.8 2125.8,-380.67 2132.25,-383.37"/>
</g>
<!-- Node20&#45;&gt;Node8 -->
<g id="edge36" class="edge">
<title>Node20&#45;&gt;Node8</title>
<path fill="none" stroke="#63b8ff" d="M1787.84,-670.62C1839.95,-656.13 1926,-622.06 1926,-555 1926,-555 1926,-555 1926,-487 1926,-296.76 1752.97,-309.22 1575,-242 1536.48,-227.45 1491.5,-216.29 1456.26,-208.79"/>
<polygon fill="#63b8ff" stroke="#63b8ff" points="1457.17,-205.4 1446.67,-206.79 1455.74,-212.25 1457.17,-205.4"/>
</g>
<!-- Node20&#45;&gt;Node10 -->
<g id="edge33" class="edge">
<title>Node20&#45;&gt;Node10</title>
<path fill="none" stroke="#63b8ff" d="M1795.81,-679.12C1928.49,-676.89 2301.65,-662.3 2368,-569 2523.5,-350.33 2037.09,-147.01 1899.31,-94.86"/>
<polygon fill="#63b8ff" stroke="#63b8ff" points="1900.91,-91.73 1890.32,-91.49 1898.45,-98.28 1900.91,-91.73"/>
</g>
<!-- Node20&#45;&gt;Node15 -->
<g id="edge41" class="edge">
<title>Node20&#45;&gt;Node15</title>
<path fill="none" stroke="#63b8ff" d="M1702.14,-677C1668.89,-675.26 1623.21,-672.9 1583,-671 1399.25,-662.3 933.26,-684.16 756,-635 637.57,-602.15 607.69,-581.36 513,-503 438.17,-441.07 385.51,-377.41 440,-297 513.77,-188.15 662.32,-127.26 747.7,-99.9"/>
<polygon fill="#63b8ff" stroke="#63b8ff" points="748.61,-103.28 757.1,-96.94 746.51,-96.6 748.61,-103.28"/>
</g>
<!-- Node21 -->
<g id="node21" class="node">
<title>Node21</title>
<g id="a_node21"><a xlink:title=" ">
<polygon fill="#e0e0e0" stroke="#999999" points="496,-629.5 446,-629.5 446,-610.5 496,-610.5 496,-629.5"/>
<text text-anchor="middle" x="471" y="-617.5" font-family="Helvetica,sans-Serif" font-size="10.00">atomic</text>
</a>
</g>
</g>
<!-- Node20&#45;&gt;Node21 -->
<g id="edge35" class="edge">
<title>Node20&#45;&gt;Node21</title>
<path fill="none" stroke="#63b8ff" d="M1702.14,-676.9C1668.9,-675.1 1623.22,-672.73 1583,-671 1123.15,-651.23 1005.63,-684.3 548,-635 534.66,-633.56 520.15,-631.15 507.36,-628.73"/>
<polygon fill="#63b8ff" stroke="#63b8ff" points="508.15,-625.32 497.67,-626.82 506.8,-632.19 508.15,-625.32"/>
</g>
<!-- Node53 -->
<g id="node22" class="node">
<title>Node53</title>
<g id="a_node22"><a xlink:href="../../d9/da0/flags_8h.html" target="_top" xlink:title=" ">
<polygon fill="white" stroke="#666666" points="853.5,-316 750.5,-316 750.5,-297 853.5,-297 853.5,-316"/>
<text text-anchor="middle" x="802" y="-304" font-family="Helvetica,sans-Serif" font-size="10.00">containers/flags.h</text>
</a>
</g>
</g>
<!-- Node20&#45;&gt;Node53 -->
<g id="edge37" class="edge">
<title>Node20&#45;&gt;Node53</title>
<path fill="none" stroke="#63b8ff" d="M1702.14,-677.06C1668.89,-675.34 1623.21,-673 1583,-671 1417.01,-662.75 992.65,-690.49 836,-635 745.5,-602.94 706.2,-589.72 665,-503 630.05,-429.43 729.49,-353.61 777.59,-322.34"/>
<polygon fill="#63b8ff" stroke="#63b8ff" points="779.16,-325.49 785.73,-317.18 775.41,-319.58 779.16,-325.49"/>
</g>
<!-- Node20&#45;&gt;Node81 -->
<g id="edge42" class="edge">
<title>Node20&#45;&gt;Node81</title>
<path fill="none" stroke="#63b8ff" d="M1749,-670.57C1749,-642.92 1749,-558 1749,-514.81"/>
<polygon fill="#63b8ff" stroke="#63b8ff" points="1752.5,-514.85 1749,-504.85 1745.5,-514.85 1752.5,-514.85"/>
</g>
<!-- Node20&#45;&gt;Node63 -->
<g id="edge68" class="edge">
<title>Node20&#45;&gt;Node63</title>
<path fill="none" stroke="#63b8ff" d="M1795.86,-672.68C1853.08,-664.27 1952.77,-649.31 2038,-635 2039.03,-634.83 2040.06,-634.65 2041.1,-634.48"/>
<polygon fill="#63b8ff" stroke="#63b8ff" points="2041.66,-637.93 2050.92,-632.78 2040.47,-631.03 2041.66,-637.93"/>
</g>
<!-- Node53&#45;&gt;Node4 -->
<g id="edge38" class="edge">
<title>Node53&#45;&gt;Node4</title>
<path fill="none" stroke="#63b8ff" d="M750.15,-299.85C673.45,-291.12 536.73,-274 518,-261 476.23,-232.02 411.08,-88.03 388.24,-35.35"/>
<polygon fill="#63b8ff" stroke="#63b8ff" points="391.47,-33.99 384.31,-26.19 385.04,-36.76 391.47,-33.99"/>
</g>
<!-- Node53&#45;&gt;Node5 -->
<g id="edge39" class="edge">
<title>Node53&#45;&gt;Node5</title>
<path fill="none" stroke="#63b8ff" d="M853.93,-296.77C902.47,-288.39 976.87,-274.97 1041,-261 1074.12,-253.78 1303.92,-194.44 1337,-187 1416.6,-169.1 1438.33,-172.62 1517,-151 1587.89,-131.52 1605.52,-125.18 1673,-96 1699.64,-84.48 1703.4,-74.97 1731,-66 1830.58,-33.63 1954.13,-22.02 2017.39,-18.01"/>
<polygon fill="#63b8ff" stroke="#63b8ff" points="2017.56,-21.5 2027.34,-17.41 2017.15,-14.52 2017.56,-21.5"/>
</g>
<!-- Node53&#45;&gt;Node8 -->
<g id="edge40" class="edge">
<title>Node53&#45;&gt;Node8</title>
<path fill="none" stroke="#63b8ff" d="M853.84,-304.27C922.85,-301.43 1048.03,-292.03 1150,-261 1168.06,-255.5 1170.18,-248.25 1188,-242 1236.2,-225.1 1293.04,-213.47 1335.11,-206.35"/>
<polygon fill="#63b8ff" stroke="#63b8ff" points="1335.5,-209.83 1344.79,-204.75 1334.36,-202.93 1335.5,-209.83"/>
</g>
<!-- Node81&#45;&gt;Node5 -->
<g id="edge44" class="edge">
<title>Node81&#45;&gt;Node5</title>
<path fill="none" stroke="#63b8ff" d="M1789.74,-472.51C1816.21,-462.9 1851.37,-449.74 1882,-437 1965.92,-402.1 1982.22,-382.04 2068,-352 2130.26,-330.2 2162.72,-359.86 2212,-316 2234.54,-295.94 2236,-282.67 2236,-252.5 2236,-252.5 2236,-252.5 2236,-140.5 2236,-105.71 2236.55,-90.65 2212,-66 2182.33,-36.2 2134.67,-24.16 2100.42,-19.29"/>
<polygon fill="#63b8ff" stroke="#63b8ff" points="2101.23,-15.87 2090.87,-18.09 2100.36,-22.81 2101.23,-15.87"/>
</g>
<!-- Node81&#45;&gt;Node8 -->
<g id="edge46" class="edge">
<title>Node81&#45;&gt;Node8</title>
<path fill="none" stroke="#63b8ff" d="M1766.44,-472.58C1783.56,-456.59 1805.44,-430.01 1793,-407 1761.17,-348.12 1601.6,-270.43 1541,-242 1510.8,-227.83 1474.98,-216.79 1446.5,-209.25"/>
<polygon fill="#63b8ff" stroke="#63b8ff" points="1447.6,-205.91 1437.04,-206.81 1445.85,-212.69 1447.6,-205.91"/>
</g>
<!-- Node81&#45;&gt;Node17 -->
<g id="edge43" class="edge">
<title>Node81&#45;&gt;Node17</title>
<path fill="none" stroke="#63b8ff" d="M1777.86,-472.58C1847.03,-437.05 2014.67,-344.74 1989,-297 1903.5,-137.98 1684.15,-53.9 1598.76,-26.35"/>
<polygon fill="#63b8ff" stroke="#63b8ff" points="1599.89,-23.04 1589.3,-23.37 1597.78,-29.71 1599.89,-23.04"/>
</g>
<!-- Node78 -->
<g id="node24" class="node">
<title>Node78</title>
<g id="a_node24"><a xlink:title=" ">
<polygon fill="#e0e0e0" stroke="#999999" points="1404,-437 1282,-437 1282,-407 1404,-407 1404,-437"/>
<text text-anchor="start" x="1290" y="-425" font-family="Helvetica,sans-Serif" font-size="10.00">boost/iterator/indirect</text>
<text text-anchor="middle" x="1343" y="-414" font-family="Helvetica,sans-Serif" font-size="10.00">_iterator.hpp</text>
</a>
</g>
</g>
<!-- Node81&#45;&gt;Node78 -->
<g id="edge45" class="edge">
<title>Node81&#45;&gt;Node78</title>
<path fill="none" stroke="#63b8ff" d="M1675.59,-476.65C1608.44,-467.01 1506.4,-451.92 1418,-437 1417.17,-436.86 1416.33,-436.72 1415.49,-436.57"/>
<polygon fill="#63b8ff" stroke="#63b8ff" points="1416.31,-433.16 1405.86,-434.89 1415.11,-440.06 1416.31,-433.16"/>
</g>
<!-- Node82 -->
<g id="node25" class="node">
<title>Node82</title>
<g id="a_node25"><a xlink:href="../../d6/dd9/global__pointer_8h.html" target="_top" xlink:title=" ">
<polygon fill="#fff0f0" stroke="red" points="1784,-431.5 1646,-431.5 1646,-412.5 1784,-412.5 1784,-431.5"/>
<text text-anchor="middle" x="1715" y="-419.5" font-family="Helvetica,sans-Serif" font-size="10.00">includes/global_pointer.h</text>
</a>
</g>
</g>
<!-- Node81&#45;&gt;Node82 -->
<g id="edge47" class="edge">
<title>Node81&#45;&gt;Node82</title>
<path fill="none" stroke="#63b8ff" d="M1741.45,-472.8C1736.62,-463.7 1730.29,-451.79 1725.04,-441.9"/>
<polygon fill="#63b8ff" stroke="#63b8ff" points="1728.19,-440.37 1720.41,-433.18 1722.01,-443.65 1728.19,-440.37"/>
</g>
<!-- Node47 -->
<g id="node26" class="node">
<title>Node47</title>
<g id="a_node26"><a xlink:href="../../dd/d5f/serializer_8h.html" target="_top" xlink:title=" ">
<polygon fill="#fff0f0" stroke="red" points="1449.5,-371 1336.5,-371 1336.5,-352 1449.5,-352 1449.5,-371"/>
<text text-anchor="middle" x="1393" y="-359" font-family="Helvetica,sans-Serif" font-size="10.00">includes/serializer.h</text>
</a>
</g>
</g>
<!-- Node81&#45;&gt;Node47 -->
<g id="edge67" class="edge">
<title>Node81&#45;&gt;Node47</title>
<path fill="none" stroke="#63b8ff" d="M1675.62,-482.1C1621.96,-476.35 1548.47,-463.91 1489,-437 1457.45,-422.72 1426.89,-396.13 1409.03,-378.88"/>
<polygon fill="#63b8ff" stroke="#63b8ff" points="1411.97,-376.87 1402.4,-372.32 1407.05,-381.84 1411.97,-376.87"/>
</g>
<!-- Node82&#45;&gt;Node5 -->
<g id="edge48" class="edge">
<title>Node82&#45;&gt;Node5</title>
<path fill="none" stroke="#63b8ff" d="M1725.96,-412.21C1747.5,-394.75 1796.5,-354.09 1834,-316 1859.83,-289.75 1959.81,-167.66 1972,-151 2001.39,-110.84 2032.1,-61.05 2047.99,-34.58"/>
<polygon fill="#63b8ff" stroke="#63b8ff" points="2050.95,-36.45 2053.07,-26.07 2044.94,-32.86 2050.95,-36.45"/>
</g>
<!-- Node82&#45;&gt;Node8 -->
<g id="edge49" class="edge">
<title>Node82&#45;&gt;Node8</title>
<path fill="none" stroke="#63b8ff" d="M1707.4,-412.32C1682.3,-384.12 1598.79,-293.92 1513,-242 1490.15,-228.17 1462.28,-217.36 1439.47,-209.87"/>
<polygon fill="#63b8ff" stroke="#63b8ff" points="1440.76,-206.6 1430.17,-206.91 1438.64,-213.27 1440.76,-206.6"/>
</g>
<!-- Node82&#45;&gt;Node47 -->
<g id="edge50" class="edge">
<title>Node82&#45;&gt;Node47</title>
<path fill="none" stroke="#63b8ff" d="M1665.74,-412.05C1608.77,-401.7 1514.97,-384.66 1453.58,-373.51"/>
<polygon fill="#63b8ff" stroke="#63b8ff" points="1454.47,-370.11 1444,-371.77 1453.22,-377 1454.47,-370.11"/>
</g>
<!-- Node47&#45;&gt;Node4 -->
<g id="edge51" class="edge">
<title>Node47&#45;&gt;Node4</title>
<path fill="none" stroke="#63b8ff" d="M1336.06,-355.01C1263.9,-347.73 1135.83,-333.7 1027,-316 985.36,-309.23 975.63,-303.84 934,-297 870.36,-286.54 700.02,-296.24 646,-261 618.45,-243.03 608,-230.39 608,-197.5 608,-197.5 608,-197.5 608,-140.5 608,-103.53 599.68,-89.33 571,-66 525.38,-28.89 455.12,-19.06 413.74,-16.62"/>
<polygon fill="#63b8ff" stroke="#63b8ff" points="414.04,-13.13 403.89,-16.16 413.72,-20.12 414.04,-13.13"/>
</g>
<!-- Node47&#45;&gt;Node5 -->
<g id="edge52" class="edge">
<title>Node47&#45;&gt;Node5</title>
<path fill="none" stroke="#63b8ff" d="M1429.09,-351.53C1459.62,-343.51 1504.29,-330.77 1542,-316 1593.64,-295.77 1605.09,-287.13 1654,-261 1697.03,-238.01 1708.02,-232.48 1749,-206 1760.2,-198.76 1932.4,-72.58 1944,-66 1969.82,-51.34 2000.77,-38.11 2024.06,-28.94"/>
<polygon fill="#63b8ff" stroke="#63b8ff" points="2025.02,-32.32 2033.08,-25.45 2022.49,-25.8 2025.02,-32.32"/>
</g>
<!-- Node47&#45;&gt;Node7 -->
<g id="edge54" class="edge">
<title>Node47&#45;&gt;Node7</title>
<path fill="none" stroke="#63b8ff" d="M1449.77,-354.93C1553.13,-344.78 1770.94,-323.41 1875.11,-313.18"/>
<polygon fill="#63b8ff" stroke="#63b8ff" points="1875.22,-316.69 1884.83,-312.23 1874.54,-309.72 1875.22,-316.69"/>
</g>
<!-- Node47&#45;&gt;Node8 -->
<g id="edge56" class="edge">
<title>Node47&#45;&gt;Node8</title>
<path fill="none" stroke="#63b8ff" d="M1393.77,-351.64C1394.52,-342.67 1395.58,-328.38 1396,-316 1397.16,-281.48 1396.8,-241.26 1396.41,-217.67"/>
<polygon fill="#63b8ff" stroke="#63b8ff" points="1399.92,-217.87 1396.23,-207.94 1392.92,-218 1399.92,-217.87"/>
</g>
<!-- Node47&#45;&gt;Node10 -->
<g id="edge55" class="edge">
<title>Node47&#45;&gt;Node10</title>
<path fill="none" stroke="#63b8ff" d="M1417.64,-351.63C1483.75,-327.06 1668.63,-253.08 1796,-151 1815.81,-135.12 1835.9,-113.98 1849.05,-99.3"/>
<polygon fill="#63b8ff" stroke="#63b8ff" points="1851.64,-101.66 1855.62,-91.85 1846.38,-97.04 1851.64,-101.66"/>
</g>
<!-- Node47&#45;&gt;Node53 -->
<g id="edge57" class="edge">
<title>Node47&#45;&gt;Node53</title>
<path fill="none" stroke="#63b8ff" d="M1336.06,-355.39C1225.17,-345.45 980.96,-323.55 865.22,-313.17"/>
<polygon fill="#63b8ff" stroke="#63b8ff" points="865.54,-309.68 855.27,-312.28 864.91,-316.66 865.54,-309.68"/>
</g>
<!-- Node49 -->
<g id="node27" class="node">
<title>Node49</title>
<g id="a_node27"><a xlink:title=" ">
<polygon fill="#e0e0e0" stroke="#999999" points="1366,-316 1328,-316 1328,-297 1366,-297 1366,-316"/>
<text text-anchor="middle" x="1347" y="-304" font-family="Helvetica,sans-Serif" font-size="10.00">map</text>
</a>
</g>
</g>
<!-- Node47&#45;&gt;Node49 -->
<g id="edge53" class="edge">
<title>Node47&#45;&gt;Node49</title>
<path fill="none" stroke="#63b8ff" d="M1385.4,-351.75C1379.12,-344.5 1369.99,-333.98 1362.2,-325.02"/>
<polygon fill="#63b8ff" stroke="#63b8ff" points="1364.95,-322.84 1355.75,-317.59 1359.66,-327.43 1364.95,-322.84"/>
</g>
<!-- Node29 -->
<g id="node28" class="node">
<title>Node29</title>
<g id="a_node28"><a xlink:href="../../d9/d3e/ublas__interface_8h.html" target="_top" xlink:title=" ">
<polygon fill="#fff0f0" stroke="red" points="1032,-261 888,-261 888,-242 1032,-242 1032,-261"/>
<text text-anchor="middle" x="960" y="-249" font-family="Helvetica,sans-Serif" font-size="10.00">includes/ublas_interface.h</text>
</a>
</g>
</g>
<!-- Node47&#45;&gt;Node29 -->
<g id="edge58" class="edge">
<title>Node47&#45;&gt;Node29</title>
<path fill="none" stroke="#63b8ff" d="M1393.35,-351.94C1393.41,-338.04 1391.29,-310.74 1375,-297 1350.23,-276.11 1157.5,-262.69 1043.59,-256.5"/>
<polygon fill="#63b8ff" stroke="#63b8ff" points="1043.83,-253 1033.66,-255.96 1043.46,-259.99 1043.83,-253"/>
</g>
<!-- Node25 -->
<g id="node29" class="node">
<title>Node25</title>
<g id="a_node29"><a xlink:href="../../d9/d36/array__1d_8h.html" target="_top" xlink:title=" ">
<polygon fill="#fff0f0" stroke="red" points="1158,-316 1036,-316 1036,-297 1158,-297 1158,-316"/>
<text text-anchor="middle" x="1097" y="-304" font-family="Helvetica,sans-Serif" font-size="10.00">containers/array_1d.h</text>
</a>
</g>
</g>
<!-- Node47&#45;&gt;Node25 -->
<g id="edge62" class="edge">
<title>Node47&#45;&gt;Node25</title>
<path fill="none" stroke="#63b8ff" d="M1342.79,-351.51C1291.82,-342.38 1212.84,-328.24 1158.23,-318.46"/>
<polygon fill="#63b8ff" stroke="#63b8ff" points="1158.91,-315.03 1148.45,-316.71 1157.68,-321.92 1158.91,-315.03"/>
</g>
<!-- Node29&#45;&gt;Node4 -->
<g id="edge59" class="edge">
<title>Node29&#45;&gt;Node4</title>
<path fill="none" stroke="#63b8ff" d="M941.63,-241.51C908.14,-224.92 835.25,-187.78 777,-151 722.65,-116.69 719.14,-91.18 660,-66 576.15,-30.3 467.69,-20.09 413.67,-17.17"/>
<polygon fill="#63b8ff" stroke="#63b8ff" points="414.05,-13.68 403.89,-16.7 413.71,-20.67 414.05,-13.68"/>
</g>
<!-- Node29&#45;&gt;Node5 -->
<g id="edge60" class="edge">
<title>Node29&#45;&gt;Node5</title>
<path fill="none" stroke="#63b8ff" d="M1008.89,-241.55C1117.62,-221.51 1376.66,-173.11 1463,-151 1541.57,-130.88 1564.24,-131.84 1637,-96 1657.9,-85.7 1658.28,-74.43 1680,-66 1796.34,-20.85 1946.24,-15.05 2017.64,-15.15"/>
<polygon fill="#63b8ff" stroke="#63b8ff" points="2017.28,-18.65 2027.3,-15.21 2017.32,-11.65 2017.28,-18.65"/>
</g>
<!-- Node29&#45;&gt;Node8 -->
<g id="edge61" class="edge">
<title>Node29&#45;&gt;Node8</title>
<path fill="none" stroke="#63b8ff" d="M1032.49,-241.69C1117.07,-231.41 1255.45,-214.59 1334.84,-204.93"/>
<polygon fill="#63b8ff" stroke="#63b8ff" points="1335.11,-208.43 1344.61,-203.75 1334.26,-201.48 1335.11,-208.43"/>
</g>
<!-- Node25&#45;&gt;Node4 -->
<g id="edge63" class="edge">
<title>Node25&#45;&gt;Node4</title>
<path fill="none" stroke="#63b8ff" d="M1035.74,-300.99C919.91,-292.2 679.09,-272.66 665,-261 642.31,-242.22 646,-226.96 646,-197.5 646,-197.5 646,-197.5 646,-140.5 646,-105.71 647.89,-89.24 622,-66 591.61,-38.72 472.58,-24.36 413.56,-18.79"/>
<polygon fill="#63b8ff" stroke="#63b8ff" points="414.04,-15.32 403.77,-17.9 413.41,-22.3 414.04,-15.32"/>
</g>
<!-- Node25&#45;&gt;Node5 -->
<g id="edge64" class="edge">
<title>Node25&#45;&gt;Node5</title>
<path fill="none" stroke="#63b8ff" d="M1142.95,-296.54C1238.65,-277.02 1465.3,-226.27 1644,-151 1714.62,-121.25 1722.05,-92.35 1794,-66 1870.02,-38.16 1964.25,-25.12 2017.41,-19.58"/>
<polygon fill="#63b8ff" stroke="#63b8ff" points="2017.63,-23.08 2027.23,-18.6 2016.93,-16.11 2017.63,-23.08"/>
</g>
<!-- Node25&#45;&gt;Node8 -->
<g id="edge65" class="edge">
<title>Node25&#45;&gt;Node8</title>
<path fill="none" stroke="#63b8ff" d="M1114.19,-296.58C1140.08,-283.39 1190.89,-258.46 1236,-242 1272.34,-228.74 1314.54,-217.15 1346.48,-209.13"/>
<polygon fill="#63b8ff" stroke="#63b8ff" points="1346.98,-212.61 1355.85,-206.81 1345.3,-205.82 1346.98,-212.61"/>
</g>
<!-- Node25&#45;&gt;Node29 -->
<g id="edge66" class="edge">
<title>Node25&#45;&gt;Node29</title>
<path fill="none" stroke="#63b8ff" d="M1073.76,-296.51C1051.68,-287.97 1018.25,-275.03 993.33,-265.4"/>
<polygon fill="#63b8ff" stroke="#63b8ff" points="994.9,-262.25 984.31,-261.9 992.37,-268.78 994.9,-262.25"/>
</g>
<!-- Node63&#45;&gt;Node4 -->
<g id="edge69" class="edge">
<title>Node63&#45;&gt;Node4</title>
<path fill="none" stroke="#63b8ff" d="M2052.1,-618.93C1830.83,-618.31 1089.11,-612.91 856,-569 767.74,-552.37 747.41,-538.72 665,-503 446.02,-408.08 190,-491.17 190,-252.5 190,-252.5 190,-252.5 190,-140.5 190,-66.47 292.17,-34.06 346.67,-22.05"/>
<polygon fill="#63b8ff" stroke="#63b8ff" points="347.27,-25.49 356.35,-20.03 345.85,-18.64 347.27,-25.49"/>
</g>
<!-- Node63&#45;&gt;Node5 -->
<g id="edge70" class="edge">
<title>Node63&#45;&gt;Node5</title>
<path fill="none" stroke="#63b8ff" d="M2177.82,-608.58C2229.27,-599.57 2303.8,-585.43 2368,-569 2415.19,-556.93 2751.46,-471.34 2786,-437 2810.67,-412.47 2810,-397.29 2810,-362.5 2810,-362.5 2810,-362.5 2810,-140.5 2810,-105.71 2813.4,-87.44 2786,-66 2731.91,-23.68 2246.63,-17.18 2100.47,-16.18"/>
<polygon fill="#63b8ff" stroke="#63b8ff" points="2100.89,-12.68 2090.87,-16.12 2100.85,-19.68 2100.89,-12.68"/>
</g>
<!-- Node63&#45;&gt;Node6 -->
<g id="edge71" class="edge">
<title>Node63&#45;&gt;Node6</title>
<path fill="none" stroke="#63b8ff" d="M2114.63,-604.56C2114.4,-594.57 2114.12,-580.98 2114,-569 2113.87,-555.67 2112.96,-552.29 2114,-539 2117.57,-493.25 2124.3,-482.53 2130,-437 2132.3,-418.66 2134.2,-397.68 2135.44,-382.67"/>
<polygon fill="#63b8ff" stroke="#63b8ff" points="2138.93,-382.99 2136.24,-372.74 2131.95,-382.44 2138.93,-382.99"/>
</g>
<!-- Node63&#45;&gt;Node8 -->
<g id="edge73" class="edge">
<title>Node63&#45;&gt;Node8</title>
<path fill="none" stroke="#63b8ff" d="M2107.39,-604.76C2083.43,-561.14 2005.19,-427.73 1906,-352 1768.46,-246.99 1559.65,-212.95 1457.14,-202.23"/>
<polygon fill="#63b8ff" stroke="#63b8ff" points="1457.58,-198.76 1447.28,-201.25 1456.88,-205.73 1457.58,-198.76"/>
</g>
<!-- Node63&#45;&gt;Node16 -->
<g id="edge99" class="edge">
<title>Node63&#45;&gt;Node16</title>
<path fill="none" stroke="#63b8ff" d="M2177.79,-613.65C2207.53,-607.59 2240.52,-594.99 2259,-569 2315.63,-489.4 2287.1,-426.58 2224,-352 2125.14,-235.15 1647.25,-170.52 1465.95,-149.88"/>
<polygon fill="#63b8ff" stroke="#63b8ff" points="1466.53,-146.42 1456.2,-148.78 1465.75,-153.37 1466.53,-146.42"/>
</g>
<!-- Node63&#45;&gt;Node17 -->
<g id="edge72" class="edge">
<title>Node63&#45;&gt;Node17</title>
<path fill="none" stroke="#63b8ff" d="M2177.82,-614.2C2212.37,-608.43 2253.66,-595.92 2281,-569 2369.13,-482.23 2256.85,-252.03 2249,-242 2083.52,-30.55 1714.72,-14.76 1599.26,-15.21"/>
<polygon fill="#63b8ff" stroke="#63b8ff" points="1599.45,-11.71 1589.49,-15.3 1599.52,-18.71 1599.45,-11.71"/>
</g>
<!-- Node64 -->
<g id="node31" class="node">
<title>Node64</title>
<g id="a_node31"><a xlink:href="../../da/d89/variable_8h.html" target="_top" xlink:title=" ">
<polygon fill="white" stroke="#666666" points="1541.5,-497.5 1422.5,-497.5 1422.5,-478.5 1541.5,-478.5 1541.5,-497.5"/>
<text text-anchor="middle" x="1482" y="-485.5" font-family="Helvetica,sans-Serif" font-size="10.00">containers/variable.h</text>
</a>
</g>
</g>
<!-- Node63&#45;&gt;Node64 -->
<g id="edge74" class="edge">
<title>Node63&#45;&gt;Node64</title>
<path fill="none" stroke="#63b8ff" d="M2052.28,-606.12C1928.36,-580.67 1654.01,-524.33 1536.81,-500.26"/>
<polygon fill="#63b8ff" stroke="#63b8ff" points="1537.62,-496.85 1527.12,-498.27 1536.21,-503.71 1537.62,-496.85"/>
</g>
<!-- Node67 -->
<g id="node33" class="node">
<title>Node67</title>
<g id="a_node33"><a xlink:href="../../dc/d8e/kratos__components_8h.html" target="_top" xlink:title=" ">
<polygon fill="#fff0f0" stroke="red" points="1030.5,-563.5 865.5,-563.5 865.5,-544.5 1030.5,-544.5 1030.5,-563.5"/>
<text text-anchor="middle" x="948" y="-551.5" font-family="Helvetica,sans-Serif" font-size="10.00">includes/kratos_components.h</text>
</a>
</g>
</g>
<!-- Node63&#45;&gt;Node67 -->
<g id="edge85" class="edge">
<title>Node63&#45;&gt;Node67</title>
<path fill="none" stroke="#63b8ff" d="M2052.2,-616.57C1894.72,-610.31 1470.34,-592.48 1117,-569 1092.78,-567.39 1066.63,-565.37 1042.31,-563.36"/>
<polygon fill="#63b8ff" stroke="#63b8ff" points="1042.67,-559.88 1032.42,-562.54 1042.09,-566.85 1042.67,-559.88"/>
</g>
<!-- Node64&#45;&gt;Node4 -->
<g id="edge75" class="edge">
<title>Node64&#45;&gt;Node4</title>
<path fill="none" stroke="#63b8ff" d="M1429.01,-478.04C1372.64,-468.39 1280.89,-452.34 1202,-437 1155.41,-427.94 402.04,-291.88 366,-261 343.09,-241.37 342,-227.67 342,-197.5 342,-197.5 342,-197.5 342,-140.5 342,-101.66 359.13,-58.85 370.39,-34.91"/>
<polygon fill="#63b8ff" stroke="#63b8ff" points="373.43,-36.66 374.68,-26.14 367.14,-33.59 373.43,-36.66"/>
</g>
<!-- Node64&#45;&gt;Node5 -->
<g id="edge76" class="edge">
<title>Node64&#45;&gt;Node5</title>
<path fill="none" stroke="#63b8ff" d="M1541.94,-484.33C1605.9,-479.89 1709.33,-468.14 1793,-437 1888.95,-401.3 1929.23,-399.11 1989,-316 2053.06,-226.93 2059.4,-87.97 2059.39,-36.27"/>
<polygon fill="#63b8ff" stroke="#63b8ff" points="2062.89,-36.32 2059.3,-26.36 2055.9,-36.39 2062.89,-36.32"/>
</g>
<!-- Node64&#45;&gt;Node8 -->
<g id="edge77" class="edge">
<title>Node64&#45;&gt;Node8</title>
<path fill="none" stroke="#63b8ff" d="M1481.05,-478.01C1478.6,-456.12 1471.3,-398.46 1458,-352 1443.6,-301.69 1418.56,-245.26 1405.13,-216.54"/>
<polygon fill="#63b8ff" stroke="#63b8ff" points="1408.39,-215.24 1400.94,-207.7 1402.06,-218.23 1408.39,-215.24"/>
</g>
<!-- Node64&#45;&gt;Node19 -->
<g id="edge84" class="edge">
<title>Node64&#45;&gt;Node19</title>
<path fill="none" stroke="#63b8ff" d="M1534.82,-478.04C1558.66,-471.08 1584.64,-458.75 1599,-437 1670.98,-327.96 1600.56,-157.55 1573.55,-100.97"/>
<polygon fill="#63b8ff" stroke="#63b8ff" points="1576.85,-99.76 1569.31,-92.31 1570.57,-102.83 1576.85,-99.76"/>
</g>
<!-- Node65 -->
<g id="node32" class="node">
<title>Node65</title>
<g id="a_node32"><a xlink:href="../../d3/dc3/variable__data_8h.html" target="_top" xlink:title=" ">
<polygon fill="#fff0f0" stroke="red" points="1590,-431.5 1498,-431.5 1498,-412.5 1590,-412.5 1590,-431.5"/>
<text text-anchor="middle" x="1544" y="-419.5" font-family="Helvetica,sans-Serif" font-size="10.00">variable_data.h</text>
</a>
</g>
</g>
<!-- Node64&#45;&gt;Node65 -->
<g id="edge78" class="edge">
<title>Node64&#45;&gt;Node65</title>
<path fill="none" stroke="#63b8ff" d="M1490.62,-478.1C1500.15,-468.26 1515.73,-452.18 1527.6,-439.93"/>
<polygon fill="#63b8ff" stroke="#63b8ff" points="1529.96,-442.53 1534.4,-432.91 1524.93,-437.66 1529.96,-442.53"/>
</g>
<!-- Node65&#45;&gt;Node4 -->
<g id="edge79" class="edge">
<title>Node65&#45;&gt;Node4</title>
<path fill="none" stroke="#63b8ff" d="M1497.64,-415.84C1472.59,-413.1 1441.11,-409.75 1413,-407 1232.71,-389.37 1181.38,-420.06 1007,-371 993.75,-367.27 908.18,-322.41 896,-316 880.68,-307.93 878.45,-302.39 862,-297 716.43,-249.28 532,-350.69 532,-197.5 532,-197.5 532,-197.5 532,-140.5 532,-79.49 457.82,-42.96 413.1,-26.49"/>
<polygon fill="#63b8ff" stroke="#63b8ff" points="414.45,-23.25 403.86,-23.23 412.12,-29.85 414.45,-23.25"/>
</g>
<!-- Node65&#45;&gt;Node5 -->
<g id="edge80" class="edge">
<title>Node65&#45;&gt;Node5</title>
<path fill="none" stroke="#63b8ff" d="M1555.24,-412.16C1620.75,-360.65 1953.46,-99 2038.95,-31.77"/>
<polygon fill="#63b8ff" stroke="#63b8ff" points="2041.03,-34.59 2046.72,-25.65 2036.7,-29.09 2041.03,-34.59"/>
</g>
<!-- Node65&#45;&gt;Node6 -->
<g id="edge81" class="edge">
<title>Node65&#45;&gt;Node6</title>
<path fill="none" stroke="#63b8ff" d="M1590.28,-413.47C1605.17,-411.2 1621.76,-408.82 1637,-407 1808.75,-386.45 2014.75,-371.01 2098.64,-365.12"/>
<polygon fill="#63b8ff" stroke="#63b8ff" points="2098.87,-368.61 2108.6,-364.42 2098.38,-361.63 2098.87,-368.61"/>
</g>
<!-- Node65&#45;&gt;Node8 -->
<g id="edge82" class="edge">
<title>Node65&#45;&gt;Node8</title>
<path fill="none" stroke="#63b8ff" d="M1543.9,-412.37C1543.14,-384.32 1537.13,-294.53 1492,-242 1479.31,-227.23 1460.67,-217.06 1443.18,-210.22"/>
<polygon fill="#63b8ff" stroke="#63b8ff" points="1444.53,-206.98 1433.93,-206.89 1442.16,-213.57 1444.53,-206.98"/>
</g>
<!-- Node65&#45;&gt;Node47 -->
<g id="edge83" class="edge">
<title>Node65&#45;&gt;Node47</title>
<path fill="none" stroke="#63b8ff" d="M1521.07,-412.12C1495.9,-402.37 1455.27,-386.62 1426.52,-375.49"/>
<polygon fill="#63b8ff" stroke="#63b8ff" points="1428.15,-372.36 1417.56,-372.02 1425.62,-378.89 1428.15,-372.36"/>
</g>
<!-- Node67&#45;&gt;Node4 -->
<g id="edge86" class="edge">
<title>Node67&#45;&gt;Node4</title>
<path fill="none" stroke="#63b8ff" d="M924.86,-544.01C801.62,-496.06 228,-271.84 228,-252.5 228,-252.5 228,-252.5 228,-140.5 228,-79.49 302.18,-42.96 346.9,-26.49"/>
<polygon fill="#63b8ff" stroke="#63b8ff" points="347.88,-29.85 356.14,-23.23 345.55,-23.25 347.88,-29.85"/>
</g>
<!-- Node67&#45;&gt;Node5 -->
<g id="edge87" class="edge">
<title>Node67&#45;&gt;Node5</title>
<path fill="none" stroke="#63b8ff" d="M1030.91,-545.59C1058.3,-543.29 1088.95,-540.87 1117,-539 1275.52,-528.44 1678.29,-546.81 1831,-503 1963.53,-464.98 1974.33,-404.08 2102,-352 2211.97,-307.14 2350,-371.26 2350,-252.5 2350,-252.5 2350,-252.5 2350,-140.5 2350,-33.26 2180.89,-17.17 2100.5,-15.58"/>
<polygon fill="#63b8ff" stroke="#63b8ff" points="2100.87,-12.09 2090.83,-15.46 2100.79,-19.09 2100.87,-12.09"/>
</g>
<!-- Node67&#45;&gt;Node8 -->
<g id="edge90" class="edge">
<title>Node67&#45;&gt;Node8</title>
<path fill="none" stroke="#63b8ff" d="M953,-544.07C961.82,-528.71 981.19,-496.65 1002,-473 1031.33,-439.66 1038.33,-428.82 1077,-407 1123.27,-380.89 1144.48,-396.67 1191,-371 1196.29,-368.08 1327.24,-256.28 1377.03,-213.72"/>
<polygon fill="#63b8ff" stroke="#63b8ff" points="1379.12,-216.55 1384.44,-207.39 1374.57,-211.23 1379.12,-216.55"/>
</g>
<!-- Node67&#45;&gt;Node53 -->
<g id="edge97" class="edge">
<title>Node67&#45;&gt;Node53</title>
<path fill="none" stroke="#63b8ff" d="M942.8,-544.26C921.74,-508.85 842.45,-375.51 813.05,-326.09"/>
<polygon fill="#63b8ff" stroke="#63b8ff" points="816.18,-324.5 808.06,-317.69 810.16,-328.07 816.18,-324.5"/>
</g>
<!-- Node67&#45;&gt;Node49 -->
<g id="edge88" class="edge">
<title>Node67&#45;&gt;Node49</title>
<path fill="none" stroke="#63b8ff" d="M957.76,-544.18C991,-514.18 1098.81,-417.38 1117,-407 1160.58,-382.13 1177.8,-390.57 1224,-371 1258.89,-356.23 1297.46,-335.56 1321.94,-321.87"/>
<polygon fill="#63b8ff" stroke="#63b8ff" points="1323.52,-325 1330.51,-317.03 1320.08,-318.9 1323.52,-325"/>
</g>
<!-- Node67&#45;&gt;Node64 -->
<g id="edge98" class="edge">
<title>Node67&#45;&gt;Node64</title>
<path fill="none" stroke="#63b8ff" d="M1022.81,-544.03C1125.77,-531.69 1309.82,-509.64 1410.83,-497.53"/>
<polygon fill="#63b8ff" stroke="#63b8ff" points="1411.11,-501.02 1420.62,-496.36 1410.28,-494.07 1411.11,-501.02"/>
</g>
<!-- Node68 -->
<g id="node34" class="node">
<title>Node68</title>
<g id="a_node34"><a xlink:title=" ">
<polygon fill="#e0e0e0" stroke="#999999" points="731.5,-497.5 674.5,-497.5 674.5,-478.5 731.5,-478.5 731.5,-497.5"/>
<text text-anchor="middle" x="703" y="-485.5" font-family="Helvetica,sans-Serif" font-size="10.00">typeinfo</text>
</a>
</g>
</g>
<!-- Node67&#45;&gt;Node68 -->
<g id="edge89" class="edge">
<title>Node67&#45;&gt;Node68</title>
<path fill="none" stroke="#63b8ff" d="M913.68,-544.03C868.78,-532.31 790.28,-511.8 742.82,-499.4"/>
<polygon fill="#63b8ff" stroke="#63b8ff" points="743.77,-496.03 733.21,-496.89 742.01,-502.81 743.77,-496.03"/>
</g>
<!-- Node69 -->
<g id="node35" class="node">
<title>Node69</title>
<g id="a_node35"><a xlink:href="../../d9/dd1/data__communicator_8h.html" target="_top" xlink:title=" ">
<polygon fill="#fff0f0" stroke="red" points="1182,-371 1016,-371 1016,-352 1182,-352 1182,-371"/>
<text text-anchor="middle" x="1099" y="-359" font-family="Helvetica,sans-Serif" font-size="10.00">includes/data_communicator.h</text>
</a>
</g>
</g>
<!-- Node67&#45;&gt;Node69 -->
<g id="edge91" class="edge">
<title>Node67&#45;&gt;Node69</title>
<path fill="none" stroke="#63b8ff" d="M946.79,-544.2C943.9,-519.39 939.23,-448.07 974,-407 987.13,-391.5 1006.04,-381.39 1025.2,-374.81"/>
<polygon fill="#63b8ff" stroke="#63b8ff" points="1026.19,-378.17 1034.7,-371.86 1024.11,-371.48 1026.19,-378.17"/>
</g>
<!-- Node69&#45;&gt;Node4 -->
<g id="edge92" class="edge">
<title>Node69&#45;&gt;Node4</title>
<path fill="none" stroke="#63b8ff" d="M1064.23,-351.56C1032.61,-343.18 984.81,-329.9 944,-316 922.28,-308.6 918.24,-302.63 896,-297 830.48,-280.42 647.22,-302.65 594,-261 570.24,-242.41 570,-227.67 570,-197.5 570,-197.5 570,-197.5 570,-140.5 570,-105.71 570.83,-90.36 546,-66 510.23,-30.91 450.78,-20.31 413.58,-17.19"/>
<polygon fill="#63b8ff" stroke="#63b8ff" points="414.06,-13.72 403.85,-16.52 413.58,-20.7 414.06,-13.72"/>
</g>
<!-- Node69&#45;&gt;Node5 -->
<g id="edge93" class="edge">
<title>Node69&#45;&gt;Node5</title>
<path fill="none" stroke="#63b8ff" d="M1129.19,-351.57C1216.18,-325.41 1474.05,-244.87 1677,-151 1723.75,-129.38 1734.47,-121.88 1779,-96 1800.75,-83.36 1803.69,-75.46 1827,-66 1890.71,-40.15 1969.93,-26.76 2017.37,-20.56"/>
<polygon fill="#63b8ff" stroke="#63b8ff" points="2017.73,-24.05 2027.22,-19.33 2016.86,-17.1 2017.73,-24.05"/>
</g>
<!-- Node69&#45;&gt;Node8 -->
<g id="edge96" class="edge">
<title>Node69&#45;&gt;Node8</title>
<path fill="none" stroke="#63b8ff" d="M1112.87,-351.57C1126.66,-342.66 1148.39,-328.52 1167,-316 1214.97,-283.72 1222.64,-268.57 1274,-242 1299.5,-228.81 1329.81,-217.73 1353.85,-209.93"/>
<polygon fill="#63b8ff" stroke="#63b8ff" points="1354.83,-213.29 1363.31,-206.93 1352.72,-206.61 1354.83,-213.29"/>
</g>
<!-- Node69&#45;&gt;Node53 -->
<g id="edge95" class="edge">
<title>Node69&#45;&gt;Node53</title>
<path fill="none" stroke="#63b8ff" d="M1048.62,-351.51C997.48,-342.38 918.23,-328.24 863.44,-318.46"/>
<polygon fill="#63b8ff" stroke="#63b8ff" points="864.08,-315.02 853.62,-316.71 862.85,-321.91 864.08,-315.02"/>
</g>
<!-- Node69&#45;&gt;Node25 -->
<g id="edge94" class="edge">
<title>Node69&#45;&gt;Node25</title>
<path fill="none" stroke="#63b8ff" d="M1098.67,-351.75C1098.43,-345.27 1098.08,-336.16 1097.77,-327.9"/>
<polygon fill="#63b8ff" stroke="#63b8ff" points="1101.27,-327.82 1097.39,-317.95 1094.27,-328.08 1101.27,-327.82"/>
</g>
<!-- Node84&#45;&gt;Node5 -->
<g id="edge101" class="edge">
<title>Node84&#45;&gt;Node5</title>
<path fill="none" stroke="#63b8ff" d="M2561.24,-412.02C2567.79,-393 2582,-347.18 2582,-307.5 2582,-307.5 2582,-307.5 2582,-140.5 2582,-41.72 2224.44,-21.17 2100.61,-17.02"/>
<polygon fill="#63b8ff" stroke="#63b8ff" points="2101,-13.53 2090.89,-16.72 2100.78,-20.53 2101,-13.53"/>
</g>
<!-- Node84&#45;&gt;Node8 -->
<g id="edge102" class="edge">
<title>Node84&#45;&gt;Node8</title>
<path fill="none" stroke="#63b8ff" d="M2537.57,-412.08C2467.43,-381.91 2229.35,-283.31 2022,-242 1817.92,-201.34 1569.92,-196.58 1457.12,-196.79"/>
<polygon fill="#63b8ff" stroke="#63b8ff" points="1457.16,-193.29 1447.18,-196.82 1457.19,-200.29 1457.16,-193.29"/>
</g>
<!-- Node84&#45;&gt;Node47 -->
<g id="edge103" class="edge">
<title>Node84&#45;&gt;Node47</title>
<path fill="none" stroke="#63b8ff" d="M2486,-417.38C2276.02,-406.84 1666.19,-376.22 1461.16,-365.92"/>
<polygon fill="#63b8ff" stroke="#63b8ff" points="1461.36,-362.43 1451.2,-365.42 1461.01,-369.42 1461.36,-362.43"/>
</g>
<!-- Node85&#45;&gt;Node4 -->
<g id="edge106" class="edge">
<title>Node85&#45;&gt;Node4</title>
<path fill="none" stroke="#63b8ff" d="M2534.25,-678.98C2256.16,-676.6 1175.25,-665.55 836,-635 788.51,-630.72 456.59,-585.89 412,-569 231.33,-500.55 114,-445.71 114,-252.5 114,-252.5 114,-252.5 114,-140.5 114,-103.33 122.58,-88.72 152,-66 182.11,-42.75 290.66,-26.71 346.42,-19.81"/>
<polygon fill="#63b8ff" stroke="#63b8ff" points="346.78,-23.29 356.29,-18.62 345.94,-16.34 346.78,-23.29"/>
</g>
<!-- Node85&#45;&gt;Node5 -->
<g id="edge107" class="edge">
<title>Node85&#45;&gt;Node5</title>
<path fill="none" stroke="#63b8ff" d="M2665.97,-678.57C2750.44,-673.48 2886,-650.45 2886,-555 2886,-555 2886,-555 2886,-140.5 2886,-101.11 2871.96,-85.96 2838,-66 2774.23,-28.53 2252.7,-18.6 2100.53,-16.5"/>
<polygon fill="#63b8ff" stroke="#63b8ff" points="2100.97,-13 2090.92,-16.37 2100.87,-20 2100.97,-13"/>
</g>
<!-- Node85&#45;&gt;Node6 -->
<g id="edge109" class="edge">
<title>Node85&#45;&gt;Node6</title>
<path fill="none" stroke="#63b8ff" d="M2591.27,-670.77C2568.21,-647.92 2503.4,-584.93 2444,-539 2359.75,-473.85 2338.03,-457.01 2244,-407 2221.11,-394.83 2194.16,-383.64 2173.03,-375.52"/>
<polygon fill="#63b8ff" stroke="#63b8ff" points="2174.27,-372.25 2163.68,-371.99 2171.8,-378.8 2174.27,-372.25"/>
</g>
<!-- Node85&#45;&gt;Node8 -->
<g id="edge110" class="edge">
<title>Node85&#45;&gt;Node8</title>
<path fill="none" stroke="#63b8ff" d="M2607.35,-670.79C2622.95,-651.36 2658,-602.45 2658,-555 2658,-555 2658,-555 2658,-487 2658,-450.46 2664.08,-433.58 2639,-407 2459.17,-216.42 2331.35,-285.72 2073,-242 1848.21,-203.96 1576.33,-198 1457.07,-197.36"/>
<polygon fill="#63b8ff" stroke="#63b8ff" points="1457.2,-193.86 1447.18,-197.32 1457.17,-200.86 1457.2,-193.86"/>
</g>
<!-- Node85&#45;&gt;Node10 -->
<g id="edge108" class="edge">
<title>Node85&#45;&gt;Node10</title>
<path fill="none" stroke="#63b8ff" d="M2614.74,-670.74C2626.76,-662.85 2643.29,-650.18 2653,-635 2692.08,-573.94 2677.98,-545.25 2672,-473 2669.55,-443.36 2672.76,-434.31 2661,-407 2626.93,-327.89 2544,-338.63 2544,-252.5 2544,-252.5 2544,-252.5 2544,-195.5 2544,-130.16 2049.26,-93.71 1903.78,-84.4"/>
<polygon fill="#63b8ff" stroke="#63b8ff" points="1904.06,-80.91 1893.86,-83.78 1903.62,-87.9 1904.06,-80.91"/>
</g>
<!-- Node85&#45;&gt;Node53 -->
<g id="edge112" class="edge">
<title>Node85&#45;&gt;Node53</title>
<path fill="none" stroke="#63b8ff" d="M2534.18,-679.87C2282.19,-680.48 1379.76,-675.05 1117,-569 1046.61,-540.59 874.37,-377.52 819.26,-324.3"/>
<polygon fill="#63b8ff" stroke="#63b8ff" points="821.89,-321.97 812.27,-317.53 817.02,-327 821.89,-321.97"/>
</g>
<!-- Node85&#45;&gt;Node63 -->
<g id="edge111" class="edge">
<title>Node85&#45;&gt;Node63</title>
<path fill="none" stroke="#63b8ff" d="M2534.09,-671.55C2444.08,-660.69 2283.2,-641.29 2189.11,-629.94"/>
<polygon fill="#63b8ff" stroke="#63b8ff" points="2189.54,-626.47 2179.2,-628.74 2188.7,-633.42 2189.54,-626.47"/>
</g>
<!-- Node86&#45;&gt;Node4 -->
<g id="edge114" class="edge">
<title>Node86&#45;&gt;Node4</title>
<path fill="none" stroke="#63b8ff" d="M2155.71,-551.1C2061.9,-546.78 1845.87,-534.07 1667,-503 1614.11,-493.81 1602.71,-483.14 1550,-473 1428.09,-449.54 1395.29,-458.39 1273,-437 1212.03,-426.33 1197.52,-419.97 1137,-407 851.73,-345.86 769.61,-364.95 497,-261 441.72,-239.92 380,-256.66 380,-197.5 380,-197.5 380,-197.5 380,-140.5 380,-103.67 380,-60.72 380,-36.11"/>
<polygon fill="#63b8ff" stroke="#63b8ff" points="383.5,-36.27 380,-26.27 376.5,-36.27 383.5,-36.27"/>
</g>
<!-- Node86&#45;&gt;Node5 -->
<g id="edge115" class="edge">
<title>Node86&#45;&gt;Node5</title>
<path fill="none" stroke="#63b8ff" d="M2222.93,-544.03C2260.26,-527.58 2343.58,-492.47 2417,-473 2513.62,-447.38 2553.23,-488.32 2639,-437 2674.78,-415.59 2696,-404.19 2696,-362.5 2696,-362.5 2696,-362.5 2696,-140.5 2696,-18.71 2241.78,-13.83 2100.46,-15.26"/>
<polygon fill="#63b8ff" stroke="#63b8ff" points="2100.77,-11.75 2090.81,-15.37 2100.85,-18.75 2100.77,-11.75"/>
</g>
<!-- Node86&#45;&gt;Node8 -->
<g id="edge116" class="edge">
<title>Node86&#45;&gt;Node8</title>
<path fill="none" stroke="#63b8ff" d="M2206.34,-544.35C2217.27,-514.47 2248.89,-413.99 2206,-352 2186.27,-323.49 2093.29,-306.68 2060,-297 1843.62,-234.11 1575.4,-209.47 1457.02,-201.16"/>
<polygon fill="#63b8ff" stroke="#63b8ff" points="1457.43,-197.68 1447.21,-200.49 1456.95,-204.67 1457.43,-197.68"/>
</g>
<!-- Node86&#45;&gt;Node64 -->
<g id="edge117" class="edge">
<title>Node86&#45;&gt;Node64</title>
<path fill="none" stroke="#63b8ff" d="M2155.73,-551.13C2048.62,-546.5 1779.36,-532.67 1556,-503 1549.52,-502.14 1542.76,-501.08 1536.06,-499.94"/>
<polygon fill="#63b8ff" stroke="#63b8ff" points="1536.86,-496.53 1526.4,-498.21 1535.63,-503.42 1536.86,-496.53"/>
</g>
<!-- Node87&#45;&gt;Node8 -->
<g id="edge121" class="edge">
<title>Node87&#45;&gt;Node8</title>
<path fill="none" stroke="#63b8ff" d="M405.03,-736.42C339.06,-728.89 235.92,-705.77 187,-635 71.43,-467.82 304.29,-367.26 495,-297 640.08,-243.55 692.57,-304.27 841,-261 859.13,-255.72 860.83,-247.12 879,-242 963.23,-218.26 1217.38,-204.92 1335.03,-199.87"/>
<polygon fill="#63b8ff" stroke="#63b8ff" points="1334.96,-203.38 1344.8,-199.46 1334.66,-196.38 1334.96,-203.38"/>
</g>
<!-- Node87&#45;&gt;Node20 -->
<g id="edge122" class="edge">
<title>Node87&#45;&gt;Node20</title>
<path fill="none" stroke="#63b8ff" d="M525,-737.45C692.4,-730.32 1178.85,-709.38 1583,-690 1618.81,-688.28 1658.96,-686.23 1690.8,-684.57"/>
<polygon fill="#63b8ff" stroke="#63b8ff" points="1690.82,-688.08 1700.63,-684.06 1690.46,-681.09 1690.82,-688.08"/>
</g>
<!-- Node87&#45;&gt;Node21 -->
<g id="edge120" class="edge">
<title>Node87&#45;&gt;Node21</title>
<path fill="none" stroke="#63b8ff" d="M475.07,-725.92C481.3,-716.31 488.71,-703.01 492,-690 496.36,-672.76 489.42,-653.41 482.37,-639.6"/>
<polygon fill="#63b8ff" stroke="#63b8ff" points="485.59,-638.19 477.65,-631.18 479.49,-641.61 485.59,-638.19"/>
</g>
<!-- Node87&#45;&gt;Node53 -->
<g id="edge123" class="edge">
<title>Node87&#45;&gt;Node53</title>
<path fill="none" stroke="#63b8ff" d="M405.29,-729.81C369.48,-720.33 332.84,-702.71 344,-671 411.28,-479.77 482.3,-428.57 670,-352 700.08,-339.73 734.93,-328.09 761.27,-319.79"/>
<polygon fill="#63b8ff" stroke="#63b8ff" points="762.04,-323.21 770.55,-316.9 759.96,-316.53 762.04,-323.21"/>
</g>
<!-- Node88 -->
<g id="node40" class="node">
<title>Node88</title>
<g id="a_node40"><a xlink:href="../../d4/d67/geometry_8h.html" target="_top" xlink:title=" ">
<polygon fill="#fff0f0" stroke="red" points="483,-690 353,-690 353,-671 483,-671 483,-690"/>
<text text-anchor="middle" x="418" y="-678" font-family="Helvetica,sans-Serif" font-size="10.00">geometries/geometry.h</text>
</a>
</g>
</g>
<!-- Node87&#45;&gt;Node88 -->
<g id="edge124" class="edge">
<title>Node87&#45;&gt;Node88</title>
<path fill="none" stroke="#63b8ff" d="M453.38,-725.54C446.9,-717.48 438.79,-707.38 431.97,-698.89"/>
<polygon fill="#63b8ff" stroke="#63b8ff" points="434.91,-696.96 425.92,-691.36 429.45,-701.34 434.91,-696.96"/>
</g>
<!-- Node88&#45;&gt;Node63 -->
<g id="edge126" class="edge">
<title>Node88&#45;&gt;Node63</title>
<path fill="none" stroke="#63b8ff" d="M483.33,-675.45C509.63,-673.91 540.25,-672.23 568,-671 1134.65,-645.79 1818.59,-628.16 2041.16,-622.75"/>
<polygon fill="#63b8ff" stroke="#63b8ff" points="2040.93,-626.26 2050.84,-622.52 2040.76,-619.26 2040.93,-626.26"/>
</g>
<!-- Node88&#45;&gt;Node68 -->
<g id="edge125" class="edge">
<title>Node88&#45;&gt;Node68</title>
<path fill="none" stroke="#63b8ff" d="M417.87,-670.57C418.12,-655.33 420.74,-624.12 437,-605 496.05,-535.55 604.51,-506.33 663.03,-495.16"/>
<polygon fill="#63b8ff" stroke="#63b8ff" points="663.34,-498.66 672.55,-493.43 662.09,-491.77 663.34,-498.66"/>
</g>
<!-- Node94 -->
<g id="node41" class="node">
<title>Node94</title>
<g id="a_node41"><a xlink:href="../../d8/d88/math__utils_8h.html" target="_top" xlink:title=" ">
<polygon fill="#fff0f0" stroke="red" points="313.5,-629.5 196.5,-629.5 196.5,-610.5 313.5,-610.5 313.5,-629.5"/>
<text text-anchor="middle" x="255" y="-617.5" font-family="Helvetica,sans-Serif" font-size="10.00">utilities/math_utils.h</text>
</a>
</g>
</g>
<!-- Node88&#45;&gt;Node94 -->
<g id="edge127" class="edge">
<title>Node88&#45;&gt;Node94</title>
<path fill="none" stroke="#63b8ff" d="M393.24,-670.62C365.96,-660.82 321.83,-644.98 290.78,-633.84"/>
<polygon fill="#63b8ff" stroke="#63b8ff" points="292.01,-630.56 281.41,-630.48 289.64,-637.15 292.01,-630.56"/>
</g>
<!-- Node94&#45;&gt;Node29 -->
<g id="edge128" class="edge">
<title>Node94&#45;&gt;Node29</title>
<path fill="none" stroke="#63b8ff" d="M257.96,-610.22C263.24,-595.07 275.16,-563.34 290,-539 345.75,-447.55 357.98,-418.42 442,-352 486.13,-317.12 501.93,-312.53 556,-297 571.16,-292.65 762.34,-272.65 876.18,-261"/>
<polygon fill="#63b8ff" stroke="#63b8ff" points="876.53,-264.48 886.12,-259.98 875.82,-257.52 876.53,-264.48"/>
</g>
<!-- Node97&#45;&gt;Node3 -->
<g id="edge154" class="edge">
<title>Node97&#45;&gt;Node3</title>
<path fill="none" stroke="#63b8ff" d="M1008.09,-803.21C1227.48,-792.85 1994.78,-756.61 2232.94,-745.36"/>
<polygon fill="#63b8ff" stroke="#63b8ff" points="2232.88,-748.86 2242.7,-744.9 2232.55,-741.87 2232.88,-748.86"/>
</g>
<!-- Node97&#45;&gt;Node8 -->
<g id="edge130" class="edge">
<title>Node97&#45;&gt;Node8</title>
<path fill="none" stroke="#63b8ff" d="M889.57,-805.16C734.11,-802.47 318.33,-792.04 186,-756 114.95,-736.65 38,-755.14 38,-681.5 38,-681.5 38,-681.5 38,-487 38,-218 1070.14,-198 1334.77,-197.29"/>
<polygon fill="#63b8ff" stroke="#63b8ff" points="1334.55,-200.79 1344.54,-197.27 1334.54,-193.79 1334.55,-200.79"/>
</g>
<!-- Node97&#45;&gt;Node20 -->
<g id="edge153" class="edge">
<title>Node97&#45;&gt;Node20</title>
<path fill="none" stroke="#63b8ff" d="M1008.15,-802.72C1101.51,-796.94 1288.49,-782.93 1445,-756 1540.14,-739.63 1649.64,-710.1 1707.74,-693.56"/>
<polygon fill="#63b8ff" stroke="#63b8ff" points="1708.56,-696.97 1717.21,-690.85 1706.63,-690.24 1708.56,-696.97"/>
</g>
<!-- Node97&#45;&gt;Node53 -->
<g id="edge165" class="edge">
<title>Node97&#45;&gt;Node53</title>
<path fill="none" stroke="#63b8ff" d="M920.87,-791.61C853.04,-754.77 683.81,-649.59 654,-503 639.64,-432.39 655.35,-395.22 713,-352 729.94,-339.3 751.06,-328.56 768.47,-320.81"/>
<polygon fill="#63b8ff" stroke="#63b8ff" points="769.57,-324.15 777.38,-316.99 766.81,-317.72 769.57,-324.15"/>
</g>
<!-- Node97&#45;&gt;Node47 -->
<g id="edge131" class="edge">
<title>Node97&#45;&gt;Node47</title>
<path fill="none" stroke="#63b8ff" d="M979.87,-791.67C1043.15,-760.62 1187.8,-680.84 1261,-569 1284.69,-532.81 1284.46,-515.61 1277,-473 1271.85,-443.55 1246.65,-431.34 1264,-407 1278.19,-387.1 1301.89,-376.01 1325.13,-369.86"/>
<polygon fill="#63b8ff" stroke="#63b8ff" points="1325.69,-373.33 1334.63,-367.65 1324.09,-366.51 1325.69,-373.33"/>
</g>
<!-- Node97&#45;&gt;Node29 -->
<g id="edge158" class="edge">
<title>Node97&#45;&gt;Node29</title>
<path fill="none" stroke="#63b8ff" d="M889.89,-806.02C780.79,-804.98 540.95,-797.65 344,-756 256.54,-737.51 205.81,-762.85 154,-690 19.97,-501.55 277.65,-375.97 495,-297 654.03,-239.22 705.59,-277.32 874,-261 874.84,-260.92 875.68,-260.84 876.53,-260.75"/>
<polygon fill="#63b8ff" stroke="#63b8ff" points="876.62,-264.26 886.23,-259.81 875.94,-257.3 876.62,-264.26"/>
</g>
<!-- Node97&#45;&gt;Node63 -->
<g id="edge164" class="edge">
<title>Node97&#45;&gt;Node63</title>
<path fill="none" stroke="#63b8ff" d="M1008.41,-803.6C1113.52,-798.73 1338.95,-785.57 1527,-756 1720.62,-725.55 1945.35,-667.48 2052.26,-638.44"/>
<polygon fill="#63b8ff" stroke="#63b8ff" points="2052.98,-641.88 2061.71,-635.87 2051.14,-635.12 2052.98,-641.88"/>
</g>
<!-- Node97&#45;&gt;Node85 -->
<g id="edge157" class="edge">
<title>Node97&#45;&gt;Node85</title>
<path fill="none" stroke="#63b8ff" d="M1008.46,-806.14C1243.06,-806.34 2104.64,-803.76 2373,-756 2445.16,-743.16 2525.86,-712.55 2568.93,-694.82"/>
<polygon fill="#63b8ff" stroke="#63b8ff" points="2570.26,-698.06 2578.14,-690.98 2567.56,-691.59 2570.26,-698.06"/>
</g>
<!-- Node97&#45;&gt;Node88 -->
<g id="edge155" class="edge">
<title>Node97&#45;&gt;Node88</title>
<path fill="none" stroke="#63b8ff" d="M889.58,-792.87C844.84,-782.93 782.02,-768.83 727,-756 634.1,-734.34 525.77,-707.96 465.21,-693.12"/>
<polygon fill="#63b8ff" stroke="#63b8ff" points="466.13,-689.74 455.58,-690.75 464.46,-696.54 466.13,-689.74"/>
</g>
<!-- Node97&#45;&gt;Node94 -->
<g id="edge156" class="edge">
<title>Node97&#45;&gt;Node94</title>
<path fill="none" stroke="#63b8ff" d="M889.91,-804.84C766.33,-801.73 484.68,-790.93 396,-756 336.51,-732.57 288.12,-670.35 266.78,-639.24"/>
<polygon fill="#63b8ff" stroke="#63b8ff" points="269.91,-637.62 261.45,-631.24 264.09,-641.5 269.91,-637.62"/>
</g>
<!-- Node97&#45;&gt;Node98 -->
<g id="edge132" class="edge">
<title>Node97&#45;&gt;Node98</title>
<path fill="none" stroke="#63b8ff" d="M945.39,-791.79C937.09,-759.1 916.61,-678.51 907.06,-640.91"/>
<polygon fill="#63b8ff" stroke="#63b8ff" points="910.5,-640.24 904.64,-631.41 903.71,-641.96 910.5,-640.24"/>
</g>
<!-- Node97&#45;&gt;Node106 -->
<g id="edge159" class="edge">
<title>Node97&#45;&gt;Node106</title>
<path fill="none" stroke="#63b8ff" d="M1008.18,-796.69C1082.46,-785.01 1209.6,-765.02 1287.87,-752.71"/>
<polygon fill="#63b8ff" stroke="#63b8ff" points="1288.22,-756.2 1297.55,-751.19 1287.13,-749.29 1288.22,-756.2"/>
</g>
<!-- Node109 -->
<g id="node50" class="node">
<title>Node109</title>
<g id="a_node50"><a xlink:href="../../d1/d57/initial__state_8h.html" target="_top" xlink:title=" ">
<polygon fill="white" stroke="#666666" points="704.5,-690 577.5,-690 577.5,-671 704.5,-671 704.5,-690"/>
<text text-anchor="middle" x="641" y="-678" font-family="Helvetica,sans-Serif" font-size="10.00">includes/initial_state.h</text>
</a>
</g>
</g>
<!-- Node97&#45;&gt;Node109 -->
<g id="edge166" class="edge">
<title>Node97&#45;&gt;Node109</title>
<path fill="none" stroke="#63b8ff" d="M898.8,-791.6C868.39,-782.41 829.04,-769.68 795,-756 749.11,-737.55 697.75,-711.57 667.46,-695.67"/>
<polygon fill="#63b8ff" stroke="#63b8ff" points="669.12,-692.59 658.64,-691.01 665.84,-698.78 669.12,-692.59"/>
</g>
<!-- Node98&#45;&gt;Node4 -->
<g id="edge133" class="edge">
<title>Node98&#45;&gt;Node4</title>
<path fill="none" stroke="#63b8ff" d="M844.7,-617.54C669.38,-609.75 152,-560.64 152,-252.5 152,-252.5 152,-252.5 152,-140.5 152,-105.71 150.54,-89.71 176,-66 200.57,-43.12 295.36,-27.28 346.62,-20.2"/>
<polygon fill="#63b8ff" stroke="#63b8ff" points="346.81,-23.7 356.26,-18.9 345.88,-16.77 346.81,-23.7"/>
</g>
<!-- Node98&#45;&gt;Node5 -->
<g id="edge134" class="edge">
<title>Node98&#45;&gt;Node5</title>
<path fill="none" stroke="#63b8ff" d="M959.42,-618.96C1184.04,-618.47 2003.39,-613.6 2259,-569 2282.78,-564.85 2651.55,-448.08 2673,-437 2721.92,-411.72 2772,-417.57 2772,-362.5 2772,-362.5 2772,-362.5 2772,-140.5 2772,-79.6 2714.63,-85.68 2657,-66 2553.7,-30.72 2218.83,-19.69 2100.71,-16.86"/>
<polygon fill="#63b8ff" stroke="#63b8ff" points="2100.92,-13.36 2090.84,-16.63 2100.76,-20.36 2100.92,-13.36"/>
</g>
<!-- Node98&#45;&gt;Node8 -->
<g id="edge135" class="edge">
<title>Node98&#45;&gt;Node8</title>
<path fill="none" stroke="#63b8ff" d="M890.7,-610.05C840.88,-569.58 647.47,-401.18 741,-297 790.72,-241.61 1000.81,-274.53 1074,-261 1106.54,-254.98 1113.68,-249.13 1146,-242 1210.24,-227.83 1284.53,-215.06 1335.32,-206.87"/>
<polygon fill="#63b8ff" stroke="#63b8ff" points="1335.62,-210.37 1344.94,-205.33 1334.51,-203.46 1335.62,-210.37"/>
</g>
<!-- Node98&#45;&gt;Node81 -->
<g id="edge140" class="edge">
<title>Node98&#45;&gt;Node81</title>
<path fill="none" stroke="#63b8ff" d="M959.23,-613.41C1040.21,-605.22 1192.8,-588.77 1322,-569 1443.3,-550.44 1582.88,-523.16 1668.52,-505.74"/>
<polygon fill="#63b8ff" stroke="#63b8ff" points="1669.14,-509.18 1678.24,-503.76 1667.74,-502.32 1669.14,-509.18"/>
</g>
<!-- Node98&#45;&gt;Node29 -->
<g id="edge138" class="edge">
<title>Node98&#45;&gt;Node29</title>
<path fill="none" stroke="#63b8ff" d="M859.89,-610.04C827.48,-602.09 782.25,-588.66 746,-569 650.23,-517.06 582.45,-449.02 632,-352 650.96,-314.87 669.61,-313.26 708,-297 737.94,-284.32 816.04,-271.59 877.43,-263.01"/>
<polygon fill="#63b8ff" stroke="#63b8ff" points="877.76,-266.5 887.19,-261.67 876.8,-259.57 877.76,-266.5"/>
</g>
<!-- Node98&#45;&gt;Node25 -->
<g id="edge139" class="edge">
<title>Node98&#45;&gt;Node25</title>
<path fill="none" stroke="#63b8ff" d="M889.92,-610.26C878.71,-601.34 862.77,-586.36 856,-569 851.16,-556.58 852.27,-551.8 856,-539 885.87,-436.44 920.49,-414.67 1007,-352 1024.3,-339.47 1045.67,-328.74 1063.24,-320.95"/>
<polygon fill="#63b8ff" stroke="#63b8ff" points="1064.42,-324.25 1072.23,-317.09 1061.66,-317.82 1064.42,-324.25"/>
</g>
<!-- Node98&#45;&gt;Node64 -->
<g id="edge136" class="edge">
<title>Node98&#45;&gt;Node64</title>
<path fill="none" stroke="#63b8ff" d="M959.28,-614.74C1030.73,-608.57 1156.25,-594.95 1261,-569 1330.81,-551.71 1409.25,-520.3 1451.34,-502.42"/>
<polygon fill="#63b8ff" stroke="#63b8ff" points="1452.52,-505.72 1460.34,-498.56 1449.77,-499.29 1452.52,-505.72"/>
</g>
<!-- Node98&#45;&gt;Node67 -->
<g id="edge137" class="edge">
<title>Node98&#45;&gt;Node67</title>
<path fill="none" stroke="#63b8ff" d="M908.4,-610.1C915.26,-600.55 926.35,-585.11 935.06,-573.01"/>
<polygon fill="#63b8ff" stroke="#63b8ff" points="937.78,-575.22 940.77,-565.05 932.1,-571.13 937.78,-575.22"/>
</g>
<!-- Node99 -->
<g id="node44" class="node">
<title>Node99</title>
<g id="a_node44"><a xlink:href="../../d9/da6/periodic__variables__container_8h.html" target="_top" xlink:title=" ">
<polygon fill="white" stroke="#666666" points="1252,-569 1126,-569 1126,-539 1252,-539 1252,-569"/>
<text text-anchor="start" x="1134" y="-557" font-family="Helvetica,sans-Serif" font-size="10.00">containers/periodic</text>
<text text-anchor="middle" x="1189" y="-546" font-family="Helvetica,sans-Serif" font-size="10.00">_variables_container.h</text>
</a>
</g>
</g>
<!-- Node98&#45;&gt;Node99 -->
<g id="edge141" class="edge">
<title>Node98&#45;&gt;Node99</title>
<path fill="none" stroke="#63b8ff" d="M942.21,-610.03C986.73,-600.1 1059.48,-583.88 1114.49,-571.62"/>
<polygon fill="#63b8ff" stroke="#63b8ff" points="1115.11,-575.06 1124.11,-569.47 1113.59,-568.23 1115.11,-575.06"/>
</g>
<!-- Node100 -->
<g id="node45" class="node">
<title>Node100</title>
<g id="a_node45"><a xlink:href="../../d0/d9c/table__stream__utility_8h.html" target="_top" xlink:title=" ">
<polygon fill="#fff0f0" stroke="red" points="1251.5,-503 1130.5,-503 1130.5,-473 1251.5,-473 1251.5,-503"/>
<text text-anchor="start" x="1138.5" y="-491" font-family="Helvetica,sans-Serif" font-size="10.00">utilities/table_stream</text>
<text text-anchor="middle" x="1191" y="-480" font-family="Helvetica,sans-Serif" font-size="10.00">_utility.h</text>
</a>
</g>
</g>
<!-- Node98&#45;&gt;Node100 -->
<g id="edge148" class="edge">
<title>Node98&#45;&gt;Node100</title>
<path fill="none" stroke="#63b8ff" d="M929.99,-610.02C957.98,-600.75 1002.08,-585.36 1039,-569 1080.39,-550.65 1126.16,-525.93 1156.54,-508.84"/>
<polygon fill="#63b8ff" stroke="#63b8ff" points="1157.93,-512.08 1164.91,-504.11 1154.49,-505.99 1157.93,-512.08"/>
</g>
<!-- Node103 -->
<g id="node46" class="node">
<title>Node103</title>
<g id="a_node46"><a xlink:href="../../d8/da9/adjoint__extensions_8h.html" target="_top" xlink:title=" ">
<polygon fill="#fff0f0" stroke="red" points="832,-261 674,-261 674,-242 832,-242 832,-261"/>
<text text-anchor="middle" x="753" y="-249" font-family="Helvetica,sans-Serif" font-size="10.00">utilities/adjoint_extensions.h</text>
</a>
</g>
</g>
<!-- Node98&#45;&gt;Node103 -->
<g id="edge150" class="edge">
<title>Node98&#45;&gt;Node103</title>
<path fill="none" stroke="#63b8ff" d="M844.88,-611.9C802.02,-605.01 742.76,-592.1 695,-569 566.46,-506.83 504.54,-499.36 442,-371 398.23,-281.17 555.54,-258.63 662.22,-253.46"/>
<polygon fill="#63b8ff" stroke="#63b8ff" points="662.32,-256.96 672.16,-253.03 662.01,-249.96 662.32,-256.96"/>
</g>
<!-- Node99&#45;&gt;Node4 -->
<g id="edge142" class="edge">
<title>Node99&#45;&gt;Node4</title>
<path fill="none" stroke="#63b8ff" d="M1144.15,-538.52C1032.78,-502.4 734.85,-404.86 489,-316 397.17,-282.81 304,-295.14 304,-197.5 304,-197.5 304,-197.5 304,-140.5 304,-96.46 339.08,-54.8 361.57,-32.61"/>
<polygon fill="#63b8ff" stroke="#63b8ff" points="363.81,-35.31 368.65,-25.88 358.99,-30.23 363.81,-35.31"/>
</g>
<!-- Node99&#45;&gt;Node5 -->
<g id="edge143" class="edge">
<title>Node99&#45;&gt;Node5</title>
<path fill="none" stroke="#63b8ff" d="M1252.32,-552.2C1392.6,-549.76 1725.48,-540.13 1831,-503 1877.57,-486.61 2198,-301.87 2198,-252.5 2198,-252.5 2198,-252.5 2198,-140.5 2198,-84.74 2135.17,-47.68 2093.99,-29.38"/>
<polygon fill="#63b8ff" stroke="#63b8ff" points="2095.49,-26.22 2084.92,-25.52 2092.75,-32.66 2095.49,-26.22"/>
</g>
<!-- Node99&#45;&gt;Node8 -->
<g id="edge145" class="edge">
<title>Node99&#45;&gt;Node8</title>
<path fill="none" stroke="#63b8ff" d="M1158.58,-538.53C1144.62,-530.19 1129.34,-518.31 1121,-503 1100.58,-465.5 1092.08,-441.68 1117,-407 1146.28,-366.25 1181.41,-397.53 1224,-371 1293.79,-327.52 1356.52,-250.4 1382.85,-215.52"/>
<polygon fill="#63b8ff" stroke="#63b8ff" points="1385.5,-217.83 1388.66,-207.71 1379.88,-213.65 1385.5,-217.83"/>
</g>
<!-- Node99&#45;&gt;Node78 -->
<g id="edge144" class="edge">
<title>Node99&#45;&gt;Node78</title>
<path fill="none" stroke="#63b8ff" d="M1233.24,-538.55C1253.4,-530.4 1276.59,-518.67 1294,-503 1310.98,-487.72 1324.07,-465.16 1332.42,-447.89"/>
<polygon fill="#63b8ff" stroke="#63b8ff" points="1335.6,-449.36 1336.6,-438.82 1329.24,-446.44 1335.6,-449.36"/>
</g>
<!-- Node99&#45;&gt;Node47 -->
<g id="edge146" class="edge">
<title>Node99&#45;&gt;Node47</title>
<path fill="none" stroke="#63b8ff" d="M1221.88,-538.63C1236.35,-530.45 1251.88,-518.66 1260,-503 1266.14,-491.16 1267.59,-483.96 1260,-473 1234.04,-435.55 1189.96,-474.45 1164,-437 1156.41,-426.04 1155.52,-417.29 1164,-407 1174.31,-394.49 1261.33,-380.22 1325.05,-371.28"/>
<polygon fill="#63b8ff" stroke="#63b8ff" points="1325.33,-374.78 1334.76,-369.94 1324.37,-367.84 1325.33,-374.78"/>
</g>
<!-- Node99&#45;&gt;Node64 -->
<g id="edge147" class="edge">
<title>Node99&#45;&gt;Node64</title>
<path fill="none" stroke="#63b8ff" d="M1252.22,-539.19C1305.28,-527.6 1380.18,-511.24 1429.86,-500.39"/>
<polygon fill="#63b8ff" stroke="#63b8ff" points="1430.49,-503.83 1439.51,-498.28 1429,-497 1430.49,-503.83"/>
</g>
<!-- Node100&#45;&gt;Node47 -->
<g id="edge149" class="edge">
<title>Node100&#45;&gt;Node47</title>
<path fill="none" stroke="#63b8ff" d="M1165.43,-472.69C1139.83,-456.58 1106.8,-429.67 1126,-407 1138.78,-391.91 1250.23,-377.42 1325.04,-369.27"/>
<polygon fill="#63b8ff" stroke="#63b8ff" points="1325.18,-372.77 1334.75,-368.23 1324.43,-365.81 1325.18,-372.77"/>
</g>
<!-- Node103&#45;&gt;Node8 -->
<g id="edge152" class="edge">
<title>Node103&#45;&gt;Node8</title>
<path fill="none" stroke="#63b8ff" d="M832.39,-243.19C837,-242.78 841.56,-242.38 846,-242 1023.6,-226.7 1233.6,-210.13 1335.07,-202.22"/>
<polygon fill="#63b8ff" stroke="#63b8ff" points="1335.1,-205.73 1344.8,-201.46 1334.56,-198.75 1335.1,-205.73"/>
</g>
<!-- Node103&#45;&gt;Node17 -->
<g id="edge151" class="edge">
<title>Node103&#45;&gt;Node17</title>
<path fill="none" stroke="#63b8ff" d="M815.15,-241.54C874.79,-230.01 964.12,-204.65 1022,-151 1052.48,-122.75 1027.17,-90.15 1061,-66 1099,-38.88 1421.31,-22.3 1529.07,-17.48"/>
<polygon fill="#63b8ff" stroke="#63b8ff" points="1528.91,-20.99 1538.75,-17.05 1528.6,-13.99 1528.91,-20.99"/>
</g>
<!-- Node106&#45;&gt;Node47 -->
<g id="edge162" class="edge">
<title>Node106&#45;&gt;Node47</title>
<path fill="none" stroke="#63b8ff" d="M1356,-731.04C1356,-711.22 1356,-662.11 1356,-621 1356,-621 1356,-621 1356,-553 1356,-515.88 1354.68,-502.39 1332,-473 1313.23,-448.68 1288.04,-463.79 1273,-437 1266.47,-425.37 1265.39,-417.95 1273,-407 1285.21,-389.45 1305.19,-378.81 1325.38,-372.36"/>
<polygon fill="#63b8ff" stroke="#63b8ff" points="1326.12,-375.79 1334.78,-369.68 1324.2,-369.05 1326.12,-375.79"/>
</g>
<!-- Node106&#45;&gt;Node29 -->
<g id="edge163" class="edge">
<title>Node106&#45;&gt;Node29</title>
<path fill="none" stroke="#63b8ff" d="M1275.3,-738.28C1102.28,-734.05 700.62,-721.11 568,-690 537.26,-682.79 454.48,-661.29 437,-635 337.24,-484.92 493.12,-362.53 661,-297 680.82,-289.27 795.45,-273.48 876.86,-262.94"/>
<polygon fill="#63b8ff" stroke="#63b8ff" points="877.14,-266.44 886.61,-261.69 876.25,-259.49 877.14,-266.44"/>
</g>
<!-- Node107 -->
<g id="node48" class="node">
<title>Node107</title>
<g id="a_node48"><a xlink:title=" ">
<polygon fill="#e0e0e0" stroke="#999999" points="1452,-690 1384,-690 1384,-671 1452,-671 1452,-690"/>
<text text-anchor="middle" x="1418" y="-678" font-family="Helvetica,sans-Serif" font-size="10.00">filesystem</text>
</a>
</g>
</g>
<!-- Node106&#45;&gt;Node107 -->
<g id="edge160" class="edge">
<title>Node106&#45;&gt;Node107</title>
<path fill="none" stroke="#63b8ff" d="M1365.42,-731.12C1374.61,-722.44 1388.84,-709.02 1400.17,-698.32"/>
<polygon fill="#63b8ff" stroke="#63b8ff" points="1402.52,-700.92 1407.39,-691.51 1397.72,-695.82 1402.52,-700.92"/>
</g>
<!-- Node108 -->
<g id="node49" class="node">
<title>Node108</title>
<g id="a_node49"><a xlink:title=" ">
<polygon fill="#e0e0e0" stroke="#999999" points="1574,-690 1470,-690 1470,-671 1574,-671 1574,-690"/>
<text text-anchor="middle" x="1522" y="-678" font-family="Helvetica,sans-Serif" font-size="10.00">json/json_fwd.hpp</text>
</a>
</g>
</g>
<!-- Node106&#45;&gt;Node108 -->
<g id="edge161" class="edge">
<title>Node106&#45;&gt;Node108</title>
<path fill="none" stroke="#63b8ff" d="M1381.21,-731.12C1409.12,-721.28 1454.34,-705.34 1485.98,-694.19"/>
<polygon fill="#63b8ff" stroke="#63b8ff" points="1486.86,-697.6 1495.12,-690.97 1484.53,-690.99 1486.86,-697.6"/>
</g>
<!-- Node109&#45;&gt;Node8 -->
<g id="edge168" class="edge">
<title>Node109&#45;&gt;Node8</title>
<path fill="none" stroke="#63b8ff" d="M639.2,-670.62C629.73,-620.93 590.91,-376.79 725,-297 846.47,-224.72 906.73,-305.19 1041,-261 1057.08,-255.71 1057.99,-247.48 1074,-242 1120.94,-225.93 1255.33,-210.94 1334.88,-203.13"/>
<polygon fill="#63b8ff" stroke="#63b8ff" points="1335.08,-206.63 1344.7,-202.17 1334.4,-199.66 1335.08,-206.63"/>
</g>
<!-- Node109&#45;&gt;Node21 -->
<g id="edge167" class="edge">
<title>Node109&#45;&gt;Node21</title>
<path fill="none" stroke="#63b8ff" d="M614.11,-670.52C587.59,-661.62 545.94,-647.55 510,-635 508.85,-634.6 507.67,-634.19 506.49,-633.77"/>
<polygon fill="#63b8ff" stroke="#63b8ff" points="507.76,-630.5 497.16,-630.46 505.41,-637.1 507.76,-630.5"/>
</g>
<!-- Node109&#45;&gt;Node98 -->
<g id="edge169" class="edge">
<title>Node109&#45;&gt;Node98</title>
<path fill="none" stroke="#63b8ff" d="M680.92,-670.55C726.5,-660.34 801.15,-643.6 850.93,-632.45"/>
<polygon fill="#63b8ff" stroke="#63b8ff" points="851.61,-635.88 860.6,-630.28 850.08,-629.05 851.61,-635.88"/>
</g>
</g>
</svg>
