<?xml version="1.0" encoding="UTF-8" standalone="no"?>
<!DOCTYPE svg PUBLIC "-//W3C//DTD SVG 1.1//EN"
 "http://www.w3.org/Graphics/SVG/1.1/DTD/svg11.dtd">
<!-- Generated by graphviz version 7.1.0 (0)
 -->
<!-- Title: /software/kratos/doxygen/applications/OptimizationApplication/custom_algorithms/algorithm_steepest_descent.h Pages: 1 -->
<svg width="3462pt" height="1127pt"
 viewBox="0.00 0.00 3462.00 1127.00" xmlns="http://www.w3.org/2000/svg" xmlns:xlink="http://www.w3.org/1999/xlink">
<g id="graph0" class="graph" transform="scale(1 1) rotate(0) translate(4 1123)">
<title>/software/kratos/doxygen/applications/OptimizationApplication/custom_algorithms/algorithm_steepest_descent.h</title>
<!-- Node1 -->
<g id="node1" class="node">
<title>Node1</title>
<g id="a_node1"><a xlink:title=" ">
<polygon fill="#999999" stroke="#666666" points="3322.5,-1119 3111.5,-1119 3111.5,-1067 3322.5,-1067 3322.5,-1119"/>
<text text-anchor="start" x="3119.5" y="-1107" font-family="Helvetica,sans-Serif" font-size="10.00">/software/kratos/doxygen</text>
<text text-anchor="start" x="3119.5" y="-1096" font-family="Helvetica,sans-Serif" font-size="10.00">/applications/OptimizationApplication</text>
<text text-anchor="start" x="3119.5" y="-1085" font-family="Helvetica,sans-Serif" font-size="10.00">/custom_algorithms/algorithm_steepest</text>
<text text-anchor="middle" x="3217" y="-1074" font-family="Helvetica,sans-Serif" font-size="10.00">_descent.h</text>
</a>
</g>
</g>
<!-- Node2 -->
<g id="node2" class="node">
<title>Node2</title>
<g id="a_node2"><a xlink:title=" ">
<polygon fill="#e0e0e0" stroke="#999999" points="1092,-24.5 1032,-24.5 1032,-5.5 1092,-5.5 1092,-24.5"/>
<text text-anchor="middle" x="1062" y="-12.5" font-family="Helvetica,sans-Serif" font-size="10.00">iostream</text>
</a>
</g>
</g>
<!-- Node1&#45;&gt;Node2 -->
<g id="edge1" class="edge">
<title>Node1&#45;&gt;Node2</title>
<path fill="none" stroke="#63b8ff" d="M3111.34,-1090.73C2555.96,-1083.74 0,-1047.21 0,-967.5 0,-967.5 0,-967.5 0,-195.5 0,-121.4 37.79,-97.19 105,-66 188.77,-27.13 847.13,-18.07 1020.36,-16.35"/>
<polygon fill="#63b8ff" stroke="#63b8ff" points="1020.27,-19.86 1030.23,-16.26 1020.2,-12.86 1020.27,-19.86"/>
</g>
<!-- Node3 -->
<g id="node3" class="node">
<title>Node3</title>
<g id="a_node3"><a xlink:title=" ">
<polygon fill="#e0e0e0" stroke="#999999" points="2860,-24.5 2816,-24.5 2816,-5.5 2860,-5.5 2860,-24.5"/>
<text text-anchor="middle" x="2838" y="-12.5" font-family="Helvetica,sans-Serif" font-size="10.00">string</text>
</a>
</g>
</g>
<!-- Node1&#45;&gt;Node3 -->
<g id="edge2" class="edge">
<title>Node1&#45;&gt;Node3</title>
<path fill="none" stroke="#63b8ff" d="M3322.68,-1077.66C3385.88,-1062.47 3454,-1031.29 3454,-967.5 3454,-967.5 3454,-967.5 3454,-140.5 3454,-91.26 3417.05,-85.87 3372,-66 3281.64,-26.14 2974.38,-18.01 2871.71,-16.39"/>
<polygon fill="#63b8ff" stroke="#63b8ff" points="2871.8,-12.89 2861.75,-16.25 2871.7,-19.89 2871.8,-12.89"/>
</g>
<!-- Node4 -->
<g id="node4" class="node">
<title>Node4</title>
<g id="a_node4"><a xlink:title=" ">
<polygon fill="#e0e0e0" stroke="#999999" points="3350,-266.5 3286,-266.5 3286,-247.5 3350,-247.5 3350,-266.5"/>
<text text-anchor="middle" x="3318" y="-254.5" font-family="Helvetica,sans-Serif" font-size="10.00">algorithm</text>
</a>
</g>
</g>
<!-- Node1&#45;&gt;Node4 -->
<g id="edge3" class="edge">
<title>Node1&#45;&gt;Node4</title>
<path fill="none" stroke="#63b8ff" d="M3263.58,-1066.56C3296.21,-1044.97 3334,-1010.66 3334,-967.5 3334,-967.5 3334,-967.5 3334,-371.5 3334,-338.41 3327.25,-300.42 3322.52,-277.85"/>
<polygon fill="#63b8ff" stroke="#63b8ff" points="3325.97,-277.27 3320.42,-268.25 3319.13,-278.77 3325.97,-277.27"/>
</g>
<!-- Node5 -->
<g id="node5" class="node">
<title>Node5</title>
<g id="a_node5"><a xlink:href="../../df/d67/define_8h.html" target="_top" xlink:title=" ">
<polygon fill="white" stroke="#666666" points="2386.5,-206 2287.5,-206 2287.5,-187 2386.5,-187 2386.5,-206"/>
<text text-anchor="middle" x="2337" y="-194" font-family="Helvetica,sans-Serif" font-size="10.00">includes/define.h</text>
</a>
</g>
</g>
<!-- Node1&#45;&gt;Node5 -->
<g id="edge4" class="edge">
<title>Node1&#45;&gt;Node5</title>
<path fill="none" stroke="#63b8ff" d="M3281.84,-1066.63C3298.71,-1057.49 3315.6,-1045.71 3328,-1031 3348.36,-1006.85 3378,-886.31 3378,-857.5 3378,-857.5 3378,-857.5 3378,-316.5 3378,-282.33 3385.52,-263.55 3359,-242 3321.61,-211.62 2613.23,-200.77 2398.31,-198.17"/>
<polygon fill="#63b8ff" stroke="#63b8ff" points="2398.51,-194.67 2388.46,-198.05 2398.42,-201.67 2398.51,-194.67"/>
</g>
<!-- Node17 -->
<g id="node17" class="node">
<title>Node17</title>
<g id="a_node17"><a xlink:href="../../dc/d51/model_8h.html" target="_top" xlink:title=" ">
<polygon fill="white" stroke="#666666" points="3170,-976 3060,-976 3060,-957 3170,-957 3170,-976"/>
<text text-anchor="middle" x="3115" y="-964" font-family="Helvetica,sans-Serif" font-size="10.00">containers/model.h</text>
</a>
</g>
</g>
<!-- Node1&#45;&gt;Node17 -->
<g id="edge27" class="edge">
<title>Node1&#45;&gt;Node17</title>
<path fill="none" stroke="#63b8ff" d="M3190.7,-1066.8C3180.1,-1056.14 3168.03,-1043.35 3158,-1031 3146.33,-1016.63 3134.65,-999.13 3126.41,-986.15"/>
<polygon fill="#63b8ff" stroke="#63b8ff" points="3129.44,-984.39 3121.18,-977.75 3123.5,-988.09 3129.44,-984.39"/>
</g>
<!-- Node19 -->
<g id="node19" class="node">
<title>Node19</title>
<g id="a_node19"><a xlink:href="../../dd/dfe/model__part_8h.html" target="_top" xlink:title=" ">
<polygon fill="white" stroke="#666666" points="1969.5,-921 1844.5,-921 1844.5,-902 1969.5,-902 1969.5,-921"/>
<text text-anchor="middle" x="1907" y="-909" font-family="Helvetica,sans-Serif" font-size="10.00">includes/model_part.h</text>
</a>
</g>
</g>
<!-- Node1&#45;&gt;Node19 -->
<g id="edge180" class="edge">
<title>Node1&#45;&gt;Node19</title>
<path fill="none" stroke="#63b8ff" d="M3111.18,-1077.5C2854.1,-1042.27 2201.59,-952.87 1981.1,-922.65"/>
<polygon fill="#63b8ff" stroke="#63b8ff" points="1981.88,-919.23 1971.49,-921.34 1980.93,-926.16 1981.88,-919.23"/>
</g>
<!-- Node121 -->
<g id="node50" class="node">
<title>Node121</title>
<g id="a_node50"><a xlink:href="../../dd/d42/algorithm__base_8h.html" target="_top" xlink:title=" ">
<polygon fill="white" stroke="#666666" points="3267.5,-1031 3166.5,-1031 3166.5,-1012 3267.5,-1012 3267.5,-1031"/>
<text text-anchor="middle" x="3217" y="-1019" font-family="Helvetica,sans-Serif" font-size="10.00">algorithm_base.h</text>
</a>
</g>
</g>
<!-- Node1&#45;&gt;Node121 -->
<g id="edge181" class="edge">
<title>Node1&#45;&gt;Node121</title>
<path fill="none" stroke="#63b8ff" d="M3217,-1066.52C3217,-1058.67 3217,-1050.15 3217,-1042.71"/>
<polygon fill="#63b8ff" stroke="#63b8ff" points="3220.5,-1042.71 3217,-1032.71 3213.5,-1042.71 3220.5,-1042.71"/>
</g>
<!-- Node6 -->
<g id="node6" class="node">
<title>Node6</title>
<g id="a_node6"><a xlink:title=" ">
<polygon fill="#e0e0e0" stroke="#999999" points="1514.5,-90.5 1449.5,-90.5 1449.5,-71.5 1514.5,-71.5 1514.5,-90.5"/>
<text text-anchor="middle" x="1482" y="-78.5" font-family="Helvetica,sans-Serif" font-size="10.00">stdexcept</text>
</a>
</g>
</g>
<!-- Node5&#45;&gt;Node6 -->
<g id="edge5" class="edge">
<title>Node5&#45;&gt;Node6</title>
<path fill="none" stroke="#63b8ff" d="M2287.33,-193.86C2190.43,-190.14 1969.57,-179.1 1786,-151 1692.21,-136.64 1584.31,-109.59 1525.61,-93.96"/>
<polygon fill="#63b8ff" stroke="#63b8ff" points="1526.57,-90.6 1516.01,-91.39 1524.76,-97.36 1526.57,-90.6"/>
</g>
<!-- Node7 -->
<g id="node7" class="node">
<title>Node7</title>
<g id="a_node7"><a xlink:title=" ">
<polygon fill="#e0e0e0" stroke="#999999" points="910,-90.5 854,-90.5 854,-71.5 910,-71.5 910,-90.5"/>
<text text-anchor="middle" x="882" y="-78.5" font-family="Helvetica,sans-Serif" font-size="10.00">sstream</text>
</a>
</g>
</g>
<!-- Node5&#45;&gt;Node7 -->
<g id="edge6" class="edge">
<title>Node5&#45;&gt;Node7</title>
<path fill="none" stroke="#63b8ff" d="M2287.11,-194.4C2145.58,-191 1729.45,-179.17 1385,-151 1280.19,-142.43 1016.65,-122.92 915,-96 913.65,-95.64 912.28,-95.24 910.9,-94.8"/>
<polygon fill="#63b8ff" stroke="#63b8ff" points="912.53,-91.67 901.94,-91.47 910.1,-98.23 912.53,-91.67"/>
</g>
<!-- Node8 -->
<g id="node8" class="node">
<title>Node8</title>
<g id="a_node8"><a xlink:href="../../dc/d25/kratos__export__api_8h.html" target="_top" xlink:title=" ">
<polygon fill="white" stroke="#666666" points="1818,-30 1690,-30 1690,0 1818,0 1818,-30"/>
<text text-anchor="start" x="1698" y="-18" font-family="Helvetica,sans-Serif" font-size="10.00">includes/kratos_export</text>
<text text-anchor="middle" x="1754" y="-7" font-family="Helvetica,sans-Serif" font-size="10.00">_api.h</text>
</a>
</g>
</g>
<!-- Node5&#45;&gt;Node8 -->
<g id="edge7" class="edge">
<title>Node5&#45;&gt;Node8</title>
<path fill="none" stroke="#63b8ff" d="M2323.67,-186.51C2287.52,-162.6 2183.93,-97.16 2088,-66 2001.9,-38.03 1898.16,-25.61 1829.38,-20.16"/>
<polygon fill="#63b8ff" stroke="#63b8ff" points="1829.97,-16.69 1819.73,-19.43 1829.44,-23.67 1829.97,-16.69"/>
</g>
<!-- Node9 -->
<g id="node9" class="node">
<title>Node9</title>
<g id="a_node9"><a xlink:href="../../d9/dc0/smart__pointers_8h.html" target="_top" xlink:title=" ">
<polygon fill="white" stroke="#666666" points="1979.5,-151 1836.5,-151 1836.5,-132 1979.5,-132 1979.5,-151"/>
<text text-anchor="middle" x="1908" y="-139" font-family="Helvetica,sans-Serif" font-size="10.00">includes/smart_pointers.h</text>
</a>
</g>
</g>
<!-- Node5&#45;&gt;Node9 -->
<g id="edge8" class="edge">
<title>Node5&#45;&gt;Node9</title>
<path fill="none" stroke="#63b8ff" d="M2287.37,-189.37C2214.89,-180.41 2079.19,-163.65 1991.26,-152.79"/>
<polygon fill="#63b8ff" stroke="#63b8ff" points="1991.84,-149.33 1981.49,-151.58 1990.98,-156.28 1991.84,-149.33"/>
</g>
<!-- Node13 -->
<g id="node13" class="node">
<title>Node13</title>
<g id="a_node13"><a xlink:href="../../dd/d2d/exception_8h.html" target="_top" xlink:title=" ">
<polygon fill="white" stroke="#666666" points="1511.5,-151 1394.5,-151 1394.5,-132 1511.5,-132 1511.5,-151"/>
<text text-anchor="middle" x="1453" y="-139" font-family="Helvetica,sans-Serif" font-size="10.00">includes/exception.h</text>
</a>
</g>
</g>
<!-- Node5&#45;&gt;Node13 -->
<g id="edge13" class="edge">
<title>Node5&#45;&gt;Node13</title>
<path fill="none" stroke="#63b8ff" d="M2287.26,-192.52C2138.44,-183.6 1696.3,-157.09 1523.41,-146.72"/>
<polygon fill="#63b8ff" stroke="#63b8ff" points="1523.63,-143.23 1513.44,-146.12 1523.21,-150.22 1523.63,-143.23"/>
</g>
<!-- Node9&#45;&gt;Node2 -->
<g id="edge9" class="edge">
<title>Node9&#45;&gt;Node2</title>
<path fill="none" stroke="#63b8ff" d="M1836.21,-134.56C1789.19,-128.81 1727.2,-117.61 1676,-96 1654.53,-86.94 1654.9,-73.95 1633,-66 1535.55,-30.62 1218.43,-19.71 1103.81,-16.87"/>
<polygon fill="#63b8ff" stroke="#63b8ff" points="1104.02,-13.38 1093.94,-16.64 1103.85,-20.38 1104.02,-13.38"/>
</g>
<!-- Node10 -->
<g id="node10" class="node">
<title>Node10</title>
<g id="a_node10"><a xlink:title=" ">
<polygon fill="#e0e0e0" stroke="#999999" points="552.5,-90.5 507.5,-90.5 507.5,-71.5 552.5,-71.5 552.5,-90.5"/>
<text text-anchor="middle" x="530" y="-78.5" font-family="Helvetica,sans-Serif" font-size="10.00">utility</text>
</a>
</g>
</g>
<!-- Node9&#45;&gt;Node10 -->
<g id="edge10" class="edge">
<title>Node9&#45;&gt;Node10</title>
<path fill="none" stroke="#63b8ff" d="M1836.14,-137.56C1664.66,-130.52 1218,-112.1 845,-96 742.88,-91.59 622.15,-86.17 564.29,-83.55"/>
<polygon fill="#63b8ff" stroke="#63b8ff" points="564.58,-80.06 554.44,-83.11 564.27,-87.06 564.58,-80.06"/>
</g>
<!-- Node11 -->
<g id="node11" class="node">
<title>Node11</title>
<g id="a_node11"><a xlink:title=" ">
<polygon fill="#e0e0e0" stroke="#999999" points="1937,-90.5 1879,-90.5 1879,-71.5 1937,-71.5 1937,-90.5"/>
<text text-anchor="middle" x="1908" y="-78.5" font-family="Helvetica,sans-Serif" font-size="10.00">memory</text>
</a>
</g>
</g>
<!-- Node9&#45;&gt;Node11 -->
<g id="edge11" class="edge">
<title>Node9&#45;&gt;Node11</title>
<path fill="none" stroke="#63b8ff" d="M1908,-131.87C1908,-124 1908,-112.1 1908,-101.89"/>
<polygon fill="#63b8ff" stroke="#63b8ff" points="1911.5,-102.18 1908,-92.18 1904.5,-102.18 1911.5,-102.18"/>
</g>
<!-- Node12 -->
<g id="node12" class="node">
<title>Node12</title>
<g id="a_node12"><a xlink:title=" ">
<polygon fill="#e0e0e0" stroke="#999999" points="2079,-96 1955,-96 1955,-66 2079,-66 2079,-96"/>
<text text-anchor="start" x="1963" y="-84" font-family="Helvetica,sans-Serif" font-size="10.00">intrusive_ptr/intrusive</text>
<text text-anchor="middle" x="2017" y="-73" font-family="Helvetica,sans-Serif" font-size="10.00">_ptr.hpp</text>
</a>
</g>
</g>
<!-- Node9&#45;&gt;Node12 -->
<g id="edge12" class="edge">
<title>Node9&#45;&gt;Node12</title>
<path fill="none" stroke="#63b8ff" d="M1924.55,-131.62C1939.23,-123.74 1961.19,-111.96 1980.02,-101.85"/>
<polygon fill="#63b8ff" stroke="#63b8ff" points="1981.61,-104.97 1988.76,-97.16 1978.3,-98.8 1981.61,-104.97"/>
</g>
<!-- Node13&#45;&gt;Node2 -->
<g id="edge16" class="edge">
<title>Node13&#45;&gt;Node2</title>
<path fill="none" stroke="#63b8ff" d="M1444.93,-131.66C1429.78,-115.68 1395.34,-82.16 1359,-66 1273.63,-28.03 1162.74,-18.71 1103.54,-16.54"/>
<polygon fill="#63b8ff" stroke="#63b8ff" points="1103.69,-13.04 1093.58,-16.23 1103.47,-20.04 1103.69,-13.04"/>
</g>
<!-- Node13&#45;&gt;Node3 -->
<g id="edge15" class="edge">
<title>Node13&#45;&gt;Node3</title>
<path fill="none" stroke="#63b8ff" d="M1511.78,-137.4C1603.12,-131.95 1774.54,-118.97 1831,-96 1851.26,-87.76 1849.49,-73.57 1870,-66 1959.04,-33.13 2643.03,-19.36 2804.1,-16.56"/>
<polygon fill="#63b8ff" stroke="#63b8ff" points="2804.16,-20.06 2814.1,-16.39 2804.04,-13.06 2804.16,-20.06"/>
</g>
<!-- Node13&#45;&gt;Node6 -->
<g id="edge14" class="edge">
<title>Node13&#45;&gt;Node6</title>
<path fill="none" stroke="#63b8ff" d="M1457.28,-131.87C1461.31,-123.75 1467.47,-111.31 1472.64,-100.89"/>
<polygon fill="#63b8ff" stroke="#63b8ff" points="1475.73,-102.54 1477.03,-92.02 1469.45,-99.43 1475.73,-102.54"/>
</g>
<!-- Node13&#45;&gt;Node7 -->
<g id="edge17" class="edge">
<title>Node13&#45;&gt;Node7</title>
<path fill="none" stroke="#63b8ff" d="M1394.04,-134.46C1277.4,-122.51 1019.95,-96.13 921.42,-86.04"/>
<polygon fill="#63b8ff" stroke="#63b8ff" points="922.02,-82.58 911.72,-85.04 921.31,-89.55 922.02,-82.58"/>
</g>
<!-- Node13&#45;&gt;Node8 -->
<g id="edge19" class="edge">
<title>Node13&#45;&gt;Node8</title>
<path fill="none" stroke="#63b8ff" d="M1447.62,-131.98C1438.81,-116.82 1423.81,-84.98 1440,-66 1470.03,-30.81 1595.35,-20.27 1678.3,-17.18"/>
<polygon fill="#63b8ff" stroke="#63b8ff" points="1678.32,-20.68 1688.2,-16.84 1678.08,-13.69 1678.32,-20.68"/>
</g>
<!-- Node14 -->
<g id="node14" class="node">
<title>Node14</title>
<g id="a_node14"><a xlink:title=" ">
<polygon fill="#e0e0e0" stroke="#999999" points="164.5,-24.5 117.5,-24.5 117.5,-5.5 164.5,-5.5 164.5,-24.5"/>
<text text-anchor="middle" x="141" y="-12.5" font-family="Helvetica,sans-Serif" font-size="10.00">vector</text>
</a>
</g>
</g>
<!-- Node13&#45;&gt;Node14 -->
<g id="edge18" class="edge">
<title>Node13&#45;&gt;Node14</title>
<path fill="none" stroke="#63b8ff" d="M1398.58,-131.54C1302.19,-115.98 1095.01,-83.91 919,-66 633.14,-36.91 286.37,-21.68 176.29,-17.33"/>
<polygon fill="#63b8ff" stroke="#63b8ff" points="176.57,-13.84 166.44,-16.95 176.3,-20.83 176.57,-13.84"/>
</g>
<!-- Node15 -->
<g id="node15" class="node">
<title>Node15</title>
<g id="a_node15"><a xlink:href="../../da/da6/code__location_8h.html" target="_top" xlink:title=" ">
<polygon fill="white" stroke="#666666" points="1822.5,-90.5 1685.5,-90.5 1685.5,-71.5 1822.5,-71.5 1822.5,-90.5"/>
<text text-anchor="middle" x="1754" y="-78.5" font-family="Helvetica,sans-Serif" font-size="10.00">includes/code_location.h</text>
</a>
</g>
</g>
<!-- Node13&#45;&gt;Node15 -->
<g id="edge20" class="edge">
<title>Node13&#45;&gt;Node15</title>
<path fill="none" stroke="#63b8ff" d="M1499.04,-131.55C1552.15,-121.23 1639.51,-104.25 1696.9,-93.1"/>
<polygon fill="#63b8ff" stroke="#63b8ff" points="1697.33,-96.58 1706.48,-91.24 1695.99,-89.71 1697.33,-96.58"/>
</g>
<!-- Node16 -->
<g id="node16" class="node">
<title>Node16</title>
<g id="a_node16"><a xlink:href="../../d9/d06/stl__vector__io_8h.html" target="_top" xlink:title=" ">
<polygon fill="white" stroke="#666666" points="482,-90.5 354,-90.5 354,-71.5 482,-71.5 482,-90.5"/>
<text text-anchor="middle" x="418" y="-78.5" font-family="Helvetica,sans-Serif" font-size="10.00">utilities/stl_vector_io.h</text>
</a>
</g>
</g>
<!-- Node13&#45;&gt;Node16 -->
<g id="edge24" class="edge">
<title>Node13&#45;&gt;Node16</title>
<path fill="none" stroke="#63b8ff" d="M1394.11,-140.35C1244.15,-139.39 835.79,-133.27 498,-96 490.47,-95.17 482.57,-94.07 474.8,-92.85"/>
<polygon fill="#63b8ff" stroke="#63b8ff" points="475.48,-89.42 465.04,-91.24 474.34,-96.32 475.48,-89.42"/>
</g>
<!-- Node15&#45;&gt;Node2 -->
<g id="edge22" class="edge">
<title>Node15&#45;&gt;Node2</title>
<path fill="none" stroke="#63b8ff" d="M1704.95,-71.01C1693.81,-69.17 1682.02,-67.38 1671,-66 1458.33,-39.38 1202.03,-23.64 1103.42,-18.18"/>
<polygon fill="#63b8ff" stroke="#63b8ff" points="1103.88,-14.7 1093.7,-17.65 1103.5,-21.69 1103.88,-14.7"/>
</g>
<!-- Node15&#45;&gt;Node3 -->
<g id="edge21" class="edge">
<title>Node15&#45;&gt;Node3</title>
<path fill="none" stroke="#63b8ff" d="M1801.27,-71.04C1812.91,-69.11 1825.38,-67.27 1837,-66 2215.29,-24.79 2677.77,-17.5 2804.53,-16.25"/>
<polygon fill="#63b8ff" stroke="#63b8ff" points="2804.25,-19.75 2814.22,-16.16 2804.18,-12.75 2804.25,-19.75"/>
</g>
<!-- Node15&#45;&gt;Node8 -->
<g id="edge23" class="edge">
<title>Node15&#45;&gt;Node8</title>
<path fill="none" stroke="#63b8ff" d="M1754,-71.1C1754,-63.41 1754,-51.92 1754,-41.42"/>
<polygon fill="#63b8ff" stroke="#63b8ff" points="1757.5,-41.75 1754,-31.75 1750.5,-41.75 1757.5,-41.75"/>
</g>
<!-- Node16&#45;&gt;Node2 -->
<g id="edge25" class="edge">
<title>Node16&#45;&gt;Node2</title>
<path fill="none" stroke="#63b8ff" d="M465.28,-71.04C476.01,-69.2 487.38,-67.4 498,-66 692.64,-40.39 926.83,-24.31 1020.42,-18.47"/>
<polygon fill="#63b8ff" stroke="#63b8ff" points="1020.36,-21.98 1030.13,-17.88 1019.93,-15 1020.36,-21.98"/>
</g>
<!-- Node16&#45;&gt;Node14 -->
<g id="edge26" class="edge">
<title>Node16&#45;&gt;Node14</title>
<path fill="none" stroke="#63b8ff" d="M379.19,-71.03C325.07,-58.53 227.73,-36.04 175.83,-24.05"/>
<polygon fill="#63b8ff" stroke="#63b8ff" points="176.87,-20.7 166.34,-21.86 175.3,-27.52 176.87,-20.7"/>
</g>
<!-- Node17&#45;&gt;Node2 -->
<g id="edge29" class="edge">
<title>Node17&#45;&gt;Node2</title>
<path fill="none" stroke="#63b8ff" d="M3059.66,-965.03C2647.77,-961.34 76,-935.21 76,-857.5 76,-857.5 76,-857.5 76,-316.5 76,-183.43 120.48,-124.51 240,-66 310.4,-31.53 863.33,-19.43 1020.48,-16.66"/>
<polygon fill="#63b8ff" stroke="#63b8ff" points="1020.48,-20.16 1030.42,-16.49 1020.36,-13.17 1020.48,-20.16"/>
</g>
<!-- Node17&#45;&gt;Node3 -->
<g id="edge28" class="edge">
<title>Node17&#45;&gt;Node3</title>
<path fill="none" stroke="#63b8ff" d="M3128.71,-956.63C3152.28,-940.16 3198,-902.43 3198,-857.5 3198,-857.5 3198,-857.5 3198,-740 3198,-655.88 3258,-644.62 3258,-560.5 3258,-560.5 3258,-560.5 3258,-140.5 3258,-97.14 3232.97,-86.94 3195,-66 3139.62,-35.46 2949.14,-21.97 2871.42,-17.65"/>
<polygon fill="#63b8ff" stroke="#63b8ff" points="2872.06,-14.18 2861.89,-17.14 2871.69,-21.17 2872.06,-14.18"/>
</g>
<!-- Node17&#45;&gt;Node5 -->
<g id="edge31" class="edge">
<title>Node17&#45;&gt;Node5</title>
<path fill="none" stroke="#63b8ff" d="M3121.45,-956.77C3133.89,-939.04 3160,-897.11 3160,-857.5 3160,-857.5 3160,-857.5 3160,-679.5 3160,-573.25 2944.12,-371.59 2859,-308 2851.34,-302.28 2709.25,-244.44 2700,-242 2596.12,-214.62 2470.99,-203.99 2398.07,-199.94"/>
<polygon fill="#63b8ff" stroke="#63b8ff" points="2398.51,-196.45 2388.34,-199.42 2398.14,-203.44 2398.51,-196.45"/>
</g>
<!-- Node18 -->
<g id="node18" class="node">
<title>Node18</title>
<g id="a_node18"><a xlink:title=" ">
<polygon fill="#e0e0e0" stroke="#999999" points="539.5,-327 446.5,-327 446.5,-308 539.5,-308 539.5,-327"/>
<text text-anchor="middle" x="493" y="-315" font-family="Helvetica,sans-Serif" font-size="10.00">unordered_map</text>
</a>
</g>
</g>
<!-- Node17&#45;&gt;Node18 -->
<g id="edge30" class="edge">
<title>Node17&#45;&gt;Node18</title>
<path fill="none" stroke="#63b8ff" d="M3059.64,-964.77C2675.31,-959.56 420,-926.04 420,-857.5 420,-857.5 420,-857.5 420,-740 420,-582.96 469.81,-397.77 487.14,-338.08"/>
<polygon fill="#63b8ff" stroke="#63b8ff" points="490.42,-339.33 489.89,-328.75 483.7,-337.35 490.42,-339.33"/>
</g>
<!-- Node17&#45;&gt;Node19 -->
<g id="edge32" class="edge">
<title>Node17&#45;&gt;Node19</title>
<path fill="none" stroke="#63b8ff" d="M3059.56,-963.07C2863.62,-954.47 2203.6,-925.51 1981.01,-915.75"/>
<polygon fill="#63b8ff" stroke="#63b8ff" points="1981.46,-912.26 1971.31,-915.32 1981.15,-919.26 1981.46,-912.26"/>
</g>
<!-- Node19&#45;&gt;Node2 -->
<g id="edge34" class="edge">
<title>Node19&#45;&gt;Node2</title>
<path fill="none" stroke="#63b8ff" d="M1844.24,-910.07C1526.89,-907.5 114,-891.08 114,-802.5 114,-802.5 114,-802.5 114,-432 114,-253.02 134.5,-167.39 282,-66 343.1,-24 868.39,-17.27 1020.74,-16.2"/>
<polygon fill="#63b8ff" stroke="#63b8ff" points="1020.38,-19.7 1030.36,-16.14 1020.34,-12.7 1020.38,-19.7"/>
</g>
<!-- Node19&#45;&gt;Node3 -->
<g id="edge33" class="edge">
<title>Node19&#45;&gt;Node3</title>
<path fill="none" stroke="#63b8ff" d="M1969.75,-910.95C2168.84,-911.89 2784.5,-910.98 2978,-866 3046.13,-850.16 3122,-872.45 3122,-802.5 3122,-802.5 3122,-802.5 3122,-679.5 3122,-513.25 3220,-484.75 3220,-318.5 3220,-318.5 3220,-318.5 3220,-140.5 3220,-97.71 3196.15,-87.25 3159,-66 3110.31,-38.14 2943.46,-23.39 2871.49,-18.19"/>
<polygon fill="#63b8ff" stroke="#63b8ff" points="2872.12,-14.73 2861.9,-17.52 2871.63,-21.71 2872.12,-14.73"/>
</g>
<!-- Node19&#45;&gt;Node5 -->
<g id="edge37" class="edge">
<title>Node19&#45;&gt;Node5</title>
<path fill="none" stroke="#63b8ff" d="M1969.79,-909.47C2153.76,-906.17 2689.41,-894.31 2862,-866 2963.27,-849.39 3084,-905.12 3084,-802.5 3084,-802.5 3084,-802.5 3084,-679.5 3084,-455.11 3039.03,-328.55 2832,-242 2755.13,-209.87 2512.55,-200.89 2398.01,-198.42"/>
<polygon fill="#63b8ff" stroke="#63b8ff" points="2398.26,-194.92 2388.19,-198.22 2398.12,-201.92 2398.26,-194.92"/>
</g>
<!-- Node19&#45;&gt;Node7 -->
<g id="edge35" class="edge">
<title>Node19&#45;&gt;Node7</title>
<path fill="none" stroke="#63b8ff" d="M1844.25,-910.33C1580.5,-909.36 572.84,-903.23 517,-866 284.64,-711.07 255.66,-449.12 443,-242 551.23,-122.34 756.28,-92.04 842.37,-84.47"/>
<polygon fill="#63b8ff" stroke="#63b8ff" points="842.51,-87.97 852.2,-83.67 841.95,-80.99 842.51,-87.97"/>
</g>
<!-- Node20 -->
<g id="node20" class="node">
<title>Node20</title>
<g id="a_node20"><a xlink:title=" ">
<polygon fill="#e0e0e0" stroke="#999999" points="1023.5,-382 970.5,-382 970.5,-363 1023.5,-363 1023.5,-382"/>
<text text-anchor="middle" x="997" y="-370" font-family="Helvetica,sans-Serif" font-size="10.00">cstddef</text>
</a>
</g>
</g>
<!-- Node19&#45;&gt;Node20 -->
<g id="edge36" class="edge">
<title>Node19&#45;&gt;Node20</title>
<path fill="none" stroke="#63b8ff" d="M1844.17,-910.26C1656.81,-909.12 1104.04,-902.67 928,-866 850.67,-849.89 762,-881.49 762,-802.5 762,-802.5 762,-802.5 762,-558.5 762,-516.81 785.39,-508.67 819,-484 856.74,-456.29 878.15,-472.57 918,-448 943.49,-432.29 967.76,-407.39 982.51,-390.76"/>
<polygon fill="#63b8ff" stroke="#63b8ff" points="985.16,-393.05 989.05,-383.2 979.86,-388.48 985.16,-393.05"/>
</g>
<!-- Node21 -->
<g id="node21" class="node">
<title>Node21</title>
<g id="a_node21"><a xlink:href="../../dd/d5f/serializer_8h.html" target="_top" xlink:title=" ">
<polygon fill="white" stroke="#666666" points="1671.5,-382 1558.5,-382 1558.5,-363 1671.5,-363 1671.5,-382"/>
<text text-anchor="middle" x="1615" y="-370" font-family="Helvetica,sans-Serif" font-size="10.00">includes/serializer.h</text>
</a>
</g>
</g>
<!-- Node19&#45;&gt;Node21 -->
<g id="edge38" class="edge">
<title>Node19&#45;&gt;Node21</title>
<path fill="none" stroke="#63b8ff" d="M1923.55,-901.63C1950.77,-885.69 2002,-849.45 2002,-802.5 2002,-802.5 2002,-802.5 2002,-740 2002,-645.49 1888,-655.01 1888,-560.5 1888,-560.5 1888,-560.5 1888,-498 1888,-461.35 1894.82,-442.98 1868,-418 1841.74,-393.54 1748.51,-382.25 1682.89,-377.23"/>
<polygon fill="#63b8ff" stroke="#63b8ff" points="1683.53,-373.77 1673.3,-376.53 1683.02,-380.75 1683.53,-373.77"/>
</g>
<!-- Node53 -->
<g id="node31" class="node">
<title>Node53</title>
<g id="a_node31"><a xlink:href="../../d1/d8c/logger_8h.html" target="_top" xlink:title=" ">
<polygon fill="#fff0f0" stroke="red" points="1134,-327 1014,-327 1014,-308 1134,-308 1134,-327"/>
<text text-anchor="middle" x="1074" y="-315" font-family="Helvetica,sans-Serif" font-size="10.00">input_output/logger.h</text>
</a>
</g>
</g>
<!-- Node19&#45;&gt;Node53 -->
<g id="edge175" class="edge">
<title>Node19&#45;&gt;Node53</title>
<path fill="none" stroke="#63b8ff" d="M1844.05,-909.73C1604.04,-906.61 753.96,-893.67 636,-866 569.48,-850.4 496,-870.82 496,-802.5 496,-802.5 496,-802.5 496,-679.5 496,-560.91 464.62,-501.32 549,-418 612.12,-355.68 873.88,-330.94 1002.3,-322.42"/>
<polygon fill="#63b8ff" stroke="#63b8ff" points="1002.29,-325.92 1012.05,-321.79 1001.84,-318.94 1002.29,-325.92"/>
</g>
<!-- Node57 -->
<g id="node32" class="node">
<title>Node57</title>
<g id="a_node32"><a xlink:href="../../de/db8/process__info_8h.html" target="_top" xlink:title=" ">
<polygon fill="white" stroke="#666666" points="1908.5,-690 1777.5,-690 1777.5,-671 1908.5,-671 1908.5,-690"/>
<text text-anchor="middle" x="1843" y="-678" font-family="Helvetica,sans-Serif" font-size="10.00">includes/process_info.h</text>
</a>
</g>
</g>
<!-- Node19&#45;&gt;Node57 -->
<g id="edge73" class="edge">
<title>Node19&#45;&gt;Node57</title>
<path fill="none" stroke="#63b8ff" d="M1908.53,-901.67C1911.67,-881.71 1917.68,-831.74 1907,-792 1897.41,-756.31 1873.17,-720.24 1857.42,-699.42"/>
<polygon fill="#63b8ff" stroke="#63b8ff" points="1860.31,-697.43 1851.41,-691.69 1854.79,-701.73 1860.31,-697.43"/>
</g>
<!-- Node58 -->
<g id="node33" class="node">
<title>Node58</title>
<g id="a_node33"><a xlink:href="../../d1/d82/data__value__container_8h.html" target="_top" xlink:title=" ">
<polygon fill="white" stroke="#666666" points="1593.5,-635 1468.5,-635 1468.5,-605 1593.5,-605 1593.5,-635"/>
<text text-anchor="start" x="1476.5" y="-623" font-family="Helvetica,sans-Serif" font-size="10.00">containers/data_value</text>
<text text-anchor="middle" x="1531" y="-612" font-family="Helvetica,sans-Serif" font-size="10.00">_container.h</text>
</a>
</g>
</g>
<!-- Node19&#45;&gt;Node58 -->
<g id="edge105" class="edge">
<title>Node19&#45;&gt;Node58</title>
<path fill="none" stroke="#63b8ff" d="M1844.37,-902.14C1751.99,-888.03 1590,-855.7 1590,-802.5 1590,-802.5 1590,-802.5 1590,-740 1590,-703.68 1567.67,-667.01 1550.48,-644.16"/>
<polygon fill="#63b8ff" stroke="#63b8ff" points="1553.37,-642.17 1544.45,-636.45 1547.85,-646.49 1553.37,-642.17"/>
</g>
<!-- Node59 -->
<g id="node34" class="node">
<title>Node59</title>
<g id="a_node34"><a xlink:href="../../da/d89/variable_8h.html" target="_top" xlink:title=" ">
<polygon fill="white" stroke="#666666" points="2285.5,-508.5 2166.5,-508.5 2166.5,-489.5 2285.5,-489.5 2285.5,-508.5"/>
<text text-anchor="middle" x="2226" y="-496.5" font-family="Helvetica,sans-Serif" font-size="10.00">containers/variable.h</text>
</a>
</g>
</g>
<!-- Node19&#45;&gt;Node59 -->
<g id="edge178" class="edge">
<title>Node19&#45;&gt;Node59</title>
<path fill="none" stroke="#63b8ff" d="M1969.71,-907.76C2039.02,-900.96 2141,-878.12 2141,-802.5 2141,-802.5 2141,-802.5 2141,-619 2141,-575.33 2179.38,-536.61 2204.56,-515.92"/>
<polygon fill="#63b8ff" stroke="#63b8ff" points="2206.59,-518.77 2212.27,-509.83 2202.25,-513.28 2206.59,-518.77"/>
</g>
<!-- Node60 -->
<g id="node35" class="node">
<title>Node60</title>
<g id="a_node35"><a xlink:href="../../d3/dc3/variable__data_8h.html" target="_top" xlink:title=" ">
<polygon fill="#fff0f0" stroke="red" points="2236,-442.5 2144,-442.5 2144,-423.5 2236,-423.5 2236,-442.5"/>
<text text-anchor="middle" x="2190" y="-430.5" font-family="Helvetica,sans-Serif" font-size="10.00">variable_data.h</text>
</a>
</g>
</g>
<!-- Node19&#45;&gt;Node60 -->
<g id="edge179" class="edge">
<title>Node19&#45;&gt;Node60</title>
<path fill="none" stroke="#63b8ff" d="M1969.67,-908.41C2155.24,-901.41 2689,-874.97 2689,-802.5 2689,-802.5 2689,-802.5 2689,-679.5 2689,-530.3 2496.65,-651 2372,-569 2329.16,-540.82 2335.18,-514.55 2294,-484 2273.04,-468.45 2246.47,-455.78 2225.44,-447.08"/>
<polygon fill="#63b8ff" stroke="#63b8ff" points="2226.99,-443.93 2216.41,-443.46 2224.39,-450.43 2226.99,-443.93"/>
</g>
<!-- Node70 -->
<g id="node37" class="node">
<title>Node70</title>
<g id="a_node37"><a xlink:href="../../d8/d3b/mesh_8h.html" target="_top" xlink:title=" ">
<polygon fill="white" stroke="#666666" points="1363,-811 1267,-811 1267,-792 1363,-792 1363,-811"/>
<text text-anchor="middle" x="1315" y="-799" font-family="Helvetica,sans-Serif" font-size="10.00">includes/mesh.h</text>
</a>
</g>
</g>
<!-- Node19&#45;&gt;Node70 -->
<g id="edge106" class="edge">
<title>Node19&#45;&gt;Node70</title>
<path fill="none" stroke="#63b8ff" d="M1844.02,-908.59C1729.32,-904.49 1491.04,-892.94 1413,-866 1382.65,-855.52 1352.34,-833.7 1333.64,-818.59"/>
<polygon fill="#63b8ff" stroke="#63b8ff" points="1336.07,-816.06 1326.14,-812.35 1331.6,-821.44 1336.07,-816.06"/>
</g>
<!-- Node74 -->
<g id="node39" class="node">
<title>Node74</title>
<g id="a_node39"><a xlink:href="../../d2/d58/pointer__vector__map_8h.html" target="_top" xlink:title=" ">
<polygon fill="#fff0f0" stroke="red" points="909.5,-448 804.5,-448 804.5,-418 909.5,-418 909.5,-448"/>
<text text-anchor="start" x="812.5" y="-436" font-family="Helvetica,sans-Serif" font-size="10.00">containers/pointer</text>
<text text-anchor="middle" x="857" y="-425" font-family="Helvetica,sans-Serif" font-size="10.00">_vector_map.h</text>
</a>
</g>
</g>
<!-- Node19&#45;&gt;Node74 -->
<g id="edge173" class="edge">
<title>Node19&#45;&gt;Node74</title>
<path fill="none" stroke="#63b8ff" d="M1844.39,-909.64C1610.15,-906.24 796.31,-892.54 748,-866 601.76,-785.67 701.13,-548.04 748,-484 759.31,-468.55 776.55,-457.75 794.01,-450.25"/>
<polygon fill="#63b8ff" stroke="#63b8ff" points="794.85,-453.68 802.87,-446.76 792.28,-447.17 794.85,-453.68"/>
</g>
<!-- Node87 -->
<g id="node42" class="node">
<title>Node87</title>
<g id="a_node42"><a xlink:href="../../da/da4/master__slave__constraint_8h.html" target="_top" xlink:title=" ">
<polygon fill="#fff0f0" stroke="red" points="2295,-756 2169,-756 2169,-726 2295,-726 2295,-756"/>
<text text-anchor="start" x="2177" y="-744" font-family="Helvetica,sans-Serif" font-size="10.00">includes/master_slave</text>
<text text-anchor="middle" x="2232" y="-733" font-family="Helvetica,sans-Serif" font-size="10.00">_constraint.h</text>
</a>
</g>
</g>
<!-- Node19&#45;&gt;Node87 -->
<g id="edge177" class="edge">
<title>Node19&#45;&gt;Node87</title>
<path fill="none" stroke="#63b8ff" d="M1969.73,-905.08C2033.03,-898.59 2125.5,-886.02 2155,-866 2190.38,-841.98 2212.58,-795.75 2223.59,-767.02"/>
<polygon fill="#63b8ff" stroke="#63b8ff" points="2226.87,-768.27 2227,-757.67 2220.29,-765.87 2226.87,-768.27"/>
</g>
<!-- Node99 -->
<g id="node43" class="node">
<title>Node99</title>
<g id="a_node43"><a xlink:href="../../d0/dac/kratos__flags_8h.html" target="_top" xlink:title=" ">
<polygon fill="white" stroke="#666666" points="2921,-629.5 2793,-629.5 2793,-610.5 2921,-610.5 2921,-629.5"/>
<text text-anchor="middle" x="2857" y="-617.5" font-family="Helvetica,sans-Serif" font-size="10.00">includes/kratos_flags.h</text>
</a>
</g>
</g>
<!-- Node19&#45;&gt;Node99 -->
<g id="edge176" class="edge">
<title>Node19&#45;&gt;Node99</title>
<path fill="none" stroke="#63b8ff" d="M1969.84,-910.62C2195.12,-910.22 2949,-901.51 2949,-802.5 2949,-802.5 2949,-802.5 2949,-740 2949,-695.11 2907.52,-656.85 2880.27,-636.56"/>
<polygon fill="#63b8ff" stroke="#63b8ff" points="2882.38,-633.76 2872.2,-630.8 2878.3,-639.46 2882.38,-633.76"/>
</g>
<!-- Node100 -->
<g id="node44" class="node">
<title>Node100</title>
<g id="a_node44"><a xlink:href="../../d3/dad/geometry__container_8h.html" target="_top" xlink:title=" ">
<polygon fill="white" stroke="#666666" points="946,-514 828,-514 828,-484 946,-484 946,-514"/>
<text text-anchor="start" x="836" y="-502" font-family="Helvetica,sans-Serif" font-size="10.00">containers/geometry</text>
<text text-anchor="middle" x="887" y="-491" font-family="Helvetica,sans-Serif" font-size="10.00">_container.h</text>
</a>
</g>
</g>
<!-- Node19&#45;&gt;Node100 -->
<g id="edge147" class="edge">
<title>Node19&#45;&gt;Node100</title>
<path fill="none" stroke="#63b8ff" d="M1844.25,-910.65C1618.37,-910.37 860,-902.03 860,-802.5 860,-802.5 860,-802.5 860,-619 860,-586.02 869.99,-549.14 877.81,-525.3"/>
<polygon fill="#63b8ff" stroke="#63b8ff" points="881.12,-526.44 881.05,-515.85 874.5,-524.18 881.12,-526.44"/>
</g>
<!-- Node101 -->
<g id="node45" class="node">
<title>Node101</title>
<g id="a_node45"><a xlink:href="../../da/d92/pointer__hash__map__set_8h.html" target="_top" xlink:title=" ">
<polygon fill="#fff0f0" stroke="red" points="663.5,-448 558.5,-448 558.5,-418 663.5,-418 663.5,-448"/>
<text text-anchor="start" x="566.5" y="-436" font-family="Helvetica,sans-Serif" font-size="10.00">containers/pointer</text>
<text text-anchor="middle" x="611" y="-425" font-family="Helvetica,sans-Serif" font-size="10.00">_hash_map_set.h</text>
</a>
</g>
</g>
<!-- Node19&#45;&gt;Node101 -->
<g id="edge174" class="edge">
<title>Node19&#45;&gt;Node101</title>
<path fill="none" stroke="#63b8ff" d="M1844.18,-909.93C1614.36,-907.6 827.15,-897.39 719,-866 665.16,-850.37 610,-858.57 610,-802.5 610,-802.5 610,-802.5 610,-558.5 610,-524.29 610.38,-484.8 610.67,-459.63"/>
<polygon fill="#63b8ff" stroke="#63b8ff" points="614.17,-459.74 610.79,-449.7 607.17,-459.66 614.17,-459.74"/>
</g>
<!-- Node102 -->
<g id="node46" class="node">
<title>Node102</title>
<g id="a_node46"><a xlink:href="../../d4/dfe/element_8h.html" target="_top" xlink:title=" ">
<polygon fill="#fff0f0" stroke="red" points="1898,-811 1788,-811 1788,-792 1898,-792 1898,-811"/>
<text text-anchor="middle" x="1843" y="-799" font-family="Helvetica,sans-Serif" font-size="10.00">includes/element.h</text>
</a>
</g>
</g>
<!-- Node19&#45;&gt;Node102 -->
<g id="edge154" class="edge">
<title>Node19&#45;&gt;Node102</title>
<path fill="none" stroke="#63b8ff" d="M1901.76,-901.66C1891.4,-884.18 1868.09,-844.84 1854.14,-821.3"/>
<polygon fill="#63b8ff" stroke="#63b8ff" points="1857.19,-819.58 1849.08,-812.76 1851.17,-823.15 1857.19,-819.58"/>
</g>
<!-- Node119 -->
<g id="node47" class="node">
<title>Node119</title>
<g id="a_node47"><a xlink:href="../../d7/d6c/condition_8h.html" target="_top" xlink:title=" ">
<polygon fill="#fff0f0" stroke="red" points="1732,-811 1618,-811 1618,-792 1732,-792 1732,-811"/>
<text text-anchor="middle" x="1675" y="-799" font-family="Helvetica,sans-Serif" font-size="10.00">includes/condition.h</text>
</a>
</g>
</g>
<!-- Node19&#45;&gt;Node119 -->
<g id="edge156" class="edge">
<title>Node19&#45;&gt;Node119</title>
<path fill="none" stroke="#63b8ff" d="M1888.01,-901.66C1847.65,-882.87 1753.07,-838.84 1704.67,-816.31"/>
<polygon fill="#63b8ff" stroke="#63b8ff" points="1706.16,-813.15 1695.62,-812.1 1703.21,-819.49 1706.16,-813.15"/>
</g>
<!-- Node120 -->
<g id="node48" class="node">
<title>Node120</title>
<g id="a_node48"><a xlink:href="../../d8/d75/communicator_8h.html" target="_top" xlink:title=" ">
<polygon fill="white" stroke="#666666" points="1561.5,-866 1422.5,-866 1422.5,-847 1561.5,-847 1561.5,-866"/>
<text text-anchor="middle" x="1492" y="-854" font-family="Helvetica,sans-Serif" font-size="10.00">includes/communicator.h</text>
</a>
</g>
</g>
<!-- Node19&#45;&gt;Node120 -->
<g id="edge158" class="edge">
<title>Node19&#45;&gt;Node120</title>
<path fill="none" stroke="#63b8ff" d="M1844.42,-902.51C1771.87,-893.24 1652.09,-877.95 1572.62,-867.8"/>
<polygon fill="#63b8ff" stroke="#63b8ff" points="1573.55,-864.39 1563.18,-866.59 1572.66,-871.33 1573.55,-864.39"/>
</g>
<!-- Node104 -->
<g id="node49" class="node">
<title>Node104</title>
<g id="a_node49"><a xlink:href="../../dd/d98/table_8h.html" target="_top" xlink:title=" ">
<polygon fill="white" stroke="#666666" points="2075,-569 1981,-569 1981,-550 2075,-550 2075,-569"/>
<text text-anchor="middle" x="2028" y="-557" font-family="Helvetica,sans-Serif" font-size="10.00">includes/table.h</text>
</a>
</g>
</g>
<!-- Node19&#45;&gt;Node104 -->
<g id="edge167" class="edge">
<title>Node19&#45;&gt;Node104</title>
<path fill="none" stroke="#63b8ff" d="M1950.49,-901.53C1972.61,-894.99 1998.46,-884.01 2016,-866 2037.05,-844.39 2040,-832.67 2040,-802.5 2040,-802.5 2040,-802.5 2040,-679.5 2040,-644.64 2034.84,-604.31 2031.29,-580.69"/>
<polygon fill="#63b8ff" stroke="#63b8ff" points="2034.76,-580.26 2029.75,-570.92 2027.84,-581.34 2034.76,-580.26"/>
</g>
<!-- Node21&#45;&gt;Node2 -->
<g id="edge41" class="edge">
<title>Node21&#45;&gt;Node2</title>
<path fill="none" stroke="#63b8ff" d="M1558.18,-365.96C1504.75,-359.6 1429.93,-347.33 1409,-327 1381.08,-299.89 1407.86,-275.47 1388,-242 1358.46,-192.22 1245.36,-96.23 1196,-66 1166.97,-48.22 1130.6,-35.14 1103.07,-26.83"/>
<polygon fill="#63b8ff" stroke="#63b8ff" points="1104.28,-23.54 1093.7,-24.09 1102.32,-30.25 1104.28,-23.54"/>
</g>
<!-- Node21&#45;&gt;Node3 -->
<g id="edge39" class="edge">
<title>Node21&#45;&gt;Node3</title>
<path fill="none" stroke="#63b8ff" d="M1671.82,-368.46C1768.48,-362.71 1956.5,-348.85 1977,-327 2002.9,-299.4 1961.26,-273.65 1982,-242 1991.83,-227 2254.26,-104.61 2270,-96 2293.07,-83.38 2295.99,-74.12 2321,-66 2411.46,-36.62 2703.89,-21.71 2804.01,-17.37"/>
<polygon fill="#63b8ff" stroke="#63b8ff" points="2804.15,-20.87 2813.99,-16.95 2803.85,-13.87 2804.15,-20.87"/>
</g>
<!-- Node21&#45;&gt;Node5 -->
<g id="edge48" class="edge">
<title>Node21&#45;&gt;Node5</title>
<path fill="none" stroke="#63b8ff" d="M1671.69,-368.5C1765.66,-362.96 1949.37,-349.58 2010,-327 2072.61,-303.68 2072.68,-268.53 2134,-242 2179.55,-222.29 2234.77,-210.91 2276.11,-204.61"/>
<polygon fill="#63b8ff" stroke="#63b8ff" points="2276.49,-208.09 2285.88,-203.18 2275.48,-201.16 2276.49,-208.09"/>
</g>
<!-- Node21&#45;&gt;Node7 -->
<g id="edge46" class="edge">
<title>Node21&#45;&gt;Node7</title>
<path fill="none" stroke="#63b8ff" d="M1558.11,-368.98C1497.63,-364.91 1399.87,-354.35 1320,-327 1147.43,-267.92 964.2,-141.63 903.14,-97.56"/>
<polygon fill="#63b8ff" stroke="#63b8ff" points="905.48,-94.93 895.33,-91.88 901.36,-100.59 905.48,-94.93"/>
</g>
<!-- Node21&#45;&gt;Node18 -->
<g id="edge43" class="edge">
<title>Node21&#45;&gt;Node18</title>
<path fill="none" stroke="#63b8ff" d="M1558.2,-368.82C1366.56,-359.76 744.91,-330.4 551.19,-321.25"/>
<polygon fill="#63b8ff" stroke="#63b8ff" points="551.53,-317.76 541.37,-320.78 551.2,-324.75 551.53,-317.76"/>
</g>
<!-- Node22 -->
<g id="node22" class="node">
<title>Node22</title>
<g id="a_node22"><a xlink:title=" ">
<polygon fill="#e0e0e0" stroke="#999999" points="1542,-327 1492,-327 1492,-308 1542,-308 1542,-327"/>
<text text-anchor="middle" x="1517" y="-315" font-family="Helvetica,sans-Serif" font-size="10.00">cstring</text>
</a>
</g>
</g>
<!-- Node21&#45;&gt;Node22 -->
<g id="edge40" class="edge">
<title>Node21&#45;&gt;Node22</title>
<path fill="none" stroke="#63b8ff" d="M1598.38,-362.51C1583.22,-354.31 1560.58,-342.07 1543.03,-332.58"/>
<polygon fill="#63b8ff" stroke="#63b8ff" points="1545.17,-329.76 1534.71,-328.08 1541.84,-335.91 1545.17,-329.76"/>
</g>
<!-- Node23 -->
<g id="node23" class="node">
<title>Node23</title>
<g id="a_node23"><a xlink:title=" ">
<polygon fill="#e0e0e0" stroke="#999999" points="1790,-327 1752,-327 1752,-308 1790,-308 1790,-327"/>
<text text-anchor="middle" x="1771" y="-315" font-family="Helvetica,sans-Serif" font-size="10.00">map</text>
</a>
</g>
</g>
<!-- Node21&#45;&gt;Node23 -->
<g id="edge42" class="edge">
<title>Node21&#45;&gt;Node23</title>
<path fill="none" stroke="#63b8ff" d="M1641.46,-362.51C1669.09,-353.12 1712.33,-338.43 1741.16,-328.64"/>
<polygon fill="#63b8ff" stroke="#63b8ff" points="1742.03,-332.04 1750.37,-325.51 1739.78,-325.41 1742.03,-332.04"/>
</g>
<!-- Node24 -->
<g id="node24" class="node">
<title>Node24</title>
<g id="a_node24"><a xlink:title=" ">
<polygon fill="#e0e0e0" stroke="#999999" points="1592,-327 1560,-327 1560,-308 1592,-308 1592,-327"/>
<text text-anchor="middle" x="1576" y="-315" font-family="Helvetica,sans-Serif" font-size="10.00">set</text>
</a>
</g>
</g>
<!-- Node21&#45;&gt;Node24 -->
<g id="edge44" class="edge">
<title>Node21&#45;&gt;Node24</title>
<path fill="none" stroke="#63b8ff" d="M1608.56,-362.75C1603.34,-355.66 1595.81,-345.42 1589.31,-336.59"/>
<polygon fill="#63b8ff" stroke="#63b8ff" points="1592.22,-334.64 1583.48,-328.66 1586.58,-338.79 1592.22,-334.64"/>
</g>
<!-- Node25 -->
<g id="node25" class="node">
<title>Node25</title>
<g id="a_node25"><a xlink:title=" ">
<polygon fill="#e0e0e0" stroke="#999999" points="1696,-327 1610,-327 1610,-308 1696,-308 1696,-327"/>
<text text-anchor="middle" x="1653" y="-315" font-family="Helvetica,sans-Serif" font-size="10.00">unordered_set</text>
</a>
</g>
</g>
<!-- Node21&#45;&gt;Node25 -->
<g id="edge45" class="edge">
<title>Node21&#45;&gt;Node25</title>
<path fill="none" stroke="#63b8ff" d="M1621.27,-362.75C1626.36,-355.66 1633.7,-345.42 1640.03,-336.59"/>
<polygon fill="#63b8ff" stroke="#63b8ff" points="1642.72,-338.84 1645.71,-328.67 1637.04,-334.76 1642.72,-338.84"/>
</g>
<!-- Node26 -->
<g id="node26" class="node">
<title>Node26</title>
<g id="a_node26"><a xlink:title=" ">
<polygon fill="#e0e0e0" stroke="#999999" points="1473.5,-327 1418.5,-327 1418.5,-308 1473.5,-308 1473.5,-327"/>
<text text-anchor="middle" x="1446" y="-315" font-family="Helvetica,sans-Serif" font-size="10.00">fstream</text>
</a>
</g>
</g>
<!-- Node21&#45;&gt;Node26 -->
<g id="edge47" class="edge">
<title>Node21&#45;&gt;Node26</title>
<path fill="none" stroke="#63b8ff" d="M1586.33,-362.51C1558.4,-353.75 1515.74,-340.37 1484.79,-330.66"/>
<polygon fill="#63b8ff" stroke="#63b8ff" points="1486,-327.38 1475.41,-327.72 1483.9,-334.05 1486,-327.38"/>
</g>
<!-- Node27 -->
<g id="node27" class="node">
<title>Node27</title>
<g id="a_node27"><a xlink:href="../../d9/da0/flags_8h.html" target="_top" xlink:title=" ">
<polygon fill="white" stroke="#666666" points="2849.5,-327 2746.5,-327 2746.5,-308 2849.5,-308 2849.5,-327"/>
<text text-anchor="middle" x="2798" y="-315" font-family="Helvetica,sans-Serif" font-size="10.00">containers/flags.h</text>
</a>
</g>
</g>
<!-- Node21&#45;&gt;Node27 -->
<g id="edge49" class="edge">
<title>Node21&#45;&gt;Node27</title>
<path fill="none" stroke="#63b8ff" d="M1671.66,-368.96C1869.33,-360.11 2527.62,-330.61 2734.92,-321.33"/>
<polygon fill="#63b8ff" stroke="#63b8ff" points="2734.85,-324.83 2744.68,-320.89 2734.53,-317.84 2734.85,-324.83"/>
</g>
<!-- Node28 -->
<g id="node28" class="node">
<title>Node28</title>
<g id="a_node28"><a xlink:href="../../d9/d3e/ublas__interface_8h.html" target="_top" xlink:title=" ">
<polygon fill="#fff0f0" stroke="red" points="1892,-266.5 1748,-266.5 1748,-247.5 1892,-247.5 1892,-266.5"/>
<text text-anchor="middle" x="1820" y="-254.5" font-family="Helvetica,sans-Serif" font-size="10.00">includes/ublas_interface.h</text>
</a>
</g>
</g>
<!-- Node21&#45;&gt;Node28 -->
<g id="edge53" class="edge">
<title>Node21&#45;&gt;Node28</title>
<path fill="none" stroke="#63b8ff" d="M1634.19,-362.57C1652.57,-353.88 1680.98,-340.12 1705,-327 1737.25,-309.39 1773.45,-287.27 1796.46,-272.89"/>
<polygon fill="#63b8ff" stroke="#63b8ff" points="1798.16,-275.96 1804.77,-267.68 1794.44,-270.03 1798.16,-275.96"/>
</g>
<!-- Node44 -->
<g id="node29" class="node">
<title>Node44</title>
<g id="a_node29"><a xlink:href="../../d9/d36/array__1d_8h.html" target="_top" xlink:title=" ">
<polygon fill="#fff0f0" stroke="red" points="1968,-327 1846,-327 1846,-308 1968,-308 1968,-327"/>
<text text-anchor="middle" x="1907" y="-315" font-family="Helvetica,sans-Serif" font-size="10.00">containers/array_1d.h</text>
</a>
</g>
</g>
<!-- Node21&#45;&gt;Node44 -->
<g id="edge57" class="edge">
<title>Node21&#45;&gt;Node44</title>
<path fill="none" stroke="#63b8ff" d="M1664.53,-362.51C1714.82,-353.38 1792.73,-339.24 1846.6,-329.46"/>
<polygon fill="#63b8ff" stroke="#63b8ff" points="1847.01,-332.95 1856.22,-327.72 1845.76,-326.06 1847.01,-332.95"/>
</g>
<!-- Node49 -->
<g id="node30" class="node">
<title>Node49</title>
<g id="a_node30"><a xlink:href="../../d5/d10/weak__pointer__vector_8h.html" target="_top" xlink:title=" ">
<polygon fill="#fff0f0" stroke="red" points="1379.5,-272 1242.5,-272 1242.5,-242 1379.5,-242 1379.5,-272"/>
<text text-anchor="start" x="1250.5" y="-260" font-family="Helvetica,sans-Serif" font-size="10.00">containers/weak_pointer</text>
<text text-anchor="middle" x="1311" y="-249" font-family="Helvetica,sans-Serif" font-size="10.00">_vector.h</text>
</a>
</g>
</g>
<!-- Node21&#45;&gt;Node49 -->
<g id="edge63" class="edge">
<title>Node21&#45;&gt;Node49</title>
<path fill="none" stroke="#63b8ff" d="M1558.1,-368.91C1487.1,-364.6 1370.99,-353.6 1338,-327 1324.8,-316.36 1318.04,-298.39 1314.58,-283.46"/>
<polygon fill="#63b8ff" stroke="#63b8ff" points="1318.05,-282.98 1312.74,-273.82 1311.18,-284.3 1318.05,-282.98"/>
</g>
<!-- Node21&#45;&gt;Node53 -->
<g id="edge69" class="edge">
<title>Node21&#45;&gt;Node53</title>
<path fill="none" stroke="#63b8ff" d="M1558.13,-365.93C1458.82,-356.2 1254.06,-336.14 1145.39,-325.49"/>
<polygon fill="#63b8ff" stroke="#63b8ff" points="1146.02,-322.04 1135.72,-324.55 1145.34,-329.01 1146.02,-322.04"/>
</g>
<!-- Node27&#45;&gt;Node2 -->
<g id="edge51" class="edge">
<title>Node27&#45;&gt;Node2</title>
<path fill="none" stroke="#63b8ff" d="M2789.48,-307.71C2773.53,-291.82 2737.36,-258.44 2700,-242 2574.32,-186.7 2532.3,-203.58 2396,-187 2144.46,-156.39 2076.75,-193.8 1827,-151 1804.92,-147.22 1652.95,-106.19 1633,-96 1613.84,-86.21 1614.98,-74 1595,-66 1505.81,-30.28 1213.04,-19.64 1103.69,-16.87"/>
<polygon fill="#63b8ff" stroke="#63b8ff" points="1103.78,-13.37 1093.7,-16.63 1103.61,-20.37 1103.78,-13.37"/>
</g>
<!-- Node27&#45;&gt;Node3 -->
<g id="edge50" class="edge">
<title>Node27&#45;&gt;Node3</title>
<path fill="none" stroke="#63b8ff" d="M2829.91,-307.59C2875.02,-292.82 2952,-258.66 2952,-197.5 2952,-197.5 2952,-197.5 2952,-140.5 2952,-89.51 2899.33,-50.32 2865.6,-30.44"/>
<polygon fill="#63b8ff" stroke="#63b8ff" points="2867.56,-27.53 2857.13,-25.65 2864.11,-33.62 2867.56,-27.53"/>
</g>
<!-- Node27&#45;&gt;Node5 -->
<g id="edge52" class="edge">
<title>Node27&#45;&gt;Node5</title>
<path fill="none" stroke="#63b8ff" d="M2779.2,-307.6C2761.21,-298.95 2733.41,-285.2 2710,-272 2688.09,-259.64 2685.65,-250.56 2662,-242 2614.79,-224.91 2478.43,-210.25 2398.12,-202.78"/>
<polygon fill="#63b8ff" stroke="#63b8ff" points="2398.49,-199.3 2388.21,-201.87 2397.85,-206.27 2398.49,-199.3"/>
</g>
<!-- Node28&#45;&gt;Node2 -->
<g id="edge55" class="edge">
<title>Node28&#45;&gt;Node2</title>
<path fill="none" stroke="#63b8ff" d="M1788.4,-247.05C1739.45,-233.32 1642.26,-206.6 1559,-187 1482.13,-168.9 1451.71,-193.26 1385,-151 1345.05,-125.69 1361.11,-91.04 1321,-66 1253.32,-23.75 1157.81,-15.85 1103.69,-15.11"/>
<polygon fill="#63b8ff" stroke="#63b8ff" points="1104,-11.61 1093.99,-15.06 1103.97,-18.61 1104,-11.61"/>
</g>
<!-- Node28&#45;&gt;Node3 -->
<g id="edge54" class="edge">
<title>Node28&#45;&gt;Node3</title>
<path fill="none" stroke="#63b8ff" d="M1843.66,-247.07C1889.28,-229.69 1992.37,-189.62 2077,-151 2153.13,-116.26 2164.49,-88.82 2245,-66 2351.47,-35.82 2694.99,-21.14 2804.28,-17.15"/>
<polygon fill="#63b8ff" stroke="#63b8ff" points="2804.18,-20.65 2814.04,-16.8 2803.93,-13.66 2804.18,-20.65"/>
</g>
<!-- Node28&#45;&gt;Node5 -->
<g id="edge56" class="edge">
<title>Node28&#45;&gt;Node5</title>
<path fill="none" stroke="#63b8ff" d="M1892.43,-247.8C1994.84,-236.22 2180.14,-215.25 2275.96,-204.41"/>
<polygon fill="#63b8ff" stroke="#63b8ff" points="2276.14,-207.91 2285.68,-203.31 2275.35,-200.95 2276.14,-207.91"/>
</g>
<!-- Node44&#45;&gt;Node2 -->
<g id="edge59" class="edge">
<title>Node44&#45;&gt;Node2</title>
<path fill="none" stroke="#63b8ff" d="M1871.13,-307.57C1837.01,-298.94 1784.32,-285.26 1739,-272 1570.11,-222.57 1518.94,-230.61 1362,-151 1304.68,-121.92 1302.95,-93.81 1245,-66 1198.99,-43.91 1141.62,-30.25 1103.51,-22.9"/>
<polygon fill="#63b8ff" stroke="#63b8ff" points="1104.29,-19.48 1093.82,-21.09 1103.01,-26.36 1104.29,-19.48"/>
</g>
<!-- Node44&#45;&gt;Node3 -->
<g id="edge58" class="edge">
<title>Node44&#45;&gt;Node3</title>
<path fill="none" stroke="#63b8ff" d="M1909.42,-307.62C1913.94,-292.47 1924.97,-261.37 1944,-242 1945.86,-240.11 2280.45,-66.74 2283,-66 2381.81,-37.12 2699.91,-21.7 2804.4,-17.32"/>
<polygon fill="#63b8ff" stroke="#63b8ff" points="2804.42,-20.82 2814.26,-16.92 2804.13,-13.83 2804.42,-20.82"/>
</g>
<!-- Node44&#45;&gt;Node4 -->
<g id="edge60" class="edge">
<title>Node44&#45;&gt;Node4</title>
<path fill="none" stroke="#63b8ff" d="M1968.08,-313.97C2206.26,-304.09 3069.58,-268.3 3274.26,-259.81"/>
<polygon fill="#63b8ff" stroke="#63b8ff" points="3274.34,-263.31 3284.19,-259.4 3274.05,-256.32 3274.34,-263.31"/>
</g>
<!-- Node44&#45;&gt;Node5 -->
<g id="edge61" class="edge">
<title>Node44&#45;&gt;Node5</title>
<path fill="none" stroke="#63b8ff" d="M1926.16,-307.51C1959.82,-292.05 2032.09,-260.31 2096,-242 2156.21,-224.75 2226.86,-212.62 2276.03,-205.43"/>
<polygon fill="#63b8ff" stroke="#63b8ff" points="2276.53,-208.9 2285.93,-204.01 2275.54,-201.97 2276.53,-208.9"/>
</g>
<!-- Node44&#45;&gt;Node28 -->
<g id="edge62" class="edge">
<title>Node44&#45;&gt;Node28</title>
<path fill="none" stroke="#63b8ff" d="M1893.79,-307.62C1880.25,-298.51 1858.93,-284.18 1842.68,-273.25"/>
<polygon fill="#63b8ff" stroke="#63b8ff" points="1844.85,-270.49 1834.59,-267.81 1840.94,-276.3 1844.85,-270.49"/>
</g>
<!-- Node49&#45;&gt;Node2 -->
<g id="edge65" class="edge">
<title>Node49&#45;&gt;Node2</title>
<path fill="none" stroke="#63b8ff" d="M1300.94,-241.72C1271.39,-199.89 1185.85,-79.71 1169,-66 1148.96,-49.69 1122.71,-37.32 1101.24,-28.96"/>
<polygon fill="#63b8ff" stroke="#63b8ff" points="1102.51,-25.7 1091.91,-25.49 1100.06,-32.26 1102.51,-25.7"/>
</g>
<!-- Node49&#45;&gt;Node3 -->
<g id="edge64" class="edge">
<title>Node49&#45;&gt;Node3</title>
<path fill="none" stroke="#63b8ff" d="M1363.24,-241.57C1422.05,-225.85 1520.68,-201.07 1607,-187 1774.87,-159.63 1825.44,-201.02 1988,-151 2036.48,-136.08 2044.92,-122.77 2088,-96 2107.79,-83.7 2109.03,-73.77 2131,-66 2257.45,-21.29 2681.19,-16.47 2804.23,-16.02"/>
<polygon fill="#63b8ff" stroke="#63b8ff" points="2804,-19.52 2813.99,-16 2803.98,-12.52 2804,-19.52"/>
</g>
<!-- Node49&#45;&gt;Node5 -->
<g id="edge68" class="edge">
<title>Node49&#45;&gt;Node5</title>
<path fill="none" stroke="#63b8ff" d="M1379.75,-243.75C1384.57,-243.09 1389.35,-242.5 1394,-242 1725.54,-206.35 2125.7,-199.26 2276.02,-197.85"/>
<polygon fill="#63b8ff" stroke="#63b8ff" points="2275.77,-201.35 2285.74,-197.76 2275.71,-194.35 2275.77,-201.35"/>
</g>
<!-- Node49&#45;&gt;Node7 -->
<g id="edge66" class="edge">
<title>Node49&#45;&gt;Node7</title>
<path fill="none" stroke="#63b8ff" d="M1282.38,-241.66C1233.18,-217.32 1129.06,-167.14 1038,-132 998.72,-116.84 952.7,-102.49 920.87,-93.09"/>
<polygon fill="#63b8ff" stroke="#63b8ff" points="922.27,-89.85 911.69,-90.4 920.3,-96.57 922.27,-89.85"/>
</g>
<!-- Node49&#45;&gt;Node14 -->
<g id="edge67" class="edge">
<title>Node49&#45;&gt;Node14</title>
<path fill="none" stroke="#63b8ff" d="M1242.01,-249.59C1082.05,-233.65 674.4,-186.79 345,-96 280.94,-78.34 209.33,-47.54 170.29,-29.75"/>
<polygon fill="#63b8ff" stroke="#63b8ff" points="171.87,-26.62 161.32,-25.62 168.95,-32.98 171.87,-26.62"/>
</g>
<!-- Node53&#45;&gt;Node2 -->
<g id="edge71" class="edge">
<title>Node53&#45;&gt;Node2</title>
<path fill="none" stroke="#63b8ff" d="M1072.48,-307.57C1069.25,-287.81 1062,-238.82 1062,-197.5 1062,-197.5 1062,-197.5 1062,-140.5 1062,-103.67 1062,-60.72 1062,-36.11"/>
<polygon fill="#63b8ff" stroke="#63b8ff" points="1065.5,-36.27 1062,-26.27 1058.5,-36.27 1065.5,-36.27"/>
</g>
<!-- Node53&#45;&gt;Node3 -->
<g id="edge70" class="edge">
<title>Node53&#45;&gt;Node3</title>
<path fill="none" stroke="#63b8ff" d="M1134.32,-308.81C1197.64,-300.53 1300.01,-286.58 1388,-272 1672.3,-224.88 1754.04,-249.11 2025,-151 2072.33,-133.86 2080.89,-121.99 2124,-96 2144.9,-83.4 2146.88,-73.82 2170,-66 2289.43,-25.59 2685.76,-17.76 2804.25,-16.32"/>
<polygon fill="#63b8ff" stroke="#63b8ff" points="2804.29,-19.81 2814.25,-16.2 2804.21,-12.82 2804.29,-19.81"/>
</g>
<!-- Node53&#45;&gt;Node13 -->
<g id="edge72" class="edge">
<title>Node53&#45;&gt;Node13</title>
<path fill="none" stroke="#63b8ff" d="M1082.43,-307.51C1097.24,-292.2 1129.43,-260.86 1162,-242 1239.05,-197.39 1339.19,-168.68 1399.65,-154.08"/>
<polygon fill="#63b8ff" stroke="#63b8ff" points="1400.43,-157.49 1409.36,-151.78 1398.82,-150.68 1400.43,-157.49"/>
</g>
<!-- Node57&#45;&gt;Node2 -->
<g id="edge75" class="edge">
<title>Node57&#45;&gt;Node2</title>
<path fill="none" stroke="#63b8ff" d="M1821.9,-670.58C1747.85,-637.95 1499.44,-516.97 1409,-327 1405.37,-319.38 1406.44,-316.05 1409,-308 1434.88,-226.56 1491.91,-231.71 1520,-151 1532.43,-115.3 1548.25,-94.13 1523,-66 1495.24,-35.07 1212.28,-21.5 1103.92,-17.42"/>
<polygon fill="#63b8ff" stroke="#63b8ff" points="1104.12,-13.92 1094,-17.05 1103.86,-20.92 1104.12,-13.92"/>
</g>
<!-- Node57&#45;&gt;Node3 -->
<g id="edge74" class="edge">
<title>Node57&#45;&gt;Node3</title>
<path fill="none" stroke="#63b8ff" d="M1908.79,-678.64C2137.57,-675.39 2886.96,-662.69 2930,-635 2965.6,-612.09 2952.89,-587.26 2973,-550 3029.36,-445.58 3106,-437.16 3106,-318.5 3106,-318.5 3106,-318.5 3106,-140.5 3106,-38.2 2943.41,-19.73 2871.51,-16.56"/>
<polygon fill="#63b8ff" stroke="#63b8ff" points="2872.02,-13.08 2861.9,-16.22 2871.77,-20.08 2872.02,-13.08"/>
</g>
<!-- Node57&#45;&gt;Node5 -->
<g id="edge78" class="edge">
<title>Node57&#45;&gt;Node5</title>
<path fill="none" stroke="#63b8ff" d="M1857.76,-670.61C1883.46,-655.44 1938.42,-624.31 1988,-605 2120.21,-553.51 2177.99,-595.69 2294,-514 2376.97,-455.58 2396.58,-424.41 2425,-327 2435.59,-290.71 2448.02,-274.07 2428,-242 2418.68,-227.07 2402.74,-217.01 2386.78,-210.3"/>
<polygon fill="#63b8ff" stroke="#63b8ff" points="2388.37,-207.16 2377.77,-206.89 2385.89,-213.7 2388.37,-207.16"/>
</g>
<!-- Node57&#45;&gt;Node7 -->
<g id="edge76" class="edge">
<title>Node57&#45;&gt;Node7</title>
<path fill="none" stroke="#63b8ff" d="M1777.1,-680.28C1620.3,-680.37 1238,-669.42 1238,-560.5 1238,-560.5 1238,-560.5 1238,-498 1238,-388.54 1126.74,-417.84 1032,-363 1001.38,-345.28 988.02,-349.84 961,-327 931.88,-302.38 910,-296.13 910,-258 910,-258 910,-258 910,-195.5 910,-161.76 898.2,-123.99 889.92,-101.64"/>
<polygon fill="#63b8ff" stroke="#63b8ff" points="893.19,-100.41 886.32,-92.35 886.66,-102.94 893.19,-100.41"/>
</g>
<!-- Node57&#45;&gt;Node20 -->
<g id="edge77" class="edge">
<title>Node57&#45;&gt;Node20</title>
<path fill="none" stroke="#63b8ff" d="M1777.24,-677.87C1627.74,-673.72 1271.54,-661.19 1224,-635 1119.05,-577.17 1150.78,-500.63 1064,-418 1051.95,-406.53 1036.6,-396.09 1023.64,-388.22"/>
<polygon fill="#63b8ff" stroke="#63b8ff" points="1025.56,-385.29 1015.17,-383.25 1022.02,-391.33 1025.56,-385.29"/>
</g>
<!-- Node57&#45;&gt;Node27 -->
<g id="edge104" class="edge">
<title>Node57&#45;&gt;Node27</title>
<path fill="none" stroke="#63b8ff" d="M1908.88,-674.73C2063.09,-662.7 2442.93,-627.83 2555,-569 2666.62,-510.4 2660.39,-451.68 2750,-363 2759.69,-353.41 2770.84,-343.03 2779.96,-334.71"/>
<polygon fill="#63b8ff" stroke="#63b8ff" points="2782.08,-337.51 2787.14,-328.2 2777.38,-332.32 2782.08,-337.51"/>
</g>
<!-- Node57&#45;&gt;Node58 -->
<g id="edge79" class="edge">
<title>Node57&#45;&gt;Node58</title>
<path fill="none" stroke="#63b8ff" d="M1795.27,-670.55C1744.6,-661.05 1663.84,-645.91 1604.92,-634.86"/>
<polygon fill="#63b8ff" stroke="#63b8ff" points="1605.78,-631.46 1595.31,-633.06 1604.49,-638.34 1605.78,-631.46"/>
</g>
<!-- Node58&#45;&gt;Node2 -->
<g id="edge81" class="edge">
<title>Node58&#45;&gt;Node2</title>
<path fill="none" stroke="#63b8ff" d="M1503.44,-604.65C1485.79,-595.15 1462.59,-582.06 1443,-569 1409.79,-546.86 1403.36,-538.69 1372,-514 1318.33,-471.75 1310.66,-452.98 1252,-418 1216.76,-396.99 1204.25,-399.18 1167,-382 1149.85,-374.09 1146.7,-369.58 1129,-363 1067.97,-340.31 1038.74,-366.52 987,-327 959.01,-305.62 948,-293.23 948,-258 948,-258 948,-258 948,-140.5 948,-89.51 1000.67,-50.32 1034.4,-30.44"/>
<polygon fill="#63b8ff" stroke="#63b8ff" points="1035.89,-33.62 1042.87,-25.65 1032.44,-27.53 1035.89,-33.62"/>
</g>
<!-- Node58&#45;&gt;Node3 -->
<g id="edge80" class="edge">
<title>Node58&#45;&gt;Node3</title>
<path fill="none" stroke="#63b8ff" d="M1593.87,-618.03C1786.85,-614.73 2368.94,-602.21 2555,-569 2635.26,-554.67 2653.72,-542.78 2730,-514 2906.32,-447.48 3068,-446.45 3068,-258 3068,-258 3068,-258 3068,-140.5 3068,-52.23 2935.37,-26.23 2871.54,-18.82"/>
<polygon fill="#63b8ff" stroke="#63b8ff" points="2872.29,-15.38 2861.98,-17.81 2871.55,-22.35 2872.29,-15.38"/>
</g>
<!-- Node58&#45;&gt;Node5 -->
<g id="edge84" class="edge">
<title>Node58&#45;&gt;Node5</title>
<path fill="none" stroke="#63b8ff" d="M1570.75,-604.53C1663.08,-571.01 1899.3,-485.72 2098,-418 2146.69,-401.41 2160.57,-401.91 2208,-382 2211.06,-380.72 2312.04,-329.67 2314,-327 2337.94,-294.44 2339.77,-245.01 2338.62,-217.6"/>
<polygon fill="#63b8ff" stroke="#63b8ff" points="2342.13,-217.66 2338.02,-207.89 2335.15,-218.09 2342.13,-217.66"/>
</g>
<!-- Node58&#45;&gt;Node13 -->
<g id="edge103" class="edge">
<title>Node58&#45;&gt;Node13</title>
<path fill="none" stroke="#63b8ff" d="M1511.2,-604.56C1454.35,-561.7 1290.93,-428.37 1233,-272 1228.37,-259.5 1225.77,-253.2 1233,-242 1253.56,-210.13 1354.96,-173.61 1412.65,-154.93"/>
<polygon fill="#63b8ff" stroke="#63b8ff" points="1413.67,-158.28 1422.13,-151.9 1411.54,-151.61 1413.67,-158.28"/>
</g>
<!-- Node58&#45;&gt;Node14 -->
<g id="edge83" class="edge">
<title>Node58&#45;&gt;Node14</title>
<path fill="none" stroke="#63b8ff" d="M1468.04,-614.72C1225.54,-596.88 356.47,-520.24 176,-327 102.32,-248.11 117.87,-202.62 101,-96 98.92,-82.83 96.59,-78.58 101,-66 105.42,-53.41 114.48,-41.64 122.87,-32.68"/>
<polygon fill="#63b8ff" stroke="#63b8ff" points="125.15,-35.35 129.76,-25.81 120.2,-30.39 125.15,-35.35"/>
</g>
<!-- Node58&#45;&gt;Node20 -->
<g id="edge82" class="edge">
<title>Node58&#45;&gt;Node20</title>
<path fill="none" stroke="#63b8ff" d="M1468.35,-612.95C1420.5,-606.57 1353.84,-593.84 1300,-569 1199.51,-522.63 1197.7,-473.58 1102,-418 1080.23,-405.36 1054.18,-394.29 1033.48,-386.36"/>
<polygon fill="#63b8ff" stroke="#63b8ff" points="1034.9,-383.16 1024.31,-382.93 1032.45,-389.71 1034.9,-383.16"/>
</g>
<!-- Node58&#45;&gt;Node59 -->
<g id="edge85" class="edge">
<title>Node58&#45;&gt;Node59</title>
<path fill="none" stroke="#63b8ff" d="M1593.85,-616.17C1718.58,-610.09 1993.22,-594.25 2084,-569 2095.86,-565.7 2160.98,-533.07 2198.78,-513.88"/>
<polygon fill="#63b8ff" stroke="#63b8ff" points="2199.98,-517.2 2207.31,-509.55 2196.81,-510.96 2199.98,-517.2"/>
</g>
<!-- Node62 -->
<g id="node36" class="node">
<title>Node62</title>
<g id="a_node36"><a xlink:href="../../dc/d8e/kratos__components_8h.html" target="_top" xlink:title=" ">
<polygon fill="#fff0f0" stroke="red" points="2545.5,-569 2380.5,-569 2380.5,-550 2545.5,-550 2545.5,-569"/>
<text text-anchor="middle" x="2463" y="-557" font-family="Helvetica,sans-Serif" font-size="10.00">includes/kratos_components.h</text>
</a>
</g>
</g>
<!-- Node58&#45;&gt;Node62 -->
<g id="edge96" class="edge">
<title>Node58&#45;&gt;Node62</title>
<path fill="none" stroke="#63b8ff" d="M1593.96,-615.05C1754.36,-604.98 2179.03,-578.32 2368.92,-566.4"/>
<polygon fill="#63b8ff" stroke="#63b8ff" points="2368.99,-569.91 2378.75,-565.79 2368.55,-562.92 2368.99,-569.91"/>
</g>
<!-- Node59&#45;&gt;Node2 -->
<g id="edge87" class="edge">
<title>Node59&#45;&gt;Node2</title>
<path fill="none" stroke="#63b8ff" d="M2203.95,-489.1C2160.3,-471.93 2059.49,-434.48 1971,-418 1663.44,-360.71 1542.01,-486.71 1273,-327 1155.13,-257.02 1088.62,-92.45 1068.55,-35.67"/>
<polygon fill="#63b8ff" stroke="#63b8ff" points="1071.94,-34.74 1065.38,-26.42 1065.32,-37.02 1071.94,-34.74"/>
</g>
<!-- Node59&#45;&gt;Node3 -->
<g id="edge86" class="edge">
<title>Node59&#45;&gt;Node3</title>
<path fill="none" stroke="#63b8ff" d="M2259.4,-489.03C2293.15,-479.71 2346.66,-464.23 2392,-448 2415.91,-439.44 2793.56,-287.09 2814,-272 2848.66,-246.42 2876,-240.58 2876,-197.5 2876,-197.5 2876,-197.5 2876,-140.5 2876,-101.66 2858.87,-58.85 2847.61,-34.91"/>
<polygon fill="#63b8ff" stroke="#63b8ff" points="2850.86,-33.59 2843.32,-26.14 2844.57,-36.66 2850.86,-33.59"/>
</g>
<!-- Node59&#45;&gt;Node5 -->
<g id="edge88" class="edge">
<title>Node59&#45;&gt;Node5</title>
<path fill="none" stroke="#63b8ff" d="M2242.14,-489.07C2279.71,-467.24 2372.5,-407.06 2408,-327 2423.31,-292.46 2427.4,-275 2409,-242 2401.36,-228.29 2387.57,-218.28 2374.08,-211.26"/>
<polygon fill="#63b8ff" stroke="#63b8ff" points="2375.84,-208.22 2365.31,-207.12 2372.85,-214.55 2375.84,-208.22"/>
</g>
<!-- Node59&#45;&gt;Node16 -->
<g id="edge95" class="edge">
<title>Node59&#45;&gt;Node16</title>
<path fill="none" stroke="#63b8ff" d="M2166.46,-497.26C1876.89,-493.53 626.52,-475.86 549,-448 442.2,-409.62 404.92,-377.85 364,-272 340.24,-210.55 382.56,-134.32 405.15,-100.11"/>
<polygon fill="#63b8ff" stroke="#63b8ff" points="407.84,-102.38 410.59,-92.15 402.06,-98.44 407.84,-102.38"/>
</g>
<!-- Node59&#45;&gt;Node60 -->
<g id="edge89" class="edge">
<title>Node59&#45;&gt;Node60</title>
<path fill="none" stroke="#63b8ff" d="M2220.99,-489.1C2215.73,-479.74 2207.29,-464.73 2200.54,-452.74"/>
<polygon fill="#63b8ff" stroke="#63b8ff" points="2203.66,-451.14 2195.71,-444.14 2197.56,-454.57 2203.66,-451.14"/>
</g>
<!-- Node60&#45;&gt;Node2 -->
<g id="edge91" class="edge">
<title>Node60&#45;&gt;Node2</title>
<path fill="none" stroke="#63b8ff" d="M2143.77,-426.88C2117.47,-424.05 2083.91,-420.61 2054,-418 1726.52,-389.48 1622.81,-454.93 1320,-327 1277.86,-309.2 1263.62,-305.98 1233,-272 1164.61,-196.1 1196.95,-144.02 1131,-66 1119.01,-51.82 1102.19,-39.52 1088.16,-30.67"/>
<polygon fill="#63b8ff" stroke="#63b8ff" points="1090.2,-27.82 1079.84,-25.64 1086.58,-33.81 1090.2,-27.82"/>
</g>
<!-- Node60&#45;&gt;Node3 -->
<g id="edge90" class="edge">
<title>Node60&#45;&gt;Node3</title>
<path fill="none" stroke="#63b8ff" d="M2236.35,-425.42C2337.29,-408.2 2568,-351.96 2568,-197.5 2568,-197.5 2568,-197.5 2568,-140.5 2568,-37.33 2732.59,-19.37 2804.76,-16.45"/>
<polygon fill="#63b8ff" stroke="#63b8ff" points="2804.51,-19.96 2814.39,-16.14 2804.28,-12.97 2804.51,-19.96"/>
</g>
<!-- Node60&#45;&gt;Node5 -->
<g id="edge93" class="edge">
<title>Node60&#45;&gt;Node5</title>
<path fill="none" stroke="#63b8ff" d="M2213.79,-423.11C2262.35,-404.42 2370.02,-360.06 2390,-327 2409.54,-294.67 2405.96,-276.24 2390,-242 2384.42,-230.03 2373.87,-220.14 2363.64,-212.75"/>
<polygon fill="#63b8ff" stroke="#63b8ff" points="2365.63,-209.87 2355.36,-207.27 2361.77,-215.71 2365.63,-209.87"/>
</g>
<!-- Node60&#45;&gt;Node20 -->
<g id="edge92" class="edge">
<title>Node60&#45;&gt;Node20</title>
<path fill="none" stroke="#63b8ff" d="M2143.6,-429.72C1950.46,-420.25 1212.16,-384.05 1035.26,-375.38"/>
<polygon fill="#63b8ff" stroke="#63b8ff" points="1035.64,-371.89 1025.48,-374.9 1035.29,-378.88 1035.64,-371.89"/>
</g>
<!-- Node60&#45;&gt;Node21 -->
<g id="edge94" class="edge">
<title>Node60&#45;&gt;Node21</title>
<path fill="none" stroke="#63b8ff" d="M2143.74,-427.22C2117.43,-424.51 2083.87,-421.05 2054,-418 1922.72,-404.59 1769.33,-389.08 1683.04,-380.36"/>
<polygon fill="#63b8ff" stroke="#63b8ff" points="1683.64,-376.91 1673.34,-379.38 1682.93,-383.87 1683.64,-376.91"/>
</g>
<!-- Node62&#45;&gt;Node2 -->
<g id="edge98" class="edge">
<title>Node62&#45;&gt;Node2</title>
<path fill="none" stroke="#63b8ff" d="M2456.9,-549.93C2446.16,-535.24 2422.66,-504.81 2398,-484 2355.01,-447.72 2341.39,-440.87 2290,-418 2211.63,-383.12 2188.87,-380.99 2105,-363 1987.49,-337.8 1950.99,-365.09 1837,-327 1825.16,-323.04 1748.71,-279.84 1739,-272 1691.48,-233.62 1611.35,-93.88 1557,-66 1478.19,-25.58 1207.94,-17.83 1103.58,-16.35"/>
<polygon fill="#63b8ff" stroke="#63b8ff" points="1103.84,-12.85 1093.79,-16.22 1103.75,-19.85 1103.84,-12.85"/>
</g>
<!-- Node62&#45;&gt;Node3 -->
<g id="edge97" class="edge">
<title>Node62&#45;&gt;Node3</title>
<path fill="none" stroke="#63b8ff" d="M2521.87,-549.54C2666.58,-523.85 3028,-435.84 3028,-197.5 3028,-197.5 3028,-197.5 3028,-140.5 3028,-66.47 2925.83,-34.06 2871.33,-22.05"/>
<polygon fill="#63b8ff" stroke="#63b8ff" points="2872.15,-18.64 2861.65,-20.03 2870.73,-25.49 2872.15,-18.64"/>
</g>
<!-- Node62&#45;&gt;Node5 -->
<g id="edge100" class="edge">
<title>Node62&#45;&gt;Node5</title>
<path fill="none" stroke="#63b8ff" d="M2468.31,-549.51C2491.52,-508.92 2579.62,-340.41 2504,-242 2496.99,-232.88 2438.45,-218.72 2392.63,-208.83"/>
<polygon fill="#63b8ff" stroke="#63b8ff" points="2393.59,-205.45 2383.08,-206.79 2392.13,-212.3 2393.59,-205.45"/>
</g>
<!-- Node62&#45;&gt;Node23 -->
<g id="edge99" class="edge">
<title>Node62&#45;&gt;Node23</title>
<path fill="none" stroke="#63b8ff" d="M2452.46,-549.63C2422.29,-524.72 2332.11,-453.6 2245,-418 2059.75,-342.28 1998.96,-372.2 1804,-327 1803.02,-326.77 1802.02,-326.54 1801.01,-326.3"/>
<polygon fill="#63b8ff" stroke="#63b8ff" points="1802.17,-322.98 1791.63,-323.97 1800.49,-329.77 1802.17,-322.98"/>
</g>
<!-- Node62&#45;&gt;Node27 -->
<g id="edge101" class="edge">
<title>Node62&#45;&gt;Node27</title>
<path fill="none" stroke="#63b8ff" d="M2472.92,-549.58C2505.54,-520.49 2613.08,-426.62 2712,-363 2729.86,-351.51 2751.04,-340.53 2767.91,-332.34"/>
<polygon fill="#63b8ff" stroke="#63b8ff" points="2769.4,-335.51 2776.93,-328.05 2766.39,-329.19 2769.4,-335.51"/>
</g>
<!-- Node62&#45;&gt;Node59 -->
<g id="edge102" class="edge">
<title>Node62&#45;&gt;Node59</title>
<path fill="none" stroke="#63b8ff" d="M2426.75,-549.55C2385.63,-539.4 2318.43,-522.81 2273.24,-511.66"/>
<polygon fill="#63b8ff" stroke="#63b8ff" points="2274.27,-508.31 2263.72,-509.31 2272.59,-515.1 2274.27,-508.31"/>
</g>
<!-- Node70&#45;&gt;Node2 -->
<g id="edge108" class="edge">
<title>Node70&#45;&gt;Node2</title>
<path fill="none" stroke="#63b8ff" d="M1266.8,-799.22C1187.62,-796.29 1025.49,-786.72 892,-756 627.25,-695.07 477.32,-694.91 364,-448 293.1,-293.51 229.06,-190.31 345,-66 391.2,-16.47 874.78,-14.99 1020.61,-15.68"/>
<polygon fill="#63b8ff" stroke="#63b8ff" points="1020.16,-19.18 1030.18,-15.73 1020.2,-12.18 1020.16,-19.18"/>
</g>
<!-- Node70&#45;&gt;Node3 -->
<g id="edge107" class="edge">
<title>Node70&#45;&gt;Node3</title>
<path fill="none" stroke="#63b8ff" d="M1363.42,-799.16C1569.18,-793.4 2365.56,-770.36 2477,-756 2611.54,-738.67 2643.78,-724.41 2775,-690 2856.33,-668.67 2888.85,-685.6 2956,-635 2991.94,-607.92 2986.3,-587.61 3011,-550 3076.14,-450.82 3144,-437.16 3144,-318.5 3144,-318.5 3144,-318.5 3144,-140.5 3144,-100.37 3126.52,-88.06 3093,-66 3056.88,-42.23 2931.84,-26.02 2871.33,-19.38"/>
<polygon fill="#63b8ff" stroke="#63b8ff" points="2871.95,-15.92 2861.63,-18.34 2871.2,-22.88 2871.95,-15.92"/>
</g>
<!-- Node70&#45;&gt;Node5 -->
<g id="edge111" class="edge">
<title>Node70&#45;&gt;Node5</title>
<path fill="none" stroke="#63b8ff" d="M1320.52,-791.61C1342.12,-757.08 1421.56,-632.36 1459,-605 1668.49,-451.93 1763.77,-493.49 2012,-418 2070.59,-400.18 2087.55,-403.2 2145,-382 2198.53,-362.25 2218.92,-365.53 2261,-327 2295.5,-295.41 2318.98,-244.48 2329.93,-216.84"/>
<polygon fill="#63b8ff" stroke="#63b8ff" points="2333.14,-218.25 2333.43,-207.65 2326.6,-215.75 2333.14,-218.25"/>
</g>
<!-- Node70&#45;&gt;Node7 -->
<g id="edge109" class="edge">
<title>Node70&#45;&gt;Node7</title>
<path fill="none" stroke="#63b8ff" d="M1266.71,-797.44C1183.57,-791.67 1017.07,-777.77 963,-756 750.25,-670.36 719.62,-601.25 549,-448 494.48,-399.03 463.73,-395.23 437,-327 414.89,-270.56 525.89,-268.35 658,-206 708.87,-181.99 722.76,-178.21 772,-151 803,-133.87 837.38,-111.77 859.32,-97.26"/>
<polygon fill="#63b8ff" stroke="#63b8ff" points="861.1,-100.28 867.48,-91.83 857.22,-94.46 861.1,-100.28"/>
</g>
<!-- Node70&#45;&gt;Node20 -->
<g id="edge110" class="edge">
<title>Node70&#45;&gt;Node20</title>
<path fill="none" stroke="#63b8ff" d="M1266.7,-799.73C1190.27,-795.67 1050,-775.43 1050,-681.5 1050,-681.5 1050,-681.5 1050,-498 1050,-457.46 1025.92,-415 1010.22,-391.63"/>
<polygon fill="#63b8ff" stroke="#63b8ff" points="1013.17,-389.75 1004.58,-383.56 1007.43,-393.76 1013.17,-389.75"/>
</g>
<!-- Node70&#45;&gt;Node27 -->
<g id="edge135" class="edge">
<title>Node70&#45;&gt;Node27</title>
<path fill="none" stroke="#63b8ff" d="M1363.36,-799.11C1535.54,-794.02 2118.35,-775.73 2304,-756 2479.68,-737.33 2543.69,-779.53 2696,-690 2819.79,-617.23 2807.69,-405.24 2800.56,-338.72"/>
<polygon fill="#63b8ff" stroke="#63b8ff" points="2804.05,-338.47 2799.42,-328.94 2797.1,-339.28 2804.05,-338.47"/>
</g>
<!-- Node70&#45;&gt;Node58 -->
<g id="edge136" class="edge">
<title>Node70&#45;&gt;Node58</title>
<path fill="none" stroke="#63b8ff" d="M1363.28,-794.05C1392.15,-788.15 1428.12,-776.98 1454,-756 1489.9,-726.9 1512.23,-676.32 1523.08,-646.02"/>
<polygon fill="#63b8ff" stroke="#63b8ff" points="1526.39,-647.15 1526.31,-636.55 1519.76,-644.89 1526.39,-647.15"/>
</g>
<!-- Node71 -->
<g id="node38" class="node">
<title>Node71</title>
<g id="a_node38"><a xlink:href="../../d4/d35/pointer__vector__set_8h.html" target="_top" xlink:title=" ">
<polygon fill="#fff0f0" stroke="red" points="786.5,-448 681.5,-448 681.5,-418 786.5,-418 786.5,-448"/>
<text text-anchor="start" x="689.5" y="-436" font-family="Helvetica,sans-Serif" font-size="10.00">containers/pointer</text>
<text text-anchor="middle" x="734" y="-425" font-family="Helvetica,sans-Serif" font-size="10.00">_vector_set.h</text>
</a>
</g>
</g>
<!-- Node70&#45;&gt;Node71 -->
<g id="edge112" class="edge">
<title>Node70&#45;&gt;Node71</title>
<path fill="none" stroke="#63b8ff" d="M1266.59,-797.53C1192.23,-792.29 1054,-779.65 1011,-756 878.43,-683.08 780.43,-520.2 746.74,-458.41"/>
<polygon fill="#63b8ff" stroke="#63b8ff" points="749.9,-456.9 742.09,-449.75 743.74,-460.21 749.9,-456.9"/>
</g>
<!-- Node70&#45;&gt;Node74 -->
<g id="edge121" class="edge">
<title>Node70&#45;&gt;Node74</title>
<path fill="none" stroke="#63b8ff" d="M1266.74,-798.76C1196.26,-795.26 1069.84,-785.01 1036,-756 1009.59,-733.36 1012,-716.29 1012,-681.5 1012,-681.5 1012,-681.5 1012,-558.5 1012,-505.78 956.81,-471.64 912.3,-452.69"/>
<polygon fill="#63b8ff" stroke="#63b8ff" points="913.82,-449.53 903.23,-448.99 911.17,-456.01 913.82,-449.53"/>
</g>
<!-- Node76 -->
<g id="node40" class="node">
<title>Node76</title>
<g id="a_node40"><a xlink:href="../../d9/d4c/includes_2indexed__object_8h.html" target="_top" xlink:title=" ">
<polygon fill="white" stroke="#666666" points="1859.5,-442.5 1716.5,-442.5 1716.5,-423.5 1859.5,-423.5 1859.5,-442.5"/>
<text text-anchor="middle" x="1788" y="-430.5" font-family="Helvetica,sans-Serif" font-size="10.00">includes/indexed_object.h</text>
</a>
</g>
</g>
<!-- Node70&#45;&gt;Node76 -->
<g id="edge128" class="edge">
<title>Node70&#45;&gt;Node76</title>
<path fill="none" stroke="#63b8ff" d="M1316.26,-791.77C1322.9,-749.36 1357.84,-563.76 1471,-484 1507.7,-458.13 1623.83,-445.02 1704.84,-438.85"/>
<polygon fill="#63b8ff" stroke="#63b8ff" points="1704.8,-442.36 1714.51,-438.14 1704.28,-435.38 1704.8,-442.36"/>
</g>
<!-- Node77 -->
<g id="node41" class="node">
<title>Node77</title>
<g id="a_node41"><a xlink:href="../../d4/d67/geometry_8h.html" target="_top" xlink:title=" ">
<polygon fill="#fff0f0" stroke="red" points="1208,-690 1078,-690 1078,-671 1208,-671 1208,-690"/>
<text text-anchor="middle" x="1143" y="-678" font-family="Helvetica,sans-Serif" font-size="10.00">geometries/geometry.h</text>
</a>
</g>
</g>
<!-- Node70&#45;&gt;Node77 -->
<g id="edge132" class="edge">
<title>Node70&#45;&gt;Node77</title>
<path fill="none" stroke="#63b8ff" d="M1291.37,-791.58C1271.89,-783.68 1243.99,-771.08 1222,-756 1197.57,-739.24 1173.36,-714.98 1158.31,-698.75"/>
<polygon fill="#63b8ff" stroke="#63b8ff" points="1160.91,-696.4 1151.59,-691.35 1155.73,-701.11 1160.91,-696.4"/>
</g>
<!-- Node70&#45;&gt;Node87 -->
<g id="edge137" class="edge">
<title>Node70&#45;&gt;Node87</title>
<path fill="none" stroke="#63b8ff" d="M1363.33,-797.42C1513.95,-787.81 1975.62,-758.36 2157.37,-746.76"/>
<polygon fill="#63b8ff" stroke="#63b8ff" points="2157.4,-750.27 2167.16,-746.14 2156.95,-743.28 2157.4,-750.27"/>
</g>
<!-- Node71&#45;&gt;Node2 -->
<g id="edge115" class="edge">
<title>Node71&#45;&gt;Node2</title>
<path fill="none" stroke="#63b8ff" d="M729.16,-417.8C708.69,-356.54 632.59,-115.71 684,-66 731.2,-20.36 932.24,-15.43 1020.35,-15.52"/>
<polygon fill="#63b8ff" stroke="#63b8ff" points="1020.23,-19.02 1030.24,-15.56 1020.25,-12.02 1020.23,-19.02"/>
</g>
<!-- Node71&#45;&gt;Node3 -->
<g id="edge114" class="edge">
<title>Node71&#45;&gt;Node3</title>
<path fill="none" stroke="#63b8ff" d="M786.79,-419.26C789.56,-418.78 792.31,-418.36 795,-418 1185.18,-365.75 1288.57,-423.84 1680,-382 1821.75,-366.85 1864.38,-381.77 1996,-327 2056.34,-301.89 2059.68,-275.17 2116,-242 2271.53,-150.4 2309.24,-118.28 2482,-66 2597.04,-31.18 2740.47,-20.45 2804.47,-17.27"/>
<polygon fill="#63b8ff" stroke="#63b8ff" points="2804.48,-20.78 2814.31,-16.82 2804.16,-13.79 2804.48,-20.78"/>
</g>
<!-- Node71&#45;&gt;Node5 -->
<g id="edge119" class="edge">
<title>Node71&#45;&gt;Node5</title>
<path fill="none" stroke="#63b8ff" d="M786.79,-419.22C789.56,-418.76 792.31,-418.35 795,-418 1047.91,-385.32 1691.97,-432.19 1942,-382 2009.17,-368.52 2027.05,-361.91 2086,-327 2136.19,-297.28 2134.69,-269.74 2186,-242 2214.23,-226.74 2248.33,-216.12 2276.97,-209.09"/>
<polygon fill="#63b8ff" stroke="#63b8ff" points="2277.66,-212.52 2286.59,-206.82 2276.06,-205.71 2277.66,-212.52"/>
</g>
<!-- Node71&#45;&gt;Node7 -->
<g id="edge116" class="edge">
<title>Node71&#45;&gt;Node7</title>
<path fill="none" stroke="#63b8ff" d="M739.99,-417.85C763.2,-362.94 847.34,-163.97 873.9,-101.15"/>
<polygon fill="#63b8ff" stroke="#63b8ff" points="877.03,-102.74 877.7,-92.16 870.58,-100.01 877.03,-102.74"/>
</g>
<!-- Node71&#45;&gt;Node10 -->
<g id="edge118" class="edge">
<title>Node71&#45;&gt;Node10</title>
<path fill="none" stroke="#63b8ff" d="M723.99,-417.61C699.72,-382.42 636.52,-288.86 592,-206 572.23,-169.21 550.78,-125.32 539.01,-100.86"/>
<polygon fill="#63b8ff" stroke="#63b8ff" points="542.32,-99.68 534.84,-92.17 536.01,-102.71 542.32,-99.68"/>
</g>
<!-- Node71&#45;&gt;Node14 -->
<g id="edge113" class="edge">
<title>Node71&#45;&gt;Node14</title>
<path fill="none" stroke="#63b8ff" d="M714.94,-417.52C682.07,-392.97 612.08,-342.48 548,-308 389.97,-222.96 329.94,-243.22 176,-151 142.66,-131.02 124.74,-131.08 108,-96 97.83,-74.69 112.58,-49.4 125.49,-33.04"/>
<polygon fill="#63b8ff" stroke="#63b8ff" points="127.92,-35.59 131.7,-25.7 122.57,-31.07 127.92,-35.59"/>
</g>
<!-- Node71&#45;&gt;Node20 -->
<g id="edge117" class="edge">
<title>Node71&#45;&gt;Node20</title>
<path fill="none" stroke="#63b8ff" d="M786.89,-419.83C789.64,-419.21 792.35,-418.6 795,-418 852.08,-405.16 918.32,-390.64 958.94,-381.78"/>
<polygon fill="#63b8ff" stroke="#63b8ff" points="959.69,-385.2 968.71,-379.65 958.19,-378.36 959.69,-385.2"/>
</g>
<!-- Node71&#45;&gt;Node21 -->
<g id="edge120" class="edge">
<title>Node71&#45;&gt;Node21</title>
<path fill="none" stroke="#63b8ff" d="M786.8,-419.3C789.56,-418.82 792.31,-418.38 795,-418 1071.69,-379.03 1405.34,-373.65 1546.56,-373.27"/>
<polygon fill="#63b8ff" stroke="#63b8ff" points="1546.5,-376.77 1556.5,-373.25 1546.49,-369.77 1546.5,-376.77"/>
</g>
<!-- Node74&#45;&gt;Node2 -->
<g id="edge124" class="edge">
<title>Node74&#45;&gt;Node2</title>
<path fill="none" stroke="#63b8ff" d="M841.51,-417.68C786.31,-364.98 607.69,-179.09 706,-66 746.33,-19.61 935.38,-15.01 1020.4,-15.35"/>
<polygon fill="#63b8ff" stroke="#63b8ff" points="1020.14,-18.85 1030.16,-15.42 1020.19,-11.85 1020.14,-18.85"/>
</g>
<!-- Node74&#45;&gt;Node3 -->
<g id="edge123" class="edge">
<title>Node74&#45;&gt;Node3</title>
<path fill="none" stroke="#63b8ff" d="M909.66,-430.56C1112.97,-424.85 1840.53,-403.15 1942,-382 1975.53,-375.01 2059.2,-348.34 2086,-327 2121.58,-298.67 2107.53,-270.48 2143,-242 2177.24,-214.51 2194.47,-222.88 2235,-206 2254.29,-197.97 2258.75,-195.13 2278,-187 2410.44,-131.05 2440.1,-106.65 2578,-66 2657.63,-42.52 2754.31,-27.29 2804.35,-20.35"/>
<polygon fill="#63b8ff" stroke="#63b8ff" points="2804.8,-23.82 2814.24,-19 2803.86,-16.88 2804.8,-23.82"/>
</g>
<!-- Node74&#45;&gt;Node5 -->
<g id="edge127" class="edge">
<title>Node74&#45;&gt;Node5</title>
<path fill="none" stroke="#63b8ff" d="M909.88,-432.05C1107.48,-431.89 1802.18,-427.99 2018,-382 2040.44,-377.22 2044.59,-371.25 2066,-363 2108.52,-346.61 2127.38,-356.63 2162,-327 2194.97,-298.79 2176.73,-269.85 2210,-242 2228.78,-226.28 2253.48,-215.97 2276.1,-209.28"/>
<polygon fill="#63b8ff" stroke="#63b8ff" points="2276.83,-212.71 2285.55,-206.68 2274.97,-205.96 2276.83,-212.71"/>
</g>
<!-- Node74&#45;&gt;Node7 -->
<g id="edge125" class="edge">
<title>Node74&#45;&gt;Node7</title>
<path fill="none" stroke="#63b8ff" d="M860.11,-417.75C864.5,-396.32 872,-354.48 872,-318.5 872,-318.5 872,-318.5 872,-195.5 872,-162.61 876.22,-124.56 879.18,-101.93"/>
<polygon fill="#63b8ff" stroke="#63b8ff" points="882.61,-102.69 880.49,-92.31 875.67,-101.74 882.61,-102.69"/>
</g>
<!-- Node74&#45;&gt;Node14 -->
<g id="edge122" class="edge">
<title>Node74&#45;&gt;Node14</title>
<path fill="none" stroke="#63b8ff" d="M828.35,-417.53C740.48,-372.84 467.74,-231.82 253,-96 220.08,-75.18 183.66,-48.43 161.56,-31.75"/>
<polygon fill="#63b8ff" stroke="#63b8ff" points="163.76,-29.03 153.68,-25.77 159.53,-34.6 163.76,-29.03"/>
</g>
<!-- Node74&#45;&gt;Node20 -->
<g id="edge126" class="edge">
<title>Node74&#45;&gt;Node20</title>
<path fill="none" stroke="#63b8ff" d="M891.61,-417.54C914.19,-408.1 943.44,-395.88 965.39,-386.71"/>
<polygon fill="#63b8ff" stroke="#63b8ff" points="966.56,-390.01 974.43,-382.93 963.86,-383.56 966.56,-390.01"/>
</g>
<!-- Node76&#45;&gt;Node2 -->
<g id="edge129" class="edge">
<title>Node76&#45;&gt;Node2</title>
<path fill="none" stroke="#63b8ff" d="M1716.02,-429.67C1541.06,-422.93 1098.53,-399.04 972,-327 859.89,-263.17 764.67,-166.94 845,-66 866.51,-38.97 963.72,-25.31 1020.47,-19.53"/>
<polygon fill="#63b8ff" stroke="#63b8ff" points="1020.46,-23.05 1030.08,-18.59 1019.78,-16.08 1020.46,-23.05"/>
</g>
<!-- Node76&#45;&gt;Node5 -->
<g id="edge130" class="edge">
<title>Node76&#45;&gt;Node5</title>
<path fill="none" stroke="#63b8ff" d="M1859.66,-423.42C1971.8,-408.69 2181.76,-375.41 2238,-327 2270.88,-298.69 2258.59,-275.63 2286,-242 2294.66,-231.37 2306.03,-221.18 2315.83,-213.24"/>
<polygon fill="#63b8ff" stroke="#63b8ff" points="2317.69,-216.23 2323.41,-207.31 2313.38,-210.72 2317.69,-216.23"/>
</g>
<!-- Node76&#45;&gt;Node21 -->
<g id="edge131" class="edge">
<title>Node76&#45;&gt;Node21</title>
<path fill="none" stroke="#63b8ff" d="M1761.73,-423.12C1732.51,-413.24 1685.1,-397.21 1652.11,-386.05"/>
<polygon fill="#63b8ff" stroke="#63b8ff" points="1653.55,-382.84 1642.96,-382.95 1651.31,-389.47 1653.55,-382.84"/>
</g>
<!-- Node77&#45;&gt;Node53 -->
<g id="edge134" class="edge">
<title>Node77&#45;&gt;Node53</title>
<path fill="none" stroke="#63b8ff" d="M1141.29,-670.58C1132.35,-623.76 1090.74,-406.07 1077.83,-338.54"/>
<polygon fill="#63b8ff" stroke="#63b8ff" points="1081.31,-338.09 1075.99,-328.92 1074.43,-339.4 1081.31,-338.09"/>
</g>
<!-- Node77&#45;&gt;Node58 -->
<g id="edge133" class="edge">
<title>Node77&#45;&gt;Node58</title>
<path fill="none" stroke="#63b8ff" d="M1202.35,-670.55C1270.7,-660.25 1383.05,-643.31 1457.04,-632.15"/>
<polygon fill="#63b8ff" stroke="#63b8ff" points="1457.25,-635.66 1466.62,-630.71 1456.21,-628.74 1457.25,-635.66"/>
</g>
<!-- Node87&#45;&gt;Node5 -->
<g id="edge138" class="edge">
<title>Node87&#45;&gt;Node5</title>
<path fill="none" stroke="#63b8ff" d="M2295.25,-726.55C2375.18,-706.26 2511.5,-660.1 2588,-569 2659.84,-483.44 2640.75,-437.67 2656,-327 2661.51,-287.01 2656.46,-266 2624,-242 2623.86,-241.89 2482.44,-220 2398.2,-206.97"/>
<polygon fill="#63b8ff" stroke="#63b8ff" points="2398.87,-203.53 2388.46,-205.46 2397.8,-210.45 2398.87,-203.53"/>
</g>
<!-- Node87&#45;&gt;Node27 -->
<g id="edge143" class="edge">
<title>Node87&#45;&gt;Node27</title>
<path fill="none" stroke="#63b8ff" d="M2295.29,-738.15C2399.53,-734.22 2602.06,-722.52 2665,-690 2701.63,-671.08 2727,-662.23 2727,-621 2727,-621 2727,-621 2727,-558.5 2727,-473.08 2768.87,-377.32 2788.3,-337.47"/>
<polygon fill="#63b8ff" stroke="#63b8ff" points="2791.34,-339.24 2792.67,-328.73 2785.07,-336.11 2791.34,-339.24"/>
</g>
<!-- Node87&#45;&gt;Node57 -->
<g id="edge145" class="edge">
<title>Node87&#45;&gt;Node57</title>
<path fill="none" stroke="#63b8ff" d="M2168.63,-730.47C2098.85,-719.98 1986.9,-703.14 1914.15,-692.2"/>
<polygon fill="#63b8ff" stroke="#63b8ff" points="1914.73,-688.75 1904.32,-690.72 1913.69,-695.67 1914.73,-688.75"/>
</g>
<!-- Node87&#45;&gt;Node59 -->
<g id="edge144" class="edge">
<title>Node87&#45;&gt;Node59</title>
<path fill="none" stroke="#63b8ff" d="M2231.64,-725.71C2230.62,-684.75 2227.67,-566.91 2226.5,-519.8"/>
<polygon fill="#63b8ff" stroke="#63b8ff" points="2230,-519.94 2226.25,-510.03 2223,-520.11 2230,-519.94"/>
</g>
<!-- Node87&#45;&gt;Node76 -->
<g id="edge146" class="edge">
<title>Node87&#45;&gt;Node76</title>
<path fill="none" stroke="#63b8ff" d="M2209.13,-725.52C2163.54,-696.52 2058.29,-628.97 1972,-569 1911.59,-527.02 1842.02,-474.92 1808.35,-449.46"/>
<polygon fill="#63b8ff" stroke="#63b8ff" points="1810.77,-446.9 1800.68,-443.65 1806.54,-452.48 1810.77,-446.9"/>
</g>
<!-- Node87&#45;&gt;Node99 -->
<g id="edge139" class="edge">
<title>Node87&#45;&gt;Node99</title>
<path fill="none" stroke="#63b8ff" d="M2295.43,-737.22C2412.91,-731.5 2659.8,-716.66 2741,-690 2777.49,-678.02 2814.8,-653.1 2836.93,-636.71"/>
<polygon fill="#63b8ff" stroke="#63b8ff" points="2838.9,-639.61 2844.76,-630.78 2834.68,-634.03 2838.9,-639.61"/>
</g>
<!-- Node99&#45;&gt;Node5 -->
<g id="edge140" class="edge">
<title>Node99&#45;&gt;Node5</title>
<path fill="none" stroke="#63b8ff" d="M2861.63,-610.05C2881.15,-570.99 2952.91,-412.74 2892,-308 2862.18,-256.72 2832.5,-260.05 2776,-242 2707.16,-220.01 2501.33,-206.26 2397.83,-200.55"/>
<polygon fill="#63b8ff" stroke="#63b8ff" points="2398.32,-197.07 2388.15,-200.03 2397.94,-204.06 2398.32,-197.07"/>
</g>
<!-- Node99&#45;&gt;Node27 -->
<g id="edge141" class="edge">
<title>Node99&#45;&gt;Node27</title>
<path fill="none" stroke="#63b8ff" d="M2856.3,-610C2853.55,-576.7 2842.32,-457.53 2816,-363 2813.65,-354.58 2810.21,-345.58 2806.96,-337.9"/>
<polygon fill="#63b8ff" stroke="#63b8ff" points="2810.21,-336.6 2802.95,-328.88 2803.81,-339.44 2810.21,-336.6"/>
</g>
<!-- Node99&#45;&gt;Node62 -->
<g id="edge142" class="edge">
<title>Node99&#45;&gt;Node62</title>
<path fill="none" stroke="#63b8ff" d="M2796.73,-610.05C2726.3,-599.59 2609.86,-582.3 2534.8,-571.16"/>
<polygon fill="#63b8ff" stroke="#63b8ff" points="2535.49,-567.72 2525.08,-569.72 2534.46,-574.65 2535.49,-567.72"/>
</g>
<!-- Node100&#45;&gt;Node5 -->
<g id="edge148" class="edge">
<title>Node100&#45;&gt;Node5</title>
<path fill="none" stroke="#63b8ff" d="M946.22,-492.26C1182.06,-469.39 2042.44,-385.77 2056,-382 2074.96,-376.73 2078,-370.95 2096,-363 2134.66,-345.93 2149.02,-350.71 2184,-327 2227.45,-297.54 2225.24,-275.07 2266,-242 2279.86,-230.75 2296.75,-220.06 2310.58,-211.98"/>
<polygon fill="#63b8ff" stroke="#63b8ff" points="2312.19,-215.09 2319.14,-207.09 2308.72,-209.01 2312.19,-215.09"/>
</g>
<!-- Node100&#45;&gt;Node101 -->
<g id="edge149" class="edge">
<title>Node100&#45;&gt;Node101</title>
<path fill="none" stroke="#63b8ff" d="M827.79,-484.27C782.72,-473.82 720.79,-459.46 674.66,-448.76"/>
<polygon fill="#63b8ff" stroke="#63b8ff" points="675.6,-445.39 665.06,-446.54 674.01,-452.2 675.6,-445.39"/>
</g>
<!-- Node101&#45;&gt;Node5 -->
<g id="edge152" class="edge">
<title>Node101&#45;&gt;Node5</title>
<path fill="none" stroke="#63b8ff" d="M647.52,-417.58C716.27,-391.1 870.16,-334.95 1005,-308 1025.07,-303.99 1718.6,-243.68 1739,-242 1935.21,-225.88 2167.86,-209.29 2276.04,-201.72"/>
<polygon fill="#63b8ff" stroke="#63b8ff" points="2276.12,-205.23 2285.85,-201.04 2275.63,-198.24 2276.12,-205.23"/>
</g>
<!-- Node101&#45;&gt;Node10 -->
<g id="edge150" class="edge">
<title>Node101&#45;&gt;Node10</title>
<path fill="none" stroke="#63b8ff" d="M562.05,-417.51C520.51,-402.33 463.54,-374.01 437,-327 391.77,-246.87 476.05,-140.44 513.44,-99.27"/>
<polygon fill="#63b8ff" stroke="#63b8ff" points="515.96,-101.7 520.21,-91.99 510.83,-96.93 515.96,-101.7"/>
</g>
<!-- Node101&#45;&gt;Node18 -->
<g id="edge151" class="edge">
<title>Node101&#45;&gt;Node18</title>
<path fill="none" stroke="#63b8ff" d="M594.2,-417.92C582.67,-408.1 567.13,-394.55 554,-382 538.17,-366.87 520.96,-348.79 508.87,-335.8"/>
<polygon fill="#63b8ff" stroke="#63b8ff" points="511.45,-333.44 502.09,-328.47 506.3,-338.19 511.45,-333.44"/>
</g>
<!-- Node101&#45;&gt;Node21 -->
<g id="edge153" class="edge">
<title>Node101&#45;&gt;Node21</title>
<path fill="none" stroke="#63b8ff" d="M663.79,-419.28C666.56,-418.8 669.31,-418.37 672,-418 841.18,-394.78 1359.78,-379.88 1546.83,-375.14"/>
<polygon fill="#63b8ff" stroke="#63b8ff" points="1546.72,-378.64 1556.62,-374.89 1546.54,-371.64 1546.72,-378.64"/>
</g>
<!-- Node102&#45;&gt;Node57 -->
<g id="edge155" class="edge">
<title>Node102&#45;&gt;Node57</title>
<path fill="none" stroke="#63b8ff" d="M1843,-791.56C1843,-772.6 1843,-727.97 1843,-701.73"/>
<polygon fill="#63b8ff" stroke="#63b8ff" points="1846.5,-701.74 1843,-691.74 1839.5,-701.74 1846.5,-701.74"/>
</g>
<!-- Node119&#45;&gt;Node57 -->
<g id="edge157" class="edge">
<title>Node119&#45;&gt;Node57</title>
<path fill="none" stroke="#63b8ff" d="M1687.63,-791.56C1716.23,-771.3 1786.2,-721.73 1821.66,-696.62"/>
<polygon fill="#63b8ff" stroke="#63b8ff" points="1823.31,-699.74 1829.45,-691.1 1819.26,-694.02 1823.31,-699.74"/>
</g>
<!-- Node120&#45;&gt;Node2 -->
<g id="edge160" class="edge">
<title>Node120&#45;&gt;Node2</title>
<path fill="none" stroke="#63b8ff" d="M1422.19,-855.99C1312.11,-855.47 1092,-849.15 910,-811 549.35,-735.4 346.5,-634.44 280,-272 263.2,-180.43 241.46,-119 318,-66 375.84,-25.95 871.83,-17.86 1020.23,-16.34"/>
<polygon fill="#63b8ff" stroke="#63b8ff" points="1020.02,-19.84 1029.99,-16.24 1019.96,-12.84 1020.02,-19.84"/>
</g>
<!-- Node120&#45;&gt;Node3 -->
<g id="edge159" class="edge">
<title>Node120&#45;&gt;Node3</title>
<path fill="none" stroke="#63b8ff" d="M1561.71,-853.92C1824.94,-846.65 2755.07,-808.9 2983,-635 3049.05,-584.6 3182,-401.58 3182,-318.5 3182,-318.5 3182,-318.5 3182,-140.5 3182,-98.81 3160.65,-87.62 3125,-66 3082.76,-40.39 2937.88,-24.75 2871.59,-18.78"/>
<polygon fill="#63b8ff" stroke="#63b8ff" points="2871.94,-15.3 2861.68,-17.91 2871.33,-22.27 2871.94,-15.3"/>
</g>
<!-- Node120&#45;&gt;Node5 -->
<g id="edge163" class="edge">
<title>Node120&#45;&gt;Node5</title>
<path fill="none" stroke="#63b8ff" d="M1561.75,-848.46C1612.41,-842.05 1682.13,-830.53 1741,-811 1758.92,-805.06 1761.41,-798.86 1779,-792 1820.79,-775.71 2523.46,-600.89 2555,-569 2577.37,-546.38 2574,-531.81 2574,-500 2574,-500 2574,-500 2574,-432 2574,-344.9 2589.5,-301.62 2526,-242 2516.47,-233.05 2449.1,-218.61 2397.48,-208.62"/>
<polygon fill="#63b8ff" stroke="#63b8ff" points="2398.37,-205.22 2387.89,-206.78 2397.05,-212.1 2398.37,-205.22"/>
</g>
<!-- Node120&#45;&gt;Node7 -->
<g id="edge161" class="edge">
<title>Node120&#45;&gt;Node7</title>
<path fill="none" stroke="#63b8ff" d="M1422.44,-853.09C1300.59,-848.28 1053.61,-835.76 971,-811 684.33,-725.09 605.49,-638.91 452,-382 434.47,-352.65 420.59,-340.56 431,-308 441.97,-273.7 449.17,-263.58 478,-242 517.16,-212.69 536.27,-223.35 582,-206 681.33,-168.32 797.05,-118.89 851.16,-95.45"/>
<polygon fill="#63b8ff" stroke="#63b8ff" points="852.27,-98.79 860.05,-91.59 849.48,-92.36 852.27,-98.79"/>
</g>
<!-- Node120&#45;&gt;Node20 -->
<g id="edge162" class="edge">
<title>Node120&#45;&gt;Node20</title>
<path fill="none" stroke="#63b8ff" d="M1422.15,-855.71C1272.82,-854.27 936,-840.15 936,-742 936,-742 936,-742 936,-619 936,-573.86 975.34,-442.9 990.83,-393.07"/>
<polygon fill="#63b8ff" stroke="#63b8ff" points="994.12,-394.28 993.77,-383.69 987.44,-392.19 994.12,-394.28"/>
</g>
<!-- Node120&#45;&gt;Node70 -->
<g id="edge166" class="edge">
<title>Node120&#45;&gt;Node70</title>
<path fill="none" stroke="#63b8ff" d="M1461.97,-846.51C1432.77,-837.76 1388.19,-824.42 1355.79,-814.71"/>
<polygon fill="#63b8ff" stroke="#63b8ff" points="1356.91,-811.4 1346.33,-811.88 1354.9,-818.1 1356.91,-811.4"/>
</g>
<!-- Node120&#45;&gt;Node102 -->
<g id="edge165" class="edge">
<title>Node120&#45;&gt;Node102</title>
<path fill="none" stroke="#63b8ff" d="M1551.54,-846.51C1613.81,-837.11 1711.34,-822.38 1776.2,-812.59"/>
<polygon fill="#63b8ff" stroke="#63b8ff" points="1776.65,-816.06 1786.02,-811.1 1775.61,-809.14 1776.65,-816.06"/>
</g>
<!-- Node120&#45;&gt;Node119 -->
<g id="edge164" class="edge">
<title>Node120&#45;&gt;Node119</title>
<path fill="none" stroke="#63b8ff" d="M1523.04,-846.51C1553.37,-837.73 1599.73,-824.3 1633.27,-814.59"/>
<polygon fill="#63b8ff" stroke="#63b8ff" points="1634.02,-818.01 1642.66,-811.87 1632.08,-811.29 1634.02,-818.01"/>
</g>
<!-- Node104&#45;&gt;Node2 -->
<g id="edge169" class="edge">
<title>Node104&#45;&gt;Node2</title>
<path fill="none" stroke="#63b8ff" d="M2021.6,-549.75C2002.06,-523.85 1940.17,-447.6 1868,-418 1740.11,-365.54 1383.87,-401.38 1247,-382 1219.7,-378.13 1024.93,-346.05 1005,-327 982.01,-305.02 986,-289.81 986,-258 986,-258 986,-258 986,-140.5 986,-96.46 1021.08,-54.8 1043.57,-32.61"/>
<polygon fill="#63b8ff" stroke="#63b8ff" points="1045.81,-35.31 1050.65,-25.88 1040.99,-30.23 1045.81,-35.31"/>
</g>
<!-- Node104&#45;&gt;Node3 -->
<g id="edge168" class="edge">
<title>Node104&#45;&gt;Node3</title>
<path fill="none" stroke="#63b8ff" d="M2041.53,-549.68C2064.59,-534.87 2113.26,-504.63 2157,-484 2227.74,-450.64 2800,-275.72 2800,-197.5 2800,-197.5 2800,-197.5 2800,-140.5 2800,-101.66 2817.13,-58.85 2828.39,-34.91"/>
<polygon fill="#63b8ff" stroke="#63b8ff" points="2831.43,-36.66 2832.68,-26.14 2825.14,-33.59 2831.43,-36.66"/>
</g>
<!-- Node104&#45;&gt;Node5 -->
<g id="edge171" class="edge">
<title>Node104&#45;&gt;Node5</title>
<path fill="none" stroke="#63b8ff" d="M2032.21,-549.78C2044.49,-525.26 2082.73,-455.06 2135,-418 2177.31,-388 2198.15,-402.01 2246,-382 2270.48,-371.76 2338.22,-349.68 2352,-327 2372.89,-292.63 2357.55,-243.58 2346.21,-216.79"/>
<polygon fill="#63b8ff" stroke="#63b8ff" points="2349.49,-215.54 2342.19,-207.86 2343.11,-218.41 2349.49,-215.54"/>
</g>
<!-- Node104&#45;&gt;Node53 -->
<g id="edge170" class="edge">
<title>Node104&#45;&gt;Node53</title>
<path fill="none" stroke="#63b8ff" d="M2025.53,-549.51C2017.9,-523.63 1991.98,-448.84 1940,-418 1882.37,-383.81 1404.28,-391.87 1338,-382 1295.99,-375.74 1182.34,-346.84 1118.7,-330.26"/>
<polygon fill="#63b8ff" stroke="#63b8ff" points="1119.83,-326.94 1109.27,-327.8 1118.06,-333.71 1119.83,-326.94"/>
</g>
<!-- Node104&#45;&gt;Node59 -->
<g id="edge172" class="edge">
<title>Node104&#45;&gt;Node59</title>
<path fill="none" stroke="#63b8ff" d="M2058.07,-549.62C2091.94,-539.61 2147.19,-523.29 2185,-512.12"/>
<polygon fill="#63b8ff" stroke="#63b8ff" points="2185.6,-515.59 2194.19,-509.4 2183.61,-508.87 2185.6,-515.59"/>
</g>
<!-- Node121&#45;&gt;Node2 -->
<g id="edge182" class="edge">
<title>Node121&#45;&gt;Node2</title>
<path fill="none" stroke="#63b8ff" d="M3166.1,-1020.15C2758.32,-1017.17 38,-994.23 38,-912.5 38,-912.5 38,-912.5 38,-195.5 38,-108.76 103.82,-99.08 184,-66 261.8,-33.91 856.86,-20.01 1020.48,-16.77"/>
<polygon fill="#63b8ff" stroke="#63b8ff" points="1020.5,-20.27 1030.43,-16.57 1020.36,-13.27 1020.5,-20.27"/>
</g>
<!-- Node121&#45;&gt;Node3 -->
<g id="edge183" class="edge">
<title>Node121&#45;&gt;Node3</title>
<path fill="none" stroke="#63b8ff" d="M3246.79,-1011.55C3302.31,-992.82 3416,-943.91 3416,-857.5 3416,-857.5 3416,-857.5 3416,-140.5 3416,-28.37 2995.03,-16.95 2871.62,-16.01"/>
<polygon fill="#63b8ff" stroke="#63b8ff" points="2871.84,-12.51 2861.82,-15.96 2871.8,-19.51 2871.84,-12.51"/>
</g>
<!-- Node121&#45;&gt;Node4 -->
<g id="edge184" class="edge">
<title>Node121&#45;&gt;Node4</title>
<path fill="none" stroke="#63b8ff" d="M3229.69,-1011.73C3252.02,-995.15 3296,-956.87 3296,-912.5 3296,-912.5 3296,-912.5 3296,-371.5 3296,-337.97 3305.37,-299.86 3311.88,-277.44"/>
<polygon fill="#63b8ff" stroke="#63b8ff" points="3315.14,-278.75 3314.69,-268.17 3308.44,-276.72 3315.14,-278.75"/>
</g>
<!-- Node121&#45;&gt;Node5 -->
<g id="edge185" class="edge">
<title>Node121&#45;&gt;Node5</title>
<path fill="none" stroke="#63b8ff" d="M3219.64,-1011.63C3224.86,-993.3 3236,-949.81 3236,-912.5 3236,-912.5 3236,-912.5 3236,-740 3236,-659.91 3220,-640.59 3220,-560.5 3220,-560.5 3220,-560.5 3220,-498 3220,-307.42 3055.83,-305.11 2876,-242 2789.31,-211.58 2520.21,-201.66 2398.22,-198.68"/>
<polygon fill="#63b8ff" stroke="#63b8ff" points="2398.48,-195.19 2388.4,-198.45 2398.31,-202.18 2398.48,-195.19"/>
</g>
<!-- Node121&#45;&gt;Node17 -->
<g id="edge186" class="edge">
<title>Node121&#45;&gt;Node17</title>
<path fill="none" stroke="#63b8ff" d="M3199.7,-1011.51C3183.92,-1003.31 3160.36,-991.07 3142.09,-981.58"/>
<polygon fill="#63b8ff" stroke="#63b8ff" points="3143.88,-978.56 3133.39,-977.06 3140.65,-984.77 3143.88,-978.56"/>
</g>
<!-- Node121&#45;&gt;Node19 -->
<g id="edge187" class="edge">
<title>Node121&#45;&gt;Node19</title>
<path fill="none" stroke="#63b8ff" d="M3214.65,-1011.58C3210.31,-997.16 3199.58,-969.15 3179,-957 3127.26,-926.46 2245.13,-915.69 1981.08,-913.14"/>
<polygon fill="#63b8ff" stroke="#63b8ff" points="1981.27,-909.65 1971.24,-913.05 1981.2,-916.65 1981.27,-909.65"/>
</g>
</g>
</svg>
