<?xml version="1.0" encoding="UTF-8" standalone="no"?>
<!DOCTYPE svg PUBLIC "-//W3C//DTD SVG 1.1//EN"
 "http://www.w3.org/Graphics/SVG/1.1/DTD/svg11.dtd">
<!-- Generated by graphviz version 2.43.0 (0)
 -->
<!-- Title: /home/runner/work/Documentation/Documentation/master/applications/RomApplication/custom_utilities/rom_residuals_utility.h Pages: 1 -->
<svg width="2782pt" height="1000pt"
 viewBox="0.00 0.00 2781.64 1000.00" xmlns="http://www.w3.org/2000/svg" xmlns:xlink="http://www.w3.org/1999/xlink">
<g id="graph0" class="graph" transform="scale(1 1) rotate(0) translate(4 996)">
<title>/home/runner/work/Documentation/Documentation/master/applications/RomApplication/custom_utilities/rom_residuals_utility.h</title>
<!-- Node1 -->
<g id="node1" class="node">
<title>Node1</title>
<g id="a_node1"><a xlink:title=" ">
<polygon fill="#bfbfbf" stroke="black" points="1425.64,-939.5 1425.64,-991.5 1619.64,-991.5 1619.64,-939.5 1425.64,-939.5"/>
<text text-anchor="start" x="1433.64" y="-979.5" font-family="Helvetica,sans-Serif" font-size="10.00">/home/runner/work/Documentation</text>
<text text-anchor="start" x="1433.64" y="-968.5" font-family="Helvetica,sans-Serif" font-size="10.00">/Documentation/master/applications</text>
<text text-anchor="start" x="1433.64" y="-957.5" font-family="Helvetica,sans-Serif" font-size="10.00">/RomApplication/custom_utilities</text>
<text text-anchor="middle" x="1522.64" y="-946.5" font-family="Helvetica,sans-Serif" font-size="10.00">/rom_residuals_utility.h</text>
</a>
</g>
</g>
<!-- Node2 -->
<g id="node2" class="node">
<title>Node2</title>
<g id="a_node2"><a xlink:href="../../df/d67/define_8h.html" target="_top" xlink:title=" ">
<polygon fill="none" stroke="black" points="2022.14,-123.5 2022.14,-142.5 2121.14,-142.5 2121.14,-123.5 2022.14,-123.5"/>
<text text-anchor="middle" x="2071.64" y="-130.5" font-family="Helvetica,sans-Serif" font-size="10.00">includes/define.h</text>
</a>
</g>
</g>
<!-- Node1&#45;&gt;Node2 -->
<g id="edge1" class="edge">
<title>Node1&#45;&gt;Node2</title>
<path fill="none" stroke="midnightblue" d="M1619.76,-963.56C1913.69,-959.45 2773.64,-937.5 2773.64,-821.5 2773.64,-821.5 2773.64,-821.5 2773.64,-439.5 2773.64,-325.99 2717.64,-293.95 2620.64,-235 2548.31,-191.05 2521.4,-196.66 2438.64,-179 2331.83,-156.21 2204.89,-143.83 2131.76,-138.1"/>
<polygon fill="midnightblue" stroke="midnightblue" points="2131.6,-134.58 2121.37,-137.3 2131.07,-141.56 2131.6,-134.58"/>
</g>
<!-- Node16 -->
<g id="node13" class="node">
<title>Node16</title>
<g id="a_node13"><a xlink:href="../../dd/dfe/model__part_8h.html" target="_top" xlink:title=" ">
<polygon fill="none" stroke="black" points="1456.14,-744 1456.14,-763 1581.14,-763 1581.14,-744 1456.14,-744"/>
<text text-anchor="middle" x="1518.64" y="-751" font-family="Helvetica,sans-Serif" font-size="10.00">includes/model_part.h</text>
</a>
</g>
</g>
<!-- Node1&#45;&gt;Node16 -->
<g id="edge16" class="edge">
<title>Node1&#45;&gt;Node16</title>
<path fill="none" stroke="midnightblue" d="M1541.81,-939.32C1563.64,-907.37 1593.81,-850.91 1573.64,-805 1567.09,-790.1 1553.74,-777.67 1541.83,-768.87"/>
<polygon fill="midnightblue" stroke="midnightblue" points="1543.75,-765.94 1533.53,-763.12 1539.76,-771.69 1543.75,-765.94"/>
</g>
<!-- Node130 -->
<g id="node36" class="node">
<title>Node130</title>
<g id="a_node36"><a xlink:href="../../d2/d64/scheme_8h.html" target="_top" xlink:title=" ">
<polygon fill="none" stroke="black" points="1415.14,-872.5 1415.14,-902.5 1528.14,-902.5 1528.14,-872.5 1415.14,-872.5"/>
<text text-anchor="start" x="1423.14" y="-890.5" font-family="Helvetica,sans-Serif" font-size="10.00">solving_strategies</text>
<text text-anchor="middle" x="1471.64" y="-879.5" font-family="Helvetica,sans-Serif" font-size="10.00">/schemes/scheme.h</text>
</a>
</g>
</g>
<!-- Node1&#45;&gt;Node130 -->
<g id="edge126" class="edge">
<title>Node1&#45;&gt;Node130</title>
<path fill="none" stroke="midnightblue" d="M1505.65,-939.19C1499.63,-930.22 1492.9,-920.18 1487.01,-911.42"/>
<polygon fill="midnightblue" stroke="midnightblue" points="1489.74,-909.2 1481.26,-902.85 1483.93,-913.1 1489.74,-909.2"/>
</g>
<!-- Node135 -->
<g id="node40" class="node">
<title>Node135</title>
<g id="a_node40"><a xlink:href="../../d2/daf/ublas__space_8h.html" target="_top" xlink:title=" ">
<polygon fill="none" stroke="black" points="2189.64,-878 2189.64,-897 2311.64,-897 2311.64,-878 2189.64,-878"/>
<text text-anchor="middle" x="2250.64" y="-885" font-family="Helvetica,sans-Serif" font-size="10.00">spaces/ublas_space.h</text>
</a>
</g>
</g>
<!-- Node1&#45;&gt;Node135 -->
<g id="edge138" class="edge">
<title>Node1&#45;&gt;Node135</title>
<path fill="none" stroke="midnightblue" d="M1619.69,-954.37C1768.15,-938.87 2048.2,-909.63 2179.42,-895.93"/>
<polygon fill="midnightblue" stroke="midnightblue" points="2179.78,-899.42 2189.37,-894.9 2179.06,-892.45 2179.78,-899.42"/>
</g>
<!-- Node142 -->
<g id="node45" class="node">
<title>Node142</title>
<g id="a_node45"><a xlink:href="../../d7/d9b/rom__application__variables_8h.html" target="_top" xlink:title=" ">
<polygon fill="none" stroke="black" points="874.14,-682.5 874.14,-701.5 1029.14,-701.5 1029.14,-682.5 874.14,-682.5"/>
<text text-anchor="middle" x="951.64" y="-689.5" font-family="Helvetica,sans-Serif" font-size="10.00">rom_application_variables.h</text>
</a>
</g>
</g>
<!-- Node1&#45;&gt;Node142 -->
<g id="edge152" class="edge">
<title>Node1&#45;&gt;Node142</title>
<path fill="none" stroke="midnightblue" d="M1469.94,-939.44C1351.52,-883.14 1067.76,-748.22 978.79,-705.91"/>
<polygon fill="midnightblue" stroke="midnightblue" points="980.16,-702.69 969.63,-701.55 977.16,-709.01 980.16,-702.69"/>
</g>
<!-- Node207 -->
<g id="node48" class="node">
<title>Node207</title>
<g id="a_node48"><a xlink:href="../../dd/dbf/rom__auxiliary__utilities_8h.html" target="_top" xlink:title=" ">
<polygon fill="none" stroke="black" points="787.14,-805.5 787.14,-835.5 904.14,-835.5 904.14,-805.5 787.14,-805.5"/>
<text text-anchor="start" x="795.14" y="-823.5" font-family="Helvetica,sans-Serif" font-size="10.00">custom_utilities/rom</text>
<text text-anchor="middle" x="845.64" y="-812.5" font-family="Helvetica,sans-Serif" font-size="10.00">_auxiliary_utilities.h</text>
</a>
</g>
</g>
<!-- Node1&#45;&gt;Node207 -->
<g id="edge167" class="edge">
<title>Node1&#45;&gt;Node207</title>
<path fill="none" stroke="midnightblue" d="M1425.28,-943.94C1286.48,-914.62 1035.17,-861.54 914.26,-836"/>
<polygon fill="midnightblue" stroke="midnightblue" points="914.89,-832.55 904.38,-833.91 913.44,-839.4 914.89,-832.55"/>
</g>
<!-- Node3 -->
<g id="node3" class="node">
<title>Node3</title>
<g id="a_node3"><a xlink:title=" ">
<polygon fill="none" stroke="#bfbfbf" points="2237.14,-6 2237.14,-25 2302.14,-25 2302.14,-6 2237.14,-6"/>
<text text-anchor="middle" x="2269.64" y="-13" font-family="Helvetica,sans-Serif" font-size="10.00">stdexcept</text>
</a>
</g>
</g>
<!-- Node2&#45;&gt;Node3 -->
<g id="edge2" class="edge">
<title>Node2&#45;&gt;Node3</title>
<path fill="none" stroke="midnightblue" d="M2088,-123.46C2104.84,-114.59 2131.78,-100.19 2154.64,-87 2187.26,-68.17 2224.29,-45.18 2247.3,-30.68"/>
<polygon fill="midnightblue" stroke="midnightblue" points="2249.39,-33.5 2255.97,-25.2 2245.65,-27.58 2249.39,-33.5"/>
</g>
<!-- Node4 -->
<g id="node4" class="node">
<title>Node4</title>
<g id="a_node4"><a xlink:title=" ">
<polygon fill="none" stroke="#bfbfbf" points="2431.64,-6 2431.64,-25 2487.64,-25 2487.64,-6 2431.64,-6"/>
<text text-anchor="middle" x="2459.64" y="-13" font-family="Helvetica,sans-Serif" font-size="10.00">sstream</text>
</a>
</g>
</g>
<!-- Node2&#45;&gt;Node4 -->
<g id="edge3" class="edge">
<title>Node2&#45;&gt;Node4</title>
<path fill="none" stroke="midnightblue" d="M2121.25,-127.69C2173.09,-122.15 2256.23,-110.33 2324.64,-87 2366.76,-72.63 2411.86,-46.68 2437.8,-30.59"/>
<polygon fill="midnightblue" stroke="midnightblue" points="2439.85,-33.43 2446.46,-25.14 2436.13,-27.51 2439.85,-33.43"/>
</g>
<!-- Node5 -->
<g id="node5" class="node">
<title>Node5</title>
<g id="a_node5"><a xlink:href="../../dc/d25/kratos__export__api_8h.html" target="_top" xlink:title=" ">
<polygon fill="none" stroke="black" points="2013.64,-0.5 2013.64,-30.5 2141.64,-30.5 2141.64,-0.5 2013.64,-0.5"/>
<text text-anchor="start" x="2021.64" y="-18.5" font-family="Helvetica,sans-Serif" font-size="10.00">includes/kratos_export</text>
<text text-anchor="middle" x="2077.64" y="-7.5" font-family="Helvetica,sans-Serif" font-size="10.00">_api.h</text>
</a>
</g>
</g>
<!-- Node2&#45;&gt;Node5 -->
<g id="edge4" class="edge">
<title>Node2&#45;&gt;Node5</title>
<path fill="none" stroke="midnightblue" d="M2095.09,-123.41C2110.8,-116.28 2130.26,-104.46 2139.64,-87 2149.99,-67.74 2132.46,-49.31 2113.44,-36.12"/>
<polygon fill="midnightblue" stroke="midnightblue" points="2115.27,-33.14 2104.98,-30.63 2111.46,-39.01 2115.27,-33.14"/>
</g>
<!-- Node6 -->
<g id="node6" class="node">
<title>Node6</title>
<g id="a_node6"><a xlink:href="../../d9/dc0/smart__pointers_8h.html" target="_top" xlink:title=" ">
<polygon fill="none" stroke="black" points="1852.14,-67.5 1852.14,-86.5 1995.14,-86.5 1995.14,-67.5 1852.14,-67.5"/>
<text text-anchor="middle" x="1923.64" y="-74.5" font-family="Helvetica,sans-Serif" font-size="10.00">includes/smart_pointers.h</text>
</a>
</g>
</g>
<!-- Node2&#45;&gt;Node6 -->
<g id="edge5" class="edge">
<title>Node2&#45;&gt;Node6</title>
<path fill="none" stroke="midnightblue" d="M2048.19,-123.44C2023.5,-114.44 1984.45,-100.19 1956.66,-90.05"/>
<polygon fill="midnightblue" stroke="midnightblue" points="1957.57,-86.66 1946.98,-86.52 1955.17,-93.23 1957.57,-86.66"/>
</g>
<!-- Node11 -->
<g id="node11" class="node">
<title>Node11</title>
<g id="a_node11"><a xlink:href="../../dd/d2d/exception_8h.html" target="_top" xlink:title=" ">
<polygon fill="none" stroke="red" points="2013.14,-67.5 2013.14,-86.5 2130.14,-86.5 2130.14,-67.5 2013.14,-67.5"/>
<text text-anchor="middle" x="2071.64" y="-74.5" font-family="Helvetica,sans-Serif" font-size="10.00">includes/exception.h</text>
</a>
</g>
</g>
<!-- Node2&#45;&gt;Node11 -->
<g id="edge10" class="edge">
<title>Node2&#45;&gt;Node11</title>
<path fill="none" stroke="midnightblue" d="M2071.64,-123.08C2071.64,-116.01 2071.64,-105.86 2071.64,-96.99"/>
<polygon fill="midnightblue" stroke="midnightblue" points="2075.14,-96.75 2071.64,-86.75 2068.14,-96.75 2075.14,-96.75"/>
</g>
<!-- Node7 -->
<g id="node7" class="node">
<title>Node7</title>
<g id="a_node7"><a xlink:title=" ">
<polygon fill="none" stroke="#bfbfbf" points="1035.64,-6 1035.64,-25 1095.64,-25 1095.64,-6 1035.64,-6"/>
<text text-anchor="middle" x="1065.64" y="-13" font-family="Helvetica,sans-Serif" font-size="10.00">iostream</text>
</a>
</g>
</g>
<!-- Node6&#45;&gt;Node7 -->
<g id="edge6" class="edge">
<title>Node6&#45;&gt;Node7</title>
<path fill="none" stroke="midnightblue" d="M1851.86,-68.28C1847.05,-67.82 1842.27,-67.39 1837.64,-67 1557.96,-43.23 1220.46,-24.62 1105.9,-18.58"/>
<polygon fill="midnightblue" stroke="midnightblue" points="1106,-15.08 1095.83,-18.05 1105.64,-22.07 1106,-15.08"/>
</g>
<!-- Node8 -->
<g id="node8" class="node">
<title>Node8</title>
<g id="a_node8"><a xlink:title=" ">
<polygon fill="none" stroke="#bfbfbf" points="2163.14,-6 2163.14,-25 2208.14,-25 2208.14,-6 2163.14,-6"/>
<text text-anchor="middle" x="2185.64" y="-13" font-family="Helvetica,sans-Serif" font-size="10.00">utility</text>
</a>
</g>
</g>
<!-- Node6&#45;&gt;Node8 -->
<g id="edge7" class="edge">
<title>Node6&#45;&gt;Node8</title>
<path fill="none" stroke="midnightblue" d="M1983.21,-67.48C2029.46,-60.09 2094.88,-47.89 2150.64,-31 2152.92,-30.31 2155.26,-29.52 2157.59,-28.68"/>
<polygon fill="midnightblue" stroke="midnightblue" points="2158.94,-31.91 2166.99,-25.02 2156.41,-25.39 2158.94,-31.91"/>
</g>
<!-- Node9 -->
<g id="node9" class="node">
<title>Node9</title>
<g id="a_node9"><a xlink:title=" ">
<polygon fill="none" stroke="#bfbfbf" points="1894.64,-6 1894.64,-25 1952.64,-25 1952.64,-6 1894.64,-6"/>
<text text-anchor="middle" x="1923.64" y="-13" font-family="Helvetica,sans-Serif" font-size="10.00">memory</text>
</a>
</g>
</g>
<!-- Node6&#45;&gt;Node9 -->
<g id="edge8" class="edge">
<title>Node6&#45;&gt;Node9</title>
<path fill="none" stroke="midnightblue" d="M1923.64,-67.48C1923.64,-59.08 1923.64,-45.98 1923.64,-35.16"/>
<polygon fill="midnightblue" stroke="midnightblue" points="1927.14,-35.01 1923.64,-25.01 1920.14,-35.01 1927.14,-35.01"/>
</g>
<!-- Node10 -->
<g id="node10" class="node">
<title>Node10</title>
<g id="a_node10"><a xlink:title=" ">
<polygon fill="none" stroke="#bfbfbf" points="640.64,-0.5 640.64,-30.5 764.64,-30.5 764.64,-0.5 640.64,-0.5"/>
<text text-anchor="start" x="648.64" y="-18.5" font-family="Helvetica,sans-Serif" font-size="10.00">intrusive_ptr/intrusive</text>
<text text-anchor="middle" x="702.64" y="-7.5" font-family="Helvetica,sans-Serif" font-size="10.00">_ptr.hpp</text>
</a>
</g>
</g>
<!-- Node6&#45;&gt;Node10 -->
<g id="edge9" class="edge">
<title>Node6&#45;&gt;Node10</title>
<path fill="none" stroke="midnightblue" d="M1851.82,-72.5C1635.44,-61.96 991.4,-30.57 774.7,-20.01"/>
<polygon fill="midnightblue" stroke="midnightblue" points="774.87,-16.52 764.71,-19.52 774.53,-23.51 774.87,-16.52"/>
</g>
<!-- Node11&#45;&gt;Node3 -->
<g id="edge11" class="edge">
<title>Node11&#45;&gt;Node3</title>
<path fill="none" stroke="midnightblue" d="M2100.01,-67.48C2134.56,-57.09 2193.06,-39.51 2231.52,-27.95"/>
<polygon fill="midnightblue" stroke="midnightblue" points="2232.75,-31.24 2241.32,-25.01 2230.74,-24.54 2232.75,-31.24"/>
</g>
<!-- Node11&#45;&gt;Node4 -->
<g id="edge14" class="edge">
<title>Node11&#45;&gt;Node4</title>
<path fill="none" stroke="midnightblue" d="M2127.23,-67.48C2207.15,-55.22 2352.47,-32.93 2421.4,-22.36"/>
<polygon fill="midnightblue" stroke="midnightblue" points="2422.03,-25.81 2431.39,-20.83 2420.97,-18.89 2422.03,-25.81"/>
</g>
<!-- Node11&#45;&gt;Node5 -->
<g id="edge15" class="edge">
<title>Node11&#45;&gt;Node5</title>
<path fill="none" stroke="midnightblue" d="M2072.5,-67.48C2073.2,-60.47 2074.24,-50.19 2075.2,-40.7"/>
<polygon fill="midnightblue" stroke="midnightblue" points="2078.7,-40.82 2076.22,-30.52 2071.74,-40.12 2078.7,-40.82"/>
</g>
<!-- Node11&#45;&gt;Node7 -->
<g id="edge13" class="edge">
<title>Node11&#45;&gt;Node7</title>
<path fill="none" stroke="midnightblue" d="M2012.84,-67.83C2010.07,-67.53 2007.32,-67.25 2004.64,-67 1657.61,-34.41 1236.32,-21.06 1105.99,-17.52"/>
<polygon fill="midnightblue" stroke="midnightblue" points="1105.79,-14.01 1095.7,-17.24 1105.6,-21.01 1105.79,-14.01"/>
</g>
<!-- Node12 -->
<g id="node12" class="node">
<title>Node12</title>
<g id="a_node12"><a xlink:title=" ">
<polygon fill="none" stroke="#bfbfbf" points="325.64,-6 325.64,-25 369.64,-25 369.64,-6 325.64,-6"/>
<text text-anchor="middle" x="347.64" y="-13" font-family="Helvetica,sans-Serif" font-size="10.00">string</text>
</a>
</g>
</g>
<!-- Node11&#45;&gt;Node12 -->
<g id="edge12" class="edge">
<title>Node11&#45;&gt;Node12</title>
<path fill="none" stroke="midnightblue" d="M2012.85,-67.74C2010.08,-67.46 2007.33,-67.22 2004.64,-67 1396.15,-18.3 1241.61,-54.56 631.64,-31 540.25,-27.47 432.42,-21.46 379.79,-18.4"/>
<polygon fill="midnightblue" stroke="midnightblue" points="379.91,-14.9 369.72,-17.81 379.5,-21.89 379.91,-14.9"/>
</g>
<!-- Node16&#45;&gt;Node2 -->
<g id="edge21" class="edge">
<title>Node16&#45;&gt;Node2</title>
<path fill="none" stroke="midnightblue" d="M1581.2,-752.56C1740.55,-752.06 2158.26,-746.42 2288.64,-702 2341.84,-683.87 2393.64,-687.71 2393.64,-631.5 2393.64,-631.5 2393.64,-631.5 2393.64,-439.5 2393.64,-296.46 2330.82,-246.36 2204.64,-179 2176.8,-164.14 2143.1,-152.8 2116.59,-145.22"/>
<polygon fill="midnightblue" stroke="midnightblue" points="2117.38,-141.81 2106.81,-142.5 2115.51,-148.55 2117.38,-141.81"/>
</g>
<!-- Node16&#45;&gt;Node4 -->
<g id="edge19" class="edge">
<title>Node16&#45;&gt;Node4</title>
<path fill="none" stroke="midnightblue" d="M1581.33,-751.74C1804.31,-748.2 2545.64,-729.12 2545.64,-631.5 2545.64,-631.5 2545.64,-631.5 2545.64,-501 2545.64,-348.97 2773.64,-398.03 2773.64,-246 2773.64,-246 2773.64,-246 2773.64,-132 2773.64,-73.86 2581.63,-36.02 2497.9,-22.29"/>
<polygon fill="midnightblue" stroke="midnightblue" points="2498.21,-18.79 2487.78,-20.66 2497.1,-25.7 2498.21,-18.79"/>
</g>
<!-- Node16&#45;&gt;Node7 -->
<g id="edge18" class="edge">
<title>Node16&#45;&gt;Node7</title>
<path fill="none" stroke="midnightblue" d="M1455.91,-752.88C1248.99,-753.65 596.64,-752.05 517.64,-702 493.78,-686.89 496.52,-672.8 487.64,-646 400.49,-383.01 467.92,-184.9 718.64,-67 772.41,-41.71 945.99,-25.62 1025.36,-19.41"/>
<polygon fill="midnightblue" stroke="midnightblue" points="1025.76,-22.89 1035.46,-18.63 1025.22,-15.91 1025.76,-22.89"/>
</g>
<!-- Node16&#45;&gt;Node12 -->
<g id="edge17" class="edge">
<title>Node16&#45;&gt;Node12</title>
<path fill="none" stroke="midnightblue" d="M1456.11,-753C1262.82,-753.98 676.98,-752.59 494.64,-702 271.61,-640.12 168.29,-645.66 35.64,-456 -18.4,-378.74 5.64,-340.28 5.64,-246 5.64,-246 5.64,-246 5.64,-132 5.64,-67.02 230.07,-31.52 315.31,-20.38"/>
<polygon fill="midnightblue" stroke="midnightblue" points="315.98,-23.83 325.46,-19.09 315.1,-16.88 315.98,-23.83"/>
</g>
<!-- Node17 -->
<g id="node14" class="node">
<title>Node17</title>
<g id="a_node14"><a xlink:title=" ">
<polygon fill="none" stroke="#bfbfbf" points="1701.14,-235.5 1701.14,-254.5 1754.14,-254.5 1754.14,-235.5 1701.14,-235.5"/>
<text text-anchor="middle" x="1727.64" y="-242.5" font-family="Helvetica,sans-Serif" font-size="10.00">cstddef</text>
</a>
</g>
</g>
<!-- Node16&#45;&gt;Node17 -->
<g id="edge20" class="edge">
<title>Node16&#45;&gt;Node17</title>
<path fill="none" stroke="midnightblue" d="M1581.41,-747.14C1623.47,-741.17 1678.63,-728.57 1720.64,-702 1775.75,-667.14 1782.19,-641.55 1800.64,-579 1837.07,-455.47 1832.01,-403.11 1768.64,-291 1762.49,-280.12 1753.28,-269.7 1745.14,-261.62"/>
<polygon fill="midnightblue" stroke="midnightblue" points="1747.47,-259.01 1737.8,-254.66 1742.65,-264.09 1747.47,-259.01"/>
</g>
<!-- Node18 -->
<g id="node15" class="node">
<title>Node18</title>
<g id="a_node15"><a xlink:href="../../dd/d5f/serializer_8h.html" target="_top" xlink:title=" ">
<polygon fill="none" stroke="red" points="1112.14,-235.5 1112.14,-254.5 1225.14,-254.5 1225.14,-235.5 1112.14,-235.5"/>
<text text-anchor="middle" x="1168.64" y="-242.5" font-family="Helvetica,sans-Serif" font-size="10.00">includes/serializer.h</text>
</a>
</g>
</g>
<!-- Node16&#45;&gt;Node18 -->
<g id="edge22" class="edge">
<title>Node16&#45;&gt;Node18</title>
<path fill="none" stroke="midnightblue" d="M1470.16,-744C1391.18,-730.26 1229.78,-702.62 1092.64,-682 1033.65,-673.13 869.71,-687.27 826.64,-646 794.95,-615.64 795.91,-587.68 814.64,-548 845.78,-482 891.53,-498.8 950.64,-456 1035.75,-394.36 1120.91,-300.88 1154.11,-262.92"/>
<polygon fill="midnightblue" stroke="midnightblue" points="1157.16,-264.75 1161.07,-254.9 1151.87,-260.16 1157.16,-264.75"/>
</g>
<!-- Node52 -->
<g id="node18" class="node">
<title>Node52</title>
<g id="a_node18"><a xlink:href="../../d1/d8c/logger_8h.html" target="_top" xlink:title=" ">
<polygon fill="none" stroke="red" points="679.64,-179.5 679.64,-198.5 799.64,-198.5 799.64,-179.5 679.64,-179.5"/>
<text text-anchor="middle" x="739.64" y="-186.5" font-family="Helvetica,sans-Serif" font-size="10.00">input_output/logger.h</text>
</a>
</g>
</g>
<!-- Node16&#45;&gt;Node52 -->
<g id="edge121" class="edge">
<title>Node16&#45;&gt;Node52</title>
<path fill="none" stroke="midnightblue" d="M1455.69,-752.84C1338.25,-752.32 1078.28,-745.78 864.64,-702 788.77,-686.45 744.75,-708.95 699.64,-646 671.34,-606.52 711.39,-509.51 734.64,-255 736.05,-239.48 737.39,-221.86 738.33,-208.88"/>
<polygon fill="midnightblue" stroke="midnightblue" points="741.82,-209.06 739.04,-198.84 734.84,-208.57 741.82,-209.06"/>
</g>
<!-- Node56 -->
<g id="node19" class="node">
<title>Node56</title>
<g id="a_node19"><a xlink:href="../../de/db8/process__info_8h.html" target="_top" xlink:title=" ">
<polygon fill="none" stroke="red" points="1568.14,-492.5 1568.14,-511.5 1699.14,-511.5 1699.14,-492.5 1568.14,-492.5"/>
<text text-anchor="middle" x="1633.64" y="-499.5" font-family="Helvetica,sans-Serif" font-size="10.00">includes/process_info.h</text>
</a>
</g>
</g>
<!-- Node16&#45;&gt;Node56 -->
<g id="edge36" class="edge">
<title>Node16&#45;&gt;Node56</title>
<path fill="none" stroke="midnightblue" d="M1580.24,-743.97C1636.09,-732.49 1714.7,-706.05 1748.64,-646 1778.22,-593.66 1701.68,-540.77 1659.42,-516.59"/>
<polygon fill="midnightblue" stroke="midnightblue" points="1660.91,-513.42 1650.47,-511.61 1657.51,-519.53 1660.91,-513.42"/>
</g>
<!-- Node57 -->
<g id="node20" class="node">
<title>Node57</title>
<g id="a_node20"><a xlink:href="../../d1/d82/data__value__container_8h.html" target="_top" xlink:title=" ">
<polygon fill="none" stroke="red" points="1346.14,-425.5 1346.14,-455.5 1471.14,-455.5 1471.14,-425.5 1346.14,-425.5"/>
<text text-anchor="start" x="1354.14" y="-443.5" font-family="Helvetica,sans-Serif" font-size="10.00">containers/data_value</text>
<text text-anchor="middle" x="1408.64" y="-432.5" font-family="Helvetica,sans-Serif" font-size="10.00">_container.h</text>
</a>
</g>
</g>
<!-- Node16&#45;&gt;Node57 -->
<g id="edge58" class="edge">
<title>Node16&#45;&gt;Node57</title>
<path fill="none" stroke="midnightblue" d="M1496.54,-743.92C1476.04,-735.3 1445.36,-720.61 1422.64,-702 1368.13,-657.36 1346.22,-645.39 1322.64,-579 1318.03,-566.02 1316.95,-560.55 1322.64,-548 1332.64,-525.91 1347.85,-530.4 1363.64,-512 1376.28,-497.27 1387.99,-478.69 1396.3,-464.31"/>
<polygon fill="midnightblue" stroke="midnightblue" points="1399.38,-465.97 1401.24,-455.54 1393.28,-462.53 1399.38,-465.97"/>
</g>
<!-- Node58 -->
<g id="node21" class="node">
<title>Node58</title>
<g id="a_node21"><a xlink:href="../../da/d89/variable_8h.html" target="_top" xlink:title=" ">
<polygon fill="none" stroke="red" points="870.14,-364 870.14,-383 989.14,-383 989.14,-364 870.14,-364"/>
<text text-anchor="middle" x="929.64" y="-371" font-family="Helvetica,sans-Serif" font-size="10.00">containers/variable.h</text>
</a>
</g>
</g>
<!-- Node16&#45;&gt;Node58 -->
<g id="edge124" class="edge">
<title>Node16&#45;&gt;Node58</title>
<path fill="none" stroke="midnightblue" d="M1455.98,-749.95C1314.95,-743.85 976.18,-727 864.64,-702 796.42,-686.71 757.31,-703.57 717.64,-646 688.08,-603.12 698.29,-551.89 760.64,-492 800.18,-454.02 835.12,-489.35 878.64,-456 900.22,-439.46 914.99,-410.96 922.87,-392.42"/>
<polygon fill="midnightblue" stroke="midnightblue" points="926.16,-393.64 926.63,-383.06 919.66,-391.04 926.16,-393.64"/>
</g>
<!-- Node73 -->
<g id="node22" class="node">
<title>Node73</title>
<g id="a_node22"><a xlink:href="../../d3/dc3/variable__data_8h.html" target="_top" xlink:title=" ">
<polygon fill="none" stroke="red" points="961.64,-297 961.64,-316 1053.64,-316 1053.64,-297 961.64,-297"/>
<text text-anchor="middle" x="1007.64" y="-304" font-family="Helvetica,sans-Serif" font-size="10.00">variable_data.h</text>
</a>
</g>
</g>
<!-- Node16&#45;&gt;Node73 -->
<g id="edge125" class="edge">
<title>Node16&#45;&gt;Node73</title>
<path fill="none" stroke="midnightblue" d="M1456.1,-746.8C1377.26,-739.11 1237.74,-723.8 1119.64,-702 1082.75,-695.19 1074.52,-688.83 1037.64,-682 975.52,-670.5 797.38,-693.42 755.64,-646 734.98,-622.54 773.4,-561.3 781.64,-548 799.36,-519.38 805.68,-512.17 832.64,-492 861.92,-470.09 875.34,-474.92 906.64,-456 949.62,-430.02 972.29,-432.36 997.64,-389 1008.91,-369.72 1010.13,-343.51 1009.38,-326.08"/>
<polygon fill="midnightblue" stroke="midnightblue" points="1012.87,-325.78 1008.69,-316.05 1005.88,-326.27 1012.87,-325.78"/>
</g>
<!-- Node82 -->
<g id="node23" class="node">
<title>Node82</title>
<g id="a_node23"><a xlink:href="../../d8/d3b/mesh_8h.html" target="_top" xlink:title=" ">
<polygon fill="none" stroke="red" points="1643.64,-621 1643.64,-640 1739.64,-640 1739.64,-621 1643.64,-621"/>
<text text-anchor="middle" x="1691.64" y="-628" font-family="Helvetica,sans-Serif" font-size="10.00">includes/mesh.h</text>
</a>
</g>
</g>
<!-- Node16&#45;&gt;Node82 -->
<g id="edge59" class="edge">
<title>Node16&#45;&gt;Node82</title>
<path fill="none" stroke="midnightblue" d="M1546.2,-743.86C1570.03,-735.55 1604.64,-721.38 1630.64,-702 1650.81,-686.96 1668.98,-664.18 1680.14,-648.62"/>
<polygon fill="midnightblue" stroke="midnightblue" points="1683.02,-650.6 1685.86,-640.4 1677.28,-646.6 1683.02,-650.6"/>
</g>
<!-- Node86 -->
<g id="node24" class="node">
<title>Node86</title>
<g id="a_node24"><a xlink:href="../../d2/d58/pointer__vector__map_8h.html" target="_top" xlink:title=" ">
<polygon fill="none" stroke="red" points="1832.14,-291.5 1832.14,-321.5 1937.14,-321.5 1937.14,-291.5 1832.14,-291.5"/>
<text text-anchor="start" x="1840.14" y="-309.5" font-family="Helvetica,sans-Serif" font-size="10.00">containers/pointer</text>
<text text-anchor="middle" x="1884.64" y="-298.5" font-family="Helvetica,sans-Serif" font-size="10.00">_vector_map.h</text>
</a>
</g>
</g>
<!-- Node16&#45;&gt;Node86 -->
<g id="edge119" class="edge">
<title>Node16&#45;&gt;Node86</title>
<path fill="none" stroke="midnightblue" d="M1581.16,-750.04C1698.93,-744.76 1944.2,-730.45 1969.64,-702 2043.17,-619.77 1973.49,-559.98 1936.64,-456 1921.11,-412.2 1903.26,-361.04 1893.03,-331.64"/>
<polygon fill="midnightblue" stroke="midnightblue" points="1896.21,-330.14 1889.62,-321.85 1889.6,-332.44 1896.21,-330.14"/>
</g>
<!-- Node98 -->
<g id="node26" class="node">
<title>Node98</title>
<g id="a_node26"><a xlink:href="../../da/da4/master__slave__constraint_8h.html" target="_top" xlink:title=" ">
<polygon fill="none" stroke="red" points="1497.64,-548.5 1497.64,-578.5 1623.64,-578.5 1623.64,-548.5 1497.64,-548.5"/>
<text text-anchor="start" x="1505.64" y="-566.5" font-family="Helvetica,sans-Serif" font-size="10.00">includes/master_slave</text>
<text text-anchor="middle" x="1560.64" y="-555.5" font-family="Helvetica,sans-Serif" font-size="10.00">_constraint.h</text>
</a>
</g>
</g>
<!-- Node16&#45;&gt;Node98 -->
<g id="edge123" class="edge">
<title>Node16&#45;&gt;Node98</title>
<path fill="none" stroke="midnightblue" d="M1543.61,-743.84C1561.92,-736.02 1585.46,-722.55 1596.64,-702 1616.87,-664.8 1593.8,-615.69 1576.39,-587.35"/>
<polygon fill="midnightblue" stroke="midnightblue" points="1579.12,-585.12 1570.78,-578.58 1573.22,-588.89 1579.12,-585.12"/>
</g>
<!-- Node108 -->
<g id="node28" class="node">
<title>Node108</title>
<g id="a_node28"><a xlink:href="../../d0/dac/kratos__flags_8h.html" target="_top" xlink:title=" ">
<polygon fill="none" stroke="red" points="1945.64,-431 1945.64,-450 2073.64,-450 2073.64,-431 1945.64,-431"/>
<text text-anchor="middle" x="2009.64" y="-438" font-family="Helvetica,sans-Serif" font-size="10.00">includes/kratos_flags.h</text>
</a>
</g>
</g>
<!-- Node16&#45;&gt;Node108 -->
<g id="edge122" class="edge">
<title>Node16&#45;&gt;Node108</title>
<path fill="none" stroke="midnightblue" d="M1581.31,-751.12C1714.25,-747.56 2014.92,-735.8 2045.64,-702 2109.14,-632.12 2046.54,-505.12 2020.14,-458.91"/>
<polygon fill="midnightblue" stroke="midnightblue" points="2023.05,-456.96 2014.98,-450.1 2017.01,-460.49 2023.05,-456.96"/>
</g>
<!-- Node109 -->
<g id="node29" class="node">
<title>Node109</title>
<g id="a_node29"><a xlink:href="../../d3/dad/geometry__container_8h.html" target="_top" xlink:title=" ">
<polygon fill="none" stroke="black" points="2171.64,-358.5 2171.64,-388.5 2289.64,-388.5 2289.64,-358.5 2171.64,-358.5"/>
<text text-anchor="start" x="2179.64" y="-376.5" font-family="Helvetica,sans-Serif" font-size="10.00">containers/geometry</text>
<text text-anchor="middle" x="2230.64" y="-365.5" font-family="Helvetica,sans-Serif" font-size="10.00">_container.h</text>
</a>
</g>
</g>
<!-- Node16&#45;&gt;Node109 -->
<g id="edge89" class="edge">
<title>Node16&#45;&gt;Node109</title>
<path fill="none" stroke="midnightblue" d="M1581.17,-750.58C1756.97,-744.9 2244.32,-726.95 2267.64,-702 2347.96,-616.08 2275.44,-456.99 2243.74,-397.63"/>
<polygon fill="midnightblue" stroke="midnightblue" points="2246.71,-395.78 2238.86,-388.67 2240.57,-399.13 2246.71,-395.78"/>
</g>
<!-- Node110 -->
<g id="node30" class="node">
<title>Node110</title>
<g id="a_node30"><a xlink:href="../../da/d92/pointer__hash__map__set_8h.html" target="_top" xlink:title=" ">
<polygon fill="none" stroke="red" points="2146.14,-291.5 2146.14,-321.5 2251.14,-321.5 2251.14,-291.5 2146.14,-291.5"/>
<text text-anchor="start" x="2154.14" y="-309.5" font-family="Helvetica,sans-Serif" font-size="10.00">containers/pointer</text>
<text text-anchor="middle" x="2198.64" y="-298.5" font-family="Helvetica,sans-Serif" font-size="10.00">_hash_map_set.h</text>
</a>
</g>
</g>
<!-- Node16&#45;&gt;Node110 -->
<g id="edge120" class="edge">
<title>Node16&#45;&gt;Node110</title>
<path fill="none" stroke="midnightblue" d="M1581.42,-752.11C1684.02,-750.27 1893.44,-741.49 2065.64,-702 2152.62,-682.05 2253.64,-720.74 2253.64,-631.5 2253.64,-631.5 2253.64,-631.5 2253.64,-562.5 2253.64,-495.46 2226.73,-482.12 2191.64,-425 2180.88,-407.49 2169.47,-408.38 2162.64,-389 2158.05,-376.01 2158.44,-371.12 2162.64,-358 2165.9,-347.8 2172.06,-337.9 2178.38,-329.62"/>
<polygon fill="midnightblue" stroke="midnightblue" points="2181.29,-331.58 2184.9,-321.61 2175.87,-327.15 2181.29,-331.58"/>
</g>
<!-- Node111 -->
<g id="node31" class="node">
<title>Node111</title>
<g id="a_node31"><a xlink:href="../../d4/dfe/element_8h.html" target="_top" xlink:title=" ">
<polygon fill="none" stroke="red" points="1331.64,-554 1331.64,-573 1441.64,-573 1441.64,-554 1331.64,-554"/>
<text text-anchor="middle" x="1386.64" y="-561" font-family="Helvetica,sans-Serif" font-size="10.00">includes/element.h</text>
</a>
</g>
</g>
<!-- Node16&#45;&gt;Node111 -->
<g id="edge96" class="edge">
<title>Node16&#45;&gt;Node111</title>
<path fill="none" stroke="midnightblue" d="M1498.21,-743.92C1480.53,-735.56 1455.39,-721.29 1439.64,-702 1410.19,-665.95 1395.83,-611.7 1389.98,-583.32"/>
<polygon fill="midnightblue" stroke="midnightblue" points="1393.36,-582.34 1388.04,-573.18 1386.49,-583.66 1393.36,-582.34"/>
</g>
<!-- Node128 -->
<g id="node33" class="node">
<title>Node128</title>
<g id="a_node33"><a xlink:href="../../d7/d6c/condition_8h.html" target="_top" xlink:title=" ">
<polygon fill="none" stroke="red" points="1161.64,-554 1161.64,-573 1275.64,-573 1275.64,-554 1161.64,-554"/>
<text text-anchor="middle" x="1218.64" y="-561" font-family="Helvetica,sans-Serif" font-size="10.00">includes/condition.h</text>
</a>
</g>
</g>
<!-- Node16&#45;&gt;Node128 -->
<g id="edge101" class="edge">
<title>Node16&#45;&gt;Node128</title>
<path fill="none" stroke="midnightblue" d="M1456.1,-748.35C1417.14,-742.87 1368.07,-730.37 1333.64,-702 1300.35,-674.57 1318.72,-647.74 1290.64,-615 1277.71,-599.93 1259.34,-587.15 1244.4,-578.21"/>
<polygon fill="midnightblue" stroke="midnightblue" points="1246.02,-575.11 1235.61,-573.15 1242.53,-581.17 1246.02,-575.11"/>
</g>
<!-- Node129 -->
<g id="node34" class="node">
<title>Node129</title>
<g id="a_node34"><a xlink:href="../../d8/d75/communicator_8h.html" target="_top" xlink:title=" ">
<polygon fill="none" stroke="black" points="1449.14,-682.5 1449.14,-701.5 1588.14,-701.5 1588.14,-682.5 1449.14,-682.5"/>
<text text-anchor="middle" x="1518.64" y="-689.5" font-family="Helvetica,sans-Serif" font-size="10.00">includes/communicator.h</text>
</a>
</g>
</g>
<!-- Node16&#45;&gt;Node129 -->
<g id="edge104" class="edge">
<title>Node16&#45;&gt;Node129</title>
<path fill="none" stroke="midnightblue" d="M1518.64,-743.98C1518.64,-735.58 1518.64,-722.48 1518.64,-711.66"/>
<polygon fill="midnightblue" stroke="midnightblue" points="1522.14,-711.51 1518.64,-701.51 1515.14,-711.51 1522.14,-711.51"/>
</g>
<!-- Node113 -->
<g id="node35" class="node">
<title>Node113</title>
<g id="a_node35"><a xlink:href="../../dd/d98/table_8h.html" target="_top" xlink:title=" ">
<polygon fill="none" stroke="black" points="605.64,-431 605.64,-450 699.64,-450 699.64,-431 605.64,-431"/>
<text text-anchor="middle" x="652.64" y="-438" font-family="Helvetica,sans-Serif" font-size="10.00">includes/table.h</text>
</a>
</g>
</g>
<!-- Node16&#45;&gt;Node113 -->
<g id="edge113" class="edge">
<title>Node16&#45;&gt;Node113</title>
<path fill="none" stroke="midnightblue" d="M1455.98,-751.69C1256.87,-748.78 646.94,-737.05 565.64,-702 523.92,-684.02 491.64,-676.93 491.64,-631.5 491.64,-631.5 491.64,-631.5 491.64,-562.5 491.64,-529.4 492.53,-515.7 515.64,-492 536.84,-470.26 568.19,-457.81 595.56,-450.71"/>
<polygon fill="midnightblue" stroke="midnightblue" points="596.53,-454.08 605.44,-448.33 594.89,-447.27 596.53,-454.08"/>
</g>
<!-- Node18&#45;&gt;Node2 -->
<g id="edge27" class="edge">
<title>Node18&#45;&gt;Node2</title>
<path fill="none" stroke="midnightblue" d="M1175.11,-235.25C1186.6,-220.51 1212.14,-191.15 1241.64,-179 1312.23,-149.91 1833.39,-138.16 2011.87,-134.97"/>
<polygon fill="midnightblue" stroke="midnightblue" points="2011.94,-138.46 2021.87,-134.79 2011.81,-131.47 2011.94,-138.46"/>
</g>
<!-- Node18&#45;&gt;Node4 -->
<g id="edge26" class="edge">
<title>Node18&#45;&gt;Node4</title>
<path fill="none" stroke="midnightblue" d="M1225.2,-236C1374.9,-214.57 1793.68,-153.02 2139.64,-87 2242.11,-67.44 2361.99,-39.73 2421.74,-25.58"/>
<polygon fill="midnightblue" stroke="midnightblue" points="2422.57,-28.98 2431.5,-23.26 2420.96,-22.17 2422.57,-28.98"/>
</g>
<!-- Node18&#45;&gt;Node7 -->
<g id="edge24" class="edge">
<title>Node18&#45;&gt;Node7</title>
<path fill="none" stroke="midnightblue" d="M1164.72,-235.36C1149.59,-201.93 1094.67,-80.63 1073.78,-34.49"/>
<polygon fill="midnightblue" stroke="midnightblue" points="1076.87,-32.82 1069.55,-25.15 1070.49,-35.7 1076.87,-32.82"/>
</g>
<!-- Node18&#45;&gt;Node12 -->
<g id="edge23" class="edge">
<title>Node18&#45;&gt;Node12</title>
<path fill="none" stroke="midnightblue" d="M1158.96,-235.18C1143.36,-221.37 1111.18,-194.63 1079.64,-179 829.86,-55.2 485.75,-24.81 379.91,-18.18"/>
<polygon fill="midnightblue" stroke="midnightblue" points="380.05,-14.69 369.86,-17.58 379.63,-21.67 380.05,-14.69"/>
</g>
<!-- Node21 -->
<g id="node16" class="node">
<title>Node21</title>
<g id="a_node16"><a xlink:title=" ">
<polygon fill="none" stroke="#bfbfbf" points="1322.14,-179.5 1322.14,-198.5 1415.14,-198.5 1415.14,-179.5 1322.14,-179.5"/>
<text text-anchor="middle" x="1368.64" y="-186.5" font-family="Helvetica,sans-Serif" font-size="10.00">unordered_map</text>
</a>
</g>
</g>
<!-- Node18&#45;&gt;Node21 -->
<g id="edge25" class="edge">
<title>Node18&#45;&gt;Node21</title>
<path fill="none" stroke="midnightblue" d="M1200.33,-235.44C1234.7,-226.16 1289.71,-211.31 1327.43,-201.13"/>
<polygon fill="midnightblue" stroke="midnightblue" points="1328.35,-204.5 1337.09,-198.52 1326.53,-197.74 1328.35,-204.5"/>
</g>
<!-- Node26 -->
<g id="node17" class="node">
<title>Node26</title>
<g id="a_node17"><a xlink:href="../../d9/d3e/ublas__interface_8h.html" target="_top" xlink:title=" ">
<polygon fill="none" stroke="red" points="817.64,-179.5 817.64,-198.5 961.64,-198.5 961.64,-179.5 817.64,-179.5"/>
<text text-anchor="middle" x="889.64" y="-186.5" font-family="Helvetica,sans-Serif" font-size="10.00">includes/ublas_interface.h</text>
</a>
</g>
</g>
<!-- Node18&#45;&gt;Node26 -->
<g id="edge28" class="edge">
<title>Node18&#45;&gt;Node26</title>
<path fill="none" stroke="midnightblue" d="M1124.43,-235.44C1075.35,-225.94 996.13,-210.61 943.47,-200.42"/>
<polygon fill="midnightblue" stroke="midnightblue" points="944.12,-196.98 933.64,-198.52 942.79,-203.85 944.12,-196.98"/>
</g>
<!-- Node18&#45;&gt;Node52 -->
<g id="edge32" class="edge">
<title>Node18&#45;&gt;Node52</title>
<path fill="none" stroke="midnightblue" d="M1111.88,-237C1043.02,-228.49 923.07,-213.59 810.06,-199.18"/>
<polygon fill="midnightblue" stroke="midnightblue" points="810.21,-195.67 799.85,-197.87 809.32,-202.61 810.21,-195.67"/>
</g>
<!-- Node26&#45;&gt;Node2 -->
<g id="edge31" class="edge">
<title>Node26&#45;&gt;Node2</title>
<path fill="none" stroke="midnightblue" d="M961.8,-184.7C1177.23,-174.86 1813.08,-145.81 2011.67,-136.74"/>
<polygon fill="midnightblue" stroke="midnightblue" points="2012.08,-140.22 2021.91,-136.27 2011.76,-133.23 2012.08,-140.22"/>
</g>
<!-- Node26&#45;&gt;Node7 -->
<g id="edge30" class="edge">
<title>Node26&#45;&gt;Node7</title>
<path fill="none" stroke="midnightblue" d="M894,-179.4C905.14,-158.11 936.53,-102.14 975.64,-67 993.34,-51.09 1016.9,-38.09 1035.48,-29.27"/>
<polygon fill="midnightblue" stroke="midnightblue" points="1037.06,-32.4 1044.68,-25.04 1034.13,-26.04 1037.06,-32.4"/>
</g>
<!-- Node26&#45;&gt;Node12 -->
<g id="edge29" class="edge">
<title>Node26&#45;&gt;Node12</title>
<path fill="none" stroke="midnightblue" d="M851.91,-179.43C817.96,-171.32 766.89,-158.16 723.64,-143 643.62,-114.94 628.91,-94.31 548.64,-67 490.16,-47.11 419.73,-31.19 379.67,-22.85"/>
<polygon fill="midnightblue" stroke="midnightblue" points="380.19,-19.39 369.69,-20.81 378.78,-26.24 380.19,-19.39"/>
</g>
<!-- Node52&#45;&gt;Node7 -->
<g id="edge34" class="edge">
<title>Node52&#45;&gt;Node7</title>
<path fill="none" stroke="midnightblue" d="M753.67,-179.47C787.51,-159.04 876.55,-106.07 953.64,-67 980.98,-53.14 1012.93,-38.92 1035.69,-29.12"/>
<polygon fill="midnightblue" stroke="midnightblue" points="1037.33,-32.23 1045.14,-25.08 1034.57,-25.79 1037.33,-32.23"/>
</g>
<!-- Node52&#45;&gt;Node11 -->
<g id="edge35" class="edge">
<title>Node52&#45;&gt;Node11</title>
<path fill="none" stroke="midnightblue" d="M799.83,-179.96C802.8,-179.62 805.75,-179.3 808.64,-179 1335.56,-124.41 1472.72,-142.72 2002.63,-87.16"/>
<polygon fill="midnightblue" stroke="midnightblue" points="2003.25,-90.62 2012.83,-86.09 2002.52,-83.66 2003.25,-90.62"/>
</g>
<!-- Node52&#45;&gt;Node12 -->
<g id="edge33" class="edge">
<title>Node52&#45;&gt;Node12</title>
<path fill="none" stroke="midnightblue" d="M725.83,-179.36C691.21,-157.98 597.49,-101.81 513.64,-67 468.38,-48.21 413.61,-32.91 379.69,-24.25"/>
<polygon fill="midnightblue" stroke="midnightblue" points="380.42,-20.83 369.87,-21.78 378.71,-27.61 380.42,-20.83"/>
</g>
<!-- Node56&#45;&gt;Node2 -->
<g id="edge41" class="edge">
<title>Node56&#45;&gt;Node2</title>
<path fill="none" stroke="midnightblue" d="M1699.53,-499.18C1818.08,-495.23 2057.44,-483.85 2082.64,-456 2091.88,-445.78 2087.22,-437.99 2082.64,-425 2075.8,-405.62 2060.47,-408.38 2053.64,-389 2023.9,-304.68 2052.11,-195.15 2065.49,-152.31"/>
<polygon fill="midnightblue" stroke="midnightblue" points="2068.85,-153.29 2068.59,-142.7 2062.19,-151.14 2068.85,-153.29"/>
</g>
<!-- Node56&#45;&gt;Node4 -->
<g id="edge39" class="edge">
<title>Node56&#45;&gt;Node4</title>
<path fill="none" stroke="midnightblue" d="M1699.49,-497.66C1789.96,-492.38 1957.53,-480.14 2098.64,-456 2220.93,-435.08 2259.73,-446.56 2369.64,-389 2409.53,-368.11 2422.64,-360.71 2445.64,-322 2474.27,-273.8 2467.38,-254.71 2473.64,-199 2480.19,-140.7 2481.55,-125.13 2473.64,-67 2472.16,-56.13 2468.96,-44.29 2466,-34.81"/>
<polygon fill="midnightblue" stroke="midnightblue" points="2469.32,-33.69 2462.86,-25.29 2462.67,-35.88 2469.32,-33.69"/>
</g>
<!-- Node56&#45;&gt;Node7 -->
<g id="edge38" class="edge">
<title>Node56&#45;&gt;Node7</title>
<path fill="none" stroke="midnightblue" d="M1629.76,-492.04C1614.28,-455.36 1557.64,-312.84 1557.64,-190 1557.64,-190 1557.64,-190 1557.64,-132 1557.64,-98.08 1546.28,-85.17 1517.64,-67 1449.68,-23.9 1203.41,-17.42 1105.84,-16.57"/>
<polygon fill="midnightblue" stroke="midnightblue" points="1105.81,-13.07 1095.79,-16.5 1105.76,-20.07 1105.81,-13.07"/>
</g>
<!-- Node56&#45;&gt;Node12 -->
<g id="edge37" class="edge">
<title>Node56&#45;&gt;Node12</title>
<path fill="none" stroke="midnightblue" d="M1568.1,-498.52C1343.93,-489.98 620.24,-462 596.64,-456 465.26,-422.58 426.14,-409.54 322.64,-322 268.61,-276.31 233.64,-260.76 233.64,-190 233.64,-190 233.64,-190 233.64,-132 233.64,-83.2 285.83,-47.56 319.58,-29.61"/>
<polygon fill="midnightblue" stroke="midnightblue" points="321.25,-32.69 328.56,-25.02 318.06,-26.46 321.25,-32.69"/>
</g>
<!-- Node56&#45;&gt;Node17 -->
<g id="edge40" class="edge">
<title>Node56&#45;&gt;Node17</title>
<path fill="none" stroke="midnightblue" d="M1641.21,-492.26C1648.4,-483.58 1659.04,-469.63 1665.64,-456 1698.9,-387.25 1691.63,-364.13 1713.64,-291 1716.29,-282.17 1719.32,-272.4 1721.88,-264.23"/>
<polygon fill="midnightblue" stroke="midnightblue" points="1725.24,-265.2 1724.91,-254.61 1718.57,-263.1 1725.24,-265.2"/>
</g>
<!-- Node56&#45;&gt;Node57 -->
<g id="edge42" class="edge">
<title>Node56&#45;&gt;Node57</title>
<path fill="none" stroke="midnightblue" d="M1601.4,-492.48C1567.65,-483.55 1513.8,-469.31 1471.58,-458.14"/>
<polygon fill="midnightblue" stroke="midnightblue" points="1472.23,-454.7 1461.66,-455.52 1470.44,-461.46 1472.23,-454.7"/>
</g>
<!-- Node57&#45;&gt;Node2 -->
<g id="edge46" class="edge">
<title>Node57&#45;&gt;Node2</title>
<path fill="none" stroke="midnightblue" d="M1416.95,-425.35C1434.08,-397.09 1475.74,-332.82 1523.64,-291 1603.32,-221.43 1632.47,-209.88 1733.64,-179 1828.15,-150.15 1943.12,-139.79 2011.68,-136.08"/>
<polygon fill="midnightblue" stroke="midnightblue" points="2012.06,-139.56 2021.87,-135.55 2011.7,-132.57 2012.06,-139.56"/>
</g>
<!-- Node57&#45;&gt;Node7 -->
<g id="edge44" class="edge">
<title>Node57&#45;&gt;Node7</title>
<path fill="none" stroke="midnightblue" d="M1409.45,-425.38C1410.69,-408.91 1413.69,-381 1420.64,-358 1459.27,-230.15 1584.4,-166.8 1495.64,-67 1469.95,-38.11 1207.87,-23.04 1105.91,-18.24"/>
<polygon fill="midnightblue" stroke="midnightblue" points="1105.86,-14.73 1095.71,-17.76 1105.53,-21.72 1105.86,-14.73"/>
</g>
<!-- Node57&#45;&gt;Node11 -->
<g id="edge57" class="edge">
<title>Node57&#45;&gt;Node11</title>
<path fill="none" stroke="midnightblue" d="M1412.15,-425.35C1416.64,-408.61 1425.34,-380.21 1437.64,-358 1475.69,-289.25 1498.52,-277.46 1564.64,-235 1608.81,-206.63 1619.69,-197.97 1668.64,-179 1786.02,-133.51 1930.67,-103.1 2010.84,-88.35"/>
<polygon fill="midnightblue" stroke="midnightblue" points="2011.55,-91.78 2020.77,-86.55 2010.3,-84.89 2011.55,-91.78"/>
</g>
<!-- Node57&#45;&gt;Node12 -->
<g id="edge43" class="edge">
<title>Node57&#45;&gt;Node12</title>
<path fill="none" stroke="midnightblue" d="M1346.05,-427.88C1209.72,-400.96 878.01,-326.7 626.64,-199 523.32,-146.52 410.96,-64.5 366.89,-31.25"/>
<polygon fill="midnightblue" stroke="midnightblue" points="368.87,-28.35 358.78,-25.1 364.64,-33.93 368.87,-28.35"/>
</g>
<!-- Node57&#45;&gt;Node17 -->
<g id="edge45" class="edge">
<title>Node57&#45;&gt;Node17</title>
<path fill="none" stroke="midnightblue" d="M1428.69,-425.41C1467.94,-398.07 1558.04,-336.52 1637.64,-291 1657.98,-279.37 1681.72,-267.57 1699.71,-258.97"/>
<polygon fill="midnightblue" stroke="midnightblue" points="1701.51,-261.99 1709.05,-254.55 1698.51,-255.66 1701.51,-261.99"/>
</g>
<!-- Node57&#45;&gt;Node58 -->
<g id="edge47" class="edge">
<title>Node57&#45;&gt;Node58</title>
<path fill="none" stroke="midnightblue" d="M1346.02,-431C1256.56,-418.86 1092.7,-396.63 999.44,-383.97"/>
<polygon fill="midnightblue" stroke="midnightblue" points="999.64,-380.47 989.26,-382.59 998.7,-387.4 999.64,-380.47"/>
</g>
<!-- Node58&#45;&gt;Node2 -->
<g id="edge50" class="edge">
<title>Node58&#45;&gt;Node2</title>
<path fill="none" stroke="midnightblue" d="M952.26,-363.99C978.74,-354.02 1023.92,-336.93 1062.64,-322 1067.4,-320.16 1229.73,-258.29 1233.64,-255 1263.84,-229.57 1245.81,-199.36 1279.64,-179 1341.8,-141.6 1838.12,-135.28 2011.84,-134.22"/>
<polygon fill="midnightblue" stroke="midnightblue" points="2012.1,-137.71 2022.08,-134.16 2012.06,-130.71 2012.1,-137.71"/>
</g>
<!-- Node58&#45;&gt;Node7 -->
<g id="edge49" class="edge">
<title>Node58&#45;&gt;Node7</title>
<path fill="none" stroke="midnightblue" d="M931.73,-363.83C935.44,-348.83 943.61,-317.12 952.64,-291 986.7,-192.45 1037.5,-78.22 1057.31,-34.65"/>
<polygon fill="midnightblue" stroke="midnightblue" points="1060.58,-35.91 1061.55,-25.36 1054.21,-33 1060.58,-35.91"/>
</g>
<!-- Node58&#45;&gt;Node12 -->
<g id="edge48" class="edge">
<title>Node58&#45;&gt;Node12</title>
<path fill="none" stroke="midnightblue" d="M900.4,-363.92C821,-339.55 597.27,-263.81 447.64,-143 408.04,-111.03 374.26,-60.68 358,-34.17"/>
<polygon fill="midnightblue" stroke="midnightblue" points="360.8,-32.04 352.65,-25.27 354.8,-35.64 360.8,-32.04"/>
</g>
<!-- Node58&#45;&gt;Node73 -->
<g id="edge51" class="edge">
<title>Node58&#45;&gt;Node73</title>
<path fill="none" stroke="midnightblue" d="M940.16,-363.73C952.79,-353.21 974.18,-335.38 989.5,-322.62"/>
<polygon fill="midnightblue" stroke="midnightblue" points="991.84,-325.22 997.28,-316.13 987.36,-319.84 991.84,-325.22"/>
</g>
<!-- Node73&#45;&gt;Node2 -->
<g id="edge55" class="edge">
<title>Node73&#45;&gt;Node2</title>
<path fill="none" stroke="midnightblue" d="M1016.58,-296.96C1042.98,-272.45 1123.85,-202.18 1206.64,-179 1358.48,-136.49 1842.04,-133.43 2011.93,-133.71"/>
<polygon fill="midnightblue" stroke="midnightblue" points="2011.93,-137.21 2021.94,-133.73 2011.95,-130.21 2011.93,-137.21"/>
</g>
<!-- Node73&#45;&gt;Node7 -->
<g id="edge53" class="edge">
<title>Node73&#45;&gt;Node7</title>
<path fill="none" stroke="midnightblue" d="M1009.37,-296.85C1017.36,-257.05 1050.67,-91.05 1061.91,-35.05"/>
<polygon fill="midnightblue" stroke="midnightblue" points="1065.37,-35.61 1063.91,-25.12 1058.51,-34.23 1065.37,-35.61"/>
</g>
<!-- Node73&#45;&gt;Node12 -->
<g id="edge52" class="edge">
<title>Node73&#45;&gt;Node12</title>
<path fill="none" stroke="midnightblue" d="M992.17,-296.79C965.25,-281.97 907.66,-251.85 855.64,-235 775.95,-209.19 748,-231.13 670.64,-199 573.98,-158.86 568.2,-115.83 475.64,-67 444.16,-50.4 405.97,-36.02 379.54,-26.89"/>
<polygon fill="midnightblue" stroke="midnightblue" points="380.62,-23.56 370.03,-23.66 378.37,-30.19 380.62,-23.56"/>
</g>
<!-- Node73&#45;&gt;Node17 -->
<g id="edge54" class="edge">
<title>Node73&#45;&gt;Node17</title>
<path fill="none" stroke="midnightblue" d="M1053.77,-301.69C1186.94,-290.68 1570.13,-259.02 1690.79,-249.04"/>
<polygon fill="midnightblue" stroke="midnightblue" points="1691.31,-252.51 1700.99,-248.2 1690.73,-245.54 1691.31,-252.51"/>
</g>
<!-- Node73&#45;&gt;Node18 -->
<g id="edge56" class="edge">
<title>Node73&#45;&gt;Node18</title>
<path fill="none" stroke="midnightblue" d="M1030.7,-296.98C1058.32,-286.77 1104.76,-269.61 1136.03,-258.05"/>
<polygon fill="midnightblue" stroke="midnightblue" points="1137.45,-261.26 1145.61,-254.51 1135.02,-254.69 1137.45,-261.26"/>
</g>
<!-- Node82&#45;&gt;Node2 -->
<g id="edge64" class="edge">
<title>Node82&#45;&gt;Node2</title>
<path fill="none" stroke="midnightblue" d="M1712.19,-620.95C1749.83,-605.44 1832.47,-572.05 1903.64,-548 2082.92,-487.42 2196.03,-548.01 2298.64,-389 2357.04,-298.49 2264.88,-242.18 2177.64,-179 2157.51,-164.42 2131.93,-153.39 2110.95,-145.9"/>
<polygon fill="midnightblue" stroke="midnightblue" points="2111.96,-142.55 2101.36,-142.61 2109.68,-149.17 2111.96,-142.55"/>
</g>
<!-- Node82&#45;&gt;Node4 -->
<g id="edge62" class="edge">
<title>Node82&#45;&gt;Node4</title>
<path fill="none" stroke="midnightblue" d="M1739.98,-623.9C1862.89,-607.58 2192.76,-550.53 2407.64,-389 2506.84,-314.42 2497.06,-247.03 2492.64,-123 2491.75,-98.06 2495.92,-90.87 2488.64,-67 2485.01,-55.11 2478.17,-42.98 2472.05,-33.6"/>
<polygon fill="midnightblue" stroke="midnightblue" points="2474.85,-31.5 2466.31,-25.23 2469.08,-35.46 2474.85,-31.5"/>
</g>
<!-- Node82&#45;&gt;Node7 -->
<g id="edge61" class="edge">
<title>Node82&#45;&gt;Node7</title>
<path fill="none" stroke="midnightblue" d="M1687.8,-620.92C1679.92,-604.28 1660.3,-567.57 1632.64,-548 1520.16,-468.45 1417.77,-567.34 1336.64,-456 1328.52,-444.86 1333.28,-438.36 1336.64,-425 1364.36,-314.49 1429.91,-309.51 1457.64,-199 1471.91,-142.1 1496.38,-111.05 1457.64,-67 1434.62,-40.83 1201.32,-24.4 1105.94,-18.72"/>
<polygon fill="midnightblue" stroke="midnightblue" points="1106,-15.22 1095.81,-18.13 1105.59,-22.21 1106,-15.22"/>
</g>
<!-- Node82&#45;&gt;Node12 -->
<g id="edge60" class="edge">
<title>Node82&#45;&gt;Node12</title>
<path fill="none" stroke="midnightblue" d="M1643.63,-623.63C1601.13,-617.05 1538.33,-603.87 1488.64,-579 1469.15,-569.24 1470.62,-556.71 1450.64,-548 1343.69,-501.4 1306.06,-528.94 1190.64,-512 1133.23,-503.58 1119.34,-497.99 1061.64,-492 762.38,-460.91 678.46,-525.11 385.64,-456 251.55,-424.35 157.64,-383.77 157.64,-246 157.64,-246 157.64,-246 157.64,-132 157.64,-59.08 261.1,-30.88 315.33,-21.12"/>
<polygon fill="midnightblue" stroke="midnightblue" points="316.19,-24.52 325.47,-19.4 315.03,-17.62 316.19,-24.52"/>
</g>
<!-- Node82&#45;&gt;Node17 -->
<g id="edge63" class="edge">
<title>Node82&#45;&gt;Node17</title>
<path fill="none" stroke="midnightblue" d="M1695.91,-620.85C1705.44,-600.7 1727.64,-548.9 1727.64,-503 1727.64,-503 1727.64,-503 1727.64,-372.5 1727.64,-334.2 1727.64,-289.38 1727.64,-264.7"/>
<polygon fill="midnightblue" stroke="midnightblue" points="1731.14,-264.59 1727.64,-254.59 1724.14,-264.59 1731.14,-264.59"/>
</g>
<!-- Node82&#45;&gt;Node57 -->
<g id="edge74" class="edge">
<title>Node82&#45;&gt;Node57</title>
<path fill="none" stroke="midnightblue" d="M1691.33,-620.58C1690.26,-604 1685.64,-568.32 1665.64,-548 1630.44,-512.24 1605.2,-530.7 1558.64,-512 1519.24,-496.18 1475.44,-475.18 1445.39,-460.22"/>
<polygon fill="midnightblue" stroke="midnightblue" points="1446.65,-456.94 1436.14,-455.59 1443.51,-463.2 1446.65,-456.94"/>
</g>
<!-- Node82&#45;&gt;Node86 -->
<g id="edge65" class="edge">
<title>Node82&#45;&gt;Node86</title>
<path fill="none" stroke="midnightblue" d="M1708.16,-620.85C1739.32,-603.21 1803.64,-559.91 1803.64,-503 1803.64,-503 1803.64,-503 1803.64,-439.5 1803.64,-395.1 1837.34,-353.06 1861.26,-328.81"/>
<polygon fill="midnightblue" stroke="midnightblue" points="1863.95,-331.08 1868.63,-321.58 1859.04,-326.08 1863.95,-331.08"/>
</g>
<!-- Node89 -->
<g id="node25" class="node">
<title>Node89</title>
<g id="a_node25"><a xlink:href="../../d4/d67/geometry_8h.html" target="_top" xlink:title=" ">
<polygon fill="none" stroke="red" points="823.64,-554 823.64,-573 953.64,-573 953.64,-554 823.64,-554"/>
<text text-anchor="middle" x="888.64" y="-561" font-family="Helvetica,sans-Serif" font-size="10.00">geometries/geometry.h</text>
</a>
</g>
</g>
<!-- Node82&#45;&gt;Node89 -->
<g id="edge71" class="edge">
<title>Node82&#45;&gt;Node89</title>
<path fill="none" stroke="midnightblue" d="M1643.51,-625.6C1508.84,-614.7 1127.38,-583.83 964.2,-570.62"/>
<polygon fill="midnightblue" stroke="midnightblue" points="964.02,-567.09 953.77,-569.77 963.46,-574.07 964.02,-567.09"/>
</g>
<!-- Node82&#45;&gt;Node98 -->
<g id="edge75" class="edge">
<title>Node82&#45;&gt;Node98</title>
<path fill="none" stroke="midnightblue" d="M1674.24,-620.87C1654.99,-611.31 1623.37,-595.63 1598.37,-583.22"/>
<polygon fill="midnightblue" stroke="midnightblue" points="1599.67,-579.96 1589.16,-578.65 1596.56,-586.23 1599.67,-579.96"/>
</g>
<!-- Node86&#45;&gt;Node2 -->
<g id="edge70" class="edge">
<title>Node86&#45;&gt;Node2</title>
<path fill="none" stroke="midnightblue" d="M1883.57,-291.21C1882.45,-265.27 1884.01,-210.21 1913.64,-179 1938.91,-152.38 1978.69,-141.15 2012.02,-136.57"/>
<polygon fill="midnightblue" stroke="midnightblue" points="2012.62,-140.02 2022.13,-135.35 2011.79,-133.07 2012.62,-140.02"/>
</g>
<!-- Node86&#45;&gt;Node4 -->
<g id="edge68" class="edge">
<title>Node86&#45;&gt;Node4</title>
<path fill="none" stroke="midnightblue" d="M1921.43,-291.5C2003.11,-259.8 2204.73,-178.21 2361.64,-87 2390.86,-70.01 2422.16,-46.44 2441.32,-31.33"/>
<polygon fill="midnightblue" stroke="midnightblue" points="2443.58,-34.01 2449.22,-25.04 2439.22,-28.53 2443.58,-34.01"/>
</g>
<!-- Node86&#45;&gt;Node7 -->
<g id="edge67" class="edge">
<title>Node86&#45;&gt;Node7</title>
<path fill="none" stroke="midnightblue" d="M1871.4,-291.46C1853.46,-270.89 1823.64,-230.59 1823.64,-190 1823.64,-190 1823.64,-190 1823.64,-132 1823.64,-58.72 1262.86,-26.05 1105.98,-18.35"/>
<polygon fill="midnightblue" stroke="midnightblue" points="1105.98,-14.84 1095.82,-17.85 1105.64,-21.83 1105.98,-14.84"/>
</g>
<!-- Node86&#45;&gt;Node12 -->
<g id="edge66" class="edge">
<title>Node86&#45;&gt;Node12</title>
<path fill="none" stroke="midnightblue" d="M1832.03,-305.2C1679.56,-303.86 1239.62,-296.39 1102.64,-255 1037.83,-235.42 1032.89,-205.6 970.64,-179 807.94,-109.48 760.24,-110.06 588.64,-67 514.4,-48.37 426.11,-31.1 379.75,-22.39"/>
<polygon fill="midnightblue" stroke="midnightblue" points="380.17,-18.91 369.7,-20.52 378.89,-25.8 380.17,-18.91"/>
</g>
<!-- Node86&#45;&gt;Node17 -->
<g id="edge69" class="edge">
<title>Node86&#45;&gt;Node17</title>
<path fill="none" stroke="midnightblue" d="M1847.43,-291.4C1820.85,-281.33 1785.45,-267.91 1760.03,-258.28"/>
<polygon fill="midnightblue" stroke="midnightblue" points="1761.07,-254.93 1750.48,-254.66 1758.59,-261.47 1761.07,-254.93"/>
</g>
<!-- Node89&#45;&gt;Node52 -->
<g id="edge73" class="edge">
<title>Node89&#45;&gt;Node52</title>
<path fill="none" stroke="midnightblue" d="M841.25,-553.96C759.3,-538.12 596.69,-501.62 563.64,-456 495.8,-362.38 655.68,-244.54 716.96,-204.26"/>
<polygon fill="midnightblue" stroke="midnightblue" points="719.08,-207.05 725.57,-198.68 715.28,-201.17 719.08,-207.05"/>
</g>
<!-- Node89&#45;&gt;Node57 -->
<g id="edge72" class="edge">
<title>Node89&#45;&gt;Node57</title>
<path fill="none" stroke="midnightblue" d="M925.2,-553.99C1011.04,-534.02 1226.61,-483.86 1338.62,-457.79"/>
<polygon fill="midnightblue" stroke="midnightblue" points="1339.52,-461.18 1348.47,-455.5 1337.94,-454.36 1339.52,-461.18"/>
</g>
<!-- Node98&#45;&gt;Node2 -->
<g id="edge76" class="edge">
<title>Node98&#45;&gt;Node2</title>
<path fill="none" stroke="midnightblue" d="M1623.71,-559.69C1752.6,-552.47 2039.11,-528.47 2098.64,-456 2117.64,-432.86 2095.67,-418.67 2091.64,-389 2079.71,-301.32 2074.23,-195.64 2072.39,-153.1"/>
<polygon fill="midnightblue" stroke="midnightblue" points="2075.88,-152.69 2071.97,-142.85 2068.88,-152.98 2075.88,-152.69"/>
</g>
<!-- Node98&#45;&gt;Node56 -->
<g id="edge88" class="edge">
<title>Node98&#45;&gt;Node56</title>
<path fill="none" stroke="midnightblue" d="M1577.94,-548.4C1589.09,-539.31 1603.59,-527.49 1615,-518.19"/>
<polygon fill="midnightblue" stroke="midnightblue" points="1617.47,-520.69 1623.01,-511.66 1613.05,-515.26 1617.47,-520.69"/>
</g>
<!-- Node98&#45;&gt;Node58 -->
<g id="edge87" class="edge">
<title>Node98&#45;&gt;Node58</title>
<path fill="none" stroke="midnightblue" d="M1497.63,-550.47C1492.9,-549.62 1488.19,-548.78 1483.64,-548 1381.24,-530.38 1352.54,-540.57 1252.64,-512 1137.34,-479.03 1008.48,-415.52 955,-387.89"/>
<polygon fill="midnightblue" stroke="midnightblue" points="956.4,-384.67 945.92,-383.16 953.17,-390.88 956.4,-384.67"/>
</g>
<!-- Node99 -->
<g id="node27" class="node">
<title>Node99</title>
<g id="a_node27"><a xlink:href="../../d1/d77/node_8h.html" target="_top" xlink:title=" ">
<polygon fill="none" stroke="red" points="1262.14,-492.5 1262.14,-511.5 1355.14,-511.5 1355.14,-492.5 1262.14,-492.5"/>
<text text-anchor="middle" x="1308.64" y="-499.5" font-family="Helvetica,sans-Serif" font-size="10.00">includes/node.h</text>
</a>
</g>
</g>
<!-- Node98&#45;&gt;Node99 -->
<g id="edge77" class="edge">
<title>Node98&#45;&gt;Node99</title>
<path fill="none" stroke="midnightblue" d="M1501.24,-548.47C1456.34,-537.87 1395.6,-523.53 1354.43,-513.81"/>
<polygon fill="midnightblue" stroke="midnightblue" points="1355.2,-510.4 1344.66,-511.51 1353.59,-517.21 1355.2,-510.4"/>
</g>
<!-- Node99&#45;&gt;Node2 -->
<g id="edge82" class="edge">
<title>Node99&#45;&gt;Node2</title>
<path fill="none" stroke="midnightblue" d="M1355.35,-497.27C1391.88,-492.45 1442.51,-481.38 1479.64,-456 1517.06,-430.41 1569.74,-325.08 1599.64,-291 1623.48,-263.82 1629,-255.7 1658.64,-235 1681.61,-218.95 1744.9,-187.4 1771.64,-179 1852.5,-153.59 1950.26,-142.34 2011.71,-137.49"/>
<polygon fill="midnightblue" stroke="midnightblue" points="2012.29,-140.96 2022,-136.72 2011.76,-133.98 2012.29,-140.96"/>
</g>
<!-- Node99&#45;&gt;Node4 -->
<g id="edge80" class="edge">
<title>Node99&#45;&gt;Node4</title>
<path fill="none" stroke="midnightblue" d="M1355.47,-494.99C1459.77,-481.67 1719.13,-448.97 1936.64,-425 2016.99,-416.14 2233.36,-436.69 2298.64,-389 2420.75,-299.78 2451.28,-98.27 2457.95,-35.52"/>
<polygon fill="midnightblue" stroke="midnightblue" points="2461.47,-35.48 2458.96,-25.18 2454.51,-34.8 2461.47,-35.48"/>
</g>
<!-- Node99&#45;&gt;Node7 -->
<g id="edge79" class="edge">
<title>Node99&#45;&gt;Node7</title>
<path fill="none" stroke="midnightblue" d="M1262.03,-497.9C1235.53,-496.15 1201.73,-493.93 1171.64,-492 1107.75,-487.9 640.46,-502.66 596.64,-456 492.28,-344.91 572.9,-232.78 678.64,-123 711.32,-89.07 724.59,-83.71 768.64,-67 856.34,-33.74 966.92,-22.29 1025.28,-18.42"/>
<polygon fill="midnightblue" stroke="midnightblue" points="1025.79,-21.9 1035.55,-17.79 1025.36,-14.91 1025.79,-21.9"/>
</g>
<!-- Node99&#45;&gt;Node10 -->
<g id="edge83" class="edge">
<title>Node99&#45;&gt;Node10</title>
<path fill="none" stroke="midnightblue" d="M1262.03,-497.87C1235.53,-496.11 1201.73,-493.89 1171.64,-492 1104.76,-487.8 627.02,-490.6 569.64,-456 480.14,-402.05 475.79,-355.64 447.64,-255 434.97,-209.71 464.25,-165.99 485.64,-123 499.03,-96.07 499.24,-84.59 523.64,-67 554.74,-44.57 595.52,-32.08 630.29,-25.14"/>
<polygon fill="midnightblue" stroke="midnightblue" points="631.22,-28.53 640.4,-23.24 629.93,-21.65 631.22,-28.53"/>
</g>
<!-- Node99&#45;&gt;Node12 -->
<g id="edge78" class="edge">
<title>Node99&#45;&gt;Node12</title>
<path fill="none" stroke="midnightblue" d="M1262.04,-497.82C1235.54,-496.04 1201.73,-493.82 1171.64,-492 1027.68,-483.27 662.97,-493.23 523.64,-456 356.41,-411.32 195.64,-419.1 195.64,-246 195.64,-246 195.64,-246 195.64,-132 195.64,-101.2 198.1,-89.01 219.64,-67 245.52,-40.53 286.97,-27.61 315.66,-21.52"/>
<polygon fill="midnightblue" stroke="midnightblue" points="316.46,-24.93 325.6,-19.58 315.11,-18.06 316.46,-24.93"/>
</g>
<!-- Node99&#45;&gt;Node17 -->
<g id="edge81" class="edge">
<title>Node99&#45;&gt;Node17</title>
<path fill="none" stroke="midnightblue" d="M1355.16,-498.15C1398.46,-493.85 1463.64,-483.05 1513.64,-456 1606.22,-405.9 1686.08,-303.89 1715.54,-263.26"/>
<polygon fill="midnightblue" stroke="midnightblue" points="1718.52,-265.11 1721.49,-254.94 1712.83,-261.04 1718.52,-265.11"/>
</g>
<!-- Node99&#45;&gt;Node57 -->
<g id="edge84" class="edge">
<title>Node99&#45;&gt;Node57</title>
<path fill="none" stroke="midnightblue" d="M1322.96,-492.48C1336.76,-484.27 1358.12,-471.56 1376.06,-460.88"/>
<polygon fill="midnightblue" stroke="midnightblue" points="1378.26,-463.64 1385.07,-455.52 1374.69,-457.63 1378.26,-463.64"/>
</g>
<!-- Node99&#45;&gt;Node108 -->
<g id="edge85" class="edge">
<title>Node99&#45;&gt;Node108</title>
<path fill="none" stroke="midnightblue" d="M1355.17,-497.05C1474.18,-486.95 1790.37,-460.11 1935.25,-447.81"/>
<polygon fill="midnightblue" stroke="midnightblue" points="1935.71,-451.29 1945.38,-446.95 1935.12,-444.31 1935.71,-451.29"/>
</g>
<!-- Node108&#45;&gt;Node2 -->
<g id="edge86" class="edge">
<title>Node108&#45;&gt;Node2</title>
<path fill="none" stroke="midnightblue" d="M2008.18,-430.89C2002.87,-396.98 1986.83,-270 2027.64,-179 2032.84,-167.4 2042.41,-157.04 2051.29,-149.2"/>
<polygon fill="midnightblue" stroke="midnightblue" points="2053.63,-151.81 2059.12,-142.74 2049.18,-146.41 2053.63,-151.81"/>
</g>
<!-- Node109&#45;&gt;Node2 -->
<g id="edge90" class="edge">
<title>Node109&#45;&gt;Node2</title>
<path fill="none" stroke="midnightblue" d="M2242.49,-358.23C2254.57,-341.86 2270.27,-314.26 2260.64,-291 2251.98,-270.09 2240.42,-271.21 2224.64,-255 2192.18,-221.66 2189.4,-207.52 2152.64,-179 2136.27,-166.31 2115.88,-155 2099.66,-146.9"/>
<polygon fill="midnightblue" stroke="midnightblue" points="2101.17,-143.74 2090.64,-142.51 2098.1,-150.03 2101.17,-143.74"/>
</g>
<!-- Node109&#45;&gt;Node110 -->
<g id="edge91" class="edge">
<title>Node109&#45;&gt;Node110</title>
<path fill="none" stroke="midnightblue" d="M2223.69,-358.4C2219.71,-350.3 2214.61,-339.94 2210.05,-330.69"/>
<polygon fill="midnightblue" stroke="midnightblue" points="2213.12,-329 2205.57,-321.58 2206.84,-332.09 2213.12,-329"/>
</g>
<!-- Node110&#45;&gt;Node2 -->
<g id="edge94" class="edge">
<title>Node110&#45;&gt;Node2</title>
<path fill="none" stroke="midnightblue" d="M2193.54,-291.38C2184.13,-266.64 2162.15,-214.71 2131.64,-179 2121.32,-166.93 2107.22,-156.15 2095.28,-148.17"/>
<polygon fill="midnightblue" stroke="midnightblue" points="2096.98,-145.1 2086.67,-142.64 2093.19,-150.99 2096.98,-145.1"/>
</g>
<!-- Node110&#45;&gt;Node8 -->
<g id="edge92" class="edge">
<title>Node110&#45;&gt;Node8</title>
<path fill="none" stroke="midnightblue" d="M2197.99,-291.17C2195.84,-243.31 2188.9,-89.02 2186.48,-35.22"/>
<polygon fill="midnightblue" stroke="midnightblue" points="2189.97,-34.91 2186.02,-25.08 2182.98,-35.23 2189.97,-34.91"/>
</g>
<!-- Node110&#45;&gt;Node18 -->
<g id="edge95" class="edge">
<title>Node110&#45;&gt;Node18</title>
<path fill="none" stroke="midnightblue" d="M2145.79,-302.45C1973.28,-292.48 1426.8,-260.91 1235.53,-249.86"/>
<polygon fill="midnightblue" stroke="midnightblue" points="1235.53,-246.36 1225.34,-249.28 1235.12,-253.35 1235.53,-246.36"/>
</g>
<!-- Node110&#45;&gt;Node21 -->
<g id="edge93" class="edge">
<title>Node110&#45;&gt;Node21</title>
<path fill="none" stroke="midnightblue" d="M2146.07,-296.19C2064.26,-281.88 1901.45,-254.14 1762.64,-235 1643.11,-218.52 1502.58,-203.51 1425.82,-195.69"/>
<polygon fill="midnightblue" stroke="midnightblue" points="1425.73,-192.16 1415.43,-194.63 1425.02,-199.12 1425.73,-192.16"/>
</g>
<!-- Node111&#45;&gt;Node56 -->
<g id="edge97" class="edge">
<title>Node111&#45;&gt;Node56</title>
<path fill="none" stroke="midnightblue" d="M1422.03,-553.98C1465.86,-543.42 1540.6,-525.41 1588.52,-513.87"/>
<polygon fill="midnightblue" stroke="midnightblue" points="1589.41,-517.25 1598.31,-511.51 1587.77,-510.45 1589.41,-517.25"/>
</g>
<!-- Node124 -->
<g id="node32" class="node">
<title>Node124</title>
<g id="a_node32"><a xlink:href="../../db/d71/kratos__parameters_8h.html" target="_top" xlink:title=" ">
<polygon fill="none" stroke="red" points="892.14,-492.5 892.14,-511.5 1053.14,-511.5 1053.14,-492.5 892.14,-492.5"/>
<text text-anchor="middle" x="972.64" y="-499.5" font-family="Helvetica,sans-Serif" font-size="10.00">includes/kratos_parameters.h</text>
</a>
</g>
</g>
<!-- Node111&#45;&gt;Node124 -->
<g id="edge98" class="edge">
<title>Node111&#45;&gt;Node124</title>
<path fill="none" stroke="midnightblue" d="M1331.23,-554.54C1256.54,-543.8 1123.55,-524.69 1042.21,-513"/>
<polygon fill="midnightblue" stroke="midnightblue" points="1042.46,-509.5 1032.06,-511.54 1041.46,-516.43 1042.46,-509.5"/>
</g>
<!-- Node124&#45;&gt;Node18 -->
<g id="edge99" class="edge">
<title>Node124&#45;&gt;Node18</title>
<path fill="none" stroke="midnightblue" d="M1000.61,-492.42C1020.73,-485.17 1047.56,-473.21 1066.64,-456 1126.6,-401.9 1155.01,-304.78 1164.66,-264.4"/>
<polygon fill="midnightblue" stroke="midnightblue" points="1168.09,-265.12 1166.9,-254.6 1161.26,-263.57 1168.09,-265.12"/>
</g>
<!-- Node124&#45;&gt;Node26 -->
<g id="edge100" class="edge">
<title>Node124&#45;&gt;Node26</title>
<path fill="none" stroke="midnightblue" d="M958.53,-492.39C933.19,-475.99 880.74,-437.52 860.64,-389 847.15,-356.43 872.99,-251.4 884.5,-208.51"/>
<polygon fill="midnightblue" stroke="midnightblue" points="887.95,-209.16 887.21,-198.59 881.2,-207.32 887.95,-209.16"/>
</g>
<!-- Node128&#45;&gt;Node56 -->
<g id="edge102" class="edge">
<title>Node128&#45;&gt;Node56</title>
<path fill="none" stroke="midnightblue" d="M1275.91,-554.29C1351.18,-543.5 1483.3,-524.55 1564.19,-512.96"/>
<polygon fill="midnightblue" stroke="midnightblue" points="1564.87,-516.39 1574.27,-511.51 1563.88,-509.47 1564.87,-516.39"/>
</g>
<!-- Node128&#45;&gt;Node124 -->
<g id="edge103" class="edge">
<title>Node128&#45;&gt;Node124</title>
<path fill="none" stroke="midnightblue" d="M1183.39,-553.98C1139.73,-543.42 1065.29,-525.41 1017.57,-513.87"/>
<polygon fill="midnightblue" stroke="midnightblue" points="1018.36,-510.46 1007.82,-511.51 1016.71,-517.26 1018.36,-510.46"/>
</g>
<!-- Node129&#45;&gt;Node2 -->
<g id="edge109" class="edge">
<title>Node129&#45;&gt;Node2</title>
<path fill="none" stroke="midnightblue" d="M1588.14,-689.36C1688.26,-684.01 1875.51,-662.57 2007.64,-579 2069.12,-540.11 2089.99,-524.08 2115.64,-456 2157.14,-345.83 2101.76,-201.33 2079.85,-151.66"/>
<polygon fill="midnightblue" stroke="midnightblue" points="2083.04,-150.22 2075.73,-142.55 2076.66,-153.1 2083.04,-150.22"/>
</g>
<!-- Node129&#45;&gt;Node4 -->
<g id="edge107" class="edge">
<title>Node129&#45;&gt;Node4</title>
<path fill="none" stroke="midnightblue" d="M1588.48,-689.19C1667.8,-685.72 1800.48,-675.58 1910.64,-646 2162.7,-578.32 2248.21,-567.47 2438.64,-389 2466.34,-363.04 2475.3,-356.27 2491.64,-322 2519.17,-264.22 2509.78,-242.99 2508.64,-179 2507.75,-129.2 2523.19,-113.22 2504.64,-67 2499.17,-53.38 2488.31,-41.02 2478.63,-31.94"/>
<polygon fill="midnightblue" stroke="midnightblue" points="2480.73,-29.12 2470.92,-25.12 2476.1,-34.37 2480.73,-29.12"/>
</g>
<!-- Node129&#45;&gt;Node7 -->
<g id="edge106" class="edge">
<title>Node129&#45;&gt;Node7</title>
<path fill="none" stroke="midnightblue" d="M1448.83,-688.22C1338.88,-683.13 1135.55,-670.48 1113.64,-646 1030.56,-553.19 1491.1,-283.71 1423.64,-179 1351.96,-67.75 1183.51,-31.81 1105.98,-20.91"/>
<polygon fill="midnightblue" stroke="midnightblue" points="1106.04,-17.39 1095.67,-19.53 1105.12,-24.33 1106.04,-17.39"/>
</g>
<!-- Node129&#45;&gt;Node12 -->
<g id="edge105" class="edge">
<title>Node129&#45;&gt;Node12</title>
<path fill="none" stroke="midnightblue" d="M1449.07,-689.67C1323.99,-686.57 1053.02,-676.62 826.64,-646 680.92,-626.29 645.36,-614.4 502.64,-579 398.88,-553.27 369.88,-554.14 271.64,-512 138.12,-454.73 81.64,-391.28 81.64,-246 81.64,-246 81.64,-246 81.64,-132 81.64,-31.2 244.35,-17.42 315.26,-16.2"/>
<polygon fill="midnightblue" stroke="midnightblue" points="315.45,-19.7 325.42,-16.11 315.38,-12.7 315.45,-19.7"/>
</g>
<!-- Node129&#45;&gt;Node17 -->
<g id="edge108" class="edge">
<title>Node129&#45;&gt;Node17</title>
<path fill="none" stroke="midnightblue" d="M1588.14,-686.91C1648.25,-681.74 1728.56,-670.38 1748.64,-646 1844.11,-530.04 1763.52,-324.99 1736.01,-263.75"/>
<polygon fill="midnightblue" stroke="midnightblue" points="1739.16,-262.24 1731.81,-254.61 1732.8,-265.16 1739.16,-262.24"/>
</g>
<!-- Node129&#45;&gt;Node82 -->
<g id="edge112" class="edge">
<title>Node129&#45;&gt;Node82</title>
<path fill="none" stroke="midnightblue" d="M1543.42,-682.48C1573.23,-672.22 1623.43,-654.96 1657.04,-643.4"/>
<polygon fill="midnightblue" stroke="midnightblue" points="1658.58,-646.57 1666.9,-640.01 1656.3,-639.95 1658.58,-646.57"/>
</g>
<!-- Node129&#45;&gt;Node111 -->
<g id="edge111" class="edge">
<title>Node129&#45;&gt;Node111</title>
<path fill="none" stroke="midnightblue" d="M1509.56,-682.31C1487.62,-661.27 1431.39,-607.39 1403.23,-580.4"/>
<polygon fill="midnightblue" stroke="midnightblue" points="1405.41,-577.65 1395.77,-573.26 1400.57,-582.7 1405.41,-577.65"/>
</g>
<!-- Node129&#45;&gt;Node128 -->
<g id="edge110" class="edge">
<title>Node129&#45;&gt;Node128</title>
<path fill="none" stroke="midnightblue" d="M1498.02,-682.31C1445.98,-660.36 1309.15,-602.67 1248.41,-577.06"/>
<polygon fill="midnightblue" stroke="midnightblue" points="1249.58,-573.75 1239,-573.09 1246.86,-580.2 1249.58,-573.75"/>
</g>
<!-- Node113&#45;&gt;Node2 -->
<g id="edge117" class="edge">
<title>Node113&#45;&gt;Node2</title>
<path fill="none" stroke="midnightblue" d="M699.96,-432.1C714.89,-429.79 731.45,-427.26 746.64,-425 858.11,-408.41 889.16,-419.55 997.64,-389 1031.17,-379.56 1036.89,-369.9 1069.64,-358 1330.79,-263.12 1396.36,-234.42 1668.64,-179 1788.96,-154.51 1932.4,-142.5 2011.6,-137.34"/>
<polygon fill="midnightblue" stroke="midnightblue" points="2012.11,-140.81 2021.87,-136.68 2011.67,-133.82 2012.11,-140.81"/>
</g>
<!-- Node113&#45;&gt;Node7 -->
<g id="edge115" class="edge">
<title>Node113&#45;&gt;Node7</title>
<path fill="none" stroke="midnightblue" d="M650.53,-430.9C642.69,-397.01 617.62,-270.11 657.64,-179 671.17,-148.18 681.43,-142.82 708.64,-123 807.34,-51.09 954.64,-27.32 1025.16,-19.8"/>
<polygon fill="midnightblue" stroke="midnightblue" points="1025.8,-23.25 1035.4,-18.76 1025.1,-16.29 1025.8,-23.25"/>
</g>
<!-- Node113&#45;&gt;Node12 -->
<g id="edge114" class="edge">
<title>Node113&#45;&gt;Node12</title>
<path fill="none" stroke="midnightblue" d="M636.34,-430.88C617.99,-421.08 587.36,-404.42 561.64,-389 539.86,-375.94 536.92,-368.14 513.64,-358 453.95,-332 425.9,-357.97 371.64,-322 310.29,-281.33 271.64,-263.6 271.64,-190 271.64,-190 271.64,-190 271.64,-132 271.64,-101.2 278.84,-92.81 295.64,-67 304.5,-53.38 317.64,-40.66 328.5,-31.39"/>
<polygon fill="midnightblue" stroke="midnightblue" points="330.75,-34.07 336.25,-25.01 326.3,-28.66 330.75,-34.07"/>
</g>
<!-- Node113&#45;&gt;Node52 -->
<g id="edge116" class="edge">
<title>Node113&#45;&gt;Node52</title>
<path fill="none" stroke="midnightblue" d="M655.63,-430.91C668.08,-395.22 715.86,-258.18 733.26,-208.29"/>
<polygon fill="midnightblue" stroke="midnightblue" points="736.67,-209.15 736.65,-198.55 730.06,-206.84 736.67,-209.15"/>
</g>
<!-- Node113&#45;&gt;Node58 -->
<g id="edge118" class="edge">
<title>Node113&#45;&gt;Node58</title>
<path fill="none" stroke="midnightblue" d="M689.13,-430.94C739.06,-419.22 828.67,-398.19 883.29,-385.38"/>
<polygon fill="midnightblue" stroke="midnightblue" points="884.12,-388.78 893.06,-383.08 882.52,-381.96 884.12,-388.78"/>
</g>
<!-- Node130&#45;&gt;Node16 -->
<g id="edge127" class="edge">
<title>Node130&#45;&gt;Node16</title>
<path fill="none" stroke="midnightblue" d="M1465.84,-872.28C1459.91,-855.46 1452.86,-826.98 1462.64,-805 1469.32,-789.98 1482.91,-777.55 1495.03,-768.78"/>
<polygon fill="midnightblue" stroke="midnightblue" points="1497.16,-771.56 1503.48,-763.05 1493.24,-765.77 1497.16,-771.56"/>
</g>
<!-- Node130&#45;&gt;Node124 -->
<g id="edge133" class="edge">
<title>Node130&#45;&gt;Node124</title>
<path fill="none" stroke="midnightblue" d="M1414.88,-886.48C1168.71,-886.13 203.74,-881.84 159.64,-836 -62.53,-605.12 627.35,-528.92 882.06,-509.02"/>
<polygon fill="midnightblue" stroke="midnightblue" points="882.33,-512.51 892.03,-508.25 881.79,-505.53 882.33,-512.51"/>
</g>
<!-- Node131 -->
<g id="node37" class="node">
<title>Node131</title>
<g id="a_node37"><a xlink:href="../../d1/db8/openmp__utils_8h.html" target="_top" xlink:title=" ">
<polygon fill="none" stroke="red" points="169.14,-811 169.14,-830 300.14,-830 300.14,-811 169.14,-811"/>
<text text-anchor="middle" x="234.64" y="-818" font-family="Helvetica,sans-Serif" font-size="10.00">utilities/openmp_utils.h</text>
</a>
</g>
</g>
<!-- Node130&#45;&gt;Node131 -->
<g id="edge128" class="edge">
<title>Node130&#45;&gt;Node131</title>
<path fill="none" stroke="midnightblue" d="M1414.84,-886.74C1246.42,-886.88 735.24,-883.08 314.64,-836 305.16,-834.94 295.12,-833.43 285.47,-831.78"/>
<polygon fill="midnightblue" stroke="midnightblue" points="286.05,-828.33 275.59,-830.03 284.82,-835.22 286.05,-828.33"/>
</g>
<!-- Node62 -->
<g id="node38" class="node">
<title>Node62</title>
<g id="a_node38"><a xlink:href="../../de/d07/parallel__utilities_8h.html" target="_top" xlink:title=" ">
<polygon fill="none" stroke="red" points="2080.14,-738.5 2080.14,-768.5 2173.14,-768.5 2173.14,-738.5 2080.14,-738.5"/>
<text text-anchor="start" x="2088.14" y="-756.5" font-family="Helvetica,sans-Serif" font-size="10.00">utilities/parallel</text>
<text text-anchor="middle" x="2126.64" y="-745.5" font-family="Helvetica,sans-Serif" font-size="10.00">_utilities.h</text>
</a>
</g>
</g>
<!-- Node130&#45;&gt;Node62 -->
<g id="edge137" class="edge">
<title>Node130&#45;&gt;Node62</title>
<path fill="none" stroke="midnightblue" d="M1528.33,-875.07C1652.27,-850.1 1946.11,-790.88 2069.99,-765.91"/>
<polygon fill="midnightblue" stroke="midnightblue" points="2070.92,-769.3 2080.03,-763.89 2069.54,-762.44 2070.92,-769.3"/>
</g>
<!-- Node134 -->
<g id="node39" class="node">
<title>Node134</title>
<g id="a_node39"><a xlink:href="../../db/d20/entities__utilities_8h.html" target="_top" xlink:title=" ">
<polygon fill="none" stroke="black" points="1472.14,-805.5 1472.14,-835.5 1565.14,-835.5 1565.14,-805.5 1472.14,-805.5"/>
<text text-anchor="start" x="1480.14" y="-823.5" font-family="Helvetica,sans-Serif" font-size="10.00">utilities/entities</text>
<text text-anchor="middle" x="1518.64" y="-812.5" font-family="Helvetica,sans-Serif" font-size="10.00">_utilities.h</text>
</a>
</g>
</g>
<!-- Node130&#45;&gt;Node134 -->
<g id="edge134" class="edge">
<title>Node130&#45;&gt;Node134</title>
<path fill="none" stroke="midnightblue" d="M1481.84,-872.4C1487.87,-864.05 1495.65,-853.29 1502.5,-843.81"/>
<polygon fill="midnightblue" stroke="midnightblue" points="1505.44,-845.73 1508.46,-835.58 1499.76,-841.63 1505.44,-845.73"/>
</g>
<!-- Node131&#45;&gt;Node7 -->
<g id="edge129" class="edge">
<title>Node131&#45;&gt;Node7</title>
<path fill="none" stroke="midnightblue" d="M229.33,-810.76C198.48,-759.13 43.64,-487.89 43.64,-246 43.64,-246 43.64,-246 43.64,-188 43.64,-86.58 836.53,-30.77 1025.54,-18.91"/>
<polygon fill="midnightblue" stroke="midnightblue" points="1025.84,-22.39 1035.6,-18.28 1025.41,-15.41 1025.84,-22.39"/>
</g>
<!-- Node131&#45;&gt;Node62 -->
<g id="edge130" class="edge">
<title>Node131&#45;&gt;Node62</title>
<path fill="none" stroke="midnightblue" d="M300.31,-817.24C595.1,-807.12 1793.72,-765.94 2069.75,-756.45"/>
<polygon fill="midnightblue" stroke="midnightblue" points="2070.07,-759.95 2079.94,-756.1 2069.83,-752.95 2070.07,-759.95"/>
</g>
<!-- Node62&#45;&gt;Node2 -->
<g id="edge132" class="edge">
<title>Node62&#45;&gt;Node2</title>
<path fill="none" stroke="midnightblue" d="M2173.35,-747.63C2275.09,-735.72 2507.64,-700.9 2507.64,-631.5 2507.64,-631.5 2507.64,-631.5 2507.64,-501 2507.64,-413.83 2358.59,-223.49 2283.64,-179 2237.11,-151.38 2175.96,-140.59 2131.3,-136.44"/>
<polygon fill="midnightblue" stroke="midnightblue" points="2131.44,-132.94 2121.18,-135.59 2130.85,-139.92 2131.44,-132.94"/>
</g>
<!-- Node62&#45;&gt;Node7 -->
<g id="edge131" class="edge">
<title>Node62&#45;&gt;Node7</title>
<path fill="none" stroke="midnightblue" d="M2173.4,-750.05C2289.87,-742.68 2583.64,-715.73 2583.64,-631.5 2583.64,-631.5 2583.64,-631.5 2583.64,-501 2583.64,-379.71 2591.53,-334.82 2522.64,-235 2456.25,-138.82 2216.64,-82.83 2139.64,-67 1936.37,-25.22 1276.02,-17.92 1105.9,-16.72"/>
<polygon fill="midnightblue" stroke="midnightblue" points="1105.89,-13.22 1095.87,-16.66 1105.85,-20.22 1105.89,-13.22"/>
</g>
<!-- Node134&#45;&gt;Node16 -->
<g id="edge135" class="edge">
<title>Node134&#45;&gt;Node16</title>
<path fill="none" stroke="midnightblue" d="M1518.64,-805.4C1518.64,-796.06 1518.64,-783.71 1518.64,-773.52"/>
<polygon fill="midnightblue" stroke="midnightblue" points="1522.14,-773.19 1518.64,-763.19 1515.14,-773.19 1522.14,-773.19"/>
</g>
<!-- Node134&#45;&gt;Node62 -->
<g id="edge136" class="edge">
<title>Node134&#45;&gt;Node62</title>
<path fill="none" stroke="midnightblue" d="M1565.34,-814.51C1675.3,-802.75 1950.27,-773.35 2069.74,-760.58"/>
<polygon fill="midnightblue" stroke="midnightblue" points="2070.21,-764.05 2079.78,-759.51 2069.46,-757.09 2070.21,-764.05"/>
</g>
<!-- Node135&#45;&gt;Node2 -->
<g id="edge140" class="edge">
<title>Node135&#45;&gt;Node2</title>
<path fill="none" stroke="midnightblue" d="M2312.06,-882.7C2442.57,-872.93 2735.64,-841.33 2735.64,-754.5 2735.64,-754.5 2735.64,-754.5 2735.64,-439.5 2735.64,-246.3 2573.97,-230.04 2387.64,-179 2300.43,-155.12 2196.02,-143.4 2131.76,-138.04"/>
<polygon fill="midnightblue" stroke="midnightblue" points="2131.66,-134.52 2121.41,-137.2 2131.1,-141.5 2131.66,-134.52"/>
</g>
<!-- Node135&#45;&gt;Node26 -->
<g id="edge142" class="edge">
<title>Node135&#45;&gt;Node26</title>
<path fill="none" stroke="midnightblue" d="M2189.28,-884.94C1928.51,-878.24 919.2,-851.51 777.64,-836 615.86,-818.27 538.77,-877.69 417.64,-769 302.91,-666.06 290.24,-554.62 373.64,-425 429.61,-338 741.52,-235.44 851.36,-201.53"/>
<polygon fill="midnightblue" stroke="midnightblue" points="852.51,-204.83 861.04,-198.55 850.45,-198.14 852.51,-204.83"/>
</g>
<!-- Node135&#45;&gt;Node56 -->
<g id="edge141" class="edge">
<title>Node135&#45;&gt;Node56</title>
<path fill="none" stroke="midnightblue" d="M2267.41,-877.89C2281.87,-869.42 2301.79,-855.01 2310.64,-836 2316.45,-823.51 2317.77,-816.79 2310.64,-805 2181.05,-590.9 1857.71,-527.81 1709.73,-509.85"/>
<polygon fill="midnightblue" stroke="midnightblue" points="1709.73,-506.32 1699.39,-508.63 1708.91,-513.28 1709.73,-506.32"/>
</g>
<!-- Node135&#45;&gt;Node62 -->
<g id="edge148" class="edge">
<title>Node135&#45;&gt;Node62</title>
<path fill="none" stroke="midnightblue" d="M2238.97,-877.84C2226.41,-868.26 2206.16,-852.05 2190.64,-836 2172.64,-817.38 2154.65,-793.94 2142.35,-776.98"/>
<polygon fill="midnightblue" stroke="midnightblue" points="2145.13,-774.86 2136.47,-768.77 2139.44,-778.93 2145.13,-774.86"/>
</g>
<!-- Node136 -->
<g id="node41" class="node">
<title>Node136</title>
<g id="a_node41"><a xlink:title=" ">
<polygon fill="none" stroke="#bfbfbf" points="2357.64,-811 2357.64,-830 2413.64,-830 2413.64,-811 2357.64,-811"/>
<text text-anchor="middle" x="2385.64" y="-818" font-family="Helvetica,sans-Serif" font-size="10.00">numeric</text>
</a>
</g>
</g>
<!-- Node135&#45;&gt;Node136 -->
<g id="edge139" class="edge">
<title>Node135&#45;&gt;Node136</title>
<path fill="none" stroke="midnightblue" d="M2268.56,-877.87C2291.56,-866.8 2331.67,-847.49 2358.43,-834.6"/>
<polygon fill="midnightblue" stroke="midnightblue" points="2360.14,-837.66 2367.64,-830.17 2357.11,-831.35 2360.14,-837.66"/>
</g>
<!-- Node137 -->
<g id="node42" class="node">
<title>Node137</title>
<g id="a_node42"><a xlink:href="../../df/d22/matrix__market__interface_8h.html" target="_top" xlink:title=" ">
<polygon fill="none" stroke="red" points="2431.64,-805.5 2431.64,-835.5 2563.64,-835.5 2563.64,-805.5 2431.64,-805.5"/>
<text text-anchor="start" x="2439.64" y="-823.5" font-family="Helvetica,sans-Serif" font-size="10.00">includes/matrix_market</text>
<text text-anchor="middle" x="2497.64" y="-812.5" font-family="Helvetica,sans-Serif" font-size="10.00">_interface.h</text>
</a>
</g>
</g>
<!-- Node135&#45;&gt;Node137 -->
<g id="edge143" class="edge">
<title>Node135&#45;&gt;Node137</title>
<path fill="none" stroke="midnightblue" d="M2283.18,-877.94C2321.54,-867.84 2386.17,-850.83 2434.47,-838.12"/>
<polygon fill="midnightblue" stroke="midnightblue" points="2435.43,-841.49 2444.21,-835.56 2433.65,-834.72 2435.43,-841.49"/>
</g>
<!-- Node139 -->
<g id="node43" class="node">
<title>Node139</title>
<g id="a_node43"><a xlink:href="../../de/d6c/dof__updater_8h.html" target="_top" xlink:title=" ">
<polygon fill="none" stroke="black" points="2020.14,-811 2020.14,-830 2143.14,-830 2143.14,-811 2020.14,-811"/>
<text text-anchor="middle" x="2081.64" y="-818" font-family="Helvetica,sans-Serif" font-size="10.00">utilities/dof_updater.h</text>
</a>
</g>
</g>
<!-- Node135&#45;&gt;Node139 -->
<g id="edge144" class="edge">
<title>Node135&#45;&gt;Node139</title>
<path fill="none" stroke="midnightblue" d="M2228.19,-877.87C2198.82,-866.57 2147.15,-846.7 2113.66,-833.82"/>
<polygon fill="midnightblue" stroke="midnightblue" points="2114.49,-830.39 2103.9,-830.06 2111.98,-836.92 2114.49,-830.39"/>
</g>
<!-- Node140 -->
<g id="node44" class="node">
<title>Node140</title>
<g id="a_node44"><a xlink:href="../../d6/d05/reduction__utilities_8h.html" target="_top" xlink:title=" ">
<polygon fill="none" stroke="red" points="2199.64,-805.5 2199.64,-835.5 2301.64,-835.5 2301.64,-805.5 2199.64,-805.5"/>
<text text-anchor="start" x="2207.64" y="-823.5" font-family="Helvetica,sans-Serif" font-size="10.00">utilities/reduction</text>
<text text-anchor="middle" x="2250.64" y="-812.5" font-family="Helvetica,sans-Serif" font-size="10.00">_utilities.h</text>
</a>
</g>
</g>
<!-- Node135&#45;&gt;Node140 -->
<g id="edge149" class="edge">
<title>Node135&#45;&gt;Node140</title>
<path fill="none" stroke="midnightblue" d="M2250.64,-877.73C2250.64,-869.54 2250.64,-856.92 2250.64,-845.71"/>
<polygon fill="midnightblue" stroke="midnightblue" points="2254.14,-845.59 2250.64,-835.59 2247.14,-845.59 2254.14,-845.59"/>
</g>
<!-- Node139&#45;&gt;Node2 -->
<g id="edge145" class="edge">
<title>Node139&#45;&gt;Node2</title>
<path fill="none" stroke="midnightblue" d="M2143.32,-811.52C2285.01,-792.34 2621.64,-741.66 2621.64,-693 2621.64,-693 2621.64,-693 2621.64,-501 2621.64,-302.04 2488.89,-267.39 2310.64,-179 2253.84,-150.83 2181.45,-140.23 2131.29,-136.27"/>
<polygon fill="midnightblue" stroke="midnightblue" points="2131.48,-132.78 2121.26,-135.55 2130.98,-139.76 2131.48,-132.78"/>
</g>
<!-- Node139&#45;&gt;Node16 -->
<g id="edge146" class="edge">
<title>Node139&#45;&gt;Node16</title>
<path fill="none" stroke="midnightblue" d="M2020.05,-812.39C1915.46,-800.31 1703.62,-775.86 1591.71,-762.94"/>
<polygon fill="midnightblue" stroke="midnightblue" points="1591.87,-759.43 1581.53,-761.76 1591.06,-766.39 1591.87,-759.43"/>
</g>
<!-- Node139&#45;&gt;Node62 -->
<g id="edge147" class="edge">
<title>Node139&#45;&gt;Node62</title>
<path fill="none" stroke="midnightblue" d="M2087.71,-810.73C2093.67,-802.12 2103.02,-788.61 2111.07,-776.99"/>
<polygon fill="midnightblue" stroke="midnightblue" points="2114.07,-778.8 2116.88,-768.59 2108.31,-774.82 2114.07,-778.8"/>
</g>
<!-- Node140&#45;&gt;Node2 -->
<g id="edge150" class="edge">
<title>Node140&#45;&gt;Node2</title>
<path fill="none" stroke="midnightblue" d="M2302.06,-811.6C2350.41,-803.45 2424.44,-789.09 2486.64,-769 2566.55,-743.19 2659.64,-776.98 2659.64,-693 2659.64,-693 2659.64,-693 2659.64,-501 2659.64,-300.8 2535.4,-239.74 2344.64,-179 2273.22,-156.26 2187.44,-144.52 2131.34,-138.82"/>
<polygon fill="midnightblue" stroke="midnightblue" points="2131.51,-135.32 2121.22,-137.83 2130.83,-142.29 2131.51,-135.32"/>
</g>
<!-- Node140&#45;&gt;Node62 -->
<g id="edge151" class="edge">
<title>Node140&#45;&gt;Node62</title>
<path fill="none" stroke="midnightblue" d="M2223.73,-805.4C2205.78,-795.98 2181.96,-783.5 2162.42,-773.26"/>
<polygon fill="midnightblue" stroke="midnightblue" points="2163.97,-770.12 2153.49,-768.58 2160.72,-776.32 2163.97,-770.12"/>
</g>
<!-- Node142&#45;&gt;Node2 -->
<g id="edge153" class="edge">
<title>Node142&#45;&gt;Node2</title>
<path fill="none" stroke="midnightblue" d="M1029.37,-690.59C1217.73,-689.05 1687.59,-681.63 1748.64,-646 1779.2,-628.16 1772.94,-609.04 1791.64,-579 1862.11,-465.75 1883.14,-439.31 1946.64,-322 1980.23,-259.94 1971.72,-234.24 2015.64,-179 2025.07,-167.14 2038.16,-156.4 2049.32,-148.39"/>
<polygon fill="midnightblue" stroke="midnightblue" points="2051.5,-151.14 2057.74,-142.58 2047.52,-145.37 2051.5,-151.14"/>
</g>
<!-- Node116 -->
<g id="node46" class="node">
<title>Node116</title>
<g id="a_node46"><a xlink:href="../../de/dca/variables_8h.html" target="_top" xlink:title=" ">
<polygon fill="none" stroke="red" points="755.64,-431 755.64,-450 869.64,-450 869.64,-431 755.64,-431"/>
<text text-anchor="middle" x="812.64" y="-438" font-family="Helvetica,sans-Serif" font-size="10.00">includes/variables.h</text>
</a>
</g>
</g>
<!-- Node142&#45;&gt;Node116 -->
<g id="edge154" class="edge">
<title>Node142&#45;&gt;Node116</title>
<path fill="none" stroke="midnightblue" d="M874.06,-686.49C813.83,-681.18 737.33,-669.84 717.64,-646 667.36,-585.14 755.24,-493.27 794.81,-457.01"/>
<polygon fill="midnightblue" stroke="midnightblue" points="797.36,-459.43 802.46,-450.14 792.68,-454.22 797.36,-459.43"/>
</g>
<!-- Node143 -->
<g id="node47" class="node">
<title>Node143</title>
<g id="a_node47"><a xlink:href="../../d3/dec/kratos__application_8h.html" target="_top" xlink:title=" ">
<polygon fill="none" stroke="red" points="1123.14,-621 1123.14,-640 1282.14,-640 1282.14,-621 1123.14,-621"/>
<text text-anchor="middle" x="1202.64" y="-628" font-family="Helvetica,sans-Serif" font-size="10.00">includes/kratos_application.h</text>
</a>
</g>
</g>
<!-- Node142&#45;&gt;Node143 -->
<g id="edge160" class="edge">
<title>Node142&#45;&gt;Node143</title>
<path fill="none" stroke="midnightblue" d="M987.6,-682.48C1032.15,-671.92 1108.1,-653.91 1156.79,-642.37"/>
<polygon fill="midnightblue" stroke="midnightblue" points="1157.82,-645.72 1166.74,-640.01 1156.2,-638.91 1157.82,-645.72"/>
</g>
<!-- Node116&#45;&gt;Node2 -->
<g id="edge157" class="edge">
<title>Node116&#45;&gt;Node2</title>
<path fill="none" stroke="midnightblue" d="M869.85,-435.32C923.36,-429.8 1004.56,-417.22 1069.64,-389 1163.11,-348.47 1182.9,-326.35 1255.64,-255 1285.78,-225.43 1275.45,-198.99 1312.64,-179 1373.56,-146.25 1843.57,-136.96 2011.9,-134.67"/>
<polygon fill="midnightblue" stroke="midnightblue" points="2012.12,-138.17 2022.07,-134.54 2012.03,-131.17 2012.12,-138.17"/>
</g>
<!-- Node116&#45;&gt;Node7 -->
<g id="edge156" class="edge">
<title>Node116&#45;&gt;Node7</title>
<path fill="none" stroke="midnightblue" d="M801.09,-430.94C757.69,-397.69 609.83,-274.32 670.64,-179 710.9,-115.88 933.41,-51.23 1025.61,-26.74"/>
<polygon fill="midnightblue" stroke="midnightblue" points="1026.63,-30.09 1035.41,-24.16 1024.85,-23.32 1026.63,-30.09"/>
</g>
<!-- Node116&#45;&gt;Node12 -->
<g id="edge155" class="edge">
<title>Node116&#45;&gt;Node12</title>
<path fill="none" stroke="midnightblue" d="M787.94,-430.99C697.51,-399.29 386.95,-285.42 333.64,-199 301.43,-146.79 325.75,-69.56 339.67,-34.72"/>
<polygon fill="midnightblue" stroke="midnightblue" points="342.96,-35.92 343.58,-25.34 336.5,-33.22 342.96,-35.92"/>
</g>
<!-- Node116&#45;&gt;Node26 -->
<g id="edge159" class="edge">
<title>Node116&#45;&gt;Node26</title>
<path fill="none" stroke="midnightblue" d="M812.48,-430.86C812.3,-407.6 813.49,-341.95 830.64,-291 841.38,-259.08 862.97,-226.12 876.84,-206.87"/>
<polygon fill="midnightblue" stroke="midnightblue" points="879.83,-208.72 882.95,-198.59 874.2,-204.56 879.83,-208.72"/>
</g>
<!-- Node116&#45;&gt;Node58 -->
<g id="edge158" class="edge">
<title>Node116&#45;&gt;Node58</title>
<path fill="none" stroke="midnightblue" d="M828.42,-430.73C848.15,-419.77 882.15,-400.88 905.25,-388.05"/>
<polygon fill="midnightblue" stroke="midnightblue" points="907.07,-391.04 914.11,-383.13 903.67,-384.92 907.07,-391.04"/>
</g>
<!-- Node143&#45;&gt;Node2 -->
<g id="edge163" class="edge">
<title>Node143&#45;&gt;Node2</title>
<path fill="none" stroke="midnightblue" d="M1190.32,-620.85C1169.69,-605.32 1132.3,-572.1 1152.64,-548 1183.31,-511.65 1317.78,-524.63 1363.64,-512 1430.24,-493.65 1452.57,-496.36 1508.64,-456 1612.14,-381.5 1584.47,-304.13 1691.64,-235 1745.34,-200.36 1923.75,-162.36 2015.73,-144.45"/>
<polygon fill="midnightblue" stroke="midnightblue" points="2016.55,-147.86 2025.7,-142.52 2015.22,-140.98 2016.55,-147.86"/>
</g>
<!-- Node143&#45;&gt;Node7 -->
<g id="edge162" class="edge">
<title>Node143&#45;&gt;Node7</title>
<path fill="none" stroke="midnightblue" d="M1123.05,-623.75C1044.04,-616.97 919.85,-603.4 814.64,-579 724.14,-558.01 700.92,-551.08 616.64,-512 572.86,-491.71 559.08,-488.73 523.64,-456 453.47,-391.21 457.46,-350 447.64,-255 441.36,-194.27 439.56,-163.05 485.64,-123 528.24,-85.96 545.42,-82.72 599.64,-67 752.38,-22.7 943.5,-16.61 1025.38,-16.2"/>
<polygon fill="midnightblue" stroke="midnightblue" points="1025.51,-19.7 1035.5,-16.18 1025.49,-12.7 1025.51,-19.7"/>
</g>
<!-- Node143&#45;&gt;Node12 -->
<g id="edge161" class="edge">
<title>Node143&#45;&gt;Node12</title>
<path fill="none" stroke="midnightblue" d="M1122.69,-623.21C1001.49,-613.38 776.97,-593.96 697.64,-579 406.3,-524.05 119.64,-542.47 119.64,-246 119.64,-246 119.64,-246 119.64,-132 119.64,-101.2 120.69,-87.53 143.64,-67 191.87,-23.85 271.2,-16.25 315.38,-15.65"/>
<polygon fill="midnightblue" stroke="midnightblue" points="315.56,-19.15 325.55,-15.63 315.54,-12.15 315.56,-19.15"/>
</g>
<!-- Node143&#45;&gt;Node98 -->
<g id="edge166" class="edge">
<title>Node143&#45;&gt;Node98</title>
<path fill="none" stroke="midnightblue" d="M1249.81,-620.94C1310.34,-609.94 1416.01,-590.76 1487.13,-577.85"/>
<polygon fill="midnightblue" stroke="midnightblue" points="1488.15,-581.22 1497.37,-575.99 1486.9,-574.33 1488.15,-581.22"/>
</g>
<!-- Node143&#45;&gt;Node111 -->
<g id="edge164" class="edge">
<title>Node143&#45;&gt;Node111</title>
<path fill="none" stroke="midnightblue" d="M1227.07,-620.87C1259.33,-609.47 1316.28,-589.35 1352.7,-576.49"/>
<polygon fill="midnightblue" stroke="midnightblue" points="1354.13,-579.69 1362.39,-573.06 1351.8,-573.09 1354.13,-579.69"/>
</g>
<!-- Node143&#45;&gt;Node128 -->
<g id="edge165" class="edge">
<title>Node143&#45;&gt;Node128</title>
<path fill="none" stroke="midnightblue" d="M1204.79,-620.73C1207.17,-611.09 1211.06,-595.3 1214.11,-582.91"/>
<polygon fill="midnightblue" stroke="midnightblue" points="1217.52,-583.67 1216.51,-573.13 1210.72,-582 1217.52,-583.67"/>
</g>
<!-- Node207&#45;&gt;Node16 -->
<g id="edge172" class="edge">
<title>Node207&#45;&gt;Node16</title>
<path fill="none" stroke="midnightblue" d="M904.18,-813.85C1026.99,-801.98 1311.21,-774.53 1445.65,-761.55"/>
<polygon fill="midnightblue" stroke="midnightblue" points="1446.23,-765.01 1455.85,-760.56 1445.56,-758.04 1446.23,-765.01"/>
</g>
<!-- Node207&#45;&gt;Node21 -->
<g id="edge168" class="edge">
<title>Node207&#45;&gt;Node21</title>
<path fill="none" stroke="midnightblue" d="M842.99,-805.37C838.71,-777.92 833.65,-717 864.64,-682 906.08,-635.19 953.14,-686.66 1000.64,-646 1036.77,-615.07 1017.76,-587.91 1043.64,-548 1140.1,-399.25 1298.6,-252.27 1351.12,-205.39"/>
<polygon fill="midnightblue" stroke="midnightblue" points="1353.46,-207.99 1358.62,-198.74 1348.82,-202.76 1353.46,-207.99"/>
</g>
<!-- Node207&#45;&gt;Node26 -->
<g id="edge173" class="edge">
<title>Node207&#45;&gt;Node26</title>
<path fill="none" stroke="midnightblue" d="M786.96,-819.71C633.78,-818.7 233.64,-805.29 233.64,-693 233.64,-693 233.64,-693 233.64,-372.5 233.64,-311.01 666.94,-228.92 829.23,-200.34"/>
<polygon fill="midnightblue" stroke="midnightblue" points="830.28,-203.71 839.52,-198.53 829.07,-196.81 830.28,-203.71"/>
</g>
<!-- Node207&#45;&gt;Node89 -->
<g id="edge169" class="edge">
<title>Node207&#45;&gt;Node89</title>
<path fill="none" stroke="midnightblue" d="M786.83,-816.65C677.32,-810.73 451.06,-795.43 427.64,-769 418.5,-758.69 419.8,-749.33 427.64,-738 515.09,-611.64 706.93,-577.19 813.51,-567.88"/>
<polygon fill="midnightblue" stroke="midnightblue" points="813.87,-571.36 823.55,-567.05 813.29,-564.38 813.87,-571.36"/>
</g>
<!-- Node207&#45;&gt;Node99 -->
<g id="edge171" class="edge">
<title>Node207&#45;&gt;Node99</title>
<path fill="none" stroke="midnightblue" d="M904.25,-815.17C978.14,-806.14 1095.64,-778.37 1095.64,-693 1095.64,-693 1095.64,-693 1095.64,-629.5 1095.64,-591.74 1092.24,-573.99 1119.64,-548 1138.54,-530.07 1203.47,-517.39 1251.99,-510.15"/>
<polygon fill="midnightblue" stroke="midnightblue" points="1252.67,-513.59 1262.07,-508.69 1251.67,-506.66 1252.67,-513.59"/>
</g>
<!-- Node207&#45;&gt;Node142 -->
<g id="edge177" class="edge">
<title>Node207&#45;&gt;Node142</title>
<path fill="none" stroke="midnightblue" d="M857.39,-805.48C877.06,-782 916.58,-734.84 937.65,-709.69"/>
<polygon fill="midnightblue" stroke="midnightblue" points="940.53,-711.7 944.27,-701.79 935.17,-707.21 940.53,-711.7"/>
</g>
<!-- Node107 -->
<g id="node49" class="node">
<title>Node107</title>
<g id="a_node49"><a xlink:href="../../d9/d48/key__hash_8h.html" target="_top" xlink:title=" ">
<polygon fill="none" stroke="red" points="437.14,-744 437.14,-763 552.14,-763 552.14,-744 437.14,-744"/>
<text text-anchor="middle" x="494.64" y="-751" font-family="Helvetica,sans-Serif" font-size="10.00">includes/key_hash.h</text>
</a>
</g>
</g>
<!-- Node207&#45;&gt;Node107 -->
<g id="edge170" class="edge">
<title>Node207&#45;&gt;Node107</title>
<path fill="none" stroke="midnightblue" d="M787.06,-809.24C730.56,-799.27 642.67,-783.53 566.64,-769 560.07,-767.75 553.18,-766.4 546.37,-765.04"/>
<polygon fill="midnightblue" stroke="midnightblue" points="546.98,-761.6 536.49,-763.07 545.61,-768.46 546.98,-761.6"/>
</g>
<!-- Node208 -->
<g id="node50" class="node">
<title>Node208</title>
<g id="a_node50"><a xlink:href="../../d6/d22/modified__shape__functions_8h.html" target="_top" xlink:title=" ">
<polygon fill="none" stroke="red" points="835.64,-615.5 835.64,-645.5 991.64,-645.5 991.64,-615.5 835.64,-615.5"/>
<text text-anchor="start" x="843.64" y="-633.5" font-family="Helvetica,sans-Serif" font-size="10.00">modified_shape_functions</text>
<text text-anchor="middle" x="913.64" y="-622.5" font-family="Helvetica,sans-Serif" font-size="10.00">/modified_shape_functions.h</text>
</a>
</g>
</g>
<!-- Node207&#45;&gt;Node208 -->
<g id="edge174" class="edge">
<title>Node207&#45;&gt;Node208</title>
<path fill="none" stroke="midnightblue" d="M839.06,-805.15C828.08,-778.86 809.29,-722.01 831.64,-682 839.26,-668.35 852.26,-657.93 865.68,-650.21"/>
<polygon fill="midnightblue" stroke="midnightblue" points="867.33,-653.3 874.52,-645.52 864.04,-647.12 867.33,-653.3"/>
</g>
<!-- Node208&#45;&gt;Node89 -->
<g id="edge176" class="edge">
<title>Node208&#45;&gt;Node89</title>
<path fill="none" stroke="midnightblue" d="M908.21,-615.4C904.51,-605.76 899.57,-592.91 895.57,-582.54"/>
<polygon fill="midnightblue" stroke="midnightblue" points="898.84,-581.27 891.98,-573.19 892.3,-583.78 898.84,-581.27"/>
</g>
<!-- Node208&#45;&gt;Node99 -->
<g id="edge175" class="edge">
<title>Node208&#45;&gt;Node99</title>
<path fill="none" stroke="midnightblue" d="M937.57,-615.45C969.43,-597.32 1028.01,-565.99 1081.64,-548 1112.54,-537.63 1195.46,-522.33 1252.05,-512.51"/>
<polygon fill="midnightblue" stroke="midnightblue" points="1252.68,-515.96 1261.94,-510.81 1251.49,-509.06 1252.68,-515.96"/>
</g>
</g>
</svg>
