<?xml version="1.0" encoding="UTF-8" standalone="no"?>
<!DOCTYPE svg PUBLIC "-//W3C//DTD SVG 1.1//EN"
 "http://www.w3.org/Graphics/SVG/1.1/DTD/svg11.dtd">
<!-- Generated by graphviz version 2.43.0 (0)
 -->
<!-- Title: /home/runner/work/Documentation/Documentation/master/kratos/includes/parallel_environment.h Pages: 1 -->
<svg width="3295pt" height="1034pt"
 viewBox="0.00 0.00 3295.00 1034.00" xmlns="http://www.w3.org/2000/svg" xmlns:xlink="http://www.w3.org/1999/xlink">
<g id="graph0" class="graph" transform="scale(1 1) rotate(0) translate(4 1030)">
<title>/home/runner/work/Documentation/Documentation/master/kratos/includes/parallel_environment.h</title>
<!-- Node1 -->
<g id="node1" class="node">
<title>Node1</title>
<g id="a_node1"><a xlink:title=" ">
<polygon fill="#bfbfbf" stroke="black" points="1195.5,-984.5 1195.5,-1025.5 1382.5,-1025.5 1382.5,-984.5 1195.5,-984.5"/>
<text text-anchor="start" x="1203.5" y="-1013.5" font-family="Helvetica,sans-Serif" font-size="10.00">/home/runner/work/Documentation</text>
<text text-anchor="start" x="1203.5" y="-1002.5" font-family="Helvetica,sans-Serif" font-size="10.00">/Documentation/master/kratos</text>
<text text-anchor="middle" x="1289" y="-991.5" font-family="Helvetica,sans-Serif" font-size="10.00">/includes/parallel_environment.h</text>
</a>
</g>
</g>
<!-- Node2 -->
<g id="node2" class="node">
<title>Node2</title>
<g id="a_node2"><a xlink:title=" ">
<polygon fill="none" stroke="#bfbfbf" points="547,-6 547,-25 591,-25 591,-6 547,-6"/>
<text text-anchor="middle" x="569" y="-13" font-family="Helvetica,sans-Serif" font-size="10.00">string</text>
</a>
</g>
</g>
<!-- Node1&#45;&gt;Node2 -->
<g id="edge1" class="edge">
<title>Node1&#45;&gt;Node2</title>
<path fill="none" stroke="midnightblue" d="M1195.26,-1000.11C898.64,-987.18 0,-943.06 0,-883 0,-883 0,-883 0,-143 0,-103.52 12.58,-88.02 46,-67 128.24,-15.28 435.66,-14.67 536.64,-15.92"/>
<polygon fill="midnightblue" stroke="midnightblue" points="536.78,-19.42 546.83,-16.06 536.88,-12.42 536.78,-19.42"/>
</g>
<!-- Node3 -->
<g id="node3" class="node">
<title>Node3</title>
<g id="a_node3"><a xlink:title=" ">
<polygon fill="none" stroke="#bfbfbf" points="2419,-6 2419,-25 2479,-25 2479,-6 2419,-6"/>
<text text-anchor="middle" x="2449" y="-13" font-family="Helvetica,sans-Serif" font-size="10.00">iostream</text>
</a>
</g>
</g>
<!-- Node1&#45;&gt;Node3 -->
<g id="edge2" class="edge">
<title>Node1&#45;&gt;Node3</title>
<path fill="none" stroke="midnightblue" d="M1382.68,-1003.88C1699.07,-1003.02 2726.33,-996.49 3053,-948 3159.77,-932.15 3287,-990.94 3287,-883 3287,-883 3287,-883 3287,-271.5 3287,-148.04 3215.15,-108.86 3099,-67 2985.96,-26.26 2613.34,-18.36 2489.45,-16.85"/>
<polygon fill="midnightblue" stroke="midnightblue" points="2489.31,-13.35 2479.27,-16.73 2489.23,-20.35 2489.31,-13.35"/>
</g>
<!-- Node4 -->
<g id="node4" class="node">
<title>Node4</title>
<g id="a_node4"><a xlink:title=" ">
<polygon fill="none" stroke="#bfbfbf" points="1288.5,-324.5 1288.5,-343.5 1381.5,-343.5 1381.5,-324.5 1288.5,-324.5"/>
<text text-anchor="middle" x="1335" y="-331.5" font-family="Helvetica,sans-Serif" font-size="10.00">unordered_map</text>
</a>
</g>
</g>
<!-- Node1&#45;&gt;Node4 -->
<g id="edge3" class="edge">
<title>Node1&#45;&gt;Node4</title>
<path fill="none" stroke="midnightblue" d="M1270.26,-984.38C1250.75,-961.81 1223,-922.72 1223,-883 1223,-883 1223,-883 1223,-517.5 1223,-446.52 1285.3,-379.9 1316.97,-350.62"/>
<polygon fill="midnightblue" stroke="midnightblue" points="1319.58,-352.98 1324.66,-343.69 1314.89,-347.78 1319.58,-352.98"/>
</g>
<!-- Node5 -->
<g id="node5" class="node">
<title>Node5</title>
<g id="a_node5"><a xlink:href="../../df/d67/define_8h.html" target="_top" xlink:title=" ">
<polygon fill="none" stroke="black" points="1826.5,-196 1826.5,-215 1925.5,-215 1925.5,-196 1826.5,-196"/>
<text text-anchor="middle" x="1876" y="-203" font-family="Helvetica,sans-Serif" font-size="10.00">includes/define.h</text>
</a>
</g>
</g>
<!-- Node1&#45;&gt;Node5 -->
<g id="edge4" class="edge">
<title>Node1&#45;&gt;Node5</title>
<path fill="none" stroke="midnightblue" d="M1382.55,-1003.18C1772.56,-999.16 3249,-977.69 3249,-883 3249,-883 3249,-883 3249,-769 3249,-547.35 2603.84,-325.38 2393,-257 2309.42,-229.89 2053.51,-214.79 1936.06,-209.13"/>
<polygon fill="midnightblue" stroke="midnightblue" points="1935.97,-205.62 1925.82,-208.64 1935.64,-212.61 1935.97,-205.62"/>
</g>
<!-- Node17 -->
<g id="node17" class="node">
<title>Node17</title>
<g id="a_node17"><a xlink:href="../../d9/dd1/data__communicator_8h.html" target="_top" xlink:title=" ">
<polygon fill="none" stroke="black" points="950,-576 950,-595 1116,-595 1116,-576 950,-576"/>
<text text-anchor="middle" x="1033" y="-583" font-family="Helvetica,sans-Serif" font-size="10.00">includes/data_communicator.h</text>
</a>
</g>
</g>
<!-- Node1&#45;&gt;Node17 -->
<g id="edge27" class="edge">
<title>Node1&#45;&gt;Node17</title>
<path fill="none" stroke="midnightblue" d="M1195.28,-989.31C1136.2,-974.11 1071,-943.6 1071,-883 1071,-883 1071,-883 1071,-707.5 1071,-669.31 1053.56,-627.33 1042.31,-604.22"/>
<polygon fill="midnightblue" stroke="midnightblue" points="1045.29,-602.36 1037.66,-595.02 1039.04,-605.52 1045.29,-602.36"/>
</g>
<!-- Node58 -->
<g id="node34" class="node">
<title>Node58</title>
<g id="a_node34"><a xlink:href="../../dc/d5b/fill__communicator_8h.html" target="_top" xlink:title=" ">
<polygon fill="none" stroke="black" points="1278,-928.5 1278,-947.5 1434,-947.5 1434,-928.5 1278,-928.5"/>
<text text-anchor="middle" x="1356" y="-935.5" font-family="Helvetica,sans-Serif" font-size="10.00">includes/fill_communicator.h</text>
</a>
</g>
</g>
<!-- Node1&#45;&gt;Node58 -->
<g id="edge76" class="edge">
<title>Node1&#45;&gt;Node58</title>
<path fill="none" stroke="midnightblue" d="M1309.1,-984.5C1318.88,-975.01 1330.48,-963.76 1339.7,-954.81"/>
<polygon fill="midnightblue" stroke="midnightblue" points="1342.34,-957.13 1347.08,-947.65 1337.47,-952.1 1342.34,-957.13"/>
</g>
<!-- Node6 -->
<g id="node6" class="node">
<title>Node6</title>
<g id="a_node6"><a xlink:title=" ">
<polygon fill="none" stroke="#bfbfbf" points="2132.5,-73 2132.5,-92 2197.5,-92 2197.5,-73 2132.5,-73"/>
<text text-anchor="middle" x="2165" y="-80" font-family="Helvetica,sans-Serif" font-size="10.00">stdexcept</text>
</a>
</g>
</g>
<!-- Node5&#45;&gt;Node6 -->
<g id="edge5" class="edge">
<title>Node5&#45;&gt;Node6</title>
<path fill="none" stroke="midnightblue" d="M1896.32,-195.99C1946.36,-175.04 2075.74,-120.87 2134.8,-96.14"/>
<polygon fill="midnightblue" stroke="midnightblue" points="2136.44,-99.25 2144.31,-92.16 2133.74,-92.79 2136.44,-99.25"/>
</g>
<!-- Node7 -->
<g id="node7" class="node">
<title>Node7</title>
<g id="a_node7"><a xlink:title=" ">
<polygon fill="none" stroke="#bfbfbf" points="2760,-73 2760,-92 2816,-92 2816,-73 2760,-73"/>
<text text-anchor="middle" x="2788" y="-80" font-family="Helvetica,sans-Serif" font-size="10.00">sstream</text>
</a>
</g>
</g>
<!-- Node5&#45;&gt;Node7 -->
<g id="edge6" class="edge">
<title>Node5&#45;&gt;Node7</title>
<path fill="none" stroke="midnightblue" d="M1925.71,-203.04C2060.59,-198.11 2443.99,-177.59 2751,-98 2753.66,-97.31 2756.39,-96.48 2759.11,-95.58"/>
<polygon fill="midnightblue" stroke="midnightblue" points="2760.51,-98.79 2768.7,-92.07 2758.11,-92.22 2760.51,-98.79"/>
</g>
<!-- Node8 -->
<g id="node8" class="node">
<title>Node8</title>
<g id="a_node8"><a xlink:href="../../dc/d25/kratos__export__api_8h.html" target="_top" xlink:title=" ">
<polygon fill="none" stroke="black" points="1791,-0.5 1791,-30.5 1919,-30.5 1919,-0.5 1791,-0.5"/>
<text text-anchor="start" x="1799" y="-18.5" font-family="Helvetica,sans-Serif" font-size="10.00">includes/kratos_export</text>
<text text-anchor="middle" x="1855" y="-7.5" font-family="Helvetica,sans-Serif" font-size="10.00">_api.h</text>
</a>
</g>
</g>
<!-- Node5&#45;&gt;Node8 -->
<g id="edge7" class="edge">
<title>Node5&#45;&gt;Node8</title>
<path fill="none" stroke="midnightblue" d="M1863.28,-195.78C1840.93,-179.6 1795.35,-142.48 1778,-98 1772.99,-85.16 1771.45,-79.12 1778,-67 1785.16,-53.74 1797.48,-43.4 1810.2,-35.63"/>
<polygon fill="midnightblue" stroke="midnightblue" points="1812.02,-38.62 1819.01,-30.65 1808.58,-32.52 1812.02,-38.62"/>
</g>
<!-- Node9 -->
<g id="node9" class="node">
<title>Node9</title>
<g id="a_node9"><a xlink:href="../../d9/dc0/smart__pointers_8h.html" target="_top" xlink:title=" ">
<polygon fill="none" stroke="black" points="1461.5,-134.5 1461.5,-153.5 1604.5,-153.5 1604.5,-134.5 1461.5,-134.5"/>
<text text-anchor="middle" x="1533" y="-141.5" font-family="Helvetica,sans-Serif" font-size="10.00">includes/smart_pointers.h</text>
</a>
</g>
</g>
<!-- Node5&#45;&gt;Node9 -->
<g id="edge8" class="edge">
<title>Node5&#45;&gt;Node9</title>
<path fill="none" stroke="midnightblue" d="M1826.86,-195.98C1764.84,-185.22 1658.27,-166.73 1591.94,-155.22"/>
<polygon fill="midnightblue" stroke="midnightblue" points="1592.5,-151.77 1582.05,-153.51 1591.31,-158.67 1592.5,-151.77"/>
</g>
<!-- Node13 -->
<g id="node13" class="node">
<title>Node13</title>
<g id="a_node13"><a xlink:href="../../dd/d2d/exception_8h.html" target="_top" xlink:title=" ">
<polygon fill="none" stroke="black" points="2208.5,-134.5 2208.5,-153.5 2325.5,-153.5 2325.5,-134.5 2208.5,-134.5"/>
<text text-anchor="middle" x="2267" y="-141.5" font-family="Helvetica,sans-Serif" font-size="10.00">includes/exception.h</text>
</a>
</g>
</g>
<!-- Node5&#45;&gt;Node13 -->
<g id="edge13" class="edge">
<title>Node5&#45;&gt;Node13</title>
<path fill="none" stroke="midnightblue" d="M1925.52,-196.96C1995.34,-186.34 2122.86,-166.93 2200.76,-155.08"/>
<polygon fill="midnightblue" stroke="midnightblue" points="2201.58,-158.5 2210.94,-153.53 2200.53,-151.57 2201.58,-158.5"/>
</g>
<!-- Node9&#45;&gt;Node3 -->
<g id="edge9" class="edge">
<title>Node9&#45;&gt;Node3</title>
<path fill="none" stroke="midnightblue" d="M1604.67,-135.4C1717.7,-123.35 1925.42,-100.93 1933,-98 1954.98,-89.52 1954,-75.42 1976,-67 2054.79,-36.85 2309.08,-22.66 2408.57,-18.16"/>
<polygon fill="midnightblue" stroke="midnightblue" points="2408.97,-21.64 2418.81,-17.7 2408.66,-14.65 2408.97,-21.64"/>
</g>
<!-- Node10 -->
<g id="node10" class="node">
<title>Node10</title>
<g id="a_node10"><a xlink:title=" ">
<polygon fill="none" stroke="#bfbfbf" points="1390.5,-73 1390.5,-92 1435.5,-92 1435.5,-73 1390.5,-73"/>
<text text-anchor="middle" x="1413" y="-80" font-family="Helvetica,sans-Serif" font-size="10.00">utility</text>
</a>
</g>
</g>
<!-- Node9&#45;&gt;Node10 -->
<g id="edge10" class="edge">
<title>Node9&#45;&gt;Node10</title>
<path fill="none" stroke="midnightblue" d="M1515.81,-134.48C1495.76,-124.53 1462.4,-107.99 1439.14,-96.46"/>
<polygon fill="midnightblue" stroke="midnightblue" points="1440.68,-93.32 1430.16,-92.01 1437.57,-99.59 1440.68,-93.32"/>
</g>
<!-- Node11 -->
<g id="node11" class="node">
<title>Node11</title>
<g id="a_node11"><a xlink:title=" ">
<polygon fill="none" stroke="#bfbfbf" points="1596,-73 1596,-92 1654,-92 1654,-73 1596,-73"/>
<text text-anchor="middle" x="1625" y="-80" font-family="Helvetica,sans-Serif" font-size="10.00">memory</text>
</a>
</g>
</g>
<!-- Node9&#45;&gt;Node11 -->
<g id="edge11" class="edge">
<title>Node9&#45;&gt;Node11</title>
<path fill="none" stroke="midnightblue" d="M1546.18,-134.48C1561.07,-124.84 1585.54,-109.02 1603.27,-97.55"/>
<polygon fill="midnightblue" stroke="midnightblue" points="1605.35,-100.38 1611.84,-92.01 1601.55,-94.5 1605.35,-100.38"/>
</g>
<!-- Node12 -->
<g id="node12" class="node">
<title>Node12</title>
<g id="a_node12"><a xlink:title=" ">
<polygon fill="none" stroke="#bfbfbf" points="1454,-67.5 1454,-97.5 1578,-97.5 1578,-67.5 1454,-67.5"/>
<text text-anchor="start" x="1462" y="-85.5" font-family="Helvetica,sans-Serif" font-size="10.00">intrusive_ptr/intrusive</text>
<text text-anchor="middle" x="1516" y="-74.5" font-family="Helvetica,sans-Serif" font-size="10.00">_ptr.hpp</text>
</a>
</g>
</g>
<!-- Node9&#45;&gt;Node12 -->
<g id="edge12" class="edge">
<title>Node9&#45;&gt;Node12</title>
<path fill="none" stroke="midnightblue" d="M1530.56,-134.48C1528.54,-127.4 1525.56,-116.97 1522.83,-107.39"/>
<polygon fill="midnightblue" stroke="midnightblue" points="1526.12,-106.18 1520.01,-97.52 1519.39,-108.1 1526.12,-106.18"/>
</g>
<!-- Node13&#45;&gt;Node2 -->
<g id="edge15" class="edge">
<title>Node13&#45;&gt;Node2</title>
<path fill="none" stroke="midnightblue" d="M2208.23,-142.67C2115.59,-141.03 1930.44,-133.15 1778,-98 1740.03,-89.25 1734.16,-74.86 1696,-67 1478.71,-22.25 763.42,-17.15 601.7,-16.57"/>
<polygon fill="midnightblue" stroke="midnightblue" points="601.45,-13.07 591.44,-16.54 601.43,-20.07 601.45,-13.07"/>
</g>
<!-- Node13&#45;&gt;Node3 -->
<g id="edge16" class="edge">
<title>Node13&#45;&gt;Node3</title>
<path fill="none" stroke="midnightblue" d="M2273.41,-134.48C2285.2,-119.27 2311.7,-87.19 2340,-67 2362.92,-50.65 2391.99,-37.49 2414.34,-28.72"/>
<polygon fill="midnightblue" stroke="midnightblue" points="2415.68,-31.95 2423.78,-25.11 2413.19,-25.41 2415.68,-31.95"/>
</g>
<!-- Node13&#45;&gt;Node6 -->
<g id="edge14" class="edge">
<title>Node13&#45;&gt;Node6</title>
<path fill="none" stroke="midnightblue" d="M2252.39,-134.48C2235.65,-124.71 2208,-108.58 2188.28,-97.08"/>
<polygon fill="midnightblue" stroke="midnightblue" points="2189.99,-94.02 2179.59,-92.01 2186.46,-100.07 2189.99,-94.02"/>
</g>
<!-- Node13&#45;&gt;Node7 -->
<g id="edge17" class="edge">
<title>Node13&#45;&gt;Node7</title>
<path fill="none" stroke="midnightblue" d="M2325.59,-142.82C2417.48,-141.36 2600.54,-133.72 2751,-98 2753.83,-97.33 2756.74,-96.48 2759.61,-95.54"/>
<polygon fill="midnightblue" stroke="midnightblue" points="2760.93,-98.79 2769.12,-92.07 2758.53,-92.21 2760.93,-98.79"/>
</g>
<!-- Node13&#45;&gt;Node8 -->
<g id="edge19" class="edge">
<title>Node13&#45;&gt;Node8</title>
<path fill="none" stroke="midnightblue" d="M2262.87,-134.15C2254.74,-117.8 2234.97,-83.11 2207,-67 2161.02,-40.52 2018.11,-26.84 1929.16,-20.7"/>
<polygon fill="midnightblue" stroke="midnightblue" points="1929.33,-17.2 1919.12,-20.02 1928.86,-24.19 1929.33,-17.2"/>
</g>
<!-- Node14 -->
<g id="node14" class="node">
<title>Node14</title>
<g id="a_node14"><a xlink:title=" ">
<polygon fill="none" stroke="#bfbfbf" points="2941.5,-6 2941.5,-25 2988.5,-25 2988.5,-6 2941.5,-6"/>
<text text-anchor="middle" x="2965" y="-13" font-family="Helvetica,sans-Serif" font-size="10.00">vector</text>
</a>
</g>
</g>
<!-- Node13&#45;&gt;Node14 -->
<g id="edge18" class="edge">
<title>Node13&#45;&gt;Node14</title>
<path fill="none" stroke="midnightblue" d="M2300.87,-134.42C2361.54,-119.26 2492.87,-87.44 2605,-67 2724.15,-45.29 2866.95,-27.75 2931,-20.33"/>
<polygon fill="midnightblue" stroke="midnightblue" points="2931.77,-23.76 2941.31,-19.14 2930.97,-16.81 2931.77,-23.76"/>
</g>
<!-- Node15 -->
<g id="node15" class="node">
<title>Node15</title>
<g id="a_node15"><a xlink:href="../../da/da6/code__location_8h.html" target="_top" xlink:title=" ">
<polygon fill="none" stroke="black" points="1786.5,-73 1786.5,-92 1923.5,-92 1923.5,-73 1786.5,-73"/>
<text text-anchor="middle" x="1855" y="-80" font-family="Helvetica,sans-Serif" font-size="10.00">includes/code_location.h</text>
</a>
</g>
</g>
<!-- Node13&#45;&gt;Node15 -->
<g id="edge20" class="edge">
<title>Node13&#45;&gt;Node15</title>
<path fill="none" stroke="midnightblue" d="M2208.41,-134.54C2133.42,-123.71 2003.69,-104.97 1924,-93.46"/>
<polygon fill="midnightblue" stroke="midnightblue" points="1924.45,-89.99 1914.06,-92.03 1923.45,-96.92 1924.45,-89.99"/>
</g>
<!-- Node16 -->
<g id="node16" class="node">
<title>Node16</title>
<g id="a_node16"><a xlink:href="../../d9/d06/stl__vector__io_8h.html" target="_top" xlink:title=" ">
<polygon fill="none" stroke="black" points="2614,-73 2614,-92 2742,-92 2742,-73 2614,-73"/>
<text text-anchor="middle" x="2678" y="-80" font-family="Helvetica,sans-Serif" font-size="10.00">utilities/stl_vector_io.h</text>
</a>
</g>
</g>
<!-- Node13&#45;&gt;Node16 -->
<g id="edge24" class="edge">
<title>Node13&#45;&gt;Node16</title>
<path fill="none" stroke="midnightblue" d="M2325.89,-134.48C2400.81,-123.63 2530,-104.93 2609.33,-93.44"/>
<polygon fill="midnightblue" stroke="midnightblue" points="2609.83,-96.91 2619.22,-92.01 2608.82,-89.98 2609.83,-96.91"/>
</g>
<!-- Node15&#45;&gt;Node2 -->
<g id="edge21" class="edge">
<title>Node15&#45;&gt;Node2</title>
<path fill="none" stroke="midnightblue" d="M1812.5,-72.97C1799.55,-70.67 1785.23,-68.43 1772,-67 1309.16,-17.07 741.21,-15.79 601.28,-16.31"/>
<polygon fill="midnightblue" stroke="midnightblue" points="601.21,-12.81 591.22,-16.35 601.24,-19.81 601.21,-12.81"/>
</g>
<!-- Node15&#45;&gt;Node3 -->
<g id="edge22" class="edge">
<title>Node15&#45;&gt;Node3</title>
<path fill="none" stroke="midnightblue" d="M1900.14,-72.99C1912.39,-70.85 1925.68,-68.68 1938,-67 2112.67,-43.15 2322.4,-26.01 2408.8,-19.45"/>
<polygon fill="midnightblue" stroke="midnightblue" points="2409.25,-22.92 2418.96,-18.68 2408.72,-15.94 2409.25,-22.92"/>
</g>
<!-- Node15&#45;&gt;Node8 -->
<g id="edge23" class="edge">
<title>Node15&#45;&gt;Node8</title>
<path fill="none" stroke="midnightblue" d="M1855,-72.73C1855,-64.54 1855,-51.92 1855,-40.71"/>
<polygon fill="midnightblue" stroke="midnightblue" points="1858.5,-40.59 1855,-30.59 1851.5,-40.59 1858.5,-40.59"/>
</g>
<!-- Node16&#45;&gt;Node3 -->
<g id="edge25" class="edge">
<title>Node16&#45;&gt;Node3</title>
<path fill="none" stroke="midnightblue" d="M2647.59,-72.87C2606.76,-61.28 2534.13,-40.66 2488.93,-27.83"/>
<polygon fill="midnightblue" stroke="midnightblue" points="2489.75,-24.43 2479.17,-25.06 2487.83,-31.16 2489.75,-24.43"/>
</g>
<!-- Node16&#45;&gt;Node14 -->
<g id="edge26" class="edge">
<title>Node16&#45;&gt;Node14</title>
<path fill="none" stroke="midnightblue" d="M2715.82,-72.94C2772.18,-60.17 2877.36,-36.35 2931.26,-24.14"/>
<polygon fill="midnightblue" stroke="midnightblue" points="2932.35,-27.48 2941.33,-21.86 2930.8,-20.66 2932.35,-27.48"/>
</g>
<!-- Node17&#45;&gt;Node2 -->
<g id="edge28" class="edge">
<title>Node17&#45;&gt;Node2</title>
<path fill="none" stroke="midnightblue" d="M949.72,-578.76C730.11,-561.34 152,-499.83 152,-335 152,-335 152,-335 152,-143 152,-104.41 162.15,-88.79 194,-67 249.52,-29.02 456.22,-19.49 536.67,-17.19"/>
<polygon fill="midnightblue" stroke="midnightblue" points="536.81,-20.69 546.72,-16.93 536.63,-13.69 536.81,-20.69"/>
</g>
<!-- Node17&#45;&gt;Node3 -->
<g id="edge29" class="edge">
<title>Node17&#45;&gt;Node3</title>
<path fill="none" stroke="midnightblue" d="M1116.14,-582.43C1263.79,-578 1565.7,-565.32 1666,-534 1873.96,-469.06 1928.84,-434.6 2090,-288 2152.22,-231.4 2139.51,-192.44 2200,-134 2238.74,-96.57 2252.67,-90.78 2301,-67 2336.13,-49.72 2378.64,-35.88 2409.07,-27.09"/>
<polygon fill="midnightblue" stroke="midnightblue" points="2410.23,-30.4 2418.9,-24.31 2408.33,-23.67 2410.23,-30.4"/>
</g>
<!-- Node17&#45;&gt;Node5 -->
<g id="edge51" class="edge">
<title>Node17&#45;&gt;Node5</title>
<path fill="none" stroke="midnightblue" d="M1033.91,-575.66C1037.63,-544.24 1054.46,-436.79 1115,-380 1143.09,-353.65 1241.67,-333.48 1279,-324 1371.63,-300.48 1400.68,-319.25 1491,-288 1518.25,-278.57 1520.68,-266.22 1548,-257 1638.42,-226.49 1749.15,-214.32 1816.05,-209.53"/>
<polygon fill="midnightblue" stroke="midnightblue" points="1816.66,-213 1826.4,-208.82 1816.19,-206.01 1816.66,-213"/>
</g>
<!-- Node18 -->
<g id="node18" class="node">
<title>Node18</title>
<g id="a_node18"><a xlink:title=" ">
<polygon fill="none" stroke="#bfbfbf" points="1124.5,-380.5 1124.5,-399.5 1193.5,-399.5 1193.5,-380.5 1124.5,-380.5"/>
<text text-anchor="middle" x="1159" y="-387.5" font-family="Helvetica,sans-Serif" font-size="10.00">type_traits</text>
</a>
</g>
</g>
<!-- Node17&#45;&gt;Node18 -->
<g id="edge30" class="edge">
<title>Node17&#45;&gt;Node18</title>
<path fill="none" stroke="midnightblue" d="M1038.58,-575.94C1057.8,-546.41 1121.56,-448.5 1147.68,-408.38"/>
<polygon fill="midnightblue" stroke="midnightblue" points="1150.68,-410.2 1153.2,-399.91 1144.81,-406.38 1150.68,-410.2"/>
</g>
<!-- Node19 -->
<g id="node19" class="node">
<title>Node19</title>
<g id="a_node19"><a xlink:href="../../d9/d36/array__1d_8h.html" target="_top" xlink:title=" ">
<polygon fill="none" stroke="black" points="648,-324.5 648,-343.5 770,-343.5 770,-324.5 648,-324.5"/>
<text text-anchor="middle" x="709" y="-331.5" font-family="Helvetica,sans-Serif" font-size="10.00">containers/array_1d.h</text>
</a>
</g>
</g>
<!-- Node17&#45;&gt;Node19 -->
<g id="edge31" class="edge">
<title>Node17&#45;&gt;Node19</title>
<path fill="none" stroke="midnightblue" d="M959.23,-575.99C899.64,-567.81 821.76,-553.78 797,-534 738.59,-487.33 717.89,-393.87 711.51,-353.87"/>
<polygon fill="midnightblue" stroke="midnightblue" points="714.96,-353.27 710.05,-343.89 708.04,-354.29 714.96,-353.27"/>
</g>
<!-- Node41 -->
<g id="node28" class="node">
<title>Node41</title>
<g id="a_node28"><a xlink:href="../../d9/da0/flags_8h.html" target="_top" xlink:title=" ">
<polygon fill="none" stroke="black" points="1782.5,-324.5 1782.5,-343.5 1885.5,-343.5 1885.5,-324.5 1782.5,-324.5"/>
<text text-anchor="middle" x="1834" y="-331.5" font-family="Helvetica,sans-Serif" font-size="10.00">containers/flags.h</text>
</a>
</g>
</g>
<!-- Node17&#45;&gt;Node41 -->
<g id="edge47" class="edge">
<title>Node17&#45;&gt;Node41</title>
<path fill="none" stroke="midnightblue" d="M1076.51,-575.97C1153.7,-560.03 1318.82,-522.26 1450,-467 1521.38,-436.93 1528.42,-407.05 1601,-380 1631.68,-368.56 1714.09,-353.98 1772.17,-344.57"/>
<polygon fill="midnightblue" stroke="midnightblue" points="1773.03,-347.97 1782.35,-342.93 1771.92,-341.06 1773.03,-347.97"/>
</g>
<!-- Node42 -->
<g id="node29" class="node">
<title>Node42</title>
<g id="a_node29"><a xlink:href="../../da/dae/mpi__serializer_8h.html" target="_top" xlink:title=" ">
<polygon fill="none" stroke="black" points="806.5,-509 806.5,-528 943.5,-528 943.5,-509 806.5,-509"/>
<text text-anchor="middle" x="875" y="-516" font-family="Helvetica,sans-Serif" font-size="10.00">includes/mpi_serializer.h</text>
</a>
</g>
</g>
<!-- Node17&#45;&gt;Node42 -->
<g id="edge52" class="edge">
<title>Node17&#45;&gt;Node42</title>
<path fill="none" stroke="midnightblue" d="M1012.02,-575.87C984.75,-564.65 936.93,-544.98 905.61,-532.09"/>
<polygon fill="midnightblue" stroke="midnightblue" points="906.65,-528.74 896.07,-528.17 903.98,-535.21 906.65,-528.74"/>
</g>
<!-- Node19&#45;&gt;Node2 -->
<g id="edge32" class="edge">
<title>Node19&#45;&gt;Node2</title>
<path fill="none" stroke="midnightblue" d="M647.8,-330.71C566.99,-326.62 430.1,-315.74 389,-288 354.34,-264.61 342,-248.31 342,-206.5 342,-206.5 342,-206.5 342,-143 342,-54.93 473.99,-27.62 536.68,-19.61"/>
<polygon fill="midnightblue" stroke="midnightblue" points="537.3,-23.06 546.82,-18.41 536.48,-16.11 537.3,-23.06"/>
</g>
<!-- Node19&#45;&gt;Node3 -->
<g id="edge33" class="edge">
<title>Node19&#45;&gt;Node3</title>
<path fill="none" stroke="midnightblue" d="M770.28,-328.49C853.27,-321.93 1005.88,-308.29 1135,-288 1338.43,-256.03 1851.53,-176.29 2042,-98 2065.49,-88.35 2066.2,-75.87 2090,-67 2200.01,-26.02 2340.29,-17.95 2408.33,-16.58"/>
<polygon fill="midnightblue" stroke="midnightblue" points="2408.68,-20.08 2418.62,-16.42 2408.56,-13.08 2408.68,-20.08"/>
</g>
<!-- Node19&#45;&gt;Node5 -->
<g id="edge37" class="edge">
<title>Node19&#45;&gt;Node5</title>
<path fill="none" stroke="midnightblue" d="M770.03,-326.64C852.75,-317.99 1005.05,-302.01 1135,-288 1388.13,-260.71 1689.79,-227.24 1815.92,-213.2"/>
<polygon fill="midnightblue" stroke="midnightblue" points="1816.59,-216.64 1826.14,-212.06 1815.81,-209.69 1816.59,-216.64"/>
</g>
<!-- Node20 -->
<g id="node20" class="node">
<title>Node20</title>
<g id="a_node20"><a xlink:title=" ">
<polygon fill="none" stroke="#bfbfbf" points="408,-263 408,-282 450,-282 450,-263 408,-263"/>
<text text-anchor="middle" x="429" y="-270" font-family="Helvetica,sans-Serif" font-size="10.00">array</text>
</a>
</g>
</g>
<!-- Node19&#45;&gt;Node20 -->
<g id="edge34" class="edge">
<title>Node19&#45;&gt;Node20</title>
<path fill="none" stroke="midnightblue" d="M647.75,-326.69C596.43,-320.3 521.7,-308.37 459,-288 457.34,-287.46 455.65,-286.84 453.96,-286.18"/>
<polygon fill="midnightblue" stroke="midnightblue" points="455.11,-282.86 444.55,-282.01 452.27,-289.26 455.11,-282.86"/>
</g>
<!-- Node21 -->
<g id="node21" class="node">
<title>Node21</title>
<g id="a_node21"><a xlink:title=" ">
<polygon fill="none" stroke="#bfbfbf" points="468,-263 468,-282 532,-282 532,-263 468,-263"/>
<text text-anchor="middle" x="500" y="-270" font-family="Helvetica,sans-Serif" font-size="10.00">algorithm</text>
</a>
</g>
</g>
<!-- Node19&#45;&gt;Node21 -->
<g id="edge35" class="edge">
<title>Node19&#45;&gt;Node21</title>
<path fill="none" stroke="midnightblue" d="M674.02,-324.48C639.88,-315.96 586.57,-302.14 541,-288 538.39,-287.19 535.69,-286.32 532.99,-285.42"/>
<polygon fill="midnightblue" stroke="midnightblue" points="533.91,-282.03 523.31,-282.1 531.63,-288.65 533.91,-282.03"/>
</g>
<!-- Node22 -->
<g id="node22" class="node">
<title>Node22</title>
<g id="a_node22"><a xlink:title=" ">
<polygon fill="none" stroke="#bfbfbf" points="550.5,-263 550.5,-282 633.5,-282 633.5,-263 550.5,-263"/>
<text text-anchor="middle" x="592" y="-270" font-family="Helvetica,sans-Serif" font-size="10.00">initializer_list</text>
</a>
</g>
</g>
<!-- Node19&#45;&gt;Node22 -->
<g id="edge36" class="edge">
<title>Node19&#45;&gt;Node22</title>
<path fill="none" stroke="midnightblue" d="M692.24,-324.48C672.78,-314.58 640.45,-298.14 617.79,-286.62"/>
<polygon fill="midnightblue" stroke="midnightblue" points="619.23,-283.42 608.73,-282.01 616.06,-289.66 619.23,-283.42"/>
</g>
<!-- Node23 -->
<g id="node23" class="node">
<title>Node23</title>
<g id="a_node23"><a xlink:href="../../d9/d3e/ublas__interface_8h.html" target="_top" xlink:title=" ">
<polygon fill="none" stroke="red" points="982,-263 982,-282 1126,-282 1126,-263 982,-263"/>
<text text-anchor="middle" x="1054" y="-270" font-family="Helvetica,sans-Serif" font-size="10.00">includes/ublas_interface.h</text>
</a>
</g>
</g>
<!-- Node19&#45;&gt;Node23 -->
<g id="edge38" class="edge">
<title>Node19&#45;&gt;Node23</title>
<path fill="none" stroke="midnightblue" d="M758.43,-324.48C820.81,-313.72 928,-295.23 994.72,-283.72"/>
<polygon fill="midnightblue" stroke="midnightblue" points="995.4,-287.16 1004.66,-282.01 994.21,-280.26 995.4,-287.16"/>
</g>
<!-- Node28 -->
<g id="node25" class="node">
<title>Node28</title>
<g id="a_node25"><a xlink:title=" ">
<polygon fill="none" stroke="#bfbfbf" points="824,-190.5 824,-220.5 954,-220.5 954,-190.5 824,-190.5"/>
<text text-anchor="start" x="832" y="-208.5" font-family="Helvetica,sans-Serif" font-size="10.00">boost/numeric/ublas</text>
<text text-anchor="middle" x="889" y="-197.5" font-family="Helvetica,sans-Serif" font-size="10.00">/vector_expression.hpp</text>
</a>
</g>
</g>
<!-- Node19&#45;&gt;Node28 -->
<g id="edge44" class="edge">
<title>Node19&#45;&gt;Node28</title>
<path fill="none" stroke="midnightblue" d="M647.85,-328.38C562.18,-321.28 415.04,-306.53 399,-288 389.98,-277.58 389.77,-267.23 399,-257 426.19,-226.86 682.56,-213.65 813.22,-208.84"/>
<polygon fill="midnightblue" stroke="midnightblue" points="813.68,-212.32 823.55,-208.46 813.43,-205.33 813.68,-212.32"/>
</g>
<!-- Node39 -->
<g id="node26" class="node">
<title>Node39</title>
<g id="a_node26"><a xlink:title=" ">
<polygon fill="none" stroke="#bfbfbf" points="652,-257.5 652,-287.5 768,-287.5 768,-257.5 652,-257.5"/>
<text text-anchor="start" x="660" y="-275.5" font-family="Helvetica,sans-Serif" font-size="10.00">boost/numeric/ublas</text>
<text text-anchor="middle" x="710" y="-264.5" font-family="Helvetica,sans-Serif" font-size="10.00">/storage.hpp</text>
</a>
</g>
</g>
<!-- Node19&#45;&gt;Node39 -->
<g id="edge45" class="edge">
<title>Node19&#45;&gt;Node39</title>
<path fill="none" stroke="midnightblue" d="M709.14,-324.48C709.26,-317.47 709.43,-307.19 709.59,-297.7"/>
<polygon fill="midnightblue" stroke="midnightblue" points="713.1,-297.58 709.76,-287.52 706.1,-297.46 713.1,-297.58"/>
</g>
<!-- Node40 -->
<g id="node27" class="node">
<title>Node40</title>
<g id="a_node27"><a xlink:title=" ">
<polygon fill="none" stroke="#bfbfbf" points="786.5,-257.5 786.5,-287.5 925.5,-287.5 925.5,-257.5 786.5,-257.5"/>
<text text-anchor="start" x="794.5" y="-275.5" font-family="Helvetica,sans-Serif" font-size="10.00">boost/numeric/ublas</text>
<text text-anchor="middle" x="856" y="-264.5" font-family="Helvetica,sans-Serif" font-size="10.00">/detail/vector_assign.hpp</text>
</a>
</g>
</g>
<!-- Node19&#45;&gt;Node40 -->
<g id="edge46" class="edge">
<title>Node19&#45;&gt;Node40</title>
<path fill="none" stroke="midnightblue" d="M730.06,-324.48C751.37,-315.85 784.94,-302.26 812.06,-291.29"/>
<polygon fill="midnightblue" stroke="midnightblue" points="813.4,-294.52 821.36,-287.52 810.77,-288.03 813.4,-294.52"/>
</g>
<!-- Node23&#45;&gt;Node2 -->
<g id="edge39" class="edge">
<title>Node23&#45;&gt;Node2</title>
<path fill="none" stroke="midnightblue" d="M1044.91,-262.78C1007.58,-227.15 865.33,-93.18 810,-67 740.12,-33.95 648.72,-22.39 601.06,-18.46"/>
<polygon fill="midnightblue" stroke="midnightblue" points="601.27,-14.96 591.03,-17.69 600.73,-21.94 601.27,-14.96"/>
</g>
<!-- Node23&#45;&gt;Node3 -->
<g id="edge40" class="edge">
<title>Node23&#45;&gt;Node3</title>
<path fill="none" stroke="midnightblue" d="M1085.03,-262.99C1143.67,-247.12 1274.97,-212.55 1387,-190 1487.14,-169.84 1513.88,-174.26 1614,-154 1650.34,-146.64 1658.56,-140.88 1695,-134 1815.26,-111.3 1853.55,-141.35 1968,-98 1991.06,-89.27 1990.88,-75.55 2014,-67 2086.01,-40.36 2315.15,-24.32 2408.67,-18.74"/>
<polygon fill="midnightblue" stroke="midnightblue" points="2409.08,-22.22 2418.86,-18.14 2408.67,-15.23 2409.08,-22.22"/>
</g>
<!-- Node23&#45;&gt;Node5 -->
<g id="edge43" class="edge">
<title>Node23&#45;&gt;Node5</title>
<path fill="none" stroke="midnightblue" d="M1126.23,-265.79C1286.15,-253.14 1667.65,-222.98 1815.77,-211.26"/>
<polygon fill="midnightblue" stroke="midnightblue" points="1816.33,-214.73 1826.02,-210.45 1815.78,-207.75 1816.33,-214.73"/>
</g>
<!-- Node24 -->
<g id="node24" class="node">
<title>Node24</title>
<g id="a_node24"><a xlink:title=" ">
<polygon fill="none" stroke="#bfbfbf" points="1010,-190.5 1010,-220.5 1126,-220.5 1126,-190.5 1010,-190.5"/>
<text text-anchor="start" x="1018" y="-208.5" font-family="Helvetica,sans-Serif" font-size="10.00">boost/numeric/ublas</text>
<text text-anchor="middle" x="1068" y="-197.5" font-family="Helvetica,sans-Serif" font-size="10.00">/matrix.hpp</text>
</a>
</g>
</g>
<!-- Node23&#45;&gt;Node24 -->
<g id="edge41" class="edge">
<title>Node23&#45;&gt;Node24</title>
<path fill="none" stroke="midnightblue" d="M1055.89,-262.73C1057.67,-254.46 1060.43,-241.66 1062.86,-230.37"/>
<polygon fill="midnightblue" stroke="midnightblue" points="1066.28,-231.1 1064.97,-220.59 1059.44,-229.63 1066.28,-231.1"/>
</g>
<!-- Node23&#45;&gt;Node28 -->
<g id="edge42" class="edge">
<title>Node23&#45;&gt;Node28</title>
<path fill="none" stroke="midnightblue" d="M1032.09,-262.87C1007.22,-253.07 965.99,-236.83 934.16,-224.29"/>
<polygon fill="midnightblue" stroke="midnightblue" points="935.2,-220.94 924.61,-220.53 932.63,-227.45 935.2,-220.94"/>
</g>
<!-- Node41&#45;&gt;Node2 -->
<g id="edge48" class="edge">
<title>Node41&#45;&gt;Node2</title>
<path fill="none" stroke="midnightblue" d="M1782.44,-332.13C1608.28,-328.95 1048.51,-316.59 973,-288 952.29,-280.16 953.61,-267.28 934,-257 885.06,-231.35 863.66,-247.18 815,-221 716.33,-167.91 620.4,-71.49 584.17,-33.01"/>
<polygon fill="midnightblue" stroke="midnightblue" points="586.38,-30.24 577,-25.32 581.26,-35.02 586.38,-30.24"/>
</g>
<!-- Node41&#45;&gt;Node3 -->
<g id="edge49" class="edge">
<title>Node41&#45;&gt;Node3</title>
<path fill="none" stroke="midnightblue" d="M1885.65,-330.02C2012.14,-321.63 2332.42,-293.56 2406,-221 2457.36,-170.35 2454.88,-75.01 2451.21,-34.96"/>
<polygon fill="midnightblue" stroke="midnightblue" points="2454.69,-34.59 2450.16,-25.01 2447.73,-35.32 2454.69,-34.59"/>
</g>
<!-- Node41&#45;&gt;Node5 -->
<g id="edge50" class="edge">
<title>Node41&#45;&gt;Node5</title>
<path fill="none" stroke="midnightblue" d="M1830,-324.17C1824.01,-309.59 1814.36,-279.8 1824,-257 1830.09,-242.59 1842.53,-230.27 1853.71,-221.4"/>
<polygon fill="midnightblue" stroke="midnightblue" points="1855.96,-224.09 1861.89,-215.32 1851.78,-218.48 1855.96,-224.09"/>
</g>
<!-- Node42&#45;&gt;Node2 -->
<g id="edge53" class="edge">
<title>Node42&#45;&gt;Node2</title>
<path fill="none" stroke="midnightblue" d="M806.5,-513.82C633.01,-502.64 190,-461.69 190,-335 190,-335 190,-335 190,-143 190,-105.43 196.69,-89.2 227,-67 275.92,-31.17 460.68,-20.44 536.37,-17.51"/>
<polygon fill="midnightblue" stroke="midnightblue" points="536.85,-20.99 546.71,-17.13 536.59,-14 536.85,-20.99"/>
</g>
<!-- Node42&#45;&gt;Node3 -->
<g id="edge55" class="edge">
<title>Node42&#45;&gt;Node3</title>
<path fill="none" stroke="midnightblue" d="M943.51,-514.46C1051.66,-509 1268.31,-495.34 1450,-467 1583.7,-446.14 1617.4,-438.93 1747,-400 1814.36,-379.77 1832.35,-375.96 1895,-344 1994.04,-293.46 2104,-317.69 2104,-206.5 2104,-206.5 2104,-206.5 2104,-143 2104,-108.07 2098.06,-90.39 2124,-67 2165.16,-29.88 2330.77,-20.02 2408.43,-17.42"/>
<polygon fill="midnightblue" stroke="midnightblue" points="2408.89,-20.91 2418.78,-17.1 2408.68,-13.91 2408.89,-20.91"/>
</g>
<!-- Node42&#45;&gt;Node5 -->
<g id="edge56" class="edge">
<title>Node42&#45;&gt;Node5</title>
<path fill="none" stroke="midnightblue" d="M885.15,-508.87C903.6,-493.37 944.13,-460.2 981,-436 1023.91,-407.83 1036.09,-402.96 1082,-380 1136.45,-352.77 1148.65,-341.36 1207,-324 1304.91,-294.86 1335.07,-313.43 1434,-288 1473.35,-277.88 1480.57,-266.79 1520,-257 1622.5,-231.54 1745,-217.68 1816.3,-211.2"/>
<polygon fill="midnightblue" stroke="midnightblue" points="1816.79,-214.67 1826.44,-210.3 1816.17,-207.7 1816.79,-214.67"/>
</g>
<!-- Node43 -->
<g id="node30" class="node">
<title>Node43</title>
<g id="a_node30"><a xlink:title=" ">
<polygon fill="none" stroke="#bfbfbf" points="380,-324.5 380,-343.5 430,-343.5 430,-324.5 380,-324.5"/>
<text text-anchor="middle" x="405" y="-331.5" font-family="Helvetica,sans-Serif" font-size="10.00">cstring</text>
</a>
</g>
</g>
<!-- Node42&#45;&gt;Node43 -->
<g id="edge54" class="edge">
<title>Node42&#45;&gt;Node43</title>
<path fill="none" stroke="midnightblue" d="M852.96,-508.94C776.94,-479.43 525.5,-381.79 436.53,-347.24"/>
<polygon fill="midnightblue" stroke="midnightblue" points="437.58,-343.9 426.99,-343.54 435.05,-350.42 437.58,-343.9"/>
</g>
<!-- Node44 -->
<g id="node31" class="node">
<title>Node44</title>
<g id="a_node31"><a xlink:href="../../d0/d1b/stream__serializer_8h.html" target="_top" xlink:title=" ">
<polygon fill="none" stroke="black" points="775.5,-442 775.5,-461 928.5,-461 928.5,-442 775.5,-442"/>
<text text-anchor="middle" x="852" y="-449" font-family="Helvetica,sans-Serif" font-size="10.00">includes/stream_serializer.h</text>
</a>
</g>
</g>
<!-- Node42&#45;&gt;Node44 -->
<g id="edge57" class="edge">
<title>Node42&#45;&gt;Node44</title>
<path fill="none" stroke="midnightblue" d="M871.9,-508.73C868.48,-499.09 862.9,-483.3 858.51,-470.91"/>
<polygon fill="midnightblue" stroke="midnightblue" points="861.69,-469.39 855.05,-461.13 855.09,-471.72 861.69,-469.39"/>
</g>
<!-- Node44&#45;&gt;Node2 -->
<g id="edge58" class="edge">
<title>Node44&#45;&gt;Node2</title>
<path fill="none" stroke="midnightblue" d="M775.49,-444.25C608.86,-429.6 228,-390.09 228,-335 228,-335 228,-335 228,-143 228,-107.58 225.17,-90.13 252,-67 294.26,-30.57 464.32,-20.24 536.43,-17.46"/>
<polygon fill="midnightblue" stroke="midnightblue" points="536.86,-20.95 546.73,-17.09 536.61,-13.95 536.86,-20.95"/>
</g>
<!-- Node44&#45;&gt;Node3 -->
<g id="edge60" class="edge">
<title>Node44&#45;&gt;Node3</title>
<path fill="none" stroke="midnightblue" d="M863.15,-441.84C881.81,-427.62 920.86,-399.03 957,-380 1016.66,-348.58 1033.93,-345.02 1098,-324 1214.37,-285.82 1766.01,-156.19 1857,-134 1922.77,-117.96 1944.58,-128.54 2005,-98 2024.15,-88.32 2022.33,-75.56 2042,-67 2107.39,-38.55 2319.65,-23.7 2408.89,-18.59"/>
<polygon fill="midnightblue" stroke="midnightblue" points="2409.11,-22.08 2418.9,-18.03 2408.72,-15.09 2409.11,-22.08"/>
</g>
<!-- Node44&#45;&gt;Node5 -->
<g id="edge61" class="edge">
<title>Node44&#45;&gt;Node5</title>
<path fill="none" stroke="midnightblue" d="M869.31,-441.91C897.57,-428.04 955.5,-400.23 1006,-380 1076.72,-351.67 1094.38,-343.59 1168,-324 1251.06,-301.9 1274.05,-306.43 1358,-288 1413.49,-275.82 1426.17,-267.52 1482,-257 1599.56,-234.85 1738.7,-219.53 1816.2,-211.96"/>
<polygon fill="midnightblue" stroke="midnightblue" points="1816.64,-215.43 1826.26,-210.98 1815.97,-208.46 1816.64,-215.43"/>
</g>
<!-- Node44&#45;&gt;Node43 -->
<g id="edge59" class="edge">
<title>Node44&#45;&gt;Node43</title>
<path fill="none" stroke="midnightblue" d="M830.79,-441.97C793.95,-427.44 715.5,-397.74 647,-380 558.3,-357.03 533.78,-362.31 444,-344 442.74,-343.74 441.45,-343.47 440.15,-343.2"/>
<polygon fill="midnightblue" stroke="midnightblue" points="440.65,-339.73 430.13,-341 439.15,-346.56 440.65,-339.73"/>
</g>
<!-- Node45 -->
<g id="node32" class="node">
<title>Node45</title>
<g id="a_node32"><a xlink:href="../../dd/d5f/serializer_8h.html" target="_top" xlink:title=" ">
<polygon fill="none" stroke="red" points="1364.5,-380.5 1364.5,-399.5 1477.5,-399.5 1477.5,-380.5 1364.5,-380.5"/>
<text text-anchor="middle" x="1421" y="-387.5" font-family="Helvetica,sans-Serif" font-size="10.00">includes/serializer.h</text>
</a>
</g>
</g>
<!-- Node44&#45;&gt;Node45 -->
<g id="edge62" class="edge">
<title>Node44&#45;&gt;Node45</title>
<path fill="none" stroke="midnightblue" d="M928.74,-442.48C1040.99,-430.74 1248.14,-409.08 1354.36,-397.97"/>
<polygon fill="midnightblue" stroke="midnightblue" points="1354.74,-401.45 1364.32,-396.93 1354.01,-394.49 1354.74,-401.45"/>
</g>
<!-- Node45&#45;&gt;Node2 -->
<g id="edge63" class="edge">
<title>Node45&#45;&gt;Node2</title>
<path fill="none" stroke="midnightblue" d="M1364.46,-381.44C1359.57,-380.91 1354.7,-380.42 1350,-380 1034.83,-352.09 953.08,-382.29 639,-344 606.64,-340.05 377.53,-306.94 351,-288 316.97,-263.71 304,-248.31 304,-206.5 304,-206.5 304,-206.5 304,-143 304,-40.93 466.1,-21.14 536.74,-17.36"/>
<polygon fill="midnightblue" stroke="midnightblue" points="537.03,-20.85 546.86,-16.9 536.71,-13.86 537.03,-20.85"/>
</g>
<!-- Node45&#45;&gt;Node3 -->
<g id="edge65" class="edge">
<title>Node45&#45;&gt;Node3</title>
<path fill="none" stroke="midnightblue" d="M1450.48,-380.44C1542.7,-353.77 1825.1,-273.03 1919,-257 2018.76,-239.97 2292.25,-282.01 2373,-221 2433.22,-175.5 2445.74,-76.93 2448.33,-35.48"/>
<polygon fill="midnightblue" stroke="midnightblue" points="2451.83,-35.55 2448.83,-25.39 2444.84,-35.2 2451.83,-35.55"/>
</g>
<!-- Node45&#45;&gt;Node4 -->
<g id="edge66" class="edge">
<title>Node45&#45;&gt;Node4</title>
<path fill="none" stroke="midnightblue" d="M1407.18,-380.32C1393.77,-371.9 1373.18,-358.97 1357.41,-349.07"/>
<polygon fill="midnightblue" stroke="midnightblue" points="1359.11,-346.01 1348.78,-343.65 1355.39,-351.94 1359.11,-346.01"/>
</g>
<!-- Node45&#45;&gt;Node5 -->
<g id="edge68" class="edge">
<title>Node45&#45;&gt;Node5</title>
<path fill="none" stroke="midnightblue" d="M1432.08,-380.17C1467.59,-351.92 1577.35,-265.16 1596,-257 1667.72,-225.63 1757.95,-213.74 1816.29,-209.24"/>
<polygon fill="midnightblue" stroke="midnightblue" points="1816.72,-212.72 1826.44,-208.51 1816.21,-205.74 1816.72,-212.72"/>
</g>
<!-- Node45&#45;&gt;Node7 -->
<g id="edge67" class="edge">
<title>Node45&#45;&gt;Node7</title>
<path fill="none" stroke="midnightblue" d="M1477.56,-385.56C1540.3,-380.65 1644.04,-369.24 1730,-344 1750.61,-337.95 1753.44,-330.23 1774,-324 2046.38,-241.5 2130.39,-291.96 2406,-221 2541.09,-186.22 2695.62,-123.03 2758.79,-96.15"/>
<polygon fill="midnightblue" stroke="midnightblue" points="2760.31,-99.31 2768.13,-92.16 2757.55,-92.87 2760.31,-99.31"/>
</g>
<!-- Node45&#45;&gt;Node19 -->
<g id="edge71" class="edge">
<title>Node45&#45;&gt;Node19</title>
<path fill="none" stroke="midnightblue" d="M1364.45,-381.54C1359.57,-380.99 1354.7,-380.46 1350,-380 1143.41,-359.67 898.49,-345.12 780.1,-338.69"/>
<polygon fill="midnightblue" stroke="midnightblue" points="780.25,-335.19 770.08,-338.15 779.88,-342.18 780.25,-335.19"/>
</g>
<!-- Node45&#45;&gt;Node23 -->
<g id="edge70" class="edge">
<title>Node45&#45;&gt;Node23</title>
<path fill="none" stroke="midnightblue" d="M1419.51,-380.18C1416.58,-365.88 1408.69,-337.84 1390,-324 1350.9,-295.04 1222.67,-282.43 1136.41,-277.13"/>
<polygon fill="midnightblue" stroke="midnightblue" points="1136.56,-273.63 1126.37,-276.53 1136.15,-280.62 1136.56,-273.63"/>
</g>
<!-- Node45&#45;&gt;Node41 -->
<g id="edge69" class="edge">
<title>Node45&#45;&gt;Node41</title>
<path fill="none" stroke="midnightblue" d="M1477.51,-381.79C1546.2,-372.99 1665.63,-357.62 1768,-344 1769.47,-343.8 1770.96,-343.61 1772.46,-343.41"/>
<polygon fill="midnightblue" stroke="midnightblue" points="1773.04,-346.86 1782.48,-342.06 1772.1,-339.92 1773.04,-346.86"/>
</g>
<!-- Node45&#45;&gt;Node43 -->
<g id="edge64" class="edge">
<title>Node45&#45;&gt;Node43</title>
<path fill="none" stroke="midnightblue" d="M1364.18,-386.5C1174.42,-378.14 569.58,-351.21 482,-344 468.35,-342.88 453.38,-341.22 440.3,-339.64"/>
<polygon fill="midnightblue" stroke="midnightblue" points="440.63,-336.15 430.27,-338.4 439.77,-343.1 440.63,-336.15"/>
</g>
<!-- Node54 -->
<g id="node33" class="node">
<title>Node54</title>
<g id="a_node33"><a xlink:href="../../d1/d8c/logger_8h.html" target="_top" xlink:title=" ">
<polygon fill="none" stroke="red" points="2244,-196 2244,-215 2364,-215 2364,-196 2244,-196"/>
<text text-anchor="middle" x="2304" y="-203" font-family="Helvetica,sans-Serif" font-size="10.00">input_output/logger.h</text>
</a>
</g>
</g>
<!-- Node45&#45;&gt;Node54 -->
<g id="edge72" class="edge">
<title>Node45&#45;&gt;Node54</title>
<path fill="none" stroke="midnightblue" d="M1439.5,-380.42C1492.28,-356.37 1648.63,-288.02 1786,-257 1943.43,-221.45 2133.34,-210.92 2233.77,-207.81"/>
<polygon fill="midnightblue" stroke="midnightblue" points="2233.91,-211.31 2243.8,-207.51 2233.7,-204.31 2233.91,-211.31"/>
</g>
<!-- Node54&#45;&gt;Node2 -->
<g id="edge73" class="edge">
<title>Node54&#45;&gt;Node2</title>
<path fill="none" stroke="midnightblue" d="M2243.89,-201.41C2052.79,-191.52 1470.57,-160.89 1452,-154 1422.13,-142.91 1367.84,-78.19 1338,-67 1199.99,-15.25 729.92,-15.17 601.59,-16.15"/>
<polygon fill="midnightblue" stroke="midnightblue" points="601.23,-12.66 591.26,-16.24 601.29,-19.66 601.23,-12.66"/>
</g>
<!-- Node54&#45;&gt;Node3 -->
<g id="edge74" class="edge">
<title>Node54&#45;&gt;Node3</title>
<path fill="none" stroke="midnightblue" d="M2309.74,-195.71C2316.16,-185.74 2326.74,-168.95 2335,-154 2355.86,-116.25 2350.02,-99.83 2378,-67 2390.84,-51.94 2409.1,-39.08 2423.89,-30.11"/>
<polygon fill="midnightblue" stroke="midnightblue" points="2425.7,-33.1 2432.57,-25.04 2422.17,-27.06 2425.7,-33.1"/>
</g>
<!-- Node54&#45;&gt;Node13 -->
<g id="edge75" class="edge">
<title>Node54&#45;&gt;Node13</title>
<path fill="none" stroke="midnightblue" d="M2298.7,-195.98C2293.26,-187.23 2284.64,-173.37 2277.76,-162.31"/>
<polygon fill="midnightblue" stroke="midnightblue" points="2280.54,-160.15 2272.29,-153.51 2274.6,-163.85 2280.54,-160.15"/>
</g>
<!-- Node58&#45;&gt;Node5 -->
<g id="edge77" class="edge">
<title>Node58&#45;&gt;Node5</title>
<path fill="none" stroke="midnightblue" d="M1356,-928.44C1356,-909.94 1356,-864.81 1356,-827 1356,-827 1356,-827 1356,-707.5 1356,-435.53 1729.47,-264.71 1843.4,-218.93"/>
<polygon fill="midnightblue" stroke="midnightblue" points="1844.98,-222.07 1852.99,-215.13 1842.4,-215.56 1844.98,-222.07"/>
</g>
<!-- Node59 -->
<g id="node35" class="node">
<title>Node59</title>
<g id="a_node35"><a xlink:href="../../dd/dfe/model__part_8h.html" target="_top" xlink:title=" ">
<polygon fill="none" stroke="black" points="2086.5,-872.5 2086.5,-891.5 2211.5,-891.5 2211.5,-872.5 2086.5,-872.5"/>
<text text-anchor="middle" x="2149" y="-879.5" font-family="Helvetica,sans-Serif" font-size="10.00">includes/model_part.h</text>
</a>
</g>
</g>
<!-- Node58&#45;&gt;Node59 -->
<g id="edge78" class="edge">
<title>Node58&#45;&gt;Node59</title>
<path fill="none" stroke="midnightblue" d="M1434.21,-931.67C1587.8,-921.22 1926.84,-898.13 2076.07,-887.97"/>
<polygon fill="midnightblue" stroke="midnightblue" points="2076.74,-891.43 2086.48,-887.26 2076.27,-884.44 2076.74,-891.43"/>
</g>
<!-- Node59&#45;&gt;Node2 -->
<g id="edge79" class="edge">
<title>Node59&#45;&gt;Node2</title>
<path fill="none" stroke="midnightblue" d="M2086.32,-879.21C1963.98,-875.22 1685,-863.66 1452,-836 1132.25,-798.04 38,-841.5 38,-519.5 38,-519.5 38,-519.5 38,-143 38,-103.52 50.66,-88.14 84,-67 159.47,-19.14 440.3,-15.87 536.46,-16.2"/>
<polygon fill="midnightblue" stroke="midnightblue" points="536.71,-19.7 546.73,-16.25 536.75,-12.7 536.71,-19.7"/>
</g>
<!-- Node59&#45;&gt;Node3 -->
<g id="edge80" class="edge">
<title>Node59&#45;&gt;Node3</title>
<path fill="none" stroke="midnightblue" d="M2211.56,-879.78C2373.07,-876.24 2801.11,-864.41 2940,-836 3011.76,-821.32 3031.23,-816.03 3095,-780 3256.9,-688.54 3249,-576.94 3249,-391 3249,-391 3249,-391 3249,-333 3249,-186.94 3189.39,-126.52 3056,-67 2954.18,-21.56 2608.2,-16.72 2489.42,-16.42"/>
<polygon fill="midnightblue" stroke="midnightblue" points="2489.31,-12.92 2479.3,-16.4 2489.3,-19.92 2489.31,-12.92"/>
</g>
<!-- Node59&#45;&gt;Node5 -->
<g id="edge83" class="edge">
<title>Node59&#45;&gt;Node5</title>
<path fill="none" stroke="midnightblue" d="M2086.3,-879.07C2005.61,-875.43 1871.17,-865.07 1832,-836 1809.97,-819.64 1812.87,-806.57 1806,-780 1756.14,-587.13 1879.51,-540.87 1910,-344 1916.75,-300.43 1897.37,-250.44 1885.15,-224.4"/>
<polygon fill="midnightblue" stroke="midnightblue" points="1888.13,-222.53 1880.59,-215.08 1881.84,-225.6 1888.13,-222.53"/>
</g>
<!-- Node59&#45;&gt;Node7 -->
<g id="edge81" class="edge">
<title>Node59&#45;&gt;Node7</title>
<path fill="none" stroke="midnightblue" d="M2211.64,-880.06C2366.12,-877.28 2762.06,-867.23 2890,-836 3056.16,-795.44 3183,-757.54 3183,-586.5 3183,-586.5 3183,-586.5 3183,-517.5 3183,-298.54 2904.6,-141.34 2815.25,-96.53"/>
<polygon fill="midnightblue" stroke="midnightblue" points="2816.77,-93.37 2806.26,-92.08 2813.67,-99.65 2816.77,-93.37"/>
</g>
<!-- Node59&#45;&gt;Node45 -->
<g id="edge84" class="edge">
<title>Node59&#45;&gt;Node45</title>
<path fill="none" stroke="midnightblue" d="M2086.29,-878.45C1968.77,-873.18 1719.82,-859.57 1637,-836 1575.25,-818.43 1508,-835.2 1508,-771 1508,-771 1508,-771 1508,-517.5 1508,-470.32 1466.41,-427.91 1440.75,-406.23"/>
<polygon fill="midnightblue" stroke="midnightblue" points="1442.69,-403.3 1432.73,-399.69 1438.27,-408.73 1442.69,-403.3"/>
</g>
<!-- Node59&#45;&gt;Node54 -->
<g id="edge160" class="edge">
<title>Node59&#45;&gt;Node54</title>
<path fill="none" stroke="midnightblue" d="M2211.8,-879.51C2409.02,-874 3003,-850.79 3003,-771 3003,-771 3003,-771 3003,-707.5 3003,-431.02 2838.13,-338.72 2574,-257 2507.63,-236.47 2429.36,-222.95 2374.23,-215.11"/>
<polygon fill="midnightblue" stroke="midnightblue" points="2374.6,-211.63 2364.21,-213.71 2373.63,-218.56 2374.6,-211.63"/>
</g>
<!-- Node60 -->
<g id="node36" class="node">
<title>Node60</title>
<g id="a_node36"><a xlink:title=" ">
<polygon fill="none" stroke="#bfbfbf" points="2174.5,-380.5 2174.5,-399.5 2227.5,-399.5 2227.5,-380.5 2174.5,-380.5"/>
<text text-anchor="middle" x="2201" y="-387.5" font-family="Helvetica,sans-Serif" font-size="10.00">cstddef</text>
</a>
</g>
</g>
<!-- Node59&#45;&gt;Node60 -->
<g id="edge82" class="edge">
<title>Node59&#45;&gt;Node60</title>
<path fill="none" stroke="midnightblue" d="M2119.95,-872.5C2052.29,-850.93 1892.55,-788.92 1928,-693 1978.48,-556.41 2124.53,-444.07 2179.63,-405.41"/>
<polygon fill="midnightblue" stroke="midnightblue" points="2181.72,-408.22 2187.95,-399.65 2177.73,-402.47 2181.72,-408.22"/>
</g>
<!-- Node61 -->
<g id="node37" class="node">
<title>Node61</title>
<g id="a_node37"><a xlink:href="../../de/db8/process__info_8h.html" target="_top" xlink:title=" ">
<polygon fill="none" stroke="black" points="2241.5,-637.5 2241.5,-656.5 2372.5,-656.5 2372.5,-637.5 2241.5,-637.5"/>
<text text-anchor="middle" x="2307" y="-644.5" font-family="Helvetica,sans-Serif" font-size="10.00">includes/process_info.h</text>
</a>
</g>
</g>
<!-- Node59&#45;&gt;Node61 -->
<g id="edge85" class="edge">
<title>Node59&#45;&gt;Node61</title>
<path fill="none" stroke="midnightblue" d="M2208.01,-872.46C2297.08,-858.19 2459,-826.42 2492,-780 2534.13,-720.74 2419.73,-678.39 2352.33,-659.32"/>
<polygon fill="midnightblue" stroke="midnightblue" points="2352.92,-655.85 2342.35,-656.57 2351.06,-662.6 2352.92,-655.85"/>
</g>
<!-- Node62 -->
<g id="node38" class="node">
<title>Node62</title>
<g id="a_node38"><a xlink:href="../../d1/d82/data__value__container_8h.html" target="_top" xlink:title=" ">
<polygon fill="none" stroke="red" points="2339.5,-570.5 2339.5,-600.5 2464.5,-600.5 2464.5,-570.5 2339.5,-570.5"/>
<text text-anchor="start" x="2347.5" y="-588.5" font-family="Helvetica,sans-Serif" font-size="10.00">containers/data_value</text>
<text text-anchor="middle" x="2402" y="-577.5" font-family="Helvetica,sans-Serif" font-size="10.00">_container.h</text>
</a>
</g>
</g>
<!-- Node59&#45;&gt;Node62 -->
<g id="edge110" class="edge">
<title>Node59&#45;&gt;Node62</title>
<path fill="none" stroke="midnightblue" d="M2211.57,-877.84C2268.14,-873.33 2352.9,-862.41 2422,-836 2465.3,-819.45 2487.69,-820.64 2510,-780 2544.71,-716.77 2470.64,-642.36 2428.52,-607.07"/>
<polygon fill="midnightblue" stroke="midnightblue" points="2430.51,-604.18 2420.56,-600.54 2426.07,-609.59 2430.51,-604.18"/>
</g>
<!-- Node63 -->
<g id="node39" class="node">
<title>Node63</title>
<g id="a_node39"><a xlink:href="../../da/d89/variable_8h.html" target="_top" xlink:title=" ">
<polygon fill="none" stroke="red" points="2431.5,-509 2431.5,-528 2550.5,-528 2550.5,-509 2431.5,-509"/>
<text text-anchor="middle" x="2491" y="-516" font-family="Helvetica,sans-Serif" font-size="10.00">containers/variable.h</text>
</a>
</g>
</g>
<!-- Node59&#45;&gt;Node63 -->
<g id="edge165" class="edge">
<title>Node59&#45;&gt;Node63</title>
<path fill="none" stroke="midnightblue" d="M2211.75,-878.26C2332.87,-871.25 2587,-847.44 2587,-771 2587,-771 2587,-771 2587,-707.5 2587,-637.15 2533.03,-566.6 2506.02,-535.7"/>
<polygon fill="midnightblue" stroke="midnightblue" points="2508.46,-533.19 2499.18,-528.07 2503.25,-537.86 2508.46,-533.19"/>
</g>
<!-- Node78 -->
<g id="node40" class="node">
<title>Node78</title>
<g id="a_node40"><a xlink:href="../../d3/dc3/variable__data_8h.html" target="_top" xlink:title=" ">
<polygon fill="none" stroke="red" points="1979,-442 1979,-461 2071,-461 2071,-442 1979,-442"/>
<text text-anchor="middle" x="2025" y="-449" font-family="Helvetica,sans-Serif" font-size="10.00">variable_data.h</text>
</a>
</g>
</g>
<!-- Node59&#45;&gt;Node78 -->
<g id="edge166" class="edge">
<title>Node59&#45;&gt;Node78</title>
<path fill="none" stroke="midnightblue" d="M2086.21,-880.7C2008.16,-878.83 1881.58,-870.4 1852,-836 1774.88,-746.31 1808.42,-675.96 1861,-570 1887.68,-516.23 1952.13,-481.8 1991.83,-464.91"/>
<polygon fill="midnightblue" stroke="midnightblue" points="1993.19,-468.13 2001.11,-461.08 1990.53,-461.66 1993.19,-468.13"/>
</g>
<!-- Node83 -->
<g id="node41" class="node">
<title>Node83</title>
<g id="a_node41"><a xlink:href="../../d8/d3b/mesh_8h.html" target="_top" xlink:title=" ">
<polygon fill="none" stroke="red" points="2051,-760.5 2051,-779.5 2147,-779.5 2147,-760.5 2051,-760.5"/>
<text text-anchor="middle" x="2099" y="-767.5" font-family="Helvetica,sans-Serif" font-size="10.00">includes/mesh.h</text>
</a>
</g>
</g>
<!-- Node59&#45;&gt;Node83 -->
<g id="edge111" class="edge">
<title>Node59&#45;&gt;Node83</title>
<path fill="none" stroke="midnightblue" d="M2142.51,-872.43C2136.1,-863.66 2126.37,-849.44 2120,-836 2112.86,-820.93 2107.23,-802.8 2103.6,-789.52"/>
<polygon fill="midnightblue" stroke="midnightblue" points="2106.95,-788.48 2101.04,-779.68 2100.17,-790.24 2106.95,-788.48"/>
</g>
<!-- Node87 -->
<g id="node42" class="node">
<title>Node87</title>
<g id="a_node42"><a xlink:href="../../d2/d58/pointer__vector__map_8h.html" target="_top" xlink:title=" ">
<polygon fill="none" stroke="red" points="2583.5,-436.5 2583.5,-466.5 2688.5,-466.5 2688.5,-436.5 2583.5,-436.5"/>
<text text-anchor="start" x="2591.5" y="-454.5" font-family="Helvetica,sans-Serif" font-size="10.00">containers/pointer</text>
<text text-anchor="middle" x="2636" y="-443.5" font-family="Helvetica,sans-Serif" font-size="10.00">_vector_map.h</text>
</a>
</g>
</g>
<!-- Node59&#45;&gt;Node87 -->
<g id="edge158" class="edge">
<title>Node59&#45;&gt;Node87</title>
<path fill="none" stroke="midnightblue" d="M2211.58,-878.58C2340.26,-873.19 2630.53,-858.88 2727,-836 2791,-820.82 2826.84,-834.28 2864,-780 2941.15,-667.31 2835.68,-590.7 2731,-503 2715.78,-490.25 2696.82,-479.38 2679.84,-471.03"/>
<polygon fill="midnightblue" stroke="midnightblue" points="2681.19,-467.79 2670.66,-466.65 2678.18,-474.11 2681.19,-467.79"/>
</g>
<!-- Node99 -->
<g id="node43" class="node">
<title>Node99</title>
<g id="a_node43"><a xlink:href="../../da/da4/master__slave__constraint_8h.html" target="_top" xlink:title=" ">
<polygon fill="none" stroke="red" points="1970,-693.5 1970,-723.5 2096,-723.5 2096,-693.5 1970,-693.5"/>
<text text-anchor="start" x="1978" y="-711.5" font-family="Helvetica,sans-Serif" font-size="10.00">includes/master_slave</text>
<text text-anchor="middle" x="2033" y="-700.5" font-family="Helvetica,sans-Serif" font-size="10.00">_constraint.h</text>
</a>
</g>
</g>
<!-- Node59&#45;&gt;Node99 -->
<g id="edge164" class="edge">
<title>Node59&#45;&gt;Node99</title>
<path fill="none" stroke="midnightblue" d="M2134.97,-872.47C2111.27,-857.21 2063.78,-822.8 2042,-780 2034.73,-765.72 2032.52,-747.78 2032.11,-733.57"/>
<polygon fill="midnightblue" stroke="midnightblue" points="2035.61,-733.55 2032.09,-723.56 2028.61,-733.56 2035.61,-733.55"/>
</g>
<!-- Node110 -->
<g id="node44" class="node">
<title>Node110</title>
<g id="a_node44"><a xlink:href="../../d3/dad/geometry__container_8h.html" target="_top" xlink:title=" ">
<polygon fill="none" stroke="black" points="1539,-503.5 1539,-533.5 1657,-533.5 1657,-503.5 1539,-503.5"/>
<text text-anchor="start" x="1547" y="-521.5" font-family="Helvetica,sans-Serif" font-size="10.00">containers/geometry</text>
<text text-anchor="middle" x="1598" y="-510.5" font-family="Helvetica,sans-Serif" font-size="10.00">_container.h</text>
</a>
</g>
</g>
<!-- Node59&#45;&gt;Node110 -->
<g id="edge131" class="edge">
<title>Node59&#45;&gt;Node110</title>
<path fill="none" stroke="midnightblue" d="M2086.49,-881.35C1973.49,-880.96 1740.49,-875.26 1671,-836 1639.73,-818.33 1623,-806.91 1623,-771 1623,-771 1623,-771 1623,-646 1623,-609.76 1613,-568.77 1605.65,-543.53"/>
<polygon fill="midnightblue" stroke="midnightblue" points="1608.94,-542.3 1602.7,-533.74 1602.24,-544.32 1608.94,-542.3"/>
</g>
<!-- Node111 -->
<g id="node45" class="node">
<title>Node111</title>
<g id="a_node45"><a xlink:href="../../da/d92/pointer__hash__map__set_8h.html" target="_top" xlink:title=" ">
<polygon fill="none" stroke="red" points="1336.5,-436.5 1336.5,-466.5 1441.5,-466.5 1441.5,-436.5 1336.5,-436.5"/>
<text text-anchor="start" x="1344.5" y="-454.5" font-family="Helvetica,sans-Serif" font-size="10.00">containers/pointer</text>
<text text-anchor="middle" x="1389" y="-443.5" font-family="Helvetica,sans-Serif" font-size="10.00">_hash_map_set.h</text>
</a>
</g>
</g>
<!-- Node59&#45;&gt;Node111 -->
<g id="edge159" class="edge">
<title>Node59&#45;&gt;Node111</title>
<path fill="none" stroke="midnightblue" d="M2086.26,-879.27C1932.73,-874.66 1546.72,-860.74 1494,-836 1457.86,-819.04 1432,-810.92 1432,-771 1432,-771 1432,-771 1432,-584.5 1432,-544.75 1414.15,-501.43 1401.45,-475.64"/>
<polygon fill="midnightblue" stroke="midnightblue" points="1404.54,-473.98 1396.89,-466.66 1398.3,-477.16 1404.54,-473.98"/>
</g>
<!-- Node112 -->
<g id="node46" class="node">
<title>Node112</title>
<g id="a_node46"><a xlink:href="../../d4/dfe/element_8h.html" target="_top" xlink:title=" ">
<polygon fill="none" stroke="red" points="2241,-760.5 2241,-779.5 2351,-779.5 2351,-760.5 2241,-760.5"/>
<text text-anchor="middle" x="2296" y="-767.5" font-family="Helvetica,sans-Serif" font-size="10.00">includes/element.h</text>
</a>
</g>
</g>
<!-- Node59&#45;&gt;Node112 -->
<g id="edge139" class="edge">
<title>Node59&#45;&gt;Node112</title>
<path fill="none" stroke="midnightblue" d="M2207.71,-872.48C2232.08,-866.16 2258.85,-855.15 2277,-836 2288.74,-823.61 2293.28,-804.37 2295,-790.03"/>
<polygon fill="midnightblue" stroke="midnightblue" points="2298.51,-790.07 2295.87,-779.81 2291.54,-789.48 2298.51,-790.07"/>
</g>
<!-- Node129 -->
<g id="node47" class="node">
<title>Node129</title>
<g id="a_node47"><a xlink:href="../../d7/d6c/condition_8h.html" target="_top" xlink:title=" ">
<polygon fill="none" stroke="red" points="2369,-760.5 2369,-779.5 2483,-779.5 2483,-760.5 2369,-760.5"/>
<text text-anchor="middle" x="2426" y="-767.5" font-family="Helvetica,sans-Serif" font-size="10.00">includes/condition.h</text>
</a>
</g>
</g>
<!-- Node59&#45;&gt;Node129 -->
<g id="edge141" class="edge">
<title>Node59&#45;&gt;Node129</title>
<path fill="none" stroke="midnightblue" d="M2182.53,-872.45C2212.69,-864.36 2257.96,-851.21 2296,-836 2334.02,-820.8 2376.07,-798.75 2401.77,-784.65"/>
<polygon fill="midnightblue" stroke="midnightblue" points="2403.72,-787.57 2410.78,-779.66 2400.33,-781.44 2403.72,-787.57"/>
</g>
<!-- Node130 -->
<g id="node48" class="node">
<title>Node130</title>
<g id="a_node48"><a xlink:href="../../d8/d75/communicator_8h.html" target="_top" xlink:title=" ">
<polygon fill="none" stroke="black" points="2128.5,-816.5 2128.5,-835.5 2267.5,-835.5 2267.5,-816.5 2128.5,-816.5"/>
<text text-anchor="middle" x="2198" y="-823.5" font-family="Helvetica,sans-Serif" font-size="10.00">includes/communicator.h</text>
</a>
</g>
</g>
<!-- Node59&#45;&gt;Node130 -->
<g id="edge143" class="edge">
<title>Node59&#45;&gt;Node130</title>
<path fill="none" stroke="midnightblue" d="M2157.09,-872.08C2164.16,-864.3 2174.59,-852.8 2183.15,-843.37"/>
<polygon fill="midnightblue" stroke="midnightblue" points="2185.93,-845.51 2190.06,-835.75 2180.75,-840.8 2185.93,-845.51"/>
</g>
<!-- Node114 -->
<g id="node49" class="node">
<title>Node114</title>
<g id="a_node49"><a xlink:href="../../dd/d98/table_8h.html" target="_top" xlink:title=" ">
<polygon fill="none" stroke="black" points="2577,-576 2577,-595 2671,-595 2671,-576 2577,-576"/>
<text text-anchor="middle" x="2624" y="-583" font-family="Helvetica,sans-Serif" font-size="10.00">includes/table.h</text>
</a>
</g>
</g>
<!-- Node59&#45;&gt;Node114 -->
<g id="edge152" class="edge">
<title>Node59&#45;&gt;Node114</title>
<path fill="none" stroke="midnightblue" d="M2211.61,-877.74C2383.66,-867.95 2851,-835.42 2851,-771 2851,-771 2851,-771 2851,-707.5 2851,-630.61 2748.34,-602.42 2681.09,-592.19"/>
<polygon fill="midnightblue" stroke="midnightblue" points="2681.43,-588.71 2671.03,-590.76 2680.44,-595.64 2681.43,-588.71"/>
</g>
<!-- Node109 -->
<g id="node50" class="node">
<title>Node109</title>
<g id="a_node50"><a xlink:href="../../d0/dac/kratos__flags_8h.html" target="_top" xlink:title=" ">
<polygon fill="none" stroke="red" points="1610,-380.5 1610,-399.5 1738,-399.5 1738,-380.5 1610,-380.5"/>
<text text-anchor="middle" x="1674" y="-387.5" font-family="Helvetica,sans-Serif" font-size="10.00">includes/kratos_flags.h</text>
</a>
</g>
</g>
<!-- Node59&#45;&gt;Node109 -->
<g id="edge161" class="edge">
<title>Node59&#45;&gt;Node109</title>
<path fill="none" stroke="midnightblue" d="M2086.37,-879.89C1986.53,-877.17 1796.57,-867.84 1738,-836 1705.25,-818.2 1685,-808.28 1685,-771 1685,-771 1685,-771 1685,-517.5 1685,-479.06 1679.9,-434.29 1676.64,-409.65"/>
<polygon fill="midnightblue" stroke="midnightblue" points="1680.08,-409 1675.26,-399.57 1673.15,-409.95 1680.08,-409"/>
</g>
<!-- Node61&#45;&gt;Node2 -->
<g id="edge86" class="edge">
<title>Node61&#45;&gt;Node2</title>
<path fill="none" stroke="midnightblue" d="M2241.15,-645.11C1985.81,-641.47 1068.95,-626.71 941,-601 858.94,-584.51 812.5,-602.91 765,-534 756.65,-521.88 749.48,-460.41 766,-436 838.35,-329.09 913.6,-370.58 1034,-324 1078.45,-306.81 1103.27,-323.55 1135,-288 1159.77,-260.25 1154,-243.69 1154,-206.5 1154,-206.5 1154,-206.5 1154,-143 1154,-29.02 724.4,-17.49 601.49,-16.53"/>
<polygon fill="midnightblue" stroke="midnightblue" points="601.24,-13.03 591.22,-16.47 601.2,-20.03 601.24,-13.03"/>
</g>
<!-- Node61&#45;&gt;Node3 -->
<g id="edge87" class="edge">
<title>Node61&#45;&gt;Node3</title>
<path fill="none" stroke="midnightblue" d="M2372.78,-644.65C2471.18,-641.62 2651.12,-631.91 2707,-601 2903.09,-492.53 3021,-430.59 3021,-206.5 3021,-206.5 3021,-206.5 3021,-143 3021,-34.06 2620.44,-18.86 2489.72,-16.8"/>
<polygon fill="midnightblue" stroke="midnightblue" points="2489.4,-13.3 2479.35,-16.66 2489.3,-20.3 2489.4,-13.3"/>
</g>
<!-- Node61&#45;&gt;Node5 -->
<g id="edge90" class="edge">
<title>Node61&#45;&gt;Node5</title>
<path fill="none" stroke="midnightblue" d="M2308.07,-637.41C2311.99,-602.45 2322.71,-468.54 2270,-380 2199.7,-261.92 2027.15,-223.96 1935.49,-211.94"/>
<polygon fill="midnightblue" stroke="midnightblue" points="1935.88,-208.46 1925.53,-210.69 1935.02,-215.41 1935.88,-208.46"/>
</g>
<!-- Node61&#45;&gt;Node7 -->
<g id="edge88" class="edge">
<title>Node61&#45;&gt;Node7</title>
<path fill="none" stroke="midnightblue" d="M2372.69,-646.95C2467.59,-646.9 2636.45,-640.97 2680,-601 2829.53,-463.76 2801.31,-177.45 2790.85,-102.03"/>
<polygon fill="midnightblue" stroke="midnightblue" points="2794.32,-101.52 2789.41,-92.13 2787.39,-102.53 2794.32,-101.52"/>
</g>
<!-- Node61&#45;&gt;Node41 -->
<g id="edge109" class="edge">
<title>Node61&#45;&gt;Node41</title>
<path fill="none" stroke="midnightblue" d="M2276.67,-637.42C2211.99,-617.68 2059.14,-563.23 1970,-467 1941.33,-436.05 1961.56,-410.11 1932,-380 1916.92,-364.64 1895.63,-354 1876.73,-346.94"/>
<polygon fill="midnightblue" stroke="midnightblue" points="1877.71,-343.57 1867.12,-343.57 1875.4,-350.18 1877.71,-343.57"/>
</g>
<!-- Node61&#45;&gt;Node60 -->
<g id="edge89" class="edge">
<title>Node61&#45;&gt;Node60</title>
<path fill="none" stroke="midnightblue" d="M2299.59,-637.18C2292.53,-628.44 2281.97,-614.45 2275,-601 2240.32,-534.14 2215.56,-447.41 2205.71,-409.78"/>
<polygon fill="midnightblue" stroke="midnightblue" points="2209.02,-408.57 2203.14,-399.76 2202.24,-410.31 2209.02,-408.57"/>
</g>
<!-- Node61&#45;&gt;Node62 -->
<g id="edge91" class="edge">
<title>Node61&#45;&gt;Node62</title>
<path fill="none" stroke="midnightblue" d="M2320.61,-637.48C2333.72,-629.27 2354.01,-616.56 2371.05,-605.88"/>
<polygon fill="midnightblue" stroke="midnightblue" points="2372.99,-608.8 2379.61,-600.52 2369.28,-602.86 2372.99,-608.8"/>
</g>
<!-- Node62&#45;&gt;Node2 -->
<g id="edge92" class="edge">
<title>Node62&#45;&gt;Node2</title>
<path fill="none" stroke="midnightblue" d="M2339.17,-584.02C2089.79,-581.87 1180.93,-571.48 1133,-534 1057.09,-474.63 1025.13,-403.9 1079,-324 1102.85,-288.62 1139.34,-319.61 1168,-288 1193.36,-260.02 1192,-244.26 1192,-206.5 1192,-206.5 1192,-206.5 1192,-143 1192,-107.58 1195.66,-89.12 1168,-67 1123.54,-31.45 719.74,-19.81 601.43,-17.15"/>
<polygon fill="midnightblue" stroke="midnightblue" points="601.28,-13.65 591.21,-16.93 601.13,-20.65 601.28,-13.65"/>
</g>
<!-- Node62&#45;&gt;Node3 -->
<g id="edge93" class="edge">
<title>Node62&#45;&gt;Node3</title>
<path fill="none" stroke="midnightblue" d="M2449.72,-570.41C2481.25,-560.81 2523.37,-547.45 2560,-534 2578.19,-527.32 2707.47,-480.87 2721,-467 2849.31,-335.55 2945.93,-205.26 2825,-67 2803.11,-41.97 2581.73,-25 2489.26,-18.95"/>
<polygon fill="midnightblue" stroke="midnightblue" points="2489.36,-15.45 2479.16,-18.3 2488.91,-22.44 2489.36,-15.45"/>
</g>
<!-- Node62&#45;&gt;Node5 -->
<g id="edge96" class="edge">
<title>Node62&#45;&gt;Node5</title>
<path fill="none" stroke="midnightblue" d="M2396.93,-570.28C2387.22,-543.49 2364.81,-483.92 2341,-436 2328.15,-410.13 2325.25,-403.17 2308,-380 2285.74,-350.11 2226.88,-274.55 2194,-257 2171.67,-245.08 2021.73,-224.74 1935.95,-213.87"/>
<polygon fill="midnightblue" stroke="midnightblue" points="1936.18,-210.37 1925.82,-212.59 1935.3,-217.32 1936.18,-210.37"/>
</g>
<!-- Node62&#45;&gt;Node13 -->
<g id="edge108" class="edge">
<title>Node62&#45;&gt;Node13</title>
<path fill="none" stroke="midnightblue" d="M2400.73,-570.45C2399.02,-554.05 2395.44,-526.2 2389,-503 2380.42,-472.06 2376.2,-464.79 2362,-436 2312.9,-336.47 2264.26,-328.06 2235,-221 2231.37,-207.71 2230.81,-203.12 2235,-190 2238.34,-179.54 2245.1,-169.43 2251.55,-161.45"/>
<polygon fill="midnightblue" stroke="midnightblue" points="2254.35,-163.56 2258.25,-153.71 2249.06,-158.98 2254.35,-163.56"/>
</g>
<!-- Node62&#45;&gt;Node14 -->
<g id="edge95" class="edge">
<title>Node62&#45;&gt;Node14</title>
<path fill="none" stroke="midnightblue" d="M2464.73,-572.46C2507.55,-563.56 2565.31,-550.19 2615,-534 2890.54,-444.23 3078.32,-489.64 3187,-221 3210.7,-162.41 3145.59,-82.97 3127,-67 3090.54,-35.69 3034.77,-23.78 2999.1,-19.25"/>
<polygon fill="midnightblue" stroke="midnightblue" points="2999.05,-15.73 2988.72,-18.08 2998.26,-22.68 2999.05,-15.73"/>
</g>
<!-- Node62&#45;&gt;Node60 -->
<g id="edge94" class="edge">
<title>Node62&#45;&gt;Node60</title>
<path fill="none" stroke="midnightblue" d="M2387.22,-570.27C2350.49,-534.91 2255.27,-443.24 2217.14,-406.54"/>
<polygon fill="midnightblue" stroke="midnightblue" points="2219.54,-403.99 2209.91,-399.58 2214.69,-409.03 2219.54,-403.99"/>
</g>
<!-- Node62&#45;&gt;Node63 -->
<g id="edge97" class="edge">
<title>Node62&#45;&gt;Node63</title>
<path fill="none" stroke="midnightblue" d="M2421.31,-570.4C2435.96,-559.7 2456.04,-545.03 2470.88,-534.19"/>
<polygon fill="midnightblue" stroke="midnightblue" points="2473.34,-536.73 2479.35,-528.01 2469.21,-531.08 2473.34,-536.73"/>
</g>
<!-- Node63&#45;&gt;Node2 -->
<g id="edge98" class="edge">
<title>Node63&#45;&gt;Node2</title>
<path fill="none" stroke="midnightblue" d="M2431.46,-516.98C2225.26,-514.85 1542.5,-505.04 1327,-467 1208.19,-446.03 1114.37,-461.02 1085,-344 1082.84,-335.38 1079.69,-331.13 1085,-324 1118.54,-279.02 1172.46,-332.98 1206,-288 1264.72,-209.26 1272.65,-139.15 1206,-67 1164.67,-22.26 725.43,-17.12 601.43,-16.56"/>
<polygon fill="midnightblue" stroke="midnightblue" points="601.1,-13.06 591.08,-16.52 601.07,-20.06 601.1,-13.06"/>
</g>
<!-- Node63&#45;&gt;Node3 -->
<g id="edge99" class="edge">
<title>Node63&#45;&gt;Node3</title>
<path fill="none" stroke="midnightblue" d="M2492.09,-508.71C2497.56,-462.11 2520.09,-239.64 2475,-67 2471.97,-55.39 2465.94,-43.4 2460.45,-34.02"/>
<polygon fill="midnightblue" stroke="midnightblue" points="2463.31,-31.99 2455.08,-25.32 2457.35,-35.66 2463.31,-31.99"/>
</g>
<!-- Node63&#45;&gt;Node5 -->
<g id="edge100" class="edge">
<title>Node63&#45;&gt;Node5</title>
<path fill="none" stroke="midnightblue" d="M2485.54,-508.81C2461.31,-471.1 2359.14,-320.72 2232,-257 2218.91,-250.44 2033.81,-226.37 1935.84,-213.98"/>
<polygon fill="midnightblue" stroke="midnightblue" points="1936.14,-210.49 1925.78,-212.71 1935.26,-217.44 1936.14,-210.49"/>
</g>
<!-- Node63&#45;&gt;Node16 -->
<g id="edge107" class="edge">
<title>Node63&#45;&gt;Node16</title>
<path fill="none" stroke="midnightblue" d="M2550.59,-511.1C2605.09,-503.88 2679.92,-490.02 2698,-467 2786.38,-354.47 2712.52,-161.09 2686.33,-101.5"/>
<polygon fill="midnightblue" stroke="midnightblue" points="2689.47,-99.95 2682.17,-92.27 2683.08,-102.82 2689.47,-99.95"/>
</g>
<!-- Node63&#45;&gt;Node78 -->
<g id="edge101" class="edge">
<title>Node63&#45;&gt;Node78</title>
<path fill="none" stroke="midnightblue" d="M2431.03,-509.14C2340.35,-496.49 2169.56,-472.66 2081.18,-460.34"/>
<polygon fill="midnightblue" stroke="midnightblue" points="2081.46,-456.84 2071.07,-458.93 2080.5,-463.77 2081.46,-456.84"/>
</g>
<!-- Node78&#45;&gt;Node2 -->
<g id="edge102" class="edge">
<title>Node78&#45;&gt;Node2</title>
<path fill="none" stroke="midnightblue" d="M1978.62,-447.88C1869.65,-441.54 1588.81,-424.08 1355,-400 1286.78,-392.98 1270.3,-386.22 1202,-380 893.53,-351.9 811.24,-396.67 506,-344 475.38,-338.72 468.82,-332.74 439,-324 383.52,-307.73 359.69,-323.42 314,-288 280.78,-262.24 266,-248.54 266,-206.5 266,-206.5 266,-206.5 266,-143 266,-26.76 458.24,-15.44 536.47,-15.64"/>
<polygon fill="midnightblue" stroke="midnightblue" points="536.69,-19.15 546.72,-15.74 536.75,-12.15 536.69,-19.15"/>
</g>
<!-- Node78&#45;&gt;Node3 -->
<g id="edge103" class="edge">
<title>Node78&#45;&gt;Node3</title>
<path fill="none" stroke="midnightblue" d="M2041.52,-441.98C2113.92,-404.52 2400.96,-254.83 2431,-221 2477.84,-168.25 2463.01,-74.82 2453.87,-35.15"/>
<polygon fill="midnightblue" stroke="midnightblue" points="2457.23,-34.15 2451.45,-25.27 2450.43,-35.81 2457.23,-34.15"/>
</g>
<!-- Node78&#45;&gt;Node5 -->
<g id="edge105" class="edge">
<title>Node78&#45;&gt;Node5</title>
<path fill="none" stroke="midnightblue" d="M2041.22,-441.99C2055.48,-433.49 2075.26,-418.98 2084,-400 2090.24,-386.45 2091.55,-347.32 2080,-324 2070.01,-303.82 2023.2,-268.75 2004,-257 1976.17,-239.97 1941.61,-226.74 1915.42,-218.1"/>
<polygon fill="midnightblue" stroke="midnightblue" points="1916.41,-214.74 1905.82,-215.02 1914.27,-221.41 1916.41,-214.74"/>
</g>
<!-- Node78&#45;&gt;Node45 -->
<g id="edge106" class="edge">
<title>Node78&#45;&gt;Node45</title>
<path fill="none" stroke="midnightblue" d="M1978.61,-445.93C1872.34,-435.46 1610.98,-409.72 1487.58,-397.56"/>
<polygon fill="midnightblue" stroke="midnightblue" points="1487.8,-394.06 1477.5,-396.57 1487.11,-401.03 1487.8,-394.06"/>
</g>
<!-- Node78&#45;&gt;Node60 -->
<g id="edge104" class="edge">
<title>Node78&#45;&gt;Node60</title>
<path fill="none" stroke="midnightblue" d="M2050.22,-441.98C2080.67,-431.68 2132.05,-414.31 2166.24,-402.75"/>
<polygon fill="midnightblue" stroke="midnightblue" points="2167.48,-406.03 2175.83,-399.51 2165.24,-399.4 2167.48,-406.03"/>
</g>
<!-- Node83&#45;&gt;Node2 -->
<g id="edge112" class="edge">
<title>Node83&#45;&gt;Node2</title>
<path fill="none" stroke="midnightblue" d="M2057.99,-760.44C1929.73,-733.77 1537.08,-653.06 1408,-637 1264.73,-619.18 114,-663.87 114,-519.5 114,-519.5 114,-519.5 114,-143 114,-103.97 125.44,-88.52 158,-67 220.11,-25.94 450.8,-18.26 536.59,-16.83"/>
<polygon fill="midnightblue" stroke="midnightblue" points="536.83,-20.33 546.78,-16.68 536.73,-13.33 536.83,-20.33"/>
</g>
<!-- Node83&#45;&gt;Node3 -->
<g id="edge113" class="edge">
<title>Node83&#45;&gt;Node3</title>
<path fill="none" stroke="midnightblue" d="M2147.16,-764.72C2233.93,-756.77 2413.15,-739.13 2474,-724 2755.13,-654.09 2918.58,-712.1 3073,-467 3170.4,-312.4 3140.03,-151.46 2978,-67 2893.09,-22.74 2598.05,-17.05 2489.49,-16.49"/>
<polygon fill="midnightblue" stroke="midnightblue" points="2489.29,-12.99 2479.28,-16.45 2489.27,-19.99 2489.29,-12.99"/>
</g>
<!-- Node83&#45;&gt;Node5 -->
<g id="edge116" class="edge">
<title>Node83&#45;&gt;Node5</title>
<path fill="none" stroke="midnightblue" d="M2050.75,-767.03C2019.65,-762.94 1981.35,-752.04 1961,-724 1952.91,-712.85 1960.92,-706.78 1961,-693 1961.67,-578.77 1953.91,-549.78 1964,-436 1965.43,-419.84 1968.66,-416.17 1970,-400 1972.79,-366.29 1977.99,-355.63 1966,-324 1950.16,-282.24 1914.35,-243.03 1892.98,-222.15"/>
<polygon fill="midnightblue" stroke="midnightblue" points="1895.22,-219.45 1885.57,-215.08 1890.39,-224.51 1895.22,-219.45"/>
</g>
<!-- Node83&#45;&gt;Node7 -->
<g id="edge114" class="edge">
<title>Node83&#45;&gt;Node7</title>
<path fill="none" stroke="midnightblue" d="M2147.22,-764.35C2207.4,-757.98 2313.22,-744.88 2402,-724 2495.72,-701.96 2519.8,-695.59 2608,-657 2654.67,-636.58 2673.17,-638.17 2708,-601 2775.69,-528.76 2782.13,-496.55 2804,-400 2813.06,-360.02 2905.93,-978.55 2800,-134 2798.66,-123.33 2795.96,-111.64 2793.47,-102.19"/>
<polygon fill="midnightblue" stroke="midnightblue" points="2796.77,-101.03 2790.72,-92.33 2790.03,-102.91 2796.77,-101.03"/>
</g>
<!-- Node83&#45;&gt;Node41 -->
<g id="edge124" class="edge">
<title>Node83&#45;&gt;Node41</title>
<path fill="none" stroke="midnightblue" d="M2050.63,-767.43C2013.18,-763.81 1962.11,-753.31 1928,-724 1814.39,-626.39 1825.47,-417.31 1831.79,-353.73"/>
<polygon fill="midnightblue" stroke="midnightblue" points="1835.29,-353.93 1832.89,-343.61 1828.33,-353.17 1835.29,-353.93"/>
</g>
<!-- Node83&#45;&gt;Node60 -->
<g id="edge115" class="edge">
<title>Node83&#45;&gt;Node60</title>
<path fill="none" stroke="midnightblue" d="M2100.33,-760.33C2107.93,-710.96 2146.13,-466.37 2161,-436 2166.38,-425.02 2175.2,-414.67 2183.19,-406.68"/>
<polygon fill="midnightblue" stroke="midnightblue" points="2185.88,-408.95 2190.74,-399.53 2181.07,-403.86 2185.88,-408.95"/>
</g>
<!-- Node83&#45;&gt;Node62 -->
<g id="edge125" class="edge">
<title>Node83&#45;&gt;Node62</title>
<path fill="none" stroke="midnightblue" d="M2147.17,-763.1C2210.19,-752.82 2319.89,-725.68 2382,-657 2393.4,-644.4 2398.35,-625.75 2400.47,-610.8"/>
<polygon fill="midnightblue" stroke="midnightblue" points="2403.97,-611.03 2401.57,-600.71 2397.01,-610.27 2403.97,-611.03"/>
</g>
<!-- Node83&#45;&gt;Node87 -->
<g id="edge117" class="edge">
<title>Node83&#45;&gt;Node87</title>
<path fill="none" stroke="midnightblue" d="M2147.1,-760.55C2271.33,-737.9 2598.83,-672.67 2680,-601 2714.45,-570.58 2734.84,-543.44 2713,-503 2705.84,-489.74 2693.52,-479.4 2680.8,-471.63"/>
<polygon fill="midnightblue" stroke="midnightblue" points="2682.42,-468.52 2671.99,-466.65 2678.98,-474.62 2682.42,-468.52"/>
</g>
<!-- Node83&#45;&gt;Node99 -->
<g id="edge126" class="edge">
<title>Node83&#45;&gt;Node99</title>
<path fill="none" stroke="midnightblue" d="M2089.54,-760.48C2080.86,-752.64 2067.62,-740.71 2056.14,-730.37"/>
<polygon fill="midnightblue" stroke="midnightblue" points="2058.33,-727.62 2048.55,-723.52 2053.64,-732.82 2058.33,-727.62"/>
</g>
<!-- Node87&#45;&gt;Node2 -->
<g id="edge119" class="edge">
<title>Node87&#45;&gt;Node2</title>
<path fill="none" stroke="midnightblue" d="M2626.46,-436.35C2616.03,-421.43 2598.34,-397.69 2580,-380 2508.4,-310.94 2486.64,-290.56 2393,-257 2296.17,-222.29 2037.27,-201.04 1935,-190 1820.94,-177.69 1528.37,-191.66 1420,-154 1378.31,-139.51 1373.35,-124.42 1338,-98 1320.54,-84.95 1320.27,-75.02 1300,-67 1170.11,-15.63 725.16,-15.23 601.26,-16.16"/>
<polygon fill="midnightblue" stroke="midnightblue" points="601.23,-12.66 591.26,-16.24 601.29,-19.66 601.23,-12.66"/>
</g>
<!-- Node87&#45;&gt;Node3 -->
<g id="edge120" class="edge">
<title>Node87&#45;&gt;Node3</title>
<path fill="none" stroke="midnightblue" d="M2636,-436.28C2636,-414.48 2636,-371.49 2636,-335 2636,-335 2636,-335 2636,-271.5 2636,-174.84 2627.8,-137.8 2562,-67 2542.61,-46.14 2513,-33.34 2488.95,-25.85"/>
<polygon fill="midnightblue" stroke="midnightblue" points="2489.62,-22.4 2479.04,-22.95 2487.66,-29.12 2489.62,-22.4"/>
</g>
<!-- Node87&#45;&gt;Node5 -->
<g id="edge123" class="edge">
<title>Node87&#45;&gt;Node5</title>
<path fill="none" stroke="midnightblue" d="M2620.86,-436.34C2580.17,-399.27 2463.6,-299.32 2346,-257 2198.86,-204.05 2151.41,-238.38 1996,-221 1976.38,-218.81 1954.97,-216.27 1935.74,-213.93"/>
<polygon fill="midnightblue" stroke="midnightblue" points="1935.95,-210.43 1925.6,-212.69 1935.11,-217.38 1935.95,-210.43"/>
</g>
<!-- Node87&#45;&gt;Node7 -->
<g id="edge121" class="edge">
<title>Node87&#45;&gt;Node7</title>
<path fill="none" stroke="midnightblue" d="M2641.05,-436.42C2657.24,-391.62 2709.81,-248.65 2762,-134 2767.03,-122.94 2773.24,-110.83 2778.33,-101.24"/>
<polygon fill="midnightblue" stroke="midnightblue" points="2781.48,-102.78 2783.13,-92.31 2775.32,-99.46 2781.48,-102.78"/>
</g>
<!-- Node87&#45;&gt;Node14 -->
<g id="edge118" class="edge">
<title>Node87&#45;&gt;Node14</title>
<path fill="none" stroke="midnightblue" d="M2680.34,-436.39C2784.37,-400.35 3040.61,-293.68 3111,-98 3115.66,-85.04 3118.99,-78.22 3111,-67 3085.62,-31.36 3033.3,-20.64 2998.68,-17.55"/>
<polygon fill="midnightblue" stroke="midnightblue" points="2998.78,-14.04 2988.56,-16.81 2998.28,-21.03 2998.78,-14.04"/>
</g>
<!-- Node87&#45;&gt;Node60 -->
<g id="edge122" class="edge">
<title>Node87&#45;&gt;Node60</title>
<path fill="none" stroke="midnightblue" d="M2583.1,-443.26C2493.68,-431.03 2314.87,-406.58 2237.77,-396.03"/>
<polygon fill="midnightblue" stroke="midnightblue" points="2237.97,-392.52 2227.59,-394.64 2237.02,-399.46 2237.97,-392.52"/>
</g>
<!-- Node99&#45;&gt;Node5 -->
<g id="edge127" class="edge">
<title>Node99&#45;&gt;Node5</title>
<path fill="none" stroke="midnightblue" d="M2027.94,-693.39C2015.07,-656.68 1981.33,-554.97 1970,-467 1968.24,-453.34 1967.57,-449.56 1970,-436 1979.16,-384.79 2017.27,-374.3 2004,-324 1995.27,-290.9 1990.26,-281.15 1966,-257 1949.46,-240.53 1926.44,-227.75 1907.82,-219.16"/>
<polygon fill="midnightblue" stroke="midnightblue" points="1909.11,-215.9 1898.55,-215.05 1906.28,-222.3 1909.11,-215.9"/>
</g>
<!-- Node99&#45;&gt;Node41 -->
<g id="edge128" class="edge">
<title>Node99&#45;&gt;Node41</title>
<path fill="none" stroke="midnightblue" d="M2025.44,-693.35C1994.51,-635.45 1877.59,-416.6 1843.43,-352.65"/>
<polygon fill="midnightblue" stroke="midnightblue" points="1846.48,-350.93 1838.68,-343.76 1840.31,-354.23 1846.48,-350.93"/>
</g>
<!-- Node99&#45;&gt;Node61 -->
<g id="edge130" class="edge">
<title>Node99&#45;&gt;Node61</title>
<path fill="none" stroke="midnightblue" d="M2096.21,-693.77C2145.43,-683.09 2212.76,-668.46 2257.97,-658.65"/>
<polygon fill="midnightblue" stroke="midnightblue" points="2258.79,-662.05 2267.82,-656.51 2257.31,-655.21 2258.79,-662.05"/>
</g>
<!-- Node99&#45;&gt;Node63 -->
<g id="edge129" class="edge">
<title>Node99&#45;&gt;Node63</title>
<path fill="none" stroke="midnightblue" d="M2060.43,-693.41C2112.36,-667.07 2228.97,-609.46 2331,-570 2370.89,-554.58 2417.65,-540.23 2450.28,-530.81"/>
<polygon fill="midnightblue" stroke="midnightblue" points="2451.28,-534.16 2459.93,-528.04 2449.35,-527.43 2451.28,-534.16"/>
</g>
<!-- Node110&#45;&gt;Node5 -->
<g id="edge132" class="edge">
<title>Node110&#45;&gt;Node5</title>
<path fill="none" stroke="midnightblue" d="M1615.41,-503.24C1636.72,-486.13 1674.27,-457.12 1709,-436 1787.8,-388.08 1846.34,-422.35 1895,-344 1910.24,-319.46 1872.47,-314.92 1862,-288 1853.9,-267.17 1860.83,-241.53 1867.5,-224.64"/>
<polygon fill="midnightblue" stroke="midnightblue" points="1870.75,-225.94 1871.49,-215.37 1864.32,-223.17 1870.75,-225.94"/>
</g>
<!-- Node110&#45;&gt;Node111 -->
<g id="edge133" class="edge">
<title>Node110&#45;&gt;Node111</title>
<path fill="none" stroke="midnightblue" d="M1552.91,-503.48C1521.02,-493.56 1478.07,-480.2 1444.14,-469.65"/>
<polygon fill="midnightblue" stroke="midnightblue" points="1444.96,-466.24 1434.37,-466.61 1442.88,-472.92 1444.96,-466.24"/>
</g>
<!-- Node111&#45;&gt;Node4 -->
<g id="edge136" class="edge">
<title>Node111&#45;&gt;Node4</title>
<path fill="none" stroke="midnightblue" d="M1377.67,-436.16C1370.4,-426.41 1361.19,-412.97 1355,-400 1347.85,-385.02 1342.52,-366.88 1339.17,-353.58"/>
<polygon fill="midnightblue" stroke="midnightblue" points="1342.54,-352.63 1336.82,-343.71 1335.73,-354.25 1342.54,-352.63"/>
</g>
<!-- Node111&#45;&gt;Node5 -->
<g id="edge137" class="edge">
<title>Node111&#45;&gt;Node5</title>
<path fill="none" stroke="midnightblue" d="M1421.81,-436.32C1441.27,-427.22 1465.97,-414.42 1486,-400 1560.22,-346.55 1553.17,-299.8 1634,-257 1691.31,-226.65 1765.27,-214.54 1816.26,-209.7"/>
<polygon fill="midnightblue" stroke="midnightblue" points="1816.8,-213.17 1826.46,-208.8 1816.19,-206.2 1816.8,-213.17"/>
</g>
<!-- Node111&#45;&gt;Node10 -->
<g id="edge134" class="edge">
<title>Node111&#45;&gt;Node10</title>
<path fill="none" stroke="midnightblue" d="M1360.29,-436.47C1320.91,-415.12 1257.33,-371.86 1279,-324 1289,-301.91 1305.55,-307.47 1320,-288 1365.49,-226.72 1395.77,-139.63 1407.52,-102"/>
<polygon fill="midnightblue" stroke="midnightblue" points="1410.89,-102.96 1410.45,-92.37 1404.19,-100.92 1410.89,-102.96"/>
</g>
<!-- Node111&#45;&gt;Node18 -->
<g id="edge135" class="edge">
<title>Node111&#45;&gt;Node18</title>
<path fill="none" stroke="midnightblue" d="M1336.23,-436.85C1295.45,-426.3 1239.72,-411.88 1201.71,-402.05"/>
<polygon fill="midnightblue" stroke="midnightblue" points="1202.53,-398.65 1191.97,-399.53 1200.77,-405.42 1202.53,-398.65"/>
</g>
<!-- Node111&#45;&gt;Node45 -->
<g id="edge138" class="edge">
<title>Node111&#45;&gt;Node45</title>
<path fill="none" stroke="midnightblue" d="M1396.58,-436.4C1401.04,-428.11 1406.72,-417.55 1411.48,-408.71"/>
<polygon fill="midnightblue" stroke="midnightblue" points="1414.69,-410.12 1416.34,-399.66 1408.52,-406.81 1414.69,-410.12"/>
</g>
<!-- Node112&#45;&gt;Node61 -->
<g id="edge140" class="edge">
<title>Node112&#45;&gt;Node61</title>
<path fill="none" stroke="midnightblue" d="M2296.79,-760.3C2298.56,-740.85 2302.86,-693.49 2305.28,-666.9"/>
<polygon fill="midnightblue" stroke="midnightblue" points="2308.8,-666.9 2306.22,-656.62 2301.83,-666.27 2308.8,-666.9"/>
</g>
<!-- Node129&#45;&gt;Node61 -->
<g id="edge142" class="edge">
<title>Node129&#45;&gt;Node61</title>
<path fill="none" stroke="midnightblue" d="M2417.44,-760.3C2397.54,-740.07 2347.93,-689.62 2322.53,-663.79"/>
<polygon fill="midnightblue" stroke="midnightblue" points="2324.99,-661.3 2315.48,-656.62 2320,-666.21 2324.99,-661.3"/>
</g>
<!-- Node130&#45;&gt;Node2 -->
<g id="edge144" class="edge">
<title>Node130&#45;&gt;Node2</title>
<path fill="none" stroke="midnightblue" d="M2128.23,-819.63C1793.41,-793.54 359.92,-678.13 176,-601 123.13,-578.83 76,-576.84 76,-519.5 76,-519.5 76,-519.5 76,-143 76,-103.75 88.04,-88.32 121,-67 189.75,-22.52 445.41,-17.01 536.51,-16.49"/>
<polygon fill="midnightblue" stroke="midnightblue" points="536.79,-19.99 546.78,-16.45 536.76,-12.99 536.79,-19.99"/>
</g>
<!-- Node130&#45;&gt;Node3 -->
<g id="edge145" class="edge">
<title>Node130&#45;&gt;Node3</title>
<path fill="none" stroke="midnightblue" d="M2267.67,-823.79C2354.95,-820.92 2508.52,-811.39 2636,-780 2923.27,-709.26 3095.17,-636.58 3139,-344 3158.98,-210.61 3138.39,-121.48 3015,-67 2920.69,-25.36 2603.1,-18.05 2489.68,-16.77"/>
<polygon fill="midnightblue" stroke="midnightblue" points="2489.39,-13.27 2479.36,-16.66 2489.32,-20.27 2489.39,-13.27"/>
</g>
<!-- Node130&#45;&gt;Node5 -->
<g id="edge148" class="edge">
<title>Node130&#45;&gt;Node5</title>
<path fill="none" stroke="midnightblue" d="M2199.9,-816.36C2203.94,-797.21 2213,-749.74 2213,-709.5 2213,-709.5 2213,-709.5 2213,-584.5 2213,-492.99 2281.56,-459.93 2237,-380 2211.68,-334.59 2085.3,-278.57 2038,-257 2016.26,-247.08 1957,-229.45 1916.52,-217.87"/>
<polygon fill="midnightblue" stroke="midnightblue" points="1917.24,-214.43 1906.66,-215.06 1915.32,-221.17 1917.24,-214.43"/>
</g>
<!-- Node130&#45;&gt;Node7 -->
<g id="edge146" class="edge">
<title>Node130&#45;&gt;Node7</title>
<path fill="none" stroke="midnightblue" d="M2267.63,-825.56C2395.44,-822.92 2669.58,-799.67 2836,-657 2918.27,-586.47 2960.13,-542.29 2939,-436 2911.86,-299.46 2828.32,-150.81 2798.62,-100.91"/>
<polygon fill="midnightblue" stroke="midnightblue" points="2801.43,-98.81 2793.28,-92.04 2795.44,-102.42 2801.43,-98.81"/>
</g>
<!-- Node130&#45;&gt;Node60 -->
<g id="edge147" class="edge">
<title>Node130&#45;&gt;Node60</title>
<path fill="none" stroke="midnightblue" d="M2195.09,-816.42C2188.9,-797.41 2175,-750.19 2175,-709.5 2175,-709.5 2175,-709.5 2175,-517.5 2175,-478.42 2187.05,-433.91 2194.75,-409.49"/>
<polygon fill="midnightblue" stroke="midnightblue" points="2198.14,-410.36 2197.92,-399.77 2191.49,-408.19 2198.14,-410.36"/>
</g>
<!-- Node130&#45;&gt;Node83 -->
<g id="edge151" class="edge">
<title>Node130&#45;&gt;Node83</title>
<path fill="none" stroke="midnightblue" d="M2182.09,-816.32C2166.36,-807.74 2142.06,-794.49 2123.79,-784.52"/>
<polygon fill="midnightblue" stroke="midnightblue" points="2125.32,-781.37 2114.87,-779.65 2121.97,-787.52 2125.32,-781.37"/>
</g>
<!-- Node130&#45;&gt;Node112 -->
<g id="edge150" class="edge">
<title>Node130&#45;&gt;Node112</title>
<path fill="none" stroke="midnightblue" d="M2213.75,-816.32C2229.32,-807.74 2253.38,-794.49 2271.46,-784.52"/>
<polygon fill="midnightblue" stroke="midnightblue" points="2273.22,-787.55 2280.29,-779.65 2269.85,-781.42 2273.22,-787.55"/>
</g>
<!-- Node130&#45;&gt;Node129 -->
<g id="edge149" class="edge">
<title>Node130&#45;&gt;Node129</title>
<path fill="none" stroke="midnightblue" d="M2234.13,-816.44C2273.65,-807.08 2337.1,-792.06 2380.11,-781.87"/>
<polygon fill="midnightblue" stroke="midnightblue" points="2381.12,-785.23 2390.04,-779.52 2379.5,-778.42 2381.12,-785.23"/>
</g>
<!-- Node114&#45;&gt;Node2 -->
<g id="edge153" class="edge">
<title>Node114&#45;&gt;Node2</title>
<path fill="none" stroke="midnightblue" d="M2576.77,-579.22C2547.26,-576.1 2508.46,-572.32 2474,-570 2264.54,-555.89 1736.72,-570.6 1530,-534 1339.15,-500.21 1229.07,-556.7 1115,-400 1042.24,-300.05 1514.73,-227.7 1614,-154 1649.63,-127.55 1693.65,-99.1 1663,-67 1625.4,-27.63 779.15,-18.28 601.52,-16.75"/>
<polygon fill="midnightblue" stroke="midnightblue" points="601.52,-13.25 591.49,-16.67 601.46,-20.25 601.52,-13.25"/>
</g>
<!-- Node114&#45;&gt;Node3 -->
<g id="edge154" class="edge">
<title>Node114&#45;&gt;Node3</title>
<path fill="none" stroke="midnightblue" d="M2637.3,-575.83C2673.88,-551.52 2777.72,-479.26 2845,-400 2922.33,-308.91 2920.96,-247.63 2884,-134 2873.67,-102.25 2877.31,-86.22 2850,-67 2792.46,-26.5 2578.96,-18.46 2489.18,-16.88"/>
<polygon fill="midnightblue" stroke="midnightblue" points="2489.17,-13.38 2479.11,-16.72 2489.06,-20.38 2489.17,-13.38"/>
</g>
<!-- Node114&#45;&gt;Node5 -->
<g id="edge156" class="edge">
<title>Node114&#45;&gt;Node5</title>
<path fill="none" stroke="midnightblue" d="M2618.14,-575.75C2588,-531.61 2445.11,-332.49 2271,-257 2263.38,-253.69 2044.33,-226.86 1935.79,-213.71"/>
<polygon fill="midnightblue" stroke="midnightblue" points="1935.99,-210.21 1925.64,-212.48 1935.15,-217.16 1935.99,-210.21"/>
</g>
<!-- Node114&#45;&gt;Node54 -->
<g id="edge155" class="edge">
<title>Node114&#45;&gt;Node54</title>
<path fill="none" stroke="midnightblue" d="M2621.9,-575.92C2617.89,-560.5 2608.16,-527.44 2593,-503 2514.75,-376.82 2374.64,-261.23 2323.42,-221.29"/>
<polygon fill="midnightblue" stroke="midnightblue" points="2325.51,-218.48 2315.46,-215.13 2321.23,-224.02 2325.51,-218.48"/>
</g>
<!-- Node114&#45;&gt;Node63 -->
<g id="edge157" class="edge">
<title>Node114&#45;&gt;Node63</title>
<path fill="none" stroke="midnightblue" d="M2606.34,-575.87C2583.68,-564.8 2544.17,-545.49 2517.8,-532.6"/>
<polygon fill="midnightblue" stroke="midnightblue" points="2519.26,-529.41 2508.73,-528.17 2516.18,-535.7 2519.26,-529.41"/>
</g>
<!-- Node109&#45;&gt;Node5 -->
<g id="edge162" class="edge">
<title>Node109&#45;&gt;Node5</title>
<path fill="none" stroke="midnightblue" d="M1682.73,-380.47C1704.61,-359.19 1763.66,-302.21 1815,-257 1828.78,-244.86 1844.79,-231.64 1856.95,-221.77"/>
<polygon fill="midnightblue" stroke="midnightblue" points="1859.45,-224.25 1865.03,-215.24 1855.06,-218.8 1859.45,-224.25"/>
</g>
<!-- Node109&#45;&gt;Node41 -->
<g id="edge163" class="edge">
<title>Node109&#45;&gt;Node41</title>
<path fill="none" stroke="midnightblue" d="M1699.35,-380.44C1726.27,-371.36 1769,-356.94 1799.09,-346.78"/>
<polygon fill="midnightblue" stroke="midnightblue" points="1800.41,-350.03 1808.77,-343.52 1798.17,-343.4 1800.41,-350.03"/>
</g>
</g>
</svg>
