<?xml version="1.0" encoding="UTF-8" standalone="no"?>
<!DOCTYPE svg PUBLIC "-//W3C//DTD SVG 1.1//EN"
 "http://www.w3.org/Graphics/SVG/1.1/DTD/svg11.dtd">
<!-- Generated by graphviz version 7.1.0 (0)
 -->
<!-- Title: /software/kratos/doxygen/applications/StructuralMechanicsApplication/custom_elements/cr_beam_element_linear_3D2N.hpp Pages: 1 -->
<!--zoomable 610 -->
<svg id="main" version="1.1" xmlns="http://www.w3.org/2000/svg" xmlns:xlink="http://www.w3.org/1999/xlink" xml:space="preserve" onload="init(evt)">
<style type="text/css"><![CDATA[
.edge:hover path { stroke: red; }
.edge:hover polygon { stroke: red; fill: red; }
]]></style>
<script type="text/javascript"><![CDATA[
var edges = document.getElementsByTagName('g');
if (edges && edges.length) {
  for (var i=0;i<edges.length;i++) {
    if (edges[i].id.substr(0,4)=='edge') {
      edges[i].setAttribute('class','edge');
    }
  }
}
]]></script>
        <defs>
                <circle id="rim" cx="0" cy="0" r="7"/>
                <circle id="rim2" cx="0" cy="0" r="3.5"/>
                <g id="zoomPlus">
                        <use xlink:href="#rim" fill="#404040">
                                <set attributeName="fill" to="#808080" begin="zoomplus.mouseover" end="zoomplus.mouseout"/>
                        </use>
                        <path d="M-4,0h8M0,-4v8" fill="none" stroke="white" stroke-width="1.5" pointer-events="none"/>
                </g>
                <g id="zoomMin">
                        <use xlink:href="#rim" fill="#404040">
                                <set attributeName="fill" to="#808080" begin="zoomminus.mouseover" end="zoomminus.mouseout"/>
                        </use>
                        <path d="M-4,0h8" fill="none" stroke="white" stroke-width="1.5" pointer-events="none"/>
                </g>
                <g id="dirArrow">
                        <path fill="none" stroke="white" stroke-width="1.5" d="M0,-3.0v7 M-2.5,-0.5L0,-3.0L2.5,-0.5"/>
                </g>
               <g id="resetDef">
                       <use xlink:href="#rim2" fill="#404040">
                               <set attributeName="fill" to="#808080" begin="reset.mouseover" end="reset.mouseout"/>
                       </use>
               </g>
        </defs>

<script type="text/javascript">
var viewWidth = 1656;
var viewHeight = 610;
var sectionId = 'dynsection-1';
</script>
<script xlink:href="../../svgpan.js"/>
<svg id="graph" class="graph">
<g id="viewport">
<title>/software/kratos/doxygen/applications/StructuralMechanicsApplication/custom_elements/cr_beam_element_linear_3D2N.hpp</title>
<!-- Node1 -->
<g id="node1" class="node">
<title>Node1</title>
<g id="a_node1"><a xlink:title=" ">
<polygon fill="#999999" stroke="#666666" points="523.5,-602 341.5,-602 341.5,-550 523.5,-550 523.5,-602"/>
<text text-anchor="start" x="349.5" y="-590" font-family="Helvetica,sans-Serif" font-size="10.00">/software/kratos/doxygen</text>
<text text-anchor="start" x="349.5" y="-579" font-family="Helvetica,sans-Serif" font-size="10.00">/applications/StructuralMechanics</text>
<text text-anchor="start" x="349.5" y="-568" font-family="Helvetica,sans-Serif" font-size="10.00">Application/custom_elements/cr</text>
<text text-anchor="middle" x="432.5" y="-557" font-family="Helvetica,sans-Serif" font-size="10.00">_beam_element_linear_3D2N.hpp</text>
</a>
</g>
</g>
<!-- Node2 -->
<g id="node2" class="node">
<title>Node2</title>
<g id="a_node2"><a xlink:href="../../dd/d9e/cr__beam__element__linear__3_d2_n_8cpp.html" target="_top" xlink:title=" ">
<polygon fill="white" stroke="#666666" points="181,-508.5 0,-508.5 0,-456.5 181,-456.5 181,-508.5"/>
<text text-anchor="start" x="8" y="-496.5" font-family="Helvetica,sans-Serif" font-size="10.00">/software/kratos/doxygen</text>
<text text-anchor="start" x="8" y="-485.5" font-family="Helvetica,sans-Serif" font-size="10.00">/applications/StructuralMechanics</text>
<text text-anchor="start" x="8" y="-474.5" font-family="Helvetica,sans-Serif" font-size="10.00">Application/custom_elements/cr</text>
<text text-anchor="middle" x="90.5" y="-463.5" font-family="Helvetica,sans-Serif" font-size="10.00">_beam_element_linear_3D2N.cpp</text>
</a>
</g>
</g>
<!-- Node1&#45;&gt;Node2 -->
<g id="edge1" class="edge">
<title>Node1&#45;&gt;Node2</title>
<path fill="none" stroke="#63b8ff" d="M329.88,-550.51C286.43,-539.82 235.36,-526.81 189.5,-514 183.78,-512.4 177.9,-510.71 171.98,-508.98"/>
<polygon fill="#63b8ff" stroke="#63b8ff" points="329.02,-553.91 339.57,-552.89 330.69,-547.11 329.02,-553.91"/>
</g>
<!-- Node3 -->
<g id="node3" class="node">
<title>Node3</title>
<g id="a_node3"><a xlink:href="../../dd/d34/adjoint__finite__difference__base__element_8cpp.html" target="_top" xlink:title=" ">
<polygon fill="white" stroke="#666666" points="424,-514 199,-514 199,-451 424,-451 424,-514"/>
<text text-anchor="start" x="207" y="-502" font-family="Helvetica,sans-Serif" font-size="10.00">/software/kratos/doxygen</text>
<text text-anchor="start" x="207" y="-491" font-family="Helvetica,sans-Serif" font-size="10.00">/applications/StructuralMechanics</text>
<text text-anchor="start" x="207" y="-480" font-family="Helvetica,sans-Serif" font-size="10.00">Application/custom_response_functions</text>
<text text-anchor="start" x="207" y="-469" font-family="Helvetica,sans-Serif" font-size="10.00">/adjoint_elements/adjoint_finite_difference</text>
<text text-anchor="middle" x="311.5" y="-458" font-family="Helvetica,sans-Serif" font-size="10.00">_base_element.cpp</text>
</a>
</g>
</g>
<!-- Node1&#45;&gt;Node3 -->
<g id="edge2" class="edge">
<title>Node1&#45;&gt;Node3</title>
<path fill="none" stroke="#63b8ff" d="M389.74,-542.66C377.58,-533.47 364.38,-523.48 352.34,-514.38"/>
<polygon fill="#63b8ff" stroke="#63b8ff" points="387.5,-545.36 397.59,-548.6 391.72,-539.78 387.5,-545.36"/>
</g>
<!-- Node4 -->
<g id="node4" class="node">
<title>Node4</title>
<g id="a_node4"><a xlink:href="../../d1/dea/adjoint__finite__difference__cr__beam__element__3_d2_n_8cpp.html" target="_top" xlink:title=" ">
<polygon fill="white" stroke="#666666" points="667,-514 442,-514 442,-451 667,-451 667,-514"/>
<text text-anchor="start" x="450" y="-502" font-family="Helvetica,sans-Serif" font-size="10.00">/software/kratos/doxygen</text>
<text text-anchor="start" x="450" y="-491" font-family="Helvetica,sans-Serif" font-size="10.00">/applications/StructuralMechanics</text>
<text text-anchor="start" x="450" y="-480" font-family="Helvetica,sans-Serif" font-size="10.00">Application/custom_response_functions</text>
<text text-anchor="start" x="450" y="-469" font-family="Helvetica,sans-Serif" font-size="10.00">/adjoint_elements/adjoint_finite_difference</text>
<text text-anchor="middle" x="554.5" y="-458" font-family="Helvetica,sans-Serif" font-size="10.00">_cr_beam_element_3D2N.cpp</text>
</a>
</g>
</g>
<!-- Node1&#45;&gt;Node4 -->
<g id="edge3" class="edge">
<title>Node1&#45;&gt;Node4</title>
<path fill="none" stroke="#63b8ff" d="M475.61,-542.66C487.87,-533.47 501.19,-523.48 513.33,-514.38"/>
<polygon fill="#63b8ff" stroke="#63b8ff" points="473.59,-539.8 467.69,-548.6 477.79,-545.4 473.59,-539.8"/>
</g>
<!-- Node5 -->
<g id="node5" class="node">
<title>Node5</title>
<g id="a_node5"><a xlink:href="../../da/d9a/structural__mechanics__application_8h.html" target="_top" xlink:title=" ">
<polygon fill="white" stroke="#666666" points="866,-508.5 685,-508.5 685,-456.5 866,-456.5 866,-508.5"/>
<text text-anchor="start" x="693" y="-496.5" font-family="Helvetica,sans-Serif" font-size="10.00">/software/kratos/doxygen</text>
<text text-anchor="start" x="693" y="-485.5" font-family="Helvetica,sans-Serif" font-size="10.00">/applications/StructuralMechanics</text>
<text text-anchor="start" x="693" y="-474.5" font-family="Helvetica,sans-Serif" font-size="10.00">Application/structural_mechanics</text>
<text text-anchor="middle" x="775.5" y="-463.5" font-family="Helvetica,sans-Serif" font-size="10.00">_application.h</text>
</a>
</g>
</g>
<!-- Node1&#45;&gt;Node5 -->
<g id="edge4" class="edge">
<title>Node1&#45;&gt;Node5</title>
<path fill="none" stroke="#63b8ff" d="M535.11,-550.45C578.55,-539.75 629.62,-526.75 675.5,-514 681.27,-512.4 687.22,-510.7 693.19,-508.96"/>
<polygon fill="#63b8ff" stroke="#63b8ff" points="534.29,-547.05 525.41,-552.83 535.96,-553.85 534.29,-547.05"/>
</g>
<!-- Node6 -->
<g id="node6" class="node">
<title>Node6</title>
<g id="a_node6"><a xlink:href="../../d0/d34/kratos__internals_8h.html" target="_top" xlink:title=" ">
<polygon fill="white" stroke="#666666" points="666.5,-409.5 454.5,-409.5 454.5,-368.5 666.5,-368.5 666.5,-409.5"/>
<text text-anchor="start" x="462.5" y="-397.5" font-family="Helvetica,sans-Serif" font-size="10.00">/software/kratos/doxygen</text>
<text text-anchor="start" x="462.5" y="-386.5" font-family="Helvetica,sans-Serif" font-size="10.00">/applications/CSharpWrapperApplication</text>
<text text-anchor="middle" x="560.5" y="-375.5" font-family="Helvetica,sans-Serif" font-size="10.00">/custom_includes/kratos_internals.h</text>
</a>
</g>
</g>
<!-- Node5&#45;&gt;Node6 -->
<g id="edge5" class="edge">
<title>Node5&#45;&gt;Node6</title>
<path fill="none" stroke="#63b8ff" d="M705.39,-451.66C673.3,-438 636.13,-422.19 607.47,-409.99"/>
<polygon fill="#63b8ff" stroke="#63b8ff" points="703.65,-454.72 714.22,-455.42 706.39,-448.28 703.65,-454.72"/>
</g>
<!-- Node11 -->
<g id="node11" class="node">
<title>Node11</title>
<g id="a_node11"><a xlink:href="../../db/d93/structural__mechanics__application_8cpp.html" target="_top" xlink:title=" ">
<polygon fill="white" stroke="#666666" points="866,-415 685,-415 685,-363 866,-363 866,-415"/>
<text text-anchor="start" x="693" y="-403" font-family="Helvetica,sans-Serif" font-size="10.00">/software/kratos/doxygen</text>
<text text-anchor="start" x="693" y="-392" font-family="Helvetica,sans-Serif" font-size="10.00">/applications/StructuralMechanics</text>
<text text-anchor="start" x="693" y="-381" font-family="Helvetica,sans-Serif" font-size="10.00">Application/structural_mechanics</text>
<text text-anchor="middle" x="775.5" y="-370" font-family="Helvetica,sans-Serif" font-size="10.00">_application.cpp</text>
</a>
</g>
</g>
<!-- Node5&#45;&gt;Node11 -->
<g id="edge10" class="edge">
<title>Node5&#45;&gt;Node11</title>
<path fill="none" stroke="#63b8ff" d="M775.5,-444.8C775.5,-434.92 775.5,-424.46 775.5,-415.35"/>
<polygon fill="#63b8ff" stroke="#63b8ff" points="772,-444.5 775.5,-454.5 779,-444.5 772,-444.5"/>
</g>
<!-- Node12 -->
<g id="node12" class="node">
<title>Node12</title>
<g id="a_node12"><a xlink:href="../../d8/df8/small__displacement__simp__element_8h.html" target="_top" xlink:title=" ">
<polygon fill="white" stroke="#666666" points="1075,-415 884,-415 884,-363 1075,-363 1075,-415"/>
<text text-anchor="start" x="892" y="-403" font-family="Helvetica,sans-Serif" font-size="10.00">/software/kratos/doxygen</text>
<text text-anchor="start" x="892" y="-392" font-family="Helvetica,sans-Serif" font-size="10.00">/applications/TopologyOptimization</text>
<text text-anchor="start" x="892" y="-381" font-family="Helvetica,sans-Serif" font-size="10.00">Application/custom_elements/small</text>
<text text-anchor="middle" x="979.5" y="-370" font-family="Helvetica,sans-Serif" font-size="10.00">_displacement_simp_element.h</text>
</a>
</g>
</g>
<!-- Node5&#45;&gt;Node12 -->
<g id="edge11" class="edge">
<title>Node5&#45;&gt;Node12</title>
<path fill="none" stroke="#63b8ff" d="M842.49,-451.45C868.53,-439.77 898.04,-426.54 922.98,-415.35"/>
<polygon fill="#63b8ff" stroke="#63b8ff" points="841.4,-448.11 833.71,-455.39 844.26,-454.49 841.4,-448.11"/>
</g>
<!-- Node7 -->
<g id="node7" class="node">
<title>Node7</title>
<g id="a_node7"><a xlink:href="../../d0/d29/kratos__wrapper_8h.html" target="_top" xlink:title=" ">
<polygon fill="white" stroke="#666666" points="446.5,-321.5 234.5,-321.5 234.5,-280.5 446.5,-280.5 446.5,-321.5"/>
<text text-anchor="start" x="242.5" y="-309.5" font-family="Helvetica,sans-Serif" font-size="10.00">/software/kratos/doxygen</text>
<text text-anchor="start" x="242.5" y="-298.5" font-family="Helvetica,sans-Serif" font-size="10.00">/applications/CSharpWrapperApplication</text>
<text text-anchor="middle" x="340.5" y="-287.5" font-family="Helvetica,sans-Serif" font-size="10.00">/custom_includes/kratos_wrapper.h</text>
</a>
</g>
</g>
<!-- Node6&#45;&gt;Node7 -->
<g id="edge6" class="edge">
<title>Node6&#45;&gt;Node7</title>
<path fill="none" stroke="#63b8ff" d="M498.79,-363.88C464.99,-350.66 423.61,-334.49 391.63,-321.99"/>
<polygon fill="#63b8ff" stroke="#63b8ff" points="497.48,-367.12 508.06,-367.5 500.03,-360.6 497.48,-367.12"/>
</g>
<!-- Node10 -->
<g id="node10" class="node">
<title>Node10</title>
<g id="a_node10"><a xlink:href="../../d5/d45/kratos__internals_8cpp.html" target="_top" xlink:title=" ">
<polygon fill="white" stroke="#666666" points="676.5,-321.5 464.5,-321.5 464.5,-280.5 676.5,-280.5 676.5,-321.5"/>
<text text-anchor="start" x="472.5" y="-309.5" font-family="Helvetica,sans-Serif" font-size="10.00">/software/kratos/doxygen</text>
<text text-anchor="start" x="472.5" y="-298.5" font-family="Helvetica,sans-Serif" font-size="10.00">/applications/CSharpWrapperApplication</text>
<text text-anchor="middle" x="570.5" y="-287.5" font-family="Helvetica,sans-Serif" font-size="10.00">/custom_sources/kratos_internals.cpp</text>
</a>
</g>
</g>
<!-- Node6&#45;&gt;Node10 -->
<g id="edge9" class="edge">
<title>Node6&#45;&gt;Node10</title>
<path fill="none" stroke="#63b8ff" d="M564.11,-356.92C565.47,-345.22 566.98,-332.24 568.19,-321.84"/>
<polygon fill="#63b8ff" stroke="#63b8ff" points="560.67,-356.21 562.99,-366.55 567.63,-357.02 560.67,-356.21"/>
</g>
<!-- Node8 -->
<g id="node8" class="node">
<title>Node8</title>
<g id="a_node8"><a xlink:href="../../da/df4/kratos__wrapper_8cpp.html" target="_top" xlink:title=" ">
<polygon fill="white" stroke="#666666" points="226.5,-228 14.5,-228 14.5,-187 226.5,-187 226.5,-228"/>
<text text-anchor="start" x="22.5" y="-216" font-family="Helvetica,sans-Serif" font-size="10.00">/software/kratos/doxygen</text>
<text text-anchor="start" x="22.5" y="-205" font-family="Helvetica,sans-Serif" font-size="10.00">/applications/CSharpWrapperApplication</text>
<text text-anchor="middle" x="120.5" y="-194" font-family="Helvetica,sans-Serif" font-size="10.00">/custom_sources/kratos_wrapper.cpp</text>
</a>
</g>
</g>
<!-- Node7&#45;&gt;Node8 -->
<g id="edge7" class="edge">
<title>Node7&#45;&gt;Node8</title>
<path fill="none" stroke="#63b8ff" d="M282.26,-275.78C246.73,-261 201.87,-242.34 168.41,-228.42"/>
<polygon fill="#63b8ff" stroke="#63b8ff" points="280.52,-278.84 291.09,-279.45 283.21,-272.38 280.52,-278.84"/>
</g>
<!-- Node9 -->
<g id="node9" class="node">
<title>Node9</title>
<g id="a_node9"><a xlink:href="../../d9/df3/_c_sharp_wrapper_application_2external__bindings_2kratos__external__bindings_8cpp.html" target="_top" xlink:title=" ">
<polygon fill="white" stroke="#666666" points="456.5,-233.5 244.5,-233.5 244.5,-181.5 456.5,-181.5 456.5,-233.5"/>
<text text-anchor="start" x="252.5" y="-221.5" font-family="Helvetica,sans-Serif" font-size="10.00">/software/kratos/doxygen</text>
<text text-anchor="start" x="252.5" y="-210.5" font-family="Helvetica,sans-Serif" font-size="10.00">/applications/CSharpWrapperApplication</text>
<text text-anchor="start" x="252.5" y="-199.5" font-family="Helvetica,sans-Serif" font-size="10.00">/external_bindings/kratos_external</text>
<text text-anchor="middle" x="350.5" y="-188.5" font-family="Helvetica,sans-Serif" font-size="10.00">_bindings.cpp</text>
</a>
</g>
</g>
<!-- Node7&#45;&gt;Node9 -->
<g id="edge8" class="edge">
<title>Node7&#45;&gt;Node9</title>
<path fill="none" stroke="#63b8ff" d="M343.9,-268.89C345.15,-257.49 346.54,-244.73 347.73,-233.89"/>
<polygon fill="#63b8ff" stroke="#63b8ff" points="340.44,-268.32 342.83,-278.64 347.4,-269.08 340.44,-268.32"/>
</g>
<!-- Node13 -->
<g id="node13" class="node">
<title>Node13</title>
<g id="a_node13"><a xlink:href="../../da/d01/small__displacement__simp__element_8cpp.html" target="_top" xlink:title=" ">
<polygon fill="white" stroke="#666666" points="685,-233.5 494,-233.5 494,-181.5 685,-181.5 685,-233.5"/>
<text text-anchor="start" x="502" y="-221.5" font-family="Helvetica,sans-Serif" font-size="10.00">/software/kratos/doxygen</text>
<text text-anchor="start" x="502" y="-210.5" font-family="Helvetica,sans-Serif" font-size="10.00">/applications/TopologyOptimization</text>
<text text-anchor="start" x="502" y="-199.5" font-family="Helvetica,sans-Serif" font-size="10.00">Application/custom_elements/small</text>
<text text-anchor="middle" x="589.5" y="-188.5" font-family="Helvetica,sans-Serif" font-size="10.00">_displacement_simp_element.cpp</text>
</a>
</g>
</g>
<!-- Node12&#45;&gt;Node13 -->
<g id="edge12" class="edge">
<title>Node12&#45;&gt;Node13</title>
<path fill="none" stroke="#63b8ff" d="M914.13,-357.91C838.66,-323.18 715.86,-266.66 644.9,-234"/>
<polygon fill="#63b8ff" stroke="#63b8ff" points="912.53,-361.03 923.07,-362.03 915.45,-354.67 912.53,-361.03"/>
</g>
<!-- Node14 -->
<g id="node14" class="node">
<title>Node14</title>
<g id="a_node14"><a xlink:href="../../d5/d7a/structure__adjoint__sensitivity__strategy_8h.html" target="_top" xlink:title=" ">
<polygon fill="white" stroke="#666666" points="1647.5,-239 1459.5,-239 1459.5,-176 1647.5,-176 1647.5,-239"/>
<text text-anchor="start" x="1467.5" y="-227" font-family="Helvetica,sans-Serif" font-size="10.00">/software/kratos/doxygen</text>
<text text-anchor="start" x="1467.5" y="-216" font-family="Helvetica,sans-Serif" font-size="10.00">/applications/TopologyOptimization</text>
<text text-anchor="start" x="1467.5" y="-205" font-family="Helvetica,sans-Serif" font-size="10.00">Application/custom_strategies</text>
<text text-anchor="start" x="1467.5" y="-194" font-family="Helvetica,sans-Serif" font-size="10.00">/structure_adjoint_sensitivity</text>
<text text-anchor="middle" x="1553.5" y="-183" font-family="Helvetica,sans-Serif" font-size="10.00">_strategy.h</text>
</a>
</g>
</g>
<!-- Node12&#45;&gt;Node14 -->
<g id="edge13" class="edge">
<title>Node12&#45;&gt;Node14</title>
<path fill="none" stroke="#63b8ff" d="M1071.54,-359.22C1177.86,-325.97 1351.88,-271.55 1459.17,-238"/>
<polygon fill="#63b8ff" stroke="#63b8ff" points="1070.77,-355.79 1062.27,-362.12 1072.86,-362.47 1070.77,-355.79"/>
</g>
<!-- Node16 -->
<g id="node16" class="node">
<title>Node16</title>
<g id="a_node16"><a xlink:href="../../db/d32/topology__optimization__application_8h.html" target="_top" xlink:title=" ">
<polygon fill="white" stroke="#666666" points="1073.5,-327 885.5,-327 885.5,-275 1073.5,-275 1073.5,-327"/>
<text text-anchor="start" x="893.5" y="-315" font-family="Helvetica,sans-Serif" font-size="10.00">/software/kratos/doxygen</text>
<text text-anchor="start" x="893.5" y="-304" font-family="Helvetica,sans-Serif" font-size="10.00">/applications/TopologyOptimization</text>
<text text-anchor="start" x="893.5" y="-293" font-family="Helvetica,sans-Serif" font-size="10.00">Application/topology_optimization</text>
<text text-anchor="middle" x="979.5" y="-282" font-family="Helvetica,sans-Serif" font-size="10.00">_application.h</text>
</a>
</g>
</g>
<!-- Node12&#45;&gt;Node16 -->
<g id="edge15" class="edge">
<title>Node12&#45;&gt;Node16</title>
<path fill="none" stroke="#63b8ff" d="M979.5,-351.26C979.5,-343.24 979.5,-334.92 979.5,-327.45"/>
<polygon fill="#63b8ff" stroke="#63b8ff" points="976,-351.15 979.5,-361.15 983,-351.15 976,-351.15"/>
</g>
<!-- Node15 -->
<g id="node15" class="node">
<title>Node15</title>
<g id="a_node15"><a xlink:href="../../d1/d32/_topology_optimization_application_2custom__python_2add__custom__strategies__to__python_8cpp.html" target="_top" xlink:title=" ">
<polygon fill="white" stroke="#666666" points="1534.5,-140 1346.5,-140 1346.5,-88 1534.5,-88 1534.5,-140"/>
<text text-anchor="start" x="1354.5" y="-128" font-family="Helvetica,sans-Serif" font-size="10.00">/software/kratos/doxygen</text>
<text text-anchor="start" x="1354.5" y="-117" font-family="Helvetica,sans-Serif" font-size="10.00">/applications/TopologyOptimization</text>
<text text-anchor="start" x="1354.5" y="-106" font-family="Helvetica,sans-Serif" font-size="10.00">Application/custom_python/add</text>
<text text-anchor="middle" x="1440.5" y="-95" font-family="Helvetica,sans-Serif" font-size="10.00">_custom_strategies_to_python.cpp</text>
</a>
</g>
</g>
<!-- Node14&#45;&gt;Node15 -->
<g id="edge14" class="edge">
<title>Node14&#45;&gt;Node15</title>
<path fill="none" stroke="#63b8ff" d="M1506.48,-168.43C1494.84,-159 1482.65,-149.13 1471.96,-140.47"/>
<polygon fill="#63b8ff" stroke="#63b8ff" points="1504.09,-171 1514.07,-174.57 1508.5,-165.56 1504.09,-171"/>
</g>
<!-- Node16&#45;&gt;Node13 -->
<g id="edge16" class="edge">
<title>Node16&#45;&gt;Node13</title>
<path fill="none" stroke="#63b8ff" d="M874.18,-278.51C821.55,-267.4 756.99,-253.22 699.5,-239 693.06,-237.41 686.41,-235.71 679.74,-233.96"/>
<polygon fill="#63b8ff" stroke="#63b8ff" points="873.24,-281.89 883.74,-280.52 874.68,-275.04 873.24,-281.89"/>
</g>
<!-- Node16&#45;&gt;Node14 -->
<g id="edge19" class="edge">
<title>Node16&#45;&gt;Node14</title>
<path fill="none" stroke="#63b8ff" d="M1085.08,-291.17C1181.08,-282 1326.27,-265.26 1450.5,-239 1453.33,-238.4 1456.19,-237.76 1459.08,-237.1"/>
<polygon fill="#63b8ff" stroke="#63b8ff" points="1084.76,-287.69 1075.13,-292.11 1085.42,-294.66 1084.76,-287.69"/>
</g>
<!-- Node16&#45;&gt;Node16 -->
<g id="edge28" class="edge">
<title>Node16&#45;&gt;Node16</title>
<path fill="none" stroke="#63b8ff" d="M1084.49,-310.98C1088.93,-308.41 1091.5,-305.08 1091.5,-301 1091.5,-294.3 1084.57,-289.64 1073.87,-287.02"/>
<polygon fill="#63b8ff" stroke="#63b8ff" points="1083.41,-307.65 1075.29,-314.45 1085.88,-314.2 1083.41,-307.65"/>
</g>
<!-- Node17 -->
<g id="node17" class="node">
<title>Node17</title>
<g id="a_node17"><a xlink:href="../../dc/dc2/residualbased__incrementalupdate__static__simp__scheme_8h.html" target="_top" xlink:title=" ">
<polygon fill="white" stroke="#666666" points="1441.5,-239 1213.5,-239 1213.5,-176 1441.5,-176 1441.5,-239"/>
<text text-anchor="start" x="1221.5" y="-227" font-family="Helvetica,sans-Serif" font-size="10.00">/software/kratos/doxygen</text>
<text text-anchor="start" x="1221.5" y="-216" font-family="Helvetica,sans-Serif" font-size="10.00">/applications/TopologyOptimization</text>
<text text-anchor="start" x="1221.5" y="-205" font-family="Helvetica,sans-Serif" font-size="10.00">Application/custom_strategies</text>
<text text-anchor="start" x="1221.5" y="-194" font-family="Helvetica,sans-Serif" font-size="10.00">/custom_schemes/residualbased</text>
<text text-anchor="middle" x="1327.5" y="-183" font-family="Helvetica,sans-Serif" font-size="10.00">_incrementalupdate_static_simp_scheme.h</text>
</a>
</g>
</g>
<!-- Node16&#45;&gt;Node17 -->
<g id="edge17" class="edge">
<title>Node16&#45;&gt;Node17</title>
<path fill="none" stroke="#63b8ff" d="M1084.67,-272.35C1125.22,-261.69 1171.71,-249.46 1213.1,-238.58"/>
<polygon fill="#63b8ff" stroke="#63b8ff" points="1083.92,-268.93 1075.14,-274.85 1085.7,-275.7 1083.92,-268.93"/>
</g>
<!-- Node18 -->
<g id="node18" class="node">
<title>Node18</title>
<g id="a_node18"><a xlink:href="../../db/db6/structure__response__function__utilities_8h.html" target="_top" xlink:title=" ">
<polygon fill="white" stroke="#666666" points="951,-233.5 742,-233.5 742,-181.5 951,-181.5 951,-233.5"/>
<text text-anchor="start" x="750" y="-221.5" font-family="Helvetica,sans-Serif" font-size="10.00">/software/kratos/doxygen</text>
<text text-anchor="start" x="750" y="-210.5" font-family="Helvetica,sans-Serif" font-size="10.00">/applications/TopologyOptimization</text>
<text text-anchor="start" x="750" y="-199.5" font-family="Helvetica,sans-Serif" font-size="10.00">Application/custom_utilities</text>
<text text-anchor="middle" x="846.5" y="-188.5" font-family="Helvetica,sans-Serif" font-size="10.00">/structure_response_function_utilities.h</text>
</a>
</g>
</g>
<!-- Node16&#45;&gt;Node18 -->
<g id="edge20" class="edge">
<title>Node16&#45;&gt;Node18</title>
<path fill="none" stroke="#63b8ff" d="M933.1,-268.08C916.81,-256.87 898.75,-244.44 883.35,-233.85"/>
<polygon fill="#63b8ff" stroke="#63b8ff" points="930.98,-270.87 941.21,-273.65 934.95,-265.1 930.98,-270.87"/>
</g>
<!-- Node20 -->
<g id="node20" class="node">
<title>Node20</title>
<g id="a_node20"><a xlink:href="../../d3/d19/topology__updating__utilities_8h.html" target="_top" xlink:title=" ">
<polygon fill="white" stroke="#666666" points="1057.5,-140 869.5,-140 869.5,-88 1057.5,-88 1057.5,-140"/>
<text text-anchor="start" x="877.5" y="-128" font-family="Helvetica,sans-Serif" font-size="10.00">/software/kratos/doxygen</text>
<text text-anchor="start" x="877.5" y="-117" font-family="Helvetica,sans-Serif" font-size="10.00">/applications/TopologyOptimization</text>
<text text-anchor="start" x="877.5" y="-106" font-family="Helvetica,sans-Serif" font-size="10.00">Application/custom_utilities</text>
<text text-anchor="middle" x="963.5" y="-95" font-family="Helvetica,sans-Serif" font-size="10.00">/topology_updating_utilities.h</text>
</a>
</g>
</g>
<!-- Node16&#45;&gt;Node20 -->
<g id="edge26" class="edge">
<title>Node16&#45;&gt;Node20</title>
<path fill="none" stroke="#63b8ff" d="M976.35,-263.56C973.2,-227.17 968.45,-172.2 965.69,-140.33"/>
<polygon fill="#63b8ff" stroke="#63b8ff" points="972.83,-263.5 977.18,-273.16 979.8,-262.89 972.83,-263.5"/>
</g>
<!-- Node21 -->
<g id="node21" class="node">
<title>Node21</title>
<g id="a_node21"><a xlink:href="../../de/da4/topology__filtering__utilities_8h.html" target="_top" xlink:title=" ">
<polygon fill="white" stroke="#666666" points="810.5,-140 622.5,-140 622.5,-88 810.5,-88 810.5,-140"/>
<text text-anchor="start" x="630.5" y="-128" font-family="Helvetica,sans-Serif" font-size="10.00">/software/kratos/doxygen</text>
<text text-anchor="start" x="630.5" y="-117" font-family="Helvetica,sans-Serif" font-size="10.00">/applications/TopologyOptimization</text>
<text text-anchor="start" x="630.5" y="-106" font-family="Helvetica,sans-Serif" font-size="10.00">Application/custom_utilities</text>
<text text-anchor="middle" x="716.5" y="-95" font-family="Helvetica,sans-Serif" font-size="10.00">/topology_filtering_utilities.h</text>
</a>
</g>
</g>
<!-- Node16&#45;&gt;Node21 -->
<g id="edge24" class="edge">
<title>Node16&#45;&gt;Node21</title>
<path fill="none" stroke="#63b8ff" d="M873.88,-285.97C815.81,-276.01 751.73,-260.56 732.5,-239 708.58,-212.19 708.9,-168.22 712.12,-140.48"/>
<polygon fill="#63b8ff" stroke="#63b8ff" points="873.08,-289.39 883.52,-287.58 874.23,-282.48 873.08,-289.39"/>
</g>
<!-- Node22 -->
<g id="node22" class="node">
<title>Node22</title>
<g id="a_node22"><a xlink:href="../../d2/d19/topology__optimization__application_8cpp.html" target="_top" xlink:title=" ">
<polygon fill="white" stroke="#666666" points="1195.5,-233.5 1007.5,-233.5 1007.5,-181.5 1195.5,-181.5 1195.5,-233.5"/>
<text text-anchor="start" x="1015.5" y="-221.5" font-family="Helvetica,sans-Serif" font-size="10.00">/software/kratos/doxygen</text>
<text text-anchor="start" x="1015.5" y="-210.5" font-family="Helvetica,sans-Serif" font-size="10.00">/applications/TopologyOptimization</text>
<text text-anchor="start" x="1015.5" y="-199.5" font-family="Helvetica,sans-Serif" font-size="10.00">Application/topology_optimization</text>
<text text-anchor="middle" x="1101.5" y="-188.5" font-family="Helvetica,sans-Serif" font-size="10.00">_application.cpp</text>
</a>
</g>
</g>
<!-- Node16&#45;&gt;Node22 -->
<g id="edge27" class="edge">
<title>Node16&#45;&gt;Node22</title>
<path fill="none" stroke="#63b8ff" d="M1022.48,-267.76C1037.31,-256.64 1053.71,-244.35 1067.7,-233.85"/>
<polygon fill="#63b8ff" stroke="#63b8ff" points="1020.59,-264.8 1014.69,-273.6 1024.79,-270.4 1020.59,-264.8"/>
</g>
<!-- Node17&#45;&gt;Node15 -->
<g id="edge18" class="edge">
<title>Node17&#45;&gt;Node15</title>
<path fill="none" stroke="#63b8ff" d="M1374.52,-168.43C1386.16,-159 1398.35,-149.13 1409.04,-140.47"/>
<polygon fill="#63b8ff" stroke="#63b8ff" points="1372.5,-165.56 1366.93,-174.57 1376.91,-171 1372.5,-165.56"/>
</g>
<!-- Node19 -->
<g id="node19" class="node">
<title>Node19</title>
<g id="a_node19"><a xlink:href="../../de/d8e/_topology_optimization_application_2custom__python_2add__custom__utilities__to__python_8cpp.html" target="_top" xlink:title=" ">
<polygon fill="white" stroke="#666666" points="935.5,-52 747.5,-52 747.5,0 935.5,0 935.5,-52"/>
<text text-anchor="start" x="755.5" y="-40" font-family="Helvetica,sans-Serif" font-size="10.00">/software/kratos/doxygen</text>
<text text-anchor="start" x="755.5" y="-29" font-family="Helvetica,sans-Serif" font-size="10.00">/applications/TopologyOptimization</text>
<text text-anchor="start" x="755.5" y="-18" font-family="Helvetica,sans-Serif" font-size="10.00">Application/custom_python/add</text>
<text text-anchor="middle" x="841.5" y="-7" font-family="Helvetica,sans-Serif" font-size="10.00">_custom_utilities_to_python.cpp</text>
</a>
</g>
</g>
<!-- Node18&#45;&gt;Node19 -->
<g id="edge21" class="edge">
<title>Node18&#45;&gt;Node19</title>
<path fill="none" stroke="#63b8ff" d="M845.48,-170.01C844.51,-135.06 843.07,-83.22 842.21,-52.5"/>
<polygon fill="#63b8ff" stroke="#63b8ff" points="841.97,-169.75 845.75,-179.65 848.97,-169.56 841.97,-169.75"/>
</g>
<!-- Node18&#45;&gt;Node20 -->
<g id="edge22" class="edge">
<title>Node18&#45;&gt;Node20</title>
<path fill="none" stroke="#63b8ff" d="M888.12,-173.95C902.24,-162.91 917.79,-150.75 931.08,-140.35"/>
<polygon fill="#63b8ff" stroke="#63b8ff" points="886,-171.16 880.28,-180.08 890.32,-176.68 886,-171.16"/>
</g>
<!-- Node20&#45;&gt;Node19 -->
<g id="edge23" class="edge">
<title>Node20&#45;&gt;Node19</title>
<path fill="none" stroke="#63b8ff" d="M918.45,-81.24C904.99,-71.76 890.42,-61.48 877.61,-52.45"/>
<polygon fill="#63b8ff" stroke="#63b8ff" points="916.13,-83.89 926.32,-86.79 920.16,-78.17 916.13,-83.89"/>
</g>
<!-- Node21&#45;&gt;Node19 -->
<g id="edge25" class="edge">
<title>Node21&#45;&gt;Node19</title>
<path fill="none" stroke="#63b8ff" d="M762.66,-81.24C776.45,-71.76 791.38,-61.48 804.5,-52.45"/>
<polygon fill="#63b8ff" stroke="#63b8ff" points="760.83,-78.25 754.57,-86.8 764.8,-84.02 760.83,-78.25"/>
</g>
</g>
</svg>
        <g id="navigator" transform="translate(0 0)" fill="#404254">
                <rect fill="#f2f5e9" fill-opacity="0.5" stroke="#606060" stroke-width=".5" x="0" y="0" width="60" height="60"/>
                <use id="zoomplus" xlink:href="#zoomPlus" x="17" y="9" onmousedown="handleZoom(evt,'in')"/>
                <use id="zoomminus" xlink:href="#zoomMin" x="42" y="9" onmousedown="handleZoom(evt,'out')"/>
                <use id="reset" xlink:href="#resetDef" x="30" y="36" onmousedown="handleReset()"/>
                <g id="arrowUp" xlink:href="#dirArrow" transform="translate(30 24)" onmousedown="handlePan(0,-1)">
                  <use xlink:href="#rim" fill="#404040">
                        <set attributeName="fill" to="#808080" begin="arrowUp.mouseover" end="arrowUp.mouseout"/>
                  </use>
                  <path fill="none" stroke="white" stroke-width="1.5" d="M0,-3.0v7 M-2.5,-0.5L0,-3.0L2.5,-0.5"/>
                </g>
                <g id="arrowRight" xlink:href="#dirArrow" transform="rotate(90) translate(36 -43)" onmousedown="handlePan(1,0)">
                  <use xlink:href="#rim" fill="#404040">
                        <set attributeName="fill" to="#808080" begin="arrowRight.mouseover" end="arrowRight.mouseout"/>
                  </use>
                  <path fill="none" stroke="white" stroke-width="1.5" d="M0,-3.0v7 M-2.5,-0.5L0,-3.0L2.5,-0.5"/>
                </g>
                <g id="arrowDown" xlink:href="#dirArrow" transform="rotate(180) translate(-30 -48)" onmousedown="handlePan(0,1)">
                  <use xlink:href="#rim" fill="#404040">
                        <set attributeName="fill" to="#808080" begin="arrowDown.mouseover" end="arrowDown.mouseout"/>
                  </use>
                  <path fill="none" stroke="white" stroke-width="1.5" d="M0,-3.0v7 M-2.5,-0.5L0,-3.0L2.5,-0.5"/>
                </g>
                <g id="arrowLeft" xlink:href="#dirArrow" transform="rotate(270) translate(-36 17)" onmousedown="handlePan(-1,0)">
                  <use xlink:href="#rim" fill="#404040">
                        <set attributeName="fill" to="#808080" begin="arrowLeft.mouseover" end="arrowLeft.mouseout"/>
                  </use>
                  <path fill="none" stroke="white" stroke-width="1.5" d="M0,-3.0v7 M-2.5,-0.5L0,-3.0L2.5,-0.5"/>
                </g>
        </g>
        <svg viewBox="0 0 15 15" width="100%" height="30px" preserveAspectRatio="xMaxYMin meet">
         <g id="arrow_out" transform="scale(0.3 0.3)">
          <a xlink:href="cr__beam__element__linear__3_d2_n_8hpp__dep__incl_org.svg" target="_base">
           <rect id="button" ry="5" rx="5" y="6" x="6" height="38" width="38"
                fill="#f2f5e9" fill-opacity="0.5" stroke="#606060" stroke-width="1.0"/>
           <path id="arrow"
             d="M 11.500037,31.436501 C 11.940474,20.09759 22.043105,11.32322 32.158766,21.979434 L 37.068811,17.246167 C 37.068811,17.246167 37.088388,32 37.088388,32 L 22.160133,31.978069 C 22.160133,31.978069 26.997745,27.140456 26.997745,27.140456 C 18.528582,18.264221 13.291696,25.230495 11.500037,31.436501 z"
             style="fill:#404040;"/>
          </a>
         </g>
        </svg>
</svg>
