<?xml version="1.0" encoding="UTF-8" standalone="no"?>
<!DOCTYPE svg PUBLIC "-//W3C//DTD SVG 1.1//EN"
 "http://www.w3.org/Graphics/SVG/1.1/DTD/svg11.dtd">
<!-- Generated by graphviz version 2.43.0 (0)
 -->
<!-- Title: compare_two_files_check_process.CompareTwoFilesCheckProcess Pages: 1 -->
<svg width="334pt" height="391pt"
 viewBox="0.00 0.00 334.00 391.00" xmlns="http://www.w3.org/2000/svg" xmlns:xlink="http://www.w3.org/1999/xlink">
<g id="graph0" class="graph" transform="scale(1 1) rotate(0) translate(4 387)">
<title>compare_two_files_check_process.CompareTwoFilesCheckProcess</title>
<!-- Node1 -->
<g id="node1" class="node">
<title>Node1</title>
<g id="a_node1"><a xlink:title="This process compares files that are written during a simulation against reference files.">
<polygon fill="#bfbfbf" stroke="black" points="72,-0.5 72,-178.5 250,-178.5 250,-0.5 72,-0.5"/>
<text text-anchor="start" x="80" y="-166.5" font-family="Helvetica,sans-Serif" font-size="10.00">compare_two_files_check</text>
<text text-anchor="start" x="80" y="-155.5" font-family="Helvetica,sans-Serif" font-size="10.00">_process.CompareTwoFilesCheck</text>
<text text-anchor="middle" x="161" y="-144.5" font-family="Helvetica,sans-Serif" font-size="10.00">Process</text>
<polyline fill="none" stroke="black" points="72,-137.5 250,-137.5 "/>
<text text-anchor="start" x="80" y="-125.5" font-family="Helvetica,sans-Serif" font-size="10.00">+ reference_file_name</text>
<text text-anchor="start" x="80" y="-114.5" font-family="Helvetica,sans-Serif" font-size="10.00">+ output_file_name</text>
<text text-anchor="start" x="80" y="-103.5" font-family="Helvetica,sans-Serif" font-size="10.00">+ remove_output_file</text>
<text text-anchor="start" x="80" y="-92.5" font-family="Helvetica,sans-Serif" font-size="10.00">+ comparison_type</text>
<text text-anchor="start" x="80" y="-81.5" font-family="Helvetica,sans-Serif" font-size="10.00">+ tol</text>
<text text-anchor="start" x="80" y="-70.5" font-family="Helvetica,sans-Serif" font-size="10.00">+ reltol</text>
<text text-anchor="start" x="80" y="-59.5" font-family="Helvetica,sans-Serif" font-size="10.00">+ dimension</text>
<text text-anchor="start" x="80" y="-48.5" font-family="Helvetica,sans-Serif" font-size="10.00">+ info_msg</text>
<polyline fill="none" stroke="black" points="72,-41.5 250,-41.5 "/>
<text text-anchor="start" x="80" y="-29.5" font-family="Helvetica,sans-Serif" font-size="10.00">+ __init__()</text>
<text text-anchor="start" x="80" y="-18.5" font-family="Helvetica,sans-Serif" font-size="10.00">+ Execute()</text>
<text text-anchor="start" x="80" y="-7.5" font-family="Helvetica,sans-Serif" font-size="10.00">+ ExecuteFinalize()</text>
</a>
</g>
</g>
<!-- Node2 -->
<g id="node2" class="node">
<title>Node2</title>
<g id="a_node2"><a xlink:title=" ">
<polygon fill="none" stroke="#bfbfbf" points="0,-270.5 0,-327.5 150,-327.5 150,-270.5 0,-270.5"/>
<text text-anchor="middle" x="75" y="-315.5" font-family="Helvetica,sans-Serif" font-size="10.00">KratosMultiphysics.Process</text>
<polyline fill="none" stroke="#bfbfbf" points="0,-308.5 150,-308.5 "/>
<text text-anchor="middle" x="75" y="-296.5" font-family="Helvetica,sans-Serif" font-size="10.00"> </text>
<polyline fill="none" stroke="#bfbfbf" points="0,-289.5 150,-289.5 "/>
<text text-anchor="middle" x="75" y="-277.5" font-family="Helvetica,sans-Serif" font-size="10.00"> </text>
</a>
</g>
</g>
<!-- Node2&#45;&gt;Node1 -->
<g id="edge1" class="edge">
<title>Node2&#45;&gt;Node1</title>
<path fill="none" stroke="midnightblue" d="M90.28,-261.12C99.77,-238.23 112.4,-207.76 124.36,-178.9"/>
<polygon fill="none" stroke="midnightblue" points="87.02,-259.87 86.42,-270.45 93.48,-262.55 87.02,-259.87"/>
</g>
<!-- Node3 -->
<g id="node3" class="node">
<title>Node3</title>
<g id="a_node3"><a xlink:href="../../d4/d65/class_kratos_unittest_1_1_test_case.html" target="_top" xlink:title=" ">
<polygon fill="none" stroke="black" points="168,-215.5 168,-382.5 326,-382.5 326,-215.5 168,-215.5"/>
<text text-anchor="middle" x="247" y="-370.5" font-family="Helvetica,sans-Serif" font-size="10.00">KratosUnittest.TestCase</text>
<polyline fill="none" stroke="black" points="168,-363.5 326,-363.5 "/>
<text text-anchor="start" x="176" y="-351.5" font-family="Helvetica,sans-Serif" font-size="10.00">+ mismatch_idx</text>
<text text-anchor="start" x="176" y="-340.5" font-family="Helvetica,sans-Serif" font-size="10.00">+ aux_message</text>
<text text-anchor="start" x="176" y="-329.5" font-family="Helvetica,sans-Serif" font-size="10.00">+ idx_1</text>
<text text-anchor="start" x="176" y="-318.5" font-family="Helvetica,sans-Serif" font-size="10.00">+ idx_2</text>
<text text-anchor="start" x="176" y="-307.5" font-family="Helvetica,sans-Serif" font-size="10.00">+ aux_msg</text>
<polyline fill="none" stroke="black" points="168,-300.5 326,-300.5 "/>
<text text-anchor="start" x="176" y="-288.5" font-family="Helvetica,sans-Serif" font-size="10.00">+ run()</text>
<text text-anchor="start" x="176" y="-277.5" font-family="Helvetica,sans-Serif" font-size="10.00">+ skipTestIfApplicationsNot</text>
<text text-anchor="start" x="176" y="-266.5" font-family="Helvetica,sans-Serif" font-size="10.00">Available()</text>
<text text-anchor="start" x="176" y="-255.5" font-family="Helvetica,sans-Serif" font-size="10.00">+ assertEqualTolerance()</text>
<text text-anchor="start" x="176" y="-244.5" font-family="Helvetica,sans-Serif" font-size="10.00">+ assertIsClose()</text>
<text text-anchor="start" x="176" y="-233.5" font-family="Helvetica,sans-Serif" font-size="10.00">+ assertVectorAlmostEqual()</text>
<text text-anchor="start" x="176" y="-222.5" font-family="Helvetica,sans-Serif" font-size="10.00">+ assertMatrixAlmostEqual()</text>
</a>
</g>
</g>
<!-- Node3&#45;&gt;Node1 -->
<g id="edge2" class="edge">
<title>Node3&#45;&gt;Node1</title>
<path fill="none" stroke="midnightblue" d="M208.86,-205.97C205.09,-196.88 201.27,-187.66 197.52,-178.61"/>
<polygon fill="none" stroke="midnightblue" points="205.7,-207.5 212.76,-215.39 212.17,-204.82 205.7,-207.5"/>
</g>
</g>
</svg>
