<?xml version="1.0" encoding="UTF-8" standalone="no"?>
<!DOCTYPE svg PUBLIC "-//W3C//DTD SVG 1.1//EN"
 "http://www.w3.org/Graphics/SVG/1.1/DTD/svg11.dtd">
<!-- Generated by graphviz version 7.1.0 (0)
 -->
<!-- Title: /software/kratos/doxygen/applications/SolidMechanicsApplication/custom_solvers/solution_strategies/solution_strategy.hpp Pages: 1 -->
<svg width="737pt" height="412pt"
 viewBox="0.00 0.00 737.00 412.00" xmlns="http://www.w3.org/2000/svg" xmlns:xlink="http://www.w3.org/1999/xlink">
<g id="graph0" class="graph" transform="scale(1 1) rotate(0) translate(4 408)">
<title>/software/kratos/doxygen/applications/SolidMechanicsApplication/custom_solvers/solution_strategies/solution_strategy.hpp</title>
<!-- Node1 -->
<g id="node1" class="node">
<title>Node1</title>
<g id="a_node1"><a xlink:title=" ">
<polygon fill="#999999" stroke="#666666" points="413,-404 201,-404 201,-352 413,-352 413,-404"/>
<text text-anchor="start" x="209" y="-392" font-family="Helvetica,sans-Serif" font-size="10.00">/software/kratos/doxygen</text>
<text text-anchor="start" x="209" y="-381" font-family="Helvetica,sans-Serif" font-size="10.00">/applications/SolidMechanicsApplication</text>
<text text-anchor="start" x="209" y="-370" font-family="Helvetica,sans-Serif" font-size="10.00">/custom_solvers/solution_strategies</text>
<text text-anchor="middle" x="307" y="-359" font-family="Helvetica,sans-Serif" font-size="10.00">/solution_strategy.hpp</text>
</a>
</g>
</g>
<!-- Node2 -->
<g id="node2" class="node">
<title>Node2</title>
<g id="a_node2"><a xlink:href="../../de/d37/_solid_mechanics_application_2custom__solvers_2solution__strategies_2eigensolver__strategy_8hpp.html" target="_top" xlink:title=" ">
<polygon fill="white" stroke="#666666" points="212,-228 0,-228 0,-176 212,-176 212,-228"/>
<text text-anchor="start" x="8" y="-216" font-family="Helvetica,sans-Serif" font-size="10.00">/software/kratos/doxygen</text>
<text text-anchor="start" x="8" y="-205" font-family="Helvetica,sans-Serif" font-size="10.00">/applications/SolidMechanicsApplication</text>
<text text-anchor="start" x="8" y="-194" font-family="Helvetica,sans-Serif" font-size="10.00">/custom_solvers/solution_strategies</text>
<text text-anchor="middle" x="106" y="-183" font-family="Helvetica,sans-Serif" font-size="10.00">/eigensolver_strategy.hpp</text>
</a>
</g>
</g>
<!-- Node1&#45;&gt;Node2 -->
<g id="edge1" class="edge">
<title>Node1&#45;&gt;Node2</title>
<path fill="none" stroke="#63b8ff" d="M262.62,-344.96C250.53,-335.86 237.58,-325.77 226,-316 191.87,-287.23 154.77,-251.56 131,-228.09"/>
<polygon fill="#63b8ff" stroke="#63b8ff" points="260.34,-347.62 270.45,-350.79 264.52,-342.01 260.34,-347.62"/>
</g>
<!-- Node4 -->
<g id="node4" class="node">
<title>Node4</title>
<g id="a_node4"><a xlink:href="../../df/d5c/explicit__strategy_8hpp.html" target="_top" xlink:title=" ">
<polygon fill="white" stroke="#666666" points="346,-140 134,-140 134,-88 346,-88 346,-140"/>
<text text-anchor="start" x="142" y="-128" font-family="Helvetica,sans-Serif" font-size="10.00">/software/kratos/doxygen</text>
<text text-anchor="start" x="142" y="-117" font-family="Helvetica,sans-Serif" font-size="10.00">/applications/SolidMechanicsApplication</text>
<text text-anchor="start" x="142" y="-106" font-family="Helvetica,sans-Serif" font-size="10.00">/custom_solvers/solution_strategies</text>
<text text-anchor="middle" x="240" y="-95" font-family="Helvetica,sans-Serif" font-size="10.00">/explicit_strategy.hpp</text>
</a>
</g>
</g>
<!-- Node1&#45;&gt;Node4 -->
<g id="edge3" class="edge">
<title>Node1&#45;&gt;Node4</title>
<path fill="none" stroke="#63b8ff" d="M274.71,-342.9C268.51,-334.64 262.78,-325.45 259,-316 235.18,-256.44 235.71,-179.32 237.94,-140.18"/>
<polygon fill="#63b8ff" stroke="#63b8ff" points="271.9,-344.99 280.89,-350.6 277.37,-340.61 271.9,-344.99"/>
</g>
<!-- Node5 -->
<g id="node5" class="node">
<title>Node5</title>
<g id="a_node5"><a xlink:href="../../db/d99/linear__strategy_8hpp.html" target="_top" xlink:title=" ">
<polygon fill="white" stroke="#666666" points="480,-316 268,-316 268,-264 480,-264 480,-316"/>
<text text-anchor="start" x="276" y="-304" font-family="Helvetica,sans-Serif" font-size="10.00">/software/kratos/doxygen</text>
<text text-anchor="start" x="276" y="-293" font-family="Helvetica,sans-Serif" font-size="10.00">/applications/SolidMechanicsApplication</text>
<text text-anchor="start" x="276" y="-282" font-family="Helvetica,sans-Serif" font-size="10.00">/custom_solvers/solution_strategies</text>
<text text-anchor="middle" x="374" y="-271" font-family="Helvetica,sans-Serif" font-size="10.00">/linear_strategy.hpp</text>
</a>
</g>
</g>
<!-- Node1&#45;&gt;Node5 -->
<g id="edge5" class="edge">
<title>Node1&#45;&gt;Node5</title>
<path fill="none" stroke="#63b8ff" d="M333.67,-342.76C340.51,-333.99 347.74,-324.7 354.17,-316.45"/>
<polygon fill="#63b8ff" stroke="#63b8ff" points="331.05,-340.43 327.67,-350.47 336.58,-344.73 331.05,-340.43"/>
</g>
<!-- Node8 -->
<g id="node8" class="node">
<title>Node8</title>
<g id="a_node8"><a xlink:href="../../da/d38/segregated__strategy_8hpp.html" target="_top" xlink:title=" ">
<polygon fill="white" stroke="#666666" points="729,-316 517,-316 517,-264 729,-264 729,-316"/>
<text text-anchor="start" x="525" y="-304" font-family="Helvetica,sans-Serif" font-size="10.00">/software/kratos/doxygen</text>
<text text-anchor="start" x="525" y="-293" font-family="Helvetica,sans-Serif" font-size="10.00">/applications/SolidMechanicsApplication</text>
<text text-anchor="start" x="525" y="-282" font-family="Helvetica,sans-Serif" font-size="10.00">/custom_solvers/solution_strategies</text>
<text text-anchor="middle" x="623" y="-271" font-family="Helvetica,sans-Serif" font-size="10.00">/segregated_strategy.hpp</text>
</a>
</g>
</g>
<!-- Node1&#45;&gt;Node8 -->
<g id="edge10" class="edge">
<title>Node1&#45;&gt;Node8</title>
<path fill="none" stroke="#63b8ff" d="M411.16,-348.65C449.33,-338.27 492.26,-326.58 529.44,-316.46"/>
<polygon fill="#63b8ff" stroke="#63b8ff" points="410.72,-345.15 401.99,-351.15 412.56,-351.9 410.72,-345.15"/>
</g>
<!-- Node3 -->
<g id="node3" class="node">
<title>Node3</title>
<g id="a_node3"><a xlink:href="../../d2/d89/_solid_mechanics_application_2custom__python_2add__custom__strategies__to__python_8cpp.html" target="_top" xlink:title=" ">
<polygon fill="white" stroke="#666666" points="480,-52 268,-52 268,0 480,0 480,-52"/>
<text text-anchor="start" x="276" y="-40" font-family="Helvetica,sans-Serif" font-size="10.00">/software/kratos/doxygen</text>
<text text-anchor="start" x="276" y="-29" font-family="Helvetica,sans-Serif" font-size="10.00">/applications/SolidMechanicsApplication</text>
<text text-anchor="start" x="276" y="-18" font-family="Helvetica,sans-Serif" font-size="10.00">/custom_python/add_custom_strategies</text>
<text text-anchor="middle" x="374" y="-7" font-family="Helvetica,sans-Serif" font-size="10.00">_to_python.cpp</text>
</a>
</g>
</g>
<!-- Node2&#45;&gt;Node3 -->
<g id="edge2" class="edge">
<title>Node2&#45;&gt;Node3</title>
<path fill="none" stroke="#63b8ff" d="M102.48,-164.12C102.23,-139.54 106.27,-108.17 125,-88 144.8,-66.68 209.33,-51.23 267.73,-41.21"/>
<polygon fill="#63b8ff" stroke="#63b8ff" points="98.98,-164.18 102.85,-174.05 105.98,-163.93 98.98,-164.18"/>
</g>
<!-- Node4&#45;&gt;Node3 -->
<g id="edge4" class="edge">
<title>Node4&#45;&gt;Node3</title>
<path fill="none" stroke="#63b8ff" d="M289.05,-81.52C303.96,-71.95 320.14,-61.57 334.34,-52.45"/>
<polygon fill="#63b8ff" stroke="#63b8ff" points="287.28,-78.5 280.75,-86.84 291.06,-84.39 287.28,-78.5"/>
</g>
<!-- Node6 -->
<g id="node6" class="node">
<title>Node6</title>
<g id="a_node6"><a xlink:href="../../dd/d21/newton__raphson__strategy_8hpp.html" target="_top" xlink:title=" ">
<polygon fill="white" stroke="#666666" points="480,-228 268,-228 268,-176 480,-176 480,-228"/>
<text text-anchor="start" x="276" y="-216" font-family="Helvetica,sans-Serif" font-size="10.00">/software/kratos/doxygen</text>
<text text-anchor="start" x="276" y="-205" font-family="Helvetica,sans-Serif" font-size="10.00">/applications/SolidMechanicsApplication</text>
<text text-anchor="start" x="276" y="-194" font-family="Helvetica,sans-Serif" font-size="10.00">/custom_solvers/solution_strategies</text>
<text text-anchor="middle" x="374" y="-183" font-family="Helvetica,sans-Serif" font-size="10.00">/newton_raphson_strategy.hpp</text>
</a>
</g>
</g>
<!-- Node5&#45;&gt;Node6 -->
<g id="edge6" class="edge">
<title>Node5&#45;&gt;Node6</title>
<path fill="none" stroke="#63b8ff" d="M374,-252.26C374,-244.24 374,-235.92 374,-228.45"/>
<polygon fill="#63b8ff" stroke="#63b8ff" points="370.5,-252.15 374,-262.15 377.5,-252.15 370.5,-252.15"/>
</g>
<!-- Node6&#45;&gt;Node3 -->
<g id="edge7" class="edge">
<title>Node6&#45;&gt;Node3</title>
<path fill="none" stroke="#63b8ff" d="M374,-164.5C374,-130.88 374,-81.85 374,-52.33"/>
<polygon fill="#63b8ff" stroke="#63b8ff" points="370.5,-164.19 374,-174.19 377.5,-164.19 370.5,-164.19"/>
</g>
<!-- Node7 -->
<g id="node7" class="node">
<title>Node7</title>
<g id="a_node7"><a xlink:href="../../d2/d63/line__search__strategy_8hpp.html" target="_top" xlink:title=" ">
<polygon fill="white" stroke="#666666" points="614,-140 402,-140 402,-88 614,-88 614,-140"/>
<text text-anchor="start" x="410" y="-128" font-family="Helvetica,sans-Serif" font-size="10.00">/software/kratos/doxygen</text>
<text text-anchor="start" x="410" y="-117" font-family="Helvetica,sans-Serif" font-size="10.00">/applications/SolidMechanicsApplication</text>
<text text-anchor="start" x="410" y="-106" font-family="Helvetica,sans-Serif" font-size="10.00">/custom_solvers/solution_strategies</text>
<text text-anchor="middle" x="508" y="-95" font-family="Helvetica,sans-Serif" font-size="10.00">/line_search_strategy.hpp</text>
</a>
</g>
</g>
<!-- Node6&#45;&gt;Node7 -->
<g id="edge8" class="edge">
<title>Node6&#45;&gt;Node7</title>
<path fill="none" stroke="#63b8ff" d="M423.05,-169.52C437.96,-159.95 454.14,-149.57 468.34,-140.45"/>
<polygon fill="#63b8ff" stroke="#63b8ff" points="421.28,-166.5 414.75,-174.84 425.06,-172.39 421.28,-166.5"/>
</g>
<!-- Node7&#45;&gt;Node3 -->
<g id="edge9" class="edge">
<title>Node7&#45;&gt;Node3</title>
<path fill="none" stroke="#63b8ff" d="M458.95,-81.52C444.04,-71.95 427.86,-61.57 413.66,-52.45"/>
<polygon fill="#63b8ff" stroke="#63b8ff" points="456.94,-84.39 467.25,-86.84 460.72,-78.5 456.94,-84.39"/>
</g>
<!-- Node8&#45;&gt;Node3 -->
<g id="edge11" class="edge">
<title>Node8&#45;&gt;Node3</title>
<path fill="none" stroke="#63b8ff" d="M635.24,-252.57C647.5,-208.64 659.78,-134.88 623,-88 604.9,-64.93 539.48,-49.45 480.24,-39.86"/>
<polygon fill="#63b8ff" stroke="#63b8ff" points="631.89,-251.55 632.41,-262.14 638.6,-253.53 631.89,-251.55"/>
</g>
</g>
</svg>
