<?xml version="1.0" encoding="UTF-8" standalone="no"?>
<!DOCTYPE svg PUBLIC "-//W3C//DTD SVG 1.1//EN"
 "http://www.w3.org/Graphics/SVG/1.1/DTD/svg11.dtd">
<!-- Generated by graphviz version 2.43.0 (0)
 -->
<!-- Title: /home/runner/work/Documentation/Documentation/master/applications/GeoMechanicsApplication/custom_elements/geo_cr_beam_element_linear_2D2N.hpp Pages: 1 -->
<svg width="631pt" height="417pt"
 viewBox="0.00 0.00 630.50 417.00" xmlns="http://www.w3.org/2000/svg" xmlns:xlink="http://www.w3.org/1999/xlink">
<g id="graph0" class="graph" transform="scale(1 1) rotate(0) translate(4 413)">
<title>/home/runner/work/Documentation/Documentation/master/applications/GeoMechanicsApplication/custom_elements/geo_cr_beam_element_linear_2D2N.hpp</title>
<!-- Node1 -->
<g id="node1" class="node">
<title>Node1</title>
<g id="a_node1"><a xlink:title=" ">
<polygon fill="#bfbfbf" stroke="black" points="131.5,-356.5 131.5,-408.5 399.5,-408.5 399.5,-356.5 131.5,-356.5"/>
<text text-anchor="start" x="139.5" y="-396.5" font-family="Helvetica,sans-Serif" font-size="10.00">/home/runner/work/Documentation</text>
<text text-anchor="start" x="139.5" y="-385.5" font-family="Helvetica,sans-Serif" font-size="10.00">/Documentation/master/applications</text>
<text text-anchor="start" x="139.5" y="-374.5" font-family="Helvetica,sans-Serif" font-size="10.00">/GeoMechanicsApplication/custom</text>
<text text-anchor="middle" x="265.5" y="-363.5" font-family="Helvetica,sans-Serif" font-size="10.00">_elements/geo_cr_beam_element_linear_2D2N.hpp</text>
</a>
</g>
</g>
<!-- Node2 -->
<g id="node2" class="node">
<title>Node2</title>
<g id="a_node2"><a xlink:href="../../d9/da8/geo__cr__beam__element__linear__2_d2_n_8cpp.html" target="_top" xlink:title=" ">
<polygon fill="none" stroke="black" points="0,-267.5 0,-319.5 267,-319.5 267,-267.5 0,-267.5"/>
<text text-anchor="start" x="8" y="-307.5" font-family="Helvetica,sans-Serif" font-size="10.00">/home/runner/work/Documentation</text>
<text text-anchor="start" x="8" y="-296.5" font-family="Helvetica,sans-Serif" font-size="10.00">/Documentation/master/applications</text>
<text text-anchor="start" x="8" y="-285.5" font-family="Helvetica,sans-Serif" font-size="10.00">/GeoMechanicsApplication/custom</text>
<text text-anchor="middle" x="133.5" y="-274.5" font-family="Helvetica,sans-Serif" font-size="10.00">_elements/geo_cr_beam_element_linear_2D2N.cpp</text>
</a>
</g>
</g>
<!-- Node1&#45;&gt;Node2 -->
<g id="edge1" class="edge">
<title>Node1&#45;&gt;Node2</title>
<path fill="none" stroke="midnightblue" d="M218.9,-350.79C203.41,-340.58 186.36,-329.34 171.59,-319.61"/>
<polygon fill="midnightblue" stroke="midnightblue" points="217.04,-353.76 227.32,-356.34 220.9,-347.91 217.04,-353.76"/>
</g>
<!-- Node3 -->
<g id="node3" class="node">
<title>Node3</title>
<g id="a_node3"><a xlink:href="../../d5/d83/geo__mechanics__application_8h.html" target="_top" xlink:title=" ">
<polygon fill="none" stroke="black" points="285.5,-267.5 285.5,-319.5 509.5,-319.5 509.5,-267.5 285.5,-267.5"/>
<text text-anchor="start" x="293.5" y="-307.5" font-family="Helvetica,sans-Serif" font-size="10.00">/home/runner/work/Documentation</text>
<text text-anchor="start" x="293.5" y="-296.5" font-family="Helvetica,sans-Serif" font-size="10.00">/Documentation/master/applications</text>
<text text-anchor="start" x="293.5" y="-285.5" font-family="Helvetica,sans-Serif" font-size="10.00">/GeoMechanicsApplication/geo_mechanics</text>
<text text-anchor="middle" x="397.5" y="-274.5" font-family="Helvetica,sans-Serif" font-size="10.00">_application.h</text>
</a>
</g>
</g>
<!-- Node1&#45;&gt;Node3 -->
<g id="edge2" class="edge">
<title>Node1&#45;&gt;Node3</title>
<path fill="none" stroke="midnightblue" d="M312.1,-350.79C327.59,-340.58 344.64,-329.34 359.41,-319.61"/>
<polygon fill="midnightblue" stroke="midnightblue" points="310.1,-347.91 303.68,-356.34 313.96,-353.76 310.1,-347.91"/>
</g>
<!-- Node4 -->
<g id="node4" class="node">
<title>Node4</title>
<g id="a_node4"><a xlink:href="../../da/d42/dgeoflow_8h.html" target="_top" xlink:title=" ">
<polygon fill="none" stroke="black" points="186.5,-178.5 186.5,-230.5 380.5,-230.5 380.5,-178.5 186.5,-178.5"/>
<text text-anchor="start" x="194.5" y="-218.5" font-family="Helvetica,sans-Serif" font-size="10.00">/home/runner/work/Documentation</text>
<text text-anchor="start" x="194.5" y="-207.5" font-family="Helvetica,sans-Serif" font-size="10.00">/Documentation/master/applications</text>
<text text-anchor="start" x="194.5" y="-196.5" font-family="Helvetica,sans-Serif" font-size="10.00">/GeoMechanicsApplication/custom</text>
<text text-anchor="middle" x="283.5" y="-185.5" font-family="Helvetica,sans-Serif" font-size="10.00">_workflows/dgeoflow.h</text>
</a>
</g>
</g>
<!-- Node3&#45;&gt;Node4 -->
<g id="edge3" class="edge">
<title>Node3&#45;&gt;Node4</title>
<path fill="none" stroke="midnightblue" d="M356.51,-261.22C343.34,-251.16 328.92,-240.16 316.4,-230.61"/>
<polygon fill="midnightblue" stroke="midnightblue" points="354.45,-264.05 364.53,-267.34 358.7,-258.49 354.45,-264.05"/>
</g>
<!-- Node8 -->
<g id="node8" class="node">
<title>Node8</title>
<g id="a_node8"><a xlink:href="../../df/dc4/geo__mechanics__application_8cpp.html" target="_top" xlink:title=" ">
<polygon fill="none" stroke="black" points="398.5,-178.5 398.5,-230.5 622.5,-230.5 622.5,-178.5 398.5,-178.5"/>
<text text-anchor="start" x="406.5" y="-218.5" font-family="Helvetica,sans-Serif" font-size="10.00">/home/runner/work/Documentation</text>
<text text-anchor="start" x="406.5" y="-207.5" font-family="Helvetica,sans-Serif" font-size="10.00">/Documentation/master/applications</text>
<text text-anchor="start" x="406.5" y="-196.5" font-family="Helvetica,sans-Serif" font-size="10.00">/GeoMechanicsApplication/geo_mechanics</text>
<text text-anchor="middle" x="510.5" y="-185.5" font-family="Helvetica,sans-Serif" font-size="10.00">_application.cpp</text>
</a>
</g>
</g>
<!-- Node3&#45;&gt;Node8 -->
<g id="edge7" class="edge">
<title>Node3&#45;&gt;Node8</title>
<path fill="none" stroke="midnightblue" d="M438.13,-261.22C451.19,-251.16 465.48,-240.16 477.89,-230.61"/>
<polygon fill="midnightblue" stroke="midnightblue" points="435.97,-258.46 430.18,-267.34 440.24,-264.01 435.97,-258.46"/>
</g>
<!-- Node5 -->
<g id="node5" class="node">
<title>Node5</title>
<g id="a_node5"><a xlink:href="../../d7/d88/dgeoflow_8cpp.html" target="_top" xlink:title=" ">
<polygon fill="none" stroke="black" points="79.5,-89.5 79.5,-141.5 273.5,-141.5 273.5,-89.5 79.5,-89.5"/>
<text text-anchor="start" x="87.5" y="-129.5" font-family="Helvetica,sans-Serif" font-size="10.00">/home/runner/work/Documentation</text>
<text text-anchor="start" x="87.5" y="-118.5" font-family="Helvetica,sans-Serif" font-size="10.00">/Documentation/master/applications</text>
<text text-anchor="start" x="87.5" y="-107.5" font-family="Helvetica,sans-Serif" font-size="10.00">/GeoMechanicsApplication/custom</text>
<text text-anchor="middle" x="176.5" y="-96.5" font-family="Helvetica,sans-Serif" font-size="10.00">_workflows/dgeoflow.cpp</text>
</a>
</g>
</g>
<!-- Node4&#45;&gt;Node5 -->
<g id="edge4" class="edge">
<title>Node4&#45;&gt;Node5</title>
<path fill="none" stroke="midnightblue" d="M244.68,-171.93C232.41,-161.96 219.02,-151.07 207.38,-141.61"/>
<polygon fill="midnightblue" stroke="midnightblue" points="242.58,-174.74 252.55,-178.34 247,-169.31 242.58,-174.74"/>
</g>
<!-- Node6 -->
<g id="node6" class="node">
<title>Node6</title>
<g id="a_node6"><a xlink:href="../../d4/d24/kratos__external__bindings_8h.html" target="_top" xlink:title=" ">
<polygon fill="none" stroke="black" points="291.5,-89.5 291.5,-141.5 489.5,-141.5 489.5,-89.5 291.5,-89.5"/>
<text text-anchor="start" x="299.5" y="-129.5" font-family="Helvetica,sans-Serif" font-size="10.00">/home/runner/work/Documentation</text>
<text text-anchor="start" x="299.5" y="-118.5" font-family="Helvetica,sans-Serif" font-size="10.00">/Documentation/master/applications</text>
<text text-anchor="start" x="299.5" y="-107.5" font-family="Helvetica,sans-Serif" font-size="10.00">/GeoMechanicsApplication/external</text>
<text text-anchor="middle" x="390.5" y="-96.5" font-family="Helvetica,sans-Serif" font-size="10.00">_bindings/kratos_external_bindings.h</text>
</a>
</g>
</g>
<!-- Node4&#45;&gt;Node6 -->
<g id="edge5" class="edge">
<title>Node4&#45;&gt;Node6</title>
<path fill="none" stroke="midnightblue" d="M322.32,-171.93C334.59,-161.96 347.98,-151.07 359.62,-141.61"/>
<polygon fill="midnightblue" stroke="midnightblue" points="320,-169.31 314.45,-178.34 324.42,-174.74 320,-169.31"/>
</g>
<!-- Node7 -->
<g id="node7" class="node">
<title>Node7</title>
<g id="a_node7"><a xlink:href="../../dd/d6d/_geo_mechanics_application_2external__bindings_2kratos__external__bindings_8cpp.html" target="_top" xlink:title=" ">
<polygon fill="none" stroke="black" points="286,-0.5 286,-52.5 495,-52.5 495,-0.5 286,-0.5"/>
<text text-anchor="start" x="294" y="-40.5" font-family="Helvetica,sans-Serif" font-size="10.00">/home/runner/work/Documentation</text>
<text text-anchor="start" x="294" y="-29.5" font-family="Helvetica,sans-Serif" font-size="10.00">/Documentation/master/applications</text>
<text text-anchor="start" x="294" y="-18.5" font-family="Helvetica,sans-Serif" font-size="10.00">/GeoMechanicsApplication/external</text>
<text text-anchor="middle" x="390.5" y="-7.5" font-family="Helvetica,sans-Serif" font-size="10.00">_bindings/kratos_external_bindings.cpp</text>
</a>
</g>
</g>
<!-- Node6&#45;&gt;Node7 -->
<g id="edge6" class="edge">
<title>Node6&#45;&gt;Node7</title>
<path fill="none" stroke="midnightblue" d="M390.5,-79.19C390.5,-70.28 390.5,-60.9 390.5,-52.61"/>
<polygon fill="midnightblue" stroke="midnightblue" points="387,-79.34 390.5,-89.34 394,-79.34 387,-79.34"/>
</g>
</g>
</svg>
