<?xml version="1.0" encoding="UTF-8" standalone="no"?>
<!DOCTYPE svg PUBLIC "-//W3C//DTD SVG 1.1//EN"
 "http://www.w3.org/Graphics/SVG/1.1/DTD/svg11.dtd">
<!-- Generated by graphviz version 7.1.0 (0)
 -->
<!-- Title: assign_properties_to_nodes_process.AssignPropertiesToNodesProcess Pages: 1 -->
<svg width="187pt" height="259pt"
 viewBox="0.00 0.00 187.00 259.00" xmlns="http://www.w3.org/2000/svg" xmlns:xlink="http://www.w3.org/1999/xlink">
<g id="graph0" class="graph" transform="scale(1 1) rotate(0) translate(4 255)">
<title>assign_properties_to_nodes_process.AssignPropertiesToNodesProcess</title>
<!-- Node1 -->
<g id="node1" class="node">
<title>Node1</title>
<g id="a_node1"><a xlink:title="All the processes python should be derived from &quot;Process&quot;.">
<polygon fill="#999999" stroke="#666666" points="0,-0.5 0,-156.5 179,-156.5 179,-0.5 0,-0.5"/>
<text text-anchor="start" x="8" y="-144.5" font-family="Helvetica,sans-Serif" font-size="10.00">assign_properties_to</text>
<text text-anchor="start" x="8" y="-133.5" font-family="Helvetica,sans-Serif" font-size="10.00">_nodes_process.AssignProperties</text>
<text text-anchor="middle" x="89.5" y="-122.5" font-family="Helvetica,sans-Serif" font-size="10.00">ToNodesProcess</text>
<polyline fill="none" stroke="#666666" points="0,-115.5 179,-115.5"/>
<text text-anchor="start" x="8" y="-103.5" font-family="Helvetica,sans-Serif" font-size="10.00">+ settings</text>
<text text-anchor="start" x="8" y="-92.5" font-family="Helvetica,sans-Serif" font-size="10.00">+ model</text>
<text text-anchor="start" x="8" y="-81.5" font-family="Helvetica,sans-Serif" font-size="10.00">+ model_part</text>
<text text-anchor="start" x="8" y="-70.5" font-family="Helvetica,sans-Serif" font-size="10.00">+ AssignPropertiesProcess</text>
<polyline fill="none" stroke="#666666" points="0,-63.5 179,-63.5"/>
<text text-anchor="start" x="8" y="-51.5" font-family="Helvetica,sans-Serif" font-size="10.00">+ __init__()</text>
<text text-anchor="start" x="8" y="-40.5" font-family="Helvetica,sans-Serif" font-size="10.00">+ GetVariables()</text>
<text text-anchor="start" x="8" y="-29.5" font-family="Helvetica,sans-Serif" font-size="10.00">+ ExecuteInitialize()</text>
<text text-anchor="start" x="8" y="-18.5" font-family="Helvetica,sans-Serif" font-size="10.00">+ ExecuteInitializeSolution</text>
<text text-anchor="start" x="8" y="-7.5" font-family="Helvetica,sans-Serif" font-size="10.00">Step()</text>
</a>
</g>
</g>
<!-- Node2 -->
<g id="node2" class="node">
<title>Node2</title>
<g id="a_node2"><a xlink:title=" ">
<polygon fill="white" stroke="#666666" points="14.5,-193.5 14.5,-250.5 164.5,-250.5 164.5,-193.5 14.5,-193.5"/>
<text text-anchor="middle" x="89.5" y="-238.5" font-family="Helvetica,sans-Serif" font-size="10.00">KratosMultiphysics.Process</text>
<polyline fill="none" stroke="#666666" points="14.5,-231.5 164.5,-231.5"/>
<text text-anchor="middle" x="89.5" y="-219.5" font-family="Helvetica,sans-Serif" font-size="10.00"> </text>
<polyline fill="none" stroke="#666666" points="14.5,-212.5 164.5,-212.5"/>
<text text-anchor="middle" x="89.5" y="-200.5" font-family="Helvetica,sans-Serif" font-size="10.00"> </text>
</a>
</g>
</g>
<!-- Node2&#45;&gt;Node1 -->
<g id="edge1" class="edge">
<title>Node2&#45;&gt;Node1</title>
<path fill="none" stroke="#63b8ff" d="M89.5,-182.39C89.5,-174.27 89.5,-165.43 89.5,-156.45"/>
<polygon fill="none" stroke="#63b8ff" points="86,-182.2 89.5,-192.2 93,-182.2 86,-182.2"/>
</g>
</g>
</svg>
