<?xml version="1.0" encoding="UTF-8" standalone="no"?>
<!DOCTYPE svg PUBLIC "-//W3C//DTD SVG 1.1//EN"
 "http://www.w3.org/Graphics/SVG/1.1/DTD/svg11.dtd">
<!-- Generated by graphviz version 7.1.0 (0)
 -->
<!-- Title: /software/kratos/doxygen/applications/ConstitutiveModelsApplication/custom_models/plasticity_models/yield_surfaces/mises_huber_yield_surface.hpp Pages: 1 -->
<svg width="1577pt" height="445pt"
 viewBox="0.00 0.00 1576.89 445.00" xmlns="http://www.w3.org/2000/svg" xmlns:xlink="http://www.w3.org/1999/xlink">
<g id="graph0" class="graph" transform="scale(1 1) rotate(0) translate(4 441)">
<title>/software/kratos/doxygen/applications/ConstitutiveModelsApplication/custom_models/plasticity_models/yield_surfaces/mises_huber_yield_surface.hpp</title>
<!-- Node1 -->
<g id="node1" class="node">
<title>Node1</title>
<g id="a_node1"><a xlink:title=" ">
<polygon fill="#999999" stroke="#666666" points="588,-437 388,-437 388,-374 588,-374 588,-437"/>
<text text-anchor="start" x="396" y="-425" font-family="Helvetica,sans-Serif" font-size="10.00">/software/kratos/doxygen</text>
<text text-anchor="start" x="396" y="-414" font-family="Helvetica,sans-Serif" font-size="10.00">/applications/ConstitutiveModels</text>
<text text-anchor="start" x="396" y="-403" font-family="Helvetica,sans-Serif" font-size="10.00">Application/custom_models/plasticity</text>
<text text-anchor="start" x="396" y="-392" font-family="Helvetica,sans-Serif" font-size="10.00">_models/yield_surfaces/mises_huber</text>
<text text-anchor="middle" x="488" y="-381" font-family="Helvetica,sans-Serif" font-size="10.00">_yield_surface.hpp</text>
</a>
</g>
</g>
<!-- Node2 -->
<g id="node2" class="node">
<title>Node2</title>
<g id="a_node2"><a xlink:href="../../d8/de5/simo___j2__plasticity__model_8hpp.html" target="_top" xlink:title=" ">
<polygon fill="white" stroke="#666666" points="206,-233.5 0,-233.5 0,-181.5 206,-181.5 206,-233.5"/>
<text text-anchor="start" x="8" y="-221.5" font-family="Helvetica,sans-Serif" font-size="10.00">/software/kratos/doxygen</text>
<text text-anchor="start" x="8" y="-210.5" font-family="Helvetica,sans-Serif" font-size="10.00">/applications/ConstitutiveModels</text>
<text text-anchor="start" x="8" y="-199.5" font-family="Helvetica,sans-Serif" font-size="10.00">Application/custom_models/plasticity</text>
<text text-anchor="middle" x="103" y="-188.5" font-family="Helvetica,sans-Serif" font-size="10.00">_models/simo_J2_plasticity_model.hpp</text>
</a>
</g>
</g>
<!-- Node1&#45;&gt;Node2 -->
<g id="edge1" class="edge">
<title>Node1&#45;&gt;Node2</title>
<path fill="none" stroke="#63b8ff" d="M417.37,-368.54C340.68,-329.5 220.18,-268.16 152.82,-233.86"/>
<polygon fill="#63b8ff" stroke="#63b8ff" points="415.57,-371.55 426.07,-372.97 418.75,-365.32 415.57,-371.55"/>
</g>
<!-- Node6 -->
<g id="node6" class="node">
<title>Node6</title>
<g id="a_node6"><a xlink:href="../../df/d71/von__mises__linear__elastic__plasticity__model_8hpp.html" target="_top" xlink:title=" ">
<polygon fill="white" stroke="#666666" points="424,-239 224,-239 224,-176 424,-176 424,-239"/>
<text text-anchor="start" x="232" y="-227" font-family="Helvetica,sans-Serif" font-size="10.00">/software/kratos/doxygen</text>
<text text-anchor="start" x="232" y="-216" font-family="Helvetica,sans-Serif" font-size="10.00">/applications/ConstitutiveModels</text>
<text text-anchor="start" x="232" y="-205" font-family="Helvetica,sans-Serif" font-size="10.00">Application/custom_models/plasticity</text>
<text text-anchor="start" x="232" y="-194" font-family="Helvetica,sans-Serif" font-size="10.00">_models/von_mises_linear_elastic</text>
<text text-anchor="middle" x="324" y="-183" font-family="Helvetica,sans-Serif" font-size="10.00">_plasticity_model.hpp</text>
</a>
</g>
</g>
<!-- Node1&#45;&gt;Node6 -->
<g id="edge5" class="edge">
<title>Node1&#45;&gt;Node6</title>
<path fill="none" stroke="#63b8ff" d="M455.21,-365.32C424.17,-328.22 378.19,-273.27 349.72,-239.23"/>
<polygon fill="#63b8ff" stroke="#63b8ff" points="452.3,-367.29 461.4,-372.71 457.67,-362.8 452.3,-367.29"/>
</g>
<!-- Node7 -->
<g id="node7" class="node">
<title>Node7</title>
<g id="a_node7"><a xlink:href="../../d1/dca/von__mises__neo__hookean__plasticity__model_8hpp.html" target="_top" xlink:title=" ">
<polygon fill="white" stroke="#666666" points="732,-233.5 442,-233.5 442,-181.5 732,-181.5 732,-233.5"/>
<text text-anchor="start" x="450" y="-221.5" font-family="Helvetica,sans-Serif" font-size="10.00">/software/kratos/doxygen</text>
<text text-anchor="start" x="450" y="-210.5" font-family="Helvetica,sans-Serif" font-size="10.00">/applications/ConstitutiveModels</text>
<text text-anchor="start" x="450" y="-199.5" font-family="Helvetica,sans-Serif" font-size="10.00">Application/custom_models/plasticity</text>
<text text-anchor="middle" x="587" y="-188.5" font-family="Helvetica,sans-Serif" font-size="10.00">_models/von_mises_neo_hookean_plasticity_model.hpp</text>
</a>
</g>
</g>
<!-- Node1&#45;&gt;Node7 -->
<g id="edge8" class="edge">
<title>Node1&#45;&gt;Node7</title>
<path fill="none" stroke="#63b8ff" d="M508.65,-363.63C528.39,-324.54 557.54,-266.82 574.16,-233.92"/>
<polygon fill="#63b8ff" stroke="#63b8ff" points="505.54,-362.02 504.15,-372.52 511.78,-365.18 505.54,-362.02"/>
</g>
<!-- Node8 -->
<g id="node8" class="node">
<title>Node8</title>
<g id="a_node8"><a xlink:href="../../d3/df8/mises__huber__thermal__yield__surface_8hpp.html" target="_top" xlink:title=" ">
<polygon fill="white" stroke="#666666" points="1223,-338 1023,-338 1023,-275 1223,-275 1223,-338"/>
<text text-anchor="start" x="1031" y="-326" font-family="Helvetica,sans-Serif" font-size="10.00">/software/kratos/doxygen</text>
<text text-anchor="start" x="1031" y="-315" font-family="Helvetica,sans-Serif" font-size="10.00">/applications/ConstitutiveModels</text>
<text text-anchor="start" x="1031" y="-304" font-family="Helvetica,sans-Serif" font-size="10.00">Application/custom_models/plasticity</text>
<text text-anchor="start" x="1031" y="-293" font-family="Helvetica,sans-Serif" font-size="10.00">_models/yield_surfaces/mises_huber</text>
<text text-anchor="middle" x="1123" y="-282" font-family="Helvetica,sans-Serif" font-size="10.00">_thermal_yield_surface.hpp</text>
</a>
</g>
</g>
<!-- Node1&#45;&gt;Node8 -->
<g id="edge11" class="edge">
<title>Node1&#45;&gt;Node8</title>
<path fill="none" stroke="#63b8ff" d="M599.63,-387.45C719.32,-369.16 907.62,-340.4 1022.74,-322.82"/>
<polygon fill="#63b8ff" stroke="#63b8ff" points="599.12,-383.99 589.76,-388.96 600.18,-390.9 599.12,-383.99"/>
</g>
<!-- Node3 -->
<g id="node3" class="node">
<title>Node3</title>
<g id="a_node3"><a xlink:href="../../d4/d36/constitutive__models__application_8h.html" target="_top" xlink:title=" ">
<polygon fill="white" stroke="#666666" points="962,-140 786,-140 786,-88 962,-88 962,-140"/>
<text text-anchor="start" x="794" y="-128" font-family="Helvetica,sans-Serif" font-size="10.00">/software/kratos/doxygen</text>
<text text-anchor="start" x="794" y="-117" font-family="Helvetica,sans-Serif" font-size="10.00">/applications/ConstitutiveModels</text>
<text text-anchor="start" x="794" y="-106" font-family="Helvetica,sans-Serif" font-size="10.00">Application/constitutive_models</text>
<text text-anchor="middle" x="874" y="-95" font-family="Helvetica,sans-Serif" font-size="10.00">_application.h</text>
</a>
</g>
</g>
<!-- Node2&#45;&gt;Node3 -->
<g id="edge2" class="edge">
<title>Node2&#45;&gt;Node3</title>
<path fill="none" stroke="#63b8ff" d="M201.05,-178.62C205.75,-177.65 210.42,-176.77 215,-176 446.94,-136.91 509.72,-170.1 743,-140 756.89,-138.21 771.54,-135.87 785.8,-133.33"/>
<polygon fill="#63b8ff" stroke="#63b8ff" points="200.57,-175.14 191.54,-180.68 202.06,-181.98 200.57,-175.14"/>
</g>
<!-- Node5 -->
<g id="node5" class="node">
<title>Node5</title>
<g id="a_node5"><a xlink:href="../../df/dfa/_constitutive_models_application_2custom__python_2add__custom__constitutive__laws__to__python_8cpp.html" target="_top" xlink:title=" ">
<polygon fill="white" stroke="#666666" points="733.5,-140 510.5,-140 510.5,-88 733.5,-88 733.5,-140"/>
<text text-anchor="start" x="518.5" y="-128" font-family="Helvetica,sans-Serif" font-size="10.00">/software/kratos/doxygen</text>
<text text-anchor="start" x="518.5" y="-117" font-family="Helvetica,sans-Serif" font-size="10.00">/applications/ConstitutiveModels</text>
<text text-anchor="start" x="518.5" y="-106" font-family="Helvetica,sans-Serif" font-size="10.00">Application/custom_python/add</text>
<text text-anchor="middle" x="622" y="-95" font-family="Helvetica,sans-Serif" font-size="10.00">_custom_constitutive_laws_to_python.cpp</text>
</a>
</g>
</g>
<!-- Node2&#45;&gt;Node5 -->
<g id="edge4" class="edge">
<title>Node2&#45;&gt;Node5</title>
<path fill="none" stroke="#63b8ff" d="M204.06,-178.4C207.75,-177.56 211.4,-176.76 215,-176 314.11,-155.15 428.25,-138.69 510.38,-128.15"/>
<polygon fill="#63b8ff" stroke="#63b8ff" points="203.35,-174.97 194.42,-180.68 204.95,-181.79 203.35,-174.97"/>
</g>
<!-- Node4 -->
<g id="node4" class="node">
<title>Node4</title>
<g id="a_node4"><a xlink:href="../../d0/dce/constitutive__models__application_8cpp.html" target="_top" xlink:title=" ">
<polygon fill="white" stroke="#666666" points="962,-52 786,-52 786,0 962,0 962,-52"/>
<text text-anchor="start" x="794" y="-40" font-family="Helvetica,sans-Serif" font-size="10.00">/software/kratos/doxygen</text>
<text text-anchor="start" x="794" y="-29" font-family="Helvetica,sans-Serif" font-size="10.00">/applications/ConstitutiveModels</text>
<text text-anchor="start" x="794" y="-18" font-family="Helvetica,sans-Serif" font-size="10.00">Application/constitutive_models</text>
<text text-anchor="middle" x="874" y="-7" font-family="Helvetica,sans-Serif" font-size="10.00">_application.cpp</text>
</a>
</g>
</g>
<!-- Node3&#45;&gt;Node4 -->
<g id="edge3" class="edge">
<title>Node3&#45;&gt;Node4</title>
<path fill="none" stroke="#63b8ff" d="M874,-76.26C874,-68.24 874,-59.92 874,-52.45"/>
<polygon fill="#63b8ff" stroke="#63b8ff" points="870.5,-76.15 874,-86.15 877.5,-76.15 870.5,-76.15"/>
</g>
<!-- Node6&#45;&gt;Node3 -->
<g id="edge6" class="edge">
<title>Node6&#45;&gt;Node3</title>
<path fill="none" stroke="#63b8ff" d="M435.47,-175.64C571.11,-149.83 609.51,-160.46 743,-140 756.85,-137.88 771.46,-135.36 785.72,-132.76"/>
<polygon fill="#63b8ff" stroke="#63b8ff" points="434.87,-172.19 425.72,-177.53 436.2,-179.06 434.87,-172.19"/>
</g>
<!-- Node6&#45;&gt;Node5 -->
<g id="edge7" class="edge">
<title>Node6&#45;&gt;Node5</title>
<path fill="none" stroke="#63b8ff" d="M435.09,-172.39C469.62,-161.79 507.06,-150.29 539.3,-140.39"/>
<polygon fill="#63b8ff" stroke="#63b8ff" points="434.45,-168.92 425.92,-175.21 436.51,-175.62 434.45,-168.92"/>
</g>
<!-- Node7&#45;&gt;Node3 -->
<g id="edge9" class="edge">
<title>Node7&#45;&gt;Node3</title>
<path fill="none" stroke="#63b8ff" d="M677.86,-177.53C715.31,-165.59 758.31,-151.88 794.48,-140.35"/>
<polygon fill="#63b8ff" stroke="#63b8ff" points="676.85,-174.18 668.39,-180.55 678.98,-180.85 676.85,-174.18"/>
</g>
<!-- Node7&#45;&gt;Node5 -->
<g id="edge10" class="edge">
<title>Node7&#45;&gt;Node5</title>
<path fill="none" stroke="#63b8ff" d="M600.79,-170.45C604.64,-160.38 608.74,-149.66 612.3,-140.35"/>
<polygon fill="#63b8ff" stroke="#63b8ff" points="597.59,-169.01 597.29,-179.6 604.13,-171.51 597.59,-169.01"/>
</g>
<!-- Node8&#45;&gt;Node3 -->
<g id="edge12" class="edge">
<title>Node8&#45;&gt;Node3</title>
<path fill="none" stroke="#63b8ff" d="M1234.75,-305.22C1390.12,-301.18 1642.28,-279.2 1548,-176 1509.24,-133.58 1136.14,-120.37 962.32,-116.5"/>
<polygon fill="#63b8ff" stroke="#63b8ff" points="1234.71,-301.72 1224.79,-305.46 1234.87,-308.72 1234.71,-301.72"/>
</g>
<!-- Node9 -->
<g id="node9" class="node">
<title>Node9</title>
<g id="a_node9"><a xlink:href="../../d9/d08/baker__johnson__cook___j2__thermo__plasticity__model_8hpp.html" target="_top" xlink:title=" ">
<polygon fill="white" stroke="#666666" points="1230.5,-239 1015.5,-239 1015.5,-176 1230.5,-176 1230.5,-239"/>
<text text-anchor="start" x="1023.5" y="-227" font-family="Helvetica,sans-Serif" font-size="10.00">/software/kratos/doxygen</text>
<text text-anchor="start" x="1023.5" y="-216" font-family="Helvetica,sans-Serif" font-size="10.00">/applications/ConstitutiveModels</text>
<text text-anchor="start" x="1023.5" y="-205" font-family="Helvetica,sans-Serif" font-size="10.00">Application/custom_models/plasticity</text>
<text text-anchor="start" x="1023.5" y="-194" font-family="Helvetica,sans-Serif" font-size="10.00">_models/baker_johnson_cook_J2_thermo</text>
<text text-anchor="middle" x="1123" y="-183" font-family="Helvetica,sans-Serif" font-size="10.00">_plasticity_model.hpp</text>
</a>
</g>
</g>
<!-- Node8&#45;&gt;Node9 -->
<g id="edge13" class="edge">
<title>Node8&#45;&gt;Node9</title>
<path fill="none" stroke="#63b8ff" d="M1123,-263.15C1123,-255.2 1123,-247.02 1123,-239.5"/>
<polygon fill="#63b8ff" stroke="#63b8ff" points="1119.5,-263.03 1123,-273.03 1126.5,-263.03 1119.5,-263.03"/>
</g>
<!-- Node10 -->
<g id="node10" class="node">
<title>Node10</title>
<g id="a_node10"><a xlink:href="../../d2/dda/johnson__cook___j2__thermo__plasticity__model_8hpp.html" target="_top" xlink:title=" ">
<polygon fill="white" stroke="#666666" points="1539,-233.5 1249,-233.5 1249,-181.5 1539,-181.5 1539,-233.5"/>
<text text-anchor="start" x="1257" y="-221.5" font-family="Helvetica,sans-Serif" font-size="10.00">/software/kratos/doxygen</text>
<text text-anchor="start" x="1257" y="-210.5" font-family="Helvetica,sans-Serif" font-size="10.00">/applications/ConstitutiveModels</text>
<text text-anchor="start" x="1257" y="-199.5" font-family="Helvetica,sans-Serif" font-size="10.00">Application/custom_models/plasticity</text>
<text text-anchor="middle" x="1394" y="-188.5" font-family="Helvetica,sans-Serif" font-size="10.00">_models/johnson_cook_J2_thermo_plasticity_model.hpp</text>
</a>
</g>
</g>
<!-- Node8&#45;&gt;Node10 -->
<g id="edge16" class="edge">
<title>Node8&#45;&gt;Node10</title>
<path fill="none" stroke="#63b8ff" d="M1219.91,-270.81C1253.87,-258.66 1291.36,-245.24 1322.83,-233.98"/>
<polygon fill="#63b8ff" stroke="#63b8ff" points="1219.15,-267.37 1210.92,-274.03 1221.51,-273.96 1219.15,-267.37"/>
</g>
<!-- Node11 -->
<g id="node11" class="node">
<title>Node11</title>
<g id="a_node11"><a xlink:href="../../d4/d53/simo___j2__thermo__plasticity__model_8hpp.html" target="_top" xlink:title=" ">
<polygon fill="white" stroke="#666666" points="997.5,-233.5 750.5,-233.5 750.5,-181.5 997.5,-181.5 997.5,-233.5"/>
<text text-anchor="start" x="758.5" y="-221.5" font-family="Helvetica,sans-Serif" font-size="10.00">/software/kratos/doxygen</text>
<text text-anchor="start" x="758.5" y="-210.5" font-family="Helvetica,sans-Serif" font-size="10.00">/applications/ConstitutiveModels</text>
<text text-anchor="start" x="758.5" y="-199.5" font-family="Helvetica,sans-Serif" font-size="10.00">Application/custom_models/plasticity</text>
<text text-anchor="middle" x="874" y="-188.5" font-family="Helvetica,sans-Serif" font-size="10.00">_models/simo_J2_thermo_plasticity_model.hpp</text>
</a>
</g>
</g>
<!-- Node8&#45;&gt;Node11 -->
<g id="edge19" class="edge">
<title>Node8&#45;&gt;Node11</title>
<path fill="none" stroke="#63b8ff" d="M1033.15,-270.5C1002.16,-258.43 968.06,-245.14 939.4,-233.98"/>
<polygon fill="#63b8ff" stroke="#63b8ff" points="1031.53,-273.62 1042.12,-273.99 1034.07,-267.1 1031.53,-273.62"/>
</g>
<!-- Node9&#45;&gt;Node3 -->
<g id="edge14" class="edge">
<title>Node9&#45;&gt;Node3</title>
<path fill="none" stroke="#63b8ff" d="M1028.02,-171.6C999.85,-161.25 969.54,-150.11 943.32,-140.47"/>
<polygon fill="#63b8ff" stroke="#63b8ff" points="1026.69,-174.84 1037.28,-175 1029.1,-168.27 1026.69,-174.84"/>
</g>
<!-- Node9&#45;&gt;Node5 -->
<g id="edge15" class="edge">
<title>Node9&#45;&gt;Node5</title>
<path fill="none" stroke="#63b8ff" d="M1003.8,-175.4C903.77,-154.9 875.59,-155.67 777,-140 763,-137.78 748.29,-135.42 733.75,-133.09"/>
<polygon fill="#63b8ff" stroke="#63b8ff" points="1003.04,-178.82 1013.55,-177.42 1004.47,-171.96 1003.04,-178.82"/>
</g>
<!-- Node10&#45;&gt;Node3 -->
<g id="edge17" class="edge">
<title>Node10&#45;&gt;Node3</title>
<path fill="none" stroke="#63b8ff" d="M1256.01,-178.96C1250.61,-177.95 1245.25,-176.96 1240,-176 1145.26,-158.73 1036.35,-140.82 962.13,-128.92"/>
<polygon fill="#63b8ff" stroke="#63b8ff" points="1255.2,-182.37 1265.67,-180.78 1256.49,-175.49 1255.2,-182.37"/>
</g>
<!-- Node10&#45;&gt;Node5 -->
<g id="edge18" class="edge">
<title>Node10&#45;&gt;Node5</title>
<path fill="none" stroke="#63b8ff" d="M1261.1,-179.16C1253.98,-178.01 1246.91,-176.95 1240,-176 1035.52,-147.9 981.95,-164.45 777,-140 762.93,-138.32 748.17,-136.29 733.6,-134.13"/>
<polygon fill="#63b8ff" stroke="#63b8ff" points="1260.4,-182.59 1270.84,-180.78 1261.55,-175.69 1260.4,-182.59"/>
</g>
<!-- Node11&#45;&gt;Node3 -->
<g id="edge20" class="edge">
<title>Node11&#45;&gt;Node3</title>
<path fill="none" stroke="#63b8ff" d="M874,-169.8C874,-159.92 874,-149.46 874,-140.35"/>
<polygon fill="#63b8ff" stroke="#63b8ff" points="870.5,-169.5 874,-179.5 877.5,-169.5 870.5,-169.5"/>
</g>
<!-- Node11&#45;&gt;Node5 -->
<g id="edge21" class="edge">
<title>Node11&#45;&gt;Node5</title>
<path fill="none" stroke="#63b8ff" d="M793.37,-177.22C760.69,-165.36 723.31,-151.79 691.82,-140.35"/>
<polygon fill="#63b8ff" stroke="#63b8ff" points="791.79,-180.37 802.38,-180.5 794.18,-173.79 791.79,-180.37"/>
</g>
</g>
</svg>
