<?xml version="1.0" encoding="UTF-8" standalone="no"?>
<!DOCTYPE svg PUBLIC "-//W3C//DTD SVG 1.1//EN"
 "http://www.w3.org/Graphics/SVG/1.1/DTD/svg11.dtd">
<!-- Generated by graphviz version 7.1.0 (0)
 -->
<!-- Title: /software/kratos/doxygen/applications/MeshingApplication/custom_processes/metric_fast_init_process.h Pages: 1 -->
<svg width="3506pt" height="1028pt"
 viewBox="0.00 0.00 3506.00 1028.00" xmlns="http://www.w3.org/2000/svg" xmlns:xlink="http://www.w3.org/1999/xlink">
<g id="graph0" class="graph" transform="scale(1 1) rotate(0) translate(4 1024)">
<title>/software/kratos/doxygen/applications/MeshingApplication/custom_processes/metric_fast_init_process.h</title>
<!-- Node1 -->
<g id="node1" class="node">
<title>Node1</title>
<g id="a_node1"><a xlink:title=" ">
<polygon fill="#999999" stroke="#666666" points="1011,-1020 833,-1020 833,-968 1011,-968 1011,-1020"/>
<text text-anchor="start" x="841" y="-1008" font-family="Helvetica,sans-Serif" font-size="10.00">/software/kratos/doxygen</text>
<text text-anchor="start" x="841" y="-997" font-family="Helvetica,sans-Serif" font-size="10.00">/applications/MeshingApplication</text>
<text text-anchor="start" x="841" y="-986" font-family="Helvetica,sans-Serif" font-size="10.00">/custom_processes/metric_fast</text>
<text text-anchor="middle" x="922" y="-975" font-family="Helvetica,sans-Serif" font-size="10.00">_init_process.h</text>
</a>
</g>
</g>
<!-- Node2 -->
<g id="node2" class="node">
<title>Node2</title>
<g id="a_node2"><a xlink:href="../../da/d42/process_8h.html" target="_top" xlink:title=" ">
<polygon fill="white" stroke="#666666" points="615.5,-750.5 500.5,-750.5 500.5,-731.5 615.5,-731.5 615.5,-750.5"/>
<text text-anchor="middle" x="558" y="-738.5" font-family="Helvetica,sans-Serif" font-size="10.00">processes/process.h</text>
</a>
</g>
</g>
<!-- Node1&#45;&gt;Node2 -->
<g id="edge1" class="edge">
<title>Node1&#45;&gt;Node2</title>
<path fill="none" stroke="#63b8ff" d="M874.78,-967.58C815.35,-934.71 711.24,-874.15 630,-811 609.17,-794.81 587.63,-773.45 573.6,-758.81"/>
<polygon fill="#63b8ff" stroke="#63b8ff" points="576.36,-756.63 566.95,-751.76 571.27,-761.44 576.36,-756.63"/>
</g>
<!-- Node71 -->
<g id="node30" class="node">
<title>Node71</title>
<g id="a_node30"><a xlink:href="../../d9/dde/meshing__application__variables_8h.html" target="_top" xlink:title=" ">
<polygon fill="white" stroke="#666666" points="981,-877 863,-877 863,-847 981,-847 981,-877"/>
<text text-anchor="start" x="871" y="-865" font-family="Helvetica,sans-Serif" font-size="10.00">meshing_application</text>
<text text-anchor="middle" x="922" y="-854" font-family="Helvetica,sans-Serif" font-size="10.00">_variables.h</text>
</a>
</g>
</g>
<!-- Node1&#45;&gt;Node71 -->
<g id="edge65" class="edge">
<title>Node1&#45;&gt;Node71</title>
<path fill="none" stroke="#63b8ff" d="M922,-967.63C922,-944.83 922,-911.51 922,-888.63"/>
<polygon fill="#63b8ff" stroke="#63b8ff" points="925.5,-888.94 922,-878.94 918.5,-888.94 925.5,-888.94"/>
</g>
<!-- Node114 -->
<g id="node44" class="node">
<title>Node114</title>
<g id="a_node44"><a xlink:href="../../dd/dfe/model__part_8h.html" target="_top" xlink:title=" ">
<polygon fill="white" stroke="#666666" points="2412.5,-932 2287.5,-932 2287.5,-913 2412.5,-913 2412.5,-932"/>
<text text-anchor="middle" x="2350" y="-920" font-family="Helvetica,sans-Serif" font-size="10.00">includes/model_part.h</text>
</a>
</g>
</g>
<!-- Node1&#45;&gt;Node114 -->
<g id="edge140" class="edge">
<title>Node1&#45;&gt;Node114</title>
<path fill="none" stroke="#63b8ff" d="M1011.33,-988.65C1272.96,-975.92 2034.25,-938.87 2275.65,-927.12"/>
<polygon fill="#63b8ff" stroke="#63b8ff" points="2275.75,-930.62 2285.57,-926.64 2275.41,-923.63 2275.75,-930.62"/>
</g>
<!-- Node3 -->
<g id="node3" class="node">
<title>Node3</title>
<g id="a_node3"><a xlink:href="../../df/d67/define_8h.html" target="_top" xlink:title=" ">
<polygon fill="white" stroke="#666666" points="1489.5,-140 1390.5,-140 1390.5,-121 1489.5,-121 1489.5,-140"/>
<text text-anchor="middle" x="1440" y="-128" font-family="Helvetica,sans-Serif" font-size="10.00">includes/define.h</text>
</a>
</g>
</g>
<!-- Node2&#45;&gt;Node3 -->
<g id="edge2" class="edge">
<title>Node2&#45;&gt;Node3</title>
<path fill="none" stroke="#63b8ff" d="M543.33,-731.01C477.76,-690.46 212.85,-522.92 171,-437 119.77,-331.83 105.94,-238.22 205,-176 255.11,-144.53 1136.21,-134.25 1378.68,-132.01"/>
<polygon fill="#63b8ff" stroke="#63b8ff" points="1378.59,-135.51 1388.56,-131.92 1378.53,-128.51 1378.59,-135.51"/>
</g>
<!-- Node17 -->
<g id="node11" class="node">
<title>Node17</title>
<g id="a_node11"><a xlink:href="../../d0/dac/kratos__flags_8h.html" target="_top" xlink:title=" ">
<polygon fill="white" stroke="#666666" points="2088,-563.5 1960,-563.5 1960,-544.5 2088,-544.5 2088,-563.5"/>
<text text-anchor="middle" x="2024" y="-551.5" font-family="Helvetica,sans-Serif" font-size="10.00">includes/kratos_flags.h</text>
</a>
</g>
</g>
<!-- Node2&#45;&gt;Node17 -->
<g id="edge14" class="edge">
<title>Node2&#45;&gt;Node17</title>
<path fill="none" stroke="#63b8ff" d="M615.95,-733.32C805.18,-711.39 1422.04,-638.99 1931,-569 1938.7,-567.94 1946.74,-566.79 1954.75,-565.62"/>
<polygon fill="#63b8ff" stroke="#63b8ff" points="1955.11,-569.11 1964.49,-564.19 1954.09,-562.18 1955.11,-569.11"/>
</g>
<!-- Node68 -->
<g id="node27" class="node">
<title>Node68</title>
<g id="a_node27"><a xlink:href="../../db/d71/kratos__parameters_8h.html" target="_top" xlink:title=" ">
<polygon fill="white" stroke="#666666" points="945.5,-684.5 784.5,-684.5 784.5,-665.5 945.5,-665.5 945.5,-684.5"/>
<text text-anchor="middle" x="865" y="-672.5" font-family="Helvetica,sans-Serif" font-size="10.00">includes/kratos_parameters.h</text>
</a>
</g>
</g>
<!-- Node2&#45;&gt;Node68 -->
<g id="edge60" class="edge">
<title>Node2&#45;&gt;Node68</title>
<path fill="none" stroke="#63b8ff" d="M601.01,-731.03C656.05,-719.56 751.39,-699.68 811.18,-687.22"/>
<polygon fill="#63b8ff" stroke="#63b8ff" points="811.72,-690.68 820.8,-685.21 810.3,-683.83 811.72,-690.68"/>
</g>
<!-- Node4 -->
<g id="node4" class="node">
<title>Node4</title>
<g id="a_node4"><a xlink:title=" ">
<polygon fill="#e0e0e0" stroke="#999999" points="1804.5,-24.5 1739.5,-24.5 1739.5,-5.5 1804.5,-5.5 1804.5,-24.5"/>
<text text-anchor="middle" x="1772" y="-12.5" font-family="Helvetica,sans-Serif" font-size="10.00">stdexcept</text>
</a>
</g>
</g>
<!-- Node3&#45;&gt;Node4 -->
<g id="edge3" class="edge">
<title>Node3&#45;&gt;Node4</title>
<path fill="none" stroke="#63b8ff" d="M1443.75,-120.86C1450.32,-106.86 1465.3,-79.41 1487,-66 1526.54,-41.56 1657.82,-26.33 1727.57,-19.76"/>
<polygon fill="#63b8ff" stroke="#63b8ff" points="1727.88,-23.25 1737.51,-18.85 1727.24,-16.28 1727.88,-23.25"/>
</g>
<!-- Node5 -->
<g id="node5" class="node">
<title>Node5</title>
<g id="a_node5"><a xlink:title=" ">
<polygon fill="#e0e0e0" stroke="#999999" points="3393,-24.5 3337,-24.5 3337,-5.5 3393,-5.5 3393,-24.5"/>
<text text-anchor="middle" x="3365" y="-12.5" font-family="Helvetica,sans-Serif" font-size="10.00">sstream</text>
</a>
</g>
</g>
<!-- Node3&#45;&gt;Node5 -->
<g id="edge4" class="edge">
<title>Node3&#45;&gt;Node5</title>
<path fill="none" stroke="#63b8ff" d="M1489.52,-126.58C1762.38,-110.49 3079.08,-32.86 3325.29,-18.34"/>
<polygon fill="#63b8ff" stroke="#63b8ff" points="3325.23,-21.85 3335.01,-17.77 3324.82,-14.86 3325.23,-21.85"/>
</g>
<!-- Node6 -->
<g id="node6" class="node">
<title>Node6</title>
<g id="a_node6"><a xlink:href="../../dc/d25/kratos__export__api_8h.html" target="_top" xlink:title=" ">
<polygon fill="white" stroke="#666666" points="1570,-30 1442,-30 1442,0 1570,0 1570,-30"/>
<text text-anchor="start" x="1450" y="-18" font-family="Helvetica,sans-Serif" font-size="10.00">includes/kratos_export</text>
<text text-anchor="middle" x="1506" y="-7" font-family="Helvetica,sans-Serif" font-size="10.00">_api.h</text>
</a>
</g>
</g>
<!-- Node3&#45;&gt;Node6 -->
<g id="edge5" class="edge">
<title>Node3&#45;&gt;Node6</title>
<path fill="none" stroke="#63b8ff" d="M1440.34,-120.72C1441.18,-107.92 1444.06,-83.72 1454,-66 1459.93,-55.43 1468.8,-45.71 1477.55,-37.7"/>
<polygon fill="#63b8ff" stroke="#63b8ff" points="1479.7,-40.47 1484.99,-31.29 1475.13,-35.17 1479.7,-40.47"/>
</g>
<!-- Node7 -->
<g id="node7" class="node">
<title>Node7</title>
<g id="a_node7"><a xlink:href="../../d9/dc0/smart__pointers_8h.html" target="_top" xlink:title=" ">
<polygon fill="#fff0f0" stroke="red" points="1639.5,-85 1496.5,-85 1496.5,-66 1639.5,-66 1639.5,-85"/>
<text text-anchor="middle" x="1568" y="-73" font-family="Helvetica,sans-Serif" font-size="10.00">includes/smart_pointers.h</text>
</a>
</g>
</g>
<!-- Node3&#45;&gt;Node7 -->
<g id="edge6" class="edge">
<title>Node3&#45;&gt;Node7</title>
<path fill="none" stroke="#63b8ff" d="M1461.71,-120.51C1482.16,-112.04 1513.02,-99.27 1536.23,-89.66"/>
<polygon fill="#63b8ff" stroke="#63b8ff" points="1537.31,-93 1545.21,-85.94 1534.63,-86.53 1537.31,-93"/>
</g>
<!-- Node12 -->
<g id="node9" class="node">
<title>Node12</title>
<g id="a_node9"><a xlink:href="../../dd/d2d/exception_8h.html" target="_top" xlink:title=" ">
<polygon fill="#fff0f0" stroke="red" points="1905.5,-85 1788.5,-85 1788.5,-66 1905.5,-66 1905.5,-85"/>
<text text-anchor="middle" x="1847" y="-73" font-family="Helvetica,sans-Serif" font-size="10.00">includes/exception.h</text>
</a>
</g>
</g>
<!-- Node3&#45;&gt;Node12 -->
<g id="edge8" class="edge">
<title>Node3&#45;&gt;Node12</title>
<path fill="none" stroke="#63b8ff" d="M1489.91,-123C1561.88,-113.63 1695.12,-96.28 1776.93,-85.62"/>
<polygon fill="#63b8ff" stroke="#63b8ff" points="1777.15,-89.13 1786.62,-84.36 1776.25,-82.18 1777.15,-89.13"/>
</g>
<!-- Node8 -->
<g id="node8" class="node">
<title>Node8</title>
<g id="a_node8"><a xlink:title=" ">
<polygon fill="#e0e0e0" stroke="#999999" points="1964,-24.5 1904,-24.5 1904,-5.5 1964,-5.5 1964,-24.5"/>
<text text-anchor="middle" x="1934" y="-12.5" font-family="Helvetica,sans-Serif" font-size="10.00">iostream</text>
</a>
</g>
</g>
<!-- Node7&#45;&gt;Node8 -->
<g id="edge7" class="edge">
<title>Node7&#45;&gt;Node8</title>
<path fill="none" stroke="#63b8ff" d="M1623.99,-65.55C1698.04,-53.72 1826.84,-33.13 1892.68,-22.6"/>
<polygon fill="#63b8ff" stroke="#63b8ff" points="1893.01,-26.1 1902.34,-21.06 1891.91,-19.18 1893.01,-26.1"/>
</g>
<!-- Node12&#45;&gt;Node4 -->
<g id="edge9" class="edge">
<title>Node12&#45;&gt;Node4</title>
<path fill="none" stroke="#63b8ff" d="M1835.61,-65.62C1824.16,-56.68 1806.25,-42.72 1792.35,-31.87"/>
<polygon fill="#63b8ff" stroke="#63b8ff" points="1794.73,-29.29 1784.69,-25.9 1790.42,-34.81 1794.73,-29.29"/>
</g>
<!-- Node12&#45;&gt;Node5 -->
<g id="edge12" class="edge">
<title>Node12&#45;&gt;Node5</title>
<path fill="none" stroke="#63b8ff" d="M1905.58,-72.24C2154.12,-62.66 3118.17,-25.51 3325.56,-17.52"/>
<polygon fill="#63b8ff" stroke="#63b8ff" points="3325.4,-21.03 3335.26,-17.15 3325.13,-14.03 3325.4,-21.03"/>
</g>
<!-- Node12&#45;&gt;Node6 -->
<g id="edge13" class="edge">
<title>Node12&#45;&gt;Node6</title>
<path fill="none" stroke="#63b8ff" d="M1794.84,-65.55C1737.87,-55.78 1646.13,-40.04 1581.34,-28.93"/>
<polygon fill="#63b8ff" stroke="#63b8ff" points="1582.32,-25.54 1571.87,-27.3 1581.14,-32.44 1582.32,-25.54"/>
</g>
<!-- Node12&#45;&gt;Node8 -->
<g id="edge11" class="edge">
<title>Node12&#45;&gt;Node8</title>
<path fill="none" stroke="#63b8ff" d="M1860.21,-65.62C1873.75,-56.51 1895.07,-42.18 1911.32,-31.25"/>
<polygon fill="#63b8ff" stroke="#63b8ff" points="1913.06,-34.3 1919.41,-25.81 1909.15,-28.49 1913.06,-34.3"/>
</g>
<!-- Node13 -->
<g id="node10" class="node">
<title>Node13</title>
<g id="a_node10"><a xlink:title=" ">
<polygon fill="#e0e0e0" stroke="#999999" points="2830,-24.5 2786,-24.5 2786,-5.5 2830,-5.5 2830,-24.5"/>
<text text-anchor="middle" x="2808" y="-12.5" font-family="Helvetica,sans-Serif" font-size="10.00">string</text>
</a>
</g>
</g>
<!-- Node12&#45;&gt;Node13 -->
<g id="edge10" class="edge">
<title>Node12&#45;&gt;Node13</title>
<path fill="none" stroke="#63b8ff" d="M1905.67,-70.93C2086.83,-59.9 2633.63,-26.61 2774.57,-18.03"/>
<polygon fill="#63b8ff" stroke="#63b8ff" points="2774.56,-21.54 2784.33,-17.44 2774.14,-14.55 2774.56,-21.54"/>
</g>
<!-- Node17&#45;&gt;Node3 -->
<g id="edge15" class="edge">
<title>Node17&#45;&gt;Node3</title>
<path fill="none" stroke="#63b8ff" d="M2017.73,-544.09C1984.22,-497.19 1820.62,-277.27 1630,-176 1589.83,-154.66 1539.54,-143.47 1500.79,-137.64"/>
<polygon fill="#63b8ff" stroke="#63b8ff" points="1501.57,-134.22 1491.18,-136.28 1500.59,-141.15 1501.57,-134.22"/>
</g>
<!-- Node18 -->
<g id="node12" class="node">
<title>Node18</title>
<g id="a_node12"><a xlink:href="../../d9/da0/flags_8h.html" target="_top" xlink:title=" ">
<polygon fill="white" stroke="#666666" points="2175.5,-250 2072.5,-250 2072.5,-231 2175.5,-231 2175.5,-250"/>
<text text-anchor="middle" x="2124" y="-238" font-family="Helvetica,sans-Serif" font-size="10.00">containers/flags.h</text>
</a>
</g>
</g>
<!-- Node17&#45;&gt;Node18 -->
<g id="edge16" class="edge">
<title>Node17&#45;&gt;Node18</title>
<path fill="none" stroke="#63b8ff" d="M2043.18,-544.14C2059.82,-535.62 2083.6,-521.34 2099,-503 2119.6,-478.46 2121.41,-468.36 2128,-437 2141.24,-373.97 2132.66,-297 2127.33,-261.36"/>
<polygon fill="#63b8ff" stroke="#63b8ff" points="2130.82,-261.03 2125.8,-251.7 2123.91,-262.12 2130.82,-261.03"/>
</g>
<!-- Node19 -->
<g id="node13" class="node">
<title>Node19</title>
<g id="a_node13"><a xlink:href="../../dc/d8e/kratos__components_8h.html" target="_top" xlink:title=" ">
<polygon fill="#fff0f0" stroke="red" points="1942.5,-497.5 1777.5,-497.5 1777.5,-478.5 1942.5,-478.5 1942.5,-497.5"/>
<text text-anchor="middle" x="1860" y="-485.5" font-family="Helvetica,sans-Serif" font-size="10.00">includes/kratos_components.h</text>
</a>
</g>
</g>
<!-- Node17&#45;&gt;Node19 -->
<g id="edge20" class="edge">
<title>Node17&#45;&gt;Node19</title>
<path fill="none" stroke="#63b8ff" d="M2001.2,-544.1C1973.25,-533.19 1925.65,-514.62 1893.53,-502.09"/>
<polygon fill="#63b8ff" stroke="#63b8ff" points="1894.87,-498.85 1884.28,-498.48 1892.33,-505.37 1894.87,-498.85"/>
</g>
<!-- Node18&#45;&gt;Node3 -->
<g id="edge19" class="edge">
<title>Node18&#45;&gt;Node3</title>
<path fill="none" stroke="#63b8ff" d="M2106.54,-230.53C2075.19,-214.59 2010.36,-182.38 1986,-176 1895.87,-152.38 1623.88,-138.85 1501.19,-133.8"/>
<polygon fill="#63b8ff" stroke="#63b8ff" points="1501.44,-130.31 1491.31,-133.4 1501.16,-137.3 1501.44,-130.31"/>
</g>
<!-- Node18&#45;&gt;Node8 -->
<g id="edge18" class="edge">
<title>Node18&#45;&gt;Node8</title>
<path fill="none" stroke="#63b8ff" d="M2128.53,-230.82C2134.34,-218.54 2143.1,-195.44 2138,-176 2123.76,-121.72 2118.99,-102.07 2076,-66 2047.24,-41.87 2006.04,-29.08 1975.42,-22.49"/>
<polygon fill="#63b8ff" stroke="#63b8ff" points="1976.23,-19.09 1965.74,-20.56 1974.86,-25.95 1976.23,-19.09"/>
</g>
<!-- Node18&#45;&gt;Node13 -->
<g id="edge17" class="edge">
<title>Node18&#45;&gt;Node13</title>
<path fill="none" stroke="#63b8ff" d="M2153.36,-230.52C2227.63,-207.64 2428.83,-144.78 2594,-85 2615.57,-77.19 2620.33,-73.54 2642,-66 2687.39,-50.21 2740.74,-34.67 2774.46,-25.2"/>
<polygon fill="#63b8ff" stroke="#63b8ff" points="2775.37,-28.58 2784.06,-22.53 2773.49,-21.84 2775.37,-28.58"/>
</g>
<!-- Node19&#45;&gt;Node3 -->
<g id="edge24" class="edge">
<title>Node19&#45;&gt;Node3</title>
<path fill="none" stroke="#63b8ff" d="M1850.67,-478.03C1824.22,-452.37 1747.13,-375.97 1692,-305 1667.95,-274.04 1665.81,-263.57 1644,-231 1627.47,-206.31 1630.28,-193.12 1606,-176 1575.22,-154.3 1534.43,-143.18 1500.99,-137.48"/>
<polygon fill="#63b8ff" stroke="#63b8ff" points="1501.87,-134.08 1491.45,-135.99 1500.79,-140.99 1501.87,-134.08"/>
</g>
<!-- Node19&#45;&gt;Node8 -->
<g id="edge22" class="edge">
<title>Node19&#45;&gt;Node8</title>
<path fill="none" stroke="#63b8ff" d="M1863.42,-478.07C1878.17,-438.91 1936.16,-278.09 1948,-140 1950.81,-107.23 1952.48,-98.58 1948,-66 1946.58,-55.69 1943.6,-44.52 1940.75,-35.35"/>
<polygon fill="#63b8ff" stroke="#63b8ff" points="1944.16,-34.53 1937.7,-26.13 1937.52,-36.73 1944.16,-34.53"/>
</g>
<!-- Node19&#45;&gt;Node13 -->
<g id="edge21" class="edge">
<title>Node19&#45;&gt;Node13</title>
<path fill="none" stroke="#63b8ff" d="M1942.73,-481.74C2104.15,-470.12 2453.88,-437.79 2552,-371 2589.4,-345.54 2574.37,-316.26 2608,-286 2673.46,-227.1 2733.31,-267 2784,-195 2818.24,-146.36 2814.91,-71.52 2810.89,-36.01"/>
<polygon fill="#63b8ff" stroke="#63b8ff" points="2814.4,-35.8 2809.64,-26.33 2807.45,-36.7 2814.4,-35.8"/>
</g>
<!-- Node19&#45;&gt;Node18 -->
<g id="edge25" class="edge">
<title>Node19&#45;&gt;Node18</title>
<path fill="none" stroke="#63b8ff" d="M1869.14,-478.01C1898.27,-449.44 1991.74,-358.31 2072,-286 2082.7,-276.36 2094.93,-265.87 2104.84,-257.49"/>
<polygon fill="#63b8ff" stroke="#63b8ff" points="2106.94,-260.3 2112.35,-251.19 2102.44,-254.94 2106.94,-260.3"/>
</g>
<!-- Node20 -->
<g id="node14" class="node">
<title>Node20</title>
<g id="a_node14"><a xlink:title=" ">
<polygon fill="#e0e0e0" stroke="#999999" points="1298,-250 1260,-250 1260,-231 1298,-231 1298,-250"/>
<text text-anchor="middle" x="1279" y="-238" font-family="Helvetica,sans-Serif" font-size="10.00">map</text>
</a>
</g>
</g>
<!-- Node19&#45;&gt;Node20 -->
<g id="edge23" class="edge">
<title>Node19&#45;&gt;Node20</title>
<path fill="none" stroke="#63b8ff" d="M1838.98,-478.12C1751.03,-440.96 1412.4,-297.87 1309.09,-254.22"/>
<polygon fill="#63b8ff" stroke="#63b8ff" points="1310.46,-250.99 1299.89,-250.33 1307.74,-257.44 1310.46,-250.99"/>
</g>
<!-- Node62 -->
<g id="node15" class="node">
<title>Node62</title>
<g id="a_node15"><a xlink:href="../../da/d89/variable_8h.html" target="_top" xlink:title=" ">
<polygon fill="#fff0f0" stroke="red" points="2119.5,-431.5 2000.5,-431.5 2000.5,-412.5 2119.5,-412.5 2119.5,-431.5"/>
<text text-anchor="middle" x="2060" y="-419.5" font-family="Helvetica,sans-Serif" font-size="10.00">containers/variable.h</text>
</a>
</g>
</g>
<!-- Node19&#45;&gt;Node62 -->
<g id="edge26" class="edge">
<title>Node19&#45;&gt;Node62</title>
<path fill="none" stroke="#63b8ff" d="M1887.81,-478.1C1922.49,-467 1981.97,-447.97 2021.14,-435.43"/>
<polygon fill="#63b8ff" stroke="#63b8ff" points="2022.21,-438.77 2030.66,-432.39 2020.07,-432.1 2022.21,-438.77"/>
</g>
<!-- Node62&#45;&gt;Node3 -->
<g id="edge29" class="edge">
<title>Node62&#45;&gt;Node3</title>
<path fill="none" stroke="#63b8ff" d="M2045.38,-412.13C2014.57,-393.29 1940.93,-347.52 1882,-305 1807.36,-251.15 1804.22,-213.11 1720,-176 1649.16,-144.79 1559.69,-135.13 1501.21,-132.32"/>
<polygon fill="#63b8ff" stroke="#63b8ff" points="1501.59,-128.84 1491.46,-131.91 1501.3,-135.83 1501.59,-128.84"/>
</g>
<!-- Node62&#45;&gt;Node8 -->
<g id="edge28" class="edge">
<title>Node62&#45;&gt;Node8</title>
<path fill="none" stroke="#63b8ff" d="M2057.87,-412.18C2051.57,-384.21 2035.15,-295.52 2063,-231 2072.09,-209.93 2091.07,-216.14 2100,-195 2103.28,-187.22 2102.14,-184.17 2100,-176 2085.76,-121.72 2078.95,-104.37 2038,-66 2020.03,-49.16 1995.34,-36.97 1974.53,-28.84"/>
<polygon fill="#63b8ff" stroke="#63b8ff" points="1975.76,-25.56 1965.16,-25.37 1973.33,-32.13 1975.76,-25.56"/>
</g>
<!-- Node62&#45;&gt;Node13 -->
<g id="edge27" class="edge">
<title>Node62&#45;&gt;Node13</title>
<path fill="none" stroke="#63b8ff" d="M2119.92,-415.29C2232.57,-404.35 2466.03,-380.68 2481,-371 2517.99,-347.07 2504.73,-320.6 2532,-286 2618.37,-176.4 2655.93,-163.25 2756,-66 2767.53,-54.79 2780.58,-42.25 2790.72,-32.53"/>
<polygon fill="#63b8ff" stroke="#63b8ff" points="2792.87,-35.31 2797.67,-25.87 2788.03,-30.26 2792.87,-35.31"/>
</g>
<!-- Node63 -->
<g id="node16" class="node">
<title>Node63</title>
<g id="a_node16"><a xlink:href="../../d3/dc3/variable__data_8h.html" target="_top" xlink:title=" ">
<polygon fill="#fff0f0" stroke="red" points="2472,-365.5 2380,-365.5 2380,-346.5 2472,-346.5 2472,-365.5"/>
<text text-anchor="middle" x="2426" y="-353.5" font-family="Helvetica,sans-Serif" font-size="10.00">variable_data.h</text>
</a>
</g>
</g>
<!-- Node62&#45;&gt;Node63 -->
<g id="edge30" class="edge">
<title>Node62&#45;&gt;Node63</title>
<path fill="none" stroke="#63b8ff" d="M2111.28,-412.03C2179.06,-400.18 2298.15,-379.36 2368.79,-367"/>
<polygon fill="#63b8ff" stroke="#63b8ff" points="2368.96,-370.53 2378.2,-365.36 2367.75,-363.63 2368.96,-370.53"/>
</g>
<!-- Node63&#45;&gt;Node3 -->
<g id="edge34" class="edge">
<title>Node63&#45;&gt;Node3</title>
<path fill="none" stroke="#63b8ff" d="M2410.52,-346.07C2372.7,-324.47 2272.22,-268.44 2184,-231 2114.39,-201.46 2097.07,-191.22 2023,-176 1835.44,-137.46 1607.76,-131.55 1500.91,-131.12"/>
<polygon fill="#63b8ff" stroke="#63b8ff" points="1501.24,-127.62 1491.24,-131.09 1501.23,-134.62 1501.24,-127.62"/>
</g>
<!-- Node63&#45;&gt;Node8 -->
<g id="edge32" class="edge">
<title>Node63&#45;&gt;Node8</title>
<path fill="none" stroke="#63b8ff" d="M2427.18,-346.07C2430.37,-318.59 2436.81,-233.7 2404,-176 2384.27,-141.3 2366.94,-142.01 2333,-121 2285.17,-91.39 2272.55,-83.25 2219,-66 2134.85,-38.9 2031.72,-25.43 1975.46,-19.66"/>
<polygon fill="#63b8ff" stroke="#63b8ff" points="1976,-16.19 1965.7,-18.69 1975.31,-23.16 1976,-16.19"/>
</g>
<!-- Node63&#45;&gt;Node13 -->
<g id="edge31" class="edge">
<title>Node63&#45;&gt;Node13</title>
<path fill="none" stroke="#63b8ff" d="M2433.37,-346.08C2464.72,-308.51 2591.16,-160.78 2718,-66 2736.82,-51.93 2760.05,-39.13 2778.19,-30"/>
<polygon fill="#63b8ff" stroke="#63b8ff" points="2779.69,-33.16 2787.12,-25.61 2776.6,-26.88 2779.69,-33.16"/>
</g>
<!-- Node64 -->
<g id="node17" class="node">
<title>Node64</title>
<g id="a_node17"><a xlink:title=" ">
<polygon fill="#e0e0e0" stroke="#999999" points="2703.5,-305 2650.5,-305 2650.5,-286 2703.5,-286 2703.5,-305"/>
<text text-anchor="middle" x="2677" y="-293" font-family="Helvetica,sans-Serif" font-size="10.00">cstddef</text>
</a>
</g>
</g>
<!-- Node63&#45;&gt;Node64 -->
<g id="edge33" class="edge">
<title>Node63&#45;&gt;Node64</title>
<path fill="none" stroke="#63b8ff" d="M2464.39,-346.05C2511.84,-334.99 2592.07,-316.29 2639.23,-305.3"/>
<polygon fill="#63b8ff" stroke="#63b8ff" points="2639.77,-308.77 2648.71,-303.09 2638.18,-301.95 2639.77,-308.77"/>
</g>
<!-- Node49 -->
<g id="node18" class="node">
<title>Node49</title>
<g id="a_node18"><a xlink:href="../../dd/d5f/serializer_8h.html" target="_top" xlink:title=" ">
<polygon fill="#fff0f0" stroke="red" points="850.5,-305 737.5,-305 737.5,-286 850.5,-286 850.5,-305"/>
<text text-anchor="middle" x="794" y="-293" font-family="Helvetica,sans-Serif" font-size="10.00">includes/serializer.h</text>
</a>
</g>
</g>
<!-- Node63&#45;&gt;Node49 -->
<g id="edge35" class="edge">
<title>Node63&#45;&gt;Node49</title>
<path fill="none" stroke="#63b8ff" d="M2379.79,-353.34C2150.56,-345.13 1135.73,-308.75 862.14,-298.94"/>
<polygon fill="#63b8ff" stroke="#63b8ff" points="862.45,-295.45 852.33,-298.59 862.2,-302.45 862.45,-295.45"/>
</g>
<!-- Node49&#45;&gt;Node3 -->
<g id="edge45" class="edge">
<title>Node49&#45;&gt;Node3</title>
<path fill="none" stroke="#63b8ff" d="M797.9,-285.62C808.49,-262.68 840.28,-201.47 888,-176 930.44,-153.34 1243.99,-138.91 1378.74,-133.69"/>
<polygon fill="#63b8ff" stroke="#63b8ff" points="1378.68,-137.2 1388.54,-133.32 1378.41,-130.2 1378.68,-137.2"/>
</g>
<!-- Node49&#45;&gt;Node5 -->
<g id="edge43" class="edge">
<title>Node49&#45;&gt;Node5</title>
<path fill="none" stroke="#63b8ff" d="M850.75,-293.92C1077.52,-291.42 1919.23,-280.26 2184,-250 2638.38,-198.07 3178.76,-63.97 3326.22,-26.1"/>
<polygon fill="#63b8ff" stroke="#63b8ff" points="3326.66,-29.6 3335.47,-23.71 3324.91,-22.82 3326.66,-29.6"/>
</g>
<!-- Node49&#45;&gt;Node8 -->
<g id="edge38" class="edge">
<title>Node49&#45;&gt;Node8</title>
<path fill="none" stroke="#63b8ff" d="M737.01,-293.93C662.89,-291.85 539.48,-283.31 511,-250 505.51,-243.58 505.82,-237.67 511,-231 690.62,0.18 1521.3,-54.87 1813,-30 1839.5,-27.74 1869.16,-24.32 1892.48,-21.43"/>
<polygon fill="#63b8ff" stroke="#63b8ff" points="1892.73,-24.93 1902.22,-20.21 1891.86,-17.98 1892.73,-24.93"/>
</g>
<!-- Node49&#45;&gt;Node13 -->
<g id="edge36" class="edge">
<title>Node49&#45;&gt;Node13</title>
<path fill="none" stroke="#63b8ff" d="M850.87,-293.62C1057.25,-289.44 1785.22,-266.07 2369,-140 2388.41,-135.81 2520.17,-91.3 2539,-85 2563.53,-76.8 2569.15,-73.17 2594,-66 2657.16,-47.76 2732.24,-31.43 2774.59,-22.69"/>
<polygon fill="#63b8ff" stroke="#63b8ff" points="2775.04,-26.17 2784.14,-20.74 2773.64,-19.31 2775.04,-26.17"/>
</g>
<!-- Node49&#45;&gt;Node18 -->
<g id="edge46" class="edge">
<title>Node49&#45;&gt;Node18</title>
<path fill="none" stroke="#63b8ff" d="M850.72,-292.24C1066.37,-283.65 1834.47,-253.04 2060.8,-244.02"/>
<polygon fill="#63b8ff" stroke="#63b8ff" points="2060.75,-247.52 2070.6,-243.63 2060.47,-240.53 2060.75,-247.52"/>
</g>
<!-- Node49&#45;&gt;Node20 -->
<g id="edge39" class="edge">
<title>Node49&#45;&gt;Node20</title>
<path fill="none" stroke="#63b8ff" d="M850.58,-288.32C953.74,-277.04 1169.05,-253.52 1248.61,-244.82"/>
<polygon fill="#63b8ff" stroke="#63b8ff" points="1248.69,-248.33 1258.25,-243.77 1247.93,-241.37 1248.69,-248.33"/>
</g>
<!-- Node47 -->
<g id="node19" class="node">
<title>Node47</title>
<g id="a_node19"><a xlink:title=" ">
<polygon fill="#e0e0e0" stroke="#999999" points="570,-250 520,-250 520,-231 570,-231 570,-250"/>
<text text-anchor="middle" x="545" y="-238" font-family="Helvetica,sans-Serif" font-size="10.00">cstring</text>
</a>
</g>
</g>
<!-- Node49&#45;&gt;Node47 -->
<g id="edge37" class="edge">
<title>Node49&#45;&gt;Node47</title>
<path fill="none" stroke="#63b8ff" d="M748.17,-285.58C706.94,-277.43 644.46,-264.76 581.2,-250.43"/>
<polygon fill="#63b8ff" stroke="#63b8ff" points="582.23,-247.07 571.7,-248.26 580.67,-253.9 582.23,-247.07"/>
</g>
<!-- Node50 -->
<g id="node20" class="node">
<title>Node50</title>
<g id="a_node20"><a xlink:title=" ">
<polygon fill="#e0e0e0" stroke="#999999" points="387.5,-250 294.5,-250 294.5,-231 387.5,-231 387.5,-250"/>
<text text-anchor="middle" x="341" y="-238" font-family="Helvetica,sans-Serif" font-size="10.00">unordered_map</text>
</a>
</g>
</g>
<!-- Node49&#45;&gt;Node50 -->
<g id="edge40" class="edge">
<title>Node49&#45;&gt;Node50</title>
<path fill="none" stroke="#63b8ff" d="M737.09,-287.84C650.44,-277.7 486.32,-258.5 399.02,-248.29"/>
<polygon fill="#63b8ff" stroke="#63b8ff" points="399.58,-244.83 389.24,-247.14 398.77,-251.78 399.58,-244.83"/>
</g>
<!-- Node51 -->
<g id="node21" class="node">
<title>Node51</title>
<g id="a_node21"><a xlink:title=" ">
<polygon fill="#e0e0e0" stroke="#999999" points="620,-250 588,-250 588,-231 620,-231 620,-250"/>
<text text-anchor="middle" x="604" y="-238" font-family="Helvetica,sans-Serif" font-size="10.00">set</text>
</a>
</g>
</g>
<!-- Node49&#45;&gt;Node51 -->
<g id="edge41" class="edge">
<title>Node49&#45;&gt;Node51</title>
<path fill="none" stroke="#63b8ff" d="M758.08,-285.52C726.83,-277.56 680.08,-265.27 631.16,-250.52"/>
<polygon fill="#63b8ff" stroke="#63b8ff" points="632.39,-247.23 621.81,-247.67 630.35,-253.93 632.39,-247.23"/>
</g>
<!-- Node52 -->
<g id="node22" class="node">
<title>Node52</title>
<g id="a_node22"><a xlink:title=" ">
<polygon fill="#e0e0e0" stroke="#999999" points="724,-250 638,-250 638,-231 724,-231 724,-250"/>
<text text-anchor="middle" x="681" y="-238" font-family="Helvetica,sans-Serif" font-size="10.00">unordered_set</text>
</a>
</g>
</g>
<!-- Node49&#45;&gt;Node52 -->
<g id="edge42" class="edge">
<title>Node49&#45;&gt;Node52</title>
<path fill="none" stroke="#63b8ff" d="M774.83,-285.51C757.11,-277.2 730.52,-264.73 710.17,-255.18"/>
<polygon fill="#63b8ff" stroke="#63b8ff" points="711.8,-252.08 701.26,-251 708.82,-258.42 711.8,-252.08"/>
</g>
<!-- Node53 -->
<g id="node23" class="node">
<title>Node53</title>
<g id="a_node23"><a xlink:title=" ">
<polygon fill="#e0e0e0" stroke="#999999" points="797.5,-250 742.5,-250 742.5,-231 797.5,-231 797.5,-250"/>
<text text-anchor="middle" x="770" y="-238" font-family="Helvetica,sans-Serif" font-size="10.00">fstream</text>
</a>
</g>
</g>
<!-- Node49&#45;&gt;Node53 -->
<g id="edge44" class="edge">
<title>Node49&#45;&gt;Node53</title>
<path fill="none" stroke="#63b8ff" d="M790.04,-285.75C786.96,-278.96 782.59,-269.3 778.71,-260.73"/>
<polygon fill="#63b8ff" stroke="#63b8ff" points="781.99,-259.49 774.67,-251.82 775.61,-262.37 781.99,-259.49"/>
</g>
<!-- Node28 -->
<g id="node24" class="node">
<title>Node28</title>
<g id="a_node24"><a xlink:href="../../d9/d3e/ublas__interface_8h.html" target="_top" xlink:title=" ">
<polygon fill="#fff0f0" stroke="red" points="1128,-195 984,-195 984,-176 1128,-176 1128,-195"/>
<text text-anchor="middle" x="1056" y="-183" font-family="Helvetica,sans-Serif" font-size="10.00">includes/ublas_interface.h</text>
</a>
</g>
</g>
<!-- Node49&#45;&gt;Node28 -->
<g id="edge47" class="edge">
<title>Node49&#45;&gt;Node28</title>
<path fill="none" stroke="#63b8ff" d="M810.09,-285.5C833.86,-272.43 879.98,-247.91 921,-231 951.34,-218.49 986.6,-206.97 1013.47,-198.78"/>
<polygon fill="#63b8ff" stroke="#63b8ff" points="1014.41,-202.15 1022.98,-195.92 1012.4,-195.45 1014.41,-202.15"/>
</g>
<!-- Node24 -->
<g id="node25" class="node">
<title>Node24</title>
<g id="a_node25"><a xlink:href="../../d9/d36/array__1d_8h.html" target="_top" xlink:title=" ">
<polygon fill="#fff0f0" stroke="red" points="1052,-250 930,-250 930,-231 1052,-231 1052,-250"/>
<text text-anchor="middle" x="991" y="-238" font-family="Helvetica,sans-Serif" font-size="10.00">containers/array_1d.h</text>
</a>
</g>
</g>
<!-- Node49&#45;&gt;Node24 -->
<g id="edge51" class="edge">
<title>Node49&#45;&gt;Node24</title>
<path fill="none" stroke="#63b8ff" d="M827.42,-285.51C860.35,-276.65 910.84,-263.07 947.02,-253.33"/>
<polygon fill="#63b8ff" stroke="#63b8ff" points="947.54,-256.82 956.29,-250.84 945.72,-250.06 947.54,-256.82"/>
</g>
<!-- Node58 -->
<g id="node26" class="node">
<title>Node58</title>
<g id="a_node26"><a xlink:href="../../d1/d8c/logger_8h.html" target="_top" xlink:title=" ">
<polygon fill="#fff0f0" stroke="red" points="2324,-140 2204,-140 2204,-121 2324,-121 2324,-140"/>
<text text-anchor="middle" x="2264" y="-128" font-family="Helvetica,sans-Serif" font-size="10.00">input_output/logger.h</text>
</a>
</g>
</g>
<!-- Node49&#45;&gt;Node58 -->
<g id="edge56" class="edge">
<title>Node49&#45;&gt;Node58</title>
<path fill="none" stroke="#63b8ff" d="M850.65,-290.52C945.3,-283.67 1141.54,-268.57 1307,-250 1546.42,-223.14 1604.85,-205.14 1844,-176 1966.18,-161.11 2108.7,-146.62 2192.36,-138.4"/>
<polygon fill="#63b8ff" stroke="#63b8ff" points="2192.65,-141.89 2202.26,-137.43 2191.97,-134.92 2192.65,-141.89"/>
</g>
<!-- Node28&#45;&gt;Node3 -->
<g id="edge50" class="edge">
<title>Node28&#45;&gt;Node3</title>
<path fill="none" stroke="#63b8ff" d="M1121.14,-175.51C1193.2,-165.56 1308.41,-149.66 1378.83,-139.94"/>
<polygon fill="#63b8ff" stroke="#63b8ff" points="1379.23,-143.42 1388.66,-138.59 1378.28,-136.49 1379.23,-143.42"/>
</g>
<!-- Node28&#45;&gt;Node8 -->
<g id="edge49" class="edge">
<title>Node28&#45;&gt;Node8</title>
<path fill="none" stroke="#63b8ff" d="M1082.88,-175.5C1150.14,-153.34 1331.51,-95.77 1487,-66 1630.17,-38.59 1668.15,-46.38 1813,-30 1839.42,-27.01 1869.09,-23.58 1892.43,-20.86"/>
<polygon fill="#63b8ff" stroke="#63b8ff" points="1892.64,-24.36 1902.17,-19.73 1891.83,-17.41 1892.64,-24.36"/>
</g>
<!-- Node28&#45;&gt;Node13 -->
<g id="edge48" class="edge">
<title>Node28&#45;&gt;Node13</title>
<path fill="none" stroke="#63b8ff" d="M1093.77,-175.52C1154.11,-161.53 1276.11,-134.73 1381,-121 1616.42,-90.17 1677.19,-102.14 1914,-85 2249.87,-60.7 2656.46,-28.2 2774.43,-18.71"/>
<polygon fill="#63b8ff" stroke="#63b8ff" points="2774.36,-22.23 2784.04,-17.93 2773.79,-15.25 2774.36,-22.23"/>
</g>
<!-- Node24&#45;&gt;Node3 -->
<g id="edge54" class="edge">
<title>Node24&#45;&gt;Node3</title>
<path fill="none" stroke="#63b8ff" d="M1024.43,-230.55C1054.27,-222.26 1099,-209.13 1137,-195 1156.58,-187.72 1160,-182.03 1180,-176 1216.24,-165.07 1314.11,-149.7 1378.89,-140.18"/>
<polygon fill="#63b8ff" stroke="#63b8ff" points="1379.29,-143.66 1388.68,-138.75 1378.28,-136.73 1379.29,-143.66"/>
</g>
<!-- Node24&#45;&gt;Node8 -->
<g id="edge53" class="edge">
<title>Node24&#45;&gt;Node8</title>
<path fill="none" stroke="#63b8ff" d="M984.59,-230.75C975.77,-217.56 962.34,-192.37 975,-176 1090.63,-26.46 1624.93,-49.03 1813,-30 1839.46,-27.32 1869.12,-23.9 1892.45,-21.1"/>
<polygon fill="#63b8ff" stroke="#63b8ff" points="1892.68,-24.6 1902.19,-19.93 1891.84,-17.65 1892.68,-24.6"/>
</g>
<!-- Node24&#45;&gt;Node13 -->
<g id="edge52" class="edge">
<title>Node24&#45;&gt;Node13</title>
<path fill="none" stroke="#63b8ff" d="M1052.29,-234.92C1192.46,-224.45 1547.26,-197.97 1844,-176 2061.33,-159.91 2121.57,-192.81 2333,-140 2353.27,-134.94 2356.37,-128.14 2376,-121 2520.29,-68.51 2701.18,-34.19 2774.67,-21.5"/>
<polygon fill="#63b8ff" stroke="#63b8ff" points="2775.16,-24.97 2784.43,-19.84 2773.98,-18.07 2775.16,-24.97"/>
</g>
<!-- Node24&#45;&gt;Node28 -->
<g id="edge55" class="edge">
<title>Node24&#45;&gt;Node28</title>
<path fill="none" stroke="#63b8ff" d="M1002.03,-230.51C1011.42,-222.85 1025.15,-211.66 1036.41,-202.47"/>
<polygon fill="#63b8ff" stroke="#63b8ff" points="1038.43,-205.35 1043.96,-196.31 1034,-199.92 1038.43,-205.35"/>
</g>
<!-- Node58&#45;&gt;Node8 -->
<g id="edge58" class="edge">
<title>Node58&#45;&gt;Node8</title>
<path fill="none" stroke="#63b8ff" d="M2256.78,-120.93C2244.56,-107.03 2218.34,-79.73 2190,-66 2119.71,-31.96 2027.95,-21.09 1975.54,-17.62"/>
<polygon fill="#63b8ff" stroke="#63b8ff" points="1976.05,-14.15 1965.86,-17.05 1975.64,-21.14 1976.05,-14.15"/>
</g>
<!-- Node58&#45;&gt;Node12 -->
<g id="edge59" class="edge">
<title>Node58&#45;&gt;Node12</title>
<path fill="none" stroke="#63b8ff" d="M2203.81,-121.85C2127.77,-112.19 1997.16,-95.58 1916.82,-85.37"/>
<polygon fill="#63b8ff" stroke="#63b8ff" points="1917.69,-81.96 1907.33,-84.17 1916.8,-88.9 1917.69,-81.96"/>
</g>
<!-- Node58&#45;&gt;Node13 -->
<g id="edge57" class="edge">
<title>Node58&#45;&gt;Node13</title>
<path fill="none" stroke="#63b8ff" d="M2286.18,-120.5C2320.95,-106.74 2390.65,-80.53 2452,-66 2568.68,-38.36 2710.73,-24.04 2774.36,-18.62"/>
<polygon fill="#63b8ff" stroke="#63b8ff" points="2774.47,-22.13 2784.14,-17.81 2773.89,-15.15 2774.47,-22.13"/>
</g>
<!-- Node68&#45;&gt;Node49 -->
<g id="edge63" class="edge">
<title>Node68&#45;&gt;Node49</title>
<path fill="none" stroke="#63b8ff" d="M822.75,-665C795.08,-657.52 759.3,-644.68 733,-624 653.83,-561.75 634.78,-533.21 605,-437 583.56,-367.73 682.54,-327.01 745.37,-308.52"/>
<polygon fill="#63b8ff" stroke="#63b8ff" points="746.15,-311.94 754.81,-305.84 744.24,-305.21 746.15,-311.94"/>
</g>
<!-- Node68&#45;&gt;Node28 -->
<g id="edge64" class="edge">
<title>Node68&#45;&gt;Node28</title>
<path fill="none" stroke="#63b8ff" d="M880.88,-665.03C896.79,-655.71 921.63,-640.23 941,-624 966.78,-602.39 974.93,-597.37 993,-569 1017.65,-530.3 1008.59,-513.04 1031,-473 1062.47,-416.76 1118,-421.44 1118,-357 1118,-357 1118,-357 1118,-294.5 1118,-258.32 1091.5,-223.28 1073.15,-203.36"/>
<polygon fill="#63b8ff" stroke="#63b8ff" points="1075.92,-201.19 1066.47,-196.41 1070.88,-206.05 1075.92,-201.19"/>
</g>
<!-- Node69 -->
<g id="node28" class="node">
<title>Node69</title>
<g id="a_node28"><a xlink:title=" ">
<polygon fill="#e0e0e0" stroke="#999999" points="810,-624 742,-624 742,-605 810,-605 810,-624"/>
<text text-anchor="middle" x="776" y="-612" font-family="Helvetica,sans-Serif" font-size="10.00">filesystem</text>
</a>
</g>
</g>
<!-- Node68&#45;&gt;Node69 -->
<g id="edge61" class="edge">
<title>Node68&#45;&gt;Node69</title>
<path fill="none" stroke="#63b8ff" d="M851.48,-665.12C837.63,-656.01 815.82,-641.68 799.2,-630.75"/>
<polygon fill="#63b8ff" stroke="#63b8ff" points="801.19,-627.87 790.91,-625.3 797.34,-633.72 801.19,-627.87"/>
</g>
<!-- Node70 -->
<g id="node29" class="node">
<title>Node70</title>
<g id="a_node29"><a xlink:title=" ">
<polygon fill="#e0e0e0" stroke="#999999" points="932,-624 828,-624 828,-605 932,-605 932,-624"/>
<text text-anchor="middle" x="880" y="-612" font-family="Helvetica,sans-Serif" font-size="10.00">json/json_fwd.hpp</text>
</a>
</g>
</g>
<!-- Node68&#45;&gt;Node70 -->
<g id="edge62" class="edge">
<title>Node68&#45;&gt;Node70</title>
<path fill="none" stroke="#63b8ff" d="M867.21,-665.37C869.25,-657.42 872.35,-645.33 874.99,-635.05"/>
<polygon fill="#63b8ff" stroke="#63b8ff" points="878.31,-636.19 877.4,-625.63 871.53,-634.45 878.31,-636.19"/>
</g>
<!-- Node71&#45;&gt;Node3 -->
<g id="edge66" class="edge">
<title>Node71&#45;&gt;Node3</title>
<path fill="none" stroke="#63b8ff" d="M862.64,-855.09C776.74,-844.68 614.56,-818 491,-756 251.2,-635.67 38,-625.3 38,-357 38,-357 38,-357 38,-239.5 38,-171.99 110.31,-191.6 176,-176 293.45,-148.1 1141.87,-135.3 1378.73,-132.24"/>
<polygon fill="#63b8ff" stroke="#63b8ff" points="1378.73,-135.74 1388.68,-132.11 1378.64,-128.74 1378.73,-135.74"/>
</g>
<!-- Node72 -->
<g id="node31" class="node">
<title>Node72</title>
<g id="a_node31"><a xlink:href="../../de/dca/variables_8h.html" target="_top" xlink:title=" ">
<polygon fill="white" stroke="#666666" points="984,-563.5 870,-563.5 870,-544.5 984,-544.5 984,-563.5"/>
<text text-anchor="middle" x="927" y="-551.5" font-family="Helvetica,sans-Serif" font-size="10.00">includes/variables.h</text>
</a>
</g>
</g>
<!-- Node71&#45;&gt;Node72 -->
<g id="edge67" class="edge">
<title>Node71&#45;&gt;Node72</title>
<path fill="none" stroke="#63b8ff" d="M896.66,-846.67C830.56,-807.52 662.78,-695.61 733,-605 748.52,-584.98 809.18,-571.55 858.59,-563.7"/>
<polygon fill="#63b8ff" stroke="#63b8ff" points="859.05,-567.17 868.41,-562.2 857.99,-560.25 859.05,-567.17"/>
</g>
<!-- Node91 -->
<g id="node36" class="node">
<title>Node91</title>
<g id="a_node36"><a xlink:href="../../d4/dfe/element_8h.html" target="_top" xlink:title=" ">
<polygon fill="white" stroke="#666666" points="1343,-811 1233,-811 1233,-792 1343,-792 1343,-811"/>
<text text-anchor="middle" x="1288" y="-799" font-family="Helvetica,sans-Serif" font-size="10.00">includes/element.h</text>
</a>
</g>
</g>
<!-- Node71&#45;&gt;Node91 -->
<g id="edge89" class="edge">
<title>Node71&#45;&gt;Node91</title>
<path fill="none" stroke="#63b8ff" d="M981.21,-851.54C1047.04,-841.01 1153.11,-824.06 1221.68,-813.1"/>
<polygon fill="#63b8ff" stroke="#63b8ff" points="1221.95,-816.6 1231.27,-811.57 1220.85,-809.69 1221.95,-816.6"/>
</g>
<!-- Node113 -->
<g id="node43" class="node">
<title>Node113</title>
<g id="a_node43"><a xlink:href="../../d7/d6c/condition_8h.html" target="_top" xlink:title=" ">
<polygon fill="white" stroke="#666666" points="1601,-750.5 1487,-750.5 1487,-731.5 1601,-731.5 1601,-750.5"/>
<text text-anchor="middle" x="1544" y="-738.5" font-family="Helvetica,sans-Serif" font-size="10.00">includes/condition.h</text>
</a>
</g>
</g>
<!-- Node71&#45;&gt;Node113 -->
<g id="edge134" class="edge">
<title>Node71&#45;&gt;Node113</title>
<path fill="none" stroke="#63b8ff" d="M981.16,-858.41C1064.75,-853.79 1221.76,-841.55 1352,-811 1410.85,-797.2 1476.56,-771.13 1513.83,-755.29"/>
<polygon fill="#63b8ff" stroke="#63b8ff" points="1514.81,-758.68 1522.61,-751.52 1512.04,-752.25 1514.81,-758.68"/>
</g>
<!-- Node72&#45;&gt;Node3 -->
<g id="edge70" class="edge">
<title>Node72&#45;&gt;Node3</title>
<path fill="none" stroke="#63b8ff" d="M920.63,-544.19C902.78,-519.97 849.93,-451.24 794,-407 677.83,-315.11 414.81,-343.63 511,-231 567.45,-164.9 1180.7,-139.73 1378.73,-133.29"/>
<polygon fill="#63b8ff" stroke="#63b8ff" points="1378.66,-136.8 1388.55,-132.98 1378.44,-129.8 1378.66,-136.8"/>
</g>
<!-- Node72&#45;&gt;Node8 -->
<g id="edge69" class="edge">
<title>Node72&#45;&gt;Node8</title>
<path fill="none" stroke="#63b8ff" d="M869.51,-547.08C699.2,-529.18 205.25,-474.57 143,-437 50.84,-381.37 0,-349.15 0,-241.5 0,-241.5 0,-241.5 0,-129.5 0,-78.71 46.56,-81.25 95,-66 277.11,-8.65 1622.51,-42.99 1813,-30 1839.53,-28.19 1869.19,-24.78 1892.51,-21.78"/>
<polygon fill="#63b8ff" stroke="#63b8ff" points="1892.78,-25.27 1902.24,-20.5 1891.87,-18.33 1892.78,-25.27"/>
</g>
<!-- Node72&#45;&gt;Node13 -->
<g id="edge68" class="edge">
<title>Node72&#45;&gt;Node13</title>
<path fill="none" stroke="#63b8ff" d="M984.36,-549.78C1040.95,-546.69 1129.92,-542.05 1207,-539 1275.64,-536.28 2379.72,-529.74 2443,-503 2520.59,-470.21 2523.76,-434.59 2579,-371 2609.67,-335.7 2604.31,-314.98 2641,-286 2673.52,-260.32 2690.8,-270.17 2727,-250 2763.74,-229.53 2778.83,-228.69 2804,-195 2838.9,-148.28 2839.03,-123.26 2828,-66 2825.96,-55.41 2821.7,-44.22 2817.63,-35.11"/>
<polygon fill="#63b8ff" stroke="#63b8ff" points="2820.88,-33.79 2813.42,-26.26 2814.56,-36.8 2820.88,-33.79"/>
</g>
<!-- Node72&#45;&gt;Node19 -->
<g id="edge72" class="edge">
<title>Node72&#45;&gt;Node19</title>
<path fill="none" stroke="#63b8ff" d="M984.31,-549.07C1140.28,-538.37 1573.58,-508.65 1765.93,-495.45"/>
<polygon fill="#63b8ff" stroke="#63b8ff" points="1765.89,-498.96 1775.63,-494.79 1765.41,-491.98 1765.89,-498.96"/>
</g>
<!-- Node72&#45;&gt;Node62 -->
<g id="edge71" class="edge">
<title>Node72&#45;&gt;Node62</title>
<path fill="none" stroke="#63b8ff" d="M984.38,-550.1C1040.97,-547.25 1129.95,-542.79 1207,-539 1372.33,-530.87 1794.99,-558.32 1951,-503 1988.41,-489.73 2023.96,-459.09 2043.78,-439.81"/>
<polygon fill="#63b8ff" stroke="#63b8ff" points="2046.07,-442.47 2050.66,-432.93 2041.12,-437.52 2046.07,-442.47"/>
</g>
<!-- Node72&#45;&gt;Node28 -->
<g id="edge73" class="edge">
<title>Node72&#45;&gt;Node28</title>
<path fill="none" stroke="#63b8ff" d="M934.8,-544.35C965.98,-509.59 1080,-380.85 1080,-357 1080,-357 1080,-357 1080,-294.5 1080,-263.03 1070.17,-227.6 1063.09,-206.18"/>
<polygon fill="#63b8ff" stroke="#63b8ff" points="1066.41,-205.05 1059.83,-196.74 1059.79,-207.34 1066.41,-205.05"/>
</g>
<!-- Node72&#45;&gt;Node24 -->
<g id="edge74" class="edge">
<title>Node72&#45;&gt;Node24</title>
<path fill="none" stroke="#63b8ff" d="M929.94,-544.34C935.15,-529.39 946.72,-497.93 960,-473 969.04,-456.03 978.1,-455.3 984,-437 1003.77,-375.68 998.08,-297.89 993.81,-261.71"/>
<polygon fill="#63b8ff" stroke="#63b8ff" points="997.29,-261.34 992.55,-251.87 990.35,-262.23 997.29,-261.34"/>
</g>
<!-- Node73 -->
<g id="node32" class="node">
<title>Node73</title>
<g id="a_node32"><a xlink:href="../../de/d44/global__pointers__vector_8h.html" target="_top" xlink:title=" ">
<polygon fill="#fff0f0" stroke="red" points="760,-437 614,-437 614,-407 760,-407 760,-437"/>
<text text-anchor="start" x="622" y="-425" font-family="Helvetica,sans-Serif" font-size="10.00">containers/global_pointers</text>
<text text-anchor="middle" x="687" y="-414" font-family="Helvetica,sans-Serif" font-size="10.00">_vector.h</text>
</a>
</g>
</g>
<!-- Node72&#45;&gt;Node73 -->
<g id="edge75" class="edge">
<title>Node72&#45;&gt;Node73</title>
<path fill="none" stroke="#63b8ff" d="M883.37,-544.01C851.57,-536.24 808.24,-523.05 774,-503 747.83,-487.68 722.87,-463.38 706.46,-445.58"/>
<polygon fill="#63b8ff" stroke="#63b8ff" points="709.42,-443.64 700.13,-438.55 704.22,-448.32 709.42,-443.64"/>
</g>
<!-- Node84 -->
<g id="node33" class="node">
<title>Node84</title>
<g id="a_node33"><a xlink:href="../../d9/da6/periodic__variables__container_8h.html" target="_top" xlink:title=" ">
<polygon fill="#fff0f0" stroke="red" points="1166,-503 1040,-503 1040,-473 1166,-473 1166,-503"/>
<text text-anchor="start" x="1048" y="-491" font-family="Helvetica,sans-Serif" font-size="10.00">containers/periodic</text>
<text text-anchor="middle" x="1103" y="-480" font-family="Helvetica,sans-Serif" font-size="10.00">_variables_container.h</text>
</a>
</g>
</g>
<!-- Node72&#45;&gt;Node84 -->
<g id="edge79" class="edge">
<title>Node72&#45;&gt;Node84</title>
<path fill="none" stroke="#63b8ff" d="M951.47,-544.1C977.55,-534.62 1019.57,-519.34 1052.75,-507.27"/>
<polygon fill="#63b8ff" stroke="#63b8ff" points="1053.56,-510.7 1061.76,-503.99 1051.17,-504.12 1053.56,-510.7"/>
</g>
<!-- Node85 -->
<g id="node34" class="node">
<title>Node85</title>
<g id="a_node34"><a xlink:href="../../d0/d9c/table__stream__utility_8h.html" target="_top" xlink:title=" ">
<polygon fill="#fff0f0" stroke="red" points="975.5,-437 854.5,-437 854.5,-407 975.5,-407 975.5,-437"/>
<text text-anchor="start" x="862.5" y="-425" font-family="Helvetica,sans-Serif" font-size="10.00">utilities/table_stream</text>
<text text-anchor="middle" x="915" y="-414" font-family="Helvetica,sans-Serif" font-size="10.00">_utility.h</text>
</a>
</g>
</g>
<!-- Node72&#45;&gt;Node85 -->
<g id="edge85" class="edge">
<title>Node72&#45;&gt;Node85</title>
<path fill="none" stroke="#63b8ff" d="M926.08,-544.15C925.05,-534.16 923.35,-517.42 922,-503 920.31,-484.93 918.52,-464.55 917.18,-448.88"/>
<polygon fill="#63b8ff" stroke="#63b8ff" points="920.67,-448.63 916.34,-438.97 913.7,-449.23 920.67,-448.63"/>
</g>
<!-- Node88 -->
<g id="node35" class="node">
<title>Node88</title>
<g id="a_node35"><a xlink:href="../../d8/da9/adjoint__extensions_8h.html" target="_top" xlink:title=" ">
<polygon fill="#fff0f0" stroke="red" points="452,-195 294,-195 294,-176 452,-176 452,-195"/>
<text text-anchor="middle" x="373" y="-183" font-family="Helvetica,sans-Serif" font-size="10.00">utilities/adjoint_extensions.h</text>
</a>
</g>
</g>
<!-- Node72&#45;&gt;Node88 -->
<g id="edge87" class="edge">
<title>Node72&#45;&gt;Node88</title>
<path fill="none" stroke="#63b8ff" d="M888.76,-544.07C864.19,-536.63 833.05,-523.82 812,-503 778.76,-470.12 806.53,-434.88 769,-407 668.64,-332.43 593.71,-440.82 490,-371 454.01,-346.77 465.05,-322.75 442,-286 423.73,-256.87 400.63,-224.33 386.34,-204.64"/>
<polygon fill="#63b8ff" stroke="#63b8ff" points="389.18,-202.6 380.46,-196.59 383.53,-206.73 389.18,-202.6"/>
</g>
<!-- Node73&#45;&gt;Node3 -->
<g id="edge77" class="edge">
<title>Node73&#45;&gt;Node3</title>
<path fill="none" stroke="#63b8ff" d="M760.39,-409.51C822.67,-395.1 902,-363.57 902,-296.5 902,-296.5 902,-296.5 902,-239.5 902,-143.13 1238.01,-131.63 1378.94,-131.04"/>
<polygon fill="#63b8ff" stroke="#63b8ff" points="1378.84,-134.54 1388.84,-131.02 1378.83,-127.54 1378.84,-134.54"/>
</g>
<!-- Node73&#45;&gt;Node8 -->
<g id="edge76" class="edge">
<title>Node73&#45;&gt;Node8</title>
<path fill="none" stroke="#63b8ff" d="M613.81,-418.39C505.94,-413.59 310.22,-400.96 247,-371 172.45,-335.66 114,-324 114,-241.5 114,-241.5 114,-241.5 114,-129.5 114,34.88 686.93,-76.13 851,-66 1278.04,-39.63 1386.39,-62.61 1813,-30 1839.52,-27.97 1869.18,-24.56 1892.5,-21.61"/>
<polygon fill="#63b8ff" stroke="#63b8ff" points="1892.76,-25.11 1902.23,-20.36 1891.86,-18.16 1892.76,-25.11"/>
</g>
<!-- Node73&#45;&gt;Node49 -->
<g id="edge78" class="edge">
<title>Node73&#45;&gt;Node49</title>
<path fill="none" stroke="#63b8ff" d="M699.27,-406.72C719.04,-383.72 757.84,-338.57 779.14,-313.79"/>
<polygon fill="#63b8ff" stroke="#63b8ff" points="781.52,-316.4 785.38,-306.53 776.21,-311.83 781.52,-316.4"/>
</g>
<!-- Node84&#45;&gt;Node3 -->
<g id="edge82" class="edge">
<title>Node84&#45;&gt;Node3</title>
<path fill="none" stroke="#63b8ff" d="M1113.22,-472.58C1128.62,-449.38 1156,-401.85 1156,-357 1156,-357 1156,-357 1156,-294.5 1156,-235.06 1170.44,-211.65 1218,-176 1242.94,-157.31 1322.16,-144.7 1378.85,-137.81"/>
<polygon fill="#63b8ff" stroke="#63b8ff" points="1379.2,-141.29 1388.72,-136.64 1378.38,-134.34 1379.2,-141.29"/>
</g>
<!-- Node84&#45;&gt;Node8 -->
<g id="edge81" class="edge">
<title>Node84&#45;&gt;Node8</title>
<path fill="none" stroke="#63b8ff" d="M1039.6,-484.48C832.62,-476.15 188.93,-449.31 171,-437 132.46,-410.54 148.39,-383.07 128,-341 106.24,-296.1 76,-291.4 76,-241.5 76,-241.5 76,-241.5 76,-129.5 76,-91.28 99.19,-81.8 134,-66 218.96,-27.44 1719.92,-36.37 1813,-30 1839.53,-28.18 1869.19,-24.77 1892.51,-21.77"/>
<polygon fill="#63b8ff" stroke="#63b8ff" points="1892.78,-25.27 1902.24,-20.5 1891.87,-18.33 1892.78,-25.27"/>
</g>
<!-- Node84&#45;&gt;Node13 -->
<g id="edge80" class="edge">
<title>Node84&#45;&gt;Node13</title>
<path fill="none" stroke="#63b8ff" d="M1166.49,-486.62C1327.69,-485.06 1765.65,-477.15 2128,-437 2149.3,-434.64 2489.34,-381.54 2508,-371 2526.31,-360.66 2742.77,-101.35 2756,-85 2769.81,-67.92 2784.84,-47.8 2795.17,-33.71"/>
<polygon fill="#63b8ff" stroke="#63b8ff" points="2797.83,-36.01 2800.89,-25.87 2792.17,-31.88 2797.83,-36.01"/>
</g>
<!-- Node84&#45;&gt;Node62 -->
<g id="edge84" class="edge">
<title>Node84&#45;&gt;Node62</title>
<path fill="none" stroke="#63b8ff" d="M1166.16,-482.78C1337.19,-471.34 1808.52,-439.82 1988.69,-427.77"/>
<polygon fill="#63b8ff" stroke="#63b8ff" points="1988.88,-431.26 1998.62,-427.1 1988.41,-424.28 1988.88,-431.26"/>
</g>
<!-- Node84&#45;&gt;Node49 -->
<g id="edge83" class="edge">
<title>Node84&#45;&gt;Node49</title>
<path fill="none" stroke="#63b8ff" d="M1082.63,-472.71C1059.14,-456.38 1019.24,-429.06 984,-407 926.45,-370.97 857.11,-331.64 820.17,-311.01"/>
<polygon fill="#63b8ff" stroke="#63b8ff" points="821.99,-308.01 811.55,-306.2 818.58,-314.13 821.99,-308.01"/>
</g>
<!-- Node85&#45;&gt;Node49 -->
<g id="edge86" class="edge">
<title>Node85&#45;&gt;Node49</title>
<path fill="none" stroke="#63b8ff" d="M901.12,-406.72C878.67,-383.62 834.5,-338.18 810.49,-313.47"/>
<polygon fill="#63b8ff" stroke="#63b8ff" points="813.17,-311.2 803.69,-306.47 808.15,-316.08 813.17,-311.2"/>
</g>
<!-- Node88&#45;&gt;Node3 -->
<g id="edge88" class="edge">
<title>Node88&#45;&gt;Node3</title>
<path fill="none" stroke="#63b8ff" d="M452.1,-180.51C480.45,-179.08 512.66,-177.46 542,-176 856.96,-160.28 1234.08,-141.66 1379.09,-134.5"/>
<polygon fill="#63b8ff" stroke="#63b8ff" points="1379.02,-138.01 1388.84,-134.02 1378.68,-131.02 1379.02,-138.01"/>
</g>
<!-- Node91&#45;&gt;Node68 -->
<g id="edge132" class="edge">
<title>Node91&#45;&gt;Node68</title>
<path fill="none" stroke="#63b8ff" d="M1252.15,-791.5C1218.05,-782.83 1165.36,-769.12 1120,-756 1042.47,-733.58 952.56,-704.69 902.9,-688.48"/>
<polygon fill="#63b8ff" stroke="#63b8ff" points="904.08,-685.18 893.49,-685.4 901.91,-691.83 904.08,-685.18"/>
</g>
<!-- Node91&#45;&gt;Node73 -->
<g id="edge133" class="edge">
<title>Node91&#45;&gt;Node73</title>
<path fill="none" stroke="#63b8ff" d="M1232.8,-798.4C1101.16,-792.13 774.66,-768.81 706,-690 645.96,-621.09 666.96,-500.46 679.92,-448.26"/>
<polygon fill="#63b8ff" stroke="#63b8ff" points="683.24,-449.39 682.37,-438.83 676.47,-447.63 683.24,-449.39"/>
</g>
<!-- Node92 -->
<g id="node37" class="node">
<title>Node92</title>
<g id="a_node37"><a xlink:href="../../d8/dbb/properties_8h.html" target="_top" xlink:title=" ">
<polygon fill="#fff0f0" stroke="red" points="1735.5,-684.5 1616.5,-684.5 1616.5,-665.5 1735.5,-665.5 1735.5,-684.5"/>
<text text-anchor="middle" x="1676" y="-672.5" font-family="Helvetica,sans-Serif" font-size="10.00">includes/properties.h</text>
</a>
</g>
</g>
<!-- Node91&#45;&gt;Node92 -->
<g id="edge90" class="edge">
<title>Node91&#45;&gt;Node92</title>
<path fill="none" stroke="#63b8ff" d="M1308.22,-791.59C1342.61,-776.67 1414.91,-746.24 1478,-726 1526.5,-710.44 1582.91,-696.6 1623.09,-687.44"/>
<polygon fill="#63b8ff" stroke="#63b8ff" points="1623.77,-690.88 1632.76,-685.27 1622.23,-684.05 1623.77,-690.88"/>
</g>
<!-- Node99 -->
<g id="node39" class="node">
<title>Node99</title>
<g id="a_node39"><a xlink:href="../../de/db8/process__info_8h.html" target="_top" xlink:title=" ">
<polygon fill="white" stroke="#666666" points="1925.5,-624 1794.5,-624 1794.5,-605 1925.5,-605 1925.5,-624"/>
<text text-anchor="middle" x="1860" y="-612" font-family="Helvetica,sans-Serif" font-size="10.00">includes/process_info.h</text>
</a>
</g>
</g>
<!-- Node91&#45;&gt;Node99 -->
<g id="edge118" class="edge">
<title>Node91&#45;&gt;Node99</title>
<path fill="none" stroke="#63b8ff" d="M1343.16,-795.02C1462.49,-782.2 1739.76,-746.98 1813,-690 1831.63,-675.5 1844.89,-651.4 1852.47,-634.55"/>
<polygon fill="#63b8ff" stroke="#63b8ff" points="1855.57,-636.21 1856.22,-625.64 1849.11,-633.49 1855.57,-636.21"/>
</g>
<!-- Node101 -->
<g id="node41" class="node">
<title>Node101</title>
<g id="a_node41"><a xlink:href="../../d5/d6d/geometrical__object_8h.html" target="_top" xlink:title=" ">
<polygon fill="#fff0f0" stroke="red" points="1335.5,-569 1216.5,-569 1216.5,-539 1335.5,-539 1335.5,-569"/>
<text text-anchor="start" x="1224.5" y="-557" font-family="Helvetica,sans-Serif" font-size="10.00">includes/geometrical</text>
<text text-anchor="middle" x="1276" y="-546" font-family="Helvetica,sans-Serif" font-size="10.00">_object.h</text>
</a>
</g>
</g>
<!-- Node91&#45;&gt;Node101 -->
<g id="edge119" class="edge">
<title>Node91&#45;&gt;Node101</title>
<path fill="none" stroke="#63b8ff" d="M1287.57,-791.76C1285.92,-757.93 1279.9,-634.71 1277.26,-580.69"/>
<polygon fill="#63b8ff" stroke="#63b8ff" points="1280.76,-580.72 1276.78,-570.91 1273.77,-581.06 1280.76,-580.72"/>
</g>
<!-- Node111 -->
<g id="node42" class="node">
<title>Node111</title>
<g id="a_node42"><a xlink:href="../../d6/ddf/constitutive__law_8h.html" target="_top" xlink:title=" ">
<polygon fill="#fff0f0" stroke="red" points="1247,-756 1129,-756 1129,-726 1247,-726 1247,-756"/>
<text text-anchor="start" x="1137" y="-744" font-family="Helvetica,sans-Serif" font-size="10.00">includes/constitutive</text>
<text text-anchor="middle" x="1188" y="-733" font-family="Helvetica,sans-Serif" font-size="10.00">_law.h</text>
</a>
</g>
</g>
<!-- Node91&#45;&gt;Node111 -->
<g id="edge122" class="edge">
<title>Node91&#45;&gt;Node111</title>
<path fill="none" stroke="#63b8ff" d="M1272.81,-791.62C1259.48,-783.81 1239.58,-772.17 1222.41,-762.13"/>
<polygon fill="#63b8ff" stroke="#63b8ff" points="1224.39,-759.23 1213.99,-757.2 1220.85,-765.27 1224.39,-759.23"/>
</g>
<!-- Node92&#45;&gt;Node3 -->
<g id="edge95" class="edge">
<title>Node92&#45;&gt;Node3</title>
<path fill="none" stroke="#63b8ff" d="M1647.65,-665.1C1626.27,-657.18 1597.41,-643.76 1578,-624 1536.08,-581.31 1538.48,-559.57 1519,-503 1474.19,-372.86 1449.93,-207.95 1442.5,-151.5"/>
<polygon fill="#63b8ff" stroke="#63b8ff" points="1446.01,-151.33 1441.26,-141.85 1439.06,-152.22 1446.01,-151.33"/>
</g>
<!-- Node92&#45;&gt;Node8 -->
<g id="edge92" class="edge">
<title>Node92&#45;&gt;Node8</title>
<path fill="none" stroke="#63b8ff" d="M1671.67,-665.17C1653.29,-626.51 1583.97,-468.34 1615,-341 1647.81,-206.35 1652.23,-150.6 1762,-66 1800.17,-36.58 1855.16,-24.46 1892.61,-19.47"/>
<polygon fill="#63b8ff" stroke="#63b8ff" points="1892.62,-22.99 1902.13,-18.32 1891.79,-16.04 1892.62,-22.99"/>
</g>
<!-- Node92&#45;&gt;Node13 -->
<g id="edge91" class="edge">
<title>Node92&#45;&gt;Node13</title>
<path fill="none" stroke="#63b8ff" d="M1735.98,-672.27C1847.35,-668.37 2093.38,-656.55 2298,-624 2725.61,-555.98 3194,-674.49 3194,-241.5 3194,-241.5 3194,-241.5 3194,-129.5 3194,-56.39 2935.92,-26.96 2841.82,-18.65"/>
<polygon fill="#63b8ff" stroke="#63b8ff" points="2842.19,-15.17 2831.93,-17.81 2841.6,-22.15 2842.19,-15.17"/>
</g>
<!-- Node92&#45;&gt;Node64 -->
<g id="edge93" class="edge">
<title>Node92&#45;&gt;Node64</title>
<path fill="none" stroke="#63b8ff" d="M1735.87,-674.96C1887.98,-674.93 2297.9,-659.26 2589,-503 2652.23,-469.06 2667.7,-441.33 2682,-371 2685.71,-352.74 2683.68,-331.5 2681.18,-316.38"/>
<polygon fill="#63b8ff" stroke="#63b8ff" points="2684.67,-315.98 2679.37,-306.8 2677.79,-317.28 2684.67,-315.98"/>
</g>
<!-- Node92&#45;&gt;Node50 -->
<g id="edge94" class="edge">
<title>Node92&#45;&gt;Node50</title>
<path fill="none" stroke="#63b8ff" d="M1616.04,-673.01C1479.2,-669.31 1134.6,-651.81 861,-569 671.14,-511.54 619.64,-490.1 461,-371 420,-340.22 417.93,-323.53 383,-286 374.5,-276.86 364.95,-266.74 357.11,-258.46"/>
<polygon fill="#63b8ff" stroke="#63b8ff" points="359.87,-256.28 350.45,-251.43 354.79,-261.09 359.87,-256.28"/>
</g>
<!-- Node78 -->
<g id="node38" class="node">
<title>Node78</title>
<g id="a_node38"><a xlink:href="../../d1/d82/data__value__container_8h.html" target="_top" xlink:title=" ">
<polygon fill="#fff0f0" stroke="red" points="1922.5,-569 1797.5,-569 1797.5,-539 1922.5,-539 1922.5,-569"/>
<text text-anchor="start" x="1805.5" y="-557" font-family="Helvetica,sans-Serif" font-size="10.00">containers/data_value</text>
<text text-anchor="middle" x="1860" y="-546" font-family="Helvetica,sans-Serif" font-size="10.00">_container.h</text>
</a>
</g>
</g>
<!-- Node92&#45;&gt;Node78 -->
<g id="edge96" class="edge">
<title>Node92&#45;&gt;Node78</title>
<path fill="none" stroke="#63b8ff" d="M1683.74,-665.45C1696.77,-651.44 1724.37,-623.31 1752,-605 1770.31,-592.86 1792.04,-582.18 1811.19,-573.84"/>
<polygon fill="#63b8ff" stroke="#63b8ff" points="1812.29,-577.18 1820.13,-570.05 1809.56,-570.73 1812.29,-577.18"/>
</g>
<!-- Node92&#45;&gt;Node99 -->
<g id="edge104" class="edge">
<title>Node92&#45;&gt;Node99</title>
<path fill="none" stroke="#63b8ff" d="M1703.95,-665.12C1735.15,-655.19 1785.88,-639.07 1820.99,-627.9"/>
<polygon fill="#63b8ff" stroke="#63b8ff" points="1821.88,-631.29 1830.35,-624.93 1819.76,-624.62 1821.88,-631.29"/>
</g>
<!-- Node100 -->
<g id="node40" class="node">
<title>Node100</title>
<g id="a_node40"><a xlink:href="../../dd/d98/table_8h.html" target="_top" xlink:title=" ">
<polygon fill="white" stroke="#666666" points="2434,-497.5 2340,-497.5 2340,-478.5 2434,-478.5 2434,-497.5"/>
<text text-anchor="middle" x="2387" y="-485.5" font-family="Helvetica,sans-Serif" font-size="10.00">includes/table.h</text>
</a>
</g>
</g>
<!-- Node92&#45;&gt;Node100 -->
<g id="edge112" class="edge">
<title>Node92&#45;&gt;Node100</title>
<path fill="none" stroke="#63b8ff" d="M1689.45,-665.01C1716.26,-647.16 1774.65,-608.66 1785,-605 1916.61,-558.5 1959.98,-595.64 2097,-569 2188.9,-551.13 2294.28,-519.07 2349.21,-501.44"/>
<polygon fill="#63b8ff" stroke="#63b8ff" points="2350.26,-504.78 2358.7,-498.38 2348.11,-498.12 2350.26,-504.78"/>
</g>
<!-- Node78&#45;&gt;Node3 -->
<g id="edge100" class="edge">
<title>Node78&#45;&gt;Node3</title>
<path fill="none" stroke="#63b8ff" d="M1797.04,-544.59C1764.54,-537.7 1725.79,-525.29 1697,-503 1584.84,-416.15 1607.46,-349.84 1530,-231 1513.78,-206.11 1511.9,-198.07 1492,-176 1482.59,-165.57 1470.79,-155.28 1460.8,-147.23"/>
<polygon fill="#63b8ff" stroke="#63b8ff" points="1463.14,-144.62 1453.11,-141.2 1458.82,-150.13 1463.14,-144.62"/>
</g>
<!-- Node78&#45;&gt;Node8 -->
<g id="edge98" class="edge">
<title>Node78&#45;&gt;Node8</title>
<path fill="none" stroke="#63b8ff" d="M1812.4,-538.68C1795.31,-530.98 1777.85,-519.56 1768,-503 1761.19,-491.54 1765.61,-486.12 1768,-473 1800.98,-291.73 1855.86,-259.84 1914,-85 1919.48,-68.51 1924.92,-49.53 1928.74,-35.65"/>
<polygon fill="#63b8ff" stroke="#63b8ff" points="1932.11,-36.59 1931.35,-26.02 1925.36,-34.76 1932.11,-36.59"/>
</g>
<!-- Node78&#45;&gt;Node12 -->
<g id="edge103" class="edge">
<title>Node78&#45;&gt;Node12</title>
<path fill="none" stroke="#63b8ff" d="M1797.16,-543.15C1773.61,-536.07 1749.15,-523.9 1735,-503 1727.52,-491.96 1733.17,-486.21 1735,-473 1737.7,-453.49 1818.65,-174.09 1841.21,-96.41"/>
<polygon fill="#63b8ff" stroke="#63b8ff" points="1844.56,-97.42 1843.99,-86.84 1837.84,-95.47 1844.56,-97.42"/>
</g>
<!-- Node78&#45;&gt;Node13 -->
<g id="edge97" class="edge">
<title>Node78&#45;&gt;Node13</title>
<path fill="none" stroke="#63b8ff" d="M1922.56,-542.6C1932.07,-541.24 1941.78,-539.98 1951,-539 2216.2,-510.69 2285.93,-540.38 2550,-503 2616.19,-493.63 3095.24,-423.2 3137,-371 3157.8,-345 3124.98,-194.3 2959,-66 2924.27,-39.15 2874.44,-26.37 2841.66,-20.53"/>
<polygon fill="#63b8ff" stroke="#63b8ff" points="2842.34,-17.1 2831.91,-18.93 2841.21,-24 2842.34,-17.1"/>
</g>
<!-- Node78&#45;&gt;Node19 -->
<g id="edge102" class="edge">
<title>Node78&#45;&gt;Node19</title>
<path fill="none" stroke="#63b8ff" d="M1860,-538.8C1860,-530.09 1860,-518.81 1860,-509.18"/>
<polygon fill="#63b8ff" stroke="#63b8ff" points="1863.5,-509.36 1860,-499.36 1856.5,-509.36 1863.5,-509.36"/>
</g>
<!-- Node78&#45;&gt;Node62 -->
<g id="edge101" class="edge">
<title>Node78&#45;&gt;Node62</title>
<path fill="none" stroke="#63b8ff" d="M1922.59,-539.38C1961.78,-529.81 2007.67,-516.38 2023,-503 2040.98,-487.3 2050.79,-461.03 2055.71,-442.9"/>
<polygon fill="#63b8ff" stroke="#63b8ff" points="2059.07,-443.89 2058.01,-433.35 2052.26,-442.25 2059.07,-443.89"/>
</g>
<!-- Node78&#45;&gt;Node64 -->
<g id="edge99" class="edge">
<title>Node78&#45;&gt;Node64</title>
<path fill="none" stroke="#63b8ff" d="M1922.56,-542.63C1932.07,-541.27 1941.78,-540 1951,-539 2075.63,-525.46 2401.73,-558.79 2514,-503 2595.88,-462.32 2649.37,-358.99 2668.81,-315.87"/>
<polygon fill="#63b8ff" stroke="#63b8ff" points="2671.98,-317.36 2672.78,-306.79 2665.56,-314.55 2671.98,-317.36"/>
</g>
<!-- Node99&#45;&gt;Node3 -->
<g id="edge109" class="edge">
<title>Node99&#45;&gt;Node3</title>
<path fill="none" stroke="#63b8ff" d="M1794.12,-611C1722.21,-606.9 1613.26,-596.27 1583,-569 1467.44,-464.84 1548.59,-375.91 1492,-231 1480.51,-201.57 1462.72,-169.52 1451.22,-149.96"/>
<polygon fill="#63b8ff" stroke="#63b8ff" points="1454.32,-148.33 1446.19,-141.54 1448.31,-151.92 1454.32,-148.33"/>
</g>
<!-- Node99&#45;&gt;Node5 -->
<g id="edge107" class="edge">
<title>Node99&#45;&gt;Node5</title>
<path fill="none" stroke="#63b8ff" d="M1925.93,-612.51C2180.92,-607.22 3097.58,-574.13 3284,-371 3374.01,-272.93 3370.75,-96 3366.76,-36.3"/>
<polygon fill="#63b8ff" stroke="#63b8ff" points="3370.25,-36.07 3365.99,-26.36 3363.27,-36.6 3370.25,-36.07"/>
</g>
<!-- Node99&#45;&gt;Node8 -->
<g id="edge106" class="edge">
<title>Node99&#45;&gt;Node8</title>
<path fill="none" stroke="#63b8ff" d="M1842.51,-604.5C1827.34,-596.29 1805.18,-583.27 1788,-569 1757.51,-543.67 1742.3,-539.98 1728,-503 1723.19,-490.56 1727.17,-486.31 1728,-473 1739.36,-291.05 1662.72,-206.4 1779,-66 1806.67,-32.6 1856.83,-21.27 1892.6,-17.56"/>
<polygon fill="#63b8ff" stroke="#63b8ff" points="1892.49,-21.08 1902.15,-16.73 1891.88,-14.11 1892.49,-21.08"/>
</g>
<!-- Node99&#45;&gt;Node13 -->
<g id="edge105" class="edge">
<title>Node99&#45;&gt;Node13</title>
<path fill="none" stroke="#63b8ff" d="M1925.91,-608.45C2003.74,-601.91 2136.92,-588.94 2250,-569 2306.26,-559.08 2318.8,-549.26 2375,-539 2655.76,-487.74 2737.06,-523.61 3009,-437 3076.08,-415.64 3114.29,-429.81 3153,-371 3184.65,-322.91 3156,-299.07 3156,-241.5 3156,-241.5 3156,-241.5 3156,-129.5 3156,-63.8 2928.96,-30.19 2841.65,-19.69"/>
<polygon fill="#63b8ff" stroke="#63b8ff" points="2842.14,-16.22 2831.8,-18.54 2841.33,-23.17 2842.14,-16.22"/>
</g>
<!-- Node99&#45;&gt;Node18 -->
<g id="edge111" class="edge">
<title>Node99&#45;&gt;Node18</title>
<path fill="none" stroke="#63b8ff" d="M1925.82,-608.25C1986.67,-602.16 2071.42,-590.13 2097,-569 2177.05,-502.86 2149.89,-444.82 2148,-341 2147.56,-316.54 2152,-309.71 2146,-286 2143.73,-277.03 2139.49,-267.75 2135.34,-260.01"/>
<polygon fill="#63b8ff" stroke="#63b8ff" points="2138.51,-258.5 2130.49,-251.58 2132.44,-261.99 2138.51,-258.5"/>
</g>
<!-- Node99&#45;&gt;Node64 -->
<g id="edge108" class="edge">
<title>Node99&#45;&gt;Node64</title>
<path fill="none" stroke="#63b8ff" d="M1925.72,-605.88C1989.06,-598.12 2087.46,-584.98 2172,-569 2228.99,-558.23 2242.02,-549.79 2299,-539 2409.73,-518.02 2448.48,-551.94 2550,-503 2619.57,-469.46 2634.24,-442.67 2663,-371 2670.12,-353.25 2673.67,-331.65 2675.41,-316.28"/>
<polygon fill="#63b8ff" stroke="#63b8ff" points="2678.87,-316.86 2676.33,-306.58 2671.9,-316.2 2678.87,-316.86"/>
</g>
<!-- Node99&#45;&gt;Node78 -->
<g id="edge110" class="edge">
<title>Node99&#45;&gt;Node78</title>
<path fill="none" stroke="#63b8ff" d="M1860,-604.87C1860,-598.4 1860,-589.2 1860,-580.45"/>
<polygon fill="#63b8ff" stroke="#63b8ff" points="1863.5,-580.63 1860,-570.63 1856.5,-580.63 1863.5,-580.63"/>
</g>
<!-- Node100&#45;&gt;Node3 -->
<g id="edge116" class="edge">
<title>Node100&#45;&gt;Node3</title>
<path fill="none" stroke="#63b8ff" d="M2373.37,-478.28C2307.75,-436.71 2016.57,-257.42 1752,-176 1667.45,-149.98 1565.24,-139.08 1501.41,-134.57"/>
<polygon fill="#63b8ff" stroke="#63b8ff" points="1501.67,-131.08 1491.46,-133.91 1501.2,-138.07 1501.67,-131.08"/>
</g>
<!-- Node100&#45;&gt;Node8 -->
<g id="edge114" class="edge">
<title>Node100&#45;&gt;Node8</title>
<path fill="none" stroke="#63b8ff" d="M2381.48,-478.14C2345.26,-420.15 2141.84,-96.08 2100,-66 2062.84,-39.29 2011.27,-26.67 1975.51,-20.82"/>
<polygon fill="#63b8ff" stroke="#63b8ff" points="1976.4,-17.42 1965.99,-19.38 1975.35,-24.34 1976.4,-17.42"/>
</g>
<!-- Node100&#45;&gt;Node13 -->
<g id="edge113" class="edge">
<title>Node100&#45;&gt;Node13</title>
<path fill="none" stroke="#63b8ff" d="M2434.48,-486.81C2565.41,-483.56 2922,-455.09 2922,-241.5 2922,-241.5 2922,-241.5 2922,-129.5 2922,-82.17 2872.04,-47.77 2838.27,-29.91"/>
<polygon fill="#63b8ff" stroke="#63b8ff" points="2840.23,-26.99 2829.73,-25.59 2837.07,-33.23 2840.23,-26.99"/>
</g>
<!-- Node100&#45;&gt;Node62 -->
<g id="edge117" class="edge">
<title>Node100&#45;&gt;Node62</title>
<path fill="none" stroke="#63b8ff" d="M2348.98,-478.03C2341.38,-476.3 2333.45,-474.55 2326,-473 2256.43,-458.48 2176.22,-443.67 2122.22,-433.97"/>
<polygon fill="#63b8ff" stroke="#63b8ff" points="2123.06,-430.57 2112.6,-432.25 2121.83,-437.46 2123.06,-430.57"/>
</g>
<!-- Node100&#45;&gt;Node58 -->
<g id="edge115" class="edge">
<title>Node100&#45;&gt;Node58</title>
<path fill="none" stroke="#63b8ff" d="M2389.94,-478.45C2394.67,-463.13 2402.26,-430.39 2390,-407 2376.95,-382.1 2354.75,-393.57 2338,-371 2317.27,-343.07 2314,-331.29 2314,-296.5 2314,-296.5 2314,-296.5 2314,-239.5 2314,-205.21 2292.99,-169.99 2278.2,-149.46"/>
<polygon fill="#63b8ff" stroke="#63b8ff" points="2281.1,-147.48 2272.29,-141.59 2275.5,-151.69 2281.1,-147.48"/>
</g>
<!-- Node101&#45;&gt;Node3 -->
<g id="edge120" class="edge">
<title>Node101&#45;&gt;Node3</title>
<path fill="none" stroke="#63b8ff" d="M1285.4,-538.87C1299.89,-515.7 1326,-467.74 1326,-423 1326,-423 1326,-423 1326,-239.5 1326,-209.33 1329.73,-198.35 1350,-176 1362.99,-161.67 1381.63,-151.4 1398.58,-144.37"/>
<polygon fill="#63b8ff" stroke="#63b8ff" points="1399.37,-147.81 1407.44,-140.94 1396.85,-141.28 1399.37,-147.81"/>
</g>
<!-- Node101&#45;&gt;Node18 -->
<g id="edge121" class="edge">
<title>Node101&#45;&gt;Node18</title>
<path fill="none" stroke="#63b8ff" d="M1315.2,-538.6C1458.56,-485.94 1953.11,-304.27 2089.14,-254.31"/>
<polygon fill="#63b8ff" stroke="#63b8ff" points="2090.14,-257.67 2098.32,-250.93 2087.73,-251.1 2090.14,-257.67"/>
</g>
<!-- Node111&#45;&gt;Node3 -->
<g id="edge123" class="edge">
<title>Node111&#45;&gt;Node3</title>
<path fill="none" stroke="#63b8ff" d="M1188.76,-725.79C1190.67,-692.83 1196.24,-608.63 1207,-539 1215.05,-486.88 1232,-475.74 1232,-423 1232,-423 1232,-423 1232,-239.5 1232,-172.66 1317.65,-147.13 1379.03,-137.42"/>
<polygon fill="#63b8ff" stroke="#63b8ff" points="1379.3,-140.91 1388.68,-136 1378.28,-133.99 1379.3,-140.91"/>
</g>
<!-- Node111&#45;&gt;Node18 -->
<g id="edge131" class="edge">
<title>Node111&#45;&gt;Node18</title>
<path fill="none" stroke="#63b8ff" d="M1216.94,-725.55C1251.9,-708.44 1312.8,-679.79 1367,-660 1549.88,-593.23 1599.3,-586.91 1788,-539 1859.91,-520.74 1894.1,-550.61 1951,-503 1986.45,-473.34 1967.4,-446.74 1991,-407 1995.76,-398.98 2076.07,-300.27 2109.54,-259.22"/>
<polygon fill="#63b8ff" stroke="#63b8ff" points="2112.23,-261.46 2115.83,-251.5 2106.8,-257.04 2112.23,-261.46"/>
</g>
<!-- Node111&#45;&gt;Node49 -->
<g id="edge124" class="edge">
<title>Node111&#45;&gt;Node49</title>
<path fill="none" stroke="#63b8ff" d="M1128.71,-737.3C1029.96,-732.07 836.54,-718.46 775,-690 703.06,-656.74 690.83,-632.95 644,-569 583.8,-486.79 545.9,-410.94 620,-341 648.24,-314.35 690.17,-303.1 725.8,-298.57"/>
<polygon fill="#63b8ff" stroke="#63b8ff" points="726.06,-302.06 735.61,-297.49 725.29,-295.1 726.06,-302.06"/>
</g>
<!-- Node111&#45;&gt;Node28 -->
<g id="edge128" class="edge">
<title>Node111&#45;&gt;Node28</title>
<path fill="none" stroke="#63b8ff" d="M1177.28,-725.55C1170.88,-715.99 1163.37,-702.9 1160,-690 1150.46,-653.45 1158.01,-642.73 1160,-605 1161.56,-575.54 1162.09,-568.09 1167,-539 1175.81,-486.8 1194,-475.93 1194,-423 1194,-423 1194,-423 1194,-294.5 1194,-244.89 1138.02,-214.67 1097.37,-199.26"/>
<polygon fill="#63b8ff" stroke="#63b8ff" points="1098.65,-196 1088.05,-195.9 1096.27,-202.58 1098.65,-196"/>
</g>
<!-- Node111&#45;&gt;Node68 -->
<g id="edge129" class="edge">
<title>Node111&#45;&gt;Node68</title>
<path fill="none" stroke="#63b8ff" d="M1128.76,-728.26C1069.68,-716.56 979.59,-698.71 921.5,-687.19"/>
<polygon fill="#63b8ff" stroke="#63b8ff" points="922.3,-683.79 911.81,-685.28 920.94,-690.65 922.3,-683.79"/>
</g>
<!-- Node111&#45;&gt;Node72 -->
<g id="edge125" class="edge">
<title>Node111&#45;&gt;Node72</title>
<path fill="none" stroke="#63b8ff" d="M1167.95,-725.79C1119.93,-691.75 998.62,-605.77 948.84,-570.48"/>
<polygon fill="#63b8ff" stroke="#63b8ff" points="951.03,-567.74 940.85,-564.81 946.98,-573.45 951.03,-567.74"/>
</g>
<!-- Node111&#45;&gt;Node92 -->
<g id="edge126" class="edge">
<title>Node111&#45;&gt;Node92</title>
<path fill="none" stroke="#63b8ff" d="M1247.35,-732.22C1337.42,-720.4 1508.32,-697.99 1604.9,-685.32"/>
<polygon fill="#63b8ff" stroke="#63b8ff" points="1605.34,-688.8 1614.8,-684.03 1604.43,-681.86 1605.34,-688.8"/>
</g>
<!-- Node111&#45;&gt;Node78 -->
<g id="edge130" class="edge">
<title>Node111&#45;&gt;Node78</title>
<path fill="none" stroke="#63b8ff" d="M1240.45,-725.56C1362.43,-691.98 1664.81,-608.74 1796.74,-572.41"/>
<polygon fill="#63b8ff" stroke="#63b8ff" points="1797.28,-575.9 1806,-569.87 1795.43,-569.15 1797.28,-575.9"/>
</g>
<!-- Node111&#45;&gt;Node99 -->
<g id="edge127" class="edge">
<title>Node111&#45;&gt;Node99</title>
<path fill="none" stroke="#63b8ff" d="M1247.27,-736.76C1381.23,-729.14 1699.21,-709.27 1744,-690 1762.51,-682.03 1761.48,-671.55 1778,-660 1794.66,-648.35 1814.7,-637.43 1830.79,-629.32"/>
<polygon fill="#63b8ff" stroke="#63b8ff" points="1831.95,-632.65 1839.37,-625.09 1828.85,-626.38 1831.95,-632.65"/>
</g>
<!-- Node113&#45;&gt;Node68 -->
<g id="edge138" class="edge">
<title>Node113&#45;&gt;Node68</title>
<path fill="none" stroke="#63b8ff" d="M1486.69,-734.6C1369.1,-723.51 1099.65,-698.12 957.19,-684.69"/>
<polygon fill="#63b8ff" stroke="#63b8ff" points="957.69,-681.22 947.41,-683.77 957.04,-688.19 957.69,-681.22"/>
</g>
<!-- Node113&#45;&gt;Node73 -->
<g id="edge139" class="edge">
<title>Node113&#45;&gt;Node73</title>
<path fill="none" stroke="#63b8ff" d="M1491.37,-731.06C1375.12,-710.4 1088.73,-654.49 861,-569 800.71,-546.37 778.43,-547.63 732,-503 715.89,-487.51 703.92,-464.98 696.39,-447.77"/>
<polygon fill="#63b8ff" stroke="#63b8ff" points="699.72,-446.66 692.67,-438.76 693.25,-449.33 699.72,-446.66"/>
</g>
<!-- Node113&#45;&gt;Node92 -->
<g id="edge135" class="edge">
<title>Node113&#45;&gt;Node92</title>
<path fill="none" stroke="#63b8ff" d="M1562.35,-731.1C1584.42,-720.4 1621.7,-702.33 1647.52,-689.81"/>
<polygon fill="#63b8ff" stroke="#63b8ff" points="1648.97,-693 1656.44,-685.48 1645.91,-686.7 1648.97,-693"/>
</g>
<!-- Node113&#45;&gt;Node99 -->
<g id="edge136" class="edge">
<title>Node113&#45;&gt;Node99</title>
<path fill="none" stroke="#63b8ff" d="M1601.15,-736.17C1650.33,-730.96 1722,-718.73 1778,-690 1805.44,-675.93 1830.67,-650.26 1845.69,-633.05"/>
<polygon fill="#63b8ff" stroke="#63b8ff" points="1848.18,-635.53 1851.97,-625.63 1842.84,-631.01 1848.18,-635.53"/>
</g>
<!-- Node113&#45;&gt;Node101 -->
<g id="edge137" class="edge">
<title>Node113&#45;&gt;Node101</title>
<path fill="none" stroke="#63b8ff" d="M1531.07,-731.08C1490.45,-703.03 1364.6,-616.16 1306.26,-575.89"/>
<polygon fill="#63b8ff" stroke="#63b8ff" points="1308.31,-573.05 1298.09,-570.25 1304.33,-578.81 1308.31,-573.05"/>
</g>
<!-- Node114&#45;&gt;Node3 -->
<g id="edge145" class="edge">
<title>Node114&#45;&gt;Node3</title>
<path fill="none" stroke="#63b8ff" d="M2287.18,-921.19C1970.76,-919.48 563.23,-910.04 477,-877 429.46,-858.78 390,-853.41 390,-802.5 390,-802.5 390,-802.5 390,-421 390,-384.35 387.51,-373.2 370,-341 343.56,-292.38 305.3,-301.48 285,-250 272.93,-219.4 262.2,-199.7 285,-176 323.18,-136.32 1145.34,-131.97 1378.72,-131.54"/>
<polygon fill="#63b8ff" stroke="#63b8ff" points="1378.53,-135.04 1388.52,-131.52 1378.52,-128.04 1378.53,-135.04"/>
</g>
<!-- Node114&#45;&gt;Node5 -->
<g id="edge143" class="edge">
<title>Node114&#45;&gt;Node5</title>
<path fill="none" stroke="#63b8ff" d="M2412.92,-921.76C2601.23,-922.06 3158.16,-919.25 3334,-877 3411.84,-858.3 3498,-882.56 3498,-802.5 3498,-802.5 3498,-802.5 3498,-129.5 3498,-78.86 3441.53,-46.02 3402.18,-29.29"/>
<polygon fill="#63b8ff" stroke="#63b8ff" points="3403.58,-26.08 3393,-25.56 3400.95,-32.57 3403.58,-26.08"/>
</g>
<!-- Node114&#45;&gt;Node8 -->
<g id="edge142" class="edge">
<title>Node114&#45;&gt;Node8</title>
<path fill="none" stroke="#63b8ff" d="M2412.88,-921.12C2513.58,-919.43 2716.79,-911.57 2885,-877 2987.36,-855.96 3108,-907 3108,-802.5 3108,-802.5 3108,-802.5 3108,-553 3108,-370.19 2619.63,-120.06 2445,-66 2357.58,-38.94 2081.64,-23.12 1975.85,-17.92"/>
<polygon fill="#63b8ff" stroke="#63b8ff" points="1976.06,-14.43 1965.91,-17.44 1975.73,-21.42 1976.06,-14.43"/>
</g>
<!-- Node114&#45;&gt;Node13 -->
<g id="edge141" class="edge">
<title>Node114&#45;&gt;Node13</title>
<path fill="none" stroke="#63b8ff" d="M2412.97,-921.01C2588.04,-919.23 3078.02,-911.23 3235,-877 3322.41,-857.94 3422,-891.96 3422,-802.5 3422,-802.5 3422,-802.5 3422,-294.5 3422,-159.24 3340.66,-129.05 3221,-66 3155.23,-31.35 2928.2,-20.1 2841.77,-17.02"/>
<polygon fill="#63b8ff" stroke="#63b8ff" points="2841.93,-13.52 2831.82,-16.68 2841.69,-20.52 2841.93,-13.52"/>
</g>
<!-- Node114&#45;&gt;Node17 -->
<g id="edge190" class="edge">
<title>Node114&#45;&gt;Node17</title>
<path fill="none" stroke="#63b8ff" d="M2289.49,-912.51C2193.73,-896.56 2018,-859.52 2018,-802.5 2018,-802.5 2018,-802.5 2018,-674 2018,-639.27 2020.58,-598.9 2022.36,-575.24"/>
<polygon fill="#63b8ff" stroke="#63b8ff" points="2025.83,-575.7 2023.12,-565.46 2018.85,-575.15 2025.83,-575.7"/>
</g>
<!-- Node114&#45;&gt;Node62 -->
<g id="edge192" class="edge">
<title>Node114&#45;&gt;Node62</title>
<path fill="none" stroke="#63b8ff" d="M2361.03,-912.62C2382.32,-894.41 2427,-850.48 2427,-802.5 2427,-802.5 2427,-802.5 2427,-613.5 2427,-540.99 2198.49,-464.3 2102.1,-435.17"/>
<polygon fill="#63b8ff" stroke="#63b8ff" points="2103.32,-431.89 2092.74,-432.37 2101.32,-438.59 2103.32,-431.89"/>
</g>
<!-- Node114&#45;&gt;Node63 -->
<g id="edge193" class="edge">
<title>Node114&#45;&gt;Node63</title>
<path fill="none" stroke="#63b8ff" d="M2402.59,-912.51C2491.03,-895.88 2660,-856.98 2660,-802.5 2660,-802.5 2660,-802.5 2660,-613.5 2660,-492.7 2516.6,-403.84 2454.31,-370.94"/>
<polygon fill="#63b8ff" stroke="#63b8ff" points="2456.2,-367.98 2445.71,-366.5 2452.98,-374.2 2456.2,-367.98"/>
</g>
<!-- Node114&#45;&gt;Node64 -->
<g id="edge144" class="edge">
<title>Node114&#45;&gt;Node64</title>
<path fill="none" stroke="#63b8ff" d="M2412.83,-920.2C2592.62,-916.19 3097.78,-902.66 3122,-877 3215.7,-777.74 2931.03,-423.12 2822,-341 2790.57,-317.33 2746.44,-306.13 2715.13,-300.91"/>
<polygon fill="#63b8ff" stroke="#63b8ff" points="2715.73,-297.46 2705.31,-299.41 2714.67,-304.38 2715.73,-297.46"/>
</g>
<!-- Node114&#45;&gt;Node49 -->
<g id="edge146" class="edge">
<title>Node114&#45;&gt;Node49</title>
<path fill="none" stroke="#63b8ff" d="M2287.26,-921C2040.77,-918.81 1138.38,-908.75 854,-877 682.09,-857.81 472,-975.48 472,-802.5 472,-802.5 472,-802.5 472,-487 472,-403.01 520.39,-384.89 592,-341 632.3,-316.3 684.56,-305.24 725.83,-300.32"/>
<polygon fill="#63b8ff" stroke="#63b8ff" points="726.09,-303.81 735.65,-299.25 725.33,-296.85 726.09,-303.81"/>
</g>
<!-- Node114&#45;&gt;Node58 -->
<g id="edge189" class="edge">
<title>Node114&#45;&gt;Node58</title>
<path fill="none" stroke="#63b8ff" d="M2393.91,-912.55C2417.25,-905.96 2445.13,-894.93 2465,-877 2492.59,-852.1 2503,-839.67 2503,-802.5 2503,-802.5 2503,-802.5 2503,-613.5 2503,-512.48 2468.6,-487.83 2408,-407 2394.24,-388.64 2382.83,-390.66 2371,-371 2324.44,-293.64 2362.27,-252.31 2314,-176 2307.01,-164.95 2296.51,-155.02 2286.93,-147.36"/>
<polygon fill="#63b8ff" stroke="#63b8ff" points="2289.13,-144.63 2279.03,-141.4 2284.91,-150.22 2289.13,-144.63"/>
</g>
<!-- Node114&#45;&gt;Node91 -->
<g id="edge175" class="edge">
<title>Node114&#45;&gt;Node91</title>
<path fill="none" stroke="#63b8ff" d="M2287.29,-918.4C2179.76,-912.7 1953.35,-899.11 1763,-877 1613.07,-859.59 1437.96,-829.6 1348.04,-813.5"/>
<polygon fill="#63b8ff" stroke="#63b8ff" points="1348.67,-810.05 1338.2,-811.73 1347.43,-816.94 1348.67,-810.05"/>
</g>
<!-- Node114&#45;&gt;Node78 -->
<g id="edge148" class="edge">
<title>Node114&#45;&gt;Node78</title>
<path fill="none" stroke="#63b8ff" d="M2287.18,-918.05C2212.44,-912.92 2093.1,-901.15 2056,-877 2026.86,-858.03 2029.7,-842.02 2014,-811 1969.64,-723.37 1995.26,-681.77 1934,-605 1924.61,-593.24 1911.71,-583.21 1899.3,-575.29"/>
<polygon fill="#63b8ff" stroke="#63b8ff" points="1901.2,-572.34 1890.83,-570.18 1897.58,-578.34 1901.2,-572.34"/>
</g>
<!-- Node114&#45;&gt;Node99 -->
<g id="edge147" class="edge">
<title>Node114&#45;&gt;Node99</title>
<path fill="none" stroke="#63b8ff" d="M2287,-921.29C2184.45,-919.89 1986.92,-912.51 1928,-877 1893.85,-856.42 1878,-842.38 1878,-802.5 1878,-802.5 1878,-802.5 1878,-740 1878,-702.8 1870.03,-660 1864.7,-635.51"/>
<polygon fill="#63b8ff" stroke="#63b8ff" points="1868.16,-634.95 1862.54,-625.97 1861.34,-636.5 1868.16,-634.95"/>
</g>
<!-- Node114&#45;&gt;Node100 -->
<g id="edge186" class="edge">
<title>Node114&#45;&gt;Node100</title>
<path fill="none" stroke="#63b8ff" d="M2382.67,-912.64C2402.08,-905.83 2425.8,-894.55 2441,-877 2463.78,-850.71 2465,-837.29 2465,-802.5 2465,-802.5 2465,-802.5 2465,-613.5 2465,-578.71 2459.71,-568.33 2441,-539 2432.6,-525.84 2419.92,-513.85 2408.95,-504.91"/>
<polygon fill="#63b8ff" stroke="#63b8ff" points="2411.15,-502.18 2401.1,-498.82 2406.86,-507.71 2411.15,-502.18"/>
</g>
<!-- Node114&#45;&gt;Node113 -->
<g id="edge176" class="edge">
<title>Node114&#45;&gt;Node113</title>
<path fill="none" stroke="#63b8ff" d="M2287.22,-921.86C2193.62,-921.05 2012.56,-914.19 1864,-877 1749.63,-848.37 1623.29,-784.72 1569.99,-756.25"/>
<polygon fill="#63b8ff" stroke="#63b8ff" points="1571.83,-753.27 1561.37,-751.6 1568.51,-759.43 1571.83,-753.27"/>
</g>
<!-- Node115 -->
<g id="node45" class="node">
<title>Node115</title>
<g id="a_node45"><a xlink:href="../../d8/d3b/mesh_8h.html" target="_top" xlink:title=" ">
<polygon fill="#fff0f0" stroke="red" points="2909,-750.5 2813,-750.5 2813,-731.5 2909,-731.5 2909,-750.5"/>
<text text-anchor="middle" x="2861" y="-738.5" font-family="Helvetica,sans-Serif" font-size="10.00">includes/mesh.h</text>
</a>
</g>
</g>
<!-- Node114&#45;&gt;Node115 -->
<g id="edge149" class="edge">
<title>Node114&#45;&gt;Node115</title>
<path fill="none" stroke="#63b8ff" d="M2412.95,-920.7C2543.3,-918.38 2833.13,-909.57 2863,-877 2891.83,-845.56 2878.66,-790.59 2868.63,-761.44"/>
<polygon fill="#63b8ff" stroke="#63b8ff" points="2871.93,-760.26 2865.18,-752.09 2865.36,-762.68 2871.93,-760.26"/>
</g>
<!-- Node116 -->
<g id="node46" class="node">
<title>Node116</title>
<g id="a_node46"><a xlink:href="../../d2/d58/pointer__vector__map_8h.html" target="_top" xlink:title=" ">
<polygon fill="#fff0f0" stroke="red" points="3127.5,-371 3022.5,-371 3022.5,-341 3127.5,-341 3127.5,-371"/>
<text text-anchor="start" x="3030.5" y="-359" font-family="Helvetica,sans-Serif" font-size="10.00">containers/pointer</text>
<text text-anchor="middle" x="3075" y="-348" font-family="Helvetica,sans-Serif" font-size="10.00">_vector_map.h</text>
</a>
</g>
</g>
<!-- Node114&#45;&gt;Node116 -->
<g id="edge187" class="edge">
<title>Node114&#45;&gt;Node116</title>
<path fill="none" stroke="#63b8ff" d="M2412.95,-921.09C2597.48,-919.48 3128.48,-911.84 3198,-877 3236.51,-857.7 3260,-845.58 3260,-802.5 3260,-802.5 3260,-802.5 3260,-553 3260,-469.26 3169.59,-406.81 3115.17,-376.81"/>
<polygon fill="#63b8ff" stroke="#63b8ff" points="3116.93,-373.79 3106.47,-372.14 3113.62,-379.95 3116.93,-373.79"/>
</g>
<!-- Node118 -->
<g id="node47" class="node">
<title>Node118</title>
<g id="a_node47"><a xlink:href="../../da/da4/master__slave__constraint_8h.html" target="_top" xlink:title=" ">
<polygon fill="#fff0f0" stroke="red" points="2183,-690 2057,-690 2057,-660 2183,-660 2183,-690"/>
<text text-anchor="start" x="2065" y="-678" font-family="Helvetica,sans-Serif" font-size="10.00">includes/master_slave</text>
<text text-anchor="middle" x="2120" y="-667" font-family="Helvetica,sans-Serif" font-size="10.00">_constraint.h</text>
</a>
</g>
</g>
<!-- Node114&#45;&gt;Node118 -->
<g id="edge191" class="edge">
<title>Node114&#45;&gt;Node118</title>
<path fill="none" stroke="#63b8ff" d="M2341.81,-912.76C2309.51,-878.28 2190.28,-751.01 2141.26,-698.69"/>
<polygon fill="#63b8ff" stroke="#63b8ff" points="2143.91,-696.4 2134.52,-691.5 2138.8,-701.19 2143.91,-696.4"/>
</g>
<!-- Node119 -->
<g id="node48" class="node">
<title>Node119</title>
<g id="a_node48"><a xlink:href="../../d3/dad/geometry__container_8h.html" target="_top" xlink:title=" ">
<polygon fill="white" stroke="#666666" points="298,-437 180,-437 180,-407 298,-407 298,-437"/>
<text text-anchor="start" x="188" y="-425" font-family="Helvetica,sans-Serif" font-size="10.00">containers/geometry</text>
<text text-anchor="middle" x="239" y="-414" font-family="Helvetica,sans-Serif" font-size="10.00">_container.h</text>
</a>
</g>
</g>
<!-- Node114&#45;&gt;Node119 -->
<g id="edge169" class="edge">
<title>Node114&#45;&gt;Node119</title>
<path fill="none" stroke="#63b8ff" d="M2287.24,-921.17C1941.01,-919.26 278.2,-908.42 236,-877 208.1,-856.22 212,-837.29 212,-802.5 212,-802.5 212,-802.5 212,-553 212,-515.82 222.72,-473.88 230.65,-447.94"/>
<polygon fill="#63b8ff" stroke="#63b8ff" points="233.9,-449.26 233.59,-438.67 227.23,-447.14 233.9,-449.26"/>
</g>
<!-- Node120 -->
<g id="node49" class="node">
<title>Node120</title>
<g id="a_node49"><a xlink:href="../../da/d92/pointer__hash__map__set_8h.html" target="_top" xlink:title=" ">
<polygon fill="#fff0f0" stroke="red" points="361.5,-371 256.5,-371 256.5,-341 361.5,-341 361.5,-371"/>
<text text-anchor="start" x="264.5" y="-359" font-family="Helvetica,sans-Serif" font-size="10.00">containers/pointer</text>
<text text-anchor="middle" x="309" y="-348" font-family="Helvetica,sans-Serif" font-size="10.00">_hash_map_set.h</text>
</a>
</g>
</g>
<!-- Node114&#45;&gt;Node120 -->
<g id="edge188" class="edge">
<title>Node114&#45;&gt;Node120</title>
<path fill="none" stroke="#63b8ff" d="M2287.16,-920.98C1960.72,-918.15 469.89,-903.82 376,-877 313.45,-859.13 250,-867.56 250,-802.5 250,-802.5 250,-802.5 250,-740 250,-651.11 326,-643.89 326,-555 326,-555 326,-555 326,-487 326,-450.45 319.31,-408.61 314.33,-382.49"/>
<polygon fill="#63b8ff" stroke="#63b8ff" points="317.79,-381.96 312.41,-372.83 310.92,-383.32 317.79,-381.96"/>
</g>
<!-- Node121 -->
<g id="node50" class="node">
<title>Node121</title>
<g id="a_node50"><a xlink:href="../../d8/d75/communicator_8h.html" target="_top" xlink:title=" ">
<polygon fill="white" stroke="#666666" points="2854.5,-871.5 2715.5,-871.5 2715.5,-852.5 2854.5,-852.5 2854.5,-871.5"/>
<text text-anchor="middle" x="2785" y="-859.5" font-family="Helvetica,sans-Serif" font-size="10.00">includes/communicator.h</text>
</a>
</g>
</g>
<!-- Node114&#45;&gt;Node121 -->
<g id="edge177" class="edge">
<title>Node114&#45;&gt;Node121</title>
<path fill="none" stroke="#63b8ff" d="M2412.79,-913.06C2490.51,-902.6 2622.87,-884.8 2707.02,-873.49"/>
<polygon fill="#63b8ff" stroke="#63b8ff" points="2707.36,-876.97 2716.8,-872.17 2706.43,-870.04 2707.36,-876.97"/>
</g>
<!-- Node115&#45;&gt;Node3 -->
<g id="edge154" class="edge">
<title>Node115&#45;&gt;Node3</title>
<path fill="none" stroke="#63b8ff" d="M2812.67,-739.24C2588.81,-735.56 1661.18,-718.62 1607,-690 1550,-659.89 1552.74,-628.11 1527,-569 1468.82,-435.37 1475.23,-393.72 1451,-250 1446.88,-225.58 1444.39,-219.65 1442,-195 1440.59,-180.5 1440.1,-164.05 1439.96,-151.53"/>
<polygon fill="#63b8ff" stroke="#63b8ff" points="1443.46,-151.65 1439.92,-141.66 1436.46,-151.68 1443.46,-151.65"/>
</g>
<!-- Node115&#45;&gt;Node5 -->
<g id="edge152" class="edge">
<title>Node115&#45;&gt;Node5</title>
<path fill="none" stroke="#63b8ff" d="M2902.04,-731.09C3025.33,-701.67 3384,-595.59 3384,-357 3384,-357 3384,-357 3384,-294.5 3384,-192.94 3399.01,-166.13 3382,-66 3380.25,-55.69 3376.69,-44.65 3373.27,-35.57"/>
<polygon fill="#63b8ff" stroke="#63b8ff" points="3376.56,-34.37 3369.6,-26.39 3370.07,-36.98 3376.56,-34.37"/>
</g>
<!-- Node115&#45;&gt;Node8 -->
<g id="edge151" class="edge">
<title>Node115&#45;&gt;Node8</title>
<path fill="none" stroke="#63b8ff" d="M2864.43,-731.16C2871.66,-712 2888.27,-665.06 2894,-624 2911.37,-499.43 2966.32,-443.9 2894,-341 2866.84,-302.35 2836.83,-324.91 2794,-305 2705.52,-263.87 2683.55,-251.51 2604,-195 2562.89,-165.8 2560.18,-148.63 2518,-121 2470.95,-90.17 2458.1,-81.42 2404,-66 2250.56,-22.25 2059.07,-16.12 1975.85,-15.69"/>
<polygon fill="#63b8ff" stroke="#63b8ff" points="1975.89,-12.19 1965.89,-15.67 1975.88,-19.19 1975.89,-12.19"/>
</g>
<!-- Node115&#45;&gt;Node13 -->
<g id="edge150" class="edge">
<title>Node115&#45;&gt;Node13</title>
<path fill="none" stroke="#63b8ff" d="M2875.09,-731.11C2942.86,-687.15 3232,-485.31 3232,-241.5 3232,-241.5 3232,-241.5 3232,-129.5 3232,-48.86 2942.19,-23.98 2841.77,-17.78"/>
<polygon fill="#63b8ff" stroke="#63b8ff" points="2842.2,-14.3 2832.01,-17.2 2841.78,-21.29 2842.2,-14.3"/>
</g>
<!-- Node115&#45;&gt;Node18 -->
<g id="edge161" class="edge">
<title>Node115&#45;&gt;Node18</title>
<path fill="none" stroke="#63b8ff" d="M2847.9,-731.14C2760.25,-671.85 2259.22,-332.96 2146.51,-256.73"/>
<polygon fill="#63b8ff" stroke="#63b8ff" points="2148.61,-253.92 2138.37,-251.22 2144.69,-259.72 2148.61,-253.92"/>
</g>
<!-- Node115&#45;&gt;Node64 -->
<g id="edge153" class="edge">
<title>Node115&#45;&gt;Node64</title>
<path fill="none" stroke="#63b8ff" d="M2856.14,-731.06C2842.36,-704.85 2804,-625.58 2804,-555 2804,-555 2804,-555 2804,-487 2804,-411.1 2733.35,-342.45 2697.44,-312.45"/>
<polygon fill="#63b8ff" stroke="#63b8ff" points="2699.86,-309.91 2689.89,-306.32 2695.44,-315.34 2699.86,-309.91"/>
</g>
<!-- Node115&#45;&gt;Node78 -->
<g id="edge162" class="edge">
<title>Node115&#45;&gt;Node78</title>
<path fill="none" stroke="#63b8ff" d="M2812.72,-731.08C2651.13,-701.21 2128.53,-604.63 1933.92,-568.66"/>
<polygon fill="#63b8ff" stroke="#63b8ff" points="1934.65,-565.24 1924.18,-566.86 1933.37,-572.12 1934.65,-565.24"/>
</g>
<!-- Node115&#45;&gt;Node116 -->
<g id="edge155" class="edge">
<title>Node115&#45;&gt;Node116</title>
<path fill="none" stroke="#63b8ff" d="M2867.77,-731.27C2882.29,-712.34 2917.17,-665.82 2942,-624 2993.16,-537.84 3042.96,-429.4 3064.23,-381.57"/>
<polygon fill="#63b8ff" stroke="#63b8ff" points="3067.33,-383.23 3068.17,-372.67 3060.93,-380.4 3067.33,-383.23"/>
</g>
<!-- Node115&#45;&gt;Node118 -->
<g id="edge163" class="edge">
<title>Node115&#45;&gt;Node118</title>
<path fill="none" stroke="#63b8ff" d="M2812.5,-738.09C2702.61,-733.38 2426.33,-719.4 2197,-690 2196.17,-689.89 2195.33,-689.78 2194.49,-689.67"/>
<polygon fill="#63b8ff" stroke="#63b8ff" points="2195.26,-686.25 2184.87,-688.28 2194.26,-693.17 2195.26,-686.25"/>
</g>
<!-- Node116&#45;&gt;Node3 -->
<g id="edge160" class="edge">
<title>Node116&#45;&gt;Node3</title>
<path fill="none" stroke="#63b8ff" d="M3022.15,-344.66C2951.53,-330.91 2822.46,-306.02 2712,-286 2428.87,-234.69 2359.66,-210.56 2074,-176 1864.57,-150.66 1614.35,-138.35 1501.07,-133.74"/>
<polygon fill="#63b8ff" stroke="#63b8ff" points="1501.54,-130.26 1491.4,-133.35 1501.25,-137.25 1501.54,-130.26"/>
</g>
<!-- Node116&#45;&gt;Node5 -->
<g id="edge158" class="edge">
<title>Node116&#45;&gt;Node5</title>
<path fill="none" stroke="#63b8ff" d="M3093.02,-340.54C3125.7,-313.84 3195.95,-254.1 3246,-195 3291.93,-140.76 3335.39,-68.14 3354.63,-34.52"/>
<polygon fill="#63b8ff" stroke="#63b8ff" points="3357.56,-36.44 3359.45,-26.01 3351.47,-32.99 3357.56,-36.44"/>
</g>
<!-- Node116&#45;&gt;Node8 -->
<g id="edge157" class="edge">
<title>Node116&#45;&gt;Node8</title>
<path fill="none" stroke="#63b8ff" d="M3046.09,-340.68C3026.48,-330.86 3000.04,-317.41 2977,-305 2787.57,-202.97 2761.66,-129.23 2556,-66 2447.02,-32.49 2096.74,-20.28 1975.65,-17"/>
<polygon fill="#63b8ff" stroke="#63b8ff" points="1975.93,-13.51 1965.84,-16.74 1975.75,-20.51 1975.93,-13.51"/>
</g>
<!-- Node116&#45;&gt;Node13 -->
<g id="edge156" class="edge">
<title>Node116&#45;&gt;Node13</title>
<path fill="none" stroke="#63b8ff" d="M3045.52,-340.65C3012.94,-322.48 2965,-287.87 2965,-241.5 2965,-241.5 2965,-241.5 2965,-129.5 2965,-98.47 2958.54,-87.32 2936,-66 2909.64,-41.08 2869.44,-28.12 2841.14,-21.71"/>
<polygon fill="#63b8ff" stroke="#63b8ff" points="2842.17,-18.35 2831.66,-19.73 2840.74,-25.2 2842.17,-18.35"/>
</g>
<!-- Node116&#45;&gt;Node64 -->
<g id="edge159" class="edge">
<title>Node116&#45;&gt;Node64</title>
<path fill="none" stroke="#63b8ff" d="M3022.15,-347.23C2940.63,-335.25 2786.17,-312.55 2714.85,-302.06"/>
<polygon fill="#63b8ff" stroke="#63b8ff" points="2715.64,-298.64 2705.23,-300.65 2714.62,-305.57 2715.64,-298.64"/>
</g>
<!-- Node118&#45;&gt;Node3 -->
<g id="edge164" class="edge">
<title>Node118&#45;&gt;Node3</title>
<path fill="none" stroke="#63b8ff" d="M2084.75,-659.56C2047.65,-644.68 1987.33,-621.41 1934,-605 1870.12,-585.35 1845.41,-603.21 1788,-569 1706.64,-520.52 1640.18,-368.78 1550,-231 1534,-206.55 1535.05,-196.26 1514,-176 1501.14,-163.62 1484.23,-153.13 1469.82,-145.45"/>
<polygon fill="#63b8ff" stroke="#63b8ff" points="1471.71,-142.48 1461.21,-141.05 1468.53,-148.72 1471.71,-142.48"/>
</g>
<!-- Node118&#45;&gt;Node17 -->
<g id="edge165" class="edge">
<title>Node118&#45;&gt;Node17</title>
<path fill="none" stroke="#63b8ff" d="M2110.32,-659.63C2100.57,-645.42 2084.89,-623.21 2070,-605 2060.72,-593.65 2049.61,-581.54 2040.63,-572.08"/>
<polygon fill="#63b8ff" stroke="#63b8ff" points="2043.31,-569.81 2033.86,-565.02 2038.26,-574.66 2043.31,-569.81"/>
</g>
<!-- Node118&#45;&gt;Node18 -->
<g id="edge166" class="edge">
<title>Node118&#45;&gt;Node18</title>
<path fill="none" stroke="#63b8ff" d="M2125.33,-659.69C2128.91,-649.76 2133.58,-636.18 2137,-624 2151.89,-570.95 2156.72,-557.62 2164,-503 2176.74,-407.4 2197.24,-375.78 2162,-286 2157.94,-275.67 2150.43,-266.05 2143.15,-258.42"/>
<polygon fill="#63b8ff" stroke="#63b8ff" points="2145.63,-255.95 2136.01,-251.5 2140.76,-260.98 2145.63,-255.95"/>
</g>
<!-- Node118&#45;&gt;Node62 -->
<g id="edge167" class="edge">
<title>Node118&#45;&gt;Node62</title>
<path fill="none" stroke="#63b8ff" d="M2121.13,-659.72C2123.26,-625.88 2125.5,-538.73 2099,-473 2094.11,-460.88 2085.37,-449.24 2077.39,-440.25"/>
<polygon fill="#63b8ff" stroke="#63b8ff" points="2080,-437.91 2070.6,-433.03 2074.9,-442.71 2080,-437.91"/>
</g>
<!-- Node118&#45;&gt;Node99 -->
<g id="edge168" class="edge">
<title>Node118&#45;&gt;Node99</title>
<path fill="none" stroke="#63b8ff" d="M2056.73,-659.76C2011.84,-649.66 1952.39,-636.29 1910.64,-626.89"/>
<polygon fill="#63b8ff" stroke="#63b8ff" points="1911.63,-623.53 1901.1,-624.75 1910.09,-630.36 1911.63,-623.53"/>
</g>
<!-- Node119&#45;&gt;Node3 -->
<g id="edge170" class="edge">
<title>Node119&#45;&gt;Node3</title>
<path fill="none" stroke="#63b8ff" d="M229.32,-406.77C215.04,-384.36 190,-339.01 190,-296.5 190,-296.5 190,-296.5 190,-239.5 190,-204.39 205.94,-192.38 237,-176 287.9,-149.16 1141.82,-135.56 1379.21,-132.29"/>
<polygon fill="#63b8ff" stroke="#63b8ff" points="1378.9,-135.79 1388.85,-132.16 1378.81,-128.8 1378.9,-135.79"/>
</g>
<!-- Node119&#45;&gt;Node120 -->
<g id="edge171" class="edge">
<title>Node119&#45;&gt;Node120</title>
<path fill="none" stroke="#63b8ff" d="M254.54,-406.8C263.51,-398.59 274.98,-388.1 285.08,-378.87"/>
<polygon fill="#63b8ff" stroke="#63b8ff" points="287.37,-381.52 292.39,-372.19 282.65,-376.35 287.37,-381.52"/>
</g>
<!-- Node120&#45;&gt;Node3 -->
<g id="edge173" class="edge">
<title>Node120&#45;&gt;Node3</title>
<path fill="none" stroke="#63b8ff" d="M296.36,-340.8C268.21,-307.47 206.3,-223.45 252,-176 291.4,-135.09 1141.56,-131.63 1378.93,-131.47"/>
<polygon fill="#63b8ff" stroke="#63b8ff" points="1378.58,-134.97 1388.58,-131.46 1378.58,-127.97 1378.58,-134.97"/>
</g>
<!-- Node120&#45;&gt;Node49 -->
<g id="edge174" class="edge">
<title>Node120&#45;&gt;Node49</title>
<path fill="none" stroke="#63b8ff" d="M361.83,-348.63C450.27,-337.96 628.2,-316.5 725.91,-304.71"/>
<polygon fill="#63b8ff" stroke="#63b8ff" points="726.12,-308.21 735.62,-303.54 725.28,-301.26 726.12,-308.21"/>
</g>
<!-- Node120&#45;&gt;Node50 -->
<g id="edge172" class="edge">
<title>Node120&#45;&gt;Node50</title>
<path fill="none" stroke="#63b8ff" d="M313.05,-340.63C318.73,-320.49 329.07,-283.83 335.45,-261.18"/>
<polygon fill="#63b8ff" stroke="#63b8ff" points="338.78,-262.26 338.13,-251.69 332.05,-260.36 338.78,-262.26"/>
</g>
<!-- Node121&#45;&gt;Node3 -->
<g id="edge182" class="edge">
<title>Node121&#45;&gt;Node3</title>
<path fill="none" stroke="#63b8ff" d="M2715.4,-857.04C2488.08,-843.22 1770.3,-792.31 1565,-690 1451.93,-633.65 1364,-615.34 1364,-489 1364,-489 1364,-489 1364,-239.5 1364,-201.18 1396.39,-166.87 1418.88,-147.66"/>
<polygon fill="#63b8ff" stroke="#63b8ff" points="1421.09,-150.38 1426.62,-141.34 1416.66,-144.95 1421.09,-150.38"/>
</g>
<!-- Node121&#45;&gt;Node5 -->
<g id="edge180" class="edge">
<title>Node121&#45;&gt;Node5</title>
<path fill="none" stroke="#63b8ff" d="M2847.29,-852.02C3014.39,-826.2 3460,-745.19 3460,-615.5 3460,-615.5 3460,-615.5 3460,-129.5 3460,-85.79 3418.05,-50.05 3389.91,-30.99"/>
<polygon fill="#63b8ff" stroke="#63b8ff" points="3391.83,-28.07 3381.53,-25.57 3388.02,-33.94 3391.83,-28.07"/>
</g>
<!-- Node121&#45;&gt;Node8 -->
<g id="edge179" class="edge">
<title>Node121&#45;&gt;Node8</title>
<path fill="none" stroke="#63b8ff" d="M2785.39,-852.3C2786.53,-830.58 2790.7,-772.42 2804,-726 2826.91,-646.05 2880,-638.17 2880,-555 2880,-555 2880,-555 2880,-421 2880,-377.08 2855.49,-369.41 2822,-341 2817.63,-337.29 2289.05,-75.37 2259,-66 2160.19,-35.18 2038.31,-22.93 1975.61,-18.41"/>
<polygon fill="#63b8ff" stroke="#63b8ff" points="1975.98,-14.93 1965.76,-17.74 1975.5,-21.91 1975.98,-14.93"/>
</g>
<!-- Node121&#45;&gt;Node13 -->
<g id="edge178" class="edge">
<title>Node121&#45;&gt;Node13</title>
<path fill="none" stroke="#63b8ff" d="M2813.46,-852.1C2837.22,-843.82 2871.25,-829.9 2897,-811 3075.95,-679.67 3139.25,-640.46 3228,-437 3284.24,-308.06 3299.24,-251.21 3246,-121 3233.04,-89.29 3222.67,-81.27 3192,-66 3130.69,-35.47 2923.71,-21.86 2841.79,-17.58"/>
<polygon fill="#63b8ff" stroke="#63b8ff" points="2842.09,-14.09 2831.93,-17.08 2841.74,-21.08 2842.09,-14.09"/>
</g>
<!-- Node121&#45;&gt;Node64 -->
<g id="edge181" class="edge">
<title>Node121&#45;&gt;Node64</title>
<path fill="none" stroke="#63b8ff" d="M2805.55,-852.07C2836.65,-837.29 2894.52,-804.45 2918,-756 2923.81,-744 2920.77,-739.04 2918,-726 2900.74,-644.64 2842,-638.17 2842,-555 2842,-555 2842,-555 2842,-421 2842,-357.58 2763.36,-322.39 2714.66,-306.68"/>
<polygon fill="#63b8ff" stroke="#63b8ff" points="2715.91,-303.4 2705.32,-303.8 2713.85,-310.09 2715.91,-303.4"/>
</g>
<!-- Node121&#45;&gt;Node91 -->
<g id="edge184" class="edge">
<title>Node121&#45;&gt;Node91</title>
<path fill="none" stroke="#63b8ff" d="M2715.3,-858.28C2463.32,-848.43 1601.47,-814.75 1354.58,-805.1"/>
<polygon fill="#63b8ff" stroke="#63b8ff" points="1354.94,-801.61 1344.81,-804.72 1354.66,-808.61 1354.94,-801.61"/>
</g>
<!-- Node121&#45;&gt;Node113 -->
<g id="edge183" class="edge">
<title>Node121&#45;&gt;Node113</title>
<path fill="none" stroke="#63b8ff" d="M2715.2,-857.95C2583.4,-851.82 2288.93,-836.38 2042,-811 1887.02,-795.07 1706.06,-767.81 1610.69,-752.76"/>
<polygon fill="#63b8ff" stroke="#63b8ff" points="1611.41,-749.33 1600.98,-751.23 1610.31,-756.25 1611.41,-749.33"/>
</g>
<!-- Node121&#45;&gt;Node115 -->
<g id="edge185" class="edge">
<title>Node121&#45;&gt;Node115</title>
<path fill="none" stroke="#63b8ff" d="M2790.71,-852.06C2803.15,-832.58 2832.9,-786 2849.43,-760.12"/>
<polygon fill="#63b8ff" stroke="#63b8ff" points="2852.18,-762.31 2854.61,-752 2846.28,-758.54 2852.18,-762.31"/>
</g>
</g>
</svg>
