<?xml version="1.0" encoding="UTF-8" standalone="no"?>
<!DOCTYPE svg PUBLIC "-//W3C//DTD SVG 1.1//EN"
 "http://www.w3.org/Graphics/SVG/1.1/DTD/svg11.dtd">
<!-- Generated by graphviz version 2.43.0 (0)
 -->
<!-- Title: Kratos::UnaryReshapeExpression Pages: 1 -->
<svg width="187pt" height="259pt"
 viewBox="0.00 0.00 187.00 259.00" xmlns="http://www.w3.org/2000/svg" xmlns:xlink="http://www.w3.org/1999/xlink">
<g id="graph0" class="graph" transform="scale(1 1) rotate(0) translate(4 255)">
<title>Kratos::UnaryReshapeExpression</title>
<!-- Node1 -->
<g id="node1" class="node">
<title>Node1</title>
<g id="a_node1"><a xlink:title="Used to create lazy expression to reshape given expression to a new shape.">
<polygon fill="#bfbfbf" stroke="black" points="0,-0.5 0,-156.5 179,-156.5 179,-0.5 0,-0.5"/>
<text text-anchor="middle" x="89.5" y="-144.5" font-family="Helvetica,sans-Serif" font-size="10.00">Kratos::UnaryReshapeExpression</text>
<polyline fill="none" stroke="black" points="0,-137.5 179,-137.5 "/>
<text text-anchor="start" x="8" y="-125.5" font-family="Helvetica,sans-Serif" font-size="10.00"># mpSourceExpression</text>
<text text-anchor="start" x="8" y="-114.5" font-family="Helvetica,sans-Serif" font-size="10.00"># mShape</text>
<polyline fill="none" stroke="black" points="0,-107.5 179,-107.5 "/>
<text text-anchor="start" x="8" y="-95.5" font-family="Helvetica,sans-Serif" font-size="10.00">+ UnaryReshapeExpression()</text>
<text text-anchor="start" x="8" y="-84.5" font-family="Helvetica,sans-Serif" font-size="10.00">* IndexType</text>
<text text-anchor="start" x="8" y="-73.5" font-family="Helvetica,sans-Serif" font-size="10.00">* mpSourceExpression</text>
<text text-anchor="start" x="8" y="-62.5" font-family="Helvetica,sans-Serif" font-size="10.00">* mShape</text>
<text text-anchor="start" x="8" y="-51.5" font-family="Helvetica,sans-Serif" font-size="10.00">* UnaryReshapeExpression()</text>
<text text-anchor="start" x="8" y="-40.5" font-family="Helvetica,sans-Serif" font-size="10.00">* Evaluate()</text>
<text text-anchor="start" x="8" y="-29.5" font-family="Helvetica,sans-Serif" font-size="10.00">* GetItemShape()</text>
<text text-anchor="start" x="8" y="-18.5" font-family="Helvetica,sans-Serif" font-size="10.00">* Info()</text>
<text text-anchor="start" x="8" y="-7.5" font-family="Helvetica,sans-Serif" font-size="10.00">* Create()</text>
</a>
</g>
</g>
<!-- Node2 -->
<g id="node2" class="node">
<title>Node2</title>
<g id="a_node2"><a xlink:title=" ">
<polygon fill="none" stroke="#bfbfbf" points="54.5,-193.5 54.5,-250.5 124.5,-250.5 124.5,-193.5 54.5,-193.5"/>
<text text-anchor="middle" x="89.5" y="-238.5" font-family="Helvetica,sans-Serif" font-size="10.00">Expression</text>
<polyline fill="none" stroke="#bfbfbf" points="54.5,-231.5 124.5,-231.5 "/>
<text text-anchor="middle" x="89.5" y="-219.5" font-family="Helvetica,sans-Serif" font-size="10.00"> </text>
<polyline fill="none" stroke="#bfbfbf" points="54.5,-212.5 124.5,-212.5 "/>
<text text-anchor="middle" x="89.5" y="-200.5" font-family="Helvetica,sans-Serif" font-size="10.00"> </text>
</a>
</g>
</g>
<!-- Node2&#45;&gt;Node1 -->
<g id="edge1" class="edge">
<title>Node2&#45;&gt;Node1</title>
<path fill="none" stroke="midnightblue" d="M89.5,-183.34C89.5,-175.04 89.5,-165.96 89.5,-156.74"/>
<polygon fill="none" stroke="midnightblue" points="86,-183.38 89.5,-193.38 93,-183.38 86,-183.38"/>
</g>
</g>
</svg>
