<?xml version="1.0" encoding="UTF-8" standalone="no"?>
<!DOCTYPE svg PUBLIC "-//W3C//DTD SVG 1.1//EN"
 "http://www.w3.org/Graphics/SVG/1.1/DTD/svg11.dtd">
<!-- Generated by graphviz version 7.1.0 (0)
 -->
<!-- Title: /software/kratos/doxygen/applications/TrilinosApplication/external_includes/amgcl_mpi_solver_impl.cpp Pages: 1 -->
<svg width="3947pt" height="324pt"
 viewBox="0.00 0.00 3946.50 324.00" xmlns="http://www.w3.org/2000/svg" xmlns:xlink="http://www.w3.org/1999/xlink">
<g id="graph0" class="graph" transform="scale(1 1) rotate(0) translate(4 320)">
<title>/software/kratos/doxygen/applications/TrilinosApplication/external_includes/amgcl_mpi_solver_impl.cpp</title>
<!-- Node1 -->
<g id="node1" class="node">
<title>Node1</title>
<g id="a_node1"><a xlink:title=" ">
<polygon fill="#999999" stroke="#666666" points="1173,-316 1002,-316 1002,-264 1173,-264 1173,-316"/>
<text text-anchor="start" x="1010" y="-304" font-family="Helvetica,sans-Serif" font-size="10.00">/software/kratos/doxygen</text>
<text text-anchor="start" x="1010" y="-293" font-family="Helvetica,sans-Serif" font-size="10.00">/applications/TrilinosApplication</text>
<text text-anchor="start" x="1010" y="-282" font-family="Helvetica,sans-Serif" font-size="10.00">/external_includes/amgcl_mpi</text>
<text text-anchor="middle" x="1087.5" y="-271" font-family="Helvetica,sans-Serif" font-size="10.00">_solver_impl.cpp</text>
</a>
</g>
</g>
<!-- Node2 -->
<g id="node2" class="node">
<title>Node2</title>
<g id="a_node2"><a xlink:title=" ">
<polygon fill="#e0e0e0" stroke="#999999" points="113,-228 0,-228 0,-198 113,-198 113,-228"/>
<text text-anchor="start" x="8" y="-216" font-family="Helvetica,sans-Serif" font-size="10.00">boost/range/iterator</text>
<text text-anchor="middle" x="56.5" y="-205" font-family="Helvetica,sans-Serif" font-size="10.00">_range.hpp</text>
</a>
</g>
</g>
<!-- Node1&#45;&gt;Node2 -->
<g id="edge1" class="edge">
<title>Node1&#45;&gt;Node2</title>
<path fill="none" stroke="#63b8ff" d="M1001.79,-287.87C834.57,-284.73 453.11,-272.99 124.66,-228.31"/>
<polygon fill="#63b8ff" stroke="#63b8ff" points="125.37,-224.88 114.98,-226.98 124.41,-231.81 125.37,-224.88"/>
</g>
<!-- Node3 -->
<g id="node3" class="node">
<title>Node3</title>
<g id="a_node3"><a xlink:title=" ">
<polygon fill="#e0e0e0" stroke="#999999" points="244,-228 131,-228 131,-198 244,-198 244,-228"/>
<text text-anchor="start" x="139" y="-216" font-family="Helvetica,sans-Serif" font-size="10.00">boost/property_tree</text>
<text text-anchor="middle" x="187.5" y="-205" font-family="Helvetica,sans-Serif" font-size="10.00">/ptree.hpp</text>
</a>
</g>
</g>
<!-- Node1&#45;&gt;Node3 -->
<g id="edge2" class="edge">
<title>Node1&#45;&gt;Node3</title>
<path fill="none" stroke="#63b8ff" d="M1001.73,-286.67C851.96,-281.74 532.98,-267.41 255.58,-228.32"/>
<polygon fill="#63b8ff" stroke="#63b8ff" points="256.38,-224.9 245.99,-226.96 255.39,-231.83 256.38,-224.9"/>
</g>
<!-- Node4 -->
<g id="node4" class="node">
<title>Node4</title>
<g id="a_node4"><a xlink:title=" ">
<polygon fill="#e0e0e0" stroke="#999999" points="417,-222.5 262,-222.5 262,-203.5 417,-203.5 417,-222.5"/>
<text text-anchor="middle" x="339.5" y="-210.5" font-family="Helvetica,sans-Serif" font-size="10.00">amgcl/adapter/crs_tuple.hpp</text>
</a>
</g>
</g>
<!-- Node1&#45;&gt;Node4 -->
<g id="edge3" class="edge">
<title>Node1&#45;&gt;Node4</title>
<path fill="none" stroke="#63b8ff" d="M1001.6,-283C875.15,-273.74 631.59,-254.24 425.5,-228 417.85,-227.03 409.84,-225.88 401.91,-224.68"/>
<polygon fill="#63b8ff" stroke="#63b8ff" points="402.72,-221.27 392.3,-223.18 401.64,-228.18 402.72,-221.27"/>
</g>
<!-- Node5 -->
<g id="node5" class="node">
<title>Node5</title>
<g id="a_node5"><a xlink:title=" ">
<polygon fill="#e0e0e0" stroke="#999999" points="578,-222.5 435,-222.5 435,-203.5 578,-203.5 578,-222.5"/>
<text text-anchor="middle" x="506.5" y="-210.5" font-family="Helvetica,sans-Serif" font-size="10.00">amgcl/adapter/epetra.hpp</text>
</a>
</g>
</g>
<!-- Node1&#45;&gt;Node5 -->
<g id="edge4" class="edge">
<title>Node1&#45;&gt;Node5</title>
<path fill="none" stroke="#63b8ff" d="M1001.77,-279.94C901.86,-269.06 731.9,-249.56 586.5,-228 580.07,-227.05 573.35,-225.98 566.67,-224.88"/>
<polygon fill="#63b8ff" stroke="#63b8ff" points="567.45,-221.46 557,-223.24 566.28,-228.36 567.45,-221.46"/>
</g>
<!-- Node6 -->
<g id="node6" class="node">
<title>Node6</title>
<g id="a_node6"><a xlink:title=" ">
<polygon fill="#e0e0e0" stroke="#999999" points="733,-222.5 596,-222.5 596,-203.5 733,-203.5 733,-222.5"/>
<text text-anchor="middle" x="664.5" y="-210.5" font-family="Helvetica,sans-Serif" font-size="10.00">amgcl/adapter/ublas.hpp</text>
</a>
</g>
</g>
<!-- Node1&#45;&gt;Node6 -->
<g id="edge5" class="edge">
<title>Node1&#45;&gt;Node6</title>
<path fill="none" stroke="#63b8ff" d="M1001.81,-274.02C931.78,-261.75 830.21,-243.88 741.5,-228 735.96,-227.01 730.19,-225.97 724.42,-224.93"/>
<polygon fill="#63b8ff" stroke="#63b8ff" points="725.33,-221.53 714.86,-223.2 724.08,-228.42 725.33,-221.53"/>
</g>
<!-- Node7 -->
<g id="node7" class="node">
<title>Node7</title>
<g id="a_node7"><a xlink:title=" ">
<polygon fill="#e0e0e0" stroke="#999999" points="862,-228 751,-228 751,-198 862,-198 862,-228"/>
<text text-anchor="start" x="759" y="-216" font-family="Helvetica,sans-Serif" font-size="10.00">amgcl/adapter/zero</text>
<text text-anchor="middle" x="806.5" y="-205" font-family="Helvetica,sans-Serif" font-size="10.00">_copy.hpp</text>
</a>
</g>
</g>
<!-- Node1&#45;&gt;Node7 -->
<g id="edge6" class="edge">
<title>Node1&#45;&gt;Node7</title>
<path fill="none" stroke="#63b8ff" d="M1001.66,-266.09C959.8,-254.92 910.26,-241.69 871.57,-231.37"/>
<polygon fill="#63b8ff" stroke="#63b8ff" points="872.47,-227.99 861.91,-228.79 870.67,-234.75 872.47,-227.99"/>
</g>
<!-- Node8 -->
<g id="node8" class="node">
<title>Node8</title>
<g id="a_node8"><a xlink:title=" ">
<polygon fill="#e0e0e0" stroke="#999999" points="996.5,-228 880.5,-228 880.5,-198 996.5,-198 996.5,-228"/>
<text text-anchor="start" x="888.5" y="-216" font-family="Helvetica,sans-Serif" font-size="10.00">amgcl/adapter/block</text>
<text text-anchor="middle" x="938.5" y="-205" font-family="Helvetica,sans-Serif" font-size="10.00">_matrix.hpp</text>
</a>
</g>
</g>
<!-- Node1&#45;&gt;Node8 -->
<g id="edge7" class="edge">
<title>Node1&#45;&gt;Node8</title>
<path fill="none" stroke="#63b8ff" d="M1037.06,-263.61C1017.58,-253.8 995.64,-242.76 977.42,-233.59"/>
<polygon fill="#63b8ff" stroke="#63b8ff" points="979.02,-230.48 968.51,-229.11 975.87,-236.73 979.02,-230.48"/>
</g>
<!-- Node9 -->
<g id="node9" class="node">
<title>Node9</title>
<g id="a_node9"><a xlink:title=" ">
<polygon fill="#e0e0e0" stroke="#999999" points="1160,-222.5 1015,-222.5 1015,-203.5 1160,-203.5 1160,-222.5"/>
<text text-anchor="middle" x="1087.5" y="-210.5" font-family="Helvetica,sans-Serif" font-size="10.00">amgcl/backend/builtin.hpp</text>
</a>
</g>
</g>
<!-- Node1&#45;&gt;Node9 -->
<g id="edge8" class="edge">
<title>Node1&#45;&gt;Node9</title>
<path fill="none" stroke="#63b8ff" d="M1087.5,-263.61C1087.5,-254.02 1087.5,-243.25 1087.5,-234.2"/>
<polygon fill="#63b8ff" stroke="#63b8ff" points="1091,-234.37 1087.5,-224.37 1084,-234.37 1091,-234.37"/>
</g>
<!-- Node10 -->
<g id="node10" class="node">
<title>Node10</title>
<g id="a_node10"><a xlink:title=" ">
<polygon fill="#e0e0e0" stroke="#999999" points="1312.5,-228 1178.5,-228 1178.5,-198 1312.5,-198 1312.5,-228"/>
<text text-anchor="start" x="1186.5" y="-216" font-family="Helvetica,sans-Serif" font-size="10.00">amgcl/value_type/static</text>
<text text-anchor="middle" x="1245.5" y="-205" font-family="Helvetica,sans-Serif" font-size="10.00">_matrix.hpp</text>
</a>
</g>
</g>
<!-- Node1&#45;&gt;Node10 -->
<g id="edge9" class="edge">
<title>Node1&#45;&gt;Node10</title>
<path fill="none" stroke="#63b8ff" d="M1140.99,-263.61C1161.84,-253.71 1185.34,-242.56 1204.77,-233.33"/>
<polygon fill="#63b8ff" stroke="#63b8ff" points="1206.21,-236.53 1213.74,-229.08 1203.2,-230.2 1206.21,-236.53"/>
</g>
<!-- Node11 -->
<g id="node11" class="node">
<title>Node11</title>
<g id="a_node11"><a xlink:title=" ">
<polygon fill="#e0e0e0" stroke="#999999" points="1438.5,-222.5 1330.5,-222.5 1330.5,-203.5 1438.5,-203.5 1438.5,-222.5"/>
<text text-anchor="middle" x="1384.5" y="-210.5" font-family="Helvetica,sans-Serif" font-size="10.00">amgcl/mpi/util.hpp</text>
</a>
</g>
</g>
<!-- Node1&#45;&gt;Node11 -->
<g id="edge10" class="edge">
<title>Node1&#45;&gt;Node11</title>
<path fill="none" stroke="#63b8ff" d="M1173.4,-267.31C1227.15,-253.74 1294.28,-236.78 1338.21,-225.69"/>
<polygon fill="#63b8ff" stroke="#63b8ff" points="1338.83,-229.14 1347.67,-223.3 1337.12,-222.36 1338.83,-229.14"/>
</g>
<!-- Node12 -->
<g id="node12" class="node">
<title>Node12</title>
<g id="a_node12"><a xlink:title=" ">
<polygon fill="#e0e0e0" stroke="#999999" points="1610.5,-222.5 1456.5,-222.5 1456.5,-203.5 1610.5,-203.5 1610.5,-222.5"/>
<text text-anchor="middle" x="1533.5" y="-210.5" font-family="Helvetica,sans-Serif" font-size="10.00">amgcl/mpi/make_solver.hpp</text>
</a>
</g>
</g>
<!-- Node1&#45;&gt;Node12 -->
<g id="edge11" class="edge">
<title>Node1&#45;&gt;Node12</title>
<path fill="none" stroke="#63b8ff" d="M1173.49,-274.54C1259.99,-259.99 1391.38,-237.9 1469.21,-224.81"/>
<polygon fill="#63b8ff" stroke="#63b8ff" points="1469.52,-228.31 1478.8,-223.2 1468.36,-221.4 1469.52,-228.31"/>
</g>
<!-- Node13 -->
<g id="node13" class="node">
<title>Node13</title>
<g id="a_node13"><a xlink:title=" ">
<polygon fill="#e0e0e0" stroke="#999999" points="1790.5,-222.5 1628.5,-222.5 1628.5,-203.5 1790.5,-203.5 1790.5,-222.5"/>
<text text-anchor="middle" x="1709.5" y="-210.5" font-family="Helvetica,sans-Serif" font-size="10.00">amgcl/mpi/preconditioner.hpp</text>
</a>
</g>
</g>
<!-- Node1&#45;&gt;Node13 -->
<g id="edge12" class="edge">
<title>Node1&#45;&gt;Node13</title>
<path fill="none" stroke="#63b8ff" d="M1173.32,-280.23C1278.59,-269.23 1462.42,-249.21 1619.5,-228 1627.17,-226.96 1635.19,-225.81 1643.16,-224.63"/>
<polygon fill="#63b8ff" stroke="#63b8ff" points="1643.48,-228.12 1652.84,-223.17 1642.43,-221.2 1643.48,-228.12"/>
</g>
<!-- Node14 -->
<g id="node14" class="node">
<title>Node14</title>
<g id="a_node14"><a xlink:title=" ">
<polygon fill="#e0e0e0" stroke="#999999" points="1972.5,-222.5 1808.5,-222.5 1808.5,-203.5 1972.5,-203.5 1972.5,-222.5"/>
<text text-anchor="middle" x="1890.5" y="-210.5" font-family="Helvetica,sans-Serif" font-size="10.00">amgcl/mpi/solver/runtime.hpp</text>
</a>
</g>
</g>
<!-- Node1&#45;&gt;Node14 -->
<g id="edge13" class="edge">
<title>Node1&#45;&gt;Node14</title>
<path fill="none" stroke="#63b8ff" d="M1173.45,-283.51C1307.47,-274.52 1574.22,-254.95 1799.5,-228 1807.78,-227.01 1816.46,-225.84 1825.03,-224.61"/>
<polygon fill="#63b8ff" stroke="#63b8ff" points="1825.33,-228.11 1834.71,-223.18 1824.31,-221.18 1825.33,-228.11"/>
</g>
<!-- Node15 -->
<g id="node15" class="node">
<title>Node15</title>
<g id="a_node15"><a xlink:href="../../da/d5f/trilinos__space_8h.html" target="_top" xlink:title=" ">
<polygon fill="white" stroke="#666666" points="2084,-222.5 1991,-222.5 1991,-203.5 2084,-203.5 2084,-222.5"/>
<text text-anchor="middle" x="2037.5" y="-210.5" font-family="Helvetica,sans-Serif" font-size="10.00">trilinos_space.h</text>
</a>
</g>
</g>
<!-- Node1&#45;&gt;Node15 -->
<g id="edge14" class="edge">
<title>Node1&#45;&gt;Node15</title>
<path fill="none" stroke="#63b8ff" d="M1173.43,-288.18C1333.42,-285.53 1687.42,-274.42 1981.5,-228 1985.83,-227.32 1990.32,-226.46 1994.78,-225.5"/>
<polygon fill="#63b8ff" stroke="#63b8ff" points="1995.28,-228.98 2004.24,-223.32 1993.71,-222.16 1995.28,-228.98"/>
</g>
<!-- Node164 -->
<g id="node47" class="node">
<title>Node164</title>
<g id="a_node47"><a xlink:href="../../db/dec/trilinos__solver__utilities_8h.html" target="_top" xlink:title=" ">
<polygon fill="white" stroke="#666666" points="3345,-228 3214,-228 3214,-198 3345,-198 3345,-228"/>
<text text-anchor="start" x="3222" y="-216" font-family="Helvetica,sans-Serif" font-size="10.00">custom_utilities/trilinos</text>
<text text-anchor="middle" x="3279.5" y="-205" font-family="Helvetica,sans-Serif" font-size="10.00">_solver_utilities.h</text>
</a>
</g>
</g>
<!-- Node1&#45;&gt;Node164 -->
<g id="edge56" class="edge">
<title>Node1&#45;&gt;Node164</title>
<path fill="none" stroke="#63b8ff" d="M1173.43,-286.06C1526.99,-273.96 2866.6,-228.13 3202.67,-216.63"/>
<polygon fill="#63b8ff" stroke="#63b8ff" points="3202.34,-220.14 3212.21,-216.3 3202.1,-213.15 3202.34,-220.14"/>
</g>
<!-- Node16 -->
<g id="node16" class="node">
<title>Node16</title>
<g id="a_node16"><a xlink:title=" ">
<polygon fill="#e0e0e0" stroke="#999999" points="907,-156.5 812,-156.5 812,-137.5 907,-137.5 907,-156.5"/>
<text text-anchor="middle" x="859.5" y="-144.5" font-family="Helvetica,sans-Serif" font-size="10.00">Epetra_Import.h</text>
</a>
</g>
</g>
<!-- Node15&#45;&gt;Node16 -->
<g id="edge15" class="edge">
<title>Node15&#45;&gt;Node16</title>
<path fill="none" stroke="#63b8ff" d="M2006.63,-203.04C1998.52,-201.03 1989.74,-199.16 1981.5,-198 1512.05,-132.15 1384.95,-227.85 915.5,-162 910.87,-161.35 906.06,-160.47 901.3,-159.47"/>
<polygon fill="#63b8ff" stroke="#63b8ff" points="902.38,-156.13 891.85,-157.3 900.81,-162.95 902.38,-156.13"/>
</g>
<!-- Node17 -->
<g id="node17" class="node">
<title>Node17</title>
<g id="a_node17"><a xlink:title=" ">
<polygon fill="#e0e0e0" stroke="#999999" points="1038,-156.5 925,-156.5 925,-137.5 1038,-137.5 1038,-156.5"/>
<text text-anchor="middle" x="981.5" y="-144.5" font-family="Helvetica,sans-Serif" font-size="10.00">Epetra_MpiComm.h</text>
</a>
</g>
</g>
<!-- Node15&#45;&gt;Node17 -->
<g id="edge16" class="edge">
<title>Node15&#45;&gt;Node17</title>
<path fill="none" stroke="#63b8ff" d="M2006.62,-203.07C1998.52,-201.06 1989.73,-199.17 1981.5,-198 1569.81,-139.26 1459.1,-213.98 1046.5,-162 1040.78,-161.28 1034.81,-160.31 1028.92,-159.21"/>
<polygon fill="#63b8ff" stroke="#63b8ff" points="1029.73,-155.8 1019.23,-157.27 1028.35,-162.66 1029.73,-155.8"/>
</g>
<!-- Node18 -->
<g id="node18" class="node">
<title>Node18</title>
<g id="a_node18"><a xlink:title=" ">
<polygon fill="#e0e0e0" stroke="#999999" points="1139,-156.5 1056,-156.5 1056,-137.5 1139,-137.5 1139,-156.5"/>
<text text-anchor="middle" x="1097.5" y="-144.5" font-family="Helvetica,sans-Serif" font-size="10.00">Epetra_Map.h</text>
</a>
</g>
</g>
<!-- Node15&#45;&gt;Node18 -->
<g id="edge17" class="edge">
<title>Node15&#45;&gt;Node18</title>
<path fill="none" stroke="#63b8ff" d="M2006.33,-203.02C1998.3,-201.04 1989.63,-199.18 1981.5,-198 1614.77,-144.79 1514.59,-219.41 1148.5,-162 1144.66,-161.4 1140.71,-160.61 1136.77,-159.72"/>
<polygon fill="#63b8ff" stroke="#63b8ff" points="1137.86,-156.39 1127.31,-157.36 1136.17,-163.18 1137.86,-156.39"/>
</g>
<!-- Node19 -->
<g id="node19" class="node">
<title>Node19</title>
<g id="a_node19"><a xlink:title=" ">
<polygon fill="#e0e0e0" stroke="#999999" points="1249.5,-156.5 1157.5,-156.5 1157.5,-137.5 1249.5,-137.5 1249.5,-156.5"/>
<text text-anchor="middle" x="1203.5" y="-144.5" font-family="Helvetica,sans-Serif" font-size="10.00">Epetra_Vector.h</text>
</a>
</g>
</g>
<!-- Node15&#45;&gt;Node19 -->
<g id="edge18" class="edge">
<title>Node15&#45;&gt;Node19</title>
<path fill="none" stroke="#63b8ff" d="M2006.32,-203.06C1998.3,-201.08 1989.63,-199.21 1981.5,-198 1663.26,-150.76 1576.64,-209.92 1258.5,-162 1254.13,-161.34 1249.6,-160.48 1245.11,-159.52"/>
<polygon fill="#63b8ff" stroke="#63b8ff" points="1246.12,-156.16 1235.59,-157.29 1244.53,-162.98 1246.12,-156.16"/>
</g>
<!-- Node20 -->
<g id="node20" class="node">
<title>Node20</title>
<g id="a_node20"><a xlink:title=" ">
<polygon fill="#e0e0e0" stroke="#999999" points="1371.5,-156.5 1267.5,-156.5 1267.5,-137.5 1371.5,-137.5 1371.5,-156.5"/>
<text text-anchor="middle" x="1319.5" y="-144.5" font-family="Helvetica,sans-Serif" font-size="10.00">Epetra_FEVector.h</text>
</a>
</g>
</g>
<!-- Node15&#45;&gt;Node20 -->
<g id="edge19" class="edge">
<title>Node15&#45;&gt;Node20</title>
<path fill="none" stroke="#63b8ff" d="M2006.02,-203.05C1998.08,-201.09 1989.52,-199.23 1981.5,-198 1717.01,-157.38 1645.37,-200.06 1380.5,-162 1375.53,-161.29 1370.36,-160.37 1365.23,-159.35"/>
<polygon fill="#63b8ff" stroke="#63b8ff" points="1366.14,-155.97 1355.63,-157.31 1364.69,-162.82 1366.14,-155.97"/>
</g>
<!-- Node21 -->
<g id="node21" class="node">
<title>Node21</title>
<g id="a_node21"><a xlink:title=" ">
<polygon fill="#e0e0e0" stroke="#999999" points="1511.5,-156.5 1389.5,-156.5 1389.5,-137.5 1511.5,-137.5 1511.5,-156.5"/>
<text text-anchor="middle" x="1450.5" y="-144.5" font-family="Helvetica,sans-Serif" font-size="10.00">Epetra_FECrsMatrix.h</text>
</a>
</g>
</g>
<!-- Node15&#45;&gt;Node21 -->
<g id="edge20" class="edge">
<title>Node15&#45;&gt;Node21</title>
<path fill="none" stroke="#63b8ff" d="M2005.41,-203C1997.64,-201.09 1989.31,-199.27 1981.5,-198 1778.66,-164.96 1724.07,-190.2 1520.5,-162 1514.52,-161.17 1508.27,-160.15 1502.08,-159.04"/>
<polygon fill="#63b8ff" stroke="#63b8ff" points="1503.04,-155.66 1492.56,-157.25 1501.74,-162.54 1503.04,-155.66"/>
</g>
<!-- Node22 -->
<g id="node22" class="node">
<title>Node22</title>
<g id="a_node22"><a xlink:title=" ">
<polygon fill="#e0e0e0" stroke="#999999" points="1693.5,-156.5 1529.5,-156.5 1529.5,-137.5 1693.5,-137.5 1693.5,-156.5"/>
<text text-anchor="middle" x="1611.5" y="-144.5" font-family="Helvetica,sans-Serif" font-size="10.00">Epetra_IntSerialDenseVector.h</text>
</a>
</g>
</g>
<!-- Node15&#45;&gt;Node22 -->
<g id="edge21" class="edge">
<title>Node15&#45;&gt;Node22</title>
<path fill="none" stroke="#63b8ff" d="M2004.48,-203.07C1996.96,-201.22 1988.98,-199.41 1981.5,-198 1858.64,-174.8 1826.3,-179.51 1702.5,-162 1695.06,-160.95 1687.28,-159.81 1679.53,-158.65"/>
<polygon fill="#63b8ff" stroke="#63b8ff" points="1680.17,-155.21 1669.76,-157.18 1679.13,-162.13 1680.17,-155.21"/>
</g>
<!-- Node23 -->
<g id="node23" class="node">
<title>Node23</title>
<g id="a_node23"><a xlink:title=" ">
<polygon fill="#e0e0e0" stroke="#999999" points="1863.5,-156.5 1711.5,-156.5 1711.5,-137.5 1863.5,-137.5 1863.5,-156.5"/>
<text text-anchor="middle" x="1787.5" y="-144.5" font-family="Helvetica,sans-Serif" font-size="10.00">Epetra_SerialDenseMatrix.h</text>
</a>
</g>
</g>
<!-- Node15&#45;&gt;Node23 -->
<g id="edge22" class="edge">
<title>Node15&#45;&gt;Node23</title>
<path fill="none" stroke="#63b8ff" d="M2002.48,-203.03C1958.22,-191.7 1881.95,-172.18 1833.16,-159.69"/>
<polygon fill="#63b8ff" stroke="#63b8ff" points="1834.31,-156.37 1823.75,-157.28 1832.57,-163.15 1834.31,-156.37"/>
</g>
<!-- Node24 -->
<g id="node24" class="node">
<title>Node24</title>
<g id="a_node24"><a xlink:title=" ">
<polygon fill="#e0e0e0" stroke="#999999" points="2033,-156.5 1882,-156.5 1882,-137.5 2033,-137.5 2033,-156.5"/>
<text text-anchor="middle" x="1957.5" y="-144.5" font-family="Helvetica,sans-Serif" font-size="10.00">Epetra_SerialDenseVector.h</text>
</a>
</g>
</g>
<!-- Node15&#45;&gt;Node24 -->
<g id="edge23" class="edge">
<title>Node15&#45;&gt;Node24</title>
<path fill="none" stroke="#63b8ff" d="M2026.38,-203.1C2013.72,-192.98 1992.8,-176.24 1977.33,-163.87"/>
<polygon fill="#63b8ff" stroke="#63b8ff" points="1979.71,-161.28 1969.71,-157.77 1975.33,-166.75 1979.71,-161.28"/>
</g>
<!-- Node25 -->
<g id="node25" class="node">
<title>Node25</title>
<g id="a_node25"><a xlink:title=" ">
<polygon fill="#e0e0e0" stroke="#999999" points="2185.5,-156.5 2051.5,-156.5 2051.5,-137.5 2185.5,-137.5 2185.5,-156.5"/>
<text text-anchor="middle" x="2118.5" y="-144.5" font-family="Helvetica,sans-Serif" font-size="10.00">EpetraExt_CrsMatrixIn.h</text>
</a>
</g>
</g>
<!-- Node15&#45;&gt;Node25 -->
<g id="edge24" class="edge">
<title>Node15&#45;&gt;Node25</title>
<path fill="none" stroke="#63b8ff" d="M2048.76,-203.1C2061.58,-192.98 2082.76,-176.24 2098.42,-163.87"/>
<polygon fill="#63b8ff" stroke="#63b8ff" points="2100.47,-166.71 2106.15,-157.76 2096.13,-161.22 2100.47,-166.71"/>
</g>
<!-- Node26 -->
<g id="node26" class="node">
<title>Node26</title>
<g id="a_node26"><a xlink:title=" ">
<polygon fill="#e0e0e0" stroke="#999999" points="2467.5,-156.5 2349.5,-156.5 2349.5,-137.5 2467.5,-137.5 2467.5,-156.5"/>
<text text-anchor="middle" x="2408.5" y="-144.5" font-family="Helvetica,sans-Serif" font-size="10.00">EpetraExt_VectorIn.h</text>
</a>
</g>
</g>
<!-- Node15&#45;&gt;Node26 -->
<g id="edge25" class="edge">
<title>Node15&#45;&gt;Node26</title>
<path fill="none" stroke="#63b8ff" d="M2084.32,-204.86C2143.93,-195.64 2250.07,-178.76 2340.5,-162 2345.17,-161.13 2350.01,-160.2 2354.86,-159.25"/>
<polygon fill="#63b8ff" stroke="#63b8ff" points="2355.51,-162.69 2364.63,-157.29 2354.13,-155.83 2355.51,-162.69"/>
</g>
<!-- Node27 -->
<g id="node27" class="node">
<title>Node27</title>
<g id="a_node27"><a xlink:title=" ">
<polygon fill="#e0e0e0" stroke="#999999" points="2633.5,-156.5 2485.5,-156.5 2485.5,-137.5 2633.5,-137.5 2633.5,-156.5"/>
<text text-anchor="middle" x="2559.5" y="-144.5" font-family="Helvetica,sans-Serif" font-size="10.00">EpetraExt_RowMatrixOut.h</text>
</a>
</g>
</g>
<!-- Node15&#45;&gt;Node27 -->
<g id="edge26" class="edge">
<title>Node15&#45;&gt;Node27</title>
<path fill="none" stroke="#63b8ff" d="M2084.38,-207.49C2164.79,-199.58 2334.08,-182.11 2476.5,-162 2483.43,-161.02 2490.68,-159.92 2497.87,-158.77"/>
<polygon fill="#63b8ff" stroke="#63b8ff" points="2498.29,-162.25 2507.6,-157.19 2497.17,-155.34 2498.29,-162.25"/>
</g>
<!-- Node28 -->
<g id="node28" class="node">
<title>Node28</title>
<g id="a_node28"><a xlink:title=" ">
<polygon fill="#e0e0e0" stroke="#999999" points="2803,-156.5 2652,-156.5 2652,-137.5 2803,-137.5 2803,-156.5"/>
<text text-anchor="middle" x="2727.5" y="-144.5" font-family="Helvetica,sans-Serif" font-size="10.00">EpetraExt_MultiVectorOut.h</text>
</a>
</g>
</g>
<!-- Node15&#45;&gt;Node28 -->
<g id="edge27" class="edge">
<title>Node15&#45;&gt;Node28</title>
<path fill="none" stroke="#63b8ff" d="M2084.31,-209.42C2186.11,-203.54 2435.13,-187.6 2642.5,-162 2650.17,-161.05 2658.2,-159.92 2666.14,-158.71"/>
<polygon fill="#63b8ff" stroke="#63b8ff" points="2666.43,-162.21 2675.76,-157.2 2665.34,-155.29 2666.43,-162.21"/>
</g>
<!-- Node29 -->
<g id="node29" class="node">
<title>Node29</title>
<g id="a_node29"><a xlink:title=" ">
<polygon fill="#e0e0e0" stroke="#999999" points="2962,-156.5 2821,-156.5 2821,-137.5 2962,-137.5 2962,-156.5"/>
<text text-anchor="middle" x="2891.5" y="-144.5" font-family="Helvetica,sans-Serif" font-size="10.00">EpetraExt_MatrixMatrix.h</text>
</a>
</g>
</g>
<!-- Node15&#45;&gt;Node29 -->
<g id="edge28" class="edge">
<title>Node15&#45;&gt;Node29</title>
<path fill="none" stroke="#63b8ff" d="M2084.4,-210.79C2205.38,-207.27 2537.75,-195.1 2812.5,-162 2819.75,-161.13 2827.35,-160.02 2834.85,-158.82"/>
<polygon fill="#63b8ff" stroke="#63b8ff" points="2835.32,-162.29 2844.6,-157.19 2834.16,-155.39 2835.32,-162.29"/>
</g>
<!-- Node30 -->
<g id="node30" class="node">
<title>Node30</title>
<g id="a_node30"><a xlink:href="../../d9/d3e/ublas__interface_8h.html" target="_top" xlink:title=" ">
<polygon fill="#fff0f0" stroke="red" points="3378.5,-90.5 3234.5,-90.5 3234.5,-71.5 3378.5,-71.5 3378.5,-90.5"/>
<text text-anchor="middle" x="3306.5" y="-78.5" font-family="Helvetica,sans-Serif" font-size="10.00">includes/ublas_interface.h</text>
</a>
</g>
</g>
<!-- Node15&#45;&gt;Node30 -->
<g id="edge29" class="edge">
<title>Node15&#45;&gt;Node30</title>
<path fill="none" stroke="#63b8ff" d="M2084.28,-211.46C2286.7,-208.93 3081.6,-196.82 3187.5,-162 3227.67,-148.79 3266.92,-117.89 3288.79,-98.59"/>
<polygon fill="#63b8ff" stroke="#63b8ff" points="3291.12,-101.2 3296.18,-91.9 3286.42,-96.01 3291.12,-101.2"/>
</g>
<!-- Node60 -->
<g id="node42" class="node">
<title>Node60</title>
<g id="a_node42"><a xlink:href="../../d2/daf/ublas__space_8h.html" target="_top" xlink:title=" ">
<polygon fill="#fff0f0" stroke="red" points="3178.5,-156.5 3056.5,-156.5 3056.5,-137.5 3178.5,-137.5 3178.5,-156.5"/>
<text text-anchor="middle" x="3117.5" y="-144.5" font-family="Helvetica,sans-Serif" font-size="10.00">spaces/ublas_space.h</text>
</a>
</g>
</g>
<!-- Node15&#45;&gt;Node60 -->
<g id="edge41" class="edge">
<title>Node15&#45;&gt;Node60</title>
<path fill="none" stroke="#63b8ff" d="M2084.38,-210.77C2224.37,-206.83 2651.57,-192.95 3004.5,-162 3017.58,-160.85 3031.47,-159.36 3044.88,-157.78"/>
<polygon fill="#63b8ff" stroke="#63b8ff" points="3045,-161.29 3054.5,-156.61 3044.16,-154.34 3045,-161.29"/>
</g>
<!-- Node92 -->
<g id="node43" class="node">
<title>Node92</title>
<g id="a_node43"><a xlink:href="../../d9/dd1/data__communicator_8h.html" target="_top" xlink:title=" ">
<polygon fill="#fff0f0" stroke="red" points="2461.5,-90.5 2295.5,-90.5 2295.5,-71.5 2461.5,-71.5 2461.5,-90.5"/>
<text text-anchor="middle" x="2378.5" y="-78.5" font-family="Helvetica,sans-Serif" font-size="10.00">includes/data_communicator.h</text>
</a>
</g>
</g>
<!-- Node15&#45;&gt;Node92 -->
<g id="edge44" class="edge">
<title>Node15&#45;&gt;Node92</title>
<path fill="none" stroke="#63b8ff" d="M2006.63,-203.03C1998.52,-201.02 1989.74,-199.14 1981.5,-198 1916.59,-189 848.12,-209.04 802.5,-162 793.22,-152.43 793.22,-141.58 802.5,-132 828.39,-105.28 1947.57,-87.87 2283.89,-83.24"/>
<polygon fill="#63b8ff" stroke="#63b8ff" points="2283.58,-86.75 2293.53,-83.11 2283.49,-79.75 2283.58,-86.75"/>
</g>
<!-- Node161 -->
<g id="node44" class="node">
<title>Node161</title>
<g id="a_node44"><a xlink:href="../../dc/d95/mpi__data__communicator_8h.html" target="_top" xlink:title=" ">
<polygon fill="white" stroke="#666666" points="2331.5,-162 2203.5,-162 2203.5,-132 2331.5,-132 2331.5,-162"/>
<text text-anchor="start" x="2211.5" y="-150" font-family="Helvetica,sans-Serif" font-size="10.00">mpi/includes/mpi_data</text>
<text text-anchor="middle" x="2267.5" y="-139" font-family="Helvetica,sans-Serif" font-size="10.00">_communicator.h</text>
</a>
</g>
</g>
<!-- Node15&#45;&gt;Node161 -->
<g id="edge48" class="edge">
<title>Node15&#45;&gt;Node161</title>
<path fill="none" stroke="#63b8ff" d="M2069.48,-203.1C2104.3,-193.41 2160.86,-177.67 2204.64,-165.49"/>
<polygon fill="#63b8ff" stroke="#63b8ff" points="2205.32,-168.94 2214.01,-162.88 2203.44,-162.19 2205.32,-168.94"/>
</g>
<!-- Node163 -->
<g id="node46" class="node">
<title>Node163</title>
<g id="a_node46"><a xlink:href="../../dd/d8e/trilinos__dof__updater_8h.html" target="_top" xlink:title=" ">
<polygon fill="#fff0f0" stroke="red" points="3048,-96 2917,-96 2917,-66 3048,-66 3048,-96"/>
<text text-anchor="start" x="2925" y="-84" font-family="Helvetica,sans-Serif" font-size="10.00">custom_utilities/trilinos</text>
<text text-anchor="middle" x="2982.5" y="-73" font-family="Helvetica,sans-Serif" font-size="10.00">_dof_updater.h</text>
</a>
</g>
</g>
<!-- Node15&#45;&gt;Node163 -->
<g id="edge54" class="edge">
<title>Node15&#45;&gt;Node163</title>
<path fill="none" stroke="#63b8ff" d="M2084.19,-211.14C2268.68,-207.52 2938.54,-192.32 2971.5,-162 2986.09,-148.58 2987.92,-125.58 2986.63,-107.68"/>
<polygon fill="#63b8ff" stroke="#63b8ff" points="2990.11,-107.34 2985.53,-97.79 2983.16,-108.11 2990.11,-107.34"/>
</g>
<!-- Node31 -->
<g id="node31" class="node">
<title>Node31</title>
<g id="a_node31"><a xlink:title=" ">
<polygon fill="#e0e0e0" stroke="#999999" points="2400.5,-24.5 2356.5,-24.5 2356.5,-5.5 2400.5,-5.5 2400.5,-24.5"/>
<text text-anchor="middle" x="2378.5" y="-12.5" font-family="Helvetica,sans-Serif" font-size="10.00">string</text>
</a>
</g>
</g>
<!-- Node30&#45;&gt;Node31 -->
<g id="edge30" class="edge">
<title>Node30&#45;&gt;Node31</title>
<path fill="none" stroke="#63b8ff" d="M3234.31,-75.91C3031.47,-64.41 2469.85,-32.44 2450.5,-30 2437.77,-28.4 2423.9,-25.89 2411.76,-23.43"/>
<polygon fill="#63b8ff" stroke="#63b8ff" points="2412.74,-20.06 2402.24,-21.44 2411.31,-26.91 2412.74,-20.06"/>
</g>
<!-- Node32 -->
<g id="node32" class="node">
<title>Node32</title>
<g id="a_node32"><a xlink:title=" ">
<polygon fill="#e0e0e0" stroke="#999999" points="2519.5,-24.5 2459.5,-24.5 2459.5,-5.5 2519.5,-5.5 2519.5,-24.5"/>
<text text-anchor="middle" x="2489.5" y="-12.5" font-family="Helvetica,sans-Serif" font-size="10.00">iostream</text>
</a>
</g>
</g>
<!-- Node30&#45;&gt;Node32 -->
<g id="edge31" class="edge">
<title>Node30&#45;&gt;Node32</title>
<path fill="none" stroke="#63b8ff" d="M3234.36,-74.35C3068.16,-61.33 2662.53,-29.55 2531.24,-19.27"/>
<polygon fill="#63b8ff" stroke="#63b8ff" points="2531.52,-15.78 2521.28,-18.49 2530.97,-22.76 2531.52,-15.78"/>
</g>
<!-- Node33 -->
<g id="node33" class="node">
<title>Node33</title>
<g id="a_node33"><a xlink:title=" ">
<polygon fill="#e0e0e0" stroke="#999999" points="3938.5,-30 3822.5,-30 3822.5,0 3938.5,0 3938.5,-30"/>
<text text-anchor="start" x="3830.5" y="-18" font-family="Helvetica,sans-Serif" font-size="10.00">boost/numeric/ublas</text>
<text text-anchor="middle" x="3880.5" y="-7" font-family="Helvetica,sans-Serif" font-size="10.00">/matrix.hpp</text>
</a>
</g>
</g>
<!-- Node30&#45;&gt;Node33 -->
<g id="edge32" class="edge">
<title>Node30&#45;&gt;Node33</title>
<path fill="none" stroke="#63b8ff" d="M3378.59,-75.34C3474.96,-68.58 3651.27,-54.29 3811.11,-30.26"/>
<polygon fill="#63b8ff" stroke="#63b8ff" points="3811.25,-33.78 3820.61,-28.82 3810.19,-26.86 3811.25,-33.78"/>
</g>
<!-- Node34 -->
<g id="node34" class="node">
<title>Node34</title>
<g id="a_node34"><a xlink:title=" ">
<polygon fill="#e0e0e0" stroke="#999999" points="2986.5,-30 2870.5,-30 2870.5,0 2986.5,0 2986.5,-30"/>
<text text-anchor="start" x="2878.5" y="-18" font-family="Helvetica,sans-Serif" font-size="10.00">boost/numeric/ublas</text>
<text text-anchor="middle" x="2928.5" y="-7" font-family="Helvetica,sans-Serif" font-size="10.00">/vector.hpp</text>
</a>
</g>
</g>
<!-- Node30&#45;&gt;Node34 -->
<g id="edge33" class="edge">
<title>Node30&#45;&gt;Node34</title>
<path fill="none" stroke="#63b8ff" d="M3251.45,-71.02C3241.16,-69.34 3230.51,-67.61 3220.5,-66 3124.04,-50.43 3096.97,-48.49 2998.04,-30.42"/>
<polygon fill="#63b8ff" stroke="#63b8ff" points="2998.89,-27.02 2988.42,-28.65 2997.63,-33.9 2998.89,-27.02"/>
</g>
<!-- Node35 -->
<g id="node35" class="node">
<title>Node35</title>
<g id="a_node35"><a xlink:title=" ">
<polygon fill="#e0e0e0" stroke="#999999" points="3120.5,-30 3004.5,-30 3004.5,0 3120.5,0 3120.5,-30"/>
<text text-anchor="start" x="3012.5" y="-18" font-family="Helvetica,sans-Serif" font-size="10.00">boost/numeric/ublas</text>
<text text-anchor="middle" x="3062.5" y="-7" font-family="Helvetica,sans-Serif" font-size="10.00">/vector_proxy.hpp</text>
</a>
</g>
</g>
<!-- Node30&#45;&gt;Node35 -->
<g id="edge34" class="edge">
<title>Node30&#45;&gt;Node35</title>
<path fill="none" stroke="#63b8ff" d="M3272.32,-71.03C3235.16,-61.29 3174.89,-45.48 3128.45,-33.3"/>
<polygon fill="#63b8ff" stroke="#63b8ff" points="3129.6,-29.98 3119.04,-30.83 3127.82,-36.75 3129.6,-29.98"/>
</g>
<!-- Node36 -->
<g id="node36" class="node">
<title>Node36</title>
<g id="a_node36"><a xlink:title=" ">
<polygon fill="#e0e0e0" stroke="#999999" points="3254.5,-30 3138.5,-30 3138.5,0 3254.5,0 3254.5,-30"/>
<text text-anchor="start" x="3146.5" y="-18" font-family="Helvetica,sans-Serif" font-size="10.00">boost/numeric/ublas</text>
<text text-anchor="middle" x="3196.5" y="-7" font-family="Helvetica,sans-Serif" font-size="10.00">/vector_sparse.hpp</text>
</a>
</g>
</g>
<!-- Node30&#45;&gt;Node36 -->
<g id="edge35" class="edge">
<title>Node30&#45;&gt;Node36</title>
<path fill="none" stroke="#63b8ff" d="M3291.2,-71.1C3275.75,-62.11 3251.34,-47.91 3231.18,-36.18"/>
<polygon fill="#63b8ff" stroke="#63b8ff" points="3233.1,-33.24 3222.69,-31.24 3229.57,-39.29 3233.1,-33.24"/>
</g>
<!-- Node37 -->
<g id="node37" class="node">
<title>Node37</title>
<g id="a_node37"><a xlink:title=" ">
<polygon fill="#e0e0e0" stroke="#999999" points="3402.5,-30 3272.5,-30 3272.5,0 3402.5,0 3402.5,-30"/>
<text text-anchor="start" x="3280.5" y="-18" font-family="Helvetica,sans-Serif" font-size="10.00">boost/numeric/ublas</text>
<text text-anchor="middle" x="3337.5" y="-7" font-family="Helvetica,sans-Serif" font-size="10.00">/vector_expression.hpp</text>
</a>
</g>
</g>
<!-- Node30&#45;&gt;Node37 -->
<g id="edge36" class="edge">
<title>Node30&#45;&gt;Node37</title>
<path fill="none" stroke="#63b8ff" d="M3310.81,-71.1C3314.65,-63.17 3320.46,-51.18 3325.68,-40.4"/>
<polygon fill="#63b8ff" stroke="#63b8ff" points="3328.74,-42.12 3329.95,-31.6 3322.44,-39.07 3328.74,-42.12"/>
</g>
<!-- Node38 -->
<g id="node38" class="node">
<title>Node38</title>
<g id="a_node38"><a xlink:title=" ">
<polygon fill="#e0e0e0" stroke="#999999" points="3536.5,-30 3420.5,-30 3420.5,0 3536.5,0 3536.5,-30"/>
<text text-anchor="start" x="3428.5" y="-18" font-family="Helvetica,sans-Serif" font-size="10.00">boost/numeric/ublas</text>
<text text-anchor="middle" x="3478.5" y="-7" font-family="Helvetica,sans-Serif" font-size="10.00">/matrix_proxy.hpp</text>
</a>
</g>
</g>
<!-- Node30&#45;&gt;Node38 -->
<g id="edge37" class="edge">
<title>Node30&#45;&gt;Node38</title>
<path fill="none" stroke="#63b8ff" d="M3330.42,-71.1C3355.79,-61.66 3396.61,-46.47 3428.98,-34.43"/>
<polygon fill="#63b8ff" stroke="#63b8ff" points="3430.02,-37.77 3438.17,-31.01 3427.58,-31.21 3430.02,-37.77"/>
</g>
<!-- Node39 -->
<g id="node39" class="node">
<title>Node39</title>
<g id="a_node39"><a xlink:title=" ">
<polygon fill="#e0e0e0" stroke="#999999" points="3670.5,-30 3554.5,-30 3554.5,0 3670.5,0 3670.5,-30"/>
<text text-anchor="start" x="3562.5" y="-18" font-family="Helvetica,sans-Serif" font-size="10.00">boost/numeric/ublas</text>
<text text-anchor="middle" x="3612.5" y="-7" font-family="Helvetica,sans-Serif" font-size="10.00">/symmetric.hpp</text>
</a>
</g>
</g>
<!-- Node30&#45;&gt;Node39 -->
<g id="edge38" class="edge">
<title>Node30&#45;&gt;Node39</title>
<path fill="none" stroke="#63b8ff" d="M3349.37,-71.03C3399.59,-60.53 3483.49,-42.98 3543.04,-30.53"/>
<polygon fill="#63b8ff" stroke="#63b8ff" points="3543.68,-33.97 3552.75,-28.5 3542.24,-27.12 3543.68,-33.97"/>
</g>
<!-- Node40 -->
<g id="node40" class="node">
<title>Node40</title>
<g id="a_node40"><a xlink:title=" ">
<polygon fill="#e0e0e0" stroke="#999999" points="3804.5,-30 3688.5,-30 3688.5,0 3804.5,0 3804.5,-30"/>
<text text-anchor="start" x="3696.5" y="-18" font-family="Helvetica,sans-Serif" font-size="10.00">boost/numeric/ublas</text>
<text text-anchor="middle" x="3746.5" y="-7" font-family="Helvetica,sans-Serif" font-size="10.00">/hermitian.hpp</text>
</a>
</g>
</g>
<!-- Node30&#45;&gt;Node40 -->
<g id="edge39" class="edge">
<title>Node30&#45;&gt;Node40</title>
<path fill="none" stroke="#63b8ff" d="M3378.94,-71.87C3451.77,-63.34 3567.5,-48.82 3676.84,-30.38"/>
<polygon fill="#63b8ff" stroke="#63b8ff" points="3677.32,-33.85 3686.59,-28.72 3676.14,-26.95 3677.32,-33.85"/>
</g>
<!-- Node48 -->
<g id="node41" class="node">
<title>Node48</title>
<g id="a_node41"><a xlink:href="../../df/d67/define_8h.html" target="_top" xlink:title=" ">
<polygon fill="#fff0f0" stroke="red" points="2852,-24.5 2753,-24.5 2753,-5.5 2852,-5.5 2852,-24.5"/>
<text text-anchor="middle" x="2802.5" y="-12.5" font-family="Helvetica,sans-Serif" font-size="10.00">includes/define.h</text>
</a>
</g>
</g>
<!-- Node30&#45;&gt;Node48 -->
<g id="edge40" class="edge">
<title>Node30&#45;&gt;Node48</title>
<path fill="none" stroke="#63b8ff" d="M3254.73,-71.04C3243.47,-69.24 3231.6,-67.46 3220.5,-66 3061.51,-45.11 3019.64,-56.57 2861.5,-30 2857.13,-29.27 2852.6,-28.39 2848.08,-27.45"/>
<polygon fill="#63b8ff" stroke="#63b8ff" points="2848.97,-24.06 2838.45,-25.32 2847.46,-30.9 2848.97,-24.06"/>
</g>
<!-- Node60&#45;&gt;Node30 -->
<g id="edge43" class="edge">
<title>Node60&#45;&gt;Node30</title>
<path fill="none" stroke="#63b8ff" d="M3143.78,-137.1C3176.41,-126.05 3232.28,-107.13 3269.3,-94.6"/>
<polygon fill="#63b8ff" stroke="#63b8ff" points="3270.36,-97.93 3278.71,-91.41 3268.11,-91.3 3270.36,-97.93"/>
</g>
<!-- Node60&#45;&gt;Node48 -->
<g id="edge42" class="edge">
<title>Node60&#45;&gt;Node48</title>
<path fill="none" stroke="#63b8ff" d="M3113.56,-137.05C3105.62,-120.15 3085.99,-83.64 3057.5,-66 2982.2,-19.37 2948.17,-48.23 2861.5,-30 2857.73,-29.21 2853.83,-28.35 2849.92,-27.48"/>
<polygon fill="#63b8ff" stroke="#63b8ff" points="2850.95,-24.12 2840.42,-25.29 2849.38,-30.94 2850.95,-24.12"/>
</g>
<!-- Node92&#45;&gt;Node31 -->
<g id="edge45" class="edge">
<title>Node92&#45;&gt;Node31</title>
<path fill="none" stroke="#63b8ff" d="M2378.5,-71.1C2378.5,-62.12 2378.5,-47.95 2378.5,-36.22"/>
<polygon fill="#63b8ff" stroke="#63b8ff" points="2382,-36.34 2378.5,-26.34 2375,-36.34 2382,-36.34"/>
</g>
<!-- Node92&#45;&gt;Node32 -->
<g id="edge46" class="edge">
<title>Node92&#45;&gt;Node32</title>
<path fill="none" stroke="#63b8ff" d="M2393.93,-71.1C2412.16,-60.59 2442.73,-42.97 2464.38,-30.49"/>
<polygon fill="#63b8ff" stroke="#63b8ff" points="2465.97,-33.61 2472.89,-25.58 2462.47,-27.54 2465.97,-33.61"/>
</g>
<!-- Node92&#45;&gt;Node48 -->
<g id="edge47" class="edge">
<title>Node92&#45;&gt;Node48</title>
<path fill="none" stroke="#63b8ff" d="M2437.9,-71.03C2518.22,-58.91 2660.71,-37.4 2741.73,-25.17"/>
<polygon fill="#63b8ff" stroke="#63b8ff" points="2741.88,-28.69 2751.25,-23.74 2740.84,-21.77 2741.88,-28.69"/>
</g>
<!-- Node161&#45;&gt;Node31 -->
<g id="edge49" class="edge">
<title>Node161&#45;&gt;Node31</title>
<path fill="none" stroke="#63b8ff" d="M2267.5,-131.51C2268.21,-114.23 2271.75,-85.27 2286.5,-66 2301.23,-46.75 2325.56,-33.99 2345.51,-26.18"/>
<polygon fill="#63b8ff" stroke="#63b8ff" points="2346.43,-29.57 2354.63,-22.86 2344.03,-23 2346.43,-29.57"/>
</g>
<!-- Node161&#45;&gt;Node32 -->
<g id="edge50" class="edge">
<title>Node161&#45;&gt;Node32</title>
<path fill="none" stroke="#63b8ff" d="M2331.93,-133.62C2387.57,-122.37 2460.55,-106.03 2470.5,-96 2486.11,-80.26 2489.77,-54.19 2490.24,-36.11"/>
<polygon fill="#63b8ff" stroke="#63b8ff" points="2493.74,-36.34 2490.16,-26.36 2486.74,-36.39 2493.74,-36.34"/>
</g>
<!-- Node161&#45;&gt;Node48 -->
<g id="edge52" class="edge">
<title>Node161&#45;&gt;Node48</title>
<path fill="none" stroke="#63b8ff" d="M2331.84,-132.21C2376.68,-122.46 2437.84,-108.89 2491.5,-96 2586.73,-73.13 2697.72,-43.97 2757.99,-27.93"/>
<polygon fill="#63b8ff" stroke="#63b8ff" points="2758.77,-31.34 2767.53,-25.39 2756.97,-24.58 2758.77,-31.34"/>
</g>
<!-- Node161&#45;&gt;Node92 -->
<g id="edge53" class="edge">
<title>Node161&#45;&gt;Node92</title>
<path fill="none" stroke="#63b8ff" d="M2292.41,-131.64C2310.47,-121.22 2334.82,-107.19 2353.01,-96.7"/>
<polygon fill="#63b8ff" stroke="#63b8ff" points="2354.69,-99.77 2361.6,-91.74 2351.19,-93.7 2354.69,-99.77"/>
</g>
<!-- Node162 -->
<g id="node45" class="node">
<title>Node162</title>
<g id="a_node45"><a xlink:title=" ">
<polygon fill="#e0e0e0" stroke="#999999" points="2882.5,-90.5 2838.5,-90.5 2838.5,-71.5 2882.5,-71.5 2882.5,-90.5"/>
<text text-anchor="middle" x="2860.5" y="-78.5" font-family="Helvetica,sans-Serif" font-size="10.00">mpi.h</text>
</a>
</g>
</g>
<!-- Node161&#45;&gt;Node162 -->
<g id="edge51" class="edge">
<title>Node161&#45;&gt;Node162</title>
<path fill="none" stroke="#63b8ff" d="M2331.93,-133.3C2334.82,-132.84 2337.69,-132.4 2340.5,-132 2435.19,-118.4 2726.92,-93.26 2826.66,-84.84"/>
<polygon fill="#63b8ff" stroke="#63b8ff" points="2826.93,-88.33 2836.6,-84 2826.34,-81.35 2826.93,-88.33"/>
</g>
<!-- Node163&#45;&gt;Node48 -->
<g id="edge55" class="edge">
<title>Node163&#45;&gt;Node48</title>
<path fill="none" stroke="#63b8ff" d="M2942.1,-65.64C2911.04,-54.59 2868.51,-39.47 2838.58,-28.83"/>
<polygon fill="#63b8ff" stroke="#63b8ff" points="2839.79,-25.55 2829.2,-25.49 2837.45,-32.14 2839.79,-25.55"/>
</g>
<!-- Node164&#45;&gt;Node48 -->
<g id="edge60" class="edge">
<title>Node164&#45;&gt;Node48</title>
<path fill="none" stroke="#63b8ff" d="M3266.22,-197.53C3237.11,-166.92 3164.1,-95.98 3086.5,-66 2992.04,-29.5 2960.84,-49.7 2861.5,-30 2857.5,-29.21 2853.35,-28.33 2849.2,-27.42"/>
<polygon fill="#63b8ff" stroke="#63b8ff" points="2850.29,-24.08 2839.76,-25.28 2848.74,-30.9 2850.29,-24.08"/>
</g>
<!-- Node164&#45;&gt;Node162 -->
<g id="edge58" class="edge">
<title>Node164&#45;&gt;Node162</title>
<path fill="none" stroke="#63b8ff" d="M3213.62,-201.29C3166.7,-192.81 3102.46,-179.5 3047.5,-162 3016.8,-152.23 2934.87,-115.75 2890.33,-95.59"/>
<polygon fill="#63b8ff" stroke="#63b8ff" points="2892.06,-92.53 2881.51,-91.59 2889.17,-98.91 2892.06,-92.53"/>
</g>
<!-- Node165 -->
<g id="node48" class="node">
<title>Node165</title>
<g id="a_node48"><a xlink:title=" ">
<polygon fill="#e0e0e0" stroke="#999999" points="3601,-156.5 3452,-156.5 3452,-137.5 3601,-137.5 3601,-156.5"/>
<text text-anchor="middle" x="3526.5" y="-144.5" font-family="Helvetica,sans-Serif" font-size="10.00">Teuchos_ParameterList.hpp</text>
</a>
</g>
</g>
<!-- Node164&#45;&gt;Node165 -->
<g id="edge57" class="edge">
<title>Node164&#45;&gt;Node165</title>
<path fill="none" stroke="#63b8ff" d="M3335.24,-197.56C3379.2,-186.17 3439.75,-170.48 3480.86,-159.83"/>
<polygon fill="#63b8ff" stroke="#63b8ff" points="3481.64,-163.24 3490.44,-157.34 3479.89,-156.46 3481.64,-163.24"/>
</g>
<!-- Node166 -->
<g id="node49" class="node">
<title>Node166</title>
<g id="a_node49"><a xlink:title=" ">
<polygon fill="#e0e0e0" stroke="#999999" points="3714,-156.5 3619,-156.5 3619,-137.5 3714,-137.5 3714,-156.5"/>
<text text-anchor="middle" x="3666.5" y="-144.5" font-family="Helvetica,sans-Serif" font-size="10.00">Epetra_Comm.h</text>
</a>
</g>
</g>
<!-- Node164&#45;&gt;Node166 -->
<g id="edge59" class="edge">
<title>Node164&#45;&gt;Node166</title>
<path fill="none" stroke="#63b8ff" d="M3345.45,-203.92C3412.48,-195.26 3519.18,-180.27 3610.5,-162 3614.25,-161.25 3618.13,-160.41 3622.01,-159.53"/>
<polygon fill="#63b8ff" stroke="#63b8ff" points="3622.46,-163.02 3631.39,-157.31 3620.85,-156.21 3622.46,-163.02"/>
</g>
<!-- Node148 -->
<g id="node50" class="node">
<title>Node148</title>
<g id="a_node50"><a xlink:href="../../db/d71/kratos__parameters_8h.html" target="_top" xlink:title=" ">
<polygon fill="#fff0f0" stroke="red" points="3434,-156.5 3273,-156.5 3273,-137.5 3434,-137.5 3434,-156.5"/>
<text text-anchor="middle" x="3353.5" y="-144.5" font-family="Helvetica,sans-Serif" font-size="10.00">includes/kratos_parameters.h</text>
</a>
</g>
</g>
<!-- Node164&#45;&gt;Node148 -->
<g id="edge61" class="edge">
<title>Node164&#45;&gt;Node148</title>
<path fill="none" stroke="#63b8ff" d="M3295.92,-197.8C3307.46,-187.82 3322.91,-174.46 3334.9,-164.09"/>
<polygon fill="#63b8ff" stroke="#63b8ff" points="3336.85,-167.02 3342.13,-157.83 3332.28,-161.73 3336.85,-167.02"/>
</g>
<!-- Node148&#45;&gt;Node30 -->
<g id="edge62" class="edge">
<title>Node148&#45;&gt;Node30</title>
<path fill="none" stroke="#63b8ff" d="M3346.96,-137.1C3339.95,-127.55 3328.62,-112.11 3319.72,-100.01"/>
<polygon fill="#63b8ff" stroke="#63b8ff" points="3322.62,-98.03 3313.88,-92.04 3316.97,-102.18 3322.62,-98.03"/>
</g>
</g>
</svg>
