<?xml version="1.0" encoding="UTF-8" standalone="no"?>
<!DOCTYPE svg PUBLIC "-//W3C//DTD SVG 1.1//EN"
 "http://www.w3.org/Graphics/SVG/1.1/DTD/svg11.dtd">
<!-- Generated by graphviz version 2.43.0 (0)
 -->
<!-- Title: /home/runner/work/Documentation/Documentation/master/applications/ConstitutiveLawsApplication/custom_constitutive/auxiliary_files/yield_surfaces/modified_mohr_coulomb_yield_surface.h Pages: 1 -->
<!--zoomable 272 -->
<svg id="main" version="1.1" xmlns="http://www.w3.org/2000/svg" xmlns:xlink="http://www.w3.org/1999/xlink" xml:space="preserve" onload="init(evt)">
<style type="text/css"><![CDATA[
.edge:hover path { stroke: red; }
.edge:hover polygon { stroke: red; fill: red; }
]]></style>
<script type="text/javascript"><![CDATA[
var edges = document.getElementsByTagName('g');
if (edges && edges.length) {
  for (var i=0;i<edges.length;i++) {
    if (edges[i].id.substr(0,4)=='edge') {
      edges[i].setAttribute('class','edge');
    }
  }
}
]]></script>
        <defs>
                <circle id="rim" cx="0" cy="0" r="7"/>
                <circle id="rim2" cx="0" cy="0" r="3.5"/>
                <g id="zoomPlus">
                        <use xlink:href="#rim" fill="#404040">
                                <set attributeName="fill" to="#808080" begin="zoomplus.mouseover" end="zoomplus.mouseout"/>
                        </use>
                        <path d="M-4,0h8M0,-4v8" fill="none" stroke="white" stroke-width="1.5" pointer-events="none"/>
                </g>
                <g id="zoomMin">
                        <use xlink:href="#rim" fill="#404040">
                                <set attributeName="fill" to="#808080" begin="zoomminus.mouseover" end="zoomminus.mouseout"/>
                        </use>
                        <path d="M-4,0h8" fill="none" stroke="white" stroke-width="1.5" pointer-events="none"/>
                </g>
                <g id="dirArrow">
                        <path fill="none" stroke="white" stroke-width="1.5" d="M0,-3.0v7 M-2.5,-0.5L0,-3.0L2.5,-0.5"/>
                </g>
               <g id="resetDef">
                       <use xlink:href="#rim2" fill="#404040">
                               <set attributeName="fill" to="#808080" begin="reset.mouseover" end="reset.mouseout"/>
                       </use>
               </g>
        </defs>

<script type="text/javascript">
var viewWidth = 3510;
var viewHeight = 272;
var sectionId = 'dynsection-1';
</script>
<script xlink:href="../../svgpan.js"/>
<svg id="graph" class="graph">
<g id="viewport">
<title>/home/runner/work/Documentation/Documentation/master/applications/ConstitutiveLawsApplication/custom_constitutive/auxiliary_files/yield_surfaces/modified_mohr_coulomb_yield_surface.h</title>
<!-- Node1 -->
<g id="node1" class="node">
<title>Node1</title>
<g id="a_node1"><a xlink:title=" ">
<polygon fill="#bfbfbf" stroke="black" points="1644.5,-200.5 1644.5,-263.5 1910.5,-263.5 1910.5,-200.5 1644.5,-200.5"/>
<text text-anchor="start" x="1652.5" y="-251.5" font-family="Helvetica,sans-Serif" font-size="10.00">/home/runner/work/Documentation</text>
<text text-anchor="start" x="1652.5" y="-240.5" font-family="Helvetica,sans-Serif" font-size="10.00">/Documentation/master/applications</text>
<text text-anchor="start" x="1652.5" y="-229.5" font-family="Helvetica,sans-Serif" font-size="10.00">/ConstitutiveLawsApplication/custom</text>
<text text-anchor="start" x="1652.5" y="-218.5" font-family="Helvetica,sans-Serif" font-size="10.00">_constitutive/auxiliary_files/yield</text>
<text text-anchor="middle" x="1777.5" y="-207.5" font-family="Helvetica,sans-Serif" font-size="10.00">_surfaces/modified_mohr_coulomb_yield_surface.h</text>
</a>
</g>
</g>
<!-- Node2 -->
<g id="node2" class="node">
<title>Node2</title>
<g id="a_node2"><a xlink:href="../../dc/d99/constitutive__laws__application_8h.html" target="_top" xlink:title=" ">
<polygon fill="none" stroke="black" points="0,-100.5 0,-152.5 219,-152.5 219,-100.5 0,-100.5"/>
<text text-anchor="start" x="8" y="-140.5" font-family="Helvetica,sans-Serif" font-size="10.00">/home/runner/work/Documentation</text>
<text text-anchor="start" x="8" y="-129.5" font-family="Helvetica,sans-Serif" font-size="10.00">/Documentation/master/applications</text>
<text text-anchor="start" x="8" y="-118.5" font-family="Helvetica,sans-Serif" font-size="10.00">/ConstitutiveLawsApplication/constitutive</text>
<text text-anchor="middle" x="109.5" y="-107.5" font-family="Helvetica,sans-Serif" font-size="10.00">_laws_application.h</text>
</a>
</g>
</g>
<!-- Node1&#45;&gt;Node2 -->
<g id="edge1" class="edge">
<title>Node1&#45;&gt;Node2</title>
<path fill="none" stroke="midnightblue" d="M1634.21,-229.45C1303.75,-225.13 496.06,-210.04 228.5,-164 212.74,-161.29 196.15,-157.09 180.52,-152.5"/>
<polygon fill="midnightblue" stroke="midnightblue" points="1634.29,-232.95 1644.33,-229.58 1634.38,-225.95 1634.29,-232.95"/>
</g>
<!-- Node4 -->
<g id="node4" class="node">
<title>Node4</title>
<g id="a_node4"><a xlink:href="../../d2/d76/generic__finite__strain__isotropic__plasticity_8cpp.html" target="_top" xlink:title=" ">
<polygon fill="none" stroke="black" points="237,-95 237,-158 472,-158 472,-95 237,-95"/>
<text text-anchor="start" x="245" y="-146" font-family="Helvetica,sans-Serif" font-size="10.00">/home/runner/work/Documentation</text>
<text text-anchor="start" x="245" y="-135" font-family="Helvetica,sans-Serif" font-size="10.00">/Documentation/master/applications</text>
<text text-anchor="start" x="245" y="-124" font-family="Helvetica,sans-Serif" font-size="10.00">/ConstitutiveLawsApplication/custom</text>
<text text-anchor="start" x="245" y="-113" font-family="Helvetica,sans-Serif" font-size="10.00">_constitutive/finite_strains/plasticity</text>
<text text-anchor="middle" x="354.5" y="-102" font-family="Helvetica,sans-Serif" font-size="10.00">/generic_finite_strain_isotropic_plasticity.cpp</text>
</a>
</g>
</g>
<!-- Node1&#45;&gt;Node4 -->
<g id="edge3" class="edge">
<title>Node1&#45;&gt;Node4</title>
<path fill="none" stroke="midnightblue" d="M1634.23,-227.71C1344.82,-220.4 699.53,-200.47 481.5,-164 472,-162.41 462.19,-160.36 452.44,-158.04"/>
<polygon fill="midnightblue" stroke="midnightblue" points="1634.29,-231.22 1644.37,-227.97 1634.46,-224.22 1634.29,-231.22"/>
</g>
<!-- Node5 -->
<g id="node5" class="node">
<title>Node5</title>
<g id="a_node5"><a xlink:href="../../da/d98/generic__finite__strain__kinematic__plasticity_8cpp.html" target="_top" xlink:title=" ">
<polygon fill="none" stroke="black" points="490.5,-95 490.5,-158 732.5,-158 732.5,-95 490.5,-95"/>
<text text-anchor="start" x="498.5" y="-146" font-family="Helvetica,sans-Serif" font-size="10.00">/home/runner/work/Documentation</text>
<text text-anchor="start" x="498.5" y="-135" font-family="Helvetica,sans-Serif" font-size="10.00">/Documentation/master/applications</text>
<text text-anchor="start" x="498.5" y="-124" font-family="Helvetica,sans-Serif" font-size="10.00">/ConstitutiveLawsApplication/custom</text>
<text text-anchor="start" x="498.5" y="-113" font-family="Helvetica,sans-Serif" font-size="10.00">_constitutive/finite_strains/plasticity</text>
<text text-anchor="middle" x="611.5" y="-102" font-family="Helvetica,sans-Serif" font-size="10.00">/generic_finite_strain_kinematic_plasticity.cpp</text>
</a>
</g>
</g>
<!-- Node1&#45;&gt;Node5 -->
<g id="edge4" class="edge">
<title>Node1&#45;&gt;Node5</title>
<path fill="none" stroke="midnightblue" d="M1634.12,-231.06C1433.33,-229.02 1057.61,-217.5 742.5,-164 732.96,-162.38 723.11,-160.34 713.3,-158.06"/>
<polygon fill="midnightblue" stroke="midnightblue" points="1634.11,-234.56 1644.14,-231.15 1634.18,-227.56 1634.11,-234.56"/>
</g>
<!-- Node6 -->
<g id="node6" class="node">
<title>Node6</title>
<g id="a_node6"><a xlink:href="../../d5/df0/generic__small__strain__d__plus__d__minus__damage_8cpp.html" target="_top" xlink:title=" ">
<polygon fill="none" stroke="black" points="751,-95 751,-158 1020,-158 1020,-95 751,-95"/>
<text text-anchor="start" x="759" y="-146" font-family="Helvetica,sans-Serif" font-size="10.00">/home/runner/work/Documentation</text>
<text text-anchor="start" x="759" y="-135" font-family="Helvetica,sans-Serif" font-size="10.00">/Documentation/master/applications</text>
<text text-anchor="start" x="759" y="-124" font-family="Helvetica,sans-Serif" font-size="10.00">/ConstitutiveLawsApplication/custom</text>
<text text-anchor="start" x="759" y="-113" font-family="Helvetica,sans-Serif" font-size="10.00">_constitutive/small_strains/damage</text>
<text text-anchor="middle" x="885.5" y="-102" font-family="Helvetica,sans-Serif" font-size="10.00">/generic_small_strain_d_plus_d_minus_damage.cpp</text>
</a>
</g>
</g>
<!-- Node1&#45;&gt;Node6 -->
<g id="edge5" class="edge">
<title>Node1&#45;&gt;Node6</title>
<path fill="none" stroke="midnightblue" d="M1633.99,-224.93C1482.76,-216.95 1238.06,-199.54 1029.5,-164 1019.58,-162.31 1009.35,-160.29 999.12,-158.07"/>
<polygon fill="midnightblue" stroke="midnightblue" points="1634.1,-228.44 1644.26,-225.46 1634.46,-221.45 1634.1,-228.44"/>
</g>
<!-- Node7 -->
<g id="node7" class="node">
<title>Node7</title>
<g id="a_node7"><a xlink:href="../../d3/dca/generic__small__strain__isotropic__damage_8cpp.html" target="_top" xlink:title=" ">
<polygon fill="none" stroke="black" points="1038,-95 1038,-158 1271,-158 1271,-95 1038,-95"/>
<text text-anchor="start" x="1046" y="-146" font-family="Helvetica,sans-Serif" font-size="10.00">/home/runner/work/Documentation</text>
<text text-anchor="start" x="1046" y="-135" font-family="Helvetica,sans-Serif" font-size="10.00">/Documentation/master/applications</text>
<text text-anchor="start" x="1046" y="-124" font-family="Helvetica,sans-Serif" font-size="10.00">/ConstitutiveLawsApplication/custom</text>
<text text-anchor="start" x="1046" y="-113" font-family="Helvetica,sans-Serif" font-size="10.00">_constitutive/small_strains/damage</text>
<text text-anchor="middle" x="1154.5" y="-102" font-family="Helvetica,sans-Serif" font-size="10.00">/generic_small_strain_isotropic_damage.cpp</text>
</a>
</g>
</g>
<!-- Node1&#45;&gt;Node7 -->
<g id="edge6" class="edge">
<title>Node1&#45;&gt;Node7</title>
<path fill="none" stroke="midnightblue" d="M1634.32,-217.38C1534.5,-206.5 1398.58,-188.92 1280.5,-164 1272.14,-162.24 1263.53,-160.21 1254.92,-158.03"/>
<polygon fill="midnightblue" stroke="midnightblue" points="1634.16,-220.88 1644.48,-218.47 1634.91,-213.92 1634.16,-220.88"/>
</g>
<!-- Node8 -->
<g id="node8" class="node">
<title>Node8</title>
<g id="a_node8"><a xlink:href="../../d7/d37/generic__small__strain__isotropic__damage__plane__stress_8cpp.html" target="_top" xlink:title=" ">
<polygon fill="none" stroke="black" points="1289,-89.5 1289,-163.5 1502,-163.5 1502,-89.5 1289,-89.5"/>
<text text-anchor="start" x="1297" y="-151.5" font-family="Helvetica,sans-Serif" font-size="10.00">/home/runner/work/Documentation</text>
<text text-anchor="start" x="1297" y="-140.5" font-family="Helvetica,sans-Serif" font-size="10.00">/Documentation/master/applications</text>
<text text-anchor="start" x="1297" y="-129.5" font-family="Helvetica,sans-Serif" font-size="10.00">/ConstitutiveLawsApplication/custom</text>
<text text-anchor="start" x="1297" y="-118.5" font-family="Helvetica,sans-Serif" font-size="10.00">_constitutive/small_strains/damage</text>
<text text-anchor="start" x="1297" y="-107.5" font-family="Helvetica,sans-Serif" font-size="10.00">/generic_small_strain_isotropic_damage</text>
<text text-anchor="middle" x="1395.5" y="-96.5" font-family="Helvetica,sans-Serif" font-size="10.00">_plane_stress.cpp</text>
</a>
</g>
</g>
<!-- Node1&#45;&gt;Node8 -->
<g id="edge7" class="edge">
<title>Node1&#45;&gt;Node8</title>
<path fill="none" stroke="midnightblue" d="M1640.03,-197.99C1598.59,-187.61 1553.07,-175.77 1511.5,-164 1508.45,-163.14 1505.36,-162.25 1502.25,-161.35"/>
<polygon fill="midnightblue" stroke="midnightblue" points="1639.37,-201.43 1649.92,-200.46 1641.06,-194.64 1639.37,-201.43"/>
</g>
<!-- Node9 -->
<g id="node9" class="node">
<title>Node9</title>
<g id="a_node9"><a xlink:href="../../d5/d94/generic__small__strain__orthotropic__damage_8cpp.html" target="_top" xlink:title=" ">
<polygon fill="none" stroke="black" points="1520,-95 1520,-158 1765,-158 1765,-95 1520,-95"/>
<text text-anchor="start" x="1528" y="-146" font-family="Helvetica,sans-Serif" font-size="10.00">/home/runner/work/Documentation</text>
<text text-anchor="start" x="1528" y="-135" font-family="Helvetica,sans-Serif" font-size="10.00">/Documentation/master/applications</text>
<text text-anchor="start" x="1528" y="-124" font-family="Helvetica,sans-Serif" font-size="10.00">/ConstitutiveLawsApplication/custom</text>
<text text-anchor="start" x="1528" y="-113" font-family="Helvetica,sans-Serif" font-size="10.00">_constitutive/small_strains/damage</text>
<text text-anchor="middle" x="1642.5" y="-102" font-family="Helvetica,sans-Serif" font-size="10.00">/generic_small_strain_orthotropic_damage.cpp</text>
</a>
</g>
</g>
<!-- Node1&#45;&gt;Node9 -->
<g id="edge8" class="edge">
<title>Node1&#45;&gt;Node9</title>
<path fill="none" stroke="midnightblue" d="M1729.08,-193.88C1713.89,-182.23 1697.28,-169.5 1682.72,-158.33"/>
<polygon fill="midnightblue" stroke="midnightblue" points="1727.3,-196.92 1737.36,-200.23 1731.55,-191.36 1727.3,-196.92"/>
</g>
<!-- Node10 -->
<g id="node10" class="node">
<title>Node10</title>
<g id="a_node10"><a xlink:href="../../d3/d19/generic__small__strain__high__cycle__fatigue__law_8cpp.html" target="_top" xlink:title=" ">
<polygon fill="none" stroke="black" points="1783.5,-95 1783.5,-158 2043.5,-158 2043.5,-95 1783.5,-95"/>
<text text-anchor="start" x="1791.5" y="-146" font-family="Helvetica,sans-Serif" font-size="10.00">/home/runner/work/Documentation</text>
<text text-anchor="start" x="1791.5" y="-135" font-family="Helvetica,sans-Serif" font-size="10.00">/Documentation/master/applications</text>
<text text-anchor="start" x="1791.5" y="-124" font-family="Helvetica,sans-Serif" font-size="10.00">/ConstitutiveLawsApplication/custom</text>
<text text-anchor="start" x="1791.5" y="-113" font-family="Helvetica,sans-Serif" font-size="10.00">_constitutive/small_strains/fatigue</text>
<text text-anchor="middle" x="1913.5" y="-102" font-family="Helvetica,sans-Serif" font-size="10.00">/generic_small_strain_high_cycle_fatigue_law.cpp</text>
</a>
</g>
</g>
<!-- Node1&#45;&gt;Node10 -->
<g id="edge9" class="edge">
<title>Node1&#45;&gt;Node10</title>
<path fill="none" stroke="midnightblue" d="M1826.27,-193.88C1841.58,-182.23 1858.31,-169.5 1872.98,-158.33"/>
<polygon fill="midnightblue" stroke="midnightblue" points="1823.77,-191.39 1817.94,-200.23 1828.01,-196.96 1823.77,-191.39"/>
</g>
<!-- Node11 -->
<g id="node11" class="node">
<title>Node11</title>
<g id="a_node11"><a xlink:href="../../dd/d67/associative__plastic__damage__model_8cpp.html" target="_top" xlink:title=" ">
<polygon fill="none" stroke="black" points="2062,-95 2062,-158 2321,-158 2321,-95 2062,-95"/>
<text text-anchor="start" x="2070" y="-146" font-family="Helvetica,sans-Serif" font-size="10.00">/home/runner/work/Documentation</text>
<text text-anchor="start" x="2070" y="-135" font-family="Helvetica,sans-Serif" font-size="10.00">/Documentation/master/applications</text>
<text text-anchor="start" x="2070" y="-124" font-family="Helvetica,sans-Serif" font-size="10.00">/ConstitutiveLawsApplication/custom</text>
<text text-anchor="start" x="2070" y="-113" font-family="Helvetica,sans-Serif" font-size="10.00">_constitutive/small_strains/plastic</text>
<text text-anchor="middle" x="2191.5" y="-102" font-family="Helvetica,sans-Serif" font-size="10.00">_damage/associative_plastic_damage_model.cpp</text>
</a>
</g>
</g>
<!-- Node1&#45;&gt;Node11 -->
<g id="edge10" class="edge">
<title>Node1&#45;&gt;Node11</title>
<path fill="none" stroke="midnightblue" d="M1914.84,-198.05C1958.85,-187.35 2007.77,-175.32 2052.5,-164 2060.12,-162.07 2067.97,-160.07 2075.87,-158.03"/>
<polygon fill="midnightblue" stroke="midnightblue" points="1913.84,-194.69 1904.95,-200.45 1915.49,-201.49 1913.84,-194.69"/>
</g>
<!-- Node12 -->
<g id="node12" class="node">
<title>Node12</title>
<g id="a_node12"><a xlink:href="../../d9/d14/generic__small__strain__plastic__damage__model_8cpp.html" target="_top" xlink:title=" ">
<polygon fill="none" stroke="black" points="2339,-89.5 2339,-163.5 2542,-163.5 2542,-89.5 2339,-89.5"/>
<text text-anchor="start" x="2347" y="-151.5" font-family="Helvetica,sans-Serif" font-size="10.00">/home/runner/work/Documentation</text>
<text text-anchor="start" x="2347" y="-140.5" font-family="Helvetica,sans-Serif" font-size="10.00">/Documentation/master/applications</text>
<text text-anchor="start" x="2347" y="-129.5" font-family="Helvetica,sans-Serif" font-size="10.00">/ConstitutiveLawsApplication/custom</text>
<text text-anchor="start" x="2347" y="-118.5" font-family="Helvetica,sans-Serif" font-size="10.00">_constitutive/small_strains/plastic</text>
<text text-anchor="start" x="2347" y="-107.5" font-family="Helvetica,sans-Serif" font-size="10.00">_damage/generic_small_strain_plastic</text>
<text text-anchor="middle" x="2440.5" y="-96.5" font-family="Helvetica,sans-Serif" font-size="10.00">_damage_model.cpp</text>
</a>
</g>
</g>
<!-- Node1&#45;&gt;Node12 -->
<g id="edge11" class="edge">
<title>Node1&#45;&gt;Node12</title>
<path fill="none" stroke="midnightblue" d="M1920.66,-221.55C2033.1,-212.23 2193.1,-194.8 2330.5,-164 2333.25,-163.38 2336.03,-162.73 2338.82,-162.03"/>
<polygon fill="midnightblue" stroke="midnightblue" points="1920.29,-218.07 1910.61,-222.37 1920.86,-225.04 1920.29,-218.07"/>
</g>
<!-- Node13 -->
<g id="node13" class="node">
<title>Node13</title>
<g id="a_node13"><a xlink:href="../../d1/d17/generic__small__strain__isotropic__plasticity_8cpp.html" target="_top" xlink:title=" ">
<polygon fill="none" stroke="black" points="2560,-95 2560,-158 2797,-158 2797,-95 2560,-95"/>
<text text-anchor="start" x="2568" y="-146" font-family="Helvetica,sans-Serif" font-size="10.00">/home/runner/work/Documentation</text>
<text text-anchor="start" x="2568" y="-135" font-family="Helvetica,sans-Serif" font-size="10.00">/Documentation/master/applications</text>
<text text-anchor="start" x="2568" y="-124" font-family="Helvetica,sans-Serif" font-size="10.00">/ConstitutiveLawsApplication/custom</text>
<text text-anchor="start" x="2568" y="-113" font-family="Helvetica,sans-Serif" font-size="10.00">_constitutive/small_strains/plasticity</text>
<text text-anchor="middle" x="2678.5" y="-102" font-family="Helvetica,sans-Serif" font-size="10.00">/generic_small_strain_isotropic_plasticity.cpp</text>
</a>
</g>
</g>
<!-- Node1&#45;&gt;Node13 -->
<g id="edge12" class="edge">
<title>Node1&#45;&gt;Node13</title>
<path fill="none" stroke="midnightblue" d="M1920.85,-226.88C2077.06,-220.47 2333.8,-204.31 2551.5,-164 2560.52,-162.33 2569.83,-160.29 2579.1,-158.04"/>
<polygon fill="midnightblue" stroke="midnightblue" points="1920.56,-223.39 1910.71,-227.29 1920.84,-230.39 1920.56,-223.39"/>
</g>
<!-- Node14 -->
<g id="node14" class="node">
<title>Node14</title>
<g id="a_node14"><a xlink:href="../../df/dcc/generic__small__strain__kinematic__plasticity_8cpp.html" target="_top" xlink:title=" ">
<polygon fill="none" stroke="black" points="2815.5,-95 2815.5,-158 3059.5,-158 3059.5,-95 2815.5,-95"/>
<text text-anchor="start" x="2823.5" y="-146" font-family="Helvetica,sans-Serif" font-size="10.00">/home/runner/work/Documentation</text>
<text text-anchor="start" x="2823.5" y="-135" font-family="Helvetica,sans-Serif" font-size="10.00">/Documentation/master/applications</text>
<text text-anchor="start" x="2823.5" y="-124" font-family="Helvetica,sans-Serif" font-size="10.00">/ConstitutiveLawsApplication/custom</text>
<text text-anchor="start" x="2823.5" y="-113" font-family="Helvetica,sans-Serif" font-size="10.00">_constitutive/small_strains/plasticity</text>
<text text-anchor="middle" x="2937.5" y="-102" font-family="Helvetica,sans-Serif" font-size="10.00">/generic_small_strain_kinematic_plasticity.cpp</text>
</a>
</g>
</g>
<!-- Node1&#45;&gt;Node14 -->
<g id="edge13" class="edge">
<title>Node1&#45;&gt;Node14</title>
<path fill="none" stroke="midnightblue" d="M1921.17,-230.97C2121.08,-228.83 2493.81,-217.15 2806.5,-164 2816.04,-162.38 2825.89,-160.34 2835.7,-158.06"/>
<polygon fill="midnightblue" stroke="midnightblue" points="1920.87,-227.48 1910.91,-231.08 1920.94,-234.48 1920.87,-227.48"/>
</g>
<!-- Node15 -->
<g id="node15" class="node">
<title>Node15</title>
<g id="a_node15"><a xlink:href="../../d8/d97/_constitutive_laws_application_2custom__python_2add__custom__constitutive__laws__to__python_8cpp.html" target="_top" xlink:title=" ">
<polygon fill="none" stroke="black" points="3078,-95 3078,-158 3287,-158 3287,-95 3078,-95"/>
<text text-anchor="start" x="3086" y="-146" font-family="Helvetica,sans-Serif" font-size="10.00">/home/runner/work/Documentation</text>
<text text-anchor="start" x="3086" y="-135" font-family="Helvetica,sans-Serif" font-size="10.00">/Documentation/master/applications</text>
<text text-anchor="start" x="3086" y="-124" font-family="Helvetica,sans-Serif" font-size="10.00">/ConstitutiveLawsApplication/custom</text>
<text text-anchor="start" x="3086" y="-113" font-family="Helvetica,sans-Serif" font-size="10.00">_python/add_custom_constitutive_laws</text>
<text text-anchor="middle" x="3182.5" y="-102" font-family="Helvetica,sans-Serif" font-size="10.00">_to_python.cpp</text>
</a>
</g>
</g>
<!-- Node1&#45;&gt;Node15 -->
<g id="edge14" class="edge">
<title>Node1&#45;&gt;Node15</title>
<path fill="none" stroke="midnightblue" d="M1920.86,-228.21C2209.59,-221.84 2852.02,-203.58 3068.5,-164 3077.19,-162.41 3086.13,-160.34 3095.01,-158"/>
<polygon fill="midnightblue" stroke="midnightblue" points="1920.66,-224.72 1910.74,-228.44 1920.81,-231.72 1920.66,-224.72"/>
</g>
<!-- Node16 -->
<g id="node16" class="node">
<title>Node16</title>
<g id="a_node16"><a xlink:href="../../d6/d85/automatic__differentiation__tangent__utilities_8cpp.html" target="_top" xlink:title=" ">
<polygon fill="none" stroke="black" points="3305,-95 3305,-158 3502,-158 3502,-95 3305,-95"/>
<text text-anchor="start" x="3313" y="-146" font-family="Helvetica,sans-Serif" font-size="10.00">/home/runner/work/Documentation</text>
<text text-anchor="start" x="3313" y="-135" font-family="Helvetica,sans-Serif" font-size="10.00">/Documentation/master/applications</text>
<text text-anchor="start" x="3313" y="-124" font-family="Helvetica,sans-Serif" font-size="10.00">/ConstitutiveLawsApplication/custom</text>
<text text-anchor="start" x="3313" y="-113" font-family="Helvetica,sans-Serif" font-size="10.00">_utilities/automatic_differentiation</text>
<text text-anchor="middle" x="3403.5" y="-102" font-family="Helvetica,sans-Serif" font-size="10.00">_tangent_utilities.cpp</text>
</a>
</g>
</g>
<!-- Node1&#45;&gt;Node16 -->
<g id="edge15" class="edge">
<title>Node1&#45;&gt;Node16</title>
<path fill="none" stroke="midnightblue" d="M1920.99,-229.87C2247.06,-226.45 3035.64,-213.2 3296.5,-164 3304.79,-162.44 3313.32,-160.37 3321.77,-158.01"/>
<polygon fill="midnightblue" stroke="midnightblue" points="1920.5,-226.37 1910.53,-229.97 1920.57,-233.37 1920.5,-226.37"/>
</g>
<!-- Node3 -->
<g id="node3" class="node">
<title>Node3</title>
<g id="a_node3"><a xlink:href="../../d3/d03/constitutive__laws__application_8cpp.html" target="_top" xlink:title=" ">
<polygon fill="none" stroke="black" points="0,-0.5 0,-52.5 219,-52.5 219,-0.5 0,-0.5"/>
<text text-anchor="start" x="8" y="-40.5" font-family="Helvetica,sans-Serif" font-size="10.00">/home/runner/work/Documentation</text>
<text text-anchor="start" x="8" y="-29.5" font-family="Helvetica,sans-Serif" font-size="10.00">/Documentation/master/applications</text>
<text text-anchor="start" x="8" y="-18.5" font-family="Helvetica,sans-Serif" font-size="10.00">/ConstitutiveLawsApplication/constitutive</text>
<text text-anchor="middle" x="109.5" y="-7.5" font-family="Helvetica,sans-Serif" font-size="10.00">_laws_application.cpp</text>
</a>
</g>
</g>
<!-- Node2&#45;&gt;Node3 -->
<g id="edge2" class="edge">
<title>Node2&#45;&gt;Node3</title>
<path fill="none" stroke="midnightblue" d="M109.5,-90.2C109.5,-77.78 109.5,-64.07 109.5,-52.65"/>
<polygon fill="midnightblue" stroke="midnightblue" points="106,-90.26 109.5,-100.26 113,-90.26 106,-90.26"/>
</g>
</g>
</svg>
        <g id="navigator" transform="translate(0 0)" fill="#404254">
                <rect fill="#f2f5e9" fill-opacity="0.5" stroke="#606060" stroke-width=".5" x="0" y="0" width="60" height="60"/>
                <use id="zoomplus" xlink:href="#zoomPlus" x="17" y="9" onmousedown="handleZoom(evt,'in')"/>
                <use id="zoomminus" xlink:href="#zoomMin" x="42" y="9" onmousedown="handleZoom(evt,'out')"/>
                <use id="reset" xlink:href="#resetDef" x="30" y="36" onmousedown="handleReset()"/>
                <g id="arrowUp" xlink:href="#dirArrow" transform="translate(30 24)" onmousedown="handlePan(0,-1)">
                  <use xlink:href="#rim" fill="#404040">
                        <set attributeName="fill" to="#808080" begin="arrowUp.mouseover" end="arrowUp.mouseout"/>
                  </use>
                  <path fill="none" stroke="white" stroke-width="1.5" d="M0,-3.0v7 M-2.5,-0.5L0,-3.0L2.5,-0.5"/>
                </g>
                <g id="arrowRight" xlink:href="#dirArrow" transform="rotate(90) translate(36 -43)" onmousedown="handlePan(1,0)">
                  <use xlink:href="#rim" fill="#404040">
                        <set attributeName="fill" to="#808080" begin="arrowRight.mouseover" end="arrowRight.mouseout"/>
                  </use>
                  <path fill="none" stroke="white" stroke-width="1.5" d="M0,-3.0v7 M-2.5,-0.5L0,-3.0L2.5,-0.5"/>
                </g>
                <g id="arrowDown" xlink:href="#dirArrow" transform="rotate(180) translate(-30 -48)" onmousedown="handlePan(0,1)">
                  <use xlink:href="#rim" fill="#404040">
                        <set attributeName="fill" to="#808080" begin="arrowDown.mouseover" end="arrowDown.mouseout"/>
                  </use>
                  <path fill="none" stroke="white" stroke-width="1.5" d="M0,-3.0v7 M-2.5,-0.5L0,-3.0L2.5,-0.5"/>
                </g>
                <g id="arrowLeft" xlink:href="#dirArrow" transform="rotate(270) translate(-36 17)" onmousedown="handlePan(-1,0)">
                  <use xlink:href="#rim" fill="#404040">
                        <set attributeName="fill" to="#808080" begin="arrowLeft.mouseover" end="arrowLeft.mouseout"/>
                  </use>
                  <path fill="none" stroke="white" stroke-width="1.5" d="M0,-3.0v7 M-2.5,-0.5L0,-3.0L2.5,-0.5"/>
                </g>
        </g>
        <svg viewBox="0 0 15 15" width="100%" height="30px" preserveAspectRatio="xMaxYMin meet">
         <g id="arrow_out" transform="scale(0.3 0.3)">
          <a xlink:href="modified__mohr__coulomb__yield__surface_8h__dep__incl_org.svg" target="_base">
           <rect id="button" ry="5" rx="5" y="6" x="6" height="38" width="38"
                fill="#f2f5e9" fill-opacity="0.5" stroke="#606060" stroke-width="1.0"/>
           <path id="arrow"
             d="M 11.500037,31.436501 C 11.940474,20.09759 22.043105,11.32322 32.158766,21.979434 L 37.068811,17.246167 C 37.068811,17.246167 37.088388,32 37.088388,32 L 22.160133,31.978069 C 22.160133,31.978069 26.997745,27.140456 26.997745,27.140456 C 18.528582,18.264221 13.291696,25.230495 11.500037,31.436501 z"
             style="fill:#404040;"/>
          </a>
         </g>
        </svg>
</svg>
