<?xml version="1.0" encoding="UTF-8" standalone="no"?>
<!DOCTYPE svg PUBLIC "-//W3C//DTD SVG 1.1//EN"
 "http://www.w3.org/Graphics/SVG/1.1/DTD/svg11.dtd">
<!-- Generated by graphviz version 7.1.0 (0)
 -->
<!-- Title: /software/kratos/doxygen/applications/PfemApplication/custom_elements/fluid_elements/updated_lagrangian_segregated_fluid_element.hpp Pages: 1 -->
<svg width="370pt" height="247pt"
 viewBox="0.00 0.00 370.00 247.00" xmlns="http://www.w3.org/2000/svg" xmlns:xlink="http://www.w3.org/1999/xlink">
<g id="graph0" class="graph" transform="scale(1 1) rotate(0) translate(4 243)">
<title>/software/kratos/doxygen/applications/PfemApplication/custom_elements/fluid_elements/updated_lagrangian_segregated_fluid_element.hpp</title>
<!-- Node1 -->
<g id="node1" class="node">
<title>Node1</title>
<g id="a_node1"><a xlink:title=" ">
<polygon fill="#999999" stroke="#666666" points="277,-239 95,-239 95,-176 277,-176 277,-239"/>
<text text-anchor="start" x="103" y="-227" font-family="Helvetica,sans-Serif" font-size="10.00">/software/kratos/doxygen</text>
<text text-anchor="start" x="103" y="-216" font-family="Helvetica,sans-Serif" font-size="10.00">/applications/PfemApplication</text>
<text text-anchor="start" x="103" y="-205" font-family="Helvetica,sans-Serif" font-size="10.00">/custom_elements/fluid_elements</text>
<text text-anchor="start" x="103" y="-194" font-family="Helvetica,sans-Serif" font-size="10.00">/updated_lagrangian_segregated</text>
<text text-anchor="middle" x="186" y="-183" font-family="Helvetica,sans-Serif" font-size="10.00">_fluid_element.hpp</text>
</a>
</g>
</g>
<!-- Node2 -->
<g id="node2" class="node">
<title>Node2</title>
<g id="a_node2"><a xlink:href="../../d5/dc4/updated__lagrangian__segregated__fluid__element_8cpp.html" target="_top" xlink:title=" ">
<polygon fill="white" stroke="#666666" points="182,-140 0,-140 0,-77 182,-77 182,-140"/>
<text text-anchor="start" x="8" y="-128" font-family="Helvetica,sans-Serif" font-size="10.00">/software/kratos/doxygen</text>
<text text-anchor="start" x="8" y="-117" font-family="Helvetica,sans-Serif" font-size="10.00">/applications/PfemApplication</text>
<text text-anchor="start" x="8" y="-106" font-family="Helvetica,sans-Serif" font-size="10.00">/custom_elements/fluid_elements</text>
<text text-anchor="start" x="8" y="-95" font-family="Helvetica,sans-Serif" font-size="10.00">/updated_lagrangian_segregated</text>
<text text-anchor="middle" x="91" y="-84" font-family="Helvetica,sans-Serif" font-size="10.00">_fluid_element.cpp</text>
</a>
</g>
</g>
<!-- Node1&#45;&gt;Node2 -->
<g id="edge1" class="edge">
<title>Node1&#45;&gt;Node2</title>
<path fill="none" stroke="#63b8ff" d="M147.77,-167.47C138.98,-158.5 129.76,-149.07 121.36,-140.5"/>
<polygon fill="#63b8ff" stroke="#63b8ff" points="145.12,-169.77 154.62,-174.46 150.12,-164.87 145.12,-169.77"/>
</g>
<!-- Node3 -->
<g id="node3" class="node">
<title>Node3</title>
<g id="a_node3"><a xlink:href="../../db/d15/pfem__application_8h.html" target="_top" xlink:title=" ">
<polygon fill="white" stroke="#666666" points="362,-129 200,-129 200,-88 362,-88 362,-129"/>
<text text-anchor="start" x="208" y="-117" font-family="Helvetica,sans-Serif" font-size="10.00">/software/kratos/doxygen</text>
<text text-anchor="start" x="208" y="-106" font-family="Helvetica,sans-Serif" font-size="10.00">/applications/PfemApplication</text>
<text text-anchor="middle" x="281" y="-95" font-family="Helvetica,sans-Serif" font-size="10.00">/pfem_application.h</text>
</a>
</g>
</g>
<!-- Node1&#45;&gt;Node3 -->
<g id="edge2" class="edge">
<title>Node1&#45;&gt;Node3</title>
<path fill="none" stroke="#63b8ff" d="M224.13,-167.57C236.92,-154.51 250.66,-140.48 261.42,-129.49"/>
<polygon fill="#63b8ff" stroke="#63b8ff" points="221.88,-164.87 217.38,-174.46 226.88,-169.77 221.88,-164.87"/>
</g>
<!-- Node4 -->
<g id="node4" class="node">
<title>Node4</title>
<g id="a_node4"><a xlink:href="../../dd/def/pfem__application_8cpp.html" target="_top" xlink:title=" ">
<polygon fill="white" stroke="#666666" points="362,-41 200,-41 200,0 362,0 362,-41"/>
<text text-anchor="start" x="208" y="-29" font-family="Helvetica,sans-Serif" font-size="10.00">/software/kratos/doxygen</text>
<text text-anchor="start" x="208" y="-18" font-family="Helvetica,sans-Serif" font-size="10.00">/applications/PfemApplication</text>
<text text-anchor="middle" x="281" y="-7" font-family="Helvetica,sans-Serif" font-size="10.00">/pfem_application.cpp</text>
</a>
</g>
</g>
<!-- Node3&#45;&gt;Node4 -->
<g id="edge3" class="edge">
<title>Node3&#45;&gt;Node4</title>
<path fill="none" stroke="#63b8ff" d="M281,-76.06C281,-64.45 281,-51.63 281,-41.34"/>
<polygon fill="#63b8ff" stroke="#63b8ff" points="277.5,-76.04 281,-86.04 284.5,-76.04 277.5,-76.04"/>
</g>
</g>
</svg>
