<?xml version="1.0" encoding="UTF-8" standalone="no"?>
<!DOCTYPE svg PUBLIC "-//W3C//DTD SVG 1.1//EN"
 "http://www.w3.org/Graphics/SVG/1.1/DTD/svg11.dtd">
<!-- Generated by graphviz version 7.1.0 (0)
 -->
<!-- Title: /software/kratos/doxygen/applications/ContactMechanicsApplication/custom_utilities/rigid_body_utilities.hpp Pages: 1 -->
<!--zoomable 962 -->
<svg id="main" version="1.1" xmlns="http://www.w3.org/2000/svg" xmlns:xlink="http://www.w3.org/1999/xlink" xml:space="preserve" onload="init(evt)">
<style type="text/css"><![CDATA[
.edge:hover path { stroke: red; }
.edge:hover polygon { stroke: red; fill: red; }
]]></style>
<script type="text/javascript"><![CDATA[
var edges = document.getElementsByTagName('g');
if (edges && edges.length) {
  for (var i=0;i<edges.length;i++) {
    if (edges[i].id.substr(0,4)=='edge') {
      edges[i].setAttribute('class','edge');
    }
  }
}
]]></script>
        <defs>
                <circle id="rim" cx="0" cy="0" r="7"/>
                <circle id="rim2" cx="0" cy="0" r="3.5"/>
                <g id="zoomPlus">
                        <use xlink:href="#rim" fill="#404040">
                                <set attributeName="fill" to="#808080" begin="zoomplus.mouseover" end="zoomplus.mouseout"/>
                        </use>
                        <path d="M-4,0h8M0,-4v8" fill="none" stroke="white" stroke-width="1.5" pointer-events="none"/>
                </g>
                <g id="zoomMin">
                        <use xlink:href="#rim" fill="#404040">
                                <set attributeName="fill" to="#808080" begin="zoomminus.mouseover" end="zoomminus.mouseout"/>
                        </use>
                        <path d="M-4,0h8" fill="none" stroke="white" stroke-width="1.5" pointer-events="none"/>
                </g>
                <g id="dirArrow">
                        <path fill="none" stroke="white" stroke-width="1.5" d="M0,-3.0v7 M-2.5,-0.5L0,-3.0L2.5,-0.5"/>
                </g>
               <g id="resetDef">
                       <use xlink:href="#rim2" fill="#404040">
                               <set attributeName="fill" to="#808080" begin="reset.mouseover" end="reset.mouseout"/>
                       </use>
               </g>
        </defs>

<script type="text/javascript">
var viewWidth = 3613;
var viewHeight = 962;
var sectionId = 'dynsection-0';
</script>
<script xlink:href="../../svgpan.js"/>
<svg id="graph" class="graph">
<g id="viewport">
<title>/software/kratos/doxygen/applications/ContactMechanicsApplication/custom_utilities/rigid_body_utilities.hpp</title>
<!-- Node1 -->
<g id="node1" class="node">
<title>Node1</title>
<g id="a_node1"><a xlink:title=" ">
<polygon fill="#999999" stroke="#666666" points="2580.26,-954 2409.26,-954 2409.26,-902 2580.26,-902 2580.26,-954"/>
<text text-anchor="start" x="2417.26" y="-942" font-family="Helvetica,sans-Serif" font-size="10.00">/software/kratos/doxygen</text>
<text text-anchor="start" x="2417.26" y="-931" font-family="Helvetica,sans-Serif" font-size="10.00">/applications/ContactMechanics</text>
<text text-anchor="start" x="2417.26" y="-920" font-family="Helvetica,sans-Serif" font-size="10.00">Application/custom_utilities</text>
<text text-anchor="middle" x="2494.76" y="-909" font-family="Helvetica,sans-Serif" font-size="10.00">/rigid_body_utilities.hpp</text>
</a>
</g>
</g>
<!-- Node2 -->
<g id="node2" class="node">
<title>Node2</title>
<g id="a_node2"><a xlink:title=" ">
<polygon fill="#e0e0e0" stroke="#999999" points="300.26,-140 253.26,-140 253.26,-121 300.26,-121 300.26,-140"/>
<text text-anchor="middle" x="276.76" y="-128" font-family="Helvetica,sans-Serif" font-size="10.00">cmath</text>
</a>
</g>
</g>
<!-- Node1&#45;&gt;Node2 -->
<g id="edge1" class="edge">
<title>Node1&#45;&gt;Node2</title>
<path fill="none" stroke="#63b8ff" d="M2408.91,-927.11C1970.36,-927.12 0.76,-920.3 0.76,-797 0.76,-797 0.76,-797 0.76,-239.5 0.76,-210.04 -2.28,-195.55 19.76,-176 52.14,-147.27 179.48,-136.63 241.9,-133.09"/>
<polygon fill="#63b8ff" stroke="#63b8ff" points="241.8,-136.6 251.6,-132.57 241.43,-129.61 241.8,-136.6"/>
</g>
<!-- Node3 -->
<g id="node3" class="node">
<title>Node3</title>
<g id="a_node3"><a xlink:title=" ">
<polygon fill="#e0e0e0" stroke="#999999" points="3370.76,-250 3338.76,-250 3338.76,-231 3370.76,-231 3370.76,-250"/>
<text text-anchor="middle" x="3354.76" y="-238" font-family="Helvetica,sans-Serif" font-size="10.00">set</text>
</a>
</g>
</g>
<!-- Node1&#45;&gt;Node3 -->
<g id="edge2" class="edge">
<title>Node1&#45;&gt;Node3</title>
<path fill="none" stroke="#63b8ff" d="M2580.66,-924.42C2817.57,-916.18 3462.76,-885.6 3462.76,-797 3462.76,-797 3462.76,-797 3462.76,-613.5 3462.76,-473.16 3390.99,-314.42 3364.46,-260.54"/>
<polygon fill="#63b8ff" stroke="#63b8ff" points="3367.68,-259.15 3360.08,-251.78 3361.42,-262.29 3367.68,-259.15"/>
</g>
<!-- Node4 -->
<g id="node4" class="node">
<title>Node4</title>
<g id="a_node4"><a xlink:title=" ">
<polygon fill="#e0e0e0" stroke="#999999" points="3604.76,-866 3490.76,-866 3490.76,-847 3604.76,-847 3604.76,-866"/>
<text text-anchor="middle" x="3547.76" y="-854" font-family="Helvetica,sans-Serif" font-size="10.00">boost/smart_ptr.hpp</text>
</a>
</g>
</g>
<!-- Node1&#45;&gt;Node4 -->
<g id="edge3" class="edge">
<title>Node1&#45;&gt;Node4</title>
<path fill="none" stroke="#63b8ff" d="M2580.59,-923.32C2751.44,-915.63 3146.1,-896.04 3476.76,-866 3477.59,-865.92 3478.43,-865.85 3479.28,-865.77"/>
<polygon fill="#63b8ff" stroke="#63b8ff" points="3479.33,-869.28 3488.93,-864.8 3478.63,-862.31 3479.33,-869.28"/>
</g>
<!-- Node5 -->
<g id="node5" class="node">
<title>Node5</title>
<g id="a_node5"><a xlink:href="../../d5/dd0/timer_8h.html" target="_top" xlink:title=" ">
<polygon fill="white" stroke="#666666" points="2940.26,-305 2849.26,-305 2849.26,-286 2940.26,-286 2940.26,-305"/>
<text text-anchor="middle" x="2894.76" y="-293" font-family="Helvetica,sans-Serif" font-size="10.00">utilities/timer.h</text>
</a>
</g>
</g>
<!-- Node1&#45;&gt;Node5 -->
<g id="edge4" class="edge">
<title>Node1&#45;&gt;Node5</title>
<path fill="none" stroke="#63b8ff" d="M2580.54,-922.24C2790.05,-909.46 3310.76,-870.34 3310.76,-797 3310.76,-797 3310.76,-797 3310.76,-421 3310.76,-346.93 3065.66,-313.22 2951.73,-301.55"/>
<polygon fill="#63b8ff" stroke="#63b8ff" points="2952.27,-298.08 2941.97,-300.57 2951.58,-305.05 2952.27,-298.08"/>
</g>
<!-- Node12 -->
<g id="node12" class="node">
<title>Node12</title>
<g id="a_node12"><a xlink:href="../../df/d67/define_8h.html" target="_top" xlink:title=" ">
<polygon fill="white" stroke="#666666" points="1285.26,-140 1186.26,-140 1186.26,-121 1285.26,-121 1285.26,-140"/>
<text text-anchor="middle" x="1235.76" y="-128" font-family="Helvetica,sans-Serif" font-size="10.00">includes/define.h</text>
</a>
</g>
</g>
<!-- Node1&#45;&gt;Node12 -->
<g id="edge141" class="edge">
<title>Node1&#45;&gt;Node12</title>
<path fill="none" stroke="#63b8ff" d="M2408.93,-926.23C2015.65,-922.13 404.76,-899.13 404.76,-797 404.76,-797 404.76,-797 404.76,-421 404.76,-236.18 563.56,-228.5 740.76,-176 820.54,-152.36 1061.09,-139.08 1174.86,-133.97"/>
<polygon fill="#63b8ff" stroke="#63b8ff" points="1174.78,-137.48 1184.61,-133.54 1174.47,-130.48 1174.78,-137.48"/>
</g>
<!-- Node24 -->
<g id="node19" class="node">
<title>Node24</title>
<g id="a_node19"><a xlink:href="../../dd/dfe/model__part_8h.html" target="_top" xlink:title=" ">
<polygon fill="white" stroke="#666666" points="1691.26,-866 1566.26,-866 1566.26,-847 1691.26,-847 1691.26,-866"/>
<text text-anchor="middle" x="1628.76" y="-854" font-family="Helvetica,sans-Serif" font-size="10.00">includes/model_part.h</text>
</a>
</g>
</g>
<!-- Node1&#45;&gt;Node24 -->
<g id="edge24" class="edge">
<title>Node1&#45;&gt;Node24</title>
<path fill="none" stroke="#63b8ff" d="M2408.96,-920.11C2239.03,-906.48 1862.34,-876.25 1702.63,-863.43"/>
<polygon fill="#63b8ff" stroke="#63b8ff" points="1703.27,-859.97 1693.03,-862.66 1702.71,-866.95 1703.27,-859.97"/>
</g>
<!-- Node108 -->
<g id="node41" class="node">
<title>Node108</title>
<g id="a_node41"><a xlink:href="../../de/dca/variables_8h.html" target="_top" xlink:title=" ">
<polygon fill="white" stroke="#666666" points="2551.76,-563.5 2437.76,-563.5 2437.76,-544.5 2551.76,-544.5 2551.76,-563.5"/>
<text text-anchor="middle" x="2494.76" y="-551.5" font-family="Helvetica,sans-Serif" font-size="10.00">includes/variables.h</text>
</a>
</g>
</g>
<!-- Node1&#45;&gt;Node108 -->
<g id="edge142" class="edge">
<title>Node1&#45;&gt;Node108</title>
<path fill="none" stroke="#63b8ff" d="M2494.76,-901.59C2494.76,-875.39 2494.76,-833.34 2494.76,-797 2494.76,-797 2494.76,-797 2494.76,-674 2494.76,-639.31 2494.76,-598.93 2494.76,-575.25"/>
<polygon fill="#63b8ff" stroke="#63b8ff" points="2498.26,-575.47 2494.76,-565.47 2491.26,-575.47 2498.26,-575.47"/>
</g>
<!-- Node122 -->
<g id="node45" class="node">
<title>Node122</title>
<g id="a_node45"><a xlink:href="../../d1/db8/openmp__utils_8h.html" target="_top" xlink:title=" ">
<polygon fill="white" stroke="#666666" points="274.26,-250 143.26,-250 143.26,-231 274.26,-231 274.26,-250"/>
<text text-anchor="middle" x="208.76" y="-238" font-family="Helvetica,sans-Serif" font-size="10.00">utilities/openmp_utils.h</text>
</a>
</g>
</g>
<!-- Node1&#45;&gt;Node122 -->
<g id="edge162" class="edge">
<title>Node1&#45;&gt;Node122</title>
<path fill="none" stroke="#63b8ff" d="M2408.86,-927.34C2038.09,-928.4 584.71,-928.53 390.76,-866 338.67,-849.21 288.76,-851.73 288.76,-797 288.76,-797 288.76,-797 288.76,-355 288.76,-313.92 253.32,-277.25 229.62,-257.31"/>
<polygon fill="#63b8ff" stroke="#63b8ff" points="232.07,-254.79 222.09,-251.24 227.67,-260.24 232.07,-254.79"/>
</g>
<!-- Node130 -->
<g id="node49" class="node">
<title>Node130</title>
<g id="a_node49"><a xlink:href="../../db/def/contact__mechanics__application__variables_8h.html" target="_top" xlink:title=" ">
<polygon fill="#fff0f0" stroke="red" points="3282.76,-811 3112.76,-811 3112.76,-781 3282.76,-781 3282.76,-811"/>
<text text-anchor="start" x="3120.76" y="-799" font-family="Helvetica,sans-Serif" font-size="10.00">contact_mechanics_application</text>
<text text-anchor="middle" x="3197.76" y="-788" font-family="Helvetica,sans-Serif" font-size="10.00">_variables.h</text>
</a>
</g>
</g>
<!-- Node1&#45;&gt;Node130 -->
<g id="edge172" class="edge">
<title>Node1&#45;&gt;Node130</title>
<path fill="none" stroke="#63b8ff" d="M2580.61,-911.12C2714.56,-886.35 2972.03,-838.74 3108.22,-813.56"/>
<polygon fill="#63b8ff" stroke="#63b8ff" points="3108.73,-817.02 3117.92,-811.76 3107.45,-810.14 3108.73,-817.02"/>
</g>
<!-- Node6 -->
<g id="node6" class="node">
<title>Node6</title>
<g id="a_node6"><a xlink:title=" ">
<polygon fill="#e0e0e0" stroke="#999999" points="3142.76,-24.5 3098.76,-24.5 3098.76,-5.5 3142.76,-5.5 3142.76,-24.5"/>
<text text-anchor="middle" x="3120.76" y="-12.5" font-family="Helvetica,sans-Serif" font-size="10.00">string</text>
</a>
</g>
</g>
<!-- Node5&#45;&gt;Node6 -->
<g id="edge5" class="edge">
<title>Node5&#45;&gt;Node6</title>
<path fill="none" stroke="#63b8ff" d="M2899.92,-285.59C2909.87,-267.53 2930.76,-225.04 2930.76,-186.5 2930.76,-186.5 2930.76,-186.5 2930.76,-129.5 2930.76,-99.33 2932.7,-86.59 2954.76,-66 2991.29,-31.9 3050.26,-21 3087.2,-17.55"/>
<polygon fill="#63b8ff" stroke="#63b8ff" points="3087.16,-21.06 3096.85,-16.79 3086.61,-14.09 3087.16,-21.06"/>
</g>
<!-- Node7 -->
<g id="node7" class="node">
<title>Node7</title>
<g id="a_node7"><a xlink:title=" ">
<polygon fill="#e0e0e0" stroke="#999999" points="1910.76,-24.5 1850.76,-24.5 1850.76,-5.5 1910.76,-5.5 1910.76,-24.5"/>
<text text-anchor="middle" x="1880.76" y="-12.5" font-family="Helvetica,sans-Serif" font-size="10.00">iostream</text>
</a>
</g>
</g>
<!-- Node5&#45;&gt;Node7 -->
<g id="edge6" class="edge">
<title>Node5&#45;&gt;Node7</title>
<path fill="none" stroke="#63b8ff" d="M2882.81,-285.62C2830.11,-246.63 2617.6,-91.48 2539.76,-66 2424.22,-28.18 2048.39,-18.71 1922.38,-16.57"/>
<polygon fill="#63b8ff" stroke="#63b8ff" points="1922.55,-13.08 1912.49,-16.41 1922.44,-20.07 1922.55,-13.08"/>
</g>
<!-- Node8 -->
<g id="node8" class="node">
<title>Node8</title>
<g id="a_node8"><a xlink:title=" ">
<polygon fill="#e0e0e0" stroke="#999999" points="2796.26,-250 2741.26,-250 2741.26,-231 2796.26,-231 2796.26,-250"/>
<text text-anchor="middle" x="2768.76" y="-238" font-family="Helvetica,sans-Serif" font-size="10.00">fstream</text>
</a>
</g>
</g>
<!-- Node5&#45;&gt;Node8 -->
<g id="edge7" class="edge">
<title>Node5&#45;&gt;Node8</title>
<path fill="none" stroke="#63b8ff" d="M2873.38,-285.51C2853.35,-277.08 2823.16,-264.38 2800.35,-254.79"/>
<polygon fill="#63b8ff" stroke="#63b8ff" points="2801.79,-251.6 2791.21,-250.94 2799.07,-258.05 2801.79,-251.6"/>
</g>
<!-- Node9 -->
<g id="node9" class="node">
<title>Node9</title>
<g id="a_node9"><a xlink:title=" ">
<polygon fill="#e0e0e0" stroke="#999999" points="2468.76,-250 2430.76,-250 2430.76,-231 2468.76,-231 2468.76,-250"/>
<text text-anchor="middle" x="2449.76" y="-238" font-family="Helvetica,sans-Serif" font-size="10.00">map</text>
</a>
</g>
</g>
<!-- Node5&#45;&gt;Node9 -->
<g id="edge8" class="edge">
<title>Node5&#45;&gt;Node9</title>
<path fill="none" stroke="#63b8ff" d="M2849.03,-291.73C2772.68,-286.62 2614.59,-273.97 2482.76,-250 2481.93,-249.85 2481.09,-249.69 2480.24,-249.52"/>
<polygon fill="#63b8ff" stroke="#63b8ff" points="2481.2,-246.15 2470.67,-247.34 2479.65,-252.97 2481.2,-246.15"/>
</g>
<!-- Node10 -->
<g id="node10" class="node">
<title>Node10</title>
<g id="a_node10"><a xlink:title=" ">
<polygon fill="#e0e0e0" stroke="#999999" points="2298.26,-250 2205.26,-250 2205.26,-231 2298.26,-231 2298.26,-250"/>
<text text-anchor="middle" x="2251.76" y="-238" font-family="Helvetica,sans-Serif" font-size="10.00">unordered_map</text>
</a>
</g>
</g>
<!-- Node5&#45;&gt;Node10 -->
<g id="edge9" class="edge">
<title>Node5&#45;&gt;Node10</title>
<path fill="none" stroke="#63b8ff" d="M2848.77,-290.71C2734.21,-281.27 2436.24,-256.71 2309.83,-246.29"/>
<polygon fill="#63b8ff" stroke="#63b8ff" points="2310.26,-242.81 2300.01,-245.48 2309.68,-249.79 2310.26,-242.81"/>
</g>
<!-- Node11 -->
<g id="node11" class="node">
<title>Node11</title>
<g id="a_node11"><a xlink:title=" ">
<polygon fill="#e0e0e0" stroke="#999999" points="2902.76,-250 2852.76,-250 2852.76,-231 2902.76,-231 2902.76,-250"/>
<text text-anchor="middle" x="2877.76" y="-238" font-family="Helvetica,sans-Serif" font-size="10.00">chrono</text>
</a>
</g>
</g>
<!-- Node5&#45;&gt;Node11 -->
<g id="edge10" class="edge">
<title>Node5&#45;&gt;Node11</title>
<path fill="none" stroke="#63b8ff" d="M2891.95,-285.75C2889.82,-279.11 2886.81,-269.73 2884.11,-261.31"/>
<polygon fill="#63b8ff" stroke="#63b8ff" points="2887.48,-260.34 2881.09,-251.88 2880.81,-262.47 2887.48,-260.34"/>
</g>
<!-- Node5&#45;&gt;Node12 -->
<g id="edge11" class="edge">
<title>Node5&#45;&gt;Node12</title>
<path fill="none" stroke="#63b8ff" d="M2848.77,-288.03C2789.37,-279.6 2682.76,-264.26 2591.76,-250 2541.01,-242.05 2528.77,-237.02 2477.76,-231 2249.89,-204.11 2190.33,-224.26 1962.76,-195 1917.46,-189.18 1907.06,-181.85 1861.76,-176 1655.64,-149.38 1409.13,-137.72 1296.86,-133.51"/>
<polygon fill="#63b8ff" stroke="#63b8ff" points="1297.09,-130.02 1286.97,-133.15 1296.83,-137.01 1297.09,-130.02"/>
</g>
<!-- Node13 -->
<g id="node13" class="node">
<title>Node13</title>
<g id="a_node13"><a xlink:title=" ">
<polygon fill="#e0e0e0" stroke="#999999" points="1214.26,-24.5 1149.26,-24.5 1149.26,-5.5 1214.26,-5.5 1214.26,-24.5"/>
<text text-anchor="middle" x="1181.76" y="-12.5" font-family="Helvetica,sans-Serif" font-size="10.00">stdexcept</text>
</a>
</g>
</g>
<!-- Node12&#45;&gt;Node13 -->
<g id="edge12" class="edge">
<title>Node12&#45;&gt;Node13</title>
<path fill="none" stroke="#63b8ff" d="M1215.91,-120.59C1202.15,-113.21 1184.88,-101.31 1176.76,-85 1169.06,-69.55 1171.58,-49.69 1175.28,-35.25"/>
<polygon fill="#63b8ff" stroke="#63b8ff" points="1178.51,-36.64 1178.02,-26.06 1171.81,-34.64 1178.51,-36.64"/>
</g>
<!-- Node14 -->
<g id="node14" class="node">
<title>Node14</title>
<g id="a_node14"><a xlink:title=" ">
<polygon fill="#e0e0e0" stroke="#999999" points="679.76,-24.5 623.76,-24.5 623.76,-5.5 679.76,-5.5 679.76,-24.5"/>
<text text-anchor="middle" x="651.76" y="-12.5" font-family="Helvetica,sans-Serif" font-size="10.00">sstream</text>
</a>
</g>
</g>
<!-- Node12&#45;&gt;Node14 -->
<g id="edge13" class="edge">
<title>Node12&#45;&gt;Node14</title>
<path fill="none" stroke="#63b8ff" d="M1189.93,-120.59C1078.73,-98.98 796.05,-44.04 691.46,-23.72"/>
<polygon fill="#63b8ff" stroke="#63b8ff" points="692.15,-20.28 681.66,-21.81 690.81,-27.16 692.15,-20.28"/>
</g>
<!-- Node15 -->
<g id="node15" class="node">
<title>Node15</title>
<g id="a_node15"><a xlink:href="../../dc/d25/kratos__export__api_8h.html" target="_top" xlink:title=" ">
<polygon fill="white" stroke="#666666" points="1001.76,-30 873.76,-30 873.76,0 1001.76,0 1001.76,-30"/>
<text text-anchor="start" x="881.76" y="-18" font-family="Helvetica,sans-Serif" font-size="10.00">includes/kratos_export</text>
<text text-anchor="middle" x="937.76" y="-7" font-family="Helvetica,sans-Serif" font-size="10.00">_api.h</text>
</a>
</g>
</g>
<!-- Node12&#45;&gt;Node15 -->
<g id="edge14" class="edge">
<title>Node12&#45;&gt;Node15</title>
<path fill="none" stroke="#63b8ff" d="M1212.38,-120.59C1163.77,-102.08 1050.94,-59.11 986.04,-34.39"/>
<polygon fill="#63b8ff" stroke="#63b8ff" points="987.68,-31.27 977.09,-30.98 985.18,-37.81 987.68,-31.27"/>
</g>
<!-- Node16 -->
<g id="node16" class="node">
<title>Node16</title>
<g id="a_node16"><a xlink:href="../../d9/dc0/smart__pointers_8h.html" target="_top" xlink:title=" ">
<polygon fill="#fff0f0" stroke="red" points="1464.26,-85 1321.26,-85 1321.26,-66 1464.26,-66 1464.26,-85"/>
<text text-anchor="middle" x="1392.76" y="-73" font-family="Helvetica,sans-Serif" font-size="10.00">includes/smart_pointers.h</text>
</a>
</g>
</g>
<!-- Node12&#45;&gt;Node16 -->
<g id="edge15" class="edge">
<title>Node12&#45;&gt;Node16</title>
<path fill="none" stroke="#63b8ff" d="M1262.39,-120.51C1287.96,-111.88 1326.8,-98.76 1355.45,-89.1"/>
<polygon fill="#63b8ff" stroke="#63b8ff" points="1356.47,-92.45 1364.82,-85.93 1354.23,-85.81 1356.47,-92.45"/>
</g>
<!-- Node20 -->
<g id="node17" class="node">
<title>Node20</title>
<g id="a_node17"><a xlink:href="../../dd/d2d/exception_8h.html" target="_top" xlink:title=" ">
<polygon fill="#fff0f0" stroke="red" points="1303.26,-85 1186.26,-85 1186.26,-66 1303.26,-66 1303.26,-85"/>
<text text-anchor="middle" x="1244.76" y="-73" font-family="Helvetica,sans-Serif" font-size="10.00">includes/exception.h</text>
</a>
</g>
</g>
<!-- Node12&#45;&gt;Node20 -->
<g id="edge17" class="edge">
<title>Node12&#45;&gt;Node20</title>
<path fill="none" stroke="#63b8ff" d="M1237.24,-120.75C1238.36,-114.19 1239.93,-104.95 1241.34,-96.6"/>
<polygon fill="#63b8ff" stroke="#63b8ff" points="1244.76,-97.38 1242.99,-86.93 1237.86,-96.21 1244.76,-97.38"/>
</g>
<!-- Node16&#45;&gt;Node7 -->
<g id="edge16" class="edge">
<title>Node16&#45;&gt;Node7</title>
<path fill="none" stroke="#63b8ff" d="M1464.5,-65.9C1568.01,-53.49 1755.94,-30.96 1839.17,-20.99"/>
<polygon fill="#63b8ff" stroke="#63b8ff" points="1839.42,-24.48 1848.93,-19.82 1838.59,-17.53 1839.42,-24.48"/>
</g>
<!-- Node20&#45;&gt;Node6 -->
<g id="edge19" class="edge">
<title>Node20&#45;&gt;Node6</title>
<path fill="none" stroke="#63b8ff" d="M1303.55,-66.71C1306.32,-66.45 1309.07,-66.21 1311.76,-66 2027.54,-10.84 2906.76,-14.31 3087.4,-15.7"/>
<polygon fill="#63b8ff" stroke="#63b8ff" points="3087.19,-19.2 3097.22,-15.78 3087.25,-12.2 3087.19,-19.2"/>
</g>
<!-- Node20&#45;&gt;Node7 -->
<g id="edge20" class="edge">
<title>Node20&#45;&gt;Node7</title>
<path fill="none" stroke="#63b8ff" d="M1303.57,-66.91C1306.34,-66.59 1309.08,-66.29 1311.76,-66 1508.91,-44.84 1745.2,-26.23 1839.22,-19.1"/>
<polygon fill="#63b8ff" stroke="#63b8ff" points="1839.28,-22.6 1848.98,-18.36 1838.75,-15.62 1839.28,-22.6"/>
</g>
<!-- Node20&#45;&gt;Node13 -->
<g id="edge18" class="edge">
<title>Node20&#45;&gt;Node13</title>
<path fill="none" stroke="#63b8ff" d="M1235.19,-65.62C1225.75,-56.85 1211.11,-43.25 1199.53,-32.5"/>
<polygon fill="#63b8ff" stroke="#63b8ff" points="1202.24,-30.24 1192.53,-26 1197.47,-35.37 1202.24,-30.24"/>
</g>
<!-- Node20&#45;&gt;Node14 -->
<g id="edge21" class="edge">
<title>Node20&#45;&gt;Node14</title>
<path fill="none" stroke="#63b8ff" d="M1185.8,-67.53C1181.05,-67 1176.33,-66.49 1171.76,-66 992.81,-46.98 778.88,-27.41 691.69,-19.56"/>
<polygon fill="#63b8ff" stroke="#63b8ff" points="692.03,-16.08 681.75,-18.67 691.4,-23.05 692.03,-16.08"/>
</g>
<!-- Node20&#45;&gt;Node15 -->
<g id="edge23" class="edge">
<title>Node20&#45;&gt;Node15</title>
<path fill="none" stroke="#63b8ff" d="M1197.8,-65.55C1148.75,-56.2 1071.05,-41.4 1013.35,-30.4"/>
<polygon fill="#63b8ff" stroke="#63b8ff" points="1014.05,-26.98 1003.57,-28.54 1012.74,-33.85 1014.05,-26.98"/>
</g>
<!-- Node21 -->
<g id="node18" class="node">
<title>Node21</title>
<g id="a_node18"><a xlink:title=" ">
<polygon fill="#e0e0e0" stroke="#999999" points="352.26,-24.5 305.26,-24.5 305.26,-5.5 352.26,-5.5 352.26,-24.5"/>
<text text-anchor="middle" x="328.76" y="-12.5" font-family="Helvetica,sans-Serif" font-size="10.00">vector</text>
</a>
</g>
</g>
<!-- Node20&#45;&gt;Node21 -->
<g id="edge22" class="edge">
<title>Node20&#45;&gt;Node21</title>
<path fill="none" stroke="#63b8ff" d="M1186.07,-70.75C1011.87,-59.63 501.42,-27.03 363.46,-18.22"/>
<polygon fill="#63b8ff" stroke="#63b8ff" points="364.08,-14.75 353.88,-17.6 363.64,-21.73 364.08,-14.75"/>
</g>
<!-- Node24&#45;&gt;Node6 -->
<g id="edge25" class="edge">
<title>Node24&#45;&gt;Node6</title>
<path fill="none" stroke="#63b8ff" d="M1691.61,-853.58C1799.92,-849.64 2028.55,-838.58 2219.76,-811 2856.6,-719.15 3550.76,-884.93 3550.76,-241.5 3550.76,-241.5 3550.76,-241.5 3550.76,-129.5 3550.76,-85.14 3514.35,-83.89 3473.76,-66 3416.77,-40.88 3231.25,-24.36 3154.49,-18.44"/>
<polygon fill="#63b8ff" stroke="#63b8ff" points="3154.88,-14.96 3144.65,-17.69 3154.35,-21.94 3154.88,-14.96"/>
</g>
<!-- Node24&#45;&gt;Node7 -->
<g id="edge26" class="edge">
<title>Node24&#45;&gt;Node7</title>
<path fill="none" stroke="#63b8ff" d="M1691.6,-855.24C1774.15,-851.21 1908.76,-830.25 1908.76,-736.5 1908.76,-736.5 1908.76,-736.5 1908.76,-487 1908.76,-421.44 1907.98,-402.83 1929.76,-341 1966.69,-236.15 2102.65,-218.23 2048.76,-121 2021.88,-72.5 1962.23,-43.44 1921.74,-28.58"/>
<polygon fill="#63b8ff" stroke="#63b8ff" points="1923.15,-25.36 1912.55,-25.34 1920.82,-31.97 1923.15,-25.36"/>
</g>
<!-- Node24&#45;&gt;Node12 -->
<g id="edge29" class="edge">
<title>Node24&#45;&gt;Node12</title>
<path fill="none" stroke="#63b8ff" d="M1566,-854.39C1345.12,-850.3 614.51,-835 570.76,-811 535.36,-791.58 518.76,-776.88 518.76,-736.5 518.76,-736.5 518.76,-736.5 518.76,-487 518.76,-305.12 618.09,-248.83 784.76,-176 853.19,-146.1 1068.13,-136.07 1174.66,-132.89"/>
<polygon fill="#63b8ff" stroke="#63b8ff" points="1174.45,-136.4 1184.35,-132.61 1174.25,-129.4 1174.45,-136.4"/>
</g>
<!-- Node24&#45;&gt;Node14 -->
<g id="edge27" class="edge">
<title>Node24&#45;&gt;Node14</title>
<path fill="none" stroke="#63b8ff" d="M1565.84,-855.39C1346.55,-854.69 624.02,-849.45 527.76,-811 481.11,-792.37 442.76,-786.73 442.76,-736.5 442.76,-736.5 442.76,-736.5 442.76,-674 442.76,-585.11 366.76,-577.89 366.76,-489 366.76,-489 366.76,-489 366.76,-294.5 366.76,-154.71 544.32,-62.09 619.14,-29.26"/>
<polygon fill="#63b8ff" stroke="#63b8ff" points="620.2,-32.62 628,-25.45 617.44,-26.18 620.2,-32.62"/>
</g>
<!-- Node25 -->
<g id="node20" class="node">
<title>Node25</title>
<g id="a_node20"><a xlink:title=" ">
<polygon fill="#e0e0e0" stroke="#999999" points="942.26,-305 889.26,-305 889.26,-286 942.26,-286 942.26,-305"/>
<text text-anchor="middle" x="915.76" y="-293" font-family="Helvetica,sans-Serif" font-size="10.00">cstddef</text>
</a>
</g>
</g>
<!-- Node24&#45;&gt;Node25 -->
<g id="edge28" class="edge">
<title>Node24&#45;&gt;Node25</title>
<path fill="none" stroke="#63b8ff" d="M1565.92,-853.75C1402.68,-848.89 973.72,-834.07 913.76,-811 833.17,-780 808.74,-762.45 761.76,-690 674.17,-554.92 759.93,-468.09 858.76,-341 867.61,-329.62 879.99,-319.49 890.95,-311.79"/>
<polygon fill="#63b8ff" stroke="#63b8ff" points="892.85,-314.73 899.22,-306.26 888.96,-308.91 892.85,-314.73"/>
</g>
<!-- Node26 -->
<g id="node21" class="node">
<title>Node26</title>
<g id="a_node21"><a xlink:href="../../dd/d5f/serializer_8h.html" target="_top" xlink:title=" ">
<polygon fill="#fff0f0" stroke="red" points="2399.26,-305 2286.26,-305 2286.26,-286 2399.26,-286 2399.26,-305"/>
<text text-anchor="middle" x="2342.76" y="-293" font-family="Helvetica,sans-Serif" font-size="10.00">includes/serializer.h</text>
</a>
</g>
</g>
<!-- Node24&#45;&gt;Node26 -->
<g id="edge30" class="edge">
<title>Node24&#45;&gt;Node26</title>
<path fill="none" stroke="#63b8ff" d="M1691.63,-851.84C1868.7,-840.72 2358.76,-803.83 2358.76,-736.5 2358.76,-736.5 2358.76,-736.5 2358.76,-553 2358.76,-464.85 2349.23,-359.99 2344.88,-316.72"/>
<polygon fill="#63b8ff" stroke="#63b8ff" points="2348.37,-316.44 2343.87,-306.85 2341.41,-317.16 2348.37,-316.44"/>
</g>
<!-- Node56 -->
<g id="node24" class="node">
<title>Node56</title>
<g id="a_node24"><a xlink:href="../../d1/d8c/logger_8h.html" target="_top" xlink:title=" ">
<polygon fill="#fff0f0" stroke="red" points="2039.76,-140 1919.76,-140 1919.76,-121 2039.76,-121 2039.76,-140"/>
<text text-anchor="middle" x="1979.76" y="-128" font-family="Helvetica,sans-Serif" font-size="10.00">input_output/logger.h</text>
</a>
</g>
</g>
<!-- Node24&#45;&gt;Node56 -->
<g id="edge136" class="edge">
<title>Node24&#45;&gt;Node56</title>
<path fill="none" stroke="#63b8ff" d="M1688.59,-846.55C1748.78,-833.76 1832.76,-803.85 1832.76,-736.5 1832.76,-736.5 1832.76,-736.5 1832.76,-613.5 1832.76,-467.29 1811,-422.35 1863.76,-286 1875.49,-255.68 1935.98,-182.68 1964.65,-149.03"/>
<polygon fill="#63b8ff" stroke="#63b8ff" points="1967.3,-151.31 1971.15,-141.44 1961.98,-146.76 1967.3,-151.31"/>
</g>
<!-- Node59 -->
<g id="node25" class="node">
<title>Node59</title>
<g id="a_node25"><a xlink:href="../../de/db8/process__info_8h.html" target="_top" xlink:title=" ">
<polygon fill="#fff0f0" stroke="red" points="1468.26,-624 1337.26,-624 1337.26,-605 1468.26,-605 1468.26,-624"/>
<text text-anchor="middle" x="1402.76" y="-612" font-family="Helvetica,sans-Serif" font-size="10.00">includes/process_info.h</text>
</a>
</g>
</g>
<!-- Node24&#45;&gt;Node59 -->
<g id="edge52" class="edge">
<title>Node24&#45;&gt;Node59</title>
<path fill="none" stroke="#63b8ff" d="M1618.26,-846.82C1590.06,-823.26 1511.01,-755.45 1454.76,-690 1439.22,-671.92 1423.91,-649.22 1413.97,-633.66"/>
<polygon fill="#63b8ff" stroke="#63b8ff" points="1417.09,-632.06 1408.81,-625.46 1411.17,-635.79 1417.09,-632.06"/>
</g>
<!-- Node60 -->
<g id="node26" class="node">
<title>Node60</title>
<g id="a_node26"><a xlink:href="../../d1/d82/data__value__container_8h.html" target="_top" xlink:title=" ">
<polygon fill="white" stroke="#666666" points="1517.26,-569 1392.26,-569 1392.26,-539 1517.26,-539 1517.26,-569"/>
<text text-anchor="start" x="1400.26" y="-557" font-family="Helvetica,sans-Serif" font-size="10.00">containers/data_value</text>
<text text-anchor="middle" x="1454.76" y="-546" font-family="Helvetica,sans-Serif" font-size="10.00">_container.h</text>
</a>
</g>
</g>
<!-- Node24&#45;&gt;Node60 -->
<g id="edge81" class="edge">
<title>Node24&#45;&gt;Node60</title>
<path fill="none" stroke="#63b8ff" d="M1651.64,-846.59C1688.46,-830.58 1756.76,-793.24 1756.76,-736.5 1756.76,-736.5 1756.76,-736.5 1756.76,-674 1756.76,-625.16 1618.3,-587.9 1528.89,-568.93"/>
<polygon fill="#63b8ff" stroke="#63b8ff" points="1529.69,-565.52 1519.18,-566.91 1528.26,-572.38 1529.69,-565.52"/>
</g>
<!-- Node61 -->
<g id="node27" class="node">
<title>Node61</title>
<g id="a_node27"><a xlink:href="../../da/d89/variable_8h.html" target="_top" xlink:title=" ">
<polygon fill="#fff0f0" stroke="red" points="2170.26,-431.5 2051.26,-431.5 2051.26,-412.5 2170.26,-412.5 2170.26,-431.5"/>
<text text-anchor="middle" x="2110.76" y="-419.5" font-family="Helvetica,sans-Serif" font-size="10.00">containers/variable.h</text>
</a>
</g>
</g>
<!-- Node24&#45;&gt;Node61 -->
<g id="edge139" class="edge">
<title>Node24&#45;&gt;Node61</title>
<path fill="none" stroke="#63b8ff" d="M1691.75,-852.37C1799.6,-846.46 2010.59,-832.33 2036.76,-811 2063.72,-789.02 2060.76,-771.29 2060.76,-736.5 2060.76,-736.5 2060.76,-736.5 2060.76,-553 2060.76,-510.87 2083.92,-465.88 2098.71,-441.43"/>
<polygon fill="#63b8ff" stroke="#63b8ff" points="2101.47,-443.61 2103.82,-433.28 2095.54,-439.89 2101.47,-443.61"/>
</g>
<!-- Node62 -->
<g id="node28" class="node">
<title>Node62</title>
<g id="a_node28"><a xlink:href="../../d3/dc3/variable__data_8h.html" target="_top" xlink:title=" ">
<polygon fill="#fff0f0" stroke="red" points="2154.76,-365.5 2062.76,-365.5 2062.76,-346.5 2154.76,-346.5 2154.76,-365.5"/>
<text text-anchor="middle" x="2108.76" y="-353.5" font-family="Helvetica,sans-Serif" font-size="10.00">variable_data.h</text>
</a>
</g>
</g>
<!-- Node24&#45;&gt;Node62 -->
<g id="edge140" class="edge">
<title>Node24&#45;&gt;Node62</title>
<path fill="none" stroke="#63b8ff" d="M1691.53,-851.46C1771.33,-845.51 1903.99,-832.71 1947.76,-811 1989.85,-790.13 2022.76,-783.48 2022.76,-736.5 2022.76,-736.5 2022.76,-736.5 2022.76,-487 2022.76,-450.46 2021.69,-437.54 2041.76,-407 2051.51,-392.16 2067.24,-380.09 2081,-371.53"/>
<polygon fill="#63b8ff" stroke="#63b8ff" points="2082.41,-374.76 2089.26,-366.69 2078.87,-368.72 2082.41,-374.76"/>
</g>
<!-- Node72 -->
<g id="node30" class="node">
<title>Node72</title>
<g id="a_node30"><a xlink:href="../../d8/d3b/mesh_8h.html" target="_top" xlink:title=" ">
<polygon fill="#fff0f0" stroke="red" points="986.76,-745 890.76,-745 890.76,-726 986.76,-726 986.76,-745"/>
<text text-anchor="middle" x="938.76" y="-733" font-family="Helvetica,sans-Serif" font-size="10.00">includes/mesh.h</text>
</a>
</g>
</g>
<!-- Node24&#45;&gt;Node72 -->
<g id="edge82" class="edge">
<title>Node24&#45;&gt;Node72</title>
<path fill="none" stroke="#63b8ff" d="M1565.91,-852.88C1480.03,-848.45 1321.51,-837.25 1188.76,-811 1110.61,-795.55 1021.83,-766.16 973.92,-749.28"/>
<polygon fill="#63b8ff" stroke="#63b8ff" points="975.23,-746.03 964.63,-745.98 972.89,-752.63 975.23,-746.03"/>
</g>
<!-- Node76 -->
<g id="node31" class="node">
<title>Node76</title>
<g id="a_node31"><a xlink:href="../../d2/d58/pointer__vector__map_8h.html" target="_top" xlink:title=" ">
<polygon fill="#fff0f0" stroke="red" points="766.26,-371 661.26,-371 661.26,-341 766.26,-341 766.26,-371"/>
<text text-anchor="start" x="669.26" y="-359" font-family="Helvetica,sans-Serif" font-size="10.00">containers/pointer</text>
<text text-anchor="middle" x="713.76" y="-348" font-family="Helvetica,sans-Serif" font-size="10.00">_vector_map.h</text>
</a>
</g>
</g>
<!-- Node24&#45;&gt;Node76 -->
<g id="edge134" class="edge">
<title>Node24&#45;&gt;Node76</title>
<path fill="none" stroke="#63b8ff" d="M1565.97,-855.66C1358.76,-855.79 705.11,-852.83 620.76,-811 582.17,-791.86 558.76,-779.58 558.76,-736.5 558.76,-736.5 558.76,-736.5 558.76,-674 558.76,-552.85 651.25,-429.71 693.34,-379.95"/>
<polygon fill="#63b8ff" stroke="#63b8ff" points="695.96,-382.27 699.82,-372.41 690.65,-377.71 695.96,-382.27"/>
</g>
<!-- Node88 -->
<g id="node32" class="node">
<title>Node88</title>
<g id="a_node32"><a xlink:href="../../da/da4/master__slave__constraint_8h.html" target="_top" xlink:title=" ">
<polygon fill="#fff0f0" stroke="red" points="1589.76,-690 1463.76,-690 1463.76,-660 1589.76,-660 1589.76,-690"/>
<text text-anchor="start" x="1471.76" y="-678" font-family="Helvetica,sans-Serif" font-size="10.00">includes/master_slave</text>
<text text-anchor="middle" x="1526.76" y="-667" font-family="Helvetica,sans-Serif" font-size="10.00">_constraint.h</text>
</a>
</g>
</g>
<!-- Node24&#45;&gt;Node88 -->
<g id="edge138" class="edge">
<title>Node24&#45;&gt;Node88</title>
<path fill="none" stroke="#63b8ff" d="M1624.99,-846.74C1615.7,-825.44 1590.5,-769.51 1563.76,-726 1558.23,-717.01 1551.53,-707.59 1545.36,-699.39"/>
<polygon fill="#63b8ff" stroke="#63b8ff" points="1548.25,-697.41 1539.38,-691.61 1542.7,-701.67 1548.25,-697.41"/>
</g>
<!-- Node100 -->
<g id="node33" class="node">
<title>Node100</title>
<g id="a_node33"><a xlink:href="../../d0/dac/kratos__flags_8h.html" target="_top" xlink:title=" ">
<polygon fill="#fff0f0" stroke="red" points="1652.76,-624 1524.76,-624 1524.76,-605 1652.76,-605 1652.76,-624"/>
<text text-anchor="middle" x="1588.76" y="-612" font-family="Helvetica,sans-Serif" font-size="10.00">includes/kratos_flags.h</text>
</a>
</g>
</g>
<!-- Node24&#45;&gt;Node100 -->
<g id="edge137" class="edge">
<title>Node24&#45;&gt;Node100</title>
<path fill="none" stroke="#63b8ff" d="M1627.65,-846.89C1624.09,-819.48 1612.33,-731.87 1598.76,-660 1597.23,-651.93 1595.3,-643.09 1593.54,-635.43"/>
<polygon fill="#63b8ff" stroke="#63b8ff" points="1596.98,-634.73 1591.28,-625.8 1590.16,-636.34 1596.98,-634.73"/>
</g>
<!-- Node101 -->
<g id="node34" class="node">
<title>Node101</title>
<g id="a_node34"><a xlink:href="../../d3/dad/geometry__container_8h.html" target="_top" xlink:title=" ">
<polygon fill="white" stroke="#666666" points="1274.76,-437 1156.76,-437 1156.76,-407 1274.76,-407 1274.76,-437"/>
<text text-anchor="start" x="1164.76" y="-425" font-family="Helvetica,sans-Serif" font-size="10.00">containers/geometry</text>
<text text-anchor="middle" x="1215.76" y="-414" font-family="Helvetica,sans-Serif" font-size="10.00">_container.h</text>
</a>
</g>
</g>
<!-- Node24&#45;&gt;Node101 -->
<g id="edge103" class="edge">
<title>Node24&#45;&gt;Node101</title>
<path fill="none" stroke="#63b8ff" d="M1566.15,-855.84C1461.68,-855.23 1245.73,-848.95 1067.76,-811 981.97,-792.71 932.36,-816.65 881.76,-745 787.46,-611.47 1052.6,-487.28 1166.53,-441.55"/>
<polygon fill="#63b8ff" stroke="#63b8ff" points="1167.66,-444.87 1175.66,-437.93 1165.07,-438.36 1167.66,-444.87"/>
</g>
<!-- Node102 -->
<g id="node35" class="node">
<title>Node102</title>
<g id="a_node35"><a xlink:href="../../da/d92/pointer__hash__map__set_8h.html" target="_top" xlink:title=" ">
<polygon fill="#fff0f0" stroke="red" points="2044.26,-371 1939.26,-371 1939.26,-341 2044.26,-341 2044.26,-371"/>
<text text-anchor="start" x="1947.26" y="-359" font-family="Helvetica,sans-Serif" font-size="10.00">containers/pointer</text>
<text text-anchor="middle" x="1991.76" y="-348" font-family="Helvetica,sans-Serif" font-size="10.00">_hash_map_set.h</text>
</a>
</g>
</g>
<!-- Node24&#45;&gt;Node102 -->
<g id="edge135" class="edge">
<title>Node24&#45;&gt;Node102</title>
<path fill="none" stroke="#63b8ff" d="M1691.62,-854.6C1768.31,-852.08 1891.63,-843.02 1922.76,-811 1983.78,-748.24 1946.76,-703.04 1946.76,-615.5 1946.76,-615.5 1946.76,-615.5 1946.76,-553 1946.76,-490.31 1968.9,-419.13 1982.12,-382.22"/>
<polygon fill="#63b8ff" stroke="#63b8ff" points="1985.38,-383.5 1985.54,-372.91 1978.8,-381.09 1985.38,-383.5"/>
</g>
<!-- Node103 -->
<g id="node36" class="node">
<title>Node103</title>
<g id="a_node36"><a xlink:href="../../d4/dfe/element_8h.html" target="_top" xlink:title=" ">
<polygon fill="#fff0f0" stroke="red" points="1322.76,-745 1212.76,-745 1212.76,-726 1322.76,-726 1322.76,-745"/>
<text text-anchor="middle" x="1267.76" y="-733" font-family="Helvetica,sans-Serif" font-size="10.00">includes/element.h</text>
</a>
</g>
</g>
<!-- Node24&#45;&gt;Node103 -->
<g id="edge109" class="edge">
<title>Node24&#45;&gt;Node103</title>
<path fill="none" stroke="#63b8ff" d="M1596.72,-846.51C1566.25,-837.83 1519.19,-824.13 1478.76,-811 1416.14,-790.67 1343.97,-764.61 1302.32,-749.32"/>
<polygon fill="#63b8ff" stroke="#63b8ff" points="1303.69,-746.09 1293.09,-745.92 1301.27,-752.66 1303.69,-746.09"/>
</g>
<!-- Node120 -->
<g id="node38" class="node">
<title>Node120</title>
<g id="a_node38"><a xlink:href="../../d7/d6c/condition_8h.html" target="_top" xlink:title=" ">
<polygon fill="#fff0f0" stroke="red" points="1454.76,-745 1340.76,-745 1340.76,-726 1454.76,-726 1454.76,-745"/>
<text text-anchor="middle" x="1397.76" y="-733" font-family="Helvetica,sans-Serif" font-size="10.00">includes/condition.h</text>
</a>
</g>
</g>
<!-- Node24&#45;&gt;Node120 -->
<g id="edge116" class="edge">
<title>Node24&#45;&gt;Node120</title>
<path fill="none" stroke="#63b8ff" d="M1609.39,-846.57C1590.48,-837.77 1560.96,-823.82 1535.76,-811 1496.34,-790.94 1451.38,-766.35 1423.79,-751.04"/>
<polygon fill="#63b8ff" stroke="#63b8ff" points="1425.53,-748.01 1415.09,-746.21 1422.13,-754.13 1425.53,-748.01"/>
</g>
<!-- Node121 -->
<g id="node39" class="node">
<title>Node121</title>
<g id="a_node39"><a xlink:href="../../d8/d75/communicator_8h.html" target="_top" xlink:title=" ">
<polygon fill="white" stroke="#666666" points="1337.26,-805.5 1198.26,-805.5 1198.26,-786.5 1337.26,-786.5 1337.26,-805.5"/>
<text text-anchor="middle" x="1267.76" y="-793.5" font-family="Helvetica,sans-Serif" font-size="10.00">includes/communicator.h</text>
</a>
</g>
</g>
<!-- Node24&#45;&gt;Node121 -->
<g id="edge119" class="edge">
<title>Node24&#45;&gt;Node121</title>
<path fill="none" stroke="#63b8ff" d="M1573.54,-846.55C1509.27,-836.14 1403.19,-818.95 1334.4,-807.8"/>
<polygon fill="#63b8ff" stroke="#63b8ff" points="1335.2,-804.38 1324.76,-806.24 1334.08,-811.29 1335.2,-804.38"/>
</g>
<!-- Node105 -->
<g id="node40" class="node">
<title>Node105</title>
<g id="a_node40"><a xlink:href="../../dd/d98/table_8h.html" target="_top" xlink:title=" ">
<polygon fill="white" stroke="#666666" points="1804.76,-497.5 1710.76,-497.5 1710.76,-478.5 1804.76,-478.5 1804.76,-497.5"/>
<text text-anchor="middle" x="1757.76" y="-485.5" font-family="Helvetica,sans-Serif" font-size="10.00">includes/table.h</text>
</a>
</g>
</g>
<!-- Node24&#45;&gt;Node105 -->
<g id="edge128" class="edge">
<title>Node24&#45;&gt;Node105</title>
<path fill="none" stroke="#63b8ff" d="M1666.01,-846.55C1714.95,-832.31 1794.76,-799.44 1794.76,-736.5 1794.76,-736.5 1794.76,-736.5 1794.76,-613.5 1794.76,-574.74 1778.08,-531.91 1767.12,-507.94"/>
<polygon fill="#63b8ff" stroke="#63b8ff" points="1770.4,-506.69 1762.95,-499.16 1764.08,-509.69 1770.4,-506.69"/>
</g>
<!-- Node26&#45;&gt;Node3 -->
<g id="edge35" class="edge">
<title>Node26&#45;&gt;Node3</title>
<path fill="none" stroke="#63b8ff" d="M2399.7,-291.52C2588.63,-281.62 3190.52,-250.1 3327.04,-242.95"/>
<polygon fill="#63b8ff" stroke="#63b8ff" points="3327.12,-246.45 3336.93,-242.43 3326.76,-239.46 3327.12,-246.45"/>
</g>
<!-- Node26&#45;&gt;Node6 -->
<g id="edge31" class="edge">
<title>Node26&#45;&gt;Node6</title>
<path fill="none" stroke="#63b8ff" d="M2347.8,-285.88C2355.72,-272.86 2372.12,-247.89 2390.76,-231 2425.5,-199.53 2438.96,-197.22 2480.76,-176 2595.2,-117.91 2623.8,-99.25 2747.76,-66 2870.14,-33.18 3021.16,-21.39 3087.19,-17.6"/>
<polygon fill="#63b8ff" stroke="#63b8ff" points="3087.2,-21.11 3097,-17.07 3086.82,-14.12 3087.2,-21.11"/>
</g>
<!-- Node26&#45;&gt;Node7 -->
<g id="edge32" class="edge">
<title>Node26&#45;&gt;Node7</title>
<path fill="none" stroke="#63b8ff" d="M2340.53,-285.61C2336.14,-267.22 2326.76,-223.65 2326.76,-186.5 2326.76,-186.5 2326.76,-186.5 2326.76,-129.5 2326.76,-46.53 2033.23,-23.48 1922.42,-17.74"/>
<polygon fill="#63b8ff" stroke="#63b8ff" points="1922.74,-14.25 1912.58,-17.25 1922.39,-21.24 1922.74,-14.25"/>
</g>
<!-- Node26&#45;&gt;Node8 -->
<g id="edge37" class="edge">
<title>Node26&#45;&gt;Node8</title>
<path fill="none" stroke="#63b8ff" d="M2399.73,-289.99C2473.56,-283.71 2606.44,-270.89 2729.8,-250.14"/>
<polygon fill="#63b8ff" stroke="#63b8ff" points="2730.18,-253.63 2739.45,-248.5 2729.01,-246.73 2730.18,-253.63"/>
</g>
<!-- Node26&#45;&gt;Node9 -->
<g id="edge33" class="edge">
<title>Node26&#45;&gt;Node9</title>
<path fill="none" stroke="#63b8ff" d="M2360.91,-285.51C2377.53,-277.27 2402.4,-264.96 2421.6,-255.45"/>
<polygon fill="#63b8ff" stroke="#63b8ff" points="2423.11,-258.6 2430.52,-251.03 2420,-252.33 2423.11,-258.6"/>
</g>
<!-- Node26&#45;&gt;Node10 -->
<g id="edge34" class="edge">
<title>Node26&#45;&gt;Node10</title>
<path fill="none" stroke="#63b8ff" d="M2327.32,-285.51C2313.51,-277.47 2293.01,-265.53 2276.85,-256.11"/>
<polygon fill="#63b8ff" stroke="#63b8ff" points="2278.68,-253.13 2268.28,-251.12 2275.16,-259.18 2278.68,-253.13"/>
</g>
<!-- Node26&#45;&gt;Node12 -->
<g id="edge38" class="edge">
<title>Node26&#45;&gt;Node12</title>
<path fill="none" stroke="#63b8ff" d="M2285.92,-288.48C2226.35,-281.57 2130.26,-268.73 2048.76,-250 1940.8,-225.2 1919.55,-196.85 1810.76,-176 1625.93,-140.58 1402.55,-133.18 1296.86,-131.75"/>
<polygon fill="#63b8ff" stroke="#63b8ff" points="1297.03,-128.26 1286.99,-131.63 1296.95,-135.25 1297.03,-128.26"/>
</g>
<!-- Node26&#45;&gt;Node14 -->
<g id="edge36" class="edge">
<title>Node26&#45;&gt;Node14</title>
<path fill="none" stroke="#63b8ff" d="M2303.41,-285.51C2264.95,-276.67 2204.76,-262.7 2152.76,-250 2023.12,-218.34 1992.8,-201.23 1861.76,-176 1846.93,-173.14 898.12,-48.38 691.29,-21.2"/>
<polygon fill="#63b8ff" stroke="#63b8ff" points="691.96,-17.75 681.59,-19.92 691.05,-24.69 691.96,-17.75"/>
</g>
<!-- Node30 -->
<g id="node22" class="node">
<title>Node30</title>
<g id="a_node22"><a xlink:href="../../d9/d3e/ublas__interface_8h.html" target="_top" xlink:title=" ">
<polygon fill="#fff0f0" stroke="red" points="2633.76,-195 2489.76,-195 2489.76,-176 2633.76,-176 2633.76,-195"/>
<text text-anchor="middle" x="2561.76" y="-183" font-family="Helvetica,sans-Serif" font-size="10.00">includes/ublas_interface.h</text>
</a>
</g>
</g>
<!-- Node26&#45;&gt;Node30 -->
<g id="edge39" class="edge">
<title>Node26&#45;&gt;Node30</title>
<path fill="none" stroke="#63b8ff" d="M2351.22,-285.89C2364.9,-272.41 2393.23,-246.31 2421.76,-231 2449.12,-216.32 2482.11,-205.54 2509.2,-198.27"/>
<polygon fill="#63b8ff" stroke="#63b8ff" points="2509.76,-201.74 2518.56,-195.84 2508,-194.97 2509.76,-201.74"/>
</g>
<!-- Node46 -->
<g id="node23" class="node">
<title>Node46</title>
<g id="a_node23"><a xlink:href="../../d9/d36/array__1d_8h.html" target="_top" xlink:title=" ">
<polygon fill="#fff0f0" stroke="red" points="2722.76,-250 2600.76,-250 2600.76,-231 2722.76,-231 2722.76,-250"/>
<text text-anchor="middle" x="2661.76" y="-238" font-family="Helvetica,sans-Serif" font-size="10.00">containers/array_1d.h</text>
</a>
</g>
</g>
<!-- Node26&#45;&gt;Node46 -->
<g id="edge43" class="edge">
<title>Node26&#45;&gt;Node46</title>
<path fill="none" stroke="#63b8ff" d="M2396.87,-285.51C2452.06,-276.34 2537.73,-262.11 2596.61,-252.32"/>
<polygon fill="#63b8ff" stroke="#63b8ff" points="2596.86,-255.83 2606.15,-250.74 2595.71,-248.92 2596.86,-255.83"/>
</g>
<!-- Node26&#45;&gt;Node56 -->
<g id="edge48" class="edge">
<title>Node26&#45;&gt;Node56</title>
<path fill="none" stroke="#63b8ff" d="M2305.46,-285.51C2275.29,-277.69 2232.02,-265.24 2195.76,-250 2122.28,-219.12 2041.32,-170.41 2002.71,-146.18"/>
<polygon fill="#63b8ff" stroke="#63b8ff" points="2005.01,-143.5 1994.69,-141.12 2001.27,-149.42 2005.01,-143.5"/>
</g>
<!-- Node30&#45;&gt;Node6 -->
<g id="edge40" class="edge">
<title>Node30&#45;&gt;Node6</title>
<path fill="none" stroke="#63b8ff" d="M2621.22,-175.57C2650.59,-169.11 2685.47,-158.19 2712.76,-140 2747.99,-116.51 2735.93,-86.9 2772.76,-66 2826.17,-35.69 3010.64,-22.14 3087.13,-17.72"/>
<polygon fill="#63b8ff" stroke="#63b8ff" points="3087.14,-21.23 3096.93,-17.18 3086.75,-14.24 3087.14,-21.23"/>
</g>
<!-- Node30&#45;&gt;Node7 -->
<g id="edge41" class="edge">
<title>Node30&#45;&gt;Node7</title>
<path fill="none" stroke="#63b8ff" d="M2558.42,-175.65C2549.26,-152.78 2521.37,-91.72 2475.76,-66 2427.76,-38.94 2049.08,-22.34 1922.1,-17.49"/>
<polygon fill="#63b8ff" stroke="#63b8ff" points="1922.6,-14.01 1912.48,-17.13 1922.34,-21 1922.6,-14.01"/>
</g>
<!-- Node30&#45;&gt;Node12 -->
<g id="edge42" class="edge">
<title>Node30&#45;&gt;Node12</title>
<path fill="none" stroke="#63b8ff" d="M2489.43,-180.87C2457.36,-179.31 2419.18,-177.49 2384.76,-176 1969,-157.97 1468.47,-139.8 1296.9,-133.67"/>
<polygon fill="#63b8ff" stroke="#63b8ff" points="1297.23,-130.18 1287.11,-133.32 1296.98,-137.17 1297.23,-130.18"/>
</g>
<!-- Node46&#45;&gt;Node6 -->
<g id="edge44" class="edge">
<title>Node46&#45;&gt;Node6</title>
<path fill="none" stroke="#63b8ff" d="M2671.64,-230.79C2704.22,-202.53 2812.08,-112.61 2916.76,-66 2973.76,-40.62 3045.7,-26.83 3087.14,-20.48"/>
<polygon fill="#63b8ff" stroke="#63b8ff" points="3087.6,-23.95 3096.98,-19.03 3086.58,-17.02 3087.6,-23.95"/>
</g>
<!-- Node46&#45;&gt;Node7 -->
<g id="edge45" class="edge">
<title>Node46&#45;&gt;Node7</title>
<path fill="none" stroke="#63b8ff" d="M2660.81,-230.56C2659.07,-217.56 2654.42,-193.12 2642.76,-176 2598.22,-110.59 2576.45,-94.84 2502.76,-66 2396.46,-24.39 2043.69,-17.41 1922.25,-16.23"/>
<polygon fill="#63b8ff" stroke="#63b8ff" points="1922.45,-12.74 1912.42,-16.15 1922.39,-19.74 1922.45,-12.74"/>
</g>
<!-- Node46&#45;&gt;Node12 -->
<g id="edge46" class="edge">
<title>Node46&#45;&gt;Node12</title>
<path fill="none" stroke="#63b8ff" d="M2600.57,-233.33C2479.08,-221.22 2198.78,-193.94 1962.76,-176 1716.08,-157.25 1421.84,-141.17 1296.8,-134.63"/>
<polygon fill="#63b8ff" stroke="#63b8ff" points="1297.27,-131.15 1287.11,-134.12 1296.91,-138.14 1297.27,-131.15"/>
</g>
<!-- Node46&#45;&gt;Node30 -->
<g id="edge47" class="edge">
<title>Node46&#45;&gt;Node30</title>
<path fill="none" stroke="#63b8ff" d="M2644.8,-230.51C2629.4,-222.35 2606.45,-210.19 2588.57,-200.71"/>
<polygon fill="#63b8ff" stroke="#63b8ff" points="2590.28,-197.66 2579.81,-196.07 2587.01,-203.84 2590.28,-197.66"/>
</g>
<!-- Node56&#45;&gt;Node6 -->
<g id="edge49" class="edge">
<title>Node56&#45;&gt;Node6</title>
<path fill="none" stroke="#63b8ff" d="M2039.9,-123.52C2247.08,-102.91 2927.21,-35.25 3086.96,-19.36"/>
<polygon fill="#63b8ff" stroke="#63b8ff" points="3087.25,-22.85 3096.86,-18.38 3086.56,-15.88 3087.25,-22.85"/>
</g>
<!-- Node56&#45;&gt;Node7 -->
<g id="edge50" class="edge">
<title>Node56&#45;&gt;Node7</title>
<path fill="none" stroke="#63b8ff" d="M1971.99,-120.59C1955.65,-101.86 1917.48,-58.1 1896.05,-33.53"/>
<polygon fill="#63b8ff" stroke="#63b8ff" points="1898.7,-31.24 1889.49,-26.01 1893.42,-35.84 1898.7,-31.24"/>
</g>
<!-- Node56&#45;&gt;Node20 -->
<g id="edge51" class="edge">
<title>Node56&#45;&gt;Node20</title>
<path fill="none" stroke="#63b8ff" d="M1919.5,-122.81C1912.85,-122.15 1906.16,-121.54 1899.76,-121 1642.54,-99.47 1574.35,-109.2 1314.86,-85.23"/>
<polygon fill="#63b8ff" stroke="#63b8ff" points="1315.35,-81.76 1305.07,-84.32 1314.7,-88.73 1315.35,-81.76"/>
</g>
<!-- Node59&#45;&gt;Node6 -->
<g id="edge53" class="edge">
<title>Node59&#45;&gt;Node6</title>
<path fill="none" stroke="#63b8ff" d="M1468.75,-607.93C1484.16,-606.8 1500.53,-605.73 1515.76,-605 1611.28,-600.41 3153.85,-616.66 3236.76,-569 3310.69,-526.5 3436.76,-326.78 3436.76,-241.5 3436.76,-241.5 3436.76,-241.5 3436.76,-129.5 3436.76,-85.48 3400.38,-85.17 3360.76,-66 3292.24,-32.84 3202.33,-21.61 3154.35,-17.85"/>
<polygon fill="#63b8ff" stroke="#63b8ff" points="3154.83,-14.38 3144.6,-17.16 3154.33,-21.36 3154.83,-14.38"/>
</g>
<!-- Node59&#45;&gt;Node7 -->
<g id="edge54" class="edge">
<title>Node59&#45;&gt;Node7</title>
<path fill="none" stroke="#63b8ff" d="M1450.19,-604.51C1474.83,-597.95 1504.22,-586.96 1525.76,-569 1615.87,-493.88 1596.08,-440.17 1658.76,-341 1734.27,-221.54 1832.67,-82.97 1867.69,-34.15"/>
<polygon fill="#63b8ff" stroke="#63b8ff" points="1870.46,-36.28 1873.46,-26.12 1864.78,-32.2 1870.46,-36.28"/>
</g>
<!-- Node59&#45;&gt;Node12 -->
<g id="edge57" class="edge">
<title>Node59&#45;&gt;Node12</title>
<path fill="none" stroke="#63b8ff" d="M1336.92,-611.34C1284.74,-607.42 1211.14,-596.88 1152.76,-569 1132.57,-559.36 1086.04,-523.35 1076.76,-503 1059.06,-464.18 1075.35,-449.64 1076.76,-407 1078.54,-353.13 1071.23,-338.17 1084.76,-286 1098.34,-233.66 1098.16,-213.87 1136.76,-176 1151.53,-161.51 1171.85,-151.26 1190.24,-144.28"/>
<polygon fill="#63b8ff" stroke="#63b8ff" points="1191.39,-147.59 1199.65,-140.95 1189.05,-140.99 1191.39,-147.59"/>
</g>
<!-- Node59&#45;&gt;Node14 -->
<g id="edge55" class="edge">
<title>Node59&#45;&gt;Node14</title>
<path fill="none" stroke="#63b8ff" d="M1336.89,-610.92C1268.01,-606.81 1157.41,-596.22 1065.76,-569 847.79,-504.26 632.76,-523.88 632.76,-296.5 632.76,-296.5 632.76,-296.5 632.76,-129.5 632.76,-96.28 640.78,-58.33 646.39,-35.81"/>
<polygon fill="#63b8ff" stroke="#63b8ff" points="649.76,-36.77 648.89,-26.21 642.99,-35.01 649.76,-36.77"/>
</g>
<!-- Node59&#45;&gt;Node25 -->
<g id="edge56" class="edge">
<title>Node59&#45;&gt;Node25</title>
<path fill="none" stroke="#63b8ff" d="M1336.87,-613.59C1276.47,-611.34 1185.9,-601.99 1114.76,-569 1004.07,-517.67 941.77,-369.49 922.39,-316.03"/>
<polygon fill="#63b8ff" stroke="#63b8ff" points="925.75,-315.05 919.14,-306.78 919.15,-317.37 925.75,-315.05"/>
</g>
<!-- Node59&#45;&gt;Node60 -->
<g id="edge58" class="edge">
<title>Node59&#45;&gt;Node60</title>
<path fill="none" stroke="#63b8ff" d="M1410.43,-604.87C1416.83,-597.67 1426.25,-587.07 1434.76,-577.49"/>
<polygon fill="#63b8ff" stroke="#63b8ff" points="1437.18,-580.05 1441.21,-570.25 1431.95,-575.39 1437.18,-580.05"/>
</g>
<!-- Node60&#45;&gt;Node6 -->
<g id="edge59" class="edge">
<title>Node60&#45;&gt;Node6</title>
<path fill="none" stroke="#63b8ff" d="M1517.53,-552.07C1721.22,-548.77 2362.38,-535.97 2566.76,-503 2780.12,-468.59 2834.59,-452.49 3034.76,-371 3146.29,-325.59 3272.76,-361.92 3272.76,-241.5 3272.76,-241.5 3272.76,-241.5 3272.76,-129.5 3272.76,-70.72 3198.89,-38.74 3154.14,-24.75"/>
<polygon fill="#63b8ff" stroke="#63b8ff" points="3155.22,-21.42 3144.64,-21.93 3153.23,-28.13 3155.22,-21.42"/>
</g>
<!-- Node60&#45;&gt;Node7 -->
<g id="edge60" class="edge">
<title>Node60&#45;&gt;Node7</title>
<path fill="none" stroke="#63b8ff" d="M1460.3,-538.75C1463.98,-528.84 1468.68,-515.27 1471.76,-503 1501.58,-384.15 1463,-341.11 1516.76,-231 1560.5,-141.4 1582.68,-116.32 1668.76,-66 1722.4,-34.64 1794.52,-22.94 1839.3,-18.58"/>
<polygon fill="#63b8ff" stroke="#63b8ff" points="1839.46,-22.08 1849.11,-17.71 1838.84,-15.11 1839.46,-22.08"/>
</g>
<!-- Node60&#45;&gt;Node12 -->
<g id="edge63" class="edge">
<title>Node60&#45;&gt;Node12</title>
<path fill="none" stroke="#63b8ff" d="M1432.83,-538.53C1393.26,-511.09 1310.42,-447.36 1271.76,-371 1234.24,-296.89 1233.19,-194.53 1234.66,-151.66"/>
<polygon fill="#63b8ff" stroke="#63b8ff" points="1238.15,-152.02 1235.1,-141.87 1231.16,-151.71 1238.15,-152.02"/>
</g>
<!-- Node60&#45;&gt;Node20 -->
<g id="edge80" class="edge">
<title>Node60&#45;&gt;Node20</title>
<path fill="none" stroke="#63b8ff" d="M1455.79,-538.62C1457.81,-503.68 1460.16,-411.94 1435.76,-341 1397.91,-230.95 1369.03,-209.76 1293.76,-121 1285.06,-110.75 1274.08,-100.57 1264.72,-92.54"/>
<polygon fill="#63b8ff" stroke="#63b8ff" points="1267.13,-89.99 1257.2,-86.28 1262.64,-95.37 1267.13,-89.99"/>
</g>
<!-- Node60&#45;&gt;Node21 -->
<g id="edge62" class="edge">
<title>Node60&#45;&gt;Node21</title>
<path fill="none" stroke="#63b8ff" d="M1391.83,-541.48C1339.31,-531.71 1262.53,-517.08 1195.76,-503 938.35,-448.73 867.52,-456.58 618.76,-371 575.14,-355.99 269.93,-232.28 242.76,-195 208.73,-148.31 222.73,-111.16 258.76,-66 270.3,-51.53 287.07,-39.35 301.3,-30.64"/>
<polygon fill="#63b8ff" stroke="#63b8ff" points="302.92,-33.75 309.8,-25.69 299.4,-27.7 302.92,-33.75"/>
</g>
<!-- Node60&#45;&gt;Node25 -->
<g id="edge61" class="edge">
<title>Node60&#45;&gt;Node25</title>
<path fill="none" stroke="#63b8ff" d="M1396.18,-538.51C1326.75,-520.11 1208.65,-484.9 1114.76,-437 1043.14,-400.46 968.14,-340.7 934.28,-312.36"/>
<polygon fill="#63b8ff" stroke="#63b8ff" points="936.91,-310.01 927.02,-306.23 932.4,-315.35 936.91,-310.01"/>
</g>
<!-- Node60&#45;&gt;Node61 -->
<g id="edge64" class="edge">
<title>Node60&#45;&gt;Node61</title>
<path fill="none" stroke="#63b8ff" d="M1517.74,-546.64C1589.75,-538.8 1710.93,-523.92 1813.76,-503 1907.26,-483.97 2014.94,-452.53 2071.44,-435.28"/>
<polygon fill="#63b8ff" stroke="#63b8ff" points="2072.39,-438.65 2080.92,-432.36 2070.34,-431.95 2072.39,-438.65"/>
</g>
<!-- Node64 -->
<g id="node29" class="node">
<title>Node64</title>
<g id="a_node29"><a xlink:href="../../dc/d8e/kratos__components_8h.html" target="_top" xlink:title=" ">
<polygon fill="#fff0f0" stroke="red" points="2330.26,-497.5 2165.26,-497.5 2165.26,-478.5 2330.26,-478.5 2330.26,-497.5"/>
<text text-anchor="middle" x="2247.76" y="-485.5" font-family="Helvetica,sans-Serif" font-size="10.00">includes/kratos_components.h</text>
</a>
</g>
</g>
<!-- Node60&#45;&gt;Node64 -->
<g id="edge74" class="edge">
<title>Node60&#45;&gt;Node64</title>
<path fill="none" stroke="#63b8ff" d="M1517.65,-547.92C1656.59,-536.71 1990.34,-509.78 2154.03,-496.56"/>
<polygon fill="#63b8ff" stroke="#63b8ff" points="2153.84,-500.09 2163.53,-495.8 2153.28,-493.11 2153.84,-500.09"/>
</g>
<!-- Node61&#45;&gt;Node6 -->
<g id="edge65" class="edge">
<title>Node61&#45;&gt;Node6</title>
<path fill="none" stroke="#63b8ff" d="M2157.92,-412.05C2245.6,-395.7 2439.79,-360.86 2604.76,-341 2705.24,-328.9 2971.06,-355.52 3058.76,-305 3110.26,-275.33 3120.76,-245.94 3120.76,-186.5 3120.76,-186.5 3120.76,-186.5 3120.76,-129.5 3120.76,-96.89 3120.76,-59 3120.76,-36.29"/>
<polygon fill="#63b8ff" stroke="#63b8ff" points="3124.26,-36.34 3120.76,-26.34 3117.26,-36.34 3124.26,-36.34"/>
</g>
<!-- Node61&#45;&gt;Node7 -->
<g id="edge66" class="edge">
<title>Node61&#45;&gt;Node7</title>
<path fill="none" stroke="#63b8ff" d="M2125.62,-412.03C2138.43,-403.35 2156.04,-388.89 2163.76,-371 2181.57,-329.72 2126.28,-257.39 2124.76,-250 2123.06,-241.73 2123.67,-239.37 2124.76,-231 2131.19,-181.38 2154.55,-170.7 2148.76,-121 2145.85,-96.05 2153.86,-83.42 2135.76,-66 2105.77,-37.14 1986.54,-23.91 1922.29,-18.77"/>
<polygon fill="#63b8ff" stroke="#63b8ff" points="1922.71,-15.29 1912.47,-18.02 1922.18,-22.27 1922.71,-15.29"/>
</g>
<!-- Node61&#45;&gt;Node12 -->
<g id="edge67" class="edge">
<title>Node61&#45;&gt;Node12</title>
<path fill="none" stroke="#63b8ff" d="M2050.89,-414.86C1998.82,-408.18 1922.01,-395.08 1858.76,-371 1744.07,-327.33 1731.82,-283.21 1620.76,-231 1555.74,-200.44 1538.04,-195.02 1468.76,-176 1411.16,-160.19 1344.03,-148.01 1296.67,-140.42"/>
<polygon fill="#63b8ff" stroke="#63b8ff" points="1297.29,-136.97 1286.87,-138.87 1296.2,-143.89 1297.29,-136.97"/>
</g>
<!-- Node61&#45;&gt;Node62 -->
<g id="edge68" class="edge">
<title>Node61&#45;&gt;Node62</title>
<path fill="none" stroke="#63b8ff" d="M2110.48,-412.1C2110.2,-403.12 2109.76,-388.95 2109.39,-377.22"/>
<polygon fill="#63b8ff" stroke="#63b8ff" points="2112.89,-377.22 2109.08,-367.34 2105.9,-377.44 2112.89,-377.22"/>
</g>
<!-- Node62&#45;&gt;Node6 -->
<g id="edge69" class="edge">
<title>Node62&#45;&gt;Node6</title>
<path fill="none" stroke="#63b8ff" d="M2155.08,-349.89C2183.05,-346.95 2219.42,-343.38 2251.76,-341 2332.86,-335.04 2911.7,-344.54 2982.76,-305 3051.48,-266.77 3054.96,-89.55 3068.76,-66 3076.5,-52.8 3088.7,-40.8 3099.34,-31.88"/>
<polygon fill="#63b8ff" stroke="#63b8ff" points="3101.31,-34.78 3106.95,-25.81 3096.95,-29.31 3101.31,-34.78"/>
</g>
<!-- Node62&#45;&gt;Node7 -->
<g id="edge70" class="edge">
<title>Node62&#45;&gt;Node7</title>
<path fill="none" stroke="#63b8ff" d="M2105.38,-346.29C2101.7,-336.43 2095.9,-319.8 2092.76,-305 2087.65,-280.95 2088.09,-274.55 2086.76,-250 2086.3,-241.57 2084.02,-238.99 2086.76,-231 2093.34,-211.83 2108.18,-214.17 2114.76,-195 2133.37,-140.77 2150.82,-110.58 2114.76,-66 2091,-36.63 1982.89,-23.75 1922.28,-18.76"/>
<polygon fill="#63b8ff" stroke="#63b8ff" points="1922.58,-15.27 1912.34,-17.98 1922.03,-22.25 1922.58,-15.27"/>
</g>
<!-- Node62&#45;&gt;Node12 -->
<g id="edge72" class="edge">
<title>Node62&#45;&gt;Node12</title>
<path fill="none" stroke="#63b8ff" d="M2087.01,-346.06C2006.34,-313.02 1724.08,-198.59 1629.76,-176 1513.95,-148.27 1374.74,-137.69 1296.64,-133.75"/>
<polygon fill="#63b8ff" stroke="#63b8ff" points="1297.24,-130.28 1287.08,-133.29 1296.9,-137.27 1297.24,-130.28"/>
</g>
<!-- Node62&#45;&gt;Node25 -->
<g id="edge71" class="edge">
<title>Node62&#45;&gt;Node25</title>
<path fill="none" stroke="#63b8ff" d="M2077.59,-346C2069.56,-344.02 2060.89,-342.16 2052.76,-341 1833.62,-309.66 1126.72,-299.09 954.07,-296.94"/>
<polygon fill="#63b8ff" stroke="#63b8ff" points="954.13,-293.44 944.09,-296.82 954.04,-300.44 954.13,-293.44"/>
</g>
<!-- Node62&#45;&gt;Node26 -->
<g id="edge73" class="edge">
<title>Node62&#45;&gt;Node26</title>
<path fill="none" stroke="#63b8ff" d="M2144.55,-346.05C2185.07,-335.92 2251.22,-319.39 2295.84,-308.23"/>
<polygon fill="#63b8ff" stroke="#63b8ff" points="2296.65,-311.64 2305.5,-305.81 2294.95,-304.84 2296.65,-311.64"/>
</g>
<!-- Node64&#45;&gt;Node6 -->
<g id="edge75" class="edge">
<title>Node64&#45;&gt;Node6</title>
<path fill="none" stroke="#63b8ff" d="M2273.91,-478.03C2349.47,-452.47 2574.96,-378.69 2767.76,-341 2907.79,-313.63 2962.22,-374.63 3086.76,-305 3140.55,-274.93 3158.76,-248.13 3158.76,-186.5 3158.76,-186.5 3158.76,-186.5 3158.76,-129.5 3158.76,-94.64 3142.44,-56.73 3131.19,-34.73"/>
<polygon fill="#63b8ff" stroke="#63b8ff" points="3134.39,-33.3 3126.6,-26.12 3128.21,-36.59 3134.39,-33.3"/>
</g>
<!-- Node64&#45;&gt;Node7 -->
<g id="edge76" class="edge">
<title>Node64&#45;&gt;Node7</title>
<path fill="none" stroke="#63b8ff" d="M2245.86,-478.39C2239.06,-447.5 2215.26,-339.31 2195.76,-250 2177.9,-168.24 2215.94,-124.16 2155.76,-66 2123.02,-34.36 1990.53,-22.24 1922.11,-18.02"/>
<polygon fill="#63b8ff" stroke="#63b8ff" points="1922.6,-14.55 1912.42,-17.46 1922.2,-21.54 1922.6,-14.55"/>
</g>
<!-- Node64&#45;&gt;Node9 -->
<g id="edge77" class="edge">
<title>Node64&#45;&gt;Node9</title>
<path fill="none" stroke="#63b8ff" d="M2256.2,-478.28C2280.81,-452.69 2354.1,-375.19 2407.76,-305 2418.92,-290.4 2430.35,-272.92 2438.46,-260"/>
<polygon fill="#63b8ff" stroke="#63b8ff" points="2441.33,-262.02 2443.62,-251.67 2435.38,-258.33 2441.33,-262.02"/>
</g>
<!-- Node64&#45;&gt;Node12 -->
<g id="edge78" class="edge">
<title>Node64&#45;&gt;Node12</title>
<path fill="none" stroke="#63b8ff" d="M2243.07,-478.2C2233.5,-461.23 2209.96,-424.1 2178.76,-407 2080.7,-353.26 2036.39,-404.66 1929.76,-371 1735.8,-309.77 1711.8,-230.19 1515.76,-176 1441.86,-155.57 1354.22,-143.53 1296.93,-137.23"/>
<polygon fill="#63b8ff" stroke="#63b8ff" points="1297.36,-133.75 1287.04,-136.17 1296.61,-140.71 1297.36,-133.75"/>
</g>
<!-- Node64&#45;&gt;Node61 -->
<g id="edge79" class="edge">
<title>Node64&#45;&gt;Node61</title>
<path fill="none" stroke="#63b8ff" d="M2228.71,-478.1C2205.7,-467.35 2166.77,-449.16 2139.96,-436.64"/>
<polygon fill="#63b8ff" stroke="#63b8ff" points="2141.56,-433.53 2131.02,-432.46 2138.6,-439.87 2141.56,-433.53"/>
</g>
<!-- Node72&#45;&gt;Node6 -->
<g id="edge83" class="edge">
<title>Node72&#45;&gt;Node6</title>
<path fill="none" stroke="#63b8ff" d="M986.89,-732.48C1095.99,-727.63 1370.32,-713.93 1598.76,-690 1865.31,-662.08 1928.77,-628.41 2195.76,-605 2314.7,-594.57 3160.79,-617.8 3269.76,-569 3348.12,-533.91 3474.76,-327.36 3474.76,-241.5 3474.76,-241.5 3474.76,-241.5 3474.76,-129.5 3474.76,-85.14 3438,-84.66 3397.76,-66 3315.94,-28.07 3208.14,-18.84 3154.33,-16.65"/>
<polygon fill="#63b8ff" stroke="#63b8ff" points="3154.71,-13.16 3144.6,-16.31 3154.47,-20.15 3154.71,-13.16"/>
</g>
<!-- Node72&#45;&gt;Node7 -->
<g id="edge84" class="edge">
<title>Node72&#45;&gt;Node7</title>
<path fill="none" stroke="#63b8ff" d="M951.46,-725.76C1009.34,-685.65 1246.78,-517.71 1283.76,-437 1301.67,-397.91 1255.04,-380.61 1271.76,-341 1340.96,-177.06 1400.94,-140.04 1562.76,-66 1654.9,-23.84 1776.04,-16.32 1838.88,-15.52"/>
<polygon fill="#63b8ff" stroke="#63b8ff" points="1838.79,-19.02 1848.77,-15.45 1838.74,-12.02 1838.79,-19.02"/>
</g>
<!-- Node72&#45;&gt;Node12 -->
<g id="edge87" class="edge">
<title>Node72&#45;&gt;Node12</title>
<path fill="none" stroke="#63b8ff" d="M917.7,-725.64C901.47,-718.02 879.25,-705.76 863.76,-690 815.34,-640.74 786.76,-624.07 786.76,-555 786.76,-555 786.76,-555 786.76,-487 786.76,-388.57 811.55,-356.96 879.76,-286 954.14,-208.62 995.45,-216.74 1094.76,-176 1126.17,-163.11 1162.77,-151.66 1190.8,-143.61"/>
<polygon fill="#63b8ff" stroke="#63b8ff" points="1191.74,-146.98 1200.41,-140.89 1189.83,-140.24 1191.74,-146.98"/>
</g>
<!-- Node72&#45;&gt;Node14 -->
<g id="edge85" class="edge">
<title>Node72&#45;&gt;Node14</title>
<path fill="none" stroke="#63b8ff" d="M890.39,-727.37C844.84,-719.78 780.82,-706.59 761.76,-690 646.42,-589.57 683.15,-515.39 632.76,-371 603.2,-286.31 562.16,-263.75 580.76,-176 592.27,-121.69 623.5,-63.43 640.45,-34.5"/>
<polygon fill="#63b8ff" stroke="#63b8ff" points="643.27,-36.6 645.4,-26.22 637.27,-33 643.27,-36.6"/>
</g>
<!-- Node72&#45;&gt;Node25 -->
<g id="edge86" class="edge">
<title>Node72&#45;&gt;Node25</title>
<path fill="none" stroke="#63b8ff" d="M927.83,-725.69C899.29,-701.62 824.76,-631.42 824.76,-555 824.76,-555 824.76,-555 824.76,-487 824.76,-417.25 875.05,-345.92 900.86,-313.91"/>
<polygon fill="#63b8ff" stroke="#63b8ff" points="903.35,-316.39 907.03,-306.45 897.96,-311.92 903.35,-316.39"/>
</g>
<!-- Node72&#45;&gt;Node60 -->
<g id="edge95" class="edge">
<title>Node72&#45;&gt;Node60</title>
<path fill="none" stroke="#63b8ff" d="M964.35,-725.6C1044.76,-697.63 1293.47,-611.11 1402.57,-573.16"/>
<polygon fill="#63b8ff" stroke="#63b8ff" points="1403.58,-576.51 1411.87,-569.92 1401.28,-569.9 1403.58,-576.51"/>
</g>
<!-- Node72&#45;&gt;Node76 -->
<g id="edge88" class="edge">
<title>Node72&#45;&gt;Node76</title>
<path fill="none" stroke="#63b8ff" d="M890.32,-725.98C834.03,-712.97 748.76,-682.25 748.76,-615.5 748.76,-615.5 748.76,-615.5 748.76,-553 748.76,-490.62 731.37,-418.79 721.1,-381.83"/>
<polygon fill="#63b8ff" stroke="#63b8ff" points="724.57,-381.22 718.46,-372.56 717.84,-383.14 724.57,-381.22"/>
</g>
<!-- Node72&#45;&gt;Node88 -->
<g id="edge96" class="edge">
<title>Node72&#45;&gt;Node88</title>
<path fill="none" stroke="#63b8ff" d="M987.13,-729.69C1089.82,-719.47 1330.23,-695.55 1452.51,-683.39"/>
<polygon fill="#63b8ff" stroke="#63b8ff" points="1452.5,-686.91 1462.1,-682.43 1451.8,-679.94 1452.5,-686.91"/>
</g>
<!-- Node76&#45;&gt;Node6 -->
<g id="edge90" class="edge">
<title>Node76&#45;&gt;Node6</title>
<path fill="none" stroke="#63b8ff" d="M766.46,-353.61C865.45,-351.03 1085.99,-345.32 1271.76,-341 1318.34,-339.92 2909.75,-330.49 2948.76,-305 3046.81,-240.94 2988,-158.56 3059.76,-66 3070.22,-52.51 3084.96,-40.3 3097.33,-31.32"/>
<polygon fill="#63b8ff" stroke="#63b8ff" points="3099.17,-34.31 3105.37,-25.72 3095.17,-28.56 3099.17,-34.31"/>
</g>
<!-- Node76&#45;&gt;Node7 -->
<g id="edge91" class="edge">
<title>Node76&#45;&gt;Node7</title>
<path fill="none" stroke="#63b8ff" d="M718.1,-340.74C729.14,-306.92 761.54,-221.26 818.76,-176 949.31,-72.74 1013.13,-96.54 1176.76,-66 1424.92,-19.69 1729.62,-15.53 1839.12,-15.68"/>
<polygon fill="#63b8ff" stroke="#63b8ff" points="1839.08,-19.18 1849.09,-15.71 1839.1,-12.18 1839.08,-19.18"/>
</g>
<!-- Node76&#45;&gt;Node12 -->
<g id="edge94" class="edge">
<title>Node76&#45;&gt;Node12</title>
<path fill="none" stroke="#63b8ff" d="M728.35,-340.65C737.95,-330.93 750.58,-317.6 760.76,-305 779.43,-281.89 782.84,-275.09 798.76,-250 819.14,-217.88 809.91,-196.8 841.76,-176 895.21,-141.1 1078,-133.41 1174.68,-131.82"/>
<polygon fill="#63b8ff" stroke="#63b8ff" points="1174.56,-135.33 1184.51,-131.68 1174.46,-128.33 1174.56,-135.33"/>
</g>
<!-- Node76&#45;&gt;Node14 -->
<g id="edge92" class="edge">
<title>Node76&#45;&gt;Node14</title>
<path fill="none" stroke="#63b8ff" d="M704.43,-340.61C691.78,-319.68 670.76,-279.22 670.76,-241.5 670.76,-241.5 670.76,-241.5 670.76,-129.5 670.76,-96.28 662.74,-58.33 657.12,-35.81"/>
<polygon fill="#63b8ff" stroke="#63b8ff" points="660.53,-35.01 654.62,-26.21 653.76,-36.77 660.53,-35.01"/>
</g>
<!-- Node76&#45;&gt;Node21 -->
<g id="edge89" class="edge">
<title>Node76&#45;&gt;Node21</title>
<path fill="none" stroke="#63b8ff" d="M684.24,-340.61C631.84,-315.51 518.66,-263.34 418.76,-231 351.47,-209.22 316.69,-241.9 263.76,-195 238.26,-172.4 232.39,-153.12 243.76,-121 256.71,-84.41 288.45,-51.24 309.26,-32.37"/>
<polygon fill="#63b8ff" stroke="#63b8ff" points="311.35,-35.19 316.55,-25.96 306.73,-29.93 311.35,-35.19"/>
</g>
<!-- Node76&#45;&gt;Node25 -->
<g id="edge93" class="edge">
<title>Node76&#45;&gt;Node25</title>
<path fill="none" stroke="#63b8ff" d="M763.69,-340.54C799.12,-330.28 845.93,-316.72 878.2,-307.38"/>
<polygon fill="#63b8ff" stroke="#63b8ff" points="878.89,-310.82 887.52,-304.68 876.94,-304.1 878.89,-310.82"/>
</g>
<!-- Node88&#45;&gt;Node12 -->
<g id="edge97" class="edge">
<title>Node88&#45;&gt;Node12</title>
<path fill="none" stroke="#63b8ff" d="M1463.58,-669.03C1349.27,-658.6 1115.3,-630.14 1065.76,-569 954.91,-432.2 986.88,-295.97 1115.76,-176 1132.38,-160.53 1154.85,-150.32 1175.85,-143.63"/>
<polygon fill="#63b8ff" stroke="#63b8ff" points="1176.61,-147.06 1185.21,-140.88 1174.63,-140.35 1176.61,-147.06"/>
</g>
<!-- Node88&#45;&gt;Node59 -->
<g id="edge102" class="edge">
<title>Node88&#45;&gt;Node59</title>
<path fill="none" stroke="#63b8ff" d="M1496.11,-659.54C1476.47,-650.28 1451.14,-638.33 1431.82,-629.21"/>
<polygon fill="#63b8ff" stroke="#63b8ff" points="1433.42,-626.09 1422.88,-624.99 1430.43,-632.42 1433.42,-626.09"/>
</g>
<!-- Node88&#45;&gt;Node61 -->
<g id="edge101" class="edge">
<title>Node88&#45;&gt;Node61</title>
<path fill="none" stroke="#63b8ff" d="M1518.71,-659.52C1511.5,-644.39 1503.76,-620.71 1515.76,-605 1541.9,-570.77 1848.7,-516.01 1889.76,-503 1957.07,-481.68 2034.36,-452.63 2077.38,-436.04"/>
<polygon fill="#63b8ff" stroke="#63b8ff" points="2078.59,-439.33 2086.65,-432.45 2076.06,-432.8 2078.59,-439.33"/>
</g>
<!-- Node88&#45;&gt;Node100 -->
<g id="edge98" class="edge">
<title>Node88&#45;&gt;Node100</title>
<path fill="none" stroke="#63b8ff" d="M1542.08,-659.54C1550.91,-651.22 1562.03,-640.72 1571.2,-632.07"/>
<polygon fill="#63b8ff" stroke="#63b8ff" points="1573.59,-634.62 1578.46,-625.21 1568.79,-629.53 1573.59,-634.62"/>
</g>
<!-- Node100&#45;&gt;Node12 -->
<g id="edge99" class="edge">
<title>Node100&#45;&gt;Node12</title>
<path fill="none" stroke="#63b8ff" d="M1530.06,-604.58C1488.29,-597.33 1431.23,-585.57 1382.76,-569 1254.1,-525.01 1179.26,-552.03 1106.76,-437 1042.46,-334.98 1169.74,-195.38 1218.15,-148"/>
<polygon fill="#63b8ff" stroke="#63b8ff" points="1220.33,-150.76 1225.11,-141.31 1215.48,-145.71 1220.33,-150.76"/>
</g>
<!-- Node100&#45;&gt;Node64 -->
<g id="edge100" class="edge">
<title>Node100&#45;&gt;Node64</title>
<path fill="none" stroke="#63b8ff" d="M1653.06,-605.11C1713.16,-596.97 1805.3,-583.71 1884.76,-569 1998.51,-547.94 2130.96,-517.14 2200.13,-500.58"/>
<polygon fill="#63b8ff" stroke="#63b8ff" points="2200.71,-504.04 2209.61,-498.3 2199.07,-497.23 2200.71,-504.04"/>
</g>
<!-- Node101&#45;&gt;Node12 -->
<g id="edge104" class="edge">
<title>Node101&#45;&gt;Node12</title>
<path fill="none" stroke="#63b8ff" d="M1210.29,-406.81C1206.79,-396.94 1202.57,-383.37 1200.76,-371 1198.82,-357.81 1200.27,-354.32 1200.76,-341 1203.43,-267.52 1192.81,-246.77 1212.76,-176 1215.29,-167.01 1219.75,-157.73 1224.07,-149.99"/>
<polygon fill="#63b8ff" stroke="#63b8ff" points="1226.98,-151.94 1229.09,-141.56 1220.97,-148.36 1226.98,-151.94"/>
</g>
<!-- Node101&#45;&gt;Node102 -->
<g id="edge105" class="edge">
<title>Node101&#45;&gt;Node102</title>
<path fill="none" stroke="#63b8ff" d="M1275.04,-416.11C1417.91,-404.33 1780.31,-374.44 1927.82,-362.27"/>
<polygon fill="#63b8ff" stroke="#63b8ff" points="1927.72,-365.79 1937.4,-361.48 1927.14,-358.82 1927.72,-365.79"/>
</g>
<!-- Node102&#45;&gt;Node10 -->
<g id="edge106" class="edge">
<title>Node102&#45;&gt;Node10</title>
<path fill="none" stroke="#63b8ff" d="M2024.95,-340.51C2075.73,-318.34 2171.98,-276.32 2221.16,-254.86"/>
<polygon fill="#63b8ff" stroke="#63b8ff" points="2222.32,-258.17 2230.09,-250.96 2219.52,-251.75 2222.32,-258.17"/>
</g>
<!-- Node102&#45;&gt;Node12 -->
<g id="edge107" class="edge">
<title>Node102&#45;&gt;Node12</title>
<path fill="none" stroke="#63b8ff" d="M1964.42,-340.66C1917.92,-316.54 1820.14,-266.94 1734.76,-231 1668.54,-203.13 1652.59,-192.89 1582.76,-176 1484.2,-152.16 1366.61,-140.49 1296.73,-135.25"/>
<polygon fill="#63b8ff" stroke="#63b8ff" points="1297.25,-131.78 1287.02,-134.55 1296.74,-138.76 1297.25,-131.78"/>
</g>
<!-- Node102&#45;&gt;Node26 -->
<g id="edge108" class="edge">
<title>Node102&#45;&gt;Node26</title>
<path fill="none" stroke="#63b8ff" d="M2044.47,-342.84C2047.61,-342.19 2050.72,-341.58 2053.76,-341 2128.92,-326.74 2215.74,-313.85 2274.45,-305.66"/>
<polygon fill="#63b8ff" stroke="#63b8ff" points="2274.88,-309.13 2284.3,-304.29 2273.92,-302.2 2274.88,-309.13"/>
</g>
<!-- Node103&#45;&gt;Node59 -->
<g id="edge110" class="edge">
<title>Node103&#45;&gt;Node59</title>
<path fill="none" stroke="#63b8ff" d="M1277.91,-725.56C1300.59,-705.56 1355.68,-657 1384.5,-631.59"/>
<polygon fill="#63b8ff" stroke="#63b8ff" points="1386.54,-634.46 1391.73,-625.23 1381.91,-629.21 1386.54,-634.46"/>
</g>
<!-- Node97 -->
<g id="node37" class="node">
<title>Node97</title>
<g id="a_node37"><a xlink:href="../../de/d44/global__pointers__vector_8h.html" target="_top" xlink:title=" ">
<polygon fill="#fff0f0" stroke="red" points="1426.76,-371 1280.76,-371 1280.76,-341 1426.76,-341 1426.76,-371"/>
<text text-anchor="start" x="1288.76" y="-359" font-family="Helvetica,sans-Serif" font-size="10.00">containers/global_pointers</text>
<text text-anchor="middle" x="1353.76" y="-348" font-family="Helvetica,sans-Serif" font-size="10.00">_vector.h</text>
</a>
</g>
</g>
<!-- Node103&#45;&gt;Node97 -->
<g id="edge111" class="edge">
<title>Node103&#45;&gt;Node97</title>
<path fill="none" stroke="#63b8ff" d="M1269.8,-725.54C1280.55,-678.37 1330.72,-458.11 1347.94,-382.53"/>
<polygon fill="#63b8ff" stroke="#63b8ff" points="1351.35,-383.31 1350.16,-372.79 1344.53,-381.76 1351.35,-383.31"/>
</g>
<!-- Node97&#45;&gt;Node7 -->
<g id="edge113" class="edge">
<title>Node97&#45;&gt;Node7</title>
<path fill="none" stroke="#63b8ff" d="M1360.87,-340.54C1385.4,-292.35 1471.69,-136.26 1592.76,-66 1633.94,-42.1 1769.48,-26.37 1838.93,-19.68"/>
<polygon fill="#63b8ff" stroke="#63b8ff" points="1839.16,-23.17 1848.78,-18.75 1838.5,-16.2 1839.16,-23.17"/>
</g>
<!-- Node97&#45;&gt;Node12 -->
<g id="edge114" class="edge">
<title>Node97&#45;&gt;Node12</title>
<path fill="none" stroke="#63b8ff" d="M1346.2,-340.68C1325.65,-301.76 1268.79,-194.07 1245.7,-150.33"/>
<polygon fill="#63b8ff" stroke="#63b8ff" points="1248.84,-148.78 1241.08,-141.57 1242.65,-152.05 1248.84,-148.78"/>
</g>
<!-- Node97&#45;&gt;Node21 -->
<g id="edge112" class="edge">
<title>Node97&#45;&gt;Node21</title>
<path fill="none" stroke="#63b8ff" d="M1305.53,-340.63C1176.27,-301.87 811.58,-190.94 512.76,-85 460.01,-66.3 399.32,-43.24 362.52,-29.08"/>
<polygon fill="#63b8ff" stroke="#63b8ff" points="363.9,-25.86 353.31,-25.53 361.38,-32.39 363.9,-25.86"/>
</g>
<!-- Node97&#45;&gt;Node26 -->
<g id="edge115" class="edge">
<title>Node97&#45;&gt;Node26</title>
<path fill="none" stroke="#63b8ff" d="M1426.88,-350.67C1611.63,-339.75 2095.18,-311.14 2274.53,-300.54"/>
<polygon fill="#63b8ff" stroke="#63b8ff" points="2274.61,-304.04 2284.38,-299.95 2274.19,-297.05 2274.61,-304.04"/>
</g>
<!-- Node120&#45;&gt;Node59 -->
<g id="edge117" class="edge">
<title>Node120&#45;&gt;Node59</title>
<path fill="none" stroke="#63b8ff" d="M1398.13,-725.56C1398.93,-706.51 1400.82,-661.56 1401.92,-635.37"/>
<polygon fill="#63b8ff" stroke="#63b8ff" points="1405.41,-635.88 1402.33,-625.74 1398.41,-635.58 1405.41,-635.88"/>
</g>
<!-- Node120&#45;&gt;Node97 -->
<g id="edge118" class="edge">
<title>Node120&#45;&gt;Node97</title>
<path fill="none" stroke="#63b8ff" d="M1389.59,-725.64C1373.9,-707.95 1340.03,-666.31 1327.76,-624 1325.41,-615.89 1326.21,-613.3 1327.76,-605 1342.45,-526.3 1378.06,-515.7 1392.76,-437 1395.21,-423.89 1397.09,-419.61 1392.76,-407 1389.36,-397.12 1383.13,-387.7 1376.62,-379.75"/>
<polygon fill="#63b8ff" stroke="#63b8ff" points="1379.27,-377.46 1370.02,-372.29 1374.03,-382.1 1379.27,-377.46"/>
</g>
<!-- Node121&#45;&gt;Node6 -->
<g id="edge120" class="edge">
<title>Node121&#45;&gt;Node6</title>
<path fill="none" stroke="#63b8ff" d="M1337.61,-788.56C1685.04,-756.37 3213.83,-612.69 3304.76,-569 3460.18,-494.32 3512.76,-413.93 3512.76,-241.5 3512.76,-241.5 3512.76,-241.5 3512.76,-129.5 3512.76,-85.14 3476.2,-84.23 3435.76,-66 3340.13,-22.89 3213.53,-16.2 3154.17,-15.64"/>
<polygon fill="#63b8ff" stroke="#63b8ff" points="3154.41,-12.14 3144.4,-15.61 3154.39,-19.14 3154.41,-12.14"/>
</g>
<!-- Node121&#45;&gt;Node7 -->
<g id="edge121" class="edge">
<title>Node121&#45;&gt;Node7</title>
<path fill="none" stroke="#63b8ff" d="M1337.7,-791.72C1436.85,-782.61 1611.77,-748.77 1661.76,-624 1708.55,-507.21 1623.25,-462.81 1654.76,-341 1690.93,-201.21 1733.69,-175.55 1827.76,-66 1838.08,-53.98 1851,-41.74 1861.49,-32.39"/>
<polygon fill="#63b8ff" stroke="#63b8ff" points="1863.6,-35.2 1868.83,-25.98 1859,-29.92 1863.6,-35.2"/>
</g>
<!-- Node121&#45;&gt;Node12 -->
<g id="edge124" class="edge">
<title>Node121&#45;&gt;Node12</title>
<path fill="none" stroke="#63b8ff" d="M1197.81,-789.34C1120.05,-782.25 991,-768.16 881.76,-745 797.84,-727.21 770.94,-733.07 696.76,-690 660.06,-668.69 644.43,-663.02 627.76,-624 614.04,-591.9 476.8,-711.62 651.76,-341 674.03,-293.82 771.62,-198.36 818.76,-176 880.22,-146.85 1074.11,-136.55 1174.37,-133.11"/>
<polygon fill="#63b8ff" stroke="#63b8ff" points="1174.44,-136.61 1184.32,-132.78 1174.21,-129.61 1174.44,-136.61"/>
</g>
<!-- Node121&#45;&gt;Node14 -->
<g id="edge122" class="edge">
<title>Node121&#45;&gt;Node14</title>
<path fill="none" stroke="#63b8ff" d="M1197.81,-794.24C1101.88,-791.76 924.76,-782.02 778.76,-745 672.1,-717.95 631.6,-709.84 562.76,-624 438.16,-468.62 525.73,-369.29 573.76,-176 586.2,-125.94 584.18,-110.2 610.76,-66 617.79,-54.31 627.38,-42.46 635.52,-33.22"/>
<polygon fill="#63b8ff" stroke="#63b8ff" points="637.87,-35.84 642.01,-26.09 632.69,-31.13 637.87,-35.84"/>
</g>
<!-- Node121&#45;&gt;Node25 -->
<g id="edge123" class="edge">
<title>Node121&#45;&gt;Node25</title>
<path fill="none" stroke="#63b8ff" d="M1236.3,-786C1174.58,-766.75 1037.19,-715.66 962.76,-624 887.17,-530.92 903.6,-371.89 912.24,-316.35"/>
<polygon fill="#63b8ff" stroke="#63b8ff" points="915.64,-317.26 913.83,-306.82 908.74,-316.11 915.64,-317.26"/>
</g>
<!-- Node121&#45;&gt;Node72 -->
<g id="edge127" class="edge">
<title>Node121&#45;&gt;Node72</title>
<path fill="none" stroke="#63b8ff" d="M1217.43,-786.05C1158.55,-775.58 1061.14,-758.26 998.48,-747.12"/>
<polygon fill="#63b8ff" stroke="#63b8ff" points="999.15,-743.68 988.69,-745.38 997.93,-750.58 999.15,-743.68"/>
</g>
<!-- Node121&#45;&gt;Node103 -->
<g id="edge126" class="edge">
<title>Node121&#45;&gt;Node103</title>
<path fill="none" stroke="#63b8ff" d="M1267.76,-786.37C1267.76,-778.5 1267.76,-766.6 1267.76,-756.39"/>
<polygon fill="#63b8ff" stroke="#63b8ff" points="1271.26,-756.68 1267.76,-746.68 1264.26,-756.68 1271.26,-756.68"/>
</g>
<!-- Node121&#45;&gt;Node120 -->
<g id="edge125" class="edge">
<title>Node121&#45;&gt;Node120</title>
<path fill="none" stroke="#63b8ff" d="M1287.5,-786.12C1308.79,-776.54 1342.92,-761.18 1367.58,-750.08"/>
<polygon fill="#63b8ff" stroke="#63b8ff" points="1368.77,-753.39 1376.45,-746.09 1365.89,-747 1368.77,-753.39"/>
</g>
<!-- Node105&#45;&gt;Node6 -->
<g id="edge129" class="edge">
<title>Node105&#45;&gt;Node6</title>
<path fill="none" stroke="#63b8ff" d="M1786.16,-478.07C1837.03,-462.29 1947.23,-429.05 2041.76,-407 2198.04,-370.54 2237.46,-360.42 2396.76,-341 2464.27,-332.77 2948.91,-339.09 3007.76,-305 3014.54,-301.07 3082.76,-187.03 3082.76,-186.5 3082.76,-186.5 3082.76,-186.5 3082.76,-129.5 3082.76,-94.64 3099.08,-56.73 3110.33,-34.73"/>
<polygon fill="#63b8ff" stroke="#63b8ff" points="3113.3,-36.59 3114.92,-26.12 3107.13,-33.3 3113.3,-36.59"/>
</g>
<!-- Node105&#45;&gt;Node7 -->
<g id="edge130" class="edge">
<title>Node105&#45;&gt;Node7</title>
<path fill="none" stroke="#63b8ff" d="M1757.91,-478C1758.45,-454.97 1760.9,-392.06 1771.76,-341 1797.15,-221.62 1851.82,-84.93 1872.55,-35.28"/>
<polygon fill="#63b8ff" stroke="#63b8ff" points="1875.71,-36.81 1876.37,-26.23 1869.26,-34.09 1875.71,-36.81"/>
</g>
<!-- Node105&#45;&gt;Node12 -->
<g id="edge132" class="edge">
<title>Node105&#45;&gt;Node12</title>
<path fill="none" stroke="#63b8ff" d="M1753.85,-478.3C1742.45,-453.76 1706.99,-383.08 1658.76,-341 1538.74,-236.29 1357.14,-169.82 1276.65,-143.88"/>
<polygon fill="#63b8ff" stroke="#63b8ff" points="1278.01,-140.64 1267.42,-140.94 1275.89,-147.31 1278.01,-140.64"/>
</g>
<!-- Node105&#45;&gt;Node56 -->
<g id="edge131" class="edge">
<title>Node105&#45;&gt;Node56</title>
<path fill="none" stroke="#63b8ff" d="M1760.92,-478.28C1764.37,-468.4 1769.8,-451.75 1772.76,-437 1781.18,-394.94 1766.7,-380.78 1782.76,-341 1818.91,-251.45 1912.9,-177.62 1956.69,-146.88"/>
<polygon fill="#63b8ff" stroke="#63b8ff" points="1958.46,-149.91 1964.71,-141.35 1954.49,-144.14 1958.46,-149.91"/>
</g>
<!-- Node105&#45;&gt;Node61 -->
<g id="edge133" class="edge">
<title>Node105&#45;&gt;Node61</title>
<path fill="none" stroke="#63b8ff" d="M1795.43,-478.01C1803.13,-476.27 1811.19,-474.51 1818.76,-473 1894.68,-457.8 1982.29,-443.19 2041.59,-433.72"/>
<polygon fill="#63b8ff" stroke="#63b8ff" points="2041.86,-437.22 2051.19,-432.2 2040.77,-430.31 2041.86,-437.22"/>
</g>
<!-- Node108&#45;&gt;Node6 -->
<g id="edge143" class="edge">
<title>Node108&#45;&gt;Node6</title>
<path fill="none" stroke="#63b8ff" d="M2552.02,-553.34C2683.18,-553.32 3001.36,-548.43 3096.76,-503 3232.35,-438.43 3310.76,-391.68 3310.76,-241.5 3310.76,-241.5 3310.76,-241.5 3310.76,-129.5 3310.76,-99.33 3308.81,-86.59 3286.76,-66 3250.23,-31.9 3191.26,-21 3154.32,-17.55"/>
<polygon fill="#63b8ff" stroke="#63b8ff" points="3154.91,-14.09 3144.67,-16.79 3154.36,-21.06 3154.91,-14.09"/>
</g>
<!-- Node108&#45;&gt;Node7 -->
<g id="edge144" class="edge">
<title>Node108&#45;&gt;Node7</title>
<path fill="none" stroke="#63b8ff" d="M2552.06,-552.29C2612.67,-549.5 2709.71,-539.1 2784.76,-503 2928.2,-433.99 3108.57,-361.73 3017.76,-231 2897.89,-58.44 2780.06,-110.67 2574.76,-66 2449.13,-38.67 2052.63,-22.22 1922.55,-17.45"/>
<polygon fill="#63b8ff" stroke="#63b8ff" points="1922.79,-13.96 1912.67,-17.1 1922.54,-20.95 1922.79,-13.96"/>
</g>
<!-- Node108&#45;&gt;Node12 -->
<g id="edge145" class="edge">
<title>Node108&#45;&gt;Node12</title>
<path fill="none" stroke="#63b8ff" d="M2437.44,-551.64C2261.94,-547.19 1739.5,-531.65 1668.76,-503 1567.28,-461.9 1318.16,-214.74 1252.07,-148.06"/>
<polygon fill="#63b8ff" stroke="#63b8ff" points="1254.89,-145.94 1245.37,-141.28 1249.91,-150.86 1254.89,-145.94"/>
</g>
<!-- Node108&#45;&gt;Node30 -->
<g id="edge148" class="edge">
<title>Node108&#45;&gt;Node30</title>
<path fill="none" stroke="#63b8ff" d="M2545.87,-544.05C2601.97,-531.19 2689.31,-501.5 2728.76,-437 2774.01,-363.01 2714.64,-437.8 2591.76,-250 2582.56,-235.94 2574.57,-218.62 2569.15,-205.62"/>
<polygon fill="#63b8ff" stroke="#63b8ff" points="2572.48,-204.5 2565.51,-196.52 2565.98,-207.1 2572.48,-204.5"/>
</g>
<!-- Node108&#45;&gt;Node46 -->
<g id="edge149" class="edge">
<title>Node108&#45;&gt;Node46</title>
<path fill="none" stroke="#63b8ff" d="M2552.14,-550.61C2622.75,-546.32 2736.52,-534.58 2762.76,-503 2827.06,-425.6 2721.61,-302.65 2678.67,-258.21"/>
<polygon fill="#63b8ff" stroke="#63b8ff" points="2681.33,-255.93 2671.82,-251.27 2676.35,-260.84 2681.33,-255.93"/>
</g>
<!-- Node108&#45;&gt;Node61 -->
<g id="edge146" class="edge">
<title>Node108&#45;&gt;Node61</title>
<path fill="none" stroke="#63b8ff" d="M2437.34,-553.38C2344.18,-552.71 2166.11,-545.7 2122.76,-503 2107.22,-487.7 2106.12,-461.54 2107.65,-443.31"/>
<polygon fill="#63b8ff" stroke="#63b8ff" points="2111.12,-443.8 2108.85,-433.45 2104.17,-442.96 2111.12,-443.8"/>
</g>
<!-- Node108&#45;&gt;Node64 -->
<g id="edge147" class="edge">
<title>Node108&#45;&gt;Node64</title>
<path fill="none" stroke="#63b8ff" d="M2460.15,-544.03C2416.52,-532.73 2341.39,-513.26 2293.18,-500.77"/>
<polygon fill="#63b8ff" stroke="#63b8ff" points="2294.15,-497.41 2283.59,-498.29 2292.4,-504.18 2294.15,-497.41"/>
</g>
<!-- Node108&#45;&gt;Node97 -->
<g id="edge150" class="edge">
<title>Node108&#45;&gt;Node97</title>
<path fill="none" stroke="#63b8ff" d="M2437.32,-552.84C2269.66,-551.89 1783.2,-545.43 1630.76,-503 1580.41,-488.99 1449.41,-413.65 1387.33,-377.02"/>
<polygon fill="#63b8ff" stroke="#63b8ff" points="1389.32,-374.13 1378.93,-372.05 1385.75,-380.16 1389.32,-374.13"/>
</g>
<!-- Node109 -->
<g id="node42" class="node">
<title>Node109</title>
<g id="a_node42"><a xlink:href="../../d9/da6/periodic__variables__container_8h.html" target="_top" xlink:title=" ">
<polygon fill="#fff0f0" stroke="red" points="2557.76,-503 2431.76,-503 2431.76,-473 2557.76,-473 2557.76,-503"/>
<text text-anchor="start" x="2439.76" y="-491" font-family="Helvetica,sans-Serif" font-size="10.00">containers/periodic</text>
<text text-anchor="middle" x="2494.76" y="-480" font-family="Helvetica,sans-Serif" font-size="10.00">_variables_container.h</text>
</a>
</g>
</g>
<!-- Node108&#45;&gt;Node109 -->
<g id="edge151" class="edge">
<title>Node108&#45;&gt;Node109</title>
<path fill="none" stroke="#63b8ff" d="M2494.76,-544.1C2494.76,-536.41 2494.76,-524.92 2494.76,-514.42"/>
<polygon fill="#63b8ff" stroke="#63b8ff" points="2498.26,-514.75 2494.76,-504.75 2491.26,-514.75 2498.26,-514.75"/>
</g>
<!-- Node110 -->
<g id="node43" class="node">
<title>Node110</title>
<g id="a_node43"><a xlink:href="../../d0/d9c/table__stream__utility_8h.html" target="_top" xlink:title=" ">
<polygon fill="#fff0f0" stroke="red" points="2720.26,-437 2599.26,-437 2599.26,-407 2720.26,-407 2720.26,-437"/>
<text text-anchor="start" x="2607.26" y="-425" font-family="Helvetica,sans-Serif" font-size="10.00">utilities/table_stream</text>
<text text-anchor="middle" x="2659.76" y="-414" font-family="Helvetica,sans-Serif" font-size="10.00">_utility.h</text>
</a>
</g>
</g>
<!-- Node108&#45;&gt;Node110 -->
<g id="edge157" class="edge">
<title>Node108&#45;&gt;Node110</title>
<path fill="none" stroke="#63b8ff" d="M2508.59,-544.01C2523.32,-534.3 2547.14,-518.18 2566.76,-503 2590.93,-484.29 2617.23,-461.42 2635.67,-444.93"/>
<polygon fill="#63b8ff" stroke="#63b8ff" points="2637.83,-447.69 2642.93,-438.4 2633.15,-442.49 2637.83,-447.69"/>
</g>
<!-- Node113 -->
<g id="node44" class="node">
<title>Node113</title>
<g id="a_node44"><a xlink:href="../../d8/da9/adjoint__extensions_8h.html" target="_top" xlink:title=" ">
<polygon fill="#fff0f0" stroke="red" points="1008.76,-195 850.76,-195 850.76,-176 1008.76,-176 1008.76,-195"/>
<text text-anchor="middle" x="929.76" y="-183" font-family="Helvetica,sans-Serif" font-size="10.00">utilities/adjoint_extensions.h</text>
</a>
</g>
</g>
<!-- Node108&#45;&gt;Node113 -->
<g id="edge159" class="edge">
<title>Node108&#45;&gt;Node113</title>
<path fill="none" stroke="#63b8ff" d="M2437.28,-552.06C2290.43,-549.19 1889.62,-538.46 1557.76,-503 1466,-493.19 1228.43,-481.82 1147.76,-437 1094.61,-407.47 981.04,-256.53 942.7,-204.31"/>
<polygon fill="#63b8ff" stroke="#63b8ff" points="945.7,-202.47 936.97,-196.47 940.05,-206.61 945.7,-202.47"/>
</g>
<!-- Node109&#45;&gt;Node6 -->
<g id="edge152" class="edge">
<title>Node109&#45;&gt;Node6</title>
<path fill="none" stroke="#63b8ff" d="M2507.32,-472.58C2524.15,-454.25 2555.85,-423.06 2589.76,-407 2701.11,-354.24 3031.4,-372.07 3134.76,-305 3184.62,-272.64 3196.76,-245.94 3196.76,-186.5 3196.76,-186.5 3196.76,-186.5 3196.76,-129.5 3196.76,-99.33 3189.37,-91.18 3172.76,-66 3164.22,-53.06 3151.79,-40.95 3141.22,-31.89"/>
<polygon fill="#63b8ff" stroke="#63b8ff" points="3143.67,-29.37 3133.73,-25.73 3139.23,-34.78 3143.67,-29.37"/>
</g>
<!-- Node109&#45;&gt;Node7 -->
<g id="edge153" class="edge">
<title>Node109&#45;&gt;Node7</title>
<path fill="none" stroke="#63b8ff" d="M2497.47,-472.7C2504.41,-432.18 2519.49,-314.21 2477.76,-231 2427.17,-130.12 2388.02,-111.53 2284.76,-66 2220.47,-37.66 2012.35,-23.18 1922.59,-18.13"/>
<polygon fill="#63b8ff" stroke="#63b8ff" points="1922.93,-14.64 1912.76,-17.59 1922.55,-21.63 1922.93,-14.64"/>
</g>
<!-- Node109&#45;&gt;Node12 -->
<g id="edge154" class="edge">
<title>Node109&#45;&gt;Node12</title>
<path fill="none" stroke="#63b8ff" d="M2464.57,-472.59C2406.82,-445.28 2276.45,-384.8 2163.76,-341 1950.36,-258.05 1899.52,-224.49 1675.76,-176 1542.5,-147.12 1382.39,-136.89 1296.81,-133.34"/>
<polygon fill="#63b8ff" stroke="#63b8ff" points="1297.13,-129.85 1287,-132.95 1296.85,-136.84 1297.13,-129.85"/>
</g>
<!-- Node109&#45;&gt;Node26 -->
<g id="edge155" class="edge">
<title>Node109&#45;&gt;Node26</title>
<path fill="none" stroke="#63b8ff" d="M2483.33,-472.68C2455.95,-438.37 2386.66,-351.52 2356.8,-314.1"/>
<polygon fill="#63b8ff" stroke="#63b8ff" points="2359.71,-312.14 2350.74,-306.51 2354.24,-316.5 2359.71,-312.14"/>
</g>
<!-- Node109&#45;&gt;Node61 -->
<g id="edge156" class="edge">
<title>Node109&#45;&gt;Node61</title>
<path fill="none" stroke="#63b8ff" d="M2431.35,-476.43C2360.68,-464.65 2246.99,-445.71 2175.71,-433.82"/>
<polygon fill="#63b8ff" stroke="#63b8ff" points="2176.57,-430.42 2166.13,-432.23 2175.42,-437.33 2176.57,-430.42"/>
</g>
<!-- Node110&#45;&gt;Node26 -->
<g id="edge158" class="edge">
<title>Node110&#45;&gt;Node26</title>
<path fill="none" stroke="#63b8ff" d="M2636.49,-406.54C2607.49,-389.02 2555.97,-359.56 2508.76,-341 2472.87,-326.89 2430.9,-315.68 2398.14,-308.05"/>
<polygon fill="#63b8ff" stroke="#63b8ff" points="2398.97,-304.64 2388.44,-305.83 2397.41,-311.47 2398.97,-304.64"/>
</g>
<!-- Node113&#45;&gt;Node12 -->
<g id="edge161" class="edge">
<title>Node113&#45;&gt;Node12</title>
<path fill="none" stroke="#63b8ff" d="M981.67,-175.51C1035.03,-166.27 1118.08,-151.88 1174.6,-142.09"/>
<polygon fill="#63b8ff" stroke="#63b8ff" points="1175.14,-145.55 1184.39,-140.4 1173.94,-138.65 1175.14,-145.55"/>
</g>
<!-- Node113&#45;&gt;Node21 -->
<g id="edge160" class="edge">
<title>Node113&#45;&gt;Node21</title>
<path fill="none" stroke="#63b8ff" d="M897.87,-175.56C794.73,-146.64 470.66,-55.79 363.53,-25.75"/>
<polygon fill="#63b8ff" stroke="#63b8ff" points="364.73,-22.45 354.16,-23.12 362.84,-29.19 364.73,-22.45"/>
</g>
<!-- Node122&#45;&gt;Node7 -->
<g id="edge165" class="edge">
<title>Node122&#45;&gt;Node7</title>
<path fill="none" stroke="#63b8ff" d="M246.54,-230.58C282.47,-221.96 337.98,-208.28 385.76,-195 575.13,-142.36 615.09,-99.51 808.76,-66 1012.24,-30.8 1667.09,-19.07 1839.07,-16.56"/>
<polygon fill="#63b8ff" stroke="#63b8ff" points="1838.91,-20.06 1848.86,-16.42 1838.81,-13.06 1838.91,-20.06"/>
</g>
<!-- Node122&#45;&gt;Node21 -->
<g id="edge164" class="edge">
<title>Node122&#45;&gt;Node21</title>
<path fill="none" stroke="#63b8ff" d="M202.53,-230.55C184.23,-203.1 134.32,-118.69 172.76,-66 200.29,-28.27 256.7,-18.37 293.6,-16.12"/>
<polygon fill="#63b8ff" stroke="#63b8ff" points="293.49,-19.63 303.33,-15.7 293.18,-12.64 293.49,-19.63"/>
</g>
<!-- Node123 -->
<g id="node46" class="node">
<title>Node123</title>
<g id="a_node46"><a xlink:title=" ">
<polygon fill="#e0e0e0" stroke="#999999" points="78.76,-195 28.76,-195 28.76,-176 78.76,-176 78.76,-195"/>
<text text-anchor="middle" x="53.76" y="-183" font-family="Helvetica,sans-Serif" font-size="10.00">stdio.h</text>
</a>
</g>
</g>
<!-- Node122&#45;&gt;Node123 -->
<g id="edge163" class="edge">
<title>Node122&#45;&gt;Node123</title>
<path fill="none" stroke="#63b8ff" d="M182.47,-230.51C157,-221.8 118.18,-208.53 89.83,-198.83"/>
<polygon fill="#63b8ff" stroke="#63b8ff" points="91.18,-195.6 80.58,-195.67 88.91,-202.22 91.18,-195.6"/>
</g>
<!-- Node124 -->
<g id="node47" class="node">
<title>Node124</title>
<g id="a_node47"><a xlink:title=" ">
<polygon fill="#e0e0e0" stroke="#999999" points="140.76,-195 96.76,-195 96.76,-176 140.76,-176 140.76,-195"/>
<text text-anchor="middle" x="118.76" y="-183" font-family="Helvetica,sans-Serif" font-size="10.00">ctime</text>
</a>
</g>
</g>
<!-- Node122&#45;&gt;Node124 -->
<g id="edge166" class="edge">
<title>Node122&#45;&gt;Node124</title>
<path fill="none" stroke="#63b8ff" d="M193.49,-230.51C179.83,-222.47 159.56,-210.53 143.57,-201.11"/>
<polygon fill="#63b8ff" stroke="#63b8ff" points="145.5,-198.18 135.1,-196.13 141.95,-204.22 145.5,-198.18"/>
</g>
<!-- Node125 -->
<g id="node48" class="node">
<title>Node125</title>
<g id="a_node48"><a xlink:href="../../de/d07/parallel__utilities_8h.html" target="_top" xlink:title=" ">
<polygon fill="#fff0f0" stroke="red" points="376.76,-195 272.76,-195 272.76,-176 376.76,-176 376.76,-195"/>
<text text-anchor="middle" x="324.76" y="-183" font-family="Helvetica,sans-Serif" font-size="10.00">parallel_utilities.h</text>
</a>
</g>
</g>
<!-- Node122&#45;&gt;Node125 -->
<g id="edge167" class="edge">
<title>Node122&#45;&gt;Node125</title>
<path fill="none" stroke="#63b8ff" d="M228.44,-230.51C246.71,-222.16 274.17,-209.61 295.1,-200.05"/>
<polygon fill="#63b8ff" stroke="#63b8ff" points="296.35,-203.33 303.99,-195.99 293.44,-196.96 296.35,-203.33"/>
</g>
<!-- Node125&#45;&gt;Node2 -->
<g id="edge170" class="edge">
<title>Node125&#45;&gt;Node2</title>
<path fill="none" stroke="#63b8ff" d="M316.83,-175.75C310.2,-168.43 300.54,-157.76 292.37,-148.74"/>
<polygon fill="#63b8ff" stroke="#63b8ff" points="295.18,-146.63 285.87,-141.56 289.99,-151.33 295.18,-146.63"/>
</g>
<!-- Node125&#45;&gt;Node7 -->
<g id="edge168" class="edge">
<title>Node125&#45;&gt;Node7</title>
<path fill="none" stroke="#63b8ff" d="M350.48,-175.57C418.24,-152.52 607.63,-91.05 770.76,-66 982.66,-33.46 1663.35,-19.73 1839.06,-16.68"/>
<polygon fill="#63b8ff" stroke="#63b8ff" points="1838.91,-20.18 1848.84,-16.51 1838.79,-13.19 1838.91,-20.18"/>
</g>
<!-- Node125&#45;&gt;Node12 -->
<g id="edge171" class="edge">
<title>Node125&#45;&gt;Node12</title>
<path fill="none" stroke="#63b8ff" d="M377.01,-181.46C534.74,-172.28 1005.61,-144.89 1174.56,-135.06"/>
<polygon fill="#63b8ff" stroke="#63b8ff" points="1174.67,-138.56 1184.45,-134.49 1174.26,-131.57 1174.67,-138.56"/>
</g>
<!-- Node125&#45;&gt;Node21 -->
<g id="edge169" class="edge">
<title>Node125&#45;&gt;Node21</title>
<path fill="none" stroke="#63b8ff" d="M324.96,-175.91C325.57,-150.12 327.41,-72.82 328.28,-35.97"/>
<polygon fill="#63b8ff" stroke="#63b8ff" points="331.78,-36.37 328.51,-26.29 324.78,-36.2 331.78,-36.37"/>
</g>
<!-- Node131 -->
<g id="node50" class="node">
<title>Node131</title>
<g id="a_node50"><a xlink:href="../../de/d89/mat__variables_8h.html" target="_top" xlink:title=" ">
<polygon fill="white" stroke="#666666" points="3228.26,-563.5 3089.26,-563.5 3089.26,-544.5 3228.26,-544.5 3228.26,-563.5"/>
<text text-anchor="middle" x="3158.76" y="-551.5" font-family="Helvetica,sans-Serif" font-size="10.00">includes/mat_variables.h</text>
</a>
</g>
</g>
<!-- Node130&#45;&gt;Node131 -->
<g id="edge173" class="edge">
<title>Node130&#45;&gt;Node131</title>
<path fill="none" stroke="#63b8ff" d="M3195.44,-780.71C3188.78,-739.75 3169.63,-621.91 3161.98,-574.8"/>
<polygon fill="#63b8ff" stroke="#63b8ff" points="3165.44,-574.32 3160.39,-565.01 3158.53,-575.44 3165.44,-574.32"/>
</g>
<!-- Node131&#45;&gt;Node6 -->
<g id="edge174" class="edge">
<title>Node131&#45;&gt;Node6</title>
<path fill="none" stroke="#63b8ff" d="M3166.74,-544.03C3208.39,-497.1 3398.76,-280.41 3398.76,-241.5 3398.76,-241.5 3398.76,-241.5 3398.76,-129.5 3398.76,-86.16 3363.3,-85.81 3324.76,-66 3269,-37.34 3196.12,-24.62 3154.27,-19.36"/>
<polygon fill="#63b8ff" stroke="#63b8ff" points="3154.92,-15.92 3144.58,-18.22 3154.1,-22.87 3154.92,-15.92"/>
</g>
<!-- Node131&#45;&gt;Node12 -->
<g id="edge175" class="edge">
<title>Node131&#45;&gt;Node12</title>
<path fill="none" stroke="#63b8ff" d="M3088.78,-551.21C2802.55,-543.8 1734.56,-515.38 1701.76,-503 1674.99,-492.89 1326.82,-192.94 1303.76,-176 1289.67,-165.65 1273.3,-154.9 1260.14,-146.55"/>
<polygon fill="#63b8ff" stroke="#63b8ff" points="1262.01,-143.59 1251.67,-141.24 1258.28,-149.52 1262.01,-143.59"/>
</g>
<!-- Node131&#45;&gt;Node30 -->
<g id="edge178" class="edge">
<title>Node131&#45;&gt;Node30</title>
<path fill="none" stroke="#63b8ff" d="M3163.27,-544.12C3173.33,-523.45 3196.76,-470.26 3196.76,-423 3196.76,-423 3196.76,-423 3196.76,-355 3196.76,-242.19 2817.64,-203.11 2645.28,-191.18"/>
<polygon fill="#63b8ff" stroke="#63b8ff" points="2645.71,-187.7 2635.49,-190.51 2645.23,-194.68 2645.71,-187.7"/>
</g>
<!-- Node131&#45;&gt;Node46 -->
<g id="edge179" class="edge">
<title>Node131&#45;&gt;Node46</title>
<path fill="none" stroke="#63b8ff" d="M3148.64,-544.07C3131,-528.71 3093.22,-496.65 3058.76,-473 2925.39,-381.5 2754.31,-289.75 2688.86,-255.52"/>
<polygon fill="#63b8ff" stroke="#63b8ff" points="2690.77,-252.57 2680.28,-251.05 2687.53,-258.77 2690.77,-252.57"/>
</g>
<!-- Node131&#45;&gt;Node61 -->
<g id="edge176" class="edge">
<title>Node131&#45;&gt;Node61</title>
<path fill="none" stroke="#63b8ff" d="M3089.05,-551.37C2868.09,-545.95 2195.37,-527.51 2155.76,-503 2134.19,-489.66 2122.05,-461.99 2115.95,-442.96"/>
<polygon fill="#63b8ff" stroke="#63b8ff" points="2119.32,-442.04 2113.19,-433.4 2112.6,-443.97 2119.32,-442.04"/>
</g>
<!-- Node131&#45;&gt;Node64 -->
<g id="edge177" class="edge">
<title>Node131&#45;&gt;Node64</title>
<path fill="none" stroke="#63b8ff" d="M3088.97,-548.54C2958.24,-540.12 2667.51,-521.1 2422.76,-503 2396.55,-501.06 2368.13,-498.84 2341.98,-496.75"/>
<polygon fill="#63b8ff" stroke="#63b8ff" points="2342.29,-493.26 2332.04,-495.95 2341.73,-500.24 2342.29,-493.26"/>
</g>
</g>
</svg>
        <g id="navigator" transform="translate(0 0)" fill="#404254">
                <rect fill="#f2f5e9" fill-opacity="0.5" stroke="#606060" stroke-width=".5" x="0" y="0" width="60" height="60"/>
                <use id="zoomplus" xlink:href="#zoomPlus" x="17" y="9" onmousedown="handleZoom(evt,'in')"/>
                <use id="zoomminus" xlink:href="#zoomMin" x="42" y="9" onmousedown="handleZoom(evt,'out')"/>
                <use id="reset" xlink:href="#resetDef" x="30" y="36" onmousedown="handleReset()"/>
                <g id="arrowUp" xlink:href="#dirArrow" transform="translate(30 24)" onmousedown="handlePan(0,-1)">
                  <use xlink:href="#rim" fill="#404040">
                        <set attributeName="fill" to="#808080" begin="arrowUp.mouseover" end="arrowUp.mouseout"/>
                  </use>
                  <path fill="none" stroke="white" stroke-width="1.5" d="M0,-3.0v7 M-2.5,-0.5L0,-3.0L2.5,-0.5"/>
                </g>
                <g id="arrowRight" xlink:href="#dirArrow" transform="rotate(90) translate(36 -43)" onmousedown="handlePan(1,0)">
                  <use xlink:href="#rim" fill="#404040">
                        <set attributeName="fill" to="#808080" begin="arrowRight.mouseover" end="arrowRight.mouseout"/>
                  </use>
                  <path fill="none" stroke="white" stroke-width="1.5" d="M0,-3.0v7 M-2.5,-0.5L0,-3.0L2.5,-0.5"/>
                </g>
                <g id="arrowDown" xlink:href="#dirArrow" transform="rotate(180) translate(-30 -48)" onmousedown="handlePan(0,1)">
                  <use xlink:href="#rim" fill="#404040">
                        <set attributeName="fill" to="#808080" begin="arrowDown.mouseover" end="arrowDown.mouseout"/>
                  </use>
                  <path fill="none" stroke="white" stroke-width="1.5" d="M0,-3.0v7 M-2.5,-0.5L0,-3.0L2.5,-0.5"/>
                </g>
                <g id="arrowLeft" xlink:href="#dirArrow" transform="rotate(270) translate(-36 17)" onmousedown="handlePan(-1,0)">
                  <use xlink:href="#rim" fill="#404040">
                        <set attributeName="fill" to="#808080" begin="arrowLeft.mouseover" end="arrowLeft.mouseout"/>
                  </use>
                  <path fill="none" stroke="white" stroke-width="1.5" d="M0,-3.0v7 M-2.5,-0.5L0,-3.0L2.5,-0.5"/>
                </g>
        </g>
        <svg viewBox="0 0 15 15" width="100%" height="30px" preserveAspectRatio="xMaxYMin meet">
         <g id="arrow_out" transform="scale(0.3 0.3)">
          <a xlink:href="rigid__body__utilities_8hpp__incl_org.svg" target="_base">
           <rect id="button" ry="5" rx="5" y="6" x="6" height="38" width="38"
                fill="#f2f5e9" fill-opacity="0.5" stroke="#606060" stroke-width="1.0"/>
           <path id="arrow"
             d="M 11.500037,31.436501 C 11.940474,20.09759 22.043105,11.32322 32.158766,21.979434 L 37.068811,17.246167 C 37.068811,17.246167 37.088388,32 37.088388,32 L 22.160133,31.978069 C 22.160133,31.978069 26.997745,27.140456 26.997745,27.140456 C 18.528582,18.264221 13.291696,25.230495 11.500037,31.436501 z"
             style="fill:#404040;"/>
          </a>
         </g>
        </svg>
</svg>
