<?xml version="1.0" encoding="UTF-8" standalone="no"?>
<!DOCTYPE svg PUBLIC "-//W3C//DTD SVG 1.1//EN"
 "http://www.w3.org/Graphics/SVG/1.1/DTD/svg11.dtd">
<!-- Generated by graphviz version 7.1.0 (0)
 -->
<!-- Title: /software/kratos/doxygen/applications/RANSApplication/custom_elements/convection_diffusion_reaction_element_data.h Pages: 1 -->
<svg width="2039pt" height="324pt"
 viewBox="0.00 0.00 2038.50 324.00" xmlns="http://www.w3.org/2000/svg" xmlns:xlink="http://www.w3.org/1999/xlink">
<g id="graph0" class="graph" transform="scale(1 1) rotate(0) translate(4 320)">
<title>/software/kratos/doxygen/applications/RANSApplication/custom_elements/convection_diffusion_reaction_element_data.h</title>
<!-- Node1 -->
<g id="node1" class="node">
<title>Node1</title>
<g id="a_node1"><a xlink:title=" ">
<polygon fill="#999999" stroke="#666666" points="1093.5,-316 902.5,-316 902.5,-264 1093.5,-264 1093.5,-316"/>
<text text-anchor="start" x="910.5" y="-304" font-family="Helvetica,sans-Serif" font-size="10.00">/software/kratos/doxygen</text>
<text text-anchor="start" x="910.5" y="-293" font-family="Helvetica,sans-Serif" font-size="10.00">/applications/RANSApplication</text>
<text text-anchor="start" x="910.5" y="-282" font-family="Helvetica,sans-Serif" font-size="10.00">/custom_elements/convection</text>
<text text-anchor="middle" x="998" y="-271" font-family="Helvetica,sans-Serif" font-size="10.00">_diffusion_reaction_element_data.h</text>
</a>
</g>
</g>
<!-- Node2 -->
<g id="node2" class="node">
<title>Node2</title>
<g id="a_node2"><a xlink:href="../../d6/dfd/epsilon__element__data_8h.html" target="_top" xlink:title=" ">
<polygon fill="white" stroke="#666666" points="1623,-228 1435,-228 1435,-176 1623,-176 1623,-228"/>
<text text-anchor="start" x="1443" y="-216" font-family="Helvetica,sans-Serif" font-size="10.00">/software/kratos/doxygen</text>
<text text-anchor="start" x="1443" y="-205" font-family="Helvetica,sans-Serif" font-size="10.00">/applications/RANSApplication</text>
<text text-anchor="start" x="1443" y="-194" font-family="Helvetica,sans-Serif" font-size="10.00">/custom_elements/data_containers</text>
<text text-anchor="middle" x="1529" y="-183" font-family="Helvetica,sans-Serif" font-size="10.00">/k_epsilon/epsilon_element_data.h</text>
</a>
</g>
</g>
<!-- Node1&#45;&gt;Node2 -->
<g id="edge1" class="edge">
<title>Node1&#45;&gt;Node2</title>
<path fill="none" stroke="#63b8ff" d="M1104.83,-276.68C1191.7,-265.97 1317.26,-248.9 1426,-228 1428.8,-227.46 1431.64,-226.9 1434.5,-226.31"/>
<polygon fill="#63b8ff" stroke="#63b8ff" points="1104.64,-273.18 1095.14,-277.87 1105.49,-280.13 1104.64,-273.18"/>
</g>
<!-- Node9 -->
<g id="node9" class="node">
<title>Node9</title>
<g id="a_node9"><a xlink:href="../../d8/dc1/k__epsilon_2k__element__data_8h.html" target="_top" xlink:title=" ">
<polygon fill="white" stroke="#666666" points="1195,-228 1007,-228 1007,-176 1195,-176 1195,-228"/>
<text text-anchor="start" x="1015" y="-216" font-family="Helvetica,sans-Serif" font-size="10.00">/software/kratos/doxygen</text>
<text text-anchor="start" x="1015" y="-205" font-family="Helvetica,sans-Serif" font-size="10.00">/applications/RANSApplication</text>
<text text-anchor="start" x="1015" y="-194" font-family="Helvetica,sans-Serif" font-size="10.00">/custom_elements/data_containers</text>
<text text-anchor="middle" x="1101" y="-183" font-family="Helvetica,sans-Serif" font-size="10.00">/k_epsilon/k_element_data.h</text>
</a>
</g>
</g>
<!-- Node1&#45;&gt;Node9 -->
<g id="edge8" class="edge">
<title>Node1&#45;&gt;Node9</title>
<path fill="none" stroke="#63b8ff" d="M1037.02,-256.42C1048.11,-247.16 1060.01,-237.22 1070.51,-228.45"/>
<polygon fill="#63b8ff" stroke="#63b8ff" points="1034.94,-253.6 1029.51,-262.69 1039.43,-258.97 1034.94,-253.6"/>
</g>
<!-- Node11 -->
<g id="node11" class="node">
<title>Node11</title>
<g id="a_node11"><a xlink:href="../../d4/d1c/k__omega_2k__element__data_8h.html" target="_top" xlink:title=" ">
<polygon fill="white" stroke="#666666" points="989,-228 801,-228 801,-176 989,-176 989,-228"/>
<text text-anchor="start" x="809" y="-216" font-family="Helvetica,sans-Serif" font-size="10.00">/software/kratos/doxygen</text>
<text text-anchor="start" x="809" y="-205" font-family="Helvetica,sans-Serif" font-size="10.00">/applications/RANSApplication</text>
<text text-anchor="start" x="809" y="-194" font-family="Helvetica,sans-Serif" font-size="10.00">/custom_elements/data_containers</text>
<text text-anchor="middle" x="895" y="-183" font-family="Helvetica,sans-Serif" font-size="10.00">/k_omega/k_element_data.h</text>
</a>
</g>
</g>
<!-- Node1&#45;&gt;Node11 -->
<g id="edge14" class="edge">
<title>Node1&#45;&gt;Node11</title>
<path fill="none" stroke="#63b8ff" d="M958.98,-256.42C947.89,-247.16 935.99,-237.22 925.49,-228.45"/>
<polygon fill="#63b8ff" stroke="#63b8ff" points="956.57,-258.97 966.49,-262.69 961.06,-253.6 956.57,-258.97"/>
</g>
<!-- Node13 -->
<g id="node13" class="node">
<title>Node13</title>
<g id="a_node13"><a xlink:href="../../de/ded/k__omega_2omega__element__data_8h.html" target="_top" xlink:title=" ">
<polygon fill="white" stroke="#666666" points="783,-228 595,-228 595,-176 783,-176 783,-228"/>
<text text-anchor="start" x="603" y="-216" font-family="Helvetica,sans-Serif" font-size="10.00">/software/kratos/doxygen</text>
<text text-anchor="start" x="603" y="-205" font-family="Helvetica,sans-Serif" font-size="10.00">/applications/RANSApplication</text>
<text text-anchor="start" x="603" y="-194" font-family="Helvetica,sans-Serif" font-size="10.00">/custom_elements/data_containers</text>
<text text-anchor="middle" x="689" y="-183" font-family="Helvetica,sans-Serif" font-size="10.00">/k_omega/omega_element_data.h</text>
</a>
</g>
</g>
<!-- Node1&#45;&gt;Node13 -->
<g id="edge20" class="edge">
<title>Node1&#45;&gt;Node13</title>
<path fill="none" stroke="#63b8ff" d="M895.67,-260.52C858.47,-250.17 816.69,-238.54 780.49,-228.46"/>
<polygon fill="#63b8ff" stroke="#63b8ff" points="894.51,-263.83 905.09,-263.14 896.39,-257.09 894.51,-263.83"/>
</g>
<!-- Node15 -->
<g id="node15" class="node">
<title>Node15</title>
<g id="a_node15"><a xlink:href="../../d1/de6/k__omega__sst_2k__element__data_8h.html" target="_top" xlink:title=" ">
<polygon fill="white" stroke="#666666" points="577,-228 389,-228 389,-176 577,-176 577,-228"/>
<text text-anchor="start" x="397" y="-216" font-family="Helvetica,sans-Serif" font-size="10.00">/software/kratos/doxygen</text>
<text text-anchor="start" x="397" y="-205" font-family="Helvetica,sans-Serif" font-size="10.00">/applications/RANSApplication</text>
<text text-anchor="start" x="397" y="-194" font-family="Helvetica,sans-Serif" font-size="10.00">/custom_elements/data_containers</text>
<text text-anchor="middle" x="483" y="-183" font-family="Helvetica,sans-Serif" font-size="10.00">/k_omega_sst/k_element_data.h</text>
</a>
</g>
</g>
<!-- Node1&#45;&gt;Node15 -->
<g id="edge26" class="edge">
<title>Node1&#45;&gt;Node15</title>
<path fill="none" stroke="#63b8ff" d="M890.98,-275.87C807.55,-264.99 688.97,-248.08 586,-228 583.11,-227.44 580.18,-226.85 577.22,-226.23"/>
<polygon fill="#63b8ff" stroke="#63b8ff" points="890.39,-279.33 900.76,-277.14 891.29,-272.39 890.39,-279.33"/>
</g>
<!-- Node17 -->
<g id="node17" class="node">
<title>Node17</title>
<g id="a_node17"><a xlink:href="../../dc/dca/k__omega__sst_2omega__element__data_8h.html" target="_top" xlink:title=" ">
<polygon fill="white" stroke="#666666" points="1416.5,-228 1213.5,-228 1213.5,-176 1416.5,-176 1416.5,-228"/>
<text text-anchor="start" x="1221.5" y="-216" font-family="Helvetica,sans-Serif" font-size="10.00">/software/kratos/doxygen</text>
<text text-anchor="start" x="1221.5" y="-205" font-family="Helvetica,sans-Serif" font-size="10.00">/applications/RANSApplication</text>
<text text-anchor="start" x="1221.5" y="-194" font-family="Helvetica,sans-Serif" font-size="10.00">/custom_elements/data_containers</text>
<text text-anchor="middle" x="1315" y="-183" font-family="Helvetica,sans-Serif" font-size="10.00">/k_omega_sst/omega_element_data.h</text>
</a>
</g>
</g>
<!-- Node1&#45;&gt;Node17 -->
<g id="edge32" class="edge">
<title>Node1&#45;&gt;Node17</title>
<path fill="none" stroke="#63b8ff" d="M1102.49,-260.65C1140.78,-250.27 1183.84,-238.58 1221.14,-228.46"/>
<polygon fill="#63b8ff" stroke="#63b8ff" points="1102.02,-257.15 1093.28,-263.15 1103.85,-263.91 1102.02,-257.15"/>
</g>
<!-- Node3 -->
<g id="node3" class="node">
<title>Node3</title>
<g id="a_node3"><a xlink:href="../../da/db6/convection__diffusion__reaction__cross__wind__stabilized__element_8cpp.html" target="_top" xlink:title=" ">
<polygon fill="white" stroke="#666666" points="792,-140 624,-140 624,-77 792,-77 792,-140"/>
<text text-anchor="start" x="632" y="-128" font-family="Helvetica,sans-Serif" font-size="10.00">/software/kratos/doxygen</text>
<text text-anchor="start" x="632" y="-117" font-family="Helvetica,sans-Serif" font-size="10.00">/applications/RANSApplication</text>
<text text-anchor="start" x="632" y="-106" font-family="Helvetica,sans-Serif" font-size="10.00">/custom_elements/convection</text>
<text text-anchor="start" x="632" y="-95" font-family="Helvetica,sans-Serif" font-size="10.00">_diffusion_reaction_cross_wind</text>
<text text-anchor="middle" x="708" y="-84" font-family="Helvetica,sans-Serif" font-size="10.00">_stabilized_element.cpp</text>
</a>
</g>
</g>
<!-- Node2&#45;&gt;Node3 -->
<g id="edge2" class="edge">
<title>Node2&#45;&gt;Node3</title>
<path fill="none" stroke="#63b8ff" d="M1423.44,-175.75C1148.75,-136.5 1070.77,-191.11 801,-140 798.16,-139.46 795.29,-138.86 792.4,-138.21"/>
<polygon fill="#63b8ff" stroke="#63b8ff" points="1422.66,-179.17 1433.06,-177.16 1423.67,-172.25 1422.66,-179.17"/>
</g>
<!-- Node4 -->
<g id="node4" class="node">
<title>Node4</title>
<g id="a_node4"><a xlink:href="../../db/d5f/convection__diffusion__reaction__element_8cpp.html" target="_top" xlink:title=" ">
<polygon fill="white" stroke="#666666" points="985.5,-134.5 810.5,-134.5 810.5,-82.5 985.5,-82.5 985.5,-134.5"/>
<text text-anchor="start" x="818.5" y="-122.5" font-family="Helvetica,sans-Serif" font-size="10.00">/software/kratos/doxygen</text>
<text text-anchor="start" x="818.5" y="-111.5" font-family="Helvetica,sans-Serif" font-size="10.00">/applications/RANSApplication</text>
<text text-anchor="start" x="818.5" y="-100.5" font-family="Helvetica,sans-Serif" font-size="10.00">/custom_elements/convection</text>
<text text-anchor="middle" x="898" y="-89.5" font-family="Helvetica,sans-Serif" font-size="10.00">_diffusion_reaction_element.cpp</text>
</a>
</g>
</g>
<!-- Node2&#45;&gt;Node4 -->
<g id="edge3" class="edge">
<title>Node2&#45;&gt;Node4</title>
<path fill="none" stroke="#63b8ff" d="M1423.35,-175.7C1233.75,-146.39 1179.4,-176.69 994,-140 986.97,-138.61 979.72,-136.88 972.52,-134.96"/>
<polygon fill="#63b8ff" stroke="#63b8ff" points="1422.62,-179.13 1433.05,-177.23 1423.72,-172.21 1422.62,-179.13"/>
</g>
<!-- Node5 -->
<g id="node5" class="node">
<title>Node5</title>
<g id="a_node5"><a xlink:href="../../d5/dd8/convection__diffusion__reaction__residual__based__flux__corrected__element_8cpp.html" target="_top" xlink:title=" ">
<polygon fill="white" stroke="#666666" points="1194.5,-140 1003.5,-140 1003.5,-77 1194.5,-77 1194.5,-140"/>
<text text-anchor="start" x="1011.5" y="-128" font-family="Helvetica,sans-Serif" font-size="10.00">/software/kratos/doxygen</text>
<text text-anchor="start" x="1011.5" y="-117" font-family="Helvetica,sans-Serif" font-size="10.00">/applications/RANSApplication</text>
<text text-anchor="start" x="1011.5" y="-106" font-family="Helvetica,sans-Serif" font-size="10.00">/custom_elements/convection</text>
<text text-anchor="start" x="1011.5" y="-95" font-family="Helvetica,sans-Serif" font-size="10.00">_diffusion_reaction_residual</text>
<text text-anchor="middle" x="1099" y="-84" font-family="Helvetica,sans-Serif" font-size="10.00">_based_flux_corrected_element.cpp</text>
</a>
</g>
</g>
<!-- Node2&#45;&gt;Node5 -->
<g id="edge4" class="edge">
<title>Node2&#45;&gt;Node5</title>
<path fill="none" stroke="#63b8ff" d="M1423.5,-175.58C1326.02,-156.58 1297.99,-161.19 1204,-140 1200.94,-139.31 1197.85,-138.58 1194.72,-137.83"/>
<polygon fill="#63b8ff" stroke="#63b8ff" points="1422.79,-179.01 1433.28,-177.52 1424.16,-172.14 1422.79,-179.01"/>
</g>
<!-- Node6 -->
<g id="node6" class="node">
<title>Node6</title>
<g id="a_node6"><a xlink:href="../../da/dc2/epsilon__element__data_8cpp.html" target="_top" xlink:title=" ">
<polygon fill="white" stroke="#666666" points="2030.5,-134.5 1833.5,-134.5 1833.5,-82.5 2030.5,-82.5 2030.5,-134.5"/>
<text text-anchor="start" x="1841.5" y="-122.5" font-family="Helvetica,sans-Serif" font-size="10.00">/software/kratos/doxygen</text>
<text text-anchor="start" x="1841.5" y="-111.5" font-family="Helvetica,sans-Serif" font-size="10.00">/applications/RANSApplication</text>
<text text-anchor="start" x="1841.5" y="-100.5" font-family="Helvetica,sans-Serif" font-size="10.00">/custom_elements/data_containers</text>
<text text-anchor="middle" x="1932" y="-89.5" font-family="Helvetica,sans-Serif" font-size="10.00">/k_epsilon/epsilon_element_data.cpp</text>
</a>
</g>
</g>
<!-- Node2&#45;&gt;Node6 -->
<g id="edge5" class="edge">
<title>Node2&#45;&gt;Node6</title>
<path fill="none" stroke="#63b8ff" d="M1634.47,-181.09C1690.91,-169.95 1761.49,-155.27 1824,-140 1830.44,-138.43 1837.07,-136.74 1843.73,-134.98"/>
<polygon fill="#63b8ff" stroke="#63b8ff" points="1634,-177.61 1624.86,-182.97 1635.35,-184.48 1634,-177.61"/>
</g>
<!-- Node7 -->
<g id="node7" class="node">
<title>Node7</title>
<g id="a_node7"><a xlink:href="../../d8/d1c/rans__application_8h.html" target="_top" xlink:title=" ">
<polygon fill="white" stroke="#666666" points="1377,-129 1213,-129 1213,-88 1377,-88 1377,-129"/>
<text text-anchor="start" x="1221" y="-117" font-family="Helvetica,sans-Serif" font-size="10.00">/software/kratos/doxygen</text>
<text text-anchor="start" x="1221" y="-106" font-family="Helvetica,sans-Serif" font-size="10.00">/applications/RANSApplication</text>
<text text-anchor="middle" x="1295" y="-95" font-family="Helvetica,sans-Serif" font-size="10.00">/rans_application.h</text>
</a>
</g>
</g>
<!-- Node2&#45;&gt;Node7 -->
<g id="edge6" class="edge">
<title>Node2&#45;&gt;Node7</title>
<path fill="none" stroke="#63b8ff" d="M1453.14,-171.34C1418.12,-157.64 1377.45,-141.74 1346.12,-129.49"/>
<polygon fill="#63b8ff" stroke="#63b8ff" points="1451.82,-174.58 1462.41,-174.96 1454.37,-168.06 1451.82,-174.58"/>
</g>
<!-- Node8 -->
<g id="node8" class="node">
<title>Node8</title>
<g id="a_node8"><a xlink:href="../../d3/d7b/rans__application_8cpp.html" target="_top" xlink:title=" ">
<polygon fill="white" stroke="#666666" points="1377,-41 1213,-41 1213,0 1377,0 1377,-41"/>
<text text-anchor="start" x="1221" y="-29" font-family="Helvetica,sans-Serif" font-size="10.00">/software/kratos/doxygen</text>
<text text-anchor="start" x="1221" y="-18" font-family="Helvetica,sans-Serif" font-size="10.00">/applications/RANSApplication</text>
<text text-anchor="middle" x="1295" y="-7" font-family="Helvetica,sans-Serif" font-size="10.00">/rans_application.cpp</text>
</a>
</g>
</g>
<!-- Node7&#45;&gt;Node8 -->
<g id="edge7" class="edge">
<title>Node7&#45;&gt;Node8</title>
<path fill="none" stroke="#63b8ff" d="M1295,-76.06C1295,-64.45 1295,-51.63 1295,-41.34"/>
<polygon fill="#63b8ff" stroke="#63b8ff" points="1291.5,-76.04 1295,-86.04 1298.5,-76.04 1291.5,-76.04"/>
</g>
<!-- Node9&#45;&gt;Node3 -->
<g id="edge9" class="edge">
<title>Node9&#45;&gt;Node3</title>
<path fill="none" stroke="#63b8ff" d="M995.58,-175.56C908.94,-157.81 883.81,-161.04 801,-140 798.12,-139.27 795.2,-138.49 792.25,-137.69"/>
<polygon fill="#63b8ff" stroke="#63b8ff" points="994.76,-178.97 1005.27,-177.59 996.2,-172.11 994.76,-178.97"/>
</g>
<!-- Node9&#45;&gt;Node4 -->
<g id="edge10" class="edge">
<title>Node9&#45;&gt;Node4</title>
<path fill="none" stroke="#63b8ff" d="M1033.99,-170.8C1008.16,-159.15 978.95,-145.99 954.24,-134.85"/>
<polygon fill="#63b8ff" stroke="#63b8ff" points="1032.52,-173.97 1043.07,-174.89 1035.39,-167.59 1032.52,-173.97"/>
</g>
<!-- Node9&#45;&gt;Node5 -->
<g id="edge11" class="edge">
<title>Node9&#45;&gt;Node5</title>
<path fill="none" stroke="#63b8ff" d="M1100.19,-164.01C1100.02,-156.17 1099.84,-147.97 1099.67,-140.38"/>
<polygon fill="#63b8ff" stroke="#63b8ff" points="1096.69,-164.08 1100.41,-174 1103.69,-163.92 1096.69,-164.08"/>
</g>
<!-- Node9&#45;&gt;Node7 -->
<g id="edge13" class="edge">
<title>Node9&#45;&gt;Node7</title>
<path fill="none" stroke="#63b8ff" d="M1165.4,-170.63C1194.09,-157.09 1227.09,-141.53 1252.62,-129.49"/>
<polygon fill="#63b8ff" stroke="#63b8ff" points="1163.96,-167.44 1156.41,-174.87 1166.95,-173.77 1163.96,-167.44"/>
</g>
<!-- Node10 -->
<g id="node10" class="node">
<title>Node10</title>
<g id="a_node10"><a xlink:href="../../da/d3e/k__epsilon_2k__element__data_8cpp.html" target="_top" xlink:title=" ">
<polygon fill="white" stroke="#666666" points="1583,-134.5 1395,-134.5 1395,-82.5 1583,-82.5 1583,-134.5"/>
<text text-anchor="start" x="1403" y="-122.5" font-family="Helvetica,sans-Serif" font-size="10.00">/software/kratos/doxygen</text>
<text text-anchor="start" x="1403" y="-111.5" font-family="Helvetica,sans-Serif" font-size="10.00">/applications/RANSApplication</text>
<text text-anchor="start" x="1403" y="-100.5" font-family="Helvetica,sans-Serif" font-size="10.00">/custom_elements/data_containers</text>
<text text-anchor="middle" x="1489" y="-89.5" font-family="Helvetica,sans-Serif" font-size="10.00">/k_epsilon/k_element_data.cpp</text>
</a>
</g>
</g>
<!-- Node9&#45;&gt;Node10 -->
<g id="edge12" class="edge">
<title>Node9&#45;&gt;Node10</title>
<path fill="none" stroke="#63b8ff" d="M1206.4,-175.53C1286.48,-158.36 1309.38,-158.88 1386,-140 1392.34,-138.44 1398.87,-136.73 1405.42,-134.95"/>
<polygon fill="#63b8ff" stroke="#63b8ff" points="1205.77,-172.08 1196.74,-177.63 1207.26,-178.92 1205.77,-172.08"/>
</g>
<!-- Node11&#45;&gt;Node3 -->
<g id="edge15" class="edge">
<title>Node11&#45;&gt;Node3</title>
<path fill="none" stroke="#63b8ff" d="M832.76,-170.55C812.94,-160.85 790.99,-150.11 771.11,-140.38"/>
<polygon fill="#63b8ff" stroke="#63b8ff" points="831.03,-173.6 841.55,-174.85 834.11,-167.31 831.03,-173.6"/>
</g>
<!-- Node11&#45;&gt;Node4 -->
<g id="edge16" class="edge">
<title>Node11&#45;&gt;Node4</title>
<path fill="none" stroke="#63b8ff" d="M896.2,-164.3C896.53,-154.42 896.87,-143.96 897.17,-134.85"/>
<polygon fill="#63b8ff" stroke="#63b8ff" points="892.71,-163.89 895.89,-174 899.71,-164.12 892.71,-163.89"/>
</g>
<!-- Node11&#45;&gt;Node5 -->
<g id="edge17" class="edge">
<title>Node11&#45;&gt;Node5</title>
<path fill="none" stroke="#63b8ff" d="M962.3,-170.81C984.09,-161.04 1008.26,-150.2 1030.15,-140.38"/>
<polygon fill="#63b8ff" stroke="#63b8ff" points="960.9,-167.61 953.21,-174.89 963.76,-173.99 960.9,-167.61"/>
</g>
<!-- Node11&#45;&gt;Node7 -->
<g id="edge19" class="edge">
<title>Node11&#45;&gt;Node7</title>
<path fill="none" stroke="#63b8ff" d="M1000.27,-175.6C1090.53,-157.46 1116.72,-161.75 1203,-140 1214.91,-137 1227.51,-133.23 1239.44,-129.37"/>
<polygon fill="#63b8ff" stroke="#63b8ff" points="999.82,-172.13 990.73,-177.56 1001.23,-178.98 999.82,-172.13"/>
</g>
<!-- Node12 -->
<g id="node12" class="node">
<title>Node12</title>
<g id="a_node12"><a xlink:href="../../db/d45/k__omega_2k__element__data_8cpp.html" target="_top" xlink:title=" ">
<polygon fill="white" stroke="#666666" points="606,-134.5 418,-134.5 418,-82.5 606,-82.5 606,-134.5"/>
<text text-anchor="start" x="426" y="-122.5" font-family="Helvetica,sans-Serif" font-size="10.00">/software/kratos/doxygen</text>
<text text-anchor="start" x="426" y="-111.5" font-family="Helvetica,sans-Serif" font-size="10.00">/applications/RANSApplication</text>
<text text-anchor="start" x="426" y="-100.5" font-family="Helvetica,sans-Serif" font-size="10.00">/custom_elements/data_containers</text>
<text text-anchor="middle" x="512" y="-89.5" font-family="Helvetica,sans-Serif" font-size="10.00">/k_omega/k_element_data.cpp</text>
</a>
</g>
</g>
<!-- Node11&#45;&gt;Node12 -->
<g id="edge18" class="edge">
<title>Node11&#45;&gt;Node12</title>
<path fill="none" stroke="#63b8ff" d="M789.87,-175.57C711.76,-158.57 689.55,-158.58 615,-140 608.76,-138.44 602.33,-136.75 595.87,-134.99"/>
<polygon fill="#63b8ff" stroke="#63b8ff" points="788.74,-178.91 799.26,-177.64 790.24,-172.07 788.74,-178.91"/>
</g>
<!-- Node13&#45;&gt;Node3 -->
<g id="edge21" class="edge">
<title>Node13&#45;&gt;Node3</title>
<path fill="none" stroke="#63b8ff" d="M696.62,-164.29C698.27,-156.36 699.99,-148.06 701.59,-140.38"/>
<polygon fill="#63b8ff" stroke="#63b8ff" points="693.21,-163.53 694.6,-174.03 700.06,-164.95 693.21,-163.53"/>
</g>
<!-- Node13&#45;&gt;Node4 -->
<g id="edge22" class="edge">
<title>Node13&#45;&gt;Node4</title>
<path fill="none" stroke="#63b8ff" d="M757.64,-170.95C784.31,-159.27 814.54,-146.04 840.09,-134.85"/>
<polygon fill="#63b8ff" stroke="#63b8ff" points="756.36,-167.69 748.6,-174.91 759.17,-174.1 756.36,-167.69"/>
</g>
<!-- Node13&#45;&gt;Node5 -->
<g id="edge23" class="edge">
<title>Node13&#45;&gt;Node5</title>
<path fill="none" stroke="#63b8ff" d="M794.4,-175.57C883.21,-157.47 908.67,-159.94 994,-140 997.05,-139.29 1000.14,-138.54 1003.26,-137.77"/>
<polygon fill="#63b8ff" stroke="#63b8ff" points="793.81,-172.11 784.73,-177.57 795.23,-178.97 793.81,-172.11"/>
</g>
<!-- Node13&#45;&gt;Node7 -->
<g id="edge25" class="edge">
<title>Node13&#45;&gt;Node7</title>
<path fill="none" stroke="#63b8ff" d="M794.68,-175.69C975.02,-147.5 1027.02,-176.36 1203,-140 1215.85,-137.34 1229.42,-133.48 1242.06,-129.38"/>
<polygon fill="#63b8ff" stroke="#63b8ff" points="794.27,-172.21 784.96,-177.25 795.38,-179.12 794.27,-172.21"/>
</g>
<!-- Node14 -->
<g id="node14" class="node">
<title>Node14</title>
<g id="a_node14"><a xlink:href="../../de/ddb/k__omega_2omega__element__data_8cpp.html" target="_top" xlink:title=" ">
<polygon fill="white" stroke="#666666" points="400,-134.5 206,-134.5 206,-82.5 400,-82.5 400,-134.5"/>
<text text-anchor="start" x="214" y="-122.5" font-family="Helvetica,sans-Serif" font-size="10.00">/software/kratos/doxygen</text>
<text text-anchor="start" x="214" y="-111.5" font-family="Helvetica,sans-Serif" font-size="10.00">/applications/RANSApplication</text>
<text text-anchor="start" x="214" y="-100.5" font-family="Helvetica,sans-Serif" font-size="10.00">/custom_elements/data_containers</text>
<text text-anchor="middle" x="303" y="-89.5" font-family="Helvetica,sans-Serif" font-size="10.00">/k_omega/omega_element_data.cpp</text>
</a>
</g>
</g>
<!-- Node13&#45;&gt;Node14 -->
<g id="edge24" class="edge">
<title>Node13&#45;&gt;Node14</title>
<path fill="none" stroke="#63b8ff" d="M583.87,-175.57C505.76,-158.54 483.62,-158.29 409,-140 402.58,-138.43 395.97,-136.72 389.33,-134.95"/>
<polygon fill="#63b8ff" stroke="#63b8ff" points="582.74,-178.91 593.26,-177.64 584.24,-172.07 582.74,-178.91"/>
</g>
<!-- Node15&#45;&gt;Node3 -->
<g id="edge27" class="edge">
<title>Node15&#45;&gt;Node3</title>
<path fill="none" stroke="#63b8ff" d="M556.25,-171.21C580.53,-161.34 607.59,-150.33 632.07,-140.38"/>
<polygon fill="#63b8ff" stroke="#63b8ff" points="555.02,-167.93 547.08,-174.94 557.66,-174.42 555.02,-167.93"/>
</g>
<!-- Node15&#45;&gt;Node4 -->
<g id="edge28" class="edge">
<title>Node15&#45;&gt;Node4</title>
<path fill="none" stroke="#63b8ff" d="M588.47,-175.58C682.93,-156.97 710.28,-161.75 801,-140 807.35,-138.48 813.89,-136.76 820.44,-134.93"/>
<polygon fill="#63b8ff" stroke="#63b8ff" points="587.84,-172.14 578.72,-177.54 589.22,-179 587.84,-172.14"/>
</g>
<!-- Node15&#45;&gt;Node5 -->
<g id="edge29" class="edge">
<title>Node15&#45;&gt;Node5</title>
<path fill="none" stroke="#63b8ff" d="M588.6,-175.69C767.66,-147.51 818.66,-172.88 994,-140 996.99,-139.44 1000.01,-138.83 1003.05,-138.18"/>
<polygon fill="#63b8ff" stroke="#63b8ff" points="588.27,-172.2 578.96,-177.25 589.39,-179.11 588.27,-172.2"/>
</g>
<!-- Node15&#45;&gt;Node7 -->
<g id="edge31" class="edge">
<title>Node15&#45;&gt;Node7</title>
<path fill="none" stroke="#63b8ff" d="M588.82,-175.71C859.78,-136.96 936.9,-190.96 1203,-140 1216.06,-137.5 1229.82,-133.64 1242.6,-129.49"/>
<polygon fill="#63b8ff" stroke="#63b8ff" points="588.33,-172.25 578.94,-177.16 589.34,-179.17 588.33,-172.25"/>
</g>
<!-- Node16 -->
<g id="node16" class="node">
<title>Node16</title>
<g id="a_node16"><a xlink:href="../../d6/dfa/k__omega__sst_2k__element__data_8cpp.html" target="_top" xlink:title=" ">
<polygon fill="white" stroke="#666666" points="188,-134.5 0,-134.5 0,-82.5 188,-82.5 188,-134.5"/>
<text text-anchor="start" x="8" y="-122.5" font-family="Helvetica,sans-Serif" font-size="10.00">/software/kratos/doxygen</text>
<text text-anchor="start" x="8" y="-111.5" font-family="Helvetica,sans-Serif" font-size="10.00">/applications/RANSApplication</text>
<text text-anchor="start" x="8" y="-100.5" font-family="Helvetica,sans-Serif" font-size="10.00">/custom_elements/data_containers</text>
<text text-anchor="middle" x="94" y="-89.5" font-family="Helvetica,sans-Serif" font-size="10.00">/k_omega_sst/k_element_data.cpp</text>
</a>
</g>
</g>
<!-- Node15&#45;&gt;Node16 -->
<g id="edge30" class="edge">
<title>Node15&#45;&gt;Node16</title>
<path fill="none" stroke="#63b8ff" d="M377.53,-180.55C323.34,-169.52 256.38,-155.1 197,-140 190.76,-138.41 184.34,-136.7 177.89,-134.93"/>
<polygon fill="#63b8ff" stroke="#63b8ff" points="376.56,-183.92 387.06,-182.47 377.95,-177.06 376.56,-183.92"/>
</g>
<!-- Node17&#45;&gt;Node3 -->
<g id="edge33" class="edge">
<title>Node17&#45;&gt;Node3</title>
<path fill="none" stroke="#63b8ff" d="M1201.86,-175.78C1024.27,-149.31 973.52,-175.51 801,-140 798.17,-139.42 795.31,-138.78 792.43,-138.09"/>
<polygon fill="#63b8ff" stroke="#63b8ff" points="1201.27,-179.24 1211.68,-177.29 1202.33,-172.32 1201.27,-179.24"/>
</g>
<!-- Node17&#45;&gt;Node4 -->
<g id="edge34" class="edge">
<title>Node17&#45;&gt;Node4</title>
<path fill="none" stroke="#63b8ff" d="M1202.08,-175.69C1109.16,-157.91 1082.6,-161.56 994,-140 987.8,-138.49 981.41,-136.79 975.02,-134.99"/>
<polygon fill="#63b8ff" stroke="#63b8ff" points="1201.15,-179.07 1211.64,-177.55 1202.49,-172.2 1201.15,-179.07"/>
</g>
<!-- Node17&#45;&gt;Node5 -->
<g id="edge35" class="edge">
<title>Node17&#45;&gt;Node5</title>
<path fill="none" stroke="#63b8ff" d="M1244.36,-171.08C1221.14,-161.24 1195.29,-150.29 1171.9,-140.38"/>
<polygon fill="#63b8ff" stroke="#63b8ff" points="1242.87,-174.24 1253.44,-174.92 1245.6,-167.8 1242.87,-174.24"/>
</g>
<!-- Node17&#45;&gt;Node7 -->
<g id="edge37" class="edge">
<title>Node17&#45;&gt;Node7</title>
<path fill="none" stroke="#63b8ff" d="M1307,-164.41C1304.39,-152.44 1301.58,-139.6 1299.34,-129.34"/>
<polygon fill="#63b8ff" stroke="#63b8ff" points="1303.55,-165.01 1309.11,-174.03 1310.39,-163.52 1303.55,-165.01"/>
</g>
<!-- Node18 -->
<g id="node18" class="node">
<title>Node18</title>
<g id="a_node18"><a xlink:href="../../dc/d76/k__omega__sst_2omega__element__data_8cpp.html" target="_top" xlink:title=" ">
<polygon fill="white" stroke="#666666" points="1815,-134.5 1601,-134.5 1601,-82.5 1815,-82.5 1815,-134.5"/>
<text text-anchor="start" x="1609" y="-122.5" font-family="Helvetica,sans-Serif" font-size="10.00">/software/kratos/doxygen</text>
<text text-anchor="start" x="1609" y="-111.5" font-family="Helvetica,sans-Serif" font-size="10.00">/applications/RANSApplication</text>
<text text-anchor="start" x="1609" y="-100.5" font-family="Helvetica,sans-Serif" font-size="10.00">/custom_elements/data_containers</text>
<text text-anchor="middle" x="1708" y="-89.5" font-family="Helvetica,sans-Serif" font-size="10.00">/k_omega_sst/omega_element_data.cpp</text>
</a>
</g>
</g>
<!-- Node17&#45;&gt;Node18 -->
<g id="edge36" class="edge">
<title>Node17&#45;&gt;Node18</title>
<path fill="none" stroke="#63b8ff" d="M1428.15,-175.54C1501.6,-159.47 1522.03,-156.78 1592,-140 1598.68,-138.4 1605.57,-136.7 1612.5,-134.96"/>
<polygon fill="#63b8ff" stroke="#63b8ff" points="1427.41,-172.12 1418.39,-177.69 1428.91,-178.96 1427.41,-172.12"/>
</g>
</g>
</svg>
