<?xml version="1.0" encoding="UTF-8" standalone="no"?>
<!DOCTYPE svg PUBLIC "-//W3C//DTD SVG 1.1//EN"
 "http://www.w3.org/Graphics/SVG/1.1/DTD/svg11.dtd">
<!-- Generated by graphviz version 7.1.0 (0)
 -->
<!-- Title: /software/kratos/doxygen/applications/ConstitutiveModelsApplication/custom_models/plasticity_models/hardening_rules/baker_johnson_cook_thermal_hardening_rule.hpp Pages: 1 -->
<svg width="570pt" height="346pt"
 viewBox="0.00 0.00 570.00 346.00" xmlns="http://www.w3.org/2000/svg" xmlns:xlink="http://www.w3.org/1999/xlink">
<g id="graph0" class="graph" transform="scale(1 1) rotate(0) translate(4 342)">
<title>/software/kratos/doxygen/applications/ConstitutiveModelsApplication/custom_models/plasticity_models/hardening_rules/baker_johnson_cook_thermal_hardening_rule.hpp</title>
<!-- Node1 -->
<g id="node1" class="node">
<title>Node1</title>
<g id="a_node1"><a xlink:title=" ">
<polygon fill="#999999" stroke="#666666" points="330,-338 118,-338 118,-275 330,-275 330,-338"/>
<text text-anchor="start" x="126" y="-326" font-family="Helvetica,sans-Serif" font-size="10.00">/software/kratos/doxygen</text>
<text text-anchor="start" x="126" y="-315" font-family="Helvetica,sans-Serif" font-size="10.00">/applications/ConstitutiveModels</text>
<text text-anchor="start" x="126" y="-304" font-family="Helvetica,sans-Serif" font-size="10.00">Application/custom_models/plasticity</text>
<text text-anchor="start" x="126" y="-293" font-family="Helvetica,sans-Serif" font-size="10.00">_models/hardening_rules/baker_johnson</text>
<text text-anchor="middle" x="224" y="-282" font-family="Helvetica,sans-Serif" font-size="10.00">_cook_thermal_hardening_rule.hpp</text>
</a>
</g>
</g>
<!-- Node2 -->
<g id="node2" class="node">
<title>Node2</title>
<g id="a_node2"><a xlink:href="../../d4/d36/constitutive__models__application_8h.html" target="_top" xlink:title=" ">
<polygon fill="white" stroke="#666666" points="176,-140 0,-140 0,-88 176,-88 176,-140"/>
<text text-anchor="start" x="8" y="-128" font-family="Helvetica,sans-Serif" font-size="10.00">/software/kratos/doxygen</text>
<text text-anchor="start" x="8" y="-117" font-family="Helvetica,sans-Serif" font-size="10.00">/applications/ConstitutiveModels</text>
<text text-anchor="start" x="8" y="-106" font-family="Helvetica,sans-Serif" font-size="10.00">Application/constitutive_models</text>
<text text-anchor="middle" x="88" y="-95" font-family="Helvetica,sans-Serif" font-size="10.00">_application.h</text>
</a>
</g>
</g>
<!-- Node1&#45;&gt;Node2 -->
<g id="edge1" class="edge">
<title>Node1&#45;&gt;Node2</title>
<path fill="none" stroke="#63b8ff" d="M138.04,-268.38C126.49,-260.18 115.92,-250.45 108,-239 87.66,-209.59 85.17,-166.97 86.01,-140.14"/>
<polygon fill="#63b8ff" stroke="#63b8ff" points="135.95,-271.19 146.22,-273.79 139.81,-265.35 135.95,-271.19"/>
</g>
<!-- Node4 -->
<g id="node4" class="node">
<title>Node4</title>
<g id="a_node4"><a xlink:href="../../d9/d08/baker__johnson__cook___j2__thermo__plasticity__model_8hpp.html" target="_top" xlink:title=" ">
<polygon fill="white" stroke="#666666" points="331.5,-239 116.5,-239 116.5,-176 331.5,-176 331.5,-239"/>
<text text-anchor="start" x="124.5" y="-227" font-family="Helvetica,sans-Serif" font-size="10.00">/software/kratos/doxygen</text>
<text text-anchor="start" x="124.5" y="-216" font-family="Helvetica,sans-Serif" font-size="10.00">/applications/ConstitutiveModels</text>
<text text-anchor="start" x="124.5" y="-205" font-family="Helvetica,sans-Serif" font-size="10.00">Application/custom_models/plasticity</text>
<text text-anchor="start" x="124.5" y="-194" font-family="Helvetica,sans-Serif" font-size="10.00">_models/baker_johnson_cook_J2_thermo</text>
<text text-anchor="middle" x="224" y="-183" font-family="Helvetica,sans-Serif" font-size="10.00">_plasticity_model.hpp</text>
</a>
</g>
</g>
<!-- Node1&#45;&gt;Node4 -->
<g id="edge3" class="edge">
<title>Node1&#45;&gt;Node4</title>
<path fill="none" stroke="#63b8ff" d="M224,-263.15C224,-255.2 224,-247.02 224,-239.5"/>
<polygon fill="#63b8ff" stroke="#63b8ff" points="220.5,-263.03 224,-273.03 227.5,-263.03 220.5,-263.03"/>
</g>
<!-- Node6 -->
<g id="node6" class="node">
<title>Node6</title>
<g id="a_node6"><a xlink:href="../../d2/d11/baker__johnson__cook__thermal__hardening__rule_8cpp.html" target="_top" xlink:title=" ">
<polygon fill="white" stroke="#666666" points="562,-239 350,-239 350,-176 562,-176 562,-239"/>
<text text-anchor="start" x="358" y="-227" font-family="Helvetica,sans-Serif" font-size="10.00">/software/kratos/doxygen</text>
<text text-anchor="start" x="358" y="-216" font-family="Helvetica,sans-Serif" font-size="10.00">/applications/ConstitutiveModels</text>
<text text-anchor="start" x="358" y="-205" font-family="Helvetica,sans-Serif" font-size="10.00">Application/custom_models/plasticity</text>
<text text-anchor="start" x="358" y="-194" font-family="Helvetica,sans-Serif" font-size="10.00">_models/hardening_rules/baker_johnson</text>
<text text-anchor="middle" x="456" y="-183" font-family="Helvetica,sans-Serif" font-size="10.00">_cook_thermal_hardening_rule.cpp</text>
</a>
</g>
</g>
<!-- Node1&#45;&gt;Node6 -->
<g id="edge6" class="edge">
<title>Node1&#45;&gt;Node6</title>
<path fill="none" stroke="#63b8ff" d="M308.56,-270.14C332.57,-260.11 358.52,-249.26 381.86,-239.5"/>
<polygon fill="#63b8ff" stroke="#63b8ff" points="307.32,-266.87 299.44,-273.96 310.02,-273.33 307.32,-266.87"/>
</g>
<!-- Node3 -->
<g id="node3" class="node">
<title>Node3</title>
<g id="a_node3"><a xlink:href="../../d0/dce/constitutive__models__application_8cpp.html" target="_top" xlink:title=" ">
<polygon fill="white" stroke="#666666" points="176,-52 0,-52 0,0 176,0 176,-52"/>
<text text-anchor="start" x="8" y="-40" font-family="Helvetica,sans-Serif" font-size="10.00">/software/kratos/doxygen</text>
<text text-anchor="start" x="8" y="-29" font-family="Helvetica,sans-Serif" font-size="10.00">/applications/ConstitutiveModels</text>
<text text-anchor="start" x="8" y="-18" font-family="Helvetica,sans-Serif" font-size="10.00">Application/constitutive_models</text>
<text text-anchor="middle" x="88" y="-7" font-family="Helvetica,sans-Serif" font-size="10.00">_application.cpp</text>
</a>
</g>
</g>
<!-- Node2&#45;&gt;Node3 -->
<g id="edge2" class="edge">
<title>Node2&#45;&gt;Node3</title>
<path fill="none" stroke="#63b8ff" d="M88,-76.26C88,-68.24 88,-59.92 88,-52.45"/>
<polygon fill="#63b8ff" stroke="#63b8ff" points="84.5,-76.15 88,-86.15 91.5,-76.15 84.5,-76.15"/>
</g>
<!-- Node4&#45;&gt;Node2 -->
<g id="edge4" class="edge">
<title>Node4&#45;&gt;Node2</title>
<path fill="none" stroke="#63b8ff" d="M168.65,-169.26C154.27,-159.59 139.11,-149.39 125.86,-140.47"/>
<polygon fill="#63b8ff" stroke="#63b8ff" points="166.45,-172 176.7,-174.68 170.36,-166.19 166.45,-172"/>
</g>
<!-- Node5 -->
<g id="node5" class="node">
<title>Node5</title>
<g id="a_node5"><a xlink:href="../../df/dfa/_constitutive_models_application_2custom__python_2add__custom__constitutive__laws__to__python_8cpp.html" target="_top" xlink:title=" ">
<polygon fill="white" stroke="#666666" points="417.5,-140 194.5,-140 194.5,-88 417.5,-88 417.5,-140"/>
<text text-anchor="start" x="202.5" y="-128" font-family="Helvetica,sans-Serif" font-size="10.00">/software/kratos/doxygen</text>
<text text-anchor="start" x="202.5" y="-117" font-family="Helvetica,sans-Serif" font-size="10.00">/applications/ConstitutiveModels</text>
<text text-anchor="start" x="202.5" y="-106" font-family="Helvetica,sans-Serif" font-size="10.00">Application/custom_python/add</text>
<text text-anchor="middle" x="306" y="-95" font-family="Helvetica,sans-Serif" font-size="10.00">_custom_constitutive_laws_to_python.cpp</text>
</a>
</g>
</g>
<!-- Node4&#45;&gt;Node5 -->
<g id="edge5" class="edge">
<title>Node4&#45;&gt;Node5</title>
<path fill="none" stroke="#63b8ff" d="M259.36,-167.04C267.43,-158.04 275.79,-148.71 283.17,-140.47"/>
<polygon fill="#63b8ff" stroke="#63b8ff" points="256.84,-164.61 252.77,-174.4 262.05,-169.28 256.84,-164.61"/>
</g>
</g>
</svg>
