<?xml version="1.0" encoding="UTF-8" standalone="no"?>
<!DOCTYPE svg PUBLIC "-//W3C//DTD SVG 1.1//EN"
 "http://www.w3.org/Graphics/SVG/1.1/DTD/svg11.dtd">
<!-- Generated by graphviz version 7.1.0 (0)
 -->
<!-- Title: /software/kratos/doxygen/applications/CoSimulationApplication/co_simulation_application_variables.h Pages: 1 -->
<svg width="1002pt" height="225pt"
 viewBox="0.00 0.00 1002.00 225.00" xmlns="http://www.w3.org/2000/svg" xmlns:xlink="http://www.w3.org/1999/xlink">
<g id="graph0" class="graph" transform="scale(1 1) rotate(0) translate(4 221)">
<title>/software/kratos/doxygen/applications/CoSimulationApplication/co_simulation_application_variables.h</title>
<!-- Node1 -->
<g id="node1" class="node">
<title>Node1</title>
<g id="a_node1"><a xlink:title=" ">
<polygon fill="#999999" stroke="#666666" points="547,-217 341,-217 341,-176 547,-176 547,-217"/>
<text text-anchor="start" x="349" y="-205" font-family="Helvetica,sans-Serif" font-size="10.00">/software/kratos/doxygen</text>
<text text-anchor="start" x="349" y="-194" font-family="Helvetica,sans-Serif" font-size="10.00">/applications/CoSimulationApplication</text>
<text text-anchor="middle" x="444" y="-183" font-family="Helvetica,sans-Serif" font-size="10.00">/co_simulation_application_variables.h</text>
</a>
</g>
</g>
<!-- Node2 -->
<g id="node2" class="node">
<title>Node2</title>
<g id="a_node2"><a xlink:href="../../d2/d17/co__simulation__application_8cpp.html" target="_top" xlink:title=" ">
<polygon fill="white" stroke="#666666" points="202,-134.5 0,-134.5 0,-93.5 202,-93.5 202,-134.5"/>
<text text-anchor="start" x="8" y="-122.5" font-family="Helvetica,sans-Serif" font-size="10.00">/software/kratos/doxygen</text>
<text text-anchor="start" x="8" y="-111.5" font-family="Helvetica,sans-Serif" font-size="10.00">/applications/CoSimulationApplication</text>
<text text-anchor="middle" x="101" y="-100.5" font-family="Helvetica,sans-Serif" font-size="10.00">/co_simulation_application.cpp</text>
</a>
</g>
</g>
<!-- Node1&#45;&gt;Node2 -->
<g id="edge1" class="edge">
<title>Node1&#45;&gt;Node2</title>
<path fill="none" stroke="#63b8ff" d="M348.19,-173.01C297.27,-161.06 235.2,-146.5 186,-134.95"/>
<polygon fill="#63b8ff" stroke="#63b8ff" points="347.2,-176.38 357.74,-175.26 348.8,-169.56 347.2,-176.38"/>
</g>
<!-- Node3 -->
<g id="node3" class="node">
<title>Node3</title>
<g id="a_node3"><a xlink:href="../../db/db9/co__simulation__application__variables_8cpp.html" target="_top" xlink:title=" ">
<polygon fill="white" stroke="#666666" points="438,-134.5 220,-134.5 220,-93.5 438,-93.5 438,-134.5"/>
<text text-anchor="start" x="228" y="-122.5" font-family="Helvetica,sans-Serif" font-size="10.00">/software/kratos/doxygen</text>
<text text-anchor="start" x="228" y="-111.5" font-family="Helvetica,sans-Serif" font-size="10.00">/applications/CoSimulationApplication</text>
<text text-anchor="middle" x="329" y="-100.5" font-family="Helvetica,sans-Serif" font-size="10.00">/co_simulation_application_variables.cpp</text>
</a>
</g>
</g>
<!-- Node1&#45;&gt;Node3 -->
<g id="edge2" class="edge">
<title>Node1&#45;&gt;Node3</title>
<path fill="none" stroke="#63b8ff" d="M406.51,-169.25C390.57,-158.1 372.3,-145.31 357.5,-134.95"/>
<polygon fill="#63b8ff" stroke="#63b8ff" points="404.13,-171.87 414.33,-174.73 408.15,-166.13 404.13,-171.87"/>
</g>
<!-- Node4 -->
<g id="node4" class="node">
<title>Node4</title>
<g id="a_node4"><a xlink:href="../../df/dc5/co__sim__io__conversion__utilities_8cpp.html" target="_top" xlink:title=" ">
<polygon fill="white" stroke="#666666" points="664,-140 456,-140 456,-88 664,-88 664,-140"/>
<text text-anchor="start" x="464" y="-128" font-family="Helvetica,sans-Serif" font-size="10.00">/software/kratos/doxygen</text>
<text text-anchor="start" x="464" y="-117" font-family="Helvetica,sans-Serif" font-size="10.00">/applications/CoSimulationApplication</text>
<text text-anchor="start" x="464" y="-106" font-family="Helvetica,sans-Serif" font-size="10.00">/custom_utilities/co_sim_io_conversion</text>
<text text-anchor="middle" x="560" y="-95" font-family="Helvetica,sans-Serif" font-size="10.00">_utilities.cpp</text>
</a>
</g>
</g>
<!-- Node1&#45;&gt;Node4 -->
<g id="edge3" class="edge">
<title>Node1&#45;&gt;Node4</title>
<path fill="none" stroke="#63b8ff" d="M482.01,-169.12C495.29,-159.91 510.16,-149.59 523.32,-140.45"/>
<polygon fill="#63b8ff" stroke="#63b8ff" points="480.14,-166.16 473.92,-174.74 484.13,-171.91 480.14,-166.16"/>
</g>
<!-- Node5 -->
<g id="node5" class="node">
<title>Node5</title>
<g id="a_node5"><a xlink:href="../../d4/d15/feti__dynamic__coupling__utilities_8h.html" target="_top" xlink:title=" ">
<polygon fill="white" stroke="#666666" points="884,-140 682,-140 682,-88 884,-88 884,-140"/>
<text text-anchor="start" x="690" y="-128" font-family="Helvetica,sans-Serif" font-size="10.00">/software/kratos/doxygen</text>
<text text-anchor="start" x="690" y="-117" font-family="Helvetica,sans-Serif" font-size="10.00">/applications/CoSimulationApplication</text>
<text text-anchor="start" x="690" y="-106" font-family="Helvetica,sans-Serif" font-size="10.00">/custom_utilities/feti_dynamic</text>
<text text-anchor="middle" x="783" y="-95" font-family="Helvetica,sans-Serif" font-size="10.00">_coupling_utilities.h</text>
</a>
</g>
</g>
<!-- Node1&#45;&gt;Node5 -->
<g id="edge4" class="edge">
<title>Node1&#45;&gt;Node5</title>
<path fill="none" stroke="#63b8ff" d="M538.92,-172.96C583.41,-162.39 636.48,-149.79 681.75,-139.04"/>
<polygon fill="#63b8ff" stroke="#63b8ff" points="538.19,-169.54 529.27,-175.25 539.81,-176.35 538.19,-169.54"/>
</g>
<!-- Node6 -->
<g id="node6" class="node">
<title>Node6</title>
<g id="a_node6"><a xlink:href="../../d9/dc9/_co_simulation_application_2custom__python_2add__custom__utilities__to__python_8cpp.html" target="_top" xlink:title=" ">
<polygon fill="white" stroke="#666666" points="774,-52 572,-52 572,0 774,0 774,-52"/>
<text text-anchor="start" x="580" y="-40" font-family="Helvetica,sans-Serif" font-size="10.00">/software/kratos/doxygen</text>
<text text-anchor="start" x="580" y="-29" font-family="Helvetica,sans-Serif" font-size="10.00">/applications/CoSimulationApplication</text>
<text text-anchor="start" x="580" y="-18" font-family="Helvetica,sans-Serif" font-size="10.00">/custom_python/add_custom_utilities</text>
<text text-anchor="middle" x="673" y="-7" font-family="Helvetica,sans-Serif" font-size="10.00">_to_python.cpp</text>
</a>
</g>
</g>
<!-- Node5&#45;&gt;Node6 -->
<g id="edge5" class="edge">
<title>Node5&#45;&gt;Node6</title>
<path fill="none" stroke="#63b8ff" d="M741.68,-80.7C729.74,-71.36 716.88,-61.31 705.56,-52.45"/>
<polygon fill="#63b8ff" stroke="#63b8ff" points="739.37,-83.33 749.4,-86.73 743.68,-77.81 739.37,-83.33"/>
</g>
<!-- Node7 -->
<g id="node7" class="node">
<title>Node7</title>
<g id="a_node7"><a xlink:href="../../d1/d3d/feti__dynamic__coupling__utilities_8cpp.html" target="_top" xlink:title=" ">
<polygon fill="white" stroke="#666666" points="994,-52 792,-52 792,0 994,0 994,-52"/>
<text text-anchor="start" x="800" y="-40" font-family="Helvetica,sans-Serif" font-size="10.00">/software/kratos/doxygen</text>
<text text-anchor="start" x="800" y="-29" font-family="Helvetica,sans-Serif" font-size="10.00">/applications/CoSimulationApplication</text>
<text text-anchor="start" x="800" y="-18" font-family="Helvetica,sans-Serif" font-size="10.00">/custom_utilities/feti_dynamic</text>
<text text-anchor="middle" x="893" y="-7" font-family="Helvetica,sans-Serif" font-size="10.00">_coupling_utilities.cpp</text>
</a>
</g>
</g>
<!-- Node5&#45;&gt;Node7 -->
<g id="edge6" class="edge">
<title>Node5&#45;&gt;Node7</title>
<path fill="none" stroke="#63b8ff" d="M824.32,-80.7C836.26,-71.36 849.12,-61.31 860.44,-52.45"/>
<polygon fill="#63b8ff" stroke="#63b8ff" points="822.32,-77.81 816.6,-86.73 826.63,-83.33 822.32,-77.81"/>
</g>
</g>
</svg>
