<?xml version="1.0" encoding="UTF-8" standalone="no"?>
<!DOCTYPE svg PUBLIC "-//W3C//DTD SVG 1.1//EN"
 "http://www.w3.org/Graphics/SVG/1.1/DTD/svg11.dtd">
<!-- Generated by graphviz version 7.1.0 (0)
 -->
<!-- Title: /software/kratos/doxygen/kratos/includes/model_part_io.h Pages: 1 -->
<!--zoomable 335 -->
<svg id="main" version="1.1" xmlns="http://www.w3.org/2000/svg" xmlns:xlink="http://www.w3.org/1999/xlink" xml:space="preserve" onload="init(evt)">
<style type="text/css"><![CDATA[
.edge:hover path { stroke: red; }
.edge:hover polygon { stroke: red; fill: red; }
]]></style>
<script type="text/javascript"><![CDATA[
var edges = document.getElementsByTagName('g');
if (edges && edges.length) {
  for (var i=0;i<edges.length;i++) {
    if (edges[i].id.substr(0,4)=='edge') {
      edges[i].setAttribute('class','edge');
    }
  }
}
]]></script>
        <defs>
                <circle id="rim" cx="0" cy="0" r="7"/>
                <circle id="rim2" cx="0" cy="0" r="3.5"/>
                <g id="zoomPlus">
                        <use xlink:href="#rim" fill="#404040">
                                <set attributeName="fill" to="#808080" begin="zoomplus.mouseover" end="zoomplus.mouseout"/>
                        </use>
                        <path d="M-4,0h8M0,-4v8" fill="none" stroke="white" stroke-width="1.5" pointer-events="none"/>
                </g>
                <g id="zoomMin">
                        <use xlink:href="#rim" fill="#404040">
                                <set attributeName="fill" to="#808080" begin="zoomminus.mouseover" end="zoomminus.mouseout"/>
                        </use>
                        <path d="M-4,0h8" fill="none" stroke="white" stroke-width="1.5" pointer-events="none"/>
                </g>
                <g id="dirArrow">
                        <path fill="none" stroke="white" stroke-width="1.5" d="M0,-3.0v7 M-2.5,-0.5L0,-3.0L2.5,-0.5"/>
                </g>
               <g id="resetDef">
                       <use xlink:href="#rim2" fill="#404040">
                               <set attributeName="fill" to="#808080" begin="reset.mouseover" end="reset.mouseout"/>
                       </use>
               </g>
        </defs>

<script type="text/javascript">
var viewWidth = 2359;
var viewHeight = 335;
var sectionId = 'dynsection-1';
</script>
<script xlink:href="../../svgpan.js"/>
<svg id="graph" class="graph">
<g id="viewport">
<title>/software/kratos/doxygen/kratos/includes/model_part_io.h</title>
<!-- Node1 -->
<g id="node1" class="node">
<title>Node1</title>
<g id="a_node1"><a xlink:title=" ">
<polygon fill="#999999" stroke="#666666" points="1541,-327 1401,-327 1401,-286 1541,-286 1541,-327"/>
<text text-anchor="start" x="1409" y="-315" font-family="Helvetica,sans-Serif" font-size="10.00">/software/kratos/doxygen</text>
<text text-anchor="start" x="1409" y="-304" font-family="Helvetica,sans-Serif" font-size="10.00">/kratos/includes/model</text>
<text text-anchor="middle" x="1471" y="-293" font-family="Helvetica,sans-Serif" font-size="10.00">_part_io.h</text>
</a>
</g>
</g>
<!-- Node2 -->
<g id="node2" class="node">
<title>Node2</title>
<g id="a_node2"><a xlink:href="../../d0/d34/kratos__internals_8h.html" target="_top" xlink:title=" ">
<polygon fill="white" stroke="#666666" points="442,-239 230,-239 230,-198 442,-198 442,-239"/>
<text text-anchor="start" x="238" y="-227" font-family="Helvetica,sans-Serif" font-size="10.00">/software/kratos/doxygen</text>
<text text-anchor="start" x="238" y="-216" font-family="Helvetica,sans-Serif" font-size="10.00">/applications/CSharpWrapperApplication</text>
<text text-anchor="middle" x="336" y="-205" font-family="Helvetica,sans-Serif" font-size="10.00">/custom_includes/kratos_internals.h</text>
</a>
</g>
</g>
<!-- Node1&#45;&gt;Node2 -->
<g id="edge1" class="edge">
<title>Node1&#45;&gt;Node2</title>
<path fill="none" stroke="#63b8ff" d="M1389.31,-303.22C1180.54,-297.03 631.19,-278.49 451,-250 434.88,-247.45 417.76,-243.57 401.79,-239.42"/>
<polygon fill="#63b8ff" stroke="#63b8ff" points="1389.17,-306.71 1399.27,-303.51 1389.38,-299.72 1389.17,-306.71"/>
</g>
<!-- Node7 -->
<g id="node7" class="node">
<title>Node7</title>
<g id="a_node7"><a xlink:href="../../d1/dc3/mmg__process_8cpp.html" target="_top" xlink:title=" ">
<polygon fill="white" stroke="#666666" points="690,-239 460,-239 460,-198 690,-198 690,-239"/>
<text text-anchor="start" x="468" y="-227" font-family="Helvetica,sans-Serif" font-size="10.00">/software/kratos/doxygen</text>
<text text-anchor="start" x="468" y="-216" font-family="Helvetica,sans-Serif" font-size="10.00">/applications/MeshingApplication</text>
<text text-anchor="middle" x="575" y="-205" font-family="Helvetica,sans-Serif" font-size="10.00">/custom_processes/mmg/mmg_process.cpp</text>
</a>
</g>
</g>
<!-- Node1&#45;&gt;Node7 -->
<g id="edge6" class="edge">
<title>Node1&#45;&gt;Node7</title>
<path fill="none" stroke="#63b8ff" d="M1389.42,-304.17C1248.02,-300.85 948.58,-289.37 699,-250 682.14,-247.34 664.2,-243.52 647.36,-239.48"/>
<polygon fill="#63b8ff" stroke="#63b8ff" points="1388.97,-307.66 1399.04,-304.39 1389.13,-300.66 1388.97,-307.66"/>
</g>
<!-- Node8 -->
<g id="node8" class="node">
<title>Node8</title>
<g id="a_node8"><a xlink:href="../../dc/de0/pmmg__process_8cpp.html" target="_top" xlink:title=" ">
<polygon fill="white" stroke="#666666" points="896,-244.5 708,-244.5 708,-192.5 896,-192.5 896,-244.5"/>
<text text-anchor="start" x="716" y="-232.5" font-family="Helvetica,sans-Serif" font-size="10.00">/software/kratos/doxygen</text>
<text text-anchor="start" x="716" y="-221.5" font-family="Helvetica,sans-Serif" font-size="10.00">/applications/MeshingApplication</text>
<text text-anchor="start" x="716" y="-210.5" font-family="Helvetica,sans-Serif" font-size="10.00">/custom_processes/parmmg/pmmg</text>
<text text-anchor="middle" x="802" y="-199.5" font-family="Helvetica,sans-Serif" font-size="10.00">_process.cpp</text>
</a>
</g>
</g>
<!-- Node1&#45;&gt;Node8 -->
<g id="edge7" class="edge">
<title>Node1&#45;&gt;Node8</title>
<path fill="none" stroke="#63b8ff" d="M1389.28,-302.36C1278.61,-297.01 1075.34,-283.26 905,-250 897.68,-248.57 890.13,-246.84 882.6,-244.95"/>
<polygon fill="#63b8ff" stroke="#63b8ff" points="1389.01,-305.85 1399.16,-302.83 1389.34,-298.86 1389.01,-305.85"/>
</g>
<!-- Node9 -->
<g id="node9" class="node">
<title>Node9</title>
<g id="a_node9"><a xlink:href="../../d6/d8a/metis__divide__heterogeneous__input__in__memory__process_8h.html" target="_top" xlink:title=" ">
<polygon fill="white" stroke="#666666" points="1099.5,-250 914.5,-250 914.5,-187 1099.5,-187 1099.5,-250"/>
<text text-anchor="start" x="922.5" y="-238" font-family="Helvetica,sans-Serif" font-size="10.00">/software/kratos/doxygen</text>
<text text-anchor="start" x="922.5" y="-227" font-family="Helvetica,sans-Serif" font-size="10.00">/applications/MetisApplication</text>
<text text-anchor="start" x="922.5" y="-216" font-family="Helvetica,sans-Serif" font-size="10.00">/custom_processes/metis_divide</text>
<text text-anchor="start" x="922.5" y="-205" font-family="Helvetica,sans-Serif" font-size="10.00">_heterogeneous_input_in_memory</text>
<text text-anchor="middle" x="1007" y="-194" font-family="Helvetica,sans-Serif" font-size="10.00">_process.h</text>
</a>
</g>
</g>
<!-- Node1&#45;&gt;Node9 -->
<g id="edge8" class="edge">
<title>Node1&#45;&gt;Node9</title>
<path fill="none" stroke="#63b8ff" d="M1389.67,-296.3C1315.91,-287.18 1204.44,-271.48 1109,-250 1106.02,-249.33 1103.01,-248.62 1099.97,-247.88"/>
<polygon fill="#63b8ff" stroke="#63b8ff" points="1388.87,-299.73 1399.22,-297.47 1389.72,-292.78 1388.87,-299.73"/>
</g>
<!-- Node12 -->
<g id="node12" class="node">
<title>Node12</title>
<g id="a_node12"><a xlink:href="../../da/d1d/mesh__moving__modeler_8cpp.html" target="_top" xlink:title=" ">
<polygon fill="white" stroke="#666666" points="1362,-239 1118,-239 1118,-198 1362,-198 1362,-239"/>
<text text-anchor="start" x="1126" y="-227" font-family="Helvetica,sans-Serif" font-size="10.00">/software/kratos/doxygen</text>
<text text-anchor="start" x="1126" y="-216" font-family="Helvetica,sans-Serif" font-size="10.00">/applications/ShallowWaterApplication</text>
<text text-anchor="middle" x="1240" y="-205" font-family="Helvetica,sans-Serif" font-size="10.00">/custom_modelers/mesh_moving_modeler.cpp</text>
</a>
</g>
</g>
<!-- Node1&#45;&gt;Node12 -->
<g id="edge11" class="edge">
<title>Node1&#45;&gt;Node12</title>
<path fill="none" stroke="#63b8ff" d="M1406.66,-281.55C1371.09,-268.31 1327.41,-252.04 1293.69,-239.49"/>
<polygon fill="#63b8ff" stroke="#63b8ff" points="1405.41,-284.82 1416,-285.03 1407.85,-278.26 1405.41,-284.82"/>
</g>
<!-- Node13 -->
<g id="node13" class="node">
<title>Node13</title>
<g id="a_node13"><a xlink:href="../../d4/df2/shell__to__solid__shell__process_8cpp.html" target="_top" xlink:title=" ">
<polygon fill="white" stroke="#666666" points="1561.5,-244.5 1380.5,-244.5 1380.5,-192.5 1561.5,-192.5 1561.5,-244.5"/>
<text text-anchor="start" x="1388.5" y="-232.5" font-family="Helvetica,sans-Serif" font-size="10.00">/software/kratos/doxygen</text>
<text text-anchor="start" x="1388.5" y="-221.5" font-family="Helvetica,sans-Serif" font-size="10.00">/applications/StructuralMechanics</text>
<text text-anchor="start" x="1388.5" y="-210.5" font-family="Helvetica,sans-Serif" font-size="10.00">Application/custom_processes</text>
<text text-anchor="middle" x="1471" y="-199.5" font-family="Helvetica,sans-Serif" font-size="10.00">/shell_to_solid_shell_process.cpp</text>
</a>
</g>
</g>
<!-- Node1&#45;&gt;Node13 -->
<g id="edge12" class="edge">
<title>Node1&#45;&gt;Node13</title>
<path fill="none" stroke="#63b8ff" d="M1471,-274.33C1471,-264.66 1471,-254.12 1471,-244.9"/>
<polygon fill="#63b8ff" stroke="#63b8ff" points="1467.5,-274.04 1471,-284.04 1474.5,-274.04 1467.5,-274.04"/>
</g>
<!-- Node14 -->
<g id="node14" class="node">
<title>Node14</title>
<g id="a_node14"><a xlink:href="../../d2/da6/formfinding__strategy_8hpp.html" target="_top" xlink:title=" ">
<polygon fill="white" stroke="#666666" points="1760.5,-250 1579.5,-250 1579.5,-187 1760.5,-187 1760.5,-250"/>
<text text-anchor="start" x="1587.5" y="-238" font-family="Helvetica,sans-Serif" font-size="10.00">/software/kratos/doxygen</text>
<text text-anchor="start" x="1587.5" y="-227" font-family="Helvetica,sans-Serif" font-size="10.00">/applications/StructuralMechanics</text>
<text text-anchor="start" x="1587.5" y="-216" font-family="Helvetica,sans-Serif" font-size="10.00">Application/custom_strategies</text>
<text text-anchor="start" x="1587.5" y="-205" font-family="Helvetica,sans-Serif" font-size="10.00">/custom_strategies/formfinding</text>
<text text-anchor="middle" x="1670" y="-194" font-family="Helvetica,sans-Serif" font-size="10.00">_strategy.hpp</text>
</a>
</g>
</g>
<!-- Node1&#45;&gt;Node14 -->
<g id="edge13" class="edge">
<title>Node1&#45;&gt;Node14</title>
<path fill="none" stroke="#63b8ff" d="M1527.65,-281.02C1549.66,-271.51 1575.12,-260.5 1598.37,-250.46"/>
<polygon fill="#63b8ff" stroke="#63b8ff" points="1526.34,-277.77 1518.54,-284.95 1529.11,-284.2 1526.34,-277.77"/>
</g>
<!-- Node16 -->
<g id="node16" class="node">
<title>Node16</title>
<g id="a_node16"><a xlink:href="../../d1/d6e/reorder__consecutive__model__part__io_8h.html" target="_top" xlink:title=" ">
<polygon fill="white" stroke="#666666" points="1981,-239 1817,-239 1817,-198 1981,-198 1981,-239"/>
<text text-anchor="start" x="1825" y="-227" font-family="Helvetica,sans-Serif" font-size="10.00">/software/kratos/doxygen</text>
<text text-anchor="start" x="1825" y="-216" font-family="Helvetica,sans-Serif" font-size="10.00">/kratos/includes/reorder</text>
<text text-anchor="middle" x="1899" y="-205" font-family="Helvetica,sans-Serif" font-size="10.00">_consecutive_model_part_io.h</text>
</a>
</g>
</g>
<!-- Node1&#45;&gt;Node16 -->
<g id="edge15" class="edge">
<title>Node1&#45;&gt;Node16</title>
<path fill="none" stroke="#63b8ff" d="M1552.21,-295.21C1619.83,-285.86 1718.38,-270.41 1803,-250 1815.33,-247.03 1828.37,-243.29 1840.74,-239.47"/>
<polygon fill="#63b8ff" stroke="#63b8ff" points="1552.14,-291.68 1542.71,-296.51 1553.09,-298.62 1552.14,-291.68"/>
</g>
<!-- Node19 -->
<g id="node19" class="node">
<title>Node19</title>
<g id="a_node19"><a xlink:href="../../d8/df1/add__io__to__python_8cpp.html" target="_top" xlink:title=" ">
<polygon fill="white" stroke="#666666" points="1781,-140 1641,-140 1641,-99 1781,-99 1781,-140"/>
<text text-anchor="start" x="1649" y="-128" font-family="Helvetica,sans-Serif" font-size="10.00">/software/kratos/doxygen</text>
<text text-anchor="start" x="1649" y="-117" font-family="Helvetica,sans-Serif" font-size="10.00">/kratos/python/add_io_to</text>
<text text-anchor="middle" x="1711" y="-106" font-family="Helvetica,sans-Serif" font-size="10.00">_python.cpp</text>
</a>
</g>
</g>
<!-- Node1&#45;&gt;Node19 -->
<g id="edge21" class="edge">
<title>Node1&#45;&gt;Node19</title>
<path fill="none" stroke="#63b8ff" d="M1552.63,-301.75C1631.46,-296.22 1742.81,-282.7 1770,-250 1787.9,-228.47 1779.94,-213.18 1770,-187 1763.1,-168.82 1748.7,-152.43 1735.85,-140.46"/>
<polygon fill="#63b8ff" stroke="#63b8ff" points="1552.5,-298.25 1542.75,-302.41 1552.97,-305.24 1552.5,-298.25"/>
</g>
<!-- Node21 -->
<g id="node21" class="node">
<title>Node21</title>
<g id="a_node21"><a xlink:href="../../d9/db4/single__import__model__part_8cpp.html" target="_top" xlink:title=" ">
<polygon fill="white" stroke="#666666" points="2351,-140 2211,-140 2211,-99 2351,-99 2351,-140"/>
<text text-anchor="start" x="2219" y="-128" font-family="Helvetica,sans-Serif" font-size="10.00">/software/kratos/doxygen</text>
<text text-anchor="start" x="2219" y="-117" font-family="Helvetica,sans-Serif" font-size="10.00">/kratos/utilities/single</text>
<text text-anchor="middle" x="2281" y="-106" font-family="Helvetica,sans-Serif" font-size="10.00">_import_model_part.cpp</text>
</a>
</g>
</g>
<!-- Node1&#45;&gt;Node21 -->
<g id="edge23" class="edge">
<title>Node1&#45;&gt;Node21</title>
<path fill="none" stroke="#63b8ff" d="M1552.47,-305.45C1679.96,-303.96 1919.34,-295.02 1990,-250 2017.58,-232.43 2001.31,-205.89 2028,-187 2092.45,-141.37 2126.24,-173.3 2202,-151 2212.15,-148.01 2222.85,-144.29 2232.97,-140.49"/>
<polygon fill="#63b8ff" stroke="#63b8ff" points="1552.72,-301.95 1542.76,-305.55 1552.79,-308.95 1552.72,-301.95"/>
</g>
<!-- Node22 -->
<g id="node22" class="node">
<title>Node22</title>
<g id="a_node22"><a xlink:href="../../df/d9b/model__part__io_8cpp.html" target="_top" xlink:title=" ">
<polygon fill="white" stroke="#666666" points="2221,-233.5 2037,-233.5 2037,-203.5 2221,-203.5 2221,-233.5"/>
<text text-anchor="start" x="2045" y="-221.5" font-family="Helvetica,sans-Serif" font-size="10.00">/software/kratos/doxygen</text>
<text text-anchor="middle" x="2129" y="-210.5" font-family="Helvetica,sans-Serif" font-size="10.00">/kratos/sources/model_part_io.cpp</text>
</a>
</g>
</g>
<!-- Node1&#45;&gt;Node22 -->
<g id="edge22" class="edge">
<title>Node1&#45;&gt;Node22</title>
<path fill="none" stroke="#63b8ff" d="M1552.78,-301.88C1661.13,-296.04 1857.83,-281.8 2023,-250 2043.78,-246 2066.37,-239.77 2085.34,-233.98"/>
<polygon fill="#63b8ff" stroke="#63b8ff" points="1552.61,-298.39 1542.81,-302.41 1552.98,-305.38 1552.61,-298.39"/>
</g>
<!-- Node3 -->
<g id="node3" class="node">
<title>Node3</title>
<g id="a_node3"><a xlink:href="../../d0/d29/kratos__wrapper_8h.html" target="_top" xlink:title=" ">
<polygon fill="white" stroke="#666666" points="327,-140 115,-140 115,-99 327,-99 327,-140"/>
<text text-anchor="start" x="123" y="-128" font-family="Helvetica,sans-Serif" font-size="10.00">/software/kratos/doxygen</text>
<text text-anchor="start" x="123" y="-117" font-family="Helvetica,sans-Serif" font-size="10.00">/applications/CSharpWrapperApplication</text>
<text text-anchor="middle" x="221" y="-106" font-family="Helvetica,sans-Serif" font-size="10.00">/custom_includes/kratos_wrapper.h</text>
</a>
</g>
</g>
<!-- Node2&#45;&gt;Node3 -->
<g id="edge2" class="edge">
<title>Node2&#45;&gt;Node3</title>
<path fill="none" stroke="#63b8ff" d="M303.88,-190.41C285.04,-174.51 261.64,-154.78 244.52,-140.34"/>
<polygon fill="#63b8ff" stroke="#63b8ff" points="301.39,-192.89 311.29,-196.66 305.91,-187.54 301.39,-192.89"/>
</g>
<!-- Node6 -->
<g id="node6" class="node">
<title>Node6</title>
<g id="a_node6"><a xlink:href="../../d5/d45/kratos__internals_8cpp.html" target="_top" xlink:title=" ">
<polygon fill="white" stroke="#666666" points="557,-140 345,-140 345,-99 557,-99 557,-140"/>
<text text-anchor="start" x="353" y="-128" font-family="Helvetica,sans-Serif" font-size="10.00">/software/kratos/doxygen</text>
<text text-anchor="start" x="353" y="-117" font-family="Helvetica,sans-Serif" font-size="10.00">/applications/CSharpWrapperApplication</text>
<text text-anchor="middle" x="451" y="-106" font-family="Helvetica,sans-Serif" font-size="10.00">/custom_sources/kratos_internals.cpp</text>
</a>
</g>
</g>
<!-- Node2&#45;&gt;Node6 -->
<g id="edge5" class="edge">
<title>Node2&#45;&gt;Node6</title>
<path fill="none" stroke="#63b8ff" d="M368.12,-190.41C386.96,-174.51 410.36,-154.78 427.48,-140.34"/>
<polygon fill="#63b8ff" stroke="#63b8ff" points="366.09,-187.54 360.71,-196.66 370.61,-192.89 366.09,-187.54"/>
</g>
<!-- Node4 -->
<g id="node4" class="node">
<title>Node4</title>
<g id="a_node4"><a xlink:href="../../da/df4/kratos__wrapper_8cpp.html" target="_top" xlink:title=" ">
<polygon fill="white" stroke="#666666" points="212,-46.5 0,-46.5 0,-5.5 212,-5.5 212,-46.5"/>
<text text-anchor="start" x="8" y="-34.5" font-family="Helvetica,sans-Serif" font-size="10.00">/software/kratos/doxygen</text>
<text text-anchor="start" x="8" y="-23.5" font-family="Helvetica,sans-Serif" font-size="10.00">/applications/CSharpWrapperApplication</text>
<text text-anchor="middle" x="106" y="-12.5" font-family="Helvetica,sans-Serif" font-size="10.00">/custom_sources/kratos_wrapper.cpp</text>
</a>
</g>
</g>
<!-- Node3&#45;&gt;Node4 -->
<g id="edge3" class="edge">
<title>Node3&#45;&gt;Node4</title>
<path fill="none" stroke="#63b8ff" d="M187.52,-91.86C169.43,-77.47 147.47,-60 130.9,-46.82"/>
<polygon fill="#63b8ff" stroke="#63b8ff" points="184.86,-94.22 194.86,-97.7 189.22,-88.74 184.86,-94.22"/>
</g>
<!-- Node5 -->
<g id="node5" class="node">
<title>Node5</title>
<g id="a_node5"><a xlink:href="../../d9/df3/_c_sharp_wrapper_application_2external__bindings_2kratos__external__bindings_8cpp.html" target="_top" xlink:title=" ">
<polygon fill="white" stroke="#666666" points="442,-52 230,-52 230,0 442,0 442,-52"/>
<text text-anchor="start" x="238" y="-40" font-family="Helvetica,sans-Serif" font-size="10.00">/software/kratos/doxygen</text>
<text text-anchor="start" x="238" y="-29" font-family="Helvetica,sans-Serif" font-size="10.00">/applications/CSharpWrapperApplication</text>
<text text-anchor="start" x="238" y="-18" font-family="Helvetica,sans-Serif" font-size="10.00">/external_bindings/kratos_external</text>
<text text-anchor="middle" x="336" y="-7" font-family="Helvetica,sans-Serif" font-size="10.00">_bindings.cpp</text>
</a>
</g>
</g>
<!-- Node3&#45;&gt;Node5 -->
<g id="edge4" class="edge">
<title>Node3&#45;&gt;Node5</title>
<path fill="none" stroke="#63b8ff" d="M254.76,-91.64C270.34,-79.24 288.74,-64.6 304.09,-52.39"/>
<polygon fill="#63b8ff" stroke="#63b8ff" points="252.78,-88.74 247.14,-97.7 257.14,-94.22 252.78,-88.74"/>
</g>
<!-- Node10 -->
<g id="node10" class="node">
<title>Node10</title>
<g id="a_node10"><a xlink:href="../../d3/d00/metis__divide__heterogeneous__input__in__memory__process_8cpp.html" target="_top" xlink:title=" ">
<polygon fill="white" stroke="#666666" points="1001.5,-151 816.5,-151 816.5,-88 1001.5,-88 1001.5,-151"/>
<text text-anchor="start" x="824.5" y="-139" font-family="Helvetica,sans-Serif" font-size="10.00">/software/kratos/doxygen</text>
<text text-anchor="start" x="824.5" y="-128" font-family="Helvetica,sans-Serif" font-size="10.00">/applications/MetisApplication</text>
<text text-anchor="start" x="824.5" y="-117" font-family="Helvetica,sans-Serif" font-size="10.00">/custom_processes/metis_divide</text>
<text text-anchor="start" x="824.5" y="-106" font-family="Helvetica,sans-Serif" font-size="10.00">_heterogeneous_input_in_memory</text>
<text text-anchor="middle" x="909" y="-95" font-family="Helvetica,sans-Serif" font-size="10.00">_process.cpp</text>
</a>
</g>
</g>
<!-- Node9&#45;&gt;Node10 -->
<g id="edge9" class="edge">
<title>Node9&#45;&gt;Node10</title>
<path fill="none" stroke="#63b8ff" d="M967.56,-178.47C958.5,-169.5 948.98,-160.07 940.32,-151.5"/>
<polygon fill="#63b8ff" stroke="#63b8ff" points="965.08,-180.93 974.65,-185.48 970,-175.95 965.08,-180.93"/>
</g>
<!-- Node11 -->
<g id="node11" class="node">
<title>Node11</title>
<g id="a_node11"><a xlink:href="../../d6/d81/applications_2_metis_application_2custom__python_2add__processes__to__python_8cpp.html" target="_top" xlink:title=" ">
<polygon fill="white" stroke="#666666" points="1190,-145.5 1020,-145.5 1020,-93.5 1190,-93.5 1190,-145.5"/>
<text text-anchor="start" x="1028" y="-133.5" font-family="Helvetica,sans-Serif" font-size="10.00">/software/kratos/doxygen</text>
<text text-anchor="start" x="1028" y="-122.5" font-family="Helvetica,sans-Serif" font-size="10.00">/applications/MetisApplication</text>
<text text-anchor="start" x="1028" y="-111.5" font-family="Helvetica,sans-Serif" font-size="10.00">/custom_python/add_processes</text>
<text text-anchor="middle" x="1105" y="-100.5" font-family="Helvetica,sans-Serif" font-size="10.00">_to_python.cpp</text>
</a>
</g>
</g>
<!-- Node9&#45;&gt;Node11 -->
<g id="edge10" class="edge">
<title>Node9&#45;&gt;Node11</title>
<path fill="none" stroke="#63b8ff" d="M1046.22,-178.68C1057.34,-167.68 1069.16,-155.98 1079.26,-145.98"/>
<polygon fill="#63b8ff" stroke="#63b8ff" points="1044,-175.95 1039.35,-185.48 1048.92,-180.93 1044,-175.95"/>
</g>
<!-- Node15 -->
<g id="node15" class="node">
<title>Node15</title>
<g id="a_node15"><a xlink:href="../../d7/d8b/_structural_mechanics_application_2custom__python_2add__custom__strategies__to__python_8cpp.html" target="_top" xlink:title=" ">
<polygon fill="white" stroke="#666666" points="1623,-145.5 1437,-145.5 1437,-93.5 1623,-93.5 1623,-145.5"/>
<text text-anchor="start" x="1445" y="-133.5" font-family="Helvetica,sans-Serif" font-size="10.00">/software/kratos/doxygen</text>
<text text-anchor="start" x="1445" y="-122.5" font-family="Helvetica,sans-Serif" font-size="10.00">/applications/StructuralMechanics</text>
<text text-anchor="start" x="1445" y="-111.5" font-family="Helvetica,sans-Serif" font-size="10.00">Application/custom_python/add</text>
<text text-anchor="middle" x="1530" y="-100.5" font-family="Helvetica,sans-Serif" font-size="10.00">_custom_strategies_to_python.cpp</text>
</a>
</g>
</g>
<!-- Node14&#45;&gt;Node15 -->
<g id="edge14" class="edge">
<title>Node14&#45;&gt;Node15</title>
<path fill="none" stroke="#63b8ff" d="M1616.28,-180.28C1599.74,-168.82 1581.9,-156.46 1566.77,-145.98"/>
<polygon fill="#63b8ff" stroke="#63b8ff" points="1613.86,-182.86 1624.07,-185.68 1617.85,-177.11 1613.86,-182.86"/>
</g>
<!-- Node17 -->
<g id="node17" class="node">
<title>Node17</title>
<g id="a_node17"><a xlink:href="../../df/d99/reorder__consecutive__from__given__ids__model__part__io_8h.html" target="_top" xlink:title=" ">
<polygon fill="white" stroke="#666666" points="1999,-145.5 1799,-145.5 1799,-93.5 1999,-93.5 1999,-145.5"/>
<text text-anchor="start" x="1807" y="-133.5" font-family="Helvetica,sans-Serif" font-size="10.00">/software/kratos/doxygen</text>
<text text-anchor="start" x="1807" y="-122.5" font-family="Helvetica,sans-Serif" font-size="10.00">/applications/DEMApplication</text>
<text text-anchor="start" x="1807" y="-111.5" font-family="Helvetica,sans-Serif" font-size="10.00">/custom_utilities/reorder_consecutive</text>
<text text-anchor="middle" x="1899" y="-100.5" font-family="Helvetica,sans-Serif" font-size="10.00">_from_given_ids_model_part_io.h</text>
</a>
</g>
</g>
<!-- Node16&#45;&gt;Node17 -->
<g id="edge16" class="edge">
<title>Node16&#45;&gt;Node17</title>
<path fill="none" stroke="#63b8ff" d="M1899,-186.54C1899,-173.47 1899,-158.42 1899,-146"/>
<polygon fill="#63b8ff" stroke="#63b8ff" points="1895.5,-186.36 1899,-196.36 1902.5,-186.36 1895.5,-186.36"/>
</g>
<!-- Node16&#45;&gt;Node19 -->
<g id="edge18" class="edge">
<title>Node16&#45;&gt;Node19</title>
<path fill="none" stroke="#63b8ff" d="M1850.63,-192.54C1819.17,-176.31 1778.71,-155.43 1749.45,-140.34"/>
<polygon fill="#63b8ff" stroke="#63b8ff" points="1848.66,-195.47 1859.16,-196.94 1851.87,-189.25 1848.66,-195.47"/>
</g>
<!-- Node20 -->
<g id="node20" class="node">
<title>Node20</title>
<g id="a_node20"><a xlink:href="../../db/dc8/reorder__consecutive__model__part__io_8cpp.html" target="_top" xlink:title=" ">
<polygon fill="white" stroke="#666666" points="2193,-140 2017,-140 2017,-99 2193,-99 2193,-140"/>
<text text-anchor="start" x="2025" y="-128" font-family="Helvetica,sans-Serif" font-size="10.00">/software/kratos/doxygen</text>
<text text-anchor="start" x="2025" y="-117" font-family="Helvetica,sans-Serif" font-size="10.00">/kratos/sources/reorder</text>
<text text-anchor="middle" x="2105" y="-106" font-family="Helvetica,sans-Serif" font-size="10.00">_consecutive_model_part_io.cpp</text>
</a>
</g>
</g>
<!-- Node16&#45;&gt;Node20 -->
<g id="edge19" class="edge">
<title>Node16&#45;&gt;Node20</title>
<path fill="none" stroke="#63b8ff" d="M1951.55,-192.75C1986.09,-176.49 2030.67,-155.5 2062.87,-140.34"/>
<polygon fill="#63b8ff" stroke="#63b8ff" points="1950.11,-189.57 1942.55,-196.99 1953.09,-195.9 1950.11,-189.57"/>
</g>
<!-- Node16&#45;&gt;Node21 -->
<g id="edge20" class="edge">
<title>Node16&#45;&gt;Node21</title>
<path fill="none" stroke="#63b8ff" d="M1968.32,-194.25C1977.25,-191.62 1986.3,-189.13 1995,-187 2085.71,-164.81 2112.01,-175.94 2202,-151 2212.48,-148.09 2223.51,-144.32 2233.88,-140.42"/>
<polygon fill="#63b8ff" stroke="#63b8ff" points="1967.54,-190.83 1958.98,-197.08 1969.57,-197.53 1967.54,-190.83"/>
</g>
<!-- Node18 -->
<g id="node18" class="node">
<title>Node18</title>
<g id="a_node18"><a xlink:href="../../d0/d32/_d_e_m_application_2custom__python_2add__custom__utilities__to__python_8cpp.html" target="_top" xlink:title=" ">
<polygon fill="white" stroke="#666666" points="1998.5,-52 1799.5,-52 1799.5,0 1998.5,0 1998.5,-52"/>
<text text-anchor="start" x="1807.5" y="-40" font-family="Helvetica,sans-Serif" font-size="10.00">/software/kratos/doxygen</text>
<text text-anchor="start" x="1807.5" y="-29" font-family="Helvetica,sans-Serif" font-size="10.00">/applications/DEMApplication</text>
<text text-anchor="start" x="1807.5" y="-18" font-family="Helvetica,sans-Serif" font-size="10.00">/custom_python/add_custom_utilities</text>
<text text-anchor="middle" x="1899" y="-7" font-family="Helvetica,sans-Serif" font-size="10.00">_to_python.cpp</text>
</a>
</g>
</g>
<!-- Node17&#45;&gt;Node18 -->
<g id="edge17" class="edge">
<title>Node17&#45;&gt;Node18</title>
<path fill="none" stroke="#63b8ff" d="M1899,-81.8C1899,-71.92 1899,-61.46 1899,-52.35"/>
<polygon fill="#63b8ff" stroke="#63b8ff" points="1895.5,-81.5 1899,-91.5 1902.5,-81.5 1895.5,-81.5"/>
</g>
</g>
</svg>
        <g id="navigator" transform="translate(0 0)" fill="#404254">
                <rect fill="#f2f5e9" fill-opacity="0.5" stroke="#606060" stroke-width=".5" x="0" y="0" width="60" height="60"/>
                <use id="zoomplus" xlink:href="#zoomPlus" x="17" y="9" onmousedown="handleZoom(evt,'in')"/>
                <use id="zoomminus" xlink:href="#zoomMin" x="42" y="9" onmousedown="handleZoom(evt,'out')"/>
                <use id="reset" xlink:href="#resetDef" x="30" y="36" onmousedown="handleReset()"/>
                <g id="arrowUp" xlink:href="#dirArrow" transform="translate(30 24)" onmousedown="handlePan(0,-1)">
                  <use xlink:href="#rim" fill="#404040">
                        <set attributeName="fill" to="#808080" begin="arrowUp.mouseover" end="arrowUp.mouseout"/>
                  </use>
                  <path fill="none" stroke="white" stroke-width="1.5" d="M0,-3.0v7 M-2.5,-0.5L0,-3.0L2.5,-0.5"/>
                </g>
                <g id="arrowRight" xlink:href="#dirArrow" transform="rotate(90) translate(36 -43)" onmousedown="handlePan(1,0)">
                  <use xlink:href="#rim" fill="#404040">
                        <set attributeName="fill" to="#808080" begin="arrowRight.mouseover" end="arrowRight.mouseout"/>
                  </use>
                  <path fill="none" stroke="white" stroke-width="1.5" d="M0,-3.0v7 M-2.5,-0.5L0,-3.0L2.5,-0.5"/>
                </g>
                <g id="arrowDown" xlink:href="#dirArrow" transform="rotate(180) translate(-30 -48)" onmousedown="handlePan(0,1)">
                  <use xlink:href="#rim" fill="#404040">
                        <set attributeName="fill" to="#808080" begin="arrowDown.mouseover" end="arrowDown.mouseout"/>
                  </use>
                  <path fill="none" stroke="white" stroke-width="1.5" d="M0,-3.0v7 M-2.5,-0.5L0,-3.0L2.5,-0.5"/>
                </g>
                <g id="arrowLeft" xlink:href="#dirArrow" transform="rotate(270) translate(-36 17)" onmousedown="handlePan(-1,0)">
                  <use xlink:href="#rim" fill="#404040">
                        <set attributeName="fill" to="#808080" begin="arrowLeft.mouseover" end="arrowLeft.mouseout"/>
                  </use>
                  <path fill="none" stroke="white" stroke-width="1.5" d="M0,-3.0v7 M-2.5,-0.5L0,-3.0L2.5,-0.5"/>
                </g>
        </g>
        <svg viewBox="0 0 15 15" width="100%" height="30px" preserveAspectRatio="xMaxYMin meet">
         <g id="arrow_out" transform="scale(0.3 0.3)">
          <a xlink:href="model__part__io_8h__dep__incl_org.svg" target="_base">
           <rect id="button" ry="5" rx="5" y="6" x="6" height="38" width="38"
                fill="#f2f5e9" fill-opacity="0.5" stroke="#606060" stroke-width="1.0"/>
           <path id="arrow"
             d="M 11.500037,31.436501 C 11.940474,20.09759 22.043105,11.32322 32.158766,21.979434 L 37.068811,17.246167 C 37.068811,17.246167 37.088388,32 37.088388,32 L 22.160133,31.978069 C 22.160133,31.978069 26.997745,27.140456 26.997745,27.140456 C 18.528582,18.264221 13.291696,25.230495 11.500037,31.436501 z"
             style="fill:#404040;"/>
          </a>
         </g>
        </svg>
</svg>
