<?xml version="1.0" encoding="UTF-8" standalone="no"?>
<!DOCTYPE svg PUBLIC "-//W3C//DTD SVG 1.1//EN"
 "http://www.w3.org/Graphics/SVG/1.1/DTD/svg11.dtd">
<!-- Generated by graphviz version 7.1.0 (0)
 -->
<!-- Title: /software/kratos/doxygen/applications/SolidMechanicsApplication/custom_constitutive/custom_yield_criteria/mises_huber_thermal_yield_criterion.hpp Pages: 1 -->
<svg width="2920pt" height="258pt"
 viewBox="0.00 0.00 2920.00 258.00" xmlns="http://www.w3.org/2000/svg" xmlns:xlink="http://www.w3.org/1999/xlink">
<g id="graph0" class="graph" transform="scale(1 1) rotate(0) translate(4 254)">
<title>/software/kratos/doxygen/applications/SolidMechanicsApplication/custom_constitutive/custom_yield_criteria/mises_huber_thermal_yield_criterion.hpp</title>
<!-- Node1 -->
<g id="node1" class="node">
<title>Node1</title>
<g id="a_node1"><a xlink:title=" ">
<polygon fill="#999999" stroke="#666666" points="1414,-250 1202,-250 1202,-187 1414,-187 1414,-250"/>
<text text-anchor="start" x="1210" y="-238" font-family="Helvetica,sans-Serif" font-size="10.00">/software/kratos/doxygen</text>
<text text-anchor="start" x="1210" y="-227" font-family="Helvetica,sans-Serif" font-size="10.00">/applications/SolidMechanicsApplication</text>
<text text-anchor="start" x="1210" y="-216" font-family="Helvetica,sans-Serif" font-size="10.00">/custom_constitutive/custom_yield</text>
<text text-anchor="start" x="1210" y="-205" font-family="Helvetica,sans-Serif" font-size="10.00">_criteria/mises_huber_thermal_yield</text>
<text text-anchor="middle" x="1308" y="-194" font-family="Helvetica,sans-Serif" font-size="10.00">_criterion.hpp</text>
</a>
</g>
</g>
<!-- Node2 -->
<g id="node2" class="node">
<title>Node2</title>
<g id="a_node2"><a xlink:href="../../de/dd9/mises__huber__thermal__yield__criterion_8cpp.html" target="_top" xlink:title=" ">
<polygon fill="white" stroke="#666666" points="212,-151 0,-151 0,-88 212,-88 212,-151"/>
<text text-anchor="start" x="8" y="-139" font-family="Helvetica,sans-Serif" font-size="10.00">/software/kratos/doxygen</text>
<text text-anchor="start" x="8" y="-128" font-family="Helvetica,sans-Serif" font-size="10.00">/applications/SolidMechanicsApplication</text>
<text text-anchor="start" x="8" y="-117" font-family="Helvetica,sans-Serif" font-size="10.00">/custom_constitutive/custom_yield</text>
<text text-anchor="start" x="8" y="-106" font-family="Helvetica,sans-Serif" font-size="10.00">_criteria/mises_huber_thermal_yield</text>
<text text-anchor="middle" x="106" y="-95" font-family="Helvetica,sans-Serif" font-size="10.00">_criterion.cpp</text>
</a>
</g>
</g>
<!-- Node1&#45;&gt;Node2 -->
<g id="edge1" class="edge">
<title>Node1&#45;&gt;Node2</title>
<path fill="none" stroke="#63b8ff" d="M1190.11,-217.9C989.68,-216.89 570.25,-207.42 221,-151 218.15,-150.54 215.26,-150.04 212.35,-149.5"/>
<polygon fill="#63b8ff" stroke="#63b8ff" points="1190.01,-221.4 1200.02,-217.95 1190.04,-214.4 1190.01,-221.4"/>
</g>
<!-- Node3 -->
<g id="node3" class="node">
<title>Node3</title>
<g id="a_node3"><a xlink:href="../../df/d57/hyperelastic__plastic__thermal___j2__plane__strain__2_d__law_8cpp.html" target="_top" xlink:title=" ">
<polygon fill="white" stroke="#666666" points="468,-145.5 230,-145.5 230,-93.5 468,-93.5 468,-145.5"/>
<text text-anchor="start" x="238" y="-133.5" font-family="Helvetica,sans-Serif" font-size="10.00">/software/kratos/doxygen</text>
<text text-anchor="start" x="238" y="-122.5" font-family="Helvetica,sans-Serif" font-size="10.00">/applications/SolidMechanicsApplication</text>
<text text-anchor="start" x="238" y="-111.5" font-family="Helvetica,sans-Serif" font-size="10.00">/custom_constitutive/hyperelastic</text>
<text text-anchor="middle" x="349" y="-100.5" font-family="Helvetica,sans-Serif" font-size="10.00">_plastic_thermal_J2_plane_strain_2D_law.cpp</text>
</a>
</g>
</g>
<!-- Node1&#45;&gt;Node3 -->
<g id="edge2" class="edge">
<title>Node1&#45;&gt;Node3</title>
<path fill="none" stroke="#63b8ff" d="M1190.39,-213.79C1028.77,-207.4 729.33,-190.92 477,-151 467.97,-149.57 458.64,-147.85 449.33,-145.95"/>
<polygon fill="#63b8ff" stroke="#63b8ff" points="1190.14,-217.29 1200.27,-214.18 1190.42,-210.29 1190.14,-217.29"/>
</g>
<!-- Node4 -->
<g id="node4" class="node">
<title>Node4</title>
<g id="a_node4"><a xlink:href="../../db/d75/hyperelastic__plastic__thermal___u___p___j2__3_d__law_8cpp.html" target="_top" xlink:title=" ">
<polygon fill="white" stroke="#666666" points="698,-145.5 486,-145.5 486,-93.5 698,-93.5 698,-145.5"/>
<text text-anchor="start" x="494" y="-133.5" font-family="Helvetica,sans-Serif" font-size="10.00">/software/kratos/doxygen</text>
<text text-anchor="start" x="494" y="-122.5" font-family="Helvetica,sans-Serif" font-size="10.00">/applications/SolidMechanicsApplication</text>
<text text-anchor="start" x="494" y="-111.5" font-family="Helvetica,sans-Serif" font-size="10.00">/custom_constitutive/hyperelastic</text>
<text text-anchor="middle" x="592" y="-100.5" font-family="Helvetica,sans-Serif" font-size="10.00">_plastic_thermal_U_P_J2_3D_law.cpp</text>
</a>
</g>
</g>
<!-- Node1&#45;&gt;Node4 -->
<g id="edge3" class="edge">
<title>Node1&#45;&gt;Node4</title>
<path fill="none" stroke="#63b8ff" d="M1190.54,-209.71C1068.83,-200.42 873.49,-182.11 707,-151 699.18,-149.54 691.12,-147.83 683.05,-145.97"/>
<polygon fill="#63b8ff" stroke="#63b8ff" points="1189.97,-213.17 1200.21,-210.44 1190.5,-206.19 1189.97,-213.17"/>
</g>
<!-- Node5 -->
<g id="node5" class="node">
<title>Node5</title>
<g id="a_node5"><a xlink:href="../../de/d8a/hyperelastic__plastic__thermal___u___p___j2__axisym__2_d__law_8cpp.html" target="_top" xlink:title=" ">
<polygon fill="white" stroke="#666666" points="954,-145.5 716,-145.5 716,-93.5 954,-93.5 954,-145.5"/>
<text text-anchor="start" x="724" y="-133.5" font-family="Helvetica,sans-Serif" font-size="10.00">/software/kratos/doxygen</text>
<text text-anchor="start" x="724" y="-122.5" font-family="Helvetica,sans-Serif" font-size="10.00">/applications/SolidMechanicsApplication</text>
<text text-anchor="start" x="724" y="-111.5" font-family="Helvetica,sans-Serif" font-size="10.00">/custom_constitutive/hyperelastic</text>
<text text-anchor="middle" x="835" y="-100.5" font-family="Helvetica,sans-Serif" font-size="10.00">_plastic_thermal_U_P_J2_axisym_2D_law.cpp</text>
</a>
</g>
</g>
<!-- Node1&#45;&gt;Node5 -->
<g id="edge4" class="edge">
<title>Node1&#45;&gt;Node5</title>
<path fill="none" stroke="#63b8ff" d="M1190.69,-196.2C1123.82,-183.73 1038.55,-167.27 963,-151 955.63,-149.41 948.03,-147.73 940.39,-146"/>
<polygon fill="#63b8ff" stroke="#63b8ff" points="1189.72,-199.58 1200.19,-197.97 1191,-192.7 1189.72,-199.58"/>
</g>
<!-- Node6 -->
<g id="node6" class="node">
<title>Node6</title>
<g id="a_node6"><a xlink:href="../../d6/d59/hyperelastic__plastic__thermal___u___p___j2__plane__strain__2_d__law_8cpp.html" target="_top" xlink:title=" ">
<polygon fill="white" stroke="#666666" points="1184,-151 972,-151 972,-88 1184,-88 1184,-151"/>
<text text-anchor="start" x="980" y="-139" font-family="Helvetica,sans-Serif" font-size="10.00">/software/kratos/doxygen</text>
<text text-anchor="start" x="980" y="-128" font-family="Helvetica,sans-Serif" font-size="10.00">/applications/SolidMechanicsApplication</text>
<text text-anchor="start" x="980" y="-117" font-family="Helvetica,sans-Serif" font-size="10.00">/custom_constitutive/hyperelastic</text>
<text text-anchor="start" x="980" y="-106" font-family="Helvetica,sans-Serif" font-size="10.00">_plastic_thermal_U_P_J2_plane_strain</text>
<text text-anchor="middle" x="1078" y="-95" font-family="Helvetica,sans-Serif" font-size="10.00">_2D_law.cpp</text>
</a>
</g>
</g>
<!-- Node1&#45;&gt;Node6 -->
<g id="edge5" class="edge">
<title>Node1&#45;&gt;Node6</title>
<path fill="none" stroke="#63b8ff" d="M1224.17,-182.14C1200.37,-172.11 1174.64,-161.26 1151.5,-151.5"/>
<polygon fill="#63b8ff" stroke="#63b8ff" points="1222.63,-185.29 1233.2,-185.95 1225.35,-178.84 1222.63,-185.29"/>
</g>
<!-- Node7 -->
<g id="node7" class="node">
<title>Node7</title>
<g id="a_node7"><a xlink:href="../../d9/d43/hyperelastic__plastic__thermal___u___p__baker__johnson__cook__plane__strain__2_d__law_8cpp.html" target="_top" xlink:title=" ">
<polygon fill="white" stroke="#666666" points="1414,-151 1202,-151 1202,-88 1414,-88 1414,-151"/>
<text text-anchor="start" x="1210" y="-139" font-family="Helvetica,sans-Serif" font-size="10.00">/software/kratos/doxygen</text>
<text text-anchor="start" x="1210" y="-128" font-family="Helvetica,sans-Serif" font-size="10.00">/applications/SolidMechanicsApplication</text>
<text text-anchor="start" x="1210" y="-117" font-family="Helvetica,sans-Serif" font-size="10.00">/custom_constitutive/hyperelastic</text>
<text text-anchor="start" x="1210" y="-106" font-family="Helvetica,sans-Serif" font-size="10.00">_plastic_thermal_U_P_baker_johnson</text>
<text text-anchor="middle" x="1308" y="-95" font-family="Helvetica,sans-Serif" font-size="10.00">_cook_plane_strain_2D_law.cpp</text>
</a>
</g>
</g>
<!-- Node1&#45;&gt;Node7 -->
<g id="edge6" class="edge">
<title>Node1&#45;&gt;Node7</title>
<path fill="none" stroke="#63b8ff" d="M1308,-175.15C1308,-167.2 1308,-159.02 1308,-151.5"/>
<polygon fill="#63b8ff" stroke="#63b8ff" points="1304.5,-175.03 1308,-185.03 1311.5,-175.03 1304.5,-175.03"/>
</g>
<!-- Node8 -->
<g id="node8" class="node">
<title>Node8</title>
<g id="a_node8"><a xlink:href="../../d6/d69/hyperelastic__plastic__thermal___u___p__johnson__cook__axisym__2_d__law_8cpp.html" target="_top" xlink:title=" ">
<polygon fill="white" stroke="#666666" points="1644,-151 1432,-151 1432,-88 1644,-88 1644,-151"/>
<text text-anchor="start" x="1440" y="-139" font-family="Helvetica,sans-Serif" font-size="10.00">/software/kratos/doxygen</text>
<text text-anchor="start" x="1440" y="-128" font-family="Helvetica,sans-Serif" font-size="10.00">/applications/SolidMechanicsApplication</text>
<text text-anchor="start" x="1440" y="-117" font-family="Helvetica,sans-Serif" font-size="10.00">/custom_constitutive/hyperelastic</text>
<text text-anchor="start" x="1440" y="-106" font-family="Helvetica,sans-Serif" font-size="10.00">_plastic_thermal_U_P_johnson_cook</text>
<text text-anchor="middle" x="1538" y="-95" font-family="Helvetica,sans-Serif" font-size="10.00">_axisym_2D_law.cpp</text>
</a>
</g>
</g>
<!-- Node1&#45;&gt;Node8 -->
<g id="edge7" class="edge">
<title>Node1&#45;&gt;Node8</title>
<path fill="none" stroke="#63b8ff" d="M1391.83,-182.14C1415.63,-172.11 1441.36,-161.26 1464.5,-151.5"/>
<polygon fill="#63b8ff" stroke="#63b8ff" points="1390.65,-178.84 1382.8,-185.95 1393.37,-185.29 1390.65,-178.84"/>
</g>
<!-- Node9 -->
<g id="node9" class="node">
<title>Node9</title>
<g id="a_node9"><a xlink:href="../../d7/d59/hyperelastic__plastic__thermal___u___p__johnson__cook__plane__strain__2_d__law_8cpp.html" target="_top" xlink:title=" ">
<polygon fill="white" stroke="#666666" points="1874,-151 1662,-151 1662,-88 1874,-88 1874,-151"/>
<text text-anchor="start" x="1670" y="-139" font-family="Helvetica,sans-Serif" font-size="10.00">/software/kratos/doxygen</text>
<text text-anchor="start" x="1670" y="-128" font-family="Helvetica,sans-Serif" font-size="10.00">/applications/SolidMechanicsApplication</text>
<text text-anchor="start" x="1670" y="-117" font-family="Helvetica,sans-Serif" font-size="10.00">/custom_constitutive/hyperelastic</text>
<text text-anchor="start" x="1670" y="-106" font-family="Helvetica,sans-Serif" font-size="10.00">_plastic_thermal_U_P_johnson_cook</text>
<text text-anchor="middle" x="1768" y="-95" font-family="Helvetica,sans-Serif" font-size="10.00">_plane_strain_2D_law.cpp</text>
</a>
</g>
</g>
<!-- Node1&#45;&gt;Node9 -->
<g id="edge8" class="edge">
<title>Node1&#45;&gt;Node9</title>
<path fill="none" stroke="#63b8ff" d="M1425.47,-196.93C1492.39,-184.69 1577.66,-168.23 1653,-151 1655.82,-150.36 1658.67,-149.69 1661.55,-149.01"/>
<polygon fill="#63b8ff" stroke="#63b8ff" points="1425.17,-193.43 1415.96,-198.66 1426.43,-200.31 1425.17,-193.43"/>
</g>
<!-- Node10 -->
<g id="node10" class="node">
<title>Node10</title>
<g id="a_node10"><a xlink:href="../../d4/d31/hyperelastic__plastic__thermal__baker__johnson__cook__plane__strain__2_d__law_8cpp.html" target="_top" xlink:title=" ">
<polygon fill="white" stroke="#666666" points="2104,-151 1892,-151 1892,-88 2104,-88 2104,-151"/>
<text text-anchor="start" x="1900" y="-139" font-family="Helvetica,sans-Serif" font-size="10.00">/software/kratos/doxygen</text>
<text text-anchor="start" x="1900" y="-128" font-family="Helvetica,sans-Serif" font-size="10.00">/applications/SolidMechanicsApplication</text>
<text text-anchor="start" x="1900" y="-117" font-family="Helvetica,sans-Serif" font-size="10.00">/custom_constitutive/hyperelastic</text>
<text text-anchor="start" x="1900" y="-106" font-family="Helvetica,sans-Serif" font-size="10.00">_plastic_thermal_baker_johnson_cook</text>
<text text-anchor="middle" x="1998" y="-95" font-family="Helvetica,sans-Serif" font-size="10.00">_plane_strain_2D_law.cpp</text>
</a>
</g>
</g>
<!-- Node1&#45;&gt;Node10 -->
<g id="edge9" class="edge">
<title>Node1&#45;&gt;Node10</title>
<path fill="none" stroke="#63b8ff" d="M1425.84,-208.87C1542.6,-199.15 1726.17,-180.71 1883,-151 1885.84,-150.46 1888.72,-149.89 1891.61,-149.29"/>
<polygon fill="#63b8ff" stroke="#63b8ff" points="1425.59,-205.38 1415.91,-209.69 1426.17,-212.36 1425.59,-205.38"/>
</g>
<!-- Node11 -->
<g id="node11" class="node">
<title>Node11</title>
<g id="a_node11"><a xlink:href="../../d3/dff/hyperelastic__plastic__thermal__johnson__cook__plane__strain__2_d__law_8cpp.html" target="_top" xlink:title=" ">
<polygon fill="white" stroke="#666666" points="2334,-151 2122,-151 2122,-88 2334,-88 2334,-151"/>
<text text-anchor="start" x="2130" y="-139" font-family="Helvetica,sans-Serif" font-size="10.00">/software/kratos/doxygen</text>
<text text-anchor="start" x="2130" y="-128" font-family="Helvetica,sans-Serif" font-size="10.00">/applications/SolidMechanicsApplication</text>
<text text-anchor="start" x="2130" y="-117" font-family="Helvetica,sans-Serif" font-size="10.00">/custom_constitutive/hyperelastic</text>
<text text-anchor="start" x="2130" y="-106" font-family="Helvetica,sans-Serif" font-size="10.00">_plastic_thermal_johnson_cook_plane</text>
<text text-anchor="middle" x="2228" y="-95" font-family="Helvetica,sans-Serif" font-size="10.00">_strain_2D_law.cpp</text>
</a>
</g>
</g>
<!-- Node1&#45;&gt;Node11 -->
<g id="edge10" class="edge">
<title>Node1&#45;&gt;Node11</title>
<path fill="none" stroke="#63b8ff" d="M1425.35,-214.3C1582.82,-208.53 1870.76,-192.79 2113,-151 2115.85,-150.51 2118.73,-149.98 2121.63,-149.42"/>
<polygon fill="#63b8ff" stroke="#63b8ff" points="1425.62,-210.79 1415.75,-214.64 1425.87,-217.78 1425.62,-210.79"/>
</g>
<!-- Node12 -->
<g id="node12" class="node">
<title>Node12</title>
<g id="a_node12"><a xlink:href="../../d4/d0a/solid__mechanics__application_8h.html" target="_top" xlink:title=" ">
<polygon fill="white" stroke="#666666" points="2564,-140 2352,-140 2352,-99 2564,-99 2564,-140"/>
<text text-anchor="start" x="2360" y="-128" font-family="Helvetica,sans-Serif" font-size="10.00">/software/kratos/doxygen</text>
<text text-anchor="start" x="2360" y="-117" font-family="Helvetica,sans-Serif" font-size="10.00">/applications/SolidMechanicsApplication</text>
<text text-anchor="middle" x="2458" y="-106" font-family="Helvetica,sans-Serif" font-size="10.00">/solid_mechanics_application.h</text>
</a>
</g>
</g>
<!-- Node1&#45;&gt;Node12 -->
<g id="edge11" class="edge">
<title>Node1&#45;&gt;Node12</title>
<path fill="none" stroke="#63b8ff" d="M1425.46,-217.38C1618.29,-215.53 2013.47,-204.76 2343,-151 2358.9,-148.41 2375.79,-144.56 2391.58,-140.47"/>
<polygon fill="#63b8ff" stroke="#63b8ff" points="1425.66,-213.88 1415.7,-217.47 1425.73,-220.88 1425.66,-213.88"/>
</g>
<!-- Node13 -->
<g id="node13" class="node">
<title>Node13</title>
<g id="a_node13"><a xlink:href="../../dc/d5a/_solid_mechanics_application_2custom__elements_2shell__elements_2shell__thick__element__3_d4_n_8cpp.html" target="_top" xlink:title=" ">
<polygon fill="white" stroke="#666666" points="2218,-52 2006,-52 2006,0 2218,0 2218,-52"/>
<text text-anchor="start" x="2014" y="-40" font-family="Helvetica,sans-Serif" font-size="10.00">/software/kratos/doxygen</text>
<text text-anchor="start" x="2014" y="-29" font-family="Helvetica,sans-Serif" font-size="10.00">/applications/SolidMechanicsApplication</text>
<text text-anchor="start" x="2014" y="-18" font-family="Helvetica,sans-Serif" font-size="10.00">/custom_elements/shell_elements</text>
<text text-anchor="middle" x="2112" y="-7" font-family="Helvetica,sans-Serif" font-size="10.00">/shell_thick_element_3D4N.cpp</text>
</a>
</g>
</g>
<!-- Node12&#45;&gt;Node13 -->
<g id="edge12" class="edge">
<title>Node12&#45;&gt;Node13</title>
<path fill="none" stroke="#63b8ff" d="M2371.89,-95.65C2362.14,-93.07 2352.36,-90.48 2343,-88 2298.79,-76.3 2249.82,-63.36 2208.38,-52.43"/>
<polygon fill="#63b8ff" stroke="#63b8ff" points="2370.82,-98.99 2381.38,-98.17 2372.61,-92.22 2370.82,-98.99"/>
</g>
<!-- Node14 -->
<g id="node14" class="node">
<title>Node14</title>
<g id="a_node14"><a xlink:href="../../da/d5c/_solid_mechanics_application_2custom__elements_2shell__elements_2shell__thin__element__3_d3_n_8cpp.html" target="_top" xlink:title=" ">
<polygon fill="white" stroke="#666666" points="2448,-52 2236,-52 2236,0 2448,0 2448,-52"/>
<text text-anchor="start" x="2244" y="-40" font-family="Helvetica,sans-Serif" font-size="10.00">/software/kratos/doxygen</text>
<text text-anchor="start" x="2244" y="-29" font-family="Helvetica,sans-Serif" font-size="10.00">/applications/SolidMechanicsApplication</text>
<text text-anchor="start" x="2244" y="-18" font-family="Helvetica,sans-Serif" font-size="10.00">/custom_elements/shell_elements</text>
<text text-anchor="middle" x="2342" y="-7" font-family="Helvetica,sans-Serif" font-size="10.00">/shell_thin_element_3D3N.cpp</text>
</a>
</g>
</g>
<!-- Node12&#45;&gt;Node14 -->
<g id="edge13" class="edge">
<title>Node12&#45;&gt;Node14</title>
<path fill="none" stroke="#63b8ff" d="M2423.95,-91.64C2408.23,-79.24 2389.67,-64.6 2374.19,-52.39"/>
<polygon fill="#63b8ff" stroke="#63b8ff" points="2421.62,-94.26 2431.64,-97.71 2425.96,-88.77 2421.62,-94.26"/>
</g>
<!-- Node15 -->
<g id="node15" class="node">
<title>Node15</title>
<g id="a_node15"><a xlink:href="../../da/d03/_solid_mechanics_application_2custom__utilities_2shell__cross__section_8cpp.html" target="_top" xlink:title=" ">
<polygon fill="white" stroke="#666666" points="2681.5,-46.5 2466.5,-46.5 2466.5,-5.5 2681.5,-5.5 2681.5,-46.5"/>
<text text-anchor="start" x="2474.5" y="-34.5" font-family="Helvetica,sans-Serif" font-size="10.00">/software/kratos/doxygen</text>
<text text-anchor="start" x="2474.5" y="-23.5" font-family="Helvetica,sans-Serif" font-size="10.00">/applications/SolidMechanicsApplication</text>
<text text-anchor="middle" x="2574" y="-12.5" font-family="Helvetica,sans-Serif" font-size="10.00">/custom_utilities/shell_cross_section.cpp</text>
</a>
</g>
</g>
<!-- Node12&#45;&gt;Node15 -->
<g id="edge14" class="edge">
<title>Node12&#45;&gt;Node15</title>
<path fill="none" stroke="#63b8ff" d="M2491.77,-91.86C2510.02,-77.47 2532.17,-60 2548.88,-46.82"/>
<polygon fill="#63b8ff" stroke="#63b8ff" points="2490.04,-88.77 2484.36,-97.71 2494.38,-94.26 2490.04,-88.77"/>
</g>
<!-- Node16 -->
<g id="node16" class="node">
<title>Node16</title>
<g id="a_node16"><a xlink:href="../../d2/d54/solid__mechanics__application_8cpp.html" target="_top" xlink:title=" ">
<polygon fill="white" stroke="#666666" points="2912,-46.5 2700,-46.5 2700,-5.5 2912,-5.5 2912,-46.5"/>
<text text-anchor="start" x="2708" y="-34.5" font-family="Helvetica,sans-Serif" font-size="10.00">/software/kratos/doxygen</text>
<text text-anchor="start" x="2708" y="-23.5" font-family="Helvetica,sans-Serif" font-size="10.00">/applications/SolidMechanicsApplication</text>
<text text-anchor="middle" x="2806" y="-12.5" font-family="Helvetica,sans-Serif" font-size="10.00">/solid_mechanics_application.cpp</text>
</a>
</g>
</g>
<!-- Node12&#45;&gt;Node16 -->
<g id="edge15" class="edge">
<title>Node12&#45;&gt;Node16</title>
<path fill="none" stroke="#63b8ff" d="M2544.74,-95.69C2601.74,-80.71 2675.59,-61.29 2730.22,-46.92"/>
<polygon fill="#63b8ff" stroke="#63b8ff" points="2544.19,-92.22 2535.4,-98.15 2545.97,-98.99 2544.19,-92.22"/>
</g>
</g>
</svg>
