<?xml version="1.0" encoding="UTF-8" standalone="no"?>
<!DOCTYPE svg PUBLIC "-//W3C//DTD SVG 1.1//EN"
 "http://www.w3.org/Graphics/SVG/1.1/DTD/svg11.dtd">
<!-- Generated by graphviz version 7.1.0 (0)
 -->
<!-- Title: apply_thermal_face_process.ApplyThermalFaceProcess Pages: 1 -->
<svg width="198pt" height="171pt"
 viewBox="0.00 0.00 198.00 171.00" xmlns="http://www.w3.org/2000/svg" xmlns:xlink="http://www.w3.org/1999/xlink">
<g id="graph0" class="graph" transform="scale(1 1) rotate(0) translate(4 167)">
<title>apply_thermal_face_process.ApplyThermalFaceProcess</title>
<!-- Node1 -->
<g id="node1" class="node">
<title>Node1</title>
<g id="a_node1"><a xlink:title=" ">
<polygon fill="#999999" stroke="#666666" points="0,-0.5 0,-68.5 190,-68.5 190,-0.5 0,-0.5"/>
<text text-anchor="start" x="8" y="-56.5" font-family="Helvetica,sans-Serif" font-size="10.00">apply_thermal_face</text>
<text text-anchor="middle" x="95" y="-45.5" font-family="Helvetica,sans-Serif" font-size="10.00">_process.ApplyThermalFaceProcess</text>
<polyline fill="none" stroke="#666666" points="0,-38.5 190,-38.5"/>
<text text-anchor="middle" x="95" y="-26.5" font-family="Helvetica,sans-Serif" font-size="10.00"> </text>
<polyline fill="none" stroke="#666666" points="0,-19.5 190,-19.5"/>
<text text-anchor="start" x="8" y="-7.5" font-family="Helvetica,sans-Serif" font-size="10.00">+ __init__()</text>
</a>
</g>
</g>
<!-- Node2 -->
<g id="node2" class="node">
<title>Node2</title>
<g id="a_node2"><a xlink:title=" ">
<polygon fill="white" stroke="#666666" points="20,-105.5 20,-162.5 170,-162.5 170,-105.5 20,-105.5"/>
<text text-anchor="middle" x="95" y="-150.5" font-family="Helvetica,sans-Serif" font-size="10.00">KratosMultiphysics.Process</text>
<polyline fill="none" stroke="#666666" points="20,-143.5 170,-143.5"/>
<text text-anchor="middle" x="95" y="-131.5" font-family="Helvetica,sans-Serif" font-size="10.00"> </text>
<polyline fill="none" stroke="#666666" points="20,-124.5 170,-124.5"/>
<text text-anchor="middle" x="95" y="-112.5" font-family="Helvetica,sans-Serif" font-size="10.00"> </text>
</a>
</g>
</g>
<!-- Node2&#45;&gt;Node1 -->
<g id="edge1" class="edge">
<title>Node2&#45;&gt;Node1</title>
<path fill="none" stroke="#63b8ff" d="M95,-94.22C95,-85.62 95,-76.58 95,-68.24"/>
<polygon fill="none" stroke="#63b8ff" points="91.5,-94.07 95,-104.07 98.5,-94.07 91.5,-94.07"/>
</g>
</g>
</svg>
