<?xml version="1.0" encoding="UTF-8" standalone="no"?>
<!DOCTYPE svg PUBLIC "-//W3C//DTD SVG 1.1//EN"
 "http://www.w3.org/Graphics/SVG/1.1/DTD/svg11.dtd">
<!-- Generated by graphviz version 7.1.0 (0)
 -->
<!-- Title: /software/kratos/doxygen/applications/PoromechanicsApplication/custom_elements/small_strain_U_Pw_diff_order_element.hpp Pages: 1 -->
<svg width="219pt" height="214pt"
 viewBox="0.00 0.00 219.00 214.00" xmlns="http://www.w3.org/2000/svg" xmlns:xlink="http://www.w3.org/1999/xlink">
<g id="graph0" class="graph" transform="scale(1 1) rotate(0) translate(4 210)">
<title>/software/kratos/doxygen/applications/PoromechanicsApplication/custom_elements/small_strain_U_Pw_diff_order_element.hpp</title>
<!-- Node1 -->
<g id="node1" class="node">
<title>Node1</title>
<g id="a_node1"><a xlink:title=" ">
<polygon fill="#999999" stroke="#666666" points="211,-206 0,-206 0,-154 211,-154 211,-206"/>
<text text-anchor="start" x="8" y="-194" font-family="Helvetica,sans-Serif" font-size="10.00">/software/kratos/doxygen</text>
<text text-anchor="start" x="8" y="-183" font-family="Helvetica,sans-Serif" font-size="10.00">/applications/PoromechanicsApplication</text>
<text text-anchor="start" x="8" y="-172" font-family="Helvetica,sans-Serif" font-size="10.00">/custom_elements/small_strain_U</text>
<text text-anchor="middle" x="105.5" y="-161" font-family="Helvetica,sans-Serif" font-size="10.00">_Pw_diff_order_element.hpp</text>
</a>
</g>
</g>
<!-- Node2 -->
<g id="node2" class="node">
<title>Node2</title>
<g id="a_node2"><a xlink:href="../../d4/d5f/poromechanics__application_8h.html" target="_top" xlink:title=" ">
<polygon fill="white" stroke="#666666" points="211,-118 0,-118 0,-77 211,-77 211,-118"/>
<text text-anchor="start" x="8" y="-106" font-family="Helvetica,sans-Serif" font-size="10.00">/software/kratos/doxygen</text>
<text text-anchor="start" x="8" y="-95" font-family="Helvetica,sans-Serif" font-size="10.00">/applications/PoromechanicsApplication</text>
<text text-anchor="middle" x="105.5" y="-84" font-family="Helvetica,sans-Serif" font-size="10.00">/poromechanics_application.h</text>
</a>
</g>
</g>
<!-- Node1&#45;&gt;Node2 -->
<g id="edge1" class="edge">
<title>Node1&#45;&gt;Node2</title>
<path fill="none" stroke="#63b8ff" d="M105.5,-142.23C105.5,-134.04 105.5,-125.66 105.5,-118.45"/>
<polygon fill="#63b8ff" stroke="#63b8ff" points="102,-142.02 105.5,-152.02 109,-142.02 102,-142.02"/>
</g>
<!-- Node3 -->
<g id="node3" class="node">
<title>Node3</title>
<g id="a_node3"><a xlink:href="../../d4/de2/poromechanics__application_8cpp.html" target="_top" xlink:title=" ">
<polygon fill="white" stroke="#666666" points="211,-41 0,-41 0,0 211,0 211,-41"/>
<text text-anchor="start" x="8" y="-29" font-family="Helvetica,sans-Serif" font-size="10.00">/software/kratos/doxygen</text>
<text text-anchor="start" x="8" y="-18" font-family="Helvetica,sans-Serif" font-size="10.00">/applications/PoromechanicsApplication</text>
<text text-anchor="middle" x="105.5" y="-7" font-family="Helvetica,sans-Serif" font-size="10.00">/poromechanics_application.cpp</text>
</a>
</g>
</g>
<!-- Node2&#45;&gt;Node3 -->
<g id="edge2" class="edge">
<title>Node2&#45;&gt;Node3</title>
<path fill="none" stroke="#63b8ff" d="M105.5,-65.36C105.5,-57.24 105.5,-48.7 105.5,-41.33"/>
<polygon fill="#63b8ff" stroke="#63b8ff" points="102,-65.28 105.5,-75.28 109,-65.28 102,-65.28"/>
</g>
</g>
</svg>
