<?xml version="1.0" encoding="UTF-8" standalone="no"?>
<!DOCTYPE svg PUBLIC "-//W3C//DTD SVG 1.1//EN"
 "http://www.w3.org/Graphics/SVG/1.1/DTD/svg11.dtd">
<!-- Generated by graphviz version 7.1.0 (0)
 -->
<!-- Title: /software/kratos/doxygen/applications/ShallowWaterApplication/custom_modelers/mesh_moving_modeler.h Pages: 1 -->
<svg width="700pt" height="214pt"
 viewBox="0.00 0.00 699.50 214.00" xmlns="http://www.w3.org/2000/svg" xmlns:xlink="http://www.w3.org/1999/xlink">
<g id="graph0" class="graph" transform="scale(1 1) rotate(0) translate(4 210)">
<title>/software/kratos/doxygen/applications/ShallowWaterApplication/custom_modelers/mesh_moving_modeler.h</title>
<!-- Node1 -->
<g id="node1" class="node">
<title>Node1</title>
<g id="a_node1"><a xlink:title=" ">
<polygon fill="#999999" stroke="#666666" points="482.5,-206 249.5,-206 249.5,-165 482.5,-165 482.5,-206"/>
<text text-anchor="start" x="257.5" y="-194" font-family="Helvetica,sans-Serif" font-size="10.00">/software/kratos/doxygen</text>
<text text-anchor="start" x="257.5" y="-183" font-family="Helvetica,sans-Serif" font-size="10.00">/applications/ShallowWaterApplication</text>
<text text-anchor="middle" x="366" y="-172" font-family="Helvetica,sans-Serif" font-size="10.00">/custom_modelers/mesh_moving_modeler.h</text>
</a>
</g>
</g>
<!-- Node2 -->
<g id="node2" class="node">
<title>Node2</title>
<g id="a_node2"><a xlink:href="../../da/d1d/mesh__moving__modeler_8cpp.html" target="_top" xlink:title=" ">
<polygon fill="white" stroke="#666666" points="244,-123.5 0,-123.5 0,-82.5 244,-82.5 244,-123.5"/>
<text text-anchor="start" x="8" y="-111.5" font-family="Helvetica,sans-Serif" font-size="10.00">/software/kratos/doxygen</text>
<text text-anchor="start" x="8" y="-100.5" font-family="Helvetica,sans-Serif" font-size="10.00">/applications/ShallowWaterApplication</text>
<text text-anchor="middle" x="122" y="-89.5" font-family="Helvetica,sans-Serif" font-size="10.00">/custom_modelers/mesh_moving_modeler.cpp</text>
</a>
</g>
</g>
<!-- Node1&#45;&gt;Node2 -->
<g id="edge1" class="edge">
<title>Node1&#45;&gt;Node2</title>
<path fill="none" stroke="#63b8ff" d="M294.87,-161.03C259.22,-149.27 216.51,-135.18 182.47,-123.95"/>
<polygon fill="#63b8ff" stroke="#63b8ff" points="293.65,-164.32 304.25,-164.13 295.85,-157.67 293.65,-164.32"/>
</g>
<!-- Node3 -->
<g id="node3" class="node">
<title>Node3</title>
<g id="a_node3"><a xlink:href="../../db/db0/_shallow_water_application_2custom__python_2add__custom__modelers__to__python_8cpp.html" target="_top" xlink:title=" ">
<polygon fill="white" stroke="#666666" points="470,-129 262,-129 262,-77 470,-77 470,-129"/>
<text text-anchor="start" x="270" y="-117" font-family="Helvetica,sans-Serif" font-size="10.00">/software/kratos/doxygen</text>
<text text-anchor="start" x="270" y="-106" font-family="Helvetica,sans-Serif" font-size="10.00">/applications/ShallowWaterApplication</text>
<text text-anchor="start" x="270" y="-95" font-family="Helvetica,sans-Serif" font-size="10.00">/custom_python/add_custom_modelers</text>
<text text-anchor="middle" x="366" y="-84" font-family="Helvetica,sans-Serif" font-size="10.00">_to_python.cpp</text>
</a>
</g>
</g>
<!-- Node1&#45;&gt;Node3 -->
<g id="edge2" class="edge">
<title>Node1&#45;&gt;Node3</title>
<path fill="none" stroke="#63b8ff" d="M366,-153.2C366,-145.34 366,-136.99 366,-129.45"/>
<polygon fill="#63b8ff" stroke="#63b8ff" points="362.5,-153.09 366,-163.09 369.5,-153.09 362.5,-153.09"/>
</g>
<!-- Node4 -->
<g id="node4" class="node">
<title>Node4</title>
<g id="a_node4"><a xlink:href="../../d4/de5/shallow__water__application_8h.html" target="_top" xlink:title=" ">
<polygon fill="white" stroke="#666666" points="691.5,-123.5 488.5,-123.5 488.5,-82.5 691.5,-82.5 691.5,-123.5"/>
<text text-anchor="start" x="496.5" y="-111.5" font-family="Helvetica,sans-Serif" font-size="10.00">/software/kratos/doxygen</text>
<text text-anchor="start" x="496.5" y="-100.5" font-family="Helvetica,sans-Serif" font-size="10.00">/applications/ShallowWaterApplication</text>
<text text-anchor="middle" x="590" y="-89.5" font-family="Helvetica,sans-Serif" font-size="10.00">/shallow_water_application.h</text>
</a>
</g>
</g>
<!-- Node1&#45;&gt;Node4 -->
<g id="edge3" class="edge">
<title>Node1&#45;&gt;Node4</title>
<path fill="none" stroke="#63b8ff" d="M432.15,-160.73C464.7,-149.03 503.5,-135.08 534.49,-123.95"/>
<polygon fill="#63b8ff" stroke="#63b8ff" points="431.02,-157.41 422.8,-164.09 433.39,-164 431.02,-157.41"/>
</g>
<!-- Node5 -->
<g id="node5" class="node">
<title>Node5</title>
<g id="a_node5"><a xlink:href="../../d3/d6c/shallow__water__application_8cpp.html" target="_top" xlink:title=" ">
<polygon fill="white" stroke="#666666" points="691.5,-41 488.5,-41 488.5,0 691.5,0 691.5,-41"/>
<text text-anchor="start" x="496.5" y="-29" font-family="Helvetica,sans-Serif" font-size="10.00">/software/kratos/doxygen</text>
<text text-anchor="start" x="496.5" y="-18" font-family="Helvetica,sans-Serif" font-size="10.00">/applications/ShallowWaterApplication</text>
<text text-anchor="middle" x="590" y="-7" font-family="Helvetica,sans-Serif" font-size="10.00">/shallow_water_application.cpp</text>
</a>
</g>
</g>
<!-- Node4&#45;&gt;Node5 -->
<g id="edge4" class="edge">
<title>Node4&#45;&gt;Node5</title>
<path fill="none" stroke="#63b8ff" d="M590,-70.66C590,-60.83 590,-50.26 590,-41.45"/>
<polygon fill="#63b8ff" stroke="#63b8ff" points="586.5,-70.59 590,-80.59 593.5,-70.59 586.5,-70.59"/>
</g>
</g>
</svg>
