<?xml version="1.0" encoding="UTF-8" standalone="no"?>
<!DOCTYPE svg PUBLIC "-//W3C//DTD SVG 1.1//EN"
 "http://www.w3.org/Graphics/SVG/1.1/DTD/svg11.dtd">
<!-- Generated by graphviz version 7.1.0 (0)
 -->
<!-- Title: /software/kratos/doxygen/applications/ParticleMechanicsApplication/custom_constitutive/hardening_laws/exponential_strain_softening_law.hpp Pages: 1 -->
<!--zoomable 357 -->
<svg id="main" version="1.1" xmlns="http://www.w3.org/2000/svg" xmlns:xlink="http://www.w3.org/1999/xlink" xml:space="preserve" onload="init(evt)">
<style type="text/css"><![CDATA[
.edge:hover path { stroke: red; }
.edge:hover polygon { stroke: red; fill: red; }
]]></style>
<script type="text/javascript"><![CDATA[
var edges = document.getElementsByTagName('g');
if (edges && edges.length) {
  for (var i=0;i<edges.length;i++) {
    if (edges[i].id.substr(0,4)=='edge') {
      edges[i].setAttribute('class','edge');
    }
  }
}
]]></script>
        <defs>
                <circle id="rim" cx="0" cy="0" r="7"/>
                <circle id="rim2" cx="0" cy="0" r="3.5"/>
                <g id="zoomPlus">
                        <use xlink:href="#rim" fill="#404040">
                                <set attributeName="fill" to="#808080" begin="zoomplus.mouseover" end="zoomplus.mouseout"/>
                        </use>
                        <path d="M-4,0h8M0,-4v8" fill="none" stroke="white" stroke-width="1.5" pointer-events="none"/>
                </g>
                <g id="zoomMin">
                        <use xlink:href="#rim" fill="#404040">
                                <set attributeName="fill" to="#808080" begin="zoomminus.mouseover" end="zoomminus.mouseout"/>
                        </use>
                        <path d="M-4,0h8" fill="none" stroke="white" stroke-width="1.5" pointer-events="none"/>
                </g>
                <g id="dirArrow">
                        <path fill="none" stroke="white" stroke-width="1.5" d="M0,-3.0v7 M-2.5,-0.5L0,-3.0L2.5,-0.5"/>
                </g>
               <g id="resetDef">
                       <use xlink:href="#rim2" fill="#404040">
                               <set attributeName="fill" to="#808080" begin="reset.mouseover" end="reset.mouseout"/>
                       </use>
               </g>
        </defs>

<script type="text/javascript">
var viewWidth = 1103;
var viewHeight = 357;
var sectionId = 'dynsection-1';
</script>
<script xlink:href="../../svgpan.js"/>
<svg id="graph" class="graph">
<g id="viewport">
<title>/software/kratos/doxygen/applications/ParticleMechanicsApplication/custom_constitutive/hardening_laws/exponential_strain_softening_law.hpp</title>
<!-- Node1 -->
<g id="node1" class="node">
<title>Node1</title>
<g id="a_node1"><a xlink:title=" ">
<polygon fill="#999999" stroke="#666666" points="612,-349 422,-349 422,-286 612,-286 612,-349"/>
<text text-anchor="start" x="430" y="-337" font-family="Helvetica,sans-Serif" font-size="10.00">/software/kratos/doxygen</text>
<text text-anchor="start" x="430" y="-326" font-family="Helvetica,sans-Serif" font-size="10.00">/applications/ParticleMechanics</text>
<text text-anchor="start" x="430" y="-315" font-family="Helvetica,sans-Serif" font-size="10.00">Application/custom_constitutive</text>
<text text-anchor="start" x="430" y="-304" font-family="Helvetica,sans-Serif" font-size="10.00">/hardening_laws/exponential_strain</text>
<text text-anchor="middle" x="517" y="-293" font-family="Helvetica,sans-Serif" font-size="10.00">_softening_law.hpp</text>
</a>
</g>
</g>
<!-- Node2 -->
<g id="node2" class="node">
<title>Node2</title>
<g id="a_node2"><a xlink:href="../../d7/d7b/exponential__strain__softening__law_8cpp.html" target="_top" xlink:title=" ">
<polygon fill="white" stroke="#666666" points="190,-250 0,-250 0,-187 190,-187 190,-250"/>
<text text-anchor="start" x="8" y="-238" font-family="Helvetica,sans-Serif" font-size="10.00">/software/kratos/doxygen</text>
<text text-anchor="start" x="8" y="-227" font-family="Helvetica,sans-Serif" font-size="10.00">/applications/ParticleMechanics</text>
<text text-anchor="start" x="8" y="-216" font-family="Helvetica,sans-Serif" font-size="10.00">Application/custom_constitutive</text>
<text text-anchor="start" x="8" y="-205" font-family="Helvetica,sans-Serif" font-size="10.00">/hardening_laws/exponential_strain</text>
<text text-anchor="middle" x="95" y="-194" font-family="Helvetica,sans-Serif" font-size="10.00">_softening_law.cpp</text>
</a>
</g>
</g>
<!-- Node1&#45;&gt;Node2 -->
<g id="edge1" class="edge">
<title>Node1&#45;&gt;Node2</title>
<path fill="none" stroke="#63b8ff" d="M410.61,-296.44C348.6,-284.2 269.06,-267.57 199,-250 196.17,-249.29 193.3,-248.56 190.41,-247.8"/>
<polygon fill="#63b8ff" stroke="#63b8ff" points="409.61,-299.81 420.1,-298.3 410.96,-292.94 409.61,-299.81"/>
</g>
<!-- Node3 -->
<g id="node3" class="node">
<title>Node3</title>
<g id="a_node3"><a xlink:href="../../dc/dd5/hencky__mc__strain__softening__3_d__law_8hpp.html" target="_top" xlink:title=" ">
<polygon fill="white" stroke="#666666" points="427.5,-244.5 208.5,-244.5 208.5,-192.5 427.5,-192.5 427.5,-244.5"/>
<text text-anchor="start" x="216.5" y="-232.5" font-family="Helvetica,sans-Serif" font-size="10.00">/software/kratos/doxygen</text>
<text text-anchor="start" x="216.5" y="-221.5" font-family="Helvetica,sans-Serif" font-size="10.00">/applications/ParticleMechanics</text>
<text text-anchor="start" x="216.5" y="-210.5" font-family="Helvetica,sans-Serif" font-size="10.00">Application/custom_constitutive</text>
<text text-anchor="middle" x="318" y="-199.5" font-family="Helvetica,sans-Serif" font-size="10.00">/hencky_mc_strain_softening_3D_law.hpp</text>
</a>
</g>
</g>
<!-- Node1&#45;&gt;Node3 -->
<g id="edge2" class="edge">
<title>Node1&#45;&gt;Node3</title>
<path fill="none" stroke="#63b8ff" d="M443.25,-280.55C419.01,-268.73 392.57,-255.85 370.26,-244.98"/>
<polygon fill="#63b8ff" stroke="#63b8ff" points="441.6,-283.64 452.13,-284.88 444.67,-277.35 441.6,-283.64"/>
</g>
<!-- Node5 -->
<g id="node5" class="node">
<title>Node5</title>
<g id="a_node5"><a xlink:href="../../df/d27/_particle_mechanics_application_2custom__python_2add__custom__constitutive__laws__to__python_8cpp.html" target="_top" xlink:title=" ">
<polygon fill="white" stroke="#666666" points="480.5,-145.5 257.5,-145.5 257.5,-93.5 480.5,-93.5 480.5,-145.5"/>
<text text-anchor="start" x="265.5" y="-133.5" font-family="Helvetica,sans-Serif" font-size="10.00">/software/kratos/doxygen</text>
<text text-anchor="start" x="265.5" y="-122.5" font-family="Helvetica,sans-Serif" font-size="10.00">/applications/ParticleMechanics</text>
<text text-anchor="start" x="265.5" y="-111.5" font-family="Helvetica,sans-Serif" font-size="10.00">Application/custom_python/add</text>
<text text-anchor="middle" x="369" y="-100.5" font-family="Helvetica,sans-Serif" font-size="10.00">_custom_constitutive_laws_to_python.cpp</text>
</a>
</g>
</g>
<!-- Node1&#45;&gt;Node5 -->
<g id="edge15" class="edge">
<title>Node1&#45;&gt;Node5</title>
<path fill="none" stroke="#63b8ff" d="M491.49,-276.23C486.03,-267.59 480.31,-258.5 475,-250 457.54,-222.08 456.49,-212.78 436,-187 424.47,-172.5 410.07,-157.85 397.57,-146"/>
<polygon fill="#63b8ff" stroke="#63b8ff" points="488.39,-277.88 496.69,-284.47 494.31,-274.14 488.39,-277.88"/>
</g>
<!-- Node6 -->
<g id="node6" class="node">
<title>Node6</title>
<g id="a_node6"><a xlink:href="../../d0/d91/particle__mechanics__application_8h.html" target="_top" xlink:title=" ">
<polygon fill="white" stroke="#666666" points="877,-145.5 707,-145.5 707,-93.5 877,-93.5 877,-145.5"/>
<text text-anchor="start" x="715" y="-133.5" font-family="Helvetica,sans-Serif" font-size="10.00">/software/kratos/doxygen</text>
<text text-anchor="start" x="715" y="-122.5" font-family="Helvetica,sans-Serif" font-size="10.00">/applications/ParticleMechanics</text>
<text text-anchor="start" x="715" y="-111.5" font-family="Helvetica,sans-Serif" font-size="10.00">Application/particle_mechanics</text>
<text text-anchor="middle" x="792" y="-100.5" font-family="Helvetica,sans-Serif" font-size="10.00">_application.h</text>
</a>
</g>
</g>
<!-- Node1&#45;&gt;Node6 -->
<g id="edge16" class="edge">
<title>Node1&#45;&gt;Node6</title>
<path fill="none" stroke="#63b8ff" d="M623.34,-312.96C724.43,-307.08 866.09,-291.47 901,-250 919.03,-228.58 914.71,-211.42 901,-187 891.13,-169.41 874.5,-155.92 857.17,-145.84"/>
<polygon fill="#63b8ff" stroke="#63b8ff" points="623.45,-309.44 613.66,-313.49 623.83,-316.43 623.45,-309.44"/>
</g>
<!-- Node8 -->
<g id="node8" class="node">
<title>Node8</title>
<g id="a_node8"><a xlink:href="../../de/d14/hencky__mc__strain__softening__axisym__2_d__law_8hpp.html" target="_top" xlink:title=" ">
<polygon fill="white" stroke="#666666" points="891.5,-250 692.5,-250 692.5,-187 891.5,-187 891.5,-250"/>
<text text-anchor="start" x="700.5" y="-238" font-family="Helvetica,sans-Serif" font-size="10.00">/software/kratos/doxygen</text>
<text text-anchor="start" x="700.5" y="-227" font-family="Helvetica,sans-Serif" font-size="10.00">/applications/ParticleMechanics</text>
<text text-anchor="start" x="700.5" y="-216" font-family="Helvetica,sans-Serif" font-size="10.00">Application/custom_constitutive</text>
<text text-anchor="start" x="700.5" y="-205" font-family="Helvetica,sans-Serif" font-size="10.00">/hencky_mc_strain_softening_axisym</text>
<text text-anchor="middle" x="792" y="-194" font-family="Helvetica,sans-Serif" font-size="10.00">_2D_law.hpp</text>
</a>
</g>
</g>
<!-- Node1&#45;&gt;Node8 -->
<g id="edge7" class="edge">
<title>Node1&#45;&gt;Node8</title>
<path fill="none" stroke="#63b8ff" d="M615.32,-281.82C644.31,-271.59 675.84,-260.47 704.12,-250.5"/>
<polygon fill="#63b8ff" stroke="#63b8ff" points="614.46,-278.41 606.2,-285.04 616.79,-285.01 614.46,-278.41"/>
</g>
<!-- Node10 -->
<g id="node10" class="node">
<title>Node10</title>
<g id="a_node10"><a xlink:href="../../d6/dcd/hencky__mc__strain__softening__plane__strain__2_d__law_8hpp.html" target="_top" xlink:title=" ">
<polygon fill="white" stroke="#666666" points="674,-250 484,-250 484,-187 674,-187 674,-250"/>
<text text-anchor="start" x="492" y="-238" font-family="Helvetica,sans-Serif" font-size="10.00">/software/kratos/doxygen</text>
<text text-anchor="start" x="492" y="-227" font-family="Helvetica,sans-Serif" font-size="10.00">/applications/ParticleMechanics</text>
<text text-anchor="start" x="492" y="-216" font-family="Helvetica,sans-Serif" font-size="10.00">Application/custom_constitutive</text>
<text text-anchor="start" x="492" y="-205" font-family="Helvetica,sans-Serif" font-size="10.00">/hencky_mc_strain_softening_plane</text>
<text text-anchor="middle" x="579" y="-194" font-family="Helvetica,sans-Serif" font-size="10.00">_strain_2D_law.hpp</text>
</a>
</g>
</g>
<!-- Node1&#45;&gt;Node10 -->
<g id="edge11" class="edge">
<title>Node1&#45;&gt;Node10</title>
<path fill="none" stroke="#63b8ff" d="M542.83,-276.09C548.3,-267.54 553.98,-258.64 559.19,-250.5"/>
<polygon fill="#63b8ff" stroke="#63b8ff" points="540.04,-273.96 537.6,-284.27 545.94,-277.73 540.04,-273.96"/>
</g>
<!-- Node4 -->
<g id="node4" class="node">
<title>Node4</title>
<g id="a_node4"><a xlink:href="../../da/d38/hencky__mc__strain__softening__3_d__law_8cpp.html" target="_top" xlink:title=" ">
<polygon fill="white" stroke="#666666" points="239,-145.5 21,-145.5 21,-93.5 239,-93.5 239,-145.5"/>
<text text-anchor="start" x="29" y="-133.5" font-family="Helvetica,sans-Serif" font-size="10.00">/software/kratos/doxygen</text>
<text text-anchor="start" x="29" y="-122.5" font-family="Helvetica,sans-Serif" font-size="10.00">/applications/ParticleMechanics</text>
<text text-anchor="start" x="29" y="-111.5" font-family="Helvetica,sans-Serif" font-size="10.00">Application/custom_constitutive</text>
<text text-anchor="middle" x="130" y="-100.5" font-family="Helvetica,sans-Serif" font-size="10.00">/hencky_mc_strain_softening_3D_law.cpp</text>
</a>
</g>
</g>
<!-- Node3&#45;&gt;Node4 -->
<g id="edge3" class="edge">
<title>Node3&#45;&gt;Node4</title>
<path fill="none" stroke="#63b8ff" d="M258.68,-186.89C233.16,-173.73 203.69,-158.52 179.39,-145.98"/>
<polygon fill="#63b8ff" stroke="#63b8ff" points="256.77,-189.85 267.26,-191.32 259.98,-183.62 256.77,-189.85"/>
</g>
<!-- Node3&#45;&gt;Node5 -->
<g id="edge4" class="edge">
<title>Node3&#45;&gt;Node5</title>
<path fill="none" stroke="#63b8ff" d="M336.73,-181.87C343.02,-169.91 349.9,-156.82 355.69,-145.82"/>
<polygon fill="#63b8ff" stroke="#63b8ff" points="333.66,-180.19 332.1,-190.67 339.86,-183.45 333.66,-180.19"/>
</g>
<!-- Node3&#45;&gt;Node6 -->
<g id="edge5" class="edge">
<title>Node3&#45;&gt;Node6</title>
<path fill="none" stroke="#63b8ff" d="M438.89,-193.61C451.08,-191.33 463.28,-189.08 475,-187 573.84,-169.43 600.41,-174.56 698,-151 704.25,-149.49 710.69,-147.77 717.13,-145.93"/>
<polygon fill="#63b8ff" stroke="#63b8ff" points="438.38,-190.15 429.2,-195.44 439.68,-197.03 438.38,-190.15"/>
</g>
<!-- Node7 -->
<g id="node7" class="node">
<title>Node7</title>
<g id="a_node7"><a xlink:href="../../d2/d00/particle__mechanics__application_8cpp.html" target="_top" xlink:title=" ">
<polygon fill="white" stroke="#666666" points="877,-52 707,-52 707,0 877,0 877,-52"/>
<text text-anchor="start" x="715" y="-40" font-family="Helvetica,sans-Serif" font-size="10.00">/software/kratos/doxygen</text>
<text text-anchor="start" x="715" y="-29" font-family="Helvetica,sans-Serif" font-size="10.00">/applications/ParticleMechanics</text>
<text text-anchor="start" x="715" y="-18" font-family="Helvetica,sans-Serif" font-size="10.00">Application/particle_mechanics</text>
<text text-anchor="middle" x="792" y="-7" font-family="Helvetica,sans-Serif" font-size="10.00">_application.cpp</text>
</a>
</g>
</g>
<!-- Node6&#45;&gt;Node7 -->
<g id="edge6" class="edge">
<title>Node6&#45;&gt;Node7</title>
<path fill="none" stroke="#63b8ff" d="M792,-81.8C792,-71.92 792,-61.46 792,-52.35"/>
<polygon fill="#63b8ff" stroke="#63b8ff" points="788.5,-81.5 792,-91.5 795.5,-81.5 788.5,-81.5"/>
</g>
<!-- Node8&#45;&gt;Node5 -->
<g id="edge9" class="edge">
<title>Node8&#45;&gt;Node5</title>
<path fill="none" stroke="#63b8ff" d="M680.79,-186.57C596.04,-167.39 571.74,-168.91 490,-151 482.8,-149.42 475.39,-147.73 467.93,-145.97"/>
<polygon fill="#63b8ff" stroke="#63b8ff" points="680,-189.98 690.53,-188.81 681.57,-183.16 680,-189.98"/>
</g>
<!-- Node8&#45;&gt;Node6 -->
<g id="edge10" class="edge">
<title>Node8&#45;&gt;Node6</title>
<path fill="none" stroke="#63b8ff" d="M792,-175.14C792,-165.2 792,-154.91 792,-145.98"/>
<polygon fill="#63b8ff" stroke="#63b8ff" points="788.5,-175.03 792,-185.03 795.5,-175.03 788.5,-175.03"/>
</g>
<!-- Node9 -->
<g id="node9" class="node">
<title>Node9</title>
<g id="a_node9"><a xlink:href="../../d3/d70/hencky__mc__strain__softening__axisym__2_d__law_8cpp.html" target="_top" xlink:title=" ">
<polygon fill="white" stroke="#666666" points="1094.5,-151 895.5,-151 895.5,-88 1094.5,-88 1094.5,-151"/>
<text text-anchor="start" x="903.5" y="-139" font-family="Helvetica,sans-Serif" font-size="10.00">/software/kratos/doxygen</text>
<text text-anchor="start" x="903.5" y="-128" font-family="Helvetica,sans-Serif" font-size="10.00">/applications/ParticleMechanics</text>
<text text-anchor="start" x="903.5" y="-117" font-family="Helvetica,sans-Serif" font-size="10.00">Application/custom_constitutive</text>
<text text-anchor="start" x="903.5" y="-106" font-family="Helvetica,sans-Serif" font-size="10.00">/hencky_mc_strain_softening_axisym</text>
<text text-anchor="middle" x="995" y="-95" font-family="Helvetica,sans-Serif" font-size="10.00">_2D_law.cpp</text>
</a>
</g>
</g>
<!-- Node8&#45;&gt;Node9 -->
<g id="edge8" class="edge">
<title>Node8&#45;&gt;Node9</title>
<path fill="none" stroke="#63b8ff" d="M867.12,-181.6C887.81,-171.72 910.07,-161.08 930.13,-151.5"/>
<polygon fill="#63b8ff" stroke="#63b8ff" points="865.67,-178.42 858.15,-185.89 868.69,-184.74 865.67,-178.42"/>
</g>
<!-- Node10&#45;&gt;Node5 -->
<g id="edge13" class="edge">
<title>Node10&#45;&gt;Node5</title>
<path fill="none" stroke="#63b8ff" d="M501.86,-181.87C476.09,-169.96 447.91,-156.95 424.15,-145.98"/>
<polygon fill="#63b8ff" stroke="#63b8ff" points="500.06,-184.89 510.6,-185.91 502.99,-178.54 500.06,-184.89"/>
</g>
<!-- Node10&#45;&gt;Node6 -->
<g id="edge14" class="edge">
<title>Node10&#45;&gt;Node6</title>
<path fill="none" stroke="#63b8ff" d="M657.24,-181.87C683.38,-169.96 711.97,-156.95 736.06,-145.98"/>
<polygon fill="#63b8ff" stroke="#63b8ff" points="656.01,-178.58 648.36,-185.91 658.91,-184.96 656.01,-178.58"/>
</g>
<!-- Node11 -->
<g id="node11" class="node">
<title>Node11</title>
<g id="a_node11"><a xlink:href="../../da/d86/hencky__mc__strain__softening__plane__strain__2_d__law_8cpp.html" target="_top" xlink:title=" ">
<polygon fill="white" stroke="#666666" points="689,-151 499,-151 499,-88 689,-88 689,-151"/>
<text text-anchor="start" x="507" y="-139" font-family="Helvetica,sans-Serif" font-size="10.00">/software/kratos/doxygen</text>
<text text-anchor="start" x="507" y="-128" font-family="Helvetica,sans-Serif" font-size="10.00">/applications/ParticleMechanics</text>
<text text-anchor="start" x="507" y="-117" font-family="Helvetica,sans-Serif" font-size="10.00">Application/custom_constitutive</text>
<text text-anchor="start" x="507" y="-106" font-family="Helvetica,sans-Serif" font-size="10.00">/hencky_mc_strain_softening_plane</text>
<text text-anchor="middle" x="594" y="-95" font-family="Helvetica,sans-Serif" font-size="10.00">_strain_2D_law.cpp</text>
</a>
</g>
</g>
<!-- Node10&#45;&gt;Node11 -->
<g id="edge12" class="edge">
<title>Node10&#45;&gt;Node11</title>
<path fill="none" stroke="#63b8ff" d="M585.51,-175.43C586.75,-167.39 588.03,-159.11 589.21,-151.5"/>
<polygon fill="#63b8ff" stroke="#63b8ff" points="582.09,-174.63 584.02,-185.05 589.01,-175.7 582.09,-174.63"/>
</g>
</g>
</svg>
        <g id="navigator" transform="translate(0 0)" fill="#404254">
                <rect fill="#f2f5e9" fill-opacity="0.5" stroke="#606060" stroke-width=".5" x="0" y="0" width="60" height="60"/>
                <use id="zoomplus" xlink:href="#zoomPlus" x="17" y="9" onmousedown="handleZoom(evt,'in')"/>
                <use id="zoomminus" xlink:href="#zoomMin" x="42" y="9" onmousedown="handleZoom(evt,'out')"/>
                <use id="reset" xlink:href="#resetDef" x="30" y="36" onmousedown="handleReset()"/>
                <g id="arrowUp" xlink:href="#dirArrow" transform="translate(30 24)" onmousedown="handlePan(0,-1)">
                  <use xlink:href="#rim" fill="#404040">
                        <set attributeName="fill" to="#808080" begin="arrowUp.mouseover" end="arrowUp.mouseout"/>
                  </use>
                  <path fill="none" stroke="white" stroke-width="1.5" d="M0,-3.0v7 M-2.5,-0.5L0,-3.0L2.5,-0.5"/>
                </g>
                <g id="arrowRight" xlink:href="#dirArrow" transform="rotate(90) translate(36 -43)" onmousedown="handlePan(1,0)">
                  <use xlink:href="#rim" fill="#404040">
                        <set attributeName="fill" to="#808080" begin="arrowRight.mouseover" end="arrowRight.mouseout"/>
                  </use>
                  <path fill="none" stroke="white" stroke-width="1.5" d="M0,-3.0v7 M-2.5,-0.5L0,-3.0L2.5,-0.5"/>
                </g>
                <g id="arrowDown" xlink:href="#dirArrow" transform="rotate(180) translate(-30 -48)" onmousedown="handlePan(0,1)">
                  <use xlink:href="#rim" fill="#404040">
                        <set attributeName="fill" to="#808080" begin="arrowDown.mouseover" end="arrowDown.mouseout"/>
                  </use>
                  <path fill="none" stroke="white" stroke-width="1.5" d="M0,-3.0v7 M-2.5,-0.5L0,-3.0L2.5,-0.5"/>
                </g>
                <g id="arrowLeft" xlink:href="#dirArrow" transform="rotate(270) translate(-36 17)" onmousedown="handlePan(-1,0)">
                  <use xlink:href="#rim" fill="#404040">
                        <set attributeName="fill" to="#808080" begin="arrowLeft.mouseover" end="arrowLeft.mouseout"/>
                  </use>
                  <path fill="none" stroke="white" stroke-width="1.5" d="M0,-3.0v7 M-2.5,-0.5L0,-3.0L2.5,-0.5"/>
                </g>
        </g>
        <svg viewBox="0 0 15 15" width="100%" height="30px" preserveAspectRatio="xMaxYMin meet">
         <g id="arrow_out" transform="scale(0.3 0.3)">
          <a xlink:href="exponential__strain__softening__law_8hpp__dep__incl_org.svg" target="_base">
           <rect id="button" ry="5" rx="5" y="6" x="6" height="38" width="38"
                fill="#f2f5e9" fill-opacity="0.5" stroke="#606060" stroke-width="1.0"/>
           <path id="arrow"
             d="M 11.500037,31.436501 C 11.940474,20.09759 22.043105,11.32322 32.158766,21.979434 L 37.068811,17.246167 C 37.068811,17.246167 37.088388,32 37.088388,32 L 22.160133,31.978069 C 22.160133,31.978069 26.997745,27.140456 26.997745,27.140456 C 18.528582,18.264221 13.291696,25.230495 11.500037,31.436501 z"
             style="fill:#404040;"/>
          </a>
         </g>
        </svg>
</svg>
