<?xml version="1.0" encoding="UTF-8" standalone="no"?>
<!DOCTYPE svg PUBLIC "-//W3C//DTD SVG 1.1//EN"
 "http://www.w3.org/Graphics/SVG/1.1/DTD/svg11.dtd">
<!-- Generated by graphviz version 7.1.0 (0)
 -->
<!-- Title: /software/kratos/doxygen/applications/ContactStructuralMechanicsApplication/custom_processes/contact_spr_error_process.h Pages: 1 -->
<svg width="601pt" height="269pt"
 viewBox="0.00 0.00 601.00 269.00" xmlns="http://www.w3.org/2000/svg" xmlns:xlink="http://www.w3.org/1999/xlink">
<g id="graph0" class="graph" transform="scale(1 1) rotate(0) translate(4 265)">
<title>/software/kratos/doxygen/applications/ContactStructuralMechanicsApplication/custom_processes/contact_spr_error_process.h</title>
<!-- Node1 -->
<g id="node1" class="node">
<title>Node1</title>
<g id="a_node1"><a xlink:title=" ">
<polygon fill="#999999" stroke="#666666" points="355,-261 188,-261 188,-198 355,-198 355,-261"/>
<text text-anchor="start" x="196" y="-249" font-family="Helvetica,sans-Serif" font-size="10.00">/software/kratos/doxygen</text>
<text text-anchor="start" x="196" y="-238" font-family="Helvetica,sans-Serif" font-size="10.00">/applications/ContactStructural</text>
<text text-anchor="start" x="196" y="-227" font-family="Helvetica,sans-Serif" font-size="10.00">MechanicsApplication/custom</text>
<text text-anchor="start" x="196" y="-216" font-family="Helvetica,sans-Serif" font-size="10.00">_processes/contact_spr_error</text>
<text text-anchor="middle" x="271.5" y="-205" font-family="Helvetica,sans-Serif" font-size="10.00">_process.h</text>
</a>
</g>
</g>
<!-- Node2 -->
<g id="node2" class="node">
<title>Node2</title>
<g id="a_node2"><a xlink:href="../../d3/de8/contact__spr__error__process_8cpp.html" target="_top" xlink:title=" ">
<polygon fill="white" stroke="#666666" points="167,-162 0,-162 0,-99 167,-99 167,-162"/>
<text text-anchor="start" x="8" y="-150" font-family="Helvetica,sans-Serif" font-size="10.00">/software/kratos/doxygen</text>
<text text-anchor="start" x="8" y="-139" font-family="Helvetica,sans-Serif" font-size="10.00">/applications/ContactStructural</text>
<text text-anchor="start" x="8" y="-128" font-family="Helvetica,sans-Serif" font-size="10.00">MechanicsApplication/custom</text>
<text text-anchor="start" x="8" y="-117" font-family="Helvetica,sans-Serif" font-size="10.00">_processes/contact_spr_error</text>
<text text-anchor="middle" x="83.5" y="-106" font-family="Helvetica,sans-Serif" font-size="10.00">_process.cpp</text>
</a>
</g>
</g>
<!-- Node1&#45;&gt;Node2 -->
<g id="edge1" class="edge">
<title>Node1&#45;&gt;Node2</title>
<path fill="none" stroke="#63b8ff" d="M201.4,-192.33C182.39,-182.52 161.98,-171.99 143.58,-162.5"/>
<polygon fill="#63b8ff" stroke="#63b8ff" points="199.66,-195.37 210.15,-196.85 202.87,-189.15 199.66,-195.37"/>
</g>
<!-- Node3 -->
<g id="node3" class="node">
<title>Node3</title>
<g id="a_node3"><a xlink:href="../../de/dde/_contact_structural_mechanics_application_2custom__python_2add__custom__processes__to__python_8cpp.html" target="_top" xlink:title=" ">
<polygon fill="white" stroke="#666666" points="357.5,-162 185.5,-162 185.5,-99 357.5,-99 357.5,-162"/>
<text text-anchor="start" x="193.5" y="-150" font-family="Helvetica,sans-Serif" font-size="10.00">/software/kratos/doxygen</text>
<text text-anchor="start" x="193.5" y="-139" font-family="Helvetica,sans-Serif" font-size="10.00">/applications/ContactStructural</text>
<text text-anchor="start" x="193.5" y="-128" font-family="Helvetica,sans-Serif" font-size="10.00">MechanicsApplication/custom</text>
<text text-anchor="start" x="193.5" y="-117" font-family="Helvetica,sans-Serif" font-size="10.00">_python/add_custom_processes</text>
<text text-anchor="middle" x="271.5" y="-106" font-family="Helvetica,sans-Serif" font-size="10.00">_to_python.cpp</text>
</a>
</g>
</g>
<!-- Node1&#45;&gt;Node3 -->
<g id="edge2" class="edge">
<title>Node1&#45;&gt;Node3</title>
<path fill="none" stroke="#63b8ff" d="M271.5,-186.15C271.5,-178.2 271.5,-170.02 271.5,-162.5"/>
<polygon fill="#63b8ff" stroke="#63b8ff" points="268,-186.03 271.5,-196.03 275,-186.03 268,-186.03"/>
</g>
<!-- Node4 -->
<g id="node4" class="node">
<title>Node4</title>
<g id="a_node4"><a xlink:href="../../d0/dae/contact__error__mesh__criteria_8h.html" target="_top" xlink:title=" ">
<polygon fill="white" stroke="#666666" points="593,-162 376,-162 376,-99 593,-99 593,-162"/>
<text text-anchor="start" x="384" y="-150" font-family="Helvetica,sans-Serif" font-size="10.00">/software/kratos/doxygen</text>
<text text-anchor="start" x="384" y="-139" font-family="Helvetica,sans-Serif" font-size="10.00">/applications/ContactStructural</text>
<text text-anchor="start" x="384" y="-128" font-family="Helvetica,sans-Serif" font-size="10.00">MechanicsApplication/custom</text>
<text text-anchor="start" x="384" y="-117" font-family="Helvetica,sans-Serif" font-size="10.00">_strategies/custom_convergencecriterias</text>
<text text-anchor="middle" x="484.5" y="-106" font-family="Helvetica,sans-Serif" font-size="10.00">/contact_error_mesh_criteria.h</text>
</a>
</g>
</g>
<!-- Node1&#45;&gt;Node4 -->
<g id="edge3" class="edge">
<title>Node1&#45;&gt;Node4</title>
<path fill="none" stroke="#63b8ff" d="M349.73,-192.87C371.61,-182.91 395.2,-172.17 416.44,-162.5"/>
<polygon fill="#63b8ff" stroke="#63b8ff" points="348.51,-189.58 340.86,-196.91 351.41,-195.96 348.51,-189.58"/>
</g>
<!-- Node5 -->
<g id="node5" class="node">
<title>Node5</title>
<g id="a_node5"><a xlink:href="../../dd/da0/_contact_structural_mechanics_application_2custom__python_2add__custom__strategies__to__python_8cpp.html" target="_top" xlink:title=" ">
<polygon fill="white" stroke="#666666" points="570.5,-63 398.5,-63 398.5,0 570.5,0 570.5,-63"/>
<text text-anchor="start" x="406.5" y="-51" font-family="Helvetica,sans-Serif" font-size="10.00">/software/kratos/doxygen</text>
<text text-anchor="start" x="406.5" y="-40" font-family="Helvetica,sans-Serif" font-size="10.00">/applications/ContactStructural</text>
<text text-anchor="start" x="406.5" y="-29" font-family="Helvetica,sans-Serif" font-size="10.00">MechanicsApplication/custom</text>
<text text-anchor="start" x="406.5" y="-18" font-family="Helvetica,sans-Serif" font-size="10.00">_python/add_custom_strategies</text>
<text text-anchor="middle" x="484.5" y="-7" font-family="Helvetica,sans-Serif" font-size="10.00">_to_python.cpp</text>
</a>
</g>
</g>
<!-- Node4&#45;&gt;Node5 -->
<g id="edge4" class="edge">
<title>Node4&#45;&gt;Node5</title>
<path fill="none" stroke="#63b8ff" d="M484.5,-87.15C484.5,-79.2 484.5,-71.02 484.5,-63.5"/>
<polygon fill="#63b8ff" stroke="#63b8ff" points="481,-87.03 484.5,-97.03 488,-87.03 481,-87.03"/>
</g>
</g>
</svg>
