<?xml version="1.0" encoding="UTF-8" standalone="no"?>
<!DOCTYPE svg PUBLIC "-//W3C//DTD SVG 1.1//EN"
 "http://www.w3.org/Graphics/SVG/1.1/DTD/svg11.dtd">
<!-- Generated by graphviz version 7.1.0 (0)
 -->
<!-- Title: /software/kratos/doxygen/applications/ContactMechanicsApplication/custom_conditions/rigid_contact/point_rigid_contact_condition.hpp Pages: 1 -->
<svg width="1880pt" height="775pt"
 viewBox="0.00 0.00 1879.73 775.00" xmlns="http://www.w3.org/2000/svg" xmlns:xlink="http://www.w3.org/1999/xlink">
<g id="graph0" class="graph" transform="scale(1 1) rotate(0) translate(4 771)">
<title>/software/kratos/doxygen/applications/ContactMechanicsApplication/custom_conditions/rigid_contact/point_rigid_contact_condition.hpp</title>
<!-- Node1 -->
<g id="node1" class="node">
<title>Node1</title>
<g id="a_node1"><a xlink:title=" ">
<polygon fill="#999999" stroke="#666666" points="700.42,-767 521.42,-767 521.42,-704 700.42,-704 700.42,-767"/>
<text text-anchor="start" x="529.42" y="-755" font-family="Helvetica,sans-Serif" font-size="10.00">/software/kratos/doxygen</text>
<text text-anchor="start" x="529.42" y="-744" font-family="Helvetica,sans-Serif" font-size="10.00">/applications/ContactMechanics</text>
<text text-anchor="start" x="529.42" y="-733" font-family="Helvetica,sans-Serif" font-size="10.00">Application/custom_conditions</text>
<text text-anchor="start" x="529.42" y="-722" font-family="Helvetica,sans-Serif" font-size="10.00">/rigid_contact/point_rigid_contact</text>
<text text-anchor="middle" x="610.92" y="-711" font-family="Helvetica,sans-Serif" font-size="10.00">_condition.hpp</text>
</a>
</g>
</g>
<!-- Node2 -->
<g id="node2" class="node">
<title>Node2</title>
<g id="a_node2"><a xlink:href="../../de/d7a/contact__mechanics__application_8h.html" target="_top" xlink:title=" ">
<polygon fill="white" stroke="#666666" points="654.42,-250 483.42,-250 483.42,-198 654.42,-198 654.42,-250"/>
<text text-anchor="start" x="491.42" y="-238" font-family="Helvetica,sans-Serif" font-size="10.00">/software/kratos/doxygen</text>
<text text-anchor="start" x="491.42" y="-227" font-family="Helvetica,sans-Serif" font-size="10.00">/applications/ContactMechanics</text>
<text text-anchor="start" x="491.42" y="-216" font-family="Helvetica,sans-Serif" font-size="10.00">Application/contact_mechanics</text>
<text text-anchor="middle" x="568.92" y="-205" font-family="Helvetica,sans-Serif" font-size="10.00">_application.h</text>
</a>
</g>
</g>
<!-- Node1&#45;&gt;Node2 -->
<g id="edge1" class="edge">
<title>Node1&#45;&gt;Node2</title>
<path fill="none" stroke="#63b8ff" d="M538.96,-697.03C528.49,-688.75 518.91,-679.08 511.92,-668 480.9,-618.79 492.92,-596.67 492.92,-538.5 492.92,-538.5 492.92,-538.5 492.92,-437.5 492.92,-366.39 531.12,-289.29 553.36,-250.45"/>
<polygon fill="#63b8ff" stroke="#63b8ff" points="536.58,-699.62 546.7,-702.75 540.74,-693.99 536.58,-699.62"/>
</g>
<!-- Node4 -->
<g id="node4" class="node">
<title>Node4</title>
<g id="a_node4"><a xlink:href="../../dd/d06/hydraulic__rigid__contact__penalty__3_d__condition_8hpp.html" target="_top" xlink:title=" ">
<polygon fill="white" stroke="#666666" points="329.42,-470 112.42,-470 112.42,-407 329.42,-407 329.42,-470"/>
<text text-anchor="start" x="120.42" y="-458" font-family="Helvetica,sans-Serif" font-size="10.00">/software/kratos/doxygen</text>
<text text-anchor="start" x="120.42" y="-447" font-family="Helvetica,sans-Serif" font-size="10.00">/applications/ContactMechanics</text>
<text text-anchor="start" x="120.42" y="-436" font-family="Helvetica,sans-Serif" font-size="10.00">Application/custom_conditions</text>
<text text-anchor="start" x="120.42" y="-425" font-family="Helvetica,sans-Serif" font-size="10.00">/hydraulic_contact/hydraulic</text>
<text text-anchor="middle" x="220.92" y="-414" font-family="Helvetica,sans-Serif" font-size="10.00">_rigid_contact_penalty_3D_condition.hpp</text>
</a>
</g>
</g>
<!-- Node1&#45;&gt;Node4 -->
<g id="edge3" class="edge">
<title>Node1&#45;&gt;Node4</title>
<path fill="none" stroke="#63b8ff" d="M531.4,-698.61C513.63,-689.46 495.23,-679.06 478.92,-668 388.79,-606.89 296.41,-517.18 250.54,-470.42"/>
<polygon fill="#63b8ff" stroke="#63b8ff" points="529.34,-701.49 539.84,-702.88 532.5,-695.24 529.34,-701.49"/>
</g>
<!-- Node10 -->
<g id="node10" class="node">
<title>Node10</title>
<g id="a_node10"><a xlink:href="../../d6/de1/point__rigid__contact__condition_8cpp.html" target="_top" xlink:title=" ">
<polygon fill="white" stroke="#666666" points="700.42,-668 521.42,-668 521.42,-605 700.42,-605 700.42,-668"/>
<text text-anchor="start" x="529.42" y="-656" font-family="Helvetica,sans-Serif" font-size="10.00">/software/kratos/doxygen</text>
<text text-anchor="start" x="529.42" y="-645" font-family="Helvetica,sans-Serif" font-size="10.00">/applications/ContactMechanics</text>
<text text-anchor="start" x="529.42" y="-634" font-family="Helvetica,sans-Serif" font-size="10.00">Application/custom_conditions</text>
<text text-anchor="start" x="529.42" y="-623" font-family="Helvetica,sans-Serif" font-size="10.00">/rigid_contact/point_rigid_contact</text>
<text text-anchor="middle" x="610.92" y="-612" font-family="Helvetica,sans-Serif" font-size="10.00">_condition.cpp</text>
</a>
</g>
</g>
<!-- Node1&#45;&gt;Node10 -->
<g id="edge12" class="edge">
<title>Node1&#45;&gt;Node10</title>
<path fill="none" stroke="#63b8ff" d="M610.92,-692.15C610.92,-684.2 610.92,-676.02 610.92,-668.5"/>
<polygon fill="#63b8ff" stroke="#63b8ff" points="607.42,-692.03 610.92,-702.03 614.42,-692.03 607.42,-692.03"/>
</g>
<!-- Node11 -->
<g id="node11" class="node">
<title>Node11</title>
<g id="a_node11"><a xlink:href="../../d8/d11/point__rigid__contact__penalty__3_d__condition_8hpp.html" target="_top" xlink:title=" ">
<polygon fill="white" stroke="#666666" points="897.42,-668 718.42,-668 718.42,-605 897.42,-605 897.42,-668"/>
<text text-anchor="start" x="726.42" y="-656" font-family="Helvetica,sans-Serif" font-size="10.00">/software/kratos/doxygen</text>
<text text-anchor="start" x="726.42" y="-645" font-family="Helvetica,sans-Serif" font-size="10.00">/applications/ContactMechanics</text>
<text text-anchor="start" x="726.42" y="-634" font-family="Helvetica,sans-Serif" font-size="10.00">Application/custom_conditions</text>
<text text-anchor="start" x="726.42" y="-623" font-family="Helvetica,sans-Serif" font-size="10.00">/rigid_contact/point_rigid_contact</text>
<text text-anchor="middle" x="807.92" y="-612" font-family="Helvetica,sans-Serif" font-size="10.00">_penalty_3D_condition.hpp</text>
</a>
</g>
</g>
<!-- Node1&#45;&gt;Node11 -->
<g id="edge13" class="edge">
<title>Node1&#45;&gt;Node11</title>
<path fill="none" stroke="#63b8ff" d="M684.1,-698.47C704.1,-688.62 725.59,-678.04 744.97,-668.5"/>
<polygon fill="#63b8ff" stroke="#63b8ff" points="682.58,-695.32 675.15,-702.87 685.67,-701.6 682.58,-695.32"/>
</g>
<!-- Node26 -->
<g id="node26" class="node">
<title>Node26</title>
<g id="a_node26"><a xlink:href="../../da/da1/rigid__body__point__rigid__contact__condition_8hpp.html" target="_top" xlink:title=" ">
<polygon fill="white" stroke="#666666" points="1154.42,-668 983.42,-668 983.42,-605 1154.42,-605 1154.42,-668"/>
<text text-anchor="start" x="991.42" y="-656" font-family="Helvetica,sans-Serif" font-size="10.00">/software/kratos/doxygen</text>
<text text-anchor="start" x="991.42" y="-645" font-family="Helvetica,sans-Serif" font-size="10.00">/applications/ContactMechanics</text>
<text text-anchor="start" x="991.42" y="-634" font-family="Helvetica,sans-Serif" font-size="10.00">Application/custom_conditions</text>
<text text-anchor="start" x="991.42" y="-623" font-family="Helvetica,sans-Serif" font-size="10.00">/rigid_contact/rigid_body_point</text>
<text text-anchor="middle" x="1068.92" y="-612" font-family="Helvetica,sans-Serif" font-size="10.00">_rigid_contact_condition.hpp</text>
</a>
</g>
</g>
<!-- Node1&#45;&gt;Node26 -->
<g id="edge41" class="edge">
<title>Node1&#45;&gt;Node26</title>
<path fill="none" stroke="#63b8ff" d="M712.11,-713.07C793.35,-695.86 906.18,-671.97 983.06,-655.68"/>
<polygon fill="#63b8ff" stroke="#63b8ff" points="711.4,-709.64 702.34,-715.14 712.85,-716.49 711.4,-709.64"/>
</g>
<!-- Node3 -->
<g id="node3" class="node">
<title>Node3</title>
<g id="a_node3"><a xlink:href="../../dd/dd1/contact__mechanics__application_8cpp.html" target="_top" xlink:title=" ">
<polygon fill="white" stroke="#666666" points="654.42,-145.5 483.42,-145.5 483.42,-93.5 654.42,-93.5 654.42,-145.5"/>
<text text-anchor="start" x="491.42" y="-133.5" font-family="Helvetica,sans-Serif" font-size="10.00">/software/kratos/doxygen</text>
<text text-anchor="start" x="491.42" y="-122.5" font-family="Helvetica,sans-Serif" font-size="10.00">/applications/ContactMechanics</text>
<text text-anchor="start" x="491.42" y="-111.5" font-family="Helvetica,sans-Serif" font-size="10.00">Application/contact_mechanics</text>
<text text-anchor="middle" x="568.92" y="-100.5" font-family="Helvetica,sans-Serif" font-size="10.00">_application.cpp</text>
</a>
</g>
</g>
<!-- Node2&#45;&gt;Node3 -->
<g id="edge2" class="edge">
<title>Node2&#45;&gt;Node3</title>
<path fill="none" stroke="#63b8ff" d="M568.92,-186.36C568.92,-172.96 568.92,-158.11 568.92,-145.9"/>
<polygon fill="#63b8ff" stroke="#63b8ff" points="565.42,-186.15 568.92,-196.15 572.42,-186.15 565.42,-186.15"/>
</g>
<!-- Node4&#45;&gt;Node2 -->
<g id="edge4" class="edge">
<title>Node4&#45;&gt;Node2</title>
<path fill="none" stroke="#63b8ff" d="M214.86,-395.38C212.88,-364.31 215.88,-323.07 239.92,-297 272.23,-261.97 396.77,-242.36 483,-232.73"/>
<polygon fill="#63b8ff" stroke="#63b8ff" points="211.36,-395.56 215.69,-405.22 218.33,-394.96 211.36,-395.56"/>
</g>
<!-- Node5 -->
<g id="node5" class="node">
<title>Node5</title>
<g id="a_node5"><a xlink:href="../../de/d75/hydraulic__axisym__rigid__contact__penalty__2_d__condition_8hpp.html" target="_top" xlink:title=" ">
<polygon fill="white" stroke="#666666" points="192.42,-371 21.42,-371 21.42,-297 192.42,-297 192.42,-371"/>
<text text-anchor="start" x="29.42" y="-359" font-family="Helvetica,sans-Serif" font-size="10.00">/software/kratos/doxygen</text>
<text text-anchor="start" x="29.42" y="-348" font-family="Helvetica,sans-Serif" font-size="10.00">/applications/ContactMechanics</text>
<text text-anchor="start" x="29.42" y="-337" font-family="Helvetica,sans-Serif" font-size="10.00">Application/custom_conditions</text>
<text text-anchor="start" x="29.42" y="-326" font-family="Helvetica,sans-Serif" font-size="10.00">/hydraulic_contact/hydraulic</text>
<text text-anchor="start" x="29.42" y="-315" font-family="Helvetica,sans-Serif" font-size="10.00">_axisym_rigid_contact_penalty</text>
<text text-anchor="middle" x="106.92" y="-304" font-family="Helvetica,sans-Serif" font-size="10.00">_2D_condition.hpp</text>
</a>
</g>
</g>
<!-- Node4&#45;&gt;Node5 -->
<g id="edge5" class="edge">
<title>Node4&#45;&gt;Node5</title>
<path fill="none" stroke="#63b8ff" d="M178.32,-399.2C168.1,-390.01 157.23,-380.23 147.12,-371.14"/>
<polygon fill="#63b8ff" stroke="#63b8ff" points="175.82,-401.65 185.59,-405.73 180.5,-396.45 175.82,-401.65"/>
</g>
<!-- Node7 -->
<g id="node7" class="node">
<title>Node7</title>
<g id="a_node7"><a xlink:href="../../de/d85/hm__parametric__wall__contact__search__process_8hpp.html" target="_top" xlink:title=" ">
<polygon fill="white" stroke="#666666" points="335.92,-151 137.92,-151 137.92,-88 335.92,-88 335.92,-151"/>
<text text-anchor="start" x="145.92" y="-139" font-family="Helvetica,sans-Serif" font-size="10.00">/software/kratos/doxygen</text>
<text text-anchor="start" x="145.92" y="-128" font-family="Helvetica,sans-Serif" font-size="10.00">/applications/ContactMechanics</text>
<text text-anchor="start" x="145.92" y="-117" font-family="Helvetica,sans-Serif" font-size="10.00">Application/custom_processes</text>
<text text-anchor="start" x="145.92" y="-106" font-family="Helvetica,sans-Serif" font-size="10.00">/hm_parametric_wall_contact_search</text>
<text text-anchor="middle" x="236.92" y="-95" font-family="Helvetica,sans-Serif" font-size="10.00">_process.hpp</text>
</a>
</g>
</g>
<!-- Node4&#45;&gt;Node7 -->
<g id="edge11" class="edge">
<title>Node4&#45;&gt;Node7</title>
<path fill="none" stroke="#63b8ff" d="M100.97,-425.98C66.73,-416.48 33.01,-399.84 11.92,-371 -7.49,-344.45 0.95,-328 11.92,-297 32.9,-237.72 51.73,-226.18 100.92,-187 118.29,-173.16 139.01,-161.21 158.98,-151.42"/>
<polygon fill="#63b8ff" stroke="#63b8ff" points="100.08,-429.36 110.63,-428.44 101.81,-422.58 100.08,-429.36"/>
</g>
<!-- Node9 -->
<g id="node9" class="node">
<title>Node9</title>
<g id="a_node9"><a xlink:href="../../d5/d9d/hydraulic__rigid__contact__penalty__3_d__condition_8cpp.html" target="_top" xlink:title=" ">
<polygon fill="white" stroke="#666666" points="464.92,-365.5 248.92,-365.5 248.92,-302.5 464.92,-302.5 464.92,-365.5"/>
<text text-anchor="start" x="256.92" y="-353.5" font-family="Helvetica,sans-Serif" font-size="10.00">/software/kratos/doxygen</text>
<text text-anchor="start" x="256.92" y="-342.5" font-family="Helvetica,sans-Serif" font-size="10.00">/applications/ContactMechanics</text>
<text text-anchor="start" x="256.92" y="-331.5" font-family="Helvetica,sans-Serif" font-size="10.00">Application/custom_conditions</text>
<text text-anchor="start" x="256.92" y="-320.5" font-family="Helvetica,sans-Serif" font-size="10.00">/hydraulic_contact/hydraulic</text>
<text text-anchor="middle" x="356.92" y="-309.5" font-family="Helvetica,sans-Serif" font-size="10.00">_rigid_contact_penalty_3D_condition.cpp</text>
</a>
</g>
</g>
<!-- Node4&#45;&gt;Node9 -->
<g id="edge10" class="edge">
<title>Node4&#45;&gt;Node9</title>
<path fill="none" stroke="#63b8ff" d="M270.82,-399.89C285.73,-388.65 301.89,-376.47 316.15,-365.73"/>
<polygon fill="#63b8ff" stroke="#63b8ff" points="268.81,-397.02 262.94,-405.84 273.03,-402.61 268.81,-397.02"/>
</g>
<!-- Node5&#45;&gt;Node2 -->
<g id="edge6" class="edge">
<title>Node5&#45;&gt;Node2</title>
<path fill="none" stroke="#63b8ff" d="M203.88,-297.86C204.9,-297.57 205.91,-297.28 206.92,-297 300.15,-271.1 409.34,-250.71 483.23,-238.33"/>
<polygon fill="#63b8ff" stroke="#63b8ff" points="202.88,-294.5 194.29,-300.72 204.88,-301.21 202.88,-294.5"/>
</g>
<!-- Node6 -->
<g id="node6" class="node">
<title>Node6</title>
<g id="a_node6"><a xlink:href="../../d8/df1/hydraulic__axisym__rigid__contact__penalty__2_d__condition_8cpp.html" target="_top" xlink:title=" ">
<polygon fill="white" stroke="#666666" points="306.42,-261 135.42,-261 135.42,-187 306.42,-187 306.42,-261"/>
<text text-anchor="start" x="143.42" y="-249" font-family="Helvetica,sans-Serif" font-size="10.00">/software/kratos/doxygen</text>
<text text-anchor="start" x="143.42" y="-238" font-family="Helvetica,sans-Serif" font-size="10.00">/applications/ContactMechanics</text>
<text text-anchor="start" x="143.42" y="-227" font-family="Helvetica,sans-Serif" font-size="10.00">Application/custom_conditions</text>
<text text-anchor="start" x="143.42" y="-216" font-family="Helvetica,sans-Serif" font-size="10.00">/hydraulic_contact/hydraulic</text>
<text text-anchor="start" x="143.42" y="-205" font-family="Helvetica,sans-Serif" font-size="10.00">_axisym_rigid_contact_penalty</text>
<text text-anchor="middle" x="220.92" y="-194" font-family="Helvetica,sans-Serif" font-size="10.00">_2D_condition.cpp</text>
</a>
</g>
</g>
<!-- Node5&#45;&gt;Node6 -->
<g id="edge7" class="edge">
<title>Node5&#45;&gt;Node6</title>
<path fill="none" stroke="#63b8ff" d="M153.54,-288.83C163.19,-279.7 173.24,-270.17 182.55,-261.35"/>
<polygon fill="#63b8ff" stroke="#63b8ff" points="151.15,-286.28 146.3,-295.7 155.96,-291.36 151.15,-286.28"/>
</g>
<!-- Node5&#45;&gt;Node7 -->
<g id="edge8" class="edge">
<title>Node5&#45;&gt;Node7</title>
<path fill="none" stroke="#63b8ff" d="M102.97,-285.48C102.74,-255.01 106.97,-215.91 125.92,-187 135.4,-172.53 149.23,-160.75 163.92,-151.35"/>
<polygon fill="#63b8ff" stroke="#63b8ff" points="99.46,-285.27 103.21,-295.18 106.46,-285.09 99.46,-285.27"/>
</g>
<!-- Node8 -->
<g id="node8" class="node">
<title>Node8</title>
<g id="a_node8"><a xlink:href="../../da/d3b/_contact_mechanics_application_2custom__python_2add__custom__processes__to__python_8cpp.html" target="_top" xlink:title=" ">
<polygon fill="white" stroke="#666666" points="487.92,-52 301.92,-52 301.92,0 487.92,0 487.92,-52"/>
<text text-anchor="start" x="309.92" y="-40" font-family="Helvetica,sans-Serif" font-size="10.00">/software/kratos/doxygen</text>
<text text-anchor="start" x="309.92" y="-29" font-family="Helvetica,sans-Serif" font-size="10.00">/applications/ContactMechanics</text>
<text text-anchor="start" x="309.92" y="-18" font-family="Helvetica,sans-Serif" font-size="10.00">Application/custom_python/add</text>
<text text-anchor="middle" x="394.92" y="-7" font-family="Helvetica,sans-Serif" font-size="10.00">_custom_processes_to_python.cpp</text>
</a>
</g>
</g>
<!-- Node7&#45;&gt;Node8 -->
<g id="edge9" class="edge">
<title>Node7&#45;&gt;Node8</title>
<path fill="none" stroke="#63b8ff" d="M300.27,-81.81C317.26,-71.97 335.25,-61.56 350.94,-52.47"/>
<polygon fill="#63b8ff" stroke="#63b8ff" points="298.62,-78.72 291.72,-86.76 302.13,-84.78 298.62,-78.72"/>
</g>
<!-- Node11&#45;&gt;Node2 -->
<g id="edge14" class="edge">
<title>Node11&#45;&gt;Node2</title>
<path fill="none" stroke="#63b8ff" d="M707.73,-600.34C651.01,-574.28 585.95,-532.35 557.92,-470 526.36,-399.77 538.52,-373.29 548.92,-297 551.08,-281.19 555.78,-263.95 560.08,-250.31"/>
<polygon fill="#63b8ff" stroke="#63b8ff" points="706.28,-603.52 716.83,-604.4 709.13,-597.13 706.28,-603.52"/>
</g>
<!-- Node12 -->
<g id="node12" class="node">
<title>Node12</title>
<g id="a_node12"><a xlink:href="../../d2/d30/_e_p__point__rigid__contact__penalty__3_d__condition_8hpp.html" target="_top" xlink:title=" ">
<polygon fill="white" stroke="#666666" points="849.92,-569 659.92,-569 659.92,-506 849.92,-506 849.92,-569"/>
<text text-anchor="start" x="667.92" y="-557" font-family="Helvetica,sans-Serif" font-size="10.00">/software/kratos/doxygen</text>
<text text-anchor="start" x="667.92" y="-546" font-family="Helvetica,sans-Serif" font-size="10.00">/applications/ContactMechanics</text>
<text text-anchor="start" x="667.92" y="-535" font-family="Helvetica,sans-Serif" font-size="10.00">Application/custom_conditions</text>
<text text-anchor="start" x="667.92" y="-524" font-family="Helvetica,sans-Serif" font-size="10.00">/rigid_contact/EP_point_rigid</text>
<text text-anchor="middle" x="754.92" y="-513" font-family="Helvetica,sans-Serif" font-size="10.00">_contact_penalty_3D_condition.hpp</text>
</a>
</g>
</g>
<!-- Node11&#45;&gt;Node12 -->
<g id="edge15" class="edge">
<title>Node11&#45;&gt;Node12</title>
<path fill="none" stroke="#63b8ff" d="M785.54,-594.54C780.96,-586.15 776.21,-577.46 771.86,-569.5"/>
<polygon fill="#63b8ff" stroke="#63b8ff" points="782.41,-596.12 790.28,-603.21 788.56,-592.76 782.41,-596.12"/>
</g>
<!-- Node21 -->
<g id="node21" class="node">
<title>Node21</title>
<g id="a_node21"><a xlink:href="../../de/d9b/point__rigid__contact__penalty__2_d__condition_8hpp.html" target="_top" xlink:title=" ">
<polygon fill="white" stroke="#666666" points="1638.42,-470 1459.42,-470 1459.42,-407 1638.42,-407 1638.42,-470"/>
<text text-anchor="start" x="1467.42" y="-458" font-family="Helvetica,sans-Serif" font-size="10.00">/software/kratos/doxygen</text>
<text text-anchor="start" x="1467.42" y="-447" font-family="Helvetica,sans-Serif" font-size="10.00">/applications/ContactMechanics</text>
<text text-anchor="start" x="1467.42" y="-436" font-family="Helvetica,sans-Serif" font-size="10.00">Application/custom_conditions</text>
<text text-anchor="start" x="1467.42" y="-425" font-family="Helvetica,sans-Serif" font-size="10.00">/rigid_contact/point_rigid_contact</text>
<text text-anchor="middle" x="1548.92" y="-414" font-family="Helvetica,sans-Serif" font-size="10.00">_penalty_2D_condition.hpp</text>
</a>
</g>
</g>
<!-- Node11&#45;&gt;Node21 -->
<g id="edge32" class="edge">
<title>Node11&#45;&gt;Node21</title>
<path fill="none" stroke="#63b8ff" d="M908.98,-616.4C967.06,-603.92 1033.09,-586.7 1056.92,-569 1083.36,-549.37 1068.01,-523.48 1095.92,-506 1161.99,-464.61 1368.42,-485.03 1444.92,-470 1449.54,-469.09 1454.24,-468.07 1458.98,-466.97"/>
<polygon fill="#63b8ff" stroke="#63b8ff" points="908.41,-612.94 899.35,-618.44 909.86,-619.79 908.41,-612.94"/>
</g>
<!-- Node25 -->
<g id="node25" class="node">
<title>Node25</title>
<g id="a_node25"><a xlink:href="../../db/d3f/point__rigid__contact__penalty__3_d__condition_8cpp.html" target="_top" xlink:title=" ">
<polygon fill="white" stroke="#666666" points="1047.42,-569 868.42,-569 868.42,-506 1047.42,-506 1047.42,-569"/>
<text text-anchor="start" x="876.42" y="-557" font-family="Helvetica,sans-Serif" font-size="10.00">/software/kratos/doxygen</text>
<text text-anchor="start" x="876.42" y="-546" font-family="Helvetica,sans-Serif" font-size="10.00">/applications/ContactMechanics</text>
<text text-anchor="start" x="876.42" y="-535" font-family="Helvetica,sans-Serif" font-size="10.00">Application/custom_conditions</text>
<text text-anchor="start" x="876.42" y="-524" font-family="Helvetica,sans-Serif" font-size="10.00">/rigid_contact/point_rigid_contact</text>
<text text-anchor="middle" x="957.92" y="-513" font-family="Helvetica,sans-Serif" font-size="10.00">_penalty_3D_condition.cpp</text>
</a>
</g>
</g>
<!-- Node11&#45;&gt;Node25 -->
<g id="edge40" class="edge">
<title>Node11&#45;&gt;Node25</title>
<path fill="none" stroke="#63b8ff" d="M865.32,-598.38C880.07,-588.85 895.78,-578.69 909.99,-569.5"/>
<polygon fill="#63b8ff" stroke="#63b8ff" points="863.56,-595.35 857.07,-603.72 867.36,-601.23 863.56,-595.35"/>
</g>
<!-- Node12&#45;&gt;Node2 -->
<g id="edge16" class="edge">
<title>Node12&#45;&gt;Node2</title>
<path fill="none" stroke="#63b8ff" d="M648.89,-514C625.76,-504.2 603.79,-490.15 588.92,-470 540.02,-403.72 553.49,-298.13 563.08,-250.17"/>
<polygon fill="#63b8ff" stroke="#63b8ff" points="647.58,-517.25 658.17,-517.66 650.14,-510.73 647.58,-517.25"/>
</g>
<!-- Node13 -->
<g id="node13" class="node">
<title>Node13</title>
<g id="a_node13"><a xlink:href="../../de/d89/_e_p__point__rigid__contact__penalty__2_d__condition_8hpp.html" target="_top" xlink:title=" ">
<polygon fill="white" stroke="#666666" points="1221.92,-470 1031.92,-470 1031.92,-407 1221.92,-407 1221.92,-470"/>
<text text-anchor="start" x="1039.92" y="-458" font-family="Helvetica,sans-Serif" font-size="10.00">/software/kratos/doxygen</text>
<text text-anchor="start" x="1039.92" y="-447" font-family="Helvetica,sans-Serif" font-size="10.00">/applications/ContactMechanics</text>
<text text-anchor="start" x="1039.92" y="-436" font-family="Helvetica,sans-Serif" font-size="10.00">Application/custom_conditions</text>
<text text-anchor="start" x="1039.92" y="-425" font-family="Helvetica,sans-Serif" font-size="10.00">/rigid_contact/EP_point_rigid</text>
<text text-anchor="middle" x="1126.92" y="-414" font-family="Helvetica,sans-Serif" font-size="10.00">_contact_penalty_2D_condition.hpp</text>
</a>
</g>
</g>
<!-- Node12&#45;&gt;Node13 -->
<g id="edge17" class="edge">
<title>Node12&#45;&gt;Node13</title>
<path fill="none" stroke="#63b8ff" d="M861.47,-505.68C933.73,-487.68 954.43,-487.58 1022.92,-470 1025.75,-469.27 1028.61,-468.53 1031.5,-467.76"/>
<polygon fill="#63b8ff" stroke="#63b8ff" points="860.72,-502.26 851.89,-508.1 862.44,-509.05 860.72,-502.26"/>
</g>
<!-- Node16 -->
<g id="node16" class="node">
<title>Node16</title>
<g id="a_node16"><a xlink:href="../../da/d1b/parametric__wall__contact__search__process_8hpp.html" target="_top" xlink:title=" ">
<polygon fill="white" stroke="#666666" points="1481.42,-255.5 1304.42,-255.5 1304.42,-192.5 1481.42,-192.5 1481.42,-255.5"/>
<text text-anchor="start" x="1312.42" y="-243.5" font-family="Helvetica,sans-Serif" font-size="10.00">/software/kratos/doxygen</text>
<text text-anchor="start" x="1312.42" y="-232.5" font-family="Helvetica,sans-Serif" font-size="10.00">/applications/ContactMechanics</text>
<text text-anchor="start" x="1312.42" y="-221.5" font-family="Helvetica,sans-Serif" font-size="10.00">Application/custom_processes</text>
<text text-anchor="start" x="1312.42" y="-210.5" font-family="Helvetica,sans-Serif" font-size="10.00">/parametric_wall_contact_search</text>
<text text-anchor="middle" x="1392.92" y="-199.5" font-family="Helvetica,sans-Serif" font-size="10.00">_process.hpp</text>
</a>
</g>
</g>
<!-- Node12&#45;&gt;Node16 -->
<g id="edge31" class="edge">
<title>Node12&#45;&gt;Node16</title>
<path fill="none" stroke="#63b8ff" d="M861.25,-505.95C1024.85,-476.74 1076.97,-520.77 1230.92,-470 1312.14,-443.21 1353.79,-445.42 1395.92,-371 1416.03,-335.48 1409.66,-286.89 1402.16,-255.72"/>
<polygon fill="#63b8ff" stroke="#63b8ff" points="860.99,-502.43 851.8,-507.7 862.27,-509.32 860.99,-502.43"/>
</g>
<!-- Node18 -->
<g id="node18" class="node">
<title>Node18</title>
<g id="a_node18"><a xlink:href="../../d2/d4f/_e_p__point__rigid__contact__penalty__3_d__condition_8cpp.html" target="_top" xlink:title=" ">
<polygon fill="white" stroke="#666666" points="1013.42,-470 824.42,-470 824.42,-407 1013.42,-407 1013.42,-470"/>
<text text-anchor="start" x="832.42" y="-458" font-family="Helvetica,sans-Serif" font-size="10.00">/software/kratos/doxygen</text>
<text text-anchor="start" x="832.42" y="-447" font-family="Helvetica,sans-Serif" font-size="10.00">/applications/ContactMechanics</text>
<text text-anchor="start" x="832.42" y="-436" font-family="Helvetica,sans-Serif" font-size="10.00">Application/custom_conditions</text>
<text text-anchor="start" x="832.42" y="-425" font-family="Helvetica,sans-Serif" font-size="10.00">/rigid_contact/EP_point_rigid</text>
<text text-anchor="middle" x="918.92" y="-414" font-family="Helvetica,sans-Serif" font-size="10.00">_contact_penalty_3D_condition.cpp</text>
</a>
</g>
</g>
<!-- Node12&#45;&gt;Node18 -->
<g id="edge27" class="edge">
<title>Node12&#45;&gt;Node18</title>
<path fill="none" stroke="#63b8ff" d="M816.76,-499.93C833.15,-490.23 850.68,-479.86 866.52,-470.5"/>
<polygon fill="#63b8ff" stroke="#63b8ff" points="815.39,-496.67 808.57,-504.77 818.96,-502.69 815.39,-496.67"/>
</g>
<!-- Node19 -->
<g id="node19" class="node">
<title>Node19</title>
<g id="a_node19"><a xlink:href="../../da/d78/_e_p__point__rigid__contact__penalty__w_p__3_d__condition_8hpp.html" target="_top" xlink:title=" ">
<polygon fill="white" stroke="#666666" points="806.42,-470 597.42,-470 597.42,-407 806.42,-407 806.42,-470"/>
<text text-anchor="start" x="605.42" y="-458" font-family="Helvetica,sans-Serif" font-size="10.00">/software/kratos/doxygen</text>
<text text-anchor="start" x="605.42" y="-447" font-family="Helvetica,sans-Serif" font-size="10.00">/applications/ContactMechanics</text>
<text text-anchor="start" x="605.42" y="-436" font-family="Helvetica,sans-Serif" font-size="10.00">Application/custom_conditions</text>
<text text-anchor="start" x="605.42" y="-425" font-family="Helvetica,sans-Serif" font-size="10.00">/rigid_contact/EP_point_rigid</text>
<text text-anchor="middle" x="701.92" y="-414" font-family="Helvetica,sans-Serif" font-size="10.00">_contact_penalty_wP_3D_condition.hpp</text>
</a>
</g>
</g>
<!-- Node12&#45;&gt;Node19 -->
<g id="edge28" class="edge">
<title>Node12&#45;&gt;Node19</title>
<path fill="none" stroke="#63b8ff" d="M732.54,-495.54C727.96,-487.15 723.21,-478.46 718.86,-470.5"/>
<polygon fill="#63b8ff" stroke="#63b8ff" points="729.41,-497.12 737.28,-504.21 735.56,-493.76 729.41,-497.12"/>
</g>
<!-- Node13&#45;&gt;Node2 -->
<g id="edge18" class="edge">
<title>Node13&#45;&gt;Node2</title>
<path fill="none" stroke="#63b8ff" d="M1020.67,-406.68C945.87,-390.69 913.05,-415.05 854.92,-371 825.29,-348.55 844.72,-320.51 815.92,-297 770.34,-259.78 706.25,-241.8 654.78,-233.12"/>
<polygon fill="#63b8ff" stroke="#63b8ff" points="1019.5,-410 1030.03,-408.87 1021.09,-403.19 1019.5,-410"/>
</g>
<!-- Node14 -->
<g id="node14" class="node">
<title>Node14</title>
<g id="a_node14"><a xlink:href="../../db/d5f/_e_p__axisym__point__rigid__contact__penalty__2_d__condition_8hpp.html" target="_top" xlink:title=" ">
<polygon fill="white" stroke="#666666" points="1326.42,-365.5 1109.42,-365.5 1109.42,-302.5 1326.42,-302.5 1326.42,-365.5"/>
<text text-anchor="start" x="1117.42" y="-353.5" font-family="Helvetica,sans-Serif" font-size="10.00">/software/kratos/doxygen</text>
<text text-anchor="start" x="1117.42" y="-342.5" font-family="Helvetica,sans-Serif" font-size="10.00">/applications/ContactMechanics</text>
<text text-anchor="start" x="1117.42" y="-331.5" font-family="Helvetica,sans-Serif" font-size="10.00">Application/custom_conditions</text>
<text text-anchor="start" x="1117.42" y="-320.5" font-family="Helvetica,sans-Serif" font-size="10.00">/rigid_contact/EP_axisym_point</text>
<text text-anchor="middle" x="1217.92" y="-309.5" font-family="Helvetica,sans-Serif" font-size="10.00">_rigid_contact_penalty_2D_condition.hpp</text>
</a>
</g>
</g>
<!-- Node13&#45;&gt;Node14 -->
<g id="edge19" class="edge">
<title>Node13&#45;&gt;Node14</title>
<path fill="none" stroke="#63b8ff" d="M1161.73,-398.3C1171.3,-387.51 1181.55,-375.97 1190.64,-365.73"/>
<polygon fill="#63b8ff" stroke="#63b8ff" points="1159.25,-395.81 1155.23,-405.61 1164.49,-400.46 1159.25,-395.81"/>
</g>
<!-- Node13&#45;&gt;Node16 -->
<g id="edge26" class="edge">
<title>Node13&#45;&gt;Node16</title>
<path fill="none" stroke="#63b8ff" d="M1233.36,-419.91C1289.35,-408.47 1350.2,-391.8 1368.92,-371 1397.1,-339.69 1399.03,-288.57 1396.77,-255.88"/>
<polygon fill="#63b8ff" stroke="#63b8ff" points="1232.84,-416.45 1223.72,-421.84 1234.21,-423.31 1232.84,-416.45"/>
</g>
<!-- Node17 -->
<g id="node17" class="node">
<title>Node17</title>
<g id="a_node17"><a xlink:href="../../dd/d17/_e_p__point__rigid__contact__penalty__2_d__condition_8cpp.html" target="_top" xlink:title=" ">
<polygon fill="white" stroke="#666666" points="1052.42,-365.5 863.42,-365.5 863.42,-302.5 1052.42,-302.5 1052.42,-365.5"/>
<text text-anchor="start" x="871.42" y="-353.5" font-family="Helvetica,sans-Serif" font-size="10.00">/software/kratos/doxygen</text>
<text text-anchor="start" x="871.42" y="-342.5" font-family="Helvetica,sans-Serif" font-size="10.00">/applications/ContactMechanics</text>
<text text-anchor="start" x="871.42" y="-331.5" font-family="Helvetica,sans-Serif" font-size="10.00">Application/custom_conditions</text>
<text text-anchor="start" x="871.42" y="-320.5" font-family="Helvetica,sans-Serif" font-size="10.00">/rigid_contact/EP_point_rigid</text>
<text text-anchor="middle" x="957.92" y="-309.5" font-family="Helvetica,sans-Serif" font-size="10.00">_contact_penalty_2D_condition.cpp</text>
</a>
</g>
</g>
<!-- Node13&#45;&gt;Node17 -->
<g id="edge25" class="edge">
<title>Node13&#45;&gt;Node17</title>
<path fill="none" stroke="#63b8ff" d="M1066.53,-400.87C1047.66,-389.43 1027.04,-376.92 1008.88,-365.91"/>
<polygon fill="#63b8ff" stroke="#63b8ff" points="1064.56,-403.77 1074.92,-405.96 1068.19,-397.78 1064.56,-403.77"/>
</g>
<!-- Node14&#45;&gt;Node2 -->
<g id="edge20" class="edge">
<title>Node14&#45;&gt;Node2</title>
<path fill="none" stroke="#63b8ff" d="M1105.65,-299.4C1102.04,-298.56 1098.46,-297.76 1094.92,-297 941.46,-264.23 759.48,-243.2 654.78,-232.79"/>
<polygon fill="#63b8ff" stroke="#63b8ff" points="1104.52,-302.73 1115.07,-301.69 1106.17,-295.93 1104.52,-302.73"/>
</g>
<!-- Node15 -->
<g id="node15" class="node">
<title>Node15</title>
<g id="a_node15"><a xlink:href="../../dc/d3f/_e_p__axisym__point__rigid__contact__penalty__2_d__condition_8cpp.html" target="_top" xlink:title=" ">
<polygon fill="white" stroke="#666666" points="1285.92,-255.5 1069.92,-255.5 1069.92,-192.5 1285.92,-192.5 1285.92,-255.5"/>
<text text-anchor="start" x="1077.92" y="-243.5" font-family="Helvetica,sans-Serif" font-size="10.00">/software/kratos/doxygen</text>
<text text-anchor="start" x="1077.92" y="-232.5" font-family="Helvetica,sans-Serif" font-size="10.00">/applications/ContactMechanics</text>
<text text-anchor="start" x="1077.92" y="-221.5" font-family="Helvetica,sans-Serif" font-size="10.00">Application/custom_conditions</text>
<text text-anchor="start" x="1077.92" y="-210.5" font-family="Helvetica,sans-Serif" font-size="10.00">/rigid_contact/EP_axisym_point</text>
<text text-anchor="middle" x="1177.92" y="-199.5" font-family="Helvetica,sans-Serif" font-size="10.00">_rigid_contact_penalty_2D_condition.cpp</text>
</a>
</g>
</g>
<!-- Node14&#45;&gt;Node15 -->
<g id="edge21" class="edge">
<title>Node14&#45;&gt;Node15</title>
<path fill="none" stroke="#63b8ff" d="M1202.55,-291.51C1198.18,-279.69 1193.49,-267.03 1189.39,-255.95"/>
<polygon fill="#63b8ff" stroke="#63b8ff" points="1199.18,-292.47 1205.93,-300.63 1205.74,-290.04 1199.18,-292.47"/>
</g>
<!-- Node14&#45;&gt;Node16 -->
<g id="edge22" class="edge">
<title>Node14&#45;&gt;Node16</title>
<path fill="none" stroke="#63b8ff" d="M1277.62,-296.16C1298.82,-283.08 1322.45,-268.49 1342.77,-255.95"/>
<polygon fill="#63b8ff" stroke="#63b8ff" points="1276.03,-293.03 1269.36,-301.26 1279.71,-298.98 1276.03,-293.03"/>
</g>
<!-- Node16&#45;&gt;Node7 -->
<g id="edge23" class="edge">
<title>Node16&#45;&gt;Node7</title>
<path fill="none" stroke="#63b8ff" d="M1304.06,-189.04C1300.99,-188.29 1297.94,-187.61 1294.92,-187 936.81,-115.18 837.81,-182.34 473.92,-151 428.56,-147.09 378.53,-140.93 336.18,-135.16"/>
<polygon fill="#63b8ff" stroke="#63b8ff" points="1303.15,-192.42 1313.72,-191.62 1304.96,-185.66 1303.15,-192.42"/>
</g>
<!-- Node16&#45;&gt;Node8 -->
<g id="edge24" class="edge">
<title>Node16&#45;&gt;Node8</title>
<path fill="none" stroke="#63b8ff" d="M1301,-188.7C1298.96,-188.11 1296.93,-187.54 1294.92,-187 1005.56,-108.79 653.27,-58.89 488.42,-38.1"/>
<polygon fill="#63b8ff" stroke="#63b8ff" points="1299.96,-192.04 1310.54,-191.59 1301.99,-185.34 1299.96,-192.04"/>
</g>
<!-- Node19&#45;&gt;Node16 -->
<g id="edge30" class="edge">
<title>Node19&#45;&gt;Node16</title>
<path fill="none" stroke="#63b8ff" d="M818.01,-407.22C910.48,-398.1 1291.4,-403.73 1335.92,-371 1345.65,-363.85 1369.29,-296.43 1382.87,-255.75"/>
<polygon fill="#63b8ff" stroke="#63b8ff" points="817.72,-403.73 808.24,-408.46 818.6,-410.68 817.72,-403.73"/>
</g>
<!-- Node20 -->
<g id="node20" class="node">
<title>Node20</title>
<g id="a_node20"><a xlink:href="../../d8/d07/_e_p__point__rigid__contact__penalty__w_p__3_d__condition_8cpp.html" target="_top" xlink:title=" ">
<polygon fill="white" stroke="#666666" points="806.42,-365.5 597.42,-365.5 597.42,-302.5 806.42,-302.5 806.42,-365.5"/>
<text text-anchor="start" x="605.42" y="-353.5" font-family="Helvetica,sans-Serif" font-size="10.00">/software/kratos/doxygen</text>
<text text-anchor="start" x="605.42" y="-342.5" font-family="Helvetica,sans-Serif" font-size="10.00">/applications/ContactMechanics</text>
<text text-anchor="start" x="605.42" y="-331.5" font-family="Helvetica,sans-Serif" font-size="10.00">Application/custom_conditions</text>
<text text-anchor="start" x="605.42" y="-320.5" font-family="Helvetica,sans-Serif" font-size="10.00">/rigid_contact/EP_point_rigid</text>
<text text-anchor="middle" x="701.92" y="-309.5" font-family="Helvetica,sans-Serif" font-size="10.00">_contact_penalty_wP_3D_condition.cpp</text>
</a>
</g>
</g>
<!-- Node19&#45;&gt;Node20 -->
<g id="edge29" class="edge">
<title>Node19&#45;&gt;Node20</title>
<path fill="none" stroke="#63b8ff" d="M701.92,-395.4C701.92,-385.46 701.92,-375.05 701.92,-365.73"/>
<polygon fill="#63b8ff" stroke="#63b8ff" points="698.42,-395.23 701.92,-405.23 705.42,-395.23 698.42,-395.23"/>
</g>
<!-- Node21&#45;&gt;Node2 -->
<g id="edge33" class="edge">
<title>Node21&#45;&gt;Node2</title>
<path fill="none" stroke="#63b8ff" d="M1447.65,-427.34C1324.27,-414.21 1128.72,-390.7 1100.92,-371 1070.59,-349.5 1092.28,-318.46 1061.92,-297 998.05,-251.84 778.33,-234.55 654.87,-228.3"/>
<polygon fill="#63b8ff" stroke="#63b8ff" points="1447.17,-430.81 1457.49,-428.38 1447.91,-423.85 1447.17,-430.81"/>
</g>
<!-- Node21&#45;&gt;Node16 -->
<g id="edge39" class="edge">
<title>Node21&#45;&gt;Node16</title>
<path fill="none" stroke="#63b8ff" d="M1649.74,-429.15C1729.01,-420.24 1830.21,-402.88 1855.92,-371 1876.57,-345.4 1877.32,-321.98 1855.92,-297 1849.85,-289.91 1614.6,-255.99 1481.83,-237.35"/>
<polygon fill="#63b8ff" stroke="#63b8ff" points="1649.77,-425.62 1640.21,-430.18 1650.53,-432.58 1649.77,-425.62"/>
</g>
<!-- Node22 -->
<g id="node22" class="node">
<title>Node22</title>
<g id="a_node22"><a xlink:href="../../d0/d82/axisym__point__rigid__contact__penalty__2_d__condition_8hpp.html" target="_top" xlink:title=" ">
<polygon fill="white" stroke="#666666" points="1846.92,-365.5 1656.92,-365.5 1656.92,-302.5 1846.92,-302.5 1846.92,-365.5"/>
<text text-anchor="start" x="1664.92" y="-353.5" font-family="Helvetica,sans-Serif" font-size="10.00">/software/kratos/doxygen</text>
<text text-anchor="start" x="1664.92" y="-342.5" font-family="Helvetica,sans-Serif" font-size="10.00">/applications/ContactMechanics</text>
<text text-anchor="start" x="1664.92" y="-331.5" font-family="Helvetica,sans-Serif" font-size="10.00">Application/custom_conditions</text>
<text text-anchor="start" x="1664.92" y="-320.5" font-family="Helvetica,sans-Serif" font-size="10.00">/rigid_contact/axisym_point_rigid</text>
<text text-anchor="middle" x="1751.92" y="-309.5" font-family="Helvetica,sans-Serif" font-size="10.00">_contact_penalty_2D_condition.hpp</text>
</a>
</g>
</g>
<!-- Node21&#45;&gt;Node22 -->
<g id="edge34" class="edge">
<title>Node21&#45;&gt;Node22</title>
<path fill="none" stroke="#63b8ff" d="M1620.18,-401.52C1643.24,-389.87 1668.61,-377.07 1690.87,-365.83"/>
<polygon fill="#63b8ff" stroke="#63b8ff" points="1618.8,-398.29 1611.45,-405.93 1621.96,-404.54 1618.8,-398.29"/>
</g>
<!-- Node24 -->
<g id="node24" class="node">
<title>Node24</title>
<g id="a_node24"><a xlink:href="../../d1/df6/point__rigid__contact__penalty__2_d__condition_8cpp.html" target="_top" xlink:title=" ">
<polygon fill="white" stroke="#666666" points="1638.42,-365.5 1459.42,-365.5 1459.42,-302.5 1638.42,-302.5 1638.42,-365.5"/>
<text text-anchor="start" x="1467.42" y="-353.5" font-family="Helvetica,sans-Serif" font-size="10.00">/software/kratos/doxygen</text>
<text text-anchor="start" x="1467.42" y="-342.5" font-family="Helvetica,sans-Serif" font-size="10.00">/applications/ContactMechanics</text>
<text text-anchor="start" x="1467.42" y="-331.5" font-family="Helvetica,sans-Serif" font-size="10.00">Application/custom_conditions</text>
<text text-anchor="start" x="1467.42" y="-320.5" font-family="Helvetica,sans-Serif" font-size="10.00">/rigid_contact/point_rigid_contact</text>
<text text-anchor="middle" x="1548.92" y="-309.5" font-family="Helvetica,sans-Serif" font-size="10.00">_penalty_2D_condition.cpp</text>
</a>
</g>
</g>
<!-- Node21&#45;&gt;Node24 -->
<g id="edge38" class="edge">
<title>Node21&#45;&gt;Node24</title>
<path fill="none" stroke="#63b8ff" d="M1548.92,-395.4C1548.92,-385.46 1548.92,-375.05 1548.92,-365.73"/>
<polygon fill="#63b8ff" stroke="#63b8ff" points="1545.42,-395.23 1548.92,-405.23 1552.42,-395.23 1545.42,-395.23"/>
</g>
<!-- Node22&#45;&gt;Node2 -->
<g id="edge35" class="edge">
<title>Node22&#45;&gt;Node2</title>
<path fill="none" stroke="#63b8ff" d="M1657.63,-299.13C1654.37,-298.36 1651.13,-297.64 1647.92,-297 1391.61,-245.78 1321.71,-278.54 1060.92,-261 918.43,-251.42 752.82,-239.04 654.67,-231.58"/>
<polygon fill="#63b8ff" stroke="#63b8ff" points="1656.72,-302.52 1667.28,-301.62 1658.47,-295.74 1656.72,-302.52"/>
</g>
<!-- Node22&#45;&gt;Node16 -->
<g id="edge37" class="edge">
<title>Node22&#45;&gt;Node16</title>
<path fill="none" stroke="#63b8ff" d="M1652.74,-298.52C1651.12,-298.01 1649.52,-297.5 1647.92,-297 1593.06,-279.78 1530.98,-262.21 1481.81,-248.73"/>
<polygon fill="#63b8ff" stroke="#63b8ff" points="1651.5,-301.8 1662.09,-301.55 1653.65,-295.14 1651.5,-301.8"/>
</g>
<!-- Node23 -->
<g id="node23" class="node">
<title>Node23</title>
<g id="a_node23"><a xlink:href="../../d0/d13/axisym__point__rigid__contact__penalty__2_d__condition_8cpp.html" target="_top" xlink:title=" ">
<polygon fill="white" stroke="#666666" points="1846.42,-255.5 1657.42,-255.5 1657.42,-192.5 1846.42,-192.5 1846.42,-255.5"/>
<text text-anchor="start" x="1665.42" y="-243.5" font-family="Helvetica,sans-Serif" font-size="10.00">/software/kratos/doxygen</text>
<text text-anchor="start" x="1665.42" y="-232.5" font-family="Helvetica,sans-Serif" font-size="10.00">/applications/ContactMechanics</text>
<text text-anchor="start" x="1665.42" y="-221.5" font-family="Helvetica,sans-Serif" font-size="10.00">Application/custom_conditions</text>
<text text-anchor="start" x="1665.42" y="-210.5" font-family="Helvetica,sans-Serif" font-size="10.00">/rigid_contact/axisym_point_rigid</text>
<text text-anchor="middle" x="1751.92" y="-199.5" font-family="Helvetica,sans-Serif" font-size="10.00">_contact_penalty_2D_condition.cpp</text>
</a>
</g>
</g>
<!-- Node22&#45;&gt;Node23 -->
<g id="edge36" class="edge">
<title>Node22&#45;&gt;Node23</title>
<path fill="none" stroke="#63b8ff" d="M1751.92,-290.78C1751.92,-279.17 1751.92,-266.8 1751.92,-255.95"/>
<polygon fill="#63b8ff" stroke="#63b8ff" points="1748.42,-290.54 1751.92,-300.54 1755.42,-290.54 1748.42,-290.54"/>
</g>
<!-- Node27 -->
<g id="node27" class="node">
<title>Node27</title>
<g id="a_node27"><a xlink:href="../../d7/d04/rigid__body__point__rigid__contact__condition_8cpp.html" target="_top" xlink:title=" ">
<polygon fill="white" stroke="#666666" points="1275.42,-569 1104.42,-569 1104.42,-506 1275.42,-506 1275.42,-569"/>
<text text-anchor="start" x="1112.42" y="-557" font-family="Helvetica,sans-Serif" font-size="10.00">/software/kratos/doxygen</text>
<text text-anchor="start" x="1112.42" y="-546" font-family="Helvetica,sans-Serif" font-size="10.00">/applications/ContactMechanics</text>
<text text-anchor="start" x="1112.42" y="-535" font-family="Helvetica,sans-Serif" font-size="10.00">Application/custom_conditions</text>
<text text-anchor="start" x="1112.42" y="-524" font-family="Helvetica,sans-Serif" font-size="10.00">/rigid_contact/rigid_body_point</text>
<text text-anchor="middle" x="1189.92" y="-513" font-family="Helvetica,sans-Serif" font-size="10.00">_rigid_contact_condition.cpp</text>
</a>
</g>
</g>
<!-- Node26&#45;&gt;Node27 -->
<g id="edge42" class="edge">
<title>Node26&#45;&gt;Node27</title>
<path fill="none" stroke="#63b8ff" d="M1116.25,-597.56C1127.84,-588.27 1140.12,-578.42 1151.26,-569.5"/>
<polygon fill="#63b8ff" stroke="#63b8ff" points="1114.33,-594.61 1108.72,-603.6 1118.71,-600.07 1114.33,-594.61"/>
</g>
</g>
</svg>
