<?xml version="1.0" encoding="UTF-8" standalone="no"?>
<!DOCTYPE svg PUBLIC "-//W3C//DTD SVG 1.1//EN"
 "http://www.w3.org/Graphics/SVG/1.1/DTD/svg11.dtd">
<!-- Generated by graphviz version 7.1.0 (0)
 -->
<!-- Title: derivative_recovery.standard_recoverer.StandardLaplacianRecoverer Pages: 1 -->
<svg width="370pt" height="618pt"
 viewBox="0.00 0.00 370.00 618.00" xmlns="http://www.w3.org/2000/svg" xmlns:xlink="http://www.w3.org/1999/xlink">
<g id="graph0" class="graph" transform="scale(1 1) rotate(0) translate(4 614)">
<title>derivative_recovery.standard_recoverer.StandardLaplacianRecoverer</title>
<!-- Node1 -->
<g id="node1" class="node">
<title>Node1</title>
<g id="a_node1"><a xlink:title=" ">
<polygon fill="#999999" stroke="#666666" points="80,-0.5 80,-79.5 290,-79.5 290,-0.5 80,-0.5"/>
<text text-anchor="start" x="88" y="-67.5" font-family="Helvetica,sans-Serif" font-size="10.00">derivative_recovery.standard</text>
<text text-anchor="middle" x="185" y="-56.5" font-family="Helvetica,sans-Serif" font-size="10.00">_recoverer.StandardLaplacianRecoverer</text>
<polyline fill="none" stroke="#666666" points="80,-49.5 290,-49.5"/>
<text text-anchor="middle" x="185" y="-37.5" font-family="Helvetica,sans-Serif" font-size="10.00"> </text>
<polyline fill="none" stroke="#666666" points="80,-30.5 290,-30.5"/>
<text text-anchor="start" x="88" y="-18.5" font-family="Helvetica,sans-Serif" font-size="10.00">+ __init__()</text>
<text text-anchor="start" x="88" y="-7.5" font-family="Helvetica,sans-Serif" font-size="10.00">+ RecoverVectorLaplacian()</text>
</a>
</g>
</g>
<!-- Node2 -->
<g id="node2" class="node">
<title>Node2</title>
<g id="a_node2"><a xlink:href="../../db/dd5/classderivative__recovery_1_1recoverer_1_1_laplacian_recoverer.html" target="_top" xlink:title=" ">
<polygon fill="white" stroke="#666666" points="103,-116.5 103,-195.5 267,-195.5 267,-116.5 103,-116.5"/>
<text text-anchor="start" x="111" y="-183.5" font-family="Helvetica,sans-Serif" font-size="10.00">derivative_recovery.recoverer.</text>
<text text-anchor="middle" x="185" y="-172.5" font-family="Helvetica,sans-Serif" font-size="10.00">LaplacianRecoverer</text>
<polyline fill="none" stroke="#666666" points="103,-165.5 267,-165.5"/>
<text text-anchor="middle" x="185" y="-153.5" font-family="Helvetica,sans-Serif" font-size="10.00"> </text>
<polyline fill="none" stroke="#666666" points="103,-146.5 267,-146.5"/>
<text text-anchor="start" x="111" y="-134.5" font-family="Helvetica,sans-Serif" font-size="10.00">+ __init__()</text>
<text text-anchor="start" x="111" y="-123.5" font-family="Helvetica,sans-Serif" font-size="10.00">+ RecoverVelocityLaplacian()</text>
</a>
</g>
</g>
<!-- Node2&#45;&gt;Node1 -->
<g id="edge1" class="edge">
<title>Node2&#45;&gt;Node1</title>
<path fill="none" stroke="#63b8ff" d="M185,-105.45C185,-96.71 185,-87.74 185,-79.37"/>
<polygon fill="none" stroke="#63b8ff" points="181.5,-105.21 185,-115.21 188.5,-105.21 181.5,-105.21"/>
</g>
<!-- Node3 -->
<g id="node3" class="node">
<title>Node3</title>
<g id="a_node3"><a xlink:href="../../da/d63/classderivative__recovery_1_1recoverer_1_1_gradient_recoverer.html" target="_top" xlink:title=" ">
<polygon fill="white" stroke="#666666" points="0,-232.5 0,-333.5 180,-333.5 180,-232.5 0,-232.5"/>
<text text-anchor="start" x="8" y="-321.5" font-family="Helvetica,sans-Serif" font-size="10.00">derivative_recovery.recoverer.</text>
<text text-anchor="middle" x="90" y="-310.5" font-family="Helvetica,sans-Serif" font-size="10.00">GradientRecoverer</text>
<polyline fill="none" stroke="#666666" points="0,-303.5 180,-303.5"/>
<text text-anchor="middle" x="90" y="-291.5" font-family="Helvetica,sans-Serif" font-size="10.00"> </text>
<polyline fill="none" stroke="#666666" points="0,-284.5 180,-284.5"/>
<text text-anchor="start" x="8" y="-272.5" font-family="Helvetica,sans-Serif" font-size="10.00">+ __init__()</text>
<text text-anchor="start" x="8" y="-261.5" font-family="Helvetica,sans-Serif" font-size="10.00">+ RecoverGradientOfVelocity()</text>
<text text-anchor="start" x="8" y="-250.5" font-family="Helvetica,sans-Serif" font-size="10.00">+ RecoverPressureGradient()</text>
<text text-anchor="start" x="8" y="-239.5" font-family="Helvetica,sans-Serif" font-size="10.00">+ RecoverFluidFractionGradient()</text>
</a>
</g>
</g>
<!-- Node3&#45;&gt;Node2 -->
<g id="edge2" class="edge">
<title>Node3&#45;&gt;Node2</title>
<path fill="none" stroke="#63b8ff" d="M134.48,-223.48C141.76,-213.89 149.14,-204.18 155.93,-195.25"/>
<polygon fill="none" stroke="#63b8ff" points="131.73,-221.31 128.46,-231.39 137.3,-225.55 131.73,-221.31"/>
</g>
<!-- Node4 -->
<g id="node4" class="node">
<title>Node4</title>
<g id="a_node4"><a xlink:href="../../dc/d30/classderivative__recovery_1_1recoverer_1_1_empty_gradient_recoverer.html" target="_top" xlink:title=" ">
<polygon fill="white" stroke="#666666" points="36,-370.5 36,-493.5 216,-493.5 216,-370.5 36,-370.5"/>
<text text-anchor="start" x="44" y="-481.5" font-family="Helvetica,sans-Serif" font-size="10.00">derivative_recovery.recoverer.</text>
<text text-anchor="middle" x="126" y="-470.5" font-family="Helvetica,sans-Serif" font-size="10.00">EmptyGradientRecoverer</text>
<polyline fill="none" stroke="#666666" points="36,-463.5 216,-463.5"/>
<text text-anchor="middle" x="126" y="-451.5" font-family="Helvetica,sans-Serif" font-size="10.00"> </text>
<polyline fill="none" stroke="#666666" points="36,-444.5 216,-444.5"/>
<text text-anchor="start" x="44" y="-432.5" font-family="Helvetica,sans-Serif" font-size="10.00">+ __init__()</text>
<text text-anchor="start" x="44" y="-421.5" font-family="Helvetica,sans-Serif" font-size="10.00">+ RecoverGradientOfScalar()</text>
<text text-anchor="start" x="44" y="-410.5" font-family="Helvetica,sans-Serif" font-size="10.00">+ RecoverGradientOfVector()</text>
<text text-anchor="start" x="44" y="-399.5" font-family="Helvetica,sans-Serif" font-size="10.00">+ RecoverGradientOfVelocity()</text>
<text text-anchor="start" x="44" y="-388.5" font-family="Helvetica,sans-Serif" font-size="10.00">+ RecoverFluidFractionGradient()</text>
<text text-anchor="start" x="44" y="-377.5" font-family="Helvetica,sans-Serif" font-size="10.00">+ RecoverPressureGradient()</text>
</a>
</g>
</g>
<!-- Node4&#45;&gt;Node3 -->
<g id="edge3" class="edge">
<title>Node4&#45;&gt;Node3</title>
<path fill="none" stroke="#63b8ff" d="M108.57,-359.82C106.36,-350.79 104.13,-341.71 102.03,-333.13"/>
<polygon fill="none" stroke="#63b8ff" points="105.12,-360.43 110.89,-369.32 111.91,-358.77 105.12,-360.43"/>
</g>
<!-- Node5 -->
<g id="node5" class="node">
<title>Node5</title>
<g id="a_node5"><a xlink:href="../../d4/d08/classderivative__recovery_1_1recoverer_1_1_derivatives_recoverer.html" target="_top" xlink:title=" ">
<polygon fill="white" stroke="#666666" points="103,-530.5 103,-609.5 267,-609.5 267,-530.5 103,-530.5"/>
<text text-anchor="start" x="111" y="-597.5" font-family="Helvetica,sans-Serif" font-size="10.00">derivative_recovery.recoverer.</text>
<text text-anchor="middle" x="185" y="-586.5" font-family="Helvetica,sans-Serif" font-size="10.00">DerivativesRecoverer</text>
<polyline fill="none" stroke="#666666" points="103,-579.5 267,-579.5"/>
<text text-anchor="start" x="111" y="-567.5" font-family="Helvetica,sans-Serif" font-size="10.00">+ model_part</text>
<text text-anchor="start" x="111" y="-556.5" font-family="Helvetica,sans-Serif" font-size="10.00">+ cplusplus_recovery_tool</text>
<polyline fill="none" stroke="#666666" points="103,-549.5 267,-549.5"/>
<text text-anchor="start" x="111" y="-537.5" font-family="Helvetica,sans-Serif" font-size="10.00">+ __init__()</text>
</a>
</g>
</g>
<!-- Node5&#45;&gt;Node4 -->
<g id="edge4" class="edge">
<title>Node5&#45;&gt;Node4</title>
<path fill="none" stroke="#63b8ff" d="M163.9,-520.35C160.1,-511.6 156.1,-502.38 152.18,-493.34"/>
<polygon fill="none" stroke="#63b8ff" points="160.62,-521.59 167.81,-529.37 167.04,-518.8 160.62,-521.59"/>
</g>
<!-- Node6 -->
<g id="node6" class="node">
<title>Node6</title>
<g id="a_node6"><a xlink:href="../../d1/d02/classderivative__recovery_1_1recoverer_1_1_empty_laplacian_recoverer.html" target="_top" xlink:title=" ">
<polygon fill="white" stroke="#666666" points="198,-238 198,-328 362,-328 362,-238 198,-238"/>
<text text-anchor="start" x="206" y="-316" font-family="Helvetica,sans-Serif" font-size="10.00">derivative_recovery.recoverer.</text>
<text text-anchor="middle" x="280" y="-305" font-family="Helvetica,sans-Serif" font-size="10.00">EmptyLaplacianRecoverer</text>
<polyline fill="none" stroke="#666666" points="198,-298 362,-298"/>
<text text-anchor="middle" x="280" y="-286" font-family="Helvetica,sans-Serif" font-size="10.00"> </text>
<polyline fill="none" stroke="#666666" points="198,-279 362,-279"/>
<text text-anchor="start" x="206" y="-267" font-family="Helvetica,sans-Serif" font-size="10.00">+ __init__()</text>
<text text-anchor="start" x="206" y="-256" font-family="Helvetica,sans-Serif" font-size="10.00">+ RecoverVectorLaplacian()</text>
<text text-anchor="start" x="206" y="-245" font-family="Helvetica,sans-Serif" font-size="10.00">+ RecoverVelocityLaplacian()</text>
</a>
</g>
</g>
<!-- Node5&#45;&gt;Node6 -->
<g id="edge6" class="edge">
<title>Node5&#45;&gt;Node6</title>
<path fill="none" stroke="#63b8ff" d="M212.95,-520.55C217.34,-511.87 221.56,-502.79 225,-494 246.77,-438.37 262.67,-371.13 271.62,-327.97"/>
<polygon fill="none" stroke="#63b8ff" points="209.97,-518.68 208.45,-529.16 216.18,-521.92 209.97,-518.68"/>
</g>
<!-- Node6&#45;&gt;Node2 -->
<g id="edge5" class="edge">
<title>Node6&#45;&gt;Node2</title>
<path fill="none" stroke="#63b8ff" d="M239.95,-229.31C231.33,-217.96 222.37,-206.17 214.25,-195.49"/>
<polygon fill="none" stroke="#63b8ff" points="237.02,-231.23 245.86,-237.08 242.59,-227 237.02,-231.23"/>
</g>
</g>
</svg>
