<?xml version="1.0" encoding="UTF-8" standalone="no"?>
<!DOCTYPE svg PUBLIC "-//W3C//DTD SVG 1.1//EN"
 "http://www.w3.org/Graphics/SVG/1.1/DTD/svg11.dtd">
<!-- Generated by graphviz version 7.1.0 (0)
 -->
<!-- Title: Kratos::MpiDebugUtilities::is_kratos_bounded_vector_variable&lt; TVarType &gt; Pages: 1 -->
<svg width="224pt" height="320pt"
 viewBox="0.00 0.00 224.00 320.00" xmlns="http://www.w3.org/2000/svg" xmlns:xlink="http://www.w3.org/1999/xlink">
<g id="graph0" class="graph" transform="scale(1 1) rotate(0) translate(4 316)">
<title>Kratos::MpiDebugUtilities::is_kratos_bounded_vector_variable&lt; TVarType &gt;</title>
<!-- Node1 -->
<g id="node1" class="node">
<title>Node1</title>
<g id="a_node1"><a xlink:title=" ">
<polygon fill="#999999" stroke="#666666" points="33,-0.5 33,-79.5 183,-79.5 183,-0.5 33,-0.5"/>
<text text-anchor="start" x="41" y="-67.5" font-family="Helvetica,sans-Serif" font-size="10.00">Kratos::MpiDebugUtilities</text>
<text text-anchor="start" x="41" y="-56.5" font-family="Helvetica,sans-Serif" font-size="10.00">::is_kratos_bounded_vector</text>
<text text-anchor="middle" x="108" y="-45.5" font-family="Helvetica,sans-Serif" font-size="10.00">_variable&lt; TVarType &gt;</text>
<polyline fill="none" stroke="#666666" points="33,-38.5 183,-38.5"/>
<text text-anchor="middle" x="108" y="-26.5" font-family="Helvetica,sans-Serif" font-size="10.00"> </text>
<polyline fill="none" stroke="#666666" points="33,-19.5 183,-19.5"/>
<text text-anchor="middle" x="108" y="-7.5" font-family="Helvetica,sans-Serif" font-size="10.00"> </text>
</a>
</g>
</g>
<!-- Node2 -->
<g id="node2" class="node">
<title>Node2</title>
<g id="a_node2"><a xlink:href="../../d7/d5d/struct_kratos_1_1_mpi_debug_utilities_1_1is__any.html" target="_top" xlink:title=" ">
<polygon fill="white" stroke="#666666" points="0,-116.5 0,-195.5 216,-195.5 216,-116.5 0,-116.5"/>
<text text-anchor="start" x="8" y="-183.5" font-family="Helvetica,sans-Serif" font-size="10.00">Kratos::MpiDebugUtilities</text>
<text text-anchor="start" x="8" y="-172.5" font-family="Helvetica,sans-Serif" font-size="10.00">::is_any&lt; TVarType, KRATOS</text>
<text text-anchor="middle" x="108" y="-161.5" font-family="Helvetica,sans-Serif" font-size="10.00">_BOUNDED_VECTOR_VARIABLE_TYPES &gt;</text>
<polyline fill="none" stroke="#666666" points="0,-154.5 216,-154.5"/>
<text text-anchor="middle" x="108" y="-142.5" font-family="Helvetica,sans-Serif" font-size="10.00"> </text>
<polyline fill="none" stroke="#666666" points="0,-135.5 216,-135.5"/>
<text text-anchor="middle" x="108" y="-123.5" font-family="Helvetica,sans-Serif" font-size="10.00"> </text>
</a>
</g>
</g>
<!-- Node2&#45;&gt;Node1 -->
<g id="edge1" class="edge">
<title>Node2&#45;&gt;Node1</title>
<path fill="none" stroke="#63b8ff" d="M108,-105.45C108,-96.71 108,-87.74 108,-79.37"/>
<polygon fill="none" stroke="#63b8ff" points="104.5,-105.21 108,-115.21 111.5,-105.21 104.5,-105.21"/>
</g>
<!-- Node3 -->
<g id="node3" class="node">
<title>Node3</title>
<g id="a_node3"><a xlink:title=" ">
<polygon fill="white" stroke="#666666" points="31,-232.5 31,-311.5 185,-311.5 185,-232.5 31,-232.5"/>
<text text-anchor="start" x="39" y="-299.5" font-family="Helvetica,sans-Serif" font-size="10.00">std::integral_constant</text>
<text text-anchor="start" x="39" y="-288.5" font-family="Helvetica,sans-Serif" font-size="10.00">&lt; bool,(std::is_same&lt;</text>
<text text-anchor="middle" x="108" y="-277.5" font-family="Helvetica,sans-Serif" font-size="10.00"> TVarType , Ts &gt;::value||...)&gt;</text>
<polyline fill="none" stroke="#666666" points="31,-270.5 185,-270.5"/>
<text text-anchor="middle" x="108" y="-258.5" font-family="Helvetica,sans-Serif" font-size="10.00"> </text>
<polyline fill="none" stroke="#666666" points="31,-251.5 185,-251.5"/>
<text text-anchor="middle" x="108" y="-239.5" font-family="Helvetica,sans-Serif" font-size="10.00"> </text>
</a>
</g>
</g>
<!-- Node3&#45;&gt;Node2 -->
<g id="edge2" class="edge">
<title>Node3&#45;&gt;Node2</title>
<path fill="none" stroke="#63b8ff" d="M108,-221.45C108,-212.71 108,-203.74 108,-195.37"/>
<polygon fill="none" stroke="#63b8ff" points="104.5,-221.21 108,-231.21 111.5,-221.21 104.5,-221.21"/>
</g>
</g>
</svg>
