<?xml version="1.0" encoding="UTF-8" standalone="no"?>
<!DOCTYPE svg PUBLIC "-//W3C//DTD SVG 1.1//EN"
 "http://www.w3.org/Graphics/SVG/1.1/DTD/svg11.dtd">
<!-- Generated by graphviz version 2.43.0 (0)
 -->
<!-- Title: /home/runner/work/Documentation/Documentation/master/kratos/expression/container_expression.h Pages: 1 -->
<!--zoomable 584 -->
<svg id="main" version="1.1" xmlns="http://www.w3.org/2000/svg" xmlns:xlink="http://www.w3.org/1999/xlink" xml:space="preserve" onload="init(evt)">
<style type="text/css"><![CDATA[
.edge:hover path { stroke: red; }
.edge:hover polygon { stroke: red; fill: red; }
]]></style>
<script type="text/javascript"><![CDATA[
var edges = document.getElementsByTagName('g');
if (edges && edges.length) {
  for (var i=0;i<edges.length;i++) {
    if (edges[i].id.substr(0,4)=='edge') {
      edges[i].setAttribute('class','edge');
    }
  }
}
]]></script>
        <defs>
                <circle id="rim" cx="0" cy="0" r="7"/>
                <circle id="rim2" cx="0" cy="0" r="3.5"/>
                <g id="zoomPlus">
                        <use xlink:href="#rim" fill="#404040">
                                <set attributeName="fill" to="#808080" begin="zoomplus.mouseover" end="zoomplus.mouseout"/>
                        </use>
                        <path d="M-4,0h8M0,-4v8" fill="none" stroke="white" stroke-width="1.5" pointer-events="none"/>
                </g>
                <g id="zoomMin">
                        <use xlink:href="#rim" fill="#404040">
                                <set attributeName="fill" to="#808080" begin="zoomminus.mouseover" end="zoomminus.mouseout"/>
                        </use>
                        <path d="M-4,0h8" fill="none" stroke="white" stroke-width="1.5" pointer-events="none"/>
                </g>
                <g id="dirArrow">
                        <path fill="none" stroke="white" stroke-width="1.5" d="M0,-3.0v7 M-2.5,-0.5L0,-3.0L2.5,-0.5"/>
                </g>
               <g id="resetDef">
                       <use xlink:href="#rim2" fill="#404040">
                               <set attributeName="fill" to="#808080" begin="reset.mouseover" end="reset.mouseout"/>
                       </use>
               </g>
        </defs>

<script type="text/javascript">
var viewWidth = 1810;
var viewHeight = 584;
var sectionId = 'dynsection-1';
</script>
<script xlink:href="../../svgpan.js"/>
<svg id="graph" class="graph">
<g id="viewport">
<title>/home/runner/work/Documentation/Documentation/master/kratos/expression/container_expression.h</title>
<!-- Node1 -->
<g id="node1" class="node">
<title>Node1</title>
<g id="a_node1"><a xlink:title=" ">
<polygon fill="#bfbfbf" stroke="black" points="1078.5,-534.5 1078.5,-575.5 1267.5,-575.5 1267.5,-534.5 1078.5,-534.5"/>
<text text-anchor="start" x="1086.5" y="-563.5" font-family="Helvetica,sans-Serif" font-size="10.00">/home/runner/work/Documentation</text>
<text text-anchor="start" x="1086.5" y="-552.5" font-family="Helvetica,sans-Serif" font-size="10.00">/Documentation/master/kratos</text>
<text text-anchor="middle" x="1173" y="-541.5" font-family="Helvetica,sans-Serif" font-size="10.00">/expression/container_expression.h</text>
</a>
</g>
</g>
<!-- Node2 -->
<g id="node2" class="node">
<title>Node2</title>
<g id="a_node2"><a xlink:href="../../d5/d26/c__array__expression__io_8h.html" target="_top" xlink:title=" ">
<polygon fill="none" stroke="black" points="268,-456.5 268,-497.5 462,-497.5 462,-456.5 268,-456.5"/>
<text text-anchor="start" x="276" y="-485.5" font-family="Helvetica,sans-Serif" font-size="10.00">/home/runner/work/Documentation</text>
<text text-anchor="start" x="276" y="-474.5" font-family="Helvetica,sans-Serif" font-size="10.00">/Documentation/master/kratos</text>
<text text-anchor="middle" x="365" y="-463.5" font-family="Helvetica,sans-Serif" font-size="10.00">/expression/c_array_expression_io.h</text>
</a>
</g>
</g>
<!-- Node1&#45;&gt;Node2 -->
<g id="edge1" class="edge">
<title>Node1&#45;&gt;Node2</title>
<path fill="none" stroke="midnightblue" d="M1068.22,-548.79C931.55,-541.27 685.2,-525.18 476,-498 471.44,-497.41 466.78,-496.75 462.07,-496.06"/>
<polygon fill="midnightblue" stroke="midnightblue" points="1068.1,-552.29 1078.28,-549.34 1068.48,-545.3 1068.1,-552.29"/>
</g>
<!-- Node4 -->
<g id="node4" class="node">
<title>Node4</title>
<g id="a_node4"><a xlink:href="../../d4/d95/container__expression_8cpp.html" target="_top" xlink:title=" ">
<polygon fill="none" stroke="black" points="0,-373 0,-414 200,-414 200,-373 0,-373"/>
<text text-anchor="start" x="8" y="-402" font-family="Helvetica,sans-Serif" font-size="10.00">/home/runner/work/Documentation</text>
<text text-anchor="start" x="8" y="-391" font-family="Helvetica,sans-Serif" font-size="10.00">/Documentation/master/kratos</text>
<text text-anchor="middle" x="100" y="-380" font-family="Helvetica,sans-Serif" font-size="10.00">/expression/container_expression.cpp</text>
</a>
</g>
</g>
<!-- Node1&#45;&gt;Node4 -->
<g id="edge8" class="edge">
<title>Node1&#45;&gt;Node4</title>
<path fill="none" stroke="midnightblue" d="M1068.16,-554.26C860.98,-553.69 406.43,-546.71 259,-498 204.58,-480.02 150.68,-438.67 121.74,-414.02"/>
<polygon fill="midnightblue" stroke="midnightblue" points="1068.43,-557.76 1078.44,-554.29 1068.45,-550.76 1068.43,-557.76"/>
</g>
<!-- Node5 -->
<g id="node5" class="node">
<title>Node5</title>
<g id="a_node5"><a xlink:href="../../db/d1d/add__container__expression__to__python__utils_8h.html" target="_top" xlink:title=" ">
<polygon fill="none" stroke="black" points="358.5,-189.5 358.5,-241.5 545.5,-241.5 545.5,-189.5 358.5,-189.5"/>
<text text-anchor="start" x="366.5" y="-229.5" font-family="Helvetica,sans-Serif" font-size="10.00">/home/runner/work/Documentation</text>
<text text-anchor="start" x="366.5" y="-218.5" font-family="Helvetica,sans-Serif" font-size="10.00">/Documentation/master/kratos</text>
<text text-anchor="start" x="366.5" y="-207.5" font-family="Helvetica,sans-Serif" font-size="10.00">/python/add_container_expression</text>
<text text-anchor="middle" x="452" y="-196.5" font-family="Helvetica,sans-Serif" font-size="10.00">_to_python_utils.h</text>
</a>
</g>
</g>
<!-- Node1&#45;&gt;Node5 -->
<g id="edge35" class="edge">
<title>Node1&#45;&gt;Node5</title>
<path fill="none" stroke="midnightblue" d="M1068.35,-551.93C892.81,-547.48 554.22,-534.24 514,-498 440.05,-431.36 496.77,-374.41 472,-278 468.9,-265.93 464.73,-252.76 461,-241.72"/>
<polygon fill="midnightblue" stroke="midnightblue" points="1068.3,-555.43 1078.38,-552.18 1068.47,-548.44 1068.3,-555.43"/>
</g>
<!-- Node6 -->
<g id="node6" class="node">
<title>Node6</title>
<g id="a_node6"><a xlink:href="../../d9/d93/add__container__expression__to__python_8cpp.html" target="_top" xlink:title=" ">
<polygon fill="none" stroke="black" points="479.5,-100.5 479.5,-152.5 666.5,-152.5 666.5,-100.5 479.5,-100.5"/>
<text text-anchor="start" x="487.5" y="-140.5" font-family="Helvetica,sans-Serif" font-size="10.00">/home/runner/work/Documentation</text>
<text text-anchor="start" x="487.5" y="-129.5" font-family="Helvetica,sans-Serif" font-size="10.00">/Documentation/master/kratos</text>
<text text-anchor="start" x="487.5" y="-118.5" font-family="Helvetica,sans-Serif" font-size="10.00">/python/add_container_expression</text>
<text text-anchor="middle" x="573" y="-107.5" font-family="Helvetica,sans-Serif" font-size="10.00">_to_python.cpp</text>
</a>
</g>
</g>
<!-- Node1&#45;&gt;Node6 -->
<g id="edge34" class="edge">
<title>Node1&#45;&gt;Node6</title>
<path fill="none" stroke="midnightblue" d="M1068.27,-548.39C905.58,-537.1 604.75,-504.97 547,-420 532.13,-398.13 558.45,-219.54 568.95,-152.66"/>
<polygon fill="midnightblue" stroke="midnightblue" points="1068.09,-551.89 1078.3,-549.08 1068.56,-544.91 1068.09,-551.89"/>
</g>
<!-- Node9 -->
<g id="node9" class="node">
<title>Node9</title>
<g id="a_node9"><a xlink:href="../../d5/d6c/literal__expression__input_8h.html" target="_top" xlink:title=" ">
<polygon fill="none" stroke="black" points="753,-456.5 753,-497.5 955,-497.5 955,-456.5 753,-456.5"/>
<text text-anchor="start" x="761" y="-485.5" font-family="Helvetica,sans-Serif" font-size="10.00">/home/runner/work/Documentation</text>
<text text-anchor="start" x="761" y="-474.5" font-family="Helvetica,sans-Serif" font-size="10.00">/Documentation/master/kratos</text>
<text text-anchor="middle" x="854" y="-463.5" font-family="Helvetica,sans-Serif" font-size="10.00">/expression/literal_expression_input.h</text>
</a>
</g>
</g>
<!-- Node1&#45;&gt;Node9 -->
<g id="edge9" class="edge">
<title>Node1&#45;&gt;Node9</title>
<path fill="none" stroke="midnightblue" d="M1080.92,-532.06C1035.11,-521.15 980.2,-508.07 935.87,-497.51"/>
<polygon fill="midnightblue" stroke="midnightblue" points="1080.31,-535.52 1090.85,-534.43 1081.93,-528.71 1080.31,-535.52"/>
</g>
<!-- Node11 -->
<g id="node11" class="node">
<title>Node11</title>
<g id="a_node11"><a xlink:href="../../db/d19/specialized__container__expression_8h.html" target="_top" xlink:title=" ">
<polygon fill="none" stroke="black" points="965.5,-278.5 965.5,-330.5 1152.5,-330.5 1152.5,-278.5 965.5,-278.5"/>
<text text-anchor="start" x="973.5" y="-318.5" font-family="Helvetica,sans-Serif" font-size="10.00">/home/runner/work/Documentation</text>
<text text-anchor="start" x="973.5" y="-307.5" font-family="Helvetica,sans-Serif" font-size="10.00">/Documentation/master/kratos</text>
<text text-anchor="start" x="973.5" y="-296.5" font-family="Helvetica,sans-Serif" font-size="10.00">/expression/specialized_container</text>
<text text-anchor="middle" x="1059" y="-285.5" font-family="Helvetica,sans-Serif" font-size="10.00">_expression.h</text>
</a>
</g>
</g>
<!-- Node1&#45;&gt;Node11 -->
<g id="edge12" class="edge">
<title>Node1&#45;&gt;Node11</title>
<path fill="none" stroke="midnightblue" d="M1238.14,-530.82C1320.47,-498.02 1445.08,-434.5 1389,-367 1359.44,-331.42 1239.64,-316.32 1152.89,-309.98"/>
<polygon fill="midnightblue" stroke="midnightblue" points="1236.85,-527.56 1228.82,-534.47 1239.41,-534.08 1236.85,-527.56"/>
</g>
<!-- Node12 -->
<g id="node12" class="node">
<title>Node12</title>
<g id="a_node12"><a xlink:href="../../d2/dc6/vtu__output_8cpp.html" target="_top" xlink:title=" ">
<polygon fill="none" stroke="black" points="1469.5,-195 1469.5,-236 1656.5,-236 1656.5,-195 1469.5,-195"/>
<text text-anchor="start" x="1477.5" y="-224" font-family="Helvetica,sans-Serif" font-size="10.00">/home/runner/work/Documentation</text>
<text text-anchor="start" x="1477.5" y="-213" font-family="Helvetica,sans-Serif" font-size="10.00">/Documentation/master/kratos</text>
<text text-anchor="middle" x="1563" y="-202" font-family="Helvetica,sans-Serif" font-size="10.00">/input_output/vtu_output.cpp</text>
</a>
</g>
</g>
<!-- Node1&#45;&gt;Node12 -->
<g id="edge30" class="edge">
<title>Node1&#45;&gt;Node12</title>
<path fill="none" stroke="midnightblue" d="M1277.98,-548.32C1360.59,-541.65 1466.79,-527.5 1498,-498 1507.75,-488.78 1546.62,-298.27 1559.11,-236"/>
<polygon fill="midnightblue" stroke="midnightblue" points="1277.47,-544.85 1267.77,-549.11 1278.01,-551.83 1277.47,-544.85"/>
</g>
<!-- Node15 -->
<g id="node15" class="node">
<title>Node15</title>
<g id="a_node15"><a xlink:href="../../d3/d9c/container__expression__utils_8h.html" target="_top" xlink:title=" ">
<polygon fill="none" stroke="black" points="1174.5,-100.5 1174.5,-152.5 1375.5,-152.5 1375.5,-100.5 1174.5,-100.5"/>
<text text-anchor="start" x="1182.5" y="-140.5" font-family="Helvetica,sans-Serif" font-size="10.00">/home/runner/work/Documentation</text>
<text text-anchor="start" x="1182.5" y="-129.5" font-family="Helvetica,sans-Serif" font-size="10.00">/Documentation/master/applications</text>
<text text-anchor="start" x="1182.5" y="-118.5" font-family="Helvetica,sans-Serif" font-size="10.00">/OptimizationApplication/custom</text>
<text text-anchor="middle" x="1275" y="-107.5" font-family="Helvetica,sans-Serif" font-size="10.00">_utilities/container_expression_utils.h</text>
</a>
</g>
</g>
<!-- Node1&#45;&gt;Node15 -->
<g id="edge37" class="edge">
<title>Node1&#45;&gt;Node15</title>
<path fill="none" stroke="midnightblue" d="M1277.39,-534.18C1303.99,-525.89 1331.42,-514.26 1354,-498 1388.63,-473.06 1396.93,-460.62 1410,-420 1443.15,-316.98 1349.06,-202.59 1301.14,-152.87"/>
<polygon fill="midnightblue" stroke="midnightblue" points="1276.22,-530.87 1267.63,-537.08 1278.22,-537.58 1276.22,-530.87"/>
</g>
<!-- Node16 -->
<g id="node16" class="node">
<title>Node16</title>
<g id="a_node16"><a xlink:href="../../df/d38/container__expression__utils_8cpp.html" target="_top" xlink:title=" ">
<polygon fill="none" stroke="black" points="1298,-6 1298,-58 1510,-58 1510,-6 1298,-6"/>
<text text-anchor="start" x="1306" y="-46" font-family="Helvetica,sans-Serif" font-size="10.00">/home/runner/work/Documentation</text>
<text text-anchor="start" x="1306" y="-35" font-family="Helvetica,sans-Serif" font-size="10.00">/Documentation/master/applications</text>
<text text-anchor="start" x="1306" y="-24" font-family="Helvetica,sans-Serif" font-size="10.00">/OptimizationApplication/custom</text>
<text text-anchor="middle" x="1404" y="-13" font-family="Helvetica,sans-Serif" font-size="10.00">_utilities/container_expression_utils.cpp</text>
</a>
</g>
</g>
<!-- Node1&#45;&gt;Node16 -->
<g id="edge36" class="edge">
<title>Node1&#45;&gt;Node16</title>
<path fill="none" stroke="midnightblue" d="M1277.58,-549.07C1432.26,-540.99 1707.96,-523.26 1746,-498 1789.57,-469.07 1802,-446.8 1802,-394.5 1802,-394.5 1802,-394.5 1802,-214.5 1802,-85.97 1628.04,-48.06 1510.13,-37.12"/>
<polygon fill="midnightblue" stroke="midnightblue" points="1277.37,-545.58 1267.57,-549.59 1277.74,-552.57 1277.37,-545.58"/>
</g>
<!-- Node17 -->
<g id="node17" class="node">
<title>Node17</title>
<g id="a_node17"><a xlink:href="../../d6/d94/variable__expression__io_8h.html" target="_top" xlink:title=" ">
<polygon fill="none" stroke="black" points="1074.5,-456.5 1074.5,-497.5 1271.5,-497.5 1271.5,-456.5 1074.5,-456.5"/>
<text text-anchor="start" x="1082.5" y="-485.5" font-family="Helvetica,sans-Serif" font-size="10.00">/home/runner/work/Documentation</text>
<text text-anchor="start" x="1082.5" y="-474.5" font-family="Helvetica,sans-Serif" font-size="10.00">/Documentation/master/kratos</text>
<text text-anchor="middle" x="1173" y="-463.5" font-family="Helvetica,sans-Serif" font-size="10.00">/expression/variable_expression_io.h</text>
</a>
</g>
</g>
<!-- Node1&#45;&gt;Node17 -->
<g id="edge24" class="edge">
<title>Node1&#45;&gt;Node17</title>
<path fill="none" stroke="midnightblue" d="M1173,-524.3C1173,-515.3 1173,-505.65 1173,-497.51"/>
<polygon fill="midnightblue" stroke="midnightblue" points="1169.5,-524.43 1173,-534.43 1176.5,-524.43 1169.5,-524.43"/>
</g>
<!-- Node20 -->
<g id="node20" class="node">
<title>Node20</title>
<g id="a_node20"><a xlink:href="../../da/da4/vtu__output_8h.html" target="_top" xlink:title=" ">
<polygon fill="none" stroke="black" points="1549.5,-456.5 1549.5,-497.5 1736.5,-497.5 1736.5,-456.5 1549.5,-456.5"/>
<text text-anchor="start" x="1557.5" y="-485.5" font-family="Helvetica,sans-Serif" font-size="10.00">/home/runner/work/Documentation</text>
<text text-anchor="start" x="1557.5" y="-474.5" font-family="Helvetica,sans-Serif" font-size="10.00">/Documentation/master/kratos</text>
<text text-anchor="middle" x="1643" y="-463.5" font-family="Helvetica,sans-Serif" font-size="10.00">/input_output/vtu_output.h</text>
</a>
</g>
</g>
<!-- Node1&#45;&gt;Node20 -->
<g id="edge31" class="edge">
<title>Node1&#45;&gt;Node20</title>
<path fill="none" stroke="midnightblue" d="M1277.59,-538.76C1350.19,-527.97 1449.1,-512.82 1536,-498 1540.38,-497.25 1544.85,-496.48 1549.37,-495.68"/>
<polygon fill="midnightblue" stroke="midnightblue" points="1276.9,-535.33 1267.53,-540.26 1277.93,-542.25 1276.9,-535.33"/>
</g>
<!-- Node3 -->
<g id="node3" class="node">
<title>Node3</title>
<g id="a_node3"><a xlink:href="../../d5/d15/c__array__expression__io_8cpp.html" target="_top" xlink:title=" ">
<polygon fill="none" stroke="black" points="218.5,-373 218.5,-414 423.5,-414 423.5,-373 218.5,-373"/>
<text text-anchor="start" x="226.5" y="-402" font-family="Helvetica,sans-Serif" font-size="10.00">/home/runner/work/Documentation</text>
<text text-anchor="start" x="226.5" y="-391" font-family="Helvetica,sans-Serif" font-size="10.00">/Documentation/master/kratos</text>
<text text-anchor="middle" x="321" y="-380" font-family="Helvetica,sans-Serif" font-size="10.00">/expression/c_array_expression_io.cpp</text>
</a>
</g>
</g>
<!-- Node2&#45;&gt;Node3 -->
<g id="edge2" class="edge">
<title>Node2&#45;&gt;Node3</title>
<path fill="none" stroke="midnightblue" d="M349.56,-447.39C343.6,-436.37 336.94,-424.03 331.55,-414.05"/>
<polygon fill="midnightblue" stroke="midnightblue" points="346.52,-449.13 354.35,-456.27 352.68,-445.81 346.52,-449.13"/>
</g>
<!-- Node2&#45;&gt;Node4 -->
<g id="edge3" class="edge">
<title>Node2&#45;&gt;Node4</title>
<path fill="none" stroke="midnightblue" d="M291.76,-453.48C251.49,-441.09 202.02,-425.88 163.41,-414"/>
<polygon fill="midnightblue" stroke="midnightblue" points="290.94,-456.88 301.53,-456.48 293,-450.19 290.94,-456.88"/>
</g>
<!-- Node2&#45;&gt;Node5 -->
<g id="edge4" class="edge">
<title>Node2&#45;&gt;Node5</title>
<path fill="none" stroke="midnightblue" d="M406.33,-449.96C416.34,-441.63 425.91,-431.53 432,-420 462.61,-362.09 459.49,-281.95 455.35,-241.7"/>
<polygon fill="midnightblue" stroke="midnightblue" points="403.99,-447.35 398.27,-456.26 408.3,-452.87 403.99,-447.35"/>
</g>
<!-- Node8 -->
<g id="node8" class="node">
<title>Node8</title>
<g id="a_node8"><a xlink:href="../../da/dae/add__expression__io__to__python_8cpp.html" target="_top" xlink:title=" ">
<polygon fill="none" stroke="black" points="760.5,-367.5 760.5,-419.5 947.5,-419.5 947.5,-367.5 760.5,-367.5"/>
<text text-anchor="start" x="768.5" y="-407.5" font-family="Helvetica,sans-Serif" font-size="10.00">/home/runner/work/Documentation</text>
<text text-anchor="start" x="768.5" y="-396.5" font-family="Helvetica,sans-Serif" font-size="10.00">/Documentation/master/kratos</text>
<text text-anchor="start" x="768.5" y="-385.5" font-family="Helvetica,sans-Serif" font-size="10.00">/python/add_expression_io_to</text>
<text text-anchor="middle" x="854" y="-374.5" font-family="Helvetica,sans-Serif" font-size="10.00">_python.cpp</text>
</a>
</g>
</g>
<!-- Node2&#45;&gt;Node8 -->
<g id="edge7" class="edge">
<title>Node2&#45;&gt;Node8</title>
<path fill="none" stroke="midnightblue" d="M472.5,-463.29C550.2,-453.41 657.51,-438.31 751,-420 754.07,-419.4 757.19,-418.76 760.34,-418.1"/>
<polygon fill="midnightblue" stroke="midnightblue" points="471.7,-459.87 462.21,-464.59 472.57,-466.81 471.7,-459.87"/>
</g>
<!-- Node5&#45;&gt;Node6 -->
<g id="edge5" class="edge">
<title>Node5&#45;&gt;Node6</title>
<path fill="none" stroke="midnightblue" d="M495.51,-183.22C509.49,-173.16 524.79,-162.16 538.08,-152.61"/>
<polygon fill="midnightblue" stroke="midnightblue" points="493.07,-180.66 487,-189.34 497.16,-186.34 493.07,-180.66"/>
</g>
<!-- Node7 -->
<g id="node7" class="node">
<title>Node7</title>
<g id="a_node7"><a xlink:href="../../d4/d97/_optimization_application_2custom__python_2add__custom__utilities__to__python_8cpp.html" target="_top" xlink:title=" ">
<polygon fill="none" stroke="black" points="818,-0.5 818,-63.5 1012,-63.5 1012,-0.5 818,-0.5"/>
<text text-anchor="start" x="826" y="-51.5" font-family="Helvetica,sans-Serif" font-size="10.00">/home/runner/work/Documentation</text>
<text text-anchor="start" x="826" y="-40.5" font-family="Helvetica,sans-Serif" font-size="10.00">/Documentation/master/applications</text>
<text text-anchor="start" x="826" y="-29.5" font-family="Helvetica,sans-Serif" font-size="10.00">/OptimizationApplication/custom</text>
<text text-anchor="start" x="826" y="-18.5" font-family="Helvetica,sans-Serif" font-size="10.00">_python/add_custom_utilities_to</text>
<text text-anchor="middle" x="915" y="-7.5" font-family="Helvetica,sans-Serif" font-size="10.00">_python.cpp</text>
</a>
</g>
</g>
<!-- Node5&#45;&gt;Node7 -->
<g id="edge6" class="edge">
<title>Node5&#45;&gt;Node7</title>
<path fill="none" stroke="midnightblue" d="M447.5,-179.26C446.35,-153.75 449.55,-120.32 470,-100 517.63,-52.68 701.89,-38.7 817.85,-34.62"/>
<polygon fill="midnightblue" stroke="midnightblue" points="444.01,-179.56 448.19,-189.3 451,-179.08 444.01,-179.56"/>
</g>
<!-- Node9&#45;&gt;Node8 -->
<g id="edge11" class="edge">
<title>Node9&#45;&gt;Node8</title>
<path fill="none" stroke="midnightblue" d="M854,-446.12C854,-437.41 854,-427.99 854,-419.61"/>
<polygon fill="midnightblue" stroke="midnightblue" points="850.5,-446.27 854,-456.27 857.5,-446.27 850.5,-446.27"/>
</g>
<!-- Node10 -->
<g id="node10" class="node">
<title>Node10</title>
<g id="a_node10"><a xlink:href="../../db/d76/literal__expression__input_8cpp.html" target="_top" xlink:title=" ">
<polygon fill="none" stroke="black" points="555.5,-367.5 555.5,-419.5 742.5,-419.5 742.5,-367.5 555.5,-367.5"/>
<text text-anchor="start" x="563.5" y="-407.5" font-family="Helvetica,sans-Serif" font-size="10.00">/home/runner/work/Documentation</text>
<text text-anchor="start" x="563.5" y="-396.5" font-family="Helvetica,sans-Serif" font-size="10.00">/Documentation/master/kratos</text>
<text text-anchor="start" x="563.5" y="-385.5" font-family="Helvetica,sans-Serif" font-size="10.00">/expression/literal_expression</text>
<text text-anchor="middle" x="649" y="-374.5" font-family="Helvetica,sans-Serif" font-size="10.00">_input.cpp</text>
</a>
</g>
</g>
<!-- Node9&#45;&gt;Node10 -->
<g id="edge10" class="edge">
<title>Node9&#45;&gt;Node10</title>
<path fill="none" stroke="midnightblue" d="M795.52,-452.75C769.44,-442.38 738.67,-430.15 712.08,-419.58"/>
<polygon fill="midnightblue" stroke="midnightblue" points="794.31,-456.04 804.9,-456.48 796.9,-449.53 794.31,-456.04"/>
</g>
<!-- Node11&#45;&gt;Node5 -->
<g id="edge15" class="edge">
<title>Node11&#45;&gt;Node5</title>
<path fill="none" stroke="midnightblue" d="M955.27,-288.63C840.26,-272.15 656.39,-245.79 545.62,-229.92"/>
<polygon fill="midnightblue" stroke="midnightblue" points="955.09,-292.14 965.49,-290.1 956.08,-285.21 955.09,-292.14"/>
</g>
<!-- Node11&#45;&gt;Node6 -->
<g id="edge14" class="edge">
<title>Node11&#45;&gt;Node6</title>
<path fill="none" stroke="midnightblue" d="M976.18,-275.11C946.43,-264.82 912.67,-253.01 882,-242 798.13,-211.9 701.94,-176.04 639.46,-152.57"/>
<polygon fill="midnightblue" stroke="midnightblue" points="975.09,-278.44 985.68,-278.4 977.38,-271.83 975.09,-278.44"/>
</g>
<!-- Node11&#45;&gt;Node7 -->
<g id="edge16" class="edge">
<title>Node11&#45;&gt;Node7</title>
<path fill="none" stroke="midnightblue" d="M990.3,-273.4C976.5,-264.85 963.15,-254.42 953,-242 911,-190.6 909.27,-108.15 911.95,-63.73"/>
<polygon fill="midnightblue" stroke="midnightblue" points="988.53,-276.42 998.93,-278.47 992.08,-270.38 988.53,-276.42"/>
</g>
<!-- Node11&#45;&gt;Node12 -->
<g id="edge13" class="edge">
<title>Node11&#45;&gt;Node12</title>
<path fill="none" stroke="midnightblue" d="M1162.69,-285.86C1234.41,-273.63 1332.02,-256.93 1418,-242 1434.62,-239.11 1452.31,-236.02 1469.41,-233.02"/>
<polygon fill="midnightblue" stroke="midnightblue" points="1162.02,-282.43 1152.75,-287.56 1163.2,-289.33 1162.02,-282.43"/>
</g>
<!-- Node13 -->
<g id="node13" class="node">
<title>Node13</title>
<g id="a_node13"><a xlink:href="../../db/d94/collective__expressions_8h.html" target="_top" xlink:title=" ">
<polygon fill="none" stroke="black" points="962,-189.5 962,-241.5 1156,-241.5 1156,-189.5 962,-189.5"/>
<text text-anchor="start" x="970" y="-229.5" font-family="Helvetica,sans-Serif" font-size="10.00">/home/runner/work/Documentation</text>
<text text-anchor="start" x="970" y="-218.5" font-family="Helvetica,sans-Serif" font-size="10.00">/Documentation/master/applications</text>
<text text-anchor="start" x="970" y="-207.5" font-family="Helvetica,sans-Serif" font-size="10.00">/OptimizationApplication/custom</text>
<text text-anchor="middle" x="1059" y="-196.5" font-family="Helvetica,sans-Serif" font-size="10.00">_utilities/collective_expressions.h</text>
</a>
</g>
</g>
<!-- Node11&#45;&gt;Node13 -->
<g id="edge17" class="edge">
<title>Node11&#45;&gt;Node13</title>
<path fill="none" stroke="midnightblue" d="M1059,-268.19C1059,-259.28 1059,-249.9 1059,-241.61"/>
<polygon fill="midnightblue" stroke="midnightblue" points="1055.5,-268.34 1059,-278.34 1062.5,-268.34 1055.5,-268.34"/>
</g>
<!-- Node11&#45;&gt;Node16 -->
<g id="edge23" class="edge">
<title>Node11&#45;&gt;Node16</title>
<path fill="none" stroke="midnightblue" d="M1162.29,-282.9C1236.02,-262.63 1331.28,-224.01 1385,-153 1405.74,-125.58 1407.77,-84.43 1406.51,-58.15"/>
<polygon fill="midnightblue" stroke="midnightblue" points="1161.26,-279.56 1152.5,-285.52 1163.07,-286.32 1161.26,-279.56"/>
</g>
<!-- Node13&#45;&gt;Node7 -->
<g id="edge18" class="edge">
<title>Node13&#45;&gt;Node7</title>
<path fill="none" stroke="midnightblue" d="M989.52,-184.15C975.95,-175.67 962.88,-165.32 953,-153 932.29,-127.17 922.78,-89.89 918.47,-63.75"/>
<polygon fill="midnightblue" stroke="midnightblue" points="988.09,-187.38 998.48,-189.46 991.66,-181.35 988.09,-187.38"/>
</g>
<!-- Node14 -->
<g id="node14" class="node">
<title>Node14</title>
<g id="a_node14"><a xlink:href="../../d5/de7/collective__expressions_8cpp.html" target="_top" xlink:title=" ">
<polygon fill="none" stroke="black" points="962,-100.5 962,-152.5 1156,-152.5 1156,-100.5 962,-100.5"/>
<text text-anchor="start" x="970" y="-140.5" font-family="Helvetica,sans-Serif" font-size="10.00">/home/runner/work/Documentation</text>
<text text-anchor="start" x="970" y="-129.5" font-family="Helvetica,sans-Serif" font-size="10.00">/Documentation/master/applications</text>
<text text-anchor="start" x="970" y="-118.5" font-family="Helvetica,sans-Serif" font-size="10.00">/OptimizationApplication/custom</text>
<text text-anchor="middle" x="1059" y="-107.5" font-family="Helvetica,sans-Serif" font-size="10.00">_utilities/collective_expressions.cpp</text>
</a>
</g>
</g>
<!-- Node13&#45;&gt;Node14 -->
<g id="edge19" class="edge">
<title>Node13&#45;&gt;Node14</title>
<path fill="none" stroke="midnightblue" d="M1059,-179.19C1059,-170.28 1059,-160.9 1059,-152.61"/>
<polygon fill="midnightblue" stroke="midnightblue" points="1055.5,-179.34 1059,-189.34 1062.5,-179.34 1055.5,-179.34"/>
</g>
<!-- Node13&#45;&gt;Node15 -->
<g id="edge20" class="edge">
<title>Node13&#45;&gt;Node15</title>
<path fill="none" stroke="midnightblue" d="M1130.81,-185.58C1157.38,-174.88 1187.25,-162.85 1212.88,-152.52"/>
<polygon fill="midnightblue" stroke="midnightblue" points="1129.15,-182.47 1121.19,-189.45 1131.77,-188.96 1129.15,-182.47"/>
</g>
<!-- Node15&#45;&gt;Node7 -->
<g id="edge21" class="edge">
<title>Node15&#45;&gt;Node7</title>
<path fill="none" stroke="midnightblue" d="M1167.83,-97.96C1118.45,-85.27 1060.28,-70.33 1012.19,-57.97"/>
<polygon fill="midnightblue" stroke="midnightblue" points="1167.02,-101.37 1177.58,-100.47 1168.76,-94.59 1167.02,-101.37"/>
</g>
<!-- Node15&#45;&gt;Node16 -->
<g id="edge22" class="edge">
<title>Node15&#45;&gt;Node16</title>
<path fill="none" stroke="midnightblue" d="M1318.33,-94.43C1334.84,-82.59 1353.43,-69.26 1369.06,-58.05"/>
<polygon fill="midnightblue" stroke="midnightblue" points="1316,-91.8 1309.91,-100.47 1320.08,-97.49 1316,-91.8"/>
</g>
<!-- Node17&#45;&gt;Node8 -->
<g id="edge29" class="edge">
<title>Node17&#45;&gt;Node8</title>
<path fill="none" stroke="midnightblue" d="M1086.72,-453.96C1043.74,-442.97 991.69,-429.68 947.73,-418.45"/>
<polygon fill="midnightblue" stroke="midnightblue" points="1086.04,-457.39 1096.59,-456.48 1087.77,-450.61 1086.04,-457.39"/>
</g>
<!-- Node17&#45;&gt;Node12 -->
<g id="edge28" class="edge">
<title>Node17&#45;&gt;Node12</title>
<path fill="none" stroke="midnightblue" d="M1281.81,-461.46C1317.88,-453.19 1356.97,-440.24 1389,-420 1458.61,-376.02 1454.1,-340.25 1508,-278 1520.28,-263.81 1534.4,-248.04 1545.25,-236.02"/>
<polygon fill="midnightblue" stroke="midnightblue" points="1280.74,-458.11 1271.73,-463.67 1282.24,-464.95 1280.74,-458.11"/>
</g>
<!-- Node18 -->
<g id="node18" class="node">
<title>Node18</title>
<g id="a_node18"><a xlink:href="../../d1/d91/specialized__container__expression__impl_8h.html" target="_top" xlink:title=" ">
<polygon fill="none" stroke="black" points="965.5,-367.5 965.5,-419.5 1152.5,-419.5 1152.5,-367.5 965.5,-367.5"/>
<text text-anchor="start" x="973.5" y="-407.5" font-family="Helvetica,sans-Serif" font-size="10.00">/home/runner/work/Documentation</text>
<text text-anchor="start" x="973.5" y="-396.5" font-family="Helvetica,sans-Serif" font-size="10.00">/Documentation/master/kratos</text>
<text text-anchor="start" x="973.5" y="-385.5" font-family="Helvetica,sans-Serif" font-size="10.00">/expression/specialized_container</text>
<text text-anchor="middle" x="1059" y="-374.5" font-family="Helvetica,sans-Serif" font-size="10.00">_expression_impl.h</text>
</a>
</g>
</g>
<!-- Node17&#45;&gt;Node18 -->
<g id="edge25" class="edge">
<title>Node17&#45;&gt;Node18</title>
<path fill="none" stroke="midnightblue" d="M1137.43,-450.57C1123.69,-440.74 1108,-429.53 1094.29,-419.73"/>
<polygon fill="midnightblue" stroke="midnightblue" points="1135.52,-453.51 1145.69,-456.48 1139.59,-447.82 1135.52,-453.51"/>
</g>
<!-- Node19 -->
<g id="node19" class="node">
<title>Node19</title>
<g id="a_node19"><a xlink:href="../../de/dc6/variable__expression__io_8cpp.html" target="_top" xlink:title=" ">
<polygon fill="none" stroke="black" points="1170.5,-373 1170.5,-414 1379.5,-414 1379.5,-373 1170.5,-373"/>
<text text-anchor="start" x="1178.5" y="-402" font-family="Helvetica,sans-Serif" font-size="10.00">/home/runner/work/Documentation</text>
<text text-anchor="start" x="1178.5" y="-391" font-family="Helvetica,sans-Serif" font-size="10.00">/Documentation/master/kratos</text>
<text text-anchor="middle" x="1275" y="-380" font-family="Helvetica,sans-Serif" font-size="10.00">/expression/variable_expression_io.cpp</text>
</a>
</g>
</g>
<!-- Node17&#45;&gt;Node19 -->
<g id="edge27" class="edge">
<title>Node17&#45;&gt;Node19</title>
<path fill="none" stroke="midnightblue" d="M1205.26,-450.22C1219.87,-438.55 1236.86,-424.97 1250.41,-414.14"/>
<polygon fill="midnightblue" stroke="midnightblue" points="1203.06,-447.5 1197.43,-456.48 1207.43,-452.97 1203.06,-447.5"/>
</g>
<!-- Node18&#45;&gt;Node11 -->
<g id="edge26" class="edge">
<title>Node18&#45;&gt;Node11</title>
<path fill="none" stroke="midnightblue" d="M1059,-357.19C1059,-348.28 1059,-338.9 1059,-330.61"/>
<polygon fill="midnightblue" stroke="midnightblue" points="1055.5,-357.34 1059,-367.34 1062.5,-357.34 1055.5,-357.34"/>
</g>
<!-- Node20&#45;&gt;Node12 -->
<g id="edge32" class="edge">
<title>Node20&#45;&gt;Node12</title>
<path fill="none" stroke="midnightblue" d="M1603.62,-449.96C1593.96,-441.58 1584.75,-431.45 1579,-420 1548.24,-358.71 1554.84,-273.81 1559.89,-236.01"/>
<polygon fill="midnightblue" stroke="midnightblue" points="1601.44,-452.7 1611.4,-456.3 1605.86,-447.27 1601.44,-452.7"/>
</g>
<!-- Node21 -->
<g id="node21" class="node">
<title>Node21</title>
<g id="a_node21"><a xlink:href="../../d8/df1/add__io__to__python_8cpp.html" target="_top" xlink:title=" ">
<polygon fill="none" stroke="black" points="1587.5,-373 1587.5,-414 1774.5,-414 1774.5,-373 1587.5,-373"/>
<text text-anchor="start" x="1595.5" y="-402" font-family="Helvetica,sans-Serif" font-size="10.00">/home/runner/work/Documentation</text>
<text text-anchor="start" x="1595.5" y="-391" font-family="Helvetica,sans-Serif" font-size="10.00">/Documentation/master/kratos</text>
<text text-anchor="middle" x="1681" y="-380" font-family="Helvetica,sans-Serif" font-size="10.00">/python/add_io_to_python.cpp</text>
</a>
</g>
</g>
<!-- Node20&#45;&gt;Node21 -->
<g id="edge33" class="edge">
<title>Node20&#45;&gt;Node21</title>
<path fill="none" stroke="midnightblue" d="M1656.49,-447.06C1661.6,-436.12 1667.28,-423.93 1671.89,-414.05"/>
<polygon fill="midnightblue" stroke="midnightblue" points="1653.25,-445.73 1652.2,-456.27 1659.6,-448.69 1653.25,-445.73"/>
</g>
</g>
</svg>
        <g id="navigator" transform="translate(0 0)" fill="#404254">
                <rect fill="#f2f5e9" fill-opacity="0.5" stroke="#606060" stroke-width=".5" x="0" y="0" width="60" height="60"/>
                <use id="zoomplus" xlink:href="#zoomPlus" x="17" y="9" onmousedown="handleZoom(evt,'in')"/>
                <use id="zoomminus" xlink:href="#zoomMin" x="42" y="9" onmousedown="handleZoom(evt,'out')"/>
                <use id="reset" xlink:href="#resetDef" x="30" y="36" onmousedown="handleReset()"/>
                <g id="arrowUp" xlink:href="#dirArrow" transform="translate(30 24)" onmousedown="handlePan(0,-1)">
                  <use xlink:href="#rim" fill="#404040">
                        <set attributeName="fill" to="#808080" begin="arrowUp.mouseover" end="arrowUp.mouseout"/>
                  </use>
                  <path fill="none" stroke="white" stroke-width="1.5" d="M0,-3.0v7 M-2.5,-0.5L0,-3.0L2.5,-0.5"/>
                </g>
                <g id="arrowRight" xlink:href="#dirArrow" transform="rotate(90) translate(36 -43)" onmousedown="handlePan(1,0)">
                  <use xlink:href="#rim" fill="#404040">
                        <set attributeName="fill" to="#808080" begin="arrowRight.mouseover" end="arrowRight.mouseout"/>
                  </use>
                  <path fill="none" stroke="white" stroke-width="1.5" d="M0,-3.0v7 M-2.5,-0.5L0,-3.0L2.5,-0.5"/>
                </g>
                <g id="arrowDown" xlink:href="#dirArrow" transform="rotate(180) translate(-30 -48)" onmousedown="handlePan(0,1)">
                  <use xlink:href="#rim" fill="#404040">
                        <set attributeName="fill" to="#808080" begin="arrowDown.mouseover" end="arrowDown.mouseout"/>
                  </use>
                  <path fill="none" stroke="white" stroke-width="1.5" d="M0,-3.0v7 M-2.5,-0.5L0,-3.0L2.5,-0.5"/>
                </g>
                <g id="arrowLeft" xlink:href="#dirArrow" transform="rotate(270) translate(-36 17)" onmousedown="handlePan(-1,0)">
                  <use xlink:href="#rim" fill="#404040">
                        <set attributeName="fill" to="#808080" begin="arrowLeft.mouseover" end="arrowLeft.mouseout"/>
                  </use>
                  <path fill="none" stroke="white" stroke-width="1.5" d="M0,-3.0v7 M-2.5,-0.5L0,-3.0L2.5,-0.5"/>
                </g>
        </g>
        <svg viewBox="0 0 15 15" width="100%" height="30px" preserveAspectRatio="xMaxYMin meet">
         <g id="arrow_out" transform="scale(0.3 0.3)">
          <a xlink:href="container__expression_8h__dep__incl_org.svg" target="_base">
           <rect id="button" ry="5" rx="5" y="6" x="6" height="38" width="38"
                fill="#f2f5e9" fill-opacity="0.5" stroke="#606060" stroke-width="1.0"/>
           <path id="arrow"
             d="M 11.500037,31.436501 C 11.940474,20.09759 22.043105,11.32322 32.158766,21.979434 L 37.068811,17.246167 C 37.068811,17.246167 37.088388,32 37.088388,32 L 22.160133,31.978069 C 22.160133,31.978069 26.997745,27.140456 26.997745,27.140456 C 18.528582,18.264221 13.291696,25.230495 11.500037,31.436501 z"
             style="fill:#404040;"/>
          </a>
         </g>
        </svg>
</svg>
