<?xml version="1.0" encoding="UTF-8" standalone="no"?>
<!DOCTYPE svg PUBLIC "-//W3C//DTD SVG 1.1//EN"
 "http://www.w3.org/Graphics/SVG/1.1/DTD/svg11.dtd">
<!-- Generated by graphviz version 7.1.0 (0)
 -->
<!-- Title: Kratos::TimeIntegratedFICData&lt; TDim, TNumNodes &gt; Pages: 1 -->
<!--zoomable 889 -->
<svg id="main" version="1.1" xmlns="http://www.w3.org/2000/svg" xmlns:xlink="http://www.w3.org/1999/xlink" xml:space="preserve" onload="init(evt)">
<style type="text/css"><![CDATA[
.edge:hover path { stroke: red; }
.edge:hover polygon { stroke: red; fill: red; }
]]></style>
<script type="text/javascript"><![CDATA[
var edges = document.getElementsByTagName('g');
if (edges && edges.length) {
  for (var i=0;i<edges.length;i++) {
    if (edges[i].id.substr(0,4)=='edge') {
      edges[i].setAttribute('class','edge');
    }
  }
}
]]></script>
        <defs>
                <circle id="rim" cx="0" cy="0" r="7"/>
                <circle id="rim2" cx="0" cy="0" r="3.5"/>
                <g id="zoomPlus">
                        <use xlink:href="#rim" fill="#404040">
                                <set attributeName="fill" to="#808080" begin="zoomplus.mouseover" end="zoomplus.mouseout"/>
                        </use>
                        <path d="M-4,0h8M0,-4v8" fill="none" stroke="white" stroke-width="1.5" pointer-events="none"/>
                </g>
                <g id="zoomMin">
                        <use xlink:href="#rim" fill="#404040">
                                <set attributeName="fill" to="#808080" begin="zoomminus.mouseover" end="zoomminus.mouseout"/>
                        </use>
                        <path d="M-4,0h8" fill="none" stroke="white" stroke-width="1.5" pointer-events="none"/>
                </g>
                <g id="dirArrow">
                        <path fill="none" stroke="white" stroke-width="1.5" d="M0,-3.0v7 M-2.5,-0.5L0,-3.0L2.5,-0.5"/>
                </g>
               <g id="resetDef">
                       <use xlink:href="#rim2" fill="#404040">
                               <set attributeName="fill" to="#808080" begin="reset.mouseover" end="reset.mouseout"/>
                       </use>
               </g>
        </defs>

<script type="text/javascript">
var viewWidth = 449;
var viewHeight = 889;
var sectionId = 'dynsection-1';
</script>
<script xlink:href="../../svgpan.js"/>
<svg id="graph" class="graph">
<g id="viewport">
<title>Kratos::TimeIntegratedFICData&lt; TDim, TNumNodes &gt;</title>
<!-- Node1 -->
<g id="node1" class="node">
<title>Node1</title>
<g id="a_node1"><a xlink:title=" ">
<polygon fill="#999999" stroke="#666666" points="62,-0.5 62,-200.5 230,-200.5 230,-0.5 62,-0.5"/>
<text text-anchor="start" x="70" y="-188.5" font-family="Helvetica,sans-Serif" font-size="10.00">Kratos::TimeIntegratedFICData</text>
<text text-anchor="middle" x="146" y="-177.5" font-family="Helvetica,sans-Serif" font-size="10.00">&lt; TDim, TNumNodes &gt;</text>
<polyline fill="none" stroke="#666666" points="62,-170.5 230,-170.5"/>
<text text-anchor="start" x="70" y="-158.5" font-family="Helvetica,sans-Serif" font-size="10.00">+ Velocity_OldStep1</text>
<text text-anchor="start" x="70" y="-147.5" font-family="Helvetica,sans-Serif" font-size="10.00">+ Velocity_OldStep2</text>
<text text-anchor="start" x="70" y="-136.5" font-family="Helvetica,sans-Serif" font-size="10.00">+ bdf0</text>
<text text-anchor="start" x="70" y="-125.5" font-family="Helvetica,sans-Serif" font-size="10.00">+ bdf1</text>
<text text-anchor="start" x="70" y="-114.5" font-family="Helvetica,sans-Serif" font-size="10.00">+ bdf2</text>
<polyline fill="none" stroke="#666666" points="62,-107.5 230,-107.5"/>
<text text-anchor="start" x="70" y="-95.5" font-family="Helvetica,sans-Serif" font-size="10.00">* NodalScalarData</text>
<text text-anchor="start" x="70" y="-84.5" font-family="Helvetica,sans-Serif" font-size="10.00">* NodalVectorData</text>
<text text-anchor="start" x="70" y="-73.5" font-family="Helvetica,sans-Serif" font-size="10.00">* Velocity_OldStep1</text>
<text text-anchor="start" x="70" y="-62.5" font-family="Helvetica,sans-Serif" font-size="10.00">* Velocity_OldStep2</text>
<text text-anchor="start" x="70" y="-51.5" font-family="Helvetica,sans-Serif" font-size="10.00">* bdf0</text>
<text text-anchor="start" x="70" y="-40.5" font-family="Helvetica,sans-Serif" font-size="10.00">* bdf1</text>
<text text-anchor="start" x="70" y="-29.5" font-family="Helvetica,sans-Serif" font-size="10.00">* bdf2</text>
<text text-anchor="start" x="70" y="-18.5" font-family="Helvetica,sans-Serif" font-size="10.00">* Initialize()</text>
<text text-anchor="start" x="70" y="-7.5" font-family="Helvetica,sans-Serif" font-size="10.00">* Check()</text>
</a>
</g>
</g>
<!-- Node2 -->
<g id="node2" class="node">
<title>Node2</title>
<g id="a_node2"><a xlink:href="../../db/d08/class_kratos_1_1_f_i_c_data.html" target="_top" xlink:title=" ">
<polygon fill="white" stroke="#666666" points="79,-238.5 79,-504.5 213,-504.5 213,-238.5 79,-238.5"/>
<text text-anchor="start" x="87" y="-492.5" font-family="Helvetica,sans-Serif" font-size="10.00">Kratos::FICData&lt; TDim,</text>
<text text-anchor="middle" x="146" y="-481.5" font-family="Helvetica,sans-Serif" font-size="10.00"> TNumNodes, true &gt;</text>
<polyline fill="none" stroke="#666666" points="79,-474.5 213,-474.5"/>
<text text-anchor="start" x="87" y="-462.5" font-family="Helvetica,sans-Serif" font-size="10.00">+ Velocity</text>
<text text-anchor="start" x="87" y="-451.5" font-family="Helvetica,sans-Serif" font-size="10.00">+ MeshVelocity</text>
<text text-anchor="start" x="87" y="-440.5" font-family="Helvetica,sans-Serif" font-size="10.00">+ BodyForce</text>
<text text-anchor="start" x="87" y="-429.5" font-family="Helvetica,sans-Serif" font-size="10.00">+ Pressure</text>
<text text-anchor="start" x="87" y="-418.5" font-family="Helvetica,sans-Serif" font-size="10.00">+ Density</text>
<text text-anchor="start" x="87" y="-407.5" font-family="Helvetica,sans-Serif" font-size="10.00">+ DeltaTime</text>
<text text-anchor="start" x="87" y="-396.5" font-family="Helvetica,sans-Serif" font-size="10.00">+ FICBeta</text>
<text text-anchor="start" x="87" y="-385.5" font-family="Helvetica,sans-Serif" font-size="10.00">+ DynamicTau</text>
<polyline fill="none" stroke="#666666" points="79,-378.5 213,-378.5"/>
<text text-anchor="start" x="87" y="-366.5" font-family="Helvetica,sans-Serif" font-size="10.00">* NodalScalarData</text>
<text text-anchor="start" x="87" y="-355.5" font-family="Helvetica,sans-Serif" font-size="10.00">* NodalVectorData</text>
<text text-anchor="start" x="87" y="-344.5" font-family="Helvetica,sans-Serif" font-size="10.00">* Velocity</text>
<text text-anchor="start" x="87" y="-333.5" font-family="Helvetica,sans-Serif" font-size="10.00">* MeshVelocity</text>
<text text-anchor="start" x="87" y="-322.5" font-family="Helvetica,sans-Serif" font-size="10.00">* BodyForce</text>
<text text-anchor="start" x="87" y="-311.5" font-family="Helvetica,sans-Serif" font-size="10.00">* Pressure</text>
<text text-anchor="start" x="87" y="-300.5" font-family="Helvetica,sans-Serif" font-size="10.00">* Density</text>
<text text-anchor="start" x="87" y="-289.5" font-family="Helvetica,sans-Serif" font-size="10.00">* DeltaTime</text>
<text text-anchor="start" x="87" y="-278.5" font-family="Helvetica,sans-Serif" font-size="10.00">* FICBeta</text>
<text text-anchor="start" x="87" y="-267.5" font-family="Helvetica,sans-Serif" font-size="10.00">* DynamicTau</text>
<text text-anchor="start" x="87" y="-256.5" font-family="Helvetica,sans-Serif" font-size="10.00">* Initialize()</text>
<text text-anchor="start" x="87" y="-245.5" font-family="Helvetica,sans-Serif" font-size="10.00">* Check()</text>
</a>
</g>
</g>
<!-- Node2&#45;&gt;Node1 -->
<g id="edge1" class="edge">
<title>Node2&#45;&gt;Node1</title>
<path fill="none" stroke="#63b8ff" d="M146,-227.26C146,-218.2 146,-209.19 146,-200.4"/>
<polygon fill="none" stroke="#63b8ff" points="142.5,-227.24 146,-237.24 149.5,-227.24 142.5,-227.24"/>
</g>
<!-- Node3 -->
<g id="node3" class="node">
<title>Node3</title>
<g id="a_node3"><a xlink:title=" ">
<polygon fill="white" stroke="#666666" points="0,-613 0,-692 182,-692 182,-613 0,-613"/>
<text text-anchor="start" x="8" y="-680" font-family="Helvetica,sans-Serif" font-size="10.00">FluidElementData&lt; TDim,</text>
<text text-anchor="start" x="8" y="-669" font-family="Helvetica,sans-Serif" font-size="10.00"> TNumNodes, TElementIntegrates</text>
<text text-anchor="middle" x="91" y="-658" font-family="Helvetica,sans-Serif" font-size="10.00">InTime &gt;</text>
<polyline fill="none" stroke="#666666" points="0,-651 182,-651"/>
<text text-anchor="middle" x="91" y="-639" font-family="Helvetica,sans-Serif" font-size="10.00"> </text>
<polyline fill="none" stroke="#666666" points="0,-632 182,-632"/>
<text text-anchor="middle" x="91" y="-620" font-family="Helvetica,sans-Serif" font-size="10.00"> </text>
</a>
</g>
</g>
<!-- Node3&#45;&gt;Node2 -->
<g id="edge2" class="edge">
<title>Node3&#45;&gt;Node2</title>
<path fill="none" stroke="#63b8ff" d="M100.74,-602.08C106.14,-574.72 113.12,-539.28 119.99,-504.46"/>
<polygon fill="none" stroke="#63b8ff" points="97.33,-601.32 98.82,-611.81 104.19,-602.67 97.33,-601.32"/>
</g>
<!-- Node4 -->
<g id="node4" class="node">
<title>Node4</title>
<g id="a_node4"><a xlink:href="../../d9/dbb/class_kratos_1_1_internals_1_1_matrix.html" target="_top" xlink:title=" ">
<polygon fill="white" stroke="#666666" points="200,-552.5 200,-752.5 358,-752.5 358,-552.5 200,-552.5"/>
<text text-anchor="start" x="208" y="-740.5" font-family="Helvetica,sans-Serif" font-size="10.00">Kratos::Internals::</text>
<text text-anchor="start" x="208" y="-729.5" font-family="Helvetica,sans-Serif" font-size="10.00">Matrix&lt; double, TNumNodes</text>
<text text-anchor="start" x="208" y="-718.5" font-family="Helvetica,sans-Serif" font-size="10.00"> *(TDim+1), TNumNodes *</text>
<text text-anchor="middle" x="279" y="-707.5" font-family="Helvetica,sans-Serif" font-size="10.00">(TDim+1)&gt;</text>
<polyline fill="none" stroke="#666666" points="200,-700.5 358,-700.5"/>
<text text-anchor="middle" x="279" y="-688.5" font-family="Helvetica,sans-Serif" font-size="10.00"> </text>
<polyline fill="none" stroke="#666666" points="200,-681.5 358,-681.5"/>
<text text-anchor="start" x="208" y="-669.5" font-family="Helvetica,sans-Serif" font-size="10.00">+ Matrix()</text>
<text text-anchor="start" x="208" y="-658.5" font-family="Helvetica,sans-Serif" font-size="10.00">+ Matrix()</text>
<text text-anchor="start" x="208" y="-647.5" font-family="Helvetica,sans-Serif" font-size="10.00">+ Matrix()</text>
<text text-anchor="start" x="208" y="-636.5" font-family="Helvetica,sans-Serif" font-size="10.00">+ Matrix()</text>
<text text-anchor="start" x="208" y="-625.5" font-family="Helvetica,sans-Serif" font-size="10.00">+ Matrix()</text>
<text text-anchor="start" x="208" y="-614.5" font-family="Helvetica,sans-Serif" font-size="10.00">+ Matrix()</text>
<text text-anchor="start" x="208" y="-603.5" font-family="Helvetica,sans-Serif" font-size="10.00">+ Matrix()</text>
<text text-anchor="start" x="208" y="-592.5" font-family="Helvetica,sans-Serif" font-size="10.00">+ Matrix()</text>
<text text-anchor="start" x="208" y="-581.5" font-family="Helvetica,sans-Serif" font-size="10.00">+ operator=()</text>
<text text-anchor="start" x="208" y="-570.5" font-family="Helvetica,sans-Serif" font-size="10.00">+ operator=()</text>
<text text-anchor="start" x="208" y="-559.5" font-family="Helvetica,sans-Serif" font-size="10.00">and 30 more...</text>
</a>
</g>
</g>
<!-- Node4&#45;&gt;Node2 -->
<g id="edge3" class="edge">
<title>Node4&#45;&gt;Node2</title>
<path fill="none" stroke="#404040" d="M231.92,-552.74C226.2,-540.74 220.27,-528.3 214.32,-515.81"/>
<polygon fill="none" stroke="#404040" points="214.4,-516 208.21,-512.3 209.24,-505.16 215.43,-508.86 214.4,-516"/>
<text text-anchor="middle" x="235.5" y="-526" font-family="Helvetica,sans-Serif" font-size="10.00"> +LHS</text>
</g>
<!-- Node5 -->
<g id="node5" class="node">
<title>Node5</title>
<g id="a_node5"><a xlink:title=" ">
<polygon fill="white" stroke="#666666" points="108.5,-790.5 108.5,-880.5 273.5,-880.5 273.5,-790.5 108.5,-790.5"/>
<text text-anchor="start" x="116.5" y="-868.5" font-family="Helvetica,sans-Serif" font-size="10.00">AMatrix::MatrixExpression</text>
<text text-anchor="start" x="116.5" y="-857.5" font-family="Helvetica,sans-Serif" font-size="10.00">&lt; Matrix&lt; double, TSize1,</text>
<text text-anchor="start" x="116.5" y="-846.5" font-family="Helvetica,sans-Serif" font-size="10.00"> TSize2 &gt;, AMatrix::row_major</text>
<text text-anchor="middle" x="191" y="-835.5" font-family="Helvetica,sans-Serif" font-size="10.00">_access &gt;</text>
<polyline fill="none" stroke="#666666" points="108.5,-828.5 273.5,-828.5"/>
<text text-anchor="middle" x="191" y="-816.5" font-family="Helvetica,sans-Serif" font-size="10.00"> </text>
<polyline fill="none" stroke="#666666" points="108.5,-809.5 273.5,-809.5"/>
<text text-anchor="middle" x="191" y="-797.5" font-family="Helvetica,sans-Serif" font-size="10.00"> </text>
</a>
</g>
</g>
<!-- Node5&#45;&gt;Node4 -->
<g id="edge4" class="edge">
<title>Node5&#45;&gt;Node4</title>
<path fill="none" stroke="#63b8ff" d="M217.26,-780.48C221.61,-771.55 226.23,-762.04 230.91,-752.41"/>
<polygon fill="none" stroke="#63b8ff" points="214.19,-778.8 212.96,-789.32 220.48,-781.86 214.19,-778.8"/>
</g>
<!-- Node6 -->
<g id="node6" class="node">
<title>Node6</title>
<g id="a_node6"><a xlink:title=" ">
<polygon fill="white" stroke="#666666" points="291.5,-801.5 291.5,-869.5 440.5,-869.5 440.5,-801.5 291.5,-801.5"/>
<text text-anchor="start" x="299.5" y="-857.5" font-family="Helvetica,sans-Serif" font-size="10.00">AMatrix::MatrixStorage</text>
<text text-anchor="middle" x="366" y="-846.5" font-family="Helvetica,sans-Serif" font-size="10.00">&lt; double, TSize1, TSize2 &gt;</text>
<polyline fill="none" stroke="#666666" points="291.5,-839.5 440.5,-839.5"/>
<text text-anchor="middle" x="366" y="-827.5" font-family="Helvetica,sans-Serif" font-size="10.00"> </text>
<polyline fill="none" stroke="#666666" points="291.5,-820.5 440.5,-820.5"/>
<text text-anchor="middle" x="366" y="-808.5" font-family="Helvetica,sans-Serif" font-size="10.00"> </text>
</a>
</g>
</g>
<!-- Node6&#45;&gt;Node4 -->
<g id="edge5" class="edge">
<title>Node6&#45;&gt;Node4</title>
<path fill="none" stroke="#63b8ff" d="M345.39,-791.63C339.64,-779.66 333.13,-766.13 326.51,-752.33"/>
<polygon fill="none" stroke="#63b8ff" points="342.1,-792.86 349.59,-800.36 348.41,-789.83 342.1,-792.86"/>
</g>
</g>
</svg>
        <g id="navigator" transform="translate(0 0)" fill="#404254">
                <rect fill="#f2f5e9" fill-opacity="0.5" stroke="#606060" stroke-width=".5" x="0" y="0" width="60" height="60"/>
                <use id="zoomplus" xlink:href="#zoomPlus" x="17" y="9" onmousedown="handleZoom(evt,'in')"/>
                <use id="zoomminus" xlink:href="#zoomMin" x="42" y="9" onmousedown="handleZoom(evt,'out')"/>
                <use id="reset" xlink:href="#resetDef" x="30" y="36" onmousedown="handleReset()"/>
                <g id="arrowUp" xlink:href="#dirArrow" transform="translate(30 24)" onmousedown="handlePan(0,-1)">
                  <use xlink:href="#rim" fill="#404040">
                        <set attributeName="fill" to="#808080" begin="arrowUp.mouseover" end="arrowUp.mouseout"/>
                  </use>
                  <path fill="none" stroke="white" stroke-width="1.5" d="M0,-3.0v7 M-2.5,-0.5L0,-3.0L2.5,-0.5"/>
                </g>
                <g id="arrowRight" xlink:href="#dirArrow" transform="rotate(90) translate(36 -43)" onmousedown="handlePan(1,0)">
                  <use xlink:href="#rim" fill="#404040">
                        <set attributeName="fill" to="#808080" begin="arrowRight.mouseover" end="arrowRight.mouseout"/>
                  </use>
                  <path fill="none" stroke="white" stroke-width="1.5" d="M0,-3.0v7 M-2.5,-0.5L0,-3.0L2.5,-0.5"/>
                </g>
                <g id="arrowDown" xlink:href="#dirArrow" transform="rotate(180) translate(-30 -48)" onmousedown="handlePan(0,1)">
                  <use xlink:href="#rim" fill="#404040">
                        <set attributeName="fill" to="#808080" begin="arrowDown.mouseover" end="arrowDown.mouseout"/>
                  </use>
                  <path fill="none" stroke="white" stroke-width="1.5" d="M0,-3.0v7 M-2.5,-0.5L0,-3.0L2.5,-0.5"/>
                </g>
                <g id="arrowLeft" xlink:href="#dirArrow" transform="rotate(270) translate(-36 17)" onmousedown="handlePan(-1,0)">
                  <use xlink:href="#rim" fill="#404040">
                        <set attributeName="fill" to="#808080" begin="arrowLeft.mouseover" end="arrowLeft.mouseout"/>
                  </use>
                  <path fill="none" stroke="white" stroke-width="1.5" d="M0,-3.0v7 M-2.5,-0.5L0,-3.0L2.5,-0.5"/>
                </g>
        </g>
        <svg viewBox="0 0 15 15" width="100%" height="30px" preserveAspectRatio="xMaxYMin meet">
         <g id="arrow_out" transform="scale(0.3 0.3)">
          <a xlink:href="class_kratos_1_1_time_integrated_f_i_c_data__coll__graph_org.svg" target="_base">
           <rect id="button" ry="5" rx="5" y="6" x="6" height="38" width="38"
                fill="#f2f5e9" fill-opacity="0.5" stroke="#606060" stroke-width="1.0"/>
           <path id="arrow"
             d="M 11.500037,31.436501 C 11.940474,20.09759 22.043105,11.32322 32.158766,21.979434 L 37.068811,17.246167 C 37.068811,17.246167 37.088388,32 37.088388,32 L 22.160133,31.978069 C 22.160133,31.978069 26.997745,27.140456 26.997745,27.140456 C 18.528582,18.264221 13.291696,25.230495 11.500037,31.436501 z"
             style="fill:#404040;"/>
          </a>
         </g>
        </svg>
</svg>
