<?xml version="1.0" encoding="UTF-8" standalone="no"?>
<!DOCTYPE svg PUBLIC "-//W3C//DTD SVG 1.1//EN"
 "http://www.w3.org/Graphics/SVG/1.1/DTD/svg11.dtd">
<!-- Generated by graphviz version 2.43.0 (0)
 -->
<!-- Title: /home/runner/work/Documentation/Documentation/master/applications/ULFapplication/custom_processes/calculate_curvature.h Pages: 1 -->
<svg width="3893pt" height="978pt"
 viewBox="0.00 0.00 3893.26 978.00" xmlns="http://www.w3.org/2000/svg" xmlns:xlink="http://www.w3.org/1999/xlink">
<g id="graph0" class="graph" transform="scale(1 1) rotate(0) translate(4 974)">
<title>/home/runner/work/Documentation/Documentation/master/applications/ULFapplication/custom_processes/calculate_curvature.h</title>
<!-- Node1 -->
<g id="node1" class="node">
<title>Node1</title>
<g id="a_node1"><a xlink:title=" ">
<polygon fill="#bfbfbf" stroke="black" points="2497.26,-917.5 2497.26,-969.5 2691.26,-969.5 2691.26,-917.5 2497.26,-917.5"/>
<text text-anchor="start" x="2505.26" y="-957.5" font-family="Helvetica,sans-Serif" font-size="10.00">/home/runner/work/Documentation</text>
<text text-anchor="start" x="2505.26" y="-946.5" font-family="Helvetica,sans-Serif" font-size="10.00">/Documentation/master/applications</text>
<text text-anchor="start" x="2505.26" y="-935.5" font-family="Helvetica,sans-Serif" font-size="10.00">/ULFapplication/custom_processes</text>
<text text-anchor="middle" x="2594.26" y="-924.5" font-family="Helvetica,sans-Serif" font-size="10.00">/calculate_curvature.h</text>
</a>
</g>
</g>
<!-- Node2 -->
<g id="node2" class="node">
<title>Node2</title>
<g id="a_node2"><a xlink:title=" ">
<polygon fill="none" stroke="#bfbfbf" points="2061.26,-6 2061.26,-25 2105.26,-25 2105.26,-6 2061.26,-6"/>
<text text-anchor="middle" x="2083.26" y="-13" font-family="Helvetica,sans-Serif" font-size="10.00">string</text>
</a>
</g>
</g>
<!-- Node1&#45;&gt;Node2 -->
<g id="edge1" class="edge">
<title>Node1&#45;&gt;Node2</title>
<path fill="none" stroke="midnightblue" d="M2497,-940.07C2126.78,-930.2 826.26,-889.5 826.26,-805 826.26,-805 826.26,-805 826.26,-747 826.26,-607.59 990.69,-688.92 1119.26,-635 1427.55,-505.69 1561.55,-552.97 1803.26,-322 1895.37,-233.97 1837.76,-150.2 1934.26,-67 1967.76,-38.11 2018.52,-25.56 2051.28,-20.24"/>
<polygon fill="midnightblue" stroke="midnightblue" points="2051.87,-23.69 2061.24,-18.76 2050.83,-16.77 2051.87,-23.69"/>
</g>
<!-- Node3 -->
<g id="node3" class="node">
<title>Node3</title>
<g id="a_node3"><a xlink:title=" ">
<polygon fill="none" stroke="#bfbfbf" points="3241.26,-6 3241.26,-25 3301.26,-25 3301.26,-6 3241.26,-6"/>
<text text-anchor="middle" x="3271.26" y="-13" font-family="Helvetica,sans-Serif" font-size="10.00">iostream</text>
</a>
</g>
</g>
<!-- Node1&#45;&gt;Node3 -->
<g id="edge2" class="edge">
<title>Node1&#45;&gt;Node3</title>
<path fill="none" stroke="midnightblue" d="M2691.3,-939.91C2954.33,-930.28 3661.26,-885.94 3661.26,-687.5 3661.26,-687.5 3661.26,-687.5 3661.26,-624 3661.26,-541.94 3689.26,-523.56 3689.26,-441.5 3689.26,-441.5 3689.26,-441.5 3689.26,-132 3689.26,-90.51 3659.49,-85.29 3622.26,-67 3568.18,-40.44 3391.64,-24.97 3311.49,-19.16"/>
<polygon fill="midnightblue" stroke="midnightblue" points="3311.52,-15.66 3301.3,-18.44 3311.02,-22.64 3311.52,-15.66"/>
</g>
<!-- Node4 -->
<g id="node4" class="node">
<title>Node4</title>
<g id="a_node4"><a xlink:title=" ">
<polygon fill="none" stroke="#bfbfbf" points="3699.26,-856 3699.26,-875 3763.26,-875 3763.26,-856 3699.26,-856"/>
<text text-anchor="middle" x="3731.26" y="-863" font-family="Helvetica,sans-Serif" font-size="10.00">algorithm</text>
</a>
</g>
</g>
<!-- Node1&#45;&gt;Node4 -->
<g id="edge3" class="edge">
<title>Node1&#45;&gt;Node4</title>
<path fill="none" stroke="midnightblue" d="M2691.68,-940.11C2922.22,-933.97 3496.07,-915.59 3685.26,-881 3689.52,-880.22 3693.94,-879.16 3698.28,-877.97"/>
<polygon fill="midnightblue" stroke="midnightblue" points="3699.56,-881.24 3708.14,-875.02 3697.56,-874.54 3699.56,-881.24"/>
</g>
<!-- Node5 -->
<g id="node5" class="node">
<title>Node5</title>
<g id="a_node5"><a xlink:title=" ">
<polygon fill="none" stroke="#bfbfbf" points="329.76,-559.5 329.76,-578.5 448.76,-578.5 448.76,-559.5 329.76,-559.5"/>
<text text-anchor="middle" x="389.26" y="-566.5" font-family="Helvetica,sans-Serif" font-size="10.00">pybind11/pybind11.h</text>
</a>
</g>
</g>
<!-- Node1&#45;&gt;Node5 -->
<g id="edge4" class="edge">
<title>Node1&#45;&gt;Node5</title>
<path fill="none" stroke="midnightblue" d="M2497,-942C2091.85,-939.61 554.89,-927.52 463.26,-881 425.13,-861.64 404.26,-847.76 404.26,-805 404.26,-805 404.26,-805 404.26,-685.5 404.26,-651.08 397.62,-611.36 393.18,-588.61"/>
<polygon fill="midnightblue" stroke="midnightblue" points="396.57,-587.75 391.16,-578.64 389.71,-589.14 396.57,-587.75"/>
</g>
<!-- Node6 -->
<g id="node6" class="node">
<title>Node6</title>
<g id="a_node6"><a xlink:href="../../df/d67/define_8h.html" target="_top" xlink:title=" ">
<polygon fill="none" stroke="black" points="1146.76,-123.5 1146.76,-142.5 1245.76,-142.5 1245.76,-123.5 1146.76,-123.5"/>
<text text-anchor="middle" x="1196.26" y="-130.5" font-family="Helvetica,sans-Serif" font-size="10.00">includes/define.h</text>
</a>
</g>
</g>
<!-- Node1&#45;&gt;Node6 -->
<g id="edge5" class="edge">
<title>Node1&#45;&gt;Node6</title>
<path fill="none" stroke="midnightblue" d="M2497.1,-941.58C2129,-937.8 831.77,-921.69 651.26,-881 568.93,-862.44 477.26,-889.39 477.26,-805 477.26,-805 477.26,-805 477.26,-624 477.26,-411.48 469.4,-287.3 652.26,-179 693.13,-154.79 1003.75,-140.9 1136.45,-136.01"/>
<polygon fill="midnightblue" stroke="midnightblue" points="1136.59,-139.51 1146.45,-135.65 1136.33,-132.51 1136.59,-139.51"/>
</g>
<!-- Node18 -->
<g id="node13" class="node">
<title>Node18</title>
<g id="a_node13"><a xlink:href="../../dd/d62/define__python_8h.html" target="_top" xlink:title=" ">
<polygon fill="none" stroke="black" points="218.26,-615.5 218.26,-634.5 356.26,-634.5 356.26,-615.5 218.26,-615.5"/>
<text text-anchor="middle" x="287.26" y="-622.5" font-family="Helvetica,sans-Serif" font-size="10.00">includes/define_python.h</text>
</a>
</g>
</g>
<!-- Node1&#45;&gt;Node18 -->
<g id="edge18" class="edge">
<title>Node1&#45;&gt;Node18</title>
<path fill="none" stroke="midnightblue" d="M2497.12,-942.22C2083.28,-940.71 484.05,-931.62 390.26,-881 354.02,-861.44 337.26,-846.18 337.26,-805 337.26,-805 337.26,-805 337.26,-747 337.26,-707.42 314.12,-665.7 299.33,-643.07"/>
<polygon fill="midnightblue" stroke="midnightblue" points="302.1,-640.91 293.59,-634.6 296.3,-644.84 302.1,-640.91"/>
</g>
<!-- Node21 -->
<g id="node16" class="node">
<title>Node21</title>
<g id="a_node16"><a xlink:href="../../dd/dfe/model__part_8h.html" target="_top" xlink:title=" ">
<polygon fill="none" stroke="black" points="2531.76,-856 2531.76,-875 2656.76,-875 2656.76,-856 2531.76,-856"/>
<text text-anchor="middle" x="2594.26" y="-863" font-family="Helvetica,sans-Serif" font-size="10.00">includes/model_part.h</text>
</a>
</g>
</g>
<!-- Node1&#45;&gt;Node21 -->
<g id="edge24" class="edge">
<title>Node1&#45;&gt;Node21</title>
<path fill="none" stroke="midnightblue" d="M2594.26,-917.19C2594.26,-906.76 2594.26,-894.9 2594.26,-885.27"/>
<polygon fill="midnightblue" stroke="midnightblue" points="2597.76,-885.21 2594.26,-875.21 2590.76,-885.21 2597.76,-885.21"/>
</g>
<!-- Node91 -->
<g id="node29" class="node">
<title>Node91</title>
<g id="a_node29"><a xlink:href="../../d1/d77/node_8h.html" target="_top" xlink:title=" ">
<polygon fill="none" stroke="black" points="1726.76,-615.5 1726.76,-634.5 1819.76,-634.5 1819.76,-615.5 1726.76,-615.5"/>
<text text-anchor="middle" x="1773.26" y="-622.5" font-family="Helvetica,sans-Serif" font-size="10.00">includes/node.h</text>
</a>
</g>
</g>
<!-- Node1&#45;&gt;Node91 -->
<g id="edge166" class="edge">
<title>Node1&#45;&gt;Node91</title>
<path fill="none" stroke="midnightblue" d="M2497.03,-942.84C2133.39,-943.62 871.14,-941.95 812.26,-881 679.81,-743.9 1491.25,-653.56 1716.45,-631.34"/>
<polygon fill="midnightblue" stroke="midnightblue" points="1717.11,-634.79 1726.72,-630.34 1716.43,-627.83 1717.11,-634.79"/>
</g>
<!-- Node104 -->
<g id="node40" class="node">
<title>Node104</title>
<g id="a_node40"><a xlink:href="../../d4/dfe/element_8h.html" target="_top" xlink:title=" ">
<polygon fill="none" stroke="red" points="2662.26,-738.5 2662.26,-757.5 2772.26,-757.5 2772.26,-738.5 2662.26,-738.5"/>
<text text-anchor="middle" x="2717.26" y="-745.5" font-family="Helvetica,sans-Serif" font-size="10.00">includes/element.h</text>
</a>
</g>
</g>
<!-- Node1&#45;&gt;Node104 -->
<g id="edge178" class="edge">
<title>Node1&#45;&gt;Node104</title>
<path fill="none" stroke="midnightblue" d="M2629.99,-917.25C2642.42,-907.1 2655.64,-894.58 2665.26,-881 2690.79,-844.94 2706.07,-794.61 2712.93,-767.71"/>
<polygon fill="midnightblue" stroke="midnightblue" points="2716.4,-768.27 2715.36,-757.72 2709.6,-766.61 2716.4,-768.27"/>
</g>
<!-- Node121 -->
<g id="node41" class="node">
<title>Node121</title>
<g id="a_node41"><a xlink:href="../../d7/d6c/condition_8h.html" target="_top" xlink:title=" ">
<polygon fill="none" stroke="red" points="2503.26,-559.5 2503.26,-578.5 2617.26,-578.5 2617.26,-559.5 2503.26,-559.5"/>
<text text-anchor="middle" x="2560.26" y="-566.5" font-family="Helvetica,sans-Serif" font-size="10.00">includes/condition.h</text>
</a>
</g>
</g>
<!-- Node1&#45;&gt;Node121 -->
<g id="edge177" class="edge">
<title>Node1&#45;&gt;Node121</title>
<path fill="none" stroke="midnightblue" d="M2648.36,-917.44C2716.09,-882.26 2818.93,-813.96 2781.26,-738 2741.32,-657.48 2642.3,-605.12 2591.46,-582.63"/>
<polygon fill="midnightblue" stroke="midnightblue" points="2592.83,-579.4 2582.26,-578.65 2590.05,-585.83 2592.83,-579.4"/>
</g>
<!-- Node87 -->
<g id="node45" class="node">
<title>Node87</title>
<g id="a_node45"><a xlink:href="../../d8/d88/math__utils_8h.html" target="_top" xlink:title=" ">
<polygon fill="none" stroke="red" points="3125.76,-297 3125.76,-316 3242.76,-316 3242.76,-297 3125.76,-297"/>
<text text-anchor="middle" x="3184.26" y="-304" font-family="Helvetica,sans-Serif" font-size="10.00">utilities/math_utils.h</text>
</a>
</g>
</g>
<!-- Node1&#45;&gt;Node87 -->
<g id="edge167" class="edge">
<title>Node1&#45;&gt;Node87</title>
<path fill="none" stroke="midnightblue" d="M2691.27,-935.08C2897.39,-918.02 3360.26,-872.22 3360.26,-805 3360.26,-805 3360.26,-805 3360.26,-506.5 3360.26,-468.74 3357.56,-456.17 3336.26,-425 3303.31,-376.8 3244.35,-339.58 3210.36,-320.86"/>
<polygon fill="midnightblue" stroke="midnightblue" points="3211.94,-317.73 3201.48,-316.08 3208.62,-323.9 3211.94,-317.73"/>
</g>
<!-- Node124 -->
<g id="node47" class="node">
<title>Node124</title>
<g id="a_node47"><a xlink:title=" ">
<polygon fill="none" stroke="#bfbfbf" points="3781.26,-850.5 3781.26,-880.5 3885.26,-880.5 3885.26,-850.5 3781.26,-850.5"/>
<text text-anchor="start" x="3789.26" y="-868.5" font-family="Helvetica,sans-Serif" font-size="10.00">utilities/geometry</text>
<text text-anchor="middle" x="3833.26" y="-857.5" font-family="Helvetica,sans-Serif" font-size="10.00">_utilities.h</text>
</a>
</g>
</g>
<!-- Node1&#45;&gt;Node124 -->
<g id="edge171" class="edge">
<title>Node1&#45;&gt;Node124</title>
<path fill="none" stroke="midnightblue" d="M2691.42,-943.36C2891.98,-943.84 3366.23,-938.31 3770.98,-881"/>
<polygon fill="midnightblue" stroke="midnightblue" points="3771.73,-884.43 3781.13,-879.55 3770.74,-877.5 3771.73,-884.43"/>
</g>
<!-- Node125 -->
<g id="node48" class="node">
<title>Node125</title>
<g id="a_node48"><a xlink:href="../../d1/db8/openmp__utils_8h.html" target="_top" xlink:title=" ">
<polygon fill="none" stroke="red" points="3661.76,-794.5 3661.76,-813.5 3792.76,-813.5 3792.76,-794.5 3661.76,-794.5"/>
<text text-anchor="middle" x="3727.26" y="-801.5" font-family="Helvetica,sans-Serif" font-size="10.00">utilities/openmp_utils.h</text>
</a>
</g>
</g>
<!-- Node1&#45;&gt;Node125 -->
<g id="edge172" class="edge">
<title>Node1&#45;&gt;Node125</title>
<path fill="none" stroke="midnightblue" d="M2691.39,-940.62C2935.43,-935.37 3560.99,-918.4 3647.26,-881 3662.55,-874.37 3694.02,-841.63 3712.6,-821.35"/>
<polygon fill="midnightblue" stroke="midnightblue" points="3715.35,-823.53 3719.48,-813.77 3710.17,-818.83 3715.35,-823.53"/>
</g>
<!-- Node133 -->
<g id="node49" class="node">
<title>Node133</title>
<g id="a_node49"><a xlink:href="../../da/d42/process_8h.html" target="_top" xlink:title=" ">
<polygon fill="none" stroke="red" points="709.76,-297 709.76,-316 824.76,-316 824.76,-297 709.76,-297"/>
<text text-anchor="middle" x="767.26" y="-304" font-family="Helvetica,sans-Serif" font-size="10.00">processes/process.h</text>
</a>
</g>
</g>
<!-- Node1&#45;&gt;Node133 -->
<g id="edge174" class="edge">
<title>Node1&#45;&gt;Node133</title>
<path fill="none" stroke="midnightblue" d="M2497.04,-941.2C2124.03,-935.96 801.04,-915.04 718.26,-881 672.3,-862.1 636.26,-854.69 636.26,-805 636.26,-805 636.26,-805 636.26,-747 636.26,-571.41 616.28,-509.37 705.26,-358 714.17,-342.83 729.46,-330.3 742.62,-321.52"/>
<polygon fill="midnightblue" stroke="midnightblue" points="744.7,-324.35 751.29,-316.05 740.96,-318.43 744.7,-324.35"/>
</g>
<!-- Node134 -->
<g id="node50" class="node">
<title>Node134</title>
<g id="a_node50"><a xlink:href="../../d9/d45/_u_l_f__application_8h.html" target="_top" xlink:title=" ">
<polygon fill="none" stroke="red" points="1006.26,-615.5 1006.26,-634.5 1110.26,-634.5 1110.26,-615.5 1006.26,-615.5"/>
<text text-anchor="middle" x="1058.26" y="-622.5" font-family="Helvetica,sans-Serif" font-size="10.00">ULF_application.h</text>
</a>
</g>
</g>
<!-- Node1&#45;&gt;Node134 -->
<g id="edge179" class="edge">
<title>Node1&#45;&gt;Node134</title>
<path fill="none" stroke="midnightblue" d="M2496.99,-942.87C2130.92,-943.8 853.79,-942.6 794.26,-881 755.3,-840.69 611.56,-888.58 812.26,-671 836.5,-644.72 931.36,-633.63 995.94,-629.06"/>
<polygon fill="midnightblue" stroke="midnightblue" points="996.29,-632.55 1006.03,-628.38 995.82,-625.56 996.29,-632.55"/>
</g>
<!-- Node7 -->
<g id="node7" class="node">
<title>Node7</title>
<g id="a_node7"><a xlink:title=" ">
<polygon fill="none" stroke="#bfbfbf" points="1599.76,-6 1599.76,-25 1664.76,-25 1664.76,-6 1599.76,-6"/>
<text text-anchor="middle" x="1632.26" y="-13" font-family="Helvetica,sans-Serif" font-size="10.00">stdexcept</text>
</a>
</g>
</g>
<!-- Node6&#45;&gt;Node7 -->
<g id="edge6" class="edge">
<title>Node6&#45;&gt;Node7</title>
<path fill="none" stroke="midnightblue" d="M1228.67,-123.41C1306.41,-102.82 1503.41,-50.63 1590.15,-27.65"/>
<polygon fill="midnightblue" stroke="midnightblue" points="1591.15,-31.01 1599.92,-25.06 1589.36,-24.24 1591.15,-31.01"/>
</g>
<!-- Node8 -->
<g id="node8" class="node">
<title>Node8</title>
<g id="a_node8"><a xlink:title=" ">
<polygon fill="none" stroke="#bfbfbf" points="577.26,-6 577.26,-25 633.26,-25 633.26,-6 577.26,-6"/>
<text text-anchor="middle" x="605.26" y="-13" font-family="Helvetica,sans-Serif" font-size="10.00">sstream</text>
</a>
</g>
</g>
<!-- Node6&#45;&gt;Node8 -->
<g id="edge7" class="edge">
<title>Node6&#45;&gt;Node8</title>
<path fill="none" stroke="midnightblue" d="M1152.32,-123.41C1040.74,-101.61 747.88,-44.37 643.16,-23.91"/>
<polygon fill="midnightblue" stroke="midnightblue" points="643.83,-20.47 633.34,-21.99 642.49,-27.34 643.83,-20.47"/>
</g>
<!-- Node9 -->
<g id="node9" class="node">
<title>Node9</title>
<g id="a_node9"><a xlink:href="../../dc/d25/kratos__export__api_8h.html" target="_top" xlink:title=" ">
<polygon fill="none" stroke="black" points="1429.26,-0.5 1429.26,-30.5 1557.26,-30.5 1557.26,-0.5 1429.26,-0.5"/>
<text text-anchor="start" x="1437.26" y="-18.5" font-family="Helvetica,sans-Serif" font-size="10.00">includes/kratos_export</text>
<text text-anchor="middle" x="1493.26" y="-7.5" font-family="Helvetica,sans-Serif" font-size="10.00">_api.h</text>
</a>
</g>
</g>
<!-- Node6&#45;&gt;Node9 -->
<g id="edge8" class="edge">
<title>Node6&#45;&gt;Node9</title>
<path fill="none" stroke="midnightblue" d="M1218.58,-123.32C1267.08,-104.46 1382.92,-59.41 1447.6,-34.26"/>
<polygon fill="midnightblue" stroke="midnightblue" points="1449.09,-37.43 1457.14,-30.55 1446.55,-30.91 1449.09,-37.43"/>
</g>
<!-- Node10 -->
<g id="node10" class="node">
<title>Node10</title>
<g id="a_node10"><a xlink:href="../../d9/dc0/smart__pointers_8h.html" target="_top" xlink:title=" ">
<polygon fill="none" stroke="red" points="1124.76,-67.5 1124.76,-86.5 1267.76,-86.5 1267.76,-67.5 1124.76,-67.5"/>
<text text-anchor="middle" x="1196.26" y="-74.5" font-family="Helvetica,sans-Serif" font-size="10.00">includes/smart_pointers.h</text>
</a>
</g>
</g>
<!-- Node6&#45;&gt;Node10 -->
<g id="edge9" class="edge">
<title>Node6&#45;&gt;Node10</title>
<path fill="none" stroke="midnightblue" d="M1196.26,-123.08C1196.26,-116.01 1196.26,-105.86 1196.26,-96.99"/>
<polygon fill="midnightblue" stroke="midnightblue" points="1199.76,-96.75 1196.26,-86.75 1192.76,-96.75 1199.76,-96.75"/>
</g>
<!-- Node14 -->
<g id="node12" class="node">
<title>Node14</title>
<g id="a_node12"><a xlink:href="../../dd/d2d/exception_8h.html" target="_top" xlink:title=" ">
<polygon fill="none" stroke="red" points="1585.76,-67.5 1585.76,-86.5 1702.76,-86.5 1702.76,-67.5 1585.76,-67.5"/>
<text text-anchor="middle" x="1644.26" y="-74.5" font-family="Helvetica,sans-Serif" font-size="10.00">includes/exception.h</text>
</a>
</g>
</g>
<!-- Node6&#45;&gt;Node14 -->
<g id="edge12" class="edge">
<title>Node6&#45;&gt;Node14</title>
<path fill="none" stroke="midnightblue" d="M1246,-126.08C1317.83,-117.53 1454.74,-101.17 1571.26,-87 1572.72,-86.82 1574.2,-86.64 1575.7,-86.46"/>
<polygon fill="midnightblue" stroke="midnightblue" points="1576.19,-89.93 1585.69,-85.24 1575.34,-82.98 1576.19,-89.93"/>
</g>
<!-- Node10&#45;&gt;Node3 -->
<g id="edge10" class="edge">
<title>Node10&#45;&gt;Node3</title>
<path fill="none" stroke="midnightblue" d="M1267.98,-73.94C1599.42,-64.44 2977.31,-24.93 3231.01,-17.65"/>
<polygon fill="midnightblue" stroke="midnightblue" points="3231.35,-21.15 3241.24,-17.36 3231.15,-14.15 3231.35,-21.15"/>
</g>
<!-- Node13 -->
<g id="node11" class="node">
<title>Node13</title>
<g id="a_node11"><a xlink:title=" ">
<polygon fill="none" stroke="#bfbfbf" points="201.26,-0.5 201.26,-30.5 325.26,-30.5 325.26,-0.5 201.26,-0.5"/>
<text text-anchor="start" x="209.26" y="-18.5" font-family="Helvetica,sans-Serif" font-size="10.00">intrusive_ptr/intrusive</text>
<text text-anchor="middle" x="263.26" y="-7.5" font-family="Helvetica,sans-Serif" font-size="10.00">_ptr.hpp</text>
</a>
</g>
</g>
<!-- Node10&#45;&gt;Node13 -->
<g id="edge11" class="edge">
<title>Node10&#45;&gt;Node13</title>
<path fill="none" stroke="midnightblue" d="M1124.59,-71.43C951.07,-60.36 509.84,-32.23 335.61,-21.11"/>
<polygon fill="midnightblue" stroke="midnightblue" points="335.72,-17.61 325.52,-20.47 335.28,-24.6 335.72,-17.61"/>
</g>
<!-- Node14&#45;&gt;Node2 -->
<g id="edge14" class="edge">
<title>Node14&#45;&gt;Node2</title>
<path fill="none" stroke="midnightblue" d="M1703.01,-68.04C1796.76,-55.33 1977.12,-30.89 2050.75,-20.91"/>
<polygon fill="midnightblue" stroke="midnightblue" points="2051.37,-24.35 2060.81,-19.54 2050.43,-17.42 2051.37,-24.35"/>
</g>
<!-- Node14&#45;&gt;Node3 -->
<g id="edge15" class="edge">
<title>Node14&#45;&gt;Node3</title>
<path fill="none" stroke="midnightblue" d="M1703.12,-73.85C1963.91,-64.31 3011.83,-25.99 3230.96,-17.97"/>
<polygon fill="midnightblue" stroke="midnightblue" points="3231.19,-21.47 3241.05,-17.6 3230.93,-14.47 3231.19,-21.47"/>
</g>
<!-- Node14&#45;&gt;Node7 -->
<g id="edge13" class="edge">
<title>Node14&#45;&gt;Node7</title>
<path fill="none" stroke="midnightblue" d="M1642.54,-67.48C1640.83,-58.99 1638.15,-45.7 1635.95,-34.82"/>
<polygon fill="midnightblue" stroke="midnightblue" points="1639.38,-34.12 1633.97,-25.01 1632.52,-35.5 1639.38,-34.12"/>
</g>
<!-- Node14&#45;&gt;Node8 -->
<g id="edge16" class="edge">
<title>Node14&#45;&gt;Node8</title>
<path fill="none" stroke="midnightblue" d="M1585.52,-70.94C1568.65,-69.57 1550.23,-68.15 1533.26,-67 1188.35,-43.64 770.74,-24.01 643.72,-18.23"/>
<polygon fill="midnightblue" stroke="midnightblue" points="643.51,-14.71 633.37,-17.76 643.2,-21.71 643.51,-14.71"/>
</g>
<!-- Node14&#45;&gt;Node9 -->
<g id="edge17" class="edge">
<title>Node14&#45;&gt;Node9</title>
<path fill="none" stroke="midnightblue" d="M1622.62,-67.48C1600.74,-58.85 1566.25,-45.26 1538.39,-34.29"/>
<polygon fill="midnightblue" stroke="midnightblue" points="1539.43,-30.93 1528.84,-30.52 1536.86,-37.45 1539.43,-30.93"/>
</g>
<!-- Node18&#45;&gt;Node5 -->
<g id="edge20" class="edge">
<title>Node18&#45;&gt;Node5</title>
<path fill="none" stroke="midnightblue" d="M303.64,-615.32C319.93,-606.7 345.12,-593.36 363.97,-583.39"/>
<polygon fill="midnightblue" stroke="midnightblue" points="365.71,-586.43 372.91,-578.65 362.43,-580.24 365.71,-586.43"/>
</g>
<!-- Node18&#45;&gt;Node6 -->
<g id="edge23" class="edge">
<title>Node18&#45;&gt;Node6</title>
<path fill="none" stroke="midnightblue" d="M289.03,-615.35C292.8,-596.19 301.26,-548.7 301.26,-508.5 301.26,-508.5 301.26,-508.5 301.26,-439.5 301.26,-289.66 381.98,-247.46 515.26,-179 569.73,-151.02 980.39,-138.88 1136.39,-135.25"/>
<polygon fill="midnightblue" stroke="midnightblue" points="1136.81,-138.74 1146.73,-135.01 1136.65,-131.74 1136.81,-138.74"/>
</g>
<!-- Node18&#45;&gt;Node13 -->
<g id="edge19" class="edge">
<title>Node18&#45;&gt;Node13</title>
<path fill="none" stroke="midnightblue" d="M218.06,-620.67C148.8,-615.92 48.58,-604.72 20.26,-579 -3.77,-557.18 1.26,-540.95 1.26,-508.5 1.26,-508.5 1.26,-508.5 1.26,-132 1.26,-48.75 113.39,-24.99 190.94,-18.52"/>
<polygon fill="midnightblue" stroke="midnightblue" points="191.46,-21.99 201.17,-17.74 190.93,-15.01 191.46,-21.99"/>
</g>
<!-- Node19 -->
<g id="node14" class="node">
<title>Node19</title>
<g id="a_node14"><a xlink:title=" ">
<polygon fill="none" stroke="#bfbfbf" points="187.26,-559.5 187.26,-578.5 273.26,-578.5 273.26,-559.5 187.26,-559.5"/>
<text text-anchor="middle" x="230.26" y="-566.5" font-family="Helvetica,sans-Serif" font-size="10.00">pybind11/stl.h</text>
</a>
</g>
</g>
<!-- Node18&#45;&gt;Node19 -->
<g id="edge21" class="edge">
<title>Node18&#45;&gt;Node19</title>
<path fill="none" stroke="midnightblue" d="M278.1,-615.32C269.75,-607.42 257.22,-595.55 247.08,-585.94"/>
<polygon fill="midnightblue" stroke="midnightblue" points="249.25,-583.17 239.58,-578.83 244.43,-588.25 249.25,-583.17"/>
</g>
<!-- Node20 -->
<g id="node15" class="node">
<title>Node20</title>
<g id="a_node15"><a xlink:title=" ">
<polygon fill="none" stroke="#bfbfbf" points="29.26,-559.5 29.26,-578.5 169.26,-578.5 169.26,-559.5 29.26,-559.5"/>
<text text-anchor="middle" x="99.26" y="-566.5" font-family="Helvetica,sans-Serif" font-size="10.00">pybind11/stl/filesystem.h</text>
</a>
</g>
</g>
<!-- Node18&#45;&gt;Node20 -->
<g id="edge22" class="edge">
<title>Node18&#45;&gt;Node20</title>
<path fill="none" stroke="midnightblue" d="M257.47,-615.44C225.43,-606.24 174.32,-591.56 138.9,-581.39"/>
<polygon fill="midnightblue" stroke="midnightblue" points="139.48,-577.91 128.91,-578.52 137.55,-584.64 139.48,-577.91"/>
</g>
<!-- Node21&#45;&gt;Node2 -->
<g id="edge25" class="edge">
<title>Node21&#45;&gt;Node2</title>
<path fill="none" stroke="midnightblue" d="M2657.04,-863.85C2773.18,-861.71 3016.43,-852.61 3090.26,-814 3312.37,-697.85 3392.34,-524.51 3301.26,-291 3221.15,-85.63 3047.12,-126.15 2757.26,-67 2514.29,-17.42 2213.16,-15.28 2115.47,-16.05"/>
<polygon fill="midnightblue" stroke="midnightblue" points="2115.32,-12.55 2105.35,-16.14 2115.39,-19.55 2115.32,-12.55"/>
</g>
<!-- Node21&#45;&gt;Node3 -->
<g id="edge26" class="edge">
<title>Node21&#45;&gt;Node3</title>
<path fill="none" stroke="midnightblue" d="M2656.87,-862.29C2777.56,-857.42 3037.91,-843.74 3122.26,-814 3429.24,-705.77 3651.26,-633 3651.26,-307.5 3651.26,-307.5 3651.26,-307.5 3651.26,-132 3651.26,-92.08 3624.61,-85.55 3589.26,-67 3541.66,-42.03 3386.15,-26.08 3311.69,-19.69"/>
<polygon fill="midnightblue" stroke="midnightblue" points="3311.58,-16.16 3301.32,-18.81 3310.99,-23.14 3311.58,-16.16"/>
</g>
<!-- Node21&#45;&gt;Node6 -->
<g id="edge29" class="edge">
<title>Node21&#45;&gt;Node6</title>
<path fill="none" stroke="midnightblue" d="M2531.29,-863.83C2236.81,-860.54 1006.46,-844.97 931.26,-814 678.42,-709.88 525.36,-551.88 607.26,-291 625.42,-233.12 632.77,-209.41 685.26,-179 723.48,-156.85 1009.44,-142 1136.14,-136.44"/>
<polygon fill="midnightblue" stroke="midnightblue" points="1136.6,-139.93 1146.43,-136 1136.29,-132.93 1136.6,-139.93"/>
</g>
<!-- Node21&#45;&gt;Node8 -->
<g id="edge27" class="edge">
<title>Node21&#45;&gt;Node8</title>
<path fill="none" stroke="midnightblue" d="M2531.69,-864.36C2242.74,-863.48 1044.64,-857.23 883.26,-814 832.55,-800.42 824.47,-784.67 779.26,-758 663.67,-689.82 359.37,-509.96 301.26,-389 273.73,-331.71 301.26,-309.56 301.26,-246 301.26,-246 301.26,-246 301.26,-132 301.26,-95.82 319.61,-86.22 350.26,-67 418.04,-24.49 514.23,-16.64 566.98,-15.83"/>
<polygon fill="midnightblue" stroke="midnightblue" points="567.27,-19.33 577.24,-15.75 567.22,-12.33 567.27,-19.33"/>
</g>
<!-- Node22 -->
<g id="node17" class="node">
<title>Node22</title>
<g id="a_node17"><a xlink:title=" ">
<polygon fill="none" stroke="#bfbfbf" points="1421.76,-235.5 1421.76,-254.5 1474.76,-254.5 1474.76,-235.5 1421.76,-235.5"/>
<text text-anchor="middle" x="1448.26" y="-242.5" font-family="Helvetica,sans-Serif" font-size="10.00">cstddef</text>
</a>
</g>
</g>
<!-- Node21&#45;&gt;Node22 -->
<g id="edge28" class="edge">
<title>Node21&#45;&gt;Node22</title>
<path fill="none" stroke="midnightblue" d="M2531.52,-864.62C2242.32,-864.94 1049.3,-863.22 988.26,-814 889.91,-734.69 920.73,-367.83 928.26,-358 987.55,-280.57 1302.98,-254.67 1411.53,-247.97"/>
<polygon fill="midnightblue" stroke="midnightblue" points="1411.89,-251.46 1421.67,-247.37 1411.47,-244.47 1411.89,-251.46"/>
</g>
<!-- Node23 -->
<g id="node18" class="node">
<title>Node23</title>
<g id="a_node18"><a xlink:href="../../dd/d5f/serializer_8h.html" target="_top" xlink:title=" ">
<polygon fill="none" stroke="red" points="2557.76,-235.5 2557.76,-254.5 2670.76,-254.5 2670.76,-235.5 2557.76,-235.5"/>
<text text-anchor="middle" x="2614.26" y="-242.5" font-family="Helvetica,sans-Serif" font-size="10.00">includes/serializer.h</text>
</a>
</g>
</g>
<!-- Node21&#45;&gt;Node23 -->
<g id="edge30" class="edge">
<title>Node21&#45;&gt;Node23</title>
<path fill="none" stroke="midnightblue" d="M2656.9,-860.87C2777.09,-852.17 3028.26,-824.92 3028.26,-749 3028.26,-749 3028.26,-749 3028.26,-624 3028.26,-576.3 2796.73,-317.79 2757.26,-291 2732.91,-274.48 2702.18,-263.77 2675.45,-256.97"/>
<polygon fill="midnightblue" stroke="midnightblue" points="2675.96,-253.49 2665.42,-254.55 2674.32,-260.3 2675.96,-253.49"/>
</g>
<!-- Node56 -->
<g id="node20" class="node">
<title>Node56</title>
<g id="a_node20"><a xlink:href="../../d1/d8c/logger_8h.html" target="_top" xlink:title=" ">
<polygon fill="none" stroke="red" points="2917.26,-179.5 2917.26,-198.5 3037.26,-198.5 3037.26,-179.5 2917.26,-179.5"/>
<text text-anchor="middle" x="2977.26" y="-186.5" font-family="Helvetica,sans-Serif" font-size="10.00">input_output/logger.h</text>
</a>
</g>
</g>
<!-- Node21&#45;&gt;Node56 -->
<g id="edge159" class="edge">
<title>Node21&#45;&gt;Node56</title>
<path fill="none" stroke="midnightblue" d="M2657.02,-861.68C2778.12,-855.69 3034.84,-840.04 3065.26,-814 3242.62,-662.19 3124.17,-498.02 3016.26,-291 3006.36,-272.02 2992.93,-274.57 2984.26,-255 2977.86,-240.55 2976.35,-222.6 2976.3,-209.22"/>
<polygon fill="midnightblue" stroke="midnightblue" points="2979.81,-208.93 2976.55,-198.85 2972.81,-208.76 2979.81,-208.93"/>
</g>
<!-- Node60 -->
<g id="node21" class="node">
<title>Node60</title>
<g id="a_node21"><a xlink:href="../../de/db8/process__info_8h.html" target="_top" xlink:title=" ">
<polygon fill="none" stroke="black" points="2362.76,-498 2362.76,-517 2493.76,-517 2493.76,-498 2362.76,-498"/>
<text text-anchor="middle" x="2428.26" y="-505" font-family="Helvetica,sans-Serif" font-size="10.00">includes/process_info.h</text>
</a>
</g>
</g>
<!-- Node21&#45;&gt;Node60 -->
<g id="edge43" class="edge">
<title>Node21&#45;&gt;Node60</title>
<path fill="none" stroke="midnightblue" d="M2590.15,-855.7C2568.44,-809.15 2466.85,-591.27 2436.71,-526.63"/>
<polygon fill="midnightblue" stroke="midnightblue" points="2439.76,-524.9 2432.36,-517.31 2433.42,-527.85 2439.76,-524.9"/>
</g>
<!-- Node61 -->
<g id="node22" class="node">
<title>Node61</title>
<g id="a_node22"><a xlink:href="../../d1/d82/data__value__container_8h.html" target="_top" xlink:title=" ">
<polygon fill="none" stroke="red" points="1852.76,-425.5 1852.76,-455.5 1977.76,-455.5 1977.76,-425.5 1852.76,-425.5"/>
<text text-anchor="start" x="1860.76" y="-443.5" font-family="Helvetica,sans-Serif" font-size="10.00">containers/data_value</text>
<text text-anchor="middle" x="1915.26" y="-432.5" font-family="Helvetica,sans-Serif" font-size="10.00">_container.h</text>
</a>
</g>
</g>
<!-- Node21&#45;&gt;Node61 -->
<g id="edge66" class="edge">
<title>Node21&#45;&gt;Node61</title>
<path fill="none" stroke="midnightblue" d="M2576.74,-855.97C2504.06,-820.24 2220.32,-677.27 2011.26,-523 1994.8,-510.86 1992.75,-505.35 1977.26,-492 1965.61,-481.96 1952.43,-471.15 1941.23,-462.12"/>
<polygon fill="midnightblue" stroke="midnightblue" points="1943.1,-459.14 1933.11,-455.61 1938.72,-464.6 1943.1,-459.14"/>
</g>
<!-- Node62 -->
<g id="node23" class="node">
<title>Node62</title>
<g id="a_node23"><a xlink:href="../../da/d89/variable_8h.html" target="_top" xlink:title=" ">
<polygon fill="none" stroke="red" points="2473.76,-364 2473.76,-383 2592.76,-383 2592.76,-364 2473.76,-364"/>
<text text-anchor="middle" x="2533.26" y="-371" font-family="Helvetica,sans-Serif" font-size="10.00">containers/variable.h</text>
</a>
</g>
</g>
<!-- Node21&#45;&gt;Node62 -->
<g id="edge164" class="edge">
<title>Node21&#45;&gt;Node62</title>
<path fill="none" stroke="midnightblue" d="M2625.56,-855.97C2668.17,-842.61 2743.45,-812.48 2781.26,-758 2849.35,-659.89 2885.75,-591.2 2819.26,-492 2791,-449.84 2648.43,-405.85 2575.85,-385.74"/>
<polygon fill="midnightblue" stroke="midnightblue" points="2576.66,-382.33 2566.09,-383.06 2574.81,-389.08 2576.66,-382.33"/>
</g>
<!-- Node63 -->
<g id="node24" class="node">
<title>Node63</title>
<g id="a_node24"><a xlink:href="../../d3/dc3/variable__data_8h.html" target="_top" xlink:title=" ">
<polygon fill="none" stroke="red" points="2511.26,-297 2511.26,-316 2603.26,-316 2603.26,-297 2511.26,-297"/>
<text text-anchor="middle" x="2557.26" y="-304" font-family="Helvetica,sans-Serif" font-size="10.00">variable_data.h</text>
</a>
</g>
</g>
<!-- Node21&#45;&gt;Node63 -->
<g id="edge165" class="edge">
<title>Node21&#45;&gt;Node63</title>
<path fill="none" stroke="midnightblue" d="M2638.32,-855.98C2717.63,-839.36 2876.26,-799.79 2876.26,-749 2876.26,-749 2876.26,-749 2876.26,-568 2876.26,-531 2866.08,-520.32 2842.26,-492 2773.61,-410.41 2733.49,-414.8 2643.26,-358 2622.73,-345.08 2598.92,-331.18 2581.57,-321.24"/>
<polygon fill="midnightblue" stroke="midnightblue" points="2583.07,-318.07 2572.65,-316.16 2579.6,-324.15 2583.07,-318.07"/>
</g>
<!-- Node73 -->
<g id="node25" class="node">
<title>Node73</title>
<g id="a_node25"><a xlink:href="../../d8/d3b/mesh_8h.html" target="_top" xlink:title=" ">
<polygon fill="none" stroke="red" points="2085.26,-738.5 2085.26,-757.5 2181.26,-757.5 2181.26,-738.5 2085.26,-738.5"/>
<text text-anchor="middle" x="2133.26" y="-745.5" font-family="Helvetica,sans-Serif" font-size="10.00">includes/mesh.h</text>
</a>
</g>
</g>
<!-- Node21&#45;&gt;Node73 -->
<g id="edge67" class="edge">
<title>Node21&#45;&gt;Node73</title>
<path fill="none" stroke="midnightblue" d="M2531.48,-861.71C2413.85,-855.87 2169.62,-840.65 2142.26,-814 2130.16,-802.22 2129.05,-782.29 2130.27,-767.6"/>
<polygon fill="midnightblue" stroke="midnightblue" points="2133.75,-767.96 2131.5,-757.61 2126.8,-767.1 2133.75,-767.96"/>
</g>
<!-- Node77 -->
<g id="node27" class="node">
<title>Node77</title>
<g id="a_node27"><a xlink:href="../../d2/d58/pointer__vector__map_8h.html" target="_top" xlink:title=" ">
<polygon fill="none" stroke="red" points="1185.76,-291.5 1185.76,-321.5 1290.76,-321.5 1290.76,-291.5 1185.76,-291.5"/>
<text text-anchor="start" x="1193.76" y="-309.5" font-family="Helvetica,sans-Serif" font-size="10.00">containers/pointer</text>
<text text-anchor="middle" x="1238.26" y="-298.5" font-family="Helvetica,sans-Serif" font-size="10.00">_vector_map.h</text>
</a>
</g>
</g>
<!-- Node21&#45;&gt;Node77 -->
<g id="edge157" class="edge">
<title>Node21&#45;&gt;Node77</title>
<path fill="none" stroke="midnightblue" d="M2531.73,-863.85C2300.92,-861.18 1497.06,-849.49 1243.26,-814 1123.16,-797.2 978.26,-870.27 978.26,-749 978.26,-749 978.26,-749 978.26,-685.5 978.26,-522.8 1143.79,-379.09 1210.69,-327.64"/>
<polygon fill="midnightblue" stroke="midnightblue" points="1212.86,-330.39 1218.71,-321.55 1208.63,-324.81 1212.86,-330.39"/>
</g>
<!-- Node90 -->
<g id="node28" class="node">
<title>Node90</title>
<g id="a_node28"><a xlink:href="../../da/da4/master__slave__constraint_8h.html" target="_top" xlink:title=" ">
<polygon fill="none" stroke="red" points="2324.26,-671.5 2324.26,-701.5 2450.26,-701.5 2450.26,-671.5 2324.26,-671.5"/>
<text text-anchor="start" x="2332.26" y="-689.5" font-family="Helvetica,sans-Serif" font-size="10.00">includes/master_slave</text>
<text text-anchor="middle" x="2387.26" y="-678.5" font-family="Helvetica,sans-Serif" font-size="10.00">_constraint.h</text>
</a>
</g>
</g>
<!-- Node21&#45;&gt;Node90 -->
<g id="edge163" class="edge">
<title>Node21&#45;&gt;Node90</title>
<path fill="none" stroke="midnightblue" d="M2584.27,-855.96C2553.1,-829.31 2456.96,-747.1 2411.52,-708.25"/>
<polygon fill="midnightblue" stroke="midnightblue" points="2413.53,-705.36 2403.66,-701.52 2408.98,-710.68 2413.53,-705.36"/>
</g>
<!-- Node102 -->
<g id="node37" class="node">
<title>Node102</title>
<g id="a_node37"><a xlink:href="../../d3/dad/geometry__container_8h.html" target="_top" xlink:title=" ">
<polygon fill="none" stroke="black" points="1195.26,-358.5 1195.26,-388.5 1313.26,-388.5 1313.26,-358.5 1195.26,-358.5"/>
<text text-anchor="start" x="1203.26" y="-376.5" font-family="Helvetica,sans-Serif" font-size="10.00">containers/geometry</text>
<text text-anchor="middle" x="1254.26" y="-365.5" font-family="Helvetica,sans-Serif" font-size="10.00">_container.h</text>
</a>
</g>
</g>
<!-- Node21&#45;&gt;Node102 -->
<g id="edge130" class="edge">
<title>Node21&#45;&gt;Node102</title>
<path fill="none" stroke="midnightblue" d="M2531.51,-864.73C2267.55,-865.04 1256.55,-859.57 1162.26,-758 1064.37,-652.57 1189.15,-461.86 1237.02,-396.88"/>
<polygon fill="midnightblue" stroke="midnightblue" points="1240.05,-398.67 1243.23,-388.57 1234.44,-394.48 1240.05,-398.67"/>
</g>
<!-- Node103 -->
<g id="node38" class="node">
<title>Node103</title>
<g id="a_node38"><a xlink:href="../../da/d92/pointer__hash__map__set_8h.html" target="_top" xlink:title=" ">
<polygon fill="none" stroke="red" points="2621.76,-291.5 2621.76,-321.5 2726.76,-321.5 2726.76,-291.5 2621.76,-291.5"/>
<text text-anchor="start" x="2629.76" y="-309.5" font-family="Helvetica,sans-Serif" font-size="10.00">containers/pointer</text>
<text text-anchor="middle" x="2674.26" y="-298.5" font-family="Helvetica,sans-Serif" font-size="10.00">_hash_map_set.h</text>
</a>
</g>
</g>
<!-- Node21&#45;&gt;Node103 -->
<g id="edge158" class="edge">
<title>Node21&#45;&gt;Node103</title>
<path fill="none" stroke="midnightblue" d="M2657.02,-857.32C2759.7,-843.81 2952.26,-810.31 2952.26,-749 2952.26,-749 2952.26,-749 2952.26,-685.5 2952.26,-519.49 2776.1,-378.25 2704.23,-327.54"/>
<polygon fill="midnightblue" stroke="midnightblue" points="2705.82,-324.38 2695.61,-321.54 2701.82,-330.12 2705.82,-324.38"/>
</g>
<!-- Node21&#45;&gt;Node104 -->
<g id="edge136" class="edge">
<title>Node21&#45;&gt;Node104</title>
<path fill="none" stroke="midnightblue" d="M2603.5,-855.82C2624.16,-836.42 2674.31,-789.33 2700.58,-764.66"/>
<polygon fill="midnightblue" stroke="midnightblue" points="2703.01,-767.18 2707.9,-757.78 2698.22,-762.08 2703.01,-767.18"/>
</g>
<!-- Node21&#45;&gt;Node121 -->
<g id="edge139" class="edge">
<title>Node21&#45;&gt;Node121</title>
<path fill="none" stroke="midnightblue" d="M2597.48,-855.71C2600.94,-845.76 2606.22,-828.96 2608.26,-814 2616.83,-750.99 2618.28,-732.79 2603.26,-671 2595.82,-640.41 2580.07,-607.24 2569.84,-587.56"/>
<polygon fill="midnightblue" stroke="midnightblue" points="2572.85,-585.77 2565.06,-578.58 2566.67,-589.05 2572.85,-585.77"/>
</g>
<!-- Node122 -->
<g id="node42" class="node">
<title>Node122</title>
<g id="a_node42"><a xlink:href="../../d8/d75/communicator_8h.html" target="_top" xlink:title=" ">
<polygon fill="none" stroke="black" points="2151.76,-794.5 2151.76,-813.5 2290.76,-813.5 2290.76,-794.5 2151.76,-794.5"/>
<text text-anchor="middle" x="2221.26" y="-801.5" font-family="Helvetica,sans-Serif" font-size="10.00">includes/communicator.h</text>
</a>
</g>
</g>
<!-- Node21&#45;&gt;Node122 -->
<g id="edge142" class="edge">
<title>Node21&#45;&gt;Node122</title>
<path fill="none" stroke="midnightblue" d="M2540.81,-855.98C2473.23,-845.19 2357.01,-826.65 2284.91,-815.15"/>
<polygon fill="midnightblue" stroke="midnightblue" points="2285.03,-811.63 2274.6,-813.51 2283.92,-818.54 2285.03,-811.63"/>
</g>
<!-- Node106 -->
<g id="node43" class="node">
<title>Node106</title>
<g id="a_node43"><a xlink:href="../../dd/d98/table_8h.html" target="_top" xlink:title=" ">
<polygon fill="none" stroke="black" points="2934.26,-431 2934.26,-450 3028.26,-450 3028.26,-431 2934.26,-431"/>
<text text-anchor="middle" x="2981.26" y="-438" font-family="Helvetica,sans-Serif" font-size="10.00">includes/table.h</text>
</a>
</g>
</g>
<!-- Node21&#45;&gt;Node106 -->
<g id="edge151" class="edge">
<title>Node21&#45;&gt;Node106</title>
<path fill="none" stroke="midnightblue" d="M2656.99,-865.31C2765.87,-865.45 2983.81,-859.8 3042.26,-814 3066.5,-795.01 3066.26,-779.8 3066.26,-749 3066.26,-749 3066.26,-749 3066.26,-568 3066.26,-521.17 3025.63,-478.63 3000.55,-456.83"/>
<polygon fill="midnightblue" stroke="midnightblue" points="3002.63,-454.01 2992.72,-450.25 2998.13,-459.37 3002.63,-454.01"/>
</g>
<!-- Node123 -->
<g id="node44" class="node">
<title>Node123</title>
<g id="a_node44"><a xlink:href="../../d0/dac/kratos__flags_8h.html" target="_top" xlink:title=" ">
<polygon fill="none" stroke="red" points="811.26,-235.5 811.26,-254.5 939.26,-254.5 939.26,-235.5 811.26,-235.5"/>
<text text-anchor="middle" x="875.26" y="-242.5" font-family="Helvetica,sans-Serif" font-size="10.00">includes/kratos_flags.h</text>
</a>
</g>
</g>
<!-- Node21&#45;&gt;Node123 -->
<g id="edge160" class="edge">
<title>Node21&#45;&gt;Node123</title>
<path fill="none" stroke="midnightblue" d="M2531.51,-864.16C2240.88,-862.4 1036.65,-852.76 967.26,-814 858.02,-752.99 848.22,-698.84 812.26,-579 776.89,-461.16 841.33,-313.67 866.12,-263.57"/>
<polygon fill="midnightblue" stroke="midnightblue" points="869.25,-265.15 870.64,-254.65 863,-261.99 869.25,-265.15"/>
</g>
<!-- Node23&#45;&gt;Node2 -->
<g id="edge31" class="edge">
<title>Node23&#45;&gt;Node2</title>
<path fill="none" stroke="midnightblue" d="M2612.96,-235.22C2607.99,-205.09 2587.1,-105.66 2523.26,-67 2454.52,-25.38 2204.74,-18.06 2115.35,-16.77"/>
<polygon fill="midnightblue" stroke="midnightblue" points="2115.31,-13.27 2105.26,-16.64 2115.22,-20.27 2115.31,-13.27"/>
</g>
<!-- Node23&#45;&gt;Node3 -->
<g id="edge32" class="edge">
<title>Node23&#45;&gt;Node3</title>
<path fill="none" stroke="midnightblue" d="M2627.28,-235.35C2676.42,-202.85 2850.92,-88.86 2913.26,-67 3023.73,-28.25 3163.27,-19.16 3230.87,-17.08"/>
<polygon fill="midnightblue" stroke="midnightblue" points="3231.19,-20.57 3241.09,-16.8 3231,-13.57 3231.19,-20.57"/>
</g>
<!-- Node23&#45;&gt;Node6 -->
<g id="edge34" class="edge">
<title>Node23&#45;&gt;Node6</title>
<path fill="none" stroke="midnightblue" d="M2593.77,-235.46C2557.38,-220.75 2478.78,-191.08 2409.26,-179 2183.78,-139.82 1467.78,-134.73 1255.88,-134.09"/>
<polygon fill="midnightblue" stroke="midnightblue" points="1255.89,-130.59 1245.88,-134.06 1255.87,-137.59 1255.89,-130.59"/>
</g>
<!-- Node23&#45;&gt;Node8 -->
<g id="edge33" class="edge">
<title>Node23&#45;&gt;Node8</title>
<path fill="none" stroke="midnightblue" d="M2598.63,-235.31C2571.97,-220.93 2515.6,-192.44 2464.26,-179 2080.41,-78.5 1969.43,-140.35 1576.26,-87 1523.11,-79.79 1510.55,-73.04 1457.26,-67 1144.26,-31.53 763.57,-20.14 643.45,-17.3"/>
<polygon fill="midnightblue" stroke="midnightblue" points="643.38,-13.8 633.3,-17.07 643.21,-20.8 643.38,-13.8"/>
</g>
<!-- Node30 -->
<g id="node19" class="node">
<title>Node30</title>
<g id="a_node19"><a xlink:href="../../d9/da0/flags_8h.html" target="_top" xlink:title=" ">
<polygon fill="none" stroke="black" points="2149.76,-179.5 2149.76,-198.5 2252.76,-198.5 2252.76,-179.5 2149.76,-179.5"/>
<text text-anchor="middle" x="2201.26" y="-186.5" font-family="Helvetica,sans-Serif" font-size="10.00">containers/flags.h</text>
</a>
</g>
</g>
<!-- Node23&#45;&gt;Node30 -->
<g id="edge35" class="edge">
<title>Node23&#45;&gt;Node30</title>
<path fill="none" stroke="midnightblue" d="M2557.7,-236.6C2480.63,-226.53 2343.12,-208.55 2263.3,-198.11"/>
<polygon fill="midnightblue" stroke="midnightblue" points="2263.28,-194.58 2252.91,-196.75 2262.37,-201.52 2263.28,-194.58"/>
</g>
<!-- Node23&#45;&gt;Node56 -->
<g id="edge39" class="edge">
<title>Node23&#45;&gt;Node56</title>
<path fill="none" stroke="midnightblue" d="M2670.97,-235.56C2735.56,-225.96 2840.99,-210.27 2909.75,-200.04"/>
<polygon fill="midnightblue" stroke="midnightblue" points="2910.66,-203.45 2920.04,-198.51 2909.63,-196.52 2910.66,-203.45"/>
</g>
<!-- Node30&#45;&gt;Node2 -->
<g id="edge36" class="edge">
<title>Node30&#45;&gt;Node2</title>
<path fill="none" stroke="midnightblue" d="M2195.24,-179.26C2176.62,-152.19 2119.66,-69.41 2094.93,-33.46"/>
<polygon fill="midnightblue" stroke="midnightblue" points="2097.67,-31.27 2089.12,-25.02 2091.9,-35.24 2097.67,-31.27"/>
</g>
<!-- Node30&#45;&gt;Node3 -->
<g id="edge37" class="edge">
<title>Node30&#45;&gt;Node3</title>
<path fill="none" stroke="midnightblue" d="M2240.9,-179.42C2340.65,-158.07 2610.33,-101.74 2837.26,-67 2981.56,-44.91 3154.17,-27.49 3230.98,-20.21"/>
<polygon fill="midnightblue" stroke="midnightblue" points="3231.54,-23.67 3241.16,-19.25 3230.88,-16.7 3231.54,-23.67"/>
</g>
<!-- Node30&#45;&gt;Node6 -->
<g id="edge38" class="edge">
<title>Node30&#45;&gt;Node6</title>
<path fill="none" stroke="midnightblue" d="M2149.69,-185.23C1979.67,-176.09 1437.34,-146.95 1255.98,-137.21"/>
<polygon fill="midnightblue" stroke="midnightblue" points="1256,-133.71 1245.83,-136.66 1255.63,-140.7 1256,-133.71"/>
</g>
<!-- Node56&#45;&gt;Node2 -->
<g id="edge40" class="edge">
<title>Node56&#45;&gt;Node2</title>
<path fill="none" stroke="midnightblue" d="M2963.32,-179.46C2925.06,-156.49 2814.49,-93.38 2713.26,-67 2598.42,-37.08 2227.9,-21.67 2115.73,-17.61"/>
<polygon fill="midnightblue" stroke="midnightblue" points="2115.52,-14.1 2105.4,-17.24 2115.27,-21.09 2115.52,-14.1"/>
</g>
<!-- Node56&#45;&gt;Node3 -->
<g id="edge41" class="edge">
<title>Node56&#45;&gt;Node3</title>
<path fill="none" stroke="midnightblue" d="M2981.79,-179.41C2994.01,-157.14 3029.91,-97.17 3077.26,-67 3124.74,-36.74 3189.69,-24.56 3231.07,-19.69"/>
<polygon fill="midnightblue" stroke="midnightblue" points="3231.49,-23.16 3241.05,-18.6 3230.73,-16.2 3231.49,-23.16"/>
</g>
<!-- Node56&#45;&gt;Node14 -->
<g id="edge42" class="edge">
<title>Node56&#45;&gt;Node14</title>
<path fill="none" stroke="midnightblue" d="M2917.16,-181.12C2804.26,-168.35 2552.68,-140.7 2340.26,-123 2110.8,-103.88 1838.21,-88.34 1713.17,-81.61"/>
<polygon fill="midnightblue" stroke="midnightblue" points="1713.15,-78.1 1702.97,-81.06 1712.77,-85.09 1713.15,-78.1"/>
</g>
<!-- Node60&#45;&gt;Node2 -->
<g id="edge44" class="edge">
<title>Node60&#45;&gt;Node2</title>
<path fill="none" stroke="midnightblue" d="M2462.33,-497.97C2529.05,-479.21 2675.63,-427.4 2735.26,-322 2753.72,-289.37 2735.33,-239.79 2707.26,-179 2675.84,-110.98 2651.91,-91.92 2581.26,-67 2494.66,-36.45 2211.67,-21.93 2115.55,-17.79"/>
<polygon fill="midnightblue" stroke="midnightblue" points="2115.68,-14.29 2105.54,-17.36 2115.39,-21.28 2115.68,-14.29"/>
</g>
<!-- Node60&#45;&gt;Node3 -->
<g id="edge45" class="edge">
<title>Node60&#45;&gt;Node3</title>
<path fill="none" stroke="midnightblue" d="M2492.49,-497.97C2509.92,-495.83 2528.79,-493.67 2546.26,-492 2662.44,-480.88 2959.5,-492.83 3070.26,-456 3094.35,-447.99 3094.8,-434.72 3118.26,-425 3188.4,-395.93 3224.07,-433.95 3285.26,-389 3316.55,-366.01 3385.26,-215.37 3385.26,-190 3385.26,-190 3385.26,-190 3385.26,-132 3385.26,-83.2 3333.07,-47.56 3299.31,-29.61"/>
<polygon fill="midnightblue" stroke="midnightblue" points="3300.83,-26.46 3290.34,-25.02 3297.65,-32.69 3300.83,-26.46"/>
</g>
<!-- Node60&#45;&gt;Node6 -->
<g id="edge48" class="edge">
<title>Node60&#45;&gt;Node6</title>
<path fill="none" stroke="midnightblue" d="M2402.49,-497.92C2354.82,-482.21 2249.49,-448.33 2159.26,-425 2132.9,-418.19 1705.8,-331.39 1680.26,-322 1641.9,-307.9 1555.26,-252.33 1518.26,-235 1457.94,-206.76 1442.64,-199.45 1379.26,-179 1335.71,-164.95 1285.13,-152.82 1248.19,-144.71"/>
<polygon fill="midnightblue" stroke="midnightblue" points="1248.67,-141.23 1238.15,-142.53 1247.18,-148.07 1248.67,-141.23"/>
</g>
<!-- Node60&#45;&gt;Node8 -->
<g id="edge46" class="edge">
<title>Node60&#45;&gt;Node8</title>
<path fill="none" stroke="midnightblue" d="M2362.54,-502.18C2091.83,-484.29 1070.6,-415.63 928.26,-389 773.94,-360.13 605.26,-403 605.26,-246 605.26,-246 605.26,-246 605.26,-132 605.26,-97.86 605.26,-58.05 605.26,-35.21"/>
<polygon fill="midnightblue" stroke="midnightblue" points="608.76,-35.19 605.26,-25.19 601.76,-35.19 608.76,-35.19"/>
</g>
<!-- Node60&#45;&gt;Node22 -->
<g id="edge47" class="edge">
<title>Node60&#45;&gt;Node22</title>
<path fill="none" stroke="midnightblue" d="M2362.64,-502.22C2231.59,-493.45 1941.6,-472.84 1843.26,-456 1841.42,-455.69 1585.91,-389.84 1584.26,-389 1581.63,-387.67 1504.26,-324.15 1502.26,-322 1485.05,-303.59 1468.8,-279.46 1458.71,-263.38"/>
<polygon fill="midnightblue" stroke="midnightblue" points="1461.48,-261.22 1453.26,-254.53 1455.52,-264.88 1461.48,-261.22"/>
</g>
<!-- Node60&#45;&gt;Node30 -->
<g id="edge65" class="edge">
<title>Node60&#45;&gt;Node30</title>
<path fill="none" stroke="midnightblue" d="M2427.37,-497.87C2423.05,-460.39 2400.79,-310.15 2315.26,-235 2297.1,-219.05 2272.61,-208.39 2250.98,-201.47"/>
<polygon fill="midnightblue" stroke="midnightblue" points="2251.86,-198.08 2241.28,-198.55 2249.84,-204.78 2251.86,-198.08"/>
</g>
<!-- Node60&#45;&gt;Node61 -->
<g id="edge49" class="edge">
<title>Node60&#45;&gt;Node61</title>
<path fill="none" stroke="midnightblue" d="M2362.49,-500.8C2277.95,-493.07 2126.48,-477.86 1987.88,-456.18"/>
<polygon fill="midnightblue" stroke="midnightblue" points="1988.35,-452.71 1977.92,-454.61 1987.25,-459.63 1988.35,-452.71"/>
</g>
<!-- Node61&#45;&gt;Node2 -->
<g id="edge50" class="edge">
<title>Node61&#45;&gt;Node2</title>
<path fill="none" stroke="midnightblue" d="M1939.49,-425.49C1952.48,-416.69 1967.56,-404.14 1976.26,-389 1991.28,-362.83 1984.8,-352.08 1987.26,-322 1988.38,-308.27 1989.11,-304.65 1987.26,-291 1980.98,-244.84 1959.26,-236.58 1959.26,-190 1959.26,-190 1959.26,-190 1959.26,-132 1959.26,-81.36 2015.31,-46.61 2052.04,-29.27"/>
<polygon fill="midnightblue" stroke="midnightblue" points="2053.71,-32.35 2061.37,-25.03 2050.82,-25.98 2053.71,-32.35"/>
</g>
<!-- Node61&#45;&gt;Node3 -->
<g id="edge51" class="edge">
<title>Node61&#45;&gt;Node3</title>
<path fill="none" stroke="midnightblue" d="M1977.94,-426.48C1980.75,-425.96 1983.53,-425.47 1986.26,-425 2197.67,-388.63 2251.71,-387.01 2464.26,-358 2584.64,-341.57 2615.39,-341.89 2735.26,-322 2754.03,-318.88 3057.13,-267.76 3071.26,-255 3093.69,-234.74 3091.26,-220.23 3091.26,-190 3091.26,-190 3091.26,-190 3091.26,-132 3091.26,-65.9 3178.3,-35.88 3231.33,-23.72"/>
<polygon fill="midnightblue" stroke="midnightblue" points="3232.1,-27.14 3241.13,-21.59 3230.61,-20.3 3232.1,-27.14"/>
</g>
<!-- Node61&#45;&gt;Node6 -->
<g id="edge53" class="edge">
<title>Node61&#45;&gt;Node6</title>
<path fill="none" stroke="midnightblue" d="M1881.04,-425.46C1829.73,-404.2 1730.04,-362.04 1647.26,-322 1572.98,-286.08 1558.83,-268.12 1483.26,-235 1396.49,-196.97 1290.45,-162.66 1234.71,-145.52"/>
<polygon fill="midnightblue" stroke="midnightblue" points="1235.49,-142.1 1224.91,-142.52 1233.45,-148.79 1235.49,-142.1"/>
</g>
<!-- Node61&#45;&gt;Node14 -->
<g id="edge64" class="edge">
<title>Node61&#45;&gt;Node14</title>
<path fill="none" stroke="midnightblue" d="M1928.03,-425.41C1950.95,-398.33 1994.42,-337.58 1969.26,-291 1935.95,-229.35 1742.7,-127.5 1671.01,-91.29"/>
<polygon fill="midnightblue" stroke="midnightblue" points="1672.24,-87.99 1661.73,-86.62 1669.09,-94.24 1672.24,-87.99"/>
</g>
<!-- Node61&#45;&gt;Node22 -->
<g id="edge52" class="edge">
<title>Node61&#45;&gt;Node22</title>
<path fill="none" stroke="midnightblue" d="M1852.54,-431.94C1781.29,-422.73 1669.9,-406.24 1631.26,-389 1612.65,-380.7 1509.39,-296.4 1466.72,-261.26"/>
<polygon fill="midnightblue" stroke="midnightblue" points="1468.75,-258.39 1458.81,-254.73 1464.3,-263.8 1468.75,-258.39"/>
</g>
<!-- Node61&#45;&gt;Node62 -->
<g id="edge54" class="edge">
<title>Node61&#45;&gt;Node62</title>
<path fill="none" stroke="midnightblue" d="M1977.91,-426.32C1980.73,-425.85 1983.52,-425.4 1986.26,-425 2156.77,-399.8 2359.15,-385.01 2463.42,-378.49"/>
<polygon fill="midnightblue" stroke="midnightblue" points="2463.74,-381.98 2473.51,-377.87 2463.31,-374.99 2463.74,-381.98"/>
</g>
<!-- Node62&#45;&gt;Node2 -->
<g id="edge55" class="edge">
<title>Node62&#45;&gt;Node2</title>
<path fill="none" stroke="midnightblue" d="M2521.66,-363.88C2508.63,-354.07 2486.99,-337.41 2469.26,-322 2427.02,-285.3 2421.04,-271.06 2378.26,-235 2280.07,-152.26 2153.73,-64.43 2104.35,-30.76"/>
<polygon fill="midnightblue" stroke="midnightblue" points="2106.29,-27.85 2096.05,-25.12 2102.35,-33.63 2106.29,-27.85"/>
</g>
<!-- Node62&#45;&gt;Node3 -->
<g id="edge56" class="edge">
<title>Node62&#45;&gt;Node3</title>
<path fill="none" stroke="midnightblue" d="M2592.9,-368.13C2750.73,-354.93 3167.26,-308.83 3167.26,-190 3167.26,-190 3167.26,-190 3167.26,-132 3167.26,-85.29 3214.8,-48.94 3245.6,-30.3"/>
<polygon fill="midnightblue" stroke="midnightblue" points="3247.67,-33.15 3254.55,-25.09 3244.14,-27.1 3247.67,-33.15"/>
</g>
<!-- Node62&#45;&gt;Node6 -->
<g id="edge57" class="edge">
<title>Node62&#45;&gt;Node6</title>
<path fill="none" stroke="midnightblue" d="M2509.96,-363.94C2488.31,-355.32 2455.8,-340.65 2431.26,-322 2389.91,-290.58 2393.2,-268.19 2353.26,-235 2350.96,-233.09 2264.12,-179.87 2261.26,-179 2165.2,-149.86 1467,-137.79 1256.3,-134.79"/>
<polygon fill="midnightblue" stroke="midnightblue" points="1256.1,-131.28 1246.05,-134.64 1256,-138.28 1256.1,-131.28"/>
</g>
<!-- Node62&#45;&gt;Node63 -->
<g id="edge58" class="edge">
<title>Node62&#45;&gt;Node63</title>
<path fill="none" stroke="midnightblue" d="M2536.49,-363.73C2540.09,-353.99 2546,-337.98 2550.6,-325.53"/>
<polygon fill="midnightblue" stroke="midnightblue" points="2553.89,-326.72 2554.07,-316.13 2547.32,-324.3 2553.89,-326.72"/>
</g>
<!-- Node63&#45;&gt;Node2 -->
<g id="edge59" class="edge">
<title>Node63&#45;&gt;Node2</title>
<path fill="none" stroke="midnightblue" d="M2588.26,-296.94C2620.81,-287.26 2668.72,-270.77 2679.26,-255 2735.7,-170.54 2638.62,-115.3 2549.26,-67 2474.02,-26.34 2208.21,-18.4 2115.47,-16.87"/>
<polygon fill="midnightblue" stroke="midnightblue" points="2115.34,-13.36 2105.29,-16.71 2115.24,-20.36 2115.34,-13.36"/>
</g>
<!-- Node63&#45;&gt;Node3 -->
<g id="edge60" class="edge">
<title>Node63&#45;&gt;Node3</title>
<path fill="none" stroke="midnightblue" d="M2589.47,-296.92C2618.81,-288.43 2662.84,-273.96 2698.26,-255 2821.76,-188.89 2822.1,-121.27 2951.26,-67 3045.86,-27.25 3168.15,-18.51 3230.61,-16.77"/>
<polygon fill="midnightblue" stroke="midnightblue" points="3230.92,-20.26 3240.84,-16.53 3230.76,-13.26 3230.92,-20.26"/>
</g>
<!-- Node63&#45;&gt;Node6 -->
<g id="edge62" class="edge">
<title>Node63&#45;&gt;Node6</title>
<path fill="none" stroke="midnightblue" d="M2544.36,-296.87C2507.49,-272.73 2397.66,-204.64 2295.26,-179 2194.45,-153.76 1470.43,-138.91 1255.97,-135.03"/>
<polygon fill="midnightblue" stroke="midnightblue" points="1255.91,-131.52 1245.84,-134.84 1255.78,-138.52 1255.91,-131.52"/>
</g>
<!-- Node63&#45;&gt;Node22 -->
<g id="edge61" class="edge">
<title>Node63&#45;&gt;Node22</title>
<path fill="none" stroke="midnightblue" d="M2511.02,-303.02C2327.3,-293.16 1650.94,-256.87 1485.13,-247.98"/>
<polygon fill="midnightblue" stroke="midnightblue" points="1485.14,-244.47 1474.96,-247.43 1484.76,-251.46 1485.14,-244.47"/>
</g>
<!-- Node63&#45;&gt;Node23 -->
<g id="edge63" class="edge">
<title>Node63&#45;&gt;Node23</title>
<path fill="none" stroke="midnightblue" d="M2565.42,-296.98C2574.14,-287.87 2588.16,-273.24 2598.94,-261.98"/>
<polygon fill="midnightblue" stroke="midnightblue" points="2601.71,-264.15 2606.1,-254.51 2596.66,-259.31 2601.71,-264.15"/>
</g>
<!-- Node73&#45;&gt;Node2 -->
<g id="edge68" class="edge">
<title>Node73&#45;&gt;Node2</title>
<path fill="none" stroke="midnightblue" d="M2139.91,-738.24C2167.29,-701.15 2268.56,-553.02 2241.26,-425 2218.31,-317.4 2179.17,-301.91 2140.26,-199 2118,-140.14 2097.45,-68.38 2088.28,-35.1"/>
<polygon fill="midnightblue" stroke="midnightblue" points="2091.63,-34.09 2085.62,-25.36 2084.88,-35.93 2091.63,-34.09"/>
</g>
<!-- Node73&#45;&gt;Node3 -->
<g id="edge69" class="edge">
<title>Node73&#45;&gt;Node3</title>
<path fill="none" stroke="midnightblue" d="M2181.39,-742.46C2245.32,-735.94 2361.53,-722.44 2459.26,-702 2694.04,-652.9 3287.79,-514.4 3492.26,-389 3536.33,-361.97 3575.26,-359.2 3575.26,-307.5 3575.26,-307.5 3575.26,-307.5 3575.26,-132 3575.26,-97.11 3560.36,-86.23 3531.26,-67 3495.73,-43.53 3375.54,-27.59 3311.77,-20.57"/>
<polygon fill="midnightblue" stroke="midnightblue" points="3311.99,-17.07 3301.67,-19.48 3311.24,-24.03 3311.99,-17.07"/>
</g>
<!-- Node73&#45;&gt;Node6 -->
<g id="edge72" class="edge">
<title>Node73&#45;&gt;Node6</title>
<path fill="none" stroke="midnightblue" d="M2085.1,-745.88C1917.23,-741.79 1363.98,-726.55 1288.26,-702 1214.26,-678.01 737.45,-390.32 700.26,-322 670.62,-267.56 731.16,-200.07 763.26,-179 823.25,-139.61 1032.55,-133.9 1136.6,-133.57"/>
<polygon fill="midnightblue" stroke="midnightblue" points="1136.64,-137.07 1146.64,-133.56 1136.63,-130.07 1136.64,-137.07"/>
</g>
<!-- Node73&#45;&gt;Node8 -->
<g id="edge70" class="edge">
<title>Node73&#45;&gt;Node8</title>
<path fill="none" stroke="midnightblue" d="M2085.16,-746.17C1921.78,-743.1 1388.97,-731.06 1220.26,-702 1004.26,-664.8 377.26,-409.18 377.26,-190 377.26,-190 377.26,-190 377.26,-132 377.26,-48.14 501.5,-25.15 566.56,-18.86"/>
<polygon fill="midnightblue" stroke="midnightblue" points="567.19,-22.32 576.84,-17.96 566.57,-15.35 567.19,-22.32"/>
</g>
<!-- Node73&#45;&gt;Node22 -->
<g id="edge71" class="edge">
<title>Node73&#45;&gt;Node22</title>
<path fill="none" stroke="midnightblue" d="M2085.18,-746.07C2016.37,-743.58 1886.46,-734.54 1781.26,-702 1718.78,-682.68 1704.31,-671.8 1650.26,-635 1588.05,-592.65 1569.68,-582.23 1523.26,-523 1483.23,-471.92 1484.65,-450.93 1465.26,-389 1456.01,-359.46 1450.52,-352.66 1446.26,-322 1444.36,-308.35 1445.95,-304.77 1446.26,-291 1446.45,-282.39 1446.84,-272.86 1447.23,-264.8"/>
<polygon fill="midnightblue" stroke="midnightblue" points="1450.74,-264.79 1447.76,-254.62 1443.75,-264.43 1450.74,-264.79"/>
</g>
<!-- Node73&#45;&gt;Node30 -->
<g id="edge86" class="edge">
<title>Node73&#45;&gt;Node30</title>
<path fill="none" stroke="midnightblue" d="M2166.63,-738.47C2214.32,-724.05 2296.26,-689.97 2296.26,-626 2296.26,-626 2296.26,-626 2296.26,-568 2296.26,-474.54 2331.1,-448.37 2307.26,-358 2290.75,-295.45 2241.52,-234.36 2216.38,-206.18"/>
<polygon fill="midnightblue" stroke="midnightblue" points="2218.74,-203.56 2209.42,-198.52 2213.56,-208.27 2218.74,-203.56"/>
</g>
<!-- Node73&#45;&gt;Node61 -->
<g id="edge87" class="edge">
<title>Node73&#45;&gt;Node61</title>
<path fill="none" stroke="midnightblue" d="M2126.97,-738.19C2097.82,-697.34 1975.45,-525.86 1931.26,-463.93"/>
<polygon fill="midnightblue" stroke="midnightblue" points="1933.99,-461.72 1925.33,-455.62 1928.29,-465.79 1933.99,-461.72"/>
</g>
<!-- Node74 -->
<g id="node26" class="node">
<title>Node74</title>
<g id="a_node26"><a xlink:href="../../d4/d35/pointer__vector__set_8h.html" target="_top" xlink:title=" ">
<polygon fill="none" stroke="red" points="1689.76,-291.5 1689.76,-321.5 1794.76,-321.5 1794.76,-291.5 1689.76,-291.5"/>
<text text-anchor="start" x="1697.76" y="-309.5" font-family="Helvetica,sans-Serif" font-size="10.00">containers/pointer</text>
<text text-anchor="middle" x="1742.26" y="-298.5" font-family="Helvetica,sans-Serif" font-size="10.00">_vector_set.h</text>
</a>
</g>
</g>
<!-- Node73&#45;&gt;Node74 -->
<g id="edge73" class="edge">
<title>Node73&#45;&gt;Node74</title>
<path fill="none" stroke="midnightblue" d="M2085.07,-739.52C1965.83,-719.85 1663.06,-662.38 1613.26,-579 1559.91,-489.69 1667.86,-374.85 1718.25,-328.39"/>
<polygon fill="midnightblue" stroke="midnightblue" points="1720.76,-330.84 1725.81,-321.53 1716.06,-325.66 1720.76,-330.84"/>
</g>
<!-- Node73&#45;&gt;Node77 -->
<g id="edge80" class="edge">
<title>Node73&#45;&gt;Node77</title>
<path fill="none" stroke="midnightblue" d="M2085.06,-746.16C1913.44,-742.94 1340.87,-730.12 1314.26,-702 1209.13,-590.94 1397.55,-491.11 1322.26,-358 1314.49,-344.27 1301.34,-333.86 1287.71,-326.17"/>
<polygon fill="midnightblue" stroke="midnightblue" points="1289.23,-323.02 1278.74,-321.5 1286,-329.22 1289.23,-323.02"/>
</g>
<!-- Node73&#45;&gt;Node90 -->
<g id="edge88" class="edge">
<title>Node73&#45;&gt;Node90</title>
<path fill="none" stroke="midnightblue" d="M2169.65,-738.48C2208.07,-729.48 2269.57,-715.07 2317.41,-703.86"/>
<polygon fill="midnightblue" stroke="midnightblue" points="2318.46,-707.21 2327.39,-701.52 2316.86,-700.4 2318.46,-707.21"/>
</g>
<!-- Node74&#45;&gt;Node2 -->
<g id="edge74" class="edge">
<title>Node74&#45;&gt;Node2</title>
<path fill="none" stroke="midnightblue" d="M1756.68,-291.27C1775.83,-270.8 1807.26,-230.96 1807.26,-190 1807.26,-190 1807.26,-190 1807.26,-132 1807.26,-27.5 1977.69,-15.92 2050.7,-15.75"/>
<polygon fill="midnightblue" stroke="midnightblue" points="2051.12,-19.25 2061.14,-15.8 2051.15,-12.25 2051.12,-19.25"/>
</g>
<!-- Node74&#45;&gt;Node3 -->
<g id="edge75" class="edge">
<title>Node74&#45;&gt;Node3</title>
<path fill="none" stroke="midnightblue" d="M1794.84,-297.81C1856.12,-288.62 1960.32,-272.31 2049.26,-255 2382.85,-190.06 2465.36,-168.69 2795.26,-87 2828.33,-78.81 2835.83,-73.58 2869.26,-67 3000.32,-41.19 3158.16,-25.88 3230.92,-19.7"/>
<polygon fill="midnightblue" stroke="midnightblue" points="3231.35,-23.17 3241.02,-18.85 3230.76,-16.2 3231.35,-23.17"/>
</g>
<!-- Node74&#45;&gt;Node6 -->
<g id="edge78" class="edge">
<title>Node74&#45;&gt;Node6</title>
<path fill="none" stroke="midnightblue" d="M1708.76,-291.41C1688.49,-282.25 1662.54,-269.37 1641.26,-255 1598.98,-226.46 1601.74,-200 1555.26,-179 1503.22,-155.5 1344.04,-142.68 1256.13,-137.23"/>
<polygon fill="midnightblue" stroke="midnightblue" points="1256.23,-133.73 1246.04,-136.61 1255.81,-140.71 1256.23,-133.73"/>
</g>
<!-- Node74&#45;&gt;Node8 -->
<g id="edge76" class="edge">
<title>Node74&#45;&gt;Node8</title>
<path fill="none" stroke="midnightblue" d="M1727.77,-291.13C1701.3,-265.55 1642.46,-211.71 1584.26,-179 1457.27,-107.65 1418.66,-97.64 1276.26,-67 1039.93,-16.15 747.25,-14.51 643.72,-15.75"/>
<polygon fill="midnightblue" stroke="midnightblue" points="643.4,-12.25 633.45,-15.89 643.5,-19.25 643.4,-12.25"/>
</g>
<!-- Node74&#45;&gt;Node22 -->
<g id="edge77" class="edge">
<title>Node74&#45;&gt;Node22</title>
<path fill="none" stroke="midnightblue" d="M1689.69,-294.86C1630.67,-282.92 1536.41,-263.84 1484.86,-253.41"/>
<polygon fill="midnightblue" stroke="midnightblue" points="1485.34,-249.93 1474.84,-251.38 1483.95,-256.8 1485.34,-249.93"/>
</g>
<!-- Node74&#45;&gt;Node23 -->
<g id="edge79" class="edge">
<title>Node74&#45;&gt;Node23</title>
<path fill="none" stroke="midnightblue" d="M1794.83,-297.01C1810.09,-294.78 1826.81,-292.57 1842.26,-291 2102.29,-264.62 2413.28,-252.34 2547.35,-247.97"/>
<polygon fill="midnightblue" stroke="midnightblue" points="2547.58,-251.46 2557.46,-247.64 2547.36,-244.47 2547.58,-251.46"/>
</g>
<!-- Node77&#45;&gt;Node2 -->
<g id="edge81" class="edge">
<title>Node77&#45;&gt;Node2</title>
<path fill="none" stroke="midnightblue" d="M1268.84,-291.36C1379.39,-240.24 1752.03,-67.97 1755.26,-67 1860.43,-35.33 1990.85,-22.82 2050.59,-18.5"/>
<polygon fill="midnightblue" stroke="midnightblue" points="2051.17,-21.97 2060.91,-17.79 2050.69,-14.99 2051.17,-21.97"/>
</g>
<!-- Node77&#45;&gt;Node3 -->
<g id="edge82" class="edge">
<title>Node77&#45;&gt;Node3</title>
<path fill="none" stroke="midnightblue" d="M1290.94,-295.7C1482.3,-260.37 2158.86,-137.96 2721.26,-67 2911.37,-43.01 3139.82,-25.7 3230.91,-19.26"/>
<polygon fill="midnightblue" stroke="midnightblue" points="3231.34,-22.74 3241.07,-18.55 3230.85,-15.76 3231.34,-22.74"/>
</g>
<!-- Node77&#45;&gt;Node6 -->
<g id="edge85" class="edge">
<title>Node77&#45;&gt;Node6</title>
<path fill="none" stroke="midnightblue" d="M1234.82,-291.47C1227.29,-260.7 1209.32,-187.33 1200.84,-152.7"/>
<polygon fill="midnightblue" stroke="midnightblue" points="1204.13,-151.44 1198.35,-142.56 1197.33,-153.11 1204.13,-151.44"/>
</g>
<!-- Node77&#45;&gt;Node8 -->
<g id="edge83" class="edge">
<title>Node77&#45;&gt;Node8</title>
<path fill="none" stroke="midnightblue" d="M1207.3,-291.37C1098.85,-241.85 737.09,-76.69 633.31,-29.31"/>
<polygon fill="midnightblue" stroke="midnightblue" points="634.64,-26.07 624.09,-25.1 631.73,-32.44 634.64,-26.07"/>
</g>
<!-- Node77&#45;&gt;Node22 -->
<g id="edge84" class="edge">
<title>Node77&#45;&gt;Node22</title>
<path fill="none" stroke="midnightblue" d="M1287.76,-291.47C1325.83,-280.69 1377.57,-266.03 1411.9,-256.3"/>
<polygon fill="midnightblue" stroke="midnightblue" points="1412.85,-259.67 1421.52,-253.57 1410.95,-252.93 1412.85,-259.67"/>
</g>
<!-- Node90&#45;&gt;Node6 -->
<g id="edge89" class="edge">
<title>Node90&#45;&gt;Node6</title>
<path fill="none" stroke="midnightblue" d="M2324.16,-684.66C2060.82,-679.52 1056.72,-643.28 920.26,-389 895.68,-343.2 980.09,-207.96 1023.26,-179 1056.8,-156.5 1100.95,-145.24 1136.26,-139.62"/>
<polygon fill="midnightblue" stroke="midnightblue" points="1137.05,-143.04 1146.43,-138.11 1136.03,-136.11 1137.05,-143.04"/>
</g>
<!-- Node90&#45;&gt;Node30 -->
<g id="edge127" class="edge">
<title>Node90&#45;&gt;Node30</title>
<path fill="none" stroke="midnightblue" d="M2383.49,-671.28C2376.22,-643.19 2360.36,-578.46 2353.26,-523 2343.93,-450.18 2365.32,-428.63 2345.26,-358 2328.19,-297.91 2320.77,-279.82 2277.26,-235 2264.16,-221.52 2246.19,-210.63 2231.01,-202.94"/>
<polygon fill="midnightblue" stroke="midnightblue" points="2232.51,-199.78 2221.98,-198.58 2229.46,-206.08 2232.51,-199.78"/>
</g>
<!-- Node90&#45;&gt;Node60 -->
<g id="edge129" class="edge">
<title>Node90&#45;&gt;Node60</title>
<path fill="none" stroke="midnightblue" d="M2390.54,-671.31C2397.88,-639.63 2415.61,-563.11 2423.87,-527.42"/>
<polygon fill="midnightblue" stroke="midnightblue" points="2427.35,-527.91 2426.2,-517.37 2420.53,-526.33 2427.35,-527.91"/>
</g>
<!-- Node90&#45;&gt;Node62 -->
<g id="edge128" class="edge">
<title>Node90&#45;&gt;Node62</title>
<path fill="none" stroke="midnightblue" d="M2400.63,-671.1C2424.85,-644.19 2475.89,-583.52 2502.26,-523 2521.39,-479.07 2528.99,-422.58 2531.78,-393.57"/>
<polygon fill="midnightblue" stroke="midnightblue" points="2535.3,-393.51 2532.68,-383.25 2528.32,-392.9 2535.3,-393.51"/>
</g>
<!-- Node90&#45;&gt;Node91 -->
<g id="edge90" class="edge">
<title>Node90&#45;&gt;Node91</title>
<path fill="none" stroke="midnightblue" d="M2324.15,-679.38C2204.14,-667.75 1944.78,-642.62 1829.94,-631.49"/>
<polygon fill="midnightblue" stroke="midnightblue" points="1830.24,-628.01 1819.95,-630.52 1829.56,-634.97 1830.24,-628.01"/>
</g>
<!-- Node91&#45;&gt;Node2 -->
<g id="edge91" class="edge">
<title>Node91&#45;&gt;Node2</title>
<path fill="none" stroke="midnightblue" d="M1819.96,-616.88C1866.75,-609.28 1940.62,-595.99 2003.26,-579 2021.43,-574.07 2152.36,-538.36 2163.26,-523 2217.41,-446.67 2083.15,-271.43 2069.26,-199 2058.21,-141.38 2061.35,-125.13 2069.26,-67 2070.74,-56.13 2073.93,-44.29 2076.89,-34.81"/>
<polygon fill="midnightblue" stroke="midnightblue" points="2080.22,-35.88 2080.04,-25.29 2073.58,-33.69 2080.22,-35.88"/>
</g>
<!-- Node91&#45;&gt;Node3 -->
<g id="edge92" class="edge">
<title>Node91&#45;&gt;Node3</title>
<path fill="none" stroke="midnightblue" d="M1820.17,-624C1949.31,-623.47 2320.7,-618.36 2626.26,-579 2894.51,-544.44 2971.94,-558.45 3222.26,-456 3245.76,-446.38 3246.67,-434.41 3270.26,-425 3350.9,-392.85 3395.73,-444.79 3462.26,-389 3534.68,-328.26 3537.26,-284.52 3537.26,-190 3537.26,-190 3537.26,-190 3537.26,-132 3537.26,-34.95 3386.43,-18.57 3311.92,-16.4"/>
<polygon fill="midnightblue" stroke="midnightblue" points="3311.58,-12.89 3301.51,-16.17 3311.43,-19.89 3311.58,-12.89"/>
</g>
<!-- Node91&#45;&gt;Node6 -->
<g id="edge96" class="edge">
<title>Node91&#45;&gt;Node6</title>
<path fill="none" stroke="midnightblue" d="M1726.46,-618.17C1674.22,-611.13 1587.4,-597.84 1514.26,-579 1487.85,-572.2 1482.36,-566.89 1456.26,-559 1395.58,-540.65 1378.94,-541.31 1318.26,-523 1307.29,-519.69 934.91,-398.32 928.26,-389 920.25,-377.79 924.25,-371.18 928.26,-358 942.19,-312.18 1009.78,-207.51 1048.26,-179 1073.93,-159.98 1107.7,-148.92 1136.51,-142.53"/>
<polygon fill="midnightblue" stroke="midnightblue" points="1137.39,-145.92 1146.47,-140.46 1135.96,-139.06 1137.39,-145.92"/>
</g>
<!-- Node91&#45;&gt;Node8 -->
<g id="edge93" class="edge">
<title>Node91&#45;&gt;Node8</title>
<path fill="none" stroke="midnightblue" d="M1726.71,-617.96C1664.84,-609.81 1552.15,-594.5 1456.26,-579 1083.53,-518.76 942.88,-597.73 628.26,-389 520.3,-317.38 415.26,-319.55 415.26,-190 415.26,-190 415.26,-190 415.26,-132 415.26,-61.65 511.56,-32.93 567.04,-22.22"/>
<polygon fill="midnightblue" stroke="midnightblue" points="568.01,-25.6 577.22,-20.36 566.76,-18.71 568.01,-25.6"/>
</g>
<!-- Node91&#45;&gt;Node13 -->
<g id="edge120" class="edge">
<title>Node91&#45;&gt;Node13</title>
<path fill="none" stroke="midnightblue" d="M1726.41,-622.6C1471.54,-613.74 263.26,-555.43 263.26,-246 263.26,-246 263.26,-246 263.26,-132 263.26,-100.49 263.26,-64.16 263.26,-40.78"/>
<polygon fill="midnightblue" stroke="midnightblue" points="266.76,-40.72 263.26,-30.72 259.76,-40.72 266.76,-40.72"/>
</g>
<!-- Node91&#45;&gt;Node22 -->
<g id="edge94" class="edge">
<title>Node91&#45;&gt;Node22</title>
<path fill="none" stroke="midnightblue" d="M1726.48,-620C1692.22,-615.04 1646.15,-603.92 1613.26,-579 1506.56,-498.18 1499.2,-448.77 1456.26,-322 1449.88,-303.19 1448.23,-280.4 1447.95,-264.71"/>
<polygon fill="midnightblue" stroke="midnightblue" points="1451.45,-264.7 1447.95,-254.7 1444.45,-264.7 1451.45,-264.7"/>
</g>
<!-- Node91&#45;&gt;Node30 -->
<g id="edge119" class="edge">
<title>Node91&#45;&gt;Node30</title>
<path fill="none" stroke="midnightblue" d="M1820.09,-620.71C1921.58,-612.42 2155.96,-586.62 2196.26,-523 2261.24,-420.4 2222.95,-261.97 2207.11,-208.41"/>
<polygon fill="midnightblue" stroke="midnightblue" points="2210.39,-207.17 2204.12,-198.63 2203.7,-209.22 2210.39,-207.17"/>
</g>
<!-- Node91&#45;&gt;Node61 -->
<g id="edge125" class="edge">
<title>Node91&#45;&gt;Node61</title>
<path fill="none" stroke="midnightblue" d="M1800.45,-615.41C1819.16,-608.28 1843.39,-596.46 1859.26,-579 1874.97,-561.71 1896.5,-499.98 1907.74,-465.4"/>
<polygon fill="midnightblue" stroke="midnightblue" points="1911.15,-466.21 1910.88,-455.62 1904.49,-464.07 1911.15,-466.21"/>
</g>
<!-- Node91&#45;&gt;Node74 -->
<g id="edge117" class="edge">
<title>Node91&#45;&gt;Node74</title>
<path fill="none" stroke="midnightblue" d="M1759.88,-615.3C1748.61,-607.25 1732.97,-594.24 1724.26,-579 1711.62,-556.9 1714.94,-548.31 1712.26,-523 1704.86,-453.15 1724.03,-371.07 1735.08,-331.39"/>
<polygon fill="midnightblue" stroke="midnightblue" points="1738.5,-332.16 1737.89,-321.58 1731.77,-330.23 1738.5,-332.16"/>
</g>
<!-- Node92 -->
<g id="node30" class="node">
<title>Node92</title>
<g id="a_node30"><a xlink:title=" ">
<polygon fill="none" stroke="#bfbfbf" points="1622.26,-559.5 1622.26,-578.5 1672.26,-578.5 1672.26,-559.5 1622.26,-559.5"/>
<text text-anchor="middle" x="1647.26" y="-566.5" font-family="Helvetica,sans-Serif" font-size="10.00">atomic</text>
</a>
</g>
</g>
<!-- Node91&#45;&gt;Node92 -->
<g id="edge95" class="edge">
<title>Node91&#45;&gt;Node92</title>
<path fill="none" stroke="midnightblue" d="M1753.29,-615.44C1732.65,-606.6 1700.19,-592.69 1676.62,-582.59"/>
<polygon fill="midnightblue" stroke="midnightblue" points="1677.7,-579.24 1667.13,-578.52 1674.94,-585.67 1677.7,-579.24"/>
</g>
<!-- Node93 -->
<g id="node31" class="node">
<title>Node93</title>
<g id="a_node31"><a xlink:href="../../da/d55/lock__object_8h.html" target="_top" xlink:title=" ">
<polygon fill="none" stroke="red" points="937.76,-364 937.76,-383 1062.76,-383 1062.76,-364 937.76,-364"/>
<text text-anchor="middle" x="1000.26" y="-371" font-family="Helvetica,sans-Serif" font-size="10.00">includes/lock_object.h</text>
</a>
</g>
</g>
<!-- Node91&#45;&gt;Node93 -->
<g id="edge97" class="edge">
<title>Node91&#45;&gt;Node93</title>
<path fill="none" stroke="midnightblue" d="M1730.74,-615.49C1691.4,-607.29 1631.45,-593.94 1580.26,-579 1367.06,-516.76 1117.39,-420.65 1031.28,-386.8"/>
<polygon fill="midnightblue" stroke="midnightblue" points="1032.42,-383.49 1021.83,-383.08 1029.85,-390 1032.42,-383.49"/>
</g>
<!-- Node83 -->
<g id="node32" class="node">
<title>Node83</title>
<g id="a_node32"><a xlink:href="../../d2/d91/point_8h.html" target="_top" xlink:title=" ">
<polygon fill="none" stroke="red" points="1851.76,-297 1851.76,-316 1960.76,-316 1960.76,-297 1851.76,-297"/>
<text text-anchor="middle" x="1906.26" y="-304" font-family="Helvetica,sans-Serif" font-size="10.00">geometries/point.h</text>
</a>
</g>
</g>
<!-- Node91&#45;&gt;Node83 -->
<g id="edge99" class="edge">
<title>Node91&#45;&gt;Node83</title>
<path fill="none" stroke="midnightblue" d="M1768.64,-615.24C1762.67,-602.82 1753.45,-579.33 1757.26,-559 1769.01,-496.21 1776.95,-480.11 1809.26,-425 1832.62,-385.13 1869.26,-344.96 1890.19,-323.47"/>
<polygon fill="midnightblue" stroke="midnightblue" points="1892.84,-325.76 1897.37,-316.18 1887.86,-320.84 1892.84,-325.76"/>
</g>
<!-- Node95 -->
<g id="node33" class="node">
<title>Node95</title>
<g id="a_node33"><a xlink:href="../../d1/d4e/dof_8h.html" target="_top" xlink:title=" ">
<polygon fill="none" stroke="red" points="1766.26,-559.5 1766.26,-578.5 1850.26,-578.5 1850.26,-559.5 1766.26,-559.5"/>
<text text-anchor="middle" x="1808.26" y="-566.5" font-family="Helvetica,sans-Serif" font-size="10.00">includes/dof.h</text>
</a>
</g>
</g>
<!-- Node91&#45;&gt;Node95 -->
<g id="edge102" class="edge">
<title>Node91&#45;&gt;Node95</title>
<path fill="none" stroke="midnightblue" d="M1779.04,-615.08C1783.93,-607.53 1791.08,-596.49 1797.09,-587.23"/>
<polygon fill="midnightblue" stroke="midnightblue" points="1800.08,-589.05 1802.58,-578.75 1794.21,-585.24 1800.08,-589.05"/>
</g>
<!-- Node96 -->
<g id="node34" class="node">
<title>Node96</title>
<g id="a_node34"><a xlink:href="../../db/d22/nodal__data_8h.html" target="_top" xlink:title=" ">
<polygon fill="none" stroke="black" points="2020.26,-498 2020.26,-517 2154.26,-517 2154.26,-498 2020.26,-498"/>
<text text-anchor="middle" x="2087.26" y="-505" font-family="Helvetica,sans-Serif" font-size="10.00">containers/nodal_data.h</text>
</a>
</g>
</g>
<!-- Node91&#45;&gt;Node96 -->
<g id="edge126" class="edge">
<title>Node91&#45;&gt;Node96</title>
<path fill="none" stroke="midnightblue" d="M1819.78,-617.41C1860.07,-610.73 1919.39,-598.56 1968.26,-579 2005.26,-564.19 2044.3,-538.95 2067.18,-523.03"/>
<polygon fill="midnightblue" stroke="midnightblue" points="2069.25,-525.86 2075.4,-517.23 2065.21,-520.14 2069.25,-525.86"/>
</g>
<!-- Node97 -->
<g id="node35" class="node">
<title>Node97</title>
<g id="a_node35"><a xlink:href="../../d4/d52/variables__list__data__value__container_8h.html" target="_top" xlink:title=" ">
<polygon fill="none" stroke="red" points="1995.76,-425.5 1995.76,-455.5 2150.76,-455.5 2150.76,-425.5 1995.76,-425.5"/>
<text text-anchor="start" x="2003.76" y="-443.5" font-family="Helvetica,sans-Serif" font-size="10.00">containers/variables</text>
<text text-anchor="middle" x="2073.26" y="-432.5" font-family="Helvetica,sans-Serif" font-size="10.00">_list_data_value_container.h</text>
</a>
</g>
</g>
<!-- Node91&#45;&gt;Node97 -->
<g id="edge118" class="edge">
<title>Node91&#45;&gt;Node97</title>
<path fill="none" stroke="midnightblue" d="M1797.77,-615.46C1819.93,-607.33 1853.15,-594.11 1880.26,-579 1944.3,-543.3 2012.7,-490.67 2048.36,-461.98"/>
<polygon fill="midnightblue" stroke="midnightblue" points="2050.72,-464.58 2056.29,-455.57 2046.32,-459.14 2050.72,-464.58"/>
</g>
<!-- Node99 -->
<g id="node36" class="node">
<title>Node99</title>
<g id="a_node36"><a xlink:href="../../de/d44/global__pointers__vector_8h.html" target="_top" xlink:title=" ">
<polygon fill="none" stroke="red" points="2664.26,-492.5 2664.26,-522.5 2810.26,-522.5 2810.26,-492.5 2664.26,-492.5"/>
<text text-anchor="start" x="2672.26" y="-510.5" font-family="Helvetica,sans-Serif" font-size="10.00">containers/global_pointers</text>
<text text-anchor="middle" x="2737.26" y="-499.5" font-family="Helvetica,sans-Serif" font-size="10.00">_vector.h</text>
</a>
</g>
</g>
<!-- Node91&#45;&gt;Node99 -->
<g id="edge121" class="edge">
<title>Node91&#45;&gt;Node99</title>
<path fill="none" stroke="midnightblue" d="M1819.95,-619.46C1951.09,-606.53 2333.82,-567.56 2650.26,-523 2651.54,-522.82 2652.82,-522.64 2654.12,-522.45"/>
<polygon fill="midnightblue" stroke="midnightblue" points="2654.82,-525.88 2664.2,-520.95 2653.79,-518.96 2654.82,-525.88"/>
</g>
<!-- Node93&#45;&gt;Node6 -->
<g id="edge98" class="edge">
<title>Node93&#45;&gt;Node6</title>
<path fill="none" stroke="midnightblue" d="M1000.68,-363.79C1002.61,-333.74 1013.02,-233.36 1067.26,-179 1085.81,-160.4 1112.45,-149.48 1136.71,-143.06"/>
<polygon fill="midnightblue" stroke="midnightblue" points="1137.69,-146.43 1146.57,-140.66 1136.03,-139.63 1137.69,-146.43"/>
</g>
<!-- Node83&#45;&gt;Node6 -->
<g id="edge100" class="edge">
<title>Node83&#45;&gt;Node6</title>
<path fill="none" stroke="midnightblue" d="M1888.98,-296.85C1841.62,-273.56 1705.17,-209.22 1584.26,-179 1470.29,-150.52 1332.91,-139.98 1255.98,-136.14"/>
<polygon fill="midnightblue" stroke="midnightblue" points="1256.14,-132.64 1245.99,-135.66 1255.81,-139.63 1256.14,-132.64"/>
</g>
<!-- Node83&#45;&gt;Node23 -->
<g id="edge101" class="edge">
<title>Node83&#45;&gt;Node23</title>
<path fill="none" stroke="midnightblue" d="M1960.93,-300.91C2088.93,-290.15 2407.73,-263.36 2547.17,-251.64"/>
<polygon fill="midnightblue" stroke="midnightblue" points="2547.63,-255.11 2557.3,-250.79 2547.04,-248.14 2547.63,-255.11"/>
</g>
<!-- Node95&#45;&gt;Node2 -->
<g id="edge103" class="edge">
<title>Node95&#45;&gt;Node2</title>
<path fill="none" stroke="midnightblue" d="M1808.51,-559.21C1809.57,-535.63 1815.03,-469.75 1843.26,-425 1881.85,-363.82 1938.27,-387.36 1969.26,-322 1988.64,-281.12 1921.26,-223.82 1921.26,-190 1921.26,-190 1921.26,-190 1921.26,-132 1921.26,-68.77 2004.1,-36.91 2051.3,-23.88"/>
<polygon fill="midnightblue" stroke="midnightblue" points="2052.29,-27.24 2061.07,-21.32 2050.51,-20.47 2052.29,-27.24"/>
</g>
<!-- Node95&#45;&gt;Node3 -->
<g id="edge104" class="edge">
<title>Node95&#45;&gt;Node3</title>
<path fill="none" stroke="midnightblue" d="M1850.59,-566.3C1981.02,-560.9 2375.58,-543.28 2502.26,-523 2556.65,-514.29 2567.91,-500.96 2622.26,-492 2835.96,-456.77 2902.91,-524.89 3108.26,-456 3132.33,-447.92 3132.87,-434.89 3156.26,-425 3221.79,-397.28 3254.52,-430.59 3312.26,-389 3343.92,-366.19 3423.26,-217.44 3423.26,-190 3423.26,-190 3423.26,-190 3423.26,-132 3423.26,-75.49 3355.84,-43.02 3310.8,-27.64"/>
<polygon fill="midnightblue" stroke="midnightblue" points="3311.88,-24.31 3301.29,-24.52 3309.7,-30.96 3311.88,-24.31"/>
</g>
<!-- Node95&#45;&gt;Node6 -->
<g id="edge107" class="edge">
<title>Node95&#45;&gt;Node6</title>
<path fill="none" stroke="midnightblue" d="M1788.42,-559.39C1752.86,-544.19 1675.65,-512.31 1608.26,-492 1409.32,-432.06 1303.1,-531.88 1152.26,-389 1084.47,-324.79 1112.33,-260.3 1158.26,-179 1164.22,-168.45 1172.8,-158.02 1180.3,-149.87"/>
<polygon fill="midnightblue" stroke="midnightblue" points="1182.92,-152.19 1187.31,-142.55 1177.86,-147.36 1182.92,-152.19"/>
</g>
<!-- Node95&#45;&gt;Node8 -->
<g id="edge105" class="edge">
<title>Node95&#45;&gt;Node8</title>
<path fill="none" stroke="midnightblue" d="M1766.07,-564.66C1585.36,-549.87 876.8,-486.57 678.26,-389 566.62,-334.14 583.13,-247.12 591.26,-123 593.29,-91.93 598.63,-56.08 602.09,-34.9"/>
<polygon fill="midnightblue" stroke="midnightblue" points="605.55,-35.46 603.75,-25.02 598.64,-34.3 605.55,-35.46"/>
</g>
<!-- Node95&#45;&gt;Node22 -->
<g id="edge106" class="edge">
<title>Node95&#45;&gt;Node22</title>
<path fill="none" stroke="midnightblue" d="M1796.18,-559.33C1776.52,-545.2 1736.34,-516.36 1702.26,-492 1660.52,-462.16 1651.47,-452.65 1608.26,-425 1581.09,-407.62 1571.17,-408.2 1545.26,-389 1510.4,-363.17 1497.74,-358.48 1474.26,-322 1462.73,-304.09 1455.7,-280.49 1451.91,-264.38"/>
<polygon fill="midnightblue" stroke="midnightblue" points="1455.32,-263.6 1449.78,-254.57 1448.48,-265.09 1455.32,-263.6"/>
</g>
<!-- Node95&#45;&gt;Node61 -->
<g id="edge108" class="edge">
<title>Node95&#45;&gt;Node61</title>
<path fill="none" stroke="midnightblue" d="M1814.06,-559.23C1823.79,-544.73 1844.32,-515.06 1864.26,-492 1873.04,-481.84 1883.47,-471.28 1892.6,-462.46"/>
<polygon fill="midnightblue" stroke="midnightblue" points="1895.08,-464.93 1899.9,-455.5 1890.25,-459.87 1895.08,-464.93"/>
</g>
<!-- Node95&#45;&gt;Node96 -->
<g id="edge109" class="edge">
<title>Node95&#45;&gt;Node96</title>
<path fill="none" stroke="midnightblue" d="M1848.23,-559.48C1898.06,-548.85 1983.23,-530.68 2037.31,-519.15"/>
<polygon fill="midnightblue" stroke="midnightblue" points="2038.31,-522.52 2047.36,-517.01 2036.85,-515.67 2038.31,-522.52"/>
</g>
<!-- Node96&#45;&gt;Node3 -->
<g id="edge110" class="edge">
<title>Node96&#45;&gt;Node3</title>
<path fill="none" stroke="midnightblue" d="M2154.49,-502.8C2208.26,-499.85 2285.6,-495.62 2353.26,-492 2429.25,-487.93 2967.26,-485.87 3037.26,-456 3055.76,-448.1 3052.99,-435.33 3070.26,-425 3113.31,-399.23 3132.4,-411.48 3177.26,-389 3224.1,-365.53 3240.54,-362.11 3274.26,-322 3298.18,-293.53 3309.26,-283.19 3309.26,-246 3309.26,-246 3309.26,-246 3309.26,-132 3309.26,-95.75 3292.16,-56.17 3280.9,-34.03"/>
<polygon fill="midnightblue" stroke="midnightblue" points="3283.99,-32.37 3276.22,-25.16 3277.79,-35.64 3283.99,-32.37"/>
</g>
<!-- Node96&#45;&gt;Node97 -->
<g id="edge111" class="edge">
<title>Node96&#45;&gt;Node97</title>
<path fill="none" stroke="midnightblue" d="M2085.37,-497.73C2083.59,-489.46 2080.83,-476.66 2078.4,-465.37"/>
<polygon fill="midnightblue" stroke="midnightblue" points="2081.82,-464.63 2076.29,-455.59 2074.97,-466.1 2081.82,-464.63"/>
</g>
<!-- Node97&#45;&gt;Node2 -->
<g id="edge112" class="edge">
<title>Node97&#45;&gt;Node2</title>
<path fill="none" stroke="midnightblue" d="M2077.19,-425.47C2084.04,-398.5 2095.91,-337.93 2079.26,-291 2059.92,-236.51 1997.26,-247.82 1997.26,-190 1997.26,-190 1997.26,-190 1997.26,-132 1997.26,-88.61 2036.78,-50.97 2062.24,-31.23"/>
<polygon fill="midnightblue" stroke="midnightblue" points="2064.65,-33.79 2070.57,-25.01 2060.46,-28.19 2064.65,-33.79"/>
</g>
<!-- Node97&#45;&gt;Node3 -->
<g id="edge113" class="edge">
<title>Node97&#45;&gt;Node3</title>
<path fill="none" stroke="midnightblue" d="M2133.61,-425.48C2210.2,-408.03 2346.51,-378.06 2464.26,-358 2584.03,-337.59 2623.89,-370.59 2735.26,-322 2900.03,-250.11 2887.18,-144.79 3049.26,-67 3108.76,-38.44 3185.1,-25.65 3230.99,-20.21"/>
<polygon fill="midnightblue" stroke="midnightblue" points="3231.59,-23.67 3241.14,-19.07 3230.81,-16.71 3231.59,-23.67"/>
</g>
<!-- Node97&#45;&gt;Node6 -->
<g id="edge115" class="edge">
<title>Node97&#45;&gt;Node6</title>
<path fill="none" stroke="midnightblue" d="M1995.53,-426.07C1992.4,-425.68 1989.3,-425.32 1986.26,-425 1897.77,-415.67 1257.84,-441.84 1186.26,-389 1110.89,-333.37 1135.43,-266.74 1168.26,-179 1171.96,-169.11 1177.97,-159.04 1183.48,-150.94"/>
<polygon fill="midnightblue" stroke="midnightblue" points="1186.36,-152.92 1189.33,-142.75 1180.67,-148.85 1186.36,-152.92"/>
</g>
<!-- Node97&#45;&gt;Node22 -->
<g id="edge114" class="edge">
<title>Node97&#45;&gt;Node22</title>
<path fill="none" stroke="midnightblue" d="M2015.55,-425.45C1933.15,-404.97 1777.38,-364.68 1647.26,-322 1586.45,-302.05 1516.93,-274.35 1478.25,-258.49"/>
<polygon fill="midnightblue" stroke="midnightblue" points="1479.23,-255.11 1468.65,-254.53 1476.56,-261.58 1479.23,-255.11"/>
</g>
<!-- Node97&#45;&gt;Node62 -->
<g id="edge116" class="edge">
<title>Node97&#45;&gt;Node62</title>
<path fill="none" stroke="midnightblue" d="M2150.77,-428.55C2238.24,-416.19 2379.26,-396.26 2463.43,-384.37"/>
<polygon fill="midnightblue" stroke="midnightblue" points="2464,-387.82 2473.41,-382.96 2463.02,-380.89 2464,-387.82"/>
</g>
<!-- Node99&#45;&gt;Node3 -->
<g id="edge122" class="edge">
<title>Node99&#45;&gt;Node3</title>
<path fill="none" stroke="midnightblue" d="M2810.49,-502.3C2919.09,-495.38 3117.23,-479.93 3184.26,-456 3208.17,-447.46 3208.61,-434.27 3232.26,-425 3318.38,-391.24 3367.79,-450.09 3437.26,-389 3472.04,-358.41 3499.26,-236.32 3499.26,-190 3499.26,-190 3499.26,-190 3499.26,-132 3499.26,-101.2 3498.21,-87.53 3475.26,-67 3429.85,-26.37 3356.88,-17.26 3311.62,-15.84"/>
<polygon fill="midnightblue" stroke="midnightblue" points="3311.65,-12.34 3301.58,-15.63 3311.5,-19.33 3311.65,-12.34"/>
</g>
<!-- Node99&#45;&gt;Node6 -->
<g id="edge123" class="edge">
<title>Node99&#45;&gt;Node6</title>
<path fill="none" stroke="midnightblue" d="M2681.95,-492.43C2643.74,-482.57 2591.79,-468.91 2546.26,-456 2137.47,-340.12 2047.8,-262.8 1631.26,-179 1498.89,-152.37 1340.51,-141.02 1256.14,-136.58"/>
<polygon fill="midnightblue" stroke="midnightblue" points="1256.14,-133.07 1245.97,-136.06 1255.78,-140.06 1256.14,-133.07"/>
</g>
<!-- Node99&#45;&gt;Node23 -->
<g id="edge124" class="edge">
<title>Node99&#45;&gt;Node23</title>
<path fill="none" stroke="midnightblue" d="M2742.12,-492.27C2753.85,-455.18 2779.54,-354.08 2735.26,-291 2722.53,-272.87 2701.59,-262.03 2680.68,-255.55"/>
<polygon fill="midnightblue" stroke="midnightblue" points="2681.35,-252.11 2670.78,-252.79 2679.47,-258.85 2681.35,-252.11"/>
</g>
<!-- Node102&#45;&gt;Node6 -->
<g id="edge131" class="edge">
<title>Node102&#45;&gt;Node6</title>
<path fill="none" stroke="midnightblue" d="M1217.81,-358.46C1202.05,-350.35 1185.2,-338.44 1176.26,-322 1145.84,-266.08 1172.99,-186.99 1187.94,-151.93"/>
<polygon fill="midnightblue" stroke="midnightblue" points="1191.25,-153.1 1192.11,-142.54 1184.85,-150.26 1191.25,-153.1"/>
</g>
<!-- Node102&#45;&gt;Node103 -->
<g id="edge132" class="edge">
<title>Node102&#45;&gt;Node103</title>
<path fill="none" stroke="midnightblue" d="M1313.55,-371.81C1537.94,-368.99 2335.82,-356.76 2611.63,-321.84"/>
<polygon fill="midnightblue" stroke="midnightblue" points="2612.16,-325.3 2621.62,-320.54 2611.25,-318.36 2612.16,-325.3"/>
</g>
<!-- Node103&#45;&gt;Node6 -->
<g id="edge134" class="edge">
<title>Node103&#45;&gt;Node6</title>
<path fill="none" stroke="midnightblue" d="M2639.05,-291.47C2559.4,-259.84 2369.91,-185.22 2339.26,-179 2129.19,-136.37 1460.65,-133.64 1256.22,-133.83"/>
<polygon fill="midnightblue" stroke="midnightblue" points="1255.98,-130.33 1245.98,-133.84 1255.99,-137.33 1255.98,-130.33"/>
</g>
<!-- Node103&#45;&gt;Node23 -->
<g id="edge135" class="edge">
<title>Node103&#45;&gt;Node23</title>
<path fill="none" stroke="midnightblue" d="M2660.04,-291.4C2651.05,-282.49 2639.42,-270.95 2630.13,-261.74"/>
<polygon fill="midnightblue" stroke="midnightblue" points="2632.55,-259.21 2622.99,-254.66 2627.62,-264.18 2632.55,-259.21"/>
</g>
<!-- Node68 -->
<g id="node39" class="node">
<title>Node68</title>
<g id="a_node39"><a xlink:title=" ">
<polygon fill="none" stroke="#bfbfbf" points="2993.76,-235.5 2993.76,-254.5 3062.76,-254.5 3062.76,-235.5 2993.76,-235.5"/>
<text text-anchor="middle" x="3028.26" y="-242.5" font-family="Helvetica,sans-Serif" font-size="10.00">type_traits</text>
</a>
</g>
</g>
<!-- Node103&#45;&gt;Node68 -->
<g id="edge133" class="edge">
<title>Node103&#45;&gt;Node68</title>
<path fill="none" stroke="midnightblue" d="M2726.87,-296.66C2796.53,-284.95 2918.15,-264.51 2983.57,-253.51"/>
<polygon fill="midnightblue" stroke="midnightblue" points="2984.29,-256.94 2993.57,-251.83 2983.13,-250.04 2984.29,-256.94"/>
</g>
<!-- Node104&#45;&gt;Node60 -->
<g id="edge137" class="edge">
<title>Node104&#45;&gt;Node60</title>
<path fill="none" stroke="midnightblue" d="M2715.73,-738.29C2710,-708.32 2686.92,-608.55 2626.26,-559 2591.93,-530.97 2543.97,-518.27 2503.84,-512.61"/>
<polygon fill="midnightblue" stroke="midnightblue" points="2504.18,-509.13 2493.82,-511.32 2503.29,-516.07 2504.18,-509.13"/>
</g>
<!-- Node104&#45;&gt;Node99 -->
<g id="edge138" class="edge">
<title>Node104&#45;&gt;Node99</title>
<path fill="none" stroke="midnightblue" d="M2721.85,-738.33C2726.26,-729.48 2732.64,-715.21 2735.26,-702 2747.08,-642.27 2743.16,-570.12 2739.87,-533.08"/>
<polygon fill="midnightblue" stroke="midnightblue" points="2743.32,-532.39 2738.88,-522.76 2736.35,-533.05 2743.32,-532.39"/>
</g>
<!-- Node121&#45;&gt;Node60 -->
<g id="edge140" class="edge">
<title>Node121&#45;&gt;Node60</title>
<path fill="none" stroke="midnightblue" d="M2541.34,-559.48C2519.09,-549.45 2481.94,-532.7 2456.33,-521.15"/>
<polygon fill="midnightblue" stroke="midnightblue" points="2457.69,-517.93 2447.13,-517.01 2454.81,-524.31 2457.69,-517.93"/>
</g>
<!-- Node121&#45;&gt;Node99 -->
<g id="edge141" class="edge">
<title>Node121&#45;&gt;Node99</title>
<path fill="none" stroke="midnightblue" d="M2585.62,-559.48C2611.72,-550.7 2653.11,-536.79 2686.05,-525.71"/>
<polygon fill="midnightblue" stroke="midnightblue" points="2687.18,-529.03 2695.54,-522.52 2684.95,-522.39 2687.18,-529.03"/>
</g>
<!-- Node122&#45;&gt;Node2 -->
<g id="edge143" class="edge">
<title>Node122&#45;&gt;Node2</title>
<path fill="none" stroke="midnightblue" d="M2272.39,-794.49C2366.51,-775.59 2563.32,-720.07 2626.26,-579 2632.95,-563.99 2660.44,-432.26 2601.26,-358 2572.08,-321.39 2542.49,-345.94 2502.26,-322 2484.4,-311.37 2482.85,-304.73 2467.26,-291 2438.89,-266.03 2431.98,-259.57 2403.26,-235 2373.76,-209.78 2366.63,-203.16 2336.26,-179 2303.98,-153.32 2295.38,-147.58 2262.26,-123 2228.27,-97.79 2221.46,-88.91 2185.26,-67 2161.47,-52.6 2133.01,-38.78 2112.21,-29.24"/>
<polygon fill="midnightblue" stroke="midnightblue" points="2113.5,-25.98 2102.95,-25.05 2110.62,-32.36 2113.5,-25.98"/>
</g>
<!-- Node122&#45;&gt;Node3 -->
<g id="edge144" class="edge">
<title>Node122&#45;&gt;Node3</title>
<path fill="none" stroke="midnightblue" d="M2268.95,-794.47C2313.51,-786.2 2381.73,-772.77 2440.26,-758 2710.99,-689.65 3613.26,-586.73 3613.26,-307.5 3613.26,-307.5 3613.26,-307.5 3613.26,-132 3613.26,-94.16 3591.07,-85.85 3558.26,-67 3516.84,-43.21 3380.4,-27.04 3311.63,-20.19"/>
<polygon fill="midnightblue" stroke="midnightblue" points="3311.89,-16.7 3301.6,-19.21 3311.21,-23.67 3311.89,-16.7"/>
</g>
<!-- Node122&#45;&gt;Node6 -->
<g id="edge147" class="edge">
<title>Node122&#45;&gt;Node6</title>
<path fill="none" stroke="midnightblue" d="M2151.46,-801.34C1980.38,-796.92 1543.71,-783.44 1400.26,-758 1215.86,-725.3 1139.14,-757.22 997.26,-635 868.93,-524.46 925.78,-432.87 833.26,-291 817.72,-267.17 787.09,-259.07 802.26,-235 837.78,-178.61 1035.14,-150.47 1136.35,-139.57"/>
<polygon fill="midnightblue" stroke="midnightblue" points="1136.85,-143.04 1146.43,-138.51 1136.12,-136.08 1136.85,-143.04"/>
</g>
<!-- Node122&#45;&gt;Node8 -->
<g id="edge145" class="edge">
<title>Node122&#45;&gt;Node8</title>
<path fill="none" stroke="midnightblue" d="M2151.69,-801.94C1957.6,-798.63 1412.78,-786.97 1236.26,-758 1003.43,-719.79 339.26,-425.94 339.26,-190 339.26,-190 339.26,-190 339.26,-132 339.26,-34.11 492.7,-18.29 566.51,-16.34"/>
<polygon fill="midnightblue" stroke="midnightblue" points="566.86,-19.84 576.79,-16.15 566.72,-12.84 566.86,-19.84"/>
</g>
<!-- Node122&#45;&gt;Node22 -->
<g id="edge146" class="edge">
<title>Node122&#45;&gt;Node22</title>
<path fill="none" stroke="midnightblue" d="M2151.75,-800.3C1945.98,-791.65 1350.35,-761.64 1288.26,-702 1154.5,-573.53 1371.02,-326.94 1432.64,-262"/>
<polygon fill="midnightblue" stroke="midnightblue" points="1435.26,-264.32 1439.66,-254.68 1430.21,-259.48 1435.26,-264.32"/>
</g>
<!-- Node122&#45;&gt;Node73 -->
<g id="edge150" class="edge">
<title>Node122&#45;&gt;Node73</title>
<path fill="none" stroke="midnightblue" d="M2207.12,-794.32C2193.39,-785.9 2172.32,-772.97 2156.19,-763.07"/>
<polygon fill="midnightblue" stroke="midnightblue" points="2157.71,-759.9 2147.36,-757.65 2154.05,-765.87 2157.71,-759.9"/>
</g>
<!-- Node122&#45;&gt;Node104 -->
<g id="edge149" class="edge">
<title>Node122&#45;&gt;Node104</title>
<path fill="none" stroke="midnightblue" d="M2291.01,-795.41C2386.94,-784.96 2558.32,-766.3 2651.89,-756.12"/>
<polygon fill="midnightblue" stroke="midnightblue" points="2652.51,-759.57 2662.07,-755.01 2651.75,-752.61 2652.51,-759.57"/>
</g>
<!-- Node122&#45;&gt;Node121 -->
<g id="edge148" class="edge">
<title>Node122&#45;&gt;Node121</title>
<path fill="none" stroke="midnightblue" d="M2255.66,-794.45C2304.7,-780.99 2395.76,-751.23 2459.26,-702 2501.3,-669.4 2535.17,-615.3 2550.83,-587.57"/>
<polygon fill="midnightblue" stroke="midnightblue" points="2553.99,-589.08 2555.76,-578.63 2547.87,-585.7 2553.99,-589.08"/>
</g>
<!-- Node106&#45;&gt;Node2 -->
<g id="edge152" class="edge">
<title>Node106&#45;&gt;Node2</title>
<path fill="none" stroke="midnightblue" d="M2982.06,-430.76C2983.87,-406.68 2986.16,-338.07 2959.26,-291 2939.31,-256.11 2712.87,-81.16 2675.26,-67 2571.43,-27.91 2224.09,-18.86 2115.79,-16.96"/>
<polygon fill="midnightblue" stroke="midnightblue" points="2115.55,-13.46 2105.5,-16.79 2115.44,-20.46 2115.55,-13.46"/>
</g>
<!-- Node106&#45;&gt;Node3 -->
<g id="edge153" class="edge">
<title>Node106&#45;&gt;Node3</title>
<path fill="none" stroke="midnightblue" d="M3008.66,-430.96C3070.44,-411.19 3217.81,-361 3251.26,-322 3273.99,-295.49 3271.26,-280.93 3271.26,-246 3271.26,-246 3271.26,-246 3271.26,-132 3271.26,-97.86 3271.26,-58.05 3271.26,-35.21"/>
<polygon fill="midnightblue" stroke="midnightblue" points="3274.76,-35.19 3271.26,-25.19 3267.76,-35.19 3274.76,-35.19"/>
</g>
<!-- Node106&#45;&gt;Node6 -->
<g id="edge155" class="edge">
<title>Node106&#45;&gt;Node6</title>
<path fill="none" stroke="midnightblue" d="M2975.62,-430.72C2958.88,-405.33 2906.77,-331.07 2845.26,-291 2780.01,-248.5 2753.87,-257.27 2679.26,-235 2584.64,-206.76 2561.96,-193.28 2464.26,-179 2226.75,-144.29 1474.7,-136.06 1256.28,-134.39"/>
<polygon fill="midnightblue" stroke="midnightblue" points="1256.01,-130.88 1245.98,-134.31 1255.96,-137.88 1256.01,-130.88"/>
</g>
<!-- Node106&#45;&gt;Node56 -->
<g id="edge154" class="edge">
<title>Node106&#45;&gt;Node56</title>
<path fill="none" stroke="midnightblue" d="M2985.22,-430.91C2995.55,-407.22 3020.88,-339.49 2997.26,-291 2985.89,-267.66 2962.63,-278.34 2951.26,-255 2943.47,-239.02 2953.07,-220.08 2962.72,-206.79"/>
<polygon fill="midnightblue" stroke="midnightblue" points="2965.75,-208.6 2969.21,-198.58 2960.26,-204.26 2965.75,-208.6"/>
</g>
<!-- Node106&#45;&gt;Node62 -->
<g id="edge156" class="edge">
<title>Node106&#45;&gt;Node62</title>
<path fill="none" stroke="midnightblue" d="M2934.16,-432.67C2854.8,-421.15 2694.1,-397.84 2602.09,-384.49"/>
<polygon fill="midnightblue" stroke="midnightblue" points="2602.43,-381 2592.04,-383.03 2601.43,-387.93 2602.43,-381"/>
</g>
<!-- Node123&#45;&gt;Node6 -->
<g id="edge161" class="edge">
<title>Node123&#45;&gt;Node6</title>
<path fill="none" stroke="midnightblue" d="M882.91,-235.2C895.85,-220.93 923.58,-192.93 953.26,-179 1011.75,-151.54 1085.54,-140.81 1136.37,-136.64"/>
<polygon fill="midnightblue" stroke="midnightblue" points="1136.83,-140.11 1146.53,-135.86 1136.3,-133.13 1136.83,-140.11"/>
</g>
<!-- Node123&#45;&gt;Node30 -->
<g id="edge162" class="edge">
<title>Node123&#45;&gt;Node30</title>
<path fill="none" stroke="midnightblue" d="M939.66,-241.38C1165.19,-232.19 1917.66,-201.55 2139.31,-192.52"/>
<polygon fill="midnightblue" stroke="midnightblue" points="2139.61,-196.01 2149.46,-192.11 2139.33,-189.02 2139.61,-196.01"/>
</g>
<!-- Node87&#45;&gt;Node56 -->
<g id="edge170" class="edge">
<title>Node87&#45;&gt;Node56</title>
<path fill="none" stroke="midnightblue" d="M3171.65,-296.99C3151.07,-283.24 3108.75,-255.59 3071.26,-235 3049.78,-223.21 3024.73,-211.3 3005.89,-202.7"/>
<polygon fill="midnightblue" stroke="midnightblue" points="3007.21,-199.46 2996.65,-198.52 3004.32,-205.83 3007.21,-199.46"/>
</g>
<!-- Node87&#45;&gt;Node68 -->
<g id="edge169" class="edge">
<title>Node87&#45;&gt;Node68</title>
<path fill="none" stroke="midnightblue" d="M3161.91,-296.98C3135.26,-286.81 3090.54,-269.76 3060.24,-258.2"/>
<polygon fill="midnightblue" stroke="midnightblue" points="3061.16,-254.8 3050.57,-254.51 3058.66,-261.34 3061.16,-254.8"/>
</g>
<!-- Node88 -->
<g id="node46" class="node">
<title>Node88</title>
<g id="a_node46"><a xlink:title=" ">
<polygon fill="none" stroke="#bfbfbf" points="3195.76,-235.5 3195.76,-254.5 3242.76,-254.5 3242.76,-235.5 3195.76,-235.5"/>
<text text-anchor="middle" x="3219.26" y="-242.5" font-family="Helvetica,sans-Serif" font-size="10.00">cmath</text>
</a>
</g>
</g>
<!-- Node87&#45;&gt;Node88 -->
<g id="edge168" class="edge">
<title>Node87&#45;&gt;Node88</title>
<path fill="none" stroke="midnightblue" d="M3189.27,-296.98C3194.42,-288.23 3202.57,-274.37 3209.07,-263.31"/>
<polygon fill="midnightblue" stroke="midnightblue" points="3212.2,-264.9 3214.25,-254.51 3206.16,-261.35 3212.2,-264.9"/>
</g>
<!-- Node125&#45;&gt;Node3 -->
<g id="edge173" class="edge">
<title>Node125&#45;&gt;Node3</title>
<path fill="none" stroke="midnightblue" d="M3727.26,-794.31C3727.26,-775.06 3727.26,-727.4 3727.26,-687.5 3727.26,-687.5 3727.26,-687.5 3727.26,-132 3727.26,-101.2 3727.46,-86.04 3703.26,-67 3643.06,-19.63 3406.92,-15.62 3311.54,-16"/>
<polygon fill="midnightblue" stroke="midnightblue" points="3311.41,-12.5 3301.43,-16.06 3311.45,-19.5 3311.41,-12.5"/>
</g>
<!-- Node133&#45;&gt;Node6 -->
<g id="edge175" class="edge">
<title>Node133&#45;&gt;Node6</title>
<path fill="none" stroke="midnightblue" d="M764.87,-296.74C759.1,-273.44 747.29,-209.63 781.26,-179 807.1,-155.7 1027.74,-142.03 1136.35,-136.66"/>
<polygon fill="midnightblue" stroke="midnightblue" points="1136.68,-140.15 1146.5,-136.16 1136.34,-133.15 1136.68,-140.15"/>
</g>
<!-- Node133&#45;&gt;Node123 -->
<g id="edge176" class="edge">
<title>Node133&#45;&gt;Node123</title>
<path fill="none" stroke="midnightblue" d="M782.73,-296.98C800.53,-287.17 830,-270.93 850.89,-259.42"/>
<polygon fill="midnightblue" stroke="midnightblue" points="852.74,-262.4 859.81,-254.51 849.36,-256.27 852.74,-262.4"/>
</g>
<!-- Node134&#45;&gt;Node2 -->
<g id="edge180" class="edge">
<title>Node134&#45;&gt;Node2</title>
<path fill="none" stroke="midnightblue" d="M1077.04,-615.39C1137.52,-587.25 1331.5,-493.81 1474.26,-389 1643.06,-265.07 1631.58,-161.91 1818.26,-67 1895.24,-27.86 1998.8,-18.91 2050.72,-16.96"/>
<polygon fill="midnightblue" stroke="midnightblue" points="2051.1,-20.45 2060.98,-16.64 2050.88,-13.45 2051.1,-20.45"/>
</g>
<!-- Node134&#45;&gt;Node3 -->
<g id="edge181" class="edge">
<title>Node134&#45;&gt;Node3</title>
<path fill="none" stroke="midnightblue" d="M1110.29,-621.47C1237.94,-615.18 1576.8,-597.96 1859.26,-579 1938.99,-573.65 2498.38,-540.9 2576.26,-523 2613.01,-514.55 2618.48,-500.36 2655.26,-492 2868.62,-443.49 2942.95,-536.9 3146.26,-456 3166.51,-447.94 3164.69,-434.6 3184.26,-425 3247.74,-393.84 3280.83,-428.86 3339.26,-389 3375.22,-364.47 3461.26,-208.73 3461.26,-190 3461.26,-190 3461.26,-190 3461.26,-132 3461.26,-62.41 3367.03,-33.55 3311.29,-22.57"/>
<polygon fill="midnightblue" stroke="midnightblue" points="3311.83,-19.11 3301.36,-20.72 3310.55,-25.99 3311.83,-19.11"/>
</g>
<!-- Node134&#45;&gt;Node5 -->
<g id="edge183" class="edge">
<title>Node134&#45;&gt;Node5</title>
<path fill="none" stroke="midnightblue" d="M1006.04,-619.79C886.76,-610.16 594.2,-586.54 459.38,-575.66"/>
<polygon fill="midnightblue" stroke="midnightblue" points="459.42,-572.15 449.17,-574.84 458.86,-579.13 459.42,-572.15"/>
</g>
<!-- Node134&#45;&gt;Node6 -->
<g id="edge182" class="edge">
<title>Node134&#45;&gt;Node6</title>
<path fill="none" stroke="midnightblue" d="M1023.32,-615.47C942.95,-593.73 745.83,-527.9 667.26,-389 633.44,-329.22 658.39,-300.11 680.26,-235 688.93,-209.16 683.09,-194.86 705.26,-179 739.62,-154.41 1013.06,-140.98 1136.34,-136.13"/>
<polygon fill="midnightblue" stroke="midnightblue" points="1136.52,-139.62 1146.38,-135.74 1136.25,-132.63 1136.52,-139.62"/>
</g>
<!-- Node134&#45;&gt;Node121 -->
<g id="edge184" class="edge">
<title>Node134&#45;&gt;Node121</title>
<path fill="none" stroke="midnightblue" d="M1110.39,-622.13C1337.17,-613.97 2237.69,-581.6 2492.66,-572.43"/>
<polygon fill="midnightblue" stroke="midnightblue" points="2493.02,-575.92 2502.89,-572.06 2492.77,-568.92 2493.02,-575.92"/>
</g>
</g>
</svg>
