<?xml version="1.0" encoding="UTF-8" standalone="no"?>
<!DOCTYPE svg PUBLIC "-//W3C//DTD SVG 1.1//EN"
 "http://www.w3.org/Graphics/SVG/1.1/DTD/svg11.dtd">
<!-- Generated by graphviz version 7.1.0 (0)
 -->
<!-- Title: /software/kratos/doxygen/kratos/python/add_memory_info_to_python.cpp Pages: 1 -->
<!--zoomable 412 -->
<svg id="main" version="1.1" xmlns="http://www.w3.org/2000/svg" xmlns:xlink="http://www.w3.org/1999/xlink" xml:space="preserve" onload="init(evt)">
<style type="text/css"><![CDATA[
.edge:hover path { stroke: red; }
.edge:hover polygon { stroke: red; fill: red; }
]]></style>
<script type="text/javascript"><![CDATA[
var edges = document.getElementsByTagName('g');
if (edges && edges.length) {
  for (var i=0;i<edges.length;i++) {
    if (edges[i].id.substr(0,4)=='edge') {
      edges[i].setAttribute('class','edge');
    }
  }
}
]]></script>
        <defs>
                <circle id="rim" cx="0" cy="0" r="7"/>
                <circle id="rim2" cx="0" cy="0" r="3.5"/>
                <g id="zoomPlus">
                        <use xlink:href="#rim" fill="#404040">
                                <set attributeName="fill" to="#808080" begin="zoomplus.mouseover" end="zoomplus.mouseout"/>
                        </use>
                        <path d="M-4,0h8M0,-4v8" fill="none" stroke="white" stroke-width="1.5" pointer-events="none"/>
                </g>
                <g id="zoomMin">
                        <use xlink:href="#rim" fill="#404040">
                                <set attributeName="fill" to="#808080" begin="zoomminus.mouseover" end="zoomminus.mouseout"/>
                        </use>
                        <path d="M-4,0h8" fill="none" stroke="white" stroke-width="1.5" pointer-events="none"/>
                </g>
                <g id="dirArrow">
                        <path fill="none" stroke="white" stroke-width="1.5" d="M0,-3.0v7 M-2.5,-0.5L0,-3.0L2.5,-0.5"/>
                </g>
               <g id="resetDef">
                       <use xlink:href="#rim2" fill="#404040">
                               <set attributeName="fill" to="#808080" begin="reset.mouseover" end="reset.mouseout"/>
                       </use>
               </g>
        </defs>

<script type="text/javascript">
var viewWidth = 1056;
var viewHeight = 412;
var sectionId = 'dynsection-0';
</script>
<script xlink:href="../../svgpan.js"/>
<svg id="graph" class="graph">
<g id="viewport">
<title>/software/kratos/doxygen/kratos/python/add_memory_info_to_python.cpp</title>
<!-- Node1 -->
<g id="node1" class="node">
<title>Node1</title>
<g id="a_node1"><a xlink:title=" ">
<polygon fill="#999999" stroke="#666666" points="664.2,-404 509.2,-404 509.2,-363 664.2,-363 664.2,-404"/>
<text text-anchor="start" x="517.2" y="-392" font-family="Helvetica,sans-Serif" font-size="10.00">/software/kratos/doxygen</text>
<text text-anchor="start" x="517.2" y="-381" font-family="Helvetica,sans-Serif" font-size="10.00">/kratos/python/add_memory</text>
<text text-anchor="middle" x="586.7" y="-370" font-family="Helvetica,sans-Serif" font-size="10.00">_info_to_python.cpp</text>
</a>
</g>
</g>
<!-- Node2 -->
<g id="node2" class="node">
<title>Node2</title>
<g id="a_node2"><a xlink:title=" ">
<polygon fill="#e0e0e0" stroke="#999999" points="519.2,-206 400.2,-206 400.2,-187 519.2,-187 519.2,-206"/>
<text text-anchor="middle" x="459.7" y="-194" font-family="Helvetica,sans-Serif" font-size="10.00">pybind11/pybind11.h</text>
</a>
</g>
</g>
<!-- Node1&#45;&gt;Node2 -->
<g id="edge1" class="edge">
<title>Node1&#45;&gt;Node2</title>
<path fill="none" stroke="#63b8ff" d="M573.11,-362.7C548.29,-326.55 495.99,-250.36 472.09,-215.55"/>
<polygon fill="#63b8ff" stroke="#63b8ff" points="475.05,-213.67 466.5,-207.41 469.28,-217.63 475.05,-213.67"/>
</g>
<!-- Node3 -->
<g id="node3" class="node">
<title>Node3</title>
<g id="a_node3"><a xlink:href="../../d5/d31/memory__info_8h.html" target="_top" xlink:title=" ">
<polygon fill="white" stroke="#666666" points="653.7,-261 519.7,-261 519.7,-242 653.7,-242 653.7,-261"/>
<text text-anchor="middle" x="586.7" y="-249" font-family="Helvetica,sans-Serif" font-size="10.00">includes/memory_info.h</text>
</a>
</g>
</g>
<!-- Node1&#45;&gt;Node3 -->
<g id="edge2" class="edge">
<title>Node1&#45;&gt;Node3</title>
<path fill="none" stroke="#63b8ff" d="M586.7,-362.76C586.7,-338.43 586.7,-297.32 586.7,-272.76"/>
<polygon fill="#63b8ff" stroke="#63b8ff" points="590.2,-272.83 586.7,-262.83 583.2,-272.83 590.2,-272.83"/>
</g>
<!-- Node18 -->
<g id="node18" class="node">
<title>Node18</title>
<g id="a_node18"><a xlink:href="../../d7/d7e/add__memory__info__to__python_8h.html" target="_top" xlink:title=" ">
<polygon fill="white" stroke="#666666" points="790.7,-327 670.7,-327 670.7,-297 790.7,-297 790.7,-327"/>
<text text-anchor="start" x="678.7" y="-315" font-family="Helvetica,sans-Serif" font-size="10.00">add_memory_info_to</text>
<text text-anchor="middle" x="730.7" y="-304" font-family="Helvetica,sans-Serif" font-size="10.00">_python.h</text>
</a>
</g>
</g>
<!-- Node1&#45;&gt;Node18 -->
<g id="edge26" class="edge">
<title>Node1&#45;&gt;Node18</title>
<path fill="none" stroke="#63b8ff" d="M627.96,-362.58C647.69,-353.06 671.2,-341.71 690.76,-332.28"/>
<polygon fill="#63b8ff" stroke="#63b8ff" points="692.02,-335.55 699.51,-328.06 688.98,-329.25 692.02,-335.55"/>
</g>
<!-- Node4 -->
<g id="node4" class="node">
<title>Node4</title>
<g id="a_node4"><a xlink:href="../../df/d67/define_8h.html" target="_top" xlink:title=" ">
<polygon fill="white" stroke="#666666" points="636.2,-206 537.2,-206 537.2,-187 636.2,-187 636.2,-206"/>
<text text-anchor="middle" x="586.7" y="-194" font-family="Helvetica,sans-Serif" font-size="10.00">includes/define.h</text>
</a>
</g>
</g>
<!-- Node3&#45;&gt;Node4 -->
<g id="edge3" class="edge">
<title>Node3&#45;&gt;Node4</title>
<path fill="none" stroke="#63b8ff" d="M586.7,-241.75C586.7,-235.27 586.7,-226.16 586.7,-217.9"/>
<polygon fill="#63b8ff" stroke="#63b8ff" points="590.2,-217.96 586.7,-207.96 583.2,-217.96 590.2,-217.96"/>
</g>
<!-- Node5 -->
<g id="node5" class="node">
<title>Node5</title>
<g id="a_node5"><a xlink:title=" ">
<polygon fill="#e0e0e0" stroke="#999999" points="608.2,-90.5 543.2,-90.5 543.2,-71.5 608.2,-71.5 608.2,-90.5"/>
<text text-anchor="middle" x="575.7" y="-78.5" font-family="Helvetica,sans-Serif" font-size="10.00">stdexcept</text>
</a>
</g>
</g>
<!-- Node4&#45;&gt;Node5 -->
<g id="edge4" class="edge">
<title>Node4&#45;&gt;Node5</title>
<path fill="none" stroke="#63b8ff" d="M585.84,-186.59C584.09,-168.53 580.08,-127.17 577.66,-102.21"/>
<polygon fill="#63b8ff" stroke="#63b8ff" points="581.15,-101.99 576.71,-92.37 574.19,-102.66 581.15,-101.99"/>
</g>
<!-- Node6 -->
<g id="node6" class="node">
<title>Node6</title>
<g id="a_node6"><a xlink:title=" ">
<polygon fill="#e0e0e0" stroke="#999999" points="70.7,-90.5 14.7,-90.5 14.7,-71.5 70.7,-71.5 70.7,-90.5"/>
<text text-anchor="middle" x="42.7" y="-78.5" font-family="Helvetica,sans-Serif" font-size="10.00">sstream</text>
</a>
</g>
</g>
<!-- Node4&#45;&gt;Node6 -->
<g id="edge5" class="edge">
<title>Node4&#45;&gt;Node6</title>
<path fill="none" stroke="#63b8ff" d="M536.81,-188.28C533.73,-187.85 530.67,-187.42 527.7,-187 409.99,-170.53 378.71,-176.88 262.7,-151 195.81,-136.08 120,-110.26 77.11,-94.79"/>
<polygon fill="#63b8ff" stroke="#63b8ff" points="78.45,-91.55 67.85,-91.42 76.05,-98.13 78.45,-91.55"/>
</g>
<!-- Node7 -->
<g id="node7" class="node">
<title>Node7</title>
<g id="a_node7"><a xlink:href="../../dc/d25/kratos__export__api_8h.html" target="_top" xlink:title=" ">
<polygon fill="white" stroke="#666666" points="162.7,-30 34.7,-30 34.7,0 162.7,0 162.7,-30"/>
<text text-anchor="start" x="42.7" y="-18" font-family="Helvetica,sans-Serif" font-size="10.00">includes/kratos_export</text>
<text text-anchor="middle" x="98.7" y="-7" font-family="Helvetica,sans-Serif" font-size="10.00">_api.h</text>
</a>
</g>
</g>
<!-- Node4&#45;&gt;Node7 -->
<g id="edge6" class="edge">
<title>Node4&#45;&gt;Node7</title>
<path fill="none" stroke="#63b8ff" d="M536.82,-188.18C533.74,-187.77 530.68,-187.37 527.7,-187 410.87,-172.33 76.18,-190.33 5.7,-96 -2.28,-85.32 -1.14,-77.44 5.7,-66 13.65,-52.71 26.48,-42.74 40.11,-35.35"/>
<polygon fill="#63b8ff" stroke="#63b8ff" points="41.33,-38.65 48.75,-31.09 38.24,-32.37 41.33,-38.65"/>
</g>
<!-- Node8 -->
<g id="node8" class="node">
<title>Node8</title>
<g id="a_node8"><a xlink:href="../../d9/dc0/smart__pointers_8h.html" target="_top" xlink:title=" ">
<polygon fill="white" stroke="#666666" points="747.2,-151 604.2,-151 604.2,-132 747.2,-132 747.2,-151"/>
<text text-anchor="middle" x="675.7" y="-139" font-family="Helvetica,sans-Serif" font-size="10.00">includes/smart_pointers.h</text>
</a>
</g>
</g>
<!-- Node4&#45;&gt;Node8 -->
<g id="edge7" class="edge">
<title>Node4&#45;&gt;Node8</title>
<path fill="none" stroke="#63b8ff" d="M601.8,-186.51C615.3,-178.47 635.35,-166.53 651.16,-157.11"/>
<polygon fill="#63b8ff" stroke="#63b8ff" points="652.72,-160.26 659.53,-152.13 649.14,-154.24 652.72,-160.26"/>
</g>
<!-- Node13 -->
<g id="node13" class="node">
<title>Node13</title>
<g id="a_node13"><a xlink:href="../../dd/d2d/exception_8h.html" target="_top" xlink:title=" ">
<polygon fill="white" stroke="#666666" points="389.2,-151 272.2,-151 272.2,-132 389.2,-132 389.2,-151"/>
<text text-anchor="middle" x="330.7" y="-139" font-family="Helvetica,sans-Serif" font-size="10.00">includes/exception.h</text>
</a>
</g>
</g>
<!-- Node4&#45;&gt;Node13 -->
<g id="edge12" class="edge">
<title>Node4&#45;&gt;Node13</title>
<path fill="none" stroke="#63b8ff" d="M543.27,-186.51C499.65,-177.48 432.31,-163.54 385.14,-153.77"/>
<polygon fill="#63b8ff" stroke="#63b8ff" points="385.9,-150.35 375.39,-151.75 384.48,-157.21 385.9,-150.35"/>
</g>
<!-- Node9 -->
<g id="node9" class="node">
<title>Node9</title>
<g id="a_node9"><a xlink:title=" ">
<polygon fill="#e0e0e0" stroke="#999999" points="370.7,-24.5 310.7,-24.5 310.7,-5.5 370.7,-5.5 370.7,-24.5"/>
<text text-anchor="middle" x="340.7" y="-12.5" font-family="Helvetica,sans-Serif" font-size="10.00">iostream</text>
</a>
</g>
</g>
<!-- Node8&#45;&gt;Node9 -->
<g id="edge8" class="edge">
<title>Node8&#45;&gt;Node9</title>
<path fill="none" stroke="#63b8ff" d="M671.45,-131.66C663.27,-115.7 643.73,-82.2 616.7,-66 606.69,-60 456.84,-34.94 382.25,-22.73"/>
<polygon fill="#63b8ff" stroke="#63b8ff" points="382.88,-19.29 372.45,-21.14 381.75,-26.2 382.88,-19.29"/>
</g>
<!-- Node10 -->
<g id="node10" class="node">
<title>Node10</title>
<g id="a_node10"><a xlink:title=" ">
<polygon fill="#e0e0e0" stroke="#999999" points="710.2,-90.5 665.2,-90.5 665.2,-71.5 710.2,-71.5 710.2,-90.5"/>
<text text-anchor="middle" x="687.7" y="-78.5" font-family="Helvetica,sans-Serif" font-size="10.00">utility</text>
</a>
</g>
</g>
<!-- Node8&#45;&gt;Node10 -->
<g id="edge9" class="edge">
<title>Node8&#45;&gt;Node10</title>
<path fill="none" stroke="#63b8ff" d="M677.47,-131.87C679.08,-124 681.53,-112.1 683.62,-101.89"/>
<polygon fill="#63b8ff" stroke="#63b8ff" points="687.04,-102.65 685.62,-92.15 680.18,-101.24 687.04,-102.65"/>
</g>
<!-- Node11 -->
<g id="node11" class="node">
<title>Node11</title>
<g id="a_node11"><a xlink:title=" ">
<polygon fill="#e0e0e0" stroke="#999999" points="786.7,-90.5 728.7,-90.5 728.7,-71.5 786.7,-71.5 786.7,-90.5"/>
<text text-anchor="middle" x="757.7" y="-78.5" font-family="Helvetica,sans-Serif" font-size="10.00">memory</text>
</a>
</g>
</g>
<!-- Node8&#45;&gt;Node11 -->
<g id="edge10" class="edge">
<title>Node8&#45;&gt;Node11</title>
<path fill="none" stroke="#63b8ff" d="M688.15,-131.62C700.8,-122.6 720.63,-108.45 735.89,-97.56"/>
<polygon fill="#63b8ff" stroke="#63b8ff" points="737.79,-100.5 743.9,-91.85 733.72,-94.81 737.79,-100.5"/>
</g>
<!-- Node12 -->
<g id="node12" class="node">
<title>Node12</title>
<g id="a_node12"><a xlink:title=" ">
<polygon fill="#e0e0e0" stroke="#999999" points="928.7,-96 804.7,-96 804.7,-66 928.7,-66 928.7,-96"/>
<text text-anchor="start" x="812.7" y="-84" font-family="Helvetica,sans-Serif" font-size="10.00">intrusive_ptr/intrusive</text>
<text text-anchor="middle" x="866.7" y="-73" font-family="Helvetica,sans-Serif" font-size="10.00">_ptr.hpp</text>
</a>
</g>
</g>
<!-- Node8&#45;&gt;Node12 -->
<g id="edge11" class="edge">
<title>Node8&#45;&gt;Node12</title>
<path fill="none" stroke="#63b8ff" d="M704.71,-131.62C732.21,-123.19 774.3,-110.3 808.69,-99.77"/>
<polygon fill="#63b8ff" stroke="#63b8ff" points="809.57,-103.16 818.11,-96.88 807.52,-96.46 809.57,-103.16"/>
</g>
<!-- Node13&#45;&gt;Node5 -->
<g id="edge13" class="edge">
<title>Node13&#45;&gt;Node5</title>
<path fill="none" stroke="#63b8ff" d="M374.56,-131.54C414.82,-123.11 476.03,-109.75 528.7,-96 530.99,-95.4 533.33,-94.77 535.69,-94.12"/>
<polygon fill="#63b8ff" stroke="#63b8ff" points="536.59,-97.5 545.25,-91.39 534.67,-90.77 536.59,-97.5"/>
</g>
<!-- Node13&#45;&gt;Node6 -->
<g id="edge16" class="edge">
<title>Node13&#45;&gt;Node6</title>
<path fill="none" stroke="#63b8ff" d="M272.04,-132.3C221.88,-124.72 147.98,-112.18 84.7,-96 82.58,-95.46 80.41,-94.86 78.23,-94.23"/>
<polygon fill="#63b8ff" stroke="#63b8ff" points="79.43,-90.94 68.85,-91.33 77.37,-97.63 79.43,-90.94"/>
</g>
<!-- Node13&#45;&gt;Node7 -->
<g id="edge18" class="edge">
<title>Node13&#45;&gt;Node7</title>
<path fill="none" stroke="#63b8ff" d="M271.91,-137.88C233.13,-133.54 182.98,-122.67 146.7,-96 127.98,-82.24 115.17,-58.79 107.53,-40.83"/>
<polygon fill="#63b8ff" stroke="#63b8ff" points="110.82,-39.65 103.89,-31.64 104.31,-42.22 110.82,-39.65"/>
</g>
<!-- Node13&#45;&gt;Node9 -->
<g id="edge15" class="edge">
<title>Node13&#45;&gt;Node9</title>
<path fill="none" stroke="#63b8ff" d="M331.42,-131.55C333.01,-111.72 336.87,-63.68 339.08,-36.19"/>
<polygon fill="#63b8ff" stroke="#63b8ff" points="342.55,-36.63 339.87,-26.38 335.58,-36.07 342.55,-36.63"/>
</g>
<!-- Node14 -->
<g id="node14" class="node">
<title>Node14</title>
<g id="a_node14"><a xlink:title=" ">
<polygon fill="#e0e0e0" stroke="#999999" points="240.7,-24.5 196.7,-24.5 196.7,-5.5 240.7,-5.5 240.7,-24.5"/>
<text text-anchor="middle" x="218.7" y="-12.5" font-family="Helvetica,sans-Serif" font-size="10.00">string</text>
</a>
</g>
</g>
<!-- Node13&#45;&gt;Node14 -->
<g id="edge14" class="edge">
<title>Node13&#45;&gt;Node14</title>
<path fill="none" stroke="#63b8ff" d="M272.05,-133.34C226.97,-126.49 170.04,-114.44 155.7,-96 137.96,-73.18 168.57,-46.89 193.01,-30.86"/>
<polygon fill="#63b8ff" stroke="#63b8ff" points="194.71,-33.92 201.33,-25.65 191,-27.98 194.71,-33.92"/>
</g>
<!-- Node15 -->
<g id="node15" class="node">
<title>Node15</title>
<g id="a_node15"><a xlink:title=" ">
<polygon fill="#e0e0e0" stroke="#999999" points="492.2,-24.5 445.2,-24.5 445.2,-5.5 492.2,-5.5 492.2,-24.5"/>
<text text-anchor="middle" x="468.7" y="-12.5" font-family="Helvetica,sans-Serif" font-size="10.00">vector</text>
</a>
</g>
</g>
<!-- Node13&#45;&gt;Node15 -->
<g id="edge17" class="edge">
<title>Node13&#45;&gt;Node15</title>
<path fill="none" stroke="#63b8ff" d="M389.48,-132.29C431.42,-125.08 482.62,-113.08 495.7,-96 509.86,-77.52 496.06,-51.18 483.54,-33.84"/>
<polygon fill="#63b8ff" stroke="#63b8ff" points="486.35,-31.76 477.46,-26 480.82,-36.05 486.35,-31.76"/>
</g>
<!-- Node16 -->
<g id="node16" class="node">
<title>Node16</title>
<g id="a_node16"><a xlink:href="../../da/da6/code__location_8h.html" target="_top" xlink:title=" ">
<polygon fill="white" stroke="#666666" points="302.2,-90.5 165.2,-90.5 165.2,-71.5 302.2,-71.5 302.2,-90.5"/>
<text text-anchor="middle" x="233.7" y="-78.5" font-family="Helvetica,sans-Serif" font-size="10.00">includes/code_location.h</text>
</a>
</g>
</g>
<!-- Node13&#45;&gt;Node16 -->
<g id="edge19" class="edge">
<title>Node13&#45;&gt;Node16</title>
<path fill="none" stroke="#63b8ff" d="M315.97,-131.62C300.66,-122.38 276.43,-107.77 258.23,-96.79"/>
<polygon fill="#63b8ff" stroke="#63b8ff" points="260.24,-93.92 249.87,-91.75 256.62,-99.91 260.24,-93.92"/>
</g>
<!-- Node17 -->
<g id="node17" class="node">
<title>Node17</title>
<g id="a_node17"><a xlink:href="../../d9/d06/stl__vector__io_8h.html" target="_top" xlink:title=" ">
<polygon fill="white" stroke="#666666" points="486.7,-90.5 358.7,-90.5 358.7,-71.5 486.7,-71.5 486.7,-90.5"/>
<text text-anchor="middle" x="422.7" y="-78.5" font-family="Helvetica,sans-Serif" font-size="10.00">utilities/stl_vector_io.h</text>
</a>
</g>
</g>
<!-- Node13&#45;&gt;Node17 -->
<g id="edge23" class="edge">
<title>Node13&#45;&gt;Node17</title>
<path fill="none" stroke="#63b8ff" d="M344.67,-131.62C359.13,-122.42 381.96,-107.91 399.2,-96.94"/>
<polygon fill="#63b8ff" stroke="#63b8ff" points="400.76,-100.1 407.32,-91.78 397,-94.19 400.76,-100.1"/>
</g>
<!-- Node16&#45;&gt;Node7 -->
<g id="edge22" class="edge">
<title>Node16&#45;&gt;Node7</title>
<path fill="none" stroke="#63b8ff" d="M214.93,-71.1C195.53,-61.9 164.64,-47.26 139.57,-35.38"/>
<polygon fill="#63b8ff" stroke="#63b8ff" points="141.14,-32.25 130.61,-31.13 138.14,-38.57 141.14,-32.25"/>
</g>
<!-- Node16&#45;&gt;Node9 -->
<g id="edge21" class="edge">
<title>Node16&#45;&gt;Node9</title>
<path fill="none" stroke="#63b8ff" d="M248.58,-71.1C266.07,-60.64 295.34,-43.13 316.2,-30.66"/>
<polygon fill="#63b8ff" stroke="#63b8ff" points="317.86,-33.74 324.65,-25.6 314.27,-27.73 317.86,-33.74"/>
</g>
<!-- Node16&#45;&gt;Node14 -->
<g id="edge20" class="edge">
<title>Node16&#45;&gt;Node14</title>
<path fill="none" stroke="#63b8ff" d="M231.61,-71.1C229.49,-62.03 226.12,-47.64 223.35,-35.85"/>
<polygon fill="#63b8ff" stroke="#63b8ff" points="226.8,-35.23 221.11,-26.3 219.99,-36.83 226.8,-35.23"/>
</g>
<!-- Node17&#45;&gt;Node9 -->
<g id="edge24" class="edge">
<title>Node17&#45;&gt;Node9</title>
<path fill="none" stroke="#63b8ff" d="M411.3,-71.1C398.32,-60.98 376.88,-44.24 361.03,-31.87"/>
<polygon fill="#63b8ff" stroke="#63b8ff" points="363.23,-29.15 353.2,-25.75 358.93,-34.67 363.23,-29.15"/>
</g>
<!-- Node17&#45;&gt;Node15 -->
<g id="edge25" class="edge">
<title>Node17&#45;&gt;Node15</title>
<path fill="none" stroke="#63b8ff" d="M429.1,-71.1C435.96,-61.55 447.06,-46.11 455.76,-34.01"/>
<polygon fill="#63b8ff" stroke="#63b8ff" points="458.48,-36.22 461.48,-26.05 452.8,-32.13 458.48,-36.22"/>
</g>
<!-- Node19 -->
<g id="node19" class="node">
<title>Node19</title>
<g id="a_node19"><a xlink:href="../../dd/d62/define__python_8h.html" target="_top" xlink:title=" ">
<polygon fill="white" stroke="#666666" points="821.7,-261 683.7,-261 683.7,-242 821.7,-242 821.7,-261"/>
<text text-anchor="middle" x="752.7" y="-249" font-family="Helvetica,sans-Serif" font-size="10.00">includes/define_python.h</text>
</a>
</g>
</g>
<!-- Node18&#45;&gt;Node19 -->
<g id="edge27" class="edge">
<title>Node18&#45;&gt;Node19</title>
<path fill="none" stroke="#63b8ff" d="M736.14,-296.54C738.94,-289.08 742.4,-279.89 745.43,-271.83"/>
<polygon fill="#63b8ff" stroke="#63b8ff" points="748.66,-273.18 748.91,-262.59 742.11,-270.72 748.66,-273.18"/>
</g>
<!-- Node19&#45;&gt;Node2 -->
<g id="edge29" class="edge">
<title>Node19&#45;&gt;Node2</title>
<path fill="none" stroke="#63b8ff" d="M703,-241.51C652.54,-232.38 574.37,-218.24 520.31,-208.46"/>
<polygon fill="#63b8ff" stroke="#63b8ff" points="521.11,-205.05 510.65,-206.72 519.86,-211.94 521.11,-205.05"/>
</g>
<!-- Node19&#45;&gt;Node4 -->
<g id="edge32" class="edge">
<title>Node19&#45;&gt;Node4</title>
<path fill="none" stroke="#63b8ff" d="M724.54,-241.51C697.27,-232.8 655.71,-219.53 625.35,-209.84"/>
<polygon fill="#63b8ff" stroke="#63b8ff" points="626.75,-206.61 616.16,-206.91 624.62,-213.28 626.75,-206.61"/>
</g>
<!-- Node19&#45;&gt;Node12 -->
<g id="edge28" class="edge">
<title>Node19&#45;&gt;Node12</title>
<path fill="none" stroke="#63b8ff" d="M758.36,-241.84C766.39,-229.59 781.56,-206.51 794.7,-187 813.67,-158.83 835.81,-126.65 850.48,-105.42"/>
<polygon fill="#63b8ff" stroke="#63b8ff" points="853.17,-107.67 855.98,-97.46 847.41,-103.69 853.17,-107.67"/>
</g>
<!-- Node20 -->
<g id="node20" class="node">
<title>Node20</title>
<g id="a_node20"><a xlink:title=" ">
<polygon fill="#e0e0e0" stroke="#999999" points="889.7,-206 803.7,-206 803.7,-187 889.7,-187 889.7,-206"/>
<text text-anchor="middle" x="846.7" y="-194" font-family="Helvetica,sans-Serif" font-size="10.00">pybind11/stl.h</text>
</a>
</g>
</g>
<!-- Node19&#45;&gt;Node20 -->
<g id="edge30" class="edge">
<title>Node19&#45;&gt;Node20</title>
<path fill="none" stroke="#63b8ff" d="M768.65,-241.51C783.05,-233.39 804.49,-221.3 821.26,-211.85"/>
<polygon fill="#63b8ff" stroke="#63b8ff" points="822.68,-215.06 829.67,-207.1 819.24,-208.96 822.68,-215.06"/>
</g>
<!-- Node21 -->
<g id="node21" class="node">
<title>Node21</title>
<g id="a_node21"><a xlink:title=" ">
<polygon fill="#e0e0e0" stroke="#999999" points="1047.7,-206 907.7,-206 907.7,-187 1047.7,-187 1047.7,-206"/>
<text text-anchor="middle" x="977.7" y="-194" font-family="Helvetica,sans-Serif" font-size="10.00">pybind11/stl/filesystem.h</text>
</a>
</g>
</g>
<!-- Node19&#45;&gt;Node21 -->
<g id="edge31" class="edge">
<title>Node19&#45;&gt;Node21</title>
<path fill="none" stroke="#63b8ff" d="M790.87,-241.51C828.8,-232.57 887.14,-218.83 928.53,-209.08"/>
<polygon fill="#63b8ff" stroke="#63b8ff" points="929.32,-212.49 938.25,-206.79 927.71,-205.68 929.32,-212.49"/>
</g>
</g>
</svg>
        <g id="navigator" transform="translate(0 0)" fill="#404254">
                <rect fill="#f2f5e9" fill-opacity="0.5" stroke="#606060" stroke-width=".5" x="0" y="0" width="60" height="60"/>
                <use id="zoomplus" xlink:href="#zoomPlus" x="17" y="9" onmousedown="handleZoom(evt,'in')"/>
                <use id="zoomminus" xlink:href="#zoomMin" x="42" y="9" onmousedown="handleZoom(evt,'out')"/>
                <use id="reset" xlink:href="#resetDef" x="30" y="36" onmousedown="handleReset()"/>
                <g id="arrowUp" xlink:href="#dirArrow" transform="translate(30 24)" onmousedown="handlePan(0,-1)">
                  <use xlink:href="#rim" fill="#404040">
                        <set attributeName="fill" to="#808080" begin="arrowUp.mouseover" end="arrowUp.mouseout"/>
                  </use>
                  <path fill="none" stroke="white" stroke-width="1.5" d="M0,-3.0v7 M-2.5,-0.5L0,-3.0L2.5,-0.5"/>
                </g>
                <g id="arrowRight" xlink:href="#dirArrow" transform="rotate(90) translate(36 -43)" onmousedown="handlePan(1,0)">
                  <use xlink:href="#rim" fill="#404040">
                        <set attributeName="fill" to="#808080" begin="arrowRight.mouseover" end="arrowRight.mouseout"/>
                  </use>
                  <path fill="none" stroke="white" stroke-width="1.5" d="M0,-3.0v7 M-2.5,-0.5L0,-3.0L2.5,-0.5"/>
                </g>
                <g id="arrowDown" xlink:href="#dirArrow" transform="rotate(180) translate(-30 -48)" onmousedown="handlePan(0,1)">
                  <use xlink:href="#rim" fill="#404040">
                        <set attributeName="fill" to="#808080" begin="arrowDown.mouseover" end="arrowDown.mouseout"/>
                  </use>
                  <path fill="none" stroke="white" stroke-width="1.5" d="M0,-3.0v7 M-2.5,-0.5L0,-3.0L2.5,-0.5"/>
                </g>
                <g id="arrowLeft" xlink:href="#dirArrow" transform="rotate(270) translate(-36 17)" onmousedown="handlePan(-1,0)">
                  <use xlink:href="#rim" fill="#404040">
                        <set attributeName="fill" to="#808080" begin="arrowLeft.mouseover" end="arrowLeft.mouseout"/>
                  </use>
                  <path fill="none" stroke="white" stroke-width="1.5" d="M0,-3.0v7 M-2.5,-0.5L0,-3.0L2.5,-0.5"/>
                </g>
        </g>
        <svg viewBox="0 0 15 15" width="100%" height="30px" preserveAspectRatio="xMaxYMin meet">
         <g id="arrow_out" transform="scale(0.3 0.3)">
          <a xlink:href="add__memory__info__to__python_8cpp__incl_org.svg" target="_base">
           <rect id="button" ry="5" rx="5" y="6" x="6" height="38" width="38"
                fill="#f2f5e9" fill-opacity="0.5" stroke="#606060" stroke-width="1.0"/>
           <path id="arrow"
             d="M 11.500037,31.436501 C 11.940474,20.09759 22.043105,11.32322 32.158766,21.979434 L 37.068811,17.246167 C 37.068811,17.246167 37.088388,32 37.088388,32 L 22.160133,31.978069 C 22.160133,31.978069 26.997745,27.140456 26.997745,27.140456 C 18.528582,18.264221 13.291696,25.230495 11.500037,31.436501 z"
             style="fill:#404040;"/>
          </a>
         </g>
        </svg>
</svg>
