<?xml version="1.0" encoding="UTF-8" standalone="no"?>
<!DOCTYPE svg PUBLIC "-//W3C//DTD SVG 1.1//EN"
 "http://www.w3.org/Graphics/SVG/1.1/DTD/svg11.dtd">
<!-- Generated by graphviz version 7.1.0 (0)
 -->
<!-- Title: /software/kratos/doxygen/applications/SolidMechanicsApplication/custom_constitutive/hyperelastic_plastic_3D_law.hpp Pages: 1 -->
<svg width="302pt" height="137pt"
 viewBox="0.00 0.00 301.50 137.00" xmlns="http://www.w3.org/2000/svg" xmlns:xlink="http://www.w3.org/1999/xlink">
<g id="graph0" class="graph" transform="scale(1 1) rotate(0) translate(4 133)">
<title>/software/kratos/doxygen/applications/SolidMechanicsApplication/custom_constitutive/hyperelastic_plastic_3D_law.hpp</title>
<!-- Node1 -->
<g id="node1" class="node">
<title>Node1</title>
<g id="a_node1"><a xlink:title=" ">
<polygon fill="#999999" stroke="#666666" points="251,-129 39,-129 39,-77 251,-77 251,-129"/>
<text text-anchor="start" x="47" y="-117" font-family="Helvetica,sans-Serif" font-size="10.00">/software/kratos/doxygen</text>
<text text-anchor="start" x="47" y="-106" font-family="Helvetica,sans-Serif" font-size="10.00">/applications/SolidMechanicsApplication</text>
<text text-anchor="start" x="47" y="-95" font-family="Helvetica,sans-Serif" font-size="10.00">/custom_constitutive/hyperelastic</text>
<text text-anchor="middle" x="145" y="-84" font-family="Helvetica,sans-Serif" font-size="10.00">_plastic_3D_law.hpp</text>
</a>
</g>
</g>
<!-- Node2 -->
<g id="node2" class="node">
<title>Node2</title>
<g id="a_node2"><a xlink:title=" ">
<polygon fill="#e0e0e0" stroke="#999999" points="134,-41 0,-41 0,0 134,0 134,-41"/>
<text text-anchor="start" x="8" y="-29" font-family="Helvetica,sans-Serif" font-size="10.00">custom_constitutive</text>
<text text-anchor="start" x="8" y="-18" font-family="Helvetica,sans-Serif" font-size="10.00">/custom_flow_rules/flow</text>
<text text-anchor="middle" x="67" y="-7" font-family="Helvetica,sans-Serif" font-size="10.00">_rule.hpp</text>
</a>
</g>
</g>
<!-- Node1&#45;&gt;Node2 -->
<g id="edge1" class="edge">
<title>Node1&#45;&gt;Node2</title>
<path fill="none" stroke="#63b8ff" d="M120.32,-76.53C112,-67.94 102.67,-58.31 94.17,-49.54"/>
<polygon fill="#63b8ff" stroke="#63b8ff" points="96.86,-47.28 87.38,-42.54 91.83,-52.15 96.86,-47.28"/>
</g>
<!-- Node3 -->
<g id="node3" class="node">
<title>Node3</title>
<g id="a_node3"><a xlink:title=" ">
<polygon fill="#e0e0e0" stroke="#999999" points="293.5,-35.5 152.5,-35.5 152.5,-5.5 293.5,-5.5 293.5,-35.5"/>
<text text-anchor="start" x="160.5" y="-23.5" font-family="Helvetica,sans-Serif" font-size="10.00">custom_constitutive</text>
<text text-anchor="middle" x="223" y="-12.5" font-family="Helvetica,sans-Serif" font-size="10.00">/hyperelastic_3D_law.hpp</text>
</a>
</g>
</g>
<!-- Node1&#45;&gt;Node3 -->
<g id="edge2" class="edge">
<title>Node1&#45;&gt;Node3</title>
<path fill="none" stroke="#63b8ff" d="M169.68,-76.53C179.86,-66.02 191.56,-53.95 201.39,-43.8"/>
<polygon fill="#63b8ff" stroke="#63b8ff" points="203.65,-46.5 208.09,-36.89 198.62,-41.63 203.65,-46.5"/>
</g>
</g>
</svg>
