<?xml version="1.0" encoding="UTF-8" standalone="no"?>
<!DOCTYPE svg PUBLIC "-//W3C//DTD SVG 1.1//EN"
 "http://www.w3.org/Graphics/SVG/1.1/DTD/svg11.dtd">
<!-- Generated by graphviz version 7.1.0 (0)
 -->
<!-- Title: /software/kratos/doxygen/applications/ParticleMechanicsApplication/custom_constitutive/hardening_laws/cam_clay_hardening_law.cpp Pages: 1 -->
<svg width="3292pt" height="1050pt"
 viewBox="0.00 0.00 3292.00 1050.00" xmlns="http://www.w3.org/2000/svg" xmlns:xlink="http://www.w3.org/1999/xlink">
<g id="graph0" class="graph" transform="scale(1 1) rotate(0) translate(4 1046)">
<title>/software/kratos/doxygen/applications/ParticleMechanicsApplication/custom_constitutive/hardening_laws/cam_clay_hardening_law.cpp</title>
<!-- Node1 -->
<g id="node1" class="node">
<title>Node1</title>
<g id="a_node1"><a xlink:title=" ">
<polygon fill="#999999" stroke="#666666" points="2549,-1042 2307,-1042 2307,-990 2549,-990 2549,-1042"/>
<text text-anchor="start" x="2315" y="-1030" font-family="Helvetica,sans-Serif" font-size="10.00">/software/kratos/doxygen</text>
<text text-anchor="start" x="2315" y="-1019" font-family="Helvetica,sans-Serif" font-size="10.00">/applications/ParticleMechanics</text>
<text text-anchor="start" x="2315" y="-1008" font-family="Helvetica,sans-Serif" font-size="10.00">Application/custom_constitutive</text>
<text text-anchor="middle" x="2428" y="-997" font-family="Helvetica,sans-Serif" font-size="10.00">/hardening_laws/cam_clay_hardening_law.cpp</text>
</a>
</g>
</g>
<!-- Node2 -->
<g id="node2" class="node">
<title>Node2</title>
<g id="a_node2"><a xlink:title=" ">
<polygon fill="#e0e0e0" stroke="#999999" points="2907,-24.5 2863,-24.5 2863,-5.5 2907,-5.5 2907,-24.5"/>
<text text-anchor="middle" x="2885" y="-12.5" font-family="Helvetica,sans-Serif" font-size="10.00">string</text>
</a>
</g>
</g>
<!-- Node1&#45;&gt;Node2 -->
<g id="edge1" class="edge">
<title>Node1&#45;&gt;Node2</title>
<path fill="none" stroke="#63b8ff" d="M2549.1,-1011.6C2757.17,-1004.89 3165.72,-987.6 3222,-954 3265.77,-927.87 3284,-908.48 3284,-857.5 3284,-857.5 3284,-857.5 3284,-140.5 3284,-98.26 3261.58,-87.11 3225,-66 3173.13,-36.06 2993.52,-22.33 2918.42,-17.8"/>
<polygon fill="#63b8ff" stroke="#63b8ff" points="2918.99,-14.33 2908.81,-17.24 2918.59,-21.31 2918.99,-14.33"/>
</g>
<!-- Node3 -->
<g id="node3" class="node">
<title>Node3</title>
<g id="a_node3"><a xlink:title=" ">
<polygon fill="#e0e0e0" stroke="#999999" points="1203,-24.5 1143,-24.5 1143,-5.5 1203,-5.5 1203,-24.5"/>
<text text-anchor="middle" x="1173" y="-12.5" font-family="Helvetica,sans-Serif" font-size="10.00">iostream</text>
</a>
</g>
</g>
<!-- Node1&#45;&gt;Node3 -->
<g id="edge2" class="edge">
<title>Node1&#45;&gt;Node3</title>
<path fill="none" stroke="#63b8ff" d="M2549.45,-1015.26C2768.68,-1012.43 3208,-990.21 3208,-857.5 3208,-857.5 3208,-857.5 3208,-553 3208,-389.64 3071.29,-396.53 2934,-308 2822.12,-235.86 2786.14,-229.54 2660,-187 2440.9,-113.1 2382.88,-98.91 2154,-66 1793.12,-14.1 1350.8,-14.02 1214.77,-15.4"/>
<polygon fill="#63b8ff" stroke="#63b8ff" points="1214.77,-11.9 1204.81,-15.51 1214.85,-18.9 1214.77,-11.9"/>
</g>
<!-- Node4 -->
<g id="node4" class="node">
<title>Node4</title>
<g id="a_node4"><a xlink:href="../../df/d67/define_8h.html" target="_top" xlink:title=" ">
<polygon fill="white" stroke="#666666" points="1364.5,-211.5 1265.5,-211.5 1265.5,-192.5 1364.5,-192.5 1364.5,-211.5"/>
<text text-anchor="middle" x="1315" y="-199.5" font-family="Helvetica,sans-Serif" font-size="10.00">includes/define.h</text>
</a>
</g>
</g>
<!-- Node1&#45;&gt;Node4 -->
<g id="edge3" class="edge">
<title>Node1&#45;&gt;Node4</title>
<path fill="none" stroke="#63b8ff" d="M2306.97,-1007.98C2045.04,-991.17 1449,-943.47 1449,-857.5 1449,-857.5 1449,-857.5 1449,-619 1449,-475.46 1345.59,-466.31 1311,-327 1303.06,-295.01 1303.07,-285.83 1306,-253 1306.9,-242.97 1308.78,-231.95 1310.6,-222.81"/>
<polygon fill="#63b8ff" stroke="#63b8ff" points="1313.97,-223.78 1312.61,-213.27 1307.12,-222.33 1313.97,-223.78"/>
</g>
<!-- Node16 -->
<g id="node16" class="node">
<title>Node16</title>
<g id="a_node16"><a xlink:href="../../d8/dbb/properties_8h.html" target="_top" xlink:title=" ">
<polygon fill="white" stroke="#666666" points="2340.5,-800 2221.5,-800 2221.5,-781 2340.5,-781 2340.5,-800"/>
<text text-anchor="middle" x="2281" y="-788" font-family="Helvetica,sans-Serif" font-size="10.00">includes/properties.h</text>
</a>
</g>
</g>
<!-- Node1&#45;&gt;Node16 -->
<g id="edge26" class="edge">
<title>Node1&#45;&gt;Node16</title>
<path fill="none" stroke="#63b8ff" d="M2411.42,-989.8C2381.57,-944.41 2319.45,-849.95 2293.16,-809.99"/>
<polygon fill="#63b8ff" stroke="#63b8ff" points="2296.14,-808.15 2287.72,-801.72 2290.29,-812 2296.14,-808.15"/>
</g>
<!-- Node86 -->
<g id="node48" class="node">
<title>Node86</title>
<g id="a_node48"><a xlink:href="../../d2/d7f/_particle_mechanics_application_2custom__constitutive_2hardening__laws_2cam__clay__hardening__law_8hpp.html" target="_top" xlink:title=" ">
<polygon fill="white" stroke="#666666" points="2552.5,-954 2413.5,-954 2413.5,-913 2552.5,-913 2552.5,-954"/>
<text text-anchor="start" x="2421.5" y="-942" font-family="Helvetica,sans-Serif" font-size="10.00">custom_constitutive</text>
<text text-anchor="start" x="2421.5" y="-931" font-family="Helvetica,sans-Serif" font-size="10.00">/hardening_laws/cam</text>
<text text-anchor="middle" x="2483" y="-920" font-family="Helvetica,sans-Serif" font-size="10.00">_clay_hardening_law.hpp</text>
</a>
</g>
</g>
<!-- Node1&#45;&gt;Node86 -->
<g id="edge159" class="edge">
<title>Node1&#45;&gt;Node86</title>
<path fill="none" stroke="#63b8ff" d="M2445.4,-989.53C2450.97,-981.38 2457.17,-972.3 2462.91,-963.9"/>
<polygon fill="#63b8ff" stroke="#63b8ff" points="2465.76,-965.93 2468.52,-955.7 2459.98,-961.98 2465.76,-965.93"/>
</g>
<!-- Node88 -->
<g id="node50" class="node">
<title>Node88</title>
<g id="a_node50"><a xlink:href="../../de/d89/mat__variables_8h.html" target="_top" xlink:title=" ">
<polygon fill="white" stroke="#666666" points="2226.5,-629.5 2087.5,-629.5 2087.5,-610.5 2226.5,-610.5 2226.5,-629.5"/>
<text text-anchor="middle" x="2157" y="-617.5" font-family="Helvetica,sans-Serif" font-size="10.00">includes/mat_variables.h</text>
</a>
</g>
</g>
<!-- Node1&#45;&gt;Node88 -->
<g id="edge166" class="edge">
<title>Node1&#45;&gt;Node88</title>
<path fill="none" stroke="#63b8ff" d="M2317.14,-989.59C2251.48,-967.24 2181,-927.05 2181,-857.5 2181,-857.5 2181,-857.5 2181,-734.5 2181,-701.02 2170.88,-663.17 2163.79,-640.74"/>
<polygon fill="#63b8ff" stroke="#63b8ff" points="2167.17,-639.82 2160.71,-631.42 2160.52,-642.02 2167.17,-639.82"/>
</g>
<!-- Node5 -->
<g id="node5" class="node">
<title>Node5</title>
<g id="a_node5"><a xlink:title=" ">
<polygon fill="#e0e0e0" stroke="#999999" points="1183.5,-90.5 1118.5,-90.5 1118.5,-71.5 1183.5,-71.5 1183.5,-90.5"/>
<text text-anchor="middle" x="1151" y="-78.5" font-family="Helvetica,sans-Serif" font-size="10.00">stdexcept</text>
</a>
</g>
</g>
<!-- Node4&#45;&gt;Node5 -->
<g id="edge4" class="edge">
<title>Node4&#45;&gt;Node5</title>
<path fill="none" stroke="#63b8ff" d="M1302.67,-192.06C1274.88,-171.89 1207.03,-122.65 1172.28,-97.44"/>
<polygon fill="#63b8ff" stroke="#63b8ff" points="1174.4,-94.65 1164.25,-91.61 1170.29,-100.32 1174.4,-94.65"/>
</g>
<!-- Node6 -->
<g id="node6" class="node">
<title>Node6</title>
<g id="a_node6"><a xlink:title=" ">
<polygon fill="#e0e0e0" stroke="#999999" points="716,-90.5 660,-90.5 660,-71.5 716,-71.5 716,-90.5"/>
<text text-anchor="middle" x="688" y="-78.5" font-family="Helvetica,sans-Serif" font-size="10.00">sstream</text>
</a>
</g>
</g>
<!-- Node4&#45;&gt;Node6 -->
<g id="edge5" class="edge">
<title>Node4&#45;&gt;Node6</title>
<path fill="none" stroke="#63b8ff" d="M1265.27,-200.75C1178.34,-199.21 993.75,-191.01 844,-151 796.1,-138.2 744.12,-112.63 713.89,-96.46"/>
<polygon fill="#63b8ff" stroke="#63b8ff" points="715.58,-93.4 705.12,-91.7 712.24,-99.55 715.58,-93.4"/>
</g>
<!-- Node7 -->
<g id="node7" class="node">
<title>Node7</title>
<g id="a_node7"><a xlink:href="../../dc/d25/kratos__export__api_8h.html" target="_top" xlink:title=" ">
<polygon fill="white" stroke="#666666" points="922,-30 794,-30 794,0 922,0 922,-30"/>
<text text-anchor="start" x="802" y="-18" font-family="Helvetica,sans-Serif" font-size="10.00">includes/kratos_export</text>
<text text-anchor="middle" x="858" y="-7" font-family="Helvetica,sans-Serif" font-size="10.00">_api.h</text>
</a>
</g>
</g>
<!-- Node4&#45;&gt;Node7 -->
<g id="edge6" class="edge">
<title>Node4&#45;&gt;Node7</title>
<path fill="none" stroke="#63b8ff" d="M1265.27,-198.23C1174.26,-192.56 984.77,-177.88 925,-151 891.1,-135.76 878.22,-129.44 862,-96 853.88,-79.25 853.16,-58.14 854.32,-41.81"/>
<polygon fill="#63b8ff" stroke="#63b8ff" points="857.79,-42.22 855.33,-31.91 850.83,-41.51 857.79,-42.22"/>
</g>
<!-- Node8 -->
<g id="node8" class="node">
<title>Node8</title>
<g id="a_node8"><a xlink:href="../../d9/dc0/smart__pointers_8h.html" target="_top" xlink:title=" ">
<polygon fill="white" stroke="#666666" points="1503.5,-151 1360.5,-151 1360.5,-132 1503.5,-132 1503.5,-151"/>
<text text-anchor="middle" x="1432" y="-139" font-family="Helvetica,sans-Serif" font-size="10.00">includes/smart_pointers.h</text>
</a>
</g>
</g>
<!-- Node4&#45;&gt;Node8 -->
<g id="edge7" class="edge">
<title>Node4&#45;&gt;Node8</title>
<path fill="none" stroke="#63b8ff" d="M1332.77,-192.12C1351.67,-182.67 1381.82,-167.59 1403.94,-156.53"/>
<polygon fill="#63b8ff" stroke="#63b8ff" points="1405.33,-159.75 1412.71,-152.15 1402.2,-153.49 1405.33,-159.75"/>
</g>
<!-- Node12 -->
<g id="node12" class="node">
<title>Node12</title>
<g id="a_node12"><a xlink:href="../../dd/d2d/exception_8h.html" target="_top" xlink:title=" ">
<polygon fill="white" stroke="#666666" points="1051.5,-151 934.5,-151 934.5,-132 1051.5,-132 1051.5,-151"/>
<text text-anchor="middle" x="993" y="-139" font-family="Helvetica,sans-Serif" font-size="10.00">includes/exception.h</text>
</a>
</g>
</g>
<!-- Node4&#45;&gt;Node12 -->
<g id="edge12" class="edge">
<title>Node4&#45;&gt;Node12</title>
<path fill="none" stroke="#63b8ff" d="M1265.74,-192.05C1208.77,-181.7 1114.97,-164.66 1053.58,-153.51"/>
<polygon fill="#63b8ff" stroke="#63b8ff" points="1054.47,-150.11 1044,-151.77 1053.22,-157 1054.47,-150.11"/>
</g>
<!-- Node8&#45;&gt;Node3 -->
<g id="edge8" class="edge">
<title>Node8&#45;&gt;Node3</title>
<path fill="none" stroke="#63b8ff" d="M1426.92,-131.61C1417.44,-115.85 1395.52,-83.1 1368,-66 1320.48,-36.47 1256.15,-24.32 1214.6,-19.36"/>
<polygon fill="#63b8ff" stroke="#63b8ff" points="1215.09,-15.89 1204.77,-18.28 1214.33,-22.85 1215.09,-15.89"/>
</g>
<!-- Node9 -->
<g id="node9" class="node">
<title>Node9</title>
<g id="a_node9"><a xlink:title=" ">
<polygon fill="#e0e0e0" stroke="#999999" points="1541.5,-90.5 1496.5,-90.5 1496.5,-71.5 1541.5,-71.5 1541.5,-90.5"/>
<text text-anchor="middle" x="1519" y="-78.5" font-family="Helvetica,sans-Serif" font-size="10.00">utility</text>
</a>
</g>
</g>
<!-- Node8&#45;&gt;Node9 -->
<g id="edge9" class="edge">
<title>Node8&#45;&gt;Node9</title>
<path fill="none" stroke="#63b8ff" d="M1445.21,-131.62C1458.75,-122.51 1480.07,-108.18 1496.32,-97.25"/>
<polygon fill="#63b8ff" stroke="#63b8ff" points="1498.06,-100.3 1504.41,-91.81 1494.15,-94.49 1498.06,-100.3"/>
</g>
<!-- Node10 -->
<g id="node10" class="node">
<title>Node10</title>
<g id="a_node10"><a xlink:title=" ">
<polygon fill="#e0e0e0" stroke="#999999" points="1478,-90.5 1420,-90.5 1420,-71.5 1478,-71.5 1478,-90.5"/>
<text text-anchor="middle" x="1449" y="-78.5" font-family="Helvetica,sans-Serif" font-size="10.00">memory</text>
</a>
</g>
</g>
<!-- Node8&#45;&gt;Node10 -->
<g id="edge10" class="edge">
<title>Node8&#45;&gt;Node10</title>
<path fill="none" stroke="#63b8ff" d="M1434.51,-131.87C1436.82,-123.92 1440.33,-111.83 1443.32,-101.55"/>
<polygon fill="#63b8ff" stroke="#63b8ff" points="1446.63,-102.7 1446.06,-92.12 1439.91,-100.75 1446.63,-102.7"/>
</g>
<!-- Node11 -->
<g id="node11" class="node">
<title>Node11</title>
<g id="a_node11"><a xlink:title=" ">
<polygon fill="#e0e0e0" stroke="#999999" points="1326,-96 1202,-96 1202,-66 1326,-66 1326,-96"/>
<text text-anchor="start" x="1210" y="-84" font-family="Helvetica,sans-Serif" font-size="10.00">intrusive_ptr/intrusive</text>
<text text-anchor="middle" x="1264" y="-73" font-family="Helvetica,sans-Serif" font-size="10.00">_ptr.hpp</text>
</a>
</g>
</g>
<!-- Node8&#45;&gt;Node11 -->
<g id="edge11" class="edge">
<title>Node8&#45;&gt;Node11</title>
<path fill="none" stroke="#63b8ff" d="M1406.48,-131.62C1382.61,-123.3 1346.23,-110.63 1316.21,-100.18"/>
<polygon fill="#63b8ff" stroke="#63b8ff" points="1317.49,-96.92 1306.9,-96.94 1315.19,-103.53 1317.49,-96.92"/>
</g>
<!-- Node12&#45;&gt;Node2 -->
<g id="edge14" class="edge">
<title>Node12&#45;&gt;Node2</title>
<path fill="none" stroke="#63b8ff" d="M1009.91,-131.57C1025.77,-122.99 1049.98,-109.4 1070,-96 1088.17,-83.84 1088.4,-73.33 1109,-66 1194.2,-35.68 2614.09,-18.95 2851.47,-16.36"/>
<polygon fill="#63b8ff" stroke="#63b8ff" points="2851.29,-19.86 2861.25,-16.25 2851.21,-12.86 2851.29,-19.86"/>
</g>
<!-- Node12&#45;&gt;Node3 -->
<g id="edge15" class="edge">
<title>Node12&#45;&gt;Node3</title>
<path fill="none" stroke="#63b8ff" d="M962.31,-131.51C945.13,-124.73 925.18,-113.53 915,-96 908.3,-84.47 906.52,-76.29 915,-66 941.98,-33.29 1065.75,-21.72 1131.57,-17.84"/>
<polygon fill="#63b8ff" stroke="#63b8ff" points="1131.46,-21.35 1141.25,-17.3 1131.07,-14.36 1131.46,-21.35"/>
</g>
<!-- Node12&#45;&gt;Node5 -->
<g id="edge13" class="edge">
<title>Node12&#45;&gt;Node5</title>
<path fill="none" stroke="#63b8ff" d="M1017,-131.62C1043.45,-121.82 1086.22,-105.98 1116.32,-94.84"/>
<polygon fill="#63b8ff" stroke="#63b8ff" points="1117.2,-98.25 1125.36,-91.49 1114.76,-91.68 1117.2,-98.25"/>
</g>
<!-- Node12&#45;&gt;Node6 -->
<g id="edge16" class="edge">
<title>Node12&#45;&gt;Node6</title>
<path fill="none" stroke="#63b8ff" d="M946.35,-131.55C886.52,-120.08 783.81,-100.38 727.61,-89.6"/>
<polygon fill="#63b8ff" stroke="#63b8ff" points="728.32,-86.17 717.84,-87.72 727,-93.04 728.32,-86.17"/>
</g>
<!-- Node12&#45;&gt;Node7 -->
<g id="edge18" class="edge">
<title>Node12&#45;&gt;Node7</title>
<path fill="none" stroke="#63b8ff" d="M945.98,-131.58C923.82,-125.13 898.67,-114.24 882,-96 868.39,-81.11 862.49,-58.79 859.93,-41.5"/>
<polygon fill="#63b8ff" stroke="#63b8ff" points="863.43,-41.27 858.8,-31.74 856.48,-42.08 863.43,-41.27"/>
</g>
<!-- Node13 -->
<g id="node13" class="node">
<title>Node13</title>
<g id="a_node13"><a xlink:title=" ">
<polygon fill="#e0e0e0" stroke="#999999" points="155.5,-24.5 108.5,-24.5 108.5,-5.5 155.5,-5.5 155.5,-24.5"/>
<text text-anchor="middle" x="132" y="-12.5" font-family="Helvetica,sans-Serif" font-size="10.00">vector</text>
</a>
</g>
</g>
<!-- Node12&#45;&gt;Node13 -->
<g id="edge17" class="edge">
<title>Node12&#45;&gt;Node13</title>
<path fill="none" stroke="#63b8ff" d="M967.13,-131.56C919.74,-115.57 815.55,-82.26 725,-66 515.76,-28.44 259.78,-18.96 167.37,-16.68"/>
<polygon fill="#63b8ff" stroke="#63b8ff" points="167.53,-13.18 157.45,-16.45 167.36,-20.18 167.53,-13.18"/>
</g>
<!-- Node14 -->
<g id="node14" class="node">
<title>Node14</title>
<g id="a_node14"><a xlink:href="../../da/da6/code__location_8h.html" target="_top" xlink:title=" ">
<polygon fill="white" stroke="#666666" points="1061.5,-90.5 924.5,-90.5 924.5,-71.5 1061.5,-71.5 1061.5,-90.5"/>
<text text-anchor="middle" x="993" y="-78.5" font-family="Helvetica,sans-Serif" font-size="10.00">includes/code_location.h</text>
</a>
</g>
</g>
<!-- Node12&#45;&gt;Node14 -->
<g id="edge19" class="edge">
<title>Node12&#45;&gt;Node14</title>
<path fill="none" stroke="#63b8ff" d="M993,-131.87C993,-124 993,-112.1 993,-101.89"/>
<polygon fill="#63b8ff" stroke="#63b8ff" points="996.5,-102.18 993,-92.18 989.5,-102.18 996.5,-102.18"/>
</g>
<!-- Node15 -->
<g id="node15" class="node">
<title>Node15</title>
<g id="a_node15"><a xlink:href="../../d9/d06/stl__vector__io_8h.html" target="_top" xlink:title=" ">
<polygon fill="white" stroke="#666666" points="288,-90.5 160,-90.5 160,-71.5 288,-71.5 288,-90.5"/>
<text text-anchor="middle" x="224" y="-78.5" font-family="Helvetica,sans-Serif" font-size="10.00">utilities/stl_vector_io.h</text>
</a>
</g>
</g>
<!-- Node12&#45;&gt;Node15 -->
<g id="edge23" class="edge">
<title>Node12&#45;&gt;Node15</title>
<path fill="none" stroke="#63b8ff" d="M934.25,-136.03C796.47,-125.55 452.65,-99.39 299.57,-87.75"/>
<polygon fill="#63b8ff" stroke="#63b8ff" points="300.19,-84.29 289.95,-87.02 299.66,-91.27 300.19,-84.29"/>
</g>
<!-- Node14&#45;&gt;Node2 -->
<g id="edge20" class="edge">
<title>Node14&#45;&gt;Node2</title>
<path fill="none" stroke="#63b8ff" d="M1039.38,-71C1051.27,-69.02 1064.07,-67.16 1076,-66 1439.49,-30.5 2634.72,-18.24 2851.22,-16.29"/>
<polygon fill="#63b8ff" stroke="#63b8ff" points="2851.23,-19.79 2861.19,-16.2 2851.16,-12.79 2851.23,-19.79"/>
</g>
<!-- Node14&#45;&gt;Node3 -->
<g id="edge21" class="edge">
<title>Node14&#45;&gt;Node3</title>
<path fill="none" stroke="#63b8ff" d="M1018.03,-71.1C1048.97,-60.1 1101.86,-41.3 1137.12,-28.76"/>
<polygon fill="#63b8ff" stroke="#63b8ff" points="1138.22,-32.08 1146.47,-25.43 1135.87,-25.49 1138.22,-32.08"/>
</g>
<!-- Node14&#45;&gt;Node7 -->
<g id="edge22" class="edge">
<title>Node14&#45;&gt;Node7</title>
<path fill="none" stroke="#63b8ff" d="M974.23,-71.1C954.83,-61.9 923.93,-47.26 898.87,-35.38"/>
<polygon fill="#63b8ff" stroke="#63b8ff" points="900.44,-32.25 889.91,-31.13 897.44,-38.57 900.44,-32.25"/>
</g>
<!-- Node15&#45;&gt;Node3 -->
<g id="edge24" class="edge">
<title>Node15&#45;&gt;Node3</title>
<path fill="none" stroke="#63b8ff" d="M268.82,-71C279.65,-69.09 291.21,-67.27 302,-66 580.09,-33.21 651.45,-46.09 931,-30 1001.45,-25.95 1083.43,-21.2 1131.61,-18.4"/>
<polygon fill="#63b8ff" stroke="#63b8ff" points="1131.53,-21.91 1141.31,-17.84 1131.12,-14.92 1131.53,-21.91"/>
</g>
<!-- Node15&#45;&gt;Node13 -->
<g id="edge25" class="edge">
<title>Node15&#45;&gt;Node13</title>
<path fill="none" stroke="#63b8ff" d="M211.21,-71.1C196.45,-60.83 171.91,-43.77 154.06,-31.34"/>
<polygon fill="#63b8ff" stroke="#63b8ff" points="156.13,-28.53 145.93,-25.69 152.14,-34.27 156.13,-28.53"/>
</g>
<!-- Node16&#45;&gt;Node2 -->
<g id="edge27" class="edge">
<title>Node16&#45;&gt;Node2</title>
<path fill="none" stroke="#63b8ff" d="M2340.75,-790.12C2545.76,-788.84 3208,-755.19 3208,-373.5 3208,-373.5 3208,-373.5 3208,-140.5 3208,-101.11 3192.75,-87.89 3160,-66 3120.78,-39.79 2982.55,-24.55 2918.29,-18.74"/>
<polygon fill="#63b8ff" stroke="#63b8ff" points="2918.97,-15.29 2908.7,-17.9 2918.36,-22.26 2918.97,-15.29"/>
</g>
<!-- Node16&#45;&gt;Node3 -->
<g id="edge28" class="edge">
<title>Node16&#45;&gt;Node3</title>
<path fill="none" stroke="#63b8ff" d="M2340.83,-781.39C2503.54,-757.66 2942,-681.94 2942,-555 2942,-555 2942,-555 2942,-432 2942,-252.91 2741.89,-331.64 2581,-253 2458.1,-192.93 2429.69,-168.99 2298,-132 2146.44,-89.43 2106.18,-85.76 1950,-66 1670.6,-30.65 1331.33,-19.72 1214.71,-16.88"/>
<polygon fill="#63b8ff" stroke="#63b8ff" points="1215.08,-13.39 1205,-16.65 1214.92,-20.38 1215.08,-13.39"/>
</g>
<!-- Node16&#45;&gt;Node4 -->
<g id="edge31" class="edge">
<title>Node16&#45;&gt;Node4</title>
<path fill="none" stroke="#63b8ff" d="M2221.05,-787.23C2042.24,-779.65 1525,-751.69 1525,-681.5 1525,-681.5 1525,-681.5 1525,-553 1525,-520.53 1521.99,-508.77 1501,-484 1479.4,-458.51 1461.97,-467.72 1435,-448 1375.11,-404.21 1346.72,-396.21 1320,-327 1306.65,-292.43 1308.99,-248.33 1311.95,-223.12"/>
<polygon fill="#63b8ff" stroke="#63b8ff" points="1315.41,-223.68 1313.28,-213.3 1308.47,-222.75 1315.41,-223.68"/>
</g>
<!-- Node17 -->
<g id="node17" class="node">
<title>Node17</title>
<g id="a_node17"><a xlink:title=" ">
<polygon fill="#e0e0e0" stroke="#999999" points="1199.5,-382 1146.5,-382 1146.5,-363 1199.5,-363 1199.5,-382"/>
<text text-anchor="middle" x="1173" y="-370" font-family="Helvetica,sans-Serif" font-size="10.00">cstddef</text>
</a>
</g>
</g>
<!-- Node16&#45;&gt;Node17 -->
<g id="edge29" class="edge">
<title>Node16&#45;&gt;Node17</title>
<path fill="none" stroke="#63b8ff" d="M2221.03,-788.31C2051.33,-784.63 1575.81,-772.01 1511,-745 1434.89,-713.28 1373,-703.46 1373,-621 1373,-621 1373,-621 1373,-553 1373,-465.78 1266.34,-410.22 1208.8,-386.59"/>
<polygon fill="#63b8ff" stroke="#63b8ff" points="1210.32,-383.43 1199.74,-382.99 1207.73,-389.94 1210.32,-383.43"/>
</g>
<!-- Node18 -->
<g id="node18" class="node">
<title>Node18</title>
<g id="a_node18"><a xlink:title=" ">
<polygon fill="#e0e0e0" stroke="#999999" points="2343.5,-327 2250.5,-327 2250.5,-308 2343.5,-308 2343.5,-327"/>
<text text-anchor="middle" x="2297" y="-315" font-family="Helvetica,sans-Serif" font-size="10.00">unordered_map</text>
</a>
</g>
</g>
<!-- Node16&#45;&gt;Node18 -->
<g id="edge30" class="edge">
<title>Node16&#45;&gt;Node18</title>
<path fill="none" stroke="#63b8ff" d="M2278.72,-780.58C2265.21,-727.42 2196.67,-453.5 2210,-418 2223.15,-382.98 2254.84,-352.21 2276.12,-334.48"/>
<polygon fill="#63b8ff" stroke="#63b8ff" points="2278.28,-337.23 2283.88,-328.23 2273.89,-331.78 2278.28,-337.23"/>
</g>
<!-- Node19 -->
<g id="node19" class="node">
<title>Node19</title>
<g id="a_node19"><a xlink:href="../../d1/d77/node_8h.html" target="_top" xlink:title=" ">
<polygon fill="white" stroke="#666666" points="879.5,-745 786.5,-745 786.5,-726 879.5,-726 879.5,-745"/>
<text text-anchor="middle" x="833" y="-733" font-family="Helvetica,sans-Serif" font-size="10.00">includes/node.h</text>
</a>
</g>
</g>
<!-- Node16&#45;&gt;Node19 -->
<g id="edge32" class="edge">
<title>Node16&#45;&gt;Node19</title>
<path fill="none" stroke="#63b8ff" d="M2221.08,-787.31C1985.42,-778.68 1123.88,-747.15 891.23,-738.63"/>
<polygon fill="#63b8ff" stroke="#63b8ff" points="891.63,-735.14 881.5,-738.28 891.37,-742.14 891.63,-735.14"/>
</g>
<!-- Node62 -->
<g id="node34" class="node">
<title>Node62</title>
<g id="a_node34"><a xlink:href="../../d1/d82/data__value__container_8h.html" target="_top" xlink:title=" ">
<polygon fill="white" stroke="#666666" points="1154.5,-635 1029.5,-635 1029.5,-605 1154.5,-605 1154.5,-635"/>
<text text-anchor="start" x="1037.5" y="-623" font-family="Helvetica,sans-Serif" font-size="10.00">containers/data_value</text>
<text text-anchor="middle" x="1092" y="-612" font-family="Helvetica,sans-Serif" font-size="10.00">_container.h</text>
</a>
</g>
</g>
<!-- Node16&#45;&gt;Node62 -->
<g id="edge144" class="edge">
<title>Node16&#45;&gt;Node62</title>
<path fill="none" stroke="#63b8ff" d="M2221.19,-788.23C2049.6,-784.31 1557.86,-771.07 1399,-745 1310.14,-730.42 1286.46,-726.19 1204,-690 1174.26,-676.95 1143,-657.1 1121.08,-642.04"/>
<polygon fill="#63b8ff" stroke="#63b8ff" points="1123.15,-639.22 1112.95,-636.36 1119.15,-644.96 1123.15,-639.22"/>
</g>
<!-- Node83 -->
<g id="node45" class="node">
<title>Node83</title>
<g id="a_node45"><a xlink:href="../../d9/d4c/includes_2indexed__object_8h.html" target="_top" xlink:title=" ">
<polygon fill="white" stroke="#666666" points="2361.5,-442.5 2218.5,-442.5 2218.5,-423.5 2361.5,-423.5 2361.5,-442.5"/>
<text text-anchor="middle" x="2290" y="-430.5" font-family="Helvetica,sans-Serif" font-size="10.00">includes/indexed_object.h</text>
</a>
</g>
</g>
<!-- Node16&#45;&gt;Node83 -->
<g id="edge140" class="edge">
<title>Node16&#45;&gt;Node83</title>
<path fill="none" stroke="#63b8ff" d="M2281.22,-780.71C2282.39,-734.7 2287.79,-521.13 2289.49,-454.15"/>
<polygon fill="#63b8ff" stroke="#63b8ff" points="2292.98,-454.4 2289.74,-444.31 2285.99,-454.22 2292.98,-454.4"/>
</g>
<!-- Node84 -->
<g id="node46" class="node">
<title>Node84</title>
<g id="a_node46"><a xlink:href="../../de/db8/process__info_8h.html" target="_top" xlink:title=" ">
<polygon fill="white" stroke="#666666" points="1344.5,-690 1213.5,-690 1213.5,-671 1344.5,-671 1344.5,-690"/>
<text text-anchor="middle" x="1279" y="-678" font-family="Helvetica,sans-Serif" font-size="10.00">includes/process_info.h</text>
</a>
</g>
</g>
<!-- Node16&#45;&gt;Node84 -->
<g id="edge145" class="edge">
<title>Node16&#45;&gt;Node84</title>
<path fill="none" stroke="#63b8ff" d="M2221.29,-788.23C2059.72,-784.48 1616.51,-771.96 1473,-745 1414.04,-733.92 1348.22,-709.73 1310.4,-694.61"/>
<polygon fill="#63b8ff" stroke="#63b8ff" points="1312.04,-691.5 1301.45,-690.99 1309.41,-697.98 1312.04,-691.5"/>
</g>
<!-- Node85 -->
<g id="node47" class="node">
<title>Node85</title>
<g id="a_node47"><a xlink:href="../../dd/d98/table_8h.html" target="_top" xlink:title=" ">
<polygon fill="white" stroke="#666666" points="2585,-563.5 2491,-563.5 2491,-544.5 2585,-544.5 2585,-563.5"/>
<text text-anchor="middle" x="2538" y="-551.5" font-family="Helvetica,sans-Serif" font-size="10.00">includes/table.h</text>
</a>
</g>
</g>
<!-- Node16&#45;&gt;Node85 -->
<g id="edge153" class="edge">
<title>Node16&#45;&gt;Node85</title>
<path fill="none" stroke="#63b8ff" d="M2290.76,-780.59C2329.08,-745.62 2469.61,-617.4 2519.93,-571.49"/>
<polygon fill="#63b8ff" stroke="#63b8ff" points="2522.08,-574.26 2527.11,-564.94 2517.37,-569.09 2522.08,-574.26"/>
</g>
<!-- Node19&#45;&gt;Node2 -->
<g id="edge33" class="edge">
<title>Node19&#45;&gt;Node2</title>
<path fill="none" stroke="#63b8ff" d="M879.58,-733.82C1145.82,-729.69 2477,-705.78 2880,-635 2978.03,-617.78 3021.15,-636.81 3094,-569 3128.12,-537.24 3170,-420.11 3170,-373.5 3170,-373.5 3170,-373.5 3170,-140.5 3170,-103.33 3161.6,-88.48 3132,-66 3098.83,-40.81 2978.39,-25.44 2918.83,-19.21"/>
<polygon fill="#63b8ff" stroke="#63b8ff" points="2919.24,-15.73 2908.94,-18.2 2918.53,-22.69 2919.24,-15.73"/>
</g>
<!-- Node19&#45;&gt;Node3 -->
<g id="edge34" class="edge">
<title>Node19&#45;&gt;Node3</title>
<path fill="none" stroke="#63b8ff" d="M786.13,-733.09C610.31,-727.19 0,-700.96 0,-621 0,-621 0,-621 0,-201 0,-128.39 27.85,-100.01 92,-66 174.44,-22.29 837.81,-34.69 931,-30 1001.48,-26.45 1083.45,-21.54 1131.62,-18.58"/>
<polygon fill="#63b8ff" stroke="#63b8ff" points="1131.55,-22.09 1141.32,-17.98 1131.12,-15.11 1131.55,-22.09"/>
</g>
<!-- Node19&#45;&gt;Node4 -->
<g id="edge38" class="edge">
<title>Node19&#45;&gt;Node4</title>
<path fill="none" stroke="#63b8ff" d="M786.25,-732.39C716.47,-728.36 589.46,-717.41 554,-690 497.73,-646.5 469,-602.52 501,-539 597.88,-346.72 690.72,-329.43 892,-253 956.74,-228.42 1153.14,-213.04 1253.92,-206.56"/>
<polygon fill="#63b8ff" stroke="#63b8ff" points="1253.86,-210.07 1263.62,-205.95 1253.42,-203.08 1253.86,-210.07"/>
</g>
<!-- Node19&#45;&gt;Node6 -->
<g id="edge35" class="edge">
<title>Node19&#45;&gt;Node6</title>
<path fill="none" stroke="#63b8ff" d="M786,-733.57C672.26,-730.82 389.38,-720.93 361,-690 262.4,-582.56 299.55,-478.94 388,-363 476.44,-247.06 614.82,-137.18 667.08,-97.55"/>
<polygon fill="#63b8ff" stroke="#63b8ff" points="668.98,-100.5 674.86,-91.69 664.77,-94.91 668.98,-100.5"/>
</g>
<!-- Node19&#45;&gt;Node11 -->
<g id="edge132" class="edge">
<title>Node19&#45;&gt;Node11</title>
<path fill="none" stroke="#63b8ff" d="M786.14,-732.8C669.41,-727.29 375,-705.07 375,-621 375,-621 375,-621 375,-553 375,-417.3 503.18,-441.31 614,-363 651.67,-336.38 660.89,-328.91 702,-308 882.21,-216.35 1108.69,-134.9 1210.32,-100.02"/>
<polygon fill="#63b8ff" stroke="#63b8ff" points="1211.16,-103.43 1219.49,-96.88 1208.9,-96.8 1211.16,-103.43"/>
</g>
<!-- Node19&#45;&gt;Node17 -->
<g id="edge36" class="edge">
<title>Node19&#45;&gt;Node17</title>
<path fill="none" stroke="#63b8ff" d="M879.72,-729.46C926.39,-723.47 999.66,-711.48 1060,-690 1108.89,-672.59 1131.07,-675.91 1163,-635 1185.55,-606.11 1183,-591.65 1183,-555 1183,-555 1183,-555 1183,-492.5 1183,-457.69 1178.7,-417.35 1175.74,-393.71"/>
<polygon fill="#63b8ff" stroke="#63b8ff" points="1179.23,-393.4 1174.46,-383.94 1172.29,-394.3 1179.23,-393.4"/>
</g>
<!-- Node20 -->
<g id="node20" class="node">
<title>Node20</title>
<g id="a_node20"><a xlink:title=" ">
<polygon fill="#e0e0e0" stroke="#999999" points="1051,-690 1001,-690 1001,-671 1051,-671 1051,-690"/>
<text text-anchor="middle" x="1026" y="-678" font-family="Helvetica,sans-Serif" font-size="10.00">atomic</text>
</a>
</g>
</g>
<!-- Node19&#45;&gt;Node20 -->
<g id="edge37" class="edge">
<title>Node19&#45;&gt;Node20</title>
<path fill="none" stroke="#63b8ff" d="M865.74,-725.51C900.09,-716.08 953.96,-701.28 989.62,-691.49"/>
<polygon fill="#63b8ff" stroke="#63b8ff" points="990.34,-694.92 999.05,-688.9 988.48,-688.17 990.34,-694.92"/>
</g>
<!-- Node21 -->
<g id="node21" class="node">
<title>Node21</title>
<g id="a_node21"><a xlink:href="../../da/d55/lock__object_8h.html" target="_top" xlink:title=" ">
<polygon fill="#fff0f0" stroke="red" points="1115.5,-272 990.5,-272 990.5,-253 1115.5,-253 1115.5,-272"/>
<text text-anchor="middle" x="1053" y="-260" font-family="Helvetica,sans-Serif" font-size="10.00">includes/lock_object.h</text>
</a>
</g>
</g>
<!-- Node19&#45;&gt;Node21 -->
<g id="edge39" class="edge">
<title>Node19&#45;&gt;Node21</title>
<path fill="none" stroke="#63b8ff" d="M786.19,-727.8C705.56,-714.16 553.56,-678.1 602,-605 700.9,-455.75 845.84,-574.05 973,-448 1020.69,-400.73 1041.88,-320.35 1049.46,-283.29"/>
<polygon fill="#63b8ff" stroke="#63b8ff" points="1052.88,-284.08 1051.32,-273.6 1046,-282.77 1052.88,-284.08"/>
</g>
<!-- Node23 -->
<g id="node22" class="node">
<title>Node23</title>
<g id="a_node22"><a xlink:href="../../d2/d91/point_8h.html" target="_top" xlink:title=" ">
<polygon fill="white" stroke="#666666" points="1922.5,-442.5 1813.5,-442.5 1813.5,-423.5 1922.5,-423.5 1922.5,-442.5"/>
<text text-anchor="middle" x="1868" y="-430.5" font-family="Helvetica,sans-Serif" font-size="10.00">geometries/point.h</text>
</a>
</g>
</g>
<!-- Node19&#45;&gt;Node23 -->
<g id="edge41" class="edge">
<title>Node19&#45;&gt;Node23</title>
<path fill="none" stroke="#63b8ff" d="M879.9,-733.72C1001.33,-731.28 1323.61,-721.89 1425,-690 1596.45,-636.07 1616.09,-571.66 1773,-484 1795.41,-471.48 1821.21,-457.96 1840.26,-448.14"/>
<polygon fill="#63b8ff" stroke="#63b8ff" points="1841.71,-451.33 1849,-443.65 1838.51,-445.1 1841.71,-451.33"/>
</g>
<!-- Node52 -->
<g id="node31" class="node">
<title>Node52</title>
<g id="a_node31"><a xlink:href="../../d9/da0/flags_8h.html" target="_top" xlink:title=" ">
<polygon fill="white" stroke="#666666" points="1503.5,-327 1400.5,-327 1400.5,-308 1503.5,-308 1503.5,-327"/>
<text text-anchor="middle" x="1452" y="-315" font-family="Helvetica,sans-Serif" font-size="10.00">containers/flags.h</text>
</a>
</g>
</g>
<!-- Node19&#45;&gt;Node52 -->
<g id="edge131" class="edge">
<title>Node19&#45;&gt;Node52</title>
<path fill="none" stroke="#63b8ff" d="M879.73,-735.01C991.53,-735.53 1271.27,-732.4 1353,-690 1388.56,-671.55 1411,-661.06 1411,-621 1411,-621 1411,-621 1411,-553 1411,-472.27 1434.87,-378.22 1446.18,-338.17"/>
<polygon fill="#63b8ff" stroke="#63b8ff" points="1449.48,-339.38 1448.89,-328.8 1442.75,-337.44 1449.48,-339.38"/>
</g>
<!-- Node61 -->
<g id="node33" class="node">
<title>Node61</title>
<g id="a_node33"><a xlink:href="../../d1/d4e/dof_8h.html" target="_top" xlink:title=" ">
<polygon fill="white" stroke="#666666" points="945,-690 861,-690 861,-671 945,-671 945,-690"/>
<text text-anchor="middle" x="903" y="-678" font-family="Helvetica,sans-Serif" font-size="10.00">includes/dof.h</text>
</a>
</g>
</g>
<!-- Node19&#45;&gt;Node61 -->
<g id="edge72" class="edge">
<title>Node19&#45;&gt;Node61</title>
<path fill="none" stroke="#63b8ff" d="M844.87,-725.51C855.09,-717.77 870.07,-706.43 882.26,-697.2"/>
<polygon fill="#63b8ff" stroke="#63b8ff" points="884.23,-700.1 890.09,-691.27 880.01,-694.52 884.23,-700.1"/>
</g>
<!-- Node19&#45;&gt;Node62 -->
<g id="edge138" class="edge">
<title>Node19&#45;&gt;Node62</title>
<path fill="none" stroke="#63b8ff" d="M859.77,-725.61C884.51,-717.18 922.16,-703.77 954,-690 954.32,-689.86 1012.28,-660.87 1052.98,-640.52"/>
<polygon fill="#63b8ff" stroke="#63b8ff" points="1054.43,-643.71 1061.81,-636.1 1051.3,-637.45 1054.43,-643.71"/>
</g>
<!-- Node74 -->
<g id="node41" class="node">
<title>Node74</title>
<g id="a_node41"><a xlink:href="../../db/d22/nodal__data_8h.html" target="_top" xlink:title=" ">
<polygon fill="white" stroke="#666666" points="745,-629.5 611,-629.5 611,-610.5 745,-610.5 745,-629.5"/>
<text text-anchor="middle" x="678" y="-617.5" font-family="Helvetica,sans-Serif" font-size="10.00">containers/nodal_data.h</text>
</a>
</g>
</g>
<!-- Node19&#45;&gt;Node74 -->
<g id="edge139" class="edge">
<title>Node19&#45;&gt;Node74</title>
<path fill="none" stroke="#63b8ff" d="M820.84,-725.59C794.58,-706.37 732.3,-660.76 699.32,-636.62"/>
<polygon fill="#63b8ff" stroke="#63b8ff" points="701.46,-633.84 691.33,-630.76 697.33,-639.49 701.46,-633.84"/>
</g>
<!-- Node75 -->
<g id="node42" class="node">
<title>Node75</title>
<g id="a_node42"><a xlink:href="../../d4/d52/variables__list__data__value__container_8h.html" target="_top" xlink:title=" ">
<polygon fill="#fff0f0" stroke="red" points="1002.5,-569 847.5,-569 847.5,-539 1002.5,-539 1002.5,-569"/>
<text text-anchor="start" x="855.5" y="-557" font-family="Helvetica,sans-Serif" font-size="10.00">containers/variables</text>
<text text-anchor="middle" x="925" y="-546" font-family="Helvetica,sans-Serif" font-size="10.00">_list_data_value_container.h</text>
</a>
</g>
</g>
<!-- Node19&#45;&gt;Node75 -->
<g id="edge130" class="edge">
<title>Node19&#45;&gt;Node75</title>
<path fill="none" stroke="#63b8ff" d="M834.14,-725.69C837.3,-703.79 847.64,-645.76 873,-605 879.45,-594.63 888.53,-584.91 897.3,-576.84"/>
<polygon fill="#63b8ff" stroke="#63b8ff" points="899.49,-579.58 904.72,-570.36 894.89,-574.31 899.49,-579.58"/>
</g>
<!-- Node78 -->
<g id="node43" class="node">
<title>Node78</title>
<g id="a_node43"><a xlink:href="../../d4/d35/pointer__vector__set_8h.html" target="_top" xlink:title=" ">
<polygon fill="#fff0f0" stroke="red" points="964.5,-448 859.5,-448 859.5,-418 964.5,-418 964.5,-448"/>
<text text-anchor="start" x="867.5" y="-436" font-family="Helvetica,sans-Serif" font-size="10.00">containers/pointer</text>
<text text-anchor="middle" x="912" y="-425" font-family="Helvetica,sans-Serif" font-size="10.00">_vector_set.h</text>
</a>
</g>
</g>
<!-- Node19&#45;&gt;Node78 -->
<g id="edge121" class="edge">
<title>Node19&#45;&gt;Node78</title>
<path fill="none" stroke="#63b8ff" d="M786.14,-733.58C717.89,-731.14 596.27,-722.25 569,-690 544.61,-661.15 550.1,-637.71 569,-605 627.19,-504.31 765.8,-461.4 847.9,-444.31"/>
<polygon fill="#63b8ff" stroke="#63b8ff" points="848.5,-447.76 857.61,-442.36 847.12,-440.9 848.5,-447.76"/>
</g>
<!-- Node80 -->
<g id="node44" class="node">
<title>Node80</title>
<g id="a_node44"><a xlink:href="../../de/d44/global__pointers__vector_8h.html" target="_top" xlink:title=" ">
<polygon fill="#fff0f0" stroke="red" points="288,-448 142,-448 142,-418 288,-418 288,-448"/>
<text text-anchor="start" x="150" y="-436" font-family="Helvetica,sans-Serif" font-size="10.00">containers/global_pointers</text>
<text text-anchor="middle" x="215" y="-425" font-family="Helvetica,sans-Serif" font-size="10.00">_vector.h</text>
</a>
</g>
</g>
<!-- Node19&#45;&gt;Node80 -->
<g id="edge133" class="edge">
<title>Node19&#45;&gt;Node80</title>
<path fill="none" stroke="#63b8ff" d="M786.08,-732.95C661.34,-728.51 328.04,-714.48 285,-690 252.31,-671.4 236,-658.61 236,-621 236,-621 236,-621 236,-553 236,-520.16 228.15,-482.98 222.05,-459.05"/>
<polygon fill="#63b8ff" stroke="#63b8ff" points="225.49,-458.38 219.54,-449.61 218.72,-460.17 225.49,-458.38"/>
</g>
<!-- Node21&#45;&gt;Node4 -->
<g id="edge40" class="edge">
<title>Node21&#45;&gt;Node4</title>
<path fill="none" stroke="#63b8ff" d="M1093.08,-252.55C1138.83,-242.34 1213.77,-225.6 1263.73,-214.45"/>
<polygon fill="#63b8ff" stroke="#63b8ff" points="1264.45,-217.87 1273.45,-212.28 1262.93,-211.04 1264.45,-217.87"/>
</g>
<!-- Node23&#45;&gt;Node4 -->
<g id="edge42" class="edge">
<title>Node23&#45;&gt;Node4</title>
<path fill="none" stroke="#63b8ff" d="M1813.25,-425.33C1753.02,-417.14 1660.91,-401.87 1632,-382 1599.69,-359.8 1611.66,-335.78 1584,-308 1552.51,-276.38 1540.71,-271.27 1500,-253 1460.25,-235.16 1412.76,-222.49 1375.85,-214.37"/>
<polygon fill="#63b8ff" stroke="#63b8ff" points="1376.74,-210.98 1366.23,-212.31 1375.28,-217.82 1376.74,-210.98"/>
</g>
<!-- Node24 -->
<g id="node23" class="node">
<title>Node24</title>
<g id="a_node23"><a xlink:href="../../d9/d36/array__1d_8h.html" target="_top" xlink:title=" ">
<polygon fill="#fff0f0" stroke="red" points="1872,-327 1750,-327 1750,-308 1872,-308 1872,-327"/>
<text text-anchor="middle" x="1811" y="-315" font-family="Helvetica,sans-Serif" font-size="10.00">containers/array_1d.h</text>
</a>
</g>
</g>
<!-- Node23&#45;&gt;Node24 -->
<g id="edge43" class="edge">
<title>Node23&#45;&gt;Node24</title>
<path fill="none" stroke="#63b8ff" d="M1873.28,-423.37C1880.89,-409.71 1892.89,-382.68 1882,-363 1874.42,-349.31 1860.68,-339.26 1847.28,-332.22"/>
<polygon fill="#63b8ff" stroke="#63b8ff" points="1849.11,-329.22 1838.58,-328.06 1846.1,-335.53 1849.11,-329.22"/>
</g>
<!-- Node46 -->
<g id="node29" class="node">
<title>Node46</title>
<g id="a_node29"><a xlink:href="../../dd/d5f/serializer_8h.html" target="_top" xlink:title=" ">
<polygon fill="#fff0f0" stroke="red" points="2123.5,-382 2010.5,-382 2010.5,-363 2123.5,-363 2123.5,-382"/>
<text text-anchor="middle" x="2067" y="-370" font-family="Helvetica,sans-Serif" font-size="10.00">includes/serializer.h</text>
</a>
</g>
</g>
<!-- Node23&#45;&gt;Node46 -->
<g id="edge55" class="edge">
<title>Node23&#45;&gt;Node46</title>
<path fill="none" stroke="#63b8ff" d="M1898.22,-423.12C1932.27,-413.11 1987.79,-396.79 2025.79,-385.62"/>
<polygon fill="#63b8ff" stroke="#63b8ff" points="2026.43,-389.07 2035.04,-382.9 2024.46,-382.36 2026.43,-389.07"/>
</g>
<!-- Node24&#45;&gt;Node2 -->
<g id="edge44" class="edge">
<title>Node24&#45;&gt;Node2</title>
<path fill="none" stroke="#63b8ff" d="M1872.38,-313.05C2012.92,-304.97 2349.83,-284.58 2400,-272 2420.27,-266.92 2423.3,-259.97 2443,-253 2500.73,-232.57 2530.19,-257.64 2576,-217 2630.15,-168.97 2581.31,-112.23 2637,-66 2669.31,-39.17 2791.76,-24.52 2851.63,-18.83"/>
<polygon fill="#63b8ff" stroke="#63b8ff" points="2851.58,-22.35 2861.22,-17.95 2850.94,-15.38 2851.58,-22.35"/>
</g>
<!-- Node24&#45;&gt;Node3 -->
<g id="edge45" class="edge">
<title>Node24&#45;&gt;Node3</title>
<path fill="none" stroke="#63b8ff" d="M1789.54,-307.51C1759.12,-294.86 1701.64,-271.31 1652,-253 1519.48,-204.12 1443.61,-257.65 1351,-151 1325.8,-121.97 1360.6,-94.68 1335,-66 1304.67,-32.02 1251.81,-20.85 1214.74,-17.33"/>
<polygon fill="#63b8ff" stroke="#63b8ff" points="1215.06,-13.85 1204.82,-16.56 1214.52,-20.82 1215.06,-13.85"/>
</g>
<!-- Node24&#45;&gt;Node4 -->
<g id="edge46" class="edge">
<title>Node24&#45;&gt;Node4</title>
<path fill="none" stroke="#63b8ff" d="M1777.89,-307.5C1747.52,-299.04 1701.41,-285.66 1662,-272 1640.32,-264.49 1636.1,-259.15 1614,-253 1608.28,-251.41 1461.76,-227.17 1375.99,-213.03"/>
<polygon fill="#63b8ff" stroke="#63b8ff" points="1376.75,-209.61 1366.32,-211.44 1375.61,-216.52 1376.75,-209.61"/>
</g>
<!-- Node28 -->
<g id="node24" class="node">
<title>Node28</title>
<g id="a_node24"><a xlink:href="../../d9/d3e/ublas__interface_8h.html" target="_top" xlink:title=" ">
<polygon fill="#fff0f0" stroke="red" points="2300,-272 2156,-272 2156,-253 2300,-253 2300,-272"/>
<text text-anchor="middle" x="2228" y="-260" font-family="Helvetica,sans-Serif" font-size="10.00">includes/ublas_interface.h</text>
</a>
</g>
</g>
<!-- Node24&#45;&gt;Node28 -->
<g id="edge47" class="edge">
<title>Node24&#45;&gt;Node28</title>
<path fill="none" stroke="#63b8ff" d="M1872.08,-308.74C1944.57,-299.52 2065.73,-284.12 2146.25,-273.89"/>
<polygon fill="#63b8ff" stroke="#63b8ff" points="2146.35,-277.41 2155.83,-272.67 2145.47,-270.46 2146.35,-277.41"/>
</g>
<!-- Node28&#45;&gt;Node2 -->
<g id="edge48" class="edge">
<title>Node28&#45;&gt;Node2</title>
<path fill="none" stroke="#63b8ff" d="M2262.13,-252.54C2287.98,-245.01 2323.9,-232.92 2353,-217 2449.17,-164.4 2447.17,-109 2548,-66 2652.05,-21.63 2788.72,-15.65 2851.2,-15.46"/>
<polygon fill="#63b8ff" stroke="#63b8ff" points="2851.15,-18.96 2861.16,-15.49 2851.17,-11.96 2851.15,-18.96"/>
</g>
<!-- Node28&#45;&gt;Node3 -->
<g id="edge49" class="edge">
<title>Node28&#45;&gt;Node3</title>
<path fill="none" stroke="#63b8ff" d="M2155.69,-254.18C2038.61,-242.26 1820.21,-219.71 1817,-217 1763.66,-172.01 1827.9,-110.32 1774,-66 1730.97,-30.61 1344,-19.51 1214.79,-16.77"/>
<polygon fill="#63b8ff" stroke="#63b8ff" points="1215.05,-13.27 1204.98,-16.57 1214.9,-20.27 1215.05,-13.27"/>
</g>
<!-- Node28&#45;&gt;Node4 -->
<g id="edge54" class="edge">
<title>Node28&#45;&gt;Node4</title>
<path fill="none" stroke="#63b8ff" d="M2155.6,-256.86C1980.86,-245.66 1538.5,-217.32 1376.05,-206.91"/>
<polygon fill="#63b8ff" stroke="#63b8ff" points="1376.56,-203.44 1366.35,-206.29 1376.11,-210.42 1376.56,-203.44"/>
</g>
<!-- Node29 -->
<g id="node25" class="node">
<title>Node29</title>
<g id="a_node25"><a xlink:title=" ">
<polygon fill="#e0e0e0" stroke="#999999" points="1942,-217 1826,-217 1826,-187 1942,-187 1942,-217"/>
<text text-anchor="start" x="1834" y="-205" font-family="Helvetica,sans-Serif" font-size="10.00">boost/numeric/ublas</text>
<text text-anchor="middle" x="1884" y="-194" font-family="Helvetica,sans-Serif" font-size="10.00">/matrix.hpp</text>
</a>
</g>
</g>
<!-- Node28&#45;&gt;Node29 -->
<g id="edge50" class="edge">
<title>Node28&#45;&gt;Node29</title>
<path fill="none" stroke="#63b8ff" d="M2166.79,-252.51C2113.1,-244.43 2032.63,-231.86 1953.58,-217.43"/>
<polygon fill="#63b8ff" stroke="#63b8ff" points="1954.39,-214.02 1943.92,-215.65 1953.12,-220.9 1954.39,-214.02"/>
</g>
<!-- Node30 -->
<g id="node26" class="node">
<title>Node30</title>
<g id="a_node26"><a xlink:title=" ">
<polygon fill="#e0e0e0" stroke="#999999" points="2076,-217 1960,-217 1960,-187 2076,-187 2076,-217"/>
<text text-anchor="start" x="1968" y="-205" font-family="Helvetica,sans-Serif" font-size="10.00">boost/numeric/ublas</text>
<text text-anchor="middle" x="2018" y="-194" font-family="Helvetica,sans-Serif" font-size="10.00">/vector.hpp</text>
</a>
</g>
</g>
<!-- Node28&#45;&gt;Node30 -->
<g id="edge51" class="edge">
<title>Node28&#45;&gt;Node30</title>
<path fill="none" stroke="#63b8ff" d="M2196.11,-252.62C2165.61,-244.12 2118.79,-231.08 2080.8,-220.49"/>
<polygon fill="#63b8ff" stroke="#63b8ff" points="2081.86,-217.16 2071.29,-217.85 2079.99,-223.9 2081.86,-217.16"/>
</g>
<!-- Node31 -->
<g id="node27" class="node">
<title>Node31</title>
<g id="a_node27"><a xlink:title=" ">
<polygon fill="#e0e0e0" stroke="#999999" points="2210,-217 2094,-217 2094,-187 2210,-187 2210,-217"/>
<text text-anchor="start" x="2102" y="-205" font-family="Helvetica,sans-Serif" font-size="10.00">boost/numeric/ublas</text>
<text text-anchor="middle" x="2152" y="-194" font-family="Helvetica,sans-Serif" font-size="10.00">/vector_proxy.hpp</text>
</a>
</g>
</g>
<!-- Node28&#45;&gt;Node31 -->
<g id="edge52" class="edge">
<title>Node28&#45;&gt;Node31</title>
<path fill="none" stroke="#63b8ff" d="M2216.46,-252.62C2206.7,-245.1 2192.32,-234.04 2179.62,-224.26"/>
<polygon fill="#63b8ff" stroke="#63b8ff" points="2182.02,-221.69 2171.96,-218.36 2177.75,-227.24 2182.02,-221.69"/>
</g>
<!-- Node32 -->
<g id="node28" class="node">
<title>Node32</title>
<g id="a_node28"><a xlink:title=" ">
<polygon fill="#e0e0e0" stroke="#999999" points="2344,-217 2228,-217 2228,-187 2344,-187 2344,-217"/>
<text text-anchor="start" x="2236" y="-205" font-family="Helvetica,sans-Serif" font-size="10.00">boost/numeric/ublas</text>
<text text-anchor="middle" x="2286" y="-194" font-family="Helvetica,sans-Serif" font-size="10.00">/vector_sparse.hpp</text>
</a>
</g>
</g>
<!-- Node28&#45;&gt;Node32 -->
<g id="edge53" class="edge">
<title>Node28&#45;&gt;Node32</title>
<path fill="none" stroke="#63b8ff" d="M2236.56,-252.87C2243.77,-245.59 2254.42,-234.85 2263.99,-225.2"/>
<polygon fill="#63b8ff" stroke="#63b8ff" points="2266.39,-227.76 2270.94,-218.19 2261.41,-222.83 2266.39,-227.76"/>
</g>
<!-- Node46&#45;&gt;Node2 -->
<g id="edge56" class="edge">
<title>Node46&#45;&gt;Node2</title>
<path fill="none" stroke="#63b8ff" d="M2083.44,-362.54C2115.24,-345.22 2182.28,-308.8 2185,-308 2284.88,-278.7 2561.75,-323.86 2652,-272 2744.65,-218.76 2697.2,-138.18 2776,-66 2797.64,-46.18 2828.49,-33.03 2851.85,-25.21"/>
<polygon fill="#63b8ff" stroke="#63b8ff" points="2852.72,-28.61 2861.2,-22.25 2850.61,-21.93 2852.72,-28.61"/>
</g>
<!-- Node46&#45;&gt;Node3 -->
<g id="edge57" class="edge">
<title>Node46&#45;&gt;Node3</title>
<path fill="none" stroke="#63b8ff" d="M2061.6,-362.73C2047.1,-340.05 2004.82,-279.41 1952,-253 1838.99,-196.49 1767.04,-297.91 1670,-217 1615.91,-171.9 1676.45,-110.66 1622,-66 1590.83,-40.44 1320.18,-23.69 1214.77,-18.08"/>
<polygon fill="#63b8ff" stroke="#63b8ff" points="1215.02,-14.59 1204.85,-17.56 1214.65,-21.58 1215.02,-14.59"/>
</g>
<!-- Node46&#45;&gt;Node4 -->
<g id="edge61" class="edge">
<title>Node46&#45;&gt;Node4</title>
<path fill="none" stroke="#63b8ff" d="M2043.15,-362.56C2007.98,-349.55 1939.99,-325.11 1881,-308 1780.47,-278.84 1754.81,-272.67 1652,-253 1541.31,-231.82 1512.4,-234.05 1401,-217 1392.98,-215.77 1384.55,-214.44 1376.23,-213.11"/>
<polygon fill="#63b8ff" stroke="#63b8ff" points="1376.92,-209.68 1366.49,-211.54 1375.81,-216.59 1376.92,-209.68"/>
</g>
<!-- Node46&#45;&gt;Node6 -->
<g id="edge60" class="edge">
<title>Node46&#45;&gt;Node6</title>
<path fill="none" stroke="#63b8ff" d="M2049.32,-362.52C2022.68,-349.24 1970.42,-324.2 1924,-308 1832.1,-275.92 1806.93,-274.53 1712,-253 1562.31,-219.04 1525.07,-207.85 1373,-187 1175.1,-159.87 1121.81,-185.14 925,-151 832.48,-134.95 809.77,-126.63 721,-96 720.05,-95.67 719.08,-95.33 718.11,-94.97"/>
<polygon fill="#63b8ff" stroke="#63b8ff" points="719.72,-91.84 709.13,-91.44 717.16,-98.36 719.72,-91.84"/>
</g>
<!-- Node46&#45;&gt;Node18 -->
<g id="edge59" class="edge">
<title>Node46&#45;&gt;Node18</title>
<path fill="none" stroke="#63b8ff" d="M2106.02,-362.51C2144.88,-353.55 2204.69,-339.77 2247.01,-330.02"/>
<polygon fill="#63b8ff" stroke="#63b8ff" points="2247.74,-333.44 2256.7,-327.79 2246.17,-326.62 2247.74,-333.44"/>
</g>
<!-- Node46&#45;&gt;Node24 -->
<g id="edge67" class="edge">
<title>Node46&#45;&gt;Node24</title>
<path fill="none" stroke="#63b8ff" d="M2023.57,-362.51C1979.95,-353.48 1912.61,-339.54 1865.44,-329.77"/>
<polygon fill="#63b8ff" stroke="#63b8ff" points="1866.2,-326.35 1855.69,-327.75 1864.78,-333.21 1866.2,-326.35"/>
</g>
<!-- Node46&#45;&gt;Node28 -->
<g id="edge66" class="edge">
<title>Node46&#45;&gt;Node28</title>
<path fill="none" stroke="#63b8ff" d="M2071.31,-362.89C2078.44,-349.43 2093.95,-323.33 2114,-308 2133.19,-293.33 2157.81,-282.91 2179.27,-275.86"/>
<polygon fill="#63b8ff" stroke="#63b8ff" points="2180.19,-279.24 2188.7,-272.93 2178.11,-272.56 2180.19,-279.24"/>
</g>
<!-- Node48 -->
<g id="node30" class="node">
<title>Node48</title>
<g id="a_node30"><a xlink:title=" ">
<polygon fill="#e0e0e0" stroke="#999999" points="2232,-327 2194,-327 2194,-308 2232,-308 2232,-327"/>
<text text-anchor="middle" x="2213" y="-315" font-family="Helvetica,sans-Serif" font-size="10.00">map</text>
</a>
</g>
</g>
<!-- Node46&#45;&gt;Node48 -->
<g id="edge58" class="edge">
<title>Node46&#45;&gt;Node48</title>
<path fill="none" stroke="#63b8ff" d="M2091.77,-362.51C2116.97,-353.36 2156.05,-339.17 2182.99,-329.39"/>
<polygon fill="#63b8ff" stroke="#63b8ff" points="2184.09,-332.72 2192.3,-326.02 2181.7,-326.14 2184.09,-332.72"/>
</g>
<!-- Node46&#45;&gt;Node52 -->
<g id="edge62" class="edge">
<title>Node46&#45;&gt;Node52</title>
<path fill="none" stroke="#63b8ff" d="M2010.24,-366.61C1895.16,-356.69 1635.09,-334.28 1514.98,-323.93"/>
<polygon fill="#63b8ff" stroke="#63b8ff" points="1515.58,-320.47 1505.31,-323.09 1514.98,-327.44 1515.58,-320.47"/>
</g>
<!-- Node57 -->
<g id="node32" class="node">
<title>Node57</title>
<g id="a_node32"><a xlink:href="../../d1/d8c/logger_8h.html" target="_top" xlink:title=" ">
<polygon fill="#fff0f0" stroke="red" points="2572,-272 2452,-272 2452,-253 2572,-253 2572,-272"/>
<text text-anchor="middle" x="2512" y="-260" font-family="Helvetica,sans-Serif" font-size="10.00">input_output/logger.h</text>
</a>
</g>
</g>
<!-- Node46&#45;&gt;Node57 -->
<g id="edge68" class="edge">
<title>Node46&#45;&gt;Node57</title>
<path fill="none" stroke="#63b8ff" d="M2075.46,-362.72C2089.74,-348.51 2120.21,-320.78 2152,-308 2158.63,-305.33 2337.19,-284.04 2440.29,-271.9"/>
<polygon fill="#63b8ff" stroke="#63b8ff" points="2440.52,-275.39 2450.05,-270.75 2439.71,-268.44 2440.52,-275.39"/>
</g>
<!-- Node52&#45;&gt;Node2 -->
<g id="edge63" class="edge">
<title>Node52&#45;&gt;Node2</title>
<path fill="none" stroke="#63b8ff" d="M1503.87,-314.58C1683.6,-307.84 2270.78,-284.92 2309,-272 2462.57,-220.08 2460.07,-127.63 2610,-66 2692.44,-32.11 2798.16,-21.11 2851.31,-17.6"/>
<polygon fill="#63b8ff" stroke="#63b8ff" points="2851.45,-21.1 2861.22,-17 2851.03,-14.11 2851.45,-21.1"/>
</g>
<!-- Node52&#45;&gt;Node3 -->
<g id="edge64" class="edge">
<title>Node52&#45;&gt;Node3</title>
<path fill="none" stroke="#63b8ff" d="M1405.98,-307.57C1291.02,-284.43 995.48,-219.51 925,-151 897.24,-124.02 881.27,-95.78 906,-66 934.19,-32.04 1063.89,-21.01 1131.59,-17.54"/>
<polygon fill="#63b8ff" stroke="#63b8ff" points="1131.35,-21.05 1141.17,-17.08 1131.02,-14.06 1131.35,-21.05"/>
</g>
<!-- Node52&#45;&gt;Node4 -->
<g id="edge65" class="edge">
<title>Node52&#45;&gt;Node4</title>
<path fill="none" stroke="#63b8ff" d="M1443.84,-307.85C1431.74,-295.21 1408.08,-271.21 1386,-253 1370.84,-240.49 1352.71,-227.76 1338.56,-218.27"/>
<polygon fill="#63b8ff" stroke="#63b8ff" points="1340.6,-215.42 1330.33,-212.82 1336.74,-221.26 1340.6,-215.42"/>
</g>
<!-- Node57&#45;&gt;Node2 -->
<g id="edge69" class="edge">
<title>Node57&#45;&gt;Node2</title>
<path fill="none" stroke="#63b8ff" d="M2552.09,-252.56C2573.13,-245.97 2597.83,-234.94 2614,-217 2661.15,-164.69 2610.08,-113.58 2662,-66 2689.39,-40.9 2796.03,-25.77 2851.32,-19.45"/>
<polygon fill="#63b8ff" stroke="#63b8ff" points="2851.56,-22.95 2861.11,-18.37 2850.79,-15.99 2851.56,-22.95"/>
</g>
<!-- Node57&#45;&gt;Node3 -->
<g id="edge70" class="edge">
<title>Node57&#45;&gt;Node3</title>
<path fill="none" stroke="#63b8ff" d="M2502.22,-252.56C2484.34,-236.72 2444.57,-203.85 2405,-187 2151.9,-79.25 2070.46,-103.92 1798,-66 1579.66,-35.61 1315.64,-22.01 1214.85,-17.66"/>
<polygon fill="#63b8ff" stroke="#63b8ff" points="1215.03,-14.16 1204.89,-17.23 1214.74,-21.15 1215.03,-14.16"/>
</g>
<!-- Node57&#45;&gt;Node12 -->
<g id="edge71" class="edge">
<title>Node57&#45;&gt;Node12</title>
<path fill="none" stroke="#63b8ff" d="M2498.25,-252.68C2471.53,-236.1 2410.21,-200.72 2353,-187 2321.37,-179.41 1336.73,-151.92 1062.99,-144.41"/>
<polygon fill="#63b8ff" stroke="#63b8ff" points="1063.25,-140.91 1053.15,-144.14 1063.05,-147.91 1063.25,-140.91"/>
</g>
<!-- Node61&#45;&gt;Node2 -->
<g id="edge73" class="edge">
<title>Node61&#45;&gt;Node2</title>
<path fill="none" stroke="#63b8ff" d="M945.06,-674.91C959.88,-673.44 976.66,-671.95 992,-671 1544.06,-636.69 1683.85,-667.75 2236,-635 2399.7,-625.29 2820.25,-633.56 2971,-569 3017.18,-549.22 3056,-544.73 3056,-494.5 3056,-494.5 3056,-494.5 3056,-432 3056,-355.23 3094,-340.27 3094,-263.5 3094,-263.5 3094,-263.5 3094,-140.5 3094,-103.13 3083.89,-89.71 3055,-66 3015.52,-33.59 2955.74,-22.19 2918.6,-18.18"/>
<polygon fill="#63b8ff" stroke="#63b8ff" points="2919.19,-14.72 2908.9,-17.26 2918.53,-21.69 2919.19,-14.72"/>
</g>
<!-- Node61&#45;&gt;Node3 -->
<g id="edge74" class="edge">
<title>Node61&#45;&gt;Node3</title>
<path fill="none" stroke="#63b8ff" d="M860.61,-675.89C801.87,-670.29 692.7,-657.71 602,-635 333.98,-567.88 38,-649.8 38,-373.5 38,-373.5 38,-373.5 38,-201 38,-122.76 80.89,-100.74 151,-66 228.74,-27.48 844.36,-34.51 931,-30 1001.47,-26.34 1083.44,-21.47 1131.62,-18.54"/>
<polygon fill="#63b8ff" stroke="#63b8ff" points="1131.54,-22.05 1141.31,-17.95 1131.12,-15.07 1131.54,-22.05"/>
</g>
<!-- Node61&#45;&gt;Node4 -->
<g id="edge77" class="edge">
<title>Node61&#45;&gt;Node4</title>
<path fill="none" stroke="#63b8ff" d="M890.98,-670.55C870.46,-655.57 827.01,-625.06 787,-605 746.27,-584.57 716.96,-606.45 691,-569 683.41,-558.04 686.5,-551.55 691,-539 746.89,-383.06 783.54,-330.39 930,-253 984.85,-224.02 1159.87,-210.86 1253.89,-205.76"/>
<polygon fill="#63b8ff" stroke="#63b8ff" points="1253.9,-209.26 1263.71,-205.24 1253.54,-202.27 1253.9,-209.26"/>
</g>
<!-- Node61&#45;&gt;Node6 -->
<g id="edge75" class="edge">
<title>Node61&#45;&gt;Node6</title>
<path fill="none" stroke="#63b8ff" d="M870.25,-670.52C846.15,-663.08 813.17,-651.12 787,-635 770.12,-624.6 770.32,-616.25 754,-605 724.87,-584.92 705.18,-596.56 683,-569 592.38,-456.38 573.95,-393.96 606,-253 619.52,-193.53 656.41,-130.58 675.77,-100.34"/>
<polygon fill="#63b8ff" stroke="#63b8ff" points="678.67,-102.29 681.21,-92.01 672.81,-98.47 678.67,-102.29"/>
</g>
<!-- Node61&#45;&gt;Node17 -->
<g id="edge76" class="edge">
<title>Node61&#45;&gt;Node17</title>
<path fill="none" stroke="#63b8ff" d="M901.19,-670.59C898.66,-655.39 895.89,-624.23 911,-605 940.19,-567.86 972.34,-596.15 1011,-569 1047.74,-543.2 1128.56,-434.71 1160.07,-391.43"/>
<polygon fill="#63b8ff" stroke="#63b8ff" points="1162.72,-393.73 1165.76,-383.58 1157.05,-389.63 1162.72,-393.73"/>
</g>
<!-- Node61&#45;&gt;Node24 -->
<g id="edge120" class="edge">
<title>Node61&#45;&gt;Node24</title>
<path fill="none" stroke="#63b8ff" d="M914.29,-670.63C934.43,-655.21 978.35,-623.35 1020,-605 1107.29,-566.55 1790.97,-457.7 1849,-382 1860.59,-366.89 1846.01,-347.98 1831.69,-334.75"/>
<polygon fill="#63b8ff" stroke="#63b8ff" points="1834.06,-332.17 1824.19,-328.31 1829.5,-337.48 1834.06,-332.17"/>
</g>
<!-- Node61&#45;&gt;Node62 -->
<g id="edge78" class="edge">
<title>Node61&#45;&gt;Node62</title>
<path fill="none" stroke="#63b8ff" d="M931.71,-670.62C958.91,-662.19 1000.57,-649.3 1034.6,-638.77"/>
<polygon fill="#63b8ff" stroke="#63b8ff" points="1035.39,-642.19 1043.9,-635.89 1033.32,-635.5 1035.39,-642.19"/>
</g>
<!-- Node61&#45;&gt;Node74 -->
<g id="edge112" class="edge">
<title>Node61&#45;&gt;Node74</title>
<path fill="none" stroke="#63b8ff" d="M868.83,-670.62C830.01,-660.52 766.48,-644.01 723.49,-632.83"/>
<polygon fill="#63b8ff" stroke="#63b8ff" points="724.52,-629.48 713.96,-630.35 722.76,-636.25 724.52,-629.48"/>
</g>
<!-- Node62&#45;&gt;Node2 -->
<g id="edge79" class="edge">
<title>Node62&#45;&gt;Node2</title>
<path fill="none" stroke="#63b8ff" d="M1154.61,-618.61C1401.66,-616.79 2309.11,-607.57 2594,-569 2734.42,-549.99 2904,-636.2 2904,-494.5 2904,-494.5 2904,-494.5 2904,-432 2904,-318.31 3018,-316.69 3018,-203 3018,-203 3018,-203 3018,-140.5 3018,-102.92 3004.57,-92.58 2978,-66 2961.02,-49.01 2937.06,-36.32 2917.72,-27.97"/>
<polygon fill="#63b8ff" stroke="#63b8ff" points="2919.21,-24.8 2908.63,-24.24 2916.56,-31.28 2919.21,-24.8"/>
</g>
<!-- Node62&#45;&gt;Node3 -->
<g id="edge80" class="edge">
<title>Node62&#45;&gt;Node3</title>
<path fill="none" stroke="#63b8ff" d="M1029.1,-609.77C960.25,-599.28 854.55,-581.95 816,-569 770.43,-553.69 430,-421.58 430,-373.5 430,-373.5 430,-373.5 430,-140.5 430,-96.26 456.36,-85.63 496,-66 510.32,-58.91 986.37,-27.94 1131.45,-18.65"/>
<polygon fill="#63b8ff" stroke="#63b8ff" points="1131.62,-22.14 1141.37,-18.01 1131.17,-15.16 1131.62,-22.14"/>
</g>
<!-- Node62&#45;&gt;Node4 -->
<g id="edge83" class="edge">
<title>Node62&#45;&gt;Node4</title>
<path fill="none" stroke="#63b8ff" d="M1090.18,-604.74C1084.11,-550.66 1070.21,-356.13 1168,-253 1190.37,-229.41 1224.28,-216.95 1253.9,-210.37"/>
<polygon fill="#63b8ff" stroke="#63b8ff" points="1254.42,-213.84 1263.53,-208.42 1253.03,-206.97 1254.42,-213.84"/>
</g>
<!-- Node62&#45;&gt;Node12 -->
<g id="edge111" class="edge">
<title>Node62&#45;&gt;Node12</title>
<path fill="none" stroke="#63b8ff" d="M1029.05,-607.11C954.33,-592.92 839.54,-570.87 838,-569 729.02,-436.47 917.65,-220.76 976.39,-159.31"/>
<polygon fill="#63b8ff" stroke="#63b8ff" points="978.56,-162.1 983.01,-152.48 973.53,-157.23 978.56,-162.1"/>
</g>
<!-- Node62&#45;&gt;Node13 -->
<g id="edge82" class="edge">
<title>Node62&#45;&gt;Node13</title>
<path fill="none" stroke="#63b8ff" d="M1029.15,-611.17C957.9,-602.05 838.35,-586.07 736,-569 596.24,-545.69 221.34,-535.63 110,-448 81.4,-425.49 76,-409.9 76,-373.5 76,-373.5 76,-373.5 76,-201 76,-137.96 106.15,-67.82 122.21,-34.95"/>
<polygon fill="#63b8ff" stroke="#63b8ff" points="125.19,-36.81 126.55,-26.3 118.93,-33.67 125.19,-36.81"/>
</g>
<!-- Node62&#45;&gt;Node17 -->
<g id="edge81" class="edge">
<title>Node62&#45;&gt;Node17</title>
<path fill="none" stroke="#63b8ff" d="M1101.7,-604.65C1107.92,-594.93 1115.78,-581.61 1121,-569 1146.5,-507.45 1162.76,-429.77 1169.47,-393.66"/>
<polygon fill="#63b8ff" stroke="#63b8ff" points="1172.92,-394.3 1171.25,-383.83 1166.03,-393.05 1172.92,-394.3"/>
</g>
<!-- Node63 -->
<g id="node35" class="node">
<title>Node63</title>
<g id="a_node35"><a xlink:href="../../da/d89/variable_8h.html" target="_top" xlink:title=" ">
<polygon fill="white" stroke="#666666" points="2150.5,-503 2031.5,-503 2031.5,-484 2150.5,-484 2150.5,-503"/>
<text text-anchor="middle" x="2091" y="-491" font-family="Helvetica,sans-Serif" font-size="10.00">containers/variable.h</text>
</a>
</g>
</g>
<!-- Node62&#45;&gt;Node63 -->
<g id="edge84" class="edge">
<title>Node62&#45;&gt;Node63</title>
<path fill="none" stroke="#63b8ff" d="M1154.91,-617.66C1319.51,-613.75 1759.9,-600.56 1902,-569 1961.91,-555.69 2027.69,-526.06 2063.69,-508.44"/>
<polygon fill="#63b8ff" stroke="#63b8ff" points="2065.11,-511.64 2072.51,-504.06 2061.99,-505.37 2065.11,-511.64"/>
</g>
<!-- Node66 -->
<g id="node37" class="node">
<title>Node66</title>
<g id="a_node37"><a xlink:href="../../dc/d8e/kratos__components_8h.html" target="_top" xlink:title=" ">
<polygon fill="white" stroke="#666666" points="1892.5,-563.5 1727.5,-563.5 1727.5,-544.5 1892.5,-544.5 1892.5,-563.5"/>
<text text-anchor="middle" x="1810" y="-551.5" font-family="Helvetica,sans-Serif" font-size="10.00">includes/kratos_components.h</text>
</a>
</g>
</g>
<!-- Node62&#45;&gt;Node66 -->
<g id="edge95" class="edge">
<title>Node62&#45;&gt;Node66</title>
<path fill="none" stroke="#63b8ff" d="M1154.77,-613.4C1281.15,-602.14 1566.87,-576.67 1715.77,-563.4"/>
<polygon fill="#63b8ff" stroke="#63b8ff" points="1715.96,-566.9 1725.61,-562.52 1715.34,-559.92 1715.96,-566.9"/>
</g>
<!-- Node63&#45;&gt;Node2 -->
<g id="edge85" class="edge">
<title>Node63&#45;&gt;Node2</title>
<path fill="none" stroke="#63b8ff" d="M2150.83,-490.58C2221.63,-487.02 2342.45,-476.88 2442,-448 2611.51,-398.83 2653.01,-372.65 2798,-272 2829.09,-250.42 2841.57,-248.19 2863,-217 2880.59,-191.4 2879.71,-181.42 2886,-151 2894.28,-110.96 2890.81,-62.8 2887.76,-36.18"/>
<polygon fill="#63b8ff" stroke="#63b8ff" points="2891.26,-35.96 2886.54,-26.47 2884.32,-36.83 2891.26,-35.96"/>
</g>
<!-- Node63&#45;&gt;Node3 -->
<g id="edge86" class="edge">
<title>Node63&#45;&gt;Node3</title>
<path fill="none" stroke="#63b8ff" d="M2150.73,-491C2223.63,-487.86 2340.92,-478.13 2371,-448 2415.36,-403.56 2431.43,-355.19 2390,-308 2349.19,-261.52 2174.69,-283.92 2114,-272 2081.52,-265.62 2074.5,-259.23 2042,-253 1976.92,-240.52 1800.11,-255.25 1746,-217 1684.81,-173.74 1732.64,-108.62 1671,-66 1633.77,-40.26 1327.2,-23.29 1214.43,-17.87"/>
<polygon fill="#63b8ff" stroke="#63b8ff" points="1214.87,-14.39 1204.71,-17.41 1214.54,-21.38 1214.87,-14.39"/>
</g>
<!-- Node63&#45;&gt;Node4 -->
<g id="edge87" class="edge">
<title>Node63&#45;&gt;Node4</title>
<path fill="none" stroke="#63b8ff" d="M2031.26,-486.21C1972.99,-479.38 1882.13,-466.84 1805,-448 1715.71,-426.19 1685.11,-433.53 1609,-382 1573.23,-357.78 1578.4,-336.57 1546,-308 1512.53,-278.49 1502.11,-272.56 1462,-253 1429.13,-236.97 1389.81,-223.89 1360.12,-215.13"/>
<polygon fill="#63b8ff" stroke="#63b8ff" points="1361.27,-211.82 1350.69,-212.41 1359.33,-218.55 1361.27,-211.82"/>
</g>
<!-- Node63&#45;&gt;Node15 -->
<g id="edge94" class="edge">
<title>Node63&#45;&gt;Node15</title>
<path fill="none" stroke="#63b8ff" d="M2031.05,-487.1C2015.73,-485.9 1999.26,-484.75 1984,-484 1932.64,-481.46 173.3,-479.95 133,-448 106.22,-426.77 114,-407.67 114,-373.5 114,-373.5 114,-373.5 114,-261.5 114,-192.64 173.58,-127.91 205.04,-98.53"/>
<polygon fill="#63b8ff" stroke="#63b8ff" points="207.28,-101.23 212.33,-91.91 202.58,-96.04 207.28,-101.23"/>
</g>
<!-- Node64 -->
<g id="node36" class="node">
<title>Node64</title>
<g id="a_node36"><a xlink:href="../../d3/dc3/variable__data_8h.html" target="_top" xlink:title=" ">
<polygon fill="#fff0f0" stroke="red" points="2033,-442.5 1941,-442.5 1941,-423.5 2033,-423.5 2033,-442.5"/>
<text text-anchor="middle" x="1987" y="-430.5" font-family="Helvetica,sans-Serif" font-size="10.00">variable_data.h</text>
</a>
</g>
</g>
<!-- Node63&#45;&gt;Node64 -->
<g id="edge88" class="edge">
<title>Node63&#45;&gt;Node64</title>
<path fill="none" stroke="#63b8ff" d="M2075.2,-483.62C2058.64,-474.29 2032.33,-459.5 2012.75,-448.49"/>
<polygon fill="#63b8ff" stroke="#63b8ff" points="2014.69,-445.56 2004.26,-443.71 2011.26,-451.66 2014.69,-445.56"/>
</g>
<!-- Node64&#45;&gt;Node2 -->
<g id="edge89" class="edge">
<title>Node64&#45;&gt;Node2</title>
<path fill="none" stroke="#63b8ff" d="M2033.26,-428.5C2153.84,-419.27 2471.7,-394.1 2518,-382 2634.66,-351.51 2661.48,-332.12 2766,-272 2802.14,-251.21 2819.24,-251.93 2842,-217 2879.55,-159.37 2884.93,-74.58 2885.3,-36.2"/>
<polygon fill="#63b8ff" stroke="#63b8ff" points="2888.8,-36.37 2885.27,-26.38 2881.8,-36.39 2888.8,-36.37"/>
</g>
<!-- Node64&#45;&gt;Node3 -->
<g id="edge90" class="edge">
<title>Node64&#45;&gt;Node3</title>
<path fill="none" stroke="#63b8ff" d="M1981.7,-423.19C1967.86,-400.88 1928.4,-341.53 1881,-308 1789.23,-243.07 1727.07,-293.82 1645,-217 1591,-166.45 1634.76,-109.59 1575,-66 1518.31,-24.65 1305.76,-17.38 1214.76,-16.19"/>
<polygon fill="#63b8ff" stroke="#63b8ff" points="1214.82,-12.69 1204.78,-16.08 1214.74,-19.69 1214.82,-12.69"/>
</g>
<!-- Node64&#45;&gt;Node4 -->
<g id="edge92" class="edge">
<title>Node64&#45;&gt;Node4</title>
<path fill="none" stroke="#63b8ff" d="M1954.28,-423.01C1946.98,-421.19 1939.25,-419.41 1932,-418 1814.45,-395.19 1769.4,-440.64 1665,-382 1628.08,-361.26 1635.27,-337.61 1605,-308 1576.46,-280.09 1570.08,-270.07 1534,-253 1506.38,-239.94 1430.51,-224.13 1375.82,-213.84"/>
<polygon fill="#63b8ff" stroke="#63b8ff" points="1376.8,-210.46 1366.32,-212.07 1375.51,-217.34 1376.8,-210.46"/>
</g>
<!-- Node64&#45;&gt;Node17 -->
<g id="edge91" class="edge">
<title>Node64&#45;&gt;Node17</title>
<path fill="none" stroke="#63b8ff" d="M1956.09,-423.03C1948.29,-421.07 1939.89,-419.22 1932,-418 1657.96,-375.49 1322.52,-372.78 1211.03,-373.18"/>
<polygon fill="#63b8ff" stroke="#63b8ff" points="1211.24,-369.68 1201.26,-373.23 1211.28,-376.68 1211.24,-369.68"/>
</g>
<!-- Node64&#45;&gt;Node46 -->
<g id="edge93" class="edge">
<title>Node64&#45;&gt;Node46</title>
<path fill="none" stroke="#63b8ff" d="M1999.15,-423.12C2011.48,-414.1 2030.83,-399.95 2045.72,-389.06"/>
<polygon fill="#63b8ff" stroke="#63b8ff" points="2047.51,-392.09 2053.51,-383.36 2043.38,-386.44 2047.51,-392.09"/>
</g>
<!-- Node66&#45;&gt;Node2 -->
<g id="edge96" class="edge">
<title>Node66&#45;&gt;Node2</title>
<path fill="none" stroke="#63b8ff" d="M1875.2,-544.03C1945.53,-534.26 2060.78,-518.04 2160,-503 2312.65,-479.86 2354.81,-491.31 2503,-448 2573.69,-427.34 2589.73,-416.11 2655,-382 2766.18,-323.9 2820.36,-325.11 2884,-217 2918.34,-158.66 2916.22,-132.58 2904,-66 2902.07,-55.47 2898.02,-44.28 2894.16,-35.16"/>
<polygon fill="#63b8ff" stroke="#63b8ff" points="2897.46,-33.98 2890.16,-26.31 2891.08,-36.86 2897.46,-33.98"/>
</g>
<!-- Node66&#45;&gt;Node3 -->
<g id="edge97" class="edge">
<title>Node66&#45;&gt;Node3</title>
<path fill="none" stroke="#63b8ff" d="M1727.3,-551.99C1495.76,-547.43 848.26,-522.13 700,-382 595.98,-283.69 541.62,-171.81 638,-66 654.6,-47.77 1008.71,-25.55 1131.51,-18.36"/>
<polygon fill="#63b8ff" stroke="#63b8ff" points="1131.36,-21.88 1141.14,-17.8 1130.95,-14.89 1131.36,-21.88"/>
</g>
<!-- Node66&#45;&gt;Node4 -->
<g id="edge100" class="edge">
<title>Node66&#45;&gt;Node4</title>
<path fill="none" stroke="#63b8ff" d="M1796.72,-544.01C1760.99,-519.61 1660.34,-449.42 1584,-382 1549.6,-351.62 1548.56,-335.73 1512,-308 1471.27,-277.11 1456.11,-277.03 1411,-253 1388.02,-240.76 1361.79,-227.12 1342.56,-217.18"/>
<polygon fill="#63b8ff" stroke="#63b8ff" points="1344.23,-214.11 1333.74,-212.63 1341.02,-220.33 1344.23,-214.11"/>
</g>
<!-- Node66&#45;&gt;Node48 -->
<g id="edge98" class="edge">
<title>Node66&#45;&gt;Node48</title>
<path fill="none" stroke="#63b8ff" d="M1856.15,-544.01C1892.09,-536.01 1942.64,-522.52 1984,-503 2075.93,-459.6 2163.4,-372.09 2197.73,-335.35"/>
<polygon fill="#63b8ff" stroke="#63b8ff" points="2200.05,-337.99 2204.25,-328.27 2194.9,-333.25 2200.05,-337.99"/>
</g>
<!-- Node66&#45;&gt;Node52 -->
<g id="edge107" class="edge">
<title>Node66&#45;&gt;Node52</title>
<path fill="none" stroke="#63b8ff" d="M1787.8,-544.01C1765.42,-534.67 1730.12,-519.18 1701,-503 1615.77,-455.64 1594.11,-442.94 1518,-382 1499.85,-367.47 1480.89,-348.81 1467.98,-335.49"/>
<polygon fill="#63b8ff" stroke="#63b8ff" points="1470.58,-333.14 1461.14,-328.33 1465.52,-337.98 1470.58,-333.14"/>
</g>
<!-- Node66&#45;&gt;Node63 -->
<g id="edge108" class="edge">
<title>Node66&#45;&gt;Node63</title>
<path fill="none" stroke="#63b8ff" d="M1852.98,-544.05C1902.36,-533.77 1983.44,-516.89 2037.03,-505.74"/>
<polygon fill="#63b8ff" stroke="#63b8ff" points="2037.46,-509.22 2046.54,-503.76 2036.04,-502.37 2037.46,-509.22"/>
</g>
<!-- Node67 -->
<g id="node38" class="node">
<title>Node67</title>
<g id="a_node38"><a xlink:title=" ">
<polygon fill="#e0e0e0" stroke="#999999" points="1838.5,-503 1781.5,-503 1781.5,-484 1838.5,-484 1838.5,-503"/>
<text text-anchor="middle" x="1810" y="-491" font-family="Helvetica,sans-Serif" font-size="10.00">typeinfo</text>
</a>
</g>
</g>
<!-- Node66&#45;&gt;Node67 -->
<g id="edge99" class="edge">
<title>Node66&#45;&gt;Node67</title>
<path fill="none" stroke="#63b8ff" d="M1810,-544.37C1810,-536.5 1810,-524.6 1810,-514.39"/>
<polygon fill="#63b8ff" stroke="#63b8ff" points="1813.5,-514.68 1810,-504.68 1806.5,-514.68 1813.5,-514.68"/>
</g>
<!-- Node68 -->
<g id="node39" class="node">
<title>Node68</title>
<g id="a_node39"><a xlink:href="../../d9/dd1/data__communicator_8h.html" target="_top" xlink:title=" ">
<polygon fill="#fff0f0" stroke="red" points="1840,-382 1674,-382 1674,-363 1840,-363 1840,-382"/>
<text text-anchor="middle" x="1757" y="-370" font-family="Helvetica,sans-Serif" font-size="10.00">includes/data_communicator.h</text>
</a>
</g>
</g>
<!-- Node66&#45;&gt;Node68 -->
<g id="edge101" class="edge">
<title>Node66&#45;&gt;Node68</title>
<path fill="none" stroke="#63b8ff" d="M1801.32,-544.3C1792.58,-534.95 1779.49,-519.25 1773,-503 1758.41,-466.47 1756.25,-419.91 1756.37,-393.73"/>
<polygon fill="#63b8ff" stroke="#63b8ff" points="1759.87,-393.94 1756.55,-383.88 1752.87,-393.81 1759.87,-393.94"/>
</g>
<!-- Node72 -->
<g id="node40" class="node">
<title>Node72</title>
<g id="a_node40"><a xlink:href="../../da/d07/quaternion_8h.html" target="_top" xlink:title=" ">
<polygon fill="#fff0f0" stroke="red" points="1975,-503 1857,-503 1857,-484 1975,-484 1975,-503"/>
<text text-anchor="middle" x="1916" y="-491" font-family="Helvetica,sans-Serif" font-size="10.00">utilities/quaternion.h</text>
</a>
</g>
</g>
<!-- Node66&#45;&gt;Node72 -->
<g id="edge109" class="edge">
<title>Node66&#45;&gt;Node72</title>
<path fill="none" stroke="#63b8ff" d="M1826.1,-544.12C1842.99,-534.79 1869.8,-520 1889.75,-508.99"/>
<polygon fill="#63b8ff" stroke="#63b8ff" points="1891.36,-512.1 1898.42,-504.2 1887.98,-505.97 1891.36,-512.1"/>
</g>
<!-- Node68&#45;&gt;Node2 -->
<g id="edge102" class="edge">
<title>Node68&#45;&gt;Node2</title>
<path fill="none" stroke="#63b8ff" d="M1804.31,-362.5C1877.21,-348.93 2021.53,-323.18 2145,-308 2241.49,-296.14 2492.79,-312.87 2581,-272 2612.37,-257.47 2613.53,-243.27 2636,-217 2689.96,-153.9 2679.56,-115.8 2746,-66 2777.61,-42.3 2821.51,-29.02 2851.46,-22.2"/>
<polygon fill="#63b8ff" stroke="#63b8ff" points="2852.07,-25.65 2861.11,-20.13 2850.6,-18.8 2852.07,-25.65"/>
</g>
<!-- Node68&#45;&gt;Node3 -->
<g id="edge103" class="edge">
<title>Node68&#45;&gt;Node3</title>
<path fill="none" stroke="#63b8ff" d="M1753.36,-362.78C1749.78,-353.9 1744.37,-339.7 1741,-327 1732.43,-294.73 1750.54,-277.63 1728,-253 1686.37,-207.51 1638.06,-260.14 1594,-217 1544.05,-168.1 1603.03,-111.54 1550,-66 1500.44,-23.44 1302.2,-16.8 1214.78,-15.98"/>
<polygon fill="#63b8ff" stroke="#63b8ff" points="1214.99,-12.48 1204.96,-15.91 1214.94,-19.48 1214.99,-12.48"/>
</g>
<!-- Node68&#45;&gt;Node4 -->
<g id="edge106" class="edge">
<title>Node68&#45;&gt;Node4</title>
<path fill="none" stroke="#63b8ff" d="M1745.11,-362.83C1710.94,-338.06 1612.56,-267.79 1576,-253 1557.71,-245.6 1447.28,-225.76 1376.05,-213.41"/>
<polygon fill="#63b8ff" stroke="#63b8ff" points="1376.91,-210.01 1366.46,-211.75 1375.72,-216.9 1376.91,-210.01"/>
</g>
<!-- Node68&#45;&gt;Node24 -->
<g id="edge104" class="edge">
<title>Node68&#45;&gt;Node24</title>
<path fill="none" stroke="#63b8ff" d="M1765.92,-362.75C1773.45,-355.35 1784.47,-344.54 1793.73,-335.45"/>
<polygon fill="#63b8ff" stroke="#63b8ff" points="1796.12,-338 1800.81,-328.5 1791.22,-333.01 1796.12,-338"/>
</g>
<!-- Node68&#45;&gt;Node52 -->
<g id="edge105" class="edge">
<title>Node68&#45;&gt;Node52</title>
<path fill="none" stroke="#63b8ff" d="M1705.26,-362.51C1652.71,-353.38 1571.27,-339.23 1514.99,-329.45"/>
<polygon fill="#63b8ff" stroke="#63b8ff" points="1515.68,-326.01 1505.23,-327.75 1514.48,-332.91 1515.68,-326.01"/>
</g>
<!-- Node72&#45;&gt;Node46 -->
<g id="edge110" class="edge">
<title>Node72&#45;&gt;Node46</title>
<path fill="none" stroke="#63b8ff" d="M1974.09,-483.51C1997.85,-477.15 2023.94,-466.35 2042,-448 2056.49,-433.28 2062.59,-409.91 2065.15,-393.27"/>
<polygon fill="#63b8ff" stroke="#63b8ff" points="2068.59,-393.97 2066.32,-383.62 2061.64,-393.13 2068.59,-393.97"/>
</g>
<!-- Node74&#45;&gt;Node3 -->
<g id="edge113" class="edge">
<title>Node74&#45;&gt;Node3</title>
<path fill="none" stroke="#63b8ff" d="M636.18,-610.04C566.97,-592.64 431,-546.95 378,-448 297.84,-298.34 244.36,-170.72 378,-66 381.75,-63.06 968.75,-28.1 1131.55,-18.45"/>
<polygon fill="#63b8ff" stroke="#63b8ff" points="1131.68,-21.95 1141.45,-17.86 1131.26,-14.96 1131.68,-21.95"/>
</g>
<!-- Node74&#45;&gt;Node75 -->
<g id="edge114" class="edge">
<title>Node74&#45;&gt;Node75</title>
<path fill="none" stroke="#63b8ff" d="M712.6,-610.03C750.22,-600.29 811.23,-584.48 858.23,-572.3"/>
<polygon fill="#63b8ff" stroke="#63b8ff" points="858.98,-575.72 867.78,-569.83 857.23,-568.95 858.98,-575.72"/>
</g>
<!-- Node75&#45;&gt;Node2 -->
<g id="edge115" class="edge">
<title>Node75&#45;&gt;Node2</title>
<path fill="none" stroke="#63b8ff" d="M1003,-546.1C1152.37,-533.01 1489.19,-504.09 1773,-484 1905.8,-474.6 2242.68,-483.45 2371,-448 2391.12,-442.44 2687.05,-285.47 2703,-272 2726.91,-251.8 2728.35,-242.14 2747,-217 2795.68,-151.37 2849.41,-70.44 2872.89,-34.59"/>
<polygon fill="#63b8ff" stroke="#63b8ff" points="2875.81,-36.53 2878.35,-26.25 2869.95,-32.7 2875.81,-36.53"/>
</g>
<!-- Node75&#45;&gt;Node3 -->
<g id="edge116" class="edge">
<title>Node75&#45;&gt;Node3</title>
<path fill="none" stroke="#63b8ff" d="M874.28,-538.55C777.89,-507.95 570.87,-426.43 492,-272 476.33,-241.31 398.75,-182.04 530,-66 541.32,-55.99 991.01,-27.29 1131.5,-18.56"/>
<polygon fill="#63b8ff" stroke="#63b8ff" points="1131.33,-22.07 1141.09,-17.96 1130.89,-15.09 1131.33,-22.07"/>
</g>
<!-- Node75&#45;&gt;Node4 -->
<g id="edge118" class="edge">
<title>Node75&#45;&gt;Node4</title>
<path fill="none" stroke="#63b8ff" d="M907.55,-538.56C881.14,-514.82 835.53,-465.44 850,-418 875.79,-333.46 886.09,-299.91 961,-253 1008.58,-223.21 1165.65,-210.55 1253.73,-205.69"/>
<polygon fill="#63b8ff" stroke="#63b8ff" points="1253.85,-209.19 1263.65,-205.17 1253.48,-202.2 1253.85,-209.19"/>
</g>
<!-- Node75&#45;&gt;Node17 -->
<g id="edge117" class="edge">
<title>Node75&#45;&gt;Node17</title>
<path fill="none" stroke="#63b8ff" d="M940.98,-538.62C970.05,-512.83 1034.02,-457.69 1093,-418 1109.61,-406.83 1129.23,-395.88 1144.89,-387.64"/>
<polygon fill="#63b8ff" stroke="#63b8ff" points="1146.4,-390.8 1153.67,-383.09 1143.18,-384.58 1146.4,-390.8"/>
</g>
<!-- Node75&#45;&gt;Node63 -->
<g id="edge119" class="edge">
<title>Node75&#45;&gt;Node63</title>
<path fill="none" stroke="#63b8ff" d="M1002.77,-550.18C1178.01,-543.65 1617.08,-526.23 1984,-503 1995.56,-502.27 2007.81,-501.39 2019.73,-500.48"/>
<polygon fill="#63b8ff" stroke="#63b8ff" points="2019.83,-503.99 2029.53,-499.72 2019.29,-497.01 2019.83,-503.99"/>
</g>
<!-- Node78&#45;&gt;Node2 -->
<g id="edge123" class="edge">
<title>Node78&#45;&gt;Node2</title>
<path fill="none" stroke="#63b8ff" d="M964.94,-430.95C1168.6,-426.73 1901.7,-409.9 2133,-382 2378.33,-352.41 2465.64,-398.35 2678,-272 2705.39,-255.71 2705.56,-242.99 2724,-217 2769.2,-153.28 2760.9,-123.31 2814,-66 2826.95,-52.03 2844.41,-39.67 2858.77,-30.74"/>
<polygon fill="#63b8ff" stroke="#63b8ff" points="2860.5,-33.78 2867.28,-25.64 2856.9,-27.78 2860.5,-33.78"/>
</g>
<!-- Node78&#45;&gt;Node3 -->
<g id="edge124" class="edge">
<title>Node78&#45;&gt;Node3</title>
<path fill="none" stroke="#63b8ff" d="M896.33,-417.74C831.8,-358.27 592.74,-130.11 651,-66 667.13,-48.25 1010.42,-25.84 1131.32,-18.47"/>
<polygon fill="#63b8ff" stroke="#63b8ff" points="1131.36,-21.98 1141.13,-17.88 1130.93,-14.99 1131.36,-21.98"/>
</g>
<!-- Node78&#45;&gt;Node4 -->
<g id="edge128" class="edge">
<title>Node78&#45;&gt;Node4</title>
<path fill="none" stroke="#63b8ff" d="M920.12,-417.85C925.59,-407.99 932.73,-394.43 938,-382 961.57,-326.35 934.73,-291.88 981,-253 1021.23,-219.19 1168.89,-208.21 1253.8,-204.67"/>
<polygon fill="#63b8ff" stroke="#63b8ff" points="1253.73,-208.18 1263.58,-204.29 1253.45,-201.18 1253.73,-208.18"/>
</g>
<!-- Node78&#45;&gt;Node6 -->
<g id="edge125" class="edge">
<title>Node78&#45;&gt;Node6</title>
<path fill="none" stroke="#63b8ff" d="M910.82,-417.88C907.59,-386.12 896.46,-307.56 862,-253 819.62,-185.9 746.06,-125.41 709.67,-97.81"/>
<polygon fill="#63b8ff" stroke="#63b8ff" points="711.76,-95.01 701.66,-91.82 707.57,-100.61 711.76,-95.01"/>
</g>
<!-- Node78&#45;&gt;Node9 -->
<g id="edge127" class="edge">
<title>Node78&#45;&gt;Node9</title>
<path fill="none" stroke="#63b8ff" d="M956.41,-417.6C1083.24,-375.56 1442.39,-249.7 1512,-151 1521.98,-136.85 1522.96,-116.81 1521.89,-101.97"/>
<polygon fill="#63b8ff" stroke="#63b8ff" points="1525.37,-101.6 1520.78,-92.05 1518.42,-102.38 1525.37,-101.6"/>
</g>
<!-- Node78&#45;&gt;Node13 -->
<g id="edge122" class="edge">
<title>Node78&#45;&gt;Node13</title>
<path fill="none" stroke="#63b8ff" d="M865.52,-417.51C715.76,-369.95 249.91,-214.85 151,-96 137.03,-79.22 132.97,-53.93 131.97,-36.29"/>
<polygon fill="#63b8ff" stroke="#63b8ff" points="135.47,-36.22 131.72,-26.31 128.47,-36.4 135.47,-36.22"/>
</g>
<!-- Node78&#45;&gt;Node17 -->
<g id="edge126" class="edge">
<title>Node78&#45;&gt;Node17</title>
<path fill="none" stroke="#63b8ff" d="M964.82,-420.16C1015.38,-408.83 1090.41,-392.01 1135.23,-381.97"/>
<polygon fill="#63b8ff" stroke="#63b8ff" points="1135.75,-385.44 1144.74,-379.83 1134.21,-378.61 1135.75,-385.44"/>
</g>
<!-- Node78&#45;&gt;Node46 -->
<g id="edge129" class="edge">
<title>Node78&#45;&gt;Node46</title>
<path fill="none" stroke="#63b8ff" d="M964.63,-429.33C1152.17,-419.84 1787.83,-387.64 1998.52,-376.97"/>
<polygon fill="#63b8ff" stroke="#63b8ff" points="1998.69,-380.46 2008.5,-376.46 1998.34,-373.47 1998.69,-380.46"/>
</g>
<!-- Node80&#45;&gt;Node3 -->
<g id="edge135" class="edge">
<title>Node80&#45;&gt;Node3</title>
<path fill="none" stroke="#63b8ff" d="M229.3,-417.64C247.88,-397.38 278,-358.39 278,-318.5 278,-318.5 278,-318.5 278,-201 278,-134.97 285.51,-103.29 340,-66 342.07,-64.58 963.8,-28.21 1131.66,-18.41"/>
<polygon fill="#63b8ff" stroke="#63b8ff" points="1131.65,-21.92 1141.43,-17.84 1131.25,-14.93 1131.65,-21.92"/>
</g>
<!-- Node80&#45;&gt;Node4 -->
<g id="edge136" class="edge">
<title>Node80&#45;&gt;Node4</title>
<path fill="none" stroke="#63b8ff" d="M249.5,-417.54C334.3,-382.67 560.43,-293.87 758,-253 935.61,-216.26 1150.59,-206.52 1253.84,-203.93"/>
<polygon fill="#63b8ff" stroke="#63b8ff" points="1253.84,-207.43 1263.76,-203.7 1253.68,-200.43 1253.84,-207.43"/>
</g>
<!-- Node80&#45;&gt;Node13 -->
<g id="edge134" class="edge">
<title>Node80&#45;&gt;Node13</title>
<path fill="none" stroke="#63b8ff" d="M200.7,-417.64C182.12,-397.38 152,-358.39 152,-318.5 152,-318.5 152,-318.5 152,-261.5 152,-186.41 125.59,-170.71 118,-96 116.65,-82.74 116.19,-79.21 118,-66 119.42,-55.69 122.4,-44.52 125.25,-35.35"/>
<polygon fill="#63b8ff" stroke="#63b8ff" points="128.48,-36.73 128.3,-26.13 121.84,-34.53 128.48,-36.73"/>
</g>
<!-- Node80&#45;&gt;Node46 -->
<g id="edge137" class="edge">
<title>Node80&#45;&gt;Node46</title>
<path fill="none" stroke="#63b8ff" d="M288.29,-429.98C518.29,-423.58 1246.26,-402.97 1849,-382 1899.1,-380.26 1955.68,-378.04 1998.63,-376.31"/>
<polygon fill="#63b8ff" stroke="#63b8ff" points="1998.73,-379.81 2008.58,-375.91 1998.44,-372.82 1998.73,-379.81"/>
</g>
<!-- Node83&#45;&gt;Node3 -->
<g id="edge141" class="edge">
<title>Node83&#45;&gt;Node3</title>
<path fill="none" stroke="#63b8ff" d="M2310.5,-423.02C2326.84,-414.76 2348.91,-400.93 2361,-382 2378.87,-354.03 2393,-332.85 2371,-308 2327.22,-258.55 2141.21,-282.42 2076,-272 2033.05,-265.14 2022.91,-260.08 1980,-253 1919.84,-243.08 1756.3,-254.21 1708,-217 1650.53,-172.73 1704.05,-109.51 1646,-66 1611.81,-40.37 1323.77,-23.5 1214.66,-17.98"/>
<polygon fill="#63b8ff" stroke="#63b8ff" points="1215.14,-14.5 1204.98,-17.5 1214.79,-21.49 1215.14,-14.5"/>
</g>
<!-- Node83&#45;&gt;Node4 -->
<g id="edge142" class="edge">
<title>Node83&#45;&gt;Node4</title>
<path fill="none" stroke="#63b8ff" d="M2300.83,-423.25C2326.41,-401.59 2386.03,-344.54 2353,-308 2352.48,-307.43 1598.61,-231.54 1376.11,-209.15"/>
<polygon fill="#63b8ff" stroke="#63b8ff" points="1376.49,-205.67 1366.19,-208.15 1375.79,-212.63 1376.49,-205.67"/>
</g>
<!-- Node83&#45;&gt;Node46 -->
<g id="edge143" class="edge">
<title>Node83&#45;&gt;Node46</title>
<path fill="none" stroke="#63b8ff" d="M2256.13,-423.12C2217.66,-413.02 2154.7,-396.51 2112.09,-385.33"/>
<polygon fill="#63b8ff" stroke="#63b8ff" points="2113.21,-382 2102.65,-382.85 2111.44,-388.78 2113.21,-382"/>
</g>
<!-- Node84&#45;&gt;Node2 -->
<g id="edge146" class="edge">
<title>Node84&#45;&gt;Node2</title>
<path fill="none" stroke="#63b8ff" d="M1344.86,-679.66C1623.47,-680.05 2697.46,-678.69 2842,-635 2866.08,-627.72 2866.62,-614.28 2890,-605 2965.82,-574.89 3009.11,-623.3 3070,-569 3095.96,-545.85 3094,-529.29 3094,-494.5 3094,-494.5 3094,-494.5 3094,-432 3094,-355.23 3132,-340.27 3132,-263.5 3132,-263.5 3132,-263.5 3132,-140.5 3132,-105.71 3133.69,-89.45 3108,-66 3080.56,-40.95 2973.95,-25.8 2918.67,-19.46"/>
<polygon fill="#63b8ff" stroke="#63b8ff" points="2919.21,-16 2908.88,-18.38 2918.44,-22.96 2919.21,-16"/>
</g>
<!-- Node84&#45;&gt;Node3 -->
<g id="edge147" class="edge">
<title>Node84&#45;&gt;Node3</title>
<path fill="none" stroke="#63b8ff" d="M1213.22,-673.41C1151.57,-666.86 1057.17,-654.65 977,-635 838.7,-601.11 392,-515.9 392,-373.5 392,-373.5 392,-373.5 392,-316.5 392,-202.88 350.89,-132.52 443,-66 450.04,-60.91 978.3,-28 1131.68,-18.54"/>
<polygon fill="#63b8ff" stroke="#63b8ff" points="1131.61,-22.05 1141.38,-17.94 1131.18,-15.06 1131.61,-22.05"/>
</g>
<!-- Node84&#45;&gt;Node4 -->
<g id="edge150" class="edge">
<title>Node84&#45;&gt;Node4</title>
<path fill="none" stroke="#63b8ff" d="M1277.01,-670.63C1265.04,-616.38 1204.39,-329.33 1244,-253 1252.24,-237.13 1268.09,-225.23 1282.72,-217.03"/>
<polygon fill="#63b8ff" stroke="#63b8ff" points="1283.94,-220.34 1291.21,-212.64 1280.72,-214.12 1283.94,-220.34"/>
</g>
<!-- Node84&#45;&gt;Node6 -->
<g id="edge148" class="edge">
<title>Node84&#45;&gt;Node6</title>
<path fill="none" stroke="#63b8ff" d="M1213.23,-676.14C1159.53,-671.55 1082.57,-660.69 1020,-635 998.44,-626.15 998.33,-614.39 977,-605 909.89,-575.47 868.8,-619.88 816,-569 678.53,-436.53 682.45,-175.66 686.57,-101.87"/>
<polygon fill="#63b8ff" stroke="#63b8ff" points="690.05,-102.38 687.19,-92.18 683.06,-101.94 690.05,-102.38"/>
</g>
<!-- Node84&#45;&gt;Node17 -->
<g id="edge149" class="edge">
<title>Node84&#45;&gt;Node17</title>
<path fill="none" stroke="#63b8ff" d="M1271.65,-670.79C1256.05,-651.36 1221,-602.45 1221,-555 1221,-555 1221,-555 1221,-492.5 1221,-454.59 1199.79,-414.51 1185.57,-391.88"/>
<polygon fill="#63b8ff" stroke="#63b8ff" points="1188.51,-389.98 1180.1,-383.53 1182.65,-393.81 1188.51,-389.98"/>
</g>
<!-- Node84&#45;&gt;Node52 -->
<g id="edge152" class="edge">
<title>Node84&#45;&gt;Node52</title>
<path fill="none" stroke="#63b8ff" d="M1286.83,-670.53C1294,-661.93 1304.44,-648.32 1311,-635 1327.39,-601.7 1335,-592.12 1335,-555 1335,-555 1335,-555 1335,-492.5 1335,-423.96 1398.3,-362.11 1431.78,-334.19"/>
<polygon fill="#63b8ff" stroke="#63b8ff" points="1433.61,-337.21 1439.18,-328.19 1429.21,-331.77 1433.61,-337.21"/>
</g>
<!-- Node84&#45;&gt;Node62 -->
<g id="edge151" class="edge">
<title>Node84&#45;&gt;Node62</title>
<path fill="none" stroke="#63b8ff" d="M1250.6,-670.62C1223.68,-662.19 1182.46,-649.3 1148.8,-638.77"/>
<polygon fill="#63b8ff" stroke="#63b8ff" points="1150.19,-635.54 1139.6,-635.89 1148.1,-642.22 1150.19,-635.54"/>
</g>
<!-- Node85&#45;&gt;Node2 -->
<g id="edge154" class="edge">
<title>Node85&#45;&gt;Node2</title>
<path fill="none" stroke="#63b8ff" d="M2585.24,-551.03C2660.75,-546.96 2804.01,-535.11 2842,-503 2892.24,-460.54 2863.1,-423.02 2890,-363 2923.37,-288.55 2980,-284.59 2980,-203 2980,-203 2980,-203 2980,-140.5 2980,-105.71 2976.62,-94.02 2956,-66 2945.07,-51.15 2928.38,-39.07 2913.92,-30.51"/>
<polygon fill="#63b8ff" stroke="#63b8ff" points="2915.66,-27.48 2905.23,-25.65 2912.25,-33.59 2915.66,-27.48"/>
</g>
<!-- Node85&#45;&gt;Node3 -->
<g id="edge155" class="edge">
<title>Node85&#45;&gt;Node3</title>
<path fill="none" stroke="#63b8ff" d="M2537.56,-544.33C2536.71,-531.07 2534.33,-505.1 2528,-484 2500.93,-393.8 2492.41,-353.58 2410,-308 2306.76,-250.9 2261.75,-299.39 2147,-272 2121.84,-266 2117.2,-258.8 2092,-253 1961.56,-222.98 1906.08,-288.61 1793,-217 1726.01,-174.58 1765.51,-107.58 1698,-66 1617.33,-16.31 1323.97,-14.28 1214.54,-15.33"/>
<polygon fill="#63b8ff" stroke="#63b8ff" points="1214.8,-11.83 1204.84,-15.44 1214.88,-18.83 1214.8,-11.83"/>
</g>
<!-- Node85&#45;&gt;Node4 -->
<g id="edge157" class="edge">
<title>Node85&#45;&gt;Node4</title>
<path fill="none" stroke="#63b8ff" d="M2535.11,-544.32C2522.52,-508.01 2468.65,-367.37 2371,-308 2349.2,-294.74 1940.39,-255.59 1915,-253 1718.35,-232.95 1484.82,-215.24 1376.21,-207.35"/>
<polygon fill="#63b8ff" stroke="#63b8ff" points="1376.58,-203.87 1366.35,-206.64 1376.07,-210.85 1376.58,-203.87"/>
</g>
<!-- Node85&#45;&gt;Node57 -->
<g id="edge156" class="edge">
<title>Node85&#45;&gt;Node57</title>
<path fill="none" stroke="#63b8ff" d="M2551.43,-544.23C2564.12,-535.29 2582.83,-520.3 2594,-503 2628.96,-448.83 2642.15,-426.67 2632,-363 2627.95,-337.6 2631.3,-327.03 2614,-308 2600.48,-293.13 2581.11,-283 2562.88,-276.21"/>
<polygon fill="#63b8ff" stroke="#63b8ff" points="2564.06,-272.91 2553.46,-272.99 2561.79,-279.54 2564.06,-272.91"/>
</g>
<!-- Node85&#45;&gt;Node63 -->
<g id="edge158" class="edge">
<title>Node85&#45;&gt;Node63</title>
<path fill="none" stroke="#63b8ff" d="M2490.59,-546.79C2411.97,-536.51 2254.18,-515.86 2162.15,-503.81"/>
<polygon fill="#63b8ff" stroke="#63b8ff" points="2162.86,-500.37 2152.49,-502.55 2161.95,-507.32 2162.86,-500.37"/>
</g>
<!-- Node87 -->
<g id="node49" class="node">
<title>Node87</title>
<g id="a_node49"><a xlink:href="../../d1/d95/particle__hardening__law_8hpp.html" target="_top" xlink:title=" ">
<polygon fill="white" stroke="#666666" points="2654,-877 2518,-877 2518,-836 2654,-836 2654,-877"/>
<text text-anchor="start" x="2526" y="-865" font-family="Helvetica,sans-Serif" font-size="10.00">custom_constitutive</text>
<text text-anchor="start" x="2526" y="-854" font-family="Helvetica,sans-Serif" font-size="10.00">/hardening_laws/particle</text>
<text text-anchor="middle" x="2586" y="-843" font-family="Helvetica,sans-Serif" font-size="10.00">_hardening_law.hpp</text>
</a>
</g>
</g>
<!-- Node86&#45;&gt;Node87 -->
<g id="edge160" class="edge">
<title>Node86&#45;&gt;Node87</title>
<path fill="none" stroke="#63b8ff" d="M2510.33,-912.6C2522.32,-903.87 2536.57,-893.49 2549.45,-884.11"/>
<polygon fill="#63b8ff" stroke="#63b8ff" points="2551.29,-887.1 2557.32,-878.39 2547.17,-881.44 2551.29,-887.1"/>
</g>
<!-- Node87&#45;&gt;Node2 -->
<g id="edge161" class="edge">
<title>Node87&#45;&gt;Node2</title>
<path fill="none" stroke="#63b8ff" d="M2654.45,-851.98C2823.29,-841.43 3246,-802.89 3246,-681.5 3246,-681.5 3246,-681.5 3246,-140.5 3246,-99.34 3226.12,-87.46 3191,-66 3145.62,-38.28 2988.03,-23.56 2918.45,-18.29"/>
<polygon fill="#63b8ff" stroke="#63b8ff" points="2919.04,-14.83 2908.81,-17.58 2918.53,-21.81 2919.04,-14.83"/>
</g>
<!-- Node87&#45;&gt;Node3 -->
<g id="edge162" class="edge">
<title>Node87&#45;&gt;Node3</title>
<path fill="none" stroke="#63b8ff" d="M2654.18,-849.04C2766.95,-836.45 2980,-803.76 2980,-736.5 2980,-736.5 2980,-736.5 2980,-371.5 2980,-316.05 2777.76,-254.88 2343,-132 2220.8,-97.46 2190.67,-84.29 2065,-66 1739.78,-18.66 1341.85,-15.43 1214.36,-15.73"/>
<polygon fill="#63b8ff" stroke="#63b8ff" points="1214.73,-12.22 1204.74,-15.76 1214.75,-19.22 1214.73,-12.22"/>
</g>
<!-- Node87&#45;&gt;Node4 -->
<g id="edge163" class="edge">
<title>Node87&#45;&gt;Node4</title>
<path fill="none" stroke="#63b8ff" d="M2523.44,-835.59C2475.9,-820.5 2408.87,-799.31 2350,-781 2042.85,-685.47 1946.52,-711.21 1658,-569 1538.9,-510.3 1516.45,-478.27 1425,-382 1401.83,-357.61 1391.92,-354.81 1373,-327 1349.79,-292.89 1331.39,-248.02 1321.95,-222.67"/>
<polygon fill="#63b8ff" stroke="#63b8ff" points="1325.26,-221.56 1318.56,-213.35 1318.68,-223.94 1325.26,-221.56"/>
</g>
<!-- Node87&#45;&gt;Node16 -->
<g id="edge164" class="edge">
<title>Node87&#45;&gt;Node16</title>
<path fill="none" stroke="#63b8ff" d="M2517.55,-841.14C2462.36,-829.56 2385.81,-813.49 2334.91,-802.81"/>
<polygon fill="#63b8ff" stroke="#63b8ff" points="2335.81,-799.42 2325.3,-800.8 2334.37,-806.28 2335.81,-799.42"/>
</g>
<!-- Node87&#45;&gt;Node57 -->
<g id="edge165" class="edge">
<title>Node87&#45;&gt;Node57</title>
<path fill="none" stroke="#63b8ff" d="M2621.96,-835.53C2653.38,-815.14 2694,-780.3 2694,-736.5 2694,-736.5 2694,-736.5 2694,-432 2694,-370.78 2679.42,-349.05 2634,-308 2616.91,-292.55 2594.02,-282.35 2572.69,-275.66"/>
<polygon fill="#63b8ff" stroke="#63b8ff" points="2573.75,-272.32 2563.17,-272.9 2571.8,-279.04 2573.75,-272.32"/>
</g>
<!-- Node88&#45;&gt;Node2 -->
<g id="edge167" class="edge">
<title>Node88&#45;&gt;Node2</title>
<path fill="none" stroke="#63b8ff" d="M2226.94,-619.43C2390.25,-619.64 2792.36,-615.28 2918,-569 2970.01,-549.84 3018,-549.92 3018,-494.5 3018,-494.5 3018,-494.5 3018,-432 3018,-355.23 3056,-340.27 3056,-263.5 3056,-263.5 3056,-263.5 3056,-140.5 3056,-105.71 3056.4,-90.8 3032,-66 3001.78,-35.28 2951.97,-23.43 2918.83,-18.86"/>
<polygon fill="#63b8ff" stroke="#63b8ff" points="2919.29,-15.39 2908.95,-17.67 2918.45,-22.34 2919.29,-15.39"/>
</g>
<!-- Node88&#45;&gt;Node4 -->
<g id="edge168" class="edge">
<title>Node88&#45;&gt;Node4</title>
<path fill="none" stroke="#63b8ff" d="M2087.23,-615.42C1981.06,-609.25 1784.35,-594.7 1719,-569 1634.7,-535.85 1451.46,-394.45 1391,-327 1365.61,-298.67 1368.04,-285.33 1348,-253 1341.39,-242.34 1333.68,-230.62 1327.38,-221.22"/>
<polygon fill="#63b8ff" stroke="#63b8ff" points="1330.34,-219.34 1321.84,-213.01 1324.54,-223.25 1330.34,-219.34"/>
</g>
<!-- Node88&#45;&gt;Node24 -->
<g id="edge172" class="edge">
<title>Node88&#45;&gt;Node24</title>
<path fill="none" stroke="#63b8ff" d="M2160.09,-610.33C2167.6,-587.69 2184.43,-525.66 2160,-484 2126.27,-426.49 1934.35,-358.46 1850.36,-330.96"/>
<polygon fill="#63b8ff" stroke="#63b8ff" points="1851.52,-327.66 1840.93,-327.9 1849.36,-334.31 1851.52,-327.66"/>
</g>
<!-- Node88&#45;&gt;Node28 -->
<g id="edge171" class="edge">
<title>Node88&#45;&gt;Node28</title>
<path fill="none" stroke="#63b8ff" d="M2181.19,-610.13C2234.71,-589.42 2364.49,-533.11 2442,-448 2482.15,-403.91 2486.78,-385.15 2500,-327 2501.87,-318.77 2505.47,-314.44 2500,-308 2476.1,-279.88 2382.26,-269.49 2311.43,-265.67"/>
<polygon fill="#63b8ff" stroke="#63b8ff" points="2311.95,-262.19 2301.78,-265.19 2311.6,-269.19 2311.95,-262.19"/>
</g>
<!-- Node88&#45;&gt;Node63 -->
<g id="edge169" class="edge">
<title>Node88&#45;&gt;Node63</title>
<path fill="none" stroke="#63b8ff" d="M2152.25,-610.05C2141.55,-589.86 2115.35,-540.43 2100.92,-513.22"/>
<polygon fill="#63b8ff" stroke="#63b8ff" points="2104.19,-511.91 2096.41,-504.71 2098,-515.18 2104.19,-511.91"/>
</g>
<!-- Node88&#45;&gt;Node66 -->
<g id="edge170" class="edge">
<title>Node88&#45;&gt;Node66</title>
<path fill="none" stroke="#63b8ff" d="M2108.39,-610.03C2045.88,-598.51 1937.37,-578.49 1869.85,-566.04"/>
<polygon fill="#63b8ff" stroke="#63b8ff" points="1870.52,-562.6 1860.05,-564.23 1869.25,-569.49 1870.52,-562.6"/>
</g>
</g>
</svg>
