<?xml version="1.0" encoding="UTF-8" standalone="no"?>
<!DOCTYPE svg PUBLIC "-//W3C//DTD SVG 1.1//EN"
 "http://www.w3.org/Graphics/SVG/1.1/DTD/svg11.dtd">
<!-- Generated by graphviz version 7.1.0 (0)
 -->
<!-- Title: Core Pages: 1 -->
<svg width="340pt" height="211pt"
 viewBox="0.00 0.00 340.00 210.50" xmlns="http://www.w3.org/2000/svg" xmlns:xlink="http://www.w3.org/1999/xlink">
<g id="graph0" class="graph" transform="scale(1 1) rotate(0) translate(4 206.5)">
<title>Core</title>
<!-- Node3 -->
<g id="node1" class="node">
<title>Node3</title>
<g id="a_node1"><a xlink:href="../../d2/d72/group___fluid_dynamics_application.html" target="_top" xlink:title="Basic set of CFD tools. The aim of the Fluid Dynamics Application is to implement a basic set of tool...">
<polygon fill="white" stroke="#666666" points="332,-195 182,-195 182,-176 332,-176 332,-195"/>
<text text-anchor="middle" x="257" y="-183" font-family="Helvetica,sans-Serif" font-size="10.00">Fluid Dynamics Application</text>
</a>
</g>
</g>
<!-- Node1 -->
<g id="node2" class="node">
<title>Node1</title>
<g id="a_node2"><a xlink:title=" ">
<polygon fill="#999999" stroke="#666666" points="39,-93 0,-93 0,-74 39,-74 39,-93"/>
<text text-anchor="middle" x="19.5" y="-81" font-family="Helvetica,sans-Serif" font-size="10.00">Core</text>
</a>
</g>
</g>
<!-- Node1&#45;&gt;Node3 -->
<g id="edge2" class="edge">
<title>Node1&#45;&gt;Node3</title>
<path fill="none" stroke="orange" stroke-dasharray="5,2" d="M22.09,-93.46C25.35,-110.31 34.47,-144.19 57,-160.5 92.54,-186.23 141.3,-192.68 181.66,-192.61"/>
<text text-anchor="middle" x="110.5" y="-194.5" font-family="Helvetica,sans-Serif" font-size="10.00">KRATOS_API</text>
</g>
<!-- Node2 -->
<g id="node3" class="node">
<title>Node2</title>
<g id="a_node3"><a xlink:href="../../d5/d4d/group___kratos_core.html" target="_top" xlink:title="The Kratos core comprises a basic set of classes used by all applications.">
<polygon fill="white" stroke="#666666" points="294,-130 220,-130 220,-111 294,-111 294,-130"/>
<text text-anchor="middle" x="257" y="-118" font-family="Helvetica,sans-Serif" font-size="10.00">Kratos Core</text>
</a>
</g>
</g>
<!-- Node1&#45;&gt;Node2 -->
<g id="edge1" class="edge">
<title>Node1&#45;&gt;Node2</title>
<path fill="none" stroke="orange" stroke-dasharray="5,2" d="M39.2,-91.06C44.85,-93.09 51.11,-95.11 57,-96.5 112.89,-109.65 179.4,-115.82 219.63,-118.54"/>
<text text-anchor="middle" x="110.5" y="-148.5" font-family="Helvetica,sans-Serif" font-size="10.00">Kratos::FNV1a32Hash</text>
<text text-anchor="middle" x="110.5" y="-137.5" font-family="Helvetica,sans-Serif" font-size="10.00">Kratos::FNV1a64Hash</text>
<text text-anchor="middle" x="110.5" y="-126.5" font-family="Helvetica,sans-Serif" font-size="10.00">Kratos::Table</text>
<text text-anchor="middle" x="110.5" y="-115.5" font-family="Helvetica,sans-Serif" font-size="10.00">KRATOS_API</text>
</g>
<!-- Node4 -->
<g id="node4" class="node">
<title>Node4</title>
<g id="a_node4"><a xlink:href="../../d6/dc3/group___r_a_n_s_application.html" target="_top" xlink:title=" ">
<polygon fill="white" stroke="#666666" points="306.5,-93 207.5,-93 207.5,-74 306.5,-74 306.5,-93"/>
<text text-anchor="middle" x="257" y="-81" font-family="Helvetica,sans-Serif" font-size="10.00">RANSApplication</text>
</a>
</g>
</g>
<!-- Node1&#45;&gt;Node4 -->
<g id="edge3" class="edge">
<title>Node1&#45;&gt;Node4</title>
<path fill="none" stroke="orange" stroke-dasharray="5,2" d="M39.37,-83.5C75.5,-83.5 155.45,-83.5 207.47,-83.5"/>
<text text-anchor="middle" x="110.5" y="-86.5" font-family="Helvetica,sans-Serif" font-size="10.00">KRATOS_API</text>
</g>
<!-- Node5 -->
<g id="node5" class="node">
<title>Node5</title>
<g id="a_node5"><a xlink:href="../../db/d95/group___r_a_n_s_modelling_application.html" target="_top" xlink:title=" ">
<polygon fill="white" stroke="#666666" points="330,-56 184,-56 184,-37 330,-37 330,-56"/>
<text text-anchor="middle" x="257" y="-44" font-family="Helvetica,sans-Serif" font-size="10.00">RANSModellingApplication</text>
</a>
</g>
</g>
<!-- Node1&#45;&gt;Node5 -->
<g id="edge4" class="edge">
<title>Node1&#45;&gt;Node5</title>
<path fill="none" stroke="orange" stroke-dasharray="5,2" d="M39.48,-74.53C45.02,-72.23 51.16,-69.99 57,-68.5 98.26,-57.97 145.6,-52.47 183.75,-49.61"/>
<text text-anchor="middle" x="110.5" y="-71.5" font-family="Helvetica,sans-Serif" font-size="10.00">KRATOS_API</text>
</g>
<!-- Node6 -->
<g id="node6" class="node">
<title>Node6</title>
<g id="a_node6"><a xlink:href="../../da/d02/group___swimming_d_e_m_application.html" target="_top" xlink:title=" ">
<polygon fill="white" stroke="#666666" points="330,-19 184,-19 184,0 330,0 330,-19"/>
<text text-anchor="middle" x="257" y="-7" font-family="Helvetica,sans-Serif" font-size="10.00">SwimmingDEMApplication</text>
</a>
</g>
</g>
<!-- Node1&#45;&gt;Node6 -->
<g id="edge5" class="edge">
<title>Node1&#45;&gt;Node6</title>
<path fill="none" stroke="orange" stroke-dasharray="5,2" d="M25.14,-73.73C30.94,-62.7 41.96,-45.16 57,-36.5 95.06,-14.57 143.87,-7.69 183.62,-6.35"/>
<text text-anchor="middle" x="110.5" y="-39.5" font-family="Helvetica,sans-Serif" font-size="10.00">KRATOS_API</text>
</g>
</g>
</svg>
