<?xml version="1.0" encoding="UTF-8" standalone="no"?>
<!DOCTYPE svg PUBLIC "-//W3C//DTD SVG 1.1//EN"
 "http://www.w3.org/Graphics/SVG/1.1/DTD/svg11.dtd">
<!-- Generated by graphviz version 2.43.0 (0)
 -->
<!-- Title: /home/runner/work/Documentation/Documentation/master/applications/ConvectionDiffusionApplication/custom_elements/adjoint_diffusion_element.h Pages: 1 -->
<svg width="3196pt" height="361pt"
 viewBox="0.00 0.00 3195.50 361.00" xmlns="http://www.w3.org/2000/svg" xmlns:xlink="http://www.w3.org/1999/xlink">
<g id="graph0" class="graph" transform="scale(1 1) rotate(0) translate(4 357)">
<title>/home/runner/work/Documentation/Documentation/master/applications/ConvectionDiffusionApplication/custom_elements/adjoint_diffusion_element.h</title>
<!-- Node1 -->
<g id="node1" class="node">
<title>Node1</title>
<g id="a_node1"><a xlink:title=" ">
<polygon fill="#bfbfbf" stroke="black" points="1403.5,-300.5 1403.5,-352.5 1648.5,-352.5 1648.5,-300.5 1403.5,-300.5"/>
<text text-anchor="start" x="1411.5" y="-340.5" font-family="Helvetica,sans-Serif" font-size="10.00">/home/runner/work/Documentation</text>
<text text-anchor="start" x="1411.5" y="-329.5" font-family="Helvetica,sans-Serif" font-size="10.00">/Documentation/master/applications</text>
<text text-anchor="start" x="1411.5" y="-318.5" font-family="Helvetica,sans-Serif" font-size="10.00">/ConvectionDiffusionApplication</text>
<text text-anchor="middle" x="1526" y="-307.5" font-family="Helvetica,sans-Serif" font-size="10.00">/custom_elements/adjoint_diffusion_element.h</text>
</a>
</g>
</g>
<!-- Node2 -->
<g id="node2" class="node">
<title>Node2</title>
<g id="a_node2"><a xlink:href="../../df/d7e/convection__diffusion__application_8h.html" target="_top" xlink:title=" ">
<polygon fill="none" stroke="black" points="1323,-206 1323,-258 1517,-258 1517,-206 1323,-206"/>
<text text-anchor="start" x="1331" y="-246" font-family="Helvetica,sans-Serif" font-size="10.00">/home/runner/work/Documentation</text>
<text text-anchor="start" x="1331" y="-235" font-family="Helvetica,sans-Serif" font-size="10.00">/Documentation/master/applications</text>
<text text-anchor="start" x="1331" y="-224" font-family="Helvetica,sans-Serif" font-size="10.00">/ConvectionDiffusionApplication</text>
<text text-anchor="middle" x="1420" y="-213" font-family="Helvetica,sans-Serif" font-size="10.00">/convection_diffusion_application.h</text>
</a>
</g>
</g>
<!-- Node1&#45;&gt;Node2 -->
<g id="edge1" class="edge">
<title>Node1&#45;&gt;Node2</title>
<path fill="none" stroke="midnightblue" d="M1489.65,-293.78C1476.27,-282.11 1461.32,-269.06 1448.71,-258.05"/>
<polygon fill="midnightblue" stroke="midnightblue" points="1487.48,-296.53 1497.31,-300.47 1492.08,-291.26 1487.48,-296.53"/>
</g>
<!-- Node19 -->
<g id="node19" class="node">
<title>Node19</title>
<g id="a_node19"><a xlink:href="../../dd/d22/adjoint__diffusion__element_8cpp.html" target="_top" xlink:title=" ">
<polygon fill="none" stroke="black" points="1535,-200.5 1535,-263.5 1729,-263.5 1729,-200.5 1535,-200.5"/>
<text text-anchor="start" x="1543" y="-251.5" font-family="Helvetica,sans-Serif" font-size="10.00">/home/runner/work/Documentation</text>
<text text-anchor="start" x="1543" y="-240.5" font-family="Helvetica,sans-Serif" font-size="10.00">/Documentation/master/applications</text>
<text text-anchor="start" x="1543" y="-229.5" font-family="Helvetica,sans-Serif" font-size="10.00">/ConvectionDiffusionApplication</text>
<text text-anchor="start" x="1543" y="-218.5" font-family="Helvetica,sans-Serif" font-size="10.00">/custom_elements/adjoint_diffusion</text>
<text text-anchor="middle" x="1632" y="-207.5" font-family="Helvetica,sans-Serif" font-size="10.00">_element.cpp</text>
</a>
</g>
</g>
<!-- Node1&#45;&gt;Node19 -->
<g id="edge25" class="edge">
<title>Node1&#45;&gt;Node19</title>
<path fill="none" stroke="midnightblue" d="M1562.23,-293.88C1573.43,-284.11 1585.74,-273.37 1596.86,-263.66"/>
<polygon fill="midnightblue" stroke="midnightblue" points="1559.92,-291.26 1554.69,-300.47 1564.52,-296.53 1559.92,-291.26"/>
</g>
<!-- Node3 -->
<g id="node3" class="node">
<title>Node3</title>
<g id="a_node3"><a xlink:href="../../db/d5a/convection__diffusion__application_8cpp.html" target="_top" xlink:title=" ">
<polygon fill="none" stroke="black" points="0,-106 0,-158 200,-158 200,-106 0,-106"/>
<text text-anchor="start" x="8" y="-146" font-family="Helvetica,sans-Serif" font-size="10.00">/home/runner/work/Documentation</text>
<text text-anchor="start" x="8" y="-135" font-family="Helvetica,sans-Serif" font-size="10.00">/Documentation/master/applications</text>
<text text-anchor="start" x="8" y="-124" font-family="Helvetica,sans-Serif" font-size="10.00">/ConvectionDiffusionApplication</text>
<text text-anchor="middle" x="100" y="-113" font-family="Helvetica,sans-Serif" font-size="10.00">/convection_diffusion_application.cpp</text>
</a>
</g>
</g>
<!-- Node2&#45;&gt;Node3 -->
<g id="edge2" class="edge">
<title>Node2&#45;&gt;Node3</title>
<path fill="none" stroke="midnightblue" d="M1312.55,-228.11C1057.21,-220.75 419.69,-199.34 209,-164 199.69,-162.44 190.03,-160.37 180.5,-158.05"/>
<polygon fill="midnightblue" stroke="midnightblue" points="1312.49,-231.61 1322.58,-228.4 1312.69,-224.61 1312.49,-231.61"/>
</g>
<!-- Node4 -->
<g id="node4" class="node">
<title>Node4</title>
<g id="a_node4"><a xlink:href="../../d6/d57/conv__diff__2d_8cpp.html" target="_top" xlink:title=" ">
<polygon fill="none" stroke="black" points="218,-106 218,-158 412,-158 412,-106 218,-106"/>
<text text-anchor="start" x="226" y="-146" font-family="Helvetica,sans-Serif" font-size="10.00">/home/runner/work/Documentation</text>
<text text-anchor="start" x="226" y="-135" font-family="Helvetica,sans-Serif" font-size="10.00">/Documentation/master/applications</text>
<text text-anchor="start" x="226" y="-124" font-family="Helvetica,sans-Serif" font-size="10.00">/ConvectionDiffusionApplication</text>
<text text-anchor="middle" x="315" y="-113" font-family="Helvetica,sans-Serif" font-size="10.00">/custom_elements/conv_diff_2d.cpp</text>
</a>
</g>
</g>
<!-- Node2&#45;&gt;Node4 -->
<g id="edge3" class="edge">
<title>Node2&#45;&gt;Node4</title>
<path fill="none" stroke="midnightblue" d="M1312.5,-231.42C1128.46,-230.43 741.83,-220.97 421,-164 412.03,-162.41 402.74,-160.34 393.56,-158.03"/>
<polygon fill="midnightblue" stroke="midnightblue" points="1312.7,-234.92 1322.72,-231.46 1312.73,-227.92 1312.7,-234.92"/>
</g>
<!-- Node5 -->
<g id="node5" class="node">
<title>Node5</title>
<g id="a_node5"><a xlink:href="../../d8/d2f/conv__diff__3d_8cpp.html" target="_top" xlink:title=" ">
<polygon fill="none" stroke="black" points="430,-106 430,-158 624,-158 624,-106 430,-106"/>
<text text-anchor="start" x="438" y="-146" font-family="Helvetica,sans-Serif" font-size="10.00">/home/runner/work/Documentation</text>
<text text-anchor="start" x="438" y="-135" font-family="Helvetica,sans-Serif" font-size="10.00">/Documentation/master/applications</text>
<text text-anchor="start" x="438" y="-124" font-family="Helvetica,sans-Serif" font-size="10.00">/ConvectionDiffusionApplication</text>
<text text-anchor="middle" x="527" y="-113" font-family="Helvetica,sans-Serif" font-size="10.00">/custom_elements/conv_diff_3d.cpp</text>
</a>
</g>
</g>
<!-- Node2&#45;&gt;Node5 -->
<g id="edge4" class="edge">
<title>Node2&#45;&gt;Node5</title>
<path fill="none" stroke="midnightblue" d="M1312.56,-228.63C1160.2,-223.74 873.14,-208.87 633,-164 624.24,-162.36 615.16,-160.3 606.17,-158.01"/>
<polygon fill="midnightblue" stroke="midnightblue" points="1312.75,-232.14 1322.85,-228.95 1312.96,-225.14 1312.75,-232.14"/>
</g>
<!-- Node6 -->
<g id="node6" class="node">
<title>Node6</title>
<g id="a_node6"><a xlink:href="../../da/d93/conv__diff__change__of__phase__2d_8cpp.html" target="_top" xlink:title=" ">
<polygon fill="none" stroke="black" points="642,-100.5 642,-163.5 836,-163.5 836,-100.5 642,-100.5"/>
<text text-anchor="start" x="650" y="-151.5" font-family="Helvetica,sans-Serif" font-size="10.00">/home/runner/work/Documentation</text>
<text text-anchor="start" x="650" y="-140.5" font-family="Helvetica,sans-Serif" font-size="10.00">/Documentation/master/applications</text>
<text text-anchor="start" x="650" y="-129.5" font-family="Helvetica,sans-Serif" font-size="10.00">/ConvectionDiffusionApplication</text>
<text text-anchor="start" x="650" y="-118.5" font-family="Helvetica,sans-Serif" font-size="10.00">/custom_elements/conv_diff_change</text>
<text text-anchor="middle" x="739" y="-107.5" font-family="Helvetica,sans-Serif" font-size="10.00">_of_phase_2d.cpp</text>
</a>
</g>
</g>
<!-- Node2&#45;&gt;Node6 -->
<g id="edge5" class="edge">
<title>Node2&#45;&gt;Node6</title>
<path fill="none" stroke="midnightblue" d="M1312.51,-223.91C1196.35,-214.99 1006.22,-196.72 845,-164 842.09,-163.41 839.14,-162.78 836.17,-162.11"/>
<polygon fill="midnightblue" stroke="midnightblue" points="1312.58,-227.43 1322.82,-224.69 1313.11,-220.45 1312.58,-227.43"/>
</g>
<!-- Node7 -->
<g id="node7" class="node">
<title>Node7</title>
<g id="a_node7"><a xlink:href="../../d3/dce/eulerian__conv__diff_8cpp.html" target="_top" xlink:title=" ">
<polygon fill="none" stroke="black" points="854.5,-106 854.5,-158 1073.5,-158 1073.5,-106 854.5,-106"/>
<text text-anchor="start" x="862.5" y="-146" font-family="Helvetica,sans-Serif" font-size="10.00">/home/runner/work/Documentation</text>
<text text-anchor="start" x="862.5" y="-135" font-family="Helvetica,sans-Serif" font-size="10.00">/Documentation/master/applications</text>
<text text-anchor="start" x="862.5" y="-124" font-family="Helvetica,sans-Serif" font-size="10.00">/ConvectionDiffusionApplication</text>
<text text-anchor="middle" x="964" y="-113" font-family="Helvetica,sans-Serif" font-size="10.00">/custom_elements/eulerian_conv_diff.cpp</text>
</a>
</g>
</g>
<!-- Node2&#45;&gt;Node7 -->
<g id="edge6" class="edge">
<title>Node2&#45;&gt;Node7</title>
<path fill="none" stroke="midnightblue" d="M1312.66,-211.32C1246.28,-198.74 1159.46,-181.54 1083,-164 1074.88,-162.14 1066.48,-160.12 1058.06,-158.05"/>
<polygon fill="midnightblue" stroke="midnightblue" points="1312.24,-214.8 1322.71,-213.22 1313.54,-207.93 1312.24,-214.8"/>
</g>
<!-- Node8 -->
<g id="node8" class="node">
<title>Node8</title>
<g id="a_node8"><a xlink:href="../../d8/d22/eulerian__diff_8h.html" target="_top" xlink:title=" ">
<polygon fill="none" stroke="black" points="1092,-106 1092,-158 1286,-158 1286,-106 1092,-106"/>
<text text-anchor="start" x="1100" y="-146" font-family="Helvetica,sans-Serif" font-size="10.00">/home/runner/work/Documentation</text>
<text text-anchor="start" x="1100" y="-135" font-family="Helvetica,sans-Serif" font-size="10.00">/Documentation/master/applications</text>
<text text-anchor="start" x="1100" y="-124" font-family="Helvetica,sans-Serif" font-size="10.00">/ConvectionDiffusionApplication</text>
<text text-anchor="middle" x="1189" y="-113" font-family="Helvetica,sans-Serif" font-size="10.00">/custom_elements/eulerian_diff.h</text>
</a>
</g>
</g>
<!-- Node2&#45;&gt;Node8 -->
<g id="edge7" class="edge">
<title>Node2&#45;&gt;Node8</title>
<path fill="none" stroke="midnightblue" d="M1345.48,-202.02C1311.77,-188.05 1272.74,-171.46 1242.06,-158.04"/>
<polygon fill="midnightblue" stroke="midnightblue" points="1344.25,-205.31 1354.83,-205.89 1346.93,-198.84 1344.25,-205.31"/>
</g>
<!-- Node9 -->
<g id="node9" class="node">
<title>Node9</title>
<g id="a_node9"><a xlink:href="../../d3/d97/residualbased__convdiff__strategy_8h.html" target="_top" xlink:title=" ">
<polygon fill="none" stroke="black" points="1303.5,-100.5 1303.5,-163.5 1536.5,-163.5 1536.5,-100.5 1303.5,-100.5"/>
<text text-anchor="start" x="1311.5" y="-151.5" font-family="Helvetica,sans-Serif" font-size="10.00">/home/runner/work/Documentation</text>
<text text-anchor="start" x="1311.5" y="-140.5" font-family="Helvetica,sans-Serif" font-size="10.00">/Documentation/master/applications</text>
<text text-anchor="start" x="1311.5" y="-129.5" font-family="Helvetica,sans-Serif" font-size="10.00">/ConvectionDiffusionApplication</text>
<text text-anchor="start" x="1311.5" y="-118.5" font-family="Helvetica,sans-Serif" font-size="10.00">/custom_strategies/strategies/residualbased</text>
<text text-anchor="middle" x="1420" y="-107.5" font-family="Helvetica,sans-Serif" font-size="10.00">_convdiff_strategy.h</text>
</a>
</g>
</g>
<!-- Node2&#45;&gt;Node9 -->
<g id="edge9" class="edge">
<title>Node2&#45;&gt;Node9</title>
<path fill="none" stroke="midnightblue" d="M1420,-195.69C1420,-185.24 1420,-173.89 1420,-163.75"/>
<polygon fill="midnightblue" stroke="midnightblue" points="1416.5,-195.76 1420,-205.76 1423.5,-195.76 1416.5,-195.76"/>
</g>
<!-- Node11 -->
<g id="node11" class="node">
<title>Node11</title>
<g id="a_node11"><a xlink:href="../../d4/de9/residualbased__convdiff__strategy__nonlinear_8h.html" target="_top" xlink:title=" ">
<polygon fill="none" stroke="black" points="1554.5,-100.5 1554.5,-163.5 1787.5,-163.5 1787.5,-100.5 1554.5,-100.5"/>
<text text-anchor="start" x="1562.5" y="-151.5" font-family="Helvetica,sans-Serif" font-size="10.00">/home/runner/work/Documentation</text>
<text text-anchor="start" x="1562.5" y="-140.5" font-family="Helvetica,sans-Serif" font-size="10.00">/Documentation/master/applications</text>
<text text-anchor="start" x="1562.5" y="-129.5" font-family="Helvetica,sans-Serif" font-size="10.00">/ConvectionDiffusionApplication</text>
<text text-anchor="start" x="1562.5" y="-118.5" font-family="Helvetica,sans-Serif" font-size="10.00">/custom_strategies/strategies/residualbased</text>
<text text-anchor="middle" x="1671" y="-107.5" font-family="Helvetica,sans-Serif" font-size="10.00">_convdiff_strategy_nonlinear.h</text>
</a>
</g>
</g>
<!-- Node2&#45;&gt;Node11 -->
<g id="edge11" class="edge">
<title>Node2&#45;&gt;Node11</title>
<path fill="none" stroke="midnightblue" d="M1493.77,-202.2C1524.82,-190.08 1560.98,-175.96 1592.51,-163.64"/>
<polygon fill="midnightblue" stroke="midnightblue" points="1492.35,-198.99 1484.31,-205.89 1494.9,-205.51 1492.35,-198.99"/>
</g>
<!-- Node12 -->
<g id="node12" class="node">
<title>Node12</title>
<g id="a_node12"><a xlink:href="../../d2/dff/residualbased__eulerian__convdiff__strategy_8h.html" target="_top" xlink:title=" ">
<polygon fill="none" stroke="black" points="1805.5,-100.5 1805.5,-163.5 2038.5,-163.5 2038.5,-100.5 1805.5,-100.5"/>
<text text-anchor="start" x="1813.5" y="-151.5" font-family="Helvetica,sans-Serif" font-size="10.00">/home/runner/work/Documentation</text>
<text text-anchor="start" x="1813.5" y="-140.5" font-family="Helvetica,sans-Serif" font-size="10.00">/Documentation/master/applications</text>
<text text-anchor="start" x="1813.5" y="-129.5" font-family="Helvetica,sans-Serif" font-size="10.00">/ConvectionDiffusionApplication</text>
<text text-anchor="start" x="1813.5" y="-118.5" font-family="Helvetica,sans-Serif" font-size="10.00">/custom_strategies/strategies/residualbased</text>
<text text-anchor="middle" x="1922" y="-107.5" font-family="Helvetica,sans-Serif" font-size="10.00">_eulerian_convdiff_strategy.h</text>
</a>
</g>
</g>
<!-- Node2&#45;&gt;Node12 -->
<g id="edge13" class="edge">
<title>Node2&#45;&gt;Node12</title>
<path fill="none" stroke="midnightblue" d="M1510.84,-203.47C1515.95,-202.22 1521.03,-201.05 1526,-200 1644.44,-174.94 1677.05,-186.49 1796,-164 1799.1,-163.41 1802.24,-162.8 1805.4,-162.16"/>
<polygon fill="midnightblue" stroke="midnightblue" points="1509.83,-200.11 1500.99,-205.95 1511.54,-206.9 1509.83,-200.11"/>
</g>
<!-- Node13 -->
<g id="node13" class="node">
<title>Node13</title>
<g id="a_node13"><a xlink:href="../../d0/d42/residualbased__semi__eulerian__convdiff__strategy_8h.html" target="_top" xlink:title=" ">
<polygon fill="none" stroke="black" points="2056.5,-100.5 2056.5,-163.5 2289.5,-163.5 2289.5,-100.5 2056.5,-100.5"/>
<text text-anchor="start" x="2064.5" y="-151.5" font-family="Helvetica,sans-Serif" font-size="10.00">/home/runner/work/Documentation</text>
<text text-anchor="start" x="2064.5" y="-140.5" font-family="Helvetica,sans-Serif" font-size="10.00">/Documentation/master/applications</text>
<text text-anchor="start" x="2064.5" y="-129.5" font-family="Helvetica,sans-Serif" font-size="10.00">/ConvectionDiffusionApplication</text>
<text text-anchor="start" x="2064.5" y="-118.5" font-family="Helvetica,sans-Serif" font-size="10.00">/custom_strategies/strategies/residualbased</text>
<text text-anchor="middle" x="2173" y="-107.5" font-family="Helvetica,sans-Serif" font-size="10.00">_semi_eulerian_convdiff_strategy.h</text>
</a>
</g>
</g>
<!-- Node2&#45;&gt;Node13 -->
<g id="edge15" class="edge">
<title>Node2&#45;&gt;Node13</title>
<path fill="none" stroke="midnightblue" d="M1508.49,-203.6C1514.38,-202.25 1520.26,-201.03 1526,-200 1754.49,-159.19 1817.68,-199.86 2047,-164 2050.12,-163.51 2053.27,-162.99 2056.44,-162.43"/>
<polygon fill="midnightblue" stroke="midnightblue" points="1507.47,-200.24 1498.56,-205.99 1509.11,-207.05 1507.47,-200.24"/>
</g>
<!-- Node14 -->
<g id="node14" class="node">
<title>Node14</title>
<g id="a_node14"><a xlink:href="../../d7/d10/face__heat__utilities_8h.html" target="_top" xlink:title=" ">
<polygon fill="none" stroke="black" points="2308,-106 2308,-158 2508,-158 2508,-106 2308,-106"/>
<text text-anchor="start" x="2316" y="-146" font-family="Helvetica,sans-Serif" font-size="10.00">/home/runner/work/Documentation</text>
<text text-anchor="start" x="2316" y="-135" font-family="Helvetica,sans-Serif" font-size="10.00">/Documentation/master/applications</text>
<text text-anchor="start" x="2316" y="-124" font-family="Helvetica,sans-Serif" font-size="10.00">/ConvectionDiffusionApplication</text>
<text text-anchor="middle" x="2408" y="-113" font-family="Helvetica,sans-Serif" font-size="10.00">/custom_utilities/face_heat_utilities.h</text>
</a>
</g>
</g>
<!-- Node2&#45;&gt;Node14 -->
<g id="edge17" class="edge">
<title>Node2&#45;&gt;Node14</title>
<path fill="none" stroke="midnightblue" d="M1508.09,-203.53C1514.11,-202.18 1520.12,-200.98 1526,-200 1864.79,-143.39 1958.94,-218.94 2298,-164 2307.5,-162.46 2317.35,-160.39 2327.07,-158.05"/>
<polygon fill="midnightblue" stroke="midnightblue" points="1506.87,-200.22 1497.95,-205.94 1508.49,-207.03 1506.87,-200.22"/>
</g>
<!-- Node16 -->
<g id="node16" class="node">
<title>Node16</title>
<g id="a_node16"><a xlink:href="../../d5/d06/move__particle__utility_8h.html" target="_top" xlink:title=" ">
<polygon fill="none" stroke="black" points="2526,-106 2526,-158 2738,-158 2738,-106 2526,-106"/>
<text text-anchor="start" x="2534" y="-146" font-family="Helvetica,sans-Serif" font-size="10.00">/home/runner/work/Documentation</text>
<text text-anchor="start" x="2534" y="-135" font-family="Helvetica,sans-Serif" font-size="10.00">/Documentation/master/applications</text>
<text text-anchor="start" x="2534" y="-124" font-family="Helvetica,sans-Serif" font-size="10.00">/ConvectionDiffusionApplication</text>
<text text-anchor="middle" x="2632" y="-113" font-family="Helvetica,sans-Serif" font-size="10.00">/custom_utilities/move_particle_utility.h</text>
</a>
</g>
</g>
<!-- Node2&#45;&gt;Node16 -->
<g id="edge19" class="edge">
<title>Node2&#45;&gt;Node16</title>
<path fill="none" stroke="midnightblue" d="M1507.25,-203.65C1513.56,-202.24 1519.85,-200.99 1526,-200 1961.08,-129.6 2081.2,-229.78 2517,-164 2527.02,-162.49 2537.42,-160.42 2547.68,-158.06"/>
<polygon fill="midnightblue" stroke="midnightblue" points="1506.28,-200.28 1497.35,-205.99 1507.89,-207.09 1506.28,-200.28"/>
</g>
<!-- Node17 -->
<g id="node17" class="node">
<title>Node17</title>
<g id="a_node17"><a xlink:href="../../d2/d0c/pure__convection___crank_n__tools_8h.html" target="_top" xlink:title=" ">
<polygon fill="none" stroke="black" points="2756,-100.5 2756,-163.5 2950,-163.5 2950,-100.5 2756,-100.5"/>
<text text-anchor="start" x="2764" y="-151.5" font-family="Helvetica,sans-Serif" font-size="10.00">/home/runner/work/Documentation</text>
<text text-anchor="start" x="2764" y="-140.5" font-family="Helvetica,sans-Serif" font-size="10.00">/Documentation/master/applications</text>
<text text-anchor="start" x="2764" y="-129.5" font-family="Helvetica,sans-Serif" font-size="10.00">/ConvectionDiffusionApplication</text>
<text text-anchor="start" x="2764" y="-118.5" font-family="Helvetica,sans-Serif" font-size="10.00">/custom_utilities/pure_convection</text>
<text text-anchor="middle" x="2853" y="-107.5" font-family="Helvetica,sans-Serif" font-size="10.00">_CrankN_tools.h</text>
</a>
</g>
</g>
<!-- Node2&#45;&gt;Node17 -->
<g id="edge21" class="edge">
<title>Node2&#45;&gt;Node17</title>
<path fill="none" stroke="midnightblue" d="M1507.05,-203.64C1513.42,-202.22 1519.79,-200.98 1526,-200 2062.23,-115.12 2210.77,-248.88 2747,-164 2749.94,-163.54 2752.9,-163.01 2755.89,-162.44"/>
<polygon fill="midnightblue" stroke="midnightblue" points="1505.98,-200.3 1497.05,-206 1507.59,-207.11 1505.98,-200.3"/>
</g>
<!-- Node18 -->
<g id="node18" class="node">
<title>Node18</title>
<g id="a_node18"><a xlink:href="../../d1/d30/pure__convection__tools_8h.html" target="_top" xlink:title=" ">
<polygon fill="none" stroke="black" points="2968.5,-106 2968.5,-158 3187.5,-158 3187.5,-106 2968.5,-106"/>
<text text-anchor="start" x="2976.5" y="-146" font-family="Helvetica,sans-Serif" font-size="10.00">/home/runner/work/Documentation</text>
<text text-anchor="start" x="2976.5" y="-135" font-family="Helvetica,sans-Serif" font-size="10.00">/Documentation/master/applications</text>
<text text-anchor="start" x="2976.5" y="-124" font-family="Helvetica,sans-Serif" font-size="10.00">/ConvectionDiffusionApplication</text>
<text text-anchor="middle" x="3078" y="-113" font-family="Helvetica,sans-Serif" font-size="10.00">/custom_utilities/pure_convection_tools.h</text>
</a>
</g>
</g>
<!-- Node2&#45;&gt;Node18 -->
<g id="edge23" class="edge">
<title>Node2&#45;&gt;Node18</title>
<path fill="none" stroke="midnightblue" d="M1507.05,-203.61C1513.42,-202.2 1519.78,-200.97 1526,-200 2155.47,-101.76 2328.14,-252.89 2959,-164 2969.57,-162.51 2980.55,-160.42 2991.38,-158.02"/>
<polygon fill="midnightblue" stroke="midnightblue" points="1505.98,-200.26 1497.05,-205.96 1507.58,-207.08 1505.98,-200.26"/>
</g>
<!-- Node8&#45;&gt;Node2 -->
<g id="edge8" class="edge">
<title>Node8&#45;&gt;Node2</title>
<path fill="none" stroke="midnightblue" d="M1263.36,-161.91C1297.05,-175.87 1336.08,-192.46 1366.79,-205.89"/>
<polygon fill="midnightblue" stroke="midnightblue" points="1264.59,-158.63 1254.01,-158.04 1261.91,-165.1 1264.59,-158.63"/>
</g>
<!-- Node10 -->
<g id="node10" class="node">
<title>Node10</title>
<g id="a_node10"><a xlink:href="../../da/dd9/_convection_diffusion_application_2custom__python_2add__custom__strategies__to__python_8cpp.html" target="_top" xlink:title=" ">
<polygon fill="none" stroke="black" points="1691.5,-0.5 1691.5,-63.5 1902.5,-63.5 1902.5,-0.5 1691.5,-0.5"/>
<text text-anchor="start" x="1699.5" y="-51.5" font-family="Helvetica,sans-Serif" font-size="10.00">/home/runner/work/Documentation</text>
<text text-anchor="start" x="1699.5" y="-40.5" font-family="Helvetica,sans-Serif" font-size="10.00">/Documentation/master/applications</text>
<text text-anchor="start" x="1699.5" y="-29.5" font-family="Helvetica,sans-Serif" font-size="10.00">/ConvectionDiffusionApplication</text>
<text text-anchor="start" x="1699.5" y="-18.5" font-family="Helvetica,sans-Serif" font-size="10.00">/custom_python/add_custom_strategies</text>
<text text-anchor="middle" x="1797" y="-7.5" font-family="Helvetica,sans-Serif" font-size="10.00">_to_python.cpp</text>
</a>
</g>
</g>
<!-- Node9&#45;&gt;Node10 -->
<g id="edge10" class="edge">
<title>Node9&#45;&gt;Node10</title>
<path fill="none" stroke="midnightblue" d="M1546.64,-98.08C1593.67,-85.86 1646.47,-72.13 1691.41,-60.45"/>
<polygon fill="midnightblue" stroke="midnightblue" points="1545.5,-94.76 1536.7,-100.66 1547.26,-101.53 1545.5,-94.76"/>
</g>
<!-- Node11&#45;&gt;Node10 -->
<g id="edge12" class="edge">
<title>Node11&#45;&gt;Node10</title>
<path fill="none" stroke="midnightblue" d="M1718.42,-94.11C1731.35,-84.06 1745.2,-73.29 1757.62,-63.63"/>
<polygon fill="midnightblue" stroke="midnightblue" points="1716.27,-91.36 1710.52,-100.26 1720.56,-96.88 1716.27,-91.36"/>
</g>
<!-- Node12&#45;&gt;Node10 -->
<g id="edge14" class="edge">
<title>Node12&#45;&gt;Node10</title>
<path fill="none" stroke="midnightblue" d="M1874.59,-93.83C1861.87,-83.86 1848.27,-73.2 1836.07,-63.63"/>
<polygon fill="midnightblue" stroke="midnightblue" points="1872.76,-96.85 1882.79,-100.26 1877.08,-91.34 1872.76,-96.85"/>
</g>
<!-- Node13&#45;&gt;Node10 -->
<g id="edge16" class="edge">
<title>Node13&#45;&gt;Node10</title>
<path fill="none" stroke="midnightblue" d="M2046.48,-98.02C1999.81,-85.86 1947.45,-72.21 1902.8,-60.58"/>
<polygon fill="midnightblue" stroke="midnightblue" points="2045.79,-101.46 2056.35,-100.6 2047.56,-94.69 2045.79,-101.46"/>
</g>
<!-- Node15 -->
<g id="node15" class="node">
<title>Node15</title>
<g id="a_node15"><a xlink:href="../../d7/d18/_convection_diffusion_application_2custom__python_2add__custom__utilities__to__python_8cpp.html" target="_top" xlink:title=" ">
<polygon fill="none" stroke="black" points="2642.5,-0.5 2642.5,-63.5 2841.5,-63.5 2841.5,-0.5 2642.5,-0.5"/>
<text text-anchor="start" x="2650.5" y="-51.5" font-family="Helvetica,sans-Serif" font-size="10.00">/home/runner/work/Documentation</text>
<text text-anchor="start" x="2650.5" y="-40.5" font-family="Helvetica,sans-Serif" font-size="10.00">/Documentation/master/applications</text>
<text text-anchor="start" x="2650.5" y="-29.5" font-family="Helvetica,sans-Serif" font-size="10.00">/ConvectionDiffusionApplication</text>
<text text-anchor="start" x="2650.5" y="-18.5" font-family="Helvetica,sans-Serif" font-size="10.00">/custom_python/add_custom_utilities</text>
<text text-anchor="middle" x="2742" y="-7.5" font-family="Helvetica,sans-Serif" font-size="10.00">_to_python.cpp</text>
</a>
</g>
</g>
<!-- Node14&#45;&gt;Node15 -->
<g id="edge18" class="edge">
<title>Node14&#45;&gt;Node15</title>
<path fill="none" stroke="midnightblue" d="M2503.31,-103.03C2546.84,-90.26 2598.39,-75.14 2642.42,-62.22"/>
<polygon fill="midnightblue" stroke="midnightblue" points="2502.19,-99.72 2493.58,-105.89 2504.16,-106.43 2502.19,-99.72"/>
</g>
<!-- Node16&#45;&gt;Node15 -->
<g id="edge20" class="edge">
<title>Node16&#45;&gt;Node15</title>
<path fill="none" stroke="midnightblue" d="M2668,-98.93C2680.69,-87.62 2694.92,-74.94 2707.49,-63.75"/>
<polygon fill="midnightblue" stroke="midnightblue" points="2665.47,-96.5 2660.33,-105.76 2670.12,-101.72 2665.47,-96.5"/>
</g>
<!-- Node17&#45;&gt;Node15 -->
<g id="edge22" class="edge">
<title>Node17&#45;&gt;Node15</title>
<path fill="none" stroke="midnightblue" d="M2810.58,-93.54C2799.38,-83.66 2787.43,-73.11 2776.69,-63.63"/>
<polygon fill="midnightblue" stroke="midnightblue" points="2808.37,-96.27 2818.18,-100.26 2813,-91.02 2808.37,-96.27"/>
</g>
<!-- Node18&#45;&gt;Node15 -->
<g id="edge24" class="edge">
<title>Node18&#45;&gt;Node15</title>
<path fill="none" stroke="midnightblue" d="M2982.08,-103.02C2938.09,-90.19 2885.98,-74.99 2841.56,-62.04"/>
<polygon fill="midnightblue" stroke="midnightblue" points="2981.33,-106.45 2991.91,-105.89 2983.29,-99.73 2981.33,-106.45"/>
</g>
</g>
</svg>
