<?xml version="1.0" encoding="UTF-8" standalone="no"?>
<!DOCTYPE svg PUBLIC "-//W3C//DTD SVG 1.1//EN"
 "http://www.w3.org/Graphics/SVG/1.1/DTD/svg11.dtd">
<!-- Generated by graphviz version 7.1.0 (0)
 -->
<!-- Title: /software/kratos/doxygen/applications/ParticleMechanicsApplication/custom_constitutive/flow_rules/borja_cam_clay_plastic_flow_rule.hpp Pages: 1 -->
<svg width="1146pt" height="357pt"
 viewBox="0.00 0.00 1146.00 357.00" xmlns="http://www.w3.org/2000/svg" xmlns:xlink="http://www.w3.org/1999/xlink">
<g id="graph0" class="graph" transform="scale(1 1) rotate(0) translate(4 353)">
<title>/software/kratos/doxygen/applications/ParticleMechanicsApplication/custom_constitutive/flow_rules/borja_cam_clay_plastic_flow_rule.hpp</title>
<!-- Node1 -->
<g id="node1" class="node">
<title>Node1</title>
<g id="a_node1"><a xlink:title=" ">
<polygon fill="#999999" stroke="#666666" points="587,-349 401,-349 401,-286 587,-286 587,-349"/>
<text text-anchor="start" x="409" y="-337" font-family="Helvetica,sans-Serif" font-size="10.00">/software/kratos/doxygen</text>
<text text-anchor="start" x="409" y="-326" font-family="Helvetica,sans-Serif" font-size="10.00">/applications/ParticleMechanics</text>
<text text-anchor="start" x="409" y="-315" font-family="Helvetica,sans-Serif" font-size="10.00">Application/custom_constitutive</text>
<text text-anchor="start" x="409" y="-304" font-family="Helvetica,sans-Serif" font-size="10.00">/flow_rules/borja_cam_clay_plastic</text>
<text text-anchor="middle" x="494" y="-293" font-family="Helvetica,sans-Serif" font-size="10.00">_flow_rule.hpp</text>
</a>
</g>
</g>
<!-- Node2 -->
<g id="node2" class="node">
<title>Node2</title>
<g id="a_node2"><a xlink:href="../../d4/d9a/borja__cam__clay__plastic__flow__rule_8cpp.html" target="_top" xlink:title=" ">
<polygon fill="white" stroke="#666666" points="186,-250 0,-250 0,-187 186,-187 186,-250"/>
<text text-anchor="start" x="8" y="-238" font-family="Helvetica,sans-Serif" font-size="10.00">/software/kratos/doxygen</text>
<text text-anchor="start" x="8" y="-227" font-family="Helvetica,sans-Serif" font-size="10.00">/applications/ParticleMechanics</text>
<text text-anchor="start" x="8" y="-216" font-family="Helvetica,sans-Serif" font-size="10.00">Application/custom_constitutive</text>
<text text-anchor="start" x="8" y="-205" font-family="Helvetica,sans-Serif" font-size="10.00">/flow_rules/borja_cam_clay_plastic</text>
<text text-anchor="middle" x="93" y="-194" font-family="Helvetica,sans-Serif" font-size="10.00">_flow_rule.cpp</text>
</a>
</g>
</g>
<!-- Node1&#45;&gt;Node2 -->
<g id="edge1" class="edge">
<title>Node1&#45;&gt;Node2</title>
<path fill="none" stroke="#63b8ff" d="M389.71,-295.22C332.06,-282.98 259.3,-266.74 195,-250 192.14,-249.25 189.24,-248.48 186.31,-247.69"/>
<polygon fill="#63b8ff" stroke="#63b8ff" points="388.67,-298.58 399.18,-297.23 390.12,-291.73 388.67,-298.58"/>
</g>
<!-- Node3 -->
<g id="node3" class="node">
<title>Node3</title>
<g id="a_node3"><a xlink:href="../../d2/dfa/hencky__borja__cam__clay__3_d__law_8hpp.html" target="_top" xlink:title=" ">
<polygon fill="white" stroke="#666666" points="401.5,-244.5 204.5,-244.5 204.5,-192.5 401.5,-192.5 401.5,-244.5"/>
<text text-anchor="start" x="212.5" y="-232.5" font-family="Helvetica,sans-Serif" font-size="10.00">/software/kratos/doxygen</text>
<text text-anchor="start" x="212.5" y="-221.5" font-family="Helvetica,sans-Serif" font-size="10.00">/applications/ParticleMechanics</text>
<text text-anchor="start" x="212.5" y="-210.5" font-family="Helvetica,sans-Serif" font-size="10.00">Application/custom_constitutive</text>
<text text-anchor="middle" x="303" y="-199.5" font-family="Helvetica,sans-Serif" font-size="10.00">/hencky_borja_cam_clay_3D_law.hpp</text>
</a>
</g>
</g>
<!-- Node1&#45;&gt;Node3 -->
<g id="edge2" class="edge">
<title>Node1&#45;&gt;Node3</title>
<path fill="none" stroke="#63b8ff" d="M422.9,-280.39C399.72,-268.62 374.48,-255.8 353.16,-244.98"/>
<polygon fill="#63b8ff" stroke="#63b8ff" points="421.19,-283.45 431.69,-284.86 424.36,-277.21 421.19,-283.45"/>
</g>
<!-- Node5 -->
<g id="node5" class="node">
<title>Node5</title>
<g id="a_node5"><a xlink:href="../../df/d27/_particle_mechanics_application_2custom__python_2add__custom__constitutive__laws__to__python_8cpp.html" target="_top" xlink:title=" ">
<polygon fill="white" stroke="#666666" points="474.5,-145.5 251.5,-145.5 251.5,-93.5 474.5,-93.5 474.5,-145.5"/>
<text text-anchor="start" x="259.5" y="-133.5" font-family="Helvetica,sans-Serif" font-size="10.00">/software/kratos/doxygen</text>
<text text-anchor="start" x="259.5" y="-122.5" font-family="Helvetica,sans-Serif" font-size="10.00">/applications/ParticleMechanics</text>
<text text-anchor="start" x="259.5" y="-111.5" font-family="Helvetica,sans-Serif" font-size="10.00">Application/custom_python/add</text>
<text text-anchor="middle" x="363" y="-100.5" font-family="Helvetica,sans-Serif" font-size="10.00">_custom_constitutive_laws_to_python.cpp</text>
</a>
</g>
</g>
<!-- Node1&#45;&gt;Node5 -->
<g id="edge15" class="edge">
<title>Node1&#45;&gt;Node5</title>
<path fill="none" stroke="#63b8ff" d="M466.29,-276.11C460.51,-267.53 454.5,-258.5 449,-250 431.1,-222.36 428.18,-214.46 410,-187 400.87,-173.21 390.27,-158.13 381.45,-145.83"/>
<polygon fill="#63b8ff" stroke="#63b8ff" points="463.32,-277.98 471.83,-284.3 469.12,-274.05 463.32,-277.98"/>
</g>
<!-- Node6 -->
<g id="node6" class="node">
<title>Node6</title>
<g id="a_node6"><a xlink:href="../../d0/d91/particle__mechanics__application_8h.html" target="_top" xlink:title=" ">
<polygon fill="white" stroke="#666666" points="882,-145.5 712,-145.5 712,-93.5 882,-93.5 882,-145.5"/>
<text text-anchor="start" x="720" y="-133.5" font-family="Helvetica,sans-Serif" font-size="10.00">/software/kratos/doxygen</text>
<text text-anchor="start" x="720" y="-122.5" font-family="Helvetica,sans-Serif" font-size="10.00">/applications/ParticleMechanics</text>
<text text-anchor="start" x="720" y="-111.5" font-family="Helvetica,sans-Serif" font-size="10.00">Application/particle_mechanics</text>
<text text-anchor="middle" x="797" y="-100.5" font-family="Helvetica,sans-Serif" font-size="10.00">_application.h</text>
</a>
</g>
</g>
<!-- Node1&#45;&gt;Node6 -->
<g id="edge16" class="edge">
<title>Node1&#45;&gt;Node6</title>
<path fill="none" stroke="#63b8ff" d="M598.51,-315.44C712.6,-311.81 884.64,-298.21 926,-250 944.23,-228.75 940.57,-210.91 926,-187 915.05,-169.04 897.52,-155.71 878.86,-145.92"/>
<polygon fill="#63b8ff" stroke="#63b8ff" points="598.71,-311.93 588.82,-315.73 598.92,-318.93 598.71,-311.93"/>
</g>
<!-- Node8 -->
<g id="node8" class="node">
<title>Node8</title>
<g id="a_node8"><a xlink:href="../../de/ddf/hencky__borja__cam__clay__axisym__2_d__law_8hpp.html" target="_top" xlink:title=" ">
<polygon fill="white" stroke="#666666" points="916.5,-244.5 677.5,-244.5 677.5,-192.5 916.5,-192.5 916.5,-244.5"/>
<text text-anchor="start" x="685.5" y="-232.5" font-family="Helvetica,sans-Serif" font-size="10.00">/software/kratos/doxygen</text>
<text text-anchor="start" x="685.5" y="-221.5" font-family="Helvetica,sans-Serif" font-size="10.00">/applications/ParticleMechanics</text>
<text text-anchor="start" x="685.5" y="-210.5" font-family="Helvetica,sans-Serif" font-size="10.00">Application/custom_constitutive</text>
<text text-anchor="middle" x="797" y="-199.5" font-family="Helvetica,sans-Serif" font-size="10.00">/hencky_borja_cam_clay_axisym_2D_law.hpp</text>
</a>
</g>
</g>
<!-- Node1&#45;&gt;Node8 -->
<g id="edge7" class="edge">
<title>Node1&#45;&gt;Node8</title>
<path fill="none" stroke="#63b8ff" d="M598.26,-283.12C637.31,-270.62 681.01,-256.63 717.46,-244.96"/>
<polygon fill="#63b8ff" stroke="#63b8ff" points="597.28,-279.76 588.82,-286.14 599.41,-286.43 597.28,-279.76"/>
</g>
<!-- Node10 -->
<g id="node10" class="node">
<title>Node10</title>
<g id="a_node10"><a xlink:href="../../d7/dd2/hencky__borja__cam__clay__plane__strain__2_d__law_8hpp.html" target="_top" xlink:title=" ">
<polygon fill="white" stroke="#666666" points="659.5,-250 458.5,-250 458.5,-187 659.5,-187 659.5,-250"/>
<text text-anchor="start" x="466.5" y="-238" font-family="Helvetica,sans-Serif" font-size="10.00">/software/kratos/doxygen</text>
<text text-anchor="start" x="466.5" y="-227" font-family="Helvetica,sans-Serif" font-size="10.00">/applications/ParticleMechanics</text>
<text text-anchor="start" x="466.5" y="-216" font-family="Helvetica,sans-Serif" font-size="10.00">Application/custom_constitutive</text>
<text text-anchor="start" x="466.5" y="-205" font-family="Helvetica,sans-Serif" font-size="10.00">/hencky_borja_cam_clay_plane_strain</text>
<text text-anchor="middle" x="559" y="-194" font-family="Helvetica,sans-Serif" font-size="10.00">_2D_law.hpp</text>
</a>
</g>
</g>
<!-- Node1&#45;&gt;Node10 -->
<g id="edge11" class="edge">
<title>Node1&#45;&gt;Node10</title>
<path fill="none" stroke="#63b8ff" d="M521.08,-276.09C526.81,-267.54 532.77,-258.64 538.23,-250.5"/>
<polygon fill="#63b8ff" stroke="#63b8ff" points="518.25,-274.03 515.59,-284.28 524.06,-277.93 518.25,-274.03"/>
</g>
<!-- Node4 -->
<g id="node4" class="node">
<title>Node4</title>
<g id="a_node4"><a xlink:href="../../dc/d6f/hencky__borja__cam__clay__3_d__law_8cpp.html" target="_top" xlink:title=" ">
<polygon fill="white" stroke="#666666" points="233.5,-145.5 36.5,-145.5 36.5,-93.5 233.5,-93.5 233.5,-145.5"/>
<text text-anchor="start" x="44.5" y="-133.5" font-family="Helvetica,sans-Serif" font-size="10.00">/software/kratos/doxygen</text>
<text text-anchor="start" x="44.5" y="-122.5" font-family="Helvetica,sans-Serif" font-size="10.00">/applications/ParticleMechanics</text>
<text text-anchor="start" x="44.5" y="-111.5" font-family="Helvetica,sans-Serif" font-size="10.00">Application/custom_constitutive</text>
<text text-anchor="middle" x="135" y="-100.5" font-family="Helvetica,sans-Serif" font-size="10.00">/hencky_borja_cam_clay_3D_law.cpp</text>
</a>
</g>
</g>
<!-- Node3&#45;&gt;Node4 -->
<g id="edge3" class="edge">
<title>Node3&#45;&gt;Node4</title>
<path fill="none" stroke="#63b8ff" d="M249.08,-186.37C226.49,-173.33 200.56,-158.35 179.14,-145.98"/>
<polygon fill="#63b8ff" stroke="#63b8ff" points="247.14,-189.29 257.55,-191.26 250.64,-183.23 247.14,-189.29"/>
</g>
<!-- Node3&#45;&gt;Node5 -->
<g id="edge4" class="edge">
<title>Node3&#45;&gt;Node5</title>
<path fill="none" stroke="#63b8ff" d="M324.81,-182.23C332.27,-170.17 340.46,-156.93 347.34,-145.82"/>
<polygon fill="#63b8ff" stroke="#63b8ff" points="321.84,-180.38 319.56,-190.73 327.8,-184.06 321.84,-180.38"/>
</g>
<!-- Node3&#45;&gt;Node6 -->
<g id="edge5" class="edge">
<title>Node3&#45;&gt;Node6</title>
<path fill="none" stroke="#63b8ff" d="M412.92,-193.74C425.07,-191.35 437.28,-189.05 449,-187 561.31,-167.33 591.91,-176.69 703,-151 709.35,-149.53 715.89,-147.83 722.42,-145.99"/>
<polygon fill="#63b8ff" stroke="#63b8ff" points="412.4,-190.27 403.27,-195.66 413.76,-197.14 412.4,-190.27"/>
</g>
<!-- Node7 -->
<g id="node7" class="node">
<title>Node7</title>
<g id="a_node7"><a xlink:href="../../d2/d00/particle__mechanics__application_8cpp.html" target="_top" xlink:title=" ">
<polygon fill="white" stroke="#666666" points="882,-52 712,-52 712,0 882,0 882,-52"/>
<text text-anchor="start" x="720" y="-40" font-family="Helvetica,sans-Serif" font-size="10.00">/software/kratos/doxygen</text>
<text text-anchor="start" x="720" y="-29" font-family="Helvetica,sans-Serif" font-size="10.00">/applications/ParticleMechanics</text>
<text text-anchor="start" x="720" y="-18" font-family="Helvetica,sans-Serif" font-size="10.00">Application/particle_mechanics</text>
<text text-anchor="middle" x="797" y="-7" font-family="Helvetica,sans-Serif" font-size="10.00">_application.cpp</text>
</a>
</g>
</g>
<!-- Node6&#45;&gt;Node7 -->
<g id="edge6" class="edge">
<title>Node6&#45;&gt;Node7</title>
<path fill="none" stroke="#63b8ff" d="M797,-81.8C797,-71.92 797,-61.46 797,-52.35"/>
<polygon fill="#63b8ff" stroke="#63b8ff" points="793.5,-81.5 797,-91.5 800.5,-81.5 793.5,-81.5"/>
</g>
<!-- Node8&#45;&gt;Node5 -->
<g id="edge9" class="edge">
<title>Node8&#45;&gt;Node5</title>
<path fill="none" stroke="#63b8ff" d="M680.56,-189.53C676.66,-188.67 672.8,-187.82 669,-187 586.69,-169.24 565.17,-169.38 483,-151 475.87,-149.4 468.51,-147.7 461.12,-145.93"/>
<polygon fill="#63b8ff" stroke="#63b8ff" points="679.61,-192.9 690.13,-191.68 681.14,-186.07 679.61,-192.9"/>
</g>
<!-- Node8&#45;&gt;Node6 -->
<g id="edge10" class="edge">
<title>Node8&#45;&gt;Node6</title>
<path fill="none" stroke="#63b8ff" d="M797,-180.78C797,-169.12 797,-156.49 797,-145.82"/>
<polygon fill="#63b8ff" stroke="#63b8ff" points="793.5,-180.5 797,-190.5 800.5,-180.5 793.5,-180.5"/>
</g>
<!-- Node9 -->
<g id="node9" class="node">
<title>Node9</title>
<g id="a_node9"><a xlink:href="../../dc/dda/hencky__borja__cam__clay__axisym__2_d__law_8cpp.html" target="_top" xlink:title=" ">
<polygon fill="white" stroke="#666666" points="1138,-145.5 900,-145.5 900,-93.5 1138,-93.5 1138,-145.5"/>
<text text-anchor="start" x="908" y="-133.5" font-family="Helvetica,sans-Serif" font-size="10.00">/software/kratos/doxygen</text>
<text text-anchor="start" x="908" y="-122.5" font-family="Helvetica,sans-Serif" font-size="10.00">/applications/ParticleMechanics</text>
<text text-anchor="start" x="908" y="-111.5" font-family="Helvetica,sans-Serif" font-size="10.00">Application/custom_constitutive</text>
<text text-anchor="middle" x="1019" y="-100.5" font-family="Helvetica,sans-Serif" font-size="10.00">/hencky_borja_cam_clay_axisym_2D_law.cpp</text>
</a>
</g>
</g>
<!-- Node8&#45;&gt;Node9 -->
<g id="edge8" class="edge">
<title>Node8&#45;&gt;Node9</title>
<path fill="none" stroke="#63b8ff" d="M865.86,-187.41C896.25,-174.13 931.6,-158.69 960.68,-145.98"/>
<polygon fill="#63b8ff" stroke="#63b8ff" points="864.48,-184.2 856.71,-191.41 867.28,-190.61 864.48,-184.2"/>
</g>
<!-- Node10&#45;&gt;Node5 -->
<g id="edge13" class="edge">
<title>Node10&#45;&gt;Node5</title>
<path fill="none" stroke="#63b8ff" d="M486.36,-181.55C462.48,-169.73 436.45,-156.85 414.48,-145.98"/>
<polygon fill="#63b8ff" stroke="#63b8ff" points="484.57,-184.57 495.09,-185.87 487.68,-178.3 484.57,-184.57"/>
</g>
<!-- Node10&#45;&gt;Node6 -->
<g id="edge14" class="edge">
<title>Node10&#45;&gt;Node6</title>
<path fill="none" stroke="#63b8ff" d="M645.27,-182.34C674.78,-170.31 707.22,-157.09 734.49,-145.98"/>
<polygon fill="#63b8ff" stroke="#63b8ff" points="644.3,-178.96 636.36,-185.97 646.94,-185.44 644.3,-178.96"/>
</g>
<!-- Node11 -->
<g id="node11" class="node">
<title>Node11</title>
<g id="a_node11"><a xlink:href="../../d8/d0e/hencky__borja__cam__clay__plane__strain__2_d__law_8cpp.html" target="_top" xlink:title=" ">
<polygon fill="white" stroke="#666666" points="693.5,-151 492.5,-151 492.5,-88 693.5,-88 693.5,-151"/>
<text text-anchor="start" x="500.5" y="-139" font-family="Helvetica,sans-Serif" font-size="10.00">/software/kratos/doxygen</text>
<text text-anchor="start" x="500.5" y="-128" font-family="Helvetica,sans-Serif" font-size="10.00">/applications/ParticleMechanics</text>
<text text-anchor="start" x="500.5" y="-117" font-family="Helvetica,sans-Serif" font-size="10.00">Application/custom_constitutive</text>
<text text-anchor="start" x="500.5" y="-106" font-family="Helvetica,sans-Serif" font-size="10.00">/hencky_borja_cam_clay_plane_strain</text>
<text text-anchor="middle" x="593" y="-95" font-family="Helvetica,sans-Serif" font-size="10.00">_2D_law.cpp</text>
</a>
</g>
</g>
<!-- Node10&#45;&gt;Node11 -->
<g id="edge12" class="edge">
<title>Node10&#45;&gt;Node11</title>
<path fill="none" stroke="#63b8ff" d="M573.65,-175.71C576.5,-167.58 579.44,-159.2 582.14,-151.5"/>
<polygon fill="#63b8ff" stroke="#63b8ff" points="570.36,-174.52 570.35,-185.11 576.96,-176.83 570.36,-174.52"/>
</g>
</g>
</svg>
