<?xml version="1.0" encoding="UTF-8" standalone="no"?>
<!DOCTYPE svg PUBLIC "-//W3C//DTD SVG 1.1//EN"
 "http://www.w3.org/Graphics/SVG/1.1/DTD/svg11.dtd">
<!-- Generated by graphviz version 7.1.0 (0)
 -->
<!-- Title: /software/kratos/doxygen/kratos/solving_strategies/strategies/line_search_strategy.h Pages: 1 -->
<svg width="359pt" height="247pt"
 viewBox="0.00 0.00 359.00 247.00" xmlns="http://www.w3.org/2000/svg" xmlns:xlink="http://www.w3.org/1999/xlink">
<g id="graph0" class="graph" transform="scale(1 1) rotate(0) translate(4 243)">
<title>/software/kratos/doxygen/kratos/solving_strategies/strategies/line_search_strategy.h</title>
<!-- Node1 -->
<g id="node1" class="node">
<title>Node1</title>
<g id="a_node1"><a xlink:title=" ">
<polygon fill="#999999" stroke="#666666" points="268,-239 88,-239 88,-198 268,-198 268,-239"/>
<text text-anchor="start" x="96" y="-227" font-family="Helvetica,sans-Serif" font-size="10.00">/software/kratos/doxygen</text>
<text text-anchor="start" x="96" y="-216" font-family="Helvetica,sans-Serif" font-size="10.00">/kratos/solving_strategies</text>
<text text-anchor="middle" x="178" y="-205" font-family="Helvetica,sans-Serif" font-size="10.00">/strategies/line_search_strategy.h</text>
</a>
</g>
</g>
<!-- Node2 -->
<g id="node2" class="node">
<title>Node2</title>
<g id="a_node2"><a xlink:href="../../d3/d4a/line__search__contact__strategy_8h.html" target="_top" xlink:title=" ">
<polygon fill="white" stroke="#666666" points="171,-162 1,-162 1,-99 171,-99 171,-162"/>
<text text-anchor="start" x="9" y="-150" font-family="Helvetica,sans-Serif" font-size="10.00">/software/kratos/doxygen</text>
<text text-anchor="start" x="9" y="-139" font-family="Helvetica,sans-Serif" font-size="10.00">/applications/ContactStructural</text>
<text text-anchor="start" x="9" y="-128" font-family="Helvetica,sans-Serif" font-size="10.00">MechanicsApplication/custom</text>
<text text-anchor="start" x="9" y="-117" font-family="Helvetica,sans-Serif" font-size="10.00">_strategies/custom_strategies</text>
<text text-anchor="middle" x="86" y="-106" font-family="Helvetica,sans-Serif" font-size="10.00">/line_search_contact_strategy.h</text>
</a>
</g>
</g>
<!-- Node1&#45;&gt;Node2 -->
<g id="edge1" class="edge">
<title>Node1&#45;&gt;Node2</title>
<path fill="none" stroke="#63b8ff" d="M148.43,-189.85C139.08,-181.12 128.69,-171.41 119.12,-162.46"/>
<polygon fill="#63b8ff" stroke="#63b8ff" points="145.86,-192.25 155.56,-196.52 150.64,-187.13 145.86,-192.25"/>
</g>
<!-- Node4 -->
<g id="node4" class="node">
<title>Node4</title>
<g id="a_node4"><a xlink:href="../../d8/dd7/add__strategies__to__python_8cpp.html" target="_top" xlink:title=" ">
<polygon fill="white" stroke="#666666" points="351,-151 189,-151 189,-110 351,-110 351,-151"/>
<text text-anchor="start" x="197" y="-139" font-family="Helvetica,sans-Serif" font-size="10.00">/software/kratos/doxygen</text>
<text text-anchor="start" x="197" y="-128" font-family="Helvetica,sans-Serif" font-size="10.00">/kratos/python/add_strategies</text>
<text text-anchor="middle" x="270" y="-117" font-family="Helvetica,sans-Serif" font-size="10.00">_to_python.cpp</text>
</a>
</g>
</g>
<!-- Node1&#45;&gt;Node4 -->
<g id="edge3" class="edge">
<title>Node1&#45;&gt;Node4</title>
<path fill="none" stroke="#63b8ff" d="M207.38,-190.03C220.84,-177.45 236.49,-162.82 248.78,-151.34"/>
<polygon fill="#63b8ff" stroke="#63b8ff" points="205.36,-187.13 200.44,-196.52 210.14,-192.25 205.36,-187.13"/>
</g>
<!-- Node3 -->
<g id="node3" class="node">
<title>Node3</title>
<g id="a_node3"><a xlink:href="../../dd/da0/_contact_structural_mechanics_application_2custom__python_2add__custom__strategies__to__python_8cpp.html" target="_top" xlink:title=" ">
<polygon fill="white" stroke="#666666" points="172,-63 0,-63 0,0 172,0 172,-63"/>
<text text-anchor="start" x="8" y="-51" font-family="Helvetica,sans-Serif" font-size="10.00">/software/kratos/doxygen</text>
<text text-anchor="start" x="8" y="-40" font-family="Helvetica,sans-Serif" font-size="10.00">/applications/ContactStructural</text>
<text text-anchor="start" x="8" y="-29" font-family="Helvetica,sans-Serif" font-size="10.00">MechanicsApplication/custom</text>
<text text-anchor="start" x="8" y="-18" font-family="Helvetica,sans-Serif" font-size="10.00">_python/add_custom_strategies</text>
<text text-anchor="middle" x="86" y="-7" font-family="Helvetica,sans-Serif" font-size="10.00">_to_python.cpp</text>
</a>
</g>
</g>
<!-- Node2&#45;&gt;Node3 -->
<g id="edge2" class="edge">
<title>Node2&#45;&gt;Node3</title>
<path fill="none" stroke="#63b8ff" d="M86,-87.15C86,-79.2 86,-71.02 86,-63.5"/>
<polygon fill="#63b8ff" stroke="#63b8ff" points="82.5,-87.03 86,-97.03 89.5,-87.03 82.5,-87.03"/>
</g>
</g>
</svg>
