<?xml version="1.0" encoding="UTF-8" standalone="no"?>
<!DOCTYPE svg PUBLIC "-//W3C//DTD SVG 1.1//EN"
 "http://www.w3.org/Graphics/SVG/1.1/DTD/svg11.dtd">
<!-- Generated by graphviz version 2.43.0 (0)
 -->
<!-- Title: /home/runner/work/Documentation/Documentation/master/applications/CSharpWrapperApplication/external_bindings/element_external_bindings.cpp Pages: 1 -->
<svg width="3429pt" height="821pt"
 viewBox="0.00 0.00 3429.00 821.00" xmlns="http://www.w3.org/2000/svg" xmlns:xlink="http://www.w3.org/1999/xlink">
<g id="graph0" class="graph" transform="scale(1 1) rotate(0) translate(4 817)">
<title>/home/runner/work/Documentation/Documentation/master/applications/CSharpWrapperApplication/external_bindings/element_external_bindings.cpp</title>
<!-- Node1 -->
<g id="node1" class="node">
<title>Node1</title>
<g id="a_node1"><a xlink:title=" ">
<polygon fill="#bfbfbf" stroke="black" points="1770.5,-760.5 1770.5,-812.5 1989.5,-812.5 1989.5,-760.5 1770.5,-760.5"/>
<text text-anchor="start" x="1778.5" y="-800.5" font-family="Helvetica,sans-Serif" font-size="10.00">/home/runner/work/Documentation</text>
<text text-anchor="start" x="1778.5" y="-789.5" font-family="Helvetica,sans-Serif" font-size="10.00">/Documentation/master/applications</text>
<text text-anchor="start" x="1778.5" y="-778.5" font-family="Helvetica,sans-Serif" font-size="10.00">/CSharpWrapperApplication/external</text>
<text text-anchor="middle" x="1880" y="-767.5" font-family="Helvetica,sans-Serif" font-size="10.00">_bindings/element_external_bindings.cpp</text>
</a>
</g>
</g>
<!-- Node2 -->
<g id="node2" class="node">
<title>Node2</title>
<g id="a_node2"><a xlink:href="../../d4/dfe/element_8h.html" target="_top" xlink:title=" ">
<polygon fill="none" stroke="black" points="1680,-704.5 1680,-723.5 1790,-723.5 1790,-704.5 1680,-704.5"/>
<text text-anchor="middle" x="1735" y="-711.5" font-family="Helvetica,sans-Serif" font-size="10.00">includes/element.h</text>
</a>
</g>
</g>
<!-- Node1&#45;&gt;Node2 -->
<g id="edge1" class="edge">
<title>Node1&#45;&gt;Node2</title>
<path fill="none" stroke="midnightblue" d="M1828.47,-760.45C1805.87,-749.46 1780.3,-737.03 1761.62,-727.94"/>
<polygon fill="midnightblue" stroke="midnightblue" points="1763.06,-724.75 1752.54,-723.53 1760,-731.05 1763.06,-724.75"/>
</g>
<!-- Node20 -->
<g id="node17" class="node">
<title>Node20</title>
<g id="a_node17"><a xlink:href="../../d1/d77/node_8h.html" target="_top" xlink:title=" ">
<polygon fill="none" stroke="black" points="1977.5,-514.5 1977.5,-533.5 2070.5,-533.5 2070.5,-514.5 1977.5,-514.5"/>
<text text-anchor="middle" x="2024" y="-521.5" font-family="Helvetica,sans-Serif" font-size="10.00">includes/node.h</text>
</a>
</g>
</g>
<!-- Node1&#45;&gt;Node20 -->
<g id="edge177" class="edge">
<title>Node1&#45;&gt;Node20</title>
<path fill="none" stroke="midnightblue" d="M1901.03,-760.26C1928.45,-726.16 1976.18,-662.54 2004,-601 2012.41,-582.39 2017.82,-559.56 2020.87,-543.81"/>
<polygon fill="midnightblue" stroke="midnightblue" points="2024.35,-544.21 2022.68,-533.75 2017.46,-542.98 2024.35,-544.21"/>
</g>
<!-- Node3 -->
<g id="node3" class="node">
<title>Node3</title>
<g id="a_node3"><a xlink:href="../../d8/dbb/properties_8h.html" target="_top" xlink:title=" ">
<polygon fill="none" stroke="black" points="1131.5,-576 1131.5,-595 1250.5,-595 1250.5,-576 1131.5,-576"/>
<text text-anchor="middle" x="1191" y="-583" font-family="Helvetica,sans-Serif" font-size="10.00">includes/properties.h</text>
</a>
</g>
</g>
<!-- Node2&#45;&gt;Node3 -->
<g id="edge2" class="edge">
<title>Node2&#45;&gt;Node3</title>
<path fill="none" stroke="midnightblue" d="M1698.04,-704.4C1601.78,-682.02 1343.49,-621.96 1237.43,-597.3"/>
<polygon fill="midnightblue" stroke="midnightblue" points="1238.19,-593.88 1227.66,-595.02 1236.6,-600.7 1238.19,-593.88"/>
</g>
<!-- Node92 -->
<g id="node36" class="node">
<title>Node92</title>
<g id="a_node36"><a xlink:href="../../de/d44/global__pointers__vector_8h.html" target="_top" xlink:title=" ">
<polygon fill="none" stroke="black" points="2269,-447.5 2269,-477.5 2415,-477.5 2415,-447.5 2269,-447.5"/>
<text text-anchor="start" x="2277" y="-465.5" font-family="Helvetica,sans-Serif" font-size="10.00">containers/global_pointers</text>
<text text-anchor="middle" x="2342" y="-454.5" font-family="Helvetica,sans-Serif" font-size="10.00">_vector.h</text>
</a>
</g>
</g>
<!-- Node2&#45;&gt;Node92 -->
<g id="edge176" class="edge">
<title>Node2&#45;&gt;Node92</title>
<path fill="none" stroke="midnightblue" d="M1756.5,-704.44C1779.06,-695.43 1815.56,-680.81 1847,-668 2014.28,-599.84 2212.72,-517.37 2298.71,-481.55"/>
<polygon fill="midnightblue" stroke="midnightblue" points="2300.25,-484.7 2308.14,-477.62 2297.56,-478.24 2300.25,-484.7"/>
</g>
<!-- Node97 -->
<g id="node40" class="node">
<title>Node97</title>
<g id="a_node40"><a xlink:href="../../de/db8/process__info_8h.html" target="_top" xlink:title=" ">
<polygon fill="none" stroke="black" points="1650.5,-386 1650.5,-405 1781.5,-405 1781.5,-386 1650.5,-386"/>
<text text-anchor="middle" x="1716" y="-393" font-family="Helvetica,sans-Serif" font-size="10.00">includes/process_info.h</text>
</a>
</g>
</g>
<!-- Node2&#45;&gt;Node97 -->
<g id="edge136" class="edge">
<title>Node2&#45;&gt;Node97</title>
<path fill="none" stroke="midnightblue" d="M1734.47,-704.2C1731.91,-661.52 1720.75,-475.6 1717.13,-415.39"/>
<polygon fill="midnightblue" stroke="midnightblue" points="1720.61,-414.88 1716.52,-405.1 1713.62,-415.3 1720.61,-414.88"/>
</g>
<!-- Node99 -->
<g id="node42" class="node">
<title>Node99</title>
<g id="a_node42"><a xlink:href="../../d5/d6d/geometrical__object_8h.html" target="_top" xlink:title=" ">
<polygon fill="none" stroke="black" points="1876.5,-570.5 1876.5,-600.5 1995.5,-600.5 1995.5,-570.5 1876.5,-570.5"/>
<text text-anchor="start" x="1884.5" y="-588.5" font-family="Helvetica,sans-Serif" font-size="10.00">includes/geometrical</text>
<text text-anchor="middle" x="1936" y="-577.5" font-family="Helvetica,sans-Serif" font-size="10.00">_object.h</text>
</a>
</g>
</g>
<!-- Node2&#45;&gt;Node99 -->
<g id="edge137" class="edge">
<title>Node2&#45;&gt;Node99</title>
<path fill="none" stroke="midnightblue" d="M1748.82,-704.31C1780.76,-684.2 1860.4,-634.08 1904.81,-606.13"/>
<polygon fill="midnightblue" stroke="midnightblue" points="1906.87,-608.97 1913.47,-600.68 1903.14,-603.05 1906.87,-608.97"/>
</g>
<!-- Node108 -->
<g id="node45" class="node">
<title>Node108</title>
<g id="a_node45"><a xlink:href="../../d6/ddf/constitutive__law_8h.html" target="_top" xlink:title=" ">
<polygon fill="none" stroke="black" points="870,-637.5 870,-667.5 988,-667.5 988,-637.5 870,-637.5"/>
<text text-anchor="start" x="878" y="-655.5" font-family="Helvetica,sans-Serif" font-size="10.00">includes/constitutive</text>
<text text-anchor="middle" x="929" y="-644.5" font-family="Helvetica,sans-Serif" font-size="10.00">_law.h</text>
</a>
</g>
</g>
<!-- Node2&#45;&gt;Node108 -->
<g id="edge147" class="edge">
<title>Node2&#45;&gt;Node108</title>
<path fill="none" stroke="midnightblue" d="M1679.92,-708.93C1537.15,-698.39 1155.36,-670.21 998.13,-658.6"/>
<polygon fill="midnightblue" stroke="midnightblue" points="998.33,-655.11 988.1,-657.86 997.82,-662.09 998.33,-655.11"/>
</g>
<!-- Node117 -->
<g id="node47" class="node">
<title>Node117</title>
<g id="a_node47"><a xlink:href="../../db/d71/kratos__parameters_8h.html" target="_top" xlink:title=" ">
<polygon fill="none" stroke="black" points="66.5,-576 66.5,-595 227.5,-595 227.5,-576 66.5,-576"/>
<text text-anchor="middle" x="147" y="-583" font-family="Helvetica,sans-Serif" font-size="10.00">includes/kratos_parameters.h</text>
</a>
</g>
</g>
<!-- Node2&#45;&gt;Node117 -->
<g id="edge175" class="edge">
<title>Node2&#45;&gt;Node117</title>
<path fill="none" stroke="midnightblue" d="M1679.96,-711.24C1541.97,-706.61 1170.16,-692.67 861,-668 585.16,-645.99 516.4,-636.77 242,-601 231.72,-599.66 220.83,-598.12 210.24,-596.55"/>
<polygon fill="midnightblue" stroke="midnightblue" points="210.61,-593.06 200.2,-595.04 209.57,-599.98 210.61,-593.06"/>
</g>
<!-- Node4 -->
<g id="node4" class="node">
<title>Node4</title>
<g id="a_node4"><a xlink:title=" ">
<polygon fill="none" stroke="#bfbfbf" points="580,-6 580,-25 624,-25 624,-6 580,-6"/>
<text text-anchor="middle" x="602" y="-13" font-family="Helvetica,sans-Serif" font-size="10.00">string</text>
</a>
</g>
</g>
<!-- Node3&#45;&gt;Node4 -->
<g id="edge3" class="edge">
<title>Node3&#45;&gt;Node4</title>
<path fill="none" stroke="midnightblue" d="M1131.26,-581.83C967.61,-573.69 515.63,-545.55 385,-478 231.27,-398.51 117,-368.57 117,-195.5 117,-195.5 117,-195.5 117,-132 117,-38.6 461.68,-20.59 569.9,-17.24"/>
<polygon fill="midnightblue" stroke="midnightblue" points="570.01,-20.74 579.9,-16.95 569.8,-13.74 570.01,-20.74"/>
</g>
<!-- Node5 -->
<g id="node5" class="node">
<title>Node5</title>
<g id="a_node5"><a xlink:title=" ">
<polygon fill="none" stroke="#bfbfbf" points="2339,-6 2339,-25 2399,-25 2399,-6 2339,-6"/>
<text text-anchor="middle" x="2369" y="-13" font-family="Helvetica,sans-Serif" font-size="10.00">iostream</text>
</a>
</g>
</g>
<!-- Node3&#45;&gt;Node5 -->
<g id="edge4" class="edge">
<title>Node3&#45;&gt;Node5</title>
<path fill="none" stroke="midnightblue" d="M1250.58,-583.03C1463.55,-577.61 2186.7,-557.84 2417,-534 2567.59,-518.41 2615.46,-541.27 2753,-478 2795.13,-458.62 2813.38,-453.02 2833,-411 2851.43,-371.53 2838.4,-356.22 2833,-313 2817.75,-190.9 2813.03,-127.7 2706,-67 2655.99,-38.64 2487.67,-24.23 2409.51,-18.94"/>
<polygon fill="midnightblue" stroke="midnightblue" points="2409.31,-15.42 2399.1,-18.25 2408.85,-22.4 2409.31,-15.42"/>
</g>
<!-- Node6 -->
<g id="node6" class="node">
<title>Node6</title>
<g id="a_node6"><a xlink:title=" ">
<polygon fill="none" stroke="#bfbfbf" points="1819.5,-252 1819.5,-271 1872.5,-271 1872.5,-252 1819.5,-252"/>
<text text-anchor="middle" x="1846" y="-259" font-family="Helvetica,sans-Serif" font-size="10.00">cstddef</text>
</a>
</g>
</g>
<!-- Node3&#45;&gt;Node6 -->
<g id="edge5" class="edge">
<title>Node3&#45;&gt;Node6</title>
<path fill="none" stroke="midnightblue" d="M1250.67,-578.02C1311.76,-570.55 1409.1,-556.36 1491,-534 1629.62,-496.16 1689.91,-514.1 1790,-411 1825.74,-374.19 1839.11,-312.36 1843.75,-281.38"/>
<polygon fill="midnightblue" stroke="midnightblue" points="1847.27,-281.52 1845.13,-271.14 1840.33,-280.58 1847.27,-281.52"/>
</g>
<!-- Node7 -->
<g id="node7" class="node">
<title>Node7</title>
<g id="a_node7"><a xlink:title=" ">
<polygon fill="none" stroke="#bfbfbf" points="1281.5,-252 1281.5,-271 1374.5,-271 1374.5,-252 1281.5,-252"/>
<text text-anchor="middle" x="1328" y="-259" font-family="Helvetica,sans-Serif" font-size="10.00">unordered_map</text>
</a>
</g>
</g>
<!-- Node3&#45;&gt;Node7 -->
<g id="edge6" class="edge">
<title>Node3&#45;&gt;Node7</title>
<path fill="none" stroke="midnightblue" d="M1131.22,-579.38C1063.6,-572.52 958.88,-558.29 928,-534 870.76,-488.97 833.99,-442.13 872,-380 913.78,-311.7 1158.61,-279.13 1271.29,-267.6"/>
<polygon fill="midnightblue" stroke="midnightblue" points="1271.84,-271.06 1281.44,-266.58 1271.14,-264.09 1271.84,-271.06"/>
</g>
<!-- Node8 -->
<g id="node8" class="node">
<title>Node8</title>
<g id="a_node8"><a xlink:href="../../df/d67/define_8h.html" target="_top" xlink:title=" ">
<polygon fill="none" stroke="black" points="1353.5,-123.5 1353.5,-142.5 1452.5,-142.5 1452.5,-123.5 1353.5,-123.5"/>
<text text-anchor="middle" x="1403" y="-130.5" font-family="Helvetica,sans-Serif" font-size="10.00">includes/define.h</text>
</a>
</g>
</g>
<!-- Node3&#45;&gt;Node8 -->
<g id="edge7" class="edge">
<title>Node3&#45;&gt;Node8</title>
<path fill="none" stroke="midnightblue" d="M1131.32,-581.5C1002.98,-574.66 709.16,-556.7 670,-534 636.76,-514.74 620,-501.91 620,-463.5 620,-463.5 620,-463.5 620,-394.5 620,-251.47 723.47,-224.7 859,-179 947.24,-149.24 1220.59,-138.65 1342.84,-135.34"/>
<polygon fill="midnightblue" stroke="midnightblue" points="1343.23,-138.83 1353.14,-135.07 1343.05,-131.83 1343.23,-138.83"/>
</g>
<!-- Node3&#45;&gt;Node20 -->
<g id="edge22" class="edge">
<title>Node3&#45;&gt;Node20</title>
<path fill="none" stroke="midnightblue" d="M1250.57,-580.24C1404.91,-569.22 1816.22,-539.84 1967.31,-529.05"/>
<polygon fill="midnightblue" stroke="midnightblue" points="1967.58,-532.54 1977.3,-528.34 1967.08,-525.56 1967.58,-532.54"/>
</g>
<!-- Node63 -->
<g id="node28" class="node">
<title>Node63</title>
<g id="a_node28"><a xlink:href="../../d1/d82/data__value__container_8h.html" target="_top" xlink:title=" ">
<polygon fill="none" stroke="red" points="1012.5,-313.5 1012.5,-343.5 1137.5,-343.5 1137.5,-313.5 1012.5,-313.5"/>
<text text-anchor="start" x="1020.5" y="-331.5" font-family="Helvetica,sans-Serif" font-size="10.00">containers/data_value</text>
<text text-anchor="middle" x="1075" y="-320.5" font-family="Helvetica,sans-Serif" font-size="10.00">_container.h</text>
</a>
</g>
</g>
<!-- Node3&#45;&gt;Node63 -->
<g id="edge122" class="edge">
<title>Node3&#45;&gt;Node63</title>
<path fill="none" stroke="midnightblue" d="M1131.22,-580.81C1065.56,-575.36 966.32,-562.54 943,-534 929.25,-517.17 901.13,-472.49 974,-380 985.16,-365.84 1001.33,-355.34 1017.47,-347.69"/>
<polygon fill="midnightblue" stroke="midnightblue" points="1019.2,-350.75 1026.94,-343.51 1016.38,-344.35 1019.2,-350.75"/>
</g>
<!-- Node95 -->
<g id="node39" class="node">
<title>Node95</title>
<g id="a_node39"><a xlink:href="../../d9/d4c/includes_2indexed__object_8h.html" target="_top" xlink:title=" ">
<polygon fill="none" stroke="black" points="1270.5,-386 1270.5,-405 1413.5,-405 1413.5,-386 1270.5,-386"/>
<text text-anchor="middle" x="1342" y="-393" font-family="Helvetica,sans-Serif" font-size="10.00">includes/indexed_object.h</text>
</a>
</g>
</g>
<!-- Node3&#45;&gt;Node95 -->
<g id="edge118" class="edge">
<title>Node3&#45;&gt;Node95</title>
<path fill="none" stroke="midnightblue" d="M1197.88,-575.93C1221.17,-546.94 1297.31,-452.14 1328.5,-413.31"/>
<polygon fill="midnightblue" stroke="midnightblue" points="1331.55,-415.11 1335.08,-405.12 1326.09,-410.72 1331.55,-415.11"/>
</g>
<!-- Node3&#45;&gt;Node97 -->
<g id="edge123" class="edge">
<title>Node3&#45;&gt;Node97</title>
<path fill="none" stroke="midnightblue" d="M1250.66,-575.96C1332.58,-562.71 1483.14,-532.82 1601,-478 1602.29,-477.4 1662.72,-434.43 1695.44,-411.14"/>
<polygon fill="midnightblue" stroke="midnightblue" points="1697.75,-413.79 1703.87,-405.14 1693.69,-408.09 1697.75,-413.79"/>
</g>
<!-- Node98 -->
<g id="node41" class="node">
<title>Node98</title>
<g id="a_node41"><a xlink:href="../../dd/d98/table_8h.html" target="_top" xlink:title=" ">
<polygon fill="none" stroke="red" points="763,-252 763,-271 857,-271 857,-252 763,-252"/>
<text text-anchor="middle" x="810" y="-259" font-family="Helvetica,sans-Serif" font-size="10.00">includes/table.h</text>
</a>
</g>
</g>
<!-- Node3&#45;&gt;Node98 -->
<g id="edge131" class="edge">
<title>Node3&#45;&gt;Node98</title>
<path fill="none" stroke="midnightblue" d="M1131.43,-581.49C1007.95,-574.82 732.56,-557.49 697,-534 667.12,-514.27 658,-499.31 658,-463.5 658,-463.5 658,-463.5 658,-394.5 658,-352.91 673.59,-341.38 704,-313 723,-295.27 749.36,-282.68 771.04,-274.5"/>
<polygon fill="midnightblue" stroke="midnightblue" points="772.4,-277.73 780.63,-271.05 770.04,-271.14 772.4,-277.73"/>
</g>
<!-- Node9 -->
<g id="node9" class="node">
<title>Node9</title>
<g id="a_node9"><a xlink:title=" ">
<polygon fill="none" stroke="#bfbfbf" points="1070.5,-6 1070.5,-25 1135.5,-25 1135.5,-6 1070.5,-6"/>
<text text-anchor="middle" x="1103" y="-13" font-family="Helvetica,sans-Serif" font-size="10.00">stdexcept</text>
</a>
</g>
</g>
<!-- Node8&#45;&gt;Node9 -->
<g id="edge8" class="edge">
<title>Node8&#45;&gt;Node9</title>
<path fill="none" stroke="midnightblue" d="M1353.09,-131.7C1302.81,-129.37 1224.51,-120.08 1166,-87 1143.31,-74.17 1124.52,-50.12 1113.53,-33.72"/>
<polygon fill="midnightblue" stroke="midnightblue" points="1116.34,-31.61 1107.99,-25.08 1110.44,-35.39 1116.34,-31.61"/>
</g>
<!-- Node10 -->
<g id="node10" class="node">
<title>Node10</title>
<g id="a_node10"><a xlink:title=" ">
<polygon fill="none" stroke="#bfbfbf" points="2835,-6 2835,-25 2891,-25 2891,-6 2835,-6"/>
<text text-anchor="middle" x="2863" y="-13" font-family="Helvetica,sans-Serif" font-size="10.00">sstream</text>
</a>
</g>
</g>
<!-- Node8&#45;&gt;Node10 -->
<g id="edge9" class="edge">
<title>Node8&#45;&gt;Node10</title>
<path fill="none" stroke="midnightblue" d="M1452.83,-128.06C1680.9,-110.02 2622.63,-35.52 2824.71,-19.53"/>
<polygon fill="midnightblue" stroke="midnightblue" points="2825.14,-23.01 2834.83,-18.73 2824.59,-16.03 2825.14,-23.01"/>
</g>
<!-- Node11 -->
<g id="node11" class="node">
<title>Node11</title>
<g id="a_node11"><a xlink:href="../../dc/d25/kratos__export__api_8h.html" target="_top" xlink:title=" ">
<polygon fill="none" stroke="black" points="1166,-0.5 1166,-30.5 1294,-30.5 1294,-0.5 1166,-0.5"/>
<text text-anchor="start" x="1174" y="-18.5" font-family="Helvetica,sans-Serif" font-size="10.00">includes/kratos_export</text>
<text text-anchor="middle" x="1230" y="-7.5" font-family="Helvetica,sans-Serif" font-size="10.00">_api.h</text>
</a>
</g>
</g>
<!-- Node8&#45;&gt;Node11 -->
<g id="edge10" class="edge">
<title>Node8&#45;&gt;Node11</title>
<path fill="none" stroke="midnightblue" d="M1353.41,-129.41C1293.02,-125.1 1196.27,-114.07 1174,-87 1160.1,-70.1 1178.15,-50.6 1197.36,-36.4"/>
<polygon fill="midnightblue" stroke="midnightblue" points="1199.38,-39.25 1205.58,-30.66 1195.38,-33.52 1199.38,-39.25"/>
</g>
<!-- Node12 -->
<g id="node12" class="node">
<title>Node12</title>
<g id="a_node12"><a xlink:href="../../d9/dc0/smart__pointers_8h.html" target="_top" xlink:title=" ">
<polygon fill="none" stroke="red" points="2967.5,-67.5 2967.5,-86.5 3110.5,-86.5 3110.5,-67.5 2967.5,-67.5"/>
<text text-anchor="middle" x="3039" y="-74.5" font-family="Helvetica,sans-Serif" font-size="10.00">includes/smart_pointers.h</text>
</a>
</g>
</g>
<!-- Node8&#45;&gt;Node12 -->
<g id="edge11" class="edge">
<title>Node8&#45;&gt;Node12</title>
<path fill="none" stroke="midnightblue" d="M1452.86,-130.35C1685.59,-122.67 2666.04,-90.31 2957.16,-80.7"/>
<polygon fill="midnightblue" stroke="midnightblue" points="2957.35,-84.2 2967.23,-80.37 2957.12,-77.2 2957.35,-84.2"/>
</g>
<!-- Node16 -->
<g id="node15" class="node">
<title>Node16</title>
<g id="a_node15"><a xlink:href="../../dd/d2d/exception_8h.html" target="_top" xlink:title=" ">
<polygon fill="none" stroke="red" points="1183.5,-67.5 1183.5,-86.5 1300.5,-86.5 1300.5,-67.5 1183.5,-67.5"/>
<text text-anchor="middle" x="1242" y="-74.5" font-family="Helvetica,sans-Serif" font-size="10.00">includes/exception.h</text>
</a>
</g>
</g>
<!-- Node8&#45;&gt;Node16 -->
<g id="edge15" class="edge">
<title>Node8&#45;&gt;Node16</title>
<path fill="none" stroke="midnightblue" d="M1377.49,-123.44C1350.4,-114.36 1307.41,-99.94 1277.13,-89.78"/>
<polygon fill="midnightblue" stroke="midnightblue" points="1277.99,-86.38 1267.39,-86.52 1275.76,-93.01 1277.99,-86.38"/>
</g>
<!-- Node12&#45;&gt;Node5 -->
<g id="edge12" class="edge">
<title>Node12&#45;&gt;Node5</title>
<path fill="none" stroke="midnightblue" d="M2967.3,-69.63C2826.84,-57.16 2519.55,-29.87 2409.34,-20.08"/>
<polygon fill="midnightblue" stroke="midnightblue" points="2409.57,-16.59 2399.3,-19.19 2408.95,-23.56 2409.57,-16.59"/>
</g>
<!-- Node13 -->
<g id="node13" class="node">
<title>Node13</title>
<g id="a_node13"><a xlink:title=" ">
<polygon fill="none" stroke="#bfbfbf" points="3053.5,-6 3053.5,-25 3098.5,-25 3098.5,-6 3053.5,-6"/>
<text text-anchor="middle" x="3076" y="-13" font-family="Helvetica,sans-Serif" font-size="10.00">utility</text>
</a>
</g>
</g>
<!-- Node12&#45;&gt;Node13 -->
<g id="edge13" class="edge">
<title>Node12&#45;&gt;Node13</title>
<path fill="none" stroke="midnightblue" d="M3044.3,-67.48C3049.74,-58.73 3058.36,-44.87 3065.24,-33.81"/>
<polygon fill="midnightblue" stroke="midnightblue" points="3068.4,-35.35 3070.71,-25.01 3062.46,-31.65 3068.4,-35.35"/>
</g>
<!-- Node15 -->
<g id="node14" class="node">
<title>Node15</title>
<g id="a_node14"><a xlink:title=" ">
<polygon fill="none" stroke="#bfbfbf" points="3286,-0.5 3286,-30.5 3410,-30.5 3410,-0.5 3286,-0.5"/>
<text text-anchor="start" x="3294" y="-18.5" font-family="Helvetica,sans-Serif" font-size="10.00">intrusive_ptr/intrusive</text>
<text text-anchor="middle" x="3348" y="-7.5" font-family="Helvetica,sans-Serif" font-size="10.00">_ptr.hpp</text>
</a>
</g>
</g>
<!-- Node12&#45;&gt;Node15 -->
<g id="edge14" class="edge">
<title>Node12&#45;&gt;Node15</title>
<path fill="none" stroke="midnightblue" d="M3083.27,-67.48C3133.52,-57.8 3216.21,-41.88 3275.82,-30.4"/>
<polygon fill="midnightblue" stroke="midnightblue" points="3276.76,-33.78 3285.92,-28.45 3275.44,-26.91 3276.76,-33.78"/>
</g>
<!-- Node16&#45;&gt;Node4 -->
<g id="edge17" class="edge">
<title>Node16&#45;&gt;Node4</title>
<path fill="none" stroke="midnightblue" d="M1183.45,-68.6C1178.56,-68.04 1173.7,-67.5 1169,-67 965.7,-45.42 720.71,-25.74 634.17,-18.98"/>
<polygon fill="midnightblue" stroke="midnightblue" points="634.42,-15.49 624.18,-18.2 633.88,-22.47 634.42,-15.49"/>
</g>
<!-- Node16&#45;&gt;Node5 -->
<g id="edge18" class="edge">
<title>Node16&#45;&gt;Node5</title>
<path fill="none" stroke="midnightblue" d="M1300.53,-68.39C1305.42,-67.88 1310.29,-67.4 1315,-67 1709.04,-33.32 2188.02,-20.53 2328.48,-17.35"/>
<polygon fill="midnightblue" stroke="midnightblue" points="2328.84,-20.84 2338.76,-17.12 2328.69,-13.85 2328.84,-20.84"/>
</g>
<!-- Node16&#45;&gt;Node9 -->
<g id="edge16" class="edge">
<title>Node16&#45;&gt;Node9</title>
<path fill="none" stroke="midnightblue" d="M1222.08,-67.48C1198.55,-57.4 1159.19,-40.55 1132.21,-29"/>
<polygon fill="midnightblue" stroke="midnightblue" points="1133.45,-25.73 1122.88,-25.01 1130.69,-32.16 1133.45,-25.73"/>
</g>
<!-- Node16&#45;&gt;Node10 -->
<g id="edge19" class="edge">
<title>Node16&#45;&gt;Node10</title>
<path fill="none" stroke="midnightblue" d="M1300.53,-72.99C1337.39,-71.14 1385.97,-68.79 1429,-67 1983.07,-43.91 2657.87,-22.79 2824.46,-17.67"/>
<polygon fill="midnightblue" stroke="midnightblue" points="2824.8,-21.17 2834.69,-17.36 2824.59,-14.17 2824.8,-21.17"/>
</g>
<!-- Node16&#45;&gt;Node11 -->
<g id="edge21" class="edge">
<title>Node16&#45;&gt;Node11</title>
<path fill="none" stroke="midnightblue" d="M1240.28,-67.48C1238.85,-60.4 1236.75,-49.97 1234.82,-40.39"/>
<polygon fill="midnightblue" stroke="midnightblue" points="1238.24,-39.63 1232.83,-30.52 1231.37,-41.02 1238.24,-39.63"/>
</g>
<!-- Node17 -->
<g id="node16" class="node">
<title>Node17</title>
<g id="a_node16"><a xlink:title=" ">
<polygon fill="none" stroke="#bfbfbf" points="3153.5,-6 3153.5,-25 3200.5,-25 3200.5,-6 3153.5,-6"/>
<text text-anchor="middle" x="3177" y="-13" font-family="Helvetica,sans-Serif" font-size="10.00">vector</text>
</a>
</g>
</g>
<!-- Node16&#45;&gt;Node17 -->
<g id="edge20" class="edge">
<title>Node16&#45;&gt;Node17</title>
<path fill="none" stroke="midnightblue" d="M1300.61,-76.03C1576.26,-75.95 2745.47,-73.1 3108,-31 3119.64,-29.65 3132.22,-27.28 3143.41,-24.85"/>
<polygon fill="midnightblue" stroke="midnightblue" points="3144.25,-28.24 3153.23,-22.62 3142.7,-21.42 3144.25,-28.24"/>
</g>
<!-- Node20&#45;&gt;Node4 -->
<g id="edge23" class="edge">
<title>Node20&#45;&gt;Node4</title>
<path fill="none" stroke="midnightblue" d="M1977.24,-521.93C1813.39,-518 1265.74,-503.24 1092,-478 844.3,-442.02 781.52,-425.89 545,-344 399.12,-293.49 231,-349.88 231,-195.5 231,-195.5 231,-195.5 231,-132 231,-61.34 479.43,-28.98 569.7,-19.56"/>
<polygon fill="midnightblue" stroke="midnightblue" points="570.31,-23.01 579.9,-18.52 569.6,-16.05 570.31,-23.01"/>
</g>
<!-- Node20&#45;&gt;Node5 -->
<g id="edge24" class="edge">
<title>Node20&#45;&gt;Node5</title>
<path fill="none" stroke="midnightblue" d="M2070.82,-522.59C2196.16,-521.01 2536.99,-513.48 2643,-478 2667.08,-469.94 2667.03,-455.4 2691,-447 2841.08,-394.4 2905.87,-484.3 3047,-411 3081.95,-392.85 3087.15,-379.11 3105,-344 3138.82,-277.49 3178.74,-240.16 3136,-179 3051.09,-57.5 2555.48,-25.12 2409.47,-18.16"/>
<polygon fill="midnightblue" stroke="midnightblue" points="2409.32,-14.65 2399.17,-17.68 2409,-21.64 2409.32,-14.65"/>
</g>
<!-- Node20&#45;&gt;Node6 -->
<g id="edge26" class="edge">
<title>Node20&#45;&gt;Node6</title>
<path fill="none" stroke="midnightblue" d="M2042.98,-514.4C2056.89,-506.95 2074.71,-494.74 2083,-478 2089.11,-465.65 2086.7,-460.27 2083,-447 2064.31,-379.97 2057.01,-355.63 2002,-313 1957.99,-278.89 1934.55,-295.42 1882,-277 1880.09,-276.33 1878.14,-275.62 1876.17,-274.89"/>
<polygon fill="midnightblue" stroke="midnightblue" points="1877.03,-271.46 1866.44,-271.11 1874.49,-277.99 1877.03,-271.46"/>
</g>
<!-- Node20&#45;&gt;Node8 -->
<g id="edge28" class="edge">
<title>Node20&#45;&gt;Node8</title>
<path fill="none" stroke="midnightblue" d="M1977.17,-523.46C1879.48,-523.52 1647.33,-518.88 1458,-478 1418.29,-469.42 1410.44,-460.16 1372,-447 1322.93,-430.2 1291.5,-452.95 1261,-411 1241.83,-384.63 1204.67,-377.69 1272,-246 1295.33,-200.37 1346.09,-165.66 1377.12,-147.69"/>
<polygon fill="midnightblue" stroke="midnightblue" points="1379.07,-150.61 1386.07,-142.65 1375.64,-144.51 1379.07,-150.61"/>
</g>
<!-- Node20&#45;&gt;Node10 -->
<g id="edge25" class="edge">
<title>Node20&#45;&gt;Node10</title>
<path fill="none" stroke="midnightblue" d="M2070.79,-521.73C2178.74,-518.39 2453.38,-507.46 2681,-478 2753.7,-468.59 2770.81,-459.76 2843,-447 2941.43,-429.61 2972.01,-447.66 3065,-411 3198.98,-358.18 3307,-339.52 3307,-195.5 3307,-195.5 3307,-195.5 3307,-132 3307,-55.66 3221.33,-88.22 3148,-67 3061.62,-42 2956.73,-27.27 2901.42,-20.67"/>
<polygon fill="midnightblue" stroke="midnightblue" points="2901.7,-17.18 2891.37,-19.5 2900.89,-24.14 2901.7,-17.18"/>
</g>
<!-- Node20&#45;&gt;Node15 -->
<g id="edge102" class="edge">
<title>Node20&#45;&gt;Node15</title>
<path fill="none" stroke="midnightblue" d="M2070.84,-522.37C2189.38,-520.3 2510.68,-511.77 2776,-478 2929.65,-458.44 2966.89,-445.02 3118,-411 3264.31,-378.06 3421,-412.47 3421,-262.5 3421,-262.5 3421,-262.5 3421,-132 3421,-94.44 3393.08,-59.16 3371.77,-37.71"/>
<polygon fill="midnightblue" stroke="midnightblue" points="3374.18,-35.17 3364.56,-30.71 3369.3,-40.19 3374.18,-35.17"/>
</g>
<!-- Node21 -->
<g id="node18" class="node">
<title>Node21</title>
<g id="a_node18"><a xlink:title=" ">
<polygon fill="none" stroke="#bfbfbf" points="2739,-185 2739,-204 2789,-204 2789,-185 2739,-185"/>
<text text-anchor="middle" x="2764" y="-192" font-family="Helvetica,sans-Serif" font-size="10.00">atomic</text>
</a>
</g>
</g>
<!-- Node20&#45;&gt;Node21 -->
<g id="edge27" class="edge">
<title>Node20&#45;&gt;Node21</title>
<path fill="none" stroke="midnightblue" d="M2070.51,-519.94C2145.42,-514.52 2297.23,-501.53 2424,-478 2482.03,-467.23 2638.01,-451.44 2681,-411 2737.21,-358.14 2703.62,-316.49 2735,-246 2740.12,-234.5 2747.12,-222.24 2752.96,-212.68"/>
<polygon fill="midnightblue" stroke="midnightblue" points="2755.96,-214.48 2758.3,-204.15 2750.03,-210.77 2755.96,-214.48"/>
</g>
<!-- Node22 -->
<g id="node19" class="node">
<title>Node22</title>
<g id="a_node19"><a xlink:href="../../da/d55/lock__object_8h.html" target="_top" xlink:title=" ">
<polygon fill="none" stroke="black" points="1467.5,-453 1467.5,-472 1592.5,-472 1592.5,-453 1467.5,-453"/>
<text text-anchor="middle" x="1530" y="-460" font-family="Helvetica,sans-Serif" font-size="10.00">includes/lock_object.h</text>
</a>
</g>
</g>
<!-- Node20&#45;&gt;Node22 -->
<g id="edge29" class="edge">
<title>Node20&#45;&gt;Node22</title>
<path fill="none" stroke="midnightblue" d="M1977.08,-517.35C1890.61,-506.93 1705.56,-484.65 1602.71,-472.26"/>
<polygon fill="midnightblue" stroke="midnightblue" points="1603.06,-468.77 1592.72,-471.05 1602.22,-475.72 1603.06,-468.77"/>
</g>
<!-- Node24 -->
<g id="node21" class="node">
<title>Node24</title>
<g id="a_node21"><a xlink:href="../../d2/d91/point_8h.html" target="_top" xlink:title=" ">
<polygon fill="none" stroke="black" points="1066.5,-386 1066.5,-405 1175.5,-405 1175.5,-386 1066.5,-386"/>
<text text-anchor="middle" x="1121" y="-393" font-family="Helvetica,sans-Serif" font-size="10.00">geometries/point.h</text>
</a>
</g>
</g>
<!-- Node20&#45;&gt;Node24 -->
<g id="edge32" class="edge">
<title>Node20&#45;&gt;Node24</title>
<path fill="none" stroke="midnightblue" d="M1977.42,-522.46C1876.19,-520.63 1628.82,-512.66 1425,-478 1325.86,-461.14 1212.14,-426.4 1156.05,-408.2"/>
<polygon fill="midnightblue" stroke="midnightblue" points="1156.86,-404.78 1146.27,-405 1154.68,-411.44 1156.86,-404.78"/>
</g>
<!-- Node57 -->
<g id="node26" class="node">
<title>Node57</title>
<g id="a_node26"><a xlink:href="../../d9/da0/flags_8h.html" target="_top" xlink:title=" ">
<polygon fill="none" stroke="black" points="1659.5,-252 1659.5,-271 1762.5,-271 1762.5,-252 1659.5,-252"/>
<text text-anchor="middle" x="1711" y="-259" font-family="Helvetica,sans-Serif" font-size="10.00">containers/flags.h</text>
</a>
</g>
</g>
<!-- Node20&#45;&gt;Node57 -->
<g id="edge101" class="edge">
<title>Node20&#45;&gt;Node57</title>
<path fill="none" stroke="midnightblue" d="M2013.72,-514.19C2004.27,-505.67 1990.35,-492.03 1981,-478 1954.61,-438.43 1966.18,-418.32 1938,-380 1911.12,-343.45 1900.36,-335.56 1861,-313 1829.19,-294.77 1789.8,-281.83 1759.36,-273.61"/>
<polygon fill="midnightblue" stroke="midnightblue" points="1759.97,-270.15 1749.41,-271 1758.2,-276.92 1759.97,-270.15"/>
</g>
<!-- Node62 -->
<g id="node27" class="node">
<title>Node62</title>
<g id="a_node27"><a xlink:href="../../d1/d4e/dof_8h.html" target="_top" xlink:title=" ">
<polygon fill="none" stroke="black" points="1990,-453 1990,-472 2074,-472 2074,-453 1990,-453"/>
<text text-anchor="middle" x="2032" y="-460" font-family="Helvetica,sans-Serif" font-size="10.00">includes/dof.h</text>
</a>
</g>
</g>
<!-- Node20&#45;&gt;Node62 -->
<g id="edge54" class="edge">
<title>Node20&#45;&gt;Node62</title>
<path fill="none" stroke="midnightblue" d="M2025.15,-514.48C2026.27,-506.08 2028.04,-492.98 2029.49,-482.16"/>
<polygon fill="midnightblue" stroke="midnightblue" points="2032.99,-482.39 2030.86,-472.01 2026.05,-481.45 2032.99,-482.39"/>
</g>
<!-- Node20&#45;&gt;Node63 -->
<g id="edge113" class="edge">
<title>Node20&#45;&gt;Node63</title>
<path fill="none" stroke="midnightblue" d="M1977.45,-523.73C1860.44,-524.79 1544.95,-522.87 1287,-478 1182.1,-459.75 1120.9,-496.17 1057,-411 1044.38,-394.18 1051.85,-370.24 1060.69,-352.66"/>
<polygon fill="midnightblue" stroke="midnightblue" points="1063.9,-354.08 1065.63,-343.63 1057.76,-350.72 1063.9,-354.08"/>
</g>
<!-- Node86 -->
<g id="node30" class="node">
<title>Node86</title>
<g id="a_node30"><a xlink:href="../../db/d22/nodal__data_8h.html" target="_top" xlink:title=" ">
<polygon fill="none" stroke="black" points="2180,-386 2180,-405 2314,-405 2314,-386 2180,-386"/>
<text text-anchor="middle" x="2247" y="-393" font-family="Helvetica,sans-Serif" font-size="10.00">containers/nodal_data.h</text>
</a>
</g>
</g>
<!-- Node20&#45;&gt;Node86 -->
<g id="edge114" class="edge">
<title>Node20&#45;&gt;Node86</title>
<path fill="none" stroke="midnightblue" d="M2070.52,-519.39C2106.51,-514.63 2156.11,-503.59 2192,-478 2214.75,-461.78 2230.89,-432.98 2239.58,-414.32"/>
<polygon fill="midnightblue" stroke="midnightblue" points="2242.79,-415.7 2243.63,-405.14 2236.39,-412.88 2242.79,-415.7"/>
</g>
<!-- Node87 -->
<g id="node31" class="node">
<title>Node87</title>
<g id="a_node31"><a xlink:href="../../d4/d52/variables__list__data__value__container_8h.html" target="_top" xlink:title=" ">
<polygon fill="none" stroke="red" points="2103.5,-313.5 2103.5,-343.5 2258.5,-343.5 2258.5,-313.5 2103.5,-313.5"/>
<text text-anchor="start" x="2111.5" y="-331.5" font-family="Helvetica,sans-Serif" font-size="10.00">containers/variables</text>
<text text-anchor="middle" x="2181" y="-320.5" font-family="Helvetica,sans-Serif" font-size="10.00">_list_data_value_container.h</text>
</a>
</g>
</g>
<!-- Node20&#45;&gt;Node87 -->
<g id="edge100" class="edge">
<title>Node20&#45;&gt;Node87</title>
<path fill="none" stroke="midnightblue" d="M2070.63,-518.64C2098.88,-513.48 2133.35,-502.29 2154,-478 2182.64,-444.32 2162.93,-423.46 2171,-380 2172.61,-371.35 2174.46,-361.89 2176.12,-353.51"/>
<polygon fill="midnightblue" stroke="midnightblue" points="2179.57,-354.13 2178.11,-343.63 2172.71,-352.75 2179.57,-354.13"/>
</g>
<!-- Node90 -->
<g id="node34" class="node">
<title>Node90</title>
<g id="a_node34"><a xlink:href="../../d4/d35/pointer__vector__set_8h.html" target="_top" xlink:title=" ">
<polygon fill="none" stroke="black" points="2896.5,-380.5 2896.5,-410.5 3001.5,-410.5 3001.5,-380.5 2896.5,-380.5"/>
<text text-anchor="start" x="2904.5" y="-398.5" font-family="Helvetica,sans-Serif" font-size="10.00">containers/pointer</text>
<text text-anchor="middle" x="2949" y="-387.5" font-family="Helvetica,sans-Serif" font-size="10.00">_vector_set.h</text>
</a>
</g>
</g>
<!-- Node20&#45;&gt;Node90 -->
<g id="edge89" class="edge">
<title>Node20&#45;&gt;Node90</title>
<path fill="none" stroke="midnightblue" d="M2070.53,-522.33C2190.22,-520.15 2506.26,-511.31 2605,-478 2629.06,-469.88 2629.33,-456.21 2653,-447 2729.81,-417.1 2824.64,-404.87 2885.94,-399.89"/>
<polygon fill="midnightblue" stroke="midnightblue" points="2886.54,-403.36 2896.24,-399.1 2886,-396.38 2886.54,-403.36"/>
</g>
<!-- Node20&#45;&gt;Node92 -->
<g id="edge103" class="edge">
<title>Node20&#45;&gt;Node92</title>
<path fill="none" stroke="midnightblue" d="M2069.56,-514.48C2118.85,-505.25 2198.5,-490.35 2258.97,-479.04"/>
<polygon fill="midnightblue" stroke="midnightblue" points="2259.7,-482.46 2268.89,-477.18 2258.41,-475.58 2259.7,-482.46"/>
</g>
<!-- Node96 -->
<g id="node38" class="node">
<title>Node96</title>
<g id="a_node38"><a xlink:href="../../d0/dac/kratos__flags_8h.html" target="_top" xlink:title=" ">
<polygon fill="none" stroke="red" points="1653,-319 1653,-338 1781,-338 1781,-319 1653,-319"/>
<text text-anchor="middle" x="1717" y="-326" font-family="Helvetica,sans-Serif" font-size="10.00">includes/kratos_flags.h</text>
</a>
</g>
</g>
<!-- Node20&#45;&gt;Node96 -->
<g id="edge115" class="edge">
<title>Node20&#45;&gt;Node96</title>
<path fill="none" stroke="midnightblue" d="M2008.19,-514.46C1992.55,-505.82 1968.1,-491.8 1948,-478 1890.09,-438.24 1883.71,-417.01 1824,-380 1799.62,-364.89 1770.01,-351.24 1748.12,-341.95"/>
<polygon fill="midnightblue" stroke="midnightblue" points="1749.23,-338.62 1738.66,-338 1746.54,-345.08 1749.23,-338.62"/>
</g>
<!-- Node22&#45;&gt;Node8 -->
<g id="edge31" class="edge">
<title>Node22&#45;&gt;Node8</title>
<path fill="none" stroke="midnightblue" d="M1522.64,-452.91C1515.02,-443.4 1503.59,-427.24 1499,-411 1495.26,-397.74 1494.31,-392.95 1499,-380 1506.09,-360.42 1521.91,-363.58 1529,-344 1533.69,-331.05 1531.62,-326.53 1529,-313 1516.78,-249.96 1516.25,-228.21 1475,-179 1463.66,-165.47 1447.17,-154.75 1432.83,-147.17"/>
<polygon fill="midnightblue" stroke="midnightblue" points="1434.31,-144 1423.8,-142.65 1431.17,-150.26 1434.31,-144"/>
</g>
<!-- Node23 -->
<g id="node20" class="node">
<title>Node23</title>
<g id="a_node20"><a xlink:title=" ">
<polygon fill="none" stroke="#bfbfbf" points="1508,-386 1508,-405 1556,-405 1556,-386 1508,-386"/>
<text text-anchor="middle" x="1532" y="-393" font-family="Helvetica,sans-Serif" font-size="10.00">mutex</text>
</a>
</g>
</g>
<!-- Node22&#45;&gt;Node23 -->
<g id="edge30" class="edge">
<title>Node22&#45;&gt;Node23</title>
<path fill="none" stroke="midnightblue" d="M1530.27,-452.73C1530.56,-443.18 1531.04,-427.62 1531.42,-415.28"/>
<polygon fill="midnightblue" stroke="midnightblue" points="1534.93,-415.23 1531.73,-405.13 1527.93,-415.01 1534.93,-415.23"/>
</g>
<!-- Node24&#45;&gt;Node8 -->
<g id="edge33" class="edge">
<title>Node24&#45;&gt;Node8</title>
<path fill="none" stroke="midnightblue" d="M1125.49,-385.85C1145.93,-346.54 1229.55,-186.35 1239,-179 1268.77,-155.83 1309.68,-144.58 1343.2,-139.12"/>
<polygon fill="midnightblue" stroke="midnightblue" points="1343.96,-142.54 1353.34,-137.61 1342.93,-135.62 1343.96,-142.54"/>
</g>
<!-- Node25 -->
<g id="node22" class="node">
<title>Node25</title>
<g id="a_node22"><a xlink:href="../../d9/d36/array__1d_8h.html" target="_top" xlink:title=" ">
<polygon fill="none" stroke="red" points="951,-252 951,-271 1073,-271 1073,-252 951,-252"/>
<text text-anchor="middle" x="1012" y="-259" font-family="Helvetica,sans-Serif" font-size="10.00">containers/array_1d.h</text>
</a>
</g>
</g>
<!-- Node24&#45;&gt;Node25 -->
<g id="edge34" class="edge">
<title>Node24&#45;&gt;Node25</title>
<path fill="none" stroke="midnightblue" d="M1077.92,-385.92C1037.98,-377 982.84,-361.83 970,-344 954.68,-322.72 976.48,-295.07 993.96,-278.07"/>
<polygon fill="midnightblue" stroke="midnightblue" points="996.57,-280.42 1001.54,-271.06 991.82,-275.28 996.57,-280.42"/>
</g>
<!-- Node47 -->
<g id="node24" class="node">
<title>Node47</title>
<g id="a_node24"><a xlink:href="../../dd/d5f/serializer_8h.html" target="_top" xlink:title=" ">
<polygon fill="none" stroke="red" points="1407.5,-319 1407.5,-338 1520.5,-338 1520.5,-319 1407.5,-319"/>
<text text-anchor="middle" x="1464" y="-326" font-family="Helvetica,sans-Serif" font-size="10.00">includes/serializer.h</text>
</a>
</g>
</g>
<!-- Node24&#45;&gt;Node47 -->
<g id="edge42" class="edge">
<title>Node24&#45;&gt;Node47</title>
<path fill="none" stroke="midnightblue" d="M1160.74,-385.97C1170.31,-383.97 1180.51,-381.87 1190,-380 1264.16,-365.38 1349.88,-349.79 1405.42,-339.86"/>
<polygon fill="midnightblue" stroke="midnightblue" points="1406.2,-343.28 1415.43,-338.08 1404.97,-336.39 1406.2,-343.28"/>
</g>
<!-- Node25&#45;&gt;Node4 -->
<g id="edge35" class="edge">
<title>Node25&#45;&gt;Node4</title>
<path fill="none" stroke="midnightblue" d="M1001.69,-251.97C966.22,-222.93 845.25,-126.47 733,-67 700.53,-49.8 660.88,-35.35 633.76,-26.37"/>
<polygon fill="midnightblue" stroke="midnightblue" points="634.61,-22.97 624.02,-23.2 632.45,-29.62 634.61,-22.97"/>
</g>
<!-- Node25&#45;&gt;Node5 -->
<g id="edge36" class="edge">
<title>Node25&#45;&gt;Node5</title>
<path fill="none" stroke="midnightblue" d="M1003.9,-251.99C989.78,-236.1 963.81,-201.52 982,-179 1000.57,-156.01 1212.95,-128.4 1242,-123 1400.34,-93.59 1439.93,-84.74 1600,-67 1877.9,-36.2 2214.53,-22.03 2328.82,-17.87"/>
<polygon fill="midnightblue" stroke="midnightblue" points="2329,-21.36 2338.87,-17.51 2328.75,-14.37 2329,-21.36"/>
</g>
<!-- Node25&#45;&gt;Node8 -->
<g id="edge37" class="edge">
<title>Node25&#45;&gt;Node8</title>
<path fill="none" stroke="midnightblue" d="M1033.05,-251.85C1055.03,-242.52 1090.24,-226.75 1119,-210 1139.67,-197.96 1140.96,-188.31 1163,-179 1179.4,-172.07 1277.65,-154.86 1343.25,-143.84"/>
<polygon fill="midnightblue" stroke="midnightblue" points="1344.19,-147.23 1353.48,-142.13 1343.04,-140.33 1344.19,-147.23"/>
</g>
<!-- Node29 -->
<g id="node23" class="node">
<title>Node29</title>
<g id="a_node23"><a xlink:href="../../d9/d3e/ublas__interface_8h.html" target="_top" xlink:title=" ">
<polygon fill="none" stroke="red" points="259,-185 259,-204 403,-204 403,-185 259,-185"/>
<text text-anchor="middle" x="331" y="-192" font-family="Helvetica,sans-Serif" font-size="10.00">includes/ublas_interface.h</text>
</a>
</g>
</g>
<!-- Node25&#45;&gt;Node29 -->
<g id="edge38" class="edge">
<title>Node25&#45;&gt;Node29</title>
<path fill="none" stroke="midnightblue" d="M950.92,-254.37C924.77,-251.76 893.89,-248.7 866,-246 705.81,-230.49 518.58,-212.95 413.49,-203.16"/>
<polygon fill="midnightblue" stroke="midnightblue" points="413.55,-199.65 403.27,-202.21 412.9,-206.62 413.55,-199.65"/>
</g>
<!-- Node29&#45;&gt;Node4 -->
<g id="edge39" class="edge">
<title>Node29&#45;&gt;Node4</title>
<path fill="none" stroke="midnightblue" d="M334.33,-184.88C343.65,-161.94 372.26,-98.95 417,-67 463.41,-33.86 530.54,-22.46 569.88,-18.54"/>
<polygon fill="midnightblue" stroke="midnightblue" points="570.32,-22.02 579.97,-17.64 569.7,-15.05 570.32,-22.02"/>
</g>
<!-- Node29&#45;&gt;Node5 -->
<g id="edge40" class="edge">
<title>Node29&#45;&gt;Node5</title>
<path fill="none" stroke="midnightblue" d="M380.03,-184.95C459.5,-171.19 621.41,-143.61 759,-123 943.06,-95.43 988.61,-83.39 1174,-67 1625.97,-27.04 2176.98,-18.5 2328.69,-16.86"/>
<polygon fill="midnightblue" stroke="midnightblue" points="2328.96,-20.36 2338.92,-16.75 2328.88,-13.36 2328.96,-20.36"/>
</g>
<!-- Node29&#45;&gt;Node8 -->
<g id="edge41" class="edge">
<title>Node29&#45;&gt;Node8</title>
<path fill="none" stroke="midnightblue" d="M403.18,-187.9C441.2,-185.05 488.61,-181.63 531,-179 836.17,-160.07 1201.78,-143.03 1343.14,-136.66"/>
<polygon fill="midnightblue" stroke="midnightblue" points="1343.5,-140.15 1353.33,-136.2 1343.18,-133.15 1343.5,-140.15"/>
</g>
<!-- Node47&#45;&gt;Node4 -->
<g id="edge43" class="edge">
<title>Node47&#45;&gt;Node4</title>
<path fill="none" stroke="midnightblue" d="M1407.23,-324.14C1228.86,-313.55 690.99,-281.29 683,-277 642.9,-255.48 621,-241.01 621,-195.5 621,-195.5 621,-195.5 621,-132 621,-97.4 612.6,-57.74 606.97,-35.05"/>
<polygon fill="midnightblue" stroke="midnightblue" points="610.29,-33.92 604.41,-25.11 603.51,-35.67 610.29,-33.92"/>
</g>
<!-- Node47&#45;&gt;Node5 -->
<g id="edge46" class="edge">
<title>Node47&#45;&gt;Node5</title>
<path fill="none" stroke="midnightblue" d="M1473.74,-318.85C1492.7,-302.43 1536.47,-266.53 1579,-246 1849.63,-115.39 2209.04,-44.45 2328.49,-23.32"/>
<polygon fill="midnightblue" stroke="midnightblue" points="2329.4,-26.71 2338.64,-21.54 2328.19,-19.82 2329.4,-26.71"/>
</g>
<!-- Node47&#45;&gt;Node7 -->
<g id="edge47" class="edge">
<title>Node47&#45;&gt;Node7</title>
<path fill="none" stroke="midnightblue" d="M1445.94,-318.87C1422.77,-307.8 1382.37,-288.49 1355.4,-275.6"/>
<polygon fill="midnightblue" stroke="midnightblue" points="1356.67,-272.32 1346.13,-271.17 1353.65,-278.64 1356.67,-272.32"/>
</g>
<!-- Node47&#45;&gt;Node8 -->
<g id="edge48" class="edge">
<title>Node47&#45;&gt;Node8</title>
<path fill="none" stroke="midnightblue" d="M1465.68,-318.88C1469.87,-295.09 1478.8,-227.16 1455,-179 1448.88,-166.62 1437.69,-156.25 1427.24,-148.59"/>
<polygon fill="midnightblue" stroke="midnightblue" points="1429.01,-145.56 1418.78,-142.81 1425.06,-151.34 1429.01,-145.56"/>
</g>
<!-- Node47&#45;&gt;Node10 -->
<g id="edge45" class="edge">
<title>Node47&#45;&gt;Node10</title>
<path fill="none" stroke="midnightblue" d="M1480.44,-318.78C1512.29,-302.22 1585,-266.11 1650,-246 2100.4,-106.68 2672.37,-37.34 2824.45,-20.58"/>
<polygon fill="midnightblue" stroke="midnightblue" points="2825.1,-24.03 2834.66,-19.46 2824.34,-17.07 2825.1,-24.03"/>
</g>
<!-- Node47&#45;&gt;Node25 -->
<g id="edge53" class="edge">
<title>Node47&#45;&gt;Node25</title>
<path fill="none" stroke="midnightblue" d="M1407.21,-319.33C1324.45,-307.43 1170.85,-285.34 1081.47,-272.49"/>
<polygon fill="midnightblue" stroke="midnightblue" points="1081.82,-269 1071.42,-271.05 1080.82,-275.93 1081.82,-269"/>
</g>
<!-- Node50 -->
<g id="node25" class="node">
<title>Node50</title>
<g id="a_node25"><a xlink:title=" ">
<polygon fill="none" stroke="#bfbfbf" points="1891,-252 1891,-271 1941,-271 1941,-252 1891,-252"/>
<text text-anchor="middle" x="1916" y="-259" font-family="Helvetica,sans-Serif" font-size="10.00">cstring</text>
</a>
</g>
</g>
<!-- Node47&#45;&gt;Node50 -->
<g id="edge44" class="edge">
<title>Node47&#45;&gt;Node50</title>
<path fill="none" stroke="midnightblue" d="M1520.65,-322.56C1618.3,-313.73 1814.25,-294.52 1881,-277 1883.45,-276.36 1885.95,-275.58 1888.44,-274.72"/>
<polygon fill="midnightblue" stroke="midnightblue" points="1889.71,-277.98 1897.8,-271.14 1887.21,-271.45 1889.71,-277.98"/>
</g>
<!-- Node47&#45;&gt;Node57 -->
<g id="edge49" class="edge">
<title>Node47&#45;&gt;Node57</title>
<path fill="none" stroke="midnightblue" d="M1496.54,-318.94C1540.69,-307.32 1619.64,-286.54 1668.45,-273.7"/>
<polygon fill="midnightblue" stroke="midnightblue" points="1669.6,-277.01 1678.38,-271.08 1667.82,-270.24 1669.6,-277.01"/>
</g>
<!-- Node57&#45;&gt;Node4 -->
<g id="edge50" class="edge">
<title>Node57&#45;&gt;Node4</title>
<path fill="none" stroke="midnightblue" d="M1709.82,-251.9C1707.07,-235.24 1698.66,-198.47 1676,-179 1601.12,-114.64 1558.09,-141.01 1461,-123 1320.28,-96.9 1283.07,-104.28 1141,-87 948.49,-63.58 717.74,-32.33 634.18,-20.92"/>
<polygon fill="midnightblue" stroke="midnightblue" points="634.44,-17.42 624.06,-19.53 633.49,-24.35 634.44,-17.42"/>
</g>
<!-- Node57&#45;&gt;Node5 -->
<g id="edge51" class="edge">
<title>Node57&#45;&gt;Node5</title>
<path fill="none" stroke="midnightblue" d="M1762.6,-252.66C1777.85,-250.42 1794.59,-248.03 1810,-246 1946.2,-228.04 1989.87,-262.06 2117,-210 2212.84,-170.75 2218.53,-129.66 2301,-67 2317.14,-54.74 2335.61,-41.05 2349.22,-31.01"/>
<polygon fill="midnightblue" stroke="midnightblue" points="2351.41,-33.75 2357.39,-25 2347.26,-28.11 2351.41,-33.75"/>
</g>
<!-- Node57&#45;&gt;Node8 -->
<g id="edge52" class="edge">
<title>Node57&#45;&gt;Node8</title>
<path fill="none" stroke="midnightblue" d="M1706.74,-251.92C1697.83,-234.94 1675.51,-197.16 1645,-179 1589.23,-145.8 1514.46,-136.15 1462.86,-133.8"/>
<polygon fill="midnightblue" stroke="midnightblue" points="1462.99,-130.3 1452.86,-133.42 1462.72,-137.3 1462.99,-130.3"/>
</g>
<!-- Node62&#45;&gt;Node4 -->
<g id="edge55" class="edge">
<title>Node62&#45;&gt;Node4</title>
<path fill="none" stroke="midnightblue" d="M1989.98,-460.33C1827.64,-455.64 1241.38,-437.23 1057,-411 799.35,-374.34 701.81,-423.91 487,-277 450.72,-252.19 431,-239.45 431,-195.5 431,-195.5 431,-195.5 431,-132 431,-65.61 520.61,-34.81 570.09,-22.87"/>
<polygon fill="midnightblue" stroke="midnightblue" points="571.03,-26.25 579.99,-20.6 569.47,-19.42 571.03,-26.25"/>
</g>
<!-- Node62&#45;&gt;Node5 -->
<g id="edge56" class="edge">
<title>Node62&#45;&gt;Node5</title>
<path fill="none" stroke="midnightblue" d="M2061.15,-452.95C2069.74,-450.71 2079.19,-448.5 2088,-447 2182.31,-430.95 2438.28,-465.37 2517,-411 2554.28,-385.25 2597,-231.3 2597,-195.5 2597,-195.5 2597,-195.5 2597,-132 2597,-48.81 2474.73,-25.52 2409.27,-19.02"/>
<polygon fill="midnightblue" stroke="midnightblue" points="2409.55,-15.53 2399.28,-18.11 2408.92,-22.5 2409.55,-15.53"/>
</g>
<!-- Node62&#45;&gt;Node6 -->
<g id="edge58" class="edge">
<title>Node62&#45;&gt;Node6</title>
<path fill="none" stroke="midnightblue" d="M2031.44,-452.85C2029.3,-427.18 2019.32,-350.83 1975,-313 1941.29,-284.23 1923.22,-293.28 1882,-277 1880.36,-276.35 1878.68,-275.69 1876.99,-275.01"/>
<polygon fill="midnightblue" stroke="midnightblue" points="1877.89,-271.6 1867.3,-271.14 1875.28,-278.1 1877.89,-271.6"/>
</g>
<!-- Node62&#45;&gt;Node8 -->
<g id="edge59" class="edge">
<title>Node62&#45;&gt;Node8</title>
<path fill="none" stroke="midnightblue" d="M2024.62,-452.86C2011.81,-437.9 1984.57,-406.25 1961,-380 1933.89,-349.81 1932.39,-336.05 1899,-313 1863.89,-288.76 1846.86,-298.5 1810,-277 1790.87,-265.84 1788.72,-259.28 1771,-246 1729.65,-215.02 1723.81,-198.59 1676,-179 1606.33,-150.46 1519.63,-140 1462.87,-136.18"/>
<polygon fill="midnightblue" stroke="midnightblue" points="1462.83,-132.67 1452.63,-135.54 1462.4,-139.65 1462.83,-132.67"/>
</g>
<!-- Node62&#45;&gt;Node10 -->
<g id="edge57" class="edge">
<title>Node62&#45;&gt;Node10</title>
<path fill="none" stroke="midnightblue" d="M2074.01,-458.63C2119.75,-455.55 2195.05,-450.62 2260,-447 2426.82,-437.7 2849.97,-455.56 3011,-411 3071.75,-394.19 3090.65,-387.78 3136,-344 3193.43,-288.55 3232.89,-254.52 3207,-179 3186.56,-119.37 3173.66,-100.06 3120,-67 3051.37,-24.71 2954.54,-16.78 2901.48,-15.89"/>
<polygon fill="midnightblue" stroke="midnightblue" points="2901.2,-12.39 2891.17,-15.8 2901.13,-19.39 2901.2,-12.39"/>
</g>
<!-- Node62&#45;&gt;Node25 -->
<g id="edge88" class="edge">
<title>Node62&#45;&gt;Node25</title>
<path fill="none" stroke="midnightblue" d="M1989.73,-459.94C1894.69,-455.9 1667.05,-443.09 1598,-411 1579.75,-402.52 1583.46,-388 1565,-380 1507.59,-355.11 1045.81,-389.64 1003,-344 987.14,-327.09 995.1,-298.72 1002.99,-280.31"/>
<polygon fill="midnightblue" stroke="midnightblue" points="1006.17,-281.78 1007.22,-271.24 999.82,-278.82 1006.17,-281.78"/>
</g>
<!-- Node62&#45;&gt;Node63 -->
<g id="edge60" class="edge">
<title>Node62&#45;&gt;Node63</title>
<path fill="none" stroke="midnightblue" d="M1989.92,-458.69C1902.45,-452.42 1703.86,-435.85 1641,-411 1619.09,-402.34 1620.08,-388.22 1598,-380 1427.4,-316.5 1371,-363.39 1190,-344 1176.31,-342.53 1161.73,-340.82 1147.71,-339.09"/>
<polygon fill="midnightblue" stroke="midnightblue" points="1147.98,-335.59 1137.62,-337.83 1147.11,-342.54 1147.98,-335.59"/>
</g>
<!-- Node62&#45;&gt;Node86 -->
<g id="edge71" class="edge">
<title>Node62&#45;&gt;Node86</title>
<path fill="none" stroke="midnightblue" d="M2060.55,-452.87C2098.73,-441.33 2166.51,-420.84 2208.98,-408"/>
<polygon fill="midnightblue" stroke="midnightblue" points="2210.11,-411.31 2218.67,-405.06 2208.09,-404.61 2210.11,-411.31"/>
</g>
<!-- Node63&#45;&gt;Node4 -->
<g id="edge61" class="edge">
<title>Node63&#45;&gt;Node4</title>
<path fill="none" stroke="midnightblue" d="M1012.38,-319.22C995.39,-317.08 977,-314.85 960,-313 916.63,-308.27 598.4,-309.23 569,-277 506.1,-208.04 542.36,-156.45 569,-67 572.71,-54.52 580.6,-42.26 587.73,-32.94"/>
<polygon fill="midnightblue" stroke="midnightblue" points="590.59,-34.97 594.18,-25 585.16,-30.56 590.59,-34.97"/>
</g>
<!-- Node63&#45;&gt;Node5 -->
<g id="edge62" class="edge">
<title>Node63&#45;&gt;Node5</title>
<path fill="none" stroke="midnightblue" d="M1104.81,-313.4C1142.91,-295.78 1211.23,-265.59 1272,-246 1602.29,-139.55 1691.23,-132.55 2032,-67 2138.49,-46.52 2265.25,-29.48 2328.66,-21.45"/>
<polygon fill="midnightblue" stroke="midnightblue" points="2329.16,-24.91 2338.65,-20.19 2328.29,-17.97 2329.16,-24.91"/>
</g>
<!-- Node63&#45;&gt;Node6 -->
<g id="edge63" class="edge">
<title>Node63&#45;&gt;Node6</title>
<path fill="none" stroke="midnightblue" d="M1137.64,-325.44C1259.88,-320.88 1538.6,-307.79 1771,-277 1783.63,-275.33 1797.35,-272.87 1809.56,-270.45"/>
<polygon fill="midnightblue" stroke="midnightblue" points="1810.3,-273.87 1819.4,-268.44 1808.9,-267.01 1810.3,-273.87"/>
</g>
<!-- Node63&#45;&gt;Node8 -->
<g id="edge65" class="edge">
<title>Node63&#45;&gt;Node8</title>
<path fill="none" stroke="midnightblue" d="M1082.65,-313.41C1099.66,-283.51 1143.69,-213.6 1201,-179 1224.64,-164.72 1292.75,-151.36 1343.38,-142.97"/>
<polygon fill="midnightblue" stroke="midnightblue" points="1343.95,-146.42 1353.26,-141.36 1342.82,-139.51 1343.95,-146.42"/>
</g>
<!-- Node63&#45;&gt;Node16 -->
<g id="edge70" class="edge">
<title>Node63&#45;&gt;Node16</title>
<path fill="none" stroke="midnightblue" d="M1012.13,-319.73C921.07,-308.16 762.34,-286.75 754,-277 742.02,-262.99 740.73,-199.85 759,-179 812.63,-117.8 1052.62,-91.81 1172.87,-82.48"/>
<polygon fill="midnightblue" stroke="midnightblue" points="1173.36,-85.95 1183.07,-81.7 1172.83,-78.97 1173.36,-85.95"/>
</g>
<!-- Node63&#45;&gt;Node17 -->
<g id="edge64" class="edge">
<title>Node63&#45;&gt;Node17</title>
<path fill="none" stroke="midnightblue" d="M1137.52,-324.59C1202.58,-321.59 1307.43,-316.82 1398,-313 1804.18,-295.88 1909.15,-331.65 2312,-277 2501.08,-251.35 2543.95,-221.38 2730,-179 2914.63,-136.94 2999.61,-207.11 3146,-87 3161.79,-74.05 3169.77,-51.45 3173.64,-35.33"/>
<polygon fill="midnightblue" stroke="midnightblue" points="3177.1,-35.91 3175.71,-25.41 3170.25,-34.48 3177.1,-35.91"/>
</g>
<!-- Node64 -->
<g id="node29" class="node">
<title>Node64</title>
<g id="a_node29"><a xlink:href="../../da/d89/variable_8h.html" target="_top" xlink:title=" ">
<polygon fill="none" stroke="red" points="991.5,-185 991.5,-204 1110.5,-204 1110.5,-185 991.5,-185"/>
<text text-anchor="middle" x="1051" y="-192" font-family="Helvetica,sans-Serif" font-size="10.00">containers/variable.h</text>
</a>
</g>
</g>
<!-- Node63&#45;&gt;Node64 -->
<g id="edge66" class="edge">
<title>Node63&#45;&gt;Node64</title>
<path fill="none" stroke="midnightblue" d="M1079.21,-313.37C1083.44,-296.88 1088.48,-268.96 1082,-246 1078.52,-233.7 1071.12,-221.44 1064.42,-212.08"/>
<polygon fill="midnightblue" stroke="midnightblue" points="1067.19,-209.94 1058.36,-204.09 1061.61,-214.17 1067.19,-209.94"/>
</g>
<!-- Node64&#45;&gt;Node4 -->
<g id="edge67" class="edge">
<title>Node64&#45;&gt;Node4</title>
<path fill="none" stroke="midnightblue" d="M1041.25,-184.79C1014.73,-161.61 938.27,-98.09 863,-67 784.74,-34.68 684.62,-22.75 634.15,-18.58"/>
<polygon fill="midnightblue" stroke="midnightblue" points="634.4,-15.09 624.16,-17.81 633.86,-22.07 634.4,-15.09"/>
</g>
<!-- Node64&#45;&gt;Node5 -->
<g id="edge68" class="edge">
<title>Node64&#45;&gt;Node5</title>
<path fill="none" stroke="midnightblue" d="M1080.68,-184.97C1133.28,-170.17 1246.54,-139.71 1344,-123 1723.81,-57.87 2190.09,-26.95 2328.47,-18.77"/>
<polygon fill="midnightblue" stroke="midnightblue" points="2328.84,-22.26 2338.61,-18.18 2328.43,-15.27 2328.84,-22.26"/>
</g>
<!-- Node64&#45;&gt;Node8 -->
<g id="edge69" class="edge">
<title>Node64&#45;&gt;Node8</title>
<path fill="none" stroke="midnightblue" d="M1093.22,-184.98C1103.6,-182.95 1114.69,-180.84 1125,-179 1200.1,-165.57 1286.93,-151.79 1343.29,-143.08"/>
<polygon fill="midnightblue" stroke="midnightblue" points="1344.1,-146.5 1353.45,-141.52 1343.04,-139.58 1344.1,-146.5"/>
</g>
<!-- Node86&#45;&gt;Node5 -->
<g id="edge72" class="edge">
<title>Node86&#45;&gt;Node5</title>
<path fill="none" stroke="midnightblue" d="M2290.48,-385.97C2342.95,-372.96 2427.98,-342.4 2459,-277 2488.33,-215.16 2479.1,-188.43 2459,-123 2446.96,-83.81 2411.46,-49.86 2388.81,-31.37"/>
<polygon fill="midnightblue" stroke="midnightblue" points="2390.85,-28.52 2380.83,-25.06 2386.51,-34.01 2390.85,-28.52"/>
</g>
<!-- Node86&#45;&gt;Node87 -->
<g id="edge73" class="edge">
<title>Node86&#45;&gt;Node87</title>
<path fill="none" stroke="midnightblue" d="M2238.1,-385.73C2229.01,-376.78 2214.55,-362.54 2202.46,-350.63"/>
<polygon fill="midnightblue" stroke="midnightblue" points="2204.89,-348.11 2195.31,-343.59 2199.97,-353.1 2204.89,-348.11"/>
</g>
<!-- Node87&#45;&gt;Node4 -->
<g id="edge74" class="edge">
<title>Node87&#45;&gt;Node4</title>
<path fill="none" stroke="midnightblue" d="M2103.48,-324.57C2024.59,-321.6 1898.79,-316.91 1790,-313 1732.45,-310.93 804.61,-304.49 754,-277 715.16,-255.9 697,-239.7 697,-195.5 697,-195.5 697,-195.5 697,-132 697,-87.02 653.49,-50.02 625.36,-30.8"/>
<polygon fill="midnightblue" stroke="midnightblue" points="627.12,-27.77 616.84,-25.2 623.28,-33.62 627.12,-27.77"/>
</g>
<!-- Node87&#45;&gt;Node5 -->
<g id="edge75" class="edge">
<title>Node87&#45;&gt;Node5</title>
<path fill="none" stroke="midnightblue" d="M2253.24,-313.43C2274.84,-305.93 2296.8,-294.47 2312,-277 2336.41,-248.94 2331,-232.69 2331,-195.5 2331,-195.5 2331,-195.5 2331,-132 2331,-95.75 2348.09,-56.17 2359.35,-34.03"/>
<polygon fill="midnightblue" stroke="midnightblue" points="2362.46,-35.64 2364.03,-25.16 2356.27,-32.37 2362.46,-35.64"/>
</g>
<!-- Node87&#45;&gt;Node6 -->
<g id="edge76" class="edge">
<title>Node87&#45;&gt;Node6</title>
<path fill="none" stroke="midnightblue" d="M2103.18,-315.25C2021.79,-302.29 1902.96,-282.92 1882,-277 1879.56,-276.31 1877.06,-275.51 1874.57,-274.65"/>
<polygon fill="midnightblue" stroke="midnightblue" points="1875.76,-271.36 1865.16,-271.11 1873.29,-277.91 1875.76,-271.36"/>
</g>
<!-- Node87&#45;&gt;Node8 -->
<g id="edge78" class="edge">
<title>Node87&#45;&gt;Node8</title>
<path fill="none" stroke="midnightblue" d="M2127.49,-313.44C2098.2,-304.77 2061.72,-292.37 2031,-277 2009.28,-266.13 2007.95,-256.38 1986,-246 1933.74,-221.28 1914.41,-232.14 1861,-210 1834.72,-199.11 1832.1,-187.64 1805,-179 1687.81,-141.65 1542.82,-134.34 1462.91,-133.45"/>
<polygon fill="midnightblue" stroke="midnightblue" points="1462.58,-129.95 1452.55,-133.37 1462.52,-136.95 1462.58,-129.95"/>
</g>
<!-- Node87&#45;&gt;Node50 -->
<g id="edge77" class="edge">
<title>Node87&#45;&gt;Node50</title>
<path fill="none" stroke="midnightblue" d="M2106.3,-313.47C2061.95,-304.48 2004.82,-291.75 1955,-277 1952.36,-276.22 1949.65,-275.35 1946.94,-274.44"/>
<polygon fill="midnightblue" stroke="midnightblue" points="1947.87,-271.05 1937.28,-271.01 1945.53,-277.65 1947.87,-271.05"/>
</g>
<!-- Node87&#45;&gt;Node64 -->
<g id="edge79" class="edge">
<title>Node87&#45;&gt;Node64</title>
<path fill="none" stroke="midnightblue" d="M2104.22,-313.49C2069.25,-305.46 2027.95,-293.61 1993,-277 1971.72,-266.89 1972.21,-253.87 1950,-246 1872.73,-218.63 1318.59,-202.21 1120.87,-197.17"/>
<polygon fill="midnightblue" stroke="midnightblue" points="1120.69,-193.66 1110.6,-196.91 1120.51,-200.66 1120.69,-193.66"/>
</g>
<!-- Node88 -->
<g id="node32" class="node">
<title>Node88</title>
<g id="a_node32"><a xlink:href="../../de/d77/variables__list_8h.html" target="_top" xlink:title=" ">
<polygon fill="none" stroke="black" points="2187,-246.5 2187,-276.5 2303,-276.5 2303,-246.5 2187,-246.5"/>
<text text-anchor="start" x="2195" y="-264.5" font-family="Helvetica,sans-Serif" font-size="10.00">containers/variables</text>
<text text-anchor="middle" x="2245" y="-253.5" font-family="Helvetica,sans-Serif" font-size="10.00">_list.h</text>
</a>
</g>
</g>
<!-- Node87&#45;&gt;Node88 -->
<g id="edge80" class="edge">
<title>Node87&#45;&gt;Node88</title>
<path fill="none" stroke="midnightblue" d="M2194.89,-313.4C2203.36,-304.79 2214.35,-293.63 2223.89,-283.94"/>
<polygon fill="midnightblue" stroke="midnightblue" points="2226.62,-286.16 2231.14,-276.58 2221.63,-281.25 2226.62,-286.16"/>
</g>
<!-- Node88&#45;&gt;Node4 -->
<g id="edge81" class="edge">
<title>Node88&#45;&gt;Node4</title>
<path fill="none" stroke="midnightblue" d="M2230.65,-246.33C2210.38,-227.29 2171.32,-194.12 2131,-179 1730.9,-28.99 1596.57,-150.39 1174,-87 1130.47,-80.47 1120.49,-73.78 1077,-67 911.48,-41.2 711.43,-24.67 634.4,-18.85"/>
<polygon fill="midnightblue" stroke="midnightblue" points="634.59,-15.35 624.36,-18.1 634.07,-22.33 634.59,-15.35"/>
</g>
<!-- Node88&#45;&gt;Node5 -->
<g id="edge82" class="edge">
<title>Node88&#45;&gt;Node5</title>
<path fill="none" stroke="midnightblue" d="M2247.98,-246.4C2255.48,-213.06 2277.43,-127.64 2317,-67 2325.88,-53.39 2339.02,-40.67 2349.88,-31.4"/>
<polygon fill="midnightblue" stroke="midnightblue" points="2352.13,-34.08 2357.62,-25.02 2347.68,-28.67 2352.13,-34.08"/>
</g>
<!-- Node88&#45;&gt;Node8 -->
<g id="edge86" class="edge">
<title>Node88&#45;&gt;Node8</title>
<path fill="none" stroke="midnightblue" d="M2223.28,-246.36C2192.57,-227.21 2134.05,-193.73 2079,-179 1963.72,-148.16 1606.45,-137.94 1463.26,-135.02"/>
<polygon fill="midnightblue" stroke="midnightblue" points="1462.99,-131.52 1452.92,-134.82 1462.85,-138.52 1462.99,-131.52"/>
</g>
<!-- Node88&#45;&gt;Node17 -->
<g id="edge83" class="edge">
<title>Node88&#45;&gt;Node17</title>
<path fill="none" stroke="midnightblue" d="M2281.54,-246.5C2357.58,-218 2538.93,-153.42 2697,-123 2789.64,-105.17 3036.67,-131.22 3120,-87 3142.08,-75.28 3158.7,-50.97 3168.14,-34.2"/>
<polygon fill="midnightblue" stroke="midnightblue" points="3171.24,-35.82 3172.85,-25.35 3165.07,-32.53 3171.24,-35.82"/>
</g>
<!-- Node88&#45;&gt;Node21 -->
<g id="edge84" class="edge">
<title>Node88&#45;&gt;Node21</title>
<path fill="none" stroke="midnightblue" d="M2303.03,-253.23C2411.31,-239.67 2641.12,-210.89 2728.91,-199.9"/>
<polygon fill="midnightblue" stroke="midnightblue" points="2729.4,-203.36 2738.89,-198.64 2728.53,-196.41 2729.4,-203.36"/>
</g>
<!-- Node88&#45;&gt;Node64 -->
<g id="edge87" class="edge">
<title>Node88&#45;&gt;Node64</title>
<path fill="none" stroke="midnightblue" d="M2186.99,-257.27C2133.9,-254.32 2053.16,-249.84 1983,-246 1660.93,-228.36 1276.24,-207.62 1121.03,-199.27"/>
<polygon fill="midnightblue" stroke="midnightblue" points="1120.87,-195.75 1110.7,-198.71 1120.5,-202.74 1120.87,-195.75"/>
</g>
<!-- Node89 -->
<g id="node33" class="node">
<title>Node89</title>
<g id="a_node33"><a xlink:title=" ">
<polygon fill="none" stroke="#bfbfbf" points="3005,-179.5 3005,-209.5 3127,-209.5 3127,-179.5 3005,-179.5"/>
<text text-anchor="start" x="3013" y="-197.5" font-family="Helvetica,sans-Serif" font-size="10.00">boost/iterator/indirect</text>
<text text-anchor="middle" x="3066" y="-186.5" font-family="Helvetica,sans-Serif" font-size="10.00">_iterator.hpp</text>
</a>
</g>
</g>
<!-- Node88&#45;&gt;Node89 -->
<g id="edge85" class="edge">
<title>Node88&#45;&gt;Node89</title>
<path fill="none" stroke="midnightblue" d="M2303.06,-255.9C2449.67,-244.3 2834.53,-213.83 2994.58,-201.15"/>
<polygon fill="midnightblue" stroke="midnightblue" points="2995.1,-204.62 3004.8,-200.35 2994.55,-197.65 2995.1,-204.62"/>
</g>
<!-- Node90&#45;&gt;Node4 -->
<g id="edge91" class="edge">
<title>Node90&#45;&gt;Node4</title>
<path fill="none" stroke="midnightblue" d="M2896.47,-392.71C2815.15,-389.95 2653.88,-384.5 2517,-380 2019.68,-363.65 1894.11,-382.42 1398,-344 1285.49,-335.29 1258.32,-323.86 1146,-313 1032.69,-302.05 732.84,-335.2 635,-277 598.07,-255.03 583,-238.47 583,-195.5 583,-195.5 583,-195.5 583,-132 583,-97.4 591.4,-57.74 597.03,-35.05"/>
<polygon fill="midnightblue" stroke="midnightblue" points="600.49,-35.67 599.59,-25.11 593.71,-33.92 600.49,-35.67"/>
</g>
<!-- Node90&#45;&gt;Node5 -->
<g id="edge92" class="edge">
<title>Node90&#45;&gt;Node5</title>
<path fill="none" stroke="midnightblue" d="M2982.41,-380.34C2997.39,-372.09 3013.56,-360.11 3022,-344 3028.4,-331.8 3026.93,-325.87 3022,-313 2995.7,-244.38 2866.26,-100.78 2801,-67 2733.2,-31.91 2502.98,-20.75 2409.23,-17.6"/>
<polygon fill="midnightblue" stroke="midnightblue" points="2409.12,-14.1 2399.01,-17.28 2408.89,-21.09 2409.12,-14.1"/>
</g>
<!-- Node90&#45;&gt;Node6 -->
<g id="edge94" class="edge">
<title>Node90&#45;&gt;Node6</title>
<path fill="none" stroke="midnightblue" d="M2896.33,-393.1C2721.83,-388.22 2169.34,-370.81 2094,-344 2071.8,-336.1 2072.54,-322.55 2051,-313 1980.79,-281.88 1955.45,-299.43 1882,-277 1879.72,-276.3 1877.38,-275.52 1875.04,-274.69"/>
<polygon fill="midnightblue" stroke="midnightblue" points="1876.18,-271.38 1865.59,-271.1 1873.69,-277.92 1876.18,-271.38"/>
</g>
<!-- Node90&#45;&gt;Node8 -->
<g id="edge97" class="edge">
<title>Node90&#45;&gt;Node8</title>
<path fill="none" stroke="midnightblue" d="M2896.28,-384.03C2811.25,-367.38 2638.44,-334.58 2491,-313 2352.45,-292.72 2308.57,-327.58 2178,-277 2156.03,-268.49 2154.47,-259.26 2135,-246 2110.55,-229.34 2102.95,-227.38 2079,-210 2061.36,-197.2 2061.26,-187.03 2041,-179 1988.14,-158.05 1611.41,-141.82 1462.94,-136.16"/>
<polygon fill="midnightblue" stroke="midnightblue" points="1462.77,-132.65 1452.65,-135.77 1462.51,-139.65 1462.77,-132.65"/>
</g>
<!-- Node90&#45;&gt;Node10 -->
<g id="edge93" class="edge">
<title>Node90&#45;&gt;Node10</title>
<path fill="none" stroke="midnightblue" d="M3001.67,-383.38C3026.74,-375.82 3055.61,-363.54 3076,-344 3132.34,-290.01 3176.5,-245.7 3136,-179 3089.98,-103.22 3034.29,-133.82 2959,-87 2930.96,-69.56 2900.54,-46.44 2881.63,-31.52"/>
<polygon fill="midnightblue" stroke="midnightblue" points="2883.56,-28.59 2873.56,-25.1 2879.21,-34.06 2883.56,-28.59"/>
</g>
<!-- Node90&#45;&gt;Node13 -->
<g id="edge95" class="edge">
<title>Node90&#45;&gt;Node13</title>
<path fill="none" stroke="midnightblue" d="M3001.7,-385.63C3033.73,-378.34 3074.24,-365.59 3105,-344 3135.85,-322.35 3144.79,-312.66 3157,-277 3187.71,-187.34 3166.58,-149.53 3120,-67 3112.77,-54.18 3101.93,-41.7 3092.82,-32.35"/>
<polygon fill="midnightblue" stroke="midnightblue" points="3095.26,-29.84 3085.7,-25.29 3090.34,-34.81 3095.26,-29.84"/>
</g>
<!-- Node90&#45;&gt;Node17 -->
<g id="edge90" class="edge">
<title>Node90&#45;&gt;Node17</title>
<path fill="none" stroke="midnightblue" d="M3001.59,-391.88C3109.31,-383.39 3345,-347.46 3345,-195.5 3345,-195.5 3345,-195.5 3345,-132 3345,-101.2 3342.95,-88.6 3321,-67 3291.14,-37.62 3243.23,-25.27 3210.96,-20.12"/>
<polygon fill="midnightblue" stroke="midnightblue" points="3211.06,-16.6 3200.66,-18.63 3210.06,-23.52 3211.06,-16.6"/>
</g>
<!-- Node90&#45;&gt;Node47 -->
<g id="edge98" class="edge">
<title>Node90&#45;&gt;Node47</title>
<path fill="none" stroke="midnightblue" d="M2896.16,-392.75C2684.05,-385.68 1893.95,-358.9 1644,-344 1606.56,-341.77 1564.81,-338.46 1530.95,-335.56"/>
<polygon fill="midnightblue" stroke="midnightblue" points="1530.97,-332.05 1520.71,-334.68 1530.37,-339.02 1530.97,-332.05"/>
</g>
<!-- Node90&#45;&gt;Node89 -->
<g id="edge96" class="edge">
<title>Node90&#45;&gt;Node89</title>
<path fill="none" stroke="midnightblue" d="M3001.58,-381.7C3021.57,-374.11 3042.51,-362.25 3055,-344 3080.46,-306.78 3076.33,-251.34 3071.12,-219.79"/>
<polygon fill="midnightblue" stroke="midnightblue" points="3074.51,-218.9 3069.27,-209.69 3067.63,-220.16 3074.51,-218.9"/>
</g>
<!-- Node91 -->
<g id="node35" class="node">
<title>Node91</title>
<g id="a_node35"><a xlink:href="../../d6/dc0/set__identity__function_8h.html" target="_top" xlink:title=" ">
<polygon fill="none" stroke="red" points="2885,-313.5 2885,-343.5 3013,-343.5 3013,-313.5 2885,-313.5"/>
<text text-anchor="start" x="2893" y="-331.5" font-family="Helvetica,sans-Serif" font-size="10.00">containers/set_identity</text>
<text text-anchor="middle" x="2949" y="-320.5" font-family="Helvetica,sans-Serif" font-size="10.00">_function.h</text>
</a>
</g>
</g>
<!-- Node90&#45;&gt;Node91 -->
<g id="edge99" class="edge">
<title>Node90&#45;&gt;Node91</title>
<path fill="none" stroke="midnightblue" d="M2949,-380.4C2949,-372.64 2949,-362.81 2949,-353.86"/>
<polygon fill="midnightblue" stroke="midnightblue" points="2952.5,-353.58 2949,-343.58 2945.5,-353.58 2952.5,-353.58"/>
</g>
<!-- Node92&#45;&gt;Node5 -->
<g id="edge105" class="edge">
<title>Node92&#45;&gt;Node5</title>
<path fill="none" stroke="midnightblue" d="M2415.06,-447.86C2416.72,-447.57 2418.37,-447.28 2420,-447 2469.46,-438.41 2606.53,-445.5 2643,-411 2698.98,-358.04 2737.04,-125.61 2687,-67 2651.77,-25.74 2487.12,-18.01 2409.58,-16.69"/>
<polygon fill="midnightblue" stroke="midnightblue" points="2409.29,-13.19 2399.24,-16.55 2409.19,-20.19 2409.29,-13.19"/>
</g>
<!-- Node92&#45;&gt;Node8 -->
<g id="edge107" class="edge">
<title>Node92&#45;&gt;Node8</title>
<path fill="none" stroke="midnightblue" d="M2340.67,-447.29C2338.66,-430.49 2333.86,-402.02 2323,-380 2314.48,-362.72 2284.65,-322.69 2268,-313 2186.53,-265.59 2144.25,-317.21 2059,-277 2039.9,-267.99 2041.66,-255.88 2023,-246 1968.49,-217.16 1944.55,-236.78 1889,-210 1868.1,-199.93 1868.64,-187.36 1847,-179 1778.36,-152.5 1567.19,-140.55 1462.75,-136.15"/>
<polygon fill="midnightblue" stroke="midnightblue" points="1462.82,-132.65 1452.68,-135.74 1462.53,-139.64 1462.82,-132.65"/>
</g>
<!-- Node92&#45;&gt;Node17 -->
<g id="edge104" class="edge">
<title>Node92&#45;&gt;Node17</title>
<path fill="none" stroke="midnightblue" d="M2415.24,-459.78C2573.68,-455.5 2943.72,-442.4 3065,-411 3216.01,-371.91 3383,-418.48 3383,-262.5 3383,-262.5 3383,-262.5 3383,-132 3383,-54.03 3269.33,-28.16 3210.87,-20.02"/>
<polygon fill="midnightblue" stroke="midnightblue" points="3211,-16.51 3200.63,-18.69 3210.1,-23.45 3211,-16.51"/>
</g>
<!-- Node92&#45;&gt;Node47 -->
<g id="edge112" class="edge">
<title>Node92&#45;&gt;Node47</title>
<path fill="none" stroke="midnightblue" d="M2268.65,-450.47C2101.09,-425.28 1692.25,-363.82 1530.99,-339.57"/>
<polygon fill="midnightblue" stroke="midnightblue" points="1531.14,-336.05 1520.73,-338.03 1530.1,-342.98 1531.14,-336.05"/>
</g>
<!-- Node92&#45;&gt;Node89 -->
<g id="edge106" class="edge">
<title>Node92&#45;&gt;Node89</title>
<path fill="none" stroke="midnightblue" d="M2415.19,-457.37C2583.23,-447.7 2984.37,-423.47 3011,-411 3073.21,-381.87 3081.92,-345.42 3088,-277 3089.22,-263.28 3090.81,-259.49 3088,-246 3086.07,-236.71 3082.33,-227.04 3078.47,-218.68"/>
<polygon fill="midnightblue" stroke="midnightblue" points="3081.55,-217 3074,-209.56 3075.26,-220.08 3081.55,-217"/>
</g>
<!-- Node93 -->
<g id="node37" class="node">
<title>Node93</title>
<g id="a_node37"><a xlink:href="../../d6/dd9/global__pointer_8h.html" target="_top" xlink:title=" ">
<polygon fill="none" stroke="red" points="2370,-386 2370,-405 2508,-405 2508,-386 2370,-386"/>
<text text-anchor="middle" x="2439" y="-393" font-family="Helvetica,sans-Serif" font-size="10.00">includes/global_pointer.h</text>
</a>
</g>
</g>
<!-- Node92&#45;&gt;Node93 -->
<g id="edge108" class="edge">
<title>Node92&#45;&gt;Node93</title>
<path fill="none" stroke="midnightblue" d="M2363.05,-447.4C2379.31,-436.5 2401.72,-421.48 2417.98,-410.58"/>
<polygon fill="midnightblue" stroke="midnightblue" points="2419.95,-413.48 2426.3,-405.01 2416.05,-407.67 2419.95,-413.48"/>
</g>
<!-- Node93&#45;&gt;Node5 -->
<g id="edge109" class="edge">
<title>Node93&#45;&gt;Node5</title>
<path fill="none" stroke="midnightblue" d="M2468.86,-385.92C2489.37,-378.37 2515.27,-365.21 2529,-344 2552.71,-307.37 2541.51,-289.15 2535,-246 2522.1,-160.54 2522.65,-125.47 2459,-67 2441.58,-51 2418.2,-38.08 2399.64,-29.31"/>
<polygon fill="midnightblue" stroke="midnightblue" points="2400.97,-26.07 2390.42,-25.11 2398.07,-32.44 2400.97,-26.07"/>
</g>
<!-- Node93&#45;&gt;Node8 -->
<g id="edge110" class="edge">
<title>Node93&#45;&gt;Node8</title>
<path fill="none" stroke="midnightblue" d="M2427.53,-385.81C2404.73,-368.98 2351.55,-331.94 2301,-313 2218.88,-282.23 2188.49,-309.4 2107,-277 2083.4,-267.62 2081.59,-257.6 2059,-246 1986.76,-208.9 1968,-197.82 1889,-179 1738.44,-143.13 1555.32,-135.54 1462.75,-134.13"/>
<polygon fill="midnightblue" stroke="midnightblue" points="1462.77,-130.63 1452.72,-134 1462.68,-137.63 1462.77,-130.63"/>
</g>
<!-- Node93&#45;&gt;Node47 -->
<g id="edge111" class="edge">
<title>Node93&#45;&gt;Node47</title>
<path fill="none" stroke="midnightblue" d="M2377.38,-385.97C2359.84,-383.76 2340.69,-381.57 2323,-380 2021.99,-353.24 1945.53,-364.13 1644,-344 1606.58,-341.5 1564.83,-338.17 1530.96,-335.33"/>
<polygon fill="midnightblue" stroke="midnightblue" points="1530.98,-331.82 1520.72,-334.47 1530.39,-338.8 1530.98,-331.82"/>
</g>
<!-- Node96&#45;&gt;Node8 -->
<g id="edge116" class="edge">
<title>Node96&#45;&gt;Node8</title>
<path fill="none" stroke="midnightblue" d="M1703.69,-318.84C1689.63,-309.39 1667.16,-293.41 1650,-277 1609.16,-237.95 1616.5,-209.61 1569,-179 1537.15,-158.48 1496.1,-147.25 1462.79,-141.13"/>
<polygon fill="midnightblue" stroke="midnightblue" points="1463.17,-137.65 1452.72,-139.4 1461.98,-144.55 1463.17,-137.65"/>
</g>
<!-- Node96&#45;&gt;Node57 -->
<g id="edge117" class="edge">
<title>Node96&#45;&gt;Node57</title>
<path fill="none" stroke="midnightblue" d="M1716.19,-318.73C1715.31,-309.18 1713.87,-293.62 1712.73,-281.28"/>
<polygon fill="midnightblue" stroke="midnightblue" points="1716.2,-280.76 1711.8,-271.13 1709.23,-281.41 1716.2,-280.76"/>
</g>
<!-- Node95&#45;&gt;Node5 -->
<g id="edge119" class="edge">
<title>Node95&#45;&gt;Node5</title>
<path fill="none" stroke="midnightblue" d="M1413.85,-387.17C1440.57,-384.63 1471.15,-381.94 1499,-380 1584.33,-374.07 2189.89,-378.87 2268,-344 2384.63,-291.94 2376.68,-96.91 2371.07,-35.29"/>
<polygon fill="midnightblue" stroke="midnightblue" points="2374.53,-34.71 2370.05,-25.11 2367.57,-35.41 2374.53,-34.71"/>
</g>
<!-- Node95&#45;&gt;Node8 -->
<g id="edge120" class="edge">
<title>Node95&#45;&gt;Node8</title>
<path fill="none" stroke="midnightblue" d="M1343.89,-385.76C1347.3,-370.65 1355.02,-338.78 1365,-313 1371.46,-296.32 1377.69,-294.08 1383,-277 1396.41,-233.85 1400.85,-180.57 1402.31,-152.82"/>
<polygon fill="midnightblue" stroke="midnightblue" points="1405.81,-152.74 1402.76,-142.59 1398.82,-152.42 1405.81,-152.74"/>
</g>
<!-- Node95&#45;&gt;Node47 -->
<g id="edge121" class="edge">
<title>Node95&#45;&gt;Node47</title>
<path fill="none" stroke="midnightblue" d="M1358.2,-385.87C1378.8,-374.89 1414.59,-355.82 1438.78,-342.94"/>
<polygon fill="midnightblue" stroke="midnightblue" points="1440.55,-345.96 1447.73,-338.17 1437.26,-339.78 1440.55,-345.96"/>
</g>
<!-- Node97&#45;&gt;Node4 -->
<g id="edge124" class="edge">
<title>Node97&#45;&gt;Node4</title>
<path fill="none" stroke="midnightblue" d="M1650.26,-387.73C1623.79,-385.12 1592.96,-382.24 1565,-380 1315.51,-360.04 1251.93,-370.06 1003,-344 990.16,-342.66 554.4,-283.07 543,-277 499.81,-254.01 469,-244.43 469,-195.5 469,-195.5 469,-195.5 469,-132 469,-78.58 530.93,-44.28 570.28,-27.88"/>
<polygon fill="midnightblue" stroke="midnightblue" points="571.75,-31.06 579.74,-24.1 569.15,-24.56 571.75,-31.06"/>
</g>
<!-- Node97&#45;&gt;Node5 -->
<g id="edge125" class="edge">
<title>Node97&#45;&gt;Node5</title>
<path fill="none" stroke="midnightblue" d="M1781.58,-394.09C1920.36,-392.42 2239.23,-384.19 2339,-344 2349.91,-339.6 2415.96,-287.63 2421,-277 2461.34,-191.95 2404.3,-76.93 2379.52,-33.79"/>
<polygon fill="midnightblue" stroke="midnightblue" points="2382.47,-31.9 2374.38,-25.07 2376.44,-35.46 2382.47,-31.9"/>
</g>
<!-- Node97&#45;&gt;Node6 -->
<g id="edge127" class="edge">
<title>Node97&#45;&gt;Node6</title>
<path fill="none" stroke="midnightblue" d="M1731.98,-385.93C1747.87,-376.9 1772.37,-361.57 1790,-344 1809.41,-324.65 1826.39,-297.73 1836.43,-280.22"/>
<polygon fill="midnightblue" stroke="midnightblue" points="1839.69,-281.56 1841.49,-271.12 1833.57,-278.15 1839.69,-281.56"/>
</g>
<!-- Node97&#45;&gt;Node8 -->
<g id="edge128" class="edge">
<title>Node97&#45;&gt;Node8</title>
<path fill="none" stroke="midnightblue" d="M1668.77,-385.95C1657.39,-383.95 1645.27,-381.86 1634,-380 1581.65,-371.38 1432.57,-384.24 1398,-344 1389.02,-333.55 1397,-326.74 1398,-313 1402.33,-253.23 1419.54,-238.57 1413,-179 1412.03,-170.14 1410.01,-160.47 1408.04,-152.38"/>
<polygon fill="midnightblue" stroke="midnightblue" points="1411.38,-151.33 1405.48,-142.53 1404.61,-153.09 1411.38,-151.33"/>
</g>
<!-- Node97&#45;&gt;Node10 -->
<g id="edge126" class="edge">
<title>Node97&#45;&gt;Node10</title>
<path fill="none" stroke="midnightblue" d="M1781.68,-393.68C1925.87,-391.2 2265.87,-381.44 2374,-344 2582.9,-271.66 2787.98,-87.67 2846.48,-32.42"/>
<polygon fill="midnightblue" stroke="midnightblue" points="2849.2,-34.66 2854.03,-25.23 2844.38,-29.59 2849.2,-34.66"/>
</g>
<!-- Node97&#45;&gt;Node57 -->
<g id="edge130" class="edge">
<title>Node97&#45;&gt;Node57</title>
<path fill="none" stroke="midnightblue" d="M1674.64,-385.94C1651.65,-378.84 1624.94,-366.18 1611,-344 1603.67,-332.34 1603.78,-324.73 1611,-313 1622.65,-294.07 1643.83,-281.97 1663.71,-274.39"/>
<polygon fill="midnightblue" stroke="midnightblue" points="1665.04,-277.63 1673.32,-271.01 1662.72,-271.02 1665.04,-277.63"/>
</g>
<!-- Node97&#45;&gt;Node63 -->
<g id="edge129" class="edge">
<title>Node97&#45;&gt;Node63</title>
<path fill="none" stroke="midnightblue" d="M1673.36,-385.97C1661.32,-383.78 1648.18,-381.59 1636,-380 1438.81,-354.24 1387.81,-364.44 1190,-344 1176.31,-342.59 1161.72,-340.89 1147.7,-339.17"/>
<polygon fill="midnightblue" stroke="midnightblue" points="1147.97,-335.67 1137.61,-337.91 1147.1,-342.62 1147.97,-335.67"/>
</g>
<!-- Node98&#45;&gt;Node4 -->
<g id="edge132" class="edge">
<title>Node98&#45;&gt;Node4</title>
<path fill="none" stroke="midnightblue" d="M798.31,-251.66C786.83,-242.42 769.54,-226.92 759,-210 723.55,-153.1 755.73,-116.94 711,-67 690.79,-44.43 658.42,-31.22 634.2,-24.01"/>
<polygon fill="midnightblue" stroke="midnightblue" points="634.95,-20.58 624.38,-21.27 633.08,-27.33 634.95,-20.58"/>
</g>
<!-- Node98&#45;&gt;Node5 -->
<g id="edge133" class="edge">
<title>Node98&#45;&gt;Node5</title>
<path fill="none" stroke="midnightblue" d="M812.65,-251.76C818.25,-234.84 832.97,-197.66 859,-179 954.01,-110.88 1001.26,-145.4 1116,-123 1187.71,-109 1367.4,-75.22 1440,-67 1782.27,-28.25 2198.96,-19.02 2328.58,-17.01"/>
<polygon fill="midnightblue" stroke="midnightblue" points="2328.87,-20.51 2338.82,-16.86 2328.77,-13.51 2328.87,-20.51"/>
</g>
<!-- Node98&#45;&gt;Node8 -->
<g id="edge134" class="edge">
<title>Node98&#45;&gt;Node8</title>
<path fill="none" stroke="midnightblue" d="M817.3,-251.9C832.61,-234.55 870.07,-195.59 911,-179 987.89,-147.83 1229.55,-138.07 1343.03,-135.16"/>
<polygon fill="midnightblue" stroke="midnightblue" points="1343.36,-138.66 1353.27,-134.91 1343.19,-131.66 1343.36,-138.66"/>
</g>
<!-- Node98&#45;&gt;Node64 -->
<g id="edge135" class="edge">
<title>Node98&#45;&gt;Node64</title>
<path fill="none" stroke="midnightblue" d="M842,-251.87C885.16,-240.23 962.06,-219.49 1009.58,-206.67"/>
<polygon fill="midnightblue" stroke="midnightblue" points="1010.5,-210.05 1019.25,-204.06 1008.68,-203.29 1010.5,-210.05"/>
</g>
<!-- Node99&#45;&gt;Node8 -->
<g id="edge139" class="edge">
<title>Node99&#45;&gt;Node8</title>
<path fill="none" stroke="midnightblue" d="M1995.66,-585.03C2167.64,-584.39 2644.26,-566.15 2517,-380 2470.7,-312.27 2424.05,-334.93 2345,-313 2253.75,-287.69 2221.19,-316.22 2135,-277 2115.16,-267.97 2115.48,-257.55 2097,-246 2036.8,-208.38 2020.65,-197.07 1952,-179 1861.01,-155.06 1585.56,-141.34 1462.96,-136.27"/>
<polygon fill="midnightblue" stroke="midnightblue" points="1462.78,-132.76 1452.64,-135.85 1462.49,-139.75 1462.78,-132.76"/>
</g>
<!-- Node99&#45;&gt;Node20 -->
<g id="edge140" class="edge">
<title>Node99&#45;&gt;Node20</title>
<path fill="none" stroke="midnightblue" d="M1956.85,-570.4C1970.7,-561.04 1988.81,-548.79 2002.74,-539.38"/>
<polygon fill="midnightblue" stroke="midnightblue" points="2004.87,-542.16 2011.2,-533.66 2000.95,-536.36 2004.87,-542.16"/>
</g>
<!-- Node99&#45;&gt;Node21 -->
<g id="edge138" class="edge">
<title>Node99&#45;&gt;Node21</title>
<path fill="none" stroke="midnightblue" d="M1995.53,-584.78C2179.72,-585.14 2731.74,-582.16 2795,-534 2821.34,-513.95 2819,-496.6 2819,-463.5 2819,-463.5 2819,-463.5 2819,-327.5 2819,-283.45 2792.58,-237.04 2776.36,-212.72"/>
<polygon fill="midnightblue" stroke="midnightblue" points="2779.08,-210.5 2770.53,-204.25 2773.32,-214.47 2779.08,-210.5"/>
</g>
<!-- Node99&#45;&gt;Node57 -->
<g id="edge141" class="edge">
<title>Node99&#45;&gt;Node57</title>
<path fill="none" stroke="midnightblue" d="M1931.28,-570.26C1916.41,-527.17 1866.97,-396 1790,-313 1775.57,-297.43 1755.34,-284.62 1738.96,-275.8"/>
<polygon fill="midnightblue" stroke="midnightblue" points="1740.33,-272.57 1729.84,-271.07 1737.11,-278.78 1740.33,-272.57"/>
</g>
<!-- Node100 -->
<g id="node43" class="node">
<title>Node100</title>
<g id="a_node43"><a xlink:href="../../d4/d67/geometry_8h.html" target="_top" xlink:title=" ">
<polygon fill="none" stroke="red" points="952,-514.5 952,-533.5 1082,-533.5 1082,-514.5 952,-514.5"/>
<text text-anchor="middle" x="1017" y="-521.5" font-family="Helvetica,sans-Serif" font-size="10.00">geometries/geometry.h</text>
</a>
</g>
</g>
<!-- Node99&#45;&gt;Node100 -->
<g id="edge142" class="edge">
<title>Node99&#45;&gt;Node100</title>
<path fill="none" stroke="midnightblue" d="M1876.41,-580.64C1715.17,-570.2 1270.51,-541.41 1092.31,-529.88"/>
<polygon fill="midnightblue" stroke="midnightblue" points="1092.44,-526.38 1082.23,-529.22 1091.99,-533.36 1092.44,-526.38"/>
</g>
<!-- Node100&#45;&gt;Node24 -->
<g id="edge143" class="edge">
<title>Node100&#45;&gt;Node24</title>
<path fill="none" stroke="midnightblue" d="M1024.15,-514.31C1041.29,-493.45 1084.98,-440.31 1107.35,-413.11"/>
<polygon fill="midnightblue" stroke="midnightblue" points="1110.15,-415.2 1113.8,-405.26 1104.75,-410.76 1110.15,-415.2"/>
</g>
<!-- Node100&#45;&gt;Node63 -->
<g id="edge144" class="edge">
<title>Node100&#45;&gt;Node63</title>
<path fill="none" stroke="midnightblue" d="M1011.12,-514.28C996.14,-490.89 959.54,-425.44 986,-380 994.07,-366.15 1007.5,-355.79 1021.52,-348.18"/>
<polygon fill="midnightblue" stroke="midnightblue" points="1023.39,-351.16 1030.77,-343.56 1020.26,-344.9 1023.39,-351.16"/>
</g>
<!-- Node106 -->
<g id="node44" class="node">
<title>Node106</title>
<g id="a_node44"><a xlink:href="../../d8/d88/math__utils_8h.html" target="_top" xlink:title=" ">
<polygon fill="none" stroke="red" points="474.5,-453 474.5,-472 591.5,-472 591.5,-453 474.5,-453"/>
<text text-anchor="middle" x="533" y="-460" font-family="Helvetica,sans-Serif" font-size="10.00">utilities/math_utils.h</text>
</a>
</g>
</g>
<!-- Node100&#45;&gt;Node106 -->
<g id="edge145" class="edge">
<title>Node100&#45;&gt;Node106</title>
<path fill="none" stroke="midnightblue" d="M951.98,-515.01C860.66,-503.78 695.15,-483.43 601.82,-471.96"/>
<polygon fill="midnightblue" stroke="midnightblue" points="601.99,-468.46 591.64,-470.71 601.14,-475.4 601.99,-468.46"/>
</g>
<!-- Node106&#45;&gt;Node29 -->
<g id="edge146" class="edge">
<title>Node106&#45;&gt;Node29</title>
<path fill="none" stroke="midnightblue" d="M526.55,-452.76C509.56,-429.77 462.15,-365.77 422,-313 394.41,-276.75 361.59,-234.61 343.88,-211.95"/>
<polygon fill="midnightblue" stroke="midnightblue" points="346.59,-209.73 337.67,-204.01 341.08,-214.05 346.59,-209.73"/>
</g>
<!-- Node108&#45;&gt;Node3 -->
<g id="edge159" class="edge">
<title>Node108&#45;&gt;Node3</title>
<path fill="none" stroke="midnightblue" d="M985.53,-637.48C1033.82,-625.5 1102.32,-608.5 1146.71,-597.49"/>
<polygon fill="midnightblue" stroke="midnightblue" points="1147.76,-600.83 1156.62,-595.03 1146.07,-594.04 1147.76,-600.83"/>
</g>
<!-- Node108&#45;&gt;Node8 -->
<g id="edge148" class="edge">
<title>Node108&#45;&gt;Node8</title>
<path fill="none" stroke="midnightblue" d="M869.93,-647.8C738.07,-639.29 427.74,-617.75 383,-601 198.84,-532.04 100.29,-306.51 250,-179 291.91,-143.3 1112.35,-135.73 1343.09,-134.3"/>
<polygon fill="midnightblue" stroke="midnightblue" points="1343.33,-137.8 1353.31,-134.24 1343.29,-130.8 1343.33,-137.8"/>
</g>
<!-- Node108&#45;&gt;Node20 -->
<g id="edge158" class="edge">
<title>Node108&#45;&gt;Node20</title>
<path fill="none" stroke="midnightblue" d="M988.01,-650.09C1174.84,-645.35 1745.66,-628.76 1824,-601 1846.21,-593.13 1845.81,-580.29 1867,-570 1899.45,-554.25 1938.43,-543.04 1969.43,-535.75"/>
<polygon fill="midnightblue" stroke="midnightblue" points="1970.22,-539.15 1979.19,-533.52 1968.66,-532.33 1970.22,-539.15"/>
</g>
<!-- Node108&#45;&gt;Node29 -->
<g id="edge163" class="edge">
<title>Node108&#45;&gt;Node29</title>
<path fill="none" stroke="midnightblue" d="M869.83,-645.93C712.19,-630.32 294,-583.38 294,-525 294,-525 294,-525 294,-461.5 294,-367.77 316.82,-257.21 326.62,-214.06"/>
<polygon fill="midnightblue" stroke="midnightblue" points="330.06,-214.7 328.9,-204.16 323.24,-213.12 330.06,-214.7"/>
</g>
<!-- Node108&#45;&gt;Node47 -->
<g id="edge149" class="edge">
<title>Node108&#45;&gt;Node47</title>
<path fill="none" stroke="midnightblue" d="M988.3,-647.38C1070.38,-640.84 1213.65,-626.18 1259,-601 1366.99,-541.05 1435.35,-397.87 1456.76,-347.44"/>
<polygon fill="midnightblue" stroke="midnightblue" points="1460.01,-348.73 1460.61,-338.16 1453.55,-346.05 1460.01,-348.73"/>
</g>
<!-- Node108&#45;&gt;Node57 -->
<g id="edge170" class="edge">
<title>Node108&#45;&gt;Node57</title>
<path fill="none" stroke="midnightblue" d="M988.17,-649.25C1185.7,-640.98 1810,-608.25 1810,-525 1810,-525 1810,-525 1810,-461.5 1810,-424.2 1816.36,-406.39 1790,-380 1742.77,-332.72 1685.21,-396.61 1644,-344 1625.1,-319.88 1659.51,-292.48 1685.63,-276.39"/>
<polygon fill="midnightblue" stroke="midnightblue" points="1687.59,-279.3 1694.42,-271.19 1684.03,-273.27 1687.59,-279.3"/>
</g>
<!-- Node108&#45;&gt;Node63 -->
<g id="edge169" class="edge">
<title>Node108&#45;&gt;Node63</title>
<path fill="none" stroke="midnightblue" d="M920.71,-637.24C908.21,-614.36 886,-567.68 886,-525 886,-525 886,-525 886,-461.5 886,-400.24 953.56,-365.05 1007.9,-346.65"/>
<polygon fill="midnightblue" stroke="midnightblue" points="1009.1,-349.94 1017.52,-343.52 1006.93,-343.28 1009.1,-349.94"/>
</g>
<!-- Node108&#45;&gt;Node97 -->
<g id="edge162" class="edge">
<title>Node108&#45;&gt;Node97</title>
<path fill="none" stroke="midnightblue" d="M988.18,-650.98C1075.05,-648.85 1241.49,-639.54 1377,-601 1499.96,-566.03 1533.06,-552.42 1637,-478 1663.2,-459.24 1688.15,-431.2 1702.77,-413.39"/>
<polygon fill="midnightblue" stroke="midnightblue" points="1705.89,-415.09 1709.42,-405.1 1700.43,-410.71 1705.89,-415.09"/>
</g>
<!-- Node108&#45;&gt;Node100 -->
<g id="edge160" class="edge">
<title>Node108&#45;&gt;Node100</title>
<path fill="none" stroke="midnightblue" d="M938.75,-637.48C955.01,-614.1 987.61,-567.25 1005.16,-542.02"/>
<polygon fill="midnightblue" stroke="midnightblue" points="1008.05,-544 1010.89,-533.79 1002.3,-540 1008.05,-544"/>
</g>
<!-- Node108&#45;&gt;Node106 -->
<g id="edge161" class="edge">
<title>Node108&#45;&gt;Node106</title>
<path fill="none" stroke="midnightblue" d="M869.78,-643.22C825.19,-635.69 763.21,-622.42 712,-601 660.58,-579.49 649.83,-568.43 606,-534 584.49,-517.1 562.22,-494.77 548.03,-479.81"/>
<polygon fill="midnightblue" stroke="midnightblue" points="550.42,-477.25 541.03,-472.34 545.31,-482.03 550.42,-477.25"/>
</g>
<!-- Node109 -->
<g id="node46" class="node">
<title>Node109</title>
<g id="a_node46"><a xlink:href="../../de/dca/variables_8h.html" target="_top" xlink:title=" ">
<polygon fill="none" stroke="red" points="706,-514.5 706,-533.5 820,-533.5 820,-514.5 706,-514.5"/>
<text text-anchor="middle" x="763" y="-521.5" font-family="Helvetica,sans-Serif" font-size="10.00">includes/variables.h</text>
</a>
</g>
</g>
<!-- Node108&#45;&gt;Node109 -->
<g id="edge150" class="edge">
<title>Node108&#45;&gt;Node109</title>
<path fill="none" stroke="midnightblue" d="M869.91,-645.25C815.08,-638.08 739.26,-624.22 721,-601 705.81,-581.68 727,-556.14 744.4,-540.15"/>
<polygon fill="midnightblue" stroke="midnightblue" points="746.75,-542.74 751.98,-533.52 742.14,-537.47 746.75,-542.74"/>
</g>
<!-- Node108&#45;&gt;Node117 -->
<g id="edge164" class="edge">
<title>Node108&#45;&gt;Node117</title>
<path fill="none" stroke="midnightblue" d="M869.58,-648.7C750.33,-642.73 473.44,-627.13 242,-601 231.08,-599.77 219.5,-598.21 208.31,-596.58"/>
<polygon fill="midnightblue" stroke="midnightblue" points="208.59,-593.08 198.18,-595.06 207.55,-600 208.59,-593.08"/>
</g>
<!-- Node120 -->
<g id="node50" class="node">
<title>Node120</title>
<g id="a_node50"><a xlink:href="../../d1/d57/initial__state_8h.html" target="_top" xlink:title=" ">
<polygon fill="none" stroke="black" points="730.5,-576 730.5,-595 857.5,-595 857.5,-576 730.5,-576"/>
<text text-anchor="middle" x="794" y="-583" font-family="Helvetica,sans-Serif" font-size="10.00">includes/initial_state.h</text>
</a>
</g>
</g>
<!-- Node108&#45;&gt;Node120 -->
<g id="edge171" class="edge">
<title>Node108&#45;&gt;Node120</title>
<path fill="none" stroke="midnightblue" d="M899.71,-637.4C876.23,-626.09 843.56,-610.36 820.77,-599.39"/>
<polygon fill="midnightblue" stroke="midnightblue" points="822.2,-596.19 811.67,-595.01 819.16,-602.5 822.2,-596.19"/>
</g>
<!-- Node109&#45;&gt;Node4 -->
<g id="edge151" class="edge">
<title>Node109&#45;&gt;Node4</title>
<path fill="none" stroke="midnightblue" d="M705.99,-519.43C623.69,-513.6 476.17,-500.36 428,-478 398.63,-464.36 233.1,-305.09 217,-277 198.22,-244.24 193,-233.26 193,-195.5 193,-195.5 193,-195.5 193,-132 193,-101.2 192.93,-86.21 217,-67 271.25,-23.68 487.43,-17.38 569.85,-16.57"/>
<polygon fill="midnightblue" stroke="midnightblue" points="569.92,-20.07 579.9,-16.49 569.87,-13.07 569.92,-20.07"/>
</g>
<!-- Node109&#45;&gt;Node5 -->
<g id="edge152" class="edge">
<title>Node109&#45;&gt;Node5</title>
<path fill="none" stroke="midnightblue" d="M820.14,-519.87C855.52,-518.01 901.89,-515.68 943,-514 1449.5,-493.34 1578.74,-529.86 2083,-478 2162.45,-469.83 2181.03,-458.95 2260,-447 2322.46,-437.55 2490.15,-447.1 2542,-411 2668.5,-322.93 2704.9,-165.09 2586,-67 2559.37,-45.03 2464.38,-29.15 2409.3,-21.54"/>
<polygon fill="midnightblue" stroke="midnightblue" points="2409.56,-18.05 2399.18,-20.18 2408.62,-24.98 2409.56,-18.05"/>
</g>
<!-- Node109&#45;&gt;Node8 -->
<g id="edge153" class="edge">
<title>Node109&#45;&gt;Node8</title>
<path fill="none" stroke="midnightblue" d="M763.01,-514.47C763.18,-500.32 764.16,-471.14 769,-447 775.17,-416.27 777.69,-408.38 791,-380 805.93,-348.18 811,-340.41 833,-313 846.28,-296.46 885.26,-260.22 901,-246 935.67,-214.69 938.95,-197.14 982,-179 1045.62,-152.19 1242.56,-140.5 1342.91,-136.17"/>
<polygon fill="midnightblue" stroke="midnightblue" points="1343.34,-139.65 1353.19,-135.74 1343.05,-132.66 1343.34,-139.65"/>
</g>
<!-- Node109&#45;&gt;Node25 -->
<g id="edge156" class="edge">
<title>Node109&#45;&gt;Node25</title>
<path fill="none" stroke="midnightblue" d="M767.45,-514.4C772.12,-505.35 779.64,-490.71 786,-478 807.7,-434.63 801.97,-416.42 834,-380 877.06,-331.04 945.09,-293.85 983.38,-275.39"/>
<polygon fill="midnightblue" stroke="midnightblue" points="984.89,-278.55 992.43,-271.11 981.9,-272.22 984.89,-278.55"/>
</g>
<!-- Node109&#45;&gt;Node29 -->
<g id="edge155" class="edge">
<title>Node109&#45;&gt;Node29</title>
<path fill="none" stroke="midnightblue" d="M705.69,-520.65C630.06,-516.49 502.16,-505.52 465,-478 374.16,-410.71 342.44,-265.96 333.77,-214.3"/>
<polygon fill="midnightblue" stroke="midnightblue" points="337.2,-213.58 332.18,-204.25 330.28,-214.67 337.2,-213.58"/>
</g>
<!-- Node109&#45;&gt;Node64 -->
<g id="edge154" class="edge">
<title>Node109&#45;&gt;Node64</title>
<path fill="none" stroke="midnightblue" d="M764.39,-514.39C768.39,-491.28 781.49,-426.45 809,-380 830.38,-343.9 907.18,-269.4 942,-246 965.67,-230.09 995.16,-216.77 1017.5,-207.81"/>
<polygon fill="midnightblue" stroke="midnightblue" points="1018.87,-211.03 1026.9,-204.12 1016.31,-204.51 1018.87,-211.03"/>
</g>
<!-- Node109&#45;&gt;Node92 -->
<g id="edge157" class="edge">
<title>Node109&#45;&gt;Node92</title>
<path fill="none" stroke="midnightblue" d="M820.14,-519.86C855.52,-517.99 901.89,-515.66 943,-514 1464.15,-492.98 1595.01,-502.7 2116,-478 2163.27,-475.76 2216.04,-472.42 2258.7,-469.51"/>
<polygon fill="midnightblue" stroke="midnightblue" points="2259.02,-473 2268.75,-468.82 2258.54,-466.01 2259.02,-473"/>
</g>
<!-- Node117&#45;&gt;Node29 -->
<g id="edge168" class="edge">
<title>Node117&#45;&gt;Node29</title>
<path fill="none" stroke="midnightblue" d="M159.15,-575.84C171.03,-566.74 188.79,-551.36 199,-534 215.45,-506.03 218,-495.95 218,-463.5 218,-463.5 218,-463.5 218,-394.5 218,-317.22 283.24,-242.49 314.58,-211.05"/>
<polygon fill="midnightblue" stroke="midnightblue" points="317.06,-213.51 321.75,-204.01 312.16,-208.52 317.06,-213.51"/>
</g>
<!-- Node117&#45;&gt;Node47 -->
<g id="edge167" class="edge">
<title>Node117&#45;&gt;Node47</title>
<path fill="none" stroke="midnightblue" d="M227.73,-583.27C441.71,-579.57 1012.46,-566.72 1091,-534 1185.11,-494.79 1171.05,-427.97 1261,-380 1303.48,-357.34 1356.4,-344.61 1397.56,-337.6"/>
<polygon fill="midnightblue" stroke="midnightblue" points="1398.18,-341.04 1407.49,-335.98 1397.05,-334.13 1398.18,-341.04"/>
</g>
<!-- Node118 -->
<g id="node48" class="node">
<title>Node118</title>
<g id="a_node48"><a xlink:title=" ">
<polygon fill="none" stroke="#bfbfbf" points="0,-514.5 0,-533.5 68,-533.5 68,-514.5 0,-514.5"/>
<text text-anchor="middle" x="34" y="-521.5" font-family="Helvetica,sans-Serif" font-size="10.00">filesystem</text>
</a>
</g>
</g>
<!-- Node117&#45;&gt;Node118 -->
<g id="edge165" class="edge">
<title>Node117&#45;&gt;Node118</title>
<path fill="none" stroke="midnightblue" d="M130.81,-575.98C112.1,-566.12 81.08,-549.79 59.2,-538.27"/>
<polygon fill="midnightblue" stroke="midnightblue" points="60.64,-535.07 50.16,-533.51 57.38,-541.27 60.64,-535.07"/>
</g>
<!-- Node119 -->
<g id="node49" class="node">
<title>Node119</title>
<g id="a_node49"><a xlink:title=" ">
<polygon fill="none" stroke="#bfbfbf" points="86,-514.5 86,-533.5 190,-533.5 190,-514.5 86,-514.5"/>
<text text-anchor="middle" x="138" y="-521.5" font-family="Helvetica,sans-Serif" font-size="10.00">json/json_fwd.hpp</text>
</a>
</g>
</g>
<!-- Node117&#45;&gt;Node119 -->
<g id="edge166" class="edge">
<title>Node117&#45;&gt;Node119</title>
<path fill="none" stroke="midnightblue" d="M145.71,-575.98C144.44,-567.58 142.46,-554.48 140.82,-543.66"/>
<polygon fill="midnightblue" stroke="midnightblue" points="144.24,-542.87 139.29,-533.51 137.32,-543.92 144.24,-542.87"/>
</g>
<!-- Node120&#45;&gt;Node8 -->
<g id="edge173" class="edge">
<title>Node120&#45;&gt;Node8</title>
<path fill="none" stroke="midnightblue" d="M730.44,-585.32C611.87,-584.07 373.68,-566.96 428,-447 507.23,-272.04 584.03,-237.38 767,-179 873.12,-145.14 1205.46,-136.71 1342.75,-134.65"/>
<polygon fill="midnightblue" stroke="midnightblue" points="1343.12,-138.14 1353.07,-134.5 1343.02,-131.14 1343.12,-138.14"/>
</g>
<!-- Node120&#45;&gt;Node21 -->
<g id="edge172" class="edge">
<title>Node120&#45;&gt;Node21</title>
<path fill="none" stroke="midnightblue" d="M857.79,-581.56C923.89,-578.53 1030.16,-573.76 1122,-570 1212.17,-566.31 2743,-553.75 2743,-463.5 2743,-463.5 2743,-463.5 2743,-394.5 2743,-328.02 2754.73,-249.73 2760.66,-214.44"/>
<polygon fill="midnightblue" stroke="midnightblue" points="2764.18,-214.64 2762.42,-204.19 2757.28,-213.46 2764.18,-214.64"/>
</g>
<!-- Node120&#45;&gt;Node109 -->
<g id="edge174" class="edge">
<title>Node120&#45;&gt;Node109</title>
<path fill="none" stroke="midnightblue" d="M789.56,-575.98C785.05,-567.32 777.93,-553.65 772.19,-542.65"/>
<polygon fill="midnightblue" stroke="midnightblue" points="775.16,-540.76 767.43,-533.51 768.95,-543.99 775.16,-540.76"/>
</g>
</g>
</svg>
