<?xml version="1.0" encoding="UTF-8" standalone="no"?>
<!DOCTYPE svg PUBLIC "-//W3C//DTD SVG 1.1//EN"
 "http://www.w3.org/Graphics/SVG/1.1/DTD/svg11.dtd">
<!-- Generated by graphviz version 7.1.0 (0)
 -->
<!-- Title: Kratos::UpdatedLagrangian::GeneralVariables Pages: 1 -->
<svg width="349pt" height="563pt"
 viewBox="0.00 0.00 348.50 563.00" xmlns="http://www.w3.org/2000/svg" xmlns:xlink="http://www.w3.org/1999/xlink">
<g id="graph0" class="graph" transform="scale(1 1) rotate(0) translate(4 559)">
<title>Kratos::UpdatedLagrangian::GeneralVariables</title>
<!-- Node1 -->
<g id="node1" class="node">
<title>Node1</title>
<g id="a_node1"><a xlink:title=" ">
<polygon fill="#999999" stroke="#666666" points="96,-0.5 96,-123.5 245,-123.5 245,-0.5 96,-0.5"/>
<text text-anchor="start" x="104" y="-111.5" font-family="Helvetica,sans-Serif" font-size="10.00">Kratos::UpdatedLagrangian</text>
<text text-anchor="middle" x="170.5" y="-100.5" font-family="Helvetica,sans-Serif" font-size="10.00">::GeneralVariables</text>
<polyline fill="none" stroke="#666666" points="96,-93.5 245,-93.5"/>
<text text-anchor="start" x="104" y="-81.5" font-family="Helvetica,sans-Serif" font-size="10.00">+ StressMeasure</text>
<text text-anchor="start" x="104" y="-70.5" font-family="Helvetica,sans-Serif" font-size="10.00">+ CurrentRadius</text>
<text text-anchor="start" x="104" y="-59.5" font-family="Helvetica,sans-Serif" font-size="10.00">+ ReferenceRadius</text>
<text text-anchor="start" x="104" y="-48.5" font-family="Helvetica,sans-Serif" font-size="10.00">+ detF</text>
<text text-anchor="start" x="104" y="-37.5" font-family="Helvetica,sans-Serif" font-size="10.00">+ detF0</text>
<text text-anchor="start" x="104" y="-26.5" font-family="Helvetica,sans-Serif" font-size="10.00">+ detFT</text>
<polyline fill="none" stroke="#666666" points="96,-19.5 245,-19.5"/>
<text text-anchor="middle" x="170.5" y="-7.5" font-family="Helvetica,sans-Serif" font-size="10.00"> </text>
</a>
</g>
</g>
<!-- Node2 -->
<g id="node2" class="node">
<title>Node2</title>
<g id="a_node2"><a xlink:href="../../d9/dbb/class_kratos_1_1_internals_1_1_matrix.html" target="_top" xlink:title=" ">
<polygon fill="white" stroke="#666666" points="17,-237.5 17,-426.5 154,-426.5 154,-237.5 17,-237.5"/>
<text text-anchor="start" x="25" y="-414.5" font-family="Helvetica,sans-Serif" font-size="10.00">Kratos::Internals::</text>
<text text-anchor="start" x="25" y="-403.5" font-family="Helvetica,sans-Serif" font-size="10.00">Matrix&lt; double, AMatrix</text>
<text text-anchor="middle" x="85.5" y="-392.5" font-family="Helvetica,sans-Serif" font-size="10.00">::dynamic, 1 &gt;</text>
<polyline fill="none" stroke="#666666" points="17,-385.5 154,-385.5"/>
<text text-anchor="middle" x="85.5" y="-373.5" font-family="Helvetica,sans-Serif" font-size="10.00"> </text>
<polyline fill="none" stroke="#666666" points="17,-366.5 154,-366.5"/>
<text text-anchor="start" x="25" y="-354.5" font-family="Helvetica,sans-Serif" font-size="10.00">+ Matrix()</text>
<text text-anchor="start" x="25" y="-343.5" font-family="Helvetica,sans-Serif" font-size="10.00">+ Matrix()</text>
<text text-anchor="start" x="25" y="-332.5" font-family="Helvetica,sans-Serif" font-size="10.00">+ Matrix()</text>
<text text-anchor="start" x="25" y="-321.5" font-family="Helvetica,sans-Serif" font-size="10.00">+ Matrix()</text>
<text text-anchor="start" x="25" y="-310.5" font-family="Helvetica,sans-Serif" font-size="10.00">+ Matrix()</text>
<text text-anchor="start" x="25" y="-299.5" font-family="Helvetica,sans-Serif" font-size="10.00">+ Matrix()</text>
<text text-anchor="start" x="25" y="-288.5" font-family="Helvetica,sans-Serif" font-size="10.00">+ Matrix()</text>
<text text-anchor="start" x="25" y="-277.5" font-family="Helvetica,sans-Serif" font-size="10.00">+ Matrix()</text>
<text text-anchor="start" x="25" y="-266.5" font-family="Helvetica,sans-Serif" font-size="10.00">+ operator=()</text>
<text text-anchor="start" x="25" y="-255.5" font-family="Helvetica,sans-Serif" font-size="10.00">+ operator=()</text>
<text text-anchor="start" x="25" y="-244.5" font-family="Helvetica,sans-Serif" font-size="10.00">and 30 more...</text>
</a>
</g>
</g>
<!-- Node2&#45;&gt;Node1 -->
<g id="edge1" class="edge">
<title>Node2&#45;&gt;Node1</title>
<path fill="none" stroke="#404040" d="M113.53,-237.57C122.86,-207.04 133.44,-173.02 143.5,-142 144.18,-139.91 144.87,-137.8 145.57,-135.67"/>
<polygon fill="none" stroke="#404040" points="145.6,-135.56 143.7,-128.61 149.38,-124.18 151.29,-131.13 145.6,-135.56"/>
<text text-anchor="middle" x="179" y="-183.5" font-family="Helvetica,sans-Serif" font-size="10.00"> +StrainVector</text>
<text text-anchor="middle" x="179" y="-172.5" font-family="Helvetica,sans-Serif" font-size="10.00">+StressVector</text>
</g>
<!-- Node3 -->
<g id="node3" class="node">
<title>Node3</title>
<g id="a_node3"><a xlink:title=" ">
<polygon fill="white" stroke="#666666" points="0,-464.5 0,-554.5 165,-554.5 165,-464.5 0,-464.5"/>
<text text-anchor="start" x="8" y="-542.5" font-family="Helvetica,sans-Serif" font-size="10.00">AMatrix::MatrixExpression</text>
<text text-anchor="start" x="8" y="-531.5" font-family="Helvetica,sans-Serif" font-size="10.00">&lt; Matrix&lt; double, TSize1,</text>
<text text-anchor="start" x="8" y="-520.5" font-family="Helvetica,sans-Serif" font-size="10.00"> TSize2 &gt;, AMatrix::row_major</text>
<text text-anchor="middle" x="82.5" y="-509.5" font-family="Helvetica,sans-Serif" font-size="10.00">_access &gt;</text>
<polyline fill="none" stroke="#666666" points="0,-502.5 165,-502.5"/>
<text text-anchor="middle" x="82.5" y="-490.5" font-family="Helvetica,sans-Serif" font-size="10.00"> </text>
<polyline fill="none" stroke="#666666" points="0,-483.5 165,-483.5"/>
<text text-anchor="middle" x="82.5" y="-471.5" font-family="Helvetica,sans-Serif" font-size="10.00"> </text>
</a>
</g>
</g>
<!-- Node3&#45;&gt;Node2 -->
<g id="edge2" class="edge">
<title>Node3&#45;&gt;Node2</title>
<path fill="none" stroke="#63b8ff" d="M83.44,-453.25C83.59,-444.62 83.75,-435.51 83.9,-426.32"/>
<polygon fill="none" stroke="#63b8ff" points="79.95,-453.09 83.28,-463.15 86.95,-453.21 79.95,-453.09"/>
</g>
<!-- Node5 -->
<g id="node5" class="node">
<title>Node5</title>
<g id="a_node5"><a xlink:href="../../d9/dbb/class_kratos_1_1_internals_1_1_matrix.html" target="_top" xlink:title=" ">
<polygon fill="white" stroke="#666666" points="172.5,-237.5 172.5,-426.5 340.5,-426.5 340.5,-237.5 172.5,-237.5"/>
<text text-anchor="start" x="180.5" y="-414.5" font-family="Helvetica,sans-Serif" font-size="10.00">Kratos::Internals::</text>
<text text-anchor="start" x="180.5" y="-403.5" font-family="Helvetica,sans-Serif" font-size="10.00">Matrix&lt; double, AMatrix</text>
<text text-anchor="middle" x="256.5" y="-392.5" font-family="Helvetica,sans-Serif" font-size="10.00">::dynamic, AMatrix::dynamic &gt;</text>
<polyline fill="none" stroke="#666666" points="172.5,-385.5 340.5,-385.5"/>
<text text-anchor="middle" x="256.5" y="-373.5" font-family="Helvetica,sans-Serif" font-size="10.00"> </text>
<polyline fill="none" stroke="#666666" points="172.5,-366.5 340.5,-366.5"/>
<text text-anchor="start" x="180.5" y="-354.5" font-family="Helvetica,sans-Serif" font-size="10.00">+ Matrix()</text>
<text text-anchor="start" x="180.5" y="-343.5" font-family="Helvetica,sans-Serif" font-size="10.00">+ Matrix()</text>
<text text-anchor="start" x="180.5" y="-332.5" font-family="Helvetica,sans-Serif" font-size="10.00">+ Matrix()</text>
<text text-anchor="start" x="180.5" y="-321.5" font-family="Helvetica,sans-Serif" font-size="10.00">+ Matrix()</text>
<text text-anchor="start" x="180.5" y="-310.5" font-family="Helvetica,sans-Serif" font-size="10.00">+ Matrix()</text>
<text text-anchor="start" x="180.5" y="-299.5" font-family="Helvetica,sans-Serif" font-size="10.00">+ Matrix()</text>
<text text-anchor="start" x="180.5" y="-288.5" font-family="Helvetica,sans-Serif" font-size="10.00">+ Matrix()</text>
<text text-anchor="start" x="180.5" y="-277.5" font-family="Helvetica,sans-Serif" font-size="10.00">+ Matrix()</text>
<text text-anchor="start" x="180.5" y="-266.5" font-family="Helvetica,sans-Serif" font-size="10.00">+ operator=()</text>
<text text-anchor="start" x="180.5" y="-255.5" font-family="Helvetica,sans-Serif" font-size="10.00">+ operator=()</text>
<text text-anchor="start" x="180.5" y="-244.5" font-family="Helvetica,sans-Serif" font-size="10.00">and 30 more...</text>
</a>
</g>
</g>
<!-- Node3&#45;&gt;Node5 -->
<g id="edge5" class="edge">
<title>Node3&#45;&gt;Node5</title>
<path fill="none" stroke="#63b8ff" d="M134.29,-456.43C144,-446.65 154.06,-436.52 163.5,-427 166.49,-423.98 169.53,-420.91 172.61,-417.81"/>
<polygon fill="none" stroke="#63b8ff" points="131.87,-453.9 127.3,-463.46 136.84,-458.83 131.87,-453.9"/>
</g>
<!-- Node4 -->
<g id="node4" class="node">
<title>Node4</title>
<g id="a_node4"><a xlink:title=" ">
<polygon fill="white" stroke="#666666" points="183,-475.5 183,-543.5 332,-543.5 332,-475.5 183,-475.5"/>
<text text-anchor="start" x="191" y="-531.5" font-family="Helvetica,sans-Serif" font-size="10.00">AMatrix::MatrixStorage</text>
<text text-anchor="middle" x="257.5" y="-520.5" font-family="Helvetica,sans-Serif" font-size="10.00">&lt; double, TSize1, TSize2 &gt;</text>
<polyline fill="none" stroke="#666666" points="183,-513.5 332,-513.5"/>
<text text-anchor="middle" x="257.5" y="-501.5" font-family="Helvetica,sans-Serif" font-size="10.00"> </text>
<polyline fill="none" stroke="#666666" points="183,-494.5 332,-494.5"/>
<text text-anchor="middle" x="257.5" y="-482.5" font-family="Helvetica,sans-Serif" font-size="10.00"> </text>
</a>
</g>
</g>
<!-- Node4&#45;&gt;Node2 -->
<g id="edge3" class="edge">
<title>Node4&#45;&gt;Node2</title>
<path fill="none" stroke="#63b8ff" d="M208.28,-468.48C193.43,-455.71 177.39,-441.2 163.5,-427 160.24,-423.67 156.96,-420.21 153.69,-416.68"/>
<polygon fill="none" stroke="#63b8ff" points="205.83,-470.99 215.71,-474.8 210.37,-465.65 205.83,-470.99"/>
</g>
<!-- Node4&#45;&gt;Node5 -->
<g id="edge6" class="edge">
<title>Node4&#45;&gt;Node5</title>
<path fill="none" stroke="#63b8ff" d="M257.25,-464.63C257.18,-452.83 257.11,-439.61 257.03,-426.23"/>
<polygon fill="none" stroke="#63b8ff" points="253.75,-464.41 257.31,-474.39 260.75,-464.37 253.75,-464.41"/>
</g>
<!-- Node5&#45;&gt;Node1 -->
<g id="edge4" class="edge">
<title>Node5&#45;&gt;Node1</title>
<path fill="none" stroke="#404040" d="M241.33,-237.63C234.84,-206.63 226.03,-172.32 214.5,-142 213.62,-139.69 212.68,-137.36 211.7,-135.03"/>
<polygon fill="none" stroke="#404040" points="211.75,-135.15 205.63,-131.34 206.79,-124.22 212.92,-128.03 211.75,-135.15"/>
<text text-anchor="middle" x="286.5" y="-211" font-family="Helvetica,sans-Serif" font-size="10.00"> +B</text>
<text text-anchor="middle" x="286.5" y="-200" font-family="Helvetica,sans-Serif" font-size="10.00">+ConstitutiveMatrix</text>
<text text-anchor="middle" x="286.5" y="-189" font-family="Helvetica,sans-Serif" font-size="10.00">+CurrentDisp</text>
<text text-anchor="middle" x="286.5" y="-178" font-family="Helvetica,sans-Serif" font-size="10.00">+DN_DX</text>
<text text-anchor="middle" x="286.5" y="-167" font-family="Helvetica,sans-Serif" font-size="10.00">+F</text>
<text text-anchor="middle" x="286.5" y="-156" font-family="Helvetica,sans-Serif" font-size="10.00">+F0</text>
<text text-anchor="middle" x="286.5" y="-145" font-family="Helvetica,sans-Serif" font-size="10.00">+FT</text>
</g>
</g>
</svg>
