<?xml version="1.0" encoding="UTF-8" standalone="no"?>
<!DOCTYPE svg PUBLIC "-//W3C//DTD SVG 1.1//EN"
 "http://www.w3.org/Graphics/SVG/1.1/DTD/svg11.dtd">
<!-- Generated by graphviz version 7.1.0 (0)
 -->
<!-- Title: /software/kratos/doxygen/kratos/python/add_matrix_to_python.cpp Pages: 1 -->
<svg width="3151pt" height="434pt"
 viewBox="0.00 0.00 3151.00 434.00" xmlns="http://www.w3.org/2000/svg" xmlns:xlink="http://www.w3.org/1999/xlink">
<g id="graph0" class="graph" transform="scale(1 1) rotate(0) translate(4 430)">
<title>/software/kratos/doxygen/kratos/python/add_matrix_to_python.cpp</title>
<!-- Node1 -->
<g id="node1" class="node">
<title>Node1</title>
<g id="a_node1"><a xlink:title=" ">
<polygon fill="#999999" stroke="#666666" points="1147,-426 1001,-426 1001,-385 1147,-385 1147,-426"/>
<text text-anchor="start" x="1009" y="-414" font-family="Helvetica,sans-Serif" font-size="10.00">/software/kratos/doxygen</text>
<text text-anchor="start" x="1009" y="-403" font-family="Helvetica,sans-Serif" font-size="10.00">/kratos/python/add_matrix</text>
<text text-anchor="middle" x="1074" y="-392" font-family="Helvetica,sans-Serif" font-size="10.00">_to_python.cpp</text>
</a>
</g>
</g>
<!-- Node2 -->
<g id="node2" class="node">
<title>Node2</title>
<g id="a_node2"><a xlink:title=" ">
<polygon fill="#e0e0e0" stroke="#999999" points="223,-343.5 107,-343.5 107,-324.5 223,-324.5 223,-343.5"/>
<text text-anchor="middle" x="165" y="-331.5" font-family="Helvetica,sans-Serif" font-size="10.00">pybind11/complex.h</text>
</a>
</g>
</g>
<!-- Node1&#45;&gt;Node2 -->
<g id="edge1" class="edge">
<title>Node1&#45;&gt;Node2</title>
<path fill="none" stroke="#63b8ff" d="M1000.73,-403.12C854.12,-399.6 514.49,-387.63 232,-349 226.33,-348.22 220.43,-347.25 214.57,-346.17"/>
<polygon fill="#63b8ff" stroke="#63b8ff" points="215.43,-342.77 204.94,-344.29 214.09,-349.64 215.43,-342.77"/>
</g>
<!-- Node3 -->
<g id="node3" class="node">
<title>Node3</title>
<g id="a_node3"><a xlink:href="../../dd/d62/define__python_8h.html" target="_top" xlink:title=" ">
<polygon fill="white" stroke="#666666" points="379,-343.5 241,-343.5 241,-324.5 379,-324.5 379,-343.5"/>
<text text-anchor="middle" x="310" y="-331.5" font-family="Helvetica,sans-Serif" font-size="10.00">includes/define_python.h</text>
</a>
</g>
</g>
<!-- Node1&#45;&gt;Node3 -->
<g id="edge2" class="edge">
<title>Node1&#45;&gt;Node3</title>
<path fill="none" stroke="#63b8ff" d="M1000.74,-397.84C857.24,-384.78 540.1,-355.93 390.76,-342.35"/>
<polygon fill="#63b8ff" stroke="#63b8ff" points="391.22,-338.87 380.94,-341.45 390.58,-345.85 391.22,-338.87"/>
</g>
<!-- Node21 -->
<g id="node21" class="node">
<title>Node21</title>
<g id="a_node21"><a xlink:href="../../d9/d3e/ublas__interface_8h.html" target="_top" xlink:title=" ">
<polygon fill="white" stroke="#666666" points="1576,-277.5 1432,-277.5 1432,-258.5 1576,-258.5 1576,-277.5"/>
<text text-anchor="middle" x="1504" y="-265.5" font-family="Helvetica,sans-Serif" font-size="10.00">includes/ublas_interface.h</text>
</a>
</g>
</g>
<!-- Node1&#45;&gt;Node21 -->
<g id="edge30" class="edge">
<title>Node1&#45;&gt;Node21</title>
<path fill="none" stroke="#63b8ff" d="M1147.24,-398.15C1234.97,-389.64 1375.99,-372.79 1423,-349 1451.87,-334.39 1476.93,-305.76 1491.26,-287.01"/>
<polygon fill="#63b8ff" stroke="#63b8ff" points="1494.06,-289.1 1497.17,-278.98 1488.42,-284.95 1494.06,-289.1"/>
</g>
<!-- Node37 -->
<g id="node37" class="node">
<title>Node37</title>
<g id="a_node37"><a xlink:href="../../d1/d5b/ublas__complex__interface_8h.html" target="_top" xlink:title=" ">
<polygon fill="white" stroke="#666666" points="1414,-349 1280,-349 1280,-319 1414,-319 1414,-349"/>
<text text-anchor="start" x="1288" y="-337" font-family="Helvetica,sans-Serif" font-size="10.00">includes/ublas_complex</text>
<text text-anchor="middle" x="1347" y="-326" font-family="Helvetica,sans-Serif" font-size="10.00">_interface.h</text>
</a>
</g>
</g>
<!-- Node1&#45;&gt;Node37 -->
<g id="edge49" class="edge">
<title>Node1&#45;&gt;Node37</title>
<path fill="none" stroke="#63b8ff" d="M1147.16,-385.88C1188.16,-375.44 1238.96,-362.51 1279.08,-352.29"/>
<polygon fill="#63b8ff" stroke="#63b8ff" points="1279.8,-355.72 1288.63,-349.86 1278.07,-348.94 1279.8,-355.72"/>
</g>
<!-- Node38 -->
<g id="node38" class="node">
<title>Node38</title>
<g id="a_node38"><a xlink:href="../../da/df9/add__matrix__to__python_8h.html" target="_top" xlink:title=" ">
<polygon fill="white" stroke="#666666" points="887.5,-343.5 752.5,-343.5 752.5,-324.5 887.5,-324.5 887.5,-343.5"/>
<text text-anchor="middle" x="820" y="-331.5" font-family="Helvetica,sans-Serif" font-size="10.00">add_matrix_to_python.h</text>
</a>
</g>
</g>
<!-- Node1&#45;&gt;Node38 -->
<g id="edge69" class="edge">
<title>Node1&#45;&gt;Node38</title>
<path fill="none" stroke="#63b8ff" d="M1001.21,-384.58C956.65,-372.39 901.12,-357.2 863.36,-346.86"/>
<polygon fill="#63b8ff" stroke="#63b8ff" points="864.75,-343.62 854.18,-344.35 862.91,-350.37 864.75,-343.62"/>
</g>
<!-- Node39 -->
<g id="node39" class="node">
<title>Node39</title>
<g id="a_node39"><a xlink:href="../../d9/d36/array__1d_8h.html" target="_top" xlink:title=" ">
<polygon fill="white" stroke="#666666" points="2690,-343.5 2568,-343.5 2568,-324.5 2690,-324.5 2690,-343.5"/>
<text text-anchor="middle" x="2629" y="-331.5" font-family="Helvetica,sans-Serif" font-size="10.00">containers/array_1d.h</text>
</a>
</g>
</g>
<!-- Node1&#45;&gt;Node39 -->
<g id="edge71" class="edge">
<title>Node1&#45;&gt;Node39</title>
<path fill="none" stroke="#63b8ff" d="M1147.43,-401.22C1409.33,-389.51 2295.78,-349.89 2556.38,-338.25"/>
<polygon fill="#63b8ff" stroke="#63b8ff" points="2556.24,-341.76 2566.07,-337.81 2555.92,-334.76 2556.24,-341.76"/>
</g>
<!-- Node4 -->
<g id="node4" class="node">
<title>Node4</title>
<g id="a_node4"><a xlink:title=" ">
<polygon fill="#e0e0e0" stroke="#999999" points="462,-96 338,-96 338,-66 462,-66 462,-96"/>
<text text-anchor="start" x="346" y="-84" font-family="Helvetica,sans-Serif" font-size="10.00">intrusive_ptr/intrusive</text>
<text text-anchor="middle" x="400" y="-73" font-family="Helvetica,sans-Serif" font-size="10.00">_ptr.hpp</text>
</a>
</g>
</g>
<!-- Node3&#45;&gt;Node4 -->
<g id="edge3" class="edge">
<title>Node3&#45;&gt;Node4</title>
<path fill="none" stroke="#63b8ff" d="M309.94,-324.07C309.96,-309.24 310.47,-278.62 314,-253 318.1,-223.2 317.04,-214.6 329,-187 342.22,-156.5 364.56,-125.43 380.66,-105.09"/>
<polygon fill="#63b8ff" stroke="#63b8ff" points="383.27,-107.43 386.82,-97.45 377.82,-103.03 383.27,-107.43"/>
</g>
<!-- Node5 -->
<g id="node5" class="node">
<title>Node5</title>
<g id="a_node5"><a xlink:title=" ">
<polygon fill="#e0e0e0" stroke="#999999" points="457.5,-277.5 338.5,-277.5 338.5,-258.5 457.5,-258.5 457.5,-277.5"/>
<text text-anchor="middle" x="398" y="-265.5" font-family="Helvetica,sans-Serif" font-size="10.00">pybind11/pybind11.h</text>
</a>
</g>
</g>
<!-- Node3&#45;&gt;Node5 -->
<g id="edge4" class="edge">
<title>Node3&#45;&gt;Node5</title>
<path fill="none" stroke="#63b8ff" d="M322.24,-324.1C336.29,-313.88 359.6,-296.93 376.66,-284.52"/>
<polygon fill="#63b8ff" stroke="#63b8ff" points="378.62,-287.43 384.64,-278.71 374.5,-281.76 378.62,-287.43"/>
</g>
<!-- Node6 -->
<g id="node6" class="node">
<title>Node6</title>
<g id="a_node6"><a xlink:title=" ">
<polygon fill="#e0e0e0" stroke="#999999" points="86,-277.5 0,-277.5 0,-258.5 86,-258.5 86,-277.5"/>
<text text-anchor="middle" x="43" y="-265.5" font-family="Helvetica,sans-Serif" font-size="10.00">pybind11/stl.h</text>
</a>
</g>
</g>
<!-- Node3&#45;&gt;Node6 -->
<g id="edge5" class="edge">
<title>Node3&#45;&gt;Node6</title>
<path fill="none" stroke="#63b8ff" d="M269.48,-324.01C226.18,-314.31 155.59,-298.2 95,-283 92.26,-282.31 89.45,-281.59 86.61,-280.86"/>
<polygon fill="#63b8ff" stroke="#63b8ff" points="87.71,-277.53 77.15,-278.37 85.93,-284.3 87.71,-277.53"/>
</g>
<!-- Node7 -->
<g id="node7" class="node">
<title>Node7</title>
<g id="a_node7"><a xlink:title=" ">
<polygon fill="#e0e0e0" stroke="#999999" points="244,-277.5 104,-277.5 104,-258.5 244,-258.5 244,-277.5"/>
<text text-anchor="middle" x="174" y="-265.5" font-family="Helvetica,sans-Serif" font-size="10.00">pybind11/stl/filesystem.h</text>
</a>
</g>
</g>
<!-- Node3&#45;&gt;Node7 -->
<g id="edge6" class="edge">
<title>Node3&#45;&gt;Node7</title>
<path fill="none" stroke="#63b8ff" d="M291.09,-324.1C268.25,-313.35 229.6,-295.16 202.99,-282.64"/>
<polygon fill="#63b8ff" stroke="#63b8ff" points="204.66,-279.56 194.12,-278.47 201.68,-285.89 204.66,-279.56"/>
</g>
<!-- Node8 -->
<g id="node8" class="node">
<title>Node8</title>
<g id="a_node8"><a xlink:href="../../df/d67/define_8h.html" target="_top" xlink:title=" ">
<polygon fill="white" stroke="#666666" points="437.5,-211.5 338.5,-211.5 338.5,-192.5 437.5,-192.5 437.5,-211.5"/>
<text text-anchor="middle" x="388" y="-199.5" font-family="Helvetica,sans-Serif" font-size="10.00">includes/define.h</text>
</a>
</g>
</g>
<!-- Node3&#45;&gt;Node8 -->
<g id="edge7" class="edge">
<title>Node3&#45;&gt;Node8</title>
<path fill="none" stroke="#63b8ff" d="M310.31,-324.4C311.22,-308.99 314.81,-276.12 329,-253 337.59,-239 351.44,-226.97 363.56,-218.22"/>
<polygon fill="#63b8ff" stroke="#63b8ff" points="365.24,-221.31 371.53,-212.78 361.3,-215.52 365.24,-221.31"/>
</g>
<!-- Node9 -->
<g id="node9" class="node">
<title>Node9</title>
<g id="a_node9"><a xlink:title=" ">
<polygon fill="#e0e0e0" stroke="#999999" points="723.5,-90.5 658.5,-90.5 658.5,-71.5 723.5,-71.5 723.5,-90.5"/>
<text text-anchor="middle" x="691" y="-78.5" font-family="Helvetica,sans-Serif" font-size="10.00">stdexcept</text>
</a>
</g>
</g>
<!-- Node8&#45;&gt;Node9 -->
<g id="edge8" class="edge">
<title>Node8&#45;&gt;Node9</title>
<path fill="none" stroke="#63b8ff" d="M425.61,-192.06C481.93,-178.61 582.44,-154.39 590,-151 621.01,-137.12 652.7,-113.64 672.12,-97.98"/>
<polygon fill="#63b8ff" stroke="#63b8ff" points="674.18,-100.82 679.67,-91.76 669.73,-95.41 674.18,-100.82"/>
</g>
<!-- Node10 -->
<g id="node10" class="node">
<title>Node10</title>
<g id="a_node10"><a xlink:title=" ">
<polygon fill="#e0e0e0" stroke="#999999" points="1252,-90.5 1196,-90.5 1196,-71.5 1252,-71.5 1252,-90.5"/>
<text text-anchor="middle" x="1224" y="-78.5" font-family="Helvetica,sans-Serif" font-size="10.00">sstream</text>
</a>
</g>
</g>
<!-- Node8&#45;&gt;Node10 -->
<g id="edge9" class="edge">
<title>Node8&#45;&gt;Node10</title>
<path fill="none" stroke="#63b8ff" d="M421.5,-192.01C429.78,-190.08 438.67,-188.24 447,-187 696.74,-149.72 766.06,-198.8 1014,-151 1079.1,-138.45 1151.97,-111.42 1192.48,-95.16"/>
<polygon fill="#63b8ff" stroke="#63b8ff" points="1193.66,-98.46 1201.61,-91.45 1191.03,-91.97 1193.66,-98.46"/>
</g>
<!-- Node11 -->
<g id="node11" class="node">
<title>Node11</title>
<g id="a_node11"><a xlink:href="../../dc/d25/kratos__export__api_8h.html" target="_top" xlink:title=" ">
<polygon fill="white" stroke="#666666" points="816,-30 688,-30 688,0 816,0 816,-30"/>
<text text-anchor="start" x="696" y="-18" font-family="Helvetica,sans-Serif" font-size="10.00">includes/kratos_export</text>
<text text-anchor="middle" x="752" y="-7" font-family="Helvetica,sans-Serif" font-size="10.00">_api.h</text>
</a>
</g>
</g>
<!-- Node8&#45;&gt;Node11 -->
<g id="edge10" class="edge">
<title>Node8&#45;&gt;Node11</title>
<path fill="none" stroke="#63b8ff" d="M378.12,-192.07C353.53,-168.8 294,-105.38 329,-66 351.64,-40.52 561.05,-25.81 676.48,-19.57"/>
<polygon fill="#63b8ff" stroke="#63b8ff" points="676.38,-23.08 686.18,-19.06 676.01,-16.09 676.38,-23.08"/>
</g>
<!-- Node12 -->
<g id="node12" class="node">
<title>Node12</title>
<g id="a_node12"><a xlink:href="../../d9/dc0/smart__pointers_8h.html" target="_top" xlink:title=" ">
<polygon fill="white" stroke="#666666" points="580.5,-151 437.5,-151 437.5,-132 580.5,-132 580.5,-151"/>
<text text-anchor="middle" x="509" y="-139" font-family="Helvetica,sans-Serif" font-size="10.00">includes/smart_pointers.h</text>
</a>
</g>
</g>
<!-- Node8&#45;&gt;Node12 -->
<g id="edge11" class="edge">
<title>Node8&#45;&gt;Node12</title>
<path fill="none" stroke="#63b8ff" d="M406.38,-192.12C426.01,-182.62 457.39,-167.45 480.29,-156.38"/>
<polygon fill="#63b8ff" stroke="#63b8ff" points="481.61,-159.63 489.09,-152.13 478.56,-153.33 481.61,-159.63"/>
</g>
<!-- Node16 -->
<g id="node16" class="node">
<title>Node16</title>
<g id="a_node16"><a xlink:href="../../dd/d2d/exception_8h.html" target="_top" xlink:title=" ">
<polygon fill="white" stroke="#666666" points="1004.5,-151 887.5,-151 887.5,-132 1004.5,-132 1004.5,-151"/>
<text text-anchor="middle" x="946" y="-139" font-family="Helvetica,sans-Serif" font-size="10.00">includes/exception.h</text>
</a>
</g>
</g>
<!-- Node8&#45;&gt;Node16 -->
<g id="edge16" class="edge">
<title>Node8&#45;&gt;Node16</title>
<path fill="none" stroke="#63b8ff" d="M422.15,-192.02C430.25,-190.13 438.89,-188.32 447,-187 598.8,-162.35 778.95,-150.52 875.87,-145.56"/>
<polygon fill="#63b8ff" stroke="#63b8ff" points="875.95,-149.07 885.76,-145.07 875.6,-142.07 875.95,-149.07"/>
</g>
<!-- Node12&#45;&gt;Node4 -->
<g id="edge15" class="edge">
<title>Node12&#45;&gt;Node4</title>
<path fill="none" stroke="#63b8ff" d="M492.45,-131.62C477.77,-123.74 455.81,-111.96 436.98,-101.85"/>
<polygon fill="#63b8ff" stroke="#63b8ff" points="438.7,-98.8 428.24,-97.16 435.39,-104.97 438.7,-98.8"/>
</g>
<!-- Node13 -->
<g id="node13" class="node">
<title>Node13</title>
<g id="a_node13"><a xlink:title=" ">
<polygon fill="#e0e0e0" stroke="#999999" points="976,-24.5 916,-24.5 916,-5.5 976,-5.5 976,-24.5"/>
<text text-anchor="middle" x="946" y="-12.5" font-family="Helvetica,sans-Serif" font-size="10.00">iostream</text>
</a>
</g>
</g>
<!-- Node12&#45;&gt;Node13 -->
<g id="edge12" class="edge">
<title>Node12&#45;&gt;Node13</title>
<path fill="none" stroke="#63b8ff" d="M534.15,-131.51C555.32,-123.48 586.05,-110.74 611,-96 629.83,-84.88 629.96,-74.75 650,-66 695.02,-46.35 834.23,-28.53 904.51,-20.5"/>
<polygon fill="#63b8ff" stroke="#63b8ff" points="904.53,-24.02 914.08,-19.42 903.75,-17.06 904.53,-24.02"/>
</g>
<!-- Node14 -->
<g id="node14" class="node">
<title>Node14</title>
<g id="a_node14"><a xlink:title=" ">
<polygon fill="#e0e0e0" stroke="#999999" points="601.5,-90.5 556.5,-90.5 556.5,-71.5 601.5,-71.5 601.5,-90.5"/>
<text text-anchor="middle" x="579" y="-78.5" font-family="Helvetica,sans-Serif" font-size="10.00">utility</text>
</a>
</g>
</g>
<!-- Node12&#45;&gt;Node14 -->
<g id="edge13" class="edge">
<title>Node12&#45;&gt;Node14</title>
<path fill="none" stroke="#63b8ff" d="M519.63,-131.62C530.22,-122.77 546.71,-108.98 559.63,-98.19"/>
<polygon fill="#63b8ff" stroke="#63b8ff" points="561.68,-101.04 567.11,-91.94 557.19,-95.67 561.68,-101.04"/>
</g>
<!-- Node15 -->
<g id="node15" class="node">
<title>Node15</title>
<g id="a_node15"><a xlink:title=" ">
<polygon fill="#e0e0e0" stroke="#999999" points="538,-90.5 480,-90.5 480,-71.5 538,-71.5 538,-90.5"/>
<text text-anchor="middle" x="509" y="-78.5" font-family="Helvetica,sans-Serif" font-size="10.00">memory</text>
</a>
</g>
</g>
<!-- Node12&#45;&gt;Node15 -->
<g id="edge14" class="edge">
<title>Node12&#45;&gt;Node15</title>
<path fill="none" stroke="#63b8ff" d="M509,-131.87C509,-124 509,-112.1 509,-101.89"/>
<polygon fill="#63b8ff" stroke="#63b8ff" points="512.5,-102.18 509,-92.18 505.5,-102.18 512.5,-102.18"/>
</g>
<!-- Node16&#45;&gt;Node9 -->
<g id="edge17" class="edge">
<title>Node16&#45;&gt;Node9</title>
<path fill="none" stroke="#63b8ff" d="M899.08,-131.56C856.76,-123.24 792.92,-110.03 738,-96 735.59,-95.38 733.11,-94.73 730.62,-94.04"/>
<polygon fill="#63b8ff" stroke="#63b8ff" points="731.76,-90.73 721.19,-91.36 729.85,-97.46 731.76,-90.73"/>
</g>
<!-- Node16&#45;&gt;Node10 -->
<g id="edge20" class="edge">
<title>Node16&#45;&gt;Node10</title>
<path fill="none" stroke="#63b8ff" d="M1004.68,-131.7C1052.73,-123.96 1122.27,-111.51 1182,-96 1183.98,-95.49 1186,-94.93 1188.03,-94.34"/>
<polygon fill="#63b8ff" stroke="#63b8ff" points="1188.88,-97.74 1197.4,-91.45 1186.81,-91.05 1188.88,-97.74"/>
</g>
<!-- Node16&#45;&gt;Node11 -->
<g id="edge22" class="edge">
<title>Node16&#45;&gt;Node11</title>
<path fill="none" stroke="#63b8ff" d="M887.02,-132.01C843.14,-124.51 788.16,-112.25 772,-96 757.88,-81.8 753.22,-59.23 751.89,-41.68"/>
<polygon fill="#63b8ff" stroke="#63b8ff" points="755.39,-41.6 751.5,-31.75 748.4,-41.88 755.39,-41.6"/>
</g>
<!-- Node16&#45;&gt;Node13 -->
<g id="edge19" class="edge">
<title>Node16&#45;&gt;Node13</title>
<path fill="none" stroke="#63b8ff" d="M946,-131.55C946,-111.72 946,-63.68 946,-36.19"/>
<polygon fill="#63b8ff" stroke="#63b8ff" points="949.5,-36.39 946,-26.39 942.5,-36.39 949.5,-36.39"/>
</g>
<!-- Node17 -->
<g id="node17" class="node">
<title>Node17</title>
<g id="a_node17"><a xlink:title=" ">
<polygon fill="#e0e0e0" stroke="#999999" points="1780,-24.5 1736,-24.5 1736,-5.5 1780,-5.5 1780,-24.5"/>
<text text-anchor="middle" x="1758" y="-12.5" font-family="Helvetica,sans-Serif" font-size="10.00">string</text>
</a>
</g>
</g>
<!-- Node16&#45;&gt;Node17 -->
<g id="edge18" class="edge">
<title>Node16&#45;&gt;Node17</title>
<path fill="none" stroke="#63b8ff" d="M994.89,-131.56C1031.82,-124.07 1083.42,-112.03 1127,-96 1154.98,-85.71 1158.31,-74.11 1187,-66 1289.23,-37.1 1618.15,-21.63 1724.5,-17.29"/>
<polygon fill="#63b8ff" stroke="#63b8ff" points="1724.41,-20.79 1734.26,-16.89 1724.13,-13.8 1724.41,-20.79"/>
</g>
<!-- Node18 -->
<g id="node18" class="node">
<title>Node18</title>
<g id="a_node18"><a xlink:title=" ">
<polygon fill="#e0e0e0" stroke="#999999" points="1107.5,-24.5 1060.5,-24.5 1060.5,-5.5 1107.5,-5.5 1107.5,-24.5"/>
<text text-anchor="middle" x="1084" y="-12.5" font-family="Helvetica,sans-Serif" font-size="10.00">vector</text>
</a>
</g>
</g>
<!-- Node16&#45;&gt;Node18 -->
<g id="edge21" class="edge">
<title>Node16&#45;&gt;Node18</title>
<path fill="none" stroke="#63b8ff" d="M1004.78,-132.29C1046.72,-125.08 1097.92,-113.08 1111,-96 1125.16,-77.52 1111.36,-51.18 1098.84,-33.84"/>
<polygon fill="#63b8ff" stroke="#63b8ff" points="1101.65,-31.76 1092.76,-26 1096.12,-36.05 1101.65,-31.76"/>
</g>
<!-- Node19 -->
<g id="node19" class="node">
<title>Node19</title>
<g id="a_node19"><a xlink:href="../../da/da6/code__location_8h.html" target="_top" xlink:title=" ">
<polygon fill="white" stroke="#666666" points="917.5,-90.5 780.5,-90.5 780.5,-71.5 917.5,-71.5 917.5,-90.5"/>
<text text-anchor="middle" x="849" y="-78.5" font-family="Helvetica,sans-Serif" font-size="10.00">includes/code_location.h</text>
</a>
</g>
</g>
<!-- Node16&#45;&gt;Node19 -->
<g id="edge23" class="edge">
<title>Node16&#45;&gt;Node19</title>
<path fill="none" stroke="#63b8ff" d="M931.27,-131.62C915.96,-122.38 891.73,-107.77 873.53,-96.79"/>
<polygon fill="#63b8ff" stroke="#63b8ff" points="875.54,-93.92 865.17,-91.75 871.92,-99.91 875.54,-93.92"/>
</g>
<!-- Node20 -->
<g id="node20" class="node">
<title>Node20</title>
<g id="a_node20"><a xlink:href="../../d9/d06/stl__vector__io_8h.html" target="_top" xlink:title=" ">
<polygon fill="white" stroke="#666666" points="1102,-90.5 974,-90.5 974,-71.5 1102,-71.5 1102,-90.5"/>
<text text-anchor="middle" x="1038" y="-78.5" font-family="Helvetica,sans-Serif" font-size="10.00">utilities/stl_vector_io.h</text>
</a>
</g>
</g>
<!-- Node16&#45;&gt;Node20 -->
<g id="edge27" class="edge">
<title>Node16&#45;&gt;Node20</title>
<path fill="none" stroke="#63b8ff" d="M959.97,-131.62C974.43,-122.42 997.26,-107.91 1014.5,-96.94"/>
<polygon fill="#63b8ff" stroke="#63b8ff" points="1016.06,-100.1 1022.62,-91.78 1012.3,-94.19 1016.06,-100.1"/>
</g>
<!-- Node19&#45;&gt;Node11 -->
<g id="edge26" class="edge">
<title>Node19&#45;&gt;Node11</title>
<path fill="none" stroke="#63b8ff" d="M835.51,-71.1C822.07,-62.23 800.95,-48.3 783.31,-36.66"/>
<polygon fill="#63b8ff" stroke="#63b8ff" points="785.48,-33.9 775.21,-31.31 781.63,-39.74 785.48,-33.9"/>
</g>
<!-- Node19&#45;&gt;Node13 -->
<g id="edge25" class="edge">
<title>Node19&#45;&gt;Node13</title>
<path fill="none" stroke="#63b8ff" d="M862.49,-71.1C878.2,-60.74 904.4,-43.45 923.27,-31"/>
<polygon fill="#63b8ff" stroke="#63b8ff" points="924.94,-34.09 931.36,-25.66 921.09,-28.24 924.94,-34.09"/>
</g>
<!-- Node19&#45;&gt;Node17 -->
<g id="edge24" class="edge">
<title>Node19&#45;&gt;Node17</title>
<path fill="none" stroke="#63b8ff" d="M917.94,-71.02C933.4,-69.19 949.75,-67.4 965,-66 1258.61,-39.05 1614.73,-22.25 1724.3,-17.43"/>
<polygon fill="#63b8ff" stroke="#63b8ff" points="1724.22,-20.94 1734.06,-17.01 1723.92,-13.95 1724.22,-20.94"/>
</g>
<!-- Node20&#45;&gt;Node13 -->
<g id="edge28" class="edge">
<title>Node20&#45;&gt;Node13</title>
<path fill="none" stroke="#63b8ff" d="M1025.21,-71.1C1010.45,-60.83 985.91,-43.77 968.06,-31.34"/>
<polygon fill="#63b8ff" stroke="#63b8ff" points="970.13,-28.53 959.93,-25.69 966.14,-34.27 970.13,-28.53"/>
</g>
<!-- Node20&#45;&gt;Node18 -->
<g id="edge29" class="edge">
<title>Node20&#45;&gt;Node18</title>
<path fill="none" stroke="#63b8ff" d="M1044.4,-71.1C1051.26,-61.55 1062.35,-46.11 1071.06,-34.01"/>
<polygon fill="#63b8ff" stroke="#63b8ff" points="1073.78,-36.22 1076.77,-26.05 1068.1,-32.13 1073.78,-36.22"/>
</g>
<!-- Node21&#45;&gt;Node8 -->
<g id="edge48" class="edge">
<title>Node21&#45;&gt;Node8</title>
<path fill="none" stroke="#63b8ff" d="M1431.65,-265.33C1225.51,-260.29 637.78,-243.91 447,-217 442.06,-216.3 436.92,-215.38 431.84,-214.35"/>
<polygon fill="#63b8ff" stroke="#63b8ff" points="432.87,-210.99 422.35,-212.26 431.37,-217.83 432.87,-210.99"/>
</g>
<!-- Node21&#45;&gt;Node13 -->
<g id="edge32" class="edge">
<title>Node21&#45;&gt;Node13</title>
<path fill="none" stroke="#63b8ff" d="M1553.33,-258.07C1594.96,-249.41 1649.82,-234.96 1663,-217 1670.89,-206.25 1670.95,-197.7 1663,-187 1551.69,-37.25 1442.89,-107.61 1261,-66 1209.64,-54.25 1060.55,-32.34 987.42,-21.86"/>
<polygon fill="#63b8ff" stroke="#63b8ff" points="988.26,-18.45 977.86,-20.5 987.27,-25.38 988.26,-18.45"/>
</g>
<!-- Node21&#45;&gt;Node17 -->
<g id="edge31" class="edge">
<title>Node21&#45;&gt;Node17</title>
<path fill="none" stroke="#63b8ff" d="M1547.15,-258.08C1600.36,-246.73 1685.17,-227.36 1696,-217 1747.56,-167.68 1756.53,-76.56 1757.89,-36.18"/>
<polygon fill="#63b8ff" stroke="#63b8ff" points="1761.39,-36.34 1758.08,-26.27 1754.39,-36.2 1761.39,-36.34"/>
</g>
<!-- Node22 -->
<g id="node22" class="node">
<title>Node22</title>
<g id="a_node22"><a xlink:title=" ">
<polygon fill="#e0e0e0" stroke="#999999" points="850,-217 734,-217 734,-187 850,-187 850,-217"/>
<text text-anchor="start" x="742" y="-205" font-family="Helvetica,sans-Serif" font-size="10.00">boost/numeric/ublas</text>
<text text-anchor="middle" x="792" y="-194" font-family="Helvetica,sans-Serif" font-size="10.00">/matrix.hpp</text>
</a>
</g>
</g>
<!-- Node21&#45;&gt;Node22 -->
<g id="edge33" class="edge">
<title>Node21&#45;&gt;Node22</title>
<path fill="none" stroke="#63b8ff" d="M1431.6,-264.43C1314.03,-259.58 1074.16,-246.91 861.76,-217.27"/>
<polygon fill="#63b8ff" stroke="#63b8ff" points="862.28,-213.81 851.89,-215.87 861.3,-220.74 862.28,-213.81"/>
</g>
<!-- Node23 -->
<g id="node23" class="node">
<title>Node23</title>
<g id="a_node23"><a xlink:title=" ">
<polygon fill="#e0e0e0" stroke="#999999" points="984,-217 868,-217 868,-187 984,-187 984,-217"/>
<text text-anchor="start" x="876" y="-205" font-family="Helvetica,sans-Serif" font-size="10.00">boost/numeric/ublas</text>
<text text-anchor="middle" x="926" y="-194" font-family="Helvetica,sans-Serif" font-size="10.00">/vector.hpp</text>
</a>
</g>
</g>
<!-- Node21&#45;&gt;Node23 -->
<g id="edge34" class="edge">
<title>Node21&#45;&gt;Node23</title>
<path fill="none" stroke="#63b8ff" d="M1431.76,-262.41C1334.72,-255.69 1156.74,-241.44 995.49,-217.27"/>
<polygon fill="#63b8ff" stroke="#63b8ff" points="996.31,-213.86 985.89,-215.82 995.26,-220.78 996.31,-213.86"/>
</g>
<!-- Node24 -->
<g id="node24" class="node">
<title>Node24</title>
<g id="a_node24"><a xlink:title=" ">
<polygon fill="#e0e0e0" stroke="#999999" points="1118,-217 1002,-217 1002,-187 1118,-187 1118,-217"/>
<text text-anchor="start" x="1010" y="-205" font-family="Helvetica,sans-Serif" font-size="10.00">boost/numeric/ublas</text>
<text text-anchor="middle" x="1060" y="-194" font-family="Helvetica,sans-Serif" font-size="10.00">/vector_proxy.hpp</text>
</a>
</g>
</g>
<!-- Node21&#45;&gt;Node24 -->
<g id="edge35" class="edge">
<title>Node21&#45;&gt;Node24</title>
<path fill="none" stroke="#63b8ff" d="M1431.84,-259.04C1358.23,-250.56 1240.49,-235.99 1129.48,-217.35"/>
<polygon fill="#63b8ff" stroke="#63b8ff" points="1130.35,-213.95 1119.91,-215.73 1129.18,-220.85 1130.35,-213.95"/>
</g>
<!-- Node25 -->
<g id="node25" class="node">
<title>Node25</title>
<g id="a_node25"><a xlink:title=" ">
<polygon fill="#e0e0e0" stroke="#999999" points="1252,-217 1136,-217 1136,-187 1252,-187 1252,-217"/>
<text text-anchor="start" x="1144" y="-205" font-family="Helvetica,sans-Serif" font-size="10.00">boost/numeric/ublas</text>
<text text-anchor="middle" x="1194" y="-194" font-family="Helvetica,sans-Serif" font-size="10.00">/vector_sparse.hpp</text>
</a>
</g>
</g>
<!-- Node21&#45;&gt;Node25 -->
<g id="edge36" class="edge">
<title>Node21&#45;&gt;Node25</title>
<path fill="none" stroke="#63b8ff" d="M1460.09,-258.01C1413.7,-248.5 1338.09,-232.97 1263.46,-217.51"/>
<polygon fill="#63b8ff" stroke="#63b8ff" points="1264.45,-214.14 1253.95,-215.53 1263.03,-220.99 1264.45,-214.14"/>
</g>
<!-- Node26 -->
<g id="node26" class="node">
<title>Node26</title>
<g id="a_node26"><a xlink:title=" ">
<polygon fill="#e0e0e0" stroke="#999999" points="2586,-217 2456,-217 2456,-187 2586,-187 2586,-217"/>
<text text-anchor="start" x="2464" y="-205" font-family="Helvetica,sans-Serif" font-size="10.00">boost/numeric/ublas</text>
<text text-anchor="middle" x="2521" y="-194" font-family="Helvetica,sans-Serif" font-size="10.00">/vector_expression.hpp</text>
</a>
</g>
</g>
<!-- Node21&#45;&gt;Node26 -->
<g id="edge37" class="edge">
<title>Node21&#45;&gt;Node26</title>
<path fill="none" stroke="#63b8ff" d="M1576.27,-264.71C1729.83,-259.46 2099.86,-244.83 2409,-217 2420.46,-215.97 2432.56,-214.67 2444.4,-213.29"/>
<polygon fill="#63b8ff" stroke="#63b8ff" points="2444.63,-216.79 2454.14,-212.12 2443.79,-209.84 2444.63,-216.79"/>
</g>
<!-- Node27 -->
<g id="node27" class="node">
<title>Node27</title>
<g id="a_node27"><a xlink:title=" ">
<polygon fill="#e0e0e0" stroke="#999999" points="1386,-217 1270,-217 1270,-187 1386,-187 1386,-217"/>
<text text-anchor="start" x="1278" y="-205" font-family="Helvetica,sans-Serif" font-size="10.00">boost/numeric/ublas</text>
<text text-anchor="middle" x="1328" y="-194" font-family="Helvetica,sans-Serif" font-size="10.00">/matrix_proxy.hpp</text>
</a>
</g>
</g>
<!-- Node21&#45;&gt;Node27 -->
<g id="edge38" class="edge">
<title>Node21&#45;&gt;Node27</title>
<path fill="none" stroke="#63b8ff" d="M1479.53,-258.1C1453.45,-248.62 1411.43,-233.34 1378.25,-221.27"/>
<polygon fill="#63b8ff" stroke="#63b8ff" points="1379.83,-218.12 1369.24,-217.99 1377.44,-224.7 1379.83,-218.12"/>
</g>
<!-- Node28 -->
<g id="node28" class="node">
<title>Node28</title>
<g id="a_node28"><a xlink:title=" ">
<polygon fill="#e0e0e0" stroke="#999999" points="1520,-217 1404,-217 1404,-187 1520,-187 1520,-217"/>
<text text-anchor="start" x="1412" y="-205" font-family="Helvetica,sans-Serif" font-size="10.00">boost/numeric/ublas</text>
<text text-anchor="middle" x="1462" y="-194" font-family="Helvetica,sans-Serif" font-size="10.00">/symmetric.hpp</text>
</a>
</g>
</g>
<!-- Node21&#45;&gt;Node28 -->
<g id="edge39" class="edge">
<title>Node21&#45;&gt;Node28</title>
<path fill="none" stroke="#63b8ff" d="M1498.16,-258.1C1492.84,-250 1484.76,-237.67 1477.57,-226.73"/>
<polygon fill="#63b8ff" stroke="#63b8ff" points="1480.58,-224.94 1472.17,-218.5 1474.73,-228.78 1480.58,-224.94"/>
</g>
<!-- Node29 -->
<g id="node29" class="node">
<title>Node29</title>
<g id="a_node29"><a xlink:title=" ">
<polygon fill="#e0e0e0" stroke="#999999" points="1654,-217 1538,-217 1538,-187 1654,-187 1654,-217"/>
<text text-anchor="start" x="1546" y="-205" font-family="Helvetica,sans-Serif" font-size="10.00">boost/numeric/ublas</text>
<text text-anchor="middle" x="1596" y="-194" font-family="Helvetica,sans-Serif" font-size="10.00">/hermitian.hpp</text>
</a>
</g>
</g>
<!-- Node21&#45;&gt;Node29 -->
<g id="edge40" class="edge">
<title>Node21&#45;&gt;Node29</title>
<path fill="none" stroke="#63b8ff" d="M1516.79,-258.1C1529.42,-249.32 1549.2,-235.55 1565.84,-223.98"/>
<polygon fill="#63b8ff" stroke="#63b8ff" points="1567.74,-226.93 1573.95,-218.34 1563.74,-221.18 1567.74,-226.93"/>
</g>
<!-- Node30 -->
<g id="node30" class="node">
<title>Node30</title>
<g id="a_node30"><a xlink:title=" ">
<polygon fill="#e0e0e0" stroke="#999999" points="1864,-217 1748,-217 1748,-187 1864,-187 1864,-217"/>
<text text-anchor="start" x="1756" y="-205" font-family="Helvetica,sans-Serif" font-size="10.00">boost/numeric/ublas</text>
<text text-anchor="middle" x="1806" y="-194" font-family="Helvetica,sans-Serif" font-size="10.00">/banded.hpp</text>
</a>
</g>
</g>
<!-- Node21&#45;&gt;Node30 -->
<g id="edge41" class="edge">
<title>Node21&#45;&gt;Node30</title>
<path fill="none" stroke="#63b8ff" d="M1546.31,-258.03C1595.65,-247.58 1677.91,-230.14 1736.63,-217.7"/>
<polygon fill="#63b8ff" stroke="#63b8ff" points="1737.14,-221.17 1746.19,-215.67 1735.68,-214.32 1737.14,-221.17"/>
</g>
<!-- Node31 -->
<g id="node31" class="node">
<title>Node31</title>
<g id="a_node31"><a xlink:title=" ">
<polygon fill="#e0e0e0" stroke="#999999" points="1998,-217 1882,-217 1882,-187 1998,-187 1998,-217"/>
<text text-anchor="start" x="1890" y="-205" font-family="Helvetica,sans-Serif" font-size="10.00">boost/numeric/ublas</text>
<text text-anchor="middle" x="1940" y="-194" font-family="Helvetica,sans-Serif" font-size="10.00">/triangular.hpp</text>
</a>
</g>
</g>
<!-- Node21&#45;&gt;Node31 -->
<g id="edge42" class="edge">
<title>Node21&#45;&gt;Node31</title>
<path fill="none" stroke="#63b8ff" d="M1576.35,-258.74C1648.44,-250.17 1762.54,-235.65 1870.48,-217.36"/>
<polygon fill="#63b8ff" stroke="#63b8ff" points="1870.82,-220.85 1880.09,-215.72 1869.64,-213.95 1870.82,-220.85"/>
</g>
<!-- Node32 -->
<g id="node32" class="node">
<title>Node32</title>
<g id="a_node32"><a xlink:title=" ">
<polygon fill="#e0e0e0" stroke="#999999" points="2132,-217 2016,-217 2016,-187 2132,-187 2132,-217"/>
<text text-anchor="start" x="2024" y="-205" font-family="Helvetica,sans-Serif" font-size="10.00">boost/numeric/ublas</text>
<text text-anchor="middle" x="2074" y="-194" font-family="Helvetica,sans-Serif" font-size="10.00">/lu.hpp</text>
</a>
</g>
</g>
<!-- Node21&#45;&gt;Node32 -->
<g id="edge43" class="edge">
<title>Node21&#45;&gt;Node32</title>
<path fill="none" stroke="#63b8ff" d="M1576.36,-262.25C1672.06,-255.42 1846.16,-241.13 2004.25,-217.32"/>
<polygon fill="#63b8ff" stroke="#63b8ff" points="2004.75,-220.78 2014.11,-215.81 2003.69,-213.86 2004.75,-220.78"/>
</g>
<!-- Node33 -->
<g id="node33" class="node">
<title>Node33</title>
<g id="a_node33"><a xlink:title=" ">
<polygon fill="#e0e0e0" stroke="#999999" points="2266,-217 2150,-217 2150,-187 2266,-187 2266,-217"/>
<text text-anchor="start" x="2158" y="-205" font-family="Helvetica,sans-Serif" font-size="10.00">boost/numeric/ublas</text>
<text text-anchor="middle" x="2208" y="-194" font-family="Helvetica,sans-Serif" font-size="10.00">/io.hpp</text>
</a>
</g>
</g>
<!-- Node21&#45;&gt;Node33 -->
<g id="edge44" class="edge">
<title>Node21&#45;&gt;Node33</title>
<path fill="none" stroke="#63b8ff" d="M1576.46,-264.33C1692.91,-259.36 1929.08,-246.58 2138.4,-217.25"/>
<polygon fill="#63b8ff" stroke="#63b8ff" points="2138.7,-220.74 2148.11,-215.87 2137.72,-213.81 2138.7,-220.74"/>
</g>
<!-- Node34 -->
<g id="node34" class="node">
<title>Node34</title>
<g id="a_node34"><a xlink:title=" ">
<polygon fill="#e0e0e0" stroke="#999999" points="2400,-217 2284,-217 2284,-187 2400,-187 2400,-217"/>
<text text-anchor="start" x="2292" y="-205" font-family="Helvetica,sans-Serif" font-size="10.00">boost/numeric/ublas</text>
<text text-anchor="middle" x="2342" y="-194" font-family="Helvetica,sans-Serif" font-size="10.00">/matrix_sparse.hpp</text>
</a>
</g>
</g>
<!-- Node21&#45;&gt;Node34 -->
<g id="edge45" class="edge">
<title>Node21&#45;&gt;Node34</title>
<path fill="none" stroke="#63b8ff" d="M1576.35,-265.71C1711.38,-262.56 2011.01,-252.08 2272.38,-217.22"/>
<polygon fill="#63b8ff" stroke="#63b8ff" points="2272.68,-220.71 2282.12,-215.91 2271.74,-213.78 2272.68,-220.71"/>
</g>
<!-- Node35 -->
<g id="node35" class="node">
<title>Node35</title>
<g id="a_node35"><a xlink:title=" ">
<polygon fill="#e0e0e0" stroke="#999999" points="572,-217 456,-217 456,-187 572,-187 572,-217"/>
<text text-anchor="start" x="464" y="-205" font-family="Helvetica,sans-Serif" font-size="10.00">boost/numeric/ublas</text>
<text text-anchor="middle" x="514" y="-194" font-family="Helvetica,sans-Serif" font-size="10.00">/operation.hpp</text>
</a>
</g>
</g>
<!-- Node21&#45;&gt;Node35 -->
<g id="edge46" class="edge">
<title>Node21&#45;&gt;Node35</title>
<path fill="none" stroke="#63b8ff" d="M1431.64,-266.73C1277.45,-265.36 905.07,-257.85 583.09,-216.97"/>
<polygon fill="#63b8ff" stroke="#63b8ff" points="584.01,-213.56 573.64,-215.76 583.12,-220.5 584.01,-213.56"/>
</g>
<!-- Node36 -->
<g id="node36" class="node">
<title>Node36</title>
<g id="a_node36"><a xlink:title=" ">
<polygon fill="#e0e0e0" stroke="#999999" points="715.5,-217 590.5,-217 590.5,-187 715.5,-187 715.5,-217"/>
<text text-anchor="start" x="598.5" y="-205" font-family="Helvetica,sans-Serif" font-size="10.00">boost/numeric/ublas</text>
<text text-anchor="middle" x="653" y="-194" font-family="Helvetica,sans-Serif" font-size="10.00">/operation_sparse.hpp</text>
</a>
</g>
</g>
<!-- Node21&#45;&gt;Node36 -->
<g id="edge47" class="edge">
<title>Node21&#45;&gt;Node36</title>
<path fill="none" stroke="#63b8ff" d="M1431.75,-265.45C1295.79,-261.85 992.49,-250.64 727.16,-217.15"/>
<polygon fill="#63b8ff" stroke="#63b8ff" points="727.62,-213.68 717.25,-215.88 726.73,-220.62 727.62,-213.68"/>
</g>
<!-- Node37&#45;&gt;Node8 -->
<g id="edge67" class="edge">
<title>Node37&#45;&gt;Node8</title>
<path fill="none" stroke="#63b8ff" d="M1279.82,-328.89C1176.42,-322.12 972.14,-306.91 800,-283 641.91,-261.04 603.14,-250.1 447,-217 443.23,-216.2 439.33,-215.34 435.42,-214.46"/>
<polygon fill="#63b8ff" stroke="#63b8ff" points="436.45,-211.11 425.92,-212.28 434.88,-217.93 436.45,-211.11"/>
</g>
<!-- Node37&#45;&gt;Node13 -->
<g id="edge51" class="edge">
<title>Node37&#45;&gt;Node13</title>
<path fill="none" stroke="#63b8ff" d="M1279.72,-332.04C1149.91,-329.4 856.13,-319.53 612,-283 604.02,-281.81 334.02,-223.32 329,-217 287.28,-164.43 283.3,-115.14 329,-66 366.63,-25.54 769.99,-35.18 825,-30 851.48,-27.51 881.14,-24.09 904.47,-21.25"/>
<polygon fill="#63b8ff" stroke="#63b8ff" points="904.7,-24.75 914.2,-20.05 903.85,-17.8 904.7,-24.75"/>
</g>
<!-- Node37&#45;&gt;Node17 -->
<g id="edge50" class="edge">
<title>Node37&#45;&gt;Node17</title>
<path fill="none" stroke="#63b8ff" d="M1414.21,-332.02C1650.38,-327.68 2428,-305.61 2428,-203 2428,-203 2428,-203 2428,-140.5 2428,-75.04 1927.23,-29.71 1791.56,-18.63"/>
<polygon fill="#63b8ff" stroke="#63b8ff" points="1792.05,-15.16 1781.8,-17.84 1791.49,-22.14 1792.05,-15.16"/>
</g>
<!-- Node37&#45;&gt;Node21 -->
<g id="edge68" class="edge">
<title>Node37&#45;&gt;Node21</title>
<path fill="none" stroke="#63b8ff" d="M1382.23,-318.64C1408.97,-307.74 1445.45,-292.87 1471.49,-282.25"/>
<polygon fill="#63b8ff" stroke="#63b8ff" points="1472.62,-285.57 1480.56,-278.56 1469.97,-279.09 1472.62,-285.57"/>
</g>
<!-- Node37&#45;&gt;Node22 -->
<g id="edge56" class="edge">
<title>Node37&#45;&gt;Node22</title>
<path fill="none" stroke="#63b8ff" d="M1283.53,-318.52C1247,-309.57 1200.46,-297.12 1160,-283 1128.43,-271.98 1123.12,-262.31 1091,-253 994.2,-224.95 963.73,-234.92 861.55,-217.37"/>
<polygon fill="#63b8ff" stroke="#63b8ff" points="862.38,-213.96 851.92,-215.66 861.16,-220.85 862.38,-213.96"/>
</g>
<!-- Node37&#45;&gt;Node23 -->
<g id="edge52" class="edge">
<title>Node37&#45;&gt;Node23</title>
<path fill="none" stroke="#63b8ff" d="M1303.81,-318.58C1277.47,-309.34 1243.33,-296.57 1214,-283 1189.08,-271.47 1185.71,-262.64 1160,-253 1156.05,-251.52 1062.88,-231.78 995.32,-217.56"/>
<polygon fill="#63b8ff" stroke="#63b8ff" points="996.28,-214.18 985.77,-215.55 994.84,-221.03 996.28,-214.18"/>
</g>
<!-- Node37&#45;&gt;Node24 -->
<g id="edge53" class="edge">
<title>Node37&#45;&gt;Node24</title>
<path fill="none" stroke="#63b8ff" d="M1320.89,-318.5C1303.49,-308.72 1280.2,-295.38 1260,-283 1239.19,-270.25 1236.02,-263.53 1214,-253 1186.57,-239.89 1154.84,-228.93 1127.33,-220.65"/>
<polygon fill="#63b8ff" stroke="#63b8ff" points="1128.65,-217.39 1118.07,-217.92 1126.67,-224.11 1128.65,-217.39"/>
</g>
<!-- Node37&#45;&gt;Node25 -->
<g id="edge54" class="edge">
<title>Node37&#45;&gt;Node25</title>
<path fill="none" stroke="#63b8ff" d="M1332.3,-318.68C1315.31,-302.32 1286.3,-274.97 1260,-253 1248.16,-243.11 1234.65,-232.73 1222.95,-224"/>
<polygon fill="#63b8ff" stroke="#63b8ff" points="1225.36,-221.43 1215.24,-218.3 1221.2,-227.06 1225.36,-221.43"/>
</g>
<!-- Node37&#45;&gt;Node26 -->
<g id="edge55" class="edge">
<title>Node37&#45;&gt;Node26</title>
<path fill="none" stroke="#63b8ff" d="M1414.29,-332.77C1638.07,-331.6 2348.44,-324.63 2442,-283 2468.73,-271.11 2491.24,-245.72 2505.31,-226.71"/>
<polygon fill="#63b8ff" stroke="#63b8ff" points="2508.06,-228.88 2511,-218.7 2502.35,-224.83 2508.06,-228.88"/>
</g>
<!-- Node37&#45;&gt;Node27 -->
<g id="edge58" class="edge">
<title>Node37&#45;&gt;Node27</title>
<path fill="none" stroke="#63b8ff" d="M1344.89,-318.59C1341.73,-296.92 1335.69,-255.62 1331.76,-228.7"/>
<polygon fill="#63b8ff" stroke="#63b8ff" points="1335.24,-228.36 1330.33,-218.97 1328.32,-229.37 1335.24,-228.36"/>
</g>
<!-- Node37&#45;&gt;Node28 -->
<g id="edge59" class="edge">
<title>Node37&#45;&gt;Node28</title>
<path fill="none" stroke="#63b8ff" d="M1352.26,-318.75C1359.05,-301.72 1372.15,-273 1390,-253 1400.15,-241.62 1413.39,-231.49 1425.74,-223.37"/>
<polygon fill="#63b8ff" stroke="#63b8ff" points="1427.5,-226.4 1434.1,-218.11 1423.77,-220.48 1427.5,-226.4"/>
</g>
<!-- Node37&#45;&gt;Node29 -->
<g id="edge60" class="edge">
<title>Node37&#45;&gt;Node29</title>
<path fill="none" stroke="#63b8ff" d="M1358.93,-318.74C1376.33,-298.27 1408.19,-262.01 1423,-253 1440.7,-242.24 1486.45,-229.22 1526.45,-219.16"/>
<polygon fill="#63b8ff" stroke="#63b8ff" points="1527.22,-222.58 1536.09,-216.77 1525.54,-215.78 1527.22,-222.58"/>
</g>
<!-- Node37&#45;&gt;Node30 -->
<g id="edge61" class="edge">
<title>Node37&#45;&gt;Node30</title>
<path fill="none" stroke="#63b8ff" d="M1414.29,-321.47C1462.3,-312.61 1528.15,-299.18 1585,-283 1646.82,-265.41 1716.23,-239.18 1760.49,-221.6"/>
<polygon fill="#63b8ff" stroke="#63b8ff" points="1761.51,-224.96 1769.5,-218 1758.91,-218.46 1761.51,-224.96"/>
</g>
<!-- Node37&#45;&gt;Node31 -->
<g id="edge62" class="edge">
<title>Node37&#45;&gt;Node31</title>
<path fill="none" stroke="#63b8ff" d="M1414.23,-323.65C1474.87,-314.77 1566.34,-300.22 1645,-283 1727.79,-264.88 1822.09,-238.23 1881.32,-220.75"/>
<polygon fill="#63b8ff" stroke="#63b8ff" points="1882.28,-224.11 1890.88,-217.92 1880.29,-217.4 1882.28,-224.11"/>
</g>
<!-- Node37&#45;&gt;Node32 -->
<g id="edge65" class="edge">
<title>Node37&#45;&gt;Node32</title>
<path fill="none" stroke="#63b8ff" d="M1414.27,-325.63C1488.44,-317.1 1611.16,-301.78 1716,-283 1817.31,-264.85 1933.37,-237.74 2005.19,-220.21"/>
<polygon fill="#63b8ff" stroke="#63b8ff" points="2005.98,-223.62 2014.86,-217.84 2004.32,-216.82 2005.98,-223.62"/>
</g>
<!-- Node37&#45;&gt;Node33 -->
<g id="edge63" class="edge">
<title>Node37&#45;&gt;Node33</title>
<path fill="none" stroke="#63b8ff" d="M1414.21,-327.44C1503.53,-319.63 1666.12,-304.01 1804,-283 1951.35,-260.55 1989.63,-247.88 2138.62,-217.48"/>
<polygon fill="#63b8ff" stroke="#63b8ff" points="2138.96,-220.98 2148.06,-215.56 2137.56,-214.12 2138.96,-220.98"/>
</g>
<!-- Node37&#45;&gt;Node34 -->
<g id="edge57" class="edge">
<title>Node37&#45;&gt;Node34</title>
<path fill="none" stroke="#63b8ff" d="M1414.33,-328.72C1518.5,-321.69 1724.92,-306.12 1899,-283 2063.58,-261.14 2106.55,-249.53 2272.45,-217.47"/>
<polygon fill="#63b8ff" stroke="#63b8ff" points="2272.91,-220.94 2282.07,-215.61 2271.59,-214.07 2272.91,-220.94"/>
</g>
<!-- Node37&#45;&gt;Node35 -->
<g id="edge64" class="edge">
<title>Node37&#45;&gt;Node35</title>
<path fill="none" stroke="#63b8ff" d="M1279.74,-324.23C1148.1,-306.76 847.03,-265.26 583.16,-217.16"/>
<polygon fill="#63b8ff" stroke="#63b8ff" points="584.16,-213.79 573.7,-215.43 582.9,-220.67 584.16,-213.79"/>
</g>
<!-- Node37&#45;&gt;Node36 -->
<g id="edge66" class="edge">
<title>Node37&#45;&gt;Node36</title>
<path fill="none" stroke="#63b8ff" d="M1279.77,-321.74C1227.9,-312.6 1154.53,-298.69 1091,-283 1045.95,-271.87 1036.35,-262.81 991,-253 877.93,-228.55 844.71,-235.9 727.06,-217.25"/>
<polygon fill="#63b8ff" stroke="#63b8ff" points="727.72,-213.81 717.28,-215.67 726.6,-220.72 727.72,-213.81"/>
</g>
<!-- Node38&#45;&gt;Node5 -->
<g id="edge70" class="edge">
<title>Node38&#45;&gt;Node5</title>
<path fill="none" stroke="#63b8ff" d="M752.17,-324.16C681.94,-314.79 569.09,-299.15 472,-283 466.42,-282.07 460.61,-281.06 454.81,-280.01"/>
<polygon fill="#63b8ff" stroke="#63b8ff" points="455.69,-276.62 445.22,-278.25 454.43,-283.5 455.69,-276.62"/>
</g>
<!-- Node39&#45;&gt;Node8 -->
<g id="edge77" class="edge">
<title>Node39&#45;&gt;Node8</title>
<path fill="none" stroke="#63b8ff" d="M2567.73,-331.35C2259.09,-322.81 872.72,-281.45 447,-217 442.32,-216.29 437.46,-215.4 432.63,-214.41"/>
<polygon fill="#63b8ff" stroke="#63b8ff" points="433.5,-211.02 422.99,-212.29 432,-217.86 433.5,-211.02"/>
</g>
<!-- Node39&#45;&gt;Node13 -->
<g id="edge73" class="edge">
<title>Node39&#45;&gt;Node13</title>
<path fill="none" stroke="#63b8ff" d="M2615.43,-324.17C2603.29,-315.39 2586.33,-300.69 2579,-283 2573.9,-270.68 2576.23,-266.04 2579,-253 2582.63,-235.87 2591.37,-234.13 2595,-217 2597.77,-203.96 2603.93,-196.9 2595,-187 2418.37,8.67 1677.27,-92.45 1415,-66 1253.69,-49.73 1213.05,-48.62 1052,-30 1030.67,-27.53 1006.98,-24.44 987.42,-21.79"/>
<polygon fill="#63b8ff" stroke="#63b8ff" points="988,-18.34 977.62,-20.45 987.06,-25.27 988,-18.34"/>
</g>
<!-- Node39&#45;&gt;Node17 -->
<g id="edge72" class="edge">
<title>Node39&#45;&gt;Node17</title>
<path fill="none" stroke="#63b8ff" d="M2690.45,-332.09C2777.85,-329.49 2931.94,-319.67 2972,-283 2998.96,-258.33 2991,-239.54 2991,-203 2991,-203 2991,-203 2991,-140.5 2991,-16.43 1989.92,-14.87 1791.82,-15.77"/>
<polygon fill="#63b8ff" stroke="#63b8ff" points="1791.95,-12.27 1781.97,-15.82 1791.99,-19.27 1791.95,-12.27"/>
</g>
<!-- Node39&#45;&gt;Node21 -->
<g id="edge78" class="edge">
<title>Node39&#45;&gt;Node21</title>
<path fill="none" stroke="#63b8ff" d="M2567.72,-329.51C2378.64,-318.76 1804.11,-286.07 1587.68,-273.76"/>
<polygon fill="#63b8ff" stroke="#63b8ff" points="1588.1,-270.28 1577.92,-273.21 1587.7,-277.27 1588.1,-270.28"/>
</g>
<!-- Node39&#45;&gt;Node26 -->
<g id="edge79" class="edge">
<title>Node39&#45;&gt;Node26</title>
<path fill="none" stroke="#63b8ff" d="M2604.24,-324.06C2585.42,-316.05 2560.24,-302.53 2545,-283 2532.8,-267.36 2526.78,-245.59 2523.83,-228.71"/>
<polygon fill="#63b8ff" stroke="#63b8ff" points="2527.31,-228.32 2522.39,-218.94 2520.38,-229.34 2527.31,-228.32"/>
</g>
<!-- Node40 -->
<g id="node40" class="node">
<title>Node40</title>
<g id="a_node40"><a xlink:title=" ">
<polygon fill="#e0e0e0" stroke="#999999" points="3061,-277.5 3019,-277.5 3019,-258.5 3061,-258.5 3061,-277.5"/>
<text text-anchor="middle" x="3040" y="-265.5" font-family="Helvetica,sans-Serif" font-size="10.00">array</text>
</a>
</g>
</g>
<!-- Node39&#45;&gt;Node40 -->
<g id="edge74" class="edge">
<title>Node39&#45;&gt;Node40</title>
<path fill="none" stroke="#63b8ff" d="M2690.46,-329.52C2765.67,-324.2 2896.39,-311.47 3005,-283 3006.58,-282.59 3008.19,-282.12 3009.8,-281.61"/>
<polygon fill="#63b8ff" stroke="#63b8ff" points="3010.63,-285.03 3018.87,-278.38 3008.28,-278.44 3010.63,-285.03"/>
</g>
<!-- Node41 -->
<g id="node41" class="node">
<title>Node41</title>
<g id="a_node41"><a xlink:title=" ">
<polygon fill="#e0e0e0" stroke="#999999" points="3143,-277.5 3079,-277.5 3079,-258.5 3143,-258.5 3143,-277.5"/>
<text text-anchor="middle" x="3111" y="-265.5" font-family="Helvetica,sans-Serif" font-size="10.00">algorithm</text>
</a>
</g>
</g>
<!-- Node39&#45;&gt;Node41 -->
<g id="edge75" class="edge">
<title>Node39&#45;&gt;Node41</title>
<path fill="none" stroke="#63b8ff" d="M2690.33,-330.24C2776.15,-325.42 2936.56,-312.98 3070,-283 3072.29,-282.48 3074.64,-281.89 3076.99,-281.23"/>
<polygon fill="#63b8ff" stroke="#63b8ff" points="3077.87,-284.63 3086.39,-278.33 3075.8,-277.94 3077.87,-284.63"/>
</g>
<!-- Node42 -->
<g id="node42" class="node">
<title>Node42</title>
<g id="a_node42"><a xlink:title=" ">
<polygon fill="#e0e0e0" stroke="#999999" points="2670.5,-277.5 2587.5,-277.5 2587.5,-258.5 2670.5,-258.5 2670.5,-277.5"/>
<text text-anchor="middle" x="2629" y="-265.5" font-family="Helvetica,sans-Serif" font-size="10.00">initializer_list</text>
</a>
</g>
</g>
<!-- Node39&#45;&gt;Node42 -->
<g id="edge76" class="edge">
<title>Node39&#45;&gt;Node42</title>
<path fill="none" stroke="#63b8ff" d="M2629,-324.1C2629,-315.12 2629,-300.95 2629,-289.22"/>
<polygon fill="#63b8ff" stroke="#63b8ff" points="2632.5,-289.34 2629,-279.34 2625.5,-289.34 2632.5,-289.34"/>
</g>
<!-- Node43 -->
<g id="node43" class="node">
<title>Node43</title>
<g id="a_node43"><a xlink:title=" ">
<polygon fill="#e0e0e0" stroke="#999999" points="2805,-283 2689,-283 2689,-253 2805,-253 2805,-283"/>
<text text-anchor="start" x="2697" y="-271" font-family="Helvetica,sans-Serif" font-size="10.00">boost/numeric/ublas</text>
<text text-anchor="middle" x="2747" y="-260" font-family="Helvetica,sans-Serif" font-size="10.00">/storage.hpp</text>
</a>
</g>
</g>
<!-- Node39&#45;&gt;Node43 -->
<g id="edge80" class="edge">
<title>Node39&#45;&gt;Node43</title>
<path fill="none" stroke="#63b8ff" d="M2645.41,-324.1C2662.14,-315.03 2688.65,-300.65 2710.39,-288.86"/>
<polygon fill="#63b8ff" stroke="#63b8ff" points="2711.85,-292.04 2718.98,-284.2 2708.52,-285.89 2711.85,-292.04"/>
</g>
<!-- Node44 -->
<g id="node44" class="node">
<title>Node44</title>
<g id="a_node44"><a xlink:title=" ">
<polygon fill="#e0e0e0" stroke="#999999" points="2962.5,-283 2823.5,-283 2823.5,-253 2962.5,-253 2962.5,-283"/>
<text text-anchor="start" x="2831.5" y="-271" font-family="Helvetica,sans-Serif" font-size="10.00">boost/numeric/ublas</text>
<text text-anchor="middle" x="2893" y="-260" font-family="Helvetica,sans-Serif" font-size="10.00">/detail/vector_assign.hpp</text>
</a>
</g>
</g>
<!-- Node39&#45;&gt;Node44 -->
<g id="edge81" class="edge">
<title>Node39&#45;&gt;Node44</title>
<path fill="none" stroke="#63b8ff" d="M2665.99,-324.03C2706.36,-314.25 2771.95,-298.35 2822.27,-286.15"/>
<polygon fill="#63b8ff" stroke="#63b8ff" points="2823.05,-289.56 2831.94,-283.8 2821.4,-282.76 2823.05,-289.56"/>
</g>
</g>
</svg>
