<?xml version="1.0" encoding="UTF-8" standalone="no"?>
<!DOCTYPE svg PUBLIC "-//W3C//DTD SVG 1.1//EN"
 "http://www.w3.org/Graphics/SVG/1.1/DTD/svg11.dtd">
<!-- Generated by graphviz version 7.1.0 (0)
 -->
<!-- Title: /software/kratos/doxygen/applications/ParticleMechanicsApplication/custom_conditions/grid_based_conditions/mpm_grid_axisym_point_load_condition.h Pages: 1 -->
<svg width="382pt" height="258pt"
 viewBox="0.00 0.00 381.50 258.00" xmlns="http://www.w3.org/2000/svg" xmlns:xlink="http://www.w3.org/1999/xlink">
<g id="graph0" class="graph" transform="scale(1 1) rotate(0) translate(4 254)">
<title>/software/kratos/doxygen/applications/ParticleMechanicsApplication/custom_conditions/grid_based_conditions/mpm_grid_axisym_point_load_condition.h</title>
<!-- Node1 -->
<g id="node1" class="node">
<title>Node1</title>
<g id="a_node1"><a xlink:title=" ">
<polygon fill="#999999" stroke="#666666" points="281,-250 100,-250 100,-187 281,-187 281,-250"/>
<text text-anchor="start" x="108" y="-238" font-family="Helvetica,sans-Serif" font-size="10.00">/software/kratos/doxygen</text>
<text text-anchor="start" x="108" y="-227" font-family="Helvetica,sans-Serif" font-size="10.00">/applications/ParticleMechanics</text>
<text text-anchor="start" x="108" y="-216" font-family="Helvetica,sans-Serif" font-size="10.00">Application/custom_conditions</text>
<text text-anchor="start" x="108" y="-205" font-family="Helvetica,sans-Serif" font-size="10.00">/grid_based_conditions/mpm_grid</text>
<text text-anchor="middle" x="190.5" y="-194" font-family="Helvetica,sans-Serif" font-size="10.00">_axisym_point_load_condition.h</text>
</a>
</g>
</g>
<!-- Node2 -->
<g id="node2" class="node">
<title>Node2</title>
<g id="a_node2"><a xlink:href="../../d1/dde/mpm__grid__axisym__point__load__condition_8cpp.html" target="_top" xlink:title=" ">
<polygon fill="white" stroke="#666666" points="185,-151 0,-151 0,-88 185,-88 185,-151"/>
<text text-anchor="start" x="8" y="-139" font-family="Helvetica,sans-Serif" font-size="10.00">/software/kratos/doxygen</text>
<text text-anchor="start" x="8" y="-128" font-family="Helvetica,sans-Serif" font-size="10.00">/applications/ParticleMechanics</text>
<text text-anchor="start" x="8" y="-117" font-family="Helvetica,sans-Serif" font-size="10.00">Application/custom_conditions</text>
<text text-anchor="start" x="8" y="-106" font-family="Helvetica,sans-Serif" font-size="10.00">/grid_based_conditions/mpm_grid</text>
<text text-anchor="middle" x="92.5" y="-95" font-family="Helvetica,sans-Serif" font-size="10.00">_axisym_point_load_condition.cpp</text>
</a>
</g>
</g>
<!-- Node1&#45;&gt;Node2 -->
<g id="edge1" class="edge">
<title>Node1&#45;&gt;Node2</title>
<path fill="none" stroke="#63b8ff" d="M151.06,-178.47C142,-169.5 132.48,-160.07 123.82,-151.5"/>
<polygon fill="#63b8ff" stroke="#63b8ff" points="148.58,-180.93 158.15,-185.48 153.5,-175.95 148.58,-180.93"/>
</g>
<!-- Node3 -->
<g id="node3" class="node">
<title>Node3</title>
<g id="a_node3"><a xlink:href="../../d0/d91/particle__mechanics__application_8h.html" target="_top" xlink:title=" ">
<polygon fill="white" stroke="#666666" points="373.5,-145.5 203.5,-145.5 203.5,-93.5 373.5,-93.5 373.5,-145.5"/>
<text text-anchor="start" x="211.5" y="-133.5" font-family="Helvetica,sans-Serif" font-size="10.00">/software/kratos/doxygen</text>
<text text-anchor="start" x="211.5" y="-122.5" font-family="Helvetica,sans-Serif" font-size="10.00">/applications/ParticleMechanics</text>
<text text-anchor="start" x="211.5" y="-111.5" font-family="Helvetica,sans-Serif" font-size="10.00">Application/particle_mechanics</text>
<text text-anchor="middle" x="288.5" y="-100.5" font-family="Helvetica,sans-Serif" font-size="10.00">_application.h</text>
</a>
</g>
</g>
<!-- Node1&#45;&gt;Node3 -->
<g id="edge2" class="edge">
<title>Node1&#45;&gt;Node3</title>
<path fill="none" stroke="#63b8ff" d="M229.72,-178.68C240.84,-167.68 252.66,-155.98 262.76,-145.98"/>
<polygon fill="#63b8ff" stroke="#63b8ff" points="227.5,-175.95 222.85,-185.48 232.42,-180.93 227.5,-175.95"/>
</g>
<!-- Node4 -->
<g id="node4" class="node">
<title>Node4</title>
<g id="a_node4"><a xlink:href="../../d2/d00/particle__mechanics__application_8cpp.html" target="_top" xlink:title=" ">
<polygon fill="white" stroke="#666666" points="373.5,-52 203.5,-52 203.5,0 373.5,0 373.5,-52"/>
<text text-anchor="start" x="211.5" y="-40" font-family="Helvetica,sans-Serif" font-size="10.00">/software/kratos/doxygen</text>
<text text-anchor="start" x="211.5" y="-29" font-family="Helvetica,sans-Serif" font-size="10.00">/applications/ParticleMechanics</text>
<text text-anchor="start" x="211.5" y="-18" font-family="Helvetica,sans-Serif" font-size="10.00">Application/particle_mechanics</text>
<text text-anchor="middle" x="288.5" y="-7" font-family="Helvetica,sans-Serif" font-size="10.00">_application.cpp</text>
</a>
</g>
</g>
<!-- Node3&#45;&gt;Node4 -->
<g id="edge3" class="edge">
<title>Node3&#45;&gt;Node4</title>
<path fill="none" stroke="#63b8ff" d="M288.5,-81.8C288.5,-71.92 288.5,-61.46 288.5,-52.35"/>
<polygon fill="#63b8ff" stroke="#63b8ff" points="285,-81.5 288.5,-91.5 292,-81.5 285,-81.5"/>
</g>
</g>
</svg>
