<?xml version="1.0" encoding="UTF-8" standalone="no"?>
<!DOCTYPE svg PUBLIC "-//W3C//DTD SVG 1.1//EN"
 "http://www.w3.org/Graphics/SVG/1.1/DTD/svg11.dtd">
<!-- Generated by graphviz version 7.1.0 (0)
 -->
<!-- Title: placeholder_process.PlaceholderProcess Pages: 1 -->
<svg width="184pt" height="171pt"
 viewBox="0.00 0.00 184.00 171.00" xmlns="http://www.w3.org/2000/svg" xmlns:xlink="http://www.w3.org/1999/xlink">
<g id="graph0" class="graph" transform="scale(1 1) rotate(0) translate(4 167)">
<title>placeholder_process.PlaceholderProcess</title>
<!-- Node1 -->
<g id="node1" class="node">
<title>Node1</title>
<g id="a_node1"><a xlink:title=" ">
<polygon fill="#999999" stroke="#666666" points="0,-0.5 0,-68.5 176,-68.5 176,-0.5 0,-0.5"/>
<text text-anchor="start" x="8" y="-56.5" font-family="Helvetica,sans-Serif" font-size="10.00">placeholder_process.Placeholder</text>
<text text-anchor="middle" x="88" y="-45.5" font-family="Helvetica,sans-Serif" font-size="10.00">Process</text>
<polyline fill="none" stroke="#666666" points="0,-38.5 176,-38.5"/>
<text text-anchor="middle" x="88" y="-26.5" font-family="Helvetica,sans-Serif" font-size="10.00"> </text>
<polyline fill="none" stroke="#666666" points="0,-19.5 176,-19.5"/>
<text text-anchor="start" x="8" y="-7.5" font-family="Helvetica,sans-Serif" font-size="10.00">+ __init__()</text>
</a>
</g>
</g>
<!-- Node2 -->
<g id="node2" class="node">
<title>Node2</title>
<g id="a_node2"><a xlink:title=" ">
<polygon fill="white" stroke="#666666" points="13,-105.5 13,-162.5 163,-162.5 163,-105.5 13,-105.5"/>
<text text-anchor="middle" x="88" y="-150.5" font-family="Helvetica,sans-Serif" font-size="10.00">KratosMultiphysics.Process</text>
<polyline fill="none" stroke="#666666" points="13,-143.5 163,-143.5"/>
<text text-anchor="middle" x="88" y="-131.5" font-family="Helvetica,sans-Serif" font-size="10.00"> </text>
<polyline fill="none" stroke="#666666" points="13,-124.5 163,-124.5"/>
<text text-anchor="middle" x="88" y="-112.5" font-family="Helvetica,sans-Serif" font-size="10.00"> </text>
</a>
</g>
</g>
<!-- Node2&#45;&gt;Node1 -->
<g id="edge1" class="edge">
<title>Node2&#45;&gt;Node1</title>
<path fill="none" stroke="#63b8ff" d="M88,-94.22C88,-85.62 88,-76.58 88,-68.24"/>
<polygon fill="none" stroke="#63b8ff" points="84.5,-94.07 88,-104.07 91.5,-94.07 84.5,-94.07"/>
</g>
</g>
</svg>
