<?xml version="1.0" encoding="UTF-8" standalone="no"?>
<!DOCTYPE svg PUBLIC "-//W3C//DTD SVG 1.1//EN"
 "http://www.w3.org/Graphics/SVG/1.1/DTD/svg11.dtd">
<!-- Generated by graphviz version 2.43.0 (0)
 -->
<!-- Title: /home/runner/work/Documentation/Documentation/master/kratos/containers/container_expression/expressions/literal/literal_flat_expression.h Pages: 1 -->
<!--zoomable 628 -->
<svg id="main" version="1.1" xmlns="http://www.w3.org/2000/svg" xmlns:xlink="http://www.w3.org/1999/xlink" xml:space="preserve" onload="init(evt)">
<style type="text/css"><![CDATA[
.edge:hover path { stroke: red; }
.edge:hover polygon { stroke: red; fill: red; }
]]></style>
<script type="text/javascript"><![CDATA[
var edges = document.getElementsByTagName('g');
if (edges && edges.length) {
  for (var i=0;i<edges.length;i++) {
    if (edges[i].id.substr(0,4)=='edge') {
      edges[i].setAttribute('class','edge');
    }
  }
}
]]></script>
        <defs>
                <circle id="rim" cx="0" cy="0" r="7"/>
                <circle id="rim2" cx="0" cy="0" r="3.5"/>
                <g id="zoomPlus">
                        <use xlink:href="#rim" fill="#404040">
                                <set attributeName="fill" to="#808080" begin="zoomplus.mouseover" end="zoomplus.mouseout"/>
                        </use>
                        <path d="M-4,0h8M0,-4v8" fill="none" stroke="white" stroke-width="1.5" pointer-events="none"/>
                </g>
                <g id="zoomMin">
                        <use xlink:href="#rim" fill="#404040">
                                <set attributeName="fill" to="#808080" begin="zoomminus.mouseover" end="zoomminus.mouseout"/>
                        </use>
                        <path d="M-4,0h8" fill="none" stroke="white" stroke-width="1.5" pointer-events="none"/>
                </g>
                <g id="dirArrow">
                        <path fill="none" stroke="white" stroke-width="1.5" d="M0,-3.0v7 M-2.5,-0.5L0,-3.0L2.5,-0.5"/>
                </g>
               <g id="resetDef">
                       <use xlink:href="#rim2" fill="#404040">
                               <set attributeName="fill" to="#808080" begin="reset.mouseover" end="reset.mouseout"/>
                       </use>
               </g>
        </defs>

<script type="text/javascript">
var viewWidth = 1054;
var viewHeight = 628;
var sectionId = 'dynsection-1';
</script>
<script xlink:href="../../svgpan.js"/>
<svg id="graph" class="graph">
<g id="viewport">
<title>/home/runner/work/Documentation/Documentation/master/kratos/containers/container_expression/expressions/literal/literal_flat_expression.h</title>
<!-- Node1 -->
<g id="node1" class="node">
<title>Node1</title>
<g id="a_node1"><a xlink:title=" ">
<polygon fill="#bfbfbf" stroke="black" points="544,-556.5 544,-619.5 731,-619.5 731,-556.5 544,-556.5"/>
<text text-anchor="start" x="552" y="-607.5" font-family="Helvetica,sans-Serif" font-size="10.00">/home/runner/work/Documentation</text>
<text text-anchor="start" x="552" y="-596.5" font-family="Helvetica,sans-Serif" font-size="10.00">/Documentation/master/kratos</text>
<text text-anchor="start" x="552" y="-585.5" font-family="Helvetica,sans-Serif" font-size="10.00">/containers/container_expression</text>
<text text-anchor="start" x="552" y="-574.5" font-family="Helvetica,sans-Serif" font-size="10.00">/expressions/literal/literal_flat</text>
<text text-anchor="middle" x="637.5" y="-563.5" font-family="Helvetica,sans-Serif" font-size="10.00">_expression.h</text>
</a>
</g>
</g>
<!-- Node2 -->
<g id="node2" class="node">
<title>Node2</title>
<g id="a_node2"><a xlink:href="../../d4/d95/container__expression_8cpp.html" target="_top" xlink:title=" ">
<polygon fill="none" stroke="black" points="279,-462 279,-514 466,-514 466,-462 279,-462"/>
<text text-anchor="start" x="287" y="-502" font-family="Helvetica,sans-Serif" font-size="10.00">/home/runner/work/Documentation</text>
<text text-anchor="start" x="287" y="-491" font-family="Helvetica,sans-Serif" font-size="10.00">/Documentation/master/kratos</text>
<text text-anchor="start" x="287" y="-480" font-family="Helvetica,sans-Serif" font-size="10.00">/containers/container_expression</text>
<text text-anchor="middle" x="372.5" y="-469" font-family="Helvetica,sans-Serif" font-size="10.00">/container_expression.cpp</text>
</a>
</g>
</g>
<!-- Node1&#45;&gt;Node2 -->
<g id="edge1" class="edge">
<title>Node1&#45;&gt;Node2</title>
<path fill="none" stroke="midnightblue" d="M545.14,-552.85C510.71,-540.11 472.27,-525.9 440.43,-514.12"/>
<polygon fill="midnightblue" stroke="midnightblue" points="544.15,-556.21 554.74,-556.4 546.58,-549.64 544.15,-556.21"/>
</g>
<!-- Node3 -->
<g id="node3" class="node">
<title>Node3</title>
<g id="a_node3"><a xlink:href="../../d2/df3/literal__flat__expression_8cpp.html" target="_top" xlink:title=" ">
<polygon fill="none" stroke="black" points="484,-456.5 484,-519.5 671,-519.5 671,-456.5 484,-456.5"/>
<text text-anchor="start" x="492" y="-507.5" font-family="Helvetica,sans-Serif" font-size="10.00">/home/runner/work/Documentation</text>
<text text-anchor="start" x="492" y="-496.5" font-family="Helvetica,sans-Serif" font-size="10.00">/Documentation/master/kratos</text>
<text text-anchor="start" x="492" y="-485.5" font-family="Helvetica,sans-Serif" font-size="10.00">/containers/container_expression</text>
<text text-anchor="start" x="492" y="-474.5" font-family="Helvetica,sans-Serif" font-size="10.00">/expressions/literal/literal_flat</text>
<text text-anchor="middle" x="577.5" y="-463.5" font-family="Helvetica,sans-Serif" font-size="10.00">_expression.cpp</text>
</a>
</g>
</g>
<!-- Node1&#45;&gt;Node3 -->
<g id="edge2" class="edge">
<title>Node1&#45;&gt;Node3</title>
<path fill="none" stroke="midnightblue" d="M613.34,-547.54C607.65,-538.24 601.67,-528.47 596.25,-519.63"/>
<polygon fill="midnightblue" stroke="midnightblue" points="610.47,-549.56 618.68,-556.26 616.44,-545.9 610.47,-549.56"/>
</g>
<!-- Node4 -->
<g id="node4" class="node">
<title>Node4</title>
<g id="a_node4"><a xlink:href="../../d1/d91/specialized__container__expression__impl_8h.html" target="_top" xlink:title=" ">
<polygon fill="none" stroke="black" points="583.5,-367.5 583.5,-419.5 803.5,-419.5 803.5,-367.5 583.5,-367.5"/>
<text text-anchor="start" x="591.5" y="-407.5" font-family="Helvetica,sans-Serif" font-size="10.00">/home/runner/work/Documentation</text>
<text text-anchor="start" x="591.5" y="-396.5" font-family="Helvetica,sans-Serif" font-size="10.00">/Documentation/master/kratos</text>
<text text-anchor="start" x="591.5" y="-385.5" font-family="Helvetica,sans-Serif" font-size="10.00">/containers/container_expression</text>
<text text-anchor="middle" x="693.5" y="-374.5" font-family="Helvetica,sans-Serif" font-size="10.00">/specialized_container_expression_impl.h</text>
</a>
</g>
</g>
<!-- Node1&#45;&gt;Node4 -->
<g id="edge3" class="edge">
<title>Node1&#45;&gt;Node4</title>
<path fill="none" stroke="midnightblue" d="M666.04,-547.92C671.3,-539.11 676.18,-529.53 679.5,-520 691.12,-486.67 693.66,-445.63 693.95,-419.75"/>
<polygon fill="midnightblue" stroke="midnightblue" points="663.03,-546.12 660.69,-556.46 668.96,-549.84 663.03,-546.12"/>
</g>
<!-- Node13 -->
<g id="node13" class="node">
<title>Node13</title>
<g id="a_node13"><a xlink:href="../../dc/d17/variable__expression__data__io_8h.html" target="_top" xlink:title=" ">
<polygon fill="none" stroke="black" points="734,-462 734,-514 921,-514 921,-462 734,-462"/>
<text text-anchor="start" x="742" y="-502" font-family="Helvetica,sans-Serif" font-size="10.00">/home/runner/work/Documentation</text>
<text text-anchor="start" x="742" y="-491" font-family="Helvetica,sans-Serif" font-size="10.00">/Documentation/master/kratos</text>
<text text-anchor="start" x="742" y="-480" font-family="Helvetica,sans-Serif" font-size="10.00">/containers/container_expression</text>
<text text-anchor="middle" x="827.5" y="-469" font-family="Helvetica,sans-Serif" font-size="10.00">/variable_expression_data_io.h</text>
</a>
</g>
</g>
<!-- Node1&#45;&gt;Node13 -->
<g id="edge17" class="edge">
<title>Node1&#45;&gt;Node13</title>
<path fill="none" stroke="midnightblue" d="M705.94,-551.7C730.05,-539.26 756.65,-525.55 778.8,-514.12"/>
<polygon fill="midnightblue" stroke="midnightblue" points="704.12,-548.7 696.84,-556.4 707.33,-554.92 704.12,-548.7"/>
</g>
<!-- Node5 -->
<g id="node5" class="node">
<title>Node5</title>
<g id="a_node5"><a xlink:href="../../db/d19/specialized__container__expression_8h.html" target="_top" xlink:title=" ">
<polygon fill="none" stroke="black" points="271,-278.5 271,-330.5 464,-330.5 464,-278.5 271,-278.5"/>
<text text-anchor="start" x="279" y="-318.5" font-family="Helvetica,sans-Serif" font-size="10.00">/home/runner/work/Documentation</text>
<text text-anchor="start" x="279" y="-307.5" font-family="Helvetica,sans-Serif" font-size="10.00">/Documentation/master/kratos</text>
<text text-anchor="start" x="279" y="-296.5" font-family="Helvetica,sans-Serif" font-size="10.00">/containers/container_expression</text>
<text text-anchor="middle" x="367.5" y="-285.5" font-family="Helvetica,sans-Serif" font-size="10.00">/specialized_container_expression.h</text>
</a>
</g>
</g>
<!-- Node4&#45;&gt;Node5 -->
<g id="edge4" class="edge">
<title>Node4&#45;&gt;Node5</title>
<path fill="none" stroke="midnightblue" d="M589.84,-364.84C548.59,-353.83 501.47,-341.25 461.26,-330.52"/>
<polygon fill="midnightblue" stroke="midnightblue" points="589.08,-368.26 599.64,-367.45 590.89,-361.49 589.08,-368.26"/>
</g>
<!-- Node6 -->
<g id="node6" class="node">
<title>Node6</title>
<g id="a_node6"><a xlink:href="../../d9/d93/add__container__expression__to__python_8cpp.html" target="_top" xlink:title=" ">
<polygon fill="none" stroke="black" points="0,-100.5 0,-152.5 187,-152.5 187,-100.5 0,-100.5"/>
<text text-anchor="start" x="8" y="-140.5" font-family="Helvetica,sans-Serif" font-size="10.00">/home/runner/work/Documentation</text>
<text text-anchor="start" x="8" y="-129.5" font-family="Helvetica,sans-Serif" font-size="10.00">/Documentation/master/kratos</text>
<text text-anchor="start" x="8" y="-118.5" font-family="Helvetica,sans-Serif" font-size="10.00">/python/add_container_expression</text>
<text text-anchor="middle" x="93.5" y="-107.5" font-family="Helvetica,sans-Serif" font-size="10.00">_to_python.cpp</text>
</a>
</g>
</g>
<!-- Node5&#45;&gt;Node6 -->
<g id="edge5" class="edge">
<title>Node5&#45;&gt;Node6</title>
<path fill="none" stroke="midnightblue" d="M260.85,-295.32C186.07,-287.12 95.35,-271.32 71.5,-242 50.93,-216.72 64.94,-177.95 78.16,-152.66"/>
<polygon fill="midnightblue" stroke="midnightblue" points="260.51,-298.81 270.82,-296.38 261.25,-291.85 260.51,-298.81"/>
</g>
<!-- Node7 -->
<g id="node7" class="node">
<title>Node7</title>
<g id="a_node7"><a xlink:href="../../db/d1d/add__container__expression__to__python__utils_8h.html" target="_top" xlink:title=" ">
<polygon fill="none" stroke="black" points="81,-189.5 81,-241.5 268,-241.5 268,-189.5 81,-189.5"/>
<text text-anchor="start" x="89" y="-229.5" font-family="Helvetica,sans-Serif" font-size="10.00">/home/runner/work/Documentation</text>
<text text-anchor="start" x="89" y="-218.5" font-family="Helvetica,sans-Serif" font-size="10.00">/Documentation/master/kratos</text>
<text text-anchor="start" x="89" y="-207.5" font-family="Helvetica,sans-Serif" font-size="10.00">/python/add_container_expression</text>
<text text-anchor="middle" x="174.5" y="-196.5" font-family="Helvetica,sans-Serif" font-size="10.00">_to_python_utils.h</text>
</a>
</g>
</g>
<!-- Node5&#45;&gt;Node7 -->
<g id="edge6" class="edge">
<title>Node5&#45;&gt;Node7</title>
<path fill="none" stroke="midnightblue" d="M302.71,-274.29C279.13,-263.67 252.71,-251.76 230.01,-241.52"/>
<polygon fill="midnightblue" stroke="midnightblue" points="301.38,-277.53 311.94,-278.45 304.26,-271.15 301.38,-277.53"/>
</g>
<!-- Node8 -->
<g id="node8" class="node">
<title>Node8</title>
<g id="a_node8"><a xlink:href="../../d4/d97/_optimization_application_2custom__python_2add__custom__utilities__to__python_8cpp.html" target="_top" xlink:title=" ">
<polygon fill="none" stroke="black" points="207.5,-0.5 207.5,-63.5 401.5,-63.5 401.5,-0.5 207.5,-0.5"/>
<text text-anchor="start" x="215.5" y="-51.5" font-family="Helvetica,sans-Serif" font-size="10.00">/home/runner/work/Documentation</text>
<text text-anchor="start" x="215.5" y="-40.5" font-family="Helvetica,sans-Serif" font-size="10.00">/Documentation/master/applications</text>
<text text-anchor="start" x="215.5" y="-29.5" font-family="Helvetica,sans-Serif" font-size="10.00">/OptimizationApplication/custom</text>
<text text-anchor="start" x="215.5" y="-18.5" font-family="Helvetica,sans-Serif" font-size="10.00">_python/add_custom_utilities_to</text>
<text text-anchor="middle" x="304.5" y="-7.5" font-family="Helvetica,sans-Serif" font-size="10.00">_python.cpp</text>
</a>
</g>
</g>
<!-- Node5&#45;&gt;Node8 -->
<g id="edge9" class="edge">
<title>Node5&#45;&gt;Node8</title>
<path fill="none" stroke="midnightblue" d="M346.46,-269.49C341.69,-260.76 337,-251.23 333.5,-242 310.6,-181.73 305.48,-105.55 304.52,-63.82"/>
<polygon fill="midnightblue" stroke="midnightblue" points="343.44,-271.27 351.41,-278.25 349.54,-267.82 343.44,-271.27"/>
</g>
<!-- Node9 -->
<g id="node9" class="node">
<title>Node9</title>
<g id="a_node9"><a xlink:href="../../db/d94/collective__expressions_8h.html" target="_top" xlink:title=" ">
<polygon fill="none" stroke="black" points="342.5,-189.5 342.5,-241.5 536.5,-241.5 536.5,-189.5 342.5,-189.5"/>
<text text-anchor="start" x="350.5" y="-229.5" font-family="Helvetica,sans-Serif" font-size="10.00">/home/runner/work/Documentation</text>
<text text-anchor="start" x="350.5" y="-218.5" font-family="Helvetica,sans-Serif" font-size="10.00">/Documentation/master/applications</text>
<text text-anchor="start" x="350.5" y="-207.5" font-family="Helvetica,sans-Serif" font-size="10.00">/OptimizationApplication/custom</text>
<text text-anchor="middle" x="439.5" y="-196.5" font-family="Helvetica,sans-Serif" font-size="10.00">_utilities/collective_expressions.h</text>
</a>
</g>
</g>
<!-- Node5&#45;&gt;Node9 -->
<g id="edge10" class="edge">
<title>Node5&#45;&gt;Node9</title>
<path fill="none" stroke="midnightblue" d="M394.81,-270.5C402.74,-260.92 411.26,-250.62 418.72,-241.61"/>
<polygon fill="midnightblue" stroke="midnightblue" points="392,-268.4 388.33,-278.34 397.4,-272.86 392,-268.4"/>
</g>
<!-- Node12 -->
<g id="node12" class="node">
<title>Node12</title>
<g id="a_node12"><a xlink:href="../../df/d38/container__expression__utils_8cpp.html" target="_top" xlink:title=" ">
<polygon fill="none" stroke="black" points="687.5,-6 687.5,-58 899.5,-58 899.5,-6 687.5,-6"/>
<text text-anchor="start" x="695.5" y="-46" font-family="Helvetica,sans-Serif" font-size="10.00">/home/runner/work/Documentation</text>
<text text-anchor="start" x="695.5" y="-35" font-family="Helvetica,sans-Serif" font-size="10.00">/Documentation/master/applications</text>
<text text-anchor="start" x="695.5" y="-24" font-family="Helvetica,sans-Serif" font-size="10.00">/OptimizationApplication/custom</text>
<text text-anchor="middle" x="793.5" y="-13" font-family="Helvetica,sans-Serif" font-size="10.00">_utilities/container_expression_utils.cpp</text>
</a>
</g>
</g>
<!-- Node5&#45;&gt;Node12 -->
<g id="edge16" class="edge">
<title>Node5&#45;&gt;Node12</title>
<path fill="none" stroke="midnightblue" d="M474.48,-293.98C568.54,-279.61 701.5,-243.54 774.5,-153 796.08,-126.24 797.88,-84.9 796.34,-58.41"/>
<polygon fill="midnightblue" stroke="midnightblue" points="473.74,-290.55 464.36,-295.47 474.76,-297.48 473.74,-290.55"/>
</g>
<!-- Node7&#45;&gt;Node6 -->
<g id="edge7" class="edge">
<title>Node7&#45;&gt;Node6</title>
<path fill="none" stroke="midnightblue" d="M144.05,-181.79C135.05,-172.13 125.35,-161.71 116.88,-152.61"/>
<polygon fill="midnightblue" stroke="midnightblue" points="141.7,-184.4 151.07,-189.34 146.82,-179.63 141.7,-184.4"/>
</g>
<!-- Node7&#45;&gt;Node8 -->
<g id="edge8" class="edge">
<title>Node7&#45;&gt;Node8</title>
<path fill="none" stroke="midnightblue" d="M198.7,-180.72C222.72,-147.18 259.21,-96.23 282.45,-63.78"/>
<polygon fill="midnightblue" stroke="midnightblue" points="195.55,-179.1 192.58,-189.26 201.24,-183.17 195.55,-179.1"/>
</g>
<!-- Node9&#45;&gt;Node8 -->
<g id="edge11" class="edge">
<title>Node9&#45;&gt;Node8</title>
<path fill="none" stroke="midnightblue" d="M377.14,-184.09C364.28,-175.49 351.83,-165.12 342.5,-153 322.3,-126.77 312.7,-89.56 308.23,-63.55"/>
<polygon fill="midnightblue" stroke="midnightblue" points="375.3,-187.07 385.62,-189.47 379.05,-181.16 375.3,-187.07"/>
</g>
<!-- Node10 -->
<g id="node10" class="node">
<title>Node10</title>
<g id="a_node10"><a xlink:href="../../d5/de7/collective__expressions_8cpp.html" target="_top" xlink:title=" ">
<polygon fill="none" stroke="black" points="351.5,-100.5 351.5,-152.5 545.5,-152.5 545.5,-100.5 351.5,-100.5"/>
<text text-anchor="start" x="359.5" y="-140.5" font-family="Helvetica,sans-Serif" font-size="10.00">/home/runner/work/Documentation</text>
<text text-anchor="start" x="359.5" y="-129.5" font-family="Helvetica,sans-Serif" font-size="10.00">/Documentation/master/applications</text>
<text text-anchor="start" x="359.5" y="-118.5" font-family="Helvetica,sans-Serif" font-size="10.00">/OptimizationApplication/custom</text>
<text text-anchor="middle" x="448.5" y="-107.5" font-family="Helvetica,sans-Serif" font-size="10.00">_utilities/collective_expressions.cpp</text>
</a>
</g>
</g>
<!-- Node9&#45;&gt;Node10 -->
<g id="edge12" class="edge">
<title>Node9&#45;&gt;Node10</title>
<path fill="none" stroke="midnightblue" d="M443.15,-179.19C444.07,-170.28 445.04,-160.9 445.9,-152.61"/>
<polygon fill="midnightblue" stroke="midnightblue" points="439.65,-179.03 442.1,-189.34 446.61,-179.75 439.65,-179.03"/>
</g>
<!-- Node11 -->
<g id="node11" class="node">
<title>Node11</title>
<g id="a_node11"><a xlink:href="../../d3/d9c/container__expression__utils_8h.html" target="_top" xlink:title=" ">
<polygon fill="none" stroke="black" points="564,-100.5 564,-152.5 765,-152.5 765,-100.5 564,-100.5"/>
<text text-anchor="start" x="572" y="-140.5" font-family="Helvetica,sans-Serif" font-size="10.00">/home/runner/work/Documentation</text>
<text text-anchor="start" x="572" y="-129.5" font-family="Helvetica,sans-Serif" font-size="10.00">/Documentation/master/applications</text>
<text text-anchor="start" x="572" y="-118.5" font-family="Helvetica,sans-Serif" font-size="10.00">/OptimizationApplication/custom</text>
<text text-anchor="middle" x="664.5" y="-107.5" font-family="Helvetica,sans-Serif" font-size="10.00">_utilities/container_expression_utils.h</text>
</a>
</g>
</g>
<!-- Node9&#45;&gt;Node11 -->
<g id="edge13" class="edge">
<title>Node9&#45;&gt;Node11</title>
<path fill="none" stroke="midnightblue" d="M513.94,-185.72C541.7,-174.98 572.97,-162.89 599.79,-152.52"/>
<polygon fill="midnightblue" stroke="midnightblue" points="512.34,-182.58 504.28,-189.45 514.87,-189.11 512.34,-182.58"/>
</g>
<!-- Node11&#45;&gt;Node8 -->
<g id="edge14" class="edge">
<title>Node11&#45;&gt;Node8</title>
<path fill="none" stroke="midnightblue" d="M557.33,-97.96C507.95,-85.27 449.78,-70.33 401.69,-57.97"/>
<polygon fill="midnightblue" stroke="midnightblue" points="556.52,-101.37 567.08,-100.47 558.26,-94.59 556.52,-101.37"/>
</g>
<!-- Node11&#45;&gt;Node12 -->
<g id="edge15" class="edge">
<title>Node11&#45;&gt;Node12</title>
<path fill="none" stroke="midnightblue" d="M707.83,-94.43C724.34,-82.59 742.93,-69.26 758.56,-58.05"/>
<polygon fill="midnightblue" stroke="midnightblue" points="705.5,-91.8 699.41,-100.47 709.58,-97.49 705.5,-91.8"/>
</g>
<!-- Node13&#45;&gt;Node4 -->
<g id="edge18" class="edge">
<title>Node13&#45;&gt;Node4</title>
<path fill="none" stroke="midnightblue" d="M782.97,-456.26C765.7,-444.34 746.18,-430.87 729.79,-419.55"/>
<polygon fill="midnightblue" stroke="midnightblue" points="781.02,-459.17 791.24,-461.97 785,-453.41 781.02,-459.17"/>
</g>
<!-- Node13&#45;&gt;Node12 -->
<g id="edge20" class="edge">
<title>Node13&#45;&gt;Node12</title>
<path fill="none" stroke="midnightblue" d="M828.74,-451.6C829.92,-415.02 831.5,-356.27 831.5,-305.5 831.5,-305.5 831.5,-305.5 831.5,-214.5 831.5,-157.68 813.44,-92.93 802.22,-58.2"/>
<polygon fill="midnightblue" stroke="midnightblue" points="825.24,-451.64 828.41,-461.75 832.23,-451.87 825.24,-451.64"/>
</g>
<!-- Node14 -->
<g id="node14" class="node">
<title>Node14</title>
<g id="a_node14"><a xlink:href="../../da/d44/variable__expression__data__io_8cpp.html" target="_top" xlink:title=" ">
<polygon fill="none" stroke="black" points="859,-367.5 859,-419.5 1046,-419.5 1046,-367.5 859,-367.5"/>
<text text-anchor="start" x="867" y="-407.5" font-family="Helvetica,sans-Serif" font-size="10.00">/home/runner/work/Documentation</text>
<text text-anchor="start" x="867" y="-396.5" font-family="Helvetica,sans-Serif" font-size="10.00">/Documentation/master/kratos</text>
<text text-anchor="start" x="867" y="-385.5" font-family="Helvetica,sans-Serif" font-size="10.00">/containers/container_expression</text>
<text text-anchor="middle" x="952.5" y="-374.5" font-family="Helvetica,sans-Serif" font-size="10.00">/variable_expression_data_io.cpp</text>
</a>
</g>
</g>
<!-- Node13&#45;&gt;Node14 -->
<g id="edge19" class="edge">
<title>Node13&#45;&gt;Node14</title>
<path fill="none" stroke="midnightblue" d="M869.48,-455.93C885.48,-444.09 903.5,-430.76 918.65,-419.55"/>
<polygon fill="midnightblue" stroke="midnightblue" points="867.28,-453.21 861.33,-461.97 871.45,-458.83 867.28,-453.21"/>
</g>
</g>
</svg>
        <g id="navigator" transform="translate(0 0)" fill="#404254">
                <rect fill="#f2f5e9" fill-opacity="0.5" stroke="#606060" stroke-width=".5" x="0" y="0" width="60" height="60"/>
                <use id="zoomplus" xlink:href="#zoomPlus" x="17" y="9" onmousedown="handleZoom(evt,'in')"/>
                <use id="zoomminus" xlink:href="#zoomMin" x="42" y="9" onmousedown="handleZoom(evt,'out')"/>
                <use id="reset" xlink:href="#resetDef" x="30" y="36" onmousedown="handleReset()"/>
                <g id="arrowUp" xlink:href="#dirArrow" transform="translate(30 24)" onmousedown="handlePan(0,-1)">
                  <use xlink:href="#rim" fill="#404040">
                        <set attributeName="fill" to="#808080" begin="arrowUp.mouseover" end="arrowUp.mouseout"/>
                  </use>
                  <path fill="none" stroke="white" stroke-width="1.5" d="M0,-3.0v7 M-2.5,-0.5L0,-3.0L2.5,-0.5"/>
                </g>
                <g id="arrowRight" xlink:href="#dirArrow" transform="rotate(90) translate(36 -43)" onmousedown="handlePan(1,0)">
                  <use xlink:href="#rim" fill="#404040">
                        <set attributeName="fill" to="#808080" begin="arrowRight.mouseover" end="arrowRight.mouseout"/>
                  </use>
                  <path fill="none" stroke="white" stroke-width="1.5" d="M0,-3.0v7 M-2.5,-0.5L0,-3.0L2.5,-0.5"/>
                </g>
                <g id="arrowDown" xlink:href="#dirArrow" transform="rotate(180) translate(-30 -48)" onmousedown="handlePan(0,1)">
                  <use xlink:href="#rim" fill="#404040">
                        <set attributeName="fill" to="#808080" begin="arrowDown.mouseover" end="arrowDown.mouseout"/>
                  </use>
                  <path fill="none" stroke="white" stroke-width="1.5" d="M0,-3.0v7 M-2.5,-0.5L0,-3.0L2.5,-0.5"/>
                </g>
                <g id="arrowLeft" xlink:href="#dirArrow" transform="rotate(270) translate(-36 17)" onmousedown="handlePan(-1,0)">
                  <use xlink:href="#rim" fill="#404040">
                        <set attributeName="fill" to="#808080" begin="arrowLeft.mouseover" end="arrowLeft.mouseout"/>
                  </use>
                  <path fill="none" stroke="white" stroke-width="1.5" d="M0,-3.0v7 M-2.5,-0.5L0,-3.0L2.5,-0.5"/>
                </g>
        </g>
        <svg viewBox="0 0 15 15" width="100%" height="30px" preserveAspectRatio="xMaxYMin meet">
         <g id="arrow_out" transform="scale(0.3 0.3)">
          <a xlink:href="literal__flat__expression_8h__dep__incl_org.svg" target="_base">
           <rect id="button" ry="5" rx="5" y="6" x="6" height="38" width="38"
                fill="#f2f5e9" fill-opacity="0.5" stroke="#606060" stroke-width="1.0"/>
           <path id="arrow"
             d="M 11.500037,31.436501 C 11.940474,20.09759 22.043105,11.32322 32.158766,21.979434 L 37.068811,17.246167 C 37.068811,17.246167 37.088388,32 37.088388,32 L 22.160133,31.978069 C 22.160133,31.978069 26.997745,27.140456 26.997745,27.140456 C 18.528582,18.264221 13.291696,25.230495 11.500037,31.436501 z"
             style="fill:#404040;"/>
          </a>
         </g>
        </svg>
</svg>
