<?xml version="1.0" encoding="UTF-8" standalone="no"?>
<!DOCTYPE svg PUBLIC "-//W3C//DTD SVG 1.1//EN"
 "http://www.w3.org/Graphics/SVG/1.1/DTD/svg11.dtd">
<!-- Generated by graphviz version 2.43.0 (0)
 -->
<!-- Title: Kratos::ReorderConsecutiveFromGivenIdsModelPartIO Pages: 1 -->
<svg width="196pt" height="226pt"
 viewBox="0.00 0.00 196.00 226.00" xmlns="http://www.w3.org/2000/svg" xmlns:xlink="http://www.w3.org/1999/xlink">
<g id="graph0" class="graph" transform="scale(1 1) rotate(0) translate(4 222)">
<title>Kratos::ReorderConsecutiveFromGivenIdsModelPartIO</title>
<!-- Node1 -->
<g id="node1" class="node">
<title>Node1</title>
<g id="a_node1"><a xlink:title=" ">
<polygon fill="#bfbfbf" stroke="black" points="0,-0.5 0,-123.5 188,-123.5 188,-0.5 0,-0.5"/>
<text text-anchor="start" x="8" y="-111.5" font-family="Helvetica,sans-Serif" font-size="10.00">Kratos::ReorderConsecutive</text>
<text text-anchor="middle" x="94" y="-100.5" font-family="Helvetica,sans-Serif" font-size="10.00">FromGivenIdsModelPartIO</text>
<polyline fill="none" stroke="black" points="0,-93.5 188,-93.5 "/>
<text text-anchor="middle" x="94" y="-81.5" font-family="Helvetica,sans-Serif" font-size="10.00"> </text>
<polyline fill="none" stroke="black" points="0,-74.5 188,-74.5 "/>
<text text-anchor="start" x="8" y="-62.5" font-family="Helvetica,sans-Serif" font-size="10.00">+ KRATOS_CLASS_POINTER</text>
<text text-anchor="start" x="8" y="-51.5" font-family="Helvetica,sans-Serif" font-size="10.00">_DEFINITION()</text>
<text text-anchor="start" x="8" y="-40.5" font-family="Helvetica,sans-Serif" font-size="10.00">+ ReorderConsecutiveFromGiven</text>
<text text-anchor="start" x="8" y="-29.5" font-family="Helvetica,sans-Serif" font-size="10.00">IdsModelPartIO()</text>
<text text-anchor="start" x="8" y="-18.5" font-family="Helvetica,sans-Serif" font-size="10.00">+ ~ReorderConsecutiveFromGiven</text>
<text text-anchor="start" x="8" y="-7.5" font-family="Helvetica,sans-Serif" font-size="10.00">IdsModelPartIO()</text>
</a>
</g>
</g>
<!-- Node2 -->
<g id="node2" class="node">
<title>Node2</title>
<g id="a_node2"><a xlink:title=" ">
<polygon fill="none" stroke="#bfbfbf" points="7,-160.5 7,-217.5 181,-217.5 181,-160.5 7,-160.5"/>
<text text-anchor="middle" x="94" y="-205.5" font-family="Helvetica,sans-Serif" font-size="10.00">ReorderConsecutiveModelPartIO</text>
<polyline fill="none" stroke="#bfbfbf" points="7,-198.5 181,-198.5 "/>
<text text-anchor="middle" x="94" y="-186.5" font-family="Helvetica,sans-Serif" font-size="10.00"> </text>
<polyline fill="none" stroke="#bfbfbf" points="7,-179.5 181,-179.5 "/>
<text text-anchor="middle" x="94" y="-167.5" font-family="Helvetica,sans-Serif" font-size="10.00"> </text>
</a>
</g>
</g>
<!-- Node2&#45;&gt;Node1 -->
<g id="edge1" class="edge">
<title>Node2&#45;&gt;Node1</title>
<path fill="none" stroke="midnightblue" d="M94,-150.1C94,-141.74 94,-132.68 94,-123.67"/>
<polygon fill="none" stroke="midnightblue" points="90.5,-150.26 94,-160.26 97.5,-150.26 90.5,-150.26"/>
</g>
</g>
</svg>
