<?xml version="1.0" encoding="UTF-8" standalone="no"?>
<!DOCTYPE svg PUBLIC "-//W3C//DTD SVG 1.1//EN"
 "http://www.w3.org/Graphics/SVG/1.1/DTD/svg11.dtd">
<!-- Generated by graphviz version 7.1.0 (0)
 -->
<!-- Title: /software/kratos/doxygen/applications/RANSApplication/custom_processes/rans_nut_y_plus_wall_function_update_process.h Pages: 1 -->
<svg width="3355pt" height="1083pt"
 viewBox="0.00 0.00 3355.00 1083.00" xmlns="http://www.w3.org/2000/svg" xmlns:xlink="http://www.w3.org/1999/xlink">
<g id="graph0" class="graph" transform="scale(1 1) rotate(0) translate(4 1079)">
<title>/software/kratos/doxygen/applications/RANSApplication/custom_processes/rans_nut_y_plus_wall_function_update_process.h</title>
<!-- Node1 -->
<g id="node1" class="node">
<title>Node1</title>
<g id="a_node1"><a xlink:title=" ">
<polygon fill="#999999" stroke="#666666" points="300,-1075 136,-1075 136,-1012 300,-1012 300,-1075"/>
<text text-anchor="start" x="144" y="-1063" font-family="Helvetica,sans-Serif" font-size="10.00">/software/kratos/doxygen</text>
<text text-anchor="start" x="144" y="-1052" font-family="Helvetica,sans-Serif" font-size="10.00">/applications/RANSApplication</text>
<text text-anchor="start" x="144" y="-1041" font-family="Helvetica,sans-Serif" font-size="10.00">/custom_processes/rans_nut</text>
<text text-anchor="start" x="144" y="-1030" font-family="Helvetica,sans-Serif" font-size="10.00">_y_plus_wall_function_update</text>
<text text-anchor="middle" x="218" y="-1019" font-family="Helvetica,sans-Serif" font-size="10.00">_process.h</text>
</a>
</g>
</g>
<!-- Node2 -->
<g id="node2" class="node">
<title>Node2</title>
<g id="a_node2"><a xlink:title=" ">
<polygon fill="#e0e0e0" stroke="#999999" points="943,-24.5 899,-24.5 899,-5.5 943,-5.5 943,-24.5"/>
<text text-anchor="middle" x="921" y="-12.5" font-family="Helvetica,sans-Serif" font-size="10.00">string</text>
</a>
</g>
</g>
<!-- Node1&#45;&gt;Node2 -->
<g id="edge1" class="edge">
<title>Node1&#45;&gt;Node2</title>
<path fill="none" stroke="#63b8ff" d="M135.58,-1027.76C73.85,-1011.42 0,-978.16 0,-912.5 0,-912.5 0,-912.5 0,-140.5 0,-101.59 12.57,-85.92 46,-66 119.26,-22.35 735.2,-16.81 887.2,-16.1"/>
<polygon fill="#63b8ff" stroke="#63b8ff" points="887.01,-19.6 896.99,-16.06 886.98,-12.6 887.01,-19.6"/>
</g>
<!-- Node3 -->
<g id="node3" class="node">
<title>Node3</title>
<g id="a_node3"><a xlink:href="../../dc/d51/model_8h.html" target="_top" xlink:title=" ">
<polygon fill="white" stroke="#666666" points="415,-976 305,-976 305,-957 415,-957 415,-976"/>
<text text-anchor="middle" x="360" y="-964" font-family="Helvetica,sans-Serif" font-size="10.00">containers/model.h</text>
</a>
</g>
</g>
<!-- Node1&#45;&gt;Node3 -->
<g id="edge2" class="edge">
<title>Node1&#45;&gt;Node3</title>
<path fill="none" stroke="#63b8ff" d="M276.58,-1011.56C296.25,-1001.17 317.25,-990.08 333.25,-981.63"/>
<polygon fill="#63b8ff" stroke="#63b8ff" points="334.44,-984.96 341.65,-977.19 331.17,-978.77 334.44,-984.96"/>
</g>
<!-- Node121 -->
<g id="node49" class="node">
<title>Node121</title>
<g id="a_node49"><a xlink:href="../../d3/d09/rans__formulation__process_8h.html" target="_top" xlink:title=" ">
<polygon fill="white" stroke="#666666" points="294,-750.5 142,-750.5 142,-731.5 294,-731.5 294,-750.5"/>
<text text-anchor="middle" x="218" y="-738.5" font-family="Helvetica,sans-Serif" font-size="10.00">rans_formulation_process.h</text>
</a>
</g>
</g>
<!-- Node1&#45;&gt;Node121 -->
<g id="edge177" class="edge">
<title>Node1&#45;&gt;Node121</title>
<path fill="none" stroke="#63b8ff" d="M218,-1011.51C218,-985.17 218,-946.35 218,-912.5 218,-912.5 218,-912.5 218,-855.5 218,-822.89 218,-785 218,-762.29"/>
<polygon fill="#63b8ff" stroke="#63b8ff" points="221.5,-762.34 218,-752.34 214.5,-762.34 221.5,-762.34"/>
</g>
<!-- Node3&#45;&gt;Node2 -->
<g id="edge3" class="edge">
<title>Node3&#45;&gt;Node2</title>
<path fill="none" stroke="#63b8ff" d="M304.65,-958.52C212.58,-945.36 38,-913.07 38,-857.5 38,-857.5 38,-857.5 38,-140.5 38,-101.59 50.6,-85.96 84,-66 153.81,-24.28 739.53,-17.3 887.27,-16.2"/>
<polygon fill="#63b8ff" stroke="#63b8ff" points="887.18,-19.7 897.15,-16.13 887.13,-12.7 887.18,-19.7"/>
</g>
<!-- Node4 -->
<g id="node4" class="node">
<title>Node4</title>
<g id="a_node4"><a xlink:title=" ">
<polygon fill="#e0e0e0" stroke="#999999" points="2860,-24.5 2800,-24.5 2800,-5.5 2860,-5.5 2860,-24.5"/>
<text text-anchor="middle" x="2830" y="-12.5" font-family="Helvetica,sans-Serif" font-size="10.00">iostream</text>
</a>
</g>
</g>
<!-- Node3&#45;&gt;Node4 -->
<g id="edge4" class="edge">
<title>Node3&#45;&gt;Node4</title>
<path fill="none" stroke="#63b8ff" d="M415.37,-964.99C823.26,-961.08 3347,-933.82 3347,-857.5 3347,-857.5 3347,-857.5 3347,-140.5 3347,-95.37 3318.29,-86.34 3278,-66 3207.41,-30.37 2969.13,-19.84 2871.87,-16.98"/>
<polygon fill="#63b8ff" stroke="#63b8ff" points="2872.06,-13.48 2861.97,-16.7 2871.87,-20.48 2872.06,-13.48"/>
</g>
<!-- Node5 -->
<g id="node5" class="node">
<title>Node5</title>
<g id="a_node5"><a xlink:title=" ">
<polygon fill="#e0e0e0" stroke="#999999" points="850.5,-327 757.5,-327 757.5,-308 850.5,-308 850.5,-327"/>
<text text-anchor="middle" x="804" y="-315" font-family="Helvetica,sans-Serif" font-size="10.00">unordered_map</text>
</a>
</g>
</g>
<!-- Node3&#45;&gt;Node5 -->
<g id="edge5" class="edge">
<title>Node3&#45;&gt;Node5</title>
<path fill="none" stroke="#63b8ff" d="M365.44,-956.63C375.95,-938.63 398,-896.26 398,-857.5 398,-857.5 398,-857.5 398,-800.5 398,-742.88 383.12,-724.7 404,-671 443.22,-570.12 479.76,-556.64 560,-484 631.99,-418.82 731.29,-359.35 777.88,-332.93"/>
<polygon fill="#63b8ff" stroke="#63b8ff" points="779.45,-336.06 786.45,-328.11 776.02,-329.96 779.45,-336.06"/>
</g>
<!-- Node6 -->
<g id="node6" class="node">
<title>Node6</title>
<g id="a_node6"><a xlink:href="../../df/d67/define_8h.html" target="_top" xlink:title=" ">
<polygon fill="white" stroke="#666666" points="1054.5,-206 955.5,-206 955.5,-187 1054.5,-187 1054.5,-206"/>
<text text-anchor="middle" x="1005" y="-194" font-family="Helvetica,sans-Serif" font-size="10.00">includes/define.h</text>
</a>
</g>
</g>
<!-- Node3&#45;&gt;Node6 -->
<g id="edge6" class="edge">
<title>Node3&#45;&gt;Node6</title>
<path fill="none" stroke="#63b8ff" d="M354.56,-956.63C344.05,-938.63 322,-896.26 322,-857.5 322,-857.5 322,-857.5 322,-800.5 322,-546.98 222.15,-374.97 438,-242 480.32,-215.93 806.79,-203.34 944.28,-199.15"/>
<polygon fill="#63b8ff" stroke="#63b8ff" points="944.01,-202.66 953.9,-198.87 943.8,-195.67 944.01,-202.66"/>
</g>
<!-- Node18 -->
<g id="node18" class="node">
<title>Node18</title>
<g id="a_node18"><a xlink:href="../../dd/dfe/model__part_8h.html" target="_top" xlink:title=" ">
<polygon fill="white" stroke="#666666" points="1764.5,-921 1639.5,-921 1639.5,-902 1764.5,-902 1764.5,-921"/>
<text text-anchor="middle" x="1702" y="-909" font-family="Helvetica,sans-Serif" font-size="10.00">includes/model_part.h</text>
</a>
</g>
</g>
<!-- Node3&#45;&gt;Node18 -->
<g id="edge29" class="edge">
<title>Node3&#45;&gt;Node18</title>
<path fill="none" stroke="#63b8ff" d="M415.11,-963.32C626.57,-954.97 1386.23,-924.97 1627.73,-915.43"/>
<polygon fill="#63b8ff" stroke="#63b8ff" points="1627.81,-918.93 1637.66,-915.04 1627.53,-911.94 1627.81,-918.93"/>
</g>
<!-- Node7 -->
<g id="node7" class="node">
<title>Node7</title>
<g id="a_node7"><a xlink:title=" ">
<polygon fill="#e0e0e0" stroke="#999999" points="1718.5,-90.5 1653.5,-90.5 1653.5,-71.5 1718.5,-71.5 1718.5,-90.5"/>
<text text-anchor="middle" x="1686" y="-78.5" font-family="Helvetica,sans-Serif" font-size="10.00">stdexcept</text>
</a>
</g>
</g>
<!-- Node6&#45;&gt;Node7 -->
<g id="edge7" class="edge">
<title>Node6&#45;&gt;Node7</title>
<path fill="none" stroke="#63b8ff" d="M1054.91,-195.96C1146.98,-195.75 1349.2,-190.34 1514,-151 1567.14,-138.31 1625.46,-112.1 1658.71,-95.88"/>
<polygon fill="#63b8ff" stroke="#63b8ff" points="1660.21,-99.05 1667.62,-91.47 1657.11,-92.77 1660.21,-99.05"/>
</g>
<!-- Node8 -->
<g id="node8" class="node">
<title>Node8</title>
<g id="a_node8"><a xlink:title=" ">
<polygon fill="#e0e0e0" stroke="#999999" points="2741,-90.5 2685,-90.5 2685,-71.5 2741,-71.5 2741,-90.5"/>
<text text-anchor="middle" x="2713" y="-78.5" font-family="Helvetica,sans-Serif" font-size="10.00">sstream</text>
</a>
</g>
</g>
<!-- Node6&#45;&gt;Node8 -->
<g id="edge8" class="edge">
<title>Node6&#45;&gt;Node8</title>
<path fill="none" stroke="#63b8ff" d="M1054.97,-194.35C1203.7,-190.71 1656.45,-178.05 2031,-151 2275.87,-133.32 2568.98,-99.32 2673.55,-86.79"/>
<polygon fill="#63b8ff" stroke="#63b8ff" points="2673.78,-90.29 2683.29,-85.62 2672.94,-83.34 2673.78,-90.29"/>
</g>
<!-- Node9 -->
<g id="node9" class="node">
<title>Node9</title>
<g id="a_node9"><a xlink:href="../../dc/d25/kratos__export__api_8h.html" target="_top" xlink:title=" ">
<polygon fill="white" stroke="#666666" points="1887,-30 1759,-30 1759,0 1887,0 1887,-30"/>
<text text-anchor="start" x="1767" y="-18" font-family="Helvetica,sans-Serif" font-size="10.00">includes/kratos_export</text>
<text text-anchor="middle" x="1823" y="-7" font-family="Helvetica,sans-Serif" font-size="10.00">_api.h</text>
</a>
</g>
</g>
<!-- Node6&#45;&gt;Node9 -->
<g id="edge9" class="edge">
<title>Node6&#45;&gt;Node9</title>
<path fill="none" stroke="#63b8ff" d="M1019.55,-186.61C1060.03,-162.36 1178.09,-94.98 1286,-66 1446.16,-22.99 1641.74,-15.56 1747.07,-15.07"/>
<polygon fill="#63b8ff" stroke="#63b8ff" points="1747.02,-18.57 1757.02,-15.04 1747.01,-11.57 1747.02,-18.57"/>
</g>
<!-- Node10 -->
<g id="node10" class="node">
<title>Node10</title>
<g id="a_node10"><a xlink:href="../../d9/dc0/smart__pointers_8h.html" target="_top" xlink:title=" ">
<polygon fill="white" stroke="#666666" points="1504.5,-151 1361.5,-151 1361.5,-132 1504.5,-132 1504.5,-151"/>
<text text-anchor="middle" x="1433" y="-139" font-family="Helvetica,sans-Serif" font-size="10.00">includes/smart_pointers.h</text>
</a>
</g>
</g>
<!-- Node6&#45;&gt;Node10 -->
<g id="edge10" class="edge">
<title>Node6&#45;&gt;Node10</title>
<path fill="none" stroke="#63b8ff" d="M1054.93,-189.32C1127.39,-180.34 1262.57,-163.6 1350.11,-152.76"/>
<polygon fill="#63b8ff" stroke="#63b8ff" points="1350.35,-156.26 1359.84,-151.56 1349.49,-149.32 1350.35,-156.26"/>
</g>
<!-- Node14 -->
<g id="node14" class="node">
<title>Node14</title>
<g id="a_node14"><a xlink:href="../../dd/d2d/exception_8h.html" target="_top" xlink:title=" ">
<polygon fill="white" stroke="#666666" points="2021.5,-151 1904.5,-151 1904.5,-132 2021.5,-132 2021.5,-151"/>
<text text-anchor="middle" x="1963" y="-139" font-family="Helvetica,sans-Serif" font-size="10.00">includes/exception.h</text>
</a>
</g>
</g>
<!-- Node6&#45;&gt;Node14 -->
<g id="edge15" class="edge">
<title>Node6&#45;&gt;Node14</title>
<path fill="none" stroke="#63b8ff" d="M1054.82,-192.74C1213.59,-183.96 1708.01,-156.61 1892.57,-146.4"/>
<polygon fill="#63b8ff" stroke="#63b8ff" points="1892.71,-149.89 1902.5,-145.85 1892.33,-142.9 1892.71,-149.89"/>
</g>
<!-- Node10&#45;&gt;Node4 -->
<g id="edge11" class="edge">
<title>Node10&#45;&gt;Node4</title>
<path fill="none" stroke="#63b8ff" d="M1504.99,-139.72C1612.99,-137.44 1822.95,-128.76 1998,-96 2043.61,-87.46 2052.35,-74.3 2098,-66 2357.37,-18.85 2675.78,-15.26 2788.26,-15.61"/>
<polygon fill="#63b8ff" stroke="#63b8ff" points="2788.19,-19.11 2798.21,-15.66 2788.22,-12.11 2788.19,-19.11"/>
</g>
<!-- Node11 -->
<g id="node11" class="node">
<title>Node11</title>
<g id="a_node11"><a xlink:title=" ">
<polygon fill="#e0e0e0" stroke="#999999" points="1558.5,-90.5 1513.5,-90.5 1513.5,-71.5 1558.5,-71.5 1558.5,-90.5"/>
<text text-anchor="middle" x="1536" y="-78.5" font-family="Helvetica,sans-Serif" font-size="10.00">utility</text>
</a>
</g>
</g>
<!-- Node10&#45;&gt;Node11 -->
<g id="edge12" class="edge">
<title>Node10&#45;&gt;Node11</title>
<path fill="none" stroke="#63b8ff" d="M1448.64,-131.62C1464.98,-122.34 1490.87,-107.63 1510.23,-96.64"/>
<polygon fill="#63b8ff" stroke="#63b8ff" points="1511.93,-99.7 1518.89,-91.72 1508.47,-93.61 1511.93,-99.7"/>
</g>
<!-- Node12 -->
<g id="node12" class="node">
<title>Node12</title>
<g id="a_node12"><a xlink:title=" ">
<polygon fill="#e0e0e0" stroke="#999999" points="1353,-90.5 1295,-90.5 1295,-71.5 1353,-71.5 1353,-90.5"/>
<text text-anchor="middle" x="1324" y="-78.5" font-family="Helvetica,sans-Serif" font-size="10.00">memory</text>
</a>
</g>
</g>
<!-- Node10&#45;&gt;Node12 -->
<g id="edge13" class="edge">
<title>Node10&#45;&gt;Node12</title>
<path fill="none" stroke="#63b8ff" d="M1416.45,-131.62C1399,-122.25 1371.25,-107.36 1350.71,-96.33"/>
<polygon fill="#63b8ff" stroke="#63b8ff" points="1352.51,-93.33 1342.04,-91.68 1349.2,-99.5 1352.51,-93.33"/>
</g>
<!-- Node13 -->
<g id="node13" class="node">
<title>Node13</title>
<g id="a_node13"><a xlink:title=" ">
<polygon fill="#e0e0e0" stroke="#999999" points="1495,-96 1371,-96 1371,-66 1495,-66 1495,-96"/>
<text text-anchor="start" x="1379" y="-84" font-family="Helvetica,sans-Serif" font-size="10.00">intrusive_ptr/intrusive</text>
<text text-anchor="middle" x="1433" y="-73" font-family="Helvetica,sans-Serif" font-size="10.00">_ptr.hpp</text>
</a>
</g>
</g>
<!-- Node10&#45;&gt;Node13 -->
<g id="edge14" class="edge">
<title>Node10&#45;&gt;Node13</title>
<path fill="none" stroke="#63b8ff" d="M1433,-131.87C1433,-125.4 1433,-116.2 1433,-107.45"/>
<polygon fill="#63b8ff" stroke="#63b8ff" points="1436.5,-107.63 1433,-97.63 1429.5,-107.63 1436.5,-107.63"/>
</g>
<!-- Node14&#45;&gt;Node2 -->
<g id="edge17" class="edge">
<title>Node14&#45;&gt;Node2</title>
<path fill="none" stroke="#63b8ff" d="M1930.29,-131.54C1901.62,-123.35 1859.01,-110.35 1823,-96 1794.56,-84.67 1790.62,-73.72 1761,-66 1604.57,-25.21 1090.79,-17.58 954.46,-16.26"/>
<polygon fill="#63b8ff" stroke="#63b8ff" points="954.71,-12.76 944.68,-16.17 954.65,-19.76 954.71,-12.76"/>
</g>
<!-- Node14&#45;&gt;Node4 -->
<g id="edge18" class="edge">
<title>Node14&#45;&gt;Node4</title>
<path fill="none" stroke="#63b8ff" d="M1988.37,-131.53C2034.85,-115.51 2137.05,-82.12 2226,-66 2434.93,-28.13 2689.78,-18.89 2788.33,-16.68"/>
<polygon fill="#63b8ff" stroke="#63b8ff" points="2788.13,-20.19 2798.05,-16.48 2787.98,-13.19 2788.13,-20.19"/>
</g>
<!-- Node14&#45;&gt;Node7 -->
<g id="edge16" class="edge">
<title>Node14&#45;&gt;Node7</title>
<path fill="none" stroke="#63b8ff" d="M1920.63,-131.55C1869.06,-120.66 1782.41,-102.36 1730.08,-91.31"/>
<polygon fill="#63b8ff" stroke="#63b8ff" points="1730.81,-87.89 1720.3,-89.24 1729.37,-94.74 1730.81,-87.89"/>
</g>
<!-- Node14&#45;&gt;Node8 -->
<g id="edge19" class="edge">
<title>Node14&#45;&gt;Node8</title>
<path fill="none" stroke="#63b8ff" d="M2021.85,-135.91C2169.05,-124.43 2550.18,-94.7 2673.72,-85.06"/>
<polygon fill="#63b8ff" stroke="#63b8ff" points="2673.65,-88.58 2683.35,-84.31 2673.1,-81.6 2673.65,-88.58"/>
</g>
<!-- Node14&#45;&gt;Node9 -->
<g id="edge21" class="edge">
<title>Node14&#45;&gt;Node9</title>
<path fill="none" stroke="#63b8ff" d="M1906.95,-131.53C1884.2,-125.18 1859.45,-114.37 1843,-96 1829.72,-81.17 1824.96,-58.84 1823.39,-41.54"/>
<polygon fill="#63b8ff" stroke="#63b8ff" points="1826.9,-41.55 1822.83,-31.77 1819.91,-41.96 1826.9,-41.55"/>
</g>
<!-- Node15 -->
<g id="node15" class="node">
<title>Node15</title>
<g id="a_node15"><a xlink:title=" ">
<polygon fill="#e0e0e0" stroke="#999999" points="2173.5,-24.5 2126.5,-24.5 2126.5,-5.5 2173.5,-5.5 2173.5,-24.5"/>
<text text-anchor="middle" x="2150" y="-12.5" font-family="Helvetica,sans-Serif" font-size="10.00">vector</text>
</a>
</g>
</g>
<!-- Node14&#45;&gt;Node15 -->
<g id="edge20" class="edge">
<title>Node14&#45;&gt;Node15</title>
<path fill="none" stroke="#63b8ff" d="M1976.45,-131.55C2008.12,-110.46 2087.7,-57.48 2127.13,-31.23"/>
<polygon fill="#63b8ff" stroke="#63b8ff" points="2129.03,-34.17 2135.41,-25.71 2125.15,-28.34 2129.03,-34.17"/>
</g>
<!-- Node16 -->
<g id="node16" class="node">
<title>Node16</title>
<g id="a_node16"><a xlink:href="../../da/da6/code__location_8h.html" target="_top" xlink:title=" ">
<polygon fill="white" stroke="#666666" points="1988.5,-90.5 1851.5,-90.5 1851.5,-71.5 1988.5,-71.5 1988.5,-90.5"/>
<text text-anchor="middle" x="1920" y="-78.5" font-family="Helvetica,sans-Serif" font-size="10.00">includes/code_location.h</text>
</a>
</g>
</g>
<!-- Node14&#45;&gt;Node16 -->
<g id="edge22" class="edge">
<title>Node14&#45;&gt;Node16</title>
<path fill="none" stroke="#63b8ff" d="M1956.66,-131.87C1950.49,-123.49 1940.96,-110.51 1933.15,-99.89"/>
<polygon fill="#63b8ff" stroke="#63b8ff" points="1936.01,-97.87 1927.27,-91.89 1930.37,-102.02 1936.01,-97.87"/>
</g>
<!-- Node17 -->
<g id="node17" class="node">
<title>Node17</title>
<g id="a_node17"><a xlink:href="../../d9/d06/stl__vector__io_8h.html" target="_top" xlink:title=" ">
<polygon fill="white" stroke="#666666" points="2363,-90.5 2235,-90.5 2235,-71.5 2363,-71.5 2363,-90.5"/>
<text text-anchor="middle" x="2299" y="-78.5" font-family="Helvetica,sans-Serif" font-size="10.00">utilities/stl_vector_io.h</text>
</a>
</g>
</g>
<!-- Node14&#45;&gt;Node17 -->
<g id="edge26" class="edge">
<title>Node14&#45;&gt;Node17</title>
<path fill="none" stroke="#63b8ff" d="M2015.4,-131.57C2067.54,-122.66 2149.82,-108.53 2221,-96 2226.61,-95.01 2232.46,-93.98 2238.3,-92.94"/>
<polygon fill="#63b8ff" stroke="#63b8ff" points="2238.77,-96.41 2248,-91.2 2237.54,-89.52 2238.77,-96.41"/>
</g>
<!-- Node16&#45;&gt;Node2 -->
<g id="edge23" class="edge">
<title>Node16&#45;&gt;Node2</title>
<path fill="none" stroke="#63b8ff" d="M1851.28,-71.34C1834.22,-69.39 1815.96,-67.46 1799,-66 1470.65,-37.68 1071.78,-21.57 954.77,-17.21"/>
<polygon fill="#63b8ff" stroke="#63b8ff" points="955.06,-13.72 944.93,-16.85 954.8,-20.72 955.06,-13.72"/>
</g>
<!-- Node16&#45;&gt;Node4 -->
<g id="edge24" class="edge">
<title>Node16&#45;&gt;Node4</title>
<path fill="none" stroke="#63b8ff" d="M1967.72,-71.06C1979.24,-69.15 1991.53,-67.31 2003,-66 2303.12,-31.72 2667.37,-20.03 2788.57,-16.94"/>
<polygon fill="#63b8ff" stroke="#63b8ff" points="2788.44,-20.45 2798.35,-16.7 2788.26,-13.45 2788.44,-20.45"/>
</g>
<!-- Node16&#45;&gt;Node9 -->
<g id="edge25" class="edge">
<title>Node16&#45;&gt;Node9</title>
<path fill="none" stroke="#63b8ff" d="M1906.51,-71.1C1893.07,-62.23 1871.95,-48.3 1854.31,-36.66"/>
<polygon fill="#63b8ff" stroke="#63b8ff" points="1856.48,-33.9 1846.21,-31.31 1852.63,-39.74 1856.48,-33.9"/>
</g>
<!-- Node17&#45;&gt;Node4 -->
<g id="edge27" class="edge">
<title>Node17&#45;&gt;Node4</title>
<path fill="none" stroke="#63b8ff" d="M2345.94,-71.04C2356.16,-69.24 2366.92,-67.46 2377,-66 2528.14,-44.12 2708.87,-26.81 2788.67,-19.62"/>
<polygon fill="#63b8ff" stroke="#63b8ff" points="2788.54,-23.14 2798.18,-18.77 2787.91,-16.17 2788.54,-23.14"/>
</g>
<!-- Node17&#45;&gt;Node15 -->
<g id="edge28" class="edge">
<title>Node17&#45;&gt;Node15</title>
<path fill="none" stroke="#63b8ff" d="M2278.28,-71.1C2253.04,-60.26 2210.16,-41.84 2180.99,-29.31"/>
<polygon fill="#63b8ff" stroke="#63b8ff" points="2182.5,-26.15 2171.93,-25.42 2179.74,-32.58 2182.5,-26.15"/>
</g>
<!-- Node18&#45;&gt;Node2 -->
<g id="edge30" class="edge">
<title>Node18&#45;&gt;Node2</title>
<path fill="none" stroke="#63b8ff" d="M1639.06,-909.9C1428.54,-907.59 750.07,-897.83 534,-866 316.89,-834.02 76,-900.95 76,-681.5 76,-681.5 76,-681.5 76,-140.5 76,-101.59 88.62,-86.01 122,-66 188.38,-26.2 744.21,-17.81 887.44,-16.3"/>
<polygon fill="#63b8ff" stroke="#63b8ff" points="887.41,-19.8 897.38,-16.2 887.34,-12.8 887.41,-19.8"/>
</g>
<!-- Node18&#45;&gt;Node4 -->
<g id="edge31" class="edge">
<title>Node18&#45;&gt;Node4</title>
<path fill="none" stroke="#63b8ff" d="M1764.81,-909.65C1988.42,-906.42 2745.29,-893.65 2986,-866 3131.35,-849.3 3309,-948.8 3309,-802.5 3309,-802.5 3309,-802.5 3309,-140.5 3309,-94.76 3278.87,-86.54 3238,-66 3174.46,-34.07 2962.57,-21.55 2871.82,-17.57"/>
<polygon fill="#63b8ff" stroke="#63b8ff" points="2872.01,-14.08 2861.87,-17.15 2871.71,-21.07 2872.01,-14.08"/>
</g>
<!-- Node18&#45;&gt;Node6 -->
<g id="edge34" class="edge">
<title>Node18&#45;&gt;Node6</title>
<path fill="none" stroke="#63b8ff" d="M1639.06,-910.64C1417.1,-910.79 678.89,-908.08 582,-866 443.32,-805.77 346,-772.19 346,-621 346,-621 346,-621 346,-432 346,-406.91 446.5,-254.93 468,-242 507.98,-217.96 811.71,-204.37 943.88,-199.53"/>
<polygon fill="#63b8ff" stroke="#63b8ff" points="943.98,-203.03 953.85,-199.18 943.73,-196.04 943.98,-203.03"/>
</g>
<!-- Node18&#45;&gt;Node8 -->
<g id="edge32" class="edge">
<title>Node18&#45;&gt;Node8</title>
<path fill="none" stroke="#63b8ff" d="M1764.87,-909.41C2052.97,-904.02 3233,-877.36 3233,-802.5 3233,-802.5 3233,-802.5 3233,-432 3233,-239.63 3097.8,-207.82 2921,-132 2865,-107.98 2795.34,-94.21 2752.53,-87.42"/>
<polygon fill="#63b8ff" stroke="#63b8ff" points="2753.12,-83.97 2742.7,-85.92 2752.06,-90.89 2753.12,-83.97"/>
</g>
<!-- Node19 -->
<g id="node19" class="node">
<title>Node19</title>
<g id="a_node19"><a xlink:title=" ">
<polygon fill="#e0e0e0" stroke="#999999" points="2710.5,-382 2657.5,-382 2657.5,-363 2710.5,-363 2710.5,-382"/>
<text text-anchor="middle" x="2684" y="-370" font-family="Helvetica,sans-Serif" font-size="10.00">cstddef</text>
</a>
</g>
</g>
<!-- Node18&#45;&gt;Node19 -->
<g id="edge33" class="edge">
<title>Node18&#45;&gt;Node19</title>
<path fill="none" stroke="#63b8ff" d="M1764.84,-908.92C2034.61,-901.71 3081,-869.44 3081,-802.5 3081,-802.5 3081,-802.5 3081,-558.5 3081,-401.22 2821.83,-377.32 2722.29,-373.95"/>
<polygon fill="#63b8ff" stroke="#63b8ff" points="2722.58,-370.45 2712.49,-373.67 2722.39,-377.45 2722.58,-370.45"/>
</g>
<!-- Node20 -->
<g id="node20" class="node">
<title>Node20</title>
<g id="a_node20"><a xlink:href="../../dd/d5f/serializer_8h.html" target="_top" xlink:title=" ">
<polygon fill="white" stroke="#666666" points="1806.5,-382 1693.5,-382 1693.5,-363 1806.5,-363 1806.5,-382"/>
<text text-anchor="middle" x="1750" y="-370" font-family="Helvetica,sans-Serif" font-size="10.00">includes/serializer.h</text>
</a>
</g>
</g>
<!-- Node18&#45;&gt;Node20 -->
<g id="edge35" class="edge">
<title>Node18&#45;&gt;Node20</title>
<path fill="none" stroke="#63b8ff" d="M1639.13,-907.44C1466.33,-898.2 997,-867.16 997,-802.5 997,-802.5 997,-802.5 997,-740 997,-491.72 1526,-808.78 1526,-560.5 1526,-560.5 1526,-560.5 1526,-498 1526,-425.76 1616.1,-395.08 1682.01,-382.29"/>
<polygon fill="#63b8ff" stroke="#63b8ff" points="1682.49,-385.76 1691.7,-380.52 1681.23,-378.88 1682.49,-385.76"/>
</g>
<!-- Node53 -->
<g id="node30" class="node">
<title>Node53</title>
<g id="a_node30"><a xlink:href="../../d1/d8c/logger_8h.html" target="_top" xlink:title=" ">
<polygon fill="#fff0f0" stroke="red" points="1889,-206 1769,-206 1769,-187 1889,-187 1889,-206"/>
<text text-anchor="middle" x="1829" y="-194" font-family="Helvetica,sans-Serif" font-size="10.00">input_output/logger.h</text>
</a>
</g>
</g>
<!-- Node18&#45;&gt;Node53 -->
<g id="edge172" class="edge">
<title>Node18&#45;&gt;Node53</title>
<path fill="none" stroke="#63b8ff" d="M1639.15,-909.26C1502.79,-906.05 1183.73,-895.53 1080,-866 1021.59,-849.37 959,-863.23 959,-802.5 959,-802.5 959,-802.5 959,-740 959,-703.63 976.94,-696.37 1003,-671 1159.4,-518.7 1230.61,-519.26 1424,-418 1476.69,-390.41 1491.66,-387.18 1546,-363 1582.37,-346.82 1592.94,-345.84 1628,-327 1696.19,-290.37 1771.68,-238.39 1807.66,-212.86"/>
<polygon fill="#63b8ff" stroke="#63b8ff" points="1809.38,-215.93 1815.49,-207.28 1805.32,-210.24 1809.38,-215.93"/>
</g>
<!-- Node57 -->
<g id="node31" class="node">
<title>Node57</title>
<g id="a_node31"><a xlink:href="../../de/db8/process__info_8h.html" target="_top" xlink:title=" ">
<polygon fill="white" stroke="#666666" points="1837.5,-690 1706.5,-690 1706.5,-671 1837.5,-671 1837.5,-690"/>
<text text-anchor="middle" x="1772" y="-678" font-family="Helvetica,sans-Serif" font-size="10.00">includes/process_info.h</text>
</a>
</g>
</g>
<!-- Node18&#45;&gt;Node57 -->
<g id="edge69" class="edge">
<title>Node18&#45;&gt;Node57</title>
<path fill="none" stroke="#63b8ff" d="M1700.21,-901.64C1696.54,-881.6 1689.41,-831.48 1701,-792 1711.76,-755.36 1738.83,-719.37 1756.26,-698.86"/>
<polygon fill="#63b8ff" stroke="#63b8ff" points="1758.77,-701.31 1762.72,-691.47 1753.5,-696.7 1758.77,-701.31"/>
</g>
<!-- Node58 -->
<g id="node32" class="node">
<title>Node58</title>
<g id="a_node32"><a xlink:href="../../d1/d82/data__value__container_8h.html" target="_top" xlink:title=" ">
<polygon fill="white" stroke="#666666" points="1834.5,-635 1709.5,-635 1709.5,-605 1834.5,-605 1834.5,-635"/>
<text text-anchor="start" x="1717.5" y="-623" font-family="Helvetica,sans-Serif" font-size="10.00">containers/data_value</text>
<text text-anchor="middle" x="1772" y="-612" font-family="Helvetica,sans-Serif" font-size="10.00">_container.h</text>
</a>
</g>
</g>
<!-- Node18&#45;&gt;Node58 -->
<g id="edge101" class="edge">
<title>Node18&#45;&gt;Node58</title>
<path fill="none" stroke="#63b8ff" d="M1698.98,-901.92C1688.05,-869.24 1653.46,-750.44 1698,-671 1704.87,-658.74 1716.15,-648.9 1727.86,-641.29"/>
<polygon fill="#63b8ff" stroke="#63b8ff" points="1729.6,-644.33 1736.4,-636.2 1726.02,-638.31 1729.6,-644.33"/>
</g>
<!-- Node59 -->
<g id="node33" class="node">
<title>Node59</title>
<g id="a_node33"><a xlink:href="../../da/d89/variable_8h.html" target="_top" xlink:title=" ">
<polygon fill="white" stroke="#666666" points="1858.5,-508.5 1739.5,-508.5 1739.5,-489.5 1858.5,-489.5 1858.5,-508.5"/>
<text text-anchor="middle" x="1799" y="-496.5" font-family="Helvetica,sans-Serif" font-size="10.00">containers/variable.h</text>
</a>
</g>
</g>
<!-- Node18&#45;&gt;Node59 -->
<g id="edge175" class="edge">
<title>Node18&#45;&gt;Node59</title>
<path fill="none" stroke="#63b8ff" d="M1724.35,-901.51C1746.59,-892.56 1781.68,-878.39 1812,-866 1832.48,-857.63 1837.33,-854.87 1858,-847 1903.32,-829.74 1932.93,-850.54 1961,-811 2035.27,-706.37 1877.44,-563.22 1819.34,-515.9"/>
<polygon fill="#63b8ff" stroke="#63b8ff" points="1821.8,-513.38 1811.81,-509.86 1817.42,-518.84 1821.8,-513.38"/>
</g>
<!-- Node60 -->
<g id="node34" class="node">
<title>Node60</title>
<g id="a_node34"><a xlink:href="../../d3/dc3/variable__data_8h.html" target="_top" xlink:title=" ">
<polygon fill="#fff0f0" stroke="red" points="1903,-442.5 1811,-442.5 1811,-423.5 1903,-423.5 1903,-442.5"/>
<text text-anchor="middle" x="1857" y="-430.5" font-family="Helvetica,sans-Serif" font-size="10.00">variable_data.h</text>
</a>
</g>
</g>
<!-- Node18&#45;&gt;Node60 -->
<g id="edge176" class="edge">
<title>Node18&#45;&gt;Node60</title>
<path fill="none" stroke="#63b8ff" d="M1764.9,-909.37C1845.32,-906.65 1978.55,-897.37 2015,-866 2037.33,-846.78 2034,-831.96 2034,-802.5 2034,-802.5 2034,-802.5 2034,-558.5 2034,-522.97 1937.4,-471.99 1886.93,-447.78"/>
<polygon fill="#63b8ff" stroke="#63b8ff" points="1888.52,-444.66 1877.99,-443.54 1885.53,-450.99 1888.52,-444.66"/>
</g>
<!-- Node70 -->
<g id="node36" class="node">
<title>Node70</title>
<g id="a_node36"><a xlink:href="../../d8/d3b/mesh_8h.html" target="_top" xlink:title=" ">
<polygon fill="#fff0f0" stroke="red" points="2196,-811 2100,-811 2100,-792 2196,-792 2196,-811"/>
<text text-anchor="middle" x="2148" y="-799" font-family="Helvetica,sans-Serif" font-size="10.00">includes/mesh.h</text>
</a>
</g>
</g>
<!-- Node18&#45;&gt;Node70 -->
<g id="edge102" class="edge">
<title>Node18&#45;&gt;Node70</title>
<path fill="none" stroke="#63b8ff" d="M1764.8,-908.29C1858.81,-904.14 2030.95,-893.02 2086,-866 2106.9,-855.74 2124.73,-835.46 2135.83,-820.57"/>
<polygon fill="#63b8ff" stroke="#63b8ff" points="2138.59,-822.73 2141.52,-812.55 2132.88,-818.68 2138.59,-822.73"/>
</g>
<!-- Node74 -->
<g id="node38" class="node">
<title>Node74</title>
<g id="a_node38"><a xlink:href="../../d2/d58/pointer__vector__map_8h.html" target="_top" xlink:title=" ">
<polygon fill="#fff0f0" stroke="red" points="2710.5,-448 2605.5,-448 2605.5,-418 2710.5,-418 2710.5,-448"/>
<text text-anchor="start" x="2613.5" y="-436" font-family="Helvetica,sans-Serif" font-size="10.00">containers/pointer</text>
<text text-anchor="middle" x="2658" y="-425" font-family="Helvetica,sans-Serif" font-size="10.00">_vector_map.h</text>
</a>
</g>
</g>
<!-- Node18&#45;&gt;Node74 -->
<g id="edge170" class="edge">
<title>Node18&#45;&gt;Node74</title>
<path fill="none" stroke="#63b8ff" d="M1764.76,-906.41C1984.94,-891.39 2712.43,-836.01 2776,-756 2851.59,-660.86 2731.67,-512.77 2679.92,-456.62"/>
<polygon fill="#63b8ff" stroke="#63b8ff" points="2682.66,-454.43 2673.27,-449.52 2677.55,-459.22 2682.66,-454.43"/>
</g>
<!-- Node87 -->
<g id="node40" class="node">
<title>Node87</title>
<g id="a_node40"><a xlink:href="../../da/da4/master__slave__constraint_8h.html" target="_top" xlink:title=" ">
<polygon fill="#fff0f0" stroke="red" points="1616,-756 1490,-756 1490,-726 1616,-726 1616,-756"/>
<text text-anchor="start" x="1498" y="-744" font-family="Helvetica,sans-Serif" font-size="10.00">includes/master_slave</text>
<text text-anchor="middle" x="1553" y="-733" font-family="Helvetica,sans-Serif" font-size="10.00">_constraint.h</text>
</a>
</g>
</g>
<!-- Node18&#45;&gt;Node87 -->
<g id="edge174" class="edge">
<title>Node18&#45;&gt;Node87</title>
<path fill="none" stroke="#63b8ff" d="M1682.59,-901.62C1667.05,-893.83 1645.39,-881.36 1630,-866 1600.36,-836.42 1576.9,-793.37 1564,-766.56"/>
<polygon fill="#63b8ff" stroke="#63b8ff" points="1567.33,-765.42 1559.92,-757.85 1560.99,-768.39 1567.33,-765.42"/>
</g>
<!-- Node99 -->
<g id="node41" class="node">
<title>Node99</title>
<g id="a_node41"><a xlink:href="../../d0/dac/kratos__flags_8h.html" target="_top" xlink:title=" ">
<polygon fill="white" stroke="#666666" points="618,-629.5 490,-629.5 490,-610.5 618,-610.5 618,-629.5"/>
<text text-anchor="middle" x="554" y="-617.5" font-family="Helvetica,sans-Serif" font-size="10.00">includes/kratos_flags.h</text>
</a>
</g>
</g>
<!-- Node18&#45;&gt;Node99 -->
<g id="edge173" class="edge">
<title>Node18&#45;&gt;Node99</title>
<path fill="none" stroke="#63b8ff" d="M1639.3,-909.78C1427.5,-907.07 746.6,-896.09 653,-866 603.94,-850.23 556,-854.03 556,-802.5 556,-802.5 556,-802.5 556,-740 556,-705.31 555.14,-664.93 554.55,-641.25"/>
<polygon fill="#63b8ff" stroke="#63b8ff" points="558.05,-641.37 554.29,-631.47 551.05,-641.56 558.05,-641.37"/>
</g>
<!-- Node100 -->
<g id="node42" class="node">
<title>Node100</title>
<g id="a_node42"><a xlink:href="../../d3/dad/geometry__container_8h.html" target="_top" xlink:title=" ">
<polygon fill="white" stroke="#666666" points="701,-514 583,-514 583,-484 701,-484 701,-514"/>
<text text-anchor="start" x="591" y="-502" font-family="Helvetica,sans-Serif" font-size="10.00">containers/geometry</text>
<text text-anchor="middle" x="642" y="-491" font-family="Helvetica,sans-Serif" font-size="10.00">_container.h</text>
</a>
</g>
</g>
<!-- Node18&#45;&gt;Node100 -->
<g id="edge140" class="edge">
<title>Node18&#45;&gt;Node100</title>
<path fill="none" stroke="#63b8ff" d="M1639.2,-910.57C1414.96,-910.02 667,-900.79 667,-802.5 667,-802.5 667,-802.5 667,-619 667,-586.13 657.75,-549.23 650.51,-525.35"/>
<polygon fill="#63b8ff" stroke="#63b8ff" points="653.87,-524.37 647.52,-515.89 647.19,-526.48 653.87,-524.37"/>
</g>
<!-- Node101 -->
<g id="node43" class="node">
<title>Node101</title>
<g id="a_node43"><a xlink:href="../../da/d92/pointer__hash__map__set_8h.html" target="_top" xlink:title=" ">
<polygon fill="#fff0f0" stroke="red" points="971.5,-448 866.5,-448 866.5,-418 971.5,-418 971.5,-448"/>
<text text-anchor="start" x="874.5" y="-436" font-family="Helvetica,sans-Serif" font-size="10.00">containers/pointer</text>
<text text-anchor="middle" x="919" y="-425" font-family="Helvetica,sans-Serif" font-size="10.00">_hash_map_set.h</text>
</a>
</g>
</g>
<!-- Node18&#45;&gt;Node101 -->
<g id="edge171" class="edge">
<title>Node18&#45;&gt;Node101</title>
<path fill="none" stroke="#63b8ff" d="M1639.22,-910.63C1467.76,-910.46 1000.56,-906.27 945,-866 920.44,-848.2 920,-832.83 920,-802.5 920,-802.5 920,-802.5 920,-558.5 920,-524.29 919.62,-484.8 919.33,-459.63"/>
<polygon fill="#63b8ff" stroke="#63b8ff" points="922.83,-459.66 919.21,-449.7 915.83,-459.74 922.83,-459.66"/>
</g>
<!-- Node102 -->
<g id="node44" class="node">
<title>Node102</title>
<g id="a_node44"><a xlink:href="../../d4/dfe/element_8h.html" target="_top" xlink:title=" ">
<polygon fill="#fff0f0" stroke="red" points="1820,-811 1710,-811 1710,-792 1820,-792 1820,-811"/>
<text text-anchor="middle" x="1765" y="-799" font-family="Helvetica,sans-Serif" font-size="10.00">includes/element.h</text>
</a>
</g>
</g>
<!-- Node18&#45;&gt;Node102 -->
<g id="edge147" class="edge">
<title>Node18&#45;&gt;Node102</title>
<path fill="none" stroke="#63b8ff" d="M1707.16,-901.66C1717.35,-884.18 1740.3,-844.84 1754.03,-821.3"/>
<polygon fill="#63b8ff" stroke="#63b8ff" points="1757,-823.17 1759.01,-812.77 1750.95,-819.64 1757,-823.17"/>
</g>
<!-- Node119 -->
<g id="node46" class="node">
<title>Node119</title>
<g id="a_node46"><a xlink:href="../../d7/d6c/condition_8h.html" target="_top" xlink:title=" ">
<polygon fill="#fff0f0" stroke="red" points="1952,-811 1838,-811 1838,-792 1952,-792 1952,-811"/>
<text text-anchor="middle" x="1895" y="-799" font-family="Helvetica,sans-Serif" font-size="10.00">includes/condition.h</text>
</a>
</g>
</g>
<!-- Node18&#45;&gt;Node119 -->
<g id="edge152" class="edge">
<title>Node18&#45;&gt;Node119</title>
<path fill="none" stroke="#63b8ff" d="M1717.79,-901.66C1751.02,-883.07 1828.4,-839.77 1869.03,-817.03"/>
<polygon fill="#63b8ff" stroke="#63b8ff" points="1870.65,-820.14 1877.67,-812.2 1867.23,-814.03 1870.65,-820.14"/>
</g>
<!-- Node120 -->
<g id="node47" class="node">
<title>Node120</title>
<g id="a_node47"><a xlink:href="../../d8/d75/communicator_8h.html" target="_top" xlink:title=" ">
<polygon fill="white" stroke="#666666" points="2005.5,-866 1866.5,-866 1866.5,-847 2005.5,-847 2005.5,-866"/>
<text text-anchor="middle" x="1936" y="-854" font-family="Helvetica,sans-Serif" font-size="10.00">includes/communicator.h</text>
</a>
</g>
</g>
<!-- Node18&#45;&gt;Node120 -->
<g id="edge155" class="edge">
<title>Node18&#45;&gt;Node120</title>
<path fill="none" stroke="#63b8ff" d="M1741.69,-901.51C1781.31,-892.54 1842.34,-878.71 1885.41,-868.96"/>
<polygon fill="#63b8ff" stroke="#63b8ff" points="1886.05,-872.4 1895.03,-866.78 1884.5,-865.58 1886.05,-872.4"/>
</g>
<!-- Node104 -->
<g id="node48" class="node">
<title>Node104</title>
<g id="a_node48"><a xlink:href="../../dd/d98/table_8h.html" target="_top" xlink:title=" ">
<polygon fill="white" stroke="#666666" points="2215,-569 2121,-569 2121,-550 2215,-550 2215,-569"/>
<text text-anchor="middle" x="2168" y="-557" font-family="Helvetica,sans-Serif" font-size="10.00">includes/table.h</text>
</a>
</g>
</g>
<!-- Node18&#45;&gt;Node104 -->
<g id="edge164" class="edge">
<title>Node18&#45;&gt;Node104</title>
<path fill="none" stroke="#63b8ff" d="M1764.74,-909.91C1852.27,-907.85 2005.13,-899.42 2048,-866 2072.17,-847.16 2140.46,-644.23 2161.65,-579.93"/>
<polygon fill="#63b8ff" stroke="#63b8ff" points="2164.87,-581.34 2164.66,-570.75 2158.22,-579.16 2164.87,-581.34"/>
</g>
<!-- Node20&#45;&gt;Node2 -->
<g id="edge36" class="edge">
<title>Node20&#45;&gt;Node2</title>
<path fill="none" stroke="#63b8ff" d="M1693.05,-369.9C1632.85,-366.6 1536.01,-356.67 1458,-327 1393.13,-302.33 1388.97,-273.26 1327,-242 1286.31,-221.48 1272.4,-225.03 1231,-206 1184.91,-184.82 1170.9,-182.32 1131,-151 1090.67,-119.34 1095.46,-94.75 1053,-66 1022.32,-45.23 981.85,-31.55 953.84,-23.84"/>
<polygon fill="#63b8ff" stroke="#63b8ff" points="955.06,-20.54 944.5,-21.37 953.27,-27.31 955.06,-20.54"/>
</g>
<!-- Node20&#45;&gt;Node4 -->
<g id="edge38" class="edge">
<title>Node20&#45;&gt;Node4</title>
<path fill="none" stroke="#63b8ff" d="M1806.74,-371.27C1881.88,-369.51 2017.74,-361.31 2128,-327 2305.12,-271.89 2327.56,-207.48 2497,-132 2539.39,-113.12 2553.33,-116.41 2595,-96 2617.59,-84.94 2619.93,-76.03 2643,-66 2691.11,-45.09 2750.07,-31.09 2788.77,-23.35"/>
<polygon fill="#63b8ff" stroke="#63b8ff" points="2788.97,-26.88 2798.12,-21.53 2787.63,-20 2788.97,-26.88"/>
</g>
<!-- Node20&#45;&gt;Node5 -->
<g id="edge40" class="edge">
<title>Node20&#45;&gt;Node5</title>
<path fill="none" stroke="#63b8ff" d="M1693.31,-368.32C1525.44,-358.92 1032.12,-331.28 862.26,-321.76"/>
<polygon fill="#63b8ff" stroke="#63b8ff" points="862.52,-318.27 852.34,-321.21 862.13,-325.26 862.52,-318.27"/>
</g>
<!-- Node20&#45;&gt;Node6 -->
<g id="edge45" class="edge">
<title>Node20&#45;&gt;Node6</title>
<path fill="none" stroke="#63b8ff" d="M1693.12,-371.26C1622.03,-369.41 1497.49,-361.01 1397,-327 1325.88,-302.93 1321.45,-267.96 1251,-242 1217.89,-229.8 1127.57,-215.14 1066.09,-206.07"/>
<polygon fill="#63b8ff" stroke="#63b8ff" points="1066.86,-202.65 1056.46,-204.66 1065.85,-209.57 1066.86,-202.65"/>
</g>
<!-- Node20&#45;&gt;Node8 -->
<g id="edge43" class="edge">
<title>Node20&#45;&gt;Node8</title>
<path fill="none" stroke="#63b8ff" d="M1806.85,-368.75C1914.6,-363.11 2144.61,-348.88 2221,-327 2407.3,-273.64 2437.33,-217.98 2611,-132 2635.72,-119.76 2663.87,-105.97 2684.33,-95.98"/>
<polygon fill="#63b8ff" stroke="#63b8ff" points="2685.74,-99.19 2693.19,-91.65 2682.67,-92.89 2685.74,-99.19"/>
</g>
<!-- Node21 -->
<g id="node21" class="node">
<title>Node21</title>
<g id="a_node21"><a xlink:title=" ">
<polygon fill="#e0e0e0" stroke="#999999" points="1875,-327 1825,-327 1825,-308 1875,-308 1875,-327"/>
<text text-anchor="middle" x="1850" y="-315" font-family="Helvetica,sans-Serif" font-size="10.00">cstring</text>
</a>
</g>
</g>
<!-- Node20&#45;&gt;Node21 -->
<g id="edge37" class="edge">
<title>Node20&#45;&gt;Node21</title>
<path fill="none" stroke="#63b8ff" d="M1766.96,-362.51C1782.36,-354.35 1805.31,-342.19 1823.19,-332.71"/>
<polygon fill="#63b8ff" stroke="#63b8ff" points="1824.75,-335.84 1831.95,-328.07 1821.47,-329.66 1824.75,-335.84"/>
</g>
<!-- Node22 -->
<g id="node22" class="node">
<title>Node22</title>
<g id="a_node22"><a xlink:title=" ">
<polygon fill="#e0e0e0" stroke="#999999" points="1769,-327 1731,-327 1731,-308 1769,-308 1769,-327"/>
<text text-anchor="middle" x="1750" y="-315" font-family="Helvetica,sans-Serif" font-size="10.00">map</text>
</a>
</g>
</g>
<!-- Node20&#45;&gt;Node22 -->
<g id="edge39" class="edge">
<title>Node20&#45;&gt;Node22</title>
<path fill="none" stroke="#63b8ff" d="M1750,-362.75C1750,-356.27 1750,-347.16 1750,-338.9"/>
<polygon fill="#63b8ff" stroke="#63b8ff" points="1753.5,-338.96 1750,-328.96 1746.5,-338.96 1753.5,-338.96"/>
</g>
<!-- Node23 -->
<g id="node23" class="node">
<title>Node23</title>
<g id="a_node23"><a xlink:title=" ">
<polygon fill="#e0e0e0" stroke="#999999" points="1925,-327 1893,-327 1893,-308 1925,-308 1925,-327"/>
<text text-anchor="middle" x="1909" y="-315" font-family="Helvetica,sans-Serif" font-size="10.00">set</text>
</a>
</g>
</g>
<!-- Node20&#45;&gt;Node23 -->
<g id="edge41" class="edge">
<title>Node20&#45;&gt;Node23</title>
<path fill="none" stroke="#63b8ff" d="M1777.22,-362.52C1802.14,-354.29 1840.31,-341.65 1881.72,-327.75"/>
<polygon fill="#63b8ff" stroke="#63b8ff" points="1882.8,-331.08 1891.16,-324.58 1880.57,-324.44 1882.8,-331.08"/>
</g>
<!-- Node24 -->
<g id="node24" class="node">
<title>Node24</title>
<g id="a_node24"><a xlink:title=" ">
<polygon fill="#e0e0e0" stroke="#999999" points="2029,-327 1943,-327 1943,-308 2029,-308 2029,-327"/>
<text text-anchor="middle" x="1986" y="-315" font-family="Helvetica,sans-Serif" font-size="10.00">unordered_set</text>
</a>
</g>
</g>
<!-- Node20&#45;&gt;Node24 -->
<g id="edge42" class="edge">
<title>Node20&#45;&gt;Node24</title>
<path fill="none" stroke="#63b8ff" d="M1790.03,-362.51C1829.99,-353.54 1891.54,-339.71 1934.98,-329.96"/>
<polygon fill="#63b8ff" stroke="#63b8ff" points="1935.7,-333.38 1944.69,-327.78 1934.16,-326.55 1935.7,-333.38"/>
</g>
<!-- Node25 -->
<g id="node25" class="node">
<title>Node25</title>
<g id="a_node25"><a xlink:title=" ">
<polygon fill="#e0e0e0" stroke="#999999" points="2102.5,-327 2047.5,-327 2047.5,-308 2102.5,-308 2102.5,-327"/>
<text text-anchor="middle" x="2075" y="-315" font-family="Helvetica,sans-Serif" font-size="10.00">fstream</text>
</a>
</g>
</g>
<!-- Node20&#45;&gt;Node25 -->
<g id="edge44" class="edge">
<title>Node20&#45;&gt;Node25</title>
<path fill="none" stroke="#63b8ff" d="M1806.77,-363.97C1862.56,-356.29 1950.37,-343.46 2035.93,-327.27"/>
<polygon fill="#63b8ff" stroke="#63b8ff" points="2036.51,-330.72 2045.68,-325.41 2035.2,-323.85 2036.51,-330.72"/>
</g>
<!-- Node26 -->
<g id="node26" class="node">
<title>Node26</title>
<g id="a_node26"><a xlink:href="../../d9/da0/flags_8h.html" target="_top" xlink:title=" ">
<polygon fill="white" stroke="#666666" points="739.5,-327 636.5,-327 636.5,-308 739.5,-308 739.5,-327"/>
<text text-anchor="middle" x="688" y="-315" font-family="Helvetica,sans-Serif" font-size="10.00">containers/flags.h</text>
</a>
</g>
</g>
<!-- Node20&#45;&gt;Node26 -->
<g id="edge46" class="edge">
<title>Node20&#45;&gt;Node26</title>
<path fill="none" stroke="#63b8ff" d="M1693.15,-370.84C1541.79,-368.69 1116.22,-360.04 751.2,-327.1"/>
<polygon fill="#63b8ff" stroke="#63b8ff" points="751.66,-323.63 741.38,-326.2 751.02,-330.6 751.66,-323.63"/>
</g>
<!-- Node27 -->
<g id="node27" class="node">
<title>Node27</title>
<g id="a_node27"><a xlink:href="../../d9/d3e/ublas__interface_8h.html" target="_top" xlink:title=" ">
<polygon fill="#fff0f0" stroke="red" points="1561,-266.5 1417,-266.5 1417,-247.5 1561,-247.5 1561,-266.5"/>
<text text-anchor="middle" x="1489" y="-254.5" font-family="Helvetica,sans-Serif" font-size="10.00">includes/ublas_interface.h</text>
</a>
</g>
</g>
<!-- Node20&#45;&gt;Node27 -->
<g id="edge50" class="edge">
<title>Node20&#45;&gt;Node27</title>
<path fill="none" stroke="#63b8ff" d="M1693.05,-366.45C1614.91,-358.94 1482.43,-343.89 1468,-327 1455.71,-312.61 1465.25,-291.17 1475.12,-276.01"/>
<polygon fill="#63b8ff" stroke="#63b8ff" points="1477.94,-278.1 1480.88,-267.92 1472.23,-274.04 1477.94,-278.1"/>
</g>
<!-- Node43 -->
<g id="node28" class="node">
<title>Node43</title>
<g id="a_node28"><a xlink:href="../../d9/d36/array__1d_8h.html" target="_top" xlink:title=" ">
<polygon fill="#fff0f0" stroke="red" points="1599,-327 1477,-327 1477,-308 1599,-308 1599,-327"/>
<text text-anchor="middle" x="1538" y="-315" font-family="Helvetica,sans-Serif" font-size="10.00">containers/array_1d.h</text>
</a>
</g>
</g>
<!-- Node20&#45;&gt;Node43 -->
<g id="edge54" class="edge">
<title>Node20&#45;&gt;Node43</title>
<path fill="none" stroke="#63b8ff" d="M1714.04,-362.51C1678.45,-353.61 1623.79,-339.95 1584.83,-330.21"/>
<polygon fill="#63b8ff" stroke="#63b8ff" points="1585.8,-326.84 1575.25,-327.81 1584.11,-333.63 1585.8,-326.84"/>
</g>
<!-- Node49 -->
<g id="node29" class="node">
<title>Node49</title>
<g id="a_node29"><a xlink:href="../../d5/d10/weak__pointer__vector_8h.html" target="_top" xlink:title=" ">
<polygon fill="#fff0f0" stroke="red" points="2151.5,-272 2014.5,-272 2014.5,-242 2151.5,-242 2151.5,-272"/>
<text text-anchor="start" x="2022.5" y="-260" font-family="Helvetica,sans-Serif" font-size="10.00">containers/weak_pointer</text>
<text text-anchor="middle" x="2083" y="-249" font-family="Helvetica,sans-Serif" font-size="10.00">_vector.h</text>
</a>
</g>
</g>
<!-- Node20&#45;&gt;Node49 -->
<g id="edge59" class="edge">
<title>Node20&#45;&gt;Node49</title>
<path fill="none" stroke="#63b8ff" d="M1806.95,-368.58C1903.82,-363.02 2092.15,-349.44 2112,-327 2123.51,-313.99 2115.09,-295.74 2104.41,-281.28"/>
<polygon fill="#63b8ff" stroke="#63b8ff" points="2107.21,-279.18 2098.21,-273.6 2101.77,-283.58 2107.21,-279.18"/>
</g>
<!-- Node20&#45;&gt;Node53 -->
<g id="edge65" class="edge">
<title>Node20&#45;&gt;Node53</title>
<path fill="none" stroke="#63b8ff" d="M1756.31,-362.59C1762.35,-353.8 1771.49,-339.87 1778,-327 1797.03,-289.39 1813.81,-242.9 1822.57,-217.1"/>
<polygon fill="#63b8ff" stroke="#63b8ff" points="1825.87,-218.25 1825.72,-207.66 1819.23,-216.04 1825.87,-218.25"/>
</g>
<!-- Node26&#45;&gt;Node2 -->
<g id="edge47" class="edge">
<title>Node26&#45;&gt;Node2</title>
<path fill="none" stroke="#63b8ff" d="M676.54,-307.72C654.42,-289.68 608,-246.04 608,-197.5 608,-197.5 608,-197.5 608,-140.5 608,-80.72 807.63,-37.02 888.03,-21.84"/>
<polygon fill="#63b8ff" stroke="#63b8ff" points="888.31,-25.35 897.5,-20.09 887.03,-18.47 888.31,-25.35"/>
</g>
<!-- Node26&#45;&gt;Node4 -->
<g id="edge48" class="edge">
<title>Node26&#45;&gt;Node4</title>
<path fill="none" stroke="#63b8ff" d="M739.91,-309.21C742.98,-308.79 746.03,-308.39 749,-308 1033.59,-270.75 1746.83,-191.3 2031,-151 2107,-140.22 2302.85,-129.31 2372,-96 2389.86,-87.4 2386.96,-74.22 2405,-66 2472.77,-35.13 2695,-21.95 2788.24,-17.68"/>
<polygon fill="#63b8ff" stroke="#63b8ff" points="2788.39,-21.18 2798.22,-17.24 2788.08,-14.18 2788.39,-21.18"/>
</g>
<!-- Node26&#45;&gt;Node6 -->
<g id="edge49" class="edge">
<title>Node26&#45;&gt;Node6</title>
<path fill="none" stroke="#63b8ff" d="M707.67,-307.53C740.1,-292.9 806.97,-263.39 865,-242 897.6,-229.99 935.15,-218.16 963.15,-209.72"/>
<polygon fill="#63b8ff" stroke="#63b8ff" points="964.11,-213.08 972.69,-206.86 962.11,-206.38 964.11,-213.08"/>
</g>
<!-- Node27&#45;&gt;Node2 -->
<g id="edge51" class="edge">
<title>Node27&#45;&gt;Node2</title>
<path fill="none" stroke="#63b8ff" d="M1450.14,-247.04C1372.75,-228.67 1202.61,-185.58 1154,-151 1115.68,-123.74 1129.56,-92.92 1091,-66 1049.35,-36.92 990.7,-24.55 954.31,-19.43"/>
<polygon fill="#63b8ff" stroke="#63b8ff" points="955.19,-16.02 944.83,-18.21 954.3,-22.96 955.19,-16.02"/>
</g>
<!-- Node27&#45;&gt;Node4 -->
<g id="edge52" class="edge">
<title>Node27&#45;&gt;Node4</title>
<path fill="none" stroke="#63b8ff" d="M1561.47,-247.68C1643.28,-238.16 1780.31,-221.84 1898,-206 2064.51,-183.58 2108.02,-187.58 2272,-151 2300.54,-144.63 2306.93,-140.21 2335,-132 2391.31,-115.53 2407.52,-117.78 2462,-96 2488.58,-85.37 2491.84,-75.06 2519,-66 2612.13,-34.94 2727.59,-22.85 2788.26,-18.4"/>
<polygon fill="#63b8ff" stroke="#63b8ff" points="2788.4,-21.9 2798.13,-17.72 2787.91,-14.92 2788.4,-21.9"/>
</g>
<!-- Node27&#45;&gt;Node6 -->
<g id="edge53" class="edge">
<title>Node27&#45;&gt;Node6</title>
<path fill="none" stroke="#63b8ff" d="M1416.54,-247.24C1321.17,-235.71 1155.2,-215.65 1065.95,-204.87"/>
<polygon fill="#63b8ff" stroke="#63b8ff" points="1066.52,-201.41 1056.17,-203.69 1065.68,-208.36 1066.52,-201.41"/>
</g>
<!-- Node43&#45;&gt;Node2 -->
<g id="edge55" class="edge">
<title>Node43&#45;&gt;Node2</title>
<path fill="none" stroke="#63b8ff" d="M1551.26,-307.72C1571.12,-293.48 1604.51,-264.66 1587,-242 1488.99,-115.16 1383.45,-218.37 1238,-151 1178.36,-123.38 1176.71,-93.46 1117,-66 1062.96,-41.15 994.63,-27.29 954.57,-20.76"/>
<polygon fill="#63b8ff" stroke="#63b8ff" points="955.25,-17.33 944.83,-19.24 954.17,-24.24 955.25,-17.33"/>
</g>
<!-- Node43&#45;&gt;Node4 -->
<g id="edge56" class="edge">
<title>Node43&#45;&gt;Node4</title>
<path fill="none" stroke="#63b8ff" d="M1599.39,-313.4C1745.88,-305.81 2107.65,-285.92 2161,-272 2178.7,-267.38 2442.12,-139.05 2459,-132 2501.82,-114.12 2515.33,-116.41 2557,-96 2579.59,-84.94 2581.72,-75.53 2605,-66 2666.15,-40.96 2742.02,-27.42 2788.19,-20.96"/>
<polygon fill="#63b8ff" stroke="#63b8ff" points="2788.6,-24.44 2798.04,-19.64 2787.66,-17.5 2788.6,-24.44"/>
</g>
<!-- Node43&#45;&gt;Node6 -->
<g id="edge57" class="edge">
<title>Node43&#45;&gt;Node6</title>
<path fill="none" stroke="#63b8ff" d="M1547.38,-307.64C1562.29,-292.5 1587.96,-261.43 1570,-242 1536.34,-205.59 1205.36,-198.93 1066.17,-197.74"/>
<polygon fill="#63b8ff" stroke="#63b8ff" points="1066.44,-194.24 1056.41,-197.67 1066.38,-201.24 1066.44,-194.24"/>
</g>
<!-- Node43&#45;&gt;Node27 -->
<g id="edge58" class="edge">
<title>Node43&#45;&gt;Node27</title>
<path fill="none" stroke="#63b8ff" d="M1530.77,-307.87C1523.6,-299.31 1512.43,-285.97 1503.44,-275.24"/>
<polygon fill="#63b8ff" stroke="#63b8ff" points="1506.34,-273.25 1497.23,-267.83 1500.97,-277.74 1506.34,-273.25"/>
</g>
<!-- Node49&#45;&gt;Node2 -->
<g id="edge60" class="edge">
<title>Node49&#45;&gt;Node2</title>
<path fill="none" stroke="#63b8ff" d="M2052.73,-241.58C2016.75,-225.18 1954.47,-199.12 1898,-187 1660.66,-136.05 1585.76,-219.93 1353,-151 1278.79,-129.02 1273.88,-92.05 1201,-66 1115.41,-35.4 1008.13,-22.96 954.62,-18.38"/>
<polygon fill="#63b8ff" stroke="#63b8ff" points="955.19,-14.91 944.94,-17.59 954.62,-21.89 955.19,-14.91"/>
</g>
<!-- Node49&#45;&gt;Node4 -->
<g id="edge61" class="edge">
<title>Node49&#45;&gt;Node4</title>
<path fill="none" stroke="#63b8ff" d="M2111.54,-241.62C2141.06,-227.01 2188.69,-204.13 2231,-187 2276.34,-168.64 2289.14,-168.01 2335,-151 2356.51,-143.02 2361.21,-139.17 2383,-132 2442.39,-112.46 2461.62,-120.85 2519,-96 2542.09,-86 2543.57,-75.17 2567,-66 2641.84,-36.69 2735.57,-24.17 2788.53,-19.12"/>
<polygon fill="#63b8ff" stroke="#63b8ff" points="2788.67,-22.62 2798.31,-18.24 2788.04,-15.65 2788.67,-22.62"/>
</g>
<!-- Node49&#45;&gt;Node6 -->
<g id="edge64" class="edge">
<title>Node49&#45;&gt;Node6</title>
<path fill="none" stroke="#63b8ff" d="M2014.34,-252.27C1817.42,-241.59 1252.93,-210.95 1065.97,-200.81"/>
<polygon fill="#63b8ff" stroke="#63b8ff" points="1066.41,-197.33 1056.24,-200.28 1066.03,-204.32 1066.41,-197.33"/>
</g>
<!-- Node49&#45;&gt;Node8 -->
<g id="edge62" class="edge">
<title>Node49&#45;&gt;Node8</title>
<path fill="none" stroke="#63b8ff" d="M2140.48,-241.5C2246.08,-214.61 2477.84,-154.42 2671,-96 2672.61,-95.51 2674.25,-95.01 2675.91,-94.49"/>
<polygon fill="#63b8ff" stroke="#63b8ff" points="2676.97,-97.82 2685.42,-91.43 2674.83,-91.16 2676.97,-97.82"/>
</g>
<!-- Node49&#45;&gt;Node15 -->
<g id="edge63" class="edge">
<title>Node49&#45;&gt;Node15</title>
<path fill="none" stroke="#63b8ff" d="M2083.6,-241.64C2085.37,-209.19 2092.13,-128.23 2117,-66 2121.54,-54.63 2128.88,-43.15 2135.49,-34.06"/>
<polygon fill="#63b8ff" stroke="#63b8ff" points="2138.24,-36.22 2141.53,-26.15 2132.68,-31.97 2138.24,-36.22"/>
</g>
<!-- Node53&#45;&gt;Node2 -->
<g id="edge66" class="edge">
<title>Node53&#45;&gt;Node2</title>
<path fill="none" stroke="#63b8ff" d="M1768.86,-195.03C1644.57,-193.35 1363.6,-185.72 1275,-151 1218.13,-128.71 1222.43,-91.67 1167,-66 1096.09,-33.16 1003.83,-21.8 954.92,-17.93"/>
<polygon fill="#63b8ff" stroke="#63b8ff" points="955.19,-14.44 944.96,-17.21 954.68,-21.43 955.19,-14.44"/>
</g>
<!-- Node53&#45;&gt;Node4 -->
<g id="edge67" class="edge">
<title>Node53&#45;&gt;Node4</title>
<path fill="none" stroke="#63b8ff" d="M1889.29,-191.99C1966.7,-186.72 2104.91,-174.74 2221,-151 2304.62,-133.9 2323.8,-122.29 2405,-96 2443.51,-83.53 2451.69,-75.66 2491,-66 2596.51,-40.06 2724.01,-25.69 2788.43,-19.58"/>
<polygon fill="#63b8ff" stroke="#63b8ff" points="2788.56,-23.08 2798.19,-18.67 2787.91,-16.11 2788.56,-23.08"/>
</g>
<!-- Node53&#45;&gt;Node14 -->
<g id="edge68" class="edge">
<title>Node53&#45;&gt;Node14</title>
<path fill="none" stroke="#63b8ff" d="M1851.73,-186.51C1873.23,-178.01 1905.73,-165.15 1930.07,-155.53"/>
<polygon fill="#63b8ff" stroke="#63b8ff" points="1931.19,-158.85 1939.2,-151.91 1928.61,-152.34 1931.19,-158.85"/>
</g>
<!-- Node57&#45;&gt;Node2 -->
<g id="edge70" class="edge">
<title>Node57&#45;&gt;Node2</title>
<path fill="none" stroke="#63b8ff" d="M1706.02,-678.36C1578.69,-675.51 1290.4,-665.92 1050,-635 773.7,-599.46 704.57,-584.25 435,-514 324.16,-485.11 190,-548.55 190,-434 190,-434 190,-434 190,-140.5 190,-100.87 204.83,-86.07 239,-66 295.27,-32.95 758.03,-19.79 887.47,-16.73"/>
<polygon fill="#63b8ff" stroke="#63b8ff" points="887.17,-20.24 897.08,-16.51 887.01,-13.24 887.17,-20.24"/>
</g>
<!-- Node57&#45;&gt;Node4 -->
<g id="edge71" class="edge">
<title>Node57&#45;&gt;Node4</title>
<path fill="none" stroke="#63b8ff" d="M1837.79,-679.71C1955.39,-679.03 2209.02,-672.82 2419,-635 2734.31,-578.21 2904.34,-640.21 3094,-382 3177.54,-268.27 3230.89,-159.29 3125,-66 3087.99,-33.39 2943.52,-21.65 2871.41,-17.76"/>
<polygon fill="#63b8ff" stroke="#63b8ff" points="2871.75,-14.27 2861.59,-17.25 2871.39,-21.26 2871.75,-14.27"/>
</g>
<!-- Node57&#45;&gt;Node6 -->
<g id="edge74" class="edge">
<title>Node57&#45;&gt;Node6</title>
<path fill="none" stroke="#63b8ff" d="M1706.23,-677.42C1572.19,-672.72 1271.67,-659.71 1172,-635 924.86,-573.72 840.75,-559.29 658,-382 631.46,-356.26 608.06,-342.99 620,-308 631.98,-272.92 638.88,-260.51 671,-242 716.2,-215.96 860.55,-204.6 943.95,-200.11"/>
<polygon fill="#63b8ff" stroke="#63b8ff" points="943.98,-203.61 953.78,-199.6 943.61,-196.62 943.98,-203.61"/>
</g>
<!-- Node57&#45;&gt;Node8 -->
<g id="edge72" class="edge">
<title>Node57&#45;&gt;Node8</title>
<path fill="none" stroke="#63b8ff" d="M1837.7,-680.45C2016.83,-680.1 2523.28,-659.21 2867,-448 2910.18,-421.47 2959.97,-410.75 2943,-363 2900.23,-242.69 2781.16,-136.85 2733.3,-97.9"/>
<polygon fill="#63b8ff" stroke="#63b8ff" points="2735.64,-95.29 2725.65,-91.77 2731.26,-100.75 2735.64,-95.29"/>
</g>
<!-- Node57&#45;&gt;Node19 -->
<g id="edge73" class="edge">
<title>Node57&#45;&gt;Node19</title>
<path fill="none" stroke="#63b8ff" d="M1806.8,-670.5C1865.93,-655.44 1989.91,-624.83 2096,-605 2205.91,-584.45 2239.65,-606.47 2345,-569 2468.02,-525.25 2482.81,-481.32 2597,-418 2616.41,-407.23 2638.71,-395.85 2655.87,-387.29"/>
<polygon fill="#63b8ff" stroke="#63b8ff" points="2657.06,-390.61 2664.46,-383.03 2653.95,-384.34 2657.06,-390.61"/>
</g>
<!-- Node57&#45;&gt;Node26 -->
<g id="edge100" class="edge">
<title>Node57&#45;&gt;Node26</title>
<path fill="none" stroke="#63b8ff" d="M1706.18,-679.95C1612.33,-679.13 1435.33,-672.15 1290,-635 1087.3,-583.18 1029.23,-568.21 858,-448 815.54,-418.19 819.69,-393.87 778,-363 760.83,-350.29 739.47,-339.55 721.87,-331.8"/>
<polygon fill="#63b8ff" stroke="#63b8ff" points="723.43,-328.66 712.86,-327.97 720.7,-335.11 723.43,-328.66"/>
</g>
<!-- Node57&#45;&gt;Node58 -->
<g id="edge75" class="edge">
<title>Node57&#45;&gt;Node58</title>
<path fill="none" stroke="#63b8ff" d="M1772,-670.87C1772,-664.4 1772,-655.2 1772,-646.45"/>
<polygon fill="#63b8ff" stroke="#63b8ff" points="1775.5,-646.63 1772,-636.63 1768.5,-646.63 1775.5,-646.63"/>
</g>
<!-- Node58&#45;&gt;Node2 -->
<g id="edge76" class="edge">
<title>Node58&#45;&gt;Node2</title>
<path fill="none" stroke="#63b8ff" d="M1709.23,-615.61C1470.96,-602.49 630.12,-553.77 517,-514 337.3,-450.82 228,-387.99 228,-197.5 228,-197.5 228,-197.5 228,-140.5 228,-99.34 247.01,-85.97 283,-66 336.06,-36.56 763.23,-20.95 887.31,-17.01"/>
<polygon fill="#63b8ff" stroke="#63b8ff" points="887.28,-20.51 897.16,-16.7 887.06,-13.52 887.28,-20.51"/>
</g>
<!-- Node58&#45;&gt;Node4 -->
<g id="edge77" class="edge">
<title>Node58&#45;&gt;Node4</title>
<path fill="none" stroke="#63b8ff" d="M1834.68,-616.45C1940.44,-611.49 2160.84,-598.35 2345,-569 2578.9,-531.72 2636.36,-513.43 2864,-448 2962,-419.83 3081,-475.47 3081,-373.5 3081,-373.5 3081,-373.5 3081,-316.5 3081,-204.88 3183.68,-138.73 3099,-66 3065.43,-37.17 2938.24,-23.82 2871.48,-18.69"/>
<polygon fill="#63b8ff" stroke="#63b8ff" points="2871.89,-15.21 2861.66,-17.96 2871.37,-22.19 2871.89,-15.21"/>
</g>
<!-- Node58&#45;&gt;Node6 -->
<g id="edge80" class="edge">
<title>Node58&#45;&gt;Node6</title>
<path fill="none" stroke="#63b8ff" d="M1709.15,-616.18C1647.38,-611.64 1551.37,-599.82 1474,-569 1294.89,-497.66 1269.51,-440.96 1114,-327 1082.37,-303.82 1070.12,-302.11 1045,-272 1030.92,-255.13 1019.63,-232.52 1012.68,-216.65"/>
<polygon fill="#63b8ff" stroke="#63b8ff" points="1016.09,-215.73 1009,-207.86 1009.64,-218.43 1016.09,-215.73"/>
</g>
<!-- Node58&#45;&gt;Node14 -->
<g id="edge99" class="edge">
<title>Node58&#45;&gt;Node14</title>
<path fill="none" stroke="#63b8ff" d="M1717.14,-604.51C1627.72,-577.81 1465.01,-514.58 1512,-418 1540.67,-359.08 1579.61,-371.18 1628,-327 1691.15,-269.34 1685.59,-229.14 1760,-187 1800.61,-164 1852,-152.88 1892.91,-147.51"/>
<polygon fill="#63b8ff" stroke="#63b8ff" points="1893.15,-151.01 1902.66,-146.33 1892.31,-144.06 1893.15,-151.01"/>
</g>
<!-- Node58&#45;&gt;Node15 -->
<g id="edge79" class="edge">
<title>Node58&#45;&gt;Node15</title>
<path fill="none" stroke="#63b8ff" d="M1834.83,-614.03C1955.69,-604.21 2209.94,-582.11 2224,-569 2331.72,-468.53 2321.24,-382.81 2278,-242 2254.99,-167.05 2214.63,-165.83 2179,-96 2168.94,-76.29 2160.72,-52.25 2155.64,-35.7"/>
<polygon fill="#63b8ff" stroke="#63b8ff" points="2159,-34.74 2152.81,-26.15 2152.29,-36.73 2159,-34.74"/>
</g>
<!-- Node58&#45;&gt;Node19 -->
<g id="edge78" class="edge">
<title>Node58&#45;&gt;Node19</title>
<path fill="none" stroke="#63b8ff" d="M1834.96,-615.07C1968.38,-606.48 2270.96,-585.45 2315,-569 2368.84,-548.88 2473.2,-442.9 2525,-418 2546.28,-407.77 2606.01,-392.28 2645.9,-382.53"/>
<polygon fill="#63b8ff" stroke="#63b8ff" points="2646.71,-385.94 2655.6,-380.18 2645.06,-379.14 2646.71,-385.94"/>
</g>
<!-- Node58&#45;&gt;Node59 -->
<g id="edge81" class="edge">
<title>Node58&#45;&gt;Node59</title>
<path fill="none" stroke="#63b8ff" d="M1775.2,-604.88C1780.01,-583.7 1789.1,-543.63 1794.55,-519.62"/>
<polygon fill="#63b8ff" stroke="#63b8ff" points="1797.89,-520.71 1796.69,-510.19 1791.06,-519.16 1797.89,-520.71"/>
</g>
<!-- Node62 -->
<g id="node35" class="node">
<title>Node62</title>
<g id="a_node35"><a xlink:href="../../dc/d8e/kratos__components_8h.html" target="_top" xlink:title=" ">
<polygon fill="#fff0f0" stroke="red" points="1383.5,-569 1218.5,-569 1218.5,-550 1383.5,-550 1383.5,-569"/>
<text text-anchor="middle" x="1301" y="-557" font-family="Helvetica,sans-Serif" font-size="10.00">includes/kratos_components.h</text>
</a>
</g>
</g>
<!-- Node58&#45;&gt;Node62 -->
<g id="edge92" class="edge">
<title>Node58&#45;&gt;Node62</title>
<path fill="none" stroke="#63b8ff" d="M1709.45,-611.23C1625.86,-600.85 1477.46,-582.42 1384.42,-570.86"/>
<polygon fill="#63b8ff" stroke="#63b8ff" points="1384.93,-567.4 1374.57,-569.64 1384.07,-574.34 1384.93,-567.4"/>
</g>
<!-- Node59&#45;&gt;Node2 -->
<g id="edge82" class="edge">
<title>Node59&#45;&gt;Node2</title>
<path fill="none" stroke="#63b8ff" d="M1739.26,-497.16C1559.83,-494.26 1027.55,-482.89 858,-448 738.31,-423.37 342,-380.19 342,-258 342,-258 342,-258 342,-140.5 342,-28.18 763.7,-16.9 887.33,-16"/>
<polygon fill="#63b8ff" stroke="#63b8ff" points="887.16,-19.5 897.14,-15.95 887.13,-12.5 887.16,-19.5"/>
</g>
<!-- Node59&#45;&gt;Node4 -->
<g id="edge83" class="edge">
<title>Node59&#45;&gt;Node4</title>
<path fill="none" stroke="#63b8ff" d="M1858.81,-497.25C2060.03,-494.42 2704.77,-482.71 2791,-448 2886.96,-409.37 3121.8,-146.63 3057,-66 3034.19,-37.62 2930.73,-24.4 2871.66,-19.08"/>
<polygon fill="#63b8ff" stroke="#63b8ff" points="2872.25,-15.61 2861.99,-18.24 2871.65,-22.59 2872.25,-15.61"/>
</g>
<!-- Node59&#45;&gt;Node6 -->
<g id="edge84" class="edge">
<title>Node59&#45;&gt;Node6</title>
<path fill="none" stroke="#63b8ff" d="M1739.39,-493.7C1618.6,-482.67 1339.69,-445.37 1142,-327 1115.04,-310.86 1051.43,-246.06 1021.33,-214.69"/>
<polygon fill="#63b8ff" stroke="#63b8ff" points="1023.95,-212.36 1014.51,-207.55 1018.89,-217.2 1023.95,-212.36"/>
</g>
<!-- Node59&#45;&gt;Node17 -->
<g id="edge91" class="edge">
<title>Node59&#45;&gt;Node17</title>
<path fill="none" stroke="#63b8ff" d="M1858.75,-496.61C2009.3,-492.65 2395.66,-479.51 2444,-448 2484.63,-421.52 2533.93,-287.06 2516,-242 2484.74,-163.43 2389.54,-116.08 2336.21,-95"/>
<polygon fill="#63b8ff" stroke="#63b8ff" points="2337.5,-91.75 2326.91,-91.45 2335,-98.29 2337.5,-91.75"/>
</g>
<!-- Node59&#45;&gt;Node60 -->
<g id="edge85" class="edge">
<title>Node59&#45;&gt;Node60</title>
<path fill="none" stroke="#63b8ff" d="M1807.06,-489.1C1815.89,-479.36 1830.27,-463.5 1841.33,-451.29"/>
<polygon fill="#63b8ff" stroke="#63b8ff" points="1843.87,-453.71 1847.99,-443.94 1838.68,-449 1843.87,-453.71"/>
</g>
<!-- Node60&#45;&gt;Node2 -->
<g id="edge86" class="edge">
<title>Node60&#45;&gt;Node2</title>
<path fill="none" stroke="#63b8ff" d="M1825.49,-423.05C1817.85,-421.14 1809.67,-419.31 1802,-418 1622.54,-387.45 1573.45,-412.56 1394,-382 1296.34,-365.37 1272.9,-355.41 1178,-327 1009.08,-276.42 803,-373.82 803,-197.5 803,-197.5 803,-197.5 803,-140.5 803,-88.59 857.7,-49.66 892.61,-30.09"/>
<polygon fill="#63b8ff" stroke="#63b8ff" points="893.83,-33.41 900.97,-25.58 890.51,-27.25 893.83,-33.41"/>
</g>
<!-- Node60&#45;&gt;Node4 -->
<g id="edge87" class="edge">
<title>Node60&#45;&gt;Node4</title>
<path fill="none" stroke="#63b8ff" d="M1903.29,-429.81C1979.33,-425.44 2135.01,-413.21 2263,-382 2506.86,-322.54 2556.69,-256.12 2750,-96 2773.99,-76.12 2798.97,-50.17 2814.5,-33.29"/>
<polygon fill="#63b8ff" stroke="#63b8ff" points="2816.93,-35.82 2821.07,-26.07 2811.75,-31.11 2816.93,-35.82"/>
</g>
<!-- Node60&#45;&gt;Node6 -->
<g id="edge89" class="edge">
<title>Node60&#45;&gt;Node6</title>
<path fill="none" stroke="#63b8ff" d="M1824.88,-423.03C1817.41,-421.17 1809.46,-419.36 1802,-418 1660.33,-392.18 1622.06,-405.57 1480,-382 1441.38,-375.59 1432.33,-370.92 1394,-363 1311.11,-345.87 1281.41,-367.34 1207,-327 1160.85,-301.98 1168.93,-270.73 1125,-242 1102.95,-227.58 1075.57,-216.97 1052.54,-209.73"/>
<polygon fill="#63b8ff" stroke="#63b8ff" points="1053.66,-206.41 1043.08,-206.89 1051.64,-213.12 1053.66,-206.41"/>
</g>
<!-- Node60&#45;&gt;Node19 -->
<g id="edge88" class="edge">
<title>Node60&#45;&gt;Node19</title>
<path fill="none" stroke="#63b8ff" d="M1903.24,-428.73C2051,-418.28 2510.04,-385.81 2645.8,-376.2"/>
<polygon fill="#63b8ff" stroke="#63b8ff" points="2645.96,-379.7 2655.69,-375.5 2645.46,-372.72 2645.96,-379.7"/>
</g>
<!-- Node60&#45;&gt;Node20 -->
<g id="edge90" class="edge">
<title>Node60&#45;&gt;Node20</title>
<path fill="none" stroke="#63b8ff" d="M1840.75,-423.12C1823.7,-413.79 1796.64,-399 1776.49,-387.99"/>
<polygon fill="#63b8ff" stroke="#63b8ff" points="1778.19,-384.92 1767.73,-383.19 1774.83,-391.06 1778.19,-384.92"/>
</g>
<!-- Node62&#45;&gt;Node2 -->
<g id="edge93" class="edge">
<title>Node62&#45;&gt;Node2</title>
<path fill="none" stroke="#63b8ff" d="M1218.23,-556.48C1040.19,-551.69 632.15,-538.2 574,-514 483.39,-476.3 266,-295.64 266,-197.5 266,-197.5 266,-197.5 266,-140.5 266,-84.36 315.47,-85.8 368,-66 463.99,-29.82 782.57,-19.24 887.31,-16.7"/>
<polygon fill="#63b8ff" stroke="#63b8ff" points="887.28,-20.2 897.2,-16.47 887.12,-13.2 887.28,-20.2"/>
</g>
<!-- Node62&#45;&gt;Node4 -->
<g id="edge94" class="edge">
<title>Node62&#45;&gt;Node4</title>
<path fill="none" stroke="#63b8ff" d="M1341.65,-549.56C1417.67,-533.28 1586.69,-499.06 1731,-484 1840.37,-472.59 2618.12,-489.37 2720,-448 2895.2,-376.85 2926.19,-282.23 2959,-96 2961.31,-82.87 2966.53,-77 2959,-66 2939.53,-37.57 2901.37,-25.3 2871.58,-20.01"/>
<polygon fill="#63b8ff" stroke="#63b8ff" points="2872.14,-16.56 2861.72,-18.48 2871.07,-23.47 2872.14,-16.56"/>
</g>
<!-- Node62&#45;&gt;Node6 -->
<g id="edge96" class="edge">
<title>Node62&#45;&gt;Node6</title>
<path fill="none" stroke="#63b8ff" d="M1250.12,-549.52C1104.97,-522.69 695.06,-438.06 628,-327 593.21,-269.38 828.96,-224.56 944.2,-206.35"/>
<polygon fill="#63b8ff" stroke="#63b8ff" points="944.46,-209.85 953.8,-204.85 943.38,-202.93 944.46,-209.85"/>
</g>
<!-- Node62&#45;&gt;Node22 -->
<g id="edge95" class="edge">
<title>Node62&#45;&gt;Node22</title>
<path fill="none" stroke="#63b8ff" d="M1309.57,-549.71C1333.51,-525.59 1403.92,-457.57 1474,-418 1557.5,-370.85 1667.45,-339.24 1719.79,-325.81"/>
<polygon fill="#63b8ff" stroke="#63b8ff" points="1720.33,-329.28 1729.18,-323.45 1718.62,-322.49 1720.33,-329.28"/>
</g>
<!-- Node62&#45;&gt;Node26 -->
<g id="edge97" class="edge">
<title>Node62&#45;&gt;Node26</title>
<path fill="none" stroke="#63b8ff" d="M1282.12,-549.53C1233.06,-526.35 1097.22,-463.15 981,-418 891.57,-383.26 784.32,-348.56 727.64,-330.76"/>
<polygon fill="#63b8ff" stroke="#63b8ff" points="729.03,-327.53 718.44,-327.88 726.94,-334.21 729.03,-327.53"/>
</g>
<!-- Node62&#45;&gt;Node59 -->
<g id="edge98" class="edge">
<title>Node62&#45;&gt;Node59</title>
<path fill="none" stroke="#63b8ff" d="M1377.45,-549.52C1472.98,-538.3 1635.19,-519.24 1728.07,-508.33"/>
<polygon fill="#63b8ff" stroke="#63b8ff" points="1728.29,-511.83 1737.81,-507.19 1727.47,-504.88 1728.29,-511.83"/>
</g>
<!-- Node70&#45;&gt;Node2 -->
<g id="edge103" class="edge">
<title>Node70&#45;&gt;Node2</title>
<path fill="none" stroke="#63b8ff" d="M2196.22,-798.42C2315.54,-791.98 2615,-767.26 2615,-681.5 2615,-681.5 2615,-681.5 2615,-619 2615,-442.21 2493.85,-431.14 2367,-308 2208.67,-154.3 2107.72,-213.18 1896,-151 1833.84,-132.74 1815.81,-130.54 1761,-96 1744.23,-85.43 1746.26,-73.72 1728,-66 1655.99,-35.57 1098.28,-20.24 954.65,-16.77"/>
<polygon fill="#63b8ff" stroke="#63b8ff" points="954.76,-13.27 944.68,-16.53 954.59,-20.27 954.76,-13.27"/>
</g>
<!-- Node70&#45;&gt;Node4 -->
<g id="edge104" class="edge">
<title>Node70&#45;&gt;Node4</title>
<path fill="none" stroke="#63b8ff" d="M2196.23,-799.87C2324.51,-797.75 2671.73,-789.05 2781,-756 2924.05,-712.73 3233,-407.45 3233,-258 3233,-258 3233,-258 3233,-140.5 3233,-91.91 3196.71,-87.21 3153,-66 3104.12,-42.28 2947.62,-26.07 2871.87,-19.41"/>
<polygon fill="#63b8ff" stroke="#63b8ff" points="2872.2,-15.92 2861.94,-18.55 2871.6,-22.9 2872.2,-15.92"/>
</g>
<!-- Node70&#45;&gt;Node6 -->
<g id="edge107" class="edge">
<title>Node70&#45;&gt;Node6</title>
<path fill="none" stroke="#63b8ff" d="M2119.45,-791.62C2094,-783.39 2055.95,-770.28 2024,-756 1951.56,-723.62 1942.06,-696.73 1867,-671 1782.19,-641.93 1557.63,-618.51 1469,-605 1354.11,-587.49 1307.78,-631.82 1210,-569 1078.37,-484.43 1080.36,-416.76 1021,-272 1013.71,-254.21 1009.54,-232.62 1007.3,-217.26"/>
<polygon fill="#63b8ff" stroke="#63b8ff" points="1010.79,-217.02 1006.04,-207.56 1003.85,-217.93 1010.79,-217.02"/>
</g>
<!-- Node70&#45;&gt;Node8 -->
<g id="edge105" class="edge">
<title>Node70&#45;&gt;Node8</title>
<path fill="none" stroke="#63b8ff" d="M2196.36,-800.38C2318.28,-799.52 2635.47,-793.61 2733,-756 2921.1,-683.46 2967.58,-623.94 3066,-448 3085.42,-413.29 3105.2,-401.17 3094,-363 3067.83,-273.8 3052.89,-245.94 2981,-187 2911.91,-130.36 2808.61,-101.62 2752.58,-89.44"/>
<polygon fill="#63b8ff" stroke="#63b8ff" points="2753.36,-86.02 2742.85,-87.39 2751.92,-92.87 2753.36,-86.02"/>
</g>
<!-- Node70&#45;&gt;Node19 -->
<g id="edge106" class="edge">
<title>Node70&#45;&gt;Node19</title>
<path fill="none" stroke="#63b8ff" d="M2196.11,-798.51C2305.07,-793.64 2567.79,-779.75 2653,-756 2725.47,-735.8 2805,-756.73 2805,-681.5 2805,-681.5 2805,-681.5 2805,-558.5 2805,-485.53 2738.26,-418.91 2703.91,-389.45"/>
<polygon fill="#63b8ff" stroke="#63b8ff" points="2706.25,-386.84 2696.33,-383.12 2701.76,-392.22 2706.25,-386.84"/>
</g>
<!-- Node70&#45;&gt;Node26 -->
<g id="edge128" class="edge">
<title>Node70&#45;&gt;Node26</title>
<path fill="none" stroke="#63b8ff" d="M2099.57,-797.87C1967.17,-790.58 1601.06,-769.76 1481,-756 1299.81,-735.24 1249.33,-746.73 1076,-690 883.71,-627.07 738.68,-404 698.91,-337.4"/>
<polygon fill="#63b8ff" stroke="#63b8ff" points="701.93,-335.63 693.84,-328.78 695.89,-339.18 701.93,-335.63"/>
</g>
<!-- Node70&#45;&gt;Node58 -->
<g id="edge129" class="edge">
<title>Node70&#45;&gt;Node58</title>
<path fill="none" stroke="#63b8ff" d="M2134.2,-791.54C2099.18,-769.06 2003.51,-709.33 1918,-671 1890.5,-658.67 1858.97,-647.52 1832.27,-638.9"/>
<polygon fill="#63b8ff" stroke="#63b8ff" points="1833.56,-635.64 1822.97,-635.94 1831.44,-642.31 1833.56,-635.64"/>
</g>
<!-- Node71 -->
<g id="node37" class="node">
<title>Node71</title>
<g id="a_node37"><a xlink:href="../../d4/d35/pointer__vector__set_8h.html" target="_top" xlink:title=" ">
<polygon fill="#fff0f0" stroke="red" points="2434.5,-448 2329.5,-448 2329.5,-418 2434.5,-418 2434.5,-448"/>
<text text-anchor="start" x="2337.5" y="-436" font-family="Helvetica,sans-Serif" font-size="10.00">containers/pointer</text>
<text text-anchor="middle" x="2382" y="-425" font-family="Helvetica,sans-Serif" font-size="10.00">_vector_set.h</text>
</a>
</g>
</g>
<!-- Node70&#45;&gt;Node71 -->
<g id="edge108" class="edge">
<title>Node70&#45;&gt;Node71</title>
<path fill="none" stroke="#63b8ff" d="M2196.18,-792.61C2284.43,-776.8 2463,-737.84 2463,-681.5 2463,-681.5 2463,-681.5 2463,-558.5 2463,-517.39 2431.59,-479.2 2407.89,-456.24"/>
<polygon fill="#63b8ff" stroke="#63b8ff" points="2410.38,-453.78 2400.68,-449.52 2405.61,-458.9 2410.38,-453.78"/>
</g>
<!-- Node70&#45;&gt;Node74 -->
<g id="edge117" class="edge">
<title>Node70&#45;&gt;Node74</title>
<path fill="none" stroke="#63b8ff" d="M2196.19,-799.02C2311.4,-795.06 2595.71,-782.68 2629,-756 2656.14,-734.24 2653,-716.29 2653,-681.5 2653,-681.5 2653,-681.5 2653,-558.5 2653,-524.26 2654.91,-484.78 2656.37,-459.61"/>
<polygon fill="#63b8ff" stroke="#63b8ff" points="2659.86,-459.89 2656.97,-449.69 2652.87,-459.46 2659.86,-459.89"/>
</g>
<!-- Node76 -->
<g id="node39" class="node">
<title>Node76</title>
<g id="a_node39"><a xlink:href="../../d9/d4c/includes_2indexed__object_8h.html" target="_top" xlink:title=" ">
<polygon fill="white" stroke="#666666" points="1792.5,-442.5 1649.5,-442.5 1649.5,-423.5 1792.5,-423.5 1792.5,-442.5"/>
<text text-anchor="middle" x="1721" y="-430.5" font-family="Helvetica,sans-Serif" font-size="10.00">includes/indexed_object.h</text>
</a>
</g>
</g>
<!-- Node70&#45;&gt;Node76 -->
<g id="edge124" class="edge">
<title>Node70&#45;&gt;Node76</title>
<path fill="none" stroke="#63b8ff" d="M2143.56,-791.82C2125.77,-757.7 2056.6,-630.72 1972,-550 1913.67,-494.35 1823.86,-461.8 1768.97,-445.98"/>
<polygon fill="#63b8ff" stroke="#63b8ff" points="1770.17,-442.68 1759.6,-443.36 1768.29,-449.43 1770.17,-442.68"/>
</g>
<!-- Node70&#45;&gt;Node87 -->
<g id="edge130" class="edge">
<title>Node70&#45;&gt;Node87</title>
<path fill="none" stroke="#63b8ff" d="M2099.56,-795.74C1995.7,-785.53 1751.01,-761.47 1627.33,-749.31"/>
<polygon fill="#63b8ff" stroke="#63b8ff" points="1627.91,-745.85 1617.62,-748.35 1627.23,-752.82 1627.91,-745.85"/>
</g>
<!-- Node71&#45;&gt;Node2 -->
<g id="edge110" class="edge">
<title>Node71&#45;&gt;Node2</title>
<path fill="none" stroke="#63b8ff" d="M2379.59,-417.52C2374.83,-392.73 2362.27,-341.61 2335,-308 2300.74,-265.78 2281.68,-264.09 2232,-242 2147.37,-204.36 2121,-208.88 2031,-187 1956.38,-168.86 1936.79,-168.44 1862,-151 1765.1,-128.41 1735.71,-136.87 1645,-96 1623.42,-86.28 1623.35,-73.8 1601,-66 1479.58,-23.61 1074.39,-17.16 954.62,-16.18"/>
<polygon fill="#63b8ff" stroke="#63b8ff" points="954.85,-12.68 944.82,-16.1 954.8,-19.68 954.85,-12.68"/>
</g>
<!-- Node71&#45;&gt;Node4 -->
<g id="edge111" class="edge">
<title>Node71&#45;&gt;Node4</title>
<path fill="none" stroke="#63b8ff" d="M2434.98,-424.17C2472.27,-417.06 2522.39,-404.19 2562,-382 2709.49,-299.38 2798.07,-97.97 2822.83,-35.08"/>
<polygon fill="#63b8ff" stroke="#63b8ff" points="2825.95,-36.72 2826.28,-26.13 2819.42,-34.21 2825.95,-36.72"/>
</g>
<!-- Node71&#45;&gt;Node6 -->
<g id="edge115" class="edge">
<title>Node71&#45;&gt;Node6</title>
<path fill="none" stroke="#63b8ff" d="M2357.31,-417.51C2310.95,-391.04 2206.99,-335.09 2112,-308 1912.49,-251.11 1268.26,-211.88 1066.2,-200.74"/>
<polygon fill="#63b8ff" stroke="#63b8ff" points="1066.63,-197.26 1056.45,-200.21 1066.25,-204.25 1066.63,-197.26"/>
</g>
<!-- Node71&#45;&gt;Node8 -->
<g id="edge112" class="edge">
<title>Node71&#45;&gt;Node8</title>
<path fill="none" stroke="#63b8ff" d="M2434.96,-420.64C2485.29,-407.04 2559.31,-379.23 2601,-327 2659.28,-253.99 2694.8,-145.75 2707.6,-101.71"/>
<polygon fill="#63b8ff" stroke="#63b8ff" points="2710.9,-102.89 2710.25,-92.31 2704.16,-100.99 2710.9,-102.89"/>
</g>
<!-- Node71&#45;&gt;Node11 -->
<g id="edge114" class="edge">
<title>Node71&#45;&gt;Node11</title>
<path fill="none" stroke="#63b8ff" d="M2383.29,-417.75C2384.06,-403.43 2383.81,-380.97 2377,-363 2347.25,-284.51 2309.38,-274.52 2232,-242 2169.17,-215.59 1700.79,-116.51 1569.89,-89.08"/>
<polygon fill="#63b8ff" stroke="#63b8ff" points="1570.63,-85.66 1560.13,-87.03 1569.2,-92.51 1570.63,-85.66"/>
</g>
<!-- Node71&#45;&gt;Node15 -->
<g id="edge109" class="edge">
<title>Node71&#45;&gt;Node15</title>
<path fill="none" stroke="#63b8ff" d="M2402.53,-417.72C2444.89,-386.42 2535.02,-309.19 2498,-242 2445.16,-146.07 2362.47,-208.09 2269,-151 2219.61,-120.83 2179.38,-63.63 2160.93,-34.32"/>
<polygon fill="#63b8ff" stroke="#63b8ff" points="2164.14,-32.87 2155.92,-26.18 2158.17,-36.53 2164.14,-32.87"/>
</g>
<!-- Node71&#45;&gt;Node19 -->
<g id="edge113" class="edge">
<title>Node71&#45;&gt;Node19</title>
<path fill="none" stroke="#63b8ff" d="M2434.54,-422.18C2487.28,-412.26 2570.83,-396.39 2643,-382 2644,-381.8 2645.01,-381.6 2646.03,-381.39"/>
<polygon fill="#63b8ff" stroke="#63b8ff" points="2646.52,-384.86 2655.62,-379.44 2645.13,-378.01 2646.52,-384.86"/>
</g>
<!-- Node71&#45;&gt;Node20 -->
<g id="edge116" class="edge">
<title>Node71&#45;&gt;Node20</title>
<path fill="none" stroke="#63b8ff" d="M2329.2,-427.11C2214.99,-416.54 1945.07,-391.56 1818.17,-379.81"/>
<polygon fill="#63b8ff" stroke="#63b8ff" points="1818.5,-376.33 1808.22,-378.89 1817.85,-383.3 1818.5,-376.33"/>
</g>
<!-- Node74&#45;&gt;Node2 -->
<g id="edge119" class="edge">
<title>Node74&#45;&gt;Node2</title>
<path fill="none" stroke="#63b8ff" d="M2605.25,-428.28C2561.94,-425.3 2499.02,-421.1 2444,-418 2106.82,-398.98 2020.11,-423.83 1685,-382 1624.24,-374.42 1472.69,-347.52 1415,-327 1387.7,-317.29 1208.73,-221.1 1184,-206 1147.8,-183.89 1140.47,-175.73 1106,-151 1046.31,-108.18 976.41,-56.85 942.14,-31.6"/>
<polygon fill="#63b8ff" stroke="#63b8ff" points="944.42,-28.93 934.29,-25.81 940.26,-34.56 944.42,-28.93"/>
</g>
<!-- Node74&#45;&gt;Node4 -->
<g id="edge120" class="edge">
<title>Node74&#45;&gt;Node4</title>
<path fill="none" stroke="#63b8ff" d="M2707.65,-417.53C2728.89,-409.56 2752.9,-397.97 2771,-382 2826.61,-332.93 2923.17,-167.46 2943,-96 2946.57,-83.15 2950.27,-77.17 2943,-66 2927.27,-41.83 2896.9,-29.26 2871.61,-22.77"/>
<polygon fill="#63b8ff" stroke="#63b8ff" points="2872.42,-19.36 2861.89,-20.53 2870.85,-26.19 2872.42,-19.36"/>
</g>
<!-- Node74&#45;&gt;Node6 -->
<g id="edge123" class="edge">
<title>Node74&#45;&gt;Node6</title>
<path fill="none" stroke="#63b8ff" d="M2605.25,-428.18C2561.95,-425.14 2499.03,-420.91 2444,-418 2246.78,-407.55 1749.21,-422.92 1556,-382 1533.55,-377.25 1529.9,-369.84 1508,-363 1440.49,-341.93 1419.15,-352 1353,-327 1304.82,-308.79 1294.04,-300.29 1251,-272 1233.02,-260.18 1232.47,-251.16 1213,-242 1187.31,-229.92 1117.48,-216.3 1065.77,-207.35"/>
<polygon fill="#63b8ff" stroke="#63b8ff" points="1066.65,-203.95 1056.2,-205.71 1065.47,-210.85 1066.65,-203.95"/>
</g>
<!-- Node74&#45;&gt;Node8 -->
<g id="edge121" class="edge">
<title>Node74&#45;&gt;Node8</title>
<path fill="none" stroke="#63b8ff" d="M2708.11,-417.6C2725.42,-409.96 2742.98,-398.59 2753,-382 2809.06,-289.15 2748.71,-150.98 2723.23,-100.95"/>
<polygon fill="#63b8ff" stroke="#63b8ff" points="2726.42,-99.5 2718.68,-92.27 2720.22,-102.75 2726.42,-99.5"/>
</g>
<!-- Node74&#45;&gt;Node15 -->
<g id="edge118" class="edge">
<title>Node74&#45;&gt;Node15</title>
<path fill="none" stroke="#63b8ff" d="M2685.52,-417.54C2698.54,-409.09 2712.78,-397.09 2720,-382 2723.64,-374.38 2720.75,-371.41 2720,-363 2715.76,-315.77 2701,-305.42 2701,-258 2701,-258 2701,-258 2701,-195.5 2701,-86.45 2305.89,-33.37 2184.83,-19.67"/>
<polygon fill="#63b8ff" stroke="#63b8ff" points="2185.51,-16.22 2175.18,-18.6 2184.73,-23.18 2185.51,-16.22"/>
</g>
<!-- Node74&#45;&gt;Node19 -->
<g id="edge122" class="edge">
<title>Node74&#45;&gt;Node19</title>
<path fill="none" stroke="#63b8ff" d="M2664.43,-417.54C2667.78,-410 2671.92,-400.67 2675.53,-392.55"/>
<polygon fill="#63b8ff" stroke="#63b8ff" points="2678.67,-394.12 2679.53,-383.56 2672.27,-391.27 2678.67,-394.12"/>
</g>
<!-- Node76&#45;&gt;Node4 -->
<g id="edge125" class="edge">
<title>Node76&#45;&gt;Node4</title>
<path fill="none" stroke="#63b8ff" d="M1771.72,-423.04C1855.44,-407.6 2027.3,-373.14 2168,-327 2387.27,-255.1 2435.77,-215.8 2633,-96 2652.92,-83.9 2655.14,-76.38 2676,-66 2712.43,-47.88 2756.89,-34.27 2788.65,-25.86"/>
<polygon fill="#63b8ff" stroke="#63b8ff" points="2789.47,-29.26 2798.28,-23.37 2787.72,-22.48 2789.47,-29.26"/>
</g>
<!-- Node76&#45;&gt;Node6 -->
<g id="edge126" class="edge">
<title>Node76&#45;&gt;Node6</title>
<path fill="none" stroke="#63b8ff" d="M1661.33,-423.03C1527.35,-402.56 1211.04,-352.22 1169,-327 1127.03,-301.82 1137.6,-272.08 1099,-242 1081.94,-228.7 1060.26,-218.1 1042.02,-210.59"/>
<polygon fill="#63b8ff" stroke="#63b8ff" points="1043.45,-207.4 1032.87,-206.98 1040.88,-213.91 1043.45,-207.4"/>
</g>
<!-- Node76&#45;&gt;Node20 -->
<g id="edge127" class="edge">
<title>Node76&#45;&gt;Node20</title>
<path fill="none" stroke="#63b8ff" d="M1725.28,-423.37C1729.31,-415.25 1735.47,-402.81 1740.64,-392.39"/>
<polygon fill="#63b8ff" stroke="#63b8ff" points="1743.73,-394.04 1745.03,-383.52 1737.45,-390.93 1743.73,-394.04"/>
</g>
<!-- Node87&#45;&gt;Node6 -->
<g id="edge131" class="edge">
<title>Node87&#45;&gt;Node6</title>
<path fill="none" stroke="#63b8ff" d="M1495.43,-725.59C1414.77,-703.11 1266.81,-653.31 1167,-569 1114.98,-525.06 1001.08,-391.42 979,-327 966.75,-291.26 969.13,-278.47 979,-242 981.51,-232.74 986.48,-223.42 991.41,-215.73"/>
<polygon fill="#63b8ff" stroke="#63b8ff" points="994.19,-217.86 997.01,-207.64 988.44,-213.87 994.19,-217.86"/>
</g>
<!-- Node87&#45;&gt;Node26 -->
<g id="edge136" class="edge">
<title>Node87&#45;&gt;Node26</title>
<path fill="none" stroke="#63b8ff" d="M1489.74,-738.89C1406.73,-735.98 1257.24,-725.72 1135,-690 966.22,-640.68 947.15,-571.52 822,-448 784.64,-411.13 778.21,-398.99 740,-363 729.64,-353.24 717.6,-342.88 707.71,-334.61"/>
<polygon fill="#63b8ff" stroke="#63b8ff" points="710.12,-332.06 700.18,-328.38 705.66,-337.45 710.12,-332.06"/>
</g>
<!-- Node87&#45;&gt;Node57 -->
<g id="edge138" class="edge">
<title>Node87&#45;&gt;Node57</title>
<path fill="none" stroke="#63b8ff" d="M1607.13,-725.54C1644.28,-715.62 1692.96,-702.61 1727.78,-693.31"/>
<polygon fill="#63b8ff" stroke="#63b8ff" points="1728.34,-696.79 1737.1,-690.82 1726.53,-690.02 1728.34,-696.79"/>
</g>
<!-- Node87&#45;&gt;Node59 -->
<g id="edge137" class="edge">
<title>Node87&#45;&gt;Node59</title>
<path fill="none" stroke="#63b8ff" d="M1567.65,-725.71C1610.71,-683.7 1736.67,-560.81 1782.27,-516.32"/>
<polygon fill="#63b8ff" stroke="#63b8ff" points="1784.47,-519.06 1789.19,-509.57 1779.59,-514.05 1784.47,-519.06"/>
</g>
<!-- Node87&#45;&gt;Node76 -->
<g id="edge139" class="edge">
<title>Node87&#45;&gt;Node76</title>
<path fill="none" stroke="#63b8ff" d="M1555.17,-725.75C1558.38,-703.46 1564,-658.97 1564,-621 1564,-621 1564,-621 1564,-558.5 1564,-499.4 1633.14,-463.91 1679.65,-446.73"/>
<polygon fill="#63b8ff" stroke="#63b8ff" points="1680.67,-450.08 1688.93,-443.45 1678.33,-443.48 1680.67,-450.08"/>
</g>
<!-- Node87&#45;&gt;Node99 -->
<g id="edge132" class="edge">
<title>Node87&#45;&gt;Node99</title>
<path fill="none" stroke="#63b8ff" d="M1489.76,-734.31C1395.72,-725.69 1213.51,-708.37 1059,-690 904.32,-671.61 723.59,-645.89 625.77,-631.61"/>
<polygon fill="#63b8ff" stroke="#63b8ff" points="626.44,-628.17 616.04,-630.19 625.43,-635.1 626.44,-628.17"/>
</g>
<!-- Node99&#45;&gt;Node6 -->
<g id="edge133" class="edge">
<title>Node99&#45;&gt;Node6</title>
<path fill="none" stroke="#63b8ff" d="M549.35,-610.28C524.54,-562.49 413.3,-331.22 534,-242 566.31,-218.11 824.44,-204.74 944.27,-199.77"/>
<polygon fill="#63b8ff" stroke="#63b8ff" points="944.06,-203.28 953.91,-199.38 943.78,-196.29 944.06,-203.28"/>
</g>
<!-- Node99&#45;&gt;Node26 -->
<g id="edge134" class="edge">
<title>Node99&#45;&gt;Node26</title>
<path fill="none" stroke="#63b8ff" d="M553.95,-610.12C554.11,-588 556.29,-528.97 574,-484 597.66,-423.92 646.69,-364.21 672.05,-335.73"/>
<polygon fill="#63b8ff" stroke="#63b8ff" points="674.53,-338.2 678.65,-328.44 669.34,-333.51 674.53,-338.2"/>
</g>
<!-- Node99&#45;&gt;Node62 -->
<g id="edge135" class="edge">
<title>Node99&#45;&gt;Node62</title>
<path fill="none" stroke="#63b8ff" d="M618.34,-613.96C750.4,-603.62 1052.58,-579.95 1206.76,-567.88"/>
<polygon fill="#63b8ff" stroke="#63b8ff" points="1206.85,-571.38 1216.55,-567.11 1206.3,-564.41 1206.85,-571.38"/>
</g>
<!-- Node100&#45;&gt;Node6 -->
<g id="edge141" class="edge">
<title>Node100&#45;&gt;Node6</title>
<path fill="none" stroke="#63b8ff" d="M628.54,-483.55C590.59,-441.09 489.74,-315.15 556,-242 581.57,-213.77 827.53,-202.75 944.18,-199.08"/>
<polygon fill="#63b8ff" stroke="#63b8ff" points="943.99,-202.59 953.88,-198.79 943.77,-195.59 943.99,-202.59"/>
</g>
<!-- Node100&#45;&gt;Node101 -->
<g id="edge142" class="edge">
<title>Node100&#45;&gt;Node101</title>
<path fill="none" stroke="#63b8ff" d="M701.42,-484.27C746.66,-473.82 808.81,-459.46 855.11,-448.76"/>
<polygon fill="#63b8ff" stroke="#63b8ff" points="855.79,-452.2 864.75,-446.54 854.21,-445.38 855.79,-452.2"/>
</g>
<!-- Node101&#45;&gt;Node5 -->
<g id="edge144" class="edge">
<title>Node101&#45;&gt;Node5</title>
<path fill="none" stroke="#63b8ff" d="M904.44,-417.63C883.09,-396.56 843.41,-357.4 820.85,-335.13"/>
<polygon fill="#63b8ff" stroke="#63b8ff" points="823.5,-332.83 813.92,-328.29 818.58,-337.81 823.5,-332.83"/>
</g>
<!-- Node101&#45;&gt;Node6 -->
<g id="edge145" class="edge">
<title>Node101&#45;&gt;Node6</title>
<path fill="none" stroke="#63b8ff" d="M912.28,-417.67C897.51,-383.9 866.37,-297.94 903,-242 912.95,-226.81 929.34,-216.77 946.1,-210.16"/>
<polygon fill="#63b8ff" stroke="#63b8ff" points="946.85,-213.6 955.11,-206.97 944.52,-207.01 946.85,-213.6"/>
</g>
<!-- Node101&#45;&gt;Node11 -->
<g id="edge143" class="edge">
<title>Node101&#45;&gt;Node11</title>
<path fill="none" stroke="#63b8ff" d="M971.05,-417.51C1029.65,-401.75 1127.94,-376.93 1214,-363 1257.4,-355.98 1578.36,-359.47 1608,-327 1669.13,-260.03 1586.62,-143.68 1550.97,-99.61"/>
<polygon fill="#63b8ff" stroke="#63b8ff" points="1553.81,-97.54 1544.74,-92.06 1548.41,-102 1553.81,-97.54"/>
</g>
<!-- Node101&#45;&gt;Node20 -->
<g id="edge146" class="edge">
<title>Node101&#45;&gt;Node20</title>
<path fill="none" stroke="#63b8ff" d="M971.93,-428.27C1116.9,-418.07 1520.32,-389.67 1681.85,-378.3"/>
<polygon fill="#63b8ff" stroke="#63b8ff" points="1681.81,-381.81 1691.54,-377.62 1681.32,-374.83 1681.81,-381.81"/>
</g>
<!-- Node102&#45;&gt;Node57 -->
<g id="edge148" class="edge">
<title>Node102&#45;&gt;Node57</title>
<path fill="none" stroke="#63b8ff" d="M1765.53,-791.56C1766.65,-772.51 1769.29,-727.56 1770.83,-701.37"/>
<polygon fill="#63b8ff" stroke="#63b8ff" points="1774.3,-701.92 1771.4,-691.74 1767.32,-701.51 1774.3,-701.92"/>
</g>
<!-- Node115 -->
<g id="node45" class="node">
<title>Node115</title>
<g id="a_node45"><a xlink:href="../../db/d71/kratos__parameters_8h.html" target="_top" xlink:title=" ">
<polygon fill="#fff0f0" stroke="red" points="1459.5,-629.5 1298.5,-629.5 1298.5,-610.5 1459.5,-610.5 1459.5,-629.5"/>
<text text-anchor="middle" x="1379" y="-617.5" font-family="Helvetica,sans-Serif" font-size="10.00">includes/kratos_parameters.h</text>
</a>
</g>
</g>
<!-- Node102&#45;&gt;Node115 -->
<g id="edge149" class="edge">
<title>Node102&#45;&gt;Node115</title>
<path fill="none" stroke="#63b8ff" d="M1749.27,-791.56C1723.6,-777.1 1670.95,-747.98 1625,-726 1550.15,-690.19 1459.95,-653.22 1412.29,-634.15"/>
<polygon fill="#63b8ff" stroke="#63b8ff" points="1413.66,-630.93 1403.08,-630.48 1411.07,-637.43 1413.66,-630.93"/>
</g>
<!-- Node115&#45;&gt;Node20 -->
<g id="edge150" class="edge">
<title>Node115&#45;&gt;Node20</title>
<path fill="none" stroke="#63b8ff" d="M1381.9,-610.36C1392.98,-578.72 1435.98,-468.41 1512,-418 1539.32,-399.89 1621.67,-387.33 1681.87,-380.28"/>
<polygon fill="#63b8ff" stroke="#63b8ff" points="1682.17,-383.77 1691.71,-379.16 1681.38,-376.81 1682.17,-383.77"/>
</g>
<!-- Node115&#45;&gt;Node27 -->
<g id="edge151" class="edge">
<title>Node115&#45;&gt;Node27</title>
<path fill="none" stroke="#63b8ff" d="M1299.61,-610.02C1234.15,-597.67 1152,-568.52 1152,-500 1152,-500 1152,-500 1152,-432 1152,-318.19 1305.61,-278.75 1405.42,-265.13"/>
<polygon fill="#63b8ff" stroke="#63b8ff" points="1405.74,-268.61 1415.2,-263.86 1404.84,-261.67 1405.74,-268.61"/>
</g>
<!-- Node119&#45;&gt;Node57 -->
<g id="edge153" class="edge">
<title>Node119&#45;&gt;Node57</title>
<path fill="none" stroke="#63b8ff" d="M1885.76,-791.56C1865.18,-771.64 1815.33,-723.42 1788.98,-697.92"/>
<polygon fill="#63b8ff" stroke="#63b8ff" points="1791.73,-695.71 1782.11,-691.28 1786.86,-700.75 1791.73,-695.71"/>
</g>
<!-- Node119&#45;&gt;Node115 -->
<g id="edge154" class="edge">
<title>Node119&#45;&gt;Node115</title>
<path fill="none" stroke="#63b8ff" d="M1893.02,-791.71C1886.84,-765.14 1867.14,-686.5 1847,-671 1781.01,-620.2 1556.66,-645.07 1474,-635 1465.6,-633.98 1456.8,-632.81 1448.08,-631.59"/>
<polygon fill="#63b8ff" stroke="#63b8ff" points="1448.6,-628.13 1438.21,-630.19 1447.62,-635.06 1448.6,-628.13"/>
</g>
<!-- Node120&#45;&gt;Node2 -->
<g id="edge156" class="edge">
<title>Node120&#45;&gt;Node2</title>
<path fill="none" stroke="#63b8ff" d="M1866.08,-853.94C1542.27,-846.42 201.11,-812 133,-756 106.6,-734.3 114,-715.67 114,-681.5 114,-681.5 114,-681.5 114,-140.5 114,-101.59 126.66,-86.06 160,-66 222.97,-28.11 749.14,-18.33 887.68,-16.41"/>
<polygon fill="#63b8ff" stroke="#63b8ff" points="887.32,-19.91 897.27,-16.28 887.23,-12.91 887.32,-19.91"/>
</g>
<!-- Node120&#45;&gt;Node4 -->
<g id="edge157" class="edge">
<title>Node120&#45;&gt;Node4</title>
<path fill="none" stroke="#63b8ff" d="M2005.98,-853.58C2127.89,-849.62 2386.93,-838.5 2604,-811 2735.45,-794.34 2772.2,-800.49 2897,-756 3120.95,-676.16 3271,-611.26 3271,-373.5 3271,-373.5 3271,-373.5 3271,-140.5 3271,-93.52 3238.12,-86.81 3196,-66 3139.7,-38.18 2955.37,-23.67 2871.82,-18.38"/>
<polygon fill="#63b8ff" stroke="#63b8ff" points="2872.2,-14.89 2862,-17.77 2871.77,-21.88 2872.2,-14.89"/>
</g>
<!-- Node120&#45;&gt;Node6 -->
<g id="edge160" class="edge">
<title>Node120&#45;&gt;Node6</title>
<path fill="none" stroke="#63b8ff" d="M1866.19,-847.56C1730.36,-829.38 1425.25,-774.98 1213,-635 1067.21,-538.85 1007.78,-497.28 969,-327 960.61,-290.16 953.92,-277.45 967,-242 970.84,-231.59 978.32,-221.96 985.64,-214.34"/>
<polygon fill="#63b8ff" stroke="#63b8ff" points="988.04,-216.89 992.83,-207.44 983.19,-211.84 988.04,-216.89"/>
</g>
<!-- Node120&#45;&gt;Node8 -->
<g id="edge158" class="edge">
<title>Node120&#45;&gt;Node8</title>
<path fill="none" stroke="#63b8ff" d="M2005.57,-853.85C2118.22,-850.4 2347.27,-840.14 2539,-811 2645.9,-794.75 2671.82,-784.98 2776,-756 2879.11,-727.32 3005,-788.53 3005,-681.5 3005,-681.5 3005,-681.5 3005,-498 3005,-343.76 2956.3,-299.7 2851,-187 2827.4,-161.74 2823.23,-153.3 2796,-132 2778.55,-118.35 2757.1,-105.52 2740.37,-96.27"/>
<polygon fill="#63b8ff" stroke="#63b8ff" points="2742.43,-93.41 2731.98,-91.72 2739.1,-99.56 2742.43,-93.41"/>
</g>
<!-- Node120&#45;&gt;Node19 -->
<g id="edge159" class="edge">
<title>Node120&#45;&gt;Node19</title>
<path fill="none" stroke="#63b8ff" d="M2005.96,-851.52C2175.08,-841.16 2601.81,-810.27 2733,-756 2777.2,-737.72 2796.58,-732.76 2818,-690 2859.09,-607.98 2840.6,-568.55 2805,-484 2791.32,-451.51 2786.71,-442.12 2761,-418 2747.68,-405.51 2730.23,-395.06 2715.31,-387.43"/>
<polygon fill="#63b8ff" stroke="#63b8ff" points="2716.87,-384.3 2706.35,-383.05 2713.8,-390.59 2716.87,-384.3"/>
</g>
<!-- Node120&#45;&gt;Node70 -->
<g id="edge163" class="edge">
<title>Node120&#45;&gt;Node70</title>
<path fill="none" stroke="#63b8ff" d="M1971.96,-846.51C2007.55,-837.61 2062.21,-823.95 2101.17,-814.21"/>
<polygon fill="#63b8ff" stroke="#63b8ff" points="2101.89,-817.63 2110.75,-811.81 2100.2,-810.84 2101.89,-817.63"/>
</g>
<!-- Node120&#45;&gt;Node102 -->
<g id="edge162" class="edge">
<title>Node120&#45;&gt;Node102</title>
<path fill="none" stroke="#63b8ff" d="M1906.99,-846.51C1878.9,-837.8 1836.09,-824.53 1804.81,-814.84"/>
<polygon fill="#63b8ff" stroke="#63b8ff" points="1805.9,-811.51 1795.31,-811.89 1803.83,-818.2 1805.9,-811.51"/>
</g>
<!-- Node120&#45;&gt;Node119 -->
<g id="edge161" class="edge">
<title>Node120&#45;&gt;Node119</title>
<path fill="none" stroke="#63b8ff" d="M1929.23,-846.75C1923.68,-839.58 1915.66,-829.2 1908.77,-820.3"/>
<polygon fill="#63b8ff" stroke="#63b8ff" points="1911.73,-818.41 1902.84,-812.64 1906.19,-822.69 1911.73,-818.41"/>
</g>
<!-- Node104&#45;&gt;Node2 -->
<g id="edge165" class="edge">
<title>Node104&#45;&gt;Node2</title>
<path fill="none" stroke="#63b8ff" d="M2171.2,-549.69C2185.31,-509.15 2237.9,-338.49 2161,-242 2153.22,-232.23 1955.19,-189.72 1943,-187 1860.81,-168.69 1838.26,-173.06 1757,-151 1686.05,-131.74 1664.12,-133.7 1601,-96 1583.98,-85.84 1586.2,-73.86 1568,-66 1456.11,-17.71 1071.26,-15.33 954.71,-15.75"/>
<polygon fill="#63b8ff" stroke="#63b8ff" points="954.87,-12.25 944.88,-15.8 954.9,-19.25 954.87,-12.25"/>
</g>
<!-- Node104&#45;&gt;Node4 -->
<g id="edge166" class="edge">
<title>Node104&#45;&gt;Node4</title>
<path fill="none" stroke="#63b8ff" d="M2215.21,-558.82C2326.99,-557.88 2614.47,-545.37 2828,-448 2869.94,-428.88 2874.18,-413.31 2908,-382 3024.72,-273.95 3176.65,-189.16 3076,-66 3050.62,-34.95 2934.59,-22.7 2871.36,-18.27"/>
<polygon fill="#63b8ff" stroke="#63b8ff" points="2871.93,-14.8 2861.72,-17.63 2871.46,-21.78 2871.93,-14.8"/>
</g>
<!-- Node104&#45;&gt;Node6 -->
<g id="edge168" class="edge">
<title>Node104&#45;&gt;Node6</title>
<path fill="none" stroke="#63b8ff" d="M2156.61,-549.65C2122.15,-523.49 2015.09,-446.57 1912,-418 1738.28,-369.86 1684.48,-418.75 1508,-382 1481.86,-376.56 1476.65,-370.42 1451,-363 1386.8,-344.42 1367.13,-351.62 1305,-327 1233.4,-298.63 1224.89,-272.09 1154,-242 1121.72,-228.3 1083.83,-217.04 1054.34,-209.28"/>
<polygon fill="#63b8ff" stroke="#63b8ff" points="1055.5,-205.96 1044.94,-206.86 1053.75,-212.74 1055.5,-205.96"/>
</g>
<!-- Node104&#45;&gt;Node53 -->
<g id="edge167" class="edge">
<title>Node104&#45;&gt;Node53</title>
<path fill="none" stroke="#63b8ff" d="M2163.46,-549.71C2153.58,-529.72 2131,-479.1 2131,-434 2131,-434 2131,-434 2131,-371.5 2131,-342.04 2132.44,-329.21 2112,-308 2077.47,-272.18 2052.51,-289.66 2006,-272 1953.97,-252.24 1894.53,-226.57 1859.47,-211.1"/>
<polygon fill="#63b8ff" stroke="#63b8ff" points="1860.93,-207.92 1850.37,-207.07 1858.1,-214.32 1860.93,-207.92"/>
</g>
<!-- Node104&#45;&gt;Node59 -->
<g id="edge169" class="edge">
<title>Node104&#45;&gt;Node59</title>
<path fill="none" stroke="#63b8ff" d="M2120.52,-550.97C2055.99,-540.74 1940.25,-522.39 1866.66,-510.73"/>
<polygon fill="#63b8ff" stroke="#63b8ff" points="1867.59,-507.33 1857.16,-509.22 1866.49,-514.24 1867.59,-507.33"/>
</g>
<!-- Node121&#45;&gt;Node2 -->
<g id="edge179" class="edge">
<title>Node121&#45;&gt;Node2</title>
<path fill="none" stroke="#63b8ff" d="M208.82,-731.08C190.69,-712.46 152,-667.3 152,-621 152,-621 152,-621 152,-140.5 152,-101.59 164.69,-86.12 198,-66 257.53,-30.05 753.44,-18.9 887.63,-16.53"/>
<polygon fill="#63b8ff" stroke="#63b8ff" points="887.32,-20.04 897.26,-16.37 887.2,-13.04 887.32,-20.04"/>
</g>
<!-- Node121&#45;&gt;Node4 -->
<g id="edge178" class="edge">
<title>Node121&#45;&gt;Node4</title>
<path fill="none" stroke="#63b8ff" d="M294.33,-740.73C572.41,-741.95 1556.24,-733.61 2345,-569 2535.16,-529.31 2619.6,-576.82 2765,-448 2887.92,-339.1 2849.41,-105.37 2834.61,-35.88"/>
<polygon fill="#63b8ff" stroke="#63b8ff" points="2838.08,-35.36 2832.49,-26.36 2831.25,-36.88 2838.08,-35.36"/>
</g>
<!-- Node121&#45;&gt;Node6 -->
<g id="edge180" class="edge">
<title>Node121&#45;&gt;Node6</title>
<path fill="none" stroke="#63b8ff" d="M219.27,-731.06C221.96,-711.28 228,-662.26 228,-621 228,-621 228,-621 228,-371.5 228,-287.39 288.91,-275.65 366,-242 418.09,-219.26 794.45,-204.46 943.98,-199.42"/>
<polygon fill="#63b8ff" stroke="#63b8ff" points="943.81,-202.93 953.69,-199.1 943.58,-195.93 943.81,-202.93"/>
</g>
<!-- Node122 -->
<g id="node50" class="node">
<title>Node122</title>
<g id="a_node50"><a xlink:href="../../da/d42/process_8h.html" target="_top" xlink:title=" ">
<polygon fill="white" stroke="#666666" points="527.5,-690 412.5,-690 412.5,-671 527.5,-671 527.5,-690"/>
<text text-anchor="middle" x="470" y="-678" font-family="Helvetica,sans-Serif" font-size="10.00">processes/process.h</text>
</a>
</g>
</g>
<!-- Node121&#45;&gt;Node122 -->
<g id="edge181" class="edge">
<title>Node121&#45;&gt;Node122</title>
<path fill="none" stroke="#63b8ff" d="M256.55,-731.05C300.46,-720.86 372.33,-704.17 420.38,-693.02"/>
<polygon fill="#63b8ff" stroke="#63b8ff" points="421.03,-696.46 429.98,-690.79 419.45,-689.64 421.03,-696.46"/>
</g>
<!-- Node122&#45;&gt;Node6 -->
<g id="edge182" class="edge">
<title>Node122&#45;&gt;Node6</title>
<path fill="none" stroke="#63b8ff" d="M466.74,-670.55C448.28,-618.17 362.54,-349.86 501,-242 535.27,-215.3 817.54,-203.29 944.06,-199.21"/>
<polygon fill="#63b8ff" stroke="#63b8ff" points="944.04,-202.72 953.92,-198.9 943.82,-195.72 944.04,-202.72"/>
</g>
<!-- Node122&#45;&gt;Node99 -->
<g id="edge183" class="edge">
<title>Node122&#45;&gt;Node99</title>
<path fill="none" stroke="#63b8ff" d="M482.76,-670.62C495.83,-661.51 516.41,-647.18 532.1,-636.25"/>
<polygon fill="#63b8ff" stroke="#63b8ff" points="533.67,-639.42 539.88,-630.83 529.67,-633.68 533.67,-639.42"/>
</g>
<!-- Node122&#45;&gt;Node115 -->
<g id="edge184" class="edge">
<title>Node122&#45;&gt;Node115</title>
<path fill="none" stroke="#63b8ff" d="M527.9,-675.77C681.4,-665.9 1099.79,-638.97 1286.68,-626.94"/>
<polygon fill="#63b8ff" stroke="#63b8ff" points="1286.85,-630.44 1296.6,-626.3 1286.4,-623.45 1286.85,-630.44"/>
</g>
</g>
</svg>
