<?xml version="1.0" encoding="UTF-8" standalone="no"?>
<!DOCTYPE svg PUBLIC "-//W3C//DTD SVG 1.1//EN"
 "http://www.w3.org/Graphics/SVG/1.1/DTD/svg11.dtd">
<!-- Generated by graphviz version 7.1.0 (0)
 -->
<!-- Title: /software/kratos/doxygen/applications/StatisticsApplication/custom_python/add_custom_methods_to_python.cpp Pages: 1 -->
<!--zoomable 423 -->
<svg id="main" version="1.1" xmlns="http://www.w3.org/2000/svg" xmlns:xlink="http://www.w3.org/1999/xlink" xml:space="preserve" onload="init(evt)">
<style type="text/css"><![CDATA[
.edge:hover path { stroke: red; }
.edge:hover polygon { stroke: red; fill: red; }
]]></style>
<script type="text/javascript"><![CDATA[
var edges = document.getElementsByTagName('g');
if (edges && edges.length) {
  for (var i=0;i<edges.length;i++) {
    if (edges[i].id.substr(0,4)=='edge') {
      edges[i].setAttribute('class','edge');
    }
  }
}
]]></script>
        <defs>
                <circle id="rim" cx="0" cy="0" r="7"/>
                <circle id="rim2" cx="0" cy="0" r="3.5"/>
                <g id="zoomPlus">
                        <use xlink:href="#rim" fill="#404040">
                                <set attributeName="fill" to="#808080" begin="zoomplus.mouseover" end="zoomplus.mouseout"/>
                        </use>
                        <path d="M-4,0h8M0,-4v8" fill="none" stroke="white" stroke-width="1.5" pointer-events="none"/>
                </g>
                <g id="zoomMin">
                        <use xlink:href="#rim" fill="#404040">
                                <set attributeName="fill" to="#808080" begin="zoomminus.mouseover" end="zoomminus.mouseout"/>
                        </use>
                        <path d="M-4,0h8" fill="none" stroke="white" stroke-width="1.5" pointer-events="none"/>
                </g>
                <g id="dirArrow">
                        <path fill="none" stroke="white" stroke-width="1.5" d="M0,-3.0v7 M-2.5,-0.5L0,-3.0L2.5,-0.5"/>
                </g>
               <g id="resetDef">
                       <use xlink:href="#rim2" fill="#404040">
                               <set attributeName="fill" to="#808080" begin="reset.mouseover" end="reset.mouseout"/>
                       </use>
               </g>
        </defs>

<script type="text/javascript">
var viewWidth = 959;
var viewHeight = 423;
var sectionId = 'dynsection-0';
</script>
<script xlink:href="../../svgpan.js"/>
<svg id="graph" class="graph">
<g id="viewport">
<title>/software/kratos/doxygen/applications/StatisticsApplication/custom_python/add_custom_methods_to_python.cpp</title>
<!-- Node1 -->
<g id="node1" class="node">
<title>Node1</title>
<g id="a_node1"><a xlink:title=" ">
<polygon fill="#999999" stroke="#666666" points="389,-415 184,-415 184,-363 389,-363 389,-415"/>
<text text-anchor="start" x="192" y="-403" font-family="Helvetica,sans-Serif" font-size="10.00">/software/kratos/doxygen</text>
<text text-anchor="start" x="192" y="-392" font-family="Helvetica,sans-Serif" font-size="10.00">/applications/StatisticsApplication</text>
<text text-anchor="start" x="192" y="-381" font-family="Helvetica,sans-Serif" font-size="10.00">/custom_python/add_custom_methods</text>
<text text-anchor="middle" x="286.5" y="-370" font-family="Helvetica,sans-Serif" font-size="10.00">_to_python.cpp</text>
</a>
</g>
</g>
<!-- Node2 -->
<g id="node2" class="node">
<title>Node2</title>
<g id="a_node2"><a xlink:title=" ">
<polygon fill="#e0e0e0" stroke="#999999" points="162,-206 43,-206 43,-187 162,-187 162,-206"/>
<text text-anchor="middle" x="102.5" y="-194" font-family="Helvetica,sans-Serif" font-size="10.00">pybind11/pybind11.h</text>
</a>
</g>
</g>
<!-- Node1&#45;&gt;Node2 -->
<g id="edge1" class="edge">
<title>Node1&#45;&gt;Node2</title>
<path fill="none" stroke="#63b8ff" d="M183.68,-378.06C151.49,-369.53 119.26,-354.22 99.5,-327 76.02,-294.64 86.6,-244.78 95.25,-217.32"/>
<polygon fill="#63b8ff" stroke="#63b8ff" points="98.56,-218.46 98.48,-207.86 91.94,-216.2 98.56,-218.46"/>
</g>
<!-- Node3 -->
<g id="node3" class="node">
<title>Node3</title>
<g id="a_node3"><a xlink:href="../../df/d09/add__custom__spatial__methods__to__python_8h.html" target="_top" xlink:title=" ">
<polygon fill="white" stroke="#666666" points="274.5,-327 108.5,-327 108.5,-297 274.5,-297 274.5,-327"/>
<text text-anchor="start" x="116.5" y="-315" font-family="Helvetica,sans-Serif" font-size="10.00">custom_python/add_custom</text>
<text text-anchor="middle" x="191.5" y="-304" font-family="Helvetica,sans-Serif" font-size="10.00">_spatial_methods_to_python.h</text>
</a>
</g>
</g>
<!-- Node1&#45;&gt;Node3 -->
<g id="edge2" class="edge">
<title>Node1&#45;&gt;Node3</title>
<path fill="none" stroke="#63b8ff" d="M254.34,-362.61C242.73,-353.45 229.76,-343.2 218.62,-334.41"/>
<polygon fill="#63b8ff" stroke="#63b8ff" points="220.98,-331.81 210.96,-328.37 216.64,-337.31 220.98,-331.81"/>
</g>
<!-- Node21 -->
<g id="node21" class="node">
<title>Node21</title>
<g id="a_node21"><a xlink:href="../../dc/d1e/add__custom__temporal__methods__to__python_8h.html" target="_top" xlink:title=" ">
<polygon fill="white" stroke="#666666" points="470,-327 293,-327 293,-297 470,-297 470,-327"/>
<text text-anchor="start" x="301" y="-315" font-family="Helvetica,sans-Serif" font-size="10.00">custom_python/add_custom</text>
<text text-anchor="middle" x="381.5" y="-304" font-family="Helvetica,sans-Serif" font-size="10.00">_temporal_methods_to_python.h</text>
</a>
</g>
</g>
<!-- Node1&#45;&gt;Node21 -->
<g id="edge31" class="edge">
<title>Node1&#45;&gt;Node21</title>
<path fill="none" stroke="#63b8ff" d="M318.66,-362.61C330.27,-353.45 343.24,-343.2 354.38,-334.41"/>
<polygon fill="#63b8ff" stroke="#63b8ff" points="356.36,-337.31 362.04,-328.37 352.02,-331.81 356.36,-337.31"/>
</g>
<!-- Node22 -->
<g id="node22" class="node">
<title>Node22</title>
<g id="a_node22"><a xlink:href="../../db/d2f/add__custom__methods__to__python_8h.html" target="_top" xlink:title=" ">
<polygon fill="white" stroke="#666666" points="642.5,-327 488.5,-327 488.5,-297 642.5,-297 642.5,-327"/>
<text text-anchor="start" x="496.5" y="-315" font-family="Helvetica,sans-Serif" font-size="10.00">custom_python/add_custom</text>
<text text-anchor="middle" x="565.5" y="-304" font-family="Helvetica,sans-Serif" font-size="10.00">_methods_to_python.h</text>
</a>
</g>
</g>
<!-- Node1&#45;&gt;Node22 -->
<g id="edge33" class="edge">
<title>Node1&#45;&gt;Node22</title>
<path fill="none" stroke="#63b8ff" d="M381.35,-362.5C420.72,-351.92 465.39,-339.91 500.88,-330.37"/>
<polygon fill="#63b8ff" stroke="#63b8ff" points="501.37,-333.86 510.12,-327.89 499.55,-327.1 501.37,-333.86"/>
</g>
<!-- Node4 -->
<g id="node4" class="node">
<title>Node4</title>
<g id="a_node4"><a xlink:href="../../dd/d62/define__python_8h.html" target="_top" xlink:title=" ">
<polygon fill="white" stroke="#666666" points="447.5,-261 309.5,-261 309.5,-242 447.5,-242 447.5,-261"/>
<text text-anchor="middle" x="378.5" y="-249" font-family="Helvetica,sans-Serif" font-size="10.00">includes/define_python.h</text>
</a>
</g>
</g>
<!-- Node3&#45;&gt;Node4 -->
<g id="edge3" class="edge">
<title>Node3&#45;&gt;Node4</title>
<path fill="none" stroke="#63b8ff" d="M237.72,-296.54C268.89,-286.79 309.57,-274.06 339.18,-264.8"/>
<polygon fill="#63b8ff" stroke="#63b8ff" points="340,-268.21 348.5,-261.88 337.91,-261.53 340,-268.21"/>
</g>
<!-- Node4&#45;&gt;Node2 -->
<g id="edge5" class="edge">
<title>Node4&#45;&gt;Node2</title>
<path fill="none" stroke="#63b8ff" d="M331.68,-241.51C284.35,-232.42 211.13,-218.36 160.23,-208.59"/>
<polygon fill="#63b8ff" stroke="#63b8ff" points="161.05,-205.18 150.57,-206.73 159.73,-212.05 161.05,-205.18"/>
</g>
<!-- Node5 -->
<g id="node5" class="node">
<title>Node5</title>
<g id="a_node5"><a xlink:title=" ">
<polygon fill="#e0e0e0" stroke="#999999" points="773.5,-96 649.5,-96 649.5,-66 773.5,-66 773.5,-96"/>
<text text-anchor="start" x="657.5" y="-84" font-family="Helvetica,sans-Serif" font-size="10.00">intrusive_ptr/intrusive</text>
<text text-anchor="middle" x="711.5" y="-73" font-family="Helvetica,sans-Serif" font-size="10.00">_ptr.hpp</text>
</a>
</g>
</g>
<!-- Node4&#45;&gt;Node5 -->
<g id="edge4" class="edge">
<title>Node4&#45;&gt;Node5</title>
<path fill="none" stroke="#63b8ff" d="M377.89,-241.91C377.43,-228.47 378.57,-202.41 392.5,-187 425.62,-150.35 554.68,-116.21 638.14,-97.32"/>
<polygon fill="#63b8ff" stroke="#63b8ff" points="638.88,-100.74 647.87,-95.14 637.35,-93.91 638.88,-100.74"/>
</g>
<!-- Node6 -->
<g id="node6" class="node">
<title>Node6</title>
<g id="a_node6"><a xlink:title=" ">
<polygon fill="#e0e0e0" stroke="#999999" points="487.5,-206 401.5,-206 401.5,-187 487.5,-187 487.5,-206"/>
<text text-anchor="middle" x="444.5" y="-194" font-family="Helvetica,sans-Serif" font-size="10.00">pybind11/stl.h</text>
</a>
</g>
</g>
<!-- Node4&#45;&gt;Node6 -->
<g id="edge6" class="edge">
<title>Node4&#45;&gt;Node6</title>
<path fill="none" stroke="#63b8ff" d="M389.7,-241.51C399.24,-233.85 413.17,-222.66 424.61,-213.47"/>
<polygon fill="#63b8ff" stroke="#63b8ff" points="426.68,-216.3 432.29,-207.31 422.3,-210.84 426.68,-216.3"/>
</g>
<!-- Node7 -->
<g id="node7" class="node">
<title>Node7</title>
<g id="a_node7"><a xlink:title=" ">
<polygon fill="#e0e0e0" stroke="#999999" points="645.5,-206 505.5,-206 505.5,-187 645.5,-187 645.5,-206"/>
<text text-anchor="middle" x="575.5" y="-194" font-family="Helvetica,sans-Serif" font-size="10.00">pybind11/stl/filesystem.h</text>
</a>
</g>
</g>
<!-- Node4&#45;&gt;Node7 -->
<g id="edge7" class="edge">
<title>Node4&#45;&gt;Node7</title>
<path fill="none" stroke="#63b8ff" d="M411.92,-241.51C444.85,-232.65 495.34,-219.07 531.52,-209.33"/>
<polygon fill="#63b8ff" stroke="#63b8ff" points="532.04,-212.82 540.79,-206.84 530.22,-206.06 532.04,-212.82"/>
</g>
<!-- Node8 -->
<g id="node8" class="node">
<title>Node8</title>
<g id="a_node8"><a xlink:href="../../df/d67/define_8h.html" target="_top" xlink:title=" ">
<polygon fill="white" stroke="#666666" points="290,-206 191,-206 191,-187 290,-187 290,-206"/>
<text text-anchor="middle" x="240.5" y="-194" font-family="Helvetica,sans-Serif" font-size="10.00">includes/define.h</text>
</a>
</g>
</g>
<!-- Node4&#45;&gt;Node8 -->
<g id="edge8" class="edge">
<title>Node4&#45;&gt;Node8</title>
<path fill="none" stroke="#63b8ff" d="M355.09,-241.51C332.85,-232.97 299.17,-220.03 274.08,-210.4"/>
<polygon fill="#63b8ff" stroke="#63b8ff" points="275.57,-207.22 264.98,-206.9 273.06,-213.75 275.57,-207.22"/>
</g>
<!-- Node9 -->
<g id="node9" class="node">
<title>Node9</title>
<g id="a_node9"><a xlink:title=" ">
<polygon fill="#e0e0e0" stroke="#999999" points="65,-90.5 0,-90.5 0,-71.5 65,-71.5 65,-90.5"/>
<text text-anchor="middle" x="32.5" y="-78.5" font-family="Helvetica,sans-Serif" font-size="10.00">stdexcept</text>
</a>
</g>
</g>
<!-- Node8&#45;&gt;Node9 -->
<g id="edge9" class="edge">
<title>Node8&#45;&gt;Node9</title>
<path fill="none" stroke="#63b8ff" d="M194.8,-186.54C154.01,-177.9 97.95,-164.21 79.5,-151 61.67,-138.24 48.5,-116.46 40.71,-100.78"/>
<polygon fill="#63b8ff" stroke="#63b8ff" points="44.03,-99.62 36.64,-92.03 37.68,-102.58 44.03,-99.62"/>
</g>
<!-- Node10 -->
<g id="node10" class="node">
<title>Node10</title>
<g id="a_node10"><a xlink:title=" ">
<polygon fill="#e0e0e0" stroke="#999999" points="177.5,-90.5 121.5,-90.5 121.5,-71.5 177.5,-71.5 177.5,-90.5"/>
<text text-anchor="middle" x="149.5" y="-78.5" font-family="Helvetica,sans-Serif" font-size="10.00">sstream</text>
</a>
</g>
</g>
<!-- Node8&#45;&gt;Node10 -->
<g id="edge10" class="edge">
<title>Node8&#45;&gt;Node10</title>
<path fill="none" stroke="#63b8ff" d="M221.64,-186.61C207.24,-178.97 187.83,-166.71 175.5,-151 164.14,-136.52 157.34,-116.55 153.56,-101.81"/>
<polygon fill="#63b8ff" stroke="#63b8ff" points="157.04,-101.35 151.4,-92.38 150.22,-102.91 157.04,-101.35"/>
</g>
<!-- Node11 -->
<g id="node11" class="node">
<title>Node11</title>
<g id="a_node11"><a xlink:href="../../dc/d25/kratos__export__api_8h.html" target="_top" xlink:title=" ">
<polygon fill="white" stroke="#666666" points="269.5,-30 141.5,-30 141.5,0 269.5,0 269.5,-30"/>
<text text-anchor="start" x="149.5" y="-18" font-family="Helvetica,sans-Serif" font-size="10.00">includes/kratos_export</text>
<text text-anchor="middle" x="205.5" y="-7" font-family="Helvetica,sans-Serif" font-size="10.00">_api.h</text>
</a>
</g>
</g>
<!-- Node8&#45;&gt;Node11 -->
<g id="edge11" class="edge">
<title>Node8&#45;&gt;Node11</title>
<path fill="none" stroke="#63b8ff" d="M217.26,-186.6C185.41,-172.86 130.14,-143.04 112.5,-96 107.82,-83.52 105.66,-77.44 112.5,-66 120.45,-52.71 133.28,-42.74 146.9,-35.35"/>
<polygon fill="#63b8ff" stroke="#63b8ff" points="148.13,-38.65 155.55,-31.09 145.03,-32.37 148.13,-38.65"/>
</g>
<!-- Node12 -->
<g id="node12" class="node">
<title>Node12</title>
<g id="a_node12"><a xlink:href="../../d9/dc0/smart__pointers_8h.html" target="_top" xlink:title=" ">
<polygon fill="white" stroke="#666666" points="873,-151 730,-151 730,-132 873,-132 873,-151"/>
<text text-anchor="middle" x="801.5" y="-139" font-family="Helvetica,sans-Serif" font-size="10.00">includes/smart_pointers.h</text>
</a>
</g>
</g>
<!-- Node8&#45;&gt;Node12 -->
<g id="edge12" class="edge">
<title>Node8&#45;&gt;Node12</title>
<path fill="none" stroke="#63b8ff" d="M290.29,-190.8C386.79,-181.68 600.21,-161.52 718.5,-150.34"/>
<polygon fill="#63b8ff" stroke="#63b8ff" points="718.51,-153.86 728.14,-149.43 717.85,-146.89 718.51,-153.86"/>
</g>
<!-- Node16 -->
<g id="node16" class="node">
<title>Node16</title>
<g id="a_node16"><a xlink:href="../../dd/d2d/exception_8h.html" target="_top" xlink:title=" ">
<polygon fill="white" stroke="#666666" points="302,-151 185,-151 185,-132 302,-132 302,-151"/>
<text text-anchor="middle" x="243.5" y="-139" font-family="Helvetica,sans-Serif" font-size="10.00">includes/exception.h</text>
</a>
</g>
</g>
<!-- Node8&#45;&gt;Node16 -->
<g id="edge17" class="edge">
<title>Node8&#45;&gt;Node16</title>
<path fill="none" stroke="#63b8ff" d="M241,-186.75C241.36,-180.27 241.88,-171.16 242.35,-162.9"/>
<polygon fill="#63b8ff" stroke="#63b8ff" points="245.84,-163.13 242.91,-152.95 238.85,-162.74 245.84,-163.13"/>
</g>
<!-- Node12&#45;&gt;Node5 -->
<g id="edge16" class="edge">
<title>Node12&#45;&gt;Node5</title>
<path fill="none" stroke="#63b8ff" d="M787.83,-131.62C776.05,-123.96 758.59,-112.61 743.34,-102.69"/>
<polygon fill="#63b8ff" stroke="#63b8ff" points="745.28,-99.78 734.98,-97.26 741.46,-105.65 745.28,-99.78"/>
</g>
<!-- Node13 -->
<g id="node13" class="node">
<title>Node13</title>
<g id="a_node13"><a xlink:title=" ">
<polygon fill="#e0e0e0" stroke="#999999" points="605.5,-24.5 545.5,-24.5 545.5,-5.5 605.5,-5.5 605.5,-24.5"/>
<text text-anchor="middle" x="575.5" y="-12.5" font-family="Helvetica,sans-Serif" font-size="10.00">iostream</text>
</a>
</g>
</g>
<!-- Node12&#45;&gt;Node13 -->
<g id="edge13" class="edge">
<title>Node12&#45;&gt;Node13</title>
<path fill="none" stroke="#63b8ff" d="M801.96,-131.75C802.27,-116.23 800.55,-83.82 782.5,-66 759.4,-43.19 670.58,-28.15 617.08,-20.95"/>
<polygon fill="#63b8ff" stroke="#63b8ff" points="617.78,-17.51 607.41,-19.69 616.88,-24.45 617.78,-17.51"/>
</g>
<!-- Node14 -->
<g id="node14" class="node">
<title>Node14</title>
<g id="a_node14"><a xlink:title=" ">
<polygon fill="#e0e0e0" stroke="#999999" points="951,-90.5 906,-90.5 906,-71.5 951,-71.5 951,-90.5"/>
<text text-anchor="middle" x="928.5" y="-78.5" font-family="Helvetica,sans-Serif" font-size="10.00">utility</text>
</a>
</g>
</g>
<!-- Node12&#45;&gt;Node14 -->
<g id="edge14" class="edge">
<title>Node12&#45;&gt;Node14</title>
<path fill="none" stroke="#63b8ff" d="M820.79,-131.62C841.49,-122.08 874.63,-106.81 898.69,-95.73"/>
<polygon fill="#63b8ff" stroke="#63b8ff" points="900.04,-98.96 907.66,-91.6 897.11,-92.61 900.04,-98.96"/>
</g>
<!-- Node15 -->
<g id="node15" class="node">
<title>Node15</title>
<g id="a_node15"><a xlink:title=" ">
<polygon fill="#e0e0e0" stroke="#999999" points="887.5,-90.5 829.5,-90.5 829.5,-71.5 887.5,-71.5 887.5,-90.5"/>
<text text-anchor="middle" x="858.5" y="-78.5" font-family="Helvetica,sans-Serif" font-size="10.00">memory</text>
</a>
</g>
</g>
<!-- Node12&#45;&gt;Node15 -->
<g id="edge15" class="edge">
<title>Node12&#45;&gt;Node15</title>
<path fill="none" stroke="#63b8ff" d="M809.91,-131.87C818.41,-123.14 831.77,-109.43 842.33,-98.59"/>
<polygon fill="#63b8ff" stroke="#63b8ff" points="844.53,-101.36 849,-91.75 839.51,-96.47 844.53,-101.36"/>
</g>
<!-- Node16&#45;&gt;Node9 -->
<g id="edge18" class="edge">
<title>Node16&#45;&gt;Node9</title>
<path fill="none" stroke="#63b8ff" d="M211.45,-131.62C175.28,-121.59 116.24,-105.22 75.94,-94.04"/>
<polygon fill="#63b8ff" stroke="#63b8ff" points="76.88,-90.67 66.31,-91.37 75.01,-97.42 76.88,-90.67"/>
</g>
<!-- Node16&#45;&gt;Node10 -->
<g id="edge21" class="edge">
<title>Node16&#45;&gt;Node10</title>
<path fill="none" stroke="#63b8ff" d="M229.22,-131.62C214.45,-122.42 191.13,-107.91 173.51,-96.94"/>
<polygon fill="#63b8ff" stroke="#63b8ff" points="175.54,-94.08 165.2,-91.77 171.84,-100.02 175.54,-94.08"/>
</g>
<!-- Node16&#45;&gt;Node11 -->
<g id="edge23" class="edge">
<title>Node16&#45;&gt;Node11</title>
<path fill="none" stroke="#63b8ff" d="M240.68,-131.65C237.82,-122.67 233.31,-108.39 229.5,-96 223.9,-77.78 217.72,-57.17 213.04,-41.43"/>
<polygon fill="#63b8ff" stroke="#63b8ff" points="216.41,-40.51 210.21,-31.92 209.7,-42.5 216.41,-40.51"/>
</g>
<!-- Node16&#45;&gt;Node13 -->
<g id="edge20" class="edge">
<title>Node16&#45;&gt;Node13</title>
<path fill="none" stroke="#63b8ff" d="M302.38,-135.24C401.68,-126.07 592.67,-107.12 602.5,-96 618.14,-78.3 603.39,-51.18 590.31,-33.52"/>
<polygon fill="#63b8ff" stroke="#63b8ff" points="593.31,-31.66 584.36,-25.98 587.81,-36 593.31,-31.66"/>
</g>
<!-- Node17 -->
<g id="node17" class="node">
<title>Node17</title>
<g id="a_node17"><a xlink:title=" ">
<polygon fill="#e0e0e0" stroke="#999999" points="347.5,-24.5 303.5,-24.5 303.5,-5.5 347.5,-5.5 347.5,-24.5"/>
<text text-anchor="middle" x="325.5" y="-12.5" font-family="Helvetica,sans-Serif" font-size="10.00">string</text>
</a>
</g>
</g>
<!-- Node16&#45;&gt;Node17 -->
<g id="edge19" class="edge">
<title>Node16&#45;&gt;Node17</title>
<path fill="none" stroke="#63b8ff" d="M243.96,-131.51C245.09,-116.72 249,-86.84 262.5,-66 271.82,-51.62 286.68,-39.53 299.63,-30.85"/>
<polygon fill="#63b8ff" stroke="#63b8ff" points="301.18,-34.01 307.76,-25.7 297.43,-28.1 301.18,-34.01"/>
</g>
<!-- Node18 -->
<g id="node18" class="node">
<title>Node18</title>
<g id="a_node18"><a xlink:title=" ">
<polygon fill="#e0e0e0" stroke="#999999" points="471,-24.5 424,-24.5 424,-5.5 471,-5.5 471,-24.5"/>
<text text-anchor="middle" x="447.5" y="-12.5" font-family="Helvetica,sans-Serif" font-size="10.00">vector</text>
</a>
</g>
</g>
<!-- Node16&#45;&gt;Node18 -->
<g id="edge22" class="edge">
<title>Node16&#45;&gt;Node18</title>
<path fill="none" stroke="#63b8ff" d="M302.39,-139.16C339.84,-135.31 387.02,-124.52 418.5,-96 435.5,-80.6 442.55,-54.46 445.46,-36.26"/>
<polygon fill="#63b8ff" stroke="#63b8ff" points="448.92,-36.79 446.72,-26.43 441.98,-35.91 448.92,-36.79"/>
</g>
<!-- Node19 -->
<g id="node19" class="node">
<title>Node19</title>
<g id="a_node19"><a xlink:href="../../da/da6/code__location_8h.html" target="_top" xlink:title=" ">
<polygon fill="white" stroke="#666666" points="409,-90.5 272,-90.5 272,-71.5 409,-71.5 409,-90.5"/>
<text text-anchor="middle" x="340.5" y="-78.5" font-family="Helvetica,sans-Serif" font-size="10.00">includes/code_location.h</text>
</a>
</g>
</g>
<!-- Node16&#45;&gt;Node19 -->
<g id="edge24" class="edge">
<title>Node16&#45;&gt;Node19</title>
<path fill="none" stroke="#63b8ff" d="M258.23,-131.62C273.54,-122.38 297.77,-107.77 315.97,-96.79"/>
<polygon fill="#63b8ff" stroke="#63b8ff" points="317.58,-99.91 324.33,-91.75 313.96,-93.92 317.58,-99.91"/>
</g>
<!-- Node20 -->
<g id="node20" class="node">
<title>Node20</title>
<g id="a_node20"><a xlink:href="../../d9/d06/stl__vector__io_8h.html" target="_top" xlink:title=" ">
<polygon fill="white" stroke="#666666" points="593.5,-90.5 465.5,-90.5 465.5,-71.5 593.5,-71.5 593.5,-90.5"/>
<text text-anchor="middle" x="529.5" y="-78.5" font-family="Helvetica,sans-Serif" font-size="10.00">utilities/stl_vector_io.h</text>
</a>
</g>
</g>
<!-- Node16&#45;&gt;Node20 -->
<g id="edge28" class="edge">
<title>Node16&#45;&gt;Node20</title>
<path fill="none" stroke="#63b8ff" d="M287.25,-131.55C337.5,-121.27 420.03,-104.39 474.56,-93.24"/>
<polygon fill="#63b8ff" stroke="#63b8ff" points="475.18,-96.68 484.27,-91.25 473.77,-89.83 475.18,-96.68"/>
</g>
<!-- Node19&#45;&gt;Node11 -->
<g id="edge27" class="edge">
<title>Node19&#45;&gt;Node11</title>
<path fill="none" stroke="#63b8ff" d="M321.73,-71.1C302.33,-61.9 271.43,-47.26 246.37,-35.38"/>
<polygon fill="#63b8ff" stroke="#63b8ff" points="247.94,-32.25 237.41,-31.13 244.94,-38.57 247.94,-32.25"/>
</g>
<!-- Node19&#45;&gt;Node13 -->
<g id="edge26" class="edge">
<title>Node19&#45;&gt;Node13</title>
<path fill="none" stroke="#63b8ff" d="M373.18,-71.1C415.26,-59.64 488.44,-39.71 534.3,-27.22"/>
<polygon fill="#63b8ff" stroke="#63b8ff" points="535.14,-30.62 543.87,-24.61 533.31,-23.86 535.14,-30.62"/>
</g>
<!-- Node19&#45;&gt;Node17 -->
<g id="edge25" class="edge">
<title>Node19&#45;&gt;Node17</title>
<path fill="none" stroke="#63b8ff" d="M338.41,-71.1C336.29,-62.03 332.92,-47.64 330.15,-35.85"/>
<polygon fill="#63b8ff" stroke="#63b8ff" points="333.6,-35.23 327.91,-26.3 326.79,-36.83 333.6,-35.23"/>
</g>
<!-- Node20&#45;&gt;Node13 -->
<g id="edge29" class="edge">
<title>Node20&#45;&gt;Node13</title>
<path fill="none" stroke="#63b8ff" d="M535.9,-71.1C542.76,-61.55 553.85,-46.11 562.56,-34.01"/>
<polygon fill="#63b8ff" stroke="#63b8ff" points="565.28,-36.22 568.27,-26.05 559.6,-32.13 565.28,-36.22"/>
</g>
<!-- Node20&#45;&gt;Node18 -->
<g id="edge30" class="edge">
<title>Node20&#45;&gt;Node18</title>
<path fill="none" stroke="#63b8ff" d="M518.1,-71.1C505.12,-60.98 483.68,-44.24 467.83,-31.87"/>
<polygon fill="#63b8ff" stroke="#63b8ff" points="470.03,-29.15 460,-25.75 465.73,-34.67 470.03,-29.15"/>
</g>
<!-- Node21&#45;&gt;Node4 -->
<g id="edge32" class="edge">
<title>Node21&#45;&gt;Node4</title>
<path fill="none" stroke="#63b8ff" d="M380.76,-296.54C380.38,-289.26 379.93,-280.31 379.52,-272.39"/>
<polygon fill="#63b8ff" stroke="#63b8ff" points="383.03,-272.49 379.02,-262.69 376.04,-272.85 383.03,-272.49"/>
</g>
<!-- Node22&#45;&gt;Node4 -->
<g id="edge34" class="edge">
<title>Node22&#45;&gt;Node4</title>
<path fill="none" stroke="#63b8ff" d="M519.28,-296.54C488.11,-286.79 447.43,-274.06 417.82,-264.8"/>
<polygon fill="#63b8ff" stroke="#63b8ff" points="419.09,-261.53 408.5,-261.88 417,-268.21 419.09,-261.53"/>
</g>
</g>
</svg>
        <g id="navigator" transform="translate(0 0)" fill="#404254">
                <rect fill="#f2f5e9" fill-opacity="0.5" stroke="#606060" stroke-width=".5" x="0" y="0" width="60" height="60"/>
                <use id="zoomplus" xlink:href="#zoomPlus" x="17" y="9" onmousedown="handleZoom(evt,'in')"/>
                <use id="zoomminus" xlink:href="#zoomMin" x="42" y="9" onmousedown="handleZoom(evt,'out')"/>
                <use id="reset" xlink:href="#resetDef" x="30" y="36" onmousedown="handleReset()"/>
                <g id="arrowUp" xlink:href="#dirArrow" transform="translate(30 24)" onmousedown="handlePan(0,-1)">
                  <use xlink:href="#rim" fill="#404040">
                        <set attributeName="fill" to="#808080" begin="arrowUp.mouseover" end="arrowUp.mouseout"/>
                  </use>
                  <path fill="none" stroke="white" stroke-width="1.5" d="M0,-3.0v7 M-2.5,-0.5L0,-3.0L2.5,-0.5"/>
                </g>
                <g id="arrowRight" xlink:href="#dirArrow" transform="rotate(90) translate(36 -43)" onmousedown="handlePan(1,0)">
                  <use xlink:href="#rim" fill="#404040">
                        <set attributeName="fill" to="#808080" begin="arrowRight.mouseover" end="arrowRight.mouseout"/>
                  </use>
                  <path fill="none" stroke="white" stroke-width="1.5" d="M0,-3.0v7 M-2.5,-0.5L0,-3.0L2.5,-0.5"/>
                </g>
                <g id="arrowDown" xlink:href="#dirArrow" transform="rotate(180) translate(-30 -48)" onmousedown="handlePan(0,1)">
                  <use xlink:href="#rim" fill="#404040">
                        <set attributeName="fill" to="#808080" begin="arrowDown.mouseover" end="arrowDown.mouseout"/>
                  </use>
                  <path fill="none" stroke="white" stroke-width="1.5" d="M0,-3.0v7 M-2.5,-0.5L0,-3.0L2.5,-0.5"/>
                </g>
                <g id="arrowLeft" xlink:href="#dirArrow" transform="rotate(270) translate(-36 17)" onmousedown="handlePan(-1,0)">
                  <use xlink:href="#rim" fill="#404040">
                        <set attributeName="fill" to="#808080" begin="arrowLeft.mouseover" end="arrowLeft.mouseout"/>
                  </use>
                  <path fill="none" stroke="white" stroke-width="1.5" d="M0,-3.0v7 M-2.5,-0.5L0,-3.0L2.5,-0.5"/>
                </g>
        </g>
        <svg viewBox="0 0 15 15" width="100%" height="30px" preserveAspectRatio="xMaxYMin meet">
         <g id="arrow_out" transform="scale(0.3 0.3)">
          <a xlink:href="add__custom__methods__to__python_8cpp__incl_org.svg" target="_base">
           <rect id="button" ry="5" rx="5" y="6" x="6" height="38" width="38"
                fill="#f2f5e9" fill-opacity="0.5" stroke="#606060" stroke-width="1.0"/>
           <path id="arrow"
             d="M 11.500037,31.436501 C 11.940474,20.09759 22.043105,11.32322 32.158766,21.979434 L 37.068811,17.246167 C 37.068811,17.246167 37.088388,32 37.088388,32 L 22.160133,31.978069 C 22.160133,31.978069 26.997745,27.140456 26.997745,27.140456 C 18.528582,18.264221 13.291696,25.230495 11.500037,31.436501 z"
             style="fill:#404040;"/>
          </a>
         </g>
        </svg>
</svg>
