<?xml version="1.0" encoding="UTF-8" standalone="no"?>
<!DOCTYPE svg PUBLIC "-//W3C//DTD SVG 1.1//EN"
 "http://www.w3.org/Graphics/SVG/1.1/DTD/svg11.dtd">
<!-- Generated by graphviz version 7.1.0 (0)
 -->
<!-- Title: /software/kratos/doxygen/applications/MappingApplication/custom_utilities/projection_utilities.h Pages: 1 -->
<svg width="818pt" height="313pt"
 viewBox="0.00 0.00 817.50 313.00" xmlns="http://www.w3.org/2000/svg" xmlns:xlink="http://www.w3.org/1999/xlink">
<g id="graph0" class="graph" transform="scale(1 1) rotate(0) translate(4 309)">
<title>/software/kratos/doxygen/applications/MappingApplication/custom_utilities/projection_utilities.h</title>
<!-- Node1 -->
<g id="node1" class="node">
<title>Node1</title>
<g id="a_node1"><a xlink:title=" ">
<polygon fill="#999999" stroke="#666666" points="581.5,-305 402.5,-305 402.5,-253 581.5,-253 581.5,-305"/>
<text text-anchor="start" x="410.5" y="-293" font-family="Helvetica,sans-Serif" font-size="10.00">/software/kratos/doxygen</text>
<text text-anchor="start" x="410.5" y="-282" font-family="Helvetica,sans-Serif" font-size="10.00">/applications/MappingApplication</text>
<text text-anchor="start" x="410.5" y="-271" font-family="Helvetica,sans-Serif" font-size="10.00">/custom_utilities/projection</text>
<text text-anchor="middle" x="492" y="-260" font-family="Helvetica,sans-Serif" font-size="10.00">_utilities.h</text>
</a>
</g>
</g>
<!-- Node2 -->
<g id="node2" class="node">
<title>Node2</title>
<g id="a_node2"><a xlink:href="../../d6/d70/barycentric__mapper_8h.html" target="_top" xlink:title=" ">
<polygon fill="white" stroke="#666666" points="354,-211.5 142,-211.5 142,-170.5 354,-170.5 354,-211.5"/>
<text text-anchor="start" x="150" y="-199.5" font-family="Helvetica,sans-Serif" font-size="10.00">/software/kratos/doxygen</text>
<text text-anchor="start" x="150" y="-188.5" font-family="Helvetica,sans-Serif" font-size="10.00">/applications/MappingApplication</text>
<text text-anchor="middle" x="248" y="-177.5" font-family="Helvetica,sans-Serif" font-size="10.00">/custom_mappers/barycentric_mapper.h</text>
</a>
</g>
</g>
<!-- Node1&#45;&gt;Node2 -->
<g id="edge1" class="edge">
<title>Node1&#45;&gt;Node2</title>
<path fill="none" stroke="#63b8ff" d="M409.25,-248.83C374.78,-236.68 335.63,-222.89 304.54,-211.93"/>
<polygon fill="#63b8ff" stroke="#63b8ff" points="407.76,-252.02 418.35,-252.04 410.09,-245.42 407.76,-252.02"/>
</g>
<!-- Node6 -->
<g id="node6" class="node">
<title>Node6</title>
<g id="a_node6"><a xlink:href="../../d7/dba/nearest__element__mapper_8h.html" target="_top" xlink:title=" ">
<polygon fill="white" stroke="#666666" points="612,-211.5 372,-211.5 372,-170.5 612,-170.5 612,-211.5"/>
<text text-anchor="start" x="380" y="-199.5" font-family="Helvetica,sans-Serif" font-size="10.00">/software/kratos/doxygen</text>
<text text-anchor="start" x="380" y="-188.5" font-family="Helvetica,sans-Serif" font-size="10.00">/applications/MappingApplication</text>
<text text-anchor="middle" x="492" y="-177.5" font-family="Helvetica,sans-Serif" font-size="10.00">/custom_mappers/nearest_element_mapper.h</text>
</a>
</g>
</g>
<!-- Node1&#45;&gt;Node6 -->
<g id="edge6" class="edge">
<title>Node1&#45;&gt;Node6</title>
<path fill="none" stroke="#63b8ff" d="M492,-241.23C492,-231.19 492,-220.69 492,-211.98"/>
<polygon fill="#63b8ff" stroke="#63b8ff" points="488.5,-241.15 492,-251.15 495.5,-241.15 488.5,-241.15"/>
</g>
<!-- Node8 -->
<g id="node8" class="node">
<title>Node8</title>
<g id="a_node8"><a xlink:href="../../d9/d6a/projection__utilities_8cpp.html" target="_top" xlink:title=" ">
<polygon fill="white" stroke="#666666" points="809.5,-217 630.5,-217 630.5,-165 809.5,-165 809.5,-217"/>
<text text-anchor="start" x="638.5" y="-205" font-family="Helvetica,sans-Serif" font-size="10.00">/software/kratos/doxygen</text>
<text text-anchor="start" x="638.5" y="-194" font-family="Helvetica,sans-Serif" font-size="10.00">/applications/MappingApplication</text>
<text text-anchor="start" x="638.5" y="-183" font-family="Helvetica,sans-Serif" font-size="10.00">/custom_utilities/projection</text>
<text text-anchor="middle" x="720" y="-172" font-family="Helvetica,sans-Serif" font-size="10.00">_utilities.cpp</text>
</a>
</g>
</g>
<!-- Node1&#45;&gt;Node8 -->
<g id="edge10" class="edge">
<title>Node1&#45;&gt;Node8</title>
<path fill="none" stroke="#63b8ff" d="M570.01,-248.57C596.89,-238.44 626.74,-227.18 652.69,-217.39"/>
<polygon fill="#63b8ff" stroke="#63b8ff" points="569.02,-245.21 560.9,-252.01 571.49,-251.76 569.02,-245.21"/>
</g>
<!-- Node3 -->
<g id="node3" class="node">
<title>Node3</title>
<g id="a_node3"><a xlink:href="../../db/dbe/barycentric__mapper_8cpp.html" target="_top" xlink:title=" ">
<polygon fill="white" stroke="#666666" points="224,-123.5 0,-123.5 0,-82.5 224,-82.5 224,-123.5"/>
<text text-anchor="start" x="8" y="-111.5" font-family="Helvetica,sans-Serif" font-size="10.00">/software/kratos/doxygen</text>
<text text-anchor="start" x="8" y="-100.5" font-family="Helvetica,sans-Serif" font-size="10.00">/applications/MappingApplication</text>
<text text-anchor="middle" x="112" y="-89.5" font-family="Helvetica,sans-Serif" font-size="10.00">/custom_mappers/barycentric_mapper.cpp</text>
</a>
</g>
</g>
<!-- Node2&#45;&gt;Node3 -->
<g id="edge2" class="edge">
<title>Node2&#45;&gt;Node3</title>
<path fill="none" stroke="#63b8ff" d="M206.8,-163.95C186.42,-151.06 162.22,-135.76 143.37,-123.84"/>
<polygon fill="#63b8ff" stroke="#63b8ff" points="204.86,-166.86 215.18,-169.24 208.6,-160.94 204.86,-166.86"/>
</g>
<!-- Node4 -->
<g id="node4" class="node">
<title>Node4</title>
<g id="a_node4"><a xlink:href="../../dc/df5/projection__3_d__2_d__mapper_8h.html" target="_top" xlink:title=" ">
<polygon fill="white" stroke="#666666" points="459.5,-129 280.5,-129 280.5,-77 459.5,-77 459.5,-129"/>
<text text-anchor="start" x="288.5" y="-117" font-family="Helvetica,sans-Serif" font-size="10.00">/software/kratos/doxygen</text>
<text text-anchor="start" x="288.5" y="-106" font-family="Helvetica,sans-Serif" font-size="10.00">/applications/MappingApplication</text>
<text text-anchor="start" x="288.5" y="-95" font-family="Helvetica,sans-Serif" font-size="10.00">/custom_mappers/projection_3D</text>
<text text-anchor="middle" x="370" y="-84" font-family="Helvetica,sans-Serif" font-size="10.00">_2D_mapper.h</text>
</a>
</g>
</g>
<!-- Node2&#45;&gt;Node4 -->
<g id="edge3" class="edge">
<title>Node2&#45;&gt;Node4</title>
<path fill="none" stroke="#63b8ff" d="M285.54,-163.53C300.95,-152.67 318.72,-140.15 333.97,-129.4"/>
<polygon fill="#63b8ff" stroke="#63b8ff" points="283.69,-160.56 277.53,-169.18 287.72,-166.28 283.69,-160.56"/>
</g>
<!-- Node5 -->
<g id="node5" class="node">
<title>Node5</title>
<g id="a_node5"><a xlink:href="../../da/d85/mapping__application_8cpp.html" target="_top" xlink:title=" ">
<polygon fill="white" stroke="#666666" points="459.5,-41 280.5,-41 280.5,0 459.5,0 459.5,-41"/>
<text text-anchor="start" x="288.5" y="-29" font-family="Helvetica,sans-Serif" font-size="10.00">/software/kratos/doxygen</text>
<text text-anchor="start" x="288.5" y="-18" font-family="Helvetica,sans-Serif" font-size="10.00">/applications/MappingApplication</text>
<text text-anchor="middle" x="370" y="-7" font-family="Helvetica,sans-Serif" font-size="10.00">/mapping_application.cpp</text>
</a>
</g>
</g>
<!-- Node2&#45;&gt;Node5 -->
<g id="edge5" class="edge">
<title>Node2&#45;&gt;Node5</title>
<path fill="none" stroke="#63b8ff" d="M247.54,-158.56C248.69,-134.18 253.74,-100.66 271,-77 282.21,-61.64 299.03,-49.97 315.65,-41.4"/>
<polygon fill="#63b8ff" stroke="#63b8ff" points="244.04,-158.45 247.29,-168.53 251.04,-158.63 244.04,-158.45"/>
</g>
<!-- Node4&#45;&gt;Node5 -->
<g id="edge4" class="edge">
<title>Node4&#45;&gt;Node5</title>
<path fill="none" stroke="#63b8ff" d="M370,-65.23C370,-57.04 370,-48.66 370,-41.45"/>
<polygon fill="#63b8ff" stroke="#63b8ff" points="366.5,-65.02 370,-75.02 373.5,-65.02 366.5,-65.02"/>
</g>
<!-- Node6&#45;&gt;Node4 -->
<g id="edge8" class="edge">
<title>Node6&#45;&gt;Node4</title>
<path fill="none" stroke="#63b8ff" d="M454.46,-163.53C439.05,-152.67 421.28,-140.15 406.03,-129.4"/>
<polygon fill="#63b8ff" stroke="#63b8ff" points="452.28,-166.28 462.47,-169.18 456.31,-160.56 452.28,-166.28"/>
</g>
<!-- Node6&#45;&gt;Node5 -->
<g id="edge9" class="edge">
<title>Node6&#45;&gt;Node5</title>
<path fill="none" stroke="#63b8ff" d="M492.11,-158.56C490.7,-134.18 485.34,-100.66 468,-77 456.79,-61.7 440,-50.03 423.48,-41.43"/>
<polygon fill="#63b8ff" stroke="#63b8ff" points="488.61,-158.67 492.47,-168.54 495.61,-158.42 488.61,-158.67"/>
</g>
<!-- Node7 -->
<g id="node7" class="node">
<title>Node7</title>
<g id="a_node7"><a xlink:href="../../d4/d8d/nearest__element__mapper_8cpp.html" target="_top" xlink:title=" ">
<polygon fill="white" stroke="#666666" points="705.5,-129 516.5,-129 516.5,-77 705.5,-77 705.5,-129"/>
<text text-anchor="start" x="524.5" y="-117" font-family="Helvetica,sans-Serif" font-size="10.00">/software/kratos/doxygen</text>
<text text-anchor="start" x="524.5" y="-106" font-family="Helvetica,sans-Serif" font-size="10.00">/applications/MappingApplication</text>
<text text-anchor="start" x="524.5" y="-95" font-family="Helvetica,sans-Serif" font-size="10.00">/custom_mappers/nearest_element</text>
<text text-anchor="middle" x="611" y="-84" font-family="Helvetica,sans-Serif" font-size="10.00">_mapper.cpp</text>
</a>
</g>
</g>
<!-- Node6&#45;&gt;Node7 -->
<g id="edge7" class="edge">
<title>Node6&#45;&gt;Node7</title>
<path fill="none" stroke="#63b8ff" d="M528.62,-163.53C543.65,-152.67 560.98,-140.15 575.86,-129.4"/>
<polygon fill="#63b8ff" stroke="#63b8ff" points="526.88,-160.47 520.83,-169.17 530.98,-166.15 526.88,-160.47"/>
</g>
</g>
</svg>
