<?xml version="1.0" encoding="UTF-8" standalone="no"?>
<!DOCTYPE svg PUBLIC "-//W3C//DTD SVG 1.1//EN"
 "http://www.w3.org/Graphics/SVG/1.1/DTD/svg11.dtd">
<!-- Generated by graphviz version 2.43.0 (0)
 -->
<!-- Title: /home/runner/work/Documentation/Documentation/master/applications/ShallowWaterApplication/custom_friction_laws/friction_law.h Pages: 1 -->
<svg width="3835pt" height="765pt"
 viewBox="0.00 0.00 3835.00 765.00" xmlns="http://www.w3.org/2000/svg" xmlns:xlink="http://www.w3.org/1999/xlink">
<g id="graph0" class="graph" transform="scale(1 1) rotate(0) translate(4 761)">
<title>/home/runner/work/Documentation/Documentation/master/applications/ShallowWaterApplication/custom_friction_laws/friction_law.h</title>
<!-- Node1 -->
<g id="node1" class="node">
<title>Node1</title>
<g id="a_node1"><a xlink:title=" ">
<polygon fill="#bfbfbf" stroke="black" points="2481,-704.5 2481,-756.5 2675,-756.5 2675,-704.5 2481,-704.5"/>
<text text-anchor="start" x="2489" y="-744.5" font-family="Helvetica,sans-Serif" font-size="10.00">/home/runner/work/Documentation</text>
<text text-anchor="start" x="2489" y="-733.5" font-family="Helvetica,sans-Serif" font-size="10.00">/Documentation/master/applications</text>
<text text-anchor="start" x="2489" y="-722.5" font-family="Helvetica,sans-Serif" font-size="10.00">/ShallowWaterApplication/custom</text>
<text text-anchor="middle" x="2578" y="-711.5" font-family="Helvetica,sans-Serif" font-size="10.00">_friction_laws/friction_law.h</text>
</a>
</g>
</g>
<!-- Node2 -->
<g id="node2" class="node">
<title>Node2</title>
<g id="a_node2"><a xlink:title=" ">
<polygon fill="none" stroke="#bfbfbf" points="3425,-6 3425,-25 3469,-25 3469,-6 3425,-6"/>
<text text-anchor="middle" x="3447" y="-13" font-family="Helvetica,sans-Serif" font-size="10.00">string</text>
</a>
</g>
</g>
<!-- Node1&#45;&gt;Node2 -->
<g id="edge1" class="edge">
<title>Node1&#45;&gt;Node2</title>
<path fill="none" stroke="midnightblue" d="M2675.23,-729.39C2968.93,-727.78 3827,-713.17 3827,-597.5 3827,-597.5 3827,-597.5 3827,-132 3827,-91.46 3799.04,-85.57 3763,-67 3713.79,-41.64 3549.73,-25.16 3479.43,-19.11"/>
<polygon fill="midnightblue" stroke="midnightblue" points="3479.63,-15.61 3469.37,-18.25 3479.04,-22.58 3479.63,-15.61"/>
</g>
<!-- Node3 -->
<g id="node3" class="node">
<title>Node3</title>
<g id="a_node3"><a xlink:title=" ">
<polygon fill="none" stroke="#bfbfbf" points="1248,-6 1248,-25 1308,-25 1308,-6 1248,-6"/>
<text text-anchor="middle" x="1278" y="-13" font-family="Helvetica,sans-Serif" font-size="10.00">iostream</text>
</a>
</g>
</g>
<!-- Node1&#45;&gt;Node3 -->
<g id="edge2" class="edge">
<title>Node1&#45;&gt;Node3</title>
<path fill="none" stroke="midnightblue" d="M2480.88,-729.41C2027.26,-728.38 139,-716.9 139,-597.5 139,-597.5 139,-597.5 139,-394.5 139,-234.91 236.06,-203.26 374,-123 439.12,-85.11 460.19,-82.13 534,-67 670.45,-39.02 1103.14,-22.4 1237.68,-17.81"/>
<polygon fill="midnightblue" stroke="midnightblue" points="1238.06,-21.3 1247.94,-17.46 1237.83,-14.3 1238.06,-21.3"/>
</g>
<!-- Node4 -->
<g id="node4" class="node">
<title>Node4</title>
<g id="a_node4"><a xlink:href="../../d1/d77/node_8h.html" target="_top" xlink:title=" ">
<polygon fill="none" stroke="black" points="1536.5,-520 1536.5,-539 1629.5,-539 1629.5,-520 1536.5,-520"/>
<text text-anchor="middle" x="1583" y="-527" font-family="Helvetica,sans-Serif" font-size="10.00">includes/node.h</text>
</a>
</g>
</g>
<!-- Node1&#45;&gt;Node4 -->
<g id="edge3" class="edge">
<title>Node1&#45;&gt;Node4</title>
<path fill="none" stroke="midnightblue" d="M2480.83,-730.02C2316.62,-727.93 1976.01,-710.76 1709,-612 1666.75,-596.37 1624.09,-564.68 1600.85,-545.74"/>
<polygon fill="midnightblue" stroke="midnightblue" points="1602.87,-542.87 1592.94,-539.18 1598.4,-548.26 1602.87,-542.87"/>
</g>
<!-- Node95 -->
<g id="node40" class="node">
<title>Node95</title>
<g id="a_node40"><a xlink:href="../../d8/dbb/properties_8h.html" target="_top" xlink:title=" ">
<polygon fill="none" stroke="black" points="2121.5,-587 2121.5,-606 2240.5,-606 2240.5,-587 2121.5,-587"/>
<text text-anchor="middle" x="2181" y="-594" font-family="Helvetica,sans-Serif" font-size="10.00">includes/properties.h</text>
</a>
</g>
</g>
<!-- Node1&#45;&gt;Node95 -->
<g id="edge125" class="edge">
<title>Node1&#45;&gt;Node95</title>
<path fill="none" stroke="midnightblue" d="M2502.39,-704.36C2416.55,-675.82 2280.14,-630.46 2216.22,-609.21"/>
<polygon fill="midnightblue" stroke="midnightblue" points="2217.2,-605.85 2206.61,-606.01 2214.99,-612.49 2217.2,-605.85"/>
</g>
<!-- Node96 -->
<g id="node42" class="node">
<title>Node96</title>
<g id="a_node42"><a xlink:href="../../de/db8/process__info_8h.html" target="_top" xlink:title=" ">
<polygon fill="none" stroke="black" points="2425.5,-386 2425.5,-405 2556.5,-405 2556.5,-386 2425.5,-386"/>
<text text-anchor="middle" x="2491" y="-393" font-family="Helvetica,sans-Serif" font-size="10.00">includes/process_info.h</text>
</a>
</g>
</g>
<!-- Node1&#45;&gt;Node96 -->
<g id="edge151" class="edge">
<title>Node1&#45;&gt;Node96</title>
<path fill="none" stroke="midnightblue" d="M2629.42,-704.32C2666.85,-682 2711,-645.48 2711,-597.5 2711,-597.5 2711,-597.5 2711,-528.5 2711,-455.52 2620.89,-421.89 2556.01,-407.13"/>
<polygon fill="midnightblue" stroke="midnightblue" points="2556.75,-403.71 2546.23,-405 2555.26,-410.55 2556.75,-403.71"/>
</g>
<!-- Node98 -->
<g id="node44" class="node">
<title>Node98</title>
<g id="a_node44"><a xlink:href="../../d4/d67/geometry_8h.html" target="_top" xlink:title=" ">
<polygon fill="none" stroke="black" points="2904,-648.5 2904,-667.5 3034,-667.5 3034,-648.5 2904,-648.5"/>
<text text-anchor="middle" x="2969" y="-655.5" font-family="Helvetica,sans-Serif" font-size="10.00">geometries/geometry.h</text>
</a>
</g>
</g>
<!-- Node1&#45;&gt;Node98 -->
<g id="edge152" class="edge">
<title>Node1&#45;&gt;Node98</title>
<path fill="none" stroke="midnightblue" d="M2675.15,-711.98C2749.6,-698.56 2849.78,-680.5 2911.83,-669.31"/>
<polygon fill="midnightblue" stroke="midnightblue" points="2912.61,-672.72 2921.83,-667.5 2911.37,-665.83 2912.61,-672.72"/>
</g>
<!-- Node4&#45;&gt;Node2 -->
<g id="edge4" class="edge">
<title>Node4&#45;&gt;Node2</title>
<path fill="none" stroke="midnightblue" d="M1629.77,-528.27C1838.65,-526.99 2687.39,-519.33 2950,-478 3108.31,-453.09 3142.54,-422.69 3297,-380 3506.93,-321.98 3751,-413.3 3751,-195.5 3751,-195.5 3751,-195.5 3751,-132 3751,-96.86 3735.41,-86.22 3706,-67 3668.92,-42.76 3540.06,-26.33 3479.25,-19.74"/>
<polygon fill="midnightblue" stroke="midnightblue" points="3479.38,-16.23 3469.06,-18.66 3478.64,-23.19 3479.38,-16.23"/>
</g>
<!-- Node4&#45;&gt;Node3 -->
<g id="edge5" class="edge">
<title>Node4&#45;&gt;Node3</title>
<path fill="none" stroke="midnightblue" d="M1536.49,-527.95C1335.28,-525.37 545.11,-513.06 440,-478 389.95,-461.31 366.62,-457.66 342,-411 328.09,-384.65 361.24,-314.34 362,-313 446.99,-162.58 500.23,-124.94 663,-67 769.54,-29.07 1118.65,-19.36 1237.76,-17.12"/>
<polygon fill="midnightblue" stroke="midnightblue" points="1237.97,-20.61 1247.9,-16.93 1237.84,-13.61 1237.97,-20.61"/>
</g>
<!-- Node5 -->
<g id="node5" class="node">
<title>Node5</title>
<g id="a_node5"><a xlink:title=" ">
<polygon fill="none" stroke="#bfbfbf" points="559,-6 559,-25 615,-25 615,-6 559,-6"/>
<text text-anchor="middle" x="587" y="-13" font-family="Helvetica,sans-Serif" font-size="10.00">sstream</text>
</a>
</g>
</g>
<!-- Node4&#45;&gt;Node5 -->
<g id="edge6" class="edge">
<title>Node4&#45;&gt;Node5</title>
<path fill="none" stroke="midnightblue" d="M1536.39,-527.8C1319.48,-524.4 417.13,-508.44 366,-478 266.25,-418.61 211.16,-356.74 246,-246 275.12,-153.44 290.67,-121.42 371,-67 425.28,-30.23 502.89,-20.03 548.79,-17.32"/>
<polygon fill="midnightblue" stroke="midnightblue" points="549.1,-20.81 558.92,-16.82 548.76,-13.82 549.1,-20.81"/>
</g>
<!-- Node6 -->
<g id="node6" class="node">
<title>Node6</title>
<g id="a_node6"><a xlink:title=" ">
<polygon fill="none" stroke="#bfbfbf" points="921.5,-252 921.5,-271 974.5,-271 974.5,-252 921.5,-252"/>
<text text-anchor="middle" x="948" y="-259" font-family="Helvetica,sans-Serif" font-size="10.00">cstddef</text>
</a>
</g>
</g>
<!-- Node4&#45;&gt;Node6 -->
<g id="edge7" class="edge">
<title>Node4&#45;&gt;Node6</title>
<path fill="none" stroke="midnightblue" d="M1536.46,-525.49C1447.31,-519.22 1255.87,-503.22 1195,-478 1087.24,-433.35 993.7,-322.06 960.69,-279.46"/>
<polygon fill="midnightblue" stroke="midnightblue" points="963.27,-277.07 954.42,-271.24 957.7,-281.32 963.27,-277.07"/>
</g>
<!-- Node7 -->
<g id="node7" class="node">
<title>Node7</title>
<g id="a_node7"><a xlink:title=" ">
<polygon fill="none" stroke="#bfbfbf" points="509,-185 509,-204 559,-204 559,-185 509,-185"/>
<text text-anchor="middle" x="534" y="-192" font-family="Helvetica,sans-Serif" font-size="10.00">atomic</text>
</a>
</g>
</g>
<!-- Node4&#45;&gt;Node7 -->
<g id="edge8" class="edge">
<title>Node4&#45;&gt;Node7</title>
<path fill="none" stroke="midnightblue" d="M1536.41,-527.73C1321.46,-523.68 432.67,-501.53 353,-411 326.21,-380.56 381.9,-323.81 391,-313 427.56,-269.55 481.79,-230.1 511.87,-209.83"/>
<polygon fill="midnightblue" stroke="midnightblue" points="513.99,-212.62 520.38,-204.17 510.12,-206.79 513.99,-212.62"/>
</g>
<!-- Node8 -->
<g id="node8" class="node">
<title>Node8</title>
<g id="a_node8"><a xlink:href="../../df/d67/define_8h.html" target="_top" xlink:title=" ">
<polygon fill="none" stroke="black" points="2047.5,-123.5 2047.5,-142.5 2146.5,-142.5 2146.5,-123.5 2047.5,-123.5"/>
<text text-anchor="middle" x="2097" y="-130.5" font-family="Helvetica,sans-Serif" font-size="10.00">includes/define.h</text>
</a>
</g>
</g>
<!-- Node4&#45;&gt;Node8 -->
<g id="edge9" class="edge">
<title>Node4&#45;&gt;Node8</title>
<path fill="none" stroke="midnightblue" d="M1601.88,-519.96C1637.06,-503.28 1713.5,-463.37 1762,-411 1842.02,-324.6 1795.57,-249.36 1890,-179 1932.41,-147.4 1992.49,-137.1 2037,-134.15"/>
<polygon fill="midnightblue" stroke="midnightblue" points="2037.32,-137.63 2047.11,-133.58 2036.93,-130.65 2037.32,-137.63"/>
</g>
<!-- Node14 -->
<g id="node13" class="node">
<title>Node14</title>
<g id="a_node13"><a xlink:title=" ">
<polygon fill="none" stroke="#bfbfbf" points="0,-0.5 0,-30.5 124,-30.5 124,-0.5 0,-0.5"/>
<text text-anchor="start" x="8" y="-18.5" font-family="Helvetica,sans-Serif" font-size="10.00">intrusive_ptr/intrusive</text>
<text text-anchor="middle" x="62" y="-7.5" font-family="Helvetica,sans-Serif" font-size="10.00">_ptr.hpp</text>
</a>
</g>
</g>
<!-- Node4&#45;&gt;Node14 -->
<g id="edge108" class="edge">
<title>Node4&#45;&gt;Node14</title>
<path fill="none" stroke="midnightblue" d="M1536.37,-528.7C1321.07,-529.35 428.8,-528.92 316,-478 288.87,-465.75 159.82,-335.62 128,-277 84.73,-197.31 69.12,-88.47 64.11,-40.67"/>
<polygon fill="midnightblue" stroke="midnightblue" points="67.59,-40.27 63.13,-30.66 60.62,-40.95 67.59,-40.27"/>
</g>
<!-- Node19 -->
<g id="node16" class="node">
<title>Node19</title>
<g id="a_node16"><a xlink:href="../../da/d55/lock__object_8h.html" target="_top" xlink:title=" ">
<polygon fill="none" stroke="black" points="1829.5,-453 1829.5,-472 1954.5,-472 1954.5,-453 1829.5,-453"/>
<text text-anchor="middle" x="1892" y="-460" font-family="Helvetica,sans-Serif" font-size="10.00">includes/lock_object.h</text>
</a>
</g>
</g>
<!-- Node4&#45;&gt;Node19 -->
<g id="edge24" class="edge">
<title>Node4&#45;&gt;Node19</title>
<path fill="none" stroke="midnightblue" d="M1623.71,-519.94C1679.64,-508.17 1780.2,-487.02 1841.05,-474.22"/>
<polygon fill="midnightblue" stroke="midnightblue" points="1842.13,-477.57 1851.2,-472.08 1840.69,-470.72 1842.13,-477.57"/>
</g>
<!-- Node21 -->
<g id="node18" class="node">
<title>Node21</title>
<g id="a_node18"><a xlink:href="../../d2/d91/point_8h.html" target="_top" xlink:title=" ">
<polygon fill="none" stroke="black" points="2689.5,-386 2689.5,-405 2798.5,-405 2798.5,-386 2689.5,-386"/>
<text text-anchor="middle" x="2744" y="-393" font-family="Helvetica,sans-Serif" font-size="10.00">geometries/point.h</text>
</a>
</g>
</g>
<!-- Node4&#45;&gt;Node21 -->
<g id="edge27" class="edge">
<title>Node4&#45;&gt;Node21</title>
<path fill="none" stroke="midnightblue" d="M1629.65,-528.53C1800.43,-528.29 2391.04,-524.05 2573,-478 2629.63,-463.67 2690,-429.99 2721.65,-410.71"/>
<polygon fill="midnightblue" stroke="midnightblue" points="2723.86,-413.46 2730.52,-405.23 2720.18,-407.51 2723.86,-413.46"/>
</g>
<!-- Node55 -->
<g id="node25" class="node">
<title>Node55</title>
<g id="a_node25"><a xlink:href="../../d9/da0/flags_8h.html" target="_top" xlink:title=" ">
<polygon fill="none" stroke="black" points="2231.5,-185 2231.5,-204 2334.5,-204 2334.5,-185 2231.5,-185"/>
<text text-anchor="middle" x="2283" y="-192" font-family="Helvetica,sans-Serif" font-size="10.00">containers/flags.h</text>
</a>
</g>
</g>
<!-- Node4&#45;&gt;Node55 -->
<g id="edge107" class="edge">
<title>Node4&#45;&gt;Node55</title>
<path fill="none" stroke="midnightblue" d="M1629.57,-525.42C1777.16,-515.07 2232.43,-478.3 2362,-411 2409.5,-386.33 2455.36,-361.16 2432,-313 2425.01,-298.59 2342.71,-238.3 2303.51,-210.13"/>
<polygon fill="midnightblue" stroke="midnightblue" points="2305.14,-206.99 2294.97,-204.01 2301.06,-212.68 2305.14,-206.99"/>
</g>
<!-- Node60 -->
<g id="node26" class="node">
<title>Node60</title>
<g id="a_node26"><a xlink:href="../../d1/d4e/dof_8h.html" target="_top" xlink:title=" ">
<polygon fill="none" stroke="black" points="1541,-453 1541,-472 1625,-472 1625,-453 1541,-453"/>
<text text-anchor="middle" x="1583" y="-460" font-family="Helvetica,sans-Serif" font-size="10.00">includes/dof.h</text>
</a>
</g>
</g>
<!-- Node4&#45;&gt;Node60 -->
<g id="edge53" class="edge">
<title>Node4&#45;&gt;Node60</title>
<path fill="none" stroke="midnightblue" d="M1583,-519.73C1583,-510.18 1583,-494.62 1583,-482.28"/>
<polygon fill="midnightblue" stroke="midnightblue" points="1586.5,-482.13 1583,-472.13 1579.5,-482.13 1586.5,-482.13"/>
</g>
<!-- Node61 -->
<g id="node27" class="node">
<title>Node61</title>
<g id="a_node27"><a xlink:href="../../d1/d82/data__value__container_8h.html" target="_top" xlink:title=" ">
<polygon fill="none" stroke="black" points="2622.5,-313.5 2622.5,-343.5 2747.5,-343.5 2747.5,-313.5 2622.5,-313.5"/>
<text text-anchor="start" x="2630.5" y="-331.5" font-family="Helvetica,sans-Serif" font-size="10.00">containers/data_value</text>
<text text-anchor="middle" x="2685" y="-320.5" font-family="Helvetica,sans-Serif" font-size="10.00">_container.h</text>
</a>
</g>
</g>
<!-- Node4&#45;&gt;Node61 -->
<g id="edge119" class="edge">
<title>Node4&#45;&gt;Node61</title>
<path fill="none" stroke="midnightblue" d="M1629.65,-527.15C1805.27,-521.44 2425.52,-495.6 2601,-411 2629.22,-397.4 2653.92,-370.61 2669.1,-351.46"/>
<polygon fill="midnightblue" stroke="midnightblue" points="2671.88,-353.59 2675.19,-343.53 2666.33,-349.33 2671.88,-353.59"/>
</g>
<!-- Node84 -->
<g id="node31" class="node">
<title>Node84</title>
<g id="a_node31"><a xlink:href="../../db/d22/nodal__data_8h.html" target="_top" xlink:title=" ">
<polygon fill="none" stroke="black" points="1154,-386 1154,-405 1288,-405 1288,-386 1154,-386"/>
<text text-anchor="middle" x="1221" y="-393" font-family="Helvetica,sans-Serif" font-size="10.00">containers/nodal_data.h</text>
</a>
</g>
</g>
<!-- Node4&#45;&gt;Node84 -->
<g id="edge120" class="edge">
<title>Node4&#45;&gt;Node84</title>
<path fill="none" stroke="midnightblue" d="M1536.3,-525.64C1440.2,-519.27 1227.47,-502.54 1206,-478 1190.65,-460.46 1200.74,-432.48 1210.21,-414.3"/>
<polygon fill="midnightblue" stroke="midnightblue" points="1213.4,-415.77 1215.25,-405.34 1207.3,-412.34 1213.4,-415.77"/>
</g>
<!-- Node85 -->
<g id="node32" class="node">
<title>Node85</title>
<g id="a_node32"><a xlink:href="../../d4/d52/variables__list__data__value__container_8h.html" target="_top" xlink:title=" ">
<polygon fill="none" stroke="black" points="1377.5,-313.5 1377.5,-343.5 1532.5,-343.5 1532.5,-313.5 1377.5,-313.5"/>
<text text-anchor="start" x="1385.5" y="-331.5" font-family="Helvetica,sans-Serif" font-size="10.00">containers/variables</text>
<text text-anchor="middle" x="1455" y="-320.5" font-family="Helvetica,sans-Serif" font-size="10.00">_list_data_value_container.h</text>
</a>
</g>
</g>
<!-- Node4&#45;&gt;Node85 -->
<g id="edge106" class="edge">
<title>Node4&#45;&gt;Node85</title>
<path fill="none" stroke="midnightblue" d="M1561.14,-519.9C1525.14,-504.38 1454.5,-467.93 1426,-411 1416.47,-391.96 1426.38,-369.02 1437.13,-352.33"/>
<polygon fill="midnightblue" stroke="midnightblue" points="1440.25,-353.98 1443.07,-343.77 1434.5,-349.99 1440.25,-353.98"/>
</g>
<!-- Node88 -->
<g id="node35" class="node">
<title>Node88</title>
<g id="a_node35"><a xlink:href="../../d4/d35/pointer__vector__set_8h.html" target="_top" xlink:title=" ">
<polygon fill="none" stroke="black" points="685.5,-380.5 685.5,-410.5 790.5,-410.5 790.5,-380.5 685.5,-380.5"/>
<text text-anchor="start" x="693.5" y="-398.5" font-family="Helvetica,sans-Serif" font-size="10.00">containers/pointer</text>
<text text-anchor="middle" x="738" y="-387.5" font-family="Helvetica,sans-Serif" font-size="10.00">_vector_set.h</text>
</a>
</g>
</g>
<!-- Node4&#45;&gt;Node88 -->
<g id="edge95" class="edge">
<title>Node4&#45;&gt;Node88</title>
<path fill="none" stroke="midnightblue" d="M1536.22,-528.04C1435.77,-526.27 1192.35,-517.86 993,-478 917.59,-462.92 833.13,-433.28 782.82,-414.21"/>
<polygon fill="midnightblue" stroke="midnightblue" points="783.82,-410.84 773.23,-410.54 781.32,-417.38 783.82,-410.84"/>
</g>
<!-- Node90 -->
<g id="node37" class="node">
<title>Node90</title>
<g id="a_node37"><a xlink:href="../../de/d44/global__pointers__vector_8h.html" target="_top" xlink:title=" ">
<polygon fill="none" stroke="black" points="1215,-447.5 1215,-477.5 1361,-477.5 1361,-447.5 1215,-447.5"/>
<text text-anchor="start" x="1223" y="-465.5" font-family="Helvetica,sans-Serif" font-size="10.00">containers/global_pointers</text>
<text text-anchor="middle" x="1288" y="-454.5" font-family="Helvetica,sans-Serif" font-size="10.00">_vector.h</text>
</a>
</g>
</g>
<!-- Node4&#45;&gt;Node90 -->
<g id="edge109" class="edge">
<title>Node4&#45;&gt;Node90</title>
<path fill="none" stroke="midnightblue" d="M1544.13,-519.94C1497.84,-509.74 1419.51,-492.48 1361.64,-479.72"/>
<polygon fill="midnightblue" stroke="midnightblue" points="1362.33,-476.29 1351.81,-477.56 1360.82,-483.13 1362.33,-476.29"/>
</g>
<!-- Node94 -->
<g id="node39" class="node">
<title>Node94</title>
<g id="a_node39"><a xlink:href="../../d0/dac/kratos__flags_8h.html" target="_top" xlink:title=" ">
<polygon fill="none" stroke="black" points="2295,-319 2295,-338 2423,-338 2423,-319 2295,-319"/>
<text text-anchor="middle" x="2359" y="-326" font-family="Helvetica,sans-Serif" font-size="10.00">includes/kratos_flags.h</text>
</a>
</g>
</g>
<!-- Node4&#45;&gt;Node94 -->
<g id="edge121" class="edge">
<title>Node4&#45;&gt;Node94</title>
<path fill="none" stroke="midnightblue" d="M1629.59,-525.39C1701.95,-519.88 1845.37,-506.21 1964,-478 2004.75,-468.31 2012.22,-456.55 2053,-447 2115.59,-432.35 2292.24,-454.02 2340,-411 2357.42,-395.3 2360.43,-367 2360.27,-348.23"/>
<polygon fill="midnightblue" stroke="midnightblue" points="2363.77,-348.06 2359.88,-338.21 2356.77,-348.33 2363.77,-348.06"/>
</g>
<!-- Node8&#45;&gt;Node5 -->
<g id="edge11" class="edge">
<title>Node8&#45;&gt;Node5</title>
<path fill="none" stroke="midnightblue" d="M2047.19,-128.19C1813.84,-110.34 831.45,-35.2 625.12,-19.42"/>
<polygon fill="midnightblue" stroke="midnightblue" points="625.31,-15.92 615.07,-18.65 624.77,-22.9 625.31,-15.92"/>
</g>
<!-- Node9 -->
<g id="node9" class="node">
<title>Node9</title>
<g id="a_node9"><a xlink:title=" ">
<polygon fill="none" stroke="#bfbfbf" points="2675.5,-6 2675.5,-25 2740.5,-25 2740.5,-6 2675.5,-6"/>
<text text-anchor="middle" x="2708" y="-13" font-family="Helvetica,sans-Serif" font-size="10.00">stdexcept</text>
</a>
</g>
</g>
<!-- Node8&#45;&gt;Node9 -->
<g id="edge10" class="edge">
<title>Node8&#45;&gt;Node9</title>
<path fill="none" stroke="midnightblue" d="M2146.6,-130.31C2292.64,-125.11 2712.11,-108.35 2732,-87 2745.85,-72.13 2733.65,-48.95 2722.17,-33.27"/>
<polygon fill="midnightblue" stroke="midnightblue" points="2724.62,-30.72 2715.69,-25.02 2719.11,-35.04 2724.62,-30.72"/>
</g>
<!-- Node10 -->
<g id="node10" class="node">
<title>Node10</title>
<g id="a_node10"><a xlink:href="../../dc/d25/kratos__export__api_8h.html" target="_top" xlink:title=" ">
<polygon fill="none" stroke="black" points="2382,-0.5 2382,-30.5 2510,-30.5 2510,-0.5 2382,-0.5"/>
<text text-anchor="start" x="2390" y="-18.5" font-family="Helvetica,sans-Serif" font-size="10.00">includes/kratos_export</text>
<text text-anchor="middle" x="2446" y="-7.5" font-family="Helvetica,sans-Serif" font-size="10.00">_api.h</text>
</a>
</g>
</g>
<!-- Node8&#45;&gt;Node10 -->
<g id="edge12" class="edge">
<title>Node8&#45;&gt;Node10</title>
<path fill="none" stroke="midnightblue" d="M2122.95,-123.41C2180.09,-104.5 2317.76,-58.94 2393.64,-33.83"/>
<polygon fill="midnightblue" stroke="midnightblue" points="2395.07,-37.04 2403.47,-30.58 2392.88,-30.39 2395.07,-37.04"/>
</g>
<!-- Node11 -->
<g id="node11" class="node">
<title>Node11</title>
<g id="a_node11"><a xlink:href="../../d9/dc0/smart__pointers_8h.html" target="_top" xlink:title=" ">
<polygon fill="none" stroke="red" points="119.5,-67.5 119.5,-86.5 262.5,-86.5 262.5,-67.5 119.5,-67.5"/>
<text text-anchor="middle" x="191" y="-74.5" font-family="Helvetica,sans-Serif" font-size="10.00">includes/smart_pointers.h</text>
</a>
</g>
</g>
<!-- Node8&#45;&gt;Node11 -->
<g id="edge13" class="edge">
<title>Node8&#45;&gt;Node11</title>
<path fill="none" stroke="midnightblue" d="M2047.49,-130.6C1789.37,-123.28 597.5,-89.52 272.85,-80.32"/>
<polygon fill="midnightblue" stroke="midnightblue" points="272.68,-76.81 262.59,-80.03 272.48,-83.81 272.68,-76.81"/>
</g>
<!-- Node15 -->
<g id="node14" class="node">
<title>Node15</title>
<g id="a_node14"><a xlink:href="../../dd/d2d/exception_8h.html" target="_top" xlink:title=" ">
<polygon fill="none" stroke="red" points="2605.5,-67.5 2605.5,-86.5 2722.5,-86.5 2722.5,-67.5 2605.5,-67.5"/>
<text text-anchor="middle" x="2664" y="-74.5" font-family="Helvetica,sans-Serif" font-size="10.00">includes/exception.h</text>
</a>
</g>
</g>
<!-- Node8&#45;&gt;Node15 -->
<g id="edge17" class="edge">
<title>Node8&#45;&gt;Node15</title>
<path fill="none" stroke="midnightblue" d="M2146.82,-127.26C2248.34,-117.59 2479.3,-95.59 2595.11,-84.56"/>
<polygon fill="midnightblue" stroke="midnightblue" points="2595.65,-88.03 2605.27,-83.59 2594.99,-81.06 2595.65,-88.03"/>
</g>
<!-- Node11&#45;&gt;Node3 -->
<g id="edge14" class="edge">
<title>Node11&#45;&gt;Node3</title>
<path fill="none" stroke="midnightblue" d="M262.78,-70.54C279.89,-69.31 298.09,-68.06 315,-67 672.5,-44.65 1105.09,-24.39 1237.54,-18.33"/>
<polygon fill="midnightblue" stroke="midnightblue" points="1237.8,-21.82 1247.63,-17.87 1237.48,-14.83 1237.8,-21.82"/>
</g>
<!-- Node12 -->
<g id="node12" class="node">
<title>Node12</title>
<g id="a_node12"><a xlink:title=" ">
<polygon fill="none" stroke="#bfbfbf" points="159.5,-6 159.5,-25 204.5,-25 204.5,-6 159.5,-6"/>
<text text-anchor="middle" x="182" y="-13" font-family="Helvetica,sans-Serif" font-size="10.00">utility</text>
</a>
</g>
</g>
<!-- Node11&#45;&gt;Node12 -->
<g id="edge15" class="edge">
<title>Node11&#45;&gt;Node12</title>
<path fill="none" stroke="midnightblue" d="M189.71,-67.48C188.44,-59.08 186.46,-45.98 184.82,-35.16"/>
<polygon fill="midnightblue" stroke="midnightblue" points="188.24,-34.37 183.29,-25.01 181.32,-35.42 188.24,-34.37"/>
</g>
<!-- Node11&#45;&gt;Node14 -->
<g id="edge16" class="edge">
<title>Node11&#45;&gt;Node14</title>
<path fill="none" stroke="midnightblue" d="M172.52,-67.48C154.07,-58.96 125.13,-45.62 101.5,-34.72"/>
<polygon fill="midnightblue" stroke="midnightblue" points="102.95,-31.53 92.4,-30.52 100.02,-37.89 102.95,-31.53"/>
</g>
<!-- Node15&#45;&gt;Node2 -->
<g id="edge19" class="edge">
<title>Node15&#45;&gt;Node2</title>
<path fill="none" stroke="midnightblue" d="M2722.75,-71.17C2739.62,-69.8 2758.04,-68.32 2775,-67 3021.21,-47.77 3318.28,-25.92 3414.94,-18.84"/>
<polygon fill="midnightblue" stroke="midnightblue" points="3415.24,-22.33 3424.95,-18.11 3414.72,-15.35 3415.24,-22.33"/>
</g>
<!-- Node15&#45;&gt;Node3 -->
<g id="edge20" class="edge">
<title>Node15&#45;&gt;Node3</title>
<path fill="none" stroke="midnightblue" d="M2605.28,-70.73C2588.41,-69.35 2569.99,-67.98 2553,-67 2091.27,-40.3 1974.96,-53.24 1513,-31 1444.49,-27.7 1364.82,-22.5 1318.06,-19.3"/>
<polygon fill="midnightblue" stroke="midnightblue" points="1318.25,-15.81 1308.03,-18.61 1317.77,-22.79 1318.25,-15.81"/>
</g>
<!-- Node15&#45;&gt;Node5 -->
<g id="edge21" class="edge">
<title>Node15&#45;&gt;Node5</title>
<path fill="none" stroke="midnightblue" d="M2605.46,-74.32C2298.37,-65.53 877.88,-24.83 625.42,-17.6"/>
<polygon fill="midnightblue" stroke="midnightblue" points="625.37,-14.1 615.28,-17.31 625.17,-21.1 625.37,-14.1"/>
</g>
<!-- Node15&#45;&gt;Node9 -->
<g id="edge18" class="edge">
<title>Node15&#45;&gt;Node9</title>
<path fill="none" stroke="midnightblue" d="M2670.3,-67.48C2676.9,-58.55 2687.44,-44.31 2695.69,-33.14"/>
<polygon fill="midnightblue" stroke="midnightblue" points="2698.58,-35.13 2701.71,-25.01 2692.95,-30.97 2698.58,-35.13"/>
</g>
<!-- Node15&#45;&gt;Node10 -->
<g id="edge23" class="edge">
<title>Node15&#45;&gt;Node10</title>
<path fill="none" stroke="midnightblue" d="M2632.77,-67.48C2600.14,-58.57 2548.11,-44.37 2507.24,-33.22"/>
<polygon fill="midnightblue" stroke="midnightblue" points="2507.95,-29.78 2497.38,-30.52 2506.1,-36.53 2507.95,-29.78"/>
</g>
<!-- Node16 -->
<g id="node15" class="node">
<title>Node16</title>
<g id="a_node15"><a xlink:title=" ">
<polygon fill="none" stroke="#bfbfbf" points="1522.5,-6 1522.5,-25 1569.5,-25 1569.5,-6 1522.5,-6"/>
<text text-anchor="middle" x="1546" y="-13" font-family="Helvetica,sans-Serif" font-size="10.00">vector</text>
</a>
</g>
</g>
<!-- Node15&#45;&gt;Node16 -->
<g id="edge22" class="edge">
<title>Node15&#45;&gt;Node16</title>
<path fill="none" stroke="midnightblue" d="M2605.47,-68.4C2600.58,-67.88 2595.71,-67.4 2591,-67 2194.07,-32.99 1710.2,-20.19 1579.74,-17.22"/>
<polygon fill="midnightblue" stroke="midnightblue" points="1579.66,-13.72 1569.59,-16.99 1579.51,-20.71 1579.66,-13.72"/>
</g>
<!-- Node19&#45;&gt;Node8 -->
<g id="edge26" class="edge">
<title>Node19&#45;&gt;Node8</title>
<path fill="none" stroke="midnightblue" d="M1883.64,-452.7C1875.29,-443.25 1863,-427.38 1858,-411 1853.98,-397.82 1856.17,-393.66 1858,-380 1864.17,-334.1 1879.81,-211.3 1913,-179 1930.62,-161.85 1990.43,-149.38 2037.14,-141.98"/>
<polygon fill="midnightblue" stroke="midnightblue" points="2037.83,-145.41 2047.18,-140.43 2036.77,-138.49 2037.83,-145.41"/>
</g>
<!-- Node20 -->
<g id="node17" class="node">
<title>Node20</title>
<g id="a_node17"><a xlink:title=" ">
<polygon fill="none" stroke="#bfbfbf" points="1867,-386 1867,-405 1915,-405 1915,-386 1867,-386"/>
<text text-anchor="middle" x="1891" y="-393" font-family="Helvetica,sans-Serif" font-size="10.00">mutex</text>
</a>
</g>
</g>
<!-- Node19&#45;&gt;Node20 -->
<g id="edge25" class="edge">
<title>Node19&#45;&gt;Node20</title>
<path fill="none" stroke="midnightblue" d="M1891.87,-452.73C1891.72,-443.18 1891.48,-427.62 1891.29,-415.28"/>
<polygon fill="midnightblue" stroke="midnightblue" points="1894.79,-415.07 1891.13,-405.13 1887.79,-415.18 1894.79,-415.07"/>
</g>
<!-- Node21&#45;&gt;Node8 -->
<g id="edge28" class="edge">
<title>Node21&#45;&gt;Node8</title>
<path fill="none" stroke="midnightblue" d="M2689.42,-389.7C2571.71,-379.17 2303.14,-354.21 2286,-344 2240.45,-316.88 2252.8,-286 2218,-246 2202.52,-228.2 2195.59,-226.77 2179,-210 2165.94,-196.8 2164.39,-191.86 2151,-179 2139.89,-168.32 2126.61,-157.23 2115.99,-148.73"/>
<polygon fill="midnightblue" stroke="midnightblue" points="2118.16,-145.99 2108.15,-142.53 2113.82,-151.48 2118.16,-145.99"/>
</g>
<!-- Node22 -->
<g id="node19" class="node">
<title>Node22</title>
<g id="a_node19"><a xlink:href="../../d9/d36/array__1d_8h.html" target="_top" xlink:title=" ">
<polygon fill="none" stroke="red" points="3047,-252 3047,-271 3169,-271 3169,-252 3047,-252"/>
<text text-anchor="middle" x="3108" y="-259" font-family="Helvetica,sans-Serif" font-size="10.00">containers/array_1d.h</text>
</a>
</g>
</g>
<!-- Node21&#45;&gt;Node22 -->
<g id="edge29" class="edge">
<title>Node21&#45;&gt;Node22</title>
<path fill="none" stroke="midnightblue" d="M2767.6,-385.94C2830.5,-363.13 3002.26,-300.84 3074.88,-274.51"/>
<polygon fill="midnightblue" stroke="midnightblue" points="3076.24,-277.74 3084.45,-271.04 3073.86,-271.16 3076.24,-277.74"/>
</g>
<!-- Node44 -->
<g id="node21" class="node">
<title>Node44</title>
<g id="a_node21"><a xlink:href="../../dd/d5f/serializer_8h.html" target="_top" xlink:title=" ">
<polygon fill="none" stroke="red" points="1993.5,-319 1993.5,-338 2106.5,-338 2106.5,-319 1993.5,-319"/>
<text text-anchor="middle" x="2050" y="-326" font-family="Helvetica,sans-Serif" font-size="10.00">includes/serializer.h</text>
</a>
</g>
</g>
<!-- Node21&#45;&gt;Node44 -->
<g id="edge37" class="edge">
<title>Node21&#45;&gt;Node44</title>
<path fill="none" stroke="midnightblue" d="M2689.25,-389.37C2563.38,-377.58 2253.75,-348.58 2116.89,-335.77"/>
<polygon fill="midnightblue" stroke="midnightblue" points="2116.84,-332.24 2106.56,-334.8 2116.19,-339.21 2116.84,-332.24"/>
</g>
<!-- Node22&#45;&gt;Node2 -->
<g id="edge30" class="edge">
<title>Node22&#45;&gt;Node2</title>
<path fill="none" stroke="midnightblue" d="M3107.87,-251.88C3108.06,-235.81 3110.63,-200.92 3128,-179 3203.51,-83.72 3349.88,-39.17 3414.73,-23.45"/>
<polygon fill="midnightblue" stroke="midnightblue" points="3415.84,-26.79 3424.77,-21.09 3414.24,-19.97 3415.84,-26.79"/>
</g>
<!-- Node22&#45;&gt;Node3 -->
<g id="edge31" class="edge">
<title>Node22&#45;&gt;Node3</title>
<path fill="none" stroke="midnightblue" d="M3093.04,-251.77C3062.7,-234.53 2991.26,-196.3 2926,-179 2766.72,-136.78 2715.63,-187.59 2557,-143 2482.37,-122.02 2475.2,-85.86 2400,-67 2208.65,-19.02 1710.02,-41.08 1513,-31 1444.5,-27.5 1364.83,-22.36 1318.06,-19.23"/>
<polygon fill="midnightblue" stroke="midnightblue" points="1318.25,-15.73 1308.04,-18.56 1317.78,-22.72 1318.25,-15.73"/>
</g>
<!-- Node22&#45;&gt;Node8 -->
<g id="edge32" class="edge">
<title>Node22&#45;&gt;Node8</title>
<path fill="none" stroke="midnightblue" d="M3087.64,-251.91C3045.49,-234.58 2945.24,-195.66 2857,-179 2723.13,-153.73 2312.07,-139.98 2157.03,-135.58"/>
<polygon fill="midnightblue" stroke="midnightblue" points="2156.85,-132.07 2146.75,-135.29 2156.65,-139.07 2156.85,-132.07"/>
</g>
<!-- Node26 -->
<g id="node20" class="node">
<title>Node26</title>
<g id="a_node20"><a xlink:href="../../d9/d3e/ublas__interface_8h.html" target="_top" xlink:title=" ">
<polygon fill="none" stroke="red" points="3137,-185 3137,-204 3281,-204 3281,-185 3137,-185"/>
<text text-anchor="middle" x="3209" y="-192" font-family="Helvetica,sans-Serif" font-size="10.00">includes/ublas_interface.h</text>
</a>
</g>
</g>
<!-- Node22&#45;&gt;Node26 -->
<g id="edge33" class="edge">
<title>Node22&#45;&gt;Node26</title>
<path fill="none" stroke="midnightblue" d="M3121.62,-251.73C3138.43,-240.92 3167.23,-222.38 3187.14,-209.57"/>
<polygon fill="midnightblue" stroke="midnightblue" points="3189.08,-212.48 3195.59,-204.13 3185.29,-206.6 3189.08,-212.48"/>
</g>
<!-- Node26&#45;&gt;Node2 -->
<g id="edge34" class="edge">
<title>Node26&#45;&gt;Node2</title>
<path fill="none" stroke="midnightblue" d="M3220.48,-184.96C3258.33,-156.81 3379.49,-66.71 3427.32,-31.14"/>
<polygon fill="midnightblue" stroke="midnightblue" points="3429.42,-33.93 3435.36,-25.16 3425.24,-28.32 3429.42,-33.93"/>
</g>
<!-- Node26&#45;&gt;Node3 -->
<g id="edge35" class="edge">
<title>Node26&#45;&gt;Node3</title>
<path fill="none" stroke="midnightblue" d="M3140.51,-184.97C3122.47,-182.86 3103.02,-180.72 3085,-179 2870.27,-158.47 2806.29,-209.22 2601,-143 2539.48,-123.16 2538.87,-85.71 2477,-67 2374.4,-35.98 1620.05,-36.3 1513,-31 1444.49,-27.61 1364.82,-22.43 1318.06,-19.27"/>
<polygon fill="midnightblue" stroke="midnightblue" points="1318.25,-15.77 1308.03,-18.59 1317.77,-22.76 1318.25,-15.77"/>
</g>
<!-- Node26&#45;&gt;Node8 -->
<g id="edge36" class="edge">
<title>Node26&#45;&gt;Node8</title>
<path fill="none" stroke="midnightblue" d="M3136.88,-186.39C3108.84,-183.8 3076.44,-181.01 3047,-179 2710.98,-156.01 2307.3,-141.09 2157.12,-135.97"/>
<polygon fill="midnightblue" stroke="midnightblue" points="2156.86,-132.46 2146.74,-135.62 2156.62,-139.46 2156.86,-132.46"/>
</g>
<!-- Node44&#45;&gt;Node2 -->
<g id="edge38" class="edge">
<title>Node44&#45;&gt;Node2</title>
<path fill="none" stroke="midnightblue" d="M2106.72,-323.52C2154.51,-320.29 2224.7,-315.82 2286,-313 2351.24,-310 3409.31,-316.91 3461,-277 3490.89,-253.92 3485,-233.26 3485,-195.5 3485,-195.5 3485,-195.5 3485,-132 3485,-95.75 3467.91,-56.17 3456.65,-34.03"/>
<polygon fill="midnightblue" stroke="midnightblue" points="3459.73,-32.37 3451.97,-25.16 3453.54,-35.64 3459.73,-32.37"/>
</g>
<!-- Node44&#45;&gt;Node3 -->
<g id="edge41" class="edge">
<title>Node44&#45;&gt;Node3</title>
<path fill="none" stroke="midnightblue" d="M1993.29,-326.62C1848.57,-323.84 1473.98,-313.21 1432,-277 1403.83,-252.71 1413,-232.69 1413,-195.5 1413,-195.5 1413,-195.5 1413,-132 1413,-79.28 1352.83,-45.48 1312.83,-28.83"/>
<polygon fill="midnightblue" stroke="midnightblue" points="1313.98,-25.52 1303.39,-25.06 1311.38,-32.02 1313.98,-25.52"/>
</g>
<!-- Node44&#45;&gt;Node5 -->
<g id="edge40" class="edge">
<title>Node44&#45;&gt;Node5</title>
<path fill="none" stroke="midnightblue" d="M1993.36,-326.28C1857.66,-322.82 1517.24,-310.95 1409,-277 1382.96,-268.83 1381.03,-256.87 1356,-246 1086.45,-128.96 739.07,-48.99 625.07,-24.46"/>
<polygon fill="midnightblue" stroke="midnightblue" points="625.6,-20.99 615.09,-22.32 624.13,-27.84 625.6,-20.99"/>
</g>
<!-- Node44&#45;&gt;Node8 -->
<g id="edge43" class="edge">
<title>Node44&#45;&gt;Node8</title>
<path fill="none" stroke="midnightblue" d="M2047.53,-318.82C2043.64,-303.79 2037.1,-272.04 2043,-246 2051.11,-210.22 2072.25,-172.58 2085.55,-151.32"/>
<polygon fill="midnightblue" stroke="midnightblue" points="2088.58,-153.08 2091.03,-142.77 2082.69,-149.3 2088.58,-153.08"/>
</g>
<!-- Node44&#45;&gt;Node22 -->
<g id="edge52" class="edge">
<title>Node44&#45;&gt;Node22</title>
<path fill="none" stroke="midnightblue" d="M2106.73,-323.8C2154.53,-320.73 2224.72,-316.35 2286,-313 2620.11,-294.74 2706.05,-319.06 3038,-277 3045.88,-276 3054.19,-274.6 3062.23,-273.05"/>
<polygon fill="midnightblue" stroke="midnightblue" points="3063.1,-276.45 3072.21,-271.04 3061.72,-269.58 3063.1,-276.45"/>
</g>
<!-- Node47 -->
<g id="node22" class="node">
<title>Node47</title>
<g id="a_node22"><a xlink:title=" ">
<polygon fill="none" stroke="#bfbfbf" points="1297,-252 1297,-271 1347,-271 1347,-252 1297,-252"/>
<text text-anchor="middle" x="1322" y="-259" font-family="Helvetica,sans-Serif" font-size="10.00">cstring</text>
</a>
</g>
</g>
<!-- Node44&#45;&gt;Node47 -->
<g id="edge39" class="edge">
<title>Node44&#45;&gt;Node47</title>
<path fill="none" stroke="midnightblue" d="M1993.42,-325.41C1851.13,-319.83 1481.19,-303.19 1361,-277 1357.92,-276.33 1354.76,-275.47 1351.64,-274.5"/>
<polygon fill="midnightblue" stroke="midnightblue" points="1352.51,-271.1 1341.92,-271.14 1350.22,-277.71 1352.51,-271.1"/>
</g>
<!-- Node49 -->
<g id="node23" class="node">
<title>Node49</title>
<g id="a_node23"><a xlink:title=" ">
<polygon fill="none" stroke="#bfbfbf" points="2069.5,-252 2069.5,-271 2162.5,-271 2162.5,-252 2069.5,-252"/>
<text text-anchor="middle" x="2116" y="-259" font-family="Helvetica,sans-Serif" font-size="10.00">unordered_map</text>
</a>
</g>
</g>
<!-- Node44&#45;&gt;Node49 -->
<g id="edge42" class="edge">
<title>Node44&#45;&gt;Node49</title>
<path fill="none" stroke="midnightblue" d="M2058.9,-318.73C2069.39,-308.4 2087.02,-291.04 2099.92,-278.33"/>
<polygon fill="midnightblue" stroke="midnightblue" points="2102.57,-280.64 2107.24,-271.13 2097.66,-275.65 2102.57,-280.64"/>
</g>
<!-- Node51 -->
<g id="node24" class="node">
<title>Node51</title>
<g id="a_node24"><a xlink:href="../../d1/d8c/logger_8h.html" target="_top" xlink:title=" ">
<polygon fill="none" stroke="red" points="3299,-185 3299,-204 3419,-204 3419,-185 3299,-185"/>
<text text-anchor="middle" x="3359" y="-192" font-family="Helvetica,sans-Serif" font-size="10.00">input_output/logger.h</text>
</a>
</g>
</g>
<!-- Node44&#45;&gt;Node51 -->
<g id="edge44" class="edge">
<title>Node44&#45;&gt;Node51</title>
<path fill="none" stroke="midnightblue" d="M2106.72,-323.56C2154.51,-320.34 2224.7,-315.88 2286,-313 2347.3,-310.12 3347.32,-321.09 3390,-277 3407.37,-259.05 3389.47,-230.38 3374.55,-212.27"/>
<polygon fill="midnightblue" stroke="midnightblue" points="3376.84,-209.57 3367.63,-204.32 3371.56,-214.16 3376.84,-209.57"/>
</g>
<!-- Node44&#45;&gt;Node55 -->
<g id="edge48" class="edge">
<title>Node44&#45;&gt;Node55</title>
<path fill="none" stroke="midnightblue" d="M2048.25,-318.56C2045.56,-301.96 2042.5,-266.23 2061,-246 2082.26,-222.75 2163.14,-208.87 2221.14,-201.71"/>
<polygon fill="midnightblue" stroke="midnightblue" points="2221.8,-205.16 2231.32,-200.49 2220.97,-198.2 2221.8,-205.16"/>
</g>
<!-- Node51&#45;&gt;Node2 -->
<g id="edge45" class="edge">
<title>Node51&#45;&gt;Node2</title>
<path fill="none" stroke="midnightblue" d="M3363.24,-184.96C3376.8,-157.69 3419.27,-72.28 3437.98,-34.63"/>
<polygon fill="midnightblue" stroke="midnightblue" points="3441.27,-35.88 3442.59,-25.37 3435,-32.76 3441.27,-35.88"/>
</g>
<!-- Node51&#45;&gt;Node3 -->
<g id="edge46" class="edge">
<title>Node51&#45;&gt;Node3</title>
<path fill="none" stroke="midnightblue" d="M3321.52,-184.94C3311.33,-182.8 3300.27,-180.65 3290,-179 3147.38,-156.12 3110.21,-161.81 2967,-143 2802.1,-121.34 2760.34,-118.3 2597,-87 2558.46,-79.61 2549.9,-72.18 2511,-67 2071.03,-8.46 1956.31,-52.67 1513,-31 1444.49,-27.65 1364.82,-22.46 1318.06,-19.28"/>
<polygon fill="midnightblue" stroke="midnightblue" points="1318.25,-15.79 1308.03,-18.6 1317.77,-22.77 1318.25,-15.79"/>
</g>
<!-- Node51&#45;&gt;Node15 -->
<g id="edge47" class="edge">
<title>Node51&#45;&gt;Node15</title>
<path fill="none" stroke="midnightblue" d="M3319.64,-184.99C3309.96,-182.96 3299.62,-180.85 3290,-179 3148.66,-151.75 3113.12,-145.88 2971,-123 2889.26,-109.84 2795.01,-96.26 2732.74,-87.51"/>
<polygon fill="midnightblue" stroke="midnightblue" points="2733.03,-84.02 2722.64,-86.09 2732.06,-90.95 2733.03,-84.02"/>
</g>
<!-- Node55&#45;&gt;Node2 -->
<g id="edge49" class="edge">
<title>Node55&#45;&gt;Node2</title>
<path fill="none" stroke="midnightblue" d="M2333.88,-184.97C2446.98,-165.69 2716.12,-118.05 2803,-87 2820.97,-80.58 2822.68,-72.34 2841,-67 2950.24,-35.14 3305.21,-21.13 3414.61,-17.5"/>
<polygon fill="midnightblue" stroke="midnightblue" points="3414.82,-20.99 3424.7,-17.17 3414.59,-14 3414.82,-20.99"/>
</g>
<!-- Node55&#45;&gt;Node3 -->
<g id="edge50" class="edge">
<title>Node55&#45;&gt;Node3</title>
<path fill="none" stroke="midnightblue" d="M2271.12,-184.81C2249.46,-169.46 2201.58,-137.79 2156,-123 1996.25,-71.17 1468.43,-30.16 1318.21,-19.32"/>
<polygon fill="midnightblue" stroke="midnightblue" points="1318.28,-15.81 1308.06,-18.59 1317.78,-22.79 1318.28,-15.81"/>
</g>
<!-- Node55&#45;&gt;Node8 -->
<g id="edge51" class="edge">
<title>Node55&#45;&gt;Node8</title>
<path fill="none" stroke="midnightblue" d="M2256.35,-184.98C2224.03,-174.64 2169.4,-157.16 2133.27,-145.6"/>
<polygon fill="midnightblue" stroke="midnightblue" points="2134.19,-142.22 2123.6,-142.51 2132.06,-148.89 2134.19,-142.22"/>
</g>
<!-- Node60&#45;&gt;Node2 -->
<g id="edge54" class="edge">
<title>Node60&#45;&gt;Node2</title>
<path fill="none" stroke="midnightblue" d="M1625.12,-458.62C1672.67,-455.45 1752.36,-450.34 1821,-447 2259.44,-425.65 2373.02,-469.96 2808,-411 2994.94,-385.66 3034.75,-342.99 3221,-313 3312.61,-298.25 3553.58,-317.64 3637,-277 3681.53,-255.31 3713,-245.03 3713,-195.5 3713,-195.5 3713,-195.5 3713,-132 3713,-31.2 3550.29,-17.42 3479.38,-16.2"/>
<polygon fill="midnightblue" stroke="midnightblue" points="3479.25,-12.7 3469.22,-16.11 3479.19,-19.7 3479.25,-12.7"/>
</g>
<!-- Node60&#45;&gt;Node3 -->
<g id="edge55" class="edge">
<title>Node60&#45;&gt;Node3</title>
<path fill="none" stroke="midnightblue" d="M1540.98,-458.44C1498.03,-455.36 1429.38,-450.56 1370,-447 1061.69,-428.51 978.22,-474.72 676,-411 594.1,-393.73 547.5,-412.91 500,-344 492.18,-332.66 493.84,-325.33 500,-313 531.42,-250.1 691.98,-157.94 753,-123 809.02,-90.93 824.66,-83.73 887,-67 1011.97,-33.47 1165.59,-21.92 1237.4,-18.17"/>
<polygon fill="midnightblue" stroke="midnightblue" points="1237.98,-21.65 1247.8,-17.66 1237.63,-14.66 1237.98,-21.65"/>
</g>
<!-- Node60&#45;&gt;Node5 -->
<g id="edge56" class="edge">
<title>Node60&#45;&gt;Node5</title>
<path fill="none" stroke="midnightblue" d="M1540.99,-458.33C1498.04,-455.16 1429.4,-450.3 1370,-447 1276.84,-441.83 617.32,-446.42 531,-411 440.03,-373.67 367,-360.83 367,-262.5 367,-262.5 367,-262.5 367,-132 367,-101.2 368.15,-87.64 391,-67 434.72,-27.51 505.25,-18.08 548.72,-16.28"/>
<polygon fill="midnightblue" stroke="midnightblue" points="549,-19.78 558.89,-15.98 548.79,-12.78 549,-19.78"/>
</g>
<!-- Node60&#45;&gt;Node6 -->
<g id="edge57" class="edge">
<title>Node60&#45;&gt;Node6</title>
<path fill="none" stroke="midnightblue" d="M1556.85,-452.9C1506.86,-436.7 1394.05,-401.41 1297,-380 1196.82,-357.9 1164.47,-381.54 1069,-344 1063.53,-341.85 1002.42,-300 969.2,-277.13"/>
<polygon fill="midnightblue" stroke="midnightblue" points="970.86,-274.02 960.64,-271.23 966.89,-279.79 970.86,-274.02"/>
</g>
<!-- Node60&#45;&gt;Node8 -->
<g id="edge58" class="edge">
<title>Node60&#45;&gt;Node8</title>
<path fill="none" stroke="midnightblue" d="M1625.25,-457.49C1659.7,-452.15 1707.63,-439.76 1739,-411 1780.25,-373.18 1793.18,-213.81 1837,-179 1867.24,-154.98 1970.42,-143.08 2037.35,-137.76"/>
<polygon fill="midnightblue" stroke="midnightblue" points="2037.65,-141.24 2047.35,-136.99 2037.11,-134.26 2037.65,-141.24"/>
</g>
<!-- Node60&#45;&gt;Node22 -->
<g id="edge94" class="edge">
<title>Node60&#45;&gt;Node22</title>
<path fill="none" stroke="midnightblue" d="M1625.12,-458.75C1672.68,-455.68 1752.38,-450.67 1821,-447 1994.27,-437.72 2431.22,-446.82 2601,-411 2638.31,-403.13 2645.06,-392.74 2681,-380 2772.54,-347.55 2795.37,-338.82 2889,-313 2945.71,-297.36 3011.57,-282.63 3056.15,-273.16"/>
<polygon fill="midnightblue" stroke="midnightblue" points="3057.1,-276.53 3066.16,-271.04 3055.65,-269.68 3057.1,-276.53"/>
</g>
<!-- Node60&#45;&gt;Node61 -->
<g id="edge59" class="edge">
<title>Node60&#45;&gt;Node61</title>
<path fill="none" stroke="midnightblue" d="M1625.12,-458.77C1672.68,-455.73 1752.38,-450.75 1821,-447 1986.5,-437.96 2409.54,-465.72 2566,-411 2588.24,-403.22 2589.63,-393.41 2609,-380 2623.85,-369.72 2640.55,-358.58 2654.5,-349.38"/>
<polygon fill="midnightblue" stroke="midnightblue" points="2656.8,-352.06 2663.23,-343.65 2652.95,-346.21 2656.8,-352.06"/>
</g>
<!-- Node60&#45;&gt;Node84 -->
<g id="edge77" class="edge">
<title>Node60&#45;&gt;Node84</title>
<path fill="none" stroke="midnightblue" d="M1540.77,-453.92C1475.84,-442.26 1351.37,-419.91 1278.35,-406.8"/>
<polygon fill="midnightblue" stroke="midnightblue" points="1278.86,-403.33 1268.4,-405.01 1277.62,-410.22 1278.86,-403.33"/>
</g>
<!-- Node61&#45;&gt;Node2 -->
<g id="edge60" class="edge">
<title>Node61&#45;&gt;Node2</title>
<path fill="none" stroke="midnightblue" d="M2747.53,-323.58C2794.22,-320.66 2859.6,-316.57 2917,-313 2981.67,-308.98 3448.34,-317.39 3499,-277 3528.52,-253.46 3523,-233.26 3523,-195.5 3523,-195.5 3523,-195.5 3523,-132 3523,-101.2 3515.8,-92.81 3499,-67 3490.14,-53.38 3476.99,-40.66 3466.13,-31.39"/>
<polygon fill="midnightblue" stroke="midnightblue" points="3468.33,-28.66 3458.39,-25.01 3463.89,-34.07 3468.33,-28.66"/>
</g>
<!-- Node61&#45;&gt;Node3 -->
<g id="edge61" class="edge">
<title>Node61&#45;&gt;Node3</title>
<path fill="none" stroke="midnightblue" d="M2627.47,-313.45C2594.76,-304.64 2553.38,-292.1 2518,-277 2436.37,-242.17 2424.57,-216.24 2344,-179 2278.65,-148.79 2261.23,-142.76 2192,-123 2073.31,-89.13 2042.2,-84.32 1920,-67 1802.76,-50.39 1439.98,-26.69 1318.28,-19.01"/>
<polygon fill="midnightblue" stroke="midnightblue" points="1318.46,-15.51 1308.26,-18.38 1318.02,-22.5 1318.46,-15.51"/>
</g>
<!-- Node61&#45;&gt;Node6 -->
<g id="edge62" class="edge">
<title>Node61&#45;&gt;Node6</title>
<path fill="none" stroke="midnightblue" d="M2622.38,-323.46C2571.19,-320.27 2496.94,-315.88 2432,-313 1923.8,-290.44 1796.35,-295.84 1288,-277 1177.77,-272.92 1047.49,-267.08 985.02,-264.21"/>
<polygon fill="midnightblue" stroke="midnightblue" points="985.03,-260.71 974.88,-263.75 984.71,-267.7 985.03,-260.71"/>
</g>
<!-- Node61&#45;&gt;Node8 -->
<g id="edge64" class="edge">
<title>Node61&#45;&gt;Node8</title>
<path fill="none" stroke="midnightblue" d="M2704.61,-313.39C2725.04,-296.93 2752.01,-269.02 2736,-246 2709.74,-208.25 2682.03,-226.22 2639,-210 2602.93,-196.4 2595.52,-187.84 2558,-179 2416.83,-145.74 2245.76,-137.01 2156.98,-134.75"/>
<polygon fill="midnightblue" stroke="midnightblue" points="2156.91,-131.25 2146.83,-134.51 2156.75,-138.25 2156.91,-131.25"/>
</g>
<!-- Node61&#45;&gt;Node15 -->
<g id="edge76" class="edge">
<title>Node61&#45;&gt;Node15</title>
<path fill="none" stroke="midnightblue" d="M2747.66,-316.61C2770.26,-309.33 2793.5,-297.2 2807,-277 2814.66,-265.55 2809.08,-259.62 2807,-246 2802.28,-215.15 2803.4,-204.9 2786,-179 2760.1,-140.45 2715.27,-108.8 2687.76,-91.73"/>
<polygon fill="midnightblue" stroke="midnightblue" points="2689.52,-88.7 2679.15,-86.51 2685.89,-94.69 2689.52,-88.7"/>
</g>
<!-- Node61&#45;&gt;Node16 -->
<g id="edge63" class="edge">
<title>Node61&#45;&gt;Node16</title>
<path fill="none" stroke="midnightblue" d="M2714.69,-313.34C2728.74,-304.92 2744.14,-292.77 2752,-277 2758.15,-264.67 2759.34,-257.66 2752,-246 2738.85,-225.13 2466.9,-90.94 2373,-67 2219.14,-27.78 1715.6,-18.65 1579.93,-16.88"/>
<polygon fill="midnightblue" stroke="midnightblue" points="1579.78,-13.38 1569.73,-16.75 1579.69,-20.37 1579.78,-13.38"/>
</g>
<!-- Node62 -->
<g id="node28" class="node">
<title>Node62</title>
<g id="a_node28"><a xlink:href="../../da/d89/variable_8h.html" target="_top" xlink:title=" ">
<polygon fill="none" stroke="red" points="2429.5,-185 2429.5,-204 2548.5,-204 2548.5,-185 2429.5,-185"/>
<text text-anchor="middle" x="2489" y="-192" font-family="Helvetica,sans-Serif" font-size="10.00">containers/variable.h</text>
</a>
</g>
</g>
<!-- Node61&#45;&gt;Node62 -->
<g id="edge65" class="edge">
<title>Node61&#45;&gt;Node62</title>
<path fill="none" stroke="midnightblue" d="M2629,-313.44C2604.15,-305.43 2575.52,-293.6 2553,-277 2529.54,-259.71 2510.14,-231.66 2499.06,-213.4"/>
<polygon fill="midnightblue" stroke="midnightblue" points="2501.86,-211.25 2493.79,-204.39 2495.82,-214.79 2501.86,-211.25"/>
</g>
<!-- Node77 -->
<g id="node29" class="node">
<title>Node77</title>
<g id="a_node29"><a xlink:href="../../dc/d8e/kratos__components_8h.html" target="_top" xlink:title=" ">
<polygon fill="none" stroke="red" points="2561.5,-252 2561.5,-271 2726.5,-271 2726.5,-252 2561.5,-252"/>
<text text-anchor="middle" x="2644" y="-259" font-family="Helvetica,sans-Serif" font-size="10.00">includes/kratos_components.h</text>
</a>
</g>
</g>
<!-- Node61&#45;&gt;Node77 -->
<g id="edge69" class="edge">
<title>Node61&#45;&gt;Node77</title>
<path fill="none" stroke="midnightblue" d="M2676.1,-313.4C2669.9,-303.56 2661.58,-290.38 2654.97,-279.89"/>
<polygon fill="midnightblue" stroke="midnightblue" points="2657.78,-277.79 2649.48,-271.19 2651.86,-281.52 2657.78,-277.79"/>
</g>
<!-- Node62&#45;&gt;Node2 -->
<g id="edge66" class="edge">
<title>Node62&#45;&gt;Node2</title>
<path fill="none" stroke="midnightblue" d="M2521.39,-184.88C2583.84,-168 2725.01,-128.59 2841,-87 2862.75,-79.2 2866.57,-72.55 2889,-67 3084.14,-18.72 3327.86,-15.48 3414.55,-16.02"/>
<polygon fill="midnightblue" stroke="midnightblue" points="3414.77,-19.53 3424.8,-16.11 3414.83,-12.53 3414.77,-19.53"/>
</g>
<!-- Node62&#45;&gt;Node3 -->
<g id="edge67" class="edge">
<title>Node62&#45;&gt;Node3</title>
<path fill="none" stroke="midnightblue" d="M2456.12,-184.95C2431.18,-177.18 2397.17,-163.74 2373,-143 2342.68,-116.99 2359.55,-87.05 2325,-67 2246.89,-21.67 1603.18,-35.78 1513,-31 1444.5,-27.37 1364.83,-22.27 1318.07,-19.18"/>
<polygon fill="midnightblue" stroke="midnightblue" points="1318.25,-15.69 1308.04,-18.52 1317.79,-22.67 1318.25,-15.69"/>
</g>
<!-- Node62&#45;&gt;Node8 -->
<g id="edge68" class="edge">
<title>Node62&#45;&gt;Node8</title>
<path fill="none" stroke="midnightblue" d="M2447.58,-184.98C2436.98,-182.91 2425.59,-180.78 2415,-179 2325.42,-163.9 2221.05,-149.79 2157.01,-141.53"/>
<polygon fill="midnightblue" stroke="midnightblue" points="2157.06,-138.01 2146.7,-140.21 2156.17,-144.95 2157.06,-138.01"/>
</g>
<!-- Node77&#45;&gt;Node2 -->
<g id="edge70" class="edge">
<title>Node77&#45;&gt;Node2</title>
<path fill="none" stroke="midnightblue" d="M2648.57,-251.77C2657.89,-234.87 2680.79,-197.71 2711,-179 2899.44,-62.27 2980.34,-113.84 3197,-67 3275.06,-50.12 3367.22,-31.96 3414.86,-22.7"/>
<polygon fill="midnightblue" stroke="midnightblue" points="3415.74,-26.1 3424.89,-20.76 3414.4,-19.23 3415.74,-26.1"/>
</g>
<!-- Node77&#45;&gt;Node3 -->
<g id="edge71" class="edge">
<title>Node77&#45;&gt;Node3</title>
<path fill="none" stroke="midnightblue" d="M2637.47,-251.84C2624.36,-235.06 2593.03,-198.11 2558,-179 2498.95,-146.79 2468.01,-178.7 2411,-143 2373.81,-119.72 2387.3,-86.51 2348,-67 2264.82,-25.7 1605.74,-35.86 1513,-31 1444.5,-27.41 1364.83,-22.3 1318.06,-19.2"/>
<polygon fill="midnightblue" stroke="midnightblue" points="1318.25,-15.7 1308.04,-18.53 1317.78,-22.69 1318.25,-15.7"/>
</g>
<!-- Node77&#45;&gt;Node8 -->
<g id="edge73" class="edge">
<title>Node77&#45;&gt;Node8</title>
<path fill="none" stroke="midnightblue" d="M2596,-251.94C2550.44,-243.27 2480.3,-228.52 2421,-210 2385.79,-199 2379.44,-189.25 2344,-179 2281.32,-160.88 2207.49,-148.56 2156.98,-141.46"/>
<polygon fill="midnightblue" stroke="midnightblue" points="2157.27,-137.97 2146.89,-140.07 2156.32,-144.9 2157.27,-137.97"/>
</g>
<!-- Node77&#45;&gt;Node55 -->
<g id="edge74" class="edge">
<title>Node77&#45;&gt;Node55</title>
<path fill="none" stroke="midnightblue" d="M2596.43,-251.94C2530.47,-240.06 2411.34,-218.61 2340.48,-205.85"/>
<polygon fill="midnightblue" stroke="midnightblue" points="2340.85,-202.36 2330.38,-204.03 2339.61,-209.25 2340.85,-202.36"/>
</g>
<!-- Node77&#45;&gt;Node62 -->
<g id="edge75" class="edge">
<title>Node77&#45;&gt;Node62</title>
<path fill="none" stroke="midnightblue" d="M2623.42,-251.87C2596.67,-240.65 2549.75,-220.98 2519.03,-208.09"/>
<polygon fill="midnightblue" stroke="midnightblue" points="2520.24,-204.81 2509.67,-204.17 2517.54,-211.26 2520.24,-204.81"/>
</g>
<!-- Node78 -->
<g id="node30" class="node">
<title>Node78</title>
<g id="a_node30"><a xlink:title=" ">
<polygon fill="none" stroke="#bfbfbf" points="2719.5,-185 2719.5,-204 2776.5,-204 2776.5,-185 2719.5,-185"/>
<text text-anchor="middle" x="2748" y="-192" font-family="Helvetica,sans-Serif" font-size="10.00">typeinfo</text>
</a>
</g>
</g>
<!-- Node77&#45;&gt;Node78 -->
<g id="edge72" class="edge">
<title>Node77&#45;&gt;Node78</title>
<path fill="none" stroke="midnightblue" d="M2658.03,-251.73C2675.33,-240.92 2704.99,-222.38 2725.49,-209.57"/>
<polygon fill="midnightblue" stroke="midnightblue" points="2727.57,-212.4 2734.2,-204.13 2723.86,-206.46 2727.57,-212.4"/>
</g>
<!-- Node84&#45;&gt;Node3 -->
<g id="edge78" class="edge">
<title>Node84&#45;&gt;Node3</title>
<path fill="none" stroke="midnightblue" d="M1168.64,-385.99C1055.18,-365.04 802.29,-303.4 872,-179 945.92,-47.1 1150.54,-22.08 1237.77,-17.47"/>
<polygon fill="midnightblue" stroke="midnightblue" points="1237.98,-20.96 1247.81,-17 1237.66,-13.97 1237.98,-20.96"/>
</g>
<!-- Node84&#45;&gt;Node85 -->
<g id="edge79" class="edge">
<title>Node84&#45;&gt;Node85</title>
<path fill="none" stroke="midnightblue" d="M1252.07,-385.87C1288.33,-375.8 1349.11,-358.91 1394.72,-346.24"/>
<polygon fill="midnightblue" stroke="midnightblue" points="1395.8,-349.58 1404.5,-343.53 1393.93,-342.83 1395.8,-349.58"/>
</g>
<!-- Node85&#45;&gt;Node2 -->
<g id="edge80" class="edge">
<title>Node85&#45;&gt;Node2</title>
<path fill="none" stroke="midnightblue" d="M1532.68,-325.33C1635.97,-322.46 1824.2,-317.26 1985,-313 2063.05,-310.93 3321.22,-313.96 3390,-277 3428.94,-256.08 3447,-239.7 3447,-195.5 3447,-195.5 3447,-195.5 3447,-132 3447,-97.86 3447,-58.05 3447,-35.21"/>
<polygon fill="midnightblue" stroke="midnightblue" points="3450.5,-35.19 3447,-25.19 3443.5,-35.19 3450.5,-35.19"/>
</g>
<!-- Node85&#45;&gt;Node3 -->
<g id="edge81" class="edge">
<title>Node85&#45;&gt;Node3</title>
<path fill="none" stroke="midnightblue" d="M1379.02,-313.45C1340.63,-304.67 1299.71,-292.16 1288,-277 1273.34,-258.03 1276.1,-91.98 1277.48,-35.34"/>
<polygon fill="midnightblue" stroke="midnightblue" points="1280.98,-35.36 1277.74,-25.27 1273.99,-35.18 1280.98,-35.36"/>
</g>
<!-- Node85&#45;&gt;Node6 -->
<g id="edge82" class="edge">
<title>Node85&#45;&gt;Node6</title>
<path fill="none" stroke="midnightblue" d="M1377.45,-317.56C1266.5,-303.33 1066.82,-277.73 984.75,-267.21"/>
<polygon fill="midnightblue" stroke="midnightblue" points="985.02,-263.72 974.65,-265.92 984.13,-270.66 985.02,-263.72"/>
</g>
<!-- Node85&#45;&gt;Node8 -->
<g id="edge84" class="edge">
<title>Node85&#45;&gt;Node8</title>
<path fill="none" stroke="midnightblue" d="M1494.55,-313.48C1516.59,-304.71 1543.95,-292.2 1566,-277 1616.97,-241.86 1609.04,-205.49 1665,-179 1729.41,-148.51 1934.2,-138.51 2036.97,-135.37"/>
<polygon fill="midnightblue" stroke="midnightblue" points="2037.29,-138.86 2047.18,-135.07 2037.09,-131.86 2037.29,-138.86"/>
</g>
<!-- Node85&#45;&gt;Node47 -->
<g id="edge83" class="edge">
<title>Node85&#45;&gt;Node47</title>
<path fill="none" stroke="midnightblue" d="M1426.14,-313.4C1403.11,-302.14 1371.11,-286.5 1348.68,-275.54"/>
<polygon fill="midnightblue" stroke="midnightblue" points="1349.93,-272.25 1339.41,-271.01 1346.85,-278.54 1349.93,-272.25"/>
</g>
<!-- Node85&#45;&gt;Node62 -->
<g id="edge85" class="edge">
<title>Node85&#45;&gt;Node62</title>
<path fill="none" stroke="midnightblue" d="M1532.91,-316.61C1648.22,-300.59 1871.16,-269.96 2061,-246 2187.26,-230.06 2334.67,-213.01 2419.4,-203.36"/>
<polygon fill="midnightblue" stroke="midnightblue" points="2419.88,-206.83 2429.42,-202.22 2419.09,-199.87 2419.88,-206.83"/>
</g>
<!-- Node86 -->
<g id="node33" class="node">
<title>Node86</title>
<g id="a_node33"><a xlink:href="../../de/d77/variables__list_8h.html" target="_top" xlink:title=" ">
<polygon fill="none" stroke="black" points="1441,-246.5 1441,-276.5 1557,-276.5 1557,-246.5 1441,-246.5"/>
<text text-anchor="start" x="1449" y="-264.5" font-family="Helvetica,sans-Serif" font-size="10.00">containers/variables</text>
<text text-anchor="middle" x="1499" y="-253.5" font-family="Helvetica,sans-Serif" font-size="10.00">_list.h</text>
</a>
</g>
</g>
<!-- Node85&#45;&gt;Node86 -->
<g id="edge86" class="edge">
<title>Node85&#45;&gt;Node86</title>
<path fill="none" stroke="midnightblue" d="M1464.55,-313.4C1470.14,-305.13 1477.33,-294.51 1483.7,-285.1"/>
<polygon fill="midnightblue" stroke="midnightblue" points="1486.76,-286.82 1489.47,-276.58 1480.97,-282.9 1486.76,-286.82"/>
</g>
<!-- Node86&#45;&gt;Node2 -->
<g id="edge87" class="edge">
<title>Node86&#45;&gt;Node2</title>
<path fill="none" stroke="midnightblue" d="M1505.75,-246.45C1515.65,-227.57 1536,-194.57 1564,-179 1749.79,-75.7 1827.19,-140.97 2039,-123 2346.31,-96.93 2427.68,-137.12 2732,-87 2764.35,-81.67 2770.73,-72.75 2803,-67 3035.02,-25.64 3320.09,-18.15 3414.76,-16.8"/>
<polygon fill="midnightblue" stroke="midnightblue" points="3414.88,-20.3 3424.84,-16.67 3414.79,-13.3 3414.88,-20.3"/>
</g>
<!-- Node86&#45;&gt;Node3 -->
<g id="edge88" class="edge">
<title>Node86&#45;&gt;Node3</title>
<path fill="none" stroke="midnightblue" d="M1497.82,-246.36C1494.1,-211.02 1479.59,-118.06 1427,-67 1397.65,-38.5 1351.63,-26.06 1318.5,-20.65"/>
<polygon fill="midnightblue" stroke="midnightblue" points="1318.64,-17.13 1308.24,-19.12 1317.62,-24.05 1318.64,-17.13"/>
</g>
<!-- Node86&#45;&gt;Node7 -->
<g id="edge90" class="edge">
<title>Node86&#45;&gt;Node7</title>
<path fill="none" stroke="midnightblue" d="M1440.95,-254.09C1414.98,-251.35 1383.98,-248.28 1356,-246 1051.94,-221.25 683.71,-202.68 569.5,-197.18"/>
<polygon fill="midnightblue" stroke="midnightblue" points="569.41,-193.67 559.25,-196.68 569.07,-200.66 569.41,-193.67"/>
</g>
<!-- Node86&#45;&gt;Node8 -->
<g id="edge92" class="edge">
<title>Node86&#45;&gt;Node8</title>
<path fill="none" stroke="midnightblue" d="M1515.45,-246.34C1538.6,-227.32 1582.9,-194.16 1627,-179 1701.34,-153.43 1928.14,-140.92 2037.2,-136.25"/>
<polygon fill="midnightblue" stroke="midnightblue" points="2037.53,-139.74 2047.37,-135.82 2037.23,-132.74 2037.53,-139.74"/>
</g>
<!-- Node86&#45;&gt;Node16 -->
<g id="edge89" class="edge">
<title>Node86&#45;&gt;Node16</title>
<path fill="none" stroke="midnightblue" d="M1501.3,-246.34C1503.97,-230.07 1508.58,-202.57 1513,-179 1522.78,-126.81 1535.6,-65.48 1542,-35.26"/>
<polygon fill="midnightblue" stroke="midnightblue" points="1545.46,-35.8 1544.12,-25.29 1538.61,-34.34 1545.46,-35.8"/>
</g>
<!-- Node86&#45;&gt;Node62 -->
<g id="edge93" class="edge">
<title>Node86&#45;&gt;Node62</title>
<path fill="none" stroke="midnightblue" d="M1557.01,-256.64C1602.23,-253.65 1666.6,-249.46 1723,-246 1998.94,-229.07 2068.39,-231.76 2344,-210 2368.61,-208.06 2395.52,-205.49 2419.4,-203.05"/>
<polygon fill="midnightblue" stroke="midnightblue" points="2419.85,-206.53 2429.44,-202.02 2419.13,-199.56 2419.85,-206.53"/>
</g>
<!-- Node87 -->
<g id="node34" class="node">
<title>Node87</title>
<g id="a_node34"><a xlink:title=" ">
<polygon fill="none" stroke="#bfbfbf" points="881,-179.5 881,-209.5 1003,-209.5 1003,-179.5 881,-179.5"/>
<text text-anchor="start" x="889" y="-197.5" font-family="Helvetica,sans-Serif" font-size="10.00">boost/iterator/indirect</text>
<text text-anchor="middle" x="942" y="-186.5" font-family="Helvetica,sans-Serif" font-size="10.00">_iterator.hpp</text>
</a>
</g>
</g>
<!-- Node86&#45;&gt;Node87 -->
<g id="edge91" class="edge">
<title>Node86&#45;&gt;Node87</title>
<path fill="none" stroke="midnightblue" d="M1440.97,-253.73C1338.29,-241.75 1124.95,-216.85 1013.42,-203.83"/>
<polygon fill="midnightblue" stroke="midnightblue" points="1013.62,-200.33 1003.28,-202.65 1012.81,-207.29 1013.62,-200.33"/>
</g>
<!-- Node88&#45;&gt;Node2 -->
<g id="edge97" class="edge">
<title>Node88&#45;&gt;Node2</title>
<path fill="none" stroke="midnightblue" d="M790.68,-392.4C868.25,-389.36 1017.79,-383.69 1145,-380 1861.32,-359.24 2043.47,-410.46 2757,-344 2841.32,-336.15 2860.85,-322.53 2945,-313 3009.05,-305.75 3470.92,-313.57 3524,-277 3556.76,-254.43 3561,-235.28 3561,-195.5 3561,-195.5 3561,-195.5 3561,-132 3561,-83.2 3508.81,-47.56 3475.05,-29.61"/>
<polygon fill="midnightblue" stroke="midnightblue" points="3476.58,-26.46 3466.08,-25.02 3473.39,-32.69 3476.58,-26.46"/>
</g>
<!-- Node88&#45;&gt;Node3 -->
<g id="edge98" class="edge">
<title>Node88&#45;&gt;Node3</title>
<path fill="none" stroke="midnightblue" d="M718.16,-380.33C707.32,-371.31 694.92,-358.6 689,-344 661.08,-275.14 664.47,-232.54 716,-179 800.44,-91.28 849.36,-101.91 966,-67 1060.96,-38.58 1177.27,-25.12 1237.51,-19.66"/>
<polygon fill="midnightblue" stroke="midnightblue" points="1238.08,-23.13 1247.73,-18.76 1237.47,-16.15 1238.08,-23.13"/>
</g>
<!-- Node88&#45;&gt;Node5 -->
<g id="edge99" class="edge">
<title>Node88&#45;&gt;Node5</title>
<path fill="none" stroke="midnightblue" d="M685.24,-389.86C623.32,-383.32 525.79,-369.28 500,-344 473.44,-317.96 481,-299.69 481,-262.5 481,-262.5 481,-262.5 481,-193.5 481,-132.37 500.4,-117.39 535,-67 544.2,-53.61 557.34,-40.88 568.11,-31.55"/>
<polygon fill="midnightblue" stroke="midnightblue" points="570.36,-34.23 575.78,-25.13 565.87,-28.87 570.36,-34.23"/>
</g>
<!-- Node88&#45;&gt;Node6 -->
<g id="edge100" class="edge">
<title>Node88&#45;&gt;Node6</title>
<path fill="none" stroke="midnightblue" d="M760.47,-380.37C800.92,-354.95 885.49,-301.79 925.76,-276.48"/>
<polygon fill="midnightblue" stroke="midnightblue" points="927.72,-279.38 934.32,-271.1 923.99,-273.46 927.72,-279.38"/>
</g>
<!-- Node88&#45;&gt;Node8 -->
<g id="edge103" class="edge">
<title>Node88&#45;&gt;Node8</title>
<path fill="none" stroke="midnightblue" d="M740.72,-380.46C744.26,-363.82 751.29,-335.51 762,-313 795.1,-243.42 801.72,-210.59 872,-179 978.69,-131.03 1805.75,-132.27 2037.06,-133.57"/>
<polygon fill="midnightblue" stroke="midnightblue" points="2037.28,-137.07 2047.3,-133.63 2037.32,-130.07 2037.28,-137.07"/>
</g>
<!-- Node88&#45;&gt;Node12 -->
<g id="edge101" class="edge">
<title>Node88&#45;&gt;Node12</title>
<path fill="none" stroke="midnightblue" d="M685.32,-390.73C631.43,-385.41 546.17,-372.88 478,-344 294.31,-266.18 202.22,-263.89 110,-87 97.45,-62.93 126.57,-42.14 151.45,-29.49"/>
<polygon fill="midnightblue" stroke="midnightblue" points="153.19,-32.54 160.69,-25.05 150.16,-26.23 153.19,-32.54"/>
</g>
<!-- Node88&#45;&gt;Node16 -->
<g id="edge96" class="edge">
<title>Node88&#45;&gt;Node16</title>
<path fill="none" stroke="midnightblue" d="M734.9,-380.41C727.49,-342.78 712.95,-238.78 763,-179 861.6,-61.24 1374.66,-25.65 1512.1,-18.16"/>
<polygon fill="midnightblue" stroke="midnightblue" points="1512.62,-21.64 1522.42,-17.61 1512.25,-14.65 1512.62,-21.64"/>
</g>
<!-- Node88&#45;&gt;Node44 -->
<g id="edge104" class="edge">
<title>Node88&#45;&gt;Node44</title>
<path fill="none" stroke="midnightblue" d="M790.65,-391.89C997.31,-381.65 1752.97,-344.22 1983.06,-332.82"/>
<polygon fill="midnightblue" stroke="midnightblue" points="1983.48,-336.3 1993.3,-332.31 1983.13,-329.31 1983.48,-336.3"/>
</g>
<!-- Node88&#45;&gt;Node87 -->
<g id="edge102" class="edge">
<title>Node88&#45;&gt;Node87</title>
<path fill="none" stroke="midnightblue" d="M744.66,-380.49C758.84,-351.93 794.52,-286.27 841,-246 856.25,-232.78 875.57,-222.03 893.21,-213.9"/>
<polygon fill="midnightblue" stroke="midnightblue" points="895.08,-216.9 902.81,-209.65 892.25,-210.5 895.08,-216.9"/>
</g>
<!-- Node89 -->
<g id="node36" class="node">
<title>Node89</title>
<g id="a_node36"><a xlink:href="../../d6/dc0/set__identity__function_8h.html" target="_top" xlink:title=" ">
<polygon fill="none" stroke="red" points="509,-313.5 509,-343.5 637,-343.5 637,-313.5 509,-313.5"/>
<text text-anchor="start" x="517" y="-331.5" font-family="Helvetica,sans-Serif" font-size="10.00">containers/set_identity</text>
<text text-anchor="middle" x="573" y="-320.5" font-family="Helvetica,sans-Serif" font-size="10.00">_function.h</text>
</a>
</g>
</g>
<!-- Node88&#45;&gt;Node89 -->
<g id="edge105" class="edge">
<title>Node88&#45;&gt;Node89</title>
<path fill="none" stroke="midnightblue" d="M702.2,-380.4C677.55,-370.69 644.61,-357.71 618.16,-347.29"/>
<polygon fill="midnightblue" stroke="midnightblue" points="619.32,-343.99 608.73,-343.58 616.75,-350.5 619.32,-343.99"/>
</g>
<!-- Node90&#45;&gt;Node3 -->
<g id="edge111" class="edge">
<title>Node90&#45;&gt;Node3</title>
<path fill="none" stroke="midnightblue" d="M1214.84,-459.9C1012.04,-455.1 455.79,-439.41 429,-411 399.12,-379.31 409.41,-351.9 429,-313 446.29,-278.66 542.44,-238.72 568,-210 597.65,-176.69 585.85,-153.91 618,-123 656.7,-85.8 673.51,-82.17 725,-67 821.41,-38.58 1127.67,-22.95 1237.94,-18.13"/>
<polygon fill="midnightblue" stroke="midnightblue" points="1238.15,-21.63 1247.99,-17.7 1237.85,-14.64 1238.15,-21.63"/>
</g>
<!-- Node90&#45;&gt;Node8 -->
<g id="edge113" class="edge">
<title>Node90&#45;&gt;Node8</title>
<path fill="none" stroke="midnightblue" d="M1361.24,-456.55C1473.7,-448.37 1678.82,-430.95 1706,-411 1797.25,-344.05 1720.96,-247.58 1811,-179 1845.61,-152.64 1964.19,-141.35 2037.35,-136.81"/>
<polygon fill="midnightblue" stroke="midnightblue" points="2037.58,-140.3 2047.36,-136.21 2037.17,-133.31 2037.58,-140.3"/>
</g>
<!-- Node90&#45;&gt;Node16 -->
<g id="edge110" class="edge">
<title>Node90&#45;&gt;Node16</title>
<path fill="none" stroke="midnightblue" d="M1214.79,-457.58C1158.94,-452.31 1081.26,-439.95 1019,-411 908.32,-359.52 796.48,-274.9 872,-179 953.41,-75.63 1387.35,-30.3 1512.31,-19.27"/>
<polygon fill="midnightblue" stroke="midnightblue" points="1512.77,-22.74 1522.43,-18.39 1512.16,-15.77 1512.77,-22.74"/>
</g>
<!-- Node90&#45;&gt;Node44 -->
<g id="edge118" class="edge">
<title>Node90&#45;&gt;Node44</title>
<path fill="none" stroke="midnightblue" d="M1361.05,-457.13C1564.64,-444.94 2123.59,-411.43 2124,-411 2146.22,-387.39 2106.5,-359.29 2077.17,-343.01"/>
<polygon fill="midnightblue" stroke="midnightblue" points="2078.57,-339.79 2068.1,-338.16 2075.27,-345.96 2078.57,-339.79"/>
</g>
<!-- Node90&#45;&gt;Node87 -->
<g id="edge112" class="edge">
<title>Node90&#45;&gt;Node87</title>
<path fill="none" stroke="midnightblue" d="M1214.74,-450.64C1123.81,-432.67 973.25,-387.08 912,-277 901.45,-258.04 912.24,-234.64 923.72,-217.79"/>
<polygon fill="midnightblue" stroke="midnightblue" points="926.6,-219.77 929.67,-209.63 920.95,-215.64 926.6,-219.77"/>
</g>
<!-- Node91 -->
<g id="node38" class="node">
<title>Node91</title>
<g id="a_node38"><a xlink:href="../../d6/dd9/global__pointer_8h.html" target="_top" xlink:title=" ">
<polygon fill="none" stroke="red" points="1435,-386 1435,-405 1573,-405 1573,-386 1435,-386"/>
<text text-anchor="middle" x="1504" y="-393" font-family="Helvetica,sans-Serif" font-size="10.00">includes/global_pointer.h</text>
</a>
</g>
</g>
<!-- Node90&#45;&gt;Node91 -->
<g id="edge114" class="edge">
<title>Node90&#45;&gt;Node91</title>
<path fill="none" stroke="midnightblue" d="M1334.6,-447.48C1373.83,-435.67 1429.23,-419 1465.85,-407.98"/>
<polygon fill="midnightblue" stroke="midnightblue" points="1467.09,-411.26 1475.66,-405.03 1465.07,-404.56 1467.09,-411.26"/>
</g>
<!-- Node91&#45;&gt;Node3 -->
<g id="edge115" class="edge">
<title>Node91&#45;&gt;Node3</title>
<path fill="none" stroke="midnightblue" d="M1442.22,-385.97C1371.62,-375.79 1260.72,-358.34 1221,-344 1164.28,-323.52 1134.7,-328.3 1103,-277 1053.88,-197.51 1036.29,-141.26 1093,-67 1110.5,-44.09 1188.98,-29.06 1237.94,-21.74"/>
<polygon fill="midnightblue" stroke="midnightblue" points="1238.51,-25.2 1247.9,-20.3 1237.5,-18.27 1238.51,-25.2"/>
</g>
<!-- Node91&#45;&gt;Node8 -->
<g id="edge116" class="edge">
<title>Node91&#45;&gt;Node8</title>
<path fill="none" stroke="midnightblue" d="M1511.35,-385.97C1543.21,-349.17 1670.26,-204.8 1724,-179 1777.93,-153.11 1946.08,-141.22 2037.07,-136.56"/>
<polygon fill="midnightblue" stroke="midnightblue" points="2037.43,-140.04 2047.24,-136.05 2037.08,-133.05 2037.43,-140.04"/>
</g>
<!-- Node91&#45;&gt;Node44 -->
<g id="edge117" class="edge">
<title>Node91&#45;&gt;Node44</title>
<path fill="none" stroke="midnightblue" d="M1546.81,-385.93C1558.22,-383.82 1570.55,-381.68 1582,-380 1724.28,-359.13 1892.08,-343.09 1983.1,-335.1"/>
<polygon fill="midnightblue" stroke="midnightblue" points="1983.61,-338.57 1993.27,-334.21 1983.01,-331.6 1983.61,-338.57"/>
</g>
<!-- Node94&#45;&gt;Node8 -->
<g id="edge122" class="edge">
<title>Node94&#45;&gt;Node8</title>
<path fill="none" stroke="midnightblue" d="M2352.09,-318.96C2339.17,-303.33 2310.05,-269.56 2281,-246 2257.44,-226.89 2248.3,-226.74 2223,-210 2203.05,-196.8 2199.3,-191.66 2179,-179 2160.69,-167.57 2139.29,-155.88 2122.94,-147.28"/>
<polygon fill="midnightblue" stroke="midnightblue" points="2124.45,-144.12 2113.96,-142.6 2121.21,-150.33 2124.45,-144.12"/>
</g>
<!-- Node94&#45;&gt;Node55 -->
<g id="edge123" class="edge">
<title>Node94&#45;&gt;Node55</title>
<path fill="none" stroke="midnightblue" d="M2355.25,-318.69C2348.64,-303.47 2334.18,-271.45 2319,-246 2312.06,-234.37 2303.25,-221.97 2296.08,-212.37"/>
<polygon fill="midnightblue" stroke="midnightblue" points="2298.66,-209.99 2289.83,-204.14 2293.09,-214.22 2298.66,-209.99"/>
</g>
<!-- Node94&#45;&gt;Node77 -->
<g id="edge124" class="edge">
<title>Node94&#45;&gt;Node77</title>
<path fill="none" stroke="midnightblue" d="M2396.55,-318.94C2447.92,-307.22 2540.12,-286.19 2596.31,-273.38"/>
<polygon fill="midnightblue" stroke="midnightblue" points="2597.39,-276.72 2606.36,-271.08 2595.84,-269.89 2597.39,-276.72"/>
</g>
<!-- Node95&#45;&gt;Node2 -->
<g id="edge126" class="edge">
<title>Node95&#45;&gt;Node2</title>
<path fill="none" stroke="midnightblue" d="M2240.65,-593.56C2396.71,-588.17 2814.36,-571.63 2950,-545 3346.38,-467.18 3789,-599.45 3789,-195.5 3789,-195.5 3789,-195.5 3789,-132 3789,-93.87 3766.14,-85.85 3733,-67 3689.93,-42.5 3544.39,-25.85 3479.13,-19.44"/>
<polygon fill="midnightblue" stroke="midnightblue" points="3479.3,-15.94 3469.01,-18.47 3478.63,-22.91 3479.3,-15.94"/>
</g>
<!-- Node95&#45;&gt;Node3 -->
<g id="edge127" class="edge">
<title>Node95&#45;&gt;Node3</title>
<path fill="none" stroke="midnightblue" d="M2121.36,-594.69C1792.46,-589.86 215,-561.56 215,-463.5 215,-463.5 215,-463.5 215,-394.5 215,-167.82 387.94,-128.92 606,-67 725.87,-32.96 1111.52,-20.6 1237.66,-17.41"/>
<polygon fill="midnightblue" stroke="midnightblue" points="1237.76,-20.91 1247.67,-17.17 1237.58,-13.92 1237.76,-20.91"/>
</g>
<!-- Node95&#45;&gt;Node4 -->
<g id="edge131" class="edge">
<title>Node95&#45;&gt;Node4</title>
<path fill="none" stroke="midnightblue" d="M2121.48,-589.03C2006.02,-576.48 1753.1,-548.99 1639.83,-536.68"/>
<polygon fill="midnightblue" stroke="midnightblue" points="1639.96,-533.17 1629.64,-535.57 1639.2,-540.13 1639.96,-533.17"/>
</g>
<!-- Node95&#45;&gt;Node6 -->
<g id="edge128" class="edge">
<title>Node95&#45;&gt;Node6</title>
<path fill="none" stroke="midnightblue" d="M2121.23,-593.5C1926.7,-586.28 1313.98,-557.58 1135,-478 1053.32,-441.68 1035.34,-417.87 985,-344 971.36,-323.99 960.61,-298.13 954.29,-280.97"/>
<polygon fill="midnightblue" stroke="midnightblue" points="957.43,-279.35 950.79,-271.09 950.84,-281.69 957.43,-279.35"/>
</g>
<!-- Node95&#45;&gt;Node8 -->
<g id="edge130" class="edge">
<title>Node95&#45;&gt;Node8</title>
<path fill="none" stroke="midnightblue" d="M2162.61,-586.95C2118.17,-565.13 2005.45,-502.54 1963,-411 1918.1,-314.17 1952.5,-257.33 2025,-179 2037.24,-165.78 2054.2,-154.92 2068.59,-147.19"/>
<polygon fill="midnightblue" stroke="midnightblue" points="2070.3,-150.25 2077.6,-142.57 2067.1,-144.02 2070.3,-150.25"/>
</g>
<!-- Node95&#45;&gt;Node49 -->
<g id="edge129" class="edge">
<title>Node95&#45;&gt;Node49</title>
<path fill="none" stroke="midnightblue" d="M2179.59,-586.92C2177.13,-572.06 2171.86,-540.55 2167,-514 2156.09,-454.32 2153.09,-439.45 2141,-380 2133.86,-344.87 2125.04,-303.95 2120.01,-280.85"/>
<polygon fill="midnightblue" stroke="midnightblue" points="2123.42,-280.06 2117.87,-271.04 2116.58,-281.56 2123.42,-280.06"/>
</g>
<!-- Node95&#45;&gt;Node61 -->
<g id="edge136" class="edge">
<title>Node95&#45;&gt;Node61</title>
<path fill="none" stroke="midnightblue" d="M2240.68,-587.38C2384.23,-566.48 2741.83,-505.7 2808,-411 2828.36,-381.87 2790.52,-360.37 2751.59,-346.8"/>
<polygon fill="midnightblue" stroke="midnightblue" points="2752.3,-343.34 2741.7,-343.51 2750.09,-349.99 2752.3,-343.34"/>
</g>
<!-- Node93 -->
<g id="node41" class="node">
<title>Node93</title>
<g id="a_node41"><a xlink:href="../../d9/d4c/includes_2indexed__object_8h.html" target="_top" xlink:title=" ">
<polygon fill="none" stroke="black" points="1971.5,-386 1971.5,-405 2114.5,-405 2114.5,-386 1971.5,-386"/>
<text text-anchor="middle" x="2043" y="-393" font-family="Helvetica,sans-Serif" font-size="10.00">includes/indexed_object.h</text>
</a>
</g>
</g>
<!-- Node95&#45;&gt;Node93 -->
<g id="edge132" class="edge">
<title>Node95&#45;&gt;Node93</title>
<path fill="none" stroke="midnightblue" d="M2178.08,-586.68C2168.57,-558.34 2138.03,-470.06 2119,-447 2105.94,-431.17 2086.63,-418.43 2070.74,-409.7"/>
<polygon fill="midnightblue" stroke="midnightblue" points="2072.34,-406.59 2061.86,-405.04 2069.08,-412.78 2072.34,-406.59"/>
</g>
<!-- Node95&#45;&gt;Node96 -->
<g id="edge137" class="edge">
<title>Node95&#45;&gt;Node96</title>
<path fill="none" stroke="midnightblue" d="M2194.32,-586.95C2242.61,-555.95 2408.82,-449.26 2469.01,-410.61"/>
<polygon fill="midnightblue" stroke="midnightblue" points="2471.2,-413.37 2477.73,-405.02 2467.42,-407.48 2471.2,-413.37"/>
</g>
<!-- Node97 -->
<g id="node43" class="node">
<title>Node97</title>
<g id="a_node43"><a xlink:href="../../dd/d98/table_8h.html" target="_top" xlink:title=" ">
<polygon fill="none" stroke="black" points="2935,-252 2935,-271 3029,-271 3029,-252 2935,-252"/>
<text text-anchor="middle" x="2982" y="-259" font-family="Helvetica,sans-Serif" font-size="10.00">includes/table.h</text>
</a>
</g>
</g>
<!-- Node95&#45;&gt;Node97 -->
<g id="edge145" class="edge">
<title>Node95&#45;&gt;Node97</title>
<path fill="none" stroke="midnightblue" d="M2240.68,-588.36C2417.03,-566.99 2925.03,-503.49 2950,-478 3002.85,-424.04 2992.72,-323.14 2985.71,-281.36"/>
<polygon fill="midnightblue" stroke="midnightblue" points="2989.14,-280.66 2983.91,-271.44 2982.25,-281.91 2989.14,-280.66"/>
</g>
<!-- Node93&#45;&gt;Node3 -->
<g id="edge133" class="edge">
<title>Node93&#45;&gt;Node3</title>
<path fill="none" stroke="midnightblue" d="M1978.85,-385.97C1961.1,-383.8 1941.82,-381.63 1924,-380 1793.41,-368.06 1460.71,-381.34 1335,-344 1277.19,-326.83 1247.34,-329.12 1217,-277 1194.71,-238.72 1154.22,-303.17 1245,-67 1249.67,-54.85 1257.58,-42.6 1264.49,-33.2"/>
<polygon fill="midnightblue" stroke="midnightblue" points="1267.35,-35.23 1270.67,-25.17 1261.8,-30.96 1267.35,-35.23"/>
</g>
<!-- Node93&#45;&gt;Node8 -->
<g id="edge134" class="edge">
<title>Node93&#45;&gt;Node8</title>
<path fill="none" stroke="midnightblue" d="M2027.04,-385.92C2013.03,-377.37 1993.57,-362.83 1985,-344 1979.29,-331.46 1981.87,-326.42 1985,-313 2000.06,-248.34 2012.05,-232.76 2051,-179 2058.83,-168.19 2069.37,-157.68 2078.38,-149.53"/>
<polygon fill="midnightblue" stroke="midnightblue" points="2080.88,-151.99 2086.11,-142.77 2076.27,-146.72 2080.88,-151.99"/>
</g>
<!-- Node93&#45;&gt;Node44 -->
<g id="edge135" class="edge">
<title>Node93&#45;&gt;Node44</title>
<path fill="none" stroke="midnightblue" d="M2043.94,-385.73C2044.97,-376.18 2046.65,-360.62 2047.98,-348.28"/>
<polygon fill="midnightblue" stroke="midnightblue" points="2051.48,-348.44 2049.07,-338.13 2044.52,-347.7 2051.48,-348.44"/>
</g>
<!-- Node96&#45;&gt;Node2 -->
<g id="edge138" class="edge">
<title>Node96&#45;&gt;Node2</title>
<path fill="none" stroke="midnightblue" d="M2556.67,-388.93C2671.17,-379.03 2902.76,-358.07 2983,-344 3038.95,-334.19 3050.9,-321.94 3107,-313 3162.66,-304.13 3569.09,-312.34 3613,-277 3642.42,-253.32 3637,-233.26 3637,-195.5 3637,-195.5 3637,-195.5 3637,-132 3637,-101.2 3635.4,-88.13 3613,-67 3576.2,-32.29 3516.25,-21.39 3479.36,-17.99"/>
<polygon fill="midnightblue" stroke="midnightblue" points="3479.4,-14.49 3469.15,-17.19 3478.85,-21.46 3479.4,-14.49"/>
</g>
<!-- Node96&#45;&gt;Node3 -->
<g id="edge139" class="edge">
<title>Node96&#45;&gt;Node3</title>
<path fill="none" stroke="midnightblue" d="M2425.29,-387.34C2398.82,-384.68 2367.99,-381.86 2340,-380 2232.16,-372.83 1470.04,-379.62 1368,-344 1366.52,-343.48 1277.75,-278.38 1277,-277 1233.2,-196.41 1259.43,-80.01 1272.22,-35.13"/>
<polygon fill="midnightblue" stroke="midnightblue" points="1275.64,-35.9 1275.13,-25.32 1268.93,-33.91 1275.64,-35.9"/>
</g>
<!-- Node96&#45;&gt;Node5 -->
<g id="edge140" class="edge">
<title>Node96&#45;&gt;Node5</title>
<path fill="none" stroke="midnightblue" d="M2425.29,-387.32C2398.82,-384.66 2367.99,-381.84 2340,-380 2227.39,-372.6 1433.18,-376.13 1325,-344 1188.73,-303.52 1179.65,-239.48 1051,-179 971.26,-141.51 718.3,-58.79 623.42,-28.18"/>
<polygon fill="midnightblue" stroke="midnightblue" points="624.29,-24.78 613.7,-25.05 622.14,-31.45 624.29,-24.78"/>
</g>
<!-- Node96&#45;&gt;Node6 -->
<g id="edge141" class="edge">
<title>Node96&#45;&gt;Node6</title>
<path fill="none" stroke="midnightblue" d="M2425.29,-387.31C2398.82,-384.64 2367.99,-381.83 2340,-380 1877.15,-349.82 1756.8,-405.03 1297,-344 1181.31,-328.65 1047.81,-292.04 984.69,-273.57"/>
<polygon fill="midnightblue" stroke="midnightblue" points="985.4,-270.13 974.82,-270.66 983.42,-276.84 985.4,-270.13"/>
</g>
<!-- Node96&#45;&gt;Node8 -->
<g id="edge142" class="edge">
<title>Node96&#45;&gt;Node8</title>
<path fill="none" stroke="midnightblue" d="M2425.27,-386.56C2364.68,-378.18 2280.15,-363.49 2253,-344 2211.89,-314.48 2227.98,-284.39 2195,-246 2178.54,-226.83 2168.25,-228.46 2151,-210 2133.8,-191.59 2117.55,-167.46 2107.45,-151.38"/>
<polygon fill="midnightblue" stroke="midnightblue" points="2110.23,-149.22 2102.01,-142.53 2104.27,-152.88 2110.23,-149.22"/>
</g>
<!-- Node96&#45;&gt;Node55 -->
<g id="edge144" class="edge">
<title>Node96&#45;&gt;Node55</title>
<path fill="none" stroke="midnightblue" d="M2489.69,-385.82C2487.03,-370.24 2479.94,-336.94 2465,-313 2442.2,-276.47 2430.7,-270.09 2395,-246 2370.97,-229.79 2340.9,-216.56 2317.96,-207.71"/>
<polygon fill="midnightblue" stroke="midnightblue" points="2318.88,-204.32 2308.29,-204.08 2316.42,-210.87 2318.88,-204.32"/>
</g>
<!-- Node96&#45;&gt;Node61 -->
<g id="edge143" class="edge">
<title>Node96&#45;&gt;Node61</title>
<path fill="none" stroke="midnightblue" d="M2516.76,-385.87C2546.38,-375.95 2595.73,-359.41 2633.35,-346.81"/>
<polygon fill="midnightblue" stroke="midnightblue" points="2634.76,-350.02 2643.13,-343.53 2632.54,-343.39 2634.76,-350.02"/>
</g>
<!-- Node97&#45;&gt;Node2 -->
<g id="edge146" class="edge">
<title>Node97&#45;&gt;Node2</title>
<path fill="none" stroke="midnightblue" d="M2990.47,-251.87C3021.06,-221.26 3129.92,-116.96 3241,-67 3299.23,-40.81 3373.09,-26.93 3414.69,-20.7"/>
<polygon fill="midnightblue" stroke="midnightblue" points="3415.39,-24.13 3424.79,-19.24 3414.39,-17.21 3415.39,-24.13"/>
</g>
<!-- Node97&#45;&gt;Node3 -->
<g id="edge147" class="edge">
<title>Node97&#45;&gt;Node3</title>
<path fill="none" stroke="midnightblue" d="M2972.53,-251.9C2952.77,-234.55 2904.99,-195.59 2857,-179 2684.96,-119.51 2613.95,-219.99 2449,-143 2405.71,-122.8 2416.74,-86.2 2373,-67 2285.43,-28.56 1608.51,-35.95 1513,-31 1444.5,-27.45 1364.83,-22.33 1318.06,-19.21"/>
<polygon fill="midnightblue" stroke="midnightblue" points="1318.25,-15.72 1308.04,-18.54 1317.78,-22.7 1318.25,-15.72"/>
</g>
<!-- Node97&#45;&gt;Node8 -->
<g id="edge149" class="edge">
<title>Node97&#45;&gt;Node8</title>
<path fill="none" stroke="midnightblue" d="M2959.45,-251.84C2935.9,-242.51 2898.11,-226.74 2867,-210 2844.64,-197.97 2843.12,-186.94 2819,-179 2756.95,-158.58 2318.86,-141.63 2156.95,-136"/>
<polygon fill="midnightblue" stroke="midnightblue" points="2156.81,-132.49 2146.7,-135.64 2156.57,-139.48 2156.81,-132.49"/>
</g>
<!-- Node97&#45;&gt;Node51 -->
<g id="edge148" class="edge">
<title>Node97&#45;&gt;Node51</title>
<path fill="none" stroke="midnightblue" d="M3012.37,-251.98C3020.64,-249.84 3029.63,-247.68 3038,-246 3148.93,-223.79 3178.58,-229.64 3290,-210 3296.64,-208.83 3303.62,-207.49 3310.48,-206.11"/>
<polygon fill="midnightblue" stroke="midnightblue" points="3311.31,-209.51 3320.4,-204.07 3309.9,-202.66 3311.31,-209.51"/>
</g>
<!-- Node97&#45;&gt;Node62 -->
<g id="edge150" class="edge">
<title>Node97&#45;&gt;Node62</title>
<path fill="none" stroke="midnightblue" d="M2934.73,-254.27C2847.47,-242.76 2660.73,-218.14 2558.84,-204.71"/>
<polygon fill="midnightblue" stroke="midnightblue" points="2559.02,-201.2 2548.65,-203.36 2558.1,-208.14 2559.02,-201.2"/>
</g>
<!-- Node98&#45;&gt;Node21 -->
<g id="edge162" class="edge">
<title>Node98&#45;&gt;Node21</title>
<path fill="none" stroke="midnightblue" d="M2950.86,-648.39C2918.58,-632.26 2850.72,-594.57 2810,-545 2776.81,-504.6 2757.09,-444.87 2748.73,-414.97"/>
<polygon fill="midnightblue" stroke="midnightblue" points="2752.04,-413.82 2746.07,-405.07 2745.28,-415.64 2752.04,-413.82"/>
</g>
<!-- Node98&#45;&gt;Node51 -->
<g id="edge175" class="edge">
<title>Node98&#45;&gt;Node51</title>
<path fill="none" stroke="midnightblue" d="M3034.15,-652.16C3208.93,-638.29 3675,-595.25 3675,-530.5 3675,-530.5 3675,-530.5 3675,-327.5 3675,-221.77 3522.51,-199.24 3429.39,-195.33"/>
<polygon fill="midnightblue" stroke="midnightblue" points="3429.3,-191.83 3419.18,-194.97 3429.05,-198.82 3429.3,-191.83"/>
</g>
<!-- Node98&#45;&gt;Node61 -->
<g id="edge171" class="edge">
<title>Node98&#45;&gt;Node61</title>
<path fill="none" stroke="midnightblue" d="M2970.87,-648.47C2977.04,-618.05 2993.94,-513.18 2950,-447 2907.19,-382.53 2820.2,-353.12 2757.54,-339.9"/>
<polygon fill="midnightblue" stroke="midnightblue" points="2758.2,-336.47 2747.71,-337.92 2756.82,-343.33 2758.2,-336.47"/>
</g>
<!-- Node98&#45;&gt;Node78 -->
<g id="edge153" class="edge">
<title>Node98&#45;&gt;Node78</title>
<path fill="none" stroke="midnightblue" d="M3027.52,-648.43C3068.87,-641.04 3119.15,-628.88 3132,-612 3140.35,-601.04 3135.59,-594.3 3132,-581 3079.96,-388.15 2851.9,-250.87 2774.11,-208.94"/>
<polygon fill="midnightblue" stroke="midnightblue" points="2775.45,-205.69 2764.97,-204.08 2772.16,-211.87 2775.45,-205.69"/>
</g>
<!-- Node99 -->
<g id="node45" class="node">
<title>Node99</title>
<g id="a_node45"><a xlink:href="../../d1/dbc/geometry__data_8h.html" target="_top" xlink:title=" ">
<polygon fill="none" stroke="red" points="2819,-514.5 2819,-544.5 2941,-544.5 2941,-514.5 2819,-514.5"/>
<text text-anchor="start" x="2827" y="-532.5" font-family="Helvetica,sans-Serif" font-size="10.00">geometries/geometry</text>
<text text-anchor="middle" x="2880" y="-521.5" font-family="Helvetica,sans-Serif" font-size="10.00">_data.h</text>
</a>
</g>
</g>
<!-- Node98&#45;&gt;Node99 -->
<g id="edge154" class="edge">
<title>Node98&#45;&gt;Node99</title>
<path fill="none" stroke="midnightblue" d="M2962.88,-648.31C2949.27,-628.96 2916.12,-581.85 2896.12,-553.41"/>
<polygon fill="midnightblue" stroke="midnightblue" points="2898.74,-551.05 2890.12,-544.89 2893.01,-555.08 2898.74,-551.05"/>
</g>
<!-- Node103 -->
<g id="node48" class="node">
<title>Node103</title>
<g id="a_node48"><a xlink:href="../../d4/df9/pointer__vector_8h.html" target="_top" xlink:title=" ">
<polygon fill="none" stroke="red" points="1591.5,-380.5 1591.5,-410.5 1696.5,-410.5 1696.5,-380.5 1591.5,-380.5"/>
<text text-anchor="start" x="1599.5" y="-398.5" font-family="Helvetica,sans-Serif" font-size="10.00">containers/pointer</text>
<text text-anchor="middle" x="1644" y="-387.5" font-family="Helvetica,sans-Serif" font-size="10.00">_vector.h</text>
</a>
</g>
</g>
<!-- Node98&#45;&gt;Node103 -->
<g id="edge163" class="edge">
<title>Node98&#45;&gt;Node103</title>
<path fill="none" stroke="midnightblue" d="M2903.99,-656.74C2731.06,-655.53 2262.74,-648.86 2113,-612 1937.77,-568.86 1748,-460.23 1675,-415.85"/>
<polygon fill="midnightblue" stroke="midnightblue" points="1676.64,-412.75 1666.29,-410.52 1672.99,-418.72 1676.64,-412.75"/>
</g>
<!-- Node104 -->
<g id="node49" class="node">
<title>Node104</title>
<g id="a_node49"><a xlink:href="../../d8/d88/math__utils_8h.html" target="_top" xlink:title=" ">
<polygon fill="none" stroke="red" points="3263.5,-252 3263.5,-271 3380.5,-271 3380.5,-252 3263.5,-252"/>
<text text-anchor="middle" x="3322" y="-259" font-family="Helvetica,sans-Serif" font-size="10.00">utilities/math_utils.h</text>
</a>
</g>
</g>
<!-- Node98&#45;&gt;Node104 -->
<g id="edge172" class="edge">
<title>Node98&#45;&gt;Node104</title>
<path fill="none" stroke="midnightblue" d="M3034.27,-656.02C3092.83,-652.98 3179.93,-642.98 3249,-612 3301.32,-588.54 3349,-587.84 3349,-530.5 3349,-530.5 3349,-530.5 3349,-394.5 3349,-353.14 3336.12,-305.94 3328.15,-280.7"/>
<polygon fill="midnightblue" stroke="midnightblue" points="3331.42,-279.45 3324.99,-271.02 3324.77,-281.62 3331.42,-279.45"/>
</g>
<!-- Node105 -->
<g id="node50" class="node">
<title>Node105</title>
<g id="a_node50"><a xlink:href="../../d0/d33/integration__info_8h.html" target="_top" xlink:title=" ">
<polygon fill="none" stroke="black" points="2997,-581.5 2997,-611.5 3123,-611.5 3123,-581.5 2997,-581.5"/>
<text text-anchor="start" x="3005" y="-599.5" font-family="Helvetica,sans-Serif" font-size="10.00">integration/integration</text>
<text text-anchor="middle" x="3060" y="-588.5" font-family="Helvetica,sans-Serif" font-size="10.00">_info.h</text>
</a>
</g>
</g>
<!-- Node98&#45;&gt;Node105 -->
<g id="edge176" class="edge">
<title>Node98&#45;&gt;Node105</title>
<path fill="none" stroke="midnightblue" d="M2982.04,-648.48C2994.48,-640.34 3013.67,-627.79 3029.9,-617.18"/>
<polygon fill="midnightblue" stroke="midnightblue" points="3032.1,-619.92 3038.55,-611.52 3028.27,-614.07 3032.1,-619.92"/>
</g>
<!-- Node99&#45;&gt;Node26 -->
<g id="edge155" class="edge">
<title>Node99&#45;&gt;Node26</title>
<path fill="none" stroke="midnightblue" d="M2941.19,-527.23C2987.98,-523.4 3051.92,-511.69 3097,-478 3179.27,-416.52 3184.8,-376.3 3211,-277 3216.52,-256.1 3214.74,-231.12 3212.41,-214.38"/>
<polygon fill="midnightblue" stroke="midnightblue" points="3215.82,-213.57 3210.79,-204.25 3208.91,-214.68 3215.82,-213.57"/>
</g>
<!-- Node100 -->
<g id="node46" class="node">
<title>Node100</title>
<g id="a_node46"><a xlink:href="../../da/d87/integration__point_8h.html" target="_top" xlink:title=" ">
<polygon fill="none" stroke="black" points="2815,-447.5 2815,-477.5 2941,-477.5 2941,-447.5 2815,-447.5"/>
<text text-anchor="start" x="2823" y="-465.5" font-family="Helvetica,sans-Serif" font-size="10.00">integration/integration</text>
<text text-anchor="middle" x="2878" y="-454.5" font-family="Helvetica,sans-Serif" font-size="10.00">_point.h</text>
</a>
</g>
</g>
<!-- Node99&#45;&gt;Node100 -->
<g id="edge156" class="edge">
<title>Node99&#45;&gt;Node100</title>
<path fill="none" stroke="midnightblue" d="M2879.57,-514.4C2879.33,-506.64 2879.02,-496.81 2878.75,-487.86"/>
<polygon fill="midnightblue" stroke="midnightblue" points="2882.24,-487.46 2878.43,-477.58 2875.24,-487.68 2882.24,-487.46"/>
</g>
<!-- Node101 -->
<g id="node47" class="node">
<title>Node101</title>
<g id="a_node47"><a xlink:href="../../da/ded/geometry__dimension_8h.html" target="_top" xlink:title=" ">
<polygon fill="none" stroke="black" points="2209,-380.5 2209,-410.5 2331,-410.5 2331,-380.5 2209,-380.5"/>
<text text-anchor="start" x="2217" y="-398.5" font-family="Helvetica,sans-Serif" font-size="10.00">geometries/geometry</text>
<text text-anchor="middle" x="2270" y="-387.5" font-family="Helvetica,sans-Serif" font-size="10.00">_dimension.h</text>
</a>
</g>
</g>
<!-- Node99&#45;&gt;Node101 -->
<g id="edge159" class="edge">
<title>Node99&#45;&gt;Node101</title>
<path fill="none" stroke="midnightblue" d="M2819,-515.3C2705.42,-490.72 2462.11,-438.07 2341.21,-411.91"/>
<polygon fill="midnightblue" stroke="midnightblue" points="2341.82,-408.46 2331.31,-409.77 2340.34,-415.3 2341.82,-408.46"/>
</g>
<!-- Node100&#45;&gt;Node8 -->
<g id="edge157" class="edge">
<title>Node100&#45;&gt;Node8</title>
<path fill="none" stroke="midnightblue" d="M2878.41,-447.32C2878.94,-400.05 2873.57,-247.05 2786,-179 2761.34,-159.84 2320.13,-142.05 2156.99,-136.1"/>
<polygon fill="midnightblue" stroke="midnightblue" points="2156.77,-132.59 2146.65,-135.72 2156.52,-139.58 2156.77,-132.59"/>
</g>
<!-- Node100&#45;&gt;Node21 -->
<g id="edge158" class="edge">
<title>Node100&#45;&gt;Node21</title>
<path fill="none" stroke="midnightblue" d="M2848.92,-447.4C2825.62,-436.09 2793.19,-420.36 2770.57,-409.39"/>
<polygon fill="midnightblue" stroke="midnightblue" points="2772.06,-406.22 2761.54,-405.01 2769.01,-412.52 2772.06,-406.22"/>
</g>
<!-- Node101&#45;&gt;Node8 -->
<g id="edge160" class="edge">
<title>Node101&#45;&gt;Node8</title>
<path fill="none" stroke="midnightblue" d="M2251.06,-380.44C2239.48,-371.11 2225.03,-358.02 2215,-344 2187.33,-305.31 2203.3,-281.81 2172,-246 2151.79,-222.87 2130.73,-235.09 2113,-210 2101.11,-193.18 2097.72,-169.37 2096.91,-152.91"/>
<polygon fill="midnightblue" stroke="midnightblue" points="2100.41,-152.78 2096.69,-142.86 2093.41,-152.93 2100.41,-152.78"/>
</g>
<!-- Node101&#45;&gt;Node44 -->
<g id="edge161" class="edge">
<title>Node101&#45;&gt;Node44</title>
<path fill="none" stroke="midnightblue" d="M2222.53,-380.48C2182.58,-368.67 2126.16,-352 2088.85,-340.98"/>
<polygon fill="midnightblue" stroke="midnightblue" points="2089.45,-337.51 2078.87,-338.03 2087.46,-344.22 2089.45,-337.51"/>
</g>
<!-- Node103&#45;&gt;Node2 -->
<g id="edge164" class="edge">
<title>Node103&#45;&gt;Node2</title>
<path fill="none" stroke="midnightblue" d="M1696.74,-390.42C1740.03,-387.19 1802.96,-382.78 1858,-380 1978.69,-373.91 2831.85,-386.42 2945,-344 2965.41,-336.35 2962.7,-320.93 2983,-313 3105.76,-265.03 3471.9,-359.11 3575,-277 3604.54,-253.48 3599,-233.26 3599,-195.5 3599,-195.5 3599,-195.5 3599,-132 3599,-101.2 3596.53,-89.01 3575,-67 3549.11,-40.53 3507.66,-27.61 3478.98,-21.52"/>
<polygon fill="midnightblue" stroke="midnightblue" points="3479.52,-18.06 3469.04,-19.58 3478.18,-24.93 3479.52,-18.06"/>
</g>
<!-- Node103&#45;&gt;Node3 -->
<g id="edge165" class="edge">
<title>Node103&#45;&gt;Node3</title>
<path fill="none" stroke="midnightblue" d="M1591.32,-381.73C1588.18,-381.11 1585.05,-380.52 1582,-380 1399.81,-348.66 1269.39,-438.26 1179,-277 1154.17,-232.7 1164.54,-73.99 1169,-67 1184.15,-43.29 1213.6,-30.54 1238.08,-23.79"/>
<polygon fill="midnightblue" stroke="midnightblue" points="1239.02,-27.16 1247.86,-21.33 1237.31,-20.38 1239.02,-27.16"/>
</g>
<!-- Node103&#45;&gt;Node5 -->
<g id="edge166" class="edge">
<title>Node103&#45;&gt;Node5</title>
<path fill="none" stroke="midnightblue" d="M1591.33,-381.67C1588.18,-381.06 1585.05,-380.5 1582,-380 1414.58,-352.62 1357.94,-410.81 1202,-344 1099.2,-299.96 1114.55,-223.64 1012,-179 873.48,-118.7 812.16,-204.1 674,-143 639.74,-127.85 631.72,-118.21 611,-87 600.51,-71.21 594.17,-50.38 590.66,-35.46"/>
<polygon fill="midnightblue" stroke="midnightblue" points="594.02,-34.44 588.5,-25.39 587.17,-35.9 594.02,-34.44"/>
</g>
<!-- Node103&#45;&gt;Node8 -->
<g id="edge169" class="edge">
<title>Node103&#45;&gt;Node8</title>
<path fill="none" stroke="midnightblue" d="M1646.97,-380.48C1656.11,-341.17 1687.73,-229.48 1761,-179 1804.62,-148.95 1953,-138.91 2037.27,-135.6"/>
<polygon fill="midnightblue" stroke="midnightblue" points="2037.6,-139.09 2047.46,-135.22 2037.34,-132.09 2037.6,-139.09"/>
</g>
<!-- Node103&#45;&gt;Node16 -->
<g id="edge167" class="edge">
<title>Node103&#45;&gt;Node16</title>
<path fill="none" stroke="midnightblue" d="M1640.28,-380.14C1625.07,-321.5 1567.69,-100.17 1550.74,-34.79"/>
<polygon fill="midnightblue" stroke="midnightblue" points="1554.12,-33.87 1548.22,-25.07 1547.34,-35.63 1554.12,-33.87"/>
</g>
<!-- Node103&#45;&gt;Node44 -->
<g id="edge170" class="edge">
<title>Node103&#45;&gt;Node44</title>
<path fill="none" stroke="midnightblue" d="M1696.66,-386.07C1771.15,-374.14 1907.06,-352.38 1986.87,-339.61"/>
<polygon fill="midnightblue" stroke="midnightblue" points="1987.47,-343.06 1996.79,-338.02 1986.36,-336.14 1987.47,-343.06"/>
</g>
<!-- Node103&#45;&gt;Node87 -->
<g id="edge168" class="edge">
<title>Node103&#45;&gt;Node87</title>
<path fill="none" stroke="midnightblue" d="M1591.34,-381.63C1588.19,-381.03 1585.06,-380.48 1582,-380 1389.49,-349.73 1327.6,-412.08 1145,-344 1069.3,-315.78 997,-250.79 962.71,-216.91"/>
<polygon fill="midnightblue" stroke="midnightblue" points="965.14,-214.4 955.6,-209.79 960.19,-219.34 965.14,-214.4"/>
</g>
<!-- Node104&#45;&gt;Node26 -->
<g id="edge174" class="edge">
<title>Node104&#45;&gt;Node26</title>
<path fill="none" stroke="midnightblue" d="M3306.76,-251.73C3287.78,-240.82 3255.15,-222.05 3232.85,-209.22"/>
<polygon fill="midnightblue" stroke="midnightblue" points="3234.41,-206.08 3224,-204.13 3230.92,-212.15 3234.41,-206.08"/>
</g>
<!-- Node104&#45;&gt;Node51 -->
<g id="edge173" class="edge">
<title>Node104&#45;&gt;Node51</title>
<path fill="none" stroke="midnightblue" d="M3326.99,-251.73C3332.59,-241.89 3341.83,-225.66 3348.95,-213.16"/>
<polygon fill="midnightblue" stroke="midnightblue" points="3352.18,-214.55 3354.09,-204.13 3346.1,-211.09 3352.18,-214.55"/>
</g>
<!-- Node105&#45;&gt;Node8 -->
<g id="edge177" class="edge">
<title>Node105&#45;&gt;Node8</title>
<path fill="none" stroke="midnightblue" d="M3092.81,-581.41C3133.35,-561.53 3197,-521.13 3197,-463.5 3197,-463.5 3197,-463.5 3197,-327.5 3197,-290.31 3203.89,-272.7 3178,-246 3137.66,-204.4 2983.23,-188.06 2926,-179 2777.73,-155.52 2321.89,-140.46 2157.17,-135.66"/>
<polygon fill="midnightblue" stroke="midnightblue" points="2156.85,-132.15 2146.75,-135.36 2156.64,-139.15 2156.85,-132.15"/>
</g>
<!-- Node105&#45;&gt;Node55 -->
<g id="edge180" class="edge">
<title>Node105&#45;&gt;Node55</title>
<path fill="none" stroke="midnightblue" d="M3060.6,-581.44C3060.96,-565.02 3060.54,-537.16 3055,-514 3038.86,-446.54 3031.89,-419.69 2975,-380 2816.67,-269.53 2740.8,-321.75 2553,-277 2467.04,-256.52 2368.1,-224.41 2317.19,-207.25"/>
<polygon fill="midnightblue" stroke="midnightblue" points="2318.27,-203.92 2307.67,-204.02 2316.02,-210.55 2318.27,-203.92"/>
</g>
<!-- Node105&#45;&gt;Node61 -->
<g id="edge179" class="edge">
<title>Node105&#45;&gt;Node61</title>
<path fill="none" stroke="midnightblue" d="M3057.01,-581.33C3047.92,-542.1 3016.79,-431.62 2945,-380 2915.57,-358.84 2823.78,-344.59 2757.6,-336.76"/>
<polygon fill="midnightblue" stroke="midnightblue" points="2757.96,-333.28 2747.62,-335.61 2757.15,-340.24 2757.96,-333.28"/>
</g>
<!-- Node105&#45;&gt;Node99 -->
<g id="edge178" class="edge">
<title>Node105&#45;&gt;Node99</title>
<path fill="none" stroke="midnightblue" d="M3020.94,-581.4C2993.82,-571.6 2957.49,-558.48 2928.5,-548.02"/>
<polygon fill="midnightblue" stroke="midnightblue" points="2929.58,-544.68 2918.98,-544.58 2927.2,-551.26 2929.58,-544.68"/>
</g>
</g>
</svg>
