<?xml version="1.0" encoding="UTF-8" standalone="no"?>
<!DOCTYPE svg PUBLIC "-//W3C//DTD SVG 1.1//EN"
 "http://www.w3.org/Graphics/SVG/1.1/DTD/svg11.dtd">
<!-- Generated by graphviz version 7.1.0 (0)
 -->
<!-- Title: /software/kratos/doxygen/applications/ThermalDEMApplication/custom_elements/thermal_spheric_continuum_particle.h Pages: 1 -->
<svg width="873pt" height="324pt"
 viewBox="0.00 0.00 873.00 324.00" xmlns="http://www.w3.org/2000/svg" xmlns:xlink="http://www.w3.org/1999/xlink">
<g id="graph0" class="graph" transform="scale(1 1) rotate(0) translate(4 320)">
<title>/software/kratos/doxygen/applications/ThermalDEMApplication/custom_elements/thermal_spheric_continuum_particle.h</title>
<!-- Node1 -->
<g id="node1" class="node">
<title>Node1</title>
<g id="a_node1"><a xlink:title=" ">
<polygon fill="#999999" stroke="#666666" points="737,-316 537,-316 537,-264 737,-264 737,-316"/>
<text text-anchor="start" x="545" y="-304" font-family="Helvetica,sans-Serif" font-size="10.00">/software/kratos/doxygen</text>
<text text-anchor="start" x="545" y="-293" font-family="Helvetica,sans-Serif" font-size="10.00">/applications/ThermalDEMApplication</text>
<text text-anchor="start" x="545" y="-282" font-family="Helvetica,sans-Serif" font-size="10.00">/custom_elements/thermal_spheric</text>
<text text-anchor="middle" x="637" y="-271" font-family="Helvetica,sans-Serif" font-size="10.00">_continuum_particle.h</text>
</a>
</g>
</g>
<!-- Node2 -->
<g id="node2" class="node">
<title>Node2</title>
<g id="a_node2"><a xlink:href="../../df/dfd/sintering__spheric__continuum__particle_8h.html" target="_top" xlink:title=" ">
<polygon fill="white" stroke="#666666" points="564,-228 364,-228 364,-176 564,-176 564,-228"/>
<text text-anchor="start" x="372" y="-216" font-family="Helvetica,sans-Serif" font-size="10.00">/software/kratos/doxygen</text>
<text text-anchor="start" x="372" y="-205" font-family="Helvetica,sans-Serif" font-size="10.00">/applications/ThermalDEMApplication</text>
<text text-anchor="start" x="372" y="-194" font-family="Helvetica,sans-Serif" font-size="10.00">/custom_elements/sintering_spheric</text>
<text text-anchor="middle" x="464" y="-183" font-family="Helvetica,sans-Serif" font-size="10.00">_continuum_particle.h</text>
</a>
</g>
</g>
<!-- Node1&#45;&gt;Node2 -->
<g id="edge1" class="edge">
<title>Node1&#45;&gt;Node2</title>
<path fill="none" stroke="#63b8ff" d="M575.86,-258.61C556.02,-248.75 534.24,-237.92 515.2,-228.45"/>
<polygon fill="#63b8ff" stroke="#63b8ff" points="574.16,-261.67 584.67,-262.99 577.28,-255.4 574.16,-261.67"/>
</g>
<!-- Node7 -->
<g id="node7" class="node">
<title>Node7</title>
<g id="a_node7"><a xlink:href="../../dc/de7/thermal__dem__application_8h.html" target="_top" xlink:title=" ">
<polygon fill="white" stroke="#666666" points="760,-134.5 560,-134.5 560,-93.5 760,-93.5 760,-134.5"/>
<text text-anchor="start" x="568" y="-122.5" font-family="Helvetica,sans-Serif" font-size="10.00">/software/kratos/doxygen</text>
<text text-anchor="start" x="568" y="-111.5" font-family="Helvetica,sans-Serif" font-size="10.00">/applications/ThermalDEMApplication</text>
<text text-anchor="middle" x="660" y="-100.5" font-family="Helvetica,sans-Serif" font-size="10.00">/thermal_dem_application.h</text>
</a>
</g>
</g>
<!-- Node1&#45;&gt;Node7 -->
<g id="edge9" class="edge">
<title>Node1&#45;&gt;Node7</title>
<path fill="none" stroke="#63b8ff" d="M641.85,-252.29C646.58,-216.52 653.59,-163.47 657.37,-134.92"/>
<polygon fill="#63b8ff" stroke="#63b8ff" points="638.38,-251.83 640.54,-262.2 645.32,-252.74 638.38,-251.83"/>
</g>
<!-- Node9 -->
<g id="node9" class="node">
<title>Node9</title>
<g id="a_node9"><a xlink:href="../../dd/d8d/thermal__spheric__continuum__particle_8cpp.html" target="_top" xlink:title=" ">
<polygon fill="white" stroke="#666666" points="865,-228 665,-228 665,-176 865,-176 865,-228"/>
<text text-anchor="start" x="673" y="-216" font-family="Helvetica,sans-Serif" font-size="10.00">/software/kratos/doxygen</text>
<text text-anchor="start" x="673" y="-205" font-family="Helvetica,sans-Serif" font-size="10.00">/applications/ThermalDEMApplication</text>
<text text-anchor="start" x="673" y="-194" font-family="Helvetica,sans-Serif" font-size="10.00">/custom_elements/thermal_spheric</text>
<text text-anchor="middle" x="765" y="-183" font-family="Helvetica,sans-Serif" font-size="10.00">_continuum_particle.cpp</text>
</a>
</g>
</g>
<!-- Node1&#45;&gt;Node9 -->
<g id="edge8" class="edge">
<title>Node1&#45;&gt;Node9</title>
<path fill="none" stroke="#63b8ff" d="M684.26,-257.24C698.39,-247.76 713.68,-237.48 727.12,-228.45"/>
<polygon fill="#63b8ff" stroke="#63b8ff" points="682.32,-254.34 675.97,-262.82 686.22,-260.15 682.32,-254.34"/>
</g>
<!-- Node3 -->
<g id="node3" class="node">
<title>Node3</title>
<g id="a_node3"><a xlink:href="../../dc/df6/sintering__continuum_8h.html" target="_top" xlink:title=" ">
<polygon fill="white" stroke="#666666" points="324,-140 124,-140 124,-88 324,-88 324,-140"/>
<text text-anchor="start" x="132" y="-128" font-family="Helvetica,sans-Serif" font-size="10.00">/software/kratos/doxygen</text>
<text text-anchor="start" x="132" y="-117" font-family="Helvetica,sans-Serif" font-size="10.00">/applications/ThermalDEMApplication</text>
<text text-anchor="start" x="132" y="-106" font-family="Helvetica,sans-Serif" font-size="10.00">/custom_constitutive/sintering</text>
<text text-anchor="middle" x="224" y="-95" font-family="Helvetica,sans-Serif" font-size="10.00">_continuum.h</text>
</a>
</g>
</g>
<!-- Node2&#45;&gt;Node3 -->
<g id="edge2" class="edge">
<title>Node2&#45;&gt;Node3</title>
<path fill="none" stroke="#63b8ff" d="M382.26,-171.71C353.87,-161.54 322.29,-150.22 294.85,-140.39"/>
<polygon fill="#63b8ff" stroke="#63b8ff" points="380.95,-174.96 391.54,-175.04 383.31,-168.37 380.95,-174.96"/>
</g>
<!-- Node6 -->
<g id="node6" class="node">
<title>Node6</title>
<g id="a_node6"><a xlink:href="../../dd/d0a/sintering__spheric__continuum__particle_8cpp.html" target="_top" xlink:title=" ">
<polygon fill="white" stroke="#666666" points="542,-140 342,-140 342,-88 542,-88 542,-140"/>
<text text-anchor="start" x="350" y="-128" font-family="Helvetica,sans-Serif" font-size="10.00">/software/kratos/doxygen</text>
<text text-anchor="start" x="350" y="-117" font-family="Helvetica,sans-Serif" font-size="10.00">/applications/ThermalDEMApplication</text>
<text text-anchor="start" x="350" y="-106" font-family="Helvetica,sans-Serif" font-size="10.00">/custom_elements/sintering_spheric</text>
<text text-anchor="middle" x="442" y="-95" font-family="Helvetica,sans-Serif" font-size="10.00">_continuum_particle.cpp</text>
</a>
</g>
</g>
<!-- Node2&#45;&gt;Node6 -->
<g id="edge5" class="edge">
<title>Node2&#45;&gt;Node6</title>
<path fill="none" stroke="#63b8ff" d="M454.67,-164.54C452.6,-156.43 450.44,-148.01 448.51,-140.45"/>
<polygon fill="#63b8ff" stroke="#63b8ff" points="451.27,-165.38 457.14,-174.2 458.06,-163.64 451.27,-165.38"/>
</g>
<!-- Node2&#45;&gt;Node7 -->
<g id="edge6" class="edge">
<title>Node2&#45;&gt;Node7</title>
<path fill="none" stroke="#63b8ff" d="M532.27,-171.05C559.51,-159.09 590.15,-145.65 614.58,-134.93"/>
<polygon fill="#63b8ff" stroke="#63b8ff" points="531.15,-167.71 523.4,-174.94 533.96,-174.13 531.15,-167.71"/>
</g>
<!-- Node4 -->
<g id="node4" class="node">
<title>Node4</title>
<g id="a_node4"><a xlink:href="../../d1/dde/sintering__continuum_8cpp.html" target="_top" xlink:title=" ">
<polygon fill="white" stroke="#666666" points="200,-52 0,-52 0,0 200,0 200,-52"/>
<text text-anchor="start" x="8" y="-40" font-family="Helvetica,sans-Serif" font-size="10.00">/software/kratos/doxygen</text>
<text text-anchor="start" x="8" y="-29" font-family="Helvetica,sans-Serif" font-size="10.00">/applications/ThermalDEMApplication</text>
<text text-anchor="start" x="8" y="-18" font-family="Helvetica,sans-Serif" font-size="10.00">/custom_constitutive/sintering</text>
<text text-anchor="middle" x="100" y="-7" font-family="Helvetica,sans-Serif" font-size="10.00">_continuum.cpp</text>
</a>
</g>
</g>
<!-- Node3&#45;&gt;Node4 -->
<g id="edge3" class="edge">
<title>Node3&#45;&gt;Node4</title>
<path fill="none" stroke="#63b8ff" d="M178.21,-81.24C164.53,-71.76 149.72,-61.48 136.7,-52.45"/>
<polygon fill="#63b8ff" stroke="#63b8ff" points="176.01,-83.98 186.22,-86.8 180,-78.22 176.01,-83.98"/>
</g>
<!-- Node5 -->
<g id="node5" class="node">
<title>Node5</title>
<g id="a_node5"><a xlink:href="../../d3/d07/_thermal_d_e_m_application_2custom__python_2add__custom__constitutive__laws__to__python_8cpp.html" target="_top" xlink:title=" ">
<polygon fill="white" stroke="#666666" points="438,-52 218,-52 218,0 438,0 438,-52"/>
<text text-anchor="start" x="226" y="-40" font-family="Helvetica,sans-Serif" font-size="10.00">/software/kratos/doxygen</text>
<text text-anchor="start" x="226" y="-29" font-family="Helvetica,sans-Serif" font-size="10.00">/applications/ThermalDEMApplication</text>
<text text-anchor="start" x="226" y="-18" font-family="Helvetica,sans-Serif" font-size="10.00">/custom_python/add_custom_constitutive</text>
<text text-anchor="middle" x="328" y="-7" font-family="Helvetica,sans-Serif" font-size="10.00">_laws_to_python.cpp</text>
</a>
</g>
</g>
<!-- Node3&#45;&gt;Node5 -->
<g id="edge4" class="edge">
<title>Node3&#45;&gt;Node5</title>
<path fill="none" stroke="#63b8ff" d="M263.4,-80.42C274.59,-71.16 286.62,-61.22 297.22,-52.45"/>
<polygon fill="#63b8ff" stroke="#63b8ff" points="261.28,-77.63 255.81,-86.7 265.74,-83.02 261.28,-77.63"/>
</g>
<!-- Node8 -->
<g id="node8" class="node">
<title>Node8</title>
<g id="a_node8"><a xlink:href="../../dd/db1/thermal__dem__application_8cpp.html" target="_top" xlink:title=" ">
<polygon fill="white" stroke="#666666" points="760,-46.5 560,-46.5 560,-5.5 760,-5.5 760,-46.5"/>
<text text-anchor="start" x="568" y="-34.5" font-family="Helvetica,sans-Serif" font-size="10.00">/software/kratos/doxygen</text>
<text text-anchor="start" x="568" y="-23.5" font-family="Helvetica,sans-Serif" font-size="10.00">/applications/ThermalDEMApplication</text>
<text text-anchor="middle" x="660" y="-12.5" font-family="Helvetica,sans-Serif" font-size="10.00">/thermal_dem_application.cpp</text>
</a>
</g>
</g>
<!-- Node7&#45;&gt;Node8 -->
<g id="edge7" class="edge">
<title>Node7&#45;&gt;Node8</title>
<path fill="none" stroke="#63b8ff" d="M660,-81.56C660,-69.95 660,-57.13 660,-46.84"/>
<polygon fill="#63b8ff" stroke="#63b8ff" points="656.5,-81.54 660,-91.54 663.5,-81.54 656.5,-81.54"/>
</g>
</g>
</svg>
