<?xml version="1.0" encoding="UTF-8" standalone="no"?>
<!DOCTYPE svg PUBLIC "-//W3C//DTD SVG 1.1//EN"
 "http://www.w3.org/Graphics/SVG/1.1/DTD/svg11.dtd">
<!-- Generated by graphviz version 2.43.0 (0)
 -->
<!-- Title: /home/runner/work/Documentation/Documentation/master/kratos/python/add_global_pointers_to_python.cpp Pages: 1 -->
<svg width="3060pt" height="944pt"
 viewBox="0.00 0.00 3060.08 944.00" xmlns="http://www.w3.org/2000/svg" xmlns:xlink="http://www.w3.org/1999/xlink">
<g id="graph0" class="graph" transform="scale(1 1) rotate(0) translate(4 940)">
<title>/home/runner/work/Documentation/Documentation/master/kratos/python/add_global_pointers_to_python.cpp</title>
<!-- Node1 -->
<g id="node1" class="node">
<title>Node1</title>
<g id="a_node1"><a xlink:title=" ">
<polygon fill="#bfbfbf" stroke="black" points="413.58,-883.5 413.58,-935.5 600.58,-935.5 600.58,-883.5 413.58,-883.5"/>
<text text-anchor="start" x="421.58" y="-923.5" font-family="Helvetica,sans-Serif" font-size="10.00">/home/runner/work/Documentation</text>
<text text-anchor="start" x="421.58" y="-912.5" font-family="Helvetica,sans-Serif" font-size="10.00">/Documentation/master/kratos</text>
<text text-anchor="start" x="421.58" y="-901.5" font-family="Helvetica,sans-Serif" font-size="10.00">/python/add_global_pointers</text>
<text text-anchor="middle" x="507.08" y="-890.5" font-family="Helvetica,sans-Serif" font-size="10.00">_to_python.cpp</text>
</a>
</g>
</g>
<!-- Node2 -->
<g id="node2" class="node">
<title>Node2</title>
<g id="a_node2"><a xlink:href="../../dd/d62/define__python_8h.html" target="_top" xlink:title=" ">
<polygon fill="none" stroke="black" points="141.08,-822 141.08,-841 279.08,-841 279.08,-822 141.08,-822"/>
<text text-anchor="middle" x="210.08" y="-829" font-family="Helvetica,sans-Serif" font-size="10.00">includes/define_python.h</text>
</a>
</g>
</g>
<!-- Node1&#45;&gt;Node2 -->
<g id="edge1" class="edge">
<title>Node1&#45;&gt;Node2</title>
<path fill="none" stroke="midnightblue" d="M413.52,-884.56C359.95,-870.85 295.29,-854.3 253.46,-843.6"/>
<polygon fill="midnightblue" stroke="midnightblue" points="254.16,-840.16 243.6,-841.08 252.42,-846.95 254.16,-840.16"/>
</g>
<!-- Node20 -->
<g id="node16" class="node">
<title>Node20</title>
<g id="a_node16"><a xlink:href="../../da/d42/process_8h.html" target="_top" xlink:title=" ">
<polygon fill="none" stroke="black" points="1945.58,-682.5 1945.58,-701.5 2060.58,-701.5 2060.58,-682.5 1945.58,-682.5"/>
<text text-anchor="middle" x="2003.08" y="-689.5" font-family="Helvetica,sans-Serif" font-size="10.00">processes/process.h</text>
</a>
</g>
</g>
<!-- Node1&#45;&gt;Node20 -->
<g id="edge20" class="edge">
<title>Node1&#45;&gt;Node20</title>
<path fill="none" stroke="midnightblue" d="M600.68,-907.74C894.26,-904.88 1784.68,-892.5 1906.08,-847 1950.8,-830.24 1966.23,-821.37 1990.08,-780 2002.21,-758.96 2004.29,-730.5 2004.12,-711.95"/>
<polygon fill="midnightblue" stroke="midnightblue" points="2007.62,-711.71 2003.8,-701.83 2000.62,-711.94 2007.62,-711.71"/>
</g>
<!-- Node88 -->
<g id="node38" class="node">
<title>Node88</title>
<g id="a_node38"><a xlink:href="../../de/dfc/add__global__pointers__to__python_8h.html" target="_top" xlink:title=" ">
<polygon fill="none" stroke="black" points="308.08,-816.5 308.08,-846.5 460.08,-846.5 460.08,-816.5 308.08,-816.5"/>
<text text-anchor="start" x="316.08" y="-834.5" font-family="Helvetica,sans-Serif" font-size="10.00">python/add_global_pointers</text>
<text text-anchor="middle" x="384.08" y="-823.5" font-family="Helvetica,sans-Serif" font-size="10.00">_to_python.h</text>
</a>
</g>
</g>
<!-- Node1&#45;&gt;Node88 -->
<g id="edge87" class="edge">
<title>Node1&#45;&gt;Node88</title>
<path fill="none" stroke="midnightblue" d="M466.47,-883.4C449.97,-873.21 431.2,-861.61 415.75,-852.07"/>
<polygon fill="midnightblue" stroke="midnightblue" points="417.42,-848.99 407.08,-846.71 413.74,-854.94 417.42,-848.99"/>
</g>
<!-- Node89 -->
<g id="node39" class="node">
<title>Node89</title>
<g id="a_node39"><a xlink:href="../../de/d44/global__pointers__vector_8h.html" target="_top" xlink:title=" ">
<polygon fill="none" stroke="black" points="615.08,-425.5 615.08,-455.5 761.08,-455.5 761.08,-425.5 615.08,-425.5"/>
<text text-anchor="start" x="623.08" y="-443.5" font-family="Helvetica,sans-Serif" font-size="10.00">containers/global_pointers</text>
<text text-anchor="middle" x="688.08" y="-432.5" font-family="Helvetica,sans-Serif" font-size="10.00">_vector.h</text>
</a>
</g>
</g>
<!-- Node1&#45;&gt;Node89 -->
<g id="edge89" class="edge">
<title>Node1&#45;&gt;Node89</title>
<path fill="none" stroke="midnightblue" d="M501.89,-883.4C496.27,-853.97 488.08,-803.67 488.08,-760 488.08,-760 488.08,-760 488.08,-691 488.08,-585.08 599.17,-498.46 655.77,-461.2"/>
<polygon fill="midnightblue" stroke="midnightblue" points="657.86,-464.02 664.36,-455.65 654.06,-458.14 657.86,-464.02"/>
</g>
<!-- Node100 -->
<g id="node43" class="node">
<title>Node100</title>
<g id="a_node43"><a xlink:href="../../dc/dbe/pointer__communicator_8h.html" target="_top" xlink:title=" ">
<polygon fill="none" stroke="black" points="1139.58,-621 1139.58,-640 1314.58,-640 1314.58,-621 1139.58,-621"/>
<text text-anchor="middle" x="1227.08" y="-628" font-family="Helvetica,sans-Serif" font-size="10.00">utilities/pointer_communicator.h</text>
</a>
</g>
</g>
<!-- Node1&#45;&gt;Node100 -->
<g id="edge100" class="edge">
<title>Node1&#45;&gt;Node100</title>
<path fill="none" stroke="midnightblue" d="M572.25,-883.43C721.96,-825.83 1086,-685.78 1195.45,-643.67"/>
<polygon fill="midnightblue" stroke="midnightblue" points="1196.86,-646.88 1204.94,-640.02 1194.35,-640.34 1196.86,-646.88"/>
</g>
<!-- Node141 -->
<g id="node47" class="node">
<title>Node141</title>
<g id="a_node47"><a xlink:href="../../d2/d3d/find__global__nodal__neighbours__process_8h.html" target="_top" xlink:title=" ">
<polygon fill="none" stroke="black" points="1737.08,-816.5 1737.08,-846.5 1897.08,-846.5 1897.08,-816.5 1737.08,-816.5"/>
<text text-anchor="start" x="1745.08" y="-834.5" font-family="Helvetica,sans-Serif" font-size="10.00">processes/find_global</text>
<text text-anchor="middle" x="1817.08" y="-823.5" font-family="Helvetica,sans-Serif" font-size="10.00">_nodal_neighbours_process.h</text>
</a>
</g>
</g>
<!-- Node1&#45;&gt;Node141 -->
<g id="edge128" class="edge">
<title>Node1&#45;&gt;Node141</title>
<path fill="none" stroke="midnightblue" d="M600.77,-903.06C843.09,-889.01 1488.23,-851.58 1726.77,-837.74"/>
<polygon fill="midnightblue" stroke="midnightblue" points="1727.01,-841.23 1736.79,-837.16 1726.61,-834.24 1727.01,-841.23"/>
</g>
<!-- Node3 -->
<g id="node3" class="node">
<title>Node3</title>
<g id="a_node3"><a xlink:title=" ">
<polygon fill="none" stroke="#bfbfbf" points="381.08,-0.5 381.08,-30.5 505.08,-30.5 505.08,-0.5 381.08,-0.5"/>
<text text-anchor="start" x="389.08" y="-18.5" font-family="Helvetica,sans-Serif" font-size="10.00">intrusive_ptr/intrusive</text>
<text text-anchor="middle" x="443.08" y="-7.5" font-family="Helvetica,sans-Serif" font-size="10.00">_ptr.hpp</text>
</a>
</g>
</g>
<!-- Node2&#45;&gt;Node3 -->
<g id="edge2" class="edge">
<title>Node2&#45;&gt;Node3</title>
<path fill="none" stroke="midnightblue" d="M140.88,-829.15C100.58,-824.65 51.81,-812.18 21.08,-780 -6.25,-751.38 2.08,-732.58 2.08,-693 2.08,-693 2.08,-693 2.08,-132 2.08,-56.75 245.4,-29.56 370.57,-20.56"/>
<polygon fill="midnightblue" stroke="midnightblue" points="371.1,-24.03 380.83,-19.84 370.61,-17.05 371.1,-24.03"/>
</g>
<!-- Node4 -->
<g id="node4" class="node">
<title>Node4</title>
<g id="a_node4"><a xlink:title=" ">
<polygon fill="none" stroke="#bfbfbf" points="330.58,-749.5 330.58,-768.5 449.58,-768.5 449.58,-749.5 330.58,-749.5"/>
<text text-anchor="middle" x="390.08" y="-756.5" font-family="Helvetica,sans-Serif" font-size="10.00">pybind11/pybind11.h</text>
</a>
</g>
</g>
<!-- Node2&#45;&gt;Node4 -->
<g id="edge3" class="edge">
<title>Node2&#45;&gt;Node4</title>
<path fill="none" stroke="midnightblue" d="M231.8,-822C263.42,-809.61 322.33,-786.54 358.68,-772.3"/>
<polygon fill="midnightblue" stroke="midnightblue" points="360.26,-775.44 368.29,-768.53 357.71,-768.92 360.26,-775.44"/>
</g>
<!-- Node5 -->
<g id="node5" class="node">
<title>Node5</title>
<g id="a_node5"><a xlink:title=" ">
<polygon fill="none" stroke="#bfbfbf" points="30.08,-749.5 30.08,-768.5 116.08,-768.5 116.08,-749.5 30.08,-749.5"/>
<text text-anchor="middle" x="73.08" y="-756.5" font-family="Helvetica,sans-Serif" font-size="10.00">pybind11/stl.h</text>
</a>
</g>
</g>
<!-- Node2&#45;&gt;Node5 -->
<g id="edge4" class="edge">
<title>Node2&#45;&gt;Node5</title>
<path fill="none" stroke="midnightblue" d="M193.56,-822C170,-809.87 126.56,-787.52 98.78,-773.22"/>
<polygon fill="midnightblue" stroke="midnightblue" points="100.16,-770 89.67,-768.53 96.96,-776.22 100.16,-770"/>
</g>
<!-- Node6 -->
<g id="node6" class="node">
<title>Node6</title>
<g id="a_node6"><a xlink:title=" ">
<polygon fill="none" stroke="#bfbfbf" points="134.08,-749.5 134.08,-768.5 274.08,-768.5 274.08,-749.5 134.08,-749.5"/>
<text text-anchor="middle" x="204.08" y="-756.5" font-family="Helvetica,sans-Serif" font-size="10.00">pybind11/stl/filesystem.h</text>
</a>
</g>
</g>
<!-- Node2&#45;&gt;Node6 -->
<g id="edge5" class="edge">
<title>Node2&#45;&gt;Node6</title>
<path fill="none" stroke="midnightblue" d="M209.35,-821.86C208.44,-811.18 206.87,-792.72 205.68,-778.73"/>
<polygon fill="midnightblue" stroke="midnightblue" points="209.16,-778.38 204.83,-768.72 202.19,-778.98 209.16,-778.38"/>
</g>
<!-- Node7 -->
<g id="node7" class="node">
<title>Node7</title>
<g id="a_node7"><a xlink:href="../../df/d67/define_8h.html" target="_top" xlink:title=" ">
<polygon fill="none" stroke="black" points="908.58,-123.5 908.58,-142.5 1007.58,-142.5 1007.58,-123.5 908.58,-123.5"/>
<text text-anchor="middle" x="958.08" y="-130.5" font-family="Helvetica,sans-Serif" font-size="10.00">includes/define.h</text>
</a>
</g>
</g>
<!-- Node2&#45;&gt;Node7 -->
<g id="edge6" class="edge">
<title>Node2&#45;&gt;Node7</title>
<path fill="none" stroke="midnightblue" d="M229.98,-821.9C246.75,-813.61 270.05,-799.46 283.08,-780 305.11,-747.12 302.08,-732.58 302.08,-693 302.08,-693 302.08,-693 302.08,-311 302.08,-237.4 337.55,-214.39 402.08,-179 444.76,-155.6 763.22,-141.2 898.05,-136.1"/>
<polygon fill="midnightblue" stroke="midnightblue" points="898.35,-139.59 908.21,-135.72 898.09,-132.59 898.35,-139.59"/>
</g>
<!-- Node8 -->
<g id="node8" class="node">
<title>Node8</title>
<g id="a_node8"><a xlink:title=" ">
<polygon fill="none" stroke="#bfbfbf" points="1134.58,-6 1134.58,-25 1199.58,-25 1199.58,-6 1134.58,-6"/>
<text text-anchor="middle" x="1167.08" y="-13" font-family="Helvetica,sans-Serif" font-size="10.00">stdexcept</text>
</a>
</g>
</g>
<!-- Node7&#45;&gt;Node8 -->
<g id="edge7" class="edge">
<title>Node7&#45;&gt;Node8</title>
<path fill="none" stroke="midnightblue" d="M979.6,-123.43C1000.17,-114.98 1031.83,-101.29 1058.08,-87 1090.13,-69.56 1125.23,-45.99 1146.71,-31.01"/>
<polygon fill="midnightblue" stroke="midnightblue" points="1148.86,-33.77 1155.03,-25.16 1144.84,-28.05 1148.86,-33.77"/>
</g>
<!-- Node9 -->
<g id="node9" class="node">
<title>Node9</title>
<g id="a_node9"><a xlink:title=" ">
<polygon fill="none" stroke="#bfbfbf" points="1049.08,-6 1049.08,-25 1105.08,-25 1105.08,-6 1049.08,-6"/>
<text text-anchor="middle" x="1077.08" y="-13" font-family="Helvetica,sans-Serif" font-size="10.00">sstream</text>
</a>
</g>
</g>
<!-- Node7&#45;&gt;Node9 -->
<g id="edge8" class="edge">
<title>Node7&#45;&gt;Node9</title>
<path fill="none" stroke="midnightblue" d="M979.94,-123.4C997.08,-115.82 1020.69,-103.42 1037.08,-87 1052.11,-71.95 1063.33,-50.1 1070.01,-34.72"/>
<polygon fill="midnightblue" stroke="midnightblue" points="1073.33,-35.86 1073.89,-25.28 1066.85,-33.19 1073.33,-35.86"/>
</g>
<!-- Node10 -->
<g id="node10" class="node">
<title>Node10</title>
<g id="a_node10"><a xlink:href="../../dc/d25/kratos__export__api_8h.html" target="_top" xlink:title=" ">
<polygon fill="none" stroke="black" points="1259.08,-0.5 1259.08,-30.5 1387.08,-30.5 1387.08,-0.5 1259.08,-0.5"/>
<text text-anchor="start" x="1267.08" y="-18.5" font-family="Helvetica,sans-Serif" font-size="10.00">includes/kratos_export</text>
<text text-anchor="middle" x="1323.08" y="-7.5" font-family="Helvetica,sans-Serif" font-size="10.00">_api.h</text>
</a>
</g>
</g>
<!-- Node7&#45;&gt;Node10 -->
<g id="edge9" class="edge">
<title>Node7&#45;&gt;Node10</title>
<path fill="none" stroke="midnightblue" d="M985.22,-123.41C1045.11,-104.46 1189.55,-58.75 1268.8,-33.68"/>
<polygon fill="midnightblue" stroke="midnightblue" points="1270.12,-36.93 1278.6,-30.58 1268.01,-30.26 1270.12,-36.93"/>
</g>
<!-- Node11 -->
<g id="node11" class="node">
<title>Node11</title>
<g id="a_node11"><a xlink:href="../../d9/dc0/smart__pointers_8h.html" target="_top" xlink:title=" ">
<polygon fill="none" stroke="red" points="884.58,-67.5 884.58,-86.5 1027.58,-86.5 1027.58,-67.5 884.58,-67.5"/>
<text text-anchor="middle" x="956.08" y="-74.5" font-family="Helvetica,sans-Serif" font-size="10.00">includes/smart_pointers.h</text>
</a>
</g>
</g>
<!-- Node7&#45;&gt;Node11 -->
<g id="edge10" class="edge">
<title>Node7&#45;&gt;Node11</title>
<path fill="none" stroke="midnightblue" d="M957.75,-123.08C957.49,-116.01 957.12,-105.86 956.79,-96.99"/>
<polygon fill="midnightblue" stroke="midnightblue" points="960.28,-96.61 956.41,-86.75 953.28,-96.87 960.28,-96.61"/>
</g>
<!-- Node15 -->
<g id="node13" class="node">
<title>Node15</title>
<g id="a_node13"><a xlink:href="../../dd/d2d/exception_8h.html" target="_top" xlink:title=" ">
<polygon fill="none" stroke="red" points="1274.58,-67.5 1274.58,-86.5 1391.58,-86.5 1391.58,-67.5 1274.58,-67.5"/>
<text text-anchor="middle" x="1333.08" y="-74.5" font-family="Helvetica,sans-Serif" font-size="10.00">includes/exception.h</text>
</a>
</g>
</g>
<!-- Node7&#45;&gt;Node15 -->
<g id="edge13" class="edge">
<title>Node7&#45;&gt;Node15</title>
<path fill="none" stroke="midnightblue" d="M1007.88,-124.83C1073.72,-115.35 1190.04,-98.6 1264.25,-87.91"/>
<polygon fill="midnightblue" stroke="midnightblue" points="1265.04,-91.34 1274.43,-86.45 1264.04,-84.41 1265.04,-91.34"/>
</g>
<!-- Node11&#45;&gt;Node3 -->
<g id="edge12" class="edge">
<title>Node11&#45;&gt;Node3</title>
<path fill="none" stroke="midnightblue" d="M884.48,-67.7C786.95,-56.38 613.3,-36.24 515.4,-24.89"/>
<polygon fill="midnightblue" stroke="midnightblue" points="515.63,-21.39 505.3,-23.72 514.83,-28.34 515.63,-21.39"/>
</g>
<!-- Node12 -->
<g id="node12" class="node">
<title>Node12</title>
<g id="a_node12"><a xlink:title=" ">
<polygon fill="none" stroke="#bfbfbf" points="1843.08,-6 1843.08,-25 1903.08,-25 1903.08,-6 1843.08,-6"/>
<text text-anchor="middle" x="1873.08" y="-13" font-family="Helvetica,sans-Serif" font-size="10.00">iostream</text>
</a>
</g>
</g>
<!-- Node11&#45;&gt;Node12 -->
<g id="edge11" class="edge">
<title>Node11&#45;&gt;Node12</title>
<path fill="none" stroke="midnightblue" d="M1027.66,-71.36C1210.65,-59.48 1691.15,-28.3 1833.07,-19.1"/>
<polygon fill="midnightblue" stroke="midnightblue" points="1833.32,-22.59 1843.08,-18.45 1832.87,-15.6 1833.32,-22.59"/>
</g>
<!-- Node15&#45;&gt;Node8 -->
<g id="edge14" class="edge">
<title>Node15&#45;&gt;Node8</title>
<path fill="none" stroke="midnightblue" d="M1309.3,-67.48C1280.7,-57.22 1232.53,-39.96 1200.28,-28.4"/>
<polygon fill="midnightblue" stroke="midnightblue" points="1201.42,-25.09 1190.82,-25.01 1199.06,-31.68 1201.42,-25.09"/>
</g>
<!-- Node15&#45;&gt;Node9 -->
<g id="edge17" class="edge">
<title>Node15&#45;&gt;Node9</title>
<path fill="none" stroke="midnightblue" d="M1289.25,-67.45C1247.2,-59.01 1182.02,-45.33 1126.08,-31 1122.28,-30.02 1118.32,-28.95 1114.38,-27.85"/>
<polygon fill="midnightblue" stroke="midnightblue" points="1115.29,-24.47 1104.71,-25.06 1113.35,-31.19 1115.29,-24.47"/>
</g>
<!-- Node15&#45;&gt;Node10 -->
<g id="edge19" class="edge">
<title>Node15&#45;&gt;Node10</title>
<path fill="none" stroke="midnightblue" d="M1331.65,-67.48C1330.46,-60.4 1328.71,-49.97 1327.1,-40.39"/>
<polygon fill="midnightblue" stroke="midnightblue" points="1330.55,-39.8 1325.44,-30.52 1323.65,-40.96 1330.55,-39.8"/>
</g>
<!-- Node15&#45;&gt;Node12 -->
<g id="edge16" class="edge">
<title>Node15&#45;&gt;Node12</title>
<path fill="none" stroke="midnightblue" d="M1391.65,-68.7C1396.53,-68.12 1401.39,-67.54 1406.08,-67 1563.85,-48.75 1751.85,-29.04 1832.78,-20.65"/>
<polygon fill="midnightblue" stroke="midnightblue" points="1833.43,-24.1 1843.02,-19.59 1832.71,-17.14 1833.43,-24.1"/>
</g>
<!-- Node16 -->
<g id="node14" class="node">
<title>Node16</title>
<g id="a_node14"><a xlink:title=" ">
<polygon fill="none" stroke="#bfbfbf" points="2574.08,-6 2574.08,-25 2618.08,-25 2618.08,-6 2574.08,-6"/>
<text text-anchor="middle" x="2596.08" y="-13" font-family="Helvetica,sans-Serif" font-size="10.00">string</text>
</a>
</g>
</g>
<!-- Node15&#45;&gt;Node16 -->
<g id="edge15" class="edge">
<title>Node15&#45;&gt;Node16</title>
<path fill="none" stroke="midnightblue" d="M1391.89,-73.23C1613.56,-62.79 2394.65,-25.99 2563.67,-18.03"/>
<polygon fill="midnightblue" stroke="midnightblue" points="2563.87,-21.52 2573.69,-17.55 2563.54,-14.53 2563.87,-21.52"/>
</g>
<!-- Node17 -->
<g id="node15" class="node">
<title>Node17</title>
<g id="a_node15"><a xlink:title=" ">
<polygon fill="none" stroke="#bfbfbf" points="763.58,-6 763.58,-25 810.58,-25 810.58,-6 763.58,-6"/>
<text text-anchor="middle" x="787.08" y="-13" font-family="Helvetica,sans-Serif" font-size="10.00">vector</text>
</a>
</g>
</g>
<!-- Node15&#45;&gt;Node17 -->
<g id="edge18" class="edge">
<title>Node15&#45;&gt;Node17</title>
<path fill="none" stroke="midnightblue" d="M1274.39,-69.6C1160.07,-57.15 910.85,-29.99 820.58,-20.15"/>
<polygon fill="midnightblue" stroke="midnightblue" points="820.94,-16.67 810.62,-19.06 820.18,-23.63 820.94,-16.67"/>
</g>
<!-- Node20&#45;&gt;Node7 -->
<g id="edge21" class="edge">
<title>Node20&#45;&gt;Node7</title>
<path fill="none" stroke="midnightblue" d="M1945.54,-690.41C1697.03,-687.71 725.75,-675.29 668.08,-646 476.31,-548.6 371.24,-310.98 541.08,-179 568.69,-157.55 789.57,-142.96 898.19,-137.01"/>
<polygon fill="midnightblue" stroke="midnightblue" points="898.55,-140.49 908.35,-136.46 898.17,-133.5 898.55,-140.49"/>
</g>
<!-- Node21 -->
<g id="node17" class="node">
<title>Node21</title>
<g id="a_node17"><a xlink:href="../../d0/dac/kratos__flags_8h.html" target="_top" xlink:title=" ">
<polygon fill="none" stroke="black" points="2077.08,-621 2077.08,-640 2205.08,-640 2205.08,-621 2077.08,-621"/>
<text text-anchor="middle" x="2141.08" y="-628" font-family="Helvetica,sans-Serif" font-size="10.00">includes/kratos_flags.h</text>
</a>
</g>
</g>
<!-- Node20&#45;&gt;Node21 -->
<g id="edge22" class="edge">
<title>Node20&#45;&gt;Node21</title>
<path fill="none" stroke="midnightblue" d="M2022.86,-682.48C2046.22,-672.4 2085.3,-655.55 2112.09,-644"/>
<polygon fill="midnightblue" stroke="midnightblue" points="2113.55,-647.18 2121.35,-640.01 2110.78,-640.75 2113.55,-647.18"/>
</g>
<!-- Node85 -->
<g id="node35" class="node">
<title>Node85</title>
<g id="a_node35"><a xlink:href="../../db/d71/kratos__parameters_8h.html" target="_top" xlink:title=" ">
<polygon fill="none" stroke="black" points="2378.58,-364 2378.58,-383 2539.58,-383 2539.58,-364 2378.58,-364"/>
<text text-anchor="middle" x="2459.08" y="-371" font-family="Helvetica,sans-Serif" font-size="10.00">includes/kratos_parameters.h</text>
</a>
</g>
</g>
<!-- Node20&#45;&gt;Node85 -->
<g id="edge82" class="edge">
<title>Node20&#45;&gt;Node85</title>
<path fill="none" stroke="midnightblue" d="M2059.04,-682.45C2102.07,-675.06 2162.67,-662.9 2214.08,-646 2282.68,-623.45 2308.22,-627.09 2362.08,-579 2420.1,-527.2 2446.39,-433.26 2455.33,-393.3"/>
<polygon fill="midnightblue" stroke="midnightblue" points="2458.79,-393.85 2457.44,-383.34 2451.94,-392.39 2458.79,-393.85"/>
</g>
<!-- Node21&#45;&gt;Node7 -->
<g id="edge23" class="edge">
<title>Node21&#45;&gt;Node7</title>
<path fill="none" stroke="midnightblue" d="M2076.86,-626.71C1859.01,-617.2 1161.18,-586.21 1152.08,-579 1124.52,-557.16 1130.08,-538.16 1130.08,-503 1130.08,-503 1130.08,-503 1130.08,-439.5 1130.08,-353.55 1065.87,-349.28 994.08,-302 958.79,-278.76 929.64,-301.08 906.08,-266 884.53,-233.9 890.01,-214.17 906.08,-179 911.86,-166.36 923.14,-155.91 933.71,-148.27"/>
<polygon fill="midnightblue" stroke="midnightblue" points="935.93,-151 942.3,-142.53 932.04,-145.18 935.93,-151"/>
</g>
<!-- Node22 -->
<g id="node18" class="node">
<title>Node22</title>
<g id="a_node18"><a xlink:href="../../d9/da0/flags_8h.html" target="_top" xlink:title=" ">
<polygon fill="none" stroke="black" points="2274.58,-246.5 2274.58,-265.5 2377.58,-265.5 2377.58,-246.5 2274.58,-246.5"/>
<text text-anchor="middle" x="2326.08" y="-253.5" font-family="Helvetica,sans-Serif" font-size="10.00">containers/flags.h</text>
</a>
</g>
</g>
<!-- Node21&#45;&gt;Node22 -->
<g id="edge24" class="edge">
<title>Node21&#45;&gt;Node22</title>
<path fill="none" stroke="midnightblue" d="M2177.52,-620.91C2230.85,-608.18 2324.39,-585.12 2329.08,-579 2347.54,-554.94 2332.55,-340.36 2327.56,-275.49"/>
<polygon fill="midnightblue" stroke="midnightblue" points="2331.05,-275.2 2326.78,-265.5 2324.07,-275.74 2331.05,-275.2"/>
</g>
<!-- Node23 -->
<g id="node19" class="node">
<title>Node23</title>
<g id="a_node19"><a xlink:href="../../dc/d8e/kratos__components_8h.html" target="_top" xlink:title=" ">
<polygon fill="none" stroke="red" points="2154.58,-554 2154.58,-573 2319.58,-573 2319.58,-554 2154.58,-554"/>
<text text-anchor="middle" x="2237.08" y="-561" font-family="Helvetica,sans-Serif" font-size="10.00">includes/kratos_components.h</text>
</a>
</g>
</g>
<!-- Node21&#45;&gt;Node23 -->
<g id="edge28" class="edge">
<title>Node21&#45;&gt;Node23</title>
<path fill="none" stroke="midnightblue" d="M2154.03,-620.73C2169.94,-609.96 2197.13,-591.55 2216.05,-578.74"/>
<polygon fill="midnightblue" stroke="midnightblue" points="2218.02,-581.63 2224.34,-573.13 2214.1,-575.84 2218.02,-581.63"/>
</g>
<!-- Node22&#45;&gt;Node7 -->
<g id="edge27" class="edge">
<title>Node22&#45;&gt;Node7</title>
<path fill="none" stroke="midnightblue" d="M2274.52,-252.98C2072.57,-245.01 1345.36,-215.97 1322.08,-210 1291.86,-202.25 1288.87,-188.31 1259.08,-179 1177.8,-153.6 1079.55,-142.35 1017.92,-137.49"/>
<polygon fill="midnightblue" stroke="midnightblue" points="1017.84,-133.98 1007.61,-136.71 1017.31,-140.96 1017.84,-133.98"/>
</g>
<!-- Node22&#45;&gt;Node12 -->
<g id="edge26" class="edge">
<title>Node22&#45;&gt;Node12</title>
<path fill="none" stroke="midnightblue" d="M2322.15,-246.4C2311.26,-223.45 2278.56,-159.95 2234.08,-123 2228.27,-118.17 2117.27,-69.36 2110.08,-67 2042.49,-44.82 1960.79,-29.91 1913.11,-22.34"/>
<polygon fill="midnightblue" stroke="midnightblue" points="1913.6,-18.87 1903.18,-20.79 1912.52,-25.79 1913.6,-18.87"/>
</g>
<!-- Node22&#45;&gt;Node16 -->
<g id="edge25" class="edge">
<title>Node22&#45;&gt;Node16</title>
<path fill="none" stroke="midnightblue" d="M2332.86,-246.26C2355.22,-217.81 2429.65,-126.23 2506.08,-67 2525.38,-52.05 2549.63,-38.71 2568.09,-29.5"/>
<polygon fill="midnightblue" stroke="midnightblue" points="2569.71,-32.6 2577.17,-25.07 2566.64,-26.31 2569.71,-32.6"/>
</g>
<!-- Node23&#45;&gt;Node7 -->
<g id="edge32" class="edge">
<title>Node23&#45;&gt;Node7</title>
<path fill="none" stroke="midnightblue" d="M2157.35,-553.98C1999.59,-536.51 1653.12,-495.03 1540.08,-456 1513.56,-446.84 1510.81,-436.21 1485.08,-425 1436.76,-403.95 1419.75,-411.5 1372.08,-389 1349.12,-378.16 1346.63,-369.69 1324.08,-358 1264.95,-327.35 1248.08,-323.62 1185.08,-302 1130,-283.09 1108.27,-297.19 1059.08,-266 1013.94,-237.37 981.24,-181.06 966.62,-152.11"/>
<polygon fill="midnightblue" stroke="midnightblue" points="969.6,-150.24 962.06,-142.79 963.31,-153.31 969.6,-150.24"/>
</g>
<!-- Node23&#45;&gt;Node12 -->
<g id="edge30" class="edge">
<title>Node23&#45;&gt;Node12</title>
<path fill="none" stroke="midnightblue" d="M2242.74,-553.73C2258.75,-528.71 2305.18,-454.56 2336.08,-389 2353.72,-351.59 2337.76,-329 2369.08,-302 2427.73,-251.43 2569.12,-315.07 2534.08,-246 2455.41,-90.89 2355.4,-106.79 2186.08,-67 2089.28,-44.25 1973.23,-28.46 1913.31,-21.14"/>
<polygon fill="midnightblue" stroke="midnightblue" points="1913.48,-17.63 1903.14,-19.91 1912.65,-24.58 1913.48,-17.63"/>
</g>
<!-- Node23&#45;&gt;Node16 -->
<g id="edge29" class="edge">
<title>Node23&#45;&gt;Node16</title>
<path fill="none" stroke="midnightblue" d="M2319.74,-555.95C2455.33,-540.21 2710.08,-487.43 2710.08,-313 2710.08,-313 2710.08,-313 2710.08,-193.5 2710.08,-136.93 2755.91,-113.77 2724.08,-67 2702.8,-35.73 2658.88,-23.82 2628.47,-19.29"/>
<polygon fill="midnightblue" stroke="midnightblue" points="2628.7,-15.79 2618.33,-17.97 2627.8,-22.73 2628.7,-15.79"/>
</g>
<!-- Node23&#45;&gt;Node22 -->
<g id="edge81" class="edge">
<title>Node23&#45;&gt;Node22</title>
<path fill="none" stroke="midnightblue" d="M2236.96,-553.99C2236.7,-534.24 2236.08,-483.73 2236.08,-441.5 2236.08,-441.5 2236.08,-441.5 2236.08,-372.5 2236.08,-339.4 2240.05,-328.34 2260.08,-302 2270.18,-288.73 2285.35,-277.99 2298.61,-270.34"/>
<polygon fill="midnightblue" stroke="midnightblue" points="2300.29,-273.41 2307.39,-265.55 2296.94,-267.27 2300.29,-273.41"/>
</g>
<!-- Node24 -->
<g id="node20" class="node">
<title>Node24</title>
<g id="a_node20"><a xlink:title=" ">
<polygon fill="none" stroke="#bfbfbf" points="1100.08,-246.5 1100.08,-265.5 1138.08,-265.5 1138.08,-246.5 1100.08,-246.5"/>
<text text-anchor="middle" x="1119.08" y="-253.5" font-family="Helvetica,sans-Serif" font-size="10.00">map</text>
</a>
</g>
</g>
<!-- Node23&#45;&gt;Node24 -->
<g id="edge31" class="edge">
<title>Node23&#45;&gt;Node24</title>
<path fill="none" stroke="midnightblue" d="M2224.89,-553.85C2202.18,-538.28 2151.34,-505.85 2103.08,-492 1897.03,-432.86 1823.88,-528.35 1622.08,-456 1599.57,-447.93 1599.15,-436.33 1578.08,-425 1539.41,-404.21 1526.23,-406.78 1486.08,-389 1424.84,-361.88 1411.04,-351.87 1351.08,-322 1333.29,-313.14 1329.78,-308.76 1311.08,-302 1281.29,-291.23 1194.22,-272.51 1148.26,-262.97"/>
<polygon fill="midnightblue" stroke="midnightblue" points="1148.82,-259.51 1138.32,-260.91 1147.4,-266.36 1148.82,-259.51"/>
</g>
<!-- Node26 -->
<g id="node21" class="node">
<title>Node26</title>
<g id="a_node21"><a xlink:href="../../d9/dd1/data__communicator_8h.html" target="_top" xlink:title=" ">
<polygon fill="none" stroke="black" points="1928.08,-492.5 1928.08,-511.5 2094.08,-511.5 2094.08,-492.5 1928.08,-492.5"/>
<text text-anchor="middle" x="2011.08" y="-499.5" font-family="Helvetica,sans-Serif" font-size="10.00">includes/data_communicator.h</text>
</a>
</g>
</g>
<!-- Node23&#45;&gt;Node26 -->
<g id="edge33" class="edge">
<title>Node23&#45;&gt;Node26</title>
<path fill="none" stroke="midnightblue" d="M2204.7,-553.98C2164.85,-543.48 2097.06,-525.64 2053.2,-514.09"/>
<polygon fill="midnightblue" stroke="midnightblue" points="2053.97,-510.67 2043.4,-511.51 2052.18,-517.44 2053.97,-510.67"/>
</g>
<!-- Node26&#45;&gt;Node7 -->
<g id="edge46" class="edge">
<title>Node26&#45;&gt;Node7</title>
<path fill="none" stroke="midnightblue" d="M1927.99,-492.97C1804.5,-480.95 1586.08,-459.32 1578.08,-456 1557.96,-447.63 1559.37,-435.15 1540.08,-425 1489.68,-398.47 1468.52,-413.47 1417.08,-389 1395.15,-378.57 1392.81,-370.66 1372.08,-358 1349.69,-344.31 1292.76,-310.93 1268.08,-302 1192.6,-274.68 1161.11,-305.25 1091.08,-266 1045,-240.17 1048.11,-215.67 1010.08,-179 999.34,-168.64 986.69,-157.67 976.56,-149.15"/>
<polygon fill="midnightblue" stroke="midnightblue" points="978.66,-146.35 968.74,-142.64 974.18,-151.73 978.66,-146.35"/>
</g>
<!-- Node26&#45;&gt;Node12 -->
<g id="edge35" class="edge">
<title>Node26&#45;&gt;Node12</title>
<path fill="none" stroke="midnightblue" d="M2013.99,-492.45C2024.01,-463.7 2059.2,-368.62 2108.08,-302 2121.85,-283.24 2135.45,-286.69 2146.08,-266 2175.35,-209.08 2197.11,-177.21 2163.08,-123 2147.87,-98.76 2073.81,-77.25 2047.08,-67 2002.17,-49.78 1948.84,-35.12 1913.16,-26.1"/>
<polygon fill="midnightblue" stroke="midnightblue" points="1913.69,-22.62 1903.14,-23.59 1911.99,-29.41 1913.69,-22.62"/>
</g>
<!-- Node26&#45;&gt;Node16 -->
<g id="edge34" class="edge">
<title>Node26&#45;&gt;Node16</title>
<path fill="none" stroke="midnightblue" d="M2043.64,-492.43C2101.96,-477.3 2228.21,-445.5 2336.08,-425 2444.21,-404.45 2487.48,-446.89 2581.08,-389 2616.11,-367.34 2634.08,-354.18 2634.08,-313 2634.08,-313 2634.08,-313 2634.08,-132 2634.08,-95.75 2616.99,-56.17 2605.73,-34.03"/>
<polygon fill="midnightblue" stroke="midnightblue" points="2608.81,-32.37 2601.05,-25.16 2602.62,-35.64 2608.81,-32.37"/>
</g>
<!-- Node26&#45;&gt;Node22 -->
<g id="edge45" class="edge">
<title>Node26&#45;&gt;Node22</title>
<path fill="none" stroke="midnightblue" d="M2036.37,-492.48C2055.17,-485.14 2080.49,-473.04 2098.08,-456 2154.39,-401.46 2123.33,-351.55 2184.08,-302 2206.83,-283.45 2237.32,-272.5 2264.21,-266.06"/>
<polygon fill="midnightblue" stroke="midnightblue" points="2265.32,-269.4 2274.32,-263.81 2263.8,-262.57 2265.32,-269.4"/>
</g>
<!-- Node27 -->
<g id="node22" class="node">
<title>Node27</title>
<g id="a_node22"><a xlink:title=" ">
<polygon fill="none" stroke="#bfbfbf" points="1351.58,-431 1351.58,-450 1420.58,-450 1420.58,-431 1351.58,-431"/>
<text text-anchor="middle" x="1386.08" y="-438" font-family="Helvetica,sans-Serif" font-size="10.00">type_traits</text>
</a>
</g>
</g>
<!-- Node26&#45;&gt;Node27 -->
<g id="edge36" class="edge">
<title>Node26&#45;&gt;Node27</title>
<path fill="none" stroke="midnightblue" d="M1927.77,-493.07C1793.78,-480.31 1534.95,-455.67 1430.95,-445.77"/>
<polygon fill="midnightblue" stroke="midnightblue" points="1431.08,-442.27 1420.8,-444.8 1430.42,-449.24 1431.08,-442.27"/>
</g>
<!-- Node28 -->
<g id="node23" class="node">
<title>Node28</title>
<g id="a_node23"><a xlink:href="../../d9/d36/array__1d_8h.html" target="_top" xlink:title=" ">
<polygon fill="none" stroke="red" points="1944.08,-246.5 1944.08,-265.5 2066.08,-265.5 2066.08,-246.5 1944.08,-246.5"/>
<text text-anchor="middle" x="2005.08" y="-253.5" font-family="Helvetica,sans-Serif" font-size="10.00">containers/array_1d.h</text>
</a>
</g>
</g>
<!-- Node26&#45;&gt;Node28 -->
<g id="edge37" class="edge">
<title>Node26&#45;&gt;Node28</title>
<path fill="none" stroke="midnightblue" d="M2010.87,-492.32C2010.01,-457.18 2006.76,-325.12 2005.54,-275.76"/>
<polygon fill="midnightblue" stroke="midnightblue" points="2009.04,-275.49 2005.29,-265.58 2002.04,-275.66 2009.04,-275.49"/>
</g>
<!-- Node50 -->
<g id="node25" class="node">
<title>Node50</title>
<g id="a_node25"><a xlink:href="../../da/dae/mpi__serializer_8h.html" target="_top" xlink:title=" ">
<polygon fill="none" stroke="black" points="1630.58,-431 1630.58,-450 1767.58,-450 1767.58,-431 1630.58,-431"/>
<text text-anchor="middle" x="1699.08" y="-438" font-family="Helvetica,sans-Serif" font-size="10.00">includes/mpi_serializer.h</text>
</a>
</g>
</g>
<!-- Node26&#45;&gt;Node50 -->
<g id="edge47" class="edge">
<title>Node26&#45;&gt;Node50</title>
<path fill="none" stroke="midnightblue" d="M1966.38,-492.48C1910.31,-481.78 1814.22,-463.46 1753.81,-451.94"/>
<polygon fill="midnightblue" stroke="midnightblue" points="1754.18,-448.44 1743.7,-450.01 1752.87,-455.32 1754.18,-448.44"/>
</g>
<!-- Node28&#45;&gt;Node7 -->
<g id="edge40" class="edge">
<title>Node28&#45;&gt;Node7</title>
<path fill="none" stroke="midnightblue" d="M1944.03,-246.89C1941.01,-246.57 1938.01,-246.27 1935.08,-246 1648.29,-219.62 1570.3,-267.44 1288.08,-210 1248.27,-201.9 1241.3,-189.61 1202.08,-179 1140.04,-162.22 1067.42,-149.71 1017.64,-142.2"/>
<polygon fill="midnightblue" stroke="midnightblue" points="1018.09,-138.73 1007.69,-140.71 1017.06,-145.65 1018.09,-138.73"/>
</g>
<!-- Node28&#45;&gt;Node12 -->
<g id="edge39" class="edge">
<title>Node28&#45;&gt;Node12</title>
<path fill="none" stroke="midnightblue" d="M2004.06,-246.1C2002.1,-231.4 1996.89,-201.46 1985.08,-179 1975.26,-160.31 1966.7,-159.93 1954.08,-143 1926.17,-105.52 1897.64,-58.52 1883.04,-33.7"/>
<polygon fill="midnightblue" stroke="midnightblue" points="1886.06,-31.93 1877.99,-25.06 1880.02,-35.46 1886.06,-31.93"/>
</g>
<!-- Node28&#45;&gt;Node16 -->
<g id="edge38" class="edge">
<title>Node28&#45;&gt;Node16</title>
<path fill="none" stroke="midnightblue" d="M2018.34,-246.41C2053.75,-223.74 2154.05,-161.4 2244.08,-123 2282.62,-106.57 2383.98,-79.12 2424.08,-67 2472.81,-52.27 2529.49,-35.74 2564.07,-25.73"/>
<polygon fill="midnightblue" stroke="midnightblue" points="2565.42,-28.98 2574.06,-22.84 2563.48,-22.26 2565.42,-28.98"/>
</g>
<!-- Node32 -->
<g id="node24" class="node">
<title>Node32</title>
<g id="a_node24"><a xlink:href="../../d9/d3e/ublas__interface_8h.html" target="_top" xlink:title=" ">
<polygon fill="none" stroke="red" points="1832.08,-185 1832.08,-204 1976.08,-204 1976.08,-185 1832.08,-185"/>
<text text-anchor="middle" x="1904.08" y="-192" font-family="Helvetica,sans-Serif" font-size="10.00">includes/ublas_interface.h</text>
</a>
</g>
</g>
<!-- Node28&#45;&gt;Node32 -->
<g id="edge41" class="edge">
<title>Node28&#45;&gt;Node32</title>
<path fill="none" stroke="midnightblue" d="M1990.61,-246.48C1974.11,-236.75 1946.9,-220.73 1927.4,-209.24"/>
<polygon fill="midnightblue" stroke="midnightblue" points="1928.92,-206.07 1918.53,-204.01 1925.37,-212.1 1928.92,-206.07"/>
</g>
<!-- Node32&#45;&gt;Node7 -->
<g id="edge44" class="edge">
<title>Node32&#45;&gt;Node7</title>
<path fill="none" stroke="midnightblue" d="M1831.81,-188.95C1651.38,-177.61 1183.72,-148.19 1017.66,-137.75"/>
<polygon fill="midnightblue" stroke="midnightblue" points="1017.83,-134.25 1007.63,-137.12 1017.39,-141.24 1017.83,-134.25"/>
</g>
<!-- Node32&#45;&gt;Node12 -->
<g id="edge43" class="edge">
<title>Node32&#45;&gt;Node12</title>
<path fill="none" stroke="midnightblue" d="M1898.02,-184.68C1891.71,-174.97 1882.2,-158.64 1878.08,-143 1868.32,-105.94 1869.54,-60.67 1871.31,-35.57"/>
<polygon fill="midnightblue" stroke="midnightblue" points="1874.82,-35.53 1872.15,-25.28 1867.85,-34.96 1874.82,-35.53"/>
</g>
<!-- Node32&#45;&gt;Node16 -->
<g id="edge42" class="edge">
<title>Node32&#45;&gt;Node16</title>
<path fill="none" stroke="midnightblue" d="M1915.75,-184.81C1936.56,-169.75 1981.97,-138.9 2025.08,-123 2109.41,-91.9 2136.33,-106.45 2224.08,-87 2258.18,-79.44 2265.95,-74.39 2300.08,-67 2395.38,-46.37 2509.42,-28.93 2563.96,-21.03"/>
<polygon fill="midnightblue" stroke="midnightblue" points="2564.65,-24.47 2574.05,-19.58 2563.65,-17.54 2564.65,-24.47"/>
</g>
<!-- Node50&#45;&gt;Node7 -->
<g id="edge51" class="edge">
<title>Node50&#45;&gt;Node7</title>
<path fill="none" stroke="midnightblue" d="M1677.03,-430.98C1638.4,-416.07 1555.92,-384.32 1486.08,-358 1443.05,-341.78 1431.07,-340.75 1389.08,-322 1371.66,-314.22 1368.93,-308.76 1351.08,-302 1288.19,-278.16 1265.18,-294.13 1204.08,-266 1165.32,-248.15 1160.29,-235.52 1126.08,-210 1108.06,-196.55 1105.84,-189.76 1086.08,-179 1059.24,-164.38 1026.72,-153.02 1001.17,-145.37"/>
<polygon fill="midnightblue" stroke="midnightblue" points="1001.98,-141.96 991.4,-142.52 1000.02,-148.68 1001.98,-141.96"/>
</g>
<!-- Node50&#45;&gt;Node12 -->
<g id="edge50" class="edge">
<title>Node50&#45;&gt;Node12</title>
<path fill="none" stroke="midnightblue" d="M1724.06,-430.84C1742.37,-423.02 1765.91,-409.55 1777.08,-389 1783.67,-376.9 1777.55,-371.77 1777.08,-358 1774.64,-285.65 1766.08,-267.89 1766.08,-195.5 1766.08,-195.5 1766.08,-195.5 1766.08,-132 1766.08,-101.2 1770.51,-90.77 1790.08,-67 1803.75,-50.41 1824.37,-37.83 1841.64,-29.37"/>
<polygon fill="midnightblue" stroke="midnightblue" points="1843.23,-32.49 1850.82,-25.1 1840.28,-26.14 1843.23,-32.49"/>
</g>
<!-- Node50&#45;&gt;Node16 -->
<g id="edge48" class="edge">
<title>Node50&#45;&gt;Node16</title>
<path fill="none" stroke="midnightblue" d="M1767.81,-439.02C1958.19,-437.2 2482.76,-428.59 2549.08,-389 2583.19,-368.64 2596.08,-352.72 2596.08,-313 2596.08,-313 2596.08,-313 2596.08,-132 2596.08,-97.86 2596.08,-58.05 2596.08,-35.21"/>
<polygon fill="midnightblue" stroke="midnightblue" points="2599.58,-35.19 2596.08,-25.19 2592.58,-35.19 2599.58,-35.19"/>
</g>
<!-- Node51 -->
<g id="node26" class="node">
<title>Node51</title>
<g id="a_node26"><a xlink:title=" ">
<polygon fill="none" stroke="#bfbfbf" points="1650.08,-246.5 1650.08,-265.5 1700.08,-265.5 1700.08,-246.5 1650.08,-246.5"/>
<text text-anchor="middle" x="1675.08" y="-253.5" font-family="Helvetica,sans-Serif" font-size="10.00">cstring</text>
</a>
</g>
</g>
<!-- Node50&#45;&gt;Node51 -->
<g id="edge49" class="edge">
<title>Node50&#45;&gt;Node51</title>
<path fill="none" stroke="midnightblue" d="M1665.82,-430.93C1644.68,-423.57 1618.95,-410.63 1606.08,-389 1581.54,-347.74 1628.89,-296.89 1656.76,-272.07"/>
<polygon fill="midnightblue" stroke="midnightblue" points="1659.08,-274.7 1664.36,-265.51 1654.5,-269.4 1659.08,-274.7"/>
</g>
<!-- Node52 -->
<g id="node27" class="node">
<title>Node52</title>
<g id="a_node27"><a xlink:href="../../d0/d1b/stream__serializer_8h.html" target="_top" xlink:title=" ">
<polygon fill="none" stroke="black" points="1614.58,-364 1614.58,-383 1767.58,-383 1767.58,-364 1614.58,-364"/>
<text text-anchor="middle" x="1691.08" y="-371" font-family="Helvetica,sans-Serif" font-size="10.00">includes/stream_serializer.h</text>
</a>
</g>
</g>
<!-- Node50&#45;&gt;Node52 -->
<g id="edge52" class="edge">
<title>Node50&#45;&gt;Node52</title>
<path fill="none" stroke="midnightblue" d="M1698,-430.73C1696.83,-421.18 1694.91,-405.62 1693.4,-393.28"/>
<polygon fill="midnightblue" stroke="midnightblue" points="1696.84,-392.62 1692.15,-383.13 1689.89,-393.48 1696.84,-392.62"/>
</g>
<!-- Node52&#45;&gt;Node7 -->
<g id="edge56" class="edge">
<title>Node52&#45;&gt;Node7</title>
<path fill="none" stroke="midnightblue" d="M1629.67,-363.99C1577.46,-355.89 1500.89,-341.97 1436.08,-322 1414.39,-315.31 1410.68,-309.01 1389.08,-302 1320.99,-279.9 1296.35,-297.55 1232.08,-266 1228.66,-264.32 1129.47,-180.74 1126.08,-179 1092.25,-161.62 1051.03,-150.45 1017.9,-143.58"/>
<polygon fill="midnightblue" stroke="midnightblue" points="1018.38,-140.11 1007.89,-141.59 1017.01,-146.98 1018.38,-140.11"/>
</g>
<!-- Node52&#45;&gt;Node12 -->
<g id="edge55" class="edge">
<title>Node52&#45;&gt;Node12</title>
<path fill="none" stroke="midnightblue" d="M1694.24,-363.79C1703.19,-338.3 1728.08,-261.43 1728.08,-195.5 1728.08,-195.5 1728.08,-195.5 1728.08,-132 1728.08,-101.2 1730.77,-89.22 1752.08,-67 1773.64,-44.52 1806.73,-31.64 1832.85,-24.53"/>
<polygon fill="midnightblue" stroke="midnightblue" points="1834.02,-27.84 1842.85,-21.99 1832.29,-21.06 1834.02,-27.84"/>
</g>
<!-- Node52&#45;&gt;Node16 -->
<g id="edge53" class="edge">
<title>Node52&#45;&gt;Node16</title>
<path fill="none" stroke="midnightblue" d="M1767.63,-367.59C1925.66,-356.37 2282.02,-325.13 2387.08,-266 2488.93,-208.68 2562.63,-81.12 2587.18,-34.24"/>
<polygon fill="midnightblue" stroke="midnightblue" points="2590.33,-35.77 2591.79,-25.28 2584.1,-32.57 2590.33,-35.77"/>
</g>
<!-- Node52&#45;&gt;Node51 -->
<g id="edge54" class="edge">
<title>Node52&#45;&gt;Node51</title>
<path fill="none" stroke="midnightblue" d="M1689.88,-363.82C1687.31,-345.26 1681.23,-301.34 1677.71,-275.97"/>
<polygon fill="midnightblue" stroke="midnightblue" points="1681.14,-275.21 1676.3,-265.78 1674.21,-276.17 1681.14,-275.21"/>
</g>
<!-- Node53 -->
<g id="node28" class="node">
<title>Node53</title>
<g id="a_node28"><a xlink:href="../../dd/d5f/serializer_8h.html" target="_top" xlink:title=" ">
<polygon fill="none" stroke="black" points="1444.58,-302.5 1444.58,-321.5 1557.58,-321.5 1557.58,-302.5 1444.58,-302.5"/>
<text text-anchor="middle" x="1501.08" y="-309.5" font-family="Helvetica,sans-Serif" font-size="10.00">includes/serializer.h</text>
</a>
</g>
</g>
<!-- Node52&#45;&gt;Node53 -->
<g id="edge57" class="edge">
<title>Node52&#45;&gt;Node53</title>
<path fill="none" stroke="midnightblue" d="M1663.86,-363.98C1630.85,-353.64 1575.04,-336.16 1538.13,-324.6"/>
<polygon fill="midnightblue" stroke="midnightblue" points="1538.84,-321.16 1528.26,-321.51 1536.75,-327.84 1538.84,-321.16"/>
</g>
<!-- Node53&#45;&gt;Node7 -->
<g id="edge67" class="edge">
<title>Node53&#45;&gt;Node7</title>
<path fill="none" stroke="midnightblue" d="M1444.55,-303.57C1385.4,-295.2 1296.93,-280.81 1266.08,-266 1212.37,-240.21 1217.46,-205.49 1164.08,-179 1117.94,-156.1 1060.28,-144.78 1017.71,-139.23"/>
<polygon fill="midnightblue" stroke="midnightblue" points="1018.13,-135.75 1007.78,-138 1017.27,-142.7 1018.13,-135.75"/>
</g>
<!-- Node53&#45;&gt;Node9 -->
<g id="edge65" class="edge">
<title>Node53&#45;&gt;Node9</title>
<path fill="none" stroke="midnightblue" d="M1444.48,-303.98C1409.23,-297.8 1363.94,-286.45 1328.08,-266 1217.74,-203.05 1121.91,-79.04 1089.12,-33.66"/>
<polygon fill="midnightblue" stroke="midnightblue" points="1091.92,-31.55 1083.26,-25.44 1086.22,-35.62 1091.92,-31.55"/>
</g>
<!-- Node53&#45;&gt;Node12 -->
<g id="edge60" class="edge">
<title>Node53&#45;&gt;Node12</title>
<path fill="none" stroke="midnightblue" d="M1516.05,-302.36C1529.7,-294.07 1549.98,-280.66 1565.08,-266 1644.37,-189.05 1624.02,-131 1714.08,-67 1749.71,-41.69 1798.58,-28.67 1832.7,-22.25"/>
<polygon fill="midnightblue" stroke="midnightblue" points="1833.55,-25.65 1842.78,-20.46 1832.33,-18.76 1833.55,-25.65"/>
</g>
<!-- Node53&#45;&gt;Node16 -->
<g id="edge58" class="edge">
<title>Node53&#45;&gt;Node16</title>
<path fill="none" stroke="midnightblue" d="M1557.61,-308.02C1696.01,-300.53 2044.27,-280.5 2095.08,-266 2279.17,-213.48 2303.95,-148.68 2477.08,-67 2506.52,-53.11 2540.79,-38.75 2564.98,-28.91"/>
<polygon fill="midnightblue" stroke="midnightblue" points="2566.4,-32.11 2574.36,-25.12 2563.78,-25.62 2566.4,-32.11"/>
</g>
<!-- Node53&#45;&gt;Node22 -->
<g id="edge68" class="edge">
<title>Node53&#45;&gt;Node22</title>
<path fill="none" stroke="midnightblue" d="M1557.67,-307.93C1679.31,-301.23 1974.76,-284.42 2222.08,-266 2235.83,-264.98 2250.58,-263.77 2264.53,-262.57"/>
<polygon fill="midnightblue" stroke="midnightblue" points="2264.87,-266.06 2274.53,-261.71 2264.26,-259.08 2264.87,-266.06"/>
</g>
<!-- Node53&#45;&gt;Node24 -->
<g id="edge61" class="edge">
<title>Node53&#45;&gt;Node24</title>
<path fill="none" stroke="midnightblue" d="M1444.31,-302.97C1361.79,-291.31 1211.68,-270.09 1148.43,-261.15"/>
<polygon fill="midnightblue" stroke="midnightblue" points="1148.75,-257.66 1138.36,-259.72 1147.77,-264.59 1148.75,-257.66"/>
</g>
<!-- Node53&#45;&gt;Node28 -->
<g id="edge70" class="edge">
<title>Node53&#45;&gt;Node28</title>
<path fill="none" stroke="midnightblue" d="M1557.66,-305.58C1638.6,-297.73 1792.4,-282.44 1933.85,-266.12"/>
<polygon fill="midnightblue" stroke="midnightblue" points="1934.48,-269.57 1944.01,-264.94 1933.67,-262.62 1934.48,-269.57"/>
</g>
<!-- Node53&#45;&gt;Node32 -->
<g id="edge69" class="edge">
<title>Node53&#45;&gt;Node32</title>
<path fill="none" stroke="midnightblue" d="M1519.68,-302.38C1539.21,-293.32 1570.81,-278.67 1598.08,-266 1617.2,-257.12 1621.03,-252.48 1641.08,-246 1701.45,-226.49 1772.19,-213.43 1825.09,-205.49"/>
<polygon fill="midnightblue" stroke="midnightblue" points="1825.7,-208.94 1835.09,-204.02 1824.68,-202.01 1825.7,-208.94"/>
</g>
<!-- Node53&#45;&gt;Node51 -->
<g id="edge59" class="edge">
<title>Node53&#45;&gt;Node51</title>
<path fill="none" stroke="midnightblue" d="M1528.65,-302.44C1558.88,-293.06 1607.42,-278 1640.25,-267.81"/>
<polygon fill="midnightblue" stroke="midnightblue" points="1641.39,-271.12 1649.9,-264.82 1639.31,-264.44 1641.39,-271.12"/>
</g>
<!-- Node54 -->
<g id="node29" class="node">
<title>Node54</title>
<g id="a_node29"><a xlink:title=" ">
<polygon fill="none" stroke="#bfbfbf" points="1832.58,-246.5 1832.58,-265.5 1925.58,-265.5 1925.58,-246.5 1832.58,-246.5"/>
<text text-anchor="middle" x="1879.08" y="-253.5" font-family="Helvetica,sans-Serif" font-size="10.00">unordered_map</text>
</a>
</g>
</g>
<!-- Node53&#45;&gt;Node54 -->
<g id="edge62" class="edge">
<title>Node53&#45;&gt;Node54</title>
<path fill="none" stroke="midnightblue" d="M1557.67,-302.92C1629.03,-292.72 1750.99,-275.3 1822.39,-265.1"/>
<polygon fill="midnightblue" stroke="midnightblue" points="1823.14,-268.53 1832.55,-263.65 1822.15,-261.6 1823.14,-268.53"/>
</g>
<!-- Node55 -->
<g id="node30" class="node">
<title>Node55</title>
<g id="a_node30"><a xlink:title=" ">
<polygon fill="none" stroke="#bfbfbf" points="1346.08,-246.5 1346.08,-265.5 1378.08,-265.5 1378.08,-246.5 1346.08,-246.5"/>
<text text-anchor="middle" x="1362.08" y="-253.5" font-family="Helvetica,sans-Serif" font-size="10.00">set</text>
</a>
</g>
</g>
<!-- Node53&#45;&gt;Node55 -->
<g id="edge63" class="edge">
<title>Node53&#45;&gt;Node55</title>
<path fill="none" stroke="midnightblue" d="M1479.06,-302.44C1454.32,-292.83 1414.22,-277.26 1388,-267.07"/>
<polygon fill="midnightblue" stroke="midnightblue" points="1388.95,-263.68 1378.36,-263.32 1386.41,-270.21 1388.95,-263.68"/>
</g>
<!-- Node56 -->
<g id="node31" class="node">
<title>Node56</title>
<g id="a_node31"><a xlink:title=" ">
<polygon fill="none" stroke="#bfbfbf" points="1396.08,-246.5 1396.08,-265.5 1482.08,-265.5 1482.08,-246.5 1396.08,-246.5"/>
<text text-anchor="middle" x="1439.08" y="-253.5" font-family="Helvetica,sans-Serif" font-size="10.00">unordered_set</text>
</a>
</g>
</g>
<!-- Node53&#45;&gt;Node56 -->
<g id="edge64" class="edge">
<title>Node53&#45;&gt;Node56</title>
<path fill="none" stroke="midnightblue" d="M1491.12,-302.32C1481.96,-294.34 1468.15,-282.31 1457.06,-272.65"/>
<polygon fill="midnightblue" stroke="midnightblue" points="1459.07,-269.76 1449.23,-265.83 1454.47,-275.04 1459.07,-269.76"/>
</g>
<!-- Node57 -->
<g id="node32" class="node">
<title>Node57</title>
<g id="a_node32"><a xlink:title=" ">
<polygon fill="none" stroke="#bfbfbf" points="1500.58,-246.5 1500.58,-265.5 1555.58,-265.5 1555.58,-246.5 1500.58,-246.5"/>
<text text-anchor="middle" x="1528.08" y="-253.5" font-family="Helvetica,sans-Serif" font-size="10.00">fstream</text>
</a>
</g>
</g>
<!-- Node53&#45;&gt;Node57 -->
<g id="edge66" class="edge">
<title>Node53&#45;&gt;Node57</title>
<path fill="none" stroke="midnightblue" d="M1505.54,-302.08C1509.24,-294.69 1514.61,-283.95 1519.18,-274.81"/>
<polygon fill="midnightblue" stroke="midnightblue" points="1522.37,-276.26 1523.71,-265.75 1516.11,-273.13 1522.37,-276.26"/>
</g>
<!-- Node58 -->
<g id="node33" class="node">
<title>Node58</title>
<g id="a_node33"><a xlink:href="../../d5/d10/weak__pointer__vector_8h.html" target="_top" xlink:title=" ">
<polygon fill="none" stroke="red" points="1330.58,-179.5 1330.58,-209.5 1467.58,-209.5 1467.58,-179.5 1330.58,-179.5"/>
<text text-anchor="start" x="1338.58" y="-197.5" font-family="Helvetica,sans-Serif" font-size="10.00">containers/weak_pointer</text>
<text text-anchor="middle" x="1399.08" y="-186.5" font-family="Helvetica,sans-Serif" font-size="10.00">_vector.h</text>
</a>
</g>
</g>
<!-- Node53&#45;&gt;Node58 -->
<g id="edge71" class="edge">
<title>Node53&#45;&gt;Node58</title>
<path fill="none" stroke="midnightblue" d="M1444.36,-302.86C1402.36,-295.53 1350.24,-283.26 1337.08,-266 1323.36,-248 1342.77,-228.78 1363.4,-214.97"/>
<polygon fill="midnightblue" stroke="midnightblue" points="1365.34,-217.89 1371.92,-209.58 1361.59,-211.97 1365.34,-217.89"/>
</g>
<!-- Node62 -->
<g id="node34" class="node">
<title>Node62</title>
<g id="a_node34"><a xlink:href="../../d1/d8c/logger_8h.html" target="_top" xlink:title=" ">
<polygon fill="none" stroke="red" points="2034.08,-123.5 2034.08,-142.5 2154.08,-142.5 2154.08,-123.5 2034.08,-123.5"/>
<text text-anchor="middle" x="2094.08" y="-130.5" font-family="Helvetica,sans-Serif" font-size="10.00">input_output/logger.h</text>
</a>
</g>
</g>
<!-- Node53&#45;&gt;Node62 -->
<g id="edge77" class="edge">
<title>Node53&#45;&gt;Node62</title>
<path fill="none" stroke="midnightblue" d="M1557.61,-308.46C1698.69,-301.88 2056.37,-283.54 2075.08,-266 2106.1,-236.93 2102.4,-181.65 2097.82,-152.71"/>
<polygon fill="midnightblue" stroke="midnightblue" points="2101.24,-151.94 2096.04,-142.71 2094.35,-153.17 2101.24,-151.94"/>
</g>
<!-- Node58&#45;&gt;Node7 -->
<g id="edge76" class="edge">
<title>Node58&#45;&gt;Node7</title>
<path fill="none" stroke="midnightblue" d="M1330.28,-181.22C1325.48,-180.44 1320.71,-179.69 1316.08,-179 1211.43,-163.29 1088.99,-148.72 1017.82,-140.62"/>
<polygon fill="midnightblue" stroke="midnightblue" points="1018.03,-137.12 1007.7,-139.48 1017.24,-144.08 1018.03,-137.12"/>
</g>
<!-- Node58&#45;&gt;Node9 -->
<g id="edge74" class="edge">
<title>Node58&#45;&gt;Node9</title>
<path fill="none" stroke="midnightblue" d="M1376.56,-179.33C1337.83,-155.17 1255.87,-104.96 1184.08,-67 1158.1,-53.26 1127.74,-39.1 1106,-29.29"/>
<polygon fill="midnightblue" stroke="midnightblue" points="1107.23,-26 1096.67,-25.1 1104.36,-32.39 1107.23,-26"/>
</g>
<!-- Node58&#45;&gt;Node12 -->
<g id="edge73" class="edge">
<title>Node58&#45;&gt;Node12</title>
<path fill="none" stroke="midnightblue" d="M1403.84,-179.11C1413.66,-151.97 1438.9,-93.56 1482.08,-67 1540.2,-31.24 1744.99,-20.55 1832.71,-17.57"/>
<polygon fill="midnightblue" stroke="midnightblue" points="1832.93,-21.07 1842.81,-17.24 1832.7,-14.07 1832.93,-21.07"/>
</g>
<!-- Node58&#45;&gt;Node16 -->
<g id="edge72" class="edge">
<title>Node58&#45;&gt;Node16</title>
<path fill="none" stroke="midnightblue" d="M1467.74,-182.56C1609.15,-160.13 1943.17,-107.6 2224.08,-67 2349.65,-48.85 2499.35,-29.1 2563.88,-20.68"/>
<polygon fill="midnightblue" stroke="midnightblue" points="2564.38,-24.15 2573.84,-19.38 2563.47,-17.21 2564.38,-24.15"/>
</g>
<!-- Node58&#45;&gt;Node17 -->
<g id="edge75" class="edge">
<title>Node58&#45;&gt;Node17</title>
<path fill="none" stroke="midnightblue" d="M1364.14,-179.48C1300.12,-154.22 1159.39,-100.55 1037.08,-67 960.7,-46.05 869,-29.72 820.69,-21.78"/>
<polygon fill="midnightblue" stroke="midnightblue" points="821.21,-18.32 810.77,-20.17 820.08,-25.23 821.21,-18.32"/>
</g>
<!-- Node62&#45;&gt;Node12 -->
<g id="edge79" class="edge">
<title>Node62&#45;&gt;Node12</title>
<path fill="none" stroke="midnightblue" d="M2086.27,-123.21C2073.62,-109.46 2047.3,-82.79 2020.08,-67 1986.32,-47.41 1943.78,-33.83 1913.16,-25.73"/>
<polygon fill="midnightblue" stroke="midnightblue" points="1913.82,-22.29 1903.27,-23.19 1912.08,-29.07 1913.82,-22.29"/>
</g>
<!-- Node62&#45;&gt;Node15 -->
<g id="edge80" class="edge">
<title>Node62&#45;&gt;Node15</title>
<path fill="none" stroke="midnightblue" d="M2034.05,-127.74C1894.64,-117.85 1549.64,-93.37 1401.96,-82.89"/>
<polygon fill="midnightblue" stroke="midnightblue" points="1401.89,-79.37 1391.67,-82.16 1401.4,-86.36 1401.89,-79.37"/>
</g>
<!-- Node62&#45;&gt;Node16 -->
<g id="edge78" class="edge">
<title>Node62&#45;&gt;Node16</title>
<path fill="none" stroke="midnightblue" d="M2134.4,-123.43C2175.96,-114.53 2242.62,-100.12 2300.08,-87 2350.8,-75.42 2498.7,-39.93 2564.21,-24.17"/>
<polygon fill="midnightblue" stroke="midnightblue" points="2565.09,-27.56 2573.99,-21.82 2563.45,-20.75 2565.09,-27.56"/>
</g>
<!-- Node85&#45;&gt;Node32 -->
<g id="edge86" class="edge">
<title>Node85&#45;&gt;Node32</title>
<path fill="none" stroke="midnightblue" d="M2427.76,-363.96C2407.12,-356.53 2381.67,-343.49 2369.08,-322 2351.54,-292.05 2410.32,-271.79 2387.08,-246 2360.83,-216.86 2117.54,-203.4 1986.61,-198.22"/>
<polygon fill="midnightblue" stroke="midnightblue" points="1986.35,-194.71 1976.22,-197.82 1986.08,-201.7 1986.35,-194.71"/>
</g>
<!-- Node85&#45;&gt;Node53 -->
<g id="edge85" class="edge">
<title>Node85&#45;&gt;Node53</title>
<path fill="none" stroke="midnightblue" d="M2378.23,-367.48C2192.67,-355.95 1739.1,-327.78 1567.94,-317.15"/>
<polygon fill="midnightblue" stroke="midnightblue" points="1568,-313.65 1557.81,-316.52 1567.57,-320.64 1568,-313.65"/>
</g>
<!-- Node86 -->
<g id="node36" class="node">
<title>Node86</title>
<g id="a_node36"><a xlink:title=" ">
<polygon fill="none" stroke="#bfbfbf" points="2378.08,-302.5 2378.08,-321.5 2446.08,-321.5 2446.08,-302.5 2378.08,-302.5"/>
<text text-anchor="middle" x="2412.08" y="-309.5" font-family="Helvetica,sans-Serif" font-size="10.00">filesystem</text>
</a>
</g>
</g>
<!-- Node85&#45;&gt;Node86 -->
<g id="edge83" class="edge">
<title>Node85&#45;&gt;Node86</title>
<path fill="none" stroke="midnightblue" d="M2452.35,-363.98C2445.3,-355.05 2434.05,-340.81 2425.23,-329.64"/>
<polygon fill="midnightblue" stroke="midnightblue" points="2427.75,-327.19 2418.8,-321.51 2422.26,-331.53 2427.75,-327.19"/>
</g>
<!-- Node87 -->
<g id="node37" class="node">
<title>Node87</title>
<g id="a_node37"><a xlink:title=" ">
<polygon fill="none" stroke="#bfbfbf" points="2464.08,-302.5 2464.08,-321.5 2568.08,-321.5 2568.08,-302.5 2464.08,-302.5"/>
<text text-anchor="middle" x="2516.08" y="-309.5" font-family="Helvetica,sans-Serif" font-size="10.00">json/json_fwd.hpp</text>
</a>
</g>
</g>
<!-- Node85&#45;&gt;Node87 -->
<g id="edge84" class="edge">
<title>Node85&#45;&gt;Node87</title>
<path fill="none" stroke="midnightblue" d="M2467.25,-363.98C2475.97,-354.87 2489.99,-340.24 2500.77,-328.98"/>
<polygon fill="midnightblue" stroke="midnightblue" points="2503.54,-331.15 2507.93,-321.51 2498.49,-326.31 2503.54,-331.15"/>
</g>
<!-- Node88&#45;&gt;Node4 -->
<g id="edge88" class="edge">
<title>Node88&#45;&gt;Node4</title>
<path fill="none" stroke="midnightblue" d="M385.3,-816.23C386.21,-805.5 387.47,-790.69 388.47,-778.96"/>
<polygon fill="midnightblue" stroke="midnightblue" points="391.97,-779.15 389.33,-768.89 384.99,-778.56 391.97,-779.15"/>
</g>
<!-- Node89&#45;&gt;Node7 -->
<g id="edge93" class="edge">
<title>Node89&#45;&gt;Node7</title>
<path fill="none" stroke="midnightblue" d="M660.78,-425.36C647.38,-416.81 632.54,-404.54 625.08,-389 609.32,-356.17 620.47,-229.64 678.08,-179 709.94,-151 825.72,-140.31 898.05,-136.31"/>
<polygon fill="midnightblue" stroke="midnightblue" points="898.59,-139.78 908.39,-135.76 898.22,-132.79 898.59,-139.78"/>
</g>
<!-- Node89&#45;&gt;Node12 -->
<g id="edge91" class="edge">
<title>Node89&#45;&gt;Node12</title>
<path fill="none" stroke="midnightblue" d="M714.84,-425.35C730.54,-416.26 750.16,-403.47 765.08,-389 798.99,-356.13 788.22,-330.22 826.08,-302 889.19,-254.96 916.92,-261.49 994.08,-246 1099.61,-224.82 1389.73,-272.88 1477.08,-210 1533.02,-169.73 1482.69,-109.33 1537.08,-67 1582.53,-31.63 1754.08,-20.84 1832.96,-17.71"/>
<polygon fill="midnightblue" stroke="midnightblue" points="1833.14,-21.2 1843,-17.33 1832.88,-14.21 1833.14,-21.2"/>
</g>
<!-- Node89&#45;&gt;Node17 -->
<g id="edge90" class="edge">
<title>Node89&#45;&gt;Node17</title>
<path fill="none" stroke="midnightblue" d="M614.71,-439.62C493.36,-435.54 264.08,-407.86 264.08,-257 264.08,-257 264.08,-257 264.08,-132 264.08,-101.2 263.74,-85.86 288.08,-67 324.81,-38.55 647.11,-22.44 753.31,-17.87"/>
<polygon fill="midnightblue" stroke="midnightblue" points="753.62,-21.36 763.47,-17.44 753.33,-14.36 753.62,-21.36"/>
</g>
<!-- Node89&#45;&gt;Node53 -->
<g id="edge99" class="edge">
<title>Node89&#45;&gt;Node53</title>
<path fill="none" stroke="midnightblue" d="M761.27,-429.35C831.55,-419.49 940.67,-403.87 1035.08,-389 1116.57,-376.17 1136.68,-371.37 1218.08,-358 1292.99,-345.7 1379.14,-332.08 1436.52,-323.08"/>
<polygon fill="midnightblue" stroke="midnightblue" points="1437.2,-326.51 1446.54,-321.51 1436.12,-319.6 1437.2,-326.51"/>
</g>
<!-- Node90 -->
<g id="node40" class="node">
<title>Node90</title>
<g id="a_node40"><a xlink:title=" ">
<polygon fill="none" stroke="#bfbfbf" points="634.08,-358.5 634.08,-388.5 756.08,-388.5 756.08,-358.5 634.08,-358.5"/>
<text text-anchor="start" x="642.08" y="-376.5" font-family="Helvetica,sans-Serif" font-size="10.00">boost/iterator/indirect</text>
<text text-anchor="middle" x="695.08" y="-365.5" font-family="Helvetica,sans-Serif" font-size="10.00">_iterator.hpp</text>
</a>
</g>
</g>
<!-- Node89&#45;&gt;Node90 -->
<g id="edge92" class="edge">
<title>Node89&#45;&gt;Node90</title>
<path fill="none" stroke="midnightblue" d="M689.6,-425.4C690.45,-417.56 691.52,-407.6 692.49,-398.57"/>
<polygon fill="midnightblue" stroke="midnightblue" points="695.98,-398.89 693.57,-388.58 689.02,-398.14 695.98,-398.89"/>
</g>
<!-- Node91 -->
<g id="node41" class="node">
<title>Node91</title>
<g id="a_node41"><a xlink:href="../../d6/dd9/global__pointer_8h.html" target="_top" xlink:title=" ">
<polygon fill="none" stroke="black" points="888.08,-364 888.08,-383 1026.08,-383 1026.08,-364 888.08,-364"/>
<text text-anchor="middle" x="957.08" y="-371" font-family="Helvetica,sans-Serif" font-size="10.00">includes/global_pointer.h</text>
</a>
</g>
</g>
<!-- Node89&#45;&gt;Node91 -->
<g id="edge94" class="edge">
<title>Node89&#45;&gt;Node91</title>
<path fill="none" stroke="midnightblue" d="M746.12,-425.48C795.8,-413.47 866.33,-396.43 911.9,-385.42"/>
<polygon fill="midnightblue" stroke="midnightblue" points="912.89,-388.78 921.79,-383.03 911.25,-381.98 912.89,-388.78"/>
</g>
<!-- Node91&#45;&gt;Node7 -->
<g id="edge96" class="edge">
<title>Node91&#45;&gt;Node7</title>
<path fill="none" stroke="midnightblue" d="M927.89,-363.97C900.59,-355.37 859.19,-340.71 826.08,-322 790.79,-302.05 771.89,-302.42 754.08,-266 737.1,-231.27 729.87,-209.14 754.08,-179 771.9,-156.82 844.5,-144.93 898.04,-139.04"/>
<polygon fill="midnightblue" stroke="midnightblue" points="898.56,-142.5 908.14,-137.97 897.82,-135.54 898.56,-142.5"/>
</g>
<!-- Node91&#45;&gt;Node12 -->
<g id="edge95" class="edge">
<title>Node91&#45;&gt;Node12</title>
<path fill="none" stroke="midnightblue" d="M958.43,-363.83C962.6,-340.17 977.71,-274.44 1020.08,-246 1110.74,-185.16 1423.84,-276.95 1510.08,-210 1563.04,-168.89 1506.94,-110.34 1558.08,-67 1598.89,-32.42 1757.46,-21.27 1832.84,-17.88"/>
<polygon fill="midnightblue" stroke="midnightblue" points="1833.06,-21.38 1842.91,-17.46 1832.77,-14.38 1833.06,-21.38"/>
</g>
<!-- Node91&#45;&gt;Node53 -->
<g id="edge97" class="edge">
<title>Node91&#45;&gt;Node53</title>
<path fill="none" stroke="midnightblue" d="M1026.26,-364.93C1131.5,-353.42 1330.52,-331.65 1434.31,-320.3"/>
<polygon fill="midnightblue" stroke="midnightblue" points="1434.8,-323.77 1444.36,-319.2 1434.04,-316.81 1434.8,-323.77"/>
</g>
<!-- Node92 -->
<g id="node42" class="node">
<title>Node92</title>
<g id="a_node42"><a xlink:href="../../d9/d48/key__hash_8h.html" target="_top" xlink:title=" ">
<polygon fill="none" stroke="red" points="834.58,-302.5 834.58,-321.5 949.58,-321.5 949.58,-302.5 834.58,-302.5"/>
<text text-anchor="middle" x="892.08" y="-309.5" font-family="Helvetica,sans-Serif" font-size="10.00">includes/key_hash.h</text>
</a>
</g>
</g>
<!-- Node91&#45;&gt;Node92 -->
<g id="edge98" class="edge">
<title>Node91&#45;&gt;Node92</title>
<path fill="none" stroke="midnightblue" d="M947.77,-363.98C937.63,-354.7 921.22,-339.67 908.83,-328.33"/>
<polygon fill="midnightblue" stroke="midnightblue" points="911.12,-325.68 901.38,-321.51 906.39,-330.84 911.12,-325.68"/>
</g>
<!-- Node100&#45;&gt;Node7 -->
<g id="edge104" class="edge">
<title>Node100&#45;&gt;Node7</title>
<path fill="none" stroke="midnightblue" d="M1139.57,-624.55C972.28,-613.58 614.93,-582.4 516.08,-512 463.74,-474.72 457.64,-450.82 440.08,-389 420.13,-318.75 413.83,-236.22 478.08,-179 508.87,-151.58 776.54,-139.71 898.27,-135.7"/>
<polygon fill="midnightblue" stroke="midnightblue" points="898.65,-139.19 908.53,-135.37 898.42,-132.19 898.65,-139.19"/>
</g>
<!-- Node100&#45;&gt;Node12 -->
<g id="edge102" class="edge">
<title>Node100&#45;&gt;Node12</title>
<path fill="none" stroke="midnightblue" d="M1314.91,-625.63C1519.81,-616.4 2014.66,-592.82 2048.08,-579 2089.7,-561.8 2090.75,-542.27 2124.08,-512 2125.01,-511.16 2386.59,-267.15 2387.08,-266 2420.77,-188.36 2378.76,-208.5 2257.08,-123 2256.38,-122.5 2146.9,-67.28 2146.08,-67 2066.01,-40.01 1967.58,-26.3 1913.48,-20.34"/>
<polygon fill="midnightblue" stroke="midnightblue" points="1913.59,-16.84 1903.28,-19.25 1912.85,-23.8 1913.59,-16.84"/>
</g>
<!-- Node100&#45;&gt;Node16 -->
<g id="edge101" class="edge">
<title>Node100&#45;&gt;Node16</title>
<path fill="none" stroke="midnightblue" d="M1314.88,-626.04C1567.17,-616.03 2279.39,-587.2 2329.08,-579 2434.98,-561.53 2462.15,-553.59 2561.08,-512 2720.19,-445.11 2786.08,-368.09 2786.08,-195.5 2786.08,-195.5 2786.08,-195.5 2786.08,-132 2786.08,-59.08 2682.62,-30.88 2628.4,-21.12"/>
<polygon fill="midnightblue" stroke="midnightblue" points="2628.69,-17.62 2618.25,-19.4 2627.53,-24.52 2628.69,-17.62"/>
</g>
<!-- Node100&#45;&gt;Node26 -->
<g id="edge105" class="edge">
<title>Node100&#45;&gt;Node26</title>
<path fill="none" stroke="midnightblue" d="M1314.64,-625.57C1520.5,-616.11 2018.94,-591.93 2031.08,-579 2046.06,-563.06 2034.43,-537.28 2023.65,-520.23"/>
<polygon fill="midnightblue" stroke="midnightblue" points="2026.43,-518.1 2017.92,-511.78 2020.64,-522.02 2026.43,-518.1"/>
</g>
<!-- Node100&#45;&gt;Node27 -->
<g id="edge103" class="edge">
<title>Node100&#45;&gt;Node27</title>
<path fill="none" stroke="midnightblue" d="M1244.1,-620.84C1260.39,-611.96 1284.94,-596.92 1302.08,-579 1337.58,-541.9 1365.36,-487.31 1378.24,-459.39"/>
<polygon fill="midnightblue" stroke="midnightblue" points="1381.51,-460.64 1382.43,-450.09 1375.13,-457.77 1381.51,-460.64"/>
</g>
<!-- Node100&#45;&gt;Node50 -->
<g id="edge107" class="edge">
<title>Node100&#45;&gt;Node50</title>
<path fill="none" stroke="midnightblue" d="M1248.59,-620.93C1324.39,-590.74 1579.32,-489.2 1668.2,-453.8"/>
<polygon fill="midnightblue" stroke="midnightblue" points="1669.73,-456.96 1677.72,-450.01 1667.13,-450.46 1669.73,-456.96"/>
</g>
<!-- Node100&#45;&gt;Node89 -->
<g id="edge108" class="edge">
<title>Node100&#45;&gt;Node89</title>
<path fill="none" stroke="midnightblue" d="M1139.27,-628.58C1066.35,-625.1 961.17,-613.69 876.08,-579 808.14,-551.3 742.06,-493.78 709.34,-462.64"/>
<polygon fill="midnightblue" stroke="midnightblue" points="711.76,-460.11 702.13,-455.69 706.9,-465.15 711.76,-460.11"/>
</g>
<!-- Node100&#45;&gt;Node91 -->
<g id="edge106" class="edge">
<title>Node100&#45;&gt;Node91</title>
<path fill="none" stroke="midnightblue" d="M1190.43,-620.98C1160.23,-612.97 1117.02,-599.17 1083.08,-579 1013.03,-537.36 980.15,-530.49 947.08,-456 938.07,-435.69 943.74,-409.9 949.55,-392.83"/>
<polygon fill="midnightblue" stroke="midnightblue" points="953,-393.61 953.24,-383.02 946.45,-391.15 953,-393.61"/>
</g>
<!-- Node101 -->
<g id="node44" class="node">
<title>Node101</title>
<g id="a_node44"><a xlink:href="../../df/d0e/global__pointers__unordered__map_8h.html" target="_top" xlink:title=" ">
<polygon fill="none" stroke="red" points="956.08,-425.5 956.08,-455.5 1102.08,-455.5 1102.08,-425.5 956.08,-425.5"/>
<text text-anchor="start" x="964.08" y="-443.5" font-family="Helvetica,sans-Serif" font-size="10.00">containers/global_pointers</text>
<text text-anchor="middle" x="1029.08" y="-432.5" font-family="Helvetica,sans-Serif" font-size="10.00">_unordered_map.h</text>
</a>
</g>
</g>
<!-- Node100&#45;&gt;Node101 -->
<g id="edge109" class="edge">
<title>Node100&#45;&gt;Node101</title>
<path fill="none" stroke="midnightblue" d="M1196.61,-620.95C1172.66,-613.06 1139.55,-599.45 1116.08,-579 1079.16,-546.82 1052.34,-495.15 1038.88,-465.16"/>
<polygon fill="midnightblue" stroke="midnightblue" points="1042.04,-463.64 1034.83,-455.88 1035.62,-466.44 1042.04,-463.64"/>
</g>
<!-- Node102 -->
<g id="node45" class="node">
<title>Node102</title>
<g id="a_node45"><a xlink:href="../../de/db2/parallel__environment_8h.html" target="_top" xlink:title=" ">
<polygon fill="none" stroke="red" points="1848.58,-554 1848.58,-573 2021.58,-573 2021.58,-554 1848.58,-554"/>
<text text-anchor="middle" x="1935.08" y="-561" font-family="Helvetica,sans-Serif" font-size="10.00">includes/parallel_environment.h</text>
</a>
</g>
</g>
<!-- Node100&#45;&gt;Node102 -->
<g id="edge115" class="edge">
<title>Node100&#45;&gt;Node102</title>
<path fill="none" stroke="midnightblue" d="M1314.61,-621.46C1447.61,-609.25 1699.75,-586.11 1838.14,-573.4"/>
<polygon fill="midnightblue" stroke="midnightblue" points="1838.67,-576.87 1848.31,-572.47 1838.03,-569.9 1838.67,-576.87"/>
</g>
<!-- Node140 -->
<g id="node46" class="node">
<title>Node140</title>
<g id="a_node46"><a xlink:href="../../d2/d21/communication__coloring__utilities_8h.html" target="_top" xlink:title=" ">
<polygon fill="none" stroke="black" points="1161.08,-548.5 1161.08,-578.5 1293.08,-578.5 1293.08,-548.5 1161.08,-548.5"/>
<text text-anchor="start" x="1169.08" y="-566.5" font-family="Helvetica,sans-Serif" font-size="10.00">utilities/communication</text>
<text text-anchor="middle" x="1227.08" y="-555.5" font-family="Helvetica,sans-Serif" font-size="10.00">_coloring_utilities.h</text>
</a>
</g>
</g>
<!-- Node100&#45;&gt;Node140 -->
<g id="edge121" class="edge">
<title>Node100&#45;&gt;Node140</title>
<path fill="none" stroke="midnightblue" d="M1227.08,-620.73C1227.08,-612.54 1227.08,-599.92 1227.08,-588.71"/>
<polygon fill="midnightblue" stroke="midnightblue" points="1230.58,-588.59 1227.08,-578.59 1223.58,-588.59 1230.58,-588.59"/>
</g>
<!-- Node101&#45;&gt;Node7 -->
<g id="edge112" class="edge">
<title>Node101&#45;&gt;Node7</title>
<path fill="none" stroke="midnightblue" d="M1034.34,-425.37C1039.75,-408.4 1045.96,-379.53 1035.08,-358 1016.16,-320.55 997.33,-319.25 959.08,-302 889.87,-270.79 839.78,-325.08 792.08,-266 767.79,-235.92 768.59,-209.71 792.08,-179 805.18,-161.87 856.34,-149.75 898.43,-142.43"/>
<polygon fill="midnightblue" stroke="midnightblue" points="899.08,-145.87 908.36,-140.77 897.92,-138.97 899.08,-145.87"/>
</g>
<!-- Node101&#45;&gt;Node12 -->
<g id="edge111" class="edge">
<title>Node101&#45;&gt;Node12</title>
<path fill="none" stroke="midnightblue" d="M1035.98,-425.13C1040.61,-415.14 1046.66,-401.43 1051.08,-389 1073.2,-326.82 1040.17,-287.99 1091.08,-246 1167.29,-183.16 1443.82,-250.09 1534.08,-210 1618.85,-172.35 1605.1,-112.23 1686.08,-67 1732.71,-40.96 1793.45,-27.79 1832.85,-21.55"/>
<polygon fill="midnightblue" stroke="midnightblue" points="1833.51,-24.99 1842.88,-20.04 1832.47,-18.07 1833.51,-24.99"/>
</g>
<!-- Node101&#45;&gt;Node17 -->
<g id="edge110" class="edge">
<title>Node101&#45;&gt;Node17</title>
<path fill="none" stroke="midnightblue" d="M967.28,-425.43C894.41,-404.87 778.47,-358.55 741.08,-266 707.7,-183.37 755.82,-75.51 777.46,-33.91"/>
<polygon fill="midnightblue" stroke="midnightblue" points="780.58,-35.49 782.21,-25.02 774.41,-32.19 780.58,-35.49"/>
</g>
<!-- Node101&#45;&gt;Node53 -->
<g id="edge114" class="edge">
<title>Node101&#45;&gt;Node53</title>
<path fill="none" stroke="midnightblue" d="M1081.4,-425.48C1175.94,-400.14 1373.42,-347.21 1459.49,-324.15"/>
<polygon fill="midnightblue" stroke="midnightblue" points="1460.42,-327.52 1469.18,-321.55 1458.61,-320.76 1460.42,-327.52"/>
</g>
<!-- Node101&#45;&gt;Node91 -->
<g id="edge113" class="edge">
<title>Node101&#45;&gt;Node91</title>
<path fill="none" stroke="midnightblue" d="M1013.46,-425.4C1001.9,-414.96 986.16,-400.75 974.25,-390"/>
<polygon fill="midnightblue" stroke="midnightblue" points="976.48,-387.3 966.71,-383.19 971.79,-392.49 976.48,-387.3"/>
</g>
<!-- Node102&#45;&gt;Node7 -->
<g id="edge119" class="edge">
<title>Node102&#45;&gt;Node7</title>
<path fill="none" stroke="midnightblue" d="M1893.44,-553.94C1816.99,-537.81 1649.52,-500.49 1512.08,-456 1473.84,-443.62 1381.18,-404.46 1344.08,-389 1254.61,-351.71 1236.26,-331.98 1144.08,-302 1073.94,-279.18 1033.22,-319.16 982.08,-266 952.71,-235.46 952.96,-181.66 955.57,-153.08"/>
<polygon fill="midnightblue" stroke="midnightblue" points="959.08,-153.16 956.71,-142.84 952.13,-152.39 959.08,-153.16"/>
</g>
<!-- Node102&#45;&gt;Node12 -->
<g id="edge117" class="edge">
<title>Node102&#45;&gt;Node12</title>
<path fill="none" stroke="midnightblue" d="M2020.39,-553.95C2050.06,-546.95 2081.33,-534.39 2103.08,-512 2125.7,-488.73 2122.08,-473.95 2122.08,-441.5 2122.08,-441.5 2122.08,-441.5 2122.08,-372.5 2122.08,-285.73 2200.11,-248.44 2148.08,-179 2113.93,-133.42 2069.72,-178.39 2025.08,-143 1994.67,-118.89 2010.61,-93.31 1982.08,-67 1962.45,-48.9 1935.19,-36.27 1912.84,-28.17"/>
<polygon fill="midnightblue" stroke="midnightblue" points="1913.87,-24.82 1903.28,-24.87 1911.59,-31.44 1913.87,-24.82"/>
</g>
<!-- Node102&#45;&gt;Node16 -->
<g id="edge116" class="edge">
<title>Node102&#45;&gt;Node16</title>
<path fill="none" stroke="midnightblue" d="M2005.42,-553.99C2189.63,-529.74 2672.08,-452.9 2672.08,-313 2672.08,-313 2672.08,-313 2672.08,-193.5 2672.08,-135.17 2663.81,-118.85 2637.08,-67 2630.52,-54.27 2620.4,-41.75 2611.85,-32.37"/>
<polygon fill="midnightblue" stroke="midnightblue" points="2614.29,-29.86 2604.88,-25 2609.21,-34.67 2614.29,-29.86"/>
</g>
<!-- Node102&#45;&gt;Node26 -->
<g id="edge120" class="edge">
<title>Node102&#45;&gt;Node26</title>
<path fill="none" stroke="midnightblue" d="M1945.97,-553.98C1958.05,-544.52 1977.75,-529.1 1992.32,-517.69"/>
<polygon fill="midnightblue" stroke="midnightblue" points="1994.5,-520.43 2000.21,-511.51 1990.18,-514.92 1994.5,-520.43"/>
</g>
<!-- Node102&#45;&gt;Node54 -->
<g id="edge118" class="edge">
<title>Node102&#45;&gt;Node54</title>
<path fill="none" stroke="midnightblue" d="M1931.84,-553.67C1928.27,-543.68 1922.58,-526.86 1919.08,-512 1918.4,-509.09 1891.09,-334.03 1882,-275.69"/>
<polygon fill="midnightblue" stroke="midnightblue" points="1885.43,-275 1880.43,-265.66 1878.52,-276.08 1885.43,-275"/>
</g>
<!-- Node140&#45;&gt;Node7 -->
<g id="edge125" class="edge">
<title>Node140&#45;&gt;Node7</title>
<path fill="none" stroke="midnightblue" d="M1161.77,-548.49C1046.29,-519.52 811.61,-440.58 741.08,-266 726.55,-230.03 709.5,-209.01 734.08,-179 754.52,-154.05 839.35,-142.64 898.54,-137.64"/>
<polygon fill="midnightblue" stroke="midnightblue" points="898.85,-141.12 908.54,-136.83 898.29,-134.15 898.85,-141.12"/>
</g>
<!-- Node140&#45;&gt;Node9 -->
<g id="edge123" class="edge">
<title>Node140&#45;&gt;Node9</title>
<path fill="none" stroke="midnightblue" d="M1160.77,-558.81C1045.04,-550.7 800,-526.09 606.08,-456 494.1,-415.53 433.61,-425.13 374.08,-322 225.5,-64.59 871.27,-23.8 1038.44,-17.58"/>
<polygon fill="midnightblue" stroke="midnightblue" points="1038.87,-21.07 1048.74,-17.22 1038.62,-14.07 1038.87,-21.07"/>
</g>
<!-- Node140&#45;&gt;Node12 -->
<g id="edge122" class="edge">
<title>Node140&#45;&gt;Node12</title>
<path fill="none" stroke="midnightblue" d="M1293.25,-557.73C1398.87,-548.37 1610.63,-522.38 1777.08,-456 1922.99,-397.82 1999.56,-403.73 2075.08,-266 2119.52,-184.97 2236.43,-408.65 1923.08,-67 1912.16,-55.09 1899.33,-42.15 1889.39,-32.35"/>
<polygon fill="midnightblue" stroke="midnightblue" points="1891.74,-29.74 1882.14,-25.24 1886.84,-34.74 1891.74,-29.74"/>
</g>
<!-- Node140&#45;&gt;Node24 -->
<g id="edge124" class="edge">
<title>Node140&#45;&gt;Node24</title>
<path fill="none" stroke="midnightblue" d="M1223.03,-548.48C1216.93,-526.08 1206.08,-480.73 1206.08,-441.5 1206.08,-441.5 1206.08,-441.5 1206.08,-372.5 1206.08,-328.97 1166.17,-291.42 1140.41,-271.72"/>
<polygon fill="midnightblue" stroke="midnightblue" points="1142.42,-268.85 1132.3,-265.74 1138.27,-274.49 1142.42,-268.85"/>
</g>
<!-- Node140&#45;&gt;Node26 -->
<g id="edge127" class="edge">
<title>Node140&#45;&gt;Node26</title>
<path fill="none" stroke="midnightblue" d="M1293.25,-557.48C1432.69,-546.9 1757.05,-522.28 1917.61,-510.09"/>
<polygon fill="midnightblue" stroke="midnightblue" points="1918.24,-513.56 1927.95,-509.31 1917.71,-506.58 1918.24,-513.56"/>
</g>
<!-- Node140&#45;&gt;Node53 -->
<g id="edge126" class="edge">
<title>Node140&#45;&gt;Node53</title>
<path fill="none" stroke="midnightblue" d="M1237.23,-548.22C1256.21,-522.04 1299.17,-465.37 1343.08,-425 1386.79,-384.82 1445.37,-346.79 1477.51,-327.05"/>
<polygon fill="midnightblue" stroke="midnightblue" points="1479.49,-329.94 1486.22,-321.76 1475.86,-323.96 1479.49,-329.94"/>
</g>
<!-- Node141&#45;&gt;Node7 -->
<g id="edge131" class="edge">
<title>Node141&#45;&gt;Node7</title>
<path fill="none" stroke="midnightblue" d="M1736.81,-820.55C1660.41,-810.89 1542.27,-795.46 1440.08,-780 1033.98,-718.55 843.31,-853.82 538.08,-579 402.59,-457.01 304.25,-292.32 447.08,-179 481.73,-151.51 770.34,-139.59 897.88,-135.62"/>
<polygon fill="midnightblue" stroke="midnightblue" points="898.36,-139.11 908.25,-135.31 898.15,-132.11 898.36,-139.11"/>
</g>
<!-- Node141&#45;&gt;Node12 -->
<g id="edge129" class="edge">
<title>Node141&#45;&gt;Node12</title>
<path fill="none" stroke="midnightblue" d="M1897.48,-829.73C2165.86,-826.09 3014.08,-805.7 3014.08,-693 3014.08,-693 3014.08,-693 3014.08,-501 3014.08,-337.26 2965.5,-278.01 2835.08,-179 2783.02,-139.47 2761.44,-142.61 2699.08,-123 2407.87,-31.44 2035.18,-18.46 1913.48,-16.73"/>
<polygon fill="midnightblue" stroke="midnightblue" points="1913.2,-13.23 1903.15,-16.6 1913.11,-20.23 1913.2,-13.23"/>
</g>
<!-- Node141&#45;&gt;Node16 -->
<g id="edge130" class="edge">
<title>Node141&#45;&gt;Node16</title>
<path fill="none" stroke="midnightblue" d="M1897.21,-831.04C2111.78,-831.8 2695.62,-829.15 2881.08,-780 2963.51,-758.16 3052.08,-778.27 3052.08,-693 3052.08,-693 3052.08,-693 3052.08,-132 3052.08,-44.55 2732.93,-22.58 2628.63,-17.74"/>
<polygon fill="midnightblue" stroke="midnightblue" points="2628.53,-14.23 2618.39,-17.29 2628.22,-21.22 2628.53,-14.23"/>
</g>
<!-- Node141&#45;&gt;Node100 -->
<g id="edge155" class="edge">
<title>Node141&#45;&gt;Node100</title>
<path fill="none" stroke="midnightblue" d="M1741.59,-816.44C1646.8,-797.32 1480.33,-758.85 1346.08,-702 1309.38,-686.46 1270.25,-661.44 1247.27,-645.76"/>
<polygon fill="midnightblue" stroke="midnightblue" points="1249.23,-642.86 1239.01,-640.05 1245.25,-648.62 1249.23,-642.86"/>
</g>
<!-- Node142 -->
<g id="node48" class="node">
<title>Node142</title>
<g id="a_node48"><a xlink:href="../../d2/da6/global__pointer__variables_8h.html" target="_top" xlink:title=" ">
<polygon fill="none" stroke="red" points="1624.08,-615.5 1624.08,-645.5 1754.08,-645.5 1754.08,-615.5 1624.08,-615.5"/>
<text text-anchor="start" x="1632.08" y="-633.5" font-family="Helvetica,sans-Serif" font-size="10.00">includes/global_pointer</text>
<text text-anchor="middle" x="1689.08" y="-622.5" font-family="Helvetica,sans-Serif" font-size="10.00">_variables.h</text>
</a>
</g>
</g>
<!-- Node141&#45;&gt;Node142 -->
<g id="edge132" class="edge">
<title>Node141&#45;&gt;Node142</title>
<path fill="none" stroke="midnightblue" d="M1807.88,-816.19C1785.92,-782.05 1730.33,-695.63 1703.72,-654.25"/>
<polygon fill="midnightblue" stroke="midnightblue" points="1706.56,-652.2 1698.21,-645.68 1700.67,-655.99 1706.56,-652.2"/>
</g>
<!-- Node104 -->
<g id="node49" class="node">
<title>Node104</title>
<g id="a_node49"><a xlink:href="../../dd/dfe/model__part_8h.html" target="_top" xlink:title=" ">
<polygon fill="none" stroke="red" points="2078.58,-682.5 2078.58,-701.5 2203.58,-701.5 2203.58,-682.5 2078.58,-682.5"/>
<text text-anchor="middle" x="2141.08" y="-689.5" font-family="Helvetica,sans-Serif" font-size="10.00">includes/model_part.h</text>
</a>
</g>
</g>
<!-- Node141&#45;&gt;Node104 -->
<g id="edge138" class="edge">
<title>Node141&#45;&gt;Node104</title>
<path fill="none" stroke="midnightblue" d="M1878.37,-816.42C1912.02,-807.75 1954.11,-795.35 1990.08,-780 2038.84,-759.19 2091.58,-726.12 2120.02,-707.31"/>
<polygon fill="midnightblue" stroke="midnightblue" points="2122.32,-709.99 2128.69,-701.52 2118.43,-704.16 2122.32,-709.99"/>
</g>
<!-- Node143 -->
<g id="node50" class="node">
<title>Node143</title>
<g id="a_node50"><a xlink:href="../../dd/d36/find__global__nodal__neighbours__for__entities__process_8h.html" target="_top" xlink:title=" ">
<polygon fill="none" stroke="black" points="1853.58,-738.5 1853.58,-779.5 1980.58,-779.5 1980.58,-738.5 1853.58,-738.5"/>
<text text-anchor="start" x="1861.58" y="-767.5" font-family="Helvetica,sans-Serif" font-size="10.00">processes/find_global</text>
<text text-anchor="start" x="1861.58" y="-756.5" font-family="Helvetica,sans-Serif" font-size="10.00">_nodal_neighbours_for</text>
<text text-anchor="middle" x="1917.08" y="-745.5" font-family="Helvetica,sans-Serif" font-size="10.00">_entities_process.h</text>
</a>
</g>
</g>
<!-- Node141&#45;&gt;Node143 -->
<g id="edge146" class="edge">
<title>Node141&#45;&gt;Node143</title>
<path fill="none" stroke="midnightblue" d="M1837.32,-816.23C1849.82,-807.42 1866.22,-795.86 1880.9,-785.51"/>
<polygon fill="midnightblue" stroke="midnightblue" points="1883.14,-788.21 1889.3,-779.59 1879.11,-782.49 1883.14,-788.21"/>
</g>
<!-- Node142&#45;&gt;Node7 -->
<g id="edge135" class="edge">
<title>Node142&#45;&gt;Node7</title>
<path fill="none" stroke="midnightblue" d="M1623.84,-626.58C1474.65,-619.62 1112.25,-600.97 992.08,-579 886.71,-559.74 530.08,-548.62 530.08,-441.5 530.08,-441.5 530.08,-441.5 530.08,-255 530.08,-211.41 553.92,-200.07 592.08,-179 643.35,-150.7 808.27,-139.86 898.21,-135.99"/>
<polygon fill="midnightblue" stroke="midnightblue" points="898.42,-139.48 908.26,-135.57 898.13,-132.49 898.42,-139.48"/>
</g>
<!-- Node142&#45;&gt;Node12 -->
<g id="edge134" class="edge">
<title>Node142&#45;&gt;Node12</title>
<path fill="none" stroke="midnightblue" d="M1697.9,-615.2C1715.41,-586.21 1754.82,-517.98 1777.08,-456 1816.43,-346.45 1804.08,-311.9 1804.08,-195.5 1804.08,-195.5 1804.08,-195.5 1804.08,-132 1804.08,-91.4 1835.89,-52.7 1856.31,-32.02"/>
<polygon fill="midnightblue" stroke="midnightblue" points="1858.78,-34.5 1863.49,-25.02 1853.89,-29.49 1858.78,-34.5"/>
</g>
<!-- Node142&#45;&gt;Node16 -->
<g id="edge133" class="edge">
<title>Node142&#45;&gt;Node16</title>
<path fill="none" stroke="midnightblue" d="M1754.15,-626.99C1972.37,-618.48 2665.8,-590.57 2686.08,-579 2809.21,-508.76 2862.08,-454.76 2862.08,-313 2862.08,-313 2862.08,-313 2862.08,-132 2862.08,-31.2 2699.37,-17.42 2628.46,-16.2"/>
<polygon fill="midnightblue" stroke="midnightblue" points="2628.34,-12.7 2618.3,-16.11 2628.27,-19.7 2628.34,-12.7"/>
</g>
<!-- Node142&#45;&gt;Node23 -->
<g id="edge136" class="edge">
<title>Node142&#45;&gt;Node23</title>
<path fill="none" stroke="midnightblue" d="M1754.15,-622.98C1841.9,-614 2002.98,-596.92 2140.08,-579 2150.51,-577.64 2161.55,-576.09 2172.31,-574.52"/>
<polygon fill="midnightblue" stroke="midnightblue" points="2173.11,-577.94 2182.5,-573.02 2172.09,-571.02 2173.11,-577.94"/>
</g>
<!-- Node142&#45;&gt;Node89 -->
<g id="edge137" class="edge">
<title>Node142&#45;&gt;Node89</title>
<path fill="none" stroke="midnightblue" d="M1623.96,-628.47C1516.95,-625.72 1297.66,-615.69 1116.08,-579 972.11,-549.91 808.51,-489.28 731.95,-459.2"/>
<polygon fill="midnightblue" stroke="midnightblue" points="733.2,-455.93 722.61,-455.52 730.63,-462.44 733.2,-455.93"/>
</g>
<!-- Node104&#45;&gt;Node7 -->
<g id="edge142" class="edge">
<title>Node104&#45;&gt;Node7</title>
<path fill="none" stroke="midnightblue" d="M2078.39,-682.75C2075.59,-682.48 2072.81,-682.22 2070.08,-682 1653.85,-647.71 1545.54,-697.5 1131.08,-646 988.61,-628.3 948.91,-630.97 815.08,-579 714.61,-539.98 659.58,-549.57 606.08,-456 544.24,-347.85 552.66,-257.89 649.08,-179 686.13,-148.69 819.07,-138.79 898,-135.56"/>
<polygon fill="midnightblue" stroke="midnightblue" points="898.44,-139.04 908.29,-135.16 898.17,-132.05 898.44,-139.04"/>
</g>
<!-- Node104&#45;&gt;Node9 -->
<g id="edge141" class="edge">
<title>Node104&#45;&gt;Node9</title>
<path fill="none" stroke="midnightblue" d="M2078.4,-682.73C2075.59,-682.46 2072.81,-682.21 2070.08,-682 1559.42,-641.75 1426.78,-706.25 918.08,-646 772.49,-628.76 731.35,-633.09 595.08,-579 423.27,-510.81 344.63,-490.25 268.08,-322 221.88,-220.45 326.67,-182.43 421.08,-123 473.63,-89.92 488.98,-82.6 549.08,-67 641.94,-42.91 933.37,-24.58 1038.66,-18.59"/>
<polygon fill="midnightblue" stroke="midnightblue" points="1039.04,-22.08 1048.83,-18.02 1038.65,-15.09 1039.04,-22.08"/>
</g>
<!-- Node104&#45;&gt;Node12 -->
<g id="edge140" class="edge">
<title>Node104&#45;&gt;Node12</title>
<path fill="none" stroke="midnightblue" d="M2203.79,-690.12C2335.76,-687.65 2637.99,-678.51 2735.08,-646 2798.68,-624.71 2862.08,-631.57 2862.08,-564.5 2862.08,-564.5 2862.08,-564.5 2862.08,-501 2862.08,-71.03 2098.89,-22.6 1913.36,-17.18"/>
<polygon fill="midnightblue" stroke="midnightblue" points="1913.31,-13.67 1903.22,-16.91 1913.13,-20.67 1913.31,-13.67"/>
</g>
<!-- Node104&#45;&gt;Node16 -->
<g id="edge139" class="edge">
<title>Node104&#45;&gt;Node16</title>
<path fill="none" stroke="midnightblue" d="M2203.78,-691.48C2346.55,-691.8 2691.81,-688.05 2799.08,-646 2852.78,-624.95 2900.08,-622.18 2900.08,-564.5 2900.08,-564.5 2900.08,-564.5 2900.08,-439.5 2900.08,-356.65 2938.08,-339.85 2938.08,-257 2938.08,-257 2938.08,-257 2938.08,-132 2938.08,-85.15 2897.7,-86.47 2855.08,-67 2778.64,-32.08 2678.75,-21.28 2628.28,-17.96"/>
<polygon fill="midnightblue" stroke="midnightblue" points="2628.48,-14.46 2618.28,-17.35 2628.06,-21.45 2628.48,-14.46"/>
</g>
<!-- Node104&#45;&gt;Node21 -->
<g id="edge145" class="edge">
<title>Node104&#45;&gt;Node21</title>
<path fill="none" stroke="midnightblue" d="M2141.08,-682.48C2141.08,-674.08 2141.08,-660.98 2141.08,-650.16"/>
<polygon fill="midnightblue" stroke="midnightblue" points="2144.58,-650.01 2141.08,-640.01 2137.58,-650.01 2144.58,-650.01"/>
</g>
<!-- Node104&#45;&gt;Node53 -->
<g id="edge143" class="edge">
<title>Node104&#45;&gt;Node53</title>
<path fill="none" stroke="midnightblue" d="M2107.39,-682.47C2019.48,-658.9 1779.08,-585.87 1622.08,-456 1575.25,-417.26 1532.32,-358.88 1512.54,-330.17"/>
<polygon fill="midnightblue" stroke="midnightblue" points="1515.27,-327.96 1506.75,-321.65 1509.48,-331.89 1515.27,-327.96"/>
</g>
<!-- Node104&#45;&gt;Node62 -->
<g id="edge144" class="edge">
<title>Node104&#45;&gt;Node62</title>
<path fill="none" stroke="midnightblue" d="M2203.81,-691.85C2365.89,-692.39 2786.08,-682.39 2786.08,-564.5 2786.08,-564.5 2786.08,-564.5 2786.08,-372.5 2786.08,-241.92 2340.13,-167.29 2164.22,-142.93"/>
<polygon fill="midnightblue" stroke="midnightblue" points="2164.67,-139.46 2154.28,-141.57 2163.72,-146.4 2164.67,-139.46"/>
</g>
<!-- Node143&#45;&gt;Node7 -->
<g id="edge152" class="edge">
<title>Node143&#45;&gt;Node7</title>
<path fill="none" stroke="midnightblue" d="M1853.46,-756.87C1707.31,-752.54 1360.08,-731.72 1360.08,-631.5 1360.08,-631.5 1360.08,-631.5 1360.08,-562.5 1360.08,-422.02 1233.44,-439.58 1119.08,-358 1117.05,-356.55 965.58,-268.01 964.08,-266 939.28,-232.69 946.56,-180.47 952.95,-152.75"/>
<polygon fill="midnightblue" stroke="midnightblue" points="956.4,-153.35 955.45,-142.8 949.62,-151.64 956.4,-153.35"/>
</g>
<!-- Node143&#45;&gt;Node12 -->
<g id="edge147" class="edge">
<title>Node143&#45;&gt;Node12</title>
<path fill="none" stroke="midnightblue" d="M1980.95,-756.83C2204.47,-751.92 2938.08,-728.4 2938.08,-631.5 2938.08,-631.5 2938.08,-631.5 2938.08,-439.5 2938.08,-143.16 2675.47,-126.09 2385.08,-67 2211.79,-31.73 2000.29,-20.81 1913.34,-17.67"/>
<polygon fill="midnightblue" stroke="midnightblue" points="1913.24,-14.17 1903.12,-17.32 1913,-21.16 1913.24,-14.17"/>
</g>
<!-- Node143&#45;&gt;Node16 -->
<g id="edge148" class="edge">
<title>Node143&#45;&gt;Node16</title>
<path fill="none" stroke="midnightblue" d="M1980.59,-756.97C2158.99,-753.63 2662.05,-740.92 2822.08,-702 2895.23,-684.21 2976.08,-706.78 2976.08,-631.5 2976.08,-631.5 2976.08,-631.5 2976.08,-501 2976.08,-415.75 3014.08,-398.25 3014.08,-313 3014.08,-313 3014.08,-313 3014.08,-132 3014.08,-52.08 2726.63,-25.28 2628.48,-18.46"/>
<polygon fill="midnightblue" stroke="midnightblue" points="2628.47,-14.95 2618.26,-17.78 2628.01,-21.94 2628.47,-14.95"/>
</g>
<!-- Node143&#45;&gt;Node20 -->
<g id="edge154" class="edge">
<title>Node143&#45;&gt;Node20</title>
<path fill="none" stroke="midnightblue" d="M1942.89,-738.5C1955.94,-728.63 1971.54,-716.84 1983.58,-707.74"/>
<polygon fill="midnightblue" stroke="midnightblue" points="1985.77,-710.47 1991.64,-701.65 1981.55,-704.89 1985.77,-710.47"/>
</g>
<!-- Node143&#45;&gt;Node26 -->
<g id="edge151" class="edge">
<title>Node143&#45;&gt;Node26</title>
<path fill="none" stroke="midnightblue" d="M1919.17,-738.41C1921.57,-722.32 1926.63,-699.44 1937.08,-682 1971.69,-624.28 2021.17,-640.69 2048.08,-579 2053.59,-566.37 2052.73,-560.97 2048.08,-548 2044.14,-537 2036.23,-526.77 2028.72,-518.85"/>
<polygon fill="midnightblue" stroke="midnightblue" points="2031.1,-516.28 2021.52,-511.76 2026.19,-521.27 2031.1,-516.28"/>
</g>
<!-- Node143&#45;&gt;Node54 -->
<g id="edge149" class="edge">
<title>Node143&#45;&gt;Node54</title>
<path fill="none" stroke="midnightblue" d="M1871.75,-738.31C1832.54,-717.85 1782.08,-681.77 1782.08,-631.5 1782.08,-631.5 1782.08,-631.5 1782.08,-562.5 1782.08,-506.81 1828.75,-508.22 1848.08,-456 1871.53,-392.68 1877.24,-311.66 1878.64,-275.67"/>
<polygon fill="midnightblue" stroke="midnightblue" points="1882.13,-275.75 1878.95,-265.65 1875.14,-275.53 1882.13,-275.75"/>
</g>
<!-- Node143&#45;&gt;Node89 -->
<g id="edge150" class="edge">
<title>Node143&#45;&gt;Node89</title>
<path fill="none" stroke="midnightblue" d="M1853.48,-757.2C1610.28,-753.5 748.75,-734.22 668.08,-646 622.18,-595.79 655.77,-506.9 675.89,-464.82"/>
<polygon fill="midnightblue" stroke="midnightblue" points="679.13,-466.17 680.42,-455.65 672.85,-463.06 679.13,-466.17"/>
</g>
<!-- Node143&#45;&gt;Node104 -->
<g id="edge153" class="edge">
<title>Node143&#45;&gt;Node104</title>
<path fill="none" stroke="midnightblue" d="M1980.67,-739.55C2019.71,-728.22 2068.46,-714.08 2101.9,-704.37"/>
<polygon fill="midnightblue" stroke="midnightblue" points="2103.14,-707.66 2111.77,-701.51 2101.19,-700.93 2103.14,-707.66"/>
</g>
</g>
</svg>
