<?xml version="1.0" encoding="UTF-8" standalone="no"?>
<!DOCTYPE svg PUBLIC "-//W3C//DTD SVG 1.1//EN"
 "http://www.w3.org/Graphics/SVG/1.1/DTD/svg11.dtd">
<!-- Generated by graphviz version 7.1.0 (0)
 -->
<!-- Title: /software/kratos/doxygen/applications/SwimmingDEMApplication/custom_utilities/mollification/mollifier.h Pages: 1 -->
<svg width="241pt" height="170pt"
 viewBox="0.00 0.00 240.50 170.00" xmlns="http://www.w3.org/2000/svg" xmlns:xlink="http://www.w3.org/1999/xlink">
<g id="graph0" class="graph" transform="scale(1 1) rotate(0) translate(4 166)">
<title>/software/kratos/doxygen/applications/SwimmingDEMApplication/custom_utilities/mollification/mollifier.h</title>
<!-- Node1 -->
<g id="node1" class="node">
<title>Node1</title>
<g id="a_node1"><a xlink:title=" ">
<polygon fill="#999999" stroke="#666666" points="232.5,-162 21.5,-162 21.5,-110 232.5,-110 232.5,-162"/>
<text text-anchor="start" x="29.5" y="-150" font-family="Helvetica,sans-Serif" font-size="10.00">/software/kratos/doxygen</text>
<text text-anchor="start" x="29.5" y="-139" font-family="Helvetica,sans-Serif" font-size="10.00">/applications/SwimmingDEMApplication</text>
<text text-anchor="start" x="29.5" y="-128" font-family="Helvetica,sans-Serif" font-size="10.00">/custom_utilities/mollification</text>
<text text-anchor="middle" x="127" y="-117" font-family="Helvetica,sans-Serif" font-size="10.00">/mollifier.h</text>
</a>
</g>
</g>
<!-- Node2 -->
<g id="node2" class="node">
<title>Node2</title>
<g id="a_node2"><a xlink:title=" ">
<polygon fill="#e0e0e0" stroke="#999999" points="44,-19 0,-19 0,0 44,0 44,-19"/>
<text text-anchor="middle" x="22" y="-7" font-family="Helvetica,sans-Serif" font-size="10.00">string</text>
</a>
</g>
</g>
<!-- Node1&#45;&gt;Node2 -->
<g id="edge1" class="edge">
<title>Node1&#45;&gt;Node2</title>
<path fill="none" stroke="#63b8ff" d="M60.7,-109.64C45.76,-100.7 31.75,-89.01 23,-74 15.42,-61.01 15.64,-43.83 17.49,-30.62"/>
<polygon fill="#63b8ff" stroke="#63b8ff" points="20.91,-31.39 19.29,-20.92 14.02,-30.11 20.91,-31.39"/>
</g>
<!-- Node3 -->
<g id="node3" class="node">
<title>Node3</title>
<g id="a_node3"><a xlink:title=" ">
<polygon fill="#e0e0e0" stroke="#999999" points="128,-19 68,-19 68,0 128,0 128,-19"/>
<text text-anchor="middle" x="98" y="-7" font-family="Helvetica,sans-Serif" font-size="10.00">iostream</text>
</a>
</g>
</g>
<!-- Node1&#45;&gt;Node3 -->
<g id="edge2" class="edge">
<title>Node1&#45;&gt;Node3</title>
<path fill="none" stroke="#63b8ff" d="M142.67,-109.78C150.59,-93.67 156.99,-72.57 149,-55 143.62,-43.16 133.36,-33.25 123.45,-25.8"/>
<polygon fill="#63b8ff" stroke="#63b8ff" points="125.69,-23.09 115.47,-20.3 121.71,-28.85 125.69,-23.09"/>
</g>
<!-- Node4 -->
<g id="node4" class="node">
<title>Node4</title>
<g id="a_node4"><a xlink:title=" ">
<polygon fill="#e0e0e0" stroke="#999999" points="218.5,-19 169.5,-19 169.5,0 218.5,0 218.5,-19"/>
<text text-anchor="middle" x="194" y="-7" font-family="Helvetica,sans-Serif" font-size="10.00">cstdlib</text>
</a>
</g>
</g>
<!-- Node1&#45;&gt;Node4 -->
<g id="edge3" class="edge">
<title>Node1&#45;&gt;Node4</title>
<path fill="none" stroke="#63b8ff" d="M143.26,-109.52C149.95,-98.72 157.61,-85.89 164,-74 171.87,-59.36 179.86,-42.32 185.62,-29.57"/>
<polygon fill="#63b8ff" stroke="#63b8ff" points="188.72,-31.21 189.59,-20.65 182.32,-28.36 188.72,-31.21"/>
</g>
<!-- Node5 -->
<g id="node5" class="node">
<title>Node5</title>
<g id="a_node5"><a xlink:href="../../de/d4a/density__function_8h.html" target="_top" xlink:title=" ">
<polygon fill="white" stroke="#666666" points="139.5,-74 32.5,-74 32.5,-55 139.5,-55 139.5,-74"/>
<text text-anchor="middle" x="86" y="-62" font-family="Helvetica,sans-Serif" font-size="10.00">density_function.h</text>
</a>
</g>
</g>
<!-- Node1&#45;&gt;Node5 -->
<g id="edge4" class="edge">
<title>Node1&#45;&gt;Node5</title>
<path fill="none" stroke="#63b8ff" d="M111.97,-109.52C107,-101.09 101.56,-91.88 96.96,-84.07"/>
<polygon fill="#63b8ff" stroke="#63b8ff" points="100,-82.33 91.9,-75.5 93.97,-85.89 100,-82.33"/>
</g>
<!-- Node5&#45;&gt;Node2 -->
<g id="edge5" class="edge">
<title>Node5&#45;&gt;Node2</title>
<path fill="none" stroke="#63b8ff" d="M75.14,-54.51C65.89,-46.85 52.38,-35.66 41.29,-26.47"/>
<polygon fill="#63b8ff" stroke="#63b8ff" points="43.8,-24.01 33.86,-20.32 39.33,-29.4 43.8,-24.01"/>
</g>
<!-- Node5&#45;&gt;Node3 -->
<g id="edge6" class="edge">
<title>Node5&#45;&gt;Node3</title>
<path fill="none" stroke="#63b8ff" d="M87.98,-54.75C89.47,-48.19 91.56,-38.95 93.45,-30.6"/>
<polygon fill="#63b8ff" stroke="#63b8ff" points="96.85,-31.44 95.64,-20.92 90.02,-29.9 96.85,-31.44"/>
</g>
<!-- Node5&#45;&gt;Node4 -->
<g id="edge7" class="edge">
<title>Node5&#45;&gt;Node4</title>
<path fill="none" stroke="#63b8ff" d="M104.32,-54.51C121.18,-46.24 146.43,-33.84 165.85,-24.31"/>
<polygon fill="#63b8ff" stroke="#63b8ff" points="167.16,-27.57 174.59,-20.02 164.07,-21.29 167.16,-27.57"/>
</g>
</g>
</svg>
