<?xml version="1.0" encoding="UTF-8" standalone="no"?>
<!DOCTYPE svg PUBLIC "-//W3C//DTD SVG 1.1//EN"
 "http://www.w3.org/Graphics/SVG/1.1/DTD/svg11.dtd">
<!-- Generated by graphviz version 7.1.0 (0)
 -->
<!-- Title: /software/kratos/doxygen/applications/ParticleMechanicsApplication/custom_conditions/grid_based_conditions/mpm_grid_line_load_condition_2d.h Pages: 1 -->
<!--zoomable 357 -->
<svg id="main" version="1.1" xmlns="http://www.w3.org/2000/svg" xmlns:xlink="http://www.w3.org/1999/xlink" xml:space="preserve" onload="init(evt)">
<style type="text/css"><![CDATA[
.edge:hover path { stroke: red; }
.edge:hover polygon { stroke: red; fill: red; }
]]></style>
<script type="text/javascript"><![CDATA[
var edges = document.getElementsByTagName('g');
if (edges && edges.length) {
  for (var i=0;i<edges.length;i++) {
    if (edges[i].id.substr(0,4)=='edge') {
      edges[i].setAttribute('class','edge');
    }
  }
}
]]></script>
        <defs>
                <circle id="rim" cx="0" cy="0" r="7"/>
                <circle id="rim2" cx="0" cy="0" r="3.5"/>
                <g id="zoomPlus">
                        <use xlink:href="#rim" fill="#404040">
                                <set attributeName="fill" to="#808080" begin="zoomplus.mouseover" end="zoomplus.mouseout"/>
                        </use>
                        <path d="M-4,0h8M0,-4v8" fill="none" stroke="white" stroke-width="1.5" pointer-events="none"/>
                </g>
                <g id="zoomMin">
                        <use xlink:href="#rim" fill="#404040">
                                <set attributeName="fill" to="#808080" begin="zoomminus.mouseover" end="zoomminus.mouseout"/>
                        </use>
                        <path d="M-4,0h8" fill="none" stroke="white" stroke-width="1.5" pointer-events="none"/>
                </g>
                <g id="dirArrow">
                        <path fill="none" stroke="white" stroke-width="1.5" d="M0,-3.0v7 M-2.5,-0.5L0,-3.0L2.5,-0.5"/>
                </g>
               <g id="resetDef">
                       <use xlink:href="#rim2" fill="#404040">
                               <set attributeName="fill" to="#808080" begin="reset.mouseover" end="reset.mouseout"/>
                       </use>
               </g>
        </defs>

<script type="text/javascript">
var viewWidth = 516;
var viewHeight = 357;
var sectionId = 'dynsection-1';
</script>
<script xlink:href="../../svgpan.js"/>
<svg id="graph" class="graph">
<g id="viewport">
<title>/software/kratos/doxygen/applications/ParticleMechanicsApplication/custom_conditions/grid_based_conditions/mpm_grid_line_load_condition_2d.h</title>
<!-- Node1 -->
<g id="node1" class="node">
<title>Node1</title>
<g id="a_node1"><a xlink:title=" ">
<polygon fill="#999999" stroke="#666666" points="389,-349 208,-349 208,-286 389,-286 389,-349"/>
<text text-anchor="start" x="216" y="-337" font-family="Helvetica,sans-Serif" font-size="10.00">/software/kratos/doxygen</text>
<text text-anchor="start" x="216" y="-326" font-family="Helvetica,sans-Serif" font-size="10.00">/applications/ParticleMechanics</text>
<text text-anchor="start" x="216" y="-315" font-family="Helvetica,sans-Serif" font-size="10.00">Application/custom_conditions</text>
<text text-anchor="start" x="216" y="-304" font-family="Helvetica,sans-Serif" font-size="10.00">/grid_based_conditions/mpm_grid</text>
<text text-anchor="middle" x="298.5" y="-293" font-family="Helvetica,sans-Serif" font-size="10.00">_line_load_condition_2d.h</text>
</a>
</g>
</g>
<!-- Node2 -->
<g id="node2" class="node">
<title>Node2</title>
<g id="a_node2"><a xlink:href="../../d2/d77/mpm__grid__axisym__line__load__condition__2d_8h.html" target="_top" xlink:title=" ">
<polygon fill="white" stroke="#666666" points="270.5,-250 86.5,-250 86.5,-187 270.5,-187 270.5,-250"/>
<text text-anchor="start" x="94.5" y="-238" font-family="Helvetica,sans-Serif" font-size="10.00">/software/kratos/doxygen</text>
<text text-anchor="start" x="94.5" y="-227" font-family="Helvetica,sans-Serif" font-size="10.00">/applications/ParticleMechanics</text>
<text text-anchor="start" x="94.5" y="-216" font-family="Helvetica,sans-Serif" font-size="10.00">Application/custom_conditions</text>
<text text-anchor="start" x="94.5" y="-205" font-family="Helvetica,sans-Serif" font-size="10.00">/grid_based_conditions/mpm_grid</text>
<text text-anchor="middle" x="178.5" y="-194" font-family="Helvetica,sans-Serif" font-size="10.00">_axisym_line_load_condition_2d.h</text>
</a>
</g>
</g>
<!-- Node1&#45;&gt;Node2 -->
<g id="edge1" class="edge">
<title>Node1&#45;&gt;Node2</title>
<path fill="none" stroke="#63b8ff" d="M251.57,-278.56C240.07,-269.27 227.89,-259.42 216.85,-250.5"/>
<polygon fill="#63b8ff" stroke="#63b8ff" points="249.05,-281.03 259.02,-284.59 253.45,-275.58 249.05,-281.03"/>
</g>
<!-- Node4 -->
<g id="node4" class="node">
<title>Node4</title>
<g id="a_node4"><a xlink:href="../../d0/d91/particle__mechanics__application_8h.html" target="_top" xlink:title=" ">
<polygon fill="white" stroke="#666666" points="383.5,-145.5 213.5,-145.5 213.5,-93.5 383.5,-93.5 383.5,-145.5"/>
<text text-anchor="start" x="221.5" y="-133.5" font-family="Helvetica,sans-Serif" font-size="10.00">/software/kratos/doxygen</text>
<text text-anchor="start" x="221.5" y="-122.5" font-family="Helvetica,sans-Serif" font-size="10.00">/applications/ParticleMechanics</text>
<text text-anchor="start" x="221.5" y="-111.5" font-family="Helvetica,sans-Serif" font-size="10.00">Application/particle_mechanics</text>
<text text-anchor="middle" x="298.5" y="-100.5" font-family="Helvetica,sans-Serif" font-size="10.00">_application.h</text>
</a>
</g>
</g>
<!-- Node1&#45;&gt;Node4 -->
<g id="edge6" class="edge">
<title>Node1&#45;&gt;Node4</title>
<path fill="none" stroke="#63b8ff" d="M298.5,-274.37C298.5,-235.31 298.5,-178.47 298.5,-145.92"/>
<polygon fill="#63b8ff" stroke="#63b8ff" points="295,-274.36 298.5,-284.36 302,-274.36 295,-274.36"/>
</g>
<!-- Node6 -->
<g id="node6" class="node">
<title>Node6</title>
<g id="a_node6"><a xlink:href="../../d3/d69/mpm__grid__line__load__condition__2d_8cpp.html" target="_top" xlink:title=" ">
<polygon fill="white" stroke="#666666" points="508,-250 327,-250 327,-187 508,-187 508,-250"/>
<text text-anchor="start" x="335" y="-238" font-family="Helvetica,sans-Serif" font-size="10.00">/software/kratos/doxygen</text>
<text text-anchor="start" x="335" y="-227" font-family="Helvetica,sans-Serif" font-size="10.00">/applications/ParticleMechanics</text>
<text text-anchor="start" x="335" y="-216" font-family="Helvetica,sans-Serif" font-size="10.00">Application/custom_conditions</text>
<text text-anchor="start" x="335" y="-205" font-family="Helvetica,sans-Serif" font-size="10.00">/grid_based_conditions/mpm_grid</text>
<text text-anchor="middle" x="417.5" y="-194" font-family="Helvetica,sans-Serif" font-size="10.00">_line_load_condition_2d.cpp</text>
</a>
</g>
</g>
<!-- Node1&#45;&gt;Node6 -->
<g id="edge5" class="edge">
<title>Node1&#45;&gt;Node6</title>
<path fill="none" stroke="#63b8ff" d="M345.38,-278.29C356.68,-269.07 368.63,-259.34 379.47,-250.5"/>
<polygon fill="#63b8ff" stroke="#63b8ff" points="343.19,-275.55 337.65,-284.59 347.62,-280.98 343.19,-275.55"/>
</g>
<!-- Node3 -->
<g id="node3" class="node">
<title>Node3</title>
<g id="a_node3"><a xlink:href="../../d2/da2/mpm__grid__axisym__line__load__condition__2d_8cpp.html" target="_top" xlink:title=" ">
<polygon fill="white" stroke="#666666" points="195,-151 0,-151 0,-88 195,-88 195,-151"/>
<text text-anchor="start" x="8" y="-139" font-family="Helvetica,sans-Serif" font-size="10.00">/software/kratos/doxygen</text>
<text text-anchor="start" x="8" y="-128" font-family="Helvetica,sans-Serif" font-size="10.00">/applications/ParticleMechanics</text>
<text text-anchor="start" x="8" y="-117" font-family="Helvetica,sans-Serif" font-size="10.00">Application/custom_conditions</text>
<text text-anchor="start" x="8" y="-106" font-family="Helvetica,sans-Serif" font-size="10.00">/grid_based_conditions/mpm_grid</text>
<text text-anchor="middle" x="97.5" y="-95" font-family="Helvetica,sans-Serif" font-size="10.00">_axisym_line_load_condition_2d.cpp</text>
</a>
</g>
</g>
<!-- Node2&#45;&gt;Node3 -->
<g id="edge2" class="edge">
<title>Node2&#45;&gt;Node3</title>
<path fill="none" stroke="#63b8ff" d="M145.45,-177.92C138.09,-169.11 130.4,-159.9 123.38,-151.5"/>
<polygon fill="#63b8ff" stroke="#63b8ff" points="142.58,-179.95 151.68,-185.38 147.96,-175.46 142.58,-179.95"/>
</g>
<!-- Node2&#45;&gt;Node4 -->
<g id="edge3" class="edge">
<title>Node2&#45;&gt;Node4</title>
<path fill="none" stroke="#63b8ff" d="M225.73,-179.32C239.57,-168.13 254.37,-156.17 266.98,-145.98"/>
<polygon fill="#63b8ff" stroke="#63b8ff" points="223.55,-176.58 217.98,-185.59 227.95,-182.03 223.55,-176.58"/>
</g>
<!-- Node5 -->
<g id="node5" class="node">
<title>Node5</title>
<g id="a_node5"><a xlink:href="../../d2/d00/particle__mechanics__application_8cpp.html" target="_top" xlink:title=" ">
<polygon fill="white" stroke="#666666" points="383.5,-52 213.5,-52 213.5,0 383.5,0 383.5,-52"/>
<text text-anchor="start" x="221.5" y="-40" font-family="Helvetica,sans-Serif" font-size="10.00">/software/kratos/doxygen</text>
<text text-anchor="start" x="221.5" y="-29" font-family="Helvetica,sans-Serif" font-size="10.00">/applications/ParticleMechanics</text>
<text text-anchor="start" x="221.5" y="-18" font-family="Helvetica,sans-Serif" font-size="10.00">Application/particle_mechanics</text>
<text text-anchor="middle" x="298.5" y="-7" font-family="Helvetica,sans-Serif" font-size="10.00">_application.cpp</text>
</a>
</g>
</g>
<!-- Node4&#45;&gt;Node5 -->
<g id="edge4" class="edge">
<title>Node4&#45;&gt;Node5</title>
<path fill="none" stroke="#63b8ff" d="M298.5,-81.8C298.5,-71.92 298.5,-61.46 298.5,-52.35"/>
<polygon fill="#63b8ff" stroke="#63b8ff" points="295,-81.5 298.5,-91.5 302,-81.5 295,-81.5"/>
</g>
</g>
</svg>
        <g id="navigator" transform="translate(0 0)" fill="#404254">
                <rect fill="#f2f5e9" fill-opacity="0.5" stroke="#606060" stroke-width=".5" x="0" y="0" width="60" height="60"/>
                <use id="zoomplus" xlink:href="#zoomPlus" x="17" y="9" onmousedown="handleZoom(evt,'in')"/>
                <use id="zoomminus" xlink:href="#zoomMin" x="42" y="9" onmousedown="handleZoom(evt,'out')"/>
                <use id="reset" xlink:href="#resetDef" x="30" y="36" onmousedown="handleReset()"/>
                <g id="arrowUp" xlink:href="#dirArrow" transform="translate(30 24)" onmousedown="handlePan(0,-1)">
                  <use xlink:href="#rim" fill="#404040">
                        <set attributeName="fill" to="#808080" begin="arrowUp.mouseover" end="arrowUp.mouseout"/>
                  </use>
                  <path fill="none" stroke="white" stroke-width="1.5" d="M0,-3.0v7 M-2.5,-0.5L0,-3.0L2.5,-0.5"/>
                </g>
                <g id="arrowRight" xlink:href="#dirArrow" transform="rotate(90) translate(36 -43)" onmousedown="handlePan(1,0)">
                  <use xlink:href="#rim" fill="#404040">
                        <set attributeName="fill" to="#808080" begin="arrowRight.mouseover" end="arrowRight.mouseout"/>
                  </use>
                  <path fill="none" stroke="white" stroke-width="1.5" d="M0,-3.0v7 M-2.5,-0.5L0,-3.0L2.5,-0.5"/>
                </g>
                <g id="arrowDown" xlink:href="#dirArrow" transform="rotate(180) translate(-30 -48)" onmousedown="handlePan(0,1)">
                  <use xlink:href="#rim" fill="#404040">
                        <set attributeName="fill" to="#808080" begin="arrowDown.mouseover" end="arrowDown.mouseout"/>
                  </use>
                  <path fill="none" stroke="white" stroke-width="1.5" d="M0,-3.0v7 M-2.5,-0.5L0,-3.0L2.5,-0.5"/>
                </g>
                <g id="arrowLeft" xlink:href="#dirArrow" transform="rotate(270) translate(-36 17)" onmousedown="handlePan(-1,0)">
                  <use xlink:href="#rim" fill="#404040">
                        <set attributeName="fill" to="#808080" begin="arrowLeft.mouseover" end="arrowLeft.mouseout"/>
                  </use>
                  <path fill="none" stroke="white" stroke-width="1.5" d="M0,-3.0v7 M-2.5,-0.5L0,-3.0L2.5,-0.5"/>
                </g>
        </g>
        <svg viewBox="0 0 15 15" width="100%" height="30px" preserveAspectRatio="xMaxYMin meet">
         <g id="arrow_out" transform="scale(0.3 0.3)">
          <a xlink:href="mpm__grid__line__load__condition__2d_8h__dep__incl_org.svg" target="_base">
           <rect id="button" ry="5" rx="5" y="6" x="6" height="38" width="38"
                fill="#f2f5e9" fill-opacity="0.5" stroke="#606060" stroke-width="1.0"/>
           <path id="arrow"
             d="M 11.500037,31.436501 C 11.940474,20.09759 22.043105,11.32322 32.158766,21.979434 L 37.068811,17.246167 C 37.068811,17.246167 37.088388,32 37.088388,32 L 22.160133,31.978069 C 22.160133,31.978069 26.997745,27.140456 26.997745,27.140456 C 18.528582,18.264221 13.291696,25.230495 11.500037,31.436501 z"
             style="fill:#404040;"/>
          </a>
         </g>
        </svg>
</svg>
