<?xml version="1.0" encoding="UTF-8" standalone="no"?>
<!DOCTYPE svg PUBLIC "-//W3C//DTD SVG 1.1//EN"
 "http://www.w3.org/Graphics/SVG/1.1/DTD/svg11.dtd">
<!-- Generated by graphviz version 7.1.0 (0)
 -->
<!-- Title: /software/kratos/doxygen/kratos/utilities/brute_force_point_locator.h Pages: 1 -->
<svg width="968pt" height="390pt"
 viewBox="0.00 0.00 967.50 390.00" xmlns="http://www.w3.org/2000/svg" xmlns:xlink="http://www.w3.org/1999/xlink">
<g id="graph0" class="graph" transform="scale(1 1) rotate(0) translate(4 386)">
<title>/software/kratos/doxygen/kratos/utilities/brute_force_point_locator.h</title>
<!-- Node1 -->
<g id="node1" class="node">
<title>Node1</title>
<g id="a_node1"><a xlink:title=" ">
<polygon fill="#999999" stroke="#666666" points="692.5,-382 552.5,-382 552.5,-341 692.5,-341 692.5,-382"/>
<text text-anchor="start" x="560.5" y="-370" font-family="Helvetica,sans-Serif" font-size="10.00">/software/kratos/doxygen</text>
<text text-anchor="start" x="560.5" y="-359" font-family="Helvetica,sans-Serif" font-size="10.00">/kratos/utilities/brute</text>
<text text-anchor="middle" x="622.5" y="-348" font-family="Helvetica,sans-Serif" font-size="10.00">_force_point_locator.h</text>
</a>
</g>
</g>
<!-- Node2 -->
<g id="node2" class="node">
<title>Node2</title>
<g id="a_node2"><a xlink:href="../../d3/d16/vertex__utilities_8h.html" target="_top" xlink:title=" ">
<polygon fill="white" stroke="#666666" points="429,-299.5 246,-299.5 246,-258.5 429,-258.5 429,-299.5"/>
<text text-anchor="start" x="254" y="-287.5" font-family="Helvetica,sans-Serif" font-size="10.00">/software/kratos/doxygen</text>
<text text-anchor="start" x="254" y="-276.5" font-family="Helvetica,sans-Serif" font-size="10.00">/applications/HDF5Application</text>
<text text-anchor="middle" x="337.5" y="-265.5" font-family="Helvetica,sans-Serif" font-size="10.00">/custom_utilities/vertex_utilities.h</text>
</a>
</g>
</g>
<!-- Node1&#45;&gt;Node2 -->
<g id="edge1" class="edge">
<title>Node1&#45;&gt;Node2</title>
<path fill="none" stroke="#63b8ff" d="M541.02,-337.49C499.07,-325.64 448.41,-311.33 408.13,-299.95"/>
<polygon fill="#63b8ff" stroke="#63b8ff" points="540.02,-340.84 550.59,-340.19 541.92,-334.1 540.02,-340.84"/>
</g>
<!-- Node11 -->
<g id="node11" class="node">
<title>Node11</title>
<g id="a_node11"><a xlink:href="../../d9/d59/rans__line__output__process_8cpp.html" target="_top" xlink:title=" ">
<polygon fill="white" stroke="#666666" points="611.5,-305 447.5,-305 447.5,-253 611.5,-253 611.5,-305"/>
<text text-anchor="start" x="455.5" y="-293" font-family="Helvetica,sans-Serif" font-size="10.00">/software/kratos/doxygen</text>
<text text-anchor="start" x="455.5" y="-282" font-family="Helvetica,sans-Serif" font-size="10.00">/applications/RANSApplication</text>
<text text-anchor="start" x="455.5" y="-271" font-family="Helvetica,sans-Serif" font-size="10.00">/custom_processes/rans_line</text>
<text text-anchor="middle" x="529.5" y="-260" font-family="Helvetica,sans-Serif" font-size="10.00">_output_process.cpp</text>
</a>
</g>
</g>
<!-- Node1&#45;&gt;Node11 -->
<g id="edge11" class="edge">
<title>Node1&#45;&gt;Node11</title>
<path fill="none" stroke="#63b8ff" d="M591.09,-333.31C580.69,-324.31 569.15,-314.32 558.91,-305.45"/>
<polygon fill="#63b8ff" stroke="#63b8ff" points="588.52,-335.71 598.37,-339.61 593.1,-330.42 588.52,-335.71"/>
</g>
<!-- Node12 -->
<g id="node12" class="node">
<title>Node12</title>
<g id="a_node12"><a xlink:href="../../d9/df1/add__geometrical__utilities__to__python_8cpp.html" target="_top" xlink:title=" ">
<polygon fill="white" stroke="#666666" points="801.5,-299.5 629.5,-299.5 629.5,-258.5 801.5,-258.5 801.5,-299.5"/>
<text text-anchor="start" x="637.5" y="-287.5" font-family="Helvetica,sans-Serif" font-size="10.00">/software/kratos/doxygen</text>
<text text-anchor="start" x="637.5" y="-276.5" font-family="Helvetica,sans-Serif" font-size="10.00">/kratos/python/add_geometrical</text>
<text text-anchor="middle" x="715.5" y="-265.5" font-family="Helvetica,sans-Serif" font-size="10.00">_utilities_to_python.cpp</text>
</a>
</g>
</g>
<!-- Node1&#45;&gt;Node12 -->
<g id="edge12" class="edge">
<title>Node1&#45;&gt;Node12</title>
<path fill="none" stroke="#63b8ff" d="M653.91,-333.31C666.53,-322.39 680.82,-310.02 692.45,-299.95"/>
<polygon fill="#63b8ff" stroke="#63b8ff" points="651.9,-330.42 646.63,-339.61 656.48,-335.71 651.9,-330.42"/>
</g>
<!-- Node13 -->
<g id="node13" class="node">
<title>Node13</title>
<g id="a_node13"><a xlink:href="../../df/dbd/brute__force__point__locator_8cpp.html" target="_top" xlink:title=" ">
<polygon fill="white" stroke="#666666" points="959.5,-299.5 819.5,-299.5 819.5,-258.5 959.5,-258.5 959.5,-299.5"/>
<text text-anchor="start" x="827.5" y="-287.5" font-family="Helvetica,sans-Serif" font-size="10.00">/software/kratos/doxygen</text>
<text text-anchor="start" x="827.5" y="-276.5" font-family="Helvetica,sans-Serif" font-size="10.00">/kratos/utilities/brute</text>
<text text-anchor="middle" x="889.5" y="-265.5" font-family="Helvetica,sans-Serif" font-size="10.00">_force_point_locator.cpp</text>
</a>
</g>
</g>
<!-- Node1&#45;&gt;Node13 -->
<g id="edge13" class="edge">
<title>Node1&#45;&gt;Node13</title>
<path fill="none" stroke="#63b8ff" d="M702.02,-337.4C735.55,-327.56 774.97,-315.87 810.5,-305 815.87,-303.36 821.43,-301.64 827.01,-299.9"/>
<polygon fill="#63b8ff" stroke="#63b8ff" points="701.42,-333.93 692.8,-340.1 703.38,-340.64 701.42,-333.93"/>
</g>
<!-- Node3 -->
<g id="node3" class="node">
<title>Node3</title>
<g id="a_node3"><a xlink:href="../../de/dfa/_h_d_f5_application_2custom__python_2add__custom__utilities__to__python_8cpp.html" target="_top" xlink:title=" ">
<polygon fill="white" stroke="#666666" points="199,-140 0,-140 0,-88 199,-88 199,-140"/>
<text text-anchor="start" x="8" y="-128" font-family="Helvetica,sans-Serif" font-size="10.00">/software/kratos/doxygen</text>
<text text-anchor="start" x="8" y="-117" font-family="Helvetica,sans-Serif" font-size="10.00">/applications/HDF5Application</text>
<text text-anchor="start" x="8" y="-106" font-family="Helvetica,sans-Serif" font-size="10.00">/custom_python/add_custom_utilities</text>
<text text-anchor="middle" x="99.5" y="-95" font-family="Helvetica,sans-Serif" font-size="10.00">_to_python.cpp</text>
</a>
</g>
</g>
<!-- Node2&#45;&gt;Node3 -->
<g id="edge2" class="edge">
<title>Node2&#45;&gt;Node3</title>
<path fill="none" stroke="#63b8ff" d="M298.36,-251.97C282.26,-241.2 263.44,-228.56 246.5,-217 208.52,-191.1 165.32,-161.05 135.63,-140.31"/>
<polygon fill="#63b8ff" stroke="#63b8ff" points="295.98,-254.58 306.24,-257.22 299.87,-248.76 295.98,-254.58"/>
</g>
<!-- Node4 -->
<g id="node4" class="node">
<title>Node4</title>
<g id="a_node4"><a xlink:href="../../df/d37/vertex_8h.html" target="_top" xlink:title=" ">
<polygon fill="white" stroke="#666666" points="419.5,-217 255.5,-217 255.5,-176 419.5,-176 419.5,-217"/>
<text text-anchor="start" x="263.5" y="-205" font-family="Helvetica,sans-Serif" font-size="10.00">/software/kratos/doxygen</text>
<text text-anchor="start" x="263.5" y="-194" font-family="Helvetica,sans-Serif" font-size="10.00">/applications/HDF5Application</text>
<text text-anchor="middle" x="337.5" y="-183" font-family="Helvetica,sans-Serif" font-size="10.00">/custom_utilities/vertex.h</text>
</a>
</g>
</g>
<!-- Node2&#45;&gt;Node4 -->
<g id="edge3" class="edge">
<title>Node2&#45;&gt;Node4</title>
<path fill="none" stroke="#63b8ff" d="M337.5,-246.66C337.5,-236.83 337.5,-226.26 337.5,-217.45"/>
<polygon fill="#63b8ff" stroke="#63b8ff" points="334,-246.59 337.5,-256.59 341,-246.59 334,-246.59"/>
</g>
<!-- Node10 -->
<g id="node10" class="node">
<title>Node10</title>
<g id="a_node10"><a xlink:href="../../dc/d11/vertex__utilities_8cpp.html" target="_top" xlink:title=" ">
<polygon fill="white" stroke="#666666" points="631.5,-217 437.5,-217 437.5,-176 631.5,-176 631.5,-217"/>
<text text-anchor="start" x="445.5" y="-205" font-family="Helvetica,sans-Serif" font-size="10.00">/software/kratos/doxygen</text>
<text text-anchor="start" x="445.5" y="-194" font-family="Helvetica,sans-Serif" font-size="10.00">/applications/HDF5Application</text>
<text text-anchor="middle" x="534.5" y="-183" font-family="Helvetica,sans-Serif" font-size="10.00">/custom_utilities/vertex_utilities.cpp</text>
</a>
</g>
</g>
<!-- Node2&#45;&gt;Node10 -->
<g id="edge10" class="edge">
<title>Node2&#45;&gt;Node10</title>
<path fill="none" stroke="#63b8ff" d="M396.8,-253.77C425.2,-242.16 458.79,-228.44 485.68,-217.45"/>
<polygon fill="#63b8ff" stroke="#63b8ff" points="395.53,-250.51 387.6,-257.53 398.18,-256.99 395.53,-250.51"/>
</g>
<!-- Node4&#45;&gt;Node3 -->
<g id="edge8" class="edge">
<title>Node4&#45;&gt;Node3</title>
<path fill="none" stroke="#63b8ff" d="M268.12,-172.03C238.83,-162.12 204.65,-150.57 174.75,-140.45"/>
<polygon fill="#63b8ff" stroke="#63b8ff" points="266.64,-175.23 277.23,-175.12 268.88,-168.6 266.64,-175.23"/>
</g>
<!-- Node5 -->
<g id="node5" class="node">
<title>Node5</title>
<g id="a_node5"><a xlink:href="../../d8/dd1/hdf5__container__component__io_8cpp.html" target="_top" xlink:title=" ">
<polygon fill="white" stroke="#666666" points="457.5,-134.5 217.5,-134.5 217.5,-93.5 457.5,-93.5 457.5,-134.5"/>
<text text-anchor="start" x="225.5" y="-122.5" font-family="Helvetica,sans-Serif" font-size="10.00">/software/kratos/doxygen</text>
<text text-anchor="start" x="225.5" y="-111.5" font-family="Helvetica,sans-Serif" font-size="10.00">/applications/HDF5Application</text>
<text text-anchor="middle" x="337.5" y="-100.5" font-family="Helvetica,sans-Serif" font-size="10.00">/custom_io/hdf5_container_component_io.cpp</text>
</a>
</g>
</g>
<!-- Node4&#45;&gt;Node5 -->
<g id="edge4" class="edge">
<title>Node4&#45;&gt;Node5</title>
<path fill="none" stroke="#63b8ff" d="M337.5,-164.16C337.5,-154.33 337.5,-143.76 337.5,-134.95"/>
<polygon fill="#63b8ff" stroke="#63b8ff" points="334,-164.09 337.5,-174.09 341,-164.09 334,-164.09"/>
</g>
<!-- Node6 -->
<g id="node6" class="node">
<title>Node6</title>
<g id="a_node6"><a xlink:href="../../d2/d71/hdf5__vertex__container__io_8h.html" target="_top" xlink:title=" ">
<polygon fill="white" stroke="#666666" points="681.5,-134.5 475.5,-134.5 475.5,-93.5 681.5,-93.5 681.5,-134.5"/>
<text text-anchor="start" x="483.5" y="-122.5" font-family="Helvetica,sans-Serif" font-size="10.00">/software/kratos/doxygen</text>
<text text-anchor="start" x="483.5" y="-111.5" font-family="Helvetica,sans-Serif" font-size="10.00">/applications/HDF5Application</text>
<text text-anchor="middle" x="578.5" y="-100.5" font-family="Helvetica,sans-Serif" font-size="10.00">/custom_io/hdf5_vertex_container_io.h</text>
</a>
</g>
</g>
<!-- Node4&#45;&gt;Node6 -->
<g id="edge5" class="edge">
<title>Node4&#45;&gt;Node6</title>
<path fill="none" stroke="#63b8ff" d="M407.76,-172.03C442.97,-160.27 485.15,-146.18 518.78,-134.95"/>
<polygon fill="#63b8ff" stroke="#63b8ff" points="406.88,-168.63 398.51,-175.12 409.1,-175.27 406.88,-168.63"/>
</g>
<!-- Node9 -->
<g id="node9" class="node">
<title>Node9</title>
<g id="a_node9"><a xlink:href="../../d0/d3f/vertex_8cpp.html" target="_top" xlink:title=" ">
<polygon fill="white" stroke="#666666" points="863.5,-134.5 699.5,-134.5 699.5,-93.5 863.5,-93.5 863.5,-134.5"/>
<text text-anchor="start" x="707.5" y="-122.5" font-family="Helvetica,sans-Serif" font-size="10.00">/software/kratos/doxygen</text>
<text text-anchor="start" x="707.5" y="-111.5" font-family="Helvetica,sans-Serif" font-size="10.00">/applications/HDF5Application</text>
<text text-anchor="middle" x="781.5" y="-100.5" font-family="Helvetica,sans-Serif" font-size="10.00">/custom_utilities/vertex.cpp</text>
</a>
</g>
</g>
<!-- Node4&#45;&gt;Node9 -->
<g id="edge9" class="edge">
<title>Node4&#45;&gt;Node9</title>
<path fill="none" stroke="#63b8ff" d="M430.84,-175.67C546.23,-156.12 578.84,-162.9 690.5,-140 697.72,-138.52 705.22,-136.79 712.67,-134.93"/>
<polygon fill="#63b8ff" stroke="#63b8ff" points="430.54,-172.17 421.28,-177.32 431.73,-179.07 430.54,-172.17"/>
</g>
<!-- Node7 -->
<g id="node7" class="node">
<title>Node7</title>
<g id="a_node7"><a xlink:href="../../d4/dfd/hdf5__vertex__container__io_8cpp.html" target="_top" xlink:title=" ">
<polygon fill="white" stroke="#666666" points="581,-46.5 364,-46.5 364,-5.5 581,-5.5 581,-46.5"/>
<text text-anchor="start" x="372" y="-34.5" font-family="Helvetica,sans-Serif" font-size="10.00">/software/kratos/doxygen</text>
<text text-anchor="start" x="372" y="-23.5" font-family="Helvetica,sans-Serif" font-size="10.00">/applications/HDF5Application</text>
<text text-anchor="middle" x="472.5" y="-12.5" font-family="Helvetica,sans-Serif" font-size="10.00">/custom_io/hdf5_vertex_container_io.cpp</text>
</a>
</g>
</g>
<!-- Node6&#45;&gt;Node7 -->
<g id="edge6" class="edge">
<title>Node6&#45;&gt;Node7</title>
<path fill="none" stroke="#63b8ff" d="M545.08,-85.89C529.48,-73.23 511.24,-58.43 496.95,-46.84"/>
<polygon fill="#63b8ff" stroke="#63b8ff" points="542.77,-88.52 552.74,-92.1 547.18,-83.08 542.77,-88.52"/>
</g>
<!-- Node8 -->
<g id="node8" class="node">
<title>Node8</title>
<g id="a_node8"><a xlink:href="../../df/d70/_h_d_f5_application_2custom__python_2add__custom__io__to__python_8cpp.html" target="_top" xlink:title=" ">
<polygon fill="white" stroke="#666666" points="770,-52 599,-52 599,0 770,0 770,-52"/>
<text text-anchor="start" x="607" y="-40" font-family="Helvetica,sans-Serif" font-size="10.00">/software/kratos/doxygen</text>
<text text-anchor="start" x="607" y="-29" font-family="Helvetica,sans-Serif" font-size="10.00">/applications/HDF5Application</text>
<text text-anchor="start" x="607" y="-18" font-family="Helvetica,sans-Serif" font-size="10.00">/custom_python/add_custom_io</text>
<text text-anchor="middle" x="684.5" y="-7" font-family="Helvetica,sans-Serif" font-size="10.00">_to_python.cpp</text>
</a>
</g>
</g>
<!-- Node6&#45;&gt;Node8 -->
<g id="edge7" class="edge">
<title>Node6&#45;&gt;Node8</title>
<path fill="none" stroke="#63b8ff" d="M611.88,-85.92C625.09,-75.2 640.2,-62.94 653.2,-52.4"/>
<polygon fill="#63b8ff" stroke="#63b8ff" points="609.82,-83.08 604.26,-92.1 614.23,-88.52 609.82,-83.08"/>
</g>
</g>
</svg>
