<?xml version="1.0" encoding="UTF-8" standalone="no"?>
<!DOCTYPE svg PUBLIC "-//W3C//DTD SVG 1.1//EN"
 "http://www.w3.org/Graphics/SVG/1.1/DTD/svg11.dtd">
<!-- Generated by graphviz version 7.1.0 (0)
 -->
<!-- Title: /software/kratos/doxygen/applications/MeshingApplication/custom_utilities/cutting_iso_app.h Pages: 1 -->
<svg width="3517pt" height="1094pt"
 viewBox="0.00 0.00 3516.50 1094.00" xmlns="http://www.w3.org/2000/svg" xmlns:xlink="http://www.w3.org/1999/xlink">
<g id="graph0" class="graph" transform="scale(1 1) rotate(0) translate(4 1090)">
<title>/software/kratos/doxygen/applications/MeshingApplication/custom_utilities/cutting_iso_app.h</title>
<!-- Node1 -->
<g id="node1" class="node">
<title>Node1</title>
<g id="a_node1"><a xlink:title=" ">
<polygon fill="#999999" stroke="#666666" points="1737,-1086 1551,-1086 1551,-1045 1737,-1045 1737,-1086"/>
<text text-anchor="start" x="1559" y="-1074" font-family="Helvetica,sans-Serif" font-size="10.00">/software/kratos/doxygen</text>
<text text-anchor="start" x="1559" y="-1063" font-family="Helvetica,sans-Serif" font-size="10.00">/applications/MeshingApplication</text>
<text text-anchor="middle" x="1644" y="-1052" font-family="Helvetica,sans-Serif" font-size="10.00">/custom_utilities/cutting_iso_app.h</text>
</a>
</g>
</g>
<!-- Node2 -->
<g id="node2" class="node">
<title>Node2</title>
<g id="a_node2"><a xlink:title=" ">
<polygon fill="#e0e0e0" stroke="#999999" points="516,-24.5 472,-24.5 472,-5.5 516,-5.5 516,-24.5"/>
<text text-anchor="middle" x="494" y="-12.5" font-family="Helvetica,sans-Serif" font-size="10.00">string</text>
</a>
</g>
</g>
<!-- Node1&#45;&gt;Node2 -->
<g id="edge1" class="edge">
<title>Node1&#45;&gt;Node2</title>
<path fill="none" stroke="#63b8ff" d="M1550.61,-1064.74C1236.99,-1065.05 233.64,-1061.86 99,-1009 44.88,-987.75 0,-981.64 0,-923.5 0,-923.5 0,-923.5 0,-129.5 0,-34.82 349.03,-19.12 460.33,-16.52"/>
<polygon fill="#63b8ff" stroke="#63b8ff" points="460.38,-20.02 470.3,-16.31 460.23,-13.02 460.38,-20.02"/>
</g>
<!-- Node3 -->
<g id="node3" class="node">
<title>Node3</title>
<g id="a_node3"><a xlink:title=" ">
<polygon fill="#e0e0e0" stroke="#999999" points="1488,-24.5 1428,-24.5 1428,-5.5 1488,-5.5 1488,-24.5"/>
<text text-anchor="middle" x="1458" y="-12.5" font-family="Helvetica,sans-Serif" font-size="10.00">iostream</text>
</a>
</g>
</g>
<!-- Node1&#45;&gt;Node3 -->
<g id="edge2" class="edge">
<title>Node1&#45;&gt;Node3</title>
<path fill="none" stroke="#63b8ff" d="M1550.51,-1063.49C1269.39,-1060.04 443.99,-1046.78 329,-1009 279.11,-992.61 263.98,-983.86 231,-943 172.68,-870.75 76,-647.85 76,-555 76,-555 76,-555 76,-421 76,-134.24 1185.59,-36.21 1416.3,-18.92"/>
<polygon fill="#63b8ff" stroke="#63b8ff" points="1416.3,-22.43 1426.01,-18.21 1415.78,-15.45 1416.3,-22.43"/>
</g>
<!-- Node4 -->
<g id="node4" class="node">
<title>Node4</title>
<g id="a_node4"><a xlink:title=" ">
<polygon fill="#e0e0e0" stroke="#999999" points="165.5,-1003.5 116.5,-1003.5 116.5,-984.5 165.5,-984.5 165.5,-1003.5"/>
<text text-anchor="middle" x="141" y="-991.5" font-family="Helvetica,sans-Serif" font-size="10.00">cstdlib</text>
</a>
</g>
</g>
<!-- Node1&#45;&gt;Node4 -->
<g id="edge3" class="edge">
<title>Node1&#45;&gt;Node4</title>
<path fill="none" stroke="#63b8ff" d="M1550.61,-1064.69C1271.07,-1064.66 444.07,-1060.13 180,-1009 177.68,-1008.55 175.32,-1007.99 172.96,-1007.35"/>
<polygon fill="#63b8ff" stroke="#63b8ff" points="174.16,-1004.05 163.57,-1004.37 172.04,-1010.73 174.16,-1004.05"/>
</g>
<!-- Node5 -->
<g id="node5" class="node">
<title>Node5</title>
<g id="a_node5"><a xlink:title=" ">
<polygon fill="#e0e0e0" stroke="#999999" points="683.5,-305 636.5,-305 636.5,-286 683.5,-286 683.5,-305"/>
<text text-anchor="middle" x="660" y="-293" font-family="Helvetica,sans-Serif" font-size="10.00">cmath</text>
</a>
</g>
</g>
<!-- Node1&#45;&gt;Node5 -->
<g id="edge4" class="edge">
<title>Node1&#45;&gt;Node5</title>
<path fill="none" stroke="#63b8ff" d="M1550.63,-1063.36C1283.58,-1059.67 529.04,-1046.05 424,-1009 320.17,-972.38 228,-967.6 228,-857.5 228,-857.5 228,-857.5 228,-421 228,-338.6 521.86,-307.43 624.85,-299.04"/>
<polygon fill="#63b8ff" stroke="#63b8ff" points="624.96,-302.54 634.65,-298.27 624.41,-295.56 624.96,-302.54"/>
</g>
<!-- Node6 -->
<g id="node6" class="node">
<title>Node6</title>
<g id="a_node6"><a xlink:title=" ">
<polygon fill="#e0e0e0" stroke="#999999" points="662,-195 598,-195 598,-176 662,-176 662,-195"/>
<text text-anchor="middle" x="630" y="-183" font-family="Helvetica,sans-Serif" font-size="10.00">algorithm</text>
</a>
</g>
</g>
<!-- Node1&#45;&gt;Node6 -->
<g id="edge5" class="edge">
<title>Node1&#45;&gt;Node6</title>
<path fill="none" stroke="#63b8ff" d="M1550.51,-1064.66C1224.84,-1064.75 157.24,-1061.08 107,-1009 97.74,-999.4 106.89,-992.33 107,-979 107.67,-898.1 110,-877.9 110,-797 110,-797 110,-797 110,-734.5 110,-545.87 117.73,-453.68 269,-341 370.84,-265.14 515.62,-217.87 586.92,-197.75"/>
<polygon fill="#63b8ff" stroke="#63b8ff" points="587.56,-201.21 596.26,-195.16 585.69,-194.47 587.56,-201.21"/>
</g>
<!-- Node7 -->
<g id="node7" class="node">
<title>Node7</title>
<g id="a_node7"><a xlink:href="../../df/d67/define_8h.html" target="_top" xlink:title=" ">
<polygon fill="white" stroke="#666666" points="2519.5,-140 2420.5,-140 2420.5,-121 2519.5,-121 2519.5,-140"/>
<text text-anchor="middle" x="2470" y="-128" font-family="Helvetica,sans-Serif" font-size="10.00">includes/define.h</text>
</a>
</g>
</g>
<!-- Node1&#45;&gt;Node7 -->
<g id="edge6" class="edge">
<title>Node1&#45;&gt;Node7</title>
<path fill="none" stroke="#63b8ff" d="M1737.39,-1064.21C2060.82,-1062.79 3116.5,-1054.68 3172,-1009 3202.13,-984.2 3192,-962.53 3192,-923.5 3192,-923.5 3192,-923.5 3192,-294.5 3192,-159.47 2705.45,-136.29 2531.17,-132.32"/>
<polygon fill="#63b8ff" stroke="#63b8ff" points="2531.5,-128.83 2521.42,-132.11 2531.35,-135.82 2531.5,-128.83"/>
</g>
<!-- Node19 -->
<g id="node13" class="node">
<title>Node19</title>
<g id="a_node13"><a xlink:href="../../dd/dfe/model__part_8h.html" target="_top" xlink:title=" ">
<polygon fill="white" stroke="#666666" points="1814.5,-866 1689.5,-866 1689.5,-847 1814.5,-847 1814.5,-866"/>
<text text-anchor="middle" x="1752" y="-854" font-family="Helvetica,sans-Serif" font-size="10.00">includes/model_part.h</text>
</a>
</g>
</g>
<!-- Node1&#45;&gt;Node19 -->
<g id="edge18" class="edge">
<title>Node1&#45;&gt;Node19</title>
<path fill="none" stroke="#63b8ff" d="M1640.71,-1044.66C1636.4,-1011.79 1632.58,-945.37 1663,-902 1673.25,-887.38 1689.74,-877.32 1705.75,-870.51"/>
<polygon fill="#63b8ff" stroke="#63b8ff" points="1706.65,-873.91 1714.72,-867.03 1704.13,-867.38 1706.65,-873.91"/>
</g>
<!-- Node107 -->
<g id="node36" class="node">
<title>Node107</title>
<g id="a_node36"><a xlink:href="../../de/dca/variables_8h.html" target="_top" xlink:title=" ">
<polygon fill="white" stroke="#666666" points="1067,-563.5 953,-563.5 953,-544.5 1067,-544.5 1067,-563.5"/>
<text text-anchor="middle" x="1010" y="-551.5" font-family="Helvetica,sans-Serif" font-size="10.00">includes/variables.h</text>
</a>
</g>
</g>
<!-- Node1&#45;&gt;Node107 -->
<g id="edge128" class="edge">
<title>Node1&#45;&gt;Node107</title>
<path fill="none" stroke="#63b8ff" d="M1550.65,-1059.37C1322.66,-1045.58 756,-1003.31 756,-923.5 756,-923.5 756,-923.5 756,-855.5 756,-715.73 918.26,-607.42 983.4,-569.57"/>
<polygon fill="#63b8ff" stroke="#63b8ff" points="985.06,-572.65 992.02,-564.66 981.6,-566.57 985.06,-572.65"/>
</g>
<!-- Node121 -->
<g id="node40" class="node">
<title>Node121</title>
<g id="a_node40"><a xlink:href="../../db/d68/find__nodal__neighbours__process_8h.html" target="_top" xlink:title=" ">
<polygon fill="white" stroke="#666666" points="1816,-1009 1688,-1009 1688,-979 1816,-979 1816,-1009"/>
<text text-anchor="start" x="1696" y="-997" font-family="Helvetica,sans-Serif" font-size="10.00">processes/find_nodal</text>
<text text-anchor="middle" x="1752" y="-986" font-family="Helvetica,sans-Serif" font-size="10.00">_neighbours_process.h</text>
</a>
</g>
</g>
<!-- Node1&#45;&gt;Node121 -->
<g id="edge147" class="edge">
<title>Node1&#45;&gt;Node121</title>
<path fill="none" stroke="#63b8ff" d="M1674.95,-1044.58C1689.13,-1035.46 1705.92,-1024.65 1720.2,-1015.46"/>
<polygon fill="#63b8ff" stroke="#63b8ff" points="1721.84,-1018.57 1728.35,-1010.22 1718.05,-1012.69 1721.84,-1018.57"/>
</g>
<!-- Node85 -->
<g id="node44" class="node">
<title>Node85</title>
<g id="a_node44"><a xlink:href="../../d8/d88/math__utils_8h.html" target="_top" xlink:title=" ">
<polygon fill="white" stroke="#666666" points="791.5,-365.5 674.5,-365.5 674.5,-346.5 791.5,-346.5 791.5,-365.5"/>
<text text-anchor="middle" x="733" y="-353.5" font-family="Helvetica,sans-Serif" font-size="10.00">utilities/math_utils.h</text>
</a>
</g>
</g>
<!-- Node1&#45;&gt;Node85 -->
<g id="edge165" class="edge">
<title>Node1&#45;&gt;Node85</title>
<path fill="none" stroke="#63b8ff" d="M1550.6,-1064.22C1251.69,-1062.08 338,-1045.58 338,-923.5 338,-923.5 338,-923.5 338,-795 338,-579.71 461.51,-543.49 628,-407 647.81,-390.76 673.78,-378.33 694.93,-369.93"/>
<polygon fill="#63b8ff" stroke="#63b8ff" points="695.98,-373.28 704.08,-366.45 693.49,-366.74 695.98,-373.28"/>
</g>
<!-- Node133 -->
<g id="node45" class="node">
<title>Node133</title>
<g id="a_node45"><a xlink:href="../../d0/d9c/split__tetrahedra_8h.html" target="_top" xlink:title=" ">
<polygon fill="white" stroke="#666666" points="3016.5,-1003.5 2873.5,-1003.5 2873.5,-984.5 3016.5,-984.5 3016.5,-1003.5"/>
<text text-anchor="middle" x="2945" y="-991.5" font-family="Helvetica,sans-Serif" font-size="10.00">utilities/split_tetrahedra.h</text>
</a>
</g>
</g>
<!-- Node1&#45;&gt;Node133 -->
<g id="edge170" class="edge">
<title>Node1&#45;&gt;Node133</title>
<path fill="none" stroke="#63b8ff" d="M1737.26,-1063.91C1941.22,-1061.82 2442.1,-1052.31 2859,-1009 2867.37,-1008.13 2876.16,-1006.98 2884.8,-1005.71"/>
<polygon fill="#63b8ff" stroke="#63b8ff" points="2885.17,-1009.19 2894.52,-1004.21 2884.1,-1002.27 2885.17,-1009.19"/>
</g>
<!-- Node134 -->
<g id="node46" class="node">
<title>Node134</title>
<g id="a_node46"><a xlink:href="../../df/d98/split__triangle_8h.html" target="_top" xlink:title=" ">
<polygon fill="white" stroke="#666666" points="3163.5,-1003.5 3034.5,-1003.5 3034.5,-984.5 3163.5,-984.5 3163.5,-1003.5"/>
<text text-anchor="middle" x="3099" y="-991.5" font-family="Helvetica,sans-Serif" font-size="10.00">utilities/split_triangle.h</text>
</a>
</g>
</g>
<!-- Node1&#45;&gt;Node134 -->
<g id="edge171" class="edge">
<title>Node1&#45;&gt;Node134</title>
<path fill="none" stroke="#63b8ff" d="M1737.5,-1062.53C2005.75,-1056.61 2774.68,-1037.55 3025,-1009 3031.82,-1008.22 3038.96,-1007.17 3046,-1006"/>
<polygon fill="#63b8ff" stroke="#63b8ff" points="3046.56,-1009.45 3055.8,-1004.26 3045.34,-1002.56 3046.56,-1009.45"/>
</g>
<!-- Node135 -->
<g id="node47" class="node">
<title>Node135</title>
<g id="a_node47"><a xlink:href="../../da/d60/tetrahedra__3d__4_8h.html" target="_top" xlink:title=" ">
<polygon fill="#fff0f0" stroke="red" points="3384,-1009 3258,-1009 3258,-979 3384,-979 3384,-1009"/>
<text text-anchor="start" x="3266" y="-997" font-family="Helvetica,sans-Serif" font-size="10.00">geometries/tetrahedra</text>
<text text-anchor="middle" x="3321" y="-986" font-family="Helvetica,sans-Serif" font-size="10.00">_3d_4.h</text>
</a>
</g>
</g>
<!-- Node1&#45;&gt;Node135 -->
<g id="edge172" class="edge">
<title>Node1&#45;&gt;Node135</title>
<path fill="none" stroke="#63b8ff" d="M1737.26,-1063.05C2033.2,-1058.15 2949,-1040.76 3244,-1009 3244.84,-1008.91 3245.68,-1008.82 3246.52,-1008.72"/>
<polygon fill="#63b8ff" stroke="#63b8ff" points="3246.69,-1012.23 3256.16,-1007.46 3245.79,-1005.28 3246.69,-1012.23"/>
</g>
<!-- Node136 -->
<g id="node48" class="node">
<title>Node136</title>
<g id="a_node48"><a xlink:href="../../d9/def/triangle__3d__3_8h.html" target="_top" xlink:title=" ">
<polygon fill="#fff0f0" stroke="red" points="3333.5,-937.5 3220.5,-937.5 3220.5,-907.5 3333.5,-907.5 3333.5,-937.5"/>
<text text-anchor="start" x="3228.5" y="-925.5" font-family="Helvetica,sans-Serif" font-size="10.00">geometries/triangle</text>
<text text-anchor="middle" x="3277" y="-914.5" font-family="Helvetica,sans-Serif" font-size="10.00">_3d_3.h</text>
</a>
</g>
</g>
<!-- Node1&#45;&gt;Node136 -->
<g id="edge175" class="edge">
<title>Node1&#45;&gt;Node136</title>
<path fill="none" stroke="#63b8ff" d="M1737.39,-1063.28C2064.16,-1058.76 3139.96,-1041.45 3206,-1009 3232.4,-996.03 3252.53,-968.19 3264.5,-947.79"/>
<polygon fill="#63b8ff" stroke="#63b8ff" points="3267.46,-949.68 3269.27,-939.24 3261.34,-946.27 3267.46,-949.68"/>
</g>
<!-- Node150 -->
<g id="node50" class="node">
<title>Node150</title>
<g id="a_node50"><a xlink:href="../../db/d8f/spatial__containers_8h.html" target="_top" xlink:title=" ">
<polygon fill="#fff0f0" stroke="red" points="3164,-811 3046,-811 3046,-781 3164,-781 3164,-811"/>
<text text-anchor="start" x="3054" y="-799" font-family="Helvetica,sans-Serif" font-size="10.00">spatial_containers</text>
<text text-anchor="middle" x="3105" y="-788" font-family="Helvetica,sans-Serif" font-size="10.00">/spatial_containers.h</text>
</a>
</g>
</g>
<!-- Node1&#45;&gt;Node150 -->
<g id="edge176" class="edge">
<title>Node1&#45;&gt;Node150</title>
<path fill="none" stroke="#63b8ff" d="M1737.37,-1058.83C2040.15,-1040.13 2978.37,-979.47 3032,-943 3073.32,-914.9 3092.35,-856.23 3100.2,-822.45"/>
<polygon fill="#63b8ff" stroke="#63b8ff" points="3103.61,-823.22 3102.28,-812.71 3096.77,-821.75 3103.61,-823.22"/>
</g>
<!-- Node8 -->
<g id="node8" class="node">
<title>Node8</title>
<g id="a_node8"><a xlink:title=" ">
<polygon fill="#e0e0e0" stroke="#999999" points="2526.5,-24.5 2461.5,-24.5 2461.5,-5.5 2526.5,-5.5 2526.5,-24.5"/>
<text text-anchor="middle" x="2494" y="-12.5" font-family="Helvetica,sans-Serif" font-size="10.00">stdexcept</text>
</a>
</g>
</g>
<!-- Node7&#45;&gt;Node8 -->
<g id="edge7" class="edge">
<title>Node7&#45;&gt;Node8</title>
<path fill="none" stroke="#63b8ff" d="M2473.21,-120.75C2476.37,-111.86 2481.12,-97.63 2484,-85 2487.75,-68.56 2490.38,-49.57 2492,-35.68"/>
<polygon fill="#63b8ff" stroke="#63b8ff" points="2495.44,-36.4 2493.04,-26.08 2488.48,-35.65 2495.44,-36.4"/>
</g>
<!-- Node9 -->
<g id="node9" class="node">
<title>Node9</title>
<g id="a_node9"><a xlink:title=" ">
<polygon fill="#e0e0e0" stroke="#999999" points="2935,-24.5 2879,-24.5 2879,-5.5 2935,-5.5 2935,-24.5"/>
<text text-anchor="middle" x="2907" y="-12.5" font-family="Helvetica,sans-Serif" font-size="10.00">sstream</text>
</a>
</g>
</g>
<!-- Node7&#45;&gt;Node9 -->
<g id="edge8" class="edge">
<title>Node7&#45;&gt;Node9</title>
<path fill="none" stroke="#63b8ff" d="M2504.29,-120.59C2584.31,-99.81 2783.01,-48.2 2867.73,-26.2"/>
<polygon fill="#63b8ff" stroke="#63b8ff" points="2868.4,-29.64 2877.2,-23.74 2866.64,-22.87 2868.4,-29.64"/>
</g>
<!-- Node10 -->
<g id="node10" class="node">
<title>Node10</title>
<g id="a_node10"><a xlink:href="../../dc/d25/kratos__export__api_8h.html" target="_top" xlink:title=" ">
<polygon fill="white" stroke="#666666" points="2390,-30 2262,-30 2262,0 2390,0 2390,-30"/>
<text text-anchor="start" x="2270" y="-18" font-family="Helvetica,sans-Serif" font-size="10.00">includes/kratos_export</text>
<text text-anchor="middle" x="2326" y="-7" font-family="Helvetica,sans-Serif" font-size="10.00">_api.h</text>
</a>
</g>
</g>
<!-- Node7&#45;&gt;Node10 -->
<g id="edge9" class="edge">
<title>Node7&#45;&gt;Node10</title>
<path fill="none" stroke="#63b8ff" d="M2469.53,-120.52C2468.37,-107.02 2464.28,-81.44 2450,-66 2436.83,-51.75 2419.03,-41.48 2401.04,-34.1"/>
<polygon fill="#63b8ff" stroke="#63b8ff" points="2402.47,-30.9 2391.88,-30.62 2399.98,-37.45 2402.47,-30.9"/>
</g>
<!-- Node11 -->
<g id="node11" class="node">
<title>Node11</title>
<g id="a_node11"><a xlink:href="../../d9/dc0/smart__pointers_8h.html" target="_top" xlink:title=" ">
<polygon fill="#fff0f0" stroke="red" points="2441.5,-85 2298.5,-85 2298.5,-66 2441.5,-66 2441.5,-85"/>
<text text-anchor="middle" x="2370" y="-73" font-family="Helvetica,sans-Serif" font-size="10.00">includes/smart_pointers.h</text>
</a>
</g>
</g>
<!-- Node7&#45;&gt;Node11 -->
<g id="edge10" class="edge">
<title>Node7&#45;&gt;Node11</title>
<path fill="none" stroke="#63b8ff" d="M2453.04,-120.51C2437.64,-112.35 2414.69,-100.19 2396.81,-90.71"/>
<polygon fill="#63b8ff" stroke="#63b8ff" points="2398.53,-87.66 2388.05,-86.07 2395.25,-93.84 2398.53,-87.66"/>
</g>
<!-- Node15 -->
<g id="node12" class="node">
<title>Node15</title>
<g id="a_node12"><a xlink:href="../../dd/d2d/exception_8h.html" target="_top" xlink:title=" ">
<polygon fill="#fff0f0" stroke="red" points="2280.5,-85 2163.5,-85 2163.5,-66 2280.5,-66 2280.5,-85"/>
<text text-anchor="middle" x="2222" y="-73" font-family="Helvetica,sans-Serif" font-size="10.00">includes/exception.h</text>
</a>
</g>
</g>
<!-- Node7&#45;&gt;Node15 -->
<g id="edge12" class="edge">
<title>Node7&#45;&gt;Node15</title>
<path fill="none" stroke="#63b8ff" d="M2427.93,-120.51C2385.76,-111.5 2320.71,-97.6 2275.03,-87.83"/>
<polygon fill="#63b8ff" stroke="#63b8ff" points="2275.85,-84.43 2265.34,-85.76 2274.39,-91.28 2275.85,-84.43"/>
</g>
<!-- Node11&#45;&gt;Node3 -->
<g id="edge11" class="edge">
<title>Node11&#45;&gt;Node3</title>
<path fill="none" stroke="#63b8ff" d="M2298.03,-66.78C2294.98,-66.51 2291.96,-66.24 2289,-66 1986.5,-41.04 1621.08,-23.38 1499.54,-17.84"/>
<polygon fill="#63b8ff" stroke="#63b8ff" points="1499.88,-14.36 1489.73,-17.4 1499.56,-21.35 1499.88,-14.36"/>
</g>
<!-- Node15&#45;&gt;Node2 -->
<g id="edge14" class="edge">
<title>Node15&#45;&gt;Node2</title>
<path fill="none" stroke="#63b8ff" d="M2163.02,-72.5C1888.42,-63.21 739.63,-24.32 527.69,-17.14"/>
<polygon fill="#63b8ff" stroke="#63b8ff" points="528.05,-13.65 517.94,-16.81 527.81,-20.65 528.05,-13.65"/>
</g>
<!-- Node15&#45;&gt;Node3 -->
<g id="edge15" class="edge">
<title>Node15&#45;&gt;Node3</title>
<path fill="none" stroke="#63b8ff" d="M2163.06,-67.41C2158.3,-66.91 2153.57,-66.43 2149,-66 1903.15,-42.8 1607.21,-24.66 1499.64,-18.38"/>
<polygon fill="#63b8ff" stroke="#63b8ff" points="1500.05,-14.89 1489.86,-17.81 1499.64,-21.88 1500.05,-14.89"/>
</g>
<!-- Node15&#45;&gt;Node8 -->
<g id="edge13" class="edge">
<title>Node15&#45;&gt;Node8</title>
<path fill="none" stroke="#63b8ff" d="M2263.61,-65.55C2314.11,-54.69 2398.87,-36.46 2450.3,-25.4"/>
<polygon fill="#63b8ff" stroke="#63b8ff" points="2450.84,-28.86 2459.88,-23.34 2449.37,-22.02 2450.84,-28.86"/>
</g>
<!-- Node15&#45;&gt;Node9 -->
<g id="edge16" class="edge">
<title>Node15&#45;&gt;Node9</title>
<path fill="none" stroke="#63b8ff" d="M2280.81,-66.89C2283.58,-66.58 2286.32,-66.28 2289,-66 2506.89,-43.38 2768.91,-25.12 2867.19,-18.59"/>
<polygon fill="#63b8ff" stroke="#63b8ff" points="2867.36,-22.09 2877.11,-17.93 2866.9,-15.1 2867.36,-22.09"/>
</g>
<!-- Node15&#45;&gt;Node10 -->
<g id="edge17" class="edge">
<title>Node15&#45;&gt;Node10</title>
<path fill="none" stroke="#63b8ff" d="M2237.8,-65.62C2251.73,-57.78 2272.55,-46.06 2290.47,-35.99"/>
<polygon fill="#63b8ff" stroke="#63b8ff" points="2292.01,-39.13 2299.01,-31.18 2288.58,-33.03 2292.01,-39.13"/>
</g>
<!-- Node19&#45;&gt;Node2 -->
<g id="edge19" class="edge">
<title>Node19&#45;&gt;Node2</title>
<path fill="none" stroke="#63b8ff" d="M1689.27,-855.48C1514.89,-854.94 1026.96,-849.88 872,-811 790.72,-790.61 190,-572.8 190,-489 190,-489 190,-489 190,-421 190,-339.45 152,-323.05 152,-241.5 152,-241.5 152,-241.5 152,-129.5 152,-91.87 175.17,-84.39 208,-66 250.85,-42 394.19,-25.57 460.2,-19.09"/>
<polygon fill="#63b8ff" stroke="#63b8ff" points="460.45,-22.58 470.07,-18.14 459.78,-15.61 460.45,-22.58"/>
</g>
<!-- Node19&#45;&gt;Node3 -->
<g id="edge20" class="edge">
<title>Node19&#45;&gt;Node3</title>
<path fill="none" stroke="#63b8ff" d="M1710.76,-846.53C1659.31,-832.64 1578,-800.55 1578,-736.5 1578,-736.5 1578,-736.5 1578,-553 1578,-388.94 1534,-350.56 1534,-186.5 1534,-186.5 1534,-186.5 1534,-129.5 1534,-89.27 1500.63,-52.52 1478.12,-32.3"/>
<polygon fill="#63b8ff" stroke="#63b8ff" points="1480.55,-29.78 1470.69,-25.91 1475.98,-35.09 1480.55,-29.78"/>
</g>
<!-- Node19&#45;&gt;Node7 -->
<g id="edge23" class="edge">
<title>Node19&#45;&gt;Node7</title>
<path fill="none" stroke="#63b8ff" d="M1814.76,-854.32C2002.12,-850.54 2549.15,-837.32 2625,-811 2679.06,-792.24 2730,-793.72 2730,-736.5 2730,-736.5 2730,-736.5 2730,-674 2730,-591.3 2750,-571.7 2750,-489 2750,-489 2750,-489 2750,-355 2750,-270.05 2753.48,-223.42 2683,-176 2638.02,-145.73 2576.54,-135.42 2531.18,-132.19"/>
<polygon fill="#63b8ff" stroke="#63b8ff" points="2531.43,-128.7 2521.24,-131.6 2531.01,-135.69 2531.43,-128.7"/>
</g>
<!-- Node19&#45;&gt;Node9 -->
<g id="edge21" class="edge">
<title>Node19&#45;&gt;Node9</title>
<path fill="none" stroke="#63b8ff" d="M1814.99,-854.3C1995.7,-850.57 2513.59,-837.79 2681,-811 2789.81,-793.59 2831.66,-810.88 2920,-745 3019.56,-670.74 3230,-266.68 3230,-186.5 3230,-186.5 3230,-186.5 3230,-129.5 3230,-85.14 3193.04,-85.1 3153,-66 3085.08,-33.6 2996.88,-22.16 2946.65,-18.15"/>
<polygon fill="#63b8ff" stroke="#63b8ff" points="2947.07,-14.67 2936.84,-17.43 2946.55,-21.65 2947.07,-14.67"/>
</g>
<!-- Node20 -->
<g id="node14" class="node">
<title>Node20</title>
<g id="a_node14"><a xlink:title=" ">
<polygon fill="#e0e0e0" stroke="#999999" points="2365.5,-305 2312.5,-305 2312.5,-286 2365.5,-286 2365.5,-305"/>
<text text-anchor="middle" x="2339" y="-293" font-family="Helvetica,sans-Serif" font-size="10.00">cstddef</text>
</a>
</g>
</g>
<!-- Node19&#45;&gt;Node20 -->
<g id="edge22" class="edge">
<title>Node19&#45;&gt;Node20</title>
<path fill="none" stroke="#63b8ff" d="M1814.79,-853.06C1940.89,-847.76 2220.82,-833.77 2314,-811 2460.45,-775.22 2537.63,-762.57 2597,-624 2600.33,-616.24 2599.88,-612.94 2597,-605 2571.55,-534.91 2408.94,-367 2355.79,-313.31"/>
<polygon fill="#63b8ff" stroke="#63b8ff" points="2358.57,-311.14 2349.04,-306.52 2353.6,-316.08 2358.57,-311.14"/>
</g>
<!-- Node21 -->
<g id="node15" class="node">
<title>Node21</title>
<g id="a_node15"><a xlink:href="../../dd/d5f/serializer_8h.html" target="_top" xlink:title=" ">
<polygon fill="#fff0f0" stroke="red" points="1321.5,-305 1208.5,-305 1208.5,-286 1321.5,-286 1321.5,-305"/>
<text text-anchor="middle" x="1265" y="-293" font-family="Helvetica,sans-Serif" font-size="10.00">includes/serializer.h</text>
</a>
</g>
</g>
<!-- Node19&#45;&gt;Node21 -->
<g id="edge24" class="edge">
<title>Node19&#45;&gt;Node21</title>
<path fill="none" stroke="#63b8ff" d="M1689.25,-856.06C1567.76,-856.19 1305.35,-851.58 1226,-811 1187.14,-791.12 1162,-780.15 1162,-736.5 1162,-736.5 1162,-736.5 1162,-421 1162,-372.11 1209.75,-332.08 1240.22,-311.51"/>
<polygon fill="#63b8ff" stroke="#63b8ff" points="1242.05,-314.5 1248.53,-306.12 1238.24,-308.62 1242.05,-314.5"/>
</g>
<!-- Node54 -->
<g id="node18" class="node">
<title>Node54</title>
<g id="a_node18"><a xlink:href="../../d1/d8c/logger_8h.html" target="_top" xlink:title=" ">
<polygon fill="#fff0f0" stroke="red" points="1214,-250 1094,-250 1094,-231 1214,-231 1214,-250"/>
<text text-anchor="middle" x="1154" y="-238" font-family="Helvetica,sans-Serif" font-size="10.00">input_output/logger.h</text>
</a>
</g>
</g>
<!-- Node19&#45;&gt;Node54 -->
<g id="edge123" class="edge">
<title>Node19&#45;&gt;Node54</title>
<path fill="none" stroke="#63b8ff" d="M1689.14,-854.32C1476.01,-849.5 794,-827 794,-736.5 794,-736.5 794,-736.5 794,-487 794,-466.6 1049.75,-306.18 1130.12,-256.27"/>
<polygon fill="#63b8ff" stroke="#63b8ff" points="1131.5,-259.53 1138.16,-251.29 1127.81,-253.59 1131.5,-259.53"/>
</g>
<!-- Node58 -->
<g id="node19" class="node">
<title>Node58</title>
<g id="a_node19"><a xlink:href="../../de/db8/process__info_8h.html" target="_top" xlink:title=" ">
<polygon fill="#fff0f0" stroke="red" points="2103.5,-624 1972.5,-624 1972.5,-605 2103.5,-605 2103.5,-624"/>
<text text-anchor="middle" x="2038" y="-612" font-family="Helvetica,sans-Serif" font-size="10.00">includes/process_info.h</text>
</a>
</g>
</g>
<!-- Node19&#45;&gt;Node58 -->
<g id="edge43" class="edge">
<title>Node19&#45;&gt;Node58</title>
<path fill="none" stroke="#63b8ff" d="M1814.94,-853.86C1854.52,-849.85 1904.62,-838.99 1940,-811 1998.3,-764.88 2024.75,-674.94 2033.96,-635.19"/>
<polygon fill="#63b8ff" stroke="#63b8ff" points="2037.33,-636.17 2036.05,-625.65 2030.49,-634.67 2037.33,-636.17"/>
</g>
<!-- Node59 -->
<g id="node20" class="node">
<title>Node59</title>
<g id="a_node20"><a xlink:href="../../d1/d82/data__value__container_8h.html" target="_top" xlink:title=" ">
<polygon fill="#fff0f0" stroke="red" points="2021.5,-569 1896.5,-569 1896.5,-539 2021.5,-539 2021.5,-569"/>
<text text-anchor="start" x="1904.5" y="-557" font-family="Helvetica,sans-Serif" font-size="10.00">containers/data_value</text>
<text text-anchor="middle" x="1959" y="-546" font-family="Helvetica,sans-Serif" font-size="10.00">_container.h</text>
</a>
</g>
</g>
<!-- Node19&#45;&gt;Node59 -->
<g id="edge70" class="edge">
<title>Node19&#45;&gt;Node59</title>
<path fill="none" stroke="#63b8ff" d="M1729.04,-846.56C1713.84,-839.36 1694.94,-827.67 1685,-811 1650.33,-752.85 1657.53,-708.27 1705,-660 1753.7,-610.48 1829.12,-583.33 1885.15,-569.12"/>
<polygon fill="#63b8ff" stroke="#63b8ff" points="1885.73,-572.58 1894.61,-566.81 1884.06,-565.78 1885.73,-572.58"/>
</g>
<!-- Node60 -->
<g id="node21" class="node">
<title>Node60</title>
<g id="a_node21"><a xlink:href="../../da/d89/variable_8h.html" target="_top" xlink:title=" ">
<polygon fill="#fff0f0" stroke="red" points="1461.5,-431.5 1342.5,-431.5 1342.5,-412.5 1461.5,-412.5 1461.5,-431.5"/>
<text text-anchor="middle" x="1402" y="-419.5" font-family="Helvetica,sans-Serif" font-size="10.00">containers/variable.h</text>
</a>
</g>
</g>
<!-- Node19&#45;&gt;Node60 -->
<g id="edge126" class="edge">
<title>Node19&#45;&gt;Node60</title>
<path fill="none" stroke="#63b8ff" d="M1689.15,-849.97C1622.21,-843.19 1521.39,-830.2 1488,-811 1450.66,-789.53 1426,-779.58 1426,-736.5 1426,-736.5 1426,-736.5 1426,-553 1426,-513.34 1415.06,-467.99 1407.96,-442.7"/>
<polygon fill="#63b8ff" stroke="#63b8ff" points="1411.34,-441.8 1405.18,-433.18 1404.62,-443.76 1411.34,-441.8"/>
</g>
<!-- Node61 -->
<g id="node22" class="node">
<title>Node61</title>
<g id="a_node22"><a xlink:href="../../d3/dc3/variable__data_8h.html" target="_top" xlink:title=" ">
<polygon fill="#fff0f0" stroke="red" points="1520,-365.5 1428,-365.5 1428,-346.5 1520,-346.5 1520,-365.5"/>
<text text-anchor="middle" x="1474" y="-353.5" font-family="Helvetica,sans-Serif" font-size="10.00">variable_data.h</text>
</a>
</g>
</g>
<!-- Node19&#45;&gt;Node61 -->
<g id="edge127" class="edge">
<title>Node19&#45;&gt;Node61</title>
<path fill="none" stroke="#63b8ff" d="M1689.24,-852.21C1615.18,-844.55 1502,-819.3 1502,-736.5 1502,-736.5 1502,-736.5 1502,-553 1502,-488.1 1486.77,-412.31 1478.77,-377"/>
<polygon fill="#63b8ff" stroke="#63b8ff" points="1482.21,-376.34 1476.54,-367.4 1475.4,-377.93 1482.21,-376.34"/>
</g>
<!-- Node71 -->
<g id="node24" class="node">
<title>Node71</title>
<g id="a_node24"><a xlink:href="../../d8/d3b/mesh_8h.html" target="_top" xlink:title=" ">
<polygon fill="#fff0f0" stroke="red" points="2283,-745 2187,-745 2187,-726 2283,-726 2283,-745"/>
<text text-anchor="middle" x="2235" y="-733" font-family="Helvetica,sans-Serif" font-size="10.00">includes/mesh.h</text>
</a>
</g>
</g>
<!-- Node19&#45;&gt;Node71 -->
<g id="edge71" class="edge">
<title>Node19&#45;&gt;Node71</title>
<path fill="none" stroke="#63b8ff" d="M1814.81,-853.17C1911.87,-848.8 2093.25,-837.31 2152,-811 2180.63,-798.18 2206.26,-771.75 2221.23,-754.07"/>
<polygon fill="#63b8ff" stroke="#63b8ff" points="2223.82,-756.42 2227.44,-746.46 2218.4,-752 2223.82,-756.42"/>
</g>
<!-- Node75 -->
<g id="node25" class="node">
<title>Node75</title>
<g id="a_node25"><a xlink:href="../../d2/d58/pointer__vector__map_8h.html" target="_top" xlink:title=" ">
<polygon fill="#fff0f0" stroke="red" points="2531.5,-371 2426.5,-371 2426.5,-341 2531.5,-341 2531.5,-371"/>
<text text-anchor="start" x="2434.5" y="-359" font-family="Helvetica,sans-Serif" font-size="10.00">containers/pointer</text>
<text text-anchor="middle" x="2479" y="-348" font-family="Helvetica,sans-Serif" font-size="10.00">_vector_map.h</text>
</a>
</g>
</g>
<!-- Node19&#45;&gt;Node75 -->
<g id="edge121" class="edge">
<title>Node19&#45;&gt;Node75</title>
<path fill="none" stroke="#63b8ff" d="M1814.92,-856C1999.3,-856.94 2529.25,-855.69 2592,-811 2671.49,-754.39 2699.22,-697.46 2668,-605 2635.2,-507.83 2547.44,-418.66 2504.03,-378.87"/>
<polygon fill="#63b8ff" stroke="#63b8ff" points="2506.61,-376.48 2496.84,-372.37 2501.91,-381.67 2506.61,-376.48"/>
</g>
<!-- Node87 -->
<g id="node26" class="node">
<title>Node87</title>
<g id="a_node26"><a xlink:href="../../da/da4/master__slave__constraint_8h.html" target="_top" xlink:title=" ">
<polygon fill="#fff0f0" stroke="red" points="2228,-690 2102,-690 2102,-660 2228,-660 2228,-690"/>
<text text-anchor="start" x="2110" y="-678" font-family="Helvetica,sans-Serif" font-size="10.00">includes/master_slave</text>
<text text-anchor="middle" x="2165" y="-667" font-family="Helvetica,sans-Serif" font-size="10.00">_constraint.h</text>
</a>
</g>
</g>
<!-- Node19&#45;&gt;Node87 -->
<g id="edge125" class="edge">
<title>Node19&#45;&gt;Node87</title>
<path fill="none" stroke="#63b8ff" d="M1814.82,-853.75C1899.48,-850.3 2044.6,-840.19 2088,-811 2126.71,-784.96 2148.26,-732.51 2158.17,-701.2"/>
<polygon fill="#63b8ff" stroke="#63b8ff" points="2161.47,-702.37 2160.97,-691.79 2154.76,-700.37 2161.47,-702.37"/>
</g>
<!-- Node99 -->
<g id="node27" class="node">
<title>Node99</title>
<g id="a_node27"><a xlink:href="../../d0/dac/kratos__flags_8h.html" target="_top" xlink:title=" ">
<polygon fill="#fff0f0" stroke="red" points="2588,-624 2460,-624 2460,-605 2588,-605 2588,-624"/>
<text text-anchor="middle" x="2524" y="-612" font-family="Helvetica,sans-Serif" font-size="10.00">includes/kratos_flags.h</text>
</a>
</g>
</g>
<!-- Node19&#45;&gt;Node99 -->
<g id="edge124" class="edge">
<title>Node19&#45;&gt;Node99</title>
<path fill="none" stroke="#63b8ff" d="M1814.75,-852.83C1966.14,-845.25 2346.33,-819.14 2446,-745 2484.14,-716.63 2507.36,-663.58 2517.67,-634.97"/>
<polygon fill="#63b8ff" stroke="#63b8ff" points="2520.89,-636.38 2520.82,-625.78 2514.27,-634.11 2520.89,-636.38"/>
</g>
<!-- Node100 -->
<g id="node28" class="node">
<title>Node100</title>
<g id="a_node28"><a xlink:href="../../d3/dad/geometry__container_8h.html" target="_top" xlink:title=" ">
<polygon fill="white" stroke="#666666" points="2142,-437 2024,-437 2024,-407 2142,-407 2142,-437"/>
<text text-anchor="start" x="2032" y="-425" font-family="Helvetica,sans-Serif" font-size="10.00">containers/geometry</text>
<text text-anchor="middle" x="2083" y="-414" font-family="Helvetica,sans-Serif" font-size="10.00">_container.h</text>
</a>
</g>
</g>
<!-- Node19&#45;&gt;Node100 -->
<g id="edge91" class="edge">
<title>Node19&#45;&gt;Node100</title>
<path fill="none" stroke="#63b8ff" d="M1814.93,-854.04C1860.49,-850.37 1921.9,-839.83 1968,-811 1990.23,-797.09 2103.55,-648.83 2112,-624 2132.89,-562.64 2108.82,-485.74 2093.59,-447.27"/>
<polygon fill="#63b8ff" stroke="#63b8ff" points="2097,-446.38 2089.97,-438.46 2090.53,-449.04 2097,-446.38"/>
</g>
<!-- Node101 -->
<g id="node29" class="node">
<title>Node101</title>
<g id="a_node29"><a xlink:href="../../da/d92/pointer__hash__map__set_8h.html" target="_top" xlink:title=" ">
<polygon fill="#fff0f0" stroke="red" points="1333.5,-371 1228.5,-371 1228.5,-341 1333.5,-341 1333.5,-371"/>
<text text-anchor="start" x="1236.5" y="-359" font-family="Helvetica,sans-Serif" font-size="10.00">containers/pointer</text>
<text text-anchor="middle" x="1281" y="-348" font-family="Helvetica,sans-Serif" font-size="10.00">_hash_map_set.h</text>
</a>
</g>
</g>
<!-- Node19&#45;&gt;Node101 -->
<g id="edge122" class="edge">
<title>Node19&#45;&gt;Node101</title>
<path fill="none" stroke="#63b8ff" d="M1689.22,-855.08C1544.54,-852.41 1200,-835.64 1200,-736.5 1200,-736.5 1200,-736.5 1200,-487 1200,-443.71 1232.76,-402.9 1256.61,-378.93"/>
<polygon fill="#63b8ff" stroke="#63b8ff" points="1258.78,-381.7 1263.52,-372.23 1253.91,-376.68 1258.78,-381.7"/>
</g>
<!-- Node102 -->
<g id="node31" class="node">
<title>Node102</title>
<g id="a_node31"><a xlink:href="../../d4/dfe/element_8h.html" target="_top" xlink:title=" ">
<polygon fill="#fff0f0" stroke="red" points="1807,-745 1697,-745 1697,-726 1807,-726 1807,-745"/>
<text text-anchor="middle" x="1752" y="-733" font-family="Helvetica,sans-Serif" font-size="10.00">includes/element.h</text>
</a>
</g>
</g>
<!-- Node19&#45;&gt;Node102 -->
<g id="edge97" class="edge">
<title>Node19&#45;&gt;Node102</title>
<path fill="none" stroke="#63b8ff" d="M1752,-846.56C1752,-827.6 1752,-782.97 1752,-756.73"/>
<polygon fill="#63b8ff" stroke="#63b8ff" points="1755.5,-756.74 1752,-746.74 1748.5,-756.74 1755.5,-756.74"/>
</g>
<!-- Node119 -->
<g id="node33" class="node">
<title>Node119</title>
<g id="a_node33"><a xlink:href="../../d7/d6c/condition_8h.html" target="_top" xlink:title=" ">
<polygon fill="#fff0f0" stroke="red" points="1828,-684.5 1714,-684.5 1714,-665.5 1828,-665.5 1828,-684.5"/>
<text text-anchor="middle" x="1771" y="-672.5" font-family="Helvetica,sans-Serif" font-size="10.00">includes/condition.h</text>
</a>
</g>
</g>
<!-- Node19&#45;&gt;Node119 -->
<g id="edge103" class="edge">
<title>Node19&#45;&gt;Node119</title>
<path fill="none" stroke="#63b8ff" d="M1741.33,-846.53C1717.33,-825.24 1663.08,-770.1 1688,-726 1697.59,-709.02 1715.52,-697.16 1732.27,-689.27"/>
<polygon fill="#63b8ff" stroke="#63b8ff" points="1733.28,-692.65 1741.07,-685.47 1730.5,-686.23 1733.28,-692.65"/>
</g>
<!-- Node120 -->
<g id="node34" class="node">
<title>Node120</title>
<g id="a_node34"><a xlink:href="../../d8/d75/communicator_8h.html" target="_top" xlink:title=" ">
<polygon fill="white" stroke="#666666" points="1931.5,-805.5 1792.5,-805.5 1792.5,-786.5 1931.5,-786.5 1931.5,-805.5"/>
<text text-anchor="middle" x="1862" y="-793.5" font-family="Helvetica,sans-Serif" font-size="10.00">includes/communicator.h</text>
</a>
</g>
</g>
<!-- Node19&#45;&gt;Node120 -->
<g id="edge106" class="edge">
<title>Node19&#45;&gt;Node120</title>
<path fill="none" stroke="#63b8ff" d="M1768.71,-846.62C1786.31,-837.25 1814.31,-822.36 1835.05,-811.33"/>
<polygon fill="#63b8ff" stroke="#63b8ff" points="1836.61,-814.46 1843.8,-806.68 1833.33,-808.28 1836.61,-814.46"/>
</g>
<!-- Node104 -->
<g id="node35" class="node">
<title>Node104</title>
<g id="a_node35"><a xlink:href="../../dd/d98/table_8h.html" target="_top" xlink:title=" ">
<polygon fill="white" stroke="#666666" points="1322,-497.5 1228,-497.5 1228,-478.5 1322,-478.5 1322,-497.5"/>
<text text-anchor="middle" x="1275" y="-485.5" font-family="Helvetica,sans-Serif" font-size="10.00">includes/table.h</text>
</a>
</g>
</g>
<!-- Node19&#45;&gt;Node104 -->
<g id="edge115" class="edge">
<title>Node19&#45;&gt;Node104</title>
<path fill="none" stroke="#63b8ff" d="M1689.28,-852.9C1560.03,-845.84 1276,-820.72 1276,-736.5 1276,-736.5 1276,-736.5 1276,-613.5 1276,-576.67 1275.56,-533.72 1275.26,-509.11"/>
<polygon fill="#63b8ff" stroke="#63b8ff" points="1278.76,-509.22 1275.14,-499.27 1271.76,-509.31 1278.76,-509.22"/>
</g>
<!-- Node21&#45;&gt;Node2 -->
<g id="edge25" class="edge">
<title>Node21&#45;&gt;Node2</title>
<path fill="none" stroke="#63b8ff" d="M1262,-285.73C1256.64,-271.53 1243.98,-243.82 1223,-231 1099.37,-155.45 1026.37,-264.06 899,-195 833.76,-159.63 857.24,-103.15 793,-66 748.19,-40.09 595.73,-24.48 527.5,-18.64"/>
<polygon fill="#63b8ff" stroke="#63b8ff" points="527.92,-15.16 517.66,-17.81 527.34,-22.13 527.92,-15.16"/>
</g>
<!-- Node21&#45;&gt;Node3 -->
<g id="edge26" class="edge">
<title>Node21&#45;&gt;Node3</title>
<path fill="none" stroke="#63b8ff" d="M1266.89,-285.51C1274.24,-252.43 1303.79,-135.82 1368,-66 1382.8,-49.91 1404,-37.78 1422.11,-29.5"/>
<polygon fill="#63b8ff" stroke="#63b8ff" points="1423.44,-32.74 1431.23,-25.56 1420.66,-26.31 1423.44,-32.74"/>
</g>
<!-- Node21&#45;&gt;Node7 -->
<g id="edge28" class="edge">
<title>Node21&#45;&gt;Node7</title>
<path fill="none" stroke="#63b8ff" d="M1299.05,-285.53C1385.87,-263.06 1622.83,-204.11 1824,-176 2037.67,-146.14 2294.02,-136.04 2408.98,-132.86"/>
<polygon fill="#63b8ff" stroke="#63b8ff" points="2408.9,-136.36 2418.8,-132.59 2408.71,-129.36 2408.9,-136.36"/>
</g>
<!-- Node21&#45;&gt;Node9 -->
<g id="edge27" class="edge">
<title>Node21&#45;&gt;Node9</title>
<path fill="none" stroke="#63b8ff" d="M1317.77,-285.55C1569.63,-242.83 2646.27,-60.22 2867.26,-22.74"/>
<polygon fill="#63b8ff" stroke="#63b8ff" points="2867.81,-26.2 2877.09,-21.07 2866.64,-19.3 2867.81,-26.2"/>
</g>
<!-- Node29 -->
<g id="node16" class="node">
<title>Node29</title>
<g id="a_node16"><a xlink:href="../../d9/d3e/ublas__interface_8h.html" target="_top" xlink:title=" ">
<polygon fill="#fff0f0" stroke="red" points="1052,-195 908,-195 908,-176 1052,-176 1052,-195"/>
<text text-anchor="middle" x="980" y="-183" font-family="Helvetica,sans-Serif" font-size="10.00">includes/ublas_interface.h</text>
</a>
</g>
</g>
<!-- Node21&#45;&gt;Node29 -->
<g id="edge29" class="edge">
<title>Node21&#45;&gt;Node29</title>
<path fill="none" stroke="#63b8ff" d="M1266.67,-285.73C1268.72,-272.03 1270.35,-245.62 1256,-231 1229.74,-204.24 1134.67,-193.57 1063.39,-189.32"/>
<polygon fill="#63b8ff" stroke="#63b8ff" points="1063.86,-185.84 1053.68,-188.77 1063.47,-192.83 1063.86,-185.84"/>
</g>
<!-- Node45 -->
<g id="node17" class="node">
<title>Node45</title>
<g id="a_node17"><a xlink:href="../../d9/d36/array__1d_8h.html" target="_top" xlink:title=" ">
<polygon fill="#fff0f0" stroke="red" points="962,-250 840,-250 840,-231 962,-231 962,-250"/>
<text text-anchor="middle" x="901" y="-238" font-family="Helvetica,sans-Serif" font-size="10.00">containers/array_1d.h</text>
</a>
</g>
</g>
<!-- Node21&#45;&gt;Node45 -->
<g id="edge33" class="edge">
<title>Node21&#45;&gt;Node45</title>
<path fill="none" stroke="#63b8ff" d="M1208.12,-286.22C1144.86,-277.01 1042.51,-262.1 973.53,-252.06"/>
<polygon fill="#63b8ff" stroke="#63b8ff" points="974.23,-248.63 963.83,-250.65 973.23,-255.55 974.23,-248.63"/>
</g>
<!-- Node21&#45;&gt;Node54 -->
<g id="edge39" class="edge">
<title>Node21&#45;&gt;Node54</title>
<path fill="none" stroke="#63b8ff" d="M1246.17,-285.51C1228.84,-277.24 1202.89,-264.84 1182.93,-255.31"/>
<polygon fill="#63b8ff" stroke="#63b8ff" points="1184.45,-252.16 1173.92,-251.01 1181.43,-258.48 1184.45,-252.16"/>
</g>
<!-- Node29&#45;&gt;Node2 -->
<g id="edge30" class="edge">
<title>Node29&#45;&gt;Node2</title>
<path fill="none" stroke="#63b8ff" d="M976.6,-175.75C967.3,-153.14 939.08,-92.64 894,-66 832.19,-29.48 612.55,-19.38 527.75,-16.81"/>
<polygon fill="#63b8ff" stroke="#63b8ff" points="527.86,-13.31 517.76,-16.53 527.66,-20.31 527.86,-13.31"/>
</g>
<!-- Node29&#45;&gt;Node3 -->
<g id="edge31" class="edge">
<title>Node29&#45;&gt;Node3</title>
<path fill="none" stroke="#63b8ff" d="M983.4,-175.76C992.72,-153.16 1020.95,-92.69 1066,-66 1124.54,-31.31 1327.75,-20.36 1416.26,-17.19"/>
<polygon fill="#63b8ff" stroke="#63b8ff" points="1416.33,-20.69 1426.2,-16.85 1416.09,-13.69 1416.33,-20.69"/>
</g>
<!-- Node29&#45;&gt;Node7 -->
<g id="edge32" class="edge">
<title>Node29&#45;&gt;Node7</title>
<path fill="none" stroke="#63b8ff" d="M1052.37,-181.93C1308.82,-172.8 2171.62,-142.11 2409.07,-133.67"/>
<polygon fill="#63b8ff" stroke="#63b8ff" points="2408.84,-137.18 2418.71,-133.32 2408.59,-130.18 2408.84,-137.18"/>
</g>
<!-- Node45&#45;&gt;Node2 -->
<g id="edge34" class="edge">
<title>Node45&#45;&gt;Node2</title>
<path fill="none" stroke="#63b8ff" d="M881.45,-230.55C865.77,-222.71 843.85,-210.21 828,-195 778.3,-147.27 799.22,-104.39 742,-66 707.28,-42.71 587.04,-26.41 527.68,-19.58"/>
<polygon fill="#63b8ff" stroke="#63b8ff" points="528.16,-16.11 517.83,-18.47 527.38,-23.07 528.16,-16.11"/>
</g>
<!-- Node45&#45;&gt;Node3 -->
<g id="edge35" class="edge">
<title>Node45&#45;&gt;Node3</title>
<path fill="none" stroke="#63b8ff" d="M952.92,-230.51C993.44,-222.53 1045.38,-209.85 1061,-195 1104.8,-153.36 1057.57,-104.69 1104,-66 1150.69,-27.1 1333.1,-18.45 1416.26,-16.54"/>
<polygon fill="#63b8ff" stroke="#63b8ff" points="1416.11,-20.04 1426.04,-16.34 1415.97,-13.05 1416.11,-20.04"/>
</g>
<!-- Node45&#45;&gt;Node6 -->
<g id="edge36" class="edge">
<title>Node45&#45;&gt;Node6</title>
<path fill="none" stroke="#63b8ff" d="M855.03,-230.51C804.17,-220.56 722.86,-204.66 673.16,-194.94"/>
<polygon fill="#63b8ff" stroke="#63b8ff" points="674.12,-191.56 663.64,-193.08 672.78,-198.43 674.12,-191.56"/>
</g>
<!-- Node45&#45;&gt;Node7 -->
<g id="edge37" class="edge">
<title>Node45&#45;&gt;Node7</title>
<path fill="none" stroke="#63b8ff" d="M962.42,-234.95C1106.31,-224.33 1476.52,-197.17 1786,-176 2015.8,-160.28 2289.11,-142.89 2408.78,-135.35"/>
<polygon fill="#63b8ff" stroke="#63b8ff" points="2408.94,-138.84 2418.7,-134.72 2408.5,-131.86 2408.94,-138.84"/>
</g>
<!-- Node45&#45;&gt;Node29 -->
<g id="edge38" class="edge">
<title>Node45&#45;&gt;Node29</title>
<path fill="none" stroke="#63b8ff" d="M914.4,-230.51C926.16,-222.62 943.51,-210.98 957.41,-201.65"/>
<polygon fill="#63b8ff" stroke="#63b8ff" points="959.19,-204.68 965.54,-196.2 955.29,-198.87 959.19,-204.68"/>
</g>
<!-- Node54&#45;&gt;Node2 -->
<g id="edge40" class="edge">
<title>Node54&#45;&gt;Node2</title>
<path fill="none" stroke="#63b8ff" d="M1093.73,-235.46C1020.92,-229.68 903.49,-217.21 866,-195 803.82,-158.17 828.66,-103.69 767,-66 727.22,-41.68 591.57,-25.56 527.73,-19.14"/>
<polygon fill="#63b8ff" stroke="#63b8ff" points="528.13,-15.66 517.83,-18.16 527.44,-22.62 528.13,-15.66"/>
</g>
<!-- Node54&#45;&gt;Node3 -->
<g id="edge41" class="edge">
<title>Node54&#45;&gt;Node3</title>
<path fill="none" stroke="#63b8ff" d="M1166.91,-230.55C1178.46,-222.17 1195.46,-208.88 1208,-195 1254.2,-143.87 1238.7,-107.12 1294,-66 1330.32,-39 1381.35,-26.43 1416.8,-20.68"/>
<polygon fill="#63b8ff" stroke="#63b8ff" points="1416.86,-24.21 1426.23,-19.27 1415.82,-17.29 1416.86,-24.21"/>
</g>
<!-- Node54&#45;&gt;Node15 -->
<g id="edge42" class="edge">
<title>Node54&#45;&gt;Node15</title>
<path fill="none" stroke="#63b8ff" d="M1212.94,-230.5C1396.02,-202.56 1954.38,-117.35 2151.87,-87.2"/>
<polygon fill="#63b8ff" stroke="#63b8ff" points="2152.39,-90.67 2161.74,-85.7 2151.33,-83.75 2152.39,-90.67"/>
</g>
<!-- Node58&#45;&gt;Node2 -->
<g id="edge44" class="edge">
<title>Node58&#45;&gt;Node2</title>
<path fill="none" stroke="#63b8ff" d="M1972.01,-612.62C1767.18,-609.61 1144.08,-598.23 944,-569 826.46,-551.83 798.5,-538.06 685,-503 603.19,-477.73 579.06,-478.21 504,-437 348.1,-351.4 247.62,-208.54 354,-66 378.75,-32.84 427.4,-21.6 460.32,-17.84"/>
<polygon fill="#63b8ff" stroke="#63b8ff" points="460.53,-21.33 470.15,-16.9 459.86,-14.36 460.53,-21.33"/>
</g>
<!-- Node58&#45;&gt;Node3 -->
<g id="edge45" class="edge">
<title>Node58&#45;&gt;Node3</title>
<path fill="none" stroke="#63b8ff" d="M2038.07,-604.58C2037.96,-590.39 2036.81,-561.95 2030,-539 2011.29,-475.92 1995.89,-463.98 1963,-407 1863.53,-234.7 1844.28,-167.22 1673,-66 1618.52,-33.81 1544.87,-22.34 1499.45,-18.26"/>
<polygon fill="#63b8ff" stroke="#63b8ff" points="1500.02,-14.79 1489.77,-17.47 1499.45,-21.77 1500.02,-14.79"/>
</g>
<!-- Node58&#45;&gt;Node7 -->
<g id="edge48" class="edge">
<title>Node58&#45;&gt;Node7</title>
<path fill="none" stroke="#63b8ff" d="M2057.97,-604.57C2149.55,-563.53 2525.55,-394.03 2540,-371 2586.37,-297.1 2516.46,-191.25 2484.53,-149.45"/>
<polygon fill="#63b8ff" stroke="#63b8ff" points="2487.35,-147.38 2478.42,-141.67 2481.84,-151.7 2487.35,-147.38"/>
</g>
<!-- Node58&#45;&gt;Node9 -->
<g id="edge46" class="edge">
<title>Node58&#45;&gt;Node9</title>
<path fill="none" stroke="#63b8ff" d="M2103.88,-606.33C2321.26,-580.87 3002,-486 3002,-296.5 3002,-296.5 3002,-296.5 3002,-129.5 3002,-85.79 2960.05,-50.05 2931.91,-30.99"/>
<polygon fill="#63b8ff" stroke="#63b8ff" points="2933.83,-28.07 2923.53,-25.57 2930.02,-33.94 2933.83,-28.07"/>
</g>
<!-- Node58&#45;&gt;Node20 -->
<g id="edge47" class="edge">
<title>Node58&#45;&gt;Node20</title>
<path fill="none" stroke="#63b8ff" d="M2046.54,-604.73C2071.52,-579.07 2146.54,-501.85 2208,-437 2249.86,-392.83 2298.61,-340.24 2323.15,-313.68"/>
<polygon fill="#63b8ff" stroke="#63b8ff" points="2325.53,-316.26 2329.75,-306.54 2320.39,-311.51 2325.53,-316.26"/>
</g>
<!-- Node58&#45;&gt;Node59 -->
<g id="edge49" class="edge">
<title>Node58&#45;&gt;Node59</title>
<path fill="none" stroke="#63b8ff" d="M2026,-604.62C2015.86,-597.1 2000.91,-586.04 1987.71,-576.26"/>
<polygon fill="#63b8ff" stroke="#63b8ff" points="1989.84,-573.48 1979.72,-570.34 1985.67,-579.1 1989.84,-573.48"/>
</g>
<!-- Node59&#45;&gt;Node2 -->
<g id="edge50" class="edge">
<title>Node59&#45;&gt;Node2</title>
<path fill="none" stroke="#63b8ff" d="M1896.19,-551.83C1696.91,-547.83 1080.32,-533.28 883,-503 826.21,-494.28 686.96,-456.74 633,-437 616.94,-431.13 506.26,-382.92 494,-371 467.35,-345.09 456,-333.67 456,-296.5 456,-296.5 456,-296.5 456,-129.5 456,-94.64 472.32,-56.73 483.57,-34.73"/>
<polygon fill="#63b8ff" stroke="#63b8ff" points="486.54,-36.59 488.16,-26.12 480.37,-33.3 486.54,-36.59"/>
</g>
<!-- Node59&#45;&gt;Node3 -->
<g id="edge51" class="edge">
<title>Node59&#45;&gt;Node3</title>
<path fill="none" stroke="#63b8ff" d="M1964.87,-538.73C1970.7,-522.41 1977.74,-495.1 1970,-473 1917.73,-323.77 1846.37,-318.79 1748,-195 1702.53,-137.78 1707.1,-106.11 1646,-66 1601.29,-36.65 1539.95,-24.48 1499.67,-19.46"/>
<polygon fill="#63b8ff" stroke="#63b8ff" points="1500.22,-16 1489.89,-18.35 1499.43,-22.96 1500.22,-16"/>
</g>
<!-- Node59&#45;&gt;Node7 -->
<g id="edge53" class="edge">
<title>Node59&#45;&gt;Node7</title>
<path fill="none" stroke="#63b8ff" d="M2021.88,-544.13C2056.04,-537.07 2097.77,-524.63 2130,-503 2232.41,-434.26 2205.76,-361.88 2303,-286 2333.42,-262.26 2349.92,-271.43 2382,-250 2411.81,-230.09 2420.04,-224.08 2441,-195 2450.76,-181.45 2458.42,-164.09 2463.41,-150.94"/>
<polygon fill="#63b8ff" stroke="#63b8ff" points="2466.64,-152.31 2466.71,-141.71 2460.05,-149.95 2466.64,-152.31"/>
</g>
<!-- Node59&#45;&gt;Node15 -->
<g id="edge69" class="edge">
<title>Node59&#45;&gt;Node15</title>
<path fill="none" stroke="#63b8ff" d="M1976.44,-538.64C1986.25,-529.52 1997.76,-516.84 2004,-503 2021.65,-463.85 1992.92,-443.84 2015,-407 2063.61,-325.89 2105.35,-328.15 2190,-286 2235.67,-263.26 2269.11,-291.35 2299,-250 2336.39,-198.27 2273.12,-125.5 2240.11,-93.14"/>
<polygon fill="#63b8ff" stroke="#63b8ff" points="2242.82,-90.89 2233.17,-86.52 2237.99,-95.95 2242.82,-90.89"/>
</g>
<!-- Node59&#45;&gt;Node20 -->
<g id="edge52" class="edge">
<title>Node59&#45;&gt;Node20</title>
<path fill="none" stroke="#63b8ff" d="M2006.12,-538.53C2055.73,-521.26 2133.51,-488.12 2184,-437 2217.52,-403.06 2197.12,-373.54 2232,-341 2251.38,-322.92 2279.15,-311.66 2301.54,-305"/>
<polygon fill="#63b8ff" stroke="#63b8ff" points="2302.21,-308.45 2310.91,-302.4 2300.34,-301.7 2302.21,-308.45"/>
</g>
<!-- Node59&#45;&gt;Node60 -->
<g id="edge54" class="edge">
<title>Node59&#45;&gt;Node60</title>
<path fill="none" stroke="#63b8ff" d="M1896.99,-538.53C1785.46,-512.5 1553.15,-458.28 1451.46,-434.54"/>
<polygon fill="#63b8ff" stroke="#63b8ff" points="1452.31,-431.15 1441.78,-432.28 1450.72,-437.97 1452.31,-431.15"/>
</g>
<!-- Node63 -->
<g id="node23" class="node">
<title>Node63</title>
<g id="a_node23"><a xlink:href="../../dc/d8e/kratos__components_8h.html" target="_top" xlink:title=" ">
<polygon fill="#fff0f0" stroke="red" points="1961.5,-497.5 1796.5,-497.5 1796.5,-478.5 1961.5,-478.5 1961.5,-497.5"/>
<text text-anchor="middle" x="1879" y="-485.5" font-family="Helvetica,sans-Serif" font-size="10.00">includes/kratos_components.h</text>
</a>
</g>
</g>
<!-- Node59&#45;&gt;Node63 -->
<g id="edge64" class="edge">
<title>Node59&#45;&gt;Node63</title>
<path fill="none" stroke="#63b8ff" d="M1941.25,-538.8C1928.65,-528.72 1911.74,-515.19 1898.73,-504.78"/>
<polygon fill="#63b8ff" stroke="#63b8ff" points="1901.23,-502.3 1891.24,-498.79 1896.86,-507.77 1901.23,-502.3"/>
</g>
<!-- Node60&#45;&gt;Node2 -->
<g id="edge55" class="edge">
<title>Node60&#45;&gt;Node2</title>
<path fill="none" stroke="#63b8ff" d="M1342.23,-417.52C1162.59,-407 639.35,-375.97 632,-371 579.14,-335.26 570,-305.31 570,-241.5 570,-241.5 570,-241.5 570,-129.5 570,-99.33 562.61,-91.18 546,-66 537.47,-53.06 525.03,-40.95 514.46,-31.89"/>
<polygon fill="#63b8ff" stroke="#63b8ff" points="516.91,-29.37 506.97,-25.73 512.47,-34.78 516.91,-29.37"/>
</g>
<!-- Node60&#45;&gt;Node3 -->
<g id="edge56" class="edge">
<title>Node60&#45;&gt;Node3</title>
<path fill="none" stroke="#63b8ff" d="M1403.22,-412.16C1410.21,-361.64 1445.14,-109.01 1455.25,-35.87"/>
<polygon fill="#63b8ff" stroke="#63b8ff" points="1458.68,-36.6 1456.59,-26.22 1451.75,-35.64 1458.68,-36.6"/>
</g>
<!-- Node60&#45;&gt;Node7 -->
<g id="edge57" class="edge">
<title>Node60&#45;&gt;Node7</title>
<path fill="none" stroke="#63b8ff" d="M1461.62,-412.07C1509.91,-403.96 1579.32,-390.3 1638,-371 1724.73,-342.48 1740.47,-320.49 1825,-286 1957.65,-231.87 1988.8,-209.89 2128,-176 2224.72,-152.45 2340.04,-140.72 2409.02,-135.39"/>
<polygon fill="#63b8ff" stroke="#63b8ff" points="2408.88,-138.91 2418.59,-134.67 2408.36,-131.93 2408.88,-138.91"/>
</g>
<!-- Node60&#45;&gt;Node61 -->
<g id="edge58" class="edge">
<title>Node60&#45;&gt;Node61</title>
<path fill="none" stroke="#63b8ff" d="M1412.01,-412.1C1423.3,-402.07 1441.87,-385.56 1455.75,-373.22"/>
<polygon fill="#63b8ff" stroke="#63b8ff" points="1457.79,-376.09 1462.94,-366.83 1453.14,-370.86 1457.79,-376.09"/>
</g>
<!-- Node61&#45;&gt;Node2 -->
<g id="edge59" class="edge">
<title>Node61&#45;&gt;Node2</title>
<path fill="none" stroke="#63b8ff" d="M1427.5,-347.53C1280.33,-323.86 834.21,-251.99 831,-250 779.84,-218.29 785.94,-189.71 752,-140 729.89,-107.63 736.03,-88.6 704,-66 650.43,-28.19 571.99,-18.71 527.7,-16.49"/>
<polygon fill="#63b8ff" stroke="#63b8ff" points="528.07,-13 517.94,-16.11 527.8,-20 528.07,-13"/>
</g>
<!-- Node61&#45;&gt;Node3 -->
<g id="edge60" class="edge">
<title>Node61&#45;&gt;Node3</title>
<path fill="none" stroke="#63b8ff" d="M1474.92,-346.16C1475.91,-336.18 1477.42,-319.44 1478,-305 1478.34,-296.56 1478.23,-294.44 1478,-286 1475.45,-192.35 1464.75,-80.85 1460.13,-36.07"/>
<polygon fill="#63b8ff" stroke="#63b8ff" points="1463.64,-35.93 1459.11,-26.35 1456.67,-36.66 1463.64,-35.93"/>
</g>
<!-- Node61&#45;&gt;Node7 -->
<g id="edge62" class="edge">
<title>Node61&#45;&gt;Node7</title>
<path fill="none" stroke="#63b8ff" d="M1499.89,-346.12C1552.16,-328.17 1673.99,-286.19 1776,-250 1843.71,-225.98 1860.82,-220.45 1928,-195 1949.46,-186.87 1953.68,-181.31 1976,-176 2128.8,-139.68 2314.63,-132.52 2408.86,-131.41"/>
<polygon fill="#63b8ff" stroke="#63b8ff" points="2408.69,-134.91 2418.65,-131.32 2408.62,-127.91 2408.69,-134.91"/>
</g>
<!-- Node61&#45;&gt;Node20 -->
<g id="edge61" class="edge">
<title>Node61&#45;&gt;Node20</title>
<path fill="none" stroke="#63b8ff" d="M1520.2,-351.88C1673.11,-341.53 2160.99,-308.54 2301.07,-299.07"/>
<polygon fill="#63b8ff" stroke="#63b8ff" points="2301.16,-302.57 2310.9,-298.4 2300.69,-295.58 2301.16,-302.57"/>
</g>
<!-- Node61&#45;&gt;Node21 -->
<g id="edge63" class="edge">
<title>Node61&#45;&gt;Node21</title>
<path fill="none" stroke="#63b8ff" d="M1442.26,-346.12C1406.43,-336.09 1347.94,-319.72 1308.03,-308.54"/>
<polygon fill="#63b8ff" stroke="#63b8ff" points="1309.07,-305.2 1298.5,-305.88 1307.19,-311.94 1309.07,-305.2"/>
</g>
<!-- Node63&#45;&gt;Node2 -->
<g id="edge65" class="edge">
<title>Node63&#45;&gt;Node2</title>
<path fill="none" stroke="#63b8ff" d="M1833.22,-478.07C1782,-468.07 1696.55,-451.39 1623,-437 1555,-423.69 1538.8,-415.24 1470,-407 1425.55,-401.68 695.94,-403.35 665,-371 655.78,-361.36 660.78,-353.65 665,-341 671.32,-322.03 685.68,-323.97 692,-305 703.85,-269.45 711.25,-254.2 671,-176 636.11,-108.21 559.9,-55.19 519.81,-30.75"/>
<polygon fill="#63b8ff" stroke="#63b8ff" points="521.67,-27.78 511.29,-25.66 518.09,-33.79 521.67,-27.78"/>
</g>
<!-- Node63&#45;&gt;Node3 -->
<g id="edge66" class="edge">
<title>Node63&#45;&gt;Node3</title>
<path fill="none" stroke="#63b8ff" d="M1874.35,-478.06C1862,-454.62 1826.78,-389.85 1790,-341 1733.9,-266.49 1648,-279.76 1648,-186.5 1648,-186.5 1648,-186.5 1648,-129.5 1648,-99.33 1646.05,-86.59 1624,-66 1590.05,-34.31 1536.72,-22.66 1499.7,-18.4"/>
<polygon fill="#63b8ff" stroke="#63b8ff" points="1500.11,-14.92 1489.81,-17.41 1499.41,-21.89 1500.11,-14.92"/>
</g>
<!-- Node63&#45;&gt;Node7 -->
<g id="edge67" class="edge">
<title>Node63&#45;&gt;Node7</title>
<path fill="none" stroke="#63b8ff" d="M1962,-479.26C2030.42,-471.52 2120.93,-457.78 2151,-437 2192.01,-408.67 2177.26,-379.44 2209,-341 2232.24,-312.85 2239.21,-305.61 2270,-286 2304.6,-263.96 2321.15,-273.18 2355,-250 2397.39,-220.97 2436.79,-174.51 2456.61,-149.25"/>
<polygon fill="#63b8ff" stroke="#63b8ff" points="2459.17,-151.66 2462.5,-141.6 2453.63,-147.39 2459.17,-151.66"/>
</g>
<!-- Node63&#45;&gt;Node60 -->
<g id="edge68" class="edge">
<title>Node63&#45;&gt;Node60</title>
<path fill="none" stroke="#63b8ff" d="M1796.2,-478.28C1714.58,-469.32 1586.4,-454.27 1476,-437 1470.11,-436.08 1463.96,-435.04 1457.85,-433.96"/>
<polygon fill="#63b8ff" stroke="#63b8ff" points="1458.88,-430.59 1448.41,-432.24 1457.63,-437.47 1458.88,-430.59"/>
</g>
<!-- Node71&#45;&gt;Node2 -->
<g id="edge72" class="edge">
<title>Node71&#45;&gt;Node2</title>
<path fill="none" stroke="#63b8ff" d="M2186.69,-731.24C2093.44,-724.76 1882.17,-709.23 1705,-690 1201.1,-635.3 1049.01,-695.18 580,-503 521.5,-479.03 506.56,-472.13 454,-437 329.34,-353.67 228,-336.45 228,-186.5 228,-186.5 228,-186.5 228,-129.5 228,-29.59 388.72,-16.42 460.3,-15.51"/>
<polygon fill="#63b8ff" stroke="#63b8ff" points="460.28,-19.02 470.26,-15.47 460.25,-12.02 460.28,-19.02"/>
</g>
<!-- Node71&#45;&gt;Node3 -->
<g id="edge73" class="edge">
<title>Node71&#45;&gt;Node3</title>
<path fill="none" stroke="#63b8ff" d="M2237.66,-725.64C2243.31,-706 2256,-657.25 2256,-615.5 2256,-615.5 2256,-615.5 2256,-553 2256,-225.5 2004.04,-194.96 1703,-66 1635.21,-36.96 1549.5,-24.44 1499.51,-19.31"/>
<polygon fill="#63b8ff" stroke="#63b8ff" points="1500,-15.84 1489.71,-18.36 1499.32,-22.81 1500,-15.84"/>
</g>
<!-- Node71&#45;&gt;Node7 -->
<g id="edge76" class="edge">
<title>Node71&#45;&gt;Node7</title>
<path fill="none" stroke="#63b8ff" d="M2283.36,-731.95C2404.63,-722.71 2712,-680.4 2712,-489 2712,-489 2712,-489 2712,-355 2712,-271.9 2722.57,-228.3 2658,-176 2622.34,-147.12 2571.1,-136.4 2531.12,-132.67"/>
<polygon fill="#63b8ff" stroke="#63b8ff" points="2531.65,-129.2 2521.4,-131.9 2531.1,-136.18 2531.65,-129.2"/>
</g>
<!-- Node71&#45;&gt;Node9 -->
<g id="edge74" class="edge">
<title>Node71&#45;&gt;Node9</title>
<path fill="none" stroke="#63b8ff" d="M2283.25,-733.98C2348.33,-731.94 2467.02,-723.44 2562,-690 2821.33,-598.69 2919.86,-585.37 3092,-371 3119.08,-337.28 3154,-229.75 3154,-186.5 3154,-186.5 3154,-186.5 3154,-129.5 3154,-99.33 3152.78,-85.78 3130,-66 3102.94,-42.5 3003.02,-27.27 2946.55,-20.34"/>
<polygon fill="#63b8ff" stroke="#63b8ff" points="2947.05,-16.87 2936.71,-19.16 2946.22,-23.82 2947.05,-16.87"/>
</g>
<!-- Node71&#45;&gt;Node20 -->
<g id="edge75" class="edge">
<title>Node71&#45;&gt;Node20</title>
<path fill="none" stroke="#63b8ff" d="M2245.56,-725.64C2265.57,-708.26 2309.04,-667.59 2332,-624 2377.78,-537.09 2389.01,-504.08 2374,-407 2368.92,-374.11 2355.79,-337.6 2347.14,-315.87"/>
<polygon fill="#63b8ff" stroke="#63b8ff" points="2350.47,-314.77 2343.45,-306.84 2343.99,-317.42 2350.47,-314.77"/>
</g>
<!-- Node71&#45;&gt;Node59 -->
<g id="edge83" class="edge">
<title>Node71&#45;&gt;Node59</title>
<path fill="none" stroke="#63b8ff" d="M2186.58,-730.9C2122.58,-723.21 2012.19,-699.17 1963,-624 1954.77,-611.42 1953.64,-594.62 1954.63,-580.75"/>
<polygon fill="#63b8ff" stroke="#63b8ff" points="1958.08,-581.34 1955.74,-571 1951.13,-580.54 1958.08,-581.34"/>
</g>
<!-- Node71&#45;&gt;Node75 -->
<g id="edge77" class="edge">
<title>Node71&#45;&gt;Node75</title>
<path fill="none" stroke="#63b8ff" d="M2283.4,-728.59C2311.64,-722.89 2346.25,-711.75 2370,-690 2416.85,-647.08 2459.83,-452.44 2474.05,-382.3"/>
<polygon fill="#63b8ff" stroke="#63b8ff" points="2477.4,-383.4 2475.93,-372.91 2470.53,-382.03 2477.4,-383.4"/>
</g>
<!-- Node71&#45;&gt;Node87 -->
<g id="edge84" class="edge">
<title>Node71&#45;&gt;Node87</title>
<path fill="none" stroke="#63b8ff" d="M2224.37,-725.62C2215.47,-718.18 2202.4,-707.25 2190.78,-697.55"/>
<polygon fill="#63b8ff" stroke="#63b8ff" points="2193.36,-695.14 2183.44,-691.41 2188.87,-700.51 2193.36,-695.14"/>
</g>
<!-- Node75&#45;&gt;Node2 -->
<g id="edge78" class="edge">
<title>Node75&#45;&gt;Node2</title>
<path fill="none" stroke="#63b8ff" d="M2459.48,-340.68C2434.36,-322.52 2391.85,-292.76 2374,-286 2268.6,-246.1 2234.48,-266.53 2123,-250 1588.4,-170.75 1456.58,-138.33 921,-66 774.56,-46.22 599.24,-27.13 527.29,-19.49"/>
<polygon fill="#63b8ff" stroke="#63b8ff" points="528.08,-16.06 517.77,-18.49 527.34,-23.02 528.08,-16.06"/>
</g>
<!-- Node75&#45;&gt;Node3 -->
<g id="edge79" class="edge">
<title>Node75&#45;&gt;Node3</title>
<path fill="none" stroke="#63b8ff" d="M2466.25,-340.9C2442.37,-315.32 2388.21,-261.12 2332,-231 2147.17,-131.97 2093.86,-115.08 1890,-66 1749.31,-32.13 1577.14,-20.95 1499.49,-17.47"/>
<polygon fill="#63b8ff" stroke="#63b8ff" points="1499.94,-13.99 1489.8,-17.06 1499.64,-20.98 1499.94,-13.99"/>
</g>
<!-- Node75&#45;&gt;Node7 -->
<g id="edge82" class="edge">
<title>Node75&#45;&gt;Node7</title>
<path fill="none" stroke="#63b8ff" d="M2481.16,-340.51C2485.32,-309.9 2493.3,-236.53 2484,-176 2482.71,-167.59 2480.12,-158.6 2477.52,-150.91"/>
<polygon fill="#63b8ff" stroke="#63b8ff" points="2480.84,-149.79 2474.12,-141.6 2474.26,-152.19 2480.84,-149.79"/>
</g>
<!-- Node75&#45;&gt;Node9 -->
<g id="edge80" class="edge">
<title>Node75&#45;&gt;Node9</title>
<path fill="none" stroke="#63b8ff" d="M2497.12,-340.65C2566.55,-285.65 2815.41,-88.55 2887.37,-31.54"/>
<polygon fill="#63b8ff" stroke="#63b8ff" points="2889.11,-34.63 2894.78,-25.68 2884.77,-29.14 2889.11,-34.63"/>
</g>
<!-- Node75&#45;&gt;Node20 -->
<g id="edge81" class="edge">
<title>Node75&#45;&gt;Node20</title>
<path fill="none" stroke="#63b8ff" d="M2444.39,-340.54C2421.81,-331.1 2392.56,-318.88 2370.61,-309.71"/>
<polygon fill="#63b8ff" stroke="#63b8ff" points="2372.14,-306.56 2361.57,-305.93 2369.44,-313.01 2372.14,-306.56"/>
</g>
<!-- Node87&#45;&gt;Node7 -->
<g id="edge85" class="edge">
<title>Node87&#45;&gt;Node7</title>
<path fill="none" stroke="#63b8ff" d="M2199,-659.59C2278.32,-623.98 2475.38,-523.47 2561,-371 2604.19,-294.08 2579.7,-244.4 2524,-176 2515.16,-165.15 2503.35,-155.05 2493.02,-147.23"/>
<polygon fill="#63b8ff" stroke="#63b8ff" points="2495.09,-144.41 2484.95,-141.37 2490.98,-150.07 2495.09,-144.41"/>
</g>
<!-- Node87&#45;&gt;Node58 -->
<g id="edge90" class="edge">
<title>Node87&#45;&gt;Node58</title>
<path fill="none" stroke="#63b8ff" d="M2133.61,-659.54C2113.4,-650.23 2087.31,-638.22 2067.49,-629.09"/>
<polygon fill="#63b8ff" stroke="#63b8ff" points="2069.13,-625.98 2058.58,-624.98 2066.2,-632.34 2069.13,-625.98"/>
</g>
<!-- Node87&#45;&gt;Node60 -->
<g id="edge89" class="edge">
<title>Node87&#45;&gt;Node60</title>
<path fill="none" stroke="#63b8ff" d="M2101.77,-660.09C2061.72,-650.85 2009,-637.89 1963,-624 1759.45,-562.52 1521.15,-470.2 1435.09,-436.19"/>
<polygon fill="#63b8ff" stroke="#63b8ff" points="1436.43,-432.96 1425.84,-432.53 1433.85,-439.46 1436.43,-432.96"/>
</g>
<!-- Node87&#45;&gt;Node99 -->
<g id="edge86" class="edge">
<title>Node87&#45;&gt;Node99</title>
<path fill="none" stroke="#63b8ff" d="M2228.36,-663.68C2292.86,-653.16 2392.44,-636.94 2457.91,-626.27"/>
<polygon fill="#63b8ff" stroke="#63b8ff" points="2458.12,-629.78 2467.43,-624.72 2456.99,-622.87 2458.12,-629.78"/>
</g>
<!-- Node99&#45;&gt;Node7 -->
<g id="edge87" class="edge">
<title>Node99&#45;&gt;Node7</title>
<path fill="none" stroke="#63b8ff" d="M2552.21,-604.53C2595.67,-588.75 2674,-551.61 2674,-489 2674,-489 2674,-489 2674,-355 2674,-273.67 2691.97,-235 2636,-176 2609.13,-147.68 2566.37,-136.68 2530.97,-132.7"/>
<polygon fill="#63b8ff" stroke="#63b8ff" points="2531.56,-129.24 2521.28,-131.78 2530.9,-136.21 2531.56,-129.24"/>
</g>
<!-- Node99&#45;&gt;Node63 -->
<g id="edge88" class="edge">
<title>Node99&#45;&gt;Node63</title>
<path fill="none" stroke="#63b8ff" d="M2477.61,-604.55C2362.23,-582.28 2062.53,-524.43 1936.34,-500.07"/>
<polygon fill="#63b8ff" stroke="#63b8ff" points="1937.37,-496.7 1926.89,-498.24 1936.04,-503.57 1937.37,-496.7"/>
</g>
<!-- Node100&#45;&gt;Node7 -->
<g id="edge92" class="edge">
<title>Node100&#45;&gt;Node7</title>
<path fill="none" stroke="#63b8ff" d="M2095.11,-406.58C2109.15,-390.13 2133.3,-362.7 2156,-341 2183.6,-314.61 2188.59,-304.49 2222,-286 2267.01,-261.09 2291.23,-281.37 2332,-250 2363.07,-226.09 2350.72,-202.06 2380,-176 2395.2,-162.47 2415.26,-152.02 2432.58,-144.66"/>
<polygon fill="#63b8ff" stroke="#63b8ff" points="2433.58,-148.04 2441.54,-141.05 2430.96,-141.54 2433.58,-148.04"/>
</g>
<!-- Node100&#45;&gt;Node101 -->
<g id="edge93" class="edge">
<title>Node100&#45;&gt;Node101</title>
<path fill="none" stroke="#63b8ff" d="M2023.89,-417.07C1907.85,-409.23 1642.11,-390.71 1419,-371 1394.78,-368.86 1368.19,-366.23 1344.88,-363.83"/>
<polygon fill="#63b8ff" stroke="#63b8ff" points="1345.53,-360.38 1335.23,-362.83 1344.81,-367.34 1345.53,-360.38"/>
</g>
<!-- Node101&#45;&gt;Node7 -->
<g id="edge95" class="edge">
<title>Node101&#45;&gt;Node7</title>
<path fill="none" stroke="#63b8ff" d="M1333.75,-344.53C1437.24,-323.71 1663.3,-276.82 1738,-250 1755.77,-243.62 1758.65,-238.45 1776,-231 1842.02,-202.67 1857.81,-191.3 1928,-176 2099.43,-138.64 2307.59,-132.07 2408.81,-131.28"/>
<polygon fill="#63b8ff" stroke="#63b8ff" points="2408.54,-134.78 2418.52,-131.22 2408.49,-127.78 2408.54,-134.78"/>
</g>
<!-- Node101&#45;&gt;Node21 -->
<g id="edge96" class="edge">
<title>Node101&#45;&gt;Node21</title>
<path fill="none" stroke="#63b8ff" d="M1277.04,-340.54C1275.03,-333.17 1272.55,-324.1 1270.36,-316.11"/>
<polygon fill="#63b8ff" stroke="#63b8ff" points="1273.79,-315.36 1267.77,-306.64 1267.03,-317.2 1273.79,-315.36"/>
</g>
<!-- Node66 -->
<g id="node30" class="node">
<title>Node66</title>
<g id="a_node30"><a xlink:title=" ">
<polygon fill="#e0e0e0" stroke="#999999" points="1037.5,-305 968.5,-305 968.5,-286 1037.5,-286 1037.5,-305"/>
<text text-anchor="middle" x="1003" y="-293" font-family="Helvetica,sans-Serif" font-size="10.00">type_traits</text>
</a>
</g>
</g>
<!-- Node101&#45;&gt;Node66 -->
<g id="edge94" class="edge">
<title>Node101&#45;&gt;Node66</title>
<path fill="none" stroke="#63b8ff" d="M1228.06,-343.86C1176.28,-332.96 1098.24,-316.54 1048.99,-306.18"/>
<polygon fill="#63b8ff" stroke="#63b8ff" points="1049.72,-302.75 1039.21,-304.12 1048.28,-309.6 1049.72,-302.75"/>
</g>
<!-- Node102&#45;&gt;Node58 -->
<g id="edge98" class="edge">
<title>Node102&#45;&gt;Node58</title>
<path fill="none" stroke="#63b8ff" d="M1773.5,-725.56C1823.41,-704.79 1947.37,-653.21 2006.13,-628.76"/>
<polygon fill="#63b8ff" stroke="#63b8ff" points="2007.36,-632.04 2015.25,-624.97 2004.67,-625.58 2007.36,-632.04"/>
</g>
<!-- Node96 -->
<g id="node32" class="node">
<title>Node96</title>
<g id="a_node32"><a xlink:href="../../de/d44/global__pointers__vector_8h.html" target="_top" xlink:title=" ">
<polygon fill="#fff0f0" stroke="red" points="1778,-437 1632,-437 1632,-407 1778,-407 1778,-437"/>
<text text-anchor="start" x="1640" y="-425" font-family="Helvetica,sans-Serif" font-size="10.00">containers/global_pointers</text>
<text text-anchor="middle" x="1705" y="-414" font-family="Helvetica,sans-Serif" font-size="10.00">_vector.h</text>
</a>
</g>
</g>
<!-- Node102&#45;&gt;Node96 -->
<g id="edge99" class="edge">
<title>Node102&#45;&gt;Node96</title>
<path fill="none" stroke="#63b8ff" d="M1737.47,-725.58C1726.26,-717.76 1711.57,-705.28 1705,-690 1669.61,-607.77 1687.62,-497.65 1698.6,-448.52"/>
<polygon fill="#63b8ff" stroke="#63b8ff" points="1701.98,-449.41 1700.86,-438.87 1695.17,-447.81 1701.98,-449.41"/>
</g>
<!-- Node96&#45;&gt;Node3 -->
<g id="edge100" class="edge">
<title>Node96&#45;&gt;Node3</title>
<path fill="none" stroke="#63b8ff" d="M1689.74,-406.72C1654.81,-372.39 1572,-281.04 1572,-186.5 1572,-186.5 1572,-186.5 1572,-129.5 1572,-99.33 1567.72,-88.83 1548,-66 1533.9,-49.68 1513.1,-37.64 1495.05,-29.47"/>
<polygon fill="#63b8ff" stroke="#63b8ff" points="1496.5,-26.28 1485.92,-25.58 1493.75,-32.72 1496.5,-26.28"/>
</g>
<!-- Node96&#45;&gt;Node7 -->
<g id="edge101" class="edge">
<title>Node96&#45;&gt;Node7</title>
<path fill="none" stroke="#63b8ff" d="M1731.6,-406.68C1779.81,-380.97 1885.16,-325.97 1977,-286 2115.28,-225.82 2153.01,-217.51 2298,-176 2339.87,-164.01 2387.89,-151.71 2422.53,-143.09"/>
<polygon fill="#63b8ff" stroke="#63b8ff" points="2422.95,-146.59 2431.81,-140.78 2421.26,-139.79 2422.95,-146.59"/>
</g>
<!-- Node96&#45;&gt;Node21 -->
<g id="edge102" class="edge">
<title>Node96&#45;&gt;Node21</title>
<path fill="none" stroke="#63b8ff" d="M1679,-406.58C1645.38,-388.55 1584.53,-357.98 1529,-341 1463.96,-321.11 1387.01,-309.42 1333.02,-303.05"/>
<polygon fill="#63b8ff" stroke="#63b8ff" points="1333.7,-299.6 1323.36,-301.94 1332.9,-306.56 1333.7,-299.6"/>
</g>
<!-- Node119&#45;&gt;Node58 -->
<g id="edge104" class="edge">
<title>Node119&#45;&gt;Node58</title>
<path fill="none" stroke="#63b8ff" d="M1811.84,-665.05C1858.56,-654.82 1935.16,-638.03 1986.07,-626.88"/>
<polygon fill="#63b8ff" stroke="#63b8ff" points="1986.66,-630.33 1995.68,-624.77 1985.17,-623.49 1986.66,-630.33"/>
</g>
<!-- Node119&#45;&gt;Node96 -->
<g id="edge105" class="edge">
<title>Node119&#45;&gt;Node96</title>
<path fill="none" stroke="#63b8ff" d="M1768.65,-665.07C1759.49,-630.24 1725.99,-502.84 1711.62,-448.18"/>
<polygon fill="#63b8ff" stroke="#63b8ff" points="1715.1,-447.64 1709.17,-438.85 1708.33,-449.42 1715.1,-447.64"/>
</g>
<!-- Node120&#45;&gt;Node2 -->
<g id="edge107" class="edge">
<title>Node120&#45;&gt;Node2</title>
<path fill="none" stroke="#63b8ff" d="M1792.36,-792.53C1585.26,-782.63 959.59,-734.2 509,-503 331.31,-411.83 190,-386.22 190,-186.5 190,-186.5 190,-186.5 190,-129.5 190,-93.85 208.68,-84.74 239,-66 308.99,-22.74 408.68,-15.74 460.23,-15.29"/>
<polygon fill="#63b8ff" stroke="#63b8ff" points="460.14,-18.79 470.14,-15.3 460.14,-11.79 460.14,-18.79"/>
</g>
<!-- Node120&#45;&gt;Node3 -->
<g id="edge108" class="edge">
<title>Node120&#45;&gt;Node3</title>
<path fill="none" stroke="#63b8ff" d="M1860.74,-786.07C1857.59,-764.32 1848.77,-706.93 1837,-660 1819.19,-588.97 1798.24,-575.36 1787,-503 1780.45,-460.84 1801.69,-447.06 1787,-407 1743.74,-289.01 1610,-312.17 1610,-186.5 1610,-186.5 1610,-186.5 1610,-129.5 1610,-74.09 1544.35,-42.49 1499.34,-27.34"/>
<polygon fill="#63b8ff" stroke="#63b8ff" points="1500.43,-24.01 1489.84,-24.29 1498.29,-30.67 1500.43,-24.01"/>
</g>
<!-- Node120&#45;&gt;Node7 -->
<g id="edge111" class="edge">
<title>Node120&#45;&gt;Node7</title>
<path fill="none" stroke="#63b8ff" d="M1931.79,-794.82C2018.25,-792.81 2169.16,-783.42 2292,-745 2341.53,-729.51 2356.65,-724.97 2395,-690 2428.43,-659.52 2422.27,-639.95 2451,-605 2524.25,-515.9 2636,-538.34 2636,-423 2636,-423 2636,-423 2636,-355 2636,-265.95 2610.51,-237.38 2546,-176 2532.9,-163.53 2515.68,-153.09 2500.94,-145.46"/>
<polygon fill="#63b8ff" stroke="#63b8ff" points="2502.62,-142.38 2492.1,-141.08 2499.51,-148.65 2502.62,-142.38"/>
</g>
<!-- Node120&#45;&gt;Node9 -->
<g id="edge109" class="edge">
<title>Node120&#45;&gt;Node9</title>
<path fill="none" stroke="#63b8ff" d="M1931.72,-790.77C2094.95,-780.01 2497.21,-748.21 2618,-690 2759.77,-621.68 3116,-343.87 3116,-186.5 3116,-186.5 3116,-186.5 3116,-129.5 3116,-53.08 3006.77,-27.84 2946.24,-19.71"/>
<polygon fill="#63b8ff" stroke="#63b8ff" points="2947.04,-16.28 2936.69,-18.53 2946.18,-23.23 2947.04,-16.28"/>
</g>
<!-- Node120&#45;&gt;Node20 -->
<g id="edge110" class="edge">
<title>Node120&#45;&gt;Node20</title>
<path fill="none" stroke="#63b8ff" d="M1879.34,-786.06C1922.34,-763.31 2035.91,-699.62 2112,-624 2214.4,-522.23 2300.7,-368.75 2329.1,-315.5"/>
<polygon fill="#63b8ff" stroke="#63b8ff" points="2332.12,-317.27 2333.69,-306.79 2325.93,-314 2332.12,-317.27"/>
</g>
<!-- Node120&#45;&gt;Node71 -->
<g id="edge114" class="edge">
<title>Node120&#45;&gt;Node71</title>
<path fill="none" stroke="#63b8ff" d="M1919.06,-786.05C1988.36,-775.18 2104.72,-756.93 2175.23,-745.87"/>
<polygon fill="#63b8ff" stroke="#63b8ff" points="2175.73,-749.34 2185.07,-744.33 2174.65,-742.42 2175.73,-749.34"/>
</g>
<!-- Node120&#45;&gt;Node102 -->
<g id="edge113" class="edge">
<title>Node120&#45;&gt;Node102</title>
<path fill="none" stroke="#63b8ff" d="M1845.29,-786.12C1827.69,-776.75 1799.69,-761.86 1778.95,-750.83"/>
<polygon fill="#63b8ff" stroke="#63b8ff" points="1780.67,-747.78 1770.2,-746.18 1777.39,-753.96 1780.67,-747.78"/>
</g>
<!-- Node120&#45;&gt;Node119 -->
<g id="edge112" class="edge">
<title>Node120&#45;&gt;Node119</title>
<path fill="none" stroke="#63b8ff" d="M1856.72,-786.22C1848.54,-772.84 1832.07,-746.69 1816,-726 1807.1,-714.54 1796.23,-702.42 1787.41,-692.99"/>
<polygon fill="#63b8ff" stroke="#63b8ff" points="1790.17,-690.81 1780.75,-685.97 1785.09,-695.63 1790.17,-690.81"/>
</g>
<!-- Node104&#45;&gt;Node2 -->
<g id="edge116" class="edge">
<title>Node104&#45;&gt;Node2</title>
<path fill="none" stroke="#63b8ff" d="M1227.73,-480.88C1082.5,-461.81 649.24,-402.83 594,-371 556.68,-349.49 532,-339.58 532,-296.5 532,-296.5 532,-296.5 532,-129.5 532,-94.64 515.68,-56.73 504.43,-34.73"/>
<polygon fill="#63b8ff" stroke="#63b8ff" points="507.63,-33.3 499.84,-26.12 501.46,-36.59 507.63,-33.3"/>
</g>
<!-- Node104&#45;&gt;Node3 -->
<g id="edge117" class="edge">
<title>Node104&#45;&gt;Node3</title>
<path fill="none" stroke="#63b8ff" d="M1275.94,-478.38C1277.96,-462.93 1283.84,-430.01 1299,-407 1312.71,-386.19 1328.03,-391.64 1342,-371 1361.75,-341.81 1431.64,-106.09 1452.24,-35.75"/>
<polygon fill="#63b8ff" stroke="#63b8ff" points="1455.53,-36.98 1454.98,-26.4 1448.81,-35.01 1455.53,-36.98"/>
</g>
<!-- Node104&#45;&gt;Node7 -->
<g id="edge119" class="edge">
<title>Node104&#45;&gt;Node7</title>
<path fill="none" stroke="#63b8ff" d="M1278.72,-478.06C1286.25,-461.16 1304.99,-424.66 1333,-407 1407.92,-359.76 1443.6,-394.48 1529,-371 1769.4,-304.9 1812.29,-233.06 2055,-176 2178.62,-146.93 2327.48,-136.81 2409.08,-133.31"/>
<polygon fill="#63b8ff" stroke="#63b8ff" points="2408.78,-136.83 2418.63,-132.92 2408.5,-129.83 2408.78,-136.83"/>
</g>
<!-- Node104&#45;&gt;Node54 -->
<g id="edge118" class="edge">
<title>Node104&#45;&gt;Node54</title>
<path fill="none" stroke="#63b8ff" d="M1270.69,-478.26C1253.31,-442.99 1188.07,-310.63 1163.47,-260.71"/>
<polygon fill="#63b8ff" stroke="#63b8ff" points="1166.61,-259.17 1159.05,-251.75 1160.33,-262.26 1166.61,-259.17"/>
</g>
<!-- Node104&#45;&gt;Node60 -->
<g id="edge120" class="edge">
<title>Node104&#45;&gt;Node60</title>
<path fill="none" stroke="#63b8ff" d="M1292.66,-478.1C1313.79,-467.45 1349.44,-449.49 1374.26,-436.98"/>
<polygon fill="#63b8ff" stroke="#63b8ff" points="1375.78,-440.13 1383.14,-432.5 1372.63,-433.88 1375.78,-440.13"/>
</g>
<!-- Node107&#45;&gt;Node2 -->
<g id="edge129" class="edge">
<title>Node107&#45;&gt;Node2</title>
<path fill="none" stroke="#63b8ff" d="M964.6,-544C919.9,-534.83 849.81,-519.63 790,-503 699.82,-477.93 677.3,-470.77 590,-437 556.41,-424.01 465.96,-397.89 442,-371 395.53,-318.85 326.61,-123.68 366,-66 386.97,-35.3 429.83,-23.45 460.17,-18.88"/>
<polygon fill="#63b8ff" stroke="#63b8ff" points="460.53,-22.36 470,-17.6 459.64,-15.41 460.53,-22.36"/>
</g>
<!-- Node107&#45;&gt;Node3 -->
<g id="edge130" class="edge">
<title>Node107&#45;&gt;Node3</title>
<path fill="none" stroke="#63b8ff" d="M952.79,-545.22C926.95,-538.54 898.74,-526.11 883,-503 861.95,-472.09 870.56,-383.59 959,-286 1017.34,-221.63 1064.03,-249.1 1132,-195 1191.18,-147.9 1178.3,-105.17 1243,-66 1297.13,-33.23 1370.88,-21.93 1416.42,-18.04"/>
<polygon fill="#63b8ff" stroke="#63b8ff" points="1416.43,-21.55 1426.13,-17.3 1415.89,-14.57 1416.43,-21.55"/>
</g>
<!-- Node107&#45;&gt;Node7 -->
<g id="edge131" class="edge">
<title>Node107&#45;&gt;Node7</title>
<path fill="none" stroke="#63b8ff" d="M1067.38,-553.72C1139.25,-552.66 1264.87,-544.28 1363,-503 1383.16,-494.52 1382.79,-483.46 1402,-473 1520.89,-408.27 1561.89,-417.57 1689,-371 1854.48,-310.38 1893.77,-289.54 2060,-231 2134.1,-204.9 2151.86,-195.37 2228,-176 2289.07,-160.46 2360.11,-148.06 2409.35,-140.33"/>
<polygon fill="#63b8ff" stroke="#63b8ff" points="2409.61,-143.83 2418.95,-138.84 2408.54,-136.92 2409.61,-143.83"/>
</g>
<!-- Node107&#45;&gt;Node29 -->
<g id="edge134" class="edge">
<title>Node107&#45;&gt;Node29</title>
<path fill="none" stroke="#63b8ff" d="M952.68,-547.34C896.9,-540.5 817.86,-526.85 799,-503 779.47,-478.3 816.54,-247.34 831,-231 847.76,-212.07 872.2,-201.03 896.46,-194.65"/>
<polygon fill="#63b8ff" stroke="#63b8ff" points="897.16,-198.08 906.09,-192.38 895.55,-191.27 897.16,-198.08"/>
</g>
<!-- Node107&#45;&gt;Node45 -->
<g id="edge135" class="edge">
<title>Node107&#45;&gt;Node45</title>
<path fill="none" stroke="#63b8ff" d="M952.52,-545.8C902.13,-538.17 834.43,-524.26 818,-503 791.91,-469.24 797.87,-444.62 818,-407 831.61,-381.57 855.68,-394.78 872,-371 894.97,-337.54 900.06,-288.8 901,-261.66"/>
<polygon fill="#63b8ff" stroke="#63b8ff" points="904.5,-261.8 901.16,-251.75 897.5,-261.69 904.5,-261.8"/>
</g>
<!-- Node107&#45;&gt;Node60 -->
<g id="edge132" class="edge">
<title>Node107&#45;&gt;Node60</title>
<path fill="none" stroke="#63b8ff" d="M1067.29,-548.74C1147.02,-542.04 1286.63,-527.22 1331,-503 1357.43,-488.57 1378.87,-460.32 1391.03,-441.55"/>
<polygon fill="#63b8ff" stroke="#63b8ff" points="1394,-443.4 1396.29,-433.05 1388.05,-439.71 1394,-443.4"/>
</g>
<!-- Node107&#45;&gt;Node63 -->
<g id="edge133" class="edge">
<title>Node107&#45;&gt;Node63</title>
<path fill="none" stroke="#63b8ff" d="M1067.35,-548.78C1214.12,-537.97 1604.43,-509.22 1784.97,-495.92"/>
<polygon fill="#63b8ff" stroke="#63b8ff" points="1785.07,-499.43 1794.78,-495.2 1784.55,-492.45 1785.07,-499.43"/>
</g>
<!-- Node107&#45;&gt;Node96 -->
<g id="edge136" class="edge">
<title>Node107&#45;&gt;Node96</title>
<path fill="none" stroke="#63b8ff" d="M1067.18,-548.08C1143.85,-540.94 1283.99,-526 1402,-503 1488.34,-486.17 1586.49,-458.69 1647.08,-440.72"/>
<polygon fill="#63b8ff" stroke="#63b8ff" points="1647.92,-444.13 1656.5,-437.91 1645.92,-437.42 1647.92,-444.13"/>
</g>
<!-- Node108 -->
<g id="node37" class="node">
<title>Node108</title>
<g id="a_node37"><a xlink:href="../../d9/da6/periodic__variables__container_8h.html" target="_top" xlink:title=" ">
<polygon fill="#fff0f0" stroke="red" points="1018,-503 892,-503 892,-473 1018,-473 1018,-503"/>
<text text-anchor="start" x="900" y="-491" font-family="Helvetica,sans-Serif" font-size="10.00">containers/periodic</text>
<text text-anchor="middle" x="955" y="-480" font-family="Helvetica,sans-Serif" font-size="10.00">_variables_container.h</text>
</a>
</g>
</g>
<!-- Node107&#45;&gt;Node108 -->
<g id="edge137" class="edge">
<title>Node107&#45;&gt;Node108</title>
<path fill="none" stroke="#63b8ff" d="M1002.35,-544.1C995.18,-535.75 984.15,-522.92 974.53,-511.73"/>
<polygon fill="#63b8ff" stroke="#63b8ff" points="977.39,-509.68 968.22,-504.38 972.08,-514.25 977.39,-509.68"/>
</g>
<!-- Node109 -->
<g id="node38" class="node">
<title>Node109</title>
<g id="a_node38"><a xlink:href="../../d0/d9c/table__stream__utility_8h.html" target="_top" xlink:title=" ">
<polygon fill="#fff0f0" stroke="red" points="1133.5,-437 1012.5,-437 1012.5,-407 1133.5,-407 1133.5,-437"/>
<text text-anchor="start" x="1020.5" y="-425" font-family="Helvetica,sans-Serif" font-size="10.00">utilities/table_stream</text>
<text text-anchor="middle" x="1073" y="-414" font-family="Helvetica,sans-Serif" font-size="10.00">_utility.h</text>
</a>
</g>
</g>
<!-- Node107&#45;&gt;Node109 -->
<g id="edge143" class="edge">
<title>Node107&#45;&gt;Node109</title>
<path fill="none" stroke="#63b8ff" d="M1014.33,-544.06C1023.85,-524.43 1046.86,-476.94 1061.07,-447.62"/>
<polygon fill="#63b8ff" stroke="#63b8ff" points="1064.17,-449.25 1065.38,-438.73 1057.87,-446.2 1064.17,-449.25"/>
</g>
<!-- Node112 -->
<g id="node39" class="node">
<title>Node112</title>
<g id="a_node39"><a xlink:href="../../d8/da9/adjoint__extensions_8h.html" target="_top" xlink:title=" ">
<polygon fill="#fff0f0" stroke="red" points="2290,-250 2132,-250 2132,-231 2290,-231 2290,-250"/>
<text text-anchor="middle" x="2211" y="-238" font-family="Helvetica,sans-Serif" font-size="10.00">utilities/adjoint_extensions.h</text>
</a>
</g>
</g>
<!-- Node107&#45;&gt;Node112 -->
<g id="edge145" class="edge">
<title>Node107&#45;&gt;Node112</title>
<path fill="none" stroke="#63b8ff" d="M1067.11,-552.51C1198.48,-549.68 1530.5,-532.78 1787,-437 1917.26,-388.36 1932.72,-339.64 2061,-286 2093.67,-272.34 2131.96,-261.05 2161.67,-253.27"/>
<polygon fill="#63b8ff" stroke="#63b8ff" points="2162.33,-256.71 2171.15,-250.83 2160.59,-249.93 2162.33,-256.71"/>
</g>
<!-- Node108&#45;&gt;Node2 -->
<g id="edge138" class="edge">
<title>Node108&#45;&gt;Node2</title>
<path fill="none" stroke="#63b8ff" d="M894.3,-472.52C777.54,-444.43 531.86,-384.15 518,-371 492.77,-347.05 494,-331.29 494,-296.5 494,-296.5 494,-296.5 494,-129.5 494,-96.89 494,-59 494,-36.29"/>
<polygon fill="#63b8ff" stroke="#63b8ff" points="497.5,-36.34 494,-26.34 490.5,-36.34 497.5,-36.34"/>
</g>
<!-- Node108&#45;&gt;Node3 -->
<g id="edge139" class="edge">
<title>Node108&#45;&gt;Node3</title>
<path fill="none" stroke="#63b8ff" d="M951.7,-472.57C948.64,-456.1 945.68,-428.65 954,-407 975.9,-350.02 1011.05,-355.06 1046,-305 1067.28,-274.52 1057.63,-256.16 1085,-231 1115.21,-203.24 1137.55,-220.1 1170,-195 1227.16,-150.78 1208.84,-106.05 1269,-66 1313.87,-36.12 1375.81,-24.07 1416.37,-19.23"/>
<polygon fill="#63b8ff" stroke="#63b8ff" points="1416.65,-22.72 1426.21,-18.16 1415.9,-15.76 1416.65,-22.72"/>
</g>
<!-- Node108&#45;&gt;Node7 -->
<g id="edge140" class="edge">
<title>Node108&#45;&gt;Node7</title>
<path fill="none" stroke="#63b8ff" d="M959.9,-472.67C966.76,-454.72 980.92,-424.26 1003,-407 1042.54,-376.09 1170.69,-354.62 1219,-341 1221.2,-340.38 1854.74,-176.37 1857,-176 2057.34,-143.1 2298.5,-134.52 2409.13,-132.29"/>
<polygon fill="#63b8ff" stroke="#63b8ff" points="2408.94,-135.79 2418.87,-132.1 2408.8,-128.79 2408.94,-135.79"/>
</g>
<!-- Node108&#45;&gt;Node21 -->
<g id="edge141" class="edge">
<title>Node108&#45;&gt;Node21</title>
<path fill="none" stroke="#63b8ff" d="M953.98,-472.72C953.5,-455.39 955.23,-426.12 970,-407 991.03,-379.78 1077.81,-353.12 1110,-341 1145,-327.82 1185.68,-316.28 1216.59,-308.25"/>
<polygon fill="#63b8ff" stroke="#63b8ff" points="1217.21,-311.71 1226.03,-305.84 1215.48,-304.93 1217.21,-311.71"/>
</g>
<!-- Node108&#45;&gt;Node60 -->
<g id="edge142" class="edge">
<title>Node108&#45;&gt;Node60</title>
<path fill="none" stroke="#63b8ff" d="M1018.1,-477.97C1100.55,-466.16 1244.56,-445.54 1330.82,-433.19"/>
<polygon fill="#63b8ff" stroke="#63b8ff" points="1331.18,-436.68 1340.58,-431.79 1330.19,-429.75 1331.18,-436.68"/>
</g>
<!-- Node109&#45;&gt;Node21 -->
<g id="edge144" class="edge">
<title>Node109&#45;&gt;Node21</title>
<path fill="none" stroke="#63b8ff" d="M1083.14,-406.7C1096.29,-389.08 1120.8,-359.23 1148,-341 1169.39,-326.66 1196.04,-316.06 1218.5,-308.82"/>
<polygon fill="#63b8ff" stroke="#63b8ff" points="1219.51,-312.17 1228.04,-305.87 1217.45,-305.48 1219.51,-312.17"/>
</g>
<!-- Node112&#45;&gt;Node7 -->
<g id="edge146" class="edge">
<title>Node112&#45;&gt;Node7</title>
<path fill="none" stroke="#63b8ff" d="M2227.67,-230.64C2252.28,-217.74 2299.97,-193.42 2342,-176 2371.16,-163.91 2404.9,-152.28 2430.42,-143.93"/>
<polygon fill="#63b8ff" stroke="#63b8ff" points="2431.29,-147.33 2439.73,-140.92 2429.14,-140.67 2431.29,-147.33"/>
</g>
<!-- Node121&#45;&gt;Node2 -->
<g id="edge148" class="edge">
<title>Node121&#45;&gt;Node2</title>
<path fill="none" stroke="#63b8ff" d="M1687.65,-993.31C1438.19,-994.15 543.07,-993.57 427,-943 203.14,-845.46 38,-799.19 38,-555 38,-555 38,-555 38,-129.5 38,-42.4 355.22,-21.64 460.5,-17.14"/>
<polygon fill="#63b8ff" stroke="#63b8ff" points="460.33,-20.65 470.19,-16.75 460.05,-13.66 460.33,-20.65"/>
</g>
<!-- Node121&#45;&gt;Node3 -->
<g id="edge149" class="edge">
<title>Node121&#45;&gt;Node3</title>
<path fill="none" stroke="#63b8ff" d="M1687.94,-993.5C1416.61,-994.81 376,-991.1 376,-857.5 376,-857.5 376,-857.5 376,-553 376,-370.37 863.8,-120.84 1038,-66 1171.91,-23.84 1340.06,-16.77 1416.62,-15.89"/>
<polygon fill="#63b8ff" stroke="#63b8ff" points="1416.18,-19.39 1426.15,-15.81 1416.12,-12.39 1416.18,-19.39"/>
</g>
<!-- Node121&#45;&gt;Node7 -->
<g id="edge150" class="edge">
<title>Node121&#45;&gt;Node7</title>
<path fill="none" stroke="#63b8ff" d="M1816.25,-993.02C1963.99,-992.28 2339.04,-985.93 2649,-943 2804.62,-921.44 2873.45,-966.75 2994,-866 3010.28,-852.4 3063.81,-710.8 3068,-690 3070.64,-676.93 3070.47,-673.1 3068,-660 3035.89,-489.55 2926,-469.95 2926,-296.5 2926,-296.5 2926,-296.5 2926,-239.5 2926,-197.17 2893.61,-193.35 2855,-176 2798.59,-150.65 2624.67,-138.76 2531.09,-134.07"/>
<polygon fill="#63b8ff" stroke="#63b8ff" points="2531.48,-130.59 2521.33,-133.6 2531.14,-137.58 2531.48,-130.59"/>
</g>
<!-- Node122 -->
<g id="node41" class="node">
<title>Node122</title>
<g id="a_node41"><a xlink:href="../../da/d42/process_8h.html" target="_top" xlink:title=" ">
<polygon fill="#fff0f0" stroke="red" points="2911.5,-745 2796.5,-745 2796.5,-726 2911.5,-726 2911.5,-745"/>
<text text-anchor="middle" x="2854" y="-733" font-family="Helvetica,sans-Serif" font-size="10.00">processes/process.h</text>
</a>
</g>
</g>
<!-- Node121&#45;&gt;Node122 -->
<g id="edge151" class="edge">
<title>Node121&#45;&gt;Node122</title>
<path fill="none" stroke="#63b8ff" d="M1816.23,-992.46C2018.93,-989.65 2641.4,-972.37 2807,-866 2832.88,-849.38 2838.18,-839.79 2849,-811 2855.63,-793.37 2856.34,-771.75 2855.72,-756.35"/>
<polygon fill="#63b8ff" stroke="#63b8ff" points="2859.23,-756.36 2855.08,-746.61 2852.25,-756.82 2859.23,-756.36"/>
</g>
<!-- Node123 -->
<g id="node42" class="node">
<title>Node123</title>
<g id="a_node42"><a xlink:href="../../d2/d3d/find__global__nodal__neighbours__process_8h.html" target="_top" xlink:title=" ">
<polygon fill="#fff0f0" stroke="red" points="1832,-937.5 1672,-937.5 1672,-907.5 1832,-907.5 1832,-937.5"/>
<text text-anchor="start" x="1680" y="-925.5" font-family="Helvetica,sans-Serif" font-size="10.00">processes/find_global</text>
<text text-anchor="middle" x="1752" y="-914.5" font-family="Helvetica,sans-Serif" font-size="10.00">_nodal_neighbours_process.h</text>
</a>
</g>
</g>
<!-- Node121&#45;&gt;Node123 -->
<g id="edge154" class="edge">
<title>Node121&#45;&gt;Node123</title>
<path fill="none" stroke="#63b8ff" d="M1752,-978.6C1752,-970.12 1752,-959.14 1752,-949.22"/>
<polygon fill="#63b8ff" stroke="#63b8ff" points="1755.5,-949.4 1752,-939.4 1748.5,-949.4 1755.5,-949.4"/>
</g>
<!-- Node131 -->
<g id="node43" class="node">
<title>Node131</title>
<g id="a_node43"><a xlink:href="../../d5/de5/find__global__nodal__entity__neighbours__process_8h.html" target="_top" xlink:title=" ">
<polygon fill="#fff0f0" stroke="red" points="2459,-943 2317,-943 2317,-902 2459,-902 2459,-943"/>
<text text-anchor="start" x="2325" y="-931" font-family="Helvetica,sans-Serif" font-size="10.00">processes/find_global</text>
<text text-anchor="start" x="2325" y="-920" font-family="Helvetica,sans-Serif" font-size="10.00">_nodal_entity_neighbours</text>
<text text-anchor="middle" x="2388" y="-909" font-family="Helvetica,sans-Serif" font-size="10.00">_process.h</text>
</a>
</g>
</g>
<!-- Node121&#45;&gt;Node131 -->
<g id="edge159" class="edge">
<title>Node121&#45;&gt;Node131</title>
<path fill="none" stroke="#63b8ff" d="M1816.48,-985.95C1932.66,-973.26 2176.96,-946.56 2305.28,-932.54"/>
<polygon fill="#63b8ff" stroke="#63b8ff" points="2305.5,-936.04 2315.07,-931.47 2304.74,-929.08 2305.5,-936.04"/>
</g>
<!-- Node122&#45;&gt;Node7 -->
<g id="edge152" class="edge">
<title>Node122&#45;&gt;Node7</title>
<path fill="none" stroke="#63b8ff" d="M2853.8,-725.58C2852.99,-688.49 2850,-542.8 2850,-423 2850,-423 2850,-423 2850,-239.5 2850,-200.06 2823.2,-193.8 2788,-176 2744.26,-153.88 2610.56,-141.15 2531.13,-135.35"/>
<polygon fill="#63b8ff" stroke="#63b8ff" points="2531.56,-131.87 2521.33,-134.65 2531.06,-138.85 2531.56,-131.87"/>
</g>
<!-- Node122&#45;&gt;Node99 -->
<g id="edge153" class="edge">
<title>Node122&#45;&gt;Node99</title>
<path fill="none" stroke="#63b8ff" d="M2829.2,-725.56C2771.12,-704.61 2626.18,-652.35 2559.09,-628.16"/>
<polygon fill="#63b8ff" stroke="#63b8ff" points="2560.66,-625 2550.07,-624.9 2558.28,-631.58 2560.66,-625"/>
</g>
<!-- Node123&#45;&gt;Node2 -->
<g id="edge156" class="edge">
<title>Node123&#45;&gt;Node2</title>
<path fill="none" stroke="#63b8ff" d="M1671.78,-920.47C1414.9,-916.82 623.1,-902.69 514,-866 462.82,-848.79 414,-851 414,-797 414,-797 414,-797 414,-734.5 414,-625.5 305.24,-650.63 233,-569 161.39,-488.08 114,-465.05 114,-357 114,-357 114,-357 114,-129.5 114,-91.28 138.32,-84.07 172,-66 221.59,-39.4 388.54,-23.95 460.52,-18.38"/>
<polygon fill="#63b8ff" stroke="#63b8ff" points="460.4,-21.9 470.11,-17.66 459.87,-14.92 460.4,-21.9"/>
</g>
<!-- Node123&#45;&gt;Node3 -->
<g id="edge155" class="edge">
<title>Node123&#45;&gt;Node3</title>
<path fill="none" stroke="#63b8ff" d="M1671.73,-917.05C1410.91,-901.55 604,-844.82 604,-736.5 604,-736.5 604,-736.5 604,-553 604,-495.94 955.51,-261.07 1004,-231 1036.45,-210.88 1050.56,-216.66 1082,-195 1149.56,-148.47 1141.55,-104.46 1214,-66 1279.06,-31.46 1365.57,-20.75 1416.18,-17.45"/>
<polygon fill="#63b8ff" stroke="#63b8ff" points="1416.34,-20.94 1426.12,-16.87 1415.94,-13.96 1416.34,-20.94"/>
</g>
<!-- Node123&#45;&gt;Node7 -->
<g id="edge157" class="edge">
<title>Node123&#45;&gt;Node7</title>
<path fill="none" stroke="#63b8ff" d="M1832.35,-918.87C2029.64,-911.32 2532.63,-885.16 2681,-811 2717.27,-792.87 2727.33,-781.97 2744,-745 2837.91,-536.71 2849.5,-438.1 2753,-231 2739.78,-202.63 2735.85,-192.1 2709,-176 2654.76,-143.48 2582.15,-133.79 2531.24,-131.33"/>
<polygon fill="#63b8ff" stroke="#63b8ff" points="2531.4,-127.84 2521.27,-130.95 2531.13,-134.83 2531.4,-127.84"/>
</g>
<!-- Node123&#45;&gt;Node19 -->
<g id="edge158" class="edge">
<title>Node123&#45;&gt;Node19</title>
<path fill="none" stroke="#63b8ff" d="M1752,-907.3C1752,-898.59 1752,-887.31 1752,-877.68"/>
<polygon fill="#63b8ff" stroke="#63b8ff" points="1755.5,-877.86 1752,-867.86 1748.5,-877.86 1755.5,-877.86"/>
</g>
<!-- Node131&#45;&gt;Node2 -->
<g id="edge160" class="edge">
<title>Node131&#45;&gt;Node2</title>
<path fill="none" stroke="#63b8ff" d="M2316.51,-918.62C1975.2,-904.64 528,-842.68 528,-797 528,-797 528,-797 528,-553 528,-428.96 418,-420.54 418,-296.5 418,-296.5 418,-296.5 418,-184.5 418,-125.08 457.76,-63.46 479.76,-33.91"/>
<polygon fill="#63b8ff" stroke="#63b8ff" points="482.48,-36.12 485.79,-26.06 476.93,-31.86 482.48,-36.12"/>
</g>
<!-- Node131&#45;&gt;Node3 -->
<g id="edge161" class="edge">
<title>Node131&#45;&gt;Node3</title>
<path fill="none" stroke="#63b8ff" d="M2459.14,-916.86C2567.99,-909.07 2770.38,-891.65 2838,-866 2946.19,-824.97 3016,-791.71 3016,-676 3016,-676 3016,-676 3016,-613.5 3016,-496.22 3078,-474.28 3078,-357 3078,-357 3078,-357 3078,-239.5 3078,-181.11 3017.69,-196.45 2963,-176 2744.59,-94.32 2681.19,-96.41 2450,-66 2083.69,-17.81 1635.68,-15.26 1499.31,-15.71"/>
<polygon fill="#63b8ff" stroke="#63b8ff" points="1499.69,-12.21 1489.7,-15.75 1499.72,-19.21 1499.69,-12.21"/>
</g>
<!-- Node131&#45;&gt;Node7 -->
<g id="edge162" class="edge">
<title>Node131&#45;&gt;Node7</title>
<path fill="none" stroke="#63b8ff" d="M2459.36,-912.67C2576.96,-898.03 2799.34,-869.95 2807,-866 2898.64,-818.8 2940,-779.08 2940,-676 2940,-676 2940,-676 2940,-613.5 2940,-497.18 2888,-473.32 2888,-357 2888,-357 2888,-357 2888,-239.5 2888,-198.47 2858.08,-193.56 2821,-176 2770.99,-152.31 2617.53,-139.93 2531,-134.67"/>
<polygon fill="#63b8ff" stroke="#63b8ff" points="2531.46,-131.19 2521.27,-134.09 2531.05,-138.18 2531.46,-131.19"/>
</g>
<!-- Node131&#45;&gt;Node19 -->
<g id="edge164" class="edge">
<title>Node131&#45;&gt;Node19</title>
<path fill="none" stroke="#63b8ff" d="M2316.59,-914.31C2195.12,-902.09 1949.5,-877.37 1826.18,-864.96"/>
<polygon fill="#63b8ff" stroke="#63b8ff" points="1826.8,-861.51 1816.5,-863.99 1826.1,-868.47 1826.8,-861.51"/>
</g>
<!-- Node131&#45;&gt;Node122 -->
<g id="edge163" class="edge">
<title>Node131&#45;&gt;Node122</title>
<path fill="none" stroke="#63b8ff" d="M2459.24,-918.97C2558.23,-914.22 2730.96,-901.04 2782,-866 2820.6,-839.5 2840.7,-785.23 2849.1,-756.06"/>
<polygon fill="#63b8ff" stroke="#63b8ff" points="2852.4,-757.28 2851.62,-746.72 2845.64,-755.47 2852.4,-757.28"/>
</g>
<!-- Node85&#45;&gt;Node5 -->
<g id="edge166" class="edge">
<title>Node85&#45;&gt;Node5</title>
<path fill="none" stroke="#63b8ff" d="M721.91,-346.12C710.76,-337.18 693.34,-323.22 679.81,-312.37"/>
<polygon fill="#63b8ff" stroke="#63b8ff" points="682.36,-309.94 672.37,-306.41 677.99,-315.4 682.36,-309.94"/>
</g>
<!-- Node85&#45;&gt;Node29 -->
<g id="edge169" class="edge">
<title>Node85&#45;&gt;Node29</title>
<path fill="none" stroke="#63b8ff" d="M734.96,-346.19C740.51,-323.34 758.56,-261.85 798,-231 825.97,-209.12 863.17,-197.81 896.66,-192.03"/>
<polygon fill="#63b8ff" stroke="#63b8ff" points="897.02,-195.52 906.36,-190.51 895.93,-188.6 897.02,-195.52"/>
</g>
<!-- Node85&#45;&gt;Node54 -->
<g id="edge168" class="edge">
<title>Node85&#45;&gt;Node54</title>
<path fill="none" stroke="#63b8ff" d="M759.95,-346.08C802.14,-332.28 886.46,-305.32 959,-286 1006.18,-273.43 1060.37,-261.24 1099.63,-252.81"/>
<polygon fill="#63b8ff" stroke="#63b8ff" points="1100.27,-256.25 1109.31,-250.74 1098.8,-249.41 1100.27,-256.25"/>
</g>
<!-- Node85&#45;&gt;Node66 -->
<g id="edge167" class="edge">
<title>Node85&#45;&gt;Node66</title>
<path fill="none" stroke="#63b8ff" d="M774.3,-346.05C823.61,-335.37 905.81,-317.56 957.07,-306.45"/>
<polygon fill="#63b8ff" stroke="#63b8ff" points="957.63,-309.91 966.67,-304.37 956.15,-303.07 957.63,-309.91"/>
</g>
<!-- Node135&#45;&gt;Node136 -->
<g id="edge173" class="edge">
<title>Node135&#45;&gt;Node136</title>
<path fill="none" stroke="#63b8ff" d="M3311.88,-978.6C3306.22,-969.65 3298.8,-957.93 3292.26,-947.6"/>
<polygon fill="#63b8ff" stroke="#63b8ff" points="3295.22,-945.74 3286.91,-939.16 3289.31,-949.48 3295.22,-945.74"/>
</g>
<!-- Node148 -->
<g id="node49" class="node">
<title>Node148</title>
<g id="a_node49"><a xlink:href="../../d7/dae/tetrahedron__gauss__legendre__integration__points_8h.html" target="_top" xlink:title=" ">
<polygon fill="#fff0f0" stroke="red" points="3508.5,-943 3351.5,-943 3351.5,-902 3508.5,-902 3508.5,-943"/>
<text text-anchor="start" x="3359.5" y="-931" font-family="Helvetica,sans-Serif" font-size="10.00">integration/tetrahedron</text>
<text text-anchor="start" x="3359.5" y="-920" font-family="Helvetica,sans-Serif" font-size="10.00">_gauss_legendre_integration</text>
<text text-anchor="middle" x="3430" y="-909" font-family="Helvetica,sans-Serif" font-size="10.00">_points.h</text>
</a>
</g>
</g>
<!-- Node135&#45;&gt;Node148 -->
<g id="edge174" class="edge">
<title>Node135&#45;&gt;Node148</title>
<path fill="none" stroke="#63b8ff" d="M3343.58,-978.6C3356.8,-970.17 3373.89,-959.28 3389.38,-949.4"/>
<polygon fill="#63b8ff" stroke="#63b8ff" points="3390.94,-952.56 3397.49,-944.23 3387.18,-946.65 3390.94,-952.56"/>
</g>
<!-- Node150&#45;&gt;Node7 -->
<g id="edge177" class="edge">
<title>Node150&#45;&gt;Node7</title>
<path fill="none" stroke="#63b8ff" d="M3115.15,-780.76C3129.51,-759.18 3154,-716.44 3154,-676 3154,-676 3154,-676 3154,-553 3154,-411.13 2964,-438.37 2964,-296.5 2964,-296.5 2964,-296.5 2964,-239.5 2964,-209.33 2963.98,-194.3 2940,-176 2923.97,-163.76 2654.68,-144.03 2531.1,-135.57"/>
<polygon fill="#63b8ff" stroke="#63b8ff" points="2531.69,-132.1 2521.48,-134.91 2531.22,-139.08 2531.69,-132.1"/>
</g>
</g>
</svg>
