<?xml version="1.0" encoding="UTF-8" standalone="no"?>
<!DOCTYPE svg PUBLIC "-//W3C//DTD SVG 1.1//EN"
 "http://www.w3.org/Graphics/SVG/1.1/DTD/svg11.dtd">
<!-- Generated by graphviz version 7.1.0 (0)
 -->
<!-- Title: /software/kratos/doxygen/kratos/utilities/timer.cpp Pages: 1 -->
<!--zoomable 467 -->
<svg id="main" version="1.1" xmlns="http://www.w3.org/2000/svg" xmlns:xlink="http://www.w3.org/1999/xlink" xml:space="preserve" onload="init(evt)">
<style type="text/css"><![CDATA[
.edge:hover path { stroke: red; }
.edge:hover polygon { stroke: red; fill: red; }
]]></style>
<script type="text/javascript"><![CDATA[
var edges = document.getElementsByTagName('g');
if (edges && edges.length) {
  for (var i=0;i<edges.length;i++) {
    if (edges[i].id.substr(0,4)=='edge') {
      edges[i].setAttribute('class','edge');
    }
  }
}
]]></script>
        <defs>
                <circle id="rim" cx="0" cy="0" r="7"/>
                <circle id="rim2" cx="0" cy="0" r="3.5"/>
                <g id="zoomPlus">
                        <use xlink:href="#rim" fill="#404040">
                                <set attributeName="fill" to="#808080" begin="zoomplus.mouseover" end="zoomplus.mouseout"/>
                        </use>
                        <path d="M-4,0h8M0,-4v8" fill="none" stroke="white" stroke-width="1.5" pointer-events="none"/>
                </g>
                <g id="zoomMin">
                        <use xlink:href="#rim" fill="#404040">
                                <set attributeName="fill" to="#808080" begin="zoomminus.mouseover" end="zoomminus.mouseout"/>
                        </use>
                        <path d="M-4,0h8" fill="none" stroke="white" stroke-width="1.5" pointer-events="none"/>
                </g>
                <g id="dirArrow">
                        <path fill="none" stroke="white" stroke-width="1.5" d="M0,-3.0v7 M-2.5,-0.5L0,-3.0L2.5,-0.5"/>
                </g>
               <g id="resetDef">
                       <use xlink:href="#rim2" fill="#404040">
                               <set attributeName="fill" to="#808080" begin="reset.mouseover" end="reset.mouseout"/>
                       </use>
               </g>
        </defs>

<script type="text/javascript">
var viewWidth = 1482;
var viewHeight = 467;
var sectionId = 'dynsection-0';
</script>
<script xlink:href="../../svgpan.js"/>
<svg id="graph" class="graph">
<g id="viewport">
<title>/software/kratos/doxygen/kratos/utilities/timer.cpp</title>
<!-- Node1 -->
<g id="node1" class="node">
<title>Node1</title>
<g id="a_node1"><a xlink:title=" ">
<polygon fill="#999999" stroke="#666666" points="366,-459 226,-459 226,-429 366,-429 366,-459"/>
<text text-anchor="start" x="234" y="-447" font-family="Helvetica,sans-Serif" font-size="10.00">/software/kratos/doxygen</text>
<text text-anchor="middle" x="296" y="-436" font-family="Helvetica,sans-Serif" font-size="10.00">/kratos/utilities/timer.cpp</text>
</a>
</g>
</g>
<!-- Node2 -->
<g id="node2" class="node">
<title>Node2</title>
<g id="a_node2"><a xlink:title=" ">
<polygon fill="#e0e0e0" stroke="#999999" points="249,-393 193,-393 193,-374 249,-374 249,-393"/>
<text text-anchor="middle" x="221" y="-381" font-family="Helvetica,sans-Serif" font-size="10.00">iomanip</text>
</a>
</g>
</g>
<!-- Node1&#45;&gt;Node2 -->
<g id="edge1" class="edge">
<title>Node1&#45;&gt;Node2</title>
<path fill="none" stroke="#63b8ff" d="M277.46,-428.54C266.35,-419.87 252.21,-408.85 240.87,-400"/>
<polygon fill="#63b8ff" stroke="#63b8ff" points="243.35,-397.5 233.32,-394.11 239.05,-403.02 243.35,-397.5"/>
</g>
<!-- Node3 -->
<g id="node3" class="node">
<title>Node3</title>
<g id="a_node3"><a xlink:title=" ">
<polygon fill="#e0e0e0" stroke="#999999" points="630,-90.5 574,-90.5 574,-71.5 630,-71.5 630,-90.5"/>
<text text-anchor="middle" x="602" y="-78.5" font-family="Helvetica,sans-Serif" font-size="10.00">sstream</text>
</a>
</g>
</g>
<!-- Node1&#45;&gt;Node3 -->
<g id="edge2" class="edge">
<title>Node1&#45;&gt;Node3</title>
<path fill="none" stroke="#63b8ff" d="M310.75,-428.58C360.37,-379.88 520.49,-221.29 562,-162 575.6,-142.57 587.21,-117.84 594.37,-101.06"/>
<polygon fill="#63b8ff" stroke="#63b8ff" points="597.41,-102.85 598,-92.27 590.95,-100.18 597.41,-102.85"/>
</g>
<!-- Node4 -->
<g id="node4" class="node">
<title>Node4</title>
<g id="a_node4"><a xlink:href="../../d5/dd0/timer_8h.html" target="_top" xlink:title=" ">
<polygon fill="white" stroke="#666666" points="336.5,-272 245.5,-272 245.5,-253 336.5,-253 336.5,-272"/>
<text text-anchor="middle" x="291" y="-260" font-family="Helvetica,sans-Serif" font-size="10.00">utilities/timer.h</text>
</a>
</g>
</g>
<!-- Node1&#45;&gt;Node4 -->
<g id="edge3" class="edge">
<title>Node1&#45;&gt;Node4</title>
<path fill="none" stroke="#63b8ff" d="M295.6,-428.61C294.71,-396.76 292.58,-320.22 291.56,-283.64"/>
<polygon fill="#63b8ff" stroke="#63b8ff" points="295.07,-283.91 291.29,-274.01 288.07,-284.11 295.07,-283.91"/>
</g>
<!-- Node22 -->
<g id="node22" class="node">
<title>Node22</title>
<g id="a_node22"><a xlink:href="../../d1/d8c/logger_8h.html" target="_top" xlink:title=" ">
<polygon fill="white" stroke="#666666" points="514,-393 394,-393 394,-374 514,-374 514,-393"/>
<text text-anchor="middle" x="454" y="-381" font-family="Helvetica,sans-Serif" font-size="10.00">input_output/logger.h</text>
</a>
</g>
</g>
<!-- Node1&#45;&gt;Node22 -->
<g id="edge33" class="edge">
<title>Node1&#45;&gt;Node22</title>
<path fill="none" stroke="#63b8ff" d="M335.06,-428.54C360.89,-418.97 394.46,-406.55 419.34,-397.33"/>
<polygon fill="#63b8ff" stroke="#63b8ff" points="420.53,-400.63 428.69,-393.87 418.1,-394.06 420.53,-400.63"/>
</g>
<!-- Node5 -->
<g id="node5" class="node">
<title>Node5</title>
<g id="a_node5"><a xlink:title=" ">
<polygon fill="#e0e0e0" stroke="#999999" points="260,-24.5 216,-24.5 216,-5.5 260,-5.5 260,-24.5"/>
<text text-anchor="middle" x="238" y="-12.5" font-family="Helvetica,sans-Serif" font-size="10.00">string</text>
</a>
</g>
</g>
<!-- Node4&#45;&gt;Node5 -->
<g id="edge4" class="edge">
<title>Node4&#45;&gt;Node5</title>
<path fill="none" stroke="#63b8ff" d="M245.31,-257.61C193.39,-252.13 113.45,-240.11 95,-217 53.13,-164.55 56.16,-120.73 95,-66 119.71,-31.18 170.6,-20.41 204.52,-17.2"/>
<polygon fill="#63b8ff" stroke="#63b8ff" points="204.52,-20.71 214.23,-16.46 203.99,-13.73 204.52,-20.71"/>
</g>
<!-- Node6 -->
<g id="node6" class="node">
<title>Node6</title>
<g id="a_node6"><a xlink:title=" ">
<polygon fill="#e0e0e0" stroke="#999999" points="1352,-24.5 1292,-24.5 1292,-5.5 1352,-5.5 1352,-24.5"/>
<text text-anchor="middle" x="1322" y="-12.5" font-family="Helvetica,sans-Serif" font-size="10.00">iostream</text>
</a>
</g>
</g>
<!-- Node4&#45;&gt;Node6 -->
<g id="edge5" class="edge">
<title>Node4&#45;&gt;Node6</title>
<path fill="none" stroke="#63b8ff" d="M336.91,-258.91C498.38,-249.41 1039.22,-214.36 1204,-162 1262.01,-143.57 1293.02,-148.39 1324,-96 1334.81,-77.72 1332,-52.74 1327.97,-35.58"/>
<polygon fill="#63b8ff" stroke="#63b8ff" points="1331.41,-34.87 1325.41,-26.14 1324.65,-36.71 1331.41,-34.87"/>
</g>
<!-- Node7 -->
<g id="node7" class="node">
<title>Node7</title>
<g id="a_node7"><a xlink:title=" ">
<polygon fill="#e0e0e0" stroke="#999999" points="159.5,-217 104.5,-217 104.5,-198 159.5,-198 159.5,-217"/>
<text text-anchor="middle" x="132" y="-205" font-family="Helvetica,sans-Serif" font-size="10.00">fstream</text>
</a>
</g>
</g>
<!-- Node4&#45;&gt;Node7 -->
<g id="edge6" class="edge">
<title>Node4&#45;&gt;Node7</title>
<path fill="none" stroke="#63b8ff" d="M264.03,-252.51C238.02,-243.84 198.45,-230.65 169.4,-220.97"/>
<polygon fill="#63b8ff" stroke="#63b8ff" points="170.87,-217.77 160.27,-217.92 168.65,-224.41 170.87,-217.77"/>
</g>
<!-- Node8 -->
<g id="node8" class="node">
<title>Node8</title>
<g id="a_node8"><a xlink:title=" ">
<polygon fill="#e0e0e0" stroke="#999999" points="210,-90.5 172,-90.5 172,-71.5 210,-71.5 210,-90.5"/>
<text text-anchor="middle" x="191" y="-78.5" font-family="Helvetica,sans-Serif" font-size="10.00">map</text>
</a>
</g>
</g>
<!-- Node4&#45;&gt;Node8 -->
<g id="edge7" class="edge">
<title>Node4&#45;&gt;Node8</title>
<path fill="none" stroke="#63b8ff" d="M296.38,-252.74C309.31,-230.49 339.13,-170.76 313,-132 289.15,-96.62 263.42,-112.33 224,-96 222.88,-95.54 221.74,-95.06 220.58,-94.58"/>
<polygon fill="#63b8ff" stroke="#63b8ff" points="222.14,-91.44 211.57,-90.79 219.43,-97.89 222.14,-91.44"/>
</g>
<!-- Node9 -->
<g id="node9" class="node">
<title>Node9</title>
<g id="a_node9"><a xlink:title=" ">
<polygon fill="#e0e0e0" stroke="#999999" points="270.5,-217 177.5,-217 177.5,-198 270.5,-198 270.5,-217"/>
<text text-anchor="middle" x="224" y="-205" font-family="Helvetica,sans-Serif" font-size="10.00">unordered_map</text>
</a>
</g>
</g>
<!-- Node4&#45;&gt;Node9 -->
<g id="edge8" class="edge">
<title>Node4&#45;&gt;Node9</title>
<path fill="none" stroke="#63b8ff" d="M279.63,-252.51C269.95,-244.85 255.8,-233.66 244.19,-224.47"/>
<polygon fill="#63b8ff" stroke="#63b8ff" points="246.4,-221.76 236.38,-218.3 242.06,-227.25 246.4,-221.76"/>
</g>
<!-- Node10 -->
<g id="node10" class="node">
<title>Node10</title>
<g id="a_node10"><a xlink:title=" ">
<polygon fill="#e0e0e0" stroke="#999999" points="154,-90.5 104,-90.5 104,-71.5 154,-71.5 154,-90.5"/>
<text text-anchor="middle" x="129" y="-78.5" font-family="Helvetica,sans-Serif" font-size="10.00">chrono</text>
</a>
</g>
</g>
<!-- Node4&#45;&gt;Node10 -->
<g id="edge9" class="edge">
<title>Node4&#45;&gt;Node10</title>
<path fill="none" stroke="#63b8ff" d="M291.24,-252.59C291.2,-239.62 289.55,-215.22 279,-198 249.62,-150.05 192.66,-114.44 158.01,-96.05"/>
<polygon fill="#63b8ff" stroke="#63b8ff" points="159.86,-93.07 149.37,-91.6 156.65,-99.29 159.86,-93.07"/>
</g>
<!-- Node11 -->
<g id="node11" class="node">
<title>Node11</title>
<g id="a_node11"><a xlink:href="../../df/d67/define_8h.html" target="_top" xlink:title=" ">
<polygon fill="white" stroke="#666666" points="707.5,-217 608.5,-217 608.5,-198 707.5,-198 707.5,-217"/>
<text text-anchor="middle" x="658" y="-205" font-family="Helvetica,sans-Serif" font-size="10.00">includes/define.h</text>
</a>
</g>
</g>
<!-- Node4&#45;&gt;Node11 -->
<g id="edge10" class="edge">
<title>Node4&#45;&gt;Node11</title>
<path fill="none" stroke="#63b8ff" d="M336.74,-254.89C402.4,-245.41 523.52,-227.92 596.82,-217.34"/>
<polygon fill="#63b8ff" stroke="#63b8ff" points="597.26,-220.81 606.66,-215.91 596.26,-213.88 597.26,-220.81"/>
</g>
<!-- Node11&#45;&gt;Node3 -->
<g id="edge12" class="edge">
<title>Node11&#45;&gt;Node3</title>
<path fill="none" stroke="#63b8ff" d="M653.97,-197.55C644.93,-177.45 622.86,-128.37 610.58,-101.08"/>
<polygon fill="#63b8ff" stroke="#63b8ff" points="613.91,-99.94 606.61,-92.25 607.52,-102.81 613.91,-99.94"/>
</g>
<!-- Node12 -->
<g id="node12" class="node">
<title>Node12</title>
<g id="a_node12"><a xlink:title=" ">
<polygon fill="#e0e0e0" stroke="#999999" points="751.5,-90.5 686.5,-90.5 686.5,-71.5 751.5,-71.5 751.5,-90.5"/>
<text text-anchor="middle" x="719" y="-78.5" font-family="Helvetica,sans-Serif" font-size="10.00">stdexcept</text>
</a>
</g>
</g>
<!-- Node11&#45;&gt;Node12 -->
<g id="edge11" class="edge">
<title>Node11&#45;&gt;Node12</title>
<path fill="none" stroke="#63b8ff" d="M662.39,-197.55C672.24,-177.45 696.28,-128.37 709.65,-101.08"/>
<polygon fill="#63b8ff" stroke="#63b8ff" points="712.73,-102.75 713.99,-92.23 706.44,-99.67 712.73,-102.75"/>
</g>
<!-- Node13 -->
<g id="node13" class="node">
<title>Node13</title>
<g id="a_node13"><a xlink:href="../../dc/d25/kratos__export__api_8h.html" target="_top" xlink:title=" ">
<polygon fill="white" stroke="#666666" points="617,-30 489,-30 489,0 617,0 617,-30"/>
<text text-anchor="start" x="497" y="-18" font-family="Helvetica,sans-Serif" font-size="10.00">includes/kratos_export</text>
<text text-anchor="middle" x="553" y="-7" font-family="Helvetica,sans-Serif" font-size="10.00">_api.h</text>
</a>
</g>
</g>
<!-- Node11&#45;&gt;Node13 -->
<g id="edge13" class="edge">
<title>Node11&#45;&gt;Node13</title>
<path fill="none" stroke="#63b8ff" d="M659.29,-197.68C662.26,-174.08 667.32,-108.36 639,-66 630.43,-53.19 617.39,-43.23 604.03,-35.7"/>
<polygon fill="#63b8ff" stroke="#63b8ff" points="605.65,-32.59 595.16,-31.1 602.42,-38.81 605.65,-32.59"/>
</g>
<!-- Node14 -->
<g id="node14" class="node">
<title>Node14</title>
<g id="a_node14"><a xlink:href="../../d9/dc0/smart__pointers_8h.html" target="_top" xlink:title=" ">
<polygon fill="white" stroke="#666666" points="1194.5,-156.5 1051.5,-156.5 1051.5,-137.5 1194.5,-137.5 1194.5,-156.5"/>
<text text-anchor="middle" x="1123" y="-144.5" font-family="Helvetica,sans-Serif" font-size="10.00">includes/smart_pointers.h</text>
</a>
</g>
</g>
<!-- Node11&#45;&gt;Node14 -->
<g id="edge14" class="edge">
<title>Node11&#45;&gt;Node14</title>
<path fill="none" stroke="#63b8ff" d="M707.76,-200.24C787.32,-190.23 943.98,-170.52 1040.49,-158.38"/>
<polygon fill="#63b8ff" stroke="#63b8ff" points="1040.68,-161.88 1050.16,-157.16 1039.8,-154.94 1040.68,-161.88"/>
</g>
<!-- Node18 -->
<g id="node18" class="node">
<title>Node18</title>
<g id="a_node18"><a xlink:href="../../dd/d2d/exception_8h.html" target="_top" xlink:title=" ">
<polygon fill="white" stroke="#666666" points="841.5,-156.5 724.5,-156.5 724.5,-137.5 841.5,-137.5 841.5,-156.5"/>
<text text-anchor="middle" x="783" y="-144.5" font-family="Helvetica,sans-Serif" font-size="10.00">includes/exception.h</text>
</a>
</g>
</g>
<!-- Node11&#45;&gt;Node18 -->
<g id="edge19" class="edge">
<title>Node11&#45;&gt;Node18</title>
<path fill="none" stroke="#63b8ff" d="M676.98,-197.62C697.36,-188.08 729.98,-172.81 753.66,-161.73"/>
<polygon fill="#63b8ff" stroke="#63b8ff" points="754.89,-165.02 762.47,-157.61 751.92,-158.68 754.89,-165.02"/>
</g>
<!-- Node14&#45;&gt;Node6 -->
<g id="edge15" class="edge">
<title>Node14&#45;&gt;Node6</title>
<path fill="none" stroke="#63b8ff" d="M1194.97,-142.94C1232,-137.61 1275.1,-124.97 1303,-96 1318.3,-80.11 1322.05,-54.26 1322.62,-36.26"/>
<polygon fill="#63b8ff" stroke="#63b8ff" points="1326.12,-36.3 1322.6,-26.31 1319.12,-36.32 1326.12,-36.3"/>
</g>
<!-- Node15 -->
<g id="node15" class="node">
<title>Node15</title>
<g id="a_node15"><a xlink:title=" ">
<polygon fill="#e0e0e0" stroke="#999999" points="1075.5,-90.5 1030.5,-90.5 1030.5,-71.5 1075.5,-71.5 1075.5,-90.5"/>
<text text-anchor="middle" x="1053" y="-78.5" font-family="Helvetica,sans-Serif" font-size="10.00">utility</text>
</a>
</g>
</g>
<!-- Node14&#45;&gt;Node15 -->
<g id="edge16" class="edge">
<title>Node14&#45;&gt;Node15</title>
<path fill="none" stroke="#63b8ff" d="M1113.27,-137.1C1102.4,-127.17 1084.58,-110.87 1071.13,-98.57"/>
<polygon fill="#63b8ff" stroke="#63b8ff" points="1073.51,-96.01 1063.77,-91.84 1068.79,-101.18 1073.51,-96.01"/>
</g>
<!-- Node16 -->
<g id="node16" class="node">
<title>Node16</title>
<g id="a_node16"><a xlink:title=" ">
<polygon fill="#e0e0e0" stroke="#999999" points="1152,-90.5 1094,-90.5 1094,-71.5 1152,-71.5 1152,-90.5"/>
<text text-anchor="middle" x="1123" y="-78.5" font-family="Helvetica,sans-Serif" font-size="10.00">memory</text>
</a>
</g>
</g>
<!-- Node14&#45;&gt;Node16 -->
<g id="edge17" class="edge">
<title>Node14&#45;&gt;Node16</title>
<path fill="none" stroke="#63b8ff" d="M1123,-137.1C1123,-128.12 1123,-113.95 1123,-102.22"/>
<polygon fill="#63b8ff" stroke="#63b8ff" points="1126.5,-102.34 1123,-92.34 1119.5,-102.34 1126.5,-102.34"/>
</g>
<!-- Node17 -->
<g id="node17" class="node">
<title>Node17</title>
<g id="a_node17"><a xlink:title=" ">
<polygon fill="#e0e0e0" stroke="#999999" points="1294,-96 1170,-96 1170,-66 1294,-66 1294,-96"/>
<text text-anchor="start" x="1178" y="-84" font-family="Helvetica,sans-Serif" font-size="10.00">intrusive_ptr/intrusive</text>
<text text-anchor="middle" x="1232" y="-73" font-family="Helvetica,sans-Serif" font-size="10.00">_ptr.hpp</text>
</a>
</g>
</g>
<!-- Node14&#45;&gt;Node17 -->
<g id="edge18" class="edge">
<title>Node14&#45;&gt;Node17</title>
<path fill="none" stroke="#63b8ff" d="M1138.16,-137.1C1153.47,-128.11 1177.65,-113.91 1197.64,-102.18"/>
<polygon fill="#63b8ff" stroke="#63b8ff" points="1199.19,-105.33 1206.04,-97.24 1195.64,-99.29 1199.19,-105.33"/>
</g>
<!-- Node18&#45;&gt;Node3 -->
<g id="edge23" class="edge">
<title>Node18&#45;&gt;Node3</title>
<path fill="none" stroke="#63b8ff" d="M757.83,-137.1C726.72,-126.1 673.54,-107.3 638.08,-94.76"/>
<polygon fill="#63b8ff" stroke="#63b8ff" points="639.27,-91.46 628.67,-91.43 636.93,-98.06 639.27,-91.46"/>
</g>
<!-- Node18&#45;&gt;Node5 -->
<g id="edge21" class="edge">
<title>Node18&#45;&gt;Node5</title>
<path fill="none" stroke="#63b8ff" d="M724.27,-143.26C625.91,-137.94 432.58,-124.19 371,-96 352.98,-87.75 354.35,-77.2 338,-66 316.79,-51.47 290.75,-38.59 270.57,-29.54"/>
<polygon fill="#63b8ff" stroke="#63b8ff" points="271.97,-26.33 261.41,-25.53 269.16,-32.75 271.97,-26.33"/>
</g>
<!-- Node18&#45;&gt;Node6 -->
<g id="edge22" class="edge">
<title>Node18&#45;&gt;Node6</title>
<path fill="none" stroke="#63b8ff" d="M841.63,-137.86C882.7,-130.63 938.05,-117.73 983,-96 1002.69,-86.48 1001.95,-74.73 1022,-66 1108.7,-28.28 1220.89,-18.86 1280.49,-16.61"/>
<polygon fill="#63b8ff" stroke="#63b8ff" points="1280.29,-20.12 1290.17,-16.3 1280.06,-13.12 1280.29,-20.12"/>
</g>
<!-- Node18&#45;&gt;Node12 -->
<g id="edge20" class="edge">
<title>Node18&#45;&gt;Node12</title>
<path fill="none" stroke="#63b8ff" d="M774.1,-137.1C764.26,-127.26 748.18,-111.18 735.93,-98.93"/>
<polygon fill="#63b8ff" stroke="#63b8ff" points="738.44,-96.49 728.89,-91.89 733.49,-101.44 738.44,-96.49"/>
</g>
<!-- Node18&#45;&gt;Node13 -->
<g id="edge25" class="edge">
<title>Node18&#45;&gt;Node13</title>
<path fill="none" stroke="#63b8ff" d="M783.29,-137.11C783.31,-120.62 780.87,-85.24 761,-66 742.01,-47.62 679.86,-34.22 628.4,-25.95"/>
<polygon fill="#63b8ff" stroke="#63b8ff" points="629.18,-22.53 618.76,-24.44 628.1,-29.45 629.18,-22.53"/>
</g>
<!-- Node19 -->
<g id="node19" class="node">
<title>Node19</title>
<g id="a_node19"><a xlink:title=" ">
<polygon fill="#e0e0e0" stroke="#999999" points="887.5,-24.5 840.5,-24.5 840.5,-5.5 887.5,-5.5 887.5,-24.5"/>
<text text-anchor="middle" x="864" y="-12.5" font-family="Helvetica,sans-Serif" font-size="10.00">vector</text>
</a>
</g>
</g>
<!-- Node18&#45;&gt;Node19 -->
<g id="edge24" class="edge">
<title>Node18&#45;&gt;Node19</title>
<path fill="none" stroke="#63b8ff" d="M788.57,-137.06C801.69,-116.01 834.77,-62.91 852.45,-34.54"/>
<polygon fill="#63b8ff" stroke="#63b8ff" points="855.28,-36.62 857.59,-26.28 849.33,-32.92 855.28,-36.62"/>
</g>
<!-- Node20 -->
<g id="node20" class="node">
<title>Node20</title>
<g id="a_node20"><a xlink:href="../../da/da6/code__location_8h.html" target="_top" xlink:title=" ">
<polygon fill="white" stroke="#666666" points="517.5,-90.5 380.5,-90.5 380.5,-71.5 517.5,-71.5 517.5,-90.5"/>
<text text-anchor="middle" x="449" y="-78.5" font-family="Helvetica,sans-Serif" font-size="10.00">includes/code_location.h</text>
</a>
</g>
</g>
<!-- Node18&#45;&gt;Node20 -->
<g id="edge26" class="edge">
<title>Node18&#45;&gt;Node20</title>
<path fill="none" stroke="#63b8ff" d="M736.21,-137.03C676.17,-125.53 572.03,-105.57 507.01,-93.12"/>
<polygon fill="#63b8ff" stroke="#63b8ff" points="507.71,-89.69 497.23,-91.24 506.39,-96.56 507.71,-89.69"/>
</g>
<!-- Node21 -->
<g id="node21" class="node">
<title>Node21</title>
<g id="a_node21"><a xlink:href="../../d9/d06/stl__vector__io_8h.html" target="_top" xlink:title=" ">
<polygon fill="white" stroke="#666666" points="974,-90.5 846,-90.5 846,-71.5 974,-71.5 974,-90.5"/>
<text text-anchor="middle" x="910" y="-78.5" font-family="Helvetica,sans-Serif" font-size="10.00">utilities/stl_vector_io.h</text>
</a>
</g>
</g>
<!-- Node18&#45;&gt;Node21 -->
<g id="edge30" class="edge">
<title>Node18&#45;&gt;Node21</title>
<path fill="none" stroke="#63b8ff" d="M800.66,-137.1C821.79,-126.45 857.44,-108.49 882.26,-95.98"/>
<polygon fill="#63b8ff" stroke="#63b8ff" points="883.78,-99.13 891.14,-91.5 880.63,-92.88 883.78,-99.13"/>
</g>
<!-- Node20&#45;&gt;Node5 -->
<g id="edge27" class="edge">
<title>Node20&#45;&gt;Node5</title>
<path fill="none" stroke="#63b8ff" d="M419.66,-71.1C380.72,-59.29 312.15,-38.49 271.31,-26.1"/>
<polygon fill="#63b8ff" stroke="#63b8ff" points="272.36,-22.76 261.77,-23.21 270.33,-29.46 272.36,-22.76"/>
</g>
<!-- Node20&#45;&gt;Node6 -->
<g id="edge28" class="edge">
<title>Node20&#45;&gt;Node6</title>
<path fill="none" stroke="#63b8ff" d="M497.16,-71.01C508.55,-69.12 520.68,-67.31 532,-66 817.09,-33.03 1162.75,-20.58 1280.45,-17.11"/>
<polygon fill="#63b8ff" stroke="#63b8ff" points="1280.36,-20.61 1290.25,-16.83 1280.15,-13.62 1280.36,-20.61"/>
</g>
<!-- Node20&#45;&gt;Node13 -->
<g id="edge29" class="edge">
<title>Node20&#45;&gt;Node13</title>
<path fill="none" stroke="#63b8ff" d="M463.46,-71.1C477.94,-62.19 500.73,-48.17 519.69,-36.5"/>
<polygon fill="#63b8ff" stroke="#63b8ff" points="521.5,-39.49 528.18,-31.27 517.83,-33.53 521.5,-39.49"/>
</g>
<!-- Node21&#45;&gt;Node6 -->
<g id="edge31" class="edge">
<title>Node21&#45;&gt;Node6</title>
<path fill="none" stroke="#63b8ff" d="M958.64,-71.04C968.36,-69.32 978.5,-67.56 988,-66 1093.12,-48.7 1217.27,-30.77 1280.48,-21.82"/>
<polygon fill="#63b8ff" stroke="#63b8ff" points="1280.65,-25.33 1290.06,-20.47 1279.67,-18.4 1280.65,-25.33"/>
</g>
<!-- Node21&#45;&gt;Node19 -->
<g id="edge32" class="edge">
<title>Node21&#45;&gt;Node19</title>
<path fill="none" stroke="#63b8ff" d="M903.6,-71.1C896.74,-61.55 885.65,-46.11 876.94,-34.01"/>
<polygon fill="#63b8ff" stroke="#63b8ff" points="879.9,-32.13 871.23,-26.05 874.22,-36.22 879.9,-32.13"/>
</g>
<!-- Node22&#45;&gt;Node5 -->
<g id="edge34" class="edge">
<title>Node22&#45;&gt;Node5</title>
<path fill="none" stroke="#63b8ff" d="M399.69,-373.52C279.18,-352.07 0,-293.23 0,-208.5 0,-208.5 0,-208.5 0,-146 0,-105.42 11.95,-90.88 44,-66 91.26,-29.31 162.6,-19.35 204.32,-16.77"/>
<polygon fill="#63b8ff" stroke="#63b8ff" points="204.44,-20.27 214.25,-16.27 204.09,-13.28 204.44,-20.27"/>
</g>
<!-- Node22&#45;&gt;Node6 -->
<g id="edge35" class="edge">
<title>Node22&#45;&gt;Node6</title>
<path fill="none" stroke="#63b8ff" d="M514.37,-381.84C733.49,-378.66 1474,-360.72 1474,-263.5 1474,-263.5 1474,-263.5 1474,-146 1474,-85.85 1404.41,-47.58 1359.4,-29.12"/>
<polygon fill="#63b8ff" stroke="#63b8ff" points="1360.82,-25.92 1350.23,-25.51 1358.26,-32.43 1360.82,-25.92"/>
</g>
<!-- Node22&#45;&gt;Node18 -->
<g id="edge55" class="edge">
<title>Node22&#45;&gt;Node18</title>
<path fill="none" stroke="#63b8ff" d="M480.28,-373.61C502.83,-365.56 535.88,-352.73 563,-338 639.5,-296.47 655.06,-278.15 717,-217 734.61,-199.61 754.13,-179.04 767.34,-164.91"/>
<polygon fill="#63b8ff" stroke="#63b8ff" points="769.74,-167.46 773.99,-157.76 764.62,-162.69 769.74,-167.46"/>
</g>
<!-- Node23 -->
<g id="node23" class="node">
<title>Node23</title>
<g id="a_node23"><a xlink:href="../../df/d27/logger__message_8h.html" target="_top" xlink:title=" ">
<polygon fill="white" stroke="#666666" points="553,-162 441,-162 441,-132 553,-132 553,-162"/>
<text text-anchor="start" x="449" y="-150" font-family="Helvetica,sans-Serif" font-size="10.00">input_output/logger</text>
<text text-anchor="middle" x="497" y="-139" font-family="Helvetica,sans-Serif" font-size="10.00">_message.h</text>
</a>
</g>
</g>
<!-- Node22&#45;&gt;Node23 -->
<g id="edge36" class="edge">
<title>Node22&#45;&gt;Node23</title>
<path fill="none" stroke="#63b8ff" d="M448.42,-373.72C443.26,-365.03 435.95,-351.17 433,-338 430.08,-324.99 430.48,-321.09 433,-308 442.67,-257.76 467.98,-203.25 483.72,-172.59"/>
<polygon fill="#63b8ff" stroke="#63b8ff" points="486.8,-174.25 488.34,-163.77 480.6,-171 486.8,-174.25"/>
</g>
<!-- Node24 -->
<g id="node24" class="node">
<title>Node24</title>
<g id="a_node24"><a xlink:href="../../da/d8c/logger__output_8h.html" target="_top" xlink:title=" ">
<polygon fill="white" stroke="#666666" points="554,-338 442,-338 442,-308 554,-308 554,-338"/>
<text text-anchor="start" x="450" y="-326" font-family="Helvetica,sans-Serif" font-size="10.00">input_output/logger</text>
<text text-anchor="middle" x="498" y="-315" font-family="Helvetica,sans-Serif" font-size="10.00">_output.h</text>
</a>
</g>
</g>
<!-- Node22&#45;&gt;Node24 -->
<g id="edge45" class="edge">
<title>Node22&#45;&gt;Node24</title>
<path fill="none" stroke="#63b8ff" d="M460.49,-373.87C465.8,-366.81 473.56,-356.5 480.64,-347.08"/>
<polygon fill="#63b8ff" stroke="#63b8ff" points="483.26,-349.42 486.47,-339.32 477.67,-345.21 483.26,-349.42"/>
</g>
<!-- Node23&#45;&gt;Node3 -->
<g id="edge38" class="edge">
<title>Node23&#45;&gt;Node3</title>
<path fill="none" stroke="#63b8ff" d="M520.56,-131.64C537.65,-121.22 560.68,-107.19 577.89,-96.7"/>
<polygon fill="#63b8ff" stroke="#63b8ff" points="579.25,-99.97 585.97,-91.77 575.6,-93.99 579.25,-99.97"/>
</g>
<!-- Node23&#45;&gt;Node5 -->
<g id="edge37" class="edge">
<title>Node23&#45;&gt;Node5</title>
<path fill="none" stroke="#63b8ff" d="M449.65,-131.5C422.99,-122.63 389.45,-110.26 361,-96 323.14,-77.03 282.58,-48.96 258.79,-31.61"/>
<polygon fill="#63b8ff" stroke="#63b8ff" points="261.03,-28.91 250.9,-25.79 256.87,-34.54 261.03,-28.91"/>
</g>
<!-- Node23&#45;&gt;Node6 -->
<g id="edge39" class="edge">
<title>Node23&#45;&gt;Node6</title>
<path fill="none" stroke="#63b8ff" d="M504.38,-131.67C514.95,-112.82 536.34,-80.42 565,-66 629.01,-33.8 1131.17,-20.21 1280.35,-16.86"/>
<polygon fill="#63b8ff" stroke="#63b8ff" points="1280.24,-20.37 1290.16,-16.65 1280.09,-13.37 1280.24,-20.37"/>
</g>
<!-- Node23&#45;&gt;Node8 -->
<g id="edge40" class="edge">
<title>Node23&#45;&gt;Node8</title>
<path fill="none" stroke="#63b8ff" d="M440.52,-134.19C375.93,-120.68 272.55,-99.06 221.53,-88.38"/>
<polygon fill="#63b8ff" stroke="#63b8ff" points="222.3,-84.97 211.79,-86.35 220.86,-91.82 222.3,-84.97"/>
</g>
<!-- Node23&#45;&gt;Node10 -->
<g id="edge41" class="edge">
<title>Node23&#45;&gt;Node10</title>
<path fill="none" stroke="#63b8ff" d="M440.59,-141.75C373.48,-135.73 258.51,-122.39 163,-96 161.65,-95.63 160.28,-95.22 158.91,-94.77"/>
<polygon fill="#63b8ff" stroke="#63b8ff" points="160.51,-91.63 149.92,-91.49 158.11,-98.21 160.51,-91.63"/>
</g>
<!-- Node23&#45;&gt;Node13 -->
<g id="edge42" class="edge">
<title>Node23&#45;&gt;Node13</title>
<path fill="none" stroke="#63b8ff" d="M440.55,-132.88C396.67,-119.95 346.97,-97.53 371,-66 384.29,-48.56 433.44,-35.69 477.31,-27.38"/>
<polygon fill="#63b8ff" stroke="#63b8ff" points="477.93,-30.82 487.13,-25.58 476.67,-23.94 477.93,-30.82"/>
</g>
<!-- Node23&#45;&gt;Node20 -->
<g id="edge43" class="edge">
<title>Node23&#45;&gt;Node20</title>
<path fill="none" stroke="#63b8ff" d="M486.35,-131.8C479.3,-122.41 470.01,-110.02 462.46,-99.95"/>
<polygon fill="#63b8ff" stroke="#63b8ff" points="465.34,-97.96 456.54,-92.06 459.74,-102.16 465.34,-97.96"/>
</g>
<!-- Node23&#45;&gt;Node21 -->
<g id="edge44" class="edge">
<title>Node23&#45;&gt;Node21</title>
<path fill="none" stroke="#63b8ff" d="M553.13,-137.3C627.91,-125.71 760.14,-105.22 840.95,-92.7"/>
<polygon fill="#63b8ff" stroke="#63b8ff" points="841.16,-96.21 850.5,-91.22 840.08,-89.29 841.16,-96.21"/>
</g>
<!-- Node24&#45;&gt;Node5 -->
<g id="edge46" class="edge">
<title>Node24&#45;&gt;Node5</title>
<path fill="none" stroke="#63b8ff" d="M441.59,-313.99C318.76,-295.77 38,-249.63 38,-208.5 38,-208.5 38,-208.5 38,-146 38,-107.19 43.98,-91.77 73,-66 110.05,-33.09 168.2,-21.83 204.66,-17.99"/>
<polygon fill="#63b8ff" stroke="#63b8ff" points="204.53,-21.51 214.17,-17.12 203.89,-14.54 204.53,-21.51"/>
</g>
<!-- Node24&#45;&gt;Node6 -->
<g id="edge47" class="edge">
<title>Node24&#45;&gt;Node6</title>
<path fill="none" stroke="#63b8ff" d="M554.21,-321.14C756.58,-317.32 1436,-297.85 1436,-208.5 1436,-208.5 1436,-208.5 1436,-146 1436,-93.22 1382.23,-51.62 1348.55,-30.74"/>
<polygon fill="#63b8ff" stroke="#63b8ff" points="1350.5,-27.83 1340.12,-25.71 1346.91,-33.84 1350.5,-27.83"/>
</g>
<!-- Node24&#45;&gt;Node8 -->
<g id="edge48" class="edge">
<title>Node24&#45;&gt;Node8</title>
<path fill="none" stroke="#63b8ff" d="M489.37,-307.52C467.62,-272.27 407.01,-181.27 333,-132 290.53,-103.73 271.75,-113.98 224,-96 223.03,-95.64 222.05,-95.26 221.06,-94.87"/>
<polygon fill="#63b8ff" stroke="#63b8ff" points="222.42,-91.65 211.84,-91.13 219.79,-98.13 222.42,-91.65"/>
</g>
<!-- Node24&#45;&gt;Node11 -->
<g id="edge49" class="edge">
<title>Node24&#45;&gt;Node11</title>
<path fill="none" stroke="#63b8ff" d="M554.45,-314.36C583.3,-307.7 616.89,-295.24 639,-272 650.17,-260.25 654.8,-242.21 656.71,-228.35"/>
<polygon fill="#63b8ff" stroke="#63b8ff" points="660.17,-228.9 657.65,-218.61 653.2,-228.22 660.17,-228.9"/>
</g>
<!-- Node24&#45;&gt;Node23 -->
<g id="edge50" class="edge">
<title>Node24&#45;&gt;Node23</title>
<path fill="none" stroke="#63b8ff" d="M497.92,-307.76C497.75,-278.45 497.36,-210.99 497.15,-173.79"/>
<polygon fill="#63b8ff" stroke="#63b8ff" points="500.65,-173.93 497.09,-163.95 493.65,-173.97 500.65,-173.93"/>
</g>
<!-- Node25 -->
<g id="node25" class="node">
<title>Node25</title>
<g id="a_node25"><a xlink:href="../../d9/da0/flags_8h.html" target="_top" xlink:title=" ">
<polygon fill="white" stroke="#666666" points="629.5,-272 526.5,-272 526.5,-253 629.5,-253 629.5,-272"/>
<text text-anchor="middle" x="578" y="-260" font-family="Helvetica,sans-Serif" font-size="10.00">containers/flags.h</text>
</a>
</g>
</g>
<!-- Node24&#45;&gt;Node25 -->
<g id="edge51" class="edge">
<title>Node24&#45;&gt;Node25</title>
<path fill="none" stroke="#63b8ff" d="M517.78,-307.54C529.75,-298.78 545.01,-287.63 557.17,-278.73"/>
<polygon fill="#63b8ff" stroke="#63b8ff" points="558.91,-281.8 564.91,-273.07 554.78,-276.15 558.91,-281.8"/>
</g>
<!-- Node25&#45;&gt;Node5 -->
<g id="edge52" class="edge">
<title>Node25&#45;&gt;Node5</title>
<path fill="none" stroke="#63b8ff" d="M563.11,-252.51C508.32,-219.39 320.47,-105.63 309,-96 286.41,-77.04 264.52,-50.81 251.16,-33.63"/>
<polygon fill="#63b8ff" stroke="#63b8ff" points="254.1,-31.72 245.25,-25.89 248.53,-35.96 254.1,-31.72"/>
</g>
<!-- Node25&#45;&gt;Node6 -->
<g id="edge53" class="edge">
<title>Node25&#45;&gt;Node6</title>
<path fill="none" stroke="#63b8ff" d="M629.95,-261.74C791.89,-262.05 1280.02,-259.42 1336,-217 1391.16,-175.21 1401.11,-129.67 1374,-66 1368.08,-52.1 1356.19,-40.19 1345.27,-31.49"/>
<polygon fill="#63b8ff" stroke="#63b8ff" points="1347.44,-28.74 1337.32,-25.6 1343.27,-34.36 1347.44,-28.74"/>
</g>
<!-- Node25&#45;&gt;Node11 -->
<g id="edge54" class="edge">
<title>Node25&#45;&gt;Node11</title>
<path fill="none" stroke="#63b8ff" d="M591.57,-252.51C603.48,-244.62 621.05,-232.98 635.13,-223.65"/>
<polygon fill="#63b8ff" stroke="#63b8ff" points="636.96,-226.63 643.37,-218.19 633.1,-220.8 636.96,-226.63"/>
</g>
</g>
</svg>
        <g id="navigator" transform="translate(0 0)" fill="#404254">
                <rect fill="#f2f5e9" fill-opacity="0.5" stroke="#606060" stroke-width=".5" x="0" y="0" width="60" height="60"/>
                <use id="zoomplus" xlink:href="#zoomPlus" x="17" y="9" onmousedown="handleZoom(evt,'in')"/>
                <use id="zoomminus" xlink:href="#zoomMin" x="42" y="9" onmousedown="handleZoom(evt,'out')"/>
                <use id="reset" xlink:href="#resetDef" x="30" y="36" onmousedown="handleReset()"/>
                <g id="arrowUp" xlink:href="#dirArrow" transform="translate(30 24)" onmousedown="handlePan(0,-1)">
                  <use xlink:href="#rim" fill="#404040">
                        <set attributeName="fill" to="#808080" begin="arrowUp.mouseover" end="arrowUp.mouseout"/>
                  </use>
                  <path fill="none" stroke="white" stroke-width="1.5" d="M0,-3.0v7 M-2.5,-0.5L0,-3.0L2.5,-0.5"/>
                </g>
                <g id="arrowRight" xlink:href="#dirArrow" transform="rotate(90) translate(36 -43)" onmousedown="handlePan(1,0)">
                  <use xlink:href="#rim" fill="#404040">
                        <set attributeName="fill" to="#808080" begin="arrowRight.mouseover" end="arrowRight.mouseout"/>
                  </use>
                  <path fill="none" stroke="white" stroke-width="1.5" d="M0,-3.0v7 M-2.5,-0.5L0,-3.0L2.5,-0.5"/>
                </g>
                <g id="arrowDown" xlink:href="#dirArrow" transform="rotate(180) translate(-30 -48)" onmousedown="handlePan(0,1)">
                  <use xlink:href="#rim" fill="#404040">
                        <set attributeName="fill" to="#808080" begin="arrowDown.mouseover" end="arrowDown.mouseout"/>
                  </use>
                  <path fill="none" stroke="white" stroke-width="1.5" d="M0,-3.0v7 M-2.5,-0.5L0,-3.0L2.5,-0.5"/>
                </g>
                <g id="arrowLeft" xlink:href="#dirArrow" transform="rotate(270) translate(-36 17)" onmousedown="handlePan(-1,0)">
                  <use xlink:href="#rim" fill="#404040">
                        <set attributeName="fill" to="#808080" begin="arrowLeft.mouseover" end="arrowLeft.mouseout"/>
                  </use>
                  <path fill="none" stroke="white" stroke-width="1.5" d="M0,-3.0v7 M-2.5,-0.5L0,-3.0L2.5,-0.5"/>
                </g>
        </g>
        <svg viewBox="0 0 15 15" width="100%" height="30px" preserveAspectRatio="xMaxYMin meet">
         <g id="arrow_out" transform="scale(0.3 0.3)">
          <a xlink:href="timer_8cpp__incl_org.svg" target="_base">
           <rect id="button" ry="5" rx="5" y="6" x="6" height="38" width="38"
                fill="#f2f5e9" fill-opacity="0.5" stroke="#606060" stroke-width="1.0"/>
           <path id="arrow"
             d="M 11.500037,31.436501 C 11.940474,20.09759 22.043105,11.32322 32.158766,21.979434 L 37.068811,17.246167 C 37.068811,17.246167 37.088388,32 37.088388,32 L 22.160133,31.978069 C 22.160133,31.978069 26.997745,27.140456 26.997745,27.140456 C 18.528582,18.264221 13.291696,25.230495 11.500037,31.436501 z"
             style="fill:#404040;"/>
          </a>
         </g>
        </svg>
</svg>
