<?xml version="1.0" encoding="UTF-8" standalone="no"?>
<!DOCTYPE svg PUBLIC "-//W3C//DTD SVG 1.1//EN"
 "http://www.w3.org/Graphics/SVG/1.1/DTD/svg11.dtd">
<!-- Generated by graphviz version 2.43.0 (0)
 -->
<!-- Title: /home/runner/work/Documentation/Documentation/master/kratos/containers/container_expression/container_data_io.h Pages: 1 -->
<!--zoomable 517 -->
<svg id="main" version="1.1" xmlns="http://www.w3.org/2000/svg" xmlns:xlink="http://www.w3.org/1999/xlink" xml:space="preserve" onload="init(evt)">
<style type="text/css"><![CDATA[
.edge:hover path { stroke: red; }
.edge:hover polygon { stroke: red; fill: red; }
]]></style>
<script type="text/javascript"><![CDATA[
var edges = document.getElementsByTagName('g');
if (edges && edges.length) {
  for (var i=0;i<edges.length;i++) {
    if (edges[i].id.substr(0,4)=='edge') {
      edges[i].setAttribute('class','edge');
    }
  }
}
]]></script>
        <defs>
                <circle id="rim" cx="0" cy="0" r="7"/>
                <circle id="rim2" cx="0" cy="0" r="3.5"/>
                <g id="zoomPlus">
                        <use xlink:href="#rim" fill="#404040">
                                <set attributeName="fill" to="#808080" begin="zoomplus.mouseover" end="zoomplus.mouseout"/>
                        </use>
                        <path d="M-4,0h8M0,-4v8" fill="none" stroke="white" stroke-width="1.5" pointer-events="none"/>
                </g>
                <g id="zoomMin">
                        <use xlink:href="#rim" fill="#404040">
                                <set attributeName="fill" to="#808080" begin="zoomminus.mouseover" end="zoomminus.mouseout"/>
                        </use>
                        <path d="M-4,0h8" fill="none" stroke="white" stroke-width="1.5" pointer-events="none"/>
                </g>
                <g id="dirArrow">
                        <path fill="none" stroke="white" stroke-width="1.5" d="M0,-3.0v7 M-2.5,-0.5L0,-3.0L2.5,-0.5"/>
                </g>
               <g id="resetDef">
                       <use xlink:href="#rim2" fill="#404040">
                               <set attributeName="fill" to="#808080" begin="reset.mouseover" end="reset.mouseout"/>
                       </use>
               </g>
        </defs>

<script type="text/javascript">
var viewWidth = 880;
var viewHeight = 517;
var sectionId = 'dynsection-1';
</script>
<script xlink:href="../../svgpan.js"/>
<svg id="graph" class="graph">
<g id="viewport">
<title>/home/runner/work/Documentation/Documentation/master/kratos/containers/container_expression/container_data_io.h</title>
<!-- Node1 -->
<g id="node1" class="node">
<title>Node1</title>
<g id="a_node1"><a xlink:title=" ">
<polygon fill="#bfbfbf" stroke="black" points="360.96,-456.5 360.96,-508.5 547.96,-508.5 547.96,-456.5 360.96,-456.5"/>
<text text-anchor="start" x="368.96" y="-496.5" font-family="Helvetica,sans-Serif" font-size="10.00">/home/runner/work/Documentation</text>
<text text-anchor="start" x="368.96" y="-485.5" font-family="Helvetica,sans-Serif" font-size="10.00">/Documentation/master/kratos</text>
<text text-anchor="start" x="368.96" y="-474.5" font-family="Helvetica,sans-Serif" font-size="10.00">/containers/container_expression</text>
<text text-anchor="middle" x="454.46" y="-463.5" font-family="Helvetica,sans-Serif" font-size="10.00">/container_data_io.h</text>
</a>
</g>
</g>
<!-- Node2 -->
<g id="node2" class="node">
<title>Node2</title>
<g id="a_node2"><a xlink:href="../../d1/d91/specialized__container__expression__impl_8h.html" target="_top" xlink:title=" ">
<polygon fill="none" stroke="black" points="344.46,-367.5 344.46,-419.5 564.46,-419.5 564.46,-367.5 344.46,-367.5"/>
<text text-anchor="start" x="352.46" y="-407.5" font-family="Helvetica,sans-Serif" font-size="10.00">/home/runner/work/Documentation</text>
<text text-anchor="start" x="352.46" y="-396.5" font-family="Helvetica,sans-Serif" font-size="10.00">/Documentation/master/kratos</text>
<text text-anchor="start" x="352.46" y="-385.5" font-family="Helvetica,sans-Serif" font-size="10.00">/containers/container_expression</text>
<text text-anchor="middle" x="454.46" y="-374.5" font-family="Helvetica,sans-Serif" font-size="10.00">/specialized_container_expression_impl.h</text>
</a>
</g>
</g>
<!-- Node1&#45;&gt;Node2 -->
<g id="edge1" class="edge">
<title>Node1&#45;&gt;Node2</title>
<path fill="none" stroke="midnightblue" d="M454.46,-446.19C454.46,-437.28 454.46,-427.9 454.46,-419.61"/>
<polygon fill="midnightblue" stroke="midnightblue" points="450.96,-446.34 454.46,-456.34 457.96,-446.34 450.96,-446.34"/>
</g>
<!-- Node4 -->
<g id="node4" class="node">
<title>Node4</title>
<g id="a_node4"><a xlink:href="../../d9/d93/add__container__expression__to__python_8cpp.html" target="_top" xlink:title=" ">
<polygon fill="none" stroke="black" points="551.96,-100.5 551.96,-152.5 738.96,-152.5 738.96,-100.5 551.96,-100.5"/>
<text text-anchor="start" x="559.96" y="-140.5" font-family="Helvetica,sans-Serif" font-size="10.00">/home/runner/work/Documentation</text>
<text text-anchor="start" x="559.96" y="-129.5" font-family="Helvetica,sans-Serif" font-size="10.00">/Documentation/master/kratos</text>
<text text-anchor="start" x="559.96" y="-118.5" font-family="Helvetica,sans-Serif" font-size="10.00">/python/add_container_expression</text>
<text text-anchor="middle" x="645.46" y="-107.5" font-family="Helvetica,sans-Serif" font-size="10.00">_to_python.cpp</text>
</a>
</g>
</g>
<!-- Node1&#45;&gt;Node4 -->
<g id="edge15" class="edge">
<title>Node1&#45;&gt;Node4</title>
<path fill="none" stroke="midnightblue" d="M535.69,-451.52C549.93,-443.17 563.39,-432.78 573.46,-420 637.73,-338.48 645.62,-207.52 645.92,-152.8"/>
<polygon fill="midnightblue" stroke="midnightblue" points="533.81,-448.56 526.74,-456.46 537.19,-454.69 533.81,-448.56"/>
</g>
<!-- Node7 -->
<g id="node7" class="node">
<title>Node7</title>
<g id="a_node7"><a xlink:href="../../db/d94/collective__expressions_8h.html" target="_top" xlink:title=" ">
<polygon fill="none" stroke="black" points="44.46,-189.5 44.46,-241.5 238.46,-241.5 238.46,-189.5 44.46,-189.5"/>
<text text-anchor="start" x="52.46" y="-229.5" font-family="Helvetica,sans-Serif" font-size="10.00">/home/runner/work/Documentation</text>
<text text-anchor="start" x="52.46" y="-218.5" font-family="Helvetica,sans-Serif" font-size="10.00">/Documentation/master/applications</text>
<text text-anchor="start" x="52.46" y="-207.5" font-family="Helvetica,sans-Serif" font-size="10.00">/OptimizationApplication/custom</text>
<text text-anchor="middle" x="141.46" y="-196.5" font-family="Helvetica,sans-Serif" font-size="10.00">_utilities/collective_expressions.h</text>
</a>
</g>
</g>
<!-- Node1&#45;&gt;Node7 -->
<g id="edge16" class="edge">
<title>Node1&#45;&gt;Node7</title>
<path fill="none" stroke="midnightblue" d="M380.52,-451.84C364.46,-443.17 348.42,-432.57 335.46,-420 283.61,-369.72 307.95,-328.64 256.46,-278 241.45,-263.24 222.17,-251.08 203.7,-241.59"/>
<polygon fill="midnightblue" stroke="midnightblue" points="378.94,-454.96 389.43,-456.46 382.16,-448.75 378.94,-454.96"/>
</g>
<!-- Node10 -->
<g id="node10" class="node">
<title>Node10</title>
<g id="a_node10"><a xlink:href="../../df/d38/container__expression__utils_8cpp.html" target="_top" xlink:title=" ">
<polygon fill="none" stroke="black" points="660.46,-6 660.46,-58 872.46,-58 872.46,-6 660.46,-6"/>
<text text-anchor="start" x="668.46" y="-46" font-family="Helvetica,sans-Serif" font-size="10.00">/home/runner/work/Documentation</text>
<text text-anchor="start" x="668.46" y="-35" font-family="Helvetica,sans-Serif" font-size="10.00">/Documentation/master/applications</text>
<text text-anchor="start" x="668.46" y="-24" font-family="Helvetica,sans-Serif" font-size="10.00">/OptimizationApplication/custom</text>
<text text-anchor="middle" x="766.46" y="-13" font-family="Helvetica,sans-Serif" font-size="10.00">_utilities/container_expression_utils.cpp</text>
</a>
</g>
</g>
<!-- Node1&#45;&gt;Node10 -->
<g id="edge17" class="edge">
<title>Node1&#45;&gt;Node10</title>
<path fill="none" stroke="midnightblue" d="M558.42,-472.74C661.6,-457.68 804.46,-416.74 804.46,-305.5 804.46,-305.5 804.46,-305.5 804.46,-214.5 804.46,-157.68 786.4,-92.93 775.18,-58.2"/>
<polygon fill="midnightblue" stroke="midnightblue" points="557.67,-469.31 548.25,-474.16 558.64,-476.24 557.67,-469.31"/>
</g>
<!-- Node11 -->
<g id="node11" class="node">
<title>Node11</title>
<g id="a_node11"><a xlink:href="../../d3/d56/container__properties__data__io_8h.html" target="_top" xlink:title=" ">
<polygon fill="none" stroke="black" points="35.46,-278.5 35.46,-330.5 247.46,-330.5 247.46,-278.5 35.46,-278.5"/>
<text text-anchor="start" x="43.46" y="-318.5" font-family="Helvetica,sans-Serif" font-size="10.00">/home/runner/work/Documentation</text>
<text text-anchor="start" x="43.46" y="-307.5" font-family="Helvetica,sans-Serif" font-size="10.00">/Documentation/master/applications</text>
<text text-anchor="start" x="43.46" y="-296.5" font-family="Helvetica,sans-Serif" font-size="10.00">/OptimizationApplication/custom</text>
<text text-anchor="middle" x="141.46" y="-285.5" font-family="Helvetica,sans-Serif" font-size="10.00">_utilities/container_properties_data_io.h</text>
</a>
</g>
</g>
<!-- Node1&#45;&gt;Node11 -->
<g id="edge18" class="edge">
<title>Node1&#45;&gt;Node11</title>
<path fill="none" stroke="midnightblue" d="M351.15,-456.38C322.64,-447.17 292.43,-435.18 266.46,-420 225.3,-395.94 186.17,-356.48 162.99,-330.75"/>
<polygon fill="midnightblue" stroke="midnightblue" points="350.15,-459.73 360.74,-459.4 352.25,-453.06 350.15,-459.73"/>
</g>
<!-- Node3 -->
<g id="node3" class="node">
<title>Node3</title>
<g id="a_node3"><a xlink:href="../../db/d19/specialized__container__expression_8h.html" target="_top" xlink:title=" ">
<polygon fill="none" stroke="black" points="357.96,-278.5 357.96,-330.5 550.96,-330.5 550.96,-278.5 357.96,-278.5"/>
<text text-anchor="start" x="365.96" y="-318.5" font-family="Helvetica,sans-Serif" font-size="10.00">/home/runner/work/Documentation</text>
<text text-anchor="start" x="365.96" y="-307.5" font-family="Helvetica,sans-Serif" font-size="10.00">/Documentation/master/kratos</text>
<text text-anchor="start" x="365.96" y="-296.5" font-family="Helvetica,sans-Serif" font-size="10.00">/containers/container_expression</text>
<text text-anchor="middle" x="454.46" y="-285.5" font-family="Helvetica,sans-Serif" font-size="10.00">/specialized_container_expression.h</text>
</a>
</g>
</g>
<!-- Node2&#45;&gt;Node3 -->
<g id="edge2" class="edge">
<title>Node2&#45;&gt;Node3</title>
<path fill="none" stroke="midnightblue" d="M454.46,-357.19C454.46,-348.28 454.46,-338.9 454.46,-330.61"/>
<polygon fill="midnightblue" stroke="midnightblue" points="450.96,-357.34 454.46,-367.34 457.96,-357.34 450.96,-357.34"/>
</g>
<!-- Node3&#45;&gt;Node4 -->
<g id="edge3" class="edge">
<title>Node3&#45;&gt;Node4</title>
<path fill="none" stroke="midnightblue" d="M513.76,-273.27C528.8,-264.25 544.39,-253.63 557.46,-242 587.25,-215.51 613.98,-177.76 629.96,-152.95"/>
<polygon fill="midnightblue" stroke="midnightblue" points="511.86,-270.32 504.99,-278.39 515.39,-276.37 511.86,-270.32"/>
</g>
<!-- Node5 -->
<g id="node5" class="node">
<title>Node5</title>
<g id="a_node5"><a xlink:href="../../db/d1d/add__container__expression__to__python__utils_8h.html" target="_top" xlink:title=" ">
<polygon fill="none" stroke="black" points="360.96,-189.5 360.96,-241.5 547.96,-241.5 547.96,-189.5 360.96,-189.5"/>
<text text-anchor="start" x="368.96" y="-229.5" font-family="Helvetica,sans-Serif" font-size="10.00">/home/runner/work/Documentation</text>
<text text-anchor="start" x="368.96" y="-218.5" font-family="Helvetica,sans-Serif" font-size="10.00">/Documentation/master/kratos</text>
<text text-anchor="start" x="368.96" y="-207.5" font-family="Helvetica,sans-Serif" font-size="10.00">/python/add_container_expression</text>
<text text-anchor="middle" x="454.46" y="-196.5" font-family="Helvetica,sans-Serif" font-size="10.00">_to_python_utils.h</text>
</a>
</g>
</g>
<!-- Node3&#45;&gt;Node5 -->
<g id="edge4" class="edge">
<title>Node3&#45;&gt;Node5</title>
<path fill="none" stroke="midnightblue" d="M454.46,-268.19C454.46,-259.28 454.46,-249.9 454.46,-241.61"/>
<polygon fill="midnightblue" stroke="midnightblue" points="450.96,-268.34 454.46,-278.34 457.96,-268.34 450.96,-268.34"/>
</g>
<!-- Node6 -->
<g id="node6" class="node">
<title>Node6</title>
<g id="a_node6"><a xlink:href="../../d4/d97/_optimization_application_2custom__python_2add__custom__utilities__to__python_8cpp.html" target="_top" xlink:title=" ">
<polygon fill="none" stroke="black" points="169.46,-0.5 169.46,-63.5 363.46,-63.5 363.46,-0.5 169.46,-0.5"/>
<text text-anchor="start" x="177.46" y="-51.5" font-family="Helvetica,sans-Serif" font-size="10.00">/home/runner/work/Documentation</text>
<text text-anchor="start" x="177.46" y="-40.5" font-family="Helvetica,sans-Serif" font-size="10.00">/Documentation/master/applications</text>
<text text-anchor="start" x="177.46" y="-29.5" font-family="Helvetica,sans-Serif" font-size="10.00">/OptimizationApplication/custom</text>
<text text-anchor="start" x="177.46" y="-18.5" font-family="Helvetica,sans-Serif" font-size="10.00">_python/add_custom_utilities_to</text>
<text text-anchor="middle" x="266.46" y="-7.5" font-family="Helvetica,sans-Serif" font-size="10.00">_python.cpp</text>
</a>
</g>
</g>
<!-- Node3&#45;&gt;Node6 -->
<g id="edge7" class="edge">
<title>Node3&#45;&gt;Node6</title>
<path fill="none" stroke="midnightblue" d="M395.67,-273.28C380.78,-264.26 365.36,-253.64 352.46,-242 315.7,-208.83 304.79,-198.58 285.46,-153 273.27,-124.26 268.82,-88.64 267.24,-63.71"/>
<polygon fill="midnightblue" stroke="midnightblue" points="393.96,-276.34 404.36,-278.4 397.52,-270.31 393.96,-276.34"/>
</g>
<!-- Node3&#45;&gt;Node7 -->
<g id="edge8" class="edge">
<title>Node3&#45;&gt;Node7</title>
<path fill="none" stroke="midnightblue" d="M354.69,-275.77C315.14,-264.78 270.01,-252.23 231.48,-241.52"/>
<polygon fill="midnightblue" stroke="midnightblue" points="353.77,-279.15 364.35,-278.45 355.65,-272.4 353.77,-279.15"/>
</g>
<!-- Node3&#45;&gt;Node10 -->
<g id="edge14" class="edge">
<title>Node3&#45;&gt;Node10</title>
<path fill="none" stroke="midnightblue" d="M560.75,-277.12C625.95,-255.13 705.01,-216.81 748.46,-153 767.67,-124.79 769.77,-84.23 768.73,-58.25"/>
<polygon fill="midnightblue" stroke="midnightblue" points="559.64,-273.8 551.24,-280.25 561.83,-280.45 559.64,-273.8"/>
</g>
<!-- Node5&#45;&gt;Node4 -->
<g id="edge5" class="edge">
<title>Node5&#45;&gt;Node4</title>
<path fill="none" stroke="midnightblue" d="M518.58,-185.29C541.91,-174.67 568.06,-162.76 590.53,-152.52"/>
<polygon fill="midnightblue" stroke="midnightblue" points="517.1,-182.12 509.45,-189.45 520,-188.49 517.1,-182.12"/>
</g>
<!-- Node5&#45;&gt;Node6 -->
<g id="edge6" class="edge">
<title>Node5&#45;&gt;Node6</title>
<path fill="none" stroke="midnightblue" d="M370.26,-184.97C353.71,-176.47 337.47,-165.91 324.46,-153 299.32,-128.07 283.51,-90.08 274.86,-63.54"/>
<polygon fill="midnightblue" stroke="midnightblue" points="368.94,-188.22 379.46,-189.48 372.02,-181.93 368.94,-188.22"/>
</g>
<!-- Node7&#45;&gt;Node6 -->
<g id="edge9" class="edge">
<title>Node7&#45;&gt;Node6</title>
<path fill="none" stroke="midnightblue" d="M65.74,-184.09C53.62,-175.83 42.71,-165.58 35.46,-153 23.7,-132.59 21.31,-118.83 35.46,-100 52.14,-77.8 113.84,-60.58 169.27,-49.16"/>
<polygon fill="midnightblue" stroke="midnightblue" points="63.96,-187.11 74.29,-189.49 67.71,-181.19 63.96,-187.11"/>
</g>
<!-- Node8 -->
<g id="node8" class="node">
<title>Node8</title>
<g id="a_node8"><a xlink:href="../../d5/de7/collective__expressions_8cpp.html" target="_top" xlink:title=" ">
<polygon fill="none" stroke="black" points="44.46,-100.5 44.46,-152.5 238.46,-152.5 238.46,-100.5 44.46,-100.5"/>
<text text-anchor="start" x="52.46" y="-140.5" font-family="Helvetica,sans-Serif" font-size="10.00">/home/runner/work/Documentation</text>
<text text-anchor="start" x="52.46" y="-129.5" font-family="Helvetica,sans-Serif" font-size="10.00">/Documentation/master/applications</text>
<text text-anchor="start" x="52.46" y="-118.5" font-family="Helvetica,sans-Serif" font-size="10.00">/OptimizationApplication/custom</text>
<text text-anchor="middle" x="141.46" y="-107.5" font-family="Helvetica,sans-Serif" font-size="10.00">_utilities/collective_expressions.cpp</text>
</a>
</g>
</g>
<!-- Node7&#45;&gt;Node8 -->
<g id="edge10" class="edge">
<title>Node7&#45;&gt;Node8</title>
<path fill="none" stroke="midnightblue" d="M141.46,-179.19C141.46,-170.28 141.46,-160.9 141.46,-152.61"/>
<polygon fill="midnightblue" stroke="midnightblue" points="137.96,-179.34 141.46,-189.34 144.96,-179.34 137.96,-179.34"/>
</g>
<!-- Node9 -->
<g id="node9" class="node">
<title>Node9</title>
<g id="a_node9"><a xlink:href="../../d3/d9c/container__expression__utils_8h.html" target="_top" xlink:title=" ">
<polygon fill="none" stroke="black" points="332.96,-100.5 332.96,-152.5 533.96,-152.5 533.96,-100.5 332.96,-100.5"/>
<text text-anchor="start" x="340.96" y="-140.5" font-family="Helvetica,sans-Serif" font-size="10.00">/home/runner/work/Documentation</text>
<text text-anchor="start" x="340.96" y="-129.5" font-family="Helvetica,sans-Serif" font-size="10.00">/Documentation/master/applications</text>
<text text-anchor="start" x="340.96" y="-118.5" font-family="Helvetica,sans-Serif" font-size="10.00">/OptimizationApplication/custom</text>
<text text-anchor="middle" x="433.46" y="-107.5" font-family="Helvetica,sans-Serif" font-size="10.00">_utilities/container_expression_utils.h</text>
</a>
</g>
</g>
<!-- Node7&#45;&gt;Node9 -->
<g id="edge11" class="edge">
<title>Node7&#45;&gt;Node9</title>
<path fill="none" stroke="midnightblue" d="M235.24,-186.56C271.96,-175.62 313.76,-163.16 349.48,-152.52"/>
<polygon fill="midnightblue" stroke="midnightblue" points="234.11,-183.24 225.53,-189.45 236.11,-189.95 234.11,-183.24"/>
</g>
<!-- Node9&#45;&gt;Node6 -->
<g id="edge12" class="edge">
<title>Node9&#45;&gt;Node6</title>
<path fill="none" stroke="midnightblue" d="M379.41,-95.56C360.98,-85.35 340.35,-73.93 321.82,-63.66"/>
<polygon fill="midnightblue" stroke="midnightblue" points="377.82,-98.68 388.27,-100.47 381.22,-92.56 377.82,-98.68"/>
</g>
<!-- Node9&#45;&gt;Node10 -->
<g id="edge13" class="edge">
<title>Node9&#45;&gt;Node10</title>
<path fill="none" stroke="midnightblue" d="M533.43,-97.73C578.83,-85.12 632.12,-70.32 676.27,-58.05"/>
<polygon fill="midnightblue" stroke="midnightblue" points="532.27,-94.42 523.57,-100.47 534.15,-101.16 532.27,-94.42"/>
</g>
<!-- Node11&#45;&gt;Node6 -->
<g id="edge19" class="edge">
<title>Node11&#45;&gt;Node6</title>
<path fill="none" stroke="midnightblue" d="M68.27,-272.91C55.61,-264.6 43.84,-254.38 35.46,-242 -0.07,-189.52 -15.96,-150.4 22.46,-100 40.7,-76.07 109.3,-58.56 169.13,-47.46"/>
<polygon fill="midnightblue" stroke="midnightblue" points="66.8,-276.11 77.16,-278.36 70.46,-270.15 66.8,-276.11"/>
</g>
<!-- Node11&#45;&gt;Node7 -->
<g id="edge20" class="edge">
<title>Node11&#45;&gt;Node7</title>
<path fill="none" stroke="midnightblue" d="M141.46,-268.19C141.46,-259.28 141.46,-249.9 141.46,-241.61"/>
<polygon fill="midnightblue" stroke="midnightblue" points="137.96,-268.34 141.46,-278.34 144.96,-268.34 137.96,-268.34"/>
</g>
</g>
</svg>
        <g id="navigator" transform="translate(0 0)" fill="#404254">
                <rect fill="#f2f5e9" fill-opacity="0.5" stroke="#606060" stroke-width=".5" x="0" y="0" width="60" height="60"/>
                <use id="zoomplus" xlink:href="#zoomPlus" x="17" y="9" onmousedown="handleZoom(evt,'in')"/>
                <use id="zoomminus" xlink:href="#zoomMin" x="42" y="9" onmousedown="handleZoom(evt,'out')"/>
                <use id="reset" xlink:href="#resetDef" x="30" y="36" onmousedown="handleReset()"/>
                <g id="arrowUp" xlink:href="#dirArrow" transform="translate(30 24)" onmousedown="handlePan(0,-1)">
                  <use xlink:href="#rim" fill="#404040">
                        <set attributeName="fill" to="#808080" begin="arrowUp.mouseover" end="arrowUp.mouseout"/>
                  </use>
                  <path fill="none" stroke="white" stroke-width="1.5" d="M0,-3.0v7 M-2.5,-0.5L0,-3.0L2.5,-0.5"/>
                </g>
                <g id="arrowRight" xlink:href="#dirArrow" transform="rotate(90) translate(36 -43)" onmousedown="handlePan(1,0)">
                  <use xlink:href="#rim" fill="#404040">
                        <set attributeName="fill" to="#808080" begin="arrowRight.mouseover" end="arrowRight.mouseout"/>
                  </use>
                  <path fill="none" stroke="white" stroke-width="1.5" d="M0,-3.0v7 M-2.5,-0.5L0,-3.0L2.5,-0.5"/>
                </g>
                <g id="arrowDown" xlink:href="#dirArrow" transform="rotate(180) translate(-30 -48)" onmousedown="handlePan(0,1)">
                  <use xlink:href="#rim" fill="#404040">
                        <set attributeName="fill" to="#808080" begin="arrowDown.mouseover" end="arrowDown.mouseout"/>
                  </use>
                  <path fill="none" stroke="white" stroke-width="1.5" d="M0,-3.0v7 M-2.5,-0.5L0,-3.0L2.5,-0.5"/>
                </g>
                <g id="arrowLeft" xlink:href="#dirArrow" transform="rotate(270) translate(-36 17)" onmousedown="handlePan(-1,0)">
                  <use xlink:href="#rim" fill="#404040">
                        <set attributeName="fill" to="#808080" begin="arrowLeft.mouseover" end="arrowLeft.mouseout"/>
                  </use>
                  <path fill="none" stroke="white" stroke-width="1.5" d="M0,-3.0v7 M-2.5,-0.5L0,-3.0L2.5,-0.5"/>
                </g>
        </g>
        <svg viewBox="0 0 15 15" width="100%" height="30px" preserveAspectRatio="xMaxYMin meet">
         <g id="arrow_out" transform="scale(0.3 0.3)">
          <a xlink:href="container__data__io_8h__dep__incl_org.svg" target="_base">
           <rect id="button" ry="5" rx="5" y="6" x="6" height="38" width="38"
                fill="#f2f5e9" fill-opacity="0.5" stroke="#606060" stroke-width="1.0"/>
           <path id="arrow"
             d="M 11.500037,31.436501 C 11.940474,20.09759 22.043105,11.32322 32.158766,21.979434 L 37.068811,17.246167 C 37.068811,17.246167 37.088388,32 37.088388,32 L 22.160133,31.978069 C 22.160133,31.978069 26.997745,27.140456 26.997745,27.140456 C 18.528582,18.264221 13.291696,25.230495 11.500037,31.436501 z"
             style="fill:#404040;"/>
          </a>
         </g>
        </svg>
</svg>
