<?xml version="1.0" encoding="UTF-8" standalone="no"?>
<!DOCTYPE svg PUBLIC "-//W3C//DTD SVG 1.1//EN"
 "http://www.w3.org/Graphics/SVG/1.1/DTD/svg11.dtd">
<!-- Generated by graphviz version 7.1.0 (0)
 -->
<!-- Title: /software/kratos/doxygen/applications/DEMApplication/custom_constitutive/DEM_KDEM_with_damage_parallel_bond_Hertz_CL.h Pages: 1 -->
<!--zoomable 247 -->
<svg id="main" version="1.1" xmlns="http://www.w3.org/2000/svg" xmlns:xlink="http://www.w3.org/1999/xlink" xml:space="preserve" onload="init(evt)">
<style type="text/css"><![CDATA[
.edge:hover path { stroke: red; }
.edge:hover polygon { stroke: red; fill: red; }
]]></style>
<script type="text/javascript"><![CDATA[
var edges = document.getElementsByTagName('g');
if (edges && edges.length) {
  for (var i=0;i<edges.length;i++) {
    if (edges[i].id.substr(0,4)=='edge') {
      edges[i].setAttribute('class','edge');
    }
  }
}
]]></script>
        <defs>
                <circle id="rim" cx="0" cy="0" r="7"/>
                <circle id="rim2" cx="0" cy="0" r="3.5"/>
                <g id="zoomPlus">
                        <use xlink:href="#rim" fill="#404040">
                                <set attributeName="fill" to="#808080" begin="zoomplus.mouseover" end="zoomplus.mouseout"/>
                        </use>
                        <path d="M-4,0h8M0,-4v8" fill="none" stroke="white" stroke-width="1.5" pointer-events="none"/>
                </g>
                <g id="zoomMin">
                        <use xlink:href="#rim" fill="#404040">
                                <set attributeName="fill" to="#808080" begin="zoomminus.mouseover" end="zoomminus.mouseout"/>
                        </use>
                        <path d="M-4,0h8" fill="none" stroke="white" stroke-width="1.5" pointer-events="none"/>
                </g>
                <g id="dirArrow">
                        <path fill="none" stroke="white" stroke-width="1.5" d="M0,-3.0v7 M-2.5,-0.5L0,-3.0L2.5,-0.5"/>
                </g>
               <g id="resetDef">
                       <use xlink:href="#rim2" fill="#404040">
                               <set attributeName="fill" to="#808080" begin="reset.mouseover" end="reset.mouseout"/>
                       </use>
               </g>
        </defs>

<script type="text/javascript">
var viewWidth = 584;
var viewHeight = 247;
var sectionId = 'dynsection-1';
</script>
<script xlink:href="../../svgpan.js"/>
<svg id="graph" class="graph">
<g id="viewport">
<title>/software/kratos/doxygen/applications/DEMApplication/custom_constitutive/DEM_KDEM_with_damage_parallel_bond_Hertz_CL.h</title>
<!-- Node1 -->
<g id="node1" class="node">
<title>Node1</title>
<g id="a_node1"><a xlink:title=" ">
<polygon fill="#999999" stroke="#666666" points="428,-239 211,-239 211,-187 428,-187 428,-239"/>
<text text-anchor="start" x="219" y="-227" font-family="Helvetica,sans-Serif" font-size="10.00">/software/kratos/doxygen</text>
<text text-anchor="start" x="219" y="-216" font-family="Helvetica,sans-Serif" font-size="10.00">/applications/DEMApplication</text>
<text text-anchor="start" x="219" y="-205" font-family="Helvetica,sans-Serif" font-size="10.00">/custom_constitutive/DEM_KDEM</text>
<text text-anchor="middle" x="319.5" y="-194" font-family="Helvetica,sans-Serif" font-size="10.00">_with_damage_parallel_bond_Hertz_CL.h</text>
</a>
</g>
</g>
<!-- Node2 -->
<g id="node2" class="node">
<title>Node2</title>
<g id="a_node2"><a xlink:href="../../d1/d3f/_d_e_m___k_d_e_m__with__damage__parallel__bond___hertz__2_d___c_l_8h.html" target="_top" xlink:title=" ">
<polygon fill="white" stroke="#666666" points="291.5,-151 55.5,-151 55.5,-99 291.5,-99 291.5,-151"/>
<text text-anchor="start" x="63.5" y="-139" font-family="Helvetica,sans-Serif" font-size="10.00">/software/kratos/doxygen</text>
<text text-anchor="start" x="63.5" y="-128" font-family="Helvetica,sans-Serif" font-size="10.00">/applications/DEMApplication</text>
<text text-anchor="start" x="63.5" y="-117" font-family="Helvetica,sans-Serif" font-size="10.00">/custom_constitutive/DEM_KDEM</text>
<text text-anchor="middle" x="173.5" y="-106" font-family="Helvetica,sans-Serif" font-size="10.00">_with_damage_parallel_bond_Hertz_2D_CL.h</text>
</a>
</g>
</g>
<!-- Node1&#45;&gt;Node2 -->
<g id="edge1" class="edge">
<title>Node1&#45;&gt;Node2</title>
<path fill="none" stroke="#63b8ff" d="M266.98,-181.06C250.49,-171.35 232.48,-160.74 216.71,-151.45"/>
<polygon fill="#63b8ff" stroke="#63b8ff" points="264.79,-183.83 275.18,-185.89 268.34,-177.8 264.79,-183.83"/>
</g>
<!-- Node4 -->
<g id="node4" class="node">
<title>Node4</title>
<g id="a_node4"><a xlink:href="../../d6/d7e/_d_e_m_application_2custom__python_2add__custom__constitutive__laws__to__python_8cpp.html" target="_top" xlink:title=" ">
<polygon fill="white" stroke="#666666" points="429.5,-57.5 209.5,-57.5 209.5,-5.5 429.5,-5.5 429.5,-57.5"/>
<text text-anchor="start" x="217.5" y="-45.5" font-family="Helvetica,sans-Serif" font-size="10.00">/software/kratos/doxygen</text>
<text text-anchor="start" x="217.5" y="-34.5" font-family="Helvetica,sans-Serif" font-size="10.00">/applications/DEMApplication</text>
<text text-anchor="start" x="217.5" y="-23.5" font-family="Helvetica,sans-Serif" font-size="10.00">/custom_python/add_custom_constitutive</text>
<text text-anchor="middle" x="319.5" y="-12.5" font-family="Helvetica,sans-Serif" font-size="10.00">_laws_to_python.cpp</text>
</a>
</g>
</g>
<!-- Node1&#45;&gt;Node4 -->
<g id="edge5" class="edge">
<title>Node1&#45;&gt;Node4</title>
<path fill="none" stroke="#63b8ff" d="M319.5,-175.51C319.5,-140.56 319.5,-88.72 319.5,-58"/>
<polygon fill="#63b8ff" stroke="#63b8ff" points="316,-175.15 319.5,-185.15 323,-175.15 316,-175.15"/>
</g>
<!-- Node5 -->
<g id="node5" class="node">
<title>Node5</title>
<g id="a_node5"><a xlink:href="../../de/d5f/_d_e_m___k_d_e_m__with__damage__parallel__bond___hertz___c_l_8cpp.html" target="_top" xlink:title=" ">
<polygon fill="white" stroke="#666666" points="575.5,-151 347.5,-151 347.5,-99 575.5,-99 575.5,-151"/>
<text text-anchor="start" x="355.5" y="-139" font-family="Helvetica,sans-Serif" font-size="10.00">/software/kratos/doxygen</text>
<text text-anchor="start" x="355.5" y="-128" font-family="Helvetica,sans-Serif" font-size="10.00">/applications/DEMApplication</text>
<text text-anchor="start" x="355.5" y="-117" font-family="Helvetica,sans-Serif" font-size="10.00">/custom_constitutive/DEM_KDEM</text>
<text text-anchor="middle" x="461.5" y="-106" font-family="Helvetica,sans-Serif" font-size="10.00">_with_damage_parallel_bond_Hertz_CL.cpp</text>
</a>
</g>
</g>
<!-- Node1&#45;&gt;Node5 -->
<g id="edge4" class="edge">
<title>Node1&#45;&gt;Node5</title>
<path fill="none" stroke="#63b8ff" d="M371.03,-180.79C386.95,-171.15 404.28,-160.66 419.47,-151.45"/>
<polygon fill="#63b8ff" stroke="#63b8ff" points="369.37,-177.7 362.63,-185.88 373,-183.69 369.37,-177.7"/>
</g>
<!-- Node3 -->
<g id="node3" class="node">
<title>Node3</title>
<g id="a_node3"><a xlink:href="../../d0/d52/_d_e_m___k_d_e_m__with__damage__parallel__bond___hertz__2_d___c_l_8cpp.html" target="_top" xlink:title=" ">
<polygon fill="white" stroke="#666666" points="191,-63 0,-63 0,0 191,0 191,-63"/>
<text text-anchor="start" x="8" y="-51" font-family="Helvetica,sans-Serif" font-size="10.00">/software/kratos/doxygen</text>
<text text-anchor="start" x="8" y="-40" font-family="Helvetica,sans-Serif" font-size="10.00">/applications/DEMApplication</text>
<text text-anchor="start" x="8" y="-29" font-family="Helvetica,sans-Serif" font-size="10.00">/custom_constitutive/DEM_KDEM</text>
<text text-anchor="start" x="8" y="-18" font-family="Helvetica,sans-Serif" font-size="10.00">_with_damage_parallel_bond_Hertz</text>
<text text-anchor="middle" x="95.5" y="-7" font-family="Helvetica,sans-Serif" font-size="10.00">_2D_CL.cpp</text>
</a>
</g>
</g>
<!-- Node2&#45;&gt;Node3 -->
<g id="edge2" class="edge">
<title>Node2&#45;&gt;Node3</title>
<path fill="none" stroke="#63b8ff" d="M144.31,-89.76C136.93,-81.1 129.05,-71.86 121.82,-63.38"/>
<polygon fill="#63b8ff" stroke="#63b8ff" points="141.64,-92.02 150.79,-97.36 146.97,-87.48 141.64,-92.02"/>
</g>
<!-- Node2&#45;&gt;Node4 -->
<g id="edge3" class="edge">
<title>Node2&#45;&gt;Node4</title>
<path fill="none" stroke="#63b8ff" d="M223.43,-92.71C241.57,-81.34 261.83,-68.64 279.05,-57.85"/>
<polygon fill="#63b8ff" stroke="#63b8ff" points="222.07,-89.43 215.45,-97.71 225.78,-95.36 222.07,-89.43"/>
</g>
</g>
</svg>
        <g id="navigator" transform="translate(0 0)" fill="#404254">
                <rect fill="#f2f5e9" fill-opacity="0.5" stroke="#606060" stroke-width=".5" x="0" y="0" width="60" height="60"/>
                <use id="zoomplus" xlink:href="#zoomPlus" x="17" y="9" onmousedown="handleZoom(evt,'in')"/>
                <use id="zoomminus" xlink:href="#zoomMin" x="42" y="9" onmousedown="handleZoom(evt,'out')"/>
                <use id="reset" xlink:href="#resetDef" x="30" y="36" onmousedown="handleReset()"/>
                <g id="arrowUp" xlink:href="#dirArrow" transform="translate(30 24)" onmousedown="handlePan(0,-1)">
                  <use xlink:href="#rim" fill="#404040">
                        <set attributeName="fill" to="#808080" begin="arrowUp.mouseover" end="arrowUp.mouseout"/>
                  </use>
                  <path fill="none" stroke="white" stroke-width="1.5" d="M0,-3.0v7 M-2.5,-0.5L0,-3.0L2.5,-0.5"/>
                </g>
                <g id="arrowRight" xlink:href="#dirArrow" transform="rotate(90) translate(36 -43)" onmousedown="handlePan(1,0)">
                  <use xlink:href="#rim" fill="#404040">
                        <set attributeName="fill" to="#808080" begin="arrowRight.mouseover" end="arrowRight.mouseout"/>
                  </use>
                  <path fill="none" stroke="white" stroke-width="1.5" d="M0,-3.0v7 M-2.5,-0.5L0,-3.0L2.5,-0.5"/>
                </g>
                <g id="arrowDown" xlink:href="#dirArrow" transform="rotate(180) translate(-30 -48)" onmousedown="handlePan(0,1)">
                  <use xlink:href="#rim" fill="#404040">
                        <set attributeName="fill" to="#808080" begin="arrowDown.mouseover" end="arrowDown.mouseout"/>
                  </use>
                  <path fill="none" stroke="white" stroke-width="1.5" d="M0,-3.0v7 M-2.5,-0.5L0,-3.0L2.5,-0.5"/>
                </g>
                <g id="arrowLeft" xlink:href="#dirArrow" transform="rotate(270) translate(-36 17)" onmousedown="handlePan(-1,0)">
                  <use xlink:href="#rim" fill="#404040">
                        <set attributeName="fill" to="#808080" begin="arrowLeft.mouseover" end="arrowLeft.mouseout"/>
                  </use>
                  <path fill="none" stroke="white" stroke-width="1.5" d="M0,-3.0v7 M-2.5,-0.5L0,-3.0L2.5,-0.5"/>
                </g>
        </g>
        <svg viewBox="0 0 15 15" width="100%" height="30px" preserveAspectRatio="xMaxYMin meet">
         <g id="arrow_out" transform="scale(0.3 0.3)">
          <a xlink:href="_d_e_m___k_d_e_m__with__damage__parallel__bond___hertz___c_l_8h__dep__incl_org.svg" target="_base">
           <rect id="button" ry="5" rx="5" y="6" x="6" height="38" width="38"
                fill="#f2f5e9" fill-opacity="0.5" stroke="#606060" stroke-width="1.0"/>
           <path id="arrow"
             d="M 11.500037,31.436501 C 11.940474,20.09759 22.043105,11.32322 32.158766,21.979434 L 37.068811,17.246167 C 37.068811,17.246167 37.088388,32 37.088388,32 L 22.160133,31.978069 C 22.160133,31.978069 26.997745,27.140456 26.997745,27.140456 C 18.528582,18.264221 13.291696,25.230495 11.500037,31.436501 z"
             style="fill:#404040;"/>
          </a>
         </g>
        </svg>
</svg>
