<?xml version="1.0" encoding="UTF-8" standalone="no"?>
<!DOCTYPE svg PUBLIC "-//W3C//DTD SVG 1.1//EN"
 "http://www.w3.org/Graphics/SVG/1.1/DTD/svg11.dtd">
<!-- Generated by graphviz version 7.1.0 (0)
 -->
<!-- Title: /software/kratos/doxygen/applications/ParticleMechanicsApplication/custom_constitutive/johnson_cook_thermal_plastic_plane_strain_2D_law.cpp Pages: 1 -->
<svg width="611pt" height="478pt"
 viewBox="0.00 0.00 610.50 478.00" xmlns="http://www.w3.org/2000/svg" xmlns:xlink="http://www.w3.org/1999/xlink">
<g id="graph0" class="graph" transform="scale(1 1) rotate(0) translate(4 474)">
<title>/software/kratos/doxygen/applications/ParticleMechanicsApplication/custom_constitutive/johnson_cook_thermal_plastic_plane_strain_2D_law.cpp</title>
<!-- Node1 -->
<g id="node1" class="node">
<title>Node1</title>
<g id="a_node1"><a xlink:title=" ">
<polygon fill="#999999" stroke="#666666" points="240.5,-470 40.5,-470 40.5,-407 240.5,-407 240.5,-470"/>
<text text-anchor="start" x="48.5" y="-458" font-family="Helvetica,sans-Serif" font-size="10.00">/software/kratos/doxygen</text>
<text text-anchor="start" x="48.5" y="-447" font-family="Helvetica,sans-Serif" font-size="10.00">/applications/ParticleMechanics</text>
<text text-anchor="start" x="48.5" y="-436" font-family="Helvetica,sans-Serif" font-size="10.00">Application/custom_constitutive</text>
<text text-anchor="start" x="48.5" y="-425" font-family="Helvetica,sans-Serif" font-size="10.00">/johnson_cook_thermal_plastic_plane</text>
<text text-anchor="middle" x="140.5" y="-414" font-family="Helvetica,sans-Serif" font-size="10.00">_strain_2D_law.cpp</text>
</a>
</g>
</g>
<!-- Node2 -->
<g id="node2" class="node">
<title>Node2</title>
<g id="a_node2"><a xlink:href="../../d8/dc2/johnson__cook__thermal__plastic__plane__strain__2_d__law_8hpp.html" target="_top" xlink:title=" ">
<polygon fill="white" stroke="#666666" points="205.5,-371 75.5,-371 75.5,-319 205.5,-319 205.5,-371"/>
<text text-anchor="start" x="83.5" y="-359" font-family="Helvetica,sans-Serif" font-size="10.00">custom_constitutive</text>
<text text-anchor="start" x="83.5" y="-348" font-family="Helvetica,sans-Serif" font-size="10.00">/johnson_cook_thermal</text>
<text text-anchor="start" x="83.5" y="-337" font-family="Helvetica,sans-Serif" font-size="10.00">_plastic_plane_strain</text>
<text text-anchor="middle" x="140.5" y="-326" font-family="Helvetica,sans-Serif" font-size="10.00">_2D_law.hpp</text>
</a>
</g>
</g>
<!-- Node1&#45;&gt;Node2 -->
<g id="edge1" class="edge">
<title>Node1&#45;&gt;Node2</title>
<path fill="none" stroke="#63b8ff" d="M140.5,-406.52C140.5,-398.95 140.5,-390.77 140.5,-382.95"/>
<polygon fill="#63b8ff" stroke="#63b8ff" points="144,-382.99 140.5,-372.99 137,-382.99 144,-382.99"/>
</g>
<!-- Node3 -->
<g id="node3" class="node">
<title>Node3</title>
<g id="a_node3"><a xlink:href="../../d7/d78/johnson__cook__thermal__plastic__3_d__law_8hpp.html" target="_top" xlink:title=" ">
<polygon fill="white" stroke="#666666" points="205.5,-283 75.5,-283 75.5,-242 205.5,-242 205.5,-283"/>
<text text-anchor="start" x="83.5" y="-271" font-family="Helvetica,sans-Serif" font-size="10.00">custom_constitutive</text>
<text text-anchor="start" x="83.5" y="-260" font-family="Helvetica,sans-Serif" font-size="10.00">/johnson_cook_thermal</text>
<text text-anchor="middle" x="140.5" y="-249" font-family="Helvetica,sans-Serif" font-size="10.00">_plastic_3D_law.hpp</text>
</a>
</g>
</g>
<!-- Node2&#45;&gt;Node3 -->
<g id="edge2" class="edge">
<title>Node2&#45;&gt;Node3</title>
<path fill="none" stroke="#63b8ff" d="M140.5,-318.53C140.5,-311 140.5,-302.68 140.5,-294.83"/>
<polygon fill="#63b8ff" stroke="#63b8ff" points="144,-294.96 140.5,-284.96 137,-294.96 144,-294.96"/>
</g>
<!-- Node4 -->
<g id="node4" class="node">
<title>Node4</title>
<g id="a_node4"><a xlink:title=" ">
<polygon fill="#e0e0e0" stroke="#999999" points="141,-206 0,-206 0,-176 141,-176 141,-206"/>
<text text-anchor="start" x="8" y="-194" font-family="Helvetica,sans-Serif" font-size="10.00">custom_constitutive</text>
<text text-anchor="middle" x="70.5" y="-183" font-family="Helvetica,sans-Serif" font-size="10.00">/hyperelastic_3D_law.hpp</text>
</a>
</g>
</g>
<!-- Node3&#45;&gt;Node4 -->
<g id="edge3" class="edge">
<title>Node3&#45;&gt;Node4</title>
<path fill="none" stroke="#63b8ff" d="M120.63,-241.77C112.05,-233.25 101.97,-223.25 93.11,-214.45"/>
<polygon fill="#63b8ff" stroke="#63b8ff" points="95.71,-212.1 86.15,-207.54 90.78,-217.07 95.71,-212.1"/>
</g>
<!-- Node5 -->
<g id="node5" class="node">
<title>Node5</title>
<g id="a_node5"><a xlink:href="../../d5/d16/checks_8h.html" target="_top" xlink:title=" ">
<polygon fill="white" stroke="#666666" points="262,-200.5 159,-200.5 159,-181.5 262,-181.5 262,-200.5"/>
<text text-anchor="middle" x="210.5" y="-188.5" font-family="Helvetica,sans-Serif" font-size="10.00">includes/checks.h</text>
</a>
</g>
</g>
<!-- Node3&#45;&gt;Node5 -->
<g id="edge4" class="edge">
<title>Node3&#45;&gt;Node5</title>
<path fill="none" stroke="#63b8ff" d="M160.37,-241.77C170.88,-231.34 183.63,-218.68 193.65,-208.73"/>
<polygon fill="#63b8ff" stroke="#63b8ff" points="195.91,-211.42 200.54,-201.89 190.98,-206.45 195.91,-211.42"/>
</g>
<!-- Node6 -->
<g id="node6" class="node">
<title>Node6</title>
<g id="a_node6"><a xlink:title=" ">
<polygon fill="#e0e0e0" stroke="#999999" points="138.5,-140 88.5,-140 88.5,-121 138.5,-121 138.5,-140"/>
<text text-anchor="middle" x="113.5" y="-128" font-family="Helvetica,sans-Serif" font-size="10.00">cstring</text>
</a>
</g>
</g>
<!-- Node5&#45;&gt;Node6 -->
<g id="edge5" class="edge">
<title>Node5&#45;&gt;Node6</title>
<path fill="none" stroke="#63b8ff" d="M195.77,-181.12C180.46,-171.88 156.23,-157.27 138.03,-146.29"/>
<polygon fill="#63b8ff" stroke="#63b8ff" points="140.04,-143.42 129.67,-141.25 136.42,-149.41 140.04,-143.42"/>
</g>
<!-- Node7 -->
<g id="node7" class="node">
<title>Node7</title>
<g id="a_node7"><a xlink:title=" ">
<polygon fill="#e0e0e0" stroke="#999999" points="200.5,-140 156.5,-140 156.5,-121 200.5,-121 200.5,-140"/>
<text text-anchor="middle" x="178.5" y="-128" font-family="Helvetica,sans-Serif" font-size="10.00">limits</text>
</a>
</g>
</g>
<!-- Node5&#45;&gt;Node7 -->
<g id="edge6" class="edge">
<title>Node5&#45;&gt;Node7</title>
<path fill="none" stroke="#63b8ff" d="M205.78,-181.37C201.29,-173.16 194.39,-160.54 188.65,-150.05"/>
<polygon fill="#63b8ff" stroke="#63b8ff" points="191.84,-148.59 183.97,-141.5 185.7,-151.95 191.84,-148.59"/>
</g>
<!-- Node8 -->
<g id="node8" class="node">
<title>Node8</title>
<g id="a_node8"><a xlink:title=" ">
<polygon fill="#e0e0e0" stroke="#999999" points="266,-140 219,-140 219,-121 266,-121 266,-140"/>
<text text-anchor="middle" x="242.5" y="-128" font-family="Helvetica,sans-Serif" font-size="10.00">cmath</text>
</a>
</g>
</g>
<!-- Node5&#45;&gt;Node8 -->
<g id="edge7" class="edge">
<title>Node5&#45;&gt;Node8</title>
<path fill="none" stroke="#63b8ff" d="M215.22,-181.37C219.71,-173.16 226.61,-160.54 232.35,-150.05"/>
<polygon fill="#63b8ff" stroke="#63b8ff" points="235.3,-151.95 237.03,-141.5 229.16,-148.59 235.3,-151.95"/>
</g>
<!-- Node9 -->
<g id="node9" class="node">
<title>Node9</title>
<g id="a_node9"><a xlink:href="../../dd/d2d/exception_8h.html" target="_top" xlink:title=" ">
<polygon fill="white" stroke="#666666" points="401,-140 284,-140 284,-121 401,-121 401,-140"/>
<text text-anchor="middle" x="342.5" y="-128" font-family="Helvetica,sans-Serif" font-size="10.00">includes/exception.h</text>
</a>
</g>
</g>
<!-- Node5&#45;&gt;Node9 -->
<g id="edge8" class="edge">
<title>Node5&#45;&gt;Node9</title>
<path fill="none" stroke="#63b8ff" d="M230.55,-181.12C252.16,-171.54 286.82,-156.18 311.86,-145.08"/>
<polygon fill="#63b8ff" stroke="#63b8ff" points="313.16,-148.33 320.88,-141.08 310.32,-141.93 313.16,-148.33"/>
</g>
<!-- Node10 -->
<g id="node10" class="node">
<title>Node10</title>
<g id="a_node10"><a xlink:title=" ">
<polygon fill="#e0e0e0" stroke="#999999" points="74,-85 9,-85 9,-66 74,-66 74,-85"/>
<text text-anchor="middle" x="41.5" y="-73" font-family="Helvetica,sans-Serif" font-size="10.00">stdexcept</text>
</a>
</g>
</g>
<!-- Node9&#45;&gt;Node10 -->
<g id="edge9" class="edge">
<title>Node9&#45;&gt;Node10</title>
<path fill="none" stroke="#63b8ff" d="M290.92,-120.55C239.59,-111.62 158.58,-97.48 88.5,-85 87.5,-84.82 86.49,-84.64 85.47,-84.46"/>
<polygon fill="#63b8ff" stroke="#63b8ff" points="86.32,-81.06 75.86,-82.73 85.08,-87.95 86.32,-81.06"/>
</g>
<!-- Node11 -->
<g id="node11" class="node">
<title>Node11</title>
<g id="a_node11"><a xlink:title=" ">
<polygon fill="#e0e0e0" stroke="#999999" points="173.5,-24.5 129.5,-24.5 129.5,-5.5 173.5,-5.5 173.5,-24.5"/>
<text text-anchor="middle" x="151.5" y="-12.5" font-family="Helvetica,sans-Serif" font-size="10.00">string</text>
</a>
</g>
</g>
<!-- Node9&#45;&gt;Node11 -->
<g id="edge10" class="edge">
<title>Node9&#45;&gt;Node11</title>
<path fill="none" stroke="#63b8ff" d="M283.58,-121.53C221.66,-112.55 131.79,-97.57 121.5,-85 108.89,-69.6 121.92,-48.09 134.53,-33.19"/>
<polygon fill="#63b8ff" stroke="#63b8ff" points="136.93,-35.76 141.08,-26.01 131.76,-31.04 136.93,-35.76"/>
</g>
<!-- Node12 -->
<g id="node12" class="node">
<title>Node12</title>
<g id="a_node12"><a xlink:title=" ">
<polygon fill="#e0e0e0" stroke="#999999" points="326.5,-24.5 266.5,-24.5 266.5,-5.5 326.5,-5.5 326.5,-24.5"/>
<text text-anchor="middle" x="296.5" y="-12.5" font-family="Helvetica,sans-Serif" font-size="10.00">iostream</text>
</a>
</g>
</g>
<!-- Node9&#45;&gt;Node12 -->
<g id="edge11" class="edge">
<title>Node9&#45;&gt;Node12</title>
<path fill="none" stroke="#63b8ff" d="M336.14,-120.69C330.11,-111.99 321.15,-98.11 315.5,-85 308.65,-69.1 303.62,-50.07 300.47,-36.02"/>
<polygon fill="#63b8ff" stroke="#63b8ff" points="303.9,-35.3 298.41,-26.24 297.05,-36.75 303.9,-35.3"/>
</g>
<!-- Node13 -->
<g id="node13" class="node">
<title>Node13</title>
<g id="a_node13"><a xlink:title=" ">
<polygon fill="#e0e0e0" stroke="#999999" points="602.5,-85 546.5,-85 546.5,-66 602.5,-66 602.5,-85"/>
<text text-anchor="middle" x="574.5" y="-73" font-family="Helvetica,sans-Serif" font-size="10.00">sstream</text>
</a>
</g>
</g>
<!-- Node9&#45;&gt;Node13 -->
<g id="edge12" class="edge">
<title>Node9&#45;&gt;Node13</title>
<path fill="none" stroke="#63b8ff" d="M381.86,-120.51C424.61,-110.74 492.49,-95.23 535.22,-85.47"/>
<polygon fill="#63b8ff" stroke="#63b8ff" points="535.85,-88.92 544.82,-83.28 534.29,-82.1 535.85,-88.92"/>
</g>
<!-- Node14 -->
<g id="node14" class="node">
<title>Node14</title>
<g id="a_node14"><a xlink:title=" ">
<polygon fill="#e0e0e0" stroke="#999999" points="541,-24.5 494,-24.5 494,-5.5 541,-5.5 541,-24.5"/>
<text text-anchor="middle" x="517.5" y="-12.5" font-family="Helvetica,sans-Serif" font-size="10.00">vector</text>
</a>
</g>
</g>
<!-- Node9&#45;&gt;Node14 -->
<g id="edge13" class="edge">
<title>Node9&#45;&gt;Node14</title>
<path fill="none" stroke="#63b8ff" d="M400.03,-120.51C426.19,-114.11 456.21,-103.26 478.5,-85 494.45,-71.94 505.09,-50.53 511.17,-35.02"/>
<polygon fill="#63b8ff" stroke="#63b8ff" points="514.33,-36.57 514.43,-25.97 507.75,-34.19 514.33,-36.57"/>
</g>
<!-- Node15 -->
<g id="node15" class="node">
<title>Node15</title>
<g id="a_node15"><a xlink:href="../../dc/d25/kratos__export__api_8h.html" target="_top" xlink:title=" ">
<polygon fill="white" stroke="#666666" points="474.5,-30 346.5,-30 346.5,0 474.5,0 474.5,-30"/>
<text text-anchor="start" x="354.5" y="-18" font-family="Helvetica,sans-Serif" font-size="10.00">includes/kratos_export</text>
<text text-anchor="middle" x="410.5" y="-7" font-family="Helvetica,sans-Serif" font-size="10.00">_api.h</text>
</a>
</g>
</g>
<!-- Node9&#45;&gt;Node15 -->
<g id="edge14" class="edge">
<title>Node9&#45;&gt;Node15</title>
<path fill="none" stroke="#63b8ff" d="M401.28,-121.96C423.97,-115.85 447.73,-104.85 461.5,-85 472.75,-68.79 458.7,-50.88 442.52,-37.37"/>
<polygon fill="#63b8ff" stroke="#63b8ff" points="444.71,-34.64 434.66,-31.28 440.42,-40.17 444.71,-34.64"/>
</g>
<!-- Node16 -->
<g id="node16" class="node">
<title>Node16</title>
<g id="a_node16"><a xlink:href="../../da/da6/code__location_8h.html" target="_top" xlink:title=" ">
<polygon fill="white" stroke="#666666" points="268,-85 131,-85 131,-66 268,-66 268,-85"/>
<text text-anchor="middle" x="199.5" y="-73" font-family="Helvetica,sans-Serif" font-size="10.00">includes/code_location.h</text>
</a>
</g>
</g>
<!-- Node9&#45;&gt;Node16 -->
<g id="edge15" class="edge">
<title>Node9&#45;&gt;Node16</title>
<path fill="none" stroke="#63b8ff" d="M318.24,-120.51C295.09,-111.93 259.99,-98.92 233.94,-89.27"/>
<polygon fill="#63b8ff" stroke="#63b8ff" points="235.41,-86.08 224.82,-85.88 232.98,-92.64 235.41,-86.08"/>
</g>
<!-- Node17 -->
<g id="node17" class="node">
<title>Node17</title>
<g id="a_node17"><a xlink:href="../../d9/d06/stl__vector__io_8h.html" target="_top" xlink:title=" ">
<polygon fill="white" stroke="#666666" points="452.5,-85 324.5,-85 324.5,-66 452.5,-66 452.5,-85"/>
<text text-anchor="middle" x="388.5" y="-73" font-family="Helvetica,sans-Serif" font-size="10.00">utilities/stl_vector_io.h</text>
</a>
</g>
</g>
<!-- Node9&#45;&gt;Node17 -->
<g id="edge19" class="edge">
<title>Node9&#45;&gt;Node17</title>
<path fill="none" stroke="#63b8ff" d="M350.1,-120.75C356.38,-113.5 365.51,-102.98 373.3,-94.02"/>
<polygon fill="#63b8ff" stroke="#63b8ff" points="375.84,-96.43 379.75,-86.59 370.55,-91.84 375.84,-96.43"/>
</g>
<!-- Node16&#45;&gt;Node11 -->
<g id="edge16" class="edge">
<title>Node16&#45;&gt;Node11</title>
<path fill="none" stroke="#63b8ff" d="M192.42,-65.87C185.47,-57.4 174.67,-44.24 165.91,-33.57"/>
<polygon fill="#63b8ff" stroke="#63b8ff" points="168.62,-31.35 159.57,-25.84 163.21,-35.79 168.62,-31.35"/>
</g>
<!-- Node16&#45;&gt;Node12 -->
<g id="edge17" class="edge">
<title>Node16&#45;&gt;Node12</title>
<path fill="none" stroke="#63b8ff" d="M214.23,-65.62C229.54,-56.38 253.77,-41.77 271.97,-30.79"/>
<polygon fill="#63b8ff" stroke="#63b8ff" points="273.58,-33.91 280.33,-25.75 269.96,-27.92 273.58,-33.91"/>
</g>
<!-- Node16&#45;&gt;Node15 -->
<g id="edge18" class="edge">
<title>Node16&#45;&gt;Node15</title>
<path fill="none" stroke="#63b8ff" d="M231.55,-65.62C262.19,-57.12 309.23,-44.08 347.4,-33.49"/>
<polygon fill="#63b8ff" stroke="#63b8ff" points="348.26,-36.89 356.96,-30.84 346.39,-30.14 348.26,-36.89"/>
</g>
<!-- Node17&#45;&gt;Node12 -->
<g id="edge20" class="edge">
<title>Node17&#45;&gt;Node12</title>
<path fill="none" stroke="#63b8ff" d="M374.53,-65.62C360.07,-56.42 337.24,-41.91 320,-30.94"/>
<polygon fill="#63b8ff" stroke="#63b8ff" points="322.2,-28.19 311.88,-25.78 318.44,-34.1 322.2,-28.19"/>
</g>
<!-- Node17&#45;&gt;Node14 -->
<g id="edge21" class="edge">
<title>Node17&#45;&gt;Node14</title>
<path fill="none" stroke="#63b8ff" d="M408.09,-65.62C429.21,-56.04 463.09,-40.68 487.55,-29.58"/>
<polygon fill="#63b8ff" stroke="#63b8ff" points="488.68,-32.91 496.34,-25.59 485.79,-26.54 488.68,-32.91"/>
</g>
</g>
</svg>
