<?xml version="1.0" encoding="UTF-8" standalone="no"?>
<!DOCTYPE svg PUBLIC "-//W3C//DTD SVG 1.1//EN"
 "http://www.w3.org/Graphics/SVG/1.1/DTD/svg11.dtd">
<!-- Generated by graphviz version 7.1.0 (0)
 -->
<!-- Title: /software/kratos/doxygen/applications/ConstitutiveLawsApplication/custom_constitutive/small_strains/damage/small_strain_isotropic_damage_traction_only_implex_3d.h Pages: 1 -->
<svg width="634pt" height="258pt"
 viewBox="0.00 0.00 634.00 258.00" xmlns="http://www.w3.org/2000/svg" xmlns:xlink="http://www.w3.org/1999/xlink">
<g id="graph0" class="graph" transform="scale(1 1) rotate(0) translate(4 254)">
<title>/software/kratos/doxygen/applications/ConstitutiveLawsApplication/custom_constitutive/small_strains/damage/small_strain_isotropic_damage_traction_only_implex_3d.h</title>
<!-- Node1 -->
<g id="node1" class="node">
<title>Node1</title>
<g id="a_node1"><a xlink:title=" ">
<polygon fill="#999999" stroke="#666666" points="432.5,-250 189.5,-250 189.5,-187 432.5,-187 432.5,-250"/>
<text text-anchor="start" x="197.5" y="-238" font-family="Helvetica,sans-Serif" font-size="10.00">/software/kratos/doxygen</text>
<text text-anchor="start" x="197.5" y="-227" font-family="Helvetica,sans-Serif" font-size="10.00">/applications/ConstitutiveLaws</text>
<text text-anchor="start" x="197.5" y="-216" font-family="Helvetica,sans-Serif" font-size="10.00">Application/custom_constitutive</text>
<text text-anchor="start" x="197.5" y="-205" font-family="Helvetica,sans-Serif" font-size="10.00">/small_strains/damage/small_strain</text>
<text text-anchor="middle" x="311" y="-194" font-family="Helvetica,sans-Serif" font-size="10.00">_isotropic_damage_traction_only_implex_3d.h</text>
</a>
</g>
</g>
<!-- Node2 -->
<g id="node2" class="node">
<title>Node2</title>
<g id="a_node2"><a xlink:href="../../dc/d99/constitutive__laws__application_8h.html" target="_top" xlink:title=" ">
<polygon fill="white" stroke="#666666" points="166,-145.5 0,-145.5 0,-93.5 166,-93.5 166,-145.5"/>
<text text-anchor="start" x="8" y="-133.5" font-family="Helvetica,sans-Serif" font-size="10.00">/software/kratos/doxygen</text>
<text text-anchor="start" x="8" y="-122.5" font-family="Helvetica,sans-Serif" font-size="10.00">/applications/ConstitutiveLaws</text>
<text text-anchor="start" x="8" y="-111.5" font-family="Helvetica,sans-Serif" font-size="10.00">Application/constitutive_laws</text>
<text text-anchor="middle" x="83" y="-100.5" font-family="Helvetica,sans-Serif" font-size="10.00">_application.h</text>
</a>
</g>
</g>
<!-- Node1&#45;&gt;Node2 -->
<g id="edge1" class="edge">
<title>Node1&#45;&gt;Node2</title>
<path fill="none" stroke="#63b8ff" d="M227.99,-182.18C199.81,-170.2 168.9,-157.04 142.88,-145.98"/>
<polygon fill="#63b8ff" stroke="#63b8ff" points="226.27,-185.26 236.84,-185.95 229.01,-178.81 226.27,-185.26"/>
</g>
<!-- Node4 -->
<g id="node4" class="node">
<title>Node4</title>
<g id="a_node4"><a xlink:href="../../db/dc0/small__strain__isotropic__damage__traction__only__implex__3d_8cpp.html" target="_top" xlink:title=" ">
<polygon fill="white" stroke="#666666" points="438,-151 184,-151 184,-88 438,-88 438,-151"/>
<text text-anchor="start" x="192" y="-139" font-family="Helvetica,sans-Serif" font-size="10.00">/software/kratos/doxygen</text>
<text text-anchor="start" x="192" y="-128" font-family="Helvetica,sans-Serif" font-size="10.00">/applications/ConstitutiveLaws</text>
<text text-anchor="start" x="192" y="-117" font-family="Helvetica,sans-Serif" font-size="10.00">Application/custom_constitutive</text>
<text text-anchor="start" x="192" y="-106" font-family="Helvetica,sans-Serif" font-size="10.00">/small_strains/damage/small_strain</text>
<text text-anchor="middle" x="311" y="-95" font-family="Helvetica,sans-Serif" font-size="10.00">_isotropic_damage_traction_only_implex_3d.cpp</text>
</a>
</g>
</g>
<!-- Node1&#45;&gt;Node4 -->
<g id="edge3" class="edge">
<title>Node1&#45;&gt;Node4</title>
<path fill="none" stroke="#63b8ff" d="M311,-175.15C311,-167.2 311,-159.02 311,-151.5"/>
<polygon fill="#63b8ff" stroke="#63b8ff" points="307.5,-175.03 311,-185.03 314.5,-175.03 307.5,-175.03"/>
</g>
<!-- Node5 -->
<g id="node5" class="node">
<title>Node5</title>
<g id="a_node5"><a xlink:href="../../d8/d97/_constitutive_laws_application_2custom__python_2add__custom__constitutive__laws__to__python_8cpp.html" target="_top" xlink:title=" ">
<polygon fill="white" stroke="#666666" points="626,-151 456,-151 456,-88 626,-88 626,-151"/>
<text text-anchor="start" x="464" y="-139" font-family="Helvetica,sans-Serif" font-size="10.00">/software/kratos/doxygen</text>
<text text-anchor="start" x="464" y="-128" font-family="Helvetica,sans-Serif" font-size="10.00">/applications/ConstitutiveLaws</text>
<text text-anchor="start" x="464" y="-117" font-family="Helvetica,sans-Serif" font-size="10.00">Application/custom_python/add</text>
<text text-anchor="start" x="464" y="-106" font-family="Helvetica,sans-Serif" font-size="10.00">_custom_constitutive_laws_to</text>
<text text-anchor="middle" x="541" y="-95" font-family="Helvetica,sans-Serif" font-size="10.00">_python.cpp</text>
</a>
</g>
</g>
<!-- Node1&#45;&gt;Node5 -->
<g id="edge4" class="edge">
<title>Node1&#45;&gt;Node5</title>
<path fill="none" stroke="#63b8ff" d="M394.83,-182.14C418.63,-172.11 444.36,-161.26 467.5,-151.5"/>
<polygon fill="#63b8ff" stroke="#63b8ff" points="393.65,-178.84 385.8,-185.95 396.37,-185.29 393.65,-178.84"/>
</g>
<!-- Node3 -->
<g id="node3" class="node">
<title>Node3</title>
<g id="a_node3"><a xlink:href="../../d3/d03/constitutive__laws__application_8cpp.html" target="_top" xlink:title=" ">
<polygon fill="white" stroke="#666666" points="166,-52 0,-52 0,0 166,0 166,-52"/>
<text text-anchor="start" x="8" y="-40" font-family="Helvetica,sans-Serif" font-size="10.00">/software/kratos/doxygen</text>
<text text-anchor="start" x="8" y="-29" font-family="Helvetica,sans-Serif" font-size="10.00">/applications/ConstitutiveLaws</text>
<text text-anchor="start" x="8" y="-18" font-family="Helvetica,sans-Serif" font-size="10.00">Application/constitutive_laws</text>
<text text-anchor="middle" x="83" y="-7" font-family="Helvetica,sans-Serif" font-size="10.00">_application.cpp</text>
</a>
</g>
</g>
<!-- Node2&#45;&gt;Node3 -->
<g id="edge2" class="edge">
<title>Node2&#45;&gt;Node3</title>
<path fill="none" stroke="#63b8ff" d="M83,-81.8C83,-71.92 83,-61.46 83,-52.35"/>
<polygon fill="#63b8ff" stroke="#63b8ff" points="79.5,-81.5 83,-91.5 86.5,-81.5 79.5,-81.5"/>
</g>
</g>
</svg>
