<?xml version="1.0" encoding="UTF-8" standalone="no"?>
<!DOCTYPE svg PUBLIC "-//W3C//DTD SVG 1.1//EN"
 "http://www.w3.org/Graphics/SVG/1.1/DTD/svg11.dtd">
<!-- Generated by graphviz version 7.1.0 (0)
 -->
<!-- Title: /software/kratos/doxygen/applications/RANSApplication/custom_strategies/relaxed_dof_updater.h Pages: 1 -->
<svg width="945pt" height="335pt"
 viewBox="0.00 0.00 944.50 335.00" xmlns="http://www.w3.org/2000/svg" xmlns:xlink="http://www.w3.org/1999/xlink">
<g id="graph0" class="graph" transform="scale(1 1) rotate(0) translate(4 331)">
<title>/software/kratos/doxygen/applications/RANSApplication/custom_strategies/relaxed_dof_updater.h</title>
<!-- Node1 -->
<g id="node1" class="node">
<title>Node1</title>
<g id="a_node1"><a xlink:title=" ">
<polygon fill="#999999" stroke="#666666" points="535,-327 371,-327 371,-275 535,-275 535,-327"/>
<text text-anchor="start" x="379" y="-315" font-family="Helvetica,sans-Serif" font-size="10.00">/software/kratos/doxygen</text>
<text text-anchor="start" x="379" y="-304" font-family="Helvetica,sans-Serif" font-size="10.00">/applications/RANSApplication</text>
<text text-anchor="start" x="379" y="-293" font-family="Helvetica,sans-Serif" font-size="10.00">/custom_strategies/relaxed</text>
<text text-anchor="middle" x="453" y="-282" font-family="Helvetica,sans-Serif" font-size="10.00">_dof_updater.h</text>
</a>
</g>
</g>
<!-- Node2 -->
<g id="node2" class="node">
<title>Node2</title>
<g id="a_node2"><a xlink:href="../../d4/d6c/algebraic__flux__corrected__steady__scalar__scheme_8h.html" target="_top" xlink:title=" ">
<polygon fill="white" stroke="#666666" points="216,-151 0,-151 0,-99 216,-99 216,-151"/>
<text text-anchor="start" x="8" y="-139" font-family="Helvetica,sans-Serif" font-size="10.00">/software/kratos/doxygen</text>
<text text-anchor="start" x="8" y="-128" font-family="Helvetica,sans-Serif" font-size="10.00">/applications/RANSApplication</text>
<text text-anchor="start" x="8" y="-117" font-family="Helvetica,sans-Serif" font-size="10.00">/custom_strategies/algebraic</text>
<text text-anchor="middle" x="108" y="-106" font-family="Helvetica,sans-Serif" font-size="10.00">_flux_corrected_steady_scalar_scheme.h</text>
</a>
</g>
</g>
<!-- Node1&#45;&gt;Node2 -->
<g id="edge1" class="edge">
<title>Node1&#45;&gt;Node2</title>
<path fill="none" stroke="#63b8ff" d="M392.48,-269.49C373.15,-259.75 351.68,-248.92 332,-239 272.3,-208.89 203.66,-174.26 158.26,-151.36"/>
<polygon fill="#63b8ff" stroke="#63b8ff" points="390.81,-272.57 401.31,-273.95 393.96,-266.32 390.81,-272.57"/>
</g>
<!-- Node5 -->
<g id="node5" class="node">
<title>Node5</title>
<g id="a_node5"><a xlink:href="../../d4/df3/bossak__relaxation__scalar__scheme_8h.html" target="_top" xlink:title=" ">
<polygon fill="white" stroke="#666666" points="436,-151 234,-151 234,-99 436,-99 436,-151"/>
<text text-anchor="start" x="242" y="-139" font-family="Helvetica,sans-Serif" font-size="10.00">/software/kratos/doxygen</text>
<text text-anchor="start" x="242" y="-128" font-family="Helvetica,sans-Serif" font-size="10.00">/applications/RANSApplication</text>
<text text-anchor="start" x="242" y="-117" font-family="Helvetica,sans-Serif" font-size="10.00">/custom_strategies/bossak_relaxation</text>
<text text-anchor="middle" x="335" y="-106" font-family="Helvetica,sans-Serif" font-size="10.00">_scalar_scheme.h</text>
</a>
</g>
</g>
<!-- Node1&#45;&gt;Node5 -->
<g id="edge4" class="edge">
<title>Node1&#45;&gt;Node5</title>
<path fill="none" stroke="#63b8ff" d="M384.17,-268.42C372.57,-260.32 361.78,-250.56 354,-239 336.33,-212.76 333.28,-175.53 333.51,-151.08"/>
<polygon fill="#63b8ff" stroke="#63b8ff" points="382.05,-271.21 392.34,-273.73 385.87,-265.34 382.05,-271.21"/>
</g>
<!-- Node6 -->
<g id="node6" class="node">
<title>Node6</title>
<g id="a_node6"><a xlink:href="../../d0/d42/custom__strategies_2relaxed__dof__updater_8cpp.html" target="_top" xlink:title=" ">
<polygon fill="white" stroke="#666666" points="725,-239 561,-239 561,-187 725,-187 725,-239"/>
<text text-anchor="start" x="569" y="-227" font-family="Helvetica,sans-Serif" font-size="10.00">/software/kratos/doxygen</text>
<text text-anchor="start" x="569" y="-216" font-family="Helvetica,sans-Serif" font-size="10.00">/applications/RANSApplication</text>
<text text-anchor="start" x="569" y="-205" font-family="Helvetica,sans-Serif" font-size="10.00">/custom_strategies/relaxed</text>
<text text-anchor="middle" x="643" y="-194" font-family="Helvetica,sans-Serif" font-size="10.00">_dof_updater.cpp</text>
</a>
</g>
</g>
<!-- Node1&#45;&gt;Node6 -->
<g id="edge7" class="edge">
<title>Node1&#45;&gt;Node6</title>
<path fill="none" stroke="#63b8ff" d="M519.5,-269.9C541.51,-259.94 565.76,-248.96 586.91,-239.39"/>
<polygon fill="#63b8ff" stroke="#63b8ff" points="518.28,-266.61 510.61,-273.92 521.17,-272.99 518.28,-266.61"/>
</g>
<!-- Node7 -->
<g id="node7" class="node">
<title>Node7</title>
<g id="a_node7"><a xlink:href="../../d8/de9/steady__scalar__scheme_8h.html" target="_top" xlink:title=" ">
<polygon fill="white" stroke="#666666" points="543,-239 363,-239 363,-187 543,-187 543,-239"/>
<text text-anchor="start" x="371" y="-227" font-family="Helvetica,sans-Serif" font-size="10.00">/software/kratos/doxygen</text>
<text text-anchor="start" x="371" y="-216" font-family="Helvetica,sans-Serif" font-size="10.00">/applications/RANSApplication</text>
<text text-anchor="start" x="371" y="-205" font-family="Helvetica,sans-Serif" font-size="10.00">/custom_strategies/steady_scalar</text>
<text text-anchor="middle" x="453" y="-194" font-family="Helvetica,sans-Serif" font-size="10.00">_scheme.h</text>
</a>
</g>
</g>
<!-- Node1&#45;&gt;Node7 -->
<g id="edge8" class="edge">
<title>Node1&#45;&gt;Node7</title>
<path fill="none" stroke="#63b8ff" d="M453,-263.26C453,-255.24 453,-246.92 453,-239.45"/>
<polygon fill="#63b8ff" stroke="#63b8ff" points="449.5,-263.15 453,-273.15 456.5,-263.15 449.5,-263.15"/>
</g>
<!-- Node8 -->
<g id="node8" class="node">
<title>Node8</title>
<g id="a_node8"><a xlink:href="../../d1/dde/trilinos__extension_2custom__strategies_2relaxed__dof__updater_8cpp.html" target="_top" xlink:title=" ">
<polygon fill="white" stroke="#666666" points="936.5,-239 743.5,-239 743.5,-187 936.5,-187 936.5,-239"/>
<text text-anchor="start" x="751.5" y="-227" font-family="Helvetica,sans-Serif" font-size="10.00">/software/kratos/doxygen</text>
<text text-anchor="start" x="751.5" y="-216" font-family="Helvetica,sans-Serif" font-size="10.00">/applications/RANSApplication</text>
<text text-anchor="start" x="751.5" y="-205" font-family="Helvetica,sans-Serif" font-size="10.00">/trilinos_extension/custom</text>
<text text-anchor="middle" x="840" y="-194" font-family="Helvetica,sans-Serif" font-size="10.00">_strategies/relaxed_dof_updater.cpp</text>
</a>
</g>
</g>
<!-- Node1&#45;&gt;Node8 -->
<g id="edge12" class="edge">
<title>Node1&#45;&gt;Node8</title>
<path fill="none" stroke="#63b8ff" d="M546.54,-280.13C601.24,-268.4 671.6,-253.13 734,-239 737.04,-238.31 740.13,-237.61 743.25,-236.89"/>
<polygon fill="#63b8ff" stroke="#63b8ff" points="545.99,-276.67 536.95,-282.19 547.46,-283.51 545.99,-276.67"/>
</g>
<!-- Node3 -->
<g id="node3" class="node">
<title>Node3</title>
<g id="a_node3"><a xlink:href="../../d7/d7c/_r_a_n_s_application_2custom__python_2add__custom__strategies__to__python_8cpp.html" target="_top" xlink:title=" ">
<polygon fill="white" stroke="#666666" points="314.5,-57.5 103.5,-57.5 103.5,-5.5 314.5,-5.5 314.5,-57.5"/>
<text text-anchor="start" x="111.5" y="-45.5" font-family="Helvetica,sans-Serif" font-size="10.00">/software/kratos/doxygen</text>
<text text-anchor="start" x="111.5" y="-34.5" font-family="Helvetica,sans-Serif" font-size="10.00">/applications/RANSApplication</text>
<text text-anchor="start" x="111.5" y="-23.5" font-family="Helvetica,sans-Serif" font-size="10.00">/custom_python/add_custom_strategies</text>
<text text-anchor="middle" x="209" y="-12.5" font-family="Helvetica,sans-Serif" font-size="10.00">_to_python.cpp</text>
</a>
</g>
</g>
<!-- Node2&#45;&gt;Node3 -->
<g id="edge2" class="edge">
<title>Node2&#45;&gt;Node3</title>
<path fill="none" stroke="#63b8ff" d="M144.63,-90.82C156.63,-79.95 169.76,-68.05 181.02,-57.85"/>
<polygon fill="#63b8ff" stroke="#63b8ff" points="142.32,-88.19 137.26,-97.5 147.02,-93.38 142.32,-88.19"/>
</g>
<!-- Node4 -->
<g id="node4" class="node">
<title>Node4</title>
<g id="a_node4"><a xlink:href="../../dd/dec/_r_a_n_s_application_2trilinos__extension_2custom__python_2add__trilinos__strategies__to__python_8cpp.html" target="_top" xlink:title=" ">
<polygon fill="white" stroke="#666666" points="503,-63 333,-63 333,0 503,0 503,-63"/>
<text text-anchor="start" x="341" y="-51" font-family="Helvetica,sans-Serif" font-size="10.00">/software/kratos/doxygen</text>
<text text-anchor="start" x="341" y="-40" font-family="Helvetica,sans-Serif" font-size="10.00">/applications/RANSApplication</text>
<text text-anchor="start" x="341" y="-29" font-family="Helvetica,sans-Serif" font-size="10.00">/trilinos_extension/custom</text>
<text text-anchor="start" x="341" y="-18" font-family="Helvetica,sans-Serif" font-size="10.00">_python/add_trilinos_strategies</text>
<text text-anchor="middle" x="418" y="-7" font-family="Helvetica,sans-Serif" font-size="10.00">_to_python.cpp</text>
</a>
</g>
</g>
<!-- Node2&#45;&gt;Node4 -->
<g id="edge3" class="edge">
<title>Node2&#45;&gt;Node4</title>
<path fill="none" stroke="#63b8ff" d="M212.15,-95.46C247.71,-85.49 287.67,-74.02 324,-63 326.87,-62.13 329.79,-61.23 332.74,-60.32"/>
<polygon fill="#63b8ff" stroke="#63b8ff" points="211.4,-92.04 202.72,-98.1 213.29,-98.78 211.4,-92.04"/>
</g>
<!-- Node5&#45;&gt;Node3 -->
<g id="edge5" class="edge">
<title>Node5&#45;&gt;Node3</title>
<path fill="none" stroke="#63b8ff" d="M290.61,-91.76C275.29,-80.64 258.36,-68.35 243.91,-57.85"/>
<polygon fill="#63b8ff" stroke="#63b8ff" points="288.53,-94.58 298.68,-97.62 292.64,-88.91 288.53,-94.58"/>
</g>
<!-- Node5&#45;&gt;Node4 -->
<g id="edge6" class="edge">
<title>Node5&#45;&gt;Node4</title>
<path fill="none" stroke="#63b8ff" d="M365.81,-90.03C373.73,-81.3 382.22,-71.95 389.99,-63.38"/>
<polygon fill="#63b8ff" stroke="#63b8ff" points="363.26,-87.63 359.14,-97.39 368.45,-92.34 363.26,-87.63"/>
</g>
<!-- Node7&#45;&gt;Node3 -->
<g id="edge9" class="edge">
<title>Node7&#45;&gt;Node3</title>
<path fill="none" stroke="#63b8ff" d="M460.42,-175.26C463.12,-151.01 462.08,-119.97 445,-99 442.59,-96.03 368.47,-75.43 303.94,-57.93"/>
<polygon fill="#63b8ff" stroke="#63b8ff" points="456.97,-174.65 459.06,-185.04 463.9,-175.62 456.97,-174.65"/>
</g>
<!-- Node7&#45;&gt;Node4 -->
<g id="edge11" class="edge">
<title>Node7&#45;&gt;Node4</title>
<path fill="none" stroke="#63b8ff" d="M471.37,-176.19C480.45,-153.56 487.6,-123.98 478,-99 472.92,-85.79 463.87,-73.57 454.32,-63.3"/>
<polygon fill="#63b8ff" stroke="#63b8ff" points="468.18,-174.73 467.42,-185.3 474.61,-177.51 468.18,-174.73"/>
</g>
<!-- Node7&#45;&gt;Node5 -->
<g id="edge10" class="edge">
<title>Node7&#45;&gt;Node5</title>
<path fill="none" stroke="#63b8ff" d="M409.05,-179.97C396.14,-170.56 382.19,-160.4 369.92,-151.45"/>
<polygon fill="#63b8ff" stroke="#63b8ff" points="406.87,-182.71 417.01,-185.77 410.99,-177.05 406.87,-182.71"/>
</g>
</g>
</svg>
