<?xml version="1.0" encoding="UTF-8" standalone="no"?>
<!DOCTYPE svg PUBLIC "-//W3C//DTD SVG 1.1//EN"
 "http://www.w3.org/Graphics/SVG/1.1/DTD/svg11.dtd">
<!-- Generated by graphviz version 7.1.0 (0)
 -->
<!-- Title: /software/kratos/doxygen/applications/ShallowWaterApplication/custom_conditions/conservative_condition.h Pages: 1 -->
<svg width="432pt" height="225pt"
 viewBox="0.00 0.00 432.00 225.00" xmlns="http://www.w3.org/2000/svg" xmlns:xlink="http://www.w3.org/1999/xlink">
<g id="graph0" class="graph" transform="scale(1 1) rotate(0) translate(4 221)">
<title>/software/kratos/doxygen/applications/ShallowWaterApplication/custom_conditions/conservative_condition.h</title>
<!-- Node1 -->
<g id="node1" class="node">
<title>Node1</title>
<g id="a_node1"><a xlink:title=" ">
<polygon fill="#999999" stroke="#666666" points="313,-217 110,-217 110,-165 313,-165 313,-217"/>
<text text-anchor="start" x="118" y="-205" font-family="Helvetica,sans-Serif" font-size="10.00">/software/kratos/doxygen</text>
<text text-anchor="start" x="118" y="-194" font-family="Helvetica,sans-Serif" font-size="10.00">/applications/ShallowWaterApplication</text>
<text text-anchor="start" x="118" y="-183" font-family="Helvetica,sans-Serif" font-size="10.00">/custom_conditions/conservative</text>
<text text-anchor="middle" x="211.5" y="-172" font-family="Helvetica,sans-Serif" font-size="10.00">_condition.h</text>
</a>
</g>
</g>
<!-- Node2 -->
<g id="node2" class="node">
<title>Node2</title>
<g id="a_node2"><a xlink:href="../../dc/da1/conservative__condition_8cpp.html" target="_top" xlink:title=" ">
<polygon fill="white" stroke="#666666" points="203,-129 0,-129 0,-77 203,-77 203,-129"/>
<text text-anchor="start" x="8" y="-117" font-family="Helvetica,sans-Serif" font-size="10.00">/software/kratos/doxygen</text>
<text text-anchor="start" x="8" y="-106" font-family="Helvetica,sans-Serif" font-size="10.00">/applications/ShallowWaterApplication</text>
<text text-anchor="start" x="8" y="-95" font-family="Helvetica,sans-Serif" font-size="10.00">/custom_conditions/conservative</text>
<text text-anchor="middle" x="101.5" y="-84" font-family="Helvetica,sans-Serif" font-size="10.00">_condition.cpp</text>
</a>
</g>
</g>
<!-- Node1&#45;&gt;Node2 -->
<g id="edge1" class="edge">
<title>Node1&#45;&gt;Node2</title>
<path fill="none" stroke="#63b8ff" d="M170.18,-157.7C158.24,-148.36 145.38,-138.31 134.06,-129.45"/>
<polygon fill="#63b8ff" stroke="#63b8ff" points="167.87,-160.33 177.9,-163.73 172.18,-154.81 167.87,-160.33"/>
</g>
<!-- Node3 -->
<g id="node3" class="node">
<title>Node3</title>
<g id="a_node3"><a xlink:href="../../d4/de5/shallow__water__application_8h.html" target="_top" xlink:title=" ">
<polygon fill="white" stroke="#666666" points="424,-123.5 221,-123.5 221,-82.5 424,-82.5 424,-123.5"/>
<text text-anchor="start" x="229" y="-111.5" font-family="Helvetica,sans-Serif" font-size="10.00">/software/kratos/doxygen</text>
<text text-anchor="start" x="229" y="-100.5" font-family="Helvetica,sans-Serif" font-size="10.00">/applications/ShallowWaterApplication</text>
<text text-anchor="middle" x="322.5" y="-89.5" font-family="Helvetica,sans-Serif" font-size="10.00">/shallow_water_application.h</text>
</a>
</g>
</g>
<!-- Node1&#45;&gt;Node3 -->
<g id="edge2" class="edge">
<title>Node1&#45;&gt;Node3</title>
<path fill="none" stroke="#63b8ff" d="M253.1,-157.77C267.74,-146.43 283.76,-134.02 296.71,-123.98"/>
<polygon fill="#63b8ff" stroke="#63b8ff" points="251.16,-154.84 245.4,-163.74 255.45,-160.38 251.16,-154.84"/>
</g>
<!-- Node4 -->
<g id="node4" class="node">
<title>Node4</title>
<g id="a_node4"><a xlink:href="../../d3/d6c/shallow__water__application_8cpp.html" target="_top" xlink:title=" ">
<polygon fill="white" stroke="#666666" points="424,-41 221,-41 221,0 424,0 424,-41"/>
<text text-anchor="start" x="229" y="-29" font-family="Helvetica,sans-Serif" font-size="10.00">/software/kratos/doxygen</text>
<text text-anchor="start" x="229" y="-18" font-family="Helvetica,sans-Serif" font-size="10.00">/applications/ShallowWaterApplication</text>
<text text-anchor="middle" x="322.5" y="-7" font-family="Helvetica,sans-Serif" font-size="10.00">/shallow_water_application.cpp</text>
</a>
</g>
</g>
<!-- Node3&#45;&gt;Node4 -->
<g id="edge3" class="edge">
<title>Node3&#45;&gt;Node4</title>
<path fill="none" stroke="#63b8ff" d="M322.5,-70.66C322.5,-60.83 322.5,-50.26 322.5,-41.45"/>
<polygon fill="#63b8ff" stroke="#63b8ff" points="319,-70.59 322.5,-80.59 326,-70.59 319,-70.59"/>
</g>
</g>
</svg>
