<?xml version="1.0" encoding="UTF-8" standalone="no"?>
<!DOCTYPE svg PUBLIC "-//W3C//DTD SVG 1.1//EN"
 "http://www.w3.org/Graphics/SVG/1.1/DTD/svg11.dtd">
<!-- Generated by graphviz version 7.1.0 (0)
 -->
<!-- Title: Kratos::SetAbsorbingBoundaryParametersProcess Pages: 1 -->
<svg width="533pt" height="904pt"
 viewBox="0.00 0.00 533.00 904.00" xmlns="http://www.w3.org/2000/svg" xmlns:xlink="http://www.w3.org/1999/xlink">
<g id="graph0" class="graph" transform="scale(1 1) rotate(0) translate(4 900)">
<title>Kratos::SetAbsorbingBoundaryParametersProcess</title>
<!-- Node1 -->
<g id="node1" class="node">
<title>Node1</title>
<g id="a_node1"><a xlink:title=" ">
<polygon fill="#999999" stroke="#666666" points="122,-0.5 122,-178.5 325,-178.5 325,-0.5 122,-0.5"/>
<text text-anchor="start" x="130" y="-166.5" font-family="Helvetica,sans-Serif" font-size="10.00">Kratos::SetAbsorbingBoundary</text>
<text text-anchor="middle" x="223.5" y="-155.5" font-family="Helvetica,sans-Serif" font-size="10.00">ParametersProcess</text>
<polyline fill="none" stroke="#666666" points="122,-148.5 325,-148.5"/>
<text text-anchor="start" x="130" y="-136.5" font-family="Helvetica,sans-Serif" font-size="10.00"># mVirtualThickness</text>
<polyline fill="none" stroke="#666666" points="122,-129.5 325,-129.5"/>
<text text-anchor="start" x="130" y="-117.5" font-family="Helvetica,sans-Serif" font-size="10.00">+ KRATOS_CLASS_POINTER</text>
<text text-anchor="start" x="130" y="-106.5" font-family="Helvetica,sans-Serif" font-size="10.00">_DEFINITION()</text>
<text text-anchor="start" x="130" y="-95.5" font-family="Helvetica,sans-Serif" font-size="10.00">+ SetAbsorbingBoundaryParameters</text>
<text text-anchor="start" x="130" y="-84.5" font-family="Helvetica,sans-Serif" font-size="10.00">Process()</text>
<text text-anchor="start" x="130" y="-73.5" font-family="Helvetica,sans-Serif" font-size="10.00">+ ~SetAbsorbingBoundaryParameters</text>
<text text-anchor="start" x="130" y="-62.5" font-family="Helvetica,sans-Serif" font-size="10.00">Process()</text>
<text text-anchor="start" x="130" y="-51.5" font-family="Helvetica,sans-Serif" font-size="10.00">+ Execute()</text>
<text text-anchor="start" x="130" y="-40.5" font-family="Helvetica,sans-Serif" font-size="10.00">+ ExecuteInitialize()</text>
<text text-anchor="start" x="130" y="-29.5" font-family="Helvetica,sans-Serif" font-size="10.00">+ Info()</text>
<text text-anchor="start" x="130" y="-18.5" font-family="Helvetica,sans-Serif" font-size="10.00">+ PrintInfo()</text>
<text text-anchor="start" x="130" y="-7.5" font-family="Helvetica,sans-Serif" font-size="10.00">+ PrintData()</text>
</a>
</g>
</g>
<!-- Node2 -->
<g id="node2" class="node">
<title>Node2</title>
<g id="a_node2"><a xlink:href="../../d2/d8c/class_kratos_1_1_process.html" target="_top" xlink:title="The base class for all processes in Kratos.">
<polygon fill="white" stroke="#666666" points="0,-226.5 0,-767.5 173,-767.5 173,-226.5 0,-226.5"/>
<text text-anchor="middle" x="86.5" y="-755.5" font-family="Helvetica,sans-Serif" font-size="10.00">Kratos::Process</text>
<polyline fill="none" stroke="#666666" points="0,-748.5 173,-748.5"/>
<text text-anchor="middle" x="86.5" y="-736.5" font-family="Helvetica,sans-Serif" font-size="10.00"> </text>
<polyline fill="none" stroke="#666666" points="0,-729.5 173,-729.5"/>
<text text-anchor="start" x="8" y="-717.5" font-family="Helvetica,sans-Serif" font-size="10.00">+ KRATOS_CLASS_POINTER</text>
<text text-anchor="start" x="8" y="-706.5" font-family="Helvetica,sans-Serif" font-size="10.00">_DEFINITION()</text>
<text text-anchor="start" x="8" y="-695.5" font-family="Helvetica,sans-Serif" font-size="10.00">+ Process()</text>
<text text-anchor="start" x="8" y="-684.5" font-family="Helvetica,sans-Serif" font-size="10.00">+ Process()</text>
<text text-anchor="start" x="8" y="-673.5" font-family="Helvetica,sans-Serif" font-size="10.00">+ ~Process()</text>
<text text-anchor="start" x="8" y="-662.5" font-family="Helvetica,sans-Serif" font-size="10.00">+ operator()()</text>
<text text-anchor="start" x="8" y="-651.5" font-family="Helvetica,sans-Serif" font-size="10.00">+ Create()</text>
<text text-anchor="start" x="8" y="-640.5" font-family="Helvetica,sans-Serif" font-size="10.00">+ Execute()</text>
<text text-anchor="start" x="8" y="-629.5" font-family="Helvetica,sans-Serif" font-size="10.00">+ ExecuteInitialize()</text>
<text text-anchor="start" x="8" y="-618.5" font-family="Helvetica,sans-Serif" font-size="10.00">+ ExecuteBeforeSolutionLoop()</text>
<text text-anchor="start" x="8" y="-607.5" font-family="Helvetica,sans-Serif" font-size="10.00">+ ExecuteInitializeSolution</text>
<text text-anchor="start" x="8" y="-596.5" font-family="Helvetica,sans-Serif" font-size="10.00">Step()</text>
<text text-anchor="start" x="8" y="-585.5" font-family="Helvetica,sans-Serif" font-size="10.00">+ ExecuteFinalizeSolutionStep()</text>
<text text-anchor="start" x="8" y="-574.5" font-family="Helvetica,sans-Serif" font-size="10.00">+ ExecuteBeforeOutputStep()</text>
<text text-anchor="start" x="8" y="-563.5" font-family="Helvetica,sans-Serif" font-size="10.00">+ ExecuteAfterOutputStep()</text>
<text text-anchor="start" x="8" y="-552.5" font-family="Helvetica,sans-Serif" font-size="10.00">+ ExecuteFinalize()</text>
<text text-anchor="start" x="8" y="-541.5" font-family="Helvetica,sans-Serif" font-size="10.00">+ Check()</text>
<text text-anchor="start" x="8" y="-530.5" font-family="Helvetica,sans-Serif" font-size="10.00">+ Clear()</text>
<text text-anchor="start" x="8" y="-519.5" font-family="Helvetica,sans-Serif" font-size="10.00">+ GetDefaultParameters()</text>
<text text-anchor="start" x="8" y="-508.5" font-family="Helvetica,sans-Serif" font-size="10.00">+ Info()</text>
<text text-anchor="start" x="8" y="-497.5" font-family="Helvetica,sans-Serif" font-size="10.00">+ PrintInfo()</text>
<text text-anchor="start" x="8" y="-486.5" font-family="Helvetica,sans-Serif" font-size="10.00">+ PrintData()</text>
<text text-anchor="start" x="8" y="-475.5" font-family="Helvetica,sans-Serif" font-size="10.00">* KRATOS_CLASS_POINTER</text>
<text text-anchor="start" x="8" y="-464.5" font-family="Helvetica,sans-Serif" font-size="10.00">_DEFINITION()</text>
<text text-anchor="start" x="8" y="-453.5" font-family="Helvetica,sans-Serif" font-size="10.00">* Process()</text>
<text text-anchor="start" x="8" y="-442.5" font-family="Helvetica,sans-Serif" font-size="10.00">* Process()</text>
<text text-anchor="start" x="8" y="-431.5" font-family="Helvetica,sans-Serif" font-size="10.00">* ~Process()</text>
<text text-anchor="start" x="8" y="-420.5" font-family="Helvetica,sans-Serif" font-size="10.00">* operator()()</text>
<text text-anchor="start" x="8" y="-409.5" font-family="Helvetica,sans-Serif" font-size="10.00">* Create()</text>
<text text-anchor="start" x="8" y="-398.5" font-family="Helvetica,sans-Serif" font-size="10.00">* Execute()</text>
<text text-anchor="start" x="8" y="-387.5" font-family="Helvetica,sans-Serif" font-size="10.00">* ExecuteInitialize()</text>
<text text-anchor="start" x="8" y="-376.5" font-family="Helvetica,sans-Serif" font-size="10.00">* ExecuteBeforeSolutionLoop()</text>
<text text-anchor="start" x="8" y="-365.5" font-family="Helvetica,sans-Serif" font-size="10.00">* ExecuteInitializeSolution</text>
<text text-anchor="start" x="8" y="-354.5" font-family="Helvetica,sans-Serif" font-size="10.00">Step()</text>
<text text-anchor="start" x="8" y="-343.5" font-family="Helvetica,sans-Serif" font-size="10.00">* ExecuteFinalizeSolutionStep()</text>
<text text-anchor="start" x="8" y="-332.5" font-family="Helvetica,sans-Serif" font-size="10.00">* ExecuteBeforeOutputStep()</text>
<text text-anchor="start" x="8" y="-321.5" font-family="Helvetica,sans-Serif" font-size="10.00">* ExecuteAfterOutputStep()</text>
<text text-anchor="start" x="8" y="-310.5" font-family="Helvetica,sans-Serif" font-size="10.00">* ExecuteFinalize()</text>
<text text-anchor="start" x="8" y="-299.5" font-family="Helvetica,sans-Serif" font-size="10.00">* Check()</text>
<text text-anchor="start" x="8" y="-288.5" font-family="Helvetica,sans-Serif" font-size="10.00">* Clear()</text>
<text text-anchor="start" x="8" y="-277.5" font-family="Helvetica,sans-Serif" font-size="10.00">* GetDefaultParameters()</text>
<text text-anchor="start" x="8" y="-266.5" font-family="Helvetica,sans-Serif" font-size="10.00">* Info()</text>
<text text-anchor="start" x="8" y="-255.5" font-family="Helvetica,sans-Serif" font-size="10.00">* PrintInfo()</text>
<text text-anchor="start" x="8" y="-244.5" font-family="Helvetica,sans-Serif" font-size="10.00">* PrintData()</text>
<text text-anchor="start" x="8" y="-233.5" font-family="Helvetica,sans-Serif" font-size="10.00">* operator=()</text>
</a>
</g>
</g>
<!-- Node2&#45;&gt;Node1 -->
<g id="edge1" class="edge">
<title>Node2&#45;&gt;Node1</title>
<path fill="none" stroke="#63b8ff" d="M176.66,-229.15C182.69,-211.29 188.47,-194.18 193.79,-178.43"/>
<polygon fill="none" stroke="#63b8ff" points="173.34,-228.03 173.46,-238.62 179.97,-230.27 173.34,-228.03"/>
</g>
<!-- Node3 -->
<g id="node3" class="node">
<title>Node3</title>
<g id="a_node3"><a xlink:title=" ">
<polygon fill="white" stroke="#666666" points="65,-822 65,-879 108,-879 108,-822 65,-822"/>
<text text-anchor="middle" x="86.5" y="-867" font-family="Helvetica,sans-Serif" font-size="10.00">Flags</text>
<polyline fill="none" stroke="#666666" points="65,-860 108,-860"/>
<text text-anchor="middle" x="86.5" y="-848" font-family="Helvetica,sans-Serif" font-size="10.00"> </text>
<polyline fill="none" stroke="#666666" points="65,-841 108,-841"/>
<text text-anchor="middle" x="86.5" y="-829" font-family="Helvetica,sans-Serif" font-size="10.00"> </text>
</a>
</g>
</g>
<!-- Node3&#45;&gt;Node2 -->
<g id="edge2" class="edge">
<title>Node3&#45;&gt;Node2</title>
<path fill="none" stroke="#63b8ff" d="M86.5,-811.03C86.5,-798.56 86.5,-783.65 86.5,-767.2"/>
<polygon fill="none" stroke="#63b8ff" points="83,-810.7 86.5,-820.7 90,-810.7 83,-810.7"/>
</g>
<!-- Node4 -->
<g id="node4" class="node">
<title>Node4</title>
<g id="a_node4"><a xlink:href="../../d4/d5e/class_model_part.html" target="_top" xlink:title="This class aims to manage meshes for multi&#45;physics simulations.">
<polygon fill="white" stroke="#666666" points="191,-468.5 191,-525.5 256,-525.5 256,-468.5 191,-468.5"/>
<text text-anchor="middle" x="223.5" y="-513.5" font-family="Helvetica,sans-Serif" font-size="10.00">ModelPart</text>
<polyline fill="none" stroke="#666666" points="191,-506.5 256,-506.5"/>
<text text-anchor="middle" x="223.5" y="-494.5" font-family="Helvetica,sans-Serif" font-size="10.00"> </text>
<polyline fill="none" stroke="#666666" points="191,-487.5 256,-487.5"/>
<text text-anchor="middle" x="223.5" y="-475.5" font-family="Helvetica,sans-Serif" font-size="10.00"> </text>
</a>
</g>
</g>
<!-- Node4&#45;&gt;Node1 -->
<g id="edge3" class="edge">
<title>Node4&#45;&gt;Node1</title>
<path fill="none" stroke="#404040" d="M223.5,-468.76C223.5,-412.94 223.5,-283.06 223.5,-191.11"/>
<polygon fill="none" stroke="#404040" points="223.5,-191.02 219.5,-185.02 223.5,-179.02 227.5,-185.02 223.5,-191.02"/>
<text text-anchor="middle" x="260.5" y="-200" font-family="Helvetica,sans-Serif" font-size="10.00"> #mrModelPart</text>
</g>
<!-- Node5 -->
<g id="node5" class="node">
<title>Node5</title>
<g id="a_node5"><a xlink:href="../../d9/dbb/class_kratos_1_1_internals_1_1_matrix.html" target="_top" xlink:title=" ">
<polygon fill="white" stroke="#666666" points="274,-402.5 274,-591.5 411,-591.5 411,-402.5 274,-402.5"/>
<text text-anchor="start" x="282" y="-579.5" font-family="Helvetica,sans-Serif" font-size="10.00">Kratos::Internals::</text>
<text text-anchor="start" x="282" y="-568.5" font-family="Helvetica,sans-Serif" font-size="10.00">Matrix&lt; double, AMatrix</text>
<text text-anchor="middle" x="342.5" y="-557.5" font-family="Helvetica,sans-Serif" font-size="10.00">::dynamic, 1 &gt;</text>
<polyline fill="none" stroke="#666666" points="274,-550.5 411,-550.5"/>
<text text-anchor="middle" x="342.5" y="-538.5" font-family="Helvetica,sans-Serif" font-size="10.00"> </text>
<polyline fill="none" stroke="#666666" points="274,-531.5 411,-531.5"/>
<text text-anchor="start" x="282" y="-519.5" font-family="Helvetica,sans-Serif" font-size="10.00">+ Matrix()</text>
<text text-anchor="start" x="282" y="-508.5" font-family="Helvetica,sans-Serif" font-size="10.00">+ Matrix()</text>
<text text-anchor="start" x="282" y="-497.5" font-family="Helvetica,sans-Serif" font-size="10.00">+ Matrix()</text>
<text text-anchor="start" x="282" y="-486.5" font-family="Helvetica,sans-Serif" font-size="10.00">+ Matrix()</text>
<text text-anchor="start" x="282" y="-475.5" font-family="Helvetica,sans-Serif" font-size="10.00">+ Matrix()</text>
<text text-anchor="start" x="282" y="-464.5" font-family="Helvetica,sans-Serif" font-size="10.00">+ Matrix()</text>
<text text-anchor="start" x="282" y="-453.5" font-family="Helvetica,sans-Serif" font-size="10.00">+ Matrix()</text>
<text text-anchor="start" x="282" y="-442.5" font-family="Helvetica,sans-Serif" font-size="10.00">+ Matrix()</text>
<text text-anchor="start" x="282" y="-431.5" font-family="Helvetica,sans-Serif" font-size="10.00">+ operator=()</text>
<text text-anchor="start" x="282" y="-420.5" font-family="Helvetica,sans-Serif" font-size="10.00">+ operator=()</text>
<text text-anchor="start" x="282" y="-409.5" font-family="Helvetica,sans-Serif" font-size="10.00">and 30 more...</text>
</a>
</g>
</g>
<!-- Node5&#45;&gt;Node1 -->
<g id="edge4" class="edge">
<title>Node5&#45;&gt;Node1</title>
<path fill="none" stroke="#404040" d="M341.45,-402.7C337.96,-342.14 328.01,-262.58 301.5,-197 300.55,-194.65 299.54,-192.3 298.47,-189.97"/>
<polygon fill="none" stroke="#404040" points="298.44,-189.91 292.18,-186.32 293.08,-179.17 299.34,-182.75 298.44,-189.91"/>
<text text-anchor="middle" x="357" y="-200" font-family="Helvetica,sans-Serif" font-size="10.00"> #mAbsorbingFactors</text>
</g>
<!-- Node6 -->
<g id="node6" class="node">
<title>Node6</title>
<g id="a_node6"><a xlink:title=" ">
<polygon fill="white" stroke="#666666" points="193,-805.5 193,-895.5 358,-895.5 358,-805.5 193,-805.5"/>
<text text-anchor="start" x="201" y="-883.5" font-family="Helvetica,sans-Serif" font-size="10.00">AMatrix::MatrixExpression</text>
<text text-anchor="start" x="201" y="-872.5" font-family="Helvetica,sans-Serif" font-size="10.00">&lt; Matrix&lt; double, TSize1,</text>
<text text-anchor="start" x="201" y="-861.5" font-family="Helvetica,sans-Serif" font-size="10.00"> TSize2 &gt;, AMatrix::row_major</text>
<text text-anchor="middle" x="275.5" y="-850.5" font-family="Helvetica,sans-Serif" font-size="10.00">_access &gt;</text>
<polyline fill="none" stroke="#666666" points="193,-843.5 358,-843.5"/>
<text text-anchor="middle" x="275.5" y="-831.5" font-family="Helvetica,sans-Serif" font-size="10.00"> </text>
<polyline fill="none" stroke="#666666" points="193,-824.5 358,-824.5"/>
<text text-anchor="middle" x="275.5" y="-812.5" font-family="Helvetica,sans-Serif" font-size="10.00"> </text>
</a>
</g>
</g>
<!-- Node6&#45;&gt;Node5 -->
<g id="edge5" class="edge">
<title>Node6&#45;&gt;Node5</title>
<path fill="none" stroke="#63b8ff" d="M285.97,-794.57C296.32,-740.25 312.37,-656.09 324.72,-591.28"/>
<polygon fill="none" stroke="#63b8ff" points="282.57,-793.73 284.13,-804.21 289.44,-795.04 282.57,-793.73"/>
</g>
<!-- Node7 -->
<g id="node7" class="node">
<title>Node7</title>
<g id="a_node7"><a xlink:title=" ">
<polygon fill="white" stroke="#666666" points="376,-816.5 376,-884.5 525,-884.5 525,-816.5 376,-816.5"/>
<text text-anchor="start" x="384" y="-872.5" font-family="Helvetica,sans-Serif" font-size="10.00">AMatrix::MatrixStorage</text>
<text text-anchor="middle" x="450.5" y="-861.5" font-family="Helvetica,sans-Serif" font-size="10.00">&lt; double, TSize1, TSize2 &gt;</text>
<polyline fill="none" stroke="#666666" points="376,-854.5 525,-854.5"/>
<text text-anchor="middle" x="450.5" y="-842.5" font-family="Helvetica,sans-Serif" font-size="10.00"> </text>
<polyline fill="none" stroke="#666666" points="376,-835.5 525,-835.5"/>
<text text-anchor="middle" x="450.5" y="-823.5" font-family="Helvetica,sans-Serif" font-size="10.00"> </text>
</a>
</g>
</g>
<!-- Node7&#45;&gt;Node5 -->
<g id="edge6" class="edge">
<title>Node7&#45;&gt;Node5</title>
<path fill="none" stroke="#63b8ff" d="M437.12,-805.97C420.73,-752.6 392.49,-660.7 371.12,-591.14"/>
<polygon fill="none" stroke="#63b8ff" points="433.71,-806.77 439.99,-815.3 440.4,-804.71 433.71,-806.77"/>
</g>
</g>
</svg>
