<?xml version="1.0" encoding="UTF-8" standalone="no"?>
<!DOCTYPE svg PUBLIC "-//W3C//DTD SVG 1.1//EN"
 "http://www.w3.org/Graphics/SVG/1.1/DTD/svg11.dtd">
<!-- Generated by graphviz version 2.43.0 (0)
 -->
<!-- Title: /home/runner/work/Documentation/Documentation/master/kratos/utilities/brute_force_point_locator.h Pages: 1 -->
<svg width="3310pt" height="1034pt"
 viewBox="0.00 0.00 3310.00 1034.00" xmlns="http://www.w3.org/2000/svg" xmlns:xlink="http://www.w3.org/1999/xlink">
<g id="graph0" class="graph" transform="scale(1 1) rotate(0) translate(4 1030)">
<title>/home/runner/work/Documentation/Documentation/master/kratos/utilities/brute_force_point_locator.h</title>
<!-- Node1 -->
<g id="node1" class="node">
<title>Node1</title>
<g id="a_node1"><a xlink:title=" ">
<polygon fill="#bfbfbf" stroke="black" points="3094.5,-973.5 3094.5,-1025.5 3281.5,-1025.5 3281.5,-973.5 3094.5,-973.5"/>
<text text-anchor="start" x="3102.5" y="-1013.5" font-family="Helvetica,sans-Serif" font-size="10.00">/home/runner/work/Documentation</text>
<text text-anchor="start" x="3102.5" y="-1002.5" font-family="Helvetica,sans-Serif" font-size="10.00">/Documentation/master/kratos</text>
<text text-anchor="start" x="3102.5" y="-991.5" font-family="Helvetica,sans-Serif" font-size="10.00">/utilities/brute_force_point</text>
<text text-anchor="middle" x="3188" y="-980.5" font-family="Helvetica,sans-Serif" font-size="10.00">_locator.h</text>
</a>
</g>
</g>
<!-- Node2 -->
<g id="node2" class="node">
<title>Node2</title>
<g id="a_node2"><a xlink:href="../../df/d67/define_8h.html" target="_top" xlink:title=" ">
<polygon fill="none" stroke="black" points="1808.5,-190.5 1808.5,-209.5 1907.5,-209.5 1907.5,-190.5 1808.5,-190.5"/>
<text text-anchor="middle" x="1858" y="-197.5" font-family="Helvetica,sans-Serif" font-size="10.00">includes/define.h</text>
</a>
</g>
</g>
<!-- Node1&#45;&gt;Node2 -->
<g id="edge1" class="edge">
<title>Node1&#45;&gt;Node2</title>
<path fill="none" stroke="midnightblue" d="M3188,-973.3C3188,-947.77 3188,-907.14 3188,-872 3188,-872 3188,-872 3188,-629.5 3188,-416.12 3017.72,-408.69 2827,-313 2666,-232.22 2103.47,-208.36 1917.9,-202.59"/>
<polygon fill="midnightblue" stroke="midnightblue" points="1917.88,-199.09 1907.78,-202.29 1917.67,-206.09 1917.88,-199.09"/>
</g>
<!-- Node16 -->
<g id="node16" class="node">
<title>Node16</title>
<g id="a_node16"><a xlink:href="../../dd/dfe/model__part_8h.html" target="_top" xlink:title=" ">
<polygon fill="none" stroke="black" points="1728.5,-917.5 1728.5,-936.5 1853.5,-936.5 1853.5,-917.5 1728.5,-917.5"/>
<text text-anchor="middle" x="1791" y="-924.5" font-family="Helvetica,sans-Serif" font-size="10.00">includes/model_part.h</text>
</a>
</g>
</g>
<!-- Node1&#45;&gt;Node16 -->
<g id="edge24" class="edge">
<title>Node1&#45;&gt;Node16</title>
<path fill="none" stroke="midnightblue" d="M3094.44,-993.78C2832.93,-980.58 2098.16,-943.5 1863.8,-931.67"/>
<polygon fill="midnightblue" stroke="midnightblue" points="1863.85,-928.17 1853.68,-931.16 1863.49,-935.16 1863.85,-928.17"/>
</g>
<!-- Node68 -->
<g id="node50" class="node">
<title>Node68</title>
<g id="a_node50"><a xlink:href="../../d5/dfb/global__variables_8h.html" target="_top" xlink:title=" ">
<polygon fill="none" stroke="black" points="2409.5,-73 2409.5,-92 2558.5,-92 2558.5,-73 2409.5,-73"/>
<text text-anchor="middle" x="2484" y="-80" font-family="Helvetica,sans-Serif" font-size="10.00">includes/global_variables.h</text>
</a>
</g>
</g>
<!-- Node1&#45;&gt;Node68 -->
<g id="edge187" class="edge">
<title>Node1&#45;&gt;Node68</title>
<path fill="none" stroke="midnightblue" d="M3231.75,-973.32C3263.9,-951.2 3302,-915.75 3302,-872 3302,-872 3302,-872 3302,-691 3302,-305.77 2710.06,-136.34 2533.27,-94.32"/>
<polygon fill="midnightblue" stroke="midnightblue" points="2533.99,-90.9 2523.45,-92.02 2532.39,-97.71 2533.99,-90.9"/>
</g>
<!-- Node3 -->
<g id="node3" class="node">
<title>Node3</title>
<g id="a_node3"><a xlink:title=" ">
<polygon fill="none" stroke="#bfbfbf" points="1714.5,-73 1714.5,-92 1779.5,-92 1779.5,-73 1714.5,-73"/>
<text text-anchor="middle" x="1747" y="-80" font-family="Helvetica,sans-Serif" font-size="10.00">stdexcept</text>
</a>
</g>
</g>
<!-- Node2&#45;&gt;Node3 -->
<g id="edge2" class="edge">
<title>Node2&#45;&gt;Node3</title>
<path fill="none" stroke="midnightblue" d="M1841.43,-190.49C1826.92,-182.47 1805.9,-169.41 1791,-154 1775.84,-138.33 1763.25,-116.59 1755.47,-101.41"/>
<polygon fill="midnightblue" stroke="midnightblue" points="1758.45,-99.53 1750.89,-92.1 1752.17,-102.62 1758.45,-99.53"/>
</g>
<!-- Node4 -->
<g id="node4" class="node">
<title>Node4</title>
<g id="a_node4"><a xlink:title=" ">
<polygon fill="none" stroke="#bfbfbf" points="523,-73 523,-92 579,-92 579,-73 523,-73"/>
<text text-anchor="middle" x="551" y="-80" font-family="Helvetica,sans-Serif" font-size="10.00">sstream</text>
</a>
</g>
</g>
<!-- Node2&#45;&gt;Node4 -->
<g id="edge3" class="edge">
<title>Node2&#45;&gt;Node4</title>
<path fill="none" stroke="midnightblue" d="M1808.36,-194.61C1597.27,-175.96 776.45,-103.42 589.18,-86.87"/>
<polygon fill="midnightblue" stroke="midnightblue" points="589.27,-83.37 579,-85.97 588.66,-90.34 589.27,-83.37"/>
</g>
<!-- Node5 -->
<g id="node5" class="node">
<title>Node5</title>
<g id="a_node5"><a xlink:href="../../dc/d25/kratos__export__api_8h.html" target="_top" xlink:title=" ">
<polygon fill="none" stroke="black" points="2010,-0.5 2010,-30.5 2138,-30.5 2138,-0.5 2010,-0.5"/>
<text text-anchor="start" x="2018" y="-18.5" font-family="Helvetica,sans-Serif" font-size="10.00">includes/kratos_export</text>
<text text-anchor="middle" x="2074" y="-7.5" font-family="Helvetica,sans-Serif" font-size="10.00">_api.h</text>
</a>
</g>
</g>
<!-- Node2&#45;&gt;Node5 -->
<g id="edge4" class="edge">
<title>Node2&#45;&gt;Node5</title>
<path fill="none" stroke="midnightblue" d="M1832.77,-190.38C1778.67,-170.61 1660.05,-119.68 1706,-67 1743.32,-24.21 1903.4,-16.39 1999.71,-15.68"/>
<polygon fill="midnightblue" stroke="midnightblue" points="2000,-19.18 2009.98,-15.63 1999.96,-12.18 2000,-19.18"/>
</g>
<!-- Node6 -->
<g id="node6" class="node">
<title>Node6</title>
<g id="a_node6"><a xlink:href="../../d9/dc0/smart__pointers_8h.html" target="_top" xlink:title=" ">
<polygon fill="none" stroke="black" points="1448.5,-134.5 1448.5,-153.5 1591.5,-153.5 1591.5,-134.5 1448.5,-134.5"/>
<text text-anchor="middle" x="1520" y="-141.5" font-family="Helvetica,sans-Serif" font-size="10.00">includes/smart_pointers.h</text>
</a>
</g>
</g>
<!-- Node2&#45;&gt;Node6 -->
<g id="edge5" class="edge">
<title>Node2&#45;&gt;Node6</title>
<path fill="none" stroke="midnightblue" d="M1808.49,-191.09C1748.88,-181.57 1648.65,-165.55 1583.43,-155.13"/>
<polygon fill="midnightblue" stroke="midnightblue" points="1583.7,-151.63 1573.27,-153.51 1582.59,-158.54 1583.7,-151.63"/>
</g>
<!-- Node11 -->
<g id="node11" class="node">
<title>Node11</title>
<g id="a_node11"><a xlink:href="../../dd/d2d/exception_8h.html" target="_top" xlink:title=" ">
<polygon fill="none" stroke="black" points="1799.5,-134.5 1799.5,-153.5 1916.5,-153.5 1916.5,-134.5 1799.5,-134.5"/>
<text text-anchor="middle" x="1858" y="-141.5" font-family="Helvetica,sans-Serif" font-size="10.00">includes/exception.h</text>
</a>
</g>
</g>
<!-- Node2&#45;&gt;Node11 -->
<g id="edge10" class="edge">
<title>Node2&#45;&gt;Node11</title>
<path fill="none" stroke="midnightblue" d="M1858,-190.08C1858,-183.01 1858,-172.86 1858,-163.99"/>
<polygon fill="midnightblue" stroke="midnightblue" points="1861.5,-163.75 1858,-153.75 1854.5,-163.75 1861.5,-163.75"/>
</g>
<!-- Node7 -->
<g id="node7" class="node">
<title>Node7</title>
<g id="a_node7"><a xlink:title=" ">
<polygon fill="none" stroke="#bfbfbf" points="1286,-6 1286,-25 1346,-25 1346,-6 1286,-6"/>
<text text-anchor="middle" x="1316" y="-13" font-family="Helvetica,sans-Serif" font-size="10.00">iostream</text>
</a>
</g>
</g>
<!-- Node6&#45;&gt;Node7 -->
<g id="edge6" class="edge">
<title>Node6&#45;&gt;Node7</title>
<path fill="none" stroke="midnightblue" d="M1505.96,-134.45C1491.53,-125.57 1468.46,-111.17 1449,-98 1429.49,-84.8 1425.86,-79.67 1406,-67 1384.78,-53.46 1359.74,-39.57 1341.47,-29.79"/>
<polygon fill="midnightblue" stroke="midnightblue" points="1343.06,-26.67 1332.58,-25.08 1339.78,-32.86 1343.06,-26.67"/>
</g>
<!-- Node8 -->
<g id="node8" class="node">
<title>Node8</title>
<g id="a_node8"><a xlink:title=" ">
<polygon fill="none" stroke="#bfbfbf" points="160.5,-73 160.5,-92 205.5,-92 205.5,-73 160.5,-73"/>
<text text-anchor="middle" x="183" y="-80" font-family="Helvetica,sans-Serif" font-size="10.00">utility</text>
</a>
</g>
</g>
<!-- Node6&#45;&gt;Node8 -->
<g id="edge7" class="edge">
<title>Node6&#45;&gt;Node8</title>
<path fill="none" stroke="midnightblue" d="M1448.17,-142.04C1215.94,-138.7 486.96,-126.18 253,-98 240.61,-96.51 227.16,-93.95 215.38,-91.4"/>
<polygon fill="midnightblue" stroke="midnightblue" points="216.06,-87.96 205.54,-89.18 214.52,-94.79 216.06,-87.96"/>
</g>
<!-- Node9 -->
<g id="node9" class="node">
<title>Node9</title>
<g id="a_node9"><a xlink:title=" ">
<polygon fill="none" stroke="#bfbfbf" points="1600,-73 1600,-92 1658,-92 1658,-73 1600,-73"/>
<text text-anchor="middle" x="1629" y="-80" font-family="Helvetica,sans-Serif" font-size="10.00">memory</text>
</a>
</g>
</g>
<!-- Node6&#45;&gt;Node9 -->
<g id="edge8" class="edge">
<title>Node6&#45;&gt;Node9</title>
<path fill="none" stroke="midnightblue" d="M1535.62,-134.48C1553.59,-124.67 1583.32,-108.43 1604.41,-96.92"/>
<polygon fill="midnightblue" stroke="midnightblue" points="1606.31,-99.87 1613.41,-92.01 1602.96,-93.73 1606.31,-99.87"/>
</g>
<!-- Node10 -->
<g id="node10" class="node">
<title>Node10</title>
<g id="a_node10"><a xlink:title=" ">
<polygon fill="none" stroke="#bfbfbf" points="1458,-67.5 1458,-97.5 1582,-97.5 1582,-67.5 1458,-67.5"/>
<text text-anchor="start" x="1466" y="-85.5" font-family="Helvetica,sans-Serif" font-size="10.00">intrusive_ptr/intrusive</text>
<text text-anchor="middle" x="1520" y="-74.5" font-family="Helvetica,sans-Serif" font-size="10.00">_ptr.hpp</text>
</a>
</g>
</g>
<!-- Node6&#45;&gt;Node10 -->
<g id="edge9" class="edge">
<title>Node6&#45;&gt;Node10</title>
<path fill="none" stroke="midnightblue" d="M1520,-134.48C1520,-127.47 1520,-117.19 1520,-107.7"/>
<polygon fill="midnightblue" stroke="midnightblue" points="1523.5,-107.52 1520,-97.52 1516.5,-107.52 1523.5,-107.52"/>
</g>
<!-- Node11&#45;&gt;Node3 -->
<g id="edge11" class="edge">
<title>Node11&#45;&gt;Node3</title>
<path fill="none" stroke="midnightblue" d="M1842.1,-134.48C1823.72,-124.62 1793.24,-108.29 1771.76,-96.77"/>
<polygon fill="midnightblue" stroke="midnightblue" points="1773.34,-93.65 1762.87,-92.01 1770.03,-99.82 1773.34,-93.65"/>
</g>
<!-- Node11&#45;&gt;Node4 -->
<g id="edge14" class="edge">
<title>Node11&#45;&gt;Node4</title>
<path fill="none" stroke="midnightblue" d="M1799.3,-140.33C1574.8,-130.11 773.89,-93.65 589.19,-85.24"/>
<polygon fill="midnightblue" stroke="midnightblue" points="589.29,-81.74 579.14,-84.78 588.97,-88.73 589.29,-81.74"/>
</g>
<!-- Node11&#45;&gt;Node5 -->
<g id="edge16" class="edge">
<title>Node11&#45;&gt;Node5</title>
<path fill="none" stroke="midnightblue" d="M1872.85,-134.31C1907.32,-114.12 1993.47,-63.66 2041.08,-35.78"/>
<polygon fill="midnightblue" stroke="midnightblue" points="2042.92,-38.76 2049.78,-30.68 2039.39,-32.72 2042.92,-38.76"/>
</g>
<!-- Node11&#45;&gt;Node7 -->
<g id="edge13" class="edge">
<title>Node11&#45;&gt;Node7</title>
<path fill="none" stroke="midnightblue" d="M1856.67,-134.15C1853.71,-117.82 1844.91,-83.15 1822,-67 1784.21,-40.37 1469.51,-23.51 1356.34,-18.26"/>
<polygon fill="midnightblue" stroke="midnightblue" points="1356.5,-14.76 1346.35,-17.8 1356.18,-21.76 1356.5,-14.76"/>
</g>
<!-- Node12 -->
<g id="node12" class="node">
<title>Node12</title>
<g id="a_node12"><a xlink:title=" ">
<polygon fill="none" stroke="#bfbfbf" points="2786,-6 2786,-25 2830,-25 2830,-6 2786,-6"/>
<text text-anchor="middle" x="2808" y="-13" font-family="Helvetica,sans-Serif" font-size="10.00">string</text>
</a>
</g>
</g>
<!-- Node11&#45;&gt;Node12 -->
<g id="edge12" class="edge">
<title>Node11&#45;&gt;Node12</title>
<path fill="none" stroke="midnightblue" d="M1916.6,-138.54C2025.96,-129.97 2253.2,-110.9 2287,-98 2309.01,-89.6 2307.99,-75.41 2330,-67 2412.01,-35.67 2682.14,-21.72 2775.74,-17.75"/>
<polygon fill="midnightblue" stroke="midnightblue" points="2776.15,-21.24 2786,-17.33 2775.86,-14.24 2776.15,-21.24"/>
</g>
<!-- Node13 -->
<g id="node13" class="node">
<title>Node13</title>
<g id="a_node13"><a xlink:title=" ">
<polygon fill="none" stroke="#bfbfbf" points="150.5,-6 150.5,-25 197.5,-25 197.5,-6 150.5,-6"/>
<text text-anchor="middle" x="174" y="-13" font-family="Helvetica,sans-Serif" font-size="10.00">vector</text>
</a>
</g>
</g>
<!-- Node11&#45;&gt;Node13 -->
<g id="edge15" class="edge">
<title>Node11&#45;&gt;Node13</title>
<path fill="none" stroke="midnightblue" d="M1850.7,-134.22C1834.65,-115.02 1797.09,-70.73 1789,-67 1714.68,-32.7 433.14,-18.96 207.72,-16.81"/>
<polygon fill="midnightblue" stroke="midnightblue" points="207.54,-13.31 197.51,-16.71 207.47,-20.31 207.54,-13.31"/>
</g>
<!-- Node14 -->
<g id="node14" class="node">
<title>Node14</title>
<g id="a_node14"><a xlink:href="../../da/da6/code__location_8h.html" target="_top" xlink:title=" ">
<polygon fill="none" stroke="black" points="2140.5,-73 2140.5,-92 2277.5,-92 2277.5,-73 2140.5,-73"/>
<text text-anchor="middle" x="2209" y="-80" font-family="Helvetica,sans-Serif" font-size="10.00">includes/code_location.h</text>
</a>
</g>
</g>
<!-- Node11&#45;&gt;Node14 -->
<g id="edge17" class="edge">
<title>Node11&#45;&gt;Node14</title>
<path fill="none" stroke="midnightblue" d="M1908.29,-134.48C1971.76,-123.72 2080.81,-105.23 2148.69,-93.72"/>
<polygon fill="midnightblue" stroke="midnightblue" points="2149.53,-97.13 2158.8,-92.01 2148.36,-90.23 2149.53,-97.13"/>
</g>
<!-- Node15 -->
<g id="node15" class="node">
<title>Node15</title>
<g id="a_node15"><a xlink:href="../../d9/d06/stl__vector__io_8h.html" target="_top" xlink:title=" ">
<polygon fill="none" stroke="black" points="262,-73 262,-92 390,-92 390,-73 262,-73"/>
<text text-anchor="middle" x="326" y="-80" font-family="Helvetica,sans-Serif" font-size="10.00">utilities/stl_vector_io.h</text>
</a>
</g>
</g>
<!-- Node11&#45;&gt;Node15 -->
<g id="edge21" class="edge">
<title>Node11&#45;&gt;Node15</title>
<path fill="none" stroke="midnightblue" d="M1799.31,-140.91C1747.22,-139.07 1669.04,-136.32 1601,-134 1117.9,-117.54 996.64,-124.59 514,-98 476.52,-95.93 434.89,-92.81 400.35,-89.99"/>
<polygon fill="midnightblue" stroke="midnightblue" points="400.6,-86.5 390.34,-89.16 400.02,-93.47 400.6,-86.5"/>
</g>
<!-- Node14&#45;&gt;Node5 -->
<g id="edge20" class="edge">
<title>Node14&#45;&gt;Node5</title>
<path fill="none" stroke="midnightblue" d="M2191.07,-72.87C2171.08,-63.24 2138.15,-47.39 2112.3,-34.94"/>
<polygon fill="midnightblue" stroke="midnightblue" points="2113.66,-31.71 2103.14,-30.53 2110.63,-38.02 2113.66,-31.71"/>
</g>
<!-- Node14&#45;&gt;Node7 -->
<g id="edge19" class="edge">
<title>Node14&#45;&gt;Node7</title>
<path fill="none" stroke="midnightblue" d="M2165.63,-72.99C2152.9,-70.75 2138.93,-68.53 2126,-67 1831.94,-32.26 1474.81,-20.52 1356.33,-17.44"/>
<polygon fill="midnightblue" stroke="midnightblue" points="1356.35,-13.94 1346.26,-17.18 1356.17,-20.93 1356.35,-13.94"/>
</g>
<!-- Node14&#45;&gt;Node12 -->
<g id="edge18" class="edge">
<title>Node14&#45;&gt;Node12</title>
<path fill="none" stroke="midnightblue" d="M2254.13,-72.98C2266.39,-70.84 2279.68,-68.68 2292,-67 2474.24,-42.2 2694.28,-24.82 2775.69,-18.81"/>
<polygon fill="midnightblue" stroke="midnightblue" points="2776.08,-22.29 2785.8,-18.07 2775.57,-15.31 2776.08,-22.29"/>
</g>
<!-- Node15&#45;&gt;Node7 -->
<g id="edge22" class="edge">
<title>Node15&#45;&gt;Node7</title>
<path fill="none" stroke="midnightblue" d="M366.33,-72.98C378.4,-70.71 391.69,-68.48 404,-67 739.37,-26.71 1148.06,-18.51 1275.86,-16.89"/>
<polygon fill="midnightblue" stroke="midnightblue" points="1276,-20.38 1285.96,-16.76 1275.92,-13.38 1276,-20.38"/>
</g>
<!-- Node15&#45;&gt;Node13 -->
<g id="edge23" class="edge">
<title>Node15&#45;&gt;Node13</title>
<path fill="none" stroke="midnightblue" d="M305.82,-72.87C279.7,-61.7 233.97,-42.15 203.84,-29.26"/>
<polygon fill="midnightblue" stroke="midnightblue" points="204.84,-25.88 194.27,-25.17 202.09,-32.32 204.84,-25.88"/>
</g>
<!-- Node16&#45;&gt;Node2 -->
<g id="edge29" class="edge">
<title>Node16&#45;&gt;Node2</title>
<path fill="none" stroke="midnightblue" d="M1853.71,-924.92C1953.64,-922.26 2154.81,-913.02 2322,-881 2406.37,-864.84 2428.93,-860.84 2507,-825 2579.58,-791.68 2615.52,-778.64 2638,-702 2707.68,-464.42 2556.11,-313.86 2318,-246 2178.63,-206.28 2006.97,-200.21 1917.94,-200.07"/>
<polygon fill="midnightblue" stroke="midnightblue" points="1917.75,-196.57 1907.76,-200.09 1917.76,-203.57 1917.75,-196.57"/>
</g>
<!-- Node16&#45;&gt;Node4 -->
<g id="edge27" class="edge">
<title>Node16&#45;&gt;Node4</title>
<path fill="none" stroke="midnightblue" d="M1728.44,-925.33C1420,-921.6 76,-900.52 76,-816 76,-816 76,-816 76,-439.5 76,-221.64 399.91,-120.83 512.77,-92.31"/>
<polygon fill="midnightblue" stroke="midnightblue" points="513.84,-95.65 522.71,-89.85 512.16,-88.86 513.84,-95.65"/>
</g>
<!-- Node16&#45;&gt;Node7 -->
<g id="edge26" class="edge">
<title>Node16&#45;&gt;Node7</title>
<path fill="none" stroke="midnightblue" d="M1728.5,-926.04C1477.65,-925.91 543.45,-922.6 251,-881 136.91,-864.77 0,-931.24 0,-816 0,-816 0,-816 0,-378 0,-224.35 22.56,-151.34 151,-67 198.98,-35.49 1076.46,-20.17 1275.9,-17.09"/>
<polygon fill="midnightblue" stroke="midnightblue" points="1276,-20.59 1285.95,-16.94 1275.9,-13.59 1276,-20.59"/>
</g>
<!-- Node16&#45;&gt;Node12 -->
<g id="edge25" class="edge">
<title>Node16&#45;&gt;Node12</title>
<path fill="none" stroke="midnightblue" d="M1853.63,-925.44C2076.32,-923.16 2821.98,-913.21 2924,-881 3148.92,-809.99 3302,-744.37 3302,-508.5 3302,-508.5 3302,-508.5 3302,-143 3302,-97.08 3272.89,-87.9 3232,-67 3163.41,-31.94 2926.73,-20.52 2840.1,-17.47"/>
<polygon fill="midnightblue" stroke="midnightblue" points="2840.18,-13.97 2830.06,-17.13 2839.94,-20.96 2840.18,-13.97"/>
</g>
<!-- Node17 -->
<g id="node17" class="node">
<title>Node17</title>
<g id="a_node17"><a xlink:title=" ">
<polygon fill="none" stroke="#bfbfbf" points="1514.5,-369.5 1514.5,-388.5 1567.5,-388.5 1567.5,-369.5 1514.5,-369.5"/>
<text text-anchor="middle" x="1541" y="-376.5" font-family="Helvetica,sans-Serif" font-size="10.00">cstddef</text>
</a>
</g>
</g>
<!-- Node16&#45;&gt;Node17 -->
<g id="edge28" class="edge">
<title>Node16&#45;&gt;Node17</title>
<path fill="none" stroke="midnightblue" d="M1728.43,-923.37C1548.41,-914.96 1042,-885.16 1042,-816 1042,-816 1042,-816 1042,-629.5 1042,-531.53 1150.6,-572.74 1235,-523 1305.54,-481.43 1316.44,-458.85 1391,-425 1428.26,-408.09 1473.54,-395.51 1504.55,-388.01"/>
<polygon fill="midnightblue" stroke="midnightblue" points="1505.55,-391.37 1514.48,-385.67 1503.95,-384.56 1505.55,-391.37"/>
</g>
<!-- Node18 -->
<g id="node18" class="node">
<title>Node18</title>
<g id="a_node18"><a xlink:href="../../dd/d5f/serializer_8h.html" target="_top" xlink:title=" ">
<polygon fill="none" stroke="black" points="1012.5,-369.5 1012.5,-388.5 1125.5,-388.5 1125.5,-369.5 1012.5,-369.5"/>
<text text-anchor="middle" x="1069" y="-376.5" font-family="Helvetica,sans-Serif" font-size="10.00">includes/serializer.h</text>
</a>
</g>
</g>
<!-- Node16&#45;&gt;Node18 -->
<g id="edge30" class="edge">
<title>Node16&#45;&gt;Node18</title>
<path fill="none" stroke="midnightblue" d="M1728.36,-926.13C1544.87,-926 1010.89,-922.03 842,-881 774.55,-864.61 700,-885.41 700,-816 700,-816 700,-816 700,-752.5 700,-560.35 950.88,-431.82 1038.91,-392.63"/>
<polygon fill="midnightblue" stroke="midnightblue" points="1040.35,-395.82 1048.1,-388.6 1037.54,-389.41 1040.35,-395.82"/>
</g>
<!-- Node52 -->
<g id="node29" class="node">
<title>Node52</title>
<g id="a_node29"><a xlink:href="../../d1/d8c/logger_8h.html" target="_top" xlink:title=" ">
<polygon fill="none" stroke="red" points="2698,-313.5 2698,-332.5 2818,-332.5 2818,-313.5 2698,-313.5"/>
<text text-anchor="middle" x="2758" y="-320.5" font-family="Helvetica,sans-Serif" font-size="10.00">input_output/logger.h</text>
</a>
</g>
</g>
<!-- Node16&#45;&gt;Node52 -->
<g id="edge182" class="edge">
<title>Node16&#45;&gt;Node52</title>
<path fill="none" stroke="midnightblue" d="M1853.77,-926.26C2050.72,-926.6 2654.63,-924.01 2845,-881 2917.07,-864.72 2998,-889.88 2998,-816 2998,-816 2998,-816 2998,-568 2998,-449.03 2851.19,-366.9 2787.22,-336.76"/>
<polygon fill="midnightblue" stroke="midnightblue" points="2788.6,-333.54 2778.05,-332.53 2785.66,-339.9 2788.6,-333.54"/>
</g>
<!-- Node56 -->
<g id="node30" class="node">
<title>Node56</title>
<g id="a_node30"><a xlink:href="../../de/db8/process__info_8h.html" target="_top" xlink:title=" ">
<polygon fill="none" stroke="black" points="1955.5,-682.5 1955.5,-701.5 2086.5,-701.5 2086.5,-682.5 1955.5,-682.5"/>
<text text-anchor="middle" x="2021" y="-689.5" font-family="Helvetica,sans-Serif" font-size="10.00">includes/process_info.h</text>
</a>
</g>
</g>
<!-- Node16&#45;&gt;Node56 -->
<g id="edge64" class="edge">
<title>Node16&#45;&gt;Node56</title>
<path fill="none" stroke="midnightblue" d="M1799.46,-917.43C1833.4,-883.04 1960.07,-754.72 2005.04,-709.17"/>
<polygon fill="midnightblue" stroke="midnightblue" points="2007.68,-711.47 2012.22,-701.9 2002.7,-706.55 2007.68,-711.47"/>
</g>
<!-- Node57 -->
<g id="node31" class="node">
<title>Node57</title>
<g id="a_node31"><a xlink:href="../../d1/d82/data__value__container_8h.html" target="_top" xlink:title=" ">
<polygon fill="none" stroke="black" points="1838.5,-615.5 1838.5,-645.5 1963.5,-645.5 1963.5,-615.5 1838.5,-615.5"/>
<text text-anchor="start" x="1846.5" y="-633.5" font-family="Helvetica,sans-Serif" font-size="10.00">containers/data_value</text>
<text text-anchor="middle" x="1901" y="-622.5" font-family="Helvetica,sans-Serif" font-size="10.00">_container.h</text>
</a>
</g>
</g>
<!-- Node16&#45;&gt;Node57 -->
<g id="edge96" class="edge">
<title>Node16&#45;&gt;Node57</title>
<path fill="none" stroke="midnightblue" d="M1793.56,-917.25C1798.75,-898.74 1810,-854.18 1810,-816 1810,-816 1810,-816 1810,-752.5 1810,-710.34 1845.73,-673.51 1872.41,-651.88"/>
<polygon fill="midnightblue" stroke="midnightblue" points="1874.63,-654.58 1880.35,-645.67 1870.32,-649.07 1874.63,-654.58"/>
</g>
<!-- Node58 -->
<g id="node32" class="node">
<title>Node58</title>
<g id="a_node32"><a xlink:href="../../da/d89/variable_8h.html" target="_top" xlink:title=" ">
<polygon fill="none" stroke="black" points="1748.5,-498 1748.5,-517 1867.5,-517 1867.5,-498 1748.5,-498"/>
<text text-anchor="middle" x="1808" y="-505" font-family="Helvetica,sans-Serif" font-size="10.00">containers/variable.h</text>
</a>
</g>
</g>
<!-- Node16&#45;&gt;Node58 -->
<g id="edge185" class="edge">
<title>Node16&#45;&gt;Node58</title>
<path fill="none" stroke="midnightblue" d="M1741.68,-917.45C1660.11,-901.9 1506,-865.92 1506,-816 1506,-816 1506,-816 1506,-752.5 1506,-619.53 1685.33,-546.6 1767.61,-520.14"/>
<polygon fill="midnightblue" stroke="midnightblue" points="1768.89,-523.41 1777.38,-517.07 1766.79,-516.73 1768.89,-523.41"/>
</g>
<!-- Node59 -->
<g id="node33" class="node">
<title>Node59</title>
<g id="a_node33"><a xlink:href="../../d3/dc3/variable__data_8h.html" target="_top" xlink:title=" ">
<polygon fill="none" stroke="red" points="1624,-431 1624,-450 1716,-450 1716,-431 1624,-431"/>
<text text-anchor="middle" x="1670" y="-438" font-family="Helvetica,sans-Serif" font-size="10.00">variable_data.h</text>
</a>
</g>
</g>
<!-- Node16&#45;&gt;Node59 -->
<g id="edge186" class="edge">
<title>Node16&#45;&gt;Node59</title>
<path fill="none" stroke="midnightblue" d="M1728.39,-922.36C1612.11,-911.62 1368.58,-869.22 1302,-702 1287.6,-665.84 1271.03,-647.79 1292,-615 1363.55,-503.08 1527.47,-462.42 1614.05,-448.4"/>
<polygon fill="midnightblue" stroke="midnightblue" points="1614.62,-451.85 1623.96,-446.85 1613.54,-444.93 1614.62,-451.85"/>
</g>
<!-- Node69 -->
<g id="node35" class="node">
<title>Node69</title>
<g id="a_node35"><a xlink:href="../../d8/d3b/mesh_8h.html" target="_top" xlink:title=" ">
<polygon fill="none" stroke="black" points="1557,-805.5 1557,-824.5 1653,-824.5 1653,-805.5 1557,-805.5"/>
<text text-anchor="middle" x="1605" y="-812.5" font-family="Helvetica,sans-Serif" font-size="10.00">includes/mesh.h</text>
</a>
</g>
</g>
<!-- Node16&#45;&gt;Node69 -->
<g id="edge97" class="edge">
<title>Node16&#45;&gt;Node69</title>
<path fill="none" stroke="midnightblue" d="M1776.4,-917.37C1744.35,-898.41 1667.56,-853 1628.58,-829.94"/>
<polygon fill="midnightblue" stroke="midnightblue" points="1629.92,-826.67 1619.53,-824.59 1626.35,-832.69 1629.92,-826.67"/>
</g>
<!-- Node73 -->
<g id="node37" class="node">
<title>Node73</title>
<g id="a_node37"><a xlink:href="../../d2/d58/pointer__vector__map_8h.html" target="_top" xlink:title=" ">
<polygon fill="none" stroke="red" points="461.5,-425.5 461.5,-455.5 566.5,-455.5 566.5,-425.5 461.5,-425.5"/>
<text text-anchor="start" x="469.5" y="-443.5" font-family="Helvetica,sans-Serif" font-size="10.00">containers/pointer</text>
<text text-anchor="middle" x="514" y="-432.5" font-family="Helvetica,sans-Serif" font-size="10.00">_vector_map.h</text>
</a>
</g>
</g>
<!-- Node16&#45;&gt;Node73 -->
<g id="edge180" class="edge">
<title>Node16&#45;&gt;Node73</title>
<path fill="none" stroke="midnightblue" d="M1728.38,-925.27C1530.11,-922.64 924.41,-912.12 842,-881 733.78,-840.13 662,-808.68 662,-693 662,-693 662,-693 662,-568 662,-514.78 606.02,-479.17 562.91,-459.65"/>
<polygon fill="midnightblue" stroke="midnightblue" points="564.23,-456.4 553.66,-455.61 561.43,-462.82 564.23,-456.4"/>
</g>
<!-- Node86 -->
<g id="node40" class="node">
<title>Node86</title>
<g id="a_node40"><a xlink:href="../../da/da4/master__slave__constraint_8h.html" target="_top" xlink:title=" ">
<polygon fill="none" stroke="red" points="1656,-738.5 1656,-768.5 1782,-768.5 1782,-738.5 1656,-738.5"/>
<text text-anchor="start" x="1664" y="-756.5" font-family="Helvetica,sans-Serif" font-size="10.00">includes/master_slave</text>
<text text-anchor="middle" x="1719" y="-745.5" font-family="Helvetica,sans-Serif" font-size="10.00">_constraint.h</text>
</a>
</g>
</g>
<!-- Node16&#45;&gt;Node86 -->
<g id="edge184" class="edge">
<title>Node16&#45;&gt;Node86</title>
<path fill="none" stroke="midnightblue" d="M1787.33,-917.26C1776.62,-891.76 1745.16,-816.81 1728.93,-778.15"/>
<polygon fill="midnightblue" stroke="midnightblue" points="1732.07,-776.59 1724.97,-768.72 1725.61,-779.3 1732.07,-776.59"/>
</g>
<!-- Node98 -->
<g id="node41" class="node">
<title>Node98</title>
<g id="a_node41"><a xlink:href="../../d0/dac/kratos__flags_8h.html" target="_top" xlink:title=" ">
<polygon fill="none" stroke="black" points="2081,-621 2081,-640 2209,-640 2209,-621 2081,-621"/>
<text text-anchor="middle" x="2145" y="-628" font-family="Helvetica,sans-Serif" font-size="10.00">includes/kratos_flags.h</text>
</a>
</g>
</g>
<!-- Node16&#45;&gt;Node98 -->
<g id="edge183" class="edge">
<title>Node16&#45;&gt;Node98</title>
<path fill="none" stroke="midnightblue" d="M1853.63,-923.21C2021.11,-914.28 2472.52,-880.16 2560,-769 2651.64,-652.55 2362.12,-633.75 2219.53,-631.38"/>
<polygon fill="midnightblue" stroke="midnightblue" points="2219.15,-627.87 2209.1,-631.23 2219.05,-634.87 2219.15,-627.87"/>
</g>
<!-- Node99 -->
<g id="node42" class="node">
<title>Node99</title>
<g id="a_node42"><a xlink:href="../../d3/dad/geometry__container_8h.html" target="_top" xlink:title=" ">
<polygon fill="none" stroke="black" points="1108,-492.5 1108,-522.5 1226,-522.5 1226,-492.5 1108,-492.5"/>
<text text-anchor="start" x="1116" y="-510.5" font-family="Helvetica,sans-Serif" font-size="10.00">containers/geometry</text>
<text text-anchor="middle" x="1167" y="-499.5" font-family="Helvetica,sans-Serif" font-size="10.00">_container.h</text>
</a>
</g>
</g>
<!-- Node16&#45;&gt;Node99 -->
<g id="edge138" class="edge">
<title>Node16&#45;&gt;Node99</title>
<path fill="none" stroke="midnightblue" d="M1728.45,-924.81C1544.27,-920.99 1015.27,-907.73 990,-881 936.21,-824.1 907.64,-705.49 1028,-559 1045.42,-537.8 1072.51,-525.5 1098.17,-518.37"/>
<polygon fill="midnightblue" stroke="midnightblue" points="1099.08,-521.74 1107.91,-515.88 1097.35,-514.96 1099.08,-521.74"/>
</g>
<!-- Node100 -->
<g id="node43" class="node">
<title>Node100</title>
<g id="a_node43"><a xlink:href="../../da/d92/pointer__hash__map__set_8h.html" target="_top" xlink:title=" ">
<polygon fill="none" stroke="red" points="1082.5,-425.5 1082.5,-455.5 1187.5,-455.5 1187.5,-425.5 1082.5,-425.5"/>
<text text-anchor="start" x="1090.5" y="-443.5" font-family="Helvetica,sans-Serif" font-size="10.00">containers/pointer</text>
<text text-anchor="middle" x="1135" y="-432.5" font-family="Helvetica,sans-Serif" font-size="10.00">_hash_map_set.h</text>
</a>
</g>
</g>
<!-- Node16&#45;&gt;Node100 -->
<g id="edge181" class="edge">
<title>Node16&#45;&gt;Node100</title>
<path fill="none" stroke="midnightblue" d="M1728.27,-925.82C1506.98,-924.36 776,-912.27 776,-816 776,-816 776,-816 776,-691 776,-548.32 969.59,-480.64 1072.45,-454.76"/>
<polygon fill="midnightblue" stroke="midnightblue" points="1073.54,-458.1 1082.41,-452.31 1071.87,-451.3 1073.54,-458.1"/>
</g>
<!-- Node101 -->
<g id="node44" class="node">
<title>Node101</title>
<g id="a_node44"><a xlink:href="../../d4/dfe/element_8h.html" target="_top" xlink:title=" ">
<polygon fill="none" stroke="red" points="1938,-805.5 1938,-824.5 2048,-824.5 2048,-805.5 1938,-805.5"/>
<text text-anchor="middle" x="1993" y="-812.5" font-family="Helvetica,sans-Serif" font-size="10.00">includes/element.h</text>
</a>
</g>
</g>
<!-- Node16&#45;&gt;Node101 -->
<g id="edge145" class="edge">
<title>Node16&#45;&gt;Node101</title>
<path fill="none" stroke="midnightblue" d="M1806.85,-917.37C1841.88,-898.29 1926.12,-852.42 1968.2,-829.51"/>
<polygon fill="midnightblue" stroke="midnightblue" points="1970.11,-832.45 1977.22,-824.59 1966.77,-826.3 1970.11,-832.45"/>
</g>
<!-- Node103 -->
<g id="node46" class="node">
<title>Node103</title>
<g id="a_node46"><a xlink:href="../../dd/d98/table_8h.html" target="_top" xlink:title=" ">
<polygon fill="none" stroke="black" points="2799,-559.5 2799,-578.5 2893,-578.5 2893,-559.5 2799,-559.5"/>
<text text-anchor="middle" x="2846" y="-566.5" font-family="Helvetica,sans-Serif" font-size="10.00">includes/table.h</text>
</a>
</g>
</g>
<!-- Node16&#45;&gt;Node103 -->
<g id="edge179" class="edge">
<title>Node16&#45;&gt;Node103</title>
<path fill="none" stroke="midnightblue" d="M1853.51,-925.17C2070.89,-922.03 2782.79,-909.61 2822,-881 2846.88,-862.85 2846,-846.8 2846,-816 2846,-816 2846,-816 2846,-691 2846,-654.71 2846,-612.31 2846,-588.56"/>
<polygon fill="midnightblue" stroke="midnightblue" points="2849.5,-588.51 2846,-578.51 2842.5,-588.51 2849.5,-588.51"/>
</g>
<!-- Node118 -->
<g id="node48" class="node">
<title>Node118</title>
<g id="a_node48"><a xlink:href="../../d7/d6c/condition_8h.html" target="_top" xlink:title=" ">
<polygon fill="none" stroke="red" points="2066,-805.5 2066,-824.5 2180,-824.5 2180,-805.5 2066,-805.5"/>
<text text-anchor="middle" x="2123" y="-812.5" font-family="Helvetica,sans-Serif" font-size="10.00">includes/condition.h</text>
</a>
</g>
</g>
<!-- Node16&#45;&gt;Node118 -->
<g id="edge166" class="edge">
<title>Node16&#45;&gt;Node118</title>
<path fill="none" stroke="midnightblue" d="M1853.52,-921.31C1924.76,-915.05 2035.97,-902.21 2072,-881 2090.86,-869.9 2105.35,-848.94 2113.99,-833.82"/>
<polygon fill="midnightblue" stroke="midnightblue" points="2117.14,-835.35 2118.8,-824.89 2110.98,-832.03 2117.14,-835.35"/>
</g>
<!-- Node119 -->
<g id="node49" class="node">
<title>Node119</title>
<g id="a_node49"><a xlink:href="../../d8/d75/communicator_8h.html" target="_top" xlink:title=" ">
<polygon fill="none" stroke="black" points="1923.5,-861.5 1923.5,-880.5 2062.5,-880.5 2062.5,-861.5 1923.5,-861.5"/>
<text text-anchor="middle" x="1993" y="-868.5" font-family="Helvetica,sans-Serif" font-size="10.00">includes/communicator.h</text>
</a>
</g>
</g>
<!-- Node16&#45;&gt;Node119 -->
<g id="edge170" class="edge">
<title>Node16&#45;&gt;Node119</title>
<path fill="none" stroke="midnightblue" d="M1823.01,-917.44C1857.73,-908.16 1913.29,-893.31 1951.38,-883.13"/>
<polygon fill="midnightblue" stroke="midnightblue" points="1952.39,-886.48 1961.14,-880.52 1950.58,-879.72 1952.39,-886.48"/>
</g>
<!-- Node18&#45;&gt;Node2 -->
<g id="edge40" class="edge">
<title>Node18&#45;&gt;Node2</title>
<path fill="none" stroke="midnightblue" d="M1125.6,-376.04C1249.53,-371.32 1536.76,-357.82 1573,-333 1608.59,-308.63 1581.61,-272.03 1616,-246 1623.3,-240.48 1729.21,-222.19 1798.48,-210.7"/>
<polygon fill="midnightblue" stroke="midnightblue" points="1799.12,-214.14 1808.42,-209.06 1797.98,-207.24 1799.12,-214.14"/>
</g>
<!-- Node18&#45;&gt;Node4 -->
<g id="edge38" class="edge">
<title>Node18&#45;&gt;Node4</title>
<path fill="none" stroke="midnightblue" d="M1012.46,-376.8C923.83,-373.95 757.22,-364.47 708,-333 620.2,-276.87 640.06,-221.85 584,-134 576.83,-122.76 568.63,-110.21 562.2,-100.43"/>
<polygon fill="midnightblue" stroke="midnightblue" points="565.09,-98.46 556.66,-92.04 559.24,-102.32 565.09,-98.46"/>
</g>
<!-- Node18&#45;&gt;Node7 -->
<g id="edge33" class="edge">
<title>Node18&#45;&gt;Node7</title>
<path fill="none" stroke="midnightblue" d="M1012.21,-377.99C933.66,-376.64 798.02,-368.98 767,-333 761.2,-326.27 762.98,-320.93 767,-313 850.44,-148.2 934.29,-144.44 1102,-67 1159.11,-40.63 1231.37,-27.28 1275.61,-21.12"/>
<polygon fill="midnightblue" stroke="midnightblue" points="1276.24,-24.57 1285.69,-19.77 1275.31,-17.63 1276.24,-24.57"/>
</g>
<!-- Node18&#45;&gt;Node12 -->
<g id="edge31" class="edge">
<title>Node18&#45;&gt;Node12</title>
<path fill="none" stroke="midnightblue" d="M1125.76,-375.82C1222.54,-371.51 1425.5,-359.87 1595,-333 2049.34,-260.99 2194.33,-309.18 2603,-98 2621.46,-88.46 2619.83,-77.09 2638,-67 2682.4,-42.35 2740.15,-28.5 2775.63,-21.77"/>
<polygon fill="midnightblue" stroke="midnightblue" points="2776.67,-25.14 2785.88,-19.9 2775.41,-18.25 2776.67,-25.14"/>
</g>
<!-- Node19 -->
<g id="node19" class="node">
<title>Node19</title>
<g id="a_node19"><a xlink:title=" ">
<polygon fill="none" stroke="#bfbfbf" points="788,-313.5 788,-332.5 838,-332.5 838,-313.5 788,-313.5"/>
<text text-anchor="middle" x="813" y="-320.5" font-family="Helvetica,sans-Serif" font-size="10.00">cstring</text>
</a>
</g>
</g>
<!-- Node18&#45;&gt;Node19 -->
<g id="edge32" class="edge">
<title>Node18&#45;&gt;Node19</title>
<path fill="none" stroke="midnightblue" d="M1022.91,-369.48C980,-361.36 914.05,-348.41 847.96,-333.12"/>
<polygon fill="midnightblue" stroke="midnightblue" points="848.74,-329.71 838.21,-330.85 847.15,-336.53 848.74,-329.71"/>
</g>
<!-- Node20 -->
<g id="node20" class="node">
<title>Node20</title>
<g id="a_node20"><a xlink:title=" ">
<polygon fill="none" stroke="#bfbfbf" points="1234,-313.5 1234,-332.5 1272,-332.5 1272,-313.5 1234,-313.5"/>
<text text-anchor="middle" x="1253" y="-320.5" font-family="Helvetica,sans-Serif" font-size="10.00">map</text>
</a>
</g>
</g>
<!-- Node18&#45;&gt;Node20 -->
<g id="edge34" class="edge">
<title>Node18&#45;&gt;Node20</title>
<path fill="none" stroke="midnightblue" d="M1099.05,-369.45C1130.31,-360.52 1180.66,-346.02 1224,-333 1224.1,-332.97 1224.2,-332.94 1224.3,-332.91"/>
<polygon fill="midnightblue" stroke="midnightblue" points="1225.44,-336.22 1233.98,-329.96 1223.4,-329.53 1225.44,-336.22"/>
</g>
<!-- Node21 -->
<g id="node21" class="node">
<title>Node21</title>
<g id="a_node21"><a xlink:title=" ">
<polygon fill="none" stroke="#bfbfbf" points="1122.5,-313.5 1122.5,-332.5 1215.5,-332.5 1215.5,-313.5 1122.5,-313.5"/>
<text text-anchor="middle" x="1169" y="-320.5" font-family="Helvetica,sans-Serif" font-size="10.00">unordered_map</text>
</a>
</g>
</g>
<!-- Node18&#45;&gt;Node21 -->
<g id="edge35" class="edge">
<title>Node18&#45;&gt;Node21</title>
<path fill="none" stroke="midnightblue" d="M1085.07,-369.32C1100.96,-360.74 1125.51,-347.49 1143.96,-337.52"/>
<polygon fill="midnightblue" stroke="midnightblue" points="1145.84,-340.49 1152.97,-332.65 1142.51,-334.33 1145.84,-340.49"/>
</g>
<!-- Node22 -->
<g id="node22" class="node">
<title>Node22</title>
<g id="a_node22"><a xlink:title=" ">
<polygon fill="none" stroke="#bfbfbf" points="856,-313.5 856,-332.5 888,-332.5 888,-313.5 856,-313.5"/>
<text text-anchor="middle" x="872" y="-320.5" font-family="Helvetica,sans-Serif" font-size="10.00">set</text>
</a>
</g>
</g>
<!-- Node18&#45;&gt;Node22 -->
<g id="edge36" class="edge">
<title>Node18&#45;&gt;Node22</title>
<path fill="none" stroke="midnightblue" d="M1032.49,-369.46C999.54,-361.52 949.57,-348.94 897.76,-333.03"/>
<polygon fill="midnightblue" stroke="midnightblue" points="898.65,-329.65 888.07,-330.02 896.58,-336.33 898.65,-329.65"/>
</g>
<!-- Node23 -->
<g id="node23" class="node">
<title>Node23</title>
<g id="a_node23"><a xlink:title=" ">
<polygon fill="none" stroke="#bfbfbf" points="906,-313.5 906,-332.5 992,-332.5 992,-313.5 906,-313.5"/>
<text text-anchor="middle" x="949" y="-320.5" font-family="Helvetica,sans-Serif" font-size="10.00">unordered_set</text>
</a>
</g>
</g>
<!-- Node18&#45;&gt;Node23 -->
<g id="edge37" class="edge">
<title>Node18&#45;&gt;Node23</title>
<path fill="none" stroke="midnightblue" d="M1049.99,-369.44C1030.41,-360.64 999.69,-346.81 977.27,-336.72"/>
<polygon fill="midnightblue" stroke="midnightblue" points="978.48,-333.43 967.93,-332.52 975.61,-339.81 978.48,-333.43"/>
</g>
<!-- Node24 -->
<g id="node24" class="node">
<title>Node24</title>
<g id="a_node24"><a xlink:title=" ">
<polygon fill="none" stroke="#bfbfbf" points="1010.5,-313.5 1010.5,-332.5 1065.5,-332.5 1065.5,-313.5 1010.5,-313.5"/>
<text text-anchor="middle" x="1038" y="-320.5" font-family="Helvetica,sans-Serif" font-size="10.00">fstream</text>
</a>
</g>
</g>
<!-- Node18&#45;&gt;Node24 -->
<g id="edge39" class="edge">
<title>Node18&#45;&gt;Node24</title>
<path fill="none" stroke="midnightblue" d="M1063.88,-369.08C1059.59,-361.61 1053.34,-350.72 1048.06,-341.52"/>
<polygon fill="midnightblue" stroke="midnightblue" points="1051.04,-339.68 1043.02,-332.75 1044.97,-343.17 1051.04,-339.68"/>
</g>
<!-- Node25 -->
<g id="node25" class="node">
<title>Node25</title>
<g id="a_node25"><a xlink:href="../../d9/da0/flags_8h.html" target="_top" xlink:title=" ">
<polygon fill="none" stroke="black" points="2220.5,-313.5 2220.5,-332.5 2323.5,-332.5 2323.5,-313.5 2220.5,-313.5"/>
<text text-anchor="middle" x="2272" y="-320.5" font-family="Helvetica,sans-Serif" font-size="10.00">containers/flags.h</text>
</a>
</g>
</g>
<!-- Node18&#45;&gt;Node25 -->
<g id="edge41" class="edge">
<title>Node18&#45;&gt;Node25</title>
<path fill="none" stroke="midnightblue" d="M1125.81,-375.45C1326.53,-366.44 2001.46,-336.14 2210.05,-326.78"/>
<polygon fill="midnightblue" stroke="midnightblue" points="2210.38,-330.27 2220.21,-326.32 2210.06,-323.28 2210.38,-330.27"/>
</g>
<!-- Node26 -->
<g id="node26" class="node">
<title>Node26</title>
<g id="a_node26"><a xlink:href="../../d9/d3e/ublas__interface_8h.html" target="_top" xlink:title=" ">
<polygon fill="none" stroke="red" points="1382,-252 1382,-271 1526,-271 1526,-252 1382,-252"/>
<text text-anchor="middle" x="1454" y="-259" font-family="Helvetica,sans-Serif" font-size="10.00">includes/ublas_interface.h</text>
</a>
</g>
</g>
<!-- Node18&#45;&gt;Node26 -->
<g id="edge45" class="edge">
<title>Node18&#45;&gt;Node26</title>
<path fill="none" stroke="midnightblue" d="M1072.26,-369.1C1078.04,-354.69 1091.54,-326.49 1113,-313 1124.1,-306.02 1279.89,-284.92 1377.01,-272.31"/>
<polygon fill="midnightblue" stroke="midnightblue" points="1377.62,-275.76 1387.09,-271 1376.72,-268.82 1377.62,-275.76"/>
</g>
<!-- Node42 -->
<g id="node27" class="node">
<title>Node42</title>
<g id="a_node27"><a xlink:href="../../d9/d36/array__1d_8h.html" target="_top" xlink:title=" ">
<polygon fill="none" stroke="red" points="1442,-313.5 1442,-332.5 1564,-332.5 1564,-313.5 1442,-313.5"/>
<text text-anchor="middle" x="1503" y="-320.5" font-family="Helvetica,sans-Serif" font-size="10.00">containers/array_1d.h</text>
</a>
</g>
</g>
<!-- Node18&#45;&gt;Node42 -->
<g id="edge49" class="edge">
<title>Node18&#45;&gt;Node42</title>
<path fill="none" stroke="midnightblue" d="M1125.74,-370.94C1204.23,-361.17 1345.93,-343.54 1431.54,-332.89"/>
<polygon fill="midnightblue" stroke="midnightblue" points="1432.21,-336.34 1441.7,-331.63 1431.34,-329.39 1432.21,-336.34"/>
</g>
<!-- Node48 -->
<g id="node28" class="node">
<title>Node48</title>
<g id="a_node28"><a xlink:href="../../d5/d10/weak__pointer__vector_8h.html" target="_top" xlink:title=" ">
<polygon fill="none" stroke="red" points="884.5,-246.5 884.5,-276.5 1021.5,-276.5 1021.5,-246.5 884.5,-246.5"/>
<text text-anchor="start" x="892.5" y="-264.5" font-family="Helvetica,sans-Serif" font-size="10.00">containers/weak_pointer</text>
<text text-anchor="middle" x="953" y="-253.5" font-family="Helvetica,sans-Serif" font-size="10.00">_vector.h</text>
</a>
</g>
</g>
<!-- Node18&#45;&gt;Node48 -->
<g id="edge54" class="edge">
<title>Node18&#45;&gt;Node48</title>
<path fill="none" stroke="midnightblue" d="M1012.22,-377.59C936.46,-375.69 808.42,-367.34 779,-333 746.76,-295.37 814.18,-277.57 874.27,-269.32"/>
<polygon fill="midnightblue" stroke="midnightblue" points="874.75,-272.79 884.21,-268.03 873.85,-265.84 874.75,-272.79"/>
</g>
<!-- Node18&#45;&gt;Node52 -->
<g id="edge60" class="edge">
<title>Node18&#45;&gt;Node52</title>
<path fill="none" stroke="midnightblue" d="M1125.68,-376.19C1379.13,-368.08 2408.3,-335.18 2687.71,-326.25"/>
<polygon fill="midnightblue" stroke="midnightblue" points="2687.84,-329.74 2697.73,-325.93 2687.62,-322.75 2687.84,-329.74"/>
</g>
<!-- Node25&#45;&gt;Node2 -->
<g id="edge44" class="edge">
<title>Node25&#45;&gt;Node2</title>
<path fill="none" stroke="midnightblue" d="M2260.15,-313.31C2237.6,-297.26 2186.45,-263.01 2138,-246 2064.7,-220.27 1975.4,-209.16 1917.66,-204.43"/>
<polygon fill="midnightblue" stroke="midnightblue" points="1917.85,-200.93 1907.61,-203.64 1917.31,-207.91 1917.85,-200.93"/>
</g>
<!-- Node25&#45;&gt;Node7 -->
<g id="edge43" class="edge">
<title>Node25&#45;&gt;Node7</title>
<path fill="none" stroke="midnightblue" d="M2277.99,-313.34C2287.45,-298.48 2303.48,-267.64 2290,-246 2260.15,-198.09 2228.13,-211.65 2176,-190 2059.7,-141.7 2023.97,-147.09 1908,-98 1879.99,-86.15 1876.21,-75.48 1847,-67 1754.8,-40.24 1463.61,-23.7 1356.26,-18.38"/>
<polygon fill="midnightblue" stroke="midnightblue" points="1356.32,-14.88 1346.16,-17.88 1355.98,-21.87 1356.32,-14.88"/>
</g>
<!-- Node25&#45;&gt;Node12 -->
<g id="edge42" class="edge">
<title>Node25&#45;&gt;Node12</title>
<path fill="none" stroke="midnightblue" d="M2286.38,-313.37C2335.64,-283.77 2502.09,-183.46 2638,-98 2659.5,-84.48 2663.51,-78.79 2686,-67 2715.62,-51.47 2751.1,-37.24 2776.15,-27.87"/>
<polygon fill="midnightblue" stroke="midnightblue" points="2777.69,-31.03 2785.86,-24.28 2775.27,-24.46 2777.69,-31.03"/>
</g>
<!-- Node26&#45;&gt;Node2 -->
<g id="edge48" class="edge">
<title>Node26&#45;&gt;Node2</title>
<path fill="none" stroke="midnightblue" d="M1503.08,-251.99C1515.14,-249.97 1528.03,-247.86 1540,-246 1552.62,-244.04 1710.01,-221.84 1798.52,-209.38"/>
<polygon fill="midnightblue" stroke="midnightblue" points="1799.02,-212.84 1808.44,-207.98 1798.05,-205.91 1799.02,-212.84"/>
</g>
<!-- Node26&#45;&gt;Node7 -->
<g id="edge47" class="edge">
<title>Node26&#45;&gt;Node7</title>
<path fill="none" stroke="midnightblue" d="M1451.45,-251.79C1442.87,-223.39 1413.01,-131.52 1368,-67 1358.8,-53.81 1345.82,-41.2 1335.13,-31.88"/>
<polygon fill="midnightblue" stroke="midnightblue" points="1337.07,-28.93 1327.17,-25.16 1332.55,-34.29 1337.07,-28.93"/>
</g>
<!-- Node26&#45;&gt;Node12 -->
<g id="edge46" class="edge">
<title>Node26&#45;&gt;Node12</title>
<path fill="none" stroke="midnightblue" d="M1493.07,-251.98C1557.06,-238.14 1688.27,-210.31 1800,-190 2047.29,-145.04 2126.07,-194.87 2358,-98 2379.74,-88.92 2379.07,-75.61 2401,-67 2469.34,-40.18 2691.66,-23.8 2775.56,-18.44"/>
<polygon fill="midnightblue" stroke="midnightblue" points="2776.01,-21.92 2785.77,-17.8 2775.57,-14.94 2776.01,-21.92"/>
</g>
<!-- Node42&#45;&gt;Node2 -->
<g id="edge52" class="edge">
<title>Node42&#45;&gt;Node2</title>
<path fill="none" stroke="midnightblue" d="M1508.79,-313.18C1519.99,-296.9 1546.36,-262.3 1578,-246 1587.71,-241 1718.61,-221.29 1797.94,-209.68"/>
<polygon fill="midnightblue" stroke="midnightblue" points="1798.91,-213.08 1808.3,-208.17 1797.9,-206.15 1798.91,-213.08"/>
</g>
<!-- Node42&#45;&gt;Node7 -->
<g id="edge51" class="edge">
<title>Node42&#45;&gt;Node7</title>
<path fill="none" stroke="midnightblue" d="M1441.69,-313.69C1417.24,-307.41 1390.74,-296.38 1373,-277 1349.49,-251.32 1354,-235.82 1354,-201 1354,-201 1354,-201 1354,-143 1354,-102.85 1336.22,-58.45 1324.99,-34.39"/>
<polygon fill="midnightblue" stroke="midnightblue" points="1328.01,-32.6 1320.51,-25.13 1321.71,-35.65 1328.01,-32.6"/>
</g>
<!-- Node42&#45;&gt;Node12 -->
<g id="edge50" class="edge">
<title>Node42&#45;&gt;Node12</title>
<path fill="none" stroke="midnightblue" d="M1537.6,-313.43C1651.89,-285.3 2027.89,-194.15 2342,-134 2441.9,-114.87 2474.2,-137.32 2568,-98 2589.4,-89.03 2589.04,-76.94 2610,-67 2665.17,-40.84 2735.66,-27.03 2775.93,-20.79"/>
<polygon fill="midnightblue" stroke="midnightblue" points="2776.59,-24.23 2785.97,-19.29 2775.56,-17.3 2776.59,-24.23"/>
</g>
<!-- Node42&#45;&gt;Node26 -->
<g id="edge53" class="edge">
<title>Node42&#45;&gt;Node26</title>
<path fill="none" stroke="midnightblue" d="M1495.98,-313.48C1488.56,-304.46 1476.67,-290.02 1467.43,-278.81"/>
<polygon fill="midnightblue" stroke="midnightblue" points="1470.07,-276.5 1461.01,-271.01 1464.66,-280.95 1470.07,-276.5"/>
</g>
<!-- Node48&#45;&gt;Node2 -->
<g id="edge59" class="edge">
<title>Node48&#45;&gt;Node2</title>
<path fill="none" stroke="midnightblue" d="M1021.76,-255.98C1193.11,-244.71 1636.83,-215.54 1798.21,-204.93"/>
<polygon fill="midnightblue" stroke="midnightblue" points="1798.67,-208.41 1808.42,-204.26 1798.21,-201.42 1798.67,-208.41"/>
</g>
<!-- Node48&#45;&gt;Node4 -->
<g id="edge57" class="edge">
<title>Node48&#45;&gt;Node4</title>
<path fill="none" stroke="midnightblue" d="M921.12,-246.46C845.03,-212.96 653.7,-128.72 580.3,-96.4"/>
<polygon fill="midnightblue" stroke="midnightblue" points="581.31,-93.02 570.75,-92.19 578.49,-99.43 581.31,-93.02"/>
</g>
<!-- Node48&#45;&gt;Node7 -->
<g id="edge56" class="edge">
<title>Node48&#45;&gt;Node7</title>
<path fill="none" stroke="midnightblue" d="M963.28,-246.5C990.01,-211.08 1065.5,-117.18 1150,-67 1189.49,-43.55 1240.81,-30.12 1275.87,-23.09"/>
<polygon fill="midnightblue" stroke="midnightblue" points="1276.59,-26.52 1285.75,-21.2 1275.27,-19.65 1276.59,-26.52"/>
</g>
<!-- Node48&#45;&gt;Node12 -->
<g id="edge55" class="edge">
<title>Node48&#45;&gt;Node12</title>
<path fill="none" stroke="midnightblue" d="M1021.51,-249.18C1029.09,-248.04 1036.7,-246.96 1044,-246 1434.75,-194.53 1534.81,-202.05 1926,-154 2014.21,-143.17 2241.06,-134.7 2322,-98 2341.23,-89.28 2338.65,-75.44 2358,-67 2433.3,-34.15 2685.59,-21.28 2775.68,-17.66"/>
<polygon fill="midnightblue" stroke="midnightblue" points="2775.99,-21.15 2785.84,-17.26 2775.72,-14.16 2775.99,-21.15"/>
</g>
<!-- Node48&#45;&gt;Node13 -->
<g id="edge58" class="edge">
<title>Node48&#45;&gt;Node13</title>
<path fill="none" stroke="midnightblue" d="M884.26,-257.32C753.27,-248.6 462.34,-216.34 253,-98 224.4,-81.83 199.55,-52.16 185.69,-33.42"/>
<polygon fill="midnightblue" stroke="midnightblue" points="188.47,-31.3 179.8,-25.22 182.78,-35.38 188.47,-31.3"/>
</g>
<!-- Node52&#45;&gt;Node7 -->
<g id="edge62" class="edge">
<title>Node52&#45;&gt;Node7</title>
<path fill="none" stroke="midnightblue" d="M2747.44,-313.49C2703.5,-278.19 2536.21,-144.6 2508,-134 2305.24,-57.83 2227.34,-166.89 2022,-98 1997.92,-89.92 1998.07,-75.11 1974,-67 1858.61,-28.12 1481.22,-18.99 1356.45,-17.01"/>
<polygon fill="midnightblue" stroke="midnightblue" points="1356.25,-13.51 1346.2,-16.85 1356.14,-20.51 1356.25,-13.51"/>
</g>
<!-- Node52&#45;&gt;Node11 -->
<g id="edge63" class="edge">
<title>Node52&#45;&gt;Node11</title>
<path fill="none" stroke="midnightblue" d="M2734.81,-313.42C2692.34,-297.98 2598.98,-265.35 2518,-246 2305.47,-195.23 2048.07,-164.47 1927.12,-151.77"/>
<polygon fill="midnightblue" stroke="midnightblue" points="1927.21,-148.26 1916.9,-150.71 1926.48,-155.23 1927.21,-148.26"/>
</g>
<!-- Node52&#45;&gt;Node12 -->
<g id="edge61" class="edge">
<title>Node52&#45;&gt;Node12</title>
<path fill="none" stroke="midnightblue" d="M2791.98,-313.42C2840.02,-299.01 2922,-265.04 2922,-201 2922,-201 2922,-201 2922,-143 2922,-90.57 2867.3,-50.08 2833.68,-30.14"/>
<polygon fill="midnightblue" stroke="midnightblue" points="2835.24,-27 2824.82,-25.07 2831.76,-33.08 2835.24,-27"/>
</g>
<!-- Node56&#45;&gt;Node2 -->
<g id="edge69" class="edge">
<title>Node56&#45;&gt;Node2</title>
<path fill="none" stroke="midnightblue" d="M2024.02,-682.43C2030.38,-663.88 2044.98,-618.45 2050,-579 2058.42,-512.93 2053.07,-339.67 1971,-246 1956.71,-229.69 1935.7,-219.22 1915.66,-212.54"/>
<polygon fill="midnightblue" stroke="midnightblue" points="1916.52,-209.14 1905.94,-209.55 1914.47,-215.83 1916.52,-209.14"/>
</g>
<!-- Node56&#45;&gt;Node4 -->
<g id="edge67" class="edge">
<title>Node56&#45;&gt;Node4</title>
<path fill="none" stroke="midnightblue" d="M1971.44,-682.46C1833.16,-658.53 1431.48,-588.3 1099,-523 957.27,-495.16 913.42,-513.67 781,-456 759.07,-446.45 758.99,-434.43 737,-425 661.62,-392.68 608.55,-451.97 556,-389 519.76,-345.57 540.43,-162.46 548.34,-102.55"/>
<polygon fill="midnightblue" stroke="midnightblue" points="551.86,-102.67 549.73,-92.29 544.92,-101.73 551.86,-102.67"/>
</g>
<!-- Node56&#45;&gt;Node7 -->
<g id="edge66" class="edge">
<title>Node56&#45;&gt;Node7</title>
<path fill="none" stroke="midnightblue" d="M2086.84,-689.11C2133.35,-685.15 2195.59,-674.37 2243,-646 2303.94,-609.53 2306.2,-582.48 2345,-523 2385.78,-460.48 2435.92,-439.7 2412,-369 2389.95,-303.83 2369.26,-291.89 2318,-246 2282.05,-213.82 2268.85,-210.12 2225,-190 2195.33,-176.38 1975.86,-111.19 1946,-98 1920.33,-86.66 1917.8,-75.3 1891,-67 1790.75,-35.94 1469.61,-21.9 1356.16,-17.82"/>
<polygon fill="midnightblue" stroke="midnightblue" points="1356.27,-14.32 1346.16,-17.47 1356.03,-21.32 1356.27,-14.32"/>
</g>
<!-- Node56&#45;&gt;Node12 -->
<g id="edge65" class="edge">
<title>Node56&#45;&gt;Node12</title>
<path fill="none" stroke="midnightblue" d="M2086.7,-687.38C2268.61,-676.66 2775.57,-641.81 2929,-579 3058.1,-526.15 3112,-463.5 3112,-324 3112,-324 3112,-324 3112,-143 3112,-26.44 2919.13,-15.31 2840.64,-15.6"/>
<polygon fill="midnightblue" stroke="midnightblue" points="2840.32,-12.11 2830.35,-15.71 2840.39,-19.11 2840.32,-12.11"/>
</g>
<!-- Node56&#45;&gt;Node17 -->
<g id="edge68" class="edge">
<title>Node56&#45;&gt;Node17</title>
<path fill="none" stroke="midnightblue" d="M1958.41,-682.46C1920.14,-675.74 1870.86,-664.37 1830,-646 1808.18,-636.19 1806.3,-627.65 1786,-615 1713.76,-569.97 1685.12,-575.37 1618,-523 1586.01,-498.04 1574.4,-492.16 1556,-456 1546.87,-438.06 1543.29,-415.12 1541.89,-399.16"/>
<polygon fill="midnightblue" stroke="midnightblue" points="1545.36,-398.68 1541.21,-388.94 1538.38,-399.15 1545.36,-398.68"/>
</g>
<!-- Node56&#45;&gt;Node25 -->
<g id="edge95" class="edge">
<title>Node56&#45;&gt;Node25</title>
<path fill="none" stroke="midnightblue" d="M2086.58,-683.88C2136.7,-677.06 2200.13,-664.95 2218,-646 2299.88,-559.19 2283.61,-397.4 2275.24,-342.65"/>
<polygon fill="midnightblue" stroke="midnightblue" points="2278.68,-341.97 2273.62,-332.66 2271.77,-343.1 2278.68,-341.97"/>
</g>
<!-- Node56&#45;&gt;Node57 -->
<g id="edge70" class="edge">
<title>Node56&#45;&gt;Node57</title>
<path fill="none" stroke="midnightblue" d="M2003.81,-682.48C1986.8,-674.04 1960.2,-660.86 1938.33,-650.01"/>
<polygon fill="midnightblue" stroke="midnightblue" points="1939.8,-646.83 1929.28,-645.52 1936.69,-653.1 1939.8,-646.83"/>
</g>
<!-- Node57&#45;&gt;Node2 -->
<g id="edge75" class="edge">
<title>Node57&#45;&gt;Node2</title>
<path fill="none" stroke="midnightblue" d="M1888.01,-615.25C1880.26,-605.75 1871.14,-592.55 1867,-579 1864.4,-570.5 1864.72,-567.59 1867,-559 1882.4,-500.89 1934,-501.62 1934,-441.5 1934,-441.5 1934,-441.5 1934,-322 1934,-278.48 1898.3,-237.77 1875.84,-216.47"/>
<polygon fill="midnightblue" stroke="midnightblue" points="1877.99,-213.7 1868.25,-209.53 1873.27,-218.86 1877.99,-213.7"/>
</g>
<!-- Node57&#45;&gt;Node7 -->
<g id="edge72" class="edge">
<title>Node57&#45;&gt;Node7</title>
<path fill="none" stroke="midnightblue" d="M1840.15,-615.48C1805.51,-606.67 1761.66,-594.13 1724,-579 1674.56,-559.14 1664.19,-549.55 1618,-523 1598.87,-512.01 1300.41,-323.48 1281,-313 1247.4,-294.87 1230.56,-303.43 1203,-277 1175.6,-250.72 1164,-238.97 1164,-201 1164,-201 1164,-201 1164,-143 1164,-104.83 1176.2,-93.16 1204,-67 1224.25,-47.94 1252.93,-35.2 1276.19,-27.28"/>
<polygon fill="midnightblue" stroke="midnightblue" points="1277.35,-30.58 1285.79,-24.18 1275.2,-23.92 1277.35,-30.58"/>
</g>
<!-- Node57&#45;&gt;Node11 -->
<g id="edge94" class="edge">
<title>Node57&#45;&gt;Node11</title>
<path fill="none" stroke="midnightblue" d="M1963.81,-621.08C1993.28,-614.2 2026.92,-601.69 2050,-579 2159.15,-471.67 2225.98,-371.27 2138,-246 2090.47,-178.32 1992.94,-155.79 1926.5,-148.41"/>
<polygon fill="midnightblue" stroke="midnightblue" points="1926.83,-144.92 1916.53,-147.39 1926.12,-151.89 1926.83,-144.92"/>
</g>
<!-- Node57&#45;&gt;Node12 -->
<g id="edge71" class="edge">
<title>Node57&#45;&gt;Node12</title>
<path fill="none" stroke="midnightblue" d="M1963.89,-623.54C1996.19,-620.64 2036.17,-617.3 2072,-615 2164.12,-609.1 2824.79,-629.6 2902,-579 3056.37,-477.83 3074,-385.57 3074,-201 3074,-201 3074,-201 3074,-143 3074,-105.24 3065.77,-90.23 3036,-67 3005.75,-43.39 2895.57,-27.09 2840.21,-20.19"/>
<polygon fill="midnightblue" stroke="midnightblue" points="2840.57,-16.71 2830.22,-18.98 2839.73,-23.66 2840.57,-16.71"/>
</g>
<!-- Node57&#45;&gt;Node13 -->
<g id="edge74" class="edge">
<title>Node57&#45;&gt;Node13</title>
<path fill="none" stroke="midnightblue" d="M1838.32,-624.51C1539.42,-600.55 270.35,-496.76 197,-456 71.82,-386.43 0,-344.21 0,-201 0,-201 0,-201 0,-143 0,-74.34 89.73,-39.06 140.31,-24.62"/>
<polygon fill="midnightblue" stroke="midnightblue" points="141.45,-27.94 150.17,-21.93 139.6,-21.19 141.45,-27.94"/>
</g>
<!-- Node57&#45;&gt;Node17 -->
<g id="edge73" class="edge">
<title>Node57&#45;&gt;Node17</title>
<path fill="none" stroke="midnightblue" d="M1857.51,-615.48C1790.68,-592.03 1662.07,-539.06 1582,-456 1565.95,-439.35 1554.36,-415.18 1547.68,-398.59"/>
<polygon fill="midnightblue" stroke="midnightblue" points="1550.83,-397.04 1544,-388.94 1544.29,-399.53 1550.83,-397.04"/>
</g>
<!-- Node57&#45;&gt;Node58 -->
<g id="edge76" class="edge">
<title>Node57&#45;&gt;Node58</title>
<path fill="none" stroke="midnightblue" d="M1875.06,-615.4C1860.92,-606.57 1844.1,-594.02 1833,-579 1821.56,-563.52 1814.99,-542.33 1811.48,-527.24"/>
<polygon fill="midnightblue" stroke="midnightblue" points="1814.83,-526.15 1809.37,-517.07 1807.98,-527.58 1814.83,-526.15"/>
</g>
<!-- Node61 -->
<g id="node34" class="node">
<title>Node61</title>
<g id="a_node34"><a xlink:href="../../dc/d8e/kratos__components_8h.html" target="_top" xlink:title=" ">
<polygon fill="none" stroke="red" points="1875.5,-559.5 1875.5,-578.5 2040.5,-578.5 2040.5,-559.5 1875.5,-559.5"/>
<text text-anchor="middle" x="1958" y="-566.5" font-family="Helvetica,sans-Serif" font-size="10.00">includes/kratos_components.h</text>
</a>
</g>
</g>
<!-- Node57&#45;&gt;Node61 -->
<g id="edge87" class="edge">
<title>Node57&#45;&gt;Node61</title>
<path fill="none" stroke="midnightblue" d="M1914.51,-615.4C1922.96,-606.58 1933.88,-595.18 1942.66,-586.02"/>
<polygon fill="midnightblue" stroke="midnightblue" points="1945.32,-588.3 1949.71,-578.66 1940.26,-583.46 1945.32,-588.3"/>
</g>
<!-- Node58&#45;&gt;Node2 -->
<g id="edge79" class="edge">
<title>Node58&#45;&gt;Node2</title>
<path fill="none" stroke="midnightblue" d="M1814.83,-497.72C1828.89,-479.02 1860.71,-433.35 1872,-389 1887.69,-327.41 1881.55,-308.83 1872,-246 1870.63,-237 1867.81,-227.33 1865.05,-219.26"/>
<polygon fill="midnightblue" stroke="midnightblue" points="1868.31,-217.98 1861.6,-209.78 1861.73,-220.37 1868.31,-217.98"/>
</g>
<!-- Node58&#45;&gt;Node7 -->
<g id="edge78" class="edge">
<title>Node58&#45;&gt;Node7</title>
<path fill="none" stroke="midnightblue" d="M1800.62,-497.89C1786.85,-482.15 1755.81,-448.21 1725,-425 1684.62,-394.59 1673.72,-385.69 1626,-369 1529.99,-335.43 1497.85,-360.75 1400,-333 1377.77,-326.69 1373.36,-321.82 1352,-313 1312.94,-296.87 1292.62,-308.09 1264,-277 1240.01,-250.94 1240,-236.42 1240,-201 1240,-201 1240,-201 1240,-143 1240,-107.58 1245.4,-97.14 1264,-67 1272.43,-53.35 1285.36,-40.77 1296.22,-31.58"/>
<polygon fill="midnightblue" stroke="midnightblue" points="1298.45,-34.27 1304.01,-25.25 1294.04,-28.84 1298.45,-34.27"/>
</g>
<!-- Node58&#45;&gt;Node12 -->
<g id="edge77" class="edge">
<title>Node58&#45;&gt;Node12</title>
<path fill="none" stroke="midnightblue" d="M1847.64,-497.93C1956.1,-474.71 2267.07,-409.57 2528,-369 2660.26,-348.43 2702.57,-382.33 2827,-333 2904.42,-302.31 2960,-284.28 2960,-201 2960,-201 2960,-201 2960,-143 2960,-80.92 2884.16,-43.43 2839.62,-26.76"/>
<polygon fill="midnightblue" stroke="midnightblue" points="2840.7,-23.42 2830.1,-23.33 2838.33,-30.01 2840.7,-23.42"/>
</g>
<!-- Node58&#45;&gt;Node15 -->
<g id="edge86" class="edge">
<title>Node58&#45;&gt;Node15</title>
<path fill="none" stroke="midnightblue" d="M1748.19,-505.14C1502.9,-499.43 580.86,-476.77 452,-456 332.3,-436.71 190,-501.24 190,-380 190,-380 190,-380 190,-322 190,-226.73 272.91,-134.83 309.26,-99.12"/>
<polygon fill="midnightblue" stroke="midnightblue" points="311.87,-101.46 316.65,-92.01 307.02,-96.42 311.87,-101.46"/>
</g>
<!-- Node58&#45;&gt;Node59 -->
<g id="edge80" class="edge">
<title>Node58&#45;&gt;Node59</title>
<path fill="none" stroke="midnightblue" d="M1789.67,-497.87C1766.06,-486.75 1724.81,-467.32 1697.45,-454.43"/>
<polygon fill="midnightblue" stroke="midnightblue" points="1698.94,-451.26 1688.4,-450.17 1695.96,-457.59 1698.94,-451.26"/>
</g>
<!-- Node59&#45;&gt;Node2 -->
<g id="edge84" class="edge">
<title>Node59&#45;&gt;Node2</title>
<path fill="none" stroke="midnightblue" d="M1678.13,-430.83C1694.4,-413.22 1731.69,-371.67 1758,-333 1782.84,-296.49 1778.2,-280.32 1806,-246 1815.16,-234.69 1827.38,-223.95 1837.68,-215.8"/>
<polygon fill="midnightblue" stroke="midnightblue" points="1839.95,-218.47 1845.76,-209.61 1835.69,-212.91 1839.95,-218.47"/>
</g>
<!-- Node59&#45;&gt;Node7 -->
<g id="edge82" class="edge">
<title>Node59&#45;&gt;Node7</title>
<path fill="none" stroke="midnightblue" d="M1664.04,-430.82C1652.99,-415.49 1627.74,-383.85 1598,-369 1503.07,-321.6 1464.17,-361.62 1362,-333 1339.75,-326.77 1335.36,-321.82 1314,-313 1274.94,-296.87 1254.62,-308.09 1226,-277 1202.01,-250.94 1202,-236.42 1202,-201 1202,-201 1202,-201 1202,-143 1202,-107.58 1203.65,-94.48 1226,-67 1240.15,-49.6 1261.98,-37.14 1280.6,-28.95"/>
<polygon fill="midnightblue" stroke="midnightblue" points="1282.09,-32.12 1289.98,-25.06 1279.4,-25.66 1282.09,-32.12"/>
</g>
<!-- Node59&#45;&gt;Node12 -->
<g id="edge81" class="edge">
<title>Node59&#45;&gt;Node12</title>
<path fill="none" stroke="midnightblue" d="M1716.01,-436.99C1819.06,-431.11 2076.11,-414.92 2290,-389 2345.42,-382.28 2358.86,-377.72 2414,-369 2517.06,-352.69 2551.78,-377.85 2646,-333 2764.87,-276.42 2798.12,-94.43 2805.9,-35.27"/>
<polygon fill="midnightblue" stroke="midnightblue" points="2809.4,-35.5 2807.14,-25.15 2802.45,-34.65 2809.4,-35.5"/>
</g>
<!-- Node59&#45;&gt;Node17 -->
<g id="edge83" class="edge">
<title>Node59&#45;&gt;Node17</title>
<path fill="none" stroke="midnightblue" d="M1651.52,-430.98C1629.87,-420.99 1593.79,-404.35 1568.77,-392.81"/>
<polygon fill="midnightblue" stroke="midnightblue" points="1569.99,-389.52 1559.45,-388.51 1567.06,-395.88 1569.99,-389.52"/>
</g>
<!-- Node59&#45;&gt;Node18 -->
<g id="edge85" class="edge">
<title>Node59&#45;&gt;Node18</title>
<path fill="none" stroke="midnightblue" d="M1623.84,-434.93C1518.23,-424.48 1258.7,-398.78 1135.71,-386.6"/>
<polygon fill="midnightblue" stroke="midnightblue" points="1135.97,-383.11 1125.67,-385.61 1135.28,-390.08 1135.97,-383.11"/>
</g>
<!-- Node61&#45;&gt;Node2 -->
<g id="edge91" class="edge">
<title>Node61&#45;&gt;Node2</title>
<path fill="none" stroke="midnightblue" d="M1959.61,-559.45C1963.28,-539.09 1972,-486.13 1972,-441.5 1972,-441.5 1972,-441.5 1972,-322 1972,-286.58 1971,-272.94 1948,-246 1935.08,-230.86 1915.84,-220.29 1898.46,-213.21"/>
<polygon fill="midnightblue" stroke="midnightblue" points="1899.64,-209.92 1889.05,-209.63 1897.15,-216.46 1899.64,-209.92"/>
</g>
<!-- Node61&#45;&gt;Node7 -->
<g id="edge89" class="edge">
<title>Node61&#45;&gt;Node7</title>
<path fill="none" stroke="midnightblue" d="M1950.06,-559.33C1936.16,-544.45 1906.13,-513.58 1877,-492 1788.85,-426.7 1766.48,-405.42 1663,-369 1565.4,-334.65 1529.08,-371.39 1433,-333 1390.99,-316.22 1278,-246.24 1278,-201 1278,-201 1278,-201 1278,-143 1278,-102.85 1295.78,-58.45 1307.01,-34.39"/>
<polygon fill="midnightblue" stroke="midnightblue" points="1310.29,-35.65 1311.49,-25.13 1303.99,-32.6 1310.29,-35.65"/>
</g>
<!-- Node61&#45;&gt;Node12 -->
<g id="edge88" class="edge">
<title>Node61&#45;&gt;Node12</title>
<path fill="none" stroke="midnightblue" d="M2023.45,-559.45C2251.6,-527.86 2998,-408.62 2998,-201 2998,-201 2998,-201 2998,-143 2998,-67.98 2894.11,-34.74 2839.97,-22.51"/>
<polygon fill="midnightblue" stroke="midnightblue" points="2840.68,-19.08 2830.17,-20.4 2839.21,-25.93 2840.68,-19.08"/>
</g>
<!-- Node61&#45;&gt;Node20 -->
<g id="edge90" class="edge">
<title>Node61&#45;&gt;Node20</title>
<path fill="none" stroke="midnightblue" d="M1892.26,-559.49C1848.28,-552.58 1789.59,-540.98 1740,-523 1680.74,-501.52 1657.75,-502.32 1615,-456 1586.38,-424.99 1610.63,-394.48 1577,-369 1574.06,-366.77 1361.58,-338.4 1282.35,-327.89"/>
<polygon fill="midnightblue" stroke="midnightblue" points="1282.47,-324.37 1272.09,-326.53 1281.55,-331.31 1282.47,-324.37"/>
</g>
<!-- Node61&#45;&gt;Node25 -->
<g id="edge92" class="edge">
<title>Node61&#45;&gt;Node25</title>
<path fill="none" stroke="midnightblue" d="M1966.5,-559.23C1995.32,-529.79 2092.76,-432.77 2186,-369 2204.02,-356.67 2225.83,-345.3 2242.98,-337.07"/>
<polygon fill="midnightblue" stroke="midnightblue" points="2244.91,-340.03 2252.47,-332.6 2241.93,-333.69 2244.91,-340.03"/>
</g>
<!-- Node61&#45;&gt;Node58 -->
<g id="edge93" class="edge">
<title>Node61&#45;&gt;Node58</title>
<path fill="none" stroke="midnightblue" d="M1936.51,-559.48C1910.89,-549.31 1867.89,-532.26 1838.76,-520.7"/>
<polygon fill="midnightblue" stroke="midnightblue" points="1840.04,-517.44 1829.45,-517.01 1837.46,-523.95 1840.04,-517.44"/>
</g>
<!-- Node69&#45;&gt;Node2 -->
<g id="edge102" class="edge">
<title>Node69&#45;&gt;Node2</title>
<path fill="none" stroke="midnightblue" d="M1605.81,-805.37C1607.32,-791.08 1611.16,-761.69 1619,-738 1673.34,-573.83 1715.08,-544.37 1791,-389 1803.13,-364.17 1806.18,-357.98 1818,-333 1829.74,-308.2 1835.67,-303.15 1844,-277 1850.1,-257.87 1853.85,-235.13 1855.92,-219.54"/>
<polygon fill="midnightblue" stroke="midnightblue" points="1859.39,-219.96 1857.13,-209.61 1852.44,-219.11 1859.39,-219.96"/>
</g>
<!-- Node69&#45;&gt;Node4 -->
<g id="edge100" class="edge">
<title>Node69&#45;&gt;Node4</title>
<path fill="none" stroke="midnightblue" d="M1556.96,-814.28C1434.25,-814.39 1112.16,-810.57 1015,-769 845.74,-696.58 863.87,-588.37 707,-492 669.24,-468.8 652.45,-478.04 614,-456 594.79,-444.99 594.29,-435.88 575,-425 534.95,-402.41 504.26,-426.75 478,-389 412.65,-295.04 462.83,-236.38 514,-134 520.1,-121.79 529.12,-109.41 536.72,-99.96"/>
<polygon fill="midnightblue" stroke="midnightblue" points="539.48,-102.13 543.19,-92.2 534.1,-97.65 539.48,-102.13"/>
</g>
<!-- Node69&#45;&gt;Node7 -->
<g id="edge99" class="edge">
<title>Node69&#45;&gt;Node7</title>
<path fill="none" stroke="midnightblue" d="M1556.59,-811.58C1503.31,-807.56 1415.93,-796.95 1346,-769 1193.29,-707.96 819.73,-480.99 748,-333 684.3,-201.56 802.42,-113.16 941,-67 1058.38,-27.9 1206.01,-19 1275.85,-17.02"/>
<polygon fill="midnightblue" stroke="midnightblue" points="1276.07,-20.52 1285.98,-16.77 1275.89,-13.52 1276.07,-20.52"/>
</g>
<!-- Node69&#45;&gt;Node12 -->
<g id="edge98" class="edge">
<title>Node69&#45;&gt;Node12</title>
<path fill="none" stroke="midnightblue" d="M1653.2,-812.63C1834.67,-807.37 2471.02,-787.74 2560,-769 2701.82,-739.14 3067.49,-631.12 3164,-523 3225.69,-453.89 3226,-416.64 3226,-324 3226,-324 3226,-324 3226,-143 3226,-94.6 3191.37,-88.48 3148,-67 3094.1,-40.3 2914.26,-24.34 2840.25,-18.76"/>
<polygon fill="midnightblue" stroke="midnightblue" points="2840.35,-15.25 2830.12,-18.01 2839.84,-22.24 2840.35,-15.25"/>
</g>
<!-- Node69&#45;&gt;Node17 -->
<g id="edge101" class="edge">
<title>Node69&#45;&gt;Node17</title>
<path fill="none" stroke="midnightblue" d="M1559.59,-805.44C1475.94,-788.37 1306,-747.04 1306,-693 1306,-693 1306,-693 1306,-629.5 1306,-523.21 1349.08,-493.92 1430,-425 1451.38,-406.8 1481.08,-395.28 1504.38,-388.45"/>
<polygon fill="midnightblue" stroke="midnightblue" points="1505.55,-391.76 1514.26,-385.73 1503.69,-385.02 1505.55,-391.76"/>
</g>
<!-- Node69&#45;&gt;Node25 -->
<g id="edge126" class="edge">
<title>Node69&#45;&gt;Node25</title>
<path fill="none" stroke="midnightblue" d="M1653.43,-813.6C1775.56,-812.08 2093.37,-804.7 2192,-769 2280.71,-736.89 2321.74,-729.84 2365,-646 2403.93,-570.56 2309.64,-372.13 2308,-369 2302.55,-358.61 2294.54,-348.3 2287.46,-340.17"/>
<polygon fill="midnightblue" stroke="midnightblue" points="2289.88,-337.63 2280.56,-332.58 2284.7,-342.33 2289.88,-337.63"/>
</g>
<!-- Node69&#45;&gt;Node57 -->
<g id="edge127" class="edge">
<title>Node69&#45;&gt;Node57</title>
<path fill="none" stroke="midnightblue" d="M1607.69,-805.27C1612.87,-789.73 1625.68,-757.13 1647,-738 1698.7,-691.6 1773.52,-663.56 1828.57,-647.99"/>
<polygon fill="midnightblue" stroke="midnightblue" points="1829.55,-651.35 1838.26,-645.32 1827.69,-644.6 1829.55,-651.35"/>
</g>
<!-- Node70 -->
<g id="node36" class="node">
<title>Node70</title>
<g id="a_node36"><a xlink:href="../../d4/d35/pointer__vector__set_8h.html" target="_top" xlink:title=" ">
<polygon fill="none" stroke="red" points="623.5,-425.5 623.5,-455.5 728.5,-455.5 728.5,-425.5 623.5,-425.5"/>
<text text-anchor="start" x="631.5" y="-443.5" font-family="Helvetica,sans-Serif" font-size="10.00">containers/pointer</text>
<text text-anchor="middle" x="676" y="-432.5" font-family="Helvetica,sans-Serif" font-size="10.00">_vector_set.h</text>
</a>
</g>
</g>
<!-- Node69&#45;&gt;Node70 -->
<g id="edge103" class="edge">
<title>Node69&#45;&gt;Node70</title>
<path fill="none" stroke="midnightblue" d="M1556.6,-814.58C1440.78,-815.25 1150.99,-812.4 1066,-769 921.45,-695.18 962.79,-582.42 828,-492 812.75,-481.77 772.77,-468.65 737.65,-458.35"/>
<polygon fill="midnightblue" stroke="midnightblue" points="738.47,-454.95 727.89,-455.53 736.52,-461.67 738.47,-454.95"/>
</g>
<!-- Node69&#45;&gt;Node73 -->
<g id="edge112" class="edge">
<title>Node69&#45;&gt;Node73</title>
<path fill="none" stroke="midnightblue" d="M1556.92,-812.92C1409.71,-809.34 971.66,-796.47 914,-769 840.73,-734.1 743.54,-537 676,-492 659.4,-480.94 615.04,-467.45 576.93,-457.2"/>
<polygon fill="midnightblue" stroke="midnightblue" points="577.45,-453.72 566.89,-454.53 575.66,-460.48 577.45,-453.72"/>
</g>
<!-- Node75 -->
<g id="node38" class="node">
<title>Node75</title>
<g id="a_node38"><a xlink:href="../../d9/d4c/includes_2indexed__object_8h.html" target="_top" xlink:title=" ">
<polygon fill="none" stroke="black" points="1334.5,-621 1334.5,-640 1477.5,-640 1477.5,-621 1334.5,-621"/>
<text text-anchor="middle" x="1406" y="-628" font-family="Helvetica,sans-Serif" font-size="10.00">includes/indexed_object.h</text>
</a>
</g>
</g>
<!-- Node69&#45;&gt;Node75 -->
<g id="edge119" class="edge">
<title>Node69&#45;&gt;Node75</title>
<path fill="none" stroke="midnightblue" d="M1595.67,-805.44C1564.47,-776.83 1463.47,-684.21 1423,-647.09"/>
<polygon fill="midnightblue" stroke="midnightblue" points="1425.28,-644.43 1415.54,-640.25 1420.55,-649.59 1425.28,-644.43"/>
</g>
<!-- Node76 -->
<g id="node39" class="node">
<title>Node76</title>
<g id="a_node39"><a xlink:href="../../d4/d67/geometry_8h.html" target="_top" xlink:title=" ">
<polygon fill="none" stroke="red" points="2393,-682.5 2393,-701.5 2523,-701.5 2523,-682.5 2393,-682.5"/>
<text text-anchor="middle" x="2458" y="-689.5" font-family="Helvetica,sans-Serif" font-size="10.00">geometries/geometry.h</text>
</a>
</g>
</g>
<!-- Node69&#45;&gt;Node76 -->
<g id="edge123" class="edge">
<title>Node69&#45;&gt;Node76</title>
<path fill="none" stroke="midnightblue" d="M1653.06,-812.12C1816.96,-805.61 2345.68,-783.56 2379,-769 2407.94,-756.35 2432.56,-728.16 2446.3,-709.9"/>
<polygon fill="midnightblue" stroke="midnightblue" points="2449.27,-711.76 2452.3,-701.61 2443.6,-707.66 2449.27,-711.76"/>
</g>
<!-- Node69&#45;&gt;Node86 -->
<g id="edge128" class="edge">
<title>Node69&#45;&gt;Node86</title>
<path fill="none" stroke="midnightblue" d="M1621.33,-805.48C1637.42,-797.08 1662.53,-783.97 1683.26,-773.15"/>
<polygon fill="midnightblue" stroke="midnightblue" points="1684.89,-776.25 1692.13,-768.52 1681.65,-770.05 1684.89,-776.25"/>
</g>
<!-- Node70&#45;&gt;Node2 -->
<g id="edge110" class="edge">
<title>Node70&#45;&gt;Node2</title>
<path fill="none" stroke="midnightblue" d="M728.52,-434.51C917.91,-416.39 1556.62,-353.98 1595,-333 1639.04,-308.93 1624.35,-272.47 1667,-246 1688.75,-232.5 1750.81,-219.34 1798.34,-210.77"/>
<polygon fill="midnightblue" stroke="midnightblue" points="1799.01,-214.21 1808.24,-209.02 1797.78,-207.32 1799.01,-214.21"/>
</g>
<!-- Node70&#45;&gt;Node4 -->
<g id="edge107" class="edge">
<title>Node70&#45;&gt;Node4</title>
<path fill="none" stroke="midnightblue" d="M623.18,-427.89C583.46,-418.21 533.35,-403.68 518,-389 495.75,-367.71 494,-354.8 494,-324 494,-324 494,-324 494,-260.5 494,-199.59 524.96,-132.32 541.25,-101.15"/>
<polygon fill="midnightblue" stroke="midnightblue" points="544.5,-102.49 546.14,-92.02 538.33,-99.18 544.5,-102.49"/>
</g>
<!-- Node70&#45;&gt;Node7 -->
<g id="edge106" class="edge">
<title>Node70&#45;&gt;Node7</title>
<path fill="none" stroke="midnightblue" d="M623.28,-427.57C573.94,-415.93 506.54,-398.6 498,-389 402.78,-281.93 406.56,-161.8 514,-67 571.46,-16.3 1120.99,-15.43 1275.67,-16.2"/>
<polygon fill="midnightblue" stroke="midnightblue" points="1275.67,-19.7 1285.69,-16.26 1275.71,-12.7 1275.67,-19.7"/>
</g>
<!-- Node70&#45;&gt;Node8 -->
<g id="edge109" class="edge">
<title>Node70&#45;&gt;Node8</title>
<path fill="none" stroke="midnightblue" d="M623.33,-428.1C618.49,-427.05 613.65,-426.01 609,-425 534.78,-408.97 508.83,-425.03 442,-389 312.05,-318.94 219.5,-154.96 191.7,-101.03"/>
<polygon fill="midnightblue" stroke="midnightblue" points="194.78,-99.37 187.14,-92.03 188.54,-102.53 194.78,-99.37"/>
</g>
<!-- Node70&#45;&gt;Node12 -->
<g id="edge105" class="edge">
<title>Node70&#45;&gt;Node12</title>
<path fill="none" stroke="midnightblue" d="M728.66,-437.48C804.68,-434.58 949.61,-429.14 1073,-425 1203.99,-420.61 2125.26,-422.38 2252,-389 2270.46,-384.14 2272.13,-375.7 2290,-369 2355.01,-344.64 2379.26,-362.73 2442,-333 2557.79,-278.14 2573.7,-240.76 2668,-154 2714.38,-111.33 2766.83,-58.53 2792.36,-32.52"/>
<polygon fill="midnightblue" stroke="midnightblue" points="2795.17,-34.66 2799.66,-25.07 2790.17,-29.76 2795.17,-34.66"/>
</g>
<!-- Node70&#45;&gt;Node13 -->
<g id="edge104" class="edge">
<title>Node70&#45;&gt;Node13</title>
<path fill="none" stroke="midnightblue" d="M623.47,-431.09C550.8,-419.22 426.32,-398.03 407,-389 250.95,-316.06 204.51,-261.73 151,-98 143.89,-76.24 153.93,-50.81 162.9,-34.21"/>
<polygon fill="midnightblue" stroke="midnightblue" points="166.17,-35.54 168.18,-25.14 160.12,-32.02 166.17,-35.54"/>
</g>
<!-- Node70&#45;&gt;Node17 -->
<g id="edge108" class="edge">
<title>Node70&#45;&gt;Node17</title>
<path fill="none" stroke="midnightblue" d="M728.81,-435.87C888.98,-424.85 1366.73,-391.99 1503.83,-382.56"/>
<polygon fill="midnightblue" stroke="midnightblue" points="1504.48,-386.02 1514.21,-381.84 1503.99,-379.04 1504.48,-386.02"/>
</g>
<!-- Node70&#45;&gt;Node18 -->
<g id="edge111" class="edge">
<title>Node70&#45;&gt;Node18</title>
<path fill="none" stroke="midnightblue" d="M728.59,-431.54C799.35,-420.82 925.23,-401.77 1002.48,-390.07"/>
<polygon fill="midnightblue" stroke="midnightblue" points="1003.22,-393.5 1012.59,-388.54 1002.18,-386.58 1003.22,-393.5"/>
</g>
<!-- Node73&#45;&gt;Node2 -->
<g id="edge118" class="edge">
<title>Node73&#45;&gt;Node2</title>
<path fill="none" stroke="midnightblue" d="M536.72,-425.42C581.29,-398.53 684.16,-340.15 779,-313 877.37,-284.84 1586.27,-223.78 1798.27,-205.97"/>
<polygon fill="midnightblue" stroke="midnightblue" points="1798.61,-209.45 1808.28,-205.13 1798.02,-202.48 1798.61,-209.45"/>
</g>
<!-- Node73&#45;&gt;Node4 -->
<g id="edge116" class="edge">
<title>Node73&#45;&gt;Node4</title>
<path fill="none" stroke="midnightblue" d="M461.08,-432.34C412,-424.49 344.16,-410.13 328,-389 307.48,-362.17 316.35,-344.71 328,-313 365.97,-209.63 478.84,-128.74 527.85,-97.5"/>
<polygon fill="midnightblue" stroke="midnightblue" points="529.88,-100.36 536.5,-92.08 526.16,-94.42 529.88,-100.36"/>
</g>
<!-- Node73&#45;&gt;Node7 -->
<g id="edge115" class="edge">
<title>Node73&#45;&gt;Node7</title>
<path fill="none" stroke="midnightblue" d="M461.21,-429.42C378.57,-412.1 228,-373.73 228,-324 228,-324 228,-324 228,-260.5 228,-188.83 271.27,-177.79 328,-134 342.69,-122.66 462.96,-71.35 481,-67 634.58,-29.97 1130.17,-19.41 1275.55,-17.07"/>
<polygon fill="midnightblue" stroke="midnightblue" points="1275.86,-20.57 1285.8,-16.91 1275.75,-13.57 1275.86,-20.57"/>
</g>
<!-- Node73&#45;&gt;Node12 -->
<g id="edge114" class="edge">
<title>Node73&#45;&gt;Node12</title>
<path fill="none" stroke="midnightblue" d="M566.55,-430.81C581.82,-428.57 598.54,-426.41 614,-425 994.97,-390.36 1971.88,-459.22 2333,-333 2531.06,-263.77 2546.06,-179.75 2723,-67 2743.28,-54.08 2766.81,-40.18 2783.97,-30.24"/>
<polygon fill="midnightblue" stroke="midnightblue" points="2785.87,-33.19 2792.78,-25.16 2782.37,-27.12 2785.87,-33.19"/>
</g>
<!-- Node73&#45;&gt;Node13 -->
<g id="edge113" class="edge">
<title>Node73&#45;&gt;Node13</title>
<path fill="none" stroke="midnightblue" d="M461.27,-435.61C386.43,-429.25 254.06,-414.71 214,-389 91.21,-310.18 85.76,-241.97 62,-98 59.76,-84.41 54.52,-78.57 62,-67 79.17,-40.43 114.03,-27.7 140.33,-21.68"/>
<polygon fill="midnightblue" stroke="midnightblue" points="141.2,-25.08 150.29,-19.63 139.79,-18.22 141.2,-25.08"/>
</g>
<!-- Node73&#45;&gt;Node17 -->
<g id="edge117" class="edge">
<title>Node73&#45;&gt;Node17</title>
<path fill="none" stroke="midnightblue" d="M566.56,-430.92C581.83,-428.69 598.55,-426.49 614,-425 959.18,-391.67 1379.18,-382.58 1504.21,-380.52"/>
<polygon fill="midnightblue" stroke="midnightblue" points="1504.44,-384.02 1514.39,-380.36 1504.33,-377.02 1504.44,-384.02"/>
</g>
<!-- Node75&#45;&gt;Node2 -->
<g id="edge121" class="edge">
<title>Node75&#45;&gt;Node2</title>
<path fill="none" stroke="midnightblue" d="M1417.48,-620.69C1448.58,-597.14 1537.72,-531.82 1620,-492 1664.41,-470.51 1687.59,-488.16 1725,-456 1764.85,-421.74 1829.09,-271.41 1850.66,-219.06"/>
<polygon fill="midnightblue" stroke="midnightblue" points="1853.95,-220.28 1854.5,-209.7 1847.47,-217.63 1853.95,-220.28"/>
</g>
<!-- Node75&#45;&gt;Node7 -->
<g id="edge120" class="edge">
<title>Node75&#45;&gt;Node7</title>
<path fill="none" stroke="midnightblue" d="M1334.44,-623.01C1280.81,-616.41 1206.4,-603.51 1145,-579 1097.85,-560.18 784.39,-377.52 760,-333 679.08,-185.26 871.01,-122.66 1030,-67 1114.5,-37.42 1219.36,-24.58 1275.7,-19.49"/>
<polygon fill="midnightblue" stroke="midnightblue" points="1276.31,-22.95 1285.97,-18.6 1275.7,-15.97 1276.31,-22.95"/>
</g>
<!-- Node75&#45;&gt;Node18 -->
<g id="edge122" class="edge">
<title>Node75&#45;&gt;Node18</title>
<path fill="none" stroke="midnightblue" d="M1334.28,-622.37C1265.37,-611.86 1162.59,-586.06 1099,-523 1065.46,-489.74 1064.84,-429.21 1066.99,-398.67"/>
<polygon fill="midnightblue" stroke="midnightblue" points="1070.49,-398.83 1067.89,-388.56 1063.52,-398.21 1070.49,-398.83"/>
</g>
<!-- Node76&#45;&gt;Node52 -->
<g id="edge125" class="edge">
<title>Node76&#45;&gt;Node52</title>
<path fill="none" stroke="midnightblue" d="M2508.85,-682.44C2540.29,-675.68 2580.68,-664.27 2613,-646 2683.09,-606.38 2711.54,-595.77 2746,-523 2774.74,-462.32 2766.81,-379.32 2761.29,-342.68"/>
<polygon fill="midnightblue" stroke="midnightblue" points="2764.69,-341.81 2759.63,-332.5 2757.78,-342.94 2764.69,-341.81"/>
</g>
<!-- Node76&#45;&gt;Node57 -->
<g id="edge124" class="edge">
<title>Node76&#45;&gt;Node57</title>
<path fill="none" stroke="midnightblue" d="M2392.74,-684.03C2288,-672.84 2083.05,-650.95 1973.74,-639.27"/>
<polygon fill="midnightblue" stroke="midnightblue" points="1974.11,-635.79 1963.79,-638.21 1973.36,-642.75 1974.11,-635.79"/>
</g>
<!-- Node86&#45;&gt;Node2 -->
<g id="edge129" class="edge">
<title>Node86&#45;&gt;Node2</title>
<path fill="none" stroke="midnightblue" d="M1697.22,-738.46C1616.91,-685.84 1344.34,-499.63 1391,-425 1392.88,-421.99 1502.63,-370.13 1506,-369 1585.01,-342.54 1615.91,-371.13 1690,-333 1740.04,-307.25 1737.06,-279.88 1782,-246 1797.82,-234.07 1817.02,-222.73 1832.17,-214.41"/>
<polygon fill="midnightblue" stroke="midnightblue" points="1833.87,-217.47 1841.01,-209.64 1830.55,-211.31 1833.87,-217.47"/>
</g>
<!-- Node86&#45;&gt;Node25 -->
<g id="edge134" class="edge">
<title>Node86&#45;&gt;Node25</title>
<path fill="none" stroke="midnightblue" d="M1782.2,-747.66C1906.38,-736.91 2175.99,-707.01 2243,-646 2317.69,-578 2298.7,-525.97 2296,-425 2295.33,-400.08 2299.05,-393.18 2293,-369 2290.62,-359.49 2286.21,-349.54 2282.04,-341.43"/>
<polygon fill="midnightblue" stroke="midnightblue" points="2285.09,-339.7 2277.23,-332.59 2278.94,-343.05 2285.09,-339.7"/>
</g>
<!-- Node86&#45;&gt;Node56 -->
<g id="edge136" class="edge">
<title>Node86&#45;&gt;Node56</title>
<path fill="none" stroke="midnightblue" d="M1782.31,-740.03C1837.28,-729.2 1915.97,-713.69 1967.76,-703.49"/>
<polygon fill="midnightblue" stroke="midnightblue" points="1968.61,-706.89 1977.74,-701.52 1967.26,-700.02 1968.61,-706.89"/>
</g>
<!-- Node86&#45;&gt;Node58 -->
<g id="edge135" class="edge">
<title>Node86&#45;&gt;Node58</title>
<path fill="none" stroke="midnightblue" d="M1724.17,-738.33C1739.45,-696.43 1784.4,-573.19 1801.39,-526.61"/>
<polygon fill="midnightblue" stroke="midnightblue" points="1804.69,-527.79 1804.83,-517.2 1798.11,-525.39 1804.69,-527.79"/>
</g>
<!-- Node86&#45;&gt;Node75 -->
<g id="edge137" class="edge">
<title>Node86&#45;&gt;Node75</title>
<path fill="none" stroke="midnightblue" d="M1655.97,-739.91C1618.58,-731.41 1570.7,-718.68 1530,-702 1491.97,-686.41 1451.13,-661.4 1427.11,-645.74"/>
<polygon fill="midnightblue" stroke="midnightblue" points="1428.75,-642.63 1418.48,-640.04 1424.9,-648.47 1428.75,-642.63"/>
</g>
<!-- Node86&#45;&gt;Node98 -->
<g id="edge130" class="edge">
<title>Node86&#45;&gt;Node98</title>
<path fill="none" stroke="midnightblue" d="M1762.09,-738.47C1807.8,-723.75 1882.2,-700.27 1947,-682 1998.94,-667.36 2059.06,-652.29 2099.3,-642.47"/>
<polygon fill="midnightblue" stroke="midnightblue" points="2100.2,-645.85 2109.09,-640.09 2098.54,-639.05 2100.2,-645.85"/>
</g>
<!-- Node98&#45;&gt;Node2 -->
<g id="edge131" class="edge">
<title>Node98&#45;&gt;Node2</title>
<path fill="none" stroke="midnightblue" d="M2145.62,-620.67C2146.82,-597.61 2147.3,-534.43 2121,-492 2106.76,-469.03 2085.04,-479.67 2072,-456 2041.26,-400.2 2080.39,-374 2062,-313 2052.12,-280.22 2051.05,-266.98 2024,-246 1993.64,-222.45 1951.86,-211.2 1917.8,-205.84"/>
<polygon fill="midnightblue" stroke="midnightblue" points="1917.9,-202.32 1907.51,-204.36 1916.91,-209.25 1917.9,-202.32"/>
</g>
<!-- Node98&#45;&gt;Node25 -->
<g id="edge132" class="edge">
<title>Node98&#45;&gt;Node25</title>
<path fill="none" stroke="midnightblue" d="M2152.19,-620.72C2167.1,-601.59 2200,-554.19 2200,-508.5 2200,-508.5 2200,-508.5 2200,-439.5 2200,-398.64 2232.85,-360.29 2254.17,-339.69"/>
<polygon fill="midnightblue" stroke="midnightblue" points="2256.75,-342.07 2261.68,-332.7 2251.98,-336.95 2256.75,-342.07"/>
</g>
<!-- Node98&#45;&gt;Node61 -->
<g id="edge133" class="edge">
<title>Node98&#45;&gt;Node61</title>
<path fill="none" stroke="midnightblue" d="M2118.21,-620.98C2085.71,-610.64 2030.79,-593.16 1994.46,-581.6"/>
<polygon fill="midnightblue" stroke="midnightblue" points="1995.33,-578.21 1984.74,-578.51 1993.21,-584.88 1995.33,-578.21"/>
</g>
<!-- Node99&#45;&gt;Node2 -->
<g id="edge139" class="edge">
<title>Node99&#45;&gt;Node2</title>
<path fill="none" stroke="midnightblue" d="M1175.42,-492.44C1187.33,-473.85 1210.93,-441.52 1240,-425 1312.45,-383.83 1344.25,-413.15 1424,-389 1446.12,-382.3 1449.85,-375.59 1472,-369 1556.05,-344 1591.7,-379.58 1666,-333 1706.67,-307.5 1691.42,-274.56 1730,-246 1751.8,-229.86 1779.88,-219.14 1804.18,-212.22"/>
<polygon fill="midnightblue" stroke="midnightblue" points="1805.25,-215.56 1813.99,-209.58 1803.42,-208.8 1805.25,-215.56"/>
</g>
<!-- Node99&#45;&gt;Node100 -->
<g id="edge140" class="edge">
<title>Node99&#45;&gt;Node100</title>
<path fill="none" stroke="midnightblue" d="M1160.06,-492.4C1156.07,-484.3 1150.97,-473.94 1146.41,-464.69"/>
<polygon fill="midnightblue" stroke="midnightblue" points="1149.49,-463 1141.93,-455.58 1143.21,-466.09 1149.49,-463"/>
</g>
<!-- Node100&#45;&gt;Node2 -->
<g id="edge143" class="edge">
<title>Node100&#45;&gt;Node2</title>
<path fill="none" stroke="midnightblue" d="M1187.65,-428C1192.5,-426.97 1197.34,-425.96 1202,-425 1283.61,-408.19 1306.25,-413.15 1386,-389 1408.12,-382.3 1411.8,-375.44 1434,-369 1524.95,-342.62 1566.83,-387.88 1644,-333 1679.99,-307.41 1657.27,-273.27 1692,-246 1708.98,-232.67 1759.72,-220.04 1800.68,-211.58"/>
<polygon fill="midnightblue" stroke="midnightblue" points="1801.48,-214.99 1810.59,-209.57 1800.09,-208.13 1801.48,-214.99"/>
</g>
<!-- Node100&#45;&gt;Node8 -->
<g id="edge141" class="edge">
<title>Node100&#45;&gt;Node8</title>
<path fill="none" stroke="midnightblue" d="M1082.34,-430.65C996.34,-415.44 820.99,-381.25 678,-333 551.52,-290.32 522.96,-270.56 404,-210 329.78,-172.21 245.11,-121.53 205.57,-97.4"/>
<polygon fill="midnightblue" stroke="midnightblue" points="207.31,-94.36 196.96,-92.13 203.66,-100.33 207.31,-94.36"/>
</g>
<!-- Node100&#45;&gt;Node18 -->
<g id="edge144" class="edge">
<title>Node100&#45;&gt;Node18</title>
<path fill="none" stroke="midnightblue" d="M1119.36,-425.4C1109.37,-416.4 1096.42,-404.72 1086.15,-395.47"/>
<polygon fill="midnightblue" stroke="midnightblue" points="1088.37,-392.75 1078.6,-388.66 1083.69,-397.95 1088.37,-392.75"/>
</g>
<!-- Node100&#45;&gt;Node21 -->
<g id="edge142" class="edge">
<title>Node100&#45;&gt;Node21</title>
<path fill="none" stroke="midnightblue" d="M1139.17,-425.34C1145.32,-404.43 1156.84,-365.31 1163.62,-342.27"/>
<polygon fill="midnightblue" stroke="midnightblue" points="1166.98,-343.25 1166.45,-332.67 1160.27,-341.27 1166.98,-343.25"/>
</g>
<!-- Node101&#45;&gt;Node56 -->
<g id="edge161" class="edge">
<title>Node101&#45;&gt;Node56</title>
<path fill="none" stroke="midnightblue" d="M1995.01,-805.3C1999.53,-785.76 2010.57,-738.06 2016.71,-711.55"/>
<polygon fill="midnightblue" stroke="midnightblue" points="2020.16,-712.15 2019,-701.62 2013.34,-710.58 2020.16,-712.15"/>
</g>
<!-- Node102 -->
<g id="node45" class="node">
<title>Node102</title>
<g id="a_node45"><a xlink:href="../../d8/dbb/properties_8h.html" target="_top" xlink:title=" ">
<polygon fill="none" stroke="red" points="2063.5,-744 2063.5,-763 2182.5,-763 2182.5,-744 2063.5,-744"/>
<text text-anchor="middle" x="2123" y="-751" font-family="Helvetica,sans-Serif" font-size="10.00">includes/properties.h</text>
</a>
</g>
</g>
<!-- Node101&#45;&gt;Node102 -->
<g id="edge146" class="edge">
<title>Node101&#45;&gt;Node102</title>
<path fill="none" stroke="midnightblue" d="M2011.63,-805.48C2033.44,-795.49 2069.8,-778.85 2095.02,-767.31"/>
<polygon fill="midnightblue" stroke="midnightblue" points="2096.77,-770.35 2104.41,-763.01 2093.86,-763.99 2096.77,-770.35"/>
</g>
<!-- Node104 -->
<g id="node47" class="node">
<title>Node104</title>
<g id="a_node47"><a xlink:href="../../d5/d6d/geometrical__object_8h.html" target="_top" xlink:title=" ">
<polygon fill="none" stroke="red" points="2431.5,-738.5 2431.5,-768.5 2550.5,-768.5 2550.5,-738.5 2431.5,-738.5"/>
<text text-anchor="start" x="2439.5" y="-756.5" font-family="Helvetica,sans-Serif" font-size="10.00">includes/geometrical</text>
<text text-anchor="middle" x="2491" y="-745.5" font-family="Helvetica,sans-Serif" font-size="10.00">_object.h</text>
</a>
</g>
</g>
<!-- Node101&#45;&gt;Node104 -->
<g id="edge162" class="edge">
<title>Node101&#45;&gt;Node104</title>
<path fill="none" stroke="midnightblue" d="M2048.14,-806.1C2051.14,-805.72 2054.1,-805.35 2057,-805 2216.65,-785.8 2257.93,-792.49 2417,-769 2418.46,-768.78 2419.93,-768.56 2421.41,-768.33"/>
<polygon fill="midnightblue" stroke="midnightblue" points="2422.01,-771.78 2431.31,-766.7 2420.87,-764.87 2422.01,-771.78"/>
</g>
<!-- Node102&#45;&gt;Node2 -->
<g id="edge151" class="edge">
<title>Node102&#45;&gt;Node2</title>
<path fill="none" stroke="midnightblue" d="M2139.8,-743.81C2167.46,-728.44 2221.64,-693.51 2243,-646 2248.65,-633.43 2246.27,-628.38 2243,-615 2199.08,-435.42 2197.04,-359.35 2051,-246 2013.04,-216.54 1959.06,-205.83 1917.83,-202.18"/>
<polygon fill="midnightblue" stroke="midnightblue" points="1917.88,-198.67 1907.64,-201.4 1917.34,-205.65 1917.88,-198.67"/>
</g>
<!-- Node102&#45;&gt;Node7 -->
<g id="edge148" class="edge">
<title>Node102&#45;&gt;Node7</title>
<path fill="none" stroke="midnightblue" d="M2143.77,-743.88C2164.61,-734.81 2197.23,-719.45 2223,-702 2402.14,-580.72 2687.18,-555.75 2578,-369 2458.32,-164.29 2325,-205.79 2099,-134 2043.9,-116.5 2025.85,-123.57 1974,-98 1953.19,-87.74 1953.72,-75.15 1932,-67 1825.94,-27.22 1475.84,-18.71 1356.37,-16.94"/>
<polygon fill="midnightblue" stroke="midnightblue" points="1356.24,-13.44 1346.19,-16.8 1356.14,-20.44 1356.24,-13.44"/>
</g>
<!-- Node102&#45;&gt;Node12 -->
<g id="edge147" class="edge">
<title>Node102&#45;&gt;Node12</title>
<path fill="none" stroke="midnightblue" d="M2182.73,-748.05C2262.81,-741.41 2409.13,-726.96 2532,-702 2875.92,-632.13 3188,-613.44 3188,-262.5 3188,-262.5 3188,-262.5 3188,-143 3188,-91.66 3147.36,-89.07 3101,-67 3013.21,-25.2 2895.99,-17.57 2840.17,-16.46"/>
<polygon fill="midnightblue" stroke="midnightblue" points="2840.22,-12.96 2830.17,-16.32 2840.12,-19.96 2840.22,-12.96"/>
</g>
<!-- Node102&#45;&gt;Node17 -->
<g id="edge149" class="edge">
<title>Node102&#45;&gt;Node17</title>
<path fill="none" stroke="midnightblue" d="M2091.39,-743.92C2056.06,-734.22 1997.21,-717.71 1947,-702 1873.09,-678.87 1852.3,-678.48 1782,-646 1685.2,-601.28 1649.23,-600.52 1576,-523 1552.93,-498.58 1549.01,-488.63 1541,-456 1536.34,-437.01 1537.07,-414.53 1538.52,-398.97"/>
<polygon fill="midnightblue" stroke="midnightblue" points="1542.05,-398.92 1539.69,-388.59 1535.09,-398.14 1542.05,-398.92"/>
</g>
<!-- Node102&#45;&gt;Node21 -->
<g id="edge150" class="edge">
<title>Node102&#45;&gt;Node21</title>
<path fill="none" stroke="midnightblue" d="M2071.26,-743.93C2020.78,-735.11 1942.02,-720.12 1875,-702 1627.8,-635.17 1568.82,-595.38 1354,-456 1292.02,-415.78 1221.72,-363.77 1188.44,-338.74"/>
<polygon fill="midnightblue" stroke="midnightblue" points="1190.53,-335.93 1180.44,-332.7 1186.32,-341.52 1190.53,-335.93"/>
</g>
<!-- Node102&#45;&gt;Node56 -->
<g id="edge154" class="edge">
<title>Node102&#45;&gt;Node56</title>
<path fill="none" stroke="midnightblue" d="M2108.39,-743.98C2091.65,-734.21 2064,-718.08 2044.28,-706.58"/>
<polygon fill="midnightblue" stroke="midnightblue" points="2045.99,-703.52 2035.59,-701.51 2042.46,-709.57 2045.99,-703.52"/>
</g>
<!-- Node102&#45;&gt;Node57 -->
<g id="edge153" class="edge">
<title>Node102&#45;&gt;Node57</title>
<path fill="none" stroke="midnightblue" d="M2122.19,-743.69C2120.32,-728.74 2114.37,-698.42 2096,-682 2062.7,-652.25 2014.11,-639.61 1973.77,-634.42"/>
<polygon fill="midnightblue" stroke="midnightblue" points="1974.04,-630.93 1963.7,-633.25 1973.23,-637.88 1974.04,-630.93"/>
</g>
<!-- Node102&#45;&gt;Node75 -->
<g id="edge152" class="edge">
<title>Node102&#45;&gt;Node75</title>
<path fill="none" stroke="midnightblue" d="M2063.33,-746.84C1984.43,-738.93 1841.21,-723.15 1720,-702 1622.44,-684.98 1509.45,-657.73 1449.17,-642.58"/>
<polygon fill="midnightblue" stroke="midnightblue" points="1449.8,-639.13 1439.25,-640.07 1448.09,-645.91 1449.8,-639.13"/>
</g>
<!-- Node102&#45;&gt;Node103 -->
<g id="edge155" class="edge">
<title>Node102&#45;&gt;Node103</title>
<path fill="none" stroke="midnightblue" d="M2153.22,-743.9C2211.89,-727.26 2339.36,-691.51 2384,-682 2484.77,-660.54 2512.82,-670.05 2613,-646 2686.47,-628.36 2770.12,-598.63 2814.48,-582.06"/>
<polygon fill="midnightblue" stroke="midnightblue" points="2815.72,-585.34 2823.85,-578.54 2813.26,-578.78 2815.72,-585.34"/>
</g>
<!-- Node103&#45;&gt;Node2 -->
<g id="edge159" class="edge">
<title>Node103&#45;&gt;Node2</title>
<path fill="none" stroke="midnightblue" d="M2842,-559.27C2827.81,-529.12 2777,-428.04 2708,-369 2636.71,-308.01 2597.11,-327.44 2518,-277 2499.62,-265.28 2500.26,-254.05 2480,-246 2428.66,-225.6 2063.81,-209.12 1918,-203.28"/>
<polygon fill="midnightblue" stroke="midnightblue" points="1918.01,-199.78 1907.88,-202.88 1917.74,-206.78 1918.01,-199.78"/>
</g>
<!-- Node103&#45;&gt;Node7 -->
<g id="edge157" class="edge">
<title>Node103&#45;&gt;Node7</title>
<path fill="none" stroke="midnightblue" d="M2850.51,-559.37C2860.57,-539.29 2884,-487.59 2884,-441.5 2884,-441.5 2884,-441.5 2884,-378 2884,-321.97 2673.95,-178.99 2537,-134 2351.01,-72.9 2289.3,-139.55 2098,-98 2058.3,-89.38 2051.74,-75.44 2012,-67 1885.35,-40.11 1485,-22.92 1356.28,-17.98"/>
<polygon fill="midnightblue" stroke="midnightblue" points="1356.21,-14.47 1346.08,-17.59 1355.94,-21.47 1356.21,-14.47"/>
</g>
<!-- Node103&#45;&gt;Node12 -->
<g id="edge156" class="edge">
<title>Node103&#45;&gt;Node12</title>
<path fill="none" stroke="midnightblue" d="M2858.92,-559.25C2870.37,-550.99 2886.94,-537.68 2898,-523 2944.85,-460.82 3036,-278.85 3036,-201 3036,-201 3036,-201 3036,-143 3036,-107.58 3037.83,-91.24 3012,-67 2987.35,-43.86 2891.49,-27.76 2840.43,-20.63"/>
<polygon fill="midnightblue" stroke="midnightblue" points="2840.64,-17.13 2830.26,-19.25 2839.69,-24.06 2840.64,-17.13"/>
</g>
<!-- Node103&#45;&gt;Node52 -->
<g id="edge158" class="edge">
<title>Node103&#45;&gt;Node52</title>
<path fill="none" stroke="midnightblue" d="M2847.31,-559.26C2851.23,-529.93 2860.4,-433.21 2822,-369 2813.87,-355.4 2799.85,-344.85 2787.01,-337.39"/>
<polygon fill="midnightblue" stroke="midnightblue" points="2788.42,-334.18 2777.96,-332.51 2785.1,-340.34 2788.42,-334.18"/>
</g>
<!-- Node103&#45;&gt;Node58 -->
<g id="edge160" class="edge">
<title>Node103&#45;&gt;Node58</title>
<path fill="none" stroke="midnightblue" d="M2798.7,-565.29C2632.52,-555.76 2074.84,-523.8 1877.73,-512.5"/>
<polygon fill="midnightblue" stroke="midnightblue" points="1877.69,-508.99 1867.5,-511.91 1877.29,-515.98 1877.69,-508.99"/>
</g>
<!-- Node104&#45;&gt;Node2 -->
<g id="edge163" class="edge">
<title>Node104&#45;&gt;Node2</title>
<path fill="none" stroke="midnightblue" d="M2507.03,-738.32C2516.27,-729.04 2527.02,-716.05 2532,-702 2534.97,-693.62 2534.18,-690.62 2532,-682 2486.39,-501.34 2469.41,-439.93 2333,-313 2279.84,-263.54 2253.78,-266.06 2184,-246 2093.31,-219.93 1983.94,-208.77 1917.75,-204.13"/>
<polygon fill="midnightblue" stroke="midnightblue" points="1917.72,-200.62 1907.51,-203.44 1917.25,-207.6 1917.72,-200.62"/>
</g>
<!-- Node104&#45;&gt;Node25 -->
<g id="edge164" class="edge">
<title>Node104&#45;&gt;Node25</title>
<path fill="none" stroke="midnightblue" d="M2550.72,-739.61C2570.82,-732.12 2591.14,-720.36 2603,-702 2616.42,-681.23 2644.29,-721.16 2549,-492 2524.93,-434.12 2530.41,-406.25 2480,-369 2457.11,-352.09 2386.43,-339.23 2333.78,-331.68"/>
<polygon fill="midnightblue" stroke="midnightblue" points="2334.23,-328.21 2323.84,-330.28 2333.26,-335.14 2334.23,-328.21"/>
</g>
<!-- Node104&#45;&gt;Node76 -->
<g id="edge165" class="edge">
<title>Node104&#45;&gt;Node76</title>
<path fill="none" stroke="midnightblue" d="M2483.18,-738.4C2478.53,-730.02 2472.6,-719.33 2467.66,-710.42"/>
<polygon fill="midnightblue" stroke="midnightblue" points="2470.71,-708.71 2462.8,-701.66 2464.59,-712.1 2470.71,-708.71"/>
</g>
<!-- Node118&#45;&gt;Node56 -->
<g id="edge168" class="edge">
<title>Node118&#45;&gt;Node56</title>
<path fill="none" stroke="midnightblue" d="M2104.44,-805.42C2089.44,-797.69 2068.64,-785.09 2055,-769 2040.72,-752.16 2031.37,-728.36 2026.16,-711.9"/>
<polygon fill="midnightblue" stroke="midnightblue" points="2029.38,-710.46 2023.2,-701.85 2022.67,-712.43 2029.38,-710.46"/>
</g>
<!-- Node118&#45;&gt;Node102 -->
<g id="edge167" class="edge">
<title>Node118&#45;&gt;Node102</title>
<path fill="none" stroke="midnightblue" d="M2123,-805.48C2123,-797.08 2123,-783.98 2123,-773.16"/>
<polygon fill="midnightblue" stroke="midnightblue" points="2126.5,-773.01 2123,-763.01 2119.5,-773.01 2126.5,-773.01"/>
</g>
<!-- Node118&#45;&gt;Node104 -->
<g id="edge169" class="edge">
<title>Node118&#45;&gt;Node104</title>
<path fill="none" stroke="midnightblue" d="M2180.03,-805.99C2239.34,-797.49 2334.85,-783.33 2417,-769 2418.45,-768.75 2419.92,-768.49 2421.39,-768.22"/>
<polygon fill="midnightblue" stroke="midnightblue" points="2422.05,-771.66 2431.27,-766.43 2420.8,-764.78 2422.05,-771.66"/>
</g>
<!-- Node119&#45;&gt;Node2 -->
<g id="edge175" class="edge">
<title>Node119&#45;&gt;Node2</title>
<path fill="none" stroke="midnightblue" d="M2062.64,-863.06C2194.43,-849.03 2474.75,-814.72 2560,-769 2596.29,-749.54 2608.68,-740.22 2624,-702 2627.31,-693.75 2624.46,-690.88 2624,-682 2616.26,-533.38 2618.48,-465.29 2505,-369 2330.93,-221.29 2042.33,-201.39 1918.01,-200.09"/>
<polygon fill="midnightblue" stroke="midnightblue" points="1917.94,-196.59 1907.92,-200.02 1917.9,-203.59 1917.94,-196.59"/>
</g>
<!-- Node119&#45;&gt;Node4 -->
<g id="edge173" class="edge">
<title>Node119&#45;&gt;Node4</title>
<path fill="none" stroke="midnightblue" d="M1923.14,-866.85C1710.29,-856.75 1072.18,-822.69 872,-769 862.02,-766.32 202.56,-464.71 197,-456 93.27,-293.56 416.7,-140.01 520.22,-96.03"/>
<polygon fill="midnightblue" stroke="midnightblue" points="521.67,-99.21 529.53,-92.11 518.96,-92.76 521.67,-99.21"/>
</g>
<!-- Node119&#45;&gt;Node7 -->
<g id="edge172" class="edge">
<title>Node119&#45;&gt;Node7</title>
<path fill="none" stroke="midnightblue" d="M2062.77,-866.51C2146.26,-861.41 2289.96,-849.7 2411,-825 2674.17,-771.29 2778.63,-774.32 2963,-579 3016.96,-521.83 3080.72,-497.36 3050,-425 3018.38,-350.52 2845.7,-279.71 2789,-246 2696.73,-191.14 2678.68,-161.81 2575,-134 2384.21,-82.82 2322.42,-150.53 2132,-98 2101.92,-89.7 2099.14,-75.09 2069,-67 1932.7,-30.43 1492.61,-19.65 1356.5,-17.15"/>
<polygon fill="midnightblue" stroke="midnightblue" points="1356.18,-13.64 1346.12,-16.96 1356.05,-20.64 1356.18,-13.64"/>
</g>
<!-- Node119&#45;&gt;Node12 -->
<g id="edge171" class="edge">
<title>Node119&#45;&gt;Node12</title>
<path fill="none" stroke="midnightblue" d="M2062.78,-866.21C2156.82,-860.47 2329.27,-847.78 2475,-825 2589.21,-807.15 2619.22,-805.23 2729,-769 2856.14,-727.04 2883.64,-704.66 3004,-646 3121.51,-588.73 3264,-639.22 3264,-508.5 3264,-508.5 3264,-508.5 3264,-143 3264,-96.16 3232.79,-88.14 3191,-67 3129.71,-36 2921.36,-22.28 2840.47,-18.03"/>
<polygon fill="midnightblue" stroke="midnightblue" points="2840.54,-14.53 2830.37,-17.52 2840.18,-21.52 2840.54,-14.53"/>
</g>
<!-- Node119&#45;&gt;Node17 -->
<g id="edge174" class="edge">
<title>Node119&#45;&gt;Node17</title>
<path fill="none" stroke="midnightblue" d="M1979.32,-861.35C1910.59,-817.59 1604.04,-619.04 1548,-523 1525.11,-483.77 1531.33,-427.68 1536.77,-398.79"/>
<polygon fill="midnightblue" stroke="midnightblue" points="1540.23,-399.33 1538.82,-388.83 1533.37,-397.91 1540.23,-399.33"/>
</g>
<!-- Node119&#45;&gt;Node69 -->
<g id="edge178" class="edge">
<title>Node119&#45;&gt;Node69</title>
<path fill="none" stroke="midnightblue" d="M1931.52,-861.44C1857.89,-851.2 1735.49,-834.16 1663.3,-824.11"/>
<polygon fill="midnightblue" stroke="midnightblue" points="1663.42,-820.6 1653.03,-822.68 1662.45,-827.53 1663.42,-820.6"/>
</g>
<!-- Node119&#45;&gt;Node101 -->
<g id="edge177" class="edge">
<title>Node119&#45;&gt;Node101</title>
<path fill="none" stroke="midnightblue" d="M1993,-861.08C1993,-854.01 1993,-843.86 1993,-834.99"/>
<polygon fill="midnightblue" stroke="midnightblue" points="1996.5,-834.75 1993,-824.75 1989.5,-834.75 1996.5,-834.75"/>
</g>
<!-- Node119&#45;&gt;Node118 -->
<g id="edge176" class="edge">
<title>Node119&#45;&gt;Node118</title>
<path fill="none" stroke="midnightblue" d="M2013.6,-861.44C2034.99,-852.56 2068.68,-838.56 2093.02,-828.45"/>
<polygon fill="midnightblue" stroke="midnightblue" points="2094.61,-831.58 2102.5,-824.52 2091.92,-825.12 2094.61,-831.58"/>
</g>
<!-- Node68&#45;&gt;Node7 -->
<g id="edge189" class="edge">
<title>Node68&#45;&gt;Node7</title>
<path fill="none" stroke="midnightblue" d="M2409.19,-75.61C2372.4,-72.82 2327.39,-69.54 2287,-67 1926.13,-44.34 1489.36,-24.24 1356.35,-18.29"/>
<polygon fill="midnightblue" stroke="midnightblue" points="1356.36,-14.78 1346.22,-17.83 1356.05,-21.78 1356.36,-14.78"/>
</g>
<!-- Node68&#45;&gt;Node12 -->
<g id="edge188" class="edge">
<title>Node68&#45;&gt;Node12</title>
<path fill="none" stroke="midnightblue" d="M2526.69,-72.94C2592.5,-59.73 2717.27,-34.7 2775.96,-22.93"/>
<polygon fill="midnightblue" stroke="midnightblue" points="2776.67,-26.35 2785.79,-20.96 2775.3,-19.49 2776.67,-26.35"/>
</g>
</g>
</svg>
