<?xml version="1.0" encoding="UTF-8" standalone="no"?>
<!DOCTYPE svg PUBLIC "-//W3C//DTD SVG 1.1//EN"
 "http://www.w3.org/Graphics/SVG/1.1/DTD/svg11.dtd">
<!-- Generated by graphviz version 7.1.0 (0)
 -->
<!-- Title: /software/kratos/doxygen/applications/CompressiblePotentialFlowApplication Pages: 1 -->
<svg width="650pt" height="262pt"
 viewBox="0.00 0.00 649.50 262.00" xmlns="http://www.w3.org/2000/svg" xmlns:xlink="http://www.w3.org/1999/xlink">
<g id="graph0" class="graph" transform="scale(1 1) rotate(0) translate(4 258)">
<title>/software/kratos/doxygen/applications/CompressiblePotentialFlowApplication</title>
<g id="clust1" class="cluster">
<title>clusterdir_a6e4fee11f07c3b70486e88fe92cbbdc</title>
<g id="a_clust1"><a xlink:href="dir_a6e4fee11f07c3b70486e88fe92cbbdc.html" target="_top" xlink:title="applications">
<polygon fill="#edf0f7" stroke="#404040" stroke-dasharray="5,2" points="8,-8 8,-246 586,-246 586,-8 8,-8"/>
<text text-anchor="middle" x="297" y="-234" font-family="Helvetica,sans-Serif" font-size="10.00">applications</text>
</a>
</g>
</g>
<g id="clust2" class="cluster">
<title>clusterdir_556c9b21c16095f6e16120ed370d10d8</title>
<g id="a_clust2"><a xlink:href="dir_556c9b21c16095f6e16120ed370d10d8.html" target="_top">
<polygon fill="#edf0f7" stroke="#404040" stroke-width="2" points="16,-63 16,-219 578,-219 578,-63 16,-63"/>
</a>
</g>
</g>
<!-- dir_3ad5b53c1d85a729c373dd4b6e02d9a8 -->
<g id="node1" class="node">
<title>dir_3ad5b53c1d85a729c373dd4b6e02d9a8</title>
<g id="a_node1"><a xlink:href="dir_3ad5b53c1d85a729c373dd4b6e02d9a8.html" target="_top" xlink:title="FluidDynamicsApplication">
<polygon fill="#a2b4d6" stroke="red" points="272,-35 128,-35 128,-16 272,-16 272,-35"/>
<text text-anchor="middle" x="200" y="-23" font-family="Helvetica,sans-Serif" font-size="10.00">FluidDynamicsApplication</text>
</a>
</g>
</g>
<!-- dir_556c9b21c16095f6e16120ed370d10d8 -->
<g id="node2" class="node">
<title>dir_556c9b21c16095f6e16120ed370d10d8</title>
<text text-anchor="start" x="276" y="-199" font-family="Helvetica,sans-Serif" font-size="10.00">CompressiblePotentialFlow</text>
<text text-anchor="middle" x="343" y="-188" font-family="Helvetica,sans-Serif" font-size="10.00">Application</text>
</g>
<!-- dir_6a7b8a30b13dc8fb3a787e232e9f6e23 -->
<g id="node3" class="node">
<title>dir_6a7b8a30b13dc8fb3a787e232e9f6e23</title>
<g id="a_node3"><a xlink:href="dir_6a7b8a30b13dc8fb3a787e232e9f6e23.html" target="_top" xlink:title="custom_conditions">
<polygon fill="#a2b4d6" stroke="#404040" points="254,-145 146,-145 146,-126 254,-126 254,-145"/>
<text text-anchor="middle" x="200" y="-133" font-family="Helvetica,sans-Serif" font-size="10.00">custom_conditions</text>
</a>
</g>
</g>
<!-- dir_556c9b21c16095f6e16120ed370d10d8&#45;&gt;dir_6a7b8a30b13dc8fb3a787e232e9f6e23 -->
<g id="edge1" class="edge">
<title>dir_556c9b21c16095f6e16120ed370d10d8&#45;&gt;dir_6a7b8a30b13dc8fb3a787e232e9f6e23</title>
<path fill="none" stroke="#63b8ff" d="M309.11,-181.14C285.83,-171.61 255.11,-159.05 232.2,-149.67"/>
<polygon fill="#63b8ff" stroke="#63b8ff" points="233.63,-146.48 223.05,-145.93 230.98,-152.96 233.63,-146.48"/>
<g id="a_edge1&#45;headlabel"><a xlink:href="dir_000038_000074.html" target="_top" xlink:title="2">
<text text-anchor="middle" x="236.63" y="-142.14" font-family="Helvetica,sans-Serif" font-size="10.00" fill="#63b8ff">2</text>
</a>
</g>
</g>
<!-- dir_cd5be0df38f7364404afe6cb57fa14aa -->
<g id="node4" class="node">
<title>dir_cd5be0df38f7364404afe6cb57fa14aa</title>
<g id="a_node4"><a xlink:href="dir_cd5be0df38f7364404afe6cb57fa14aa.html" target="_top" xlink:title="custom_elements">
<polygon fill="#a2b4d6" stroke="#404040" points="128,-145 24,-145 24,-126 128,-126 128,-145"/>
<text text-anchor="middle" x="76" y="-133" font-family="Helvetica,sans-Serif" font-size="10.00">custom_elements</text>
</a>
</g>
</g>
<!-- dir_556c9b21c16095f6e16120ed370d10d8&#45;&gt;dir_cd5be0df38f7364404afe6cb57fa14aa -->
<g id="edge3" class="edge">
<title>dir_556c9b21c16095f6e16120ed370d10d8&#45;&gt;dir_cd5be0df38f7364404afe6cb57fa14aa</title>
<path fill="none" stroke="#63b8ff" d="M279.39,-181.06C233.09,-170.92 171.17,-157.35 127.86,-147.86"/>
<polygon fill="#63b8ff" stroke="#63b8ff" points="128.71,-144.47 118.2,-145.75 127.21,-151.3 128.71,-144.47"/>
<g id="a_edge3&#45;headlabel"><a xlink:href="dir_000038_000116.html" target="_top" xlink:title="10">
<text text-anchor="middle" x="131.35" y="-139.64" font-family="Helvetica,sans-Serif" font-size="10.00" fill="#63b8ff">10</text>
</a>
</g>
</g>
<!-- dir_8fc3e8efef0bfca4a113d719cbd52afb -->
<g id="node11" class="node">
<title>dir_8fc3e8efef0bfca4a113d719cbd52afb</title>
<g id="a_node11"><a xlink:href="dir_8fc3e8efef0bfca4a113d719cbd52afb.html" target="_top" xlink:title="kratos">
<polygon fill="#edf0f7" stroke="red" points="641.5,-35 594.5,-35 594.5,-16 641.5,-16 641.5,-35"/>
<text text-anchor="middle" x="618" y="-23" font-family="Helvetica,sans-Serif" font-size="10.00">kratos</text>
</a>
</g>
</g>
<!-- dir_556c9b21c16095f6e16120ed370d10d8&#45;&gt;dir_8fc3e8efef0bfca4a113d719cbd52afb -->
<g id="edge2" class="edge">
<title>dir_556c9b21c16095f6e16120ed370d10d8&#45;&gt;dir_8fc3e8efef0bfca4a113d719cbd52afb</title>
<path fill="none" stroke="#63b8ff" d="M417.95,-182.96C482.41,-171.98 566.88,-155.87 579,-145 607.41,-119.53 615.19,-73 617.28,-46.45"/>
<polygon fill="#63b8ff" stroke="#63b8ff" points="620.76,-46.9 617.82,-36.72 613.77,-46.51 620.76,-46.9"/>
<g id="a_edge2&#45;headlabel"><a xlink:href="dir_000038_000461.html" target="_top" xlink:title="108">
<text text-anchor="middle" x="623.47" y="-46.64" font-family="Helvetica,sans-Serif" font-size="10.00" fill="#63b8ff">108</text>
</a>
</g>
</g>
<!-- dir_6a7b8a30b13dc8fb3a787e232e9f6e23&#45;&gt;dir_3ad5b53c1d85a729c373dd4b6e02d9a8 -->
<g id="edge4" class="edge">
<title>dir_6a7b8a30b13dc8fb3a787e232e9f6e23&#45;&gt;dir_3ad5b53c1d85a729c373dd4b6e02d9a8</title>
<path fill="none" stroke="#63b8ff" d="M200,-125.66C200,-108.57 200,-70.61 200,-46.92"/>
<polygon fill="#63b8ff" stroke="#63b8ff" points="203.5,-46.97 200,-36.97 196.5,-46.97 203.5,-46.97"/>
<g id="a_edge4&#45;headlabel"><a xlink:href="dir_000074_000419.html" target="_top" xlink:title="1">
<text text-anchor="middle" x="206.34" y="-46.55" font-family="Helvetica,sans-Serif" font-size="10.00" fill="#63b8ff">1</text>
</a>
</g>
</g>
<!-- dir_6a7b8a30b13dc8fb3a787e232e9f6e23&#45;&gt;dir_8fc3e8efef0bfca4a113d719cbd52afb -->
<g id="edge5" class="edge">
<title>dir_6a7b8a30b13dc8fb3a787e232e9f6e23&#45;&gt;dir_8fc3e8efef0bfca4a113d719cbd52afb</title>
<path fill="none" stroke="#63b8ff" d="M253.83,-125.51C294.54,-118 351.51,-105.95 400,-90 428.16,-80.74 432.81,-72.19 461,-63 513.29,-45.95 531.01,-49.23 583.27,-36.61"/>
<polygon fill="#63b8ff" stroke="#63b8ff" points="583.89,-40.06 592.74,-34.23 582.19,-33.28 583.89,-40.06"/>
<g id="a_edge5&#45;headlabel"><a xlink:href="dir_000074_000461.html" target="_top" xlink:title="7">
<text text-anchor="middle" x="582.57" y="-40.83" font-family="Helvetica,sans-Serif" font-size="10.00" fill="#63b8ff">7</text>
</a>
</g>
</g>
<!-- dir_cd5be0df38f7364404afe6cb57fa14aa&#45;&gt;dir_3ad5b53c1d85a729c373dd4b6e02d9a8 -->
<g id="edge6" class="edge">
<title>dir_cd5be0df38f7364404afe6cb57fa14aa&#45;&gt;dir_3ad5b53c1d85a729c373dd4b6e02d9a8</title>
<path fill="none" stroke="#63b8ff" d="M86.15,-125.66C106.95,-107.55 154.69,-65.96 181.27,-42.81"/>
<polygon fill="#63b8ff" stroke="#63b8ff" points="183.33,-45.66 188.57,-36.45 178.73,-40.38 183.33,-45.66"/>
<g id="a_edge6&#45;headlabel"><a xlink:href="dir_000116_000419.html" target="_top" xlink:title="8">
<text text-anchor="middle" x="183.62" y="-46.67" font-family="Helvetica,sans-Serif" font-size="10.00" fill="#63b8ff">8</text>
</a>
</g>
</g>
<!-- dir_a307a906bb91bd6fad9433562037c6f8 -->
<g id="node8" class="node">
<title>dir_a307a906bb91bd6fad9433562037c6f8</title>
<g id="a_node8"><a xlink:href="dir_a307a906bb91bd6fad9433562037c6f8.html" target="_top" xlink:title="custom_utilities">
<polygon fill="#a2b4d6" stroke="#404040" points="320.5,-90 225.5,-90 225.5,-71 320.5,-71 320.5,-90"/>
<text text-anchor="middle" x="273" y="-78" font-family="Helvetica,sans-Serif" font-size="10.00">custom_utilities</text>
</a>
</g>
</g>
<!-- dir_cd5be0df38f7364404afe6cb57fa14aa&#45;&gt;dir_a307a906bb91bd6fad9433562037c6f8 -->
<g id="edge8" class="edge">
<title>dir_cd5be0df38f7364404afe6cb57fa14aa&#45;&gt;dir_a307a906bb91bd6fad9433562037c6f8</title>
<path fill="none" stroke="#63b8ff" d="M109.42,-125.51C142.35,-116.65 192.84,-103.07 229.02,-93.33"/>
<polygon fill="#63b8ff" stroke="#63b8ff" points="229.54,-96.82 238.29,-90.84 227.72,-90.06 229.54,-96.82"/>
<g id="a_edge8&#45;headlabel"><a xlink:href="dir_000116_000323.html" target="_top" xlink:title="12">
<text text-anchor="middle" x="228.27" y="-97.6" font-family="Helvetica,sans-Serif" font-size="10.00" fill="#63b8ff">12</text>
</a>
</g>
</g>
<!-- dir_cd5be0df38f7364404afe6cb57fa14aa&#45;&gt;dir_8fc3e8efef0bfca4a113d719cbd52afb -->
<g id="edge7" class="edge">
<title>dir_cd5be0df38f7364404afe6cb57fa14aa&#45;&gt;dir_8fc3e8efef0bfca4a113d719cbd52afb</title>
<path fill="none" stroke="#63b8ff" d="M128.45,-126.47C191.11,-116.67 292.13,-100.15 329,-90 361.55,-81.04 367.33,-71.51 400,-63 479.05,-42.41 504.53,-52.69 583.29,-36.34"/>
<polygon fill="#63b8ff" stroke="#63b8ff" points="583.72,-39.83 592.76,-34.3 582.24,-32.99 583.72,-39.83"/>
<g id="a_edge7&#45;headlabel"><a xlink:href="dir_000116_000461.html" target="_top" xlink:title="29">
<text text-anchor="middle" x="582.29" y="-40.55" font-family="Helvetica,sans-Serif" font-size="10.00" fill="#63b8ff">29</text>
</a>
</g>
</g>
<!-- dir_106e6bcb551c029d6e99d5170c01efa4 -->
<g id="node5" class="node">
<title>dir_106e6bcb551c029d6e99d5170c01efa4</title>
<g id="a_node5"><a xlink:href="dir_106e6bcb551c029d6e99d5170c01efa4.html" target="_top" xlink:title="custom_processes">
<polygon fill="#a2b4d6" stroke="#404040" points="399.5,-145 292.5,-145 292.5,-126 399.5,-126 399.5,-145"/>
<text text-anchor="middle" x="346" y="-133" font-family="Helvetica,sans-Serif" font-size="10.00">custom_processes</text>
</a>
</g>
</g>
<!-- dir_106e6bcb551c029d6e99d5170c01efa4&#45;&gt;dir_a307a906bb91bd6fad9433562037c6f8 -->
<g id="edge10" class="edge">
<title>dir_106e6bcb551c029d6e99d5170c01efa4&#45;&gt;dir_a307a906bb91bd6fad9433562037c6f8</title>
<path fill="none" stroke="#63b8ff" d="M333.62,-125.51C322.85,-117.7 307.03,-106.21 294.25,-96.93"/>
<polygon fill="#63b8ff" stroke="#63b8ff" points="296.57,-94.29 286.43,-91.25 292.46,-99.95 296.57,-94.29"/>
<g id="a_edge10&#45;headlabel"><a xlink:href="dir_000185_000323.html" target="_top" xlink:title="5">
<text text-anchor="middle" x="299.93" y="-90.72" font-family="Helvetica,sans-Serif" font-size="10.00" fill="#63b8ff">5</text>
</a>
</g>
</g>
<!-- dir_106e6bcb551c029d6e99d5170c01efa4&#45;&gt;dir_8fc3e8efef0bfca4a113d719cbd52afb -->
<g id="edge9" class="edge">
<title>dir_106e6bcb551c029d6e99d5170c01efa4&#45;&gt;dir_8fc3e8efef0bfca4a113d719cbd52afb</title>
<path fill="none" stroke="#63b8ff" d="M368.26,-125.66C416.08,-106.68 528.81,-61.91 584.99,-39.61"/>
<polygon fill="#63b8ff" stroke="#63b8ff" points="586.02,-42.96 594.03,-36.02 583.44,-36.46 586.02,-42.96"/>
<g id="a_edge9&#45;headlabel"><a xlink:href="dir_000185_000461.html" target="_top" xlink:title="45">
<text text-anchor="middle" x="585.14" y="-43.87" font-family="Helvetica,sans-Serif" font-size="10.00" fill="#63b8ff">45</text>
</a>
</g>
</g>
<!-- dir_b4b0c20dad402b405a8e2125717bd4b6 -->
<g id="node6" class="node">
<title>dir_b4b0c20dad402b405a8e2125717bd4b6</title>
<g id="a_node6"><a xlink:href="dir_b4b0c20dad402b405a8e2125717bd4b6.html" target="_top" xlink:title="custom_python">
<polygon fill="#a2b4d6" stroke="#404040" points="534,-205.5 442,-205.5 442,-186.5 534,-186.5 534,-205.5"/>
<text text-anchor="middle" x="488" y="-193.5" font-family="Helvetica,sans-Serif" font-size="10.00">custom_python</text>
</a>
</g>
</g>
<!-- dir_b4b0c20dad402b405a8e2125717bd4b6&#45;&gt;dir_106e6bcb551c029d6e99d5170c01efa4 -->
<g id="edge12" class="edge">
<title>dir_b4b0c20dad402b405a8e2125717bd4b6&#45;&gt;dir_106e6bcb551c029d6e99d5170c01efa4</title>
<path fill="none" stroke="#63b8ff" d="M466.43,-186.12C442.98,-176.45 405.23,-160.9 378.24,-149.78"/>
<polygon fill="#63b8ff" stroke="#63b8ff" points="379.75,-146.62 369.17,-146.05 377.08,-153.09 379.75,-146.62"/>
<g id="a_edge12&#45;headlabel"><a xlink:href="dir_000218_000185.html" target="_top" xlink:title="9">
<text text-anchor="middle" x="382.75" y="-142.29" font-family="Helvetica,sans-Serif" font-size="10.00" fill="#63b8ff">9</text>
</a>
</g>
</g>
<!-- dir_0f6e24d17f1df703279f29147bba7095 -->
<g id="node7" class="node">
<title>dir_0f6e24d17f1df703279f29147bba7095</title>
<g id="a_node7"><a xlink:href="dir_0f6e24d17f1df703279f29147bba7095.html" target="_top" xlink:title="custom_response_functions">
<polygon fill="#a2b4d6" stroke="#404040" points="570,-145 418,-145 418,-126 570,-126 570,-145"/>
<text text-anchor="middle" x="494" y="-133" font-family="Helvetica,sans-Serif" font-size="10.00">custom_response_functions</text>
</a>
</g>
</g>
<!-- dir_b4b0c20dad402b405a8e2125717bd4b6&#45;&gt;dir_0f6e24d17f1df703279f29147bba7095 -->
<g id="edge11" class="edge">
<title>dir_b4b0c20dad402b405a8e2125717bd4b6&#45;&gt;dir_0f6e24d17f1df703279f29147bba7095</title>
<path fill="none" stroke="#63b8ff" d="M488.89,-186.37C489.69,-178.5 490.91,-166.6 491.96,-156.39"/>
<polygon fill="#63b8ff" stroke="#63b8ff" points="495.42,-156.98 492.96,-146.67 488.45,-156.26 495.42,-156.98"/>
<g id="a_edge11&#45;headlabel"><a xlink:href="dir_000218_000273.html" target="_top" xlink:title="2">
<text text-anchor="middle" x="498.03" y="-156.84" font-family="Helvetica,sans-Serif" font-size="10.00" fill="#63b8ff">2</text>
</a>
</g>
</g>
<!-- dir_b4b0c20dad402b405a8e2125717bd4b6&#45;&gt;dir_a307a906bb91bd6fad9433562037c6f8 -->
<g id="edge14" class="edge">
<title>dir_b4b0c20dad402b405a8e2125717bd4b6&#45;&gt;dir_a307a906bb91bd6fad9433562037c6f8</title>
<path fill="none" stroke="#63b8ff" d="M449.15,-186.1C390.51,-172.57 285.85,-148.1 283,-145 272.35,-133.43 270.4,-115.37 270.79,-101.46"/>
<polygon fill="#63b8ff" stroke="#63b8ff" points="274.27,-101.9 271.52,-91.67 267.29,-101.38 274.27,-101.9"/>
<g id="a_edge14&#45;headlabel"><a xlink:href="dir_000218_000323.html" target="_top" xlink:title="1">
<text text-anchor="middle" x="276.94" y="-101.68" font-family="Helvetica,sans-Serif" font-size="10.00" fill="#63b8ff">1</text>
</a>
</g>
</g>
<!-- dir_b4b0c20dad402b405a8e2125717bd4b6&#45;&gt;dir_8fc3e8efef0bfca4a113d719cbd52afb -->
<g id="edge13" class="edge">
<title>dir_b4b0c20dad402b405a8e2125717bd4b6&#45;&gt;dir_8fc3e8efef0bfca4a113d719cbd52afb</title>
<path fill="none" stroke="#63b8ff" d="M534.27,-188.81C561.56,-182.56 594.15,-170.05 612,-145 632.76,-115.87 628.11,-71.73 622.98,-46.35"/>
<polygon fill="#63b8ff" stroke="#63b8ff" points="626.42,-45.71 620.79,-36.73 619.6,-47.26 626.42,-45.71"/>
<g id="a_edge13&#45;headlabel"><a xlink:href="dir_000218_000461.html" target="_top" xlink:title="5">
<text text-anchor="middle" x="629.65" y="-44.6" font-family="Helvetica,sans-Serif" font-size="10.00" fill="#63b8ff">5</text>
</a>
</g>
</g>
<!-- dir_0f6e24d17f1df703279f29147bba7095&#45;&gt;dir_8fc3e8efef0bfca4a113d719cbd52afb -->
<g id="edge15" class="edge">
<title>dir_0f6e24d17f1df703279f29147bba7095&#45;&gt;dir_8fc3e8efef0bfca4a113d719cbd52afb</title>
<path fill="none" stroke="#63b8ff" d="M504.15,-125.66C524.95,-107.55 572.69,-65.96 599.27,-42.81"/>
<polygon fill="#63b8ff" stroke="#63b8ff" points="601.33,-45.66 606.57,-36.45 596.73,-40.38 601.33,-45.66"/>
<g id="a_edge15&#45;headlabel"><a xlink:href="dir_000273_000461.html" target="_top" xlink:title="6">
<text text-anchor="middle" x="601.62" y="-46.67" font-family="Helvetica,sans-Serif" font-size="10.00" fill="#63b8ff">6</text>
</a>
</g>
</g>
<!-- dir_a307a906bb91bd6fad9433562037c6f8&#45;&gt;dir_3ad5b53c1d85a729c373dd4b6e02d9a8 -->
<g id="edge16" class="edge">
<title>dir_a307a906bb91bd6fad9433562037c6f8&#45;&gt;dir_3ad5b53c1d85a729c373dd4b6e02d9a8</title>
<path fill="none" stroke="#63b8ff" d="M260.62,-70.51C249.85,-62.7 234.03,-51.21 221.25,-41.93"/>
<polygon fill="#63b8ff" stroke="#63b8ff" points="223.57,-39.29 213.43,-36.25 219.46,-44.95 223.57,-39.29"/>
<g id="a_edge16&#45;headlabel"><a xlink:href="dir_000323_000419.html" target="_top" xlink:title="1">
<text text-anchor="middle" x="226.93" y="-35.72" font-family="Helvetica,sans-Serif" font-size="10.00" fill="#63b8ff">1</text>
</a>
</g>
</g>
<!-- dir_a307a906bb91bd6fad9433562037c6f8&#45;&gt;dir_8fc3e8efef0bfca4a113d719cbd52afb -->
<g id="edge17" class="edge">
<title>dir_a307a906bb91bd6fad9433562037c6f8&#45;&gt;dir_8fc3e8efef0bfca4a113d719cbd52afb</title>
<path fill="none" stroke="#63b8ff" d="M320.78,-71.17C337.02,-68.43 355.28,-65.47 372,-63 464.96,-49.29 492.41,-55 583.16,-36.34"/>
<polygon fill="#63b8ff" stroke="#63b8ff" points="583.7,-39.8 592.76,-34.32 582.25,-32.95 583.7,-39.8"/>
<g id="a_edge17&#45;headlabel"><a xlink:href="dir_000323_000461.html" target="_top" xlink:title="5">
<text text-anchor="middle" x="582.24" y="-40.51" font-family="Helvetica,sans-Serif" font-size="10.00" fill="#63b8ff">5</text>
</a>
</g>
</g>
<!-- dir_17c852c5ad9295a5519b120257cc5a11 -->
<g id="node9" class="node">
<title>dir_17c852c5ad9295a5519b120257cc5a11</title>
<g id="a_node9"><a xlink:href="dir_17c852c5ad9295a5519b120257cc5a11.html" target="_top" xlink:title="python_scripts">
<polygon fill="#a2b4d6" stroke="#404040" points="250,-205.5 162,-205.5 162,-186.5 250,-186.5 250,-205.5"/>
<text text-anchor="middle" x="206" y="-193.5" font-family="Helvetica,sans-Serif" font-size="10.00">python_scripts</text>
</a>
</g>
</g>
<!-- dir_47b675849aca196570755c3eb614e7b0 -->
<g id="node10" class="node">
<title>dir_47b675849aca196570755c3eb614e7b0</title>
<g id="a_node10"><a xlink:href="dir_47b675849aca196570755c3eb614e7b0.html" target="_top" xlink:title="symbolic_generation">
<polygon fill="#a2b4d6" stroke="#404040" points="143.5,-205.5 24.5,-205.5 24.5,-186.5 143.5,-186.5 143.5,-205.5"/>
<text text-anchor="middle" x="84" y="-193.5" font-family="Helvetica,sans-Serif" font-size="10.00">symbolic_generation</text>
</a>
</g>
</g>
</g>
</svg>
