<?xml version="1.0" encoding="UTF-8" standalone="no"?>
<!DOCTYPE svg PUBLIC "-//W3C//DTD SVG 1.1//EN"
 "http://www.w3.org/Graphics/SVG/1.1/DTD/svg11.dtd">
<!-- Generated by graphviz version 2.43.0 (0)
 -->
<!-- Title: /home/runner/work/Documentation/Documentation/master/applications/StructuralMechanicsApplication/custom_response_functions Pages: 1 -->
<!--zoomable 375 -->
<svg id="main" version="1.1" xmlns="http://www.w3.org/2000/svg" xmlns:xlink="http://www.w3.org/1999/xlink" xml:space="preserve" onload="init(evt)">
<style type="text/css"><![CDATA[
.edge:hover path { stroke: red; }
.edge:hover polygon { stroke: red; fill: red; }
]]></style>
<script type="text/javascript"><![CDATA[
var edges = document.getElementsByTagName('g');
if (edges && edges.length) {
  for (var i=0;i<edges.length;i++) {
    if (edges[i].id.substr(0,4)=='edge') {
      edges[i].setAttribute('class','edge');
    }
  }
}
]]></script>
        <defs>
                <circle id="rim" cx="0" cy="0" r="7"/>
                <circle id="rim2" cx="0" cy="0" r="3.5"/>
                <g id="zoomPlus">
                        <use xlink:href="#rim" fill="#404040">
                                <set attributeName="fill" to="#808080" begin="zoomplus.mouseover" end="zoomplus.mouseout"/>
                        </use>
                        <path d="M-4,0h8M0,-4v8" fill="none" stroke="white" stroke-width="1.5" pointer-events="none"/>
                </g>
                <g id="zoomMin">
                        <use xlink:href="#rim" fill="#404040">
                                <set attributeName="fill" to="#808080" begin="zoomminus.mouseover" end="zoomminus.mouseout"/>
                        </use>
                        <path d="M-4,0h8" fill="none" stroke="white" stroke-width="1.5" pointer-events="none"/>
                </g>
                <g id="dirArrow">
                        <path fill="none" stroke="white" stroke-width="1.5" d="M0,-3.0v7 M-2.5,-0.5L0,-3.0L2.5,-0.5"/>
                </g>
               <g id="resetDef">
                       <use xlink:href="#rim2" fill="#404040">
                               <set attributeName="fill" to="#808080" begin="reset.mouseover" end="reset.mouseout"/>
                       </use>
               </g>
        </defs>

<script type="text/javascript">
var viewWidth = 709;
var viewHeight = 375;
var sectionId = 'dynsection-0';
</script>
<script xlink:href="svgpan.js"/>
<svg id="graph" class="graph">
<g id="viewport">
<title>/home/runner/work/Documentation/Documentation/master/applications/StructuralMechanicsApplication/custom_response_functions</title>
<g id="clust1" class="cluster">
<title>clusterdir_9d9fda61e96a8563beaba0a7d3e070ea</title>
<g id="a_clust1"><a xlink:href="dir_9d9fda61e96a8563beaba0a7d3e070ea.html" target="_top" xlink:title="StructuralMechanicsApplication">
<polygon fill="#ddddee" stroke="black" points="8,-64 8,-359 554,-359 554,-64 8,-64"/>
<text text-anchor="middle" x="281" y="-347" font-family="Helvetica,sans-Serif" font-size="10.00">StructuralMechanicsApplication</text>
</a>
</g>
</g>
<g id="clust2" class="cluster">
<title>clusterdir_dc3a1070f4763a1d600b921544d4df1f</title>
<g id="a_clust2"><a xlink:href="dir_dc3a1070f4763a1d600b921544d4df1f.html" target="_top">
<polygon fill="#eeeeff" stroke="black" points="16,-136 16,-332 430,-332 430,-136 16,-136"/>
</a>
</g>
</g>
<!-- dir_6ab0ee7c75ee313cc7e8fa9c0ae9d98d -->
<g id="node1" class="node">
<title>dir_6ab0ee7c75ee313cc7e8fa9c0ae9d98d</title>
<g id="a_node1"><a xlink:href="dir_6ab0ee7c75ee313cc7e8fa9c0ae9d98d.html" target="_top" xlink:title="custom_elements">
<polygon fill="none" stroke="black" points="427,-108 323,-108 323,-72 427,-72 427,-108"/>
<text text-anchor="middle" x="375" y="-87.5" font-family="Helvetica,sans-Serif" font-size="10.00">custom_elements</text>
</a>
</g>
</g>
<!-- dir_8fc3e8efef0bfca4a113d719cbd52afb -->
<g id="node9" class="node">
<title>dir_8fc3e8efef0bfca4a113d719cbd52afb</title>
<g id="a_node9"><a xlink:href="dir_8fc3e8efef0bfca4a113d719cbd52afb.html" target="_top" xlink:title="kratos">
<polygon fill="none" stroke="red" points="600,-36 546,-36 546,0 600,0 600,-36"/>
<text text-anchor="middle" x="573" y="-15.5" font-family="Helvetica,sans-Serif" font-size="10.00">kratos</text>
</a>
</g>
</g>
<!-- dir_6ab0ee7c75ee313cc7e8fa9c0ae9d98d&#45;&gt;dir_8fc3e8efef0bfca4a113d719cbd52afb -->
<g id="edge9" class="edge">
<title>dir_6ab0ee7c75ee313cc7e8fa9c0ae9d98d&#45;&gt;dir_8fc3e8efef0bfca4a113d719cbd52afb</title>
<path fill="none" stroke="black" d="M423.18,-71.97C457.99,-59.66 504.3,-43.29 536.17,-32.02"/>
<polygon fill="black" stroke="black" points="537.72,-35.19 545.98,-28.55 535.38,-28.59 537.72,-35.19"/>
<g id="a_edge9&#45;headlabel"><a xlink:href="dir_000321_000677.html" target="_top" xlink:title="89">
<text text-anchor="middle" x="535.27" y="-36.56" font-family="Helvetica,sans-Serif" font-size="10.00">89</text>
</a>
</g>
</g>
<!-- dir_c8f570006ee9a9fae66bd151cd58eabc -->
<g id="node2" class="node">
<title>dir_c8f570006ee9a9fae66bd151cd58eabc</title>
<g id="a_node2"><a xlink:href="dir_c8f570006ee9a9fae66bd151cd58eabc.html" target="_top" xlink:title="custom_conditions">
<polygon fill="none" stroke="black" points="546,-252 438,-252 438,-216 546,-216 546,-252"/>
<text text-anchor="middle" x="492" y="-231.5" font-family="Helvetica,sans-Serif" font-size="10.00">custom_conditions</text>
</a>
</g>
</g>
<!-- dir_c8f570006ee9a9fae66bd151cd58eabc&#45;&gt;dir_8fc3e8efef0bfca4a113d719cbd52afb -->
<g id="edge5" class="edge">
<title>dir_c8f570006ee9a9fae66bd151cd58eabc&#45;&gt;dir_8fc3e8efef0bfca4a113d719cbd52afb</title>
<path fill="none" stroke="black" d="M544.68,-215.84C561.18,-207.7 577.53,-196.12 587,-180 611.46,-138.34 596.68,-79.89 584.39,-46.08"/>
<polygon fill="black" stroke="black" points="587.53,-44.51 580.69,-36.42 581,-47.01 587.53,-44.51"/>
<g id="a_edge5&#45;headlabel"><a xlink:href="dir_000579_000677.html" target="_top" xlink:title="29">
<text text-anchor="middle" x="591.47" y="-44.35" font-family="Helvetica,sans-Serif" font-size="10.00">29</text>
</a>
</g>
</g>
<!-- dir_2f9ef5081e10999ddaf37a05ebf778bb -->
<g id="node3" class="node">
<title>dir_2f9ef5081e10999ddaf37a05ebf778bb</title>
<g id="a_node3"><a xlink:href="dir_2f9ef5081e10999ddaf37a05ebf778bb.html" target="_top" xlink:title="custom_processes">
<polygon fill="none" stroke="black" points="544.5,-180 437.5,-180 437.5,-144 544.5,-144 544.5,-180"/>
<text text-anchor="middle" x="491" y="-159.5" font-family="Helvetica,sans-Serif" font-size="10.00">custom_processes</text>
</a>
</g>
</g>
<!-- dir_2f9ef5081e10999ddaf37a05ebf778bb&#45;&gt;dir_8fc3e8efef0bfca4a113d719cbd52afb -->
<g id="edge13" class="edge">
<title>dir_2f9ef5081e10999ddaf37a05ebf778bb&#45;&gt;dir_8fc3e8efef0bfca4a113d719cbd52afb</title>
<path fill="none" stroke="black" d="M500.89,-143.87C515.11,-119.24 541.45,-73.64 558.05,-44.88"/>
<polygon fill="black" stroke="black" points="561.1,-46.6 563.07,-36.19 555.04,-43.1 561.1,-46.6"/>
<g id="a_edge13&#45;headlabel"><a xlink:href="dir_000598_000677.html" target="_top" xlink:title="71">
<text text-anchor="middle" x="561.77" y="-48.63" font-family="Helvetica,sans-Serif" font-size="10.00">71</text>
</a>
</g>
</g>
<!-- dir_dc3a1070f4763a1d600b921544d4df1f -->
<g id="node4" class="node">
<title>dir_dc3a1070f4763a1d600b921544d4df1f</title>
<text text-anchor="middle" x="346" y="-303.5" font-family="Helvetica,sans-Serif" font-size="10.00">custom_response_functions</text>
</g>
<!-- dir_d588cb786bec388064d4f8656026adf1 -->
<g id="node5" class="node">
<title>dir_d588cb786bec388064d4f8656026adf1</title>
<g id="a_node5"><a xlink:href="dir_d588cb786bec388064d4f8656026adf1.html" target="_top" xlink:title="adjoint_conditions">
<polygon fill="white" stroke="black" points="130,-324 24,-324 24,-288 130,-288 130,-324"/>
<text text-anchor="middle" x="77" y="-303.5" font-family="Helvetica,sans-Serif" font-size="10.00">adjoint_conditions</text>
</a>
</g>
</g>
<!-- dir_d588cb786bec388064d4f8656026adf1&#45;&gt;dir_c8f570006ee9a9fae66bd151cd58eabc -->
<g id="edge7" class="edge">
<title>dir_d588cb786bec388064d4f8656026adf1&#45;&gt;dir_c8f570006ee9a9fae66bd151cd58eabc</title>
<path fill="none" stroke="black" d="M130.32,-289.85C133.24,-289.18 136.15,-288.56 139,-288 265.3,-263.12 302.75,-277.87 427.78,-253.21"/>
<polygon fill="black" stroke="black" points="428.62,-256.61 437.73,-251.2 427.24,-249.75 428.62,-256.61"/>
<g id="a_edge7&#45;headlabel"><a xlink:href="dir_000599_000579.html" target="_top" xlink:title="6">
<text text-anchor="middle" x="425.66" y="-257.6" font-family="Helvetica,sans-Serif" font-size="10.00">6</text>
</a>
</g>
</g>
<!-- dir_cf3125d457f973f8db0380aa81037239 -->
<g id="node8" class="node">
<title>dir_cf3125d457f973f8db0380aa81037239</title>
<g id="a_node8"><a xlink:href="dir_cf3125d457f973f8db0380aa81037239.html" target="_top" xlink:title="response_utilities">
<polygon fill="white" stroke="black" points="419.5,-252 316.5,-252 316.5,-216 419.5,-216 419.5,-252"/>
<text text-anchor="middle" x="368" y="-231.5" font-family="Helvetica,sans-Serif" font-size="10.00">response_utilities</text>
</a>
</g>
</g>
<!-- dir_d588cb786bec388064d4f8656026adf1&#45;&gt;dir_cf3125d457f973f8db0380aa81037239 -->
<g id="edge8" class="edge">
<title>dir_d588cb786bec388064d4f8656026adf1&#45;&gt;dir_cf3125d457f973f8db0380aa81037239</title>
<path fill="none" stroke="black" d="M130.06,-290.3C133.08,-289.51 136.08,-288.74 139,-288 195.58,-273.7 260.41,-258.84 306.61,-248.5"/>
<polygon fill="black" stroke="black" points="307.47,-251.9 316.47,-246.3 305.95,-245.07 307.47,-251.9"/>
<g id="a_edge8&#45;headlabel"><a xlink:href="dir_000599_000602.html" target="_top" xlink:title="1">
<text text-anchor="middle" x="304.58" y="-252.95" font-family="Helvetica,sans-Serif" font-size="10.00">1</text>
</a>
</g>
</g>
<!-- dir_d588cb786bec388064d4f8656026adf1&#45;&gt;dir_8fc3e8efef0bfca4a113d719cbd52afb -->
<g id="edge6" class="edge">
<title>dir_d588cb786bec388064d4f8656026adf1&#45;&gt;dir_8fc3e8efef0bfca4a113d719cbd52afb</title>
<path fill="none" stroke="black" d="M130.29,-289.73C133.23,-289.09 136.14,-288.51 139,-288 231,-271.58 477.34,-299.2 558,-252 632.62,-208.33 636.06,-145.78 608,-64 605.57,-56.92 601.52,-50.1 597.02,-43.99"/>
<polygon fill="black" stroke="black" points="599.72,-41.76 590.72,-36.17 594.27,-46.15 599.72,-41.76"/>
<g id="a_edge6&#45;headlabel"><a xlink:href="dir_000599_000677.html" target="_top" xlink:title="4">
<text text-anchor="middle" x="604.18" y="-40.28" font-family="Helvetica,sans-Serif" font-size="10.00">4</text>
</a>
</g>
</g>
<!-- dir_402912454bb79e7c7b961bf666e1020f -->
<g id="node6" class="node">
<title>dir_402912454bb79e7c7b961bf666e1020f</title>
<g id="a_node6"><a xlink:href="dir_402912454bb79e7c7b961bf666e1020f.html" target="_top" xlink:title="adjoint_elements">
<polygon fill="white" stroke="black" points="418.5,-180 317.5,-180 317.5,-144 418.5,-144 418.5,-180"/>
<text text-anchor="middle" x="368" y="-159.5" font-family="Helvetica,sans-Serif" font-size="10.00">adjoint_elements</text>
</a>
</g>
</g>
<!-- dir_402912454bb79e7c7b961bf666e1020f&#45;&gt;dir_6ab0ee7c75ee313cc7e8fa9c0ae9d98d -->
<g id="edge1" class="edge">
<title>dir_402912454bb79e7c7b961bf666e1020f&#45;&gt;dir_6ab0ee7c75ee313cc7e8fa9c0ae9d98d</title>
<path fill="none" stroke="black" d="M369.73,-143.7C370.5,-135.98 371.43,-126.71 372.29,-118.11"/>
<polygon fill="black" stroke="black" points="375.78,-118.4 373.29,-108.1 368.81,-117.71 375.78,-118.4"/>
<g id="a_edge1&#45;headlabel"><a xlink:href="dir_000600_000321.html" target="_top" xlink:title="15">
<text text-anchor="middle" x="378.24" y="-119.76" font-family="Helvetica,sans-Serif" font-size="10.00">15</text>
</a>
</g>
</g>
<!-- dir_402912454bb79e7c7b961bf666e1020f&#45;&gt;dir_cf3125d457f973f8db0380aa81037239 -->
<g id="edge3" class="edge">
<title>dir_402912454bb79e7c7b961bf666e1020f&#45;&gt;dir_cf3125d457f973f8db0380aa81037239</title>
<path fill="none" stroke="black" d="M373.9,-180.1C374.7,-187.79 374.94,-197.05 374.6,-205.67"/>
<polygon fill="black" stroke="black" points="371.11,-205.48 373.92,-215.7 378.09,-205.96 371.11,-205.48"/>
<g id="a_edge3&#45;headlabel"><a xlink:href="dir_000600_000602.html" target="_top" xlink:title="7">
<text text-anchor="middle" x="368.52" y="-199.2" font-family="Helvetica,sans-Serif" font-size="10.00">7</text>
</a>
</g>
</g>
<!-- dir_402912454bb79e7c7b961bf666e1020f&#45;&gt;dir_8fc3e8efef0bfca4a113d719cbd52afb -->
<g id="edge2" class="edge">
<title>dir_402912454bb79e7c7b961bf666e1020f&#45;&gt;dir_8fc3e8efef0bfca4a113d719cbd52afb</title>
<path fill="none" stroke="black" d="M403.41,-143.99C426.9,-132.27 455.16,-117.21 465,-108 481.93,-92.16 476.17,-79.94 493,-64 505.62,-52.04 522.02,-42.11 536.67,-34.64"/>
<polygon fill="black" stroke="black" points="538.55,-37.62 546,-30.09 535.48,-31.33 538.55,-37.62"/>
<g id="a_edge2&#45;headlabel"><a xlink:href="dir_000600_000677.html" target="_top" xlink:title="14">
<text text-anchor="middle" x="536.56" y="-39.25" font-family="Helvetica,sans-Serif" font-size="10.00">14</text>
</a>
</g>
</g>
<!-- dir_8256fe5ab043bc0c63a62512538f72eb -->
<g id="node7" class="node">
<title>dir_8256fe5ab043bc0c63a62512538f72eb</title>
<g id="a_node7"><a xlink:href="dir_8256fe5ab043bc0c63a62512538f72eb.html" target="_top" xlink:title="adjoint_processes">
<polygon fill="white" stroke="black" points="252,-324 148,-324 148,-288 252,-288 252,-324"/>
<text text-anchor="middle" x="200" y="-303.5" font-family="Helvetica,sans-Serif" font-size="10.00">adjoint_processes</text>
</a>
</g>
</g>
<!-- dir_8256fe5ab043bc0c63a62512538f72eb&#45;&gt;dir_8fc3e8efef0bfca4a113d719cbd52afb -->
<g id="edge4" class="edge">
<title>dir_8256fe5ab043bc0c63a62512538f72eb&#45;&gt;dir_8fc3e8efef0bfca4a113d719cbd52afb</title>
<path fill="none" stroke="black" d="M252.1,-289.81C255.1,-289.14 258.08,-288.53 261,-288 305.12,-279.95 632.74,-285.09 663,-252 719.39,-190.34 706.93,-135.08 663,-64 651.43,-45.27 629.43,-34.08 610.09,-27.54"/>
<polygon fill="black" stroke="black" points="610.87,-24.12 600.28,-24.53 608.81,-30.81 610.87,-24.12"/>
<g id="a_edge4&#45;headlabel"><a xlink:href="dir_000601_000677.html" target="_top" xlink:title="4">
<text text-anchor="middle" x="615.14" y="-19.96" font-family="Helvetica,sans-Serif" font-size="10.00">4</text>
</a>
</g>
</g>
<!-- dir_cf3125d457f973f8db0380aa81037239&#45;&gt;dir_2f9ef5081e10999ddaf37a05ebf778bb -->
<g id="edge10" class="edge">
<title>dir_cf3125d457f973f8db0380aa81037239&#45;&gt;dir_2f9ef5081e10999ddaf37a05ebf778bb</title>
<path fill="none" stroke="black" d="M398.09,-215.88C414.32,-206.64 434.54,-195.13 451.97,-185.21"/>
<polygon fill="black" stroke="black" points="453.84,-188.18 460.8,-180.19 450.37,-182.09 453.84,-188.18"/>
<g id="a_edge10&#45;headlabel"><a xlink:href="dir_000602_000598.html" target="_top" xlink:title="1">
<text text-anchor="middle" x="452.12" y="-189.92" font-family="Helvetica,sans-Serif" font-size="10.00">1</text>
</a>
</g>
</g>
<!-- dir_cf3125d457f973f8db0380aa81037239&#45;&gt;dir_402912454bb79e7c7b961bf666e1020f -->
<g id="edge11" class="edge">
<title>dir_cf3125d457f973f8db0380aa81037239&#45;&gt;dir_402912454bb79e7c7b961bf666e1020f</title>
<path fill="none" stroke="black" d="M362.08,-215.7C361.29,-207.98 361.06,-198.71 361.4,-190.11"/>
<polygon fill="black" stroke="black" points="364.9,-190.32 362.1,-180.1 357.92,-189.84 364.9,-190.32"/>
<g id="a_edge11&#45;headlabel"><a xlink:href="dir_000602_000600.html" target="_top" xlink:title="1">
<text text-anchor="middle" x="367.48" y="-191.61" font-family="Helvetica,sans-Serif" font-size="10.00">1</text>
</a>
</g>
</g>
<!-- dir_cf3125d457f973f8db0380aa81037239&#45;&gt;dir_8fc3e8efef0bfca4a113d719cbd52afb -->
<g id="edge12" class="edge">
<title>dir_cf3125d457f973f8db0380aa81037239&#45;&gt;dir_8fc3e8efef0bfca4a113d719cbd52afb</title>
<path fill="none" stroke="black" d="M419.55,-217.28C421.05,-216.85 422.53,-216.42 424,-216 483.29,-199.04 518.24,-227.14 558,-180 589.49,-142.66 585.1,-81.7 579.06,-46.48"/>
<polygon fill="black" stroke="black" points="582.46,-45.61 577.17,-36.43 575.58,-46.91 582.46,-45.61"/>
<g id="a_edge12&#45;headlabel"><a xlink:href="dir_000602_000677.html" target="_top" xlink:title="33">
<text text-anchor="middle" x="585.91" y="-46.12" font-family="Helvetica,sans-Serif" font-size="10.00">33</text>
</a>
</g>
</g>
</g>
</svg>
        <g id="navigator" transform="translate(0 0)" fill="#404254">
                <rect fill="#f2f5e9" fill-opacity="0.5" stroke="#606060" stroke-width=".5" x="0" y="0" width="60" height="60"/>
                <use id="zoomplus" xlink:href="#zoomPlus" x="17" y="9" onmousedown="handleZoom(evt,'in')"/>
                <use id="zoomminus" xlink:href="#zoomMin" x="42" y="9" onmousedown="handleZoom(evt,'out')"/>
                <use id="reset" xlink:href="#resetDef" x="30" y="36" onmousedown="handleReset()"/>
                <g id="arrowUp" xlink:href="#dirArrow" transform="translate(30 24)" onmousedown="handlePan(0,-1)">
                  <use xlink:href="#rim" fill="#404040">
                        <set attributeName="fill" to="#808080" begin="arrowUp.mouseover" end="arrowUp.mouseout"/>
                  </use>
                  <path fill="none" stroke="white" stroke-width="1.5" d="M0,-3.0v7 M-2.5,-0.5L0,-3.0L2.5,-0.5"/>
                </g>
                <g id="arrowRight" xlink:href="#dirArrow" transform="rotate(90) translate(36 -43)" onmousedown="handlePan(1,0)">
                  <use xlink:href="#rim" fill="#404040">
                        <set attributeName="fill" to="#808080" begin="arrowRight.mouseover" end="arrowRight.mouseout"/>
                  </use>
                  <path fill="none" stroke="white" stroke-width="1.5" d="M0,-3.0v7 M-2.5,-0.5L0,-3.0L2.5,-0.5"/>
                </g>
                <g id="arrowDown" xlink:href="#dirArrow" transform="rotate(180) translate(-30 -48)" onmousedown="handlePan(0,1)">
                  <use xlink:href="#rim" fill="#404040">
                        <set attributeName="fill" to="#808080" begin="arrowDown.mouseover" end="arrowDown.mouseout"/>
                  </use>
                  <path fill="none" stroke="white" stroke-width="1.5" d="M0,-3.0v7 M-2.5,-0.5L0,-3.0L2.5,-0.5"/>
                </g>
                <g id="arrowLeft" xlink:href="#dirArrow" transform="rotate(270) translate(-36 17)" onmousedown="handlePan(-1,0)">
                  <use xlink:href="#rim" fill="#404040">
                        <set attributeName="fill" to="#808080" begin="arrowLeft.mouseover" end="arrowLeft.mouseout"/>
                  </use>
                  <path fill="none" stroke="white" stroke-width="1.5" d="M0,-3.0v7 M-2.5,-0.5L0,-3.0L2.5,-0.5"/>
                </g>
        </g>
        <svg viewBox="0 0 15 15" width="100%" height="30px" preserveAspectRatio="xMaxYMin meet">
         <g id="arrow_out" transform="scale(0.3 0.3)">
          <a xlink:href="dir_dc3a1070f4763a1d600b921544d4df1f_dep_org.svg" target="_base">
           <rect id="button" ry="5" rx="5" y="6" x="6" height="38" width="38"
                fill="#f2f5e9" fill-opacity="0.5" stroke="#606060" stroke-width="1.0"/>
           <path id="arrow"
             d="M 11.500037,31.436501 C 11.940474,20.09759 22.043105,11.32322 32.158766,21.979434 L 37.068811,17.246167 C 37.068811,17.246167 37.088388,32 37.088388,32 L 22.160133,31.978069 C 22.160133,31.978069 26.997745,27.140456 26.997745,27.140456 C 18.528582,18.264221 13.291696,25.230495 11.500037,31.436501 z"
             style="fill:#404040;"/>
          </a>
         </g>
        </svg>
</svg>
