<?xml version="1.0" encoding="UTF-8" standalone="no"?>
<!DOCTYPE svg PUBLIC "-//W3C//DTD SVG 1.1//EN"
 "http://www.w3.org/Graphics/SVG/1.1/DTD/svg11.dtd">
<!-- Generated by graphviz version 7.1.0 (0)
 -->
<!-- Title: /software/kratos/doxygen/applications/FluidDynamicsBiomedicalApplication Pages: 1 -->
<svg width="472pt" height="180pt"
 viewBox="0.00 0.00 472.00 180.00" xmlns="http://www.w3.org/2000/svg" xmlns:xlink="http://www.w3.org/1999/xlink">
<g id="graph0" class="graph" transform="scale(1 1) rotate(0) translate(4 176)">
<title>/software/kratos/doxygen/applications/FluidDynamicsBiomedicalApplication</title>
<g id="clust1" class="cluster">
<title>clusterdir_a6e4fee11f07c3b70486e88fe92cbbdc</title>
<g id="a_clust1"><a xlink:href="dir_a6e4fee11f07c3b70486e88fe92cbbdc.html" target="_top" xlink:title="applications">
<polygon fill="#edf0f7" stroke="#404040" stroke-dasharray="5,2" points="8,-39 8,-164 456,-164 456,-39 8,-39"/>
<text text-anchor="middle" x="232" y="-152" font-family="Helvetica,sans-Serif" font-size="10.00">applications</text>
</a>
</g>
</g>
<g id="clust2" class="cluster">
<title>clusterdir_e3101125d0af51c87dda6651fb3a05d9</title>
<g id="a_clust2"><a xlink:href="dir_e3101125d0af51c87dda6651fb3a05d9.html" target="_top">
<polygon fill="#edf0f7" stroke="#404040" stroke-width="2" points="16,-47 16,-137 448,-137 448,-47 16,-47"/>
</a>
</g>
</g>
<!-- dir_e3101125d0af51c87dda6651fb3a05d9 -->
<g id="node1" class="node">
<title>dir_e3101125d0af51c87dda6651fb3a05d9</title>
<text text-anchor="middle" x="340" y="-117" font-family="Helvetica,sans-Serif" font-size="10.00">FluidDynamicsBiomedicalApplication</text>
</g>
<!-- dir_8fc3e8efef0bfca4a113d719cbd52afb -->
<g id="node5" class="node">
<title>dir_8fc3e8efef0bfca4a113d719cbd52afb</title>
<g id="a_node5"><a xlink:href="dir_8fc3e8efef0bfca4a113d719cbd52afb.html" target="_top" xlink:title="kratos">
<polygon fill="#edf0f7" stroke="red" points="275.5,-19 228.5,-19 228.5,0 275.5,0 275.5,-19"/>
<text text-anchor="middle" x="252" y="-7" font-family="Helvetica,sans-Serif" font-size="10.00">kratos</text>
</a>
</g>
</g>
<!-- dir_e3101125d0af51c87dda6651fb3a05d9&#45;&gt;dir_8fc3e8efef0bfca4a113d719cbd52afb -->
<g id="edge1" class="edge">
<title>dir_e3101125d0af51c87dda6651fb3a05d9&#45;&gt;dir_8fc3e8efef0bfca4a113d719cbd52afb</title>
<path fill="none" stroke="#63b8ff" d="M333.09,-110.03C318.77,-92.45 285.57,-51.7 266.39,-28.15"/>
<polygon fill="#63b8ff" stroke="#63b8ff" points="269.1,-25.95 260.07,-20.41 263.68,-30.37 269.1,-25.95"/>
<g id="a_edge1&#45;headlabel"><a xlink:href="dir_000420_000461.html" target="_top" xlink:title="21">
<text text-anchor="middle" x="272.62" y="-23.27" font-family="Helvetica,sans-Serif" font-size="10.00" fill="#63b8ff">21</text>
</a>
</g>
</g>
<!-- dir_34e3ce3d217105bedb3be7965e7f1bf6 -->
<g id="node2" class="node">
<title>dir_34e3ce3d217105bedb3be7965e7f1bf6</title>
<g id="a_node2"><a xlink:href="dir_34e3ce3d217105bedb3be7965e7f1bf6.html" target="_top" xlink:title="custom_python">
<polygon fill="#a2b4d6" stroke="#404040" points="222,-129 130,-129 130,-110 222,-110 222,-129"/>
<text text-anchor="middle" x="176" y="-117" font-family="Helvetica,sans-Serif" font-size="10.00">custom_python</text>
</a>
</g>
</g>
<!-- dir_bbbdad29ef061652a84523cb57a6b617 -->
<g id="node3" class="node">
<title>dir_bbbdad29ef061652a84523cb57a6b617</title>
<g id="a_node3"><a xlink:href="dir_bbbdad29ef061652a84523cb57a6b617.html" target="_top" xlink:title="custom_utilities">
<polygon fill="#a2b4d6" stroke="#404040" points="223.5,-74 128.5,-74 128.5,-55 223.5,-55 223.5,-74"/>
<text text-anchor="middle" x="176" y="-62" font-family="Helvetica,sans-Serif" font-size="10.00">custom_utilities</text>
</a>
</g>
</g>
<!-- dir_34e3ce3d217105bedb3be7965e7f1bf6&#45;&gt;dir_bbbdad29ef061652a84523cb57a6b617 -->
<g id="edge3" class="edge">
<title>dir_34e3ce3d217105bedb3be7965e7f1bf6&#45;&gt;dir_bbbdad29ef061652a84523cb57a6b617</title>
<path fill="none" stroke="#63b8ff" d="M176,-109.75C176,-103.27 176,-94.16 176,-85.9"/>
<polygon fill="#63b8ff" stroke="#63b8ff" points="179.5,-85.96 176,-75.96 172.5,-85.96 179.5,-85.96"/>
<g id="a_edge3&#45;headlabel"><a xlink:href="dir_000236_000338.html" target="_top" xlink:title="2">
<text text-anchor="middle" x="182.34" y="-85.54" font-family="Helvetica,sans-Serif" font-size="10.00" fill="#63b8ff">2</text>
</a>
</g>
</g>
<!-- dir_34e3ce3d217105bedb3be7965e7f1bf6&#45;&gt;dir_8fc3e8efef0bfca4a113d719cbd52afb -->
<g id="edge2" class="edge">
<title>dir_34e3ce3d217105bedb3be7965e7f1bf6&#45;&gt;dir_8fc3e8efef0bfca4a113d719cbd52afb</title>
<path fill="none" stroke="#63b8ff" d="M192.28,-109.61C205.11,-101.82 222.52,-89.34 233,-74 241.85,-61.04 246.67,-43.86 249.23,-30.64"/>
<polygon fill="#63b8ff" stroke="#63b8ff" points="252.66,-31.37 250.82,-20.94 245.75,-30.24 252.66,-31.37"/>
<g id="a_edge2&#45;headlabel"><a xlink:href="dir_000236_000461.html" target="_top" xlink:title="1">
<text text-anchor="middle" x="255.13" y="-31.38" font-family="Helvetica,sans-Serif" font-size="10.00" fill="#63b8ff">1</text>
</a>
</g>
</g>
<!-- dir_bbbdad29ef061652a84523cb57a6b617&#45;&gt;dir_8fc3e8efef0bfca4a113d719cbd52afb -->
<g id="edge4" class="edge">
<title>dir_bbbdad29ef061652a84523cb57a6b617&#45;&gt;dir_8fc3e8efef0bfca4a113d719cbd52afb</title>
<path fill="none" stroke="#63b8ff" d="M188.89,-54.51C200.1,-46.7 216.57,-35.21 229.88,-25.93"/>
<polygon fill="#63b8ff" stroke="#63b8ff" points="231.86,-28.81 238.06,-20.22 227.85,-23.07 231.86,-28.81"/>
<g id="a_edge4&#45;headlabel"><a xlink:href="dir_000338_000461.html" target="_top" xlink:title="13">
<text text-anchor="middle" x="231.77" y="-29.83" font-family="Helvetica,sans-Serif" font-size="10.00" fill="#63b8ff">13</text>
</a>
</g>
</g>
<!-- dir_59742737bb15cf31288b61595b155ffb -->
<g id="node4" class="node">
<title>dir_59742737bb15cf31288b61595b155ffb</title>
<g id="a_node4"><a xlink:href="dir_59742737bb15cf31288b61595b155ffb.html" target="_top" xlink:title="python_scripts">
<polygon fill="#a2b4d6" stroke="#404040" points="112,-129 24,-129 24,-110 112,-110 112,-129"/>
<text text-anchor="middle" x="68" y="-117" font-family="Helvetica,sans-Serif" font-size="10.00">python_scripts</text>
</a>
</g>
</g>
</g>
</svg>
