<?xml version="1.0" encoding="UTF-8" standalone="no"?>
<!DOCTYPE svg PUBLIC "-//W3C//DTD SVG 1.1//EN"
 "http://www.w3.org/Graphics/SVG/1.1/DTD/svg11.dtd">
<!-- Generated by graphviz version 7.1.0 (0)
 -->
<!-- Title: /software/kratos/doxygen/applications/ContactMechanicsApplication/custom_conditions Pages: 1 -->
<!--zoomable 196 -->
<svg id="main" version="1.1" xmlns="http://www.w3.org/2000/svg" xmlns:xlink="http://www.w3.org/1999/xlink" xml:space="preserve" onload="init(evt)">
<style type="text/css"><![CDATA[
.edge:hover path { stroke: red; }
.edge:hover polygon { stroke: red; fill: red; }
]]></style>
<script type="text/javascript"><![CDATA[
var edges = document.getElementsByTagName('g');
if (edges && edges.length) {
  for (var i=0;i<edges.length;i++) {
    if (edges[i].id.substr(0,4)=='edge') {
      edges[i].setAttribute('class','edge');
    }
  }
}
]]></script>
        <defs>
                <circle id="rim" cx="0" cy="0" r="7"/>
                <circle id="rim2" cx="0" cy="0" r="3.5"/>
                <g id="zoomPlus">
                        <use xlink:href="#rim" fill="#404040">
                                <set attributeName="fill" to="#808080" begin="zoomplus.mouseover" end="zoomplus.mouseout"/>
                        </use>
                        <path d="M-4,0h8M0,-4v8" fill="none" stroke="white" stroke-width="1.5" pointer-events="none"/>
                </g>
                <g id="zoomMin">
                        <use xlink:href="#rim" fill="#404040">
                                <set attributeName="fill" to="#808080" begin="zoomminus.mouseover" end="zoomminus.mouseout"/>
                        </use>
                        <path d="M-4,0h8" fill="none" stroke="white" stroke-width="1.5" pointer-events="none"/>
                </g>
                <g id="dirArrow">
                        <path fill="none" stroke="white" stroke-width="1.5" d="M0,-3.0v7 M-2.5,-0.5L0,-3.0L2.5,-0.5"/>
                </g>
               <g id="resetDef">
                       <use xlink:href="#rim2" fill="#404040">
                               <set attributeName="fill" to="#808080" begin="reset.mouseover" end="reset.mouseout"/>
                       </use>
               </g>
        </defs>

<script type="text/javascript">
var viewWidth = 1099;
var viewHeight = 196;
var sectionId = 'dynsection-0';
</script>
<script xlink:href="svgpan.js"/>
<svg id="graph" class="graph">
<g id="viewport">
<title>/software/kratos/doxygen/applications/ContactMechanicsApplication/custom_conditions</title>
<g id="clust1" class="cluster">
<title>clusterdir_942a62ca4ea9d0515481b1f085c7090f</title>
<g id="a_clust1"><a xlink:href="dir_942a62ca4ea9d0515481b1f085c7090f.html" target="_top" xlink:title="ContactMechanicsApplication">
<polygon fill="#edf0f7" stroke="#7f7f7f" stroke-dasharray="5,2" points="8,-8 8,-180 858,-180 858,-8 8,-8"/>
<text text-anchor="middle" x="433" y="-168" font-family="Helvetica,sans-Serif" font-size="10.00">ContactMechanicsApplication</text>
</a>
</g>
</g>
<g id="clust2" class="cluster">
<title>clusterdir_8a5bc3e6468e79439b873d45eee21480</title>
<g id="a_clust2"><a xlink:href="dir_8a5bc3e6468e79439b873d45eee21480.html" target="_top">
<polygon fill="#edf0f7" stroke="#404040" stroke-width="2" points="140,-63 140,-153 850,-153 850,-63 140,-63"/>
</a>
</g>
</g>
<!-- dir_1c753413003997a66dfb73ee8ac9ce6c -->
<g id="node1" class="node">
<title>dir_1c753413003997a66dfb73ee8ac9ce6c</title>
<g id="a_node1"><a xlink:href="dir_1c753413003997a66dfb73ee8ac9ce6c.html" target="_top" xlink:title="custom_utilities">
<polygon fill="#a2b4d6" stroke="#404040" points="131.5,-90 36.5,-90 36.5,-71 131.5,-71 131.5,-90"/>
<text text-anchor="middle" x="84" y="-78" font-family="Helvetica,sans-Serif" font-size="10.00">custom_utilities</text>
</a>
</g>
</g>
<!-- dir_624ab0d21274954989dda244296afb68 -->
<g id="node2" class="node">
<title>dir_624ab0d21274954989dda244296afb68</title>
<g id="a_node2"><a xlink:href="dir_624ab0d21274954989dda244296afb68.html" target="_top" xlink:title="custom_friction">
<polygon fill="#a2b4d6" stroke="#404040" points="177,-35 85,-35 85,-16 177,-16 177,-35"/>
<text text-anchor="middle" x="131" y="-23" font-family="Helvetica,sans-Serif" font-size="10.00">custom_friction</text>
</a>
</g>
</g>
<!-- dir_8a5bc3e6468e79439b873d45eee21480 -->
<g id="node3" class="node">
<title>dir_8a5bc3e6468e79439b873d45eee21480</title>
<text text-anchor="middle" x="788" y="-133" font-family="Helvetica,sans-Serif" font-size="10.00">custom_conditions</text>
</g>
<!-- dir_1a7f22d6d0689862018e3d5d295af7c1 -->
<g id="node4" class="node">
<title>dir_1a7f22d6d0689862018e3d5d295af7c1</title>
<g id="a_node4"><a xlink:href="dir_1a7f22d6d0689862018e3d5d295af7c1.html" target="_top" xlink:title="beam_contact">
<polygon fill="#a2b4d6" stroke="#404040" points="716,-145 630,-145 630,-126 716,-126 716,-145"/>
<text text-anchor="middle" x="673" y="-133" font-family="Helvetica,sans-Serif" font-size="10.00">beam_contact</text>
</a>
</g>
</g>
<!-- dir_5380690f8fe4a5308725276daeb74309 -->
<g id="node10" class="node">
<title>dir_5380690f8fe4a5308725276daeb74309</title>
<g id="a_node10"><a xlink:href="dir_5380690f8fe4a5308725276daeb74309.html" target="_top" xlink:title="DelaunayMeshingApplication">
<polygon fill="#edf0f7" stroke="red" stroke-dasharray="5,2" points="1090.5,-35 931.5,-35 931.5,-16 1090.5,-16 1090.5,-35"/>
<text text-anchor="middle" x="1011" y="-23" font-family="Helvetica,sans-Serif" font-size="10.00">DelaunayMeshingApplication</text>
</a>
</g>
</g>
<!-- dir_1a7f22d6d0689862018e3d5d295af7c1&#45;&gt;dir_5380690f8fe4a5308725276daeb74309 -->
<g id="edge1" class="edge">
<title>dir_1a7f22d6d0689862018e3d5d295af7c1&#45;&gt;dir_5380690f8fe4a5308725276daeb74309</title>
<path fill="none" stroke="#63b8ff" d="M716.09,-127.08C769.61,-117.61 857.7,-101.12 889,-90 924.87,-77.25 963.37,-55.76 987.32,-41.35"/>
<polygon fill="#63b8ff" stroke="#63b8ff" points="988.94,-44.46 995.65,-36.26 985.29,-38.49 988.94,-44.46"/>
<g id="a_edge1&#45;headlabel"><a xlink:href="dir_000018_000385.html" target="_top" xlink:title="1">
<text text-anchor="middle" x="988.64" y="-45.47" font-family="Helvetica,sans-Serif" font-size="10.00" fill="#63b8ff">1</text>
</a>
</g>
</g>
<!-- dir_8fc3e8efef0bfca4a113d719cbd52afb -->
<g id="node11" class="node">
<title>dir_8fc3e8efef0bfca4a113d719cbd52afb</title>
<g id="a_node11"><a xlink:href="dir_8fc3e8efef0bfca4a113d719cbd52afb.html" target="_top" xlink:title="kratos">
<polygon fill="#edf0f7" stroke="red" points="913.5,-35 866.5,-35 866.5,-16 913.5,-16 913.5,-35"/>
<text text-anchor="middle" x="890" y="-23" font-family="Helvetica,sans-Serif" font-size="10.00">kratos</text>
</a>
</g>
</g>
<!-- dir_1a7f22d6d0689862018e3d5d295af7c1&#45;&gt;dir_8fc3e8efef0bfca4a113d719cbd52afb -->
<g id="edge2" class="edge">
<title>dir_1a7f22d6d0689862018e3d5d295af7c1&#45;&gt;dir_8fc3e8efef0bfca4a113d719cbd52afb</title>
<path fill="none" stroke="#63b8ff" d="M690.76,-125.66C728.43,-106.91 816.61,-63.03 861.96,-40.45"/>
<polygon fill="#63b8ff" stroke="#63b8ff" points="863.25,-43.72 870.64,-36.13 860.13,-37.46 863.25,-43.72"/>
<g id="a_edge2&#45;headlabel"><a xlink:href="dir_000018_000461.html" target="_top" xlink:title="6">
<text text-anchor="middle" x="862.65" y="-44.69" font-family="Helvetica,sans-Serif" font-size="10.00" fill="#63b8ff">6</text>
</a>
</g>
</g>
<!-- dir_6d489fd6e033f0849918762eef7bdcd3 -->
<g id="node5" class="node">
<title>dir_6d489fd6e033f0849918762eef7bdcd3</title>
<g id="a_node5"><a xlink:href="dir_6d489fd6e033f0849918762eef7bdcd3.html" target="_top" xlink:title="deformable_contact">
<polygon fill="#a2b4d6" stroke="#404040" points="498,-145 384,-145 384,-126 498,-126 498,-145"/>
<text text-anchor="middle" x="441" y="-133" font-family="Helvetica,sans-Serif" font-size="10.00">deformable_contact</text>
</a>
</g>
</g>
<!-- dir_6d489fd6e033f0849918762eef7bdcd3&#45;&gt;dir_1c753413003997a66dfb73ee8ac9ce6c -->
<g id="edge3" class="edge">
<title>dir_6d489fd6e033f0849918762eef7bdcd3&#45;&gt;dir_1c753413003997a66dfb73ee8ac9ce6c</title>
<path fill="none" stroke="#63b8ff" d="M383.62,-126.43C324.8,-118.08 230.34,-104.5 143.04,-91.08"/>
<polygon fill="#63b8ff" stroke="#63b8ff" points="143.79,-87.65 133.38,-89.59 142.73,-94.57 143.79,-87.65"/>
<g id="a_edge3&#45;headlabel"><a xlink:href="dir_000384_000326.html" target="_top" xlink:title="1">
<text text-anchor="middle" x="146.28" y="-82.67" font-family="Helvetica,sans-Serif" font-size="10.00" fill="#63b8ff">1</text>
</a>
</g>
</g>
<!-- dir_6d489fd6e033f0849918762eef7bdcd3&#45;&gt;dir_5380690f8fe4a5308725276daeb74309 -->
<g id="edge4" class="edge">
<title>dir_6d489fd6e033f0849918762eef7bdcd3&#45;&gt;dir_5380690f8fe4a5308725276daeb74309</title>
<path fill="none" stroke="#63b8ff" d="M488.13,-125.57C591.79,-105.93 839.36,-59.02 952.63,-37.56"/>
<polygon fill="#63b8ff" stroke="#63b8ff" points="953.15,-41.02 962.33,-35.72 951.85,-34.15 953.15,-41.02"/>
<g id="a_edge4&#45;headlabel"><a xlink:href="dir_000384_000385.html" target="_top" xlink:title="1">
<text text-anchor="middle" x="951.64" y="-41.7" font-family="Helvetica,sans-Serif" font-size="10.00" fill="#63b8ff">1</text>
</a>
</g>
</g>
<!-- dir_6d489fd6e033f0849918762eef7bdcd3&#45;&gt;dir_8fc3e8efef0bfca4a113d719cbd52afb -->
<g id="edge5" class="edge">
<title>dir_6d489fd6e033f0849918762eef7bdcd3&#45;&gt;dir_8fc3e8efef0bfca4a113d719cbd52afb</title>
<path fill="none" stroke="#63b8ff" d="M467.09,-125.5C510.98,-110.65 602.59,-80.87 682,-63 757.44,-46.02 780.97,-52.38 855.38,-36.37"/>
<polygon fill="#63b8ff" stroke="#63b8ff" points="855.75,-39.88 864.75,-34.29 854.23,-33.04 855.75,-39.88"/>
<g id="a_edge5&#45;headlabel"><a xlink:href="dir_000384_000461.html" target="_top" xlink:title="6">
<text text-anchor="middle" x="854.34" y="-40.6" font-family="Helvetica,sans-Serif" font-size="10.00" fill="#63b8ff">6</text>
</a>
</g>
</g>
<!-- dir_9a873cf7fa1cba723fbff8ac6aeda099 -->
<g id="node6" class="node">
<title>dir_9a873cf7fa1cba723fbff8ac6aeda099</title>
<g id="a_node6"><a xlink:href="dir_9a873cf7fa1cba723fbff8ac6aeda099.html" target="_top" xlink:title="hydraulic_contact">
<polygon fill="#a2b4d6" stroke="#404040" points="251.5,-145 148.5,-145 148.5,-126 251.5,-126 251.5,-145"/>
<text text-anchor="middle" x="200" y="-133" font-family="Helvetica,sans-Serif" font-size="10.00">hydraulic_contact</text>
</a>
</g>
</g>
<!-- dir_9a873cf7fa1cba723fbff8ac6aeda099&#45;&gt;dir_624ab0d21274954989dda244296afb68 -->
<g id="edge6" class="edge">
<title>dir_9a873cf7fa1cba723fbff8ac6aeda099&#45;&gt;dir_624ab0d21274954989dda244296afb68</title>
<path fill="none" stroke="#63b8ff" d="M148.21,-128.19C102.82,-121.46 41.82,-109.12 27,-90 19.65,-80.52 20.06,-72.79 27,-63 37.86,-47.68 55.68,-38.74 73.52,-33.54"/>
<polygon fill="#63b8ff" stroke="#63b8ff" points="74.26,-36.97 83.1,-31.14 72.55,-30.18 74.26,-36.97"/>
<g id="a_edge6&#45;headlabel"><a xlink:href="dir_000441_000148.html" target="_top" xlink:title="2">
<text text-anchor="middle" x="72.93" y="-37.73" font-family="Helvetica,sans-Serif" font-size="10.00" fill="#63b8ff">2</text>
</a>
</g>
</g>
<!-- dir_971a975422ce8adb1c65bc1ae9bdf5dd -->
<g id="node8" class="node">
<title>dir_971a975422ce8adb1c65bc1ae9bdf5dd</title>
<g id="a_node8"><a xlink:href="dir_971a975422ce8adb1c65bc1ae9bdf5dd.html" target="_top" xlink:title="rigid_contact">
<polygon fill="#a2b4d6" stroke="#404040" points="243,-90 163,-90 163,-71 243,-71 243,-90"/>
<text text-anchor="middle" x="203" y="-78" font-family="Helvetica,sans-Serif" font-size="10.00">rigid_contact</text>
</a>
</g>
</g>
<!-- dir_9a873cf7fa1cba723fbff8ac6aeda099&#45;&gt;dir_971a975422ce8adb1c65bc1ae9bdf5dd -->
<g id="edge8" class="edge">
<title>dir_9a873cf7fa1cba723fbff8ac6aeda099&#45;&gt;dir_971a975422ce8adb1c65bc1ae9bdf5dd</title>
<path fill="none" stroke="#63b8ff" d="M200.5,-125.75C200.86,-119.27 201.38,-110.16 201.85,-101.9"/>
<polygon fill="#63b8ff" stroke="#63b8ff" points="205.34,-102.13 202.41,-91.95 198.35,-101.74 205.34,-102.13"/>
<g id="a_edge8&#45;headlabel"><a xlink:href="dir_000441_000596.html" target="_top" xlink:title="1">
<text text-anchor="middle" x="208.05" y="-101.87" font-family="Helvetica,sans-Serif" font-size="10.00" fill="#63b8ff">1</text>
</a>
</g>
</g>
<!-- dir_9a873cf7fa1cba723fbff8ac6aeda099&#45;&gt;dir_8fc3e8efef0bfca4a113d719cbd52afb -->
<g id="edge7" class="edge">
<title>dir_9a873cf7fa1cba723fbff8ac6aeda099&#45;&gt;dir_8fc3e8efef0bfca4a113d719cbd52afb</title>
<path fill="none" stroke="#63b8ff" d="M225.61,-125.55C271.53,-109.91 371.19,-77.88 458,-63 631.67,-33.23 682.85,-66.13 855.01,-36.12"/>
<polygon fill="#63b8ff" stroke="#63b8ff" points="855.55,-39.58 864.77,-34.37 854.31,-32.69 855.55,-39.58"/>
<g id="a_edge7&#45;headlabel"><a xlink:href="dir_000441_000461.html" target="_top" xlink:title="2">
<text text-anchor="middle" x="854" y="-40.25" font-family="Helvetica,sans-Serif" font-size="10.00" fill="#63b8ff">2</text>
</a>
</g>
</g>
<!-- dir_a9d1ddf4a320271f4609958e30283949 -->
<g id="node7" class="node">
<title>dir_a9d1ddf4a320271f4609958e30283949</title>
<g id="a_node7"><a xlink:href="dir_a9d1ddf4a320271f4609958e30283949.html" target="_top" xlink:title="rigid_body_links">
<polygon fill="#a2b4d6" stroke="#404040" points="612,-145 516,-145 516,-126 612,-126 612,-145"/>
<text text-anchor="middle" x="564" y="-133" font-family="Helvetica,sans-Serif" font-size="10.00">rigid_body_links</text>
</a>
</g>
</g>
<!-- dir_a9d1ddf4a320271f4609958e30283949&#45;&gt;dir_8fc3e8efef0bfca4a113d719cbd52afb -->
<g id="edge9" class="edge">
<title>dir_a9d1ddf4a320271f4609958e30283949&#45;&gt;dir_8fc3e8efef0bfca4a113d719cbd52afb</title>
<path fill="none" stroke="#63b8ff" d="M587.54,-125.52C624.75,-111.46 699.58,-83.69 764,-63 803.59,-50.28 816.46,-48.11 855.15,-36.97"/>
<polygon fill="#63b8ff" stroke="#63b8ff" points="856.1,-40.34 864.73,-34.18 854.15,-33.62 856.1,-40.34"/>
<g id="a_edge9&#45;headlabel"><a xlink:href="dir_000595_000461.html" target="_top" xlink:title="3">
<text text-anchor="middle" x="854.9" y="-41.15" font-family="Helvetica,sans-Serif" font-size="10.00" fill="#63b8ff">3</text>
</a>
</g>
</g>
<!-- dir_971a975422ce8adb1c65bc1ae9bdf5dd&#45;&gt;dir_624ab0d21274954989dda244296afb68 -->
<g id="edge11" class="edge">
<title>dir_971a975422ce8adb1c65bc1ae9bdf5dd&#45;&gt;dir_624ab0d21274954989dda244296afb68</title>
<path fill="none" stroke="#63b8ff" d="M190.79,-70.51C180.17,-62.7 164.56,-51.21 151.96,-41.93"/>
<polygon fill="#63b8ff" stroke="#63b8ff" points="154.38,-39.36 144.25,-36.26 150.23,-45 154.38,-39.36"/>
<g id="a_edge11&#45;headlabel"><a xlink:href="dir_000596_000148.html" target="_top" xlink:title="4">
<text text-anchor="middle" x="157.74" y="-35.81" font-family="Helvetica,sans-Serif" font-size="10.00" fill="#63b8ff">4</text>
</a>
</g>
</g>
<!-- dir_971a975422ce8adb1c65bc1ae9bdf5dd&#45;&gt;dir_5380690f8fe4a5308725276daeb74309 -->
<g id="edge10" class="edge">
<title>dir_971a975422ce8adb1c65bc1ae9bdf5dd&#45;&gt;dir_5380690f8fe4a5308725276daeb74309</title>
<path fill="none" stroke="#63b8ff" d="M243.24,-77.5C351.01,-72.05 655.47,-55.95 920.01,-35.21"/>
<polygon fill="#63b8ff" stroke="#63b8ff" points="920.18,-38.71 929.88,-34.43 919.63,-31.73 920.18,-38.71"/>
<g id="a_edge10&#45;headlabel"><a xlink:href="dir_000596_000385.html" target="_top" xlink:title="1">
<text text-anchor="middle" x="918.33" y="-39.2" font-family="Helvetica,sans-Serif" font-size="10.00" fill="#63b8ff">1</text>
</a>
</g>
</g>
<!-- dir_971a975422ce8adb1c65bc1ae9bdf5dd&#45;&gt;dir_8fc3e8efef0bfca4a113d719cbd52afb -->
<g id="edge12" class="edge">
<title>dir_971a975422ce8adb1c65bc1ae9bdf5dd&#45;&gt;dir_8fc3e8efef0bfca4a113d719cbd52afb</title>
<path fill="none" stroke="#63b8ff" d="M243.45,-73.07C266.67,-69.59 296.41,-65.51 323,-63 558.08,-40.77 623.68,-75.26 855.12,-36.06"/>
<polygon fill="#63b8ff" stroke="#63b8ff" points="855.51,-39.54 864.77,-34.39 854.32,-32.64 855.51,-39.54"/>
<g id="a_edge12&#45;headlabel"><a xlink:href="dir_000596_000461.html" target="_top" xlink:title="6">
<text text-anchor="middle" x="853.95" y="-40.19" font-family="Helvetica,sans-Serif" font-size="10.00" fill="#63b8ff">6</text>
</a>
</g>
</g>
<!-- dir_2bd13f5206ae215e78504074cc3389b6 -->
<g id="node9" class="node">
<title>dir_2bd13f5206ae215e78504074cc3389b6</title>
<g id="a_node9"><a xlink:href="dir_2bd13f5206ae215e78504074cc3389b6.html" target="_top" xlink:title="thermal_contact">
<polygon fill="#a2b4d6" stroke="#404040" points="366,-145 270,-145 270,-126 366,-126 366,-145"/>
<text text-anchor="middle" x="318" y="-133" font-family="Helvetica,sans-Serif" font-size="10.00">thermal_contact</text>
</a>
</g>
</g>
<!-- dir_2bd13f5206ae215e78504074cc3389b6&#45;&gt;dir_1c753413003997a66dfb73ee8ac9ce6c -->
<g id="edge13" class="edge">
<title>dir_2bd13f5206ae215e78504074cc3389b6&#45;&gt;dir_1c753413003997a66dfb73ee8ac9ce6c</title>
<path fill="none" stroke="#63b8ff" d="M278.31,-125.51C238.69,-116.54 177.66,-102.71 134.59,-92.96"/>
<polygon fill="#63b8ff" stroke="#63b8ff" points="135.5,-89.58 124.97,-90.78 133.95,-96.4 135.5,-89.58"/>
<g id="a_edge13&#45;headlabel"><a xlink:href="dir_000689_000326.html" target="_top" xlink:title="1">
<text text-anchor="middle" x="138.16" y="-84.77" font-family="Helvetica,sans-Serif" font-size="10.00" fill="#63b8ff">1</text>
</a>
</g>
</g>
<!-- dir_2bd13f5206ae215e78504074cc3389b6&#45;&gt;dir_8fc3e8efef0bfca4a113d719cbd52afb -->
<g id="edge14" class="edge">
<title>dir_2bd13f5206ae215e78504074cc3389b6&#45;&gt;dir_8fc3e8efef0bfca4a113d719cbd52afb</title>
<path fill="none" stroke="#63b8ff" d="M344.49,-125.56C390.99,-110.23 490.55,-79.06 577,-63 698.47,-40.44 735.04,-58.69 855.14,-36.21"/>
<polygon fill="#63b8ff" stroke="#63b8ff" points="855.61,-39.68 864.77,-34.34 854.28,-32.81 855.61,-39.68"/>
<g id="a_edge14&#45;headlabel"><a xlink:href="dir_000689_000461.html" target="_top" xlink:title="10">
<text text-anchor="middle" x="854.11" y="-40.36" font-family="Helvetica,sans-Serif" font-size="10.00" fill="#63b8ff">10</text>
</a>
</g>
</g>
</g>
</svg>
        <g id="navigator" transform="translate(0 0)" fill="#404254">
                <rect fill="#f2f5e9" fill-opacity="0.5" stroke="#606060" stroke-width=".5" x="0" y="0" width="60" height="60"/>
                <use id="zoomplus" xlink:href="#zoomPlus" x="17" y="9" onmousedown="handleZoom(evt,'in')"/>
                <use id="zoomminus" xlink:href="#zoomMin" x="42" y="9" onmousedown="handleZoom(evt,'out')"/>
                <use id="reset" xlink:href="#resetDef" x="30" y="36" onmousedown="handleReset()"/>
                <g id="arrowUp" xlink:href="#dirArrow" transform="translate(30 24)" onmousedown="handlePan(0,-1)">
                  <use xlink:href="#rim" fill="#404040">
                        <set attributeName="fill" to="#808080" begin="arrowUp.mouseover" end="arrowUp.mouseout"/>
                  </use>
                  <path fill="none" stroke="white" stroke-width="1.5" d="M0,-3.0v7 M-2.5,-0.5L0,-3.0L2.5,-0.5"/>
                </g>
                <g id="arrowRight" xlink:href="#dirArrow" transform="rotate(90) translate(36 -43)" onmousedown="handlePan(1,0)">
                  <use xlink:href="#rim" fill="#404040">
                        <set attributeName="fill" to="#808080" begin="arrowRight.mouseover" end="arrowRight.mouseout"/>
                  </use>
                  <path fill="none" stroke="white" stroke-width="1.5" d="M0,-3.0v7 M-2.5,-0.5L0,-3.0L2.5,-0.5"/>
                </g>
                <g id="arrowDown" xlink:href="#dirArrow" transform="rotate(180) translate(-30 -48)" onmousedown="handlePan(0,1)">
                  <use xlink:href="#rim" fill="#404040">
                        <set attributeName="fill" to="#808080" begin="arrowDown.mouseover" end="arrowDown.mouseout"/>
                  </use>
                  <path fill="none" stroke="white" stroke-width="1.5" d="M0,-3.0v7 M-2.5,-0.5L0,-3.0L2.5,-0.5"/>
                </g>
                <g id="arrowLeft" xlink:href="#dirArrow" transform="rotate(270) translate(-36 17)" onmousedown="handlePan(-1,0)">
                  <use xlink:href="#rim" fill="#404040">
                        <set attributeName="fill" to="#808080" begin="arrowLeft.mouseover" end="arrowLeft.mouseout"/>
                  </use>
                  <path fill="none" stroke="white" stroke-width="1.5" d="M0,-3.0v7 M-2.5,-0.5L0,-3.0L2.5,-0.5"/>
                </g>
        </g>
        <svg viewBox="0 0 15 15" width="100%" height="30px" preserveAspectRatio="xMaxYMin meet">
         <g id="arrow_out" transform="scale(0.3 0.3)">
          <a xlink:href="dir_8a5bc3e6468e79439b873d45eee21480_dep_org.svg" target="_base">
           <rect id="button" ry="5" rx="5" y="6" x="6" height="38" width="38"
                fill="#f2f5e9" fill-opacity="0.5" stroke="#606060" stroke-width="1.0"/>
           <path id="arrow"
             d="M 11.500037,31.436501 C 11.940474,20.09759 22.043105,11.32322 32.158766,21.979434 L 37.068811,17.246167 C 37.068811,17.246167 37.088388,32 37.088388,32 L 22.160133,31.978069 C 22.160133,31.978069 26.997745,27.140456 26.997745,27.140456 C 18.528582,18.264221 13.291696,25.230495 11.500037,31.436501 z"
             style="fill:#404040;"/>
          </a>
         </g>
        </svg>
</svg>
