<?xml version="1.0" encoding="UTF-8" standalone="no"?>
<!DOCTYPE svg PUBLIC "-//W3C//DTD SVG 1.1//EN"
 "http://www.w3.org/Graphics/SVG/1.1/DTD/svg11.dtd">
<!-- Generated by graphviz version 7.1.0 (0)
 -->
<!-- Title: /software/kratos/doxygen/applications/PfemApplication Pages: 1 -->
<svg width="574pt" height="196pt"
 viewBox="0.00 0.00 573.50 196.00" xmlns="http://www.w3.org/2000/svg" xmlns:xlink="http://www.w3.org/1999/xlink">
<g id="graph0" class="graph" transform="scale(1 1) rotate(0) translate(4 192)">
<title>/software/kratos/doxygen/applications/PfemApplication</title>
<g id="clust1" class="cluster">
<title>clusterdir_a6e4fee11f07c3b70486e88fe92cbbdc</title>
<g id="a_clust1"><a xlink:href="dir_a6e4fee11f07c3b70486e88fe92cbbdc.html" target="_top" xlink:title="applications">
<polygon fill="#edf0f7" stroke="#404040" stroke-dasharray="5,2" points="8,-8 8,-180 510,-180 510,-8 8,-8"/>
<text text-anchor="middle" x="259" y="-168" font-family="Helvetica,sans-Serif" font-size="10.00">applications</text>
</a>
</g>
</g>
<g id="clust2" class="cluster">
<title>clusterdir_2b9b8ee2b90b236d63c8cd5b6044bf81</title>
<g id="a_clust2"><a xlink:href="dir_2b9b8ee2b90b236d63c8cd5b6044bf81.html" target="_top">
<polygon fill="#edf0f7" stroke="#404040" stroke-width="2" points="16,-63 16,-153 346,-153 346,-63 16,-63"/>
</a>
</g>
</g>
<!-- dir_5380690f8fe4a5308725276daeb74309 -->
<g id="node1" class="node">
<title>dir_5380690f8fe4a5308725276daeb74309</title>
<g id="a_node1"><a xlink:href="dir_5380690f8fe4a5308725276daeb74309.html" target="_top" xlink:title="DelaunayMeshingApplication">
<polygon fill="#a2b4d6" stroke="red" points="268.5,-35 109.5,-35 109.5,-16 268.5,-16 268.5,-35"/>
<text text-anchor="middle" x="189" y="-23" font-family="Helvetica,sans-Serif" font-size="10.00">DelaunayMeshingApplication</text>
</a>
</g>
</g>
<!-- dir_66a868bf6d753b83ea6ea8ea996bb820 -->
<g id="node2" class="node">
<title>dir_66a868bf6d753b83ea6ea8ea996bb820</title>
<g id="a_node2"><a xlink:href="dir_66a868bf6d753b83ea6ea8ea996bb820.html" target="_top" xlink:title="SolidMechanicsApplication">
<polygon fill="#a2b4d6" stroke="red" points="501.5,-90 354.5,-90 354.5,-71 501.5,-71 501.5,-90"/>
<text text-anchor="middle" x="428" y="-78" font-family="Helvetica,sans-Serif" font-size="10.00">SolidMechanicsApplication</text>
</a>
</g>
</g>
<!-- dir_2b9b8ee2b90b236d63c8cd5b6044bf81 -->
<g id="node3" class="node">
<title>dir_2b9b8ee2b90b236d63c8cd5b6044bf81</title>
<text text-anchor="middle" x="179" y="-133" font-family="Helvetica,sans-Serif" font-size="10.00">PfemApplication</text>
</g>
<!-- dir_2b9b8ee2b90b236d63c8cd5b6044bf81&#45;&gt;dir_5380690f8fe4a5308725276daeb74309 -->
<g id="edge1" class="edge">
<title>dir_2b9b8ee2b90b236d63c8cd5b6044bf81&#45;&gt;dir_5380690f8fe4a5308725276daeb74309</title>
<path fill="none" stroke="#63b8ff" d="M147.99,-126.12C129.98,-119.49 108.78,-108.23 98,-90 91.89,-79.67 91.28,-72.94 98,-63 105.15,-52.42 115.93,-44.91 127.59,-39.57"/>
<polygon fill="#63b8ff" stroke="#63b8ff" points="128.6,-42.94 136.59,-35.98 126.01,-36.44 128.6,-42.94"/>
<g id="a_edge1&#45;headlabel"><a xlink:href="dir_000514_000385.html" target="_top" xlink:title="12">
<text text-anchor="middle" x="127.72" y="-43.85" font-family="Helvetica,sans-Serif" font-size="10.00" fill="#63b8ff">12</text>
</a>
</g>
</g>
<!-- dir_2b9b8ee2b90b236d63c8cd5b6044bf81&#45;&gt;dir_66a868bf6d753b83ea6ea8ea996bb820 -->
<g id="edge2" class="edge">
<title>dir_2b9b8ee2b90b236d63c8cd5b6044bf81&#45;&gt;dir_66a868bf6d753b83ea6ea8ea996bb820</title>
<path fill="none" stroke="#63b8ff" d="M218.73,-126.04C260.97,-117.05 328,-102.79 374.78,-92.83"/>
<polygon fill="#63b8ff" stroke="#63b8ff" points="375.38,-96.28 384.43,-90.77 373.93,-89.43 375.38,-96.28"/>
<g id="a_edge2&#45;headlabel"><a xlink:href="dir_000514_000626.html" target="_top" xlink:title="1">
<text text-anchor="middle" x="373.94" y="-96.99" font-family="Helvetica,sans-Serif" font-size="10.00" fill="#63b8ff">1</text>
</a>
</g>
</g>
<!-- dir_967e423ad9b954d9e579c50dd92a83fc -->
<g id="node4" class="node">
<title>dir_967e423ad9b954d9e579c50dd92a83fc</title>
<g id="a_node4"><a xlink:href="dir_967e423ad9b954d9e579c50dd92a83fc.html" target="_top" xlink:title="custom_elements">
<polygon fill="#a2b4d6" stroke="#404040" points="211,-90 107,-90 107,-71 211,-71 211,-90"/>
<text text-anchor="middle" x="159" y="-78" font-family="Helvetica,sans-Serif" font-size="10.00">custom_elements</text>
</a>
</g>
</g>
<!-- dir_2b9b8ee2b90b236d63c8cd5b6044bf81&#45;&gt;dir_967e423ad9b954d9e579c50dd92a83fc -->
<g id="edge4" class="edge">
<title>dir_2b9b8ee2b90b236d63c8cd5b6044bf81&#45;&gt;dir_967e423ad9b954d9e579c50dd92a83fc</title>
<path fill="none" stroke="#63b8ff" d="M175.88,-126.22C173.31,-119.42 169.57,-109.51 166.26,-100.75"/>
<polygon fill="#63b8ff" stroke="#63b8ff" points="169.64,-99.79 162.84,-91.67 163.09,-102.26 169.64,-99.79"/>
<g id="a_edge4&#45;headlabel"><a xlink:href="dir_000514_000131.html" target="_top" xlink:title="1">
<text text-anchor="middle" x="173.03" y="-98.23" font-family="Helvetica,sans-Serif" font-size="10.00" fill="#63b8ff">1</text>
</a>
</g>
</g>
<!-- dir_8fc3e8efef0bfca4a113d719cbd52afb -->
<g id="node8" class="node">
<title>dir_8fc3e8efef0bfca4a113d719cbd52afb</title>
<g id="a_node8"><a xlink:href="dir_8fc3e8efef0bfca4a113d719cbd52afb.html" target="_top" xlink:title="kratos">
<polygon fill="#edf0f7" stroke="red" points="565.5,-35 518.5,-35 518.5,-16 565.5,-16 565.5,-35"/>
<text text-anchor="middle" x="542" y="-23" font-family="Helvetica,sans-Serif" font-size="10.00">kratos</text>
</a>
</g>
</g>
<!-- dir_2b9b8ee2b90b236d63c8cd5b6044bf81&#45;&gt;dir_8fc3e8efef0bfca4a113d719cbd52afb -->
<g id="edge3" class="edge">
<title>dir_2b9b8ee2b90b236d63c8cd5b6044bf81&#45;&gt;dir_8fc3e8efef0bfca4a113d719cbd52afb</title>
<path fill="none" stroke="#63b8ff" d="M227.41,-127.34C230.66,-126.88 233.87,-126.43 237,-126 298.49,-117.5 464.3,-127.19 514,-90 527.88,-79.62 535,-60.85 538.58,-46.4"/>
<polygon fill="#63b8ff" stroke="#63b8ff" points="542,-47.12 540.58,-36.62 535.15,-45.71 542,-47.12"/>
<g id="a_edge3&#45;headlabel"><a xlink:href="dir_000514_000461.html" target="_top" xlink:title="38">
<text text-anchor="middle" x="544.37" y="-47.23" font-family="Helvetica,sans-Serif" font-size="10.00" fill="#63b8ff">38</text>
</a>
</g>
</g>
<!-- dir_967e423ad9b954d9e579c50dd92a83fc&#45;&gt;dir_8fc3e8efef0bfca4a113d719cbd52afb -->
<g id="edge5" class="edge">
<title>dir_967e423ad9b954d9e579c50dd92a83fc&#45;&gt;dir_8fc3e8efef0bfca4a113d719cbd52afb</title>
<path fill="none" stroke="#63b8ff" d="M188.25,-70.51C198.24,-67.73 209.53,-64.9 220,-63 345.49,-40.22 383.11,-59.27 507.18,-36.19"/>
<polygon fill="#63b8ff" stroke="#63b8ff" points="507.61,-39.67 516.77,-34.35 506.29,-32.8 507.61,-39.67"/>
<g id="a_edge5&#45;headlabel"><a xlink:href="dir_000131_000461.html" target="_top" xlink:title="2">
<text text-anchor="middle" x="506.1" y="-40.35" font-family="Helvetica,sans-Serif" font-size="10.00" fill="#63b8ff">2</text>
</a>
</g>
</g>
<!-- dir_8beef25c3e44c3397fa051fc2d2f7f10 -->
<g id="node5" class="node">
<title>dir_8beef25c3e44c3397fa051fc2d2f7f10</title>
<g id="a_node5"><a xlink:href="dir_8beef25c3e44c3397fa051fc2d2f7f10.html" target="_top" xlink:title="custom_processes">
<polygon fill="#a2b4d6" stroke="#404040" points="336.5,-90 229.5,-90 229.5,-71 336.5,-71 336.5,-90"/>
<text text-anchor="middle" x="283" y="-78" font-family="Helvetica,sans-Serif" font-size="10.00">custom_processes</text>
</a>
</g>
</g>
<!-- dir_8beef25c3e44c3397fa051fc2d2f7f10&#45;&gt;dir_5380690f8fe4a5308725276daeb74309 -->
<g id="edge6" class="edge">
<title>dir_8beef25c3e44c3397fa051fc2d2f7f10&#45;&gt;dir_5380690f8fe4a5308725276daeb74309</title>
<path fill="none" stroke="#63b8ff" d="M267.05,-70.51C252.65,-62.39 231.21,-50.3 214.44,-40.85"/>
<polygon fill="#63b8ff" stroke="#63b8ff" points="216.46,-37.96 206.03,-36.1 213.02,-44.06 216.46,-37.96"/>
<g id="a_edge6&#45;headlabel"><a xlink:href="dir_000205_000385.html" target="_top" xlink:title="11">
<text text-anchor="middle" x="219.67" y="-34.01" font-family="Helvetica,sans-Serif" font-size="10.00" fill="#63b8ff">11</text>
</a>
</g>
</g>
<!-- dir_8beef25c3e44c3397fa051fc2d2f7f10&#45;&gt;dir_8fc3e8efef0bfca4a113d719cbd52afb -->
<g id="edge7" class="edge">
<title>dir_8beef25c3e44c3397fa051fc2d2f7f10&#45;&gt;dir_8fc3e8efef0bfca4a113d719cbd52afb</title>
<path fill="none" stroke="#63b8ff" d="M311.53,-70.5C320.57,-67.85 330.65,-65.1 340,-63 412.85,-46.66 435.57,-52.06 507.28,-36.42"/>
<polygon fill="#63b8ff" stroke="#63b8ff" points="507.77,-39.9 516.75,-34.29 506.23,-33.07 507.77,-39.9"/>
<g id="a_edge7&#45;headlabel"><a xlink:href="dir_000205_000461.html" target="_top" xlink:title="24">
<text text-anchor="middle" x="506.36" y="-40.63" font-family="Helvetica,sans-Serif" font-size="10.00" fill="#63b8ff">24</text>
</a>
</g>
</g>
<!-- dir_fa1f35bc42b1742a98b5b379b124606c -->
<g id="node6" class="node">
<title>dir_fa1f35bc42b1742a98b5b379b124606c</title>
<g id="a_node6"><a xlink:href="dir_fa1f35bc42b1742a98b5b379b124606c.html" target="_top" xlink:title="custom_python">
<polygon fill="#a2b4d6" stroke="#404040" points="338,-145 246,-145 246,-126 338,-126 338,-145"/>
<text text-anchor="middle" x="292" y="-133" font-family="Helvetica,sans-Serif" font-size="10.00">custom_python</text>
</a>
</g>
</g>
<!-- dir_fa1f35bc42b1742a98b5b379b124606c&#45;&gt;dir_8beef25c3e44c3397fa051fc2d2f7f10 -->
<g id="edge8" class="edge">
<title>dir_fa1f35bc42b1742a98b5b379b124606c&#45;&gt;dir_8beef25c3e44c3397fa051fc2d2f7f10</title>
<path fill="none" stroke="#63b8ff" d="M290.51,-125.75C289.4,-119.19 287.83,-109.95 286.41,-101.6"/>
<polygon fill="#63b8ff" stroke="#63b8ff" points="289.9,-101.21 284.77,-91.93 283,-102.38 289.9,-101.21"/>
<g id="a_edge8&#45;headlabel"><a xlink:href="dir_000254_000205.html" target="_top" xlink:title="8">
<text text-anchor="middle" x="293.04" y="-100.28" font-family="Helvetica,sans-Serif" font-size="10.00" fill="#63b8ff">8</text>
</a>
</g>
</g>
<!-- dir_fa1f35bc42b1742a98b5b379b124606c&#45;&gt;dir_8fc3e8efef0bfca4a113d719cbd52afb -->
<g id="edge9" class="edge">
<title>dir_fa1f35bc42b1742a98b5b379b124606c&#45;&gt;dir_8fc3e8efef0bfca4a113d719cbd52afb</title>
<path fill="none" stroke="#63b8ff" d="M338.38,-133.17C403.84,-130.21 518.27,-120.68 544,-90 553.98,-78.11 552.38,-60.09 548.92,-46.29"/>
<polygon fill="#63b8ff" stroke="#63b8ff" points="552.33,-45.49 546.08,-36.94 545.64,-47.53 552.33,-45.49"/>
<g id="a_edge9&#45;headlabel"><a xlink:href="dir_000254_000461.html" target="_top" xlink:title="2">
<text text-anchor="middle" x="555.66" y="-44.16" font-family="Helvetica,sans-Serif" font-size="10.00" fill="#63b8ff">2</text>
</a>
</g>
</g>
<!-- dir_cb387d1fe3b792a79e2c07c8ea422820 -->
<g id="node7" class="node">
<title>dir_cb387d1fe3b792a79e2c07c8ea422820</title>
<g id="a_node7"><a xlink:href="dir_cb387d1fe3b792a79e2c07c8ea422820.html" target="_top" xlink:title="python_scripts">
<polygon fill="#a2b4d6" stroke="#404040" points="112,-145 24,-145 24,-126 112,-126 112,-145"/>
<text text-anchor="middle" x="68" y="-133" font-family="Helvetica,sans-Serif" font-size="10.00">python_scripts</text>
</a>
</g>
</g>
</g>
</svg>
