<?xml version="1.0" encoding="UTF-8" standalone="no"?>
<!DOCTYPE svg PUBLIC "-//W3C//DTD SVG 1.1//EN"
 "http://www.w3.org/Graphics/SVG/1.1/DTD/svg11.dtd">
<!-- Generated by graphviz version 7.1.0 (0)
 -->
<!-- Title: /software/kratos/doxygen/kratos/processes Pages: 1 -->
<svg width="997pt" height="133pt"
 viewBox="0.00 0.00 997.00 133.00" xmlns="http://www.w3.org/2000/svg" xmlns:xlink="http://www.w3.org/1999/xlink">
<g id="graph0" class="graph" transform="scale(1 1) rotate(0) translate(4 129)">
<title>/software/kratos/doxygen/kratos/processes</title>
<g id="clust1" class="cluster">
<title>clusterdir_8fc3e8efef0bfca4a113d719cbd52afb</title>
<g id="a_clust1"><a xlink:href="dir_8fc3e8efef0bfca4a113d719cbd52afb.html" target="_top" xlink:title="kratos">
<polygon fill="#edf0f7" stroke="#404040" stroke-dasharray="5,2" points="8,-8 8,-117 981,-117 981,-8 8,-8"/>
<text text-anchor="middle" x="494.5" y="-105" font-family="Helvetica,sans-Serif" font-size="10.00">kratos</text>
</a>
</g>
</g>
<!-- dir_0f2a41a65b424fb18d66414e7dff174e -->
<g id="node1" class="node">
<title>dir_0f2a41a65b424fb18d66414e7dff174e</title>
<g id="a_node1"><a xlink:href="dir_0f2a41a65b424fb18d66414e7dff174e.html" target="_top" xlink:title="linear_solvers">
<polygon fill="#a2b4d6" stroke="#404040" points="101.5,-35 16.5,-35 16.5,-16 101.5,-16 101.5,-35"/>
<text text-anchor="middle" x="59" y="-23" font-family="Helvetica,sans-Serif" font-size="10.00">linear_solvers</text>
</a>
</g>
</g>
<!-- dir_3df538503b4c9d1db505a9b503b9f267 -->
<g id="node2" class="node">
<title>dir_3df538503b4c9d1db505a9b503b9f267</title>
<g id="a_node2"><a xlink:href="dir_3df538503b4c9d1db505a9b503b9f267.html" target="_top" xlink:title="spatial_containers">
<polygon fill="#a2b4d6" stroke="red" points="226,-35 120,-35 120,-16 226,-16 226,-35"/>
<text text-anchor="middle" x="173" y="-23" font-family="Helvetica,sans-Serif" font-size="10.00">spatial_containers</text>
</a>
</g>
</g>
<!-- dir_4bf86485d60c2e09cb36d324d749dc60 -->
<g id="node3" class="node">
<title>dir_4bf86485d60c2e09cb36d324d749dc60</title>
<g id="a_node3"><a xlink:href="dir_4bf86485d60c2e09cb36d324d749dc60.html" target="_top" xlink:title="factories">
<polygon fill="#a2b4d6" stroke="#404040" points="303.5,-35 244.5,-35 244.5,-16 303.5,-16 303.5,-35"/>
<text text-anchor="middle" x="274" y="-23" font-family="Helvetica,sans-Serif" font-size="10.00">factories</text>
</a>
</g>
</g>
<!-- dir_66f509ea33903854c4af9a48ea9d27f6 -->
<g id="node4" class="node">
<title>dir_66f509ea33903854c4af9a48ea9d27f6</title>
<g id="a_node4"><a xlink:href="dir_66f509ea33903854c4af9a48ea9d27f6.html" target="_top" xlink:title="modeler">
<polygon fill="#a2b4d6" stroke="#404040" points="378.5,-35 321.5,-35 321.5,-16 378.5,-16 378.5,-35"/>
<text text-anchor="middle" x="350" y="-23" font-family="Helvetica,sans-Serif" font-size="10.00">modeler</text>
</a>
</g>
</g>
<!-- dir_6da2b5da699b6e8099c18b866a052d71 -->
<g id="node5" class="node">
<title>dir_6da2b5da699b6e8099c18b866a052d71</title>
<g id="a_node5"><a xlink:href="dir_6da2b5da699b6e8099c18b866a052d71.html" target="_top" xlink:title="includes">
<polygon fill="#a2b4d6" stroke="#404040" points="453.5,-35 396.5,-35 396.5,-16 453.5,-16 453.5,-35"/>
<text text-anchor="middle" x="425" y="-23" font-family="Helvetica,sans-Serif" font-size="10.00">includes</text>
</a>
</g>
</g>
<!-- dir_70f98bb657cca0a872199855cac08757 -->
<g id="node6" class="node">
<title>dir_70f98bb657cca0a872199855cac08757</title>
<g id="a_node6"><a xlink:href="dir_70f98bb657cca0a872199855cac08757.html" target="_top" xlink:title="utilities">
<polygon fill="#a2b4d6" stroke="red" points="524.5,-35 471.5,-35 471.5,-16 524.5,-16 524.5,-35"/>
<text text-anchor="middle" x="498" y="-23" font-family="Helvetica,sans-Serif" font-size="10.00">utilities</text>
</a>
</g>
</g>
<!-- dir_80b24cd11685060440d77842b83d8f07 -->
<g id="node7" class="node">
<title>dir_80b24cd11685060440d77842b83d8f07</title>
<g id="a_node7"><a xlink:href="dir_80b24cd11685060440d77842b83d8f07.html" target="_top" xlink:title="containers">
<polygon fill="#a2b4d6" stroke="#404040" points="611,-35 543,-35 543,-16 611,-16 611,-35"/>
<text text-anchor="middle" x="577" y="-23" font-family="Helvetica,sans-Serif" font-size="10.00">containers</text>
</a>
</g>
</g>
<!-- dir_8bb4bf10e837f02fa064395f8ff79769 -->
<g id="node8" class="node">
<title>dir_8bb4bf10e837f02fa064395f8ff79769</title>
<g id="a_node8"><a xlink:href="dir_8bb4bf10e837f02fa064395f8ff79769.html" target="_top" xlink:title="elements">
<polygon fill="#a2b4d6" stroke="#404040" points="691,-35 629,-35 629,-16 691,-16 691,-35"/>
<text text-anchor="middle" x="660" y="-23" font-family="Helvetica,sans-Serif" font-size="10.00">elements</text>
</a>
</g>
</g>
<!-- dir_9311051b33dbe6b2e08fc45590134e6c -->
<g id="node9" class="node">
<title>dir_9311051b33dbe6b2e08fc45590134e6c</title>
<g id="a_node9"><a xlink:href="dir_9311051b33dbe6b2e08fc45590134e6c.html" target="_top" xlink:title="geometries">
<polygon fill="#a2b4d6" stroke="red" points="781,-35 709,-35 709,-16 781,-16 781,-35"/>
<text text-anchor="middle" x="745" y="-23" font-family="Helvetica,sans-Serif" font-size="10.00">geometries</text>
</a>
</g>
</g>
<!-- dir_bd2ce17ba33a86142a4fe49271950777 -->
<g id="node10" class="node">
<title>dir_bd2ce17ba33a86142a4fe49271950777</title>
<g id="a_node10"><a xlink:href="dir_bd2ce17ba33a86142a4fe49271950777.html" target="_top" xlink:title="spaces">
<polygon fill="#a2b4d6" stroke="#404040" points="849,-35 799,-35 799,-16 849,-16 849,-35"/>
<text text-anchor="middle" x="824" y="-23" font-family="Helvetica,sans-Serif" font-size="10.00">spaces</text>
</a>
</g>
</g>
<!-- dir_fdea7736ef62293a5901d28bce787dd1 -->
<g id="node11" class="node">
<title>dir_fdea7736ef62293a5901d28bce787dd1</title>
<g id="a_node11"><a xlink:href="dir_fdea7736ef62293a5901d28bce787dd1.html" target="_top" xlink:title="solving_strategies">
<polygon fill="#a2b4d6" stroke="red" points="973,-35 867,-35 867,-16 973,-16 973,-35"/>
<text text-anchor="middle" x="920" y="-23" font-family="Helvetica,sans-Serif" font-size="10.00">solving_strategies</text>
</a>
</g>
</g>
<!-- dir_c7c5f3eb57bf72689def995461ffc148 -->
<g id="node12" class="node">
<title>dir_c7c5f3eb57bf72689def995461ffc148</title>
<g id="a_node12"><a xlink:href="dir_c7c5f3eb57bf72689def995461ffc148.html" target="_top" xlink:title="processes">
<polygon fill="#edf0f7" stroke="#404040" stroke-width="2" points="530.5,-90 465.5,-90 465.5,-71 530.5,-71 530.5,-90"/>
<text text-anchor="middle" x="498" y="-78" font-family="Helvetica,sans-Serif" font-size="10.00">processes</text>
</a>
</g>
</g>
<!-- dir_c7c5f3eb57bf72689def995461ffc148&#45;&gt;dir_0f2a41a65b424fb18d66414e7dff174e -->
<g id="edge1" class="edge">
<title>dir_c7c5f3eb57bf72689def995461ffc148&#45;&gt;dir_0f2a41a65b424fb18d66414e7dff174e</title>
<path fill="none" stroke="#63b8ff" d="M465.06,-76.25C399.96,-69.7 249.97,-54.05 112.93,-35.2"/>
<polygon fill="#63b8ff" stroke="#63b8ff" points="113.71,-31.78 103.32,-33.87 112.75,-38.71 113.71,-31.78"/>
<g id="a_edge1&#45;headlabel"><a xlink:href="dir_000529_000467.html" target="_top" xlink:title="2">
<text text-anchor="middle" x="116.16" y="-26.75" font-family="Helvetica,sans-Serif" font-size="10.00" fill="#63b8ff">2</text>
</a>
</g>
</g>
<!-- dir_c7c5f3eb57bf72689def995461ffc148&#45;&gt;dir_3df538503b4c9d1db505a9b503b9f267 -->
<g id="edge2" class="edge">
<title>dir_c7c5f3eb57bf72689def995461ffc148&#45;&gt;dir_3df538503b4c9d1db505a9b503b9f267</title>
<path fill="none" stroke="#63b8ff" d="M465.05,-74.13C411.85,-65.45 306.09,-48.2 237.5,-37.02"/>
<polygon fill="#63b8ff" stroke="#63b8ff" points="238.34,-33.61 227.9,-35.45 237.21,-40.52 238.34,-33.61"/>
<g id="a_edge2&#45;headlabel"><a xlink:href="dir_000529_000635.html" target="_top" xlink:title="5">
<text text-anchor="middle" x="240.85" y="-28.64" font-family="Helvetica,sans-Serif" font-size="10.00" fill="#63b8ff">5</text>
</a>
</g>
</g>
<!-- dir_c7c5f3eb57bf72689def995461ffc148&#45;&gt;dir_4bf86485d60c2e09cb36d324d749dc60 -->
<g id="edge3" class="edge">
<title>dir_c7c5f3eb57bf72689def995461ffc148&#45;&gt;dir_4bf86485d60c2e09cb36d324d749dc60</title>
<path fill="none" stroke="#63b8ff" d="M465.43,-71.79C425.55,-62.36 358,-46.38 314.73,-36.14"/>
<polygon fill="#63b8ff" stroke="#63b8ff" points="315.76,-32.78 305.22,-33.89 314.15,-39.6 315.76,-32.78"/>
<g id="a_edge3&#45;headlabel"><a xlink:href="dir_000529_000406.html" target="_top" xlink:title="1">
<text text-anchor="middle" x="318.44" y="-28" font-family="Helvetica,sans-Serif" font-size="10.00" fill="#63b8ff">1</text>
</a>
</g>
</g>
<!-- dir_c7c5f3eb57bf72689def995461ffc148&#45;&gt;dir_66f509ea33903854c4af9a48ea9d27f6 -->
<g id="edge4" class="edge">
<title>dir_c7c5f3eb57bf72689def995461ffc148&#45;&gt;dir_66f509ea33903854c4af9a48ea9d27f6</title>
<path fill="none" stroke="#63b8ff" d="M472.89,-70.51C448.83,-61.89 412.28,-48.8 385.29,-39.14"/>
<polygon fill="#63b8ff" stroke="#63b8ff" points="386.75,-35.94 376.16,-35.87 384.39,-42.53 386.75,-35.94"/>
<g id="a_edge4&#45;headlabel"><a xlink:href="dir_000529_000487.html" target="_top" xlink:title="6">
<text text-anchor="middle" x="389.67" y="-31.47" font-family="Helvetica,sans-Serif" font-size="10.00" fill="#63b8ff">6</text>
</a>
</g>
</g>
<!-- dir_c7c5f3eb57bf72689def995461ffc148&#45;&gt;dir_6da2b5da699b6e8099c18b866a052d71 -->
<g id="edge5" class="edge">
<title>dir_c7c5f3eb57bf72689def995461ffc148&#45;&gt;dir_6da2b5da699b6e8099c18b866a052d71</title>
<path fill="none" stroke="#63b8ff" d="M485.62,-70.51C474.85,-62.7 459.03,-51.21 446.25,-41.93"/>
<polygon fill="#63b8ff" stroke="#63b8ff" points="448.57,-39.29 438.43,-36.25 444.46,-44.95 448.57,-39.29"/>
<g id="a_edge5&#45;headlabel"><a xlink:href="dir_000529_000445.html" target="_top" xlink:title="152">
<text text-anchor="middle" x="451.93" y="-35.72" font-family="Helvetica,sans-Serif" font-size="10.00" fill="#63b8ff">152</text>
</a>
</g>
</g>
<!-- dir_c7c5f3eb57bf72689def995461ffc148&#45;&gt;dir_70f98bb657cca0a872199855cac08757 -->
<g id="edge6" class="edge">
<title>dir_c7c5f3eb57bf72689def995461ffc148&#45;&gt;dir_70f98bb657cca0a872199855cac08757</title>
<path fill="none" stroke="#63b8ff" d="M498,-70.75C498,-64.27 498,-55.16 498,-46.9"/>
<polygon fill="#63b8ff" stroke="#63b8ff" points="501.5,-46.96 498,-36.96 494.5,-46.96 501.5,-46.96"/>
<g id="a_edge6&#45;headlabel"><a xlink:href="dir_000529_000716.html" target="_top" xlink:title="93">
<text text-anchor="middle" x="504.34" y="-46.54" font-family="Helvetica,sans-Serif" font-size="10.00" fill="#63b8ff">93</text>
</a>
</g>
</g>
<!-- dir_c7c5f3eb57bf72689def995461ffc148&#45;&gt;dir_80b24cd11685060440d77842b83d8f07 -->
<g id="edge7" class="edge">
<title>dir_c7c5f3eb57bf72689def995461ffc148&#45;&gt;dir_80b24cd11685060440d77842b83d8f07</title>
<path fill="none" stroke="#63b8ff" d="M511.4,-70.51C523.16,-62.62 540.51,-50.98 554.41,-41.65"/>
<polygon fill="#63b8ff" stroke="#63b8ff" points="556.19,-44.68 562.54,-36.2 552.29,-38.87 556.19,-44.68"/>
<g id="a_edge7&#45;headlabel"><a xlink:href="dir_000529_000048.html" target="_top" xlink:title="15">
<text text-anchor="middle" x="556.04" y="-45.7" font-family="Helvetica,sans-Serif" font-size="10.00" fill="#63b8ff">15</text>
</a>
</g>
</g>
<!-- dir_c7c5f3eb57bf72689def995461ffc148&#45;&gt;dir_8bb4bf10e837f02fa064395f8ff79769 -->
<g id="edge8" class="edge">
<title>dir_c7c5f3eb57bf72689def995461ffc148&#45;&gt;dir_8bb4bf10e837f02fa064395f8ff79769</title>
<path fill="none" stroke="#63b8ff" d="M525.48,-70.51C551.98,-61.84 592.3,-48.65 621.89,-38.97"/>
<polygon fill="#63b8ff" stroke="#63b8ff" points="622.8,-42.35 631.22,-35.92 620.62,-35.7 622.8,-42.35"/>
<g id="a_edge8&#45;headlabel"><a xlink:href="dir_000529_000395.html" target="_top" xlink:title="4">
<text text-anchor="middle" x="621.71" y="-43.2" font-family="Helvetica,sans-Serif" font-size="10.00" fill="#63b8ff">4</text>
</a>
</g>
</g>
<!-- dir_c7c5f3eb57bf72689def995461ffc148&#45;&gt;dir_9311051b33dbe6b2e08fc45590134e6c -->
<g id="edge9" class="edge">
<title>dir_c7c5f3eb57bf72689def995461ffc148&#45;&gt;dir_9311051b33dbe6b2e08fc45590134e6c</title>
<path fill="none" stroke="#63b8ff" d="M530.8,-72.46C573.56,-63.29 648.66,-47.17 697.61,-36.67"/>
<polygon fill="#63b8ff" stroke="#63b8ff" points="698.33,-40.09 707.37,-34.57 696.86,-33.25 698.33,-40.09"/>
<g id="a_edge9&#45;headlabel"><a xlink:href="dir_000529_000433.html" target="_top" xlink:title="20">
<text text-anchor="middle" x="696.89" y="-40.81" font-family="Helvetica,sans-Serif" font-size="10.00" fill="#63b8ff">20</text>
</a>
</g>
</g>
<!-- dir_c7c5f3eb57bf72689def995461ffc148&#45;&gt;dir_bd2ce17ba33a86142a4fe49271950777 -->
<g id="edge10" class="edge">
<title>dir_c7c5f3eb57bf72689def995461ffc148&#45;&gt;dir_bd2ce17ba33a86142a4fe49271950777</title>
<path fill="none" stroke="#63b8ff" d="M530.58,-75.55C582.76,-69 688.48,-54.84 787.68,-35.3"/>
<polygon fill="#63b8ff" stroke="#63b8ff" points="788.2,-38.76 797.32,-33.37 786.83,-31.9 788.2,-38.76"/>
<g id="a_edge10&#45;headlabel"><a xlink:href="dir_000529_000634.html" target="_top" xlink:title="1">
<text text-anchor="middle" x="786.72" y="-39.46" font-family="Helvetica,sans-Serif" font-size="10.00" fill="#63b8ff">1</text>
</a>
</g>
</g>
<!-- dir_c7c5f3eb57bf72689def995461ffc148&#45;&gt;dir_fdea7736ef62293a5901d28bce787dd1 -->
<g id="edge11" class="edge">
<title>dir_c7c5f3eb57bf72689def995461ffc148&#45;&gt;dir_fdea7736ef62293a5901d28bce787dd1</title>
<path fill="none" stroke="#63b8ff" d="M530.78,-75.6C592.21,-68.25 729.14,-51.72 855.19,-35.35"/>
<polygon fill="#63b8ff" stroke="#63b8ff" points="855.61,-38.83 865.07,-34.07 854.7,-31.89 855.61,-38.83"/>
<g id="a_edge11&#45;headlabel"><a xlink:href="dir_000529_000631.html" target="_top" xlink:title="12">
<text text-anchor="middle" x="853.91" y="-39.41" font-family="Helvetica,sans-Serif" font-size="10.00" fill="#63b8ff">12</text>
</a>
</g>
</g>
</g>
</svg>
