<?xml version="1.0" encoding="UTF-8" standalone="no"?>
<!DOCTYPE svg PUBLIC "-//W3C//DTD SVG 1.1//EN"
 "http://www.w3.org/Graphics/SVG/1.1/DTD/svg11.dtd">
<!-- Generated by graphviz version 2.43.0 (0)
 -->
<!-- Title: Graphical Class Hierarchy Pages: 1 -->
<svg width="689pt" height="1230pt"
 viewBox="0.00 0.00 689.00 1230.00" xmlns="http://www.w3.org/2000/svg" xmlns:xlink="http://www.w3.org/1999/xlink">
<g id="graph0" class="graph" transform="scale(1 1) rotate(0) translate(4 1226)">
<title>Graphical Class Hierarchy</title>
<!-- Node0 -->
<g id="node1" class="node">
<title>Node0</title>
<g id="a_node1"><a xlink:href="d3/d80/class_kratos_1_1_convergence_criteria.html" target="_top" xlink:title="This is the base class to define the different convergence criterion considered.">
<polygon fill="none" stroke="black" points="0,-511 0,-541 179,-541 179,-511 0,-511"/>
<text text-anchor="start" x="8" y="-529" font-family="Helvetica,sans-Serif" font-size="10.00">Kratos::ConvergenceCriteria</text>
<text text-anchor="middle" x="89.5" y="-518" font-family="Helvetica,sans-Serif" font-size="10.00">&lt; TSparseSpace, TDenseSpace &gt;</text>
</a>
</g>
</g>
<!-- Node1 -->
<g id="node2" class="node">
<title>Node1</title>
<g id="a_node2"><a xlink:href="d8/ddd/class_kratos_1_1_and___criteria.html" target="_top" xlink:title="This convergence criteria checks simultaneously two convergence criteria (both must be satisfied)">
<polygon fill="none" stroke="black" points="233,-1121 233,-1151 412,-1151 412,-1121 233,-1121"/>
<text text-anchor="start" x="241" y="-1139" font-family="Helvetica,sans-Serif" font-size="10.00">Kratos::And_Criteria</text>
<text text-anchor="middle" x="322.5" y="-1128" font-family="Helvetica,sans-Serif" font-size="10.00">&lt; TSparseSpace, TDenseSpace &gt;</text>
</a>
</g>
</g>
<!-- Node0&#45;&gt;Node1 -->
<g id="edge1" class="edge">
<title>Node0&#45;&gt;Node1</title>
<path fill="none" stroke="midnightblue" d="M91.1,-551.39C94.06,-630.61 111.54,-878.04 215,-1046 235.06,-1078.57 270.93,-1105.22 295.45,-1120.85"/>
<polygon fill="midnightblue" stroke="midnightblue" points="94.6,-551.23 90.77,-541.35 87.6,-551.46 94.6,-551.23"/>
</g>
<!-- Node3 -->
<g id="node4" class="node">
<title>Node3</title>
<g id="a_node4"><a xlink:href="d8/da5/class_kratos_1_1_base_mortar_convergence_criteria.html" target="_top" xlink:title="Custom convergence criteria for the mortar condition.">
<polygon fill="none" stroke="black" points="215,-1006 215,-1036 430,-1036 430,-1006 215,-1006"/>
<text text-anchor="start" x="223" y="-1024" font-family="Helvetica,sans-Serif" font-size="10.00">Kratos::BaseMortarConvergence</text>
<text text-anchor="middle" x="322.5" y="-1013" font-family="Helvetica,sans-Serif" font-size="10.00">Criteria&lt; TSparseSpace, TDenseSpace &gt;</text>
</a>
</g>
</g>
<!-- Node0&#45;&gt;Node3 -->
<g id="edge3" class="edge">
<title>Node0&#45;&gt;Node3</title>
<path fill="none" stroke="midnightblue" d="M93.76,-551.28C105.64,-639.57 149.41,-932.24 215,-996 218.95,-999.84 223.37,-1003.13 228.11,-1005.95"/>
<polygon fill="midnightblue" stroke="midnightblue" points="97.19,-550.56 92.41,-541.11 90.26,-551.48 97.19,-550.56"/>
</g>
<!-- Node10 -->
<g id="node11" class="node">
<title>Node10</title>
<g id="a_node11"><a xlink:href="d8/d04/class_kratos_1_1_contact_error_mesh_criteria.html" target="_top" xlink:title="Custom convergence for used to check the convergence in the mesh error.">
<polygon fill="none" stroke="black" points="252,-945.5 252,-986.5 393,-986.5 393,-945.5 252,-945.5"/>
<text text-anchor="start" x="260" y="-974.5" font-family="Helvetica,sans-Serif" font-size="10.00">Kratos::ContactErrorMesh</text>
<text text-anchor="start" x="260" y="-963.5" font-family="Helvetica,sans-Serif" font-size="10.00">Criteria&lt; TSparseSpace,</text>
<text text-anchor="middle" x="322.5" y="-952.5" font-family="Helvetica,sans-Serif" font-size="10.00"> TDenseSpace &gt;</text>
</a>
</g>
</g>
<!-- Node0&#45;&gt;Node10 -->
<g id="edge10" class="edge">
<title>Node0&#45;&gt;Node10</title>
<path fill="none" stroke="midnightblue" d="M90.32,-551.56C91.27,-623.11 104.05,-827.27 215,-936 225.15,-945.95 238.33,-952.65 251.95,-957.16"/>
<polygon fill="midnightblue" stroke="midnightblue" points="93.82,-551.23 90.26,-541.25 86.82,-551.27 93.82,-551.23"/>
</g>
<!-- Node11 -->
<g id="node12" class="node">
<title>Node11</title>
<g id="a_node12"><a xlink:href="d1/df2/class_kratos_1_1_displacement_contact_criteria.html" target="_top" xlink:title="Convergence criteria for contact problems.">
<polygon fill="none" stroke="black" points="243,-885.5 243,-926.5 402,-926.5 402,-885.5 243,-885.5"/>
<text text-anchor="start" x="251" y="-914.5" font-family="Helvetica,sans-Serif" font-size="10.00">Kratos::DisplacementContact</text>
<text text-anchor="start" x="251" y="-903.5" font-family="Helvetica,sans-Serif" font-size="10.00">Criteria&lt; TSparseSpace,</text>
<text text-anchor="middle" x="322.5" y="-892.5" font-family="Helvetica,sans-Serif" font-size="10.00"> TDenseSpace &gt;</text>
</a>
</g>
</g>
<!-- Node0&#45;&gt;Node11 -->
<g id="edge11" class="edge">
<title>Node0&#45;&gt;Node11</title>
<path fill="none" stroke="midnightblue" d="M91.85,-551.26C96.66,-615.36 118.36,-785.65 215,-876 223,-883.48 232.71,-889.11 242.99,-893.36"/>
<polygon fill="midnightblue" stroke="midnightblue" points="95.34,-550.98 91.17,-541.24 88.35,-551.45 95.34,-550.98"/>
</g>
<!-- Node12 -->
<g id="node13" class="node">
<title>Node12</title>
<g id="a_node13"><a xlink:href="d3/d7f/class_kratos_1_1_displacement_criteria.html" target="_top" xlink:title="This is a convergence criteria that employes the increment on the solution as criteria.">
<polygon fill="none" stroke="black" points="233,-836 233,-866 412,-866 412,-836 233,-836"/>
<text text-anchor="start" x="241" y="-854" font-family="Helvetica,sans-Serif" font-size="10.00">Kratos::DisplacementCriteria</text>
<text text-anchor="middle" x="322.5" y="-843" font-family="Helvetica,sans-Serif" font-size="10.00">&lt; TSparseSpace, TDenseSpace &gt;</text>
</a>
</g>
</g>
<!-- Node0&#45;&gt;Node12 -->
<g id="edge12" class="edge">
<title>Node0&#45;&gt;Node12</title>
<path fill="none" stroke="midnightblue" d="M93.3,-551.4C101.11,-609.47 128.58,-752.62 215,-826 220.36,-830.55 226.39,-834.3 232.79,-837.4"/>
<polygon fill="midnightblue" stroke="midnightblue" points="96.75,-550.75 92.03,-541.27 89.8,-551.63 96.75,-550.75"/>
</g>
<!-- Node13 -->
<g id="node14" class="node">
<title>Node13</title>
<g id="a_node14"><a xlink:href="d9/d87/class_kratos_1_1_displacement_lagrange_multiplier_contact_criteria.html" target="_top" xlink:title="Convergence criteria for contact problems.">
<polygon fill="none" stroke="black" points="233,-775.5 233,-816.5 412,-816.5 412,-775.5 233,-775.5"/>
<text text-anchor="start" x="241" y="-804.5" font-family="Helvetica,sans-Serif" font-size="10.00">Kratos::DisplacementLagrange</text>
<text text-anchor="start" x="241" y="-793.5" font-family="Helvetica,sans-Serif" font-size="10.00">MultiplierContactCriteria</text>
<text text-anchor="middle" x="322.5" y="-782.5" font-family="Helvetica,sans-Serif" font-size="10.00">&lt; TSparseSpace, TDenseSpace &gt;</text>
</a>
</g>
</g>
<!-- Node0&#45;&gt;Node13 -->
<g id="edge13" class="edge">
<title>Node0&#45;&gt;Node13</title>
<path fill="none" stroke="midnightblue" d="M96.3,-550.76C109.04,-599.53 144.13,-708.29 215,-766 220.44,-770.43 226.49,-774.2 232.87,-777.42"/>
<polygon fill="midnightblue" stroke="midnightblue" points="99.69,-549.88 93.86,-541.03 92.9,-551.59 99.69,-549.88"/>
</g>
<!-- Node14 -->
<g id="node15" class="node">
<title>Node14</title>
<g id="a_node15"><a xlink:href="d2/dd3/class_kratos_1_1_displacement_lagrange_multiplier_frictional_contact_criteria.html" target="_top" xlink:title="Convergence criteria for contact problems.">
<polygon fill="none" stroke="black" points="231.5,-715.5 231.5,-756.5 413.5,-756.5 413.5,-715.5 231.5,-715.5"/>
<text text-anchor="start" x="239.5" y="-744.5" font-family="Helvetica,sans-Serif" font-size="10.00">Kratos::DisplacementLagrange</text>
<text text-anchor="start" x="239.5" y="-733.5" font-family="Helvetica,sans-Serif" font-size="10.00">MultiplierFrictionalContactCriteria</text>
<text text-anchor="middle" x="322.5" y="-722.5" font-family="Helvetica,sans-Serif" font-size="10.00">&lt; TSparseSpace, TDenseSpace &gt;</text>
</a>
</g>
</g>
<!-- Node0&#45;&gt;Node14 -->
<g id="edge14" class="edge">
<title>Node0&#45;&gt;Node14</title>
<path fill="none" stroke="midnightblue" d="M100.86,-550.74C118.46,-589.74 157.95,-665.26 215,-706 220.08,-709.63 225.59,-712.82 231.33,-715.62"/>
<polygon fill="midnightblue" stroke="midnightblue" points="103.89,-548.95 96.66,-541.21 97.49,-551.77 103.89,-548.95"/>
</g>
<!-- Node15 -->
<g id="node16" class="node">
<title>Node15</title>
<g id="a_node16"><a xlink:href="d0/d61/class_kratos_1_1_displacement_lagrange_multiplier_mixed_contact_criteria.html" target="_top" xlink:title="Convergence criteria for contact problems.">
<polygon fill="none" stroke="black" points="233,-655.5 233,-696.5 412,-696.5 412,-655.5 233,-655.5"/>
<text text-anchor="start" x="241" y="-684.5" font-family="Helvetica,sans-Serif" font-size="10.00">Kratos::DisplacementLagrange</text>
<text text-anchor="start" x="241" y="-673.5" font-family="Helvetica,sans-Serif" font-size="10.00">MultiplierMixedContactCriteria</text>
<text text-anchor="middle" x="322.5" y="-662.5" font-family="Helvetica,sans-Serif" font-size="10.00">&lt; TSparseSpace, TDenseSpace &gt;</text>
</a>
</g>
</g>
<!-- Node0&#45;&gt;Node15 -->
<g id="edge15" class="edge">
<title>Node0&#45;&gt;Node15</title>
<path fill="none" stroke="midnightblue" d="M108.43,-549.19C130.61,-576.3 170.87,-620.69 215,-646 221.17,-649.54 227.77,-652.68 234.57,-655.46"/>
<polygon fill="midnightblue" stroke="midnightblue" points="111.14,-546.97 102.15,-541.37 105.68,-551.35 111.14,-546.97"/>
</g>
<!-- Node16 -->
<g id="node17" class="node">
<title>Node16</title>
<g id="a_node17"><a xlink:href="d3/d27/class_kratos_1_1_displacement_lagrange_multiplier_mixed_frictional_contact_criteria.html" target="_top" xlink:title="Convergence criteria for contact problems.">
<polygon fill="none" stroke="black" points="215,-595.5 215,-636.5 430,-636.5 430,-595.5 215,-595.5"/>
<text text-anchor="start" x="223" y="-624.5" font-family="Helvetica,sans-Serif" font-size="10.00">Kratos::DisplacementLagrange</text>
<text text-anchor="start" x="223" y="-613.5" font-family="Helvetica,sans-Serif" font-size="10.00">MultiplierMixedFrictionalContact</text>
<text text-anchor="middle" x="322.5" y="-602.5" font-family="Helvetica,sans-Serif" font-size="10.00">Criteria&lt; TSparseSpace, TDenseSpace &gt;</text>
</a>
</g>
</g>
<!-- Node0&#45;&gt;Node16 -->
<g id="edge16" class="edge">
<title>Node0&#45;&gt;Node16</title>
<path fill="none" stroke="midnightblue" d="M126.98,-545.67C151.41,-558.32 184.56,-574.48 215,-586 223.8,-589.33 233.14,-592.49 242.48,-595.41"/>
<polygon fill="midnightblue" stroke="midnightblue" points="128.55,-542.54 118.07,-541.01 125.31,-548.75 128.55,-542.54"/>
</g>
<!-- Node17 -->
<g id="node18" class="node">
<title>Node17</title>
<g id="a_node18"><a xlink:href="d0/dbc/class_kratos_1_1_displacement_lagrange_multiplier_residual_contact_criteria.html" target="_top" xlink:title="Convergence criteria for contact problems This class implements a convergence control based on nodal ...">
<polygon fill="none" stroke="black" points="233,-535.5 233,-576.5 412,-576.5 412,-535.5 233,-535.5"/>
<text text-anchor="start" x="241" y="-564.5" font-family="Helvetica,sans-Serif" font-size="10.00">Kratos::DisplacementLagrange</text>
<text text-anchor="start" x="241" y="-553.5" font-family="Helvetica,sans-Serif" font-size="10.00">MultiplierResidualContactCriteria</text>
<text text-anchor="middle" x="322.5" y="-542.5" font-family="Helvetica,sans-Serif" font-size="10.00">&lt; TSparseSpace, TDenseSpace &gt;</text>
</a>
</g>
</g>
<!-- Node0&#45;&gt;Node17 -->
<g id="edge17" class="edge">
<title>Node0&#45;&gt;Node17</title>
<path fill="none" stroke="midnightblue" d="M189.11,-538.81C203.59,-540.69 218.44,-542.62 232.71,-544.47"/>
<polygon fill="midnightblue" stroke="midnightblue" points="189.52,-535.33 179.15,-537.51 188.62,-542.27 189.52,-535.33"/>
</g>
<!-- Node18 -->
<g id="node19" class="node">
<title>Node18</title>
<g id="a_node19"><a xlink:href="d8/df9/class_kratos_1_1_displacement_lagrange_multiplier_residual_frictional_contact_criteria.html" target="_top" xlink:title="Convergence criteria for contact problems (only for frictional cases) This class implements a converg...">
<polygon fill="none" stroke="black" points="215,-475.5 215,-516.5 430,-516.5 430,-475.5 215,-475.5"/>
<text text-anchor="start" x="223" y="-504.5" font-family="Helvetica,sans-Serif" font-size="10.00">Kratos::DisplacementLagrange</text>
<text text-anchor="start" x="223" y="-493.5" font-family="Helvetica,sans-Serif" font-size="10.00">MultiplierResidualFrictionalContact</text>
<text text-anchor="middle" x="322.5" y="-482.5" font-family="Helvetica,sans-Serif" font-size="10.00">Criteria&lt; TSparseSpace, TDenseSpace &gt;</text>
</a>
</g>
</g>
<!-- Node0&#45;&gt;Node18 -->
<g id="edge18" class="edge">
<title>Node0&#45;&gt;Node18</title>
<path fill="none" stroke="midnightblue" d="M189.11,-513.19C197.65,-512.08 206.32,-510.96 214.92,-509.84"/>
<polygon fill="midnightblue" stroke="midnightblue" points="188.62,-509.73 179.15,-514.49 189.52,-516.67 188.62,-509.73"/>
</g>
<!-- Node19 -->
<g id="node20" class="node">
<title>Node19</title>
<g id="a_node20"><a xlink:href="d8/db2/class_kratos_1_1_displacement_residual_contact_criteria.html" target="_top" xlink:title="Convergence criteria for contact problems This class implements a convergence control based on nodal ...">
<polygon fill="none" stroke="black" points="236,-415.5 236,-456.5 409,-456.5 409,-415.5 236,-415.5"/>
<text text-anchor="start" x="244" y="-444.5" font-family="Helvetica,sans-Serif" font-size="10.00">Kratos::DisplacementResidual</text>
<text text-anchor="start" x="244" y="-433.5" font-family="Helvetica,sans-Serif" font-size="10.00">ContactCriteria&lt; TSparseSpace,</text>
<text text-anchor="middle" x="322.5" y="-422.5" font-family="Helvetica,sans-Serif" font-size="10.00"> TDenseSpace &gt;</text>
</a>
</g>
</g>
<!-- Node0&#45;&gt;Node19 -->
<g id="edge19" class="edge">
<title>Node0&#45;&gt;Node19</title>
<path fill="none" stroke="midnightblue" d="M126.98,-506.33C151.41,-493.68 184.56,-477.52 215,-466 223.8,-462.67 233.14,-459.51 242.48,-456.59"/>
<polygon fill="midnightblue" stroke="midnightblue" points="125.31,-503.25 118.07,-510.99 128.55,-509.46 125.31,-503.25"/>
</g>
<!-- Node20 -->
<g id="node21" class="node">
<title>Node20</title>
<g id="a_node21"><a xlink:href="d2/ddd/class_kratos_1_1_error_mesh_criteria.html" target="_top" xlink:title="Custom convergence for used to check the convergence in the mesh error.">
<polygon fill="none" stroke="black" points="233,-366 233,-396 412,-396 412,-366 233,-366"/>
<text text-anchor="start" x="241" y="-384" font-family="Helvetica,sans-Serif" font-size="10.00">Kratos::ErrorMeshCriteria</text>
<text text-anchor="middle" x="322.5" y="-373" font-family="Helvetica,sans-Serif" font-size="10.00">&lt; TSparseSpace, TDenseSpace &gt;</text>
</a>
</g>
</g>
<!-- Node0&#45;&gt;Node20 -->
<g id="edge20" class="edge">
<title>Node0&#45;&gt;Node20</title>
<path fill="none" stroke="midnightblue" d="M107.89,-502.92C129.81,-475.52 170.08,-430.47 215,-406 222.17,-402.09 229.94,-398.79 237.9,-396.01"/>
<polygon fill="midnightblue" stroke="midnightblue" points="105.12,-500.79 101.7,-510.81 110.62,-505.11 105.12,-500.79"/>
</g>
<!-- Node21 -->
<g id="node22" class="node">
<title>Node21</title>
<g id="a_node22"><a xlink:href="d1/d03/class_kratos_1_1_fem_dem_residual_criteria.html" target="_top" xlink:title="This is a convergence criteria that employes the residual as criteria.">
<polygon fill="none" stroke="black" points="233,-317 233,-347 412,-347 412,-317 233,-317"/>
<text text-anchor="start" x="241" y="-335" font-family="Helvetica,sans-Serif" font-size="10.00">Kratos::FemDemResidualCriteria</text>
<text text-anchor="middle" x="322.5" y="-324" font-family="Helvetica,sans-Serif" font-size="10.00">&lt; TSparseSpace, TDenseSpace &gt;</text>
</a>
</g>
</g>
<!-- Node0&#45;&gt;Node21 -->
<g id="edge21" class="edge">
<title>Node0&#45;&gt;Node21</title>
<path fill="none" stroke="midnightblue" d="M101.48,-501.65C119.58,-464.41 159.29,-393.75 215,-357 220.87,-353.13 227.26,-349.86 233.91,-347.09"/>
<polygon fill="midnightblue" stroke="midnightblue" points="98.27,-500.25 97.15,-510.79 104.59,-503.25 98.27,-500.25"/>
</g>
<!-- Node22 -->
<g id="node23" class="node">
<title>Node22</title>
<g id="a_node23"><a xlink:href="d8/df6/class_kratos_1_1_m_p_c_contact_criteria.html" target="_top" xlink:title="Custom convergence criteria for the contact problem.">
<polygon fill="none" stroke="black" points="233,-268 233,-298 412,-298 412,-268 233,-268"/>
<text text-anchor="start" x="241" y="-286" font-family="Helvetica,sans-Serif" font-size="10.00">Kratos::MPCContactCriteria</text>
<text text-anchor="middle" x="322.5" y="-275" font-family="Helvetica,sans-Serif" font-size="10.00">&lt; TSparseSpace, TDenseSpace &gt;</text>
</a>
</g>
</g>
<!-- Node0&#45;&gt;Node22 -->
<g id="edge22" class="edge">
<title>Node0&#45;&gt;Node22</title>
<path fill="none" stroke="midnightblue" d="M97.47,-501.02C111.6,-455.22 148.09,-357.95 215,-308 220.48,-303.91 226.52,-300.48 232.87,-297.59"/>
<polygon fill="midnightblue" stroke="midnightblue" points="94.08,-500.16 94.57,-510.74 100.79,-502.16 94.08,-500.16"/>
</g>
<!-- Node23 -->
<g id="node24" class="node">
<title>Node23</title>
<g id="a_node24"><a xlink:href="d7/deb/class_kratos_1_1_mixed_generic_criteria.html" target="_top" xlink:title="Convergence criteria for mixed vector&#45;scalar problems.">
<polygon fill="none" stroke="black" points="233,-219 233,-249 412,-249 412,-219 233,-219"/>
<text text-anchor="start" x="241" y="-237" font-family="Helvetica,sans-Serif" font-size="10.00">Kratos::MixedGenericCriteria</text>
<text text-anchor="middle" x="322.5" y="-226" font-family="Helvetica,sans-Serif" font-size="10.00">&lt; TSparseSpace, TDenseSpace &gt;</text>
</a>
</g>
</g>
<!-- Node0&#45;&gt;Node23 -->
<g id="edge23" class="edge">
<title>Node0&#45;&gt;Node23</title>
<path fill="none" stroke="midnightblue" d="M94.7,-500.82C104.96,-447.5 136.47,-322.83 215,-259 220.38,-254.63 226.39,-250.99 232.74,-247.98"/>
<polygon fill="midnightblue" stroke="midnightblue" points="91.23,-500.32 92.87,-510.79 98.12,-501.58 91.23,-500.32"/>
</g>
<!-- Node25 -->
<g id="node26" class="node">
<title>Node25</title>
<g id="a_node26"><a xlink:href="d8/df3/class_kratos_1_1_or___criteria.html" target="_top" xlink:title="This convergence criteria checks simultaneously two convergence criteria (one of them must be satisfi...">
<polygon fill="none" stroke="black" points="233,-170 233,-200 412,-200 412,-170 233,-170"/>
<text text-anchor="start" x="241" y="-188" font-family="Helvetica,sans-Serif" font-size="10.00">Kratos::Or_Criteria</text>
<text text-anchor="middle" x="322.5" y="-177" font-family="Helvetica,sans-Serif" font-size="10.00">&lt; TSparseSpace, TDenseSpace &gt;</text>
</a>
</g>
</g>
<!-- Node0&#45;&gt;Node25 -->
<g id="edge25" class="edge">
<title>Node0&#45;&gt;Node25</title>
<path fill="none" stroke="midnightblue" d="M92.72,-500.51C99.37,-440.22 124.73,-288.07 215,-210 220.39,-205.34 226.48,-201.51 232.96,-198.37"/>
<polygon fill="midnightblue" stroke="midnightblue" points="89.21,-500.36 91.68,-510.66 96.18,-501.07 89.21,-500.36"/>
</g>
<!-- Node26 -->
<g id="node27" class="node">
<title>Node26</title>
<g id="a_node27"><a xlink:href="de/d05/class_kratos_1_1_residual_criteria.html" target="_top" xlink:title="This is a convergence criteria that employes the residual as criteria.">
<polygon fill="none" stroke="black" points="233,-121 233,-151 412,-151 412,-121 233,-121"/>
<text text-anchor="start" x="241" y="-139" font-family="Helvetica,sans-Serif" font-size="10.00">Kratos::ResidualCriteria</text>
<text text-anchor="middle" x="322.5" y="-128" font-family="Helvetica,sans-Serif" font-size="10.00">&lt; TSparseSpace, TDenseSpace &gt;</text>
</a>
</g>
</g>
<!-- Node0&#45;&gt;Node26 -->
<g id="edge26" class="edge">
<title>Node0&#45;&gt;Node26</title>
<path fill="none" stroke="midnightblue" d="M91.1,-500.64C94.13,-433.99 111.93,-252.66 215,-160 220.36,-155.18 226.47,-151.27 232.99,-148.1"/>
<polygon fill="midnightblue" stroke="midnightblue" points="87.6,-500.54 90.72,-510.67 94.6,-500.81 87.6,-500.54"/>
</g>
<!-- Node28 -->
<g id="node29" class="node">
<title>Node28</title>
<g id="a_node29"><a xlink:href="d0/d18/class_kratos_1_1_residual_displacement_and_other_do_f_criteria.html" target="_top" xlink:title="This is a convergence criteria that employes the residual as criteria, it divides the problem in two ...">
<polygon fill="none" stroke="black" points="222.5,-60.5 222.5,-101.5 422.5,-101.5 422.5,-60.5 222.5,-60.5"/>
<text text-anchor="start" x="230.5" y="-89.5" font-family="Helvetica,sans-Serif" font-size="10.00">Kratos::ResidualDisplacement</text>
<text text-anchor="start" x="230.5" y="-78.5" font-family="Helvetica,sans-Serif" font-size="10.00">AndOtherDoFCriteria&lt; TSparseSpace,</text>
<text text-anchor="middle" x="322.5" y="-67.5" font-family="Helvetica,sans-Serif" font-size="10.00"> TDenseSpace &gt;</text>
</a>
</g>
</g>
<!-- Node0&#45;&gt;Node28 -->
<g id="edge28" class="edge">
<title>Node0&#45;&gt;Node28</title>
<path fill="none" stroke="midnightblue" d="M90.21,-500.63C90.82,-428.68 102.74,-221.38 215,-111 218.56,-107.5 222.5,-104.4 226.7,-101.66"/>
<polygon fill="midnightblue" stroke="midnightblue" points="86.71,-500.98 90.2,-510.98 93.71,-500.99 86.71,-500.98"/>
</g>
<!-- Node29 -->
<g id="node30" class="node">
<title>Node29</title>
<g id="a_node30"><a xlink:href="d0/d11/class_kratos_1_1_trilinos_displacement_criteria.html" target="_top" xlink:title=" ">
<polygon fill="none" stroke="black" points="244.5,-0.5 244.5,-41.5 400.5,-41.5 400.5,-0.5 244.5,-0.5"/>
<text text-anchor="start" x="252.5" y="-29.5" font-family="Helvetica,sans-Serif" font-size="10.00">Kratos::TrilinosDisplacement</text>
<text text-anchor="start" x="252.5" y="-18.5" font-family="Helvetica,sans-Serif" font-size="10.00">Criteria&lt; TSparseSpace,</text>
<text text-anchor="middle" x="322.5" y="-7.5" font-family="Helvetica,sans-Serif" font-size="10.00"> TDenseSpace &gt;</text>
</a>
</g>
</g>
<!-- Node0&#45;&gt;Node29 -->
<g id="edge29" class="edge">
<title>Node0&#45;&gt;Node29</title>
<path fill="none" stroke="midnightblue" d="M93.78,-500.82C105.82,-412.27 150.21,-116.98 215,-51 223.14,-42.71 233.38,-36.66 244.28,-32.26"/>
<polygon fill="midnightblue" stroke="midnightblue" points="90.31,-500.41 92.45,-510.79 97.25,-501.34 90.31,-500.41"/>
</g>
<!-- Node2 -->
<g id="node3" class="node">
<title>Node2</title>
<g id="a_node3"><a xlink:href="db/da3/class_kratos_1_1_mortar_and_convergence_criteria.html" target="_top" xlink:title="Custom AND convergence criteria for the mortar condition.">
<polygon fill="none" stroke="black" points="489,-1180.5 489,-1221.5 658,-1221.5 658,-1180.5 489,-1180.5"/>
<text text-anchor="start" x="497" y="-1209.5" font-family="Helvetica,sans-Serif" font-size="10.00">Kratos::MortarAndConvergence</text>
<text text-anchor="start" x="497" y="-1198.5" font-family="Helvetica,sans-Serif" font-size="10.00">Criteria&lt; TSparseSpace,</text>
<text text-anchor="middle" x="573.5" y="-1187.5" font-family="Helvetica,sans-Serif" font-size="10.00"> TDenseSpace &gt;</text>
</a>
</g>
</g>
<!-- Node1&#45;&gt;Node2 -->
<g id="edge2" class="edge">
<title>Node1&#45;&gt;Node2</title>
<path fill="none" stroke="midnightblue" d="M391.31,-1153.7C422.99,-1161.97 460.9,-1171.87 493.84,-1180.47"/>
<polygon fill="midnightblue" stroke="midnightblue" points="391.81,-1150.22 381.25,-1151.08 390.04,-1156.99 391.81,-1150.22"/>
</g>
<!-- Node4 -->
<g id="node5" class="node">
<title>Node4</title>
<g id="a_node5"><a xlink:href="dc/df0/class_kratos_1_1_a_l_m_frictional_mortar_convergence_criteria.html" target="_top" xlink:title="Custom convergence criteria for the mortar condition for frictional case.">
<polygon fill="none" stroke="black" points="474,-1120.5 474,-1161.5 673,-1161.5 673,-1120.5 474,-1120.5"/>
<text text-anchor="start" x="482" y="-1149.5" font-family="Helvetica,sans-Serif" font-size="10.00">Kratos::ALMFrictionalMortar</text>
<text text-anchor="start" x="482" y="-1138.5" font-family="Helvetica,sans-Serif" font-size="10.00">ConvergenceCriteria&lt; TSparseSpace,</text>
<text text-anchor="middle" x="573.5" y="-1127.5" font-family="Helvetica,sans-Serif" font-size="10.00"> TDenseSpace &gt;</text>
</a>
</g>
</g>
<!-- Node3&#45;&gt;Node4 -->
<g id="edge4" class="edge">
<title>Node3&#45;&gt;Node4</title>
<path fill="none" stroke="midnightblue" d="M351.64,-1042.24C379.43,-1062.35 423.79,-1092.2 466,-1111 473.72,-1114.44 481.93,-1117.58 490.24,-1120.43"/>
<polygon fill="midnightblue" stroke="midnightblue" points="353.36,-1039.16 343.22,-1036.07 349.22,-1044.8 353.36,-1039.16"/>
</g>
<!-- Node5 -->
<g id="node6" class="node">
<title>Node5</title>
<g id="a_node6"><a xlink:href="d2/d54/class_kratos_1_1_a_l_m_frictionless_components_mortar_convergence_criteria.html" target="_top" xlink:title="Custom convergence criteria for the mortar condition for frictionless case with components.">
<polygon fill="none" stroke="black" points="477.5,-1060.5 477.5,-1101.5 669.5,-1101.5 669.5,-1060.5 477.5,-1060.5"/>
<text text-anchor="start" x="485.5" y="-1089.5" font-family="Helvetica,sans-Serif" font-size="10.00">Kratos::ALMFrictionlessComponents</text>
<text text-anchor="start" x="485.5" y="-1078.5" font-family="Helvetica,sans-Serif" font-size="10.00">MortarConvergenceCriteria&lt;</text>
<text text-anchor="middle" x="573.5" y="-1067.5" font-family="Helvetica,sans-Serif" font-size="10.00"> TSparseSpace, TDenseSpace &gt;</text>
</a>
</g>
</g>
<!-- Node3&#45;&gt;Node5 -->
<g id="edge5" class="edge">
<title>Node3&#45;&gt;Node5</title>
<path fill="none" stroke="midnightblue" d="M395.93,-1038.45C424.55,-1045.35 457.63,-1053.32 487.38,-1060.49"/>
<polygon fill="midnightblue" stroke="midnightblue" points="396.55,-1035 386.01,-1036.06 394.91,-1041.81 396.55,-1035"/>
</g>
<!-- Node6 -->
<g id="node7" class="node">
<title>Node6</title>
<g id="a_node7"><a xlink:href="d6/da0/class_kratos_1_1_a_l_m_frictionless_mortar_convergence_criteria.html" target="_top" xlink:title="Custom convergence criteria for the mortar condition for frictionless case with components.">
<polygon fill="none" stroke="black" points="474,-1000.5 474,-1041.5 673,-1041.5 673,-1000.5 474,-1000.5"/>
<text text-anchor="start" x="482" y="-1029.5" font-family="Helvetica,sans-Serif" font-size="10.00">Kratos::ALMFrictionlessMortar</text>
<text text-anchor="start" x="482" y="-1018.5" font-family="Helvetica,sans-Serif" font-size="10.00">ConvergenceCriteria&lt; TSparseSpace,</text>
<text text-anchor="middle" x="573.5" y="-1007.5" font-family="Helvetica,sans-Serif" font-size="10.00"> TDenseSpace &gt;</text>
</a>
</g>
</g>
<!-- Node3&#45;&gt;Node6 -->
<g id="edge6" class="edge">
<title>Node3&#45;&gt;Node6</title>
<path fill="none" stroke="midnightblue" d="M440.44,-1021C451.64,-1021 462.92,-1021 473.92,-1021"/>
<polygon fill="midnightblue" stroke="midnightblue" points="440.18,-1017.5 430.18,-1021 440.18,-1024.5 440.18,-1017.5"/>
</g>
<!-- Node7 -->
<g id="node8" class="node">
<title>Node7</title>
<g id="a_node8"><a xlink:href="d2/dce/class_kratos_1_1_mesh_tying_mortar_convergence_criteria.html" target="_top" xlink:title=" ">
<polygon fill="none" stroke="black" points="466,-951 466,-981 681,-981 681,-951 466,-951"/>
<text text-anchor="start" x="474" y="-969" font-family="Helvetica,sans-Serif" font-size="10.00">Kratos::MeshTyingMortarConvergence</text>
<text text-anchor="middle" x="573.5" y="-958" font-family="Helvetica,sans-Serif" font-size="10.00">Criteria&lt; TSparseSpace, TDenseSpace &gt;</text>
</a>
</g>
</g>
<!-- Node3&#45;&gt;Node7 -->
<g id="edge7" class="edge">
<title>Node3&#45;&gt;Node7</title>
<path fill="none" stroke="midnightblue" d="M401.61,-1003.75C434.62,-996.45 472.71,-988.04 504.54,-981.01"/>
<polygon fill="midnightblue" stroke="midnightblue" points="400.55,-1000.4 391.54,-1005.97 402.06,-1007.23 400.55,-1000.4"/>
</g>
<!-- Node8 -->
<g id="node9" class="node">
<title>Node8</title>
<g id="a_node9"><a xlink:href="dd/df8/class_kratos_1_1_penalty_frictional_mortar_convergence_criteria.html" target="_top" xlink:title="Custom convergence criteria for the mortar condition for frictional case.">
<polygon fill="none" stroke="black" points="484,-890.5 484,-931.5 663,-931.5 663,-890.5 484,-890.5"/>
<text text-anchor="start" x="492" y="-919.5" font-family="Helvetica,sans-Serif" font-size="10.00">Kratos::PenaltyFrictional</text>
<text text-anchor="start" x="492" y="-908.5" font-family="Helvetica,sans-Serif" font-size="10.00">MortarConvergenceCriteria</text>
<text text-anchor="middle" x="573.5" y="-897.5" font-family="Helvetica,sans-Serif" font-size="10.00">&lt; TSparseSpace, TDenseSpace &gt;</text>
</a>
</g>
</g>
<!-- Node3&#45;&gt;Node8 -->
<g id="edge8" class="edge">
<title>Node3&#45;&gt;Node8</title>
<path fill="none" stroke="midnightblue" d="M420.93,-1001.56C424.07,-999.86 427.1,-998.01 430,-996 453.7,-979.55 442.74,-959.06 466,-942 471.51,-937.96 477.54,-934.44 483.84,-931.38"/>
<polygon fill="midnightblue" stroke="midnightblue" points="419.3,-998.46 411.83,-1005.98 422.35,-1004.76 419.3,-998.46"/>
</g>
<!-- Node9 -->
<g id="node10" class="node">
<title>Node9</title>
<g id="a_node10"><a xlink:href="dc/d99/class_kratos_1_1_penalty_frictionless_mortar_convergence_criteria.html" target="_top" xlink:title="Custom convergence criteria for the mortar condition for frictionless case with components.">
<polygon fill="none" stroke="black" points="484,-830.5 484,-871.5 663,-871.5 663,-830.5 484,-830.5"/>
<text text-anchor="start" x="492" y="-859.5" font-family="Helvetica,sans-Serif" font-size="10.00">Kratos::PenaltyFrictionless</text>
<text text-anchor="start" x="492" y="-848.5" font-family="Helvetica,sans-Serif" font-size="10.00">MortarConvergenceCriteria</text>
<text text-anchor="middle" x="573.5" y="-837.5" font-family="Helvetica,sans-Serif" font-size="10.00">&lt; TSparseSpace, TDenseSpace &gt;</text>
</a>
</g>
</g>
<!-- Node3&#45;&gt;Node9 -->
<g id="edge9" class="edge">
<title>Node3&#45;&gt;Node9</title>
<path fill="none" stroke="midnightblue" d="M425.28,-1000C426.91,-998.74 428.49,-997.41 430,-996 469.22,-959.53 427.59,-918.32 466,-881 471.3,-875.85 477.42,-871.56 483.99,-868.01"/>
<polygon fill="midnightblue" stroke="midnightblue" points="423.06,-997.27 416.69,-1005.74 426.95,-1003.09 423.06,-997.27"/>
</g>
<!-- Node24 -->
<g id="node25" class="node">
<title>Node24</title>
<g id="a_node25"><a xlink:href="db/d91/class_kratos_1_1_trilinos_mixed_generic_criteria.html" target="_top" xlink:title="Convergence criteria for mixed vector&#45;scalar problems.">
<polygon fill="none" stroke="black" points="496,-213.5 496,-254.5 651,-254.5 651,-213.5 496,-213.5"/>
<text text-anchor="start" x="504" y="-242.5" font-family="Helvetica,sans-Serif" font-size="10.00">Kratos::TrilinosMixedGeneric</text>
<text text-anchor="start" x="504" y="-231.5" font-family="Helvetica,sans-Serif" font-size="10.00">Criteria&lt; TSparseSpace,</text>
<text text-anchor="middle" x="573.5" y="-220.5" font-family="Helvetica,sans-Serif" font-size="10.00"> TDenseSpace &gt;</text>
</a>
</g>
</g>
<!-- Node23&#45;&gt;Node24 -->
<g id="edge24" class="edge">
<title>Node23&#45;&gt;Node24</title>
<path fill="none" stroke="midnightblue" d="M422.66,-234C446.95,-234 472.59,-234 495.66,-234"/>
<polygon fill="midnightblue" stroke="midnightblue" points="422.34,-230.5 412.34,-234 422.34,-237.5 422.34,-230.5"/>
</g>
<!-- Node27 -->
<g id="node28" class="node">
<title>Node27</title>
<g id="a_node28"><a xlink:href="d6/d62/class_kratos_1_1_trilinos_residual_criteria.html" target="_top" xlink:title="MPI version of the ResidualCriteria.">
<polygon fill="none" stroke="black" points="506,-115.5 506,-156.5 641,-156.5 641,-115.5 506,-115.5"/>
<text text-anchor="start" x="514" y="-144.5" font-family="Helvetica,sans-Serif" font-size="10.00">Kratos::TrilinosResidual</text>
<text text-anchor="start" x="514" y="-133.5" font-family="Helvetica,sans-Serif" font-size="10.00">Criteria&lt; TSparseSpace,</text>
<text text-anchor="middle" x="573.5" y="-122.5" font-family="Helvetica,sans-Serif" font-size="10.00"> TDenseSpace &gt;</text>
</a>
</g>
</g>
<!-- Node26&#45;&gt;Node27 -->
<g id="edge27" class="edge">
<title>Node26&#45;&gt;Node27</title>
<path fill="none" stroke="midnightblue" d="M422.52,-136C450.42,-136 480.09,-136 505.62,-136"/>
<polygon fill="midnightblue" stroke="midnightblue" points="422.34,-132.5 412.34,-136 422.34,-139.5 422.34,-132.5"/>
</g>
</g>
</svg>
