<?xml version="1.0" encoding="UTF-8" standalone="no"?>
<!DOCTYPE svg PUBLIC "-//W3C//DTD SVG 1.1//EN"
 "http://www.w3.org/Graphics/SVG/1.1/DTD/svg11.dtd">
<!-- Generated by graphviz version 2.43.0 (0)
 -->
<!-- Title: Graphical Class Hierarchy Pages: 1 -->
<svg width="298pt" height="256pt"
 viewBox="0.00 0.00 298.00 256.00" xmlns="http://www.w3.org/2000/svg" xmlns:xlink="http://www.w3.org/1999/xlink">
<g id="graph0" class="graph" transform="scale(1 1) rotate(0) translate(4 252)">
<title>Graphical Class Hierarchy</title>
<!-- Node0 -->
<g id="node1" class="node">
<title>Node0</title>
<g id="a_node1"><a xlink:href="d4/db0/class_node_operation.html" target="_top" xlink:title=" ">
<polygon fill="none" stroke="black" points="0,-114.5 0,-133.5 90,-133.5 90,-114.5 0,-114.5"/>
<text text-anchor="middle" x="45" y="-121.5" font-family="Helvetica,sans-Serif" font-size="10.00">NodeOperation</text>
</a>
</g>
</g>
<!-- Node1 -->
<g id="node2" class="node">
<title>Node1</title>
<g id="a_node2"><a xlink:href="d5/d97/class_node_d_i_s_p_l_a_c_e_m_e_n_t.html" target="_top" xlink:title=" ">
<polygon fill="none" stroke="black" points="148.5,-228.5 148.5,-247.5 267.5,-247.5 267.5,-228.5 148.5,-228.5"/>
<text text-anchor="middle" x="208" y="-235.5" font-family="Helvetica,sans-Serif" font-size="10.00">NodeDISPLACEMENT</text>
</a>
</g>
</g>
<!-- Node0&#45;&gt;Node1 -->
<g id="edge1" class="edge">
<title>Node0&#45;&gt;Node1</title>
<path fill="none" stroke="midnightblue" d="M56.27,-142.19C69.52,-163.91 94.63,-199.74 126,-219 132.77,-223.16 140.37,-226.4 148.13,-228.94"/>
<polygon fill="midnightblue" stroke="midnightblue" points="59.28,-140.4 51.19,-133.57 53.25,-143.96 59.28,-140.4"/>
</g>
<!-- Node2 -->
<g id="node3" class="node">
<title>Node2</title>
<g id="a_node3"><a xlink:href="da/dc5/class_node_h_y_d_r_a_u_l_i_c___d_i_s_c_h_a_r_g_e.html" target="_top" xlink:title=" ">
<polygon fill="none" stroke="black" points="127,-190.5 127,-209.5 289,-209.5 289,-190.5 127,-190.5"/>
<text text-anchor="middle" x="208" y="-197.5" font-family="Helvetica,sans-Serif" font-size="10.00">NodeHYDRAULIC_DISCHARGE</text>
</a>
</g>
</g>
<!-- Node0&#45;&gt;Node2 -->
<g id="edge2" class="edge">
<title>Node0&#45;&gt;Node2</title>
<path fill="none" stroke="midnightblue" d="M64.27,-140.19C79.7,-153.06 102.93,-170.56 126,-181 134.42,-184.81 143.7,-187.9 152.87,-190.4"/>
<polygon fill="midnightblue" stroke="midnightblue" points="66.42,-137.43 56.54,-133.6 61.88,-142.75 66.42,-137.43"/>
</g>
<!-- Node3 -->
<g id="node4" class="node">
<title>Node3</title>
<g id="a_node4"><a xlink:href="d2/dc0/class_node_h_y_d_r_a_u_l_i_c___h_e_a_d.html" target="_top" xlink:title=" ">
<polygon fill="none" stroke="black" points="142,-152.5 142,-171.5 274,-171.5 274,-152.5 142,-152.5"/>
<text text-anchor="middle" x="208" y="-159.5" font-family="Helvetica,sans-Serif" font-size="10.00">NodeHYDRAULIC_HEAD</text>
</a>
</g>
</g>
<!-- Node0&#45;&gt;Node3 -->
<g id="edge3" class="edge">
<title>Node0&#45;&gt;Node3</title>
<path fill="none" stroke="midnightblue" d="M96.03,-135.91C105.96,-138.26 116.31,-140.71 126,-143 139.07,-146.09 153.34,-149.44 166.2,-152.45"/>
<polygon fill="midnightblue" stroke="midnightblue" points="96.82,-132.5 86.28,-133.59 95.2,-139.31 96.82,-132.5"/>
</g>
<!-- Node4 -->
<g id="node5" class="node">
<title>Node4</title>
<g id="a_node5"><a xlink:href="d7/d8c/class_node_n_o_r_m_a_l___f_l_u_i_d___f_l_u_x.html" target="_top" xlink:title=" ">
<polygon fill="none" stroke="black" points="133,-114.5 133,-133.5 283,-133.5 283,-114.5 133,-114.5"/>
<text text-anchor="middle" x="208" y="-121.5" font-family="Helvetica,sans-Serif" font-size="10.00">NodeNORMAL_FLUID_FLUX</text>
</a>
</g>
</g>
<!-- Node0&#45;&gt;Node4 -->
<g id="edge4" class="edge">
<title>Node0&#45;&gt;Node4</title>
<path fill="none" stroke="midnightblue" d="M100.54,-124C110.9,-124 121.9,-124 132.75,-124"/>
<polygon fill="midnightblue" stroke="midnightblue" points="100.42,-120.5 90.42,-124 100.42,-127.5 100.42,-120.5"/>
</g>
<!-- Node5 -->
<g id="node6" class="node">
<title>Node5</title>
<g id="a_node6"><a xlink:href="da/d04/class_node_t_o_t_a_l___d_i_s_p_l_a_c_e_m_e_n_t.html" target="_top" xlink:title=" ">
<polygon fill="none" stroke="black" points="130.5,-76.5 130.5,-95.5 285.5,-95.5 285.5,-76.5 130.5,-76.5"/>
<text text-anchor="middle" x="208" y="-83.5" font-family="Helvetica,sans-Serif" font-size="10.00">NodeTOTAL_DISPLACEMENT</text>
</a>
</g>
</g>
<!-- Node0&#45;&gt;Node5 -->
<g id="edge5" class="edge">
<title>Node0&#45;&gt;Node5</title>
<path fill="none" stroke="midnightblue" d="M96.03,-112.09C105.96,-109.74 116.31,-107.29 126,-105 139.07,-101.91 153.34,-98.56 166.2,-95.55"/>
<polygon fill="midnightblue" stroke="midnightblue" points="95.2,-108.69 86.28,-114.41 96.82,-115.5 95.2,-108.69"/>
</g>
<!-- Node6 -->
<g id="node7" class="node">
<title>Node6</title>
<g id="a_node7"><a xlink:href="d2/db2/class_node_v_o_l_u_m_e___a_c_c_e_l_e_r_a_t_i_o_n.html" target="_top" xlink:title=" ">
<polygon fill="none" stroke="black" points="126,-38.5 126,-57.5 290,-57.5 290,-38.5 126,-38.5"/>
<text text-anchor="middle" x="208" y="-45.5" font-family="Helvetica,sans-Serif" font-size="10.00">NodeVOLUME_ACCELERATION</text>
</a>
</g>
</g>
<!-- Node0&#45;&gt;Node6 -->
<g id="edge6" class="edge">
<title>Node0&#45;&gt;Node6</title>
<path fill="none" stroke="midnightblue" d="M64.27,-107.81C79.7,-94.94 102.93,-77.44 126,-67 134.42,-63.19 143.7,-60.1 152.87,-57.6"/>
<polygon fill="midnightblue" stroke="midnightblue" points="61.88,-105.25 56.54,-114.4 66.42,-110.57 61.88,-105.25"/>
</g>
<!-- Node7 -->
<g id="node8" class="node">
<title>Node7</title>
<g id="a_node8"><a xlink:href="db/dc4/class_node_w_a_t_e_r___p_r_e_s_s_u_r_e.html" target="_top" xlink:title=" ">
<polygon fill="none" stroke="black" points="142,-0.5 142,-19.5 274,-19.5 274,-0.5 142,-0.5"/>
<text text-anchor="middle" x="208" y="-7.5" font-family="Helvetica,sans-Serif" font-size="10.00">NodeWATER_PRESSURE</text>
</a>
</g>
</g>
<!-- Node0&#45;&gt;Node7 -->
<g id="edge7" class="edge">
<title>Node0&#45;&gt;Node7</title>
<path fill="none" stroke="midnightblue" d="M56.27,-105.81C69.52,-84.09 94.63,-48.26 126,-29 132.28,-25.15 139.27,-22.07 146.44,-19.62"/>
<polygon fill="midnightblue" stroke="midnightblue" points="53.25,-104.04 51.19,-114.43 59.28,-107.6 53.25,-104.04"/>
</g>
</g>
</svg>
