<?xml version="1.0" encoding="UTF-8" standalone="no"?>
<!DOCTYPE svg PUBLIC "-//W3C//DTD SVG 1.1//EN"
 "http://www.w3.org/Graphics/SVG/1.1/DTD/svg11.dtd">
<!-- Generated by graphviz version 7.1.0 (0)
 -->
<!-- Title: Graphical Class Hierarchy Pages: 1 -->
<svg width="374pt" height="639pt"
 viewBox="0.00 0.00 374.00 639.00" xmlns="http://www.w3.org/2000/svg" xmlns:xlink="http://www.w3.org/1999/xlink">
<g id="graph0" class="graph" transform="scale(1 1) rotate(0) translate(4 635)">
<title>Graphical Class Hierarchy</title>
<!-- Node0 -->
<g id="node1" class="node">
<title>Node0</title>
<g id="a_node1"><a xlink:title=" ">
<polygon fill="#e0e0e0" stroke="#999999" points="99,-325 0,-325 0,-306 99,-306 99,-325"/>
<text text-anchor="middle" x="49.5" y="-313" font-family="Helvetica,sans-Serif" font-size="10.00">RansFormulation</text>
</a>
</g>
</g>
<!-- Node1 -->
<g id="node2" class="node">
<title>Node1</title>
<g id="a_node2"><a xlink:href="d7/d6d/classformulations_1_1incompressible__potential__flow_1_1_incompressible_potential_flow_rans_formulation.html" target="_top" xlink:title=" ">
<polygon fill="white" stroke="#666666" points="356,-631 145,-631 145,-590 356,-590 356,-631"/>
<text text-anchor="start" x="153" y="-619" font-family="Helvetica,sans-Serif" font-size="10.00">formulations.incompressible</text>
<text text-anchor="start" x="153" y="-608" font-family="Helvetica,sans-Serif" font-size="10.00">_potential_flow.IncompressiblePotential</text>
<text text-anchor="middle" x="250.5" y="-597" font-family="Helvetica,sans-Serif" font-size="10.00">FlowRansFormulation</text>
</a>
</g>
</g>
<!-- Node0&#45;&gt;Node1 -->
<g id="edge1" class="edge">
<title>Node0&#45;&gt;Node1</title>
<path fill="none" stroke="#63b8ff" d="M50.67,-336.77C52.29,-387.09 63.63,-514.25 135,-581.5 138.13,-584.45 141.52,-587.12 145.11,-589.52"/>
<polygon fill="#63b8ff" stroke="#63b8ff" points="54.18,-336.9 50.47,-326.98 47.18,-337.05 54.18,-336.9"/>
</g>
<!-- Node2 -->
<g id="node3" class="node">
<title>Node2</title>
<g id="a_node3"><a xlink:href="d0/dbc/classfractional__step__k__epsilon__rans__formulation_1_1_fractional_step_k_epsilon_rans_formulation.html" target="_top" xlink:title=" ">
<polygon fill="white" stroke="#666666" points="339.5,-572 161.5,-572 161.5,-531 339.5,-531 339.5,-572"/>
<text text-anchor="start" x="169.5" y="-560" font-family="Helvetica,sans-Serif" font-size="10.00">fractional_step_k_epsilon</text>
<text text-anchor="start" x="169.5" y="-549" font-family="Helvetica,sans-Serif" font-size="10.00">_rans_formulation.FractionalStep</text>
<text text-anchor="middle" x="250.5" y="-538" font-family="Helvetica,sans-Serif" font-size="10.00">KEpsilonRansFormulation</text>
</a>
</g>
</g>
<!-- Node0&#45;&gt;Node2 -->
<g id="edge2" class="edge">
<title>Node0&#45;&gt;Node2</title>
<path fill="none" stroke="#63b8ff" d="M52.81,-336.22C58.6,-378 77.66,-472.65 135,-522.5 142.66,-529.16 151.64,-534.33 161.14,-538.33"/>
<polygon fill="#63b8ff" stroke="#63b8ff" points="56.32,-336.04 51.6,-326.55 49.37,-336.91 56.32,-336.04"/>
</g>
<!-- Node3 -->
<g id="node4" class="node">
<title>Node3</title>
<g id="a_node4"><a xlink:href="dd/ddb/classfractional__step__k__omega__rans__formulation_1_1_fractional_step_k_omega_rans_formulation.html" target="_top" xlink:title=" ">
<polygon fill="white" stroke="#666666" points="331.5,-513 169.5,-513 169.5,-472 331.5,-472 331.5,-513"/>
<text text-anchor="start" x="177.5" y="-501" font-family="Helvetica,sans-Serif" font-size="10.00">fractional_step_k_omega</text>
<text text-anchor="start" x="177.5" y="-490" font-family="Helvetica,sans-Serif" font-size="10.00">_rans_formulation.Fractional</text>
<text text-anchor="middle" x="250.5" y="-479" font-family="Helvetica,sans-Serif" font-size="10.00">StepKOmegaRansFormulation</text>
</a>
</g>
</g>
<!-- Node0&#45;&gt;Node3 -->
<g id="edge3" class="edge">
<title>Node0&#45;&gt;Node3</title>
<path fill="none" stroke="#63b8ff" d="M56.43,-335.99C66.85,-368.21 91.56,-430.47 135,-463.5 145.04,-471.13 156.86,-476.77 169.03,-480.93"/>
<polygon fill="#63b8ff" stroke="#63b8ff" points="59.86,-335.21 53.58,-326.68 53.16,-337.26 59.86,-335.21"/>
</g>
<!-- Node4 -->
<g id="node5" class="node">
<title>Node4</title>
<g id="a_node5"><a xlink:href="d9/d5d/classfractional__step__k__omega__sst__rans__formulation_1_1_fractional_step_k_omega_s_s_t_rans_formulation.html" target="_top" xlink:title=" ">
<polygon fill="white" stroke="#666666" points="340.5,-454 160.5,-454 160.5,-413 340.5,-413 340.5,-454"/>
<text text-anchor="start" x="168.5" y="-442" font-family="Helvetica,sans-Serif" font-size="10.00">fractional_step_k_omega</text>
<text text-anchor="start" x="168.5" y="-431" font-family="Helvetica,sans-Serif" font-size="10.00">_sst_rans_formulation.Fractional</text>
<text text-anchor="middle" x="250.5" y="-420" font-family="Helvetica,sans-Serif" font-size="10.00">StepKOmegaSSTRansFormulation</text>
</a>
</g>
</g>
<!-- Node0&#45;&gt;Node4 -->
<g id="edge4" class="edge">
<title>Node0&#45;&gt;Node4</title>
<path fill="none" stroke="#63b8ff" d="M63.41,-334.47C78.3,-354.86 104.64,-386.73 135,-404.5 142.79,-409.06 151.28,-412.91 160,-416.15"/>
<polygon fill="#63b8ff" stroke="#63b8ff" points="66.39,-332.62 57.76,-326.48 60.68,-336.66 66.39,-332.62"/>
</g>
<!-- Node5 -->
<g id="node6" class="node">
<title>Node5</title>
<g id="a_node6"><a xlink:href="d6/d54/classfractional__step__velocity__pressure__rans__formulation_1_1_fractional_step_velocity_pressure_rans_formulation.html" target="_top" xlink:title=" ">
<polygon fill="white" stroke="#666666" points="352,-395 149,-395 149,-354 352,-354 352,-395"/>
<text text-anchor="start" x="157" y="-383" font-family="Helvetica,sans-Serif" font-size="10.00">fractional_step_velocity</text>
<text text-anchor="start" x="157" y="-372" font-family="Helvetica,sans-Serif" font-size="10.00">_pressure_rans_formulation.Fractional</text>
<text text-anchor="middle" x="250.5" y="-361" font-family="Helvetica,sans-Serif" font-size="10.00">StepVelocityPressureRansFormulation</text>
</a>
</g>
</g>
<!-- Node0&#45;&gt;Node5 -->
<g id="edge5" class="edge">
<title>Node0&#45;&gt;Node5</title>
<path fill="none" stroke="#63b8ff" d="M87.28,-329.4C102.01,-334.74 119.21,-340.71 135,-345.5 144.03,-348.24 153.51,-350.93 162.98,-353.5"/>
<polygon fill="#63b8ff" stroke="#63b8ff" points="88.57,-326.14 77.98,-325.98 86.16,-332.71 88.57,-326.14"/>
</g>
<!-- Node6 -->
<g id="node7" class="node">
<title>Node6</title>
<g id="a_node7"><a xlink:href="db/d6c/classmonolithic__k__epsilon__rans__formulation_1_1_monolithic_k_epsilon_rans_formulation.html" target="_top" xlink:title=" ">
<polygon fill="white" stroke="#666666" points="330,-336 171,-336 171,-295 330,-295 330,-336"/>
<text text-anchor="start" x="179" y="-324" font-family="Helvetica,sans-Serif" font-size="10.00">monolithic_k_epsilon</text>
<text text-anchor="start" x="179" y="-313" font-family="Helvetica,sans-Serif" font-size="10.00">_rans_formulation.Monolithic</text>
<text text-anchor="middle" x="250.5" y="-302" font-family="Helvetica,sans-Serif" font-size="10.00">KEpsilonRansFormulation</text>
</a>
</g>
</g>
<!-- Node0&#45;&gt;Node6 -->
<g id="edge6" class="edge">
<title>Node0&#45;&gt;Node6</title>
<path fill="none" stroke="#63b8ff" d="M110.88,-315.5C129.78,-315.5 150.92,-315.5 170.88,-315.5"/>
<polygon fill="#63b8ff" stroke="#63b8ff" points="110.95,-312 100.95,-315.5 110.95,-319 110.95,-312"/>
</g>
<!-- Node7 -->
<g id="node8" class="node">
<title>Node7</title>
<g id="a_node8"><a xlink:href="df/ddd/classmonolithic__k__omega__rans__formulation_1_1_monolithic_k_omega_rans_formulation.html" target="_top" xlink:title=" ">
<polygon fill="white" stroke="#666666" points="330,-277 171,-277 171,-236 330,-236 330,-277"/>
<text text-anchor="start" x="179" y="-265" font-family="Helvetica,sans-Serif" font-size="10.00">monolithic_k_omega</text>
<text text-anchor="start" x="179" y="-254" font-family="Helvetica,sans-Serif" font-size="10.00">_rans_formulation.Monolithic</text>
<text text-anchor="middle" x="250.5" y="-243" font-family="Helvetica,sans-Serif" font-size="10.00">KOmegaRansFormulation</text>
</a>
</g>
</g>
<!-- Node0&#45;&gt;Node7 -->
<g id="edge7" class="edge">
<title>Node0&#45;&gt;Node7</title>
<path fill="none" stroke="#63b8ff" d="M88.33,-301.84C102.85,-296.78 119.62,-291.15 135,-286.5 146.51,-283.02 158.74,-279.57 170.75,-276.31"/>
<polygon fill="#63b8ff" stroke="#63b8ff" points="87.43,-298.45 79.16,-305.08 89.76,-305.05 87.43,-298.45"/>
</g>
<!-- Node8 -->
<g id="node9" class="node">
<title>Node8</title>
<g id="a_node9"><a xlink:href="de/da7/classmonolithic__k__omega__sst__rans__formulation_1_1_monolithic_k_omega_s_s_t_rans_formulation.html" target="_top" xlink:title=" ">
<polygon fill="white" stroke="#666666" points="340,-218 161,-218 161,-177 340,-177 340,-218"/>
<text text-anchor="start" x="169" y="-206" font-family="Helvetica,sans-Serif" font-size="10.00">monolithic_k_omega</text>
<text text-anchor="start" x="169" y="-195" font-family="Helvetica,sans-Serif" font-size="10.00">_sst_rans_formulation.Monolithic</text>
<text text-anchor="middle" x="250.5" y="-184" font-family="Helvetica,sans-Serif" font-size="10.00">KOmegaSSTRansFormulation</text>
</a>
</g>
</g>
<!-- Node0&#45;&gt;Node8 -->
<g id="edge8" class="edge">
<title>Node0&#45;&gt;Node8</title>
<path fill="none" stroke="#63b8ff" d="M63.72,-296.48C78.71,-276.35 105,-245.12 135,-227.5 142.97,-222.82 151.68,-218.85 160.62,-215.5"/>
<polygon fill="#63b8ff" stroke="#63b8ff" points="61.03,-294.23 58.01,-304.38 66.71,-298.33 61.03,-294.23"/>
</g>
<!-- Node9 -->
<g id="node10" class="node">
<title>Node9</title>
<g id="a_node10"><a xlink:href="d7/db7/classmonolithic__velocity__pressure__rans__formulation_1_1_monolithic_velocity_pressure_rans_formulation.html" target="_top" xlink:title=" ">
<polygon fill="white" stroke="#666666" points="366,-159 135,-159 135,-118 366,-118 366,-159"/>
<text text-anchor="start" x="143" y="-147" font-family="Helvetica,sans-Serif" font-size="10.00">monolithic_velocity</text>
<text text-anchor="start" x="143" y="-136" font-family="Helvetica,sans-Serif" font-size="10.00">_pressure_rans_formulation.</text>
<text text-anchor="middle" x="250.5" y="-125" font-family="Helvetica,sans-Serif" font-size="10.00">MonolithicVelocityPressureRansFormulation</text>
</a>
</g>
</g>
<!-- Node0&#45;&gt;Node9 -->
<g id="edge9" class="edge">
<title>Node0&#45;&gt;Node9</title>
<path fill="none" stroke="#63b8ff" d="M56.51,-295.19C67.02,-263.24 91.87,-201.47 135,-168.5 139.41,-165.13 144.16,-162.14 149.13,-159.48"/>
<polygon fill="#63b8ff" stroke="#63b8ff" points="53.27,-293.82 53.62,-304.41 59.95,-295.91 53.27,-293.82"/>
</g>
<!-- Node10 -->
<g id="node11" class="node">
<title>Node10</title>
<g id="a_node11"><a xlink:href="d3/d55/classscalar__turbulence__model__rans__formulation_1_1_scalar_turbulence_model_rans_formulation.html" target="_top" xlink:title=" ">
<polygon fill="white" stroke="#666666" points="346,-100 155,-100 155,-59 346,-59 346,-100"/>
<text text-anchor="start" x="163" y="-88" font-family="Helvetica,sans-Serif" font-size="10.00">scalar_turbulence_model</text>
<text text-anchor="start" x="163" y="-77" font-family="Helvetica,sans-Serif" font-size="10.00">_rans_formulation.ScalarTurbulence</text>
<text text-anchor="middle" x="250.5" y="-66" font-family="Helvetica,sans-Serif" font-size="10.00">ModelRansFormulation</text>
</a>
</g>
</g>
<!-- Node0&#45;&gt;Node10 -->
<g id="edge10" class="edge">
<title>Node0&#45;&gt;Node10</title>
<path fill="none" stroke="#63b8ff" d="M52.96,-294.34C58.97,-252.53 78.32,-159.1 135,-109.5 140.88,-104.36 147.53,-100.08 154.6,-96.53"/>
<polygon fill="#63b8ff" stroke="#63b8ff" points="49.52,-293.68 51.69,-304.05 56.46,-294.59 49.52,-293.68"/>
</g>
<!-- Node11 -->
<g id="node12" class="node">
<title>Node11</title>
<g id="a_node12"><a xlink:href="dd/d88/classtwo__equation__turbulence__model__rans__formulation_1_1_two_equation_turbulence_model_rans_formulation.html" target="_top" xlink:title=" ">
<polygon fill="white" stroke="#666666" points="353.5,-41 147.5,-41 147.5,0 353.5,0 353.5,-41"/>
<text text-anchor="start" x="155.5" y="-29" font-family="Helvetica,sans-Serif" font-size="10.00">two_equation_turbulence</text>
<text text-anchor="start" x="155.5" y="-18" font-family="Helvetica,sans-Serif" font-size="10.00">_model_rans_formulation.TwoEquation</text>
<text text-anchor="middle" x="250.5" y="-7" font-family="Helvetica,sans-Serif" font-size="10.00">TurbulenceModelRansFormulation</text>
</a>
</g>
</g>
<!-- Node0&#45;&gt;Node11 -->
<g id="edge11" class="edge">
<title>Node0&#45;&gt;Node11</title>
<path fill="none" stroke="#63b8ff" d="M50.74,-294.35C52.49,-244.3 64.11,-117.77 135,-50.5 138.73,-46.96 142.82,-43.83 147.17,-41.06"/>
<polygon fill="#63b8ff" stroke="#63b8ff" points="47.25,-294 50.51,-304.08 54.24,-294.16 47.25,-294"/>
</g>
</g>
</svg>
