<?xml version="1.0" encoding="UTF-8" standalone="no"?>
<!DOCTYPE svg PUBLIC "-//W3C//DTD SVG 1.1//EN"
 "http://www.w3.org/Graphics/SVG/1.1/DTD/svg11.dtd">
<!-- Generated by graphviz version 7.1.0 (0)
 -->
<!-- Title: Graphical Class Hierarchy Pages: 1 -->
<svg width="298pt" height="98pt"
 viewBox="0.00 0.00 298.00 97.50" xmlns="http://www.w3.org/2000/svg" xmlns:xlink="http://www.w3.org/1999/xlink">
<g id="graph0" class="graph" transform="scale(1 1) rotate(0) translate(4 93.5)">
<title>Graphical Class Hierarchy</title>
<!-- Node0 -->
<g id="node1" class="node">
<title>Node0</title>
<g id="a_node1"><a xlink:title=" ">
<polygon fill="#e0e0e0" stroke="#999999" points="87,-57 0,-57 0,-38 87,-38 87,-57"/>
<text text-anchor="middle" x="43.5" y="-45" font-family="Helvetica,sans-Serif" font-size="10.00">AleFluidSolver</text>
</a>
</g>
</g>
<!-- Node1 -->
<g id="node2" class="node">
<title>Node1</title>
<g id="a_node2"><a xlink:href="d3/d9b/classale__potential__flow__solver_1_1_ale_potential_flow_solver.html" target="_top" xlink:title=" ">
<polygon fill="white" stroke="#666666" points="290,-89.5 123,-89.5 123,-59.5 290,-59.5 290,-89.5"/>
<text text-anchor="start" x="131" y="-77.5" font-family="Helvetica,sans-Serif" font-size="10.00">ale_potential_flow</text>
<text text-anchor="middle" x="206.5" y="-66.5" font-family="Helvetica,sans-Serif" font-size="10.00">_solver.AlePotentialFlowSolver</text>
</a>
</g>
</g>
<!-- Node0&#45;&gt;Node1 -->
<g id="edge1" class="edge">
<title>Node0&#45;&gt;Node1</title>
<path fill="none" stroke="#63b8ff" d="M98.4,-56.54C106.23,-57.85 114.45,-59.23 122.7,-60.61"/>
<polygon fill="#63b8ff" stroke="#63b8ff" points="99.16,-53.12 88.72,-54.91 98,-60.02 99.16,-53.12"/>
</g>
<!-- Node2 -->
<g id="node3" class="node">
<title>Node2</title>
<g id="a_node3"><a xlink:href="d4/d19/classnavier__stokes__ale__fluid__solver_1_1_navier_stokes_ale_fluid_solver.html" target="_top" xlink:title=" ">
<polygon fill="white" stroke="#666666" points="285.5,-41 127.5,-41 127.5,0 285.5,0 285.5,-41"/>
<text text-anchor="start" x="135.5" y="-29" font-family="Helvetica,sans-Serif" font-size="10.00">navier_stokes_ale_fluid</text>
<text text-anchor="start" x="135.5" y="-18" font-family="Helvetica,sans-Serif" font-size="10.00">_solver.NavierStokesAleFluid</text>
<text text-anchor="middle" x="206.5" y="-7" font-family="Helvetica,sans-Serif" font-size="10.00">Solver</text>
</a>
</g>
</g>
<!-- Node0&#45;&gt;Node2 -->
<g id="edge2" class="edge">
<title>Node0&#45;&gt;Node2</title>
<path fill="none" stroke="#63b8ff" d="M98.53,-38.44C107.72,-36.9 117.42,-35.27 127.07,-33.65"/>
<polygon fill="#63b8ff" stroke="#63b8ff" points="98,-34.98 88.72,-40.09 99.16,-41.88 98,-34.98"/>
</g>
</g>
</svg>
