<?xml version="1.0" encoding="UTF-8" standalone="no"?>
<!DOCTYPE svg PUBLIC "-//W3C//DTD SVG 1.1//EN"
 "http://www.w3.org/Graphics/SVG/1.1/DTD/svg11.dtd">
<!-- Generated by graphviz version 7.1.0 (0)
 -->
<!-- Title: Graphical Class Hierarchy Pages: 1 -->
<svg width="295pt" height="86pt"
 viewBox="0.00 0.00 295.00 86.00" xmlns="http://www.w3.org/2000/svg" xmlns:xlink="http://www.w3.org/1999/xlink">
<g id="graph0" class="graph" transform="scale(1 1) rotate(0) translate(4 82)">
<title>Graphical Class Hierarchy</title>
<!-- Node0 -->
<g id="node1" class="node">
<title>Node0</title>
<g id="a_node1"><a xlink:href="dc/d91/struct_kratos_1_1_k_r_a_t_o_s___a_p_i_1_1_accessor___get___base.html" target="_top" xlink:title=" ">
<polygon fill="white" stroke="#666666" points="118,-54 0,-54 0,-24 118,-24 118,-54"/>
<text text-anchor="start" x="8" y="-42" font-family="Helvetica,sans-Serif" font-size="10.00">Kratos::KRATOS_API</text>
<text text-anchor="middle" x="59" y="-31" font-family="Helvetica,sans-Serif" font-size="10.00">::Accessor_Get_Base</text>
</a>
</g>
</g>
<!-- Node1 -->
<g id="node2" class="node">
<title>Node1</title>
<g id="a_node2"><a xlink:href="d6/d26/struct_kratos_1_1_k_r_a_t_o_s___a_p_i_1_1_accessor___hist___get.html" target="_top" xlink:title=" ">
<polygon fill="white" stroke="#666666" points="277.5,-78 163.5,-78 163.5,-48 277.5,-48 277.5,-78"/>
<text text-anchor="start" x="171.5" y="-66" font-family="Helvetica,sans-Serif" font-size="10.00">Kratos::KRATOS_API</text>
<text text-anchor="middle" x="220.5" y="-55" font-family="Helvetica,sans-Serif" font-size="10.00">::Accessor_Hist_Get</text>
</a>
</g>
</g>
<!-- Node0&#45;&gt;Node1 -->
<g id="edge1" class="edge">
<title>Node0&#45;&gt;Node1</title>
<path fill="none" stroke="#63b8ff" d="M129.58,-49.47C140.8,-51.16 152.29,-52.89 163.15,-54.52"/>
<polygon fill="#63b8ff" stroke="#63b8ff" points="130.39,-46.05 119.98,-48.03 129.35,-52.97 130.39,-46.05"/>
</g>
<!-- Node2 -->
<g id="node3" class="node">
<title>Node2</title>
<g id="a_node3"><a xlink:href="de/d27/struct_kratos_1_1_k_r_a_t_o_s___a_p_i_1_1_accessor___non_hist___get.html" target="_top" xlink:title=" ">
<polygon fill="white" stroke="#666666" points="287,-30 154,-30 154,0 287,0 287,-30"/>
<text text-anchor="start" x="162" y="-18" font-family="Helvetica,sans-Serif" font-size="10.00">Kratos::KRATOS_API</text>
<text text-anchor="middle" x="220.5" y="-7" font-family="Helvetica,sans-Serif" font-size="10.00">::Accessor_NonHist_Get</text>
</a>
</g>
</g>
<!-- Node0&#45;&gt;Node2 -->
<g id="edge2" class="edge">
<title>Node0&#45;&gt;Node2</title>
<path fill="none" stroke="#63b8ff" d="M129.67,-28.52C137.67,-27.31 145.8,-26.09 153.75,-24.89"/>
<polygon fill="#63b8ff" stroke="#63b8ff" points="129.35,-25.03 119.98,-29.97 130.39,-31.95 129.35,-25.03"/>
</g>
</g>
</svg>
