<?xml version="1.0" encoding="UTF-8" standalone="no"?>
<!DOCTYPE svg PUBLIC "-//W3C//DTD SVG 1.1//EN"
 "http://www.w3.org/Graphics/SVG/1.1/DTD/svg11.dtd">
<!-- Generated by graphviz version 7.1.0 (0)
 -->
<!-- Title: Graphical Class Hierarchy Pages: 1 -->
<svg width="289pt" height="86pt"
 viewBox="0.00 0.00 289.00 86.00" xmlns="http://www.w3.org/2000/svg" xmlns:xlink="http://www.w3.org/1999/xlink">
<g id="graph0" class="graph" transform="scale(1 1) rotate(0) translate(4 82)">
<title>Graphical Class Hierarchy</title>
<!-- Node0 -->
<g id="node1" class="node">
<title>Node0</title>
<g id="a_node1"><a xlink:title=" ">
<polygon fill="#e0e0e0" stroke="#999999" points="70,-48.5 0,-48.5 0,-29.5 70,-29.5 70,-48.5"/>
<text text-anchor="middle" x="35" y="-36.5" font-family="Helvetica,sans-Serif" font-size="10.00">TFluidData</text>
</a>
</g>
</g>
<!-- Node1 -->
<g id="node2" class="node">
<title>Node1</title>
<g id="a_node2"><a xlink:href="d9/d92/class_kratos_1_1_embedded_data.html" target="_top" xlink:title=" ">
<polygon fill="white" stroke="#666666" points="258,-78 129,-78 129,-48 258,-48 258,-78"/>
<text text-anchor="start" x="137" y="-66" font-family="Helvetica,sans-Serif" font-size="10.00">Kratos::EmbeddedData</text>
<text text-anchor="middle" x="193.5" y="-55" font-family="Helvetica,sans-Serif" font-size="10.00">&lt; TFluidData &gt;</text>
</a>
</g>
</g>
<!-- Node0&#45;&gt;Node1 -->
<g id="edge1" class="edge">
<title>Node0&#45;&gt;Node1</title>
<path fill="none" stroke="#63b8ff" d="M81.66,-46C96.34,-48.25 112.88,-50.79 128.61,-53.2"/>
<polygon fill="#63b8ff" stroke="#63b8ff" points="82.26,-42.55 71.84,-44.5 81.19,-49.47 82.26,-42.55"/>
</g>
<!-- Node2 -->
<g id="node3" class="node">
<title>Node2</title>
<g id="a_node3"><a xlink:href="d8/d66/class_kratos_1_1_embedded_discontinuous_data.html" target="_top" xlink:title=" ">
<polygon fill="white" stroke="#666666" points="281,-30 106,-30 106,0 281,0 281,-30"/>
<text text-anchor="start" x="114" y="-18" font-family="Helvetica,sans-Serif" font-size="10.00">Kratos::EmbeddedDiscontinuous</text>
<text text-anchor="middle" x="193.5" y="-7" font-family="Helvetica,sans-Serif" font-size="10.00">Data&lt; TFluidData &gt;</text>
</a>
</g>
</g>
<!-- Node0&#45;&gt;Node2 -->
<g id="edge2" class="edge">
<title>Node0&#45;&gt;Node2</title>
<path fill="none" stroke="#63b8ff" d="M81.54,-32.02C89.2,-30.84 97.38,-29.59 105.68,-28.31"/>
<polygon fill="#63b8ff" stroke="#63b8ff" points="81.19,-28.53 71.84,-33.5 82.26,-35.45 81.19,-28.53"/>
</g>
</g>
</svg>
